<?xml version="1.0" ?><!DOCTYPE svg  PUBLIC '-//W3C//DTD SVG 1.1//EN'  'http://www.w3.org/Graphics/SVG/1.1/DTD/svg11.dtd'><svg height="263.000" viewBox="-91.000 -173.000 263.000 263.000" width="263.000" xmlns="http://www.w3.org/2000/svg"><line fill="none" stroke="none" stroke-linecap="round" stroke-width="2.0" x1="0.0" x2="0.0" y1="0.0" y2="0.0"/><polygon fill="none" fill-rule="evenodd" points="0.0,0.0 0.0,0.0 0.0,0.0" stroke-linejoin="round"/><line fill="none" stroke="none" stroke-linecap="round" stroke-width="2.0" x1="0.0" x2="0.0" y1="0.0" y2="0.0"/><line fill="none" stroke="none" stroke-linecap="round" stroke-width="2.0" x1="0.0" x2="0.0" y1="0.0" y2="0.0"/><polygon fill="none" fill-rule="evenodd" points="0.0,0.0 0.0,0.0 0.0,0.0" stroke-linejoin="round"/><line fill="none" stroke="none" stroke-linecap="round" stroke-width="2.0" x1="0.0" x2="0.0" y1="0.0" y2="0.0"/><line fill="none" stroke="none" stroke-linecap="round" stroke-width="2.0" x1="0.0" x2="0.0" y1="0.0" y2="0.0"/><polygon fill="none" fill-rule="evenodd" points="0.0,0.0 0.0,0.0 0.0,0.0" stroke-linejoin="round"/><line fill="none" stroke="none" stroke-linecap="round" stroke-width="2.0" x1="0.0" x2="0.0" y1="0.0" y2="0.0"/><line fill="none" stroke="none" stroke-linecap="round" stroke-width="2.0" x1="0.0" x2="0.0" y1="0.0" y2="0.0"/><polygon fill="none" fill-rule="evenodd" points="0.0,0.0 0.0,0.0 0.0,0.0" stroke-linejoin="round"/><line fill="none" stroke="none" stroke-linecap="round" stroke-width="2.0" x1="0.0" x2="0.0" y1="0.0" y2="0.0"/><line fill="none" stroke="none" stroke-linecap="round" stroke-width="2.0" x1="0.0" x2="0.0" y1="0.0" y2="0.0"/><polygon fill="none" fill-rule="evenodd" points="0.0,0.0 0.0,0.0 0.0,0.0" stroke-linejoin="round"/><line fill="none" stroke="none" stroke-linecap="round" stroke-width="2.0" x1="0.0" x2="0.0" y1="0.0" y2="0.0"/><line fill="none" stroke="none" stroke-linecap="round" stroke-width="2.0" x1="0.0" x2="0.0" y1="0.0" y2="0.0"/><polygon fill="none" fill-rule="evenodd" points="0.0,0.0 0.0,0.0 0.0,0.0" stroke-linejoin="round"/><line fill="none" stroke="none" stroke-linecap="round" stroke-width="2.0" x1="0.0" x2="0.0" y1="0.0" y2="0.0"/><line fill="none" stroke="none" stroke-linecap="round" stroke-width="2.0" x1="0.0" x2="0.0" y1="0.0" y2="0.0"/><polygon fill="none" fill-rule="evenodd" points="0.0,0.0 0.0,0.0 0.0,0.0" stroke-linejoin="round"/><line fill="none" stroke="none" stroke-linecap="round" stroke-width="2.0" x1="0.0" x2="0.0" y1="0.0" y2="0.0"/><line fill="none" stroke="none" stroke-linecap="round" stroke-width="2.0" x1="0.0" x2="0.0" y1="0.0" y2="0.0"/><polygon fill="none" fill-rule="evenodd" points="0.0,0.0 0.0,0.0 0.0,0.0" stroke-linejoin="round"/><line fill="none" stroke="none" stroke-linecap="round" stroke-width="2.0" x1="0.0" x2="0.0" y1="0.0" y2="0.0"/><line fill="none" stroke="none" stroke-linecap="round" stroke-width="2.0" x1="0.0" x2="0.0" y1="0.0" y2="0.0"/><polygon fill="none" fill-rule="evenodd" points="0.0,0.0 0.0,0.0 0.0,0.0" stroke-linejoin="round"/><line fill="none" stroke="none" stroke-linecap="round" stroke-width="2.0" x1="0.0" x2="0.0" y1="0.0" y2="0.0"/><line fill="none" stroke="none" stroke-linecap="round" stroke-width="2.0" x1="0.0" x2="0.0" y1="0.0" y2="0.0"/><polygon fill="none" fill-rule="evenodd" points="0.0,0.0 0.0,0.0 0.0,0.0" stroke-linejoin="round"/><polyline fill="none" points="26.55571692709961,-32.47414401029971 29.05571692709961,-33.14401699137752 30.885843946021804,-34.97414401029971 31.55571692709961,-37.47414401029971 30.885843946021804,-39.97414401029971 29.055716927099613,-41.8042710292219 26.555716927099613,-42.47414401029971 24.055716927099613,-41.8042710292219 22.22558990817742,-39.97414401029971 21.55571692709961,-37.47414401029971 22.225589908177415,-34.97414401029971 24.055716927099606,-33.14401699137751 26.555716927099606,-32.4741440102997" stroke="#00f" stroke-linecap="round" stroke-linejoin="round"/><polyline fill="none" points="-33.49215045154627,-62.31350700147928 -30.992150451546273,-62.98337998255708 -29.16202343262408,-64.81350700147928 -28.49215045154627,-67.31350700147928 -29.162023432624075,-69.81350700147928 -30.992150451546266,-71.64363402040148 -33.492150451546266,-72.3135070014793 -35.992150451546266,-71.64363402040149 -37.822277470468464,-69.81350700147931 -38.49215045154627,-67.31350700147931 -37.82227747046847,-64.81350700147931 -35.99215045154628,-62.98337998255711 -33.49215045154628,-62.3135070014793" stroke="#ffa500" stroke-linecap="round" stroke-linejoin="round"/><polyline fill="none" points="-10.258615106279931,-58.800844797987736 -7.75861510627993,-59.47071777906554 -5.9284880873577315,-61.30084479798773 -5.258615106279919,-63.80084479798773 -5.92848808735772,-66.30084479798774 -7.75861510627991,-68.13097181690993 -10.25861510627991,-68.80084479798775 -12.758615106279914,-68.13097181690995 -14.588742125202113,-66.30084479798776 -15.258615106279928,-63.800844797987764 -14.588742125202128,-61.300844797987764 -12.758615106279938,-59.470717779065566 -10.258615106279938,-58.80084479798775" stroke="#00f" stroke-linecap="round" stroke-linejoin="round"/><polyline fill="none" points="77.33727024844319,-151.09037726845776 79.83727024844319,-151.76025024953555 81.66739726736539,-153.59037726845773 82.3372702484432,-156.09037726845773 81.6673972673654,-158.59037726845773 79.83727024844322,-160.42050428737994 77.33727024844322,-161.09037726845776 74.83727024844322,-160.42050428737997 73.00714322952102,-158.5903772684578 72.3372702484432,-156.0903772684578 73.007143229521,-153.5903772684578 74.83727024844319,-151.76025024953557 77.33727024844319,-151.09037726845776" stroke="#ffa500" stroke-linecap="round" stroke-linejoin="round"/><polyline fill="none" points="93.82913250139937,-151.6659352163398 96.32913250139937,-152.33580819741758 98.15925952032157,-154.16593521633976 98.82913250139939,-156.66593521633976 98.15925952032158,-159.16593521633976 96.3291325013994,-160.99606223526197 93.8291325013994,-161.6659352163398 91.3291325013994,-160.996062235262 89.4990054824772,-159.16593521633982 88.82913250139939,-156.66593521633982 89.49900548247719,-154.16593521633982 91.32913250139937,-152.3358081974176 93.82913250139937,-151.6659352163398" stroke="#ffa500" stroke-linecap="round" stroke-linejoin="round"/><polyline fill="none" points="6.011621473414029,33.93595588482622 8.511621473414035,33.266082903748426 10.34174849233624,31.43595588482624 11.011621473414062,28.93595588482624 10.341748492336267,26.43595588482623 8.511621473414081,24.605828865904027 6.011621473414081,23.935955884826203 3.511621473414074,24.605828865903998 1.6814944544918677,26.435955884826182 1.0116214734140454,28.935955884826182 1.6814944544918387,31.43595588482619 3.511621473414024,33.2660829037484 6.011621473414024,33.93595588482622" stroke="#ffa500" stroke-linecap="round" stroke-linejoin="round"/><polyline fill="none" points="122.3831148550267,-97.90779137106583 124.88311485502672,-98.57766435214361 126.71324187394893,-100.4077913710658 127.38311485502676,-102.9077913710658 126.71324187394897,-105.40779137106581 124.88311485502679,-107.23791838998802 122.38311485502679,-107.90779137106585 119.88311485502678,-107.23791838998807 118.05298783610456,-105.40779137106588 117.38311485502673,-102.90779137106588 118.05298783610452,-100.40779137106587 119.8831148550267,-98.57766435214366 122.3831148550267,-97.90779137106583" stroke="#ffa500" stroke-linecap="round" stroke-linejoin="round"/><polyline fill="none" points="35.78473762751811,-9.46565155610173 38.28473762751812,-10.135524537179519 40.11486464644033,-11.965651556101703 40.78473762751816,-14.465651556101703 40.114864646440374,-16.96565155610171 38.28473762751819,-18.795778575023924 35.78473762751819,-19.46565155610175 33.28473762751818,-18.795778575023963 31.45461060859597,-16.96565155610178 30.784737627518144,-14.465651556101779 31.45461060859593,-11.965651556101768 33.28473762751811,-10.135524537179556 35.78473762751811,-9.465651556101728" stroke="#008000" stroke-linecap="round" stroke-linejoin="round"/><polyline fill="none" points="122.36219899773589,-87.53551476057203 124.8621989977359,-88.20538774164982 126.69232601665811,-90.035514760572 127.36219899773594,-92.535514760572 126.69232601665816,-95.03551476057201 124.86219899773597,-96.86564177949423 122.36219899773597,-97.53551476057206 119.86219899773596,-96.86564177949427 118.03207197881375,-95.03551476057208 117.36219899773592,-92.53551476057208 118.0320719788137,-90.03551476057207 119.86219899773589,-88.20538774164986 122.36219899773589,-87.53551476057203" stroke="#ffa500" stroke-linecap="round" stroke-linejoin="round"/><polyline fill="none" points="-15.995277571406607,-81.91764106598654 -13.495277571406595,-82.58751404706433 -11.66515055248438,-84.41764106598652 -10.995277571406548,-86.91764106598652 -11.665150552484333,-89.41764106598653 -13.495277571406513,-91.24776808490874 -15.995277571406513,-91.91764106598657 -18.495277571406525,-91.24776808490878 -20.32540459032874,-89.4176410659866 -20.995277571406575,-86.9176410659866 -20.32540459032879,-84.41764106598659 -18.49527757140661,-82.58751404706437 -15.99527757140661,-81.91764106598654" stroke="#ffa500" stroke-linecap="round" stroke-linejoin="round"/><polyline fill="none" points="60.400993092665104,11.9964032854175 62.90099309266512,11.326530304339718 64.73112011158733,9.49640328541754 65.40099309266516,6.996403285417539 64.73112011158737,4.496403285417525 62.900993092665196,2.6662762664953066 60.400993092665196,1.9964032854174705 57.90099309266518,2.666276266495252 56.07086607374296,4.496403285417431 55.400993092665125,6.996403285417431 56.070866073742906,9.496403285417447 57.90099309266508,11.326530304339666 60.40099309266508,11.996403285417504" stroke="#008000" stroke-linecap="round" stroke-linejoin="round"/><polyline fill="none" points="136.24655303393106,-137.5137784231088 138.7465530339311,-138.18365140418658 140.5766800528533,-140.01377842310876 141.24655303393115,-142.51377842310876 140.57668005285336,-145.0137784231088 138.74655303393118,-146.843905442031 136.24655303393118,-147.51377842310885 133.74655303393115,-146.84390544203106 131.91642601500894,-145.01377842310887 131.2465530339311,-142.51377842310887 131.91642601500888,-140.01377842310885 133.74655303393106,-138.18365140418663 136.24655303393106,-137.5137784231088" stroke="#ffa500" stroke-linecap="round" stroke-linejoin="round"/><polyline fill="none" points="-59.853978924708144,78.02092905960886 -57.35397892470813,77.35105607853109 -55.52385190578591,75.5209290596089 -54.85397892470807,73.0209290596089 -55.523851905785854,70.52092905960889 -57.35397892470803,68.69080204068666 -59.85397892470803,68.02092905960882 -62.353978924708045,68.69080204068659 -64.18410594363027,70.52092905960876 -64.85397892470812,73.02092905960876 -64.18410594363034,75.52092905960878 -62.353978924708166,77.351056078531 -59.853978924708166,78.02092905960885" stroke="#ffa500" stroke-linecap="round" stroke-linejoin="round"/><polyline fill="none" points="1.206971315491659,-99.3022599036672 3.7069713154916766,-99.97213288474498 5.5370983344139,-101.80225990366715 6.206971315491743,-104.30225990366715 5.537098334413968,-106.80225990366716 3.706971315491793,-108.63238692258939 1.206971315491793,-109.30225990366723 -1.2930286845082257,-108.63238692258946 -3.1231557034304513,-106.80225990366729 -3.793028684508295,-104.30225990366729 -3.12315570343052,-101.80225990366728 -1.2930286845083452,-99.97213288474505 1.2069713154916557,-99.3022599036672" stroke="#ffa500" stroke-linecap="round" stroke-linejoin="round"/><polyline fill="none" points="5.886855048095387,-2.423443717125614 8.386855048095407,-3.093316698203388 10.216982067017634,-4.923443717125563 10.886855048095478,-7.423443717125565 10.216982067017705,-9.923443717125586 8.38685504809553,-11.753570736047815 5.886855048095528,-12.42344371712566 3.386855048095507,-11.753570736047887 1.5567280291732786,-9.923443717125712 0.8868550480954321,-7.423443717125711 1.5567280291732053,-4.923443717125689 3.38685504809538,-3.093316698203461 5.886855048095382,-2.4234437171256142" stroke="#ffa500" stroke-linecap="round" stroke-linejoin="round"/><polyline fill="none" points="67.44953911555444,-74.14005013686082 69.94953911555447,-74.8099231179386 71.7796661344767,-76.64005013686076 72.44953911555454,-79.14005013686076 71.77966613447677,-81.6400501368608 69.9495391155546,-83.47017715578302 67.4495391155546,-84.14005013686086 64.94953911555457,-83.47017715578309 63.11941209663234,-81.64005013686092 62.44953911555449,-79.14005013686092 63.11941209663226,-76.64005013686089 64.94953911555443,-74.80992311793867 67.44953911555443,-74.14005013686082" stroke="#00f" stroke-linecap="round" stroke-linejoin="round"/><polyline fill="none" points="21.811830749966855,-66.14799454851038 24.31183074996688,-66.81786752958816 26.141957768889114,-68.64799454851033 26.811830749966965,-71.14799454851033 26.141957768889196,-73.64799454851035 24.311830749967022,-75.47812156743258 21.811830749967022,-76.14799454851043 19.311830749966997,-75.47812156743265 17.481703731044764,-73.64799454851048 16.811830749966912,-71.14799454851048 17.481703731044682,-68.64799454851045 19.311830749966855,-66.81786752958823 21.81183074996686,-66.14799454851037" stroke="#00f" stroke-linecap="round" stroke-linejoin="round"/><polyline fill="none" points="144.95802467353988,-93.72205857580778 147.4580246735399,-94.39193155688555 149.28815169246215,-96.22205857580772 149.95802467354,-98.72205857580772 149.28815169246224,-101.22205857580775 147.45802467354005,-103.05218559472999 144.95802467354005,-103.72205857580785 142.45802467354002,-103.05218559473008 140.62789765461778,-101.2220585758079 139.95802467353994,-98.7220585758079 140.6278976546177,-96.22205857580788 142.45802467353988,-94.39193155688564 144.95802467353988,-93.72205857580778" stroke="#ffa500" stroke-linecap="round" stroke-linejoin="round"/><polyline fill="none" points="54.74537642811598,3.405262996469826 57.24537642811601,2.7353900153920607 59.075503447038244,0.9052629964698906 59.7453764281161,-1.5947370035301112 59.075503447038336,-4.094737003530137 57.24537642811617,-5.9248640224523745 54.74537642811617,-6.594737003530231 52.24537642811614,-5.924864022452466 50.4152494091939,-4.094737003530296 49.74537642811604,-1.5947370035302946 50.415249409193805,0.9052629964697321 52.245376428115975,2.73539001539197 54.745376428115975,3.405262996469828" stroke="#00f" stroke-linecap="round" stroke-linejoin="round"/><polyline fill="none" points="-37.26038135404967,-77.54866280586154 -34.76038135404964,-78.2185357869393 -32.9302543351274,-80.04866280586147 -32.26038135404954,-82.54866280586147 -32.9302543351273,-85.0486628058615 -34.76038135404947,-86.87878982478374 -37.26038135404947,-87.5486628058616 -39.7603813540495,-86.87878982478384 -41.59050837297174,-85.04866280586167 -42.2603813540496,-82.54866280586167 -41.59050837297184,-80.04866280586164 -39.76038135404967,-78.2185357869394 -37.26038135404967,-77.54866280586154" stroke="#ffa500" stroke-linecap="round" stroke-linejoin="round"/><polyline fill="none" points="27.593262059546266,25.558257860112175 30.093262059546294,24.888384879034415 31.923389078468535,23.05825786011225 32.5932620595464,20.55825786011225 31.923389078468638,18.05825786011222 30.093262059546472,16.22813084118998 27.593262059546472,15.558257860112118 25.093262059546444,16.228130841189877 23.263135040624203,18.058257860112043 22.59326205954634,20.558257860112043 23.2631350406241,23.05825786011207 25.093262059546266,24.888384879034316 27.59326205954627,25.558257860112178" stroke="#00f" stroke-linecap="round" stroke-linejoin="round"/><polyline fill="none" points="109.21765169928841,-60.543284652968836 111.71765169928844,-61.213157634046595 113.54777871821068,-63.043284652968765 114.21765169928854,-65.54328465296877 113.54777871821078,-68.0432846529688 111.71765169928861,-69.87341167189103 109.21765169928861,-70.5432846529689 106.71765169928858,-69.87341167189113 104.88752468036634,-68.04328465296896 104.21765169928848,-65.54328465296896 104.88752468036624,-63.043284652968936 106.71765169928841,-61.21315763404669 109.21765169928841,-60.54328465296882" stroke="#ffa500" stroke-linecap="round" stroke-linejoin="round"/><polyline fill="none" points="102.39834513965471,12.725600246280678 104.89834513965474,12.055727265202922 106.72847215857698,10.225600246280758 107.39834513965485,7.725600246280756 106.72847215857709,5.225600246280724 104.89834513965492,3.395473227358478 102.39834513965492,2.7256002462806106 99.8983451396549,3.395473227358366 98.06821812073265,5.22560024628053 97.39834513965478,7.725600246280532 98.06821812073254,10.225600246280564 99.89834513965471,12.055727265202812 102.39834513965471,12.725600246280681" stroke="#ffa500" stroke-linecap="round" stroke-linejoin="round"/><polyline fill="none" points="126.22085261900766,-117.94661733108454 128.7208526190077,-118.6164903121623 130.55097963792994,-120.44661733108447 131.22085261900781,-122.94661733108447 130.55097963793006,-125.4466173310845 128.7208526190079,-127.27674435000675 126.2208526190079,-127.94661733108462 123.72085261900787,-127.27674435000687 121.89072560008562,-125.4466173310847 121.22085261900774,-122.9466173310847 121.8907256000855,-120.44661733108467 123.72085261900767,-118.61649031216241 126.22085261900767,-117.94661733108454" stroke="#00f" stroke-linecap="round" stroke-linejoin="round"/><polyline fill="none" points="91.13742728919941,-39.211078720283844 93.63742728919944,-39.880951701361596 95.46755430812169,-41.71107872028376 96.13742728919956,-44.21107872028376 95.46755430812182,-46.711078720283794 93.63742728919966,-48.54120573920604 91.13742728919966,-49.211078720283915 88.63742728919964,-48.54120573920616 86.80730027027738,-46.711078720284 86.13742728919951,-44.211078720284 86.80730027027725,-41.711078720283965 88.63742728919941,-39.88095170136171 91.13742728919941,-39.21107872028384" stroke="#ffa500" stroke-linecap="round" stroke-linejoin="round"/><polyline fill="none" points="101.89574055067591,-132.60335213868697 104.39574055067595,-133.27322511976473 106.22586756959821,-135.1033521386869 106.89574055067608,-137.6033521386869 106.22586756959834,-140.10335213868692 104.39574055067618,-141.93347915760916 101.89574055067618,-142.60335213868703 99.39574055067614,-141.93347915760927 97.56561353175388,-140.10335213868711 96.89574055067601,-137.60335213868711 97.56561353175375,-135.1033521386871 99.39574055067591,-133.27322511976485 101.89574055067591,-132.60335213868697" stroke="#ffa500" stroke-linecap="round" stroke-linejoin="round"/><polyline fill="none" points="3.0152661185584915,28.102681177359283 5.515266118558527,27.432808196281535 7.345393137480782,25.602681177359376 8.015266118558658,23.102681177359372 7.3453931374809125,20.602681177359337 5.5152661185587535,18.77255415843708 3.0152661185587517,18.102681177359205 0.5152661185587144,18.77255415843695 -1.3148609003635416,20.60268117735911 -1.9847338814414202,23.10268117735911 -1.3148609003636749,25.602681177359145 0.5152661185584839,27.4328081962814 3.0152661185584857,28.10268117735928" stroke="#ffa500" stroke-linecap="round" stroke-linejoin="round"/><polyline fill="none" points="153.0387404157102,-28.490500544236127 155.53874041571024,-29.160373525313872 157.3688674346325,-30.99050054423603 158.03874041571038,-33.490500544236035 157.36886743463265,-35.99050054423607 155.5387404157105,-37.820627563158325 153.0387404157105,-38.490500544236205 150.53874041571046,-37.82062756315846 148.7086133967882,-35.990500544236305 148.03874041571032,-33.490500544236305 148.70861339678805,-30.990500544236266 150.5387404157102,-29.160373525314007 153.0387404157102,-28.490500544236124" stroke="#ffa500" stroke-linecap="round" stroke-linejoin="round"/><polyline fill="none" points="67.08342194536198,38.2757244780538 69.58342194536202,37.60585149697606 71.41354896428427,35.7757244780539 72.08342194536216,33.2757244780539 71.41354896428442,30.775724478053863 69.58342194536226,28.945597459131605 67.08342194536226,28.27572447805372 64.58342194536222,28.945597459131463 62.753294926439956,30.77572447805362 62.08342194536207,33.27572447805362 62.75329492643981,35.77572447805366 64.58342194536196,37.60585149697592 67.08342194536196,38.27572447805381" stroke="#ffa500" stroke-linecap="round" stroke-linejoin="round"/><polyline fill="none" points="61.84125261853006,-144.70500787862724 64.3412526185301,-145.37488085970497 66.17137963745238,-147.20500787862713 66.84125261853026,-149.70500787862713 66.17137963745252,-152.20500787862716 64.34125261853036,-154.03513489754943 61.84125261853036,-154.7050078786273 59.34125261853032,-154.03513489754957 57.51112559960806,-152.2050078786274 56.84125261853017,-149.7050078786274 57.51112559960791,-147.20500787862738 59.34125261853006,-145.37488085970512 61.84125261853006,-144.7050078786272" stroke="#ffa500" stroke-linecap="round" stroke-linejoin="round"/><polyline fill="none" points="39.39806383957615,37.7992798847586 41.898063839576196,37.12940690368086 43.72819085849846,35.299279884758704 44.398063839576345,32.799279884758704 43.72819085849861,30.29927988475866 41.89806383957645,28.469152865836396 39.39806383957645,27.799279884758505 36.89806383957641,28.46915286583624 35.06793682065414,30.29927988475839 34.39806383957625,32.79927988475839 35.06793682065399,35.299279884758434 36.898063839576146,37.1294069036807 39.398063839576146,37.7992798847586" stroke="#00f" stroke-linecap="round" stroke-linejoin="round"/><polyline fill="none" points="119.90754586019175,-147.65395002217076 122.40754586019179,-148.3238230032485 124.23767287911406,-150.15395002217065 124.90754586019195,-152.65395002217065 124.23767287911421,-155.1539500221707 122.40754586019206,-156.98407704109297 119.90754586019206,-157.65395002217087 117.40754586019202,-156.98407704109314 115.57741884126975,-155.153950022171 114.90754586019186,-152.653950022171 115.57741884126959,-150.15395002217093 117.40754586019175,-148.32382300324866 119.90754586019175,-147.65395002217076" stroke="#ffa500" stroke-linecap="round" stroke-linejoin="round"/><polyline fill="none" points="23.635085394535874,-102.60256322284518 26.13508539453592,-103.27243620392291 27.96521241345819,-105.10256322284506 28.635085394536084,-107.60256322284506 27.965212413458353,-110.1025632228451 26.1350853945362,-111.93269024176738 23.635085394536198,-112.60256322284528 21.13508539453615,-111.93269024176755 19.30495837561388,-110.10256322284539 18.63508539453598,-107.60256322284539 19.30495837561371,-105.10256322284535 21.13508539453586,-103.27243620392308 23.635085394535864,-102.60256322284518" stroke="#ffa500" stroke-linecap="round" stroke-linejoin="round"/><polyline fill="none" points="-45.42769879848436,-3.6125006995298747 -42.92769879848431,-4.282373680607604 -41.09757177956203,-6.112500699529753 -40.42769879848414,-8.612500699529754 -41.09757177956187,-11.1125006995298 -42.927698798484016,-12.942627718452073 -45.427698798484016,-13.61250069952997 -47.927698798484066,-12.942627718452242 -49.75782581740634,-11.112500699530093 -50.42769879848424,-8.612500699530091 -49.75782581740651,-6.1125006995300435 -47.927698798484364,-4.282373680607769 -45.427698798484364,-3.61250069952987" stroke="#ffa500" stroke-linecap="round" stroke-linejoin="round"/><polyline fill="none" points="-46.78707904506714,-25.65572105171654 -44.28707904506709,-26.325594032794267 -42.45695202614481,-28.155721051716416 -41.78707904506691,-30.65572105171642 -42.456952026144634,-33.15572105171647 -44.28707904506678,-34.985848070638745 -46.78707904506678,-35.65572105171665 -49.28707904506683,-34.98584807063892 -51.11720606398911,-33.155721051716775 -51.78707904506701,-30.655721051716775 -51.117206063989286,-28.155721051716725 -49.28707904506714,-26.32559403279445 -46.78707904506714,-25.655721051716547" stroke="#ffa500" stroke-linecap="round" stroke-linejoin="round"/><polyline fill="none" points="45.211281003487755,18.136887401907945 47.711281003487805,17.46701442083022 49.54140802241008,15.636887401908075 50.21128100348798,13.136887401908073 49.54140802241026,10.636887401908023 47.71128100348811,8.806760382985747 45.21128100348811,8.136887401907844 42.71128100348806,8.806760382985567 40.881153984565785,10.636887401907714 40.21128100348788,13.136887401907716 40.88115398456561,15.636887401907765 42.711281003487755,17.467014420830044 45.211281003487755,18.13688740190795" stroke="#ffa500" stroke-linecap="round" stroke-linejoin="round"/><polyline fill="none" points="55.31823585047063,-47.74932370495737 57.81823585047068,-48.41919668603509 59.648362869392955,-50.24932370495724 60.31823585047086,-52.74932370495724 59.64836286939314,-55.24932370495729 57.81823585047099,-57.079450723879575 55.31823585047099,-57.74932370495748 52.81823585047094,-57.07945072387976 50.98810883154866,-55.24932370495761 50.31823585047075,-52.74932370495761 50.98810883154847,-50.24932370495756 52.818235850470614,-48.41919668603528 55.318235850470614,-47.74932370495737" stroke="#008000" stroke-linecap="round" stroke-linejoin="round"/><polyline fill="none" points="25.447552001820792,49.30203783180137 27.947552001820846,48.63216485072365 29.77767902074313,46.802037831801506 30.447552001821037,44.302037831801506 29.777679020743317,41.80203783180146 27.947552001821172,39.97191081287917 25.447552001821172,39.302037831801265 22.94755200182112,39.97191081287898 21.117424982898836,41.80203783180112 20.447552001820927,44.30203783180112 21.117424982898648,46.80203783180117 22.94755200182079,48.632164850723456 25.44755200182079,49.302037831801364" stroke="#ffa500" stroke-linecap="round" stroke-linejoin="round"/><polyline fill="none" points="67.67408580550578,-33.11629769246465 70.17408580550584,-33.786170673542365 72.00421282442812,-35.61629769246451 72.67408580550604,-38.11629769246451 72.00421282442832,-40.61629769246456 70.17408580550618,-42.44642471138685 67.67408580550618,-43.116297692464755 65.17408580550612,-42.44642471138704 63.34395878658384,-40.6162976924649 62.67408580550593,-38.1162976924649 63.34395878658365,-35.61629769246484 65.1740858055058,-33.78617067354256 67.6740858055058,-33.11629769246464" stroke="#008000" stroke-linecap="round" stroke-linejoin="round"/><polyline fill="none" points="-12.692123590305616,-7.190522532479237 -10.192123590305561,-7.860395513556953 -8.361996571383276,-9.690522532479095 -7.692123590305363,-12.190522532479097 -8.361996571383079,-14.690522532479152 -10.19212359030522,-16.520649551401437 -12.692123590305222,-17.19052253247935 -15.192123590305277,-16.520649551401636 -17.022250609227566,-14.690522532479495 -17.69212359030548,-12.190522532479493 -17.02225060922777,-9.690522532479438 -15.192123590305627,-7.86039551355715 -12.692123590305625,-7.1905225324792355" stroke="#00f" stroke-linecap="round" stroke-linejoin="round"/><polyline fill="none" points="47.24201665401793,-105.04775806428802 49.74201665401799,-105.71763104536574 51.57214367294028,-107.54775806428788 52.242016654018194,-110.04775806428788 51.57214367294048,-112.54775806428793 49.742016654018336,-114.37788508321022 47.242016654018336,-115.04775806428813 44.74201665401828,-114.37788508321042 42.91188963509599,-112.54775806428827 42.24201665401807,-110.04775806428827 42.91188963509578,-107.54775806428822 44.742016654017924,-105.71763104536593 47.242016654017924,-105.04775806428802" stroke="#ffa500" stroke-linecap="round" stroke-linejoin="round"/><polyline fill="none" points="32.309932584739684,-84.93656022938494 34.80993258473974,-85.60643321046265 36.64005960366203,-87.4365602293848 37.30993258473995,-89.9365602293848 36.64005960366224,-92.43656022938485 34.809932584740096,-94.26668724830715 32.309932584740096,-94.93656022938507 29.80993258474004,-94.26668724830735 27.97980556581775,-92.43656022938521 27.30993258473983,-89.93656022938521 27.97980556581754,-87.43656022938515 29.809932584739677,-85.60643321046285 32.30993258473968,-84.93656022938494" stroke="#00f" stroke-linecap="round" stroke-linejoin="round"/><polyline fill="none" points="139.92566291969013,-110.4659921432982 142.42566291969018,-111.1358651243759 144.25578993861248,-112.96599214329804 144.9256629196904,-115.46599214329804 144.2557899386127,-117.9659921432981 142.42566291969058,-119.79611916222039 139.92566291969058,-120.46599214329831 137.42566291969052,-119.7961191622206 135.59553590076823,-117.96599214329846 134.9256629196903,-115.46599214329846 135.595535900768,-112.96599214329841 137.42566291969013,-111.13586512437611 139.92566291969013,-110.46599214329818" stroke="#ffa500" stroke-linecap="round" stroke-linejoin="round"/><polyline fill="none" points="-28.882798930580233,-16.872095429674246 -26.382798930580172,-17.541968410751952 -24.552671911657878,-19.37209542967409 -23.882798930579956,-21.87209542967409 -24.55267191165766,-24.37209542967415 -26.382798930579796,-26.202222448596444 -28.882798930579796,-26.872095429674367 -31.382798930579856,-26.20222244859666 -33.21292594950215,-24.372095429674527 -33.88279893058007,-21.872095429674523 -33.21292594950237,-19.372095429674463 -31.382798930580236,-17.541968410752165 -28.882798930580236,-16.87209542967424" stroke="#ffa500" stroke-linecap="round" stroke-linejoin="round"/><polyline fill="none" points="15.122207013079553,-76.08969343887408 17.622207013079613,-76.75956641995178 19.45233403200191,-78.58969343887392 20.122207013079837,-81.08969343887392 19.452334032002135,-83.58969343887398 17.62220701308,-85.41982045779628 15.122207013079999,-86.0896934388742 12.622207013079937,-85.4198204577965 10.792079994157637,-83.58969343887436 10.12220701307971,-81.08969343887436 10.792079994157412,-78.5896934388743 12.622207013079546,-76.75956641995201 15.122207013079548,-76.08969343887408" stroke="#00f" stroke-linecap="round" stroke-linejoin="round"/><polyline fill="none" points="35.07188421785355,-145.16033056927677 37.571884217853615,-145.83020355035447 39.40201123677591,-147.6603305692766 40.07188421785384,-150.1603305692766 39.40201123677614,-152.66033056927665 37.571884217854006,-154.49045758819895 35.071884217854006,-155.16033056927688 32.57188421785394,-154.49045758819918 30.74175719893164,-152.66033056927705 30.07188421785371,-150.16033056927705 30.74175719893141,-147.660330569277 32.571884217853544,-145.8302035503547 35.071884217853544,-145.16033056927677" stroke="#ffa500" stroke-linecap="round" stroke-linejoin="round"/><polyline fill="none" points="87.68018209558629,-120.03716864367111 90.18018209558635,-120.70704162474881 92.01030911450864,-122.53716864367094 92.68018209558657,-125.03716864367094 92.01030911450887,-127.53716864367101 90.18018209558674,-129.3672956625933 87.68018209558674,-130.03716864367124 85.18018209558667,-129.36729566259353 83.35005507666438,-127.53716864367141 82.68018209558645,-125.03716864367141 83.35005507666415,-122.53716864367134 85.18018209558628,-120.70704162474904 87.68018209558628,-120.03716864367111" stroke="#00f" stroke-linecap="round" stroke-linejoin="round"/><polyline fill="none" points="102.01316196635324,-0.1489320426141827 104.51316196635331,-0.8188050236918799 106.34328898527562,-2.648932042614011 107.01316196635355,-5.148932042614013 106.34328898527585,-7.648932042614079 104.51316196635372,-9.479059061536384 102.01316196635372,-10.14893204261432 99.51316196635365,-9.479059061536624 97.68303494743134,-7.6489320426144936 97.01316196635341,-5.148932042614492 97.6830349474311,-2.6489320426144256 99.51316196635322,-0.8188050236921192 102.01316196635322,-0.14893204261418247" stroke="#ffa500" stroke-linecap="round" stroke-linejoin="round"/><polyline fill="none" points="155.03570409957493,-8.813491663900638 157.53570409957499,-9.483364644978334 159.36583111849728,-11.313491663900464 160.0357040995752,-13.813491663900466 159.3658311184975,-16.313491663900532 157.53570409957538,-18.14361868282284 155.03570409957538,-18.813491663900777 152.53570409957533,-18.14361868282308 150.70557708065303,-16.313491663900955 150.0357040995751,-13.813491663900953 150.7055770806528,-11.313491663900885 152.53570409957493,-9.483364644978577 155.03570409957493,-8.813491663900637" stroke="#ffa500" stroke-linecap="round" stroke-linejoin="round"/><polyline fill="none" points="48.484927506842006,-86.21262905033092 50.98492750684208,-86.8825020314086 52.81505452576439,-88.71262905033073 53.484927506842325,-91.21262905033073 52.81505452576464,-93.7126290503308 50.98492750684251,-95.54275606925312 48.48492750684251,-96.21262905033106 45.98492750684244,-95.54275606925337 44.15480048792013,-93.71262905033124 43.48492750684218,-91.21262905033124 44.15480048791987,-88.71262905033117 45.984927506842,-86.88250203140886 48.484927506842,-86.21262905033092" stroke="#00f" stroke-linecap="round" stroke-linejoin="round"/><polyline fill="none" points="130.49941337792845,-128.18162638765114 132.9994133779285,-128.85149936872884 134.8295403968508,-130.68162638765097 135.49941337792873,-133.18162638765097 134.82954039685103,-135.68162638765102 132.9994133779289,-137.51175340657335 130.4994133779289,-138.18162638765128 127.99941337792883,-137.51175340657358 126.16928635900652,-135.68162638765145 125.49941337792858,-133.18162638765145 126.16928635900626,-130.6816263876514 127.99941337792839,-128.85149936872907 130.4994133779284,-128.1816263876511" stroke="#ffa500" stroke-linecap="round" stroke-linejoin="round"/><polyline fill="none" points="56.05178653288437,-125.73603099382055 58.55178653288444,-126.40590397489824 60.381913551806754,-128.23603099382035 61.0517865328847,-130.73603099382035 60.38191355180701,-133.23603099382044 58.55178653288488,-135.06615801274276 56.05178653288488,-135.73603099382072 53.55178653288481,-135.06615801274305 51.72165951396249,-133.23603099382092 51.05178653288455,-130.73603099382092 51.72165951396224,-128.23603099382083 53.551786532884364,-126.40590397489852 56.051786532884364,-125.73603099382058" stroke="#00f" stroke-linecap="round" stroke-linejoin="round"/><polyline fill="none" points="89.52520141661236,8.58069921278675 92.02520141661243,7.910826231709064 93.85532843553474,6.080699212786939 94.52520141661269,3.5806992127869375 93.855328435535,1.080699212786865 92.02520141661287,-0.7494278061354522 89.52520141661287,-1.4193007872134014 87.0252014166128,-0.7494278061357168 85.19507439769049,1.0806992127864072 84.52520141661255,3.5806992127864095 85.19507439769023,6.080699212786483 87.02520141661236,7.910826231708802 89.52520141661236,8.580699212786753" stroke="#ffa500" stroke-linecap="round" stroke-linejoin="round"/><polyline fill="none" points="80.44181273325368,-70.38008928581927 82.94181273325376,-71.04996226689696 84.77193975217608,-72.88008928581908 85.44181273325404,-75.38008928581908 84.77193975217635,-77.88008928581915 82.94181273325422,-79.71021630474148 80.44181273325422,-80.38008928581944 77.94181273325415,-79.71021630474175 76.11168571433183,-77.88008928581962 75.44181273325387,-75.38008928581962 76.11168571433156,-72.88008928581955 77.94181273325368,-71.04996226689723 80.44181273325368,-70.38008928581927" stroke="#00f" stroke-linecap="round" stroke-linejoin="round"/><polyline fill="none" points="29.11257599020286,-27.54471659341123 31.612575990202934,-28.21458957448891 33.44270300912525,-30.044716593411035 34.112575990203204,-32.54471659341104 33.44270300912552,-35.04471659341112 31.612575990203403,-36.874843612333436 29.1125759902034,-37.544716593411394 26.612575990203325,-36.87484361233371 24.782448971281003,-35.04471659341159 24.112575990203048,-32.54471659341159 24.782448971280726,-30.044716593411515 26.612575990202846,-28.214589574489192 29.11257599020285,-27.544716593411238" stroke="#00f" stroke-linecap="round" stroke-linejoin="round"/><polyline fill="none" points="137.19518870851726,-18.808490248302654 139.69518870851735,-19.47836322938033 141.52531572743968,-21.30849024830245 142.19518870851763,-23.808490248302455 141.52531572743996,-26.308490248302533 139.69518870851783,-28.13861726722486 137.19518870851783,-28.808490248302817 134.69518870851775,-28.13861726722514 132.86506168959542,-26.30849024830302 132.19518870851746,-23.808490248303016 132.86506168959514,-21.308490248302938 134.69518870851726,-19.478363229380612 137.19518870851726,-18.808490248302654" stroke="#00f" stroke-linecap="round" stroke-linejoin="round"/><polyline fill="none" points="-16.17847282010297,-32.338033238211615 -13.678472820102893,-33.00790621928929 -11.848345801180567,-34.83803323821141 -11.17847282010261,-37.33803323821141 -11.848345801180285,-39.83803323821149 -13.678472820102403,-41.66816025713381 -16.178472820102407,-42.33803323821177 -18.678472820102485,-41.6681602571341 -20.50859983902481,-39.83803323821198 -21.17847282010277,-37.33803323821198 -20.508599839025095,-34.8380332382119 -18.67847282010298,-33.00790621928957 -16.178472820102975,-32.338033238211615" stroke="#ffa500" stroke-linecap="round" stroke-linejoin="round"/><polyline fill="none" points="94.16262829798897,-121.70283062830256 96.66262829798906,-122.37270360938024 98.49275531691138,-124.20283062830235 99.16262829798934,-126.70283062830235 98.49275531691167,-129.20283062830242 96.66262829798956,-131.03295764722475 94.16262829798956,-131.7028306283027 91.66262829798947,-131.03295764722503 89.83250127906715,-129.2028306283029 89.16262829798919,-126.7028306283029 89.83250127906686,-124.20283062830282 91.66262829798897,-122.3727036093805 94.16262829798897,-121.70283062830254" stroke="#ffa500" stroke-linecap="round" stroke-linejoin="round"/><polyline fill="none" points="39.50673686226256,-94.27774987376802 42.006736862262635,-94.94762285484569 43.83686388118497,-96.7777498737678 44.50673686226293,-99.2777498737678 43.83686388118526,-101.77774987376789 42.006736862263146,-103.60787689269021 39.506736862263146,-104.27774987376817 37.00673686226307,-103.6078768926905 35.176609843340735,-101.77774987376839 34.50673686226277,-99.27774987376839 35.17660984334044,-96.7777498737683 37.00673686226255,-94.94762285484597 39.50673686226255,-94.277749873768" stroke="#ffa500" stroke-linecap="round" stroke-linejoin="round"/><polyline fill="none" points="-30.19936632654578,4.724637260885593 -27.699366326545697,4.054764279807923 -25.869239307623364,2.2246372608858085 -25.199366326545398,-0.2753627391141933 -25.86923930762307,-2.7753627391142746 -27.69936632654518,-4.605489758036607 -30.19936632654518,-5.275362739114574 -32.69936632654526,-4.605489758036906 -34.52949334546759,-2.7753627391147915 -35.19936632654556,-0.2753627391147897 -34.52949334546789,2.2246372608852925 -32.69936632654578,4.054764279807626 -30.19936632654578,4.724637260885595" stroke="#ffa500" stroke-linecap="round" stroke-linejoin="round"/><polyline fill="none" points="43.01056992256916,-60.125725833085156 45.510569922569246,-60.79559881416282 47.34069694149158,-62.625725833084935 48.01056992256955,-65.12572583308494 47.340696941491885,-67.62572583308503 45.51056992256977,-69.45585285200737 43.01056992256977,-70.12572583308534 40.51056992256969,-69.45585285200768 38.680442903647354,-67.62572583308557 38.01056992256938,-65.12572583308557 38.68044290364705,-62.62572583308548 40.51056992256916,-60.79559881416315 43.01056992256916,-60.12572583308518" stroke="#ffa500" stroke-linecap="round" stroke-linejoin="round"/><polyline fill="none" points="-67.52770944004799,34.452604477965316 -65.0277094400479,33.78273149688765 -63.19758242112556,31.952604477965536 -62.52770944004759,29.452604477965533 -63.197582421125254,26.952604477965448 -65.02770944004736,25.12247745904311 -67.52770944004736,24.45260447796514 -70.02770944004745,25.122477459042802 -71.85783645896979,26.952604477964915 -72.52770944004776,29.452604477964915 -71.8578364589701,31.952604477965 -70.02770944004799,33.78273149688734 -67.52770944004799,34.45260447796531" stroke="#ffa500" stroke-linecap="round" stroke-linejoin="round"/><polyline fill="none" points="32.12700273779549,41.24064202779058 34.62700273779558,40.57076904671292 36.45712975671792,38.740642027790805 37.12700273779589,36.240642027790805 36.45712975671823,33.74064202779072 34.62700273779612,31.91051500886838 32.12700273779612,31.240642027790404 29.627002737796033,31.910515008868064 27.796875718873693,33.74064202779017 27.127002737795717,36.24064202779017 27.796875718873377,38.74064202779026 29.627002737795486,40.5707690467126 32.127002737795486,41.24064202779058" stroke="#ffa500" stroke-linecap="round" stroke-linejoin="round"/><polyline fill="none" points="-39.13718971205898,62.724508015818905 -36.63718971205889,62.054635034741246 -34.80706269313655,60.22450801581914 -34.13718971205857,57.72450801581914 -34.80706269313623,55.224508015819055 -36.63718971205834,53.394380996896714 -39.13718971205834,52.724508015818735 -41.63718971205842,53.394380996896395 -43.46731673098076,55.2245080158185 -44.13718971205874,57.7245080158185 -43.46731673098108,60.224508015818586 -41.63718971205898,62.05463503474093 -39.13718971205898,62.72450801581891" stroke="#ffa500" stroke-linecap="round" stroke-linejoin="round"/><polyline fill="none" points="25.408877931063838,4.234494552159643 27.908877931063927,3.5646215710819855 29.73900494998627,1.7344945521598776 30.40887793106425,-0.7655054478401238 29.739004949986594,-3.2655054478402117 27.908877931064488,-5.095632466762556 25.408877931064488,-5.765505447840537 22.9088779310644,-5.095632466762881 21.078750912142056,-3.265505447840774 20.408877931064072,-0.7655054478407726 21.07875091214173,1.7344945521593162 22.908877931063834,3.564621571081662 25.408877931063834,4.234494552159645" stroke="#00f" stroke-linecap="round" stroke-linejoin="round"/><polyline fill="none" points="49.89445148405982,-39.107265861985475 52.394451484059914,-39.77713884306313 54.22457850298226,-41.60726586198523 54.89445148406025,-44.10726586198523 54.224578502982595,-46.607265861985326 52.39445148406049,-48.43739288090767 49.89445148406049,-49.10726586198566 47.3944514840604,-48.43739288090801 45.56432446513805,-46.6072658619859 44.89445148406006,-44.1072658619859 45.564324465137716,-41.60726586198581 47.39445148405982,-39.77713884306346 49.89445148405982,-39.107265861985475" stroke="#008000" stroke-linecap="round" stroke-linejoin="round"/><polyline fill="none" points="55.47841493890385,56.706364625751874 57.978414938903946,56.03649164467422 59.80854195782629,54.206364625752116 60.47841493890428,51.706364625752116 59.80854195782663,49.20636462575202 57.97841493890452,47.376237606829676 55.47841493890452,46.70636462575169 52.97841493890443,47.37623760682934 51.14828791998208,49.20636462575145 50.478414938904095,51.70636462575145 51.14828791998175,54.20636462575154 52.97841493890385,56.03649164467389 55.47841493890385,56.706364625751874" stroke="#ffa500" stroke-linecap="round" stroke-linejoin="round"/><polyline fill="none" points="-38.35303910959645,-39.84034410157922 -35.85303910959636,-40.51021708265687 -34.022912090674005,-42.34034410157898 -33.35303910959602,-44.84034410157898 -34.02291209067367,-47.34034410157907 -35.85303910959578,-49.170471120501425 -38.35303910959578,-49.84034410157941 -40.85303910959587,-49.17047112050176 -42.683166128518224,-47.34034410157965 -43.35303910959621,-44.84034410157965 -42.683166128518565,-42.34034410157956 -40.85303910959646,-40.510217082657206 -38.35303910959646,-39.84034410157921" stroke="#ffa500" stroke-linecap="round" stroke-linejoin="round"/><polyline fill="none" points="41.9382391733742,34.68459447763061 44.43823917337429,34.014721496552966 46.26836619229665,32.18459447763086 46.93823917337464,29.68459447763086 46.268366192296995,27.184594477630768 44.43823917337489,25.354467458708413 41.93823917337489,24.68459447763042 39.4382391733748,25.354467458708065 37.60811215445244,27.184594477630167 36.93823917337445,29.68459447763017 37.608112154452094,32.18459447763026 39.43823917337419,34.01472149655262 41.93823917337419,34.68459447763061" stroke="#00f" stroke-linecap="round" stroke-linejoin="round"/><polyline fill="none" points="70.8456105428837,-12.166870957257252 73.3456105428838,-12.836743938334898 75.17573756180616,-14.666870957257 75.84561054288415,-17.166870957257004 75.1757375618065,-19.6668709572571 73.3456105428844,-21.496997976179458 70.8456105428844,-22.16687095725745 68.3456105428843,-21.496997976179806 66.51548352396195,-19.666870957257704 65.84561054288395,-17.1668709572577 66.51548352396159,-14.666870957257604 68.34561054288369,-12.836743938335246 70.84561054288369,-12.16687095725725" stroke="#00f" stroke-linecap="round" stroke-linejoin="round"/><polyline fill="none" points="119.17222915766452,-4.679352898105934 121.67222915766462,-5.349225879183578 123.50235617658697,-7.1793528981056784 124.17222915766497,-9.67935289810568 123.50235617658733,-12.179352898105776 121.67222915766523,-14.009479917028134 119.17222915766523,-14.679352898106131 116.67222915766513,-14.009479917028488 114.84210213874277,-12.179352898106387 114.17222915766477,-9.679352898106385 114.84210213874242,-7.179352898106289 116.67222915766452,-5.34922587918393 119.17222915766452,-4.679352898105932" stroke="#ffa500" stroke-linecap="round" stroke-linejoin="round"/><polyline fill="none" points="14.234006468768008,-96.81410162529777 16.734006468768108,-97.48397460637541 18.56413348769047,-99.31410162529751 19.234006468768467,-101.81410162529751 18.564133487690825,-104.31410162529761 16.734006468768726,-106.14422864421996 14.234006468768724,-106.81410162529797 11.734006468768627,-106.14422864422032 9.903879449846265,-104.31410162529822 9.234006468768264,-101.81410162529822 9.903879449845904,-99.31410162529812 11.734006468768003,-97.48397460637575 14.234006468768005,-96.81410162529775" stroke="#ffa500" stroke-linecap="round" stroke-linejoin="round"/><polyline fill="none" points="30.06504723418411,-59.186165666685795 32.565047234184206,-59.856038647763434 34.39517425310657,-61.68616566668553 35.06504723418457,-64.18616566668554 34.39517425310693,-66.68616566668564 32.56504723418483,-68.51629268560801 30.06504723418483,-69.18616566668601 27.565047234184732,-68.51629268560836 25.73492021526237,-66.68616566668626 25.06504723418437,-64.18616566668626 25.734920215262008,-61.686165666686165 27.565047234184103,-59.8560386477638 30.065047234184103,-59.1861656666858" stroke="#00f" stroke-linecap="round" stroke-linejoin="round"/><polyline fill="none" points="28.82547679669229,-14.417620177257874 31.32547679669239,-15.08749315833551 33.155603815614754,-16.917620177257607 33.825476796692755,-19.41762017725761 33.155603815615116,-21.91762017725771 31.32547679669302,-23.747747196180075 28.825476796693017,-24.41762017725808 26.325476796692918,-23.747747196180445 24.495349777770553,-21.91762017725835 23.82547679669255,-19.41762017725835 24.495349777770183,-16.91762017725825 26.32547679669228,-15.087493158335883 28.82547679669228,-14.417620177257877" stroke="#00f" stroke-linecap="round" stroke-linejoin="round"/><polyline fill="none" points="38.22507930916174,-4.368163340728064 40.72507930916184,-5.0380363218056985 42.55520632808421,-6.8681633407277936 43.22507930916222,-9.368163340727795 42.55520632808459,-11.868163340727897 40.72507930916249,-13.698290359650265 38.22507930916249,-14.368163340728273 35.72507930916239,-13.69829035965064 33.89495229024002,-11.868163340728545 33.22507930916201,-9.368163340728543 33.894952290239644,-6.86816334072844 35.725079309161735,-5.038036321806071 38.225079309161735,-4.368163340728062" stroke="#ffa500" stroke-linecap="round" stroke-linejoin="round"/><polyline fill="none" points="139.9102458928778,1.9794279263558758 142.41024589287792,1.3095549452782431 144.2403729118003,-0.5205720736438506 144.91024589287832,-3.020572073643853 144.24037291180068,-5.520572073643956 142.41024589287858,-7.350699092566327 139.91024589287858,-8.020572073644336 137.41024589287846,-7.350699092566705 135.58011887395608,-5.520572073644612 134.91024589287807,-3.02057207364461 135.58011887395568,-0.5205720736445065 137.41024589287778,1.3095549452778645 139.91024589287778,1.9794279263558758" stroke="#ffa500" stroke-linecap="round" stroke-linejoin="round"/><polyline fill="none" points="-56.52166333454755,49.52522055339904 -54.02166333454744,48.855347572321406 -52.19153631562507,47.025220553399315 -51.52166333454706,44.525220553399315 -52.19153631562469,42.02522055339921 -54.02166333454678,40.19509353447684 -56.52166333454678,39.525220553398825 -59.021663334546886,40.195093534476456 -60.85179035346926,42.02522055339855 -61.52166333454728,44.52522055339855 -60.851790353469646,47.025220553398654 -59.021663334547554,48.85534757232103 -56.521663334547554,49.525220553399045" stroke="#00f" stroke-linecap="round" stroke-linejoin="round"/><polyline fill="none" points="-2.015843760956656,-46.910682343185904 0.4841562390434486,-47.580555324263536 2.3142832579658217,-49.41068234318563 2.984156239043836,-51.91068234318563 2.314283257966208,-54.410682343185734 0.4841562390441174,-56.24080936210811 -2.015843760955884,-56.910682343186124 -4.515843760955989,-56.2408093621085 -6.345970779878364,-54.41068234318641 -7.01584376095638,-51.91068234318641 -6.345970779878754,-49.4106823431863 -4.515843760956664,-47.580555324263926 -2.015843760956663,-46.91068234318591" stroke="#ffa500" stroke-linecap="round" stroke-linejoin="round"/><polyline fill="none" points="-1.0470020660865529,-87.00313074305639 1.4529979339135528,-87.67300372413402 3.2831249528359283,-89.5031307430561 3.9529979339139456,-92.0031307430561 3.283124952836321,-94.5031307430562 1.4529979339142325,-96.33325776197859 -1.0470020660857684,-97.0031307430566 -3.547002066085875,-96.33325776197898 -5.377129085008252,-94.5031307430569 -6.047002066086271,-92.0031307430569 -5.377129085008647,-89.5031307430568 -3.5470020660865598,-87.67300372413442 -1.0470020660865589,-87.0031307430564" stroke="#ffa500" stroke-linecap="round" stroke-linejoin="round"/><polyline fill="none" points="81.52485910347818,-135.57363514882192 84.02485910347829,-136.24350812989954 85.85498612240067,-138.07363514882164 86.52485910347869,-140.57363514882164 85.85498612240107,-143.07363514882175 84.02485910347899,-144.90376216774413 81.52485910347899,-145.57363514882215 79.02485910347887,-144.90376216774453 77.19473208455649,-143.07363514882243 76.52485910347846,-140.57363514882243 77.19473208455608,-138.07363514882232 79.02485910347816,-136.24350812989994 81.52485910347816,-135.57363514882192" stroke="#ffa500" stroke-linecap="round" stroke-linejoin="round"/><polyline fill="none" points="53.23069607077119,-32.29482887778025 55.730696070771295,-32.964701858857865 57.56082308969368,-34.79482887777995 58.2306960707717,-37.29482887777995 57.56082308969408,-39.794828877780056 55.730696070772,-41.62495589670244 53.230696070772,-42.29482887778046 50.73069607077189,-41.62495589670284 48.90056905184951,-39.79482887778076 48.23069607077149,-37.29482887778076 48.900569051849104,-34.79482887778065 50.73069607077119,-32.96470185885827 53.23069607077119,-32.29482887778024" stroke="#008000" stroke-linecap="round" stroke-linejoin="round"/><polyline fill="none" points="19.56221858228019,24.290453358552828 22.062218582280302,23.62058037747521 23.892345601202685,21.790453358553126 24.56221858228071,19.290453358553126 23.892345601203093,16.790453358553016 22.06221858228101,14.960326339630631 19.56221858228101,14.290453358552604 17.0622185822809,14.96032633963022 15.232091563358514,16.790453358552302 14.562218582280487,19.290453358552302 15.232091563358102,21.790453358552412 17.062218582280185,23.6205803774748 19.562218582280185,24.290453358552828" stroke="#00f" stroke-linecap="round" stroke-linejoin="round"/><polyline fill="none" points="135.10484902611742,-15.818239375602616 137.60484902611753,-16.48811235668023 139.43497604503992,-18.318239375602314 140.10484902611793,-20.818239375602314 139.43497604504032,-23.318239375602428 137.60484902611825,-25.148366394524814 135.10484902611825,-25.818239375602843 132.60484902611813,-25.14836639452523 130.77472200719575,-23.31823937560315 130.1048490261177,-20.81823937560315 130.77472200719532,-18.318239375603035 132.6048490261174,-16.488112356680645 135.1048490261174,-15.818239375602614" stroke="#ffa500" stroke-linecap="round" stroke-linejoin="round"/><polyline fill="none" points="-7.6482776754256845,14.38231915982612 -5.148277675425571,13.712446178748507 -3.3181506565031818,11.882319159826425 -2.64827767542515,9.382319159826423 -3.3181506565027616,6.882319159826309 -5.148277675424843,5.052192140903919 -7.648277675424845,4.382319159825887 -10.14827767542496,5.0521921409034976 -11.97840469434735,6.882319159825578 -12.648277675425383,9.382319159825581 -11.978404694347773,11.882319159825697 -10.148277675425692,13.712446178748088 -7.648277675425691,14.382319159826123" stroke="#ffa500" stroke-linecap="round" stroke-linejoin="round"/><polyline fill="none" points="36.4173413943532,51.9657358796173 38.917341394353315,51.29586289853969 40.747468413275705,49.46573587961761 41.41734139435374,46.96573587961761 40.74746841327613,44.4657358796175 38.917341394354054,42.63560886069511 36.417341394354054,41.96573587961707 33.91734139435394,42.63560886069468 32.08721437543155,44.46573587961676 31.417341394353514,46.96573587961676 32.087214375431124,49.46573587961687 33.9173413943532,51.29586289853927 36.4173413943532,51.965735879617306" stroke="#ffa500" stroke-linecap="round" stroke-linejoin="round"/><polyline fill="none" points="27.620413639328042,9.675779570005936 30.12041363932816,9.005906588928328 31.950540658250553,7.175779570006249 32.62041363932859,4.675779570006247 31.950540658250983,2.1757795700061298 30.120413639328905,0.34565255108373516 27.620413639328902,-0.32422042999430334 25.120413639328785,0.3456525510833035 23.29028662040639,2.175779570005382 22.62041363932835,4.675779570005384 23.290286620405958,7.175779570005502 25.120413639328035,9.005906588927898 27.620413639328035,9.675779570005938" stroke="#00f" stroke-linecap="round" stroke-linejoin="round"/><polyline fill="none" points="101.92939539797862,-101.43920086063326 104.42939539797874,-102.10907384171087 106.25952241690113,-103.93920086063295 106.92939539797918,-106.43920086063295 106.25952241690158,-108.93920086063306 104.42939539797949,-110.76932787955546 101.92939539797949,-111.4392008606335 99.42939539797938,-110.7693278795559 97.59926837905698,-108.93920086063382 96.92939539797894,-106.43920086063382 97.59926837905654,-103.9392008606337 99.42939539797862,-102.10907384171131 101.92939539797862,-101.43920086063326" stroke="#00f" stroke-linecap="round" stroke-linejoin="round"/><polyline fill="none" points="48.08169293572193,-130.9683445851208 50.58169293572205,-131.63821756619842 52.41181995464445,-133.4683445851205 53.081692935722494,-135.9683445851205 52.41181995464489,-138.4683445851206 50.58169293572281,-140.29847160404302 48.08169293572281,-140.96834458512106 45.58169293572269,-140.29847160404347 43.751565916800295,-138.4683445851214 43.08169293572225,-135.9683445851214 43.751565916799855,-133.4683445851213 45.58169293572193,-131.63821756619888 48.08169293572193,-130.96834458512083" stroke="#ffa500" stroke-linecap="round" stroke-linejoin="round"/><polyline fill="none" points="73.91389586156649,1.0956419770994992 76.41389586156662,0.4257689960218982 78.24402288048901,-1.4043580229001775 78.91389586156706,-3.9043580229001797 78.24402288048945,-6.404358022900302 76.41389586156738,-8.234485041822705 73.91389586156738,-8.904358022900752 71.41389586156725,-8.234485041823152 69.58376884264486,-6.404358022901077 68.91389586156681,-3.9043580229010746 69.58376884264442,-1.404358022900952 71.41389586156649,0.42576899602145124 73.91389586156649,1.0956419770994994" stroke="#00f" stroke-linecap="round" stroke-linejoin="round"/><polyline fill="none" points="-23.666381230551906,-51.38655997770069 -21.16638123055178,-52.05643295877829 -19.336254211629377,-53.886559977700365 -18.66638123055133,-56.386559977700365 -19.33625421162893,-58.886559977700486 -21.166381230551004,-60.71668699662289 -23.666381230551007,-61.38655997770094 -26.16638123055113,-60.716686996623345 -27.996508249473536,-58.88655997770127 -28.666381230551586,-56.38655997770127 -27.99650824947399,-53.88655997770115 -26.166381230551917,-52.05643295877874 -23.666381230551913,-51.38655997770069" stroke="#00f" stroke-linecap="round" stroke-linejoin="round"/><polyline fill="none" points="-75.17096508506232,51.58933902864679 -72.67096508506219,50.919466047569195 -70.84083806613978,49.089339028647125 -70.17096508506172,46.589339028647125 -70.84083806613931,44.089339028647004 -72.67096508506138,42.2592120097246 -75.17096508506138,41.58933902864655 -77.67096508506151,42.259212009724145 -79.50109210398392,44.089339028646215 -80.17096508506198,46.589339028646215 -79.50109210398439,49.08933902864634 -77.67096508506232,50.919466047568754 -75.17096508506232,51.589339028646805" stroke="#ffa500" stroke-linecap="round" stroke-linejoin="round"/><polyline fill="none" points="61.162681212353874,-101.28696489370859 63.662681212354,-101.95683787478617 65.49280823127641,-103.78696489370824 66.16268121235447,-106.28696489370824 65.49280823127688,-108.78696489370837 63.66268121235481,-110.61709191263078 61.16268121235481,-111.28696489370884 58.662681212354684,-110.61709191263125 56.83255419343227,-108.78696489370918 56.162681212354215,-106.28696489370918 56.832554193431804,-103.78696489370905 58.662681212353874,-101.95683787478664 61.162681212353874,-101.28696489370859" stroke="#ffa500" stroke-linecap="round" stroke-linejoin="round"/><polyline fill="none" points="85.72727201575405,-98.82208025036569 88.22727201575418,-99.49195323144328 90.05739903467659,-101.32208025036535 90.72727201575465,-103.82208025036535 90.05739903467706,-106.32208025036547 88.22727201575499,-108.15220726928789 85.72727201575499,-108.82208025036594 83.22727201575486,-108.15220726928835 81.39714499683245,-106.32208025036628 80.7272720157544,-103.82208025036628 81.39714499683198,-101.32208025036616 83.22727201575405,-99.49195323144374 85.72727201575405,-98.82208025036569" stroke="#ffa500" stroke-linecap="round" stroke-linejoin="round"/><polyline fill="none" points="104.95359095473867,-78.07102660261539 107.4535909547388,-78.74089958369298 109.28371797366121,-80.57102660261505 109.95359095473927,-83.07102660261505 109.28371797366168,-85.57102660261518 107.45359095473961,-87.40115362153759 104.95359095473961,-88.07102660261565 102.45359095473948,-87.40115362153806 100.62346393581707,-85.57102660261599 99.95359095473901,-83.07102660261599 100.6234639358166,-80.57102660261586 102.45359095473867,-78.74089958369345 104.95359095473867,-78.07102660261539" stroke="#ffa500" stroke-linecap="round" stroke-linejoin="round"/><polyline fill="none" points="24.92404927258569,-74.81458652844796 27.42404927258582,-75.48445950952555 29.254176291508234,-77.31458652844762 29.924049272586295,-79.81458652844762 29.25417629150871,-82.31458652844775 27.424049272586643,-84.14471354737016 24.924049272586643,-84.81458652844822 22.424049272586515,-84.14471354737063 20.5939222536641,-82.31458652844856 19.924049272586036,-79.81458652844856 20.59392225366362,-77.31458652844843 22.424049272585687,-75.48445950952602 24.92404927258569,-74.81458652844796" stroke="#ffa500" stroke-linecap="round" stroke-linejoin="round"/><polyline fill="none" points="23.903299219976947,-48.72571591029438 26.40329921997708,-49.395588891371965 28.233426238899497,-51.22571591029403 28.903299219977562,-53.72571591029403 28.233426238899977,-56.225715910294156 26.40329921997791,-58.055842929216574 23.90329921997791,-58.72571591029464 21.40329921997778,-58.05584292921706 19.57317220105536,-56.225715910294994 18.903299219977296,-53.725715910294994 19.573172201054877,-51.225715910294866 21.403299219976944,-49.39558889137245 23.903299219976944,-48.72571591029438" stroke="#00f" stroke-linecap="round" stroke-linejoin="round"/><polyline fill="none" points="-14.319922094781765,-4.135635819581815 -11.819922094781633,-4.805508800659397 -9.989795075859213,-6.635635819581462 -9.319922094781145,-9.135635819581465 -9.989795075858726,-11.635635819581598 -11.819922094780791,-13.465762838504018 -14.319922094780793,-14.135635819582086 -16.819922094780924,-13.465762838504507 -18.650049113703346,-11.635635819582443 -19.319922094781415,-9.135635819582442 -18.650049113703833,-6.635635819582308 -16.81992209478177,-4.8055088006598865 -14.319922094781768,-4.135635819581816" stroke="#ffa500" stroke-linecap="round" stroke-linejoin="round"/><polyline fill="none" points="36.496781573369354,-27.896443421229122 38.99678157336949,-28.5663164023067 40.826908592291915,-30.396443421228764 41.49678157336999,-32.89644342122877 40.826908592292405,-35.3964434212289 38.99678157337034,-37.22657044015133 36.49678157337034,-37.8964434212294 33.99678157337021,-37.22657044015182 32.16665455444778,-35.396443421229755 31.49678157336971,-32.896443421229755 32.16665455444729,-30.39644342122962 33.996781573369354,-28.566316402307194 36.496781573369354,-27.896443421229122" stroke="#00f" stroke-linecap="round" stroke-linejoin="round"/><polyline fill="none" points="59.892910329614615,-12.819478547118496 62.39291032961475,-13.489351528196075 64.22303734853718,-15.319478547118136 64.89291032961525,-17.819478547118138 64.22303734853767,-20.319478547118273 62.39291032961561,-22.149605566040698 59.89291032961561,-22.81947854711877 57.392910329615475,-22.149605566041195 55.56278331069305,-20.319478547119132 54.89291032961498,-17.819478547119132 55.56278331069255,-15.319478547118997 57.392910329614615,-13.489351528196572 59.892910329614615,-12.819478547118496" stroke="#008000" stroke-linecap="round" stroke-linejoin="round"/><polyline fill="none" points="31.20049538479701,35.628129337358246 33.700495384797144,34.95825635628067 35.53062240371957,33.12812933735861 36.20049538479765,30.628129337358605 35.53062240372007,28.12812933735847 33.70049538479801,26.29800231843604 31.200495384798007,25.628129337357965 28.70049538479787,26.29800231843554 26.87036836587544,28.1281293373576 26.200495384797364,30.628129337357603 26.87036836587494,33.12812933735774 28.700495384796998,34.95825635628017 31.200495384797,35.628129337358246" stroke="#00f" stroke-linecap="round" stroke-linejoin="round"/><polyline fill="none" points="71.82306624643559,-86.7161121768699 74.32306624643573,-87.38598515794747 76.15319326535815,-89.21611217686953 76.82306624643623,-91.71611217686953 76.15319326535865,-94.21611217686967 74.3230662464366,-96.0462391957921 71.8230662464366,-96.71611217687018 69.32306624643645,-96.04623919579261 67.49293922751403,-94.21611217687055 66.82306624643594,-91.71611217687055 67.49293922751352,-89.21611217687041 69.32306624643557,-87.38598515794799 71.82306624643557,-86.7161121768699" stroke="#00f" stroke-linecap="round" stroke-linejoin="round"/><polyline fill="none" points="78.87215272879321,-59.903920161575996 81.37215272879335,-60.573793142653564 83.20227974771578,-62.40392016157562 83.87215272879386,-64.90392016157563 83.20227974771629,-67.40392016157577 81.37215272879423,-69.2340471804982 78.87215272879423,-69.90392016157628 76.37215272879409,-69.2340471804987 74.54202570987165,-67.40392016157665 73.87215272879357,-64.90392016157665 74.54202570987114,-62.40392016157651 76.3721527287932,-60.573793142654075 78.8721527287932,-59.90392016157599" stroke="#00f" stroke-linecap="round" stroke-linejoin="round"/><polyline fill="none" points="88.74872610640838,-13.897393260728872 91.24872610640853,-14.56726624180644 93.07885312533097,-16.397393260728496 93.74872610640905,-18.8973932607285 93.07885312533149,-21.39739326072864 91.24872610640944,-23.227520279651078 88.74872610640944,-23.897393260729164 86.2487261064093,-23.227520279651596 84.41859908748685,-21.39739326072954 83.74872610640877,-18.89739326072954 84.41859908748633,-16.397393260729398 86.24872610640838,-14.567266241806962 88.74872610640838,-13.897393260728876" stroke="#ffa500" stroke-linecap="round" stroke-linejoin="round"/><polyline fill="none" points="93.86225560331195,-59.459352263339966 96.3622556033121,-60.12922524441753 98.19238262223453,-61.95935226333959 98.86225560331262,-64.4593522633396 98.19238262223506,-66.95935226333974 96.362255603313,-68.78947928226218 93.862255603313,-69.45935226334026 91.36225560331286,-68.7894792822627 89.53212858439042,-66.95935226334065 88.86225560331233,-64.45935226334065 89.5321285843899,-61.959352263340506 91.36225560331195,-60.129225244418066 93.86225560331195,-59.45935226333998" stroke="#ffa500" stroke-linecap="round" stroke-linejoin="round"/><polyline fill="none" points="29.25998196827533,-43.60302262727988 31.759981968275472,-44.27289560835744 33.59010898719791,-46.10302262727949 34.259981968276,-48.60302262727949 33.59010898719844,-51.103022627279636 31.75998196827639,-52.933149646202075 29.259981968276385,-53.60302262728017 26.759981968276243,-52.93314964620261 24.929854949353803,-51.10302262728056 24.25998196827571,-48.60302262728056 24.92985494935327,-46.10302262728042 26.759981968275323,-44.27289560835798 29.259981968275326,-43.603022627279884" stroke="#00f" stroke-linecap="round" stroke-linejoin="round"/><polyline fill="none" points="-57.159145361292374,58.478613821364696 -54.65914536129223,57.808740840287136 -52.82901834236979,55.97861382136509 -52.1591453612917,53.47861382136509 -52.82901834236926,50.978613821364945 -54.65914536129131,49.148486802442505 -57.15914536129131,48.47861382136441 -59.65914536129145,49.14848680244197 -61.4892723802139,50.97861382136402 -62.15914536129199,53.47861382136402 -61.48927238021443,55.97861382136416 -59.65914536129238,57.80874084028661 -57.15914536129238,58.4786138213647" stroke="#ffa500" stroke-linecap="round" stroke-linejoin="round"/><polyline fill="none" points="63.61965985900073,19.533001455147804 66.11965985900088,18.863128474070248 67.94978687792332,17.0330014551482 68.61965985900142,14.533001455148197 67.94978687792386,12.03300145514805 66.1196598590018,10.202874436225605 63.6196598590018,9.533001455147508 61.11965985900165,10.202874436225065 59.289532840079204,12.033001455147113 58.6196598590011,14.533001455147115 59.28953284007866,17.03300145514726 61.119659859000706,18.863128474069708 63.619659859000706,19.533001455147804" stroke="#ffa500" stroke-linecap="round" stroke-linejoin="round"/><polyline fill="none" points="60.063663872516734,-22.04820022147634 62.563663872516884,-22.718073202553892 64.39379089143932,-24.54820022147594 65.06366387251742,-27.048200221475945 64.39379089143986,-29.548200221476094 62.563663872517814,-31.37832724039854 60.063663872517814,-32.04820022147664 57.563663872517665,-31.378327240399088 55.73353685359522,-29.54820022147704 55.06366387251712,-27.04820022147704 55.73353685359467,-24.54820022147689 57.56366387251672,-22.718073202554443 60.06366387251672,-22.048200221476343" stroke="#f00" stroke-linecap="round" stroke-linejoin="round"/><line fill="none" stroke="#000" stroke-linecap="round" x1="26.55571692709961" x2="36.496781573369354" y1="-37.47414401029971" y2="-32.89644342122912"/><line fill="none" stroke="#000" stroke-linecap="round" x1="26.55571692709961" x2="43.01056992256916" y1="-37.47414401029971" y2="-65.12572583308516"/><line fill="none" stroke="#000" stroke-linecap="round" x1="26.55571692709961" x2="28.82547679669229" y1="-37.47414401029971" y2="-19.417620177257874"/><line fill="none" stroke="#000" stroke-linecap="round" x1="26.55571692709961" x2="49.89445148405982" y1="-37.47414401029971" y2="-44.107265861985475"/><line fill="none" stroke="#000" stroke-linecap="round" x1="26.55571692709961" x2="5.886855048095387" y1="-37.47414401029971" y2="-7.423443717125614"/><line fill="none" stroke="#000" stroke-linecap="round" x1="-10.258615106279931" x2="-33.49215045154627" y1="-63.800844797987736" y2="-67.31350700147928"/><line fill="none" stroke="#000" stroke-linecap="round" x1="-10.258615106279931" x2="-23.666381230551906" y1="-63.800844797987736" y2="-56.38655997770069"/><line fill="none" stroke="#000" stroke-linecap="round" x1="-10.258615106279931" x2="-16.17847282010297" y1="-63.800844797987736" y2="-37.338033238211615"/><line fill="none" stroke="#000" stroke-linecap="round" x1="-10.258615106279931" x2="15.122207013079553" y1="-63.800844797987736" y2="-81.08969343887408"/><line fill="none" stroke="#000" stroke-linecap="round" x1="-10.258615106279931" x2="-2.015843760956656" y1="-63.800844797987736" y2="-51.910682343185904"/><line fill="none" stroke="#000" stroke-linecap="round" x1="35.78473762751811" x2="60.063663872516734" y1="-14.46565155610173" y2="-27.04820022147634"/><line fill="none" stroke="#000" stroke-linecap="round" x1="35.78473762751811" x2="28.82547679669229" y1="-14.46565155610173" y2="-19.417620177257874"/><line fill="none" stroke="#000" stroke-linecap="round" x1="35.78473762751811" x2="19.56221858228019" y1="-14.46565155610173" y2="19.290453358552828"/><line fill="none" stroke="#000" stroke-linecap="round" x1="35.78473762751811" x2="27.620413639328042" y1="-14.46565155610173" y2="4.675779570005935"/><line fill="none" stroke="#000" stroke-linecap="round" x1="35.78473762751811" x2="38.22507930916174" y1="-14.46565155610173" y2="-9.368163340728064"/><line fill="none" stroke="#000" stroke-linecap="round" x1="60.400993092665104" x2="25.408877931063838" y1="6.9964032854175" y2="-0.7655054478403569"/><line fill="none" stroke="#000" stroke-linecap="round" x1="60.400993092665104" x2="73.91389586156649" y1="6.9964032854175" y2="-3.904358022900501"/><line fill="none" stroke="#000" stroke-linecap="round" x1="60.400993092665104" x2="32.12700273779549" y1="6.9964032854175" y2="36.24064202779058"/><line fill="none" stroke="#000" stroke-linecap="round" x1="60.400993092665104" x2="70.8456105428837" y1="6.9964032854175" y2="-17.166870957257252"/><line fill="none" stroke="#000" stroke-linecap="round" x1="60.400993092665104" x2="60.063663872516734" y1="6.9964032854175" y2="-27.04820022147634"/><line fill="none" stroke="#000" stroke-linecap="round" x1="67.44953911555444" x2="71.82306624643559" y1="-79.14005013686082" y2="-91.7161121768699"/><line fill="none" stroke="#000" stroke-linecap="round" x1="67.44953911555444" x2="32.309932584739684" y1="-79.14005013686082" y2="-89.93656022938494"/><line fill="none" stroke="#000" stroke-linecap="round" x1="67.44953911555444" x2="48.484927506842006" y1="-79.14005013686082" y2="-91.21262905033092"/><line fill="none" stroke="#000" stroke-linecap="round" x1="67.44953911555444" x2="109.21765169928841" y1="-79.14005013686082" y2="-65.54328465296884"/><line fill="none" stroke="#000" stroke-linecap="round" x1="67.44953911555444" x2="104.95359095473867" y1="-79.14005013686082" y2="-83.07102660261539"/><line fill="none" stroke="#000" stroke-linecap="round" x1="21.811830749966855" x2="53.23069607077119" y1="-71.14799454851038" y2="-37.29482887778025"/><line fill="none" stroke="#000" stroke-linecap="round" x1="21.811830749966855" x2="30.06504723418411" y1="-71.14799454851038" y2="-64.1861656666858"/><line fill="none" stroke="#000" stroke-linecap="round" x1="21.811830749966855" x2="-10.258615106279931" y1="-71.14799454851038" y2="-63.800844797987736"/><line fill="none" stroke="#000" stroke-linecap="round" x1="21.811830749966855" x2="56.05178653288437" y1="-71.14799454851038" y2="-130.73603099382055"/><line fill="none" stroke="#000" stroke-linecap="round" x1="21.811830749966855" x2="15.122207013079553" y1="-71.14799454851038" y2="-81.08969343887408"/><line fill="none" stroke="#000" stroke-linecap="round" x1="54.74537642811598" x2="45.211281003487755" y1="-1.5947370035301736" y2="13.136887401907945"/><line fill="none" stroke="#000" stroke-linecap="round" x1="54.74537642811598" x2="63.61965985900073" y1="-1.5947370035301736" y2="14.533001455147806"/><line fill="none" stroke="#000" stroke-linecap="round" x1="54.74537642811598" x2="67.08342194536198" y1="-1.5947370035301736" y2="33.2757244780538"/><line fill="none" stroke="#000" stroke-linecap="round" x1="54.74537642811598" x2="53.23069607077119" y1="-1.5947370035301736" y2="-37.29482887778025"/><line fill="none" stroke="#000" stroke-linecap="round" x1="54.74537642811598" x2="67.67408580550578" y1="-1.5947370035301736" y2="-38.11629769246465"/><line fill="none" stroke="#000" stroke-linecap="round" x1="27.593262059546266" x2="6.011621473414029" y1="20.558257860112175" y2="28.93595588482622"/><line fill="none" stroke="#000" stroke-linecap="round" x1="27.593262059546266" x2="25.408877931063838" y1="20.558257860112175" y2="-0.7655054478403569"/><line fill="none" stroke="#000" stroke-linecap="round" x1="27.593262059546266" x2="60.400993092665104" y1="20.558257860112175" y2="6.9964032854175"/><line fill="none" stroke="#000" stroke-linecap="round" x1="27.593262059546266" x2="36.4173413943532" y1="20.558257860112175" y2="46.9657358796173"/><line fill="none" stroke="#000" stroke-linecap="round" x1="27.593262059546266" x2="55.47841493890385" y1="20.558257860112175" y2="51.706364625751874"/><line fill="none" stroke="#000" stroke-linecap="round" x1="126.22085261900766" x2="136.24655303393106" y1="-122.94661733108454" y2="-142.5137784231088"/><line fill="none" stroke="#000" stroke-linecap="round" x1="126.22085261900766" x2="144.95802467353988" y1="-122.94661733108454" y2="-98.72205857580778"/><line fill="none" stroke="#000" stroke-linecap="round" x1="126.22085261900766" x2="119.90754586019175" y1="-122.94661733108454" y2="-152.65395002217076"/><line fill="none" stroke="#000" stroke-linecap="round" x1="126.22085261900766" x2="139.92566291969013" y1="-122.94661733108454" y2="-115.4659921432982"/><line fill="none" stroke="#000" stroke-linecap="round" x1="126.22085261900766" x2="130.49941337792845" y1="-122.94661733108454" y2="-133.18162638765114"/><line fill="none" stroke="#000" stroke-linecap="round" x1="39.39806383957615" x2="32.12700273779549" y1="32.7992798847586" y2="36.24064202779058"/><line fill="none" stroke="#000" stroke-linecap="round" x1="39.39806383957615" x2="41.9382391733742" y1="32.7992798847586" y2="29.68459447763061"/><line fill="none" stroke="#000" stroke-linecap="round" x1="39.39806383957615" x2="25.447552001820792" y1="32.7992798847586" y2="44.30203783180137"/><line fill="none" stroke="#000" stroke-linecap="round" x1="39.39806383957615" x2="45.211281003487755" y1="32.7992798847586" y2="13.136887401907945"/><line fill="none" stroke="#000" stroke-linecap="round" x1="39.39806383957615" x2="19.56221858228019" y1="32.7992798847586" y2="19.290453358552828"/><line fill="none" stroke="#000" stroke-linecap="round" x1="55.31823585047063" x2="60.063663872516734" y1="-52.74932370495737" y2="-27.04820022147634"/><line fill="none" stroke="#000" stroke-linecap="round" x1="55.31823585047063" x2="30.06504723418411" y1="-52.74932370495737" y2="-64.1861656666858"/><line fill="none" stroke="#000" stroke-linecap="round" x1="55.31823585047063" x2="49.89445148405982" y1="-52.74932370495737" y2="-44.107265861985475"/><line fill="none" stroke="#000" stroke-linecap="round" x1="55.31823585047063" x2="80.44181273325368" y1="-52.74932370495737" y2="-75.38008928581927"/><line fill="none" stroke="#000" stroke-linecap="round" x1="55.31823585047063" x2="29.25998196827533" y1="-52.74932370495737" y2="-48.60302262727988"/><line fill="none" stroke="#000" stroke-linecap="round" x1="67.67408580550578" x2="80.44181273325368" y1="-38.11629769246465" y2="-75.38008928581927"/><line fill="none" stroke="#000" stroke-linecap="round" x1="67.67408580550578" x2="53.23069607077119" y1="-38.11629769246465" y2="-37.29482887778025"/><line fill="none" stroke="#000" stroke-linecap="round" x1="67.67408580550578" x2="54.74537642811598" y1="-38.11629769246465" y2="-1.5947370035301736"/><line fill="none" stroke="#000" stroke-linecap="round" x1="67.67408580550578" x2="59.892910329614615" y1="-38.11629769246465" y2="-17.819478547118496"/><line fill="none" stroke="#000" stroke-linecap="round" x1="67.67408580550578" x2="60.063663872516734" y1="-38.11629769246465" y2="-27.04820022147634"/><line fill="none" stroke="#000" stroke-linecap="round" x1="-12.692123590305616" x2="-7.6482776754256845" y1="-12.190522532479237" y2="9.38231915982612"/><line fill="none" stroke="#000" stroke-linecap="round" x1="-12.692123590305616" x2="-45.42769879848436" y1="-12.190522532479237" y2="-8.612500699529875"/><line fill="none" stroke="#000" stroke-linecap="round" x1="-12.692123590305616" x2="-28.882798930580233" y1="-12.190522532479237" y2="-21.872095429674246"/><line fill="none" stroke="#000" stroke-linecap="round" x1="-12.692123590305616" x2="-30.19936632654578" y1="-12.190522532479237" y2="-0.2753627391144072"/><line fill="none" stroke="#000" stroke-linecap="round" x1="-12.692123590305616" x2="-14.319922094781765" y1="-12.190522532479237" y2="-9.135635819581815"/><line fill="none" stroke="#000" stroke-linecap="round" x1="32.309932584739684" x2="67.44953911555444" y1="-89.93656022938494" y2="-79.14005013686082"/><line fill="none" stroke="#000" stroke-linecap="round" x1="32.309932584739684" x2="48.484927506842006" y1="-89.93656022938494" y2="-91.21262905033092"/><line fill="none" stroke="#000" stroke-linecap="round" x1="32.309932584739684" x2="30.06504723418411" y1="-89.93656022938494" y2="-64.1861656666858"/><line fill="none" stroke="#000" stroke-linecap="round" x1="32.309932584739684" x2="15.122207013079553" y1="-89.93656022938494" y2="-81.08969343887408"/><line fill="none" stroke="#000" stroke-linecap="round" x1="32.309932584739684" x2="23.635085394535874" y1="-89.93656022938494" y2="-107.60256322284518"/><line fill="none" stroke="#000" stroke-linecap="round" x1="15.122207013079553" x2="43.01056992256916" y1="-81.08969343887408" y2="-65.12572583308516"/><line fill="none" stroke="#000" stroke-linecap="round" x1="15.122207013079553" x2="-1.0470020660865529" y1="-81.08969343887408" y2="-92.00313074305639"/><line fill="none" stroke="#000" stroke-linecap="round" x1="15.122207013079553" x2="24.92404927258569" y1="-81.08969343887408" y2="-79.81458652844796"/><line fill="none" stroke="#000" stroke-linecap="round" x1="15.122207013079553" x2="14.234006468768008" y1="-81.08969343887408" y2="-101.81410162529777"/><line fill="none" stroke="#000" stroke-linecap="round" x1="15.122207013079553" x2="-15.995277571406607" y1="-81.08969343887408" y2="-86.91764106598654"/><line fill="none" stroke="#000" stroke-linecap="round" x1="87.68018209558629" x2="81.52485910347818" y1="-125.03716864367111" y2="-140.57363514882192"/><line fill="none" stroke="#000" stroke-linecap="round" x1="87.68018209558629" x2="101.89574055067591" y1="-125.03716864367111" y2="-137.60335213868697"/><line fill="none" stroke="#000" stroke-linecap="round" x1="87.68018209558629" x2="93.82913250139937" y1="-125.03716864367111" y2="-156.6659352163398"/><line fill="none" stroke="#000" stroke-linecap="round" x1="87.68018209558629" x2="101.92939539797862" y1="-125.03716864367111" y2="-106.43920086063326"/><line fill="none" stroke="#000" stroke-linecap="round" x1="87.68018209558629" x2="94.16262829798897" y1="-125.03716864367111" y2="-126.70283062830256"/><line fill="none" stroke="#000" stroke-linecap="round" x1="48.484927506842006" x2="32.309932584739684" y1="-91.21262905033092" y2="-89.93656022938494"/><line fill="none" stroke="#000" stroke-linecap="round" x1="48.484927506842006" x2="67.44953911555444" y1="-91.21262905033092" y2="-79.14005013686082"/><line fill="none" stroke="#000" stroke-linecap="round" x1="48.484927506842006" x2="23.635085394535874" y1="-91.21262905033092" y2="-107.60256322284518"/><line fill="none" stroke="#000" stroke-linecap="round" x1="48.484927506842006" x2="47.24201665401793" y1="-91.21262905033092" y2="-110.04775806428802"/><line fill="none" stroke="#000" stroke-linecap="round" x1="48.484927506842006" x2="71.82306624643559" y1="-91.21262905033092" y2="-91.7161121768699"/><line fill="none" stroke="#000" stroke-linecap="round" x1="56.05178653288437" x2="21.811830749966855" y1="-130.73603099382055" y2="-71.14799454851038"/><line fill="none" stroke="#000" stroke-linecap="round" x1="56.05178653288437" x2="48.08169293572193" y1="-130.73603099382055" y2="-135.9683445851208"/><line fill="none" stroke="#000" stroke-linecap="round" x1="56.05178653288437" x2="35.07188421785355" y1="-130.73603099382055" y2="-150.16033056927677"/><line fill="none" stroke="#000" stroke-linecap="round" x1="56.05178653288437" x2="61.84125261853006" y1="-130.73603099382055" y2="-149.70500787862724"/><line fill="none" stroke="#000" stroke-linecap="round" x1="56.05178653288437" x2="77.33727024844319" y1="-130.73603099382055" y2="-156.09037726845776"/><line fill="none" stroke="#000" stroke-linecap="round" x1="80.44181273325368" x2="101.92939539797862" y1="-75.38008928581927" y2="-106.43920086063326"/><line fill="none" stroke="#000" stroke-linecap="round" x1="80.44181273325368" x2="67.67408580550578" y1="-75.38008928581927" y2="-38.11629769246465"/><line fill="none" stroke="#000" stroke-linecap="round" x1="80.44181273325368" x2="53.23069607077119" y1="-75.38008928581927" y2="-37.29482887778025"/><line fill="none" stroke="#000" stroke-linecap="round" x1="80.44181273325368" x2="93.86225560331195" y1="-75.38008928581927" y2="-64.45935226333997"/><line fill="none" stroke="#000" stroke-linecap="round" x1="80.44181273325368" x2="87.68018209558629" y1="-75.38008928581927" y2="-125.03716864367111"/><line fill="none" stroke="#000" stroke-linecap="round" x1="29.11257599020286" x2="70.8456105428837" y1="-32.54471659341123" y2="-17.166870957257252"/><line fill="none" stroke="#000" stroke-linecap="round" x1="29.11257599020286" x2="28.82547679669229" y1="-32.54471659341123" y2="-19.417620177257874"/><line fill="none" stroke="#000" stroke-linecap="round" x1="29.11257599020286" x2="26.55571692709961" y1="-32.54471659341123" y2="-37.47414401029971"/><line fill="none" stroke="#000" stroke-linecap="round" x1="29.11257599020286" x2="36.496781573369354" y1="-32.54471659341123" y2="-32.89644342122912"/><line fill="none" stroke="#000" stroke-linecap="round" x1="29.11257599020286" x2="30.06504723418411" y1="-32.54471659341123" y2="-64.1861656666858"/><line fill="none" stroke="#000" stroke-linecap="round" x1="137.19518870851726" x2="135.10484902611742" y1="-23.808490248302654" y2="-20.818239375602616"/><line fill="none" stroke="#000" stroke-linecap="round" x1="137.19518870851726" x2="155.03570409957493" y1="-23.808490248302654" y2="-13.813491663900638"/><line fill="none" stroke="#000" stroke-linecap="round" x1="137.19518870851726" x2="153.0387404157102" y1="-23.808490248302654" y2="-33.49050054423613"/><line fill="none" stroke="#000" stroke-linecap="round" x1="137.19518870851726" x2="139.9102458928778" y1="-23.808490248302654" y2="-3.020572073644124"/><line fill="none" stroke="#000" stroke-linecap="round" x1="137.19518870851726" x2="119.17222915766452" y1="-23.808490248302654" y2="-9.679352898105934"/><line fill="none" stroke="#000" stroke-linecap="round" x1="25.408877931063838" x2="73.91389586156649" y1="-0.7655054478403569" y2="-3.904358022900501"/><line fill="none" stroke="#000" stroke-linecap="round" x1="25.408877931063838" x2="60.400993092665104" y1="-0.7655054478403569" y2="6.9964032854175"/><line fill="none" stroke="#000" stroke-linecap="round" x1="25.408877931063838" x2="27.593262059546266" y1="-0.7655054478403569" y2="20.558257860112175"/><line fill="none" stroke="#000" stroke-linecap="round" x1="25.408877931063838" x2="-12.692123590305616" y1="-0.7655054478403569" y2="-12.190522532479237"/><line fill="none" stroke="#000" stroke-linecap="round" x1="25.408877931063838" x2="3.0152661185584915" y1="-0.7655054478403569" y2="23.102681177359283"/><line fill="none" stroke="#000" stroke-linecap="round" x1="49.89445148405982" x2="30.06504723418411" y1="-44.107265861985475" y2="-64.1861656666858"/><line fill="none" stroke="#000" stroke-linecap="round" x1="49.89445148405982" x2="70.8456105428837" y1="-44.107265861985475" y2="-17.166870957257252"/><line fill="none" stroke="#000" stroke-linecap="round" x1="49.89445148405982" x2="60.063663872516734" y1="-44.107265861985475" y2="-27.04820022147634"/><line fill="none" stroke="#000" stroke-linecap="round" x1="49.89445148405982" x2="36.496781573369354" y1="-44.107265861985475" y2="-32.89644342122912"/><line fill="none" stroke="#000" stroke-linecap="round" x1="49.89445148405982" x2="55.31823585047063" y1="-44.107265861985475" y2="-52.74932370495737"/><line fill="none" stroke="#000" stroke-linecap="round" x1="41.9382391733742" x2="39.39806383957615" y1="29.68459447763061" y2="32.7992798847586"/><line fill="none" stroke="#000" stroke-linecap="round" x1="41.9382391733742" x2="32.12700273779549" y1="29.68459447763061" y2="36.24064202779058"/><line fill="none" stroke="#000" stroke-linecap="round" x1="41.9382391733742" x2="25.447552001820792" y1="29.68459447763061" y2="44.30203783180137"/><line fill="none" stroke="#000" stroke-linecap="round" x1="41.9382391733742" x2="45.211281003487755" y1="29.68459447763061" y2="13.136887401907945"/><line fill="none" stroke="#000" stroke-linecap="round" x1="41.9382391733742" x2="59.892910329614615" y1="29.68459447763061" y2="-17.819478547118496"/><line fill="none" stroke="#000" stroke-linecap="round" x1="70.8456105428837" x2="88.74872610640838" y1="-17.166870957257252" y2="-18.897393260728872"/><line fill="none" stroke="#000" stroke-linecap="round" x1="70.8456105428837" x2="60.400993092665104" y1="-17.166870957257252" y2="6.9964032854175"/><line fill="none" stroke="#000" stroke-linecap="round" x1="70.8456105428837" x2="102.39834513965471" y1="-17.166870957257252" y2="7.725600246280678"/><line fill="none" stroke="#000" stroke-linecap="round" x1="70.8456105428837" x2="137.19518870851726" y1="-17.166870957257252" y2="-23.808490248302654"/><line fill="none" stroke="#000" stroke-linecap="round" x1="70.8456105428837" x2="29.11257599020286" y1="-17.166870957257252" y2="-32.54471659341123"/><line fill="none" stroke="#000" stroke-linecap="round" x1="30.06504723418411" x2="15.122207013079553" y1="-64.1861656666858" y2="-81.08969343887408"/><line fill="none" stroke="#000" stroke-linecap="round" x1="30.06504723418411" x2="32.309932584739684" y1="-64.1861656666858" y2="-89.93656022938494"/><line fill="none" stroke="#000" stroke-linecap="round" x1="30.06504723418411" x2="55.31823585047063" y1="-64.1861656666858" y2="-52.74932370495737"/><line fill="none" stroke="#000" stroke-linecap="round" x1="30.06504723418411" x2="1.206971315491659" y1="-64.1861656666858" y2="-104.3022599036672"/><line fill="none" stroke="#000" stroke-linecap="round" x1="30.06504723418411" x2="36.496781573369354" y1="-64.1861656666858" y2="-32.89644342122912"/><line fill="none" stroke="#000" stroke-linecap="round" x1="28.82547679669229" x2="35.78473762751811" y1="-19.417620177257874" y2="-14.46565155610173"/><line fill="none" stroke="#000" stroke-linecap="round" x1="28.82547679669229" x2="45.211281003487755" y1="-19.417620177257874" y2="13.136887401907945"/><line fill="none" stroke="#000" stroke-linecap="round" x1="28.82547679669229" x2="19.56221858228019" y1="-19.417620177257874" y2="19.290453358552828"/><line fill="none" stroke="#000" stroke-linecap="round" x1="28.82547679669229" x2="23.903299219976947" y1="-19.417620177257874" y2="-53.72571591029438"/><line fill="none" stroke="#000" stroke-linecap="round" x1="28.82547679669229" x2="29.11257599020286" y1="-19.417620177257874" y2="-32.54471659341123"/><line fill="none" stroke="#000" stroke-linecap="round" x1="-56.52166333454755" x2="-57.159145361292374" y1="44.52522055339904" y2="53.478613821364696"/><line fill="none" stroke="#000" stroke-linecap="round" x1="-56.52166333454755" x2="-39.13718971205898" y1="44.52522055339904" y2="57.724508015818905"/><line fill="none" stroke="#000" stroke-linecap="round" x1="-56.52166333454755" x2="-59.853978924708144" y1="44.52522055339904" y2="73.02092905960886"/><line fill="none" stroke="#000" stroke-linecap="round" x1="-56.52166333454755" x2="-75.17096508506232" y1="44.52522055339904" y2="46.58933902864679"/><line fill="none" stroke="#000" stroke-linecap="round" x1="-56.52166333454755" x2="-67.52770944004799" y1="44.52522055339904" y2="29.452604477965316"/><line fill="none" stroke="#000" stroke-linecap="round" x1="53.23069607077119" x2="67.67408580550578" y1="-37.29482887778025" y2="-38.11629769246465"/><line fill="none" stroke="#000" stroke-linecap="round" x1="53.23069607077119" x2="59.892910329614615" y1="-37.29482887778025" y2="-17.819478547118496"/><line fill="none" stroke="#000" stroke-linecap="round" x1="53.23069607077119" x2="60.063663872516734" y1="-37.29482887778025" y2="-27.04820022147634"/><line fill="none" stroke="#000" stroke-linecap="round" x1="53.23069607077119" x2="28.82547679669229" y1="-37.29482887778025" y2="-19.417620177257874"/><line fill="none" stroke="#000" stroke-linecap="round" x1="53.23069607077119" x2="21.811830749966855" y1="-37.29482887778025" y2="-71.14799454851038"/><line fill="none" stroke="#000" stroke-linecap="round" x1="19.56221858228019" x2="35.78473762751811" y1="19.290453358552828" y2="-14.46565155610173"/><line fill="none" stroke="#000" stroke-linecap="round" x1="19.56221858228019" x2="32.12700273779549" y1="19.290453358552828" y2="36.24064202779058"/><line fill="none" stroke="#000" stroke-linecap="round" x1="19.56221858228019" x2="6.011621473414029" y1="19.290453358552828" y2="28.93595588482622"/><line fill="none" stroke="#000" stroke-linecap="round" x1="19.56221858228019" x2="39.39806383957615" y1="19.290453358552828" y2="32.7992798847586"/><line fill="none" stroke="#000" stroke-linecap="round" x1="19.56221858228019" x2="28.82547679669229" y1="19.290453358552828" y2="-19.417620177257874"/><line fill="none" stroke="#000" stroke-linecap="round" x1="27.620413639328042" x2="6.011621473414029" y1="4.675779570005935" y2="28.93595588482622"/><line fill="none" stroke="#000" stroke-linecap="round" x1="27.620413639328042" x2="70.8456105428837" y1="4.675779570005935" y2="-17.166870957257252"/><line fill="none" stroke="#000" stroke-linecap="round" x1="27.620413639328042" x2="27.593262059546266" y1="4.675779570005935" y2="20.558257860112175"/><line fill="none" stroke="#000" stroke-linecap="round" x1="27.620413639328042" x2="3.0152661185584915" y1="4.675779570005935" y2="23.102681177359283"/><line fill="none" stroke="#000" stroke-linecap="round" x1="27.620413639328042" x2="36.496781573369354" y1="4.675779570005935" y2="-32.89644342122912"/><line fill="none" stroke="#000" stroke-linecap="round" x1="101.92939539797862" x2="80.44181273325368" y1="-106.43920086063326" y2="-75.38008928581927"/><line fill="none" stroke="#000" stroke-linecap="round" x1="101.92939539797862" x2="87.68018209558629" y1="-106.43920086063326" y2="-125.03716864367111"/><line fill="none" stroke="#000" stroke-linecap="round" x1="101.92939539797862" x2="101.89574055067591" y1="-106.43920086063326" y2="-137.60335213868697"/><line fill="none" stroke="#000" stroke-linecap="round" x1="101.92939539797862" x2="126.22085261900766" y1="-106.43920086063326" y2="-122.94661733108454"/><line fill="none" stroke="#000" stroke-linecap="round" x1="101.92939539797862" x2="122.3831148550267" y1="-106.43920086063326" y2="-102.90779137106583"/><line fill="none" stroke="#000" stroke-linecap="round" x1="73.91389586156649" x2="60.400993092665104" y1="-3.904358022900501" y2="6.9964032854175"/><line fill="none" stroke="#000" stroke-linecap="round" x1="73.91389586156649" x2="25.408877931063838" y1="-3.904358022900501" y2="-0.7655054478403569"/><line fill="none" stroke="#000" stroke-linecap="round" x1="73.91389586156649" x2="70.8456105428837" y1="-3.904358022900501" y2="-17.166870957257252"/><line fill="none" stroke="#000" stroke-linecap="round" x1="73.91389586156649" x2="102.01316196635324" y1="-3.904358022900501" y2="-5.148932042614183"/><line fill="none" stroke="#000" stroke-linecap="round" x1="73.91389586156649" x2="89.52520141661236" y1="-3.904358022900501" y2="3.580699212786749"/><line fill="none" stroke="#000" stroke-linecap="round" x1="-23.666381230551906" x2="-33.49215045154627" y1="-56.38655997770069" y2="-67.31350700147928"/><line fill="none" stroke="#000" stroke-linecap="round" x1="-23.666381230551906" x2="-38.35303910959645" y1="-56.38655997770069" y2="-44.84034410157922"/><line fill="none" stroke="#000" stroke-linecap="round" x1="-23.666381230551906" x2="-10.258615106279931" y1="-56.38655997770069" y2="-63.800844797987736"/><line fill="none" stroke="#000" stroke-linecap="round" x1="-23.666381230551906" x2="-37.26038135404967" y1="-56.38655997770069" y2="-82.54866280586154"/><line fill="none" stroke="#000" stroke-linecap="round" x1="-23.666381230551906" x2="-46.78707904506714" y1="-56.38655997770069" y2="-30.65572105171654"/><line fill="none" stroke="#000" stroke-linecap="round" x1="23.903299219976947" x2="39.50673686226256" y1="-53.72571591029438" y2="-99.27774987376802"/><line fill="none" stroke="#000" stroke-linecap="round" x1="23.903299219976947" x2="29.25998196827533" y1="-53.72571591029438" y2="-48.60302262727988"/><line fill="none" stroke="#000" stroke-linecap="round" x1="23.903299219976947" x2="28.82547679669229" y1="-53.72571591029438" y2="-19.417620177257874"/><line fill="none" stroke="#000" stroke-linecap="round" x1="23.903299219976947" x2="35.78473762751811" y1="-53.72571591029438" y2="-14.46565155610173"/><line fill="none" stroke="#000" stroke-linecap="round" x1="23.903299219976947" x2="26.55571692709961" y1="-53.72571591029438" y2="-37.47414401029971"/><line fill="none" stroke="#000" stroke-linecap="round" x1="36.496781573369354" x2="26.55571692709961" y1="-32.89644342122912" y2="-37.47414401029971"/><line fill="none" stroke="#000" stroke-linecap="round" x1="36.496781573369354" x2="30.06504723418411" y1="-32.89644342122912" y2="-64.1861656666858"/><line fill="none" stroke="#000" stroke-linecap="round" x1="36.496781573369354" x2="49.89445148405982" y1="-32.89644342122912" y2="-44.107265861985475"/><line fill="none" stroke="#000" stroke-linecap="round" x1="36.496781573369354" x2="55.31823585047063" y1="-32.89644342122912" y2="-52.74932370495737"/><line fill="none" stroke="#000" stroke-linecap="round" x1="36.496781573369354" x2="35.78473762751811" y1="-32.89644342122912" y2="-14.46565155610173"/><line fill="none" stroke="#000" stroke-linecap="round" x1="59.892910329614615" x2="60.063663872516734" y1="-17.819478547118496" y2="-27.04820022147634"/><line fill="none" stroke="#000" stroke-linecap="round" x1="59.892910329614615" x2="67.67408580550578" y1="-17.819478547118496" y2="-38.11629769246465"/><line fill="none" stroke="#000" stroke-linecap="round" x1="59.892910329614615" x2="53.23069607077119" y1="-17.819478547118496" y2="-37.29482887778025"/><line fill="none" stroke="#000" stroke-linecap="round" x1="59.892910329614615" x2="73.91389586156649" y1="-17.819478547118496" y2="-3.904358022900501"/><line fill="none" stroke="#000" stroke-linecap="round" x1="59.892910329614615" x2="35.78473762751811" y1="-17.819478547118496" y2="-14.46565155610173"/><line fill="none" stroke="#000" stroke-linecap="round" x1="31.20049538479701" x2="32.12700273779549" y1="30.628129337358242" y2="36.24064202779058"/><line fill="none" stroke="#000" stroke-linecap="round" x1="31.20049538479701" x2="39.39806383957615" y1="30.628129337358242" y2="32.7992798847586"/><line fill="none" stroke="#000" stroke-linecap="round" x1="31.20049538479701" x2="25.447552001820792" y1="30.628129337358242" y2="44.30203783180137"/><line fill="none" stroke="#000" stroke-linecap="round" x1="31.20049538479701" x2="41.9382391733742" y1="30.628129337358242" y2="29.68459447763061"/><line fill="none" stroke="#000" stroke-linecap="round" x1="31.20049538479701" x2="27.620413639328042" y1="30.628129337358242" y2="4.675779570005935"/><line fill="none" stroke="#000" stroke-linecap="round" x1="71.82306624643559" x2="85.72727201575405" y1="-91.7161121768699" y2="-103.82208025036569"/><line fill="none" stroke="#000" stroke-linecap="round" x1="71.82306624643559" x2="47.24201665401793" y1="-91.7161121768699" y2="-110.04775806428802"/><line fill="none" stroke="#000" stroke-linecap="round" x1="71.82306624643559" x2="122.36219899773589" y1="-91.7161121768699" y2="-92.53551476057203"/><line fill="none" stroke="#000" stroke-linecap="round" x1="71.82306624643559" x2="48.484927506842006" y1="-91.7161121768699" y2="-91.21262905033092"/><line fill="none" stroke="#000" stroke-linecap="round" x1="71.82306624643559" x2="61.162681212353874" y1="-91.7161121768699" y2="-106.28696489370859"/><line fill="none" stroke="#000" stroke-linecap="round" x1="78.87215272879321" x2="80.44181273325368" y1="-64.903920161576" y2="-75.38008928581927"/><line fill="none" stroke="#000" stroke-linecap="round" x1="78.87215272879321" x2="101.92939539797862" y1="-64.903920161576" y2="-106.43920086063326"/><line fill="none" stroke="#000" stroke-linecap="round" x1="78.87215272879321" x2="91.13742728919941" y1="-64.903920161576" y2="-44.211078720283844"/><line fill="none" stroke="#000" stroke-linecap="round" x1="78.87215272879321" x2="71.82306624643559" y1="-64.903920161576" y2="-91.7161121768699"/><line fill="none" stroke="#000" stroke-linecap="round" x1="78.87215272879321" x2="59.892910329614615" y1="-64.903920161576" y2="-17.819478547118496"/><line fill="none" stroke="#000" stroke-linecap="round" x1="29.25998196827533" x2="23.903299219976947" y1="-48.60302262727988" y2="-53.72571591029438"/><line fill="none" stroke="#000" stroke-linecap="round" x1="29.25998196827533" x2="26.55571692709961" y1="-48.60302262727988" y2="-37.47414401029971"/><line fill="none" stroke="#000" stroke-linecap="round" x1="29.25998196827533" x2="70.8456105428837" y1="-48.60302262727988" y2="-17.166870957257252"/><line fill="none" stroke="#000" stroke-linecap="round" x1="29.25998196827533" x2="55.31823585047063" y1="-48.60302262727988" y2="-52.74932370495737"/><line fill="none" stroke="#000" stroke-linecap="round" x1="29.25998196827533" x2="-23.666381230551906" y1="-48.60302262727988" y2="-56.38655997770069"/><line fill="none" stroke="#000" stroke-linecap="round" x1="60.063663872516734" x2="55.31823585047063" y1="-27.04820022147634" y2="-52.74932370495737"/><line fill="none" stroke="#000" stroke-linecap="round" x1="60.063663872516734" x2="35.78473762751811" y1="-27.04820022147634" y2="-14.46565155610173"/><line fill="none" stroke="#000" stroke-linecap="round" x1="60.063663872516734" x2="60.400993092665104" y1="-27.04820022147634" y2="6.9964032854175"/><line fill="none" stroke="#000" stroke-linecap="round" x1="60.063663872516734" x2="67.67408580550578" y1="-27.04820022147634" y2="-38.11629769246465"/><line fill="none" stroke="#000" stroke-linecap="round" x1="60.063663872516734" x2="59.892910329614615" y1="-27.04820022147634" y2="-17.819478547118496"/></svg>