<?xml version="1.0" ?><!DOCTYPE svg  PUBLIC '-//W3C//DTD SVG 1.1//EN'  'http://www.w3.org/Graphics/SVG/1.1/DTD/svg11.dtd'><svg height="371.000" viewBox="-687.000 -13.000 1404.000 371.000" width="1404.000" xmlns="http://www.w3.org/2000/svg"><line fill="none" stroke="none" stroke-linecap="round" stroke-width="2.0" x1="0.0" x2="0.0" y1="0.0" y2="0.0"/><polygon fill="none" fill-rule="evenodd" points="0.0,0.0 0.0,0.0 0.0,0.0" stroke-linejoin="round"/><line fill="none" stroke="none" stroke-linecap="round" stroke-width="2.0" x1="0.0" x2="0.0" y1="0.0" y2="0.0"/><line fill="none" stroke="none" stroke-linecap="round" stroke-width="2.0" x1="0.0" x2="0.0" y1="0.0" y2="0.0"/><polygon fill="none" fill-rule="evenodd" points="0.0,0.0 0.0,0.0 0.0,0.0" stroke-linejoin="round"/><line fill="none" stroke="none" stroke-linecap="round" stroke-width="2.0" x1="0.0" x2="0.0" y1="0.0" y2="0.0"/><line fill="none" stroke="none" stroke-linecap="round" stroke-width="2.0" x1="0.0" x2="0.0" y1="0.0" y2="0.0"/><polygon fill="none" fill-rule="evenodd" points="0.0,0.0 0.0,0.0 0.0,0.0" stroke-linejoin="round"/><line fill="none" stroke="none" stroke-linecap="round" stroke-width="2.0" x1="0.0" x2="0.0" y1="0.0" y2="0.0"/><line fill="none" stroke="none" stroke-linecap="round" stroke-width="2.0" x1="0.0" x2="0.0" y1="0.0" y2="0.0"/><polygon fill="none" fill-rule="evenodd" points="0.0,0.0 0.0,0.0 0.0,0.0" stroke-linejoin="round"/><line fill="none" stroke="none" stroke-linecap="round" stroke-width="2.0" x1="0.0" x2="0.0" y1="0.0" y2="0.0"/><line fill="none" stroke="none" stroke-linecap="round" stroke-width="2.0" x1="0.0" x2="0.0" y1="0.0" y2="0.0"/><polygon fill="none" fill-rule="evenodd" points="0.0,0.0 0.0,0.0 0.0,0.0" stroke-linejoin="round"/><line fill="none" stroke="none" stroke-linecap="round" stroke-width="2.0" x1="0.0" x2="0.0" y1="0.0" y2="0.0"/><line fill="none" stroke="none" stroke-linecap="round" stroke-width="2.0" x1="0.0" x2="0.0" y1="0.0" y2="0.0"/><polygon fill="none" fill-rule="evenodd" points="0.0,0.0 0.0,0.0 0.0,0.0" stroke-linejoin="round"/><line fill="none" stroke="none" stroke-linecap="round" stroke-width="2.0" x1="0.0" x2="0.0" y1="0.0" y2="0.0"/><line fill="none" stroke="none" stroke-linecap="round" stroke-width="2.0" x1="0.0" x2="0.0" y1="0.0" y2="0.0"/><polygon fill="none" fill-rule="evenodd" points="0.0,0.0 0.0,0.0 0.0,0.0" stroke-linejoin="round"/><line fill="none" stroke="none" stroke-linecap="round" stroke-width="2.0" x1="0.0" x2="0.0" y1="0.0" y2="0.0"/><line fill="none" stroke="none" stroke-linecap="round" stroke-width="2.0" x1="0.0" x2="0.0" y1="0.0" y2="0.0"/><polygon fill="none" fill-rule="evenodd" points="0.0,0.0 0.0,0.0 0.0,0.0" stroke-linejoin="round"/><line fill="none" stroke="none" stroke-linecap="round" stroke-width="2.0" x1="0.0" x2="0.0" y1="0.0" y2="0.0"/><line fill="none" stroke="none" stroke-linecap="round" stroke-width="2.0" x1="0.0" x2="0.0" y1="0.0" y2="0.0"/><polygon fill="none" fill-rule="evenodd" points="0.0,0.0 0.0,0.0 0.0,0.0" stroke-linejoin="round"/><line fill="none" stroke="none" stroke-linecap="round" stroke-width="2.0" x1="0.0" x2="0.0" y1="0.0" y2="0.0"/><line fill="none" stroke="none" stroke-linecap="round" stroke-width="2.0" x1="0.0" x2="0.0" y1="0.0" y2="0.0"/><polygon fill="none" fill-rule="evenodd" points="0.0,0.0 0.0,0.0 0.0,0.0" stroke-linejoin="round"/><line fill="none" stroke="none" stroke-linecap="round" stroke-width="2.0" x1="0.0" x2="0.0" y1="0.0" y2="0.0"/><line fill="none" stroke="none" stroke-linecap="round" stroke-width="2.0" x1="0.0" x2="0.0" y1="0.0" y2="0.0"/><polygon fill="none" fill-rule="evenodd" points="0.0,0.0 0.0,0.0 0.0,0.0" stroke-linejoin="round"/><line fill="none" stroke="none" stroke-linecap="round" stroke-width="2.0" x1="0.0" x2="0.0" y1="0.0" y2="0.0"/><line fill="none" stroke="none" stroke-linecap="round" stroke-width="2.0" x1="0.0" x2="0.0" y1="0.0" y2="0.0"/><polygon fill="none" fill-rule="evenodd" points="0.0,0.0 0.0,0.0 0.0,0.0" stroke-linejoin="round"/><line fill="none" stroke="none" stroke-linecap="round" stroke-width="2.0" x1="0.0" x2="0.0" y1="0.0" y2="0.0"/><line fill="none" stroke="none" stroke-linecap="round" stroke-width="2.0" x1="0.0" x2="0.0" y1="0.0" y2="0.0"/><polygon fill="none" fill-rule="evenodd" points="0.0,0.0 0.0,0.0 0.0,0.0" stroke-linejoin="round"/><line fill="none" stroke="none" stroke-linecap="round" stroke-width="2.0" x1="0.0" x2="0.0" y1="0.0" y2="0.0"/><line fill="none" stroke="none" stroke-linecap="round" stroke-width="2.0" x1="0.0" x2="0.0" y1="0.0" y2="0.0"/><polygon fill="none" fill-rule="evenodd" points="0.0,0.0 0.0,0.0 0.0,0.0" stroke-linejoin="round"/><line fill="none" stroke="none" stroke-linecap="round" stroke-width="2.0" x1="0.0" x2="0.0" y1="0.0" y2="0.0"/><line fill="none" stroke="none" stroke-linecap="round" stroke-width="2.0" x1="0.0" x2="0.0" y1="0.0" y2="0.0"/><polygon fill="none" fill-rule="evenodd" points="0.0,0.0 0.0,0.0 0.0,0.0" stroke-linejoin="round"/><polyline fill="none" points="438.672823391514,294.27006564415007 441.172823391514,293.6001926630723 443.0029504104362,291.77006564415007 443.672823391514,289.27006564415007 443.0029504104362,286.77006564415007 441.172823391514,284.93993862522785 438.672823391514,284.27006564415007 436.172823391514,284.93993862522785 434.3426963725918,286.77006564415007 433.672823391514,289.27006564415007 434.3426963725918,291.77006564415007 436.172823391514,293.6001926630723 438.672823391514,294.27006564415007" stroke="#ffa500" stroke-linecap="round" stroke-linejoin="round"/><polyline fill="none" points="596.7098068174234,183.9062393783251 599.2098068174234,183.23636639724728 601.0399338363457,181.4062393783251 601.7098068174234,178.9062393783251 601.0399338363457,176.4062393783251 599.2098068174234,174.5761123594029 596.7098068174234,173.9062393783251 594.2098068174234,174.5761123594029 592.3796797985012,176.4062393783251 591.7098068174234,178.9062393783251 592.3796797985012,181.4062393783251 594.2098068174234,183.23636639724728 596.7098068174234,183.9062393783251" stroke="#008000" stroke-linecap="round" stroke-linejoin="round"/><polyline fill="none" points="550.7635668427739,195.42562586370258 553.2635668427739,194.7557528826248 555.0936938616961,192.9256258637026 555.7635668427739,190.4256258637026 555.0936938616961,187.9256258637026 553.2635668427739,186.0954988447804 550.7635668427739,185.42562586370258 548.2635668427739,186.09549884478037 546.4334398238517,187.92562586370255 545.7635668427739,190.42562586370255 546.4334398238517,192.92562586370255 548.2635668427739,194.75575288262476 550.7635668427739,195.42562586370258" stroke="#008000" stroke-linecap="round" stroke-linejoin="round"/><polyline fill="none" points="598.2046051664464,203.80895540085658 600.7046051664464,203.1390824197788 602.5347321853686,201.3089554008566 603.2046051664464,198.8089554008566 602.5347321853686,196.3089554008566 600.7046051664464,194.4788283819344 598.2046051664464,193.80895540085658 595.7046051664464,194.47882838193436 593.8744781475242,196.30895540085655 593.2046051664464,198.80895540085655 593.8744781475242,201.30895540085655 595.7046051664464,203.13908241977876 598.2046051664464,203.80895540085658" stroke="#f00" stroke-linecap="round" stroke-linejoin="round"/><polyline fill="none" points="454.4894515681895,156.73097395653423 456.9894515681895,156.06110097545644 458.8195785871117,154.23097395653426 459.48945156818957,151.73097395653426 458.8195785871118,149.23097395653426 456.98945156818957,147.40084693761204 454.48945156818957,146.73097395653423 451.98945156818957,147.40084693761202 450.15932454926735,149.2309739565342 449.4894515681895,151.7309739565342 450.1593245492673,154.2309739565342 451.9894515681895,156.0611009754564 454.4894515681895,156.73097395653423" stroke="#ffa500" stroke-linecap="round" stroke-linejoin="round"/><polyline fill="none" points="512.3993080055458,147.60502834513983 514.8993080055458,146.93515536406204 516.729435024468,145.10502834513986 517.3993080055458,142.60502834513986 516.729435024468,140.10502834513986 514.8993080055458,138.27490132621764 512.3993080055458,137.60502834513983 509.8993080055458,138.27490132621762 508.06918098662356,140.1050283451398 507.3993080055457,142.6050283451398 508.0691809866235,145.1050283451398 509.8993080055457,146.935155364062 512.3993080055457,147.60502834513983" stroke="#00f" stroke-linecap="round" stroke-linejoin="round"/><polyline fill="none" points="473.2858830920246,164.59759746351526 475.7858830920246,163.92772448243747 477.61601011094683,162.09759746351529 478.2858830920247,159.59759746351529 477.6160101109469,157.09759746351529 475.7858830920247,155.26747044459307 473.2858830920247,154.59759746351526 470.7858830920247,155.26747044459304 468.95575607310246,157.09759746351523 468.2858830920246,159.59759746351523 468.9557560731024,162.09759746351523 470.78588309202456,163.92772448243744 473.28588309202456,164.59759746351526" stroke="#00f" stroke-linecap="round" stroke-linejoin="round"/><polyline fill="none" points="603.4214130118663,231.1893001468268 605.9214130118663,230.51942716574902 607.7515400307885,228.68930014682684 608.4214130118663,226.18930014682684 607.7515400307885,223.68930014682684 605.9214130118663,221.85917312790463 603.4214130118663,221.1893001468268 600.9214130118663,221.8591731279046 599.0912859929441,223.68930014682678 598.4214130118663,226.18930014682678 599.0912859929441,228.68930014682678 600.9214130118663,230.519427165749 603.4214130118663,231.1893001468268" stroke="#00f" stroke-linecap="round" stroke-linejoin="round"/><polyline fill="none" points="528.4471319713214,258.6509935282403 530.9471319713214,257.9811205471625 532.7772589902436,256.15099352824035 533.4471319713214,253.65099352824035 532.7772589902436,251.15099352824035 530.9471319713214,249.32086650931814 528.4471319713214,248.6509935282403 525.9471319713214,249.32086650931808 524.1170049523992,251.15099352824026 523.4471319713214,253.65099352824026 524.1170049523992,256.1509935282403 525.9471319713214,257.9811205471625 528.4471319713214,258.65099352824035" stroke="#ffa500" stroke-linecap="round" stroke-linejoin="round"/><polyline fill="none" points="533.2760589863972,142.8560347967967 535.7760589863972,142.18616181571892 537.6061860053194,140.35603479679673 538.2760589863972,137.85603479679673 537.6061860053194,135.35603479679673 535.7760589863972,133.52590777787452 533.2760589863972,132.85603479679668 530.7760589863972,133.52590777787447 528.945931967475,135.35603479679665 528.2760589863972,137.85603479679665 528.945931967475,140.35603479679665 530.7760589863972,142.18616181571886 533.2760589863972,142.8560347967967" stroke="#ffa500" stroke-linecap="round" stroke-linejoin="round"/><polyline fill="none" points="573.6140886553964,315.0622621868841 576.1140886553964,314.3923892058063 577.9442156743186,312.56226218688414 578.6140886553964,310.06226218688414 577.9442156743186,307.56226218688414 576.1140886553964,305.7321351679619 573.6140886553964,305.0622621868841 571.1140886553964,305.73213516796187 569.2839616364741,307.562262186884 568.6140886553964,310.062262186884 569.2839616364741,312.562262186884 571.1140886553964,314.39238920580624 573.6140886553964,315.0622621868841" stroke="#ffa500" stroke-linecap="round" stroke-linejoin="round"/><polyline fill="none" points="504.80681895808283,198.81966724046188 507.30681895808283,198.1497942593841 509.13694597700504,196.3196672404619 509.8068189580829,193.8196672404619 509.1369459770051,191.31966724046188 507.30681895808294,189.48954022153967 504.80681895808294,188.81966724046183 502.30681895808294,189.4895402215396 500.47669193916073,191.3196672404618 499.8068189580829,193.8196672404618 500.4766919391607,196.31966724046183 502.30681895808283,198.14979425938404 504.80681895808283,198.81966724046188" stroke="#00f" stroke-linecap="round" stroke-linejoin="round"/><polyline fill="none" points="532.7000540257184,238.69941952213512 535.2000540257184,238.02954654105733 537.0301810446406,236.19941952213514 537.7000540257184,233.69941952213514 537.0301810446406,231.19941952213512 535.2000540257184,229.3692925032129 532.7000540257184,228.69941952213506 530.2000540257184,229.36929250321285 528.3699270067962,231.19941952213503 527.7000540257184,233.69941952213503 528.3699270067962,236.19941952213506 530.2000540257184,238.02954654105727 532.7000540257184,238.69941952213512" stroke="#00f" stroke-linecap="round" stroke-linejoin="round"/><polyline fill="none" points="-650.0840152955324,247.33913092457377 -647.5840152955324,246.66925794349598 -645.7538882766102,244.8391309245738 -645.0840152955324,242.3391309245738 -645.7538882766102,239.83913092457377 -647.5840152955324,238.00900390565155 -650.0840152955324,237.3391309245737 -652.5840152955324,238.0090039056515 -654.4141423144546,239.83913092457368 -655.0840152955324,242.33913092457368 -654.4141423144546,244.8391309245737 -652.5840152955324,246.66925794349592 -650.0840152955324,247.33913092457377" stroke="#00f" stroke-linecap="round" stroke-linejoin="round"/><polyline fill="none" points="481.44221257590675,214.56564649699186 483.94221257590675,213.89577351591407 485.77233959482896,212.0656464969919 486.4422125759068,209.5656464969919 485.772339594829,207.06564649699186 483.94221257590686,205.23551947806962 481.44221257590686,204.56564649699177 478.94221257590686,205.23551947806956 477.11208555698465,207.06564649699175 476.4422125759068,209.56564649699175 477.1120855569846,212.06564649699177 478.94221257590675,213.89577351591402 481.44221257590675,214.56564649699186" stroke="#ffa500" stroke-linecap="round" stroke-linejoin="round"/><polyline fill="none" points="503.3267985130068,252.6175007836911 505.8267985130068,251.94762780261334 507.656925531929,250.11750078369116 508.32679851300685,247.61750078369116 507.65692553192906,245.11750078369113 505.8267985130069,243.2873737647689 503.3267985130069,242.61750078369104 500.8267985130069,243.2873737647688 498.9966714940847,245.11750078369099 498.32679851300685,247.61750078369099 498.99667149408464,250.117500783691 500.8267985130068,251.94762780261325 503.3267985130068,252.6175007836911" stroke="#ffa500" stroke-linecap="round" stroke-linejoin="round"/><polyline fill="none" points="630.3833633397762,233.4414851965883 632.8833633397762,232.77161221551054 634.7134903586984,230.94148519658836 635.3833633397763,228.44148519658836 634.7134903586986,225.94148519658833 632.8833633397763,224.1113581776661 630.3833633397763,223.44148519658825 627.8833633397763,224.111358177666 626.0532363208541,225.9414851965882 625.3833633397762,228.4414851965882 626.053236320854,230.94148519658822 627.8833633397762,232.77161221551046 630.3833633397762,233.4414851965883" stroke="#00f" stroke-linecap="round" stroke-linejoin="round"/><polyline fill="none" points="616.2433002211164,181.36902306605634 618.7433002211164,180.69915008497858 620.5734272400387,178.8690230660564 621.2433002211166,176.3690230660564 620.5734272400388,173.86902306605637 618.7433002211166,172.03889604713413 616.2433002211166,171.3690230660563 613.7433002211166,172.03889604713405 611.9131732021943,173.86902306605623 611.2433002211164,176.36902306605623 611.9131732021942,178.86902306605626 613.7433002211164,180.6991500849785 616.2433002211164,181.36902306605634" stroke="#ffa500" stroke-linecap="round" stroke-linejoin="round"/><polyline fill="none" points="699.9066390992276,264.8837465763499 702.4066390992276,264.2138735952721 704.2367661181498,262.38374657634995 704.9066390992277,259.88374657634995 704.23676611815,257.38374657634995 702.4066390992277,255.5536195574277 699.9066390992277,254.88374657634986 697.4066390992277,255.55361955742762 695.5765120803055,257.3837465763498 694.9066390992276,259.8837465763498 695.5765120803054,262.3837465763498 697.4066390992276,264.213873595272 699.9066390992276,264.88374657634984" stroke="#ffa500" stroke-linecap="round" stroke-linejoin="round"/><polyline fill="none" points="478.2855713172588,285.0828717393606 480.7855713172588,284.4129987582828 482.615698336181,282.58287173936066 483.28557131725887,280.08287173936066 482.6156983361811,277.58287173936066 480.7855713172589,275.75274472043844 478.2855713172589,275.0828717393606 475.7855713172589,275.7527447204384 473.9554442983367,277.58287173936054 473.28557131725887,280.08287173936054 473.95544429833666,282.5828717393606 475.7855713172588,284.4129987582828 478.2855713172588,285.08287173936066" stroke="#ffa500" stroke-linecap="round" stroke-linejoin="round"/><polyline fill="none" points="691.7683286839341,253.73015082045166 694.2683286839341,253.0602778393739 696.0984557028563,251.23015082045174 696.7683286839342,248.73015082045174 696.0984557028564,246.2301508204517 694.2683286839342,244.40002380152947 691.7683286839342,243.7301508204516 689.2683286839342,244.40002380152936 687.438201665012,246.2301508204515 686.7683286839341,248.7301508204515 687.4382016650119,251.23015082045154 689.2683286839341,253.06027783937378 691.7683286839341,253.73015082045166" stroke="#00f" stroke-linecap="round" stroke-linejoin="round"/><polyline fill="none" points="555.0879926134318,188.84016669191288 557.5879926134318,188.17029371083513 559.418119632354,186.34016669191297 560.0879926134319,183.84016669191297 559.4181196323541,181.34016669191294 557.5879926134319,179.5100396729907 555.0879926134319,178.84016669191283 552.5879926134319,179.5100396729906 550.7578655945097,181.34016669191274 550.0879926134318,183.84016669191274 550.7578655945096,186.34016669191277 552.5879926134318,188.170293710835 555.0879926134318,188.84016669191288" stroke="#00f" stroke-linecap="round" stroke-linejoin="round"/><polyline fill="none" points="614.4494828346266,286.6834558017301 616.9494828346266,286.01358282065235 618.7796098535488,284.1834558017302 619.4494828346267,281.6834558017302 618.7796098535489,279.18345580173013 616.9494828346267,277.35332878280786 614.4494828346267,276.68345580173 611.9494828346267,277.35332878280775 610.1193558157045,279.1834558017299 609.4494828346266,281.6834558017299 610.1193558157044,284.18345580172996 611.9494828346266,286.01358282065223 614.4494828346266,286.6834558017301" stroke="#ffa500" stroke-linecap="round" stroke-linejoin="round"/><polyline fill="none" points="638.3569273002541,341.1904235401963 640.8569273002541,340.5205505591186 642.6870543191764,338.69042354019643 643.3569273002543,336.19042354019643 642.6870543191765,333.6904235401964 640.8569273002543,331.8602965212741 638.3569273002543,331.19042354019626 635.8569273002543,331.860296521274 634.026800281332,333.69042354019615 633.3569273002541,336.19042354019615 634.0268002813319,338.6904235401962 635.8569273002541,340.5205505591185 638.3569273002541,341.1904235401963" stroke="#ffa500" stroke-linecap="round" stroke-linejoin="round"/><polyline fill="none" points="582.2155914548354,264.2765289412357 584.7155914548354,263.606655960158 586.5457184737576,261.7765289412358 587.2155914548355,259.2765289412358 586.5457184737577,256.77652894123577 584.7155914548355,254.94640192231353 582.2155914548355,254.27652894123565 579.7155914548355,254.9464019223134 577.8854644359133,256.7765289412356 577.2155914548354,259.2765289412356 577.8854644359131,261.77652894123565 579.7155914548354,263.6066559601579 582.2155914548354,264.2765289412358" stroke="#00f" stroke-linecap="round" stroke-linejoin="round"/><polyline fill="none" points="444.1601538348113,274.97835228763233 446.66015383481135,274.3084793065546 448.4902808537336,272.47835228763245 449.1601538348115,269.97835228763245 448.4902808537338,267.4783522876324 446.66015383481164,265.6482252687101 444.16015383481164,264.9783522876322 441.6601538348116,265.64822526870995 439.8300268158893,267.4783522876321 439.1601538348114,269.9783522876321 439.83002681588914,272.47835228763216 441.6601538348113,274.30847930655443 444.1601538348113,274.97835228763233" stroke="#ffa500" stroke-linecap="round" stroke-linejoin="round"/><polyline fill="none" points="612.1445024569039,162.77752381523294 614.6445024569039,162.10765083415518 616.4746294758261,160.27752381523302 617.144502456904,157.77752381523302 616.4746294758262,155.277523815233 614.644502456904,153.44739679631073 612.144502456904,152.77752381523285 609.644502456904,153.4473967963106 607.8143754379818,155.27752381523277 607.1445024569039,157.77752381523277 607.8143754379817,160.2775238152328 609.6445024569039,162.10765083415507 612.1445024569039,162.77752381523294" stroke="#ffa500" stroke-linecap="round" stroke-linejoin="round"/><polyline fill="none" points="686.0957719725587,218.18065871529006 688.5957719725587,217.51078573421233 690.425898991481,215.68065871529018 691.0957719725589,213.18065871529018 690.4258989914811,210.68065871529015 688.5957719725589,208.85053169636788 686.0957719725589,208.18065871529 683.5957719725589,208.85053169636774 681.7656449536366,210.6806587152899 681.0957719725587,213.1806587152899 681.7656449536365,215.68065871528992 683.5957719725587,217.5107857342122 686.0957719725587,218.18065871529006" stroke="#ffa500" stroke-linecap="round" stroke-linejoin="round"/><polyline fill="none" points="576.386215823883,252.51967071128203 578.886215823883,251.8497977302043 580.7163428428053,250.01967071128215 581.3862158238832,247.51967071128215 580.7163428428054,245.01967071128212 578.8862158238832,243.18954369235985 576.3862158238832,242.51967071128198 573.8862158238832,243.1895436923597 572.056088804961,245.01967071128186 571.386215823883,247.51967071128186 572.0560888049608,250.0196707112819 573.886215823883,251.84979773020416 576.386215823883,252.51967071128203" stroke="#ffa500" stroke-linecap="round" stroke-linejoin="round"/><polyline fill="none" points="535.5240140243682,288.5432664227862 538.0240140243682,287.87339344170846 539.8541410432904,286.0432664227863 540.5240140243683,283.5432664227863 539.8541410432905,281.04326642278625 538.0240140243684,279.213139403864 535.5240140243684,278.5432664227861 533.0240140243684,279.2131394038638 531.1938870054462,281.04326642278596 530.5240140243683,283.54326642278596 531.1938870054461,286.043266422786 533.0240140243682,287.8733934417083 535.5240140243682,288.5432664227862" stroke="#ffa500" stroke-linecap="round" stroke-linejoin="round"/><polyline fill="none" points="584.7583136648037,319.4147989579831 587.2583136648037,318.7449259769054 589.0884406837259,316.91479895798324 589.7583136648038,314.41479895798324 589.088440683726,311.9147989579832 587.258313664804,310.0846719390609 584.758313664804,309.414798957983 582.258313664804,310.08467193906074 580.4281866458817,311.9147989579829 579.7583136648038,314.4147989579829 580.4281866458816,316.91479895798295 582.2583136648037,318.7449259769052 584.7583136648037,319.4147989579831" stroke="#00f" stroke-linecap="round" stroke-linejoin="round"/><polyline fill="none" points="620.6537805593665,259.29180996878614 623.1537805593665,258.6219369877084 624.9839075782887,256.79180996878625 625.6537805593666,254.29180996878625 624.9839075782888,251.7918099687862 623.1537805593667,249.96168294986393 620.6537805593667,249.29180996878603 618.1537805593667,249.96168294986376 616.3236535404444,251.7918099687859 615.6537805593665,254.2918099687859 616.3236535404443,256.79180996878597 618.1537805593664,258.62193698770824 620.6537805593664,259.29180996878614" stroke="#ffa500" stroke-linecap="round" stroke-linejoin="round"/><polyline fill="none" points="660.7160574497963,255.21637947254993 663.2160574497963,254.5465064914722 665.0461844687186,252.71637947255005 665.7160574497965,250.21637947255005 665.0461844687187,247.71637947255 663.2160574497966,245.88625245362772 660.7160574497966,245.21637947254982 658.2160574497966,245.88625245362755 656.3859304308743,247.7163794725497 655.7160574497964,250.2163794725497 656.385930430874,252.71637947254976 658.2160574497962,254.54650649147203 660.7160574497962,255.21637947254993" stroke="#00f" stroke-linecap="round" stroke-linejoin="round"/><polyline fill="none" points="665.820011158224,288.8300751763723 668.320011158224,288.1602021952946 670.1501381771463,286.3300751763724 670.8200111582242,283.8300751763724 670.1501381771466,281.33007517637236 668.3200111582245,279.4999481574501 665.8200111582245,278.8300751763722 663.3200111582245,279.4999481574499 661.4898841393021,281.3300751763721 660.8200111582242,283.8300751763721 661.4898841393019,286.33007517637213 663.320011158224,288.1602021952944 665.820011158224,288.8300751763723" stroke="#ffa500" stroke-linecap="round" stroke-linejoin="round"/><polyline fill="none" points="570.6795515227038,174.9114536537285 573.1795515227038,174.24158067265077 575.0096785416262,172.4114536537286 575.6795515227041,169.9114536537286 575.0096785416264,167.41145365372856 573.1795515227043,165.5813266348063 570.6795515227043,164.9114536537284 568.1795515227043,165.58132663480612 566.349424503782,167.41145365372827 565.6795515227041,169.91145365372827 566.3494245037817,172.41145365372833 568.1795515227038,174.2415806726506 570.6795515227038,174.9114536537285" stroke="#00f" stroke-linecap="round" stroke-linejoin="round"/><polyline fill="none" points="520.3845481694109,158.50075374474198 522.8845481694109,157.83088076366425 524.7146751883332,156.0007537447421 525.3845481694111,153.5007537447421 524.7146751883334,151.00075374474204 522.8845481694113,149.17062672581977 520.3845481694113,148.50075374474187 517.8845481694113,149.1706267258196 516.054421150489,151.00075374474176 515.3845481694111,153.50075374474176 516.0544211504888,156.00075374474181 517.8845481694109,157.83088076366408 520.3845481694109,158.50075374474198" stroke="#00f" stroke-linecap="round" stroke-linejoin="round"/><polyline fill="none" points="594.3455603535914,157.01519340745457 596.8455603535914,156.34532042637684 598.6756873725137,154.5151934074547 599.3455603535916,152.0151934074547 598.675687372514,149.51519340745463 596.8455603535918,147.68506638853236 594.3455603535918,147.01519340745446 591.8455603535918,147.6850663885322 590.0154333346695,149.51519340745435 589.3455603535916,152.01519340745435 590.0154333346693,154.5151934074544 591.8455603535914,156.34532042637667 594.3455603535914,157.01519340745457" stroke="#00f" stroke-linecap="round" stroke-linejoin="round"/><polyline fill="none" points="666.2102501105666,214.827598863669 668.7102501105666,214.15772588259128 670.5403771294889,212.32759886366912 671.2102501105668,209.82759886366912 670.5403771294891,207.32759886366907 668.710250110567,205.4974718447468 666.210250110567,204.8275988636689 663.710250110567,205.49747184474663 661.8801230916447,207.32759886366878 661.2102501105668,209.82759886366878 661.8801230916445,212.32759886366884 663.7102501105666,214.1577258825911 666.2102501105666,214.827598863669" stroke="#ffa500" stroke-linecap="round" stroke-linejoin="round"/><polyline fill="none" points="650.5706473826887,232.09420878946727 653.0706473826887,231.42433580838954 654.900774401611,229.5942087894674 655.5706473826889,227.0942087894674 654.9007744016112,224.59420878946733 653.0706473826891,222.76408177054503 650.5706473826891,222.09420878946713 648.0706473826891,222.76408177054486 646.2405203637668,224.59420878946702 645.5706473826889,227.09420878946702 646.2405203637666,229.59420878946707 648.0706473826887,231.42433580838937 650.5706473826887,232.09420878946727" stroke="#ffa500" stroke-linecap="round" stroke-linejoin="round"/><polyline fill="none" points="575.2026566578361,266.03612736063184 577.7026566578361,265.3662543795541 579.5327836767584,263.53612736063195 580.2026566578363,261.03612736063195 579.5327836767586,258.5361273606319 577.7026566578365,256.7060003417096 575.2026566578365,256.0361273606317 572.7026566578365,256.70600034170945 570.8725296389142,258.5361273606316 570.2026566578363,261.0361273606316 570.872529638914,263.53612736063167 572.7026566578361,265.36625437955394 575.2026566578361,266.03612736063184" stroke="#00f" stroke-linecap="round" stroke-linejoin="round"/><polyline fill="none" points="539.5602495074935,161.36667270732627 542.0602495074935,160.69679972624857 543.8903765264158,158.86667270732644 544.5602495074937,156.36667270732644 543.890376526416,153.8666727073264 542.060249507494,152.0365456884041 539.560249507494,151.36667270732616 537.060249507494,152.03654568840386 535.2301224885716,153.866672707326 534.5602495074937,156.366672707326 535.2301224885714,158.86667270732605 537.0602495074935,160.69679972624834 539.5602495074935,161.36667270732627" stroke="#ffa500" stroke-linecap="round" stroke-linejoin="round"/><polyline fill="none" points="544.0273143230878,223.5596507779277 546.5273143230879,222.88977779684998 548.3574413420102,221.05965077792786 549.0273143230881,218.55965077792786 548.3574413420105,216.0596507779278 546.5273143230884,214.2295237590055 544.0273143230884,213.55965077792757 541.5273143230883,214.22952375900527 539.6971873041659,216.0596507779274 539.027314323088,218.5596507779274 539.6971873041657,221.05965077792746 541.5273143230878,222.88977779684976 544.0273143230878,223.5596507779277" stroke="#00f" stroke-linecap="round" stroke-linejoin="round"/><polyline fill="none" points="460.48418579635774,197.68049572278707 462.9841857963578,197.01062274170937 464.81431281528006,195.18049572278724 465.48418579635796,192.68049572278724 464.81431281528023,190.18049572278719 462.9841857963581,188.3503687038649 460.4841857963581,187.68049572278696 457.984185796358,188.35036870386466 456.15405877743575,190.1804957227868 455.48418579635785,192.6804957227868 456.1540587774356,195.18049572278684 457.98418579635774,197.01062274170914 460.48418579635774,197.68049572278707" stroke="#ffa500" stroke-linecap="round" stroke-linejoin="round"/><polyline fill="none" points="584.1627611600431,284.08951338018556 586.6627611600433,283.41964039910783 588.4928881789656,281.5895133801857 589.1627611600435,279.0895133801857 588.4928881789658,276.5895133801856 586.6627611600437,274.75938636126335 584.1627611600437,274.08951338018545 581.6627611600436,274.7593863612632 579.8326341411213,276.58951338018534 579.1627611600434,279.08951338018534 579.832634141121,281.5895133801854 581.6627611600431,283.41964039910766 584.1627611600431,284.08951338018556" stroke="#00f" stroke-linecap="round" stroke-linejoin="round"/><polyline fill="none" points="555.8075580620982,175.94819302991922 558.3075580620983,175.27832004884152 560.1376850810207,173.4481930299194 560.8075580620986,170.9481930299194 560.1376850810209,168.44819302991934 558.3075580620988,166.61806601099704 555.8075580620988,165.9481930299191 553.3075580620987,166.6180660109968 551.4774310431764,168.44819302991894 550.8075580620985,170.94819302991894 551.4774310431761,173.448193029919 553.3075580620982,175.2783200488413 555.8075580620982,175.94819302991922" stroke="#008000" stroke-linecap="round" stroke-linejoin="round"/><polyline fill="none" points="-640.5929360302073,278.48075394085714 -638.0929360302072,277.81088095977947 -636.2628090112848,275.9807539408573 -635.5929360302069,273.4807539408573 -636.2628090112846,270.98075394085726 -638.0929360302067,269.15062692193493 -640.5929360302067,268.480753940857 -643.0929360302068,269.1506269219347 -644.9230630491292,270.98075394085686 -645.592936030207,273.48075394085686 -644.9230630491294,275.9807539408569 -643.0929360302073,277.81088095977924 -640.5929360302073,278.4807539408572" stroke="#ffa500" stroke-linecap="round" stroke-linejoin="round"/><polyline fill="none" points="473.91605734473995,143.256982387426 476.41605734474,142.5871094063483 478.24618436366234,140.75698238742618 478.9160573447403,138.25698238742618 478.2461843636626,135.75698238742612 476.41605734474047,133.92685536850382 473.91605734474047,133.2569823874259 471.4160573447404,133.9268553685036 469.5859303258181,135.75698238742572 468.9160573447401,138.25698238742572 469.5859303258178,140.75698238742578 471.41605734473995,142.58710940634808 473.91605734473995,143.256982387426" stroke="#ffa500" stroke-linecap="round" stroke-linejoin="round"/><polyline fill="none" points="619.1305718434791,315.28197879624804 621.6305718434792,314.61210581517037 623.4606988624015,312.7819787962482 624.1305718434794,310.2819787962482 623.4606988624017,307.78197879624815 621.6305718434796,305.9518517773258 619.1305718434796,305.28197879624787 616.6305718434795,305.95185177732554 614.8004448245572,307.7819787962477 614.1305718434793,310.2819787962477 614.800444824557,312.78197879624776 616.6305718434791,314.6121058151701 619.1305718434791,315.28197879624804" stroke="#00f" stroke-linecap="round" stroke-linejoin="round"/><polyline fill="none" points="493.6323933158365,227.29474618371705 496.13239331583657,226.62487320263935 497.9625203347589,224.79474618371722 498.63239331583685,222.29474618371722 497.9625203347592,219.79474618371717 496.132393315837,217.96461916479487 493.632393315837,217.29474618371694 491.13239331583696,217.96461916479464 489.30226629691464,219.79474618371677 488.6323933158367,222.29474618371677 489.30226629691435,224.79474618371682 491.1323933158365,226.62487320263912 493.6323933158365,227.29474618371705" stroke="#00f" stroke-linecap="round" stroke-linejoin="round"/><polyline fill="none" points="455.82035839639394,176.66409557399578 458.320358396394,175.99422259291808 460.1504854153163,174.16409557399595 460.8203583963943,171.66409557399595 460.1504854153166,169.1640955739959 458.32035839639445,167.3339685550736 455.82035839639445,166.66409557399567 453.3203583963944,167.33396855507337 451.49023137747207,169.1640955739955 450.8203583963941,171.6640955739955 451.4902313774718,174.16409557399555 453.32035839639394,175.99422259291785 455.82035839639394,176.66409557399578" stroke="#ffa500" stroke-linecap="round" stroke-linejoin="round"/><polyline fill="none" points="649.5684147459739,281.2088791412317 652.068414745974,280.53900616015403 653.8985417648963,278.70887914123193 654.5684147459742,276.20887914123193 653.8985417648965,273.7088791412319 652.0684147459745,271.87875212230955 649.5684147459745,271.2088791412316 647.0684147459743,271.87875212230927 645.238287727052,273.70887914123136 644.5684147459741,276.20887914123136 645.2382877270518,278.7088791412314 647.0684147459739,280.53900616015375 649.5684147459739,281.2088791412317" stroke="#00f" stroke-linecap="round" stroke-linejoin="round"/><polyline fill="none" points="458.2025720463066,291.06119874562853 460.70257204630667,290.39132576455086 462.532699065229,288.56119874562876 463.20257204630695,286.06119874562876 462.5326990652293,283.5611987456287 460.7025720463072,281.7310717267064 458.2025720463072,281.0611987456284 455.7025720463071,281.7310717267061 453.8724450273848,283.5611987456282 453.20257204630684,286.0611987456282 453.8724450273845,288.56119874562825 455.7025720463066,290.3913257645506 458.2025720463066,291.06119874562853" stroke="#ffa500" stroke-linecap="round" stroke-linejoin="round"/><polyline fill="none" points="553.4085300577079,292.1314517540181 555.908530057708,291.4615787729404 557.7386570766304,289.6314517540183 558.4085300577083,287.1314517540183 557.7386570766306,284.63145175401826 555.9085300577085,282.80132473509593 553.4085300577085,282.131451754018 550.9085300577084,282.80132473509565 549.0784030387861,284.63145175401775 548.4085300577082,287.13145175401775 549.0784030387858,289.6314517540178 550.9085300577079,291.46157877294013 553.4085300577079,292.1314517540181" stroke="#ffa500" stroke-linecap="round" stroke-linejoin="round"/><polyline fill="none" points="553.7242117837842,315.1981619791195 556.2242117837843,314.52828899804183 558.0543388027066,312.69816197911973 558.7242117837845,310.19816197911973 558.0543388027069,307.6981619791197 556.2242117837848,305.86803496019735 553.7242117837848,305.1981619791194 551.2242117837847,305.86803496019706 549.3940847648623,307.69816197911916 548.7242117837844,310.19816197911916 549.3940847648621,312.6981619791192 551.2242117837842,314.52828899804155 553.7242117837842,315.1981619791195" stroke="#ffa500" stroke-linecap="round" stroke-linejoin="round"/><polyline fill="none" points="507.4796060764681,232.71440006185813 509.97960607646814,232.04452708078045 511.80973309539047,230.21440006185833 512.4796060764684,227.71440006185833 511.8097330953907,225.21440006185824 509.9796060764686,223.38427304293592 507.4796060764686,222.71440006185796 504.97960607646854,223.38427304293563 503.1494790575462,225.21440006185776 502.47960607646826,227.71440006185776 503.14947905754593,230.21440006185784 504.97960607646803,232.04452708078017 507.47960607646803,232.71440006185813" stroke="#00f" stroke-linecap="round" stroke-linejoin="round"/><polyline fill="none" points="617.4967301313984,241.27861373909292 619.9967301313985,240.60874075801524 621.8268571503208,238.77861373909312 622.4967301313987,236.27861373909312 621.8268571503211,233.77861373909303 619.996730131399,231.9484867201707 617.496730131399,231.27861373909275 614.9967301313989,231.94848672017042 613.1666031124765,233.77861373909255 612.4967301313986,236.27861373909255 613.1666031124763,238.77861373909263 614.9967301313984,240.60874075801496 617.4967301313984,241.27861373909292" stroke="#00f" stroke-linecap="round" stroke-linejoin="round"/><polyline fill="none" points="-669.7272513591877,240.59310888357658 -667.2272513591876,239.9232359024989 -665.3971243402652,238.09310888357678 -664.7272513591872,235.59310888357678 -665.3971243402649,233.0931088835767 -667.227251359187,231.26298186465436 -669.727251359187,230.5931088835764 -672.2272513591871,231.26298186465408 -674.0573783781094,233.0931088835762 -674.7272513591874,235.5931088835762 -674.0573783781098,238.0931088835763 -672.2272513591877,239.92323590249862 -669.7272513591877,240.59310888357658" stroke="#ffa500" stroke-linecap="round" stroke-linejoin="round"/><polyline fill="none" points="474.13096646950993,184.390091634384 476.63096646951,183.72021865330632 478.4610934884323,181.8900916343842 479.13096646951027,179.3900916343842 478.4610934884326,176.8900916343841 476.6309664695105,175.05996461546178 474.1309664695105,174.39009163438382 471.63096646951044,175.0599646154615 469.8008394505881,176.89009163438362 469.13096646951016,179.39009163438362 469.80083945058783,181.8900916343837 471.63096646950993,183.72021865330603 474.13096646950993,184.390091634384" stroke="#ffa500" stroke-linecap="round" stroke-linejoin="round"/><polyline fill="none" points="-631.1492261127624,259.7946048237055 -628.6492261127623,259.12473184262785 -626.81909909384,257.29460482370575 -626.149226112762,254.79460482370575 -626.8190990938397,252.29460482370567 -628.6492261127618,250.46447780478334 -631.1492261127618,249.79460482370538 -633.6492261127619,250.46447780478306 -635.4793531316842,252.29460482370519 -636.1492261127622,254.79460482370519 -635.4793531316845,257.29460482370524 -633.6492261127624,259.12473184262757 -631.1492261127624,259.7946048237055" stroke="#ffa500" stroke-linecap="round" stroke-linejoin="round"/><polyline fill="none" points="556.9073112766196,150.349670742451 559.4073112766197,149.67979776137332 561.237438295542,147.8496707424512 561.90731127662,145.3496707424512 561.2374382955423,142.8496707424511 559.4073112766202,141.01954372352878 556.9073112766202,140.34967074245083 554.4073112766201,141.0195437235285 552.5771842576978,142.84967074245063 551.9073112766198,145.34967074245063 552.5771842576975,147.8496707424507 554.4073112766196,149.67979776137304 556.9073112766196,150.349670742451" stroke="#ffa500" stroke-linecap="round" stroke-linejoin="round"/><polyline fill="none" points="696.832911967957,235.2578136169233 699.3329119679571,234.58794063584563 701.1630389868794,232.7578136169235 701.8329119679574,230.2578136169235 701.1630389868798,227.7578136169234 699.3329119679577,225.9276865980011 696.8329119679577,225.25781361692313 694.3329119679576,225.9276865980008 692.5027849490352,227.75781361692293 691.8329119679572,230.25781361692293 692.5027849490349,232.75781361692302 694.332911967957,234.58794063584534 696.832911967957,235.2578136169233" stroke="#ffa500" stroke-linecap="round" stroke-linejoin="round"/><polyline fill="none" points="504.3134422785677,179.9737722413687 506.8134422785678,179.30389926029102 508.6435692974901,177.47377224136892 509.31344227856806,174.97377224136892 508.6435692974904,172.47377224136883 506.8134422785683,170.6436452224465 504.3134422785683,169.97377224136852 501.81344227856823,170.6436452224462 499.9833152596459,172.4737722413683 499.31344227856795,174.9737722413683 499.9833152596456,177.47377224136838 501.8134422785677,179.3038992602907 504.3134422785677,179.9737722413687" stroke="#ffa500" stroke-linecap="round" stroke-linejoin="round"/><polyline fill="none" points="655.6295576403719,329.50035665184043 658.129557640372,328.83048367076276 659.9596846592943,327.00035665184066 660.6295576403724,324.50035665184066 659.9596846592947,322.00035665184055 658.1295576403726,320.1702296329182 655.6295576403726,319.50035665184026 653.1295576403725,320.17022963291794 651.2994306214501,322.00035665184004 650.6295576403721,324.50035665184004 651.2994306214498,327.00035665184015 653.1295576403719,328.8304836707625 655.6295576403719,329.50035665184043" stroke="#ffa500" stroke-linecap="round" stroke-linejoin="round"/><polyline fill="none" points="568.7677339120867,295.09362315215145 571.2677339120868,294.4237501710738 573.0978609310091,292.5936231521517 573.7677339120871,290.0936231521517 573.0978609310094,287.59362315215157 571.2677339120874,285.76349613322924 568.7677339120874,285.0936231521513 566.2677339120872,285.76349613322895 564.4376068931649,287.59362315215105 563.7677339120869,290.09362315215105 564.4376068931646,292.59362315215117 566.2677339120867,294.4237501710735 568.7677339120867,295.09362315215145" stroke="#ffa500" stroke-linecap="round" stroke-linejoin="round"/><polyline fill="none" points="545.8326221314808,262.07738361835817 548.3326221314809,261.4075106372805 550.1627491504032,259.5773836183584 550.8326221314812,257.0773836183584 550.1627491504036,254.5773836183583 548.3326221314815,252.74725659943596 545.8326221314815,252.07738361835797 543.3326221314813,252.74725659943562 541.502495112559,254.57738361835771 540.832622131481,257.0773836183577 541.5024951125587,259.5773836183578 543.3326221314808,261.40751063728015 545.8326221314808,262.0773836183581" stroke="#ffa500" stroke-linecap="round" stroke-linejoin="round"/><polyline fill="none" points="639.2061246955363,255.7615102956577 641.7061246955365,255.09163731458005 643.5362517144588,253.26151029565796 644.2061246955368,250.76151029565796 643.5362517144591,248.26151029565787 641.706124695537,246.43138327673552 639.206124695537,245.76151029565753 636.7061246955369,246.43138327673518 634.8759976766146,248.26151029565727 634.2061246955366,250.76151029565727 634.8759976766142,253.26151029565736 636.7061246955363,255.0916373145797 639.2061246955363,255.7615102956577" stroke="#00f" stroke-linecap="round" stroke-linejoin="round"/><polyline fill="none" points="517.0264109591762,200.48728723505403 519.5264109591764,199.81741425397638 521.3565379780987,197.98728723505428 522.0264109591767,195.48728723505428 521.356537978099,192.9872872350542 519.5264109591769,191.15716021613184 517.0264109591769,190.48728723505386 514.5264109591768,191.1571602161315 512.6962839402545,192.9872872350536 512.0264109591765,195.4872872350536 512.6962839402541,197.98728723505369 514.5264109591762,199.81741425397604 517.0264109591762,200.48728723505403" stroke="#00f" stroke-linecap="round" stroke-linejoin="round"/><polyline fill="none" points="561.9554659607471,276.8587158704438 564.4554659607472,276.18884288936613 566.2855929796696,274.35871587044403 566.9554659607476,271.85871587044403 566.2855929796699,269.3587158704439 564.4554659607478,267.5285888515216 561.9554659607478,266.8587158704436 559.4554659607477,267.52858885152125 557.6253389418254,269.35871587044335 556.9554659607473,271.85871587044335 557.625338941825,274.35871587044346 559.4554659607471,276.1888428893658 561.9554659607471,276.8587158704438" stroke="#ffa500" stroke-linecap="round" stroke-linejoin="round"/><polyline fill="none" points="595.7327020806165,343.0204574735517 598.2327020806166,342.350584492474 600.0628290995389,340.5204574735519 600.732702080617,338.0204574735519 600.0628290995393,335.5204574735518 598.2327020806172,333.6903304546295 595.7327020806172,333.02045747355146 593.2327020806171,333.69033045462913 591.4025750616947,335.52045747355123 590.7327020806167,338.02045747355123 591.4025750616944,340.52045747355135 593.2327020806165,342.35058449247373 595.7327020806165,343.02045747355174" stroke="#ffa500" stroke-linecap="round" stroke-linejoin="round"/><polyline fill="none" points="-671.3670498526054,260.8253795917399 -668.8670498526053,260.1555066106622 -667.036922833683,258.3253795917401 -666.367049852605,255.8253795917401 -667.0369228336826,253.32537959174002 -668.8670498526047,251.49525257281766 -671.3670498526047,250.82537959173968 -673.8670498526049,251.49525257281732 -675.6971768715272,253.32537959173942 -676.3670498526052,255.82537959173942 -675.6971768715275,258.32537959173953 -673.8670498526054,260.1555066106619 -671.3670498526054,260.82537959173993" stroke="#ffa500" stroke-linecap="round" stroke-linejoin="round"/><polyline fill="none" points="-651.0486423808456,262.1502643829138 -648.5486423808455,261.4803914018362 -646.7185153619232,259.6502643829141 -646.0486423808452,257.1502643829141 -646.7185153619229,254.650264382914 -648.548642380845,252.82013736399165 -651.048642380845,252.15026438291366 -653.5486423808451,252.8201373639913 -655.3787693997674,254.6502643829134 -656.0486423808454,257.1502643829134 -655.3787693997677,259.6502643829135 -653.5486423808456,261.4803914018359 -651.0486423808456,262.1502643829139" stroke="#ffa500" stroke-linecap="round" stroke-linejoin="round"/><polyline fill="none" points="605.2183708383516,246.00325165261884 607.7183708383517,245.3333786715412 609.548497857274,243.5032516526191 610.218370838352,241.0032516526191 609.5484978572744,238.503251652619 607.7183708383523,236.67312463369666 605.2183708383523,236.00325165261867 602.7183708383521,236.67312463369632 600.8882438194298,238.50325165261842 600.2183708383518,241.00325165261842 600.8882438194295,243.5032516526185 602.7183708383516,245.33337867154086 605.2183708383516,246.00325165261884" stroke="#ffa500" stroke-linecap="round" stroke-linejoin="round"/><polyline fill="none" points="568.1446803960328,207.89086374934365 570.6446803960329,207.220990768266 572.4748074149552,205.3908637493439 573.1446803960332,202.8908637493439 572.4748074149555,200.39086374934382 570.6446803960334,198.56073673042147 568.1446803960334,197.89086374934345 565.6446803960333,198.5607367304211 563.814553377111,200.3908637493432 563.144680396033,202.8908637493432 563.8145533771107,205.39086374934328 565.6446803960328,207.22099076826564 568.1446803960328,207.89086374934365" stroke="#008000" stroke-linecap="round" stroke-linejoin="round"/><polyline fill="none" points="672.0533598944637,231.5350991131621 674.5533598944638,230.86522613208444 676.3834869133862,229.03509911316235 677.0533598944642,226.53509911316235 676.3834869133865,224.03509911316223 674.5533598944644,222.20497209423988 672.0533598944644,221.53509911316186 669.5533598944643,222.2049720942395 667.723232875542,224.0350991131616 667.0533598944639,226.5350991131616 667.7232328755416,229.03509911316172 669.5533598944637,230.86522613208408 672.0533598944637,231.5350991131621" stroke="#ffa500" stroke-linecap="round" stroke-linejoin="round"/><polyline fill="none" points="501.2456128404723,160.16782399392935 503.7456128404724,159.4979510128517 505.5757398593948,157.6678239939296 506.2456128404728,155.1678239939296 505.5757398593952,152.6678239939295 503.7456128404731,150.83769697500713 501.2456128404731,150.16782399392912 498.745612840473,150.83769697500676 496.9154858215506,152.66782399392886 496.2456128404726,155.16782399392886 496.9154858215502,157.66782399392898 498.7456128404723,159.49795101285136 501.2456128404723,160.16782399392937" stroke="#ffa500" stroke-linecap="round" stroke-linejoin="round"/><polyline fill="none" points="575.5328307571293,342.333459310918 578.0328307571294,341.66358632984037 579.8629577760518,339.8334593109183 580.5328307571298,337.3334593109183 579.8629577760521,334.83345931091816 578.03283075713,333.0033322919958 575.53283075713,332.33345931091776 573.0328307571299,333.0033322919954 571.2027037382076,334.8334593109175 570.5328307571295,337.3334593109175 571.2027037382072,339.8334593109176 573.0328307571293,341.66358632984 575.5328307571293,342.333459310918" stroke="#ffa500" stroke-linecap="round" stroke-linejoin="round"/><polyline fill="none" points="674.1244941341519,325.0414241307807 676.624494134152,324.37155114970307 678.4546211530743,322.54142413078097 679.1244941341523,320.04142413078097 678.4546211530746,317.54142413078085 676.6244941341525,315.71129711185847 674.1244941341525,315.04142413078046 671.6244941341524,315.7112971118581 669.7943671152301,317.5414241307802 669.1244941341521,320.0414241307802 669.7943671152298,322.5414241307803 671.6244941341519,324.37155114970267 674.1244941341519,325.0414241307807" stroke="#ffa500" stroke-linecap="round" stroke-linejoin="round"/><polyline fill="none" points="599.7513266135303,269.16601744604304 602.2513266135304,268.4961444649654 604.0814536324527,266.6660174460433 604.7513266135308,264.1660174460433 604.0814536324531,261.6660174460432 602.251326613531,259.83589042712083 599.751326613531,259.1660174460428 597.2513266135309,259.83589042712043 595.4211995946085,261.66601744604253 594.7513266135305,264.16601744604253 595.4211995946082,266.66601744604264 597.2513266135303,268.496144464965 599.7513266135303,269.16601744604304" stroke="#ffa500" stroke-linecap="round" stroke-linejoin="round"/><polyline fill="none" points="611.0161528668306,302.30305906240375 613.5161528668307,301.63318608132613 615.346279885753,299.80305906240403 616.016152866831,297.30305906240403 615.3462798857533,294.8030590624039 613.5161528668312,292.97293204348153 611.0161528668312,292.3030590624035 608.5161528668311,292.97293204348114 606.6860258479088,294.80305906240324 606.0161528668308,297.30305906240324 606.6860258479085,299.80305906240335 608.5161528668306,301.63318608132573 611.0161528668306,302.30305906240375" stroke="#ffa500" stroke-linecap="round" stroke-linejoin="round"/><polyline fill="none" points="551.6998409854757,202.91380637412163 554.1998409854758,202.24393339304402 556.0299680043981,200.41380637412192 556.6998409854762,197.91380637412192 556.0299680043985,195.4138063741218 554.1998409854764,193.58367935519942 551.6998409854764,192.9138063741214 549.1998409854763,193.58367935519902 547.369713966554,195.41380637412112 546.6998409854759,197.91380637412112 547.3697139665536,200.41380637412124 549.1998409854757,202.24393339304362 551.6998409854757,202.91380637412163" stroke="#00f" stroke-linecap="round" stroke-linejoin="round"/><polyline fill="none" points="673.6227877054748,305.1664620987991 676.1227877054749,304.4965891177215 677.9529147243973,302.6664620987994 678.6227877054753,300.1664620987994 677.9529147243976,297.6664620987993 676.1227877054755,295.8363350798769 673.6227877054755,295.1664620987989 671.1227877054754,295.8363350798765 669.2926606865531,297.6664620987986 668.622787705475,300.1664620987986 669.2926606865527,302.6664620987987 671.1227877054748,304.4965891177211 673.6227877054748,305.1664620987991" stroke="#ffa500" stroke-linecap="round" stroke-linejoin="round"/><polyline fill="none" points="600.0381457160431,192.05619675845077 602.5381457160432,191.38632377737315 604.3682727349657,189.55619675845105 605.0381457160437,187.05619675845105 604.3682727349661,184.55619675845094 602.538145716044,182.72606973952855 600.038145716044,182.05619675845054 597.5381457160439,182.72606973952816 595.7080186971215,184.55619675845023 595.0381457160435,187.05619675845023 595.708018697121,189.55619675845034 597.5381457160431,191.38632377737272 600.0381457160431,192.05619675845074" stroke="#008000" stroke-linecap="round" stroke-linejoin="round"/><polyline fill="none" points="691.6046321403458,279.44576176706096 694.1046321403459,278.77588878598334 695.9347591592683,276.94576176706124 696.6046321403463,274.44576176706124 695.9347591592688,271.94576176706113 694.1046321403467,270.11563474813875 691.6046321403467,269.44576176706073 689.1046321403466,270.11563474813835 687.2745051214241,271.94576176706045 686.6046321403461,274.44576176706045 687.2745051214237,276.94576176706056 689.1046321403458,278.77588878598294 691.6046321403458,279.44576176706096" stroke="#ffa500" stroke-linecap="round" stroke-linejoin="round"/><polyline fill="none" points="585.3377886764655,302.55725096455245 587.8377886764656,301.88737798347483 589.667915695388,300.05725096455274 590.3377886764661,297.55725096455274 589.6679156953885,295.0572509645526 587.8377886764664,293.22712394563024 585.3377886764664,292.5572509645522 582.8377886764663,293.22712394562984 581.0076616575438,295.05725096455194 580.3377886764658,297.55725096455194 581.0076616575434,300.05725096455205 582.8377886764655,301.88737798347444 585.3377886764655,302.55725096455245" stroke="#00f" stroke-linecap="round" stroke-linejoin="round"/><polyline fill="none" points="583.2448394376827,204.2753050503149 585.7448394376828,203.60543206923728 587.5749664566052,201.7753050503152 588.2448394376833,199.2753050503152 587.5749664566057,196.7753050503151 585.7448394376836,194.94517803139271 583.2448394376836,194.27530505031467 580.7448394376835,194.9451780313923 578.914712418761,196.77530505031436 578.244839437683,199.27530505031436 578.9147124187606,201.77530505031447 580.7448394376827,203.60543206923685 583.2448394376827,204.2753050503149" stroke="#008000" stroke-linecap="round" stroke-linejoin="round"/><polyline fill="none" points="675.2103509163279,267.3847302422304 677.710350916328,266.71485726115276 679.5404779352505,264.88473024223066 680.2103509163285,262.38473024223066 679.5404779352509,259.88473024223055 677.7103509163288,258.05460322330816 675.2103509163288,257.38473024223015 672.7103509163287,258.05460322330777 670.8802238974063,259.88473024222986 670.2103509163283,262.38473024222986 670.8802238974058,264.88473024223 672.7103509163279,266.71485726115236 675.2103509163279,267.3847302422304" stroke="#ffa500" stroke-linecap="round" stroke-linejoin="round"/><polyline fill="none" points="634.0751092133052,303.6876346489545 636.5751092133053,303.01776166787687 638.4052362322277,301.18763464895477 639.0751092133057,298.68763464895477 638.4052362322282,296.18763464895466 636.5751092133061,294.3575076300323 634.0751092133061,293.68763464895426 631.575109213306,294.3575076300319 629.7449821943835,296.187634648954 629.0751092133055,298.687634648954 629.744982194383,301.1876346489541 631.5751092133052,303.01776166787647 634.0751092133052,303.6876346489545" stroke="#00f" stroke-linecap="round" stroke-linejoin="round"/><polyline fill="none" points="531.0130794321481,212.30467874186385 533.5130794321482,211.63480576078624 535.3432064510706,209.80467874186417 536.0130794321486,207.30467874186417 535.3432064510711,204.80467874186405 533.513079432149,202.97455172294164 531.013079432149,202.3046787418636 528.5130794321489,202.9745517229412 526.6829524132264,204.80467874186326 526.0130794321484,207.30467874186326 526.682952413226,209.80467874186337 528.5130794321481,211.63480576078578 531.0130794321481,212.30467874186382" stroke="#00f" stroke-linecap="round" stroke-linejoin="round"/><polyline fill="none" points="598.396024758308,324.31198675553964 600.8960247583082,323.642113774462 602.7261517772306,321.8119867555399 603.3960247583086,319.3119867555399 602.726151777231,316.8119867555398 600.896024758309,314.9818597366174 598.396024758309,314.31198675553935 595.8960247583088,314.98185973661697 594.0658977393864,316.81198675553907 593.3960247583084,319.31198675553907 594.065897739386,321.8119867555392 595.896024758308,323.64211377446156 598.396024758308,324.31198675553964" stroke="#ffa500" stroke-linecap="round" stroke-linejoin="round"/><polyline fill="none" points="523.4348048898835,229.83340548370188 525.9348048898836,229.1635325026243 527.764931908806,227.33340548370222 528.434804889884,224.83340548370222 527.7649319088065,222.3334054837021 525.9348048898844,220.5032784647797 523.4348048898844,219.83340548370165 520.9348048898843,220.50327846477924 519.1046778709618,222.3334054837013 518.4348048898838,224.8334054837013 519.1046778709614,227.33340548370143 520.9348048898835,229.16353250262384 523.4348048898835,229.83340548370188" stroke="#ffa500" stroke-linecap="round" stroke-linejoin="round"/><polyline fill="none" points="525.6026749671921,192.92818495476308 528.1026749671922,192.2583119736855 529.9328019861147,190.42818495476342 530.6026749671927,187.92818495476342 529.9328019861151,185.4281849547633 528.102674967193,183.5980579358409 525.602674967193,182.92818495476286 523.1026749671929,183.59805793584044 521.2725479482705,185.42818495476251 520.6026749671925,187.92818495476251 521.27254794827,190.42818495476263 523.1026749671921,192.25831197368504 525.6026749671921,192.92818495476308" stroke="#ffa500" stroke-linecap="round" stroke-linejoin="round"/><polyline fill="none" points="594.6033793566504,287.9316832579576 597.1033793566505,287.26181027688 598.933506375573,285.4316832579579 599.603379356651,282.9316832579579 598.9335063755734,280.4316832579578 597.1033793566513,278.6015562390354 594.6033793566513,277.93168325795733 592.1033793566512,278.60155623903495 590.2732523377288,280.43168325795705 589.6033793566507,282.93168325795705 590.2732523377283,285.43168325795716 592.1033793566504,287.26181027687954 594.6033793566504,287.9316832579576" stroke="#00f" stroke-linecap="round" stroke-linejoin="round"/><polyline fill="none" points="656.0129783928514,272.27766142176773 658.5129783928516,271.6077884406901 660.343105411774,269.7776614217681 661.012978392852,267.2776614217681 660.3431054117744,264.77766142176796 658.5129783928523,262.9475344028456 656.0129783928523,262.2776614217675 653.5129783928522,262.9475344028451 651.6828513739298,264.77766142176716 651.0129783928518,267.27766142176716 651.6828513739293,269.7776614217673 653.5129783928514,271.6077884406897 656.0129783928514,272.2776614217678" stroke="#ffa500" stroke-linecap="round" stroke-linejoin="round"/><polyline fill="none" points="570.0440323846801,228.4287926300038 572.5440323846802,227.75891964892622 574.3741594036027,225.92879263000415 575.0440323846807,223.42879263000415 574.3741594036031,220.928792630004 572.544032384681,219.0986656110816 570.044032384681,218.42879263000353 567.5440323846809,219.09866561108112 565.7139053657585,220.9287926300032 565.0440323846805,223.4287926300032 565.713905365758,225.92879263000333 567.5440323846801,227.75891964892574 570.0440323846801,228.4287926300038" stroke="#00f" stroke-linecap="round" stroke-linejoin="round"/><polyline fill="none" points="460.8259948820438,257.69586693335907 463.3259948820439,257.0259939522815 465.15612190096635,255.19586693335944 465.8259948820444,252.69586693335944 465.15612190096687,250.1958669333593 463.3259948820448,248.3657399144369 460.8259948820448,247.69586693335881 458.3259948820447,248.3657399144364 456.49586786312227,250.19586693335847 455.8259948820442,252.69586693335847 456.49586786312176,255.19586693335862 458.3259948820438,257.02599395228106 460.8259948820438,257.6958669333591" stroke="#00f" stroke-linecap="round" stroke-linejoin="round"/><polyline fill="none" points="524.1897343279587,171.8185368902906 526.6897343279588,171.148663909213 528.5198613468813,169.31853689029094 529.1897343279593,166.81853689029094 528.5198613468817,164.3185368902908 526.6897343279596,162.4884098713684 524.1897343279596,161.81853689029032 521.6897343279595,162.4884098713679 519.8596073090371,164.31853689028998 519.1897343279591,166.81853689028998 519.8596073090366,169.31853689029012 521.6897343279587,171.14866390921253 524.1897343279587,171.8185368902906" stroke="#ffa500" stroke-linecap="round" stroke-linejoin="round"/><polyline fill="none" points="576.0323781570543,183.4824453624279 578.5323781570544,182.81257238135032 580.3625051759768,180.98244536242825 581.0323781570548,178.48244536242825 580.3625051759773,175.9824453624281 578.5323781570552,174.1523183435057 576.0323781570552,173.48244536242763 573.5323781570551,174.15231834350521 571.7022511381326,175.98244536242728 571.0323781570546,178.48244536242728 571.7022511381322,180.98244536242743 573.5323781570543,182.81257238134984 576.0323781570543,183.4824453624279" stroke="#ffa500" stroke-linecap="round" stroke-linejoin="round"/><polyline fill="none" points="634.8461435781239,276.96175157244335 637.346143578124,276.2918785913658 639.1762705970465,274.46175157244375 639.8461435781245,271.96175157244375 639.1762705970469,269.46175157244363 637.3461435781248,267.6316245535212 634.8461435781248,266.9617515724431 632.3461435781247,267.6316245535207 630.5160165592023,269.4617515724427 629.8461435781243,271.9617515724427 630.5160165592018,274.46175157244284 632.3461435781239,276.2918785913653 634.8461435781239,276.96175157244335" stroke="#ffa500" stroke-linecap="round" stroke-linejoin="round"/><polyline fill="none" points="655.0759615811638,310.3932432781499 657.5759615811639,309.72337029707234 659.4060886000864,307.8932432781503 660.0759615811645,305.3932432781503 659.406088600087,302.8932432781502 657.5759615811648,301.06311625922774 655.0759615811648,300.39324327814967 652.5759615811647,301.06311625922723 650.7458345622423,302.89324327814927 650.0759615811642,305.39324327814927 650.7458345622417,307.8932432781494 652.5759615811638,309.7233702970718 655.0759615811638,310.3932432781499" stroke="#ffa500" stroke-linecap="round" stroke-linejoin="round"/><polyline fill="none" points="462.88306638123424,271.61236461008497 465.38306638123436,270.9424916290074 467.2131934001568,269.11236461008536 467.88306638123487,266.61236461008536 467.2131934001573,264.11236461008525 465.38306638123527,262.2822375911628 462.88306638123527,261.61236461008474 460.38306638123515,262.2822375911623 458.5529393623127,264.11236461008434 457.88306638123464,266.61236461008434 458.5529393623122,269.11236461008446 460.38306638123424,270.9424916290069 462.88306638123424,271.61236461008497" stroke="#ffa500" stroke-linecap="round" stroke-linejoin="round"/><polyline fill="none" points="614.6002867183925,345.8346405449575 617.1002867183926,345.16476756387993 618.930413737315,343.3346405449579 619.6002867183931,340.8346405449579 618.9304137373156,338.3346405449578 617.1002867183935,336.50451352603534 614.6002867183935,335.83464054495727 612.1002867183934,336.5045135260348 610.2701596994709,338.33464054495687 609.6002867183928,340.83464054495687 610.2701596994704,343.334640544957 612.1002867183925,345.1647675638794 614.6002867183925,345.8346405449575" stroke="#ffa500" stroke-linecap="round" stroke-linejoin="round"/><polyline fill="none" points="543.7010104673788,168.66813838824717 546.2010104673789,167.9982654071696 548.0311374863013,166.16813838824754 548.7010104673794,163.66813838824754 548.0311374863019,161.1681383882474 546.2010104673798,159.33801136932496 543.7010104673798,158.6681383882469 541.2010104673797,159.33801136932445 539.3708834484572,161.16813838824652 538.7010104673791,163.66813838824652 539.3708834484567,166.16813838824666 541.2010104673788,167.9982654071691 543.7010104673788,168.66813838824717" stroke="#00f" stroke-linecap="round" stroke-linejoin="round"/><polyline fill="none" points="682.8540279634834,249.42418501586303 685.3540279634835,248.75431203478547 687.184154982406,246.9241850158634 687.8540279634841,244.4241850158634 687.1841549824065,241.92418501586326 685.3540279634844,240.09405799694082 682.8540279634844,239.42418501586275 680.3540279634843,240.0940579969403 678.5239009445619,241.92418501586235 677.8540279634838,244.42418501586235 678.5239009445613,246.9241850158625 680.3540279634834,248.75431203478493 682.8540279634834,249.42418501586303" stroke="#ffa500" stroke-linecap="round" stroke-linejoin="round"/><polyline fill="none" points="556.9156980155693,241.49157116902413 559.4156980155694,240.82169818794657 561.2458250344919,238.99157116902452 561.91569801557,236.49157116902452 561.2458250344924,233.99157116902438 559.4156980155703,232.16144415010194 556.9156980155703,231.49157116902384 554.4156980155702,232.1614441501014 552.5855709966478,233.99157116902344 551.9156980155697,236.49157116902344 552.5855709966472,238.9915711690236 554.4156980155693,240.82169818794603 556.9156980155693,241.49157116902413" stroke="#ffa500" stroke-linecap="round" stroke-linejoin="round"/><polyline fill="none" points="636.8456185504872,322.14915121920063 639.3456185504873,321.4792782381231 641.1757455694097,319.64915121920103 641.8456185504879,317.14915121920103 641.1757455694103,314.64915121920086 639.3456185504882,312.8190242002784 636.8456185504882,312.14915121920035 634.3456185504881,312.8190242002779 632.5154915315657,314.64915121919995 631.8456185504875,317.14915121919995 632.5154915315651,319.6491512192001 634.3456185504872,321.47927823812256 636.8456185504872,322.14915121920063" stroke="#ffa500" stroke-linecap="round" stroke-linejoin="round"/><polyline fill="none" points="593.8299611256635,220.47750057299675 596.3299611256637,219.80762759191919 598.1600881445861,217.97750057299714 598.8299611256642,215.47750057299714 598.1600881445867,212.977500572997 596.3299611256646,211.14737355407456 593.8299611256646,210.47750057299646 591.3299611256645,211.14737355407402 589.499834106742,212.97750057299606 588.8299611256639,215.47750057299606 589.4998341067414,217.9775005729962 591.3299611256635,219.80762759191865 593.8299611256635,220.47750057299675" stroke="#008000" stroke-linecap="round" stroke-linejoin="round"/><polyline fill="none" points="509.9378842419092,216.9956677960126 512.4378842419094,216.32579481493505 514.2680112608318,214.495667796013 514.93788424191,211.995667796013 514.2680112608324,209.49566779601287 512.4378842419103,207.66554077709043 509.9378842419103,206.99566779601233 507.4378842419101,207.6655407770899 505.6077572229877,209.49566779601193 504.9378842419096,211.99566779601193 505.6077572229872,214.49566779601207 507.4378842419092,216.3257948149345 509.9378842419092,216.9956677960126" stroke="#ffa500" stroke-linecap="round" stroke-linejoin="round"/><polyline fill="none" points="555.1276382351831,219.55577549964337 557.6276382351832,218.8859025185658 559.4577652541057,217.05577549964377 560.1276382351838,214.55577549964377 559.4577652541062,212.05577549964363 557.6276382351841,210.2256484807212 555.1276382351841,209.5557754996431 552.627638235184,210.22564848072065 550.7975112162616,212.0557754996427 550.1276382351834,214.5557754996427 550.797511216261,217.05577549964283 552.6276382351831,218.88590251856527 555.1276382351831,219.55577549964337" stroke="#00f" stroke-linecap="round" stroke-linejoin="round"/><line fill="none" stroke="#000" stroke-linecap="round" x1="596.7098068174234" x2="600.0381457160431" y1="178.9062393783251" y2="187.05619675845077"/><line fill="none" stroke="#000" stroke-linecap="round" x1="596.7098068174234" x2="583.2448394376827" y1="178.9062393783251" y2="199.2753050503149"/><line fill="none" stroke="#000" stroke-linecap="round" x1="596.7098068174234" x2="598.2046051664464" y1="178.9062393783251" y2="198.80895540085658"/><line fill="none" stroke="#000" stroke-linecap="round" x1="596.7098068174234" x2="555.0879926134318" y1="178.9062393783251" y2="183.84016669191288"/><line fill="none" stroke="#000" stroke-linecap="round" x1="596.7098068174234" x2="617.4967301313984" y1="178.9062393783251" y2="236.27861373909292"/><line fill="none" stroke="#000" stroke-linecap="round" x1="550.7635668427739" x2="598.2046051664464" y1="190.42562586370258" y2="198.80895540085658"/><line fill="none" stroke="#000" stroke-linecap="round" x1="550.7635668427739" x2="555.0879926134318" y1="190.42562586370258" y2="183.84016669191288"/><line fill="none" stroke="#000" stroke-linecap="round" x1="550.7635668427739" x2="531.0130794321481" y1="190.42562586370258" y2="207.30467874186385"/><line fill="none" stroke="#000" stroke-linecap="round" x1="550.7635668427739" x2="504.80681895808283" y1="190.42562586370258" y2="193.81966724046188"/><line fill="none" stroke="#000" stroke-linecap="round" x1="550.7635668427739" x2="576.0323781570543" y1="190.42562586370258" y2="178.4824453624279"/><line fill="none" stroke="#000" stroke-linecap="round" x1="598.2046051664464" x2="593.8299611256635" y1="198.80895540085658" y2="215.47750057299675"/><line fill="none" stroke="#000" stroke-linecap="round" x1="598.2046051664464" x2="550.7635668427739" y1="198.80895540085658" y2="190.42562586370258"/><line fill="none" stroke="#000" stroke-linecap="round" x1="598.2046051664464" x2="555.8075580620982" y1="198.80895540085658" y2="170.94819302991922"/><line fill="none" stroke="#000" stroke-linecap="round" x1="598.2046051664464" x2="600.0381457160431" y1="198.80895540085658" y2="187.05619675845077"/><line fill="none" stroke="#000" stroke-linecap="round" x1="598.2046051664464" x2="583.2448394376827" y1="198.80895540085658" y2="199.2753050503149"/><line fill="none" stroke="#000" stroke-linecap="round" x1="512.3993080055458" x2="543.7010104673788" y1="142.60502834513983" y2="163.66813838824717"/><line fill="none" stroke="#000" stroke-linecap="round" x1="512.3993080055458" x2="555.8075580620982" y1="142.60502834513983" y2="170.94819302991922"/><line fill="none" stroke="#000" stroke-linecap="round" x1="512.3993080055458" x2="520.3845481694109" y1="142.60502834513983" y2="153.50075374474198"/><line fill="none" stroke="#000" stroke-linecap="round" x1="512.3993080055458" x2="473.2858830920246" y1="142.60502834513983" y2="159.59759746351526"/><line fill="none" stroke="#000" stroke-linecap="round" x1="512.3993080055458" x2="504.3134422785677" y1="142.60502834513983" y2="174.9737722413687"/><line fill="none" stroke="#000" stroke-linecap="round" x1="473.2858830920246" x2="455.82035839639394" y1="159.59759746351526" y2="171.66409557399578"/><line fill="none" stroke="#000" stroke-linecap="round" x1="473.2858830920246" x2="460.48418579635774" y1="159.59759746351526" y2="192.68049572278707"/><line fill="none" stroke="#000" stroke-linecap="round" x1="473.2858830920246" x2="454.4894515681895" y1="159.59759746351526" y2="151.73097395653423"/><line fill="none" stroke="#000" stroke-linecap="round" x1="473.2858830920246" x2="473.91605734473995" y1="159.59759746351526" y2="138.256982387426"/><line fill="none" stroke="#000" stroke-linecap="round" x1="473.2858830920246" x2="474.13096646950993" y1="159.59759746351526" y2="179.390091634384"/><line fill="none" stroke="#000" stroke-linecap="round" x1="603.4214130118663" x2="594.6033793566504" y1="226.1893001468268" y2="282.9316832579576"/><line fill="none" stroke="#000" stroke-linecap="round" x1="603.4214130118663" x2="585.3377886764655" y1="226.1893001468268" y2="297.55725096455245"/><line fill="none" stroke="#000" stroke-linecap="round" x1="603.4214130118663" x2="593.8299611256635" y1="226.1893001468268" y2="215.47750057299675"/><line fill="none" stroke="#000" stroke-linecap="round" x1="603.4214130118663" x2="620.6537805593665" y1="226.1893001468268" y2="254.29180996878614"/><line fill="none" stroke="#000" stroke-linecap="round" x1="603.4214130118663" x2="551.6998409854757" y1="226.1893001468268" y2="197.91380637412163"/><line fill="none" stroke="#000" stroke-linecap="round" x1="504.80681895808283" x2="525.6026749671921" y1="193.81966724046188" y2="187.92818495476308"/><line fill="none" stroke="#000" stroke-linecap="round" x1="504.80681895808283" x2="517.0264109591762" y1="193.81966724046188" y2="195.48728723505403"/><line fill="none" stroke="#000" stroke-linecap="round" x1="504.80681895808283" x2="520.3845481694109" y1="193.81966724046188" y2="153.50075374474198"/><line fill="none" stroke="#000" stroke-linecap="round" x1="504.80681895808283" x2="504.3134422785677" y1="193.81966724046188" y2="174.9737722413687"/><line fill="none" stroke="#000" stroke-linecap="round" x1="504.80681895808283" x2="551.6998409854757" y1="193.81966724046188" y2="197.91380637412163"/><line fill="none" stroke="#000" stroke-linecap="round" x1="532.7000540257184" x2="507.4796060764681" y1="233.69941952213512" y2="227.71440006185813"/><line fill="none" stroke="#000" stroke-linecap="round" x1="532.7000540257184" x2="523.4348048898835" y1="233.69941952213512" y2="224.83340548370188"/><line fill="none" stroke="#000" stroke-linecap="round" x1="532.7000540257184" x2="503.3267985130068" y1="233.69941952213512" y2="247.6175007836911"/><line fill="none" stroke="#000" stroke-linecap="round" x1="532.7000540257184" x2="539.5602495074935" y1="233.69941952213512" y2="156.36667270732627"/><line fill="none" stroke="#000" stroke-linecap="round" x1="532.7000540257184" x2="583.2448394376827" y1="233.69941952213512" y2="199.2753050503149"/><line fill="none" stroke="#000" stroke-linecap="round" x1="-650.0840152955324" x2="-669.7272513591877" y1="242.33913092457377" y2="235.59310888357658"/><line fill="none" stroke="#000" stroke-linecap="round" x1="-650.0840152955324" x2="-631.1492261127624" y1="242.33913092457377" y2="254.7946048237055"/><line fill="none" stroke="#000" stroke-linecap="round" x1="-650.0840152955324" x2="-671.3670498526054" y1="242.33913092457377" y2="255.82537959173987"/><line fill="none" stroke="#000" stroke-linecap="round" x1="-650.0840152955324" x2="-640.5929360302073" y1="242.33913092457377" y2="273.48075394085714"/><line fill="none" stroke="#000" stroke-linecap="round" x1="-650.0840152955324" x2="-651.0486423808456" y1="242.33913092457377" y2="257.1502643829138"/><line fill="none" stroke="#000" stroke-linecap="round" x1="630.3833633397762" x2="649.5684147459739" y1="228.4414851965883" y2="276.2088791412317"/><line fill="none" stroke="#000" stroke-linecap="round" x1="630.3833633397762" x2="600.0381457160431" y1="228.4414851965883" y2="187.05619675845077"/><line fill="none" stroke="#000" stroke-linecap="round" x1="630.3833633397762" x2="596.7098068174234" y1="228.4414851965883" y2="178.9062393783251"/><line fill="none" stroke="#000" stroke-linecap="round" x1="630.3833633397762" x2="605.2183708383516" y1="228.4414851965883" y2="241.00325165261884"/><line fill="none" stroke="#000" stroke-linecap="round" x1="630.3833633397762" x2="660.7160574497963" y1="228.4414851965883" y2="250.21637947254993"/><line fill="none" stroke="#000" stroke-linecap="round" x1="691.7683286839341" x2="666.2102501105666" y1="248.73015082045166" y2="209.827598863669"/><line fill="none" stroke="#000" stroke-linecap="round" x1="691.7683286839341" x2="686.0957719725587" y1="248.73015082045166" y2="213.18065871529006"/><line fill="none" stroke="#000" stroke-linecap="round" x1="691.7683286839341" x2="682.8540279634834" y1="248.73015082045166" y2="244.42418501586303"/><line fill="none" stroke="#000" stroke-linecap="round" x1="691.7683286839341" x2="696.832911967957" y1="248.73015082045166" y2="230.2578136169233"/><line fill="none" stroke="#000" stroke-linecap="round" x1="691.7683286839341" x2="672.0533598944637" y1="248.73015082045166" y2="226.5350991131621"/><line fill="none" stroke="#000" stroke-linecap="round" x1="555.0879926134318" x2="550.7635668427739" y1="183.84016669191288" y2="190.42562586370258"/><line fill="none" stroke="#000" stroke-linecap="round" x1="555.0879926134318" x2="539.5602495074935" y1="183.84016669191288" y2="156.36667270732627"/><line fill="none" stroke="#000" stroke-linecap="round" x1="555.0879926134318" x2="531.0130794321481" y1="183.84016669191288" y2="207.30467874186385"/><line fill="none" stroke="#000" stroke-linecap="round" x1="555.0879926134318" x2="555.1276382351831" y1="183.84016669191288" y2="214.55577549964337"/><line fill="none" stroke="#000" stroke-linecap="round" x1="555.0879926134318" x2="570.6795515227038" y1="183.84016669191288" y2="169.9114536537285"/><line fill="none" stroke="#000" stroke-linecap="round" x1="582.2155914548354" x2="553.4085300577079" y1="259.2765289412357" y2="287.1314517540181"/><line fill="none" stroke="#000" stroke-linecap="round" x1="582.2155914548354" x2="575.2026566578361" y1="259.2765289412357" y2="261.03612736063184"/><line fill="none" stroke="#000" stroke-linecap="round" x1="582.2155914548354" x2="535.5240140243682" y1="259.2765289412357" y2="283.5432664227862"/><line fill="none" stroke="#000" stroke-linecap="round" x1="582.2155914548354" x2="594.6033793566504" y1="259.2765289412357" y2="282.9316832579576"/><line fill="none" stroke="#000" stroke-linecap="round" x1="582.2155914548354" x2="576.386215823883" y1="259.2765289412357" y2="247.51967071128203"/><line fill="none" stroke="#000" stroke-linecap="round" x1="584.7583136648037" x2="619.1305718434791" y1="314.4147989579831" y2="310.28197879624804"/><line fill="none" stroke="#000" stroke-linecap="round" x1="584.7583136648037" x2="585.3377886764655" y1="314.4147989579831" y2="297.55725096455245"/><line fill="none" stroke="#000" stroke-linecap="round" x1="584.7583136648037" x2="584.1627611600431" y1="314.4147989579831" y2="279.08951338018556"/><line fill="none" stroke="#000" stroke-linecap="round" x1="584.7583136648037" x2="614.6002867183925" y1="314.4147989579831" y2="340.8346405449575"/><line fill="none" stroke="#000" stroke-linecap="round" x1="584.7583136648037" x2="614.4494828346266" y1="314.4147989579831" y2="281.6834558017301"/><line fill="none" stroke="#000" stroke-linecap="round" x1="660.7160574497963" x2="650.5706473826887" y1="250.21637947254993" y2="227.09420878946727"/><line fill="none" stroke="#000" stroke-linecap="round" x1="660.7160574497963" x2="656.0129783928514" y1="250.21637947254993" y2="267.27766142176773"/><line fill="none" stroke="#000" stroke-linecap="round" x1="660.7160574497963" x2="675.2103509163279" y1="250.21637947254993" y2="262.3847302422304"/><line fill="none" stroke="#000" stroke-linecap="round" x1="660.7160574497963" x2="649.5684147459739" y1="250.21637947254993" y2="276.2088791412317"/><line fill="none" stroke="#000" stroke-linecap="round" x1="660.7160574497963" x2="691.6046321403458" y1="250.21637947254993" y2="274.44576176706096"/><line fill="none" stroke="#000" stroke-linecap="round" x1="570.6795515227038" x2="517.0264109591762" y1="169.9114536537285" y2="195.48728723505403"/><line fill="none" stroke="#000" stroke-linecap="round" x1="570.6795515227038" x2="555.0879926134318" y1="169.9114536537285" y2="183.84016669191288"/><line fill="none" stroke="#000" stroke-linecap="round" x1="570.6795515227038" x2="544.0273143230878" y1="169.9114536537285" y2="218.5596507779277"/><line fill="none" stroke="#000" stroke-linecap="round" x1="570.6795515227038" x2="551.6998409854757" y1="169.9114536537285" y2="197.91380637412163"/><line fill="none" stroke="#000" stroke-linecap="round" x1="570.6795515227038" x2="603.4214130118663" y1="169.9114536537285" y2="226.1893001468268"/><line fill="none" stroke="#000" stroke-linecap="round" x1="520.3845481694109" x2="525.6026749671921" y1="153.50075374474198" y2="187.92818495476308"/><line fill="none" stroke="#000" stroke-linecap="round" x1="520.3845481694109" x2="512.3993080055458" y1="153.50075374474198" y2="142.60502834513983"/><line fill="none" stroke="#000" stroke-linecap="round" x1="520.3845481694109" x2="555.8075580620982" y1="153.50075374474198" y2="170.94819302991922"/><line fill="none" stroke="#000" stroke-linecap="round" x1="520.3845481694109" x2="501.2456128404723" y1="153.50075374474198" y2="155.16782399392935"/><line fill="none" stroke="#000" stroke-linecap="round" x1="520.3845481694109" x2="524.1897343279587" y1="153.50075374474198" y2="166.8185368902906"/><line fill="none" stroke="#000" stroke-linecap="round" x1="594.3455603535914" x2="539.5602495074935" y1="152.01519340745457" y2="156.36667270732627"/><line fill="none" stroke="#000" stroke-linecap="round" x1="594.3455603535914" x2="616.2433002211164" y1="152.01519340745457" y2="176.36902306605634"/><line fill="none" stroke="#000" stroke-linecap="round" x1="594.3455603535914" x2="612.1445024569039" y1="152.01519340745457" y2="157.77752381523294"/><line fill="none" stroke="#000" stroke-linecap="round" x1="594.3455603535914" x2="596.7098068174234" y1="152.01519340745457" y2="178.9062393783251"/><line fill="none" stroke="#000" stroke-linecap="round" x1="594.3455603535914" x2="600.0381457160431" y1="152.01519340745457" y2="187.05619675845077"/><line fill="none" stroke="#000" stroke-linecap="round" x1="575.2026566578361" x2="553.4085300577079" y1="261.03612736063184" y2="287.1314517540181"/><line fill="none" stroke="#000" stroke-linecap="round" x1="575.2026566578361" x2="599.7513266135303" y1="261.03612736063184" y2="264.16601744604304"/><line fill="none" stroke="#000" stroke-linecap="round" x1="575.2026566578361" x2="582.2155914548354" y1="261.03612736063184" y2="259.2765289412357"/><line fill="none" stroke="#000" stroke-linecap="round" x1="575.2026566578361" x2="561.9554659607471" y1="261.03612736063184" y2="271.8587158704438"/><line fill="none" stroke="#000" stroke-linecap="round" x1="575.2026566578361" x2="553.7242117837842" y1="261.03612736063184" y2="310.1981619791195"/><line fill="none" stroke="#000" stroke-linecap="round" x1="544.0273143230878" x2="551.6998409854757" y1="218.5596507779277" y2="197.91380637412163"/><line fill="none" stroke="#000" stroke-linecap="round" x1="544.0273143230878" x2="528.4471319713214" y1="218.5596507779277" y2="253.65099352824026"/><line fill="none" stroke="#000" stroke-linecap="round" x1="544.0273143230878" x2="555.0879926134318" y1="218.5596507779277" y2="183.84016669191288"/><line fill="none" stroke="#000" stroke-linecap="round" x1="544.0273143230878" x2="568.1446803960328" y1="218.5596507779277" y2="202.89086374934365"/><line fill="none" stroke="#000" stroke-linecap="round" x1="544.0273143230878" x2="545.8326221314808" y1="218.5596507779277" y2="257.07738361835817"/><line fill="none" stroke="#000" stroke-linecap="round" x1="584.1627611600431" x2="585.3377886764655" y1="279.08951338018556" y2="297.55725096455245"/><line fill="none" stroke="#000" stroke-linecap="round" x1="584.1627611600431" x2="584.7583136648037" y1="279.08951338018556" y2="314.4147989579831"/><line fill="none" stroke="#000" stroke-linecap="round" x1="584.1627611600431" x2="573.6140886553964" y1="279.08951338018556" y2="310.0622621868841"/><line fill="none" stroke="#000" stroke-linecap="round" x1="584.1627611600431" x2="611.0161528668306" y1="279.08951338018556" y2="297.30305906240375"/><line fill="none" stroke="#000" stroke-linecap="round" x1="584.1627611600431" x2="619.1305718434791" y1="279.08951338018556" y2="310.28197879624804"/><line fill="none" stroke="#000" stroke-linecap="round" x1="555.8075580620982" x2="512.3993080055458" y1="170.94819302991922" y2="142.60502834513983"/><line fill="none" stroke="#000" stroke-linecap="round" x1="555.8075580620982" x2="543.7010104673788" y1="170.94819302991922" y2="163.66813838824717"/><line fill="none" stroke="#000" stroke-linecap="round" x1="555.8075580620982" x2="523.4348048898835" y1="170.94819302991922" y2="224.83340548370188"/><line fill="none" stroke="#000" stroke-linecap="round" x1="555.8075580620982" x2="517.0264109591762" y1="170.94819302991922" y2="195.48728723505403"/><line fill="none" stroke="#000" stroke-linecap="round" x1="555.8075580620982" x2="598.2046051664464" y1="170.94819302991922" y2="198.80895540085658"/><line fill="none" stroke="#000" stroke-linecap="round" x1="619.1305718434791" x2="638.3569273002541" y1="310.28197879624804" y2="336.1904235401963"/><line fill="none" stroke="#000" stroke-linecap="round" x1="619.1305718434791" x2="611.0161528668306" y1="310.28197879624804" y2="297.30305906240375"/><line fill="none" stroke="#000" stroke-linecap="round" x1="619.1305718434791" x2="673.6227877054748" y1="310.28197879624804" y2="300.1664620987991"/><line fill="none" stroke="#000" stroke-linecap="round" x1="619.1305718434791" x2="584.1627611600431" y1="310.28197879624804" y2="279.08951338018556"/><line fill="none" stroke="#000" stroke-linecap="round" x1="619.1305718434791" x2="636.8456185504872" y1="310.28197879624804" y2="317.14915121920063"/><line fill="none" stroke="#000" stroke-linecap="round" x1="493.6323933158365" x2="523.4348048898835" y1="222.29474618371705" y2="224.83340548370188"/><line fill="none" stroke="#000" stroke-linecap="round" x1="493.6323933158365" x2="507.4796060764681" y1="222.29474618371705" y2="227.71440006185813"/><line fill="none" stroke="#000" stroke-linecap="round" x1="493.6323933158365" x2="503.3267985130068" y1="222.29474618371705" y2="247.6175007836911"/><line fill="none" stroke="#000" stroke-linecap="round" x1="493.6323933158365" x2="532.7000540257184" y1="222.29474618371705" y2="233.69941952213512"/><line fill="none" stroke="#000" stroke-linecap="round" x1="493.6323933158365" x2="504.80681895808283" y1="222.29474618371705" y2="193.81966724046188"/><line fill="none" stroke="#000" stroke-linecap="round" x1="649.5684147459739" x2="630.3833633397762" y1="276.2088791412317" y2="228.4414851965883"/><line fill="none" stroke="#000" stroke-linecap="round" x1="649.5684147459739" x2="660.7160574497963" y1="276.2088791412317" y2="250.21637947254993"/><line fill="none" stroke="#000" stroke-linecap="round" x1="649.5684147459739" x2="656.0129783928514" y1="276.2088791412317" y2="267.27766142176773"/><line fill="none" stroke="#000" stroke-linecap="round" x1="649.5684147459739" x2="691.7683286839341" y1="276.2088791412317" y2="248.73015082045166"/><line fill="none" stroke="#000" stroke-linecap="round" x1="649.5684147459739" x2="634.8461435781239" y1="276.2088791412317" y2="271.96175157244335"/><line fill="none" stroke="#000" stroke-linecap="round" x1="507.4796060764681" x2="523.4348048898835" y1="227.71440006185813" y2="224.83340548370188"/><line fill="none" stroke="#000" stroke-linecap="round" x1="507.4796060764681" x2="532.7000540257184" y1="227.71440006185813" y2="233.69941952213512"/><line fill="none" stroke="#000" stroke-linecap="round" x1="507.4796060764681" x2="503.3267985130068" y1="227.71440006185813" y2="247.6175007836911"/><line fill="none" stroke="#000" stroke-linecap="round" x1="507.4796060764681" x2="539.5602495074935" y1="227.71440006185813" y2="156.36667270732627"/><line fill="none" stroke="#000" stroke-linecap="round" x1="507.4796060764681" x2="531.0130794321481" y1="227.71440006185813" y2="207.30467874186385"/><line fill="none" stroke="#000" stroke-linecap="round" x1="617.4967301313984" x2="596.7098068174234" y1="236.27861373909292" y2="178.9062393783251"/><line fill="none" stroke="#000" stroke-linecap="round" x1="617.4967301313984" x2="603.4214130118663" y1="236.27861373909292" y2="226.1893001468268"/><line fill="none" stroke="#000" stroke-linecap="round" x1="617.4967301313984" x2="582.2155914548354" y1="236.27861373909292" y2="259.2765289412357"/><line fill="none" stroke="#000" stroke-linecap="round" x1="617.4967301313984" x2="634.0751092133052" y1="236.27861373909292" y2="298.6876346489545"/><line fill="none" stroke="#000" stroke-linecap="round" x1="617.4967301313984" x2="594.6033793566504" y1="236.27861373909292" y2="282.9316832579576"/><line fill="none" stroke="#000" stroke-linecap="round" x1="639.2061246955363" x2="630.3833633397762" y1="250.7615102956577" y2="228.4414851965883"/><line fill="none" stroke="#000" stroke-linecap="round" x1="639.2061246955363" x2="649.5684147459739" y1="250.7615102956577" y2="276.2088791412317"/><line fill="none" stroke="#000" stroke-linecap="round" x1="639.2061246955363" x2="699.9066390992276" y1="250.7615102956577" y2="259.8837465763499"/><line fill="none" stroke="#000" stroke-linecap="round" x1="639.2061246955363" x2="619.1305718434791" y1="250.7615102956577" y2="310.28197879624804"/><line fill="none" stroke="#000" stroke-linecap="round" x1="639.2061246955363" x2="583.2448394376827" y1="250.7615102956577" y2="199.2753050503149"/><line fill="none" stroke="#000" stroke-linecap="round" x1="517.0264109591762" x2="481.44221257590675" y1="195.48728723505403" y2="209.56564649699186"/><line fill="none" stroke="#000" stroke-linecap="round" x1="517.0264109591762" x2="555.8075580620982" y1="195.48728723505403" y2="170.94819302991922"/><line fill="none" stroke="#000" stroke-linecap="round" x1="517.0264109591762" x2="509.9378842419092" y1="195.48728723505403" y2="211.9956677960126"/><line fill="none" stroke="#000" stroke-linecap="round" x1="517.0264109591762" x2="460.8259948820438" y1="195.48728723505403" y2="252.69586693335907"/><line fill="none" stroke="#000" stroke-linecap="round" x1="517.0264109591762" x2="570.6795515227038" y1="195.48728723505403" y2="169.9114536537285"/><line fill="none" stroke="#000" stroke-linecap="round" x1="568.1446803960328" x2="603.4214130118663" y1="202.89086374934365" y2="226.1893001468268"/><line fill="none" stroke="#000" stroke-linecap="round" x1="568.1446803960328" x2="517.0264109591762" y1="202.89086374934365" y2="195.48728723505403"/><line fill="none" stroke="#000" stroke-linecap="round" x1="568.1446803960328" x2="598.2046051664464" y1="202.89086374934365" y2="198.80895540085658"/><line fill="none" stroke="#000" stroke-linecap="round" x1="568.1446803960328" x2="551.6998409854757" y1="202.89086374934365" y2="197.91380637412163"/><line fill="none" stroke="#000" stroke-linecap="round" x1="568.1446803960328" x2="593.8299611256635" y1="202.89086374934365" y2="215.47750057299675"/><line fill="none" stroke="#000" stroke-linecap="round" x1="551.6998409854757" x2="544.0273143230878" y1="197.91380637412163" y2="218.5596507779277"/><line fill="none" stroke="#000" stroke-linecap="round" x1="551.6998409854757" x2="603.4214130118663" y1="197.91380637412163" y2="226.1893001468268"/><line fill="none" stroke="#000" stroke-linecap="round" x1="551.6998409854757" x2="568.1446803960328" y1="197.91380637412163" y2="202.89086374934365"/><line fill="none" stroke="#000" stroke-linecap="round" x1="551.6998409854757" x2="593.8299611256635" y1="197.91380637412163" y2="215.47750057299675"/><line fill="none" stroke="#000" stroke-linecap="round" x1="551.6998409854757" x2="550.7635668427739" y1="197.91380637412163" y2="190.42562586370258"/><line fill="none" stroke="#000" stroke-linecap="round" x1="600.0381457160431" x2="630.3833633397762" y1="187.05619675845077" y2="228.4414851965883"/><line fill="none" stroke="#000" stroke-linecap="round" x1="600.0381457160431" x2="596.7098068174234" y1="187.05619675845077" y2="178.9062393783251"/><line fill="none" stroke="#000" stroke-linecap="round" x1="600.0381457160431" x2="594.3455603535914" y1="187.05619675845077" y2="152.01519340745457"/><line fill="none" stroke="#000" stroke-linecap="round" x1="600.0381457160431" x2="583.2448394376827" y1="187.05619675845077" y2="199.2753050503149"/><line fill="none" stroke="#000" stroke-linecap="round" x1="600.0381457160431" x2="598.2046051664464" y1="187.05619675845077" y2="198.80895540085658"/><line fill="none" stroke="#000" stroke-linecap="round" x1="585.3377886764655" x2="584.7583136648037" y1="297.55725096455245" y2="314.4147989579831"/><line fill="none" stroke="#000" stroke-linecap="round" x1="585.3377886764655" x2="584.1627611600431" y1="297.55725096455245" y2="279.08951338018556"/><line fill="none" stroke="#000" stroke-linecap="round" x1="585.3377886764655" x2="603.4214130118663" y1="297.55725096455245" y2="226.1893001468268"/><line fill="none" stroke="#000" stroke-linecap="round" x1="585.3377886764655" x2="594.6033793566504" y1="297.55725096455245" y2="282.9316832579576"/><line fill="none" stroke="#000" stroke-linecap="round" x1="585.3377886764655" x2="573.6140886553964" y1="297.55725096455245" y2="310.0622621868841"/><line fill="none" stroke="#000" stroke-linecap="round" x1="583.2448394376827" x2="598.2046051664464" y1="199.2753050503149" y2="198.80895540085658"/><line fill="none" stroke="#000" stroke-linecap="round" x1="583.2448394376827" x2="600.0381457160431" y1="199.2753050503149" y2="187.05619675845077"/><line fill="none" stroke="#000" stroke-linecap="round" x1="583.2448394376827" x2="596.7098068174234" y1="199.2753050503149" y2="178.9062393783251"/><line fill="none" stroke="#000" stroke-linecap="round" x1="583.2448394376827" x2="543.7010104673788" y1="199.2753050503149" y2="163.66813838824717"/><line fill="none" stroke="#000" stroke-linecap="round" x1="583.2448394376827" x2="550.7635668427739" y1="199.2753050503149" y2="190.42562586370258"/><line fill="none" stroke="#000" stroke-linecap="round" x1="634.0751092133052" x2="617.4967301313984" y1="298.6876346489545" y2="236.27861373909292"/><line fill="none" stroke="#000" stroke-linecap="round" x1="634.0751092133052" x2="655.0759615811638" y1="298.6876346489545" y2="305.3932432781499"/><line fill="none" stroke="#000" stroke-linecap="round" x1="634.0751092133052" x2="674.1244941341519" y1="298.6876346489545" y2="320.0414241307807"/><line fill="none" stroke="#000" stroke-linecap="round" x1="634.0751092133052" x2="598.396024758308" y1="298.6876346489545" y2="319.31198675553964"/><line fill="none" stroke="#000" stroke-linecap="round" x1="634.0751092133052" x2="655.6295576403719" y1="298.6876346489545" y2="324.50035665184043"/><line fill="none" stroke="#000" stroke-linecap="round" x1="531.0130794321481" x2="550.7635668427739" y1="207.30467874186385" y2="190.42562586370258"/><line fill="none" stroke="#000" stroke-linecap="round" x1="531.0130794321481" x2="523.4348048898835" y1="207.30467874186385" y2="224.83340548370188"/><line fill="none" stroke="#000" stroke-linecap="round" x1="531.0130794321481" x2="525.6026749671921" y1="207.30467874186385" y2="187.92818495476308"/><line fill="none" stroke="#000" stroke-linecap="round" x1="531.0130794321481" x2="507.4796060764681" y1="207.30467874186385" y2="227.71440006185813"/><line fill="none" stroke="#000" stroke-linecap="round" x1="531.0130794321481" x2="555.0879926134318" y1="207.30467874186385" y2="183.84016669191288"/><line fill="none" stroke="#000" stroke-linecap="round" x1="594.6033793566504" x2="528.4471319713214" y1="282.9316832579576" y2="253.65099352824026"/><line fill="none" stroke="#000" stroke-linecap="round" x1="594.6033793566504" x2="568.7677339120867" y1="282.9316832579576" y2="290.09362315215145"/><line fill="none" stroke="#000" stroke-linecap="round" x1="594.6033793566504" x2="575.5328307571293" y1="282.9316832579576" y2="337.333459310918"/><line fill="none" stroke="#000" stroke-linecap="round" x1="594.6033793566504" x2="665.820011158224" y1="282.9316832579576" y2="283.8300751763723"/><line fill="none" stroke="#000" stroke-linecap="round" x1="594.6033793566504" x2="595.7327020806165" y1="282.9316832579576" y2="338.0204574735517"/><line fill="none" stroke="#000" stroke-linecap="round" x1="570.0440323846801" x2="555.1276382351831" y1="223.4287926300038" y2="214.55577549964337"/><line fill="none" stroke="#000" stroke-linecap="round" x1="570.0440323846801" x2="544.0273143230878" y1="223.4287926300038" y2="218.5596507779277"/><line fill="none" stroke="#000" stroke-linecap="round" x1="570.0440323846801" x2="517.0264109591762" y1="223.4287926300038" y2="195.48728723505403"/><line fill="none" stroke="#000" stroke-linecap="round" x1="570.0440323846801" x2="593.8299611256635" y1="223.4287926300038" y2="215.47750057299675"/><line fill="none" stroke="#000" stroke-linecap="round" x1="570.0440323846801" x2="575.2026566578361" y1="223.4287926300038" y2="261.03612736063184"/><line fill="none" stroke="#000" stroke-linecap="round" x1="460.8259948820438" x2="462.88306638123424" y1="252.69586693335907" y2="266.61236461008497"/><line fill="none" stroke="#000" stroke-linecap="round" x1="460.8259948820438" x2="458.2025720463066" y1="252.69586693335907" y2="286.06119874562853"/><line fill="none" stroke="#000" stroke-linecap="round" x1="460.8259948820438" x2="444.1601538348113" y1="252.69586693335907" y2="269.97835228763233"/><line fill="none" stroke="#000" stroke-linecap="round" x1="460.8259948820438" x2="438.672823391514" y1="252.69586693335907" y2="289.27006564415007"/><line fill="none" stroke="#000" stroke-linecap="round" x1="460.8259948820438" x2="478.2855713172588" y1="252.69586693335907" y2="280.0828717393606"/><line fill="none" stroke="#000" stroke-linecap="round" x1="543.7010104673788" x2="555.8075580620982" y1="163.66813838824717" y2="170.94819302991922"/><line fill="none" stroke="#000" stroke-linecap="round" x1="543.7010104673788" x2="512.3993080055458" y1="163.66813838824717" y2="142.60502834513983"/><line fill="none" stroke="#000" stroke-linecap="round" x1="543.7010104673788" x2="517.0264109591762" y1="163.66813838824717" y2="195.48728723505403"/><line fill="none" stroke="#000" stroke-linecap="round" x1="543.7010104673788" x2="533.2760589863972" y1="163.66813838824717" y2="137.8560347967967"/><line fill="none" stroke="#000" stroke-linecap="round" x1="543.7010104673788" x2="556.9073112766196" y1="163.66813838824717" y2="145.349670742451"/><line fill="none" stroke="#000" stroke-linecap="round" x1="593.8299611256635" x2="598.2046051664464" y1="215.47750057299675" y2="198.80895540085658"/><line fill="none" stroke="#000" stroke-linecap="round" x1="593.8299611256635" x2="603.4214130118663" y1="215.47750057299675" y2="226.1893001468268"/><line fill="none" stroke="#000" stroke-linecap="round" x1="593.8299611256635" x2="568.1446803960328" y1="215.47750057299675" y2="202.89086374934365"/><line fill="none" stroke="#000" stroke-linecap="round" x1="593.8299611256635" x2="630.3833633397762" y1="215.47750057299675" y2="228.4414851965883"/><line fill="none" stroke="#000" stroke-linecap="round" x1="593.8299611256635" x2="570.0440323846801" y1="215.47750057299675" y2="223.4287926300038"/><line fill="none" stroke="#000" stroke-linecap="round" x1="555.1276382351831" x2="556.9156980155693" y1="214.55577549964337" y2="236.49157116902413"/><line fill="none" stroke="#000" stroke-linecap="round" x1="555.1276382351831" x2="570.0440323846801" y1="214.55577549964337" y2="223.4287926300038"/><line fill="none" stroke="#000" stroke-linecap="round" x1="555.1276382351831" x2="555.0879926134318" y1="214.55577549964337" y2="183.84016669191288"/><line fill="none" stroke="#000" stroke-linecap="round" x1="555.1276382351831" x2="550.7635668427739" y1="214.55577549964337" y2="190.42562586370258"/><line fill="none" stroke="#000" stroke-linecap="round" x1="555.1276382351831" x2="544.0273143230878" y1="214.55577549964337" y2="218.5596507779277"/></svg>