<?xml version="1.0" ?><!DOCTYPE svg  PUBLIC '-//W3C//DTD SVG 1.1//EN'  'http://www.w3.org/Graphics/SVG/1.1/DTD/svg11.dtd'><svg height="298.000" viewBox="-173.000 -144.000 338.000 298.000" width="338.000" xmlns="http://www.w3.org/2000/svg"><line fill="none" stroke="none" stroke-linecap="round" stroke-width="2.0" x1="0.0" x2="0.0" y1="0.0" y2="0.0"/><polygon fill="none" fill-rule="evenodd" points="0.0,0.0 0.0,0.0 0.0,0.0" stroke-linejoin="round"/><polyline fill="none" points="39.172645996544226,-24.66405498544879 41.67264599654828,-25.333927966519862 43.50277301547736,-27.164054985438252 44.17264599656303,-29.6640549854384 43.502773015491954,-32.16405498544246 41.672645996573564,-33.99418200437154 39.172645996573415,-34.664054985457206 36.67264599656936,-33.99418200438613 34.84251897764028,-32.16405498546774 34.172645996554614,-29.664054985467594 34.84251897762569,-27.164054985463533 36.67264599654408,-25.333927966534457 39.172645996544226,-24.664054985448786" stroke="#ffa500" stroke-linecap="round" stroke-linejoin="round"/><polyline fill="none" points="43.49965862209512,-7.65636351165927 45.999658622099176,-8.32623649273034 47.82978564102825,-10.15636351164873 48.49965862211393,-12.656363511648877 47.829785641042854,-15.156363511652938 45.999658622124464,-16.986490530582017 43.499658622124315,-17.65636351166769 40.99965862212026,-16.98649053059662 39.16953160319118,-15.156363511678231 38.49965862210551,-12.656363511678084 39.16953160317657,-10.156363511674023 40.99965862209496,-8.326236492744943 43.49965862209511,-7.65636351165927" stroke="#ffa500" stroke-linecap="round" stroke-linejoin="round"/><polyline fill="none" points="53.985065369531945,-123.12141263946029 56.48506536953601,-123.79128562053135 58.31519238846509,-125.62141263944974 58.98506536955077,-128.1214126394499 58.3151923884797,-130.62141263945395 56.48506536956131,-132.45153965838304 53.98506536956116,-133.1214126394687 51.4850653695571,-132.45153965839762 49.654938350628015,-130.62141263947925 48.98506536954234,-128.1214126394791 49.654938350613406,-125.62141263947504 51.485065369531796,-123.79128562054596 53.985065369531945,-123.12141263946029" stroke="#ffa500" stroke-linecap="round" stroke-linejoin="round"/><polyline fill="none" points="23.04924249739699,-58.78560397821204 25.549242497401053,-59.455476959283104 27.379369516330136,-61.28560397820149 28.049242497415815,-63.78560397820164 27.37936951634475,-66.2856039782057 25.549242497426363,-68.11573099713479 23.049242497426214,-68.78560397822046 20.54924249742215,-68.1157309971494 18.719115478493066,-66.28560397823101 18.049242497407388,-63.78560397823086 18.71911547847845,-61.285603978226796 20.549242497396836,-59.45547695929771 23.049242497396985,-58.78560397821203" stroke="#ffa500" stroke-linecap="round" stroke-linejoin="round"/><polyline fill="none" points="-33.97254111534511,33.228986633825514 -31.472541115341045,32.55911365275445 -29.64241409641196,30.72898663383606 -28.972541115326283,28.228986633835913 -29.642414096397346,25.72898663383185 -31.47254111531573,23.89885961490276 -33.97254111531588,23.22898663381708 -36.47254111531994,23.898859614888142 -38.302668134249025,25.728986633806525 -38.97254111533471,28.22898663380667 -38.30266813426365,30.728986633810734 -36.472541115345265,32.55911365273982 -33.972541115345116,33.2289866338255" stroke="#00f" stroke-linecap="round" stroke-linejoin="round"/><polyline fill="none" points="-109.76602317891553,-9.762736675691354 -107.26602317891147,-10.432609656762414 -105.43589615998238,-12.262736675680799 -104.76602317889669,-14.762736675680946 -105.43589615996775,-17.262736675685012 -107.26602317888614,-19.0928636946141 -109.76602317888629,-19.76273667569978 -112.26602317889035,-19.092863694628722 -114.09615019781944,-17.26273667571034 -114.76602317890513,-14.762736675710192 -114.09615019783408,-12.262736675706126 -112.2660231789157,-10.432609656777037 -109.76602317891556,-9.762736675691352" stroke="#00f" stroke-linecap="round" stroke-linejoin="round"/><polyline fill="none" points="54.79738273782171,-85.69885624010658 57.29738273782577,-86.36872922117763 59.12750975675486,-88.198856240096 59.79738273784054,-90.69885624009615 59.127509756769484,-93.19885624010021 57.2973827378511,-95.0289832590293 54.79738273785095,-95.69885624011499 52.29738273784689,-95.02898325904394 50.4672557189178,-93.19885624012556 49.79738273783211,-90.69885624012542 50.46725571890317,-88.19885624012136 52.29738273782155,-86.36872922119227 54.7973827378217,-85.69885624010658" stroke="#ffa500" stroke-linecap="round" stroke-linejoin="round"/><polyline fill="none" points="81.01211118320977,-121.60251795305172 83.51211118321383,-122.27239093412277 85.34223820214292,-124.10251795304114 86.01211118322861,-126.60251795304129 85.34223820215756,-129.10251795304535 83.51211118323918,-130.93264497197444 81.01211118323904,-131.60251795306013 78.51211118323498,-130.93264497198908 76.68198416430589,-129.1025179530707 76.0121111832202,-126.60251795307056 76.68198416429125,-124.1025179530665 78.51211118320963,-122.2723909341374 81.01211118320977,-121.60251795305172" stroke="#ffa500" stroke-linecap="round" stroke-linejoin="round"/><polyline fill="none" points="-114.59564761180754,-39.76841767120463 -112.09564761180347,-40.43829065227568 -110.26552059287438,-42.26841767119406 -109.59564761178869,-44.76841767119421 -110.26552059285974,-47.26841767119828 -112.09564761177812,-49.098544690127376 -114.59564761177826,-49.768417671213065 -117.09564761178233,-49.09854469014201 -118.92577463071142,-47.26841767122364 -119.5956476117971,-44.76841767122349 -118.92577463072605,-42.26841767121942 -117.09564761180768,-40.43829065229032 -114.59564761180754,-39.768417671204624" stroke="#00f" stroke-linecap="round" stroke-linejoin="round"/><polyline fill="none" points="-18.338120948827935,77.98698856044132 -15.838120948823864,77.31711557937027 -14.007993929894766,75.48698856045189 -13.338120948809072,72.98698856045175 -14.007993929880122,70.48698856044767 -15.8381209487985,68.65686154151857 -18.338120948798647,67.98698856043288 -20.838120948802718,68.65686154150393 -22.668247967731816,70.4869885604223 -23.33812094881751,72.98698856042245 -22.668247967746463,75.48698856042652 -20.838120948828088,77.31711557935563 -18.33812094882794,77.98698856044133" stroke="#00f" stroke-linecap="round" stroke-linejoin="round"/><polyline fill="none" points="148.24358093233354,37.09730960847662 150.7435809323376,36.42743662740558 152.5737079512667,34.5973096084872 153.2435809323524,32.09730960848705 152.57370795128134,29.59730960848298 150.74358093236296,27.76718258955388 148.24358093236282,27.097309608468183 145.74358093235875,27.76718258953923 143.91345391342966,29.597309608457607 143.24358093234397,32.097309608457756 143.91345391341503,34.59730960846183 145.7435809323334,36.42743662739093 148.24358093233354,37.09730960847663" stroke="#ffa500" stroke-linecap="round" stroke-linejoin="round"/><polyline fill="none" points="129.98617460647327,-32.562168737949165 132.48617460647733,-33.23204171902021 134.31630162540642,-35.062168737938585 134.9861746064921,-37.562168737938734 134.31630162542106,-40.062168737942805 132.4861746065027,-41.89229575687191 129.98617460650254,-42.56216873795761 127.48617460649847,-41.89229575688657 125.65604758756936,-40.06216873796819 124.98617460648366,-37.562168737968044 125.6560475875547,-35.062168737963965 127.48617460647307,-33.23204171903486 129.9861746064732,-32.56216873794916" stroke="#ffa500" stroke-linecap="round" stroke-linejoin="round"/><polyline fill="none" points="107.88582682116495,-84.62821238824075 110.38582682116903,-85.29808536931179 112.21595384009814,-87.12821238823017 112.88582682118384,-89.62821238823031 112.2159538401128,-92.12821238823439 110.38582682119443,-93.95833940716349 107.88582682119429,-94.6282123882492 105.38582682119021,-93.95833940717816 103.5556998022611,-92.12821238825978 102.8858268211754,-89.62821238825964 103.55569980224644,-87.12821238825556 105.38582682116481,-85.29808536932646 107.88582682116495,-84.62821238824075" stroke="#ffa500" stroke-linecap="round" stroke-linejoin="round"/><polyline fill="none" points="-19.219860083871158,24.159611384816312 -16.71986008386708,23.48973840374527 -14.889733064937971,21.6596113848269 -14.219860083852266,19.15961138482675 -14.889733064923306,16.65961138482267 -16.719860083841677,14.829484365893563 -19.219860083841823,14.159611384807857 -21.7198600838459,14.829484365878896 -23.54998710277501,16.659611384797266 -24.219860083860716,19.159611384797415 -23.54998710278968,21.659611384801494 -21.719860083871307,23.489738403730602 -19.219860083871158,24.15961138481631" stroke="#00f" stroke-linecap="round" stroke-linejoin="round"/><polyline fill="none" points="-17.599517866452015,130.247982065275 -15.099517866447936,129.57810908420396 -13.269390847518826,127.74798206528558 -12.599517866433118,125.24798206528544 -13.269390847504155,122.74798206528136 -15.099517866422525,120.91785504635226 -17.599517866422673,120.24798206526656 -20.09951786642675,120.91785504633759 -21.929644885355863,122.74798206525597 -22.599517866441573,125.24798206525611 -21.929644885370536,127.74798206526019 -20.099517866452167,129.5781090841893 -17.599517866452018,130.247982065275" stroke="#ffa500" stroke-linecap="round" stroke-linejoin="round"/><polyline fill="none" points="74.03181350899837,-108.75236758286414 76.53181350900245,-109.42224056393518 78.36194052793157,-111.25236758285355 79.03181350901728,-113.7523675828537 78.36194052794625,-116.25236758285777 76.53181350902787,-118.08249460178689 74.03181350902773,-118.75236758287261 71.53181350902365,-118.08249460180157 69.70168649009453,-116.25236758288321 69.03181350900881,-113.75236758288307 69.70168649007985,-111.25236758287899 71.53181350899821,-109.42224056394987 74.03181350899835,-108.75236758286415" stroke="#ffa500" stroke-linecap="round" stroke-linejoin="round"/><polyline fill="none" points="-47.28100058099686,29.066689392499974 -44.78100058099278,28.39681641142894 -42.95087356206367,26.566689392510572 -42.28100058097795,24.066689392510423 -42.95087356204898,21.56668939250634 -44.78100058096735,19.736562373577225 -47.2810005809675,19.06668939249151 -49.78100058097158,19.736562373562542 -51.6111275999007,21.56668939248091 -52.281000580986415,24.06668939248106 -51.611127599915385,26.56668939248514 -49.781000580997016,28.396816411414257 -47.28100058099687,29.066689392499974" stroke="#008000" stroke-linecap="round" stroke-linejoin="round"/><polyline fill="none" points="84.12458496691347,-73.88334957287934 86.62458496691755,-74.55322255395036 88.45471198584667,-76.38334957286872 89.12458496693239,-78.88334957286887 88.45471198586137,-81.38334957287294 86.624584966943,-83.21347659180206 84.12458496694286,-83.88334957288778 81.62458496693878,-83.21347659181676 79.79445794800966,-81.3833495728984 79.12458496692395,-78.88334957289825 79.79445794799497,-76.38334957289418 81.62458496691333,-74.55322255396506 84.12458496691347,-73.88334957287934" stroke="#ffa500" stroke-linecap="round" stroke-linejoin="round"/><polyline fill="none" points="-41.07906190080646,-12.879944230844888 -38.57906190080237,-13.549817211915915 -36.748934881873254,-15.37994423083428 -36.079061900787536,-17.879944230834425 -36.74893488185856,-20.37994423083851 -38.57906190077692,-22.210071249767633 -41.07906190077707,-22.879944230853354 -43.579061900781156,-22.210071249782327 -45.409188919710274,-20.379944230863963 -46.079061900796,-17.879944230863813 -45.409188919724976,-15.379944230859728 -43.579061900806614,-13.549817211930606 -41.079061900806465,-12.879944230844883" stroke="#00f" stroke-linecap="round" stroke-linejoin="round"/><polyline fill="none" points="39.968788798850284,-87.46710383587447 42.46878879885437,-88.13697681694549 44.298915817783495,-89.96710383586385 44.96878879886922,-92.467103835864 44.298915817798196,-94.96710383586809 42.468788798879835,-96.7972308547972 39.968788798879686,-97.46710383588292 37.4687887988756,-96.7972308548119 35.638661779946474,-94.96710383589354 34.96878879886075,-92.4671038358934 35.63866177993177,-89.9671038358893 37.468788798850134,-88.13697681696019 39.968788798850284,-87.46710383587445" stroke="#00f" stroke-linecap="round" stroke-linejoin="round"/><polyline fill="none" points="134.30582504676025,-23.337985937063145 136.80582504676434,-24.00785891813417 138.63595206569346,-25.83798593705253 139.30582504677918,-28.33798593705268 138.63595206570815,-30.837985937056768 136.80582504678978,-32.66811295598589 134.30582504678964,-33.337985937071615 131.80582504678554,-32.66811295600059 129.97569802785642,-30.83798593708223 129.3058250467707,-28.33798593708208 129.97569802784173,-25.837985937077992 131.80582504676008,-24.007858918148866 134.30582504676022,-23.337985937063138" stroke="#ffa500" stroke-linecap="round" stroke-linejoin="round"/><polyline fill="none" points="117.06792961894429,-37.28457678715747 119.56792961894838,-37.95444976822849 121.39805663787752,-39.784576787146854 122.06792961896325,-42.284576787147 121.39805663789222,-44.784576787151096 119.56792961897386,-46.61470380608022 117.06792961897372,-47.28457678716595 114.56792961896963,-46.61470380609494 112.7378026000405,-44.784576787176576 112.06792961895476,-42.28457678717643 112.73780260002579,-39.784576787172334 114.56792961894415,-37.9544497682432 117.06792961894429,-37.28457678715747" stroke="#ffa500" stroke-linecap="round" stroke-linejoin="round"/><polyline fill="none" points="84.34288924657683,-75.43590100108403 86.84288924658092,-76.10577398215506 88.67301626551006,-77.93590100107342 89.34288924659579,-80.43590100107356 88.67301626552477,-82.93590100107765 86.8428892466064,-84.76602802000679 84.34288924660626,-85.43590100109252 81.84288924660217,-84.7660280200215 80.01276222767304,-82.93590100110313 79.3428892465873,-80.43590100110298 80.01276222765833,-77.93590100109888 81.84288924657669,-76.10577398216975 84.34288924657685,-75.43590100108402" stroke="#ffa500" stroke-linecap="round" stroke-linejoin="round"/><polyline fill="none" points="23.572671826229676,60.84518732692174 26.07267182623377,60.17531434585072 27.902798845162902,58.34518732693236 28.572671826248637,55.84518732693221 27.90279884517762,53.34518732692812 26.072671826259263,51.515060307998986 23.572671826259114,50.84518732691325 21.07267182625502,51.515060307984264 19.242544807325885,53.345187326902625 18.57267182624015,55.845187326902774 19.242544807311162,58.34518732690687 21.07267182622952,60.175314345836 23.57267182622967,60.84518732692174" stroke="#00f" stroke-linecap="round" stroke-linejoin="round"/><polyline fill="none" points="71.54644954105741,-37.982026835139145 74.0464495410615,-38.65189981621016 75.87657655999064,-40.482026835128515 76.54644954107637,-42.982026835128664 75.87657656000536,-45.48202683513276 74.046449541087,-47.3121538540619 71.54644954108684,-47.982026835147636 69.04644954108275,-47.31215385407663 67.21632252215362,-45.48202683515827 66.54644954106787,-42.98202683515812 67.21632252213888,-40.48202683515403 69.04644954105724,-38.65189981622489 71.5464495410574,-37.98202683513915" stroke="#00f" stroke-linecap="round" stroke-linejoin="round"/><polyline fill="none" points="96.89174522250002,-53.54419049434556 99.39174522250411,-54.214063475416566 101.22187224143325,-56.04419049433492 101.89174522251899,-58.54419049433507 101.22187224144798,-61.04419049433917 99.39174522252962,-62.87431751326831 96.89174522252947,-63.54419049435405 94.39174522252537,-62.87431751328304 92.56161820359623,-61.044190494364685 91.89174522251048,-58.544190494364535 92.56161820358149,-56.044190494360436 94.39174522249985,-54.214063475431296 96.8917452225,-53.54419049434555" stroke="#00f" stroke-linecap="round" stroke-linejoin="round"/><polyline fill="none" points="92.0767529241362,29.89248763589801 94.5767529241403,29.222614654827 96.40687994306944,27.392487635908648 97.07675292415519,24.8924876359085 96.40687994308418,22.392487635904402 94.57675292416582,20.562360616975262 92.07675292416566,19.892487635889516 89.57675292416157,20.562360616960525 87.74662590523242,22.39248763587888 87.07675292414667,24.89248763587903 87.74662590521768,27.39248763588313 89.57675292413603,29.222614654812272 92.07675292413619,29.892487635898018" stroke="#ffa500" stroke-linecap="round" stroke-linejoin="round"/><polyline fill="none" points="126.2453084767779,6.568743069675628 128.745308476782,5.898870088604622 130.57543549571113,4.068743069686269 131.24530847679688,1.5687430696861187 130.57543549572588,-0.9312569303179812 128.74530847680754,-2.7613839492471257 126.24530847680738,-3.4312569303328724 123.74530847680327,-2.7613839492618673 121.91518145787413,-0.9312569303435145 121.24530847678838,1.5687430696566356 121.91518145785939,4.068743069660736 123.74530847677774,5.898870088589882 126.2453084767779,6.56874306967563" stroke="#ffa500" stroke-linecap="round" stroke-linejoin="round"/><polyline fill="none" points="32.39808039112485,-31.527364868633633 34.89808039112895,-32.197237849704635 36.7282074100581,-34.02736486862299 37.39808039114384,-36.52736486862314 36.72820741007284,-39.02736486862724 34.89808039115449,-40.857491887556385 32.39808039115434,-41.52736486864214 29.898080391150238,-40.857491887571136 28.06795337222109,-39.02736486865278 27.39808039113534,-36.52736486865263 28.067953372206343,-34.02736486864853 29.898080391124694,-32.197237849719386 32.39808039112484,-31.527364868633633" stroke="#ffa500" stroke-linecap="round" stroke-linejoin="round"/><polyline fill="none" points="113.94532687351833,-22.082621574212745 116.44532687352243,-22.752494555283747 118.27545389245158,-24.582621574202097 118.94532687353733,-27.082621574202246 118.27545389246633,-29.58262157420635 116.44532687354798,-31.4127485931355 113.94532687354783,-32.08262157422126 111.44532687354372,-31.41274859315026 109.61519985461457,-29.582621574231908 108.94532687352881,-27.08262157423176 109.61519985459981,-24.582621574227655 111.44532687351816,-22.752494555298505 113.94532687351831,-22.08262157421275" stroke="#ffa500" stroke-linecap="round" stroke-linejoin="round"/><polyline fill="none" points="-13.178086305754002,43.63625459115945 -10.678086305749899,42.966381610088455 -8.847959286820746,41.13625459117011 -8.17808630573499,38.63625459116996 -8.847959286805988,36.13625459116585 -10.678086305724337,34.3061275722367 -13.178086305724488,33.636254591150944 -15.678086305728593,34.30612757222194 -17.508213324657746,36.136254591140286 -18.178086305743502,38.636254591140435 -17.508213324672504,41.13625459114454 -15.678086305754157,42.9663816100737 -13.178086305754007,43.63625459115946" stroke="#ffa500" stroke-linecap="round" stroke-linejoin="round"/><polyline fill="none" points="48.28662401104901,-41.67071741576961 50.786624011053114,-42.340590396840604 52.61675102998227,-44.17071741575895 53.28662401106803,-46.6707174157591 52.61675102999703,-49.17071741576321 50.786624011078686,-51.00084443469236 48.28662401107854,-51.67071741577812 45.78662401107443,-51.000844434707126 43.956496992145276,-49.17071741578878 43.286624011059516,-46.67071741578863 43.95649699213051,-44.17071741578452 45.78662401104886,-42.34059039685537 48.28662401104901,-41.67071741576961" stroke="#00f" stroke-linecap="round" stroke-linejoin="round"/><polyline fill="none" points="-83.34718929812634,16.947041679925313 -80.84718929812223,16.277168698854318 -79.01706227919307,14.447041679935971 -78.34718929810731,11.94704167993582 -79.0170622791783,9.447041679931711 -80.84718929809665,7.6169146610025535 -83.34718929809681,6.947041679916792 -85.84718929810091,7.616914660987785 -87.67731631703008,9.447041679906132 -88.34718929811584,11.947041679906283 -87.67731631704484,14.447041679910392 -85.8471892981265,16.277168698839553 -83.34718929812634,16.947041679925317" stroke="#ffa500" stroke-linecap="round" stroke-linejoin="round"/><polyline fill="none" points="-32.11469482679508,62.76407924099693 -29.61469482679097,62.09420625992593 -27.78456780786181,60.264079241007586 -27.114694826776045,57.76407924100744 -27.784567807847036,55.26407924100333 -29.614694826765383,53.43395222207417 -32.114694826765536,52.7640792409884 -34.61469482676965,53.43395222205939 -36.44482184569881,55.264079240977736 -37.11469482678458,57.764079240977885 -36.44482184571359,60.264079240982 -34.614694826795244,62.09420625991116 -32.114694826795095,62.76407924099693" stroke="#ffa500" stroke-linecap="round" stroke-linejoin="round"/><polyline fill="none" points="119.64953002038331,80.83415835266094 122.14953002038742,80.16428537158994 123.97965703931658,78.3341583526716 124.64953002040235,75.83415835267144 123.97965703933136,73.33415835266733 122.14953002041301,71.50403133373817 119.64953002041285,70.8341583526524 117.14953002040875,71.50403133372339 115.31940300147959,73.33415835264174 114.64953002039381,75.8341583526419 115.31940300146479,78.334158352646 117.14953002038314,80.16428537157516 119.6495300203833,80.83415835266094" stroke="#ffa500" stroke-linecap="round" stroke-linejoin="round"/><polyline fill="none" points="-76.1832234540426,46.036263912303944 -73.6832234540385,45.36639093123296 -71.85309643510934,43.53626391231461 -71.18322345402356,41.03626391231446 -71.85309643509454,38.536263912310346 -73.68322345401289,36.70613689338118 -76.18322345401305,36.036263912295404 -78.68322345401715,36.70613689336639 -80.51335047294631,38.53626391228473 -81.18322345403209,41.03626391228488 -80.51335047296111,43.536263912288995 -78.68322345404276,45.36639093121816 -76.1832234540426,46.03626391230394" stroke="#f00" stroke-linecap="round" stroke-linejoin="round"/><polyline fill="none" points="27.056844677576066,-51.86919069851674 29.55684467758018,-52.53906367958773 31.38697169650935,-54.36919069850607 32.05684467759512,-56.869190698506216 31.38697169652414,-59.36919069851033 29.556844677605795,-61.1993177174395 27.056844677605643,-61.86919069852527 24.556844677601525,-61.19931771745429 22.726717658672356,-59.36919069853595 22.056844677586582,-56.8691906985358 22.726717658657563,-54.36919069853169 24.556844677575903,-52.53906367960252 27.056844677576056,-51.869190698516746" stroke="#ffa500" stroke-linecap="round" stroke-linejoin="round"/><polyline fill="none" points="102.97394301600741,-37.987147299339384 105.47394301601153,-38.657020280410364 107.30407003494071,-40.487147299328704 107.97394301602648,-42.98714729932885 107.3040700349555,-45.48714729933297 105.47394301603715,-47.317274318262136 102.973943016037,-47.98714729934791 100.47394301603288,-47.31727431827693 98.6438159971037,-45.48714729935859 97.97394301601793,-42.98714729935844 98.64381599708891,-40.487147299354326 100.47394301600724,-38.65702028042515 102.9739430160074,-37.98714729933937" stroke="#ffa500" stroke-linecap="round" stroke-linejoin="round"/><polyline fill="none" points="144.50079509828186,14.15659051070104 147.00079509828598,13.486717529630061 148.83092211721515,11.656590510711721 149.50079509830093,9.156590510711569 148.83092211722996,6.656590510707451 147.0007950983116,4.826463491778277 144.50079509831147,4.156590510692498 142.00079509830735,4.826463491763476 140.17066807937817,6.656590510681815 139.5007950982924,9.156590510681967 140.17066807936337,11.656590510686087 142.0007950982817,13.486717529615262 144.50079509828186,14.156590510701044" stroke="#ffa500" stroke-linecap="round" stroke-linejoin="round"/><polyline fill="none" points="-8.281421001364755,51.742036687057535 -5.781421001360636,51.072163705986554 -3.9512939824314603,49.242036687068214 -3.281421001345679,46.74203668706806 -3.951293982416656,44.24203668706394 -5.781421001334994,42.41190966813476 -8.281421001335147,41.74203668704898 -10.781421001339268,42.411909668119954 -12.611548020268444,44.24203668703829 -13.281421001354227,46.74203668703845 -12.611548020283252,49.24203668704257 -10.781421001364913,51.07216370597175 -8.28142100136476,51.74203668705753" stroke="#00f" stroke-linecap="round" stroke-linejoin="round"/><polyline fill="none" points="94.64083562440159,-12.626228513290123 97.14083562440571,-13.296101494361098 98.97096264333489,-15.126228513279436 99.64083562442067,-17.62622851327959 98.9709626433497,-20.12622851328371 97.14083562443136,-21.95635553221289 94.6408356244312,-22.626228513298674 92.14083562442708,-21.9563555322277 90.31070860549791,-20.126228513309364 89.64083562441212,-17.62622851330921 90.3107086054831,-15.126228513305088 92.14083562440143,-13.29610149437591 94.64083562440159,-12.626228513290123" stroke="#ffa500" stroke-linecap="round" stroke-linejoin="round"/><polyline fill="none" points="121.48564625770528,44.05727823183852 123.9856462577094,43.38740525076754 125.81577327663858,41.5572782318492 126.48564625772437,39.05727823184905 125.8157732766534,36.557278231844926 123.98564625773507,34.72715121291574 121.48564625773491,34.057278231829955 118.98564625773079,34.72715121290093 117.15551923880162,36.55727823181926 116.48564625771583,39.05727823181942 117.1555192387868,41.55727823182354 118.98564625770513,43.38740525075272 121.48564625770528,44.05727823183851" stroke="#ffa500" stroke-linecap="round" stroke-linejoin="round"/><polyline fill="none" points="117.27658320548726,99.9279743242762 119.77658320549138,99.25810134320524 121.60671022442057,97.42797432428691 122.27658320550636,94.92797432428675 121.60671022443539,92.42797432428263 119.77658320551706,90.59784730535344 117.2765832055169,89.92797432426765 114.77658320551278,90.59784730533862 112.94645618658359,92.42797432425695 112.2765832054978,94.92797432425711 112.94645618656877,97.42797432426123 114.7765832054871,99.25810134319042 117.27658320548726,99.9279743242762" stroke="#ffa500" stroke-linecap="round" stroke-linejoin="round"/><polyline fill="none" points="43.71270030664482,141.83582001554012 46.21270030664895,141.16594703446916 48.04282732557813,139.3358200155508 48.712700306663926,136.83582001555067 48.04282732559296,134.33582001554655 46.21270030667463,132.50569299661737 43.71270030667447,131.83582001553157 41.21270030667034,132.50569299660253 39.38257328774115,134.33582001552088 38.71270030665536,136.83582001552102 39.38257328772632,139.33582001552514 41.212700306644656,141.16594703445432 43.71270030664481,141.83582001554012" stroke="#ffa500" stroke-linecap="round" stroke-linejoin="round"/><polyline fill="none" points="-57.44492459863449,-17.536484558258422 -54.944924598630365,-18.20635753932939 -53.114797579701175,-20.03648455824772 -52.44492459861538,-22.536484558247874 -53.114797579686346,-25.036484558252003 -54.94492459860468,-26.86661157718119 -57.444924598604835,-27.536484558266984 -59.944924598608964,-26.866611577196018 -61.77505161753815,-25.036484558277685 -62.44492459862395,-22.536484558277532 -61.77505161755298,-20.036484558273404 -59.94492459863465,-18.206357539344214 -57.44492459863449,-17.53648455825842" stroke="#00f" stroke-linecap="round" stroke-linejoin="round"/><polyline fill="none" points="-129.1577461162932,28.851561733054645 -126.65774611628906,28.181688751983682 -124.82761909735987,26.35156173306535 -124.15774611627407,23.851561733065196 -124.82761909734504,21.351561733061068 -126.65774611626337,19.52143471413188 -129.15774611626352,18.85156173304608 -131.65774611626765,19.521434714117042 -133.48787313519685,21.35156173303537 -134.15774611628265,23.851561733035524 -133.4878731352117,26.351561733039652 -131.65774611629337,28.181688751968846 -129.15774611629323,28.851561733054645" stroke="#00f" stroke-linecap="round" stroke-linejoin="round"/><polyline fill="none" points="98.66135307276473,127.29167577567429 101.16135307276886,126.62180279460333 102.99148009169805,124.791675775685 103.66135307278385,122.29167577568484 102.99148009171289,119.7916757756807 101.16135307279455,117.96154875675151 98.6613530727944,117.29167577566571 96.16135307279026,117.96154875673668 94.33122605386107,119.79167577565501 93.66135307277527,122.29167577565516 94.33122605384624,124.7916757756593 96.16135307276457,126.62180279458849 98.66135307276473,127.29167577567429" stroke="#ffa500" stroke-linecap="round" stroke-linejoin="round"/><polyline fill="none" points="37.55915182299312,113.36530753198173 40.05915182299726,112.69543455091076 41.889278841926455,110.86530753199243 42.55915182301226,108.36530753199227 41.8892788419413,105.86530753198814 40.05915182302297,104.03518051305895 37.559151823022816,103.36530753197314 35.05915182301868,104.0351805130441 33.229024804089484,105.86530753196243 32.55915182300368,108.36530753196259 33.22902480407464,110.86530753196672 35.059151822992966,112.69543455089592 37.55915182299312,113.36530753198173" stroke="#ffa500" stroke-linecap="round" stroke-linejoin="round"/><polyline fill="none" points="-30.83013959466179,-21.951941743623166 -28.330139594657656,-22.621814724694122 -26.500012575728455,-24.45194174361245 -25.83013959464265,-26.951941743612608 -26.500012575713605,-29.451941743616743 -28.330139594631934,-31.282068762545943 -30.83013959463209,-31.95194174363175 -33.33013959463623,-31.282068762560794 -35.160266613565426,-29.451941743642465 -35.830139594651236,-26.95194174364231 -35.16026661358028,-24.451941743638173 -33.33013959466196,-22.621814724708972 -30.8301395946618,-21.951941743623163" stroke="#00f" stroke-linecap="round" stroke-linejoin="round"/><polyline fill="none" points="83.85729387799249,32.98396225583917 86.35729387799663,32.314089274768214 88.18742089692583,30.48396225584989 88.85729387801163,27.983962255849733 88.18742089694068,25.483962255845597 86.35729387802235,23.653835236916393 83.85729387802219,22.983962255830583 81.35729387801806,23.653835236901536 79.52716685908885,25.48396225581986 78.85729387800303,27.983962255820018 79.52716685907399,30.483962255824157 81.35729387799232,32.31408927475336 83.85729387799248,32.98396225583917" stroke="#ffa500" stroke-linecap="round" stroke-linejoin="round"/><polyline fill="none" points="52.205447056839596,28.683970986992932 54.70544705684373,28.01409800592198 56.535574075772935,26.183970987003654 57.205447056858745,23.683970987003498 56.53557407578779,21.18397098699936 54.70544705686947,19.353843968070155 52.20544705686931,18.683970986984342 49.705447056865175,19.353843968055294 47.87532003793597,21.18397098697362 47.205447056850154,23.683970986973776 47.87532003792111,26.183970986977915 49.70544705683943,28.014098005907123 52.20544705683959,28.683970986992936" stroke="#00f" stroke-linecap="round" stroke-linejoin="round"/><polyline fill="none" points="28.966841750537704,124.76373917803242 31.466841750541843,124.09386619696147 33.29696876947105,122.26373917804315 33.96684175055687,119.763739178043 33.296968769485915,117.26373917803886 31.46684175056759,115.43361215910966 28.966841750567433,114.76373917802384 26.466841750563294,115.43361215909479 24.636714731634086,117.26373917801311 23.96684175054827,119.76373917801327 24.636714731619218,122.2637391780174 26.46684175053754,124.0938661969466 28.966841750537696,124.76373917803242" stroke="#ffa500" stroke-linecap="round" stroke-linejoin="round"/><polyline fill="none" points="-19.882922221151762,22.026088038464785 -17.382922221147624,21.356215057393836 -15.552795202218414,19.526088038475514 -14.882922221132596,17.026088038475358 -15.552795202203543,14.526088038471217 -17.382922221121866,12.695961019542008 -19.882922221122023,12.026088038456189 -22.382922221126165,12.695961019527136 -24.213049240055376,14.526088038445458 -24.882922221141197,17.026088038445614 -24.21304924007025,19.526088038449757 -22.38292222115193,21.356215057378968 -19.882922221151773,22.02608803846479" stroke="#ffa500" stroke-linecap="round" stroke-linejoin="round"/><polyline fill="none" points="24.209481068774984,101.57893946707465 26.709481068779127,100.90906648600371 28.539608087708338,99.07893946708539 29.209481068794158,96.57893946708523 28.539608087723213,94.07893946708109 26.70948106880489,92.24881244815187 24.209481068804735,91.57893946706605 21.709481068800592,92.24881244813699 19.87935404987138,94.0789394670553 19.209481068785557,96.57893946705546 19.8793540498565,99.07893946705961 21.70948106877482,100.90906648598883 24.209481068774977,101.57893946707465" stroke="#ffa500" stroke-linecap="round" stroke-linejoin="round"/><polyline fill="none" points="68.4144892298824,58.59708948702249 70.91448922988656,57.92721650595154 72.74461624881577,56.09708948703322 73.41448922990159,53.59708948703307 72.74461624883065,51.097089487028924 70.91448922991233,49.266962468099706 68.41448922991218,48.59708948701388 65.91448922990803,49.26696246808482 64.08436221097881,51.09708948700314 63.414489229892986,53.597089487003295 64.08436221096393,56.09708948700744 65.91448922988225,57.927216505936656 68.4144892298824,58.59708948702248" stroke="#ffa500" stroke-linecap="round" stroke-linejoin="round"/><polyline fill="none" points="39.14992364583244,41.05736905100198 41.64992364583658,40.38749606993104 43.4800506647658,38.55736905101272 44.14992364585162,36.057369051012564 43.480050664780684,33.55736905100842 41.649923645862366,31.727242032079204 39.14992364586221,31.057369050993376 36.64992364585807,31.727242032064314 34.81979662692885,33.55736905098263 34.14992364584302,36.057369050982786 34.819796626913956,38.557369050986935 36.649923645832274,40.38749606991615 39.14992364583243,41.057369051001984" stroke="#00f" stroke-linecap="round" stroke-linejoin="round"/><polyline fill="none" points="-18.38095739337563,108.674820040578 -15.880957393371485,108.00494705950706 -14.050830374442267,106.17482004058874 -13.380957393356438,103.67482004058859 -14.050830374427374,101.17482004058444 -15.88095739334569,99.34469302165522 -18.380957393345845,98.67482004056939 -20.88095739334999,99.34469302164032 -22.711084412279213,101.17482004055864 -23.380957393365044,103.6748200405588 -22.71108441229411,106.17482004056295 -20.880957393375795,108.00494705949217 -18.38095739337564,108.674820040578" stroke="#ffa500" stroke-linecap="round" stroke-linejoin="round"/><polyline fill="none" points="-84.66251984226989,53.574510628203214 -82.16251984226574,52.904637647132276 -80.33239282333652,51.07451062821396 -79.66251984225069,48.5745106282138 -80.33239282332163,46.07451062820965 -82.16251984223994,44.244383609280426 -84.6625198422401,43.574510628194595 -87.16251984224425,44.244383609265526 -88.99264686117347,46.074510628183845 -89.6625198422593,48.574510628184 -88.99264686118836,51.07451062818815 -87.16251984227004,52.904637647117376 -84.66251984226989,53.574510628203214" stroke="#00f" stroke-linecap="round" stroke-linejoin="round"/><polyline fill="none" points="-64.86362148335101,134.85946172003153 -62.36362148334686,134.1895887389606 -60.533494464417636,132.35946172004228 -59.8636214833318,129.8594617200421 -60.53349446440273,127.35946172003796 -62.36362148332104,125.52933470110872 -64.8636214833212,124.85946172002289 -67.36362148332535,125.52933470109383 -69.19374850225458,127.35946172001215 -69.86362148334041,129.85946172001232 -69.19374850226949,132.35946172001647 -67.36362148335117,134.1895887389457 -64.86362148335101,134.85946172003153" stroke="#ffa500" stroke-linecap="round" stroke-linejoin="round"/><polyline fill="none" points="-5.106423315431995,141.80339925755294 -2.606423315427843,141.133526276482 -0.7762962964986155,139.30339925756368 -0.10642331541277672,136.8033992575635 -0.7762962964837057,134.30339925755936 -2.6064233154020187,132.47327223863013 -5.106423315402175,131.8033992575443 -7.606423315406326,132.47327223861524 -9.436550334335555,134.30339925753356 -10.106423315421395,136.80339925753373 -9.436550334350468,139.30339925753788 -7.606423315432156,141.1335262764671 -5.106423315432,141.80339925755294" stroke="#ffa500" stroke-linecap="round" stroke-linejoin="round"/><polyline fill="none" points="-57.32458762667021,45.59139720633571 -54.82458762666606,44.92152422526478 -52.994460607736826,43.09139720634647 -52.32458762665099,40.591397206346315 -52.99446060772191,38.091397206342165 -54.82458762664022,36.26127018741293 -57.32458762664038,35.59139720632709 -59.82458762664453,36.26127018739801 -61.65471464557376,38.09139720631632 -62.32458762665961,40.59139720631648 -61.65471464558868,43.091397206320636 -59.82458762667037,44.92152422524987 -57.324587626670215,45.591397206335714" stroke="#008000" stroke-linecap="round" stroke-linejoin="round"/><polyline fill="none" points="-85.19213789349655,-1.61494484508136 -82.6921378934924,-2.2848178261522847 -80.86201087456317,-4.114944845070595 -80.19213789347732,-6.614944845070752 -80.86201087454825,-9.114944845074907 -82.69213789346655,-10.94507186400414 -85.19213789346671,-11.614944845089985 -87.69213789347086,-10.945071864019061 -89.52226491240009,-9.114944845100752 -90.19213789348593,-6.614944845100594 -89.52226491241501,-4.1149448450964385 -87.6921378934967,-2.2848178261672043 -85.19213789349655,-1.614944845081358" stroke="#00f" stroke-linecap="round" stroke-linejoin="round"/><polyline fill="none" points="1.95106921459525,96.60839541798838 4.451069214599405,95.93852243691745 6.2811962335286395,94.10839541799915 6.951069214614487,91.60839541799899 6.2811962335435645,89.10839541799484 4.451069214625256,87.27826839906561 1.9510692146250985,86.60839541797976 -0.5489307853790582,87.27826839905069 -2.379057804308294,89.10839541796899 -3.0489307853941425,91.60839541796915 -2.379057804323222,94.1083954179733 -0.5489307854049137,95.93852243690253 1.9510692145952435,96.60839541798838" stroke="#00f" stroke-linecap="round" stroke-linejoin="round"/><polyline fill="none" points="-95.81724034171864,40.30641497132963 -93.31724034171448,39.63654199025871 -91.48711332278525,37.8064149713404 -90.8172403416994,35.306414971340246 -91.48711332277033,32.80641497133609 -93.31724034168863,30.976287952406853 -95.81724034168879,30.306414971321004 -98.31724034169295,30.976287952391925 -100.14736736062218,32.80641497131023 -100.81724034170803,35.30641497131039 -100.1473673606371,37.806414971314545 -98.3172403417188,39.636541990243785 -95.81724034171864,40.30641497132964" stroke="#00f" stroke-linecap="round" stroke-linejoin="round"/><polyline fill="none" points="-14.179197081568661,120.65280481553293 -11.679197081564503,119.98293183446201 -9.849070062635263,118.1528048155437 -9.179197081549411,115.65280481554355 -9.849070062620328,113.15280481553938 -11.679197081538634,111.32267779661014 -14.179197081538792,110.65280481552428 -16.679197081542952,111.3226777965952 -18.509324100472192,113.1528048155135 -19.179197081558044,115.65280481551366 -18.509324100487127,118.15280481551783 -16.679197081568823,119.98293183444707 -14.179197081568667,120.65280481553293" stroke="#ffa500" stroke-linecap="round" stroke-linejoin="round"/><polyline fill="none" points="-76.08396118181906,113.08327314537706 -73.5839611818149,112.41340016430615 -71.75383416288565,110.58327314538785 -71.0839611817998,108.0832731453877 -71.7538341628707,105.58327314538353 -73.58396118178901,103.75314612645428 -76.08396118178916,103.08327314536842 -78.58396118179333,103.75314612643933 -80.41408820072257,105.58327314535764 -81.08396118180843,108.0832731453578 -80.41408820073752,110.58327314536196 -78.58396118181922,112.4134001642912 -76.08396118181906,113.08327314537706" stroke="#ffa500" stroke-linecap="round" stroke-linejoin="round"/><polyline fill="none" points="-8.414221813493759,-40.5949505427044 -5.914221813489597,-41.26482352377531 -4.084094794560352,-43.09495054269362 -3.4142218134744935,-45.59495054269377 -4.084094794545406,-48.09495054269794 -5.914221813463709,-49.925077561627184 -8.414221813463866,-50.59495054271304 -10.914221813468028,-49.925077561642134 -12.744348832397275,-48.09495054272383 -13.414221813483135,-45.59495054272367 -12.744348832412223,-43.09495054271951 -10.91422181349392,-41.26482352379026 -8.414221813493764,-40.5949505427044" stroke="#ffa500" stroke-linecap="round" stroke-linejoin="round"/><polyline fill="none" points="-55.66683892200475,117.49326267304322 -53.166838922000586,116.82338969197231 -51.33671190307134,114.993262673054 -50.66683892198548,112.49326267305385 -51.33671190305639,109.99326267304968 -53.166838921974694,108.16313565412044 -55.66683892197485,107.49326267303458 -58.166838921979014,108.16313565410549 -59.99696594090826,109.99326267302379 -60.66683892199412,112.49326267302395 -59.99696594092321,114.99326267302811 -58.16683892200491,116.82338969195736 -55.66683892200475,117.49326267304322" stroke="#ffa500" stroke-linecap="round" stroke-linejoin="round"/><polyline fill="none" points="25.350766795690873,49.141634973701194 27.850766795695037,48.471761992630285 29.680893814624287,46.64163497371198 30.35076679571015,44.141634973711824 29.680893814639244,41.64163497370766 27.850766795720943,39.811507954778406 25.350766795720787,39.14163497369254 22.850766795716623,39.81150795476345 21.020639776787373,41.64163497368175 20.350766795701507,44.1416349736819 21.020639776772413,46.64163497368607 22.850766795690713,48.47176199261532 25.35076679569087,49.14163497370119" stroke="#ffa500" stroke-linecap="round" stroke-linejoin="round"/><polyline fill="none" points="-48.26001276166205,40.71308244171488 -45.76001276165788,40.04320946064398 -43.92988574272863,38.21308244172568 -43.26001276164276,35.713082441725525 -43.929885742713665,33.21308244172136 -45.76001276163196,31.382955422792108 -48.26001276163212,30.71308244170624 -50.76001276163629,31.382955422777144 -52.59013978056554,33.21308244169544 -53.26001276165141,35.7130824416956 -52.59013978058051,38.21308244169977 -50.76001276166221,40.04320946062902 -48.260012761662054,40.71308244171489" stroke="#008000" stroke-linecap="round" stroke-linejoin="round"/><polyline fill="none" points="-77.47568739457381,73.61911969983737 -74.97568739456965,72.94924671876646 -73.14556037564039,71.11911969984816 -72.47568739455451,68.619119699848 -73.14556037562542,66.11911969984384 -74.97568739454373,64.28899268091457 -77.47568739454388,63.6191196998287 -79.97568739454805,64.2889926808996 -81.80581441347731,66.1191196998179 -82.47568739456318,68.61911969981806 -81.80581441349229,71.11911969982222 -79.975687394574,72.94924671875148 -77.47568739457384,73.61911969983736" stroke="#00f" stroke-linecap="round" stroke-linejoin="round"/><polyline fill="none" points="-109.98653041879773,100.39199061251942 -107.48653041879356,99.72211763144853 -105.6564033998643,97.89199061253024 -104.98653041877843,95.39199061253008 -105.65640339984932,92.89199061252592 -107.48653041876761,91.06186359359666 -109.98653041876777,90.39199061251078 -112.48653041877193,91.06186359358168 -114.3166574377012,92.89199061249997 -114.98653041878707,95.39199061250012 -114.31665743771617,97.89199061250429 -112.48653041879788,99.72211763143355 -109.98653041879773,100.39199061251942" stroke="#ffa500" stroke-linecap="round" stroke-linejoin="round"/><polyline fill="none" points="90.95780003151708,94.3419231832737 93.45780003152124,93.67205020220281 95.2879270504505,91.84192318328452 95.95780003153638,89.34192318328436 95.28792705046548,86.8419231832802 93.4578000315472,85.01179616435094 90.95780003154704,84.34192318326507 88.45780003154286,85.01179616433596 86.6276730126136,86.84192318325425 85.95780003152773,89.34192318325441 86.62767301259862,91.84192318325859 88.45780003151691,93.67205020218785 90.95780003151707,94.34192318327372" stroke="#00f" stroke-linecap="round" stroke-linejoin="round"/><polyline fill="none" points="-104.01772840678565,-67.93420478343295 -101.51772840678147,-68.60407776450384 -99.68760138785221,-70.43420478342213 -99.01772840676634,-72.93420478342229 -99.68760138783723,-75.43420478342647 -101.51772840675552,-77.26433180235573 -104.01772840675568,-77.9342047834416 -106.51772840675986,-77.2643318023707 -108.34785542568912,-75.43420478345242 -109.01772840677499,-72.93420478345226 -108.3478554257041,-70.43420478344808 -106.5177284067858,-68.60407776451882 -104.01772840678565,-67.93420478343295" stroke="#ffa500" stroke-linecap="round" stroke-linejoin="round"/><polyline fill="none" points="-86.15638535138513,87.5008406512669 -83.65638535138095,86.830967670196 -81.82625833245169,85.00084065127771 -81.15638535136581,82.50084065127756 -81.82625833243671,80.00084065127338 -83.656385351355,78.17071363234412 -86.15638535135515,77.50084065125823 -88.65638535135933,78.17071363232913 -90.4865123702886,80.00084065124742 -91.15638535137448,82.50084065124757 -90.48651237030359,85.00084065125175 -88.6563853513853,86.83096767018101 -86.15638535138514,87.5008406512669" stroke="#ffa500" stroke-linecap="round" stroke-linejoin="round"/><polyline fill="none" points="-157.12453665088543,32.036199174269925 -154.62453665088125,31.366326193199033 -152.794409631952,29.536199174280743 -152.1245366508661,27.036199174280586 -152.794409631937,24.536199174276412 -154.62453665085528,22.706072155347147 -157.12453665085542,22.036199174261263 -159.6245366508596,22.70607215533215 -161.45466366978886,24.53619917425044 -162.12453665087475,27.036199174250598 -161.45466366980386,29.536199174254772 -159.62453665088557,31.36632619318404 -157.12453665088543,32.036199174269925" stroke="#ffa500" stroke-linecap="round" stroke-linejoin="round"/><polyline fill="none" points="-68.93113426945176,46.54973193119853 -66.43113426944758,45.87985895012764 -64.60100725051831,44.04973193120935 -63.93113426943242,41.549731931209195 -64.6010072505033,39.04973193120502 -66.43113426942159,37.21960491227575 -68.93113426942175,36.54973193118986 -71.43113426942593,37.21960491226075 -73.2612612883552,39.04973193117904 -73.93113426944109,41.549731931179195 -73.2612612883702,44.04973193118337 -71.43113426945192,45.87985895011264 -68.93113426945176,46.54973193119853" stroke="#008000" stroke-linecap="round" stroke-linejoin="round"/><polyline fill="none" points="-111.3690260663381,-41.74764369701836 -108.86902606633392,-42.41751667808925 -107.03889904740464,-44.24764369700754 -106.36902606631875,-46.747643697007696 -107.03889904738963,-49.247643697011874 -108.86902606630792,-51.07777071594114 -111.36902606630808,-51.74764369702703 -113.86902606631226,-51.07777071595614 -115.69915308524153,-49.24764369703785 -116.36902606632742,-46.747643697037695 -115.69915308525654,-44.24764369703352 -113.86902606633825,-42.41751667810424 -111.3690260663381,-41.747643697018354" stroke="#ffa500" stroke-linecap="round" stroke-linejoin="round"/><polyline fill="none" points="-96.2105633709652,-32.99388107279269 -93.71056337096103,-33.66375405386357 -91.88043635203175,-35.49388107278185 -91.21056337094586,-37.99388107278201 -91.88043635201674,-40.49388107278619 -93.71056337093503,-42.32400809171546 -96.21056337093519,-42.99388107280136 -98.71056337093937,-42.32400809173048 -100.54069038986864,-40.493881072812194 -101.21056337095453,-37.99388107281204 -100.54069038988365,-35.49388107280786 -98.71056337096536,-33.663754053878584 -96.2105633709652,-32.99388107279269" stroke="#00f" stroke-linecap="round" stroke-linejoin="round"/><polyline fill="none" points="39.131876564394254,-79.2597953026192 41.63187656439843,-79.92966828369008 43.46200358332771,-81.75979530260837 44.1318765644136,-84.25979530260852 43.46200358334272,-86.7597953026127 41.63187656442444,-88.58992232154198 39.13187656442428,-89.25979530262786 36.631876564420104,-88.58992232155698 34.80174954549083,-86.7597953026387 34.131876564404934,-84.25979530263854 34.801749545475815,-81.75979530263436 36.6318765643941,-79.92966828370508 39.131876564394254,-79.25979530261918" stroke="#00f" stroke-linecap="round" stroke-linejoin="round"/><polyline fill="none" points="-96.7100320026979,12.822787867380852 -94.21003200269372,12.152914886309972 -92.37990498376445,10.322787867391689 -91.71003200267855,7.822787867391533 -92.37990498374943,5.322787867387351 -94.21003200266772,3.4926608484580726 -96.71003200266787,2.8227878673721745 -99.21003200267205,3.4926608484430517 -101.04015902160133,5.322787867361335 -101.71003200268723,7.822787867361491 -101.04015902161635,10.322787867365673 -99.21003200269807,12.152914886294953 -96.71003200269791,12.822787867380852" stroke="#00f" stroke-linecap="round" stroke-linejoin="round"/><polyline fill="none" points="-49.756031933745675,63.031667675155504 -47.25603193374149,62.36179469408463 -45.42590491481221,60.53166767516635 -44.756031933726305,58.03166767516619 -45.42590491479718,55.531667675162005 -47.25603193371546,53.70154065623272 -49.75603193371562,53.03166767514682 -52.256031933719804,53.701540656217695 -54.086158952649086,55.53166767513598 -54.75603193373499,58.031667675136134 -54.086158952664114,60.53166767514032 -52.25603193374583,62.3617946940696 -49.756031933745675,63.031667675155504" stroke="#ffa500" stroke-linecap="round" stroke-linejoin="round"/><polyline fill="none" points="-32.75938433288187,50.739494437979054 -30.259384332877687,50.06962145690818 -28.429257313948405,48.2394944379899 -27.759384332862503,45.73949443798974 -28.429257313933377,43.239494437985556 -30.259384332851656,41.409367419056274 -32.759384332851816,40.73949443797037 -35.259384332856,41.409367419041246 -37.08951135178528,43.23949443795953 -37.759384332871186,45.739494437959685 -37.08951135180031,48.23949443796387 -35.25938433288203,50.06962145689315 -32.75938433288187,50.739494437979054" stroke="#008000" stroke-linecap="round" stroke-linejoin="round"/><polyline fill="none" points="15.44206854917009,35.485058749210474 17.942068549174273,34.8151857681396 19.77219556810356,32.98505874922132 20.442068549189464,30.48505874922116 19.772195568118594,27.985058749216975 17.942068549200314,26.15493173028769 15.442068549200158,25.485058749201784 12.942068549195973,26.154931730272654 11.111941530266687,27.985058749190934 10.442068549180782,30.48505874919109 11.111941530251652,32.985058749195275 12.94206854916993,34.815185768124564 15.442068549170086,35.485058749210474" stroke="#ffa500" stroke-linecap="round" stroke-linejoin="round"/><polyline fill="none" points="-43.33011636144453,-119.91937416617864 -40.830116361440346,-120.58924714724951 -38.99998934251106,-122.41937416616778 -38.33011636142515,-124.91937416616794 -38.999989342496015,-127.41937416617213 -40.83011636141429,-129.24950118510142 -43.33011636141445,-129.91937416618734 -45.83011636141863,-129.24950118511646 -47.66024338034792,-127.41937416619818 -48.33011636143383,-124.91937416619803 -47.660243380362964,-122.41937416619383 -45.83011636144469,-120.58924714726454 -43.33011636144453,-119.91937416617863" stroke="#ffa500" stroke-linecap="round" stroke-linejoin="round"/><polyline fill="none" points="-75.37819945499889,74.00078255382215 -72.8781994549947,73.33090957275128 -71.04807243606541,71.500782553833 -70.3781994549795,69.00078255383285 -71.04807243605036,66.50078255382866 -72.87819945496864,64.67065553489937 -75.3781994549688,64.00078255381345 -77.87819945497299,64.67065553488432 -79.70832647390228,66.5007825538026 -80.37819945498819,69.00078255380275 -79.70832647391732,71.50078255380694 -77.87819945499905,73.33090957273623 -75.37819945499889,74.00078255382215" stroke="#ffa500" stroke-linecap="round" stroke-linejoin="round"/><polyline fill="none" points="30.842171294849066,-53.80528945155867 33.34217129485326,-54.47516243262954 35.17229831378255,-56.305289451547814 35.842171294868464,-58.80528945154797 35.1722983137976,-61.30528945155216 33.34217129487932,-63.13541647048146 30.842171294879165,-63.805289451567376 28.342171294874976,-63.135416470496516 26.512044275945684,-61.30528945157824 25.842171294859767,-58.80528945157808 26.51204427593063,-56.30528945157389 28.342171294848903,-54.475162432644595 30.84217129484906,-53.80528945155868" stroke="#ffa500" stroke-linecap="round" stroke-linejoin="round"/><polyline fill="none" points="-89.8146907212047,-90.1954695024391 -87.3146907212005,-90.86534248350996 -85.48456370227122,-92.69546950242824 -84.8146907211853,-95.1954695024284 -85.48456370225617,-97.69546950243259 -87.31469072117444,-99.52559652136188 -89.8146907211746,-100.19546950244779 -92.31469072117879,-99.52559652137693 -94.1448177401081,-97.69546950245865 -94.81469072119401,-95.1954695024585 -94.14481774012316,-92.6954695024543 -92.31469072120488,-90.865342483525 -89.81469072120473,-90.19546950243908" stroke="#ffa500" stroke-linecap="round" stroke-linejoin="round"/><polyline fill="none" points="72.04609138569472,-20.635646854172997 74.54609138569892,-21.305519835243857 76.37621840462822,-23.13564685416213 77.04609138571413,-25.635646854162285 76.37621840464328,-28.135646854166477 74.546091385725,-29.965773873095777 72.04609138572485,-30.635646854181697 69.54609138572066,-29.96577387311084 67.71596436679135,-28.13564685419257 67.04609138570544,-25.635646854192412 67.71596436677629,-23.13564685418822 69.54609138569457,-21.30551983525892 72.04609138569472,-20.635646854172997" stroke="#00f" stroke-linecap="round" stroke-linejoin="round"/><polyline fill="none" points="93.82275503826305,-52.57850171342864 96.32275503826725,-53.2483746944995 98.15288205719655,-55.07850171341777 98.82275503828247,-57.57850171341793 98.15288205721161,-60.07850171342212 96.32275503829334,-61.908628732351424 93.82275503829318,-62.57850171343735 91.32275503828899,-61.908628732366495 89.49262801935969,-60.078501713448226 88.82275503827375,-57.57850171344807 89.49262801934461,-55.07850171344388 91.32275503826288,-53.248374694514574 93.82275503826304,-52.57850171342865" stroke="#00f" stroke-linecap="round" stroke-linejoin="round"/><polyline fill="none" points="-72.87812126402925,-10.494541685911356 -70.37812126402505,-11.16441466698221 -68.54799424509575,-12.99454168590048 -67.87812126400982,-15.494541685900636 -68.54799424508067,-17.99454168590483 -70.37812126399895,-19.824668704834135 -72.8781212639991,-20.494541685920062 -75.3781212640033,-19.82466870484921 -77.2082482829326,-17.99454168593094 -77.87812126401853,-15.494541685930784 -77.20824828294768,-12.994541685926588 -75.37812126402942,-11.164414666997285 -72.87812126402926,-10.494541685911358" stroke="#00f" stroke-linecap="round" stroke-linejoin="round"/><polyline fill="none" points="72.95288084218143,-51.62031996252019 75.45288084218562,-52.290192943591045 77.28300786111492,-54.12031996250931 77.95288084220086,-56.62031996250947 77.28300786113,-59.12031996251367 75.45288084221174,-60.95044698144297 72.95288084221158,-61.6203199625289 70.45288084220739,-60.95044698145805 68.62275382327809,-59.12031996253978 67.95288084219216,-56.620319962539625 68.62275382326301,-54.120319962535426 70.45288084218127,-52.29019294360612 72.95288084218143,-51.62031996252019" stroke="#00f" stroke-linecap="round" stroke-linejoin="round"/><polyline fill="none" points="-92.12828909085684,-89.02996865872382 -89.62828909085265,-89.69984163979467 -87.79816207192334,-91.52996865871293 -87.12828909083741,-94.02996865871309 -87.79816207190827,-96.52996865871728 -89.62828909082653,-98.36009567764658 -92.12828909082668,-99.02996865873251 -94.62828909083088,-98.36009567766166 -96.45841610976018,-96.5299686587434 -97.12828909084611,-94.02996865874324 -96.45841610977526,-91.52996865873905 -94.628289090857,-89.69984163980975 -92.12828909085684,-89.02996865872382" stroke="#ffa500" stroke-linecap="round" stroke-linejoin="round"/><polyline fill="none" points="-133.4832892661702,-14.558685894615547 -130.983289266166,-15.228558875686394 -129.15316224723668,-17.05868589460466 -128.48328926615073,-19.558685894604817 -129.1531622472216,-22.058685894609017 -130.98328926613985,-23.888812913538327 -133.48328926614002,-24.55868589462426 -135.98328926614423,-23.888812913553416 -137.81341628507354,-22.05868589463515 -138.4832892661595,-19.558685894634994 -137.81341628508864,-17.058685894630795 -135.98328926617037,-15.228558875701482 -133.4832892661702,-14.558685894615547" stroke="#ffa500" stroke-linecap="round" stroke-linejoin="round"/><polyline fill="none" points="41.43783206102275,24.283679458717877 43.93783206102695,23.61380647764703 45.76795907995626,21.783679458728766 46.4378320610422,19.28367945872861 45.767959079971355,16.783679458724407 43.93783206105309,14.953552439795095 41.43783206105294,14.283679458709157 38.93783206104874,14.953552439780001 37.10770504211943,16.783679458698266 36.43783206103349,19.283679458698423 37.107705042104335,21.783679458702625 38.9378320610226,23.61380647763194 41.43783206102275,24.283679458717877" stroke="#00f" stroke-linecap="round" stroke-linejoin="round"/><polyline fill="none" points="-65.52932464422598,46.184163362327496 -63.02932464422178,45.51429038125665 -61.19919762529247,43.68416336233839 -60.52932464420653,41.18416336233823 -61.19919762527738,38.68416336233403 -63.02932464419564,36.854036343404715 -65.5293246441958,36.18416336231878 -68.0293246442,36.854036343389616 -69.85945166312932,38.68416336230788 -70.52932464421527,41.184163362308034 -69.85945166314443,43.68416336231224 -68.02932464422616,45.51429038124156 -65.52932464422601,46.184163362327496" stroke="#008000" stroke-linecap="round" stroke-linejoin="round"/><polyline fill="none" points="35.69961148508898,-17.93333976553301 38.199611485093186,-18.60321274660385 40.029738504022504,-20.433339765522113 40.69961148510845,-22.93333976552227 40.02973850403761,-25.433339765526473 38.19961148511935,-27.26346678445579 35.69961148511919,-27.93333976554173 33.199611485114985,-27.263466784470893 31.369484466185668,-25.43333976555263 30.699611485099723,-22.933339765552475 31.36948446617056,-20.43333976554827 33.19961148508882,-18.60321274661895 35.69961148508898,-17.933339765533006" stroke="#ffa500" stroke-linecap="round" stroke-linejoin="round"/><polyline fill="none" points="-11.343639904621318,-118.90530194210702 -8.843639904617113,-119.57517492317785 -7.013512885687794,-121.40530194209612 -6.343639904601849,-123.90530194209627 -7.013512885672687,-126.40530194210048 -8.843639904590948,-128.2354289610298 -11.343639904591106,-128.90530194211576 -13.843639904595312,-128.23542896104493 -15.673766923524633,-126.40530194212667 -16.34363990461058,-123.90530194212651 -15.673766923539743,-121.4053019421223 -13.843639904621483,-119.57517492319299 -11.343639904621325,-118.90530194210704" stroke="#ffa500" stroke-linecap="round" stroke-linejoin="round"/><polyline fill="none" points="-98.0369079384442,-13.219941066188433 -95.53690793844,-13.88981404725927 -93.70678091951068,-15.71994106617753 -93.03690793842473,-18.21994106617769 -93.70678091949557,-20.719941066181896 -95.53690793841383,-22.55006808511122 -98.03690793841399,-23.21994106619717 -100.5369079384182,-22.550068085126334 -102.36703495734751,-20.719941066208076 -103.03690793843346,-18.219941066207916 -102.36703495736262,-15.719941066203708 -100.53690793844436,-13.889814047274383 -98.0369079384442,-13.219941066188433" stroke="#00f" stroke-linecap="round" stroke-linejoin="round"/><polyline fill="none" points="70.34154366787898,-61.12200601279201 72.84154366788319,-61.791878993862845 74.67167068681252,-63.62200601278111 75.34154366789846,-66.12200601278127 74.67167068682762,-68.62200601278548 72.84154366790936,-70.45213303171481 70.3415436679092,-71.12200601280075 67.841543667905,-70.45213303172991 66.01141664897567,-68.62200601281165 65.34154366788971,-66.1220060128115 66.01141664896055,-63.62200601280729 67.84154366787881,-61.791878993877965 70.34154366787897,-61.12200601279201" stroke="#00f" stroke-linecap="round" stroke-linejoin="round"/><polyline fill="none" points="16.28646687346316,-64.60665309115616 18.78646687346737,-65.276526072227 20.616593892396697,-67.10665309114526 21.28646687348265,-69.60665309114542 20.616593892411817,-72.10665309114962 18.78646687349356,-73.93678011007896 16.2864668734934,-74.60665309116492 13.78646687348919,-73.93678011009409 11.956339854559861,-72.10665309117583 11.286466873473906,-69.60665309117567 11.956339854544735,-67.10665309117147 13.786466873462992,-65.27652607224213 16.28646687346315,-64.60665309115618" stroke="#ffa500" stroke-linecap="round" stroke-linejoin="round"/><polyline fill="none" points="-128.54147709447685,-33.67344738113343 -126.04147709447264,-34.34332036220426 -124.21135007554331,-36.173447381122514 -123.54147709445735,-38.67344738112267 -124.21135007552817,-41.173447381126884 -126.04147709444644,-43.003574400056216 -128.5414770944466,-43.673447381142175 -131.0414770944508,-43.003574400071344 -132.87160411338013,-41.17344738115309 -133.54147709446607,-38.67344738115293 -132.87160411339525,-36.17344738114872 -131.041477094477,-34.34332036221939 -128.54147709447682,-33.67344738113343" stroke="#ffa500" stroke-linecap="round" stroke-linejoin="round"/><polyline fill="none" points="-74.34308182643514,37.216983128837285 -71.84308182643092,36.54711014776646 -70.01295480750159,34.716983128848206 -69.34308182641563,32.21698312884804 -70.01295480748645,29.71698312884383 -71.84308182640471,27.886856109914497 -74.34308182640487,27.216983128828538 -76.84308182640909,27.886856109899362 -78.67320884533842,29.716983128817617 -79.34308182642438,32.21698312881777 -78.67320884535356,34.71698312882199 -76.8430818264353,36.54711014775132 -74.34308182643514,37.21698312883728" stroke="#008000" stroke-linecap="round" stroke-linejoin="round"/><polyline fill="none" points="-28.80669529163919,4.2876733109839575 -26.306695291634973,3.6178003299131323 -24.476568272705638,1.7876733109948773 -23.806695291619675,-0.7123266890052831 -24.4765682726905,-3.2123266890094997 -26.306695291608754,-5.0424537079388365 -28.806695291608914,-5.712326689024799 -31.30669529161313,-5.0424537079539755 -33.13682231054247,-3.212326689035721 -33.80669529162844,-0.7123266890355602 -33.13682231055761,1.7876733109686573 -31.306695291639357,3.617800329897995 -28.806695291639198,4.287673310983959" stroke="#ffa500" stroke-linecap="round" stroke-linejoin="round"/><polyline fill="none" points="-93.54300597201525,-79.29462340284958 -91.04300597201103,-79.9644963839204 -89.2128789530817,-81.79462340283865 -88.54300597199574,-84.29462340283881 -89.21287895306656,-86.79462340284303 -91.04300597198481,-88.62475042177238 -93.54300597198497,-89.29462340285833 -96.04300597198919,-88.62475042178751 -97.87313299091853,-86.79462340286926 -98.54300597200451,-84.2946234028691 -97.87313299093368,-81.79462340286489 -96.04300597201544,-79.96449638393554 -93.54300597201528,-79.29462340284957" stroke="#ffa500" stroke-linecap="round" stroke-linejoin="round"/><polyline fill="none" points="-64.1809514154109,38.56024883115522 -61.68095141540668,37.8903758500844 -59.85082439647734,36.06024883116615 -59.18095141539138,33.560248831165985 -59.850824396462194,31.060248831161765 -61.68095141538045,29.230121812232422 -64.1809514153806,28.560248831146453 -66.68095141538483,29.23012181221727 -68.51107843431417,31.06024883113552 -69.18095141540014,33.56024883113568 -68.51107843432932,36.0602488311399 -66.68095141541107,37.89037585006925 -64.18095141541092,38.56024883115522" stroke="#00f" stroke-linecap="round" stroke-linejoin="round"/><polyline fill="none" points="-5.168513213484832,4.348553267954501 -2.6685132134806113,3.678680286883684 -0.8383861945512674,1.8485532679654333 -0.16851321346529646,-0.6514467320347279 -0.8383861945361133,-3.1514467320389494 -2.668513213454364,-4.981573750968294 -5.168513213454525,-5.651446732054265 -7.668513213458747,-4.981573750983449 -9.498640232388091,-3.1514467320651987 -10.168513213474062,-0.6514467320650374 -9.498640232403247,1.8485532679391845 -7.668513213484998,3.6786802868685298 -5.168513213484836,4.348553267954502" stroke="#ffa500" stroke-linecap="round" stroke-linejoin="round"/><polyline fill="none" points="-71.1368658546741,-30.520523180144934 -68.63686585466988,-31.190396161215748 -66.80673883574053,-33.020523180134 -66.13686585465456,-35.52052318013416 -66.80673883572537,-38.02052318013838 -68.63686585464362,-39.85065019906773 -71.13686585464377,-40.5205231801537 -73.636865854648,-39.850650199082885 -75.46699287357734,-38.02052318016464 -76.13686585466331,-35.520523180164474 -75.4669928735925,-33.020523180160254 -73.63686585467426,-31.190396161230908 -71.1368658546741,-30.52052318014493" stroke="#ffa500" stroke-linecap="round" stroke-linejoin="round"/></svg>