<?xml version="1.0" ?><!DOCTYPE svg  PUBLIC '-//W3C//DTD SVG 1.1//EN'  'http://www.w3.org/Graphics/SVG/1.1/DTD/svg11.dtd'><svg height="398.000" viewBox="-195.000 -192.000 392.000 398.000" width="392.000" xmlns="http://www.w3.org/2000/svg"><line fill="none" stroke="none" stroke-linecap="round" stroke-width="2.0" x1="0.0" x2="0.0" y1="0.0" y2="0.0"/><polygon fill="none" fill-rule="evenodd" points="0.0,0.0 0.0,0.0 0.0,0.0" stroke-linejoin="round"/><polyline fill="none" points="-3.017674113667699,-154.22285818350267 -0.5176741136672307,-154.89273116457971 1.312452905255749,-156.72285818350147 1.9823258863344497,-159.2228581835015 1.312452905257405,-161.72285818350196 -0.5176741136643626,-163.55298520242494 -3.0176741136643876,-164.22285818350363 -5.517674113664857,-163.55298520242658 -7.347801132587838,-161.72285818350483 -8.01767411366654,-159.2228581835048 -7.347801132589497,-156.72285818350431 -5.51767411366773,-154.89273116458133 -3.0176741136677045,-154.22285818350264" stroke="#ffa500" stroke-linecap="round" stroke-linejoin="round"/><polyline fill="none" points="16.74344640562728,-154.73296620391426 19.24344640562775,-155.4028391849913 21.073573424550734,-157.23296620391307 21.743446405629438,-159.7329662039131 21.073573424552396,-162.23296620391358 19.24344640563063,-164.06309322283656 16.743446405630603,-164.73296620391525 14.243446405630133,-164.0630932228382 12.41331938670715,-162.23296620391645 11.743446405628443,-159.73296620391642 12.413319386705485,-157.23296620391594 14.24344640562725,-155.40283918499296 16.743446405627274,-154.73296620391426" stroke="#ffa500" stroke-linecap="round" stroke-linejoin="round"/><polyline fill="none" points="34.993788924850364,-170.54782591927489 37.49378892485083,-171.21769890035193 39.32391594377382,-173.0478259192737 39.993788924852524,-175.54782591927372 39.32391594377548,-178.0478259192742 37.49378892485372,-179.87795293819718 34.99378892485369,-180.54782591927588 32.49378892485322,-179.87795293819883 30.663661905930233,-178.04782591927707 29.993788924851525,-175.54782591927705 30.663661905928564,-173.04782591927656 32.49378892485033,-171.21769890035358 34.99378892485035,-170.54782591927489" stroke="#ffa500" stroke-linecap="round" stroke-linejoin="round"/><polyline fill="none" points="35.96546753331907,-159.7587191442731 38.46546753331955,-160.42859212535015 40.295594552242534,-162.2587191442719 40.965467533321245,-164.75871914427194 40.29559455224421,-167.25871914427242 38.465467533322446,-169.0888461631954 35.965467533322425,-169.7587191442741 33.46546753332195,-169.08884616319705 31.635340514398962,-167.2587191442753 30.96546753332025,-164.75871914427526 31.635340514397285,-162.25871914427478 33.46546753331905,-160.4285921253518 35.96546753331908,-159.75871914427307" stroke="#ffa500" stroke-linecap="round" stroke-linejoin="round"/><polyline fill="none" points="-33.371706413055215,39.2107786764912 -30.871706413054742,38.54090569541417 -29.04157939413175,36.7107786764924 -28.37170641305304,34.21077867649238 -29.041579394130075,31.710778676491906 -30.871706413051836,29.880651657568915 -33.37170641305186,29.210778676490204 -35.87170641305234,29.88065165756724 -37.70183343197533,31.710778676489 -38.37170641305404,34.21077867648903 -37.70183343197701,36.710778676489504 -35.87170641305524,38.5409056954125 -33.371706413055215,39.21077867649121" stroke="#00f" stroke-linecap="round" stroke-linejoin="round"/><polyline fill="none" points="-4.257113620090378,-83.55827472670944 -1.7571136200899016,-84.22814770778648 0.07301339883309077,-86.05827472670823 0.7428863799118058,-88.55827472670826 0.0730133988347732,-91.05827472670873 -1.7571136200869875,-92.88840174563173 -4.257113620087013,-93.55827472671044 -6.757113620087489,-92.8884017456334 -8.587240639010483,-91.05827472671164 -9.2571136200892,-88.55827472671162 -8.587240639012169,-86.05827472671113 -6.757113620090409,-84.22814770778814 -4.257113620090383,-83.55827472670943" stroke="#00f" stroke-linecap="round" stroke-linejoin="round"/><polyline fill="none" points="28.594247547803015,-157.59718857312006 31.09424754780349,-158.26706155419708 32.924374566726485,-160.09718857311884 33.5942475478052,-162.59718857311887 32.924374566728176,-165.09718857311935 31.094247547806418,-166.92731559204236 28.594247547806393,-167.5971885731211 26.094247547805914,-166.92731559204407 24.264120528882916,-165.0971885731223 23.594247547804198,-162.59718857312228 24.264120528881225,-160.0971885731218 26.094247547802983,-158.2670615541988 28.594247547803008,-157.59718857312006" stroke="#ffa500" stroke-linecap="round" stroke-linejoin="round"/><polyline fill="none" points="87.2936964191645,-164.8111903484468 89.79369641916499,-165.4810633295238 91.62382343808798,-167.31119034844556 92.29369641916671,-169.8111903484456 91.62382343808969,-172.31119034844608 89.79369641916793,-174.14131736736908 87.2936964191679,-174.8111903484478 84.79369641916742,-174.1413173673708 82.96356940024442,-172.31119034844903 82.2936964191657,-169.811190348449 82.96356940024272,-167.31119034844852 84.79369641916448,-165.4810633295255 87.2936964191645,-164.8111903484468" stroke="#ffa500" stroke-linecap="round" stroke-linejoin="round"/><polyline fill="none" points="2.892824860460969,-73.96207668163845 5.39282486046145,-74.63194966271547 7.22295187938445,-76.46207668163723 7.892824860463174,-78.96207668163726 7.222951879386148,-81.46207668163774 5.392824860464391,-83.29220370056073 2.892824860464366,-83.96207668163946 0.39282486046388554,-83.29220370056244 -1.4373021584591148,-81.46207668164068 -2.1071751395378393,-78.96207668164065 -1.437302158460815,-76.46207668164017 0.39282486046094056,-74.63194966271718 2.8928248604609657,-73.96207668163845" stroke="#00f" stroke-linecap="round" stroke-linejoin="round"/><polyline fill="none" points="40.03593562404363,-38.655303027121 42.535935624044114,-39.32517600819802 44.366062642967115,-41.15530302711978 45.03593562404584,-43.65530302711981 44.36606264296882,-46.15530302712029 42.53593562404706,-47.98543004604329 40.035935624047035,-48.65530302712202 37.53593562404655,-47.985430046044996 35.70580860512355,-46.15530302712324 35.035935624044825,-43.65530302712321 35.705808605121845,-41.15530302712273 37.5359356240436,-39.325176008199726 40.03593562404363,-38.655303027121" stroke="#00f" stroke-linecap="round" stroke-linejoin="round"/><polyline fill="none" points="86.99887180404697,-130.35657635145265 89.49887180404745,-131.02644933252967 91.32899882297046,-132.85657635145142 91.99887180404919,-135.35657635145145 91.32899882297217,-137.85657635145193 89.49887180405041,-139.68670337037494 86.99887180405038,-140.35657635145367 84.4988718040499,-139.68670337037665 82.66874478512689,-137.8565763514549 81.99887180404816,-135.35657635145486 82.66874478512518,-132.85657635145438 84.49887180404694,-131.02644933253137 86.99887180404697,-130.35657635145265" stroke="#ffa500" stroke-linecap="round" stroke-linejoin="round"/><polyline fill="none" points="104.19154500628264,-119.9169533340628 106.69154500628312,-120.58682631513982 108.52167202520613,-122.41695333406157 109.19154500628485,-124.9169533340616 108.52167202520783,-127.41695333406209 106.69154500628608,-129.24708035298508 104.19154500628605,-129.9169533340638 101.69154500628557,-129.24708035298679 99.86141798736256,-127.41695333406503 99.19154500628382,-124.916953334065 99.86141798736084,-122.41695333406452 101.6915450062826,-120.58682631514151 104.19154500628262,-119.91695333406277" stroke="#ffa500" stroke-linecap="round" stroke-linejoin="round"/><polyline fill="none" points="106.6056273892991,-142.32245166165922 109.10562738929958,-142.99232464273624 110.93575440822259,-144.822451661658 111.60562738930133,-147.32245166165802 110.93575440822431,-149.8224516616585 109.10562738930255,-151.6525786805815 106.60562738930253,-152.32245166166024 104.10562738930204,-151.65257868058322 102.27550037037904,-149.82245166166146 101.6056273893003,-147.32245166166143 102.27550037037732,-144.82245166166095 104.10562738929906,-142.99232464273794 106.60562738929909,-142.32245166165922" stroke="#ffa500" stroke-linecap="round" stroke-linejoin="round"/><polyline fill="none" points="15.52397108542304,4.291857647170465 18.02397108542353,3.621984666093451 19.85409810434654,1.7918576471717005 20.523971085425277,-0.7081423528283253 19.854098104348264,-3.208142352828813 18.023971085426513,-5.038269371751825 15.523971085426489,-5.7081423528305635 13.023971085426002,-5.03826937175355 11.19384406650299,-3.2081423528318007 10.523971085424252,-0.7081423528317754 11.193844066501265,1.7918576471687122 13.023971085423014,3.621984666091725 15.523971085423039,4.291857647170464" stroke="#00f" stroke-linecap="round" stroke-linejoin="round"/><polyline fill="none" points="119.64603742372958,-98.98178877759955 122.14603742373006,-99.65166175867655 123.97616444265307,-101.4817887775983 124.64603742373181,-103.98178877759833 123.9761644426548,-106.48178877759881 122.14603742373306,-108.31191579652182 119.64603742373303,-108.98178877760056 117.14603742373255,-108.31191579652355 115.31591040480954,-106.4817887776018 114.6460374237308,-103.98178877760178 115.31591040480781,-101.4817887776013 117.14603742372955,-99.65166175867827 119.64603742372958,-98.98178877759953" stroke="#ffa500" stroke-linecap="round" stroke-linejoin="round"/><polyline fill="none" points="120.96113624388481,-106.14442805930008 123.46113624388529,-106.81430104037709 125.29126326280831,-108.64442805929883 125.96113624388705,-111.14442805929886 125.29126326281005,-113.64442805929934 123.4611362438883,-115.47455507822237 120.96113624388828,-116.1444280593011 118.46113624388778,-115.4745550782241 116.63100922496476,-113.64442805930236 115.96113624388602,-111.14442805930233 116.63100922496302,-108.64442805930184 118.46113624388477,-106.81430104037882 120.9611362438848,-106.14442805930008" stroke="#ffa500" stroke-linecap="round" stroke-linejoin="round"/><polyline fill="none" points="49.80031967823098,-26.985884536832152 52.30031967823147,-27.65575751790916 54.13044669715448,-29.485884536830905 54.80031967823323,-31.98588453683093 54.13044669715622,-34.48588453683142 52.30031967823448,-36.31601155575444 49.80031967823445,-36.98588453683319 47.30031967823396,-36.316011555756184 45.47019265931094,-34.48588453683444 44.80031967823219,-31.985884536834416 45.4701926593092,-29.485884536833925 47.30031967823094,-27.655757517910907 49.80031967823097,-26.98588453683216" stroke="#008000" stroke-linecap="round" stroke-linejoin="round"/><polyline fill="none" points="151.51141019279774,-76.92464603325372 154.01141019279822,-77.59451901433073 155.84153721172123,-79.42464603325247 156.51141019279999,-81.9246460332525 155.841537211723,-84.424646033253 154.01141019280124,-86.25477305217602 151.5114101928012,-86.92464603325477 149.01141019280072,-86.25477305217777 147.18128317387772,-84.42464603325602 146.51141019279896,-81.924646033256 147.18128317387595,-79.4246460332555 149.0114101927977,-77.59451901433248 151.51141019279774,-76.92464603325372" stroke="#ffa500" stroke-linecap="round" stroke-linejoin="round"/><polyline fill="none" points="57.902804208390194,-33.18485881491912 60.40280420839069,-33.854731795996116 62.23293122731371,-35.68485881491786 62.90280420839247,-38.18485881491789 62.23293122731547,-40.684858814918385 60.402804208393725,-42.51498583384141 57.9028042083937,-43.18485881492016 55.4028042083932,-42.51498583384316 53.57267718947018,-40.68485881492142 52.90280420839142,-38.18485881492139 53.57267718946842,-35.684858814920894 55.402804208390165,-33.85473179599787 57.902804208390194,-33.18485881491912" stroke="#00f" stroke-linecap="round" stroke-linejoin="round"/><polyline fill="none" points="97.62419717503575,-63.01118869128683 100.12419717503624,-63.68106167236383 101.95432419395927,-65.51118869128557 102.62419717503802,-68.0111886912856 101.95432419396101,-70.5111886912861 100.12419717503927,-72.34131571020912 97.62419717503924,-73.01118869128787 95.12419717503874,-72.34131571021088 93.29407015611572,-70.51118869128914 92.62419717503697,-68.0111886912891 93.29407015611396,-65.51118869128861 95.1241971750357,-63.68106167236558 97.62419717503573,-63.011188691286826" stroke="#00f" stroke-linecap="round" stroke-linejoin="round"/><polyline fill="none" points="163.07264182829041,-66.23628368957422 165.5726418282909,-66.90615667065121 167.40276884721393,-68.73628368957296 168.0726418282927,-71.23628368957299 167.4027688472157,-73.73628368957348 165.57264182829397,-75.5664107084965 163.07264182829394,-76.23628368957526 160.57264182829346,-75.56641070849827 158.74251480937042,-73.73628368957652 158.07264182829167,-71.2362836895765 158.74251480936866,-68.736283689576 160.5726418282904,-66.90615667065296 163.07264182829041,-66.23628368957421" stroke="#ffa500" stroke-linecap="round" stroke-linejoin="round"/><polyline fill="none" points="155.24893423209602,-66.96660745783903 157.74893423209653,-67.63648043891602 159.57906125101957,-69.46660745783777 160.24893423209832,-71.9666074578378 159.57906125102133,-74.4666074578383 157.7489342320996,-76.29673447676133 155.24893423209957,-76.96660745784008 152.74893423209906,-76.29673447676309 150.91880721317602,-74.46660745784135 150.24893423209727,-71.96660745784132 150.91880721317426,-69.46660745784082 152.748934232096,-67.63648043891779 155.24893423209602,-66.96660745783903" stroke="#ffa500" stroke-linecap="round" stroke-linejoin="round"/><polyline fill="none" points="127.6118302158171,-51.10683986112236 130.1118302158176,-51.77671284219935 131.94195723474064,-53.60683986112109 132.6118302158194,-56.10683986112112 131.9419572347424,-58.606839861121614 130.11183021582067,-60.43696688004465 127.61183021582065,-61.10683986112341 125.11183021582015,-60.43696688004642 123.28170319689711,-58.60683986112468 122.61183021581834,-56.106839861124655 123.28170319689534,-53.60683986112416 125.11183021581708,-51.77671284220112 127.61183021581711,-51.10683986112236" stroke="#ffa500" stroke-linecap="round" stroke-linejoin="round"/><polyline fill="none" points="78.244138476319,-12.625355474427021 80.74413847631949,-13.295228455504011 82.57426549524253,-15.125355474425747 83.2441384763213,-17.625355474425774 82.5742654952443,-20.125355474426275 80.74413847632258,-21.95548249334931 78.24413847632255,-22.625355474428076 75.74413847632205,-21.955482493351088 73.91401145739901,-20.12535547442935 73.24413847632024,-17.625355474429327 73.91401145739724,-15.125355474428826 75.74413847631897,-13.29522845550579 78.244138476319,-12.625355474427023" stroke="#00f" stroke-linecap="round" stroke-linejoin="round"/><polyline fill="none" points="69.11053879953789,-10.536421262583278 71.61053879953839,-11.206294243660267 73.44066581846143,-13.036421262582001 74.1105387995402,-15.536421262582026 73.4406658184632,-18.03642126258253 71.61053879954147,-19.866548281505565 69.11053879954144,-20.536421262584334 66.61053879954095,-19.866548281507345 64.78041178061791,-18.03642126258561 64.11053879953914,-15.536421262585584 64.78041178061613,-13.036421262585081 66.61053879953786,-11.206294243662043 69.11053879953789,-10.536421262583275" stroke="#00f" stroke-linecap="round" stroke-linejoin="round"/><polyline fill="none" points="84.70374506366541,-22.407719237272158 87.2037450636659,-23.077592218349142 89.03387208258894,-24.907719237270875 89.70374506366771,-27.4077192372709 89.03387208259072,-29.907719237271404 87.20374506366899,-31.737846256194445 84.70374506366896,-32.40771923727321 82.20374506366846,-31.737846256196228 80.37361804474543,-29.907719237274495 79.70374506366666,-27.40771923727447 80.37361804474364,-24.907719237273966 82.20374506366537,-23.077592218350926 84.7037450636654,-22.407719237272154" stroke="#00f" stroke-linecap="round" stroke-linejoin="round"/><polyline fill="none" points="173.738850992761,9.756904147808669 176.2388509927615,9.087031166731684 178.06897801168455,7.256904147809951 178.73885099276333,4.7569041478099265 178.06897801168634,2.2569041478094225 176.2388509927646,0.42677712888638086 173.73885099276458,-0.24309585219239171 171.23885099276407,0.42677712888459085 169.40872397384103,2.2569041478063228 168.73885099276225,4.756904147806347 169.40872397383924,7.256904147806852 171.23885099276097,9.087031166729895 173.738850992761,9.756904147808669" stroke="#ffa500" stroke-linecap="round" stroke-linejoin="round"/><polyline fill="none" points="180.03289063721581,20.070453638214822 182.53289063721633,19.40058065713784 184.36301765613936,17.570453638216108 185.03289063721815,15.070453638216083 184.36301765614115,12.570453638215577 182.53289063721942,10.740326619292533 180.0328906372194,10.070453638213758 177.53289063721888,10.74032661929074 175.70276361829585,12.57045363821247 175.03289063721706,15.070453638212495 175.70276361829406,17.570453638213003 177.5328906372158,19.400580657136047 180.03289063721581,20.070453638214822" stroke="#ffa500" stroke-linecap="round" stroke-linejoin="round"/><polyline fill="none" points="158.22332046882877,20.279506760360327 160.7233204688293,19.60963377928335 162.55344748775232,17.77950676036162 163.2233204688311,15.279506760361595 162.5534474877541,12.779506760361087 160.72332046883238,10.94937974143804 158.22332046883236,10.279506760359261 155.72332046883184,10.949379741436239 153.8931934499088,12.779506760357968 153.22332046883002,15.279506760357993 153.893193449907,17.7795067603585 155.72332046882872,19.60963377928155 158.22332046882875,20.279506760360327" stroke="#ffa500" stroke-linecap="round" stroke-linejoin="round"/><polyline fill="none" points="164.53215939972702,14.307103092831719 167.03215939972753,13.637230111754743 168.86228641865057,11.807103092833014 169.53215939972935,9.307103092832989 168.8622864186524,6.80710309283248 167.03215939973066,4.976976073909431 164.53215939973063,4.30710309283065 162.03215939973012,4.976976073907626 160.20203238080708,6.8071030928293546 159.5321593997283,9.30710309282938 160.20203238080526,11.80710309282989 162.032159399727,13.63723011175294 164.53215939972702,14.307103092831722" stroke="#ffa500" stroke-linecap="round" stroke-linejoin="round"/><polyline fill="none" points="132.909310471382,25.55637984539227 135.40931047138253,24.886506864315297 137.2394374903056,23.05637984539357 137.90931047138437,20.556379845393547 137.2394374903074,18.05637984539304 135.40931047138568,16.226252826469988 132.90931047138565,15.556379845391204 130.40931047138514,16.226252826468176 128.57918345246208,18.056379845389902 127.9093104713833,20.556379845389927 128.57918345246026,23.05637984539044 130.40931047138199,24.886506864313493 132.909310471382,25.55637984539228" stroke="#ffa500" stroke-linecap="round" stroke-linejoin="round"/><polyline fill="none" points="115.56372314766136,1.5964326447381563 118.06372314766188,0.926559663661184 119.89385016658493,-0.903567355260542 120.56372314766371,-3.4035673552605674 119.89385016658673,-5.903567355261078 118.063723147665,-7.733694374184132 115.56372314766497,-8.403567355262918 113.06372314766446,-7.733694374185947 111.23359612874141,-5.903567355264221 110.56372314766263,-3.403567355264196 111.23359612873959,-0.903567355263684 113.06372314766132,0.9265596636593709 115.56372314766135,1.5964326447381583" stroke="#00f" stroke-linecap="round" stroke-linejoin="round"/><polyline fill="none" points="65.08796056128064,1.0944388511935408 67.58796056128115,0.42456587011657076 69.4180875802042,-1.405561148805154 70.08796056128298,-3.9055611488051794 69.41808758020602,-6.405561148805692 67.58796056128429,-8.235688167728748 65.08796056128426,-8.905561148807536 62.58796056128375,-8.235688167730567 60.75783354236069,-6.405561148808843 60.0879605612819,-3.905561148808818 60.757833542358874,-1.4055611488083053 62.587960561280596,0.42456587011475144 65.08796056128062,1.0944388511935412" stroke="#ffa500" stroke-linecap="round" stroke-linejoin="round"/><polyline fill="none" points="137.28958212180092,84.36953170635634 139.78958212180143,83.69965872527938 141.6197091407245,81.86953170635765 142.28958212180328,79.36953170635762 141.61970914072631,76.86953170635711 139.78958212180459,75.03940468743404 137.28958212180456,74.36953170635525 134.78958212180405,75.03940468743221 132.95945510288098,76.86953170635394 132.2895821218022,79.36953170635397 132.95945510287916,81.86953170635448 134.7895821218009,83.69965872527754 137.28958212180092,84.36953170635634" stroke="#ffa500" stroke-linecap="round" stroke-linejoin="round"/><polyline fill="none" points="150.92163190088573,85.01095518796589 153.42163190088624,84.34108220688893 155.2517589198093,82.51095518796721 155.9216319008881,80.01095518796718 155.25175891981112,77.51095518796667 153.4216319008894,75.68082816904361 150.92163190088937,75.01095518796481 148.42163190088885,75.68082816904177 146.5915048819658,77.51095518796349 145.921631900887,80.01095518796352 146.59150488196397,82.51095518796403 148.4216319008857,84.3410822068871 150.92163190088573,85.01095518796589" stroke="#ffa500" stroke-linecap="round" stroke-linejoin="round"/><polyline fill="none" points="21.31000120017671,37.58959960334415 23.810001200177226,36.919726622267184 25.64012821910029,35.08959960334546 26.310001200179087,32.589599603345434 25.640128219102124,30.089599603344915 23.810001200180405,28.25947258442185 21.31000120018038,27.589599603343054 18.81000120017986,28.259472584420013 16.979874181256797,30.089599603341732 16.310001200178,32.58959960334176 16.97987418125496,35.08959960334228 18.81000120017668,36.919726622265344 21.310001200176703,37.58959960334414" stroke="#f00" stroke-linecap="round" stroke-linejoin="round"/><polyline fill="none" points="138.29483679777985,93.83131922249642 140.79483679778036,93.16144624141945 142.62496381670343,91.33131922249774 143.29483679778224,88.83131922249771 142.62496381670528,86.3313192224972 140.79483679778355,84.50119220357413 138.29483679778352,83.83131922249534 135.794836797783,84.5011922035723 133.96470977885994,86.33131922249402 133.29483679778113,88.83131922249405 133.9647097788581,91.33131922249457 135.79483679777982,93.16144624141764 138.29483679777985,93.83131922249643" stroke="#ffa500" stroke-linecap="round" stroke-linejoin="round"/><polyline fill="none" points="127.64903105214553,77.43402435184731 130.14903105214606,76.76415137077035 131.97915807106912,74.93402435184863 132.64903105214793,72.4340243518486 131.97915807107097,69.93402435184808 130.14903105214924,68.10389733292502 127.64903105214921,67.43402435184622 125.14903105214869,68.10389733292317 123.31890403322562,69.93402435184488 122.64903105214681,72.43402435184491 123.31890403322376,74.93402435184544 125.14903105214547,76.7641513707685 127.6490310521455,77.43402435184731" stroke="#ffa500" stroke-linecap="round" stroke-linejoin="round"/><polyline fill="none" points="157.67446536766897,106.19614070589837 160.17446536766948,105.52626772482142 162.00459238659255,103.69614070589971 162.67446536767136,101.19614070589968 162.0045923865944,98.69614070589915 160.17446536767267,96.86601368697609 157.67446536767264,96.19614070589728 155.17446536767213,96.86601368697423 153.34433834874906,98.69614070589594 152.67446536767025,101.19614070589597 153.34433834874721,103.6961407058965 155.17446536766892,105.52626772481956 157.67446536766894,106.19614070589837" stroke="#ffa500" stroke-linecap="round" stroke-linejoin="round"/><polyline fill="none" points="52.16102234945353,38.56506064049563 54.66102234945405,37.89518765941868 56.49114936837712,36.06506064049697 57.16102234945593,33.56506064049694 56.491149368378984,31.065060640496416 54.66102234945727,29.234933621573344 52.16102234945724,28.565060640494536 49.661022349456715,29.23493362157149 47.83089533053364,31.065060640493204 47.16102234945483,33.56506064049323 47.83089533053178,36.065060640493755 49.661022349453496,37.89518765941683 52.161022349453525,38.56506064049564" stroke="#00f" stroke-linecap="round" stroke-linejoin="round"/><polyline fill="none" points="144.73012027048762,115.20431472909192 147.23012027048813,114.53444174801497 149.0602472894112,112.70431472909326 149.73012027049,110.20431472909323 149.06024728941304,107.7043147290927 147.23012027049134,105.87418771016962 144.7301202704913,105.20431472909081 142.2301202704908,105.87418771016776 140.39999325156774,107.70431472908948 139.73012027048892,110.2043147290895 140.39999325156586,112.70431472909003 142.23012027048756,114.53444174801311 144.7301202704876,115.20431472909192" stroke="#ffa500" stroke-linecap="round" stroke-linejoin="round"/><polyline fill="none" points="122.85522487978605,130.3874927072219 125.35522487978658,129.71761972614496 127.18535189870965,127.88749270722325 127.85522487978847,125.38749270722322 127.18535189871152,122.88749270722269 125.3552248797898,121.05736568829961 122.85522487978977,120.3874927072208 120.35522487978925,121.05736568829775 118.52509786086617,122.88749270721947 117.85522487978736,125.3874927072195 118.5250978608643,127.88749270722002 120.35522487978602,129.71761972614308 122.85522487978605,130.3874927072219" stroke="#ffa500" stroke-linecap="round" stroke-linejoin="round"/><polyline fill="none" points="103.17058947651746,149.1517364460866 105.67058947651799,148.48186346500967 107.50071649544107,146.65173644608797 108.17058947651988,144.15173644608794 107.50071649544293,141.6517364460874 105.67058947652122,139.8216094271643 103.17058947652119,139.1517364460855 100.67058947652066,139.82160942716243 98.84046245759758,141.65173644608413 98.17058947651877,144.15173644608416 98.84046245759572,146.6517364460847 100.67058947651743,148.4818634650078 103.17058947651746,149.1517364460866" stroke="#ffa500" stroke-linecap="round" stroke-linejoin="round"/><polyline fill="none" points="97.070652400035,160.90668614857793 99.57065240003553,160.236813167501 101.4007794189586,158.4066861485793 102.07065240003743,155.90668614857927 101.40077941896048,153.40668614857873 99.57065240003877,151.57655912965564 97.07065240003874,150.90668614857682 94.57065240003821,151.57655912965376 92.74052538111513,153.40668614857546 92.07065240003631,155.9066861485755 92.74052538111324,158.40668614857603 94.57065240003496,160.23681316749912 97.07065240003499,160.90668614857793" stroke="#ffa500" stroke-linecap="round" stroke-linejoin="round"/><polyline fill="none" points="16.699315029492276,39.57045095511598 19.199315029492805,38.90057797403904 21.029442048415888,37.07045095511733 21.69931502949471,34.5704509551173 21.029442048417767,32.07045095511677 19.19931502949606,30.240323936193683 16.699315029496034,29.57045095511486 14.199315029495505,30.2403239361918 12.36918801057242,32.07045095511351 11.699315029493599,34.570450955113536 12.36918801057054,37.07045095511407 14.199315029492247,38.900577974037155 16.699315029492272,39.57045095511598" stroke="#00f" stroke-linecap="round" stroke-linejoin="round"/><polyline fill="none" points="7.405648403879391,78.18497156716172 9.90564840387992,77.51509858608479 11.735775422803007,75.68497156716309 12.40564840388183,73.18497156716306 11.735775422804892,70.68497156716253 9.905648403883186,68.85484454823944 7.405648403883161,68.18497156716062 4.90564840388263,68.85484454823755 3.0755213849595426,70.68497156715925 2.4056484038807175,73.18497156715928 3.075521384957655,75.6849715671598 4.90564840387936,77.5150985860829 7.405648403879386,78.18497156716172" stroke="#00f" stroke-linecap="round" stroke-linejoin="round"/><polyline fill="none" points="69.53881273371144,171.2717039862363 72.03881273371196,170.60183100515937 73.86893975263506,168.77170398623767 74.53881273371388,166.27170398623764 73.86893975263695,163.7717039862371 72.03881273371525,161.941576967314 69.53881273371522,161.27170398623517 67.03881273371469,161.9415769673121 65.2086857147916,163.7717039862338 64.53881273371277,166.27170398623383 65.20868571478971,168.77170398623437 67.03881273371141,170.60183100515746 69.53881273371144,171.2717039862363" stroke="#ffa500" stroke-linecap="round" stroke-linejoin="round"/><polyline fill="none" points="65.80315916774468,158.2799830561789 68.3031591677452,157.61011007510197 70.1332861866683,155.77998305618027 70.80315916774713,153.27998305618024 70.13328618667019,150.7799830561797 68.30315916774849,148.9498560372566 65.80315916774846,148.27998305617777 63.30315916774793,148.9498560372547 61.473032148824835,150.7799830561764 60.803159167746,153.27998305617643 61.47303214882294,155.77998305617697 63.30315916774464,157.61011007510007 65.80315916774467,158.2799830561789" stroke="#ffa500" stroke-linecap="round" stroke-linejoin="round"/><polyline fill="none" points="3.3150708258996135,108.83209745435757 5.815070825900149,108.16222447328063 7.645197844823243,106.33209745435893 8.315070825902076,103.8320974543589 7.6451978448251445,101.33209745435836 5.815070825903442,99.50197043543527 3.3150708259034163,98.83209745435643 0.8150708259028807,99.50197043543336 -1.0150561930202147,101.33209745435506 -1.6849291740990489,103.8320974543551 -1.0150561930221194,106.33209745435563 0.8150708258995818,108.16222447327873 3.315070825899607,108.83209745435757" stroke="#00f" stroke-linecap="round" stroke-linejoin="round"/><polyline fill="none" points="64.58983925415619,169.5872206502209 67.08983925415673,168.91734766914396 68.91996627307982,167.08722065022226 69.58983925415866,164.58722065022224 68.91996627308173,162.0872206502217 67.08983925416003,160.2570936312986 64.58983925416,159.58722065021976 62.08983925415946,160.2570936312967 60.25971223523636,162.0872206502184 59.58983925415752,164.58722065021843 60.259712235234446,167.08722065021897 62.089839254156146,168.91734766914206 64.58983925415617,169.5872206502209" stroke="#ffa500" stroke-linecap="round" stroke-linejoin="round"/><polyline fill="none" points="34.86488710537161,72.19572568731974 37.36488710537215,71.52585270624282 39.19501412429525,69.69572568732112 39.86488710537409,67.19572568732109 39.19501412429716,64.69572568732055 37.36488710537546,62.865598668397446 34.86488710537543,62.19572568731861 32.36488710537489,62.865598668395535 30.53476008645179,64.69572568731724 29.86488710537295,67.19572568731726 30.534760086449875,69.6957256873178 32.36488710537157,71.52585270624091 34.8648871053716,72.19572568731975" stroke="#00f" stroke-linecap="round" stroke-linejoin="round"/><polyline fill="none" points="30.76753858053074,191.73393316518704 33.26753858053128,191.0640601841101 35.09766559945438,189.2339331651884 35.76753858053322,186.73393316518838 35.0976655994563,184.23393316518784 33.2675385805346,182.40380614626474 30.767538580534573,181.7339331651859 28.267538580534033,182.40380614626284 26.43741156161093,184.23393316518454 25.767538580532086,186.73393316518457 26.437411561609007,189.2339331651851 28.267538580530704,191.0640601841082 30.76753858053073,191.73393316518704" stroke="#ffa500" stroke-linecap="round" stroke-linejoin="round"/><polyline fill="none" points="35.47048569262768,170.0069986733555 37.97048569262822,169.33712569227856 39.800612711551324,167.50699867335686 40.47048569263017,165.00699867335683 39.80061271155325,162.5069986733563 37.970485692631556,160.6768716544332 35.47048569263153,160.00699867335436 32.97048569263099,160.67687165443127 31.140358673707883,162.50699867335297 30.470485692629037,165.006998673353 31.140358673705958,167.50699867335354 32.970485692627655,169.33712569227663 35.47048569262768,170.00699867335547" stroke="#ffa500" stroke-linecap="round" stroke-linejoin="round"/><polyline fill="none" points="16.301536496971497,175.43420658552878 18.801536496972037,174.76433360445188 20.631663515895145,172.93420658553018 21.30153649697399,170.43420658553015 20.631663515897074,167.9342065855296 18.80153649697538,166.10407956660652 16.301536496975356,165.43420658552768 13.801536496974814,166.10407956660458 11.971409478051706,167.93420658552628 11.301536496972858,170.4342065855263 11.971409478049775,172.93420658552685 13.801536496971469,174.76433360444997 16.301536496971494,175.4342065855288" stroke="#ffa500" stroke-linecap="round" stroke-linejoin="round"/><polyline fill="none" points="27.617727007144623,159.08506398589722 30.117727007145167,158.41519100482031 31.947854026068274,156.5850639858986 32.617727007147124,154.08506398589859 31.947854026070207,151.58506398589805 30.117727007148513,149.75493696697492 27.61772700714849,149.08506398589608 25.117727007147945,149.754936966973 23.287599988224834,151.5850639858947 22.617727007145984,154.08506398589472 23.287599988222897,156.58506398589526 25.11772700714459,158.41519100481838 27.617727007144616,159.08506398589722" stroke="#ffa500" stroke-linecap="round" stroke-linejoin="round"/><polyline fill="none" points="-7.341487845253984,79.66742522656641 -4.84148784525344,78.99755224548949 -3.011360826330329,77.1674252265678 -2.341487845251477,74.66742522656777 -3.0113608263283913,72.16742522656723 -4.841487845250084,70.33729820764412 -7.341487845250109,69.66742522656527 -9.841487845250654,70.33729820764219 -11.671614864173765,72.16742522656388 -12.341487845252619,74.6674252265639 -11.671614864175705,77.16742522656445 -9.841487845254013,78.99755224548755 -7.3414878452539885,79.66742522656641" stroke="#00f" stroke-linecap="round" stroke-linejoin="round"/><polyline fill="none" points="-30.265596871276568,194.04032498483264 -27.76559687127602,193.37045200375573 -25.935469852352906,191.54032498483403 -25.265596871274052,189.040324984834 -25.935469852350966,186.54032498483346 -27.765596871272656,184.71019796591034 -30.26559687127268,184.04032498483147 -32.765596871273225,184.71019796590838 -34.59572389019634,186.54032498483008 -35.26559687127519,189.0403249848301 -34.59572389019828,191.54032498483065 -32.765596871276585,193.37045200375377 -30.26559687127656,194.04032498483264" stroke="#ffa500" stroke-linecap="round" stroke-linejoin="round"/><polyline fill="none" points="-52.08804354148255,121.15681201287768 -49.588043541482,120.48693903180077 -47.75791652255889,118.65681201287909 -47.08804354148003,116.15681201287906 -47.75791652255694,113.6568120128785 -49.588043541478626,111.82668499395538 -52.088043541478655,111.15681201287653 -54.5880435414792,111.82668499395344 -56.41817056040232,113.65681201287512 -57.08804354148118,116.15681201287515 -56.41817056040427,118.6568120128757 -54.588043541482584,120.48693903179883 -52.08804354148256,121.15681201287768" stroke="#00f" stroke-linecap="round" stroke-linejoin="round"/><polyline fill="none" points="-54.04332044121782,189.22180417156167 -51.543320441217276,188.55193119048477 -49.71319342229416,186.72180417156306 -49.0433204412153,184.22180417156304 -49.71319342229221,181.7218041715625 -51.54332044121389,179.89167715263937 -54.04332044121392,179.2218041715605 -56.54332044121447,179.8916771526374 -58.37344746013759,181.7218041715591 -59.04332044121645,184.22180417155914 -58.373447460139545,186.72180417155968 -56.54332044121786,188.5519311904828 -54.04332044121783,189.22180417156167" stroke="#ffa500" stroke-linecap="round" stroke-linejoin="round"/><polyline fill="none" points="-46.74002957413675,186.28103175450985 -44.2400295741362,185.61115877343295 -42.40990255521308,183.78103175451125 -41.74002957413422,181.28103175451122 -42.409902555211126,178.78103175451068 -44.24002957413281,176.95090473558756 -46.74002957413284,176.2810317545087 -49.24002957413339,176.9509047355856 -51.07015659305651,178.78103175450727 -51.74002957413538,181.2810317545073 -51.07015659305847,183.78103175450784 -49.240029574136784,185.61115877343096 -46.740029574136756,186.28103175450983" stroke="#ffa500" stroke-linecap="round" stroke-linejoin="round"/><polyline fill="none" points="-36.27840253861361,83.4415404023306 -33.77840253861306,82.7716674212537 -31.948275519689936,80.94154040233201 -31.27840253861107,78.44154040233198 -31.94827551968797,75.94154040233143 -33.778402538609654,74.1114133834083 -36.27840253860968,73.44154040232944 -38.77840253861024,74.11141338340634 -40.60852955753336,75.94154040232803 -41.27840253861223,78.44154040232806 -40.60852955753533,80.94154040232861 -38.77840253861364,82.77166742125173 -36.27840253861361,83.4415404023306" stroke="#008000" stroke-linecap="round" stroke-linejoin="round"/><polyline fill="none" points="-49.41572368001506,82.300517556273 -46.91572368001451,81.63064457519609 -45.08559666109139,79.8005175562744 -44.41572368001252,77.30051755627437 -45.08559666108942,74.80051755627382 -46.915723680011105,72.9703905373507 -49.41572368001113,72.30051755627183 -51.91572368001169,72.97039053734872 -53.74585069893482,74.8005175562704 -54.415723680013684,77.30051755627044 -53.745850698936785,79.80051755627099 -51.9157236800151,81.63064457519411 -49.41572368001507,82.30051755627298" stroke="#00f" stroke-linecap="round" stroke-linejoin="round"/><polyline fill="none" points="-47.95960230620803,91.70971669224137 -45.45960230620748,91.03984371116448 -43.62947528728435,89.2097166922428 -42.95960230620548,86.70971669224276 -43.62947528728238,84.20971669224221 -45.45960230620406,82.37958967331909 -47.95960230620409,81.70971669224022 -50.459602306204644,82.37958967331711 -52.28972932512777,84.2097166922388 -52.95960230620665,86.70971669223883 -52.28972932512975,89.20971669223938 -50.45960230620807,91.03984371116252 -47.95960230620804,91.70971669224139" stroke="#00f" stroke-linecap="round" stroke-linejoin="round"/><polyline fill="none" points="-56.69759583768319,77.44208792871179 -54.197595837682634,76.7722149476349 -52.367468818759505,74.9420879287132 -51.69759583768063,72.44208792871318 -52.36746881875752,69.94208792871262 -54.1975958376792,68.11196090978949 -56.69759583767923,67.44208792871062 -59.197595837679785,68.11196090978751 -61.027722856602914,69.9420879287092 -61.69759583768179,72.44208792870923 -61.027722856604896,74.94208792870978 -59.19759583768322,76.77221494763292 -56.69759583768319,77.4420879287118" stroke="#00f" stroke-linecap="round" stroke-linejoin="round"/><polyline fill="none" points="-107.21771237271726,161.19113418191142 -104.7177123727167,160.52126120083452 -102.88758535379357,158.69113418191284 -102.21771237271469,156.19113418191282 -102.88758535379158,153.69113418191225 -104.71771237271327,151.86100716298913 -107.2177123727133,151.19113418191026 -109.71771237271385,151.86100716298716 -111.54783939163698,153.69113418190884 -112.21771237271587,156.19113418190886 -111.54783939163897,158.69113418190943 -109.71771237271729,160.52126120083256 -107.21771237271726,161.19113418191142" stroke="#ffa500" stroke-linecap="round" stroke-linejoin="round"/><polyline fill="none" points="-107.97507111881268,147.94072442421725 -105.47507111881212,147.27085144314037 -103.64494409988899,145.4407244242187 -102.9750711188101,142.94072442421867 -103.644944099887,140.4407244242181 -105.47507111880867,138.61059740529498 -107.9750711188087,137.9407244242161 -110.47507111880925,138.610597405293 -112.30519813773239,140.44072442421466 -112.97507111881127,142.9407244242147 -112.30519813773438,145.44072442421526 -110.4750711188127,147.27085144313838 -107.97507111881268,147.94072442421725" stroke="#ffa500" stroke-linecap="round" stroke-linejoin="round"/><polyline fill="none" points="-119.95439213240603,125.14646340005541 -117.45439213240547,124.47659041897852 -115.62426511348234,122.64646340005685 -114.95439213240346,120.14646340005682 -115.62426511348035,117.64646340005626 -117.45439213240202,115.81633638113313 -119.95439213240205,115.14646340005424 -122.4543921324026,115.81633638113114 -124.28451915132574,117.64646340005281 -124.95439213240462,120.14646340005284 -124.28451915132773,122.64646340005339 -122.45439213240606,124.47659041897653 -119.95439213240603,125.14646340005541" stroke="#ffa500" stroke-linecap="round" stroke-linejoin="round"/><polyline fill="none" points="-112.91127825230403,120.46974018153622 -110.41127825230348,119.79986720045933 -108.58115123338034,117.96974018153766 -107.91127825230146,115.46974018153763 -108.58115123337835,112.96974018153708 -110.41127825230002,111.13961316261394 -112.91127825230005,110.46974018153506 -115.4112782523006,111.13961316261195 -117.24140527122374,112.96974018153362 -117.91127825230262,115.46974018153365 -117.24140527122574,117.96974018153422 -115.41127825230407,119.79986720045736 -112.91127825230404,120.46974018153624" stroke="#ffa500" stroke-linecap="round" stroke-linejoin="round"/><polyline fill="none" points="-125.90310165318944,123.25643664767955 -123.40310165318887,122.58656366660267 -121.57297463426573,120.756436647681 -120.90310165318685,118.25643664768097 -121.57297463426373,115.7564366476804 -123.4031016531854,113.92630962875727 -125.90310165318543,113.25643664767838 -128.40310165318598,113.92630962875526 -130.23322867210914,115.75643664767694 -130.90310165318803,118.25643664767696 -130.23322867211115,120.75643664767753 -128.40310165318948,122.58656366660067 -125.90310165318945,123.25643664767955" stroke="#ffa500" stroke-linecap="round" stroke-linejoin="round"/><polyline fill="none" points="-65.73286730631087,62.05761023622567 -63.232867306310304,61.387737255148785 -61.40274028738716,59.55761023622711 -60.73286730630827,57.057610236227084 -61.40274028738515,54.55761023622652 -63.23286730630682,52.72748321730338 -65.73286730630684,52.05761023622449 -68.23286730630741,52.72748321730137 -70.06299432523056,54.55761023622304 -70.73286730630946,57.05761023622307 -70.06299432523258,59.55761023622363 -68.23286730631091,61.387737255146774 -65.73286730631088,62.05761023622566" stroke="#008000" stroke-linecap="round" stroke-linejoin="round"/><polyline fill="none" points="-62.471927246002664,120.22705790553881 -59.971927246002096,119.55718492446194 -58.14180022707895,117.72705790554026 -57.471927246000064,115.22705790554024 -58.14180022707694,112.72705790553967 -59.971927245998614,110.89693088661652 -62.47192724599864,110.22705790553762 -64.97192724599921,110.8969308866145 -66.80205426492236,112.72705790553617 -67.47192724600126,115.2270579055362 -66.80205426492438,117.72705790553677 -64.9719272460027,119.55718492445992 -62.47192724600268,120.22705790553881" stroke="#00f" stroke-linecap="round" stroke-linejoin="round"/><polyline fill="none" points="-152.39327975250765,120.26127914534769 -149.89327975250708,119.59140616427081 -148.06315273358393,117.76127914534914 -147.39327975250504,115.2612791453491 -148.06315273358192,112.76127914534854 -149.8932797525036,110.93115212642539 -152.39327975250362,110.26127914534649 -154.89327975250418,110.93115212642337 -156.72340677142734,112.76127914534504 -157.39327975250623,115.26127914534507 -156.72340677142935,117.76127914534564 -154.89327975250768,119.59140616426879 -152.39327975250765,120.26127914534769" stroke="#ffa500" stroke-linecap="round" stroke-linejoin="round"/><polyline fill="none" points="-25.44012989656944,81.7834130615257 -22.940129896568873,81.11354008044883 -21.110002877645723,79.28341306152716 -20.440129896566823,76.78341306152713 -21.110002877643698,74.28341306152656 -22.940129896565367,72.45328604260341 -25.44012989656539,71.78341306152451 -27.94012989656596,72.45328604260139 -29.770256915489114,74.28341306152306 -30.440129896568013,76.78341306152309 -29.77025691549114,79.28341306152366 -27.94012989656947,81.11354008044681 -25.440129896569445,81.7834130615257" stroke="#00f" stroke-linecap="round" stroke-linejoin="round"/><polyline fill="none" points="-126.54836477549101,30.30353955414467 -124.04836477549044,29.6336665730678 -122.21823775656729,27.80353955414613 -121.5483647754884,25.303539554146106 -122.21823775656527,22.803539554145537 -124.04836477548695,20.973412535222383 -126.54836477548697,20.303539554143484 -129.04836477548756,20.973412535220355 -130.8784917944107,22.803539554142024 -131.5483647754896,25.30353955414205 -130.87849179441272,27.803539554142617 -129.04836477549105,29.63366657306577 -126.54836477549102,30.303539554144674" stroke="#ffa500" stroke-linecap="round" stroke-linejoin="round"/><polyline fill="none" points="-153.12869520080832,63.03331633021324 -150.62869520080775,62.36344334913637 -148.7985681818846,60.5333163302147 -148.1286952008057,58.033316330214674 -148.7985681818826,55.533316330214106 -150.62869520080426,53.70318931129095 -153.1286952008043,53.033316330212045 -155.62869520080486,53.70318931128892 -157.458822219728,55.53331633021058 -158.1286952008069,58.03331633021061 -157.45882221973002,60.53331633021118 -155.62869520080835,62.363443349134336 -153.12869520080832,63.03331633021324" stroke="#ffa500" stroke-linecap="round" stroke-linejoin="round"/><polyline fill="none" points="-159.42304146145963,78.97206265236778 -156.92304146145906,78.30218967129092 -155.0929144425359,76.47206265236925 -154.42304146145702,73.97206265236922 -155.0929144425339,71.47206265236865 -156.92304146145557,69.64193563344548 -159.4230414614556,68.97206265236657 -161.92304146145617,69.64193563344344 -163.75316848037932,71.4720626523651 -164.4230414614582,73.97206265236512 -163.75316848038133,76.4720626523657 -161.92304146145966,78.30218967128886 -159.42304146145963,78.97206265236777" stroke="#ffa500" stroke-linecap="round" stroke-linejoin="round"/><polyline fill="none" points="-77.99525675175829,57.03183587807439 -75.49525675175772,56.361962896997525 -73.66512973283456,54.53183587807586 -72.99525675175565,52.03183587807583 -73.66512973283251,49.531835878075256 -75.49525675175417,47.70170885915209 -77.9952567517542,47.03183587807318 -80.49525675175477,47.701708859150045 -82.32538377067793,49.53183587807171 -82.99525675175684,52.03183587807173 -82.32538377067998,54.53183587807231 -80.49525675175832,56.36196289699547 -77.99525675175829,57.03183587807438" stroke="#008000" stroke-linecap="round" stroke-linejoin="round"/><polyline fill="none" points="-103.84718790548978,-7.779755064145963 -101.3471879054892,-8.449628045222825 -99.51706088656604,-10.279755064144487 -98.84718790548713,-12.779755064144512 -99.517060886564,-15.279755064145085 -101.34718790548565,-17.10988208306825 -103.84718790548568,-17.779755064147164 -106.34718790548627,-17.109882083070303 -108.17731492440943,-15.279755064148642 -108.84718790548834,-12.779755064148617 -108.17731492441148,-10.279755064148041 -106.34718790548982,-8.449628045224877 -103.84718790548979,-7.779755064145962" stroke="#ffa500" stroke-linecap="round" stroke-linejoin="round"/><polyline fill="none" points="-107.409042934638,12.494670013955147 -104.90904293463741,11.824797032878287 -103.07891591571425,9.994670013956625 -102.40904293463534,7.4946700139566005 -103.0789159157122,4.994670013956024 -104.90904293463386,3.164542995032858 -107.40904293463389,2.4946700139539417 -109.90904293463447,3.1645429950308004 -111.73916995355764,4.994670013952461 -112.40904293463655,7.494670013952486 -111.73916995355968,9.994670013953064 -109.90904293463802,11.824797032876232 -107.409042934638,12.49467001395515" stroke="#00f" stroke-linecap="round" stroke-linejoin="round"/><polyline fill="none" points="-56.074504448334515,6.454781869162819 -53.57450444833394,5.784908888085961 -51.744377429410775,3.954781869164301 -51.07450444833186,1.4547818691642758 -51.744377429408715,-1.045218130836302 -53.57450444833037,-2.875345149759471 -56.0745044483304,-3.5452181308383897 -58.57450444833098,-2.875345149761533 -60.40463146725415,-1.0452181308398742 -61.074504448333066,1.454781869160151 -60.40463146725621,3.9547818691607293 -58.57450444833455,5.7849088880838995 -56.07450444833452,6.45478186916282" stroke="#00f" stroke-linecap="round" stroke-linejoin="round"/><polyline fill="none" points="-77.93579603747621,-9.876063966134593 -75.43579603747563,-10.545936947211448 -73.60566901855246,-12.376063966133106 -72.93579603747354,-14.876063966133131 -73.60566901855039,-17.37606396613371 -75.43579603747204,-19.20619098505688 -77.93579603747207,-19.876063966135803 -80.43579603747266,-19.20619098505895 -82.26592305639582,-17.37606396613729 -82.93579603747474,-14.876063966137266 -82.2659230563979,-12.376063966136687 -80.43579603747624,-10.545936947213516 -77.93579603747621,-9.876063966134593" stroke="#00f" stroke-linecap="round" stroke-linejoin="round"/><polyline fill="none" points="-176.38768814958112,20.997799202784073 -173.88768814958055,20.32792622170722 -172.05756113065738,18.49779920278556 -171.38768814957845,15.997799202785536 -172.0575611306553,13.497799202784956 -173.88768814957695,11.667672183861782 -176.38768814957697,10.997799202782858 -178.88768814957754,11.66767218385971 -180.71781516850072,13.497799202781366 -181.38768814957965,15.99779920278139 -180.7178151685028,18.497799202781973 -178.88768814958115,20.327926221705148 -176.38768814958112,20.997799202784073" stroke="#ffa500" stroke-linecap="round" stroke-linejoin="round"/><polyline fill="none" points="-54.895124286939506,-14.072369839664102 -52.39512428693892,-14.742242820740952 -50.564997268015745,-16.572369839662606 -49.89512428693682,-19.07236983966263 -50.56499726801367,-21.572369839663214 -52.39512428693533,-23.40249685858639 -54.895124286935356,-24.072369839665317 -57.39512428693594,-23.402496858588467 -59.22525130585912,-21.572369839666813 -59.89512428693804,-19.072369839666788 -59.22525130586119,-16.572369839666205 -57.395124286939534,-14.742242820743028 -54.895124286939506,-14.0723698396641" stroke="#008000" stroke-linecap="round" stroke-linejoin="round"/><polyline fill="none" points="-169.214697116198,-1.7832969436189021 -166.7146971161974,-2.45316992469575 -164.88457009727423,-4.283296943617405 -164.2146971161953,-6.7832969436174295 -164.88457009727216,-9.283296943618012 -166.7146971161938,-11.11342396254119 -169.21469711619383,-11.78329694362012 -171.71469711619443,-11.113423962543274 -173.5448241351176,-9.283296943621622 -174.21469711619653,-6.783296943621597 -173.54482413511968,-4.283296943621013 -171.71469711619804,-2.4531699246978342 -169.214697116198,-1.7832969436189035" stroke="#ffa500" stroke-linecap="round" stroke-linejoin="round"/><polyline fill="none" points="-155.7906178355603,-35.725438010038296 -153.29061783555971,-36.39531099111514 -151.46049081663654,-38.22543801003679 -150.7906178355576,-40.72543801003681 -151.46049081663446,-43.225438010037394 -153.2906178355561,-45.05556502896057 -155.79061783555613,-45.725438010039504 -158.29061783555673,-45.05556502896266 -160.1207448544799,-43.22543801004101 -160.79061783555883,-40.72543801004098 -160.12074485448198,-38.2254380100404 -158.29061783556034,-36.39531099111722 -155.7906178355603,-35.72543801003829" stroke="#ffa500" stroke-linecap="round" stroke-linejoin="round"/><polyline fill="none" points="-178.83536958991306,-19.989943135790142 -176.33536958991246,-20.659816116866985 -174.50524257098928,-22.489943135788636 -173.83536958991036,-24.98994313578866 -174.5052425709872,-27.489943135789247 -176.33536958990885,-29.32007015471243 -178.83536958990888,-29.989943135791364 -181.33536958990948,-29.32007015471452 -183.16549660883265,-27.48994313579287 -183.83536958991158,-24.989943135792846 -183.16549660883473,-22.48994313579226 -181.33536958991309,-20.659816116869074 -178.83536958991306,-19.98994313579014" stroke="#ffa500" stroke-linecap="round" stroke-linejoin="round"/><polyline fill="none" points="-151.15612470997095,-48.906976550320245 -148.65612470997036,-49.57684953139709 -146.82599769104718,-51.40697655031874 -146.15612470996825,-53.90697655031877 -146.8259976910451,-56.40697655031936 -148.65612470996675,-58.23710356924254 -151.15612470996678,-58.90697655032148 -153.65612470996737,-58.23710356924464 -155.48625172889055,-56.40697655032299 -156.15612470996948,-53.90697655032296 -155.48625172889263,-51.40697655032237 -153.65612470997098,-49.57684953139918 -151.15612470997095,-48.906976550320245" stroke="#ffa500" stroke-linecap="round" stroke-linejoin="round"/><polyline fill="none" points="-178.44234816165527,-54.00036819476985 -175.94234816165468,-54.670241175846684 -174.1122211427315,-56.500368194768335 -173.44234816165255,-59.000368194768356 -174.1122211427294,-61.500368194768946 -175.94234816165104,-63.33049521369213 -178.44234816165107,-64.00036819477107 -180.94234816165167,-63.330495213694235 -182.77247518057484,-61.500368194772584 -183.4423481616538,-59.000368194772555 -182.77247518057695,-56.500368194771966 -180.9423481616553,-54.67024117584878 -178.44234816165527,-54.00036819476984" stroke="#ffa500" stroke-linecap="round" stroke-linejoin="round"/><polyline fill="none" points="31.17687888521196,-13.886812150498798 33.676878885212545,-14.556685131575634 35.50700590413573,-16.38681215049728 36.17687888521468,-18.886812150497306 35.50700590413784,-21.386812150497896 33.6768788852162,-23.216939169421085 31.176878885216173,-23.886812150500027 28.676878885215583,-23.216939169423192 26.846751866292394,-21.386812150501544 26.17687888521345,-18.88681215050152 26.846751866290287,-16.38681215050093 28.676878885211934,-14.556685131577739 31.17687888521196,-13.886812150498795" stroke="#00f" stroke-linecap="round" stroke-linejoin="round"/><polyline fill="none" points="-56.49942570525009,-61.74970781350949 -53.9994257052495,-62.419580794586324 -52.16929868632631,-64.24970781350797 -51.49942570524736,-66.749707813508 -52.1692986863242,-69.24970781350859 -53.99942570524584,-71.07983483243179 -56.49942570524587,-71.74970781351072 -58.99942570524646,-71.07983483243389 -60.82955272416965,-69.24970781351225 -61.4994257052486,-66.74970781351222 -60.82955272417176,-64.24970781351162 -58.99942570525012,-62.41958079458843 -56.49942570525009,-61.74970781350948" stroke="#00f" stroke-linecap="round" stroke-linejoin="round"/><polyline fill="none" points="-76.65444325884347,-54.15140641538776 -74.15444325884287,-54.8212793964646 -72.32431623991968,-56.65140641538624 -71.65444325884073,-59.15140641538627 -72.32431623991756,-61.65140641538686 -74.15444325883921,-63.48153343431005 -76.65444325883924,-64.151406415389 -79.15444325883983,-63.481533434312176 -80.98457027776303,-61.65140641539053 -81.65444325884198,-59.151406415390504 -80.98457027776514,-56.651406415389914 -79.1544432588435,-54.82127939646672 -76.65444325884347,-54.151406415387775" stroke="#00f" stroke-linecap="round" stroke-linejoin="round"/><polyline fill="none" points="-70.47947713182386,-79.9633728620898 -67.97947713182326,-80.63324584316663 -66.14935011290007,-82.46337286208828 -65.47947713182111,-84.9633728620883 -66.14935011289795,-87.4633728620889 -67.97947713181959,-89.2934998810121 -70.47947713181962,-89.96337286209105 -72.97947713182022,-89.29349988101421 -74.80960415074341,-87.46337286209257 -75.47947713182236,-84.96337286209254 -74.80960415074554,-82.46337286209194 -72.9794771318239,-80.63324584316875 -70.47947713182387,-79.9633728620898" stroke="#00f" stroke-linecap="round" stroke-linejoin="round"/><polyline fill="none" points="-127.40047933997931,-107.57078612492445 -124.90047933997872,-108.24065910600127 -123.07035232105552,-110.07078612492292 -122.40047933997657,-112.57078612492295 -123.07035232105339,-115.07078612492354 -124.90047933997504,-116.90091314384674 -127.40047933997506,-117.57078612492569 -129.90047933997565,-116.90091314384887 -131.73060635889885,-115.07078612492722 -132.4004793399778,-112.5707861249272 -131.73060635890099,-110.0707861249266 -129.90047933997934,-108.2406591060034 -127.40047933997931,-107.57078612492445" stroke="#ffa500" stroke-linecap="round" stroke-linejoin="round"/><polyline fill="none" points="-129.31765446203306,-93.61471466040824 -126.81765446203246,-94.28458764148506 -124.98752744310926,-96.1147146604067 -124.3176544620303,-98.61471466040673 -124.98752744310713,-101.11471466040733 -126.81765446202877,-102.94484167933054 -129.3176544620288,-103.61471466040949 -131.8176544620294,-102.94484167933267 -133.6477814809526,-101.11471466041102 -134.31765446203156,-98.614714660411 -133.64778148095473,-96.1147146604104 -131.8176544620331,-94.28458764148719 -129.31765446203306,-93.61471466040824" stroke="#ffa500" stroke-linecap="round" stroke-linejoin="round"/><polyline fill="none" points="-32.94490983517535,-61.916894468704825 -30.444909835174755,-62.58676744978165 -28.61478281625155,-64.41689446870329 -27.944909835172595,-66.91689446870332 -28.614782816249416,-69.41689446870392 -30.444909835171057,-71.24702148762712 -32.94490983517108,-71.91689446870608 -35.44490983517168,-71.24702148762925 -37.275036854094886,-69.41689446870761 -37.944909835173846,-66.91689446870758 -37.275036854097024,-64.41689446870699 -35.44490983517539,-62.58676744978378 -32.94490983517536,-61.91689446870482" stroke="#00f" stroke-linecap="round" stroke-linejoin="round"/><polyline fill="none" points="-52.812183776859285,-40.280347062393304 -50.31218377685869,-40.950220043470125 -48.48205675793548,-42.78034706239176 -47.81218377685652,-45.28034706239179 -48.48205675793334,-47.78034706239239 -50.31218377685498,-49.610474081315594 -52.81218377685501,-50.280347062394554 -55.312183776855605,-49.61047408131773 -57.14231079577881,-47.780347062396096 -57.81218377685777,-45.28034706239607 -57.14231079578095,-42.78034706239547 -55.312183776859314,-40.950220043472264 -52.812183776859285,-40.280347062393304" stroke="#008000" stroke-linecap="round" stroke-linejoin="round"/><polyline fill="none" points="-100.25316383474949,-131.15921375221728 -97.75316383474889,-131.8290867332941 -95.92303681582568,-133.65921375221575 -95.25316383474672,-136.15921375221578 -95.92303681582354,-138.65921375221637 -97.75316383474517,-140.48934077113958 -100.2531638347452,-141.15921375221853 -102.75316383474579,-140.4893407711417 -104.583290853669,-138.65921375222007 -105.25316383474797,-136.15921375222004 -104.58329085367114,-133.65921375221944 -102.75316383474951,-131.82908673329624 -100.25316383474949,-131.15921375221728" stroke="#ffa500" stroke-linecap="round" stroke-linejoin="round"/><polyline fill="none" points="-88.58387729833576,-144.68416019708553 -86.08387729833517,-145.35403317816235 -84.25375027941196,-147.184160197084 -83.583877298333,-149.68416019708403 -84.25375027940981,-152.18416019708462 -86.08387729833144,-154.01428721600783 -88.58387729833147,-154.68416019708678 -91.08387729833207,-154.01428721600996 -92.91400431725528,-152.18416019708832 -93.58387729833424,-149.6841601970883 -92.91400431725744,-147.1841601970877 -91.0838772983358,-145.35403317816449 -88.58387729833578,-144.6841601970855" stroke="#ffa500" stroke-linecap="round" stroke-linejoin="round"/><polyline fill="none" points="-71.78754639249541,-35.13733878255058 -69.28754639249482,-35.80721176362739 -67.45741937357161,-37.63733878254903 -66.78754639249264,-40.13733878254906 -67.45741937356945,-42.63733878254966 -69.28754639249108,-44.467465801472876 -71.78754639249111,-45.13733878255184 -74.2875463924917,-44.46746580147503 -76.11767341141491,-42.63733878255339 -76.78754639249388,-40.137338782553364 -76.11767341141707,-37.63733878255276 -74.28754639249544,-35.807211763629546 -71.78754639249541,-35.13733878255057" stroke="#00f" stroke-linecap="round" stroke-linejoin="round"/><polyline fill="none" points="-23.733684404823716,-67.02028002113643 -21.233684404823112,-67.69015300221324 -19.403557385899898,-69.52028002113487 -18.733684404820927,-72.0202800211349 -19.403557385897738,-74.5202800211355 -21.23368440481937,-76.35040704005873 -23.733684404819396,-77.0202800211377 -26.23368440482,-76.35040704006089 -28.063811423743218,-74.52028002113926 -28.733684404822192,-72.02028002113923 -28.06381142374538,-69.52028002113862 -26.233684404823748,-67.6901530022154 -23.733684404823723,-67.02028002113643" stroke="#00f" stroke-linecap="round" stroke-linejoin="round"/><polyline fill="none" points="-77.60664337497714,-152.49703248784465 -75.10664337497653,-153.16690546892147 -73.2765163560533,-154.99703248784311 -72.60664337497434,-157.49703248784314 -73.27651635605115,-159.99703248784374 -75.10664337497278,-161.82715950676695 -77.6066433749728,-162.49703248784593 -80.10664337497342,-161.8271595067691 -81.93677039389664,-159.99703248784746 -82.60664337497562,-157.49703248784743 -81.93677039389881,-154.99703248784684 -80.10664337497718,-153.16690546892363 -77.60664337497715,-152.49703248784465" stroke="#ffa500" stroke-linecap="round" stroke-linejoin="round"/><polyline fill="none" points="-65.17687320391221,-141.3657570847766 -62.676873203911605,-142.03563006585338 -60.84674618498838,-143.86575708477503 -60.17687320390941,-146.36575708477505 -60.846746184986216,-148.86575708477565 -62.676873203907846,-150.69588410369886 -65.17687320390787,-151.36575708477784 -67.67687320390849,-150.69588410370105 -69.5070002228317,-148.86575708477943 -70.17687320391069,-146.3657570847794 -69.50700022283388,-143.8657570847788 -67.67687320391225,-142.0356300658556 -65.17687320391222,-141.36575708477662" stroke="#ffa500" stroke-linecap="round" stroke-linejoin="round"/><polyline fill="none" points="-38.55897183656715,-20.692640425665644 -36.05897183656654,-21.362513406742448 -34.22884481764332,-23.192640425664077 -33.55897183656434,-25.692640425664102 -34.22884481764114,-28.19264042566471 -36.05897183656277,-30.02276744458793 -38.5589718365628,-30.692640425666912 -41.05897183656341,-30.02276744459011 -42.88909885548663,-28.19264042566848 -43.55897183656561,-25.692640425668454 -42.88909885548881,-23.192640425667847 -41.05897183656718,-21.362513406744622 -38.55897183656715,-20.69264042566564" stroke="#008000" stroke-linecap="round" stroke-linejoin="round"/><polyline fill="none" points="-54.168758174301516,-159.06068330902391 -51.668758174300905,-159.7305562901007 -49.83863115537768,-161.56068330902232 -49.1687581742987,-164.06068330902235 -49.8386311553755,-166.56068330902295 -51.66875817429713,-168.39081032794618 -54.16875817429716,-169.06068330902517 -56.66875817429777,-168.39081032794837 -58.498885193221,-166.56068330902676 -59.16875817429998,-164.06068330902673 -58.49888519322318,-161.56068330902613 -56.66875817430155,-159.7305562901029 -54.16875817430152,-159.06068330902391" stroke="#ffa500" stroke-linecap="round" stroke-linejoin="round"/><polyline fill="none" points="-60.17099152748793,-162.24662501947702 -57.67099152748732,-162.91649800055382 -55.84086450856409,-164.74662501947543 -55.1709915274851,-167.24662501947546 -55.8408645085619,-169.74662501947608 -57.67099152748352,-171.57675203839932 -60.17099152748355,-172.2466250194783 -62.67099152748416,-171.5767520384015 -64.50111854640738,-169.7466250194799 -65.17099152748636,-167.24662501947986 -64.50111854640957,-164.74662501947924 -62.67099152748795,-162.916498000556 -60.17099152748792,-162.24662501947702" stroke="#ffa500" stroke-linecap="round" stroke-linejoin="round"/><polyline fill="none" points="-28.192978390440317,-22.790400328712213 -25.692978390439706,-23.46027330978901 -23.862851371516477,-25.290400328710636 -23.19297839043749,-27.79040032871066 -23.862851371514285,-30.29040032871127 -25.69297839043591,-32.1205273476345 -28.192978390435936,-32.79040032871349 -30.69297839043655,-32.120527347636695 -32.52310540935978,-30.290400328715073 -33.19297839043877,-27.790400328715048 -32.523105409361975,-25.290400328714433 -30.692978390440352,-23.460273309791205 -28.192978390440327,-22.790400328712217" stroke="#00f" stroke-linecap="round" stroke-linejoin="round"/><polyline fill="none" points="-30.265596871276554,-152.2058144109973 -27.76559687127594,-152.8756873920741 -25.935469852352707,-154.7058144109957 -25.265596871273715,-157.20581441099574 -25.935469852350508,-159.70581441099637 -27.76559687127213,-161.5359414299196 -30.265596871272155,-162.20581441099858 -32.76559687127277,-161.5359414299218 -34.595723890196,-159.70581441100018 -35.26559687127499,-157.20581441100015 -34.595723890198194,-154.70581441099952 -32.76559687127657,-152.8756873920763 -30.265596871276546,-152.2058144109973" stroke="#ffa500" stroke-linecap="round" stroke-linejoin="round"/><polyline fill="none" points="-20.209644165494446,-156.5616446353482 -17.70964416549383,-157.23151761642498 -15.879517146570597,-159.0616446353466 -15.209644165491603,-161.56164463534662 -15.879517146568395,-164.06164463534725 -17.709644165490015,-165.89177165427049 -20.20964416549004,-166.56164463534947 -22.709644165490655,-165.89177165427267 -24.53977118441389,-164.06164463535106 -25.209644165492886,-161.56164463535103 -24.539771184416097,-159.0616446353504 -22.709644165494474,-157.23151761642717 -20.20964416549445,-156.5616446353482" stroke="#ffa500" stroke-linecap="round" stroke-linejoin="round"/></svg>