<?xml version="1.0" ?><!DOCTYPE svg  PUBLIC '-//W3C//DTD SVG 1.1//EN'  'http://www.w3.org/Graphics/SVG/1.1/DTD/svg11.dtd'><svg height="273.000" viewBox="-167.000 -133.000 318.000 273.000" width="318.000" xmlns="http://www.w3.org/2000/svg"><line fill="none" stroke="none" stroke-linecap="round" stroke-width="2.0" x1="0.0" x2="0.0" y1="0.0" y2="0.0"/><polygon fill="none" fill-rule="evenodd" points="0.0,0.0 0.0,0.0 0.0,0.0" stroke-linejoin="round"/><polyline fill="none" points="46.96101541914201,4.4531631818282245 49.461015419147934,3.7832902007602605 51.29114243808018,1.9531631818436275 51.96101541916948,-0.5468368181565848 51.29114243810152,-3.0468368181625127 49.46101541918488,-4.8769638370947614 46.96101541918467,-5.546836818184057 44.46101541917874,-4.876963837116094 42.63088840024649,-3.046836818199461 41.96101541915719,-0.5468368181992487 42.63088840022515,1.95316318180668 44.46101541914179,3.7832902007389295 46.961015419142,4.453163181828226" stroke="#ffa500" stroke-linecap="round" stroke-linejoin="round"/><polyline fill="none" points="54.90120253458762,8.326759532772522 57.401202534593544,7.6568865517045595 59.231329553525796,5.826759532787928 59.901202534615095,3.3267595327877153 59.231329553547134,0.8267595327817863 57.4012025346305,-1.0033674861504647 54.901202534630286,-1.6732404672397627 52.40120253462436,-1.0033674861718014 50.57107551569211,0.8267595327448303 49.90120253460281,3.3267595327450428 50.57107551567077,5.826759532750973 52.4012025345874,7.656886551683225 54.90120253458761,8.326759532772524" stroke="#ffa500" stroke-linecap="round" stroke-linejoin="round"/><polyline fill="none" points="70.16127531833567,-88.83919330767287 72.6612753183416,-89.50906628874083 74.49140233727385,-91.33919330765745 75.16127531836315,-93.83919330765767 74.4914023372952,-96.33919330766359 72.66127531837857,-98.16932032659585 70.16127531837836,-98.83919330768515 67.66127531837243,-98.1693203266172 65.83114829944017,-96.33919330770057 65.16127531835087,-93.83919330770036 65.83114829941883,-91.33919330769443 67.66127531833546,-89.50906628876217 70.16127531833567,-88.83919330767287" stroke="#ffa500" stroke-linecap="round" stroke-linejoin="round"/><polyline fill="none" points="-16.912747513449965,-42.69242953859075 -14.412747513444033,-43.36230251965871 -12.58262049451178,-45.19242953857534 -11.912747513422477,-47.69242953857555 -12.582620494490435,-50.192429538581486 -14.412747513407064,-52.02255655751374 -16.912747513407275,-52.692429538603044 -19.41274751341321,-52.02255655753509 -21.242874532345464,-50.19242953861846 -21.91274751343477,-47.69242953861825 -21.242874532366812,-45.192429538612316 -19.412747513450185,-43.36230251968006 -16.912747513449972,-42.69242953859075" stroke="#ffa500" stroke-linecap="round" stroke-linejoin="round"/><polyline fill="none" points="-56.12142327532131,42.53297786684665 -53.62142327531538,41.8631048857787 -51.79129625638312,40.03297786686207 -51.121423275293814,37.532977866861856 -51.79129625636177,35.03297786685592 -53.621423275278396,33.20285084792366 -56.12142327527861,32.53297786683436 -58.62142327528454,33.20285084790231 -60.4515502942168,35.03297786681894 -61.12142327530611,37.53297786681915 -60.45155029423815,40.032977866825085 -58.621423275321526,41.863104885757345 -56.12142327532131,42.53297786684665" stroke="#00f" stroke-linecap="round" stroke-linejoin="round"/><polyline fill="none" points="-127.42596643323418,-15.933539846125516 -124.92596643322824,-16.60341282719347 -123.09583941429598,-18.433539846110097 -122.42596643320667,-20.93353984611031 -123.09583941427462,-23.433539846116243 -124.92596643319125,-25.263666865048503 -127.42596643319146,-25.933539846137812 -129.9259664331974,-25.26366686506986 -131.75609345212968,-23.433539846153234 -132.42596643321897,-20.93353984615302 -131.75609345215102,-18.433539846147085 -129.9259664332344,-16.603412827214825 -127.4259664332342,-15.933539846125516" stroke="#00f" stroke-linecap="round" stroke-linejoin="round"/><polyline fill="none" points="89.4429985561736,-68.52175949216112 91.94299855617955,-69.19163247322908 93.7731255751118,-71.0217594921457 94.44299855620112,-73.52175949214592 93.77312557513316,-76.02175949215186 91.94299855621654,-77.85188651108412 89.44299855621632,-78.52175949217343 86.94299855621038,-77.85188651110548 85.11287153727812,-76.02175949218885 84.44299855618881,-73.52175949218864 85.11287153725677,-71.0217594921827 86.9429985561734,-69.19163247325044 89.4429985561736,-68.52175949216112" stroke="#ffa500" stroke-linecap="round" stroke-linejoin="round"/><polyline fill="none" points="72.71014597414879,-111.93841399561464 75.21014597415473,-112.60828697668259 77.04027299308699,-114.43841399559922 77.7101459741763,-116.93841399559943 77.04027299310835,-119.43841399560537 75.21014597419172,-121.26854101453763 72.7101459741915,-121.93841399562695 70.21014597418556,-121.26854101455899 68.3800189552533,-119.43841399564236 67.71014597416399,-116.93841399564215 68.38001895523193,-114.43841399563621 70.21014597414856,-112.60828697670395 72.71014597414877,-111.93841399561464" stroke="#ffa500" stroke-linecap="round" stroke-linejoin="round"/><polyline fill="none" points="-130.5317916728752,-18.96951114086028 -128.03179167286925,-19.639384121928227 -126.20166465393697,-21.46951114084485 -125.53179167284766,-23.969511140845064 -126.2016646539156,-26.469511140851004 -128.0317916728322,-28.29963815978327 -130.5317916728324,-28.969511140872587 -133.03179167283835,-28.299638159804644 -134.86191869177063,-26.469511140888024 -135.53179167285995,-23.96951114088781 -134.861918691792,-21.46951114088187 -133.03179167287539,-19.6393841219496 -130.5317916728752,-18.96951114086028" stroke="#00f" stroke-linecap="round" stroke-linejoin="round"/><polyline fill="none" points="-59.797670629694,78.51268550742671 -57.29767062968806,77.84281252635877 -55.46754361075579,76.01268550744214 -54.79767062966647,73.51268550744193 -55.46754361073441,71.01268550743599 -57.29767062965103,69.18255848850372 -59.79767062965124,68.51268550741439 -62.29767062965718,69.18255848848233 -64.12779764858945,71.01268550739894 -64.79767062967878,73.51268550739915 -64.12779764861084,76.0126855074051 -62.29767062969422,77.84281252633737 -59.797670629694004,78.5126855074267" stroke="#00f" stroke-linecap="round" stroke-linejoin="round"/><polyline fill="none" points="133.8999311761926,68.57264166803421 136.39993117619855,67.90276868696627 138.23005819513082,66.07264166804966 138.89993117622015,63.57264166804944 138.2300581951522,61.0726416680435 136.39993117623558,59.24251464911123 133.89993117623538,58.57264166802191 131.39993117622944,59.24251464908985 129.56980415729717,61.07264166800647 128.89993117620784,63.57264166800668 129.56980415727577,66.07264166801262 131.39993117619238,67.9027686869449 133.89993117619258,68.57264166803422" stroke="#ffa500" stroke-linecap="round" stroke-linejoin="round"/><polyline fill="none" points="97.25613794470486,0.07896249847972214 99.7561379447108,-0.590910482588216 101.58626496364307,-2.4210375015048338 102.2561379447324,-4.921037501505046 101.58626496366446,-7.421037501510989 99.75613794474785,-9.251164520443265 97.25613794474764,-9.92103750153259 94.7561379447417,-9.251164520464652 92.92601092580942,-7.421037501548035 92.2561379447201,-4.921037501547823 92.92601092578803,-2.4210375015418792 94.75613794470465,-0.5909104826096034 97.25613794470486,0.07896249847972336" stroke="#ffa500" stroke-linecap="round" stroke-linejoin="round"/><polyline fill="none" points="98.83338639547819,-79.82062326266023 101.33338639548413,-80.49049624372817 103.1635134144164,-82.32062326264479 103.83338639550573,-84.820623262645 103.16351341443779,-87.32062326265094 101.33338639552117,-89.15075028158321 98.83338639552096,-89.82062326267254 96.33338639551502,-89.1507502816046 94.50325937658275,-87.32062326268799 93.83338639549342,-84.82062326268777 94.50325937656136,-82.32062326268183 96.33338639547797,-80.49049624374956 98.83338639547819,-79.82062326266023" stroke="#ffa500" stroke-linecap="round" stroke-linejoin="round"/><polyline fill="none" points="-30.19735671833443,17.115191810844955 -27.697356718328486,16.445318829777023 -25.867229699396205,14.615191810860408 -25.197356718306875,12.115191810860196 -25.867229699374807,9.61519181085425 -27.697356718291424,7.785064791921971 -30.197356718291637,7.1151918108326395 -32.697356718297584,7.785064791900572 -34.527483737229865,9.615191810817187 -35.1973567183192,12.115191810817398 -34.527483737251266,14.615191810823344 -32.69735671833465,16.445318829755625 -30.19735671833444,17.11519181084496" stroke="#00f" stroke-linecap="round" stroke-linejoin="round"/><polyline fill="none" points="-15.508194542557266,121.7213723894293 -13.008194542551319,121.05149940836138 -11.178067523619038,119.22137238944477 -10.508194542529704,116.72137238944455 -11.178067523597635,114.2213723894386 -13.008194542514248,112.39124537050631 -15.508194542514461,111.72137238941698 -18.00819454252041,112.39124537048491 -19.838321561452695,114.22137238940152 -20.50819454254203,116.72137238940174 -19.8383215614741,119.22137238940769 -18.008194542557487,121.05149940833998 -15.508194542557273,121.72137238942932" stroke="#ffa500" stroke-linecap="round" stroke-linejoin="round"/><polyline fill="none" points="64.67225487403505,-99.0322282667845 67.172254874041,-99.70210124785243 69.00238189297329,-101.53222826676904 69.67225487406263,-104.03222826676925 69.0023818929947,-106.5322282667752 67.17225487407809,-108.3623552857075 64.67225487407788,-109.03222826679684 62.17225487407193,-108.36235528572891 60.342127855139644,-106.5322282668123 59.67225487405031,-104.03222826681208 60.342127855118235,-101.53222826680613 62.17225487403485,-99.70210124787384 64.67225487403506,-99.0322282667845" stroke="#ffa500" stroke-linecap="round" stroke-linejoin="round"/><polyline fill="none" points="-90.5791816312237,22.641635496714102 -88.07918163121775,21.971762515646176 -86.24905461228546,20.141635496729563 -85.57918163119612,17.64163549672935 -86.24905461226405,15.1416354967234 -88.07918163118066,13.311508477791111 -90.57918163118087,12.641635496701772 -93.07918163118683,13.311508477769697 -94.90930865011912,15.141635496686309 -95.57918163120846,17.641635496686522 -94.90930865014053,20.141635496692473 -93.07918163122392,21.97176251562476 -90.5791816312237,22.641635496714102" stroke="#008000" stroke-linecap="round" stroke-linejoin="round"/><polyline fill="none" points="77.40044553703608,-29.56487115619924 79.90044553704203,-30.234744137267164 81.73057255597432,-32.06487115618378 82.40044553706366,-34.56487115618399 81.73057255599574,-37.064871156189945 79.90044553707912,-38.89499817512223 77.40044553707891,-39.564871156211574 74.90044553707295,-38.89499817514365 73.07031851814067,-37.06487115622704 72.40044553705133,-34.56487115622683 73.07031851811925,-32.064871156220875 74.90044553703586,-30.234744137288583 77.40044553703608,-29.56487115619924" stroke="#ffa500" stroke-linecap="round" stroke-linejoin="round"/><polyline fill="none" points="-97.42009324136326,-11.980348708903708 -94.9200932413573,-12.65022168997163 -93.08996622242502,-14.48034870888824 -92.42009324133568,-16.980348708888453 -93.0899662224036,-19.480348708894407 -94.92009324132022,-21.3104757278267 -97.42009324132043,-21.980348708916043 -99.92009324132638,-21.31047572784812 -101.75022026025867,-19.480348708931512 -102.42009324134801,-16.9803487089313 -101.75022026028009,-14.480348708925344 -99.92009324136347,-12.650221689993051 -97.42009324136326,-11.980348708903705" stroke="#00f" stroke-linecap="round" stroke-linejoin="round"/><polyline fill="none" points="50.97745411226103,-92.4035865567595 53.47745411226698,-93.07345953782743 55.30758113119928,-94.90358655674405 55.977454112288626,-97.40358655674426 55.30758113122071,-99.90358655675021 53.4774541123041,-101.7337135756825 50.97745411230389,-102.40358655677184 48.477454112297934,-101.73371357570392 46.64732709336564,-99.9035865567873 45.97745411227629,-97.40358655678709 46.64732709334421,-94.90358655678114 48.477454112260816,-93.07345953784883 50.97745411226103,-92.40358655675948" stroke="#00f" stroke-linecap="round" stroke-linejoin="round"/><polyline fill="none" points="113.15290430021201,-28.272800807031714 115.65290430021797,-28.942673788099633 117.48303131915027,-30.77280080701624 118.15290430023963,-33.27280080701645 117.48303131917172,-35.772800807022406 115.65290430025512,-37.6029278259547 113.1529043002549,-38.27280080704405 110.65290430024895,-37.60292782597613 108.82277728131665,-35.772800807059525 108.15290430022729,-33.27280080705931 108.8227772812952,-30.772800807053354 110.6529043002118,-28.942673788121056 113.15290430021201,-28.272800807031704" stroke="#ffa500" stroke-linecap="round" stroke-linejoin="round"/><polyline fill="none" points="84.89737934210127,-9.29161643164926 87.39737934210723,-9.961489412717174 89.22750636103953,-11.791616431633779 89.89737934212889,-14.29161643163399 89.22750636106097,-16.791616431639948 87.39737934214438,-18.621743450572247 84.89737934214416,-19.2916164316616 82.39737934213821,-18.621743450593684 80.5672523232059,-16.79161643167708 79.89737934211655,-14.29161643167687 80.56725232318446,-11.791616431670914 82.39737934210106,-9.961489412738613 84.89737934210127,-9.29161643164926" stroke="#ffa500" stroke-linecap="round" stroke-linejoin="round"/><polyline fill="none" points="74.63063638679373,-78.97461777447403 77.13063638679968,-79.64449075554194 78.96076340573198,-81.47461777445854 79.63063638682134,-83.97461777445875 78.96076340575343,-86.4746177744647 77.13063638683683,-88.304744793397 74.63063638683661,-88.97461777448636 72.13063638683066,-88.30474479341845 70.30050936789836,-86.47461777450185 69.630636386809,-83.97461777450164 70.30050936787691,-81.47461777449568 72.13063638679351,-79.64449075556338 74.63063638679373,-78.97461777447403" stroke="#ffa500" stroke-linecap="round" stroke-linejoin="round"/><polyline fill="none" points="26.90299719049823,73.493078003761 29.402997190504188,72.82320502269309 31.23312420943649,70.99307800377649 31.90299719052585,68.49307800377628 31.23312420945794,65.99307800377032 29.402997190541342,64.16295098483802 26.90299719054113,63.493078003748664 24.402997190535167,64.16295098481658 22.57287017160286,65.99307800373317 21.902997190513503,68.49307800373339 22.57287017158141,70.99307800373934 24.40299719049801,72.82320502267164 26.902997190498223,73.493078003761" stroke="#00f" stroke-linecap="round" stroke-linejoin="round"/><polyline fill="none" points="78.40939519695063,-39.58587414549188 80.90939519695658,-40.25574712655978 82.73952221588888,-42.08587414547638 83.40939519697824,-44.585874145476595 82.73952221591033,-47.085874145482556 80.90939519699373,-48.916001164414865 78.40939519699351,-49.58587414550423 75.90939519698756,-48.916001164436324 74.07926817805526,-47.085874145519725 73.4093951969659,-44.58587414551951 74.07926817803381,-42.08587414551355 75.90939519695041,-40.25574712658124 78.40939519695063,-39.58587414549188" stroke="#00f" stroke-linecap="round" stroke-linejoin="round"/><polyline fill="none" points="105.7041450036649,-49.82476139870953 108.20414500367087,-50.49463437977744 110.03427202260318,-52.32476139869404 110.70414500369255,-54.82476139869425 110.03427202262465,-57.32476139870021 108.20414500370805,-59.15488841763252 105.70414500370784,-59.82476139872188 103.20414500370187,-59.15488841765398 101.37401798476957,-57.32476139873738 100.7041450036802,-54.82476139873717 101.3740179847481,-52.324761398731205 103.20414500366469,-50.494634379798896 105.7041450036649,-49.824761398709526" stroke="#00f" stroke-linecap="round" stroke-linejoin="round"/><polyline fill="none" points="76.26081888188071,41.06579495754442 78.76081888188668,40.395921976476515 80.590945900819,38.565794957559916 81.26081888190836,36.0657949575597 80.59094590084047,33.56579495755374 78.76081888192387,31.735667938621432 76.26081888192365,31.065794957532066 73.76081888191769,31.735667938599967 71.93069186298537,33.565794957516566 71.260818881896,36.06579495751678 71.9306918629639,38.56579495752274 73.7608188818805,40.39592197645505 76.26081888188071,41.06579495754442" stroke="#ffa500" stroke-linecap="round" stroke-linejoin="round"/><polyline fill="none" points="100.7281036758739,21.38945487057713 103.22810367587986,20.71958188950923 105.05823069481218,18.889454870592633 105.72810367590155,16.38945487059242 105.05823069483365,13.889454870586455 103.22810367591705,12.059327851654142 100.72810367591684,11.389454870564773 98.22810367591087,12.059327851632672 96.39797665697856,13.889454870549267 95.72810367588919,16.38945487054948 96.39797665695708,18.889454870555443 98.22810367587368,20.719581889487756 100.7281036758739,21.38945487057713" stroke="#ffa500" stroke-linecap="round" stroke-linejoin="round"/><polyline fill="none" points="20.79902025715709,-29.507907125316343 23.299020257163054,-30.17778010638424 25.12914727609537,-32.00790712530083 25.799020257184743,-34.507907125301045 25.129147276116846,-37.007907125307014 23.29902025720025,-38.83803414423933 20.799020257200038,-39.5079071253287 18.299020257194073,-38.8380341442608 16.468893238261757,-37.00790712534421 15.799020257172383,-34.507907125344 16.46889323824028,-32.00790712533803 18.299020257156876,-30.177780106405713 20.79902025715709,-29.50790712531634" stroke="#ffa500" stroke-linecap="round" stroke-linejoin="round"/><polyline fill="none" points="83.16799287200338,-0.8723400114223798 85.66799287200935,-1.542212992490275 87.49811989094167,-3.372340011406868 88.16799287203104,-5.872340011407079 87.49811989096314,-8.372340011413048 85.66799287204654,-10.202467030345366 83.16799287204633,-10.87234001143474 80.66799287204036,-10.202467030366847 78.83786585310804,-8.372340011450255 78.16799287201867,-5.872340011450043 78.83786585308657,-3.372340011444075 80.66799287200317,-1.5422129925117558 83.16799287200338,-0.872340011422379" stroke="#ffa500" stroke-linecap="round" stroke-linejoin="round"/><polyline fill="none" points="-73.42236907174329,54.546636055602065 -70.92236907173732,53.876763074534175 -69.092242052805,52.04663605561758 -68.42236907171562,49.54663605561737 -69.09224205278352,47.0466360556114 -70.9223690717001,45.21650903667908 -73.42236907170032,44.5466360555897 -75.92236907170629,45.21650903665759 -77.7524960906386,47.04663605557418 -78.42236907172799,49.546636055574396 -77.75249609066009,52.046636055580365 -75.9223690717435,53.87676307451269 -73.42236907174329,54.546636055602065" stroke="#ffa500" stroke-linecap="round" stroke-linejoin="round"/><polyline fill="none" points="32.16520519464825,-36.93099682868609 34.66520519465422,-37.60086980975398 36.49533221358654,-39.43099682867057 37.16520519467593,-41.930996828670786 36.49533221360804,-44.430996828676754 34.665205194691445,-46.26112384760908 32.16520519469123,-46.93099682869846 29.66520519468526,-46.26112384763057 27.835078175752937,-44.43099682871398 27.165205194663553,-41.930996828713766 27.835078175731443,-39.4309968287078 29.66520519464803,-37.600869809775475 32.165205194648244,-36.93099682868609" stroke="#00f" stroke-linecap="round" stroke-linejoin="round"/><polyline fill="none" points="-116.27048850877718,11.437459656856534 -113.77048850877121,10.767586675788646 -111.94036148983888,8.937459656872058 -111.2704885087495,6.437459656871845 -111.94036148981738,3.937459656865873 -113.77048850873396,2.1073326379335473 -116.27048850873418,1.437459656844163 -118.77048850874014,2.1073326379120494 -120.60061552767247,3.9374596568286373 -121.27048850876186,6.43745965682885 -120.60061552769398,8.937459656834822 -118.77048850877739,10.767586675767149 -116.27048850877718,11.437459656856534" stroke="#ffa500" stroke-linecap="round" stroke-linejoin="round"/><polyline fill="none" points="-93.60931259820538,61.184660686332144 -91.10931259819941,60.51478770526426 -89.27918557926708,58.68466068634768 -88.6093125981777,56.18466068634746 -89.27918557924558,53.68466068634149 -91.10931259816216,51.85453366740916 -93.60931259816238,51.18466068631977 -96.10931259816834,51.854533667387656 -97.93943961710067,53.68466068630424 -98.60931259819006,56.184660686304454 -97.93943961712218,58.68466068631043 -96.10931259820559,60.51478770524276 -93.60931259820538,61.18466068633215" stroke="#ffa500" stroke-linecap="round" stroke-linejoin="round"/><polyline fill="none" points="118.06373015931578,92.79535606028452 120.56373015932175,92.12548307921664 122.39385717825408,90.29535606030005 123.06373015934346,87.79535606029984 122.39385717827558,85.29535606029387 120.563730159359,83.46522904136154 118.06373015935878,82.79535606027216 115.56373015935282,83.46522904134004 113.73360314042048,85.29535606025662 113.0637301593311,87.79535606025684 113.73360314039898,90.2953560602628 115.56373015931557,92.12548307919513 118.06373015931578,92.79535606028453" stroke="#ffa500" stroke-linecap="round" stroke-linejoin="round"/><polyline fill="none" points="-95.65402811518857,44.87131950944873 -93.1540281151826,44.20144652838085 -91.32390109625027,42.371319509464264 -90.65402811516087,39.87131950946405 -91.32390109622875,37.371319509458075 -93.15402811514534,35.541192490525745 -95.65402811514555,34.871319509436354 -98.15402811515153,35.54119249050423 -99.98415513408386,37.371319509420815 -100.65402811517326,39.87131950942103 -99.98415513410538,42.371319509427 -98.1540281151888,44.20144652835934 -95.65402811518858,44.87131950944873" stroke="#f00" stroke-linecap="round" stroke-linejoin="round"/><polyline fill="none" points="38.656177212754,-67.52870236228921 41.15617721275998,-68.19857534335709 42.986304231692316,-70.02870236227368 43.656177212781714,-72.52870236227389 42.98630423171384,-75.02870236227987 41.15617721279725,-76.8588293812122 38.65617721279704,-77.5287023623016 36.156177212791064,-76.85882938123372 34.32605019385873,-75.02870236231713 33.65617721276933,-72.52870236231692 34.326050193837204,-70.02870236231094 36.15617721275379,-68.19857534337861 38.656177212754,-67.52870236228921" stroke="#ffa500" stroke-linecap="round" stroke-linejoin="round"/><polyline fill="none" points="103.09825329519396,-50.79020091568536 105.59825329519994,-51.46007389675324 107.42838031413227,-53.29020091566982 108.09825329522167,-55.790200915670034 107.4283803141538,-58.29020091567602 105.59825329523721,-60.120327934608355 103.098253295237,-60.79020091569775 100.59825329523102,-60.12032793462988 98.76812627629867,-58.29020091571329 98.09825329520928,-55.79020091571308 98.76812627627714,-53.290200915707096 100.59825329519373,-51.46007389677476 103.09825329519394,-50.79020091568536" stroke="#ffa500" stroke-linecap="round" stroke-linejoin="round"/><polyline fill="none" points="132.49812805792118,-16.320755328278892 134.99812805792715,-16.990628309346764 136.82825507685948,-18.820755328263346 137.4981280579489,-21.32075532826356 136.82825507688102,-23.82075532826954 134.99812805796444,-25.650882347201883 132.4981280579642,-26.320755328291284 129.99812805795824,-25.650882347223412 128.1680010390259,-23.82075532830683 127.49812805793651,-21.320755328306618 128.1680010390044,-18.820755328300635 129.99812805792098,-16.990628309368294 132.49812805792118,-16.320755328278892" stroke="#ffa500" stroke-linecap="round" stroke-linejoin="round"/><polyline fill="none" points="-74.18107722245237,49.97651465951053 -71.68107722244639,49.30664167844266 -69.85095020351405,47.47651465952608 -69.18107722242465,44.97651465952587 -69.85095020349252,42.476514659519886 -71.6810772224091,40.64638764058754 -74.18107722240931,39.976514659498136 -76.6810772224153,40.646387640566005 -78.51120424134764,42.47651465948258 -79.18107722243704,44.976514659482795 -78.51120424136917,47.47651465948878 -76.68107722245259,49.30664167842112 -74.18107722245237,49.97651465951053" stroke="#00f" stroke-linecap="round" stroke-linejoin="round"/><polyline fill="none" points="80.25812231786206,-51.58423644464177 82.75812231786804,-52.254109425709636 84.58824933680039,-54.084236444626214 85.2581223178898,-56.58423644462643 84.58824933682193,-59.08423644463241 82.75812231790536,-60.914363463564754 80.25812231790515,-61.58423644465416 77.75812231789916,-60.91436346358629 75.92799529896682,-59.08423644466971 75.25812231787741,-56.5842364446695 75.92799529894528,-54.08423644466352 77.75812231786185,-52.25410942573117 80.25812231786206,-51.58423644464177" stroke="#ffa500" stroke-linecap="round" stroke-linejoin="round"/><polyline fill="none" points="106.0527236017534,15.450281175717393 108.55272360175938,14.780408194649526 110.38285062069173,12.950281175732949 111.05272360178114,10.450281175732735 110.38285062071327,7.950281175726749 108.5527236017967,6.120154156794401 106.05272360179649,5.450281175704991 103.5527236017905,6.120154156772856 101.72259658285816,7.950281175689433 101.05272360176875,10.450281175689646 101.72259658283662,12.950281175695633 103.55272360175319,14.78040819462798 106.0527236017534,15.450281175717391" stroke="#ffa500" stroke-linecap="round" stroke-linejoin="round"/><polyline fill="none" points="116.74952452686567,103.3700559807977 119.24952452687165,102.70018299972983 121.079651545804,100.87005598081326 121.74952452689341,98.37005598081305 121.07965154582554,95.87005598080707 119.24952452690897,94.03992896187472 116.74952452690876,93.37005598078531 114.24952452690277,94.03992896185318 112.41939750797043,95.87005598076975 111.74952452688102,98.37005598076996 112.41939750794889,100.87005598077594 114.24952452686546,102.70018299970829 116.74952452686567,103.3700559807977" stroke="#ffa500" stroke-linecap="round" stroke-linejoin="round"/><polyline fill="none" points="31.196017214432246,128.1390475798549 33.696017214438235,127.46917459878703 35.52614423337059,125.63904757987046 36.19601721446,123.13904757987025 35.52614423339214,120.63904757986427 33.69601721447556,118.80892056093191 31.196017214475347,118.1390475798425 28.696017214469357,118.80892056091035 26.865890195537002,120.63904757982692 26.196017214447586,123.13904757982714 26.865890195515444,125.63904757983313 28.69601721443202,127.46917459876549 31.19601721443223,128.13904757985492" stroke="#ffa500" stroke-linecap="round" stroke-linejoin="round"/><polyline fill="none" points="-76.10638782531433,-12.20704229322298 -73.60638782530833,-12.876915274290837 -71.77626080637597,-14.707042293207412 -71.10638782528656,-17.207042293207625 -71.77626080635441,-19.707042293213615 -73.60638782527099,-21.53716931214597 -76.1063878252712,-22.20704229323539 -78.6063878252772,-21.53716931216753 -80.43651484420955,-19.707042293250957 -81.10638782529898,-17.207042293250744 -80.43651484423113,-14.707042293244752 -78.60638782531456,-12.876915274312395 -76.10638782531434,-12.207042293222974" stroke="#00f" stroke-linecap="round" stroke-linejoin="round"/><polyline fill="none" points="-131.3602549826325,39.77096857446901 -128.86025498262651,39.101095593401155 -127.03012796369416,37.270968574484584 -126.36025498260473,34.77096857448437 -127.03012796367258,32.27096857447838 -128.86025498258914,30.440841555546022 -131.36025498258937,29.7709685744566 -133.86025498259536,30.440841555524454 -135.69038200152772,32.27096857444102 -136.36025498261714,34.770968574441234 -135.6903820015493,37.270968574447224 -133.86025498263274,39.10109559337958 -131.3602549826325,39.77096857446901" stroke="#00f" stroke-linecap="round" stroke-linejoin="round"/><polyline fill="none" points="106.43987909519964,118.52485437171185 108.93987909520564,117.854981390644 110.770006114138,116.02485437172743 111.43987909522743,113.52485437172722 110.77000611415957,111.02485437172122 108.939879095243,109.19472735278886 106.43987909524279,108.52485437169943 103.93987909523679,109.19472735276729 102.10975207630443,111.02485437168386 101.439879095215,113.52485437168407 102.10975207628286,116.02485437169007 103.93987909519943,117.85498139062243 106.43987909519964,118.52485437171185" stroke="#ffa500" stroke-linecap="round" stroke-linejoin="round"/><polyline fill="none" points="-14.756623039089384,83.5328419255559 -12.256623039083388,82.86296894448805 -10.426496020151024,81.03284192557147 -9.756623039061598,78.53284192557126 -10.426496020129449,76.03284192556526 -12.256623039046017,74.2027149066329 -14.756623039046232,73.53284192554348 -17.25662303905223,74.20271490661133 -19.086750057984595,76.0328419255279 -19.756623039074025,78.53284192552812 -19.086750058006174,81.03284192553411 -17.256623039089607,82.86296894446647 -14.756623039089394,83.5328419255559" stroke="#ffa500" stroke-linecap="round" stroke-linejoin="round"/><polyline fill="none" points="-65.77584124860105,-15.596149575240307 -63.27584124859506,-16.266022556308155 -61.44571422966269,-18.09614957522472 -60.77584124857326,-20.596149575224935 -61.445714229641105,-23.096149575230932 -63.27584124855767,-24.926276594163298 -65.77584124855788,-25.596149575252728 -68.27584124856388,-24.92627659418488 -70.10596826749625,-23.096149575268313 -70.77584124858568,-20.5961495752681 -70.10596826751784,-18.096149575262103 -68.27584124860127,-16.266022556329734 -65.77584124860105,-15.596149575240302" stroke="#00f" stroke-linecap="round" stroke-linejoin="round"/><polyline fill="none" points="86.70536754712691,3.7352072018012317 89.20536754713291,3.065334220733386 91.03549456606528,1.23520720181682 91.70536754715471,-1.2647927981833944 91.03549456608687,-3.7647927981893936 89.2053675471703,-5.594919817121763 86.70536754717008,-6.2647927982111975 84.20536754716409,-5.594919817143353 82.37524052823171,-3.7647927982267877 81.70536754714227,-1.2647927982265736 82.37524052821011,1.2352072017794256 84.20536754712668,3.0653342207117964 86.7053675471269,3.7352072018012317" stroke="#ffa500" stroke-linecap="round" stroke-linejoin="round"/><polyline fill="none" points="54.81023695240094,35.05608711400774 57.31023695240694,34.3862141329399 59.14036397133931,32.556087114023335 59.810236952428745,30.05608711402312 59.140363971360905,27.55608711401712 57.31023695244434,25.725960095084748 54.81023695244413,25.05608711399531 52.310236952438125,25.72596009506315 50.48010993350575,27.556087113979714 49.81023695241631,30.056087113979927 50.48010993348415,32.55608711398593 52.310236952400714,34.386214132918305 54.81023695240093,35.056087114007745" stroke="#00f" stroke-linecap="round" stroke-linejoin="round"/><polyline fill="none" points="41.30874991551212,93.60820018617962 43.80874991551812,92.93832720511178 45.638876934450494,91.10820018619522 46.308749915539934,88.608200186195 45.638876934472094,86.10820018618901 43.80874991555553,84.27807316725664 41.30874991555532,83.6082001861672 38.80874991554931,84.27807316723504 36.97862289661694,86.10820018615159 36.3087499155275,88.6082001861518 36.97862289659534,91.1082001861578 38.8087499155119,92.93832720509018 41.30874991551212,93.60820018617962" stroke="#ffa500" stroke-linecap="round" stroke-linejoin="round"/><polyline fill="none" points="-52.683469406480334,9.302068649759008 -50.18346940647433,8.63219566869117 -48.35334238754196,6.802068649774608 -47.68346940645252,4.302068649774393 -48.35334238752036,1.8020686497683895 -50.18346940643692,-0.028058369163987518 -52.68346940643713,-0.6979313502534299 -55.18346940644314,-0.02805836918559279 -57.01359642537552,1.802068649730968 -57.68346940646496,4.302068649731182 -57.013596425397125,6.802068649737185 -55.18346940648056,8.632195668669564 -52.68346940648035,9.302068649759008" stroke="#ffa500" stroke-linecap="round" stroke-linejoin="round"/><polyline fill="none" points="8.388191578776633,68.30384549517052 10.888191578782637,67.63397251410268 12.718318597715015,65.80384549518612 13.38819157880446,63.30384549518591 12.718318597736625,60.80384549517991 10.888191578820065,58.97371847624753 8.38819157881985,58.30384549515808 5.888191578813846,58.97371847622591 4.0580645598814655,60.80384549514247 3.38819157879202,63.30384549514268 4.058064559859854,65.80384549514869 5.888191578776413,67.63397251408108 8.388191578776627,68.30384549517052" stroke="#ffa500" stroke-linecap="round" stroke-linejoin="round"/><polyline fill="none" points="22.373796747036273,64.94215958561131 24.873796747042277,64.27228660454347 26.703923765974658,62.44215958562691 27.373796747064105,59.9421595856267 26.703923765996272,57.44215958562069 24.873796747079712,55.61203256668831 22.3737967470795,54.942159585598866 19.87379674707349,55.6120325666667 18.043669728141108,57.442159585583255 17.37379674705166,59.94215958558347 18.043669728119493,62.44215958558947 19.87379674703605,64.27228660452185 22.373796747036266,64.94215958561131" stroke="#ffa500" stroke-linecap="round" stroke-linejoin="round"/><polyline fill="none" points="41.955372353418205,50.374767662140165 44.45537235342421,49.70489468107233 46.2854993723566,47.874767662155776 46.955372353446045,45.37476766215556 46.28549937237821,42.87476766214955 44.455372353461655,41.044640643217164 41.95537235346144,40.37476766212772 39.45537235345543,41.04464064319555 37.62524533452304,42.874767662112106 36.95537235343359,45.37476766211232 37.62524533450142,47.87476766211833 39.45537235341798,49.70489468105072 41.95537235341819,50.37476766214017" stroke="#00f" stroke-linecap="round" stroke-linejoin="round"/><polyline fill="none" points="-15.940978042488837,109.77353990340771 -13.440978042482827,109.10366692233988 -11.61085102355044,107.27353990342333 -10.940978042460987,104.77353990342311 -11.610851023528815,102.2735399034171 -13.440978042445371,100.44341288448472 -15.940978042445586,99.77353990339526 -18.440978042451597,100.44341288446309 -20.271105061383984,102.27353990337964 -20.94097804247344,104.77353990337986 -20.271105061405613,107.27353990338587 -18.440978042489057,109.10366692231825 -15.940978042488842,109.77353990340771" stroke="#ffa500" stroke-linecap="round" stroke-linejoin="round"/><polyline fill="none" points="-74.95644733441928,47.36042902764219 -72.45644733441327,46.690556046574365 -70.62632031548088,44.86042902765781 -69.95644733439143,42.360429027657595 -70.62632031545925,39.860429027651584 -72.45644733437581,38.0303020087192 -74.95644733437602,37.36042902762974 -77.45644733438203,38.03030200869757 -79.28657435331442,39.860429027614124 -79.95644733440388,42.36042902761434 -79.28657435333605,44.86042902762035 -77.4564473344195,46.690556046552736 -74.95644733441928,47.36042902764219" stroke="#00f" stroke-linecap="round" stroke-linejoin="round"/><polyline fill="none" points="-78.88878744393253,109.28979286675134 -76.38878744392652,108.61991988568352 -74.55866042499413,106.78979286676696 -73.88878744390468,104.28979286676675 -74.5586604249725,101.78979286676073 -76.38878744388906,99.95966584782835 -78.88878744388927,99.28979286673889 -81.38878744389528,99.95966584780672 -83.21891446282767,101.78979286672327 -83.88878744391712,104.28979286672349 -83.2189144628493,106.7897928667295 -81.38878744393274,108.61991988566189 -78.88878744393253,109.28979286675134" stroke="#ffa500" stroke-linecap="round" stroke-linejoin="round"/><polyline fill="none" points="25.82048776467861,96.28626492502097 28.320487764684625,95.61639194395315 30.15061478361702,93.78626492503659 30.82048776470648,91.28626492503638 30.15061478363866,88.78626492503037 28.320487764722106,86.95613790609796 25.82048776472189,86.28626492500851 23.320487764715875,86.95613790607634 21.49036074578348,88.78626492499289 20.82048776469402,91.2862649249931 21.49036074576184,93.78626492499912 23.320487764678393,95.61639194393152 25.82048776467861,96.28626492502099" stroke="#ffa500" stroke-linecap="round" stroke-linejoin="round"/><polyline fill="none" points="-81.83101663103605,34.409351497593576 -79.33101663103004,33.73947851652576 -77.50088961209764,31.909351497609205 -76.83101663100817,29.409351497608988 -77.500889612076,26.909351497602973 -79.33101663099255,25.079224478670575 -81.83101663099276,24.40935149758111 -84.33101663099877,25.07922447864893 -86.16114364993118,26.90935149756548 -86.83101663102065,29.409351497565698 -86.16114364995283,31.909351497571713 -84.33101663103628,33.739478516504114 -81.83101663103606,34.40935149759358" stroke="#008000" stroke-linecap="round" stroke-linejoin="round"/><polyline fill="none" points="-81.96535113257525,17.874520892653894 -79.46535113256924,17.204647911586076 -77.63522411363684,15.374520892669524 -76.96535113254737,12.874520892669308 -77.63522411361518,10.37452089266329 -79.46535113253174,8.54439387373089 -81.96535113253195,7.874520892641422 -84.46535113253796,8.544393873709238 -86.29547815147036,10.374520892625787 -86.96535113255983,12.874520892626004 -86.29547815149202,15.374520892632022 -84.46535113257546,17.20464791156442 -81.96535113257525,17.87452089265389" stroke="#00f" stroke-linecap="round" stroke-linejoin="round"/><polyline fill="none" points="1.9998570232906872,106.33865790988784 4.499857023296706,105.66878492882003 6.329984042229109,103.83865790990347 6.999857023318579,101.33865790990326 6.329984042250764,98.83865790989724 4.499857023334215,97.00853089096483 1.9998570233339983,96.33865790987537 -0.5001429766720218,97.00853089094318 -2.330269995604425,98.83865790985972 -3.0001429766938967,101.33865790985993 -2.330269995626084,103.83865790986596 -0.500142976709536,105.66878492879836 1.9998570232906807,106.33865790988783" stroke="#00f" stroke-linecap="round" stroke-linejoin="round"/><polyline fill="none" points="-106.22703820954982,42.14116088450644 -103.72703820954379,41.47128790343863 -101.89691119061139,39.64116088452208 -101.22703820952192,37.14116088452186 -101.89691119058973,34.64116088451584 -103.72703820950628,32.81103386558343 -106.22703820950649,32.14116088449396 -108.72703820951251,32.81103386556177 -110.55716522844492,34.64116088447832 -111.22703820953438,37.14116088447854 -110.55716522846657,39.64116088448456 -108.72703820955003,41.47128790341697 -106.22703820954982,42.14116088450645" stroke="#00f" stroke-linecap="round" stroke-linejoin="round"/><polyline fill="none" points="41.06165627011326,114.84805826563921 43.561656270119286,114.1781852845714 45.391783289051695,112.34805826565486 46.06165627014117,109.84805826565464 45.39178328907336,107.34805826564862 43.56165627015681,105.51793124671622 41.06165627015659,104.84805826562673 38.561656270150564,105.51793124669454 36.731529251218156,107.34805826561109 36.06165627012868,109.8480582656113 36.73152925119649,112.34805826561733 38.56165627011304,114.17818528454974 41.06165627011326,114.84805826563922" stroke="#ffa500" stroke-linecap="round" stroke-linejoin="round"/><polyline fill="none" points="-69.96992184882343,83.94298218896712 -67.4699218488174,83.27310920789931 -65.63979482988499,81.44298218898277 -64.96992184879551,78.94298218898255 -65.63979482986332,76.44298218897653 -67.46992184877986,74.61285517004411 -69.96992184878007,73.94298218895463 -72.4699218487861,74.61285517002244 -74.30004886771852,76.44298218893898 -74.969921848808,78.9429821889392 -74.30004886774019,81.44298218894522 -72.46992184882365,83.27310920787764 -69.96992184882343,83.94298218896712" stroke="#ffa500" stroke-linecap="round" stroke-linejoin="round"/><polyline fill="none" points="32.08382505202347,-55.433746839940724 34.583825052029496,-56.10361982100853 36.41395207096191,-57.93374683992507 37.083825052051395,-60.43374683992529 36.41395207098359,-62.93374683993132 34.58382505206705,-64.76387385886373 32.08382505206683,-65.43374683995322 29.583825052060803,-64.76387385888542 27.75369803312839,-62.933746839968876 27.083825052038907,-60.433746839968656 27.753698033106712,-57.93374683996263 29.583825052023254,-56.103619821030215 32.08382505202347,-55.43374683994073" stroke="#ffa500" stroke-linecap="round" stroke-linejoin="round"/><polyline fill="none" points="-57.78421366540182,103.6803660812619 -55.2842136653958,103.0104931001941 -53.45408664646338,101.18036608127755 -52.7842136653739,98.68036608127734 -53.4540866464417,96.18036608127132 -55.284213665358244,94.3502390623389 -57.784213665358465,93.68036608124942 -60.28421366536449,94.35023906231721 -62.114340684296906,96.18036608123376 -62.78421366538639,98.68036608123397 -62.114340684318584,101.18036608124 -60.28421366540204,103.01049310017241 -57.78421366540182,103.6803660812619" stroke="#ffa500" stroke-linecap="round" stroke-linejoin="round"/><polyline fill="none" points="52.81048518713913,18.266142966464905 55.31048518714516,17.596269985397104 57.14061220607758,15.766142966480562 57.81048518716707,13.266142966480343 57.14061220609927,10.766142966474314 55.31048518718273,8.936015947541897 52.81048518718251,8.26614296645241 50.310485187176475,8.93601594752021 48.48035816824406,10.766142966436751 47.81048518715457,13.26614296643697 48.48035816822237,15.766142966443 50.31048518713891,17.59626998537542 52.81048518713913,18.266142966464912" stroke="#ffa500" stroke-linecap="round" stroke-linejoin="round"/><polyline fill="none" points="-101.41479188698708,35.0543995749733 -98.91479188698105,34.384526593905505 -97.08466486804863,32.55439957498896 -96.41479188695915,30.054399574988743 -97.08466486802695,27.55439957498271 -98.91479188694349,25.72427255605029 -101.4147918869437,25.0543995749608 -103.91479188694973,25.7242725560286 -105.74491890588214,27.554399574945137 -106.41479188697164,30.054399574945354 -105.74491890590384,32.55439957495138 -103.9147918869873,34.384526593883805 -101.41479188698709,35.054399574973296" stroke="#008000" stroke-linecap="round" stroke-linejoin="round"/><polyline fill="none" points="-85.55614036802642,67.1887443017946 -83.0561403680204,66.5188713207268 -81.22601334908798,64.68874430181026 -80.55614036799848,62.18874430181004 -81.22601334906628,59.68874430180401 -83.05614036798282,57.858617282871585 -85.55614036798303,57.188744301782094 -88.05614036798906,57.85861728284989 -89.88626738692149,59.688744301766434 -90.55614036801099,62.188744301766654 -89.88626738694319,64.68874430177269 -88.05614036802665,66.51887132070512 -85.55614036802643,67.18874430179461" stroke="#00f" stroke-linecap="round" stroke-linejoin="round"/><polyline fill="none" points="-101.86087488006966,81.6010235518087 -99.36087488006362,80.9311505707409 -97.53074786113119,79.10102355182435 -96.86087488004169,76.60102355182414 -97.53074786110949,74.1010235518181 -99.36087488002603,72.27089653288567 -101.86087488002624,71.60102355179617 -104.36087488003228,72.27089653286397 -106.19100189896471,74.10102355178051 -106.86087488005421,76.60102355178073 -106.19100189898641,79.10102355178677 -104.36087488006987,80.9311505707192 -101.86087488006966,81.6010235518087" stroke="#ffa500" stroke-linecap="round" stroke-linejoin="round"/><polyline fill="none" points="104.62704237148733,102.11398564014405 107.12704237149337,101.44411265907625 108.9571693904258,99.61398564015971 109.6270423715153,97.1139856401595 108.95716939044752,94.61398564015346 107.12704237153098,92.78385862122103 104.62704237153076,92.11398564013153 102.12704237152472,92.78385862119931 100.2969153525923,94.61398564011586 99.6270423715028,97.11398564011607 100.29691535257058,99.61398564012211 102.12704237148712,101.44411265905454 104.62704237148733,102.11398564014404" stroke="#00f" stroke-linecap="round" stroke-linejoin="round"/><polyline fill="none" points="-127.86609418405683,-32.74176146471417 -125.3660941840508,-33.411634445781964 -123.53596716511836,-35.2417614646985 -122.86609418402887,-37.74176146469872 -123.53596716509665,-40.24176146470476 -125.36609418401318,-42.07188848363719 -127.86609418401339,-42.74176146472669 -130.36609418401943,-42.0718884836589 -132.19622120295188,-40.24176146474237 -132.86609418404137,-37.74176146474215 -132.1962212029736,-35.24176146473611 -130.36609418405706,-33.41163444580368 -127.86609418405685,-32.74176146471417" stroke="#ffa500" stroke-linecap="round" stroke-linejoin="round"/><polyline fill="none" points="-74.67019416728557,87.06970725637504 -72.17019416727953,86.39983427530726 -70.3400671483471,84.56970725639073 -69.6701941672576,82.06970725639052 -70.34006714832539,79.56970725638448 -72.17019416724192,77.73958023745205 -74.67019416724213,77.06970725636253 -77.17019416724817,77.73958023743032 -79.0003211861806,79.56970725634685 -79.67019416727011,82.06970725634706 -79.00032118620233,84.5697072563531 -77.1701941672858,86.39983427528553 -74.67019416728559,87.06970725637504" stroke="#ffa500" stroke-linecap="round" stroke-linejoin="round"/><polyline fill="none" points="-151.35984993953727,37.02501834879972 -148.85984993953122,36.355145367731936 -147.02972292059877,34.5250183488154 -146.35984993950927,32.02501834881518 -147.02972292057706,29.52501834880914 -148.85984993949359,27.694891329876704 -151.3598499394938,27.025018348787196 -153.85984993949987,27.69489132985498 -155.6899769584323,29.52501834877151 -156.3598499395218,32.02501834877173 -155.68997695845403,34.52501834877777 -153.8598499395375,36.35514536771021 -151.35984993953727,37.02501834879972" stroke="#ffa500" stroke-linecap="round" stroke-linejoin="round"/><polyline fill="none" points="-87.66286051845971,34.07697264956097 -85.16286051845367,33.40709966849319 -83.33273349952123,31.576972649576657 -82.66286051843171,29.076972649576437 -83.3327334994995,26.576972649570394 -85.16286051841603,24.746845630637957 -87.66286051841624,24.076972649548445 -90.16286051842228,24.746845630616225 -91.99298753735472,26.576972649532756 -92.66286051844423,29.076972649532976 -91.99298753737645,31.57697264953902 -90.16286051845992,33.40709966847146 -87.66286051845971,34.07697264956097" stroke="#008000" stroke-linecap="round" stroke-linejoin="round"/><polyline fill="none" points="-122.86944351286793,-24.239920828427014 -120.36944351286189,-24.909793809494793 -118.53931649392945,-26.739920828411325 -117.86944351283994,-29.23992082841154 -118.53931649390772,-31.739920828417585 -120.36944351282425,-33.570047847350025 -122.86944351282446,-34.23992082843954 -125.3694435128305,-33.57004784737176 -127.19957053176294,-31.739920828455233 -127.86944351285246,-29.239920828455013 -127.19957053178467,-26.73992082844897 -125.36944351286814,-24.90979380951653 -122.86944351286793,-24.239920828427014" stroke="#ffa500" stroke-linecap="round" stroke-linejoin="round"/><polyline fill="none" points="-99.75791850893411,-20.684062099155174 -97.25791850892807,-21.35393508022295 -95.42779148999563,-23.184062099139478 -94.75791850890612,-25.684062099139695 -95.42779148997388,-28.184062099145738 -97.25791850889041,-30.014189118078182 -99.75791850889063,-30.684062099167697 -102.25791850889667,-30.01418911809992 -104.08804552782911,-28.184062099183393 -104.75791850891862,-25.684062099183173 -104.08804552785085,-23.184062099177126 -102.25791850893432,-21.353935080244682 -99.75791850893411,-20.684062099155163" stroke="#00f" stroke-linecap="round" stroke-linejoin="round"/><polyline fill="none" points="38.406087904867974,-78.05548379599144 40.90608790487402,-78.7253567770592 42.736214923806465,-80.55548379597573 43.40608790489598,-83.05548379597595 42.73621492382821,-85.55548379598198 40.90608790491168,-87.38561081491443 38.40608790491146,-88.05548379600395 35.90608790490541,-87.38561081493619 34.07596088597297,-85.55548379601966 33.40608790488345,-83.05548379601944 34.07596088595122,-80.5554837960134 35.906087904867746,-78.72535677708096 38.40608790486797,-78.05548379599144" stroke="#00f" stroke-linecap="round" stroke-linejoin="round"/><polyline fill="none" points="-111.7404009176676,21.554761270419927 -109.24040091766156,20.884888289352155 -107.41027389872912,19.05476127043563 -106.74040091763959,16.55476127043541 -107.41027389870736,14.054761270429363 -109.24040091762389,12.224634251496916 -111.7404009176241,11.554761270407395 -114.24040091763015,12.224634251475166 -116.0705279365626,14.054761270391692 -116.74040091765212,16.55476127039191 -116.07052793658436,19.054761270397957 -114.24040091766783,20.884888289330405 -111.74040091766761,21.554761270419927" stroke="#00f" stroke-linecap="round" stroke-linejoin="round"/><polyline fill="none" points="-15.037979488234177,59.419218131202626 -12.537979488228128,58.74934515013486 -10.707852469295679,56.91921813121833 -10.037979488206155,54.41921813121811 -10.707852469273924,51.91921813121206 -12.537979488190448,50.08909111227961 -15.037979488190667,49.419218131190085 -17.537979488196715,50.089091112257854 -19.368106507129166,51.919218131174375 -20.037979488218692,54.419218131174595 -19.368106507150923,56.91921813118064 -17.5379794882344,58.74934515011309 -15.03797948823418,59.41921813120262" stroke="#ffa500" stroke-linecap="round" stroke-linejoin="round"/><polyline fill="none" points="-55.43837714683119,54.80561773942409 -52.93837714682515,54.135744758356324 -51.108250127892696,52.3056177394398 -50.43837714680317,49.80561773943958 -51.10825012787094,47.305617739433536 -52.93837714678746,45.475490720501085 -55.43837714678768,44.80561773941156 -57.93837714679373,45.47549072047933 -59.76850416572618,47.30561773939585 -60.438377146815704,49.80561773939607 -59.768504165747935,52.305617739402116 -57.938377146831414,54.13574475833457 -55.43837714683119,54.80561773942409" stroke="#008000" stroke-linecap="round" stroke-linejoin="round"/><polyline fill="none" points="39.36210883246828,37.40413530808025 41.86210883247433,36.73426232701249 43.69223585140678,34.90413530809597 44.362108832496304,32.404135308095746 43.69223585142854,29.904135308089696 41.86210883251202,28.07400828915724 39.3621088325118,27.404135308067712 36.86210883250575,28.074008289135477 35.031981813573296,29.904135308052 34.36210883248376,32.40413530805222 35.031981813551525,34.90413530805827 36.862108832468046,36.73426232699073 39.362108832468266,37.404135308080264" stroke="#ffa500" stroke-linecap="round" stroke-linejoin="round"/><polyline fill="none" points="-8.90188285210565,-111.00624095614899 -6.401882852099599,-111.67611393721675 -4.571755833167144,-113.50624095613327 -3.9018828520776125,-116.00624095613348 -4.5717558331453745,-118.50624095613954 -6.401882852061895,-120.336367975072 -8.901882852062114,-121.00624095616152 -11.401882852068166,-120.33636797509376 -13.232009871000622,-118.50624095617725 -13.901882852090155,-116.00624095617704 -13.232009871022393,-113.50624095617098 -11.401882852105874,-111.67611393723853 -8.901882852105656,-111.00624095614899" stroke="#ffa500" stroke-linecap="round" stroke-linejoin="round"/><polyline fill="none" points="-47.50767649577502,90.57006889477573 -45.00767649576897,89.90019591370798 -43.17754947683651,88.07006889479146 -42.50767649574698,85.57006889479125 -43.17754947681474,83.0700688947852 -45.00767649573126,81.23994187585274 -47.50767649573148,80.5700688947632 -50.007676495737535,81.23994187583095 -51.83780351466999,83.07006889474746 -52.507676495759526,85.57006889474768 -51.83780351469177,88.07006889475373 -50.00767649577525,89.90019591368619 -47.50767649577503,90.57006889477573" stroke="#ffa500" stroke-linecap="round" stroke-linejoin="round"/><polyline fill="none" points="69.55074017660169,-55.50430598239404 72.05074017660775,-56.17417896346179 73.8808671955402,-58.00430598237831 74.55074017662974,-60.50430598237853 73.88086719556199,-63.00430598238459 72.05074017664548,-64.83443300131705 69.55074017664526,-65.50430598240659 67.05074017663921,-64.83443300133884 65.22061315770675,-63.00430598242232 64.55074017661721,-60.5043059824221 65.22061315768497,-58.00430598241605 67.05074017660148,-56.174178963483584 69.55074017660169,-55.504305982394044" stroke="#ffa500" stroke-linecap="round" stroke-linejoin="round"/><polyline fill="none" points="-38.818369207752475,-88.7548887895547 -36.31836920774642,-89.42476177062245 -34.488242188813956,-91.25488878953897 -33.818369207724416,-93.75488878953918 -34.48824218879217,-96.25488878954523 -36.318369207708685,-98.08501580847769 -38.818369207708905,-98.75488878956723 -41.31836920771496,-98.08501580849948 -43.148496226647424,-96.25488878958296 -43.818369207736964,-93.75488878958275 -43.14849622666921,-91.2548887895767 -41.318369207752696,-89.42476177064424 -38.818369207752475,-88.7548887895547" stroke="#ffa500" stroke-linecap="round" stroke-linejoin="round"/><polyline fill="none" points="70.75642916421958,-29.817082549830772 73.25642916422564,-30.486955530898523 75.08655618315811,-32.31708254981504 75.75642916424765,-34.81708254981526 75.0865561831799,-37.31708254982132 73.25642916426338,-39.14720956875379 70.75642916426317,-39.81708254984333 68.25642916425711,-39.14720956877557 66.42630214532464,-37.31708254985906 65.7564291642351,-34.81708254985884 66.42630214530286,-32.31708254985278 68.25642916421937,-30.486955530920312 70.75642916421958,-29.81708254983077" stroke="#00f" stroke-linecap="round" stroke-linejoin="round"/><polyline fill="none" points="103.85752666285349,-58.94557037281089 106.35752666285954,-59.61544335387864 108.18765368179201,-61.44557037279515 108.85752666288155,-63.94557037279537 108.1876536818138,-66.44557037280143 106.35752666289729,-68.2756973917339 103.85752666289707,-68.94557037282344 101.35752666289102,-68.27569739175568 99.52739964395855,-66.44557037283917 98.857526662869,-63.94557037283895 99.52739964393676,-61.44557037283289 101.35752666285327,-59.61544335390042 103.85752666285349,-58.94557037281087" stroke="#00f" stroke-linecap="round" stroke-linejoin="round"/><polyline fill="none" points="-120.8581605100036,-11.177201291303668 -118.35816050999755,-11.847074272371415 -116.52803349106507,-13.677201291287927 -115.85816050997552,-16.177201291288146 -116.52803349104326,-18.677201291294207 -118.35816050995977,-20.50732831022668 -120.85816050995999,-21.177201291316226 -123.35816050996604,-20.50732831024848 -125.18828752889851,-18.67720129133197 -125.85816050998807,-16.17720129133175 -125.18828752892033,-13.67720129132569 -123.35816051000381,-11.847074272393218 -120.8581605100036,-11.177201291303668" stroke="#00f" stroke-linecap="round" stroke-linejoin="round"/><polyline fill="none" points="81.06203240534944,-46.186907063214335 83.56203240535551,-46.85678004428208 85.39215942428798,-48.686907063198596 86.06203240537754,-51.18690706319882 85.3921594243098,-53.68690706320488 83.56203240539328,-55.51703408213735 81.06203240539307,-56.186907063226904 78.562032405387,-55.51703408215916 76.73190538645453,-53.68690706324265 76.06203240536497,-51.18690706324243 76.73190538643271,-48.68690706323637 78.56203240534923,-46.856780044303896 81.06203240534944,-46.18690706321434" stroke="#00f" stroke-linecap="round" stroke-linejoin="round"/><polyline fill="none" points="-92.6950143187301,-58.60160562343524 -90.19501431872403,-59.27147860450298 -88.36488729979156,-61.10160562341949 -87.69501431870201,-63.60160562341971 -88.36488729976975,-66.10160562342577 -90.19501431868626,-67.93173264235824 -92.69501431868648,-68.6016056234478 -95.19501431869254,-67.93173264238006 -97.02514133762502,-66.10160562346354 -97.69501431871457,-63.60160562346332 -97.02514133764683,-61.10160562345726 -95.19501431873032,-59.27147860452478 -92.6950143187301,-58.601605623435226" stroke="#ffa500" stroke-linecap="round" stroke-linejoin="round"/><polyline fill="none" points="-138.26665279069977,4.821779625385139 -135.7666527906937,4.151906644317398 -133.93652577176124,2.3217796254008904 -133.26665279067169,-0.17822037459932805 -133.9365257717394,-2.6782203746053925 -135.7666527906559,-4.508347393537871 -138.26665279065614,-5.178220374627429 -140.7666527906622,-4.50834739355969 -142.59677980959466,-2.6782203746431836 -143.26665279068422,-0.17822037464296514 -142.5967798096165,2.3217796253631 -140.7666527907,4.15190664429558 -138.26665279069977,4.821779625385139" stroke="#ffa500" stroke-linecap="round" stroke-linejoin="round"/><polyline fill="none" points="19.7935468046791,37.66940116758411 22.293546804685164,36.99952818651637 24.123673823617644,35.169401167599865 24.793546804707205,32.669401167599645 24.123673823639468,30.16940116759358 22.29354680472296,28.3392741486611 19.793546804722745,27.66940116757154 17.29354680471668,28.339274148639277 15.463419785784199,30.169401167555783 14.793546804694637,32.669401167556 15.463419785762373,35.16940116756207 17.293546804678876,36.99952818649455 19.793546804679092,37.66940116758411" stroke="#00f" stroke-linecap="round" stroke-linejoin="round"/><polyline fill="none" points="-90.62375872805256,37.63643637450253 -88.1237587280465,36.9665633934348 -86.29363170911401,35.13643637451829 -85.62375872802444,32.63643637451807 -86.29363170909218,30.136436374512 -88.12375872800868,28.30630935557952 -90.6237587280089,27.636436374489953 -93.12375872801496,28.306309355557687 -94.95388574694745,30.13643637447419 -95.62375872803702,32.63643637447441 -94.95388574696929,35.136436374480475 -93.12375872805279,36.96656339341296 -90.62375872805258,37.63643637450253" stroke="#008000" stroke-linecap="round" stroke-linejoin="round"/><polyline fill="none" points="60.03426937956371,-30.583038146628148 62.53426937956978,-31.25291112769588 64.36439639850227,-33.08303814661239 65.03426937959183,-35.58303814661261 64.36439639852411,-38.08303814661868 62.53426937960761,-39.91316516555116 60.03426937960739,-40.58303814664073 57.53426937960132,-39.913165165573 55.70414236066883,-38.0830381466565 55.034269379579264,-35.58303814665628 55.704142360647,-33.08303814665021 57.5342693795635,-31.252911127717724 60.03426937956372,-30.583038146628155" stroke="#ffa500" stroke-linecap="round" stroke-linejoin="round"/><polyline fill="none" points="15.698852487183848,-110.44461883288005 18.198852487189917,-111.11449181394778 20.028979506122408,-112.94461883286428 20.698852487211976,-115.44461883286449 20.028979506144246,-117.94461883287056 18.198852487227743,-119.77474585180305 15.698852487227523,-120.44461883289262 13.198852487221451,-119.77474585182489 11.368725468288961,-117.94461883290839 10.69885248719939,-115.44461883290818 11.368725468267119,-112.94461883290211 13.19885248718362,-111.11449181396962 15.69885248718384,-110.44461883288005" stroke="#ffa500" stroke-linecap="round" stroke-linejoin="round"/><polyline fill="none" points="-108.13001010014956,-2.987308468659087 -105.6300101001435,-3.657181449726816 -103.79988308121101,-5.487308468643318 -103.13001010012144,-7.987308468643537 -103.79988308118917,-10.48730846864961 -105.63001010010566,-12.317435487582102 -108.13001010010589,-12.987308468671674 -110.63001010011196,-12.317435487603946 -112.46013711904445,-10.487308468687445 -113.13001010013402,-7.987308468687225 -112.46013711906629,-5.48730846868115 -110.63001010014979,-3.6571814497486566 -108.13001010014958,-2.9873084686590827" stroke="#00f" stroke-linecap="round" stroke-linejoin="round"/><polyline fill="none" points="72.67899751173503,-67.30176682333617 75.1789975117411,-67.97163980440389 77.0091245306736,-69.80176682332039 77.67899751176317,-72.30176682332062 77.00912453069544,-74.80176682332669 75.17899751177895,-76.63189384225919 72.67899751177872,-77.30176682334876 70.17899751177264,-76.63189384228103 68.34887049284013,-74.80176682336453 67.67899751175055,-72.3017668233643 68.34887049281828,-69.80176682335822 70.17899751173478,-67.97163980442572 72.678997511735,-67.30176682333614" stroke="#00f" stroke-linecap="round" stroke-linejoin="round"/><polyline fill="none" points="47.79041733849212,-51.12856583183488 50.290417338498195,-51.7984388129026 52.12054435743069,-53.6285658318191 52.790417338520264,-56.12856583181932 52.12054435745254,-58.6285658318254 50.29041733853604,-60.4586928507579 47.79041733853582,-61.128565831847474 45.29041733852974,-60.458692850779755 43.46029031959724,-58.628565831863256 42.790417338507666,-56.128565831863035 43.460290319575385,-53.62856583185696 45.290417338491885,-51.79843881292446 47.790417338492105,-51.12856583183488" stroke="#ffa500" stroke-linecap="round" stroke-linejoin="round"/><polyline fill="none" points="-135.5297362488788,-5.764520518734747 -133.02973624887272,-6.434393499802468 -131.19960922994022,-8.264520518718966 -130.52973624885064,-10.764520518719186 -131.19960922991837,-13.264520518725263 -133.02973624883487,-15.094647537657764 -135.5297362488351,-15.764520518747345 -138.02973624884117,-15.094647537679624 -139.85986326777368,-13.264520518763126 -140.52973624886326,-10.764520518762906 -139.85986326779553,-8.264520518756827 -138.02973624887903,-6.434393499824326 -135.5297362488788,-5.764520518734744" stroke="#ffa500" stroke-linecap="round" stroke-linejoin="round"/><polyline fill="none" points="-94.98372086797805,38.456172567941515 -92.48372086797197,37.786299586873795 -90.65359384903947,35.956172567957296 -89.98372086794988,33.456172567957076 -90.6535938490176,30.956172567950997 -92.4837208679341,29.126045549018496 -94.98372086793432,28.456172567928913 -97.4837208679404,29.126045548996633 -99.3138478868729,30.95617256791313 -99.98372086796249,33.45617256791335 -99.31384788689478,35.95617256791943 -97.48372086797828,37.78629958685193 -94.98372086797805,38.456172567941515" stroke="#008000" stroke-linecap="round" stroke-linejoin="round"/><polyline fill="none" points="-43.786423453626924,23.368675288773684 -41.28642345362084,22.698802307705968 -39.45629643468834,20.868675288789472 -38.78642345359876,18.36867528878925 -39.45629643466648,15.868675288783171 -41.28642345358297,14.038548269850667 -43.78642345358319,13.36867528876108 -46.28642345358927,14.038548269828796 -48.11655047252178,15.86867528874529 -48.78642345361137,18.36867528874551 -48.11655047254366,20.868675288751593 -46.286423453627165,22.698802307684097 -43.786423453626945,23.368675288773684" stroke="#ffa500" stroke-linecap="round" stroke-linejoin="round"/><polyline fill="none" points="-101.39595745341364,-58.801553993939585 -98.89595745340756,-59.4714269750073 -97.06583043447506,-61.30155399392379 -96.39595745338548,-63.80155399392401 -97.06583043445319,-66.3015539939301 -98.89595745336969,-68.1316810128626 -101.39595745336992,-68.80155399395218 -103.895957453376,-68.13168101288447 -105.7260844723085,-66.30155399396797 -106.39595745339808,-63.80155399396775 -105.72608447233037,-61.30155399396167 -103.89595745341387,-59.47142697502916 -101.39595745341364,-58.80155399393957" stroke="#ffa500" stroke-linecap="round" stroke-linejoin="round"/><polyline fill="none" points="-85.716333502807,32.721425898930335 -83.21633350280092,32.05155291786262 -81.3862064838684,30.22142589894613 -80.71633350277881,27.72142589894591 -81.38620648384652,25.221425898939827 -83.216333502763,23.39129888000732 -85.71633350276323,22.72142589891773 -88.21633350276932,23.39129887998544 -90.04646052170183,25.221425898901934 -90.71633350279143,27.721425898902154 -90.04646052172372,30.221425898908237 -88.21633350280723,32.051552917840745 -85.716333502807,32.721425898930335" stroke="#00f" stroke-linecap="round" stroke-linejoin="round"/><polyline fill="none" points="-8.623549581536901,51.91579160199583 -6.123549581530817,51.245918620928116 -4.293422562598305,49.41579160201162 -3.623549581508711,46.9157916020114 -4.29342256257642,44.41579160200532 -6.1235495814929095,42.585664583072806 -8.62354958149313,41.91579160198321 -11.123549581499216,42.585664583050914 -12.953676600431729,44.415791601967406 -13.623549581521324,46.915791601967626 -12.953676600453617,49.41579160197371 -11.123549581537128,51.245918620906224 -8.623549581536908,51.91579160199582" stroke="#ffa500" stroke-linecap="round" stroke-linejoin="round"/><polyline fill="none" points="-90.8228846314646,-1.2828850872559867 -88.32288463145852,-1.9527580683236931 -86.492757612526,-3.7828850872401825 -85.82288463143641,-6.282885087240404 -86.49275761250412,-8.782885087246491 -88.3228846314206,-10.613012106179006 -90.82288463142083,-11.282885087268605 -93.32288463142692,-10.6130121062009 -95.15301165035943,-8.782885087284411 -95.82288463144903,-6.282885087284191 -95.15301165038133,-3.7828850872781037 -93.32288463146485,-1.9527580683455876 -90.82288463146462,-1.2828850872559885" stroke="#ffa500" stroke-linecap="round" stroke-linejoin="round"/></svg>