<?xml version="1.0" ?><!DOCTYPE svg  PUBLIC '-//W3C//DTD SVG 1.1//EN'  'http://www.w3.org/Graphics/SVG/1.1/DTD/svg11.dtd'><svg height="330.000" viewBox="-201.000 -165.000 372.000 330.000" width="372.000" xmlns="http://www.w3.org/2000/svg"><line fill="none" stroke="none" stroke-linecap="round" stroke-width="2.0" x1="0.0" x2="0.0" y1="0.0" y2="0.0"/><polygon fill="none" fill-rule="evenodd" points="0.0,0.0 0.0,0.0 0.0,0.0" stroke-linejoin="round"/><polyline fill="none" points="35.77506041710605,7.545659464549296 38.275060417114105,6.8757864834849185 40.105187436049995,5.045659464570326 40.775060417143465,2.5456594645700603 40.10518743607909,0.04565946456199965 38.2750604171645,-1.78446755437389 35.775060417164234,-2.4543405354673586 33.27506041715617,-1.7844675544029829 31.44493339822028,0.04565946451160907 30.77506041712681,2.545659464511875 31.444933398191186,5.045659464519936 33.27506041710578,6.875786483455826 35.77506041710604,7.5456594645492965" stroke="#ffa500" stroke-linecap="round" stroke-linejoin="round"/><polyline fill="none" points="46.21555772982008,20.61966751727452 48.71555772982814,19.94979453621015 50.54568474876403,18.119667517295557 51.2155577298575,15.61966751729529 50.54568474879313,13.11966751728723 48.71555772987854,11.289540498351338 46.21555772987828,10.619667517257867 43.71555772987021,11.28954049832224 41.88543071093432,13.11966751723683 41.21555772984085,15.619667517237094 41.885430710905226,18.119667517245155 43.715557729819814,19.94979453618105 46.21555772982008,20.61966751727452" stroke="#ffa500" stroke-linecap="round" stroke-linejoin="round"/><polyline fill="none" points="23.011130363865856,-35.55590121972282 25.511130363873917,-36.22577420078719 27.34125738280981,-38.05590121970178 28.011130363903284,-40.555901219702044 27.34125738283891,-43.05590121971011 25.511130363924323,-44.886028238646006 23.011130363924057,-45.55590121973948 20.511130363915992,-44.88602823867511 18.6810033449801,-43.05590121976052 18.011130363886622,-40.55590121976026 18.68100334495099,-38.055901219752194 20.51113036386558,-36.225774200816296 23.011130363865846,-35.55590121972282" stroke="#ffa500" stroke-linecap="round" stroke-linejoin="round"/><polyline fill="none" points="-82.10157697243872,-39.74487693258181 -79.60157697243065,-40.41474991364618 -77.77144995349475,-42.24487693256077 -77.10157697240128,-44.744876932561034 -77.77144995346565,-47.2448769325691 -79.60157697238024,-49.075003951504996 -82.10157697238051,-49.74487693259847 -84.60157697238859,-49.07500395153411 -86.43170399132448,-47.24487693261952 -87.10157697241796,-44.744876932619256 -86.43170399135359,-42.24487693261119 -84.601576972439,-40.414749913675294 -82.10157697243874,-39.74487693258182" stroke="#ffa500" stroke-linecap="round" stroke-linejoin="round"/><polyline fill="none" points="-79.5826617083731,39.7424418690431 -77.08266170836502,39.07256888797873 -75.25253468942913,37.242441869064145 -74.58266170833565,34.74244186906388 -75.25253468940002,32.24244186905582 -77.0826617083146,30.41231485011992 -79.58266170831487,29.74244186902644 -82.08266170832295,30.412314850090805 -83.91278872725884,32.24244186900539 -84.58266170835232,34.74244186900565 -83.91278872728795,37.24244186901372 -82.08266170837337,39.072568887949615 -79.5826617083731,39.7424418690431" stroke="#00f" stroke-linecap="round" stroke-linejoin="round"/><polyline fill="none" points="-159.95698793803774,-34.86997356904998 -157.45698793802967,-35.53984655011435 -155.62686091909376,-37.369973569028936 -154.95698793800028,-39.8699735690292 -155.62686091906465,-42.36997356903726 -157.45698793797925,-44.20010058797317 -159.9569879379795,-44.86997356906665 -162.45698793798758,-44.200100588002286 -164.2871149569235,-42.3699735690877 -164.95698793801697,-39.869973569087435 -164.2871149569526,-37.36997356907937 -162.456987938038,-35.539846550143466 -159.95698793803774,-34.86997356904998" stroke="#00f" stroke-linecap="round" stroke-linejoin="round"/><polyline fill="none" points="149.6799065965128,-80.14686937172918 152.17990659652088,-80.81674235279354 154.0100336154568,-82.64686937170812 154.67990659655027,-85.14686937170839 154.0100336154859,-87.64686937171646 152.1799065965713,-89.47699639065236 149.67990659657104,-90.14686937174585 147.17990659656297,-89.47699639068149 145.34977957762706,-87.64686937176691 144.67990659653358,-85.14686937176664 145.34977957759796,-82.64686937175857 147.17990659651255,-80.81674235282267 149.6799065965128,-80.14686937172918" stroke="#ffa500" stroke-linecap="round" stroke-linejoin="round"/><polyline fill="none" points="65.3253629328734,-143.54309167779644 67.82536293288148,-144.2129646588608 69.65548995181739,-146.0430916777754 70.32536293291088,-148.54309167777566 69.65548995184652,-151.04309167778374 67.82536293293194,-152.87321869671965 65.32536293293167,-153.54309167781312 62.825362932923596,-152.87321869674875 60.99523591398769,-151.04309167783416 60.3253629328942,-148.5430916778339 60.99523591395856,-146.04309167782583 62.82536293287314,-144.21296465888992 65.3253629328734,-143.54309167779644" stroke="#ffa500" stroke-linecap="round" stroke-linejoin="round"/><polyline fill="none" points="-166.59652979697682,-36.1386796562994 -164.09652979696875,-36.80855263736376 -162.26640277803284,-38.63867965627834 -161.59652979693936,-41.138679656278605 -162.2664027780037,-43.638679656286676 -164.0965297969183,-45.46880667522259 -166.59652979691856,-46.13867965631608 -169.09652979692663,-45.46880667525172 -170.92665681586254,-43.63867965633714 -171.59652979695605,-41.138679656336876 -170.9266568158917,-38.638679656328804 -169.09652979697714,-36.80855263739289 -166.59652979697688,-36.1386796562994" stroke="#00f" stroke-linecap="round" stroke-linejoin="round"/><polyline fill="none" points="-90.01315576879692,87.85817611114828 -87.51315576878885,87.18830313008392 -85.68302874985294,85.35817611116934 -85.01315576875945,82.85817611116907 -85.6830287498238,80.358176111161 -87.51315576873839,78.52804909222509 -90.01315576873866,77.8581761111316 -92.51315576874673,78.52804909219596 -94.34328278768264,80.35817611111054 -95.01315576877613,82.85817611111081 -94.34328278771177,85.35817611111888 -92.51315576879719,87.18830313005479 -90.01315576879692,87.85817611114828" stroke="#00f" stroke-linecap="round" stroke-linejoin="round"/><polyline fill="none" points="139.51178210155183,101.38624333408359 142.0117821015599,100.71637035301923 143.8419091204958,98.88624333410465 144.51178210158932,96.38624333410438 143.84190912052497,93.8862433340963 142.0117821016104,92.0561163151604 139.51178210161015,91.3862433340669 137.01178210160208,92.05611631513126 135.18165508266617,93.88624333404584 134.51178210157266,96.38624333404611 135.181655082637,98.88624333405419 137.01178210155157,100.7163703529901 139.51178210155183,101.38624333408359" stroke="#ffa500" stroke-linecap="round" stroke-linejoin="round"/><polyline fill="none" points="120.89666894718913,52.60804224988466 123.3966689471972,51.93816926882031 125.22679596613311,50.10804224990573 125.89666894722662,47.608042249905466 125.22679596616227,45.10804224989739 123.39666894724769,43.27791523096147 120.89666894724742,42.60804224986797 118.39666894723935,43.27791523093232 116.56654192830344,45.108042249846896 115.89666894720993,47.60804224984716 116.56654192827428,50.10804224985524 118.39666894718886,51.93816926879116 120.89666894718913,52.608042249884654" stroke="#ffa500" stroke-linecap="round" stroke-linejoin="round"/><polyline fill="none" points="120.00751461364999,-95.34987460423581 122.50751461365806,-96.01974758530015 124.33764163259397,-97.84987460421473 125.00751461368748,-100.349874604215 124.33764163262313,-102.84987460422307 122.50751461370855,-104.68000162315899 120.00751461370828,-105.34987460425249 117.50751461370021,-104.68000162318815 115.6773875947643,-102.84987460427357 115.00751461367079,-100.3498746042733 115.67738759473514,-97.84987460426522 117.50751461364972,-96.0197475853293 120.00751461364999,-95.3498746042358" stroke="#ffa500" stroke-linecap="round" stroke-linejoin="round"/><polyline fill="none" points="-37.77949649737503,-22.5179332159023 -35.27949649736695,-23.187806196966648 -33.44936947843103,-25.01793321588122 -32.779496497337526,-27.517933215881488 -33.44936947840187,-30.017933215889567 -35.279496497316444,-31.848060234825486 -37.77949649731671,-32.51793321591899 -40.279496497324786,-31.848060234854643 -42.109623516260704,-30.01793321594007 -42.77949649735421,-27.517933215939802 -42.109623516289865,-25.017933215931723 -40.27949649737529,-23.1878061969958 -37.77949649737503,-22.517933215902296" stroke="#00f" stroke-linecap="round" stroke-linejoin="round"/><polyline fill="none" points="-11.091790387512003,151.0262343735949 -8.591790387503924,150.35636139253054 -6.761663368568001,148.52623437361598 -6.091790387474496,146.02623437361572 -6.761663368538839,143.52623437360765 -8.591790387453413,141.69610735467174 -11.091790387453678,141.02623437357823 -13.591790387461756,141.69610735464258 -15.421917406397679,143.52623437355714 -16.091790387491187,146.0262343735574 -15.421917406426845,148.52623437356547 -13.591790387512273,150.35636139250138 -11.091790387512006,151.0262343735949" stroke="#ffa500" stroke-linecap="round" stroke-linejoin="round"/><polyline fill="none" points="89.59103246263263,-109.82531796477436 92.09103246264071,-110.4951909458387 93.92115948157664,-112.32531796475327 94.59103246267014,-114.82531796475354 93.9211594816058,-117.32531796476162 92.09103246269123,-119.15544498369755 89.59103246269096,-119.82531796479105 87.09103246268288,-119.15544498372671 85.26090544374695,-117.32531796481214 84.59103246265344,-114.82531796481187 85.26090544371779,-112.32531796480379 87.09103246263236,-110.49519094586786 89.59103246263263,-109.82531796477436" stroke="#ffa500" stroke-linecap="round" stroke-linejoin="round"/><polyline fill="none" points="-107.62620017978855,15.341242837708492 -105.12620017978047,14.671369856644153 -103.29607316084454,12.841242837729581 -102.62620017975104,10.341242837729315 -103.29607316081538,7.841242837721232 -105.12620017972995,6.0111158187853055 -107.62620017973022,5.3412428376917935 -110.1262001797383,6.0111158187561315 -111.95632719867423,7.841242837670702 -112.62620017976775,10.341242837670968 -111.9563271987034,12.84124283767905 -110.12620017978884,14.671369856614978 -107.62620017978857,15.341242837708492" stroke="#008000" stroke-linecap="round" stroke-linejoin="round"/><polyline fill="none" points="96.98168176362093,-51.16693473779215 99.48168176362901,-51.836807718856484 101.31180878256494,-53.66693473777105 101.98168176365846,-56.166934737771314 101.31180878259413,-58.6669347377794 99.48168176367956,-60.497061756715325 96.98168176367929,-61.16693473780884 94.4816817636712,-60.4970617567445 92.65155474473528,-58.66693473782993 91.98168176364176,-56.16693473782967 92.65155474470609,-53.666934737821585 94.48168176362066,-51.83680771888565 96.98168176362093,-51.16693473779213" stroke="#ffa500" stroke-linecap="round" stroke-linejoin="round"/><polyline fill="none" points="-112.83242926370599,-31.387423076659374 -110.3324292636979,-32.05729605772371 -108.50230224476198,-33.88742307663828 -107.83242926366846,-36.38742307663854 -108.50230224473279,-38.88742307664663 -110.33242926364736,-40.71755009558256 -112.83242926364763,-41.38742307667608 -115.33242926365571,-40.71755009561174 -117.16255628259164,-38.887423076697175 -117.83242926368516,-36.38742307669691 -117.16255628262083,-33.887423076688826 -115.33242926370626,-32.05729605775289 -112.83242926370599,-31.387423076659374" stroke="#00f" stroke-linecap="round" stroke-linejoin="round"/><polyline fill="none" points="65.1723374160702,-120.5214880945612 67.67233741607829,-121.19136107562554 69.50246443501423,-123.0214880945401 70.17233741610775,-125.52148809454037 69.50246443504342,-128.02148809454846 67.67233741612885,-129.8516151134844 65.17233741612858,-130.52148809457793 62.6723374161205,-129.8516151135136 60.842210397184566,-128.02148809459902 60.17233741609105,-125.52148809459875 60.84221039715538,-123.02148809459067 62.672337416069944,-121.19136107565473 65.1723374160702,-120.5214880945612" stroke="#00f" stroke-linecap="round" stroke-linejoin="round"/><polyline fill="none" points="149.2979641609932,-33.01427594051018 151.7979641610013,-33.68414892157451 153.62809117993723,-35.51427594048908 154.29796416103076,-38.01427594048934 153.62809117996645,-40.51427594049743 151.79796416105188,-42.34440295943336 149.29796416105162,-43.014275940526886 146.79796416104352,-42.344402959462556 144.96783714210758,-40.51427594054799 144.29796416101405,-38.014275940547726 144.96783714207837,-35.51427594053964 146.79796416099293,-33.6841489216037 149.2979641609932,-33.014275940510174" stroke="#ffa500" stroke-linecap="round" stroke-linejoin="round"/><polyline fill="none" points="20.93223712891049,16.181627966578326 23.43223712891858,15.511754985513997 25.262364147854516,13.681627966599432 25.93223712894804,11.181627966599166 25.262364147883712,8.681627966591076 23.43223712896915,6.851500947655138 20.932237128968882,6.181627966561613 18.432237128960793,6.851500947625939 16.602110110024853,8.681627966540503 15.932237128931327,11.18162796654077 16.602110109995653,13.68162796654886 18.432237128910216,15.5117549854848 20.932237128910483,16.181627966578326" stroke="#ffa500" stroke-linecap="round" stroke-linejoin="round"/><polyline fill="none" points="88.1378808854567,-94.3264370333931 90.63788088546478,-94.99631001445744 92.46800790440072,-96.826437033372 93.13788088549425,-99.32643703337227 92.46800790442992,-101.82643703338036 90.63788088551536,-103.6565640523163 88.13788088551509,-104.32643703340983 85.637880885507,-103.6565640523455 83.80775386657106,-101.82643703343093 83.13788088547753,-99.32643703343066 83.80775386654186,-96.82643703342258 85.63788088545643,-94.99631001448664 88.1378808854567,-94.3264370333931" stroke="#ffa500" stroke-linecap="round" stroke-linejoin="round"/><polyline fill="none" points="-34.54444625263555,61.80929215342906 -32.04444625262746,61.13941917236474 -30.214319233691516,59.30929215345018 -29.544446252597986,56.80929215344992 -30.21431923366231,54.309292153441824 -32.04444625257687,52.47916513450588 -34.54444625257713,51.80929215341234 -37.044446252585224,52.479165134476666 -38.87457327152117,54.309292153391226 -39.544446252614705,56.80929215339149 -38.87457327155038,59.30929215339958 -37.04444625263582,61.13941917233553 -34.54444625263556,61.80929215342906" stroke="#00f" stroke-linecap="round" stroke-linejoin="round"/><polyline fill="none" points="88.37241893122471,-35.203487761727125 90.87241893123281,-35.87336074279145 92.70254595016875,-37.70348776170601 93.37241893126229,-40.20348776170627 92.70254595019797,-42.703487761714364 90.87241893128342,-44.53361478065031 88.37241893128315,-45.203487761743844 85.87241893127505,-44.53361478067953 84.0422919123391,-42.70348776176497 83.37241893124556,-40.203487761764706 84.04229191230988,-37.70348776175661 85.87241893122443,-35.873360742820665 88.3724189312247,-35.20348776172713" stroke="#00f" stroke-linecap="round" stroke-linejoin="round"/><polyline fill="none" points="137.21180157865408,-65.91311793672244 139.71180157866218,-66.58299091778676 141.54192859759812,-68.41311793670131 142.21180157869165,-70.91311793670158 141.54192859762733,-73.41311793670968 139.71180157871277,-75.24324495564564 137.2118015787125,-75.91311793673917 134.7118015787044,-75.24324495567485 132.88167455976847,-73.4131179367603 132.21180157867494,-70.91311793676003 132.88167455973925,-68.41311793675193 134.71180157865382,-66.58299091781598 137.21180157865408,-65.91311793672244" stroke="#00f" stroke-linecap="round" stroke-linejoin="round"/><polyline fill="none" points="82.25120105979502,69.82357469631071 84.75120105980312,69.1537017152464 86.58132807873908,67.32357469633185 87.25120105983261,64.82357469633158 86.5813280787683,62.32357469632348 84.75120105985374,60.49344767738753 82.25120105985347,59.82357469629399 79.75120105984537,60.493447677358304 77.92107404090942,62.323574696272864 77.25120105981588,64.82357469627313 77.9210740408802,67.32357469628123 79.75120105979475,69.15370171521718 82.25120105979502,69.82357469631073" stroke="#ffa500" stroke-linecap="round" stroke-linejoin="round"/><polyline fill="none" points="118.56622427003495,36.304990378901536 121.06622427004305,35.63511739783722 122.896351288979,33.80499037892267 123.56622427007255,31.3049903789224 122.89635128900824,28.804990378914304 121.06622427009368,26.97486335997835 118.56622427009341,26.304990378884806 116.06622427008531,26.97486335994912 114.23609725114936,28.804990378863675 113.56622427005581,31.30499037886394 114.23609725112013,33.80499037887204 116.06622427003468,35.635117397807996 118.56622427003495,36.30499037890154" stroke="#ffa500" stroke-linecap="round" stroke-linejoin="round"/><polyline fill="none" points="33.92161048275402,-62.692084958977574 36.42161048276212,-63.36195794004188 38.251737501698074,-65.19208495895644 38.92161048279162,-67.69208495895671 38.25173750172731,-70.19208495896481 36.42161048281276,-72.02221197790077 33.9216104828125,-72.69208495899431 31.421610482804397,-72.02221197793 29.59148346386844,-70.19208495901545 28.92161048277489,-67.69208495901518 29.5914834638392,-65.19208495900708 31.421610482753753,-63.36195794007112 33.92161048275402,-62.692084958977574" stroke="#ffa500" stroke-linecap="round" stroke-linejoin="round"/><polyline fill="none" points="22.184023178250676,-3.993512735064268 24.684023178258776,-4.663385716128576 26.514150197194734,-6.4935127350431285 27.18402317828828,-8.993512735043394 26.514150197223973,-11.493512735051494 24.68402317830942,-13.323639753987454 22.184023178309154,-13.993512735081003 19.684023178301054,-13.323639754016696 17.853896159365096,-11.493512735102144 17.18402317827155,-8.993512735101877 17.853896159335854,-6.493512735093776 19.684023178250406,-4.6633857161578165 22.184023178250673,-3.9935127350642667" stroke="#ffa500" stroke-linecap="round" stroke-linejoin="round"/><polyline fill="none" points="-105.57617569867843,52.278270842908746 -103.07617569867033,51.60839786184444 -101.24604867973437,49.778270842929885 -100.57617569864082,47.27827084292962 -101.24604867970513,44.77827084292152 -103.07617569861968,42.94814382398556 -105.57617569861995,42.27827084289201 -108.07617569862805,42.948143823956315 -109.90630271756402,44.77827084287087 -110.57617569865756,47.27827084287113 -109.90630271759326,49.77827084287923 -108.07617569867871,51.60839786181519 -105.57617569867844,52.278270842908746" stroke="#ffa500" stroke-linecap="round" stroke-linejoin="round"/><polyline fill="none" points="36.62427987371796,-53.64671443050807 39.12427987372606,-54.31658741157237 40.95440689266202,-56.146714430486924 41.624279873755576,-58.64671443048719 40.954406892691274,-61.14671443049529 39.12427987377672,-62.97684144943125 36.62427987377646,-63.6467144305248 34.12427987376836,-62.9768414494605 32.2941528548324,-61.14671443054595 31.624279873738843,-58.646714430545686 32.294152854803144,-56.146714430537585 34.1242798737177,-54.316587411601624 36.62427987371796,-53.64671443050807" stroke="#00f" stroke-linecap="round" stroke-linejoin="round"/><polyline fill="none" points="-146.86808693270655,-13.585953834567771 -144.36808693269845,-14.255826815632073 -142.53795991376248,-16.085953834546622 -141.86808693266892,-18.58595383454689 -142.5379599137332,-21.085953834554992 -144.36808693264774,-22.916080853490957 -146.868086932648,-23.585953834584515 -149.3680869326561,-22.916080853520217 -151.19821395159207,-21.085953834605668 -151.86808693268563,-18.5859538346054 -151.19821395162134,-16.085953834597298 -149.3680869327068,-14.255826815661331 -146.86808693270655,-13.585953834567773" stroke="#ffa500" stroke-linecap="round" stroke-linejoin="round"/><polyline fill="none" points="-159.35940385739565,63.94962612468417 -156.85940385738755,63.27975314361987 -155.02927683845158,61.449626124705325 -154.35940385735802,58.94962612470506 -155.0292768384223,56.449626124696955 -156.85940385733684,54.61949910576099 -159.3594038573371,53.949626124667425 -161.8594038573452,54.61949910573172 -163.68953087628117,56.449626124646265 -164.35940385737473,58.94962612464653 -163.68953087631044,61.449626124654635 -161.8594038573959,63.279753143590604 -159.35940385739565,63.949626124684166" stroke="#ffa500" stroke-linecap="round" stroke-linejoin="round"/><polyline fill="none" points="153.64298696114304,96.34240018249744 156.14298696115114,95.67252720143314 157.9731139800871,93.84240018251859 158.64298696118067,91.34240018251832 157.97311398011638,88.84240018251022 156.14298696120184,87.01227316357425 153.6429869612016,86.34240018248069 151.1429869611935,87.01227316354499 149.31285994225752,88.84240018245954 148.64298696116396,91.34240018245981 149.31285994222824,93.84240018246793 151.14298696114278,95.6725272014039 153.64298696114304,96.34240018249746" stroke="#ffa500" stroke-linecap="round" stroke-linejoin="round"/><polyline fill="none" points="-118.18873788799368,39.27775157401691 -115.68873788798557,38.607878592952616 -113.8586108690496,36.77775157403807 -113.18873788795604,34.27775157403781 -113.85861086902032,31.7777515740297 -115.68873788793486,29.94762455509373 -118.18873788793513,29.277751574000163 -120.68873788794325,29.947624555064458 -122.51886490687922,31.777751573979003 -123.18873788797278,34.277751573979266 -122.51886490690849,36.77775157398737 -120.68873788799395,38.60787859292335 -118.18873788799368,39.27775157401692" stroke="#f00" stroke-linecap="round" stroke-linejoin="round"/><polyline fill="none" points="48.906483226532266,-97.13492076214428 51.406483226540374,-97.80479374320856 53.23661024547635,-99.6349207621231 53.90648322656992,-102.13492076212337 53.236610245505624,-104.63492076213149 51.40648322659108,-106.46504778106745 48.906483226590815,-107.13492076216102 46.40648322658271,-106.46504778109673 44.57635620764673,-104.63492076218219 43.90648322655316,-102.13492076218192 44.57635620761745,-99.6349207621738 46.406483226531996,-97.80479374323784 48.90648322653226,-97.13492076214428" stroke="#ffa500" stroke-linecap="round" stroke-linejoin="round"/><polyline fill="none" points="132.1847669856529,-62.67002257882642 134.684766985661,-63.33989555989071 136.51489400459698,-65.17002257880524 137.18476698569054,-67.67002257880551 136.51489400462626,-70.17002257881363 134.68476698571172,-72.00014959774961 132.18476698571146,-72.67002257884319 129.68476698570336,-72.0001495977789 127.85463996676738,-70.17002257886436 127.1847669856738,-67.67002257886409 127.85463996673809,-65.17002257885598 129.68476698565263,-63.33989555992 132.18476698565289,-62.67002257882643" stroke="#ffa500" stroke-linecap="round" stroke-linejoin="round"/><polyline fill="none" points="151.45440491682072,-41.312969159733996 153.95440491682882,-41.98284214079828 155.7845319357648,-43.81296915971282 156.45440491685835,-46.312969159713084 155.78453193579406,-48.8129691597212 153.95440491687953,-50.643096178657174 151.45440491687927,-51.31296915975074 148.95440491687117,-50.643096178686456 147.1242778979352,-48.81296915977192 146.45440491684164,-46.312969159771654 147.12427789790593,-43.81296915976354 148.95440491682047,-41.98284214082756 151.45440491682072,-41.31296915973398" stroke="#ffa500" stroke-linecap="round" stroke-linejoin="round"/><polyline fill="none" points="-111.30208302110991,38.696521364838745 -108.8020830211018,38.02664838377446 -106.97195600216581,36.19652136485992 -106.30208302107224,33.696521364859656 -106.97195600213652,31.19652136485154 -108.80208302105106,29.36639434591556 -111.30208302105133,28.696521364821983 -113.80208302105945,29.366394345886267 -115.63221003999543,31.196521364800805 -116.302083021089,33.69652136480107 -115.63221004002472,36.196521364809186 -113.80208302111018,38.02664838374517 -111.30208302110991,38.696521364838745" stroke="#00f" stroke-linecap="round" stroke-linejoin="round"/><polyline fill="none" points="117.42219847798373,-92.15020747649277 119.92219847799184,-92.82008045755705 121.75232549692782,-94.65020747647159 122.4221984780214,-97.15020747647186 121.75232549695711,-99.65020747647998 119.92219847804257,-101.48033449541596 117.4221984780423,-102.15020747650954 114.92219847803419,-101.48033449544525 113.09207145909821,-99.65020747653071 112.42219847800463,-97.15020747653044 113.09207145906892,-94.65020747652233 114.92219847798346,-92.82008045758634 117.42219847798373,-92.15020747649277" stroke="#ffa500" stroke-linecap="round" stroke-linejoin="round"/><polyline fill="none" points="114.06167309576705,4.2346535140166335 116.56167309577516,3.5647805329523528 118.39180011471115,1.7346535140378154 119.06167309580472,-0.7653464859624501 118.39180011474043,-3.265346485970566 116.5616730958259,-5.095473504906551 114.06167309582563,-5.765346486000131 111.56167309581751,-5.0954735049358515 109.73154607688153,-3.265346486021315 109.06167309578795,-0.7653464860210493 109.73154607685223,1.7346535139870674 111.56167309576676,3.564780532923054 114.06167309576703,4.234653514016635" stroke="#ffa500" stroke-linecap="round" stroke-linejoin="round"/><polyline fill="none" points="136.70314853575908,86.83931308158031 139.2031485357672,86.16944010051604 141.0332755547032,84.3393130816015 141.7031485357968,81.83931308160123 141.0332755547325,79.33931308159312 139.20314853581797,77.50918606265714 136.70314853581772,76.83931308156356 134.2031485358096,77.50918606262783 132.3730215168736,79.33931308154237 131.70314853578,81.83931308154264 132.3730215168443,84.33931308155076 134.20314853575883,86.16944010048674 136.70314853575908,86.83931308158033" stroke="#ffa500" stroke-linecap="round" stroke-linejoin="round"/><polyline fill="none" points="22.988549578800857,152.95738571351401 25.488549578808975,152.28751273244973 27.318676597744965,150.4573857135352 27.988549578838548,147.95738571353493 27.31867659777427,145.4573857135268 25.488549578859736,143.6272586945908 22.98854957885947,142.95738571349722 20.48854957885135,143.6272586945615 18.658422559915362,145.45738571347604 17.988549578821775,147.9573857134763 18.65842255988605,150.45738571348443 20.488549578800583,152.28751273242042 22.98854957880085,152.95738571351401" stroke="#ffa500" stroke-linecap="round" stroke-linejoin="round"/><polyline fill="none" points="-98.32858871150079,-18.878128755796336 -95.82858871149267,-19.54800173686061 -93.99846169255667,-21.378128755775144 -93.32858871146308,-23.87812875577541 -93.99846169252736,-26.378128755783532 -95.8285887114419,-28.208255774719525 -98.32858871144217,-28.878128755813112 -100.82858871145028,-28.20825577474884 -102.65871573038628,-26.378128755834307 -103.32858871147987,-23.87812875583404 -102.6587157304156,-21.37812875582592 -100.82858871150106,-19.548001736889926 -98.32858871150079,-18.878128755796336" stroke="#00f" stroke-linecap="round" stroke-linejoin="round"/><polyline fill="none" points="-171.3876331967957,56.25702326345787 -168.88763319678756,55.587150282393594 -167.05750617785156,53.75702326347906 -166.38763319675797,51.2570232634788 -167.05750617782223,48.75702326347068 -168.88763319673677,46.92689624453468 -171.38763319673703,46.25702326344109 -173.88763319674516,46.926896244505365 -175.71776021568115,48.757023263419896 -176.38763319677474,51.25702326342016 -175.71776021571048,53.75702326342828 -173.88763319679595,55.58715028236428 -171.3876331967957,56.25702326345787" stroke="#00f" stroke-linecap="round" stroke-linejoin="round"/><polyline fill="none" points="119.65238192763601,133.8164700176112 122.15238192764414,133.14659703654695 123.98250894658014,131.3164700176324 124.65238192767373,128.81647001763216 123.98250894660946,126.31647001762403 122.15238192769493,124.48634299868803 119.65238192769466,123.81647001759444 117.15238192768653,124.48634299865871 115.32225490875054,126.31647001757324 114.65238192765695,128.8164700175735 115.32225490872122,131.31647001758162 117.15238192763574,133.14659703651762 119.65238192763601,133.8164700176112" stroke="#ffa500" stroke-linecap="round" stroke-linejoin="round"/><polyline fill="none" points="-63.25455377227842,97.77982263331846 -60.7545537722703,97.10994965225419 -58.9244267533343,95.27982263333966 -58.254553772240705,92.77982263333939 -58.92442675330497,90.27982263333126 -60.7545537722195,88.44969561439527 -63.254553772219765,87.77982263330168 -65.7545537722279,88.44969561436594 -67.58468079116389,90.27982263328046 -68.25455377225748,92.77982263328073 -67.58468079119322,95.27982263328886 -65.7545537722787,97.10994965222486 -63.254553772278435,97.77982263331846" stroke="#ffa500" stroke-linecap="round" stroke-linejoin="round"/><polyline fill="none" points="-81.31576920104472,-6.221504279238484 -78.81576920103659,-6.8913772603027486 -76.98564218210059,-8.721504279217276 -76.31576920100699,-11.221504279217541 -76.98564218207125,-13.721504279225666 -78.81576920098577,-15.551631298161668 -81.31576920098604,-16.221504279255267 -83.81576920099417,-15.551631298191005 -85.64589621993017,-13.721504279276477 -86.31576920102377,-11.22150427927621 -85.64589621995951,-8.721504279268084 -83.81576920104499,-6.891377260332081 -81.31576920104472,-6.221504279238481" stroke="#00f" stroke-linecap="round" stroke-linejoin="round"/><polyline fill="none" points="102.55017237422892,-13.513098447990131 105.05017237423705,-14.182971429054394 106.88029939317305,-16.013098447968922 107.55017237426665,-18.51309844796919 106.88029939320239,-21.013098447977313 105.05017237428787,-22.843225466913317 102.5501723742876,-23.513098448006918 100.05017237427947,-22.84322546694266 98.22004535534346,-21.013098448028135 97.55017237424985,-18.51309844802787 98.22004535531411,-16.01309844801974 100.05017237422864,-14.182971429083734 102.55017237422891,-13.513098447990131" stroke="#ffa500" stroke-linecap="round" stroke-linejoin="round"/><polyline fill="none" points="61.190846922044095,24.27294020727807 63.69084692205222,23.60306722621381 65.52097394098823,21.772940207299285 66.19084692208183,19.27294020729902 65.52097394101757,16.77294020729089 63.69084692210305,14.942813188354883 61.190846922102786,14.272940207261279 58.69084692209466,14.942813188325538 56.86071990315865,16.77294020724006 56.19084692206505,19.272940207240328 56.86071990312931,21.772940207248457 58.69084692204383,23.603067226184464 61.190846922044095,24.27294020727807" stroke="#00f" stroke-linecap="round" stroke-linejoin="round"/><polyline fill="none" points="62.09734324022027,104.78724833490666 64.5973432402284,104.1173753538424 66.42747025916441,102.28724833492788 67.09734324025801,99.78724833492761 66.42747025919375,97.28724833491948 64.59734324027923,95.45712131598347 62.09734324027897,94.78724833488987 59.59734324027084,95.45712131595413 57.76721622133483,97.28724833486865 57.09734324024122,99.78724833486892 57.767216221305475,102.28724833487705 59.59734324022,104.11737535381306 62.09734324022026,104.78724833490666" stroke="#ffa500" stroke-linecap="round" stroke-linejoin="round"/><polyline fill="none" points="-65.65245956133187,-31.710128796061774 -63.15245956132374,-32.380001777126026 -61.32233254238773,-34.21012879604055 -60.652459561294116,-36.71012879604081 -61.32233254235837,-39.21012879604894 -63.15245956127289,-41.04025581498495 -65.65245956127316,-41.710128796078564 -68.15245956128129,-41.04025581501431 -69.9825865802173,-39.21012879609979 -70.6524595613109,-36.710128796099525 -69.98258658024665,-34.2101287960914 -68.15245956133212,-32.380001777155385 -65.65245956133185,-31.710128796061774" stroke="#ffa500" stroke-linecap="round" stroke-linejoin="round"/><polyline fill="none" points="-35.705977967872634,-38.99790353877148 -33.2059779678645,-39.66777651983573 -31.375850948928484,-41.49790353875025 -30.705977967834873,-43.99790353875051 -31.375850948899124,-46.49790353875865 -33.205977967813645,-48.32803055769466 -35.70597796781391,-48.99790353878827 -38.205977967822044,-48.32803055772402 -40.03610498675806,-46.4979035388095 -40.70597796785167,-43.99790353880924 -40.03610498678742,-41.497903538801104 -38.205977967872904,-39.667776519865086 -35.70597796787264,-38.997903538771475" stroke="#ffa500" stroke-linecap="round" stroke-linejoin="round"/><polyline fill="none" points="-46.56141447363237,18.480685225384768 -44.06141447362423,17.810812244320516 -42.231287454688214,15.980685225405997 -41.5614144735946,13.480685225405733 -42.231287454658855,10.980685225397599 -44.06141447357337,9.150558206461582 -46.561414473573635,8.480685225367967 -49.06141447358177,9.150558206432216 -50.89154149251779,10.980685225346734 -51.56141447361141,13.480685225346999 -50.89154149254716,15.980685225355133 -49.061414473632645,17.81081224429115 -46.56141447363238,18.480685225384768" stroke="#ffa500" stroke-linecap="round" stroke-linejoin="round"/><polyline fill="none" points="51.06098168872503,72.33592132164863 53.560981688733165,71.66604834058438 55.39110870766918,69.83592132166986 56.0609816887628,67.33592132166959 55.39110870769856,64.83592132166146 53.56098168878404,63.00579430272544 51.06098168878378,62.33592132163182 48.56098168877564,63.00579430269607 46.73085466983962,64.83592132161058 46.060981688746004,67.33592132161085 46.73085466981025,69.835921321619 48.560981688724766,71.66604834055502 51.06098168872503,72.33592132164864" stroke="#00f" stroke-linecap="round" stroke-linejoin="round"/><polyline fill="none" points="-43.43872088206042,127.11497645968787 -40.93872088205229,126.44510347862362 -39.10859386311627,124.61497645970911 -38.43872088202265,122.11497645970884 -39.108593863086895,119.6149764597007 -40.93872088200141,117.78484944076467 -43.438720882001675,117.11497645967106 -45.93872088200981,117.7848494407353 -47.768847900945836,119.61497645964981 -48.438720882039455,122.11497645965008 -47.76884790097521,124.61497645965822 -45.93872088206069,126.44510347859425 -43.43872088206043,127.11497645968787" stroke="#ffa500" stroke-linecap="round" stroke-linejoin="round"/><polyline fill="none" points="-80.02003025524102,41.46105615329745 -77.52003025523288,40.791183172233204 -75.68990323629686,38.96105615331869 -75.02003025520324,36.461056153318424 -75.68990323626748,33.96105615331029 -77.520030255182,32.13092913437426 -80.02003025518226,31.461056153280637 -82.5200302551904,32.130929134344875 -84.35015727412643,33.96105615325939 -85.02003025522005,36.461056153259655 -84.3501572741558,38.96105615326779 -82.5200302552413,40.791183172203816 -80.02003025524102,41.46105615329744" stroke="#00f" stroke-linecap="round" stroke-linejoin="round"/><polyline fill="none" points="-149.4200298717014,79.0858337685655 -146.92002987169326,78.41596078750125 -145.08990285275723,76.58583376858674 -144.42002987166362,74.08583376858647 -145.08990285272785,71.58583376857833 -146.92002987164236,69.7557067496423 -149.4200298716426,69.08583376854867 -151.92002987165074,69.75570674961291 -153.75015689058677,71.58583376852742 -154.42002987168038,74.08583376852769 -153.75015689061615,76.58583376853584 -151.92002987170164,78.41596078747186 -149.4200298717014,79.0858337685655" stroke="#ffa500" stroke-linecap="round" stroke-linejoin="round"/><polyline fill="none" points="27.92308145674019,6.7801993596150085 30.423081456748328,6.110326378550771 32.25320847568435,4.280199359636258 32.92308145677798,1.7801993596359926 32.25320847571374,-0.7198006403721484 30.423081456799228,-2.549927659308177 27.92308145679896,-3.219800640401807 25.42308145679082,-2.5499276593375706 23.59295443785479,-0.719800640423059 22.92308145676116,1.7801993595772065 23.592954437825398,4.280199359585348 25.423081456739908,6.1103263785213775 27.923081456740174,6.780199359615008" stroke="#ffa500" stroke-linecap="round" stroke-linejoin="round"/><polyline fill="none" points="-102.55658698555689,24.602845435811737 -100.05658698554875,23.932972454747503 -98.22645996661272,22.102845435832993 -97.55658698551909,19.602845435832727 -98.22645996658332,17.102845435824584 -100.05658698549783,15.272718416888553 -102.5565869854981,14.60284543579492 -105.05658698550624,15.272718416859155 -106.88671400444227,17.102845435773666 -107.5565869855359,19.602845435773933 -106.88671400447167,22.102845435782076 -105.05658698555716,23.932972454718108 -102.55658698555689,24.60284543581174" stroke="#008000" stroke-linecap="round" stroke-linejoin="round"/><polyline fill="none" points="-99.58772754375217,-7.255916839598685 -97.08772754374402,-7.925789820662918 -95.25760052480798,-9.755916839577427 -94.58772754371435,-12.255916839577694 -95.25760052477858,-14.755916839585836 -97.08772754369309,-16.58604385852187 -99.58772754369336,-17.255916839615505 -102.0877275437015,-16.586043858551275 -103.91785456263754,-14.755916839636765 -104.58772754373118,-12.255916839636498 -103.91785456266695,-9.755916839628354 -102.08772754375244,-7.925789820692319 -99.58772754375217,-7.255916839598683" stroke="#00f" stroke-linecap="round" stroke-linejoin="round"/><polyline fill="none" points="1.3864393690515187,135.06096949188142 3.886439369059664,134.3910965108172 5.716566387995699,132.56096949190268 6.386439369089335,130.06096949190243 5.716566388025105,127.56096949189428 3.8864393691105965,125.73084247295824 1.386439369110331,125.06096949186461 -1.1135606308978145,125.73084247292884 -2.9436876498338505,127.56096949184335 -3.6135606309274886,130.06096949184362 -2.94368764986326,132.56096949185178 -1.1135606309487525,134.3910965107878 1.386439369051513,135.06096949188145" stroke="#00f" stroke-linecap="round" stroke-linejoin="round"/><polyline fill="none" points="-128.8652308893936,46.650349749010196 -126.36523088938544,45.980476767945966 -124.5351038704494,44.150349749031456 -123.86523088935577,41.65034974903119 -124.53510387042,39.15034974902305 -126.36523088933451,37.32022273008701 -128.86523088933478,36.65034974899337 -131.36523088934294,37.3202227300576 -133.19535790827896,39.150349748972104 -133.8652308893726,41.65034974897237 -133.19535790830838,44.15034974898052 -131.36523088939387,45.98047676791656 -128.86523088939362,46.650349749010196" stroke="#00f" stroke-linecap="round" stroke-linejoin="round"/><polyline fill="none" points="64.1841100760364,99.35019473519993 66.68411007604455,98.6803217541357 68.51423709498059,96.8501947352212 69.18411007607423,94.35019473522092 68.51423709501,91.85019473521278 66.6841100760955,90.02006771627674 64.18411007609522,89.3501947351831 61.68411007608707,90.02006771624733 59.853983057151034,91.85019473516184 59.184110076057394,94.3501947351621 59.85398305712162,96.85019473517025 61.68411007603612,98.68032175410629 64.18411007603639,99.35019473519993" stroke="#ffa500" stroke-linecap="round" stroke-linejoin="round"/><polyline fill="none" points="-89.15868718016222,92.6238384791051 -86.65868718015408,91.95396549804087 -84.82856016121804,90.12383847912636 -84.15868718012439,87.62383847912609 -84.82856016118862,85.12383847911795 -86.65868718010313,83.29371146018191 -89.1586871801034,82.62383847908826 -91.65868718011154,83.29371146015248 -93.48881419904758,85.12383847906699 -94.15868718014123,87.62383847906726 -93.48881419907701,90.1238384790754 -91.6586871801625,91.95396549801144 -89.15868718016223,92.62383847910509" stroke="#ffa500" stroke-linecap="round" stroke-linejoin="round"/><polyline fill="none" points="52.034407016620875,-44.978660214085465 54.534407016629025,-45.64853319514969 56.36453403556507,-47.47866021406419 57.03440701665872,-49.978660214064455 56.364534035594495,-52.478660214072605 54.53440701667999,-54.30878723300865 52.03440701667973,-54.9786602141023 49.53440701667158,-54.308787233038075 47.70427999773553,-52.47866021412357 47.034407016641886,-49.97866021412331 47.70427999770611,-47.47866021411516 49.53440701662061,-45.64853319517911 52.034407016620875,-44.978660214085465" stroke="#ffa500" stroke-linecap="round" stroke-linejoin="round"/><polyline fill="none" points="-68.29277116500454,152.810293480906 -65.79277116499638,152.14042049984178 -63.962644146060335,150.31029348092727 -63.29277116496669,147.81029348092702 -63.962644146030904,145.31029348091886 -65.7927711649454,143.4801664619828 -68.29277116494568,142.81029348088916 -70.79277116495383,143.4801664619534 -72.62289818388989,145.3102934808679 -73.29277116498353,147.81029348086815 -72.62289818391932,150.3102934808763 -70.79277116500482,152.14042049981236 -68.29277116500455,152.810293480906" stroke="#ffa500" stroke-linecap="round" stroke-linejoin="round"/><polyline fill="none" points="76.6199086828769,2.0405058034126418 79.11990868288505,1.3706328223484254 80.95003570182111,-0.4594941965660746 81.61990868291475,-2.9594941965663404 80.95003570185054,-5.459494196574494 79.11990868293604,-7.289621215510544 76.61990868293577,-7.959494196604198 74.11990868292762,-7.2896212155399835 72.28978166399156,-5.459494196625485 71.6199086828979,-2.95949419662522 72.28978166396212,-0.45949419661706603 74.11990868287661,1.3706328223189854 76.61990868287688,2.0405058034126413" stroke="#ffa500" stroke-linecap="round" stroke-linejoin="round"/><polyline fill="none" points="-122.83340632053431,29.82092957629957 -120.33340632052615,29.151056595235357 -118.5032793015901,27.320929576320857 -117.83340632049644,24.82092957632059 -118.50327930156065,22.320929576312437 -120.33340632047515,20.490802557376384 -122.83340632047542,19.820929576282726 -125.33340632048358,20.49080255734694 -127.16353333941963,22.320929576261438 -127.83340632051329,24.820929576261705 -127.16353333944907,27.32092957626986 -125.33340632053458,29.151056595205915 -122.83340632053431,29.820929576299573" stroke="#008000" stroke-linecap="round" stroke-linejoin="round"/><polyline fill="none" points="-118.65031221280617,66.83317223812008 -116.15031221279801,66.16329925705587 -114.32018519386196,64.33317223814137 -113.6503122127683,61.83317223814111 -114.32018519383251,59.33317223813295 -116.15031221274701,57.5030452191969 -118.65031221274728,56.83317223810324 -121.15031221275544,57.50304521916745 -122.98043923169149,59.33317223808194 -123.65031221278515,61.833172238082206 -122.98043923172094,64.33317223809036 -121.15031221280644,66.16329925702641 -118.65031221280617,66.83317223812007" stroke="#00f" stroke-linecap="round" stroke-linejoin="round"/><polyline fill="none" points="-72.83543240620571,27.498904629308544 -70.33543240619755,26.829031648244335 -68.5053053872615,24.99890462932984 -67.83543240616784,22.498904629329573 -68.50530538723204,19.998904629321416 -70.33543240614654,18.16877761038536 -72.83543240614681,17.498904629291697 -75.33543240615496,18.168777610355907 -77.16555942509102,19.998904629270402 -77.83543240618468,22.49890462927067 -77.16555942512048,24.998904629278826 -75.33543240620598,26.829031648214883 -72.83543240620571,27.498904629308548" stroke="#ffa500" stroke-linecap="round" stroke-linejoin="round"/><polyline fill="none" points="113.06627561458124,103.15843929520007 115.5662756145894,102.48856631413587 117.39640263352545,100.65843929522137 118.06627561461912,98.1584392952211 117.39640263355491,95.65843929521294 115.56627561464042,93.82831227627689 113.06627561464015,93.15843929518323 110.56627561463199,93.82831227624743 108.73614859569594,95.65843929516193 108.06627561460228,98.1584392951622 108.73614859566648,100.65843929517035 110.56627561458097,102.48856631410641 113.06627561458124,103.15843929520007" stroke="#00f" stroke-linecap="round" stroke-linejoin="round"/><polyline fill="none" points="-171.72965155495837,-52.97739952374026 -169.2296515549502,-53.64727250480446 -167.39952453601416,-55.47739952371896 -166.72965155492048,-57.97739952371922 -167.39952453598468,-60.47739952372738 -169.22965155489916,-62.30752654266344 -171.72965155489942,-62.97739952375711 -174.22965155490758,-62.307526542692905 -176.05977857384363,-60.477399523778416 -176.7296515549373,-57.97739952377815 -176.0597785738731,-55.47739952376999 -174.22965155495862,-53.64727250483393 -171.72965155495837,-52.97739952374026" stroke="#ffa500" stroke-linecap="round" stroke-linejoin="round"/><polyline fill="none" points="-90.32941355524635,108.5206991708217 -87.82941355523819,107.8508261897575 -85.99928653630212,106.020699170843 -85.32941355520845,103.52069917084273 -85.99928653627265,101.02069917083458 -87.82941355518714,99.19057215189851 -90.32941355518741,98.52069917080483 -92.82941355519557,99.19057215186903 -94.65954057413164,101.02069917078353 -95.32941355522532,103.5206991707838 -94.65954057416111,106.02069917079196 -92.82941355524662,107.85082618972802 -90.32941355524635,108.5206991708217" stroke="#ffa500" stroke-linecap="round" stroke-linejoin="round"/><polyline fill="none" points="-180.14031839933057,58.35881420528909 -177.6403183993224,57.68894122422489 -175.81019138038636,55.8588142053104 -175.14031839929268,53.35881420531014 -175.81019138035688,50.858814205301975 -177.64031839927137,49.02868718636591 -180.14031839927162,48.35881420527223 -182.64031839927978,49.028687186336434 -184.47044541821583,50.85881420525092 -185.1403183993095,53.358814205251186 -184.4704454182453,55.85881420525935 -182.64031839933082,57.68894122419542 -180.14031839933057,58.35881420528909" stroke="#ffa500" stroke-linecap="round" stroke-linejoin="round"/><polyline fill="none" points="-105.79791776569043,26.829586852523224 -103.29791776568226,26.159713871459026 -101.46779074674619,24.329586852544537 -100.79791776565251,21.82958685254427 -101.46779074671672,19.329586852536107 -103.29791776563121,17.49945983360004 -105.79791776563148,16.829586852506363 -108.29791776563965,17.499459833570562 -110.12804478457572,19.32958685248505 -110.7979177656694,21.829586852485317 -110.1280447846052,24.32958685249348 -108.29791776569071,26.159713871429553 -105.79791776569044,26.829586852523228" stroke="#008000" stroke-linecap="round" stroke-linejoin="round"/><polyline fill="none" points="-152.17861761786918,-41.61665656188001 -149.67861761786102,-42.28652954294421 -147.84849059892494,-44.1166565618587 -147.17861761783126,-46.61665656185896 -147.84849059889547,-49.116656561867124 -149.67861761780995,-50.94678358080319 -152.1786176178102,-51.61665656189687 -154.67861761781836,-50.94678358083267 -156.50874463675444,-49.116656561918184 -157.17861761784812,-46.61665656191792 -156.50874463678392,-44.11665656190976 -154.67861761786943,-42.28652954297368 -152.17861761786918,-41.61665656188" stroke="#ffa500" stroke-linecap="round" stroke-linejoin="round"/><polyline fill="none" points="-118.22612374192306,-13.44920227478342 -115.72612374191489,-14.119075255847614 -113.89599672297882,-15.9492022747621 -113.22612374188515,-18.449202274762367 -113.89599672294933,-20.949202274770535 -115.72612374186382,-22.77932929370661 -118.22612374186409,-23.449202274800292 -120.72612374187226,-22.7793292937361 -122.55625076080833,-20.949202274821616 -123.226123741902,-18.44920227482135 -122.55625076083781,-15.949202274813182 -120.72612374192333,-14.119075255877107 -118.22612374192306,-13.449202274783424" stroke="#00f" stroke-linecap="round" stroke-linejoin="round"/><polyline fill="none" points="52.23918469969916,-84.97459920326244 54.73918469970733,-85.64447218432663 56.569311718643405,-87.47459920324111 57.23918469973709,-89.97459920324138 56.5693117186729,-92.47459920324955 54.73918469975842,-94.30472622218564 52.239184699758155,-94.97459920327933 49.739184699749984,-94.30472622221514 47.90905768081391,-92.47459920330066 47.23918469972023,-89.97459920330039 47.909057680784414,-87.47459920329221 49.739184699698896,-85.64447218435613 52.23918469969916,-84.97459920326244" stroke="#00f" stroke-linecap="round" stroke-linejoin="round"/><polyline fill="none" points="-140.98419944784885,16.224325366120794 -138.4841994478407,15.554452385056607 -136.6540724289046,13.724325366142123 -135.98419944781094,11.224325366141858 -136.6540724288751,8.724325366133689 -138.4841994477896,6.8941983471976105 -140.98419944778985,6.224325366103924 -143.484199447798,6.894198347168111 -145.3143264667341,8.724325366082596 -145.98419944782776,11.224325366082862 -145.3143264667636,13.724325366091032 -143.4841994478491,15.55445238502711 -140.98419944784885,16.224325366120798" stroke="#00f" stroke-linecap="round" stroke-linejoin="round"/><polyline fill="none" points="24.813956169517827,94.8957536958833 27.313956169525998,94.22588071481911 29.144083188462076,92.39575369590463 29.813956169555766,89.89575369590436 29.14408318849158,87.39575369589619 27.3139561695771,85.56562667696011 24.813956169576834,84.89575369586642 22.313956169568662,85.5656266769306 20.48382915063258,87.39575369584509 19.81395616953889,89.89575369584536 20.483829150603075,92.39575369585353 22.313956169517557,94.22588071478961 24.813956169517823,94.8957536958833" stroke="#ffa500" stroke-linecap="round" stroke-linejoin="round"/><polyline fill="none" points="-89.69700336389218,50.32150128294217 -87.19700336388401,49.65162830187799 -85.36687634494793,47.82150128296351 -84.69700336385424,45.32150128296325 -85.36687634491842,42.821501282955076 -87.1970033638329,40.991374264018994 -89.69700336383318,40.321501282925304 -92.19700336384135,40.991374263989485 -94.02713038277743,42.82150128290397 -94.69700336387112,45.32150128290423 -94.02713038280693,47.8215012829124 -92.19700336389245,49.65162830184848 -89.69700336389218,50.32150128294218" stroke="#008000" stroke-linecap="round" stroke-linejoin="round"/><polyline fill="none" points="59.4524380138658,61.503858811391225 61.95243801387397,60.833985830327045 63.782565032810055,59.00385881141256 64.45243801390374,56.5038588114123 63.782565032839564,54.00385881140413 61.95243801392508,52.17373179246805 59.45243801392482,51.50385881137435 56.95243801391665,52.17373179243853 55.12231099498056,54.00385881135301 54.45243801388686,56.503858811353275 55.12231099495104,59.003858811361454 56.952438013865525,60.83398583029754 59.45243801386579,61.50385881139124" stroke="#ffa500" stroke-linecap="round" stroke-linejoin="round"/><polyline fill="none" points="11.159210490539692,-141.96071151425932 13.659210490547867,-142.6305844953235 15.489337509483954,-144.46071151423797 16.159210490577653,-146.96071151423823 15.489337509513474,-149.4607115142464 13.659210490598996,-151.2908385331825 11.15921049059873,-151.9607115142762 8.659210490590553,-151.29083853321202 6.829083471654464,-149.46071151429754 6.159210490560765,-146.9607115142973 6.8290834716249424,-144.4607115142891 8.65921049053942,-142.63058449535302 11.159210490539687,-141.96071151425932" stroke="#ffa500" stroke-linecap="round" stroke-linejoin="round"/><polyline fill="none" points="-18.50615430781176,121.90543812946612 -16.00615430780358,121.23556514840195 -14.176027288867491,119.40543812948746 -13.506154307773791,116.9054381294872 -14.176027288837966,114.40543812947902 -16.006154307752443,112.57531111054293 -18.50615430775271,111.90543812944922 -21.006154307760887,112.5753111105134 -22.83628132669698,114.40543812942788 -23.50615430779068,116.90543812942815 -22.836281326726507,119.40543812943633 -21.00615430781203,121.23556514837243 -18.506154307811762,121.90543812946613" stroke="#ffa500" stroke-linecap="round" stroke-linejoin="round"/><polyline fill="none" points="111.40838154162242,-96.61489405829616 113.9083815416306,-97.28476703936033 115.7385085605667,-99.11489405827481 116.4083815416604,-101.61489405827508 115.73850856059623,-104.11489405828327 113.90838154168175,-105.94502107721937 111.40838154168148,-106.61489405831307 108.9083815416733,-105.9450210772489 107.0782545227372,-104.11489405833441 106.4083815416435,-101.61489405833414 107.07825452270767,-99.11489405832596 108.90838154162215,-97.28476703938986 111.40838154162242,-96.61489405829616" stroke="#ffa500" stroke-linecap="round" stroke-linejoin="round"/><polyline fill="none" points="-0.3604781393313037,-84.2754769497845 2.1395218606768767,-84.94534993084868 3.969648879612972,-86.77547694976316 4.639521860706678,-89.27547694976343 3.9696488796425067,-91.77547694977162 2.139521860728032,-93.60560396870771 -0.3604781392722347,-94.27547694980142 -2.8604781392804157,-93.60560396873724 -4.6906051582165125,-91.77547694982277 -5.36047813931022,-89.2754769498225 -4.69060515824605,-86.77547694981432 -2.860478139331576,-84.94534993087822 -0.36047813933130923,-84.27547694978452" stroke="#ffa500" stroke-linecap="round" stroke-linejoin="round"/><polyline fill="none" points="89.03371133359573,-44.865433499256646 91.53371133360392,-45.53530648032081 93.36383835254001,-47.36543349923529 94.03371133363372,-49.86543349923556 93.36383835256954,-52.365433499243736 91.53371133365508,-54.19556051817983 89.03371133365481,-54.86543349927354 86.53371133364662,-54.195560518209376 84.70358431471053,-52.3654334992949 84.03371133361682,-49.86543349929463 84.703584314681,-47.365433499286446 86.53371133359546,-45.53530648035035 89.03371133359573,-44.86543349925664" stroke="#00f" stroke-linecap="round" stroke-linejoin="round"/><polyline fill="none" points="140.88436792531832,-68.67911208321401 143.3843679253265,-69.34898506427818 145.2144949442626,-71.17911208319265 145.88436792535632,-73.67911208319292 145.21449494429214,-76.1791120832011 143.38436792537766,-78.0092391021372 140.8843679253774,-78.67911208323092 138.38436792536922,-78.00923910216676 136.5542409064331,-76.17911208325229 135.8843679253394,-73.67911208325202 136.55424090640358,-71.17911208324384 138.38436792531806,-69.34898506430774 140.88436792531832,-68.67911208321402" stroke="#00f" stroke-linecap="round" stroke-linejoin="round"/><polyline fill="none" points="-160.3866674361557,-31.281053278370656 -157.88666743614752,-31.95092625943482 -156.0565404172114,-33.78105327834929 -155.3866674361177,-36.28105327834956 -156.05654041718188,-38.781053278357746 -157.88666743609636,-40.61118029729385 -160.38666743609662,-41.28105327838757 -162.8866674361048,-40.6111802973234 -164.7167944550409,-38.78105327840893 -165.38666743613462,-36.28105327840866 -164.71679445507044,-33.78105327840048 -162.88666743615596,-31.95092625946437 -160.3866674361557,-31.281053278370653" stroke="#00f" stroke-linecap="round" stroke-linejoin="round"/><polyline fill="none" points="114.62972026085366,-62.155373776412816 117.12972026086184,-62.825246757476975 118.95984727979796,-64.65537377639144 119.62972026089167,-67.15537377639171 118.95984727982751,-69.6553737763999 117.12972026091305,-71.48550079533601 114.62972026091278,-72.15537377642973 112.12972026090459,-71.48550079536557 110.29959324196848,-69.6553737764511 109.62972026087476,-67.15537377645083 110.29959324193892,-64.65537377644264 112.12972026085339,-62.825246757506534 114.62972026085366,-62.155373776412816" stroke="#00f" stroke-linecap="round" stroke-linejoin="round"/><polyline fill="none" points="-80.43478316425548,-69.31922263527275 -77.93478316424729,-69.98909561633691 -76.10465614531118,-71.81922263525138 -75.43478316421746,-74.31922263525165 -76.10465614528162,-76.81922263525983 -77.93478316419609,-78.64934965419594 -80.43478316419636,-79.31922263528966 -82.93478316420455,-78.6493496542255 -84.76491018314066,-76.81922263531104 -85.43478316423437,-74.31922263531077 -84.76491018317022,-71.81922263530258 -82.93478316425575,-69.98909561636647 -80.43478316425548,-69.31922263527275" stroke="#ffa500" stroke-linecap="round" stroke-linejoin="round"/><polyline fill="none" points="-184.588700132611,44.95236479359222 -182.0887001326028,44.28249181252806 -180.2585731136667,42.45236479361359 -179.58870013257297,39.95236479361332 -180.2585731136371,37.45236479360513 -182.08870013255157,35.62223777466902 -184.58870013255182,34.95236479357529 -187.08870013256,35.622237774639444 -188.91882715149612,37.45236479355391 -189.58870013258985,39.95236479355418 -188.9188271515257,42.452364793562374 -187.08870013261125,44.282491812498485 -184.588700132611,44.95236479359221" stroke="#ffa500" stroke-linecap="round" stroke-linejoin="round"/><polyline fill="none" points="-46.50079531082662,38.22018904831058 -44.000795310818425,37.55031606724643 -42.170668291882315,35.72018904833196 -41.50079531078859,33.22018904833169 -42.17066829185274,30.720189048323498 -44.00079531076721,28.890062029387384 -46.50079531076748,28.22018904829366 -49.00079531077567,28.89006202935781 -50.83092232971179,30.720189048272275 -51.500795310805515,33.220189048272545 -50.83092232974136,35.72018904828074 -49.000795310826895,37.550316067216855 -46.500795310826625,38.22018904831058" stroke="#00f" stroke-linecap="round" stroke-linejoin="round"/><polyline fill="none" points="-115.39594449596741,32.74917272397694 -112.89594449595921,32.07929974291279 -111.0658174770231,30.249172723998324 -110.39594449592937,27.749172723998058 -111.06581747699352,25.249172723989865 -112.89594449590798,23.419045705053747 -115.39594449590825,22.74917272396002 -117.89594449591645,23.41904570502417 -119.72607151485256,25.249172723938635 -120.3959444959463,27.7491727239389 -119.72607151488215,30.249172723947094 -117.89594449596768,32.07929974288321 -115.39594449596741,32.74917272397694" stroke="#008000" stroke-linecap="round" stroke-linejoin="round"/><polyline fill="none" points="72.23795460473356,-11.958422671573942 74.73795460474176,-12.628295652638093 76.56808162367788,-14.458422671552556 77.23795460477162,-16.958422671552825 76.56808162370747,-19.458422671561017 74.737954604793,-21.288549690497135 72.23795460479273,-21.958422671590867 69.73795460478453,-21.288549690526718 67.90782758584841,-19.458422671612254 67.23795460475468,-16.958422671611984 67.90782758581882,-14.458422671603788 69.73795460473329,-12.628295652667669 72.23795460473356,-11.958422671573937" stroke="#ffa500" stroke-linecap="round" stroke-linejoin="round"/><polyline fill="none" points="40.82175160482436,-124.30982146680844 43.321751604832556,-124.97969444787259 45.151878623768674,-126.80982146678706 45.821751604862406,-129.30982146678733 45.15187862379826,-131.8098214667955 43.3217516048838,-133.63994848573162 40.82175160488353,-134.30982146682535 38.32175160487533,-133.6399484857612 36.491624585939206,-131.80982146684676 35.821751604845474,-129.3098214668465 36.49162458590962,-126.8098214668383 38.32175160482408,-124.97969444790218 40.82175160482435,-124.30982146680844" stroke="#ffa500" stroke-linecap="round" stroke-linejoin="round"/><polyline fill="none" points="-130.4945153063244,-9.361682581740048 -127.99451530631619,-10.031555562804193 -126.16438828738006,-11.861682581718656 -125.49451530628633,-14.361682581718926 -126.16438828735048,-16.861682581727123 -127.99451530626494,-18.691809600663248 -130.4945153062652,-19.361682581756988 -132.9945153062734,-18.691809600692842 -134.82464232520954,-16.861682581778382 -135.49451530630327,-14.361682581778112 -134.82464232523913,-11.861682581769912 -132.99451530632467,-10.031555562833786 -130.49451530632442,-9.361682581740046" stroke="#00f" stroke-linecap="round" stroke-linejoin="round"/><polyline fill="none" points="87.9284605855064,-76.19783001427847 90.4284605855146,-76.86770299534261 92.25858760445072,-78.69783001425708 92.92846058554447,-81.19783001425735 92.25858760448033,-83.69783001426555 90.42846058556587,-85.52795703320167 87.9284605855656,-86.19783001429542 85.4284605855574,-85.52795703323127 83.59833356662128,-83.69783001431682 82.92846058552753,-81.19783001431655 83.59833356659168,-78.69783001430835 85.42846058550613,-76.86770299537223 87.9284605855064,-76.19783001427848" stroke="#00f" stroke-linecap="round" stroke-linejoin="round"/><polyline fill="none" points="73.08004008481869,-45.653416099675525 75.58004008482689,-46.32328908073966 77.41016710376302,-48.15341609965412 78.08004008485676,-50.65341609965439 77.41016710379262,-53.15341609966259 75.58004008487816,-54.983543118598725 73.0800400848779,-55.65341609969247 70.5800400848697,-54.98354311862833 68.74991306593357,-53.15341609971387 68.08004008483982,-50.6534160997136 68.74991306590397,-48.1534160997054 70.58004008481842,-46.32328908076927 73.08004008481869,-45.653416099675525" stroke="#ffa500" stroke-linecap="round" stroke-linejoin="round"/><polyline fill="none" points="-166.1664508414314,23.941481287196652 -163.6664508414232,23.271608306132514 -161.83632382248706,21.441481287218057 -161.16645084139333,18.941481287217787 -161.83632382245747,16.441481287209584 -163.66645084137193,14.611354268273452 -166.16645084137218,13.941481287179705 -168.6664508413804,14.611354268243842 -170.49657786031653,16.441481287158297 -171.1664508414103,18.941481287158567 -170.49657786034615,21.44148128716677 -168.6664508414317,23.271608306102905 -166.1664508414314,23.941481287196652" stroke="#ffa500" stroke-linecap="round" stroke-linejoin="round"/><polyline fill="none" points="-123.49973943356525,37.15000381524905 -120.99973943355705,36.48013083418491 -119.16961241462091,34.65000381527046 -118.49973943352717,32.15000381527019 -119.1696124145913,29.650003815261982 -120.99973943350575,27.819876796325847 -123.49973943350602,27.150003815232097 -125.99973943351422,27.81987679629623 -127.82986645245036,29.650003815210688 -128.4997394335441,32.15000381521096 -127.82986645247998,34.650003815219165 -125.99973943356552,36.480130834155304 -123.49973943356525,37.15000381524906" stroke="#008000" stroke-linecap="round" stroke-linejoin="round"/><polyline fill="none" points="-59.06093428089876,27.476736659682178 -56.56093428089056,26.806863678618043 -54.73080726195442,24.976736659703587 -54.060934280860664,22.476736659703317 -54.730807261924795,19.97673665969511 -56.56093428083925,18.14660964075897 -59.06093428083952,17.476736659665217 -61.560934280847725,18.14660964072935 -63.391061299783864,19.9767366596438 -64.06093428087762,22.47673665964407 -63.39106129981349,24.97673665965228 -61.56093428089903,26.806863678588417 -59.06093428089876,27.47673665968217" stroke="#ffa500" stroke-linecap="round" stroke-linejoin="round"/><polyline fill="none" points="-113.78747114075888,-41.90911746875024 -111.28747114075067,-42.57899044981437 -109.45734412181453,-44.40911746872882 -108.78747114072077,-46.90911746872909 -109.4573441217849,-49.4091174687373 -111.28747114069935,-51.23924448767344 -113.78747114069962,-51.90911746876719 -116.28747114070784,-51.23924448770306 -118.11759815964398,-49.40911746878861 -118.78747114073774,-46.90911746878834 -118.1175981596736,-44.409117468780124 -116.28747114075915,-42.578990449843985 -113.78747114075888,-41.909117468750225" stroke="#ffa500" stroke-linecap="round" stroke-linejoin="round"/><polyline fill="none" points="-108.59148126350527,20.138431398340487 -106.09148126349706,19.46855841727636 -104.26135424456092,17.638431398361906 -103.59148126346716,15.138431398361634 -104.26135424453129,12.638431398353422 -106.09148126344574,10.808304379417278 -108.59148126344601,10.138431398323519 -111.09148126345423,10.808304379387646 -112.92160828239037,12.6384313983021 -113.59148126348413,15.138431398302371 -112.92160828242,17.638431398310583 -111.09148126350554,19.46855841724673 -108.59148126350527,20.13843139834049" stroke="#00f" stroke-linecap="round" stroke-linejoin="round"/><polyline fill="none" points="-10.51471139590866,93.29507336001514 -8.014711395900449,92.625200378951 -6.1845843769643025,90.79507336003655 -5.514711395870542,88.29507336003628 -6.184584376934668,85.79507336002807 -8.014711395849119,83.96494634109192 -10.514711395849393,83.29507335999816 -13.014711395857606,83.96494634106229 -14.844838414793754,85.79507335997674 -15.514711395887517,88.29507335997701 -14.844838414823391,90.79507335998522 -13.01471139590894,92.62520037892138 -10.514711395908666,93.29507336001514" stroke="#ffa500" stroke-linecap="round" stroke-linejoin="round"/><polyline fill="none" points="-115.17420381048584,29.514991872730153 -112.67420381047762,28.84511889166603 -110.84407679154147,27.014991872751576 -110.17420381044771,24.514991872751303 -110.84407679151184,22.01499187274309 -112.67420381042629,20.18486485380694 -115.17420381042656,19.514991872713175 -117.67420381043478,20.1848648537773 -119.50433082937093,22.014991872691752 -120.17420381046469,24.514991872692026 -119.50433082940057,27.014991872700243 -117.67420381048612,28.845118891636393 -115.17420381048585,29.514991872730157" stroke="#ffa500" stroke-linecap="round" stroke-linejoin="round"/></svg>