<?xml version="1.0" ?><!DOCTYPE svg  PUBLIC '-//W3C//DTD SVG 1.1//EN'  'http://www.w3.org/Graphics/SVG/1.1/DTD/svg11.dtd'><svg height="365.000" viewBox="-178.000 -173.000 357.000 365.000" width="357.000" xmlns="http://www.w3.org/2000/svg"><line fill="none" stroke="none" stroke-linecap="round" stroke-width="2.0" x1="0.0" x2="0.0" y1="0.0" y2="0.0"/><polygon fill="none" fill-rule="evenodd" points="0.0,0.0 0.0,0.0 0.0,0.0" stroke-linejoin="round"/><polyline fill="none" points="-5.367460234320024,-125.58153053134652 -2.867460234319083,-126.25140351242278 -1.0373332153953039,-128.0815305313441 -0.36746023431569064,-130.58153053134416 -1.0373332153919548,-133.0815305313451 -2.867460234313283,-134.91165755026887 -5.367460234313327,-135.58153053134848 -7.867460234314269,-134.91165755027222 -9.69758725323805,-133.0815305313509 -10.367460234317663,-130.58153053135084 -9.6975872532414,-128.0815305313499 -7.867460234320072,-126.25140351242612 -5.367460234320028,-125.5815305313465" stroke="#ffa500" stroke-linecap="round" stroke-linejoin="round"/><polyline fill="none" points="21.119131568076288,-127.17842590518771 23.61913156807723,-127.84829888626398 25.44925858700101,-129.6784259051853 26.11913156808063,-132.17842590518535 25.449258587004365,-134.6784259051863 23.619131568083038,-136.50855292411006 21.11913156808299,-137.17842590518967 18.619131568082047,-136.50855292411342 16.789004549158264,-134.67842590519209 16.119131568078647,-132.17842590519203 16.789004549154907,-129.6784259051911 18.619131568076234,-127.8482988862673 21.119131568076277,-127.17842590518768" stroke="#ffa500" stroke-linecap="round" stroke-linejoin="round"/><polyline fill="none" points="39.762848705225025,-149.68687282136224 42.26284870522597,-150.3567458024385 44.09297572414975,-152.18687282135983 44.76284870522937,-154.68687282135988 44.09297572415311,-157.18687282136082 42.26284870523179,-159.0169998402846 39.76284870523175,-159.6868728213642 37.2628487052308,-159.01699984028795 35.43272168630702,-157.18687282136662 34.7628487052274,-154.68687282136656 35.43272168630366,-152.18687282136563 37.26284870522498,-150.35674580244185 39.762848705225025,-149.68687282136224" stroke="#ffa500" stroke-linecap="round" stroke-linejoin="round"/><polyline fill="none" points="34.47157031835082,-134.56196204930006 36.971570318351766,-135.23183503037632 38.801697337275556,-137.06196204929765 39.47157031835518,-139.5619620492977 38.80169733727892,-142.06196204929864 36.97157031835759,-143.89208906822242 34.47157031835755,-144.56196204930205 31.971570318356605,-143.8920890682258 30.14144329943282,-142.06196204930447 29.471570318353198,-139.5619620493044 30.141443299429454,-137.06196204930347 31.97157031835078,-135.2318350303797 34.47157031835082,-134.56196204930006" stroke="#ffa500" stroke-linecap="round" stroke-linejoin="round"/><polyline fill="none" points="-38.223733008368,34.5673954578122 -35.723733008367056,33.89752247673594 -33.893605989443266,32.06739545781462 -33.223733008363645,29.567395457814577 -33.8936059894399,27.067395457813628 -35.72373300836122,25.23726843888984 -38.223733008361265,24.567395457810214 -40.72373300836221,25.237268438886467 -42.553860027286,27.06739545780779 -43.22373300836563,29.567395457807834 -42.553860027289375,32.06739545780878 -40.72373300836805,33.89752247673257 -38.22373300836801,34.5673954578122" stroke="#00f" stroke-linecap="round" stroke-linejoin="round"/><polyline fill="none" points="-39.100602050093215,-53.329793165691775 -36.60060205009226,-53.99966614676803 -34.77047503116847,-55.82979316568935 -34.100602050088845,-58.329793165689395 -34.7704750311651,-60.82979316569035 -36.60060205008642,-62.65992018461414 -39.100602050086465,-63.329793165693765 -41.60060205008742,-62.65992018461751 -43.43072906901121,-60.82979316569619 -44.100602050090835,-58.329793165696145 -43.43072906901458,-55.82979316569519 -41.60060205009326,-53.999666146771396 -39.100602050093215,-53.32979316569177" stroke="#00f" stroke-linecap="round" stroke-linejoin="round"/><polyline fill="none" points="14.523710509986847,-136.00705222816822 17.023710509987797,-136.67692520924447 18.85383752891159,-138.5070522281658 19.52371050999122,-141.00705222816586 18.85383752891497,-143.5070522281668 17.02371050999365,-145.3371792470906 14.523710509993604,-146.00705222817024 12.023710509992654,-145.33717924709399 10.193583491068859,-143.50705222817265 9.523710509989227,-141.0070522281726 10.193583491065477,-138.50705222817166 12.023710509986795,-136.67692520924786 14.52371050998684,-136.00705222816822" stroke="#ffa500" stroke-linecap="round" stroke-linejoin="round"/><polyline fill="none" points="88.47482549675091,-151.72337804552848 90.97482549675186,-152.39325102660473 92.80495251567567,-154.22337804552606 93.4748254967553,-156.72337804552612 92.80495251567905,-159.22337804552708 90.97482549675773,-161.0535050644509 88.47482549675769,-161.72337804553052 85.97482549675674,-161.05350506445427 84.14469847783293,-159.22337804553294 83.4748254967533,-156.72337804553288 84.14469847782955,-154.22337804553192 85.97482549675087,-152.3932510266081 88.47482549675091,-151.72337804552848" stroke="#ffa500" stroke-linecap="round" stroke-linejoin="round"/><polyline fill="none" points="-36.22345712567972,-49.166769315939014 -33.72345712567877,-49.83664229701526 -31.89333010675497,-51.66676931593658 -31.223457125675335,-54.16676931593662 -31.89333010675158,-56.66676931593757 -33.7234571256729,-58.496896334861376 -36.223457125672944,-59.16676931594101 -38.723457125673896,-58.496896334864765 -40.5535841445977,-56.66676931594345 -41.223457125677335,-54.166769315943405 -40.55358414460109,-51.66676931594245 -38.72345712567977,-49.83664229701865 -36.22345712567973,-49.166769315939014" stroke="#00f" stroke-linecap="round" stroke-linejoin="round"/><polyline fill="none" points="17.21994394518305,1.0832495013158252 19.719943945184006,0.4133765202395816 21.550070964107807,-1.416750498681735 22.219943945187445,-3.91675049868178 21.550070964111203,-6.416750498682734 19.719943945189886,-8.246877517606535 17.21994394518984,-8.916750498686174 14.719943945188886,-8.246877517609931 12.889816926265084,-6.416750498688616 12.219943945185445,-3.9167504986885717 12.889816926261688,-1.416750498687617 14.719943945183003,0.41337652023618565 17.219943945183047,1.0832495013158254" stroke="#00f" stroke-linecap="round" stroke-linejoin="round"/><polyline fill="none" points="77.06359849193612,-102.07066882695676 79.56359849193707,-102.740541808033 81.39372551086088,-104.57066882695432 82.06359849194051,-107.07066882695436 81.39372551086427,-109.57066882695531 79.56359849194295,-111.40079584587912 77.06359849194291,-112.07066882695875 74.56359849194196,-111.40079584588251 72.73347147301816,-109.5706688269612 72.06359849193852,-107.07066882696115 72.73347147301476,-104.5706688269602 74.56359849193608,-102.7405418080364 77.06359849193612,-102.07066882695675" stroke="#ffa500" stroke-linecap="round" stroke-linejoin="round"/><polyline fill="none" points="91.04229592308427,-95.98691457028856 93.54229592308522,-96.6567875513648 95.37242294200902,-98.48691457028612 96.04229592308867,-100.98691457028616 95.37242294201243,-103.48691457028711 93.54229592309112,-105.31704158921092 91.04229592309107,-105.98691457029057 88.54229592309012,-105.31704158921433 86.71216890416632,-103.48691457029301 86.04229592308667,-100.98691457029297 86.71216890416291,-98.48691457029202 88.54229592308423,-96.65678755136821 91.04229592308427,-95.98691457028856" stroke="#ffa500" stroke-linecap="round" stroke-linejoin="round"/><polyline fill="none" points="92.60611734447669,-131.12058478964474 95.10611734447764,-131.79045777072096 96.93624436340144,-133.62058478964227 97.60611734448109,-136.12058478964232 96.93624436340485,-138.6205847896433 95.10611734448354,-140.4507118085671 92.6061173444835,-141.12058478964673 90.10611734448254,-140.4507118085705 88.27599032555874,-138.6205847896492 87.60611734447909,-136.12058478964914 88.27599032555533,-133.62058478964818 90.10611734447664,-131.79045777072437 92.60611734447669,-131.12058478964474" stroke="#ffa500" stroke-linecap="round" stroke-linejoin="round"/><polyline fill="none" points="8.662159332920272,28.34402280484825 11.162159332921231,27.674149823772016 12.992286351845042,25.844022804850706 13.662159332924691,23.34402280485066 12.992286351848458,20.8440228048497 11.162159332927146,19.01389578592589 8.662159332927102,18.34402280484624 6.162159332926142,19.01389578592247 4.33203231400233,20.84402280484378 3.6621593329226796,23.344022804843828 4.332032313998912,25.844022804844787 6.162159332920222,27.674149823768598 8.662159332920266,28.344022804848247" stroke="#00f" stroke-linecap="round" stroke-linejoin="round"/><polyline fill="none" points="99.54311819441008,-76.13295049375718 102.04311819441105,-76.80282347483342 103.87324521333487,-78.63295049375473 104.54311819441452,-81.13295049375478 103.87324521333828,-83.63295049375574 102.04311819441698,-85.46307751267956 99.54311819441693,-86.13295049375921 97.04311819441597,-85.46307751268299 95.21299117549215,-83.63295049376168 94.5431181944125,-81.13295049376164 95.21299117548872,-78.63295049376067 97.04311819441003,-76.80282347483686 99.54311819441007,-76.1329504937572" stroke="#ffa500" stroke-linecap="round" stroke-linejoin="round"/><polyline fill="none" points="101.6908090058553,-92.67710420259665 104.19080900585627,-93.34697718367288 106.02093602478008,-95.17710420259418 106.69080900585973,-97.67710420259422 106.02093602478351,-100.17710420259519 104.1908090058622,-102.007231221519 101.69080900586216,-102.67710420259866 99.1908090058612,-102.00723122152243 97.36068198693738,-100.17710420260113 96.69080900585773,-97.67710420260109 97.36068198693395,-95.17710420260012 99.19080900585526,-93.3469771836763 101.6908090058553,-92.67710420259665" stroke="#ffa500" stroke-linecap="round" stroke-linejoin="round"/><polyline fill="none" points="18.195009539960424,-7.867794291874178 20.695009539961386,-8.537667272950404 22.525136558885205,-10.36779429187171 23.19500953996486,-12.867794291871755 22.525136558888633,-15.36779429187272 20.695009539967327,-17.197921310796538 18.19500953996728,-17.867794291876194 15.695009539966316,-17.19792131079997 13.864882521042496,-15.367794291878663 13.195009539962838,-12.867794291878619 13.864882521039064,-10.367794291877654 15.69500953996037,-8.537667272953835 18.195009539960417,-7.8677942918741754" stroke="#008000" stroke-linecap="round" stroke-linejoin="round"/><polyline fill="none" points="137.379179208248,-60.05565610413589 139.87917920824896,-60.725529085212116 141.7093062271728,-62.55565610413342 142.37917920825245,-65.05565610413346 141.70930622717623,-67.55565610413443 139.87917920825493,-69.38578312305825 137.37917920825487,-70.05565610413791 134.8791792082539,-69.38578312306169 133.04905218933007,-67.55565610414038 132.3791792082504,-65.05565610414034 133.04905218932663,-62.55565610413937 134.87917920824793,-60.72552908521555 137.379179208248,-60.055656104135885" stroke="#ffa500" stroke-linecap="round" stroke-linejoin="round"/><polyline fill="none" points="15.092625189764679,-12.407541096534832 17.592625189765645,-13.077414077611055 19.422752208689467,-14.90754109653236 20.09262518976913,-17.407541096532405 19.42275220869291,-19.90754109653337 17.592625189771606,-21.737668115457193 15.092625189771562,-22.407541096536857 12.592625189770594,-21.737668115460636 10.76249817084677,-19.907541096539333 10.092625189767107,-17.407541096539287 10.762498170843328,-14.907541096538319 12.59262518976463,-13.077414077614494 15.092625189764675,-12.407541096534828" stroke="#00f" stroke-linecap="round" stroke-linejoin="round"/><polyline fill="none" points="65.21838014869044,-59.73235187492196 67.71838014869141,-60.40222485599818 69.54850716761524,-62.23235187491948 70.2183801486949,-64.73235187491953 69.54850716761868,-67.2323518749205 67.71838014869738,-69.06247889384433 65.21838014869734,-69.73235187492399 62.71838014869637,-69.06247889384777 60.888253129772544,-67.23235187492647 60.21838014869288,-64.73235187492642 60.8882531297691,-62.232351874925456 62.7183801486904,-60.40222485600163 65.21838014869044,-59.73235187492196" stroke="#00f" stroke-linecap="round" stroke-linejoin="round"/><polyline fill="none" points="147.91664097635564,-60.191032320856394 150.4166409763566,-60.86090530193261 152.24676799528044,-62.691032320853914 152.9166409763601,-65.19103232085396 152.24676799528388,-67.69103232085493 150.41664097636257,-69.52115933977876 147.91664097636252,-70.19103232085843 145.41664097636155,-69.52115933978222 143.58651395743772,-67.69103232086091 142.91664097635805,-65.19103232086087 143.58651395743428,-62.691032320859904 145.41664097635558,-60.86090530193608 147.91664097635564,-60.19103232085641" stroke="#ffa500" stroke-linecap="round" stroke-linejoin="round"/><polyline fill="none" points="134.06477244417806,-65.44477462383085 136.56477244417903,-66.11464760490706 138.39489946310286,-67.94477462382837 139.06477244418252,-70.44477462382841 138.3948994631063,-72.94477462382937 136.564772444185,-74.7749016427532 134.06477244418494,-75.44477462383288 131.56477244418397,-74.77490164275667 129.73464542526014,-72.94477462383537 129.06477244418048,-70.44477462383533 129.7346454252567,-67.94477462383436 131.564772444178,-66.11464760491053 134.06477244417806,-65.44477462383085" stroke="#ffa500" stroke-linecap="round" stroke-linejoin="round"/><polyline fill="none" points="93.0490910282441,-46.80354321512132 95.54909102824507,-47.47341619619753 97.3792180471689,-49.30354321511883 98.04909102824858,-51.80354321511887 97.37921804717237,-54.303543215119845 95.54909102825107,-56.13367023404368 93.04909102825103,-56.803543215123355 90.54909102825006,-56.133670234047145 88.71896400932623,-54.30354321512585 88.04909102824655,-51.803543215125806 88.71896400932276,-49.30354321512483 90.54909102824406,-47.473416196201 93.0490910282441,-46.80354321512132" stroke="#ffa500" stroke-linecap="round" stroke-linejoin="round"/><polyline fill="none" points="46.26112564664644,6.809973898857473 48.761125646647415,6.140100917781263 50.59125266557125,4.309973898859965 51.261125646650925,1.809973898859921 50.591252665574714,-0.6900261011410525 48.76112564665342,-2.5201531200648875 46.261125646653376,-3.1900261011445648 43.7611256466524,-2.520153120068356 41.93099862772857,-0.6900261011470594 41.26112564664889,1.809973898852985 41.9309986277251,4.3099738988539595 43.7611256466464,6.140100917777796 46.26112564664644,6.809973898857475" stroke="#00f" stroke-linecap="round" stroke-linejoin="round"/><polyline fill="none" points="42.96022065108402,-12.442241148553286 45.460220651084995,-13.112114129629493 47.290347670008835,-14.942241148550789 47.96022065108851,-17.442241148550835 47.29034767001231,-19.94224114855181 45.460220651091014,-21.772368167475648 42.96022065109097,-22.44224114855533 40.46022065109,-21.772368167479122 38.63009363216616,-19.942241148557827 37.96022065108647,-17.44224114855778 38.630093632162676,-14.942241148556803 40.46022065108397,-13.112114129632964 42.960220651084015,-12.442241148553283" stroke="#00f" stroke-linecap="round" stroke-linejoin="round"/><polyline fill="none" points="46.723045348625206,-24.21386516196021 49.22304534862618,-24.883738143036414 51.05317236755002,-26.71386516195771 51.723045348629704,-29.213865161957756 51.0531723675535,-31.713865161958733 49.223045348632205,-33.543992180882576 46.72304534863216,-34.21386516196226 44.22304534863119,-33.54399218088606 42.39291832970735,-31.713865161964765 41.723045348627664,-29.21386516196472 42.39291832970387,-26.713865161963742 44.22304534862516,-24.8837381430399 46.723045348625206,-24.213865161960214" stroke="#00f" stroke-linecap="round" stroke-linejoin="round"/><polyline fill="none" points="151.0385508194078,17.8497033148792 153.53855081940875,17.179830333802997 155.3686778383326,15.349703314881705 156.03855081941228,12.84970331488166 155.36867783833608,10.349703314880681 153.53855081941478,8.519576295956838 151.03855081941472,7.849703314877153 148.53855081941376,8.519576295953353 146.70842380048992,10.349703314874645 146.03855081941023,12.84970331487469 146.70842380048643,15.349703314875669 148.53855081940773,17.17983033379951 151.0385508194078,17.8497033148792" stroke="#ffa500" stroke-linecap="round" stroke-linejoin="round"/><polyline fill="none" points="161.98375571185127,25.590033958905398 164.48375571185224,24.920160977829198 166.31388273077607,23.090033958907906 166.98375571185576,20.59003395890786 166.31388273077957,18.09003395890688 164.48375571185827,16.259906939983033 161.9837557118582,15.590033958903344 159.48375571185724,16.259906939979544 157.6536286929334,18.090033958900836 156.98375571185372,20.590033958900882 157.6536286929299,23.090033958901863 159.48375571185122,24.92016097782571 161.98375571185127,25.590033958905398" stroke="#ffa500" stroke-linecap="round" stroke-linejoin="round"/><polyline fill="none" points="127.56984558959333,18.921692904260027 130.0698455895943,18.25181992318383 131.89997260851817,16.421692904262542 132.56984558959786,13.921692904262498 131.89997260852167,11.421692904261517 130.06984558960036,9.59156588533767 127.56984558960032,8.921692904257979 125.06984558959934,9.591565885334175 123.23971857067549,11.421692904255464 122.5698455895958,13.921692904255508 123.239718570672,16.42169290425649 125.06984558959329,18.25181992318034 127.56984558959333,18.92169290426003" stroke="#ffa500" stroke-linecap="round" stroke-linejoin="round"/><polyline fill="none" points="142.07311634071132,6.6385717130701964 144.57311634071232,5.968698731994001 146.40324335963618,4.138571713072713 147.07311634071587,1.6385717130726678 146.40324335963967,-0.8614282869283145 144.57311634071837,-2.691555305852164 142.07311634071831,-3.361428286931858 139.57311634071732,-2.6915553058556627 137.74298932179346,-0.8614282869343743 137.07311634071377,1.6385717130656705 137.74298932178996,4.138571713066653 139.57311634071124,5.968698731990503 142.0731163407113,6.638571713070197" stroke="#ffa500" stroke-linecap="round" stroke-linejoin="round"/><polyline fill="none" points="91.24613006157992,19.27017559620856 93.7461300615809,18.600302615132367 95.57625708050475,16.77017559621108 96.24613006158444,14.270175596211034 95.57625708050824,11.770175596210052 93.74613006158695,9.9400485772862 91.24613006158691,9.270175596206503 88.74613006158593,9.940048577282695 86.91600304266208,11.770175596203982 86.24613006158239,14.270175596204027 86.91600304265859,16.77017559620501 88.74613006157988,18.600302615128864 91.24613006157992,19.270175596208563" stroke="#ffa500" stroke-linecap="round" stroke-linejoin="round"/><polyline fill="none" points="78.1723212967423,-16.300483768227025 80.67232129674328,-16.970356749303217 82.50244831566714,-18.800483768224503 83.17232129674683,-21.30048376822455 82.50244831567063,-23.800483768225533 80.67232129674935,-25.630610787149386 78.1723212967493,-26.300483768229086 75.67232129674832,-25.630610787152897 73.84219427782446,-23.80048376823161 73.17232129674476,-21.300483768231565 73.84219427782095,-18.80048376823058 75.67232129674224,-16.970356749306724 78.17232129674228,-16.300483768227025" stroke="#00f" stroke-linecap="round" stroke-linejoin="round"/><polyline fill="none" points="17.063961706430124,-24.573091470578934 19.56396170643111,-25.242964451655123 21.39408872535497,-27.073091470576408 22.06396170643467,-29.573091470576454 21.394088725358483,-32.07309147057744 19.563961706437198,-33.90321848950129 17.06396170643715,-34.57309147058099 14.563961706436165,-33.9032184895048 12.733834687512308,-32.07309147058352 12.063961706432606,-29.573091470583478 12.733834687508793,-27.07309147058249 14.563961706430076,-25.242964451658633 17.06396170643012,-24.57309147057893" stroke="#ffa500" stroke-linecap="round" stroke-linejoin="round"/><polyline fill="none" points="97.21730374508009,87.72328579800973 99.71730374508107,87.05341281693354 101.54743076400493,85.22328579801226 102.21730374508464,82.72328579801221 101.54743076400845,80.22328579801123 99.71730374508716,78.39315877908737 97.21730374508712,77.72328579800767 94.71730374508613,78.39315877908385 92.88717672616227,80.22328579800514 92.21730374508256,82.72328579800518 92.88717672615874,85.22328579800617 94.71730374508003,87.05341281693003 97.21730374508007,87.72328579800974" stroke="#ffa500" stroke-linecap="round" stroke-linejoin="round"/><polyline fill="none" points="132.20773605482196,85.69116354112207 134.70773605482296,85.02129056004588 136.53786307374682,83.1911635411246 137.20773605482654,80.69116354112455 136.53786307375034,78.19116354112356 134.70773605482907,76.3610365221997 132.207736054829,75.69116354111999 129.70773605482802,76.36103652219617 127.87760903590416,78.19116354111745 127.20773605482445,80.69116354111749 127.87760903590063,83.19116354111848 129.7077360548219,85.02129056004235 132.20773605482196,85.69116354112205" stroke="#ffa500" stroke-linecap="round" stroke-linejoin="round"/><polyline fill="none" points="-14.024169688992416,28.123045606779325 -11.524169688991426,27.453172625703143 -9.694042670067564,25.62304560678186 -9.024169688987854,23.123045606781815 -9.694042670064034,20.623045606780824 -11.524169688985314,18.79291858785696 -14.024169688985358,18.12304560677725 -16.524169688986348,18.79291858785343 -18.354296707910212,20.62304560677471 -19.02416968898992,23.123045606774753 -18.354296707913743,25.623045606775744 -16.524169688992465,27.453172625699608 -14.024169688992421,28.12304560677932" stroke="#f00" stroke-linecap="round" stroke-linejoin="round"/><polyline fill="none" points="116.64404266425495,81.80672410003281 119.14404266425595,81.13685111895663 120.97416968317981,79.30672410003535 121.64404266425952,76.80672410003531 120.97416968318333,74.30672410003432 119.14404266426206,72.47659708111046 116.64404266426202,71.80672410003073 114.14404266426102,72.47659708110692 112.31391564533716,74.30672410002819 111.64404266425744,76.80672410002823 112.31391564533362,79.30672410002923 114.1440426642549,81.1368511189531 116.64404266425494,81.80672410003282" stroke="#ffa500" stroke-linecap="round" stroke-linejoin="round"/><polyline fill="none" points="101.49788462589783,50.38724605060965 103.99788462589882,49.71737306953347 105.8280116448227,47.88724605061219 106.49788462590242,45.38724605061215 105.82801164482623,42.887246050611154 103.99788462590496,41.057119031687286 101.49788462590492,40.38724605060757 98.99788462590392,41.05711903168375 97.16775760698005,42.88724605060502 96.49788462590033,45.387246050605064 97.1677576069765,47.88724605060606 98.99788462589777,49.71737306952993 101.49788462589781,50.38724605060965" stroke="#ffa500" stroke-linecap="round" stroke-linejoin="round"/><polyline fill="none" points="146.8389127058006,89.29029370681856 149.3389127058016,88.62042072574239 151.16903972472545,86.79029370682112 151.83891270580517,84.29029370682107 151.169039724729,81.79029370682008 149.33891270580773,79.9601666878962 146.83891270580767,79.29029370681648 144.33891270580668,79.96016668789265 142.50878568688282,81.79029370681393 141.8389127058031,84.29029370681397 142.50878568687926,86.79029370681496 144.33891270580054,88.62042072573884 146.8389127058006,89.29029370681856" stroke="#ffa500" stroke-linecap="round" stroke-linejoin="round"/><polyline fill="none" points="27.611922087011294,30.711551901945512 30.11192208701229,30.04167892086934 31.942049105936164,28.211551901948067 32.611922087015884,25.71155190194802 31.942049105939713,23.211551901947026 30.11192208701844,21.38142488302315 27.611922087018392,20.711551901943427 25.111922087017398,21.381424883019598 23.281795068093523,23.211551901940872 22.6119220870138,25.711551901940915 23.281795068089966,28.21155190194191 25.11192208701124,30.041678920865785 27.611922087011287,30.71155190194551" stroke="#00f" stroke-linecap="round" stroke-linejoin="round"/><polyline fill="none" points="138.02340652140245,91.80821051810929 140.52340652140344,91.13833753703312 142.35353354032733,89.30821051811185 143.02340652140705,86.8082105181118 142.3535335403309,84.30821051811081 140.5234065214096,82.47808349918694 138.02340652140956,81.80821051810722 135.52340652140856,82.47808349918338 133.69327950248467,84.30821051810466 133.02340652140495,86.8082105181047 133.69327950248112,89.3082105181057 135.5234065214024,91.13833753702957 138.02340652140245,91.80821051810929" stroke="#ffa500" stroke-linecap="round" stroke-linejoin="round"/><polyline fill="none" points="113.22235103530005,111.40115702079537 115.72235103530105,110.7312840397192 117.55247805422492,108.90115702079792 118.22235103530465,106.40115702079788 117.55247805422849,103.90115702079689 115.72235103530721,102.07103000187301 113.22235103530717,101.40115702079328 110.72235103530618,102.07103000186945 108.8922240163823,103.90115702079072 108.22235103530257,106.40115702079076 108.89222401637873,108.90115702079176 110.72235103530001,110.73128403971563 113.22235103530005,111.40115702079537" stroke="#ffa500" stroke-linecap="round" stroke-linejoin="round"/><polyline fill="none" points="91.01442637558645,141.02338104440994 93.51442637558745,140.35350806333378 95.34455339451132,138.5233810444125 96.01442637559106,136.02338104441245 95.34455339451489,133.52338104441145 93.51442637559362,131.69325402548756 91.01442637559357,131.02338104440784 88.51442637559258,131.693254025484 86.68429935666869,133.52338104440528 86.01442637558895,136.02338104440534 86.68429935666512,138.52338104440634 88.5144263755864,140.35350806333022 91.01442637558644,141.02338104440994" stroke="#ffa500" stroke-linecap="round" stroke-linejoin="round"/><polyline fill="none" points="80.06804960544764,150.035687569658 82.56804960544864,149.36581458858183 84.39817662437252,147.53568756966055 85.06804960545226,145.0356875696605 84.3981766243761,142.5356875696595 82.56804960545483,140.7055605507356 80.06804960545479,140.0356875696559 77.56804960545378,140.70556055073206 75.73792258652989,142.53568756965333 75.06804960545016,145.0356875696534 75.73792258652631,147.53568756965439 77.56804960544758,149.36581458857827 80.06804960544763,150.03568756965802" stroke="#ffa500" stroke-linecap="round" stroke-linejoin="round"/><polyline fill="none" points="5.801899287032051,23.086375644004384 8.301899287033054,22.416502662928227 10.132026305956941,20.58637564400696 10.801899287036678,18.086375644006914 10.132026305960519,15.58637564400591 8.301899287039252,13.756248625082023 5.801899287039207,13.086375644002286 3.3018992870382036,13.756248625078443 1.4717722681143164,15.58637564399971 0.8018992870345792,18.086375643999755 1.4717722681107364,20.58637564400076 3.3018992870320023,22.41650266292465 5.801899287032047,23.086375644004388" stroke="#00f" stroke-linecap="round" stroke-linejoin="round"/><polyline fill="none" points="-35.52956862926766,49.41190201002202 -33.029568629266656,48.742029028945865 -31.199441610342767,46.9119020100246 -30.52956862926303,44.411902010024555 -31.199441610339186,41.91190201002355 -33.02956862926045,40.081774991099664 -35.529568629260496,39.41190201001992 -38.029568629261504,40.081774991096076 -39.859695648185394,41.91190201001734 -40.529568629265135,44.411902010017386 -39.85969564818898,46.911902010018395 -38.029568629267715,48.742029028942284 -35.52956862926767,49.411902010022025" stroke="#00f" stroke-linecap="round" stroke-linejoin="round"/><polyline fill="none" points="62.00135934938211,160.10557541575267 64.50135934938312,159.4357024346765 66.33148636830701,157.60557541575523 67.00135934938676,155.10557541575517 66.3314863683106,152.60557541575417 64.50135934938935,150.77544839683028 62.001359349389304,150.10557541575054 59.501359349388295,150.77544839682668 57.671232330464406,152.60557541574795 57.001359349384664,155.105575415748 57.67123233046082,157.605575415749 59.50135934938208,159.4357024346729 62.00135934938212,160.10557541575264" stroke="#ffa500" stroke-linecap="round" stroke-linejoin="round"/><polyline fill="none" points="53.33567911026234,136.47618429519414 55.83567911026335,135.806311314118 57.665806129187246,133.97618429519673 58.33567911026699,131.47618429519667 57.665806129190834,128.97618429519568 55.835679110269574,127.14605727627179 53.33567911026953,126.47618429519204 50.83567911026852,127.1460572762682 49.005552091344626,128.97618429518946 48.33567911026488,131.4761842951895 49.00555209134102,133.9761842951905 50.835679110262284,135.8063113141144 53.335679110262326,136.47618429519414" stroke="#ffa500" stroke-linecap="round" stroke-linejoin="round"/><polyline fill="none" points="-27.05418661779632,68.74002984634393 -24.55418661779531,68.07015686526778 -22.724059598871413,66.24002984634652 -22.054186617791665,63.740029846346474 -22.72405959886781,61.240029846345465 -24.55418661778907,59.40990282742157 -27.054186617789117,58.74002984634182 -29.554186617790126,59.409902827417966 -31.384313636714023,61.240029846339226 -32.054186617793775,63.74002984633927 -31.38431363671763,66.24002984634028 -29.55418661779637,68.07015686526418 -27.054186617796326,68.74002984634393" stroke="#00f" stroke-linecap="round" stroke-linejoin="round"/><polyline fill="none" points="65.29442256412734,145.70793724941532 67.79442256412835,145.03806426833918 69.62454958305226,143.20793724941794 70.294422564132,140.70793724941788 69.62454958305587,138.20793724941686 67.7944225641346,136.37781023049297 65.29442256413456,135.70793724941322 62.794422564133555,136.37781023048936 60.96429554520965,138.2079372494106 60.2944225641299,140.70793724941066 60.96429554520605,143.20793724941169 62.79442256412731,145.03806426833557 65.29442256412736,145.70793724941532" stroke="#ffa500" stroke-linecap="round" stroke-linejoin="round"/><polyline fill="none" points="32.70292446498628,36.771840268456046 35.20292446498729,36.1019672873799 37.033051483911194,34.27184026845864 37.70292446499095,31.771840268458593 37.033051483914804,29.27184026845758 35.20292446499354,27.441713249533677 32.7029244649935,26.77184026845392 30.20292446499249,27.441713249530064 28.372797446068585,29.27184026845132 27.70292446498883,31.771840268451363 28.372797446064972,34.27184026845238 30.20292446498623,36.10196728737628 32.702924464986275,36.77184026845604" stroke="#00f" stroke-linecap="round" stroke-linejoin="round"/><polyline fill="none" points="27.701734523262807,174.8355140999152 30.20173452326382,174.16564111883906 32.03186154218773,172.33551409991782 32.70173452326748,169.83551409991776 32.03186154219134,167.33551409991674 30.201734523270087,165.50538708099282 27.70173452327004,164.83551409991307 25.201734523269028,165.5053870809892 23.37160750434512,167.33551409991045 22.701734523265362,169.8355140999105 23.3716075043415,172.33551409991153 25.201734523262758,174.16564111883545 27.7017345232628,174.8355140999152" stroke="#ffa500" stroke-linecap="round" stroke-linejoin="round"/><polyline fill="none" points="37.34787660353294,144.62207157067704 39.847876603533955,143.9521985896009 41.67800362245786,142.12207157067965 42.347876603537614,139.6220715706796 41.678003622461475,137.12207157067857 39.84787660354022,135.29194455175465 37.34787660354018,134.6220715706749 34.84787660353916,135.29194455175104 33.01774958461525,137.1220715706723 32.34787660353549,139.62207157067235 33.01774958461163,142.12207157067337 34.84787660353288,143.9521985895973 37.347876603532924,144.62207157067704" stroke="#ffa500" stroke-linecap="round" stroke-linejoin="round"/><polyline fill="none" points="17.560099452054462,154.88661361548017 20.06009945205548,154.21674063440403 21.890226470979385,152.3866136154828 22.56009945205915,149.88661361548273 21.890226470983013,147.3866136154817 20.06009945206176,145.5564865965578 17.560099452061717,144.88661361547804 15.060099452060701,145.55648659655418 13.22997243313679,147.38661361547543 12.560099452057027,149.88661361547548 13.229972433133161,152.3866136154765 15.060099452054414,154.21674063440042 17.56009945205446,154.8866136154802" stroke="#ffa500" stroke-linecap="round" stroke-linejoin="round"/><polyline fill="none" points="36.99361553447546,124.01912051933287 39.493615534476476,123.34924753825673 41.323742553400386,121.51912051933549 41.99361553448015,119.01912051933544 41.32374255340402,116.51912051933442 39.493615534482764,114.6889935004105 36.99361553448272,114.01912051933074 34.493615534481705,114.68899350040687 32.663488515557795,116.51912051932811 31.993615534478028,119.01912051932815 32.66348851555416,121.51912051932918 34.49361553447541,123.3492475382531 36.99361553447545,124.01912051933286" stroke="#ffa500" stroke-linecap="round" stroke-linejoin="round"/><polyline fill="none" points="-4.384830380716372,45.76544189423162 -1.884830380715353,45.09556891315549 -0.054703361791438976,43.265441894234236 0.6151696192883296,40.76544189423419 -0.05470336178780022,38.26544189423318 -1.884830380709051,36.43531487530926 -4.384830380709095,35.76544189422949 -6.884830380710115,36.43531487530562 -8.71495739963403,38.265441894226875 -9.384830380713801,40.76544189422692 -8.714957399637672,43.26544189422794 -6.884830380716422,45.09556891315186 -4.384830380716377,45.76544189423163" stroke="#00f" stroke-linecap="round" stroke-linejoin="round"/><polyline fill="none" points="-33.704657052179236,178.61902682436835 -31.204657052178217,177.9491538432922 -29.3745300332543,176.11902682437096 -28.70465705217453,173.6190268243709 -29.374530033250657,171.11902682436988 -31.204657052171907,169.28889980544596 -33.70465705217195,168.6190268243662 -36.204657052172976,169.28889980544233 -38.034784071096894,171.11902682436357 -38.704657052176664,173.61902682436363 -38.03478407110054,176.11902682436465 -36.20465705217929,177.94915384328857 -33.70465705217925,178.61902682436835" stroke="#ffa500" stroke-linecap="round" stroke-linejoin="round"/><polyline fill="none" points="-57.98803058122086,89.07996140080189 -55.48803058121984,88.41008841972577 -53.65790356229592,86.57996140080452 -52.988030581216144,84.07996140080448 -53.65790356229227,81.57996140080346 -55.488030581213515,79.74983438187954 -57.98803058121356,79.07996140079976 -60.48803058121458,79.74983438187589 -62.3181576001385,81.57996140079713 -62.988030581218275,84.07996140079717 -62.31815760014215,86.5799614007982 -60.488030581220904,88.41008841972211 -57.98803058122086,89.07996140080189" stroke="#00f" stroke-linecap="round" stroke-linejoin="round"/><polyline fill="none" points="-55.5247483973605,180.3971003276902 -53.024748397359474,179.7272273466141 -51.19462137843555,177.89710032769284 -50.52474839735577,175.39710032769278 -51.1946213784319,172.89710032769176 -53.02474839735314,171.06697330876784 -55.524748397353186,170.39710032768807 -58.02474839735421,171.06697330876418 -59.854875416278134,172.89710032768542 -60.52474839735791,175.39710032768548 -59.85487541628179,177.8971003276865 -58.02474839736055,179.72722734661042 -55.524748397360504,180.3971003276902" stroke="#ffa500" stroke-linecap="round" stroke-linejoin="round"/><polyline fill="none" points="-37.56981292367078,168.97462764926814 -35.06981292366976,168.30475466819203 -33.23968590474583,166.4746276492708 -32.569812923666056,163.97462764927073 -33.239685904742174,161.4746276492697 -35.06981292366342,159.6445006303458 -37.56981292366346,158.974627649266 -40.069812923664486,159.64450063034212 -41.89993994258841,161.47462764926337 -42.569812923668195,163.97462764926343 -41.89993994259208,166.47462764926445 -40.06981292367083,168.30475466818837 -37.56981292367079,168.97462764926814" stroke="#ffa500" stroke-linecap="round" stroke-linejoin="round"/><polyline fill="none" points="-33.83565951279966,55.50120091622143 -31.33565951279863,54.83132793514531 -29.505532493874703,53.001200916224064 -28.83565951279492,50.50120091622402 -29.505532493871037,48.001200916223 -31.33565951279228,46.171073897299074 -33.835659512792326,45.50120091621929 -36.335659512793356,46.17107389729541 -38.16578653171728,48.00120091621665 -38.835659512797065,50.501200916216696 -38.16578653172095,53.001200916217726 -36.33565951279971,54.83132793514166 -33.835659512799666,55.50120091622144" stroke="#008000" stroke-linecap="round" stroke-linejoin="round"/><polyline fill="none" points="-42.80863679615041,49.53288974433841 -40.30863679614938,48.863016763262294 -38.47850977722545,47.032889744341055 -37.80863679614566,44.53288974434101 -38.47850977722178,42.03288974433998 -40.30863679614302,40.20276272541605 -42.80863679614306,39.532889744336266 -45.30863679614409,40.20276272541238 -47.138763815068025,42.032889744333616 -47.80863679614781,44.53288974433366 -47.1387638150717,47.03288974433469 -45.30863679615046,48.86301676325862 -42.80863679615042,49.53288974433841" stroke="#00f" stroke-linecap="round" stroke-linejoin="round"/><polyline fill="none" points="-34.253645830456506,58.430607919974996 -31.753645830455476,57.760734938898885 -29.923518811531544,55.930607919977646 -29.253645830451756,53.430607919977604 -29.923518811527867,50.93060791997657 -31.753645830449106,49.10048090105264 -34.25364583044915,48.43060791997285 -36.75364583045018,49.10048090104896 -38.583772849374114,50.9306079199702 -39.253645830453905,53.43060791997024 -38.583772849377795,55.93060791997127 -36.753645830456556,57.760734938895204 -34.25364583045651,58.430607919974996" stroke="#00f" stroke-linecap="round" stroke-linejoin="round"/><polyline fill="none" points="-50.55879732940306,52.66842947271202 -48.05879732940203,51.99855649163591 -46.2286703104781,50.16842947271467 -45.55879732939831,47.66842947271463 -46.22867031047442,45.1684294727136 -48.05879732939566,43.338302453789666 -50.5587973293957,42.668429472709875 -53.05879732939673,43.338302453785985 -54.88892434832067,45.168429472707224 -55.55879732940046,47.66842947270727 -54.88892434832435,50.1684294727083 -53.05879732940311,51.998556491632236 -50.55879732940307,52.66842947271203" stroke="#00f" stroke-linecap="round" stroke-linejoin="round"/><polyline fill="none" points="-94.40465170434568,151.4093875922007 -91.90465170434464,150.73951461112458 -90.07452468542071,148.90938759220333 -89.40465170434092,146.40938759220327 -90.07452468541703,143.90938759220225 -91.90465170433826,142.0792605732783 -94.4046517043383,141.4093875921985 -96.90465170433934,142.0792605732746 -98.73477872326328,143.90938759219586 -99.40465170434307,146.4093875921959 -98.73477872326696,148.90938759219694 -96.90465170434572,150.73951461112088 -94.40465170434568,151.4093875922007" stroke="#ffa500" stroke-linecap="round" stroke-linejoin="round"/><polyline fill="none" points="-100.23082265000848,133.87936911073615 -97.73082265000744,133.20949612966004 -95.9006956310835,131.3793691107388 -95.2308226500037,128.87936911073874 -95.90069563107981,126.3793691107377 -97.73082265000104,124.54924209181375 -100.23082265000109,123.87936911073396 -102.73082265000212,124.54924209181007 -104.56094966892607,126.3793691107313 -105.23082265000588,128.87936911073135 -104.56094966892978,131.37936911073237 -102.73082265000855,133.20949612965632 -100.2308226500085,133.87936911073612" stroke="#ffa500" stroke-linecap="round" stroke-linejoin="round"/><polyline fill="none" points="-106.76378861910564,101.58745853393157 -104.2637886191046,100.91758555285547 -102.43366160018066,99.08745853393424 -101.76378861910085,96.5874585339342 -102.43366160017695,94.08745853393316 -104.26378861909818,92.25733151500921 -106.76378861909822,91.58745853392941 -109.26378861909926,92.2573315150055 -111.0939156380232,94.08745853392674 -111.76378861910301,96.58745853392678 -111.09391563802691,99.08745853392782 -109.26378861910568,100.91758555285176 -106.76378861910564,101.58745853393157" stroke="#ffa500" stroke-linecap="round" stroke-linejoin="round"/><polyline fill="none" points="-95.47982577279757,102.5922704797689 -92.97982577279653,101.9223974986928 -91.14969875387258,100.09227047977157 -90.47982577279278,97.59227047977153 -91.14969875386888,95.09227047977049 -92.97982577279011,93.26214346084654 -95.47982577279015,92.59227047976674 -97.97982577279119,93.26214346084284 -99.80995279171513,95.09227047976407 -100.47982577279494,97.59227047976411 -99.80995279171884,100.09227047976515 -97.97982577279761,101.9223974986891 -95.47982577279757,102.5922704797689" stroke="#ffa500" stroke-linecap="round" stroke-linejoin="round"/><polyline fill="none" points="-105.29733027650285,105.2494211489349 -102.79733027650181,104.5795481678588 -100.96720325757786,102.74942114893757 -100.29733027649806,100.24942114893753 -100.96720325757416,97.74942114893649 -102.79733027649539,95.91929413001255 -105.29733027649543,95.24942114893274 -107.79733027649647,95.91929413000884 -109.62745729542041,97.74942114893007 -110.29733027650022,100.24942114893011 -109.62745729542412,102.74942114893115 -107.79733027650289,104.5795481678551 -105.29733027650285,105.2494211489349" stroke="#ffa500" stroke-linecap="round" stroke-linejoin="round"/><polyline fill="none" points="-42.020391268664675,36.64631055391391 -39.52039126866364,35.97643757283781 -37.690264249739684,34.14631055391658 -37.02039126865987,31.646310553916535 -37.69026424973597,29.146310553915495 -39.5203912686572,27.316183534991545 -42.02039126865724,26.646310553911736 -44.52039126865828,27.31618353498783 -46.35051828758223,29.146310553909057 -47.020391268662046,31.646310553909103 -46.350518287585956,34.14631055391014 -44.520391268664724,35.976437572834094 -42.02039126866468,36.64631055391391" stroke="#008000" stroke-linecap="round" stroke-linejoin="round"/><polyline fill="none" points="-41.004980038980825,108.939664638903 -38.50498003897978,108.2697916578269 -36.67485302005583,106.43966463890567 -36.004980038976015,103.93966463890563 -36.674853020052105,101.43966463890459 -38.504980038973336,99.60953761998064 -41.00498003897338,98.93966463890082 -43.50498003897442,99.60953761997692 -45.33510705789838,101.43966463889815 -46.00498003897819,103.9396646388982 -45.3351070579021,106.43966463889923 -43.504980038980875,108.26979165782319 -41.00498003898083,108.93966463890301" stroke="#00f" stroke-linecap="round" stroke-linejoin="round"/><polyline fill="none" points="-141.21566256884518,119.28182328700898 -138.71566256884412,118.61195030593288 -136.88553554992018,116.78182328701165 -136.21566256884037,114.2818232870116 -136.88553554991645,111.78182328701057 -138.71566256883767,109.95169626808661 -141.21566256883773,109.28182328700679 -143.71566256883878,109.95169626808287 -145.54578958776273,111.7818232870041 -146.21566256884253,114.28182328700414 -145.54578958776645,116.78182328700518 -143.71566256884523,118.61195030592914 -141.21566256884518,119.28182328700896" stroke="#ffa500" stroke-linecap="round" stroke-linejoin="round"/><polyline fill="none" points="25.438332655280412,81.27414329170239 27.938332655281457,80.6042703106263 29.768459674205413,78.77414329170507 30.43833265528523,76.27414329170503 29.768459674209144,73.77414329170398 27.93833265528792,71.94401627278002 25.438332655287873,71.2741432917002 22.93833265528683,71.94401627277628 21.10820563636287,73.77414329169751 20.43833265528305,76.27414329169756 21.108205636359138,78.7741432916986 22.938332655280362,80.60427031062257 25.438332655280405,81.27414329170239" stroke="#00f" stroke-linecap="round" stroke-linejoin="round"/><polyline fill="none" points="-98.90615736733045,0.10922138281808369 -96.4061573673294,-0.5606515982580017 -94.57603034840544,-2.390778617179227 -93.90615736732562,-4.890778617179272 -94.5760303484017,-7.390778617180318 -96.40615736732292,-9.220905636104277 -98.90615736732296,-9.890778617184099 -101.40615736732401,-9.220905636108014 -103.23628438624797,-7.39077861718679 -103.9061573673278,-4.890778617186745 -103.23628438625171,-2.390778617185699 -101.4061573673305,-0.5606515982617377 -98.90615736733045,0.10922138281808513" stroke="#ffa500" stroke-linecap="round" stroke-linejoin="round"/><polyline fill="none" points="-130.1741157138531,53.04368945511752 -127.67411571385205,52.37381647404144 -125.84398869492809,50.543689455120216 -125.17411571384827,48.04368945512017 -125.84398869492435,45.54368945511913 -127.67411571384557,43.71356243619517 -130.17411571384562,43.04368945511534 -132.67411571384667,43.713562436191424 -134.50424273277065,45.54368945511265 -135.17411571385048,48.04368945511269 -134.5042427327744,50.543689455113736 -132.67411571385318,52.373816474037696 -130.17411571385313,53.04368945511752" stroke="#ffa500" stroke-linecap="round" stroke-linejoin="round"/><polyline fill="none" points="-141.56790440595162,77.79427448180503 -139.06790440595057,77.12440150072895 -137.2377773870266,75.29427448180773 -136.56790440594676,72.79427448180769 -137.23777738702285,70.29427448180664 -139.06790440594406,68.46414746288268 -141.56790440594412,67.79427448180284 -144.06790440594517,68.46414746287893 -145.89803142486915,70.29427448180014 -146.56790440594898,72.79427448180019 -145.8980314248729,75.29427448180124 -144.06790440595168,77.1244015007252 -141.56790440595162,77.79427448180503" stroke="#ffa500" stroke-linecap="round" stroke-linejoin="round"/><polyline fill="none" points="-52.05366904959816,54.117728812132526 -49.55366904959711,53.44785583105645 -47.723542030673144,51.61772881213523 -47.05366904959332,49.11772881213519 -47.72354203066939,46.61772881213414 -49.55366904959061,44.78760179321017 -52.05366904959065,44.11772881213034 -54.553669049591704,44.78760179320641 -56.38379606851567,46.61772881212763 -57.053669049595506,49.11772881212767 -56.38379606851943,51.617728812128725 -54.55366904959821,53.44785583105269 -52.05366904959817,54.117728812132526" stroke="#008000" stroke-linecap="round" stroke-linejoin="round"/><polyline fill="none" points="-72.32548425924826,-26.709443279552474 -69.8254842592472,-27.37931626062855 -67.99535724032323,-29.209443279549767 -67.3254842592434,-31.70944327954981 -67.99535724031946,-34.20944327955086 -69.82548425924068,-36.03957029847483 -72.32548425924072,-36.70944327955466 -74.82548425924178,-36.03957029847859 -76.65561127816575,-34.20944327955737 -77.32548425924558,-31.709443279557323 -76.65561127816952,-29.20944327955627 -74.8254842592483,-27.3793162606323 -72.32548425924826,-26.709443279552467" stroke="#ffa500" stroke-linecap="round" stroke-linejoin="round"/><polyline fill="none" points="-76.72154895984927,0.31572874264298356 -74.22154895984822,-0.35414423843308895 -72.39142194092425,-2.1842712573543066 -71.72154895984441,-4.684271257354352 -72.39142194092048,-7.184271257355405 -74.2215489598417,-9.014398276279378 -76.72154895984174,-9.684271257359214 -79.22154895984279,-9.014398276283142 -81.05167597876677,-7.184271257361925 -81.7215489598466,-4.684271257361881 -81.05167597877053,-2.184271257360827 -79.22154895984931,-0.35414423843685294 -76.72154895984927,0.3157287426429848" stroke="#00f" stroke-linecap="round" stroke-linejoin="round"/><polyline fill="none" points="-15.79942400255748,-8.299066078400873 -13.299424002556425,-8.968939059476943 -11.46929698363245,-10.799066078398159 -10.799424002552612,-13.299066078398203 -11.469296983628682,-15.799066078399258 -13.299424002549898,-17.629193097323235 -15.799424002549943,-18.299066078403072 -18.299424002551,-17.629193097327004 -20.129551021474974,-15.799066078405788 -20.799424002554815,-13.299066078405744 -20.129551021478747,-10.799066078404689 -18.299424002557533,-8.968939059480713 -15.799424002557489,-8.299066078400871" stroke="#00f" stroke-linecap="round" stroke-linejoin="round"/><polyline fill="none" points="-41.82612485715428,-17.044615683704983 -39.32612485715322,-17.71448866478105 -37.49599783822924,-19.544615683702265 -36.8261248571494,-22.04461568370231 -37.49599783822547,-24.544615683703366 -39.32612485714669,-26.374742702627344 -41.82612485714673,-27.044615683707185 -44.32612485714779,-26.37474270263112 -46.15625187607177,-24.544615683709907 -46.82612485715161,-22.04461568370986 -46.156251876075544,-19.544615683708805 -44.32612485715433,-17.714488664784827 -41.82612485715429,-17.044615683704983" stroke="#00f" stroke-linecap="round" stroke-linejoin="round"/><polyline fill="none" points="-154.928272201647,27.546866927690434 -152.42827220164594,26.87699394661437 -150.59814518272196,25.046866927693156 -149.92827220164213,22.546866927693113 -150.59814518271818,20.046866927692058 -152.4282722016394,18.216739908768076 -154.92827220163946,17.54686692768823 -157.4282722016405,18.216739908764296 -159.25839922056448,20.046866927685507 -159.92827220164432,22.54686692768555 -159.25839922056826,25.046866927686608 -157.42827220164705,26.87699394661059 -154.928272201647,27.546866927690438" stroke="#ffa500" stroke-linecap="round" stroke-linejoin="round"/><polyline fill="none" points="-23.11378772413389,-10.846898971848002 -20.61378772413283,-11.516771952924064 -18.78366070520885,-13.346898971845274 -18.113787724129,-15.846898971845318 -18.78366070520506,-18.346898971846375 -20.613787724126272,-20.177025990770357 -23.113787724126315,-20.846898971850205 -25.613787724127373,-20.177025990774144 -27.44391474305136,-18.346898971852934 -28.113787724131207,-15.84689897185289 -27.443914743055146,-13.34689897185183 -25.613787724133935,-11.516771952927847 -23.113787724133893,-10.846898971847997" stroke="#008000" stroke-linecap="round" stroke-linejoin="round"/><polyline fill="none" points="-143.22482382552536,4.766402339247334 -140.7248238255243,4.096529358171274 -138.89469680660034,2.2664023392500647 -138.22482382552047,-0.23359766074997879 -138.89469680659653,-2.7335976607510384 -140.72482382551775,-4.5637246796750235 -143.2248238255178,-5.233597660754874 -145.72482382551885,-4.563724679678817 -147.55495084444283,-2.7335976607576082 -148.2248238255227,-0.23359766075756516 -147.55495084444664,2.266402339243495 -145.72482382552542,4.096529358167481 -143.22482382552536,4.766402339247333" stroke="#ffa500" stroke-linecap="round" stroke-linejoin="round"/><polyline fill="none" points="-125.150065397189,-40.365193987549496 -122.65006539718793,-41.03506696862555 -120.81993837826394,-42.86519398754676 -120.1500653971841,-45.3651939875468 -120.81993837826015,-47.86519398754786 -122.65006539718135,-49.69532100647185 -125.1500653971814,-50.365193987551706 -127.65006539718246,-49.69532100647565 -129.48019241610643,-47.86519398755444 -130.1500653971863,-45.3651939875544 -129.48019241611024,-42.86519398755334 -127.65006539718904,-41.03506696862935 -125.150065397189,-40.365193987549496" stroke="#ffa500" stroke-linecap="round" stroke-linejoin="round"/><polyline fill="none" points="-161.87108747651777,-7.989190809112449 -159.37108747651672,-8.659063790188505 -157.54096045759272,-10.489190809109711 -156.87108747651286,-12.989190809109754 -157.5409604575889,-15.489190809110816 -159.37108747651013,-17.319317828034805 -161.87108747651018,-17.98919080911466 -164.37108747651124,-17.319317828038606 -166.20121449543524,-15.489190809117401 -166.8710874765151,-12.989190809117359 -166.20121449543905,-10.489190809116298 -164.37108747651783,-8.659063790192308 -161.8710874765178,-7.989190809112451" stroke="#ffa500" stroke-linecap="round" stroke-linejoin="round"/><polyline fill="none" points="-123.50320492762677,-46.48333999235044 -121.0032049276257,-47.15321297342649 -119.17307790870171,-48.983339992347695 -118.50320492762185,-51.48333999234774 -119.1730779086979,-53.9833399923488 -121.00320492761911,-55.81346701127279 -123.50320492761915,-56.48333999235265 -126.00320492762022,-55.81346701127659 -127.8333319465442,-53.98333999235539 -128.50320492762407,-51.48333999235535 -127.83333194654801,-48.98333999235428 -126.00320492762681,-47.153212973430286 -123.50320492762677,-46.48333999235042" stroke="#ffa500" stroke-linecap="round" stroke-linejoin="round"/><polyline fill="none" points="-160.51884358359405,-47.69407772030917 -158.018843583593,-48.363950701385214 -156.188716564669,-50.19407772030642 -155.51884358358913,-52.69407772030646 -156.18871656466519,-55.194077720307526 -158.01884358358637,-57.02420473923152 -160.5188435835864,-57.694077720311384 -163.01884358358745,-57.02420473923534 -164.84897060251146,-55.194077720314134 -165.51884358359132,-52.69407772031409 -164.84897060251527,-50.194077720313025 -163.01884358359408,-48.36395070138903 -160.51884358359405,-47.69407772030917" stroke="#ffa500" stroke-linecap="round" stroke-linejoin="round"/><polyline fill="none" points="42.176773103108985,-14.418382981812861 44.67677310311005,-15.088255962888908 46.50690012203405,-16.91838298181011 47.17677310311391,-19.418382981810154 46.50690012203786,-21.91838298181122 44.67677310311666,-23.748510000735216 42.176773103116616,-24.418382981815082 39.67677310311555,-23.748510000739035 37.846646084191555,-21.918382981817835 37.17677310311169,-19.418382981817793 37.84664608418774,-16.918382981816727 39.67677310310894,-15.08825596289273 42.176773103108985,-14.418382981812863" stroke="#00f" stroke-linecap="round" stroke-linejoin="round"/><polyline fill="none" points="-12.488030966371676,-53.497446623969715 -9.98803096637061,-54.16731960504576 -8.157903947446613,-55.997446623966965 -7.488030966366747,-58.49744662396701 -8.15790394744279,-60.997446623968074 -9.98803096636399,-62.82757364289207 -12.488030966364033,-63.49744662397194 -14.988030966365098,-62.8275736428959 -16.818157985289098,-60.9974466239747 -17.488030966368967,-58.49744662397466 -16.818157985292924,-55.997446623973595 -14.988030966371724,-54.16731960504959 -12.488030966371682,-53.49744662396972" stroke="#00f" stroke-linecap="round" stroke-linejoin="round"/><polyline fill="none" points="-52.445012221019866,-39.40819658043096 -49.9450122210188,-40.078069561507 -48.1148852020948,-41.908196580428196 -47.44501222101493,-44.40819658042824 -48.11488520209097,-46.908196580429305 -49.94501222101216,-48.73832359935331 -52.445012221012206,-49.40819658043318 -54.94501222101327,-48.73832359935714 -56.775139239937275,-46.90819658043594 -57.445012221017144,-44.4081965804359 -56.775139239941105,-41.90819658043483 -54.94501222101991,-40.07806956151083 -52.445012221019866,-39.40819658043096" stroke="#00f" stroke-linecap="round" stroke-linejoin="round"/><polyline fill="none" points="-29.910988718803804,-65.42834588006221 -27.410988718802734,-66.09821886113825 -25.58086169987873,-67.92834588005945 -24.91098871879886,-70.4283458800595 -25.580861699874898,-72.92834588006056 -27.410988718796094,-74.75847289898456 -29.910988718796137,-75.42834588006444 -32.410988718797206,-74.7584728989884 -34.24111573772121,-72.9283458800672 -34.910988718801086,-70.42834588006716 -34.241115737725046,-67.92834588006609 -32.41098871880385,-66.09821886114209 -29.910988718803807,-65.42834588006221" stroke="#00f" stroke-linecap="round" stroke-linejoin="round"/><polyline fill="none" points="-107.07950221202898,-96.80657303034658 -104.57950221202792,-97.47644601142262 -102.74937519310392,-99.30657303034381 -102.07950221202404,-101.80657303034386 -102.74937519310008,-104.30657303034492 -104.57950221202127,-106.13670004926892 -107.07950221202131,-106.8065730303488 -109.57950221202238,-106.13670004927276 -111.40962923094638,-104.30657303035157 -112.07950221202626,-101.80657303035153 -111.40962923095022,-99.30657303035046 -109.57950221202903,-97.47644601142646 -107.07950221202898,-96.80657303034658" stroke="#ffa500" stroke-linecap="round" stroke-linejoin="round"/><polyline fill="none" points="-115.59694195743884,-73.06195818212946 -113.09694195743778,-73.7318311632055 -111.26681493851378,-75.56195818212669 -110.5969419574339,-78.06195818212673 -111.26681493850994,-80.5619581821278 -113.09694195743113,-82.3920852010518 -115.59694195743117,-83.06195818213168 -118.09694195743224,-82.39208520105564 -119.92706897635624,-80.56195818213445 -120.59694195743612,-78.0619581821344 -119.92706897636008,-75.56195818213334 -118.09694195743889,-73.73183116320934 -115.59694195743884,-73.06195818212946" stroke="#ffa500" stroke-linecap="round" stroke-linejoin="round"/><polyline fill="none" points="3.861744816342588,-35.19619811137499 6.361744816343662,-35.86607109245102 8.191871835267673,-37.69619811137222 8.861744816347553,-40.19619811137226 8.19187183527152,-42.696198111373334 6.361744816350327,-44.526325130297344 3.8617448163502837,-45.19619811137723 1.3617448163492094,-44.526325130301196 -0.4683822025748019,-42.69619811138 -1.1382551836546835,-40.19619811137996 -0.4683822025786526,-37.696198111378884 1.3617448163425399,-35.866071092454874 3.861744816342582,-35.19619811137499" stroke="#00f" stroke-linecap="round" stroke-linejoin="round"/><polyline fill="none" points="-41.80463767479003,-14.02339391825437 -39.30463767478896,-14.693266899330402 -37.47451065586495,-16.523393918251593 -36.80463767478506,-19.023393918251635 -37.474510655861096,-21.523393918252708 -39.304637674782285,-23.35352093717672 -41.80463767478233,-24.023393918256605 -44.3046376747834,-23.353520937180576 -46.13476469370741,-21.523393918259384 -46.804637674787294,-19.02339391825934 -46.13476469371127,-16.523393918258265 -44.30463767479008,-14.693266899334251 -41.80463767479004,-14.023393918254367" stroke="#008000" stroke-linecap="round" stroke-linejoin="round"/><polyline fill="none" points="-80.83417093132383,-115.70756647631599 -78.33417093132275,-116.37743945739201 -76.50404391239873,-118.2075664763132 -75.83417093131884,-120.70756647631325 -76.50404391239486,-123.20756647631433 -78.33417093131605,-125.03769349523834 -80.8341709313161,-125.70756647631823 -83.33417093131717,-125.03769349524221 -85.16429795024119,-123.20756647632102 -85.83417093132108,-120.70756647632098 -85.16429795024506,-118.2075664763199 -83.33417093132387,-116.37743945739588 -80.83417093132383,-115.70756647631599" stroke="#ffa500" stroke-linecap="round" stroke-linejoin="round"/><polyline fill="none" points="-67.1729420732986,-134.36042754530587 -64.67294207329752,-135.0303005263819 -62.8428150543735,-136.86042754530308 -62.17294207329361,-139.36042754530314 -62.84281505436964,-141.86042754530422 -64.67294207329083,-143.69055456422825 -67.17294207329087,-144.36042754530814 -69.67294207329195,-143.69055456423212 -71.50306909221597,-141.86042754531093 -72.17294207329586,-139.36042754531087 -71.50306909221983,-136.8604275453098 -69.67294207329864,-135.03030052638576 -67.1729420732986,-134.36042754530587" stroke="#ffa500" stroke-linecap="round" stroke-linejoin="round"/><polyline fill="none" points="-59.82424473160771,-12.963576917475553 -57.32424473160663,-13.633449898551577 -55.494117712682616,-15.463576917472766 -54.824244731602725,-17.96357691747281 -55.49411771267875,-20.46357691747389 -57.32424473159994,-22.29370393639791 -59.82424473159998,-22.963576917477802 -62.32424473160106,-22.29370393640178 -64.15437175052509,-20.463576917480594 -64.82424473160498,-17.96357691748055 -64.15437175052895,-15.463576917479472 -62.32424473160776,-13.633449898555451 -59.82424473160772,-12.963576917475558" stroke="#00f" stroke-linecap="round" stroke-linejoin="round"/><polyline fill="none" points="3.2960448927300465,-41.51750509002742 5.7960448927311266,-42.18737807110344 7.626171911655149,-44.01750509002463 8.296044892735043,-46.51750509002467 7.626171911659023,-49.01750509002575 5.796044892737838,-50.847632108949774 3.296044892737795,-51.51750509002967 0.7960448927367141,-50.847632108953654 -1.0340821261873092,-49.017505090032465 -1.7039551072672048,-46.51750509003242 -1.0340821261911857,-44.01750509003134 0.7960448927299999,-42.18737807110732 3.296044892730042,-41.51750509002742" stroke="#00f" stroke-linecap="round" stroke-linejoin="round"/><polyline fill="none" points="-63.63350764025805,-134.60544419548705 -61.13350764025697,-135.27531717656308 -59.30338062133295,-137.10544419548427 -58.63350764025305,-139.60544419548432 -59.30338062132907,-142.1054441954854 -61.13350764025025,-143.93557121440944 -63.63350764025029,-144.60544419548933 -66.13350764025138,-143.9355712144133 -67.96363465917541,-142.1054441954921 -68.63350764025532,-139.60544419549205 -67.9636346591793,-137.10544419549097 -66.13350764025812,-135.27531717656694 -63.633507640258074,-134.60544419548705" stroke="#ffa500" stroke-linecap="round" stroke-linejoin="round"/><polyline fill="none" points="-60.26472445415074,-114.25526786136504 -57.76472445414966,-114.92514084244105 -55.93459743522563,-116.75526786136224 -55.264724454145735,-119.25526786136228 -55.934597435221754,-121.75526786136336 -57.764724454142936,-123.5853948802874 -60.26472445414298,-124.2552678613673 -62.76472445414406,-123.58539488029129 -64.59485147306809,-121.7552678613701 -65.264724454148,-119.25526786137006 -64.59485147307198,-116.75526786136898 -62.7647244541508,-114.92514084244495 -60.26472445415076,-114.25526786136504" stroke="#ffa500" stroke-linecap="round" stroke-linejoin="round"/><polyline fill="none" points="-38.04891545424477,2.9523919442313784 -35.548915454243684,2.282518963155365 -33.71878843531965,0.4523919442341826 -33.04891545423975,-2.04760805576586 -33.71878843531576,-4.547608055766944 -35.54891545423694,-6.377735074690974 -38.04891545423698,-7.047608055770877 -40.54891545423807,-6.377735074694865 -42.3790424731621,-4.547608055773683 -43.04891545424201,-2.0476080557736402 -42.379042473165995,0.4523919442274451 -40.54891545424481,2.282518963151476 -38.04891545424477,2.95239194423138" stroke="#008000" stroke-linecap="round" stroke-linejoin="round"/><polyline fill="none" points="-53.81382316079928,-132.93210170533104 -51.313823160798194,-133.60197468640706 -49.48369614187416,-135.43210170532825 -48.81382316079426,-137.9321017053283 -49.48369614187027,-140.4321017053294 -51.31382316079145,-142.26222872425342 -53.81382316079149,-142.93210170533334 -56.31382316079258,-142.26222872425734 -58.14395017971661,-140.43210170533615 -58.81382316079652,-137.9321017053361 -58.143950179720505,-135.43210170533501 -56.31382316079932,-133.60197468641098 -53.81382316079928,-132.93210170533106" stroke="#ffa500" stroke-linecap="round" stroke-linejoin="round"/><polyline fill="none" points="-66.5300832194814,-140.00436173929572 -64.0300832194803,-140.67423472037171 -62.19995620055627,-142.5043617392929 -61.53008321947637,-145.00436173929296 -62.19995620055238,-147.50436173929404 -64.03008321947355,-149.33448875821807 -66.5300832194736,-150.004361739298 -69.03008321947469,-149.334488758222 -70.86021023839872,-147.5043617393008 -71.53008321947863,-145.00436173930075 -70.86021023840262,-142.50436173929967 -69.03008321948144,-140.67423472037564 -66.5300832194814,-140.00436173929572" stroke="#ffa500" stroke-linecap="round" stroke-linejoin="round"/><polyline fill="none" points="-30.703470596413087,15.669548387540058 -28.203470596411996,14.999675406464052 -26.373343577487958,13.169548387542873 -25.703470596408046,10.66954838754283 -26.37334357748405,8.169548387541742 -28.20347059640523,6.339421368617705 -30.70347059640527,5.669548387537794 -33.20347059640636,6.339421368613799 -35.0335976153304,8.169548387534975 -35.70347059641031,10.669548387535018 -35.03359761533431,13.169548387536107 -33.20347059641313,14.999675406460145 -30.70347059641309,15.669548387540058" stroke="#00f" stroke-linecap="round" stroke-linejoin="round"/><polyline fill="none" points="-33.70465705217922,-122.04762918930054 -31.20465705217813,-122.71750217037653 -29.374530033254093,-124.54762918929771 -28.70465705217418,-127.04762918929775 -29.374530033250185,-129.54762918929885 -31.20465705217136,-131.37775620822288 -33.7046570521714,-132.0476291893028 -36.204657052172486,-131.3777562082268 -38.034784071096524,-129.5476291893056 -38.70465705217644,-127.04762918930557 -38.03478407110043,-124.54762918930447 -36.20465705217926,-122.71750217038043 -33.704657052179215,-122.04762918930051" stroke="#ffa500" stroke-linecap="round" stroke-linejoin="round"/><polyline fill="none" points="-26.822280564206043,-127.0846206559896 -24.322280564204952,-127.7544936370656 -22.49215354528091,-129.58462065598678 -21.822280564200994,-132.0846206559868 -22.492153545276995,-134.5846206559879 -24.32228056419817,-136.41474767491192 -26.822280564198213,-137.08462065599184 -29.322280564199303,-136.41474767491584 -31.152407583123345,-134.58462065599468 -31.822280564203265,-132.08462065599466 -31.152407583127264,-129.58462065599358 -29.32228056420609,-127.75449363706953 -26.822280564206046,-127.08462065598961" stroke="#ffa500" stroke-linecap="round" stroke-linejoin="round"/></svg>