<?xml version="1.0" ?><!DOCTYPE svg  PUBLIC '-//W3C//DTD SVG 1.1//EN'  'http://www.w3.org/Graphics/SVG/1.1/DTD/svg11.dtd'><svg height="383.000" viewBox="-258.000 -191.000 453.000 383.000" width="453.000" xmlns="http://www.w3.org/2000/svg"><line fill="none" stroke="none" stroke-linecap="round" stroke-width="2.0" x1="0.0" x2="0.0" y1="0.0" y2="0.0"/><polygon fill="none" fill-rule="evenodd" points="0.0,0.0 0.0,0.0 0.0,0.0" stroke-linejoin="round"/><polyline fill="none" points="19.6849798569256,70.78903582831761 22.184979856936767,70.1191628472584 24.015106875877926,68.28903582834671 24.684979856977414,65.78903582834633 24.015106875918192,63.28903582833516 22.184979857006514,61.458908809394 19.684979857006137,60.789035828294516 17.18497985699497,61.45890880935374 15.354852838053812,63.28903582826542 14.684979856954325,65.7890358282658 15.354852838013542,68.28903582827697 17.18497985692522,70.11916284721812 19.684979856925597,70.78903582831761" stroke="#ffa500" stroke-linecap="round" stroke-linejoin="round"/><polyline fill="none" points="43.0560480224042,26.809985524043526 45.55604802241537,26.14011254298431 47.38617504135653,24.30998552407263 48.05604802245602,21.809985524072253 47.386175041396804,19.309985524061084 45.55604802248513,17.479858505119925 43.05604802248475,16.809985524020433 40.55604802247358,17.47985850507965 38.72592100353242,19.30998552399133 38.05604802243293,21.809985523991706 38.72592100349215,24.309985524002876 40.55604802240382,26.14011254294404 43.0560480224042,26.80998552404353" stroke="#ffa500" stroke-linecap="round" stroke-linejoin="round"/><polyline fill="none" points="70.54912120450165,-37.373440761968105 73.04912120451282,-38.04331374302732 74.87924822345397,-39.873440761938994 75.54912120455346,-42.37344076193937 74.87924822349424,-44.87344076195054 73.04912120458256,-46.7035677808917 70.54912120458218,-47.3734407619912 68.04912120457101,-46.703567780931984 66.21899418562984,-44.87344076202031 65.54912120453035,-42.37344076201993 66.21899418558957,-39.87344076200876 68.04912120450125,-38.0433137430676 70.54912120450163,-37.373440761968105" stroke="#ffa500" stroke-linecap="round" stroke-linejoin="round"/><polyline fill="none" points="-86.58471655571127,-76.27644489339065 -84.0847165557001,-76.94631787444986 -82.25458953675893,-78.77644489336154 -81.58471655565944,-81.27644489336193 -82.25458953671865,-83.7764448933731 -84.08471655563034,-85.60657191231427 -86.58471655563072,-86.27644489341377 -89.08471655564189,-85.60657191235455 -90.91484357458306,-83.77644489344287 -91.58471655568256,-81.27644489344249 -90.91484357462335,-78.77644489343132 -89.08471655571167,-76.94631787449015 -86.58471655571128,-76.27644489339065" stroke="#ffa500" stroke-linecap="round" stroke-linejoin="round"/><polyline fill="none" points="-108.0640437308755,24.434418544085016 -105.56404373086433,23.764545563025806 -103.73391671192316,21.93441854411413 -103.06404373082366,19.434418544113754 -103.73391671188287,16.93441854410258 -105.56404373079454,15.104291525161415 -108.06404373079492,14.434418544061916 -110.56404373080609,15.104291525121127 -112.39417074974726,16.934418544032802 -113.06404373084676,19.43441854403318 -112.39417074978755,21.93441854404435 -110.56404373087588,23.764545562985518 -108.0640437308755,24.434418544085016" stroke="#00f" stroke-linecap="round" stroke-linejoin="round"/><polyline fill="none" points="-236.1065047352652,-37.862771446011344 -233.60650473525402,-38.53264442707055 -231.77637771631285,-40.362771445982226 -231.10650473521335,-42.8627714459826 -231.77637771627255,-45.36277144599377 -233.60650473518422,-47.19289846493494 -236.1065047351846,-47.862771446034444 -238.60650473519576,-47.19289846497524 -240.43663175413693,-45.36277144606356 -241.10650473523643,-42.862771446063185 -240.43663175417723,-40.36277144605201 -238.60650473526556,-38.53264442711084 -236.1065047352652,-37.86277144601134" stroke="#00f" stroke-linecap="round" stroke-linejoin="round"/><polyline fill="none" points="169.21298637993957,-90.42475853494844 171.71298637995073,-91.09463151600764 173.5431133988919,-92.9247585349193 174.2129863799914,-95.42475853491969 173.5431133989322,-97.92475853493086 171.71298638002054,-99.75488555387203 169.21298638002017,-100.42475853497153 166.712986380009,-99.75488555391233 164.88285936106783,-97.92475853500066 164.21298637996833,-95.42475853500028 164.88285936102753,-92.92475853498911 166.7129863799392,-91.09463151604794 169.21298637993957,-90.42475853494844" stroke="#ffa500" stroke-linecap="round" stroke-linejoin="round"/><polyline fill="none" points="68.78903539666366,-170.12709210348874 71.28903539667483,-170.79696508454794 73.119162415616,-172.6270921034596 73.7890353967155,-175.12709210345997 73.1191624156563,-177.62709210347114 71.28903539674464,-179.4572191224123 68.78903539674425,-180.1270921035118 66.28903539673308,-179.4572191224526 64.45890837779191,-177.62709210354095 63.789035396692405,-175.12709210354058 64.45890837775161,-172.6270921035294 66.28903539666328,-170.79696508458824 68.78903539666366,-170.12709210348874" stroke="#ffa500" stroke-linecap="round" stroke-linejoin="round"/><polyline fill="none" points="-239.63620827811224,-44.8750677404593 -237.13620827810107,-45.5449407215185 -235.3060812591599,-47.37506774043017 -234.6362082780604,-49.875067740430545 -235.3060812591196,-52.37506774044172 -237.13620827803126,-54.2051947593829 -239.63620827803163,-54.87506774048241 -242.1362082780428,-54.20519475942321 -243.96633529698397,-52.37506774051154 -244.63620827808347,-49.87506774051116 -243.96633529702427,-47.375067740499986 -242.1362082781126,-45.54494072155881 -239.63620827811224,-44.8750677404593" stroke="#00f" stroke-linecap="round" stroke-linejoin="round"/><polyline fill="none" points="-137.5425846772538,81.32809260346352 -135.04258467724264,80.65821962240432 -133.21245765830147,78.82809260349265 -132.54258467720197,76.32809260349227 -133.21245765826117,73.82809260348108 -135.04258467717284,71.9979655845399 -137.5425846771732,71.32809260344038 -140.04258467718438,71.99796558449958 -141.87271169612555,73.82809260341125 -142.54258467722505,76.32809260341163 -141.87271169616585,78.82809260342282 -140.04258467725418,80.658219622364 -137.5425846772538,81.32809260346352" stroke="#00f" stroke-linecap="round" stroke-linejoin="round"/><polyline fill="none" points="113.32115363846056,147.16708972180498 115.82115363847174,146.49721674074578 117.65128065741293,144.66708972183412 118.32115363851244,142.16708972183375 117.65128065745324,139.66708972182258 115.82115363854157,137.8369627028814 113.32115363854119,137.1670897217819 110.82115363853,137.8369627028411 108.99102661958882,139.66708972175277 108.3211536384893,142.16708972175314 108.9910266195485,144.6670897217643 110.82115363846017,146.49721674070548 113.32115363846056,147.16708972180498" stroke="#ffa500" stroke-linecap="round" stroke-linejoin="round"/><polyline fill="none" points="106.8876288340599,56.19163412244402 109.38762883407108,55.52176114138483 111.21775585301226,53.69163412247316 111.88762883411178,51.191634122472784 111.21775585305258,48.6916341224616 109.38762883414091,46.86150710352042 106.88762883414053,46.1916341224209 104.38762883412934,46.86150710348009 102.55750181518816,48.69163412239176 101.88762883408864,51.19163412239214 102.55750181514784,53.69163412240332 104.38762883405951,55.521761141344506 106.8876288340599,56.19163412244402" stroke="#ffa500" stroke-linecap="round" stroke-linejoin="round"/><polyline fill="none" points="136.55338838802103,-123.49594040818644 139.0533883880322,-124.16581338924563 140.8835154069734,-125.9959404081573 141.55338838807293,-128.49594040815768 140.88351540701373,-130.99594040816885 139.05338838810206,-132.82606742711005 136.5533883881017,-133.49594040820958 134.05338838809053,-132.82606742715038 132.22326136914933,-130.9959404082387 131.5533883880498,-128.49594040823834 132.223261369109,-125.99594040822716 134.05338838802066,-124.16581338928597 136.55338838802103,-123.49594040818646" stroke="#ffa500" stroke-linecap="round" stroke-linejoin="round"/><polyline fill="none" points="-60.77445460917485,-53.282507363961535 -58.27445460916367,-53.95238034502073 -56.444327590222485,-55.78250736393239 -55.77445460912296,-58.282507363932766 -56.444327590182155,-60.78250736394395 -58.274454609093816,-62.61263438288514 -60.77445460909419,-63.282507363984664 -63.274454609105376,-62.61263438292548 -65.10458162804656,-60.78250736401382 -65.77445460914609,-58.28250736401344 -65.1045816280869,-55.78250736400226 -63.274454609175244,-53.952380345061066 -60.77445460917487,-53.28250736396154" stroke="#00f" stroke-linecap="round" stroke-linejoin="round"/><polyline fill="none" points="-15.795616221863344,180.2240738808456 -13.29561622185216,179.5542008997864 -11.465489202910971,177.72407388087473 -10.795616221811446,175.22407388087436 -11.465489202870634,172.72407388086316 -13.295616221782295,170.89394686192196 -15.795616221782671,170.22407388082243 -18.295616221793857,170.89394686188163 -20.125743240735048,172.7240738807933 -20.795616221834575,175.22407388079367 -20.12574324077539,177.72407388080487 -18.295616221863728,179.55420089974606 -15.795616221863352,180.2240738808456" stroke="#ffa500" stroke-linecap="round" stroke-linejoin="round"/><polyline fill="none" points="147.78558969829464,-58.81039040921284 150.28558969830584,-59.48026339027203 152.11571671724704,-61.31039040918369 152.78558969834657,-63.810390409184066 152.1157167172874,-66.31039040919525 150.28558969837573,-68.14051742813645 147.78558969837536,-68.81039040923598 145.28558969836416,-68.14051742817679 143.45546267942296,-66.31039040926514 142.78558969832343,-63.81039040926476 143.4554626793826,-61.31039040925357 145.28558969829427,-59.48026339031238 147.78558969829464,-58.81039040921285" stroke="#ffa500" stroke-linecap="round" stroke-linejoin="round"/><polyline fill="none" points="-172.89138945790992,-2.6809643799784926 -170.39138945789873,-3.350837361037675 -168.56126243895753,-5.180964379949334 -167.891389457858,-7.68096437994971 -168.56126243891717,-10.180964379960898 -170.39138945782884,-12.011091398902092 -172.8913894578292,-12.680964380001623 -175.3913894578404,-12.01109139894244 -177.2215164767816,-10.180964380030783 -177.89138945788113,-7.680964380030407 -177.22151647682196,-5.180964380019217 -175.3913894579103,-3.350837361078021 -172.89138945790992,-2.680964379978489" stroke="#008000" stroke-linecap="round" stroke-linejoin="round"/><polyline fill="none" points="52.46687904170399,1.1201509018641764 54.96687904171518,0.45027792080499607 56.79700606065638,-1.379849098106661 57.46687904175591,-3.879849098107038 56.79700606069673,-6.379849098118228 54.96687904178508,-8.209976117059426 52.4668790417847,-8.87984909815896 49.96687904177351,-8.209976117099782 48.13675202283231,-6.379849098188125 47.466879041732774,-3.8798490981877483 48.13675202279195,-1.379849098176558 49.966879041703606,0.45027792076464057 52.46687904170398,1.1201509018641755" stroke="#ffa500" stroke-linecap="round" stroke-linejoin="round"/><polyline fill="none" points="-191.10351317097556,-48.172015762832345 -188.60351317096436,-48.84188874389152 -186.77338615202316,-50.67201576280318 -186.10351317092363,-53.172015762803554 -186.7733861519828,-55.672015762814745 -188.60351317089447,-57.50214278175594 -191.10351317089484,-58.17201576285548 -193.60351317090604,-57.5021427817963 -195.43364018984724,-55.67201576288465 -196.10351317094677,-53.17201576288427 -195.4336401898876,-50.67201576287308 -193.60351317097593,-48.84188874393188 -191.10351317097556,-48.172015762832345" stroke="#00f" stroke-linecap="round" stroke-linejoin="round"/><polyline fill="none" points="56.76336864131039,-141.63790592970062 59.263368641321584,-142.3077789107598 61.09349566026278,-144.13790592967146 61.76336864136232,-146.63790592967183 61.09349566030314,-149.13790592968303 59.26336864139149,-150.96803294862423 56.76336864139111,-151.63790592972376 54.26336864137992,-150.9680329486646 52.433241622438715,-149.13790592975292 51.76336864133918,-146.63790592975255 52.43324162239835,-144.13790592974135 54.26336864131,-142.30777891080015 56.76336864131038,-141.63790592970062" stroke="#00f" stroke-linecap="round" stroke-linejoin="round"/><polyline fill="none" points="129.76155370219348,-26.677391858885812 132.26155370220468,-27.347264839944987 134.09168072114588,-29.17739185885664 134.7615537022454,-31.677391858857018 134.09168072118624,-34.17739185886821 132.2615537022746,-36.00751887780942 129.76155370227423,-36.67739185890896 127.26155370226303,-36.00751887784979 125.43142668332183,-34.17739185893814 124.76155370222229,-31.67739185893776 125.43142668328146,-29.177391858926566 127.26155370219311,-27.34726483998536 129.76155370219348,-26.67739185888582" stroke="#ffa500" stroke-linecap="round" stroke-linejoin="round"/><polyline fill="none" points="-47.40887952141306,57.79756312563753 -44.90887952140187,57.12769014457836 -43.07875250246067,55.297563125666706 -42.40887952136112,52.79756312566633 -43.07875250242029,50.29756312565514 -44.90887952133195,48.46743610671393 -47.408879521332324,47.79756312561439 -49.90887952134352,48.46743610667356 -51.73900654028473,50.297563125585214 -52.40887952138427,52.79756312558559 -51.7390065403251,55.29756312559679 -49.908879521413446,57.12769014453799 -47.40887952141307,57.79756312563754" stroke="#ffa500" stroke-linecap="round" stroke-linejoin="round"/><polyline fill="none" points="102.5258177044065,-130.7335860924874 105.0258177044177,-131.40345907354657 106.85594472335892,-133.2335860924582 107.52581770445846,-135.73358609245858 106.85594472339929,-138.23358609246978 105.02581770448764,-140.06371311141098 102.52581770448725,-140.73358609251054 100.02581770447605,-140.06371311145136 98.19569068553484,-138.23358609253972 97.5258177044353,-135.73358609253935 98.19569068549447,-133.23358609252816 100.02581770440612,-131.40345907358696 102.5258177044065,-130.7335860924874" stroke="#ffa500" stroke-linecap="round" stroke-linejoin="round"/><polyline fill="none" points="-78.46342764900776,85.4515182923655 -75.96342764899656,84.78164531130633 -74.13330063005534,82.95151829239468 -73.4634276489558,80.4515182923943 -74.13330063001497,77.9515182923831 -75.96342764892663,76.12139127344189 -78.46342764892701,75.45151829234234 -80.96342764893821,76.12139127340151 -82.79355466787942,77.95151829231317 -83.46342764897896,80.45151829231355 -82.79355466791979,82.95151829232475 -80.96342764900814,84.78164531126596 -78.46342764900776,85.4515182923655" stroke="#00f" stroke-linecap="round" stroke-linejoin="round"/><polyline fill="none" points="106.71796728791749,-57.75573841822973 109.21796728792869,-58.4256113992889 111.0480943068699,-60.25573841820054 111.71796728796944,-62.75573841820092 111.04809430691027,-65.25573841821212 109.21796728799862,-67.08586543715333 106.71796728799825,-67.75573841825288 104.21796728798705,-67.08586543719372 102.38784026904584,-65.25573841828206 101.71796728794628,-62.75573841828169 102.38784026900544,-60.25573841827049 104.21796728791709,-58.42561139932928 106.71796728791747,-57.755738418229726" stroke="#00f" stroke-linecap="round" stroke-linejoin="round"/><polyline fill="none" points="157.5218417472736,-90.1000288124523 160.0218417472848,-90.76990179351145 161.85196876622604,-92.6000288124231 162.5218417473256,-95.10002881242349 161.85196876626642,-97.60002881243469 160.02184174735478,-99.4301558313759 157.52184174735442,-100.10002881247546 155.02184174734322,-99.4301558314163 153.191714728402,-97.60002881250466 152.52184174730243,-95.10002881250428 153.1917147283616,-92.60002881249308 155.02184174727324,-90.76990179355187 157.5218417472736,-90.10002881245231" stroke="#00f" stroke-linecap="round" stroke-linejoin="round"/><polyline fill="none" points="94.80305044974968,63.69917265983798 97.30305044976087,63.02929967877882 99.13317746870209,61.19917265986717 99.80305044980165,58.6991726598668 99.13317746874249,56.1991726598556 97.30305044983085,54.36904564091438 94.80305044983047,53.69917265981482 92.30305044981927,54.36904564087398 90.47292343087805,56.199172659785624 89.8030504497785,58.699172659786 90.47292343083765,61.1991726597972 92.30305044974929,63.02929967873842 94.80305044974968,63.69917265983798" stroke="#ffa500" stroke-linecap="round" stroke-linejoin="round"/><polyline fill="none" points="108.99023939647796,21.47014651544832 111.49023939648916,20.800273534389163 113.32036641543039,18.97014651547752 113.99023939652994,16.470146515477143 113.32036641547079,13.970146515465942 111.49023939655915,12.140019496524722 108.99023939655876,11.470146515425164 106.49023939654757,12.14001949648432 104.66011237760634,13.970146515395964 103.99023939650678,16.47014651539634 104.66011237756594,18.970146515407542 106.49023939647758,20.80027353434876 108.99023939647796,21.470146515448324" stroke="#ffa500" stroke-linecap="round" stroke-linejoin="round"/><polyline fill="none" points="-29.643768467307773,-70.34876679628834 -27.143768467296567,-71.0186397773475 -25.313641448355344,-72.84876679625914 -24.643768467255782,-75.34876679625953 -25.313641448314936,-77.84876679627072 -27.14376846722658,-79.67889381521195 -29.643768467226955,-80.34876679631151 -32.14376846723816,-79.67889381525235 -33.97389548617938,-77.84876679634071 -34.643768467278946,-75.34876679634033 -33.97389548621979,-72.84876679632913 -32.14376846730815,-71.0186397773879 -29.643768467307773,-70.34876679628834" stroke="#ffa500" stroke-linecap="round" stroke-linejoin="round"/><polyline fill="none" points="-52.722413567350166,34.62834398385438 -50.22241356733896,33.95847100279523 -48.392286548397735,32.12834398388359 -47.72241356729817,29.628343983883212 -48.39228654835732,27.128343983872007 -50.22241356726896,25.298216964930784 -52.722413567269335,24.62834398383122 -55.22241356728054,25.298216964890372 -57.05254058622177,27.12834398380201 -57.72241356732133,29.628343983802388 -57.05254058626218,32.12834398381359 -55.22241356735054,33.95847100275482 -52.722413567350166,34.628343983854386" stroke="#ffa500" stroke-linecap="round" stroke-linejoin="round"/><polyline fill="none" points="-153.17159172629243,29.47121491580472 -150.67159172628124,28.80134193474557 -148.84146470734,26.97121491583393 -148.17159172624045,24.471214915833553 -148.8414647072996,21.971214915822348 -150.67159172621123,20.14108789688112 -153.1715917262116,19.471214915781555 -155.6715917262228,20.141087896840705 -157.50171874516403,21.971214915752345 -158.17159172626359,24.47121491575272 -157.50171874520444,26.97121491576393 -155.6715917262928,28.801341934705157 -153.17159172629243,29.471214915804726" stroke="#ffa500" stroke-linecap="round" stroke-linejoin="round"/><polyline fill="none" points="-10.768728221146993,-76.37849295498143 -8.268728221135786,-77.04836593604057 -6.438601202194558,-78.87849295495221 -5.76872822109499,-81.37849295495259 -6.438601202154139,-83.8784929549638 -8.268728221065778,-85.70861997390503 -10.768728221066155,-86.3784929550046 -13.268728221077364,-85.70861997394546 -15.098855240018594,-83.87849295503382 -15.768728221118163,-81.37849295503344 -15.098855240059015,-78.87849295502222 -13.268728221147377,-77.048365936081 -10.768728221147,-76.37849295498143" stroke="#00f" stroke-linecap="round" stroke-linejoin="round"/><polyline fill="none" points="-224.98287018991303,-20.548086867915064 -222.48287018990183,-21.21795984897421 -220.6527431709606,-23.048086867885846 -219.98287018986105,-25.548086867886223 -220.6527431709202,-28.04808686789743 -222.48287018983183,-29.87821388683866 -224.9828701898322,-30.548086867938235 -227.4828701898434,-29.878213886879088 -229.31299720878462,-28.048086867967452 -229.98287018988418,-25.548086867967076 -229.31299720882504,-23.048086867955867 -227.4828701899134,-21.217959849014633 -224.98287018991303,-20.54808686791506" stroke="#ffa500" stroke-linecap="round" stroke-linejoin="round"/><polyline fill="none" points="-190.15818282172575,103.52599173862319 -187.65818282171455,102.85611875756405 -185.82805580277332,101.02599173865241 -185.15818282167373,98.52599173865202 -185.82805580273288,96.02599173864081 -187.65818282164452,94.19586471969959 -190.15818282164489,93.52599173860001 -192.65818282165608,94.19586471965916 -194.4883098405973,96.0259917385708 -195.1581828216969,98.52599173857118 -194.48830984063775,101.02599173858239 -192.65818282172611,102.85611875752363 -190.15818282172575,103.5259917386232" stroke="#ffa500" stroke-linecap="round" stroke-linejoin="round"/><polyline fill="none" points="164.01074836300128,125.75735243428554 166.51074836301248,125.0874794532264 168.3408753819537,123.25735243431475 169.0107483630533,120.75735243431437 168.34087538199415,118.25735243430316 166.5107483630825,116.42722541536192 164.01074836308214,115.75735243426234 161.51074836307095,116.42722541532149 159.68062134412972,118.25735243423313 159.01074836303013,120.75735243423351 159.68062134408927,123.25735243424472 161.5107483630009,125.08747945318596 164.01074836300128,125.75735243428554" stroke="#ffa500" stroke-linecap="round" stroke-linejoin="round"/><polyline fill="none" points="-178.32412965669414,20.77621530847457 -175.82412965668294,20.10634232741543 -173.99400263774172,18.276215308503797 -173.32412965664213,15.77621530850342 -173.99400263770127,13.276215308492208 -175.8241296566129,11.446088289550971 -178.32412965661328,10.776215308451391 -180.8241296566245,11.44608828951053 -182.65425667556573,13.276215308422163 -183.32412965666532,15.77621530842254 -182.65425667560618,18.276215308433752 -180.82412965669454,20.10634232737499 -178.32412965669417,20.77621530847457" stroke="#f00" stroke-linecap="round" stroke-linejoin="round"/><polyline fill="none" points="101.9270757046952,-143.24313870863318 104.42707570470641,-143.91301168969233 106.25720272364765,-145.74313870860396 106.92707570474724,-148.24313870860433 106.2572027236881,-150.74313870861556 104.42707570477647,-152.5732657275568 101.92707570477609,-153.24313870865637 99.42707570476487,-152.57326572759723 97.59694868582363,-150.7431387086856 96.92707570472405,-148.24313870868522 97.59694868578319,-145.743138708674 99.42707570469481,-143.91301168973274 101.9270757046952,-143.24313870863315" stroke="#ffa500" stroke-linecap="round" stroke-linejoin="round"/><polyline fill="none" points="134.493782858821,-103.579248479583 136.99378285883222,-104.24912146064213 138.82390987777347,-106.07924847955375 139.49378285887306,-108.57924847955414 138.82390987781392,-111.07924847956535 136.99378285890228,-112.90937549850659 134.4937828589019,-113.57924847960618 131.99378285889068,-112.90937549854705 130.16365583994943,-111.07924847963542 129.49378285884984,-108.57924847963504 130.16365583990898,-106.07924847962383 131.99378285882062,-104.24912146068259 134.493782858821,-103.579248479583" stroke="#ffa500" stroke-linecap="round" stroke-linejoin="round"/><polyline fill="none" points="177.65727393443564,-63.521728598199886 180.15727393444686,-64.19160157925901 181.98740095338812,-66.02172859817064 182.6572739344877,-68.52172859817102 181.98740095342856,-71.02172859818224 180.15727393451692,-72.85185561712348 177.65727393451655,-73.52172859822306 175.15727393450533,-72.85185561716393 173.32714691556407,-71.02172859825231 172.65727393446448,-68.52172859825193 173.32714691552363,-66.02172859824071 175.15727393443527,-64.19160157929947 177.65727393443564,-63.521728598199886" stroke="#ffa500" stroke-linecap="round" stroke-linejoin="round"/><polyline fill="none" points="-159.04731952897112,29.167681244736347 -156.5473195289599,28.497808263677214 -154.71719251001863,26.667681244765586 -154.04731952891905,24.16768124476521 -154.7171925099782,21.66768124475399 -156.54731952888983,19.83755422581274 -159.0473195288902,19.16768124471315 -161.54731952890143,19.83755422577228 -163.37744654784268,21.66768124468391 -164.04731952894227,24.167681244684285 -163.37744654788315,26.667681244695505 -161.5473195289715,28.497808263636752 -159.04731952897114,29.167681244736343" stroke="#00f" stroke-linecap="round" stroke-linejoin="round"/><polyline fill="none" points="53.94461786463087,-120.27362775003161 56.44461786464209,-120.94350073109074 58.27474488358334,-122.77362775000236 58.94461786468293,-125.27362775000273 58.274744883623804,-127.77362775001396 56.44461786471218,-129.6037547689552 53.9446178647118,-130.2736277500548 51.44461786470058,-129.60375476899569 49.614490845759335,-127.77362775008406 48.94461786465974,-125.27362775008368 49.61449084571887,-122.77362775007245 51.444617864630494,-120.9435007311312 53.94461786463087,-120.2736277500316" stroke="#ffa500" stroke-linecap="round" stroke-linejoin="round"/><polyline fill="none" points="131.96728368240082,-41.41877699654609 134.46728368241205,-42.08864997760522 136.2974107013533,-43.91877699651685 136.9672836824529,-46.418776996517224 136.29741070139377,-48.91877699652844 134.46728368248216,-50.7489040154697 131.9672836824818,-51.41877699656929 129.46728368247057,-50.74890401551017 127.63715666352931,-48.918776996598545 126.96728368242971,-46.41877699659817 127.63715666348884,-43.91877699658695 129.46728368240045,-42.088649977645694 131.96728368240082,-41.41877699654609" stroke="#ffa500" stroke-linecap="round" stroke-linejoin="round"/><polyline fill="none" points="144.91367486522537,96.57220864465819 147.4136748652366,95.90233566359906 149.24380188417786,94.07220864468744 149.91367486527744,91.57220864468705 149.24380188421833,89.07220864467583 147.41367486530672,87.24208162573457 144.91367486530635,86.57220864463497 142.41367486529512,87.24208162569408 140.58354784635387,89.07220864460571 139.91367486525428,91.57220864460609 140.5835478463134,94.07220864461732 142.413674865225,95.90233566355857 144.91367486522537,96.57220864465818" stroke="#ffa500" stroke-linecap="round" stroke-linejoin="round"/><polyline fill="none" points="40.01500673370149,171.3079725907996 42.51500673371272,170.6380996097405 44.34513375265397,168.80797259082888 45.01500673375357,166.3079725908285 44.34513375269445,163.8079725908173 42.515006733782826,161.97784557187603 40.01500673378245,161.30797259077642 37.51500673377122,161.97784557183553 35.68487971482997,163.80797259074714 35.01500673373037,166.3079725907475 35.68487971478949,168.80797259075874 37.51500673370111,170.6380996097 40.01500673370148,171.3079725907996" stroke="#ffa500" stroke-linecap="round" stroke-linejoin="round"/><polyline fill="none" points="-127.06046188219685,-47.68241790933792 -124.56046188218562,-48.35229089039704 -122.73033486324437,-50.18241790930866 -122.06046188214476,-52.68241790930904 -122.73033486320388,-55.182417909320264 -124.5604618821155,-57.012544928261526 -127.06046188211587,-57.68241790936113 -129.5604618821271,-57.01254492830201 -131.39058890106836,-55.182417909390395 -132.06046188216797,-52.68241790939002 -131.39058890110886,-50.18241790937879 -129.56046188219725,-48.35229089043753 -127.06046188219686,-47.68241790933792" stroke="#00f" stroke-linecap="round" stroke-linejoin="round"/><polyline fill="none" points="-212.76209363358254,85.43344318004854 -210.2620936335713,84.76357019898943 -208.43196661463006,82.9334431800778 -207.76209363353044,80.43344318007742 -208.43196661458956,77.93344318006619 -210.26209363350117,76.10331616112494 -212.76209363350154,75.43344318002534 -215.26209363351276,76.10331616108445 -217.09222065245402,77.93344317999608 -217.76209363355363,80.43344317999646 -217.09222065249452,82.93344318000769 -215.2620936335829,84.76357019894895 -212.76209363358254,85.43344318004857" stroke="#00f" stroke-linecap="round" stroke-linejoin="round"/><polyline fill="none" points="143.6622542724653,141.67164145214275 146.16225427247653,141.00176847108364 147.9923812914178,139.17164145217203 148.6622542725174,136.67164145217166 147.9923812914583,134.17164145216043 146.16225427254668,132.34151443321917 143.6622542725463,131.67164145211956 141.16225427253508,132.34151443317867 139.33212725359382,134.17164145209028 138.6622542724942,136.67164145209065 139.33212725355332,139.17164145210188 141.16225427246493,141.00176847104314 143.6622542724653,141.67164145214275" stroke="#ffa500" stroke-linecap="round" stroke-linejoin="round"/><polyline fill="none" points="-165.04008443365117,87.0731112273272 -162.54008443363995,86.40323824626809 -160.7099574146987,84.57311122735648 -160.04008443359908,82.0731112273561 -160.7099574146582,79.57311122734487 -162.5400844335698,77.7429842084036 -165.04008443357017,77.07311122730398 -167.5400844335814,77.7429842083631 -169.37021145252265,79.57311122727471 -170.04008443362227,82.07311122727509 -169.37021145256315,84.57311122728632 -167.54008443365154,86.40323824622759 -165.04008443365117,87.0731112273272" stroke="#ffa500" stroke-linecap="round" stroke-linejoin="round"/><polyline fill="none" points="-95.16151988486679,-42.889240475658575 -92.66151988485557,-43.55911345671768 -90.8313928659143,-45.3892404756293 -90.16151988481468,-47.88924047562968 -90.8313928658738,-50.38924047564091 -92.6615198847854,-52.21936749458218 -95.16151988478579,-52.889240475681795 -97.66151988479702,-52.21936749462269 -99.49164690373829,-50.38924047571108 -100.1615198848379,-47.8892404757107 -99.4916469037788,-45.38924047569947 -97.66151988486719,-43.5591134567582 -95.1615198848668,-42.88924047565858" stroke="#00f" stroke-linecap="round" stroke-linejoin="round"/><polyline fill="none" points="131.27249509159415,-44.23631782922973 133.77249509160538,-44.90619081028884 135.60262211054666,-46.73631782920045 136.27249509164628,-49.23631782920083 135.60262211058716,-51.73631782921206 133.77249509167555,-53.56644484815333 131.27249509167518,-54.23631782925295 128.77249509166396,-53.56644484819384 126.94236807272269,-51.73631782928223 126.27249509162307,-49.23631782928185 126.94236807268217,-46.73631782927062 128.77249509159378,-44.90619081032934 131.27249509159415,-44.23631782922972" stroke="#ffa500" stroke-linecap="round" stroke-linejoin="round"/><polyline fill="none" points="59.169361481631675,30.163715747759017 61.66936148164291,29.493842766699913 63.499488500584185,27.663715747788302 64.16936148168381,25.163715747787926 63.49948850062471,22.663715747776692 61.669361481713096,20.83358872883542 59.16936148171272,20.163715747735797 56.669361481701486,20.8335887287949 54.83923446276021,22.66371574770651 54.16936148166059,25.16371574770689 54.83923446271969,27.663715747718122 56.6693614816313,29.493842766659398 59.169361481631675,30.16371574775902" stroke="#00f" stroke-linecap="round" stroke-linejoin="round"/><polyline fill="none" points="64.50460210805984,116.51429760646465 67.00460210807108,115.84442462540555 68.83472912701235,114.01429760649394 69.50460210811198,111.51429760649356 68.83472912705288,109.01429760648232 67.00460210814127,107.18417058754105 64.50460210814089,106.51429760644142 62.00460210812965,107.18417058750052 60.17447508918838,109.01429760641213 59.504602108088754,111.51429760641251 60.174475089147855,114.01429760642375 62.004602108059466,115.84442462536504 64.50460210805984,116.51429760646467" stroke="#ffa500" stroke-linecap="round" stroke-linejoin="round"/><polyline fill="none" points="-167.03637567484503,-81.7180104722105 -164.5363756748338,-82.3878834532696 -162.70624865589252,-84.2180104721812 -162.0363756747929,-86.71801047218159 -162.706248655852,-89.21801047219283 -164.5363756747636,-91.04813749113411 -167.03637567476397,-91.71801047223374 -169.5363756747752,-91.04813749117464 -171.36650269371648,-89.21801047226303 -172.0363756748161,-86.71801047226265 -171.366502693757,-84.21801047225141 -169.5363756748454,-82.38788345331012 -167.03637567484503,-81.7180104722105" stroke="#ffa500" stroke-linecap="round" stroke-linejoin="round"/><polyline fill="none" points="-55.623247104371714,-64.97864023464908 -53.12324710436047,-65.64851321570818 -51.29312008541919,-67.47864023461979 -50.62324710431956,-69.97864023462017 -51.29312008537866,-72.47864023463141 -53.12324710429027,-74.3087672535727 -55.62324710429065,-74.97864023467233 -58.12324710430189,-74.30876725361323 -59.95337412324317,-72.47864023470161 -60.6232471043428,-69.97864023470123 -59.95337412328371,-67.47864023468999 -58.1232471043721,-65.64851321574871 -55.62324710437172,-64.97864023464908" stroke="#ffa500" stroke-linecap="round" stroke-linejoin="round"/><polyline fill="none" points="-96.80557184003126,63.489577978400625 -94.30557184002002,62.81970499734153 -92.47544482107874,60.98957797842992 -91.80557183997911,58.489577978429544 -92.47544482103821,55.9895779784183 -94.30557183994982,54.15945095947702 -96.8055718399502,53.48957797837739 -99.30557183996144,54.159450959436484 -101.13569885890273,55.98957797834809 -101.80557184000236,58.489577978348464 -101.13569885894327,60.989577978359705 -99.30557184003166,62.81970499730099 -96.80557184003128,63.489577978400625" stroke="#ffa500" stroke-linecap="round" stroke-linejoin="round"/><polyline fill="none" points="47.674628391838084,84.06784007355246 50.174628391849325,83.39796709249337 52.00475541079061,81.56784007358176 52.674628391890245,79.06784007358138 52.00475541083115,76.56784007357014 50.17462839191955,74.73771305462886 47.67462839191917,74.06784007352923 45.17462839190793,74.73771305458831 43.34450137296665,76.56784007349992 42.67462839186701,79.0678400735003 43.3445013729261,81.56784007351155 45.17462839183771,83.39796709245283 47.674628391838084,84.06784007355246" stroke="#00f" stroke-linecap="round" stroke-linejoin="round"/><polyline fill="none" points="-40.505904722954135,146.51171757452374 -38.005904722942894,145.84184459346466 -36.175777704001604,144.01171757455305 -35.50590472290197,141.51171757455268 -36.17577770396105,139.01171757454142 -38.00590472287266,137.18159055560014 -40.505904722873034,136.5117175745005 -43.005904722884274,137.18159055555958 -44.836031741825565,139.0117175744712 -45.5059047229252,141.51171757447156 -44.836031741866115,144.01171757448282 -43.00590472295451,145.8418445934241 -40.505904722954135,146.51171757452374" stroke="#ffa500" stroke-linecap="round" stroke-linejoin="round"/><polyline fill="none" points="-98.2039187757926,34.51383687991917 -95.70391877578136,33.84396389886008 -93.87379175684008,32.01383687994848 -93.20391877574043,29.5138368799481 -93.87379175679952,27.013836879936857 -95.70391877571112,25.183709860995567 -98.2039187757115,24.513836879895926 -100.70391877572274,25.183709860955013 -102.53404579466404,27.013836879866616 -103.20391877576368,29.513836879866993 -102.5340457947046,32.013836879878234 -100.703918775793,33.843963898819524 -98.20391877579262,34.51383687991917" stroke="#00f" stroke-linecap="round" stroke-linejoin="round"/><polyline fill="none" points="-144.93689749103322,101.87785003362916 -142.43689749102197,101.20797705257007 -140.60677047208068,99.37785003365848 -139.93689749098104,96.87785003365809 -140.60677047204013,94.37785003364685 -142.43689749095174,92.54772301470555 -144.9368974909521,91.87785003360591 -147.43689749096336,92.547723014665 -149.26702450990464,94.37785003357659 -149.9368974910043,96.87785003357698 -149.2670245099452,99.37785003358822 -147.4368974910336,101.20797705252951 -144.93689749103322,101.87785003362916" stroke="#ffa500" stroke-linecap="round" stroke-linejoin="round"/><polyline fill="none" points="66.92918997712647,24.00525355951948 69.42918997713771,23.3353805784604 71.25931699607901,21.505253559548798 71.92918997717865,19.00525355954842 71.25931699611957,16.505253559537177 69.42918997720797,14.675126540595882 66.92918997720759,14.005253559496236 64.42918997719634,14.675126540555317 62.59906295825505,16.505253559466915 61.9291899771554,19.005253559467292 62.59906295821448,21.50525355947854 64.42918997712609,23.335380578419837 66.92918997712647,24.005253559519485" stroke="#ffa500" stroke-linecap="round" stroke-linejoin="round"/><polyline fill="none" points="-133.8698209762604,-21.368802113632867 -131.36982097624914,-22.038675094691946 -129.53969395730786,-23.868802113603547 -128.86982097620822,-26.368802113603923 -129.5396939572673,-28.86880211361517 -131.36982097617891,-30.69892913255647 -133.86982097617928,-31.36880211365612 -136.36982097619054,-30.69892913259704 -138.19994799513185,-28.868802113685444 -138.8698209762315,-26.368802113685067 -138.1999479951724,-23.86880211367382 -136.3698209762608,-22.03867509473252 -133.86982097626043,-21.368802113632867" stroke="#008000" stroke-linecap="round" stroke-linejoin="round"/><polyline fill="none" points="-126.31130258608769,-30.42347438940981 -123.81130258607644,-31.09334737046889 -121.98117556713514,-32.92347438938049 -121.31130258603548,-35.423474389380864 -121.98117556709455,-37.92347438939211 -123.81130258600615,-39.75360140833341 -126.31130258600653,-40.42347438943306 -128.81130258601777,-39.75360140837398 -130.6414296049591,-37.923474389462385 -131.31130258605873,-35.42347438946201 -130.64142960499964,-32.92347438945076 -128.81130258608806,-31.09334737050946 -126.31130258608768,-30.423474389409805" stroke="#00f" stroke-linecap="round" stroke-linejoin="round"/><polyline fill="none" points="6.767731366794527,166.8834075268544 9.267731366805776,166.2135345457953 11.09785838574708,164.38340752688373 11.767731366846734,161.88340752688336 11.09785838578766,159.3834075268721 9.267731366876065,157.5532805079308 6.767731366875688,156.88340752683115 4.267731366864438,157.55328050789024 2.4376043479231346,159.38340752680182 1.7677313668234789,161.8834075268022 2.437604347882552,164.38340752681344 4.2677313667941466,166.21353454575475 6.767731366794523,166.8834075268544" stroke="#00f" stroke-linecap="round" stroke-linejoin="round"/><polyline fill="none" points="-173.3289939540293,46.22118421488706 -170.82899395401805,45.55131123382799 -168.99886693507673,43.72118421491639 -168.3289939539771,41.221184214916015 -168.99886693503615,38.72118421490477 -170.82899395394773,36.89105719596346 -173.3289939539481,36.221184214863804 -175.82899395395935,36.891057195922876 -177.65912097290067,38.72118421483447 -178.32899395400034,41.22118421483485 -177.65912097294128,43.721184214846105 -175.8289939540297,45.55131123378741 -173.32899395402933,46.22118421488707" stroke="#00f" stroke-linecap="round" stroke-linejoin="round"/><polyline fill="none" points="111.25229244920061,120.18208020177043 113.75229244921186,119.51220722071136 115.58241946815318,117.68208020179976 116.25229244925283,115.18208020179938 115.58241946819376,112.68208020178812 113.75229244928217,110.85195318284681 111.25229244928178,110.18208020174716 108.75229244927053,110.85195318280623 106.92216543032922,112.68208020171782 106.25229244922956,115.18208020171821 106.92216543028863,117.68208020172946 108.75229244920023,119.51220722067077 111.25229244920061,120.18208020177043" stroke="#ffa500" stroke-linecap="round" stroke-linejoin="round"/><polyline fill="none" points="-78.25997604775844,54.647834142524 -75.75997604774719,53.97796116146493 -73.92984902880588,52.14783414255334 -73.25997604770622,49.647834142552966 -73.92984902876529,47.14783414254171 -75.75997604767689,45.3177071236004 -78.25997604767727,44.647834142500734 -80.75997604768853,45.3177071235598 -82.59010306662984,47.14783414247139 -83.2599760477295,49.647834142471766 -82.59010306667042,52.14783414248302 -80.75997604775883,53.97796116142433 -78.25997604775844,54.647834142524" stroke="#ffa500" stroke-linecap="round" stroke-linejoin="round"/><polyline fill="none" points="125.21197261730738,-54.35897544125624 127.71197261731864,-55.028848422315306 129.54209963625993,-56.858975441226896 130.2119726173596,-59.35897544122727 129.54209963630055,-61.85897544123853 127.71197261738895,-63.68910246017984 125.21197261738857,-64.35897544127951 122.71197261737731,-63.68910246022045 120.881845598436,-61.85897544130886 120.21197261733633,-59.35897544130848 120.88184559839539,-56.858975441297225 122.71197261730697,-55.028848422355914 125.21197261730735,-54.35897544125625" stroke="#ffa500" stroke-linecap="round" stroke-linejoin="round"/><polyline fill="none" points="-128.8240672383445,128.25984676184487 -126.32406723833324,127.58997378078581 -124.49394021939193,125.75984676187421 -123.82406723829226,123.25984676187383 -124.49394021935132,120.75984676186258 -126.3240672382629,118.92971974292126 -128.82406723826327,118.25984676182159 -131.32406723827452,118.92971974288065 -133.15419425721583,120.75984676179223 -133.8240672383155,123.25984676179262 -133.15419425725645,125.75984676180387 -131.32406723834487,127.58997378074518 -128.8240672383445,128.25984676184484" stroke="#ffa500" stroke-linecap="round" stroke-linejoin="round"/><polyline fill="none" points="86.40089274871127,-8.57206273351489 88.90089274872253,-9.241935714573952 90.73101976766384,-11.07206273348554 91.40089274876351,-13.572062733485918 90.73101976770445,-16.072062733497177 88.90089274879287,-17.902189752438495 86.40089274879249,-18.572062733538168 83.90089274878123,-17.90218975247911 82.07076572983992,-16.072062733567524 81.40089274874025,-13.572062733567147 82.0707657297993,-11.072062733555889 83.90089274871089,-9.24193571461457 86.40089274871127,-8.572062733514898" stroke="#ffa500" stroke-linecap="round" stroke-linejoin="round"/><polyline fill="none" points="-195.22455333165868,19.16554370630525 -192.72455333164743,18.495670725246192 -190.89442631270612,16.665543706334606 -190.22455333160644,14.16554370633423 -190.8944263126655,11.66554370632297 -192.72455333157708,9.835416687381649 -195.22455333157745,9.165543706281975 -197.7245533315887,9.83541668734103 -199.55468035053002,11.665543706252617 -200.2245533316297,14.165543706252993 -199.55468035057064,16.665543706264256 -197.72455333165905,18.495670725205578 -195.22455333165868,19.165543706305254" stroke="#008000" stroke-linecap="round" stroke-linejoin="round"/><polyline fill="none" points="-142.9290858281705,84.65511628262705 -140.42908582815926,83.98524330156799 -138.59895880921795,82.15511628265641 -137.92908582811828,79.65511628265602 -138.59895880917733,77.15511628264477 -140.42908582808892,75.32498926370344 -142.92908582808928,74.65511628260377 -145.42908582810054,75.32498926366283 -147.25921284704185,77.15511628257441 -147.92908582814152,79.6551162825748 -147.25921284708247,82.15511628258606 -145.42908582817088,83.98524330152739 -142.9290858281705,84.65511628262706" stroke="#00f" stroke-linecap="round" stroke-linejoin="round"/><polyline fill="none" points="-57.85840860570528,25.573871356604386 -55.35840860569402,24.90399837554533 -53.52828158675269,23.07387135663375 -52.85840860565301,20.573871356633372 -53.52828158671206,18.07387135662211 -55.358408605623644,16.243744337680784 -57.85840860562402,15.573871356581105 -60.35840860563528,16.243744337640155 -62.18853562457661,18.073871356551738 -62.85840860567629,20.573871356552115 -62.18853562461724,23.073871356563377 -60.358408605705655,24.903998375504703 -57.85840860570528,25.573871356604386" stroke="#ffa500" stroke-linecap="round" stroke-linejoin="round"/><polyline fill="none" points="118.59565999688476,126.78626069081494 121.09565999689603,126.11638770975588 122.92578701583736,124.2862606908443 123.59565999693704,121.78626069084392 122.925787015878,119.28626069083265 121.09565999696642,117.45613367189132 118.59565999696603,116.78626069079164 116.09565999695477,117.45613367185068 114.26553297801344,119.28626069076226 113.59565999691375,121.78626069076265 114.2655329779728,124.28626069077391 116.09565999688438,126.11638770971524 118.59565999688476,126.78626069081493" stroke="#00f" stroke-linecap="round" stroke-linejoin="round"/><polyline fill="none" points="-241.53863895633927,-52.457541203040996 -239.03863895632801,-53.12741418410005 -237.20851193738667,-54.95754120301163 -236.538638956287,-57.457541203012006 -237.20851193734606,-59.95754120302327 -239.03863895625764,-61.787668221964594 -241.538638956258,-62.45754120306428 -244.03863895626927,-61.78766822200523 -245.8687659752106,-59.95754120309365 -246.53863895631028,-57.45754120309327 -245.86876597525122,-54.957541203082 -244.03863895633964,-53.12741418414067 -241.53863895633927,-52.45754120304098" stroke="#ffa500" stroke-linecap="round" stroke-linejoin="round"/><polyline fill="none" points="-113.82949740379658,104.03016240924205 -111.32949740378531,103.36028942818301 -109.49937038484398,101.53016240927143 -108.8294974037443,99.03016240927104 -109.49937038480334,96.53016240925977 -111.32949740371492,94.70003539031845 -113.82949740371531,94.03016240921876 -116.32949740372658,94.7000353902778 -118.1596244226679,96.53016240918939 -118.82949740376759,99.03016240918977 -118.15962442270855,101.53016240920104 -116.32949740379696,103.36028942814237 -113.82949740379658,104.03016240924205" stroke="#ffa500" stroke-linecap="round" stroke-linejoin="round"/><polyline fill="none" points="-234.58230217569746,88.03188893664151 -232.0823021756862,87.36201595558246 -230.25217515674487,85.53188893667088 -229.58230217564517,83.0318889366705 -230.2521751567042,80.53188893665923 -232.08230217561578,78.70176191771789 -234.58230217561615,78.0318889366182 -237.0823021756274,78.70176191767725 -238.91242919456874,80.53188893658883 -239.58230217566845,83.03188893658921 -238.91242919460942,85.53188893660048 -237.08230217569783,87.36201595554182 -234.58230217569746,88.03188893664151" stroke="#ffa500" stroke-linecap="round" stroke-linejoin="round"/><polyline fill="none" points="-139.65472659392788,-16.702290745165556 -137.15472659391662,-17.372163726224596 -135.32459957497528,-19.20229074513617 -134.65472659387558,-21.702290745136548 -135.3245995749346,-24.202290745147817 -137.1547265938462,-26.032417764089153 -139.65472659384656,-26.702290745188847 -142.15472659385784,-26.032417764129807 -143.98485361279918,-24.20229074521823 -144.65472659389889,-21.702290745217855 -143.98485361283986,-19.202290745206586 -142.15472659392827,-17.37216372626525 -139.6547265939279,-16.702290745165556" stroke="#008000" stroke-linecap="round" stroke-linejoin="round"/><polyline fill="none" points="-220.2875559861233,-51.49848265050417 -217.787555986112,-52.16835563156321 -215.95742896717067,-53.998482650474784 -215.28755598607097,-56.49848265047516 -215.95742896713,-58.99848265048643 -217.78755598604158,-60.82860966942777 -220.28755598604195,-61.498482650527464 -222.78755598605323,-60.82860966946843 -224.61768300499457,-58.99848265055685 -225.28755598609428,-56.498482650556475 -224.61768300503525,-53.998482650545206 -222.78755598612366,-52.168355631603866 -220.2875559861233,-51.498482650504165" stroke="#ffa500" stroke-linecap="round" stroke-linejoin="round"/><polyline fill="none" points="-148.9920200512111,-33.09344810906462 -146.49202005119983,-33.763321090123654 -144.6618930322585,-35.59344810903523 -143.9920200511588,-38.093448109035606 -144.66189303221782,-40.593448109046875 -146.4920200511294,-42.423575127988215 -148.99202005112977,-43.093448109087916 -151.49202005114105,-42.42357512802888 -153.3221470700824,-40.593448109117304 -153.9920200511821,-38.09344810911693 -153.32214707012307,-35.59344810910565 -151.49202005121148,-33.76332109016431 -148.9920200512111,-33.09344810906461" stroke="#00f" stroke-linecap="round" stroke-linejoin="round"/><polyline fill="none" points="83.95022952413932,-107.89924246926115 86.45022952415059,-108.56911545032018 88.28035654309193,-110.39924246923175 88.95022952419163,-112.89924246923214 88.2803565431326,-115.3992424692434 86.45022952422103,-117.22936948818474 83.95022952422065,-117.89924246928445 81.45022952420938,-117.22936948822542 79.62010250526804,-115.39924246931385 78.95022952416834,-112.89924246931346 79.62010250522736,-110.3992424693022 81.45022952413893,-108.56911545036085 83.95022952413932,-107.89924246926115" stroke="#00f" stroke-linecap="round" stroke-linejoin="round"/><polyline fill="none" points="-205.4398391150525,-15.256269128093951 -202.93983911504122,-15.926142109152984 -201.10971209609988,-17.756269128064556 -200.43983911500018,-20.256269128064933 -201.1097120960592,-22.75626912807621 -202.9398391149708,-24.586396147017556 -205.43983911497116,-25.25626912811726 -207.93983911498245,-24.58639614705823 -209.7699661339238,-22.75626912814666 -210.4398391150235,-20.256269128146283 -209.76996613396446,-17.756269128135006 -207.93983911505288,-15.926142109193659 -205.4398391150525,-15.256269128093953" stroke="#00f" stroke-linecap="round" stroke-linejoin="round"/><polyline fill="none" points="48.853702188522995,84.93227377556042 51.35370218853427,84.26240079450139 53.18382920747562,82.43227377558982 53.853702188575326,79.93227377558944 53.1838292075163,77.43227377557815 51.35370218860473,75.6021467566368 48.85370218860435,74.93227377553708 46.353702188593076,75.60214675659611 44.52357516965173,77.43227377550768 43.85370218855202,79.93227377550807 44.52357516961105,82.43227377551935 46.35370218852262,84.2624007944607 48.853702188522995,84.93227377556042" stroke="#ffa500" stroke-linecap="round" stroke-linejoin="round"/><polyline fill="none" points="-148.24358194918278,51.55115630503729 -145.7435819491715,50.88128332397826 -143.91345493023016,49.05115630506669 -143.24358194913046,46.551156305066314 -143.9134549301895,44.05115630505504 -145.74358194910104,42.221029286113684 -148.2435819491014,41.551156305013976 -150.7435819491127,42.221029286073005 -152.57370896805404,44.05115630498457 -153.24358194915374,46.55115630498495 -152.5737089680947,49.051156304996226 -150.74358194918315,50.88128332393758 -148.24358194918278,51.551156305037296" stroke="#008000" stroke-linecap="round" stroke-linejoin="round"/><polyline fill="none" points="85.65815762964725,51.4130263211098 88.15815762965853,50.743153340050775 89.98828464859989,48.913026321139206 90.6581576296996,46.41302632113883 89.98828464864057,43.91302632112755 88.158157629729,42.0828993021862 85.65815762972862,41.413026321086484 83.15815762971734,42.082899302145506 81.32803061077598,43.913026321057075 80.65815762967627,46.41302632105745 81.3280306107353,48.91302632106873 83.15815762964687,50.74315334001008 85.65815762964723,51.4130263211098" stroke="#ffa500" stroke-linecap="round" stroke-linejoin="round"/><polyline fill="none" points="38.489519593941466,-156.55115435180056 40.98951959395275,-157.2210273328596 42.819646612894104,-159.05115435177115 43.48951959399382,-161.55115435177152 42.8196466129348,-164.0511543517828 40.989519594023236,-165.88128137072417 38.48951959402286,-166.5511543518239 35.989519594011576,-165.88128137076487 34.15939257507022,-164.0511543518533 33.489519593970506,-161.55115435185294 34.15939257502953,-159.05115435184166 35.98951959394109,-157.2210273329003 38.489519593941466,-156.55115435180056" stroke="#ffa500" stroke-linecap="round" stroke-linejoin="round"/><polyline fill="none" points="-14.931898094878141,165.99742573067027 -12.43189809486686,165.32755274961124 -10.601771075925502,163.4974257306997 -9.931898094825783,160.99742573069932 -10.601771075884802,158.49742573068804 -12.431898094796365,156.66729871174667 -14.931898094796741,155.99742573064694 -17.431898094808023,156.66729871170597 -19.26202511374938,158.49742573061752 -19.9318980948491,160.9974257306179 -19.26202511379008,163.49742573062917 -17.43189809487852,165.32755274957054 -14.931898094878143,165.99742573067027" stroke="#ffa500" stroke-linecap="round" stroke-linejoin="round"/><polyline fill="none" points="143.0251368211398,-115.96264154402631 145.52513682115108,-116.63251452508533 147.35526384009245,-118.4626415439969 148.02513682119218,-120.96264154399728 147.35526384013315,-123.46264154400856 145.5251368212216,-125.29276856294992 143.02513682122122,-125.96264154404963 140.52513682120994,-125.29276856299062 138.69500980226857,-123.46264154407905 138.02513682116884,-120.96264154407866 138.69500980222787,-118.46264154406738 140.52513682113943,-116.63251452512601 143.0251368211398,-115.96264154402628" stroke="#ffa500" stroke-linecap="round" stroke-linejoin="round"/><polyline fill="none" points="45.198427203232974,-112.74099018113813 47.69842720324426,-113.41086316219715 49.52855422218562,-115.2409901811087 50.19842720328534,-117.74099018110908 49.528554222226326,-120.24099018112037 47.698427203314765,-122.07111720006174 45.19842720331439,-122.74099018116146 42.698427203303105,-122.07111720010245 40.86830018436174,-120.2409901811909 40.198427203262014,-117.74099018119051 40.86830018432103,-115.24099018117923 42.69842720323259,-113.41086316223786 45.19842720323297,-112.74099018113813" stroke="#ffa500" stroke-linecap="round" stroke-linejoin="round"/><polyline fill="none" points="79.53325174474345,-63.27222279962331 82.03325174475474,-63.94209578068232 83.8633787636961,-65.77222279959388 84.53325174479583,-68.27222279959426 83.86337876373682,-70.77222279960554 82.03325174482526,-72.60234981854691 79.53325174482488,-73.27222279964664 77.0332517448136,-72.60234981858763 75.20312472587223,-70.77222279967607 74.5332517447725,-68.27222279967569 75.20312472583151,-65.7722227996644 77.03325174474307,-63.94209578072304 79.53325174474345,-63.27222279962331" stroke="#00f" stroke-linecap="round" stroke-linejoin="round"/><polyline fill="none" points="155.15560335212155,-93.09621694715533 157.65560335213283,-93.76608992821434 159.4857303710742,-95.5962169471259 160.15560335217393,-98.09621694712628 159.48573037111493,-100.59621694713756 157.65560335220337,-102.42634396607893 155.155603352203,-103.09621694717866 152.65560335219172,-102.42634396611965 150.82547633325035,-100.59621694720809 150.15560335215062,-98.09621694720771 150.82547633320962,-95.59621694719642 152.65560335212118,-93.76608992825506 155.15560335212155,-93.09621694715533" stroke="#00f" stroke-linecap="round" stroke-linejoin="round"/><polyline fill="none" points="-230.93794555441548,-34.953109204220716 -228.4379455544042,-35.622982185279724 -226.60781853546283,-37.45310920419128 -225.9379455543631,-39.953109204191655 -226.6078185354221,-42.453109204202946 -228.43794555433365,-44.283236223144314 -230.93794555433402,-44.95310920424405 -233.4379455543453,-44.28323622318504 -235.26807257328667,-42.45310920427349 -235.9379455543864,-39.95310920427311 -235.2680725733274,-37.45310920426182 -233.43794555441585,-35.62298218532045 -230.93794555441548,-34.953109204220716" stroke="#00f" stroke-linecap="round" stroke-linejoin="round"/><polyline fill="none" points="120.76157482034286,-82.90860769582375 123.26157482035416,-83.57848067688275 125.09170183929552,-85.4086076957943 125.76157482039525,-87.90860769579469 125.09170183933625,-90.40860769580598 123.2615748204247,-92.23873471474735 120.76157482042431,-92.90860769584708 118.26157482041302,-92.23873471478808 116.43144780147165,-90.40860769587653 115.76157482037192,-87.90860769587614 116.43144780143092,-85.40860769586484 118.26157482034247,-83.57848067692348 120.76157482034286,-82.90860769582373" stroke="#00f" stroke-linecap="round" stroke-linejoin="round"/><polyline fill="none" points="-148.34285344023172,-76.62360352383645 -145.84285344022044,-77.29347650489545 -144.01272642127907,-79.123603523807 -143.34285344017934,-81.62360352380739 -144.01272642123834,-84.12360352381869 -145.8428534401499,-85.95373054276006 -148.34285344015026,-86.6236035238598 -150.84285344016155,-85.9537305428008 -152.67298045910292,-84.12360352388924 -153.34285344020265,-81.62360352388886 -152.67298045914364,-79.12360352387756 -150.8428534402321,-77.2934765049362 -148.34285344023172,-76.62360352383645" stroke="#ffa500" stroke-linecap="round" stroke-linejoin="round"/><polyline fill="none" points="-221.4340723171516,81.46787690898951 -218.9340723171403,80.79800392793051 -217.10394529819894,78.96787690901895 -216.4340723170992,76.46787690901857 -217.1039452981582,73.96787690900727 -218.93407231706976,72.13774989006589 -221.43407231707013,71.46787690896615 -223.93407231708142,72.13774989002515 -225.76419933602278,73.9678769089367 -226.4340723171225,76.46787690893709 -225.7641993360635,78.96787690894838 -223.93407231715196,80.79800392788977 -221.4340723171516,81.46787690898951" stroke="#ffa500" stroke-linecap="round" stroke-linejoin="round"/><polyline fill="none" points="-109.16951995334671,55.36671130155924 -106.66951995333541,54.69683832050024 -104.83939293439403,52.86671130158869 -104.16951995329428,50.36671130158831 -104.83939293435328,47.86671130157701 -106.66951995326484,46.03658428263563 -109.16951995326522,45.36671130153589 -111.66951995327652,46.03658428259488 -113.4996469722179,47.866711301506434 -114.16951995331765,50.36671130150681 -113.49964697225865,52.86671130151811 -111.66951995334709,54.69683832045949 -109.16951995334671,55.366711301559235" stroke="#00f" stroke-linecap="round" stroke-linejoin="round"/><polyline fill="none" points="-180.43051196470836,25.896372605412527 -177.93051196469708,25.22649962435353 -176.1003849457557,23.39637260544198 -175.43051196465595,20.896372605441602 -176.10038494571495,18.396372605430308 -177.9305119646265,16.566245586488925 -180.43051196462687,15.896372605389178 -182.93051196463816,16.566245586448172 -184.76063898357953,18.396372605359723 -185.43051196467928,20.8963726053601 -184.76063898362028,23.396372605371397 -182.93051196470873,25.22649962431278 -180.43051196470836,25.896372605412527" stroke="#008000" stroke-linecap="round" stroke-linejoin="round"/><polyline fill="none" points="95.08586388254022,-23.98272157220024 97.58586388255152,-24.652594553259235 99.4159909014929,-26.482721572170785 100.08586388259265,-28.98272157217116 99.41599090153366,-31.48272157218246 97.5858638826221,-33.312848591123846 95.08586388262174,-33.982721572223596 92.58586388261044,-33.3128485911646 90.75573686366906,-31.482721572253055 90.08586388256931,-28.98272157225268 90.7557368636283,-26.48272157224138 92.58586388253985,-24.652594553299995 95.08586388254024,-23.982721572200244" stroke="#ffa500" stroke-linecap="round" stroke-linejoin="round"/><polyline fill="none" points="61.584114741692424,-135.65963661018847 64.08411474170373,-136.32950959124747 65.91424176064511,-138.15963661015903 66.58411474174487,-140.6596366101594 65.91424176068588,-143.1596366101707 64.08411474177433,-144.9897636291121 61.58411474177395,-145.65963661021186 59.084114741762654,-144.98976362915286 57.253987722821265,-143.1596366102413 56.584114741721514,-140.65963661024094 57.2539877227805,-138.15963661022963 59.08411474169205,-136.32950959128823 61.584114741692424,-135.65963661018847" stroke="#ffa500" stroke-linecap="round" stroke-linejoin="round"/><polyline fill="none" points="-179.66734738188063,-28.25691727429931 -177.16734738186932,-28.926790255358302 -175.33722036292792,-30.75691727426985 -174.66734738182816,-33.25691727427022 -175.33722036288717,-35.75691727428152 -177.16734738179872,-37.58704429322291 -179.6673473817991,-38.25691727432267 -182.1673473818104,-37.58704429326368 -183.9974744007518,-35.75691727435213 -184.66734738185156,-33.25691727435176 -183.99747440079256,-30.756917274340456 -182.167347381881,-28.926790255399066 -179.66734738188063,-28.256917274299308" stroke="#00f" stroke-linecap="round" stroke-linejoin="round"/><polyline fill="none" points="102.85730510831796,-100.81148373315548 105.35730510832926,-101.48135671421447 107.18743212727065,-103.31148373312601 107.85730510837041,-105.81148373312638 107.18743212731142,-108.31148373313768 105.35730510839988,-110.14161075207907 102.85730510839952,-110.81148373317883 100.35730510838822,-110.14161075211985 98.52717808944682,-108.3114837332083 97.85730510834706,-105.81148373320792 98.52717808940605,-103.31148373319662 100.35730510831759,-101.48135671425523 102.85730510831797,-100.81148373315547" stroke="#00f" stroke-linecap="round" stroke-linejoin="round"/><polyline fill="none" points="86.9236177615777,-57.09286753409785 89.423617761589,-57.762740515156835 91.2537447805304,-59.592867534068375 91.92361776163015,-62.09286753406875 91.25374478057117,-64.59286753408006 89.42361776165963,-66.42299455302145 86.92361776165924,-67.09286753412121 84.42361776164795,-66.42299455306222 82.59349074270655,-64.59286753415068 81.92361776160679,-62.09286753415031 82.59349074266578,-59.592867534139 84.42361776157732,-57.762740515197606 86.9236177615777,-57.09286753409784" stroke="#ffa500" stroke-linecap="round" stroke-linejoin="round"/><polyline fill="none" points="-212.71629030729812,65.3554290895973 -210.2162903072868,64.68555610853831 -208.38616328834541,62.85542908962677 -207.71629030724566,60.35542908962639 -208.38616328830463,57.855429089615086 -210.21629030721618,56.02530207067369 -212.71629030721655,55.355429089573924 -215.21629030722787,56.025302070632904 -217.04641732616926,57.855429089544444 -217.71629030726902,60.35542908954482 -217.04641732621005,62.855429089556125 -215.2162903072985,64.68555610849752 -212.71629030729812,65.3554290895973" stroke="#ffa500" stroke-linecap="round" stroke-linejoin="round"/><polyline fill="none" points="-182.14751924323295,17.619725291751323 -179.64751924322164,16.949852310692343 -177.81739222428024,15.119725291780803 -177.14751924318048,12.619725291780425 -177.81739222423946,10.119725291769118 -179.647519243151,8.289598272827718 -182.14751924315138,7.619725291727951 -184.6475192431627,8.289598272786929 -186.4776462621041,10.119725291698469 -187.14751924320385,12.619725291698847 -186.47764626214487,15.119725291710154 -184.64751924323335,16.949852310651554 -182.14751924323298,17.619725291751323" stroke="#008000" stroke-linecap="round" stroke-linejoin="round"/><polyline fill="none" points="-88.93687075491772,29.080861928099647 -86.43687075490641,28.41098894704067 -84.60674373596501,26.58086192812913 -83.93687075486524,24.080861928128755 -84.60674373592421,21.580861928117447 -86.43687075483575,19.750734909176046 -88.93687075483614,19.080861928076278 -91.43687075484745,19.750734909135254 -93.26699777378884,21.580861928046794 -93.93687075488862,24.08086192804717 -93.26699777382964,26.58086192805848 -91.4368707549181,28.410988946999883 -88.93687075491772,29.080861928099655" stroke="#ffa500" stroke-linecap="round" stroke-linejoin="round"/><polyline fill="none" points="-132.08776681142038,-38.66171200341865 -129.58776681140907,-39.33158498447762 -127.75763979246767,-41.16171200338916 -127.0877668113679,-43.66171200338954 -127.75763979242687,-46.16171200340085 -129.5877668113384,-47.991839022342255 -132.08776681133878,-48.66171200344203 -134.5877668113501,-47.991839022383054 -136.4178938302915,-46.161712003471514 -137.08776681139128,-43.66171200347114 -136.4178938303323,-41.161712003459826 -134.58776681142078,-39.33158498451842 -132.0877668114204,-38.66171200341865" stroke="#ffa500" stroke-linecap="round" stroke-linejoin="round"/><polyline fill="none" points="-141.50212698412923,-22.77444233235234 -139.00212698411792,-23.444315313411312 -137.17199996517652,-25.27444233232285 -136.50212698407674,-27.774442332323225 -137.1719999651357,-30.274442332334537 -139.00212698404724,-32.10456935127594 -141.5021269840476,-32.77444233237571 -144.00212698405892,-32.10456935131674 -145.83225400300032,-30.274442332405204 -146.5021269841001,-27.774442332404828 -145.83225400304113,-25.274442332393516 -144.0021269841296,-23.44431531345211 -141.50212698412923,-22.774442332352333" stroke="#00f" stroke-linecap="round" stroke-linejoin="round"/><polyline fill="none" points="-7.190057008595545,138.2806667038679 -4.690057008584233,137.61079372280892 -2.8599299896428256,135.7806667038974 -2.1900570085430493,133.28066670389703 -2.8599299896020183,130.78066670388571 -4.690057008513553,128.95053968494432 -7.19005700851393,128.28066670384453 -9.690057008525242,128.9505396849035 -11.520184027466652,130.78066670381503 -12.190057008566429,133.2806667038154 -11.520184027507462,135.7806667038267 -9.690057008595927,137.6107937227681 -7.19005700859555,138.2806667038679" stroke="#ffa500" stroke-linecap="round" stroke-linejoin="round"/><polyline fill="none" points="-153.32890311956112,50.19420102957617 -150.8289031195498,49.524328048517205 -148.9987761006084,47.69420102960567 -148.32890311950862,45.194201029605296 -148.9987761005676,42.694201029593984 -150.82890311947912,40.86407401065257 -153.3289031194795,40.194201029552794 -155.8289031194908,40.86407401061176 -157.6590301384322,42.69420102952329 -158.328903119532,45.19420102952367 -157.659030138473,47.69420102953498 -155.8289031195615,49.52432804847639 -153.32890311956112,50.19420102957617" stroke="#ffa500" stroke-linecap="round" stroke-linejoin="round"/></svg>