<?xml version="1.0" ?><!DOCTYPE svg  PUBLIC '-//W3C//DTD SVG 1.1//EN'  'http://www.w3.org/Graphics/SVG/1.1/DTD/svg11.dtd'><svg height="381.000" viewBox="-261.000 -189.000 455.000 381.000" width="455.000" xmlns="http://www.w3.org/2000/svg"><line fill="none" stroke="none" stroke-linecap="round" stroke-width="2.0" x1="0.0" x2="0.0" y1="0.0" y2="0.0"/><polygon fill="none" fill-rule="evenodd" points="0.0,0.0 0.0,0.0 0.0,0.0" stroke-linejoin="round"/><polyline fill="none" points="23.795820893460366,72.87752260044505 26.295820893471827,72.20764961938634 28.125947912413494,70.37752260047496 28.79582089351357,67.87752260047458 28.125947912454862,65.37752260046311 26.29582089354348,63.54739558152144 23.7958208935431,62.877522600421365 21.29582089353164,63.547395581480075 19.465693874589974,65.37752260039146 18.795820893489896,67.87752260039184 19.465693874548606,70.37752260040331 21.29582089345999,72.20764961934498 23.795820893460366,72.87752260044506" stroke="#ffa500" stroke-linecap="round" stroke-linejoin="round"/><polyline fill="none" points="46.03600342395483,27.822453662495025 48.53600342396629,27.15258068143632 50.36613044290796,25.322453662524936 51.03600342400804,22.82245366252456 50.36613044294933,20.322453662513098 48.53600342403794,18.492326643571428 46.03600342403757,17.822453662471347 43.536003424026106,18.492326643530053 41.70587640508443,20.322453662441436 41.036003423984354,22.822453662441813 41.70587640504306,25.322453662453277 43.53600342395444,27.152580681394948 46.03600342395482,27.82245366249503" stroke="#ffa500" stroke-linecap="round" stroke-linejoin="round"/><polyline fill="none" points="75.61292925832964,-40.1231261466899 78.11292925834111,-40.7929991277486 79.94305627728278,-42.623126146659985 80.61292925838286,-45.12312614666036 79.94305627732416,-47.62312614667182 78.11292925841278,-49.453253165613496 75.6129292584124,-50.12312614671358 73.11292925840092,-49.45325316565488 71.28280223945926,-47.623126146743495 70.61292925835917,-45.12312614674312 71.28280223941788,-42.62312614673165 73.11292925832926,-40.792999127789976 75.61292925832964,-40.12312614668989" stroke="#ffa500" stroke-linecap="round" stroke-linejoin="round"/><polyline fill="none" points="-92.12978953173119,-74.39867334735177 -89.62978953171972,-75.06854632841048 -87.79966251277804,-76.89867334732186 -87.12978953167796,-79.39867334732224 -87.79966251273666,-81.89867334733371 -89.62978953164804,-83.7288003662754 -92.12978953164843,-84.39867334737548 -94.6297895316599,-83.72880036631678 -96.45991655060158,-81.89867334740539 -97.12978953170166,-79.39867334740501 -96.45991655064296,-76.89867334739354 -94.62978953173157,-75.06854632845186 -92.12978953173119,-74.39867334735177" stroke="#ffa500" stroke-linecap="round" stroke-linejoin="round"/><polyline fill="none" points="-112.68442855017577,23.92978189682717 -110.1844285501643,23.25990891576847 -108.35430153122262,21.42978189685709 -107.68442855012253,18.929781896856714 -108.35430153118124,16.429781896845245 -110.18442855009262,14.599654877903568 -112.684428550093,13.92978189680348 -115.18442855010447,14.599654877862179 -117.01455556904615,16.42978189677356 -117.68442855014624,18.929781896773935 -117.01455556908753,21.429781896785403 -115.18442855017615,23.25990891572708 -112.68442855017577,23.92978189682717" stroke="#00f" stroke-linecap="round" stroke-linejoin="round"/><polyline fill="none" points="-239.15593483928194,-37.71971180841741 -236.65593483927046,-38.3895847894761 -234.82580782032878,-40.21971180838748 -234.15593483922868,-42.719711808387856 -234.82580782028737,-45.219711808399325 -236.65593483919875,-47.049838827341006 -239.15593483919912,-47.7197118084411 -241.6559348392106,-47.0498388273824 -243.48606185815228,-45.219711808471025 -244.15593483925238,-42.71971180847065 -243.4860618581937,-40.21971180845918 -241.6559348392823,-38.3895847895175 -239.15593483928194,-37.71971180841741" stroke="#00f" stroke-linecap="round" stroke-linejoin="round"/><polyline fill="none" points="166.71866654328016,-91.70677191816094 169.21866654329165,-92.37664489921963 171.04879356223333,-94.20677191813101 171.71866654333343,-96.7067719181314 171.04879356227474,-99.20677191814286 169.21866654336336,-101.03689893708454 166.71866654336299,-101.70677191818464 164.2186665433515,-101.03689893712595 162.38853952440982,-99.20677191821459 161.71866654330972,-96.7067719182142 162.3885395243684,-94.20677191820273 164.2186665432798,-92.37664489926105 166.71866654328016,-91.70677191816095" stroke="#ffa500" stroke-linecap="round" stroke-linejoin="round"/><polyline fill="none" points="69.20346891454713,-168.4108663278074 71.7034689145586,-169.0807393088661 73.53359593350028,-170.91086632777748 74.20346891460038,-173.41086632777785 73.53359593354169,-175.91086632778934 71.70346891463032,-177.74099334673102 69.20346891462994,-178.41086632783112 66.70346891461847,-177.74099334677243 64.87334189567679,-175.91086632786104 64.20346891457669,-173.41086632786067 64.87334189563538,-170.9108663278492 66.70346891454675,-169.0807393089075 69.20346891454713,-168.4108663278074" stroke="#ffa500" stroke-linecap="round" stroke-linejoin="round"/><polyline fill="none" points="-242.78627390456697,-44.134448116611075 -240.2862739045555,-44.804321097669764 -238.4561468856138,-46.63444811658114 -237.7862739045137,-49.13444811658152 -238.4561468855724,-51.63444811659299 -240.28627390448378,-53.46457513553468 -242.78627390448415,-54.13444811663478 -245.28627390449563,-53.46457513557609 -247.1164009234373,-51.634448116664714 -247.7862739045374,-49.13444811666434 -247.11640092347872,-46.63444811665286 -245.28627390456734,-44.804321097711174 -242.78627390456697,-44.134448116611075" stroke="#00f" stroke-linecap="round" stroke-linejoin="round"/><polyline fill="none" points="-142.82584604486235,80.14925449040103 -140.32584604485086,79.47938150934235 -138.49571902590918,77.64925449043098 -137.82584604480908,75.1492544904306 -138.49571902586777,72.64925449041912 -140.32584604477915,70.81912747147743 -142.82584604477952,70.14925449037733 -145.325846044791,70.81912747143602 -147.1559730637327,72.64925449034739 -147.8258460448328,75.14925449034777 -147.1559730637741,77.64925449035924 -145.32584604486271,79.47938150930094 -142.82584604486235,80.14925449040103" stroke="#00f" stroke-linecap="round" stroke-linejoin="round"/><polyline fill="none" points="115.39656246121575,146.13578085871325 117.89656246122722,145.46590787765456 119.72668948016891,143.63578085874317 120.39656246126901,141.1357808587428 119.72668948021033,138.63578085873132 117.89656246129896,136.80565383978964 115.39656246129857,136.13578085868954 112.89656246128709,136.80565383974823 111.0664354423454,138.63578085865961 110.3965624612453,141.13578085865998 111.06643544230398,143.63578085867147 112.89656246121535,145.46590787761315 115.39656246121572,146.13578085871325" stroke="#ffa500" stroke-linecap="round" stroke-linejoin="round"/><polyline fill="none" points="102.8198006858613,59.64919994101544 105.31980068587278,58.97932695995676 107.14992770481447,57.14919994104539 107.81980068591459,54.64919994104501 107.1499277048559,52.14919994103354 105.31980068594453,50.31907292209184 102.81980068594414,49.649199940991736 100.31980068593266,50.31907292205042 98.48967366699097,52.149199940961786 97.81980068589085,54.64919994096216 98.48967366694954,57.14919994097364 100.31980068586091,58.97932695991533 102.8198006858613,59.64919994101544" stroke="#ffa500" stroke-linecap="round" stroke-linejoin="round"/><polyline fill="none" points="134.98699933020964,-122.2671682757429 137.48699933022112,-122.93704125680158 139.31712634916283,-124.76716827571295 139.98699933026293,-127.26716827571333 139.31712634920424,-129.7671682757248 137.4869993302929,-131.5972952946665 134.98699933029252,-132.2671682757666 132.48699933028104,-131.59729529470792 130.65687231133933,-129.76716827579656 129.98699933023923,-127.26716827579618 130.65687231129792,-124.7671682757847 132.48699933020927,-122.937041256843 134.98699933020964,-122.26716827574289" stroke="#ffa500" stroke-linecap="round" stroke-linejoin="round"/><polyline fill="none" points="-64.43671159323915,-54.99174379388764 -61.93671159322767,-55.661616774946324 -60.106584574285975,-57.491743793857694 -59.43671159318586,-59.99174379385807 -60.10658457424454,-62.49174379386955 -61.93671159315591,-64.32187081281126 -64.43671159315629,-64.99174379391137 -66.93671159316777,-64.3218708128527 -68.76683861210947,-62.491743793941325 -69.43671159320958,-59.99174379394095 -68.7668386121509,-57.491743793929466 -66.93671159323954,-55.66161677498776 -64.43671159323915,-54.99174379388765" stroke="#00f" stroke-linecap="round" stroke-linejoin="round"/><polyline fill="none" points="-14.936318445371676,179.96228310481132 -12.436318445360197,179.29241012375263 -10.606191426418496,177.46228310484128 -9.936318445318381,174.9622831048409 -10.606191426377057,172.46228310482942 -12.436318445288423,170.63215608588771 -14.9363184452888,169.9622831047876 -17.43631844530028,170.63215608584628 -19.266445464241983,172.46228310475763 -19.9363184453421,174.962283104758 -19.266445464283425,177.46228310476948 -17.43631844537206,179.2924101237112 -14.936318445371683,179.96228310481132" stroke="#ffa500" stroke-linecap="round" stroke-linejoin="round"/><polyline fill="none" points="143.35466100360273,-64.2905780717399 145.8546610036142,-64.96045105279858 147.68478802255592,-66.79057807170994 148.35466100365605,-69.29057807171033 147.6847880225974,-71.79057807172181 145.85466100368603,-73.62070509066352 143.35466100368566,-74.29057807176363 140.85466100367418,-73.62070509070496 139.02453398473247,-71.79057807179359 138.35466100363234,-69.29057807179322 139.024533984691,-66.79057807178174 140.85466100360236,-64.96045105284003 143.35466100360273,-64.29057807173992" stroke="#ffa500" stroke-linecap="round" stroke-linejoin="round"/><polyline fill="none" points="-174.74176121933573,-8.494438205880245 -172.24176121932425,-9.164311186938916 -170.41163420038254,-10.994438205850278 -169.7417612192824,-13.494438205850654 -170.41163420034107,-15.994438205862139 -172.24176121925242,-17.824565224803845 -174.7417612192528,-18.494438205903965 -177.24176121926428,-17.824565224845294 -179.071888238206,-15.994438205933932 -179.7417612193061,-13.494438205933555 -179.07188823824745,-10.994438205922071 -177.2417612193361,-9.164311186980363 -174.74176121933573,-8.49443820588024" stroke="#008000" stroke-linecap="round" stroke-linejoin="round"/><polyline fill="none" points="54.5641998608985,3.26411425169034 57.06419986090998,2.594241270631671 58.89432687985169,0.7641142517203097 59.56419986095181,-1.7358857482800674 58.89432687989314,-4.235885748291552 57.06419986098178,-6.066012767233261 54.564199860981404,-6.735885748333385 52.06419986096992,-6.066012767274717 50.23407284202821,-4.235885748363357 49.564199860928085,-1.7358857483629797 50.23407284198675,0.7641142516485058 52.064199860898114,2.594241270590216 54.56419986089849,3.2641142516903416" stroke="#ffa500" stroke-linecap="round" stroke-linejoin="round"/><polyline fill="none" points="-194.50192030799667,-47.69565320842955 -192.0019203079852,-48.365526189488214 -190.17179328904348,-50.19565320839958 -189.50192030794335,-52.69565320839995 -190.171793289002,-55.19565320841144 -192.00192030791337,-57.02578022735315 -194.50192030791374,-57.69565320845328 -197.00192030792522,-57.02578022739461 -198.83204732686693,-55.19565320848325 -199.50192030796705,-52.695653208482874 -198.8320473269084,-50.195653208471384 -197.00192030799704,-48.365526189529675 -194.50192030799667,-47.69565320842955" stroke="#00f" stroke-linecap="round" stroke-linejoin="round"/><polyline fill="none" points="57.55896576194137,-141.8527163541809 60.05896576195286,-142.52258933523956 61.88909278089457,-144.3527163541509 62.5589657619947,-146.85271635415128 61.88909278093603,-149.35271635416277 60.05896576202467,-151.18284337310448 57.55896576202429,-151.8527163542046 55.058965762012804,-151.18284337314594 53.22883874307109,-149.3527163542346 52.55896576197096,-146.85271635423422 53.22883874302962,-144.35271635422274 55.058965761940975,-142.52258933528103 57.55896576194135,-141.8527163541809" stroke="#00f" stroke-linecap="round" stroke-linejoin="round"/><polyline fill="none" points="126.54681134853313,-31.010365345793808 129.04681134854462,-31.68023832685247 130.87693836748633,-33.51036534576383 131.54681134858646,-36.01036534576421 130.8769383675278,-38.510365345775696 129.04681134861644,-40.34049236471741 126.54681134861606,-41.01036534581755 124.04681134860458,-40.34049236475889 122.21668432966287,-38.51036534584753 121.54681134856274,-36.010365345847156 122.2166843296214,-33.510365345835666 124.04681134853276,-31.68023832689395 126.54681134853314,-31.010365345793815" stroke="#ffa500" stroke-linecap="round" stroke-linejoin="round"/><polyline fill="none" points="-54.925542949610275,58.24207087158529 -52.425542949598785,57.57219789052663 -50.59541593065707,55.742070871615276 -49.925542949556935,53.2420708716149 -50.595415930615594,50.74207087160341 -52.42554294952695,48.91194385266169 -54.925542949527326,48.24207087156156 -57.425542949538816,48.91194385262022 -59.25566996848053,50.742070871531574 -59.92554294958067,53.24207087153195 -59.25566996852201,55.74207087154344 -57.42554294961065,57.57219789048516 -54.925542949610275,58.24207087158529" stroke="#ffa500" stroke-linecap="round" stroke-linejoin="round"/><polyline fill="none" points="103.9033644378402,-127.69612766185054 106.40336443785169,-128.3660006429092 108.23349145679342,-130.19612766182055 108.90336443789356,-132.69612766182092 108.2334914568349,-135.1961276618324 106.40336443792354,-137.02625468077412 103.90336443792316,-137.69612766187424 101.40336443791166,-137.02625468081558 99.57323741896994,-135.19612766190423 98.9033644378698,-132.69612766190386 99.57323741892846,-130.19612766189238 101.40336443783981,-128.36600064295067 103.9033644378402,-127.69612766185053" stroke="#ffa500" stroke-linecap="round" stroke-linejoin="round"/><polyline fill="none" points="-83.87268750266102,84.63310649522 -81.37268750264953,83.96323351416135 -79.5425604837078,82.13310649524999 -78.87268750260766,79.6331064952496 -79.54256048366632,77.13310649523811 -81.37268750257768,75.30297947629639 -83.87268750257806,74.63310649519624 -86.37268750258956,75.3029794762549 -88.20281452153128,77.13310649516626 -88.87268750263142,79.63310649516664 -88.20281452157278,82.13310649517814 -86.37268750266142,83.96323351411986 -83.87268750266104,84.63310649522" stroke="#00f" stroke-linecap="round" stroke-linejoin="round"/><polyline fill="none" points="108.1974129000107,-58.88393153777457 110.6974129000222,-59.553804518833225 112.52753991896392,-61.38393153774458 113.19741290006407,-63.88393153774496 112.52753991900542,-66.38393153775645 110.69741290009406,-68.21405855669818 108.19741290009368,-68.88393153779832 105.69741290008218,-68.21405855673967 103.86728588114046,-66.38393153782832 103.19741290004032,-63.88393153782794 103.86728588109897,-61.383931537816444 105.69741290001032,-59.55380451887472 108.1974129000107,-58.88393153777458" stroke="#00f" stroke-linecap="round" stroke-linejoin="round"/><polyline fill="none" points="158.00842306102734,-90.88516008995823 160.50842306103883,-91.55503307101688 162.33855007998056,-93.38516008992823 163.00842306108072,-95.88516008992862 162.33855008002206,-98.38516008994011 160.5084230611107,-100.21528710888184 158.00842306111034,-100.88516008998198 155.50842306109885,-100.21528710892333 153.67829604215711,-98.38516009001198 153.00842306105696,-95.8851600900116 153.67829604211562,-93.3851600900001 155.50842306102697,-91.55503307105838 158.00842306102734,-90.88516008995823" stroke="#00f" stroke-linecap="round" stroke-linejoin="round"/><polyline fill="none" points="91.86862558690501,66.45261222984686 94.36862558691651,65.78273924878822 96.19875260585823,63.95261222987687 96.86862558695837,61.45261222987649 96.19875260589973,58.952612229865 94.36862558698837,57.122485210923266 91.868625586988,56.45261222982312 89.3686255869765,57.12248521088176 87.53849856803477,58.95261222979311 86.86862558693461,61.45261222979349 87.53849856799326,63.952612229804984 89.3686255869046,65.78273924874672 91.86862558690498,66.45261222984688" stroke="#ffa500" stroke-linecap="round" stroke-linejoin="round"/><polyline fill="none" points="105.7862778466886,22.98343403568817 108.2862778467001,22.313561054629524 110.11640486564184,20.483434035718176 110.786277846742,17.9834340357178 110.11640486568335,15.483434035706301 108.28627784677201,13.653307016764568 105.78627784677163,12.983434035664416 103.28627784676013,13.65330701672306 101.45615082781839,15.483434035634406 100.78627784671824,17.983434035634783 101.45615082777688,20.483434035646283 103.28627784668822,22.313561054588018 105.78627784668859,22.98343403568817" stroke="#ffa500" stroke-linecap="round" stroke-linejoin="round"/><polyline fill="none" points="-31.400038806738284,-69.3125435976215 -28.900038806726783,-69.98241657868014 -27.06991178778505,-71.81254359759149 -26.400038806684893,-74.31254359759187 -27.069911787743536,-76.81254359760337 -28.90003880665488,-78.6426706165451 -31.400038806655257,-79.31254359764526 -33.90003880666676,-78.64267061658661 -35.730165825608495,-76.81254359767527 -36.40003880670865,-74.31254359767489 -35.73016582565001,-71.81254359766339 -33.900038806738664,-69.98241657872165 -31.400038806738287,-69.3125435976215" stroke="#ffa500" stroke-linecap="round" stroke-linejoin="round"/><polyline fill="none" points="-59.74072473591668,37.24587492178021 -57.240724735905175,36.57600194072157 -55.41059771696344,34.74587492181022 -54.74072473586328,32.24587492180984 -55.41059771692192,29.74587492179834 -57.24072473583327,27.9157479028566 -59.740724735833645,27.245874921756442 -62.24072473584515,27.91574790281508 -64.07085175478689,29.745874921726426 -64.74072473588704,32.2458749217268 -64.07085175482841,34.745874921738306 -62.24072473591707,36.576001940680044 -59.74072473591669,37.2458749217802" stroke="#ffa500" stroke-linecap="round" stroke-linejoin="round"/><polyline fill="none" points="-161.84049211884258,31.802666329764875 -159.34049211883107,31.132793348706237 -157.51036509988933,29.302666329794892 -156.84049211878917,26.802666329794516 -157.5103650998478,24.302666329783012 -159.34049211875916,22.47253931084127 -161.84049211875953,21.80266632974111 -164.34049211877104,22.472539310799746 -166.17061913771278,24.302666329711087 -166.84049211881293,26.802666329711464 -166.1706191377543,29.302666329722967 -164.34049211884295,31.13279334866471 -161.84049211884258,31.80266632976487" stroke="#ffa500" stroke-linecap="round" stroke-linejoin="round"/><polyline fill="none" points="-11.70146679405215,-78.66118977284937 -9.201466794040646,-79.331062753908 -7.371339775098904,-81.16118977281934 -6.701466793998741,-83.66118977281972 -7.3713397750573755,-86.16118977283124 -9.201466793968716,-87.99131679177297 -11.701466793969093,-88.66118977287314 -14.201466793980597,-87.99131679181451 -16.03159381292234,-86.16118977290317 -16.7014667940225,-83.66118977290279 -16.031593812963866,-81.16118977289128 -14.201466794052525,-79.33106275394954 -11.701466794052148,-78.66118977284937" stroke="#00f" stroke-linecap="round" stroke-linejoin="round"/><polyline fill="none" points="-227.70688617783208,-21.875864969940743 -225.20688617782056,-22.545737950999374 -223.37675915887883,-24.375864969910715 -222.70688617777867,-26.875864969911092 -223.3767591588373,-29.3758649699226 -225.20688617774863,-31.205991988864344 -227.706886177749,-31.87586496996451 -230.2068861777605,-31.20599198890588 -232.03701319670225,-29.375864969994538 -232.7068861778024,-26.87586496999416 -232.03701319674377,-24.375864969982654 -230.20688617783244,-22.54573795104091 -227.70688617783208,-21.875864969940743" stroke="#ffa500" stroke-linecap="round" stroke-linejoin="round"/><polyline fill="none" points="-191.12191095752752,101.66379822682097 -188.621910957516,100.99392524576234 -186.79178393857427,99.163798226851 -186.1219109574741,96.66379822685062 -186.79178393853275,94.1637982268391 -188.62191095744407,92.33367120789735 -191.12191095744444,91.66379822679718 -193.62191095745595,92.33367120785582 -195.4520379763977,94.16379822676716 -196.12191095749785,96.66379822676754 -195.45203797643921,99.16379822677905 -193.6219109575279,100.9939252457208 -191.12191095752752,101.66379822682097" stroke="#ffa500" stroke-linecap="round" stroke-linejoin="round"/><polyline fill="none" points="161.33201919541935,126.73404631721802 163.83201919543086,126.06417333615939 165.6621462143726,124.23404631724804 166.33201919547278,121.73404631724767 165.66214621441415,119.23404631723616 163.83201919550282,117.40391929829441 161.33201919550245,116.73404631719424 158.83201919549094,117.40391929825287 157.0018921765492,119.23404631716421 156.33201919544902,121.7340463171646 157.00189217650765,124.23404631717611 158.83201919541898,126.06417333611786 161.33201919541935,126.73404631721803" stroke="#ffa500" stroke-linecap="round" stroke-linejoin="round"/><polyline fill="none" points="-180.86414820036424,18.224752732997395 -178.36414820035273,17.55487975193877 -176.534021181411,15.724752733027435 -175.8641482003108,13.224752733027058 -176.53402118136944,10.72475273301555 -178.36414820028077,8.894625714073797 -180.86414820028114,8.224752732973624 -183.36414820029265,8.894625714032248 -185.1942752192344,10.724752732943584 -185.8641482003346,13.22475273294396 -185.19427521927597,15.724752732955471 -183.36414820036464,17.554879751897225 -180.86414820036427,18.224752732997402" stroke="#f00" stroke-linecap="round" stroke-linejoin="round"/><polyline fill="none" points="101.79718166498799,-140.80444403445637 104.2971816649995,-141.474317015515 106.12730868394125,-143.30444403442633 106.79718166504142,-145.8044440344267 106.1273086839828,-148.3044440344382 104.29718166507146,-150.13457105337997 101.79718166507108,-150.80444403448016 99.29718166505957,-150.13457105342152 97.46705464611782,-148.3044440345102 96.79718166501763,-145.80444403450983 97.46705464607625,-143.30444403449832 99.29718166498759,-141.47431701555655 101.79718166498797,-140.80444403445637" stroke="#ffa500" stroke-linecap="round" stroke-linejoin="round"/><polyline fill="none" points="137.08779123097568,-100.16289014535178 139.5877912309872,-100.8327631264104 141.41791824992896,-102.66289014532173 142.08779123102914,-105.16289014532211 141.4179182499705,-107.66289014533362 139.58779123105919,-109.49301716427537 137.08779123105882,-110.16289014537556 134.5877912310473,-109.49301716431694 132.75766421210554,-107.66289014540561 132.08779123100535,-105.16289014540523 132.757664212064,-102.66289014539372 134.5877912309753,-100.83276312645197 137.08779123097568,-100.16289014535178" stroke="#ffa500" stroke-linecap="round" stroke-linejoin="round"/><polyline fill="none" points="177.49146631478246,-66.8984051117652 179.99146631479397,-67.56827809282382 181.82159333373573,-69.39840511173514 182.49146631483592,-71.89840511173553 181.82159333377732,-74.39840511174704 179.991466314866,-76.2285321306888 177.49146631486562,-76.89840511178899 174.9914663148541,-76.22853213073037 173.16133929591234,-74.39840511181905 172.49146631481216,-71.89840511181868 173.16133929587076,-69.39840511180716 174.9914663147821,-67.5682780928654 177.49146631478246,-66.89840511176521" stroke="#ffa500" stroke-linecap="round" stroke-linejoin="round"/><polyline fill="none" points="-164.41288801760948,29.26782763886785 -161.91288801759796,28.597954657809236 -160.0827609986562,26.767827638897906 -159.412888017556,24.26782763889753 -160.08276099861462,21.767827638886015 -161.91288801752594,19.937700619944252 -164.4128880175263,19.267827638844064 -166.91288801753782,19.937700619902678 -168.7430150364796,21.76782763881401 -169.41288801757977,24.267827638814385 -168.74301503652117,26.767827638825903 -166.91288801760984,28.597954657767666 -164.41288801760948,29.267827638867853" stroke="#00f" stroke-linecap="round" stroke-linejoin="round"/><polyline fill="none" points="55.75129785276072,-123.2331199421237 58.25129785277224,-123.90299292318231 60.081424871714006,-125.73311994209364 60.7512978528142,-128.23311994209402 60.08142487175559,-130.73311994210553 58.25129785284426,-132.5632469610473 55.751297852843884,-133.23311994214748 53.251297852832366,-132.56324696108888 51.4211708338906,-130.73311994217755 50.75129785279041,-128.23311994217718 51.42117083384902,-125.73311994216567 53.251297852760345,-123.9029929232239 55.75129785276072,-123.23311994212372" stroke="#ffa500" stroke-linecap="round" stroke-linejoin="round"/><polyline fill="none" points="128.5456676152631,-44.369167342002946 131.04566761527462,-45.039040323061556 132.8757946342164,-46.86916734197288 133.54566761531657,-49.36916734197326 132.87579463425797,-51.86916734198478 131.04566761534664,-53.699294360926544 128.54566761534628,-54.369167342026735 126.04566761533475,-53.699294360968125 124.21554059639298,-51.8691673420568 123.54566761529279,-49.36916734205642 124.21554059635139,-46.8691673420449 126.04566761526272,-45.03904032310314 128.54566761526308,-44.369167342002946" stroke="#ffa500" stroke-linecap="round" stroke-linejoin="round"/><polyline fill="none" points="144.02604549067618,100.28615465197082 146.5260454906877,99.61628167091222 148.35617250962946,97.78615465200089 149.02604549072964,95.2861546520005 148.35617250967104,92.78615465198898 146.5260454907597,90.95602763304721 144.02604549075934,90.28615465194702 141.52604549074783,90.95602763300562 139.69591847180607,92.78615465191695 139.02604549070588,95.28615465191733 139.6959184717645,97.78615465192885 141.5260454906758,99.61628167087062 144.02604549067618,100.28615465197082" stroke="#ffa500" stroke-linecap="round" stroke-linejoin="round"/><polyline fill="none" points="38.319561479566715,171.88241607741926 40.81956147957823,171.21254309636066 42.64968849852001,169.38241607744934 43.319561479620205,166.88241607744897 42.6496884985616,164.38241607743745 40.819561479650275,162.5522890584957 38.3195614796499,161.8824160773955 35.81956147963838,162.5522890584541 33.98943446069661,164.38241607736543 33.31956147959641,166.8824160773658 33.98943446065501,169.38241607737731 35.81956147956634,171.21254309631908 38.319561479566715,171.88241607741926" stroke="#ffa500" stroke-linecap="round" stroke-linejoin="round"/><polyline fill="none" points="-132.15857957407192,-48.45379703395314 -129.6585795740604,-49.12367001501174 -127.82845255511864,-50.95379703392307 -127.15857957401845,-53.45379703392344 -127.82845255507705,-55.95379703393497 -129.65857957398836,-57.78392405287674 -132.15857957398873,-58.45379703397694 -134.65857957400024,-57.78392405291834 -136.488706592942,-55.95379703400701 -137.15857957404222,-53.453797034006634 -136.48870659298362,-50.95379703399511 -134.6585795740723,-49.123670015053335 -132.15857957407192,-48.45379703395314" stroke="#00f" stroke-linecap="round" stroke-linejoin="round"/><polyline fill="none" points="-213.34378248007917,85.78906985838898 -210.84378248006766,85.11919687733038 -209.0136554611259,83.28906985841905 -208.34378248002568,80.78906985841867 -209.01365546108428,78.28906985840715 -210.8437824799956,76.45894283946537 -213.34378247999598,75.78906985836517 -215.8437824800075,76.45894283942377 -217.67390949894926,78.2890698583351 -218.34378248004947,80.78906985833548 -217.67390949899087,83.289069858347 -215.84378248007954,85.11919687728879 -213.34378248007917,85.78906985838898" stroke="#00f" stroke-linecap="round" stroke-linejoin="round"/><polyline fill="none" points="142.89199467004116,141.15574644340725 145.39199467005267,140.48587346234865 147.22212168899443,138.65574644343732 147.89199467009465,136.15574644343695 147.22212168903604,133.65574644342544 145.39199467012472,131.82561942448368 142.89199467012435,131.15574644338346 140.3919946701128,131.82561942444207 138.56186765117104,133.6557464433534 137.89199467007083,136.15574644335376 138.56186765112943,138.6557464433653 140.39199467004076,140.48587346230707 142.89199467004113,141.15574644340728" stroke="#ffa500" stroke-linecap="round" stroke-linejoin="round"/><polyline fill="none" points="-168.44005697325338,81.08838013051442 -165.94005697324184,80.41850714945582 -164.10992995430007,78.5883801305445 -163.44005697319986,76.08838013054411 -164.10992995425846,73.58838013053258 -165.9400569731698,71.7582531115908 -168.44005697317016,71.08838013049059 -170.9400569731817,71.75825311154918 -172.7701839921235,73.5883801304605 -173.4400569732237,76.08838013046088 -172.7701839921651,78.5883801304724 -170.94005697325377,80.41850714941418 -168.4400569732534,81.0883801305144" stroke="#ffa500" stroke-linecap="round" stroke-linejoin="round"/><polyline fill="none" points="-99.17596545989733,-43.552269744740585 -96.6759654598858,-44.22214272579918 -94.84583844094402,-46.0522697447105 -94.17596545984381,-48.55226974471088 -94.8458384409024,-51.0522697447224 -96.67596545981371,-52.88239676366418 -99.1759654598141,-53.552269744764395 -101.67596545982562,-52.8823967637058 -103.5060924787674,-51.05226974479448 -104.17596545986761,-48.5522697447941 -103.50609247880902,-46.05226974478258 -101.67596545989771,-44.2221427258408 -99.17596545989733,-43.552269744740585" stroke="#00f" stroke-linecap="round" stroke-linejoin="round"/><polyline fill="none" points="130.64110474687772,-46.34233926742001 133.14110474688925,-47.012212248478605 134.97123176583105,-48.842339267389924 135.64110474693126,-51.3423392673903 134.97123176587266,-53.84233926740183 133.14110474696133,-55.67246628634362 130.64110474696096,-56.34233926744383 128.14110474694942,-55.672466286385244 126.31097772800764,-53.842339267473925 125.64110474690743,-51.34233926747355 126.31097772796602,-48.842339267462016 128.14110474687735,-47.01221224852023 130.64110474687772,-46.342339267420016" stroke="#ffa500" stroke-linecap="round" stroke-linejoin="round"/><polyline fill="none" points="58.199233987891766,31.059113730668177 60.6992339879033,30.389240749609588 62.529361006845086,28.55911373069827 63.1992339879453,26.059113730697895 62.52936100688671,23.559113730686363 60.6992339879754,21.728986711744575 58.19923398797502,21.05911373064436 55.69923398796349,21.728986711702948 53.8691069690217,23.559113730614264 53.19923398792149,26.05911373061464 53.86910696898008,28.559113730626173 55.69923398789139,30.38924074956796 58.199233987891766,31.059113730668177" stroke="#00f" stroke-linecap="round" stroke-linejoin="round"/><polyline fill="none" points="64.41184534479771,114.31424734611205 66.91184534480924,113.64437436505347 68.74197236375103,111.81424734614215 69.41184534485124,109.31424734614177 68.74197236379266,106.81424734613023 66.91184534488134,104.98412032718844 64.41184534488096,104.31424734608822 61.91184534486943,104.98412032714681 60.08171832592764,106.81424734605812 59.41184534482742,109.31424734605851 60.08171832588601,111.81424734607005 61.91184534479732,113.64437436501184 64.4118453447977,114.31424734611205" stroke="#ffa500" stroke-linecap="round" stroke-linejoin="round"/><polyline fill="none" points="-171.08816680143067,-79.31727273227729 -168.58816680141913,-79.98714571333588 -166.75803978247734,-81.81727273224719 -166.08816680137713,-84.31727273224757 -166.7580397824357,-86.81727273225911 -168.58816680134703,-88.64739975120091 -171.0881668013474,-89.31727273230113 -173.58816680135894,-88.64739975124255 -175.41829382030073,-86.81727273233123 -176.08816680140094,-84.31727273233085 -175.41829382034237,-81.81727273231931 -173.58816680143104,-79.98714571337752 -171.08816680143067,-79.31727273227729" stroke="#ffa500" stroke-linecap="round" stroke-linejoin="round"/><polyline fill="none" points="-57.66498584209191,-64.73778642560619 -55.16498584208038,-65.40765940666478 -53.33485882313858,-67.23778642557609 -52.66498584203836,-69.73778642557647 -53.334858823096944,-72.23778642558801 -55.16498584200826,-74.06791344452981 -57.66498584200863,-74.73778642563003 -60.164985842020165,-74.06791344457145 -61.99511286096196,-72.23778642566013 -62.66498584206219,-69.73778642565975 -61.995112861003605,-67.23778642564821 -60.16498584209229,-65.40765940670641 -57.664985842091916,-64.73778642560619" stroke="#ffa500" stroke-linecap="round" stroke-linejoin="round"/><polyline fill="none" points="-104.0940226881429,63.70910984577813 -101.59402268813136,63.03923686471955 -99.76389566918957,61.209109845808236 -99.09402268808934,58.70910984580786 -99.76389566914791,56.20910984579633 -101.59402268805923,54.37898282685453 -104.09402268805961,53.709109845754305 -106.59402268807115,54.37898282681289 -108.42414970701294,56.2091098457242 -109.09402268811317,58.709109845724576 -108.4241497070546,61.209109845736116 -106.59402268814328,63.03923686467791 -104.0940226881429,63.70910984577814" stroke="#ffa500" stroke-linecap="round" stroke-linejoin="round"/><polyline fill="none" points="47.51021289986054,85.86365824876525 50.01021289987208,85.19378526770667 51.84033991881388,83.36365824879536 52.51021289991411,80.86365824879498 51.84033991885553,78.36365824878344 50.010212899944214,76.53353122984164 47.51021289994384,75.86365824874142 45.0102128999323,76.53353122979999 43.1800858809905,78.3636582487113 42.51021289989027,80.86365824871169 43.180085880948845,83.36365824872323 45.01021289986015,85.19378526766502 47.51021289986053,85.86365824876525" stroke="#00f" stroke-linecap="round" stroke-linejoin="round"/><polyline fill="none" points="-37.32904804796232,149.41178269279348 -34.82904804795078,148.7419097117349 -32.998921029008976,146.9117826928236 -32.32904804790874,144.41178269282324 -32.99892102896732,141.9117826928117 -34.82904804787862,140.0816556738699 -37.329048047879,139.41178269276966 -39.82904804789054,140.08165567382824 -41.65917506683234,141.91178269273954 -42.329048047932574,144.4117826927399 -41.659175066874,146.91178269275144 -39.829048047962694,148.74190971169324 -37.32904804796232,149.41178269279348" stroke="#ffa500" stroke-linecap="round" stroke-linejoin="round"/><polyline fill="none" points="-101.29375779150828,33.27055172897563 -98.79375779149674,32.60067874791706 -96.96363077255494,30.770551729005753 -96.29375779145471,28.270551729005376 -96.96363077251328,25.770551728993837 -98.7937577914246,23.940424710052035 -101.29375779142498,23.2705517289518 -103.79375779143652,23.940424710010376 -105.62388481037833,25.77055172892168 -106.29375779147857,28.270551728922058 -105.62388481042,30.770551728933597 -103.7937577915087,32.6006787478754 -101.29375779150831,33.27055172897563" stroke="#00f" stroke-linecap="round" stroke-linejoin="round"/><polyline fill="none" points="-146.35364777889743,101.00370986998097 -143.8536477788859,100.33383688892239 -142.0235207599441,98.5037098700111 -141.35364777884385,96.00370987001071 -142.02352075990242,93.50370986999917 -143.85364777881372,91.67358285105736 -146.3536477788141,91.00370986995712 -148.85364777882563,91.6735828510157 -150.68377479776743,93.503709869927 -151.35364777886767,96.00370986992738 -150.6837747978091,98.50370986993892 -148.8536477788978,100.33383688888073 -146.35364777889743,101.00370986998097" stroke="#ffa500" stroke-linecap="round" stroke-linejoin="round"/><polyline fill="none" points="67.67010180903678,25.28077534552364 70.17010180904832,24.610902364465073 72.00022882799013,22.78077534555377 72.67010180909037,20.280775345553394 72.0002288280318,17.78077534554185 70.1701018091205,15.950648326600042 67.67010180912013,15.280775345499803 65.17010180910859,15.95064832655837 63.33997479016678,17.780775345469674 62.67010180906654,20.28077534547005 63.339974790125105,22.780775345481594 65.17010180903641,24.610902364423403 67.6701018090368,25.280775345523644" stroke="#ffa500" stroke-linecap="round" stroke-linejoin="round"/><polyline fill="none" points="-138.58722808116838,-22.644255302500834 -136.08722808115684,-23.314128283559402 -134.257101062215,-25.144255302470704 -133.58722808111477,-27.64425530247108 -134.25710106217335,-30.144255302482623 -136.08722808108465,-31.974382321424436 -138.58722808108502,-32.64425530252468 -141.08722808109655,-31.974382321466113 -142.91735510003838,-30.14425530255481 -143.58722808113862,-27.644255302554434 -142.91735510008004,-25.144255302542888 -141.08722808116875,-23.314128283601075 -138.58722808116838,-22.64425530250083" stroke="#008000" stroke-linecap="round" stroke-linejoin="round"/><polyline fill="none" points="-132.4615767032926,-31.797794802060928 -129.96157670328105,-32.46766778311949 -128.13144968433923,-34.297794802030786 -127.46157670323899,-36.79779480203116 -128.13144968429756,-39.29779480204271 -129.96157670320886,-41.127921820984525 -132.46157670320923,-41.79779480208477 -134.96157670322077,-41.12792182102621 -136.7917037221626,-39.297794802114915 -137.46157670326284,-36.79779480211454 -136.79170372220426,-34.29779480210299 -134.96157670329296,-32.467667783161176 -132.4615767032926,-31.797794802060928" stroke="#00f" stroke-linecap="round" stroke-linejoin="round"/><polyline fill="none" points="7.023095127605514,168.4821251866928 9.52309512761706,167.81225220563422 11.353222146558876,165.98212518672293 12.023095127659124,163.48212518672256 11.353222146600563,160.98212518671102 9.523095127689265,159.1519981677692 7.023095127688888,158.48212518666895 4.523095127677342,159.1519981677275 2.692968108735525,160.9821251866388 2.0230951276352758,163.48212518663917 2.692968108693835,165.9821251866507 4.523095127605133,167.81225220559253 7.02309512760551,168.48212518669277" stroke="#00f" stroke-linecap="round" stroke-linejoin="round"/><polyline fill="none" points="-175.35279090804386,44.41643586726903 -172.85279090803232,43.74656288621047 -171.0226638890905,41.91643586729917 -170.35279090799025,39.416435867298794 -171.0226638890488,36.91643586728725 -172.8527909079601,35.08630884834543 -175.35279090796047,34.416435867245184 -177.852790907972,35.086308848303744 -179.68291792691383,36.91643586721504 -180.35279090801407,39.41643586721542 -179.68291792695553,41.916435867226966 -177.85279090804423,43.74656288616879 -175.35279090804386,44.416435867269044" stroke="#00f" stroke-linecap="round" stroke-linejoin="round"/><polyline fill="none" points="113.52173816710248,121.68167456696382 116.02173816711404,121.01180158590526 117.85186518605586,119.18167456699396 118.52173816715612,116.68167456699358 117.85186518609756,114.18167456698202 116.02173816718626,112.3515475480402 113.52173816718587,111.68167456693995 111.02173816717432,112.3515475479985 109.1916111482325,114.1816745669098 108.52173816713224,116.68167456691019 109.1916111481908,119.18167456692174 111.0217381671021,121.01180158586357 113.52173816710248,121.68167456696382" stroke="#ffa500" stroke-linecap="round" stroke-linejoin="round"/><polyline fill="none" points="-82.7456643364483,52.44081388677385 -80.24566433643675,51.7709409057153 -78.41553731749492,49.940813886804 -77.74566433639467,47.440813886803625 -78.41553731745323,44.94081388679207 -80.24566433636453,43.11068686785025 -82.74566433636491,42.44081388674999 -85.24566433637646,43.110686867808546 -87.07579135531829,44.94081388671984 -87.74566433641854,47.440813886720214 -87.07579135536,49.94081388673177 -85.2456643364487,51.77094090567359 -82.74566433644831,52.440813886773846" stroke="#ffa500" stroke-linecap="round" stroke-linejoin="round"/><polyline fill="none" points="124.7092861965513,-59.61450592500144 127.20928619656286,-60.28437890605999 129.03941321550468,-62.11450592497128 129.70928619660495,-64.61450592497167 129.0394132155464,-67.11450592498322 127.2092861966351,-68.94463294392504 124.70928619663472,-69.6145059250253 122.20928619662317,-68.94463294396675 120.37915917768134,-67.11450592505545 119.70928619658109,-64.61450592505508 120.37915917763964,-62.11450592504353 122.20928619655093,-60.28437890610171 124.70928619655132,-59.614505925001446" stroke="#ffa500" stroke-linecap="round" stroke-linejoin="round"/><polyline fill="none" points="-131.41661517488768,124.56077753979358 -128.91661517487614,123.89090455873503 -127.08648815593432,122.06077753982373 -126.41661517483406,119.56077753982335 -127.08648815589261,117.0607775398118 -128.9166151748039,115.23065052086997 -131.41661517480426,114.56077753976972 -133.91661517481583,115.23065052082826 -135.74674219375765,117.06077753973956 -136.41661517485792,119.56077753973995 -135.74674219379938,122.0607775397515 -133.91661517488808,123.89090455869332 -131.4166151748877,124.56077753979359" stroke="#ffa500" stroke-linecap="round" stroke-linejoin="round"/><polyline fill="none" points="87.25291334009528,-14.60312107373916 89.75291334010683,-15.272994054797707 91.58304035904865,-17.103121073708998 92.25291334014892,-19.603121073709374 91.58304035909038,-22.103121073720928 89.75291334017909,-23.933248092662758 87.25291334017871,-24.603121073763024 84.75291334016715,-23.933248092704478 82.92278632122532,-22.103121073793186 82.25291334012505,-19.60312107379281 82.9227863211836,-17.103121073781253 84.75291334009488,-15.27299405483942 87.25291334009526,-14.603121073739155" stroke="#ffa500" stroke-linecap="round" stroke-linejoin="round"/><polyline fill="none" points="-196.22658799919424,17.00697247073817 -193.72658799918267,16.337099489679623 -191.89646098024085,14.506972470768334 -191.22658799914058,12.006972470767957 -191.89646098019912,9.5069724707564 -193.72658799911042,7.676845451814567 -196.2265879991108,7.0069724707143 -198.72658799912236,7.676845451772843 -200.55671501806418,9.506972470684133 -201.22658799916445,12.00697247068451 -200.5567150181059,14.506972470696066 -198.7265879991946,16.3370994896379 -196.22658799919424,17.00697247073817" stroke="#008000" stroke-linecap="round" stroke-linejoin="round"/><polyline fill="none" points="-144.13547196040122,84.1645109169963 -141.63547196038965,83.49463793593776 -139.80534494144783,81.66451091702648 -139.13547196034756,79.16451091702609 -139.8053449414061,76.66451091701454 -141.6354719603174,74.8343838980727 -144.13547196031777,74.16451091697243 -146.63547196032934,74.83438389803098 -148.46559897927116,76.66451091694226 -149.13547196037143,79.16451091694265 -148.4655989793129,81.6645109169542 -146.6354719604016,83.49463793589604 -144.13547196040122,84.1645109169963" stroke="#00f" stroke-linecap="round" stroke-linejoin="round"/><polyline fill="none" points="-63.24949980693418,27.02264500749585 -60.74949980692262,26.35277202643731 -58.919372787980784,24.522645007526023 -58.249499806880515,22.022645007525647 -58.919372787939054,19.522645007514086 -60.74949980685034,17.69251798857225 -63.249499806850714,17.022645007471976 -65.74949980686227,17.692517988530515 -67.57962682580411,19.522645007441803 -68.24949980690438,22.02264500744218 -67.57962682584585,24.52264500745374 -65.74949980693457,26.352772026395577 -63.24949980693419,27.02264500749585" stroke="#ffa500" stroke-linecap="round" stroke-linejoin="round"/><polyline fill="none" points="117.55012526472261,127.62115654548792 120.05012526473416,126.95128356442939 121.880252283676,125.1211565455181 122.55012526477627,122.62115654551772 121.88025228371774,120.12115654550615 120.05012526480645,118.29102952656432 117.55012526480607,117.62115654546405 115.0501252647945,118.29102952652258 113.21999824585266,120.12115654543386 112.55012526475238,122.62115654543425 113.21999824581091,125.12115654544581 115.0501252647222,126.95128356438765 117.55012526472257,127.62115654548793" stroke="#00f" stroke-linecap="round" stroke-linejoin="round"/><polyline fill="none" points="-245.16334622671832,-51.04242616962666 -242.66334622670675,-51.71229915068519 -240.8332192077649,-53.542426169596474 -240.16334622666463,-56.04242616959685 -240.83321920772318,-58.54242616960841 -242.66334622663445,-60.372553188550256 -245.16334622663481,-61.04242616965053 -247.66334622664638,-60.372553188592 -249.49347324558823,-58.542426169680716 -250.1633462266885,-56.04242616968034 -249.49347324562996,-53.54242616966878 -247.6633462267187,-51.712299150726935 -245.16334622671832,-51.04242616962665" stroke="#ffa500" stroke-linecap="round" stroke-linejoin="round"/><polyline fill="none" points="-117.82837447922067,102.60357659331316 -115.3283744792091,101.93370361225463 -113.49824746026727,100.10357659334335 -112.82837447916698,97.60357659334296 -113.49824746022551,95.1035765933314 -115.3283744791368,93.27344957438955 -117.82837447913718,92.60357659328926 -120.32837447914875,93.2734495743478 -122.1585014980906,95.10357659325908 -122.82837447919088,97.60357659325946 -122.15850149813235,100.10357659327103 -120.32837447922107,101.93370361221288 -117.82837447922068,102.60357659331316" stroke="#ffa500" stroke-linecap="round" stroke-linejoin="round"/><polyline fill="none" points="-234.24559996632541,88.56887043576131 -231.74559996631385,87.89899745470278 -229.915472947372,86.0688704357915 -229.2455999662717,83.56887043579113 -229.91547294733022,81.06887043577956 -231.74559996624149,79.2387434168377 -234.24559996624185,78.56887043573742 -236.74559996625342,79.23874341679596 -238.57572698519527,81.06887043570724 -239.24559996629557,83.56887043570762 -238.57572698523705,86.06887043571919 -236.74559996632578,87.89899745466104 -234.24559996632541,88.56887043576133" stroke="#ffa500" stroke-linecap="round" stroke-linejoin="round"/><polyline fill="none" points="-143.7530325918209,-18.43329147878335 -141.25303259180933,-19.103164459841878 -139.42290557286748,-20.93329147875316 -138.75303259176718,-23.433291478753535 -139.4229055728257,-25.933291478765103 -141.25303259173697,-27.763418497706954 -143.75303259173734,-28.43329147880724 -146.2530325917489,-27.763418497748717 -148.08315961069076,-25.93329147883744 -148.75303259179105,-23.433291478837063 -148.08315961073254,-20.933291478825495 -146.25303259182127,-19.103164459883644 -143.7530325918209,-18.433291478783353" stroke="#008000" stroke-linecap="round" stroke-linejoin="round"/><polyline fill="none" points="-223.91954224548076,-50.30461398180993 -221.4195422454692,-50.974486962868454 -219.58941522652734,-52.80461398177973 -218.91954224542704,-55.30461398178011 -219.58941522648556,-57.804613981791675 -221.41954224539683,-59.63474100073353 -223.9195422453972,-60.30461398183382 -226.41954224540876,-59.63474100077529 -228.24966926435062,-57.804613981864016 -228.9195422454509,-55.30461398186364 -228.2496692643924,-52.80461398185207 -226.41954224548113,-50.97448696291022 -223.91954224548076,-50.30461398180993" stroke="#ffa500" stroke-linecap="round" stroke-linejoin="round"/><polyline fill="none" points="-154.07780201254187,-34.386971357633286 -151.5778020125303,-35.05684433869181 -149.74767499358845,-36.88697135760309 -149.07780201248815,-39.386971357603464 -149.74767499354667,-41.88697135761503 -151.57780201245794,-43.71709837655689 -154.0778020124583,-44.38697135765718 -156.57780201246987,-43.71709837659866 -158.40792903141173,-41.886971357687386 -159.07780201251202,-39.38697135768701 -158.4079290314535,-36.88697135767544 -156.57780201254224,-35.05684433873358 -154.07780201254187,-34.386971357633286" stroke="#00f" stroke-linecap="round" stroke-linejoin="round"/><polyline fill="none" points="83.81810629727235,-107.7541498088341 86.31810629728392,-108.42402278989262 88.14823331622577,-110.25414980880389 88.81810629732607,-112.75414980880427 88.14823331626755,-115.25414980881584 86.31810629735628,-117.08427682775769 83.8181062973559,-117.75414980885799 81.31810629734433,-117.08427682779947 79.48797927840248,-115.2541498088882 78.81810629730218,-112.75414980888782 79.4879792783607,-110.25414980887625 81.31810629727197,-108.42402278993438 83.81810629727235,-107.75414980883409" stroke="#00f" stroke-linecap="round" stroke-linejoin="round"/><polyline fill="none" points="-209.55093922056085,-15.935807935800064 -207.05093922054928,-16.60568091685858 -205.22081220160743,-18.435807935769855 -204.55093922050713,-20.93580793577023 -205.22081220156565,-23.435807935781803 -207.05093922047692,-25.26593495472366 -209.5509392204773,-25.93580793582396 -212.05093922048886,-25.26593495476544 -213.8810662394307,-23.435807935854168 -214.550939220531,-20.93580793585379 -213.8810662394725,-18.43580793584222 -212.05093922056122,-16.605680916900358 -209.55093922056085,-15.935807935800058" stroke="#00f" stroke-linecap="round" stroke-linejoin="round"/><polyline fill="none" points="50.22883125655974,85.69427716985153 52.72883125657131,85.02440418879301 54.55895827551317,83.19427716988174 55.22883125661347,80.69427716988136 54.55895827555495,78.19427716986979 52.72883125664368,76.36415015092793 50.2288312566433,75.69427716982763 47.72883125663173,76.36415015088615 45.89870423768987,78.19427716979742 45.228831256589565,80.6942771697978 45.898704237648076,83.19427716980937 47.728831256559346,85.02440418875123 50.22883125655972,85.69427716985153" stroke="#ffa500" stroke-linecap="round" stroke-linejoin="round"/><polyline fill="none" points="-152.72701732782008,49.82541989067354 -150.2270173278085,49.155546909615026 -148.39689030886666,47.325419890703756 -147.72701732776636,44.82541989070338 -148.39689030882488,42.325419890691805 -150.22701732773615,40.49529287174994 -152.72701732773652,39.825419890649634 -155.2270173277481,40.495292871708145 -157.05714434668994,42.325419890619415 -157.72701732779024,44.82541989061979 -157.05714434673172,47.325419890631366 -155.22701732782045,49.15554690957323 -152.72701732782008,49.82541989067354" stroke="#008000" stroke-linecap="round" stroke-linejoin="round"/><polyline fill="none" points="84.64249403181684,50.11799424049723 87.14249403182842,49.44812125943872 88.97262105077029,47.61799424052745 89.64249403187058,45.117994240527075 88.97262105081207,42.6179942405155 87.1424940319008,40.787867221573634 84.64249403190041,40.11799424047333 82.14249403188883,40.78786722153184 80.31236701294696,42.61799424044311 79.64249403184665,45.11799424044349 80.31236701290516,47.61799424045506 82.14249403181643,49.44812125939693 84.64249403181681,50.11799424049723" stroke="#ffa500" stroke-linecap="round" stroke-linejoin="round"/><polyline fill="none" points="41.74572132775429,-156.1082053061955 44.245721327765864,-156.778078287254 46.07584834670773,-158.60820530616527 46.745721327808035,-161.10820530616564 46.075848346749524,-163.6082053061772 44.245721327838254,-165.4383323251191 41.74572132783788,-166.1082053062194 39.2457213278263,-165.43833232516087 37.41559430888444,-163.6082053062496 36.745721327784125,-161.10820530624923 37.415594308842635,-158.60820530623766 39.245721327753905,-156.77807828729578 41.74572132775428,-156.1082053061955" stroke="#ffa500" stroke-linecap="round" stroke-linejoin="round"/><polyline fill="none" points="-14.153607775296662,167.06994131106785 -11.653607775285083,166.40006833000933 -9.823480756343214,164.56994131109806 -9.153607775242904,162.0699413110977 -9.82348075630141,159.56994131108613 -11.653607775212679,157.73981429214425 -14.153607775213056,157.06994131104395 -16.653607775224636,157.73981429210247 -18.483734794166505,159.56994131101374 -19.153607775266817,162.0699413110141 -18.483734794208313,164.56994131102567 -16.653607775297047,166.40006832996755 -14.15360777529667,167.06994131106788" stroke="#ffa500" stroke-linecap="round" stroke-linejoin="round"/><polyline fill="none" points="146.10745062821357,-114.42092528214071 148.60745062822514,-115.09079826319922 150.43757764716702,-116.92092528211049 151.10745062826734,-119.42092528211087 150.43757764720883,-121.92092528212245 148.60745062829756,-123.75105230106433 146.1074506282972,-124.42092528216465 143.60745062828562,-123.75105230110614 141.77732360934374,-121.92092528219487 141.1074506282434,-119.42092528219449 141.7773236093019,-116.9209252821829 143.60745062821317,-115.09079826324103 146.10745062821354,-114.42092528214071" stroke="#ffa500" stroke-linecap="round" stroke-linejoin="round"/><polyline fill="none" points="50.389069349440675,-113.16306848984851 52.88906934945226,-113.83294147090702 54.71919636839413,-115.66306848981829 55.38906934949445,-118.16306848981867 54.719196368435945,-120.66306848983025 52.88906934952468,-122.49319550877213 50.389069349524306,-123.16306848987244 47.889069349512724,-122.49319550881394 46.05894233057085,-120.66306848990267 45.38906934947053,-118.16306848990229 46.058942330529035,-115.6630684898907 47.8890693494403,-113.83294147094882 50.389069349440675,-113.16306848984851" stroke="#ffa500" stroke-linecap="round" stroke-linejoin="round"/><polyline fill="none" points="78.22211091355548,-65.58501632930974 80.72211091356706,-66.25488931036824 82.55223793250894,-68.08501632927951 83.22211091360926,-70.5850163292799 82.55223793255075,-73.08501632929148 80.72211091363948,-74.91514334823336 78.2221109136391,-75.58501632933368 75.72211091362752,-74.91514334827518 73.89198389468564,-73.08501632936391 73.22211091358531,-70.58501632936353 73.89198389464381,-68.08501632935194 75.72211091355508,-66.25488931041006 78.22211091355547,-65.58501632930974" stroke="#00f" stroke-linecap="round" stroke-linejoin="round"/><polyline fill="none" points="155.29944166730832,-93.47892205119503 157.7994416673199,-94.14879503225353 159.6295686862618,-95.97892205116479 160.29944166736212,-98.47892205116517 159.62956868630363,-100.97892205117675 157.79944166739236,-102.80904907011863 155.299441667392,-103.47892205121896 152.7994416673804,-102.80904907016046 150.9693146484385,-100.9789220512492 150.2994416673382,-98.47892205124882 150.96931464839668,-95.97892205123723 152.79944166730795,-94.14879503229535 155.29944166730832,-93.47892205119503" stroke="#00f" stroke-linecap="round" stroke-linejoin="round"/><polyline fill="none" points="-234.58687773867936,-34.161474370287735 -232.08687773866777,-34.83134735134623 -230.2567507197259,-36.661474370257494 -229.58687773862556,-39.16147437025787 -230.25675071968405,-41.66147437026946 -232.08687773859532,-43.49160138921134 -234.5868777385957,-44.161474370311666 -237.08687773860728,-43.49160138925317 -238.91700475754917,-41.66147437034191 -239.5868777386495,-39.16147437034153 -238.917004757591,-36.66147437032994 -237.08687773867973,-34.83134735138806 -234.58687773867936,-34.161474370287735" stroke="#00f" stroke-linecap="round" stroke-linejoin="round"/><polyline fill="none" points="119.04310512359169,-84.72498408251343 121.54310512360327,-85.39485706357192 123.37323214254515,-87.22498408248318 124.04310512364547,-89.72498408248356 123.37323214258699,-92.22498408249514 121.54310512367573,-94.05511110143702 119.04310512367535,-94.72498408253735 116.54310512366376,-94.05511110147886 114.71297810472188,-92.2249840825676 114.04310512362156,-89.72498408256722 114.71297810468005,-87.22498408255564 116.5431051235913,-85.39485706361376 119.04310512359169,-84.72498408251343" stroke="#00f" stroke-linecap="round" stroke-linejoin="round"/><polyline fill="none" points="-154.14789559815293,-74.70066628207486 -151.64789559814133,-75.37053926313335 -149.81776857919945,-77.20066628204461 -149.14789559809913,-79.70066628204499 -149.81776857915762,-82.20066628205657 -151.64789559806889,-84.03079330099845 -154.14789559806925,-84.70066628209878 -156.64789559808085,-84.03079330104029 -158.47802261702273,-82.20066628212903 -159.14789559812306,-79.70066628212865 -158.47802261706457,-77.20066628211707 -156.6478955981533,-75.37053926317517 -154.14789559815293,-74.70066628207485" stroke="#ffa500" stroke-linecap="round" stroke-linejoin="round"/><polyline fill="none" points="-222.3305324444659,82.62049203310222 -219.8305324444543,81.95061905204373 -218.0004054255124,80.12049203313248 -217.33053244441209,77.62049203313211 -218.00040542547057,75.12049203312051 -219.83053244438184,73.29036501417862 -222.33053244438221,72.62049203307829 -224.8305324443938,73.29036501413678 -226.6606594633357,75.12049203304804 -227.33053244443602,77.62049203304842 -226.66065946337753,80.12049203306002 -224.83053244446626,81.95061905200191 -222.3305324444659,82.62049203310225" stroke="#ffa500" stroke-linecap="round" stroke-linejoin="round"/><polyline fill="none" points="-114.55049485687158,54.63477918468 -112.05049485685998,53.96490620362152 -110.22036783791809,52.13477918471026 -109.55049485681775,49.634779184709885 -110.22036783787624,47.134779184698296 -112.0504948567875,45.3046521657564 -114.55049485678788,44.63477918465607 -117.05049485679947,45.30465216571455 -118.88062187574137,47.134779184625806 -119.55049485684171,49.63477918462618 -118.88062187578322,52.13477918463777 -117.05049485687196,53.964906203579666 -114.55049485687158,54.634779184680006" stroke="#00f" stroke-linecap="round" stroke-linejoin="round"/><polyline fill="none" points="-183.27063763442766,23.330026533805437 -180.77063763441606,22.660153552746955 -178.94051061547418,20.8300265338357 -178.27063763437386,18.330026533835323 -178.94051061543234,15.83002653382373 -180.7706376343436,13.999899514881836 -183.27063763434396,13.330026533781497 -185.77063763435555,13.99989951483998 -187.60076465329746,15.830026533751234 -188.2706376343978,18.33002653375161 -187.6007646533393,20.830026533763203 -185.77063763442806,22.660153552705097 -183.2706376344277,23.330026533805437" stroke="#008000" stroke-linecap="round" stroke-linejoin="round"/><polyline fill="none" points="97.84838976674946,-27.98831218094211 100.34838976676106,-28.658185162000592 102.17851678570295,-30.488312180911844 102.8483897668033,-32.988312180912224 102.17851678574482,-35.48831218092382 100.34838976683356,-37.318439199865715 97.84838976683318,-37.988312180966055 95.34838976682158,-37.31843919990757 93.51826274787969,-35.48831218099632 92.84838976677935,-32.98831218099594 93.51826274783782,-30.488312180984348 95.34838976674908,-28.65818516204245 97.84838976674946,-27.988312180942106" stroke="#ffa500" stroke-linecap="round" stroke-linejoin="round"/><polyline fill="none" points="62.674292210367014,-137.17608689912004 65.17429221037861,-137.84595988017853 67.0044192293205,-139.67608689908977 67.67429221042084,-142.17608689909014 67.00441922936237,-144.67608689910173 65.17429221045111,-146.50621391804364 62.67429221045074,-147.176086899144 60.17429221043914,-146.5062139180855 58.34416519149724,-144.67608689917427 57.67429221039689,-142.1760868991739 58.34416519145537,-139.6760868991623 60.174292210366616,-137.8459598802204 62.67429221036699,-137.17608689912004" stroke="#ffa500" stroke-linecap="round" stroke-linejoin="round"/><polyline fill="none" points="-184.06970731799342,-30.0833515002141 -181.56970731798182,-30.753224481272575 -179.73958029903991,-32.583351500183824 -179.06970731793956,-35.0833515001842 -179.73958029899805,-37.583351500195796 -181.5697073179093,-39.4134785191377 -184.06970731790966,-40.083351500238045 -186.56970731792126,-39.41347851917957 -188.39983433686317,-37.58335150026832 -189.06970731796352,-35.083351500267945 -188.39983433690506,-32.58335150025635 -186.56970731799382,-30.753224481314447 -184.06970731799345,-30.0833515002141" stroke="#00f" stroke-linecap="round" stroke-linejoin="round"/><polyline fill="none" points="102.7425109176776,-101.47202976849684 105.2425109176892,-102.14190274955531 107.07263793663111,-103.97202976846657 107.74251091773147,-106.47202976846695 107.07263793667299,-108.97202976847855 105.24251091776175,-110.80215678742046 102.74251091776136,-111.47202976852081 100.24251091774977,-110.80215678746234 98.41238389880786,-108.9720297685511 97.7425109177075,-106.47202976855071 98.41238389876598,-103.97202976853912 100.24251091767722,-102.14190274959721 102.7425109176776,-101.47202976849685" stroke="#00f" stroke-linecap="round" stroke-linejoin="round"/><polyline fill="none" points="87.72661237720327,-58.57319701808007 90.22661237721486,-59.24306999913854 92.05673939615677,-61.07319701804979 92.72661237725713,-63.573197018050166 92.05673939619865,-66.07319701806176 90.22661237728741,-67.90332403700367 87.72661237728703,-68.57319701810403 85.22661237727543,-67.90332403704555 83.39648535833352,-66.07319701813431 82.72661237723317,-63.57319701813393 83.39648535829164,-61.07319701812233 85.22661237720288,-59.24306999918042 87.72661237720327,-58.573197018080066" stroke="#ffa500" stroke-linecap="round" stroke-linejoin="round"/><polyline fill="none" points="-214.4303844849485,68.01921826652622 -211.9303844849369,67.34934528546775 -210.10025746599499,65.5192182665565 -209.43038448489463,63.01921826655613 -210.1002574659531,60.51921826654453 -211.93038448486433,58.68909124760262 -214.4303844848647,58.019218266502264 -216.9303844848763,58.68909124756073 -218.7605115038182,60.51921826647198 -219.43038448491856,63.01921826647236 -218.7605115038601,65.51921826648396 -216.93038448494886,67.34934528542587 -214.4303844849485,68.01921826652622" stroke="#ffa500" stroke-linecap="round" stroke-linejoin="round"/><polyline fill="none" points="-186.00969987423727,15.272604804755794 -183.50969987422567,14.602731823697326 -181.67957285528377,12.77260480478608 -181.0096998741834,10.272604804785702 -181.67957285524187,7.772604804774101 -183.5096998741531,5.94247778583219 -186.00969987415348,5.272604804731833 -188.50969987416508,5.942477785790299 -190.339826893107,7.772604804701544 -191.00969987420734,10.272604804701922 -190.33982689314888,12.772604804713525 -188.50969987423764,14.602731823655438 -186.00969987423727,15.272604804755797" stroke="#008000" stroke-linecap="round" stroke-linejoin="round"/><polyline fill="none" points="-92.42118132453184,29.271748275529383 -89.92118132452023,28.60187529447092 -88.09105430557833,26.771748275559673 -87.42118132447797,24.271748275559297 -88.09105430553643,21.771748275547694 -89.92118132444767,19.941621256605778 -92.42118132444806,19.271748275505416 -94.92118132445967,19.94162125656388 -96.75130834340158,21.771748275475126 -97.42118132450193,24.271748275475503 -96.75130834344347,26.771748275487106 -94.92118132453223,28.60187529442902 -92.42118132453184,29.271748275529383" stroke="#ffa500" stroke-linecap="round" stroke-linejoin="round"/><polyline fill="none" points="-135.46422523813408,-38.93799317961711 -132.96422523812248,-39.60786616067557 -131.13409821918057,-41.43799317958681 -130.46422523808022,-43.93799317958719 -131.13409821913868,-46.43799317959879 -132.96422523804992,-48.26812019854071 -135.4642252380503,-48.93799317964107 -137.96422523806189,-48.26812019858261 -139.7943522570038,-46.437993179671366 -140.46422523810415,-43.93799317967099 -139.7943522570457,-41.43799317965939 -137.96422523813445,-39.60786616071747 -135.46422523813408,-38.93799317961711" stroke="#ffa500" stroke-linecap="round" stroke-linejoin="round"/><polyline fill="none" points="-146.58891835630376,-24.30710861844564 -144.08891835629217,-24.9769815995041 -142.25879133735026,-26.80710861841534 -141.5889183562499,-29.307108618415718 -142.25879133730837,-31.807108618427325 -144.0889183562196,-33.637235637369244 -146.58891835621998,-34.307108618469606 -149.08891835623157,-33.637235637411145 -150.91904537517348,-31.807108618499903 -151.58891835627384,-29.307108618499527 -150.91904537521538,-26.80710861848792 -149.08891835630413,-24.976981599546 -146.58891835630376,-24.307108618445636" stroke="#00f" stroke-linecap="round" stroke-linejoin="round"/><polyline fill="none" points="-7.137867992910061,141.95271573436324 -4.637867992898455,141.28284275330478 -2.8077409739565358,139.45271573439354 -2.1378679928561692,136.95271573439317 -2.807740973914627,134.45271573438157 -4.637867992825867,132.62258871543966 -7.137867992826244,131.9527157343393 -9.637867992837851,132.62258871539777 -11.467995011779772,134.452715734309 -12.13786799288014,136.95271573430938 -11.467995011821685,139.45271573432098 -9.637867992910447,141.28284275326288 -7.137867992910071,141.95271573436324" stroke="#ffa500" stroke-linecap="round" stroke-linejoin="round"/><polyline fill="none" points="-156.90352279247796,50.42977606366528 -154.40352279246636,49.759903082606826 -152.57339577352445,47.929776063695584 -151.9035227924241,45.42977606369521 -152.57339577348256,42.9297760636836 -154.4035227923938,41.099649044741675 -156.90352279239417,40.429776063641306 -159.40352279240577,41.09964904469976 -161.23364981134768,42.929776063611 -161.90352279244806,45.42977606361138 -161.2336498113896,47.92977606362299 -159.40352279247836,49.75990308256491 -156.903522792478,50.42977606366528" stroke="#ffa500" stroke-linecap="round" stroke-linejoin="round"/></svg>