<?xml version="1.0" ?><!DOCTYPE svg  PUBLIC '-//W3C//DTD SVG 1.1//EN'  'http://www.w3.org/Graphics/SVG/1.1/DTD/svg11.dtd'><svg height="451.000" viewBox="-313.000 -214.000 542.000 451.000" width="542.000" xmlns="http://www.w3.org/2000/svg"><line fill="none" stroke="none" stroke-linecap="round" stroke-width="2.0" x1="0.0" x2="0.0" y1="0.0" y2="0.0"/><polygon fill="none" fill-rule="evenodd" points="0.0,0.0 0.0,0.0 0.0,0.0" stroke-linejoin="round"/><polyline fill="none" points="10.973547594708814,33.85185353670356 13.473547594721667,33.181980555647165 15.3036746136657,31.351853536737092 15.973547594768482,28.85185353673667 15.303674613712092,26.351853536723816 13.473547594802021,24.521726517779783 10.973547594801598,23.851853536677 8.473547594788744,24.52172651773339 6.6434205758447105,26.351853536643464 5.973547594741928,28.851853536643887 6.643420575798316,31.35185353665674 8.473547594708386,33.181980555600774 10.973547594708808,33.85185353670356" stroke="#ffa500" stroke-linecap="round" stroke-linejoin="round"/><polyline fill="none" points="5.849070669009088,60.79689931360515 8.349070669021943,60.127026332548766 10.179197687965978,58.2968993136387 10.849070669068762,55.79689931363828 10.179197688012376,53.296899313625424 8.349070669102305,51.46677229468139 5.849070669101883,50.796899313578606 3.3490706690890275,51.46677229463499 1.518943650144991,53.29689931354506 0.8490706690422057,55.79689931354548 1.5189436500985916,58.296899313558335 3.349070669008661,60.127026332502375 5.849070669009084,60.79689931360516" stroke="#ffa500" stroke-linecap="round" stroke-linejoin="round"/><polyline fill="none" points="19.03526989749952,-75.74255554713267 21.53526989751238,-76.41242852818905 23.365396916456415,-78.24255554709913 24.035269897559203,-80.74255554709956 23.365396916502817,-83.24255554711242 21.535269897592748,-85.07268256605646 19.035269897592325,-85.74255554715924 16.535269897579468,-85.07268256610286 14.70514287863543,-83.2425555471928 14.035269897532642,-80.74255554719237 14.705142878589026,-78.2425555471795 16.535269897499095,-76.41242852823547 19.035269897499518,-75.74255554713268" stroke="#ffa500" stroke-linecap="round" stroke-linejoin="round"/><polyline fill="none" points="-114.2835949268643,-102.95212467125766 -111.78359492685144,-103.62199765231405 -109.9534679079074,-105.45212467122411 -109.28359492680461,-107.95212467122454 -109.953467907861,-110.4521246712374 -111.78359492677106,-112.28225169018144 -114.28359492677149,-112.95212467128422 -116.78359492678435,-112.28225169022784 -118.61372194572839,-110.45212467131778 -119.28359492683117,-107.95212467131735 -118.61372194577478,-105.45212467130449 -116.78359492686472,-103.62199765236045 -114.2835949268643,-102.95212467125766" stroke="#ffa500" stroke-linecap="round" stroke-linejoin="round"/><polyline fill="none" points="-131.19775629647572,-7.808271529142408 -128.69775629646287,-8.478144510198788 -126.86762927751883,-10.308271529108856 -126.19775629641603,-12.808271529109279 -126.86762927747242,-15.308271529122138 -128.6977562963825,-17.13839854806618 -131.19775629638292,-17.808271529168973 -133.69775629639577,-17.138398548112594 -135.5278833153398,-15.308271529202528 -136.1977562964426,-12.808271529202106 -135.52788331538622,-10.308271529189247 -133.69775629647614,-8.478144510245203 -131.19775629647572,-7.8082715291424085" stroke="#00f" stroke-linecap="round" stroke-linejoin="round"/><polyline fill="none" points="-279.6803865817445,1.6793430295590137 -277.1803865817316,1.0094700485026356 -275.3502595627876,-0.8206569704074294 -274.6803865816848,-3.3206569704078515 -275.35025956274114,-5.8206569704207105 -277.1803865816512,-7.650783989364755 -279.6803865816516,-8.320656970467551 -282.18038658166444,-7.650783989411174 -284.0105136006085,-5.82065697050111 -284.6803865817113,-3.3206569705006883 -284.0105136006549,-0.8206569704878279 -282.18038658174487,1.0094700484562182 -279.6803865817445,1.679343029559015" stroke="#00f" stroke-linecap="round" stroke-linejoin="round"/><polyline fill="none" points="212.3741717926264,-92.81874193780487 214.8741717926393,-93.48861491886124 216.70429881158333,-95.3187419377713 217.37417179268613,-97.81874193777173 216.70429881162974,-100.3187419377846 214.87417179271966,-102.14886895672865 212.37417179271924,-102.81874193783145 209.87417179270636,-102.14886895677508 208.04404477376232,-100.31874193786501 207.37417179265952,-97.81874193786459 208.0440447737159,-95.31874193785173 209.874171792626,-93.48861491890767 212.3741717926264,-92.81874193780487" stroke="#ffa500" stroke-linecap="round" stroke-linejoin="round"/><polyline fill="none" points="78.94111593806565,-192.96849249228862 81.44111593807851,-193.638365473345 83.27124295702257,-195.46849249225508 83.94111593812536,-197.9684924922555 83.27124295706899,-200.46849249226838 81.44111593815893,-202.29861951121242 78.9411159381585,-202.96849249231522 76.44111593814564,-202.29861951125886 74.61098891920159,-200.46849249234882 73.94111593809879,-197.9684924923484 74.61098891915516,-195.4684924923355 76.44111593806522,-193.63836547339147 78.94111593806565,-192.96849249228868" stroke="#ffa500" stroke-linecap="round" stroke-linejoin="round"/><polyline fill="none" points="-289.8354467354607,-53.47965237920239 -287.3354467354479,-54.149525360258764 -285.50531971650383,-55.979652379168826 -284.83544673540104,-58.479652379169245 -285.5053197164574,-60.979652379182106 -287.33544673536744,-62.80977939812616 -289.83544673536784,-63.479652379228966 -292.3354467353807,-62.809779398172594 -294.1655737543247,-60.97965237926253 -294.8354467354275,-58.47965237926211 -294.16557375437117,-55.979652379249245 -292.3354467354611,-54.14952536030519 -289.8354467354607,-53.479652379202385" stroke="#00f" stroke-linecap="round" stroke-linejoin="round"/><polyline fill="none" points="-125.99084543146067,114.03645261693558 -123.49084543144781,113.3665796358792 -121.66071841250375,111.53645261696914 -120.99084543140094,109.03645261696872 -121.66071841245731,106.53645261695586 -123.49084543136738,104.7063255980118 -125.9908454313678,104.03645261690899 -128.49084543138068,104.70632559796536 -130.32097245032475,106.53645261687542 -130.99084543142754,109.03645261687585 -130.3209724503712,111.53645261688871 -128.49084543146114,113.36657963583276 -125.99084543146071,114.03645261693558" stroke="#00f" stroke-linecap="round" stroke-linejoin="round"/><polyline fill="none" points="86.98996249402917,160.76344465894087 89.48996249404203,160.0935716778845 91.32008951298609,158.26344465897446 91.9899624940889,155.76344465897404 91.32008951303253,153.26344465896116 89.48996249412247,151.4333176400171 86.98996249412204,150.7634446589143 84.48996249410918,151.43331763997065 82.65983547516512,153.2634446588807 81.98996249406231,155.76344465888113 82.65983547511867,158.263444658894 84.48996249402873,160.09357167783807 86.98996249402916,160.76344465894087" stroke="#ffa500" stroke-linecap="round" stroke-linejoin="round"/><polyline fill="none" points="130.12245902850202,61.281385020928525 132.6224590285149,60.61151203987216 134.45258604745896,58.781385020962105 135.12245902856176,56.281385020961686 134.4525860475054,53.78138502094882 132.62245902859536,51.95125800200476 130.12245902859493,51.28138502090194 127.62245902858206,51.95125800195831 125.792332009638,53.78138502086836 125.12245902853519,56.28138502086878 125.79233200959155,58.78138502088165 127.62245902850161,60.61151203982571 130.12245902850202,61.281385020928525" stroke="#ffa500" stroke-linecap="round" stroke-linejoin="round"/><polyline fill="none" points="155.01866282588003,-158.9390568714756 157.5186628258929,-159.60892985253196 159.34878984483697,-161.439056871442 160.0186628259398,-163.93905687144243 159.34878984488344,-166.4390568714553 157.5186628259734,-168.26918389039938 155.01866282597297,-168.9390568715022 152.5186628259601,-168.26918389044585 150.68853580701602,-166.4390568715358 150.0186628259132,-163.93905687153537 150.68853580696955,-161.4390568715225 152.5186628258796,-159.60892985257843 155.01866282588003,-158.9390568714756" stroke="#ffa500" stroke-linecap="round" stroke-linejoin="round"/><polyline fill="none" points="-78.61286869500836,-87.3855238019233 -76.11286869499548,-88.05539678297966 -74.28274167605142,-89.8855238018897 -73.6128686949486,-92.38552380189013 -74.28274167600496,-94.885523801903 -76.11286869491501,-96.71565082084707 -78.61286869491543,-97.38552380194989 -81.11286869492831,-96.71565082089353 -82.94299571387238,-94.88552380198348 -83.61286869497519,-92.38552380198306 -82.94299571391883,-89.88552380197018 -81.11286869500879,-88.05539678302611 -78.61286869500836,-87.38552380192328" stroke="#00f" stroke-linecap="round" stroke-linejoin="round"/><polyline fill="none" points="-9.43913776891278,224.99529098443566 -6.939137768899906,224.3254180033793 -5.109010749955838,222.49529098446925 -4.439137768853017,219.99529098446882 -5.109010749909372,217.49529098445595 -6.939137768819424,215.66516396551188 -9.439137768819846,214.99529098440905 -11.939137768832719,215.6651639654654 -13.769264787776788,217.49529098437546 -14.43913776887961,219.99529098437588 -13.769264787823255,222.49529098438876 -11.939137768913204,224.32541800333283 -9.439137768912783,224.99529098443566" stroke="#ffa500" stroke-linecap="round" stroke-linejoin="round"/><polyline fill="none" points="56.29237456755912,-35.396647776848 58.792374567572,-36.06652075790435 60.622501586516066,-37.8966477768144 61.29237456761889,-40.39664777681482 60.62250158656254,-42.89664777682769 58.792374567652494,-44.72677479577176 56.292374567652075,-45.39664777687459 53.7923745676392,-44.72677479581824 51.96224754869513,-42.89664777690819 51.292374567592304,-40.39664777690777 51.962247548648655,-37.896647776894895 53.7923745675587,-36.066520757950826 56.29237456755912,-35.396647776848" stroke="#ffa500" stroke-linecap="round" stroke-linejoin="round"/><polyline fill="none" points="-212.20618551863345,-58.34341328339397 -209.70618551862057,-59.01328626445032 -207.8760584996765,-60.84341328336037 -207.20618551857368,-63.34341328336079 -207.87605849963003,-65.84341328337366 -209.70618551854008,-67.67354030231773 -212.2061855185405,-68.34341328342056 -214.70618551855338,-67.67354030236422 -216.53631253749745,-65.84341328345417 -217.20618551860028,-63.34341328345375 -216.53631253754392,-60.843413283440874 -214.70618551863387,-59.0132862644968 -212.20618551863345,-58.34341328339397" stroke="#008000" stroke-linecap="round" stroke-linejoin="round"/><polyline fill="none" points="27.735051422307873,3.278803159133833 30.23505142232075,2.6089301780774856 32.06517844126483,0.7788031591674383 32.735051422367654,-1.7211968408329836 32.06517844131131,-4.221196840845861 30.235051422401263,-6.051323859789937 27.73505142240084,-6.721196840892768 25.23505142238796,-6.051323859836422 23.404924403443886,-4.221196840926375 22.735051422341055,-1.7211968409259528 23.404924403397402,0.7788031590869249 25.23505142230745,2.6089301780310015 27.735051422307873,3.2788031591338336" stroke="#ffa500" stroke-linecap="round" stroke-linejoin="round"/><polyline fill="none" points="-227.20667621471546,-78.67495522038682 -224.70667621470258,-79.34482820144316 -222.8765491957585,-81.17495522035321 -222.2066762146557,-83.67495522035364 -222.87654919571204,-86.17495522036651 -224.7066762146221,-88.0050822393106 -227.20667621462252,-88.67495522041342 -229.7066762146354,-88.00508223935708 -231.53680323357946,-86.17495522044703 -232.2066762146823,-83.6749552204466 -231.53680323362596,-81.17495522043373 -229.7066762147159,-79.34482820148965 -227.2066762147155,-78.6749552203868" stroke="#00f" stroke-linecap="round" stroke-linejoin="round"/><polyline fill="none" points="32.748638320490436,-177.0337122265159 35.24863832050332,-177.70358520757222 37.0787653394474,-179.53371222648227 37.748638320550235,-182.0337122264827 37.07876533949389,-184.53371222649557 35.24863832058385,-186.36383924543964 32.74863832058343,-187.03371222654246 30.24863832057055,-186.36383924548613 28.418511301626467,-184.53371222657609 27.74863832052363,-182.03371222657566 28.41851130157997,-179.53371222656278 30.248638320490013,-177.70358520761872 32.748638320490436,-177.0337122265159" stroke="#00f" stroke-linecap="round" stroke-linejoin="round"/><polyline fill="none" points="127.29504175412178,-7.758447212861011 129.79504175413467,-8.42832019391735 131.62516877307874,-10.258447212827393 132.29504175418157,-12.758447212827814 131.62516877312524,-15.258447212840696 129.7950417542152,-17.08857423178478 127.29504175421476,-17.758447212887617 124.79504175420189,-17.088574231831277 122.9649147352578,-15.258447212921235 122.29504175415497,-12.758447212920814 122.96491473521131,-10.258447212907932 124.79504175412136,-8.428320193963847 127.29504175412178,-7.758447212861006" stroke="#ffa500" stroke-linecap="round" stroke-linejoin="round"/><polyline fill="none" points="-30.224498275937155,40.03871195952327 -27.724498275924272,39.36883897846693 -25.894371256980186,37.53871195955689 -25.224498275877345,35.03871195955647 -25.89437125693368,32.53871195954359 -27.72449827584372,30.708584940599504 -30.224498275844145,30.038711959496663 -32.72449827585703,30.708584940553 -34.55462529480111,32.53871195946304 -35.224498275903954,35.03871195946346 -34.55462529484762,37.538711959476345 -32.72449827593758,39.36883897842043 -30.224498275937155,40.03871195952327" stroke="#ffa500" stroke-linecap="round" stroke-linejoin="round"/><polyline fill="none" points="74.85897584745683,-62.42592060797715 77.35897584746972,-63.095793589033484 79.1891028664138,-64.92592060794352 79.85897584751665,-67.42592060794395 79.18910286646032,-69.92592060795684 77.35897584755028,-71.75604762690092 74.85897584754986,-72.42592060800376 72.35897584753697,-71.75604762694743 70.52884882859288,-69.9259206080374 69.85897584749004,-67.42592060803698 70.52884882854637,-64.92592060802409 72.3589758474564,-63.095793589079996 74.85897584745683,-62.42592060797715" stroke="#ffa500" stroke-linecap="round" stroke-linejoin="round"/><polyline fill="none" points="-85.37543995164276,93.97834081304389 -82.87543995162987,93.30846783198756 -81.04531293268577,91.47834081307752 -80.37543995158293,88.9783408130771 -81.04531293263926,86.47834081306421 -82.8754399515493,84.64821379412011 -85.37543995154972,83.97834081301727 -87.87543995156261,84.6482137940736 -89.70556697050671,86.47834081298363 -90.37543995160956,88.97834081298406 -89.70556697055324,91.47834081299695 -87.8754399516432,93.30846783194104 -85.37543995164278,93.9783408130439" stroke="#00f" stroke-linecap="round" stroke-linejoin="round"/><polyline fill="none" points="72.18742787625064,-66.33472866163862 74.68742787626353,-67.00460164269495 76.51755489520762,-68.83472866160498 77.18742787631048,-71.33472866160541 76.51755489525415,-73.8347286616183 74.68742787634412,-75.6648556805624 72.18742787634369,-76.33472866166525 69.6874278763308,-75.66485568060892 67.8573008573867,-73.83472866169889 67.18742787628385,-71.33472866169846 67.85730085734018,-68.83472866168557 69.68742787625021,-67.00460164274148 72.18742787625064,-66.33472866163862" stroke="#00f" stroke-linecap="round" stroke-linejoin="round"/><polyline fill="none" points="188.34407012943447,-105.32650580651055 190.84407012944735,-105.99637878756688 192.67419714839144,-107.82650580647692 193.3440701294943,-110.32650580647734 192.67419714843797,-112.82650580649023 190.84407012952792,-114.65663282543433 188.3440701295275,-115.32650580653718 185.8440701295146,-114.65663282548086 184.0139431105705,-112.82650580657082 183.34407012946764,-110.3265058065704 184.01394311052397,-107.8265058065575 185.84407012943402,-105.99637878761341 188.34407012943444,-105.32650580651055" stroke="#00f" stroke-linecap="round" stroke-linejoin="round"/><polyline fill="none" points="105.41504015844136,90.45574560730158 107.91504015845425,89.78587262624525 109.74516717739834,87.95574560733522 110.4150401585012,85.45574560733479 109.74516717744487,82.9557456073219 107.91504015853484,81.1256185883778 105.41504015853441,80.45574560727495 102.91504015852152,81.12561858833128 101.08491313957742,82.95574560724131 100.41504015847457,85.45574560724174 101.0849131395309,87.95574560725463 102.91504015844093,89.78587262619872 105.41504015844136,90.45574560730158" stroke="#ffa500" stroke-linecap="round" stroke-linejoin="round"/><polyline fill="none" points="115.49948854874853,28.590486629718185 117.99948854876142,27.920613648661863 119.82961556770552,26.09048662975183 120.49948854880837,23.590486629751407 119.82961556775204,21.090486629738514 117.99948854884201,19.260359610794413 115.49948854884158,18.590486629691554 112.9994885488287,19.260359610747877 111.1693615298846,21.09048662965791 110.49948854878174,23.590486629658333 111.16936152983806,26.090486629671226 112.99948854874809,27.920613648615326 115.49948854874852,28.590486629718185" stroke="#ffa500" stroke-linecap="round" stroke-linejoin="round"/><polyline fill="none" points="-48.765638578430405,-31.149159471981037 -46.26563857841751,-31.81903245303736 -44.435511559473404,-33.64915947194739 -43.76563857837054,-36.14915947194781 -44.435511559426864,-38.64915947196071 -46.2656385783369,-40.47928649090481 -48.76563857833732,-41.149159472007675 -51.26563857835021,-40.47928649095135 -53.09576559729432,-38.64915947204132 -53.76563857839718,-36.1491594720409 -53.09576559734086,-33.649159472028 -51.265638578430824,-31.8190324530839 -48.765638578430405,-31.149159471981037" stroke="#ffa500" stroke-linecap="round" stroke-linejoin="round"/><polyline fill="none" points="-46.74227897521173,56.30184747910774 -44.242278975198836,55.63197449805143 -42.41215195625473,53.801847479141394 -41.74227897515187,51.301847479140974 -42.412151956208184,48.80184747912808 -44.24227897511822,46.971720460183974 -46.74227897511864,46.30184747908111 -49.24227897513153,46.971720460137426 -51.07240599407564,48.80184747904745 -51.7422789751785,51.30184747904787 -51.072405994122185,53.80184747906077 -49.24227897521216,55.63197449800487 -46.74227897521174,56.301847479107735" stroke="#ffa500" stroke-linecap="round" stroke-linejoin="round"/><polyline fill="none" points="-134.06124928118103,123.91264752483987 -131.56124928116813,123.24277454378355 -129.73112226222403,121.41264752487352 -129.06124928112118,118.9126475248731 -129.7311222621775,116.4126475248602 -131.56124928108753,114.5825205059161 -134.06124928108795,113.91264752481322 -136.56124928110086,114.58252050586954 -138.39137630004495,116.41264752477957 -139.0612492811478,118.91264752478 -138.3913763000915,121.4126475247929 -136.5612492811815,123.24277454373701 -134.06124928118106,123.91264752483988" stroke="#ffa500" stroke-linecap="round" stroke-linejoin="round"/><polyline fill="none" points="-25.515756028990275,-100.11235798853481 -23.01575602897738,-100.78223096959113 -21.18562901003327,-102.61235798850116 -20.5157560289304,-105.11235798850159 -21.185629009986712,-107.61235798851447 -23.01575602889674,-109.44248500745859 -25.51575602889716,-110.11235798856146 -28.015756028910058,-109.44248500750514 -29.845883047854166,-107.61235798859511 -30.515756028957036,-105.11235798859468 -29.845883047900724,-102.61235798858178 -28.015756028990698,-100.78223096963767 -25.515756028990275,-100.1123579885348" stroke="#00f" stroke-linecap="round" stroke-linejoin="round"/><polyline fill="none" points="-260.86766032736466,7.417352170019652 -258.36766032735176,6.747479188963341 -256.53753330840766,4.917352170053316 -255.86766032730478,2.417352170052894 -256.5375333083611,-0.08264782996000353 -258.36766032727115,-1.912774848904115 -260.86766032727155,-2.5826478300069877 -263.36766032728445,-1.912774848950678 -265.19778734622855,-0.08264783004065301 -265.8676603273314,2.417352169959768 -265.1977873462751,4.917352169972666 -263.36766032736506,6.747479188916779 -260.86766032736466,7.417352170019654" stroke="#ffa500" stroke-linecap="round" stroke-linejoin="round"/><polyline fill="none" points="-180.3431310194781,121.47277059382084 -177.8431310194652,120.80289761276453 -176.01300400052108,118.9727705938545 -175.3431310194182,116.47277059385408 -176.0130040004745,113.97277059384118 -177.84313101938451,112.14264357489706 -180.34313101938494,111.4727705937942 -182.84313101939784,112.1426435748505 -184.67325803834197,113.97277059376052 -185.34313101944485,116.47277059376094 -184.67325803838855,118.97277059377384 -182.84313101947853,120.80289761271796 -180.3431310194781,121.47277059382083" stroke="#ffa500" stroke-linecap="round" stroke-linejoin="round"/><polyline fill="none" points="179.35799719368495,161.19913140297183 181.85799719369786,160.52925842191553 183.68812421264198,158.6991314030055 184.35799719374486,156.19913140300508 183.68812421268856,153.69913140299218 181.85799719377854,151.86900438404805 179.35799719377812,151.19913140294517 176.85799719376521,151.86900438400147 175.0278701748211,153.6991314029115 174.3579971937182,156.19913140291192 175.0278701747745,158.69913140292482 176.85799719368453,160.52925842186895 179.35799719368495,161.19913140297183" stroke="#ffa500" stroke-linecap="round" stroke-linejoin="round"/><polyline fill="none" points="-225.78274356903552,-9.59047840255531 -223.2827435690226,-10.260351383611614 -221.4526165500785,-12.090478402521635 -220.7827435689756,-14.590478402522056 -221.4526165500319,-17.09047840253496 -223.28274356894192,-18.920605421479078 -225.78274356894235,-19.590478402581958 -228.28274356895525,-18.920605421525657 -230.11287058789938,-17.090478402615634 -230.78274356900226,-14.590478402615211 -230.11287058794596,-12.090478402602308 -228.28274356903594,-10.260351383658188 -225.78274356903552,-9.590478402555306" stroke="#f00" stroke-linecap="round" stroke-linejoin="round"/><polyline fill="none" points="138.30995227594303,-127.1173286581124 140.80995227595594,-127.7872016391687 142.64007929490006,-129.61732865807872 143.30995227600295,-132.11732865807915 142.64007929494664,-134.61732865809205 140.80995227603663,-136.44745567703617 138.3099522760362,-137.11732865813906 135.8099522760233,-136.44745567708276 133.97982525707917,-134.61732865817274 133.3099522759763,-132.1173286581723 133.9798252570326,-129.6173286581594 135.8099522759426,-127.78720163921528 138.30995227594303,-127.1173286581124" stroke="#ffa500" stroke-linecap="round" stroke-linejoin="round"/><polyline fill="none" points="110.82787143238438,-145.0452790446423 113.32787143239729,-145.71515202569861 115.15799845134141,-147.54527904460863 115.8278714324443,-150.04527904460906 115.157998451388,-152.54527904462196 113.32787143247798,-154.3754060635661 110.82787143247755,-155.04527904466897 108.32787143246465,-154.37540606361267 106.49774441352052,-152.54527904470265 105.82787143241764,-150.04527904470223 106.49774441347394,-147.54527904468932 108.32787143238396,-145.7151520257452 110.82787143238438,-145.0452790446423" stroke="#ffa500" stroke-linecap="round" stroke-linejoin="round"/><polyline fill="none" points="197.70728604728342,-64.42326154029928 200.20728604729632,-65.09313452135558 202.03741306624045,-66.9232615402656 202.70728604734333,-69.42326154026603 202.03741306628703,-71.92326154027893 200.207286047377,-73.75338855922305 197.70728604737658,-74.42326154032594 195.20728604736368,-73.75338855926964 193.37715902841956,-71.92326154035962 192.70728604731667,-69.42326154035919 193.37715902837297,-66.92326154034629 195.207286047283,-65.09313452140216 197.70728604728342,-64.42326154029926" stroke="#ffa500" stroke-linecap="round" stroke-linejoin="round"/><polyline fill="none" points="-203.34628034384707,-32.25388324390522 -200.84628034383417,-32.923756224961515 -199.01615332489004,-34.753883243871535 -198.34628034378716,-37.25388324387196 -199.01615332484346,-39.75388324388487 -200.84628034375348,-41.584010262829004 -203.3462803437539,-42.253883243931895 -205.8462803437668,-41.5840102628756 -207.67640736271093,-39.75388324396558 -208.34628034381382,-37.253883243965156 -207.67640736275752,-34.753883243952245 -205.8462803438475,-32.92375622500811 -203.34628034384707,-32.25388324390522" stroke="#00f" stroke-linecap="round" stroke-linejoin="round"/><polyline fill="none" points="17.022817226306266,-114.48066334489894 19.522817226319177,-115.15053632595523 21.35294424526331,-116.98066334486525 22.022817226366204,-119.48066334486568 21.352944245309914,-121.9806633448786 19.522817226399898,-123.81079036382272 17.022817226399475,-124.48066334492562 14.522817226386564,-123.81079036386933 12.692690207442432,-121.98066334495931 12.022817226339535,-119.48066334495888 12.692690207395826,-116.98066334494597 14.522817226305841,-115.15053632600183 17.022817226306266,-114.48066334489893" stroke="#ffa500" stroke-linecap="round" stroke-linejoin="round"/><polyline fill="none" points="35.09296130860981,-40.50324426396819 37.59296130862272,-41.17311724502448 39.42308832756685,-43.00324426393449 40.09296130866975,-45.50324426393492 39.42308832761346,-48.00324426394783 37.59296130870345,-49.83337128289196 35.092961308703025,-50.50324426399486 32.592961308690114,-49.83337128293857 30.762834289745978,-48.00324426402856 30.09296130864308,-45.50324426402813 30.762834289699367,-43.00324426401522 32.59296130860938,-41.17311724507109 35.09296130860981,-40.50324426396819" stroke="#ffa500" stroke-linecap="round" stroke-linejoin="round"/><polyline fill="none" points="165.36983649111625,101.60848390849843 167.86983649112915,100.93861092744214 169.69996351007327,99.10848390853212 170.3698364911762,96.6084839085317 169.69996351011991,94.10848390851878 167.8698364912099,92.27835688957464 165.36983649120947,91.60848390847174 162.86983649119657,92.27835688952803 161.03970947225244,94.10848390843803 160.36983649114953,96.60848390843846 161.0397094722058,99.10848390845138 162.86983649111582,100.93861092739552 165.36983649111625,101.60848390849841" stroke="#ffa500" stroke-linecap="round" stroke-linejoin="round"/><polyline fill="none" points="64.4564598876995,184.785544318228 66.95645988771241,184.11567133717173 68.78658690665655,182.2855443182617 69.45645988775945,179.7855443182613 68.78658690670316,177.28554431824838 66.95645988779316,175.45541729930426 64.45645988779273,174.78554431820135 61.956459887779815,175.45541729925762 60.126332868835675,177.28554431816764 59.45645988773277,179.78554431816806 60.12633286878905,182.28554431818097 61.95645988769906,184.11567133712512 64.45645988769948,184.78554431822803" stroke="#ffa500" stroke-linecap="round" stroke-linejoin="round"/><polyline fill="none" points="-146.7932324781447,-68.79500365213427 -144.29323247813178,-69.46487663319056 -142.46310545918763,-71.29500365210056 -141.79323247808472,-73.79500365210099 -142.463105459141,-76.2950036521139 -144.293232478051,-78.12513067105805 -146.79323247805144,-78.79500365216096 -149.29323247806434,-78.12513067110467 -151.1233594970085,-76.29500365219467 -151.7932324781114,-73.79500365219424 -151.12335949705513,-71.29500365218132 -149.29323247814511,-69.46487663323718 -146.7932324781447,-68.79500365213427" stroke="#00f" stroke-linecap="round" stroke-linejoin="round"/><polyline fill="none" points="-209.34218312072784,98.31254711508159 -206.84218312071494,97.64267413402531 -205.01205610177078,95.81254711511531 -204.34218312066787,93.31254711511488 -205.01205610172414,90.81254711510196 -206.84218312063416,88.98242009615782 -209.3421831206346,88.31254711505491 -211.8421831206475,88.98242009611118 -213.67231013959164,90.81254711502119 -214.34218312069456,93.31254711502162 -213.67231013963828,95.81254711503453 -211.84218312072827,97.64267413397867 -209.34218312072784,98.31254711508159" stroke="#00f" stroke-linecap="round" stroke-linejoin="round"/><polyline fill="none" points="157.82471318487808,152.85785980617743 160.324713184891,152.18798682512116 162.15484020383516,150.35785980621114 162.82471318493808,147.8578598062107 162.1548402038818,145.35785980619778 160.32471318497178,143.52773278725363 157.82471318497136,142.8578598061507 155.32471318495843,143.527732787207 153.49458616601427,145.357859806117 152.82471318491136,147.85785980611743 153.49458616596763,150.35785980613036 155.32471318487765,152.18798682507452 157.82471318487808,152.85785980617743" stroke="#ffa500" stroke-linecap="round" stroke-linejoin="round"/><polyline fill="none" points="-163.22085890482575,74.2057520870805 -160.72085890481281,73.53587910602423 -158.89073188586866,71.70575208711422 -158.22085890476575,69.2057520871138 -158.89073188582202,66.70575208710088 -160.72085890473204,64.87562506815672 -163.22085890473247,64.20575208705381 -165.7208589047454,64.87562506811008 -167.55098592368955,66.70575208702009 -168.22085890479246,69.20575208702051 -167.5509859237362,71.70575208703343 -165.72085890482617,73.53587910597759 -163.22085890482575,74.2057520870805" stroke="#ffa500" stroke-linecap="round" stroke-linejoin="round"/><polyline fill="none" points="-94.6755670649245,-56.302828789664396 -92.17556706491158,-56.97270177072067 -90.34544004596742,-58.802828789630674 -89.67556706486451,-61.30282878963109 -90.34544004592078,-63.80282878964401 -92.17556706483079,-65.63295580858816 -94.67556706483121,-66.30282878969108 -97.17556706484413,-65.6329558086348 -99.00569408378828,-63.8028287897248 -99.6755670648912,-61.30282878972438 -99.00569408383492,-58.802828789711455 -97.17556706492492,-56.9727017707673 -94.6755670649245,-56.30282878966438" stroke="#00f" stroke-linecap="round" stroke-linejoin="round"/><polyline fill="none" points="141.36866415556707,-21.82286453320153 143.86866415558,-22.492737514257797 145.69879117452416,-24.3228645331678 146.36866415562707,-26.82286453316822 145.6987911745708,-29.322864533181143 143.8686641556608,-31.152991552125297 141.36866415566038,-31.822864533228216 138.86866415564745,-31.152991552171947 137.0385371367033,-29.322864533261946 136.36866415560038,-26.822864533261523 137.03853713665666,-24.3228645332486 138.86866415556665,-22.492737514304448 141.36866415556707,-21.82286453320153" stroke="#ffa500" stroke-linecap="round" stroke-linejoin="round"/><polyline fill="none" points="32.73748770456622,37.90831288675533 35.237487704579145,37.23843990569907 37.0676147235233,35.40831288678907 37.73748770462622,32.90831288678865 37.06761472356995,30.408312886775725 35.237487704659955,28.57818586783157 32.737487704659536,27.90831288672865 30.23748770464661,28.578185867784914 28.407360685702457,30.408312886694915 27.737487704599534,32.908312886695334 28.4073606856558,35.40831288670826 30.2374877045658,37.23843990565241 32.73748770456622,37.90831288675534" stroke="#00f" stroke-linecap="round" stroke-linejoin="round"/><polyline fill="none" points="61.88744729472154,132.78905099760618 64.38744729473447,132.1191780165499 66.21757431367863,130.28905099763992 66.88744729478155,127.78905099763949 66.2175743137253,125.28905099762656 64.38744729481529,123.4589239786824 61.88744729481487,122.78905099757948 59.387447294801945,123.45892397863574 57.55732027585778,125.28905099754574 56.88744729475486,127.78905099754617 57.55732027581112,130.2890509975591 59.38744729472112,132.11917801650324 61.88744729472154,132.78905099760618" stroke="#ffa500" stroke-linecap="round" stroke-linejoin="round"/><polyline fill="none" points="-191.4687545603913,-117.2400313788207 -188.96875456037836,-117.90990435987696 -187.1386275414342,-119.74003137878697 -186.46875456033126,-122.24003137878739 -187.13862754138754,-124.74003137880032 -188.96875456029753,-126.57015839774448 -191.46875456029795,-127.2400313788474 -193.96875456031088,-126.57015839779115 -195.79888157925504,-124.74003137888116 -196.46875456035798,-122.24003137888073 -195.7988815793017,-119.7400313788678 -193.96875456039172,-117.90990435992363 -191.4687545603913,-117.2400313788207" stroke="#ffa500" stroke-linecap="round" stroke-linejoin="round"/><polyline fill="none" points="-62.433611982063326,-76.1284812377019 -59.9336119820504,-76.79835421875816 -58.10348496310624,-78.62848123766815 -57.433611982003306,-81.12848123766858 -58.103484963059564,-83.62848123768151 -59.93361198196956,-85.45860825662568 -62.43361198196999,-86.12848123772861 -64.93361198198292,-85.45860825667235 -66.76373900092709,-83.62848123776236 -67.43361198203002,-81.12848123776193 -66.76373900097376,-78.628481237749 -64.93361198206377,-76.79835421880483 -62.43361198206335,-76.1284812377019" stroke="#ffa500" stroke-linecap="round" stroke-linejoin="round"/><polyline fill="none" points="-107.30416639484771,-30.542747179819294 -104.80416639483478,-31.212620160875552 -102.97403937589061,-33.04274717978555 -102.30416639478769,-35.54274717978598 -102.97403937584394,-38.04274717979891 -104.80416639475393,-39.87287419874308 -107.30416639475436,-40.54274717984601 -109.8041663947673,-39.87287419878975 -111.63429341371146,-38.042747179879754 -112.3041663948144,-35.542747179879335 -111.63429341375814,-33.0427471798664 -109.80416639484815,-31.212620160922235 -107.30416639484773,-30.5427471798193" stroke="#ffa500" stroke-linecap="round" stroke-linejoin="round"/><polyline fill="none" points="36.62752312016491,90.46763426603488 39.12752312017784,89.79776128497862 40.95765013912201,87.96763426606863 41.62752312022494,85.4676342660682 40.957650139168685,82.96763426605527 39.127523120258694,81.1375072471111 36.627523120258275,80.46763426600816 34.12752312024534,81.13750724706442 32.297396101301175,82.96763426597441 31.627523120198237,85.46763426597484 32.29739610125449,87.96763426598777 34.12752312016448,89.79776128493194 36.6275231201649,90.46763426603488" stroke="#00f" stroke-linecap="round" stroke-linejoin="round"/><polyline fill="none" points="-49.686270905145626,149.4522516495279 -47.186270905132695,148.78237866847167 -45.356143886188526,146.95225164956167 -44.686270905085586,144.45225164956125 -45.35614388614184,141.95225164954832 -47.18627090505183,140.12212463060413 -49.68627090505225,139.4522516495012 -52.18627090506518,140.12212463055744 -54.01639792400935,141.95225164946743 -54.68627090511229,144.45225164946785 -54.01639792405604,146.9522516494808 -52.186270905146046,148.78237866842497 -49.686270905145626,149.4522516495279" stroke="#ffa500" stroke-linecap="round" stroke-linejoin="round"/><polyline fill="none" points="-94.44163864997365,37.85557439887004 -91.94163864996072,37.18570141781379 -90.11151163101655,35.3555743989038 -89.44163864991361,32.85557439890338 -90.11151163096986,30.355574398890447 -91.94163864987985,28.525447379946275 -94.44163864988028,27.85557439884333 -96.9416386498932,28.52544737989958 -98.77176566883738,30.35557439880957 -99.44163864994032,32.85557439880999 -98.77176566888407,35.355574398822924 -96.94163864997408,37.1857014177671 -94.44163864997365,37.85557439887005" stroke="#00f" stroke-linecap="round" stroke-linejoin="round"/><polyline fill="none" points="-83.41411378428612,74.13775123639586 -80.91411378427318,73.46787825533961 -79.08398676532902,71.63775123642962 -78.41411378422607,69.1377512364292 -79.08398676528232,66.63775123641626 -80.91411378419231,64.8076242174721 -83.41411378419274,64.13775123636916 -85.91411378420567,64.8076242174254 -87.74424080314985,66.63775123633539 -88.41411378425279,69.13775123633582 -87.74424080319655,71.63775123634875 -85.91411378428656,73.46787825529293 -83.41411378428613,74.13775123639587" stroke="#ffa500" stroke-linecap="round" stroke-linejoin="round"/><polyline fill="none" points="50.93779869145146,9.497940020418087 53.4377986914644,8.82806703936184 55.267925710408576,6.9979400204518525 55.937798691511524,4.497940020451431 55.26792571045528,1.9979400204384943 53.43779869154529,0.16781300149431666 50.93779869154487,-0.502059979608632 48.43779869153193,0.16781300144761213 46.607671672587756,1.9979400203575999 45.93779869148481,4.497940020358022 46.60767167254105,6.997940020370959 48.437798691451036,8.828067039315139 50.937798691451455,9.497940020418088" stroke="#ffa500" stroke-linecap="round" stroke-linejoin="round"/><polyline fill="none" points="-204.38527561446674,-59.95235350073605 -201.8852756144538,-60.622226481792296 -200.05514859550962,-62.45235350070228 -199.38527561440668,-64.9523535007027 -200.05514859546292,-67.45235350071563 -201.88527561437292,-69.28248051965981 -204.38527561437334,-69.95235350076277 -206.88527561438627,-69.28248051970652 -208.71540263333046,-67.45235350079653 -209.3852756144334,-64.95235350079611 -208.71540263337715,-62.45235350078317 -206.88527561446716,-60.622226481838986 -204.38527561446674,-59.95235350073603" stroke="#008000" stroke-linecap="round" stroke-linejoin="round"/><polyline fill="none" points="-132.46436838890887,-73.32909475165113 -129.96436838889593,-73.99896773270737 -128.13424136995175,-75.82909475161736 -127.4643683888488,-78.32909475161779 -128.13424136990503,-80.82909475163073 -129.96436838881502,-82.65922177057492 -132.46436838881544,-83.32909475167787 -134.96436838882838,-82.65922177062163 -136.79449540777256,-80.82909475171164 -137.4643683888755,-78.32909475171121 -136.79449540781926,-75.82909475169826 -134.96436838890926,-73.99896773275408 -132.46436838890884,-73.32909475165113" stroke="#00f" stroke-linecap="round" stroke-linejoin="round"/><polyline fill="none" points="25.657471959473224,185.6192679235023 28.157471959486166,184.94939494244605 29.987598978430352,183.11926792353606 30.657471959533307,180.61926792353563 29.98759897847707,178.1192679235227 28.157471959567086,176.28914090457852 25.657471959566664,175.61926792347555 23.15747195955372,176.2891409045318 21.327344940609535,178.11926792344178 20.657471959506577,180.6192679234422 21.327344940562813,183.11926792345514 23.157471959472797,184.94939494239932 25.65747195947322,185.6192679235023" stroke="#00f" stroke-linecap="round" stroke-linejoin="round"/><polyline fill="none" points="-206.27031129023868,26.277495743520415 -203.77031129022575,25.607622762464178 -201.94018427128157,23.777495743554194 -201.2703112901786,21.27749574355377 -201.94018427123484,18.77749574354083 -203.77031129014483,16.94736872459664 -206.27031129014526,16.27749574349368 -208.7703112901582,16.947368724549914 -210.60043830910237,18.777495743459898 -211.27031129020534,21.27749574346032 -210.6004383091491,23.777495743473267 -208.7703112902391,25.607622762417456 -206.27031129023868,26.27749574352042" stroke="#00f" stroke-linecap="round" stroke-linejoin="round"/><polyline fill="none" points="124.31406852995028,177.80797789040366 126.81406852996322,177.13810490934742 128.64419554890742,175.30797789043743 129.3140685300104,172.807977890437 128.64419554895414,170.30797789042407 126.81406853004417,168.4778508714799 124.31406853004374,167.80797789037692 121.8140685300308,168.47785087143316 119.9839415110866,170.30797789034315 119.31406852998363,172.80797789034358 119.98394151103986,175.30797789035654 121.81406852994984,177.13810490930072 124.31406852995026,177.8079778904037" stroke="#ffa500" stroke-linecap="round" stroke-linejoin="round"/><polyline fill="none" points="-113.5151364329219,-20.383558456434038 -111.01513643290896,-21.05343143749027 -109.18500941396476,-22.88355845640025 -108.5151364328618,-25.383558456400678 -109.18500941391802,-27.883558456413624 -111.015136432828,-29.713685475357817 -113.51513643282843,-30.383558456460783 -116.01513643284137,-29.713685475404553 -117.84526345178557,-27.883558456494573 -118.51513643288854,-25.38355845649415 -117.84526345183231,-22.883558456481204 -116.01513643292233,-21.053431437537007 -113.5151364329219,-20.38355845643404" stroke="#ffa500" stroke-linecap="round" stroke-linejoin="round"/><polyline fill="none" points="155.39848768044484,-50.227752137865764 157.8984876804578,-50.897625118921994 159.728614699402,-52.72775213783197 160.39848768050496,-55.2277521378324 159.72861469944874,-57.72775213784534 157.89848768053875,-59.55787915678954 155.39848768053832,-60.22775213789251 152.89848768052536,-59.55787915683628 151.06836066158115,-57.7277521379263 150.39848768047818,-55.227752137925876 151.0683606615344,-52.72775213791293 152.8984876804444,-50.89762511896873 155.39848768044482,-50.227752137865764" stroke="#ffa500" stroke-linecap="round" stroke-linejoin="round"/><polyline fill="none" points="-112.37789839189568,143.71608218878646 -109.87789839188274,143.04620920773024 -108.04777137293854,141.21608218882025 -107.37789839183557,138.71608218881983 -108.0477713728918,136.21608218880687 -109.87789839180178,134.38595516986265 -112.3778983918022,133.71608218875969 -114.87789839181515,134.3859551698159 -116.70802541075935,136.2160821887259 -117.37789839186232,138.71608218872632 -116.70802541080609,141.21608218873928 -114.87789839189611,143.0462092076835 -112.37789839189568,143.71608218878646" stroke="#ffa500" stroke-linecap="round" stroke-linejoin="round"/><polyline fill="none" points="80.00070539876127,1.0033224960616498 82.50070539877422,0.3334495150054255 84.33083241771841,-1.4966775039045523 85.00070539882138,-3.9966775039049773 84.33083241776515,-6.496677503917929 82.50070539885517,-8.32680452286213 80.00070539885475,-8.996677503965104 77.5007053988418,-8.326804522908882 75.6705783798976,-6.496677503998905 75.00070539879464,-3.99667750399848 75.67057837985085,-1.4966775039855276 77.50070539876083,0.3334495149586749 80.00070539876126,1.0033224960616507" stroke="#ffa500" stroke-linecap="round" stroke-linejoin="round"/><polyline fill="none" points="-244.89942975541652,-23.3585078034646 -242.39942975540356,-24.028380784520824 -240.56930273645935,-25.8585078034308 -239.89942975535638,-28.358507803431227 -240.5693027364126,-30.85850780344418 -242.39942975532256,-32.68863482238838 -244.89942975532298,-33.35850780349136 -247.39942975533594,-32.688634822435134 -249.22955677428016,-30.858507803525157 -249.89942975538312,-28.358507803524734 -249.2295567743269,-25.85850780351178 -247.39942975541695,-24.028380784567577 -244.89942975541652,-23.358507803464597" stroke="#008000" stroke-linecap="round" stroke-linejoin="round"/><polyline fill="none" points="-101.60438925265036,62.864362043374875 -99.1043892526374,62.19448906231865 -97.2742622336932,60.364362043408676 -96.60438925259021,57.86436204340825 -97.27426223364643,55.364362043395296 -99.1043892525564,53.53423502445109 -101.60438925255683,52.864362043348116 -104.10438925256979,53.53423502440433 -105.934516271514,55.36436204331431 -106.60438925261698,57.864362043314735 -105.93451627156077,60.36436204332769 -104.10438925265079,62.1944890622719 -101.60438925265036,62.86436204337488" stroke="#00f" stroke-linecap="round" stroke-linejoin="round"/><polyline fill="none" points="-85.08638684084973,-9.044501031968434 -82.58638684083677,-9.714374013024651 -80.75625982189256,-11.544501031934624 -80.08638684078957,-14.044501031935049 -80.75625982184579,-16.544501031948005 -82.58638684075576,-18.374628050892213 -85.08638684075619,-19.044501031995196 -87.58638684076915,-18.37462805093898 -89.41651385971336,-16.544501032029007 -90.08638684081635,-14.044501032028581 -89.41651385976013,-11.544501032015624 -87.58638684085015,-9.714374013071414 -85.08638684084973,-9.04450103196843" stroke="#ffa500" stroke-linecap="round" stroke-linejoin="round"/><polyline fill="none" points="120.57033897491479,142.3642379652339 123.07033897492775,141.6943649841777 124.90046599387196,139.86423796526773 125.57033897497494,137.3642379652673 124.90046599391873,134.86423796525435 123.07033897500875,133.03411094631014 120.57033897500833,132.36423796520714 118.07033897499537,133.03411094626335 116.24021195605116,134.86423796517332 115.57033897494817,137.36423796517374 116.24021195600439,139.8642379651867 118.07033897491436,141.6943649841309 120.57033897491479,142.3642379652339" stroke="#00f" stroke-linecap="round" stroke-linejoin="round"/><polyline fill="none" points="-296.74341543944064,-48.3006745148757 -294.2434154394277,-48.97054749593191 -292.41328842048347,-50.80067451484188 -291.7434154393805,-53.30067451484231 -292.4132884204367,-55.80067451485527 -294.2434154393467,-57.63080153379948 -296.7434154393471,-58.30067451490247 -299.24341543936004,-57.63080153384626 -301.07354245830425,-55.80067451493629 -301.7434154394072,-53.300674514935864 -301.073542458351,-50.8006745149229 -299.24341543944104,-48.970547495978686 -296.74341543944064,-48.300674514875695" stroke="#ffa500" stroke-linecap="round" stroke-linejoin="round"/><polyline fill="none" points="-131.33106620250757,109.36320825895852 -128.8310662024946,108.6933352779023 -127.0009391835504,106.86320825899234 -126.3310662024474,104.36320825899192 -127.00093918350362,101.86320825897896 -128.83106620241358,100.03308124003475 -131.331066202414,99.36320825893175 -133.83106620242697,100.03308123998796 -135.66119322137118,101.86320825889793 -136.33106620247418,104.36320825889835 -135.66119322141796,106.86320825891131 -133.831066202508,108.69333527785552 -131.33106620250757,109.36320825895852" stroke="#ffa500" stroke-linecap="round" stroke-linejoin="round"/><polyline fill="none" points="-267.01703342510075,109.48207066639081 -264.5170334250878,108.81219768533461 -262.6869064061436,106.98207066642465 -262.0170334250406,104.48207066642422 -262.6869064060968,101.98207066641126 -264.5170334250068,100.15194364746704 -267.0170334250072,99.48207066636404 -269.51703342502014,100.15194364742024 -271.34716044396436,101.9820706663302 -272.0170334250673,104.48207066633063 -271.34716044401114,106.98207066634359 -269.51703342510115,108.81219768528781 -267.01703342510075,109.48207066639081" stroke="#ffa500" stroke-linecap="round" stroke-linejoin="round"/><polyline fill="none" points="-164.0087590824512,-33.41351207788133 -161.50875908243825,-34.08338505893753 -159.67863206349404,-35.9135120778475 -159.00875908239104,-38.413512077847926 -159.67863206344725,-40.913512077860894 -161.50875908235722,-42.74363909680512 -164.00875908235764,-43.413512077908116 -166.5087590823706,-42.743639096851915 -168.3388861013148,-40.913512077941945 -169.0087590824178,-38.41351207794152 -168.3388861013616,-35.91351207792855 -166.50875908245163,-34.08338505898433 -164.0087590824512,-33.41351207788133" stroke="#008000" stroke-linecap="round" stroke-linejoin="round"/><polyline fill="none" points="-248.29063212894,-70.15938612959813 -245.79063212892703,-70.82925911065433 -243.96050510998282,-72.6593861295643 -243.29063212887982,-75.15938612956472 -243.960505109936,-77.65938612957768 -245.79063212884597,-79.48951314852191 -248.2906321288464,-80.1593861296249 -250.79063212885936,-79.4895131485687 -252.6207591478036,-77.65938612965874 -253.2906321289066,-75.15938612965832 -252.6207591478504,-72.65938612964536 -250.79063212894044,-70.82925911070113 -248.29063212894002,-70.15938612959813" stroke="#ffa500" stroke-linecap="round" stroke-linejoin="round"/><polyline fill="none" points="-141.04260661661968,-6.931744183211604 -138.54260661660672,-7.601617164267804 -136.71247959766248,-9.431744183177768 -136.04260661655948,-11.931744183178195 -136.71247959761567,-14.431744183191164 -138.54260661652563,-16.261871202135392 -141.04260661652606,-16.931744183238397 -143.54260661653902,-16.2618712021822 -145.37273363548326,-14.431744183272235 -146.04260661658626,-11.931744183271809 -145.37273363553007,-9.43174418325884 -143.5426066166201,-7.601617164314611 -141.04260661661968,-6.931744183211605" stroke="#00f" stroke-linecap="round" stroke-linejoin="round"/><polyline fill="none" points="95.96309898476085,-113.81819769809793 98.46309898477382,-114.48807067915413 100.29322600371805,-116.3181976980641 100.96309898482106,-118.81819769806452 100.29322600376486,-121.3181976980775 98.4630989848549,-123.14832471702172 95.96309898485447,-123.81819769812473 93.4630989848415,-123.14832471706853 91.63297196589727,-121.31819769815857 90.96309898479426,-118.81819769815814 91.63297196585046,-116.31819769814517 93.46309898476042,-114.48807067920094 95.96309898476085,-113.81819769809793" stroke="#00f" stroke-linecap="round" stroke-linejoin="round"/><polyline fill="none" points="-184.06141524265686,14.726488104686181 -181.5614152426439,14.056615123629985 -179.73128822369966,12.226488104720023 -179.06141524259667,9.726488104719596 -179.73128822365285,7.226488104706625 -181.56141524256282,5.396361085762393 -184.06141524256324,4.726488104659384 -186.5614152425762,5.3963610857155775 -188.39154226152044,7.226488104625538 -189.06141524262344,9.726488104625965 -188.39154226156725,12.226488104638936 -186.5614152426573,14.05661512358317 -184.06141524265686,14.72648810468618" stroke="#00f" stroke-linecap="round" stroke-linejoin="round"/><polyline fill="none" points="48.95389622999311,93.7752823359234 51.45389623000609,93.1054093548672 53.28402324895032,91.27528233595724 53.95389623005333,88.77528233595682 53.28402324899714,86.27528233594384 51.453896230087175,84.4451553169996 48.95389623008675,83.77528233589659 46.453896230073774,84.44515531695278 44.62376921112954,86.27528233586274 43.95389623002653,88.77528233586317 44.623769211082724,91.27528233587614 46.45389622999269,93.10540935482038 48.95389622999311,93.7752823359234" stroke="#ffa500" stroke-linecap="round" stroke-linejoin="round"/><polyline fill="none" points="-171.1291164033375,76.13500533840543 -168.62911640332453,75.46513235734925 -166.7989893843803,73.63500533843929 -166.12911640327727,71.13500533843886 -166.79898938433345,68.63500533842588 -168.62911640324342,66.80487831948165 -171.12911640324384,66.13500533837863 -173.6291164032568,66.80487831943482 -175.45924342220104,68.63500533834478 -176.12911640330407,71.13500533834521 -175.45924342224788,73.63500533835818 -173.62911640333792,75.46513235730242 -171.1291164033375,76.13500533840543" stroke="#008000" stroke-linecap="round" stroke-linejoin="round"/><polyline fill="none" points="81.88380095920914,57.23676380697564 84.38380095922211,56.56689082591945 86.21392797816635,54.736763807009496 86.88380095926937,52.23676380700907 86.21392797821318,49.736763806996095 84.38380095930322,47.906636788051856 81.88380095930279,47.23676380694884 79.38380095928981,47.906636788005024 77.55367394034558,49.73676380691498 76.88380095924256,52.236763806915405 77.55367394029875,54.73676380692838 79.38380095920871,56.56689082587262 81.88380095920914,57.23676380697564" stroke="#ffa500" stroke-linecap="round" stroke-linejoin="round"/><polyline fill="none" points="34.67611695406811,-183.42327954095438 37.17611695408108,-184.09315252201057 39.00624397302532,-185.92327954092053 39.67611695412834,-188.42327954092096 39.00624397307215,-190.92327954093395 37.1761169541622,-192.7534065598782 34.67611695416177,-193.4232795409812 32.176116954148796,-192.75340655992503 30.345989935204553,-190.92327954101506 29.67611695410153,-188.42327954101464 30.345989935157714,-185.92327954100165 32.17611695406767,-184.0931525220574 34.6761169540681,-183.42327954095438" stroke="#ffa500" stroke-linecap="round" stroke-linejoin="round"/><polyline fill="none" points="-16.17101250167027,203.29154392674013 -13.671012501657291,202.62167094568395 -11.840885482713047,200.79154392677398 -11.171012501610024,198.29154392677356 -11.840885482666206,195.79154392676057 -13.671012501576161,193.96141690781633 -16.171012501576588,193.2915439267133 -18.671012501589566,193.9614169077695 -20.501139520533812,195.79154392667945 -21.171012501636834,198.29154392667988 -20.501139520580654,200.79154392669287 -18.6710125016707,202.6216709456371 -16.171012501670273,203.29154392674013" stroke="#ffa500" stroke-linecap="round" stroke-linejoin="round"/><polyline fill="none" points="181.44147878053633,-137.75361142819537 183.94147878054932,-138.42348440925156 185.77160579949356,-140.25361142816152 186.44147878059658,-142.75361142816195 185.7716057995404,-145.25361142817493 183.94147878063043,-147.08373844711917 181.44147878063,-147.7536114282222 178.94147878061702,-147.083738447166 177.11135176167278,-145.25361142825605 176.44147878056975,-142.75361142825562 177.11135176162594,-140.25361142824264 178.9414787805359,-138.4234844092984 181.44147878053633,-137.75361142819537" stroke="#ffa500" stroke-linecap="round" stroke-linejoin="round"/><polyline fill="none" points="55.74734725210348,-100.31819617308768 58.24734725211646,-100.98806915414386 60.07747427106071,-102.8181961730538 60.747347252163735,-105.31819617305423 60.077474271107555,-107.81819617306721 58.2473472521976,-109.64832319201146 55.74734725219717,-110.31819617311449 53.24734725218419,-109.64832319205831 51.41722023323994,-107.81819617314837 50.747347252136905,-105.31819617314794 51.41722023319308,-102.81819617313495 53.247347252103026,-100.9880691541907 55.74734725210345,-100.31819617308767" stroke="#ffa500" stroke-linecap="round" stroke-linejoin="round"/><polyline fill="none" points="55.78911878143235,-63.4170720385076 58.28911878144533,-64.08694501956377 60.119245800389585,-65.91707203847372 60.78911878149262,-68.41707203847415 60.119245800436445,-70.91707203848713 58.2891187815265,-72.74719905743139 55.78911878152607,-73.41707203853441 53.28911878151309,-72.74719905747824 51.458991762568836,-70.91707203856829 50.7891187814658,-68.41707203856787 51.458991762521975,-65.91707203855488 53.289118781431924,-64.08694501961062 55.78911878143235,-63.41707203850759" stroke="#00f" stroke-linecap="round" stroke-linejoin="round"/><polyline fill="none" points="162.21580077822946,-102.05257693549586 164.71580077824245,-102.72244991655204 166.54592779718672,-104.55257693546199 167.21580077828975,-107.05257693546241 166.54592779723356,-109.5525769354754 164.7158007783236,-111.38270395441965 162.21580077832317,-112.0525769355227 159.71580077831018,-111.38270395446652 157.88567375936591,-109.55257693555657 157.2158007782629,-107.05257693555615 157.88567375931905,-104.55257693554316 159.715800778229,-102.7224499165989 162.21580077822944,-102.05257693549586" stroke="#00f" stroke-linecap="round" stroke-linejoin="round"/><polyline fill="none" points="-287.9705774687009,-56.19467098140092 -285.47057746868796,-56.86454396245709 -283.6404504497437,-58.69467098136704 -282.97057746864067,-61.194670981367466 -283.64045044969686,-63.694670981380455 -285.4705774686068,-65.52479800032471 -287.97057746860725,-66.19467098142775 -290.4705774686202,-65.52479800037158 -292.3007044875645,-63.69467098146163 -292.9705774686675,-61.1946709814612 -292.3007044876113,-58.69467098144821 -290.4705774687014,-56.86454396250395 -287.9705774687009,-56.19467098140091" stroke="#00f" stroke-linecap="round" stroke-linejoin="round"/><polyline fill="none" points="134.36502168510202,-83.64611458711902 136.865021685115,-84.31598756817519 138.69514870405928,-86.14611458708514 139.3650216851623,-88.64611458708556 138.69514870410615,-91.14611458709855 136.8650216851962,-92.97624160604282 134.36502168519579,-93.64611458714586 131.8650216851828,-92.97624160608969 130.03489466623853,-91.14611458717974 129.36502168513547,-88.64611458717931 130.03489466619163,-86.14611458716632 131.86502168510157,-84.31598756822206 134.365021685102,-83.64611458711902" stroke="#00f" stroke-linecap="round" stroke-linejoin="round"/><polyline fill="none" points="-180.64392746574805,-88.73034282603135 -178.14392746573506,-89.40021580708752 -176.3138004467908,-91.23034282599747 -175.64392746568774,-93.7303428259979 -176.3138004467439,-96.23034282601088 -178.14392746565383,-98.06046984495515 -180.64392746565426,-98.73034282605819 -183.14392746566725,-98.06046984500203 -184.97405448461151,-96.23034282609208 -185.64392746571457,-93.73034282609166 -184.9740544846584,-91.23034282607867 -183.14392746574848,-89.4002158071344 -180.64392746574805,-88.73034282603136" stroke="#ffa500" stroke-linecap="round" stroke-linejoin="round"/><polyline fill="none" points="-240.60147839820087,118.0330418542275 -238.10147839818788,117.36316887317135 -236.2713513792436,115.5330418542614 -235.60147839814056,113.03304185426097 -236.27135137919672,110.53304185424798 -238.10147839810665,108.70291483530372 -240.60147839810708,108.03304185420068 -243.10147839812007,108.70291483525683 -244.93160541706433,110.53304185416678 -245.6014783981674,113.03304185416721 -244.93160541711123,115.5330418541802 -243.1014783982013,117.36316887312447 -240.60147839820087,118.0330418542275" stroke="#ffa500" stroke-linecap="round" stroke-linejoin="round"/><polyline fill="none" points="-123.83488407418204,67.66525450798865 -121.33488407416905,66.99538152693249 -119.50475705522479,65.16525450802254 -118.83488407412173,62.665254508022116 -119.50475705517789,60.16525450800913 -121.33488407408784,58.33512748906486 -123.83488407408827,57.66525450796181 -126.33488407410125,58.33512748901797 -128.16501109304554,60.16525450792791 -128.8348840741486,62.66525450792834 -128.16501109309243,65.16525450794133 -126.33488407418248,66.9953815268856 -123.83488407418206,67.66525450798865" stroke="#00f" stroke-linecap="round" stroke-linejoin="round"/><polyline fill="none" points="-215.83174640520588,31.019979331504885 -213.3317464051929,30.350106350448726 -211.50161938624862,28.519979331538785 -210.83174640514557,26.01997933153836 -211.50161938620172,23.519979331525366 -213.33174640511166,21.689852312581095 -215.83174640511209,21.019979331478044 -218.33174640512507,21.689852312534203 -220.16187342406934,23.519979331444144 -220.8317464051724,26.019979331444574 -220.16187342411624,28.51997933145757 -218.3317464052063,30.35010635040184 -215.83174640520588,31.019979331504896" stroke="#008000" stroke-linecap="round" stroke-linejoin="round"/><polyline fill="none" points="98.44476223215968,-21.969770197968874 100.94476223217266,-22.63964317902503 102.77488925111693,-24.46977019793497 103.44476223221999,-26.9697701979354 102.77488925116383,-29.469770197948396 100.9447622322539,-31.29989721689267 98.44476223225347,-31.969770197995725 95.94476223224046,-31.29989721693957 94.1146352132962,-29.46977019802963 93.44476223219314,-26.9697701980292 94.1146352132493,-24.469770198016203 95.94476223215923,-22.63964317907193 98.44476223215966,-21.96977019796887" stroke="#ffa500" stroke-linecap="round" stroke-linejoin="round"/><polyline fill="none" points="62.657184793664506,-148.610386116975 65.1571847936775,-149.28025909803117 66.98731181262178,-151.1103861169411 67.65718479372484,-153.61038611694153 66.98731181266868,-156.11038611695452 65.15718479375874,-157.94051313589878 62.65718479375832,-158.61038611700184 60.15718479374532,-157.94051313594568 58.32705777480105,-156.11038611703574 57.657184793697986,-153.61038611703532 58.32705777475414,-151.11038611702233 60.15718479366408,-149.28025909807806 62.657184793664506,-148.610386116975" stroke="#ffa500" stroke-linecap="round" stroke-linejoin="round"/><polyline fill="none" points="-197.19900687568207,-47.43484661325415 -194.69900687566908,-48.1047195943103 -192.86887985672482,-49.934846613220245 -192.19900687562176,-52.43484661322067 -192.86887985667792,-54.93484661323367 -194.69900687558786,-56.76497363217795 -197.19900687558828,-57.43484661328101 -199.69900687560127,-56.76497363222486 -201.52913389454554,-54.93484661331492 -202.1990068756486,-52.43484661331449 -201.52913389459243,-49.93484661330149 -199.6990068756825,-48.104719594357206 -197.19900687568207,-47.434846613254145" stroke="#00f" stroke-linecap="round" stroke-linejoin="round"/><polyline fill="none" points="103.68148702065194,-105.45243224781194 106.18148702066495,-106.12230522886809 108.01161403960923,-107.95243224777802 108.6814870207123,-110.45243224777845 108.01161403965615,-112.95243224779145 106.18148702074622,-114.78255926673573 103.68148702074579,-115.4524322478388 101.18148702073279,-114.78255926678266 99.3513600017885,-112.95243224787272 98.68148702068544,-110.4524322478723 99.35136000174158,-107.95243224785929 101.18148702065152,-106.12230522891501 103.68148702065194,-105.45243224781194" stroke="#00f" stroke-linecap="round" stroke-linejoin="round"/><polyline fill="none" points="85.69898507625187,-64.50384391076737 88.19898507626488,-65.17371689182352 90.02911209520916,-67.00384391073345 90.69898507631223,-69.50384391073388 90.02911209525608,-72.00384391074688 88.19898507634615,-73.83397092969116 85.69898507634572,-74.50384391079423 83.19898507633272,-73.83397092973809 81.36885805738844,-72.00384391082815 80.69898507628537,-69.50384391082773 81.36885805734151,-67.00384391081472 83.19898507625145,-65.17371689187044 85.69898507625187,-64.50384391076737" stroke="#ffa500" stroke-linecap="round" stroke-linejoin="round"/><polyline fill="none" points="-217.20417200199688,112.19034403728318 -214.70417200198386,111.52047105622704 -212.87404498303957,109.6903440373171 -212.2041720019365,107.19034403731668 -212.87404498299267,104.69034403730367 -214.7041720019026,102.86021701835939 -217.20417200190303,102.19034403725632 -219.70417200191605,102.86021701831247 -221.53429902086035,104.6903440372224 -222.20417200196343,107.19034403722283 -221.53429902090727,109.69034403723583 -219.70417200199734,111.52047105618011 -217.2041720019969,112.19034403728318" stroke="#ffa500" stroke-linecap="round" stroke-linejoin="round"/><polyline fill="none" points="-201.71288887640824,5.925894800477669 -199.21288887639523,5.256021819421524 -197.38276185745093,3.4258948005115877 -196.71288887634785,0.9258948005111547 -197.38276185740398,-1.5741051995018518 -199.2128888763139,-3.4042322184461407 -201.71288887631434,-4.074105199549211 -204.21288887632736,-3.4042322184930676 -206.04301589527165,-1.5741051995831317 -206.71288887637473,0.9258948004173013 -206.0430158953186,3.4258948004303087 -204.21288887640867,5.256021819374599 -201.71288887640824,5.925894800477671" stroke="#008000" stroke-linecap="round" stroke-linejoin="round"/><polyline fill="none" points="-89.08555014387575,38.048215816845236 -86.58555014386275,37.37834283578909 -84.75542312491845,35.54821581687916 -84.08555014381538,33.048215816878724 -84.75542312487153,30.548215816865717 -86.58555014378146,28.718088797921425 -89.08555014378189,28.048215816818352 -91.58555014379489,28.718088797874493 -93.41567716273919,30.548215816784428 -94.08555014384226,33.04821581678486 -93.41567716278611,35.54821581679787 -91.58555014387618,37.37834283574216 -89.08555014387575,38.048215816845236" stroke="#ffa500" stroke-linecap="round" stroke-linejoin="round"/><polyline fill="none" points="-123.28047871559518,-53.50954327679913 -120.78047871558218,-54.179416257855266 -118.95035169663788,-56.0095432767652 -118.28047871553481,-58.50954327676563 -118.95035169659096,-61.00954327677864 -120.78047871550089,-62.83967029572294 -123.28047871550132,-63.509543276826015 -125.78047871551432,-62.83967029576988 -127.61060573445862,-61.009543276859944 -128.28047871556169,-58.50954327685951 -127.61060573450554,-56.0095432768465 -125.7804787155956,-54.179416257902204 -123.28047871559518,-53.50954327679913" stroke="#ffa500" stroke-linecap="round" stroke-linejoin="round"/><polyline fill="none" points="-171.72132385578422,-51.83127574975529 -169.2213238557712,-52.50114873081143 -167.3911968368269,-54.331275749721364 -166.72132385572382,-56.8312757497218 -167.39119683677995,-59.33127574973481 -169.2213238556899,-61.1614027686791 -171.72132385569031,-61.83127574978218 -174.22132385570333,-61.16140276872604 -176.05145087464763,-59.33127574981611 -176.7213238557507,-56.831275749815674 -176.05145087469458,-54.331275749802664 -174.22132385578465,-52.50114873085837 -171.72132385578422,-51.831275749755285" stroke="#00f" stroke-linecap="round" stroke-linejoin="round"/><polyline fill="none" points="-3.3203801472203454,157.28467342388106 -0.820380147207334,156.61480044282493 1.0097468717369633,154.784673423915 1.6796198528400441,152.28467342391457 1.0097468717839093,149.78467342390155 -0.820380147126021,147.95454640495726 -3.3203801471264534,147.28467342385417 -5.820380147139465,147.9545464049103 -7.650507166083764,149.78467342382024 -8.320380147186846,152.28467342382066 -7.650507166130713,154.78467342383368 -5.820380147220783,156.61480044277798 -3.3203801472203502,157.28467342388106" stroke="#ffa500" stroke-linecap="round" stroke-linejoin="round"/><polyline fill="none" points="-176.71296459051467,48.06232746402046 -174.21296459050166,47.39245448296433 -172.38283757155736,45.562327464054405 -171.71296459045428,43.06232746405397 -172.3828375715104,40.562327464040955 -174.21296459042034,38.73220044509665 -176.71296459042077,38.06232746399357 -179.21296459043378,38.7322004450497 -181.04309160937808,40.562327463959626 -181.71296459048116,43.06232746396006 -181.04309160942503,45.56232746397308 -179.2129645905151,47.39245448291738 -176.71296459051467,48.06232746402046" stroke="#ffa500" stroke-linecap="round" stroke-linejoin="round"/></svg>