<?xml version="1.0" ?><!DOCTYPE svg  PUBLIC '-//W3C//DTD SVG 1.1//EN'  'http://www.w3.org/Graphics/SVG/1.1/DTD/svg11.dtd'><svg height="447.000" viewBox="-315.000 -213.000 536.000 447.000" width="536.000" xmlns="http://www.w3.org/2000/svg"><line fill="none" stroke="none" stroke-linecap="round" stroke-width="2.0" x1="0.0" x2="0.0" y1="0.0" y2="0.0"/><polygon fill="none" fill-rule="evenodd" points="0.0,0.0 0.0,0.0 0.0,0.0" stroke-linejoin="round"/><polyline fill="none" points="15.324739257774755,39.858390712518755 17.824739257787915,39.18851773146288 19.65486627673247,37.358390712553096 20.324739257835848,34.85839071255266 19.65486627677997,32.3583907125395 17.82473925787019,30.528263693594948 15.324739257869757,29.858390712491566 12.824739257856596,30.52826369354744 10.994612238912039,32.35839071245722 10.324739257808659,34.858390712457656 10.994612238864534,37.358390712470815 12.824739257774315,39.188517731415374 15.324739257774748,39.858390712518755" stroke="#ffa500" stroke-linecap="round" stroke-linejoin="round"/><polyline fill="none" points="10.020198610704794,59.17690930410458 12.520198610717957,58.50703632304871 14.350325629662516,56.67690930413893 15.020198610765897,54.1769093041385 14.350325629710023,51.67690930412534 12.520198610800243,49.84678228518078 10.02019861079981,49.1769093040774 7.520198610786647,49.84678228513327 5.690071591842088,51.67690930404305 5.020198610738705,54.176909304043484 5.690071591794577,56.67690930405665 7.520198610704357,58.50703632300121 10.020198610704789,59.17690930410459" stroke="#ffa500" stroke-linecap="round" stroke-linejoin="round"/><polyline fill="none" points="26.420494013194393,-75.7773745965683 28.920494013207556,-76.44724757762417 30.750621032152118,-78.27737459653395 31.420494013255503,-80.77737459653437 30.750621032199632,-83.27737459654753 28.920494013289854,-85.1075016154921 26.42049401328942,-85.77737459659548 23.920494013276258,-85.1075016155396 22.090366994331696,-83.27737459662983 21.42049401322831,-80.7773745966294 22.09036699428418,-78.27737459661624 23.92049401319396,-76.44724757767167 26.420494013194393,-75.7773745965683" stroke="#ffa500" stroke-linecap="round" stroke-linejoin="round"/><polyline fill="none" points="-119.11703739945416,-100.38169938356086 -116.617037399441,-101.05157236461673 -114.78691038049644,-102.88169938352651 -114.11703739939306,-105.38169938352694 -114.78691038044893,-107.8816993835401 -116.61703739935871,-109.71182640248466 -119.11703739935913,-110.38169938358804 -121.6170373993723,-109.71182640253217 -123.44716441831686,-107.88169938362239 -124.11703739942025,-105.38169938362196 -123.44716441836438,-102.8816993836088 -121.6170373994546,-101.05157236466424 -119.11703739945418,-100.38169938356084" stroke="#ffa500" stroke-linecap="round" stroke-linejoin="round"/><polyline fill="none" points="-135.6049787273195,-8.765396064490663 -133.10497872730633,-9.43526904554653 -131.27485170836178,-11.265396064456306 -130.60497872725838,-13.765396064456738 -131.27485170831426,-16.265396064469904 -133.10497872722402,-18.09552308341447 -135.60497872722445,-18.765396064517862 -138.1049787272376,-18.095523083461995 -139.9351057461822,-16.26539606455222 -140.60497872728558,-13.765396064551787 -139.9351057462297,-11.26539606453862 -138.10497872731995,-9.435269045594055 -135.60497872731952,-8.765396064490663" stroke="#00f" stroke-linecap="round" stroke-linejoin="round"/><polyline fill="none" points="-282.41841217627456,-16.547497929116123 -279.91841217626137,-17.217370910171987 -278.0882851573168,-19.04749792908176 -277.41841217621345,-21.547497929082194 -278.0882851572693,-24.04749792909536 -279.91841217617906,-25.87762494803993 -282.4184121761795,-26.547497929143322 -284.9184121761927,-25.87762494808746 -286.74853919513725,-24.047497929177684 -287.4184121762406,-21.54749792917725 -286.7485391951848,-19.04749792916408 -284.918412176275,-17.21737091021951 -282.41841217627456,-16.547497929116116" stroke="#00f" stroke-linecap="round" stroke-linejoin="round"/><polyline fill="none" points="203.9334768427627,-94.84577000039404 206.43347684277586,-95.5156429814499 208.26360386172044,-97.34577000035968 208.93347684282384,-99.8457700003601 208.26360386176796,-102.34577000037328 206.4334768428582,-104.17589701931784 203.93347684285777,-104.84577000042124 201.4334768428446,-104.17589701936538 199.60334982390003,-102.3457700004556 198.93347684279664,-99.84577000045518 199.6033498238525,-97.345770000442 201.43347684276227,-95.51564298149744 203.9334768427627,-94.84577000039404" stroke="#ffa500" stroke-linecap="round" stroke-linejoin="round"/><polyline fill="none" points="76.40082410901871,-192.14448743351178 78.90082410903189,-192.81436041456766 80.73095112797645,-194.64448743347742 81.40082410907985,-197.14448743347785 80.73095112802399,-199.644487433491 78.90082410911421,-201.4746144524356 76.40082410911378,-202.14448743353898 73.90082410910061,-201.47461445248314 72.07069709015603,-199.64448743357337 71.40082410905264,-197.14448743357295 72.0706970901085,-194.6444874335598 73.90082410901827,-192.8143604146152 76.4008241090187,-192.1444874335118" stroke="#ffa500" stroke-linecap="round" stroke-linejoin="round"/><polyline fill="none" points="-285.8792063246049,-44.335752691770445 -283.37920632459173,-45.005625672826305 -281.5490793056472,-46.835752691736076 -280.87920632454376,-49.33575269173651 -281.5490793055996,-51.83575269174968 -283.37920632450937,-53.665879710694256 -285.8792063245098,-54.33575269179766 -288.379206324523,-53.6658797107418 -290.20933334346756,-51.83575269183203 -290.879206324571,-49.335752691831594 -290.20933334351514,-46.83575269181842 -288.3792063246054,-45.00562567287385 -285.8792063246049,-44.335752691770445" stroke="#00f" stroke-linecap="round" stroke-linejoin="round"/><polyline fill="none" points="-140.27978347527056,104.00261761652482 -137.7797834752574,103.33274463546896 -135.94965645631282,101.50261761655919 -135.27978347520943,99.00261761655877 -135.94965645626527,96.50261761654559 -137.77978347517504,94.67249059760101 -140.27978347517546,94.0026176164976 -142.77978347518865,94.67249059755346 -144.60991049413323,96.50261761646323 -145.27978347523663,99.00261761646365 -144.60991049418078,101.50261761647683 -142.77978347527102,103.3327446354214 -140.2797834752706,104.00261761652482" stroke="#00f" stroke-linecap="round" stroke-linejoin="round"/><polyline fill="none" points="91.81244162997967,160.06509439554924 94.31244162999285,159.3952214144934 96.14256864893743,157.56509439558363 96.81244163004084,155.0650943955832 96.14256864898498,152.56509439557001 94.31244163007521,150.73496737662543 91.81244163007479,150.06509439552204 89.31244163006161,150.73496737657788 87.48231461111703,152.56509439548765 86.81244163001362,155.06509439548807 87.48231461106947,157.56509439550126 89.31244162997923,159.39522141444584 91.81244162997966,160.06509439554924" stroke="#ffa500" stroke-linecap="round" stroke-linejoin="round"/><polyline fill="none" points="123.29876619243292,64.71532759631447 125.7987661924461,64.04545461525862 127.62889321139068,62.21532759634885 128.29876619249407,59.715327596348416 127.62889321143822,57.21532759633524 125.79876619252846,55.38520057739066 123.29876619252803,54.71532759628725 120.79876619251486,55.385200577343106 118.96863917357028,57.21532759625287 118.29876619246687,59.7153275962533 118.96863917352272,62.21532759626648 120.79876619243248,64.04545461521106 123.29876619243291,64.71532759631447" stroke="#ffa500" stroke-linecap="round" stroke-linejoin="round"/><polyline fill="none" points="151.77499829089183,-154.69621907800433 154.27499829090502,-155.36609205906018 156.1051253098496,-157.19621907796994 156.77499829095302,-159.69621907797037 156.10512530989718,-162.19621907798356 154.2749982909874,-164.02634609692814 151.77499829098699,-164.69621907803156 149.2749982909738,-164.02634609697571 147.44487127202922,-162.19621907806595 146.7749982909258,-159.69621907806552 147.44487127198164,-157.19621907805234 149.2749982908914,-155.36609205910776 151.77499829089183,-154.69621907800433" stroke="#ffa500" stroke-linecap="round" stroke-linejoin="round"/><polyline fill="none" points="-83.39218216883124,-81.68700660930028 -80.89218216881807,-82.35687959035613 -79.06205514987349,-84.1870066092659 -78.39218216877008,-86.68700660926632 -79.06205514982592,-89.18700660927949 -80.89218216873569,-91.01713362822407 -83.39218216873611,-91.68700660932748 -85.89218216874929,-91.01713362827164 -87.72230918769387,-89.18700660936187 -88.39218216879728,-86.68700660936145 -87.72230918774143,-84.18700660934827 -85.89218216883167,-82.35687959040368 -83.39218216883124,-81.68700660930027" stroke="#00f" stroke-linecap="round" stroke-linejoin="round"/><polyline fill="none" points="-7.602238000802111,222.40215484309692 -5.102238000788931,221.73228186204108 -3.2721109818443432,219.9021548431313 -2.6022380007409263,217.4021548431309 -3.2721109817967697,214.9021548431177 -5.102238000706532,213.07202782417312 -7.602238000706965,212.4021548430697 -10.102238000720146,213.07202782412554 -11.932365019664736,214.9021548430353 -12.602238000768155,217.40215484303573 -11.932365019712313,219.90215484304892 -10.10223800080255,221.7322818619935 -7.602238000802119,222.40215484309692" stroke="#ffa500" stroke-linecap="round" stroke-linejoin="round"/><polyline fill="none" points="61.091152685329334,-43.13622765740545 63.591152685342514,-43.80610063846129 65.4212797042871,-45.63622765737105 66.09115268539053,-48.136227657371485 65.42127970433468,-50.636227657384666 63.591152685424916,-52.46635467632926 61.09115268542448,-53.136227657432684 58.5911526854113,-52.466354676376845 56.76102566646671,-50.63622765746708 56.091152685363284,-48.13622765746665 56.76102566641912,-45.63622765745347 58.591152685328886,-43.80610063850887 61.09115268532932,-43.13622765740545" stroke="#ffa500" stroke-linecap="round" stroke-linejoin="round"/><polyline fill="none" points="-210.3259796930274,-48.03959723833193 -207.8259796930142,-48.70947021938777 -205.99585267406962,-50.53959723829753 -205.3259796929662,-53.039597238297965 -205.99585267402205,-55.539597238311146 -207.8259796929318,-57.36972425725574 -210.32597969293224,-58.039597238359164 -212.82597969294542,-57.369724257303325 -214.65610671189003,-55.53959723839357 -215.32597969299346,-53.039597238393135 -214.6561067119376,-50.539597238379955 -212.82597969302785,-48.70947021943536 -210.32597969302742,-48.039597238331936" stroke="#008000" stroke-linecap="round" stroke-linejoin="round"/><polyline fill="none" points="29.85351011066922,6.1868214812339914 32.35351011068241,5.516948500178154 34.183637129627,3.686821481268395 34.853510110730426,1.186821481267962 34.18363712967459,-1.3131785187452225 32.35351011076483,-3.1433055376898196 29.853510110764397,-3.8131785187932463 27.353510110751213,-3.143305537737411 25.523383091806615,-1.3131785188276532 24.853510110703187,1.1868214811727793 25.523383091759023,3.686821481185965 27.35351011066878,5.516948500130564 29.853510110669212,6.186821481233992" stroke="#ffa500" stroke-linecap="round" stroke-linejoin="round"/><polyline fill="none" points="-230.09292695740436,-78.5037341678515 -227.59292695739117,-79.17360714890734 -225.76279993844656,-81.0037341678171 -225.09292695734314,-83.50373416781753 -225.76279993839898,-86.00373416783071 -227.59292695730875,-87.83386118677531 -230.09292695730917,-88.50373416787873 -232.59292695732236,-87.8338611868229 -234.42305397626697,-86.00373416791315 -235.0929269573704,-83.50373416791273 -234.42305397631455,-81.00373416789954 -232.59292695740479,-79.17360714895494 -230.09292695740436,-78.50373416785152" stroke="#00f" stroke-linecap="round" stroke-linejoin="round"/><polyline fill="none" points="39.218835595988025,-170.05136471610885 41.71883559600121,-170.72123769716467 43.548962614945815,-172.55136471607443 44.218835596049246,-175.05136471607486 43.548962614993414,-177.55136471608805 41.71883559608366,-179.38149173503265 39.218835596083224,-180.05136471613608 36.718835596070036,-179.38149173508026 34.888708577125435,-177.5513647161705 34.218835596022004,-175.05136471617007 34.888708577077836,-172.55136471615688 36.71883559598759,-170.72123769721227 39.218835595988025,-170.05136471610885" stroke="#00f" stroke-linecap="round" stroke-linejoin="round"/><polyline fill="none" points="122.28428429248336,-13.882519198632746 124.78428429249655,-14.552392179688574 126.61441131144116,-16.382519198598327 127.2842842925446,-18.88251919859876 126.61441131148877,-21.38251919861195 124.78428429257902,-23.212646217556554 122.28428429257859,-23.88251919865999 119.7842842925654,-23.21264621760416 117.9541572736208,-21.382519198694407 117.28428429251736,-18.882519198693974 117.95415727357319,-16.382519198680782 119.78428429248294,-14.552392179736177 122.28428429248336,-13.88251919863274" stroke="#ffa500" stroke-linecap="round" stroke-linejoin="round"/><polyline fill="none" points="-40.65538070498443,43.0396971529027 -38.15538070497124,42.36982417184687 -36.325253686026635,40.53969715293712 -35.655380704923196,38.03969715293669 -36.32525368597902,35.5396971529235 -38.15538070488877,33.70957013397889 -40.655380704889204,33.039697152875455 -43.15538070490239,33.70957013393128 -44.985507723847,35.53969715284103 -45.65538070495044,38.03969715284146 -44.985507723894614,40.53969715285465 -43.155380704984864,42.36982417179926 -40.65538070498443,43.0396971529027" stroke="#ffa500" stroke-linecap="round" stroke-linejoin="round"/><polyline fill="none" points="81.86946102388085,-72.00340203544528 84.36946102389403,-72.6732750165011 86.19958804283864,-74.50340203541084 86.86946102394208,-77.00340203541127 86.19958804288626,-79.50340203542446 84.36946102397651,-81.33352905436907 81.86946102397609,-82.0034020354725 79.3694610239629,-81.33352905441669 77.53933400501829,-79.50340203550694 76.86946102391485,-77.00340203550651 77.53933400497067,-74.50340203549332 79.36946102388042,-72.67327501654871 81.86946102388085,-72.00340203544528" stroke="#ffa500" stroke-linecap="round" stroke-linejoin="round"/><polyline fill="none" points="-91.05480678566556,88.46542840308454 -88.55480678565237,87.79555542202873 -86.72467976670777,85.96542840311898 -86.05480678560433,83.46542840311855 -86.72467976666015,80.96542840310536 -88.5548067855699,79.13530138416075 -91.05480678557032,78.46542840305732 -93.55480678558351,79.13530138411313 -95.38493380452812,80.96542840302288 -96.05480678563156,83.46542840302331 -95.38493380457574,85.9654284030365 -93.55480678566599,87.7955554219811 -91.05480678566556,88.46542840308454" stroke="#00f" stroke-linecap="round" stroke-linejoin="round"/><polyline fill="none" points="89.07561754365486,-68.85280782037128 91.57561754366805,-69.5226808014271 93.40574456261265,-71.35280782033685 94.07561754371609,-73.85280782033728 93.40574456266027,-76.35280782035046 91.57561754375052,-78.18293483929507 89.0756175437501,-78.85280782039852 86.57561754373691,-78.1829348393427 84.7454905247923,-76.35280782043296 84.07561754368885,-73.85280782043253 84.74549052474467,-71.35280782041934 86.57561754365442,-69.52268080147473 89.07561754365484,-68.85280782037128" stroke="#00f" stroke-linecap="round" stroke-linejoin="round"/><polyline fill="none" points="180.90936514800202,-103.74023621207814 183.4093651480152,-104.41010919313396 185.23949216695982,-106.24023621204371 185.90936514806327,-108.74023621204414 185.23949216700746,-111.24023621205734 183.40936514809772,-113.07036323100195 180.9093651480973,-113.7402362121054 178.4093651480841,-113.07036323104958 176.5792381291395,-111.24023621213983 175.90936514803604,-108.74023621213941 176.57923812909186,-106.2402362121262 178.4093651480016,-104.41010919318158 180.90936514800202,-103.74023621207813" stroke="#00f" stroke-linecap="round" stroke-linejoin="round"/><polyline fill="none" points="100.90863708039157,91.15344740662307 103.40863708040477,90.48357442556726 105.2387640993494,88.6534474066575 105.90863708045285,86.15344740665708 105.23876409939703,83.65344740664388 103.40863708048728,81.82332038769925 100.90863708048686,81.1534474065958 98.40863708047365,81.82332038765162 96.57851006152903,83.65344740656137 95.90863708042558,86.1534474065618 96.5785100614814,88.653447406575 98.40863708039114,90.48357442551962 100.90863708039157,91.15344740662307" stroke="#ffa500" stroke-linecap="round" stroke-linejoin="round"/><polyline fill="none" points="109.38658837518233,29.991111223766904 111.88658837519553,29.32123824271109 113.71671539414015,27.491111223801344 114.3865883752436,24.99111122380091 113.71671539418779,22.491111223787712 111.88658837527804,20.660984204843093 109.38658837527761,19.991111223739637 106.88658837526441,20.660984204795447 105.05646135631979,22.49111122370519 104.38658837521633,24.991111223705623 105.05646135627215,27.49111122371882 106.8865883751819,29.321238242663444 109.38658837518233,29.9911112237669" stroke="#ffa500" stroke-linecap="round" stroke-linejoin="round"/><polyline fill="none" points="-50.831530859912704,-38.8978326919587 -48.3315308598995,-39.56770567301451 -46.50140384095488,-41.39783269192425 -45.83153085985142,-43.897832691924684 -46.50140384090723,-46.397832691937886 -48.33153085981697,-48.22795971088251 -50.831530859817406,-48.89783269198597 -53.33153085983061,-48.22795971093016 -55.16165787877523,-46.397832692020415 -55.83153085987869,-43.89783269201998 -55.16165787882288,-41.39783269200678 -53.33153085991314,-39.56770567306216 -50.831530859912704,-38.8978326919587" stroke="#ffa500" stroke-linecap="round" stroke-linejoin="round"/><polyline fill="none" points="-55.62397149328779,57.777525736501254 -53.12397149327459,57.10765275544544 -51.293844474329966,55.2775257365357 -50.623971493226506,52.77752573653527 -51.29384447428232,50.277525736522065 -53.12397149319206,48.44739871757744 -55.62397149319249,47.77752573647398 -58.123971493205694,48.44739871752979 -59.95409851215032,50.277525736439536 -60.62397149325378,52.77752573643997 -59.95409851219797,55.27752573645317 -58.12397149328823,57.107652755397794 -55.6239714932878,57.777525736501254" stroke="#ffa500" stroke-linecap="round" stroke-linejoin="round"/><polyline fill="none" points="-149.11614076100085,102.44034061649565 -146.61614076098763,101.77046763543984 -144.786013742043,99.94034061653011 -144.11614076093954,97.44034061652968 -144.78601374199536,94.94034061651648 -146.6161407609051,93.11021359757186 -149.11614076090552,92.44034061646839 -151.61614076091874,93.1102135975242 -153.44626777986338,94.94034061643393 -154.11614076096683,97.44034061643436 -153.446267779911,99.94034061644756 -151.61614076100128,101.77046763539218 -149.11614076100085,102.44034061649565" stroke="#ffa500" stroke-linecap="round" stroke-linejoin="round"/><polyline fill="none" points="-28.431883658986354,-102.00304539253163 -25.931883658973153,-102.67291837358744 -24.101756640028523,-104.50304539249717 -23.43188365892506,-107.0030453924976 -24.101756639980863,-109.5030453925108 -25.9318836588906,-111.33317241145544 -28.431883658891035,-112.0030453925589 -30.93188365890424,-111.3331724115031 -32.76201067784887,-109.50304539259336 -33.43188365895234,-107.00304539259294 -32.762010677896534,-104.50304539257974 -30.931883658986795,-102.6729183736351 -28.43188365898636,-102.00304539253163" stroke="#00f" stroke-linecap="round" stroke-linejoin="round"/><polyline fill="none" points="-261.7392805617604,5.005643526162295 -259.2392805617472,4.335770545106494 -257.4091535428026,2.5056435261967565 -256.7392805616991,0.005643526196323467 -257.4091535427549,-2.494356473816882 -259.23928056166466,-4.324483492761515 -261.7392805616651,-4.9943564738649835 -264.2392805616783,-4.324483492809184 -266.0694075806229,-2.4943564738994475 -266.7392805617264,0.0056435261009855076 -266.0694075806706,2.5056435261141914 -264.23928056176084,4.335770545058826 -261.7392805617604,5.005643526162295" stroke="#ffa500" stroke-linecap="round" stroke-linejoin="round"/><polyline fill="none" points="-179.88990419290764,115.97633370111235 -177.38990419289442,115.30646072005655 -175.55977717394978,113.47633370114681 -174.8899041928463,110.97633370114639 -175.5597771739021,108.47633370113319 -177.38990419281183,106.64620668218855 -179.88990419281225,105.97633370108508 -182.38990419282547,106.64620668214089 -184.2200312117701,108.47633370105062 -184.8899041928736,110.97633370105105 -184.2200312118178,113.47633370106425 -182.38990419290806,115.30646072000889 -179.88990419290764,115.97633370111235" stroke="#ffa500" stroke-linecap="round" stroke-linejoin="round"/><polyline fill="none" points="175.51734960225187,160.45991841591987 178.01734960226509,159.79004543486408 179.84747662120972,157.95991841595435 180.5173496023132,155.45991841595392 179.8474766212574,152.9599184159407 178.01734960234768,151.12979139699607 175.51734960234725,150.4599184158926 173.01734960233404,151.12979139694838 171.1872225833894,152.9599184158581 170.51734960228592,155.45991841585854 171.1872225833417,157.95991841587175 173.01734960225144,159.7900454348164 175.51734960225187,160.45991841591987" stroke="#ffa500" stroke-linecap="round" stroke-linejoin="round"/><polyline fill="none" points="-222.2653196981059,-13.88937793673124 -219.7653196980927,-14.559250917787033 -217.93519267914806,-16.389377936696768 -217.26531969804458,-18.8893779366972 -217.93519267910037,-21.38937793671041 -219.7653196980101,-23.21950495565505 -222.26531969801053,-23.889377936758528 -224.76531969802375,-23.219504955702735 -226.59544671696838,-21.389377936793004 -227.26531969807186,-18.88937793679257 -226.59544671701607,-16.38937793677936 -224.76531969810634,-14.55925091783472 -222.2653196981059,-13.889377936731243" stroke="#f00" stroke-linecap="round" stroke-linejoin="round"/><polyline fill="none" points="135.41636504382657,-126.25449662658377 137.9163650438398,-126.92436960763956 139.74649206278443,-128.7544966265493 140.4163650438879,-131.25449662654972 139.74649206283212,-133.75449662656294 137.91636504392238,-135.58462364550758 135.41636504392196,-136.25449662661106 132.91636504390874,-135.58462364555527 131.0862380249641,-133.75449662664553 130.41636504386062,-131.2544966266451 131.0862380249164,-128.7544966266319 132.91636504382615,-126.92436960768725 135.41636504382657,-126.25449662658377" stroke="#ffa500" stroke-linecap="round" stroke-linejoin="round"/><polyline fill="none" points="115.93254686807606,-135.93590847395043 118.43254686808928,-136.60578145500622 120.26267388703391,-138.43590847391596 120.9325468681374,-140.93590847391638 120.2626738870816,-143.4359084739296 118.43254686817187,-145.26603549287424 115.93254686817144,-145.93590847397772 113.43254686815823,-145.26603549292193 111.60241984921358,-143.4359084740122 110.9325468681101,-140.93590847401177 111.60241984916588,-138.43590847399855 113.43254686807562,-136.60578145505391 115.93254686807605,-135.93590847395043" stroke="#ffa500" stroke-linecap="round" stroke-linejoin="round"/><polyline fill="none" points="198.24030599215698,-69.0489903034229 200.7403059921702,-69.71886328447869 202.57043301111483,-71.54899030338842 203.2403059922183,-74.04899030338885 202.57043301116252,-76.54899030340206 200.7403059922528,-78.37911732234672 198.24030599225236,-79.0489903034502 195.74030599223914,-78.3791173223944 193.9101789732945,-76.54899030348467 193.24030599219103,-74.04899030348425 193.91017897324681,-71.54899030347103 195.74030599215655,-69.71886328452638 198.24030599215698,-69.0489903034229" stroke="#ffa500" stroke-linecap="round" stroke-linejoin="round"/><polyline fill="none" points="-194.6661333360416,-13.115211401910425 -192.1661333360284,-13.785084382966211 -190.33600631708376,-15.61521140187594 -189.66613333598028,-18.115211401876373 -190.33600631703607,-20.61521140188959 -192.1661333359458,-22.445338420834236 -194.66613333594623,-23.115211401937724 -197.16613333595944,-22.445338420881942 -198.99626035490408,-20.615211401972214 -199.66613333600756,-18.11521140197178 -198.99626035495177,-15.615211401958566 -197.16613333604204,-13.785084383013917 -194.6661333360416,-13.115211401910429" stroke="#00f" stroke-linecap="round" stroke-linejoin="round"/><polyline fill="none" points="20.28979487341677,-121.01797124110696 22.789794873429987,-121.68784422216275 24.619921892374638,-123.51797124107247 25.289794873478126,-126.0179712410729 24.619921892422344,-128.51797124108612 22.789794873512616,-130.34809826003075 20.289794873512182,-131.01797124113423 17.789794873498966,-130.34809826007844 15.959667854554315,-128.5179712411687 15.289794873450825,-126.01797124116828 15.959667854506606,-123.51797124115507 17.789794873416334,-121.68784422221042 20.289794873416767,-121.01797124110692" stroke="#ffa500" stroke-linecap="round" stroke-linejoin="round"/><polyline fill="none" points="38.729765852865846,-43.5562069916661 41.22976585287906,-44.226079972721884 43.05989287182371,-46.05620699163161 43.7297658529272,-48.556206991632045 43.05989287187142,-51.05620699164526 41.22976585296169,-52.88633401058991 38.72976585296126,-53.5562069916934 36.22976585294804,-52.88633401063762 34.39963883400339,-51.05620699172789 33.729765852899895,-48.55620699172746 34.39963883395568,-46.05620699171424 36.229765852865405,-44.22607997276959 38.72976585286584,-43.556206991666095" stroke="#ffa500" stroke-linecap="round" stroke-linejoin="round"/><polyline fill="none" points="162.84112770235876,106.45823178534354 165.34112770237198,105.78835880428777 167.17125472131664,103.95823178537805 167.84112770242012,101.45823178537762 167.17125472136433,98.9582317853644 165.3411277024546,97.12810476641975 162.84112770245417,96.45823178531626 160.34112770244096,97.12810476637203 158.5110006834963,98.95823178528175 157.8411277023928,101.45823178528218 158.5110006834486,103.9582317852954 160.34112770235834,105.78835880424005 162.84112770235876,106.45823178534354" stroke="#ffa500" stroke-linecap="round" stroke-linejoin="round"/><polyline fill="none" points="62.0424407976246,185.96364930135417 64.54244079763782,185.29377632029838 66.37256781658247,183.46364930138864 67.04244079768597,180.96364930138822 66.3725678166302,178.463649301375 64.54244079772047,176.63352228243033 62.04244079772004,175.96364930132683 59.54244079770682,176.6335222823826 57.71231377876216,178.46364930129232 57.042440797658664,180.96364930129275 57.71231377871444,183.46364930130596 59.54244079762416,185.29377632025063 62.04244079762459,185.96364930135414" stroke="#ffa500" stroke-linecap="round" stroke-linejoin="round"/><polyline fill="none" points="-152.128692274946,-65.58022972018865 -149.62869227493277,-66.25010270124443 -147.7985652559881,-68.08022972015415 -147.1286922748846,-70.58022972015458 -147.79856525594036,-73.0802297201678 -149.6286922748501,-74.91035673911246 -152.12869227485052,-75.58022972021595 -154.62869227486374,-74.91035673916018 -156.4588192938084,-73.08022972025046 -157.1286922749119,-70.58022972025003 -156.45881929385615,-68.08022972023682 -154.62869227494645,-66.25010270129215 -152.12869227494602,-65.58022972018865" stroke="#00f" stroke-linecap="round" stroke-linejoin="round"/><polyline fill="none" points="-214.27174298625664,99.0340531628526 -211.77174298624342,98.36418018179683 -209.94161596729876,96.5340531628871 -209.27174298619525,94.03405316288668 -209.941615967251,91.53405316287346 -211.77174298616072,89.7039261439288 -214.27174298616114,89.03405316282529 -216.77174298617436,89.70392614388106 -218.60187000511903,91.53405316279078 -219.27174298622253,94.03405316279121 -218.60187000516677,96.53405316280443 -216.77174298625707,98.36418018174909 -214.27174298625664,99.0340531628526" stroke="#00f" stroke-linecap="round" stroke-linejoin="round"/><polyline fill="none" points="156.00365569116238,152.90096824823806 158.5036556911756,152.2310952671823 160.33378271012026,150.4009682482726 161.00365569122377,147.90096824827216 160.333782710168,145.40096824825895 158.5036556912583,143.57084122931428 156.00365569125788,142.90096824821077 153.50365569124466,143.57084122926653 151.6735286723,145.40096824817624 151.00365569119649,147.90096824817667 151.67352867225225,150.40096824818988 153.50365569116195,152.23109526713455 156.00365569116238,152.90096824823806" stroke="#ffa500" stroke-linecap="round" stroke-linejoin="round"/><polyline fill="none" points="-168.6039273751979,68.13824965389401 -166.1039273751847,67.46837667283825 -164.27380035624003,65.63824965392853 -163.60392737513652,63.13824965392809 -164.27380035619228,60.63824965391487 -166.103927375102,58.8081226349702 -168.60392737510242,58.138249653866694 -171.10392737511563,58.80812263492246 -172.9340543940603,60.638249653832176 -173.6039273751638,63.13824965383261 -172.93405439410805,65.63824965384583 -171.10392737519834,67.4683766727905 -168.6039273751979,68.13824965389401" stroke="#ffa500" stroke-linecap="round" stroke-linejoin="round"/><polyline fill="none" points="-103.5500057605569,-55.98495625451628 -101.05000576054367,-56.65482923557204 -99.219878741599,-58.48495625448175 -98.5500057604955,-60.984956254482185 -99.21987874155126,-63.48495625449541 -101.05000576046098,-65.31508327344008 -103.5500057604614,-65.98495625454359 -106.05000576047463,-65.31508327348783 -107.8801327794193,-63.484956254578115 -108.55000576052281,-60.98495625457768 -107.88013277946705,-58.48495625456445 -106.05000576055733,-56.65482923561978 -103.5500057605569,-55.98495625451627" stroke="#00f" stroke-linecap="round" stroke-linejoin="round"/><polyline fill="none" points="137.28033358435508,-26.91476981245591 139.7803335843683,-27.58464279351167 141.61046060331296,-29.414769812421383 142.28033358441647,-31.914769812421817 141.6104606033607,-34.41476981243505 139.780333584451,-36.24489683137972 137.28033358445057,-36.91476981248323 134.78033358443736,-36.24489683142747 132.9502065654927,-34.414769812517754 132.28033358438918,-31.91476981251732 132.95020656544494,-29.414769812504094 134.78033358435465,-27.58464279355942 137.28033358435508,-26.91476981245591" stroke="#ffa500" stroke-linecap="round" stroke-linejoin="round"/><polyline fill="none" points="36.07063314957552,35.34588451226989 38.57063314958875,34.67601153121413 40.400760168533424,32.845884512304416 41.07063314963694,30.345884512303982 40.40076016858118,27.845884512290752 38.570633149671465,26.01575749334608 36.07063314967103,25.345884512242563 33.5706331496578,26.01575749329832 31.740506130713126,27.845884512208034 31.07063314960961,30.345884512208467 31.740506130665366,32.845884512221694 33.57063314957508,34.67601153116637 36.070633149575514,35.34588451226988" stroke="#00f" stroke-linecap="round" stroke-linejoin="round"/><polyline fill="none" points="61.46346357681611,129.51634473771404 63.96346357682934,128.84647175665827 65.79359059577402,127.01634473774857 66.46346357687754,124.51634473774814 65.79359059582178,122.01634473773491 63.96346357691207,120.18621771879023 61.463463576911636,119.51634473768671 58.963463576898405,120.18621771874247 57.133336557953726,122.01634473765218 56.46346357685021,124.5163447376526 57.13333655790596,127.01634473766583 58.96346357681568,128.8464717566105 61.46346357681611,129.516344737714" stroke="#ffa500" stroke-linecap="round" stroke-linejoin="round"/><polyline fill="none" points="-196.64519049492824,-114.4544975298734 -194.145190494915,-115.12437051092915 -192.31506347597033,-116.95449752983886 -191.64519049486682,-119.45449752983929 -192.31506347592259,-121.95449752985252 -194.1451904948323,-123.7846245487972 -196.64519049483272,-124.45449752990072 -199.14519049484596,-123.78462454884497 -200.97531751379063,-121.95449752993527 -201.64519049489414,-119.45449752993484 -200.97531751383838,-116.95449752992161 -199.14519049492867,-115.12437051097693 -196.64519049492824,-114.45449752987341" stroke="#ffa500" stroke-linecap="round" stroke-linejoin="round"/><polyline fill="none" points="-65.59026508326434,-77.73028155118875 -63.09026508325111,-78.4001545322445 -61.26013806430643,-80.2302815511542 -60.59026508320291,-82.73028155115463 -61.26013806425866,-85.23028155116786 -63.09026508316837,-87.06040857011254 -65.5902650831688,-87.73028155121607 -68.09026508318203,-87.06040857016032 -69.92039210212671,-85.23028155125061 -70.59026508323024,-82.73028155125019 -69.92039210217449,-80.23028155123696 -68.09026508326478,-78.40015453229228 -65.59026508326436,-77.73028155118875" stroke="#ffa500" stroke-linecap="round" stroke-linejoin="round"/><polyline fill="none" points="-116.68823000895539,-20.00007570320583 -114.18823000894216,-20.66994868426158 -112.35810298999748,-22.500075703171287 -111.68823000889395,-25.00007570317172 -112.3581029899497,-27.500075703184955 -114.1882300088594,-29.330202722129638 -116.68823000885983,-30.000075703233165 -119.18823000887306,-29.330202722177418 -121.01835702781774,-27.50007570326771 -121.68823000892127,-25.000075703267278 -121.01835702786552,-22.500075703254044 -119.18823000895581,-20.66994868430936 -116.68823000895539,-20.000075703205834" stroke="#ffa500" stroke-linecap="round" stroke-linejoin="round"/><polyline fill="none" points="45.61490674417456,89.5341281357302 48.1149067441878,88.86425515467445 49.945033763132486,87.03412813576475 50.614906744236016,84.53412813576432 49.94503376318027,82.03412813575109 48.11490674427056,80.20400111680641 45.61490674427013,79.53412813570289 43.11490674425689,80.20400111675863 41.284779725312205,82.03412813566834 40.614906744208675,84.53412813566877 41.28477972526442,87.034128135682 43.11490674417413,88.86425515462669 45.61490674417456,89.53412813573023" stroke="#00f" stroke-linecap="round" stroke-linejoin="round"/><polyline fill="none" points="-44.074623564384034,153.94423889809357 -41.574623564370796,153.27436591703784 -39.74449654542611,151.44423889812813 -39.07462356432258,148.9442388981277 -39.744496545378325,146.44423889811446 -41.57462356428803,144.61411187916977 -44.074623564288466,143.94423889806623 -46.5746235643017,144.61411187912196 -48.40475058324639,146.44423889803167 -49.07462356434992,148.9442388980321 -48.40475058329418,151.44423889804534 -46.574623564384474,153.27436591699004 -44.07462356438404,153.94423889809357" stroke="#ffa500" stroke-linecap="round" stroke-linejoin="round"/><polyline fill="none" points="-105.43349808156779,28.83356316372787 -102.93349808155455,28.163690182672127 -101.10337106260985,26.333563163762424 -100.43349808150631,23.83356316376199 -101.10337106256206,21.333563163748753 -102.93349808147177,19.503436144804063 -105.4334980814722,18.83356316370053 -107.93349808148544,19.50343614475627 -109.76362510043013,21.333563163665975 -110.43349808153367,23.83356316366641 -109.76362510047792,26.33356316367965 -107.93349808156822,28.163690182624343 -105.43349808156779,28.83356316372788" stroke="#00f" stroke-linecap="round" stroke-linejoin="round"/><polyline fill="none" points="-87.39762685577846,74.19699964586279 -84.89762685576521,73.52712666480704 -83.06749983682052,71.69699964589734 -82.39762685571698,69.19699964589691 -83.06749983677273,66.69699964588366 -84.89762685568243,64.86687262693897 -87.39762685568286,64.19699964583543 -89.8976268556961,64.86687262689117 -91.7277538746408,66.69699964580087 -92.39762685574433,69.1969996458013 -91.7277538746886,71.69699964581454 -89.8976268557789,73.52712666475924 -87.39762685577847,74.19699964586277" stroke="#ffa500" stroke-linecap="round" stroke-linejoin="round"/><polyline fill="none" points="50.88008961063115,12.689239834121123 53.3800896106444,12.019366853065385 55.21021662958909,10.189239834155684 55.88008961069263,7.68923983415525 55.21021662963689,5.1892398341420085 53.38008961072719,3.359112815197313 50.880089610726756,2.689239834093772 48.38008961071351,3.3591128151495084 46.54996259176882,5.189239834059209 45.88008961066527,7.6892398340596415 46.549962591721005,10.189239834072884 48.380089610630705,12.019366853017582 50.88008961063114,12.689239834121125" stroke="#ffa500" stroke-linecap="round" stroke-linejoin="round"/><polyline fill="none" points="-189.4806941831004,-56.163363884855364 -186.98069418308717,-56.8332368659111 -185.15056716414247,-58.6633638848208 -184.48069418303893,-61.16336388482123 -185.15056716409467,-63.663363884834475 -186.98069418300437,-65.49349090377918 -189.4806941830048,-66.16336388488271 -191.98069418301804,-65.49349090382698 -193.81082120196274,-63.66336388491728 -194.48069418306628,-61.16336388491685 -193.81082120201054,-58.6633638849036 -191.98069418310084,-56.8332368659589 -189.4806941831004,-56.16336388485536" stroke="#008000" stroke-linecap="round" stroke-linejoin="round"/><polyline fill="none" points="-144.79015136754478,-68.09648118204242 -142.29015136753154,-68.76635416309816 -140.46002434858684,-70.59648118200785 -139.7901513674833,-73.09648118200828 -140.46002434853904,-75.59648118202152 -142.29015136744874,-77.42660820096623 -144.79015136744917,-78.09648118206978 -147.2901513674624,-77.42660820101405 -149.1202783864071,-75.59648118210436 -149.79015136751065,-73.09648118210393 -149.1202783864549,-70.59648118209068 -147.2901513675452,-68.76635416314598 -144.79015136754478,-68.09648118204242" stroke="#00f" stroke-linecap="round" stroke-linejoin="round"/><polyline fill="none" points="20.728027538290767,189.1358512299079 23.228027538304012,188.46597824885217 25.058154557248713,186.63585122994246 25.72802753835226,184.13585122994203 25.058154557296533,181.6358512299288 23.228027538386836,179.8057242109841 20.728027538386403,179.13585122988056 18.228027538373155,179.8057242109363 16.39790051942845,181.635851229846 15.7280275383249,184.13585122984642 16.397900519380627,186.63585122985967 18.228027538290323,188.46597824880436 20.728027538290757,189.1358512299079" stroke="#00f" stroke-linecap="round" stroke-linejoin="round"/><polyline fill="none" points="-198.96914493042354,25.950836810618224 -196.4691449304103,25.280963829562495 -194.6390179114656,23.4508368106528 -193.96914493036206,20.950836810652365 -194.6390179114178,18.450836810639117 -196.4691449303275,16.620709791694413 -198.96914493032793,15.950836810590861 -201.46914493034117,16.620709791646586 -203.29927194928587,18.450836810556282 -203.96914493038943,20.950836810556716 -203.2992719493337,23.450836810569964 -201.469144930424,25.280963829514672 -198.96914493042357,25.950836810618224" stroke="#00f" stroke-linecap="round" stroke-linejoin="round"/><polyline fill="none" points="125.63594855034232,175.51103400235183 128.13594855035558,174.8411610212961 129.96607556930027,173.0110340023864 130.63594855040384,170.51103400238597 129.9660755693481,168.01103400237272 128.1359485504384,166.18090698342803 125.63594855043797,165.51103400232446 123.13594855042473,166.1809069833802 121.30582153148002,168.0110340022899 120.63594855037647,170.51103400229033 121.30582153143219,173.01103400230357 123.13594855034188,174.8411610212483 125.6359485503423,175.51103400235186" stroke="#ffa500" stroke-linecap="round" stroke-linejoin="round"/><polyline fill="none" points="-116.90296467524453,-19.945601848530405 -114.40296467523129,-20.615474829586127 -112.57283765628658,-22.44560184849582 -111.90296467518303,-24.945601848496253 -112.57283765623875,-27.445601848509504 -114.40296467514844,-29.275728867454216 -116.90296467514887,-29.945601848557775 -119.40296467516211,-29.275728867502053 -121.23309169410682,-27.44560184859236 -121.90296467521037,-24.945601848591927 -121.23309169415465,-22.445601848578676 -119.40296467524496,-20.615474829633964 -116.90296467524453,-19.945601848530405" stroke="#ffa500" stroke-linecap="round" stroke-linejoin="round"/><polyline fill="none" points="152.11919966532082,-56.1808637620558 154.61919966533407,-56.85073674311152 156.4493266842788,-58.68086376202121 157.11919966538235,-61.180863762021644 156.44932668432662,-63.680863762034896 154.61919966541694,-65.51099078097961 152.11919966541652,-66.18086376208318 149.61919966540327,-65.51099078102746 147.78907264645855,-63.68086376211777 147.11919966535498,-61.18086376211733 147.78907264641072,-58.68086376210408 149.6191996653204,-56.850736743159366 152.11919966532082,-56.18086376205581" stroke="#ffa500" stroke-linecap="round" stroke-linejoin="round"/><polyline fill="none" points="-115.83539070356072,141.2622633525597 -113.33539070354746,140.592390371504 -111.50526368460275,138.76226335259432 -110.83539070349919,136.2622633525939 -111.5052636845549,133.76226335258065 -113.3353907034646,131.93213633363592 -115.83539070346502,131.26226335253236 -118.33539070347828,131.93213633358806 -120.165517722423,133.76226335249774 -120.83539070352657,136.26226335249817 -120.16551772247085,138.7622633525114 -118.33539070356116,140.59239037145613 -115.83539070356073,141.2622633525597" stroke="#ffa500" stroke-linecap="round" stroke-linejoin="round"/><polyline fill="none" points="79.42564726391085,-5.942509112412443 81.9256472639241,-6.612382093468159 83.75577428286883,-8.442509112377847 84.4256472639724,-10.94250911237828 83.75577428291668,-13.442509112391534 81.92564726400698,-15.272636131336252 79.42564726400656,-15.942509112439819 76.9256472639933,-15.272636131384104 75.09552024504858,-13.442509112474415 74.42564726394501,-10.942509112473982 75.09552024500073,-8.442509112460726 76.92564726391042,-6.612382093516008 79.42564726391085,-5.9425091124124405" stroke="#ffa500" stroke-linecap="round" stroke-linejoin="round"/><polyline fill="none" points="-240.65388084195246,-24.417774977681532 -238.1538808419392,-25.087647958737247 -236.3237538229945,-26.917774977646935 -235.65388084189092,-29.41777497764737 -236.32375382294663,-31.917774977660624 -238.1538808418563,-33.74790199660534 -240.65388084185673,-34.41777497770891 -243.15388084186998,-33.7479019966532 -244.9840078608147,-31.91777497774351 -245.65388084191827,-29.417774977743075 -244.98400786086256,-26.91777497772982 -243.15388084195288,-25.087647958785098 -240.65388084195246,-24.41777497768153" stroke="#008000" stroke-linecap="round" stroke-linejoin="round"/><polyline fill="none" points="-118.55830548792716,71.1392661450987 -116.0583054879139,70.46939316404298 -114.22817846896918,68.63926614513329 -113.55830548786561,66.13926614513286 -114.22817846892131,63.639266145119606 -116.058305487831,61.809139126174884 -118.55830548783143,61.13926614507131 -121.05830548784469,61.80913912612702 -122.88843250678941,63.63926614503671 -123.55830548789298,66.13926614503714 -122.88843250683728,68.6392661450504 -121.0583054879276,70.46939316399512 -118.55830548792717,71.13926614509869" stroke="#00f" stroke-linecap="round" stroke-linejoin="round"/><polyline fill="none" points="-87.93496400734244,-5.676154379537147 -85.43496400732919,-6.346027360592856 -83.60483698838446,-8.176154379502542 -82.9349640072809,-10.676154379502975 -83.6048369883366,-13.176154379516234 -85.43496400724628,-15.006281398460958 -87.9349640072467,-15.676154379564531 -90.43496400725996,-15.006281398508824 -92.26509102620469,-13.17615437959914 -92.93496400730827,-10.676154379598708 -92.26509102625256,-8.17615437958545 -90.43496400734288,-6.346027360640724 -87.93496400734246,-5.676154379537148" stroke="#ffa500" stroke-linecap="round" stroke-linejoin="round"/><polyline fill="none" points="120.9266078078099,145.8530990143584 123.42660780782316,145.1832260333027 125.25673482676788,143.35309901439302 125.92660780787146,140.8530990143926 125.25673482681576,138.35309901437932 123.42660780790608,136.5229719954346 120.92660780790565,135.85309901433104 118.4266078078924,136.52297199538674 116.59648078894767,138.35309901429642 115.92660780784409,140.85309901429684 116.5964807888998,143.35309901431012 118.42660780780948,145.18322603325484 120.9266078078099,145.8530990143584" stroke="#00f" stroke-linecap="round" stroke-linejoin="round"/><polyline fill="none" points="-298.7534961722049,-47.16124196071598 -296.25349617219166,-47.83111494177168 -294.42336915324694,-49.66124196068136 -293.75349617214334,-52.16124196068179 -294.423369153199,-54.66124196069505 -296.2534961721087,-56.49136897963978 -298.7534961721092,-57.16124196074336 -301.2534961721224,-56.49136897968766 -303.08362319106715,-54.66124196077798 -303.75349617217074,-52.161241960777545 -303.08362319111507,-49.661241960764286 -301.25349617220536,-47.83111494181956 -298.7534961722049,-47.16124196071598" stroke="#ffa500" stroke-linecap="round" stroke-linejoin="round"/><polyline fill="none" points="-133.01095552453887,110.13131897088788 -130.5109555245256,109.46144598983217 -128.68082850558088,107.6313189709225 -128.01095552447728,105.13131897092207 -128.680828505533,102.63131897090881 -130.51095552444266,100.80119195196407 -133.0109555244431,100.13131897086049 -135.51095552445636,100.8011919519162 -137.3410825434011,102.63131897082587 -138.01095552450468,105.1313189708263 -137.34108254344898,107.63131897083956 -135.5109555245393,109.4614459897843 -133.01095552453887,110.13131897088788" stroke="#ffa500" stroke-linecap="round" stroke-linejoin="round"/><polyline fill="none" points="-263.5045111851065,109.23869673328211 -261.00451118509324,108.56882375222641 -259.1743841661485,106.73869673331673 -258.5045111850449,104.2386967333163 -259.1743841661006,101.73869673330304 -261.0045111850103,99.90856971435831 -263.50451118501076,99.23869673325473 -266.004511185024,99.90856971431043 -267.8346382039687,101.73869673322011 -268.5045111850723,104.23869673322054 -267.83463820401664,106.7386967332338 -266.00451118510694,108.56882375217853 -263.5045111851065,109.23869673328211" stroke="#ffa500" stroke-linecap="round" stroke-linejoin="round"/><polyline fill="none" points="-170.99933939918617,-39.79790475897008 -168.4993393991729,-40.467777740025774 -166.66921238022817,-42.29790475893545 -165.99933939912458,-44.797904758935886 -166.66921238018028,-47.29790475894915 -168.49933939908996,-49.12803177789389 -170.9993393990904,-49.797904758997475 -173.49933939910366,-49.12803177794178 -175.3294664180484,-47.2979047590321 -175.999339399152,-44.79790475903167 -175.3294664180963,-42.2979047590184 -173.49933939918662,-40.467777740073664 -170.9993393991862,-39.79790475897008" stroke="#008000" stroke-linecap="round" stroke-linejoin="round"/><polyline fill="none" points="-254.5782204187661,-64.71205664742557 -252.07822041875284,-65.38192962848126 -250.24809339980808,-67.21205664739094 -249.5782204187045,-69.71205664739136 -250.2480933997602,-72.21205664740464 -252.07822041866987,-74.04218366634937 -254.5782204186703,-74.71205664745297 -257.07822041868354,-74.04218366639728 -258.90834743762827,-72.2120566474876 -259.57822041873186,-69.71205664748717 -258.9083474376762,-67.2120566474739 -257.07822041876653,-65.38192962852916 -254.5782204187661,-64.71205664742557" stroke="#ffa500" stroke-linecap="round" stroke-linejoin="round"/><polyline fill="none" points="-153.10976572420643,-24.64364605618684 -150.60976572419315,-25.313519037242532 -148.7796387052484,-27.143646056152207 -148.1097657241448,-29.64364605615264 -148.7796387052005,-32.143646056165906 -150.6097657241102,-33.97377307511065 -153.10976572411062,-34.643646056214244 -155.6097657241239,-33.973773075158554 -157.43989274306864,-32.143646056248876 -158.10976572417223,-29.643646056248443 -157.43989274311653,-27.143646056235173 -155.60976572420685,-25.313519037290433 -153.10976572420643,-24.64364605618684" stroke="#00f" stroke-linecap="round" stroke-linejoin="round"/><polyline fill="none" points="85.24640806198323,-103.63605135920712 87.7464080619965,-104.3059243402628 89.57653508094124,-106.13605135917248 90.24640806204484,-108.63605135917291 89.57653508098915,-111.13605135918618 87.74640806207947,-112.96617837813093 85.24640806207904,-113.63605135923453 82.74640806206577,-112.96617837817884 80.91628104312102,-111.13605135926916 80.24640806201742,-108.63605135926873 80.91628104307311,-106.13605135925546 82.74640806198279,-104.30592434031071 85.24640806198322,-103.63605135920712" stroke="#00f" stroke-linecap="round" stroke-linejoin="round"/><polyline fill="none" points="-204.65379130254138,13.52554271085408 -202.1537913025281,12.855669729798391 -200.32366428358335,11.025542710888718 -199.65379130247976,8.525542710888285 -200.32366428353544,6.025542710875015 -202.15379130244511,4.195415691930269 -204.65379130244554,3.525542710826671 -207.1537913024588,4.195415691882358 -208.98391832140356,6.02554271079203 -209.65379130250716,8.525542710792463 -208.98391832145148,11.025542710805734 -207.1537913025418,12.855669729750481 -204.65379130254138,13.525542710854081" stroke="#00f" stroke-linecap="round" stroke-linejoin="round"/><polyline fill="none" points="49.742940290292076,94.16164734595662 52.24294029030535,93.49177436490093 54.0730673092501,91.66164734599126 54.7429402903537,89.16164734599083 54.07306730929802,86.66164734597756 52.24294029038835,84.8315203270328 49.742940290387914,84.16164734592921 47.24294029037464,84.8315203269849 45.41281327142989,86.66164734589456 44.74294029032629,89.16164734589499 45.41281327138197,91.66164734590826 47.24294029029164,93.49177436485301 49.742940290292076,94.16164734595662" stroke="#ffa500" stroke-linecap="round" stroke-linejoin="round"/><polyline fill="none" points="-174.1415872143151,63.68399311510784 -171.64158721430184,63.014120134052156 -169.81146019535709,61.183993115142485 -169.1415872142535,58.68399311514205 -169.81146019530917,56.18399311512878 -171.64158721421884,54.35386609618403 -174.14158721421927,53.683993115080426 -176.64158721423254,54.35386609613611 -178.4717142331773,56.18399311504578 -179.1415872142809,58.68399311504621 -178.4717142332252,61.18399311505949 -176.64158721431554,63.01412013400424 -174.1415872143151,63.683993115107846" stroke="#008000" stroke-linecap="round" stroke-linejoin="round"/><polyline fill="none" points="78.9236901955642,55.95067616056936 81.42369019557748,55.280803179513676 83.25381721452223,53.450676160604004 83.92369019562584,50.95067616060357 83.25381721457016,48.4506761605903 81.4236901956605,46.62054914164555 78.92369019566007,45.95067616054194 76.4236901956468,46.62054914159762 74.59356317670205,48.45067616050729 73.92369019559844,50.950676160507726 74.59356317665411,53.450676160521 76.42369019556378,55.28080317946576 78.9236901955642,55.950676160569365" stroke="#ffa500" stroke-linecap="round" stroke-linejoin="round"/><polyline fill="none" points="36.28740523639605,-183.49451264228512 38.78740523640932,-184.1643856233408 40.61753225535408,-185.99451264225047 41.28740523645769,-188.4945126422509 40.61753225540201,-190.99451264226417 38.78740523649235,-192.82463966120892 36.287405236491914,-193.49451264231254 33.787405236478634,-192.82463966125687 31.957278217533876,-190.9945126423472 31.287405236430267,-188.49451264234676 31.957278217485943,-185.9945126423335 33.78740523639561,-184.16438562338874 36.28740523639604,-183.49451264228512" stroke="#ffa500" stroke-linecap="round" stroke-linejoin="round"/><polyline fill="none" points="-13.702735394933962,202.73398548098913 -11.202735394920683,202.06411249993346 -9.372608375975926,200.23398548102378 -8.702735394872315,197.73398548102335 -9.37260837592799,195.23398548101008 -11.202735394837656,193.40385846206533 -13.70273539483809,192.7339854809617 -16.202735394851366,193.40385846201738 -18.032862413796124,195.23398548092706 -18.702735394899737,197.7339854809275 -18.03286241384406,200.23398548094076 -16.202735394934397,202.0641124998855 -13.702735394933963,202.73398548098913" stroke="#ffa500" stroke-linecap="round" stroke-linejoin="round"/><polyline fill="none" points="183.50005624250142,-135.50174323791546 186.0000562425147,-136.17161621897114 187.83018326145944,-138.00174323788082 188.50005624256306,-140.50174323788124 187.8301832615074,-143.00174323789452 186.0000562425977,-144.83187025683927 183.50005624259728,-145.5017432379429 181.000056242584,-144.8318702568872 179.16992922363926,-143.00174323797754 178.50005624253563,-140.5017432379771 179.1699292235913,-138.00174323796384 181.000056242501,-136.17161621901909 183.50005624250142,-135.50174323791546" stroke="#ffa500" stroke-linecap="round" stroke-linejoin="round"/><polyline fill="none" points="60.597243061389264,-101.96883410610484 63.097243061402544,-102.63870708716051 64.9273700803473,-104.46883410607018 65.59724306145091,-106.9688341060706 64.92737008039524,-109.46883410608388 63.09724306148557,-111.29896112502864 60.59724306148514,-111.96883410613226 58.09724306147186,-111.29896112507659 56.26711604252709,-109.46883410616692 55.59724306142348,-106.9688341061665 56.267116042479145,-104.46883410615322 58.09724306138881,-102.63870708720846 60.59724306138924,-101.96883410610484" stroke="#ffa500" stroke-linecap="round" stroke-linejoin="round"/><polyline fill="none" points="58.83326712643889,-65.93060953806366 61.33326712645217,-66.60048251911934 63.163394145396936,-68.430609538029 63.83326712650055,-70.93060953802943 63.16339414544488,-73.43060953804272 61.33326712653522,-75.26073655698748 58.833267126534786,-75.9306095380911 56.333267126521505,-75.26073655703543 54.50314010757674,-73.43060953812576 53.833267126473125,-70.93060953812534 54.50314010752879,-68.43060953811205 56.33326712643846,-66.60048251916729 58.83326712643889,-65.93060953806366" stroke="#00f" stroke-linecap="round" stroke-linejoin="round"/><polyline fill="none" points="162.11228653909,-104.32737989563006 164.61228653910328,-104.99725287668574 166.44241355804803,-106.8273798955954 167.11228653915165,-109.32737989559583 166.44241355809598,-111.82737989560911 164.61228653918633,-113.65750691455388 162.1122865391859,-114.3273798956575 159.61228653917263,-113.65750691460184 157.78215952022788,-111.82737989569218 157.11228653912426,-109.32737989569175 157.78215952017993,-106.82737989567846 159.61228653908958,-104.9972528767337 162.11228653909,-104.32737989563007" stroke="#00f" stroke-linecap="round" stroke-linejoin="round"/><polyline fill="none" points="-286.39836006641167,-46.49465239859308 -283.89836006639837,-47.16452537964875 -282.0682330474536,-48.994652398558415 -281.39836006635,-51.49465239855885 -282.06823304740567,-53.99465239857213 -283.8983600663153,-55.82477941751689 -286.3983600663158,-56.49465239862052 -288.8983600663291,-55.82477941756485 -290.72848708527385,-53.99465239865519 -291.3983600663775,-51.49465239865476 -290.72848708532183,-48.99465239864148 -288.8983600664122,-47.16452537969671 -286.3983600664117,-46.49465239859309" stroke="#00f" stroke-linecap="round" stroke-linejoin="round"/><polyline fill="none" points="130.0749864493157,-89.73214512798647 132.57498644932897,-90.40201810904213 134.40511346827375,-92.2321451279518 135.07498644937738,-94.73214512795222 134.4051134683217,-97.23214512796551 132.57498644941205,-99.06227214691027 130.07498644941163,-99.7321451280139 127.57498644939834,-99.06227214695824 125.74485943045357,-97.23214512804857 125.07498644934995,-94.73214512804815 125.74485943040561,-92.23214512803486 127.57498644931528,-90.4020181090901 130.0749864493157,-89.73214512798647" stroke="#00f" stroke-linecap="round" stroke-linejoin="round"/><polyline fill="none" points="-186.83561558387683,-88.61871067580634 -184.33561558386356,-89.288583656862 -182.50548856491878,-91.11871067577167 -181.83561558381516,-93.61871067577209 -182.5054885648708,-96.11871067578538 -184.33561558378045,-97.94883769473014 -186.83561558378088,-98.61871067583377 -189.33561558379415,-97.9488376947781 -191.16574260273893,-96.11871067586846 -191.83561558384255,-93.61871067586803 -191.1657426027869,-91.11871067585474 -189.33561558387726,-89.28858365690996 -186.83561558387683,-88.61871067580633" stroke="#ffa500" stroke-linecap="round" stroke-linejoin="round"/><polyline fill="none" points="-239.5664506888232,116.98767892911192 -237.06645068880994,116.31780594805626 -235.23632366986516,114.48767892914661 -234.56645068876153,111.98767892914618 -235.23632366981718,109.4876789291329 -237.06645068872683,107.65755191018812 -239.56645068872726,106.98767892908448 -242.06645068874053,107.65755191014014 -243.8965777076853,109.48767892904979 -244.56645068878893,111.98767892905022 -243.8965777077333,114.4876789290635 -242.06645068882364,116.31780594800829 -239.5664506888232,116.98767892911192" stroke="#ffa500" stroke-linecap="round" stroke-linejoin="round"/><polyline fill="none" points="-127.52634414544745,61.01825993247892 -125.02634414543417,60.348386951423265 -123.19621712648939,58.51825993251361 -122.52634414538575,56.018259932513175 -123.19621712644141,53.51825993249989 -125.02634414535106,51.68813291355511 -127.52634414535149,51.01825993245148 -130.0263441453648,51.68813291350713 -131.85647116430957,53.51825993241679 -132.5263441454132,56.01825993241722 -131.85647116435754,58.51825993243051 -130.0263441454479,60.34838695137529 -127.52634414544747,61.01825993247893" stroke="#00f" stroke-linecap="round" stroke-linejoin="round"/><polyline fill="none" points="-215.81917767803577,18.63893653592432 -213.31917767802247,17.969063554868665 -211.4890506590777,16.13893653595901 -210.81917767797407,13.638936535958578 -211.48905065902972,11.13893653594529 -213.31917767793936,9.308809517000512 -215.8191776779398,8.638936535896876 -218.3191776779531,9.30880951695253 -220.14930469689787,11.138936535862184 -220.8191776780015,13.638936535862618 -220.14930469694585,16.138936535875906 -218.3191776780362,17.969063554820686 -215.81917767803577,18.638936535924323" stroke="#008000" stroke-linecap="round" stroke-linejoin="round"/><polyline fill="none" points="98.38223131345069,-27.047897308238838 100.88223131346398,-27.717770289294492 102.71235833240875,-29.547897308204146 103.38223131351239,-32.047897308204575 102.71235833245674,-34.54789730821786 100.8822313135471,-36.37802432716264 98.38223131354667,-37.04789730826628 95.88223131353338,-36.378024327210625 94.0521042945886,-34.547897308300975 93.38223131348497,-32.04789730830054 94.05210429454061,-29.54789730828725 95.88223131345026,-27.717770289342468 98.38223131345069,-27.047897308238827" stroke="#ffa500" stroke-linecap="round" stroke-linejoin="round"/><polyline fill="none" points="61.644150306214556,-151.94669363998722 64.14415030622784,-152.61656662104286 65.97427732517262,-154.4466936399525 66.64415030627626,-156.94669363995294 65.97427732522061,-159.44669363996624 64.14415030631096,-161.27682065891102 61.64415030631053,-161.94669364001467 59.144150306297234,-161.27682065895902 57.31402328735245,-159.44669364004938 56.644150306248804,-156.94669364004895 57.31402328730445,-154.44669364003565 59.1441503062141,-152.61656662109087 61.644150306214534,-151.94669363998722" stroke="#ffa500" stroke-linecap="round" stroke-linejoin="round"/><polyline fill="none" points="-199.9319318935944,-45.97654199485175 -197.4319318935811,-46.6464149759074 -195.60180487463631,-48.47654199481705 -194.93193189353266,-50.97654199481748 -195.6018048745883,-53.476541994830775 -197.43193189349796,-55.30666901377556 -199.9319318934984,-55.976541994879206 -202.4319318935117,-55.30666901382356 -204.26205891245647,-53.47654199491391 -204.93193189356012,-50.976541994913475 -204.26205891250447,-48.47654199490018 -202.43193189359482,-46.646414975955395 -199.9319318935944,-45.97654199485175" stroke="#00f" stroke-linecap="round" stroke-linejoin="round"/><polyline fill="none" points="102.56822378935527,-103.43002549880705 105.06822378936857,-104.0998984798627 106.89835080831337,-105.93002549877235 107.56822378941702,-108.43002549877278 106.89835080836137,-110.93002549878608 105.06822378945172,-112.76015251773087 102.5682237894513,-113.43002549883452 100.068223789438,-112.76015251777888 98.2380967704932,-110.93002549886923 97.56822378938955,-108.4300254988688 98.2380967704452,-105.9300254988555 100.06822378935485,-104.0998984799107 102.56822378935527,-103.43002549880705" stroke="#00f" stroke-linecap="round" stroke-linejoin="round"/><polyline fill="none" points="84.58948968575672,-65.30580891019821 87.08948968577002,-65.97568189125386 88.91961670471481,-67.8058089101635 89.58948968581846,-70.30580891016393 88.91961670476282,-72.80580891017723 87.08948968585317,-74.63593592912203 84.58948968585274,-75.30580891022568 82.08948968583944,-74.63593592917003 80.25936266689465,-72.80580891026038 79.589489685791,-70.30580891025996 80.25936266684664,-67.80580891024665 82.08948968575629,-65.97568189130186 84.58948968575672,-65.30580891019821" stroke="#ffa500" stroke-linecap="round" stroke-linejoin="round"/><polyline fill="none" points="-218.36355961225684,111.69296323371624 -215.86355961224353,111.0230902526606 -214.03343259329876,109.19296323375094 -213.3635596121951,106.69296323375052 -214.03343259325075,104.19296323373722 -215.8635596121604,102.36283621479242 -218.36355961216083,101.69296323368877 -220.86355961217413,102.3628362147444 -222.69368663111894,104.19296323365405 -223.3635596122226,106.6929632336545 -222.69368663116694,109.1929632336678 -220.8635596122573,111.02309025261259 -218.36355961225686,111.69296323371624" stroke="#ffa500" stroke-linecap="round" stroke-linejoin="round"/><polyline fill="none" points="-204.7373634322182,-1.9482571108389877 -202.2373634322049,-2.6181300918946264 -200.40723641326008,-4.448257110804271 -199.73736343215643,-6.948257110804706 -200.40723641321208,-9.448257110818005 -202.23736343212173,-11.2783841297628 -204.73736343212215,-11.948257110866457 -207.23736343213545,-11.27838412981082 -209.06749045108026,-9.448257110901176 -209.7373634321839,-6.948257110900743 -209.06749045112826,-4.448257110887442 -207.23736343221861,-2.6181300919426453 -204.7373634322182,-1.9482571108389881" stroke="#008000" stroke-linecap="round" stroke-linejoin="round"/><polyline fill="none" points="-94.7646104407475,34.26177807756734 -92.2646104407342,33.59190509651171 -90.43448342178941,31.761778077602067 -89.76461044068576,29.261778077601633 -90.43448342174139,26.761778077588332 -92.26461044065104,24.931651058643535 -94.76461044065148,24.261778077539876 -97.26461044066478,24.931651058595513 -99.09473745960958,26.761778077505156 -99.76461044071324,29.26177807750559 -99.09473745965761,31.76177807751889 -97.26461044074797,33.59190509646369 -94.76461044074753,34.26177807756735" stroke="#ffa500" stroke-linecap="round" stroke-linejoin="round"/><polyline fill="none" points="-127.0351698107099,-50.675595674807 -124.5351698106966,-51.34546865586263 -122.70504279175181,-53.175595674772275 -122.03516981064814,-55.67559567477271 -122.70504279170378,-58.17559567478601 -124.53516981061341,-60.00572269373081 -127.03516981061385,-60.67559567483447 -129.53516981062717,-60.005722693778836 -131.36529682957197,-58.17559567486919 -132.03516981067563,-55.67559567486876 -131.36529682962,-53.17559567485546 -129.53516981071036,-51.34546865591066 -127.03516981070992,-50.67559567480699" stroke="#ffa500" stroke-linecap="round" stroke-linejoin="round"/><polyline fill="none" points="-175.36595854228293,-53.927979293587356 -172.86595854226962,-54.59785227464299 -171.03583152332482,-56.42797929355263 -170.36595854222116,-58.927979293553065 -171.03583152327678,-61.427979293566366 -172.86595854218643,-63.25810631251117 -175.36595854218686,-63.92797929361483 -177.86595854220016,-63.2581063125592 -179.69608556114497,-61.42797929364956 -180.36595854224862,-58.92797929364912 -179.696085561193,-56.427979293635815 -177.86595854228335,-54.59785227469101 -175.36595854228293,-53.92797929358734" stroke="#00f" stroke-linecap="round" stroke-linejoin="round"/><polyline fill="none" points="-2.0573539368098617,161.0420638756849 0.442646063203445,160.37219089462928 2.272773082148251,158.54206387571963 2.9426460632519174,156.0420638757192 2.272773082196289,153.5420638757059 0.4426460632866489,151.7119368567611 -2.0573539367137865,151.04206387565742 -4.557353936727093,151.71193685671304 -6.387480955671901,153.5420638756227 -7.057353936775569,156.0420638756231 -6.387480955719942,158.54206387563642 -4.557353936810303,160.37219089458122 -2.0573539368098683,161.0420638756849" stroke="#ffa500" stroke-linecap="round" stroke-linejoin="round"/><polyline fill="none" points="-180.7490021889574,46.63361575736636 -178.2490021889441,45.96374277631073 -176.4188751699993,44.133615757401095 -175.74900218889562,41.63361575740066 -176.41887516995124,39.13361575738735 -178.24900218886089,37.303488738442546 -180.7490021888613,36.63361575733887 -183.2490021888746,37.3034887383945 -185.07912920781942,39.133615757304135 -185.7490021889231,41.63361575730457 -185.07912920786748,44.13361575731788 -183.24900218895783,45.963742776262684 -180.7490021889574,46.63361575736636" stroke="#ffa500" stroke-linecap="round" stroke-linejoin="round"/></svg>