<?xml version="1.0" ?><!DOCTYPE svg  PUBLIC '-//W3C//DTD SVG 1.1//EN'  'http://www.w3.org/Graphics/SVG/1.1/DTD/svg11.dtd'><svg height="338.000" viewBox="-157.000 -158.000 315.000 338.000" width="315.000" xmlns="http://www.w3.org/2000/svg"><line fill="none" stroke="none" stroke-linecap="round" stroke-width="2.0" x1="0.0" x2="0.0" y1="0.0" y2="0.0"/><polygon fill="none" fill-rule="evenodd" points="0.0,0.0 0.0,0.0 0.0,0.0" stroke-linejoin="round"/><polyline fill="none" points="-7.696119154094454,-97.53518255008508 -5.196119154092887,-98.20505553116028 -3.3659921351680366,-100.035182550081 -2.6961191540871945,-102.53518255008106 -3.365992135162401,-105.03518255008262 -5.196119154083126,-106.86530956900748 -7.696119154083184,-107.53518255008832 -10.196119154084752,-106.86530956901312 -12.026246173009604,-105.0351825500924 -12.696119154090447,-102.53518255009234 -12.026246173015242,-100.03518255009078 -10.196119154094518,-98.20505553116593 -7.69611915409446,-97.53518255008508" stroke="#ffa500" stroke-linecap="round" stroke-linejoin="round"/><polyline fill="none" points="25.81625979270575,-100.598432790957 28.31625979270732,-101.2683057720322 30.146386811632173,-103.09843279095293 30.816259792713016,-105.59843279095298 30.14638681163781,-108.09843279095455 28.316259792717087,-109.9285598098794 25.81625979271703,-110.59843279096025 23.31625979271546,-109.92855980988504 21.486132773790608,-108.09843279096432 20.81625979270976,-105.59843279096427 21.486132773784966,-103.0984327909627 23.31625979270569,-101.26830577203785 25.816259792705747,-100.598432790957" stroke="#ffa500" stroke-linecap="round" stroke-linejoin="round"/><polyline fill="none" points="41.90331488518106,-126.92089247485151 44.40331488518263,-127.59076545592671 46.23344190410749,-129.42089247484745 46.90331488518834,-131.9208924748475 46.233441904113135,-134.42089247484907 44.403314885192415,-136.25101949377392 41.90331488519236,-136.92089247485478 39.40331488519079,-136.25101949377958 37.57318786626593,-134.42089247485885 36.90331488518508,-131.9208924748588 37.573187866260284,-129.42089247485723 39.403314885181004,-127.59076545593237 41.90331488518106,-126.92089247485153" stroke="#ffa500" stroke-linecap="round" stroke-linejoin="round"/><polyline fill="none" points="31.344235201846075,-108.44450479349719 33.844235201847646,-109.11437777457239 35.6743622207725,-110.94450479349311 36.34423520185335,-113.44450479349317 35.67436222077815,-115.94450479349474 33.84423520185743,-117.7746318124196 31.344235201857373,-118.44450479350046 28.844235201855803,-117.77463181242526 27.014108182930944,-115.94450479350454 26.344235201850093,-113.44450479350448 27.01410818292529,-110.9445047935029 28.84423520184601,-109.11437777457805 31.344235201846068,-108.44450479349719" stroke="#ffa500" stroke-linecap="round" stroke-linejoin="round"/><polyline fill="none" points="-37.28442893808085,27.833426376645598 -34.78442893807928,27.1635533955704 -32.95430191915442,25.33342637664968 -32.28442893807357,22.833426376649623 -32.95430191914877,20.33342637664805 -34.78442893806949,18.50329935772319 -37.284428938069546,17.833426376642336 -39.784428938071116,18.503299357717534 -41.61455595699598,20.333426376638254 -42.28442893807683,22.83342637663831 -41.614555957001635,25.333426376639885 -39.784428938080914,27.163553395564747 -37.28442893808086,27.8334263766456" stroke="#00f" stroke-linecap="round" stroke-linejoin="round"/><polyline fill="none" points="-57.23537552652083,-39.74944274160153 -54.735375526519256,-40.41931572267672 -52.90524850759439,-42.24944274159744 -52.235375526513536,-44.7494427415975 -52.90524850758873,-47.249442741599076 -54.73537552650945,-49.07956976052394 -57.23537552650951,-49.749442741604796 -59.735375526511085,-49.0795697605296 -61.56550254543595,-47.24944274160888 -62.235375526516805,-44.749442741608824 -61.56550254544161,-42.24944274160725 -59.73537552652089,-40.419315722682384 -57.23537552652083,-39.74944274160153" stroke="#00f" stroke-linecap="round" stroke-linejoin="round"/><polyline fill="none" points="12.164819149835788,-111.98695563351527 14.664819149837363,-112.65682861459047 16.49494616876223,-114.48695563351119 17.164819149843087,-116.98695563351124 16.494946168767893,-119.48695563351282 14.664819149847174,-121.31708265243769 12.164819149847116,-121.98695563351855 9.664819149845538,-121.31708265244336 7.834692130920672,-119.48695563352264 7.164819149839813,-116.98695563352258 7.8346921309150055,-114.486955633521 9.664819149835724,-112.65682861459614 12.164819149835782,-111.98695563351528" stroke="#ffa500" stroke-linecap="round" stroke-linejoin="round"/><polyline fill="none" points="85.3066718937183,-136.77311826213224 87.80667189371988,-137.44299124320744 89.63679891264475,-139.27311826212815 90.3066718937256,-141.7731182621282 89.63679891265042,-144.2731182621298 87.8066718937297,-146.10324528105465 85.30667189372964,-146.7731182621355 82.80667189372807,-146.1032452810603 80.9765448748032,-144.2731182621396 80.30667189372234,-141.77311826213955 80.97654487479753,-139.27311826213796 82.80667189371825,-137.4429912432131 85.3066718937183,-136.77311826213224" stroke="#ffa500" stroke-linecap="round" stroke-linejoin="round"/><polyline fill="none" points="-55.88435058114179,-40.13721059642718 -53.38435058114021,-40.80708357750237 -51.55422356221534,-42.63721059642309 -50.88435058113448,-45.137210596423145 -51.554223562209664,-47.63721059642472 -53.38435058113038,-49.46733761534959 -55.884350581130434,-50.13721059643046 -58.38435058113201,-49.46733761535527 -60.21447760005688,-47.63721059643456 -60.884350581137745,-45.1372105964345 -60.21447760006256,-42.63721059643292 -58.384350581141845,-40.80708357750805 -55.88435058114179,-40.13721059642719" stroke="#00f" stroke-linecap="round" stroke-linejoin="round"/><polyline fill="none" points="4.164961846189592,29.248563927662772 6.664961846191174,28.578690946587585 8.495088865116047,26.74856392766687 9.164961846196913,24.248563927666808 8.495088865121726,21.748563927665227 6.664961846201011,19.918436908740354 4.164961846200951,19.248563927659486 1.6649618461993692,19.918436908734673 -0.1651651727255048,21.748563927655386 -0.8350381538063726,24.248563927655447 -0.16516517273118703,26.748563927657028 1.6649618461895273,28.5786909465819 4.164961846189588,29.24856392766277" stroke="#00f" stroke-linecap="round" stroke-linejoin="round"/><polyline fill="none" points="73.59006251342669,-70.10254612376123 76.09006251342826,-70.77241910483642 77.92018953235313,-72.60254612375714 78.590062513434,-75.1025461237572 77.92018953235882,-77.60254612375877 76.0900625134381,-79.43267314268364 73.59006251343804,-80.10254612376451 71.09006251343646,-79.43267314268932 69.2599354945116,-77.6025461237686 68.59006251343072,-75.10254612376855 69.25993549450591,-72.60254612376697 71.09006251342663,-70.7724191048421 73.59006251342669,-70.10254612376123" stroke="#ffa500" stroke-linecap="round" stroke-linejoin="round"/><polyline fill="none" points="76.5853625491784,-73.2315523416672 79.08536254917998,-73.90142532274238 80.91548956810486,-75.73155234166309 81.58536254918573,-78.23155234166315 80.91548956811054,-80.73155234166472 79.08536254918984,-82.56167936058961 76.58536254918978,-83.23155234167048 74.08536254918819,-82.56167936059529 72.2552355302633,-80.73155234167459 71.58536254918243,-78.23155234167453 72.25523553025762,-75.73155234167294 74.08536254917833,-73.90142532274805 76.58536254917838,-73.23155234166718" stroke="#ffa500" stroke-linecap="round" stroke-linejoin="round"/><polyline fill="none" points="82.30014622926186,-115.54899083790725 84.80014622926345,-116.21886381898244 86.63027324818833,-118.04899083790315 87.3001462292692,-120.5489908379032 86.63027324819402,-123.0489908379048 84.80014622927331,-124.87911785682968 82.30014622927325,-125.54899083791055 79.80014622927166,-124.87911785683538 77.97001921034678,-123.04899083791467 77.3001462292659,-120.54899083791462 77.97001921034108,-118.04899083791302 79.80014622926178,-116.21886381898814 82.30014622926184,-115.54899083790727" stroke="#ffa500" stroke-linecap="round" stroke-linejoin="round"/><polyline fill="none" points="8.758421326332723,33.73212449705452 11.258421326334311,33.06225151597934 13.088548345259193,31.23212449705863 13.75842132634007,28.73212449705857 13.088548345264892,26.232124497056983 11.258421326344182,24.4019974781321 8.758421326344122,23.73212449705122 6.258421326342534,24.401997478126397 4.428294307417651,26.232124497047106 3.758421326336772,28.732124497047167 4.4282943074119485,31.232124497048755 6.258421326332657,33.062251515973635 8.758421326332718,33.732124497054514" stroke="#00f" stroke-linecap="round" stroke-linejoin="round"/><polyline fill="none" points="78.60020810137419,-54.801592869077254 81.10020810137578,-55.47146585015243 82.93033512030067,-57.30159286907313 83.60020810138155,-59.80159286907319 82.93033512030638,-62.30159286907478 81.10020810138568,-64.13171988799967 78.60020810138562,-64.80159286908055 76.10020810138403,-64.13171988800538 74.27008108245914,-62.30159286908467 73.60020810137826,-59.801592869084615 74.27008108245343,-57.301592869083024 76.10020810137414,-55.47146585015814 78.60020810137419,-54.80159286907726" stroke="#ffa500" stroke-linecap="round" stroke-linejoin="round"/><polyline fill="none" points="84.84436065367802,-79.91747367545578 87.34436065367962,-80.58734665653095 89.1744876726045,-82.41747367545166 89.84436065368538,-84.91747367545172 89.17448767261021,-87.41747367545331 87.3443606536895,-89.24760069437819 84.84436065368945,-89.91747367545908 82.34436065368786,-89.2476006943839 80.51423363476297,-87.4174736754632 79.84436065368209,-84.91747367546314 80.51423363475726,-82.41747367546155 82.34436065367797,-80.58734665653667 84.84436065367802,-79.91747367545578" stroke="#ffa500" stroke-linecap="round" stroke-linejoin="round"/><polyline fill="none" points="-5.6840432986152285,-1.0140643772567977 -3.1840432986136378,-1.6839373583319683 -1.3539162796887485,-3.514064377252674 -0.6840432986078628,-6.014064377252733 -1.353916279683033,-8.514064377254325 -3.1840432986037386,-10.344191396179214 -5.6840432986037985,-11.0140643772601 -8.18404329860539,-10.34419139618493 -10.01417031753028,-8.514064377264226 -10.684043298611167,-6.014064377264167 -10.014170317535998,-3.514064377262575 -8.184043298615293,-1.6839373583376838 -5.684043298615233,-1.0140643772567963" stroke="#008000" stroke-linecap="round" stroke-linejoin="round"/><polyline fill="none" points="121.29109918841742,-45.476008565006616 123.79109918841901,-46.14588154608178 125.62122620734391,-47.97600856500249 126.2910991884248,-50.476008565002545 125.62122620734962,-52.976008565004136 123.79109918842892,-54.80613558392903 121.29109918842886,-55.47600856500991 118.79109918842727,-54.80613558393475 116.96097216950237,-52.97600856501404 116.29109918842148,-50.476008565013984 116.96097216949666,-47.97600856501239 118.79109918841736,-46.1458815460875 121.29109918841742,-45.47600856500661" stroke="#ffa500" stroke-linecap="round" stroke-linejoin="round"/><polyline fill="none" points="-15.533068086461535,-4.379047601704642 -13.033068086459942,-5.048920582779808 -11.202941067535047,-6.879047601700512 -10.533068086454156,-9.379047601700574 -11.202941067529322,-11.879047601702169 -13.033068086450026,-13.709174620627063 -15.533068086450086,-14.379047601707954 -18.03306808645168,-13.709174620632789 -19.863195105376576,-11.879047601712085 -20.53306808645747,-9.379047601712024 -19.863195105382303,-6.879047601710429 -18.0330680864616,-5.048920582785533 -15.53306808646154,-4.37904760170464" stroke="#00f" stroke-linecap="round" stroke-linejoin="round"/><polyline fill="none" points="48.28713620178057,-59.7014006619646 50.78713620178217,-60.371273643039764 52.617263220707066,-62.20140066196047 53.28713620178796,-64.70140066196053 52.61726322071279,-67.20140066196213 50.787136201792094,-69.03152768088702 48.28713620179203,-69.70140066196792 45.78713620179043,-69.03152768089276 43.957009182865534,-67.20140066197206 43.28713620178464,-64.701400661972 43.95700918285981,-62.2014006619704 45.787136201780505,-60.371273643045505 48.28713620178057,-59.70140066196461" stroke="#00f" stroke-linecap="round" stroke-linejoin="round"/><polyline fill="none" points="132.18752914182664,-53.22821147705518 134.68752914182824,-53.89808445813034 136.51765616075315,-55.72821147705104 137.18752914183403,-58.228211477051104 136.51765616075886,-60.7282114770527 134.68752914183816,-62.5583384959776 132.1875291418381,-63.2282114770585 129.6875291418365,-62.55833849598334 127.85740212291161,-60.728211477062644 127.18752914183071,-58.22821147706258 127.85740212290587,-55.72821147706098 129.68752914182656,-53.89808445813608 132.18752914182662,-53.22821147705518" stroke="#ffa500" stroke-linecap="round" stroke-linejoin="round"/><polyline fill="none" points="116.79372583406129,-59.73024225480175 119.29372583406288,-60.40011523587691 121.12385285298778,-62.23024225479761 121.79372583406868,-64.73024225479767 121.12385285299352,-67.23024225479926 119.29372583407282,-69.06036927372416 116.79372583407276,-69.73024225480506 114.29372583407115,-69.0603692737299 112.46359881514626,-67.2302422548092 111.79372583406536,-64.73024225480914 112.46359881514051,-62.23024225480754 114.29372583406122,-60.40011523588264 116.79372583406128,-59.73024225480174" stroke="#ffa500" stroke-linecap="round" stroke-linejoin="round"/><polyline fill="none" points="69.68130675459761,-42.18329205099527 72.18130675459922,-42.85316503207043 74.01143377352412,-44.68329205099113 74.68130675460502,-47.18329205099119 74.01143377352986,-49.68329205099279 72.18130675460917,-51.513419069917695 69.68130675460911,-52.183292050998595 67.1813067546075,-51.51341906992344 65.35117973568259,-49.68329205100274 64.68130675460169,-47.183292051002674 65.35117973567685,-44.683292051001075 67.18130675459754,-42.85316503207617 69.6813067545976,-42.18329205099526" stroke="#ffa500" stroke-linecap="round" stroke-linejoin="round"/><polyline fill="none" points="38.775834973891044,29.682333865858457 41.27583497389265,29.0124608847833 43.105961992817555,27.182333865862603 43.77583497389846,24.68233386586254 43.10596199282331,22.182333865860937 41.27583497390261,20.352206846936028 38.77583497390255,19.68233386585512 36.27583497390094,20.352206846930276 34.44570795497603,22.18233386585097 33.77583497389512,24.682333865851035 34.445707954970274,27.18233386585264 36.27583497389097,29.01246088477755 38.77583497389104,29.682333865858457" stroke="#00f" stroke-linecap="round" stroke-linejoin="round"/><polyline fill="none" points="32.92370571657961,-17.031172496185352 35.42370571658122,-17.701045477260504 37.25383273550613,-19.5311724961812 37.92370571658704,-22.03117249618126 37.253832735511885,-24.53117249618286 35.423705716591186,-26.36129951510777 32.92370571659112,-27.031172496188677 30.423705716589517,-26.361299515113526 28.593578697664604,-24.53117249619283 27.923705716583694,-22.03117249619277 28.593578697658845,-19.531172496191164 30.42370571657954,-17.701045477266252 32.923705716579605,-17.03117249618534" stroke="#00f" stroke-linecap="round" stroke-linejoin="round"/><polyline fill="none" points="33.20795476778381,-25.02268675361148 35.70795476778542,-25.692559734686633 37.53808178671033,-27.522686753607328 38.20795476779124,-30.02268675360739 37.53808178671609,-32.522686753608994 35.7079547677954,-34.352813772533906 33.207954767795336,-35.02268675361482 30.70795476779373,-34.35281377253967 28.877827748868818,-32.52268675361898 28.207954767787903,-30.022686753618913 28.87782774886305,-27.522686753617307 30.707954767783747,-25.692559734692395 33.20795476778381,-25.02268675361148" stroke="#00f" stroke-linecap="round" stroke-linejoin="round"/><polyline fill="none" points="125.85536472825372,22.814693519494405 128.35536472825532,22.144820538419257 130.18549174718024,20.31469351949856 130.85536472826115,17.814693519498498 130.185491747186,15.31469351949689 128.3553647282653,13.484566500571974 125.85536472826524,12.81469351949106 123.35536472826364,13.484566500566206 121.52523770933873,15.3146935194869 120.85536472825781,17.814693519486962 121.52523770933296,20.31469351948857 123.35536472825365,22.144820538413487 125.8553647282537,22.8146935194944" stroke="#ffa500" stroke-linecap="round" stroke-linejoin="round"/><polyline fill="none" points="141.49681936282866,27.41934100060237 143.99681936283028,26.749468019527225 145.8269463817552,24.919341000606533 146.4968193628361,22.419341000606472 145.82694638176096,19.919341000604863 143.99681936284026,18.089213981679947 141.4968193628402,17.41934100059903 138.99681936283858,18.089213981674174 137.16669234391367,19.919341000594866 136.49681936283275,22.419341000594926 137.1666923439079,24.919341000596535 138.99681936282857,26.749468019521455 141.49681936282863,27.419341000602373" stroke="#ffa500" stroke-linecap="round" stroke-linejoin="round"/><polyline fill="none" points="98.43397696064153,15.812858868316368 100.93397696064314,15.142985887241226 102.76410397956805,13.312858868320534 103.43397696064896,10.812858868320472 102.76410397957382,8.312858868318862 100.93397696065313,6.482731849393943 98.43397696065307,5.812858868313024 95.93397696065146,6.482731849388165 94.10384994172654,8.312858868308856 93.43397696064562,10.812858868308918 94.10384994172077,13.312858868310528 95.93397696064146,15.142985887235449 98.43397696064152,15.81285886831637" stroke="#ffa500" stroke-linecap="round" stroke-linejoin="round"/><polyline fill="none" points="123.3703216884995,0.1824933070901409 125.87032168850111,-0.48737967398499993 127.70044870742603,-2.3175066929056896 128.37032168850695,-4.817506692905751 127.7004487074318,-7.317506692907362 125.87032168851111,-9.147633711832285 123.37032168851105,-9.817506692913206 120.87032168850945,-9.147633711838067 119.04019466958452,-7.3175066929173775 118.3703216885036,-4.817506692917316 119.04019466957874,-2.3175066929157047 120.87032168849943,-0.48737967399078164 123.37032168849949,0.18249330709014167" stroke="#ffa500" stroke-linecap="round" stroke-linejoin="round"/><polyline fill="none" points="55.53354996582193,18.59018367820284 58.033549965823546,17.920310697127704 59.86367698474847,16.090183678207016 60.533549965829394,13.590183678206953 59.86367698475426,11.090183678205342 58.03354996583357,9.260056659280417 55.53354996583351,8.590183678199493 53.033549965831895,9.26005665927463 51.20342294690697,11.090183678195318 50.53354996582604,13.59018367819538 51.20342294690118,16.090183678196993 53.03354996582186,17.92031069712192 55.533549965821926,18.590183678202845" stroke="#ffa500" stroke-linecap="round" stroke-linejoin="round"/><polyline fill="none" points="55.22397010947583,-20.869475897815946 57.72397010947744,-21.539348878891083 59.55409712840237,-23.36947589781177 60.2239701094833,-25.86947589781183 59.55409712840816,-28.369475897813444 57.723970109487475,-30.19960291673837 55.22397010948741,-30.8694758978193 52.7239701094858,-30.199602916744166 50.89384309056087,-28.36947589782348 50.22397010947994,-25.86947589782342 50.89384309055507,-23.369475897821808 52.72397010947576,-21.53934887889688 55.22397010947582,-20.869475897815953" stroke="#00f" stroke-linecap="round" stroke-linejoin="round"/><polyline fill="none" points="-21.30189347408217,-32.563302808364234 -18.801893474080554,-33.233175789439365 -16.971766455155624,-35.06330280836005 -16.301893474074696,-37.56330280836011 -16.97176645514983,-40.063302808361726 -18.801893474070514,-41.89342982728665 -21.301893474070575,-42.56330280836758 -23.80189347407219,-41.89342982729245 -25.63202049299712,-40.063302808371766 -26.301893474078053,-37.5633028083717 -25.632020493002923,-35.06330280837009 -23.801893474082238,-33.233175789445156 -21.301893474082178,-32.56330280836422" stroke="#ffa500" stroke-linecap="round" stroke-linejoin="round"/><polyline fill="none" points="55.337692430314696,84.9424256797077 57.83769243031631,84.27255269863257 59.66781944924124,82.44242567971189 60.33769243032218,79.94242567971183 59.66781944924705,77.44242567971021 57.83769243032636,75.61229866078529 55.3376924303263,74.94242567970436 52.83769243032468,75.61229866077949 51.007565411399746,77.44242567970016 50.33769243031881,79.94242567970022 51.00756541139394,82.44242567970184 52.837692430314625,84.27255269862677 55.33769243031469,84.9424256797077" stroke="#ffa500" stroke-linecap="round" stroke-linejoin="round"/><polyline fill="none" points="118.87541878410796,86.65241372222675 121.37541878410958,85.98254074115162 123.20554580303451,84.15241372223095 123.87541878411544,81.65241372223089 123.20554580304031,79.15241372222927 121.37541878411963,77.32228670330433 118.87541878411957,76.65241372222339 116.37541878411795,77.32228670329852 114.54529176519301,79.1524137222192 113.87541878411207,81.65241372221925 114.5452917651872,84.15241372222087 116.37541878410788,85.98254074114581 118.87541878410794,86.65241372222675" stroke="#ffa500" stroke-linecap="round" stroke-linejoin="round"/><polyline fill="none" points="-37.916660076668435,26.340274312912143 -35.416660076666815,25.670401331837017 -33.58653305774188,23.840274312916335 -32.916660076660946,21.340274312916275 -33.58653305773607,18.840274312914655 -35.41666007665675,17.010147293989718 -37.91666007665681,16.34027431290878 -40.41666007665843,17.010147293983902 -42.246787095583365,18.840274312904583 -42.91666007666431,21.340274312904643 -42.246787095589184,23.840274312906264 -40.41666007666851,25.6704013318312 -37.91666007666844,26.340274312912143" stroke="#f00" stroke-linecap="round" stroke-linejoin="round"/><polyline fill="none" points="97.12422472530562,65.9333507312625 99.62422472530724,65.26347775018736 101.45435174423218,63.433350731266685 102.12422472531313,60.93335073126662 101.45435174423801,58.433350731265 99.62422472531733,56.60322371234006 97.12422472531728,55.93335073125912 94.62422472531566,56.60322371233424 92.79409770639072,58.43335073125492 92.12422472530977,60.93335073125498 92.79409770638489,63.4333507312566 94.62422472530557,65.26347775018154 97.12422472530562,65.93335073126248" stroke="#ffa500" stroke-linecap="round" stroke-linejoin="round"/><polyline fill="none" points="79.50164737681388,25.3386044650981 82.0016473768155,24.66873148402298 83.83177439574044,22.838604465102303 84.50164737682138,20.338604465102243 83.83177439574627,17.838604465100623 82.00164737682559,16.008477446175682 79.50164737682553,15.338604465094738 77.00164737682391,16.008477446169856 75.17152035789897,17.838604465090533 74.50164737681803,20.338604465090594 75.17152035789314,22.838604465092217 77.00164737681382,24.66873148401716 79.50164737681388,25.338604465098108" stroke="#ffa500" stroke-linecap="round" stroke-linejoin="round"/><polyline fill="none" points="130.08913818228658,70.08523545653371 132.5891381822882,69.4153624754586 134.41926520121314,67.58523545653792 135.08913818229408,65.08523545653786 134.41926520121896,62.58523545653623 132.58913818229829,60.755108437611284 130.08913818229823,60.085235456530334 127.58913818229661,60.75510843760545 125.75901116337167,62.58523545652613 125.08913818229072,65.08523545652619 125.75901116336584,67.58523545652781 127.58913818228652,69.41536247545275 130.08913818228658,70.0852354565337" stroke="#ffa500" stroke-linecap="round" stroke-linejoin="round"/><polyline fill="none" points="12.866644887238103,33.13569755929723 15.366644887239728,32.46582457822211 17.196771906164674,30.635697559301434 17.866644887245624,28.13569755930137 17.196771906170508,25.635697559299743 15.366644887249832,23.805570540374795 12.86664488724977,23.135697559293845 10.366644887248144,23.80557054036896 8.536517868323196,25.635697559289635 7.866644887242245,28.135697559289696 8.53651786831736,30.635697559291323 10.366644887238033,32.46582457821627 12.866644887238095,33.13569755929722" stroke="#00f" stroke-linecap="round" stroke-linejoin="round"/><polyline fill="none" points="125.99685662730366,65.7809671131073 128.49685662730528,65.11109413203218 130.32698364623022,63.2809671131115 130.99685662731116,60.78096711311144 130.32698364623604,58.28096711310981 128.49685662731537,56.45084009418486 125.99685662731531,55.78096711310391 123.49685662731369,56.45084009417903 121.66672960838874,58.2809671130997 120.99685662730778,60.78096711309976 121.6667296083829,63.28096711310139 123.49685662730357,65.11109413202634 125.99685662730363,65.7809671131073" stroke="#ffa500" stroke-linecap="round" stroke-linejoin="round"/><polyline fill="none" points="103.69595506022458,90.24794707502488 106.19595506022621,89.57807409394977 108.02608207915117,87.74794707502909 108.69595506023212,85.24794707502903 108.026082079157,82.7479470750274 106.19595506023633,80.91782005610244 103.69595506023627,80.24794707502149 101.19595506023464,80.9178200560966 99.36582804130968,82.74794707501728 98.69595506022873,85.24794707501734 99.36582804130384,87.74794707501897 101.19595506022452,89.57807409394393 103.69595506022458,90.24794707502488" stroke="#ffa500" stroke-linecap="round" stroke-linejoin="round"/><polyline fill="none" points="85.04673295752599,132.09222461827528 87.54673295752762,131.42235163720017 89.37685997645258,129.5922246182795 90.04673295753354,127.09222461827943 89.37685997645843,124.5922246182778 87.54673295753776,122.76209759935284 85.0467329575377,122.09222461827189 82.54673295753607,122.76209759934699 80.71660593861111,124.59222461826766 80.04673295753015,127.09222461826772 80.71660593860526,129.59222461826934 82.54673295752592,131.4223516371943 85.04673295752598,132.09222461827528" stroke="#ffa500" stroke-linecap="round" stroke-linejoin="round"/><polyline fill="none" points="62.60693196315611,133.4937256804755 65.10693196315773,132.8238526994004 66.93705898208269,130.9937256804797 67.60693196316365,128.49372568047966 66.93705898208854,125.99372568047802 65.10693196316788,124.16359866155307 62.60693196316782,123.49372568047211 60.10693196316618,124.16359866154721 58.27680494424123,125.99372568046788 57.606931963160264,128.49372568046795 58.276804944235366,130.99372568046957 60.106931963156036,132.82385269939454 62.6069319631561,133.4937256804755" stroke="#ffa500" stroke-linecap="round" stroke-linejoin="round"/><polyline fill="none" points="0.05743414622726095,15.174547061642357 2.5574341462288936,14.504674080567254 4.387561165153852,12.674547061646585 5.057434146234816,10.174547061646523 4.387561165159712,7.6745470616448905 2.557434146239044,5.844420042719932 0.057434146238982464,5.174547061638967 -2.44256585376265,5.84442004271407 -4.272692872687609,7.674547061634738 -4.942565853768573,10.174547061634799 -4.2726928726934705,12.674547061636432 -2.442565853772803,14.504674080561392 0.05743414622725851,15.174547061642357" stroke="#00f" stroke-linecap="round" stroke-linejoin="round"/><polyline fill="none" points="-58.929021208713344,36.812579532936695 -56.42902120871171,36.14270655186159 -54.59889418978675,34.31257953294092 -53.929021208705784,31.812579532940862 -54.598894189780886,29.31257953293923 -56.42902120870155,27.482452514014266 -58.92902120870161,26.8125795329333 -61.42902120870325,27.4824525140084 -63.25914822762821,29.312579532929067 -63.92902120870918,31.812579532929128 -63.25914822763408,34.31257953293076 -61.429021208713415,36.142706551855724 -58.92902120871335,36.812579532936695" stroke="#00f" stroke-linecap="round" stroke-linejoin="round"/><polyline fill="none" points="61.22068118024504,147.76286539214152 63.72068118024667,147.09299241106643 65.55080819917164,145.26286539214576 66.22068118025261,142.7628653921457 65.55080819917751,140.26286539214405 63.72068118025685,138.43273837321908 61.22068118025678,137.7628653921381 58.72068118025515,138.4327383732132 56.890554161330186,140.26286539213388 56.220681180249215,142.76286539213393 56.89055416132431,145.26286539213558 58.72068118024497,147.09299241106055 61.22068118024504,147.76286539214152" stroke="#ffa500" stroke-linecap="round" stroke-linejoin="round"/><polyline fill="none" points="39.36227397710441,115.93152523978041 41.86227397710604,115.26165225870531 43.692400996031004,113.43152523978465 44.362273977111975,110.93152523978459 43.69240099603688,108.43152523978296 41.86227397711622,106.60139822085799 39.36227397711615,105.93152523977702 36.86227397711452,106.60139822085212 35.03214695818955,108.43152523977278 34.36227397710858,110.93152523977284 35.032146958183674,113.43152523977447 36.86227397710434,115.26165225869944 39.3622739771044,115.93152523978041" stroke="#ffa500" stroke-linecap="round" stroke-linejoin="round"/><polyline fill="none" points="-39.17083697034703,39.65541010318967 -36.67083697034539,38.98553712211458 -34.84070995142042,37.155410103193915 -34.170836970339444,34.65541010319385 -34.84070995141454,32.15541010319221 -36.6708369703352,30.32528308426724 -39.170836970335266,29.655410103186266 -41.67083697033691,30.32528308426136 -43.50096398926188,32.15541010318202 -44.170836970342854,34.655410103182085 -43.50096398926776,37.155410103183726 -41.670836970347096,38.985537122108695 -39.17083697034703,39.65541010318967" stroke="#00f" stroke-linecap="round" stroke-linejoin="round"/><polyline fill="none" points="62.870301938575054,118.22420197397656 65.37030193857669,117.55432899290147 67.20042895750166,115.72420197398081 67.87030193858264,113.22420197398075 67.20042895750755,110.72420197397912 65.37030193858689,108.89407495505415 62.87030193858683,108.22420197397317 60.370301938585186,108.89407495504825 58.54017491966022,110.72420197396892 57.87030193857924,113.22420197396897 58.540174919654326,115.72420197397061 60.37030193857499,117.55432899289558 62.870301938575054,118.22420197397656" stroke="#ffa500" stroke-linecap="round" stroke-linejoin="round"/><polyline fill="none" points="32.45942516680929,22.78527554659426 34.95942516681093,22.11540256551917 36.7895521857359,20.28527554659851 37.45942516681688,17.78527554659845 36.78955218574179,15.285275546596807 34.95942516682113,13.455148527671835 32.45942516682106,12.785275546590853 29.959425166819422,13.455148527665942 28.12929814789445,15.285275546586602 27.459425166813467,17.785275546586664 28.129298147888555,20.285275546588306 29.959425166809215,22.11540256551328 32.459425166809275,22.78527554659426" stroke="#00f" stroke-linecap="round" stroke-linejoin="round"/><polyline fill="none" points="24.568955798691366,151.7342611296489 27.068955798693008,151.0643881485738 28.899082817617984,149.23426112965316 29.568955798698966,146.7342611296531 28.899082817623878,144.23426112965146 27.068955798703218,142.4041341107265 24.568955798703158,141.73426112964552 22.068955798701516,142.4041341107206 20.23882877977654,144.23426112964125 19.568955798695555,146.7342611296413 20.23882877977064,149.23426112964296 22.0689557986913,151.06438814856793 24.56895579869136,151.73426112964893" stroke="#ffa500" stroke-linecap="round" stroke-linejoin="round"/><polyline fill="none" points="33.40342032001033,118.6575397483804 35.903420320011975,117.98766676730531 37.73354733893695,116.15753974838465 38.403420320017936,113.6575397483846 37.73354733894285,111.15753974838294 35.90342032002219,109.32741272945796 33.40342032002213,108.65753974837698 30.903420320020484,109.32741272945206 29.073293301095504,111.15753974837273 28.403420320014515,113.65753974837278 29.0732933010896,116.15753974837443 30.903420320010255,117.98766676729942 33.40342032001032,118.6575397483804" stroke="#ffa500" stroke-linecap="round" stroke-linejoin="round"/><polyline fill="none" points="18.541108206768993,134.29630337540624 21.041108206770637,133.62643039433115 22.871235225695617,131.7963033754105 23.541108206776606,129.29630337541045 22.871235225701525,126.7963033754088 21.04110820678087,124.96617635648381 18.54110820678081,124.29630337540283 16.041108206779164,124.96617635647792 14.210981187854184,126.79630337539857 13.541108206773194,129.29630337539862 14.210981187848274,131.79630337540027 16.04110820676893,133.62643039432524 18.54110820676899,134.29630337540624" stroke="#ffa500" stroke-linecap="round" stroke-linejoin="round"/><polyline fill="none" points="39.612375310535924,94.34404879527743 42.11237531053757,93.67417581420236 43.942502329462556,91.84404879528171 44.61237531054355,89.34404879528165 43.94250232946847,86.84404879528 42.11237531054781,85.01392177635502 39.61237531054775,84.34404879527402 37.1123753105461,85.0139217763491 35.282248291621116,86.84404879526974 34.61237531054012,89.3440487952698 35.282248291615204,91.84404879527145 37.11237531053586,93.67417581419643 39.612375310535924,94.34404879527743" stroke="#ffa500" stroke-linecap="round" stroke-linejoin="round"/><polyline fill="none" points="-4.378208723798527,32.83335981759528 -1.8782087237968792,32.1634868365202 -0.048081704871894226,30.333359817599547 0.6217912762091008,27.833359817599487 -0.04808170486597563,25.333359817597838 -1.878208723786628,23.50323279867285 -4.37820872378669,22.833359817591855 -6.8782087237883385,23.503232798666932 -8.708335742713325,25.333359817587585 -9.378208723794321,27.833359817587645 -8.708335742719246,30.333359817589294 -6.878208723798594,32.16348683651428 -4.378208723798533,32.83335981759528" stroke="#00f" stroke-linecap="round" stroke-linejoin="round"/><polyline fill="none" points="-35.933316565803494,156.96687729299606 -33.433316565801846,156.29700431192097 -31.60318954687686,154.46687729300032 -30.933316565795863,151.96687729300027 -31.603189546870937,149.46687729299862 -33.433316565791586,147.63675027407362 -35.93331656579165,146.96687729299262 -38.4333165657933,147.6367502740677 -40.26344358471829,149.46687729298836 -40.93331656579929,151.9668772929884 -40.263443584724214,154.46687729299006 -38.433316565803565,156.29700431191506 -35.9333165658035,156.96687729299606" stroke="#ffa500" stroke-linecap="round" stroke-linejoin="round"/><polyline fill="none" points="-59.96299788842604,67.88053413510374 -57.46299788842439,67.21066115402867 -55.6328708694994,65.38053413510802 -54.9629978884184,62.88053413510796 -55.63287086949347,60.38053413510631 -57.46299788841412,58.55040711618132 -59.962997888414186,57.88053413510032 -62.462997888415835,58.55040711617539 -64.29312490734083,60.38053413509604 -64.96299788842182,62.880534135096106 -64.29312490734675,65.38053413509776 -62.4629978884261,67.21066115402276 -59.96299788842604,67.88053413510376" stroke="#00f" stroke-linecap="round" stroke-linejoin="round"/><polyline fill="none" points="-55.30510700137796,167.66680614218538 -52.805107001376314,166.99693316111032 -50.97497998245132,165.16680614218967 -50.30510700137032,162.6668061421896 -50.97497998244538,160.16680614218797 -52.80510700136603,158.33667912326297 -55.305107001366096,157.66680614218197 -57.80510700136775,158.33667912325703 -59.63523402029275,160.16680614217768 -60.305107001373756,162.66680614217773 -59.63523402029869,165.16680614217938 -57.80510700137804,166.99693316110438 -55.305107001377976,167.66680614218538" stroke="#ffa500" stroke-linecap="round" stroke-linejoin="round"/><polyline fill="none" points="-27.488213826062278,145.1693448263065 -24.988213826060623,144.49947184523145 -23.158086807135625,142.6693448263108 -22.48821382605462,140.16934482631075 -23.158086807129685,137.6693448263091 -24.98821382605033,135.8392178073841 -27.48821382605039,135.1693448263031 -29.988213826052046,135.83921780737816 -31.818340844977044,137.6693448262988 -32.48821382605805,140.16934482629887 -31.818340844982988,142.66934482630052 -29.988213826062342,144.49947184522551 -27.488213826062278,145.1693448263065" stroke="#ffa500" stroke-linecap="round" stroke-linejoin="round"/><polyline fill="none" points="-36.44171698612783,43.79866812999059 -33.941716986126174,43.12879514891552 -32.111589967201176,41.29866812999488 -31.441716986120166,38.798668129994816 -32.11158996719523,36.29866812999316 -33.94171698611587,34.46854111106816 -36.441716986115935,33.79866812998715 -38.94171698611759,34.46854111106221 -40.77184400504259,36.29866812998285 -41.4417169861236,38.798668129982914 -40.77184400504854,41.29866812998457 -38.9417169861279,43.12879514890957 -36.44171698612784,43.79866812999058" stroke="#008000" stroke-linecap="round" stroke-linejoin="round"/><polyline fill="none" points="-39.38853868645592,35.62024266516467 -36.88853868645426,34.95036968408961 -35.05841166752926,33.120242665168966 -34.38853868644825,30.620242665168902 -35.05841166752331,28.120242665167247 -36.88853868644395,26.290115646242246 -39.388538686444015,25.620242665161232 -41.88853868644567,26.29011564623629 -43.718665705370675,28.120242665156933 -44.38853868645169,30.620242665156994 -43.71866570537663,33.12024266515865 -41.88853868645599,34.950369684083654 -39.388538686455924,35.62024266516467" stroke="#00f" stroke-linecap="round" stroke-linejoin="round"/><polyline fill="none" points="-29.69786284707587,43.461888683234335 -27.197862847074212,42.792015702159276 -25.36773582814921,40.961888683238634 -24.697862847068194,38.46188868323857 -25.367735828143253,35.961888683236914 -27.197862847063895,34.13176166431191 -29.697862847063956,33.461888683230896 -32.197862847065615,34.131761664305955 -34.02798986599062,35.9618886832266 -34.69786284707163,38.46188868322666 -34.027989865996574,40.96188868322832 -32.19786284707593,42.79201570215332 -29.69786284707587,43.46188868323434" stroke="#00f" stroke-linecap="round" stroke-linejoin="round"/><polyline fill="none" points="-52.04215550324415,38.14568472287673 -49.5421555032425,37.47581174180167 -47.71202848431749,35.64568472288103 -47.04215550323647,33.145684722880965 -47.71202848431153,30.645684722879306 -49.54215550323217,28.8155577039543 -52.04215550323224,28.145684722873284 -54.5421555032339,28.81555770394834 -56.372282522158905,30.64568472286898 -57.042155503239925,33.14568472286904 -56.37228252216487,35.645684722870705 -54.54215550324423,37.47581174179571 -52.04215550324417,38.14568472287673" stroke="#00f" stroke-linecap="round" stroke-linejoin="round"/><polyline fill="none" points="-72.33080270210321,140.6213997497201 -69.83080270210155,139.95152676864504 -68.00067568317654,138.1213997497244 -67.33080270209551,135.62139974972433 -68.00067568317057,133.12139974972268 -69.8308027020912,131.2912727307977 -72.33080270209126,130.62139974971666 -74.83080270209292,131.29127273079172 -76.66092972101794,133.12139974971237 -77.33080270209896,135.62139974971242 -76.6609297210239,138.12139974971407 -74.83080270210327,139.95152676863907 -72.33080270210321,140.6213997497201" stroke="#ffa500" stroke-linecap="round" stroke-linejoin="round"/><polyline fill="none" points="-91.78157295232158,116.80853165927152 -89.28157295231992,116.13865867819646 -87.45144593339491,114.30853165927583 -86.78157295231388,111.80853165927577 -87.45144593338892,109.30853165927411 -89.28157295230956,107.4784046403491 -91.78157295230962,106.80853165926807 -94.28157295231128,107.47840464034311 -96.11169997123629,109.30853165926375 -96.78157295231732,111.8085316592638 -96.11169997124227,114.30853165926547 -94.28157295232164,116.13865867819048 -91.78157295232158,116.80853165927151" stroke="#ffa500" stroke-linecap="round" stroke-linejoin="round"/><polyline fill="none" points="-86.53405987446651,78.11660477268488 -84.03405987446484,77.44673179160984 -82.20393285553983,75.6166047726892 -81.5340598744588,73.11660477268914 -82.20393285553385,70.61660477268748 -84.03405987445448,68.78647775376247 -86.53405987445454,68.11660477268144 -89.0340598744562,68.78647775375649 -90.86418689338122,70.61660477267712 -91.53405987446224,73.11660477267718 -90.8641868933872,75.61660477267884 -89.03405987446656,77.44673179160385 -86.53405987446651,78.11660477268488" stroke="#ffa500" stroke-linecap="round" stroke-linejoin="round"/><polyline fill="none" points="-79.18550585550227,88.52507864107399 -76.68550585550061,87.85520565999894 -74.8553788365756,86.02507864107831 -74.18550585549457,83.52507864107825 -74.85537883656961,81.02507864107659 -76.68550585549025,79.19495162215158 -79.1855058554903,78.52507864107055 -81.68550585549197,79.1949516221456 -83.51563287441698,81.02507864106623 -84.18550585549801,83.52507864106629 -83.51563287442296,86.02507864106795 -81.68550585550233,87.85520565999296 -79.18550585550227,88.52507864107399" stroke="#ffa500" stroke-linecap="round" stroke-linejoin="round"/><polyline fill="none" points="-80.86439052947767,85.196031079011 -78.36439052947601,84.52615809793595 -76.534263510551,82.69603107901531 -75.86439052946997,80.19603107901526 -76.53426351054502,77.6960310790136 -78.36439052946565,75.86590406008858 -80.86439052946571,75.19603107900755 -83.36439052946737,75.8659040600826 -85.19451754839238,77.69603107900323 -85.86439052947341,80.19603107900329 -85.19451754839837,82.69603107900495 -83.36439052947773,84.52615809792998 -80.86439052947767,85.19603107901101" stroke="#ffa500" stroke-linecap="round" stroke-linejoin="round"/><polyline fill="none" points="-39.58112833884762,24.914258570017413 -37.08112833884595,24.244385588942368 -35.25100131992093,22.414258570021733 -34.581128338839896,19.91425857002167 -35.25100131991494,17.41425857002 -37.081128338835576,15.584131551094979 -39.58112833883564,14.914258570013944 -42.08112833883731,15.584131551088987 -43.91125535776233,17.414258570009622 -44.581128338843364,19.914258570009686 -43.91125535776832,22.414258570011356 -42.081128338847684,24.244385588936378 -39.58112833884762,24.914258570017417" stroke="#008000" stroke-linecap="round" stroke-linejoin="round"/><polyline fill="none" points="-39.92961756463715,91.85278522145589 -37.42961756463548,91.18291224038084 -35.59949054571045,89.35278522146021 -34.92961756462942,86.85278522146015 -35.599490545704455,84.35278522145848 -37.42961756462509,82.52265820253345 -39.929617564625154,81.85278522145241 -42.429617564626824,82.52265820252745 -44.25974458355185,84.35278522144809 -44.92961756463289,86.85278522144816 -44.259744583557854,89.35278522144984 -42.42961756463722,91.18291224037486 -39.929617564637155,91.8527852214559" stroke="#00f" stroke-linecap="round" stroke-linejoin="round"/><polyline fill="none" points="-129.30777926172732,113.33188862032097 -126.80777926172564,112.66201563924592 -124.97765224280062,110.83188862032529 -124.30777926171957,108.33188862032523 -124.97765224279462,105.83188862032355 -126.80777926171525,104.00176160139853 -129.30777926171532,103.33188862031749 -131.807779261717,104.00176160139252 -133.63790628064203,105.83188862031315 -134.30777926172306,108.33188862031321 -133.63790628064802,110.83188862031488 -131.8077792617274,112.66201563923991 -129.30777926172735,113.33188862032095" stroke="#ffa500" stroke-linecap="round" stroke-linejoin="round"/><polyline fill="none" points="54.078805171279605,83.79884376513975 56.57880517128128,83.12897078406472 58.40893219020631,81.29884376514408 59.07880517128735,78.79884376514401 58.40893219021231,76.29884376514234 56.578805171291684,74.46871674621731 54.07880517129162,73.79884376513627 51.57880517128994,74.4687167462113 49.74867815236492,76.29884376513193 49.078805171283875,78.798843765132 49.74867815235891,81.29884376513368 51.57880517127954,83.12897078405871 54.078805171279605,83.79884376513975" stroke="#00f" stroke-linecap="round" stroke-linejoin="round"/><polyline fill="none" points="-83.50035307194837,-22.026222289141298 -81.00035307194669,-22.696095270216333 -79.17022605302166,-24.52622228913696 -78.50035307194062,-27.026222289137024 -79.17022605301565,-29.5262222891387 -81.00035307193629,-31.35634930806373 -83.50035307193636,-32.026222289144776 -86.00035307193804,-31.356349308069742 -87.83048009086306,-29.526222289149114 -88.5003530719441,-27.02622228914905 -87.83048009086907,-24.526222289147373 -86.00035307194844,-22.69609527022234 -83.50035307194837,-22.02622228914129" stroke="#ffa500" stroke-linecap="round" stroke-linejoin="round"/><polyline fill="none" points="-107.67707993710424,47.834893907488784 -105.17707993710256,47.16502092641375 -103.34695291817754,45.334893907493125 -102.6770799370965,42.83489390749306 -103.34695291817152,40.334893907491384 -105.17707993709215,38.50476688856635 -107.6770799370922,37.8348939074853 -110.17707993709388,38.50476688856033 -112.00720695601892,40.33489390748096 -112.67707993709998,42.834893907481025 -112.00720695602494,45.3348939074827 -110.17707993710432,47.165020926407735 -107.67707993710425,47.834893907488784" stroke="#ffa500" stroke-linecap="round" stroke-linejoin="round"/><polyline fill="none" points="-127.74394893194146,72.77933071408556 -125.24394893193978,72.10945773301053 -123.41382191301474,70.27933071408991 -122.74394893193369,67.77933071408984 -123.41382191300872,65.27933071408816 -125.24394893192934,63.44920369516313 -127.74394893192941,62.77933071408208 -130.2439489319311,63.44920369515711 -132.07407595085613,65.27933071407773 -132.74394893193718,67.77933071407779 -132.07407595086215,70.27933071407946 -130.24394893194153,72.1094577330045 -127.74394893194147,72.77933071408556" stroke="#ffa500" stroke-linecap="round" stroke-linejoin="round"/><polyline fill="none" points="-46.42548553645205,48.4477224641628 -43.925485536450374,47.77784948308778 -42.095358517525334,45.94772246416715 -41.42548553644428,43.447722464167086 -42.0953585175193,40.94772246416541 -43.92548553643993,39.11759544524037 -46.42548553643999,38.44772246415931 -48.92548553644167,39.117595445234336 -50.75561255536671,40.947722464154964 -51.425485536447766,43.44772246415503 -50.75561255537274,45.94772246415671 -48.92548553645212,47.77784948308175 -46.42548553645206,48.44772246416281" stroke="#008000" stroke-linecap="round" stroke-linejoin="round"/><polyline fill="none" points="-61.93855854212507,-30.601847819394344 -59.43855854212339,-31.271720800469367 -57.60843152319835,-33.10184781938999 -56.93855854211729,-35.60184781939005 -57.608431523192316,-38.101847819391736 -59.438558542112936,-39.931974838316776 -61.938558542113,-40.60184781939783 -64.43855854211468,-39.93197483832281 -66.26868556103972,-38.10184781940219 -66.93855854212077,-35.601847819402124 -66.26868556104576,-33.10184781940044 -64.43855854212514,-31.2717208004754 -61.93855854212507,-30.60184781939434" stroke="#ffa500" stroke-linecap="round" stroke-linejoin="round"/><polyline fill="none" points="-62.28324811048464,-11.14253705759122 -59.78324811048296,-11.812410038666242 -57.95312109155792,-13.642537057586864 -57.283248110476855,-16.142537057586928 -57.95312109155188,-18.642537057588612 -59.7832481104725,-20.472664076513656 -62.28324811047256,-21.142537057594716 -64.78324811047425,-20.472664076519695 -66.61337512939929,-18.642537057599075 -67.28324811048034,-16.14253705759901 -66.61337512940533,-13.642537057597329 -64.7832481104847,-11.812410038672285 -62.28324811048464,-11.142537057591223" stroke="#00f" stroke-linecap="round" stroke-linejoin="round"/><polyline fill="none" points="-0.9123891754151737,-17.882834770300164 1.5876108245865104,-18.552707751375184 3.4177378435115555,-20.382834770295805 4.087610824592618,-22.88283477029587 3.4177378435175987,-25.382834770297553 1.5876108245969776,-27.2129617892226 -0.9123891754030873,-27.882834770303663 -3.4123891754047717,-27.212961789228643 -5.242516194329818,-25.382834770308023 -5.912389175410882,-22.88283477030796 -5.242516194335865,-20.382834770306275 -3.412389175415245,-18.552707751381227 -0.9123891754151807,-17.882834770300164" stroke="#00f" stroke-linecap="round" stroke-linejoin="round"/><polyline fill="none" points="-34.08092836216422,-17.099887221373702 -31.58092836216254,-17.76976020244872 -29.75080134323749,-19.59988722136934 -29.080928362156424,-22.099887221369404 -29.75080134323144,-24.599887221371088 -31.58092836215206,-26.430014240296135 -34.08092836215213,-27.0998872213772 -36.58092836215381,-26.430014240302185 -38.41105538107886,-24.599887221381564 -39.08092836215992,-22.0998872213815 -38.41105538108491,-19.599887221379813 -36.580928362164286,-17.769760202454762 -34.08092836216422,-17.099887221373695" stroke="#00f" stroke-linecap="round" stroke-linejoin="round"/><polyline fill="none" points="-130.51814436663872,30.778178459674177 -128.01814436663705,30.10830547859916 -126.18801734771199,28.278178459678543 -125.51814436663092,25.77817845967848 -126.18801734770594,23.27817845967679 -128.01814436662656,21.44805144075174 -130.51814436662661,20.77817845967067 -133.0181443666283,21.448051440745683 -134.84827138555335,23.2781784596663 -135.5181443666344,25.778178459666364 -134.8482713855594,28.27817845966805 -133.01814436663878,30.108305478593103 -130.51814436663872,30.778178459674173" stroke="#ffa500" stroke-linecap="round" stroke-linejoin="round"/><polyline fill="none" points="-16.642025669640123,-3.3000941336235528 -14.142025669638436,-3.9699671146985653 -12.311898650713383,-5.800094133619183 -11.642025669632313,-8.300094133619247 -12.311898650707326,-10.800094133620934 -14.142025669627943,-12.630221152545987 -16.64202566962801,-13.30009413362706 -19.142025669629696,-12.630221152552048 -20.97215268855475,-10.800094133631431 -21.64202566963582,-8.300094133631367 -20.97215268856081,-5.800094133629679 -19.142025669640194,-3.9699671147046263 -16.64202566964013,-3.3000941336235536" stroke="#008000" stroke-linecap="round" stroke-linejoin="round"/><polyline fill="none" points="-114.25400656362865,10.202063818776091 -111.75400656362696,9.53219083770108 -109.9238795447019,7.702063818780465 -109.25400656362083,5.202063818780401 -109.92387954469585,2.702063818778712 -111.75400656361647,0.8719367998536571 -114.25400656361654,0.20206381877258317 -116.75400656361823,0.8719367998475925 -118.58413358254329,2.702063818768208 -119.25400656362436,5.202063818768272 -118.58413358254936,7.702063818769961 -116.75400656362874,9.532190837695017 -114.25400656362868,10.202063818776093" stroke="#ffa500" stroke-linecap="round" stroke-linejoin="round"/><polyline fill="none" points="-95.23398388416199,-45.32377728783895 -92.7339838841603,-45.99365026891396 -90.90385686523524,-47.823777287834574 -90.23398388415417,-50.32377728783464 -90.90385686522917,-52.82377728783633 -92.7339838841498,-54.65390430676138 -95.23398388414986,-55.32377728784246 -97.73398388415156,-54.65390430676745 -99.56411090307661,-52.82377728784684 -100.23398388415768,-50.323777287846774 -99.56411090308268,-47.82377728784508 -97.73398388416207,-45.99365026892002 -95.233983884162,-45.32377728783894" stroke="#ffa500" stroke-linecap="round" stroke-linejoin="round"/><polyline fill="none" points="-141.18589136740889,1.15928658839327 -138.68589136740718,0.48941360731826433 -136.85576434848213,-1.3407134116023482 -136.18589136740104,-3.840713411602412 -136.85576434847604,-6.340713411604104 -138.68589136739666,-8.170840430529163 -141.18589136739672,-8.840713411610242 -143.68589136739843,-8.170840430535238 -145.51601838632348,-6.340713411614625 -146.18589136740457,-3.8407134116145607 -145.51601838632956,-1.3407134116128687 -143.68589136740894,0.4894136073121913 -141.18589136740889,1.1592865883932717" stroke="#ffa500" stroke-linecap="round" stroke-linejoin="round"/><polyline fill="none" points="-97.02872295407191,-43.97608182576893 -94.52872295407022,-44.64595480684393 -92.69859593514516,-46.476081825764545 -92.02872295406408,-48.97608182576461 -92.69859593513908,-51.4760818257663 -94.52872295405969,-53.30620884469136 -97.02872295405976,-53.97608182577245 -99.52872295406145,-53.306208844697444 -101.35884997298652,-51.47608182577683 -102.0287229540676,-48.97608182577677 -101.3588499729926,-46.476081825775076 -99.528722954072,-44.645954806850014 -97.02872295407192,-43.97608182576893" stroke="#ffa500" stroke-linecap="round" stroke-linejoin="round"/><polyline fill="none" points="-135.59497411248518,-42.97660433896786 -133.09497411248347,-43.64647732004286 -131.26484709355842,-45.476604338963476 -130.59497411247733,-47.97660433896354 -131.26484709355233,-50.47660433896523 -133.09497411247295,-52.30673135789029 -135.594974112473,-52.97660433897138 -138.09497411247472,-52.306731357896375 -139.92510113139977,-50.47660433897577 -140.59497411248086,-47.976604338975704 -139.92510113140585,-45.476604338974006 -138.09497411248523,-43.646477320048945 -135.59497411248518,-42.97660433896786" stroke="#ffa500" stroke-linecap="round" stroke-linejoin="round"/><polyline fill="none" points="46.56463920459234,-13.065601423093003 49.06463920459404,-13.735474404168002 50.894766223519106,-15.565601423088612 51.56463920460019,-18.065601423088676 50.894766223525195,-20.56560142309037 49.06463920460459,-22.395728442015436 46.564639204604525,-23.065601423096524 44.06463920460283,-22.395728442021525 42.23451218567776,-20.565601423100915 41.56463920459667,-18.06560142310085 42.23451218567167,-15.565601423099155 44.064639204592275,-13.735474404174088 46.56463920459234,-13.065601423093" stroke="#00f" stroke-linecap="round" stroke-linejoin="round"/><polyline fill="none" points="18.180388131966183,-47.959653640250785 20.68038813196788,-48.62952662132578 22.51051515089295,-50.45965364024639 23.180388131974038,-52.95965364024645 22.510515150899042,-55.45965364024815 20.680388131978436,-57.28978065917322 18.180388131978372,-57.95965364025431 15.680388131976674,-57.289780659179314 13.850261113051605,-55.45965364025871 13.180388131970513,-52.959653640258644 13.850261113045509,-50.459653640256946 15.680388131966115,-48.62952662133188 18.18038813196618,-47.959653640250785" stroke="#00f" stroke-linecap="round" stroke-linejoin="round"/><polyline fill="none" points="-50.64334230189605,-31.978167544273234 -48.14334230189435,-32.64804052534823 -46.31321528296928,-34.478167544268835 -45.64334230188819,-36.9781675442689 -46.313215282963185,-39.4781675442706 -48.14334230188379,-41.308294563195666 -50.643342301883855,-41.97816754427676 -53.14334230188555,-41.30829456320176 -54.97346932081062,-39.478167544281156 -55.643342301891714,-36.97816754428109 -54.97346932081672,-34.478167544279394 -53.14334230189611,-32.64804052535432 -50.64334230189605,-31.978167544273223" stroke="#00f" stroke-linecap="round" stroke-linejoin="round"/><polyline fill="none" points="-6.1448327400973906,-51.6317156808259 -3.6448327400956906,-52.30158866190089 -1.8147057211706172,-54.13171568082149 -1.1448327400895222,-56.63171568082156 -1.814705721164513,-59.131715680823255 -3.6448327400851177,-60.96184269974833 -6.144832740085182,-61.63171568082943 -8.644832740086883,-60.96184269975444 -10.474959759011957,-59.131715680833835 -11.144832740093054,-56.63171568083377 -10.474959759018065,-54.13171568083207 -8.64483274009746,-52.301588661907 -6.144832740097396,-51.6317156808259" stroke="#00f" stroke-linecap="round" stroke-linejoin="round"/><polyline fill="none" points="-90.3109956070689,-82.16957027148875 -87.8109956070672,-82.83944325256374 -85.98086858814213,-84.66957027148435 -85.31099560706103,-87.16957027148442 -85.98086858813602,-89.66957027148612 -87.81099560705663,-91.4996972904112 -90.3109956070567,-92.1695702714923 -92.8109956070584,-91.49969729041732 -94.64112262598348,-89.66957027149671 -95.31099560706458,-87.16957027149664 -94.6411226259896,-84.66957027149493 -92.81099560706899,-82.83944325256985 -90.31099560706892,-82.16957027148875" stroke="#ffa500" stroke-linecap="round" stroke-linejoin="round"/><polyline fill="none" points="-106.41612807642137,-53.66808775310379 -103.91612807641967,-54.33796073417878 -102.08600105749458,-56.16808775309938 -101.41612807641349,-58.66808775309944 -102.08600105748847,-61.16808775310115 -103.91612807640908,-62.99821477202622 -106.41612807640915,-63.66808775310732 -108.91612807641086,-62.998214772032334 -110.74625509533594,-61.168087753111735 -111.41612807641704,-58.66808775311167 -110.74625509534205,-56.168087753109965 -108.91612807642144,-54.33796073418489 -106.41612807642139,-53.66808775310379" stroke="#ffa500" stroke-linecap="round" stroke-linejoin="round"/><polyline fill="none" points="34.78352288051816,-17.980267552675073 37.28352288051987,-18.650140533750058 39.11364989944495,-20.480267552670657 39.78352288052606,-22.98026755267072 39.113649899451076,-25.480267552672426 37.28352288053048,-27.310394571597506 34.78352288053041,-27.980267552678608 32.28352288052871,-27.310394571603624 30.453395861603624,-25.480267552683024 29.78352288052252,-22.98026755268296 30.4533958615975,-20.480267552681255 32.2835228805181,-18.650140533756172 34.78352288051816,-17.980267552675066" stroke="#00f" stroke-linecap="round" stroke-linejoin="round"/><polyline fill="none" points="-41.68537813094223,-0.5354389867696909 -39.18537813094053,-1.205311967844673 -37.355251112015445,-3.0354389867652722 -36.68537813093434,-5.535438986765336 -37.35525111200932,-8.03543898676704 -39.18537813092992,-9.865566005692123 -41.68537813092998,-10.53543898677323 -44.18537813093169,-9.865566005698248 -46.01550514985677,-8.035438986777649 -46.68537813093788,-5.535438986777585 -46.015505149862896,-3.0354389867758793 -44.1853781309423,-1.2053119678507953 -41.68537813094223,-0.5354389867696875" stroke="#008000" stroke-linecap="round" stroke-linejoin="round"/><polyline fill="none" points="-62.241182041002766,-99.01647576489302 -59.74118204100106,-99.68634874596799 -57.91105502207598,-101.51647576488858 -57.24118204099487,-104.01647576488864 -57.91105502206985,-106.51647576489034 -59.74118204099045,-108.34660278381543 -62.241182040990516,-109.01647576489654 -64.74118204099223,-108.34660278382157 -66.57130905991731,-106.51647576490097 -67.24118204099842,-104.01647576490092 -66.57130905992345,-101.51647576489921 -64.74118204100286,-99.68634874597413 -62.241182041002794,-99.01647576489302" stroke="#ffa500" stroke-linecap="round" stroke-linejoin="round"/><polyline fill="none" points="-47.622128820194554,-122.51435143644552 -45.12212882019285,-123.1842244175205 -43.29200180126776,-125.01435143644109 -42.622128820186646,-127.51435143644116 -43.29200180126162,-130.01435143644287 -45.12212882018222,-131.84447845536795 -47.62212882018228,-132.51435143644906 -50.12212882018399,-131.8444784553741 -51.95225583910908,-130.0143514364535 -52.62212882019019,-127.51435143645344 -51.95225583911522,-125.01435143645173 -50.122128820194625,-123.18422441752665 -47.62212882019456,-122.51435143644554" stroke="#ffa500" stroke-linecap="round" stroke-linejoin="round"/><polyline fill="none" points="-51.638863442063155,-6.895068319852546 -49.13886344206144,-7.564941300927521 -47.30873642313635,-9.395068319848116 -46.63886344205524,-11.89506831984818 -47.30873642313021,-14.39506831984989 -49.138863442050805,-16.22519533877498 -51.63886344205087,-16.895068319856097 -54.13886344205258,-16.225195338781123 -55.96899046097767,-14.39506831986053 -56.638863442058785,-11.895068319860465 -55.96899046098381,-9.395068319858755 -54.13886344206322,-7.564941300933663 -51.638863442063155,-6.895068319852546" stroke="#00f" stroke-linecap="round" stroke-linejoin="round"/><polyline fill="none" points="31.550162696379683,-32.5603810842694 34.05016269638139,-33.230254065344376 35.88028971530648,-35.06038108426497 36.5501626963876,-37.56038108426503 35.88028971531263,-40.060381084266744 34.050162696392036,-41.890508103191834 31.550162696391972,-42.560381084272954 29.05016269639026,-41.89050810319798 27.220035677465166,-40.06038108427739 26.550162696384046,-37.560381084277324 27.220035677459016,-35.06038108427561 29.05016269637961,-33.230254065350515 31.550162696379672,-32.560381084269395" stroke="#00f" stroke-linecap="round" stroke-linejoin="round"/><polyline fill="none" points="-46.64931101120292,-114.33866314696994 -44.149311011201206,-115.00853612804491 -42.31918399227611,-116.8386631469655 -41.64931101119499,-119.33866314696557 -42.319183992269956,-121.83866314696728 -44.14931101119055,-123.66879016589237 -46.64931101119061,-124.3386631469735 -49.149311011192324,-123.66879016589853 -50.97943803011742,-121.83866314697794 -51.64931101119854,-119.33866314697786 -50.979438030123575,-116.83866314697615 -49.14931101120298,-115.00853612805105 -46.64931101120292,-114.33866314696992" stroke="#ffa500" stroke-linecap="round" stroke-linejoin="round"/><polyline fill="none" points="-60.976317180372625,-87.49677357968586 -58.47631718037091,-88.16664656076084 -56.646190161445816,-89.99677357968143 -55.976317180364696,-92.4967735796815 -56.64619016143966,-94.99677357968322 -58.476317180360255,-96.82690059860832 -60.97631718036032,-97.49677357968945 -63.47631718036203,-96.82690059861449 -65.30644419928713,-94.9967735796939 -65.97631718036826,-92.49677357969384 -65.3064441992933,-89.99677357969212 -63.4763171803727,-88.16664656076702 -60.97631718037264,-87.4967735796859" stroke="#ffa500" stroke-linecap="round" stroke-linejoin="round"/><polyline fill="none" points="-39.17723274306133,23.19601850741001 -36.67723274305962,22.526145526335046 -34.84710572413452,20.696018507414458 -34.177232743053395,18.196018507414394 -34.84710572412836,15.696018507412678 -36.677232743048954,13.865891488487577 -39.17723274304902,13.19601850740645 -41.67723274305073,13.865891488481413 -43.507359761975835,15.696018507402002 -44.17723274305696,18.196018507402066 -43.507359761982,20.69601850740378 -41.67723274306142,22.526145526328882 -39.17723274306135,23.19601850741001" stroke="#008000" stroke-linecap="round" stroke-linejoin="round"/><polyline fill="none" points="-53.663099225395314,-104.86341117703597 -51.163099225393594,-105.53328415811093 -49.33297220646849,-107.36341117703152 -48.66309922538736,-109.8634111770316 -49.33297220646232,-112.36341117703331 -51.16309922538291,-114.19353819595841 -53.66309922538297,-114.86341117703954 -56.16309922538469,-114.19353819596458 -57.993226244309795,-112.36341117704399 -58.66309922539092,-109.86341117704391 -57.99322624431596,-107.3634111770422 -56.16309922539538,-105.5332841581171 -53.663099225395314,-104.86341117703597" stroke="#ffa500" stroke-linecap="round" stroke-linejoin="round"/><polyline fill="none" points="-69.62994548624611,-117.4635271844537 -67.1299454862444,-118.13340016552866 -65.29981846731928,-119.96352718444925 -64.62994548623816,-122.46352718444932 -65.29981846731312,-124.96352718445104 -67.12994548623371,-126.79365420337615 -69.62994548623378,-127.46352718445728 -72.1299454862355,-126.79365420338232 -73.96007250516061,-124.96352718446173 -74.62994548624174,-122.46352718446165 -73.96007250516678,-119.96352718445993 -72.12994548624619,-118.13340016553482 -69.62994548624611,-117.4635271844537" stroke="#ffa500" stroke-linecap="round" stroke-linejoin="round"/><polyline fill="none" points="-32.94697790681113,35.26411435651461 -30.44697790680941,34.59424137543965 -28.6168508878843,32.764114356519066 -27.946977906803166,30.264114356519002 -28.616850887878122,27.764114356517283 -30.446977906798708,25.933987337592175 -32.94697790679877,25.26411435651104 -35.44697790680049,25.933987337585997 -37.277104925725595,27.76411435650658 -37.94697790680673,30.264114356506646 -37.27710492573177,32.764114356508365 -35.446977906811185,34.59424137543348 -32.94697790681112,35.26411435651461" stroke="#00f" stroke-linecap="round" stroke-linejoin="round"/><polyline fill="none" points="-35.93331656580348,-92.50755173751313 -33.43331656580176,-93.17742471858809 -31.603189546876653,-95.00755173750866 -30.93331656579552,-97.50755173750872 -31.603189546870475,-100.00755173751044 -33.43331656579106,-101.83767875643555 -35.933316565791124,-102.50755173751669 -38.43331656579284,-101.83767875644173 -40.263443584717955,-100.00755173752115 -40.93331656579909,-97.50755173752108 -40.263443584724136,-95.00755173751936 -38.43331656580355,-93.17742471859425 -35.93331656580349,-92.50755173751311" stroke="#ffa500" stroke-linecap="round" stroke-linejoin="round"/><polyline fill="none" points="-33.829976389669014,-97.57167760524099 -31.32997638966729,-98.24155058631595 -29.49984937074218,-100.07167760523653 -28.82997638966104,-102.5716776052366 -29.499849370735994,-105.07167760523832 -31.329976389656576,-106.90180462416343 -33.82997638965664,-107.57167760524457 -36.32997638965836,-106.90180462416963 -38.160103408583474,-105.07167760524905 -38.829976389664616,-102.571677605249 -38.16010340858966,-100.07167760524727 -36.32997638966908,-98.24155058632216 -33.829976389669014,-97.57167760524102" stroke="#ffa500" stroke-linecap="round" stroke-linejoin="round"/></svg>