<?xml version="1.0" ?><!DOCTYPE svg  PUBLIC '-//W3C//DTD SVG 1.1//EN'  'http://www.w3.org/Graphics/SVG/1.1/DTD/svg11.dtd'><svg height="480.000" viewBox="-364.000 -223.000 589.000 480.000" width="589.000" xmlns="http://www.w3.org/2000/svg"><line fill="none" stroke="none" stroke-linecap="round" stroke-width="2.0" x1="0.0" x2="0.0" y1="0.0" y2="0.0"/><polygon fill="none" fill-rule="evenodd" points="0.0,0.0 0.0,0.0 0.0,0.0" stroke-linejoin="round"/><polyline fill="none" points="20.44870624885111,111.55468872656935 22.948706248869062,110.88481574552145 24.778833267821753,109.05468872661618 25.44870624893443,106.55468872661558 24.77883326788652,104.05468872659763 22.948706248981242,102.22456170764494 20.448706248980645,101.55468872653226 17.948706248962694,102.22456170758016 16.118579230010003,104.05468872648544 15.448706248897325,106.55468872648603 16.118579229945233,109.05468872650398 17.94870624885051,110.88481574545668 20.448706248851106,111.55468872656935" stroke="#ffa500" stroke-linecap="round" stroke-linejoin="round"/><polyline fill="none" points="-2.3212489042872075,53.98231251383287 0.17875109573074566,53.312439532784964 2.008878114683437,51.48231251387969 2.678751095796115,48.982312513879094 2.0088781147482093,46.48231251386114 0.17875109584293414,44.652185494908444 -2.3212489041576636,43.98231251379576 -4.821248904175618,44.652185494843664 -6.6513759231283105,46.48231251374894 -7.32124890424099,48.982312513749534 -6.651375923193085,51.48231251376749 -4.821248904287811,53.312439532720184 -2.3212489042872124,53.982312513832866" stroke="#ffa500" stroke-linecap="round" stroke-linejoin="round"/><polyline fill="none" points="144.43536648352338,-113.91390956080402 146.93536648354134,-114.58378254185192 148.76549350249402,-116.41390956075719 149.4353664836067,-118.91390956075779 148.7654935025588,-121.41390956077574 146.93536648365352,-123.24403657972843 144.43536648365293,-123.9139095608411 141.93536648363497,-123.2440365797932 140.10523946468226,-121.41390956088793 139.43536648356957,-118.91390956088733 140.10523946461748,-116.41390956086937 141.93536648352276,-114.58378254191668 144.43536648352335,-113.91390956080399" stroke="#ffa500" stroke-linecap="round" stroke-linejoin="round"/><polyline fill="none" points="-173.04790646942448,-104.28851502471065 -170.5479064694065,-104.95838800575855 -168.7177794504538,-106.78851502466382 -168.04790646934111,-109.28851502466442 -168.717779450389,-111.78851502468237 -170.54790646929428,-113.61864204363506 -173.04790646929487,-114.28851502474775 -175.54790646931284,-113.61864204369985 -177.37803348826554,-111.78851502479458 -178.04790646937823,-109.28851502479398 -177.37803348833035,-106.78851502477602 -175.54790646942507,-104.95838800582332 -173.04790646942448,-104.28851502471063" stroke="#ffa500" stroke-linecap="round" stroke-linejoin="round"/><polyline fill="none" points="-191.61800723169856,-34.63916811232457 -189.1180072316806,-35.30904109337247 -187.28788021272788,-37.139168112277744 -186.6180072316152,-39.63916811227834 -187.28788021266308,-42.139168112296296 -189.11800723156836,-43.969295131249 -191.61800723156895,-44.63916811236169 -194.11800723158692,-43.96929513131379 -195.94813425053962,-42.13916811240852 -196.6180072316523,-39.63916811240792 -195.94813425060443,-37.13916811238997 -194.11800723169915,-35.309041093437266 -191.61800723169856,-34.639168112324576" stroke="#00f" stroke-linecap="round" stroke-linejoin="round"/><polyline fill="none" points="-334.43402379037843,-63.428297985833495 -331.93402379036047,-64.0981709668814 -330.1038967714078,-65.92829798578667 -329.4340237902951,-68.42829798578727 -330.103896771343,-70.92829798580523 -331.93402379024826,-72.75842500475794 -334.4340237902489,-73.42829798587063 -336.93402379026685,-72.75842500482274 -338.76415080921953,-70.92829798591747 -339.4340237903322,-68.42829798591687 -338.76415080928433,-65.92829798589891 -336.93402379037906,-64.0981709669462 -334.43402379037843,-63.42829798583351" stroke="#00f" stroke-linecap="round" stroke-linejoin="round"/><polyline fill="none" points="171.88657309058883,-107.95588751718813 174.3865730906068,-108.62576049823602 176.2167001095595,-110.45588751714129 176.8865730906722,-112.95588751714189 176.2167001096243,-115.45588751715985 174.38657309071903,-117.28601453611256 171.88657309071843,-117.95588751722525 169.38657309070047,-117.28601453617736 167.55644607174776,-115.45588751727209 166.88657309063507,-112.95588751727149 167.55644607168296,-110.45588751725353 169.38657309058823,-108.62576049830082 171.88657309058883,-107.95588751718813" stroke="#ffa500" stroke-linecap="round" stroke-linejoin="round"/><polyline fill="none" points="90.97312652901135,-196.08523101780762 93.47312652902932,-196.7551039988555 95.30325354798202,-198.58523101776078 95.97312652909471,-201.08523101776137 95.30325354804683,-203.58523101777934 93.47312652914155,-205.41535803673204 90.97312652914096,-206.08523101784473 88.473126529123,-205.41535803679685 86.64299951017028,-203.58523101789157 85.97312652905758,-201.08523101789098 86.64299951010547,-198.585231017873 88.47312652901073,-196.7551039989203 90.97312652901132,-196.08523101780762" stroke="#ffa500" stroke-linecap="round" stroke-linejoin="round"/><polyline fill="none" points="-342.11809626934007,-62.17217249916325 -339.6180962693221,-62.84204548021114 -337.7879692503694,-64.67217249911641 -337.1180962692567,-67.17217249911701 -337.78796925030457,-69.67217249913497 -339.61809626920984,-71.50229951808768 -342.11809626921047,-72.17217249920039 -344.61809626922843,-71.5022995181525 -346.44822328818117,-69.67217249924724 -347.11809626929386,-67.17217249924664 -346.44822328824597,-64.67217249922868 -344.6180962693407,-62.84204548027597 -342.11809626934007,-62.17217249916327" stroke="#00f" stroke-linecap="round" stroke-linejoin="round"/><polyline fill="none" points="-229.05162694161922,65.8764661582731 -226.55162694160126,65.20659317722522 -224.72149992264855,63.37646615831995 -224.05162694153586,60.87646615831935 -224.72149992258375,58.37646615830138 -226.55162694148902,56.54633913934867 -229.05162694148962,55.876466158235964 -231.55162694150758,56.54633913928385 -233.3817539604603,58.37646615818912 -234.05162694157298,60.876466158189714 -233.3817539605251,63.376466158207684 -231.55162694161982,65.2065931771604 -229.05162694161922,65.8764661582731" stroke="#00f" stroke-linecap="round" stroke-linejoin="round"/><polyline fill="none" points="98.41583360514743,160.2146659572829 100.91583360516539,159.54479297623502 102.7459606241181,157.71466595732974 103.4158336052308,155.21466595732915 102.74596062418291,152.71466595731118 100.91583360527765,150.88453893835847 98.41583360527706,150.21466595724576 95.9158336052591,150.88453893829364 94.08570658630639,152.71466595719892 93.41583360519368,155.21466595719951 94.08570658624157,157.71466595721748 95.91583360514683,159.54479297617019 98.41583360514743,160.2146659572829" stroke="#ffa500" stroke-linecap="round" stroke-linejoin="round"/><polyline fill="none" points="90.32651422459946,92.32313987886702 92.82651422461743,91.65326689781914 94.65664124357015,89.82313987891388 95.32651422468285,87.32313987891328 94.65664124363497,84.82313987889532 92.8265142247297,82.9930128599426 90.32651422472911,82.32313987882989 87.82651422471115,82.99301285987777 85.99638720575842,84.82313987878302 85.32651422464572,87.32313987878362 85.9963872056936,89.82313987880158 87.82651422459885,91.6532668977543 90.32651422459945,92.32313987886701" stroke="#ffa500" stroke-linecap="round" stroke-linejoin="round"/><polyline fill="none" points="126.92076390982784,-148.12134589968858 129.42076390984582,-148.79121888073647 131.25089092879853,-150.62134589964174 131.92076390991124,-153.12134589964234 131.25089092886336,-155.6213458996603 129.42076390995808,-157.451472918613 126.92076390995749,-158.12134589972572 124.42076390993951,-157.45147291867784 122.59063689098679,-155.62134589977256 121.92076390987407,-153.12134589977197 122.59063689092194,-150.621345899754 124.4207639098272,-148.7912188808013 126.9207639098278,-148.12134589968858" stroke="#ffa500" stroke-linecap="round" stroke-linejoin="round"/><polyline fill="none" points="-121.74584693603362,-104.21435633590293 -119.24584693601564,-104.88422931695081 -117.41571991706292,-106.71435633585607 -116.7458469359502,-109.21435633585666 -117.41571991699807,-111.71435633587464 -119.24584693590333,-113.54448335482736 -121.74584693590393,-114.21435633594008 -124.2458469359219,-113.54448335489221 -126.07597395487463,-111.71435633598695 -126.74584693598734,-109.21435633598635 -126.07597395493947,-106.71435633596838 -124.24584693603421,-104.88422931701565 -121.74584693603362,-104.21435633590293" stroke="#00f" stroke-linecap="round" stroke-linejoin="round"/><polyline fill="none" points="27.47208486457342,245.28922078524167 29.972084864591395,244.61934780419378 31.802211883544118,242.78922078528853 32.472084864656836,240.28922078528794 31.802211883608962,237.78922078526998 29.972084864703703,235.95909376631724 27.472084864703106,235.28922078520452 24.972084864685133,235.95909376625238 23.141957845732406,237.78922078515762 22.47208486461969,240.28922078515822 23.141957845667562,242.78922078517618 24.972084864572818,244.61934780412892 27.472084864573414,245.28922078524164" stroke="#ffa500" stroke-linecap="round" stroke-linejoin="round"/><polyline fill="none" points="31.371190553526358,-127.20582097812326 33.87119055354433,-127.87569395917113 35.701317572497054,-129.7058209780764 36.37119055360977,-132.20582097807699 35.7013175725619,-134.70582097809495 33.871190553656646,-136.53594799704769 31.37119055365605,-137.2058209781604 28.871190553638076,-136.53594799711254 27.04106353468535,-134.7058209782073 26.37119055357263,-132.2058209782067 27.041063534620502,-129.70582097818874 28.871190553525757,-127.87569395923602 31.371190553526354,-127.2058209781233" stroke="#ffa500" stroke-linecap="round" stroke-linejoin="round"/><polyline fill="none" points="-241.2191777209472,-75.71378117012173 -238.71917772092922,-76.38365415116961 -236.8890507019765,-78.21378117007487 -236.21917772086377,-80.71378117007546 -236.88905070191163,-83.21378117009344 -238.71917772081687,-85.04390818904616 -241.21917772081747,-85.71378117015888 -243.71917772083543,-85.04390818911101 -245.54930473978817,-83.21378117020575 -246.2191777209009,-80.71378117020515 -245.54930473985303,-78.21378117018718 -243.71917772094778,-76.38365415123444 -241.2191777209472,-75.71378117012172" stroke="#008000" stroke-linecap="round" stroke-linejoin="round"/><polyline fill="none" points="24.56434709779558,11.760284402990884 27.064347097813556,11.090411421943017 28.894474116766286,9.260284403037764 29.56434709787901,6.760284403037166 28.894474116831145,4.260284403019189 27.064347097925893,2.430157384066457 24.564347097925296,1.7602844029537326 22.06434709790732,2.430157384001598 20.234220078954586,4.26028440290685 19.56434709784186,6.760284402907447 20.234220078889727,9.260284402925425 22.06434709779498,11.090411421878159 24.564347097795576,11.760284402990886" stroke="#ffa500" stroke-linecap="round" stroke-linejoin="round"/><polyline fill="none" points="-279.0512655691031,-99.70582616529127 -276.55126556908516,-100.37569914633913 -274.7211385501324,-102.20582616524437 -274.0512655690197,-104.70582616524497 -274.72113855006756,-107.20582616526295 -276.55126556897284,-109.03595318421569 -279.05126556897346,-109.70582616532842 -281.5512655689914,-109.03595318428056 -283.38139258794416,-107.20582616537531 -284.0512655690569,-104.70582616537472 -283.381392588009,-102.20582616535674 -281.55126556910375,-100.375699146404 -279.0512655691031,-99.70582616529127" stroke="#00f" stroke-linecap="round" stroke-linejoin="round"/><polyline fill="none" points="62.43077467110504,-183.72209264847675 64.93077467112302,-184.3919656295246 66.76090169007576,-186.22209264842985 67.43077467118849,-188.72209264843045 66.76090169014063,-191.22209264844844 64.93077467123538,-193.05221966740118 62.430774671234786,-193.7220926485139 59.93077467121681,-193.05221966746603 58.10064765226407,-191.2220926485608 57.43077467115134,-188.7220926485602 58.1006476521992,-186.2220926485422 59.93077467110445,-184.39196562958946 62.43077467110505,-183.72209264847675" stroke="#00f" stroke-linecap="round" stroke-linejoin="round"/><polyline fill="none" points="78.52417519898512,-53.29534869128302 81.0241751990031,-53.96522167233088 82.85430221795583,-55.79534869123613 83.52417519906857,-58.295348691236725 82.8543022180207,-60.79534869125471 81.02417519911546,-62.625475710207446 78.52417519911486,-63.29534869132018 76.02417519909689,-62.62547571027232 74.19404818014415,-60.79534869136707 73.52417519903142,-58.29534869136647 74.19404818007928,-55.79534869134849 76.02417519898452,-53.96522167239575 78.52417519898512,-53.29534869128302" stroke="#ffa500" stroke-linecap="round" stroke-linejoin="round"/><polyline fill="none" points="-132.97800284409732,26.48023258038797 -130.47800284407933,25.81035959934011 -128.6478758251266,23.980232580434862 -127.97800284401386,21.48023258043426 -128.6478758250617,18.980232580416278 -130.47800284396695,17.150105561463537 -132.97800284396754,16.4802325803508 -135.47800284398554,17.150105561398657 -137.30812986293827,18.980232580303905 -137.97800284405102,21.480232580304506 -137.30812986300316,23.98023258032249 -135.47800284409792,25.810359599275234 -132.97800284409732,26.48023258038797" stroke="#ffa500" stroke-linecap="round" stroke-linejoin="round"/><polyline fill="none" points="85.91500791415905,-145.959221310133 88.41500791417704,-146.62909429118085 90.24513493312978,-148.4592213100861 90.91500791424251,-150.9592213100867 90.24513493319465,-153.45922131010468 88.4150079142894,-155.28934832905742 85.91500791428881,-155.95922131017016 83.41500791427082,-155.2893483291223 81.58488089531807,-153.45922131021706 80.91500791420532,-150.95922131021646 81.58488089525318,-148.45922131019847 83.41500791415842,-146.62909429124574 85.91500791415902,-145.959221310133" stroke="#ffa500" stroke-linecap="round" stroke-linejoin="round"/><polyline fill="none" points="-158.60689202043872,68.3412603454209 -156.10689202042073,67.67138736437305 -154.276765001468,65.8412603454678 -153.60689202035525,63.341260345467205 -154.2767650014031,60.841260345449214 -156.10689202030835,59.01113332649646 -158.60689202030895,58.34126034538372 -161.10689202032694,59.011133326431576 -162.93701903927968,60.84126034533682 -163.60689202039242,63.34126034533742 -162.93701903934456,65.84126034535541 -161.10689202043932,67.67138736430816 -158.60689202043872,68.3412603454209" stroke="#00f" stroke-linecap="round" stroke-linejoin="round"/><polyline fill="none" points="138.55574710341796,-98.55452270689997 141.05574710343595,-99.22439568794782 142.88587412238869,-101.05452270685306 143.55574710350143,-103.55452270685366 142.88587412245357,-106.05452270687165 141.05574710354833,-107.8846497258244 138.55574710354773,-108.55452270693715 136.05574710352974,-107.8846497258893 134.22562008457697,-106.05452270698406 133.55574710346423,-103.55452270698346 134.2256200845121,-101.05452270696547 136.05574710341733,-99.22439568801272 138.55574710341793,-98.55452270689997" stroke="#00f" stroke-linecap="round" stroke-linejoin="round"/><polyline fill="none" points="188.2787087896294,-124.87666117763922 190.7787087896474,-125.54653415868707 192.60883580860016,-127.37666117759231 193.2787087897129,-129.87666117759292 192.60883580866505,-132.3766611776109 190.7787087897598,-134.20678819656368 188.2787087897592,-134.87666117767643 185.77870878974122,-134.20678819662857 183.94858177078845,-132.37666117772332 183.2787087896757,-129.87666117772272 183.94858177072356,-127.37666117770473 185.7787087896288,-125.54653415875198 188.2787087896294,-124.87666117763924" stroke="#00f" stroke-linecap="round" stroke-linejoin="round"/><polyline fill="none" points="79.90283342660533,97.40746811826124 82.40283342662332,96.73759513721339 84.23296044557607,94.90746811830815 84.90283342668882,92.40746811830755 84.23296044564097,89.90746811828956 82.40283342673573,88.0773410993368 79.90283342673513,87.40746811822406 77.40283342671714,88.0773410992719 75.57270640776439,89.90746811817715 74.90283342665164,92.40746811817775 75.57270640769948,94.90746811819574 77.40283342660473,96.73759513714849 79.90283342660533,97.40746811826124" stroke="#ffa500" stroke-linecap="round" stroke-linejoin="round"/><polyline fill="none" points="71.03487667773948,43.535126091936476 73.53487667775747,42.86525311088863 75.36500369671022,41.035126091983386 76.03487667782296,38.53512609198278 75.36500369677512,36.035126091964784 73.53487667786987,34.204999073012026 71.03487667786928,33.53512609189927 68.53487667785129,34.20499907294712 66.70474965889852,36.035126091852355 66.03487667778576,38.53512609185296 66.7047496588336,41.03512609187096 68.53487667773885,42.865253110823716 71.03487667773945,43.53512609193647" stroke="#ffa500" stroke-linecap="round" stroke-linejoin="round"/><polyline fill="none" points="-83.51450339946868,-90.4104620494811 -81.01450339945069,-91.08033503052894 -79.18437638049792,-92.91046204943419 -78.51450339938516,-95.41046204943478 -79.18437638043301,-97.91046204945278 -81.01450339933825,-99.74058906840554 -83.51450339933885,-100.4104620495183 -86.01450339935684,-99.74058906847046 -87.8446304183096,-97.91046204956521 -88.51450339942237,-95.41046204956461 -87.84463041837452,-92.91046204954662 -86.01450339946928,-91.08033503059386 -83.51450339946868,-90.4104620494811" stroke="#ffa500" stroke-linecap="round" stroke-linejoin="round"/><polyline fill="none" points="-150.23462756299423,39.39556213677417 -147.73462756297624,38.72568915572633 -145.90450054402348,36.89556213682109 -145.23462756291073,34.39556213682049 -145.90450054395856,31.89556213680249 -147.7346275628638,30.065435117849724 -150.2346275628644,29.395562136736963 -152.7346275628824,30.0654351177848 -154.56475458183516,31.89556213669004 -155.2346275629479,34.39556213669064 -154.56475458190008,36.89556213670864 -152.73462756299483,38.72568915566141 -150.23462756299423,39.39556213677417" stroke="#ffa500" stroke-linecap="round" stroke-linejoin="round"/><polyline fill="none" points="-270.2751616297189,25.634500072017467 -267.7751616297009,24.964627090969632 -265.9450346107481,23.134500072064395 -265.27516162963536,20.63450007206379 -265.9450346106832,18.134500072045793 -267.7751616295884,16.304373053093027 -270.27516162958904,15.634500071980264 -272.77516162960706,16.3043730530281 -274.60528864855985,18.13450007193334 -275.2751616296726,20.634500071933942 -274.60528864862476,23.13450007195194 -272.77516162971955,24.964627090904706 -270.2751616297189,25.63450007201747" stroke="#ffa500" stroke-linecap="round" stroke-linejoin="round"/><polyline fill="none" points="-46.10926402252076,-124.90638080232776 -43.609264022502764,-125.57625378337559 -41.77913700355,-127.40638080228082 -41.10926402243723,-129.90638080228143 -41.77913700348506,-132.40638080229942 -43.6092640223903,-134.2365078212522 -46.1092640223909,-134.90638080236496 -48.6092640224089,-134.23650782131713 -50.439391041361674,-132.4063808024119 -51.10926402247444,-129.9063808024113 -50.43939104142661,-127.40638080239329 -48.60926402252137,-125.57625378344052 -46.10926402252077,-124.90638080232776" stroke="#00f" stroke-linecap="round" stroke-linejoin="round"/><polyline fill="none" points="-324.5689278656146,-43.06630617109056 -322.0689278655966,-43.73617915213839 -320.2388008466438,-45.56630617104363 -319.56892786553107,-48.06630617104423 -320.2388008465789,-50.56630617106224 -322.0689278654841,-52.39643319001501 -324.56892786548474,-53.06630617112778 -327.06892786550276,-52.39643319007995 -328.89905488445555,-50.56630617117471 -329.5689278655683,-48.066306171174105 -328.89905488452047,-45.5663061711561 -327.06892786561525,-43.73617915220333 -324.5689278656146,-43.06630617109056" stroke="#ffa500" stroke-linecap="round" stroke-linejoin="round"/><polyline fill="none" points="-207.25792485766678,108.93953219253497 -204.7579248576488,108.26965921148714 -202.92779783869602,106.43953219258191 -202.25792485758325,103.93953219258131 -202.92779783863108,101.4395321925633 -204.75792485753632,99.60940517361053 -207.25792485753692,98.93953219249775 -209.7579248575549,99.60940517354558 -211.58805187650768,101.43953219245081 -212.25792485762045,103.93953219245141 -211.58805187657262,106.43953219246941 -209.75792485766738,108.2696592114222 -207.25792485766678,108.93953219253497" stroke="#ffa500" stroke-linecap="round" stroke-linejoin="round"/><polyline fill="none" points="148.3926070598488,178.231734624034 150.8926070598668,177.56186164298617 152.72273407881957,175.73173462408093 153.39260705993235,173.23173462408033 152.7227340788845,170.7317346240623 150.89260705997927,168.90160760510955 148.39260705997867,168.23173462399677 145.89260705996065,168.9016076050446 144.0624800410079,170.73173462394985 143.3926070598951,173.23173462395044 144.06248004094294,175.73173462396846 145.8926070598482,177.56186164292123 148.39260705984879,178.231734624034" stroke="#ffa500" stroke-linecap="round" stroke-linejoin="round"/><polyline fill="none" points="-257.76047794509907,-61.517461878344164 -255.26047794508105,-62.18733485939199 -253.43035092612828,-64.01746187829723 -252.7604779450155,-66.51746187829782 -253.43035092606334,-69.01746187831583 -255.26047794496859,-70.84758889726861 -257.7604779449692,-71.51746187838138 -260.2604779449872,-70.84758889733357 -262.09060496394,-69.01746187842834 -262.7604779450528,-66.51746187842774 -262.09060496400497,-64.01746187840973 -260.26047794509975,-62.18733485945695 -257.7604779450991,-61.51746187834418" stroke="#f00" stroke-linecap="round" stroke-linejoin="round"/><polyline fill="none" points="76.059153071792,-144.24067498311254 78.55915307181,-144.91054796416037 80.38928009076278,-146.74067498306562 81.05915307187556,-149.2406749830662 80.38928009082774,-151.74067498308423 78.55915307192251,-153.57080200203703 76.05915307192191,-154.2406749831498 73.5591530719039,-153.57080200210197 71.72902605295113,-151.74067498319675 71.05915307183835,-149.24067498319616 71.72902605288617,-146.74067498317814 73.5591530717914,-144.91054796422534 76.059153071792,-144.24067498311257" stroke="#ffa500" stroke-linecap="round" stroke-linejoin="round"/><polyline fill="none" points="166.3005537267995,-123.1392397812217 168.80055372681753,-123.80911276226952 170.63068074577032,-125.63923978117475 171.3005537268831,-128.13923978117535 170.63068074583526,-130.63923978119337 168.80055372693005,-132.46936680014616 166.30055372692945,-133.13923978125894 163.80055372691143,-132.4693668002111 161.97042670795864,-130.6392397813059 161.30055372684586,-128.1392397813053 161.9704267078937,-125.63923978128729 163.8005537267989,-123.80911276233451 166.3005537267995,-123.13923978122172" stroke="#ffa500" stroke-linecap="round" stroke-linejoin="round"/><polyline fill="none" points="208.46656760941232,-110.98408662334006 210.96656760943034,-111.65395960438788 212.79669462838314,-113.48408662329311 213.4665676094959,-115.9840866232937 212.7966946284481,-118.48408662331171 210.9665676095429,-120.31421364226449 208.4665676095423,-120.98408662337728 205.96656760952428,-120.31421364232946 204.13644059057148,-118.48408662342423 203.4665676094587,-115.98408662342364 204.1364405905065,-113.48408662340563 205.96656760941173,-111.65395960445284 208.46656760941232,-110.98408662334005" stroke="#ffa500" stroke-linecap="round" stroke-linejoin="round"/><polyline fill="none" points="-257.28929855022255,-14.702546668753868 -254.78929855020453,-15.372419649801683 -252.95917153125174,-17.20254666870691 -252.28929855013897,-19.702546668707512 -252.95917153118677,-22.202546668725525 -254.78929855009198,-24.032673687678315 -257.2892985500926,-24.702546668791104 -259.78929855011063,-24.03267368774329 -261.6194255690634,-22.202546668838067 -262.2892985501762,-19.702546668837464 -261.6194255691284,-17.20254666881945 -259.7892985502232,-15.37241964986666 -257.28929855022255,-14.702546668753872" stroke="#00f" stroke-linecap="round" stroke-linejoin="round"/><polyline fill="none" points="55.000421332819975,-168.66900012787988 57.50042133283799,-169.3388731089277 59.33054835179078,-171.1690001278329 60.00042133290357,-173.6690001278335 59.33054835185576,-176.16900012785152 57.50042133295054,-177.9991271468043 55.000421332949934,-178.66900012791712 52.50042133293192,-177.9991271468693 50.67029431397913,-176.1690001279641 50.00042133286634,-173.6690001279635 50.67029431391415,-171.16900012794548 52.50042133281937,-169.3388731089927 55.000421332819975,-168.66900012787988" stroke="#ffa500" stroke-linecap="round" stroke-linejoin="round"/><polyline fill="none" points="33.70725022129716,-81.78785199635026 36.20725022131517,-82.45772497739807 38.037377240267965,-84.28785199630329 38.70725022138076,-86.78785199630389 38.03737724033295,-89.2878519963219 36.20725022142773,-91.1179790152747 33.707250221427124,-91.78785199638749 31.207250221409108,-91.11797901533969 29.377123202456314,-89.28785199643447 28.70725022134352,-86.78785199643387 29.37712320239133,-84.28785199641585 31.207250221296555,-82.45772497746306 33.70725022129716,-81.78785199635027" stroke="#ffa500" stroke-linecap="round" stroke-linejoin="round"/><polyline fill="none" points="139.99268397327575,133.18473882234954 142.49268397329377,132.51486584130174 144.32281099224656,130.68473882239653 144.99268397335936,128.18473882239593 144.32281099231156,125.68473882237791 142.49268397340634,123.85461180342512 139.99268397340575,123.18473882231231 137.49268397338773,123.85461180336011 135.66255695443493,125.68473882226533 134.99268397332213,128.18473882226593 135.66255695436993,130.68473882228395 137.49268397327515,132.51486584123674 139.99268397327575,133.18473882234954" stroke="#ffa500" stroke-linecap="round" stroke-linejoin="round"/><polyline fill="none" points="65.73939942517599,229.9234112817247 68.23939942519401,229.2535383006769 70.0695264441468,227.42341128177168 70.7393994252596,224.92341128177108 70.0695264442118,222.42341128175306 68.23939942530659,220.59328426280027 65.73939942530598,219.92341128168746 63.23939942528796,220.59328426273527 61.409272406335155,222.42341128164048 60.73939942522235,224.92341128164108 61.409272406270155,227.4234112816591 63.23939942517538,229.2535383006119 65.73939942517599,229.9234112817247" stroke="#ffa500" stroke-linecap="round" stroke-linejoin="round"/><polyline fill="none" points="-211.68112940338915,-93.96383453015123 -209.18112940337113,-94.63370751119903 -207.35100238441834,-96.46383453010425 -206.68112940330553,-98.96383453010486 -207.35100238435334,-101.46383453012288 -209.18112940325855,-103.29396154907569 -211.68112940325915,-103.96383453018849 -214.18112940327717,-103.29396154914069 -216.01125642222996,-101.46383453023547 -216.68112940334277,-98.96383453023486 -216.01125642229496,-96.46383453021684 -214.18112940338975,-94.63370751126403 -211.68112940338915,-93.96383453015123" stroke="#00f" stroke-linecap="round" stroke-linejoin="round"/><polyline fill="none" points="-242.81460330045957,99.20610572994708 -240.31460330044155,98.53623274889928 -238.48447628148875,96.70610572999406 -237.81460330037595,94.20610572999345 -238.48447628142375,91.70610572997543 -240.31460330032897,89.87597871102263 -242.81460330032957,89.20610572990982 -245.31460330034758,89.87597871095763 -247.14473031930038,91.70610572986284 -247.81460330041318,94.20610572986345 -247.14473031936538,96.70610572988147 -245.31460330046016,98.53623274883428 -242.81460330045957,99.20610572994708" stroke="#00f" stroke-linecap="round" stroke-linejoin="round"/><polyline fill="none" points="148.71768615607775,147.87625956778405 151.21768615609577,147.20638658673624 153.04781317504856,145.37625956783103 153.71768615616136,142.87625956783043 153.04781317511356,140.3762595678124 151.21768615620834,138.54613254885962 148.71768615620775,137.8762595677468 146.21768615618973,138.54613254879462 144.38755913723693,140.37625956769983 143.71768615612413,142.87625956770043 144.38755913717193,145.37625956771845 146.21768615607715,147.20638658667127 148.71768615607775,147.87625956778407" stroke="#ffa500" stroke-linecap="round" stroke-linejoin="round"/><polyline fill="none" points="-265.72503432579924,12.655708113560674 -263.2250343257812,11.985835132512879 -261.39490730682843,10.155708113607664 -260.7250343257156,7.65570811360706 -261.3949073067634,5.155708113589036 -263.2250343256686,3.3255810946362265 -265.72503432566924,2.655708113523416 -268.22503432568726,3.3255810945712105 -270.05516134464006,5.155708113476425 -270.72503432575286,7.655708113477029 -270.0551613447051,10.155708113495056 -268.22503432579987,11.985835132447868 -265.72503432579924,12.65570811356068" stroke="#ffa500" stroke-linecap="round" stroke-linejoin="round"/><polyline fill="none" points="-172.22701916654785,-90.47128162568407 -169.72701916652983,-91.14115460673186 -167.896892147577,-92.97128162563708 -167.2270191664642,-95.47128162563769 -167.896892147512,-97.9712816256557 -169.72701916641722,-99.80140864460851 -172.22701916641782,-100.47128162572133 -174.72701916643584,-99.80140864467354 -176.55714618538866,-97.97128162576833 -177.22701916650146,-95.47128162576772 -176.55714618545366,-92.97128162574968 -174.72701916654844,-91.14115460679687 -172.22701916654785,-90.47128162568406" stroke="#00f" stroke-linecap="round" stroke-linejoin="round"/><polyline fill="none" points="165.19039245958115,-64.07820397815532 167.69039245959917,-64.7480769592031 169.520519478552,-66.57820397810832 170.1903924596648,-69.07820397810893 169.520519478617,-71.57820397812696 167.69039245971177,-73.40833099707977 165.19039245971118,-74.07820397819259 162.69039245969316,-73.4083309971448 160.86026544074033,-71.57820397823959 160.19039245962753,-69.07820397823897 160.86026544067533,-66.57820397822094 162.69039245958055,-64.74807695926813 165.19039245958115,-64.07820397815532" stroke="#ffa500" stroke-linecap="round" stroke-linejoin="round"/><polyline fill="none" points="14.958524845700788,30.238997726420717 17.458524845718816,29.56912474537293 19.288651864671632,27.738997726467716 19.95852484578445,25.23899772646711 19.28865186473666,22.73899772644908 17.458524845831448,20.908870707496266 14.958524845830844,20.23899772638345 12.458524845812814,20.908870707431237 10.628397826859997,22.73899772633645 9.958524845747178,25.238997726337054 10.628397826794965,27.738997726355084 12.458524845700175,29.569124745307903 14.95852484570078,30.238997726420724" stroke="#00f" stroke-linecap="round" stroke-linejoin="round"/><polyline fill="none" points="68.53678458013995,127.71106724586787 71.03678458015798,127.04119426482008 72.86691159911081,125.21106724591486 73.53678458022362,122.71106724591425 72.86691159917584,120.21106724589622 71.03678458027062,118.3809402269434 68.53678458027001,117.71106724583058 66.03678458025198,118.38094022687837 64.20665756129915,120.21106724578358 63.53678458018633,122.71106724578419 64.20665756123411,125.21106724580223 66.03678458013931,127.04119426475505 68.53678458013992,127.71106724586787" stroke="#ffa500" stroke-linecap="round" stroke-linejoin="round"/><polyline fill="none" points="-263.1516440042336,-123.92357147276391 -260.6516440042156,-124.5934444538117 -258.8215169852628,-126.4235714727169 -258.15164400415,-128.9235714727175 -258.8215169851978,-131.42357147273552 -260.651644004103,-133.25369849168834 -263.1516440041036,-133.92357147280117 -265.65164400412164,-133.2536984917534 -267.48177102307443,-131.42357147284818 -268.15164400418723,-128.92357147284758 -267.48177102313946,-126.42357147282955 -265.65164400423424,-124.59344445387673 -263.1516440042336,-123.9235714727639" stroke="#ffa500" stroke-linecap="round" stroke-linejoin="round"/><polyline fill="none" points="-103.36916792076542,-102.67659008411161 -100.86916792074739,-103.3464630651594 -99.03904090179456,-105.1765900840646 -98.36916792068173,-107.67659008406521 -99.03904090172952,-110.17659008408324 -100.86916792063472,-112.00671710303607 -103.36916792063533,-112.6765900841489 -105.86916792065337,-112.00671710310112 -107.69929493960619,-110.17659008419592 -108.36916792071902,-107.67659008419531 -107.69929493967125,-105.17659008417728 -105.86916792076605,-103.34646306522446 -103.36916792076543,-102.67659008411162" stroke="#ffa500" stroke-linecap="round" stroke-linejoin="round"/><polyline fill="none" points="-188.95492545635935,38.871628863737726 -186.4549254563413,38.201755882689945 -184.62479843738848,36.371628863784736 -183.95492545627565,33.87162886378413 -184.62479843732342,31.371628863766098 -186.45492545622864,29.541501844813272 -188.95492545622923,28.871628863700444 -191.45492545624728,29.541501844748222 -193.2850524752001,31.371628863653427 -193.95492545631294,33.87162886365403 -193.28505247526516,36.371628863672065 -191.45492545635994,38.201755882624894 -188.95492545635935,38.871628863737726" stroke="#ffa500" stroke-linecap="round" stroke-linejoin="round"/><polyline fill="none" points="42.673514020906715,107.89523618497257 45.17351402092475,107.2253632039248 47.00364103987758,105.3952361850196 47.67351402099041,102.89523618501899 47.003641039942636,100.39523618500095 45.173514021037434,98.56510916604813 42.67351402103683,97.8952361849353 40.173514021018796,98.56510916598307 38.34338700206597,100.39523618488828 37.673514020953135,102.89523618488889 38.34338700200091,105.39523618490692 40.17351402090611,107.22536320385974 42.673514020906715,107.89523618497257" stroke="#00f" stroke-linecap="round" stroke-linejoin="round"/><polyline fill="none" points="-2.516450812576974,202.05347711591162 -0.016450812558937322,201.38360413486384 1.8136762063938925,199.55347711595863 2.4835491875067266,197.05347711595803 1.8136762064589522,194.55347711593998 -0.016450812446250795,192.72335009698716 -2.5164508124468554,192.05347711587433 -5.0164508124648926,192.7233500969221 -6.846577831417724,194.55347711582732 -7.516450812530559,197.05347711582792 -6.846577831482786,199.55347711584596 -5.016450812577583,201.3836041347988 -2.516450812576978,202.05347711591162" stroke="#ffa500" stroke-linecap="round" stroke-linejoin="round"/><polyline fill="none" points="-136.4323404817611,-21.169947666370135 -133.93234048174304,-21.83982064741791 -132.10221346279022,-23.66994766632311 -131.4323404816774,-26.169947666323715 -132.10221346272516,-28.669947666341752 -133.93234048163038,-30.500074685294585 -136.43234048163097,-31.169947666407424 -138.93234048164902,-30.500074685359653 -140.76246750060184,-28.66994766645445 -141.43234048171468,-26.169947666453847 -140.7624675006669,-23.669947666435807 -138.9323404817617,-21.839820647482973 -136.43234048176112,-21.169947666370135" stroke="#00f" stroke-linecap="round" stroke-linejoin="round"/><polyline fill="none" points="-139.55774491242428,79.20334324117519 -137.05774491240624,78.53347026012742 -135.2276178934534,76.70334324122221 -134.55774491234058,74.2033432412216 -135.22761789338836,71.70334324120357 -137.05774491229354,69.87321622225073 -139.55774491229414,69.20334324113789 -142.0577449123122,69.87321622218566 -143.887871931265,71.70334324109086 -144.55774491237784,74.20334324109146 -143.88787193133007,76.7033432411095 -142.05774491242488,78.53347026006233 -139.55774491242428,79.20334324117518" stroke="#ffa500" stroke-linecap="round" stroke-linejoin="round"/><polyline fill="none" points="34.402434559854406,23.40750765279619 36.90243455987245,22.737634671748424 38.73256157882528,20.907507652843226 39.40243455993813,18.40750765284262 38.73256157889036,15.907507652824581 36.90243455998516,14.077380633871742 34.402434559984556,13.407507652758898 31.902434559966515,14.077380633806666 30.07230754101368,15.907507652711864 29.402434559900836,18.407507652712468 30.072307540948604,20.90750765273051 31.902434559853802,22.73763467168335 34.402434559854406,23.407507652796195" stroke="#ffa500" stroke-linecap="round" stroke-linejoin="round"/><polyline fill="none" points="-217.32574794391203,-82.94314503570703 -214.825747943894,-83.6130180167548 -212.99562092494114,-85.44314503566 -212.3257479438283,-87.94314503566059 -212.99562092487608,-90.44314503567864 -214.82574794378127,-92.27327205463148 -217.32574794378186,-92.94314503574432 -219.8257479437999,-92.27327205469656 -221.65587496275276,-90.44314503579136 -222.32574794386562,-87.94314503579075 -221.65587496281785,-85.4431450357727 -219.82574794391266,-83.61301801681986 -217.32574794391206,-82.94314503570702" stroke="#008000" stroke-linecap="round" stroke-linejoin="round"/><polyline fill="none" points="-215.20838000717848,-85.54664380576413 -212.70838000716043,-86.2165167868119 -210.87825298820758,-88.0466438057171 -210.20838000709472,-90.54664380571771 -210.8782529881425,-93.04664380573575 -212.70838000704768,-94.87677082468859 -215.20838000704828,-95.54664380580144 -217.70838000706632,-94.87677082475368 -219.53850702601918,-93.04664380584848 -220.20838000713204,-90.54664380584786 -219.53850702608426,-88.04664380582982 -217.70838000717907,-86.21651678687697 -215.20838000717848,-85.54664380576412" stroke="#00f" stroke-linecap="round" stroke-linejoin="round"/><polyline fill="none" points="39.41190255404233,230.61946478256368 41.911902554060376,229.94959180151594 43.74202957301322,228.11946478261075 44.41190255412607,225.61946478261015 43.74202957307831,223.1194647825921 41.91190255417312,221.28933776363925 39.411902554172514,220.6194647825264 36.911902554154466,221.28933776357414 35.08177553520162,223.11946478247933 34.41190255408877,225.61946478247992 35.08177553513653,228.11946478249797 36.911902554041724,229.94959180145082 39.41190255404233,230.61946478256368" stroke="#00f" stroke-linecap="round" stroke-linejoin="round"/><polyline fill="none" points="-224.34672396246992,-10.762566201217663 -221.84672396245188,-11.432439182265421 -220.01659694349902,-13.262566201170614 -219.34672396238616,-15.762566201171218 -220.0165969434339,-18.262566201189266 -221.8467239623391,-20.092693220142113 -224.3467239623397,-20.762566201254966 -226.84672396235774,-20.09269322020721 -228.6768509813106,-18.26256620130202 -229.34672396242345,-15.762566201301414 -228.6768509813757,-13.262566201283366 -226.84672396247052,-11.432439182330517 -224.34672396246992,-10.76256620121766" stroke="#00f" stroke-linecap="round" stroke-linejoin="round"/><polyline fill="none" points="138.8706182867785,170.79078859700914 141.37061828679654,170.1209156159614 143.2007453057494,168.2907885970562 143.87061828686225,165.7907885970556 143.2007453058145,163.29078859703756 141.37061828690932,161.4606615780847 138.87061828690872,160.79078859697185 136.37061828689068,161.4606615780196 134.54049126793782,163.29078859692478 133.87061828682496,165.79078859692538 134.5404912678727,168.29078859694343 136.3706182867779,170.12091561589628 138.8706182867785,170.79078859700914" stroke="#ffa500" stroke-linecap="round" stroke-linejoin="round"/><polyline fill="none" points="-159.14985979359525,-36.83914156254871 -156.6498597935772,-37.509014543596464 -154.81973277462436,-39.33914156250165 -154.1498597935115,-41.839141562502256 -154.81973277455924,-44.339141562520304 -156.64985979346443,-46.169268581473155 -159.14985979346503,-46.839141562586015 -161.64985979348307,-46.16926858153826 -163.47998681243593,-44.339141562633074 -164.14985979354879,-41.83914156263247 -163.47998681250104,-39.33914156261442 -161.64985979359585,-37.50901454366157 -159.14985979359525,-36.83914156254871" stroke="#ffa500" stroke-linecap="round" stroke-linejoin="round"/><polyline fill="none" points="123.80243943049899,-81.22546399841917 126.30243943051704,-81.89533697946692 128.1325664494699,-83.7254639983721 128.80243943058275,-86.22546399837272 128.132566449535,-88.72546399839077 126.30243943062982,-90.55559101734362 123.80243943062922,-91.22546399845648 121.30243943061117,-90.55559101740873 119.47231241165832,-88.72546399850354 118.80243943054546,-86.22546399850293 119.47231241159321,-83.72546399848488 121.3024394304984,-81.89533697953203 123.802439430499,-81.22546399841917" stroke="#ffa500" stroke-linecap="round" stroke-linejoin="round"/><polyline fill="none" points="-186.7176163745042,113.27149218759844 -184.21761637448614,112.6016192065507 -182.3874893555333,110.7714921876455 -181.71761637442043,108.2714921876449 -182.38748935546818,105.77149218762685 -184.21761637437336,103.941365168674 -186.71761637437396,103.27149218756114 -189.217616374392,103.94136516860888 -191.04774339334486,105.77149218751407 -191.71761637445772,108.27149218751468 -191.04774339340997,110.77149218753273 -189.2176163745048,112.6016192064856 -186.7176163745042,113.27149218759847" stroke="#ffa500" stroke-linecap="round" stroke-linejoin="round"/><polyline fill="none" points="61.28006094388514,-64.989423129684 63.780060943903194,-65.65929611073174 65.61018796285606,-67.48942312963693 66.28006094396893,-69.98942312963754 65.61018796292119,-72.48942312965559 63.780060944016,-74.31955014860846 61.280060944015396,-74.98942312972133 58.78006094399734,-74.31955014867358 56.94993392504448,-72.4894231297684 56.280060943931616,-69.98942312976779 56.94993392497936,-67.48942312974972 58.78006094388455,-65.65929611079686 61.280060943885154,-64.98942312968398" stroke="#ffa500" stroke-linecap="round" stroke-linejoin="round"/><polyline fill="none" points="-263.21693997503047,-63.61988497299973 -260.7169399750124,-64.28975795404747 -258.88681295605954,-66.11988497295266 -258.2169399749467,-68.61988497295327 -258.8868129559944,-71.11988497297133 -260.71693997489956,-72.9500119919242 -263.2169399749002,-73.61988497303707 -265.71693997491826,-72.95001199198933 -267.5470669938711,-71.11988497308414 -268.216939974984,-68.61988497308354 -267.54706699393626,-66.11988497306548 -265.7169399750311,-64.28975795411262 -263.21693997503047,-63.61988497299974" stroke="#008000" stroke-linecap="round" stroke-linejoin="round"/><polyline fill="none" points="-163.2112698918432,71.06916525723632 -160.71126989182514,70.39929227618858 -158.8811428728723,68.56916525728339 -158.21126989175943,66.06916525728278 -158.88114287280717,63.56916525726472 -160.71126989171236,61.739038238311856 -163.21126989171296,61.06916525719898 -165.711269891731,61.73903823824672 -167.5413969106839,63.5691652571519 -168.21126989179677,66.0691652571525 -167.54139691074903,68.56916525717057 -165.71126989184384,70.39929227612343 -163.21126989184324,71.0691652572363" stroke="#00f" stroke-linecap="round" stroke-linejoin="round"/><polyline fill="none" points="-122.13288030096508,-13.159198861519624 -119.63288030094702,-13.829071842567362 -117.80275328199416,-15.659198861472545 -117.13288030088128,-18.15919886147315 -117.80275328192901,-20.65919886149121 -119.6328803008342,-22.489325880444078 -122.13288030083481,-23.159198861556956 -124.63288030085288,-22.48932588050922 -126.46300731980574,-20.65919886160404 -127.13288030091861,-18.159198861603436 -126.46300731987088,-15.659198861585377 -124.6328803009657,-13.829071842632509 -122.13288030096508,-13.15919886151963" stroke="#ffa500" stroke-linecap="round" stroke-linejoin="round"/><polyline fill="none" points="105.75140341960775,151.71973784937222 108.25140341962582,151.04986486832448 110.08153043857868,149.2197378494193 110.75140341969156,146.7197378494187 110.08153043864382,144.21973784940064 108.25140341973865,142.38961083044777 105.75140341973804,141.71973784933488 103.25140341971998,142.38961083038262 101.42127640076711,144.2197378492878 100.75140341965424,146.7197378492884 101.42127640070197,149.21973784930645 103.25140341960714,151.04986486825933 105.75140341960775,151.71973784937222" stroke="#00f" stroke-linecap="round" stroke-linejoin="round"/><polyline fill="none" points="-347.5556169008578,-61.042763901724555 -345.0556169008397,-61.71263688277229 -343.22548988188686,-63.54276390167747 -342.555616900774,-66.04276390167807 -343.2254898818217,-68.54276390169613 -345.0556169007269,-70.372890920649 -347.5556169007275,-71.04276390176189 -350.0556169007456,-70.37289092071416 -351.8857439196984,-68.54276390180898 -352.5556169008113,-66.04276390180837 -351.88574391976357,-63.54276390179031 -350.0556169008584,-61.71263688283744 -347.5556169008578,-61.042763901724555" stroke="#ffa500" stroke-linecap="round" stroke-linejoin="round"/><polyline fill="none" points="-198.39565146499078,109.9794088804429 -195.89565146497273,109.30953589939517 -194.06552444601985,107.47940888049 -193.39565146490696,104.97940888048939 -194.06552444595468,102.47940888047133 -195.89565146485987,100.64928186151845 -198.39565146486046,99.97940888040556 -200.89565146487854,100.64928186145329 -202.72577848383142,102.47940888035846 -203.3956514649443,104.97940888035907 -202.7257784838966,107.47940888037714 -200.8956514649914,109.30953589933002 -198.3956514649908,109.9794088804429" stroke="#ffa500" stroke-linecap="round" stroke-linejoin="round"/><polyline fill="none" points="-271.4654200171547,117.72508832560963 -268.96542001713664,117.0552153445619 -267.1352929981838,115.22508832565673 -266.4654200170709,112.72508832565612 -267.13529299811864,110.22508832563805 -268.9654200170238,108.39496130668518 -271.4654200170244,107.72508832557229 -273.9654200170425,108.39496130662002 -275.79554703599536,110.22508832552519 -276.4654200171082,112.7250883255258 -275.7955470360605,115.22508832554387 -273.96542001715534,117.05521534449674 -271.4654200171547,117.72508832560963" stroke="#ffa500" stroke-linecap="round" stroke-linejoin="round"/><polyline fill="none" points="-215.98167877069213,-78.64756817978511 -213.48167877067405,-79.31744116083284 -211.65155175172117,-81.14756817973802 -210.98167877060828,-83.64756817973861 -211.651551751656,-86.14756817975668 -213.4816787705612,-87.97769519870955 -215.98167877056179,-88.64756817982244 -218.48167877057986,-87.97769519877471 -220.31180578953274,-86.14756817986954 -220.98167877064563,-83.64756817986893 -220.3118057895979,-81.14756817985086 -218.48167877069272,-79.31744116089799 -215.98167877069213,-78.6475681797851" stroke="#008000" stroke-linecap="round" stroke-linejoin="round"/><polyline fill="none" points="-317.36522661591164,-83.22526857830348 -314.86522661589356,-83.8951415593512 -313.03509959694065,-85.72526857825638 -312.36522661582774,-88.22526857825699 -313.03509959687545,-90.72526857827505 -314.8652266157806,-92.55539559722793 -317.36522661578124,-93.22526857834082 -319.8652266157993,-92.5553955972931 -321.6953536347522,-90.72526857838793 -322.36522661586514,-88.22526857838731 -321.6953536348174,-85.72526857836925 -319.86522661591226,-83.89514155941637 -317.36522661591164,-83.22526857830348" stroke="#ffa500" stroke-linecap="round" stroke-linejoin="round"/><polyline fill="none" points="-234.49154960956523,-80.90497592901683 -231.99154960954715,-81.57484891006455 -230.16142259059427,-83.40497592896972 -229.49154960948138,-85.90497592897033 -230.1614225905291,-88.40497592898839 -231.99154960943426,-90.23510294794127 -234.49154960943486,-90.90497592905417 -236.99154960945293,-90.23510294800646 -238.8216766284058,-88.40497592910128 -239.4915496095187,-85.90497592910067 -238.82167662847098,-83.40497592908261 -236.99154960956582,-81.57484891012973 -234.49154960956523,-80.90497592901683" stroke="#00f" stroke-linecap="round" stroke-linejoin="round"/><polyline fill="none" points="42.03471912192789,-135.01312584532596 44.53471912194596,-135.68299882637368 46.36484614089885,-137.51312584527884 47.03471912201175,-140.01312584527943 46.36484614096403,-142.5131258452975 44.53471912205886,-144.3432528642504 42.034719122058256,-145.01312584536328 39.53471912204019,-144.34325286431556 37.7045921030873,-142.5131258454104 37.0347191219744,-140.0131258454098 37.704592103022115,-137.51312584539173 39.53471912192728,-135.68299882643885 42.034719121927886,-135.01312584532596" stroke="#00f" stroke-linecap="round" stroke-linejoin="round"/><polyline fill="none" points="-308.43265960126917,-43.341490531704274 -305.9326596012511,-44.01136351275199 -304.1025325822982,-45.84149053165716 -303.43265960118526,-48.34149053165776 -304.102532582233,-50.84149053167583 -305.93265960113814,-52.67161755062872 -308.43265960113877,-53.34149053174162 -310.93265960115684,-52.6716175506939 -312.76278662010975,-50.841490531788736 -313.43265960122267,-48.34149053178813 -312.76278662017495,-45.84149053177006 -310.9326596012698,-44.01136351281717 -308.43265960126917,-43.34149053170427" stroke="#00f" stroke-linecap="round" stroke-linejoin="round"/><polyline fill="none" points="56.93816889192729,105.48097729805642 59.43816889194537,104.8111043170087 61.26829591089826,102.98097729810353 61.93816889201116,100.48097729810291 61.26829591096345,97.98097729808484 59.438168892058286,96.15085027913194 56.93816889205768,95.48097729801904 54.438168892039606,96.15085027906676 52.60804187308671,97.98097729797193 51.9381688919738,100.48097729797254 52.60804187302151,102.98097729799062 54.43816889192668,104.81110431694351 56.93816889192728,105.48097729805642" stroke="#ffa500" stroke-linecap="round" stroke-linejoin="round"/><polyline fill="none" points="-239.0171633793872,12.603642569980725 -236.51716337936912,11.933769588933012 -234.68703636041624,10.103642570027846 -234.01716337930333,7.603642570027241 -234.68703636035104,5.103642570009168 -236.5171633792562,3.2735155510562737 -239.0171633792568,2.6036425699433656 -241.51716337927488,3.2735155509910756 -243.34729039822778,5.103642569896241 -244.0171633793407,7.603642569896845 -243.34729039829298,10.10364256991492 -241.51716337938782,11.933769588867815 -239.01716337938723,12.603642569980725" stroke="#008000" stroke-linecap="round" stroke-linejoin="round"/><polyline fill="none" points="47.46499050684208,43.73652365336841 49.964990506860154,43.0666506723207 51.79511752581305,41.23652365341553 52.46499050692596,38.73652365341493 51.79511752587825,36.23652365339685 49.96499050697308,34.40639663444396 47.46499050697248,33.73652365333105 44.9649905069544,34.40639663437876 43.1348634880015,36.236523653283925 42.46499050688859,38.73652365328453 43.1348634879363,41.236523653302605 44.96499050684147,43.066650672255506 47.46499050684207,43.736523653368415" stroke="#ffa500" stroke-linecap="round" stroke-linejoin="round"/><polyline fill="none" points="58.177299335847096,-201.5551380668322 60.67729933586517,-202.22501104787992 62.50742635481807,-204.05513806678508 63.17729933593098,-206.55513806678567 62.50742635488328,-209.05513806680375 60.67729933597811,-210.88526508575666 58.17729933597751,-211.55513806686957 55.67729933595943,-210.88526508582186 53.84717231700653,-209.0551380669167 53.177299335893615,-206.5551380669161 53.84717231694132,-204.05513806689802 55.677299335846484,-202.22501104794512 58.17729933584709,-201.5551380668322" stroke="#ffa500" stroke-linecap="round" stroke-linejoin="round"/><polyline fill="none" points="10.141253269836602,230.9532204169499 12.64125326985468,230.2833474359022 14.47138028880758,228.45322041699703 15.141253269920496,225.95322041699643 14.471380288872792,223.45322041697835 12.64125326996763,221.62309339802545 10.141253269967024,220.95322041691253 7.641253269948946,221.62309339796022 5.811126250996044,223.45322041686538 5.141253269883127,225.95322041686597 5.81112625093083,228.45322041688405 7.641253269835991,230.28334743583696 10.141253269836596,230.95322041694988" stroke="#ffa500" stroke-linecap="round" stroke-linejoin="round"/><polyline fill="none" points="208.22336768705958,-137.8759396628627 210.72336768707765,-138.54581264391038 212.55349470603056,-140.37593966281554 213.22336768714348,-142.87593966281614 212.5534947060958,-145.3759396628342 210.72336768719063,-147.20606668178712 208.22336768719003,-147.87593966290004 205.72336768717196,-147.20606668185235 203.89324066821905,-145.3759396629472 203.22336768710613,-142.8759396629466 203.89324066815382,-140.37593966292852 205.72336768705898,-138.5458126439756 208.22336768705958,-137.8759396628627" stroke="#ffa500" stroke-linecap="round" stroke-linejoin="round"/><polyline fill="none" points="47.212618844082165,-126.13066311112973 49.71261884410025,-126.80053609217744 51.542745863053156,-128.6306631110826 52.21261884416608,-131.1306631110832 51.542745863118384,-133.63066311110128 49.712618844213225,-135.4607901300542 47.21261884421262,-136.1306631111671 44.71261884419454,-135.46079013011942 42.88249182524163,-133.63066311121426 42.212618844128706,-131.13066311121366 42.8824918251764,-128.6306631111956 44.71261884408156,-126.80053609224268 47.212618844082165,-126.13066311112976" stroke="#ffa500" stroke-linecap="round" stroke-linejoin="round"/><polyline fill="none" points="37.979266232780084,-100.57838049641153 40.47926623279817,-101.24825347745923 42.309393251751075,-103.07838049636439 42.979266232864,-105.578380496365 42.3093932518163,-108.07838049638308 40.479266232911144,-109.90850751533598 37.97926623291054,-110.57838049644891 35.479266232892456,-109.90850751540123 33.64913921393955,-108.07838049649607 32.979266232826625,-105.57838049649546 33.64913921387432,-103.07838049647738 35.47926623277948,-101.24825347752447 37.979266232780084,-100.57838049641154" stroke="#00f" stroke-linecap="round" stroke-linejoin="round"/><polyline fill="none" points="174.8620023310017,-121.03557501819384 177.36200233101977,-121.70544799924153 179.19212934997267,-123.53557501814669 179.8620023310856,-126.03557501814728 179.1921293500379,-128.53557501816536 177.36200233113274,-130.36570203711827 174.86200233113215,-131.03557501823119 172.36200233111407,-130.3657020371835 170.53187531216116,-128.53557501827834 169.86200233104825,-126.03557501827773 170.53187531209593,-123.53557501825964 172.3620023310011,-121.70544799930673 174.8620023310017,-121.0355750181938" stroke="#00f" stroke-linecap="round" stroke-linejoin="round"/><polyline fill="none" points="-333.9936044958558,-51.40463305799128 -331.4936044958377,-52.07450603903898 -329.6634774768848,-53.90463305794414 -328.9936044957719,-56.40463305794474 -329.6634774768196,-58.904633057962826 -331.49360449572475,-60.73476007691574 -333.9936044957254,-61.40463305802867 -336.49360449574345,-60.73476007698098 -338.32373151469636,-58.90463305807583 -338.9936044958093,-56.40463305807523 -338.32373151476156,-53.904633058057144 -336.4936044958564,-52.07450603910423 -333.9936044958558,-51.4046330579913" stroke="#00f" stroke-linecap="round" stroke-linejoin="round"/><polyline fill="none" points="110.98531808877466,-117.37447630608712 113.48531808879275,-118.0443492871348 115.31544510774566,-119.87447630603997 115.98531808885859,-122.37447630604058 115.3154451078109,-124.87447630605867 113.48531808890574,-126.70460332501159 110.98531808890513,-127.37447630612452 108.48531808888704,-126.70460332507683 106.65519106993412,-124.87447630617167 105.98531808882119,-122.37447630617106 106.65519106986888,-119.87447630615297 108.48531808877404,-118.04434928720005 110.98531808877465,-117.37447630608712" stroke="#00f" stroke-linecap="round" stroke-linejoin="round"/><polyline fill="none" points="-254.54952516125385,-110.650923317843 -252.04952516123578,-111.32079629889068 -250.21939814228287,-113.15092331779584 -249.54952516116992,-115.65092331779645 -250.2193981422176,-118.15092331781455 -252.04952516112277,-119.98105033676747 -254.54952516112337,-120.6509233178804 -257.04952516114145,-119.98105033683271 -258.87965218009435,-118.15092331792755 -259.54952516120727,-115.65092331792694 -258.8796521801596,-113.15092331790885 -257.04952516125445,-111.32079629895593 -254.54952516125385,-110.650923317843" stroke="#ffa500" stroke-linecap="round" stroke-linejoin="round"/><polyline fill="none" points="-259.92165452115563,128.9517857360868 -257.42165452113755,128.28191275503912 -255.59152750218465,126.45178573613396 -254.9216545210717,123.95178573613335 -255.5915275021194,121.45178573611526 -257.42165452102455,119.62165871716233 -259.9216545210252,118.9517857360494 -262.42165452104325,119.62165871709709 -264.25178153999616,121.45178573600224 -264.9216545211091,123.95178573600285 -264.2517815400614,126.45178573602094 -262.42165452115626,128.28191275497386 -259.92165452115563,128.9517857360868" stroke="#ffa500" stroke-linecap="round" stroke-linejoin="round"/><polyline fill="none" points="-197.48973173785956,19.263372365000897 -194.98973173784145,18.593499383953215 -193.15960471888854,16.763372365048063 -192.4897317377756,14.263372365047458 -193.1596047188233,11.763372365029367 -194.98973173772845,9.933245346076445 -197.48973173772904,9.263372364963505 -199.98973173774715,9.933245346011187 -201.81985875670009,11.763372364916338 -202.48973173781303,14.263372364916943 -201.81985875676534,16.763372364935034 -199.98973173786018,18.593499383887956 -197.4897317378596,19.263372365000897" stroke="#00f" stroke-linecap="round" stroke-linejoin="round"/><polyline fill="none" points="-256.81295627337283,-50.11551192882116 -254.31295627335473,-50.78538490986884 -252.4828292544018,-52.61551192877399 -251.81295627328885,-55.115511928774595 -252.48282925433654,-57.615511928792685 -254.3129562732417,-59.44563894774561 -256.8129562732423,-60.11551192885855 -259.3129562732604,-59.44563894781087 -261.1430832922133,-57.61551192890572 -261.8129562733262,-55.115511928905114 -261.14308329227856,-52.615511928887024 -259.3129562733734,-50.7853849099341 -256.8129562733728,-50.11551192882116" stroke="#008000" stroke-linecap="round" stroke-linejoin="round"/><polyline fill="none" points="141.99380876038512,-76.91387629891524 144.49380876040323,-77.58374927996292 146.32393577935616,-79.41387629886806 146.9938087604691,-81.91387629886867 146.32393577942142,-84.41387629888676 144.49380876051626,-86.24400331783968 141.99380876051566,-86.91387629895263 139.49380876049756,-86.24400331790495 137.66368174154462,-84.41387629899981 136.99380876043168,-81.91387629899921 137.66368174147937,-79.41387629898112 139.49380876038452,-77.5837492800282 141.99380876038512,-76.91387629891526" stroke="#ffa500" stroke-linecap="round" stroke-linejoin="round"/><polyline fill="none" points="73.89778469362302,-181.9963569484426 76.39778469364111,-182.6662299294903 78.22791171259404,-184.49635694839546 78.89778469370698,-186.99635694839606 78.2279117126593,-189.49635694841416 76.39778469375416,-191.3264839673671 73.89778469375355,-191.99635694848004 71.39778469373546,-191.32648396743235 69.56765767478252,-189.4963569485272 68.89778469366958,-186.9963569485266 69.56765767471725,-184.4963569485085 71.3977846936224,-182.66622992955556 73.89778469362301,-181.9963569484426" stroke="#ffa500" stroke-linecap="round" stroke-linejoin="round"/><polyline fill="none" points="-270.49673433796437,-79.63414500037426 -267.9967343379463,-80.30401798142194 -266.1666073189934,-82.13414500032708 -265.4967343378804,-84.63414500032769 -266.1666073189281,-87.13414500034578 -267.99673433783323,-88.96427201929872 -270.49673433783386,-89.63414500041166 -272.99673433785193,-88.96427201936399 -274.82686135680484,-87.13414500045884 -275.4967343379178,-84.63414500045823 -274.82686135687015,-82.13414500044014 -272.996734337965,-80.3040179814872 -270.49673433796437,-79.63414500037425" stroke="#00f" stroke-linecap="round" stroke-linejoin="round"/><polyline fill="none" points="81.64817790547305,-129.39332403330204 84.14817790549114,-130.0631970143497 85.97830492444407,-131.89332403325483 86.64817790555703,-134.39332403325542 85.97830492450936,-136.89332403327353 84.14817790560421,-138.72345105222647 81.6481779056036,-139.3933240333394 79.1481779055855,-138.72345105229175 77.31805088663256,-136.89332403338662 76.6481779055196,-134.39332403338602 77.31805088656728,-131.89332403336792 79.14817790547242,-130.06319701441498 81.64817790547303,-129.39332403330204" stroke="#00f" stroke-linecap="round" stroke-linejoin="round"/><polyline fill="none" points="67.10430570398646,-87.22287659621045 69.60430570400456,-87.89274957725813 71.4344327229575,-89.72287659616327 72.10430570407046,-92.22287659616389 71.43443272302278,-94.72287659618199 69.60430570411764,-96.55300361513493 67.10430570411702,-97.22287659624789 64.60430570409892,-96.55300361520021 62.77417868514598,-94.72287659629507 62.104305704033024,-92.22287659629445 62.77417868508069,-89.72287659627635 64.60430570398583,-87.89274957732341 67.10430570398644,-87.22287659621045" stroke="#ffa500" stroke-linecap="round" stroke-linejoin="round"/><polyline fill="none" points="-241.2801602207524,112.52049276997087 -238.7801602207343,111.85061978892321 -236.95003320178137,110.02049277001807 -236.28016022066842,107.52049277001746 -236.95003320171608,105.02049276999935 -238.7801602206212,103.19036575104641 -241.2801602206218,102.52049276993345 -243.7801602206399,103.19036575098112 -245.61028723959285,105.02049276988626 -246.28016022070582,107.52049276988687 -245.61028723965816,110.02049276990498 -243.78016022075303,111.85061978885791 -241.28016022075244,112.52049276997087" stroke="#ffa500" stroke-linecap="round" stroke-linejoin="round"/><polyline fill="none" points="-274.05826287799783,-53.76823557414025 -271.55826287797976,-54.43810855518792 -269.7281358590268,-56.268235574093055 -269.0582628779138,-58.76823557409366 -269.7281358589615,-61.268235574111756 -271.55826287786664,-63.0983625930647 -274.05826287786726,-63.76823557417766 -276.55826287788534,-63.09836259313 -278.3883898968383,-61.26823557422486 -279.0582628779513,-58.768235574224256 -278.3883898969036,-56.26823557420615 -276.55826287799846,-54.43810855525321 -274.05826287799783,-53.76823557414024" stroke="#008000" stroke-linecap="round" stroke-linejoin="round"/><polyline fill="none" points="-166.92332448968764,-13.45410826702275 -164.42332448966954,-14.123981248070413 -162.5931974707166,-15.95410826697555 -161.92332448960363,-18.454108266976156 -162.5931974706513,-20.954108266994258 -164.42332448955642,-22.7842352859472 -166.92332448955702,-23.454108267060164 -169.42332448957512,-22.784235286012503 -171.25345150852806,-20.954108267107365 -171.92332448964103,-18.45410826710676 -171.25345150859337,-15.954108267088658 -169.42332448968824,-14.123981248135713 -166.92332448968764,-13.454108267022747" stroke="#ffa500" stroke-linecap="round" stroke-linejoin="round"/><polyline fill="none" points="-196.63913422958697,-66.41272910008966 -194.13913422956887,-67.08260208113732 -192.30900721061593,-68.91272910004245 -191.63913422950296,-71.41272910004307 -192.30900721055062,-73.91272910006117 -194.13913422945575,-75.74285611901412 -196.63913422945635,-76.4127291001271 -199.13913422947445,-75.74285611907943 -200.9692612484274,-73.9127291001743 -201.63913422954036,-71.41272910017369 -200.9692612484927,-68.91272910015559 -199.13913422958757,-67.08260208120264 -196.63913422958697,-66.41272910008966" stroke="#ffa500" stroke-linecap="round" stroke-linejoin="round"/><polyline fill="none" points="-228.99606694329597,-79.97347351136884 -226.49606694327787,-80.6433464924165 -224.66593992432493,-82.47347351132163 -223.99606694321196,-84.97347351132224 -224.66593992425962,-87.47347351134034 -226.49606694316475,-89.3036005302933 -228.99606694316535,-89.97347351140627 -231.49606694318345,-89.30360053035861 -233.3261939621364,-87.47347351145348 -233.99606694324936,-84.97347351145287 -233.3261939622017,-82.47347351143476 -231.49606694329657,-80.64334649248181 -228.99606694329597,-79.97347351136884" stroke="#00f" stroke-linecap="round" stroke-linejoin="round"/><polyline fill="none" points="34.83521009912293,211.5333511010497 37.33521009914104,210.86347812000204 39.16533711809399,209.0333511010969 39.83521009920696,206.53335110109632 39.16533711815931,204.0333511010782 37.33521009925417,202.20322408212525 34.835210099253565,201.53335110101227 32.33521009923546,202.20322408205993 30.50508308028251,204.03335110096506 29.835210099169537,206.53335110096566 30.50508308021719,209.03335110098377 32.33521009912232,210.86347811993673 34.835210099122925,211.5333511010497" stroke="#ffa500" stroke-linecap="round" stroke-linejoin="round"/><polyline fill="none" points="-215.74817603846486,18.716762873694616 -213.24817603844676,18.046889892646963 -211.4180490194938,16.21676287374183 -210.74817603838082,13.716762873741223 -211.41804901942848,11.216762873723114 -213.2481760383336,9.386635854770162 -215.7481760383342,8.716762873657187 -218.2481760383523,9.386635854704839 -220.07830305730528,11.216762873609971 -220.74817603841825,13.716762873610577 -220.0783030573706,16.216762873628685 -218.24817603846546,18.04688989258164 -215.74817603846486,18.716762873694616" stroke="#ffa500" stroke-linecap="round" stroke-linejoin="round"/></svg>