<?xml version="1.0" ?><!DOCTYPE svg  PUBLIC '-//W3C//DTD SVG 1.1//EN'  'http://www.w3.org/Graphics/SVG/1.1/DTD/svg11.dtd'><svg height="479.000" viewBox="-365.000 -222.000 590.000 479.000" width="590.000" xmlns="http://www.w3.org/2000/svg"><line fill="none" stroke="none" stroke-linecap="round" stroke-width="2.0" x1="0.0" x2="0.0" y1="0.0" y2="0.0"/><polygon fill="none" fill-rule="evenodd" points="0.0,0.0 0.0,0.0 0.0,0.0" stroke-linejoin="round"/><polyline fill="none" points="22.30812414003569,111.75811397120653 24.8081241400538,111.08824099015888 26.638251159006753,109.25811397125375 27.30812414011973,106.75811397125314 26.63825115907208,104.25811397123503 24.80812414016695,102.42798695228208 22.308124140166345,101.75811397116911 19.808124140148237,102.42798695221676 17.977997121195283,104.25811397112189 17.308124140082306,106.7581139711225 17.977997121129956,109.2581139711406 19.808124140035087,111.08824099009355 22.30812414003569,111.75811397120653" stroke="#ffa500" stroke-linecap="round" stroke-linejoin="round"/><polyline fill="none" points="-2.105825919591604,53.137595814180926 0.3941740804265059,52.46772283313328 2.2243010993794625,50.63759581422815 2.8941740804924425,48.137595814227545 2.2243010994447947,45.63759581420943 0.39417408053966474,43.807468795256476 -2.10582591946094,43.137595814143495 -4.6058259194790505,43.80746879519114 -6.435952938432008,45.63759581409627 -7.10582591954499,48.137595814096876 -6.435952938497343,50.63759581411499 -4.605825919592214,52.467722833067945 -2.1058259195916103,53.137595814180926" stroke="#ffa500" stroke-linecap="round" stroke-linejoin="round"/><polyline fill="none" points="145.0458952473683,-113.61676707778493 147.5458952473864,-114.28664005883257 149.37602226633936,-116.1167670777377 150.04589524745234,-118.6167670777383 149.3760222664047,-121.1167670777564 147.54589524749957,-122.94689409670937 145.04589524749898,-123.61676707782236 142.54589524748087,-122.94689409677471 140.7157682285279,-121.11676707786958 140.04589524741493,-118.61676707786897 140.71576822846257,-116.11676707785085 142.5458952473677,-114.28664005889789 145.0458952473683,-113.6167670777849" stroke="#ffa500" stroke-linecap="round" stroke-linejoin="round"/><polyline fill="none" points="-175.7654206311943,-104.22416958197414 -173.2654206311762,-104.89404256302178 -171.43529361222323,-106.72416958192692 -170.76542063111026,-109.22416958192753 -171.4352936121579,-111.72416958194565 -173.26542063106302,-113.55429660089861 -175.76542063106362,-114.2241695820116 -178.26542063108172,-113.55429660096395 -180.0955476500347,-111.72416958205882 -180.76542063114766,-109.22416958205821 -180.09554765010003,-106.72416958204009 -178.2654206311949,-104.89404256308713 -175.7654206311943,-104.22416958197414" stroke="#ffa500" stroke-linecap="round" stroke-linejoin="round"/><polyline fill="none" points="-193.2775785102269,-35.46623062361491 -190.7775785102088,-36.13610360466255 -188.94745149125583,-37.966230623567675 -188.27757851014283,-40.46623062356828 -188.94745149119046,-42.96623062358639 -190.7775785100956,-44.796357642539355 -193.2775785100962,-45.46623062365234 -195.7775785101143,-44.796357642604704 -197.60770552906726,-42.96623062369958 -198.27757851018026,-40.466230623698976 -197.60770552913263,-37.96623062368086 -195.7775785102275,-36.13610360472789 -193.2775785102269,-35.466230623614905" stroke="#00f" stroke-linecap="round" stroke-linejoin="round"/><polyline fill="none" points="-336.0080395143717,-64.35585930162323 -333.5080395143536,-65.02573228267086 -331.6779124954006,-66.85585930157599 -331.00803951428765,-69.3558593015766 -331.6779124953353,-71.85585930159472 -333.5080395142404,-73.68598632054768 -336.00803951424103,-74.35585930166067 -338.50803951425917,-73.68598632061304 -340.33816653321213,-71.85585930170791 -341.0080395143251,-69.3558593017073 -340.33816653327744,-66.85585930168918 -338.50803951437234,-65.02573228273621 -336.0080395143717,-64.35585930162323" stroke="#00f" stroke-linecap="round" stroke-linejoin="round"/><polyline fill="none" points="170.89455878139137,-109.91831183669123 173.39455878140947,-110.58818481773886 175.22468580036244,-112.418311836644 175.89455878147544,-114.9183118366446 175.2246858004278,-117.41831183666272 173.39455878152268,-119.24843885561569 170.89455878152208,-119.91831183672869 168.39455878150395,-119.24843885568106 166.56443176255098,-117.41831183677594 165.89455878143798,-114.91831183677533 166.5644317624856,-112.41831183675721 168.39455878139074,-110.58818481780425 170.89455878139134,-109.91831183669125" stroke="#ffa500" stroke-linecap="round" stroke-linejoin="round"/><polyline fill="none" points="90.42128764709467,-196.0063106082895 92.92128764711279,-196.67618358933714 94.75141466606576,-198.50631060824227 95.42128764717876,-201.00631060824287 94.75141466613113,-203.506310608261 92.92128764722601,-205.33643762721397 90.4212876472254,-206.00631060832697 87.92128764720728,-205.33643762727934 86.0911606282543,-203.5063106083742 85.4212876471413,-201.0063106083736 86.09116062818893,-198.50631060835548 87.92128764709405,-196.6761835894025 90.42128764709466,-196.0063106082895" stroke="#ffa500" stroke-linecap="round" stroke-linejoin="round"/><polyline fill="none" points="-343.63972717877857,-63.191354470968434 -341.13972717876044,-63.86122745201607 -339.3096001598075,-65.69135447092118 -338.6397271786945,-68.1913544709218 -339.3096001597421,-70.69135447093991 -341.1397271786472,-72.52148148989289 -343.63972717864783,-73.1913544710059 -346.13972717866596,-72.52148148995826 -347.96985419761893,-70.69135447105315 -348.6397271787319,-68.19135447105253 -347.9698541976843,-65.69135447103442 -346.1397271787792,-63.86122745208144 -343.63972717877857,-63.191354470968434" stroke="#00f" stroke-linecap="round" stroke-linejoin="round"/><polyline fill="none" points="-231.02144738108223,63.93568199294309 -228.5214473810641,63.265809011895456 -226.69132036211113,61.43568199299034 -226.02144738099813,58.935681992989736 -226.69132036204576,56.43568199297161 -228.5214473809509,54.60555497401863 -231.02144738095149,53.93568199290563 -233.52144738096962,54.605554973953254 -235.3515743999226,56.43568199285837 -236.0214473810356,58.935681992858974 -235.35157439998798,61.4356819928771 -233.52144738108285,63.26580901183008 -231.02144738108225,63.93568199294308" stroke="#00f" stroke-linecap="round" stroke-linejoin="round"/><polyline fill="none" points="99.61371958367127,160.2241548405502 102.11371958368939,159.55428185950257 103.94384660264237,157.72415484059744 104.61371958375537,155.22415484059684 103.94384660270774,152.7241548405787 102.11371958380262,150.8940278216257 99.61371958380201,150.2241548405127 97.11371958378389,150.89402782156034 95.28359256483091,152.72415484046547 94.61371958371791,155.22415484046607 95.28359256476553,157.7241548404842 97.11371958367064,159.5542818594372 99.61371958367126,160.2241548405502" stroke="#ffa500" stroke-linecap="round" stroke-linejoin="round"/><polyline fill="none" points="88.8283757037507,93.45062115813751 91.32837570376883,92.78074817708989 93.1585027227218,90.95062115818477 93.82837570383482,88.45062115818416 93.1585027227872,85.95062115816603 91.32837570388209,84.12049413921305 88.82837570388148,83.45062115810003 86.32837570386334,84.12049413914765 84.49824868491037,85.95062115805277 83.82837570379735,88.45062115805338 84.49824868484497,90.95062115807151 86.32837570375008,92.78074817702449 88.8283757037507,93.45062115813751" stroke="#ffa500" stroke-linecap="round" stroke-linejoin="round"/><polyline fill="none" points="125.56384450219304,-147.69184126789682 128.06384450221117,-148.36171424894445 129.89397152116416,-150.19184126784955 130.56384450227716,-152.69184126785015 129.89397152122953,-155.19184126786828 128.06384450232443,-157.02196828682128 125.56384450232382,-157.69184126793428 123.06384450230568,-157.02196828688665 121.23371748335269,-155.19184126798154 120.56384450223968,-152.69184126798095 121.2337174832873,-150.19184126796281 123.06384450219241,-148.36171424900982 125.56384450219302,-147.69184126789682" stroke="#ffa500" stroke-linecap="round" stroke-linejoin="round"/><polyline fill="none" points="-122.96781482811123,-104.70220795328002 -120.4678148280931,-105.37208093432764 -118.6376878091401,-107.20220795323276 -117.96781482802709,-109.70220795323337 -118.6376878090747,-112.2022079532515 -120.46781482797982,-114.0323349722045 -122.96781482798043,-114.70220795331751 -125.46781482799857,-114.0323349722699 -127.29794184695156,-112.20220795336478 -127.96781482806458,-109.70220795336417 -127.29794184701696,-107.20220795334603 -125.46781482811184,-105.37208093439304 -122.96781482811123,-104.70220795328002" stroke="#00f" stroke-linecap="round" stroke-linejoin="round"/><polyline fill="none" points="28.859273571424005,245.09693790242588 31.359273571442138,244.42706492137827 33.18940059039513,242.59693790247317 33.85927357150815,240.09693790247258 33.18940059046053,237.59693790245444 31.359273571555416,235.76681088350145 28.85927357155481,235.09693790238842 26.359273571536676,235.76681088343602 24.529146552583683,237.59693790234112 23.859273571470663,240.09693790234172 24.529146552518277,242.59693790235985 26.35927357142339,244.42706492131285 28.859273571423998,245.09693790242588" stroke="#ffa500" stroke-linecap="round" stroke-linejoin="round"/><polyline fill="none" points="32.67523356720991,-128.05139987413372 35.17523356722804,-128.72127285518133 37.005360586181034,-130.55139987408643 37.67523356729406,-133.05139987408702 37.00536058624645,-135.55139987410516 35.17523356734134,-137.38152689305815 32.67523356734073,-138.05139987417118 30.1752335673226,-137.38152689312358 28.345106548369607,-135.55139987421848 27.675233567256583,-133.05139987421788 28.345106548304194,-130.55139987419975 30.175233567209304,-128.72127285524675 32.67523356720991,-128.05139987413372" stroke="#ffa500" stroke-linecap="round" stroke-linejoin="round"/><polyline fill="none" points="-242.77228058003217,-76.59723350565315 -240.27228058001404,-77.26710648670077 -238.44215356106105,-79.09723350560589 -237.77228057994802,-81.5972335056065 -238.44215356099562,-84.09723350562463 -240.27228057990072,-85.92736052457762 -242.77228057990132,-86.59723350569065 -245.27228057991945,-85.92736052464305 -247.10240759887245,-84.09723350573795 -247.77228057998548,-81.59723350573734 -247.10240759893787,-79.0972335057192 -245.27228058003277,-77.26710648676621 -242.77228058003217,-76.59723350565318" stroke="#008000" stroke-linecap="round" stroke-linejoin="round"/><polyline fill="none" points="24.86077259411527,12.944292491927182 27.360772594133408,12.274419510879573 29.19089961308641,10.444292491974464 29.860772594199435,7.944292491973856 29.190899613151828,5.44429249195572 27.36077259424672,3.6141654730027204 24.86077259424611,2.9442924918896924 22.360772594227974,3.6141654729373007 20.530645575274974,5.444292491842409 19.860772594161947,7.944292491843017 20.530645575209554,10.444292491861153 22.360772594114664,12.274419510814154 24.86077259411527,12.944292491927182" stroke="#ffa500" stroke-linecap="round" stroke-linejoin="round"/><polyline fill="none" points="-280.8072590395456,-99.82446998197847 -278.3072590395275,-100.49434296302607 -276.47713202057446,-102.32446998193117 -275.8072590394614,-104.82446998193178 -276.47713202050903,-107.32446998194992 -278.30725903941413,-109.15459700090292 -280.80725903941476,-109.82446998201596 -283.3072590394329,-109.15459700096835 -285.1373860583859,-107.32446998206325 -285.80725903949894,-104.82446998206264 -285.13738605845134,-102.3244699820445 -283.30725903954624,-100.4943429630915 -280.8072590395456,-99.82446998197847" stroke="#00f" stroke-linecap="round" stroke-linejoin="round"/><polyline fill="none" points="62.58897708917217,-184.05658114657993 65.08897708919031,-184.72645412762753 66.91910410814332,-186.55658114653264 67.58897708925635,-189.05658114653323 66.91910410820874,-191.55658114655137 65.08897708930364,-193.38670816550436 62.58897708930303,-194.0565811466174 60.08897708928489,-193.3867081655698 58.25885007033188,-191.55658114666468 57.588977089218844,-189.0565811466641 58.25885007026645,-186.55658114664595 60.08897708917156,-184.72645412769296 62.58897708917217,-184.05658114657993" stroke="#00f" stroke-linecap="round" stroke-linejoin="round"/><polyline fill="none" points="77.35419734093261,-56.020831092862835 79.85419734095076,-56.69070407391044 81.68432435990377,-58.52083109281554 82.3541973410168,-61.02083109281615 81.6843243599692,-63.52083109283429 79.8541973410641,-65.35095811178729 77.35419734106348,-66.02083109290032 74.85419734104534,-65.35095811185272 73.02407032209233,-63.52083109294762 72.3541973409793,-61.020831092947006 73.0240703220269,-58.520831092928866 74.854197340932,-56.69070407397586 77.35419734093261,-56.02083109286282" stroke="#ffa500" stroke-linecap="round" stroke-linejoin="round"/><polyline fill="none" points="-136.9322310964473,26.40379623573666 -134.43223109642918,25.73392325468906 -132.60210407747616,23.903796235783954 -131.93223109636313,21.403796235783346 -132.60210407741073,18.903796235765203 -134.43223109631583,17.073669216812192 -136.93223109631643,16.40379623569915 -139.43223109633456,17.073669216746747 -141.26235811528758,18.903796235651853 -141.9322310964006,21.403796235652464 -141.262358115353,23.903796235670608 -139.4322310964479,25.73392325462362 -136.9322310964473,26.40379623573666" stroke="#ffa500" stroke-linecap="round" stroke-linejoin="round"/><polyline fill="none" points="85.22508741022007,-145.58573158812928 87.72508741023822,-146.25560456917688 89.55521442919122,-148.08573158808198 90.22508741030427,-150.58573158808258 89.55521442925667,-153.0857315881007 87.72508741035156,-154.91585860705374 85.22508741035095,-155.58573158816677 82.7250874103328,-154.91585860711916 80.8949603913798,-153.08573158821406 80.22508741026675,-150.58573158821346 80.89496039131434,-148.08573158819533 82.72508741021944,-146.2556045692423 85.22508741022006,-145.58573158812928" stroke="#ffa500" stroke-linecap="round" stroke-linejoin="round"/><polyline fill="none" points="-160.36075505357488,67.38533524292313 -157.86075505355674,66.71546226187554 -156.03062803460372,64.88533524297044 -155.3607550534907,62.38533524296983 -156.0306280345383,59.88533524295168 -157.8607550534434,58.05520822399867 -160.360755053444,57.385335242885624 -162.86075505346216,58.05520822393322 -164.69088207241518,59.88533524283832 -165.36075505352824,62.385335242838934 -164.69088207248063,64.88533524285708 -162.86075505357553,66.7154622618101 -160.36075505357493,67.38533524292315" stroke="#00f" stroke-linecap="round" stroke-linejoin="round"/><polyline fill="none" points="138.64780028092974,-99.35063898051747 141.1478002809479,-100.02051196156506 142.97792729990093,-101.85063898047017 143.64780028101399,-104.35063898047078 142.97792729996638,-106.85063898048892 141.14780028106128,-108.68076599944195 138.64780028106068,-109.35063898055499 136.14780028104252,-108.6807659995074 134.3176732620895,-106.8506389806023 133.64780028097644,-104.35063898060169 134.31767326202404,-101.85063898058354 136.14780028092915,-100.02051196163052 138.64780028092974,-99.35063898051747" stroke="#00f" stroke-linecap="round" stroke-linejoin="round"/><polyline fill="none" points="188.0595766114148,-125.27477655534867 190.55957661143296,-125.94464953639626 192.38970363038598,-127.77477655530136 193.05957661149904,-130.27477655530197 192.38970363045144,-132.77477655532013 190.55957661154633,-134.60490357427315 188.0595766115457,-135.2747765553862 185.55957661152755,-134.6049035743386 183.72944959257453,-132.7747765554335 183.05957661146147,-130.27477655543288 183.72944959250904,-127.77477655541473 185.55957661141414,-125.94464953646171 188.05957661141474,-125.27477655534865" stroke="#00f" stroke-linecap="round" stroke-linejoin="round"/><polyline fill="none" points="78.90554198888832,98.29065268337341 81.40554198890646,97.62077970232582 83.23566900785949,95.79065268342072 83.90554198897254,93.2906526834201 83.23566900792495,90.79065268340196 81.40554198901985,88.96052566444894 78.90554198901924,88.29065268333588 76.4055419890011,88.96052566438347 74.57541497004807,90.79065268328857 73.90554198893501,93.29065268328918 74.5754149699826,95.79065268330733 76.4055419888877,97.62077970226035 78.90554198888832,98.29065268337341" stroke="#ffa500" stroke-linecap="round" stroke-linejoin="round"/><polyline fill="none" points="69.09844128329001,43.192385896337434 71.59844128330816,42.522512915289845 73.42856830226118,40.69238589638475 74.09844128337424,38.19238589638414 73.42856830232665,35.692385896365984 71.59844128342155,33.862258877412955 69.09844128342094,33.192385896299896 66.59844128340279,33.86225887734748 64.76831426444977,35.692385896252574 64.09844128333671,38.192385896253185 64.7683142643843,40.69238589627134 66.5984412832894,42.52251291522437 69.09844128329001,43.19238589633743" stroke="#ffa500" stroke-linecap="round" stroke-linejoin="round"/><polyline fill="none" points="-85.2570233688974,-91.92546564775999 -82.75702336887926,-92.59533862880758 -80.92689634992624,-94.42546564771268 -80.25702336881318,-96.9254656477133 -80.92689634986077,-99.42546564773146 -82.75702336876587,-101.25559266668448 -85.25702336876648,-101.92546564779754 -87.75702336878464,-101.25559266674996 -89.58715038773767,-99.42546564784486 -90.25702336885072,-96.92546564784425 -89.58715038780315,-94.42546564782609 -87.75702336889805,-92.59533862887305 -85.25702336889744,-91.92546564775999" stroke="#ffa500" stroke-linecap="round" stroke-linejoin="round"/><polyline fill="none" points="-153.35969284281526,38.698557562784316 -150.8596928427971,38.028684581736734 -149.02956582384408,36.19855756283164 -148.35969284273102,33.69855756283103 -149.0295658237786,31.19855756281287 -150.8596928426837,29.368430543859837 -153.3596928426843,28.698557562746775 -155.85969284270246,29.368430543794354 -157.68981986165548,31.19855756269945 -158.35969284276854,33.69855756270006 -157.68981986172096,36.198557562718214 -155.85969284281586,38.02868458167124 -153.35969284281526,38.69855756278431" stroke="#ffa500" stroke-linecap="round" stroke-linejoin="round"/><polyline fill="none" points="-272.173606790385,23.123065878092156 -269.6736067903669,22.453192897044577 -267.84347977141385,20.62306587813948 -267.17360679030077,18.12306587813887 -267.84347977134837,15.623065878120713 -269.6736067902535,13.79293885916768 -272.1736067902541,13.123065878054616 -274.67360679027223,13.792938859102193 -276.50373380922525,15.623065878007287 -277.17360679033834,18.1230658780079 -276.50373380929074,20.623065878026058 -274.67360679038563,22.45319289697909 -272.173606790385,23.123065878092156" stroke="#ffa500" stroke-linecap="round" stroke-linejoin="round"/><polyline fill="none" points="-47.00286464471515,-125.6618748205398 -44.50286464469699,-126.33174780158737 -42.672737625743956,-128.16187482049247 -42.00286464463089,-130.66187482049307 -42.672737625678465,-133.16187482051123 -44.50286464458355,-134.99200183946425 -47.002864644584164,-135.6618748205773 -49.502864644602326,-134.99200183952973 -51.33299166355536,-133.16187482062463 -52.00286464466843,-130.66187482062404 -51.33299166362085,-128.16187482060587 -49.502864644715764,-126.33174780165284 -47.00286464471515,-125.66187482053977" stroke="#00f" stroke-linecap="round" stroke-linejoin="round"/><polyline fill="none" points="-326.1048977875511,-44.55517404130966 -323.604897787533,-45.22504702235724 -321.77477076857997,-47.055174041262326 -321.1048977874669,-49.55517404126294 -321.77477076851443,-52.0551740412811 -323.60489778741953,-53.885301060234134 -326.10489778742016,-54.55517404134721 -328.6048977874383,-53.88530106029963 -330.4350248063913,-52.055174041394544 -331.1048977875044,-49.55517404139393 -330.43502480645685,-47.05517404137577 -328.60489778755175,-45.225047022422736 -326.1048977875511,-44.55517404130966" stroke="#ffa500" stroke-linecap="round" stroke-linejoin="round"/><polyline fill="none" points="-208.49751721051348,107.3463974436533 -205.99751721049532,106.67652446260573 -204.16739019154227,104.84639744370064 -203.4975172104292,102.34639744370003 -204.16739019147678,99.84639744368187 -205.9975172103819,98.01627042472883 -208.4975172103825,97.34639744361576 -210.99751721040067,98.01627042466333 -212.82764422935372,99.84639744356842 -213.4975172104668,102.34639744356903 -212.82764422941923,104.8463974435872 -210.99751721051413,106.67652446254023 -208.49751721051354,107.3463974436533" stroke="#ffa500" stroke-linecap="round" stroke-linejoin="round"/><polyline fill="none" points="147.1891607552563,177.37552198945903 149.68916075527446,176.70564900841146 151.5192877742275,174.87552198950635 152.1891607553406,172.37552198950573 151.51928777429302,169.87552198948757 149.68916075538795,168.04539497053452 147.18916075538732,167.37552198942143 144.68916075536916,168.045394970469 142.8590337364161,169.87552198937408 142.18916075530302,172.3755219893747 142.8590337363506,174.87552198939287 144.68916075525567,176.70564900834592 147.18916075525627,177.375521989459" stroke="#ffa500" stroke-linecap="round" stroke-linejoin="round"/><polyline fill="none" points="-259.158228557569,-62.383783499066595 -256.6582285575508,-63.053656480114164 -254.82810153859774,-64.88378349901924 -254.15822855748465,-67.38378349901986 -254.82810153853222,-69.88378349903802 -256.6582285574373,-71.71391051799107 -259.15822855743795,-72.38378349910414 -261.65822855745614,-71.71391051805658 -263.48835557640916,-69.88378349915149 -264.15822855752225,-67.38378349915088 -263.4883555764747,-64.88378349913272 -261.6582285575696,-63.053656480179676 -259.158228557569,-62.383783499066595" stroke="#f00" stroke-linecap="round" stroke-linejoin="round"/><polyline fill="none" points="75.21598569865314,-144.26774676006232 77.7159856986713,-144.9376197411099 79.54611271762435,-146.76774676001497 80.21598569873744,-149.2677467600156 79.54611271768988,-151.76774676003376 77.71598569878479,-153.5978737789868 75.21598569878418,-154.2677467600999 72.71598569876602,-153.59787377905232 70.88585867981297,-151.76774676014725 70.21598569869988,-149.26774676014665 70.88585867974744,-146.7677467601285 72.71598569865253,-144.93761974117544 75.21598569865314,-144.26774676006235" stroke="#ffa500" stroke-linecap="round" stroke-linejoin="round"/><polyline fill="none" points="167.17747488222022,-122.76487692494939 169.67747488223839,-123.43474990599695 171.50760190119144,-125.26487692490204 172.17747488230452,-127.76487692490265 171.50760190125695,-130.26487692492083 169.67747488235187,-132.09500394387388 167.17747488235125,-132.76487692498696 164.6774748823331,-132.09500394393942 162.84734786338004,-130.26487692503434 162.17747488226695,-127.76487692503373 162.8473478633145,-125.26487692501557 164.67747488221957,-123.43474990606252 167.17747488222017,-122.76487692494943" stroke="#ffa500" stroke-linecap="round" stroke-linejoin="round"/><polyline fill="none" points="208.4321066700945,-112.11012953961442 210.93210667011266,-112.78000252066198 212.7622336890657,-114.61012953956707 213.4321066701788,-117.11012953956768 212.76223368913125,-119.61012953958586 210.93210667022618,-121.4402565585389 208.43210667022555,-122.110129539652 205.9321066702074,-121.44025655860443 204.10197965125434,-119.61012953969934 203.43210667014125,-117.11012953969873 204.1019796511888,-114.61012953968056 205.93210667009387,-112.7800025207275 208.43210667009447,-112.11012953961442" stroke="#ffa500" stroke-linecap="round" stroke-linejoin="round"/><polyline fill="none" points="-259.29509788042094,-16.420711783273635 -256.79509788040275,-17.090584764321193 -254.9649708614497,-18.920711783226274 -254.2950978803366,-21.420711783226885 -254.96497086138416,-23.920711783245054 -256.79509788028923,-25.750838802198107 -259.29509788028986,-26.420711783311198 -261.79509788030805,-25.75083880226364 -263.6252248992611,-23.92071178335856 -264.2950978803742,-21.420711783357948 -263.62522489932667,-18.920711783339776 -261.79509788042157,-17.09058476438672 -259.29509788042094,-16.420711783273628" stroke="#00f" stroke-linecap="round" stroke-linejoin="round"/><polyline fill="none" points="56.17703373591751,-169.90740126127872 58.67703373593568,-170.57727424232627 60.50716075488874,-172.40740126123134 61.17703373600183,-174.90740126123194 60.50716075495428,-177.4074012612501 58.6770337360492,-179.23752828020315 56.177033736048585,-179.90740126131624 53.67703373603041,-179.2375282802687 51.84690671707735,-177.40740126136362 51.17703373596426,-174.90740126136302 51.84690671701181,-172.40740126134486 53.67703373591689,-170.5772742423918 56.177033735917504,-169.90740126127872" stroke="#ffa500" stroke-linecap="round" stroke-linejoin="round"/><polyline fill="none" points="34.69067926288118,-83.14429907844763 37.19067926289936,-83.81417205949518 39.020806281852416,-85.64429907840025 39.69067926296551,-88.14429907840086 39.020806281917956,-90.64429907841904 37.190679263012875,-92.4744260973721 34.690679263012264,-93.1442990784852 32.19067926299409,-92.47442609743766 30.360552244041028,-90.64429907853258 29.690679262927933,-88.14429907853197 30.360552243975484,-85.6442990785138 32.190679262880565,-83.81417205956073 34.690679262881176,-83.14429907844763" stroke="#ffa500" stroke-linecap="round" stroke-linejoin="round"/><polyline fill="none" points="139.19284528656533,134.4929877525861 141.6928452865835,133.82311477153854 143.52297230553654,131.99298775263347 144.19284528664963,129.49298775263284 143.52297230560208,126.99298775261467 141.692845286697,125.1628607336616 139.19284528669638,124.4929877525485 136.69284528667822,125.16286073359605 134.86271826772517,126.99298775250112 134.19284528661208,129.49298775250173 134.86271826765963,131.99298775251992 136.6928452865647,133.82311477147297 139.19284528656533,134.49298775258606" stroke="#ffa500" stroke-linecap="round" stroke-linejoin="round"/><polyline fill="none" points="65.28788323992634,230.4694396556461 67.78788323994452,229.79956667459857 69.61801025889758,227.9694396556935 70.28788324001069,225.46943965569287 69.61801025896314,222.96943965567468 67.78788324005806,221.1393126367216 65.28788324005745,220.4694396556085 62.78788324003928,221.13931263665606 60.957756221086214,222.96943965556113 60.28788323997311,225.46943965556176 60.95775622102066,227.96943965557995 62.78788323992573,229.79956667453303 65.28788323992634,230.46943965564614" stroke="#ffa500" stroke-linecap="round" stroke-linejoin="round"/><polyline fill="none" points="-213.50318290046744,-94.53575248473035 -211.00318290044925,-95.2056254657779 -209.17305588149617,-97.03575248468297 -208.50318290038305,-99.53575248468358 -209.1730558814306,-102.03575248470176 -211.00318290033567,-103.86587950365482 -213.5031829003363,-104.53575248476793 -216.0031829003545,-103.86587950372038 -217.83330991930757,-102.0357524848153 -218.50318290042068,-99.5357524848147 -217.83330991937314,-97.03575248479652 -216.00318290046806,-95.20562546584345 -213.50318290046744,-94.53575248473035" stroke="#00f" stroke-linecap="round" stroke-linejoin="round"/><polyline fill="none" points="-243.57546880303042,98.12343489636658 -241.07546880301223,97.45356191531903 -239.24534178405915,95.62343489641395 -238.57546880294603,93.12343489641334 -239.24534178399358,90.62343489639517 -241.07546880289865,88.7933078774421 -243.57546880289928,88.123434896329 -246.07546880291747,88.79330787737655 -247.90559582187055,90.62343489628162 -248.57546880298366,93.12343489628223 -247.90559582193612,95.62343489630041 -246.07546880303104,97.45356191525349 -243.57546880303042,98.12343489636659" stroke="#00f" stroke-linecap="round" stroke-linejoin="round"/><polyline fill="none" points="147.49862013707835,148.47859611882183 149.99862013709654,147.80872313777428 151.82874715604962,145.9785961188692 152.49862013716273,143.47859611886858 151.82874715611518,140.9785961188504 149.9986201372101,139.1484690998973 147.49862013720949,138.4785961187842 144.9986201371913,139.14846909983174 143.16849311823822,140.97859611873682 142.4986201371251,143.47859611873744 143.16849311817265,145.97859611875563 144.99862013707772,147.8087231377087 147.49862013707835,148.47859611882183" stroke="#ffa500" stroke-linecap="round" stroke-linejoin="round"/><polyline fill="none" points="-267.04366135034365,9.651589979416798 -264.54366135032546,8.98171699836926 -262.7135343313724,7.151589979464188 -262.0436613502593,4.6515899794635756 -262.71353433130685,2.1515899794453923 -264.5436613502119,0.32146296049231715 -267.0436613502125,-0.3484100206207956 -269.5436613502307,0.3214629604267414 -271.3737883691838,2.151589979331812 -272.0436613502969,4.6515899793324245 -271.3737883692493,7.151589979350609 -269.5436613503443,8.981716998303686 -267.04366135034365,9.6515899794168" stroke="#ffa500" stroke-linecap="round" stroke-linejoin="round"/><polyline fill="none" points="-173.7580577124911,-91.140182633174 -171.25805771247292,-91.81005561422154 -169.42793069351984,-93.64018263312661 -168.75805771240672,-96.14018263312722 -169.42793069345427,-98.64018263314541 -171.25805771235935,-100.47030965209849 -173.75805771235997,-101.14018263321161 -176.25805771237816,-100.47030965216408 -178.08818473133124,-98.640182633259 -178.75805771244436,-96.14018263325839 -178.0881847313968,-93.6401826332402 -176.25805771249173,-91.81005561428712 -173.7580577124911,-91.140182633174" stroke="#00f" stroke-linecap="round" stroke-linejoin="round"/><polyline fill="none" points="164.80366368821524,-66.17561561287988 167.30366368823343,-66.84548859392741 169.1337907071865,-68.67561561283249 169.80366368829962,-71.1756156128331 169.13379070725207,-73.67561561285129 167.303663688347,-75.50574263180437 164.80366368834638,-76.17561561291748 162.3036636883282,-75.50574263186995 160.4735366693751,-73.67561561296488 159.803663688262,-71.17561561296426 160.4735366693095,-68.67561561294607 162.30366368821458,-66.845488593993 164.8036636882152,-66.17561561287988" stroke="#ffa500" stroke-linecap="round" stroke-linejoin="round"/><polyline fill="none" points="14.348795198097655,30.092755214873364 16.848795198115845,29.42288223382583 18.678922217068926,27.592755214920764 19.348795198182046,25.09275521492015 18.678922217134517,22.592755214901963 16.84879519822945,20.76262819594888 14.348795198228837,20.092755214835762 11.848795198210649,20.76262819588329 10.018668179257565,22.592755214788358 9.348795198144444,25.092755214788973 10.018668179191973,27.592755214807163 11.84879519809704,29.422882233760248 14.348795198097653,30.09275521487337" stroke="#00f" stroke-linecap="round" stroke-linejoin="round"/><polyline fill="none" points="68.0856200357734,127.13819521009333 70.58562003579159,126.4683222290458 72.41574705474467,124.63819521014074 73.0856200358578,122.13819521014013 72.41574705481027,119.63819521012194 70.58562003590521,117.80806819116884 68.0856200359046,117.13819521005571 65.58562003588641,117.80806819110325 63.75549301693332,119.6381952100083 63.0856200358202,122.13819521000892 63.755493016867725,124.6381952100271 65.58562003577279,126.4683222289802 68.0856200357734,127.13819521009333" stroke="#ffa500" stroke-linecap="round" stroke-linejoin="round"/><polyline fill="none" points="-264.8415570670643,-123.18834776421488 -262.3415570670461,-123.85822074526241 -260.511430048093,-125.68834776416747 -259.8415570669799,-128.1883477641681 -260.5114300480274,-130.6883477641863 -262.34155706693247,-132.51847478313937 -264.8415570669331,-133.18834776425248 -267.3415570669513,-132.51847478320497 -269.17168408590436,-130.6883477642999 -269.8415570670175,-128.18834776429927 -269.17168408596996,-125.68834776428108 -267.3415570670649,-123.85822074532798 -264.8415570670643,-123.18834776421485" stroke="#ffa500" stroke-linecap="round" stroke-linejoin="round"/><polyline fill="none" points="-105.01321116935004,-103.1905081260127 -102.51321116933185,-103.86038110706022 -100.68308415037876,-105.69050812596528 -100.01321116926563,-108.19050812596589 -100.68308415031315,-110.69050812598408 -102.51321116921821,-112.52063514493717 -105.01321116921882,-113.1905081260503 -107.51321116923701,-112.52063514500279 -109.3433381881901,-110.69050812609773 -110.01321116930323,-108.19050812609711 -109.34333818825571,-105.69050812607892 -107.51321116935065,-103.86038110712583 -105.01321116935004,-103.1905081260127" stroke="#ffa500" stroke-linecap="round" stroke-linejoin="round"/><polyline fill="none" points="-192.42920844449716,38.26291884479338 -189.92920844447897,37.593045863745864 -188.0990814255259,35.762918844840804 -187.42920844441275,33.26291884484019 -188.09908142546027,30.762918844822 -189.92920844436534,28.932791825868907 -192.42920844436597,28.262918844755774 -194.92920844438416,28.932791825803292 -196.75933546333727,30.762918844708352 -197.4292084444504,33.26291884470896 -196.7593354634029,35.76291884472716 -194.92920844449782,37.59304586368025 -192.4292084444972,38.26291884479339" stroke="#ffa500" stroke-linecap="round" stroke-linejoin="round"/><polyline fill="none" points="42.386306460297924,108.0973851960884 44.88630646031612,107.42751221504088 46.71643347926921,105.59738519613582 47.38630646038235,103.0973851961352 46.71643347933483,100.59738519611702 44.88630646042977,98.76725817716392 42.38630646042916,98.0973851960508 39.886306460410964,98.76725817709831 38.056179441457864,100.59738519600337 37.38630646034473,103.09738519600398 38.056179441392246,105.59738519602217 39.886306460297305,107.42751221497527 42.38630646029792,108.09738519608841" stroke="#00f" stroke-linecap="round" stroke-linejoin="round"/><polyline fill="none" points="-1.0611715747382684,203.93862700597802 1.4388284252799277,203.2687540249305 3.268955444233025,201.43862700602546 3.938828425346163,198.93862700602483 3.2689554442986486,196.43862700600664 1.4388284253935908,194.60849998705353 -1.061171574607022,193.9386270059404 -3.5611715746252193,194.6084999869879 -5.391298593578318,196.43862700589295 -6.061171574691458,198.93862700589358 -5.391298593643945,201.43862700591177 -3.5611715747388875,203.26875402486488 -1.0611715747382746,203.93862700597802" stroke="#ffa500" stroke-linecap="round" stroke-linejoin="round"/><polyline fill="none" points="-137.55249761873597,-22.681909425389186 -135.05249761871778,-23.351782406436698 -133.22237059976467,-25.181909425341754 -132.55249761865153,-27.68190942534237 -133.22237059969905,-30.181909425360566 -135.0524976186041,-32.012036444313665 -137.55249761860472,-32.68190942542681 -140.0524976186229,-32.0120364443793 -141.88262463757601,-30.18190942547424 -142.55249761868916,-27.681909425473627 -141.88262463764164,-25.18190942545543 -140.0524976187366,-23.351782406502327 -137.55249761873597,-22.681909425389183" stroke="#00f" stroke-linecap="round" stroke-linejoin="round"/><polyline fill="none" points="-141.4952096557506,79.13043903545592 -138.99520965573242,78.46056605440842 -137.16508263677932,76.63043903550336 -136.49520965566617,74.13043903550275 -137.1650826367137,71.63043903548454 -138.99520965561874,69.80031201653144 -141.49520965561936,69.13043903541829 -143.99520965563755,69.8003120164658 -145.82533667459066,71.63043903537086 -146.4952096557038,74.13043903537147 -145.82533667465628,76.63043903538967 -143.99520965575124,78.46056605434278 -141.4952096557506,79.13043903545592" stroke="#ffa500" stroke-linecap="round" stroke-linejoin="round"/><polyline fill="none" points="34.226150127267275,24.03187870906627 36.72615012728548,23.36200572801876 38.556277146238585,21.53187870911371 39.22615012735173,19.031878709113094 38.556277146304225,16.531878709094894 36.72615012739917,14.701751690141789 34.22615012739856,14.031878709028641 31.72615012738036,14.701751690076147 29.896023108427254,16.5318787089812 29.226150127314106,19.031878708981814 29.896023108361614,21.531878709000015 31.726150127266667,23.36200572795312 34.22615012726728,24.03187870906627" stroke="#ffa500" stroke-linecap="round" stroke-linejoin="round"/><polyline fill="none" points="-218.62843395320715,-83.25564786174532 -216.12843395318896,-83.92552084279282 -214.29830693423585,-85.75564786169787 -213.6284339531227,-88.25564786169848 -214.29830693417023,-90.75564786171668 -216.12843395307527,-92.58577488066979 -218.6284339530759,-93.25564786178293 -221.1284339530941,-92.58577488073543 -222.9585609720472,-90.75564786183038 -223.62843395316034,-88.25564786182977 -222.95856097211285,-85.75564786181157 -221.1284339532078,-83.92552084285846 -218.62843395320718,-83.2556478617453" stroke="#008000" stroke-linecap="round" stroke-linejoin="round"/><polyline fill="none" points="-216.85597552921308,-85.9157983358167 -214.3559755291949,-86.58567131686421 -212.5258485102418,-88.41579833576925 -211.85597552912864,-90.91579833576986 -212.52584851017613,-93.41579833578807 -214.35597552908118,-95.24592535474117 -216.8559755290818,-95.91579833585433 -219.35597552910002,-95.24592535480683 -221.18610254805313,-93.41579833590178 -221.85597552916627,-90.91579833590117 -221.18610254811878,-88.41579833588297 -219.35597552921374,-86.58567131692986 -216.8559755292131,-85.9157983358167" stroke="#00f" stroke-linecap="round" stroke-linejoin="round"/><polyline fill="none" points="40.40714853647582,231.4780563974416 42.90714853649403,230.80818341639412 44.73727555544714,228.97805639748907 45.4071485365603,226.47805639748844 44.7372755555128,223.97805639747023 42.90714853660776,222.14792937851712 40.407148536607146,221.47805639740398 37.90714853658894,222.14792937845147 36.07702151763583,223.9780563973565 35.40714853652267,226.47805639735714 36.07702151757017,228.97805639737535 37.90714853647521,230.80818341632846 40.40714853647582,231.47805639744163" stroke="#00f" stroke-linecap="round" stroke-linejoin="round"/><polyline fill="none" points="-225.7237564918004,-11.90786582116603 -223.22375649178218,-12.577738802213528 -221.39362947282908,-14.407865821118575 -220.7237564917159,-16.907865821119188 -221.3936294727634,-19.407865821137396 -223.22375649166844,-21.237992840090513 -225.72375649166906,-21.90786582120367 -228.22375649168728,-21.237992840156174 -230.0538835106404,-19.40786582125113 -230.72375649175356,-16.907865821250518 -230.05388351070607,-14.40786582123231 -228.22375649180103,-12.577738802279192 -225.7237564918004,-11.90786582116603" stroke="#00f" stroke-linecap="round" stroke-linejoin="round"/><polyline fill="none" points="138.12469369596707,170.29210572429076 140.6246936959853,169.62223274324327 142.4548207149384,167.79210572433823 143.12469369605157,165.2921057243376 142.45482071500408,162.79210572431938 140.62469369609903,160.96197870536628 138.1246936960984,160.2921057242531 135.6246936960802,160.9619787053006 133.79456667712708,162.79210572420564 133.1246936960139,165.29210572420627 133.7945666770614,167.79210572422448 135.62469369596644,169.6222327431776 138.12469369596707,170.29210572429076" stroke="#ffa500" stroke-linecap="round" stroke-linejoin="round"/><polyline fill="none" points="-161.5481238350036,-37.11227088089658 -159.04812383498538,-37.78214386194407 -157.21799681603224,-39.61227088084912 -156.54812383491907,-42.11227088084973 -157.21799681596656,-44.61227088086794 -159.0481238348716,-46.44239789982106 -161.54812383487223,-47.112270880934226 -164.04812383489045,-46.442397899886736 -165.87825085384358,-44.61227088098169 -166.54812383495675,-42.11227088098108 -165.87825085390926,-39.61227088096287 -164.04812383500422,-37.78214386200975 -161.5481238350036,-37.11227088089658" stroke="#ffa500" stroke-linecap="round" stroke-linejoin="round"/><polyline fill="none" points="122.59535228941158,-84.01023731441569 125.0953522894298,-84.68011029546318 126.92547930838292,-86.51023731436823 127.59535228949609,-89.01023731436884 126.9254793084486,-91.51023731438706 125.09535228954356,-93.34036433334018 122.59535228954294,-94.01023731445335 120.09535228952473,-93.34036433340586 118.2652252705716,-91.51023731450081 117.59535228945843,-89.0102373145002 118.26522527050592,-86.51023731448198 120.09535228941097,-84.68011029552886 122.59535228941158,-84.01023731441569" stroke="#ffa500" stroke-linecap="round" stroke-linejoin="round"/><polyline fill="none" points="-189.63271155784233,111.28958501951423 -187.1327115578241,110.61971203846674 -185.30258453887097,108.7895850195617 -184.6327115577578,106.28958501956109 -185.3025845388053,103.78958501954287 -187.13271155771034,101.95945800058975 -189.63271155771096,101.28958501947658 -192.13271155772918,101.95945800052407 -193.96283857668232,103.78958501942911 -194.6327115577955,106.28958501942972 -193.962838576748,108.78958501944794 -192.13271155784295,110.61971203840108 -189.63271155784233,111.28958501951425" stroke="#ffa500" stroke-linecap="round" stroke-linejoin="round"/><polyline fill="none" points="60.93864494351341,-67.15301734743477 63.43864494353162,-67.82289032848226 65.26877196248475,-69.6530173473873 65.93864494359792,-72.15301734738792 65.26877196255043,-74.65301734740613 63.43864494364539,-76.48314436635927 60.93864494364478,-77.15301734747244 58.438644943626564,-76.48314436642497 56.608517924673436,-74.65301734751992 55.93864494356026,-72.15301734751931 56.608517924607746,-69.65301734750109 58.438644943512784,-67.82289032854796 60.938644943513395,-67.15301734743478" stroke="#ffa500" stroke-linecap="round" stroke-linejoin="round"/><polyline fill="none" points="-264.8313693514659,-64.58635232254686 -262.33136935144773,-65.25622530359433 -260.5012423324946,-67.08635232249938 -259.8313693513814,-69.58635232249999 -260.5012423324289,-72.08635232251821 -262.33136935133393,-73.91647934147134 -264.83136935133456,-74.58635232258452 -267.33136935135275,-73.91647934153704 -269.1614963703059,-72.08635232263201 -269.8313693514191,-69.5863523226314 -269.1614963703716,-67.08635232261318 -267.33136935146655,-65.25622530366005 -264.8313693514659,-64.58635232254686" stroke="#008000" stroke-linecap="round" stroke-linejoin="round"/><polyline fill="none" points="-164.38846285572745,70.0097419057405 -161.88846285570924,69.33986892469302 -160.0583358367561,67.50974190578799 -159.38846285564293,65.00974190578738 -160.05833583669042,62.50974190576916 -161.88846285559546,60.679614886816026 -164.3884628555961,60.009741905702846 -166.8884628556143,60.67961488675032 -168.71858987456744,62.50974190565536 -169.38846285568061,65.00974190565597 -168.71858987463312,67.50974190567419 -166.88846285572808,69.33986892462732 -164.38846285572745,70.00974190574051" stroke="#00f" stroke-linecap="round" stroke-linejoin="round"/><polyline fill="none" points="-123.59346128144766,-13.923755228505954 -121.09346128142944,-14.59362820955343 -119.2633342624763,-16.423755228458464 -118.59346128136312,-18.92375522845908 -119.2633342624106,-21.423755228477297 -121.09346128131563,-23.253882247430436 -123.59346128131624,-23.92375522854362 -126.09346128133446,-23.253882247496144 -127.92358830028759,-21.42375522859111 -128.59346128140078,-18.923755228590494 -127.9235883003533,-16.423755228572276 -126.09346128144827,-14.593628209619137 -123.59346128144766,-13.923755228505952" stroke="#ffa500" stroke-linecap="round" stroke-linejoin="round"/><polyline fill="none" points="105.06170621418286,151.69006692536374 107.56170621420108,151.02019394431628 109.39183323315422,149.19006692541123 110.0617062142674,146.6900669254106 109.39183323321993,144.1900669253924 107.5617062143149,142.35993990643925 105.06170621431428,141.69006692532605 102.56170621429607,142.3599399063735 100.73157919534293,144.19006692527856 100.06170621422974,146.69006692527918 100.73157919527722,149.1900669252974 102.56170621418225,151.02019394425054 105.06170621418286,151.69006692536374" stroke="#00f" stroke-linecap="round" stroke-linejoin="round"/><polyline fill="none" points="-348.8972810992876,-61.936966806776496 -346.3972810992694,-62.606839787823965 -344.56715408031624,-64.436966806729 -343.89728109920304,-66.93696680672961 -344.56715408025053,-69.43696680674783 -346.3972810991556,-71.26709382570098 -348.8972810991562,-71.93696680681417 -351.39728109917445,-71.2670938257667 -353.2274081181276,-69.43696680686166 -353.8972810992408,-66.93696680686105 -353.2274081181933,-64.43696680684283 -351.39728109928825,-62.60683978788969 -348.8972810992876,-61.936966806776496" stroke="#ffa500" stroke-linecap="round" stroke-linejoin="round"/><polyline fill="none" points="-200.74962913858067,108.15568291089781 -198.24962913856245,107.48580992985035 -196.41950211960932,105.65568291094532 -195.74962913849612,103.1556829109447 -196.41950211954358,100.65568291092649 -198.2496291384486,98.82555589197334 -200.74962913844922,98.15568291086015 -203.24962913846744,98.82555589190761 -205.07975615742058,100.65568291081264 -205.74962913853378,103.15568291081325 -205.07975615748632,105.65568291083147 -203.2496291385813,107.48580992978462 -200.74962913858067,108.15568291089782" stroke="#ffa500" stroke-linecap="round" stroke-linejoin="round"/><polyline fill="none" points="-270.9595289453974,117.18041035653033 -268.45952894537913,116.51053737548287 -266.629401926426,114.68041035657784 -265.9595289453128,112.18041035657723 -266.6294019263603,109.68041035655901 -268.45952894526533,107.85028333760586 -270.95952894526596,107.18041035649266 -273.4595289452842,107.85028333754012 -275.28965596423734,109.68041035644515 -275.95952894535054,112.18041035644576 -275.28965596430305,114.680410356464 -273.459528945398,116.51053737541714 -270.9595289453974,117.18041035653034" stroke="#ffa500" stroke-linecap="round" stroke-linejoin="round"/><polyline fill="none" points="-217.38379559284505,-79.06325157680439 -214.88379559282683,-79.73312455785185 -213.05366857387367,-81.56325157675688 -212.38379559276046,-84.0632515767575 -213.05366857380793,-86.56325157677573 -214.88379559271294,-88.39337859572888 -217.38379559271357,-89.06325157684208 -219.8837955927318,-88.39337859579462 -221.71392261168495,-86.56325157688958 -222.38379559279815,-84.06325157688897 -221.7139226117507,-81.56325157687074 -219.88379559284567,-79.73312455791759 -217.38379559284505,-79.06325157680439" stroke="#008000" stroke-linecap="round" stroke-linejoin="round"/><polyline fill="none" points="-318.9903820825603,-83.5350094713697 -316.49038208254206,-84.20488245241717 -314.6602550635889,-86.0350094713222 -313.9903820824757,-88.53500947132281 -314.66025506352315,-91.03500947134104 -316.4903820824282,-92.86513649029419 -318.9903820824288,-93.53500947140739 -321.49038208244707,-92.86513649035993 -323.3205091014002,-91.0350094714549 -323.9903820825134,-88.53500947145429 -323.320509101466,-86.03500947143606 -321.4903820825609,-84.2048824524829 -318.9903820825603,-83.5350094713697" stroke="#ffa500" stroke-linecap="round" stroke-linejoin="round"/><polyline fill="none" points="-236.44231645639374,-81.96030241867037 -233.94231645637552,-82.63017539971783 -232.11218943742236,-84.46030241862286 -231.44231645630916,-86.96030241862347 -232.11218943735662,-89.4603024186417 -233.94231645626164,-91.29042943759485 -236.44231645626226,-91.96030241870805 -238.94231645628048,-91.29042943766059 -240.77244347523364,-89.46030241875556 -241.44231645634684,-86.96030241875495 -240.77244347529938,-84.46030241873672 -238.94231645639437,-82.63017539978357 -236.44231645639374,-81.96030241867037" stroke="#00f" stroke-linecap="round" stroke-linejoin="round"/><polyline fill="none" points="41.784502269999145,-135.49793512515328 44.28450227001738,-136.16780810620074 46.114629288970534,-137.99793512510576 46.78450227008374,-140.49793512510638 46.11462928903629,-142.9979351251246 44.28450227013126,-144.82806214407776 41.78450227013065,-145.49793512519096 39.28450227011242,-144.8280621441435 37.45437525115926,-142.99793512523848 36.784502270046055,-140.49793512523786 37.45437525109351,-137.99793512521964 39.284502269998534,-136.16780810626648 41.784502269999145,-135.49793512515328" stroke="#00f" stroke-linecap="round" stroke-linejoin="round"/><polyline fill="none" points="-310.0947437008108,-45.02901965542142 -307.59474370079255,-45.69889263646888 -305.7646166818394,-47.5290196553739 -305.0947437007262,-50.02901965537451 -305.76461668177365,-52.529019655392744 -307.5947437006787,-54.35914667434591 -310.0947437006793,-55.029019655459116 -312.59474370069756,-54.35914667441166 -314.4248707196507,-52.52901965550664 -315.0947437007639,-50.029019655506026 -314.42487071971647,-47.529019655487794 -312.5947437008114,-45.69889263653463 -310.0947437008108,-45.029019655421415" stroke="#00f" stroke-linecap="round" stroke-linejoin="round"/><polyline fill="none" points="57.04430583715788,105.97623809595996 59.54430583717611,105.30636511491251 61.374432856129275,103.47623809600749 62.04430583724249,100.97623809600688 61.37443285619504,98.47623809598865 59.54430583729002,96.64611107703548 57.04430583728941,95.97623809592227 54.544305837271175,96.64611107696972 52.71417881831801,98.47623809587473 52.044305837204796,100.97623809587535 52.71417881825224,103.47623809589358 54.54430583715726,105.30636511484674 57.04430583715787,105.97623809595996" stroke="#ffa500" stroke-linecap="round" stroke-linejoin="round"/><polyline fill="none" points="-240.51459234241426,11.276414983777446 -238.014592342396,10.606542002729997 -236.18446532344285,8.776414983824978 -235.51459234232965,6.276414983824365 -236.1844653233771,3.7764149838061307 -238.01459234228213,1.9462879648529665 -240.51459234228275,1.2764149837397507 -243.014592342301,1.9462879647871985 -244.84471936125416,3.7764149836922174 -245.5145923423674,6.276414983692829 -244.84471936131996,8.776414983711064 -243.01459234241494,10.606542002664229 -240.51459234241432,11.276414983777446" stroke="#008000" stroke-linecap="round" stroke-linejoin="round"/><polyline fill="none" points="46.66106376909601,43.3841065132094 49.16106376911424,42.714233532161956 50.99119078806741,40.88410651325694 51.66106376918062,38.38410651325633 50.991190788133174,35.884106513238095 49.16106376922816,34.05397949428493 46.661063769227546,33.38410651317171 44.161063769209306,34.053979494219156 42.330936750256136,35.88410651312417 41.66106376914291,38.384106513124784 42.33093675019036,40.884106513143024 44.16106376909538,42.714233532096195 46.66106376909599,43.38410651320942" stroke="#ffa500" stroke-linecap="round" stroke-linejoin="round"/><polyline fill="none" points="59.201266036134164,-201.21339428008324 61.701266036152404,-201.88326726113067 63.531393055105575,-203.7133942800357 64.2012660362188,-206.2133942800363 63.53139305517136,-208.71339428005456 61.70126603626634,-210.54352129900772 59.20126603626573,-211.21339428012095 56.70126603624749,-210.54352129907352 54.87113901729432,-208.7133942801685 54.201266036181096,-206.21339428016788 54.871139017228536,-203.71339428014963 56.70126603613355,-201.88326726119647 59.201266036134164,-201.21339428008324" stroke="#ffa500" stroke-linecap="round" stroke-linejoin="round"/><polyline fill="none" points="12.36117051286242,231.4497675268576 14.861170512880662,230.77989454581018 16.691297531833836,228.94976752690516 17.361170512947062,226.44976752690454 16.69129753189962,223.9497675268863 14.861170512994605,222.11964050793313 12.36117051299399,221.4497675268199 9.861170512975749,222.11964050786733 8.031043494022574,223.94976752677235 7.361170512909348,226.44976752677297 8.031043493956789,228.94976752679122 9.861170512861804,230.77989454574438 12.361170512862419,231.4497675268576" stroke="#ffa500" stroke-linecap="round" stroke-linejoin="round"/><polyline fill="none" points="208.2005922525159,-137.70985684966874 210.70059225253414,-138.37972983071617 212.5307192714873,-140.2098568496212 213.20059225260053,-142.70985684962181 212.5307192715531,-145.20985684964006 210.70059225264808,-147.03998386859323 208.20059225264745,-147.70985684970645 205.7005922526292,-147.03998386865902 203.87046523367604,-145.209856849754 203.2005922525628,-142.70985684975338 203.87046523361025,-140.20985684973513 205.70059225251526,-138.37972983078197 208.2005922525159,-137.70985684966874" stroke="#ffa500" stroke-linecap="round" stroke-linejoin="round"/><polyline fill="none" points="47.75549761015249,-127.0279022308199 50.255497610170735,-127.69777521186734 52.08562462912391,-129.52790223077236 52.75549761023714,-132.02790223077298 52.08562462918971,-134.52790223079123 50.25549761028469,-136.35802924974442 47.755497610284074,-137.02790223085765 45.25549761026583,-136.35802924981022 43.42537059131265,-134.5279022309052 42.75549761019942,-132.02790223090457 43.42537059124685,-129.52790223088633 45.25549761015186,-127.69777521193315 47.75549761015248,-127.02790223081992" stroke="#ffa500" stroke-linecap="round" stroke-linejoin="round"/><polyline fill="none" points="37.25220775390945,-101.91584023340396 39.7522077539277,-102.58571321445139 41.58233477288088,-104.4158402333564 42.252207753994114,-106.91584023335702 41.58233477294668,-109.41584023337526 39.75220775404167,-111.24596725232844 37.25220775404105,-111.91584023344167 34.752207754022805,-111.24596725239424 32.92208073506962,-109.41584023348922 32.252207753956384,-106.91584023348861 32.92208073500382,-104.41584023347036 34.75220775390883,-102.58571321451718 37.252207753909445,-101.91584023340396" stroke="#00f" stroke-linecap="round" stroke-linejoin="round"/><polyline fill="none" points="174.67099658843065,-121.66318195322056 177.1709965884489,-122.33305493426799 179.0011236074021,-124.16318195317301 179.67099658851532,-126.66318195317362 179.0011236074679,-129.16318195319187 177.17099658856287,-130.99330897214506 174.67099658856225,-131.6631819532583 172.170996588544,-130.99330897221085 170.3408695695908,-129.16318195330584 169.67099658847758,-126.66318195330523 170.340869569525,-124.16318195328698 172.17099658843003,-122.33305493433379 174.67099658843065,-121.66318195322054" stroke="#00f" stroke-linecap="round" stroke-linejoin="round"/><polyline fill="none" points="-335.61283948011777,-52.699848047826784 -333.1128394800995,-53.36972102887421 -331.28271246114633,-55.19984804777922 -330.6128394800331,-57.69984804777984 -331.2827124610805,-60.199848047798085 -333.1128394799855,-62.02997506675127 -335.6128394799861,-62.699848047864506 -338.11283948000437,-62.02997506681708 -339.94296649895756,-60.19984804791207 -340.6128394800708,-57.69984804791145 -339.9429664990234,-55.1998480478932 -338.1128394801184,-53.36972102894001 -335.61283948011777,-52.69984804782677" stroke="#00f" stroke-linecap="round" stroke-linejoin="round"/><polyline fill="none" points="110.21681144161279,-118.23755363997202 112.71681144163104,-118.90742662101945 114.54693846058423,-120.73755363992446 115.21681144169747,-123.23755363992507 114.54693846065004,-125.73755363994331 112.71681144174504,-127.5676806588965 110.21681144174443,-128.23755364000974 107.71681144172618,-127.5676806589623 105.88668442277299,-125.7375536400573 105.21681144165974,-123.23755364005669 105.88668442270716,-120.73755364003844 107.71681144161217,-118.90742662108525 110.21681144161278,-118.237553639972" stroke="#00f" stroke-linecap="round" stroke-linejoin="round"/><polyline fill="none" points="-256.65276113896965,-110.55343662778606 -254.1527611389514,-111.22330960883347 -252.3226341199982,-113.05343662773848 -251.65276113888496,-115.55343662773909 -252.3226341199324,-118.05343662775734 -254.1527611388374,-119.88356364671053 -256.652761138838,-120.55343662782377 -259.15276113885625,-119.88356364677635 -260.98288815780944,-118.05343662787135 -261.6527611389227,-115.55343662787074 -260.98288815787527,-113.05343662785249 -259.1527611389703,-111.2233096088993 -256.65276113896965,-110.55343662778606" stroke="#ffa500" stroke-linecap="round" stroke-linejoin="round"/><polyline fill="none" points="-259.9704294439806,127.86767656605184 -257.47042944396236,127.19780358500442 -255.64030242500917,125.36767656609942 -254.9704294438959,122.86767656609881 -255.64030242494334,120.36767656608056 -257.47042944384833,118.53754954712737 -259.97042944384896,117.86767656601413 -262.4704294438672,118.53754954706154 -264.3005564628204,120.36767656596655 -264.97042944393365,122.86767656596716 -264.3005564628862,125.36767656598542 -262.47042944398123,127.19780358493861 -259.9704294439806,127.86767656605186" stroke="#ffa500" stroke-linecap="round" stroke-linejoin="round"/><polyline fill="none" points="-199.683135991691,18.35781211330986 -197.18313599167274,17.68793913226244 -195.35300897271955,15.857812113357435 -194.6831359916063,13.35781211335682 -195.3530089726537,10.857812113338564 -197.18313599155871,9.027685094385369 -199.68313599155934,8.357812113272118 -202.1831359915776,9.027685094319537 -204.01326301053078,10.85781211322454 -204.68313599164404,13.357812113225155 -204.01326301059663,15.85781211324341 -202.1831359916916,17.687939132196608 -199.683135991691,18.35781211330986" stroke="#00f" stroke-linecap="round" stroke-linejoin="round"/><polyline fill="none" points="-258.3725194998902,-51.26155809590387 -255.87251949987194,-51.93143107695129 -254.04239248091875,-53.761558095856294 -253.3725194998055,-56.26155809585691 -254.0423924808529,-58.761558095875166 -255.8725194997579,-60.591685114828365 -258.37251949975854,-61.261558095941616 -260.8725194997768,-60.5916851148942 -262.70264651873,-58.761558095989194 -263.37251949984324,-56.261558095988576 -262.7026465187958,-53.76155809597032 -260.8725194998908,-51.93143107701712 -258.3725194998902,-51.261558095903865" stroke="#008000" stroke-linecap="round" stroke-linejoin="round"/><polyline fill="none" points="142.7216518479924,-78.39454715209894 145.22165184801065,-79.06442013314636 147.05177886696384,-80.89454715205136 147.7216518480771,-83.39454715205197 147.0517788670297,-85.89454715207023 145.2216518481247,-87.72467417102344 142.72165184812408,-88.3945471521367 140.22165184810584,-87.72467417108928 138.39152482915264,-85.89454715218427 137.7216518480394,-83.39454715218366 138.3915248290868,-80.8945471521654 140.22165184799178,-79.0644201332122 142.7216518479924,-78.39454715209894" stroke="#ffa500" stroke-linecap="round" stroke-linejoin="round"/><polyline fill="none" points="74.16639832914889,-182.5943923685399 76.66639832916715,-183.2642653495873 78.49652534812036,-185.0943923684923 79.16639832923362,-187.59439236849292 78.4965253481862,-190.09439236851117 76.6663983292812,-191.92451938746436 74.16639832928058,-192.59439236857762 71.66639832926232,-191.9245193875302 69.83627131030912,-190.09439236862522 69.16639832919586,-187.5943923686246 69.83627131024326,-185.09439236860635 71.66639832914827,-183.26426534965316 74.16639832914888,-182.5943923685399" stroke="#ffa500" stroke-linecap="round" stroke-linejoin="round"/><polyline fill="none" points="-272.24487414415483,-80.49618353608474 -269.7448741441366,-81.16605651713215 -267.9147471251834,-82.99618353603715 -267.24487414407014,-85.49618353603776 -267.9147471251176,-87.99618353605602 -269.74487414402256,-89.82631055500923 -272.2448741440232,-90.49618353612249 -274.74487414404143,-89.82631055507508 -276.5750011629946,-87.99618353617008 -277.2448741441079,-85.49618353616947 -276.57500116306045,-82.99618353615121 -274.74487414415546,-81.166056517198 -272.24487414415483,-80.49618353608474" stroke="#00f" stroke-linecap="round" stroke-linejoin="round"/><polyline fill="none" points="80.79051668685608,-130.15315190171046 83.29051668687434,-130.82302488275786 85.12064370582755,-132.65315190166285 85.7905166869408,-135.15315190166348 85.1206437058934,-137.65315190168175 83.2905166869884,-139.48327892063497 80.79051668698779,-140.15315190174823 78.29051668696953,-139.48327892070083 76.46038966801632,-137.65315190179584 75.79051668690305,-135.1531519017952 76.46038966795045,-132.65315190177694 78.29051668685545,-130.82302488282372 80.79051668685607,-130.15315190171046" stroke="#00f" stroke-linecap="round" stroke-linejoin="round"/><polyline fill="none" points="66.48304076579004,-88.31817636668706 68.9830407658083,-88.98804934773446 70.8131677847615,-90.81817636663946 71.48304076587478,-93.31817636664007 70.81316778482737,-95.81817636665834 68.98304076592237,-97.64830338561154 66.48304076592176,-98.31817636672481 63.983040765903496,-97.64830338567741 62.15291374695028,-95.81817636677242 61.48304076583702,-93.31817636677181 62.15291374688442,-90.81817636675355 63.98304076578942,-88.98804934780034 66.48304076579004,-88.31817636668707" stroke="#ffa500" stroke-linecap="round" stroke-linejoin="round"/><polyline fill="none" points="-242.22463966739303,112.22589023522602 -239.72463966737476,111.55601725417861 -237.89451264842154,109.72589023527362 -237.22463966730828,107.22589023527301 -237.8945126483557,104.72589023525475 -239.72463966726067,102.89576321630155 -242.2246396672613,102.22589023518827 -244.72463966727958,102.89576321623568 -246.5547666862328,104.72589023514067 -247.22463966734605,107.22589023514128 -246.55476668629865,109.72589023515954 -244.72463966739366,111.55601725411276 -242.22463966739303,112.22589023522603" stroke="#ffa500" stroke-linecap="round" stroke-linejoin="round"/><polyline fill="none" points="-275.6758829246096,-55.236189202244105 -273.17588292459135,-55.9060621832915 -271.34575590563816,-57.7361892021965 -270.6758829245249,-60.23618920219712 -271.3457559055723,-62.736189202215385 -273.17588292447726,-64.5663162211686 -275.6758829244779,-65.23618920228188 -278.17588292449614,-64.56631622123447 -280.0060099434493,-62.73618920232948 -280.6758829245626,-60.23618920232886 -280.0060099435152,-57.73618920231059 -278.1758829246102,-55.90606218335738 -275.6758829246096,-55.236189202244105" stroke="#008000" stroke-linecap="round" stroke-linejoin="round"/><polyline fill="none" points="-168.9480815910509,-14.850864252570272 -166.44808159103263,-15.520737233617671 -164.6179545720794,-17.350864252522662 -163.94808159096613,-19.850864252523277 -164.61795457201353,-22.350864252541545 -166.44808159091852,-24.18099127149476 -168.94808159091914,-24.850864252608037 -171.44808159093742,-24.18099127156064 -173.27820860989064,-22.350864252655647 -173.94808159100393,-19.850864252655033 -173.27820860995652,-17.350864252636764 -171.44808159105153,-15.520737233683546 -168.9480815910509,-14.850864252570268" stroke="#ffa500" stroke-linecap="round" stroke-linejoin="round"/><polyline fill="none" points="-199.34404198213042,-67.53784055169143 -196.84404198211215,-68.20771353273882 -195.01391496315892,-70.03784055164381 -194.34404198204564,-72.53784055164442 -195.01391496309304,-75.0378405516627 -196.84404198199803,-76.86796757061592 -199.34404198199866,-77.53784055172919 -201.84404198201693,-76.8679675706818 -203.67416900097015,-75.03784055177681 -204.34404198208344,-72.5378405517762 -203.67416900103603,-70.03784055175792 -201.84404198213105,-68.2077135328047 -199.34404198213042,-67.53784055169142" stroke="#ffa500" stroke-linecap="round" stroke-linejoin="round"/><polyline fill="none" points="-230.53291298577616,-80.59816897714668 -228.0329129857579,-81.26804195819408 -226.20278596680467,-83.09816897709906 -225.53291298569138,-85.59816897709968 -226.2027859667388,-88.09816897711795 -228.03291298564378,-89.92829599607117 -230.5329129856444,-90.59816897718446 -233.03291298566268,-89.92829599613707 -234.8630400046159,-88.09816897723208 -235.53291298572918,-85.59816897723147 -234.86304000468178,-83.09816897721319 -233.0329129857768,-81.26804195825997 -230.53291298577616,-80.59816897714668" stroke="#00f" stroke-linecap="round" stroke-linejoin="round"/><polyline fill="none" points="35.86860825272025,212.9630028493439 38.36860825273852,212.2931298682965 40.19873527169174,210.4630028493915 40.86860825280502,207.96300284939088 40.19873527175763,205.4630028493726 38.36860825285264,203.63287583041938 35.86860825285202,202.9630028493061 33.36860825283375,203.63287583035347 31.53848123388053,205.46300284925846 30.868608252767245,207.96300284925908 31.538481233814636,210.46300284927736 33.368608252719625,212.29312986823058 35.86860825272024,212.96300284934387" stroke="#ffa500" stroke-linecap="round" stroke-linejoin="round"/><polyline fill="none" points="-217.02624540448818,17.53631554495835 -214.5262454044699,16.866442563910958 -212.69611838551668,15.036315545005971 -212.0262454044034,12.536315545005355 -212.69611838545077,10.036315544987081 -214.52624540435576,8.206188526033854 -217.0262454043564,7.536315544920567 -219.52624540437466,8.206188525967956 -221.35637242332788,10.036315544872943 -222.02624540444117,12.53631554487356 -221.3563724233938,15.036315544891833 -219.5262454044888,16.866442563845062 -217.02624540448818,17.53631554495835" stroke="#ffa500" stroke-linecap="round" stroke-linejoin="round"/></svg>