<?xml version="1.0" ?><!DOCTYPE svg  PUBLIC '-//W3C//DTD SVG 1.1//EN'  'http://www.w3.org/Graphics/SVG/1.1/DTD/svg11.dtd'><svg height="324.000" viewBox="-148.000 -151.000 298.000 324.000" width="298.000" xmlns="http://www.w3.org/2000/svg"><line fill="none" stroke="none" stroke-linecap="round" stroke-width="2.0" x1="0.0" x2="0.0" y1="0.0" y2="0.0"/><polygon fill="none" fill-rule="evenodd" points="0.0,0.0 0.0,0.0 0.0,0.0" stroke-linejoin="round"/><polyline fill="none" points="-8.775583540641955,-86.02043761265983 -6.275583540640074,-86.69031059373452 -4.445456521714693,-88.52043761265496 -3.7755835406332454,-91.02043761265503 -4.445456521707935,-93.5204376126569 -6.275583540628368,-95.35056463158229 -8.775583540628439,-96.02043761266374 -11.27558354063032,-95.35056463158905 -13.105710559555703,-93.52043761266862 -13.775583540637152,-91.02043761266854 -13.105710559562464,-88.52043761266667 -11.275583540642032,-86.69031059374129 -8.77558354064196,-86.02043761265983" stroke="#ffa500" stroke-linecap="round" stroke-linejoin="round"/><polyline fill="none" points="27.861247787957947,-89.76844577810782 30.36124778795983,-90.43831875918251 32.191374806885214,-92.26844577810294 32.86124778796666,-94.76844577810301 32.19137480689197,-97.2684457781049 30.36124778797154,-99.09857279703029 27.861247787971468,-99.76844577811174 25.361247787969585,-99.09857279703705 23.5311207690442,-97.26844577811661 22.86124778796275,-94.76844577811654 23.531120769037436,-92.26844577811465 25.36124778795787,-90.43831875918927 27.86124778795794,-89.76844577810782" stroke="#ffa500" stroke-linecap="round" stroke-linejoin="round"/><polyline fill="none" points="42.42792601768785,-117.42082330189221 44.927926017689735,-118.0906962829669 46.758053036615124,-119.92082330188734 47.42792601769658,-122.42082330188741 46.758053036621895,-124.9208233018893 44.927926017701466,-126.75095032081468 42.427926017701395,-127.42082330189614 39.92792601769951,-126.75095032082145 38.097798998774124,-124.92082330190101 37.42792601769267,-122.42082330190094 38.09779899876735,-119.92082330189905 39.92792601768778,-118.09069628297367 42.42792601768785,-117.42082330189221" stroke="#ffa500" stroke-linecap="round" stroke-linejoin="round"/><polyline fill="none" points="29.008372535571628,-97.58425053658499 31.508372535573514,-98.25412351765966 33.3384995544989,-100.0842505365801 34.00837253558036,-102.58425053658017 33.338499554505674,-105.08425053658206 31.508372535585245,-106.91437755550746 29.008372535585174,-107.58425053658891 26.508372535583288,-106.91437755551424 24.6782455166579,-105.0842505365938 24.00837253557644,-102.58425053659373 24.67824551665112,-100.08425053659184 26.50837253557155,-98.25412351766644 29.00837253557162,-97.58425053658499" stroke="#ffa500" stroke-linecap="round" stroke-linejoin="round"/><polyline fill="none" points="-36.860450053992594,26.52005716378573 -34.360450053990704,25.85018418271105 -32.530323035065315,24.02005716379062 -31.860450053983858,21.52005716379055 -32.53032303505854,19.020057163788664 -34.360450053978965,17.189930144863272 -36.86045005397904,16.520057163781814 -39.36045005398093,17.189930144856493 -41.19057707290632,19.020057163776922 -41.86045005398778,21.520057163776993 -41.19057707291311,24.02005716377888 -39.36045005399268,25.85018418270427 -36.86045005399261,26.520057163785733" stroke="#00f" stroke-linecap="round" stroke-linejoin="round"/><polyline fill="none" points="-62.97724141092739,-37.20783892957708 -60.4772414109255,-37.877711910651755 -58.647114392000105,-39.70783892957218 -57.977241410918644,-42.207838929572254 -58.64711439199332,-44.707838929574145 -60.47724141091375,-46.53796594849954 -62.97724141091382,-47.207838929581 -65.47724141091571,-46.537965948506326 -67.3073684298411,-44.7078389295859 -67.97724141092257,-42.207838929585826 -67.3073684298479,-39.707838929583936 -65.47724141092748,-37.87771191065854 -62.977241410927405,-37.20783892957708" stroke="#00f" stroke-linecap="round" stroke-linejoin="round"/><polyline fill="none" points="14.468311937221594,-102.0297534088583 16.968311937223486,-102.69962638993297 18.798438956148882,-104.5297534088534 19.468311937230347,-107.02975340885347 18.79843895615567,-109.52975340885536 16.968311937235246,-111.35988042778075 14.468311937235175,-112.02975340886222 11.968311937233283,-111.35988042778754 10.138184918307886,-109.52975340886712 9.468311937226419,-107.02975340886705 10.138184918301093,-104.52975340886516 11.968311937221518,-102.69962638993977 14.46831193722159,-102.0297534088583" stroke="#ffa500" stroke-linecap="round" stroke-linejoin="round"/><polyline fill="none" points="83.11276444537323,-130.35936686329865 85.61276444537512,-131.0292398443733 87.44289146430052,-132.85936686329373 88.11276444538198,-135.35936686329381 87.44289146430731,-137.85936686329572 85.61276444538689,-139.68949388222111 83.11276444538682,-140.35936686330257 80.61276444538493,-139.6894938822279 78.78263742645953,-137.85936686330749 78.11276444537806,-135.3593668633074 78.78263742645274,-132.8593668633055 80.61276444537316,-131.0292398443801 83.11276444537323,-130.35936686329862" stroke="#ffa500" stroke-linecap="round" stroke-linejoin="round"/><polyline fill="none" points="-61.75402153133472,-38.70437604508139 -59.25402153133283,-39.37424902615606 -57.42389451240743,-41.20437604507648 -56.75402153132596,-43.70437604507655 -57.42389451240063,-46.20437604507845 -59.25402153132105,-48.03450306400385 -61.75402153132112,-48.70437604508532 -64.25402153132302,-48.03450306401065 -66.08414855024841,-46.20437604509023 -66.75402153132988,-43.70437604509016 -66.08414855025521,-41.20437604508826 -64.25402153133479,-39.37424902616286 -61.754021531334715,-38.70437604508138" stroke="#00f" stroke-linecap="round" stroke-linejoin="round"/><polyline fill="none" points="1.2239492003787404,36.01283646333244 3.723949200380635,35.34296348225777 5.5540762193060385,33.51283646333735 6.223949200387511,31.01283646333728 5.554076219312844,28.512836463335386 3.723949200392422,26.682709444409983 1.2239492003923504,26.01283646332851 -1.276050799609545,26.68270944440318 -3.10617781853495,28.512836463323602 -3.7760507996164243,31.012836463323673 -3.1061778185417586,33.51283646332557 -1.2760507996213377,35.34296348225097 1.2239492003787338,36.01283646333245" stroke="#00f" stroke-linecap="round" stroke-linejoin="round"/><polyline fill="none" points="73.48253544329658,-56.12857364412055 75.98253544329847,-56.79844662519522 77.81266246222388,-58.62857364411564 78.48253544330537,-61.12857364411571 77.8126624622307,-63.62857364411761 75.98253544331028,-65.45870066304302 73.48253544331021,-66.1285736441245 70.98253544330831,-65.45870066304984 69.1524084243829,-63.62857364412942 68.48253544330142,-61.12857364412935 69.15240842437608,-58.62857364412745 70.9825354432965,-56.79844662520204 73.48253544329657,-56.128573644120564" stroke="#ffa500" stroke-linecap="round" stroke-linejoin="round"/><polyline fill="none" points="70.28089525074978,-63.99622613514386 72.78089525075168,-64.66609911621852 74.6110222696771,-66.49622613513894 75.28089525075858,-68.99622613513901 74.61102226968391,-71.49622613514092 72.78089525076349,-73.32635315406633 70.28089525076342,-73.99622613514781 67.78089525076152,-73.32635315407315 65.95076823183611,-71.49622613515272 65.28089525075463,-68.99622613515265 65.95076823182929,-66.49622613515075 67.78089525074971,-64.66609911622534 70.28089525074978,-63.99622613514386" stroke="#ffa500" stroke-linecap="round" stroke-linejoin="round"/><polyline fill="none" points="79.1889585985,-108.45462261977049 81.6889585985019,-109.12449560084515 83.51908561742731,-110.95462261976557 84.18895859850879,-113.45462261976564 83.51908561743413,-115.95462261976755 81.68895859851371,-117.78474963869296 79.18895859851364,-118.45462261977444 76.68895859851173,-117.78474963869978 74.85883157958632,-115.95462261977936 74.18895859850484,-113.45462261977929 74.8588315795795,-110.95462261977738 76.68895859849992,-109.12449560085197 79.1889585985,-108.45462261977049" stroke="#ffa500" stroke-linecap="round" stroke-linejoin="round"/><polyline fill="none" points="8.90392579040393,33.54780405589541 11.40392579040583,32.87793107482075 13.234052809331244,31.047804055900333 13.903925790412728,28.54780405590026 13.23405280933807,26.04780405589836 11.403925790417654,24.217677036972947 8.903925790417581,23.54780405589146 6.40392579041568,24.21767703696612 4.573798771490264,26.047804055886534 3.9039257904087776,28.547804055886605 4.573798771483434,31.047804055888506 6.40392579040385,32.87793107481392 8.903925790403923,33.54780405589541" stroke="#00f" stroke-linecap="round" stroke-linejoin="round"/><polyline fill="none" points="69.73598416621685,-46.31409403892798 72.23598416621876,-46.98396702000264 74.06611118514418,-48.81409403892305 74.73598416622566,-51.31409403892312 74.066111185151,-53.81409403892503 72.23598416623058,-55.644221057850444 69.73598416623051,-56.314094038931934 67.2359841662286,-55.64422105785728 65.40585714730318,-53.814094038936865 64.7359841662217,-51.314094038936794 65.40585714729635,-48.81409403893489 67.23598416621677,-46.98396702000947 69.73598416621684,-46.31409403892798" stroke="#ffa500" stroke-linecap="round" stroke-linejoin="round"/><polyline fill="none" points="78.4795581197379,-74.93924237290909 80.9795581197398,-75.60911535398374 82.80968513866523,-77.43924237290416 83.47955811974673,-79.93924237290423 82.80968513867208,-82.43924237290614 80.97955811975167,-84.26936939183156 78.4795581197516,-84.93924237291306 75.9795581197497,-84.26936939183841 74.14943110082427,-82.439242372918 73.47955811974278,-79.93924237291793 74.14943110081742,-77.43924237291603 75.97955811973783,-75.6091153539906 78.4795581197379,-74.9392423729091" stroke="#ffa500" stroke-linecap="round" stroke-linejoin="round"/><polyline fill="none" points="-24.96803659119078,-0.05342348823776799 -22.468036591188874,-0.7232964693124189 -20.63790957226345,-2.5534234882328324 -19.968036591181956,-5.053423488232905 -20.637909572256607,-7.553423488234812 -22.468036591177018,-9.383550507160235 -24.968036591177093,-10.05342348824173 -27.468036591179,-9.383550507167081 -29.298163610104424,-7.553423488246668 -29.96803659118592,-5.053423488246596 -29.298163610111274,-2.5534234882446882 -27.468036591190863,-0.7232964693192638 -24.96803659119079,-0.05342348823776777" stroke="#008000" stroke-linecap="round" stroke-linejoin="round"/><polyline fill="none" points="114.3815756402436,-39.81591120221602 116.8815756402455,-40.48578418329067 118.71170265917092,-42.31591120221108 119.38157564025242,-44.815911202211154 118.71170265917777,-47.315911202213066 116.88157564025737,-49.14603822113849 114.3815756402573,-49.815911202219986 111.88157564025539,-49.14603822114534 110.05144862132997,-47.315911202224925 109.38157564024847,-44.815911202224854 110.05144862132312,-42.31591120222294 111.88157564024353,-40.48578418329752 114.3815756402436,-39.81591120221602" stroke="#ffa500" stroke-linecap="round" stroke-linejoin="round"/><polyline fill="none" points="-29.165501020829378,-3.3565117182146498 -26.665501020827467,-4.026384699289296 -24.83537400190204,-5.856511718209707 -24.16550102082054,-8.35651171820978 -24.835374001895186,-10.85651171821169 -26.665501020815597,-12.68663873713712 -29.16550102081567,-13.35651171821862 -31.665501020817583,-12.686638737143975 -33.49562803974301,-10.856511718223565 -34.165501020824514,-8.35651171822349 -33.49562803974987,-5.856511718221579 -31.665501020829456,-4.02638469929615 -29.16550102082938,-3.3565117182146484" stroke="#00f" stroke-linecap="round" stroke-linejoin="round"/><polyline fill="none" points="45.05207773696578,-60.039358493662675 47.55207773696769,-60.70923147473732 49.38220475589312,-62.53935849365773 50.052077736974624,-65.0393584936578 49.382204755899984,-67.5393584936597 47.55207773697958,-69.36948551258513 45.052077736979506,-70.03935849366663 42.552077736977594,-69.36948551259198 40.72195071805216,-67.53935849367157 40.05207773697066,-65.0393584936715 40.7219507180453,-62.53935849366959 42.55207773696571,-60.70923147474416 45.05207773696578,-60.039358493662654" stroke="#00f" stroke-linecap="round" stroke-linejoin="round"/><polyline fill="none" points="125.63529240896581,-50.16332117535795 128.13529240896773,-50.83319415643259 129.96541942789315,-52.663321175353 130.63529240897466,-55.16332117535307 129.96541942790003,-57.66332117535498 128.13529240897964,-59.49344819428041 125.63529240897957,-60.163321175361915 123.13529240897765,-59.493448194287275 121.30516539005221,-57.66332117536687 120.6352924089707,-55.1633211753668 121.30516539004533,-52.663321175364885 123.13529240896574,-50.833194156439454 125.63529240896581,-50.16332117535795" stroke="#ffa500" stroke-linecap="round" stroke-linejoin="round"/><polyline fill="none" points="110.73335468931569,-56.30712206718726 113.23335468931761,-56.9769950482619 115.06348170824305,-58.807122067182306 115.73335468932456,-61.30712206718238 115.06348170824992,-63.80712206718429 113.23335468932952,-65.63724908610972 110.73335468932945,-66.30712206719123 108.23335468932753,-65.6372490861166 106.40322767040209,-63.80712206719619 105.73335468932058,-61.30712206719612 106.40322767039521,-58.80712206719421 108.23335468931562,-56.97699504826877 110.73335468931569,-56.30712206718726" stroke="#ffa500" stroke-linecap="round" stroke-linejoin="round"/><polyline fill="none" points="63.11590575840863,-40.60213776859287 65.61590575841055,-41.2720107496675 67.44603277733599,-43.10213776858791 68.1159057584175,-45.60213776858798 67.44603277734286,-48.1021377685899 65.61590575842246,-49.93226478751534 63.115905758422386,-50.60213776859685 60.61590575842047,-49.932264787522215 58.78577873949503,-48.10213776860181 58.11590575841352,-45.602137768601736 58.78577873948815,-43.10213776859982 60.61590575840855,-41.27201074967438 63.11590575840862,-40.60213776859287" stroke="#ffa500" stroke-linecap="round" stroke-linejoin="round"/><polyline fill="none" points="38.75689368034739,36.02735293523263 41.25689368034931,35.357479954157995 43.087020699274746,33.527352935237595 43.75689368035626,31.027352935237523 43.087020699281624,28.52735293523561 41.25689368036122,26.69722591631017 38.75689368036115,26.027352935228656 36.256893680359234,26.69722591630329 34.426766661433795,28.527352935223693 33.75689368035228,31.027352935223767 34.42676666142691,33.527352935225686 36.25689368034731,35.357479954151124 38.75689368034738,36.02735293523264" stroke="#00f" stroke-linecap="round" stroke-linejoin="round"/><polyline fill="none" points="32.265590907672625,-18.97189171685544 34.76559090767454,-19.64176469793007 36.59571792659999,-21.47189171685047 37.265590907681506,-23.971891716850543 36.59571792660687,-26.47189171685246 34.76559090768647,-28.302018735777903 32.2655909076864,-28.97189171685942 29.765590907684484,-28.30201873578479 27.935463888759042,-26.47189171686439 27.265590907677524,-23.97189171686432 27.935463888752153,-21.4718917168624 29.765590907672554,-19.641764697936956 32.265590907672625,-18.97189171685544" stroke="#00f" stroke-linecap="round" stroke-linejoin="round"/><polyline fill="none" points="32.88567387476872,-25.434116177999147 35.38567387477064,-26.103989159073777 37.215800893696084,-27.934116177994177 37.8856738747776,-30.434116177994248 37.215800893702976,-32.93411617799617 35.385673874782576,-34.76424319692161 32.885673874782505,-35.43411617800313 30.385673874780586,-34.764243196928504 28.55554685585514,-32.934116178008104 27.88567387477362,-30.434116178008033 28.555546855848245,-27.934116178006114 30.385673874768642,-26.10398915908067 32.88567387476871,-25.434116177999147" stroke="#00f" stroke-linecap="round" stroke-linejoin="round"/><polyline fill="none" points="114.92990192933965,24.383792807992 117.42990192934157,23.713919826917373 119.26002894826702,21.883792807996976 119.92990192934855,19.3837928079969 119.26002894827393,16.88379280799498 117.42990192935353,15.05366578906953 114.92990192935346,14.383792807988007 112.42990192935154,15.05366578906263 110.59977491042609,16.883792807983028 109.92990192934457,19.3837928079831 110.59977491041919,21.88379280798502 112.42990192933958,23.71391982691047 114.92990192933965,24.383792807991995" stroke="#ffa500" stroke-linecap="round" stroke-linejoin="round"/><polyline fill="none" points="132.69221690496332,27.58451615173046 135.19221690496525,26.914643170655836 137.0223439238907,25.08451615173544 137.69221690497224,22.584516151735365 137.0223439238976,20.084516151733443 135.19221690497722,18.254389132807994 132.69221690497713,17.58451615172647 130.1922169049752,18.25438913280109 128.36208988604974,20.084516151721488 127.69221690496822,22.58451615172156 128.36208988604284,25.08451615172348 130.19221690496323,26.914643170648933 132.69221690496332,27.584516151730462" stroke="#ffa500" stroke-linecap="round" stroke-linejoin="round"/><polyline fill="none" points="86.91808561858367,14.356111960717657 89.4180856185856,13.686238979643036 91.24821263751105,11.856111960722641 91.91808561859257,9.356111960722568 91.24821263751795,6.856111960720645 89.41808561859756,5.025984941795191 86.91808561859749,4.356111960713662 84.41808561859557,5.0259849417882805 82.58795859967012,6.856111960708676 81.91808561858859,9.356111960708748 82.58795859966321,11.856111960710674 84.4180856185836,13.686238979636128 86.91808561858367,14.356111960717659" stroke="#ffa500" stroke-linecap="round" stroke-linejoin="round"/><polyline fill="none" points="116.69313669135312,-2.013555760596435 119.19313669135504,-2.6834287416710527 121.02326371028049,-4.513555760591446 121.69313669136201,-7.013555760591519 121.0232637102874,-9.513555760593444 119.193136691367,-11.3436827795189 116.69313669136693,-12.013555760600433 114.193136691365,-11.343682779525816 112.36300967243955,-9.513555760605422 111.693136691358,-7.01355576060535 112.36300967243263,-4.513555760603424 114.19313669135302,-2.683428741677967 116.69313669135309,-2.0135557605964336" stroke="#ffa500" stroke-linecap="round" stroke-linejoin="round"/><polyline fill="none" points="42.982695970075426,19.988070161400366 45.48269597007735,19.31819718032575 47.31282298900281,17.488070161405357 47.98269597008434,14.988070161405284 47.31282298900973,12.488070161403357 45.48269597008934,10.6579431424779 42.98269597008927,9.988070161396365 40.48269597008734,10.65794314247098 38.65256895116188,12.488070161391372 37.98269597008035,14.988070161391445 38.65256895115496,17.488070161393374 40.482695970075355,19.318197180318833 42.982695970075426,19.98807016140037" stroke="#ffa500" stroke-linecap="round" stroke-linejoin="round"/><polyline fill="none" points="48.80604355047651,-21.27905274248212 51.306043550478435,-21.94892572355673 53.136170569403895,-23.77905274247712 53.806043550485434,-26.27905274247719 53.13617056941082,-28.77905274247912 51.30604355049043,-30.60917976140458 48.80604355049036,-31.27905274248612 46.30604355048843,-30.609179761411507 44.47591653156297,-28.779052742491118 43.806043550481434,-26.279052742491047 44.475916531556045,-23.779052742489117 46.30604355047644,-21.948925723563654 48.80604355047651,-21.279052742482115" stroke="#00f" stroke-linecap="round" stroke-linejoin="round"/><polyline fill="none" points="-36.52065306320742,-32.81999555664309 -34.020653063205486,-33.489868537717705 -32.19052604428003,-35.31999555663809 -31.520653063198488,-37.81999555663816 -32.1905260442731,-40.319995556640094 -34.020653063193485,-42.15012257556556 -36.520653063193556,-42.8199955566471 -39.02065306319549,-42.15012257557249 -40.850780082120956,-40.3199955566521 -41.520653063202495,-37.81999555665203 -40.85078008212788,-35.3199955566501 -39.0206530632075,-33.48986853772463 -36.520653063207426,-32.81999555664309" stroke="#ffa500" stroke-linecap="round" stroke-linejoin="round"/><polyline fill="none" points="38.5284672496296,82.34653761264494 41.02846724963153,81.67666463157033 42.858594268557,79.84653761264994 43.52846724963854,77.34653761264987 42.858594268563934,74.84653761264794 41.02846724964355,73.01641059372247 38.52846724964348,72.34653761264093 36.028467249641544,73.01641059371553 34.19834023071608,74.84653761263593 33.52846724963453,77.346537612636 34.198340230709135,79.84653761263793 36.02846724962952,81.6766646315634 38.52846724962959,82.34653761264494" stroke="#ffa500" stroke-linecap="round" stroke-linejoin="round"/><polyline fill="none" points="114.52061307972657,87.26633582622304 117.0206130797285,86.59646284514844 118.85074009865397,84.76633582622804 119.52061307973551,82.26633582622797 118.8507400986609,79.76633582622604 117.02061307974051,77.93620880730057 114.52061307974044,77.26633582621903 112.02061307973851,77.93620880729364 110.19048606081304,79.76633582621403 109.5206130797315,82.2663358262141 110.19048606080611,84.76633582621604 112.0206130797265,86.5964628451415 114.52061307972657,87.26633582622306" stroke="#ffa500" stroke-linecap="round" stroke-linejoin="round"/><polyline fill="none" points="-43.792267978189436,26.70580824602732 -41.2922679781875,26.035935264952716 -39.46214095926204,24.20580824603233 -38.79226797818049,21.705808246032255 -39.462140959255095,19.205808246030323 -41.29226797817548,17.375681227104852 -43.79226797817555,16.705808246023302 -46.292267978177485,17.375681227097907 -48.12239499710296,19.205808246018293 -48.792267978184505,21.705808246018368 -48.1223949971099,24.205808246020304 -46.292267978189514,26.035935264945774 -43.79226797818944,26.705808246027324" stroke="#f00" stroke-linecap="round" stroke-linejoin="round"/><polyline fill="none" points="89.60770321202959,58.57422211022544 92.10770321203152,57.90434912915084 93.93783023095699,56.07422211023045 94.60770321203854,53.57422211023038 93.93783023096394,51.07422211022845 92.10770321204356,49.244095091302974 89.60770321204349,48.57422211022142 87.10770321204156,49.24409509129602 85.27757619311609,51.074222110216404 84.60770321203454,53.574222110216475 85.27757619310914,56.07422211021841 87.10770321202952,57.90434912914388 89.60770321202959,58.574222110225435" stroke="#ffa500" stroke-linecap="round" stroke-linejoin="round"/><polyline fill="none" points="72.94001175614977,16.077417280991583 75.4400117561517,15.407544299916983 77.27013877507719,13.577417280996599 77.94001175615874,11.077417280996526 77.27013877508413,8.57741728099459 75.44001175616376,6.747290262069115 72.94001175616368,6.077417280987562 70.44001175616175,6.74729026206216 68.60988473723627,8.577417280982543 67.94001175615472,11.077417280982615 68.60988473722931,13.577417280984552 70.44001175614969,15.407544299910027 72.94001175614976,16.077417280991583" stroke="#ffa500" stroke-linecap="round" stroke-linejoin="round"/><polyline fill="none" points="122.37880590776139,61.75555639930208 124.87880590776332,61.08568341822748 126.7089329266888,59.2555563993071 127.37880590777036,56.75555639930703 126.70893292669577,54.25555639930509 124.87880590777539,52.42542938037961 122.37880590777532,51.75555639929806 119.87880590777338,52.425429380372655 118.0486788888479,54.255556399293035 117.37880590776635,56.755556399293106 118.04867888884094,59.255556399295045 119.87880590776132,61.085683418220526 122.37880590776139,61.75555639930209" stroke="#ffa500" stroke-linecap="round" stroke-linejoin="round"/><polyline fill="none" points="8.289716562609359,34.625006160958996 10.789716562611297,33.9551331798844 12.619843581536776,32.12500616096402 13.289716562618334,29.62500616096395 12.61984358154374,27.12500616096201 10.789716562623362,25.294879142036528 8.289716562623289,24.625006160954968 5.789716562621349,25.29487914202956 3.959589543695869,27.12500616094994 3.289716562614309,29.625006160950015 3.9595895436889013,32.125006160951955 5.78971656260928,33.955133179877436 8.289716562609353,34.625006160958996" stroke="#00f" stroke-linecap="round" stroke-linejoin="round"/><polyline fill="none" points="119.98664813873508,54.539203479574354 122.48664813873702,53.869330498499764 124.3167751576625,52.039203479579385 124.98664813874407,49.539203479579314 124.31677515766948,47.039203479577374 122.4866481387491,45.20907646065189 119.98664813874903,44.53920347957033 117.48664813874709,45.20907646064492 115.6565211198216,47.0392034795653 114.98664813874004,49.53920347956537 115.65652111981463,52.03920347956731 117.486648138735,53.86933049849279 119.98664813873508,54.539203479574354" stroke="#ffa500" stroke-linecap="round" stroke-linejoin="round"/><polyline fill="none" points="99.8159210838058,81.19819553197179 102.31592108380775,80.5283225508972 104.14604810273323,78.69819553197682 104.8159210838148,76.19819553197675 104.14604810274021,73.6981955319748 102.31592108381983,71.86806851304932 99.81592108381976,71.19819553196776 97.31592108381781,71.86806851304235 95.48579406489233,73.69819553196272 94.81592108381076,76.1981955319628 95.48579406488535,78.69819553196474 97.31592108380573,80.52832255089022 99.8159210838058,81.19819553197179" stroke="#ffa500" stroke-linecap="round" stroke-linejoin="round"/><polyline fill="none" points="83.8646936034242,128.44438190784405 86.36469360342615,127.77450892676946 88.19482062235163,125.94438190784908 88.8646936034332,123.444381907849 88.1948206223586,120.94438190784706 86.36469360343823,119.11425488892158 83.86469360343816,118.44438190784001 81.36469360343621,119.1142548889146 79.53456658451073,120.94438190783498 78.86469360342916,123.44438190783505 79.53456658450375,125.944381907837 81.36469360342413,127.77450892676248 83.8646936034242,128.44438190784405" stroke="#ffa500" stroke-linecap="round" stroke-linejoin="round"/><polyline fill="none" points="55.24270506075951,125.6630282204919 57.74270506076146,124.9931552394173 59.57283207968695,123.16302822049693 60.242705060768515,120.66302822049686 59.57283207969393,118.16302822049491 57.74270506077356,116.33290120156941 55.24270506077349,115.66302822048785 52.74270506077154,116.33290120156244 50.912578041846054,118.16302822048281 50.24270506076448,120.66302822048289 50.91257804183906,123.16302822048483 52.742705060759434,124.99315523941033 55.242705060759505,125.6630282204919" stroke="#ffa500" stroke-linecap="round" stroke-linejoin="round"/><polyline fill="none" points="-16.83980772696835,13.600881717007319 -14.339807726966404,12.931008735932735 -12.509680708040914,11.100881717012362 -11.839807726959341,8.600881717012289 -12.509680708033923,6.100881717010343 -14.339807726954296,4.270754698084851 -16.83980772695437,3.6008817170032783 -19.339807726956316,4.27075469807786 -21.169934745881807,6.100881716998233 -21.839807726963382,8.600881716998305 -21.169934745888803,11.100881717000252 -19.33980772696843,12.931008735925746 -16.83980772696836,13.60088171700732" stroke="#00f" stroke-linecap="round" stroke-linejoin="round"/><polyline fill="none" points="-64.90497667530465,34.71950699153609 -62.404976675302706,34.04963401046151 -60.57484965637721,32.21950699154114 -59.904976675295636,29.719506991541067 -60.57484965637021,27.21950699153912 -62.404976675290584,25.389379972613625 -64.90497667529065,24.71950699153205 -67.4049766752926,25.38937997260663 -69.2351036942181,27.219506991527002 -69.90497667529968,29.719506991527076 -69.2351036942251,32.21950699152902 -67.40497667530474,34.04963401045452 -64.90497667530467,34.71950699153609" stroke="#00f" stroke-linecap="round" stroke-linejoin="round"/><polyline fill="none" points="62.27326884436382,142.64528537091076 64.77326884436577,141.97541238983618 66.60339586329127,140.14528537091581 67.27326884437285,137.64528537091573 66.60339586329827,135.14528537091377 64.77326884437791,133.31515835198826 62.27326884437784,132.6452853709067 59.77326884437589,133.31515835198127 57.9431418254504,135.14528537090163 57.273268844368815,137.64528537090172 57.94314182544339,140.14528537090368 59.77326884436376,141.9754123898292 62.273268844363834,142.64528537091076" stroke="#ffa500" stroke-linecap="round" stroke-linejoin="round"/><polyline fill="none" points="33.20013114419212,108.1057143245638 35.70013114419407,107.43584134348923 37.53025816311956,105.60571432456886 38.200131144201144,103.1057143245688 37.53025816312657,100.60571432456685 35.700131144206196,98.77558730564135 33.200131144206125,98.10571432455977 30.700131144204175,98.77558730563435 28.870004125278676,100.60571432455471 28.200131144197094,103.10571432455478 28.870004125271667,105.60571432455673 30.700131144192035,107.43584134348222 33.200131144192106,108.1057143245638" stroke="#ffa500" stroke-linecap="round" stroke-linejoin="round"/><polyline fill="none" points="-41.41572788524561,31.356959841240176 -38.915727885243655,30.687086860165603 -37.08560086631815,28.856959841245235 -36.41572788523657,26.35695984124516 -37.08560086631115,23.85695984124321 -38.91572788523151,22.026832822317708 -41.41572788523158,21.356959841236122 -43.91572788523354,22.026832822310695 -45.74585490415904,23.856959841231063 -46.41572788524062,26.356959841231138 -45.74585490416605,28.85695984123309 -43.91572788524569,30.68708686015859 -41.415727885245616,31.356959841240176" stroke="#00f" stroke-linecap="round" stroke-linejoin="round"/><polyline fill="none" points="61.428435528005565,106.07417822567754 63.92843552800752,105.40430524460297 65.75856254693302,103.5741782256826 66.4284355280146,101.07417822568253 65.75856254694003,98.57417822568058 63.92843552801966,96.74405120675507 61.42843552801959,96.07417822567349 58.92843552801764,96.74405120674807 57.098308509092135,98.57417822566843 56.428435528010546,101.0741782256685 57.098308509085115,103.57417822567045 58.92843552800548,105.40430524459596 61.42843552800555,106.07417822567754" stroke="#ffa500" stroke-linecap="round" stroke-linejoin="round"/><polyline fill="none" points="32.836390393202095,20.841728739773238 35.33639039320405,20.17185575869867 37.16651741212955,18.341728739778304 37.83639039321114,15.841728739778231 37.16651741213657,13.341728739776277 35.336390393216206,11.511601720850772 32.836390393216135,10.841728739769183 30.33639039321418,11.51160172084375 28.506263374288675,13.341728739764115 27.836390393207086,15.841728739764187 28.50626337428165,18.341728739766143 30.336390393202016,20.17185575869165 32.83639039320209,20.84172873977324" stroke="#00f" stroke-linecap="round" stroke-linejoin="round"/><polyline fill="none" points="23.143067167091058,141.21209361272176 25.64306716709301,140.54222063164718 27.473194186018517,138.71209361272682 28.14306716710011,136.21209361272673 27.473194186025545,133.71209361272477 25.64306716710518,131.88196659379926 23.14306716710511,131.21209361271767 20.64306716710315,131.88196659379224 18.812940148177642,133.7120936127126 18.14306716709605,136.2120936127127 18.812940148170615,138.71209361271465 20.643067167090976,140.54222063164016 23.14306716709105,141.21209361272176" stroke="#ffa500" stroke-linecap="round" stroke-linejoin="round"/><polyline fill="none" points="29.495180680814936,107.81847833175075 31.995180680816894,107.14860535067619 33.8253076997424,105.31847833175583 34.495180680824,102.81847833175576 33.82530769974944,100.3184783317538 31.995180680829076,98.48835131282829 29.495180680829,97.81847833174669 26.995180680827044,98.48835131282125 25.16505366190153,100.31847833174162 24.495180680819935,102.81847833174169 25.165053661894497,105.31847833174365 26.995180680814858,107.14860535066916 29.495180680814933,107.81847833175075" stroke="#ffa500" stroke-linecap="round" stroke-linejoin="round"/><polyline fill="none" points="18.993954585720665,125.5831019607487 21.493954585722623,124.91322897967414 23.324081604648136,123.08310196075378 23.993954585729732,120.58310196075371 23.32408160465517,118.08310196075175 21.49395458573481,116.25297494182624 18.993954585734738,115.58310196074464 16.49395458573278,116.2529749418192 14.663827566807267,118.08310196073957 13.99395458572567,120.58310196073964 14.66382756680023,123.0831019607416 16.49395458572059,124.91322897966711 18.993954585720665,125.5831019607487" stroke="#ffa500" stroke-linecap="round" stroke-linejoin="round"/><polyline fill="none" points="39.59597353572654,84.76974243664822 42.095973535728504,84.09986945557365 43.92610055465402,82.26974243665329 44.595973535735624,79.76974243665322 43.92610055466107,77.26974243665126 42.09597353574071,75.43961541772575 39.59597353574064,74.76974243664415 37.09597353573868,75.43961541771871 35.26584651681316,77.26974243663908 34.59597353573156,79.76974243663915 35.265846516806114,82.26974243664111 37.09597353572647,84.09986945556662 39.59597353572654,84.76974243664822" stroke="#ffa500" stroke-linecap="round" stroke-linejoin="round"/><polyline fill="none" points="-5.549575774764356,31.103905574741038 -3.049575774762395,30.43403259366648 -1.2194487558368785,28.603905574746122 -0.5495757747552759,26.10390557474605 -1.2194487558298315,23.60390557474409 -3.0495757747501893,21.773778555818573 -5.549575774750261,21.10390557473697 -8.049575774752222,21.773778555811525 -9.87970279367774,23.603905574731883 -10.549575774759344,26.103905574731954 -9.879702793684789,28.603905574733915 -8.049575774764431,30.434032593659435 -5.549575774764358,31.103905574741038" stroke="#00f" stroke-linecap="round" stroke-linejoin="round"/><polyline fill="none" points="-36.73522181408533,146.93465104903902 -34.23522181408337,146.26477806796447 -32.40509479515785,144.4346510490441 -31.735221814076244,141.93465104904402 -32.405094795150795,139.43465104904206 -34.23522181407115,137.60452403011655 -36.735221814071224,136.93465104903495 -39.235221814073185,137.6045240301095 -41.06534883299871,139.43465104902987 -41.73522181408032,141.93465104902995 -41.065348833005764,144.4346510490319 -39.235221814085406,146.26477806795742 -36.735221814085335,146.93465104903902" stroke="#ffa500" stroke-linecap="round" stroke-linejoin="round"/><polyline fill="none" points="-60.59573634635368,61.51901700231912 -58.09573634635172,60.84914402124457 -56.2656093274262,59.01901700232421 -55.59573634634459,56.51901700232414 -56.265609327419135,54.01901700232217 -58.09573634633949,52.18888998339665 -60.595736346339564,51.51901700231504 -63.095736346341525,52.188889983389586 -64.92586336526705,54.019017002309944 -65.59573634634866,56.519017002310015 -64.92586336527411,59.01901700231198 -63.09573634635375,60.84914402123751 -60.59573634635368,61.51901700231912" stroke="#00f" stroke-linecap="round" stroke-linejoin="round"/><polyline fill="none" points="-55.39599646106204,161.09596703517062 -52.89599646106007,160.42609405409607 -51.06586944213455,158.5959670351757 -50.39599646105294,156.09596703517562 -51.065869442127486,153.59596703517366 -52.895996461047844,151.76584001624812 -55.395996461047915,151.0959670351665 -57.89599646104988,151.76584001624104 -59.726123479975406,153.5959670351614 -60.39599646105702,156.0959670351615 -59.72612347998247,158.59596703516345 -57.89599646106212,160.426094054089 -55.39599646106205,161.09596703517062" stroke="#ffa500" stroke-linecap="round" stroke-linejoin="round"/><polyline fill="none" points="-23.12353261339028,134.29083794382984 -20.623532613388313,133.6209649627553 -18.793405594462786,131.79083794383493 -18.123532613381172,129.29083794383484 -18.79340559445572,126.79083794383288 -20.623532613376074,124.96071092490736 -23.12353261337615,124.29083794382575 -25.623532613378117,124.9607109249003 -27.453659632303648,126.79083794382065 -28.12353261338526,129.29083794382072 -27.453659632310718,131.79083794382268 -25.623532613390363,133.62096496274822 -23.12353261339029,134.29083794382984" stroke="#ffa500" stroke-linecap="round" stroke-linejoin="round"/><polyline fill="none" points="-38.55731573360913,41.415815563089346 -36.05731573360716,40.7459425820148 -34.22718871468163,38.91581556309445 -33.557315733600014,36.41581556309438 -34.227188714674554,33.91581556309241 -36.057315733594905,32.08568854416688 -38.557315733594976,31.41581556308526 -41.057315733596944,32.0856885441598 -42.887442752522475,33.91581556308015 -43.55731573360409,36.41581556308023 -42.88744275252955,38.9158155630822 -41.0573157336092,40.74594258200773 -38.55731573360913,41.415815563089346" stroke="#008000" stroke-linecap="round" stroke-linejoin="round"/><polyline fill="none" points="-39.26751409158239,32.815750867003615 -36.76751409158042,32.145877885929075 -34.93738707265489,30.315750867008724 -34.267514091573275,27.81575086700865 -34.937387072647816,25.315750867006678 -36.76751409156817,23.485623848081143 -39.267514091568245,22.815750866999522 -41.76751409157022,23.485623848074063 -43.59764111049576,25.315750866994414 -44.26751409157738,27.815750866994488 -43.59764111050284,30.31575086699646 -41.76751409158249,32.145877885922 -39.26751409158241,32.81575086700362" stroke="#00f" stroke-linecap="round" stroke-linejoin="round"/><polyline fill="none" points="-29.734569450397604,40.93513554743399 -27.234569450395632,40.265262566359446 -25.4044424314701,38.435135547439096 -24.734569450388477,35.93513554743902 -25.404442431463018,33.43513554743704 -27.23456945038337,31.605008528511505 -29.734569450383443,30.93513554742988 -32.234569450385415,31.605008528504417 -34.06469646931095,33.435135547424764 -34.73456945039258,35.93513554742484 -34.06469646931804,38.43513554742682 -32.234569450397686,40.265262566352355 -29.73456945039761,40.93513554743398" stroke="#00f" stroke-linecap="round" stroke-linejoin="round"/><polyline fill="none" points="-55.327517692198604,34.72047923497494 -52.82751769219663,34.0506062539004 -50.99739067327109,32.22047923498005 -50.32751769218947,29.720479234979972 -50.99739067326401,27.220479234977997 -52.82751769218436,25.39035221605246 -55.327517692184436,24.720479234970835 -57.82751769218641,25.390352216045372 -59.65764471111195,27.22047923496572 -60.327517692193574,29.720479234965794 -59.65764471111904,32.22047923496777 -57.82751769219869,34.05060625389331 -55.32751769219861,34.72047923497493" stroke="#00f" stroke-linecap="round" stroke-linejoin="round"/><polyline fill="none" points="-61.432216625617855,136.1736122825988 -58.93221662561588,135.50373930152426 -57.10208960669034,133.67361228260393 -56.43221662560872,131.17361228260384 -57.10208960668325,128.67361228260188 -58.932216625603594,126.84348526367634 -61.43221662560367,126.17361228259472 -63.93221662560565,126.84348526366925 -65.76234364453119,128.6736122825896 -66.43221662561281,131.1736122825897 -65.76234364453828,133.67361228259168 -63.93221662561793,135.50373930151721 -61.432216625617855,136.17361228259884" stroke="#ffa500" stroke-linecap="round" stroke-linejoin="round"/><polyline fill="none" points="-88.05430046777995,109.1067866479268 -85.55430046777798,108.43691366685226 -83.72417344885244,106.60678664793191 -83.05430046777082,104.10678664793184 -83.72417344884535,101.60678664792987 -85.5543004677657,99.77665962900433 -88.05430046776577,99.1067866479227 -90.55430046776775,99.77665962899724 -92.38442748669328,101.60678664791759 -93.05430046777492,104.10678664791766 -92.38442748670039,106.60678664791963 -90.55430046778004,108.43691366684517 -88.05430046777997,109.10678664792681" stroke="#ffa500" stroke-linecap="round" stroke-linejoin="round"/><polyline fill="none" points="-76.49010979066955,68.38910255743978 -73.99010979066757,67.71922957636525 -72.15998277174202,65.8891025574449 -71.49010979066038,63.38910255744482 -72.15998277173492,60.88910255744284 -73.99010979065527,59.058975538517295 -76.49010979065534,58.38910255743566 -78.99010979065731,59.05897553851019 -80.82023680958287,60.88910255743053 -81.4901097906645,63.38910255743061 -80.82023680958997,65.8891025574326 -78.99010979066962,67.71922957635815 -76.49010979066955,68.38910255743978" stroke="#ffa500" stroke-linecap="round" stroke-linejoin="round"/><polyline fill="none" points="-72.83601930469725,83.99989998361919 -70.33601930469527,83.33002700254465 -68.50589228576972,81.4998999836243 -67.83601930468808,78.99989998362423 -68.50589228576261,76.49989998362226 -70.33601930468296,74.6697729646967 -72.83601930468303,73.99989998361507 -75.33601930468501,74.6697729646896 -77.16614632361056,76.49989998360994 -77.8360193046922,78.99989998361 -77.16614632361768,81.49989998361198 -75.33601930469734,83.33002700253753 -72.83601930469727,83.99989998361917" stroke="#ffa500" stroke-linecap="round" stroke-linejoin="round"/><polyline fill="none" points="-70.11434429913791,76.62009484048258 -67.61434429913594,75.95022185940806 -65.78421728021038,74.12009484048772 -65.11434429912875,71.62009484048765 -65.78421728020326,69.12009484048568 -67.6143442991236,67.28996782156013 -70.11434429912367,66.62009484047849 -72.61434429912566,67.289967821553 -74.44447131805121,69.12009484047334 -75.11434429913285,71.62009484047341 -74.44447131805833,74.1200948404754 -72.614344299138,75.95022185940095 -70.11434429913793,76.6200948404826" stroke="#ffa500" stroke-linecap="round" stroke-linejoin="round"/><polyline fill="none" points="-43.73861599776637,22.63885267207757 -41.238615997764384,21.968979691003046 -39.40848897883883,20.138852672082706 -38.73861599775719,17.63885267208263 -39.408488978831706,15.138852672080647 -41.23861599775205,13.308725653155093 -43.73861599775213,12.63885267207345 -46.23861599775411,13.308725653147972 -48.06874301667966,15.138852672068312 -48.73861599776131,17.63885267206839 -48.06874301668679,20.138852672070374 -46.238615997766445,21.96897969099593 -43.73861599776637,22.638852672077576" stroke="#008000" stroke-linecap="round" stroke-linejoin="round"/><polyline fill="none" points="-42.89196918877037,85.46559822747726 -40.391969188768385,84.79572524640274 -38.561842169842826,82.9655982274824 -37.89196918876118,80.46559822748233 -38.5618421698357,77.96559822748034 -40.391969188756036,76.13547120855479 -42.891969188756114,75.46559822747314 -45.3919691887581,76.13547120854766 -47.222096207683656,77.96559822746799 -47.8919691887653,80.46559822746806 -47.22209620769078,82.96559822747005 -45.391969188770446,84.7957252463956 -42.89196918877037,85.46559822747726" stroke="#00f" stroke-linecap="round" stroke-linejoin="round"/><polyline fill="none" points="-124.28077630872028,109.56083735622764 -121.78077630871829,108.89096437515312 -119.95064928979274,107.06083735623278 -119.28077630871108,104.56083735623271 -119.9506492897856,102.06083735623072 -121.78077630870594,100.23071033730515 -124.28077630870601,99.5608373562235 -126.780776308708,100.23071033729802 -128.61090332763357,102.06083735621836 -129.28077630871522,104.56083735621843 -128.6109033276407,107.06083735622042 -126.78077630872036,108.89096437514598 -124.28077630872029,109.56083735622764" stroke="#ffa500" stroke-linecap="round" stroke-linejoin="round"/><polyline fill="none" points="59.8281673630251,85.27386919513667 62.32816736302709,84.60399621406215 64.15829438195266,82.77386919514181 64.82816736303431,80.27386919514174 64.15829438195979,77.77386919513975 62.328167363039455,75.94374217621419 59.82816736303938,75.27386919513253 57.32816736303739,75.94374217620705 55.49804034411182,77.77386919512739 54.82816736303017,80.27386919512746 55.49804034410468,82.77386919512945 57.32816736302502,84.60399621405502 59.828167363025095,85.27386919513667" stroke="#00f" stroke-linecap="round" stroke-linejoin="round"/><polyline fill="none" points="-80.62829240945426,-27.793977727499836 -78.12829240945227,-28.46385070857435 -76.2981653905267,-30.293977727494685 -75.62829240944505,-32.79397772749476 -76.29816539051957,-35.29397772749675 -78.12829240943991,-37.12410474642232 -80.62829240943998,-37.79397772750397 -83.12829240944197,-37.12410474642946 -84.95841942836753,-35.29397772750912 -85.62829240944919,-32.793977727509045 -84.95841942837468,-30.293977727507055 -83.12829240945435,-28.46385070858149 -80.62829240945428,-27.793977727499833" stroke="#ffa500" stroke-linecap="round" stroke-linejoin="round"/><polyline fill="none" points="-98.65539062985718,47.12601629025747 -96.15539062985519,46.456143309182956 -94.32526361092962,44.62601629026262 -93.65539062984797,42.12601629026254 -94.32526361092248,39.62601629026055 -96.15539062984281,37.795889271334985 -98.65539062984288,37.126016290253325 -101.15539062984487,37.79588927132784 -102.98551764877044,39.626016290248174 -103.65539062985209,42.12601629024825 -102.98551764877759,44.62601629025025 -101.15539062985725,46.456143309175815 -98.65539062985718,47.126016290257475" stroke="#ffa500" stroke-linecap="round" stroke-linejoin="round"/><polyline fill="none" points="-123.01456590584264,70.02764341350003 -120.51456590584066,69.35777043242553 -118.68443888691509,67.52764341350519 -118.01456590583344,65.0276434135051 -118.68443888690794,62.52764341350311 -120.51456590582828,60.697516394577534 -123.01456590582836,60.02764341349587 -125.51456590583035,60.69751639457038 -127.34469292475592,62.527643413490715 -128.01456590583757,65.0276434134908 -127.34469292476307,67.52764341349278 -125.51456590584273,69.35777043241835 -123.01456590584266,70.02764341350002" stroke="#ffa500" stroke-linecap="round" stroke-linejoin="round"/><polyline fill="none" points="-47.027731127518166,45.922670006441734 -44.52773112751617,45.25279702536723 -42.697604108590596,43.4226700064469 -42.027731127508936,40.92267000644682 -42.69760410858344,38.422670006444825 -44.52773112750377,36.59254298751925 -47.02773112750385,35.92267000643759 -49.527731127505845,36.5925429875121 -51.35785814643142,38.422670006432426 -52.027731127513086,40.922670006432504 -51.35785814643858,43.4226700064345 -49.52773112751825,45.252797025360074 -47.02773112751817,45.92267000644174" stroke="#008000" stroke-linecap="round" stroke-linejoin="round"/><polyline fill="none" points="-62.43555864340327,-30.327463981480008 -59.93555864340127,-30.997336962554513 -58.1054316244757,-32.82746398147484 -57.43555864339403,-35.32746398147492 -58.10543162446854,-37.82746398147692 -59.935558643388866,-39.65759100040249 -62.435558643388944,-40.32746398148416 -64.93555864339095,-39.65759100040965 -66.76568566231653,-37.82746398148932 -67.4355586433982,-35.327463981489245 -66.76568566232369,-32.82746398148725 -64.93555864340335,-30.997336962561672 -62.435558643403276,-30.327463981480005" stroke="#ffa500" stroke-linecap="round" stroke-linejoin="round"/><polyline fill="none" points="-60.24028498728648,-13.224002630172595 -57.74028498728448,-13.893875611247099 -55.91015796835891,-15.72400263016743 -55.24028498727724,-18.224002630167508 -55.91015796835175,-20.724002630169508 -57.74028498727208,-22.554129649095085 -60.240284987272155,-23.224002630176752 -62.74028498727415,-22.55412964910225 -64.57041200619973,-20.72400263018192 -65.2402849872814,-18.224002630181843 -64.5704120062069,-15.724002630179843 -62.740284987286564,-13.893875611254265 -60.240284987286486,-13.224002630172595" stroke="#00f" stroke-linecap="round" stroke-linejoin="round"/><polyline fill="none" points="9.862530432199847,-20.4490790164638 12.362530432201847,-21.1189519975383 14.192657451127426,-22.94907901645863 14.862530432209097,-25.449079016458708 14.192657451134597,-27.949079016460708 12.362530432214268,-29.779206035386288 9.86253043221419,-30.44907901646796 7.362530432212189,-29.77920603539346 5.532403413286609,-27.94907901647313 4.862530432204936,-25.449079016473053 5.532403413279435,-22.949079016471053 7.3625304321997636,-21.118951997545473 9.862530432199843,-20.4490790164638" stroke="#00f" stroke-linecap="round" stroke-linejoin="round"/><polyline fill="none" points="-36.754219552396705,-15.9970640749325 -34.2542195523947,-16.666937056006997 -32.42409253346912,-18.497064074927327 -31.754219552387447,-20.997064074927405 -32.424092533461945,-23.497064074929405 -34.254219552382274,-25.327191093854985 -36.75421955238235,-25.99706407493666 -39.254219552384356,-25.32719109386216 -41.084346571309936,-23.497064074941832 -41.75421955239161,-20.997064074941754 -41.08434657131711,-18.49706407493975 -39.25421955239678,-16.666937056014167 -36.754219552396705,-15.99706407493249" stroke="#00f" stroke-linecap="round" stroke-linejoin="round"/><polyline fill="none" points="-120.07822574595923,31.600388638181375 -117.57822574595723,30.93051565710688 -115.74809872703165,29.100388638186555 -115.07822574594996,26.600388638186477 -115.74809872702446,24.100388638184473 -117.57822574594478,22.27026161925889 -120.07822574594486,21.60038863817721 -122.57822574594687,22.270261619251706 -124.40835276487245,24.10038863817203 -125.07822574595413,26.60038863817211 -124.40835276487964,29.100388638174113 -122.57822574595932,30.9305156570997 -120.07822574595923,31.60038863818138" stroke="#ffa500" stroke-linecap="round" stroke-linejoin="round"/><polyline fill="none" points="-17.77384085641622,0.39175556028702907 -15.273840856414218,-0.27811742078746327 -13.44371383748863,-2.1082444397077884 -12.77384085640695,-4.6082444397078675 -13.443713837481443,-7.108244439709873 -15.273840856401769,-8.93837145863546 -17.773840856401847,-9.608244439717142 -20.27384085640385,-8.938371458642651 -22.103967875329438,-7.108244439722327 -22.77384085641112,-4.608244439722248 -22.10396787533663,-2.108244439720242 -20.273840856416307,-0.2781174207946533 -17.77384085641623,0.39175556028702896" stroke="#008000" stroke-linecap="round" stroke-linejoin="round"/><polyline fill="none" points="-101.75162857596794,11.982034116424781 -99.25162857596594,11.312161135350292 -97.42150155704034,9.482034116429968 -96.75162857595866,6.982034116429889 -97.42150155703315,4.482034116427883 -99.25162857595348,2.651907097502293 -101.75162857595356,1.9820341164206092 -104.25162857595556,2.651907097495098 -106.08175559488116,4.482034116415421 -106.75162857596284,6.9820341164155 -106.08175559488835,9.482034116417507 -104.25162857596803,11.312161135343098 -101.75162857596794,11.982034116424783" stroke="#ffa500" stroke-linecap="round" stroke-linejoin="round"/><polyline fill="none" points="-83.17481473265445,-47.48698904051176 -80.67481473265245,-48.15686202158625 -78.84468771372686,-49.98698904050657 -78.17481473264517,-52.48698904050665 -78.84468771371967,-54.98698904050866 -80.67481473263999,-56.817116059434255 -83.17481473264007,-57.486989040515944 -85.67481473264208,-56.81711605944146 -87.50494175156767,-54.98698904052114 -88.17481473264935,-52.48698904052106 -87.50494175157486,-49.98698904051905 -85.67481473265454,-48.156862021593454 -83.17481473265445,-47.486989040511766" stroke="#ffa500" stroke-linecap="round" stroke-linejoin="round"/><polyline fill="none" points="-132.11623881049772,4.398257699053136 -129.6162388104957,3.728384717978652 -127.78611179157011,1.8982576990583313 -127.11623881048841,-0.6017423009417477 -127.7861117915629,-3.1017423009437577 -129.61623881048322,-4.931869319869353 -132.1162388104833,-5.6017423009510425 -134.61623881048533,-4.93186931987656 -136.44636582941092,-3.1017423009562397 -137.1162388104926,-0.6017423009561607 -136.4463658294181,1.8982576990458497 -134.6162388104978,3.728384717971446 -132.11623881049772,4.398257699053137" stroke="#ffa500" stroke-linecap="round" stroke-linejoin="round"/><polyline fill="none" points="-86.1175384650028,-42.949914312118956 -83.61753846500079,-43.61978729319344 -81.7874114460752,-45.44991431211376 -81.1175384649935,-47.94991431211384 -81.78741144606798,-50.44991431211585 -83.6175384649883,-52.280041331041446 -86.11753846498839,-52.94991431212314 -88.6175384649904,-52.28004133104866 -90.447665483916,-50.449914312128335 -91.1175384649977,-47.94991431212826 -90.44766548392322,-45.449914312126246 -88.6175384650029,-43.619787293200645 -86.11753846500281,-42.94991431211895" stroke="#ffa500" stroke-linecap="round" stroke-linejoin="round"/><polyline fill="none" points="-123.96463371968153,-41.46302867754532 -121.46463371967951,-42.132901658619794 -119.63450670075392,-43.96302867754011 -118.96463371967222,-46.46302867754019 -119.6345067007467,-48.9630286775422 -121.46463371966702,-50.7931556964678 -123.9646337196671,-51.463028677549495 -126.46463371966912,-50.79315569647502 -128.29476073859473,-48.9630286775547 -128.96463371967644,-46.463028677554625 -128.29476073860195,-43.963028677552614 -126.46463371968163,-42.13290165862701 -123.96463371968154,-41.46302867754532" stroke="#ffa500" stroke-linecap="round" stroke-linejoin="round"/><polyline fill="none" points="47.475768542312785,-12.914162158431356 49.975768542314796,-13.584035139505835 51.8058955612404,-15.414162158426151 52.47576854232209,-17.91416215842623 51.80589556124762,-20.414162158428244 49.9757685423273,-22.244289177353846 47.47576854232722,-22.914162158435545 44.97576854232521,-22.24428917736107 43.14564152339961,-20.414162158440753 42.475768542317915,-17.914162158440675 43.14564152339239,-15.41416215843866 44.97576854231271,-13.584035139513057 47.475768542312785,-12.914162158431358" stroke="#00f" stroke-linecap="round" stroke-linejoin="round"/><polyline fill="none" points="28.916479389711263,-46.31823205332298 31.416479389713277,-46.98810503439746 33.24660640863888,-48.81823205331777 33.916479389720585,-51.31823205331785 33.24660640864611,-53.81823205331987 31.416479389725794,-55.64835907224547 28.916479389725716,-56.31823205332717 26.4164793897237,-55.648359072252696 24.586352370798096,-53.81823205333238 23.916479389716393,-51.3182320533323 24.586352370790866,-48.818232053330284 26.41647938971118,-46.988105034404676 28.91647938971126,-46.31823205332297" stroke="#00f" stroke-linecap="round" stroke-linejoin="round"/><polyline fill="none" points="-53.9643509181009,-30.431950802652665 -51.46435091809888,-31.101823783727138 -49.63422389917327,-32.93195080264745 -48.96435091809157,-35.43195080264753 -49.63422389916604,-37.931950802649546 -51.46435091808635,-39.762077821575154 -53.96435091808643,-40.43195080265686 -56.46435091808845,-39.76207782158239 -58.29447793701406,-37.93195080266207 -58.96435091809576,-35.431950802661994 -58.29447793702129,-32.931950802659976 -56.464350918100976,-31.101823783734368 -53.9643509181009,-30.431950802652665" stroke="#00f" stroke-linecap="round" stroke-linejoin="round"/><polyline fill="none" points="2.203707097547416,-46.91038032562853 4.703707097549433,-47.580253306703 6.533834116475042,-49.410380325623315 7.203707097556746,-51.91038032562339 6.533834116482276,-54.41038032562541 4.7037070975619635,-56.24050734455102 2.2037070975618844,-56.91038032563272 -0.29629290244013395,-56.24050734455825 -2.126419921365744,-54.41038032563794 -2.7962929024474508,-51.91038032563786 -2.126419921372982,-49.41038032563584 -0.2962929024526708,-47.58025330671023 2.203707097547408,-46.91038032562852" stroke="#00f" stroke-linecap="round" stroke-linejoin="round"/><polyline fill="none" points="-85.29584784970508,-75.51508834224812 -82.79584784970307,-76.18496132332258 -80.96572083077746,-78.01508834224289 -80.29584784969575,-80.51508834224298 -80.96572083077021,-83.015088342245 -82.79584784969052,-84.8452153611706 -85.2958478496906,-85.51508834225231 -87.79584784969262,-84.84521536117785 -89.62597486861823,-83.01508834225754 -90.29584784969994,-80.51508834225746 -89.62597486862548,-78.01508834225544 -87.79584784970517,-76.18496132332983 -85.29584784970508,-75.51508834224812" stroke="#ffa500" stroke-linecap="round" stroke-linejoin="round"/><polyline fill="none" points="-103.68706491737495,-45.90224560656403 -101.18706491737294,-46.57211858763849 -99.35693789844733,-48.4022456065588 -98.68706491736562,-50.90224560655888 -99.35693789844008,-53.402245606560896 -101.18706491736039,-55.23237262548651 -103.68706491736047,-55.90224560656822 -106.18706491736249,-55.23237262549376 -108.0171919362881,-53.40224560657345 -108.68706491736981,-50.90224560657337 -108.01719193629535,-48.402245606571356 -106.18706491737504,-46.57211858764574 -103.68706491737495,-45.90224560656403" stroke="#ffa500" stroke-linecap="round" stroke-linejoin="round"/><polyline fill="none" points="39.04845049519216,-13.073566729995843 41.548450495194174,-13.743439711070305 43.37857751411979,-15.573566729990613 44.04845049520151,-18.07356672999069 43.378577514127045,-20.573566729992713 41.54845049520674,-22.40369374891833 39.04845049520666,-23.073566730000042 36.548450495204634,-22.40369374892558 34.71832347627902,-20.573566730005272 34.0484504951973,-18.073566730005194 34.71832347627176,-15.573566730003172 36.54845049519207,-13.743439711077555 39.04845049519215,-13.07356672999584" stroke="#00f" stroke-linecap="round" stroke-linejoin="round"/><polyline fill="none" points="-44.1778778197366,2.3681898391117255 -41.677877819734576,1.6983168580372652 -39.84775080080896,-0.13181016088304154 -39.17787781972724,-2.631810160883121 -39.847750800801705,-5.131810160885145 -41.67787781972201,-6.961937179810764 -44.17787781972209,-7.631810160892482 -46.67787781972412,-6.961937179818023 -48.50800483864974,-5.131810160897718 -49.17787781973146,-2.631810160897639 -48.508004838657,-0.13181016089561437 -46.67787781973669,1.6983168580300065 -44.177877819736615,2.368189839111726" stroke="#008000" stroke-linecap="round" stroke-linejoin="round"/><polyline fill="none" points="-54.628631119982714,-92.13354031138685 -52.12863111998069,-92.80341329246131 -50.298504101055066,-94.63354031138162 -49.62863111997335,-97.13354031138171 -50.298504101047804,-99.63354031138374 -52.12863111996811,-101.46366733030936 -54.62863111996819,-102.13354031139109 -57.128631119970215,-101.46366733031662 -58.95875813889584,-99.63354031139632 -59.62863111997756,-97.13354031139623 -58.95875813890311,-94.6335403113942 -57.1286311199828,-92.80341329246858 -54.62863111998272,-92.13354031138685" stroke="#ffa500" stroke-linecap="round" stroke-linejoin="round"/><polyline fill="none" points="-40.028438830240574,-117.43791877984553 -37.52843883023855,-118.10779176091998 -35.69831181131293,-119.93791877984029 -35.0284388302312,-122.43791877984037 -35.69831181130566,-124.9379187798424 -37.52843883022596,-126.76804579876803 -40.02843883022604,-127.43791877984975 -42.52843883022806,-126.7680457987753 -44.358565849153685,-124.937918779855 -45.02843883023541,-122.43791877985491 -44.358565849160954,-119.93791877985288 -42.52843883024065,-118.10779176092726 -40.028438830240574,-117.43791877984553" stroke="#ffa500" stroke-linecap="round" stroke-linejoin="round"/><polyline fill="none" points="-52.059090124626444,-6.093831221631424 -49.55909012462442,-6.763704202705878 -47.72896310569879,-8.59383122162618 -47.059090124617065,-11.09383122162626 -47.72896310569152,-13.593831221628289 -49.55909012461182,-15.423958240553915 -52.0590901246119,-16.093831221635643 -54.55909012461393,-15.423958240561191 -56.38921714353956,-13.59383122164089 -57.059090124621285,-11.09383122164081 -56.38921714354684,-8.593831221638782 -54.559090124626536,-6.7637042027131535 -52.05909012462646,-6.093831221631426" stroke="#00f" stroke-linecap="round" stroke-linejoin="round"/><polyline fill="none" points="36.663180979349185,-31.40252788355341 39.16318097935122,-32.07240086462786 40.99330799827685,-33.90252788354816 41.66318097935858,-36.40252788354824 40.99330799828413,-38.90252788355027 39.16318097936383,-40.7326549024759 36.66318097936375,-41.40252788355763 34.16318097936172,-40.73265490248318 32.33305396043609,-38.90252788356288 31.663180979354358,-36.402527883562804 32.333053960428806,-33.90252788356077 34.16318097934911,-32.07240086463514 36.663180979349185,-31.40252788355341" stroke="#00f" stroke-linecap="round" stroke-linejoin="round"/><polyline fill="none" points="-39.108270697445924,-105.54227072004568 -36.60827069744389,-106.21214370112013 -34.77814367851826,-108.04227072004042 -34.10827069743653,-110.5422707200405 -34.77814367851098,-113.04227072004254 -36.60827069743128,-114.87239773896817 -39.10827069743136,-115.54227072004991 -41.60827069743339,-114.87239773897547 -43.43839771635902,-113.04227072005517 -44.10827069744075,-110.54227072005509 -43.4383977163663,-108.04227072005305 -41.608270697446,-106.21214370112742 -39.108270697445924,-105.54227072004568" stroke="#ffa500" stroke-linecap="round" stroke-linejoin="round"/><polyline fill="none" points="-62.50901883575371,-76.55816508286654 -60.009018835751675,-77.22803806394099 -58.17889181682604,-79.05816508286128 -57.50901883574431,-81.55816508286136 -58.178891816818755,-84.0581650828634 -60.009018835739056,-85.88829210178903 -62.509018835739134,-86.55816508287077 -65.00901883574117,-85.88829210179632 -66.83914585466681,-84.05816508287603 -67.50901883574855,-81.55816508287595 -66.8391458546741,-79.05816508287391 -65.0090188357538,-77.22803806394828 -62.50901883575373,-76.55816508286654" stroke="#ffa500" stroke-linecap="round" stroke-linejoin="round"/><polyline fill="none" points="-40.83145479902317,26.604117137671068 -38.33145479902114,25.934244156596623 -36.5013277800955,24.104117137676326 -35.83145479901376,21.604117137676248 -36.501327780088204,19.104117137674216 -38.3314547990085,17.27399011874858 -40.831454799008576,16.60411713766684 -43.33145479901061,17.27399011874128 -45.161581817936245,19.10411713766158 -45.83145479901798,21.604117137661657 -45.16158181794354,24.104117137663692 -43.33145479902325,25.93424415658933 -40.83145479902317,26.604117137671068" stroke="#008000" stroke-linecap="round" stroke-linejoin="round"/><polyline fill="none" points="-53.51092898942446,-93.11659205109576 -51.010928989422425,-93.78646503217021 -49.18080197049679,-95.6165920510905 -48.51092898941505,-98.11659205109059 -49.18080197048949,-100.61659205109262 -51.010928989409784,-102.44671907001826 -53.51092898940986,-103.1165920511 -56.010928989411894,-102.44671907002557 -57.84105600833753,-100.61659205110527 -58.51092898941927,-98.11659205110519 -57.84105600834483,-95.61659205110315 -56.010928989424535,-93.78646503217752 -53.51092898942446,-93.11659205109578" stroke="#ffa500" stroke-linecap="round" stroke-linejoin="round"/><polyline fill="none" points="-70.27879483165165,-108.301640363643 -67.77879483164962,-108.97151334471744 -65.94866781272398,-110.80164036363773 -65.27879483164224,-113.30164036363782 -65.94866781271668,-115.80164036363985 -67.77879483163697,-117.63176738256549 -70.27879483163706,-118.30164036364722 -72.77879483163909,-117.63176738257279 -74.60892185056473,-115.8016403636525 -75.27879483164647,-113.30164036365241 -74.60892185057203,-110.80164036365038 -72.77879483165174,-108.97151334472474 -70.27879483165165,-108.301640363643" stroke="#ffa500" stroke-linecap="round" stroke-linejoin="round"/><polyline fill="none" points="-34.73431133349539,37.99580222625866 -32.23431133349335,37.32592924518423 -30.404184314567708,35.49580222626393 -29.734311333485962,32.995802226263855 -30.404184314560396,30.495802226261816 -32.23431133348069,28.66567520733617 -34.73431133348077,27.995802226254426 -37.23431133348281,28.66567520732886 -39.06443835240845,30.49580222624915 -39.7343113334902,32.99580222624923 -39.06443835241576,35.49580222625127 -37.23431133349547,37.325929245176916 -34.73431133349539,37.99580222625866" stroke="#00f" stroke-linecap="round" stroke-linejoin="round"/><polyline fill="none" points="-36.73522181408532,-80.48364010918196 -34.23522181408328,-81.1535130902564 -32.40509479515764,-82.98364010917669 -31.73522181407589,-85.48364010917678 -32.40509479515032,-87.98364010917882 -34.23522181407061,-89.81376712810447 -36.73522181407069,-90.48364010918623 -39.23522181407273,-89.81376712811179 -41.065348832998374,-87.9836401091915 -41.73522181408013,-85.48364010919141 -41.06534883300569,-82.98364010918937 -39.235221814085406,-81.15351309026371 -36.73522181408533,-80.48364010918196" stroke="#ffa500" stroke-linecap="round" stroke-linejoin="round"/><polyline fill="none" points="-37.1051912858749,-85.6196525476897 -34.60519128587286,-86.28952552876413 -32.77506426694721,-88.11965254768442 -32.10519128586546,-90.61965254768451 -32.77506426693989,-93.11965254768656 -34.60519128586018,-94.94977956661221 -37.10519128586026,-95.61965254769396 -39.6051912858623,-94.94977956661953 -41.43531830478795,-93.11965254769923 -42.1051912858697,-90.61965254769915 -41.435318304795274,-88.1196525476971 -39.60519128587499,-86.28952552877145 -37.10519128587491,-85.6196525476897" stroke="#ffa500" stroke-linecap="round" stroke-linejoin="round"/></svg>