<?xml version="1.0" ?><!DOCTYPE svg  PUBLIC '-//W3C//DTD SVG 1.1//EN'  'http://www.w3.org/Graphics/SVG/1.1/DTD/svg11.dtd'><svg height="479.000" viewBox="-368.000 -222.000 593.000 479.000" width="593.000" xmlns="http://www.w3.org/2000/svg"><line fill="none" stroke="none" stroke-linecap="round" stroke-width="2.0" x1="0.0" x2="0.0" y1="0.0" y2="0.0"/><polygon fill="none" fill-rule="evenodd" points="0.0,0.0 0.0,0.0 0.0,0.0" stroke-linejoin="round"/><polyline fill="none" points="25.722572179266763,112.16168152528434 28.22257217928519,111.4918085442372 30.05269919823868,109.66168152533236 30.72257217935227,107.16168152533173 30.052699198305138,104.6616815253133 28.2225721794003,102.83155450635981 25.722572179399677,102.16168152524622 23.22257217938125,102.83155450629336 21.39244516042776,104.66168152519819 20.72257217931417,107.16168152519882 21.392445160361298,109.66168152521725 23.222572179266137,111.49180854417074 25.72257217926676,112.16168152528432" stroke="#ffa500" stroke-linecap="round" stroke-linejoin="round"/><polyline fill="none" points="-1.7930170610478404,51.544999651650926 0.7069829389705884,50.8751266706038 2.5371099579240814,49.04499965169896 3.2069829390376716,46.54499965169834 2.5371099579905443,44.04499965167991 0.7069829390857056,42.21487263272642 -1.7930170609149152,41.54499965161283 -4.293017060933345,42.214872632659954 -6.123144079886839,44.044999651564794 -6.793017061000431,46.54499965156541 -6.123144079953305,49.044999651583844 -4.2930170610484675,50.87512667053734 -1.7930170610478466,51.54499965165093" stroke="#ffa500" stroke-linecap="round" stroke-linejoin="round"/><polyline fill="none" points="146.19512453742155,-113.17760398612548 148.69512453743997,-113.8474769671726 150.52525155639347,-115.67760398607743 151.19512453750707,-118.17760398607805 150.52525155645995,-120.67760398609649 148.6951245375551,-122.50773100504998 146.19512453755448,-123.17760398616358 143.69512453753606,-122.50773100511645 141.86499751858256,-120.67760398621162 141.19512453746896,-118.177603986211 141.86499751851608,-115.67760398619257 143.69512453742092,-113.84747696723907 146.19512453742155,-113.17760398612548" stroke="#ffa500" stroke-linecap="round" stroke-linejoin="round"/><polyline fill="none" points="-181.0748122051037,-104.18937369008952 -178.57481220508527,-104.85924667113665 -176.74468518613176,-106.68937369004148 -176.07481220501816,-109.1893736900421 -176.74468518606528,-111.68937369006053 -178.57481220497013,-113.51950070901404 -181.07481220497075,-114.18937369012764 -183.5748122049892,-113.51950070908052 -185.4049392239427,-111.68937369017569 -186.0748122050563,-109.18937369017506 -185.40493922400918,-106.68937369015663 -183.57481220510434,-104.85924667120312 -181.0748122051037,-104.18937369008952" stroke="#ffa500" stroke-linecap="round" stroke-linejoin="round"/><polyline fill="none" points="-196.6497057238269,-37.08811627991743 -194.14970572380847,-37.75798926096455 -192.31957870485496,-39.58811627986938 -191.64970572374136,-42.08811627987 -192.31957870478848,-44.58811627988843 -194.14970572369333,-46.41824329884194 -196.64970572369396,-47.088116279955536 -199.1497057237124,-46.418243298908415 -200.9798327426659,-44.58811628000358 -201.6497057237795,-42.088116280002964 -200.97983274273238,-39.58811627998453 -199.14970572382754,-37.75798926103103 -196.6497057238269,-37.08811627991743" stroke="#00f" stroke-linecap="round" stroke-linejoin="round"/><polyline fill="none" points="-339.14405178913034,-66.29077206769041 -336.6440517891119,-66.96064504873753 -334.81392477015845,-68.79077206764237 -334.14405178904485,-71.29077206764299 -334.81392477009194,-73.79077206766142 -336.64405178899676,-75.62089908661493 -339.1440517889974,-76.29077206772853 -341.6440517890158,-75.6208990866814 -343.47417880796934,-73.79077206777657 -344.14405178908294,-71.29077206777595 -343.47417880803584,-68.79077206775752 -341.644051789131,-66.96064504880401 -339.1440517891304,-66.29077206769041" stroke="#00f" stroke-linecap="round" stroke-linejoin="round"/><polyline fill="none" points="169.05570117627124,-113.5155692486985 171.5557011762897,-114.18544222974562 173.3858281952432,-116.01556924865045 174.0557011763568,-118.51556924865108 173.38582819530967,-121.01556924866951 171.55570117640485,-122.84569626762301 169.05570117640423,-123.51556924873661 166.55570117638578,-122.84569626768949 164.72557415743228,-121.01556924878466 164.05570117631868,-118.51556924878403 164.7255741573658,-116.0155692487656 166.55570117627062,-114.1854422298121 169.05570117627124,-113.51556924869848" stroke="#ffa500" stroke-linecap="round" stroke-linejoin="round"/><polyline fill="none" points="89.42292212017595,-195.90850510112537 91.92292212019439,-196.5783780821725 93.75304913914789,-198.4085051010773 94.4229221202615,-200.90850510107794 93.7530491392144,-203.40850510109638 91.92292212030956,-205.23863212004989 89.42292212030894,-205.90850510116348 86.9229221202905,-205.23863212011636 85.09279510133699,-203.40850510121155 84.42292212022338,-200.90850510121092 85.09279510127048,-198.40850510119247 86.92292212017531,-196.57837808223897 89.42292212017594,-195.90850510112537" stroke="#ffa500" stroke-linecap="round" stroke-linejoin="round"/><polyline fill="none" points="-346.7248307498163,-65.29664098563234 -344.2248307497979,-65.96651396667944 -342.39470373084436,-67.79664098558428 -341.72483074973076,-70.2966409855849 -342.39470373077785,-72.79664098560335 -344.22483074968267,-74.62676800455687 -346.7248307496833,-75.29664098567048 -349.2248307497017,-74.62676800462337 -351.05495776865524,-72.79664098571854 -351.72483074976884,-70.29664098571791 -351.05495776872175,-67.79664098569947 -349.22483074981693,-65.96651396674595 -346.7248307498163,-65.29664098563234" stroke="#00f" stroke-linecap="round" stroke-linejoin="round"/><polyline fill="none" points="-235.05606773848882,60.19573549799291 -232.55606773847038,59.5258625169458 -230.72594071951687,57.695735498040975 -230.05606773840324,55.19573549804035 -230.72594071945036,52.695735498021904 -232.55606773835518,50.86560847906839 -235.0560677383558,50.19573549795478 -237.55606773837425,50.865608479001885 -239.38619475732776,52.69573549790671 -240.05606773844139,55.195735497907336 -239.38619475739426,57.69573549792578 -237.55606773848945,59.5258625168793 -235.05606773848882,60.195735497992914" stroke="#00f" stroke-linecap="round" stroke-linejoin="round"/><polyline fill="none" points="101.74049562825641,160.23323024524814 104.24049562827486,159.56335726420104 106.07062264722838,157.73323024529623 106.74049562834199,155.2332302452956 106.07062264729488,152.73323024527716 104.24049562839005,150.90310322632365 101.74049562838943,150.23323024521002 99.24049562837098,150.90310322625712 97.41036860941746,152.73323024516193 96.74049562830385,155.23323024516256 97.41036860935095,157.733230245181 99.24049562825579,159.5633572641345 101.74049562825641,160.23323024524814" stroke="#ffa500" stroke-linecap="round" stroke-linejoin="round"/><polyline fill="none" points="86.00394065850661,95.57123434186398 88.50394065852505,94.90136136081688 90.33406767747857,93.07123434191205 91.00394065859219,90.57123434191142 90.33406767754508,88.07123434189297 88.50394065864025,86.24110732293946 86.00394065863962,85.57123434182584 83.50394065862118,86.24110732287295 81.67381363966766,88.07123434177778 81.00394065855404,90.5712343417784 81.67381363960115,93.07123434179685 83.50394065850598,94.90136136075037 86.00394065850661,95.571234341864" stroke="#ffa500" stroke-linecap="round" stroke-linejoin="round"/><polyline fill="none" points="122.92117973719961,-147.00208536731677 125.42117973721805,-147.67195834836386 127.25130675617157,-149.50208536726868 127.9211797372852,-152.0020853672693 127.2513067562381,-154.50208536728775 125.42117973733328,-156.33221238624128 122.92117973733265,-157.0020853673549 120.4211797373142,-156.33221238630782 118.59105271836069,-154.502085367403 117.92117973724706,-152.00208536740237 118.59105271829416,-149.50208536738393 120.42117973719898,-147.6719583484304 122.92117973719961,-147.00208536731677" stroke="#ffa500" stroke-linecap="round" stroke-linejoin="round"/><polyline fill="none" points="-125.43560363265058,-105.84913796198322 -122.93560363263214,-106.51901094303032 -121.10547661367862,-108.34913796193514 -120.43560363256499,-110.84913796193577 -121.1054766136121,-113.34913796195421 -122.93560363251692,-115.17926498090773 -125.43560363251754,-115.84913796202136 -127.93560363253599,-115.17926498097427 -129.76573065148952,-113.34913796206945 -130.43560363260315,-110.84913796206882 -129.76573065155605,-108.34913796205038 -127.93560363265124,-106.51901094309686 -125.43560363265061,-105.84913796198323" stroke="#00f" stroke-linecap="round" stroke-linejoin="round"/><polyline fill="none" points="31.588161558835683,244.86066796594093 34.08816155885413,244.19079498489384 35.91828857780766,242.36066796598902 36.588161558921286,239.8606679659884 35.918288577874186,237.36066796596995 34.08816155896936,235.53054094701642 31.58816155896874,234.8606679659028 29.08816155895029,235.53054094694988 27.258034539996764,237.3606679658547 26.588161558883137,239.86066796585533 27.258034539930232,242.36066796587377 29.088161558835054,244.1907949848273 31.588161558835676,244.86066796594093" stroke="#ffa500" stroke-linecap="round" stroke-linejoin="round"/><polyline fill="none" points="35.06233475019563,-129.69068671224426 37.562334750214085,-130.36055969329135 39.39246176916761,-132.19068671219617 40.06233475028124,-134.6906867121968 39.392461769234146,-137.19068671221524 37.56233475032933,-139.02081373116877 35.0623347503287,-139.6906867122824 32.56233475031025,-139.0208137312353 30.73220773135672,-137.1906867123305 30.06233475024309,-134.69068671232986 30.73220773129018,-132.19068671231142 32.562334750195,-130.36055969335789 35.062334750195625,-129.69068671224426" stroke="#ffa500" stroke-linecap="round" stroke-linejoin="round"/><polyline fill="none" points="-245.82493139485476,-78.32867735285204 -243.3249313948363,-78.99855033389913 -241.49480437588278,-80.82867735280395 -240.82493139476915,-83.32867735280458 -241.49480437581624,-85.82867735282304 -243.32493139472106,-87.65880437177657 -245.8249313947217,-88.3286773528902 -248.32493139474013,-87.6588043718431 -250.15505841369367,-85.82867735293829 -250.8249313948073,-83.32867735293766 -250.1550584137602,-80.8286773529192 -248.32493139485538,-78.99855033396567 -245.82493139485476,-78.32867735285203" stroke="#008000" stroke-linecap="round" stroke-linejoin="round"/><polyline fill="none" points="25.324097225904232,15.121395245316064 27.824097225922685,14.451522264268974 29.654224244876218,12.621395245364155 30.324097225989853,10.121395245363534 29.654224244942764,7.62139524534508 27.824097226037946,5.791268226391546 25.324097226037324,5.12139524527791 22.82409722601887,5.791268226324998 20.99397020706534,7.621395245229817 20.3240972259517,10.121395245230438 20.99397020699879,12.621395245248893 22.824097225903607,14.451522264202428 25.32409722590423,15.121395245316066" stroke="#ffa500" stroke-linecap="round" stroke-linejoin="round"/><polyline fill="none" points="-284.30156369617134,-100.15641331253902 -281.80156369615287,-100.82628629358611 -279.97143667719934,-102.65641331249093 -279.3015636960857,-105.15641331249155 -279.9714366771328,-107.65641331251001 -281.8015636960376,-109.48654033146354 -284.3015636960382,-110.15641331257719 -286.8015636960567,-109.4865403315301 -288.6316907150102,-107.65641331262528 -289.3015636961239,-105.15641331262465 -288.6316907150768,-102.65641331260619 -286.80156369617197,-100.82628629365266 -284.30156369617134,-100.15641331253902" stroke="#00f" stroke-linecap="round" stroke-linejoin="round"/><polyline fill="none" points="62.943817215047396,-184.7846981316195 65.44381721506585,-185.4545711126666 67.27394423401938,-187.28469813157142 67.94381721513302,-189.78469813157204 67.27394423408595,-192.2846981315905 65.44381721518113,-194.11482515054402 62.9438172151805,-194.78469813165768 60.44381721516204,-194.11482515061059 58.6136901962085,-192.28469813170577 57.94381721509486,-189.78469813170514 58.613690196141945,-187.2846981316867 60.443817215046764,-185.45457111273316 62.94381721504739,-184.7846981316195" stroke="#00f" stroke-linecap="round" stroke-linejoin="round"/><polyline fill="none" points="75.07730305305448,-61.276022628528764 77.57730305307294,-61.94589560957585 79.40743007202649,-63.77602262848067 80.07730305314013,-66.27602262848129 79.40743007209305,-68.77602262849975 77.57730305318823,-70.6061496474533 75.0773030531876,-71.27602262856693 72.57730305316915,-70.60614964751986 70.7471760342156,-68.77602262861504 70.07730305310196,-66.27602262861441 70.74717603414904,-63.77602262859595 72.57730305305385,-61.94589560964241 75.07730305305448,-61.276022628528764" stroke="#ffa500" stroke-linecap="round" stroke-linejoin="round"/><polyline fill="none" points="-144.59728983322674,26.128963880293195 -142.09728983320827,25.459090899246114 -140.26716281425473,23.6289638803413 -139.59728983314108,21.128963880340674 -140.26716281418817,18.628963880322214 -142.097289833093,16.79883686136867 -144.5972898330936,16.12896388025502 -147.0972898331121,16.7988368613021 -148.92741685206562,18.628963880206914 -149.59728983317927,21.12896388020754 -148.92741685213218,23.628963880226003 -147.09728983322736,25.45909089917955 -144.59728983322674,26.1289638802932" stroke="#ffa500" stroke-linecap="round" stroke-linejoin="round"/><polyline fill="none" points="83.88229017078515,-145.11128962350102 86.38229017080361,-145.78116260454811 88.21241718975716,-147.61128962345293 88.88229017087082,-150.11128962345356 88.21241718982374,-152.61128962347203 86.38229017091892,-154.44141664242557 83.8822901709183,-155.11128962353922 81.38229017089984,-154.44141664249216 79.55216315194629,-152.61128962358734 78.88229017083263,-150.1112896235867 79.55216315187971,-147.61128962356824 81.38229017078453,-145.78116260461468 83.88229017078515,-145.11128962350102" stroke="#ffa500" stroke-linecap="round" stroke-linejoin="round"/><polyline fill="none" points="-164.01232522707002,65.44636593382857 -161.51232522705155,64.7764929527815 -159.682198208098,62.946365933876685 -159.01232522698433,60.44636593387606 -159.6821982080314,57.94636593385759 -161.5123252269362,56.116238914904045 -164.01232522693684,55.44636593379039 -166.5123252269553,56.11623891483747 -168.34245224590887,57.94636593374228 -169.01232522702253,60.446365933742904 -168.34245224597547,62.94636593376137 -166.51232522707065,64.77649295271492 -164.01232522707002,65.44636593382857" stroke="#00f" stroke-linecap="round" stroke-linejoin="round"/><polyline fill="none" points="138.79827174740993,-100.93273448123581 141.2982717474284,-101.60260746228289 143.12839876638196,-103.4327344811877 143.79827174749562,-105.93273448118832 143.12839876644856,-108.43273448120678 141.29827174754374,-110.26286150016033 138.7982717475431,-110.93273448127398 136.29827174752464,-110.2628615002269 134.46814472857108,-108.4327344813221 133.79827174745742,-105.93273448132148 134.46814472850448,-103.43273448130302 136.2982717474093,-101.60260746234947 138.79827174740993,-100.93273448123581" stroke="#00f" stroke-linecap="round" stroke-linejoin="round"/><polyline fill="none" points="187.65115639638947,-126.23004951037092 190.15115639640794,-126.899922491418 191.9812834153615,-128.7300495103228 192.65115639647516,-131.23004951032343 191.9812834154281,-133.7300495103419 190.15115639652328,-135.56017652929546 187.65115639652265,-136.23004951040912 185.15115639650418,-135.56017652936205 183.32102937755062,-133.73004951045723 182.65115639643696,-131.2300495104566 183.32102937748402,-128.73004951043814 185.15115639638884,-126.89992249148457 187.65115639638947,-126.23004951037092" stroke="#00f" stroke-linecap="round" stroke-linejoin="round"/><polyline fill="none" points="77.01176186388935,99.9573230436547 79.51176186390782,99.28745006260763 81.34188888286138,97.45732304370283 82.01176186397504,94.9573230437022 81.34188888292798,92.45732304368373 79.51176186402317,90.62719602473017 77.01176186402255,89.95732304361651 74.51176186400407,90.62719602466358 72.68163484505051,92.45732304356838 72.01176186393685,94.957323043569 72.68163484498392,97.45732304358748 74.51176186388872,99.28745006254104 77.01176186388935,99.95732304365471" stroke="#ffa500" stroke-linecap="round" stroke-linejoin="round"/><polyline fill="none" points="65.41274909097459,42.53254330087049 67.91274909099306,41.86267031982343 69.74287610994662,40.032543300918626 70.41274909106029,37.532543300918 69.74287611001323,35.03254330089953 67.91274909110842,33.20241628194597 65.4127490911078,32.53254330083231 62.912749091089324,33.20241628187937 61.08262207213576,35.03254330078418 60.4127490910221,37.5325433007848 61.082622072069164,40.032543300803276 62.91274909097397,41.86267031975684 65.4127490909746,42.5325433008705" stroke="#ffa500" stroke-linecap="round" stroke-linejoin="round"/><polyline fill="none" points="-88.61501005109692,-94.80666622501631 -86.11501005107844,-95.47653920606338 -84.28488303212488,-97.30666622496818 -83.61501005101121,-99.80666622496881 -84.28488303205827,-102.30666622498728 -86.11501005096308,-104.13679324394084 -88.6150100509637,-104.80666622505451 -91.11501005098218,-104.13679324400745 -92.94513706993574,-102.30666622510265 -93.61501005104941,-99.80666622510202 -92.94513707000235,-97.30666622508355 -91.11501005109754,-95.47653920612998 -88.61501005109692,-94.80666622501631" stroke="#ffa500" stroke-linecap="round" stroke-linejoin="round"/><polyline fill="none" points="-159.48403261354997,37.2706090259099 -156.9840326135315,36.600736044862835 -155.15390559457794,34.77060902595803 -154.48403261346428,32.270609025957405 -155.15390559451134,29.77060902593893 -156.98403261341613,27.940482006985366 -159.48403261341676,27.270609025871696 -161.98403261343523,27.940482006918756 -163.8141596323888,29.77060902582356 -164.48403261350248,32.270609025824186 -163.81415963245541,34.77060902584266 -161.98403261355062,36.60073604479623 -159.48403261355,37.2706090259099" stroke="#ffa500" stroke-linecap="round" stroke-linejoin="round"/><polyline fill="none" points="-275.9740335052395,18.388996487164533 -273.47403350522103,17.719123506117473 -271.64390648626744,15.88899648721267 -270.9740335051538,13.388996487212044 -271.6439064862008,10.88899648719357 -273.47403350510564,9.058869468240003 -275.97403350510626,8.388996487126331 -278.47403350512474,9.05886946817339 -280.3041605240783,10.888996487078192 -280.974033505192,13.388996487078817 -280.30416052414495,15.888996487097291 -278.47403350524013,17.71912350605086 -275.9740335052395,18.388996487164533" stroke="#ffa500" stroke-linecap="round" stroke-linejoin="round"/><polyline fill="none" points="-48.75400078149341,-127.18359889958361 -46.254000781474936,-127.85347188063068 -44.42387376252137,-129.68359889953547 -43.75400078140769,-132.1835988995361 -44.42387376245475,-134.68359889955457 -46.25400078135955,-136.51372591850813 -48.754000781360176,-137.1835988996218 -51.25400078137865,-136.51372591857475 -53.08412780033222,-134.68359889966996 -53.754000781445896,-132.18359889966933 -53.08412780039884,-129.68359889965086 -51.254000781494035,-127.85347188069728 -48.75400078149341,-127.18359889958361" stroke="#00f" stroke-linecap="round" stroke-linejoin="round"/><polyline fill="none" points="-329.21775739825387,-47.38965929676244 -326.7177573982354,-48.059532277809495 -324.8876303792818,-49.8896592967143 -324.21775739816815,-52.389659296714925 -324.8876303792152,-54.8896592967334 -326.71775739812,-56.71978631568697 -329.2177573981206,-57.389659296800644 -331.7177573981391,-56.71978631575359 -333.5478844170927,-54.88965929684879 -334.21775739820634,-52.389659296848166 -333.5478844171593,-49.88965929682969 -331.7177573982545,-48.059532277876116 -329.21775739825387,-47.38965929676244" stroke="#ffa500" stroke-linecap="round" stroke-linejoin="round"/><polyline fill="none" points="-210.8999912128684,104.29923627436001 -208.39999121284993,103.62936329331296 -206.56986419389636,101.79923627440816 -205.89999121278268,99.29923627440753 -206.56986419382974,96.79923627438906 -208.39999121273453,94.96910925543548 -210.89999121273516,94.2992362743218 -213.39999121275363,94.96910925536885 -215.2301182317072,96.79923627427365 -215.89999121282088,99.29923627427428 -215.23011823177382,101.79923627429275 -213.39999121286903,103.62936329324633 -210.8999912128684,104.29923627436001" stroke="#ffa500" stroke-linecap="round" stroke-linejoin="round"/><polyline fill="none" points="144.85387286916696,175.77598389878463 147.35387286918544,175.10611091773757 149.183999888139,173.27598389883278 149.85387286925268,170.77598389883215 149.18399988820562,168.27598389881368 147.35387286930083,166.44585687986012 144.8538728693002,165.77598389874643 142.35387286928173,166.4458568797935 140.52374585032814,168.27598389869829 139.85387286921446,170.7759838986989 140.52374585026152,173.27598389871739 142.3538728691663,175.10611091767097 144.85387286916693,175.77598389878466" stroke="#ffa500" stroke-linecap="round" stroke-linejoin="round"/><polyline fill="none" points="-262.06335609359417,-64.17704009185279 -259.5633560935757,-64.84691307289984 -257.7332290746221,-66.67704009180463 -257.0633560935084,-69.17704009180525 -257.7332290745554,-71.67704009182373 -259.56335609346024,-73.5071671107773 -262.06335609346087,-74.17704009189099 -264.56335609347934,-73.50716711084394 -266.39348311243293,-71.67704009193915 -267.06335609354664,-69.17704009193852 -266.3934831124996,-66.67704009192003 -264.5633560935948,-64.84691307296646 -262.06335609359417,-64.17704009185277" stroke="#f00" stroke-linecap="round" stroke-linejoin="round"/><polyline fill="none" points="73.61322255258564,-144.3861149320476 76.11322255260413,-145.05598791309464 77.9433495715577,-146.88611493199943 78.61322255267139,-149.38611493200005 77.94334957162434,-151.88611493201853 76.11322255271955,-153.71624195097212 73.61322255271892,-154.3861149320858 71.11322255270044,-153.71624195103877 69.28309553374686,-151.88611493213398 68.61322255263318,-149.38611493213335 69.28309553368022,-146.88611493211488 71.11322255258501,-145.0559879131613 73.61322255258564,-144.3861149320476" stroke="#ffa500" stroke-linecap="round" stroke-linejoin="round"/><polyline fill="none" points="168.68133041302406,-122.31615729288644 171.18133041304253,-122.9860302739335 173.01145743199612,-124.81615729283828 173.6813304131098,-127.31615729283891 173.01145743206277,-129.81615729285738 171.18133041315798,-131.64628431181097 168.68133041315735,-132.31615729292466 166.18133041313888,-131.64628431187762 164.3512033941853,-129.81615729297283 163.6813304130716,-127.3161572929722 164.35120339411864,-124.81615729295372 166.18133041302343,-122.98603027400013 168.68133041302406,-122.31615729288643" stroke="#ffa500" stroke-linecap="round" stroke-linejoin="round"/><polyline fill="none" points="208.3401202867753,-114.26430414576255 210.84012028679376,-114.93417712680959 212.67024730574735,-116.76430414571438 213.34012028686104,-119.264304145715 212.670247305814,-121.76430414573349 210.8401202869092,-123.59443116468708 208.3401202869086,-124.26430414580078 205.8401202868901,-123.59443116475374 204.00999326793652,-121.76430414584895 203.34012028682284,-119.26430414584833 204.00999326786987,-116.76430414582984 205.84012028677466,-114.93417712687625 208.3401202867753,-114.26430414576255" stroke="#ffa500" stroke-linecap="round" stroke-linejoin="round"/><polyline fill="none" points="-263.2878227146067,-19.542460475103887 -260.78782271458823,-20.212333456150926 -258.95769569563464,-22.04246047505572 -258.2878227145209,-24.542460475056345 -258.95769569556796,-27.042460475074833 -260.7878227144728,-28.87258749402842 -263.2878227144734,-29.542460475142114 -265.7878227144919,-28.872587494095075 -267.61794973344547,-27.042460475190286 -268.2878227145592,-24.542460475189657 -267.61794973351215,-22.04246047517117 -265.78782271460733,-20.21233345621758 -263.2878227146067,-19.54246047510388" stroke="#00f" stroke-linecap="round" stroke-linejoin="round"/><polyline fill="none" points="58.39041036938858,-172.25739233065568 60.89041036940707,-172.9272653117027 62.72053738836066,-174.7573923306075 63.39041036947436,-177.25739233060813 62.720537388427324,-179.75739233062663 60.890410369522534,-181.58751934958022 58.39041036952191,-182.25739233069393 55.89041036950342,-181.5875193496469 54.06028335054983,-179.7573923307421 53.39041036943613,-177.25739233074148 54.06028335048317,-174.75739233072298 55.89041036938796,-172.9272653117694 58.39041036938858,-172.25739233065568" stroke="#ffa500" stroke-linecap="round" stroke-linejoin="round"/><polyline fill="none" points="36.41516342749443,-85.85560147314293 38.915163427512915,-86.52547445418996 40.745290446466505,-88.35560147309475 41.415163427580204,-90.85560147309538 40.74529044653317,-93.35560147311386 38.91516342762838,-95.18572849206745 36.41516342762775,-95.85560147318115 33.915163427609265,-95.18572849213412 32.08503640865567,-93.35560147322933 31.415163427541966,-90.8556014732287 32.085036408589,-88.35560147321021 33.91516342749379,-86.52547445425662 36.41516342749441,-85.85560147314293" stroke="#ffa500" stroke-linecap="round" stroke-linejoin="round"/><polyline fill="none" points="137.60752566041194,136.91536947100323 140.10752566043044,136.2454964899562 141.93765267938403,134.4153694710514 142.60752566049774,131.91536947105078 141.9376526794507,129.41536947103228 140.10752566054592,127.58524245207869 137.6075256605453,126.91536947096498 135.1075256605268,127.58524245201201 133.2773986415732,129.4153694709168 132.6075256604595,131.91536947091743 133.27739864150652,134.41536947093593 135.1075256604113,136.24549648988952 137.60752566041194,136.91536947100323" stroke="#ffa500" stroke-linecap="round" stroke-linejoin="round"/><polyline fill="none" points="64.60016002534825,231.60507149696215 67.10016002536673,230.93519851591512 68.93028704432034,229.10507149701033 69.60016002543405,226.6050714970097 68.93028704438701,224.1050714969912 67.10016002548223,222.2749444780376 64.6001600254816,221.6050714969239 62.100160025463104,222.27494447797093 60.27003300650951,224.10507149687572 59.6001600253958,226.60507149687635 60.27003300644283,229.10507149689485 62.10016002534761,230.93519851584844 64.60016002534825,231.60507149696215" stroke="#ffa500" stroke-linecap="round" stroke-linejoin="round"/><polyline fill="none" points="-217.11262113083797,-95.78232642051083 -214.61262113081946,-96.45219940155785 -212.78249411186587,-98.28232642046264 -212.11262113075216,-100.78232642046326 -212.7824941117992,-103.28232642048177 -214.61262113070399,-105.11245343943537 -217.1126211307046,-105.78232642054908 -219.6126211307231,-105.11245343950206 -221.4427481496767,-103.28232642059727 -222.11262113079042,-100.78232642059665 -221.44274814974338,-98.28232642057814 -219.6126211308386,-96.45219940162454 -217.11262113083797,-95.78232642051083" stroke="#00f" stroke-linecap="round" stroke-linejoin="round"/><polyline fill="none" points="-245.06180138714413,96.0293685034877 -242.56180138712563,95.35949552244068 -240.73167436817204,93.52936850353589 -240.06180138705832,91.02936850353527 -240.73167436810536,88.52936850351676 -242.56180138701015,86.69924148456316 -245.06180138701077,86.02936850344945 -247.56180138702928,86.69924148449647 -249.3919284059829,88.52936850340126 -250.0618013870966,91.02936850340188 -249.39192840604957,93.52936850342039 -247.56180138714478,95.35949552237399 -245.06180138714416,96.0293685034877" stroke="#00f" stroke-linecap="round" stroke-linejoin="round"/><polyline fill="none" points="145.1343082942661,149.58927841621937 147.6343082942846,148.91940543517234 149.46443531323823,147.08927841626755 150.13430829435194,144.58927841626692 149.4644353133049,142.08927841624842 147.6343082944001,140.2591513972948 145.1343082943995,139.5892784161811 142.634308294381,140.25915139722812 140.80418127542737,142.0892784161329 140.13430829431366,144.58927841613354 140.80418127536066,147.08927841615204 142.63430829426545,148.91940543510566 145.13430829426608,149.58927841621937" stroke="#ffa500" stroke-linecap="round" stroke-linejoin="round"/><polyline fill="none" points="-269.7271008572447,3.616440568194666 -267.2271008572262,2.9465675871476456 -265.39697383827263,1.1164405682428644 -264.7271008571589,-1.383559431757764 -265.39697383820595,-3.8835594317762645 -267.2271008571107,-5.713686450729873 -269.72710085711134,-6.383559431843593 -272.2271008571298,-5.7136864507965734 -274.0572278760834,-3.883559431891793 -274.7271008571971,-1.3835594318911646 -274.0572278761501,1.1164405681273362 -272.2271008572453,2.9465675870809456 -269.7271008572447,3.6164405681946663" stroke="#ffa500" stroke-linecap="round" stroke-linejoin="round"/><polyline fill="none" points="-176.7581279403182,-92.48669655571568 -174.2581279402997,-93.1565695367627 -172.42800092134607,-94.98669655566748 -171.75812794023236,-97.4866965556681 -172.42800092127936,-99.9866965556866 -174.25812794018415,-101.81682357464021 -176.75812794018478,-102.48669655575394 -179.25812794020328,-101.81682357470692 -181.0882549591569,-99.98669655580214 -181.7581279402706,-97.48669655580152 -181.0882549592236,-94.98669655578301 -179.25812794031881,-93.1565695368294 -176.7581279403182,-92.48669655571567" stroke="#00f" stroke-linecap="round" stroke-linejoin="round"/><polyline fill="none" points="164.09982711614515,-70.18592152388837 166.59982711616365,-70.85579450493539 168.42995413511727,-72.68592152384016 169.09982711623098,-75.18592152384079 168.42995413518398,-77.68592152385929 166.5998271162792,-79.51604854281291 164.09982711627856,-80.18592152392664 161.59982711626006,-79.51604854287962 159.76970009730644,-77.68592152397484 159.09982711619273,-75.18592152397422 159.76970009723973,-72.68592152395571 161.59982711614452,-70.8557945050021 164.09982711614515,-70.18592152388837" stroke="#ffa500" stroke-linecap="round" stroke-linejoin="round"/><polyline fill="none" points="13.079412487135578,29.819886792759867 15.579412487154082,29.150013811712853 17.4095395061077,27.319886792808077 18.079412487221425,24.81988679280745 17.40953950617441,22.319886792788942 15.579412487269634,20.489759773835328 13.079412487269005,19.8198867927216 10.5794124872505,20.48975977376861 8.749285468296884,22.319886792673387 8.079412487183156,24.819886792674016 8.749285468230168,27.31988679269252 10.579412487134945,29.15001381164614 13.079412487135574,29.81988679275987" stroke="#00f" stroke-linecap="round" stroke-linejoin="round"/><polyline fill="none" points="67.20663204492585,126.09927680803737 69.70663204494436,125.42940382699037 71.53675906389797,123.59927680808559 72.2066320450117,121.09927680808497 71.5367590639647,118.59927680806646 69.70663204505992,116.76914978911284 67.2066320450593,116.09927680799912 64.70663204504079,116.76914978904612 62.87650502608717,118.5992768079509 62.20663204497344,121.09927680795153 62.876505026020446,123.59927680797003 64.70663204492521,125.42940382692365 67.20663204492584,126.09927680803737" stroke="#ffa500" stroke-linecap="round" stroke-linejoin="round"/><polyline fill="none" points="-268.2325975721866,-121.84101810388925 -265.73259757216806,-122.51089108493626 -263.9024705532144,-124.34101810384104 -263.2325975721007,-126.84101810384166 -263.90247055314774,-129.34101810386016 -265.7325975720525,-131.17114512281378 -268.2325975720531,-131.84101810392752 -270.73259757207165,-131.17114512288052 -272.5627245910253,-129.34101810397576 -273.232597572139,-126.84101810397513 -272.562724591092,-124.34101810395663 -270.7325975721872,-122.51089108500301 -268.2325975721866,-121.84101810388928" stroke="#ffa500" stroke-linecap="round" stroke-linejoin="round"/><polyline fill="none" points="-108.24326847486397,-104.22060200044771 -105.74326847484546,-104.89047498149472 -103.91314145589185,-106.7206020003995 -103.2432684747781,-109.22060200040012 -103.91314145582511,-111.72060200041862 -105.74326847472989,-113.55072901937224 -108.24326847473051,-114.22060200048598 -110.74326847474902,-113.55072901943898 -112.57339549370263,-111.7206020005342 -113.24326847481638,-109.22060200053357 -112.57339549376937,-106.72060200051507 -110.74326847486459,-104.89047498156145 -108.24326847486397,-104.22060200044771" stroke="#ffa500" stroke-linecap="round" stroke-linejoin="round"/><polyline fill="none" points="-198.9513411572757,36.84437068172765 -196.4513411572572,36.17449770068065 -194.62121413830357,34.34437068177587 -193.95134115718983,31.844370681775242 -194.62121413823684,29.344370681756732 -196.4513411571416,27.514243662803107 -198.95134115714222,26.84437068168937 -201.45134115716073,27.514243662736373 -203.28146817611434,29.344370681641145 -203.9513411572281,31.844370681641774 -203.28146817618108,34.34437068166029 -201.45134115727632,36.17449770061391 -198.9513411572757,36.84437068172765" stroke="#ffa500" stroke-linecap="round" stroke-linejoin="round"/><polyline fill="none" points="41.76745750463238,108.47345100270968 44.26745750465089,107.80357802166267 46.09758452360452,105.9734510027579 46.76745750471826,103.47345100275727 46.09758452367126,100.97345100273876 44.26745750476649,99.14332398378512 41.767457504765865,98.47345100267138 39.267457504747355,99.14332398371839 37.43733048579373,100.97345100262316 36.76745750467999,103.47345100262379 37.43733048572699,105.9734510026423 39.26745750463176,107.80357802159594 41.76745750463238,108.47345100270968" stroke="#00f" stroke-linecap="round" stroke-linejoin="round"/><polyline fill="none" points="3.4336135231322285,207.56256330144737 5.93361352315074,206.89269032040036 7.763740542104368,205.0625633014956 8.43361352321811,202.56256330149498 7.763740542171111,200.06256330147647 5.933613523266342,198.23243628252285 3.4336135232657132,197.5625633014091 0.9336135232472009,198.23243628245612 -0.8965134957064289,200.06256330136088 -1.5663864768201732,202.5625633013615 -0.8965134957731752,205.06256330138 0.9336135231315931,206.89269032033363 3.4336135231322213,207.56256330144737" stroke="#ffa500" stroke-linecap="round" stroke-linejoin="round"/><polyline fill="none" points="-139.77673103140745,-25.376132955218182 -137.27673103138895,-26.04600593626518 -135.44660401243533,-27.876132955169947 -134.7767310313216,-30.376132955170576 -135.4466040123686,-32.87613295518909 -137.27673103127336,-34.706259974142725 -139.77673103127398,-35.37613295525647 -142.27673103129248,-34.70625997420947 -144.10685805024613,-32.876132955304705 -144.77673103135987,-30.376132955304076 -144.10685805031287,-27.876132955285563 -142.2767310314081,-26.04600593633193 -139.77673103140748,-25.376132955218182" stroke="#00f" stroke-linecap="round" stroke-linejoin="round"/><polyline fill="none" points="-145.26142207485705,78.84371959887198 -142.76142207483855,78.17384661782499 -140.9312950558849,76.34371959892023 -140.26142207477116,73.8437195989196 -140.93129505581817,71.34371959890109 -142.76142207472293,69.51359257994746 -145.26142207472355,68.8437195988337 -147.76142207474206,69.5135925798807 -149.5915490936957,71.34371959878546 -150.26142207480945,73.84371959878608 -149.59154909376244,76.3437195988046 -147.76142207485768,78.17384661775823 -145.26142207485705,78.84371959887198" stroke="#ffa500" stroke-linecap="round" stroke-linejoin="round"/><polyline fill="none" points="33.811103224105864,25.169085303440895 36.31110322412438,24.499212322393902 38.14123024307802,22.669085303489137 38.81110322419177,20.169085303488508 38.141230243144776,17.66908530346999 36.31110322424001,15.838958284516353 33.811103224239375,15.169085303402602 31.311103224220858,15.838958284449593 29.48097620526722,17.669085303354358 28.811103224153467,20.169085303354986 29.48097620520046,22.669085303373503 31.311103224105224,24.499212322327143 33.81110322410586,25.169085303440895" stroke="#ffa500" stroke-linecap="round" stroke-linejoin="round"/><polyline fill="none" points="-221.39554240630514,-84.13095187054327 -218.8955424062866,-84.80082485159026 -217.06541538733296,-86.63095187049502 -216.39554240621922,-89.13095187049565 -217.0654153872662,-91.63095187051417 -218.89554240617096,-93.46107888946781 -221.3955424061716,-94.13095187058157 -223.89554240619012,-93.46107888953458 -225.72566942514376,-91.63095187062981 -226.39554240625753,-89.13095187062919 -225.72566942521055,-86.63095187061067 -223.8955424063058,-84.80082485165703 -221.39554240630517,-84.13095187054327" stroke="#008000" stroke-linecap="round" stroke-linejoin="round"/><polyline fill="none" points="-220.1311405878424,-86.85737575821453 -217.63114058782386,-87.52724873926152 -215.80101356887022,-89.35737575816628 -215.13114058775645,-91.85737575816691 -215.80101356880343,-94.35737575818543 -217.6311405877082,-96.18750277713907 -220.1311405877088,-96.85737575825283 -222.63114058772734,-96.18750277720584 -224.461267606681,-94.35737575830107 -225.13114058779476,-91.85737575830045 -224.46126760674778,-89.35737575828193 -222.63114058784302,-87.52724873932829 -220.1311405878424,-86.85737575821453" stroke="#00f" stroke-linecap="round" stroke-linejoin="round"/><polyline fill="none" points="42.54278272053597,233.1790604725203 45.04278272055449,232.5091874914733 46.87290973950814,230.67906047256855 47.5427827206219,228.17906047256793 46.872909739574915,225.6790604725494 45.042782720670154,223.84893345359575 42.54278272066952,223.17906047248198 40.042782720651,223.84893345352896 38.21265570169735,225.67906047243372 37.54278272058359,228.17906047243434 38.212655701630574,230.67906047245287 40.042782720535335,232.50918749140652 42.54278272053597,233.1790604725203" stroke="#00f" stroke-linecap="round" stroke-linejoin="round"/><polyline fill="none" points="-228.39343345635277,-14.08462297581221 -225.89343345633424,-14.754495956859193 -224.0633064373806,-16.584622975763953 -223.39343345626682,-19.08462297576458 -224.0633064373138,-21.584622975783105 -225.89343345621856,-23.414749994736752 -228.39343345621919,-24.084622975850515 -230.89343345623772,-23.414749994803532 -232.72356047519136,-21.58462297589877 -233.39343345630513,-19.084622975898142 -232.72356047525815,-16.58462297587962 -230.8934334563534,-14.75449595692597 -228.39343345635277,-14.084622975812206" stroke="#00f" stroke-linecap="round" stroke-linejoin="round"/><polyline fill="none" points="136.63955518358856,169.35691578140904 139.1395551836071,168.68704280036206 140.96968220256073,166.8569157814573 141.6395551836745,164.35691578145668 140.96968220262752,161.85691578143815 139.13955518372276,160.0267887624845 136.63955518372214,159.35691578137073 134.1395551837036,160.0267887624177 132.30942816474996,161.85691578132247 131.6395551836362,164.3569157813231 132.30942816468317,166.85691578134163 134.13955518358793,168.68704280029527 136.63955518358856,169.35691578140904" stroke="#ffa500" stroke-linecap="round" stroke-linejoin="round"/><polyline fill="none" points="-166.2440611654307,-37.7363836966229 -163.74406116541218,-38.40625667766988 -161.91393414645853,-40.23638369657464 -161.24406116534476,-42.736383696575274 -161.91393414639174,-45.2363836965938 -163.7440611652965,-47.06651071554745 -166.24406116529713,-47.73638369666122 -168.74406116531566,-47.06651071561424 -170.5741881842693,-45.23638369670949 -171.24406116538307,-42.736383696708856 -170.5741881843361,-40.236383696690325 -168.74406116543133,-38.40625667773667 -166.2440611654307,-37.7363836966229" stroke="#ffa500" stroke-linecap="round" stroke-linejoin="round"/><polyline fill="none" points="120.23110011934014,-89.29312992850747 122.73110011935867,-89.96300290955445 124.56122713831233,-91.79312992845921 125.2311001194261,-94.29312992845983 124.56122713837912,-96.79312992847836 122.73110011947436,-98.62325694743203 120.23110011947374,-99.2931299285458 117.7311001194552,-98.62325694749882 115.90097310050155,-96.79312992859406 115.23110011938778,-94.29312992859343 115.90097310043475,-91.7931299285749 117.73110011933952,-89.96300290962124 120.23110011934014,-89.29312992850747" stroke="#ffa500" stroke-linecap="round" stroke-linejoin="round"/><polyline fill="none" points="-195.33549126641,107.3285220977641 -192.83549126639147,106.65864911671711 -191.00536424743783,104.82852209781235 -190.33549126632406,102.32852209781173 -191.00536424737103,99.8285220977932 -192.8354912662758,97.99839507883954 -195.33549126627642,97.32852209772577 -197.83549126629495,97.99839507877275 -199.6656182852486,99.8285220976775 -200.33549126636237,102.32852209767813 -199.6656182853154,104.82852209769666 -197.83549126641063,106.65864911665032 -195.33549126641,107.3285220977641" stroke="#ffa500" stroke-linecap="round" stroke-linejoin="round"/><polyline fill="none" points="60.20135265302819,-71.36412972097737 62.70135265304672,-72.03400270202435 64.53147967200037,-73.86412972092911 65.20135265311416,-76.36412972092975 64.53147967206718,-78.86412972094828 62.701352653162424,-80.69425673990195 60.20135265316179,-81.36412972101573 57.70135265314326,-80.69425673996876 55.8712256341896,-78.864129721064 55.20135265307582,-76.36412972106336 55.871225634122794,-73.86412972104483 57.70135265302755,-72.03400270209117 60.20135265302818,-71.36412972097739" stroke="#ffa500" stroke-linecap="round" stroke-linejoin="round"/><polyline fill="none" points="-268.0146495474841,-66.43695114365624 -265.5146495474656,-67.10682412470321 -263.68452252851193,-68.93695114360797 -263.01464954739816,-71.43695114360861 -263.68452252844514,-73.93695114362714 -265.5146495473499,-75.7670781625808 -268.01464954735053,-76.43695114369459 -270.51464954736906,-75.76707816264762 -272.3447765663227,-73.93695114374287 -273.0146495474365,-71.43695114374225 -272.3447765663895,-68.93695114372372 -270.51464954748474,-67.10682412477006 -268.0146495474841,-66.43695114365627" stroke="#008000" stroke-linecap="round" stroke-linejoin="round"/><polyline fill="none" points="-166.6962651198636,68.01870334619299 -164.19626511984507,67.34883036514603 -162.3661381008914,65.51870334624128 -161.69626511977762,63.01870334624065 -162.3661381008246,60.51870334622211 -164.19626511972936,58.68857632726844 -166.69626511973,58.01870334615466 -169.19626511974852,58.68857632720162 -171.0263921387022,60.51870334610638 -171.696265119816,63.01870334610701 -171.026392138769,65.51870334612555 -169.19626511986425,67.34883036507921 -166.69626511986363,68.01870334619299" stroke="#00f" stroke-linecap="round" stroke-linejoin="round"/><polyline fill="none" points="-126.46639934329698,-15.548979775322355 -123.96639934327845,-16.21885275636932 -122.13627232432479,-18.04897977527407 -121.46639934321101,-20.548979775274702 -122.13627232425797,-23.04897977529324 -123.96639934316272,-24.87910679424691 -126.46639934316336,-25.548979775360696 -128.9663993431819,-24.87910679431373 -130.79652636213558,-23.04897977540898 -131.46639934324938,-20.54897977540835 -130.79652636220243,-18.04897977538981 -128.96639934329767,-16.218852756436142 -126.46639934329704,-15.548979775322355" stroke="#ffa500" stroke-linecap="round" stroke-linejoin="round"/><polyline fill="none" points="103.63035367600897,151.5863472764771 106.13035367602751,150.91647429543016 107.96048069498119,149.0863472765254 108.63035367609497,146.58634727652478 107.960480695048,144.08634727650625 106.13035367614326,142.25622025755257 103.63035367614262,141.58634727643877 101.13035367612407,142.25622025748572 99.3002266571704,144.08634727639048 98.63035367605661,146.5863472763911 99.30022665710358,149.08634727640964 101.13035367600833,150.91647429536332 103.63035367600897,151.5863472764771" stroke="#00f" stroke-linecap="round" stroke-linejoin="round"/><polyline fill="none" points="-351.6780420767862,-63.80644561146238 -349.17804207676767,-64.47631859250934 -347.347915057814,-66.30644561141409 -346.67804207670025,-68.80644561141473 -347.34791505774723,-71.30644561143328 -349.178042076652,-73.13657263038695 -351.6780420766526,-73.80644561150075 -354.17804207667115,-73.13657263045378 -356.0081690956248,-71.30644561154904 -356.67804207673856,-68.8064456115484 -356.0081690956916,-66.30644561152985 -354.1780420767868,-64.47631859257618 -351.6780420767862,-63.80644561146239" stroke="#ffa500" stroke-linecap="round" stroke-linejoin="round"/><polyline fill="none" points="-205.4097617221666,104.48854625061288 -202.90976172214806,103.81867326956592 -201.0796347031944,101.98854625066117 -200.4097617220806,99.48854625066053 -201.07963470312754,96.98854625064199 -202.9097617220323,95.15841923168831 -205.40976172203293,94.48854625057452 -207.90976172205146,95.15841923162148 -209.73988874100513,96.98854625052623 -210.40976172211893,99.48854625052687 -209.73988874107198,101.98854625054541 -207.90976172216722,103.81867326949909 -205.4097617221666,104.48854625061288" stroke="#ffa500" stroke-linecap="round" stroke-linejoin="round"/><polyline fill="none" points="-270.1256195358746,116.01165351224256 -267.62561953585606,115.34178053119561 -265.79549251690236,113.51165351229086 -265.1256195357886,111.01165351229022 -265.79549251683557,108.51165351227168 -267.6256195357403,106.681526493318 -270.12561953574095,106.0116535122042 -272.6256195357595,106.68152649325116 -274.4557465547132,108.5116535121559 -275.125619535827,111.01165351215654 -274.45574655478003,113.51165351217509 -272.6256195358753,115.34178053112876 -270.12561953587465,116.01165351224256" stroke="#ffa500" stroke-linecap="round" stroke-linejoin="round"/><polyline fill="none" points="-220.1962870198139,-80.10455481252089 -217.69628701979534,-80.77442779356784 -215.86616000084166,-82.60455481247259 -215.19628701972786,-85.10455481247322 -215.8661600007748,-87.60455481249177 -217.69628701967954,-89.43468183144545 -220.19628701968017,-90.10455481255924 -222.69628701969873,-89.4346818315123 -224.5264140386524,-87.60455481260755 -225.1962870197662,-85.1045548126069 -224.52641403871925,-82.60455481258836 -222.69628701981452,-80.77442779363467 -220.1962870198139,-80.10455481252087" stroke="#008000" stroke-linecap="round" stroke-linejoin="round"/><polyline fill="none" points="-322.2603703202228,-84.3812682084591 -319.7603703202043,-85.05114118950605 -317.9302433012506,-86.8812682084108 -317.26037032013676,-89.38126820841144 -317.93024330118374,-91.88126820842999 -319.7603703200885,-93.71139522738368 -322.2603703200891,-94.38126820849747 -324.76037032010765,-93.71139522745052 -326.59049733906136,-91.88126820854578 -327.2603703201752,-89.38126820854514 -326.59049733912826,-86.88126820852659 -324.7603703202235,-85.0511411895729 -322.2603703202229,-84.3812682084591" stroke="#ffa500" stroke-linecap="round" stroke-linejoin="round"/><polyline fill="none" points="-240.30914700415443,-84.00508352770402 -237.80914700413587,-84.67495650875097 -235.9790199851822,-86.50508352765571 -235.3091470040684,-89.00508352765635 -235.97901998511534,-91.5050835276749 -237.80914700402008,-93.33521054662859 -240.3091470040207,-94.0050835277424 -242.80914700403926,-93.33521054669545 -244.63927402299294,-91.5050835277907 -245.30914700410673,-89.00508352779006 -244.63927402305978,-86.50508352777152 -242.80914700415505,-84.67495650881783 -240.30914700415443,-84.00508352770402" stroke="#00f" stroke-linecap="round" stroke-linejoin="round"/><polyline fill="none" points="41.21932511044122,-136.4630576373744 43.71932511045977,-137.13293061842134 45.54945212941346,-138.96305763732607 46.219325110527265,-141.4630576373267 45.54945212948032,-143.96305763734526 43.71932511057558,-145.79318465629893 41.21932511057495,-146.46305763741273 38.7193251105564,-145.79318465636578 36.88919809160271,-143.96305763746105 36.219325110488896,-141.46305763746042 36.88919809153584,-138.96305763744186 38.71932511044058,-137.13293061848816 41.21932511044121,-136.46305763737436" stroke="#00f" stroke-linecap="round" stroke-linejoin="round"/><polyline fill="none" points="-313.4331933708251,-48.26676236251357 -310.9331933708066,-48.93663534356051 -309.1030663518529,-50.76676236246525 -308.43319337073905,-53.26676236246588 -309.10306635178597,-55.766762362484435 -310.93319337069073,-57.596889381438125 -313.43319337069136,-58.26676236255194 -315.9331933707099,-57.596889381504994 -317.7633203896636,-55.766762362600254 -318.4331933707774,-53.26676236259962 -317.7633203897305,-50.76676236258107 -315.93319337082573,-48.93663534362738 -313.4331933708251,-48.26676236251357" stroke="#00f" stroke-linecap="round" stroke-linejoin="round"/><polyline fill="none" points="57.20087418839865,106.92208332858897 59.7008741884172,106.25221034754203 61.5310012073709,104.4220833286373 62.20087418848471,101.92208332863666 61.53100120743777,99.4220833286181 59.70087418853303,97.59195630966441 57.200874188532396,96.9220833285506 54.70087418851384,97.59195630959753 52.87074716956015,99.42208332850227 52.200874188446335,101.92208332850291 52.87074716949328,104.42208332852147 54.70087418839802,106.25221034747516 57.20087418839865,106.92208332858897" stroke="#ffa500" stroke-linecap="round" stroke-linejoin="round"/><polyline fill="none" points="-243.72101212997416,8.71686931426958 -241.2210121299556,8.04699633322264 -239.3908851110019,6.216869314317902 -238.72101212988807,3.716869314317268 -239.39088511093502,1.2168693142987141 -241.22101212983975,-0.6132577046549819 -243.72101212984037,-1.2831306857687985 -246.22101212985893,-0.6132577047218603 -248.05113914881264,1.2168693141828775 -248.72101212992646,3.716869314183512 -248.0511391488795,6.216869314202066 -246.22101212997478,8.046996333155763 -243.72101212997416,8.71686931426958" stroke="#008000" stroke-linecap="round" stroke-linejoin="round"/><polyline fill="none" points="45.07975590700531,42.7062825889677 47.57975590702386,42.03640960792077 49.409882925977556,40.20628258901603 50.079755907091375,37.706282589015395 49.40988292604444,35.20628258899684 47.5797559071397,33.376155570043146 45.07975590713907,32.70628258892933 42.579755907120514,33.37615556997626 40.74962888816682,35.206282588880995 40.079755907053,37.70628258888163 40.749628888099934,40.20628258890019 42.57975590700467,42.036409607853884 45.0797559070053,42.7062825889677" stroke="#ffa500" stroke-linecap="round" stroke-linejoin="round"/><polyline fill="none" points="61.13100225487722,-200.62722041176994 63.631002254895776,-201.29709339281686 65.46112927384948,-203.1272204117216 66.1310022549633,-205.62722041172222 65.46112927391637,-208.12722041174078 63.63100225501164,-209.95734743069448 61.131002255011005,-210.6272204118083 58.631002254992445,-209.9573474307614 56.80087523603874,-208.12722041185665 56.13100225492492,-205.62722041185603 56.80087523597186,-203.12722041183747 58.63100225487659,-201.29709339288377 61.131002254877224,-200.62722041176994" stroke="#ffa500" stroke-linecap="round" stroke-linejoin="round"/><polyline fill="none" points="16.637402860500984,232.49345517329806 19.137402860519543,231.82358219225114 20.967529879473247,229.9934551733464 21.63740286058707,227.49345517334578 20.967529879540137,224.99345517332722 19.137402860635405,223.16332815437352 16.63740286063477,222.4934551732597 14.13740286061621,223.1633281543066 12.307275841662506,224.99345517321134 11.63740286054868,227.49345517321197 12.30727584159561,229.99345517323053 14.137402860500343,231.82358219218423 16.637402860500977,232.49345517329806" stroke="#ffa500" stroke-linecap="round" stroke-linejoin="round"/><polyline fill="none" points="208.13031942784517,-137.46305277748317 210.63031942786372,-138.1329257585301 212.46044644681743,-139.96305277743483 213.13031942793125,-142.46305277743545 212.46044644688433,-144.963052777454 210.6303194279796,-146.7931797964077 208.13031942797897,-147.46305277752154 205.63031942796042,-146.79317979647462 203.8001924090067,-144.96305277756989 203.13031942789289,-142.46305277756926 203.8001924089398,-139.9630527775507 205.63031942784454,-138.132925758597 208.13031942784517,-137.46305277748317" stroke="#ffa500" stroke-linecap="round" stroke-linejoin="round"/><polyline fill="none" points="48.728232460551254,-128.76318212343287 51.228232460569814,-129.4330551044798 53.05835947952352,-131.26318212338452 53.728232460637344,-133.76318212338515 53.058359479590415,-136.2631821234037 51.22823246068568,-138.0933091423574 48.72823246068505,-138.76318212347124 46.22823246066649,-138.09330914242432 44.39810544171278,-136.26318212351958 43.728232460598946,-133.76318212351896 44.398105441645875,-131.2631821235004 46.22823246055061,-129.4330551045467 48.72823246055124,-128.76318212343287" stroke="#ffa500" stroke-linecap="round" stroke-linejoin="round"/><polyline fill="none" points="35.790719807493346,-104.56495045395872 38.290719807511906,-105.23482343500564 40.120846826465616,-107.06495045391037 40.79071980757945,-109.56495045391101 40.12084682653252,-112.06495045392957 38.29071980762779,-113.89507747288327 35.790719807627156,-114.5649504539971 33.290719807608596,-113.89507747295018 31.460592788654886,-112.06495045404544 30.790719807541052,-109.5649504540448 31.460592788587977,-107.06495045402625 33.29071980749271,-105.23482343507254 35.79071980749334,-104.56495045395872" stroke="#00f" stroke-linecap="round" stroke-linejoin="round"/><polyline fill="none" points="174.28972288488393,-122.98867164389932 176.7897228849025,-123.65854462494624 178.6198499038562,-125.48867164385098 179.28972288497002,-127.98867164385162 178.6198499039231,-130.4886716438702 176.78972288501836,-132.3187986628239 174.28972288501774,-132.98867164393772 171.78972288499918,-132.3187986628908 169.95959586604548,-130.48867164398607 169.28972288493165,-127.98867164398543 169.95959586597857,-125.48867164396687 171.7897228848833,-123.65854462501315 174.28972288488393,-122.98867164389931" stroke="#00f" stroke-linecap="round" stroke-linejoin="round"/><polyline fill="none" points="-338.85046077636804,-55.236591193105966 -336.35046077634945,-55.90646417415289 -334.52033375739575,-57.73659119305761 -333.8504607762819,-60.236591193058246 -334.52033375732884,-62.73659119307681 -336.35046077623355,-64.56671821203052 -338.8504607762342,-65.23659119314436 -341.35046077625276,-64.56671821209744 -343.18058779520646,-62.736591193192716 -343.8504607763203,-60.23659119319208 -343.18058779527337,-57.73659119317352 -341.35046077636866,-55.9064641742198 -338.85046077636804,-55.23659119310596" stroke="#00f" stroke-linecap="round" stroke-linejoin="round"/><polyline fill="none" points="108.74822730772286,-120.03111667296022 111.24822730774142,-120.70098965400715 113.07835432669513,-122.53111667291188 113.74822730780897,-125.03111667291252 113.07835432676205,-127.53111667293109 111.24822730785732,-129.3612436918848 108.74822730785668,-130.03111667299865 106.2482273078381,-129.36124369195173 104.41810028888439,-127.53111667304701 103.74822730777055,-125.03111667304637 104.41810028881747,-122.5311166730278 106.24822730772219,-120.70098965407408 108.74822730772283,-120.03111667296024" stroke="#00f" stroke-linecap="round" stroke-linejoin="round"/><polyline fill="none" points="-260.81182249784797,-110.39112553714233 -258.3118224978294,-111.06099851818925 -256.4816954788757,-112.89112553709397 -255.81182249776182,-115.39112553709461 -256.4816954788087,-117.89112553711318 -258.3118224977134,-119.7212525560669 -260.81182249771405,-120.39112553718074 -263.31182249773263,-119.72125255613382 -265.14194951668634,-117.8911255372291 -265.81182249780016,-115.39112553722846 -265.14194951675324,-112.89112553720989 -263.31182249784854,-111.06099851825617 -260.8118224978479,-110.39112553714233" stroke="#ffa500" stroke-linecap="round" stroke-linejoin="round"/><polyline fill="none" points="-260.1671792003711,125.69656926748169 -257.6671792003525,125.02669628643478 -255.83705218139878,123.19656926753007 -255.16717920028492,120.69656926752943 -255.83705218133184,118.19656926751085 -257.66717920023655,116.36644224855714 -260.1671792002372,115.6965692674433 -262.66717920025576,116.3664422484902 -264.49730621920946,118.19656926739492 -265.1671792003233,120.69656926739556 -264.49730621927637,123.19656926741413 -262.66717920037166,125.02669628636785 -260.16717920037104,125.69656926748169" stroke="#ffa500" stroke-linecap="round" stroke-linejoin="round"/><polyline fill="none" points="-204.13893383260157,16.56972397909611 -201.638933832583,15.8998509980492 -199.80880681362927,14.069723979144477 -199.13893383251542,11.569723979143843 -199.80880681356234,9.069723979125273 -201.63893383246707,7.23959696017155 -204.1389338324677,6.569723979057701 -206.63893383248626,7.239596960104612 -208.46906085144,9.069723979009334 -209.13893383255385,11.569723979009968 -208.46906085150692,14.069723979028538 -206.6389338326022,15.899850997982263 -204.13893383260157,16.569723979096114" stroke="#00f" stroke-linecap="round" stroke-linejoin="round"/><polyline fill="none" points="-261.5236018303656,-53.490340897203694 -259.023601830347,-54.1602138782506 -257.1934748113933,-55.99034089715532 -256.52360183027946,-58.49034089715595 -257.1934748113264,-60.990340897174526 -259.0236018302311,-62.82046791612825 -261.5236018302317,-63.490340897242106 -264.0236018302503,-62.8204679161952 -265.853728849204,-60.99034089729048 -266.52360183031783,-58.49034089728985 -265.8537288492709,-55.990340897271274 -264.0236018303662,-54.16021387831755 -261.5236018303656,-53.490340897203694" stroke="#008000" stroke-linecap="round" stroke-linejoin="round"/><polyline fill="none" points="144.08887013369278,-81.25884889898641 146.58887013371134,-81.92872188003332 148.41899715266507,-83.75884889893804 149.08887013377893,-86.25884889893868 148.41899715273203,-88.75884889895725 146.5888701338273,-90.58897591791099 144.08887013382667,-91.25884889902484 141.58887013380811,-90.58897591797793 139.75874311485438,-88.75884889907321 139.08887013374053,-86.25884889907258 139.75874311478742,-83.758848899054 141.58887013369213,-81.92872188010027 144.08887013369275,-81.25884889898641" stroke="#ffa500" stroke-linecap="round" stroke-linejoin="round"/><polyline fill="none" points="74.69256633332503,-183.75448032794193 77.1925663333436,-184.42435330898883 79.02269335229734,-186.25448032789353 79.6925663334112,-188.75448032789416 79.02269335236429,-191.25448032791274 77.19256633345957,-193.08460734686648 74.69256633345893,-193.75448032798033 72.19256633344035,-193.08460734693344 70.36243931448662,-191.25448032802873 69.69256633337277,-188.7544803280281 70.36243931441967,-186.25448032800952 72.1925663333244,-184.4243533090558 74.69256633332503,-183.75448032794193" stroke="#ffa500" stroke-linecap="round" stroke-linejoin="round"/><polyline fill="none" points="-275.71073702897127,-82.267235537198 -273.2107370289527,-82.93710851824491 -271.3806100099989,-84.76723553714963 -270.71073702888503,-87.26723553715027 -271.38061000993196,-89.76723553716884 -273.21073702883666,-91.59736255612258 -275.7107370288373,-92.26723553723643 -278.2107370288559,-91.59736255618952 -280.04086404780963,-89.7672355372848 -280.7107370289235,-87.26723553728417 -280.0408640478766,-84.76723553726559 -278.2107370289719,-82.93710851831186 -275.71073702897127,-82.267235537198" stroke="#00f" stroke-linecap="round" stroke-linejoin="round"/><polyline fill="none" points="79.08240498175645,-131.67911979032556 81.58240498177503,-132.34899277137245 83.41253200072876,-134.17911979027716 84.08240498184263,-136.67911979027778 83.41253200079574,-139.17911979029637 81.58240498189102,-141.0092468092501 79.08240498189038,-141.67911979036396 76.5824049818718,-141.00924680931706 74.75227796291807,-139.17911979041236 74.0824049818042,-136.67911979041173 74.7522779628511,-134.17911979039314 76.58240498175581,-132.3489927714394 79.08240498175645,-131.67911979032556" stroke="#00f" stroke-linecap="round" stroke-linejoin="round"/><polyline fill="none" points="65.22574386774401,-90.54422480133341 67.72574386776259,-91.2140977823803 69.55587088671632,-93.04422480128503 70.22574386783019,-95.54422480128567 69.5558708867833,-98.04422480130424 67.72574386787858,-99.87435182025797 65.22574386787794,-100.54422480137184 62.72574386785936,-99.87435182032495 60.89561684890562,-98.04422480142023 60.22574386779175,-95.54422480141959 60.89561684883864,-93.04422480140101 62.725743867743354,-91.21409778244727 65.22574386774399,-90.5442248013334" stroke="#ffa500" stroke-linecap="round" stroke-linejoin="round"/><polyline fill="none" points="-244.0857533589042,111.52181401149922 -241.58575335888563,110.85194103045232 -239.7556263399319,109.0218140115476 -239.08575335881804,106.52181401154697 -239.75562633986493,104.02181401152839 -241.58575335876964,102.19168699257465 -244.08575335877026,101.52181401146078 -246.58575335878885,102.19168699250767 -248.41588037774258,104.02181401141239 -249.08575335885644,106.52181401141303 -248.41588037780954,109.02181401143162 -246.58575335890484,110.85194103038536 -244.0857533589042,111.52181401149923" stroke="#ffa500" stroke-linecap="round" stroke-linejoin="round"/><polyline fill="none" points="-278.95655191778644,-58.082077174742 -276.45655191776785,-58.75195015578889 -274.6264248988141,-60.5820771746936 -273.9565519177002,-63.082077174694234 -274.6264248987471,-65.58207717471282 -276.4565519176518,-67.41220419366657 -278.9565519176524,-68.08207717478044 -281.456551917671,-67.41220419373354 -283.28667893662475,-65.58207717482884 -283.95655191773864,-63.0820771748282 -283.28667893669177,-60.58207717480962 -281.45655191778707,-58.75195015585587 -278.95655191778644,-58.082077174742" stroke="#008000" stroke-linecap="round" stroke-linejoin="round"/><polyline fill="none" points="-172.94998259141678,-17.562857224869028 -170.4499825913982,-18.232730205915917 -168.61985557244446,-20.06285722482063 -167.94998259133058,-22.562857224821265 -168.61985557237747,-25.06285722483985 -170.44998259128218,-26.892984243793595 -172.9499825912828,-27.562857224907468 -175.4499825913014,-26.892984243860578 -177.28010961025515,-25.06285722495587 -177.94998259136904,-22.562857224955234 -177.28010961032214,-20.06285722493665 -175.44998259141744,-18.232730205982904 -172.9499825914168,-17.562857224869028" stroke="#ffa500" stroke-linecap="round" stroke-linejoin="round"/><polyline fill="none" points="-204.6486814317834,-69.77686602416827 -202.1486814317648,-70.44673900521516 -200.31855441281104,-72.27686602411987 -199.64868143169716,-74.77686602412051 -200.31855441274405,-77.2768660241391 -202.14868143164875,-79.10699304309284 -204.64868143164938,-79.77686602420673 -207.14868143166797,-79.10699304315983 -208.97880845062173,-77.27686602425513 -209.6486814317356,-74.77686602425449 -208.97880845068872,-72.2768660242359 -207.148681431784,-70.44673900528215 -204.6486814317834,-69.77686602416827" stroke="#ffa500" stroke-linecap="round" stroke-linejoin="round"/><polyline fill="none" points="-233.65333029838533,-81.97874096098428 -231.15333029836674,-82.64861394203116 -229.32320327941298,-84.47874096093587 -228.6533302982991,-86.9787409609365 -229.323203279346,-89.4787409609551 -231.1533302982507,-91.30886797990884 -233.65333029825132,-91.97874096102272 -236.1533302982699,-91.30886797997584 -237.98345731722367,-89.47874096107114 -238.65333029833755,-86.9787409610705 -237.98345731729066,-84.47874096105191 -236.15333029838595,-82.64861394209817 -233.65333029838533,-81.97874096098428" stroke="#00f" stroke-linecap="round" stroke-linejoin="round"/><polyline fill="none" points="37.940096146948605,215.74054989531984 40.44009614696719,215.07067691427295 42.270223165920946,213.24054989536825 42.94009614703483,210.74054989536762 42.27022316598794,208.24054989534903 40.44009614708324,206.41042287639527 37.9400961470826,205.7405498952814 35.44009614706401,206.41042287632828 33.60996912811026,208.240549895233 32.940096146996375,210.7405498952336 33.609969128043254,213.2405498952522 35.44009614694796,215.07067691420596 37.9400961469486,215.74054989531984" stroke="#ffa500" stroke-linecap="round" stroke-linejoin="round"/><polyline fill="none" points="-219.5945770609234,15.178706795577323 -217.0945770609048,14.508833814530442 -215.26445004195105,12.678706795625736 -214.59457706083717,10.178706795625098 -215.26445004188406,7.678706795606507 -217.09457706078877,5.84857977665275 -219.5945770607894,5.178706795538864 -222.09457706080798,5.848579776585744 -223.92470407976174,7.678706795490449 -224.59457706087562,10.178706795491085 -223.92470407982876,12.678706795509676 -222.09457706092405,14.508833814463435 -219.59457706092343,15.178706795577321" stroke="#ffa500" stroke-linecap="round" stroke-linejoin="round"/></svg>