<?xml version="1.0" ?><!DOCTYPE svg  PUBLIC '-//W3C//DTD SVG 1.1//EN'  'http://www.w3.org/Graphics/SVG/1.1/DTD/svg11.dtd'><svg height="555.000" viewBox="-414.000 -261.000 668.000 555.000" width="668.000" xmlns="http://www.w3.org/2000/svg"><line fill="none" stroke="none" stroke-linecap="round" stroke-width="2.0" x1="0.0" x2="0.0" y1="0.0" y2="0.0"/><polygon fill="none" fill-rule="evenodd" points="0.0,0.0 0.0,0.0 0.0,0.0" stroke-linejoin="round"/><polyline fill="none" points="-21.657636961223556,120.71912079959519 -19.157636961204805,120.04924781854857 -17.327509942250778,118.219120799644 -16.657636961136586,115.71912079964336 -17.327509942183205,113.2191207996246 -19.157636961087764,111.38899378067057 -21.657636961088407,110.71912079955638 -24.15763696110716,111.388993780603 -25.987763980061185,113.21912079950756 -26.657636961175378,115.7191207995082 -25.98776398012876,118.21912079952696 -24.157636961224203,120.04924781848099 -21.65763696122356,120.71912079959519" stroke="#ffa500" stroke-linecap="round" stroke-linejoin="round"/><polyline fill="none" points="-17.052615184451668,69.74645725400227 -14.552615184432915,69.07658427295566 -12.722488165478884,67.2464572540511 -12.052615184364688,64.74645725405045 -12.722488165411303,62.246457254031704 -14.55261518431586,60.41633023507767 -17.052615184316505,59.74645725396348 -19.55261518433526,60.41633023501009 -21.38274220328929,62.24645725391465 -22.052615184403486,64.7464572539153 -21.382742203356873,67.24645725393405 -19.552615184452318,69.07658427288808 -17.05261518445167,69.74645725400228" stroke="#ffa500" stroke-linecap="round" stroke-linejoin="round"/><polyline fill="none" points="102.57592414868584,-74.05928030620194 105.0759241487046,-74.72915328724855 106.90605116765863,-76.55928030615311 107.57592414877283,-79.05928030615375 106.90605116772622,-81.55928030617251 105.07592414882166,-83.38940732512654 102.57592414882102,-84.05928030624074 100.07592414880226,-83.38940732519413 98.24579712984823,-81.55928030628957 97.57592414873403,-79.05928030628893 98.24579712978064,-76.55928030627017 100.0759241486852,-74.72915328731614 102.57592414868584,-74.05928030620194" stroke="#ffa500" stroke-linecap="round" stroke-linejoin="round"/><polyline fill="none" points="-155.81495539369863,-138.71122478194872 -153.31495539367987,-139.38109776299532 -151.48482837472582,-141.2112247818999 -150.81495539361163,-143.71122478190054 -151.48482837465824,-146.2112247819193 -153.3149553935628,-148.04135180087334 -155.81495539356345,-148.71122478198754 -158.3149553935822,-148.04135180094093 -160.14508241253625,-146.21122478203637 -160.81495539365045,-143.7112247820357 -160.14508241260384,-141.21122478201696 -158.31495539369928,-139.3810977630629 -155.81495539369863,-138.71122478194872" stroke="#ffa500" stroke-linecap="round" stroke-linejoin="round"/><polyline fill="none" points="-232.65953778743017,-41.31385876103752 -230.1595377874114,-41.98373174208413 -228.32941076845736,-43.81385876098869 -227.65953778734317,-46.31385876098933 -228.32941076838978,-48.81385876100809 -230.15953778729434,-50.64398577996213 -232.659537787295,-51.31385876107633 -235.15953778731375,-50.64398578002972 -236.9896648062678,-48.81385876112517 -237.659537787382,-46.31385876112452 -236.98966480633538,-43.81385876110576 -235.15953778743082,-41.983731742151726 -232.65953778743017,-41.31385876103752" stroke="#00f" stroke-linecap="round" stroke-linejoin="round"/><polyline fill="none" points="-337.90635264800613,-9.301767599431257 -335.4063526479874,-9.971640580477864 -333.57622562903333,-11.801767599382416 -332.9063526479191,-14.30176759938306 -333.5762256289657,-16.80176759940182 -335.4063526478702,-18.63189461835586 -337.90635264787085,-19.301767599470068 -340.4063526478896,-18.631894618423463 -342.23647966684365,-16.80176759951891 -342.9063526479579,-14.301767599518266 -342.2364796669113,-11.801767599499506 -340.40635264800676,-9.971640580545465 -337.90635264800613,-9.301767599431255" stroke="#00f" stroke-linecap="round" stroke-linejoin="round"/><polyline fill="none" points="133.7316843495092,-36.759573924417545 136.23168434952797,-37.42944690546415 138.061811368482,-39.259573924368695 138.7316843495962,-41.75957392436934 138.0618113685496,-44.2595739243881 136.23168434964504,-46.089700943342145 133.73168434964438,-46.759573924456355 131.23168434962562,-46.08970094340975 129.40155733067158,-44.259573924505204 128.73168434955736,-41.75957392450456 129.40155733060396,-39.2595739244858 131.23168434950853,-37.429446905531755 133.73168434950918,-36.759573924417545" stroke="#ffa500" stroke-linecap="round" stroke-linejoin="round"/><polyline fill="none" points="119.43431627745099,-212.33610636975015 121.93431627746975,-213.00597935079676 123.76444329642379,-214.83610636970133 124.434316277538,-217.33610636970198 123.76444329649141,-219.83610636972074 121.93431627758686,-221.66623338867478 119.43431627758622,-222.336106369789 116.93431627756746,-221.6662333887424 115.10418925861342,-219.83610636983784 114.4343162774992,-217.33610636983718 115.1041892585458,-214.83610636981842 116.93431627745035,-213.00597935086438 119.43431627745099,-212.33610636975015" stroke="#ffa500" stroke-linecap="round" stroke-linejoin="round"/><polyline fill="none" points="-377.71970188668615,-89.83050538775251 -375.2197018866674,-90.5003783687991 -373.38957486771335,-92.33050538770365 -372.7197018865991,-94.83050538770429 -373.3895748676457,-97.33050538772305 -375.21970188655024,-99.1606324066771 -377.71970188655087,-99.8305053877913 -380.2197018865696,-99.16063240674471 -382.04982890552367,-97.33050538784016 -382.7197018866379,-94.83050538783952 -382.0498289055913,-92.33050538782076 -380.2197018866868,-90.50037836886672 -377.71970188668615,-89.83050538775251" stroke="#00f" stroke-linecap="round" stroke-linejoin="round"/><polyline fill="none" points="-237.44758760749787,57.645813972008604 -234.9475876074791,56.97594099096201 -233.11746058852506,55.14581397205746 -232.44758760741084,52.645813972056814 -233.11746058845745,50.14581397203805 -234.94758760736198,48.315686953084 -237.44758760736264,47.64581397196978 -239.9475876073814,48.315686953016375 -241.77771462633544,50.14581397192092 -242.44758760744966,52.64581397192157 -241.77771462640305,55.145813971940335 -239.94758760749852,56.97594099089439 -237.44758760749787,57.645813972008604" stroke="#00f" stroke-linecap="round" stroke-linejoin="round"/><polyline fill="none" points="82.9283107871873,184.09891659651527 85.42831078720606,183.42904361546866 87.2584378061601,181.59891659656412 87.92831078727433,179.09891659656347 87.25843780622773,176.5989165965447 85.42831078732318,174.76878957759067 82.92831078732254,174.09891659647644 80.42831078730379,174.76878957752302 78.59818376834974,176.59891659642756 77.92831078723552,179.0989165964282 78.59818376828211,181.59891659644697 80.42831078718666,183.429043615401 82.9283107871873,184.09891659651524" stroke="#ffa500" stroke-linecap="round" stroke-linejoin="round"/><polyline fill="none" points="119.61141832485339,77.36552991286702 122.11141832487216,76.69565693182042 123.94154534382622,74.86552991291587 124.61141832494044,72.36552991291524 123.94154534389385,69.86552991289646 122.1114183249893,68.0354028939424 119.61141832498866,67.36552991282818 117.11141832496989,68.03540289387477 115.28129130601583,69.86552991277932 114.6114183249016,72.36552991277996 115.2812913059482,74.86552991279873 117.11141832485275,76.6956569317528 119.61141832485339,77.36552991286702" stroke="#ffa500" stroke-linecap="round" stroke-linejoin="round"/><polyline fill="none" points="140.15634375174244,-191.06334619662928 142.6563437517612,-191.73321917767586 144.48647077071524,-193.5633461965804 145.15634375182947,-196.06334619658105 144.4864707707829,-198.5633461965998 142.65634375187835,-200.39347321555385 140.1563437518777,-201.06334619666808 137.65634375185894,-200.3934732156215 135.8262167329049,-198.56334619671696 135.15634375179067,-196.0633461967163 135.82621673283725,-193.56334619669755 137.6563437517418,-191.7332191777435 140.15634375174244,-191.06334619662928" stroke="#ffa500" stroke-linecap="round" stroke-linejoin="round"/><polyline fill="none" points="-143.54145338531416,-96.03618298145766 -141.0414533852954,-96.70605596250424 -139.21132636634135,-98.53618298140879 -138.54145338522713,-101.03618298140942 -139.2113263662737,-103.5361829814282 -141.04145338517824,-105.36631000038226 -143.5414533851789,-106.03618298149648 -146.04145338519766,-105.3663100004499 -147.87158040415173,-103.53618298154537 -148.54145338526595,-101.03618298154473 -147.87158040421937,-98.53618298152595 -146.04145338531484,-96.7060559625719 -143.54145338531418,-96.03618298145767" stroke="#00f" stroke-linecap="round" stroke-linejoin="round"/><polyline fill="none" points="5.975389188763272,281.5842690279997 8.475389188782044,280.91439604695313 10.305516207736105,279.0842690280486 10.975389188850336,276.58426902804797 10.305516207803752,274.0842690280292 8.475389188899213,272.25414200907517 5.975389188898567,271.58426902796094 3.4753891888797948,272.2541420090075 1.645262169925733,274.08426902791206 0.9753891888115002,276.5842690279127 1.6452621698580836,279.08426902793144 3.4753891887626223,280.9143960468855 5.975389188763268,281.5842690279997" stroke="#ffa500" stroke-linecap="round" stroke-linejoin="round"/><polyline fill="none" points="-7.425444289759519,-141.74651125516698 -4.925444289740746,-142.41638423621356 -3.0953172707866825,-144.2465112551181 -2.4254442896724484,-146.74651125511875 -3.095317270719031,-149.24651125513753 -4.925444289623569,-151.0766382740916 -7.425444289624215,-151.74651125520583 -9.92544428964299,-151.07663827415925 -11.755571308597053,-149.24651125525472 -12.425444289711288,-146.74651125525406 -11.755571308664706,-144.24651125523528 -9.925444289760168,-142.4163842362812 -7.425444289759522,-141.74651125516698" stroke="#ffa500" stroke-linecap="round" stroke-linejoin="round"/><polyline fill="none" points="-263.937346231019,-28.62052050969536 -261.4373462310002,-29.29039349074194 -259.6072192120462,-31.12052050964648 -258.93734623093195,-33.62052050964712 -259.60721921197853,-36.120520509665894 -261.43734623088307,-37.95064752861996 -263.9373462308837,-38.6205205097342 -266.43734623090245,-37.95064752868762 -268.2674732498565,-36.120520509783084 -268.9373462309707,-33.62052050978244 -268.26747324992414,-31.12052050976366 -266.4373462310196,-29.290393490809596 -263.937346231019,-28.620520509695357" stroke="#008000" stroke-linecap="round" stroke-linejoin="round"/><polyline fill="none" points="38.839316472980975,-22.5074427489154 41.33931647299975,-23.177315729961975 43.169443491953814,-25.007442748866513 43.83931647306805,-27.50744274886716 43.16944349202147,-30.007442748885936 41.33931647311694,-31.837569767840005 38.83931647311629,-32.50744274895425 36.33931647309752,-31.83756976790767 34.50918945414345,-30.007442749003136 33.839316473029214,-27.507442749002493 34.50918945407579,-25.007442748983717 36.33931647298032,-23.177315730029648 38.83931647298097,-22.507442748915405" stroke="#ffa500" stroke-linecap="round" stroke-linejoin="round"/><polyline fill="none" points="-322.72135938802563,-109.36233942828409 -320.2213593880069,-110.03221240933067 -318.39123236905283,-111.8623394282352 -317.7213593879386,-114.36233942823584 -318.3912323689852,-116.86233942825461 -320.2213593878897,-118.69246644720869 -322.72135938789035,-119.36233942832293 -325.2213593879091,-118.69246644727635 -327.05148640686315,-116.86233942837181 -327.7213593879774,-114.36233942837117 -327.0514864069308,-111.8623394283524 -325.22135938802626,-110.03221240939833 -322.72135938802563,-109.36233942828409" stroke="#00f" stroke-linecap="round" stroke-linejoin="round"/><polyline fill="none" points="57.66878886646167,-240.1490970253941 60.16878886648045,-240.81897000644068 61.99891588543452,-242.6490970253452 62.668788866548766,-245.14909702534587 61.99891588550219,-247.64909702536465 60.16878886659766,-249.47922404431873 57.66878886659701,-250.14909702543298 55.16878886657823,-249.4792240443864 53.33866184762416,-247.64909702548186 52.668788866509914,-245.1490970254812 53.33866184755649,-242.64909702546242 55.16878886646102,-240.81897000650835 57.66878886646167,-240.1490970253941" stroke="#00f" stroke-linecap="round" stroke-linejoin="round"/><polyline fill="none" points="100.34231831509116,-30.00211663513283 102.84231831510994,-30.6719896161794 104.67244533406401,-32.50211663508393 105.34231831517826,-35.002116635084576 104.6724453341317,-37.502116635103356 102.84231831522716,-39.33224365405743 100.34231831522652,-40.002116635171674 97.84231831520773,-39.33224365412511 96.01219129625366,-37.502116635220574 95.34231831513941,-35.00211663521993 96.01219129618597,-32.50211663520115 97.84231831509051,-30.67198961624707 100.34231831509115,-30.002116635132822" stroke="#ffa500" stroke-linecap="round" stroke-linejoin="round"/><polyline fill="none" points="-109.45159382308167,29.65612237069263 -106.95159382306288,28.98624938964606 -105.1214668041088,27.156122370741528 -104.45159382299455,24.65612237074088 -105.12146680404112,22.156122370722102 -106.95159382294565,20.325995351768025 -109.4515938229463,19.656122370653772 -111.95159382296508,20.32599535170034 -113.78172084191915,22.15612237060487 -114.4515938230334,24.656122370605516 -113.78172084198684,27.1561223706243 -111.9515938230823,28.98624938957838 -109.45159382308167,29.656122370692632" stroke="#ffa500" stroke-linecap="round" stroke-linejoin="round"/><polyline fill="none" points="148.43098420869794,-178.69701524734538 150.93098420871672,-179.36688822839193 152.7611112276708,-181.19701524729646 153.43098420878505,-183.69701524729712 152.7611112277385,-186.1970152473159 150.93098420883396,-188.02714226626998 148.4309842088333,-188.69701524738423 145.93098420881452,-188.02714226633768 144.10085718986045,-186.19701524743314 143.4309842087462,-183.6970152474325 144.10085718979275,-181.1970152474137 145.93098420869728,-179.36688822845963 148.43098420869794,-178.69701524734538" stroke="#ffa500" stroke-linecap="round" stroke-linejoin="round"/><polyline fill="none" points="-154.34913243970135,107.46276282180733 -151.84913243968256,106.79288984076076 -150.0190054207285,104.96276282185623 -149.34913243961424,102.46276282185559 -150.0190054206608,99.9627628218368 -151.84913243956532,98.13263580288272 -154.34913243956598,97.46276282176846 -156.84913243958476,98.13263580281503 -158.67925945853884,99.96276282171956 -159.3491324396531,102.4627628217202 -158.67925945860654,104.96276282173899 -156.849132439702,106.79288984069308 -154.34913243970135,107.46276282180733" stroke="#00f" stroke-linecap="round" stroke-linejoin="round"/><polyline fill="none" points="129.4870441217066,-163.3135479073781 131.98704412172538,-163.98342088842466 133.81717114067945,-165.8135479073292 134.4870441217937,-168.31354790732985 133.81717114074715,-170.81354790734864 131.98704412184262,-172.6436749263027 129.48704412184196,-173.31354790741696 126.98704412182317,-172.6436749263704 125.15691710286909,-170.81354790746587 124.48704412175483,-168.31354790746522 125.1569171028014,-165.81354790744643 126.98704412170592,-163.98342088849236 129.48704412170656,-163.3135479073781" stroke="#00f" stroke-linecap="round" stroke-linejoin="round"/><polyline fill="none" points="236.90013928377422,-161.91417299339895 239.400139283793,-162.5840459744455 241.23026630274708,-164.41417299335004 241.90013928386134,-166.9141729933507 241.23026630281478,-169.41417299336948 239.40013928391025,-171.24430001232355 236.9001392839096,-171.9141729934378 234.4001392838908,-171.24430001239125 232.5700122649367,-169.41417299348672 231.90013928382245,-166.91417299348606 232.570012264869,-164.41417299346728 234.40013928377354,-162.58404597451317 236.9001392837742,-161.91417299339892" stroke="#00f" stroke-linecap="round" stroke-linejoin="round"/><polyline fill="none" points="91.00200234564076,69.60040326342022 93.50200234565955,68.93053028237367 95.33212936461364,67.10040326346915 96.0020023457279,64.60040326346851 95.33212936468135,62.10040326344972 93.50200234577683,60.27027624449563 91.00200234577619,59.60040326338137 88.5020023457574,60.270276244427926 86.67187532680332,62.10040326333245 86.00200234568905,64.6004032633331 86.6718753267356,67.1004032633519 88.50200234564012,68.93053028230598 91.00200234564076,69.60040326342025" stroke="#ffa500" stroke-linecap="round" stroke-linejoin="round"/><polyline fill="none" points="91.07629786995518,38.47154901232382 93.57629786997397,37.80167603127727 95.40642488892806,35.97154901237274 96.07629787004232,33.471549012372094 95.40642488899577,30.971549012353304 93.57629787009125,29.14142199339921 91.0762978700906,28.471549012284942 88.57629787007181,29.141421993331498 86.74617085111772,30.97154901223602 86.07629787000346,33.47154901223667 86.74617085105001,35.971549012255466 88.57629786995453,37.80167603120956 91.07629786995518,38.47154901232383" stroke="#ffa500" stroke-linecap="round" stroke-linejoin="round"/><polyline fill="none" points="-68.30294029233958,-87.94968675291217 -65.8029402923208,-88.61955973395872 -63.972813273366704,-90.44968675286324 -63.30294029225244,-92.9496867528639 -63.97281327329899,-95.44968675288268 -65.80294029220352,-97.27981377183679 -68.30294029220417,-97.94968675295105 -70.80294029222296,-97.2798137719045 -72.63306731117706,-95.44968675299998 -73.30294029229132,-92.94968675299933 -72.63306731124477,-90.44968675298054 -70.80294029234025,-88.61955973402644 -68.3029402923396,-87.94968675291217" stroke="#ffa500" stroke-linecap="round" stroke-linejoin="round"/><polyline fill="none" points="-157.89536467449597,18.545434115396148 -155.39536467447718,17.875561134349596 -153.56523765552308,16.045434115445076 -152.8953646744088,13.545434115444428 -153.56523765545535,11.045434115425634 -155.39536467435988,9.215307096471536 -157.89536467436054,8.545434115357263 -160.39536467437932,9.215307096403814 -162.22549169333342,11.045434115308336 -162.8953646744477,13.545434115308984 -162.22549169340115,16.04543411532778 -160.39536467449662,17.875561134281877 -157.89536467449597,18.54543411539615" stroke="#ffa500" stroke-linecap="round" stroke-linejoin="round"/><polyline fill="none" points="-264.2704094200351,53.525232824504876 -261.7704094200163,52.855359843458324 -259.9402824010622,51.025232824553804 -259.2704094199479,48.52523282455316 -259.9402824009944,46.02523282453436 -261.77040941989895,44.19510580558026 -264.2704094198996,43.52523282446599 -266.7704094199184,44.19510580551253 -268.6005364388725,46.02523282441705 -269.2704094199868,48.5252328244177 -268.60053643894025,51.02523282443649 -266.7704094200357,52.855359843390595 -264.2704094200351,53.52523282450487" stroke="#ffa500" stroke-linecap="round" stroke-linejoin="round"/><polyline fill="none" points="-62.025393970516795,-134.05209437505263 -59.525393970498,-134.72196735609919 -57.6952669515439,-136.5520943750037 -57.02539397042962,-139.05209437500434 -57.695266951476164,-141.55209437502313 -59.525393970380684,-143.38222139397723 -62.02539397038133,-144.0520943750915 -64.52539397040013,-143.38222139404496 -66.35552098935423,-141.55209437514046 -67.02539397046851,-139.0520943751398 -66.35552098942198,-136.55209437512102 -64.52539397051746,-134.7219673561669 -62.02539397051681,-134.05209437505263" stroke="#00f" stroke-linecap="round" stroke-linejoin="round"/><polyline fill="none" points="-315.41946942901444,9.71912708539612 -312.9194694289956,9.049254104349577 -311.0893424100415,7.219127085445059 -310.41946942892724,4.719127085444411 -311.08934240997377,2.219127085425613 -312.9194694288783,0.38900006647150853 -315.4194694288789,-0.28087291464277264 -317.91946942889774,0.38900006640377005 -319.74959644785184,2.219127085308287 -320.4194694289661,4.719127085308935 -319.7495964479196,7.2191270853277345 -317.91946942901507,9.04925410428184 -315.41946942901444,9.719127085396122" stroke="#ffa500" stroke-linecap="round" stroke-linejoin="round"/><polyline fill="none" points="-150.10552522989795,139.47339720814432 -147.60552522987916,138.80352422709777 -145.77539821092506,136.97339720819326 -145.10552522981078,134.4733972081926 -145.77539821085733,131.97339720817382 -147.60552522976184,130.14327018921972 -150.1055252297625,129.47339720810544 -152.60552522978128,130.143270189152 -154.43565224873538,131.9733972080565 -155.10552522984966,134.47339720805715 -154.4356522488031,136.97339720807594 -152.6055252298986,138.80352422703004 -150.10552522989795,139.47339720814432" stroke="#ffa500" stroke-linecap="round" stroke-linejoin="round"/><polyline fill="none" points="153.3257242891664,217.37707841553478 155.8257242891852,216.70720543448823 157.6558513081393,214.87707841558372 158.32572428925357,212.37707841558307 157.65585130820702,209.87707841556428 155.8257242893025,208.04695139661018 153.32572428930186,207.3770784154959 150.82572428928307,208.04695139654243 148.99559727032897,209.87707841544693 148.3257242892147,212.37707841544758 148.99559727026121,214.8770784154664 150.82572428916572,216.7072054344205 153.32572428916637,217.37707841553478" stroke="#ffa500" stroke-linecap="round" stroke-linejoin="round"/><polyline fill="none" points="-324.3054045362385,-112.59689402805877 -321.80540453621967,-113.26676700910531 -319.97527751726557,-115.09689402800981 -319.3054045361513,-117.59689402801047 -319.9752775171978,-120.09689402802927 -321.80540453610234,-121.92702104698338 -324.30540453610297,-122.59689402809768 -326.8054045361218,-121.92702104705114 -328.6355315550759,-120.09689402814664 -329.30540453619017,-117.59689402814598 -328.63553155514364,-115.09689402812718 -326.8054045362391,-113.26676700917307 -324.3054045362385,-112.59689402805877" stroke="#f00" stroke-linecap="round" stroke-linejoin="round"/><polyline fill="none" points="21.782528772570245,-113.01612709384403 24.28252877258905,-113.68600007489057 26.112655791543162,-115.51612709379508 26.782528772657454,-118.01612709379573 26.11265579161092,-120.51612709381453 24.282528772706407,-122.34625411276865 21.78252877270576,-123.01612709388294 19.282528772686955,-122.3462541128364 17.45240175373284,-120.5161270939319 16.782528772618548,-118.01612709393125 17.45240175366508,-115.51612709391244 19.282528772569588,-113.68600007495833 21.782528772570235,-113.01612709384403" stroke="#ffa500" stroke-linecap="round" stroke-linejoin="round"/><polyline fill="none" points="155.92137070542466,-156.4300340677748 158.42137070544348,-157.09990704882134 160.2514977243976,-158.93003406772584 160.9213707055119,-161.4300340677265 160.25149772446537,-163.9300340677453 158.42137070556086,-165.76016108669944 155.9213707055602,-166.43003406781372 153.4213707055414,-165.7601610867672 151.59124368658726,-163.9300340678627 150.92137070547295,-161.43003406786204 151.59124368651948,-158.93003406784322 153.42137070542398,-157.0999070488891 155.92137070542464,-156.43003406777478" stroke="#ffa500" stroke-linecap="round" stroke-linejoin="round"/><polyline fill="none" points="210.68410088730025,-89.2908099330729 213.18410088731906,-89.96068291411942 215.0142279062732,-91.79080993302392 215.6841008873875,-94.29080993302458 215.01422790634098,-96.79080993304338 213.18410088743647,-98.62093695199749 210.68410088743582,-99.29080993311179 208.184100887417,-98.62093695206526 206.35397386846287,-96.79080993316076 205.68410088734856,-94.2908099331601 206.3539738683951,-91.7908099331413 208.1841008872996,-89.96068291418719 210.68410088730025,-89.2908099330729" stroke="#ffa500" stroke-linecap="round" stroke-linejoin="round"/><polyline fill="none" points="-307.9103072362114,6.498010376337162 -305.4103072361926,5.828137395290635 -303.5801802172385,3.9980103763861274 -302.9103072361242,1.4980103763854804 -303.5801802171707,-1.0019896236333268 -305.41030723607525,-2.8321166425874473 -307.9103072360759,-3.5019896237017476 -310.4103072360947,-2.8321166426552216 -312.2404342550488,-1.0019896237507147 -312.9103072361631,1.4980103762499324 -312.24043425511655,3.9980103762687405 -310.410307236212,5.828137395222862 -307.9103072362114,6.498010376337164" stroke="#00f" stroke-linecap="round" stroke-linejoin="round"/><polyline fill="none" points="111.4187337209316,-172.6685071605616 113.9187337209504,-173.33838014160813 115.74886073990453,-175.16850716051263 116.41873372101882,-177.6685071605133 115.7488607399723,-180.1685071605321 113.9187337210678,-181.99863417948623 111.41873372106714,-182.66850716060054 108.91873372104833,-181.99863417955402 107.0886067020942,-180.1685071606495 106.41873372097989,-177.66850716064886 107.08860670202641,-175.16850716063004 108.91873372093092,-173.3383801416759 111.41873372093157,-172.6685071605616" stroke="#ffa500" stroke-linecap="round" stroke-linejoin="round"/><polyline fill="none" points="-6.270780302720523,-66.92219370474402 -3.7707803027017124,-67.59206668579054 -1.9406532837475867,-69.42219370469505 -1.2707803026332811,-71.9221937046957 -1.9406532836798027,-74.42219370471452 -3.770780302584307,-76.25232072366865 -6.270780302584955,-76.92219370478296 -8.770780302603765,-76.25232072373643 -10.60090732155789,-74.42219370483193 -11.270780302672197,-71.92219370483127 -10.600907321625677,-69.42219370481246 -8.770780302721173,-67.59206668585833 -6.2707803027205244,-66.92219370474402" stroke="#ffa500" stroke-linecap="round" stroke-linejoin="round"/><polyline fill="none" points="118.63312427407479,102.11805310680889 121.1331242740936,101.44818012576236 122.96325129304773,99.61805310685786 123.63312427416204,97.1180531068572 122.96325129311552,94.61805310683839 121.13312427421101,92.78792608788426 118.63312427421036,92.11805310676995 116.13312427419154,92.78792608781647 114.30299725523741,94.61805310672098 113.6331242741231,97.11805310672163 114.30299725516963,99.61805310674045 116.13312427407413,101.44818012569458 118.63312427407479,102.11805310680889" stroke="#ffa500" stroke-linecap="round" stroke-linejoin="round"/><polyline fill="none" points="102.80475041884534,224.81817168083455 105.30475041886416,224.14829869978803 107.13487743781829,222.31817168088352 107.8047504189326,219.81817168088287 107.13487743788608,217.31817168086405 105.30475041898157,215.48804466190992 102.80475041898092,214.81817168079561 100.3047504189621,215.48804466184214 98.47462340000797,217.31817168074664 97.80475041889366,219.8181716807473 98.47462339994017,222.3181716807661 100.30475041884468,224.14829869972024 102.80475041884533,224.81817168083455" stroke="#ffa500" stroke-linecap="round" stroke-linejoin="round"/><polyline fill="none" points="-232.0758518538077,-151.56622527188284 -229.5758518537889,-152.23609825292937 -227.74572483483476,-154.06622527183387 -227.07585185372045,-156.56622527183453 -227.74572483476697,-159.06622527185334 -229.57585185367148,-160.89635229080747 -232.07585185367213,-161.56622527192178 -234.57585185369095,-160.89635229087526 -236.40597887264508,-159.06622527197075 -237.0758518537594,-156.5662252719701 -236.40597887271286,-154.06622527195128 -234.57585185380836,-152.23609825299715 -232.0758518538077,-151.56622527188284" stroke="#00f" stroke-linecap="round" stroke-linejoin="round"/><polyline fill="none" points="-219.83390541561886,76.56234811171731 -217.33390541560004,75.8924751306708 -215.5037783966459,74.0623481117663 -214.8339054155316,71.56234811176564 -215.50377839657813,69.06234811174683 -217.33390541548263,67.2322210927927 -219.8339054154833,66.56234811167838 -222.3339054155021,67.23222109272488 -224.16403243445623,69.06234811162938 -224.83390541557054,71.56234811163003 -224.16403243452402,74.06234811164884 -222.3339054156195,75.89247513060299 -219.83390541561886,76.56234811171731" stroke="#00f" stroke-linecap="round" stroke-linejoin="round"/><polyline fill="none" points="155.45098134063386,121.67017618741772 157.95098134065267,121.00030320637121 159.7811083596068,119.17017618746672 160.4509813407211,116.67017618746607 159.78110835967462,114.17017618744725 157.9509813407701,112.34004916849311 155.45098134076946,111.67017618737879 152.95098134075064,112.3400491684253 151.12085432179651,114.17017618732979 150.4509813406822,116.67017618733044 151.1208543217287,119.17017618734926 152.9509813406332,121.0003032063034 155.45098134063386,121.67017618741772" stroke="#ffa500" stroke-linecap="round" stroke-linejoin="round"/><polyline fill="none" points="-283.46772386672166,43.132478226154255 -280.96772386670284,42.462605245107746 -279.1375968477487,40.63247822620325 -278.46772386663434,38.1324782262026 -279.13759684768087,35.63247822618378 -280.96772386658535,33.802351207229634 -283.46772386658597,33.13247822611531 -285.9677238666048,33.80235120716181 -287.79785088555894,35.63247822606631 -288.4677238666733,38.13247822606696 -287.79785088562676,40.63247822608578 -285.9677238667223,42.462605245039924 -283.46772386672166,43.13247822615425" stroke="#ffa500" stroke-linecap="round" stroke-linejoin="round"/><polyline fill="none" points="-182.62836237556797,-123.09511766576782 -180.12836237554916,-123.76499064681433 -178.29823535659503,-125.59511766571882 -177.6283623754807,-128.09511766571947 -178.2982353565272,-130.5951176657383 -180.1283623754317,-132.42524468469242 -182.62836237543235,-133.09511766580675 -185.12836237545116,-132.42524468476026 -186.95848939440532,-130.59511766585575 -187.62836237551966,-128.0951176658551 -186.95848939447316,-125.59511766583628 -185.12836237556866,-123.76499064688214 -182.628362375568,-123.09511766576782" stroke="#00f" stroke-linecap="round" stroke-linejoin="round"/><polyline fill="none" points="186.53754373044228,-55.389234417266714 189.0375437304611,-56.059107398313216 190.86767074941525,-57.88923441721771 191.5375437305296,-60.389234417218354 190.8676707494831,-62.889234417237176 189.0375437305786,-64.71936143619132 186.53754373057794,-65.38923441730564 184.03754373055912,-64.71936143625915 182.20741671160496,-62.88923441735466 181.53754373049063,-60.38923441735401 182.20741671153712,-57.88923441733519 184.03754373044163,-56.059107398381045 186.53754373044228,-55.389234417266714" stroke="#ffa500" stroke-linecap="round" stroke-linejoin="round"/><polyline fill="none" points="-17.91574483055041,31.829231692471854 -15.415744830531585,31.159358711425355 -13.585617811577436,29.329231692520864 -12.915744830463105,26.829231692520214 -13.585617811509605,24.329231692501388 -15.415744830414098,22.499104673547237 -17.91574483041475,21.829231692432906 -20.415744830433574,22.499104673479405 -22.245871849387726,24.329231692383896 -22.91574483050206,26.829231692384546 -22.24587184945556,29.329231692403372 -20.41574483055107,31.159358711357523 -17.91574483055042,31.829231692471858" stroke="#00f" stroke-linecap="round" stroke-linejoin="round"/><polyline fill="none" points="68.71038793532666,158.59128752940234 71.2103879353455,157.92141454835584 73.04051495429965,156.09128752945134 73.71038793541399,153.59128752945068 73.0405149543675,151.09128752943187 71.210387935463,149.2611605104777 68.71038793546235,148.59128752936337 66.21038793544352,149.26116051040987 64.38026091648936,151.09128752931434 63.710387935375024,153.591287529315 64.38026091642152,156.0912875293338 66.21038793532601,157.92141454828797 68.71038793532666,158.5912875294023" stroke="#ffa500" stroke-linecap="round" stroke-linejoin="round"/><polyline fill="none" points="-293.859712949929,-159.86076023159023 -291.3597129499102,-160.53063321263673 -289.52958593095605,-162.3607602315412 -288.8597129498417,-164.86076023154186 -289.5295859308882,-167.36076023156068 -291.35971294979265,-169.19088725051483 -293.8597129497933,-169.86076023162917 -296.3597129498121,-169.19088725058268 -298.18983996876625,-167.3607602316782 -298.8597129498806,-164.86076023167755 -298.1898399688341,-162.36076023165873 -296.35971294992964,-160.53063321270457 -293.859712949929,-159.86076023159023" stroke="#ffa500" stroke-linecap="round" stroke-linejoin="round"/><polyline fill="none" points="-111.76699723540762,-108.29516033835867 -109.26699723538879,-108.96503331940517 -107.43687021643463,-110.79516033830966 -106.76699723532029,-113.29516033831031 -107.43687021636678,-115.79516033832914 -109.26699723527128,-117.6252873572833 -111.76699723527193,-118.29516033839764 -114.26699723529076,-117.62528735735114 -116.09712425424492,-115.79516033844665 -116.76699723535926,-113.295160338446 -116.09712425431276,-110.79516033842717 -114.26699723540827,-108.96503331947301 -111.76699723540762,-108.29516033835867" stroke="#ffa500" stroke-linecap="round" stroke-linejoin="round"/><polyline fill="none" points="-160.48873759409358,51.64598140239803 -157.98873759407473,50.97610842135154 -156.15861057512058,49.14598140244705 -155.48873759400624,46.6459814024464 -156.15861057505273,44.14598140242757 -157.9887375939572,42.315854383473415 -160.48873759395786,41.64598140235907 -162.9887375939767,42.31585438340556 -164.81886461293087,44.14598140231004 -165.4887375940452,46.64598140231069 -164.8188646129987,49.14598140232952 -162.98873759409423,50.976108421283676 -160.48873759409358,51.64598140239802" stroke="#ffa500" stroke-linecap="round" stroke-linejoin="round"/><polyline fill="none" points="10.912829916424638,110.99289664876457 13.41282991644347,110.32302366771808 15.242956935397633,108.49289664881358 15.912829916511978,105.99289664881293 15.24295693546549,103.4928966487941 13.412829916561003,101.66276962983994 10.912829916560353,100.99289664872559 8.41282991654152,101.66276962977207 6.582702897587358,103.49289664867656 5.91282991647301,105.99289664867722 6.582702897519496,108.49289664869605 8.41282991642398,110.3230236676502 10.91282991642463,110.99289664876456" stroke="#00f" stroke-linecap="round" stroke-linejoin="round"/><polyline fill="none" points="-7.48981093421437,193.5442487491936 -4.989810934195537,192.8743757681471 -3.1596839152413727,191.04424874924263 -2.4898109341270236,188.54424874924197 -3.1596839151735083,186.04424874922313 -4.989810934077992,184.21412173026897 -7.489810934078641,183.54424874915463 -9.989810934097475,184.21412173020113 -11.81993795305164,186.0442487491056 -12.489810934165991,188.54424874910626 -11.819937953119506,191.0442487491251 -9.989810934215022,192.87437576807926 -7.489810934214372,193.5442487491936" stroke="#ffa500" stroke-linecap="round" stroke-linejoin="round"/><polyline fill="none" points="-86.8405888563362,-26.917912867509344 -84.34058885631737,-27.58778584855583 -82.5104618373632,-29.417912867460313 -81.84058885624884,-31.917912867460963 -82.51046183729532,-34.4179128674798 -84.3405888561998,-36.248039886433965 -86.84058885620045,-36.91791286754832 -89.34058885621928,-36.248039886501836 -91.17071587517346,-34.41791286759735 -91.84058885628781,-31.9179128675967 -91.17071587524133,-29.417912867577865 -89.34058885633685,-27.587785848623696 -86.8405888563362,-26.917912867509344" stroke="#00f" stroke-linecap="round" stroke-linejoin="round"/><polyline fill="none" points="-132.8339799582753,101.24128181418017 -130.33397995825646,100.57140883313369 -128.5038529393023,98.74128181422921 -127.83397995818795,96.24128181422856 -128.50385293923443,93.74128181420973 -130.3339799581389,91.91115479525556 -132.83397995813957,91.2412818141412 -135.3339799581584,91.91115479518768 -137.16410697711257,93.74128181409216 -137.83397995822693,96.24128181409282 -137.16410697718047,98.74128181411166 -135.333979958276,100.57140883306583 -132.83397995827534,101.24128181418018" stroke="#ffa500" stroke-linecap="round" stroke-linejoin="round"/><polyline fill="none" points="15.88967401908548,0.52596546442813 18.389674019104316,-0.14390751661834855 20.21980103805849,-1.974034535522829 20.889674019172844,-4.4740345355234785 20.219801038126366,-6.974034535542316 18.389674019221886,-8.804161554496488 15.889674019221236,-9.474034535610846 13.389674019202397,-8.804161554564368 11.559547000248225,-6.974034535659888 10.889674019133867,-4.4740345356592375 11.559547000180345,-1.9740345356403997 13.389674019084824,-0.14390751668622714 15.889674019085472,0.5259654644281316" stroke="#ffa500" stroke-linecap="round" stroke-linejoin="round"/><polyline fill="none" points="-300.865955148238,-128.76322481465715 -298.3659551482192,-129.43309779570362 -296.53582812926504,-131.2632248146081 -295.8659551481507,-133.76322481460875 -296.53582812919717,-136.2632248146276 -298.36595514810165,-138.09335183358178 -300.8659551481023,-138.76322481469614 -303.3659551481211,-138.09335183364968 -305.19608216707525,-136.2632248147452 -305.8659551481896,-133.76322481474455 -305.1960821671431,-131.2632248147257 -303.36595514823864,-129.43309779577152 -300.865955148238,-128.76322481465715" stroke="#008000" stroke-linecap="round" stroke-linejoin="round"/><polyline fill="none" points="-221.97829625595173,-132.342688496684 -219.4782962559329,-133.01256147773046 -217.6481692369787,-134.84268849663493 -216.97829625586434,-137.3426884966356 -217.6481692369108,-139.84268849665443 -219.47829625581528,-141.67281551560862 -221.97829625581593,-142.34268849672299 -224.47829625583478,-141.67281551567652 -226.30842327478896,-139.84268849677204 -226.97829625590333,-137.3426884967714 -226.30842327485686,-134.84268849675254 -224.4782962559524,-133.01256147779836 -221.97829625595173,-132.342688496684" stroke="#00f" stroke-linecap="round" stroke-linejoin="round"/><polyline fill="none" points="76.06719494442359,241.8061671344035 78.56719494444243,241.13629415335703 80.3973219633966,239.30616713445255 81.06719494451097,236.8061671344519 80.3973219634645,234.30616713443305 78.56719494456003,232.47604011547887 76.06719494455938,231.8061671343645 73.56719494454053,232.47604011541097 71.73706792558636,234.30616713431544 71.06719494447199,236.8061671343161 71.73706792551846,239.30616713433494 73.56719494442294,241.13629415328913 76.06719494442359,241.8061671344035" stroke="#00f" stroke-linecap="round" stroke-linejoin="round"/><polyline fill="none" points="-154.38697978713034,18.831832030129004 -151.8869797871115,18.161959049082533 -150.0568527681573,16.331832030178056 -149.38697978704295,13.831832030177406 -150.0568527680894,11.331832030158562 -151.8869797869939,9.50170501120438 -154.38697978699454,8.831832030090013 -156.8869797870134,9.501705011136481 -158.71710680596757,11.331832030040957 -159.38697978708194,13.831832030041607 -158.71710680603547,16.33183203006045 -156.886979787131,18.161959049014634 -154.38697978713034,18.831832030129004" stroke="#00f" stroke-linecap="round" stroke-linejoin="round"/><polyline fill="none" points="150.2120836102145,175.86626030982947 152.71208361023335,175.196387328783 154.54221062918754,173.36626030987853 155.2120836103019,170.86626030987787 154.54221062925544,168.36626030985903 152.71208361035096,166.53613329090484 150.2120836103503,165.86626030979048 147.71208361033146,166.53613329083694 145.88195659137727,168.36626030974142 145.2120836102629,170.86626030974207 145.88195659130938,173.36626030976092 147.71208361021385,175.1963873287151 150.2120836102145,175.86626030982947" stroke="#ffa500" stroke-linecap="round" stroke-linejoin="round"/><polyline fill="none" points="-162.40039656321733,-65.66478330918545 -159.90039656319848,-66.33465629023192 -158.0702695442443,-68.1647833091364 -157.40039656312993,-70.66478330913705 -158.0702695441764,-73.1647833091559 -159.90039656308088,-74.99491032811008 -162.40039656308153,-75.66478330922445 -164.90039656310037,-74.99491032817798 -166.73052358205456,-73.1647833092735 -167.40039656316893,-70.66478330927285 -166.73052358212246,-68.164783309254 -164.90039656321798,-66.33465629029982 -162.40039656321733,-65.66478330918544" stroke="#ffa500" stroke-linecap="round" stroke-linejoin="round"/><polyline fill="none" points="105.7344923031311,-58.18297622711903 108.23449230314995,-58.85284920816549 110.06461932210414,-60.68297622706996 110.73449230321852,-63.182976227070604 110.06461932217205,-65.68297622708945 108.23449230326757,-67.51310324604364 105.73449230326692,-68.18297622715802 103.23449230324808,-67.51310324611156 101.40436528429389,-65.68297622720708 100.73449230317951,-63.18297622720643 101.40436528422597,-60.68297622718758 103.23449230313045,-58.852849208233394 105.7344923031311,-58.18297622711901" stroke="#ffa500" stroke-linecap="round" stroke-linejoin="round"/><polyline fill="none" points="-174.7826550263715,133.71653404705262 -172.28265502635264,133.04666106600615 -170.45252800739846,131.21653404710167 -169.7826550262841,128.71653404710102 -170.45252800733056,126.21653404708218 -172.28265502623503,124.38640702812799 -174.7826550262357,123.71653404701361 -177.28265502625453,124.38640702806006 -179.11278204520872,126.21653404696453 -179.78265502632308,128.71653404696517 -179.11278204527662,131.216534046984 -177.28265502637214,133.0466610659382 -174.7826550263715,133.71653404705256" stroke="#ffa500" stroke-linecap="round" stroke-linejoin="round"/><polyline fill="none" points="63.69768384346074,-39.74542151832976 66.19768384347958,-40.41529449937622 68.02781086243377,-42.24542151828069 68.69768384354815,-44.74542151828134 68.0278108625017,-47.24542151830019 66.19768384359723,-49.075548537254384 63.697683843596586,-49.745421518368765 61.197683843577735,-49.075548537322305 59.36755682462354,-47.245421518417835 58.69768384350916,-44.74542151841719 59.36755682455562,-42.24542151839834 61.19768384346009,-40.415294499444144 63.69768384346074,-39.74542151832976" stroke="#ffa500" stroke-linecap="round" stroke-linejoin="round"/><polyline fill="none" points="-325.0524485560412,-78.27539418686017 -322.55244855602234,-78.94526716790662 -320.7223215370681,-80.77539418681108 -320.05244855595373,-83.27539418681174 -320.7223215370002,-85.77539418683058 -322.5524485559047,-87.60552120578478 -325.0524485559053,-88.27539418689916 -327.5524485559242,-87.60552120585271 -329.3825755748784,-85.77539418694825 -330.0524485559928,-83.2753941869476 -329.3825755749463,-80.77539418692874 -327.55244855604184,-78.94526716797454 -325.0524485560412,-78.27539418686015" stroke="#008000" stroke-linecap="round" stroke-linejoin="round"/><polyline fill="none" points="-161.50767329484452,73.23581881045833 -159.00767329482568,72.56594582941187 -157.1775462758715,70.73581881050741 -156.5076732947571,68.23581881050676 -157.17754627580356,65.7358188104879 -159.00767329470804,63.905691791533705 -161.5076732947087,63.23581881041932 -164.00767329472754,63.90569179146577 -165.83780031368173,65.73581881037023 -166.50767329479612,68.23581881037089 -165.83780031374968,70.73581881038974 -164.0076732948452,72.56594582934395 -161.50767329484455,73.23581881045833" stroke="#00f" stroke-linecap="round" stroke-linejoin="round"/><polyline fill="none" points="-123.99578432900941,-25.151308744785556 -121.49578432899055,-25.82118172583201 -119.66565731003635,-27.651308744736475 -118.99578432892197,-30.151308744737126 -119.66565730996842,-32.65130874475598 -121.49578432887289,-34.48143576371018 -123.99578432887354,-35.15130874482457 -126.4957843288924,-34.481435763778116 -128.32591134784658,-32.65130874487365 -128.99578432896098,-30.151308744873003 -128.32591134791454,-27.65130874485415 -126.49578432901008,-25.821181725899947 -123.99578432900942,-25.15130874478556" stroke="#ffa500" stroke-linecap="round" stroke-linejoin="round"/><polyline fill="none" points="109.5740527222093,144.96786364150046 112.07405272222816,144.29799066045402 113.90417974118236,142.46786364154954 114.57405272229676,139.9678636415489 113.9041797412503,137.46786364153004 112.07405272234584,135.63773662257586 109.57405272234519,134.96786364146146 107.07405272232633,135.6377366225079 105.24392570337213,137.46786364141238 104.57405272225773,139.96786364141303 105.24392570330419,142.46786364143188 107.07405272220865,144.2979906603861 109.5740527222093,144.9678636415005" stroke="#00f" stroke-linecap="round" stroke-linejoin="round"/><polyline fill="none" points="-398.4034020115817,-46.17052125294334 -395.90340201156283,-46.840394233989784 -394.0732749926086,-48.67052125289425 -393.4034020114942,-51.17052125289489 -394.0732749925407,-53.67052125291375 -395.90340201144517,-55.50064827186795 -398.4034020114458,-56.17052125298235 -400.90340201146466,-55.5006482719359 -402.7335290304189,-53.67052125303144 -403.4034020115333,-51.17052125303079 -402.7335290304868,-48.670521253011934 -400.90340201158233,-46.84039423405773 -398.4034020115817,-46.17052125294334" stroke="#ffa500" stroke-linecap="round" stroke-linejoin="round"/><polyline fill="none" points="-196.53796308871037,107.86445881043461 -194.03796308869153,107.19458582938817 -192.2078360697373,105.36445881048371 -191.53796308862292,102.86445881048306 -192.20783606966936,100.3644588104642 -194.0379630885738,98.53433179151 -196.53796308857446,97.8644588103956 -199.0379630885933,98.53433179144204 -200.86809010754752,100.3644588103465 -201.5379630886619,102.86445881034716 -200.86809010761547,105.36445881036602 -199.03796308871102,107.19458582932022 -196.53796308871037,107.86445881043461" stroke="#ffa500" stroke-linecap="round" stroke-linejoin="round"/><polyline fill="none" points="-297.07006547428966,85.98214440283576 -294.5700654742708,85.31227142178932 -292.7399384553166,83.48214440288486 -292.0700654742022,80.9821444028842 -292.73993845524865,78.48214440286534 -294.5700654741531,76.65201738391113 -297.07006547415375,75.98214440279673 -299.5700654741726,76.65201738384317 -301.40019249312684,78.48214440274764 -302.07006547424123,80.98214440274829 -301.40019249319477,83.48214440276715 -299.5700654742903,85.31227142172136 -297.07006547428966,85.98214440283576" stroke="#ffa500" stroke-linecap="round" stroke-linejoin="round"/><polyline fill="none" points="-182.25699198075606,-102.68252897787937 -179.75699198073718,-103.35240195892581 -177.92686496178297,-105.18252897783027 -177.25699198066857,-107.68252897783093 -177.926864961715,-110.18252897784978 -179.75699198061946,-112.012655996804 -182.2569919806201,-112.6825289779184 -184.756991980639,-112.01265599687196 -186.5871189995932,-110.1825289779675 -187.2569919807076,-107.68252897796684 -186.58711899966116,-105.18252897794798 -184.7569919807567,-103.35240195899377 -182.25699198075606,-102.68252897787936" stroke="#008000" stroke-linecap="round" stroke-linejoin="round"/><polyline fill="none" points="-292.06236229918386,-18.435702409395013 -289.562362299165,-19.10557539044145 -287.7322352802108,-20.935702409345907 -287.0623622990964,-23.435702409346558 -287.7322352801428,-25.93570240936542 -289.56236229904727,-27.76582942831963 -292.0623622990479,-28.435702409434036 -294.56236229906676,-27.7658294283876 -296.392489318021,-25.935702409483145 -297.0623622991354,-23.435702409482495 -296.39248931808896,-20.935702409463634 -294.5623622991845,-19.105575390509422 -292.06236229918386,-18.435702409395017" stroke="#ffa500" stroke-linecap="round" stroke-linejoin="round"/><polyline fill="none" points="-245.31227993294053,-129.62819811403455 -242.81227993292165,-130.29807109508099 -240.98215291396744,-132.12819811398543 -240.31227993285304,-134.6281981139861 -240.98215291389948,-137.12819811400496 -242.81227993280393,-138.95832513295917 -245.31227993280459,-139.62819811407357 -247.81227993282346,-138.95832513302713 -249.64240695177767,-137.12819811412268 -250.31227993289207,-134.62819811412203 -249.64240695184563,-132.12819811410316 -247.81227993294118,-130.29807109514894 -245.31227993294053,-129.62819811403455" stroke="#00f" stroke-linecap="round" stroke-linejoin="round"/><polyline fill="none" points="108.14192435494512,-148.88232938076354 110.64192435496398,-149.55220236180998 112.47205137391819,-151.38232938071442 113.1419243550326,-153.88232938071508 112.47205137398616,-156.38232938073395 110.64192435508171,-158.21245639968816 108.14192435508106,-158.8823293808026 105.6419243550622,-158.21245639975615 103.81179733610799,-156.3823293808517 103.14192435499358,-153.88232938085105 103.81179733604002,-151.38232938083218 105.64192435494446,-149.55220236187796 108.14192435494512,-148.88232938076354" stroke="#00f" stroke-linecap="round" stroke-linejoin="round"/><polyline fill="none" points="-326.602893220663,-33.30302735109037 -324.10289322064415,-33.9729003321368 -322.27276620168993,-35.80302735104126 -321.60289322057554,-38.303027351041905 -322.27276620162195,-40.80302735106077 -324.1028932205264,-42.63315437001499 -326.60289322052705,-43.30302735112941 -329.1028932205459,-42.63315437008298 -330.93302023950014,-40.80302735117852 -331.60289322061453,-38.303027351177874 -330.9330202395681,-35.80302735115901 -329.10289322066365,-33.97290033220479 -326.602893220663,-33.30302735109037" stroke="#00f" stroke-linecap="round" stroke-linejoin="round"/><polyline fill="none" points="55.886656438794226,107.91558457128689 58.38665643881309,107.24571159024046 60.21678345776731,105.41558457133601 60.88665643888173,102.91558457133536 60.216783457835305,100.41558457131649 58.386656438930856,98.58545755236227 55.88665643893021,97.91558457124786 53.386656438911345,98.58545755229429 51.55652941995712,100.41558457119874 50.88665643884271,102.91558457119939 51.55652941988913,105.41558457121826 53.38665643879358,107.24571159017249 55.886656438794226,107.91558457128691" stroke="#ffa500" stroke-linecap="round" stroke-linejoin="round"/><polyline fill="none" points="-268.723761877064,17.69813874378508 -266.22376187704515,17.028265762738656 -264.39363485809093,15.198138743834205 -263.72376187697654,12.698138743833555 -264.39363485802295,10.198138743814686 -266.2237618769274,8.368011724860462 -268.72376187692805,7.6981387437460445 -271.2237618769469,8.368011724792469 -273.05388889590114,10.19813874369692 -273.72376187701553,12.69813874369757 -273.0538888959691,15.198138743716438 -271.22376187706465,17.028265762670664 -268.723761877064,17.698138743785083" stroke="#008000" stroke-linecap="round" stroke-linejoin="round"/><polyline fill="none" points="42.37638697636464,42.22394724440342 44.876386976383515,41.554074263356995 46.706513995337744,39.723947244452546 47.37638697645217,37.2239472444519 46.70651399540574,34.72394724443303 44.876386976501294,32.8938202254788 42.37638697650065,32.223947244364375 39.876386976481776,32.8938202254108 38.046259957527546,34.72394724431525 37.37638697641312,37.223947244315895 38.04625995745955,39.72394724433477 39.876386976363996,41.554074263288996 42.37638697636464,42.22394724440342" stroke="#ffa500" stroke-linecap="round" stroke-linejoin="round"/><polyline fill="none" points="43.02272830579485,-226.92667978772542 45.52272830581372,-227.59655276877183 47.35285532476795,-229.42667978767628 48.022728305882374,-231.92667978767693 47.35285532483595,-234.4266797876958 45.5227283059315,-236.25680680665002 43.022728305930855,-236.92667978776444 40.52272830591198,-236.25680680671803 38.69260128695775,-234.42667978781358 38.02272830584333,-231.92667978781293 38.69260128688975,-229.42667978779406 40.522728305794196,-227.5965527688398 43.02272830579484,-226.9266797877254" stroke="#ffa500" stroke-linecap="round" stroke-linejoin="round"/><polyline fill="none" points="-1.0242535399896187,251.23853188095632 1.475746460029253,250.5686588999099 3.3058734789834836,248.73853188100546 3.975746460097909,246.2385318810048 3.3058734790514905,243.73853188098593 1.4757464601470445,241.9084048620317 -1.0242535398536052,241.23853188091726 -3.5242535398724772,241.90840486196367 -5.354380558826708,243.73853188086812 -6.024253539941135,246.23853188086878 -5.354380558894717,248.73853188088765 -3.524253539990271,250.5686588998419 -1.0242535399896213,251.23853188095632" stroke="#ffa500" stroke-linecap="round" stroke-linejoin="round"/><polyline fill="none" points="225.41236729781016,-144.9073945966308 227.91236729782904,-145.57726757767722 229.74249431678328,-147.40739459658167 230.4123672978977,-149.90739459658232 229.7424943168513,-152.4073945966012 227.91236729794684,-154.23752161555544 225.4123672979462,-154.90739459666986 222.91236729792732,-154.23752161562345 221.08224027897307,-152.407394596719 220.41236729785865,-149.90739459671835 221.08224027890506,-147.40739459669948 222.9123672978095,-145.57726757774523 225.41236729781016,-144.9073945966308" stroke="#ffa500" stroke-linecap="round" stroke-linejoin="round"/><polyline fill="none" points="32.060619864466105,-134.89311333003636 34.56061986448498,-135.56298631108277 36.39074688343921,-137.39311332998722 37.060619864553644,-139.89311332998787 36.39074688350723,-142.39311333000674 34.560619864602785,-144.22324034896099 32.06061986460214,-144.8931133300754 29.560619864583263,-144.223240349029 27.730492845629026,-142.39311333012455 27.060619864514596,-139.8931133301239 27.73049284556101,-137.39311333010502 29.56061986446545,-135.56298631115078 32.0606198644661,-134.89311333003636" stroke="#ffa500" stroke-linecap="round" stroke-linejoin="round"/><polyline fill="none" points="23.059069133737964,-75.49918680063377 25.55906913375684,-76.16905978168018 27.389196152711076,-77.99918680058462 28.05906913382551,-80.49918680058528 27.3891961527791,-82.99918680060415 25.559069133874658,-84.8293138195584 23.059069133874008,-85.49918680067283 20.559069133855132,-84.82931381962642 18.728942114900896,-82.99918680072197 18.059069133786462,-80.49918680072132 18.728942114832872,-77.99918680070245 20.559069133737314,-76.1690597817482 23.059069133737964,-75.49918680063377" stroke="#00f" stroke-linecap="round" stroke-linejoin="round"/><polyline fill="none" points="175.502569877704,-127.74188123731815 178.00256987772286,-128.41175421836456 179.8326968966771,-130.241881237269 180.50256987779153,-132.74188123726967 179.83269689674512,-135.24188123728854 178.00256987784067,-137.07200825624278 175.50256987784002,-137.7418812373572 173.00256987782114,-137.0720082563108 171.1724428588669,-135.24188123740635 170.50256987775248,-132.7418812374057 171.1724428587989,-130.24188123738682 173.00256987770334,-128.41175421843258 175.502569877704,-127.74188123731814" stroke="#00f" stroke-linecap="round" stroke-linejoin="round"/><polyline fill="none" points="-374.64739829653826,-35.691292066950275 -372.1473982965194,-36.361165047996685 -370.31727127756517,-38.19129206690113 -369.6473982964507,-40.691292066901774 -370.3172712774971,-43.19129206692065 -372.14739829640155,-45.021419085874896 -374.6473982964022,-45.691292066989334 -377.14739829642104,-45.021419085942924 -378.97752531537526,-43.19129206703848 -379.6473982964897,-40.691292067037836 -378.9775253154433,-38.191292067018956 -377.1473982965389,-36.36116504806471 -374.64739829653826,-35.691292066950275" stroke="#00f" stroke-linecap="round" stroke-linejoin="round"/><polyline fill="none" points="114.83211288469278,-91.34739296039074 117.33211288471166,-92.01726594143715 119.1622399036659,-93.84739296034158 119.83211288478034,-96.34739296034223 119.16223990373393,-98.84739296036112 117.3321128848295,-100.67751997931536 114.83211288482885,-101.3473929604298 112.33211288480996,-100.67751997938339 110.50198586585572,-98.84739296047896 109.83211288474128,-96.3473929604783 110.50198586578769,-93.84739296045942 112.33211288469212,-92.01726594150517 114.83211288469278,-91.34739296039074" stroke="#00f" stroke-linecap="round" stroke-linejoin="round"/><polyline fill="none" points="-293.8677338025979,-135.94726019856364 -291.36773380257904,-136.61713317961005 -289.53760678362477,-138.4472601985145 -288.8677338025103,-140.94726019851515 -289.5376067835567,-143.44726019853402 -291.36773380246115,-145.27738721748827 -293.86773380246177,-145.94726019860272 -296.36773380248064,-145.2773872175563 -298.1978608214349,-143.44726019865186 -298.86773380254937,-140.9472601986512 -298.19786082150296,-138.44726019863234 -296.36773380259854,-136.6171331796781 -293.8677338025979,-135.94726019856364" stroke="#ffa500" stroke-linecap="round" stroke-linejoin="round"/><polyline fill="none" points="-282.598581335072,143.1162015126557 -280.09858133505315,142.44632853160928 -278.2684543160989,140.61620151270483 -277.59858133498443,138.11620151270418 -278.26845431603084,135.6162015126853 -280.09858133493526,133.78607449373106 -282.5985813349359,133.1162015126166 -285.09858133495476,133.78607449366302 -286.92870835390903,135.61620151256747 -287.5985813350235,138.11620151256813 -286.9287083539771,140.616201512587 -285.09858133507265,142.44632853154124 -282.598581335072,143.1162015126557" stroke="#ffa500" stroke-linecap="round" stroke-linejoin="round"/><polyline fill="none" points="-184.66801106825895,33.53784171825649 -182.16801106824008,32.86796873721009 -180.33788404928583,31.037841718305657 -179.66801106817138,28.537841718305007 -180.3378840492178,26.037841718286124 -182.1680110681222,24.207714699331873 -184.66801106812287,23.537841718217425 -187.16801106814174,24.207714699263825 -188.99813808709598,26.03784171816826 -189.66801106821043,28.53784171816891 -188.99813808716402,31.037841718187792 -187.1680110682596,32.86796873714204 -184.66801106825895,33.537841718256495" stroke="#00f" stroke-linecap="round" stroke-linejoin="round"/><polyline fill="none" points="-298.69007408151987,-21.541718063543385 -296.190074081501,-22.21159104458978 -294.3599470625467,-24.041718063494216 -293.6900740814323,-26.541718063494866 -294.3599470624787,-29.04171806351375 -296.1900740813831,-30.871845082468003 -298.6900740813837,-31.541718063582454 -301.1900740814026,-30.87184508253606 -303.02020110035687,-29.041718063631624 -303.6900740814713,-26.541718063630974 -303.0202011004249,-24.041718063612088 -301.1900740815205,-22.211591044657833 -298.69007408151987,-21.54171806354338" stroke="#008000" stroke-linecap="round" stroke-linejoin="round"/><polyline fill="none" points="167.28079531633003,-80.87662180238512 169.7807953163489,-81.54649478343151 171.61092233530314,-83.37662180233595 172.2807953164176,-85.8766218023366 171.6109223353712,-88.37662180235549 169.7807953164668,-90.20674882130974 167.28079531646614,-90.8766218024242 164.78079531644727,-90.2067488213778 162.95066829749302,-88.37662180247337 162.28079531637857,-85.87662180247271 162.95066829742495,-83.37662180245383 164.78079531632937,-81.54649478349957 167.28079531633003,-80.87662180238512" stroke="#ffa500" stroke-linecap="round" stroke-linejoin="round"/><polyline fill="none" points="74.89887757630125,-187.2676862967536 77.39887757632013,-187.93755927779998 79.22900459527439,-189.7676862967044 79.89887757638884,-192.26768629670505 79.22900459534245,-194.76768629672395 77.39887757643801,-196.59781331567822 74.89887757643736,-197.26768629679268 72.39887757641847,-196.5978133157463 70.56875055746421,-194.76768629684187 69.89887757634976,-192.26768629684122 70.56875055739616,-189.76768629682232 72.39887757630059,-187.93755927786805 74.89887757630125,-187.2676862967536" stroke="#ffa500" stroke-linecap="round" stroke-linejoin="round"/><polyline fill="none" points="-279.4845709210925,-106.51421363515539 -276.9845709210736,-107.18408661620178 -275.15444390211934,-109.01421363510622 -274.4845709210049,-111.51421363510687 -275.1544439020513,-114.01421363512576 -276.9845709209557,-115.84434065408001 -279.48457092095634,-116.51421363519448 -281.9845709209752,-115.8443406541481 -283.8146979399295,-114.01421363524366 -284.48457092104394,-111.51421363524301 -283.81469793999753,-109.01421363522412 -281.9845709210931,-107.18408661626987 -279.4845709210925,-106.5142136351554" stroke="#00f" stroke-linecap="round" stroke-linejoin="round"/><polyline fill="none" points="84.33445356521642,-140.89873709868917 86.83445356523531,-141.56861007973555 88.66458058418957,-143.39873709863997 89.33445356530403,-145.89873709864062 88.66458058425765,-148.39873709865952 86.83445356535321,-150.2288641176138 84.33445356535256,-150.89873709872825 81.83445356533367,-150.22886411768187 80.00432654637942,-148.39873709877745 79.33445356526495,-145.8987370987768 80.00432654631133,-143.3987370987579 81.83445356521575,-141.56861007980362 84.3344535652164,-140.89873709868917" stroke="#00f" stroke-linecap="round" stroke-linejoin="round"/><polyline fill="none" points="63.39013941259863,-91.39359182484735 65.89013941261751,-92.06346480589373 67.72026643157177,-93.89359182479815 68.39013941268624,-96.3935918247988 67.72026643163986,-98.89359182481769 65.89013941273544,-100.72371884377195 63.39013941273479,-101.39359182488641 60.8901394127159,-100.72371884384003 59.06001239376163,-98.89359182493561 58.390139412647166,-96.39359182493496 59.06001239369355,-93.89359182491607 60.890139412597975,-92.0634648059618 63.39013941259862,-91.39359182484733" stroke="#ffa500" stroke-linecap="round" stroke-linejoin="round"/><polyline fill="none" points="-244.79955405179385,109.79876026480895 -242.29955405177495,109.12888728376257 -240.46942703282068,107.29876026485815 -239.7995540517062,104.79876026485749 -240.46942703275258,102.2987602648386 -242.299554051657,100.46863324588433 -244.79955405165765,99.79876026476987 -247.29955405167655,100.46863324581625 -249.12968107063082,102.29876026472067 -249.7995540517453,104.79876026472132 -249.12968107069892,107.29876026474022 -247.2995540517945,109.1288872836945 -244.79955405179385,109.79876026480896" stroke="#ffa500" stroke-linecap="round" stroke-linejoin="round"/><polyline fill="none" points="-291.8049773610218,-62.424777939509596 -289.30497736100295,-63.09465092055598 -287.4748503420487,-64.9247779394604 -286.80497736093423,-67.42477793946105 -287.4748503419806,-69.92477793947995 -289.304977360885,-71.75490495843422 -291.80497736088563,-72.42477793954869 -294.3049773609045,-71.75490495850231 -296.1351043798588,-69.92477793959789 -296.8049773609732,-67.42477793959723 -296.1351043799269,-64.92477793957833 -294.30497736102245,-63.09465092062406 -291.8049773610218,-62.42477793950959" stroke="#008000" stroke-linecap="round" stroke-linejoin="round"/><polyline fill="none" points="-178.34652194538145,-20.201680189053583 -175.84652194536255,-20.87155317009996 -174.01639492640828,-22.701680189004385 -173.3465219452938,-25.201680189005035 -174.01639492634018,-27.701680189023932 -175.8465219452446,-29.531807207978204 -178.34652194524526,-30.201680189092677 -180.84652194526416,-29.5318072080463 -182.67664896421843,-27.701680189141875 -183.3465219453329,-25.201680189141225 -182.67664896428653,-22.701680189122328 -180.8465219453821,-20.871553170168056 -178.34652194538145,-20.201680189053583" stroke="#ffa500" stroke-linecap="round" stroke-linejoin="round"/><polyline fill="none" points="-190.54953162700775,-68.45067274679946 -188.04953162698885,-69.12054572784584 -186.21940460803458,-70.95067274675026 -185.5495316269201,-73.45067274675091 -186.21940460796648,-75.95067274676981 -188.0495316268709,-77.78079976572408 -190.54953162687156,-78.45067274683856 -193.04953162689046,-77.78079976579218 -194.87965864584473,-75.95067274688776 -195.5495316269592,-73.45067274688711 -194.87965864591283,-70.95067274686821 -193.0495316270084,-69.12054572791394 -190.54953162700775,-68.45067274679946" stroke="#ffa500" stroke-linecap="round" stroke-linejoin="round"/><polyline fill="none" points="-243.76531457903604,-89.61767426152895 -241.26531457901714,-90.28754724257531 -239.43518756006287,-92.11767426147973 -238.7653145789484,-94.61767426148039 -239.43518755999477,-97.11767426149929 -241.2653145788992,-98.94780128045356 -243.76531457889985,-99.61767426156804 -246.26531457891875,-98.94780128052167 -248.09544159787302,-97.11767426161725 -248.7653145789875,-94.6176742616166 -248.09544159794112,-92.1176742615977 -246.2653145790367,-90.28754724264343 -243.76531457903604,-89.61767426152895" stroke="#00f" stroke-linecap="round" stroke-linejoin="round"/><polyline fill="none" points="41.46079321525331,218.69528849795608 43.96079321527221,218.0254155169097 45.79092023422649,216.19528849800528 46.46079321534097,213.69528849800463 45.7909202342946,211.19528849798573 43.96079321539018,209.36516147903146 41.460793215389536,208.69528849791698 38.960793215370636,209.36516147896336 37.13066619641636,211.19528849786778 36.46079321530188,213.69528849786843 37.130666196348244,216.19528849788733 38.960793215252664,218.0254155168416 41.46079321525331,218.69528849795608" stroke="#ffa500" stroke-linecap="round" stroke-linejoin="round"/><polyline fill="none" points="-218.63367129848407,14.377671458009727 -216.13367129846517,13.707798476963358 -214.3035442795109,11.877671458058941 -213.63367129839642,9.377671458058293 -214.3035442794428,6.8776714580393925 -216.13367129834722,5.047544439085111 -218.63367129834788,4.377671457970626 -221.13367129836678,5.047544439016994 -222.96379831732105,6.8776714579214095 -223.63367129843553,9.377671457922059 -222.96379831738918,11.877671457940961 -221.13367129848476,13.707798476895244 -218.6336712984841,14.37767145800973" stroke="#ffa500" stroke-linecap="round" stroke-linejoin="round"/></svg>