<?xml version="1.0" ?><!DOCTYPE svg  PUBLIC '-//W3C//DTD SVG 1.1//EN'  'http://www.w3.org/Graphics/SVG/1.1/DTD/svg11.dtd'><svg height="540.000" viewBox="-409.000 -250.000 654.000 540.000" width="654.000" xmlns="http://www.w3.org/2000/svg"><line fill="none" stroke="none" stroke-linecap="round" stroke-width="2.0" x1="0.0" x2="0.0" y1="0.0" y2="0.0"/><polygon fill="none" fill-rule="evenodd" points="0.0,0.0 0.0,0.0 0.0,0.0" stroke-linejoin="round"/><polyline fill="none" points="-17.506581450620494,120.37386262404063 -15.006581450601285,119.70398964299478 -13.176454431646475,117.87386262409066 -12.506581450531385,115.37386262409001 -13.176454431577232,112.8738626240708 -15.006581450481352,111.04373560511598 -17.50658145048201,110.37386262400089 -20.00658145050122,111.04373560504673 -21.83670846945603,112.87386262395086 -22.506581450571122,115.37386262395151 -21.836708469525277,117.87386262397072 -20.00658145062116,119.70398964292554 -17.5065814506205,120.37386262404063" stroke="#ffa500" stroke-linecap="round" stroke-linejoin="round"/><polyline fill="none" points="-19.25968882653912,64.8381480727039 -16.75968882651991,64.16827509165806 -14.929561807565097,62.338148072753945 -14.259688826450004,59.83814807275329 -14.929561807495848,57.33814807273408 -16.759688826399966,55.50802105377927 -19.259688826400623,54.838148072664175 -21.759688826419836,55.50802105371002 -23.58981584537465,57.33814807261413 -24.259688826489743,59.838148072614786 -23.5898158454439,62.338148072634 -21.759688826539783,64.16827509158881 -19.259688826539126,64.8381480727039" stroke="#ffa500" stroke-linecap="round" stroke-linejoin="round"/><polyline fill="none" points="109.86766811057048,-84.80279096463285 112.36766811058969,-85.47266394567869 114.1977951295445,-87.30279096458281 114.8676681106596,-89.80279096458347 114.19779512961375,-92.30279096460268 112.36766811070963,-94.13291798355749 109.86766811070898,-94.80279096467258 107.36766811068976,-94.13291798362674 105.53754109173495,-92.30279096472262 104.86766811061986,-89.80279096472196 105.5375410916657,-87.30279096470275 107.36766811056982,-85.47266394574794 109.86766811057048,-84.80279096463285" stroke="#ffa500" stroke-linecap="round" stroke-linejoin="round"/><polyline fill="none" points="-168.5787275589635,-140.29958181128583 -166.07872755894428,-140.96945479233167 -164.24860053998947,-142.79958181123578 -163.57872755887436,-145.29958181123644 -164.2486005399202,-147.79958181125565 -166.0787275588243,-149.62970883021046 -168.57872755882497,-150.29958181132557 -171.07872755884418,-149.62970883027972 -172.908854577799,-147.79958181137562 -173.5787275589141,-145.29958181137496 -172.90885457786825,-142.79958181135575 -171.07872755896415,-140.96945479240094 -168.5787275589635,-140.29958181128583" stroke="#ffa500" stroke-linecap="round" stroke-linejoin="round"/><polyline fill="none" points="-222.67139438967442,-48.046751916032186 -220.1713943896552,-48.71662489707802 -218.3412673707004,-50.546751915982135 -217.6713943895853,-53.04675191598279 -218.34126737063113,-55.546751916002 -220.17139438953524,-57.37687893495682 -222.6713943895359,-58.04675191607192 -225.1713943895551,-57.376878935026085 -227.00152140850992,-55.54675191612197 -227.67139438962502,-53.046751916121316 -227.00152140857918,-50.5467519161021 -225.17139438967507,-48.716624897147284 -222.67139438967442,-48.04675191603218" stroke="#00f" stroke-linecap="round" stroke-linejoin="round"/><polyline fill="none" points="-353.68410872471367,-30.680138794569736 -351.18410872469445,-31.35001177561557 -349.3539817057396,-33.18013879451968 -348.68410872462454,-35.68013879452033 -349.3539817056704,-38.180138794539545 -351.1841087245745,-40.010265813494364 -353.68410872457514,-40.68013879460947 -356.18410872459435,-40.010265813563635 -358.0142357435492,-38.18013879465953 -358.68410872466427,-35.68013879465887 -358.0142357436184,-33.18013879463966 -356.1841087247143,-31.350011775684838 -353.6841087247136,-30.680138794569732" stroke="#00f" stroke-linecap="round" stroke-linejoin="round"/><polyline fill="none" points="140.90121141667566,-58.60052482326989 143.40121141669488,-59.27039780431573 145.2313384356497,-61.100524823219835 145.9012114167648,-63.60052482322049 145.23133843571895,-66.10052482323971 143.40121141681485,-67.93065184219454 140.9012114168142,-68.60052482330964 138.40121141679498,-67.93065184226381 136.57108439784017,-66.1005248233597 135.90121141672506,-63.60052482335905 136.5710843977709,-61.10052482333984 138.401211416675,-59.27039780438501 140.90121141667566,-58.60052482326991" stroke="#ffa500" stroke-linecap="round" stroke-linejoin="round"/><polyline fill="none" points="113.94339523338012,-216.09839889425646 116.44339523339933,-216.7682718753023 118.27352225235416,-218.5983988942064 118.94339523346926,-221.09839889420707 118.27352225242343,-223.59839889422628 116.44339523351933,-225.4285259131811 113.94339523351867,-226.0983988942962 111.44339523349946,-225.42852591325035 109.61326821454463,-223.59839889434625 108.94339523342953,-221.0983988943456 109.61326821447535,-218.59839889432638 111.44339523337946,-216.76827187537154 113.94339523338012,-216.09839889425643" stroke="#ffa500" stroke-linecap="round" stroke-linejoin="round"/><polyline fill="none" points="-370.83224475388056,-58.693095218559165 -368.33224475386135,-59.36296819960499 -366.5021177349065,-61.1930952185091 -365.8322447537914,-63.693095218509754 -366.5021177348372,-66.19309521852897 -368.3322447537413,-68.0232222374838 -370.832244753742,-68.69309521859891 -373.3322447537612,-68.02322223755309 -375.162371772716,-66.19309521864898 -375.83224475383116,-63.693095218648324 -375.1623717727853,-61.193095218629104 -373.33224475388124,-59.36296819967428 -370.83224475388056,-58.693095218559165" stroke="#00f" stroke-linecap="round" stroke-linejoin="round"/><polyline fill="none" points="-242.9703568410169,65.96362508042309 -240.47035684099768,65.29375209937726 -238.64022982204284,63.46362508047315 -237.97035684092774,60.9636250804725 -238.64022982197355,58.463625080453276 -240.47035684087766,56.63349806149844 -242.9703568408783,55.96362508038332 -245.47035684089752,56.633498061429144 -247.30048385985236,58.46362508033325 -247.97035684096747,60.963625080333905 -247.30048385992166,63.463625080353125 -245.47035684101755,65.29375209930795 -242.9703568410169,65.96362508042307" stroke="#00f" stroke-linecap="round" stroke-linejoin="round"/><polyline fill="none" points="88.68406338117842,180.51465598988725 91.18406338119765,179.84478300884143 93.01419040015247,178.01465598993732 93.68406338126759,175.51465598993667 93.01419040022176,173.01465598991746 91.18406338131766,171.18452897096262 88.684063381317,170.5146559898475 86.18406338129778,171.18452897089333 84.35393636234295,173.01465598979743 83.68406338122783,175.5146559897981 84.35393636227364,178.0146559898173 86.18406338117775,179.84478300877214 88.6840633811784,180.51465598988727" stroke="#ffa500" stroke-linecap="round" stroke-linejoin="round"/><polyline fill="none" points="108.2855150198255,82.97409490310575 110.78551501984472,82.30422192205994 112.61564203879956,80.47409490315583 113.28551501991468,77.97409490315518 112.61564203886887,75.47409490313595 110.78551501996476,73.64396788418111 108.28551501996411,72.97409490306599 105.78551501994488,73.6439678841118 103.95538800099004,75.47409490301591 103.28551501987492,77.97409490301656 103.95538800092073,80.47409490303579 105.78551501982484,82.30422192199063 108.2855150198255,82.97409490310575" stroke="#ffa500" stroke-linecap="round" stroke-linejoin="round"/><polyline fill="none" points="135.2240470811594,-185.530804240931 137.7240470811786,-186.2006772219768 139.55417410013345,-188.0308042408809 140.22404708124859,-190.53080424088157 139.55417410020277,-193.03080424090078 137.72404708129866,-194.86093125985562 135.224047081298,-195.53080424097075 132.7240470812788,-194.86093125992494 130.89392006232396,-193.03080424102083 130.22404708120882,-190.53080424102018 130.89392006225464,-188.03080424100096 132.72404708115874,-186.20067722204612 135.2240470811594,-185.530804240931" stroke="#ffa500" stroke-linecap="round" stroke-linejoin="round"/><polyline fill="none" points="-141.45720407815125,-110.9403345669117 -138.95720407813204,-111.61020754795751 -137.1270770591772,-113.44033456686161 -136.45720407806206,-115.94033456686226 -137.12707705910788,-118.44033456688149 -138.95720407801198,-120.27046158583633 -141.45720407801264,-120.94033456695146 -143.95720407803185,-120.27046158590565 -145.7873310969867,-118.44033456700156 -146.45720407810182,-115.9403345670009 -145.787331097056,-113.44033456698168 -143.9572040781519,-111.61020754802684 -141.45720407815125,-110.9403345669117" stroke="#00f" stroke-linecap="round" stroke-linejoin="round"/><polyline fill="none" points="16.828033325061735,277.6863310176569 19.328033325080963,277.01645803661114 21.158160344035807,275.18633101770706 21.828033325150937,272.6863310177064 21.158160344105127,270.18633101768717 19.32803332520103,268.3562039987323 16.828033325200376,267.6863310176172 14.32803332518115,268.356203998663 12.497906306226305,270.18633101756706 11.828033325111175,272.6863310175677 12.497906306156985,275.1863310175869 14.328033325061082,277.01645803654174 16.828033325061735,277.68633101765687" stroke="#ffa500" stroke-linecap="round" stroke-linejoin="round"/><polyline fill="none" points="5.213960387910811,-144.06608504363845 7.71396038793004,-144.73595802468427 9.544087406884886,-146.56608504358837 10.213960388000018,-149.06608504358903 9.54408740695421,-151.56608504360827 7.713960388050113,-153.3962120625631 5.213960388049459,-154.06608504367824 2.71396038803023,-153.39621206263243 0.8838333690753835,-151.56608504372832 0.2139603879602494,-149.06608504372767 0.8838333690060568,-146.56608504370843 2.7139603879101526,-144.7359580247536 5.213960387910806,-144.06608504363845" stroke="#ffa500" stroke-linecap="round" stroke-linejoin="round"/><polyline fill="none" points="-268.0917652387413,-64.89091704259653 -265.5917652387221,-65.56079002364234 -263.76163821976724,-67.39091704254643 -263.0917652386521,-69.89091704254709 -263.7616382196979,-72.39091704256631 -265.59176523860197,-74.22104406152117 -268.09176523860265,-74.8909170426363 -270.59176523862186,-74.2210440615905 -272.4218922575767,-72.39091704268641 -273.09176523869183,-69.89091704268576 -272.42189225764605,-67.39091704266653 -270.59176523874197,-65.56079002371168 -268.09176523874135,-64.89091704259654" stroke="#008000" stroke-linecap="round" stroke-linejoin="round"/><polyline fill="none" points="32.88027117531434,-16.434179864238743 35.380271175333576,-17.104052845284546 37.21039819428842,-18.93417986418864 37.880271175403564,-21.434179864189293 37.21039819435776,-23.934179864208524 35.380271175453665,-25.764306883163375 32.88027117545301,-26.434179864278512 30.38027117543378,-25.76430688323271 28.55014415647893,-23.934179864328616 27.880271175363788,-21.434179864327962 28.55014415640959,-18.93417986430873 30.380271175313684,-17.10405284535388 32.880271175314334,-16.43417986423874" stroke="#ffa500" stroke-linecap="round" stroke-linejoin="round"/><polyline fill="none" points="-318.8426763677305,-103.75485136564565 -316.3426763677113,-104.42472434669145 -314.51254934875647,-106.25485136559554 -313.84267636764133,-108.7548513655962 -314.5125493486871,-111.25485136561542 -316.3426763675912,-113.08497838457028 -318.8426763675918,-113.75485136568543 -321.34267636761103,-113.08497838463963 -323.1728033865659,-111.25485136573553 -323.842676367681,-108.75485136573488 -323.1728033866352,-106.25485136571565 -321.34267636773114,-104.4247243467608 -318.8426763677305,-103.75485136564565" stroke="#00f" stroke-linecap="round" stroke-linejoin="round"/><polyline fill="none" points="66.25185385012996,-218.68948840916804 68.75185385014919,-219.35936139021385 70.58198086910404,-221.18948840911793 71.25185385021919,-223.68948840911858 70.58198086917339,-226.18948840913782 68.7518538502693,-228.0196154280927 66.25185385026865,-228.68948840920783 63.75185385024941,-228.01961542816204 61.921726831294556,-226.18948840925796 61.25185385017941,-223.6894884092573 61.92172683122521,-221.18948840923807 63.7518538501293,-219.3593613902832 66.25185385012995,-218.68948840916806" stroke="#00f" stroke-linecap="round" stroke-linejoin="round"/><polyline fill="none" points="92.49504736262124,-38.7355572546151 94.99504736264048,-39.4054302356609 96.82517438159533,-41.23555725456499 97.49504736271048,-43.73555725456564 96.82517438166468,-46.235557254584876 94.99504736276059,-48.06568427353973 92.49504736275993,-48.73555725465488 89.99504736274069,-48.06568427360909 88.16492034378584,-46.235557254705 87.49504736267069,-43.73555725470435 88.16492034371649,-41.23555725468511 89.99504736262058,-39.40543023573025 92.49504736262124,-38.7355572546151" stroke="#ffa500" stroke-linecap="round" stroke-linejoin="round"/><polyline fill="none" points="-123.69056724024908,30.472530124192403 -121.19056724022984,29.802657143146607 -119.36044022127498,27.972530124242518 -118.69056724015984,25.472530124241864 -119.36044022120564,22.972530124222626 -121.19056724010973,21.142403105267764 -123.69056724011038,20.472530124152613 -126.19056724012962,21.142403105198404 -128.02069425908448,22.97253012410249 -128.69056724019964,25.472530124103145 -128.02069425915386,27.972530124122382 -126.19056724024976,29.802657143077244 -123.69056724024911,30.472530124192396" stroke="#ffa500" stroke-linecap="round" stroke-linejoin="round"/><polyline fill="none" points="136.6277533599962,-172.53513597312025 139.12775336001545,-173.20500895416603 140.95788037897032,-175.0351359730701 141.62775336008548,-177.53513597307077 140.9578803790397,-180.03513597309 139.1277533601356,-181.86526299204488 136.62775336013496,-182.53513597316004 134.12775336011572,-181.86526299211425 132.29762634116085,-180.03513597321017 131.6277533600457,-177.53513597320952 132.29762634109147,-175.03513597319028 134.12775335999555,-173.2050089542354 136.6277533599962,-172.53513597312025" stroke="#ffa500" stroke-linecap="round" stroke-linejoin="round"/><polyline fill="none" points="-162.551756304554,87.10217526113284 -160.05175630453476,86.43230228008706 -158.2216292855799,84.60217526118298 -157.55175630446473,82.10217526118232 -158.22162928551052,79.60217526116308 -160.0517563044146,77.77204824220821 -162.55175630441525,77.10217526109305 -165.0517563044345,77.77204824213884 -166.88188332338936,79.60217526104292 -167.55175630450452,82.10217526104357 -166.88188332345874,84.60217526106281 -165.05175630455466,86.43230228001768 -162.551756304554,87.10217526113284" stroke="#00f" stroke-linecap="round" stroke-linejoin="round"/><polyline fill="none" points="141.82078180261374,-127.04301788593861 144.32078180263298,-127.7128908669844 146.15090882158785,-129.54301788588847 146.820781802703,-132.04301788588913 146.15090882165723,-134.54301788590837 144.32078180275315,-136.37314490486324 141.8207818027525,-137.0430178859784 139.32078180273325,-136.37314490493262 137.49065478377838,-134.54301788602854 136.82078180266322,-132.04301788602788 137.490654783709,-129.54301788600864 139.32078180261308,-127.71289086705377 141.82078180261374,-127.04301788593861" stroke="#00f" stroke-linecap="round" stroke-linejoin="round"/><polyline fill="none" points="213.18722775961254,-145.4882278625321 215.68722775963178,-146.1581008435779 217.51735477858665,-147.98822786248198 218.1872277597018,-150.48822786248263 217.51735477865603,-152.98822786250187 215.68722775975195,-154.81835488145674 213.1872277597513,-155.4882278625719 210.68722775973205,-154.81835488152612 208.85710074077718,-152.98822786262204 208.18722775966202,-150.4882278626214 208.8571007407078,-147.98822786260214 210.6872277596119,-146.15810084364728 213.18722775961254,-145.4882278625321" stroke="#00f" stroke-linecap="round" stroke-linejoin="round"/><polyline fill="none" points="83.60507931959134,76.27536644548556 86.10507931961058,75.60549346443977 87.93520633856545,73.7753664455357 88.60507931968061,71.27536644553504 87.93520633863483,68.7753664455158 86.10507931973075,66.94523942656093 83.6050793197301,66.27536644544577 81.10507931971085,66.94523942649155 79.27495230075598,68.77536644539563 78.60507931964082,71.27536644539629 79.2749523006866,73.77536644541553 81.10507931959069,75.6054934643704 83.60507931959134,76.27536644548556" stroke="#ffa500" stroke-linecap="round" stroke-linejoin="round"/><polyline fill="none" points="77.94345811625354,37.85827674466595 80.44345811627278,37.18840376362017 82.27358513522765,35.35827674471609 82.94345811634281,32.85827674471544 82.27358513529703,30.358276744696195 80.44345811639295,28.52814972574132 77.94345811639229,27.858276744626153 75.44345811637305,28.52814972567193 73.61333109741818,30.35827674457601 72.94345811630302,32.85827674457666 73.6133310973488,35.35827674459591 75.44345811625288,37.18840376355079 77.94345811625354,37.85827674466596" stroke="#ffa500" stroke-linecap="round" stroke-linejoin="round"/><polyline fill="none" points="-80.81802102141828,-96.67678290053547 -78.31802102139903,-97.34665588158124 -76.48789400244415,-99.17678290048532 -75.81802102132899,-101.67678290048597 -76.48789400237476,-104.17678290050522 -78.31802102127884,-106.0069099194601 -80.81802102127949,-106.67678290057528 -83.31802102129873,-106.0069099195295 -85.14814804025362,-104.17678290062543 -85.81802102136879,-101.67678290062477 -85.14814804032302,-99.17678290060553 -83.31802102141894,-97.34665588165065 -80.81802102141829,-96.67678290053547" stroke="#ffa500" stroke-linecap="round" stroke-linejoin="round"/><polyline fill="none" points="-165.4814717607724,20.8876917874212 -162.98147176075315,20.217818806375426 -161.15134474179828,18.38769178747135 -160.48147176068312,15.887691787470697 -161.1513447417289,13.387691787451448 -162.98147176063299,11.557564768496569 -165.48147176063364,10.887691787381396 -167.98147176065288,11.55756476842717 -169.81159877960775,13.387691787331246 -170.4814717607229,15.8876917873319 -169.81159877967713,18.387691787351148 -167.98147176077305,20.217818806306028 -165.4814717607724,20.8876917874212" stroke="#ffa500" stroke-linecap="round" stroke-linejoin="round"/><polyline fill="none" points="-279.5473362124614,39.26013310788319 -277.04733621244213,38.59026012683742 -275.21720919348724,36.76013310793334 -274.54733621237204,34.26013310793269 -275.21720919341783,31.76013310791344 -277.0473362123219,29.930006088958557 -279.54733621232253,29.26013310784338 -282.0473362123418,29.93000608888915 -283.8774632312967,31.760133107793227 -284.5473362124119,34.26013310779388 -283.8774632313661,36.760133107813125 -282.047336212462,38.59026012676801 -279.54733621246135,39.260133107883185" stroke="#ffa500" stroke-linecap="round" stroke-linejoin="round"/><polyline fill="none" points="-60.962032258941086,-132.66902091069156 -58.46203225892184,-133.3388938917373 -56.631905239966954,-135.1690209106414 -55.96203225885178,-137.66902091064205 -56.63190523989755,-140.1690209106613 -58.46203225880162,-141.99914792961619 -60.962032258802274,-142.66902091073138 -63.46203225882152,-141.99914792968562 -65.2921592777764,-140.16902091078154 -65.96203225889158,-137.6690209107809 -65.29215927784581,-135.16902091076165 -63.46203225894174,-133.33889389180675 -60.962032258941086,-132.66902091069156" stroke="#00f" stroke-linecap="round" stroke-linejoin="round"/><polyline fill="none" points="-337.2670898359346,-14.06532865229514 -334.76708983591533,-14.735201633340907 -332.93696281696043,-16.56532865224498 -332.26708983584524,-19.065328652245633 -332.936962816891,-21.565328652264885 -334.7670898357951,-23.39545567121977 -337.2670898357958,-24.06532865233495 -339.76708983581506,-23.395455671289184 -341.59721685476995,-21.565328652385112 -342.26708983588514,-19.06532865238446 -341.59721685483936,-16.565328652365206 -339.7670898359353,-14.735201633410318 -337.2670898359346,-14.065328652295136" stroke="#ffa500" stroke-linecap="round" stroke-linejoin="round"/><polyline fill="none" points="-164.63928321822226,125.83829016075329 -162.13928321820302,125.16841717970752 -160.30915619924812,123.33829016080345 -159.63928321813293,120.8382901608028 -160.3091561991787,118.33829016078354 -162.13928321808277,116.50816314182866 -164.63928321808342,115.83829016071348 -167.13928321810266,116.50816314175925 -168.96941023705756,118.33829016066332 -169.63928321817275,120.83829016066397 -168.969410237127,123.33829016068323 -167.13928321822291,125.16841717963813 -164.63928321822226,125.83829016075332" stroke="#ffa500" stroke-linecap="round" stroke-linejoin="round"/><polyline fill="none" points="149.41367906647596,209.22267063768936 151.9136790664952,208.5527976566436 153.7438060854501,206.72267063773953 154.4136790665653,204.22267063773887 153.74380608551954,201.7226706377196 151.91367906661546,199.8925436187647 149.4136790666148,199.22267063764951 146.91367906659553,199.89254361869527 145.08355204764064,201.72267063759935 144.41367906652545,204.2226706376 145.0835520475712,206.72267063761927 146.91367906647528,208.55279765657417 149.41367906647594,209.22267063768936" stroke="#ffa500" stroke-linecap="round" stroke-linejoin="round"/><polyline fill="none" points="-303.53031257262427,-83.94170620996795 -301.030312572605,-84.6115791910137 -299.2001855536501,-86.44170620991777 -298.5303125725349,-88.94170620991842 -299.2001855535807,-91.44170620993768 -301.0303125724848,-93.27183322889258 -303.53031257248546,-93.94170621000777 -306.0303125725047,-93.27183322896201 -307.8604395914596,-91.44170621005794 -308.5303125725748,-88.94170621005729 -307.86043959152903,-86.44170621003803 -306.03031257262495,-84.61157919108314 -303.53031257262427,-83.94170620996795" stroke="#f00" stroke-linecap="round" stroke-linejoin="round"/><polyline fill="none" points="32.69514181455504,-119.28129392970006 35.1951418145743,-119.95116691074581 37.025268833529196,-121.78129392964988 37.69514181464439,-124.28129392965053 37.02526883359863,-126.78129392966979 35.195141814694566,-128.61142094862467 32.69514181469391,-129.28129392973986 30.195141814674653,-128.6114209486941 28.365014795719755,-126.78129392979004 27.695141814604565,-124.28129392978938 28.36501479565032,-121.78129392977013 30.19514181455439,-119.95116691081523 32.69514181455504,-119.28129392970004" stroke="#ffa500" stroke-linecap="round" stroke-linejoin="round"/><polyline fill="none" points="160.81198120984254,-153.41508789693373 163.3119812098618,-154.08496087797948 165.1421082288167,-155.91508789688356 165.8119812099319,-158.41508789688422 165.14210822888614,-160.9150878969035 163.31198120998206,-162.74521491585838 160.8119812099814,-163.41508789697357 158.31198120996214,-162.74521491592782 156.48185419100724,-160.91508789702374 155.81198120989205,-158.41508789702308 156.4818541909378,-155.91508789700381 158.3119812098419,-154.08496087804892 160.81198120984254,-153.41508789693373" stroke="#ffa500" stroke-linecap="round" stroke-linejoin="round"/><polyline fill="none" points="215.30470351190073,-99.42718410536504 217.80470351192,-100.0970570864108 219.6348305308749,-101.92718410531486 220.30470351199008,-104.42718410531552 219.63483053094433,-106.92718410533477 217.80470351204025,-108.75731112428967 215.3047035120396,-109.42718410540486 212.80470351202032,-108.7573111243591 210.97457649306543,-106.92718410545504 210.30470351195024,-104.42718410545439 210.974576492996,-101.92718410543513 212.80470351190004,-100.09705708648023 215.3047035119007,-99.42718410536504" stroke="#ffa500" stroke-linecap="round" stroke-linejoin="round"/><polyline fill="none" points="-289.60257931093446,-8.64301578180811 -287.1025793109152,-9.312888762853863 -285.2724522919603,-11.143015781757928 -284.6025793108451,-13.643015781758582 -285.27245229189083,-16.143015781777844 -287.1025793107949,-17.97314280073275 -289.6025793107956,-18.643015781847946 -292.10257931081486,-17.973142800802194 -293.93270632976976,-16.14301578189813 -294.60257931088495,-13.643015781897475 -293.9327063298392,-11.143015781878212 -292.10257931093514,-9.312888762923308 -289.60257931093446,-8.643015781808106" stroke="#00f" stroke-linecap="round" stroke-linejoin="round"/><polyline fill="none" points="107.02860640896523,-181.87841927718273 109.5286064089845,-182.54829225822849 111.3587334279394,-184.37841927713254 112.0286064090546,-186.8784192771332 111.35873342800886,-189.37841927715246 109.5286064091048,-191.20854629610736 107.02860640910414,-191.87841927722255 104.52860640908487,-191.2085462961768 102.69847939012996,-189.37841927727274 102.02860640901476,-186.8784192772721 102.6984793900605,-184.37841927725282 104.52860640896456,-182.54829225829792 107.02860640896522,-181.87841927718273" stroke="#ffa500" stroke-linecap="round" stroke-linejoin="round"/><polyline fill="none" points="-3.4004545459960887,-70.58533667081508 -0.9004545459768236,-71.25520965186082 0.9296724729780834,-73.08533667076489 1.5995454540932874,-75.58533667076554 0.9296724730475409,-78.08533667078481 -0.90045454585652,-79.91546368973972 -3.4004545458571735,-80.58533667085493 -5.900454545876439,-79.91546368980919 -7.730581564831347,-78.08533667090512 -8.400454545946552,-75.58533667090447 -7.730581564900806,-73.0853366708852 -5.900454545996746,-71.25520965193029 -3.4004545459960926,-70.58533667081508" stroke="#ffa500" stroke-linecap="round" stroke-linejoin="round"/><polyline fill="none" points="119.48547345163432,109.79236541682889 121.98547345165359,109.12249243578314 123.8156004706085,107.29236541687908 124.4854734517237,104.79236541687843 123.81560047067796,102.29236541685916 121.9854734517739,100.46223839790424 119.48547345177325,99.79236541678904 116.98547345175398,100.46223839783478 115.15534643279906,102.29236541673885 114.48547345168386,104.7923654167395 115.1553464327296,107.29236541675877 116.98547345163365,109.12249243571368 119.4854734516343,109.79236541682889" stroke="#ffa500" stroke-linecap="round" stroke-linejoin="round"/><polyline fill="none" points="100.35965191770241,228.71601940598651 102.85965191772168,228.0461464249408 104.68977893667659,226.21601940603674 105.3596519177918,223.71601940603608 104.68977893674605,221.2160194060168 102.859651917842,219.3858923870619 100.35965191784135,218.71601940594667 97.85965191782208,219.3858923869924 96.02952489886717,221.21601940589645 95.35965191775196,223.7160194058971 96.0295248987977,226.21601940591637 97.85965191770175,228.0461464248713 100.35965191770241,228.71601940598651" stroke="#ffa500" stroke-linecap="round" stroke-linejoin="round"/><polyline fill="none" points="-231.26493261699736,-131.90753907230004 -228.7649326169781,-132.57741205334577 -226.93480559802316,-134.40753907224982 -226.26493261690794,-136.90753907225047 -226.93480559795367,-139.40753907226974 -228.76493261685772,-141.23766609122467 -231.26493261685837,-141.9075390723399 -233.76493261687764,-141.23766609129416 -235.59505963583257,-139.4075390723901 -236.2649326169478,-136.90753907238945 -235.59505963590206,-134.40753907237018 -233.764932616998,-132.57741205341526 -231.26493261699736,-131.90753907230004" stroke="#00f" stroke-linecap="round" stroke-linejoin="round"/><polyline fill="none" points="-229.6482503257601,89.7421590148004 -227.14825032574083,89.07228603375465 -225.3181233067859,87.2421590148506 -224.6482503256707,84.74215901484995 -225.31812330671642,82.24215901483068 -227.14825032562047,80.41203199587576 -229.64825032562112,79.74215901476055 -232.1482503256404,80.41203199580629 -233.97837734459532,82.24215901471034 -234.64825032571053,84.74215901471099 -233.9783773446648,87.24215901473026 -232.14825032576076,89.07228603368519 -229.6482503257601,89.74215901480041" stroke="#00f" stroke-linecap="round" stroke-linejoin="round"/><polyline fill="none" points="151.24707091352806,126.65936182265035 153.74707091354733,125.98948884160463 155.57719793250226,124.15936182270057 156.24707091361748,121.65936182269992 155.57719793257175,119.15936182268065 153.7470709136677,117.32923480372573 151.24707091366705,116.6593618226105 148.74707091364778,117.32923480365623 146.91694389469285,119.15936182256029 146.24707091357763,121.65936182256094 146.91694389462336,124.15936182258021 148.7470709135274,125.98948884153513 151.24707091352806,126.65936182265035" stroke="#ffa500" stroke-linecap="round" stroke-linejoin="round"/><polyline fill="none" points="-287.97844907198123,29.144326016513634 -285.47844907196196,28.474453035467903 -283.64832205300706,26.644326016563852 -282.9784490718918,24.1443260165632 -283.64832205293754,21.644326016543925 -285.4784490718416,19.814198997589003 -287.9784490718423,19.14432601647378 -290.4784490718616,19.81419899751951 -292.3085760908165,21.644326016423562 -292.9784490719317,24.144326016424216 -292.308576090886,26.64432601644349 -290.4784490719819,28.474453035398415 -287.97844907198123,29.144326016513638" stroke="#ffa500" stroke-linecap="round" stroke-linejoin="round"/><polyline fill="none" points="-182.1456615022925,-121.797847001159 -179.64566150227324,-122.46771998220473 -177.81553448331832,-124.29784700110878 -177.1456615022031,-126.79784700110943 -177.81553448324883,-129.2978470011287 -179.64566150215288,-131.12797402008363 -182.14566150215353,-131.79784700119885 -184.6456615021728,-131.12797402015312 -186.47578852112773,-129.29784700124907 -187.14566150224294,-126.79784700124841 -186.47578852119722,-124.29784700122914 -184.64566150229317,-122.46771998227422 -182.1456615022925,-121.797847001159" stroke="#00f" stroke-linecap="round" stroke-linejoin="round"/><polyline fill="none" points="182.29869413643254,-68.69673457337024 184.79869413645181,-69.36660755441596 186.62882115540674,-71.19673457332001 187.29869413652196,-73.69673457332067 186.62882115547623,-76.19673457333994 184.79869413657218,-78.02686159229486 182.29869413657153,-78.6967345734101 179.79869413655226,-78.02686159236437 177.96856711759733,-76.19673457346032 177.2986941364821,-73.69673457345966 177.96856711752784,-71.19673457344038 179.7986941364319,-69.36660755448546 182.29869413643254,-68.69673457337022" stroke="#ffa500" stroke-linecap="round" stroke-linejoin="round"/><polyline fill="none" points="-22.099556629427276,24.69472796577801 -19.599556629408,24.024854984732286 -17.76942961045307,22.19472796582824 -17.09955662933784,19.694727965827585 -17.769429610383565,17.19472796580831 -19.599556629287612,15.364600946853379 -22.099556629288266,14.69472796573815 -24.599556629307543,15.364600946783872 -26.429683648262472,17.194727965687918 -27.0995566293777,19.69472796568857 -26.429683648331977,22.19472796570785 -24.59955662942793,24.024854984662777 -22.099556629427276,24.69472796577801" stroke="#00f" stroke-linecap="round" stroke-linejoin="round"/><polyline fill="none" points="64.37481063784276,153.04497959066094 66.87481063786204,152.37510660961522 68.70493765681697,150.54497959071116 69.3748106379322,148.0449795907105 68.70493765688647,145.54497959069124 66.87481063798242,143.71485257173632 64.37481063798177,143.04497959062107 61.87481063796249,143.7148525716668 60.04468361900756,145.54497959057085 59.374810637892324,148.0449795905715 60.044683618938045,150.54497959059077 61.87481063784209,152.3751066095457 64.37481063784274,153.04497959066094" stroke="#ffa500" stroke-linecap="round" stroke-linejoin="round"/><polyline fill="none" points="-300.1378013236328,-153.65549085061463 -297.63780132361353,-154.32536383166035 -295.8076743046586,-156.1554908505644 -295.13780132354333,-158.65549085056506 -295.80767430458906,-161.15549085058433 -297.6378013234931,-162.98561786953925 -300.1378013234937,-163.6554908506545 -302.637801323513,-162.98561786960877 -304.4679283424679,-161.15549085070472 -305.1378013235832,-158.65549085070407 -304.46792834253745,-156.1554908506848 -302.6378013236334,-154.32536383172987 -300.13780132363274,-153.65549085061463" stroke="#ffa500" stroke-linecap="round" stroke-linejoin="round"/><polyline fill="none" points="-118.06299477347736,-109.01324140195078 -115.56299477345807,-109.6831143829965 -113.73286775450313,-111.51324140190053 -113.0629947733879,-114.01324140190118 -113.73286775443361,-116.51324140192047 -115.56299477333765,-118.34336842087541 -118.0629947733383,-119.01324140199064 -120.56299477335759,-118.34336842094493 -122.39312179231253,-116.51324140204089 -123.06299477342776,-114.01324140204024 -122.39312179238205,-111.51324140202095 -120.56299477347801,-109.68311438306601 -118.06299477347736,-109.01324140195076" stroke="#ffa500" stroke-linecap="round" stroke-linejoin="round"/><polyline fill="none" points="-182.16929927982287,52.24736140362631 -179.6692992798036,51.57748842258059 -177.83917226084867,49.74736140367655 -177.16929927973342,47.247361403675896 -177.83917226077915,44.74736140365661 -179.6692992796832,42.91723438470167 -182.16929927968386,42.24736140358643 -184.66929927970313,42.917234384632145 -186.49942629865808,44.74736140353619 -187.16929927977333,47.24736140353684 -186.49942629872763,49.74736140355613 -184.66929927982358,51.57748842251107 -182.16929927982292,52.24736140362631" stroke="#ffa500" stroke-linecap="round" stroke-linejoin="round"/><polyline fill="none" points="28.64886931819883,110.21227454027958 31.148869318218114,109.54240155923387 32.97899633717306,107.71227454032983 33.648869318288305,105.21227454032918 32.97899633724259,102.71227454030989 31.14886931833855,100.88214752135495 28.648869318337898,100.2122745402397 26.148869318318614,100.88214752128542 24.31874229936367,102.71227454018945 23.648869318248426,105.21227454019011 24.318742299294136,107.71227454020939 26.148869318198177,109.54240155916433 28.64886931819883,110.21227454027958" stroke="#00f" stroke-linecap="round" stroke-linejoin="round"/><polyline fill="none" points="1.8455248800849453,201.7369980736649 4.345524880104231,201.0671250926192 6.175651899059176,199.23699807371514 6.845524880174422,196.7369980737145 6.175651899128713,194.2369980736952 4.345524880224675,192.40687105474024 1.845524880224021,191.736998073625 -0.6544751197952658,192.4068710546707 -2.4846021387502115,194.23699807357474 -3.1544751198654604,196.7369980735754 -2.484602138819753,199.2369980735947 -0.6544751199157148,201.06712509254965 1.8455248800849389,201.7369980736649" stroke="#ffa500" stroke-linecap="round" stroke-linejoin="round"/><polyline fill="none" points="-114.09110131587583,-28.892492099737588 -111.59110131585655,-29.562365080783295 -109.76097429690161,-31.39249209968733 -109.09110131578636,-33.892492099687985 -109.76097429683207,-36.39249209970727 -111.59110131573611,-38.222619118662216 -114.09110131573676,-38.89249209977746 -116.59110131575605,-38.22261911873176 -118.421228334711,-36.39249209982772 -119.09110131582625,-33.89249209982707 -118.42122833478055,-31.39249209980778 -116.59110131587651,-29.56236508085283 -114.09110131587586,-28.89249209973758" stroke="#00f" stroke-linecap="round" stroke-linejoin="round"/><polyline fill="none" points="-138.11321237056313,98.4675351781607 -135.61321237054383,97.797662197115 -133.78308535158888,95.96753517821097 -133.11321237047363,93.46753517821031 -133.78308535151933,90.96753517819103 -135.61321237042335,89.13740815923607 -138.113212370424,88.46753517812083 -140.6132123704433,89.13740815916653 -142.44333938939826,90.96753517807056 -143.1132123705135,93.46753517807122 -142.4433393894678,95.9675351780905 -140.6132123705638,97.79766219704545 -138.11321237056313,98.46753517816072" stroke="#ffa500" stroke-linecap="round" stroke-linejoin="round"/><polyline fill="none" points="13.082342572427818,3.436010802348788 15.582342572447107,2.766137821303085 17.412469591402058,0.9360108023990501 18.082342572517312,-1.5639891976016036 17.41246959147161,-4.063989197620894 15.582342572567574,-5.894116216575846 13.08234257256692,-6.563989197691102 10.58234257254763,-5.894116216645401 8.752215553592677,-4.063989197741366 8.08234257247742,-1.563989197740712 8.752215553523122,0.9360108022785791 10.582342572427157,2.7661378212335324 13.08234257242781,3.4360108023487896" stroke="#ffa500" stroke-linecap="round" stroke-linejoin="round"/><polyline fill="none" points="-267.38082051295567,-114.86413348783887 -264.8808205129364,-115.53400646888457 -263.05069349398144,-117.3641334877886 -262.3808205128662,-119.86413348778926 -263.05069349391187,-122.36413348780856 -264.8808205128159,-124.19426050676351 -267.3808205128165,-124.86413348787877 -269.8808205128358,-124.19426050683307 -271.71094753179074,-122.36413348792904 -272.380820512906,-119.86413348792838 -271.7109475318603,-117.36413348790909 -269.8808205129563,-115.53400646895413 -267.38082051295567,-114.86413348783887" stroke="#008000" stroke-linecap="round" stroke-linejoin="round"/><polyline fill="none" points="-233.51991080629801,-118.29426860676945 -231.01991080627872,-118.96414158781515 -229.18978378732376,-120.79426860671919 -228.51991080620851,-123.29426860671984 -229.1897837872542,-125.79426860673914 -231.01991080615824,-127.62439562569409 -233.5199108061589,-128.29426860680937 -236.0199108061782,-127.62439562576367 -237.85003782513314,-125.79426860685963 -238.51991080624842,-123.29426860685898 -237.85003782520272,-120.79426860683968 -236.0199108062987,-118.96414158788473 -233.51991080629804,-118.29426860676946" stroke="#00f" stroke-linecap="round" stroke-linejoin="round"/><polyline fill="none" points="61.58759500052944,243.85447324183022 64.08759500054873,243.18460026078452 65.91772201950369,241.3544732418805 66.58759500061895,238.85447324187984 65.91772201957325,236.35447324186055 64.08759500066921,234.5243462229056 61.58759500066856,233.85447324179032 59.08759500064926,234.52434622283602 57.2574679816943,236.35447324174004 56.58759500057903,238.8544732417407 57.25746798162472,241.35447324176 59.08759500052875,243.18460026071494 61.587595000529404,243.85447324183022" stroke="#00f" stroke-linecap="round" stroke-linejoin="round"/><polyline fill="none" points="-203.50669211512817,0.14411218853777452 -201.00669211510888,-0.5257607925079179 -199.17656509615392,-2.355887811411947 -198.50669211503865,-4.8558878114126 -199.17656509608435,-7.355887811431897 -201.00669211498837,-9.186014830386858 -203.50669211498902,-9.855887811502125 -206.00669211500832,-9.186014830456434 -207.83681913396327,-7.355887811552406 -208.50669211507855,-4.855887811551752 -207.83681913403285,-2.355887811532455 -206.00669211512883,-0.5257607925774916 -203.50669211512817,0.14411218853777752" stroke="#00f" stroke-linecap="round" stroke-linejoin="round"/><polyline fill="none" points="146.72764001463568,173.41260454384204 149.22764001465498,172.74273156279634 151.05776703360993,170.91260454389231 151.7276400147252,168.41260454389166 151.0577670336795,165.91260454387236 149.2276400147755,164.0824775249174 146.72764001477483,163.41260454380213 144.22764001475554,164.08247752484783 142.39751299580058,165.91260454375185 141.7276400146853,168.4126045437525 142.397512995731,170.9126045437718 144.22764001463503,172.74273156272676 146.72764001463568,173.41260454384204" stroke="#ffa500" stroke-linecap="round" stroke-linejoin="round"/><polyline fill="none" points="-173.62364580203592,-63.912728960577994 -171.12364580201663,-64.58260194162368 -169.29351878306167,-66.4127289605277 -168.6236458019464,-68.91272896052836 -169.2935187829921,-71.41272896054765 -171.12364580189612,-73.24285597950262 -173.62364580189677,-73.9127289606179 -176.12364580191607,-73.24285597957221 -177.95377282087102,-71.41272896066819 -178.6236458019863,-68.91272896066754 -177.9537728209406,-66.41272896064824 -176.12364580203658,-64.58260194169327 -173.62364580203592,-63.912728960577994" stroke="#ffa500" stroke-linecap="round" stroke-linejoin="round"/><polyline fill="none" points="105.5294076667184,-70.89912391447061 108.0294076667377,-71.56899689551629 109.85953468569267,-73.39912391442031 110.52940766680794,-75.89912391442097 109.85953468576226,-78.39912391444027 108.02940766685823,-80.22925093339524 105.52940766685758,-80.89912391451051 103.02940766683828,-80.22925093346483 101.19928064788331,-78.3991239145608 100.52940766676804,-75.89912391456015 101.19928064781372,-73.39912391454085 103.02940766671774,-71.56899689558588 105.5294076667184,-70.89912391447061" stroke="#ffa500" stroke-linecap="round" stroke-linejoin="round"/><polyline fill="none" points="-186.1955763761827,124.95194431462191 -183.6955763761634,124.28207133357623 -181.8654493572084,122.4519443146722 -181.19557637609313,119.95194431467155 -181.8654493571388,117.45194431465225 -183.69557637604282,115.62181729569728 -186.19557637604348,114.95194431458201 -188.69557637606277,115.6218172956277 -190.52570339501776,117.45194431453172 -191.19557637613303,119.95194431453237 -190.52570339508736,122.45194431455167 -188.69557637618334,124.28207133350664 -186.1955763761827,124.95194431462191" stroke="#ffa500" stroke-linecap="round" stroke-linejoin="round"/><polyline fill="none" points="60.882883538906896,-47.140797328451 63.3828835389262,-47.81067030949668 65.21301055788118,-49.6407973284007 65.88288353899645,-52.140797328401355 65.21301055795077,-54.64079732842066 63.382883539046745,-56.470924347375636 60.88288353904609,-57.14079732849092 58.382883539026786,-56.47092434744524 56.55275652007181,-54.64079732854122 55.88288353895653,-52.140797328540565 56.552756520002205,-49.64079732852126 58.38288353890623,-47.810670309566284 60.88288353890688,-47.140797328451" stroke="#ffa500" stroke-linecap="round" stroke-linejoin="round"/><polyline fill="none" points="-308.09099232444595,-70.19341666551493 -305.5909923244266,-70.8632896465606 -303.76086530547167,-72.69341666546462 -303.09099232435636,-75.19341666546528 -303.76086530540204,-77.69341666548458 -305.59099232430606,-79.52354368443956 -308.09099232430674,-80.19341666555485 -310.59099232432607,-79.52354368450918 -312.421119343281,-77.69341666560516 -313.0909923243963,-75.1934166656045 -312.42111934335065,-72.6934166655852 -310.59099232444663,-70.86328964663022 -308.090992324446,-70.19341666551493" stroke="#008000" stroke-linecap="round" stroke-linejoin="round"/><polyline fill="none" points="-152.42072979207407,74.14155178286656 -149.92072979205477,73.47167880182089 -148.0906027730998,71.64155178291686 -147.4207297919845,69.14155178291621 -148.09060277303018,66.6415517828969 -149.9207297919342,64.81142476394191 -152.42072979193486,64.14155178282662 -154.92072979195416,64.8114247638723 -156.75085681090914,66.64155178277632 -157.42072979202442,69.14155178277697 -156.75085681097875,71.64155178279628 -154.92072979207472,73.47167880175127 -152.42072979207407,74.14155178286656" stroke="#00f" stroke-linecap="round" stroke-linejoin="round"/><polyline fill="none" points="-122.92585305958258,-26.55083740915399 -120.42585305956327,-27.22071039019966 -118.59572604060828,-29.05083740910368 -117.925853059493,-31.550837409104332 -118.59572604053866,-34.05083740912364 -120.42585305944269,-35.88096442807862 -122.92585305944334,-36.55083740919391 -125.42585305946265,-35.88096442814824 -127.25598007841764,-34.050837409244224 -127.92585305953293,-31.55083740924357 -127.25598007848726,-29.05083740922426 -125.42585305958323,-27.22071039026928 -122.92585305958258,-26.550837409153985" stroke="#ffa500" stroke-linecap="round" stroke-linejoin="round"/><polyline fill="none" points="104.31914571783682,152.56446632495735 106.81914571785613,151.89459334391168 108.64927273681111,150.06446632500766 109.3191457179264,147.564466325007 108.64927273688073,145.0644663249877 106.81914571797671,143.23433930603272 104.31914571797606,142.56446632491742 101.81914571795674,143.2343393059631 99.98901869900176,145.0644663248671 99.31914571788647,147.56446632486777 99.98901869893214,150.06446632488706 101.81914571783616,151.89459334384205 104.31914571783682,152.56446632495735" stroke="#00f" stroke-linecap="round" stroke-linejoin="round"/><polyline fill="none" points="-393.3023922019007,-47.58869953997421 -390.8023922018814,-48.25857252101988 -388.9722651829264,-50.088699539923894 -388.3023922018111,-52.58869953992455 -388.97226518285675,-55.08869953994386 -390.80239220176077,-56.91882655889885 -393.30239220176145,-57.58869954001415 -395.8023922017808,-56.91882655896848 -397.6325192207358,-55.08869954006447 -398.3023922018511,-52.588699540063814 -397.6325192208054,-50.0886995400445 -395.8023922019014,-48.25857252108951 -393.3023922019007,-47.588699539974215" stroke="#ffa500" stroke-linecap="round" stroke-linejoin="round"/><polyline fill="none" points="-204.96319058268975,102.65017901264714 -202.46319058267045,101.98030603160147 -200.63306356371547,100.15017901269746 -199.96319058260016,97.65017901269681 -200.63306356364583,95.1501790126775 -202.46319058254986,93.32005199372252 -204.9631905825505,92.65017901260721 -207.4631905825698,93.32005199365288 -209.2933176015248,95.15017901255689 -209.9631905826401,97.65017901255754 -209.29331760159442,100.15017901257686 -207.4631905826904,101.98030603153185 -204.96319058268975,102.65017901264716" stroke="#ffa500" stroke-linecap="round" stroke-linejoin="round"/><polyline fill="none" points="-289.51779715635337,86.74978163461648 -287.01779715633404,86.07990865357083 -285.18767013737903,84.24978163466682 -284.5177971562637,81.74978163466616 -285.1876701373094,79.24978163464685 -287.0177971562134,77.41965461569185 -289.5177971562141,76.74978163457655 -292.0177971562334,77.4196546156222 -293.84792417518844,79.24978163452622 -294.51779715630374,81.74978163452687 -293.8479241752581,84.24978163454618 -292.01779715635405,86.07990865350118 -289.51779715635337,86.74978163461648" stroke="#ffa500" stroke-linecap="round" stroke-linejoin="round"/><polyline fill="none" points="-218.017562645249,-99.18505975310364 -215.51756264522967,-99.8549327341493 -213.6874356262747,-101.68505975305331 -213.0175626451594,-104.18505975305396 -213.68743562620506,-106.68505975307328 -215.51756264510908,-108.51518677202827 -218.01756264510973,-109.18505975314358 -220.51756264512906,-108.51518677209792 -222.34768966408404,-106.68505975319391 -223.01756264519935,-104.18505975319326 -222.34768966415368,-101.68505975317395 -220.51756264524965,-99.85493273421895 -218.017562645249,-99.18505975310364" stroke="#008000" stroke-linecap="round" stroke-linejoin="round"/><polyline fill="none" points="-318.3436686979682,-47.377227967446835 -315.8436686979489,-48.04710094849249 -314.0135416789939,-49.8772279673965 -313.34366869787857,-52.377227967397154 -314.01354167892424,-54.87722796741647 -315.84366869782826,-56.70735498637146 -318.3436686978289,-57.37722796748677 -320.8436686978482,-56.70735498644111 -322.6737957168032,-54.8772279675371 -323.34366869791853,-52.37722796753645 -322.67379571687286,-49.87722796751713 -320.84366869796884,-48.04710094856213 -318.34366869796816,-47.37722796744682" stroke="#ffa500" stroke-linecap="round" stroke-linejoin="round"/><polyline fill="none" points="-250.76248990035512,-118.45183774475088 -248.2624899003358,-119.12171072579653 -246.43236288138078,-120.95183774470054 -245.76248990026548,-123.4518377447012 -246.43236288131112,-125.9518377447205 -248.26248990021512,-127.7819647636755 -250.76248990021577,-128.45183774479082 -253.2624899002351,-127.78196476374517 -255.0926169191901,-125.95183774484116 -255.7624899003054,-123.4518377448405 -255.09261691925977,-120.95183774482119 -253.26248990035577,-119.1217107258662 -250.76248990035512,-118.45183774475088" stroke="#00f" stroke-linecap="round" stroke-linejoin="round"/><polyline fill="none" points="64.55416431413498,-148.8559322862916 67.05416431415429,-149.52580526733723 68.88429133310929,-151.35593228624123 69.55416431422461,-153.85593228624188 68.88429133317895,-156.3559322862612 67.05416431427494,-158.18605930521622 64.55416431427429,-158.85593228633152 62.05416431425497,-158.18605930528588 60.224037295299965,-156.3559322863819 59.55416431418465,-153.85593228638123 60.2240372952303,-151.3559322863619 62.05416431413431,-149.5258052674069 64.55416431413497,-148.8559322862916" stroke="#00f" stroke-linecap="round" stroke-linejoin="round"/><polyline fill="none" points="-328.50336391365147,-39.879618798313054 -326.00336391363214,-40.5494917793587 -324.17323689467713,-42.37961879826271 -323.5033639135618,-44.879618798263365 -324.1732368946075,-47.379618798282685 -326.0033639135115,-49.20974581723769 -328.5033639135122,-49.87961879835301 -331.00336391353153,-49.20974581730736 -332.83349093248654,-47.37961879840336 -333.50336391360185,-44.8796187984027 -332.8334909325562,-42.37961879838338 -331.00336391365215,-40.54949177942838 -328.50336391365147,-39.87961879831306" stroke="#00f" stroke-linecap="round" stroke-linejoin="round"/><polyline fill="none" points="53.3121842330535,109.32865803657255 55.81218423307282,108.6587850555269 57.642311252027824,106.8286580366229 58.31218423314314,104.32865803662224 57.64231125209749,101.82865803660292 55.81218423319349,99.9985310176479 53.31218423319284,99.32865803653259 50.81218423317352,99.99853101757823 48.982057214218514,101.82865803648224 48.312184233103196,104.32865803648289 48.98205721414884,106.82865803650222 50.81218423305284,108.65878505545723 53.31218423305349,109.32865803657255" stroke="#ffa500" stroke-linecap="round" stroke-linejoin="round"/><polyline fill="none" points="-264.4527755235041,14.870584247847466 -261.9527755234848,14.200711266801822 -260.12264850452976,12.370584247897819 -259.45277552341446,9.870584247897165 -260.12264850446013,7.370584247877842 -261.95277552336415,5.540457228922833 -264.45277552336483,4.8705842478075105 -266.95277552338416,5.540457228853154 -268.7829025423392,7.370584247757155 -269.4527755234545,9.870584247757808 -268.7829025424088,12.370584247777133 -266.9527755235048,14.200711266732144 -264.4527755235041,14.870584247847468" stroke="#008000" stroke-linecap="round" stroke-linejoin="round"/><polyline fill="none" points="35.93158970587732,41.095351676772324 38.43158970589665,40.42547869572668 40.26171672485166,38.59535167682268 40.931589705966985,36.09535167682203 40.26171672492134,33.5953516768027 38.43158970601734,31.76522465784769 35.93158970601669,31.095351676732363 33.43158970599736,31.765224657778006 31.60146268704235,33.59535167668201 30.931589705927024,36.09535167668266 31.601462686972663,38.59535167670199 33.43158970587666,40.425478695657 35.931589705877315,41.095351676772324" stroke="#ffa500" stroke-linecap="round" stroke-linejoin="round"/><polyline fill="none" points="48.02554199731592,-228.68522378203227 50.525541997335246,-229.3550967630779 52.35566901629026,-231.1852237819819 53.02554199740558,-233.68522378198256 52.35566901635994,-236.18522378200188 50.52554199745594,-238.0153508009569 48.025541997455285,-238.68522378207223 45.52554199743596,-238.01535080102659 43.69541497848094,-236.1852237821226 43.025541997365615,-233.68522378212194 43.69541497841125,-231.1852237821026 45.52554199731525,-229.3550967631476 48.025541997315905,-228.68522378203227" stroke="#ffa500" stroke-linecap="round" stroke-linejoin="round"/><polyline fill="none" points="10.299373899795535,251.50802612048633 12.799373899814864,250.8381531394407 14.62950091876988,249.0080261205367 15.299373899885211,246.50802612053604 14.629500918839573,244.00802612051672 12.799373899935576,242.1778991015617 10.299373899934922,241.50802612044637 7.799373899915594,242.17789910149202 5.969246880960576,244.008026120396 5.299373899845244,246.50802612039666 5.969246880890879,249.008026120416 7.799373899794876,250.838153139371 10.29937389979553,251.50802612048633" stroke="#ffa500" stroke-linecap="round" stroke-linejoin="round"/><polyline fill="none" points="228.01031177683794,-147.40584758639957 230.51031177685726,-148.07572056744522 232.34043879581228,-149.9058475863492 233.0103117769276,-152.40584758634986 232.34043879588197,-154.9058475863692 230.51031177697797,-156.7359746053242 228.01031177697732,-157.40584758643953 225.510311776958,-156.7359746053939 223.68018475800298,-154.9058475864899 223.01031177688765,-152.40584758648924 223.6801847579333,-149.90584758646992 225.51031177683728,-148.0757205675149 228.01031177683794,-147.40584758639957" stroke="#ffa500" stroke-linecap="round" stroke-linejoin="round"/><polyline fill="none" points="41.56172498769631,-138.1538760372678 44.06172498771564,-138.82374901831344 45.89185200667067,-140.65387603721743 46.56172498778601,-143.15387603721808 45.89185200674038,-145.6538760372374 44.061724987836385,-147.48400305619242 41.56172498783573,-148.15387603730775 39.0617249878164,-147.4840030562621 37.23159796886137,-145.65387603735812 36.56172498774603,-143.15387603735746 37.23159796879166,-140.65387603733814 39.061724987695655,-138.82374901838313 41.56172498769631,-138.1538760372678" stroke="#ffa500" stroke-linecap="round" stroke-linejoin="round"/><polyline fill="none" points="28.932075159109292,-92.86655064127599 31.432075159128626,-93.53642362232162 33.26220217808365,-95.36655064122561 33.93207515919899,-97.86655064122627 33.26220217815336,-100.3665506412456 31.432075159249365,-102.19667766020062 28.93207515924871,-102.86655064131597 26.432075159229377,-102.19667766027034 24.601948140274352,-100.36655064136635 23.932075159159012,-97.86655064136569 24.60194814020464,-95.36655064134636 26.432075159108635,-93.53642362239134 28.93207515910929,-92.86655064127599" stroke="#00f" stroke-linecap="round" stroke-linejoin="round"/><polyline fill="none" points="173.89888337958868,-127.96441105206267 176.398883379608,-128.6342840331083 178.22901039856305,-130.46441105201228 178.89888337967838,-132.96441105201293 178.22901039863277,-135.46441105203226 176.39888337972877,-137.2945380709873 173.89888337972812,-137.96441105210263 171.3988833797088,-137.29453807105702 169.56875636075375,-135.46441105215303 168.89888337963842,-132.96441105215237 169.56875636068403,-130.46441105213304 171.39888337958803,-128.634284033178 173.89888337958868,-127.96441105206266" stroke="#00f" stroke-linecap="round" stroke-linejoin="round"/><polyline fill="none" points="-371.02328909695785,-35.96562313313473 -368.5232890969385,-36.635496114180356 -366.6931620779835,-38.46562313308435 -366.02328909686815,-40.965623133085 -366.69316207791377,-43.46562313310434 -368.52328909681773,-45.29575015205937 -371.0232890968184,-45.96562313317472 -373.52328909683774,-45.295750152129095 -375.35341611579275,-43.46562313322511 -376.0232890969081,-40.965623133224454 -375.3534161158625,-38.46562313320512 -373.52328909695854,-36.63549611425009 -371.0232890969579,-35.96562313313474" stroke="#00f" stroke-linecap="round" stroke-linejoin="round"/><polyline fill="none" points="107.84662527560936,-102.81502700877331 110.3466252756287,-103.48489998981894 112.17675229458372,-105.31502700872294 112.84662527569907,-107.81502700872359 112.17675229465344,-110.31502700874293 110.34662527574945,-112.14515402769796 107.84662527574879,-112.8150270088133 105.34662527572945,-112.14515402776767 103.51649825677443,-110.31502700886368 102.84662527565908,-107.81502700886303 103.51649825670471,-105.31502700884369 105.3466252756087,-103.48489998988865 107.84662527560936,-102.8150270087733" stroke="#00f" stroke-linecap="round" stroke-linejoin="round"/><polyline fill="none" points="-300.14472065881597,-133.02607288691013 -297.64472065879664,-133.69594586795574 -295.81459363984163,-135.52607288685974 -295.14472065872627,-138.0260728868604 -295.8145936397719,-140.52607288687972 -297.64472065867585,-142.35619990583476 -300.14472065867653,-143.02607288695012 -302.64472065869586,-142.3561999059045 -304.47484767765087,-140.5260728870005 -305.14472065876623,-138.02607288699986 -304.4748476777206,-135.52607288698053 -302.64472065881665,-133.6959458680255 -300.14472065881597,-133.02607288691013" stroke="#ffa500" stroke-linecap="round" stroke-linejoin="round"/><polyline fill="none" points="-277.0337068119566,136.03752046217522 -274.5337068119373,135.3676474811296 -272.7035797929823,133.53752046222561 -272.0337068118669,131.03752046222496 -272.70357979291254,128.53752046220563 -274.5337068118165,126.7073934432506 -277.0337068118172,126.03752046213525 -279.5337068118365,126.70739344318086 -281.3638338307915,128.53752046208484 -282.0337068119069,131.0375204620855 -281.36383383086127,133.53752046210485 -279.5337068119573,135.3676474810599 -277.0337068119566,136.03752046217525" stroke="#ffa500" stroke-linecap="round" stroke-linejoin="round"/><polyline fill="none" points="-205.92872205507342,25.18856314135939 -203.42872205505407,24.51869016031377 -201.59859503609903,22.688563141409784 -200.92872205498367,20.188563141409126 -201.59859503602928,17.688563141389785 -203.42872205493327,15.858436122434746 -205.92872205493393,15.18856314131939 -208.42872205495328,15.858436122365006 -210.25884907390832,17.688563141268993 -210.92872205502368,20.188563141269647 -210.25884907397807,22.688563141288988 -208.42872205507408,24.518690160244027 -205.92872205507342,25.188563141359385" stroke="#00f" stroke-linecap="round" stroke-linejoin="round"/><polyline fill="none" points="-286.99874367086784,-40.84302305463215 -284.4987436708485,-41.51289603567776 -282.66861665189344,-43.34302305458175 -281.9987436707781,-45.8430230545824 -282.6686166518237,-48.343023054601744 -284.49874367072766,-50.17315007355678 -286.99874367072835,-50.843023054672145 -289.4987436707477,-50.17315007362653 -291.32887068970274,-48.34302305472254 -291.9987436708181,-45.84302305472189 -291.3288706897725,-43.34302305470254 -289.4987436708685,-41.512896035747495 -286.99874367086784,-40.843023054632134" stroke="#008000" stroke-linecap="round" stroke-linejoin="round"/><polyline fill="none" points="165.68650808637798,-90.68389523342812 168.18650808639734,-91.35376821447373 170.01663510535238,-93.18389523337771 170.68650808646774,-95.68389523337837 170.01663510542213,-98.1838952333977 168.18650808651813,-100.01402225235275 165.68650808651748,-100.6838952334681 163.18650808649812,-100.01402225242249 161.35638106754308,-98.18389523351851 160.68650808642772,-95.68389523351786 161.35638106747334,-93.18389523349852 163.18650808637733,-91.35376821454346 165.68650808637798,-90.6838952334281" stroke="#ffa500" stroke-linecap="round" stroke-linejoin="round"/><polyline fill="none" points="75.52408489009716,-194.4726680450984 78.0240848901165,-195.14254102614402 79.85421190907155,-196.972668045048 80.52408489018691,-199.47266804504866 79.8542119091413,-201.97266804506802 78.02408489023732,-203.80279506402306 75.52408489023667,-204.47266804513842 73.02408489021732,-203.8027950640928 71.19395787126227,-201.9726680451888 70.52408489014691,-199.47266804518816 71.19395787119251,-196.9726680451688 73.02408489009649,-195.14254102621376 75.52408489009714,-194.4726680450984" stroke="#ffa500" stroke-linecap="round" stroke-linejoin="round"/><polyline fill="none" points="-286.9784075115552,-96.04112386081016 -284.47840751153586,-96.71099684185576 -282.6482804925808,-98.54112386075974 -281.97840751146543,-101.0411238607604 -282.64828049251105,-103.54112386077975 -284.478407511415,-105.3712508797348 -286.9784075114157,-106.04112386085018 -289.478407511435,-105.37125087980458 -291.3085345303901,-103.5411238609006 -291.97840751150545,-101.04112386089994 -291.30853453045984,-98.54112386088059 -289.4784075115559,-96.71099684192554 -286.9784075115552,-96.04112386081016" stroke="#00f" stroke-linecap="round" stroke-linejoin="round"/><polyline fill="none" points="87.28594306858415,-141.65264412789247 89.7859430686035,-142.3225171089381 91.61607008755855,-144.15264412784208 92.28594306867393,-146.65264412784273 91.61607008762833,-149.1526441278621 89.78594306872435,-150.98277114681713 87.2859430687237,-151.6526441279325 84.78594306870434,-150.98277114688688 82.95581604974929,-149.1526441279829 82.28594306863391,-146.65264412798226 82.95581604967951,-144.1526441279629 84.78594306858349,-142.32251710900783 87.28594306858415,-141.65264412789247" stroke="#00f" stroke-linecap="round" stroke-linejoin="round"/><polyline fill="none" points="60.617574713435886,-91.69603561821327 63.11757471345524,-92.36590859925887 64.9477017324103,-94.19603561816285 65.61757471352567,-96.6960356181635 64.94770173248007,-99.19603561818286 63.11757471357609,-101.02616263713792 60.617574713575436,-101.69603561825329 58.11757471355608,-101.02616263720769 56.28744769460103,-99.19603561830371 55.61757471348565,-96.69603561830306 56.28744769453125,-94.1960356182837 58.11757471343523,-92.36590859932865 60.617574713435886,-91.69603561821327" stroke="#ffa500" stroke-linecap="round" stroke-linejoin="round"/><polyline fill="none" points="-244.42568492593907,107.29562069703222 -241.9256849259197,106.62574771598662 -240.09555790696464,104.79562069708264 -239.42568492584928,102.29562069708199 -240.0955579068949,99.79562069706263 -241.92568492579886,97.96549367810758 -244.42568492579952,97.2956206969922 -246.92568492581887,97.9654936780378 -248.75581194477394,99.79562069694178 -249.42568492588933,102.29562069694244 -248.75581194484374,104.79562069696179 -246.92568492593978,106.62574771591684 -244.42568492593912,107.29562069703222" stroke="#ffa500" stroke-linecap="round" stroke-linejoin="round"/><polyline fill="none" points="-301.1696824786399,-63.613529488466696 -298.6696824786206,-64.2834024695123 -296.8395554596655,-66.11352948841628 -296.16968247855016,-68.61352948841693 -296.8395554595958,-71.11352948843628 -298.66968247849974,-72.94365650739134 -301.1696824785004,-73.61352948850671 -303.6696824785198,-72.94365650746111 -305.49980949747487,-71.11352948855713 -306.16968247859023,-68.61352948855648 -305.4998094975446,-66.11352948853713 -303.66968247864065,-64.28340246958206 -301.16968247863997,-63.613529488466675" stroke="#008000" stroke-linecap="round" stroke-linejoin="round"/><polyline fill="none" points="-187.37986237242413,-24.693151947723102 -184.87986237240477,-25.3630249287687 -183.0497353534497,-27.193151947672675 -182.37986237233432,-29.693151947673332 -183.0497353533799,-32.19315194769269 -184.87986237228387,-34.02327896664775 -187.37986237228452,-34.693151947763134 -189.87986237230388,-34.02327896671754 -191.70998939125894,-32.19315194781357 -192.37986237237433,-29.69315194781291 -191.70998939132875,-27.193151947793552 -189.87986237242478,-25.363024928838488 -187.37986237242413,-24.693151947723106" stroke="#ffa500" stroke-linecap="round" stroke-linejoin="round"/><polyline fill="none" points="-200.87532090870909,-77.33953190969108 -198.37532090868973,-78.00940489073668 -196.54519388973466,-79.83953190964066 -195.87532090861927,-82.33953190964131 -196.54519388966486,-84.83953190966066 -198.37532090856882,-86.66965892861573 -200.87532090856948,-87.33953190973112 -203.37532090858883,-86.66965892868554 -205.2054479275439,-84.83953190978156 -205.8753209086593,-82.3395319097809 -205.2054479276137,-79.83953190976155 -203.37532090870974,-78.00940489080648 -200.87532090870909,-77.33953190969109" stroke="#ffa500" stroke-linecap="round" stroke-linejoin="round"/><polyline fill="none" points="-252.8848543438919,-97.8683648530304 -250.38485434387255,-98.53823783407599 -248.55472732491748,-100.36836485297997 -247.8848543438021,-102.86836485298062 -248.55472732484768,-105.36836485299997 -250.38485434375164,-107.19849187195504 -252.8848543437523,-107.86836485307043 -255.38485434377165,-107.19849187202485 -257.21498136272675,-105.36836485312088 -257.8848543438421,-102.86836485312023 -257.2149813627965,-100.36836485310087 -255.38485434389253,-98.5382378341458 -252.88485434389187,-97.86836485303041" stroke="#00f" stroke-linecap="round" stroke-linejoin="round"/><polyline fill="none" points="47.44016581350417,223.43400229648407 49.940165813523535,222.76412931543848 51.7702928324786,220.93400229653452 52.44016581359399,218.43400229653386 51.77029283254841,215.9340022965145 49.940165813644434,214.10387527755944 47.44016581364377,213.43400229644405 44.94016581362441,214.10387527748964 43.11003879466934,215.9340022963936 42.44016581355395,218.43400229639425 43.11003879459954,220.9340022964136 44.94016581350351,222.76412931536868 47.44016581350417,223.43400229648407" stroke="#ffa500" stroke-linecap="round" stroke-linejoin="round"/><polyline fill="none" points="-215.80340216343134,14.499315645432858 -213.303402163412,13.829442664387273 -211.47327514445692,11.999315645483302 -210.80340216334153,9.499315645482643 -211.47327514438712,6.99931564546328 -213.30340216329108,5.169188626508208 -215.80340216329174,4.499315645392816 -218.3034021633111,5.169188626438402 -220.13352918226616,6.999315645342372 -220.80340216338155,9.49931564534303 -220.13352918233596,11.999315645362394 -218.303402163432,13.829442664317467 -215.80340216343134,14.49931564543286" stroke="#ffa500" stroke-linecap="round" stroke-linejoin="round"/></svg>