<?xml version="1.0" ?><!DOCTYPE svg  PUBLIC '-//W3C//DTD SVG 1.1//EN'  'http://www.w3.org/Graphics/SVG/1.1/DTD/svg11.dtd'><svg height="532.000" viewBox="-407.000 -248.000 651.000 532.000" width="651.000" xmlns="http://www.w3.org/2000/svg"><line fill="none" stroke="none" stroke-linecap="round" stroke-width="2.0" x1="0.0" x2="0.0" y1="0.0" y2="0.0"/><polygon fill="none" fill-rule="evenodd" points="0.0,0.0 0.0,0.0 0.0,0.0" stroke-linejoin="round"/><polyline fill="none" points="-7.460434595469013,119.80532745757286 -4.96043459544888,119.13545447652855 -3.1303075764924984,117.30532745762531 -2.4604345953756086,114.80532745762463 -3.13030757641991,112.30532745760449 -4.960434595323154,110.4752004386481 -7.460434595323838,109.8053274575312 -9.960434595343973,110.47520043857551 -11.790561614300355,112.30532745747875 -12.460434595417246,114.80532745747944 -11.790561614372946,117.30532745749957 -9.960434595469703,119.13545447645596 -7.460434595469019,119.80532745757286" stroke="#ffa500" stroke-linecap="round" stroke-linejoin="round"/><polyline fill="none" points="-24.479360880977925,55.275116543187686 -21.97936088095779,54.605243562143386 -20.149233862001402,52.775116543240145 -19.47936088088451,50.27511654323946 -20.14923386192881,47.775116543219326 -21.97936088083205,45.944989524262944 -24.479360880832736,45.27511654314605 -26.979360880852873,45.94498952419035 -28.80948789980926,47.77511654309359 -29.47936088092615,50.27511654309427 -28.80948789988185,52.77511654311441 -26.97936088097861,54.6052435620708 -24.47936088097793,55.27511654318769" stroke="#ffa500" stroke-linecap="round" stroke-linejoin="round"/><polyline fill="none" points="123.16238973950692,-95.30697177909165 125.66238973952706,-95.97684476013595 127.49251675848345,-97.80697177903919 128.16238973960034,-100.30697177903987 127.49251675855605,-102.80697177906 125.66238973965281,-104.6370987980164 123.16238973965213,-105.30697177913329 120.66238973963199,-104.637098798089 118.8322627206756,-102.80697177918576 118.1623897395587,-100.30697177918508 118.832262720603,-97.80697177916494 120.66238973950624,-95.97684476020855 123.16238973950692,-95.30697177909165" stroke="#ffa500" stroke-linecap="round" stroke-linejoin="round"/><polyline fill="none" points="-189.82972544730555,-138.67401625770125 -187.3297254472854,-139.34388923874556 -185.499598428329,-141.1740162576488 -184.8297254472121,-143.67401625764947 -185.4995984282564,-146.17401625766962 -187.32972544715963,-148.00414327662602 -189.8297254471603,-148.67401625774292 -192.32972544718046,-148.0041432766986 -194.15985246613687,-146.1740162577954 -194.82972544725376,-143.6740162577947 -194.15985246620946,-141.17401625777455 -192.32972544730623,-139.34388923881815 -189.82972544730555,-138.67401625770125" stroke="#ffa500" stroke-linecap="round" stroke-linejoin="round"/><polyline fill="none" points="-224.55736958801742,-51.96433079754203 -222.05736958799727,-52.634203778586325 -220.22724256904087,-54.464330797489566 -219.55736958792397,-56.96433079749025 -220.22724256896825,-59.46433079751039 -222.05736958787148,-61.29445781646679 -224.55736958787216,-61.96433079758369 -227.0573695878923,-61.2944578165394 -228.8874966068487,-59.46433079763616 -229.5573695879656,-56.96433079763547 -228.88749660692133,-54.464330797615325 -227.0573695880181,-52.63420377865893 -224.55736958801742,-51.964330797542026" stroke="#00f" stroke-linecap="round" stroke-linejoin="round"/><polyline fill="none" points="-368.6293259055161,-51.77799862349228 -366.129325905496,-52.44787160453657 -364.2991988865396,-54.277998623439814 -363.6293259054227,-56.7779986234405 -364.299198886467,-59.27799862346065 -366.12932590537025,-61.10812564241704 -368.62932590537093,-61.777998623533946 -371.12932590539106,-61.108125642489654 -372.95945292434743,-59.27799862358641 -373.6293259054643,-56.777998623585724 -372.95945292442,-54.27799862356558 -371.1293259055168,-52.44787160460918 -368.6293259055161,-51.77799862349228" stroke="#00f" stroke-linecap="round" stroke-linejoin="round"/><polyline fill="none" points="147.99116002685426,-89.89415576910397 150.4911600268744,-90.56402875014827 152.32128704583081,-92.39415576905151 152.9911600269477,-94.89415576905219 152.32128704590343,-97.39415576907234 150.4911600270002,-99.22428278802875 147.99116002699952,-99.89415576914566 145.49116002697937,-99.22428278810136 143.66103300802297,-97.39415576919812 142.99116002690607,-94.89415576919744 143.66103300795035,-92.39415576917729 145.49116002685358,-90.56402875022088 147.99116002685426,-89.89415576910397" stroke="#ffa500" stroke-linecap="round" stroke-linejoin="round"/><polyline fill="none" points="107.13651007320186,-217.66861846748694 109.63651007322201,-218.33849144853122 111.46663709217842,-220.16861846743444 112.13651007329533,-222.66861846743512 111.46663709225105,-225.16861846745527 109.63651007334781,-226.99874548641168 107.13651007334713,-227.6686184675286 104.63651007332697,-226.99874548648432 102.80638305437057,-225.1686184675811 102.13651007325366,-222.66861846758042 102.80638305429794,-220.16861846756026 104.63651007320118,-218.33849144860386 107.13651007320186,-217.66861846748694" stroke="#ffa500" stroke-linecap="round" stroke-linejoin="round"/><polyline fill="none" points="-376.8969450664457,-54.246725641797745 -374.3969450664256,-54.91659862284203 -372.5668180474692,-56.746725641745265 -371.8969450663523,-59.246725641745954 -372.5668180473966,-61.7467256417661 -374.39694506629985,-63.5768526607225 -376.89694506630053,-64.24672564183942 -379.39694506632065,-63.57685266079514 -381.2270720852771,-61.746725641891906 -381.896945066394,-59.24672564189122 -381.2270720853497,-56.746725641871066 -379.39694506644645,-54.91659862291466 -376.89694506644577,-54.246725641797745" stroke="#00f" stroke-linecap="round" stroke-linejoin="round"/><polyline fill="none" points="-254.0535754714079,58.846718926542714 -251.55357547138775,58.176845945498435 -249.72344845243134,56.3467189265952 -249.05357547131442,53.84671892659452 -249.7234484523587,51.34671892657437 -251.55357547126192,49.516591907617965 -254.0535754712626,48.84671892650105 -256.5535754712827,49.516591907545326 -258.38370249023916,51.34671892644856 -259.05357547135606,53.84671892644925 -258.38370249031175,56.3467189264694 -256.5535754714085,58.17684594542581 -254.05357547140784,58.84671892654273" stroke="#00f" stroke-linecap="round" stroke-linejoin="round"/><polyline fill="none" points="96.37816671001939,175.90577568664096 98.87816671003954,175.2359027055967 100.70829372899594,173.40577568669346 101.37816671011286,170.90577568669278 100.70829372906859,168.40577568667263 98.87816671016536,166.57564866771622 96.37816671016468,165.9057756865993 93.87816671014453,166.57564866764358 92.04803969118812,168.4057756865468 91.3781667100712,170.90577568654749 92.04803969111548,173.40577568656764 93.8781667100187,175.23590270552404 96.37816671001939,175.90577568664096" stroke="#ffa500" stroke-linecap="round" stroke-linejoin="round"/><polyline fill="none" points="93.46228086580508,91.97254886772025 95.96228086582524,91.30267588667597 97.79240788478164,89.47254886777274 98.46228086589856,86.97254886777206 97.79240788485428,84.47254886775191 95.96228086595106,82.6424218487955 93.46228086595038,81.97254886767857 90.96228086593023,82.64242184872285 89.13215384697381,84.47254886762607 88.46228086585688,86.97254886762676 89.13215384690116,89.4725488676469 90.96228086580439,91.30267588660332 93.46228086580507,91.97254886772025" stroke="#ffa500" stroke-linecap="round" stroke-linejoin="round"/><polyline fill="none" points="126.66293135976444,-177.25826196254903 129.1629313597846,-177.9281349435933 130.993058378741,-179.75826196249653 131.66293135985794,-182.25826196249722 130.99305837881366,-184.75826196251737 129.16293135991043,-186.58838898147377 126.66293135990975,-187.2582619625907 124.1629313598896,-186.58838898154642 122.33280434093318,-184.7582619626432 121.66293135981626,-182.2582619626425 122.33280434086052,-179.75826196262236 124.16293135976375,-177.92813494366595 126.66293135976443,-177.25826196254903" stroke="#ffa500" stroke-linecap="round" stroke-linejoin="round"/><polyline fill="none" points="-145.48107721168623,-118.2069308025826 -142.98107721166608,-118.87680378362687 -141.15095019270967,-120.7069308025301 -140.48107721159275,-123.20693080253078 -141.15095019263703,-125.70693080255093 -142.98107721154025,-127.53705782150735 -145.48107721154093,-128.20693080262427 -147.9810772115611,-127.53705782158 -149.8112042305175,-125.70693080267678 -150.4810772116344,-123.2069308026761 -149.81120423059014,-120.70693080265595 -147.9810772116869,-118.87680378369953 -145.48107721168623,-118.2069308025826" stroke="#00f" stroke-linecap="round" stroke-linejoin="round"/><polyline fill="none" points="31.974216599275785,272.31132549346364 34.47421659929594,271.6414525124194 36.30434361825236,269.81132549351616 36.97421659936929,267.3113254935155 36.30434361832503,264.8113254934953 34.4742165994218,262.98119847453887 31.974216599421116,262.3113254934219 29.474216599400958,262.98119847446617 27.64408958044454,264.8113254933694 26.974216599327608,267.3113254933701 27.644089580371876,269.81132549339026 29.474216599275103,271.6414525123467 31.97421659927579,272.31132549346364" stroke="#ffa500" stroke-linecap="round" stroke-linejoin="round"/><polyline fill="none" points="20.783900026187343,-147.9263729650552 23.2839000262075,-148.5962459460995 25.114027045163922,-150.4263729650027 25.783900026280854,-152.9263729650034 25.11402704523659,-155.42637296502355 23.283900026333367,-157.25649998397998 20.78390002633268,-157.9263729650969 18.283900026312523,-157.25649998405262 16.4537730073561,-155.4263729651494 15.783900026239168,-152.92637296514872 16.453773007283434,-150.42637296512856 18.283900026186657,-148.59624594617213 20.783900026187343,-147.9263729650552" stroke="#ffa500" stroke-linecap="round" stroke-linejoin="round"/><polyline fill="none" points="-272.5064466866852,-84.23561749288834 -270.006446686665,-84.9054904739326 -268.1763196677086,-86.73561749283583 -267.50644668659163,-89.23561749283651 -268.1763196676359,-91.73561749285668 -270.0064466865391,-93.5657445118131 -272.5064466865398,-94.23561749293003 -275.00644668655997,-93.56574451188577 -276.8365737055164,-91.73561749298254 -277.50644668663335,-89.23561749298186 -276.8365737055891,-86.7356174929617 -275.0064466866859,-84.90549047400528 -272.5064466866852,-84.23561749288834" stroke="#008000" stroke-linecap="round" stroke-linejoin="round"/><polyline fill="none" points="21.631687772738186,-8.311452963851384 24.131687772758347,-8.981325944895644 25.961814791714772,-10.811452963798866 26.63168777283171,-13.311452963799551 25.96181479178745,-15.811452963819711 24.13168777288423,-17.641579982776136 21.631687772883545,-18.311452963893075 19.131687772863383,-17.641579982848814 17.301560753906955,-15.811452963945593 16.631687772790016,-13.311452963944907 17.301560753834273,-10.811452963924745 19.131687772737493,-8.981325944968319 21.63168777273818,-8.311452963851378" stroke="#ffa500" stroke-linecap="round" stroke-linejoin="round"/><polyline fill="none" points="-322.2294742630433,-106.15058332435936 -319.7294742630231,-106.82045630540362 -317.8993472440667,-108.65058332430685 -317.22947426294974,-111.15058332430753 -317.899347243994,-113.6505833243277 -319.7294742628972,-115.48071034328413 -322.2294742628979,-116.15058332440107 -324.7294742629181,-115.48071034335682 -326.5596012818745,-113.6505833244536 -327.22947426299146,-111.15058332445292 -326.5596012819472,-108.65058332443276 -324.729474263044,-106.82045630547633 -322.2294742630433,-106.15058332435939" stroke="#00f" stroke-linecap="round" stroke-linejoin="round"/><polyline fill="none" points="72.2896752897826,-207.61442326371397 74.78967528980276,-208.28429624475822 76.61980230875919,-210.11442326366145 77.28967528987613,-212.61442326366213 76.61980230883188,-215.11442326368228 74.78967528992867,-216.94455028263872 72.28967528992798,-217.61442326375567 69.78967528990782,-216.94455028271142 67.95954827095139,-215.1144232638082 67.28967528983443,-212.6144232638075 67.95954827087868,-210.11442326378736 69.7896752897819,-208.28429624483093 72.28967528978258,-207.61442326371397" stroke="#00f" stroke-linecap="round" stroke-linejoin="round"/><polyline fill="none" points="80.23605070542104,-56.96523439055688 82.7360507054412,-57.63510737160113 84.56617772439763,-59.46523439050435 85.23605070551459,-61.96523439050504 84.56617772447034,-64.4652343905252 82.73605070556712,-66.29536140948163 80.23605070556644,-66.96523439059858 77.73605070554628,-66.29536140955433 75.90592368658984,-64.46523439065112 75.23605070547289,-61.96523439065043 75.90592368651714,-59.465234390630265 77.73605070542035,-57.63510737167383 80.23605070542104,-56.96523439055689" stroke="#ffa500" stroke-linecap="round" stroke-linejoin="round"/><polyline fill="none" points="-151.73088869657633,28.926444804472094 -149.23088869655618,28.256571823427844 -147.40076167759975,26.42644480452463 -146.7308886964828,23.926444804523943 -147.40076167752704,21.426444804503777 -149.23088869643027,19.596317785547342 -151.73088869643095,18.926444804430393 -154.23088869645113,19.596317785474643 -156.06101571540756,21.42644480437786 -156.73088869652452,23.926444804378544 -156.06101571548027,26.42644480439871 -154.23088869657704,28.256571823355145 -151.73088869657636,28.926444804472098" stroke="#ffa500" stroke-linecap="round" stroke-linejoin="round"/><polyline fill="none" points="112.85621018742134,-165.23654729961189 115.3562101874415,-165.90642028065614 117.18633720639794,-167.73654729955936 117.85621018751489,-170.23654729956004 117.18633720647064,-172.73654729958022 115.35621018756743,-174.56667431853666 112.85621018756675,-175.2365472996536 110.35621018754658,-174.56667431860936 108.52608316859015,-172.73654729970613 107.8562101874732,-170.23654729970545 108.52608316851745,-167.73654729968527 110.35621018742066,-165.90642028072884 112.85621018742134,-165.23654729961189" stroke="#ffa500" stroke-linecap="round" stroke-linejoin="round"/><polyline fill="none" points="-178.3631524863745,69.94304759396528 -175.86315248635432,69.27317461292103 -174.0330254673979,67.44304759401781 -173.36315248628094,64.94304759401713 -174.0330254673252,62.443047593996965 -175.86315248622842,60.612920575040526 -178.3631524862291,59.94304759392357 -180.86315248624928,60.612920574967816 -182.6932795052057,62.44304759387103 -183.36315248632266,64.94304759387171 -182.6932795052784,67.44304759389188 -180.8631524863752,69.27317461284832 -178.36315248637453,69.94304759396528" stroke="#00f" stroke-linecap="round" stroke-linejoin="round"/><polyline fill="none" points="142.63380296962404,-112.31383338898755 145.13380296964422,-112.9837063700318 146.96392998860065,-114.81383338893501 147.6338029697176,-117.31383338893569 146.96392998867336,-119.81383338895586 145.13380296977016,-121.6439604079123 142.63380296976948,-122.31383338902926 140.1338029697493,-121.64396040798502 138.30367595079287,-119.81383338908181 137.6338029696759,-117.31383338908113 138.30367595072016,-114.81383338906096 140.13380296962336,-112.98370637010451 142.63380296962404,-112.31383338898755" stroke="#00f" stroke-linecap="round" stroke-linejoin="round"/><polyline fill="none" points="196.71665301220364,-134.42225785427868 199.21665301222382,-135.09213083532293 201.04678003118025,-136.92225785422613 201.7166530122972,-139.4222578542268 201.04678003125295,-141.922257854247 199.21665301234975,-143.75238487320343 196.71665301234907,-144.42225785432038 194.2166530123289,-143.75238487327613 192.38652599337246,-141.92225785437293 191.7166530122555,-139.42225785437225 192.38652599329976,-136.92225785435207 194.21665301220295,-135.0921308353956 196.71665301220364,-134.42225785427866" stroke="#00f" stroke-linecap="round" stroke-linejoin="round"/><polyline fill="none" points="75.09518544769105,86.9873781739963 77.59518544771123,86.31750519295207 79.42531246666768,84.48737817404886 80.09518544778464,81.98737817404817 79.42531246674041,79.487378174028 77.5951854478372,77.65725115507155 75.09518544783651,76.98737817395458 72.59518544781633,77.65725115499882 70.76505842885989,79.48737817390203 70.09518544774292,81.98737817390271 70.76505842878716,84.48737817392289 72.59518544769037,86.31750519287934 75.09518544769105,86.9873781739963" stroke="#ffa500" stroke-linecap="round" stroke-linejoin="round"/><polyline fill="none" points="55.167556605908224,35.19678903433382 57.6675566059284,34.52691605328958 59.49768362488484,32.69678903438638 60.16755660600181,30.19678903438569 59.497683624957574,27.696789034365516 57.66755660605437,25.866662015409066 55.16755660605368,25.1967890342921 52.66755660603351,25.866662015336335 50.837429587077054,27.696789034239544 50.16755660596009,30.19678903424023 50.83742958700432,32.696789034260405 52.66755660590753,34.52691605321686 55.16755660590822,35.196789034333825" stroke="#ffa500" stroke-linecap="round" stroke-linejoin="round"/><polyline fill="none" points="-97.445707442492,-108.02291040421659 -94.94570744247181,-108.69278338526082 -93.11558042351537,-110.52291040416404 -92.4457074423984,-113.02291040416472 -93.11558042344264,-115.5229104041849 -94.94570744234585,-117.35303742314134 -97.44570744234653,-118.02291040425831 -99.94570744236671,-117.35303742321408 -101.77583446132317,-115.52291040431086 -102.44570744244014,-113.02291040431018 -101.7758344613959,-110.52291040429 -99.94570744249269,-108.69278338533354 -97.44570744249201,-108.02291040421657" stroke="#ffa500" stroke-linecap="round" stroke-linejoin="round"/><polyline fill="none" points="-182.83153619975073,21.79344105863451 -180.33153619973055,21.123568077590278 -178.5014091807741,19.293441058687073 -177.8315361996571,16.793441058686387 -178.50140918070133,14.29344105866621 -180.33153619960453,12.463314039709754 -182.8315361996052,11.793441058592782 -185.3315361996254,12.463314039637012 -187.16166321858185,14.293441058540218 -187.83153619969883,16.793441058540903 -187.1616632186546,19.293441058561083 -185.3315361997514,21.12356807751754 -182.83153619975073,21.793441058634514" stroke="#ffa500" stroke-linecap="round" stroke-linejoin="round"/><polyline fill="none" points="-296.91718797380935,19.395094571706892 -294.41718797378917,18.725221590662663 -292.58706095483274,16.895094571759458 -291.9171879737158,14.395094571758772 -292.58706095476003,11.895094571738593 -294.41718797366326,10.064967552782136 -296.91718797366394,9.395094571665162 -299.4171879736841,10.06496755270939 -301.24731499264055,11.895094571612594 -301.9171879737575,14.39509457161328 -301.24731499271326,16.895094571633457 -299.41718797381003,18.725221590589914 -296.91718797380935,19.395094571706892" stroke="#ffa500" stroke-linecap="round" stroke-linejoin="round"/><polyline fill="none" points="-60.30071201464984,-138.15047148203175 -57.80071201462966,-138.82034446307597 -55.9705849956732,-140.65047148197917 -55.300712014556225,-143.15047148197985 -55.970584995600454,-145.65047148200003 -57.80071201450366,-147.4805985009565 -60.30071201450435,-148.15047148207347 -62.80071201452453,-147.48059850102925 -64.63083903348098,-145.65047148212605 -65.30071201459796,-143.15047148212537 -64.63083903355374,-140.6504714821052 -62.80071201465054,-138.82034446314873 -60.300712014649854,-138.15047148203175" stroke="#00f" stroke-linecap="round" stroke-linejoin="round"/><polyline fill="none" points="-356.13876702290486,-35.9515971643386 -353.6387670228847,-36.62147014538283 -351.8086400039282,-38.45159716428603 -351.13876702281124,-40.95159716428672 -351.8086400038555,-43.4515971643069 -353.6387670227587,-45.28172418326336 -356.1387670227594,-45.95159716438034 -358.6387670227796,-45.28172418333612 -360.46889404173606,-43.45159716443292 -361.138767022853,-40.95159716443223 -360.46889404180877,-38.45159716441205 -358.63876702290554,-36.62147014545559 -356.13876702290486,-35.95159716433861" stroke="#ffa500" stroke-linecap="round" stroke-linejoin="round"/><polyline fill="none" points="-186.4087365130237,108.99851721649488 -183.90873651300353,108.32864423545065 -182.07860949404707,106.49851721654746 -181.4087365129301,103.99851721654677 -182.0786094939743,101.4985172165266 -183.9087365128775,99.66839019757013 -186.4087365128782,98.99851721645315 -188.90873651289837,99.66839019749737 -190.73886353185483,101.49851721640057 -191.4087365129718,103.99851721640125 -190.7388635319276,106.49851721642143 -188.9087365130244,108.3286442353779 -186.4087365130237,108.99851721649488" stroke="#ffa500" stroke-linecap="round" stroke-linejoin="round"/><polyline fill="none" points="141.57293796710343,197.27018151420083 144.0729379671236,196.6003085331566 145.90306498608007,194.7701815142534 146.57293796719705,192.27018151425273 145.90306498615283,189.77018151423255 144.07293796724963,187.9400544952761 141.57293796724895,187.2701815141591 139.07293796722877,187.94005449520333 137.2428109482723,189.77018151410653 136.57293796715533,192.2701815141072 137.24281094819955,194.7701815141274 139.07293796710275,196.60030853308385 141.57293796710343,197.27018151420083" stroke="#ffa500" stroke-linecap="round" stroke-linejoin="round"/><polyline fill="none" points="-293.8044403141776,-75.50284286804532 -291.30444031415743,-76.17271584908954 -289.47431329520094,-78.00284286799274 -288.80444031408393,-80.50284286799342 -289.4743132951281,-83.0028428680136 -291.3044403140313,-84.83296988697008 -293.804440314032,-85.50284286808707 -296.30444031405216,-84.83296988704285 -298.13456733300865,-83.00284286813965 -298.80444031412566,-80.50284286813897 -298.13456733308146,-78.00284286811879 -296.3044403141783,-76.17271584916232 -293.8044403141776,-75.50284286804532" stroke="#f00" stroke-linecap="round" stroke-linejoin="round"/><polyline fill="none" points="41.235300787353346,-129.4816166067461 43.73530078737353,-130.1514895877903 45.56542780633,-131.9816166066935 46.23530078744699,-134.4816166066942 45.565427806402774,-136.98161660671437 43.73530078749958,-138.81174362567083 41.2353007874989,-139.4816166067878 38.735300787478714,-138.8117436257436 36.90517376852224,-136.9816166068404 36.235300787405244,-134.4816166068397 36.90517376844946,-131.98161660681953 38.73530078735265,-130.15148958786307 41.23530078735334,-129.4816166067461" stroke="#ffa500" stroke-linecap="round" stroke-linejoin="round"/><polyline fill="none" points="168.02070564020323,-143.4260330872348 170.5207056402234,-144.09590606827902 172.35083265917987,-145.92603308718222 173.02070564029685,-148.4260330871829 172.35083265925263,-150.92603308720308 170.52070564034943,-152.75616010615954 168.02070564034875,-153.42603308727652 165.52070564032857,-152.7561601062323 163.69057862137208,-150.9260330873291 163.02070564025507,-148.42603308732842 163.6905786212993,-145.92603308730824 165.5207056402025,-144.09590606835175 168.02070564020318,-143.42603308723474" stroke="#ffa500" stroke-linecap="round" stroke-linejoin="round"/><polyline fill="none" points="217.3026869915782,-111.79827320326598 219.8026869915984,-112.46814618431019 221.63281401055488,-114.29827320321338 222.3026869916719,-116.79827320321407 221.63281401062767,-119.29827320323426 219.80268699172447,-121.12840022219073 217.3026869917238,-121.79827320330773 214.8026869917036,-121.12840022226352 212.97255997274712,-119.29827320336032 212.3026869916301,-116.79827320335964 212.97255997267433,-114.29827320333945 214.80268699157753,-112.46814618438297 217.3026869915782,-111.79827320326598" stroke="#ffa500" stroke-linecap="round" stroke-linejoin="round"/><polyline fill="none" points="-289.60935603990777,-22.617361840988814 -287.1093560398876,-23.28723482203302 -285.2792290209311,-25.117361840936212 -284.6093560398141,-27.617361840936898 -285.2792290208583,-30.117361840957088 -287.10935603976145,-31.947488859913566 -289.60935603976213,-32.617361841030565 -292.1093560397823,-31.947488859986358 -293.9394830587388,-30.117361841083166 -294.6093560398558,-27.617361841082477 -293.9394830588116,-25.117361841062284 -292.10935603990845,-23.287234822105802 -289.60935603990777,-22.6173618409888" stroke="#00f" stroke-linecap="round" stroke-linejoin="round"/><polyline fill="none" points="101.99054799713801,-192.20222725516538 104.4905479971582,-192.87210023620958 106.32067501611469,-194.70222725511277 106.9905479972317,-197.20222725511346 106.3206750161875,-199.70222725513366 104.49054799728431,-201.53235427409015 101.99054799728363,-202.20222725520716 99.49054799726343,-201.53235427416297 97.66042097830695,-199.70222725525977 96.99054799718994,-197.2022272552591 97.66042097823414,-194.70222725523888 99.49054799713733,-192.8721002362824 101.99054799713801,-192.20222725516538" stroke="#ffa500" stroke-linecap="round" stroke-linejoin="round"/><polyline fill="none" points="4.49570942183813,-80.66773076008728 6.995709421858326,-81.33760374113149 8.825836440814811,-83.16773076003467 9.495709421931817,-85.66773076003535 8.825836440887613,-88.16773076005555 6.995709421984424,-89.99785777901204 4.495709421983735,-90.66773076012905 1.995709421963538,-89.99785777908484 0.16558240300705185,-88.16773076018166 -0.5042905781099557,-85.66773076018097 0.16558240293424664,-83.16773076016078 1.9957094218374363,-81.33760374120429 4.495709421838125,-80.66773076008728" stroke="#ffa500" stroke-linecap="round" stroke-linejoin="round"/><polyline fill="none" points="119.30047021583448,123.27449012426237 121.80047021585467,122.60461714321816 123.63059723481116,120.77449012431498 124.30047021592817,118.27449012431428 123.63059723488396,115.77449012429409 121.80047021598078,113.9443631053376 119.30047021598008,113.27449012422059 116.80047021595989,113.9443631052648 114.9703431970034,115.77449012416798 114.30047021588639,118.27449012416868 114.97034319693059,120.77449012418887 116.80047021583377,122.60461714314536 119.30047021583447,123.27449012426237" stroke="#ffa500" stroke-linecap="round" stroke-linejoin="round"/><polyline fill="none" points="94.13816004643229,235.86778790965204 96.63816004645248,235.19791492860784 98.46828706540897,233.36778790970465 99.13816004652598,230.86778790970396 98.46828706548179,228.36778790968376 96.6381600465786,226.53766089072727 94.13816004657791,225.86778790961026 91.63816004655772,226.53766089065445 89.80803302760123,228.36778790955765 89.13816004648422,230.86778790955833 89.80803302752841,233.36778790957854 91.6381600464316,235.19791492853503 94.13816004643229,235.86778790965204" stroke="#ffa500" stroke-linecap="round" stroke-linejoin="round"/><polyline fill="none" points="-238.12968656946495,-120.66252592412907 -235.62968656944474,-121.33239890517326 -233.79955955048825,-123.16252592407645 -233.12968656937124,-125.66252592407714 -233.79955955041544,-128.16252592409734 -235.62968656931864,-129.99265294305383 -238.12968656931932,-130.66252592417084 -240.62968656933953,-129.99265294312664 -242.45981358829602,-128.16252592422344 -243.12968656941302,-125.66252592422275 -242.45981358836883,-123.16252592420254 -240.62968656946563,-121.33239890524605 -238.12968656946495,-120.66252592412904" stroke="#00f" stroke-linecap="round" stroke-linejoin="round"/><polyline fill="none" points="-242.23447926491767,89.64009156374873 -239.73447926489746,88.97021858270453 -237.90435224594097,87.14009156380135 -237.23447926482396,84.64009156380065 -237.90435224586815,82.14009156378044 -239.73447926477135,80.30996454482396 -242.23447926477203,79.64009156370693 -244.73447926479224,80.30996454475113 -246.56460628374873,82.14009156365431 -247.23447926486574,84.640091563655 -246.56460628382155,87.14009156367521 -244.73447926491835,88.97021858263172 -242.23447926491767,89.64009156374874" stroke="#00f" stroke-linecap="round" stroke-linejoin="round"/><polyline fill="none" points="142.93734187806353,135.82685087532357 145.43734187808374,135.15697789427938 147.26746889704023,133.32685087537618 147.93734187815724,130.8268508753755 147.26746889711305,128.3268508753553 145.43734187820985,126.49672385639879 142.93734187820917,125.82685087528176 140.43734187818896,126.49672385632596 138.60721485923247,128.32685087522916 137.93734187811546,130.82685087522984 138.60721485915965,133.32685087525005 140.43734187806285,135.15697789420653 142.93734187806353,135.82685087532354" stroke="#ffa500" stroke-linecap="round" stroke-linejoin="round"/><polyline fill="none" points="-296.92537476065485,5.916492221534707 -294.42537476063467,5.246619240490515 -292.5952477416782,3.416492221587331 -291.92537476056117,0.91649222158664 -292.59524774160536,-1.5835077784335656 -294.42537476050853,-3.413634797390065 -296.9253747605092,-4.083507778507087 -299.4253747605294,-3.4136347974628967 -301.2555017794859,-1.583507778559713 -301.9253747606029,0.9164922214409781 -301.2555017795587,3.4164922214611844 -299.42537476065553,5.246619240417685 -296.92537476065485,5.916492221534708" stroke="#ffa500" stroke-linecap="round" stroke-linejoin="round"/><polyline fill="none" points="-193.50201041918805,-116.9616214061306 -191.00201041916785,-117.6314943871748 -189.17188340021136,-119.46162140607798 -188.50201041909432,-121.96162140607868 -189.1718834001385,-124.46162140609889 -191.00201041904168,-126.29174842505539 -193.50201041904236,-126.96162140617241 -196.00201041906257,-126.29174842512822 -197.8321374380191,-124.46162140622504 -198.50201041913613,-121.96162140622434 -197.83213743809193,-119.46162140620413 -196.00201041918876,-117.63149438724763 -193.50201041918808,-116.9616214061306" stroke="#00f" stroke-linecap="round" stroke-linejoin="round"/><polyline fill="none" points="177.0653103527069,-83.32089997141128 179.5653103527271,-83.99077295245547 181.3954373716836,-85.82089997135866 182.06531035280065,-88.32089997135935 181.39543737175646,-90.82089997137956 179.5653103528533,-92.65102699033606 177.0653103528526,-93.32089997145309 174.5653103528324,-92.65102699040891 172.73518333387588,-90.82089997150572 172.06531035275884,-88.32089997150503 172.73518333380304,-85.82089997148482 174.5653103527062,-83.99077295252832 177.0653103527069,-83.3208999714113" stroke="#ffa500" stroke-linecap="round" stroke-linejoin="round"/><polyline fill="none" points="-31.039033261856993,19.693501015184086 -28.53903326183678,19.023628034139904 -26.708906242880275,17.193501015236723 -26.039033261763244,14.69350101523603 -26.708906242807426,12.19350101521582 -28.539033261710607,10.36337399625931 -31.0390332617113,9.69350101514228 -33.53903326173151,10.363373996186462 -35.36916028068802,12.193501015089643 -36.03903326180505,14.693501015090336 -35.369160280760866,17.19350101511055 -33.53903326185769,19.02362803406706 -31.039033261856996,19.69350101518409" stroke="#00f" stroke-linecap="round" stroke-linejoin="round"/><polyline fill="none" points="60.78408559177177,144.11906040907763 63.284085591791985,143.44918742803344 65.1142126107485,141.61906040913027 65.78408559186553,139.1190604091296 65.11421261082135,136.61906040910938 63.28408559191818,134.78893339015286 60.78408559191749,134.11906040903582 58.284085591897274,134.78893339008002 56.45395857294076,136.6190604089832 55.784085591823725,139.11906040898387 56.453958572867904,141.61906040900408 58.28408559177108,143.4491874279606 60.78408559177177,144.11906040907763" stroke="#ffa500" stroke-linecap="round" stroke-linejoin="round"/><polyline fill="none" points="-310.1004898379037,-143.3624910207899 -307.60048983788346,-144.03236400183408 -305.77036281892697,-145.86249102073725 -305.10048983780996,-148.36249102073793 -305.77036281885415,-150.86249102075814 -307.6004898377573,-152.69261803971466 -310.100489837758,-153.3624910208317 -312.60048983777824,-152.69261803978753 -314.43061685673473,-150.86249102088436 -315.10048983785174,-148.36249102088368 -314.43061685680755,-145.86249102086347 -312.6004898379044,-144.03236400190696 -310.1004898379037,-143.36249102078992" stroke="#ffa500" stroke-linecap="round" stroke-linejoin="round"/><polyline fill="none" points="-128.4762810132613,-113.00668894398912 -125.97628101324109,-113.6765619250333 -124.14615399428457,-115.50668894393648 -123.47628101316754,-118.00668894393718 -124.14615399421172,-120.5066889439574 -125.97628101311489,-122.33681596291392 -128.47628101311557,-123.00668894403096 -130.97628101313578,-122.33681596298678 -132.8064080320923,-120.5066889440836 -133.47628101320933,-118.00668894408291 -132.80640803216517,-115.50668894406269 -130.976281013262,-113.67656192510617 -128.4762810132613,-113.00668894398913" stroke="#ffa500" stroke-linecap="round" stroke-linejoin="round"/><polyline fill="none" points="-211.14433728987592,44.89585495005479 -208.6443372898557,44.22598196901062 -206.8142102708992,42.39585495010744 -206.14433728978216,39.89585495010675 -206.81421027082632,37.39585495008654 -208.6443372897295,35.56572793113002 -211.14433728973017,34.895854950012975 -213.64433728975038,35.56572793105715 -215.4744643087069,37.395854949960324 -216.14433728982394,39.89585494996101 -215.47446430877977,42.39585494998123 -213.6443372898766,44.225981968937745 -211.14433728987592,44.89585495005479" stroke="#ffa500" stroke-linecap="round" stroke-linejoin="round"/><polyline fill="none" points="35.48813070492221,110.86504213457613 37.988130704942435,110.19516915353195 39.81825772389895,108.36504213462878 40.488130705016,105.86504213462808 39.818257723971826,103.36504213460786 37.98813070506865,101.53491511565134 35.48813070506796,100.86504213453429 32.98813070504774,101.53491511557846 31.158003686091217,103.36504213448163 30.48813070497417,105.86504213448232 31.15800368601834,108.36504213450254 32.98813070492151,110.19516915345906 35.4881307049222,110.86504213457611" stroke="#00f" stroke-linecap="round" stroke-linejoin="round"/><polyline fill="none" points="20.824285311434835,215.7900929646888 23.324285311455057,215.12021998364463 25.15441233041158,213.29009296474146 25.82428531152863,210.79009296474078 25.154412330484462,208.29009296472057 23.32428531158129,206.45996594576405 20.824285311580596,205.79009296464702 18.324285311560374,206.45996594569118 16.49415829260385,208.29009296459435 15.8242853114868,210.79009296459503 16.49415829253097,213.29009296461524 18.324285311434142,215.12021998357176 20.824285311434835,215.7900929646888" stroke="#ffa500" stroke-linecap="round" stroke-linejoin="round"/><polyline fill="none" points="-138.66348725413704,-33.58909828176819 -136.16348725411683,-34.25897126281235 -134.3333602351603,-36.08909828171552 -133.66348725404328,-38.58909828171621 -134.33336023508744,-41.08909828173643 -136.1634872539906,-42.91922530069296 -138.6634872539913,-43.58909828181001 -141.1634872540115,-42.919225300765845 -142.99361427296802,-41.089098281862675 -143.66348725408506,-38.589098281861986 -142.9936142730409,-36.089098281841764 -141.16348725413772,-34.25897126288524 -138.66348725413704,-33.58909828176819" stroke="#00f" stroke-linecap="round" stroke-linejoin="round"/><polyline fill="none" points="-146.73414478640018,93.35470553287435 -144.23414478637994,92.68483255183018 -142.40401776742343,90.85470553292701 -141.73414478630636,88.35470553292632 -142.40401776735052,85.8547055329061 -144.2341447862537,84.02457851394956 -146.73414478625438,83.35470553283251 -149.2341447862746,84.02457851387668 -151.06427180523113,85.85470553277985 -151.7341447863482,88.35470553278054 -151.06427180530403,90.85470553280076 -149.23414478640086,92.6848325517573 -146.73414478640018,93.35470553287435" stroke="#ffa500" stroke-linecap="round" stroke-linejoin="round"/><polyline fill="none" points="6.898137354632088,8.340189069052908 9.398137354652313,7.670316088008746 11.228264373608843,5.840189069105578 11.898137354725899,3.3401890691048854 11.228264373681737,0.8401890690846612 9.39813735477857,-0.9899379498718697 6.898137354777877,-1.6598109309889266 4.398137354757652,-0.9899379499447652 2.5680103358011204,0.8401890689584025 1.8981373546840627,3.3401890689590954 2.5680103357282236,5.8401890689793206 4.398137354631391,7.670316087935852 6.898137354632084,8.34018906905291" stroke="#ffa500" stroke-linecap="round" stroke-linejoin="round"/><polyline fill="none" points="-251.90264538321173,-104.70014363655457 -249.4026453831915,-105.37001661759874 -247.57251836423495,-107.2001436365019 -246.90264538311789,-109.7001436365026 -247.57251836416205,-112.20014363652282 -249.40264538306522,-114.03027065547936 -251.9026453830659,-114.70014363659641 -254.40264538308614,-114.03027065555224 -256.23277240204266,-112.20014363664907 -256.9026453831597,-109.70014363664838 -256.2327724021156,-107.20014363662816 -254.40264538321242,-105.37001661767162 -251.90264538321173,-104.70014363655456" stroke="#008000" stroke-linecap="round" stroke-linejoin="round"/><polyline fill="none" points="-244.86033196730156,-108.40106636073065 -242.36033196728133,-109.07093934177482 -240.53020494832478,-110.90106636067799 -239.8603319672077,-113.40106636067868 -240.53020494825188,-115.9010663606989 -242.36033196715505,-117.73119337965544 -244.86033196715573,-118.4010663607725 -247.36033196717597,-117.73119337972835 -249.1904589861325,-115.90106636082518 -249.86033196724958,-113.40106636082449 -249.1904589862054,-110.90106636080426 -247.36033196730224,-109.07093934184773 -244.86033196730156,-108.40106636073067" stroke="#00f" stroke-linecap="round" stroke-linejoin="round"/><polyline fill="none" points="59.35561608701045,248.64329561159926 61.85561608703068,247.9734226305551 63.68574310598722,246.14329561165192 64.35561608710428,243.64329561165124 63.68574310606012,241.143295611631 61.85561608715696,239.31316859267446 59.35561608715627,238.6432956115574 56.85561608713604,239.31316859260156 55.0254890681795,241.14329561150473 54.35561608706244,243.6432956115054 55.02548906810659,246.14329561152564 56.85561608700975,247.9734226304822 59.35561608701044,248.64329561159926" stroke="#00f" stroke-linecap="round" stroke-linejoin="round"/><polyline fill="none" points="-234.975098268112,-19.70822593421531 -232.47509826809176,-20.378098915259464 -230.6449712491352,-22.208225934162627 -229.97509826801814,-24.70822593416332 -230.6449712490623,-27.20822593418355 -232.47509826796548,-29.03835295314009 -234.97509826796616,-29.708225934257158 -237.4750982679864,-29.038352953213007 -239.30522528694294,-27.208225934309844 -239.97509826806,-24.70822593430915 -239.30522528701584,-22.20822593428892 -237.47509826811267,-20.378098915332377 -234.975098268112,-19.708225934215307" stroke="#00f" stroke-linecap="round" stroke-linejoin="round"/><polyline fill="none" points="139.57399693700376,170.62045341120685 142.073996937024,169.9505804301627 143.90412395598054,168.12045341125952 144.5739969370976,165.62045341125884 143.90412395605347,163.1204534112386 142.0739969371503,161.29032639228205 139.57399693714962,160.620453411165 137.07399693712938,161.29032639220912 135.24386991817283,163.1204534111123 134.57399693705577,165.62045341111298 135.2438699180999,168.1204534111332 137.07399693700307,169.95058043008976 139.57399693700376,170.62045341120682" stroke="#ffa500" stroke-linecap="round" stroke-linejoin="round"/><polyline fill="none" points="-190.49287626623763,-62.43142946471404 -187.9928762662174,-63.10130244575819 -186.16274924726085,-64.93142946466135 -185.49287626614378,-67.43142946466205 -186.16274924718792,-69.93142946468228 -187.9928762660911,-71.76155648363883 -190.49287626609177,-72.43142946475591 -192.992876266112,-71.76155648371176 -194.82300328506855,-69.9314294648086 -195.49287626618562,-67.4314294648079 -194.82300328514148,-64.93142946478767 -192.9928762662383,-63.101302445831124 -190.49287626623763,-62.43142946471405" stroke="#ffa500" stroke-linecap="round" stroke-linejoin="round"/><polyline fill="none" points="104.564282772035,-91.94975946820831 107.06428277205524,-92.61963244925246 108.89440979101178,-94.44975946815562 109.56428277212886,-96.94975946815632 108.89440979108471,-99.44975946817655 107.06428277218156,-101.2798864871331 104.56428277218086,-101.94975946825018 102.06428277216062,-101.27988648720603 100.23415575320408,-99.44975946830287 99.564282772087,-96.94975946830218 100.23415575313115,-94.44975946828194 102.0642827720343,-92.6196324493254 104.564282772035,-91.94975946820831" stroke="#ffa500" stroke-linecap="round" stroke-linejoin="round"/><polyline fill="none" points="-206.63833085714285,110.89093591767185 -204.1383308571226,110.22106293662772 -202.30820383816607,108.39093591772456 -201.638330857049,105.89093591772387 -202.30820383809314,103.39093591770363 -204.1383308569963,101.56080889874708 -206.638330856997,100.89093591763 -209.13833085701722,101.56080889867414 -210.96845787597377,103.3909359175773 -211.63833085709084,105.89093591757799 -210.9684578760467,108.39093591759823 -209.13833085714353,110.22106293655477 -206.63833085714285,110.89093591767185" stroke="#ffa500" stroke-linecap="round" stroke-linejoin="round"/><polyline fill="none" points="56.71038704310151,-63.220385163557 59.21038704312175,-63.89025814460114 61.0405140620783,-65.7203851635043 61.71038704319538,-68.220385163505 61.04051406215124,-70.72038516352524 59.21038704324808,-72.5505121824818 56.71038704324739,-73.22038516359888 54.21038704322715,-72.55051218255474 52.3802600242706,-70.72038516365159 51.71038704315352,-68.22038516365089 52.38026002419765,-65.72038516363065 54.21038704310081,-63.8902581446741 56.710387043101505,-63.22038516355702" stroke="#ffa500" stroke-linecap="round" stroke-linejoin="round"/><polyline fill="none" points="-300.3507721117334,-72.52672564674852 -297.8507721117132,-73.19659862779265 -296.02064509275664,-75.02672564669581 -295.35077211163957,-77.5267256466965 -296.0206450926837,-80.02672564671674 -297.8507721115869,-81.8568526656733 -300.35077211158756,-82.52672564679038 -302.8507721116078,-81.85685266574625 -304.68089913056434,-80.02672564684309 -305.3507721116814,-77.5267256468424 -304.6808991306373,-75.02672564682216 -302.8507721117341,-73.1965986278656 -300.3507721117334,-72.52672564674852" stroke="#008000" stroke-linecap="round" stroke-linejoin="round"/><polyline fill="none" points="-161.21871035677697,68.55746569695606 -158.71871035675673,67.88759271591192 -156.88858333780018,66.05746569700877 -156.2187103566831,63.55746569700807 -156.88858333772723,61.057465696987826 -158.71871035663037,59.227338678031266 -161.21871035663105,58.55746569691418 -163.7187103566513,59.227338677958315 -165.54883737560783,61.05746569686147 -166.21871035672493,63.55746569686217 -165.5488373756808,66.0574656968824 -163.71871035677765,67.88759271583896 -161.21871035677697,68.55746569695606" stroke="#00f" stroke-linecap="round" stroke-linejoin="round"/><polyline fill="none" points="-128.23692291760278,-29.61044533945818 -125.73692291758255,-30.280318320502314 -123.90679589862599,-32.110445339405466 -123.23692291750889,-34.61044533940616 -123.90679589855303,-37.110445339426406 -125.73692291745618,-38.940572358382965 -128.23692291745687,-39.61044533950005 -130.7369229174771,-38.940572358455924 -132.56704993643368,-37.11044533955277 -133.23692291755077,-34.61044533955207 -132.56704993650663,-32.11044533953183 -130.7369229176035,-30.280318320575265 -128.2369229176028,-29.610445339458174" stroke="#ffa500" stroke-linecap="round" stroke-linejoin="round"/><polyline fill="none" points="97.72229014994892,154.18994974698302 100.22229014996917,153.52007676593888 102.05241716892573,151.68994974703574 102.72229015004282,149.18994974703506 102.05241716899869,146.68994974701482 100.22229015009553,144.85982272805825 97.72229015009484,144.18994974694115 95.22229015007458,144.8598227279853 93.39216313111802,146.68994974688843 92.72229015000093,149.1899497468891 93.39216313104507,151.68994974690935 95.22229014994822,153.52007676586592 97.72229014994892,154.18994974698302" stroke="#00f" stroke-linecap="round" stroke-linejoin="round"/><polyline fill="none" points="-390.9596146048138,-51.07924680966894 -388.45961460479356,-51.74911979071307 -386.629487585837,-53.579246809616215 -385.9596146047199,-56.07924680961691 -386.629487585764,-58.579246809637155 -388.4596146046672,-60.40937382859372 -390.9596146046679,-61.07924680971082 -393.4596146046881,-60.40937382866669 -395.28974162364466,-58.57924680976354 -395.9596146047618,-56.07924680976284 -395.28974162371765,-53.57924680974259 -393.4596146048145,-51.749119790786025 -390.9596146048138,-51.07924680966892" stroke="#ffa500" stroke-linecap="round" stroke-linejoin="round"/><polyline fill="none" points="-220.6051248427935,94.29403883413012 -218.10512484277325,93.624165853086 -216.27499782381668,91.79403883418284 -215.60512484269958,89.29403883418215 -216.27499782374372,86.7940388341619 -218.10512484264686,84.96391181520532 -220.60512484264754,84.29403883408823 -223.10512484266778,84.96391181513235 -224.93525186162435,86.79403883403549 -225.60512484274145,89.29403883403619 -224.9352518616973,91.79403883405644 -223.10512484279417,93.62416585301301 -220.6051248427935,94.2940388341301" stroke="#ffa500" stroke-linecap="round" stroke-linejoin="round"/><polyline fill="none" points="-280.4707047328618,89.66674564674157 -277.97070473284157,88.99687266569745 -276.140577713885,87.16674564679431 -275.4707047327679,84.66674564679361 -276.14057771381204,82.16674564677336 -277.9707047327152,80.33661862781679 -280.4707047327159,79.66674564669968 -282.9707047327361,80.3366186277438 -284.80083175169267,82.16674564664694 -285.4707047328098,84.66674564664764 -284.80083175176566,87.16674564666789 -282.9707047328625,88.99687266562447 -280.4707047328618,89.66674564674157" stroke="#ffa500" stroke-linecap="round" stroke-linejoin="round"/><polyline fill="none" points="-240.76052860610707,-97.6325620488151 -238.26052860608684,-98.30243502985923 -236.43040158713026,-100.13256204876237 -235.76052860601317,-102.63256204876306 -236.43040158705728,-105.13256204878331 -238.26052860596042,-106.96268906773989 -240.7605286059611,-107.632562048857 -243.26052860598136,-106.96268906781287 -245.09065562493794,-105.13256204890973 -245.76052860605503,-102.63256204890904 -245.09065562501092,-100.13256204888879 -243.26052860610778,-98.30243502993221 -240.7605286061071,-97.6325620488151" stroke="#008000" stroke-linecap="round" stroke-linejoin="round"/><polyline fill="none" points="-345.6952258013967,-71.9019225809529 -343.19522580137647,-72.57179556199702 -341.36509878241986,-74.40192258090016 -340.69522580130274,-76.90192258090086 -341.3650987823469,-79.40192258092111 -343.19522580125005,-81.23204959987768 -345.69522580125073,-81.90192258099479 -348.19522580127096,-81.23204959995067 -350.02535282022757,-79.40192258104753 -350.6952258013447,-76.90192258104683 -350.02535282030055,-74.40192258102658 -348.1952258013974,-72.57179556207001 -345.6952258013967,-71.9019225809529" stroke="#ffa500" stroke-linecap="round" stroke-linejoin="round"/><polyline fill="none" points="-261.7394388589384,-108.93639132722892 -259.23943885891816,-109.60626430827304 -257.40931183996156,-111.43639132717618 -256.73943885884444,-113.93639132717688 -257.4093118398886,-116.43639132719713 -259.23943885879174,-118.2665183461537 -261.7394388587924,-118.93639132727081 -264.23943885881266,-118.2665183462267 -266.06956587776926,-116.43639132732356 -266.7394388588864,-113.93639132732287 -266.06956587784225,-111.43639132730262 -264.2394388589391,-109.60626430834603 -261.7394388589384,-108.93639132722892" stroke="#00f" stroke-linecap="round" stroke-linejoin="round"/><polyline fill="none" points="40.3996336826431,-150.0526301634944 42.89963368266336,-150.7225031445385 44.72976070161994,-152.55263016344165 45.399633682737054,-155.05263016344233 44.72976070169294,-157.5526301634626 42.8996336827898,-159.38275718241917 40.3996336827891,-160.0526301635363 37.899633682768844,-159.38275718249218 36.06950666381226,-157.55263016358904 35.399633682695146,-155.05263016358833 36.06950666373926,-152.55263016356807 37.8996336826424,-150.7225031446115 40.3996336826431,-150.05263016349437" stroke="#00f" stroke-linecap="round" stroke-linejoin="round"/><polyline fill="none" points="-339.0590224304119,-48.427141052358664 -336.5590224303917,-49.09701403340278 -334.7288954114351,-50.92714105230592 -334.05902243031795,-53.42714105230662 -334.7288954113621,-55.927141052326874 -336.5590224302652,-57.75726807128346 -339.0590224302659,-58.42714105240058 -341.5590224302861,-57.75726807135647 -343.3891494492427,-55.92714105245333 -344.05902243035985,-53.42714105245263 -343.3891494493157,-50.927141052432376 -341.5590224304126,-49.09701403347579 -339.0590224304119,-48.42714105235867" stroke="#00f" stroke-linecap="round" stroke-linejoin="round"/><polyline fill="none" points="52.55131704507293,111.58552416744321 55.051317045093185,110.9156511863991 56.881444064049774,109.08552416749596 57.5513170451669,106.58552416749527 56.88144406412279,104.085524167475 55.05131704521965,102.25539714851841 52.55131704521895,101.58552416740129 50.051317045198694,102.2553971484454 48.221190026242105,104.08552416734854 47.55131704512498,106.58552416734923 48.22119002616909,109.0855241673695 50.05131704507223,110.91565118632609 52.55131704507293,111.58552416744321" stroke="#ffa500" stroke-linecap="round" stroke-linejoin="round"/><polyline fill="none" points="-268.5409919745193,6.672915617244907 -266.04099197449904,6.0030426362008 -264.21086495554243,4.172915617297662 -263.5409919744253,1.6729156172969648 -264.2108649554694,-0.8270843827232968 -266.0409919743725,-2.6572114016798873 -268.5409919743732,-3.327084382797011 -271.0409919743934,-2.657211401752906 -272.87111899335,-0.8270843828497678 -273.54099197446715,1.672915617150929 -272.87111899342307,4.172915617171191 -271.04099197451995,6.003042636127783 -268.5409919745193,6.672915617244908" stroke="#008000" stroke-linecap="round" stroke-linejoin="round"/><polyline fill="none" points="23.902468535388074,37.605809072542385 26.40246853540834,36.93593609149828 28.23259555436493,35.10580907259514 28.902468535482058,32.60580907259445 28.232595554437953,30.105809072574182 26.402468535534815,28.27568205361759 23.90246853553412,27.605809072500463 21.402468535513854,28.275682053544568 19.57234151655726,30.105809072447705 18.902468535440132,32.6058090724484 19.572341516484233,35.105809072468666 21.40246853538737,36.93593609142526 23.902468535388067,37.60580907254239" stroke="#ffa500" stroke-linecap="round" stroke-linejoin="round"/><polyline fill="none" points="58.080670263512424,-227.03569028634777 60.58067026353269,-227.70556326739188 62.410797282489284,-229.53569028629502 63.080670263606414,-232.03569028629573 62.410797282562314,-234.535690286316 60.58067026365918,-236.3658173052726 58.08067026365848,-237.03569028638972 55.58067026363822,-236.36581730534562 53.75054324468162,-234.53569028644247 53.08067026356449,-232.03569028644176 53.75054324460859,-229.5356902864215 55.58067026351173,-227.7055632674649 58.080670263512424,-227.03569028634777" stroke="#ffa500" stroke-linecap="round" stroke-linejoin="round"/><polyline fill="none" points="27.115610694879386,252.82952096736886 29.61561069489965,252.15964798632476 31.44573771385625,250.32952096742162 32.115610694973384,247.8295209674209 31.445737713929283,245.32952096740064 29.61561069502615,243.49939394844404 27.115610695025453,242.8295209673269 24.615610695005188,243.49939394837102 22.78548367604859,245.32952096727416 22.115610694931455,247.82952096727487 22.785483675975552,250.32952096729514 24.615610694878686,252.15964798625174 27.115610694879383,252.82952096736886" stroke="#ffa500" stroke-linecap="round" stroke-linejoin="round"/><polyline fill="none" points="226.75815699144806,-147.50382965668723 229.25815699146833,-148.17370263773134 231.08828401042493,-150.00382965663448 231.75815699154205,-152.5038296566352 231.08828401049794,-155.00382965665545 229.2581569915948,-156.83395667561206 226.7581569915941,-157.50382965672918 224.25815699157383,-156.83395667568507 222.42802997261722,-155.00382965678193 221.7581569915001,-152.50382965678122 222.4280299725442,-150.00382965676096 224.25815699144735,-148.17370263780435 226.75815699144806,-147.50382965668723" stroke="#ffa500" stroke-linecap="round" stroke-linejoin="round"/><polyline fill="none" points="47.83378150915782,-143.52652734357716 50.33378150917808,-144.19640032462127 52.163908528134684,-146.0265273435244 52.83378150925182,-148.52652734352512 52.16390852820773,-151.02652734354538 50.33378150930459,-152.85665436250198 47.8337815093039,-153.5265273436191 45.333781509283625,-152.85665436257503 43.50365449032702,-151.0265273436719 42.833781509209885,-148.52652734367118 43.50365449025398,-146.0265273436509 45.333781509157106,-144.1964003246943 47.8337815091578,-143.52652734357716" stroke="#ffa500" stroke-linecap="round" stroke-linejoin="round"/><polyline fill="none" points="26.23143698920036,-107.49543041490779 28.73143698922063,-108.16530339595188 30.561564008177236,-109.99543041485501 31.231436989294377,-112.4954304148557 30.561564008250286,-114.99543041487597 28.731436989347156,-116.82555743383257 26.23143698934646,-117.49543041494971 23.731436989326188,-116.82555743390562 21.90130997036958,-114.99543041500249 21.23143698925244,-112.49543041500179 21.90130997029653,-109.99543041498153 23.73143698919966,-108.16530339602492 26.231436989200358,-107.49543041490779" stroke="#00f" stroke-linecap="round" stroke-linejoin="round"/><polyline fill="none" points="171.4847763037698,-127.46286433056036 173.98477630379006,-128.13273731160444 175.81490332274666,-129.96286433050759 176.4847763038638,-132.4628643305083 175.81490332281973,-134.96286433052856 173.9847763039166,-136.79299134948516 171.48477630391588,-137.46286433060232 168.98477630389561,-136.79299134955824 167.154649284939,-134.9628643306551 166.48477630382186,-132.46286433065438 167.15464928486594,-129.96286433063412 168.98477630376908,-128.13273731167752 171.4847763037698,-127.46286433056038" stroke="#00f" stroke-linecap="round" stroke-linejoin="round"/><polyline fill="none" points="-372.6547455645126,-44.086700897030916 -370.1547455644923,-44.756573878075 -368.3246185455357,-46.58670089697813 -367.6547455644186,-49.086700896978826 -368.32461854546267,-51.5867008969991 -370.1547455643658,-53.41682791595571 -372.65474556436646,-54.08670089707285 -375.15474556438676,-53.416827916028765 -376.98487258334336,-51.58670089712564 -377.6547455644605,-49.08670089712494 -376.9848725834164,-46.58670089710467 -375.1547455645133,-44.75657387814806 -372.6547455645126,-44.086700897030916" stroke="#00f" stroke-linecap="round" stroke-linejoin="round"/><polyline fill="none" points="100.45129092011217,-117.29436329316354 102.95129092013245,-117.96423627420762 104.78141793908907,-119.79436329311075 105.45129092020622,-122.29436329311145 104.78141793916214,-124.79436329313172 102.95129092025901,-126.62449031208834 100.45129092025832,-127.29436329320549 97.95129092023804,-126.62449031216141 96.12116390128142,-124.79436329325829 95.45129092016427,-122.29436329325759 96.12116390120835,-119.79436329323731 97.95129092011148,-117.9642362742807 100.45129092011217,-117.29436329316354" stroke="#00f" stroke-linecap="round" stroke-linejoin="round"/><polyline fill="none" points="-310.1056391833642,-128.01014907830472 -307.6056391833439,-128.6800220593488 -305.7755121643873,-130.5101490782519 -305.10563918327017,-133.01014907825262 -305.77551216431425,-135.5101490782729 -307.60563918321736,-137.3402760972295 -310.10563918321805,-138.01014907834664 -312.60563918323834,-137.34027609730256 -314.43576620219494,-135.51014907839945 -315.1056391833121,-133.01014907839874 -314.43576620226804,-130.51014907837848 -312.60563918336493,-128.68002205942184 -310.10563918336425,-128.0101490783047" stroke="#ffa500" stroke-linecap="round" stroke-linejoin="round"/><polyline fill="none" points="-271.180087608071,126.34651147357691 -268.6800876080507,125.67663849253283 -266.8499605890941,123.8465114736297 -266.18008760797693,121.34651147362901 -266.849960589021,118.84651147360873 -268.6800876079241,117.01638445465211 -271.1800876079248,116.34651147353496 -273.6800876079451,117.01638445457904 -275.5102146269017,118.84651147348217 -276.1800876080189,121.34651147348286 -275.5102146269748,123.84651147350314 -273.6800876080717,125.67663849245976 -271.180087608071,126.34651147357691" stroke="#ffa500" stroke-linecap="round" stroke-linejoin="round"/><polyline fill="none" points="-224.35863402681406,13.46924249282199 -221.85863402679377,12.799369511777915 -220.02850700783713,10.969242492874793 -219.35863402671998,8.469242492874097 -220.02850700776406,5.969242492853818 -221.85863402666718,4.1391154738971965 -224.3586340266679,3.469242492780038 -226.85863402668818,4.139115473824114 -228.6887610456448,5.9692424927272345 -229.35863402676196,8.46924249272793 -228.68876104571788,10.969242492748212 -226.85863402681477,12.799369511704834 -224.35863402681406,13.469242492821994" stroke="#00f" stroke-linecap="round" stroke-linejoin="round"/><polyline fill="none" points="-287.67088359824015,-56.20903905476612 -285.17088359821986,-56.878912035810195 -283.34075657926326,-58.709039054713315 -282.6708835981461,-61.20903905471401 -283.34075657919016,-63.70903905473429 -285.17088359809327,-65.53916607369091 -287.67088359809395,-66.20903905480807 -290.17088359811424,-65.539166073764 -292.00101061707085,-63.709039054860874 -292.670883598188,-61.20903905486018 -292.00101061714395,-58.7090390548399 -290.17088359824083,-56.878912035883275 -287.67088359824015,-56.20903905476611" stroke="#008000" stroke-linecap="round" stroke-linejoin="round"/><polyline fill="none" points="164.70257859258965,-99.68366936177716 167.20257859260994,-100.35354234282123 169.03270561156657,-102.18366936172434 169.70257859268372,-104.68366936172504 169.03270561163964,-107.18366936174532 167.20257859273653,-109.01379638070195 164.70257859273582,-109.68366936181911 162.20257859271553,-109.01379638077505 160.3724515737589,-107.18366936187194 159.70257859264174,-104.68366936187124 160.37245157368582,-102.18366936185096 162.20257859258894,-100.35354234289433 164.70257859258965,-99.68366936177716" stroke="#ffa500" stroke-linecap="round" stroke-linejoin="round"/><polyline fill="none" points="78.5449913681039,-201.57482390010938 81.04499136812417,-202.24469688115346 82.8751183870808,-204.07482390005657 83.54499136819797,-206.57482390005728 82.8751183871539,-209.07482390007758 81.04499136825079,-210.9049509190342 78.5449913682501,-211.5748239001514 76.04499136822982,-210.9049509191073 74.21486434927318,-209.0748239002042 73.54499136815602,-206.57482390020348 74.21486434920008,-204.0748239001832 76.0449913681032,-202.24469688122656 78.5449913681039,-201.57482390010938" stroke="#ffa500" stroke-linecap="round" stroke-linejoin="round"/><polyline fill="none" points="-299.9699709339949,-94.60982742162611 -297.4699709339746,-95.27970040267017 -295.639843915018,-97.10982742157329 -294.9699709339008,-99.60982742157398 -295.6398439149449,-102.10982742159426 -297.469970933848,-103.93995444055089 -299.9699709338487,-104.60982742166806 -302.469970933869,-103.93995444062399 -304.30009795282564,-102.10982742172088 -304.9699709339428,-99.60982742172018 -304.30009795289874,-97.1098274216999 -302.4699709339956,-95.27970040274327 -299.96997093399494,-94.60982742162611" stroke="#00f" stroke-linecap="round" stroke-linejoin="round"/><polyline fill="none" points="80.26844696354169,-145.50868440758381 82.76844696356198,-146.17855738862787 84.59857398251862,-148.00868440753098 85.26844696363578,-150.5086844075317 84.59857398259172,-153.00868440755198 82.7684469636886,-154.8388114265086 80.26844696368791,-155.5086844076258 77.76844696366761,-154.83881142658174 75.93831994471098,-153.00868440767863 75.2684469635938,-150.50868440767792 75.93831994463787,-148.00868440765763 77.76844696354098,-146.178557388701 80.26844696354168,-145.50868440758381" stroke="#00f" stroke-linecap="round" stroke-linejoin="round"/><polyline fill="none" points="56.51294512708838,-96.3782403564095 59.012945127108665,-97.04811333745357 60.8430721460653,-98.87824035635668 61.512945127182476,-101.37824035635738 60.84307214613842,-103.87824035637767 59.012945127235305,-105.7083673753343 56.51294512723461,-106.37824035645149 54.01294512721432,-105.70836737540742 52.182818108257685,-103.8782403565043 51.51294512714051,-101.37824035650361 52.18281810818457,-98.87824035648332 54.01294512708768,-97.04811333752669 56.51294512708838,-96.3782403564095" stroke="#ffa500" stroke-linecap="round" stroke-linejoin="round"/><polyline fill="none" points="-246.91330979868465,104.95688845815975 -244.41330979866436,104.28701547711569 -242.58318277970773,102.45688845821257 -241.91330979859055,99.95688845821188 -242.5831827796346,97.45688845819159 -244.4133097985377,95.62676143923494 -246.91330979853842,94.95688845811776 -249.4133097985587,95.62676143916183 -251.24343681751535,97.45688845806494 -251.91330979863253,99.95688845806563 -251.24343681758847,102.45688845808593 -249.41330979868536,104.28701547704257 -246.91330979868465,104.95688845815975" stroke="#ffa500" stroke-linecap="round" stroke-linejoin="round"/><polyline fill="none" points="-306.88152608871474,-68.1332086503143 -304.38152608869444,-68.80308163135835 -302.5513990697378,-70.63320865026147 -301.8815260886206,-73.13320865026216 -302.5513990696647,-75.63320865028246 -304.3815260885678,-77.4633356692391 -306.8815260885685,-78.13320865035628 -309.38152608858877,-77.46333566931223 -311.21165310754543,-75.63320865040912 -311.8815260886626,-73.13320865040842 -311.21165310761853,-70.63320865038813 -309.3815260887154,-68.80308163143148 -306.88152608871474,-68.1332086503143" stroke="#008000" stroke-linecap="round" stroke-linejoin="round"/><polyline fill="none" points="-200.73020535594097,-33.24435505474559 -198.23020535592067,-33.91422803578965 -196.40007833696404,-35.74435505469276 -195.73020535584686,-38.24435505469346 -196.4000783368909,-40.74435505471375 -198.23020535579403,-42.574482073670396 -200.73020535579474,-43.244355054787576 -203.23020535581503,-42.574482073743525 -205.06033237477166,-40.74435505484042 -205.73020535588884,-38.24435505483972 -205.0603323748448,-35.74435505481943 -203.23020535594168,-33.914228035862784 -200.73020535594097,-33.2443550547456" stroke="#ffa500" stroke-linecap="round" stroke-linejoin="round"/><polyline fill="none" points="-219.62631300621004,-88.64315564611958 -217.12631300618975,-89.31302862716363 -215.29618598723312,-91.14315564606675 -214.62631300611594,-93.64315564606744 -215.29618598716,-96.14315564608773 -217.1263130060631,-97.97328266504438 -219.6263130060638,-98.64315564616156 -222.1263130060841,-97.97328266511751 -223.95644002504076,-96.1431556462144 -224.62631300615794,-93.6431556462137 -223.9564400251139,-91.1431556461934 -222.12631300621078,-89.31302862723676 -219.62631300621007,-88.64315564611957" stroke="#ffa500" stroke-linecap="round" stroke-linejoin="round"/><polyline fill="none" points="-259.93112552069556,-99.81612818449015 -257.43112552067527,-100.4860011655342 -255.6009985017186,-102.31612818443732 -254.93112552060143,-104.81612818443801 -255.60099850164548,-107.31612818445831 -257.43112552054856,-109.14625520341495 -259.93112552054924,-109.81612818453215 -262.43112552056954,-109.1462552034881 -264.2612525395262,-107.31612818458498 -264.9311255206434,-104.81612818458429 -264.26125253959935,-102.316128184564 -262.43112552069624,-100.48600116560735 -259.93112552069556,-99.81612818449015" stroke="#00f" stroke-linecap="round" stroke-linejoin="round"/><polyline fill="none" points="54.75566037912917,231.93692893176865 57.25566037914947,231.2670559507246 59.08578739810612,229.43692893182148 59.755660379223315,226.93692893182077 59.08578739817927,224.43692893180048 57.255660379276165,222.60680191284382 54.75566037927547,221.93692893172664 52.25566037925517,222.6068019127707 50.425533360298516,224.4369289316738 49.75566037918132,226.93692893167452 50.425533360225366,229.4369289316948 52.25566037912847,231.26705595065147 54.75566037912917,231.93692893176865" stroke="#ffa500" stroke-linecap="round" stroke-linejoin="round"/><polyline fill="none" points="-222.03931798698795,8.953569019764654 -219.53931798696766,8.283696038720608 -217.709190968011,6.453569019817504 -217.0393179868938,3.953569019816805 -217.70919096793784,1.4535690197965057 -219.53931798684096,-0.37655799916014887 -222.03931798684167,-1.046430980277345 -224.53931798686196,-0.37655799923330113 -226.36944500581862,1.4535690196698026 -227.03931798693583,3.9535690196705016 -226.36944500589178,6.453569019690802 -224.53931798698866,8.283696038647458 -222.03931798698795,8.953569019764654" stroke="#ffa500" stroke-linecap="round" stroke-linejoin="round"/></svg>