<?xml version="1.0" ?><!DOCTYPE svg  PUBLIC '-//W3C//DTD SVG 1.1//EN'  'http://www.w3.org/Graphics/SVG/1.1/DTD/svg11.dtd'><svg height="530.000" viewBox="-408.000 -247.000 650.000 530.000" width="650.000" xmlns="http://www.w3.org/2000/svg"><line fill="none" stroke="none" stroke-linecap="round" stroke-width="2.0" x1="0.0" x2="0.0" y1="0.0" y2="0.0"/><polygon fill="none" fill-rule="evenodd" points="0.0,0.0 0.0,0.0 0.0,0.0" stroke-linejoin="round"/><polyline fill="none" points="-3.2272213996575227,119.64198203158368 -0.7272213996369006,118.97210905054015 1.1029056193202933,117.14198203163734 1.7727786004381008,114.64198203163662 1.1029056193945768,112.141982031616 -0.7272213995082377,110.3118550126588 -3.227221399508956,109.64198203154099 -5.727221399529578,110.31185501258452 -7.557348418486773,112.14198203148733 -8.227221399604582,114.64198203148806 -7.55734841856106,117.14198203150868 -5.727221399658246,118.97210905046587 -3.227221399657528,119.64198203158368" stroke="#ffa500" stroke-linecap="round" stroke-linejoin="round"/><polyline fill="none" points="-27.52920146880477,51.09860722445989 -25.029201468784148,50.428734243416365 -23.199074449826952,48.59860722451355 -22.52920146870914,46.09860722451283 -23.19907444975266,43.598607224492206 -25.029201468655476,41.768480205535006 -27.529201468656193,41.098607224417194 -30.029201468676817,41.76848020546071 -31.859328487634013,43.598607224363526 -32.52920146875182,46.098607224364244 -31.859328487708304,48.59860722438487 -30.029201468805493,50.42873424334207 -27.529201468804775,51.09860722445988" stroke="#ffa500" stroke-linecap="round" stroke-linejoin="round"/><polyline fill="none" points="128.37239421003162,-98.84399428650705 130.87239421005225,-99.51386726755058 132.70252122900945,-101.3439942864534 133.37239421012725,-103.84399428645412 132.70252122908374,-106.34399428647474 130.87239421018094,-108.17412130543194 128.37239421018023,-108.84399428654976 125.87239421015961,-108.17412130550625 124.04226719120241,-106.34399428660343 123.3723942100846,-103.84399428660271 124.0422671911281,-101.34399428658209 125.87239421003092,-99.51386726762489 128.37239421003164,-98.84399428650707" stroke="#ffa500" stroke-linecap="round" stroke-linejoin="round"/><polyline fill="none" points="-199.17427868446043,-137.35357031908504 -196.6742786844398,-138.02344330012855 -194.8441516654826,-139.85357031903135 -194.1742786843648,-142.35357031903206 -194.8441516654083,-144.8535703190527 -196.6742786843111,-146.6836973380099 -199.17427868431182,-147.3535703191277 -201.67427868433245,-146.6836973380842 -203.50440570328965,-144.8535703191814 -204.17427868440745,-142.35357031918068 -203.50440570336394,-139.85357031916004 -201.67427868446114,-138.02344330020284 -199.17427868446043,-137.35357031908504" stroke="#ffa500" stroke-linecap="round" stroke-linejoin="round"/><polyline fill="none" points="-228.8691809663798,-53.57093121049424 -226.36918096635915,-54.240804191537755 -224.53905394740195,-56.07093121044056 -223.86918096628415,-58.57093121044128 -224.53905394732766,-61.07093121046191 -226.36918096623046,-62.901058229419114 -228.86918096623117,-63.57093121053693 -231.3691809662518,-62.90105822949342 -233.199307985209,-61.070931210590615 -233.86918096632684,-58.5709312105899 -233.19930798528333,-56.07093121056927 -231.36918096638053,-54.240804191612064 -228.86918096637982,-53.570931210494244" stroke="#00f" stroke-linecap="round" stroke-linejoin="round"/><polyline fill="none" points="-373.77426095128067,-58.36201032861202 -371.27426095126003,-59.031883309655534 -369.4441339323028,-60.86201032855834 -368.774260951185,-63.36201032855906 -369.4441339322285,-65.86201032857969 -371.27426095113134,-67.6921373475369 -373.7742609511321,-68.36201032865472 -376.2742609511527,-67.69213734761121 -378.10438797010994,-65.8620103287084 -378.77426095122775,-63.362010328707676 -378.10438797018423,-60.86201032868704 -376.2742609512814,-59.031883309729835 -373.77426095128067,-58.36201032861201" stroke="#00f" stroke-linecap="round" stroke-linejoin="round"/><polyline fill="none" points="149.52423177721155,-100.99111269659528 152.0242317772322,-101.66098567763879 153.8543587961894,-103.4911126965416 154.52423177730722,-105.99111269654233 153.8543587962637,-108.49111269656296 152.0242317773609,-110.32123971552018 149.5242317773602,-110.991112696638 147.02423177733957,-110.32123971559449 145.19410475838237,-108.49111269669169 144.52423177726453,-105.99111269669096 145.19410475830804,-103.49111269667033 147.02423177721084,-101.66098567771311 149.52423177721155,-100.99111269659528" stroke="#ffa500" stroke-linecap="round" stroke-linejoin="round"/><polyline fill="none" points="104.83493390785154,-217.74124005009153 107.33493390787217,-218.41111303113505 109.16506092682938,-220.24124005003785 109.83493390794722,-222.74124005003856 109.1650609269037,-225.2412400500592 107.3349339080009,-227.0713670690164 104.83493390800018,-227.74124005013422 102.33493390797955,-227.0713670690907 100.50480688902233,-225.2412400501879 99.8349339079045,-222.7412400501872 100.50480688894801,-220.24124005016657 102.33493390785081,-218.41111303120934 104.83493390785154,-217.7412400500915" stroke="#ffa500" stroke-linecap="round" stroke-linejoin="round"/><polyline fill="none" points="-381.65031725139227,-58.459277050961056 -379.15031725137163,-59.12915003200456 -377.3201902324144,-60.95927705090737 -376.6503172512966,-63.459277050908085 -377.3201902323401,-65.95927705092872 -379.15031725124294,-67.78940406988593 -381.6503172512437,-68.45927705100377 -384.1503172512643,-67.78940406996026 -385.98044427022154,-65.95927705105746 -386.65031725133935,-63.45927705105673 -385.98044427029583,-60.959277051036096 -384.150317251393,-59.129150032078876 -381.65031725139227,-58.45927705096104" stroke="#00f" stroke-linecap="round" stroke-linejoin="round"/><polyline fill="none" points="-260.3393769593884,53.163851811485856 -257.83937695936777,52.49397883044235 -256.00924994041054,50.663851811539544 -255.3393769592927,48.16385181153883 -256.0092499403362,45.663851811518185 -257.839376959239,43.833724792560965 -260.33937695923976,43.16385181144313 -262.8393769592604,43.833724792486635 -264.6695039782176,45.663851811389435 -265.3393769593355,48.16385181139015 -264.66950397829197,50.663851811410794 -262.83937695938914,52.493978830368015 -260.3393769593884,53.16385181148585" stroke="#00f" stroke-linecap="round" stroke-linejoin="round"/><polyline fill="none" points="98.84537404846448,174.05493075410303 101.34537404848511,173.38505777305951 103.17550106744233,171.55493075415671 103.84537404856016,169.054930754156 103.17550106751666,166.55493075413537 101.34537404861386,164.72480373517814 98.84537404861314,164.0549307540603 96.3453740485925,164.72480373510382 94.51524702963528,166.55493075400662 93.84537404851744,169.05493075400733 94.51524702956094,171.55493075402796 96.34537404846374,173.3850577729852 98.84537404846446,174.05493075410303" stroke="#ffa500" stroke-linecap="round" stroke-linejoin="round"/><polyline fill="none" points="87.75936745366835,95.6315267729085 90.25936745368898,94.961653791865 92.08949447264621,93.1315267729622 92.75936745376404,90.63152677296148 92.08949447272055,88.13152677294084 90.25936745381775,86.30139975398362 87.75936745381702,85.63152677286578 85.25936745379639,86.30139975390928 83.42924043483916,88.13152677281208 82.75936745372132,90.6315267728128 83.42924043476482,93.13152677283344 85.25936745366762,94.96165379179067 87.75936745366835,95.6315267729085" stroke="#ffa500" stroke-linecap="round" stroke-linejoin="round"/><polyline fill="none" points="122.44229277504579,-174.36325867077514 124.94229277506643,-175.03313165181862 126.77241979402366,-176.86325867072142 127.44229277514151,-179.36325867072213 126.77241979409801,-181.86325867074277 124.94229277519521,-183.6933856897 122.44229277519449,-184.36325867081783 119.94229277517385,-183.69338568977435 118.11216575621663,-181.86325867087155 117.44229277509878,-179.36325867087083 118.11216575614228,-176.8632586708502 119.94229277504508,-175.03313165189297 122.4422927750458,-174.36325867077514" stroke="#ffa500" stroke-linecap="round" stroke-linejoin="round"/><polyline fill="none" points="-148.23615732260524,-119.94070654762831 -145.7361573225846,-120.6105795286718 -143.90603030362738,-122.4407065475746 -143.23615732250954,-124.94070654757533 -143.90603030355302,-127.44070654759598 -145.73615732245582,-129.2708335665532 -148.23615732245653,-129.94070654767103 -150.73615732247717,-129.27083356662754 -152.5662843414344,-127.44070654772474 -153.23615732255223,-124.94070654772402 -152.56628434150875,-122.44070654770337 -150.73615732260595,-120.61057952874614 -148.23615732260524,-119.9407065476283" stroke="#00f" stroke-linecap="round" stroke-linejoin="round"/><polyline fill="none" points="38.291799439158765,270.6543593042138 40.79179943917941,269.9844863231703 42.621926458136635,268.15435930426753 43.29179943925448,265.6543593042668 42.62192645821099,263.15435930424616 40.79179943930819,261.32423228528893 38.291799439307475,260.65435930417107 35.791799439286834,261.3242322852146 33.961672420329606,263.15435930411735 33.29179943921176,265.6543593041181 33.96167242025525,268.1543593041387 35.79179943915804,269.98448632309595 38.29179943915876,270.6543593042138" stroke="#ffa500" stroke-linecap="round" stroke-linejoin="round"/><polyline fill="none" points="25.4947760241583,-149.61725576806714 27.994776024178943,-150.28712874911062 29.824903043136175,-152.11725576801342 30.494776024254026,-154.61725576801413 29.824903043210536,-157.11725576803477 27.99477602430774,-158.947382786992 25.49477602430702,-159.61725576810986 22.994776024286374,-158.94738278706637 21.164649005329142,-157.11725576816357 20.49477602421129,-154.61725576816286 21.164649005254777,-152.11725576814223 22.99477602415757,-150.287128749185 25.49477602415829,-149.61725576806714" stroke="#ffa500" stroke-linecap="round" stroke-linejoin="round"/><polyline fill="none" points="-275.1632083566882,-88.18267323338117 -272.66320835666755,-88.85254621442465 -270.8330813377103,-90.68267323332745 -270.16320835659246,-93.18267323332817 -270.833081337636,-95.68267323334882 -272.66320835653875,-97.51280025230606 -275.1632083565395,-98.18267323342391 -277.6632083565601,-97.51280025238043 -279.49333537551735,-95.68267323347763 -280.1632083566352,-93.1826732334769 -279.4933353755917,-90.68267323345626 -277.6632083566889,-88.85254621449901 -275.1632083566882,-88.18267323338117" stroke="#008000" stroke-linecap="round" stroke-linejoin="round"/><polyline fill="none" points="16.173101006584826,-5.401487987251443 18.673101006605474,-6.071360968294926 20.503228025562713,-7.901487987197719 21.173101006680568,-10.40148798719844 20.503228025637085,-12.901487987219088 18.673101006734292,-14.731615006176327 16.17310100673357,-15.401487987294184 13.673101006712923,-14.731615006250701 11.842973987755684,-12.90148798734791 11.173101006637827,-10.401487987347188 11.84297398768131,-7.901487987326538 13.673101006584101,-6.0713609683693 16.173101006584822,-5.401487987251442" stroke="#ffa500" stroke-linecap="round" stroke-linejoin="round"/><polyline fill="none" points="-325.7348637950276,-107.99508374298628 -323.23486379500696,-108.66495672402976 -321.40473677604973,-110.49508374293255 -320.73486379493187,-112.99508374293328 -321.4047367759753,-115.49508374295392 -323.2348637948781,-117.32521076191117 -325.73486379487883,-117.99508374302903 -328.23486379489947,-117.32521076198555 -330.0649908138567,-115.49508374308276 -330.73486379497456,-112.99508374308203 -330.0649908139311,-110.49508374306139 -328.23486379502833,-108.66495672410414 -325.7348637950276,-107.99508374298628" stroke="#00f" stroke-linecap="round" stroke-linejoin="round"/><polyline fill="none" points="73.40047198994624,-207.18853303388232 75.90047198996689,-207.8584060149258 77.73059900892413,-209.6885330338286 78.40047199004199,-212.18853303382932 77.73059900899851,-214.68853303384998 75.90047199009572,-216.51866005280723 73.400471990095,-217.1885330339251 70.90047199007435,-216.51866005288161 69.07034497111711,-214.6885330339788 68.40047198999925,-212.1885330339781 69.07034497104273,-209.68853303395744 70.90047198994552,-207.85840601500018 73.40047198994624,-207.18853303388232" stroke="#00f" stroke-linecap="round" stroke-linejoin="round"/><polyline fill="none" points="74.9409252475193,-65.4636401160181 77.44092524753995,-66.13351309706158 79.2710522664972,-67.96364011596437 79.94092524761506,-70.46364011596509 79.27105226657157,-72.96364011598574 77.44092524766879,-74.79376713494298 74.94092524766806,-75.46364011606084 72.44092524764741,-74.79376713501736 70.61079822869017,-72.96364011611458 69.94092524757231,-70.46364011611385 70.61079822861578,-67.9636401160932 72.44092524751856,-66.13351309713596 74.94092524751929,-65.4636401160181" stroke="#ffa500" stroke-linecap="round" stroke-linejoin="round"/><polyline fill="none" points="-164.53782183707904,27.29467137542705 -162.03782183705837,26.624798394383575 -160.20769481810112,24.794671375480785 -159.53782183698326,22.294671375480064 -160.20769481802674,19.79467137545941 -162.03782183692954,17.96454435650216 -164.53782183693025,17.29467137538429 -167.0378218369509,17.964544356427762 -168.86794885590817,19.79467137533055 -169.53782183702603,22.294671375331273 -168.86794885598255,24.79467137535193 -167.03782183707975,26.624798394309177 -164.53782183707904,27.294671375427047" stroke="#ffa500" stroke-linecap="round" stroke-linejoin="round"/><polyline fill="none" points="103.24870484809625,-163.43583251900347 105.74870484811692,-164.10570550004695 107.57883186707417,-165.93583251894975 108.24870484819205,-168.43583251895046 107.57883186714858,-170.93583251897113 105.7487048482458,-172.76595953792838 103.24870484824507,-173.43583251904624 100.7487048482244,-172.76595953800276 98.91857782926715,-170.93583251909996 98.24870484814927,-168.43583251909925 98.91857782919274,-165.9358325190786 100.74870484809553,-164.10570550012133 103.24870484809625,-163.43583251900347" stroke="#ffa500" stroke-linecap="round" stroke-linejoin="round"/><polyline fill="none" points="-185.35104765210312,64.48502254734089 -182.85104765208246,63.81514956629742 -181.0209206331252,61.985022547394635 -180.35104765200734,59.48502254739391 -181.02092063305082,56.985022547373255 -182.8510476519536,55.154895528416006 -185.3510476519543,54.48502254729813 -187.85104765197497,55.1548955283416 -189.68117467093222,56.985022547244384 -190.35104765205008,59.48502254724511 -189.6811746710066,61.98502254726577 -187.85104765210383,63.81514956622303 -185.35104765210312,64.4850225473409" stroke="#00f" stroke-linecap="round" stroke-linejoin="round"/><polyline fill="none" points="141.70473354201332,-112.18381082874394 144.20473354203398,-112.85368380978741 146.03486056099123,-114.6838108286902 146.7047335421091,-117.18381082869092 146.03486056106564,-119.68381082871159 144.20473354216287,-121.51393784766884 141.70473354216216,-122.18381082878672 139.2047335421415,-121.51393784774325 137.37460652318424,-119.68381082884046 136.70473354206638,-117.18381082883974 137.37460652310983,-114.68381082881908 139.2047335420126,-112.85368380986182 141.70473354201332,-112.18381082874394" stroke="#00f" stroke-linecap="round" stroke-linejoin="round"/><polyline fill="none" points="193.4835113796308,-133.93517637634721 195.98351137965147,-134.60504935739067 197.81363839860873,-136.43517637629344 198.48351137972662,-138.93517637629415 197.81363839868317,-141.4351763763148 195.9835113797804,-143.26530339527207 193.48351137977969,-143.93517637638996 190.98351137975902,-143.2653033953465 189.15338436080177,-141.43517637644374 188.48351137968388,-138.93517637644302 189.15338436072733,-136.43517637642236 190.9835113796301,-134.6050493574651 193.4835113796308,-133.93517637634721" stroke="#00f" stroke-linecap="round" stroke-linejoin="round"/><polyline fill="none" points="71.91465682426579,91.33097814057913 74.41465682428645,90.66110515953567 76.24478384324371,88.83097814063288 76.91465682436159,86.33097814063215 76.24478384331812,83.83097814061149 74.41465682441533,82.00085112165424 71.9146568244146,81.33097814053636 69.41465682439394,82.00085112157983 67.58452980543669,83.83097814048261 66.91465682431881,86.33097814048334 67.58452980536228,88.830978140504 69.41465682426507,90.66110515946126 71.91465682426579,91.33097814057913" stroke="#ffa500" stroke-linecap="round" stroke-linejoin="round"/><polyline fill="none" points="45.10343132125907,33.77767094912424 47.603431321279736,33.10779796808078 49.433558340237,31.277670949178 50.10343132135488,28.777670949177278 49.43355834031142,26.277670949156615 47.60343132140864,24.447543930199352 45.10343132140792,23.777670949081468 42.603431321387255,24.44754393012493 40.77330430242999,26.27767094902771 40.10343132131211,28.77767094902843 40.77330430235557,31.277670949049096 42.60343132125835,33.10779796800636 45.10343132125907,33.77767094912424" stroke="#ffa500" stroke-linecap="round" stroke-linejoin="round"/><polyline fill="none" points="-103.86327436222491,-112.12120726725556 -101.36327436220425,-112.79108024829901 -99.53314734324698,-114.6212072672018 -98.86327436212909,-117.12120726720252 -99.53314734317254,-119.62120726722318 -101.36327436207533,-121.45133428618045 -103.86327436207606,-122.12120726729835 -106.36327436209672,-121.45133428625489 -108.19340138105399,-119.6212072673521 -108.86327436217188,-117.12120726735138 -108.19340138112842,-114.62120726733072 -106.36327436222565,-112.79108024837345 -103.86327436222493,-112.12120726725556" stroke="#ffa500" stroke-linecap="round" stroke-linejoin="round"/><polyline fill="none" points="-191.36736395340392,21.14125529637856 -188.86736395338326,20.471382315335102 -187.037236934426,18.641255296432323 -186.36736395330811,16.141255296431602 -187.03723693435157,13.641255296410936 -188.86736395325434,11.811128277453669 -191.36736395325505,11.14125529633578 -193.8673639532757,11.811128277379236 -195.69749097223297,13.641255296282015 -196.36736395335086,16.141255296282736 -195.6974909723074,18.641255296303406 -193.86736395340463,20.471382315260673 -191.36736395340392,21.141255296378564" stroke="#ffa500" stroke-linecap="round" stroke-linejoin="round"/><polyline fill="none" points="-303.6392921896552,11.918672653817822 -301.1392921896345,11.248799672774368 -299.3091651706772,9.41867265387159 -298.6392921895593,6.918672653870868 -299.30916517060274,4.418672653850199 -301.1392921895055,2.588545634892929 -303.63929218950625,1.9186726537750372 -306.13929218952694,2.588545634818491 -307.9694192084842,4.418672653721268 -308.63929218960214,6.918672653721992 -307.9694192085587,9.41867265374266 -306.1392921896559,11.248799672699931 -303.6392921896552,11.918672653817826" stroke="#ffa500" stroke-linecap="round" stroke-linejoin="round"/><polyline fill="none" points="-61.46119011744719,-140.89290975750305 -58.96119011742652,-141.5627827385465 -57.13106309846925,-143.39290975744927 -56.46119011735135,-145.89290975744998 -57.131063098394804,-148.39290975747065 -58.96119011729758,-150.22303677642793 -61.46119011729831,-150.89290975754582 -63.96119011731898,-150.22303677650237 -65.79131713627625,-148.3929097575996 -66.46119011739414,-145.8929097575989 -65.79131713635068,-143.39290975757822 -63.96119011744791,-141.56278273862094 -61.46119011744719,-140.89290975750305" stroke="#00f" stroke-linecap="round" stroke-linejoin="round"/><polyline fill="none" points="-361.9960220375975,-42.77486251925649 -359.49602203757684,-43.444735500299934 -357.66589501861955,-45.274862519202706 -356.99602203750163,-47.77486251920343 -357.6658950185451,-50.2748625192241 -359.49602203744786,-52.10498953818138 -361.9960220374486,-52.774862519299276 -364.4960220374693,-52.10498953825583 -366.3261490564266,-50.27486251935306 -366.9960220375445,-47.77486251935233 -366.32614905650104,-45.274862519331656 -364.49602203759827,-43.44473550037438 -361.9960220375975,-42.77486251925648" stroke="#ffa500" stroke-linecap="round" stroke-linejoin="round"/><polyline fill="none" points="-195.28270043955158,102.71052325492289 -192.7827004395309,102.04065027387944 -190.95257342057363,100.21052325497666 -190.28270043945574,97.71052325497594 -190.9525734204992,95.21052325495526 -192.78270043940196,93.38039623599798 -195.28270043940267,92.71052325488007 -197.78270043942334,93.38039623592351 -199.61282745838062,95.21052325482628 -200.2827004394985,97.71052325482701 -199.61282745845506,100.21052325484769 -197.7827004395523,102.04065027380497 -195.28270043955155,102.71052325492288" stroke="#ffa500" stroke-linecap="round" stroke-linejoin="round"/><polyline fill="none" points="137.83346967431422,192.4853260017348 140.33346967433488,191.81545302069134 142.16359669329216,189.98532600178856 142.83346967441005,187.48532600178783 142.1635966933666,184.98532600176716 140.33346967446383,183.15519898280988 137.83346967446312,182.485326001692 135.33346967444245,183.15519898273544 133.50334265548517,184.9853260016382 132.83346967436728,187.48532600163892 133.50334265541073,189.9853260016596 135.3334696743135,191.81545302061687 137.83346967431422,192.4853260017348" stroke="#ffa500" stroke-linecap="round" stroke-linejoin="round"/><polyline fill="none" points="-294.75746086107563,-77.06921442648044 -292.25746086105494,-77.73908740752388 -290.42733384209765,-79.56921442642665 -289.75746086097973,-82.06921442642738 -290.4273338420232,-84.56921442644806 -292.25746086092596,-86.39934144540534 -294.7574608609267,-87.06921442652325 -297.2574608609474,-86.3993414454798 -299.0875878799047,-84.56921442657703 -299.7574608610226,-82.06921442657631 -299.08758787997914,-79.56921442655563 -297.25746086107637,-77.73908740759835 -294.75746086107563,-77.06921442648044" stroke="#f00" stroke-linecap="round" stroke-linejoin="round"/><polyline fill="none" points="43.13755076071445,-133.7055495088937 45.637550760735124,-134.37542248993716 47.46767777969241,-136.20554950883994 48.13755076081032,-138.70554950884065 47.46767777976688,-141.20554950886134 45.63755076086411,-143.03567652781862 43.137550760863384,-143.70554950893654 40.63755076084271,-143.03567652789312 38.80742374188542,-141.20554950899034 38.13755076076751,-138.70554950898963 38.80742374181095,-136.20554950896894 40.63755076071372,-134.37542249001166 43.13755076071445,-133.70554950889374" stroke="#ffa500" stroke-linecap="round" stroke-linejoin="round"/><polyline fill="none" points="170.02741565500642,-139.76537428099127 172.5274156550271,-140.4352472620347 174.3575426739844,-142.26537428093746 175.02741565510232,-144.7653742809382 174.3575426740589,-147.2653742809589 172.52741565515612,-149.09550129991618 170.02741565515538,-149.7653742810341 167.5274156551347,-149.09550129999067 165.6972886361774,-147.2653742810879 165.02741565505949,-144.7653742810872 165.6972886361029,-142.2653742810665 167.52741565500568,-140.43524726210921 170.0274156550064,-139.7653742809913" stroke="#ffa500" stroke-linecap="round" stroke-linejoin="round"/><polyline fill="none" points="216.99127338168842,-116.14472917353159 219.4912733817091,-116.81460215457503 221.3214004006664,-118.6447291734778 221.9912733817843,-121.14472917347852 221.32140040074088,-123.6447291734992 219.4912733818381,-125.47485619245649 216.9912733818374,-126.1447291735744 214.4912733818167,-125.47485619253096 212.66114636285943,-123.64472917362819 211.9912733817415,-121.14472917362747 212.66114636278493,-118.64472917360679 214.4912733816877,-116.8146021546495 216.99127338168842,-116.14472917353159" stroke="#ffa500" stroke-linecap="round" stroke-linejoin="round"/><polyline fill="none" points="-294.06769811209415,-27.07903032735758 -291.56769811207346,-27.74890330840101 -289.7375710931162,-29.579030327303776 -289.06769811199825,-32.0790303273045 -289.7375710930417,-34.579030327325185 -291.5676981119445,-36.40915734628248 -294.0676981119452,-37.079030327400396 -296.5676981119659,-36.40915734635696 -298.3978251309232,-34.5790303274542 -299.0676981120411,-32.079030327453474 -298.39782513099766,-29.57903032743279 -296.5676981120949,-27.748903308475494 -294.06769811209415,-27.079030327357575" stroke="#00f" stroke-linecap="round" stroke-linejoin="round"/><polyline fill="none" points="100.39567565013603,-195.77219212232578 102.89567565015672,-196.4420651033692 104.72580266911402,-198.27219212227197 105.39567565023194,-200.7721921222727 104.72580266918851,-203.2721921222934 102.89567565028575,-205.1023191412507 100.39567565028503,-205.7721921223686 97.89567565026434,-205.10231914132518 96.06554863130704,-203.2721921224224 95.39567565018912,-200.7721921224217 96.06554863123255,-198.272192122401 97.8956756501353,-196.44206510344372 100.39567565013603,-195.7721921223258" stroke="#ffa500" stroke-linecap="round" stroke-linejoin="round"/><polyline fill="none" points="9.602135237912572,-85.91103191207144 12.102135237933258,-86.58090489311486 13.932262256890555,-88.41103191201762 14.602135238008477,-90.91103191201834 13.93226225696505,-93.41103191203904 12.102135238062287,-95.24115893099633 9.602135238061562,-95.91103191211425 7.102135238040876,-95.24115893107083 5.272008219083578,-93.41103191216807 4.602135237965654,-90.91103191216735 5.27200821900908,-88.41103191214665 7.102135237911842,-86.58090489318936 9.602135237912567,-85.91103191207144" stroke="#ffa500" stroke-linecap="round" stroke-linejoin="round"/><polyline fill="none" points="118.61971820800899,128.65159011664414 121.11971820802968,127.98171713560072 122.94984522698698,126.15159011669796 123.6197182081049,123.65159011669724 122.94984522706147,121.15159011667654 121.11971820815872,119.32146309771925 118.61971820815799,118.65159011660131 116.1197182081373,119.32146309764474 114.28959118918,121.1515901165475 113.61971820806207,123.65159011654822 114.2895911891055,126.15159011656891 116.11971820800825,127.98171713552621 118.61971820800898,128.65159011664414" stroke="#ffa500" stroke-linecap="round" stroke-linejoin="round"/><polyline fill="none" points="91.91866166645146,239.2156753870078 94.41866166647215,238.54580240596437 96.24878868542945,236.7156753870616 96.91866166654738,234.21567538706086 96.24878868550395,231.71567538704016 94.4186616666012,229.88554836808285 91.91866166660047,229.21567538696493 89.41866166657978,229.88554836800836 87.58853464762248,231.71567538691113 86.91866166650455,234.21567538691187 87.58853464754797,236.71567538693256 89.41866166645073,238.54580240588987 91.91866166645146,239.2156753870078" stroke="#ffa500" stroke-linecap="round" stroke-linejoin="round"/><polyline fill="none" points="-242.95462636578284,-119.40148706842241 -240.45462636576215,-120.07136004946584 -238.62449934680484,-121.9014870683686 -237.95462636568692,-124.40148706836932 -238.62449934673035,-126.90148706839001 -240.45462636563312,-128.7316140873473 -242.95462636563386,-129.40148706846523 -245.45462636565455,-128.7316140874218 -247.28475338461186,-126.90148706851905 -247.95462636572978,-124.40148706851832 -247.28475338468635,-121.90148706849763 -245.45462636578358,-120.07136004954032 -242.95462636578284,-119.40148706842238" stroke="#00f" stroke-linecap="round" stroke-linejoin="round"/><polyline fill="none" points="-246.4276537648839,86.88467525210368 -243.9276537648632,86.21480227106026 -242.0975267459059,84.3846752521575 -241.42765376478795,81.88467525215678 -242.09752674583137,79.38467525213609 -243.92765376473412,77.55454823317878 -246.42765376473486,76.88467525206084 -248.92765376475555,77.55454823310426 -250.75778078371286,79.38467525200701 -251.4276537648308,81.88467525200774 -250.75778078378738,84.38467525202843 -248.92765376488464,86.21480227098574 -246.4276537648839,86.88467525210368" stroke="#00f" stroke-linecap="round" stroke-linejoin="round"/><polyline fill="none" points="139.01049765063038,139.48011358695223 141.51049765065108,138.8102406059088 143.3406246696084,136.98011358700606 144.01049765072634,134.48011358700532 143.3406246696829,131.98011358698463 141.51049765078017,130.14998656802732 139.01049765077943,129.48011358690937 136.51049765075874,130.1499865679528 134.68037063180142,131.98011358685554 134.01049765068348,134.48011358685628 134.6803706317269,136.98011358687697 136.51049765062965,138.81024060583428 139.01049765063038,139.48011358695223" stroke="#ffa500" stroke-linecap="round" stroke-linejoin="round"/><polyline fill="none" points="-301.10654228900296,-5.349999788896472 -298.60654228898227,-6.0198727699398855 -296.776415270025,-7.849999788842641 -296.10654228890706,-10.349999788843368 -296.77641526995046,-12.849999788864064 -298.60654228885323,-14.680126807821377 -301.106542288854,-15.349999788939318 -303.60654228887466,-14.680126807895906 -305.436669307832,-12.849999788993152 -306.1065422889499,-10.349999788992426 -305.4366693079065,-7.849999788971729 -303.60654228900376,-6.019872770014414 -301.106542289003,-5.349999788896472" stroke="#ffa500" stroke-linecap="round" stroke-linejoin="round"/><polyline fill="none" points="-198.993744215238,-115.74694896367072 -196.4937442152173,-116.41682194471413 -194.66361719626,-118.24694896361689 -193.99374421514204,-120.74694896361761 -194.66361719618544,-123.2469489636383 -196.49374421508819,-125.07707598259562 -198.99374421508892,-125.74694896371356 -201.49374421510961,-125.07707598267015 -203.32387123406693,-123.2469489637674 -203.99374421518488,-120.74694896376667 -203.32387123414148,-118.24694896374598 -201.49374421523873,-116.41682194478867 -198.993744215238,-115.74694896367072" stroke="#00f" stroke-linecap="round" stroke-linejoin="round"/><polyline fill="none" points="174.87273407071004,-88.50399032547595 177.37273407073073,-89.17386330651937 179.20286108968804,-91.00399032542212 179.872734070806,-93.50399032542285 179.2028610897626,-96.00399032544354 177.37273407085985,-97.83411734440085 174.8727340708591,-98.5039903255188 172.37273407083842,-97.83411734447539 170.5426070518811,-96.00399032557263 169.87273407076316,-93.5039903255719 170.54260705180656,-91.0039903255512 172.3727340707093,-89.17386330659389 174.87273407071004,-88.50399032547594" stroke="#ffa500" stroke-linecap="round" stroke-linejoin="round"/><polyline fill="none" points="-36.12043343039994,18.63892423288063 -33.620433430379244,17.969051251837225 -31.790306411421923,16.138924232934475 -31.120433430303976,13.638924232933748 -31.79030641134738,11.138924232913048 -33.62043343025013,9.308797213955726 -36.120433430250856,8.638924232837777 -38.620433430271554,9.308797213881181 -40.450560449228874,11.138924232783932 -41.12043343034682,13.638924232784658 -40.45056044930342,16.13892423280536 -38.62043343040067,17.969051251762682 -36.12043343039994,18.638924232880633" stroke="#00f" stroke-linecap="round" stroke-linejoin="round"/><polyline fill="none" points="59.56892491382475,140.61666823902976 62.06892491384546,139.94679525798637 63.899051932802784,138.11666823908362 64.56892491392074,135.61666823908288 63.899051932877335,133.1166682390622 62.068924913974584,131.28654122010488 59.56892491397386,130.61666823898693 57.068924913953154,131.28654122003033 55.23879789499583,133.11666823893307 54.56892491387787,135.6166682389338 55.23879789492128,138.1166682389545 57.06892491382403,139.94679525791182 59.56892491382475,140.61666823902976" stroke="#ffa500" stroke-linecap="round" stroke-linejoin="round"/><polyline fill="none" points="-314.62257895070104,-139.59192274073956 -312.12257895068035,-140.26179572178296 -310.292451931723,-142.0919227406857 -309.62257895060503,-144.59192274068644 -310.29245193164843,-147.09192274070713 -312.1225789505512,-148.92204975966445 -314.62257895055194,-149.5919227407824 -317.12257895057263,-148.922049759739 -318.95270596953,-147.09192274083625 -319.62257895064795,-144.5919227408355 -318.95270596960455,-142.09192274081482 -317.1225789507018,-140.26179572185748 -314.62257895070104,-139.59192274073953" stroke="#ffa500" stroke-linecap="round" stroke-linejoin="round"/><polyline fill="none" points="-133.12590673494745,-115.08677467257363 -130.62590673492676,-115.75664765361702 -128.79577971596942,-117.58677467251977 -128.12590673485147,-120.08677467252049 -128.79577971589487,-122.5867746725412 -130.6259067347976,-124.41690169149852 -133.12590673479835,-125.08677467261649 -135.62590673481907,-124.41690169157309 -137.4560337537764,-122.58677467267034 -138.12590673489436,-120.08677467266962 -137.45603375385096,-117.58677467264891 -135.62590673494822,-115.75664765369159 -133.12590673494748,-115.08677467257363" stroke="#ffa500" stroke-linecap="round" stroke-linejoin="round"/><polyline fill="none" points="-222.1939833327233,40.28245978458246 -219.69398333270257,39.61258680353906 -217.86385631374523,37.782459784636316 -217.19398333262728,35.28245978463559 -217.86385631367068,32.782459784614886 -219.69398333257342,30.952332765657555 -222.19398333257416,30.282459784539594 -224.69398333259488,30.952332765582987 -226.52411035155222,32.78245978448573 -227.1939833326702,35.282459784486456 -226.5241103516268,37.78245978450716 -224.69398333272406,39.612586803464495 -222.19398333272332,40.28245978458246" stroke="#ffa500" stroke-linecap="round" stroke-linejoin="round"/><polyline fill="none" points="34.70925723813223,111.2180888477107 37.20925723815294,110.5482158666673 39.03938425711027,108.71808884776456 39.70925723822823,106.21808884776384 39.03938425718484,103.71808884774313 37.2092572382821,101.8879618287858 34.709257238281374,101.21808884766784 32.20925723826067,101.88796182871124 30.379130219303335,103.71808884761398 29.70925723818537,106.21808884761471 30.37913021922876,108.71808884763541 32.2092572381315,110.54821586659276 34.709257238132224,111.21808884771072" stroke="#00f" stroke-linecap="round" stroke-linejoin="round"/><polyline fill="none" points="28.673107382965274,221.89528480447612 31.173107382985982,221.22541182343272 33.00323440194332,219.39528480452998 33.673107383061286,216.89528480452924 33.003234402017895,214.39528480450852 31.173107383115152,212.56515778555118 28.673107383114424,211.8952848044332 26.173107383093715,212.5651577854766 24.342980364136377,214.39528480437934 23.673107383018408,216.89528480438008 24.3429803640618,219.3952848044008 26.17310738296454,221.22541182335814 28.67310738296527,221.89528480447612" stroke="#ffa500" stroke-linecap="round" stroke-linejoin="round"/><polyline fill="none" points="-145.4106739408329,-36.232385125699004 -142.9106739408122,-36.902258106742394 -141.08054692185485,-38.73238512564514 -140.41067394073687,-41.23238512564586 -141.08054692178027,-43.732385125666575 -142.910673940683,-45.562512144623916 -145.41067394068375,-46.232385125741885 -147.91067394070447,-45.562512144698495 -149.7408009596618,-43.73238512579575 -150.4106739407798,-41.23238512579503 -149.7408009597364,-38.732385125774314 -147.91067394083365,-36.90225810681697 -145.4106739408329,-36.232385125699004" stroke="#00f" stroke-linecap="round" stroke-linejoin="round"/><polyline fill="none" points="-151.29219534870012,90.64933446764263 -148.7921953486794,89.97946148659925 -146.96206832972206,88.1493344676965 -146.29219534860408,85.64933446769578 -146.96206832964748,83.14933446767506 -148.79219534855022,81.31920744871772 -151.29219534855096,80.64933446759974 -153.79219534857168,81.31920744864313 -155.62232236752902,83.14933446754587 -156.292195348647,85.6493344675466 -155.6223223676036,88.14933446756731 -153.79219534870086,89.97946148652466 -151.29219534870012,90.64933446764263" stroke="#ffa500" stroke-linecap="round" stroke-linejoin="round"/><polyline fill="none" points="3.462934395898434,10.609334026356008 5.962934395919148,9.939461045312624 7.793061414876492,8.109334026409886 8.462934395994468,5.60933402640916 7.793061414951086,3.109334026388446 5.962934396048348,1.2792070074311017 3.462934396047621,0.6093340263131253 0.9629343960269066,1.2792070073565072 -0.8671926229304383,3.1093340262592446 -1.5370656040484154,5.609334026259971 -0.8671926230050341,8.109334026280685 0.9629343958977031,9.93946104523803 3.46293439589843,10.609334026356008" stroke="#ffa500" stroke-linecap="round" stroke-linejoin="round"/><polyline fill="none" points="-252.55775032690326,-103.6138980168131 -250.05775032688254,-104.28377099785648 -248.2276233079252,-106.11389801675922 -247.55775032680722,-108.61389801675995 -248.2276233078506,-111.11389801678067 -250.05775032675334,-112.94402503573801 -252.55775032675407,-113.61389801685598 -255.0577503267748,-112.9440250358126 -256.88787734573214,-111.11389801690987 -257.5577503268501,-108.61389801690915 -256.8878773458067,-106.11389801688843 -255.05775032690397,-104.28377099793107 -252.55775032690323,-103.6138980168131" stroke="#008000" stroke-linecap="round" stroke-linejoin="round"/><polyline fill="none" points="-249.23719632388034,-107.17098708938487 -246.73719632385962,-107.84086007042825 -244.90706930490228,-109.67098708933098 -244.2371963237843,-112.1709870893317 -244.90706930482767,-114.67098708935242 -246.73719632373042,-116.50111410830978 -249.23719632373115,-117.17098708942777 -251.73719632375187,-116.50111410838439 -253.56732334270922,-114.67098708948166 -254.2371963238272,-112.17098708948093 -253.56732334278382,-109.67098708946021 -251.73719632388108,-107.84086007050286 -249.23719632388034,-107.17098708938487" stroke="#00f" stroke-linecap="round" stroke-linejoin="round"/><polyline fill="none" points="62.405241355314146,251.139617691028 64.90524135533487,250.46974470998464 66.73536837429222,248.6396176910819 67.40524135541021,246.13961769108116 66.73536837436684,243.63961769106044 64.90524135546411,241.8094906721031 62.40524135546339,241.13961769098512 59.90524135544267,241.8094906720285 58.07511433648531,243.63961769093123 57.40524135536732,246.13961769093197 58.0751143364107,248.6396176909527 59.90524135531343,250.46974470991003 62.40524135531415,251.139617691028" stroke="#00f" stroke-linecap="round" stroke-linejoin="round"/><polyline fill="none" points="-241.54095876298638,-23.738811525676272 -239.04095876296566,-24.408684506719645 -237.21083174400832,-26.238811525622378 -236.54095876289034,-28.738811525623106 -237.2108317439337,-31.238811525643825 -239.04095876283645,-33.06893854460118 -241.5409587628372,-33.73881152571917 -244.0409587628579,-33.0689385446758 -245.87108578181528,-31.23881152577307 -246.54095876293326,-28.73881152577234 -245.8710857818899,-26.238811525751622 -244.04095876298715,-24.408684506794266 -241.5409587629864,-23.738811525676276" stroke="#00f" stroke-linecap="round" stroke-linejoin="round"/><polyline fill="none" points="136.1090466522651,169.4954508727714 138.60904665228583,168.82557789172805 140.4391736712432,166.9954508728253 141.1090466523612,164.49545087282456 140.43917367131783,161.99545087280384 138.6090466524151,160.16532385384647 136.10904665241435,159.49545087272847 133.60904665239363,160.16532385377184 131.77891963343626,161.99545087267458 131.10904665231826,164.49545087267532 131.77891963336162,166.99545087269604 133.60904665226437,168.8255778916534 136.1090466522651,169.4954508727714" stroke="#ffa500" stroke-linecap="round" stroke-linejoin="round"/><polyline fill="none" points="-197.80306156999492,-62.15521231794392 -195.3030615699742,-62.82508529898729 -193.47293455101683,-64.65521231789002 -192.80306156989883,-67.15521231789074 -193.4729345509422,-69.65521231791146 -195.3030615698449,-71.48533933686882 -197.80306156984565,-72.15521231798681 -200.30306156986637,-71.48533933694344 -202.13318858882374,-69.65521231804071 -202.80306156994175,-67.15521231803999 -202.13318858889838,-64.65521231801927 -200.30306156999566,-62.825085299061904 -197.80306156999492,-62.155212317943906" stroke="#ffa500" stroke-linecap="round" stroke-linejoin="round"/><polyline fill="none" points="103.37848958773799,-100.77031947814541 105.87848958775871,-101.44019245918878 107.70861660671606,-103.27031947809151 108.37848958783405,-105.77031947809223 107.70861660679068,-108.27031947811295 105.87848958788796,-110.10044649707031 103.37848958788723,-110.7703194781883 100.87848958786651,-110.10044649714493 99.04836256890914,-108.2703194782422 98.37848958779114,-105.77031947824148 99.0483625688345,-103.27031947822076 100.87848958773723,-101.44019245926339 103.37848958773796,-100.77031947814538" stroke="#ffa500" stroke-linecap="round" stroke-linejoin="round"/><polyline fill="none" points="-216.0044881751228,104.26576987239285 -213.50448817510207,103.59589689134948 -211.6743611561447,101.76576987244675 -211.0044881750267,99.26576987244603 -211.67436115607006,96.76576987242531 -213.50448817497278,94.93564285346794 -216.00448817497352,94.26576987234994 -218.50448817499424,94.93564285339329 -220.3346151939516,96.76576987229602 -221.0044881750696,99.26576987229674 -220.33461519402624,101.76576987231746 -218.50448817512353,103.59589689127483 -216.0044881751228,104.26576987239284" stroke="#ffa500" stroke-linecap="round" stroke-linejoin="round"/><polyline fill="none" points="54.646081419001796,-70.8597602801092 57.14608141902252,-71.52963326115255 58.97620843797989,-73.35976028005528 59.6460814190979,-75.85976028005601 58.976208438054535,-78.35976028007674 57.14608141915181,-80.18988729903411 54.64608141915109,-80.85976028015212 52.14608141913036,-80.18988729910876 50.31595440017299,-78.35976028020603 49.64608141905499,-75.85976028020531 50.31595440009835,-73.35976028018457 52.14608141900107,-71.5296332612272 54.646081419001796,-70.8597602801092" stroke="#ffa500" stroke-linecap="round" stroke-linejoin="round"/><polyline fill="none" points="-301.40260268239905,-75.51020937070338 -298.9026026823783,-76.18008235174673 -297.07247566342096,-78.01020937064946 -296.4026026823029,-80.51020937065019 -297.07247566334627,-83.01020937067092 -298.902602682249,-84.84033638962829 -301.4026026822497,-85.5102093707463 -303.90260268227047,-84.84033638970294 -305.73272970122787,-83.01020937080021 -306.4026026823459,-80.51020937079949 -305.73272970130256,-78.01020937077875 -303.90260268239984,-76.18008235182138 -301.4026026823991,-75.51020937070338" stroke="#008000" stroke-linecap="round" stroke-linejoin="round"/><polyline fill="none" points="-167.00169533714802,65.28083030386303 -164.5016953371273,64.61095732281967 -162.67156831816993,62.78083030391695 -162.00169533705193,60.280830303916225 -162.6715683180953,57.78083030389549 -164.501695336998,55.95070328493812 -167.00169533699875,55.28083030382011 -169.50169533701947,55.950703284863465 -171.33182235597684,57.78083030376619 -172.00169533709484,60.28083030376691 -171.3318223560515,62.780830303787646 -169.5016953371488,64.61095732274502 -167.00169533714805,65.28083030386303" stroke="#00f" stroke-linecap="round" stroke-linejoin="round"/><polyline fill="none" points="-132.25746675600647,-31.34475350239613 -129.75746675598575,-32.014626483439486 -127.92733973702838,-33.84475350234221 -127.25746675591037,-36.34475350234294 -127.92733973695373,-38.84475350236367 -129.75746675585646,-40.67488052132105 -132.2574667558572,-41.34475350243906 -134.75746675587794,-40.67488052139571 -136.5875937748353,-38.844753502492985 -137.25746675595332,-36.34475350249225 -136.58759377490998,-33.84475350247152 -134.75746675600726,-32.01462648351414 -132.25746675600652,-31.34475350239613" stroke="#ffa500" stroke-linecap="round" stroke-linejoin="round"/><polyline fill="none" points="94.89680153216219,153.69978338983054 97.39680153218292,153.0299104087872 99.2269285511403,151.1997833898845 99.89680153225832,148.69978338988375 99.22692855121497,146.199783389863 97.39680153231225,144.36965637090563 94.89680153231153,143.69978338978763 92.3968015322908,144.36965637083097 90.56667451333341,146.19978338973368 89.89680153221539,148.69978338973442 90.56667451325875,151.19978338975517 92.39680153216146,153.02991040871254 94.89680153216219,153.69978338983054" stroke="#00f" stroke-linecap="round" stroke-linejoin="round"/><polyline fill="none" points="-392.4569686832937,-54.45296105778872 -389.956968683273,-55.12283403883207 -388.1268416643156,-56.95296105773479 -387.45696868319754,-59.45296105773552 -388.1268416642409,-61.952961057756255 -389.9569686831436,-63.78308807671364 -392.45696868314434,-64.45296105783166 -394.9569686831651,-63.78308807678831 -396.7870957021225,-61.95296105788559 -397.4569686832405,-59.452961057884856 -396.7870957021972,-56.952961057864115 -394.95696868329446,-55.12283403890673 -392.4569686832937,-54.45296105778871" stroke="#ffa500" stroke-linecap="round" stroke-linejoin="round"/><polyline fill="none" points="-228.05319833235666,89.94815319712129 -225.5531983323359,89.27828021607795 -223.72307131337854,87.44815319717523 -223.0531983322605,84.9481531971745 -223.72307131330385,82.44815319715377 -225.55319833220656,80.61802617819639 -228.0531983322073,79.94815319707837 -230.55319833222805,80.61802617812171 -232.38332535118542,82.44815319702442 -233.05319833230345,84.94815319702515 -232.3833253512601,87.44815319704588 -230.5531983323574,89.27828021600327 -228.05319833235666,89.94815319712129" stroke="#ffa500" stroke-linecap="round" stroke-linejoin="round"/><polyline fill="none" points="-277.91413737263264,90.46314635593625 -275.4141373726119,89.7932733748929 -273.5840103536545,87.96314635599019 -272.91413737253646,85.46314635598947 -273.5840103535798,82.96314635596873 -275.4141373724825,81.13301933701135 -277.91413737248325,80.46314635589333 -280.414137372504,81.13301933693667 -282.2442643914614,82.96314635583938 -282.91413737257943,85.46314635584011 -282.2442643915361,87.96314635586084 -280.4141373726334,89.79327337481823 -277.91413737263264,90.46314635593625" stroke="#ffa500" stroke-linecap="round" stroke-linejoin="round"/><polyline fill="none" points="-245.65503660356342,-97.90671963179051 -243.15503660354267,-98.57659261283385 -241.32490958458527,-100.40671963173656 -240.65503660346724,-102.90671963173729 -241.32490958451058,-105.40671963175802 -243.1550366034133,-107.2368466507154 -245.65503660341403,-107.90671963183343 -248.15503660343478,-107.23684665079008 -249.98516362239218,-105.40671963188737 -250.6550366035102,-102.90671963188665 -249.98516362246687,-100.4067196318659 -248.15503660356416,-98.57659261290851 -245.65503660356342,-97.90671963179048" stroke="#008000" stroke-linecap="round" stroke-linejoin="round"/><polyline fill="none" points="-353.9277540826541,-78.61539332387943 -351.4277540826333,-79.28526630492277 -349.59762706367593,-81.11539332382549 -348.9277540825579,-83.61539332382621 -349.59762706360124,-86.11539332384696 -351.42775408250395,-87.94552034280434 -353.9277540825047,-88.61539332392238 -356.42775408252544,-87.94552034287904 -358.25788110148284,-86.11539332397632 -358.92775408260087,-83.6153933239756 -358.25788110155753,-81.11539332395485 -356.4277540826548,-79.28526630499745 -353.9277540826541,-78.61539332387942" stroke="#ffa500" stroke-linecap="round" stroke-linejoin="round"/><polyline fill="none" points="-267.3412209876918,-107.94389559311911 -264.8412209876711,-108.61376857416245 -263.0110939687137,-110.44389559306516 -262.34122098759565,-112.94389559306589 -263.011093968639,-115.44389559308664 -264.8412209875417,-117.27402261204404 -267.34122098754244,-117.94389559316207 -269.8412209875632,-117.27402261211873 -271.6713480065206,-115.44389559321601 -272.3412209876386,-112.94389559321529 -271.6713480065953,-110.44389559319454 -269.84122098769257,-108.61376857423714 -267.3412209876918,-107.94389559311911" stroke="#00f" stroke-linecap="round" stroke-linejoin="round"/><polyline fill="none" points="36.33082467609585,-151.00866231229082 38.83082467611659,-151.67853529333416 40.66095169507398,-153.50866231223688 41.330824676192016,-156.00866231223762 40.66095169514868,-158.50866231225837 38.83082467624597,-160.33878933121576 36.330824676245236,-161.0086623123338 33.83082467622449,-160.33878933129046 32.00069765726709,-158.50866231238774 31.330824676149057,-156.008662312387 32.00069765719239,-153.50866231236625 33.8308246760951,-151.67853529340886 36.33082467609583,-151.00866231229082" stroke="#00f" stroke-linecap="round" stroke-linejoin="round"/><polyline fill="none" points="-344.55720232325035,-52.860740208515445 -342.0572023232296,-53.53061318955878 -340.2270753042722,-55.360740208461486 -339.5572023231542,-57.86074020846222 -340.2270753041975,-60.360740208482966 -342.0572023231002,-62.190867227440364 -344.55720232310097,-62.860740208558404 -347.0572023231217,-62.19086722751507 -348.8873293420791,-60.36074020861236 -349.55720232319715,-57.86074020861163 -348.8873293421538,-55.36074020859088 -347.0572023232511,-53.530613189633485 -344.55720232325035,-52.860740208515445" stroke="#00f" stroke-linecap="round" stroke-linejoin="round"/><polyline fill="none" points="52.466776624627016,112.55101845798184 54.966776624647764,111.88114547693851 56.79690364360516,110.0510184580358 57.4667766247232,107.55101845803507 56.796903643679876,105.05101845801433 54.96677662477717,103.22089143905693 52.466776624776436,102.55101845793888 49.96677662475569,103.2208914389822 48.13664960579829,105.05101845788491 47.46677662468025,107.55101845788563 48.136649605723576,110.05101845790638 49.966776624626284,111.88114547686378 52.466776624627016,112.55101845798183" stroke="#ffa500" stroke-linecap="round" stroke-linejoin="round"/><polyline fill="none" points="-272.9036248762634,-2.683990729268136 -270.40362487624265,-3.3538637103114626 -268.57349785728525,-5.18399072921417 -267.9036248761672,-7.683990729214899 -268.57349785721055,-10.18399072923565 -270.40362487611327,-12.014117748193053 -272.903624876114,-12.683990729311097 -275.40362487613476,-12.014117748267772 -277.23375189509215,-10.183990729365066 -277.9036248762102,-7.683990729364337 -277.23375189516685,-5.183990729343586 -275.40362487626413,-3.3538637103861806 -272.9036248762634,-2.6839907292681353" stroke="#008000" stroke-linecap="round" stroke-linejoin="round"/><polyline fill="none" points="18.132031543392372,35.85585612413033 20.632031543413124,35.185983143087 22.46215856237053,33.35585612418429 23.132031543488576,30.855856124183564 22.462158562445254,28.355856124162813 20.63203154354255,26.525729105205407 18.13203154354182,25.85585612408736 15.63203154352107,26.525729105130683 13.801904524563662,28.355856124033387 13.132031543445615,30.855856124034116 13.801904524488936,33.35585612405487 15.63203154339164,35.18598314301227 18.13203154339237,35.85585612413032" stroke="#ffa500" stroke-linecap="round" stroke-linejoin="round"/><polyline fill="none" points="62.516016911303,-225.82191579310035 65.01601691132375,-226.49178877414366 66.84614393028116,-228.32191579304637 67.5160169113992,-230.8219157930471 66.84614393035588,-233.32191579306786 65.01601691145318,-235.15204281202526 62.516016911452446,-235.82191579314332 60.01601691143169,-235.1520428121 58.18588989247428,-233.3219157931973 57.51601691135623,-230.82191579319655 58.18588989239955,-228.3219157931758 60.01601691130225,-226.4917887742184 62.516016911302984,-225.82191579310035" stroke="#ffa500" stroke-linecap="round" stroke-linejoin="round"/><polyline fill="none" points="34.10043423606057,253.84802448493008 36.60043423608133,253.17815150388677 38.43056125503874,251.34802448498405 39.100434236156794,248.8480244849833 38.430561255113474,246.34802448496256 36.60043423621077,244.51789746600517 34.10043423621004,243.8480244848871 31.600434236189287,244.51789746593042 29.770307217231874,246.34802448483313 29.10043423611382,248.84802448483387 29.770307217157136,251.34802448485462 31.600434236059836,253.17815150381202 34.100434236060565,253.84802448493008" stroke="#ffa500" stroke-linecap="round" stroke-linejoin="round"/><polyline fill="none" points="225.14820743154266,-146.94678017764997 227.6482074315634,-147.61665315869328 229.47833445052083,-149.446780177596 230.1482074316389,-151.94678017759674 229.47833445059558,-154.44678017761748 227.6482074316929,-156.2769071965749 225.14820743169216,-156.94678017769297 222.6482074316714,-156.27690719664966 220.81808041271398,-154.44678017774697 220.14820743159592,-151.94678017774623 220.81808041263923,-149.4467801777255 222.64820743154192,-147.61665315876806 225.14820743154266,-146.94678017765" stroke="#ffa500" stroke-linecap="round" stroke-linejoin="round"/><polyline fill="none" points="48.82985078152082,-145.82164850957773 51.32985078154157,-146.49152149062104 53.159977800498986,-148.32164850952373 53.82985078161704,-150.82164850952446 53.15997780057373,-153.3216485095452 51.32985078167103,-155.15177552850264 48.829850781670295,-155.8216485096207 46.32985078164954,-155.1517755285774 44.49972376269212,-153.3216485096747 43.82985078157406,-150.82164850967396 44.49972376261737,-148.32164850965322 46.32985078152007,-146.4915214906958 48.829850781520804,-145.82164850957773" stroke="#ffa500" stroke-linecap="round" stroke-linejoin="round"/><polyline fill="none" points="23.962997716547097,-112.46690043581341 26.462997716567855,-113.13677341685673 28.293124735525275,-114.96690043575943 28.962997716643336,-117.46690043576015 28.293124735600024,-119.96690043578091 26.462997716697327,-121.79702745473833 23.9629977166966,-122.46690043585639 21.46299771667584,-121.79702745481308 19.63287069771842,-119.96690043591038 18.96299771660036,-117.46690043590965 19.632870697643668,-114.96690043588889 21.462997716546365,-113.13677341693148 23.962997716547093,-112.46690043581341" stroke="#00f" stroke-linecap="round" stroke-linejoin="round"/><polyline fill="none" points="170.671895055261,-128.70867835071147 173.17189505528174,-129.37855133175478 175.00202207423916,-131.20867835065746 175.67189505535723,-133.7086783506582 175.0020220743139,-136.20867835067895 173.17189505541123,-138.03880536963638 170.6718950554105,-138.70867835075444 168.17189505538974,-138.03880536971113 166.3417680364323,-136.20867835080844 165.67189505531425,-133.7086783508077 166.34176803635756,-131.20867835078695 168.17189505526025,-129.37855133182953 170.671895055261,-128.70867835071147" stroke="#00f" stroke-linecap="round" stroke-linejoin="round"/><polyline fill="none" points="-375.80088038177314,-49.03662414894001 -373.3008803817524,-49.70649712998331 -371.470753362795,-51.536624148886006 -370.8008803816769,-54.03662414888674 -371.4707533627202,-56.5366241489075 -373.3008803816229,-58.366751167864926 -375.80088038162364,-59.036624148982995 -378.3008803816444,-58.36675116793969 -380.1310074006018,-56.536624149036996 -380.8008803817199,-54.036624149036264 -380.1310074006766,-51.5366241490155 -378.3008803817739,-49.706497130058075 -375.80088038177314,-49.03662414894001" stroke="#00f" stroke-linecap="round" stroke-linejoin="round"/><polyline fill="none" points="98.20340201215907,-122.18693556502737 100.70340201217984,-122.85680854607067 102.53352903113726,-124.68693556497337 103.20340201225534,-127.18693556497409 102.53352903121204,-129.68693556499485 100.70340201230934,-131.51706258395228 98.20340201230862,-132.18693556507034 95.70340201228785,-131.51706258402703 93.87327499333043,-129.68693556512434 93.20340201221235,-127.18693556512362 93.87327499325565,-124.68693556510286 95.70340201215834,-122.85680854614543 98.20340201215906,-122.18693556502735" stroke="#00f" stroke-linecap="round" stroke-linejoin="round"/><polyline fill="none" points="-314.6270211276973,-126.34794430948389 -312.1270211276765,-127.01781729052719 -310.2968941087191,-128.8479443094299 -309.627021127601,-131.34794430943063 -310.29689410864427,-133.8479443094514 -312.127021127547,-135.67807132840883 -314.6270211275477,-136.3479443095269 -317.12702112756847,-135.67807132848358 -318.9571481465259,-133.8479443095809 -319.627021127644,-131.34794430958016 -318.95714814660073,-128.84794430955938 -317.127021127698,-127.01781729060195 -314.6270211276973,-126.34794430948388" stroke="#ffa500" stroke-linecap="round" stroke-linejoin="round"/><polyline fill="none" points="-269.8994166691238,122.10561688545076 -267.39941666910306,121.43574390440746 -265.5692896501456,119.60561688550477 -264.8994166690275,117.10561688550405 -265.5692896500708,114.60561688548329 -267.3994166689735,112.77548986652586 -269.89941666897425,112.10561688540778 -272.399416668995,112.77548986645108 -274.22954368795246,114.60561688535377 -274.89941666907055,117.1056168853545 -274.22954368802726,119.60561688537526 -272.39941666912455,121.43574390433268 -269.8994166691238,122.10561688545076" stroke="#ffa500" stroke-linecap="round" stroke-linejoin="round"/><polyline fill="none" points="-231.4558294457532,9.359957018954866 -228.95582944573243,8.69008403791157 -227.125702426775,6.859957019008879 -226.45582944565692,4.359957019008149 -227.1257024267002,1.859957018987382 -228.9558294456029,0.029830000029947623 -231.45582944560363,-0.6400429810881307 -233.9558294456244,0.029829999955164666 -235.78595646458183,1.859957018857854 -236.45582944569992,4.359957018858584 -235.78595646465664,6.859957018879352 -233.95582944575395,8.690084037836787 -231.4558294457532,9.359957018954866" stroke="#00f" stroke-linecap="round" stroke-linejoin="round"/><polyline fill="none" points="-290.8006939813546,-60.6258248084452 -288.30069398133384,-61.29569778948849 -286.4705669623764,-63.12582480839118 -285.8006939812583,-65.62582480839191 -286.4705669623016,-68.12582480841269 -288.3006939812043,-69.95595182737013 -290.80069398120503,-70.6258248084882 -293.3006939812258,-69.9559518274449 -295.13082100018323,-68.12582480854222 -295.8006939813013,-65.6258248085415 -295.13082100025804,-63.125824808520726 -293.3006939813553,-61.295697789563285 -290.8006939813546,-60.6258248084452" stroke="#008000" stroke-linecap="round" stroke-linejoin="round"/><polyline fill="none" points="164.20779751602774,-102.6196324661653 166.70779751604852,-103.2895054472086 168.53792453500594,-105.11963246611128 169.20779751612403,-107.61963246611201 168.53792453508075,-110.11963246613278 166.70779751617806,-111.94975948509023 164.20779751617732,-112.61963246620832 161.70779751615655,-111.94975948516503 159.87767049719912,-110.11963246626235 159.20779751608103,-107.6196324662616 159.8776704971243,-105.11963246624083 161.707797516027,-103.28950544728339 164.20779751602774,-102.6196324661653" stroke="#ffa500" stroke-linecap="round" stroke-linejoin="round"/><polyline fill="none" points="80.16993761831057,-203.8576339575539 82.66993761833135,-204.52750693859718 84.50006463728879,-206.35763395749987 85.16993761840688,-208.8576339575006 84.5000646373636,-211.3576339575214 82.6699376184609,-213.18776097647884 80.16993761846018,-213.85763395759693 77.6699376184394,-213.18776097655365 75.83981059948196,-211.35763395765096 75.16993761836387,-208.85763395765022 75.83981059940716,-206.35763395762945 77.66993761830985,-204.527506938672 80.16993761831057,-203.8576339575539" stroke="#ffa500" stroke-linecap="round" stroke-linejoin="round"/><polyline fill="none" points="-305.36705125805423,-96.0777469216775 -302.8670512580335,-96.74761990272079 -301.03692423907603,-98.57774692162347 -300.36705125795794,-101.0777469216242 -301.0369242390012,-103.57774692164497 -302.8670512579039,-105.40787394060241 -305.3670512579046,-106.0777469217205 -307.86705125792537,-105.40787394067722 -309.6971782768828,-103.57774692177453 -310.3670512580009,-101.0777469217738 -309.69717827695763,-98.57774692175302 -307.86705125805497,-96.74761990279558 -305.36705125805423,-96.07774692167749" stroke="#00f" stroke-linecap="round" stroke-linejoin="round"/><polyline fill="none" points="76.23207476144347,-147.61046187413623 78.73207476146425,-148.28033485517952 80.56220178042169,-150.1104618740822 81.23207476153978,-152.61046187408294 80.5622017804965,-155.11046187410372 78.73207476159381,-156.94058889306118 76.23207476159307,-157.61046187417926 73.73207476157229,-156.94058889313598 71.90194774261484,-155.1104618742333 71.23207476149675,-152.61046187423256 71.90194774254003,-150.11046187421178 73.73207476144272,-148.28033485525432 76.23207476144346,-147.61046187413623" stroke="#00f" stroke-linecap="round" stroke-linejoin="round"/><polyline fill="none" points="54.47575454073787,-99.46399021753537 56.97575454075864,-100.13386319857865 58.80588155971609,-101.96399021748134 59.47575454083419,-104.46399021748208 58.805881559790905,-106.96399021750285 56.97575454088822,-108.79411723646031 54.475754540887486,-109.4639902175784 51.9757545408667,-108.79411723653512 50.14562752190925,-106.96399021763243 49.47575454079115,-104.46399021763169 50.145627521834435,-101.96399021761091 51.975754540737114,-100.13386319865346 54.475754540737846,-99.46399021753535" stroke="#ffa500" stroke-linecap="round" stroke-linejoin="round"/><polyline fill="none" points="-248.9652371734083,103.65346756972109 -246.46523717338752,102.9835945886778 -244.63511015443007,101.15346756977512 -243.96523717331198,98.65346756977438 -244.63511015435526,96.1534675697536 -246.46523717325795,94.32334055079615 -248.96523717325869,93.65346756967804 -251.46523717327946,94.32334055072133 -253.29536419223692,96.15346756962401 -253.965237173355,98.65346756962475 -253.29536419231172,101.15346756964553 -251.46523717340904,102.98359458860298 -248.9652371734083,103.65346756972109" stroke="#ffa500" stroke-linecap="round" stroke-linejoin="round"/><polyline fill="none" points="-310.4157581534741,-71.13810820438539 -307.9157581534533,-71.80798118542867 -306.0856311344958,-73.63810820433136 -305.41575815337774,-76.1381082043321 -306.085631134421,-78.63810820435287 -307.9157581533237,-80.46823522331033 -310.4157581533244,-81.13810820442843 -312.9157581533452,-80.46823522338515 -314.7458851723027,-78.63810820448246 -315.41575815342077,-76.13810820448172 -314.7458851723775,-73.63810820446095 -312.9157581534748,-71.8079811855035 -310.4157581534741,-71.13810820438539" stroke="#008000" stroke-linecap="round" stroke-linejoin="round"/><polyline fill="none" points="-206.63448065677895,-36.97644901230438 -204.13448065675817,-37.646321993347655 -202.30435363780072,-39.476449012250335 -201.63448065668263,-41.97644901225107 -202.3043536377259,-44.47644901227185 -204.1344806566286,-46.306576031229305 -206.63448065662934,-46.97644901234741 -209.1344806566501,-46.30657603130413 -210.96460767560757,-44.47644901240145 -211.63448065672569,-41.97644901240072 -210.9646076756824,-39.47644901237994 -209.13448065677971,-37.646321993422475 -206.63448065677898,-36.97644901230437" stroke="#ffa500" stroke-linecap="round" stroke-linejoin="round"/><polyline fill="none" points="-228.24334058809634,-92.56671478624465 -225.74334058807557,-93.23658776728792 -223.9132135691181,-95.06671478619059 -223.243340588,-97.56671478619133 -223.91321356904328,-100.06671478621212 -225.74334058794597,-101.89684180516957 -228.2433405879467,-102.56671478628768 -230.74334058796748,-101.8968418052444 -232.57346760692494,-100.06671478634173 -233.24334058804305,-97.566714786341 -232.57346760699977,-95.0667147863202 -230.74334058809708,-93.23658776736275 -228.24334058809634,-92.56671478624465" stroke="#ffa500" stroke-linecap="round" stroke-linejoin="round"/><polyline fill="none" points="-263.22210769385276,-100.22081545216851 -260.72210769383196,-100.89068843321178 -258.8919806748745,-102.72081545211445 -258.2221076937564,-105.22081545211519 -258.8919806747997,-107.72081545213598 -260.72210769370236,-109.55094247109345 -263.2221076937031,-110.22081545221155 -265.7221076937239,-109.55094247116828 -267.55223471268135,-107.72081545226561 -268.22210769379944,-105.22081545226487 -267.55223471275616,-102.72081545224408 -265.7221076938535,-100.89068843328661 -263.22210769385276,-100.22081545216851" stroke="#00f" stroke-linecap="round" stroke-linejoin="round"/><polyline fill="none" points="57.944628381060355,235.8246480301113 60.444628381081145,235.15477504906804 62.27475540003861,233.32464803016535 62.94462838115672,230.8246480301646 62.27475540011345,228.32464803014383 60.44462838121078,226.49452101118638 57.944628381210045,225.82464803006826 55.444628381189254,226.49452101111152 53.61450136223179,228.3246480300142 52.94462838111368,230.82464803001494 53.61450136215695,233.32464803003572 55.44462838105962,235.15477504899317 57.944628381060355,235.8246480301113" stroke="#ffa500" stroke-linecap="round" stroke-linejoin="round"/><polyline fill="none" points="-226.66682769745648,5.405846424994003 -224.1668276974357,4.735973443950737 -222.33670067847825,2.9058464250480625 -221.66682769736013,0.4058464250473288 -222.3367006784034,-2.0941535749734603 -224.16682769730608,-3.924280593930928 -226.66682769730681,-4.594153575049043 -229.1668276973276,-3.9242805940057788 -230.99695471628505,-2.094153575103105 -231.66682769740316,0.4058464248976277 -230.9969547163599,2.9058464249184173 -229.16682769745722,4.735973443875886 -226.66682769745648,5.405846424994002" stroke="#ffa500" stroke-linecap="round" stroke-linejoin="round"/></svg>