<?xml version="1.0" ?><!DOCTYPE svg  PUBLIC '-//W3C//DTD SVG 1.1//EN'  'http://www.w3.org/Graphics/SVG/1.1/DTD/svg11.dtd'><svg height="573.000" viewBox="-451.000 -265.000 695.000 573.000" width="695.000" xmlns="http://www.w3.org/2000/svg"><line fill="none" stroke="none" stroke-linecap="round" stroke-width="2.0" x1="0.0" x2="0.0" y1="0.0" y2="0.0"/><polygon fill="none" fill-rule="evenodd" points="0.0,0.0 0.0,0.0 0.0,0.0" stroke-linejoin="round"/><polyline fill="none" points="-13.295873663212031,119.70684880452224 -10.795873663189216,119.03697582348235 -8.965746644228302,117.2068488045816 -8.295873663106244,114.7068488045808 -8.965746644146124,112.20684880455799 -10.79587366304688,110.37672178559708 -13.295873663047676,109.70684880447503 -15.795873663070491,110.3767217855149 -17.626000682031407,112.20684880441566 -18.29587366315347,114.70684880441645 -17.626000682113588,117.20684880443926 -15.795873663212834,119.03697582340018 -13.295873663212038,119.70684880452224" stroke="#ffa500" stroke-linecap="round" stroke-linejoin="round"/><polyline fill="none" points="-43.89349817767934,54.242894739044445 -41.393498177656525,53.573021758004565 -39.56337115869561,51.74289473910381 -38.89349817757355,49.242894739103015 -39.56337115861343,46.7428947390802 -41.39349817751418,44.912767720119284 -43.89349817751498,44.24289473899722 -46.39349817753779,44.9127677200371 -48.22362519649871,46.742894738937856 -48.89349817762077,49.24289473893865 -48.22362519658089,51.74289473896147 -46.39349817768014,53.57302175792238 -43.89349817767934,54.242894739044445" stroke="#ffa500" stroke-linecap="round" stroke-linejoin="round"/><polyline fill="none" points="105.37556972820386,-94.19553591112141 107.87556972822668,-94.86540889216128 109.7056967471876,-96.69553591106204 110.37556972830967,-99.19553591106283 109.7056967472698,-101.69553591108566 107.87556972836904,-103.52566293004658 105.37556972836825,-104.19553591116865 102.87556972834543,-103.52566293012877 101.0454427093845,-101.69553591122802 100.37556972826243,-99.19553591122722 101.0454427093023,-96.6955359112044 102.87556972820306,-94.86540889224348 105.37556972820386,-94.19553591112141" stroke="#ffa500" stroke-linecap="round" stroke-linejoin="round"/><polyline fill="none" points="-225.38951603488135,-165.44296911804824 -222.88951603485853,-166.1128420990881 -221.0593890158976,-167.94296911798887 -220.38951603477554,-170.44296911798966 -221.0593890158154,-172.94296911801248 -222.88951603471617,-174.7730961369734 -225.38951603471696,-175.44296911809548 -227.88951603473978,-174.7730961370556 -229.7196430537007,-172.94296911815485 -230.38951603482278,-170.44296911815405 -229.7196430537829,-167.94296911813123 -227.88951603488215,-166.1128420991703 -225.38951603488135,-165.44296911804824" stroke="#ffa500" stroke-linecap="round" stroke-linejoin="round"/><polyline fill="none" points="-256.91001372169194,-76.58084522392713 -254.41001372166912,-77.250718204967 -252.5798867027082,-79.08084522386775 -251.91001372158613,-81.58084522386855 -252.579886702626,-84.08084522389137 -254.41001372152675,-85.9109722428523 -256.91001372152755,-86.58084522397436 -259.41001372155034,-85.91097224293449 -261.24014074051126,-84.08084522403374 -261.91001372163333,-81.58084522403294 -261.24014074059346,-79.08084522401012 -259.41001372169274,-77.2507182050492 -256.91001372169194,-76.58084522392713" stroke="#00f" stroke-linecap="round" stroke-linejoin="round"/><polyline fill="none" points="-401.47893550846743,-76.57789044567278 -398.97893550844464,-77.24776342671265 -397.1488084894837,-79.0778904456134 -396.47893550836164,-81.5778904456142 -397.1488084894015,-84.07789044563702 -398.97893550830224,-85.90801746459795 -401.47893550830304,-86.57789044572002 -403.9789355083259,-85.90801746468014 -405.8090625272868,-84.07789044577939 -406.4789355084089,-81.57789044577859 -405.809062527369,-79.07789044575577 -403.9789355084683,-77.24776342679485 -401.4789355084675,-76.57789044567278" stroke="#00f" stroke-linecap="round" stroke-linejoin="round"/><polyline fill="none" points="169.7355499930481,-93.54788787356543 172.23554999307092,-94.2177608546053 174.06567701203184,-96.04788787350606 174.7355499931539,-98.54788787350685 174.06567701211404,-101.04788787352967 172.23554999321328,-102.8780148924906 169.7355499932125,-103.54788787361268 167.23554999318966,-102.87801489257282 165.40542297422874,-101.04788787367207 164.73554999310667,-98.54788787367127 165.40542297414655,-96.04788787364845 167.2355499930473,-94.21776085468751 169.7355499930481,-93.54788787356543" stroke="#ffa500" stroke-linecap="round" stroke-linejoin="round"/><polyline fill="none" points="111.53096056262576,-244.0416687150643 114.03096056264859,-244.71154169610418 115.86108758160952,-246.54166871500493 116.53096056273161,-249.04166871500573 115.86108758169175,-251.54166871502855 114.03096056279101,-253.37179573398947 111.53096056279021,-254.04166871511154 109.03096056276739,-253.37179573407167 107.20083354380645,-251.5416687151709 106.53096056268437,-249.04166871517012 107.20083354372423,-246.5416687151473 109.03096056262497,-244.71154169618637 111.53096056262576,-244.0416687150643" stroke="#ffa500" stroke-linecap="round" stroke-linejoin="round"/><polyline fill="none" points="-418.2812344487123,-85.68781306842489 -415.7812344486895,-86.35768604946475 -413.95110742972855,-88.18781306836549 -413.2812344486065,-90.68781306836628 -413.95110742964636,-93.1878130683891 -415.7812344485471,-95.01794008735004 -418.2812344485479,-95.68781306847212 -420.78123444857073,-95.01794008743227 -422.61136146753165,-93.18781306853153 -423.2812344486537,-90.68781306853073 -422.61136146761385,-88.18781306850791 -420.7812344487131,-86.35768604954697 -418.2812344487123,-85.68781306842489" stroke="#00f" stroke-linecap="round" stroke-linejoin="round"/><polyline fill="none" points="-284.02388429730337,35.92891296964668 -281.5238842972805,35.25903998860682 -279.6937572783196,33.428912969706076 -279.0238842971975,30.92891296970528 -279.6937572782374,28.428912969682454 -281.5238842971381,26.598785950721517 -284.0238842971389,25.928912969599434 -286.52388429716177,26.598785950639293 -288.3540113161227,28.428912969540036 -289.02388429724476,30.928912969540832 -288.3540113162049,33.42891296956366 -286.52388429730416,35.2590399885246 -284.02388429730337,35.92891296964668" stroke="#00f" stroke-linecap="round" stroke-linejoin="round"/><polyline fill="none" points="77.22952558144253,182.8109252557752 79.72952558146535,182.14105227473536 81.55965260042629,180.3109252558346 82.22952558154837,177.8109252558338 81.55965260050851,175.310925255811 79.72952558160777,173.48079823685003 77.22952558160698,172.81092525572794 74.72952558158416,173.48079823676778 72.89939856262322,175.31092525566854 72.22952558150114,177.81092525566933 72.899398562541,180.31092525569215 74.72952558144173,182.1410522746531 77.22952558144253,182.8109252557752" stroke="#ffa500" stroke-linecap="round" stroke-linejoin="round"/><polyline fill="none" points="95.11762788931338,87.78572011108086 97.6176278893362,87.115847130041 99.44775490829714,85.28572011114026 100.11762788941923,82.78572011113947 99.44775490837937,80.28572011111663 97.61762788947863,78.4555930921557 95.11762788947783,77.78572011103361 92.617627889455,78.45559309207347 90.78750087049406,80.28572011097421 90.11762788937196,82.785720110975 90.78750087041182,85.28572011099784 92.61762788931256,87.11584712995878 95.11762788931335,87.78572011108088" stroke="#ffa500" stroke-linecap="round" stroke-linejoin="round"/><polyline fill="none" points="108.2358510757585,-165.95775067428542 110.73585107578134,-166.62762365532527 112.56597809474228,-168.45775067422602 113.23585107586437,-170.95775067422682 112.56597809482452,-173.45775067424964 110.73585107592378,-175.2878776932106 108.23585107592298,-175.9577506743327 105.73585107590014,-175.28787769329284 103.9057240569392,-173.45775067439212 103.23585107581711,-170.95775067439132 103.90572405685695,-168.4577506743685 105.7358510757577,-166.62762365540755 108.23585107575849,-165.95775067428545" stroke="#ffa500" stroke-linecap="round" stroke-linejoin="round"/><polyline fill="none" points="-168.06053966893725,-136.1167199580327 -165.56053966891443,-136.78659293907253 -163.73041264995348,-138.61671995797326 -163.06053966883138,-141.11671995797406 -163.73041264987123,-143.61671995799688 -165.56053966877195,-145.44684697695783 -168.06053966877275,-146.11671995807993 -170.56053966879557,-145.44684697704008 -172.39066668775652,-143.61671995813936 -173.06053966887862,-141.11671995813856 -172.39066668783877,-138.61671995811574 -170.56053966893805,-136.7865929391548 -168.06053966893725,-136.1167199580327" stroke="#00f" stroke-linecap="round" stroke-linejoin="round"/><polyline fill="none" points="54.72193411971399,295.8919661060807 57.22193411973683,295.22209312504083 59.05206113869778,293.3919661061401 59.72193411981988,290.8919661061393 59.05206113878003,288.39196610611646 57.22193411987929,286.56183908715553 54.7219341198785,285.8919661060334 52.22193411985566,286.5618390870733 50.39180710089471,288.391966105974 49.72193411977261,290.8919661059748 50.39180710081246,293.39196610599765 52.22193411971319,295.2220931249586 54.721934119713985,295.8919661060807" stroke="#ffa500" stroke-linecap="round" stroke-linejoin="round"/><polyline fill="none" points="-12.412181499359168,-188.21916953096988 -9.912181499336333,-188.88904251200972 -8.082054480375383,-190.71916953091045 -7.4121814992532835,-193.21916953091124 -8.08205448029313,-195.71916953093407 -9.912181499193865,-197.54929654989502 -12.412181499194661,-198.21916953101712 -14.912181499217496,-197.54929654997727 -16.742308518178447,-195.71916953107655 -17.412181499300548,-193.21916953107575 -16.742308518260703,-190.71916953105293 -14.912181499359969,-188.88904251209198 -12.412181499359173,-188.21916953096988" stroke="#ffa500" stroke-linecap="round" stroke-linejoin="round"/><polyline fill="none" points="-301.24703679320714,-105.79439836539594 -298.7470367931843,-106.46427134643578 -296.9169097742233,-108.29439836533652 -296.2470367931012,-110.79439836533732 -296.916909774141,-113.29439836536015 -298.74703679304173,-115.1245253843211 -301.2470367930425,-115.7943983654432 -303.7470367930654,-115.12452538440336 -305.57716381202636,-113.29439836550262 -306.2470367931485,-110.79439836550182 -305.57716381210867,-108.29439836547898 -303.74703679320794,-106.46427134651803 -301.24703679320714,-105.79439836539592" stroke="#008000" stroke-linecap="round" stroke-linejoin="round"/><polyline fill="none" points="-22.74566109051149,-25.464307829566987 -20.245661090488653,-26.13418081060683 -18.4155340715277,-27.96430782950756 -17.745661090405594,-30.464307829508357 -18.415534071445435,-32.964307829531194 -20.245661090346168,-34.794434848492145 -22.745661090346964,-35.46430782961425 -25.2456610903698,-34.79443484857441 -27.075788109330755,-32.96430782967368 -27.745661090452863,-30.464307829672883 -27.075788109413022,-27.964307829650046 -25.24566109051229,-26.13418081068909 -22.745661090511494,-25.464307829566984" stroke="#ffa500" stroke-linecap="round" stroke-linejoin="round"/><polyline fill="none" points="-359.6435410733498,-145.4418364940311 -357.14354107332696,-146.11170947507094 -355.313414054366,-147.94183649397166 -354.64354107324385,-150.44183649397246 -355.31341405428367,-152.9418364939953 -357.1435410731844,-154.77196351295626 -359.6435410731852,-155.44183649407836 -362.14354107320804,-154.77196351303851 -363.973668092169,-152.9418364941378 -364.64354107329115,-150.441836494137 -363.97366809225133,-147.94183649411414 -362.1435410733506,-146.1117094751532 -359.6435410733498,-145.4418364940311" stroke="#00f" stroke-linecap="round" stroke-linejoin="round"/><polyline fill="none" points="65.52863260906987,-223.0238095141826 68.02863260909271,-223.69368249522245 69.85875962805366,-225.52380951412317 70.52863260917577,-228.02380951412397 69.85875962813594,-230.52380951414682 68.02863260923522,-232.35393653310777 65.52863260923442,-233.02380951422987 63.02863260921158,-232.35393653319002 61.19850559025062,-230.5238095142893 60.52863260912851,-228.0238095142885 61.198505590168345,-225.52380951426565 63.02863260906908,-223.6936824953047 65.52863260906987,-223.02380951418257" stroke="#00f" stroke-linecap="round" stroke-linejoin="round"/><polyline fill="none" points="78.89907646432093,-76.80600788934025 81.39907646434376,-77.47588087038008 83.22920348330473,-79.3060078892808 83.89907646442684,-81.8060078892816 83.22920348338701,-84.30600788930444 81.39907646448628,-86.1361349082654 78.89907646448549,-86.80600788938752 76.39907646446265,-86.13613490834769 74.56894944550169,-84.30600788944696 73.89907646437958,-81.80600788944616 74.5689494454194,-79.30600788942333 76.39907646432013,-77.47588087046236 78.89907646432093,-76.80600788934025" stroke="#ffa500" stroke-linecap="round" stroke-linejoin="round"/><polyline fill="none" points="-196.6684394940377,0.8021810393359212 -194.16843949401485,0.13230805829608905 -192.3383124750539,-1.6978189606046383 -191.66843949393177,-4.197818960605433 -192.33831247497162,-6.697818960628277 -194.16843949387234,-8.52794597958924 -196.66843949387314,-9.197818960711357 -199.168439493896,-8.527945979671527 -200.99856651285694,-6.6978189607708 -201.66843949397906,-4.197818960770004 -200.99856651293922,-1.697818960747159 -199.1684394940385,0.13230805821380676 -196.6684394940377,0.8021810393359249" stroke="#ffa500" stroke-linecap="round" stroke-linejoin="round"/><polyline fill="none" points="69.237572816827,-172.69652796949583 71.73757281684985,-173.36640095053565 73.56769983581081,-175.19652796943637 74.23757281693294,-177.69652796943717 73.56769983589311,-180.19652796946002 71.73757281699238,-182.026654988421 69.23757281699159,-182.69652796954313 66.73757281696874,-182.0266549885033 64.90744579800777,-180.19652796960258 64.23757281688565,-177.6965279696018 64.90744579792548,-175.19652796957894 66.7375728168262,-173.36640095061796 69.237572816827,-172.69652796949583" stroke="#ffa500" stroke-linecap="round" stroke-linejoin="round"/><polyline fill="none" points="-217.01538199114853,39.99440081175551 -214.51538199112568,39.32452783071568 -212.6852549721647,37.494400811814955 -212.01538199104257,34.99440081181416 -212.6852549720824,32.49440081179131 -214.51538199098312,30.66427379283034 -217.0153819909839,29.994400811708218 -219.51538199100676,30.664273792748045 -221.34550900996774,32.494400811648774 -222.01538199108987,34.99440081164957 -221.34550901005005,37.49440081167242 -219.51538199114933,39.32452783063339 -217.01538199114853,39.99440081175552" stroke="#00f" stroke-linecap="round" stroke-linejoin="round"/><polyline fill="none" points="134.2011710895378,-113.7233541631325 136.70117108956066,-114.39322714417233 138.53129810852164,-116.22335416307305 139.20117108964376,-118.72335416307385 138.53129810860395,-121.2233541630967 136.70117108970322,-123.05348118205768 134.20117108970243,-123.7233541631798 131.70117108967958,-123.05348118213998 129.8710440707186,-121.22335416323925 129.20117108959647,-118.72335416323845 129.8710440706363,-116.2233541632156 131.701171089537,-114.39322714425462 134.2011710895378,-113.7233541631325" stroke="#00f" stroke-linecap="round" stroke-linejoin="round"/><polyline fill="none" points="203.69486486783723,-144.07055985895303 206.19486486786008,-144.74043283999285 208.02499188682106,-146.57055985889357 208.69486486794318,-149.07055985889437 208.02499188690336,-151.57055985891722 206.19486486800264,-153.4006868778782 203.69486486800184,-154.07055985900033 201.194864867979,-153.4006868779605 199.364737849018,-151.57055985905978 198.6948648678959,-149.070559859059 199.3647378489357,-146.57055985903614 201.19486486783643,-144.74043284007516 203.69486486783723,-144.07055985895303" stroke="#00f" stroke-linecap="round" stroke-linejoin="round"/><polyline fill="none" points="66.64520189163571,80.8600597169828 69.14520189165856,80.19018673594299 70.97532891061954,78.36005971704226 71.64520189174166,75.86005971704147 70.97532891070185,73.36005971701861 69.14520189180112,71.52993269805764 66.64520189180033,70.86005971693551 64.14520189177748,71.52993269797533 62.315074872816496,73.36005971687605 61.64520189169436,75.86005971687685 62.31507487273418,78.3600597168997 64.1452018916349,80.19018673586068 66.6452018916357,80.86005971698282" stroke="#ffa500" stroke-linecap="round" stroke-linejoin="round"/><polyline fill="none" points="28.91189159819632,32.37797572822268 31.411891598219174,31.708102747182863 33.24201861718016,29.87797572828214 33.91189159830229,27.377975728281342 33.242018617262474,24.877975728258487 31.411891598361752,23.047848709297508 28.911891598360953,22.37797572817537 26.411891598338098,23.047848709215188 24.581764579377115,24.877975728115906 23.91189159825498,27.377975728116706 24.581764579294795,29.87797572813956 26.411891598195517,31.708102747100543 28.911891598196316,32.37797572822268" stroke="#ffa500" stroke-linecap="round" stroke-linejoin="round"/><polyline fill="none" points="-120.63884747488041,-133.9598355595886 -118.13884747485756,-134.62970854062843 -116.30872045589658,-136.45983555952915 -115.63884747477444,-138.95983555952995 -116.30872045581425,-141.4598355595528 -118.13884747471498,-143.28996257851378 -120.63884747471577,-143.9598355596359 -123.13884747473863,-143.2899625785961 -124.9689744936996,-141.45983555969536 -125.63884747482174,-138.95983555969457 -124.96897449378193,-136.45983555967172 -123.1388474748812,-134.62970854071074 -120.63884747488041,-133.9598355595886" stroke="#ffa500" stroke-linecap="round" stroke-linejoin="round"/><polyline fill="none" points="-215.16344096914307,1.3082251699510827 -212.66344096912022,0.6383521889112692 -210.83331395015924,-1.1917748299894493 -210.1634409690371,-3.6917748299902473 -210.83331395007693,-6.191774830013104 -212.66344096897765,-8.021901848974089 -215.16344096897845,-8.691774830096229 -217.6634409690013,-8.021901849056416 -219.49356798796228,-6.1917748301556985 -220.16344096908443,-3.6917748301549014 -219.49356798804462,-1.191774830132044 -217.6634409691439,0.6383521888289421 -215.1634409691431,1.3082251699510827" stroke="#ffa500" stroke-linecap="round" stroke-linejoin="round"/><polyline fill="none" points="-328.64809084221304,-8.362511802448903 -326.1480908421902,-9.032384783488714 -324.3179638232292,-10.862511802389431 -323.6480908421071,-13.362511802390229 -324.3179638231469,-15.862511802413087 -326.1480908420476,-17.692638821374075 -328.6480908420484,-18.36251180249622 -331.14809084207127,-17.69263882145641 -332.97821786103225,-15.862511802555694 -333.6480908421544,-13.362511802554897 -332.97821786111456,-10.862511802532037 -331.14809084221383,-9.032384783571048 -328.64809084221304,-8.362511802448905" stroke="#ffa500" stroke-linecap="round" stroke-linejoin="round"/><polyline fill="none" points="-80.203984159221,-156.52419639914288 -77.70398415919813,-157.1940693801827 -75.87385714023713,-159.02419639908342 -75.203984159115,-161.52419639908422 -75.8738571401548,-164.02419639910707 -77.70398415905551,-165.85432341806805 -80.2039841590563,-166.5241963991902 -82.70398415907917,-165.8543234181504 -84.53411117804016,-164.02419639924966 -85.2039841591623,-161.52419639924886 -84.5341111781225,-159.024196399226 -82.70398415922179,-157.19406938026503 -80.203984159221,-156.52419639914288" stroke="#00f" stroke-linecap="round" stroke-linejoin="round"/><polyline fill="none" points="-392.2479840957381,-58.52737036688741 -389.74798409571525,-59.19724334792722 -387.9178570767543,-61.02737036682793 -387.24798409563215,-63.52737036682873 -387.91785707667196,-66.02737036685159 -389.7479840955727,-67.85749738581258 -392.2479840955735,-68.52737036693473 -394.74798409559634,-67.85749738589493 -396.5781111145573,-66.02737036699422 -397.24798409567944,-63.52737036699342 -396.5781111146396,-61.027370366970565 -394.7479840957389,-59.19724334800957 -392.2479840957381,-58.527370366887425" stroke="#ffa500" stroke-linecap="round" stroke-linejoin="round"/><polyline fill="none" points="-212.15393658884662,90.57717956240943 -209.65393658882377,89.90730658136962 -207.82380956986276,88.07717956246891 -207.1539365887406,85.57717956246812 -207.82380956978042,83.07717956244525 -209.65393658868115,81.24705254348426 -212.15393658868194,80.5771795623621 -214.6539365887048,81.2470525434019 -216.4840636076658,83.07717956230262 -217.15393658878796,85.57717956230341 -216.48406360774817,88.07717956232628 -214.65393658884744,89.90730658128727 -212.15393658884665,90.57717956240943" stroke="#ffa500" stroke-linecap="round" stroke-linejoin="round"/><polyline fill="none" points="124.90367882597789,200.11431810102494 127.40367882600076,199.44444511998515 129.23380584496175,197.61431810108445 129.9036788260839,195.11431810108365 129.23380584504412,192.6143181010608 127.4036788261434,190.7841910820998 124.90367882614261,190.11431810097764 122.40367882611974,190.78419108201743 120.57355180715875,192.61431810091813 119.9036788260366,195.11431810091892 120.5735518070764,197.61431810094177 122.40367882597711,199.44444511990278 124.9036788259779,200.11431810102494" stroke="#ffa500" stroke-linecap="round" stroke-linejoin="round"/><polyline fill="none" points="-326.12342985517887,-94.38635486293002 -323.623429855156,-95.05622784396982 -321.79330283619504,-96.88635486287053 -321.12342985507286,-99.38635486287133 -321.7933028361127,-101.8863548628942 -323.6234298550134,-103.71648188185519 -326.1234298550142,-104.38635486297734 -328.62342985503705,-103.71648188193754 -330.453556873998,-101.88635486303683 -331.1234298551202,-99.38635486303603 -330.4535568740804,-96.88635486301317 -328.62342985517967,-95.05622784405216 -326.12342985517887,-94.38635486293" stroke="#f00" stroke-linecap="round" stroke-linejoin="round"/><polyline fill="none" points="60.5895075859927,-95.32345402801762 63.089507586015564,-95.99332700905742 64.91963460497657,-97.82345402795814 65.58950758609872,-100.32345402795893 64.91963460505892,-102.8234540279818 63.089507586158206,-104.6535810469428 60.58950758615741,-105.32345402806496 58.089507586134545,-104.65358104702517 56.259380567173544,-102.82345402812446 55.58950758605138,-100.32345402812366 56.25938056709118,-97.8234540281008 58.08950758599188,-95.99332700913979 60.58950758599268,-95.32345402801764" stroke="#ffa500" stroke-linecap="round" stroke-linejoin="round"/><polyline fill="none" points="164.98984523699764,-155.49032844656205 167.48984523702052,-156.16020142760183 169.31997225598153,-157.99032844650253 169.98984523710368,-160.49032844650333 169.3199722560639,-162.9903284465262 167.4898452371632,-164.8204554654872 164.9898452371624,-165.49032844660937 162.48984523713952,-164.82045546556958 160.6597182181785,-162.99032844666888 159.98984523705636,-160.4903284466681 160.65971821809615,-157.9903284466452 162.48984523699684,-156.1602014276842 164.98984523699764,-155.49032844656205" stroke="#ffa500" stroke-linecap="round" stroke-linejoin="round"/><polyline fill="none" points="220.98600788161343,-114.33644470089457 223.4860078816363,-115.00631768193436 225.31613490059732,-116.83644470083507 225.98600788171947,-119.33644470083587 225.31613490067969,-121.83644470085873 223.486007881779,-123.66657171981974 220.9860078817782,-124.33644470094191 218.4860078817553,-123.66657171990212 216.6558808627943,-121.83644470100141 215.98600788167215,-119.33644470100062 216.65588086271194,-116.83644470097775 218.48600788161264,-115.00631768201674 220.98600788161343,-114.33644470089457" stroke="#ffa500" stroke-linecap="round" stroke-linejoin="round"/><polyline fill="none" points="-327.21892173826427,-46.93281598325554 -324.7189217382414,-47.602688964295325 -322.8887947192804,-49.43281598319603 -322.2189217381582,-51.932815983196825 -322.888794719198,-54.4328159832197 -324.71892173809874,-56.262943002180705 -327.21892173809954,-56.93281598330287 -329.7189217381224,-56.262943002263086 -331.5490487570834,-54.43281598336238 -332.2189217382056,-51.932815983361586 -331.54904875716585,-49.43281598333871 -329.7189217382651,-47.602688964377705 -327.2189217382643,-46.93281598325554" stroke="#00f" stroke-linecap="round" stroke-linejoin="round"/><polyline fill="none" points="113.19807259607953,-202.8592788520606 115.69807259610239,-203.5291518331004 117.5281996150634,-205.3592788520011 118.19807259618557,-207.8592788520019 117.52819961514578,-210.35927885202477 115.69807259624508,-212.18940587098578 113.19807259624429,-212.85927885210796 110.69807259622142,-212.18940587106817 108.86794557726041,-210.35927885216748 108.19807259613825,-207.85927885216668 108.86794557717803,-205.3592788521438 110.69807259607873,-203.5291518331828 113.19807259607953,-202.8592788520606" stroke="#ffa500" stroke-linecap="round" stroke-linejoin="round"/><polyline fill="none" points="-20.655034088748366,-100.24214570265046 -18.155034088725493,-100.91201868369025 -16.32490706976448,-102.74214570259095 -15.655034088642305,-105.24214570259174 -16.324907069682087,-107.74214570261462 -18.155034088582788,-109.57227272157563 -20.655034088583584,-110.2421457026978 -23.155034088606456,-109.57227272165801 -24.98516110756747,-107.74214570275731 -25.655034088689646,-105.24214570275652 -24.985161107649866,-102.74214570273364 -23.155034088749165,-100.91201868377262 -20.65503408874837,-100.24214570265045" stroke="#ffa500" stroke-linecap="round" stroke-linejoin="round"/><polyline fill="none" points="105.87478212951235,118.05985034706143 108.37478212953523,117.38997736602165 110.20490914849626,115.55985034712096 110.87478212961844,113.05985034712016 110.20490914857866,110.55985034709728 108.37478212967797,108.72972332813626 105.87478212967717,108.05985034701408 103.37478212965429,108.72972332805385 101.54465511069327,110.55985034695455 100.87478212957109,113.05985034695534 101.54465511061086,115.55985034697822 103.37478212951156,117.38997736593925 105.87478212951235,118.05985034706143" stroke="#ffa500" stroke-linecap="round" stroke-linejoin="round"/><polyline fill="none" points="118.0210074646171,246.50354156208212 120.52100746463998,245.83366858104233 122.351134483601,244.00354156214163 123.02100746472318,241.50354156214084 122.35113448368341,239.00354156211796 120.52100746478271,237.17341454315695 118.02100746478192,236.50354156203477 115.52100746475904,237.17341454307456 113.69088044579802,239.00354156197525 113.02100746467583,241.50354156197605 113.6908804457156,244.00354156199893 115.5210074646163,245.83366858095994 118.0210074646171,246.50354156208212" stroke="#ffa500" stroke-linecap="round" stroke-linejoin="round"/><polyline fill="none" points="-266.8450002347489,-145.71206016962978 -264.34500023472606,-146.38193315066957 -262.514873215765,-148.21206016957026 -261.84500023464284,-150.71206016957106 -262.5148732156826,-153.21206016959394 -264.34500023458327,-155.04218718855498 -266.84500023458406,-155.71206016967716 -269.3450002346069,-155.04218718863737 -271.17512725356795,-153.21206016973667 -271.84500023469013,-150.71206016973588 -271.1751272536504,-148.212060169713 -269.3450002347497,-146.38193315075196 -266.8450002347489,-145.71206016962978" stroke="#00f" stroke-linecap="round" stroke-linejoin="round"/><polyline fill="none" points="-268.4796945217505,68.2746604559566 -265.9796945217276,67.60478747491683 -264.14956750276656,65.77466045601614 -263.4796945216444,63.27466045601534 -264.14956750268414,60.77466045599246 -265.9796945215848,58.94453343703144 -268.4796945215856,58.274660455909256 -270.9796945216085,58.94453343694903 -272.80982154056954,60.77466045584973 -273.4796945216917,63.27466045585052 -272.80982154065197,65.7746604558734 -270.9796945217513,67.60478747483442 -268.4796945217505,68.2746604559566" stroke="#00f" stroke-linecap="round" stroke-linejoin="round"/><polyline fill="none" points="130.20661381787738,126.7228325408081 132.70661381790026,126.05295955976833 134.5367408368613,124.22283254086763 135.20661381798348,121.72283254086683 134.53674083694372,119.22283254084395 132.70661381804302,117.39270552188293 130.20661381804223,116.72283254076075 127.70661381801935,117.39270552180052 125.87648679905833,119.22283254070122 125.20661381793614,121.72283254070202 125.87648679897592,124.2228325407249 127.70661381787662,126.05295955968592 130.2066138178774,126.72283254080811" stroke="#ffa500" stroke-linecap="round" stroke-linejoin="round"/><polyline fill="none" points="-340.4474516523397,-49.71912452454321 -337.9474516523168,-50.38899750558298 -336.11732463335574,-52.21912452448367 -335.44745165223355,-54.719124524484464 -336.1173246332733,-57.21912452450734 -337.947451652174,-59.04925154346837 -340.4474516521748,-59.71912452459056 -342.9474516521977,-59.049251543550795 -344.7775786711587,-57.219124524650105 -345.4474516522809,-54.71912452464931 -344.77757867124114,-52.21912452462642 -342.9474516523405,-50.388997505665394 -340.4474516523397,-49.719124524543204" stroke="#ffa500" stroke-linecap="round" stroke-linejoin="round"/><polyline fill="none" points="-226.4616401905343,-138.7707637438211 -223.96164019051142,-139.44063672486087 -222.13151317155038,-141.27076374376156 -221.4616401904282,-143.77076374376236 -222.13151317146796,-146.27076374378524 -223.96164019036866,-148.10089076274627 -226.46164019036945,-148.77076374386846 -228.96164019039233,-148.1008907628287 -230.79176720935337,-146.270763743928 -231.46164019047555,-143.7707637439272 -230.7917672094358,-141.27076374390433 -228.9616401905351,-139.4406367249433 -226.4616401905343,-138.7707637438211" stroke="#00f" stroke-linecap="round" stroke-linejoin="round"/><polyline fill="none" points="155.61492403734192,-69.06072777328973 158.1149240373648,-69.73060075432949 159.94505105632584,-71.56072777323017 160.61492403744802,-74.06072777323097 159.94505105640826,-76.56072777325384 158.11492403750756,-78.39085479221488 155.61492403750677,-79.06072777333708 153.1149240374839,-78.39085479229732 151.28479701852285,-76.56072777339664 150.61492403740064,-74.06072777339584 151.2847970184404,-71.56072777337296 153.1149240373411,-69.73060075441192 155.6149240373419,-69.06072777328973" stroke="#ffa500" stroke-linecap="round" stroke-linejoin="round"/><polyline fill="none" points="-64.57846399458668,7.932354373750661 -62.0784639945638,7.2624813927108995 -60.24833697560276,5.432354373810211 -59.578463994480565,2.9323543738094138 -60.248336975520324,0.4323543737865272 -62.078463994421014,-1.3977726451745098 -64.57846399442181,-2.0676456262967093 -67.0784639944447,-1.3977726452569494 -68.90859101340574,0.43235437364373763 -69.57846399452794,2.932354373644535 -68.90859101348818,5.4323543736674225 -67.0784639945875,7.262481392628461 -64.5784639945867,7.932354373750662" stroke="#00f" stroke-linecap="round" stroke-linejoin="round"/><polyline fill="none" points="28.33731003733761,144.47341383614227 30.837310037360496,143.8035408551025 32.66743705632153,141.97341383620181 33.337310037443736,139.47341383620102 32.667437056403976,136.97341383617814 30.83731003750329,135.1432868172171 28.33731003750249,134.4734138360949 25.837310037479604,135.14328681713465 24.007183018518564,136.97341383603535 23.33731003739636,139.47341383603614 24.007183018436116,141.97341383605902 25.837310037336803,143.80354085502006 28.3373100373376,144.47341383614227" stroke="#ffa500" stroke-linecap="round" stroke-linejoin="round"/><polyline fill="none" points="-338.8919524898266,-173.81401920735757 -336.3919524898037,-174.48389218839733 -334.5618254708427,-176.31401920729803 -333.8919524897205,-178.81401920729883 -334.56182547076025,-181.3140192073217 -336.3919524896609,-183.14414622628274 -338.8919524896617,-183.81401920740495 -341.3919524896846,-183.1441462263652 -343.22207950864566,-181.3140192074645 -343.89195248976785,-178.8140192074637 -343.2220795087281,-176.31401920744082 -341.3919524898274,-174.48389218847979 -338.8919524898266,-173.81401920735757" stroke="#ffa500" stroke-linecap="round" stroke-linejoin="round"/><polyline fill="none" points="-155.04060845603968,-127.90283042102314 -152.5406084560168,-128.5727034020629 -150.71048143705576,-130.4028304209636 -150.04060845593355,-132.9028304209644 -150.7104814369733,-135.40283042098727 -152.540608455874,-137.2329574399483 -155.0406084558748,-137.90283042107052 -157.54060845589768,-137.23295744003076 -159.37073547485872,-135.40283042113006 -160.04060845598093,-132.90283042112927 -159.37073547494117,-130.4028304211064 -157.5406084560405,-128.57270340214535 -155.0406084560397,-127.90283042102314" stroke="#ffa500" stroke-linecap="round" stroke-linejoin="round"/><polyline fill="none" points="-263.16106270253283,23.95709744369716 -260.6610627025099,23.28722446265741 -258.8309356835489,21.457097443756727 -258.1610627024267,18.957097443755927 -258.83093568346646,16.457097443733034 -260.66106270236713,14.626970424771987 -263.16106270236793,13.957097443649776 -265.66106270239084,14.626970424689526 -267.4911897213519,16.457097443590207 -268.1610627024741,18.957097443591007 -267.49118972143435,21.4570974436139 -265.6610627025337,23.287224462574947 -263.1610627025329,23.957097443697158" stroke="#ffa500" stroke-linecap="round" stroke-linejoin="round"/><polyline fill="none" points="21.99712360152234,105.16418715419498 24.497123601545233,104.49431417315523 26.327250620506284,102.66418715425455 26.9971236016285,100.16418715425375 26.32725062058875,97.66418715423086 24.497123601688067,95.83406013526981 21.997123601687267,95.1641871541476 19.497123601664374,95.83406013518734 17.666996582703323,97.66418715408803 16.99712360158111,100.16418715408882 17.666996582620857,102.66418715411172 19.497123601521537,104.49431417307277 21.997123601522336,105.16418715419498" stroke="#00f" stroke-linecap="round" stroke-linejoin="round"/><polyline fill="none" points="45.03976130782069,231.35402599992057 47.539761307843584,230.6841530188808 49.369888326804634,228.85402599998014 50.03976130792685,226.35402599997934 49.36988832688711,223.85402599995643 47.539761307986424,222.02389898099537 45.03976130798563,221.35402599987316 42.539761307962735,222.02389898091292 40.709634289001684,223.8540259998136 40.039761307879466,226.35402599981438 40.70963428891921,228.8540259998373 42.53976130781989,230.68415301879836 45.03976130782068,231.35402599992057" stroke="#ffa500" stroke-linecap="round" stroke-linejoin="round"/><polyline fill="none" points="-164.5838697688223,-48.930283614851206 -162.0838697687994,-49.60015659589095 -160.25374274983832,-51.43028361479163 -159.5838697687161,-53.93028361479242 -160.25374274975584,-56.43028361481532 -162.0838697686565,-58.26041063377638 -164.5838697686573,-58.9302836148986 -167.08386976868022,-58.260410633858854 -168.91399678764128,-56.43028361495818 -169.5838697687635,-53.93028361495738 -168.91399678772376,-51.43028361493448 -167.0838697688231,-49.600156595973424 -164.5838697688223,-48.930283614851206" stroke="#00f" stroke-linecap="round" stroke-linejoin="round"/><polyline fill="none" points="-149.6888686354539,75.47822999027952 -147.188868635431,74.80835700923977 -145.35874161646993,72.97822999033909 -144.68886863534772,70.47822999033829 -145.35874161638745,67.9782299903154 -147.18886863528812,66.14810297135435 -149.6888686352889,65.47822999023212 -152.18886863531182,66.14810297127187 -154.01899565427289,67.97822999017255 -154.6888686353951,70.47822999017335 -154.01899565435536,72.97822999019624 -152.1888686354547,74.8083570091573 -149.6888686354539,75.47822999027953" stroke="#ffa500" stroke-linecap="round" stroke-linejoin="round"/><polyline fill="none" points="-41.6611982979598,-3.0152434942307167 -39.1611982979369,-3.685116475270456 -37.33107127897584,-5.515243494171132 -36.661198297853616,-8.01524349417193 -37.331071278893354,-10.51524349419483 -39.16119829779403,-12.34537051315589 -41.661198297794826,-13.015243494278115 -44.16119829781773,-12.345370513238377 -45.991325316778784,-10.515243494337701 -46.66119829790101,-8.015243494336904 -45.99132531686127,-5.515243494314003 -44.161198297960595,-3.6851164753529426 -41.6611982979598,-3.0152434942307167" stroke="#ffa500" stroke-linecap="round" stroke-linejoin="round"/><polyline fill="none" points="-273.54300908327616,-115.22131698697943 -271.04300908325325,-115.89118996801916 -269.2128820642922,-117.72131698691983 -268.54300908317,-120.22131698692063 -269.21288206420974,-122.72131698694353 -271.0430090831104,-124.5514440059046 -273.5430090831112,-125.22131698702682 -276.0430090831341,-124.5514440059871 -277.87313610209515,-122.72131698708642 -278.5430090832174,-120.22131698708563 -277.8731361021776,-117.72131698706272 -276.04300908327696,-115.89118996810166 -273.54300908327616,-115.22131698697943" stroke="#008000" stroke-linecap="round" stroke-linejoin="round"/><polyline fill="none" points="-274.23526095082303,-138.80524798781403 -271.7352609508001,-139.47512096885376 -269.9051339318391,-141.30524798775443 -269.23526095071685,-143.80524798775522 -269.9051339317566,-146.30524798777813 -271.7352609506573,-148.1353750067392 -274.2352609506581,-148.80524798786143 -276.735260950681,-148.1353750068217 -278.565387969642,-146.30524798792104 -279.23526095076426,-143.80524798792024 -278.5653879697245,-141.30524798789733 -276.73526095082383,-139.47512096893627 -274.23526095082303,-138.80524798781403" stroke="#00f" stroke-linecap="round" stroke-linejoin="round"/><polyline fill="none" points="87.42697198182185,267.49339233422546 89.92697198184476,266.8235193531857 91.75709900080582,264.99339233428503 92.42697198192805,262.49339233428424 91.75709900088832,259.99339233426133 89.92697198198765,258.16326531530024 87.42697198198685,257.493392334178 84.92697198196394,258.16326531521776 83.09684496300288,259.9933923341184 82.42697198188064,262.4933923341192 83.09684496292037,264.99339233414213 84.92697198182104,266.8235193531032 87.42697198182184,267.49339233422546" stroke="#00f" stroke-linecap="round" stroke-linejoin="round"/><polyline fill="none" points="-257.85458924720393,-39.45696023850315 -255.35458924718102,-40.12683321954288 -253.52446222821996,-41.95696023844355 -252.85458924709772,-44.456960238444346 -253.52446222813745,-46.956960238467246 -255.35458924703812,-48.78708725742831 -257.8545892470389,-49.45696023855054 -260.3545892470618,-48.78708725751081 -262.1847162660229,-46.956960238610144 -262.85458924714516,-44.45696023860935 -262.18471626610545,-41.95696023858644 -260.3545892472048,-40.12683321962537 -257.854589247204,-39.45696023850313" stroke="#00f" stroke-linecap="round" stroke-linejoin="round"/><polyline fill="none" points="126.56825843412147,166.5178757129191 129.06825843414438,165.84800273187938 130.89838545310545,164.0178757129787 131.5682584342277,161.5178757129779 130.89838545318796,159.017875712955 129.0682584342873,157.18774869399394 126.56825843428649,156.5178757128717 124.06825843426358,157.18774869391143 122.23813141530252,159.0178757128121 121.56825843418028,161.5178757128129 122.23813141522001,164.0178757128358 124.06825843412068,165.84800273179687 126.56825843412147,166.5178757129191" stroke="#ffa500" stroke-linecap="round" stroke-linejoin="round"/><polyline fill="none" points="-230.6180312097411,-76.21307586330242 -228.1180312097182,-76.88294884434215 -226.28790419075713,-78.71307586324282 -225.6180312096349,-81.21307586324362 -226.28790419067462,-83.71307586326652 -228.1180312095753,-85.5432028822276 -230.6180312095761,-86.21307586334984 -233.118031209599,-85.54320288231011 -234.94815822856006,-83.71307586340944 -235.6180312096823,-81.21307586340865 -234.94815822864257,-78.71307586338574 -233.1180312097419,-76.88294884442466 -230.6180312097411,-76.21307586330242" stroke="#ffa500" stroke-linecap="round" stroke-linejoin="round"/><polyline fill="none" points="103.21309035326485,-105.06879207301891 105.71309035328775,-105.73866505405863 107.54321737224883,-107.5687920729593 108.21309035337107,-110.0687920729601 107.54321737233136,-112.568792072983 105.71309035343069,-114.39891909194408 103.21309035342989,-115.06879207306632 100.71309035340698,-114.3989190920266 98.8829633344459,-112.56879207312593 98.21309035332366,-110.06879207312514 98.88296333436338,-107.56879207310223 100.71309035326405,-105.73866505414115 103.21309035326485,-105.06879207301891" stroke="#ffa500" stroke-linecap="round" stroke-linejoin="round"/><polyline fill="none" points="-234.82789944289505,106.72967729119108 -232.32789944287214,106.05980431015136 -230.49777242391107,104.2296772912507 -229.82789944278883,101.7296772912499 -230.49777242382856,99.22967729122699 -232.32789944272923,97.39955027226591 -234.82789944273003,96.72967729114366 -237.32789944275294,97.39955027218338 -239.158026461714,99.22967729108404 -239.82789944283624,101.72967729108484 -239.1580264617965,104.22967729110775 -237.32789944289584,106.05980431006883 -234.82789944289505,106.72967729119108" stroke="#ffa500" stroke-linecap="round" stroke-linejoin="round"/><polyline fill="none" points="37.33840123785195,-77.99007311521727 39.83840123787486,-78.65994609625699 41.66852825683594,-80.49007311515766 42.33840123795819,-82.99007311515845 41.66852825691847,-85.49007311518136 39.83840123801781,-87.32020013414244 37.33840123801701,-87.99007311526469 34.8384012379941,-87.32020013422498 33.00827421903302,-85.49007311532431 32.33840123791077,-82.99007311532351 33.00827421895049,-80.4900731153006 34.83840123785115,-78.65994609633952 37.33840123785195,-77.99007311521727" stroke="#ffa500" stroke-linecap="round" stroke-linejoin="round"/><polyline fill="none" points="-335.43299049063114,-95.80775036372226 -332.93299049060823,-96.47762334476198 -331.10286347164714,-98.30775036366265 -330.4329904905249,-100.80775036366344 -331.1028634715646,-103.30775036368635 -332.9329904904653,-105.13787738264743 -335.43299049046607,-105.80775036376969 -337.932990490489,-105.13787738272997 -339.76311750945007,-103.30775036382931 -340.4329904905723,-100.80775036382852 -339.7631175095326,-98.30775036380561 -337.93299049063194,-96.47762334484453 -335.43299049063114,-95.80775036372228" stroke="#008000" stroke-linecap="round" stroke-linejoin="round"/><polyline fill="none" points="-182.86286943788676,50.476409397324844 -180.36286943786385,49.806536416285134 -178.53274241890276,47.97640939738447 -177.8628694377805,45.47640939738368 -178.5327424188202,42.97640939736076 -180.36286943772086,41.146282378399675 -182.86286943772166,40.47640939727742 -185.36286943774456,41.14628237831713 -187.19299645670566,42.97640939721779 -187.86286943782792,45.47640939721859 -187.19299645678822,47.976409397241504 -185.36286943788755,49.80653641620259 -182.86286943788676,50.476409397324844" stroke="#00f" stroke-linecap="round" stroke-linejoin="round"/><polyline fill="none" points="-139.6185509182523,-39.54911384308408 -137.1185509182294,-40.21898682412379 -135.2884238992683,-42.04911384302445 -134.61855091814604,-44.549113843025246 -135.28842389918574,-47.04911384304816 -137.1185509180864,-48.87924086200925 -139.6185509180872,-49.54911384313151 -142.11855091811012,-48.8792408620918 -143.9486779370712,-47.049113843191144 -144.61855091819348,-44.54911384319035 -143.94867793715378,-42.04911384316743 -142.1185509182531,-40.21898682420635 -139.6185509182523,-39.549113843084086" stroke="#ffa500" stroke-linecap="round" stroke-linejoin="round"/><polyline fill="none" points="79.29712376195548,147.80728327711572 81.7971237619784,147.137410296076 83.62725078093949,145.30728327717534 84.29712376206174,142.80728327717455 83.62725078102204,140.30728327715164 81.79712376212139,138.47715625819055 79.29712376212059,137.80728327706828 76.79712376209767,138.47715625810798 74.96699674313658,140.30728327700865 74.29712376201431,142.80728327700945 74.96699674305401,145.30728327703235 76.79712376195467,147.13741029599345 79.29712376195546,147.80728327711572" stroke="#00f" stroke-linecap="round" stroke-linejoin="round"/><polyline fill="none" points="-434.7160356028721,-72.94959284674968 -432.2160356028492,-73.61946582778938 -430.3859085838881,-75.44959284669004 -429.7160356027659,-77.94959284669083 -430.3859085838056,-80.44959284671376 -432.21603560270626,-82.27971986567485 -434.71603560270705,-82.94959284679712 -437.21603560272996,-82.27971986575741 -439.04616262169105,-80.44959284685676 -439.7160356028133,-77.94959284685596 -439.0461626217736,-75.44959284683304 -437.2160356028729,-73.61946582787195 -434.7160356028721,-72.94959284674968" stroke="#ffa500" stroke-linecap="round" stroke-linejoin="round"/><polyline fill="none" points="-227.25055118965372,83.21249241751175 -224.7505511896308,82.54261943647205 -222.92042417066972,80.7124924175714 -222.25055118954745,78.2124924175706 -222.92042417058715,75.71249241754768 -224.7505511894878,73.88236539858659 -227.2505511894886,73.21249241746432 -229.7505511895115,73.88236539850402 -231.5806782084726,75.71249241740468 -232.25055118959486,78.21249241740547 -231.58067820855516,80.7124924174284 -229.75055118965452,82.54261943638949 -227.25055118965372,83.21249241751175" stroke="#ffa500" stroke-linecap="round" stroke-linejoin="round"/><polyline fill="none" points="-288.6442527635274,60.24004947243912 -286.1442527635045,59.570176491399415 -284.3141257445434,57.74004947249876 -283.6442527634211,55.240049472497965 -284.3141257444608,52.74004947247504 -286.14425276336146,50.90992245351394 -288.64425276336226,50.240049472391675 -291.14425276338517,50.90992245343138 -292.97437978234626,52.74004947233203 -293.64425276346856,55.24004947233283 -292.97437978242885,57.74004947235575 -291.1442527635282,59.57017649131685 -288.6442527635274,60.24004947243912" stroke="#ffa500" stroke-linecap="round" stroke-linejoin="round"/><polyline fill="none" points="-260.7074437232452,-110.38107275528395 -258.2074437232223,-111.05094573632365 -256.3773167042612,-112.88107275522431 -255.70744372313894,-115.3810727552251 -256.3773167041786,-117.88107275524803 -258.2074437230793,-119.71119977420913 -260.7074437230801,-120.3810727553314 -263.207443723103,-119.7111997742917 -265.0375707420641,-117.88107275539105 -265.7074437231864,-115.38107275539025 -265.03757074214667,-112.88107275536733 -263.207443723246,-111.05094573640622 -260.7074437232452,-110.38107275528395" stroke="#008000" stroke-linecap="round" stroke-linejoin="round"/><polyline fill="none" points="-386.1409037699981,-127.75926581227804 -383.6409037699752,-128.42913879331775 -381.8107767510141,-130.2592658122184 -381.1409037698918,-132.75926581221918 -381.8107767509315,-135.25926581224212 -383.64090376983216,-137.0893928312032 -386.14090376983296,-137.75926581232548 -388.64090376985587,-137.08939283128578 -390.47103078881696,-135.25926581238514 -391.14090376993926,-132.75926581238434 -390.47103078889955,-130.2592658123614 -388.6409037699989,-128.4291387934003 -386.1409037699981,-127.75926581227803" stroke="#ffa500" stroke-linecap="round" stroke-linejoin="round"/><polyline fill="none" points="-294.20063999832144,-136.2238722803226 -291.7006399982985,-136.8937452613623 -289.87051297933743,-138.72387228026295 -289.20063999821514,-141.22387228026375 -289.87051297925484,-143.72387228028668 -291.7006399981555,-145.55399929924778 -294.2006399981563,-146.22387228037005 -296.7006399981792,-145.55399929933034 -298.5307670171403,-143.7238722804297 -299.2006399982626,-141.2238722804289 -298.5307670172229,-138.72387228040597 -296.70063999832223,-136.89374526144485 -294.20063999832144,-136.22387228032258" stroke="#00f" stroke-linecap="round" stroke-linejoin="round"/><polyline fill="none" points="-13.804958129530528,-163.46509384792546 -11.304958129507598,-164.13496682896516 -9.474831110546491,-165.9650938478658 -8.804958129424211,-168.4650938478666 -9.474831110463903,-170.96509384788953 -11.30495812936455,-172.79522086685066 -13.80495812936535,-173.46509384797292 -16.30495812938828,-172.79522086693322 -18.13508514834939,-170.96509384803258 -18.80495812947167,-168.46509384803178 -18.135085148431983,-165.96509384800885 -16.304958129531336,-164.13496682904773 -13.804958129530537,-163.46509384792543" stroke="#00f" stroke-linecap="round" stroke-linejoin="round"/><polyline fill="none" points="-376.0027490118923,-76.19276665848142 -373.5027490118694,-76.8626396395211 -371.6726219929083,-78.69276665842176 -371.002749011786,-81.19276665842256 -371.6726219928257,-83.69276665844549 -373.5027490117264,-85.5228936774066 -376.0027490117272,-86.19276665852888 -378.5027490117501,-85.5228936774892 -380.3328760307112,-83.69276665858855 -381.0027490118335,-81.19276665858776 -380.3328760307938,-78.69276665856482 -378.5027490118931,-76.86263963960371 -376.0027490118923,-76.19276665848143" stroke="#00f" stroke-linecap="round" stroke-linejoin="round"/><polyline fill="none" points="46.21134831704698,113.0054418909464 48.71134831706991,112.33556890990671 50.54147533603103,110.50544189100607 51.211348317153316,108.00544189100528 50.54147533611363,105.50544189098234 48.71134831721298,103.67531487202123 46.21134831721218,103.00544189089895 43.71134831718924,103.67531487193864 41.88122129822813,105.50544189083928 41.21134831710584,108.00544189084007 41.88122129814552,110.50544189086301 43.711348317046166,112.33556890982413 46.21134831704697,113.00544189094641" stroke="#ffa500" stroke-linecap="round" stroke-linejoin="round"/><polyline fill="none" points="-306.81547068169624,-29.610219296117087 -304.31547068167333,-30.280092277156772 -302.48534366271224,-32.110219296057416 -301.81547068158994,-34.61021929605822 -302.48534366262965,-37.110219296081155 -304.3154706815303,-38.94034631504227 -306.8154706815311,-39.61021929616456 -309.315470681554,-38.94034631512488 -311.1455977005151,-37.11021929622423 -311.8154706816374,-34.610219296223434 -311.1455977005977,-32.1102192962005 -309.31547068169704,-30.28009227723938 -306.81547068169624,-29.610219296117087" stroke="#008000" stroke-linecap="round" stroke-linejoin="round"/><polyline fill="none" points="-15.577529920742014,27.407316726249977 -13.07752992071908,26.737443745210296 -11.247402901757962,24.907316726309652 -10.57752992063567,22.407316726308853 -11.24740290167535,19.907316726285917 -13.077529920575993,18.0771897073248 -15.577529920576792,17.407316726202506 -18.077529920599726,18.077189707242187 -19.907656939560844,19.90731672614283 -20.577529920683137,22.40731672614363 -19.907656939643456,24.907316726166567 -18.077529920742812,26.73744374512769 -15.577529920742013,27.40731672624998" stroke="#ffa500" stroke-linecap="round" stroke-linejoin="round"/><polyline fill="none" points="55.96954211292929,-244.37333741340817 58.469542112952226,-245.04321039444784 60.29966913191335,-246.87333741334848 60.969542113035644,-249.37333741334928 60.29966913199596,-251.8733374133722 58.46954211309532,-253.70346443233333 55.96954211309452,-254.37333741345563 53.46954211307158,-253.70346443241596 51.63941509411046,-251.87333741351532 50.969542112988165,-249.37333741351452 51.63941509402784,-246.87333741349158 53.46954211292848,-245.04321039453046 55.969542112929275,-244.37333741340817" stroke="#ffa500" stroke-linecap="round" stroke-linejoin="round"/><polyline fill="none" points="48.3552950421273,276.6068032481946 50.85529504215024,275.9369302671549 52.68542206111136,274.1068032482542 53.35529504223366,271.6068032482534 52.68542206119398,269.10680324823045 50.85529504229334,267.2766762292693 48.35529504229254,266.606803248147 45.8552950422696,267.2766762291867 44.02516802330848,269.1068032480873 43.355295042186185,271.6068032480881 44.02516802322586,274.1068032481111 45.8552950421265,275.9369302670722 48.355295042127295,276.6068032481945" stroke="#ffa500" stroke-linecap="round" stroke-linejoin="round"/><polyline fill="none" points="227.44946389938784,-151.74068836199172 229.94946389941077,-152.4105613430314 231.7795909183719,-154.24068836193203 232.4494638994942,-156.74068836193283 231.77959091845452,-159.24068836195576 229.94946389955388,-161.07081538091688 227.44946389955308,-161.74068836203918 224.94946389953014,-161.0708153809995 223.11933688056902,-159.24068836209887 222.44946389944673,-156.74068836209807 223.1193368804864,-154.24068836207513 224.94946389938704,-152.410561343114 227.44946389938784,-151.74068836199172" stroke="#ffa500" stroke-linecap="round" stroke-linejoin="round"/><polyline fill="none" points="14.397562563171658,-172.96637848651508 16.897562563194597,-173.63625146755476 18.727689582155726,-175.4663784864554 19.39756256327803,-177.9663784864562 18.72768958223836,-180.46637848647913 16.897562563337722,-182.29650550544025 14.397562563336923,-182.96637848656255 11.897562563313981,-182.29650550552287 10.06743554435285,-180.46637848662223 9.397562563230546,-177.96637848662144 10.067435544270214,-175.4663784865985 11.897562563170851,-173.63625146763738 14.39756256317165,-172.96637848651508" stroke="#ffa500" stroke-linecap="round" stroke-linejoin="round"/><polyline fill="none" points="-17.178431390003553,-126.53133970684442 -14.678431389980611,-127.2012126878841 -12.84830437101948,-129.03133970678473 -12.178431389897174,-131.53133970678553 -12.848304370936843,-134.03133970680847 -14.678431389837478,-135.8614667257696 -17.178431389838277,-136.53133970689188 -19.67843138986122,-135.8614667258522 -21.508558408822353,-134.03133970695157 -22.178431389944663,-131.53133970695077 -21.508558408904996,-129.03133970692784 -19.678431390004363,-127.2012126879667 -17.178431390003563,-126.53133970684439" stroke="#00f" stroke-linecap="round" stroke-linejoin="round"/><polyline fill="none" points="176.6990954365646,-138.20933316775267 179.19909543658753,-138.87920614879235 181.02922245554865,-140.709333167693 181.69909543667094,-143.20933316769379 181.02922245563127,-145.70933316771672 179.19909543673063,-147.53946018667784 176.69909543672983,-148.20933316780017 174.1990954367069,-147.5394601867605 172.36896841774578,-145.70933316785985 171.69909543662345,-143.20933316785906 172.36896841766313,-140.70933316783612 174.19909543656377,-138.87920614887497 176.69909543656456,-138.20933316775265" stroke="#00f" stroke-linecap="round" stroke-linejoin="round"/><polyline fill="none" points="-413.70204972667966,-67.35022554732782 -411.2020497266567,-68.02009852836748 -409.37192270769555,-69.85022554726812 -408.70204972657325,-72.35022554726892 -409.3719227076129,-74.85022554729187 -411.2020497265135,-76.680352566253 -413.7020497265143,-77.35022554737532 -416.20204972653727,-76.68035256633566 -418.0321767454984,-74.85022554743503 -418.7020497266207,-72.35022554743423 -418.03217674558107,-69.85022554741128 -416.20204972668046,-68.02009852845015 -413.70204972667966,-67.35022554732784" stroke="#00f" stroke-linecap="round" stroke-linejoin="round"/><polyline fill="none" points="96.88663805587407,-131.21616580255187 99.38663805589702,-131.88603878359154 101.21676507485816,-133.71616580249218 101.88663805598047,-136.21616580249298 101.21676507494081,-138.71616580251592 99.38663805604018,-140.54629282147707 96.88663805603939,-141.2161658025994 94.38663805601644,-140.54629282155972 92.5565110370553,-138.71616580265908 91.88663805593299,-136.21616580265828 92.55651103697265,-133.71616580263535 94.38663805587328,-131.8860387836742 96.88663805587407,-131.21616580255187" stroke="#00f" stroke-linecap="round" stroke-linejoin="round"/><polyline fill="none" points="-359.5496469501673,-148.83627219508645 -357.04964695014434,-149.5061451761261 -355.2195199311832,-151.33627219502674 -354.5496469500609,-153.83627219502753 -355.21951993110054,-156.33627219505047 -357.04964695000115,-158.16639921401162 -359.54964695000194,-158.83627219513394 -362.0496469500249,-158.1663992140943 -363.87977396898606,-156.33627219519366 -364.54964695010835,-153.83627219519286 -363.8797739690687,-151.33627219516993 -362.0496469501681,-149.50614517620878 -359.5496469501673,-148.83627219508645" stroke="#ffa500" stroke-linecap="round" stroke-linejoin="round"/><polyline fill="none" points="-293.9050912329049,115.26434193043592 -291.40509123288194,114.59446894939626 -289.5749642139208,112.76434193049563 -288.9050912327985,110.26434193049484 -289.57496421383814,107.76434193047189 -291.40509123273876,105.93421491151074 -293.90509123273955,105.26434193038841 -296.4050912327625,105.93421491142807 -298.23521825172367,107.7643419303287 -298.90509123284596,110.2643419303295 -298.2352182518063,112.76434193035244 -296.4050912329057,114.5944689493136 -293.9050912329049,115.26434193043592" stroke="#ffa500" stroke-linecap="round" stroke-linejoin="round"/><polyline fill="none" points="-266.7178781507958,-23.57097132899092 -264.21787815077283,-24.240844310030578 -262.3877511318117,-26.070971328931208 -261.7178781506894,-28.57097132893201 -262.38775113172903,-31.070971328954965 -264.21787815062964,-32.90109834791611 -266.71787815063044,-33.570971329038436 -269.2178781506534,-32.90109834799878 -271.04800516961456,-31.070971329098153 -271.7178781507369,-28.57097132909735 -271.04800516969726,-26.070971329074396 -269.21787815079665,-24.240844310113246 -266.71787815079585,-23.570971328990918" stroke="#00f" stroke-linecap="round" stroke-linejoin="round"/><polyline fill="none" points="-321.01353090164764,-76.04280748829623 -318.5135309016247,-76.71268046933588 -316.6834038826635,-78.5428074882365 -316.0135309015412,-81.0428074882373 -316.6834038825808,-83.54280748826025 -318.51353090148143,-85.3729345072214 -321.0135309014822,-86.04280748834373 -323.5135309015052,-85.37293450730408 -325.34365792046634,-83.54280748840345 -326.0135309015887,-81.04280748840266 -325.34365792054905,-78.54280748837971 -323.51353090164844,-76.71268046941856 -321.01353090164764,-76.04280748829623" stroke="#008000" stroke-linecap="round" stroke-linejoin="round"/><polyline fill="none" points="160.39957509331484,-109.0638040289319 162.8995750933378,-109.73367700997154 164.72970211229895,-111.56380402887217 165.39957509342128,-114.06380402887297 164.72970211238163,-116.56380402889592 162.89957509348102,-118.39393104785707 160.39957509348022,-119.06380402897939 157.89957509345726,-118.39393104793974 156.0694480744961,-116.56380402903912 155.39957509337378,-114.06380402903832 156.06944807441343,-111.56380402901537 157.89957509331404,-109.73367701005422 160.39957509331484,-109.06380402893188" stroke="#ffa500" stroke-linecap="round" stroke-linejoin="round"/><polyline fill="none" points="78.95073473396366,-215.78108303418585 81.45073473398661,-216.4509560152255 83.28086175294776,-218.2810830341261 83.9507347340701,-220.7810830341269 83.28086175303045,-223.28108303414987 81.45073473412982,-225.11121005311102 78.95073473412903,-225.78108303423335 76.45073473410608,-225.1112100531937 74.62060771514493,-223.2810830342931 73.95073473402259,-220.7810830342923 74.62060771506223,-218.28108303426933 76.45073473396286,-216.45095601530818 78.95073473396366,-215.78108303418585" stroke="#ffa500" stroke-linecap="round" stroke-linejoin="round"/><polyline fill="none" points="-333.5301125424628,-128.01780731474724 -331.03011254243984,-128.6876802957869 -329.1999855234787,-130.5178073146875 -328.53011254235633,-133.0178073146883 -329.199985523396,-135.51780731471126 -331.0301125422966,-137.3479343336724 -333.5301125422974,-138.01780731479474 -336.03011254232035,-137.3479343337551 -337.8602395612815,-135.51780731485448 -338.53011254240386,-133.01780731485368 -337.8602395613642,-130.51780731483072 -336.0301125424636,-128.68768029586957 -333.5301125424628,-128.01780731474724" stroke="#00f" stroke-linecap="round" stroke-linejoin="round"/><polyline fill="none" points="52.83772955117581,-156.43043778772036 55.33772955119877,-157.10031076876 57.16785657015993,-158.93043778766062 57.837729551282266,-161.43043778766142 57.16785657024263,-163.93043778768438 55.33772955134201,-165.76056480664553 52.837729551341205,-166.4304377877679 50.33772955131825,-165.76056480672824 48.50760253235709,-163.93043778782763 47.83772955123475,-161.43043778782683 48.50760253227439,-158.93043778780387 50.33772955117501,-157.10031076884272 52.83772955117581,-156.43043778772036" stroke="#00f" stroke-linecap="round" stroke-linejoin="round"/><polyline fill="none" points="37.197691709572844,-114.84353575542507 39.6976917095958,-115.51340873646471 41.527818728556966,-117.34353575536534 42.197691709679304,-119.84353575536613 41.527818728639666,-122.3435357553891 39.69769170973905,-124.17366277435026 37.197691709738244,-124.8435357554726 34.69769170971528,-124.17366277443296 32.867564690754115,-122.34353575553233 32.19769170963177,-119.84353575553153 32.86756469067141,-117.34353575550857 34.69769170957203,-115.5134087365474 37.19769170957283,-114.84353575542507" stroke="#ffa500" stroke-linecap="round" stroke-linejoin="round"/><polyline fill="none" points="-266.65378432274196,91.24404611430309 -264.153784322719,90.57417313326346 -262.32365730375784,88.74404611436283 -261.6537843226355,86.24404611436204 -262.32365730367513,83.74404611433907 -264.15378432257575,81.9139190953779 -266.65378432257654,81.24404611425557 -269.1537843225995,81.9139190952952 -270.98391134156066,83.74404611419581 -271.653784322683,86.2440461141966 -270.98391134164336,88.74404611421957 -269.15378432274275,90.57417313318074 -266.65378432274196,91.24404611430309" stroke="#ffa500" stroke-linecap="round" stroke-linejoin="round"/><polyline fill="none" points="-341.83978477308386,-95.69233937804076 -339.3397847730609,-96.36221235908039 -337.50965775409975,-98.192339377981 -336.8397847729774,-100.6923393779818 -337.50965775401704,-103.19233937800476 -339.33978477291765,-105.02246639696592 -341.83978477291845,-105.69233937808828 -344.3397847729414,-105.02246639704865 -346.16991179190256,-103.19233937814803 -346.8397847730249,-100.69233937814724 -346.16991179198527,-98.19233937812427 -344.33978477308466,-96.36221235916311 -341.83978477308386,-95.69233937804076" stroke="#008000" stroke-linecap="round" stroke-linejoin="round"/><polyline fill="none" points="-228.2417310420435,-58.16866918669494 -225.74173104202055,-58.83854216773457 -223.91160402305937,-60.66866918663519 -223.24173104193702,-63.168669186635995 -223.91160402297666,-65.66866918665896 -225.74173104187727,-67.49879620562012 -228.24173104187807,-68.16866918674248 -230.74173104190103,-67.49879620570285 -232.5718580608622,-65.66866918680223 -233.24173104198456,-63.16866918680143 -232.57185806094495,-60.668669186778466 -230.74173104204434,-58.838542167817295 -228.24173104204354,-58.16866918669494" stroke="#ffa500" stroke-linecap="round" stroke-linejoin="round"/><polyline fill="none" points="-244.26110802776728,-111.68810537981918 -241.7611080277443,-112.35797836085881 -239.93098100878314,-114.18810537975942 -239.26110802766078,-116.68810537976022 -239.9309810087004,-119.18810537978318 -241.761108027601,-121.01823239874436 -244.2611080276018,-121.68810537986671 -246.76110802762477,-121.01823239882708 -248.59123504658595,-119.18810537992647 -249.2611080277083,-116.68810537992567 -248.5912350466687,-114.18810537990271 -246.76110802776807,-112.35797836094153 -244.26110802776728,-111.68810537981918" stroke="#ffa500" stroke-linecap="round" stroke-linejoin="round"/><polyline fill="none" points="-286.1903540552558,-118.89786925730805 -283.69035405523283,-119.56774223834768 -281.8602270362717,-121.39786925724829 -281.1903540551493,-123.89786925724908 -281.860227036189,-126.39786925727205 -283.6903540550896,-128.22799627623323 -286.1903540550904,-128.89786925735558 -288.69035405511335,-128.22799627631596 -290.5204810740745,-126.39786925741535 -291.19035405519685,-123.89786925741456 -290.5204810741572,-121.39786925739159 -288.6903540552566,-119.56774223843041 -286.1903540552558,-118.89786925730806" stroke="#00f" stroke-linecap="round" stroke-linejoin="round"/><polyline fill="none" points="79.3947467103378,253.1446673938517 81.89474671036076,252.4747944128121 83.72487372932194,250.64466739391148 84.3947467104443,248.14466739391068 83.72487372940466,245.64466739388772 81.89474671050405,243.81454037492654 79.39474671050326,243.14466739380418 76.89474671048029,243.8145403748438 75.06461969151911,245.6446673937444 74.39474671039676,248.1446673937452 75.06461969143638,250.64466739376817 76.89474671033699,252.47479441272935 79.39474671033778,253.1446673938517" stroke="#ffa500" stroke-linecap="round" stroke-linejoin="round"/><polyline fill="none" points="-241.19849664733272,-15.948161606142435 -238.69849664730975,-16.61803458718206 -236.86836962834857,-18.44816160608267 -236.19849664722622,-20.948161606083474 -236.86836962826584,-23.448161606106446 -238.69849664716645,-25.278288625067624 -241.19849664716725,-25.948161606189984 -243.6984966471902,-25.278288625150363 -245.5286236661514,-23.44816160624975 -246.19849664727374,-20.94816160624895 -245.52862366623413,-18.448161606225977 -243.6984966473335,-16.618034587264795 -241.19849664733272,-15.948161606142433" stroke="#ffa500" stroke-linecap="round" stroke-linejoin="round"/></svg>