<?xml version="1.0" ?><!DOCTYPE svg  PUBLIC '-//W3C//DTD SVG 1.1//EN'  'http://www.w3.org/Graphics/SVG/1.1/DTD/svg11.dtd'><svg height="409.000" viewBox="-200.000 -199.000 404.000 409.000" width="404.000" xmlns="http://www.w3.org/2000/svg"><line fill="none" stroke="none" stroke-linecap="round" stroke-width="2.0" x1="0.0" x2="0.0" y1="0.0" y2="0.0"/><polygon fill="none" fill-rule="evenodd" points="0.0,0.0 0.0,0.0 0.0,0.0" stroke-linejoin="round"/><polyline fill="none" points="-2.0303750018208397,-166.39632607955193 0.46962499817947245,-167.06619906062923 2.2997520171021915,-168.89632607955113 2.9696249981805973,-171.39632607955116 2.299752017103302,-173.89632607955147 0.4696249981813958,-175.7264530984742 -2.0303750018186193,-176.3963260795526 -4.530375001818932,-175.7264530984753 -6.360502020741652,-173.8963260795534 -7.030375001820059,-171.39632607955338 -6.360502020742764,-168.89632607955306 -4.530375001820858,-167.06619906063034 -2.0303750018208433,-166.39632607955193" stroke="#ffa500" stroke-linecap="round" stroke-linejoin="round"/><polyline fill="none" points="15.034938563249858,-166.56891938053775 17.534938563250172,-167.23879236161505 19.365065582172893,-169.06891938053695 20.034938563251302,-171.56891938053698 19.365065582174008,-174.0689193805373 17.534938563252105,-175.89904639946002 15.03493856325209,-176.56891938053843 12.534938563251776,-175.89904639946113 10.704811544329054,-174.06891938053923 10.034938563250645,-171.5689193805392 10.704811544327937,-169.0689193805389 12.534938563249842,-167.23879236161616 15.034938563249856,-166.56891938053775" stroke="#ffa500" stroke-linecap="round" stroke-linejoin="round"/><polyline fill="none" points="31.983912086276238,-178.21977770187019 34.483912086276554,-178.8896506829475 36.31403910519928,-180.7197777018694 36.98391208627769,-183.21977770186942 36.3140391052004,-185.71977770186973 34.483912086278494,-187.54990472079245 31.98391208627848,-188.21977770187087 29.483912086278163,-187.5499047207936 27.65378506735544,-185.7197777018717 26.983912086277027,-183.21977770187166 27.653785067354317,-180.71977770187135 29.48391208627622,-178.88965068294863 31.983912086276234,-178.2197777018702" stroke="#ffa500" stroke-linecap="round" stroke-linejoin="round"/><polyline fill="none" points="35.9842080178106,-169.7891895047933 38.484208017810914,-170.4590624858706 40.31433503673364,-172.2891895047925 40.98420801781205,-174.78918950479252 40.31433503673476,-177.28918950479283 38.48420801781286,-179.11931652371555 35.98420801781285,-179.78918950479397 33.48420801781253,-179.1193165237167 31.6540809988898,-177.2891895047948 30.984208017811383,-174.78918950479476 31.65408099888867,-172.28918950479445 33.48420801781057,-170.45906248587173 35.98420801781059,-169.7891895047933" stroke="#ffa500" stroke-linecap="round" stroke-linejoin="round"/><polyline fill="none" points="-27.184754465196185,35.60767244152952 -24.684754465195866,34.93779946045224 -22.85462744627314,33.10767244153034 -22.18475446519472,30.607672441530326 -22.85462744627201,28.107672441530006 -24.684754465193908,26.277545422607275 -27.184754465193922,25.60767244152886 -29.684754465194242,26.277545422606146 -31.514881484116973,28.107672441528045 -32.18475446519539,30.60767244152806 -31.514881484118106,33.10767244152838 -29.684754465196207,34.93779946045111 -27.184754465196193,35.60767244152953" stroke="#00f" stroke-linecap="round" stroke-linejoin="round"/><polyline fill="none" points="9.650681556497117,-101.99694932397199 12.150681556497437,-102.66682230504928 13.980808575420168,-104.49694932397118 14.650681556498588,-106.9969493239712 13.980808575421305,-109.4969493239715 12.150681556499405,-111.32707634289424 9.65068155649939,-111.99694932397267 7.15068155649907,-111.3270763428954 5.320554537576337,-109.4969493239735 4.650681556497916,-106.99694932397348 5.320554537575198,-104.49694932397315 7.150681556497097,-102.66682230505042 9.650681556497112,-101.99694932397199" stroke="#00f" stroke-linecap="round" stroke-linejoin="round"/><polyline fill="none" points="38.31867168095785,-165.41222139238872 40.81867168095817,-166.082094373466 42.6487986998809,-167.9122213923879 43.31867168095932,-170.41222139238792 42.648798699882036,-172.91222139238823 40.818671680960136,-174.74234841131096 38.31867168096012,-175.41222139238937 35.8186716809598,-174.7423484113121 33.98854466203707,-172.9122213923902 33.318671680958644,-170.41222139239017 33.98854466203593,-167.91222139238985 35.81867168095783,-166.08209437346713 38.31867168095784,-165.41222139238872" stroke="#ffa500" stroke-linecap="round" stroke-linejoin="round"/><polyline fill="none" points="85.42028140146417,-169.42842952555037 87.92028140146449,-170.09830250662765 89.75040842038723,-171.92842952554955 90.42028140146566,-174.42842952554957 89.75040842038838,-176.9284295255499 87.92028140146648,-178.7585565444726 85.42028140146647,-179.42842952555102 82.92028140146614,-178.75855654447375 81.0901543825434,-176.92842952555185 80.42028140146498,-174.42842952555182 81.09015438254225,-171.9284295255515 82.92028140146415,-170.09830250662878 85.42028140146417,-169.42842952555037" stroke="#ffa500" stroke-linecap="round" stroke-linejoin="round"/><polyline fill="none" points="19.56478264338853,-90.90471897015533 22.064782643388853,-91.5745919512326 23.89490966231159,-93.4047189701545 24.564782643390018,-95.90471897015452 23.89490966231274,-98.40471897015485 22.064782643390846,-100.23484598907758 19.56478264339083,-100.90471897015601 17.064782643390508,-100.23484598907874 15.234655624467768,-98.40471897015684 14.56478264338934,-95.90471897015682 15.234655624466615,-93.4047189701565 17.06478264338851,-91.57459195123376 19.564782643388526,-90.90471897015533" stroke="#00f" stroke-linecap="round" stroke-linejoin="round"/><polyline fill="none" points="52.15628816345227,-63.688530459448415 54.656288163452594,-64.35840344052569 56.48641518237533,-66.18853045944759 57.15628816345376,-68.6885304594476 56.48641518237648,-71.18853045944793 54.65628816345459,-73.01865747837067 52.156288163454576,-73.6885304594491 49.65628816345425,-73.01865747837182 47.82616114453151,-71.18853045944992 47.15628816345308,-68.68853045944991 47.82616114453035,-66.18853045944958 49.656288163452245,-64.35840344052684 52.15628816345226,-63.68853045944841" stroke="#00f" stroke-linecap="round" stroke-linejoin="round"/><polyline fill="none" points="92.80741438864564,-140.81376391293514 95.30741438864597,-141.48363689401242 97.1375414075687,-143.31376391293432 97.80741438864713,-145.81376391293435 97.13754140756986,-148.31376391293466 95.30741438864796,-150.1438909318574 92.80741438864794,-150.81376391293585 90.30741438864762,-150.14389093185858 88.47728736972488,-148.31376391293668 87.80741438864645,-145.81376391293665 88.47728736972373,-143.3137639129363 90.30741438864563,-141.48363689401356 92.80741438864564,-140.81376391293512" stroke="#ffa500" stroke-linecap="round" stroke-linejoin="round"/><polyline fill="none" points="109.14802360373966,-130.3588581633742 111.64802360373999,-131.02873114445148 113.47815062266272,-132.85885816337338 114.14802360374117,-135.3588581633734 113.47815062266389,-137.85885816337375 111.648023603742,-139.6889851822965 109.14802360374199,-140.35885816337495 106.64802360374166,-139.68898518229767 104.81789658481891,-137.85885816337577 104.14802360374047,-135.35885816337574 104.81789658481773,-132.8588581633754 106.64802360373962,-131.02873114445265 109.14802360373963,-130.3588581633742" stroke="#ffa500" stroke-linecap="round" stroke-linejoin="round"/><polyline fill="none" points="112.95287966456367,-145.17627894791244 115.452879664564,-145.8461519289897 117.28300668348675,-147.6762789479116 117.95287966456519,-150.17627894791164 117.28300668348793,-152.67627894791198 115.45287966456604,-154.50640596683473 112.95287966456603,-155.17627894791318 110.4528796645657,-154.5064059668359 108.62275264564295,-152.676278947914 107.9528796645645,-150.17627894791397 108.62275264564177,-147.67627894791363 110.45287966456365,-145.84615192899088 112.95287966456367,-145.17627894791244" stroke="#ffa500" stroke-linecap="round" stroke-linejoin="round"/><polyline fill="none" points="23.86760755183264,-9.143175456542389 26.367607551832972,-9.813048437619656 28.19773457075572,-11.643175456541547 28.867607551834162,-14.143175456541563 28.197734570756896,-16.643175456541893 26.367607551835007,-18.473302475464646 23.86760755183499,-19.143175456543087 21.36760755183466,-18.47330247546582 19.537480532911907,-16.643175456543933 18.867607551833466,-14.143175456543915 19.53748053291073,-11.643175456543583 21.36760755183262,-9.81304843762083 23.867607551832638,-9.143175456542387" stroke="#00f" stroke-linecap="round" stroke-linejoin="round"/><polyline fill="none" points="127.69066411001538,-108.92065414500281 130.19066411001572,-109.59052712608008 132.02079112893847,-111.42065414500196 132.6906641100169,-113.92065414500198 132.02079112893963,-116.4206541450023 130.19066411001774,-118.25078116392505 127.69066411001772,-118.9206541450035 125.1906641100174,-118.25078116392623 123.36053709109464,-116.42065414500435 122.6906641100162,-113.92065414500433 123.36053709109346,-111.42065414500401 125.19066411001535,-109.59052712608126 127.69066411001536,-108.92065414500281" stroke="#ffa500" stroke-linecap="round" stroke-linejoin="round"/><polyline fill="none" points="130.02490592152571,-111.59518328144885 132.52490592152606,-112.26505626252612 134.3550329404488,-114.095183281448 135.02490592152725,-116.59518328144802 134.35503294045,-119.09518328144836 132.5249059215281,-120.92531030037111 130.02490592152807,-121.59518328144955 127.52490592152773,-120.92531030037229 125.69477890260498,-119.0951832814504 125.02490592152654,-116.59518328145039 125.6947789026038,-114.09518328145005 127.52490592152569,-112.2650562625273 130.02490592152571,-111.59518328144884" stroke="#ffa500" stroke-linecap="round" stroke-linejoin="round"/><polyline fill="none" points="67.14502378633362,-39.782880611629935 69.64502378633397,-40.4527535927072 71.47515080525672,-42.28288061162908 72.14502378633517,-44.782880611629096 71.47515080525791,-47.28288061162943 69.64502378633603,-49.11300763055219 67.14502378633601,-49.78288061163064 64.64502378633567,-49.11300763055338 62.81489676741291,-47.2828806116315 62.14502378633446,-44.782880611631484 62.81489676741172,-42.28288061163115 64.64502378633361,-40.45275359270839 67.14502378633362,-39.78288061162994" stroke="#008000" stroke-linecap="round" stroke-linejoin="round"/><polyline fill="none" points="156.6052073675155,-84.8332865771473 159.10520736751585,-85.50315955822457 160.9353343864386,-87.33328657714645 161.60520736751704,-89.83328657714647 160.9353343864398,-92.33328657714681 159.10520736751792,-94.16341359606957 156.6052073675179,-94.83328657714803 154.10520736751755,-94.16341359607077 152.2750803485948,-92.33328657714888 151.60520736751636,-89.83328657714887 152.2750803485936,-87.33328657714853 154.10520736751548,-85.50315955822576 156.6052073675155,-84.8332865771473" stroke="#ffa500" stroke-linecap="round" stroke-linejoin="round"/><polyline fill="none" points="83.75181332051604,-46.59336581168989 86.25181332051638,-47.26323879276715 88.08194033943914,-49.09336581168903 88.7518133205176,-51.59336581168905 88.08194033944035,-54.09336581168939 86.25181332051847,-55.92349283061215 83.75181332051845,-56.5933658116906 81.25181332051811,-55.92349283061335 79.42168630159534,-54.09336581169146 78.75181332051689,-51.59336581169145 79.42168630159414,-49.09336581169111 81.25181332051602,-47.26323879276834 83.75181332051604,-46.593365811689885" stroke="#00f" stroke-linecap="round" stroke-linejoin="round"/><polyline fill="none" points="115.55721790360275,-66.03222632784296 118.05721790360309,-66.70209930892021 119.88734492252586,-68.5322263278421 120.55721790360431,-71.03222632784211 119.88734492252706,-73.53222632784245 118.05721790360518,-75.36235334676522 115.55721790360516,-76.03222632784367 113.05721790360482,-75.36235334676643 111.22709088468206,-73.53222632784454 110.5572179036036,-71.03222632784453 111.22709088468085,-68.53222632784419 113.05721790360273,-66.70209930892142 115.55721790360275,-66.03222632784296" stroke="#00f" stroke-linecap="round" stroke-linejoin="round"/><polyline fill="none" points="169.22303013518504,-68.56486570290106 171.72303013518538,-69.2347386839783 173.55315715410816,-71.06486570290019 174.22303013518663,-73.5648657029002 173.55315715410939,-76.06486570290055 171.7230301351875,-77.89499272182331 169.22303013518749,-78.56486570290177 166.72303013518714,-77.89499272182452 164.89290311626436,-76.06486570290264 164.2230301351859,-73.56486570290262 164.89290311626314,-71.06486570290228 166.723030135185,-69.23473868397951 169.22303013518504,-68.56486570290105" stroke="#ffa500" stroke-linecap="round" stroke-linejoin="round"/><polyline fill="none" points="164.72235088158442,-66.3782223495006 167.22235088158476,-67.04809533057785 169.05247790050754,-68.87822234949974 169.722350881586,-71.37822234949975 169.05247790050876,-73.87822234950009 167.2223508815869,-75.70834936842286 164.72235088158686,-76.37822234950133 162.22235088158652,-75.70834936842408 160.39222386266374,-73.8782223495022 159.72235088158527,-71.37822234950218 160.39222386266252,-68.87822234950184 162.2223508815844,-67.04809533057907 164.72235088158442,-66.3782223495006" stroke="#ffa500" stroke-linecap="round" stroke-linejoin="round"/><polyline fill="none" points="144.9236365192266,-52.06047657311266 147.42363651922693,-52.73034955418991 149.2537635381497,-54.560476573111785 149.92363651922818,-57.0604765731118 149.25376353815093,-59.56047657311214 147.42363651922906,-61.390603592034914 144.92363651922904,-62.060476573113384 142.4236365192287,-61.39060359203614 140.5935095003059,-59.560476573114265 139.92363651922744,-57.06047657311425 140.5935095003047,-54.5604765731139 142.42363651922656,-52.73034955419113 144.9236365192266,-52.06047657311266" stroke="#ffa500" stroke-linecap="round" stroke-linejoin="round"/><polyline fill="none" points="101.41234388779336,-20.775637602047983 103.9123438877937,-21.445510583125227 105.74247090671648,-23.275637602047105 106.41234388779495,-25.775637602047123 105.7424709067177,-28.275637602047468 103.91234388779583,-30.10576462097024 101.41234388779581,-30.77563760204871 98.91234388779547,-30.10576462097147 97.08221686887269,-28.275637602049592 96.41234388779422,-25.775637602049574 97.08221686887147,-23.27563760204923 98.91234388779334,-21.445510583126456 101.41234388779336,-20.775637602047986" stroke="#00f" stroke-linecap="round" stroke-linejoin="round"/><polyline fill="none" points="86.08191864246439,-11.529242214220758 88.58191864246473,-12.199115195298 90.41204566138751,-14.029242214219877 91.08191864246598,-16.529242214219895 90.41204566138873,-19.02924221422024 88.58191864246686,-20.859369233143017 86.08191864246685,-21.529242214221487 83.5819186424665,-20.859369233144246 81.75179162354372,-19.02924221422237 81.08191864246525,-16.529242214222354 81.75179162354249,-14.029242214222007 83.58191864246436,-12.19911519529923 86.08191864246437,-11.529242214220758" stroke="#00f" stroke-linecap="round" stroke-linejoin="round"/><polyline fill="none" points="109.18701851260504,-21.00989816591838 111.68701851260538,-21.67977114699562 113.51714553152816,-23.509898165917495 114.18701851260663,-26.009898165917512 113.5171455315294,-28.50989816591786 111.68701851260752,-30.340025184840638 109.18701851260751,-31.00989816591911 106.68701851260717,-30.340025184841874 104.85689149368439,-28.50989816592 104.18701851260592,-26.00989816591998 104.85689149368315,-23.509898165919633 106.68701851260502,-21.679771146996853 109.18701851260504,-21.00989816591838" stroke="#00f" stroke-linecap="round" stroke-linejoin="round"/><polyline fill="none" points="182.2056741494367,5.135022047604378 184.70567414943704,4.465149066527141 186.53580116835982,2.6350220476052675 187.2056741494383,0.1350220476052506 186.53580116836105,-2.364977952395098 184.70567414943918,-4.195104971317878 182.20567414943915,-4.864977952396354 179.7056741494388,-4.195104971319119 177.87554713051603,-2.364977952397246 177.20567414943756,0.1350220476027708 177.8755471305148,2.6350220476031203 179.70567414943667,4.465149066525902 182.2056741494367,5.13502204760438" stroke="#ffa500" stroke-linecap="round" stroke-linejoin="round"/><polyline fill="none" points="186.56628669040617,16.332401700069532 189.0662866904065,15.662528718992299 190.8964137093293,13.832401700070426 191.56628669040776,11.33240170007041 190.89641370933052,8.83240170007006 189.06628669040865,7.002274681147276 186.56628669040862,6.3324017000687975 184.06628669040828,7.002274681146031 182.2361596714855,8.832401700067903 181.56628669040703,11.33240170006792 182.23615967148424,13.83240170006827 184.06628669040612,15.662528718991055 186.56628669040614,16.332401700069536" stroke="#ffa500" stroke-linecap="round" stroke-linejoin="round"/><polyline fill="none" points="170.6883332335954,19.916174297584643 173.18833323359573,19.24630131650741 175.0184602525185,17.41617429758554 175.68833323359698,14.91617429758552 175.01846025251976,12.416174297585169 173.1883332335979,10.586047278662383 170.68833323359786,9.9161742975839 168.18833323359752,10.58604727866113 166.35820621467474,12.416174297583 165.68833323359627,14.916174297583016 166.3582062146735,17.416174297583368 168.18833323359536,19.246301316506155 170.6883332335954,19.91617429758464" stroke="#ffa500" stroke-linecap="round" stroke-linejoin="round"/><polyline fill="none" points="174.47413940328028,18.272552284569862 176.97413940328062,17.602679303492632 178.8042664222034,15.772552284570763 179.47413940328187,13.272552284570747 178.80426642220465,10.772552284570395 176.97413940328278,8.942425265647607 174.47413940328275,8.272552284569123 171.9741394032824,8.942425265646351 170.14401238435963,10.77255228456822 169.47413940328113,13.272552284568238 170.14401238435835,15.772552284568592 171.97413940328022,17.60267930349138 174.47413940328025,18.272552284569866" stroke="#ffa500" stroke-linecap="round" stroke-linejoin="round"/><polyline fill="none" points="151.17749071304394,29.36937291958377 153.67749071304428,28.699499938506545 155.50761773196706,26.869372919584677 156.17749071304556,24.36937291958466 155.50761773196834,21.869372919584304 153.67749071304647,20.039245900661513 151.17749071304644,19.369372919583025 148.6774907130461,20.03924590066025 146.84736369412332,21.86937291958212 146.17749071304482,24.369372919582137 146.84736369412204,26.869372919582492 148.6774907130439,28.699499938505284 151.17749071304394,29.36937291958377" stroke="#ffa500" stroke-linecap="round" stroke-linejoin="round"/><polyline fill="none" points="133.93471452516897,12.062689315026475 136.43471452516934,11.39281633394925 138.26484154409212,9.562689315027383 138.93471452517062,7.062689315027365 138.2648415440934,4.562689315027009 136.43471452517153,2.7325622961042155 133.9347145251715,2.062689315025726 131.43471452517113,2.73256229610295 129.60458750624835,4.562689315024817 128.93471452516985,7.0626893150248335 129.60458750624707,9.56268931502519 131.43471452516894,11.392816333947984 133.93471452516897,12.062689315026475" stroke="#00f" stroke-linecap="round" stroke-linejoin="round"/><polyline fill="none" points="93.07921829986984,15.231761775302514 95.57921829987019,14.561888794225291 97.40934531879299,12.731761775303426 98.07921829987148,10.231761775303408 97.40934531879427,7.73176177530305 95.5792182998724,5.901634756380255 93.07921829987238,5.231761775301763 90.57921829987202,5.901634756378985 88.74909128094923,7.731761775300851 88.07921829987073,10.231761775300868 88.74909128094795,12.731761775301226 90.57921829986982,14.561888794224023 93.07921829986984,15.231761775302516" stroke="#ffa500" stroke-linecap="round" stroke-linejoin="round"/><polyline fill="none" points="152.95194894944015,81.33395553242886 155.45194894944052,80.66408255135164 157.28207596836333,78.83395553242977 157.95194894944183,76.33395553242975 157.2820759683646,73.8339555324294 155.45194894944274,72.0038285135066 152.9519489494427,71.3339555324281 150.45194894944234,72.00382851350533 148.62182193051953,73.8339555324272 147.95194894944103,76.33395553242721 148.62182193051825,78.83395553242757 150.45194894944012,80.66408255135036 152.95194894944015,81.33395553242886" stroke="#ffa500" stroke-linecap="round" stroke-linejoin="round"/><polyline fill="none" points="159.95662459643202,84.69910990924593 162.4566245964324,84.02923692816871 164.2867516153552,82.19910990924684 164.9566245964337,79.69910990924683 164.28675161535648,77.19910990924647 162.4566245964346,75.36898289032368 159.95662459643458,74.69910990924518 157.4566245964342,75.3689828903224 155.6264975775114,77.19910990924426 154.9566245964329,79.69910990924427 155.62649757751012,82.19910990924464 157.456624596432,84.02923692816745 159.95662459643202,84.69910990924595" stroke="#ffa500" stroke-linecap="round" stroke-linejoin="round"/><polyline fill="none" points="43.35132379546526,44.66577596327063 45.851323795465625,43.995902982193414 47.68145081438843,42.16577596327155 48.351323795466925,39.66577596327153 47.681450814389706,37.165775963271166 45.85132379546784,35.335648944348364 43.35132379546782,34.665775963269866 40.85132379546746,35.335648944347085 39.021196776544656,37.16577596326895 38.35132379546616,39.66577596326897 39.02119677654337,42.16577596326933 40.851323795465234,43.995902982192135 43.351323795465255,44.66577596327063" stroke="#f00" stroke-linecap="round" stroke-linejoin="round"/><polyline fill="none" points="148.2335111258226,97.74901830220237 150.73351112582296,97.07914532112515 152.56363814474577,95.2490183022033 153.23351112582426,92.74901830220328 152.56363814474705,90.24901830220291 150.73351112582517,88.4188912832801 148.23351112582515,87.7490183022016 145.73351112582478,88.41889128327882 143.90338410690197,90.24901830220068 143.23351112582347,92.7490183022007 143.9033841069007,95.24901830220107 145.73351112582256,97.07914532112387 148.2335111258226,97.74901830220237" stroke="#ffa500" stroke-linecap="round" stroke-linejoin="round"/><polyline fill="none" points="139.08696783533983,88.74729760172305 141.5869678353402,88.07742462064584 143.417094854263,86.24729760172399 144.0869678353415,83.74729760172397 143.4170948542643,81.2472976017236 141.58696783534242,79.4171705828008 139.0869678353424,78.74729760172228 136.58696783534202,79.41717058279949 134.7568408164192,81.24729760172134 134.08696783534072,83.74729760172136 134.75684081641793,86.24729760172173 136.5869678353398,88.07742462064454 139.08696783533983,88.74729760172305" stroke="#ffa500" stroke-linecap="round" stroke-linejoin="round"/><polyline fill="none" points="159.83289336424468,112.31421197711666 162.33289336424505,111.64433899603945 164.16302038316786,109.8142119771176 164.83289336424636,107.31421197711758 164.16302038316914,104.81421197711721 162.33289336424727,102.9840849581944 159.83289336424724,102.31421197711589 157.33289336424687,102.9840849581931 155.50276634532406,104.81421197711495 154.83289336424556,107.31421197711497 155.50276634532278,109.81421197711533 157.33289336424465,111.64433899603814 159.83289336424468,112.31421197711666" stroke="#ffa500" stroke-linecap="round" stroke-linejoin="round"/><polyline fill="none" points="66.3834695507787,48.514847993044924 68.88346955077907,47.84497501196772 70.71359656970188,46.01484799304586 71.38346955078039,43.51484799304584 70.71359656970318,41.01484799304547 68.88346955078133,39.18472097412266 66.38346955078131,38.51484799304415 63.883469550780944,39.184720974121355 62.05334253185813,41.01484799304321 61.383469550779616,43.51484799304323 62.05334253185682,46.0148479930436 63.88346955077868,47.84497501196642 66.3834695507787,48.51484799304493" stroke="#00f" stroke-linecap="round" stroke-linejoin="round"/><polyline fill="none" points="145.75576273758287,123.99547251321928 148.25576273758324,123.32559953214208 150.08588975650605,121.49547251322022 150.75576273758458,118.99547251322021 150.08588975650738,116.49547251321984 148.25576273758554,114.66534549429703 145.7557627375855,113.99547251321852 143.25576273758514,114.66534549429572 141.42563571866233,116.49547251321758 140.7557627375838,118.99547251321759 141.425635718661,121.49547251321796 143.25576273758284,123.32559953214077 145.75576273758287,123.99547251321928" stroke="#ffa500" stroke-linecap="round" stroke-linejoin="round"/><polyline fill="none" points="126.97567128212351,137.25817695040539 129.4756712821239,136.5883039693282 131.3057983010467,134.75817695040635 131.97567128212523,132.25817695040632 131.30579830104804,129.75817695040595 129.4756712821262,127.92804993148313 126.97567128212619,127.25817695040462 124.47567128212582,127.92804993148182 122.64554426320299,129.75817695040368 121.97567128212448,132.2581769504037 122.64554426320169,134.75817695040408 124.47567128212354,136.5883039693269 126.97567128212356,137.2581769504054" stroke="#ffa500" stroke-linecap="round" stroke-linejoin="round"/><polyline fill="none" points="109.79538655637747,152.07734572178546 112.29538655637784,151.40747274070827 114.12551357530066,149.57734572178643 114.79538655637917,147.0773457217864 114.12551357530197,144.57734572178603 112.29538655638011,142.74721870286322 109.7953865563801,142.0773457217847 107.29538655637973,142.7472187028619 105.4652595374569,144.57734572178373 104.79538655637838,147.07734572178376 105.46525953745558,149.57734572178413 107.29538655637744,151.40747274070694 109.79538655637745,152.07734572178546" stroke="#ffa500" stroke-linecap="round" stroke-linejoin="round"/><polyline fill="none" points="103.97580461112543,163.36032201815146 106.4758046111258,162.69044903707427 108.30593163004862,160.86032201815243 108.97580461112715,158.3603220181524 108.30593163004995,155.86032201815203 106.4758046111281,154.03019499922922 103.97580461112808,153.3603220181507 101.47580461112771,154.0301949992279 99.64567759220489,155.86032201814973 98.97580461112636,158.36032201814976 99.64567759220355,160.86032201815013 101.47580461112541,162.69044903707294 103.97580461112543,163.36032201815146" stroke="#ffa500" stroke-linecap="round" stroke-linejoin="round"/><polyline fill="none" points="24.168552003862832,49.74518130444479 26.668552003863205,49.075308323367594 28.49867902278603,47.245181304445744 29.16855200386455,44.74518130444572 28.498679022787357,42.245181304445346 26.668552003865507,40.41505428552252 24.16855200386549,39.745181304443996 21.668552003865113,40.41505428552119 19.83842498494229,42.24518130444304 19.168552003863763,44.74518130444306 19.838424984940957,47.245181304443435 21.668552003862807,49.07530832336626 24.168552003862825,49.745181304444785" stroke="#00f" stroke-linecap="round" stroke-linejoin="round"/><polyline fill="none" points="25.950612566145683,96.13220547999886 28.45061256614606,95.46233249892167 30.280739585068886,93.63220547999981 30.950612566147413,91.1322054799998 30.280739585070222,88.63220547999941 28.450612566148372,86.80207846107659 25.95061256614835,86.13220547999806 23.450612566147974,86.80207846107525 21.620485547225147,88.6322054799971 20.95061256614662,91.13220547999711 21.62048554722381,93.6322054799975 23.45061256614566,95.46233249892032 25.95061256614568,96.13220547999885" stroke="#00f" stroke-linecap="round" stroke-linejoin="round"/><polyline fill="none" points="74.46607282300964,175.31380090445796 76.96607282301002,174.64392792338077 78.79619984193285,172.81380090445893 79.46607282301137,170.3138009044589 78.79619984193418,167.81380090445853 76.96607282301234,165.9836738855357 74.46607282301233,165.31380090445717 71.96607282301194,165.98367388553436 70.13594580408912,167.8138009044562 69.46607282301059,170.31380090445623 70.13594580408778,172.8138009044566 71.96607282300963,174.64392792337944 74.46607282300964,175.31380090445796" stroke="#ffa500" stroke-linecap="round" stroke-linejoin="round"/><polyline fill="none" points="70.36170240229167,167.4184616587197 72.86170240229205,166.74858867764252 74.69182942121489,164.91846165872067 75.36170240229342,162.41846165872064 74.69182942121623,159.91846165872028 72.86170240229438,158.08833463979744 70.36170240229437,157.4184616587189 67.86170240229399,158.0883346397961 66.03157538337115,159.91846165871794 65.36170240229262,162.41846165871797 66.03157538336981,164.91846165871834 67.86170240229166,166.74858867764118 70.36170240229167,167.4184616587197" stroke="#ffa500" stroke-linecap="round" stroke-linejoin="round"/><polyline fill="none" points="16.87305483507536,128.31850590626763 19.37305483507574,127.64863292519044 21.203181853998576,125.8185059062686 21.87305483507711,123.31850590626858 21.203181853999922,120.8185059062682 19.373054835078076,118.98837888734536 16.873054835078058,118.31850590626682 14.373054835077678,118.98837888734401 12.542927816154844,120.81850590626586 11.873054835076308,123.31850590626587 12.542927816153494,125.81850590626625 14.37305483507534,127.64863292518909 16.873054835075358,128.31850590626763" stroke="#00f" stroke-linecap="round" stroke-linejoin="round"/><polyline fill="none" points="63.07379934821667,178.35815152726803 65.57379934821705,177.68827854619084 67.40392636713989,175.858151527269 68.07379934821843,173.35815152726897 67.40392636714124,170.8581515272686 65.5737993482194,169.02802450834577 63.073799348219374,168.35815152726724 60.57379934821899,169.02802450834443 58.74367232929615,170.85815152726627 58.07379934821761,173.3581515272663 58.743672329294796,175.85815152726667 60.57379934821664,177.6882785461895 63.07379934821666,178.35815152726803" stroke="#ffa500" stroke-linecap="round" stroke-linejoin="round"/><polyline fill="none" points="36.112085428028955,95.37779801693947 38.61208542802934,94.70792503586229 40.442212446952176,92.87779801694045 41.11208542803072,90.37779801694043 40.44221244695353,87.87779801694005 38.61208542803169,86.04767099801721 36.11208542803167,85.37779801693867 33.612085428031286,86.04767099801585 31.781958409108448,87.87779801693769 31.112085428029907,90.3777980169377 31.781958409107087,92.87779801693809 33.61208542802893,94.70792503586092 36.11208542802895,95.37779801693947" stroke="#00f" stroke-linecap="round" stroke-linejoin="round"/><polyline fill="none" points="32.01799926950417,196.29719583303648 34.51799926950456,195.6273228519593 36.348126288427395,193.79719583303745 37.017999269505935,191.29719583303742 36.34812628842876,188.79719583303702 34.517999269506916,186.96706881411419 32.017999269506895,186.29719583303563 29.51799926950651,186.96706881411282 27.68787225058367,188.79719583303466 27.017999269505125,191.2971958330347 27.687872250582302,193.7971958330351 29.51799926950414,195.62732285195793 32.01799926950416,196.29719583303648" stroke="#ffa500" stroke-linecap="round" stroke-linejoin="round"/><polyline fill="none" points="32.79860656527393,180.33358853128894 35.29860656527431,179.66371555021175 37.12873358419716,177.8335885312899 37.798606565275705,175.33358853128988 37.12873358419853,172.83358853128948 35.298606565276685,171.00346151236664 32.798606565276664,170.3335885312881 30.298606565276277,171.00346151236525 28.468479546353436,172.8335885312871 27.79860656527489,175.33358853128712 28.468479546352068,177.83358853128752 30.298606565273907,179.66371555021036 32.79860656527393,180.3335885312889" stroke="#ffa500" stroke-linecap="round" stroke-linejoin="round"/><polyline fill="none" points="15.370975513904469,184.09528168101872 17.870975513904856,183.42540869994156 19.7011025328277,181.5952816810197 20.37097551390625,179.09528168101969 19.701102532829076,176.5952816810193 17.870975513907236,174.76515466209645 15.370975513907217,174.0952816810179 12.87097551390683,174.76515466209506 11.040848494983985,176.5952816810169 10.370975513905435,179.09528168101693 11.040848494982608,181.59528168101733 12.870975513904447,183.42540869994016 15.370975513904467,184.09528168101872" stroke="#ffa500" stroke-linecap="round" stroke-linejoin="round"/><polyline fill="none" points="20.96854926777967,173.49377931819953 23.46854926778006,172.82390633712237 25.298676286702904,170.99377931820052 25.968549267781455,168.4937793182005 25.298676286704282,165.9937793182001 23.468549267782443,164.16365229927726 20.968549267782425,163.4937793181987 18.468549267782038,164.16365229927587 16.63842224885919,165.9937793181977 15.968549267780638,168.49377931819774 16.638422248857808,170.99377931819814 18.468549267779643,172.82390633712097 20.96854926777966,173.49377931819953" stroke="#ffa500" stroke-linecap="round" stroke-linejoin="round"/><polyline fill="none" points="-8.627883446041848,102.11901638151757 -6.127883446041459,101.44914340044039 -4.29775642711861,99.61901638151855 -3.6278834460400575,97.11901638151853 -4.2977564271172275,94.61901638151815 -6.127883446039064,92.7888893625953 -8.627883446039084,92.11901638151674 -11.127883446039473,92.7888893625939 -12.958010464962323,94.61901638151575 -13.627883446040876,97.11901638151576 -12.958010464963706,99.61901638151615 -11.12788344604187,101.449143400439 -8.627883446041851,102.11901638151755" stroke="#00f" stroke-linecap="round" stroke-linejoin="round"/><polyline fill="none" points="-28.34551987005048,198.16635473316506 -25.84551987005009,197.4964817520879 -24.01539285112724,195.66635473316606 -23.345519870048683,193.16635473316603 -24.015392851125853,190.66635473316563 -25.84551987004769,188.8362277142428 -28.345519870047706,188.16635473316424 -30.845519870048097,188.8362277142414 -32.67564688897095,190.66635473316325 -33.34551987004951,193.16635473316327 -32.67564688897234,195.66635473316367 -30.845519870050502,197.49648175208654 -28.345519870050484,198.1663547331651" stroke="#ffa500" stroke-linecap="round" stroke-linejoin="round"/><polyline fill="none" points="-47.438066539994615,138.27762446092183 -44.938066539994225,137.60775147984467 -43.10793952107137,135.77762446092282 -42.43806653999282,133.2776244609228 -43.10793952106998,130.7776244609224 -44.938066539991816,128.94749744199953 -47.43806653999184,128.27762446092098 -49.93806653999223,128.94749744199814 -51.76819355891508,130.77762446091998 -52.43806653999364,133.27762446092 -51.76819355891648,135.7776244609204 -49.938066539994644,137.60775147984327 -47.43806653999462,138.27762446092183" stroke="#00f" stroke-linecap="round" stroke-linejoin="round"/><polyline fill="none" points="-52.348277766646994,192.21534494122668 -49.8482777666466,191.5454719601495 -48.018150747723745,189.71534494122767 -47.34827776664518,187.21534494122764 -48.018150747722345,184.71534494122724 -49.84827776664418,182.88521792230438 -52.3482777666442,182.21534494122582 -54.8482777666446,182.88521792230299 -56.67840478556746,184.71534494122483 -57.34827776664602,187.21534494122486 -56.67840478556886,189.71534494122525 -54.84827776664703,191.54547196014812 -52.34827776664701,192.21534494122668" stroke="#ffa500" stroke-linecap="round" stroke-linejoin="round"/><polyline fill="none" points="-50.2106950433655,190.93232560480627 -47.7106950433651,190.2624526237291 -45.88056802444224,188.43232560480726 -45.21069504336368,185.93232560480723 -45.88056802444084,183.43232560480683 -47.71069504336267,181.60219858588397 -50.21069504336269,180.9323256048054 -52.71069504336309,181.60219858588258 -54.54082206228595,183.43232560480442 -55.21069504336451,185.93232560480445 -54.54082206228735,188.43232560480484 -52.71069504336552,190.2624526237277 -50.2106950433655,190.93232560480627" stroke="#ffa500" stroke-linecap="round" stroke-linejoin="round"/><polyline fill="none" points="-39.71427211642476,101.94769954955925 -37.21427211642436,101.27782656848208 -35.3841450975015,99.44769954956026 -34.71427211642293,96.94769954956024 -35.38414509750009,94.44769954955984 -37.21427211642192,92.61757253063698 -39.71427211642194,91.94769954955841 -42.214272116422336,92.61757253063557 -44.0443991353452,94.4476995495574 -44.71427211642377,96.94769954955741 -44.044399135346616,99.44769954955781 -42.21427211642479,101.27782656848068 -39.714272116424766,101.94769954955925" stroke="#008000" stroke-linecap="round" stroke-linejoin="round"/><polyline fill="none" points="-54.141950196038984,103.86169776991913 -51.641950196038586,103.19182478884197 -49.81182317711572,101.36169776992014 -49.14195019603715,98.86169776992013 -49.811823177114306,96.36169776991973 -51.641950196036134,94.53157075099686 -54.141950196036156,93.8616977699183 -56.641950196036554,94.53157075099544 -58.47207721495942,96.36169776991727 -59.14195019603799,98.86169776991728 -58.472077214960834,101.36169776991768 -56.641950196039005,103.19182478884055 -54.141950196038984,103.86169776991912" stroke="#00f" stroke-linecap="round" stroke-linejoin="round"/><polyline fill="none" points="-56.685426769416395,111.71531377060519 -54.185426769416,111.04544078952804 -52.35529975049313,109.21531377060622 -51.685426769414555,106.7153137706062 -52.35529975049171,104.2153137706058 -54.18542676941354,102.38518675168294 -56.68542676941356,101.71531377060437 -59.185426769413965,102.38518675168152 -61.01555378833683,104.21531377060334 -61.68542676941541,106.71531377060337 -61.01555378833825,109.21531377060377 -59.185426769416424,111.04544078952664 -56.6854267694164,111.7153137706052" stroke="#00f" stroke-linecap="round" stroke-linejoin="round"/><polyline fill="none" points="-60.718565594397475,90.73334844347578 -58.21856559439707,90.06347546239863 -56.3884385754742,88.2333484434768 -55.71856559439562,85.73334844347677 -56.38843857547277,83.23334844347637 -58.2185655943946,81.40322142455351 -60.71856559439462,80.73334844347492 -63.218565594395024,81.40322142455207 -65.0486926133179,83.2333484434739 -65.71856559439648,85.73334844347391 -65.04869261331933,88.23334844347431 -63.218565594397504,90.06347546239718 -60.71856559439748,90.73334844347576" stroke="#00f" stroke-linecap="round" stroke-linejoin="round"/><polyline fill="none" points="-109.76997632824788,164.72442241423923 -107.26997632824748,164.05454943316207 -105.43984930932461,162.22442241424025 -104.76997632824603,159.72442241424022 -105.43984930932318,157.22442241423983 -107.26997632824501,155.39429539531696 -109.76997632824504,154.72442241423838 -112.26997632824545,155.39429539531554 -114.10010334716833,157.22442241423735 -114.76997632824691,159.72442241423738 -114.10010334716976,162.22442241423778 -112.26997632824794,164.05454943316064 -109.7699763282479,164.72442241423923" stroke="#ffa500" stroke-linecap="round" stroke-linejoin="round"/><polyline fill="none" points="-111.15598372803059,153.1193533622983 -108.65598372803018,152.44948038122118 -106.8258567091073,150.61935336229936 -106.15598372802872,148.11935336229934 -106.82585670910586,145.61935336229894 -108.65598372802769,143.78922634337607 -111.15598372802772,143.1193533622975 -113.65598372802813,143.78922634337462 -115.48611074695101,145.61935336229644 -116.1559837280296,148.11935336229647 -115.48611074695245,150.61935336229686 -113.65598372803062,152.44948038121973 -111.15598372803059,153.1193533622983" stroke="#ffa500" stroke-linecap="round" stroke-linejoin="round"/><polyline fill="none" points="-123.60045538779345,135.0677539943545 -121.10045538779303,134.39788101327736 -119.27032836887015,132.56775399435554 -118.60045538779157,130.0677539943555 -119.27032836886872,127.5677539943551 -121.10045538779055,125.73762697543222 -123.60045538779057,125.06775399435364 -126.10045538779099,125.73762697543079 -127.93058240671387,127.56775399435261 -128.60045538779246,130.06775399435264 -127.93058240671532,132.56775399435304 -126.10045538779349,134.3978810132759 -123.60045538779346,135.0677539943545" stroke="#ffa500" stroke-linecap="round" stroke-linejoin="round"/><polyline fill="none" points="-120.31071682737235,128.9179441772032 -117.81071682737193,128.24807119612606 -115.98058980844905,126.41794417720423 -115.31071682737047,123.9179441772042 -115.98058980844762,121.4179441772038 -117.81071682736945,119.58781715828091 -120.31071682736948,118.91794417720233 -122.81071682736989,119.58781715827948 -124.64084384629277,121.4179441772013 -125.31071682737135,123.91794417720133 -124.64084384629422,126.41794417720175 -122.81071682737239,128.24807119612464 -120.31071682737236,128.91794417720322" stroke="#ffa500" stroke-linecap="round" stroke-linejoin="round"/><polyline fill="none" points="-132.89641254607827,129.76718654854696 -130.39641254607787,129.09731356746983 -128.56628552715497,127.267186548548 -127.89641254607639,124.76718654854797 -128.56628552715352,122.26718654854756 -130.39641254607534,120.43705952962468 -132.89641254607537,119.76718654854608 -135.3964125460758,120.43705952962321 -137.2265395649987,122.26718654854503 -137.89641254607727,124.76718654854506 -137.22653956500014,127.26718654854547 -135.39641254607832,129.09731356746835 -132.8964125460783,129.76718654854693" stroke="#ffa500" stroke-linecap="round" stroke-linejoin="round"/><polyline fill="none" points="-83.21905678388124,77.58960768312646 -80.71905678388083,76.91973470204933 -78.88892976495795,75.08960768312751 -78.21905678387935,72.58960768312748 -78.88892976495649,70.08960768312707 -80.7190567838783,68.25948066420419 -83.21905678387833,67.58960768312559 -85.71905678387874,68.25948066420273 -87.54918380280162,70.08960768312454 -88.21905678388022,72.58960768312457 -87.54918380280309,75.08960768312498 -85.71905678388127,76.91973470204788 -83.21905678388124,77.58960768312647" stroke="#008000" stroke-linecap="round" stroke-linejoin="round"/><polyline fill="none" points="-79.15745515399358,120.01133796057354 -76.65745515399317,119.34146497949641 -74.82732813507027,117.5113379605746 -74.15745515399168,115.01133796057456 -74.82732813506881,112.51133796057415 -76.65745515399063,110.68121094165126 -79.15745515399065,110.01133796057266 -81.65745515399107,110.6812109416498 -83.48758217291396,112.51133796057161 -84.15745515399256,115.01133796057164 -83.48758217291542,117.51133796057205 -81.65745515399361,119.34146497949494 -79.15745515399358,120.01133796057354" stroke="#00f" stroke-linecap="round" stroke-linejoin="round"/><polyline fill="none" points="-156.81488153485745,119.22850297620465 -154.31488153485702,118.55862999512752 -152.48475451593413,116.7285029762057 -151.81488153485552,114.22850297620568 -152.48475451593265,111.72850297620526 -154.31488153485446,109.89837595728237 -156.8148815348545,109.22850297620377 -159.31488153485492,109.8983759572809 -161.1450085537778,111.72850297620272 -161.81488153485643,114.22850297620275 -161.1450085537793,116.72850297620316 -159.31488153485748,118.55862999512605 -156.81488153485745,119.22850297620465" stroke="#ffa500" stroke-linecap="round" stroke-linejoin="round"/><polyline fill="none" points="-53.89495400401742,83.01886021454453 -51.394954004017,82.3489872334674 -49.56482698509411,80.51886021454558 -48.8949540040155,78.01886021454555 -49.56482698509263,75.51886021454514 -51.394954004014444,73.68873319562225 -53.894954004014465,73.01886021454365 -56.394954004014885,73.68873319562078 -58.22508102293778,75.5188602145426 -58.894954004016384,78.01886021454263 -58.22508102293926,80.51886021454304 -56.39495400401744,82.34898723346593 -53.89495400401742,83.01886021454453" stroke="#00f" stroke-linecap="round" stroke-linejoin="round"/><polyline fill="none" points="-140.73033543232935,46.976107225586986 -138.23033543232893,46.30623424450986 -136.40020841340603,44.476107225588045 -135.73033543232742,41.976107225588024 -136.40020841340456,39.476107225587604 -138.23033543232637,37.64598020666471 -140.7303354323264,36.976107225586105 -143.23033543232683,37.64598020666323 -145.06046245124972,39.47610722558505 -145.73033543232833,41.97610722558507 -145.0604624512512,44.47610722558549 -143.23033543232938,46.30623424450838 -140.73033543232935,46.976107225586986" stroke="#ffa500" stroke-linecap="round" stroke-linejoin="round"/><polyline fill="none" points="-162.55807568043377,68.5824628410846 -160.05807568043335,67.91258986000749 -158.22794866151045,66.08246284108567 -157.55807568043184,63.58246284108565 -158.22794866150898,61.08246284108523 -160.0580756804308,59.25233582216233 -162.55807568043082,58.582462841083725 -165.05807568043124,59.25233582216085 -166.88820269935414,61.082462841082666 -167.55807568043275,63.58246284108269 -166.88820269935562,66.08246284108311 -165.0580756804338,67.91258986000601 -162.55807568043377,68.58246284108462" stroke="#ffa500" stroke-linecap="round" stroke-linejoin="round"/><polyline fill="none" points="-167.6704880793949,78.0492774681545 -165.17048807939446,77.37940448707738 -163.34036106047157,75.54927746815557 -162.67048807939295,73.04927746815554 -163.3403610604701,70.54927746815511 -165.1704880793919,68.71915044923222 -167.67048807939193,68.0492774681536 -170.17048807939236,68.71915044923072 -172.00061509831525,70.54927746815254 -172.67048807939386,73.04927746815257 -172.00061509831673,75.549277468153 -170.17048807939491,77.3794044870759 -167.6704880793949,78.04927746815451" stroke="#ffa500" stroke-linecap="round" stroke-linejoin="round"/><polyline fill="none" points="-96.8753694385368,56.65714184898391 -94.37536943853637,55.98726886790679 -92.54524241961346,54.157141848984985 -91.87536943853485,51.65714184898496 -92.54524241961197,49.15714184898454 -94.37536943853378,47.327014830061636 -96.87536943853381,46.657141848983024 -99.37536943853424,47.32701483006014 -101.20549645745714,49.15714184898195 -101.87536943853576,51.65714184898197 -101.20549645745864,54.1571418489824 -99.37536943853682,55.9872688679053 -96.8753694385368,56.65714184898391" stroke="#008000" stroke-linecap="round" stroke-linejoin="round"/><polyline fill="none" points="-124.4868965720538,6.345560473721677 -121.98689657205337,5.675687492644559 -120.15676955313046,3.8455604737227502 -119.48689657205185,1.3455604737227271 -120.15676955312897,-1.1544395262776979 -121.98689657205078,-2.984566545200604 -124.48689657205081,-3.6544395262792206 -126.98689657205124,-2.984566545202104 -128.81702359097415,-1.1544395262802958 -129.48689657205276,1.3455604737197278 -128.81702359097565,3.8455604737201536 -126.98689657205384,5.675687492643061 -124.48689657205381,6.3455604737216795" stroke="#ffa500" stroke-linecap="round" stroke-linejoin="round"/><polyline fill="none" points="-125.91578435521973,18.45833117494894 -123.4157843552193,17.788458193871822 -121.58565733629639,15.958331174950015 -120.91578435521778,13.458331174949992 -121.5856573362949,10.958331174949565 -123.4157843552167,9.128204156026657 -125.91578435521673,8.458331174948038 -128.41578435521717,9.128204156025152 -130.2459113741401,10.95833117494696 -130.9157843552187,13.458331174946983 -130.2459113741416,15.95833117494741 -128.41578435521978,17.78845819387032 -125.91578435521976,18.458331174948942" stroke="#00f" stroke-linecap="round" stroke-linejoin="round"/><polyline fill="none" points="-83.14783165615049,10.893720479430215 -80.64783165615006,10.223847498353102 -78.81770463722715,8.393720479431297 -78.14783165614853,5.893720479431273 -78.81770463722563,3.3937204794308453 -80.64783165614743,1.5635934605079338 -83.14783165614746,0.8937204794293111 -85.64783165614789,1.5635934605064228 -87.4779586750708,3.3937204794282283 -88.14783165614942,5.893720479428252 -87.47795867507232,8.39372047942868 -85.64783165615052,10.223847498351592 -83.14783165615049,10.893720479430216" stroke="#00f" stroke-linecap="round" stroke-linejoin="round"/><polyline fill="none" points="-103.32248714317912,-3.621064690313096 -100.82248714317869,-4.290937671390207 -98.99236012425578,-6.121064690312012 -98.32248714317716,-8.621064690312036 -98.99236012425426,-11.121064690312465 -100.82248714317606,-12.95119170923538 -103.32248714317609,-13.621064690314004 -105.82248714317652,-12.951191709236895 -107.65261416209943,-11.121064690315091 -108.32248714317805,-8.621064690315068 -107.65261416210095,-6.121064690314638 -105.82248714317915,-4.290937671391724 -103.32248714317912,-3.621064690313098" stroke="#00f" stroke-linecap="round" stroke-linejoin="round"/><polyline fill="none" points="-184.1511016191959,16.94329227602867 -181.6511016191955,16.273419294951562 -179.82097460027256,14.443292276029759 -179.15110161919392,11.943292276029736 -179.82097460027103,9.443292276029304 -181.65110161919284,7.613165257106388 -184.15110161919287,6.94329227602776 -186.6511016191933,7.613165257104868 -188.48122863811622,9.443292276026671 -189.15110161919486,11.943292276026694 -188.48122863811776,14.443292276027126 -186.65110161919594,16.273419294950042 -184.1511016191959,16.94329227602867" stroke="#ffa500" stroke-linecap="round" stroke-linejoin="round"/><polyline fill="none" points="-79.8354920803126,-13.389557522524427 -77.33549208031218,-14.059430503601533 -75.50536506138926,-15.889557522523335 -74.83549208031063,-18.389557522523358 -75.50536506138774,-20.889557522523788 -77.33549208030954,-22.719684541446707 -79.83549208030956,-23.389557522525337 -82.33549208030999,-22.71968454144823 -84.16561909923291,-20.88955752252643 -84.83549208031154,-18.389557522526406 -84.16561909923443,-15.889557522525974 -82.33549208031263,-14.059430503603055 -79.8354920803126,-13.389557522524424" stroke="#008000" stroke-linecap="round" stroke-linejoin="round"/><polyline fill="none" points="-178.8671733220206,-5.89923808373638 -176.36717332202016,-6.569111064813484 -174.53704630309724,-8.399238083735284 -173.8671733220186,-10.899238083735307 -174.5370463030957,-13.39923808373574 -176.36717332201752,-15.229365102658662 -178.86717332201755,-15.899238083737295 -181.36717332201798,-15.229365102660193 -183.1973003409409,-13.399238083738393 -183.86717332201954,-10.89923808373837 -183.19730034094243,-8.399238083737936 -181.36717332202065,-6.569111064815014 -178.86717332202062,-5.899238083736379" stroke="#ffa500" stroke-linecap="round" stroke-linejoin="round"/><polyline fill="none" points="-168.49139892387547,-33.82717724122185 -165.99139892387504,-34.497050222298945 -164.16127190495212,-36.327177241220745 -163.49139892387348,-38.82717724122077 -164.16127190495058,-41.3271772412212 -165.99139892387237,-43.15730426014412 -168.4913989238724,-43.827177241222756 -170.99139892387282,-43.15730426014566 -172.82152594279574,-41.32717724122386 -173.49139892387439,-38.827177241223836 -172.82152594279728,-36.3271772412234 -170.9913989238755,-34.49705022230048 -168.49139892387547,-33.82717724122184" stroke="#ffa500" stroke-linecap="round" stroke-linejoin="round"/><polyline fill="none" points="-184.41423285574234,-25.941758370363278 -181.91423285574191,-26.611631351440376 -180.084105836819,-28.441758370362173 -179.41423285574035,-30.941758370362198 -180.08410583681746,-33.441758370362635 -181.91423285573924,-35.27188538928556 -184.41423285573927,-35.9417583703642 -186.9142328557397,-35.2718853892871 -188.74435987466262,-33.4417583703653 -189.41423285574126,-30.941758370365275 -188.74435987466416,-28.441758370364838 -186.91423285574237,-26.61163135144191 -184.41423285574234,-25.94175837036327" stroke="#ffa500" stroke-linecap="round" stroke-linejoin="round"/><polyline fill="none" points="-163.14355339051508,-49.89244952536449 -160.64355339051465,-50.56232250644159 -158.81342637159173,-52.39244952536339 -158.1435533905131,-54.89244952536341 -158.8134263715902,-57.39244952536385 -160.64355339051198,-59.22257654428678 -163.143553390512,-59.89244952536542 -165.64355339051244,-59.22257654428832 -167.47368040943536,-57.39244952536653 -168.143553390514,-54.89244952536651 -167.4736804094369,-52.39244952536607 -165.6435533905151,-50.56232250644314 -163.14355339051508,-49.8924495253645" stroke="#ffa500" stroke-linecap="round" stroke-linejoin="round"/><polyline fill="none" points="-183.0486095538609,-56.81919376494021 -180.54860955386047,-57.4890667460173 -178.71848253493755,-59.319193764939094 -178.0486095538589,-61.819193764939115 -178.71848253493602,-64.31919376493956 -180.5486095538578,-66.14932078386249 -183.04860955385783,-66.81919376494113 -185.54860955385826,-66.14932078386404 -187.37873657278118,-64.31919376494224 -188.04860955385982,-61.81919376494222 -187.3787365727827,-59.31919376494178 -185.54860955386093,-57.48906674601885 -183.0486095538609,-56.8191937649402" stroke="#ffa500" stroke-linecap="round" stroke-linejoin="round"/><polyline fill="none" points="22.64629684875201,-11.287300310832293 25.14629684875245,-11.957173291909386 26.976423867675383,-13.787300310831181 27.64629684875403,-16.287300310831206 26.97642386767694,-18.787300310831647 25.146296848755146,-20.61742732975458 22.64629684875512,-21.287300310833228 20.14629684875468,-20.617427329756136 18.316169829831747,-18.787300310834343 17.6462968487531,-16.28730031083432 18.31616982983019,-13.787300310833878 20.146296848751984,-11.957173291910944 22.64629684875201,-11.287300310832297" stroke="#00f" stroke-linecap="round" stroke-linejoin="round"/><polyline fill="none" points="-83.8124711392749,-65.99183066329938 -81.31247113927446,-66.66170364437647 -79.48234412035153,-68.49183066329827 -78.81247113927287,-70.9918306632983 -79.48234412034996,-73.49183066329874 -81.31247113927175,-75.32195768222168 -83.81247113927178,-75.99183066330033 -86.31247113927222,-75.32195768222324 -88.14259815819516,-73.49183066330146 -88.81247113927381,-70.99183066330143 -88.14259815819672,-68.49183066330099 -86.31247113927493,-66.66170364437805 -83.8124711392749,-65.9918306632994" stroke="#00f" stroke-linecap="round" stroke-linejoin="round"/><polyline fill="none" points="-95.75454604177452,-62.60079064092305 -93.25454604177408,-63.27066362200014 -91.42441902285114,-65.10079064092193 -90.75454604177249,-67.60079064092196 -91.42441902284958,-70.1007906409224 -93.25454604177136,-71.93091765984533 -95.75454604177139,-72.60079064092399 -98.25454604177183,-71.9309176598469 -100.08467306069477,-70.10079064092511 -100.75454604177342,-67.60079064092508 -100.08467306069633,-65.10079064092464 -98.25454604177455,-63.270663622001706 -95.75454604177452,-62.60079064092305" stroke="#00f" stroke-linecap="round" stroke-linejoin="round"/><polyline fill="none" points="-92.76098109763561,-85.3598366689671 -90.26098109763517,-86.0297096500442 -88.43085407871223,-87.85983666896598 -87.76098109763358,-90.35983666896601 -88.43085407871067,-92.85983666896645 -90.26098109763245,-94.68996368788939 -92.76098109763248,-95.35983666896804 -95.26098109763292,-94.68996368789095 -97.09110811655586,-92.85983666896917 -97.76098109763451,-90.35983666896914 -97.09110811655742,-87.8598366689687 -95.26098109763564,-86.02970965004576 -92.76098109763561,-85.3598366689671" stroke="#00f" stroke-linecap="round" stroke-linejoin="round"/><polyline fill="none" points="-136.85101999037965,-110.52955124984749 -134.3510199903792,-111.19942423092456 -132.52089297145625,-113.02955124984635 -131.85101999037758,-115.52955124984638 -132.52089297145466,-118.02955124984682 -134.35101999037644,-119.85967826876976 -136.85101999037647,-120.52955124984841 -139.35101999037693,-119.85967826877133 -141.18114700929988,-118.02955124984955 -141.85101999037855,-115.52955124984952 -141.18114700930147,-113.02955124984908 -139.35101999037968,-111.19942423092614 -136.85101999037965,-110.52955124984749" stroke="#ffa500" stroke-linecap="round" stroke-linejoin="round"/><polyline fill="none" points="-136.04555578691046,-102.52351782705867 -133.54555578691,-103.19339080813575 -131.71542876798705,-105.02351782705753 -131.04555578690838,-107.52351782705756 -131.71542876798546,-110.02351782705801 -133.54555578690724,-111.85364484598097 -136.04555578690727,-112.52351782705962 -138.54555578690773,-111.85364484598254 -140.37568280583068,-110.02351782706076 -141.04555578690935,-107.52351782706073 -140.37568280583227,-105.02351782706027 -138.54555578691048,-103.19339080813732 -136.04555578691046,-102.52351782705867" stroke="#ffa500" stroke-linecap="round" stroke-linejoin="round"/><polyline fill="none" points="-55.49800271327045,-75.68809226215701 -52.998002713270004,-76.35796524323409 -51.16787569434706,-78.18809226215588 -50.4980027132684,-80.6880922621559 -51.167875694345476,-83.18809226215636 -52.99800271326726,-85.01821928107931 -55.49800271326728,-85.68809226215798 -57.99800271326773,-85.0182192810809 -59.828129732190675,-83.18809226215912 -60.49800271326934,-80.68809226215909 -59.82812973219226,-78.18809226215863 -57.99800271327047,-76.35796524323568 -55.498002713270445,-75.68809226215701" stroke="#00f" stroke-linecap="round" stroke-linejoin="round"/><polyline fill="none" points="-62.30358579594684,-55.37421859518386 -59.80358579594639,-56.04409157626094 -57.97345877702344,-57.874218595182725 -57.30358579594478,-60.374218595182754 -57.973458777021854,-62.8742185951832 -59.80358579594364,-64.70434561410615 -62.30358579594367,-65.37421859518481 -64.80358579594412,-64.70434561410774 -66.63371281486707,-62.87421859518595 -67.30358579594574,-60.37421859518592 -66.63371281486866,-57.87421859518547 -64.80358579594687,-56.04409157626252 -62.303585795946844,-55.37421859518385" stroke="#008000" stroke-linecap="round" stroke-linejoin="round"/><polyline fill="none" points="-108.64740230493815,-136.84305688768987 -106.1474023049377,-137.51292986876695 -104.31727528601475,-139.34305688768873 -103.64740230493608,-141.84305688768876 -104.31727528601316,-144.34305688768922 -106.14740230493494,-146.17318390661217 -108.64740230493497,-146.84305688769084 -111.14740230493543,-146.17318390661376 -112.97752932385838,-144.34305688769197 -113.64740230493705,-141.84305688769194 -112.97752932385997,-139.3430568876915 -111.14740230493818,-137.51292986876854 -108.64740230493815,-136.84305688768987" stroke="#ffa500" stroke-linecap="round" stroke-linejoin="round"/><polyline fill="none" points="-97.89245199358749,-148.28550364993495 -95.39245199358703,-148.95537663101203 -93.56232497466408,-150.78550364993382 -92.89245199358541,-153.28550364993384 -93.56232497466249,-155.7855036499343 -95.39245199358427,-157.61563066885725 -97.8924519935843,-158.28550364993592 -100.39245199358476,-157.61563066885884 -102.22257901250771,-155.78550364993706 -102.89245199358638,-153.28550364993703 -102.2225790125093,-150.78550364993657 -100.39245199358751,-148.95537663101362 -97.89245199358749,-148.28550364993495" stroke="#ffa500" stroke-linecap="round" stroke-linejoin="round"/><polyline fill="none" points="-75.53272733701391,-52.32190999798543 -73.03272733701345,-52.9917829790625 -71.2026003180905,-54.82190999798428 -70.53272733701183,-57.32190999798431 -71.2026003180889,-59.82190999798476 -73.03272733701068,-61.65203701690772 -75.53272733701071,-62.321909997986396 -78.03272733701117,-61.652037016909325 -79.86285435593412,-59.82190999798755 -80.53272733701279,-57.32190999798752 -79.86285435593572,-54.82190999798706 -78.03272733701394,-52.991782979064105 -75.53272733701391,-52.32190999798543" stroke="#00f" stroke-linecap="round" stroke-linejoin="round"/><polyline fill="none" points="-39.52590441617272,-84.46934624473454 -37.02590441617227,-85.1392192258116 -35.19577739724931,-86.96934624473339 -34.52590441617063,-89.46934624473342 -35.1957773972477,-91.96934624473387 -37.02590441616948,-93.79947326365684 -39.52590441616951,-94.4693462447355 -42.025904416169965,-93.79947326365844 -43.85603143509292,-91.96934624473666 -44.5259044161716,-89.46934624473663 -43.856031435094536,-86.96934624473617 -42.02590441617276,-85.1392192258132 -39.52590441617273,-84.46934624473452" stroke="#00f" stroke-linecap="round" stroke-linejoin="round"/><polyline fill="none" points="-82.16222922385897,-159.17955669811312 -79.66222922385852,-159.8494296791902 -77.83210220493555,-161.67955669811198 -77.16222922385687,-164.179556698112 -77.83210220493393,-166.67955669811246 -79.66222922385572,-168.50968371703541 -82.16222922385575,-169.17955669811408 -84.6622292238562,-168.509683717037 -86.49235624277917,-166.67955669811522 -87.16222922385785,-164.1795566981152 -86.49235624278079,-161.67955669811474 -84.66222922385901,-159.8494296791918 -82.16222922385899,-159.17955669811312" stroke="#ffa500" stroke-linecap="round" stroke-linejoin="round"/><polyline fill="none" points="-68.66731997437083,-152.68475586711327 -66.16731997437037,-153.35462884819032 -64.3371929554474,-155.1847558671121 -63.66731997436872,-157.68475586711213 -64.33719295544579,-160.18475586711259 -66.16731997436756,-162.01488288603554 -68.66731997436759,-162.6847558671142 -71.16731997436804,-162.01488288603716 -72.997446993291,-160.18475586711537 -73.66731997436969,-157.68475586711534 -72.99744699329263,-155.1847558671149 -71.16731997437086,-153.35462884819194 -68.66731997437083,-152.68475586711327" stroke="#ffa500" stroke-linecap="round" stroke-linejoin="round"/><polyline fill="none" points="-37.47076581766698,-35.69685545970269 -34.97076581766652,-36.36672844077975 -33.14063879874355,-38.19685545970153 -32.47076581766487,-40.69685545970155 -33.14063879874193,-43.196855459702014 -34.97076581766371,-45.02698247862498 -37.47076581766373,-45.69685545970366 -39.970765817664194,-45.02698247862661 -41.80089283658716,-43.19685545970483 -42.47076581766584,-40.6968554597048 -41.80089283658879,-38.19685545970434 -39.97076581766701,-36.36672844078137 -37.47076581766698,-35.69685545970269" stroke="#008000" stroke-linecap="round" stroke-linejoin="round"/><polyline fill="none" points="-54.63384023886678,-168.65254315182628 -52.13384023886632,-169.32241613290333 -50.303713219943354,-171.1525431518251 -49.633840238864664,-173.65254315182514 -50.30371321994172,-176.1525431518256 -52.13384023886349,-177.98267017074858 -54.63384023886351,-178.65254315182727 -57.133840238863975,-177.98267017075023 -58.96396725778695,-176.15254315182844 -59.63384023886564,-173.6525431518284 -58.96396725778858,-171.15254315182796 -57.13384023886681,-169.32241613290498 -54.63384023886678,-168.65254315182628" stroke="#ffa500" stroke-linecap="round" stroke-linejoin="round"/><polyline fill="none" points="-56.41042712056913,-170.88461262212613 -53.91042712056867,-171.55448560320318 -52.0803001016457,-173.38461262212496 -51.41042712056701,-175.884612622125 -52.08030010164406,-178.38461262212545 -53.910427120565835,-180.21473964104842 -56.41042712056586,-180.88461262212712 -58.910427120566325,-180.21473964105007 -60.7405541394893,-178.3846126221283 -61.41042712056799,-175.88461262212826 -60.74055413949093,-173.3846126221278 -58.91042712056916,-171.55448560320482 -56.41042712056913,-170.88461262212613" stroke="#ffa500" stroke-linecap="round" stroke-linejoin="round"/><polyline fill="none" points="-26.926884467786515,-48.141989932283025 -24.42688446778605,-48.81186291336008 -22.596757448863077,-50.64198993228185 -21.926884467784383,-53.14198993228188 -22.596757448861435,-55.64198993228234 -24.426884467783207,-57.472116951205315 -26.926884467783232,-58.141989932284005 -29.426884467783697,-57.47211695120696 -31.25701148670667,-55.641989932285185 -31.926884467785364,-53.141989932285156 -31.25701148670831,-50.64198993228469 -29.42688446778654,-48.811862913361715 -26.926884467786515,-48.14198993228302" stroke="#00f" stroke-linecap="round" stroke-linejoin="round"/><polyline fill="none" points="-28.345519870050463,-164.83111983746252 -25.845519870049998,-165.50099281853957 -24.01539285112702,-167.33111983746133 -23.345519870048328,-169.83111983746136 -24.015392851125377,-172.3311198374618 -25.84551987004715,-174.1612468563848 -28.345519870047173,-174.8311198374635 -30.84551987004764,-174.16124685638644 -32.67564688897061,-172.33111983746468 -33.34551987004931,-169.83111983746466 -32.67564688897226,-167.3311198374642 -30.845519870050488,-165.50099281854122 -28.345519870050463,-164.83111983746252" stroke="#ffa500" stroke-linecap="round" stroke-linejoin="round"/><polyline fill="none" points="-17.468134844548935,-168.4773894742476 -14.968134844548468,-169.14726245532464 -13.13800782562549,-170.9773894742464 -12.468134844546793,-173.47738947424642 -13.13800782562384,-175.97738947424688 -14.96813484454561,-177.80751649316986 -17.468134844545634,-178.47738947424855 -19.968134844546103,-177.8075164931715 -21.798261863469083,-175.97738947424975 -22.468134844547784,-173.47738947424972 -21.79826186347074,-170.97738947424926 -19.96813484454897,-169.14726245532628 -17.468134844548945,-168.4773894742476" stroke="#ffa500" stroke-linecap="round" stroke-linejoin="round"/></svg>