<?xml version="1.0" ?><!DOCTYPE svg  PUBLIC '-//W3C//DTD SVG 1.1//EN'  'http://www.w3.org/Graphics/SVG/1.1/DTD/svg11.dtd'><svg height="654.000" viewBox="-518.000 -300.000 770.000 654.000" width="770.000" xmlns="http://www.w3.org/2000/svg"><line fill="none" stroke="none" stroke-linecap="round" stroke-width="2.0" x1="0.0" x2="0.0" y1="0.0" y2="0.0"/><polygon fill="none" fill-rule="evenodd" points="0.0,0.0 0.0,0.0 0.0,0.0" stroke-linejoin="round"/><polyline fill="none" points="-72.02411358588759,116.09460090490641 -69.52411358585763,115.4247279238784 -67.6939865668846,113.59460090498433 -67.02411358574871,111.09460090498328 -67.69398656677673,108.59460090495332 -69.52411358567079,106.7644738859803 -72.02411358567184,106.0946009048444 -74.5241135857018,106.76447388587242 -76.35424060467483,108.59460090476648 -77.02411358581072,111.09460090476753 -76.3542406047827,113.59460090479749 -74.52411358588864,115.42472792377052 -72.02411358588759,116.09460090490641" stroke="#ffa500" stroke-linecap="round" stroke-linejoin="round"/><polyline fill="none" points="-162.13583764265567,-3.8095042443208946 -159.63583764262572,-4.4793772253489195 -157.8057106236527,-6.30950424424298 -157.13583764251678,-8.809504244244035 -157.8057106235448,-11.309504244273995 -159.63583764243884,-13.139631263247026 -162.1358376424399,-13.809504244382927 -164.63583764246985,-13.139631263354904 -166.46596466144288,-11.309504244460843 -167.1358376425788,-8.809504244459788 -166.46596466155077,-6.309504244429827 -164.63583764265672,-4.479377225456795 -162.13583764265567,-3.809504244320893" stroke="#ffa500" stroke-linecap="round" stroke-linejoin="round"/><polyline fill="none" points="124.66360463749686,-100.96409832116764 127.16360463752682,-101.63397130219566 128.99373165649985,-103.46409832108972 129.66360463763576,-105.96409832109077 128.99373165660774,-108.46409832112073 127.16360463771368,-110.29422534009376 124.66360463771262,-110.96409832122967 122.16360463768267,-110.29422534020165 120.33347761870964,-108.46409832130759 119.66360463757373,-105.96409832130654 120.33347761860175,-103.46409832127658 122.16360463749581,-101.63397130230355 124.66360463749686,-100.96409832116764" stroke="#ffa500" stroke-linecap="round" stroke-linejoin="round"/><polyline fill="none" points="-309.83392513158697,-223.081144676896 -307.333925131557,-223.75101765792402 -305.503798112584,-225.58114467681807 -304.8339251314481,-228.08114467681912 -305.5037981124761,-230.58114467684908 -307.33392513137017,-232.4112716958221 -309.83392513137125,-233.08114467695802 -312.3339251314012,-232.41127169593 -314.16405215037423,-230.58114467703595 -314.8339251315101,-228.0811446770349 -314.1640521504821,-225.58114467700494 -312.33392513158805,-223.7510176580319 -309.83392513158697,-223.081144676896" stroke="#ffa500" stroke-linecap="round" stroke-linejoin="round"/><polyline fill="none" points="-331.1388986604338,-122.38479025558767 -328.63889866040387,-123.0546632366157 -326.80877164143084,-124.88479025550976 -326.13889866029496,-127.38479025551081 -326.80877164132295,-129.88479025554076 -328.638898660217,-131.7149172745138 -331.1388986602181,-132.3847902556497 -333.63889866024806,-131.71491727462168 -335.4690256792211,-129.88479025572764 -336.13889866035703,-127.38479025572659 -335.46902567932904,-124.88479025569661 -333.63889866043496,-123.05466323672357 -331.1388986604339,-122.38479025558766" stroke="#00f" stroke-linecap="round" stroke-linejoin="round"/><polyline fill="none" points="-467.62135538289886,-154.9451966354525 -465.1213553828689,-155.61506961648053 -463.29122836389587,-157.44519663537457 -462.62135538275993,-159.94519663537562 -463.2912283637879,-162.44519663540558 -465.121355382682,-164.2753236543786 -467.6213553826831,-164.94519663551452 -470.12135538271303,-164.2753236544865 -471.95148240168606,-162.44519663559245 -472.621355382822,-159.9451966355914 -471.951482401794,-157.44519663556144 -470.12135538289994,-155.6150696165884 -467.62135538289886,-154.9451966354525" stroke="#00f" stroke-linecap="round" stroke-linejoin="round"/><polyline fill="none" points="116.59408289836999,-198.9064966770636 119.09408289839996,-199.5763696580916 120.924209917373,-201.40649667698565 121.59408289850892,-203.9064966769867 120.92420991748091,-206.40649667701666 119.09408289858686,-208.2366236959897 116.59408289858581,-208.9064966771256 114.09408289855584,-208.23662369609758 112.2639558795828,-206.40649667720353 111.59408289844689,-203.90649667720248 112.26395587947489,-201.40649667717253 114.09408289836894,-199.57636965819947 116.59408289836999,-198.90649667706356" stroke="#ffa500" stroke-linecap="round" stroke-linejoin="round"/><polyline fill="none" points="110.78575089204627,-276.1800283661675 113.28575089207624,-276.8499013471955 115.11587791104928,-278.6800283660896 115.7857508921852,-281.18002836609065 115.1158779111572,-283.6800283661206 113.28575089226315,-285.51015538509364 110.7857508922621,-286.1800283662296 108.28575089223213,-285.5101553852016 106.45562387325909,-283.6800283663075 105.78575089212316,-281.18002836630643 106.45562387315117,-278.6800283662765 108.28575089204521,-276.84990134730344 110.78575089204627,-276.1800283661675" stroke="#ffa500" stroke-linecap="round" stroke-linejoin="round"/><polyline fill="none" points="-487.250597433458,-161.72535615038805 -484.750597433428,-162.39522913141607 -482.920470414455,-164.22535615031012 -482.25059743331906,-166.72535615031117 -482.92047041434705,-169.22535615034113 -484.7505974332411,-171.0554831693142 -487.2505974332422,-171.7253561504501 -489.75059743327216,-171.0554831694221 -491.5807244522452,-169.22535615052806 -492.25059743338113,-166.725356150527 -491.58072445235314,-164.22535615049702 -489.75059743345906,-162.39522913152396 -487.250597433458,-161.72535615038805" stroke="#00f" stroke-linecap="round" stroke-linejoin="round"/><polyline fill="none" points="-393.4263382616476,-45.377505901472695 -390.9263382616176,-46.0473788825007 -389.0962112426446,-47.87750590139475 -388.42633826150865,-50.3775059013958 -389.09621124253664,-52.87750590142577 -390.9263382614307,-54.70763292039882 -393.4263382614318,-55.37750590153475 -395.92633826146175,-54.70763292050674 -397.7564652804348,-52.87750590161269 -398.4263382615707,-50.37750590161164 -397.7564652805427,-47.87750590158167 -395.92633826164865,-46.04737888260862 -393.4263382616476,-45.377505901472695" stroke="#00f" stroke-linecap="round" stroke-linejoin="round"/><polyline fill="none" points="40.17526039299044,157.80481522681885 42.67526039302041,157.13494224579085 44.50538741199346,155.3048152268968 45.175260393129385,152.80481522689576 44.505387412101385,150.30481522686577 42.67526039320734,148.4746882078927 40.17526039320629,147.80481522675677 37.675260393176316,148.47468820778477 35.845133374203265,150.3048152266788 35.17526039306734,152.80481522667986 35.84513337409534,155.30481522670985 37.67526039298939,157.1349422456829 40.17526039299044,157.80481522681885" stroke="#ffa500" stroke-linecap="round" stroke-linejoin="round"/><polyline fill="none" points="69.11637929192766,87.63382361077089 71.61637929195763,86.9639506297429 73.44650631093069,85.13382361084885 74.11637929206661,82.6338236108478 73.44650631103862,80.13382361081783 71.61637929214457,78.30369659184477 69.11637929214352,77.63382361070884 66.61637929211355,78.30369659173684 64.78625227314049,80.13382361063088 64.11637929200457,82.63382361063194 64.78625227303256,85.1338236106619 66.6163792919266,86.96395062963497 69.11637929192766,87.63382361077089" stroke="#ffa500" stroke-linecap="round" stroke-linejoin="round"/><polyline fill="none" points="10.327351603778634,-210.36948127188805 12.82735160380861,-211.03935425291604 14.657478622781667,-212.8694812718101 15.327351603917599,-215.36948127181114 14.657478622889602,-217.86948127184112 12.827351603995558,-219.69960829081418 10.327351603994503,-220.36948127195012 7.827351603964527,-219.69960829092213 5.997224584991468,-217.86948127202808 5.3273516038555355,-215.36948127202703 5.997224584883531,-212.86948127199705 7.827351603777575,-211.039354253024 10.327351603778629,-210.36948127188805" stroke="#ffa500" stroke-linecap="round" stroke-linejoin="round"/><polyline fill="none" points="-240.2691246914879,-194.20849856827246 -237.7691246914579,-194.87837154930045 -235.93899767248485,-196.7084985681945 -235.2691246913489,-199.20849856819555 -235.9389976723769,-201.70849856822554 -237.76912469127095,-203.5386255871986 -240.269124691272,-204.20849856833453 -242.76912469130198,-203.53862558730654 -244.59925171027504,-201.7084985684125 -245.26912469141098,-199.20849856841144 -244.599251710383,-196.70849856838146 -242.76912469148894,-194.8783715494084 -240.2691246914879,-194.20849856827246" stroke="#00f" stroke-linecap="round" stroke-linejoin="round"/><polyline fill="none" points="136.04822716044077,341.75739518415196 138.54822716047076,341.08752220312397 140.37835417944382,339.25739518422995 141.04822716057976,336.75739518422887 140.37835417955176,334.2573951841989 138.54822716065772,332.4272681652258 136.04822716065667,331.7573951840899 133.54822716062668,332.4272681651179 131.71810014165362,334.2573951840119 131.04822716051768,336.757395184013 131.71810014154568,339.25739518404293 133.54822716043972,341.087522203016 136.04822716044077,341.75739518415196" stroke="#ffa500" stroke-linecap="round" stroke-linejoin="round"/><polyline fill="none" points="-75.12391138855445,-234.35578498707844 -72.62391138852446,-235.02565796810643 -70.7937843695514,-236.85578498700048 -70.12391138841546,-239.35578498700153 -70.79378436944346,-241.8557849870315 -72.6239113883375,-243.68591200600457 -75.12391138833856,-244.3557849871405 -77.62391138836854,-243.68591200611252 -79.45403840734161,-241.85578498721847 -80.12391138847755,-239.35578498721742 -79.45403840744956,-236.85578498718743 -77.62391138855551,-235.02565796821438 -75.12391138855446,-234.35578498707844" stroke="#ffa500" stroke-linecap="round" stroke-linejoin="round"/><polyline fill="none" points="-374.56141037039686,-154.64350844988053 -372.0614103703669,-155.31338143090852 -370.2312833513938,-157.14350844980257 -369.5614103702579,-159.64350844980362 -370.23128335128587,-162.1435084498336 -372.0614103701799,-163.97363546880666 -374.56141037018097,-164.6435084499426 -377.0614103702109,-163.9736354689146 -378.891537389184,-162.14350845002056 -379.56141037031995,-159.6435084500195 -378.89153738929195,-157.14350844998953 -377.06141037039794,-155.31338143101647 -374.56141037039686,-154.64350844988053" stroke="#008000" stroke-linecap="round" stroke-linejoin="round"/><polyline fill="none" points="-133.02191796566458,-66.768424690651 -130.5219179656346,-67.43829767167898 -128.69179094666154,-69.26842469057301 -128.0219179655256,-71.76842469057407 -128.6917909465536,-74.26842469060405 -130.52191796544764,-76.09855170957712 -133.0219179654487,-76.76842469071308 -135.52191796547868,-76.0985517096851 -137.35204498445174,-74.26842469079106 -138.02191796558768,-71.76842469079001 -137.35204498455968,-69.26842469076003 -135.52191796566564,-67.43829767178696 -133.02191796566458,-66.768424690651" stroke="#ffa500" stroke-linecap="round" stroke-linejoin="round"/><polyline fill="none" points="-426.16661232293995,-183.82903496755392 -423.66661232291,-184.49890794858192 -421.8364853039369,-186.32903496747596 -421.166612322801,-188.829034967477 -421.83648530382897,-191.329034967507 -423.666612322723,-193.1591619864801 -426.16661232272406,-193.82903496761602 -428.6666123227541,-193.15916198658803 -430.49673934172716,-191.32903496769399 -431.1666123228631,-188.82903496769293 -430.4967393418351,-186.32903496766295 -428.6666123229411,-184.49890794868986 -426.16661232294,-183.82903496755392" stroke="#00f" stroke-linecap="round" stroke-linejoin="round"/><polyline fill="none" points="63.796922472280166,-260.3034295592692 66.29692247231016,-260.9733025402972 68.12704949128323,-262.8034295591912 68.79692247241918,-265.3034295591923 68.1270494913912,-267.8034295592223 66.29692247249717,-269.6335565781954 63.79692247249612,-270.30342955933133 61.296922472466136,-269.63355657830334 59.466795453493056,-267.8034295594093 58.7969224723571,-265.30342955940824 59.46679545338508,-262.80342955937823 61.296922472279114,-260.97330254040514 63.79692247228017,-260.3034295592692" stroke="#00f" stroke-linecap="round" stroke-linejoin="round"/><polyline fill="none" points="-61.525113466909,-141.85101292752879 -59.02511346687901,-142.52088590855675 -57.19498644790593,-144.3510129274508 -56.52511346676998,-146.85101292745185 -57.19498644779796,-149.35101292748183 -59.02511346669199,-151.18113994645492 -61.52511346669304,-151.8510129275909 -64.02511346672303,-151.18113994656292 -65.8552404856961,-149.35101292766888 -66.52511346683205,-146.85101292766782 -65.85524048580407,-144.35101292763784 -64.02511346691004,-142.52088590866475 -61.52511346690899,-141.85101292752879" stroke="#ffa500" stroke-linecap="round" stroke-linejoin="round"/><polyline fill="none" points="-319.0684211625088,-105.78135810567957 -316.5684211624788,-106.45123108670755 -314.7382941435057,-108.28135810560158 -314.06842116236976,-110.78135810560264 -314.73829414339775,-113.28135810563262 -316.56842116229177,-115.11148512460571 -319.06842116229285,-115.78135810574166 -321.56842116232286,-115.11148512471368 -323.39854818129595,-113.28135810581965 -324.0684211624319,-110.7813581058186 -323.3985481814039,-108.28135810578861 -321.5684211625099,-106.45123108681553 -319.0684211625088,-105.78135810567957" stroke="#ffa500" stroke-linecap="round" stroke-linejoin="round"/><polyline fill="none" points="-56.07501439745476,-220.4082217877107 -53.575014397424766,-221.07809476873865 -51.744887378451686,-222.90822178763267 -51.07501439731573,-225.40822178763372 -51.7448873783437,-227.9082217876637 -53.57501439723773,-229.7383488066368 -56.07501439723878,-230.40822178777276 -58.575014397268774,-229.7383488067448 -60.40514141624186,-227.90822178785078 -61.07501439737782,-225.40822178784973 -60.40514141634985,-222.90822178781974 -58.57501439745582,-221.07809476884665 -56.075014397454765,-220.4082217877107" stroke="#ffa500" stroke-linecap="round" stroke-linejoin="round"/><polyline fill="none" points="-316.1046738213754,-26.061966383893747 -313.6046738213454,-26.73183936492172 -311.7745468023723,-28.561966383815747 -311.10467382123636,-31.061966383816802 -311.77454680226435,-33.561966383846794 -313.60467382115837,-35.39209340281988 -316.10467382115945,-36.06196638395585 -318.60467382118946,-35.39209340292788 -320.43480084016255,-33.56196638403385 -321.1046738212985,-31.061966384032797 -320.4348008402705,-28.561966384002805 -318.6046738213765,-26.731839365029717 -316.1046738213754,-26.061966383893754" stroke="#00f" stroke-linecap="round" stroke-linejoin="round"/><polyline fill="none" points="116.52074864157501,-148.95220588629704 119.02074864160501,-149.622078867325 120.8508756605781,-151.45220588621902 121.52074864171406,-153.95220588622007 120.8508756606861,-156.45220588625006 119.02074864179207,-158.28233290522314 116.52074864179102,-158.9522058863591 114.02074864176102,-158.28233290533115 112.19062162278793,-156.45220588643713 111.52074864165196,-153.95220588643608 112.19062162267993,-151.4522058864061 114.02074864157396,-149.622078867433 116.52074864157501,-148.95220588629704" stroke="#00f" stroke-linecap="round" stroke-linejoin="round"/><polyline fill="none" points="177.27088089337374,-188.6787691182454 179.77088089340373,-189.34864209927338 181.60100791237682,-191.1787691181674 182.27088089351278,-193.67876911816845 181.60100791248482,-196.17876911819843 179.7708808935908,-198.00889613717152 177.27088089358975,-198.67876911830749 174.77088089355976,-198.00889613727952 172.94075387458668,-196.1787691183855 172.2708808934507,-193.67876911838445 172.94075387447867,-191.17876911835447 174.7708808933727,-189.34864209938138 177.27088089337374,-188.6787691182454" stroke="#00f" stroke-linecap="round" stroke-linejoin="round"/><polyline fill="none" points="-0.7842392773652072,79.65000768906482 1.7157607226647889,78.98013470803686 3.5458877416378813,77.15000768914283 4.215760722773853,74.65000768914177 3.5458877417458905,72.15000768911177 1.7157607228518656,70.31988067013869 -0.7842392771491904,69.65000768900272 -3.2842392771791875,70.31988067003068 -5.114366296152282,72.1500076889247 -5.784239277288255,74.65000768892575 -5.114366296260294,77.15000768895575 -3.28423927736627,78.98013470792885 -0.7842392773652138,79.65000768906482" stroke="#ffa500" stroke-linecap="round" stroke-linejoin="round"/><polyline fill="none" points="-117.5571644617886,-20.935878214927197 -115.0571644617586,-21.605751195955158 -113.2270374427855,-23.435878214849183 -112.55716446164952,-25.935878214850238 -113.22703744267749,-28.435878214880237 -115.0571644615715,-30.266005233853335 -117.55716446157255,-30.93587821498931 -120.05716446160255,-30.266005233961348 -121.88729148057566,-28.435878215067323 -122.55716446171164,-25.935878215066268 -121.88729148068367,-23.43587821503627 -120.05716446178965,-21.60575119606317 -117.5571644617886,-20.935878214927193" stroke="#ffa500" stroke-linecap="round" stroke-linejoin="round"/><polyline fill="none" points="-218.08443764960802,-206.39177660672985 -215.58443764957804,-207.0616495877578 -213.75431063060495,-208.89177660665183 -213.08443764946898,-211.39177660665288 -213.75431063049695,-213.8917766066829 -215.58443764939096,-215.72190362565598 -218.08443764939202,-216.39177660679195 -220.58443764942203,-215.72190362576399 -222.41456466839512,-213.89177660686997 -223.08443764953108,-211.39177660686892 -222.41456466850312,-208.8917766068389 -220.5844376496091,-207.06164958786582 -218.08443764960805,-206.39177660672985" stroke="#ffa500" stroke-linecap="round" stroke-linejoin="round"/><polyline fill="none" points="-300.9396843571198,-40.57380383261092 -298.4396843570898,-41.24367681363888 -296.6095573381167,-43.0738038325329 -295.9396843569807,-45.57380383253396 -296.60955733800864,-48.07380383256396 -298.43968435690266,-49.90393085153706 -300.93968435690374,-50.57380383267304 -303.43968435693375,-49.903930851645086 -305.26981137590684,-48.07380383275107 -305.93968435704284,-45.57380383275001 -305.2698113760149,-43.07380383272001 -303.4396843571209,-41.24367681374691 -300.9396843571198,-40.57380383261093" stroke="#ffa500" stroke-linecap="round" stroke-linejoin="round"/><polyline fill="none" points="-418.0045822259801,-91.4683947819057 -415.50458222595006,-92.13826776293365 -413.674455206977,-93.96839478182767 -413.004582225841,-96.46839478182872 -413.6744552068689,-98.96839478185872 -415.50458222576293,-100.79852180083182 -418.004582225764,-101.4683947819678 -420.504582225794,-100.79852180093985 -422.3347092447671,-98.96839478204583 -423.0045822259031,-96.46839478204478 -422.33470924487517,-93.96839478201478 -420.50458222598115,-92.13826776304168 -418.0045822259801,-91.4683947819057" stroke="#ffa500" stroke-linecap="round" stroke-linejoin="round"/><polyline fill="none" points="-154.39236153454954,-204.53935355321866 -151.89236153451952,-205.20922653424662 -150.0622345155464,-207.03935355314064 -149.3923615344104,-209.5393535531417 -150.06223451543835,-212.0393535531717 -151.89236153433237,-213.86948057214482 -154.39236153433342,-214.53935355328082 -156.89236153436343,-213.86948057225288 -158.72248855333655,-212.03935355335886 -159.39236153447254,-209.5393535533578 -158.7224885534446,-207.0393535533278 -156.8923615345506,-205.20922653435468 -154.39236153454954,-204.5393535532187" stroke="#00f" stroke-linecap="round" stroke-linejoin="round"/><polyline fill="none" points="-463.53857512970126,-130.7189777982622 -461.03857512967124,-131.38885077929012 -459.20844811069816,-133.21897779818414 -458.53857512956216,-135.7189777981852 -459.2084481105901,-138.2189777982152 -461.0385751294841,-140.04910481718832 -463.5385751294852,-140.71897779832432 -466.0385751295152,-140.04910481729638 -467.8687021484883,-138.21897779840236 -468.5385751296243,-135.7189777984013 -467.86870214859636,-133.2189777983713 -466.03857512970234,-131.38885077939818 -463.53857512970126,-130.7189777982622" stroke="#ffa500" stroke-linecap="round" stroke-linejoin="round"/><polyline fill="none" points="-265.74673990499554,34.155606786519485 -263.2467399049655,33.48573380549154 -261.41661288599244,31.655606786597524 -260.74673990485644,29.155606786596465 -261.4166128858844,26.655606786566455 -263.2467399047784,24.825479767593343 -265.7467399047795,24.155606786457348 -268.2467399048095,24.82547976748529 -270.0768669237826,26.655606786379305 -270.74673990491857,29.155606786380364 -270.07686692389063,31.655606786410374 -268.2467399049966,33.48573380538349 -265.74673990499554,34.155606786519485" stroke="#ffa500" stroke-linecap="round" stroke-linejoin="round"/><polyline fill="none" points="70.27118691039345,170.3720673936624 72.77118691042347,169.70219441263447 74.60131392939658,167.87206739374045 75.27118691053258,165.3720673937394 74.60131392950464,162.8720673937094 72.77118691061062,161.04194037473627 70.27118691060957,160.37206739360028 67.77118691057956,161.0419403746282 65.94105989160644,162.87206739352223 65.27118691047045,165.37206739352328 65.94105989149838,167.8720673935533 67.7711869103924,169.7021944125264 70.27118691039345,170.3720673936624" stroke="#ffa500" stroke-linecap="round" stroke-linejoin="round"/><polyline fill="none" points="-421.8460824506763,-123.18421822285399 -419.3460824506463,-123.85409120388192 -417.51595543167315,-125.68421822277594 -416.84608245053715,-128.184218222777 -417.5159554315651,-130.684218222807 -419.3460824504591,-132.51434524178012 -421.8460824504602,-133.18421822291612 -424.3460824504902,-132.51434524188818 -426.17620946946334,-130.68421822299416 -426.84608245059934,-128.1842182229931 -426.1762094695714,-125.6842182229631 -424.3460824506774,-123.85409120398998 -421.8460824506763,-123.18421822285399" stroke="#f00" stroke-linecap="round" stroke-linejoin="round"/><polyline fill="none" points="-49.319066888424686,-182.9797433315157 -46.81906688839467,-183.64961631254363 -44.98893986942155,-185.47974333143765 -44.31906688828555,-187.9797433314387 -44.988939869313484,-190.4797433314687 -46.819066888207495,-192.30987035044183 -49.31906688820855,-192.97974333157782 -51.81906688823857,-192.3098703505499 -53.64919390721169,-190.47974333165587 -54.31906688834769,-187.97974333165482 -53.649193907319756,-185.4797433316248 -51.819066888425745,-183.6496163126517 -49.319066888424686,-182.9797433315157" stroke="#ffa500" stroke-linecap="round" stroke-linejoin="round"/><polyline fill="none" points="165.914940644012,-168.48379378984612 168.41494064404202,-169.15366677087405 170.24506766301513,-170.98379378976807 170.91494064415113,-173.48379378976912 170.2450676631232,-175.98379378979914 168.41494064422918,-177.81392080877225 165.91494064422812,-178.48379378990825 163.4149406441981,-177.8139208088803 161.584813625225,-175.9837937899863 160.914940644089,-173.48379378998524 161.58481362511694,-170.98379378995523 163.41494064401095,-169.1536667709821 165.914940644012,-168.48379378984612" stroke="#ffa500" stroke-linecap="round" stroke-linejoin="round"/><polyline fill="none" points="234.65647967632327,-170.07245416028633 237.15647967635329,-170.74232714131426 238.9866066953264,-172.57245416020828 239.6564796764624,-175.07245416020933 238.98660669543446,-177.57245416023935 237.15647967654044,-179.40258117921246 234.6564796765394,-180.07245416034846 232.15647967650938,-179.40258117932052 230.32635265753626,-177.5724541604265 229.65647967640027,-175.07245416042545 230.3263526574282,-172.57245416039544 232.15647967632222,-170.74232714142232 234.65647967632327,-170.07245416028633" stroke="#ffa500" stroke-linecap="round" stroke-linejoin="round"/><polyline fill="none" points="-402.89422618376966,-116.4280060405414 -400.39422618373965,-117.09787902156934 -398.5640991647665,-118.92800604046334 -397.8942261836305,-121.4280060404644 -398.56409916465844,-123.92800604049441 -400.39422618355246,-125.75813305946754 -402.89422618355354,-126.42800604060355 -405.39422618358356,-125.75813305957561 -407.2243532025567,-123.92800604068161 -407.8942261836927,-121.42800604068056 -407.22435320266476,-118.92800604065054 -405.39422618377074,-117.09787902167741 -402.89422618376966,-116.4280060405414" stroke="#00f" stroke-linecap="round" stroke-linejoin="round"/><polyline fill="none" points="110.1467396322494,-243.71403977706555 112.64673963227942,-244.3839127580935 114.47686665125255,-246.2140397769875 115.14673963238856,-248.71403977698856 114.47686665136064,-251.21403977701857 112.64673963246663,-253.0441667959917 110.14673963246558,-253.71403977712774 107.64673963243557,-253.0441667960998 105.81661261346244,-251.21403977720578 105.14673963232643,-248.71403977720473 105.81661261335435,-246.21403977717472 107.64673963224836,-244.38391275820157 110.1467396322494,-243.71403977706555" stroke="#ffa500" stroke-linecap="round" stroke-linejoin="round"/><polyline fill="none" points="-121.36288832840586,-156.15977387825018 -118.86288832837585,-156.8296468592781 -117.03276130940272,-158.65977387817213 -116.3628883282667,-161.15977387817318 -117.03276130929463,-163.6597738782032 -118.86288832818863,-165.48990089717634 -121.36288832818968,-166.15977387831236 -123.8628883282197,-165.48990089728443 -125.69301534719283,-163.6597738783904 -126.36288832832885,-161.15977387838936 -125.69301534730093,-158.65977387835935 -123.86288832840692,-156.8296468593862 -121.36288832840587,-156.15977387825018" stroke="#ffa500" stroke-linecap="round" stroke-linejoin="round"/><polyline fill="none" points="54.915361674583565,102.74940777823713 57.415361674613585,102.0795347972092 59.24548869358672,100.2494077783152 59.91536167472274,97.74940777831415 59.24548869369482,95.24940777828412 57.41536167480081,93.419280759311 54.915361674799755,92.74940777817497 52.415361674769734,93.41928075920289 50.5852346557966,95.2494077780969 49.91536167466058,97.74940777809795 50.5852346556885,100.24940777812797 52.415361674582506,102.0795347971011 54.915361674583565,102.74940777823713" stroke="#ffa500" stroke-linecap="round" stroke-linejoin="round"/><polyline fill="none" points="184.22834396925913,296.5452883583909 186.72834396928914,295.87541537736297 188.5584709882623,294.04528835846895 189.2283439693983,291.5452883584679 188.5584709883704,289.04528835843786 186.7283439694764,287.2151613394647 184.22834396947536,286.5452883583287 181.72834396944535,287.21516133935665 179.8982169504722,289.0452883582507 179.22834396933618,291.54528835825175 179.8982169503641,294.04528835828177 181.72834396925808,295.8754153772549 184.22834396925913,296.5452883583909" stroke="#ffa500" stroke-linecap="round" stroke-linejoin="round"/><polyline fill="none" points="-334.2572261417342,-213.10492448980128 -331.75722614170417,-213.77479747082918 -329.927099122731,-215.60492448972317 -329.25722614159497,-218.10492448972423 -329.9270991226229,-220.60492448975424 -331.7572261415169,-222.43505150872738 -334.257226141518,-223.1049244898634 -336.757226141548,-222.4350515088355 -338.58735316052116,-220.6049244899415 -339.2572261416572,-218.10492448994046 -338.5873531606293,-215.60492448991045 -336.75722614173526,-213.7747974709373 -334.2572261417342,-213.10492448980128" stroke="#00f" stroke-linecap="round" stroke-linejoin="round"/><polyline fill="none" points="-301.9749001290052,22.552945166371043 -299.4749001289752,21.883072185343128 -297.64477311000206,20.052945166449128 -296.974900128866,17.55294516644807 -297.64477310989395,15.052945166418043 -299.47490012878797,13.222818147444901 -301.97490012878905,12.552945166308874 -304.47490012881906,13.222818147336788 -306.3050271477922,15.052945166230787 -306.97490012892825,17.552945166231844 -306.3050271479003,20.05294516626187 -304.4749001290063,21.883072185235015 -301.9749001290052,22.552945166371043" stroke="#00f" stroke-linecap="round" stroke-linejoin="round"/><polyline fill="none" points="80.68087125109858,114.7454766473251 83.18087125112861,114.0756036662972 85.01099827010175,112.2454766474032 85.68087125123778,109.74547664740214 85.01099827020987,107.24547664737212 83.18087125131586,105.41534962839897 80.6808712513148,104.74547664726295 78.18087125128477,105.41534962829085 76.35074423231163,107.24547664718486 75.6808712511756,109.74547664718592 76.35074423220351,112.24547664721595 78.18087125109751,114.0756036661891 80.68087125109858,114.74547664732513" stroke="#ffa500" stroke-linecap="round" stroke-linejoin="round"/><polyline fill="none" points="-382.1584469882775,-211.77746133010288 -379.6584469882475,-212.4473343111308 -377.82831996927433,-214.27746133002478 -377.1584469881383,-216.77746133002583 -377.8283199691662,-219.27746133005587 -379.65844698806023,-221.10758834902902 -382.1584469880613,-221.77746133016504 -384.6584469880913,-221.10758834913713 -386.48857400706447,-219.27746133024314 -387.1584469882005,-216.7774613302421 -386.4885740071726,-214.27746133021205 -384.65844698827857,-212.4473343112389 -382.1584469882775,-211.77746133010288" stroke="#ffa500" stroke-linecap="round" stroke-linejoin="round"/><polyline fill="none" points="-305.63707957646955,-188.8313212110371 -303.13707957643953,-189.50119419206501 -301.3069525574664,-191.331321210959 -300.63707957633034,-193.83132121096006 -301.3069525573583,-196.3313212109901 -303.1370795762523,-198.16144822996324 -305.63707957625337,-198.83132121109927 -308.1370795762834,-198.16144823007136 -309.9672065952565,-196.33132121117737 -310.6370795763926,-193.83132121117632 -309.96720659536464,-191.33132121114627 -308.1370795764706,-189.50119419217313 -305.63707957646955,-188.8313212110371" stroke="#00f" stroke-linecap="round" stroke-linejoin="round"/><polyline fill="none" points="137.88480801290055,-116.01033563368051 140.3848080129306,-116.68020861470842 142.21493503190374,-118.51033563360241 142.88480801303976,-121.01033563360348 142.21493503201185,-123.5103356336335 140.38480801311786,-125.34046265260666 137.8848080131168,-126.0103356337427 135.38480801308677,-125.34046265271479 133.55468099411362,-123.5103356338208 132.88480801297757,-121.01033563381974 133.55468099400548,-118.51033563378971 135.38480801289947,-116.68020861481655 137.88480801290052,-116.01033563368051" stroke="#ffa500" stroke-linecap="round" stroke-linejoin="round"/><polyline fill="none" points="-180.12287524061492,-52.064833246608934 -177.62287524058488,-52.73470622763684 -175.79274822161173,-54.56483324653084 -175.12287524047568,-57.0648332465319 -175.7927482215036,-59.56483324656193 -177.62287524039758,-61.39496026553509 -180.12287524039863,-62.06483324667113 -182.62287524042867,-61.39496026564323 -184.4530022594018,-59.56483324674923 -185.12287524053787,-57.06483324674817 -184.45300225950996,-54.56483324671814 -182.62287524061597,-52.73470622774498 -180.12287524061492,-52.064833246608934" stroke="#00f" stroke-linecap="round" stroke-linejoin="round"/><polyline fill="none" points="-44.29363971864982,124.63736034745114 -41.79363971861979,123.96748736642323 -39.96351269964663,122.13736034752924 -39.29363971851058,119.63736034752817 -39.963512699538484,117.13736034749813 -41.79363971843247,115.30723332852497 -44.29363971843353,114.63736034738893 -46.79363971846357,115.30723332841684 -48.623766737436725,117.13736034731083 -49.29363971857277,119.6373603473119 -48.62376673754487,122.13736034734194 -46.79363971865088,123.9674873663151 -44.29363971864982,124.63736034745115" stroke="#ffa500" stroke-linecap="round" stroke-linejoin="round"/><polyline fill="none" points="-431.30398637016367,-210.97666571747308 -428.80398637013366,-211.646538698501 -426.9738593511605,-213.47666571739498 -426.30398637002446,-215.97666571739603 -426.97385935105234,-218.47666571742607 -428.80398636994636,-220.30679273639925 -431.30398636994744,-220.9766657175353 -433.80398636997745,-220.3067927365074 -435.6341133889506,-218.4766657176134 -436.30398637008665,-215.97666571761235 -435.63411338905877,-213.4766657175823 -433.80398637016475,-211.64653869860913 -431.30398637016367,-210.97666571747308" stroke="#ffa500" stroke-linecap="round" stroke-linejoin="round"/><polyline fill="none" points="-226.3741910808105,-178.54835359172708 -223.87419108078046,-179.218226572755 -222.0440640618073,-181.04835359164898 -221.37419108067124,-183.54835359165003 -222.04406406169915,-186.04835359168007 -223.87419108059314,-187.87848061065324 -226.3741910805942,-188.5483535917893 -228.87419108062423,-187.8784806107614 -230.7043180995974,-186.0483535918674 -231.37419108073345,-183.54835359186634 -230.70431809970555,-181.0483535918363 -228.87419108081156,-179.21822657286313 -226.3741910808105,-178.54835359172708" stroke="#ffa500" stroke-linecap="round" stroke-linejoin="round"/><polyline fill="none" points="-352.3509096558713,-58.03161630415729 -349.8509096558413,-58.70148928518518 -348.02078263686815,-60.53161630407917 -347.3509096557321,-63.03161630408023 -348.02078263676,-65.53161630411027 -349.85090965565394,-67.36174332308343 -352.350909655655,-68.03161630421948 -354.85090965568503,-67.36174332319159 -356.6810366746582,-65.5316163042976 -357.3509096557942,-63.03161630429654 -356.68103667476635,-60.5316163042665 -354.8509096558724,-58.701489285293334 -352.3509096558713,-58.03161630415728" stroke="#ffa500" stroke-linecap="round" stroke-linejoin="round"/><polyline fill="none" points="-57.568439819042,93.6269515840128 -55.06843981901196,92.95707860298491 -53.23831280003879,91.12695158409092 -52.56843981890274,88.62695158408985 -53.23831279993063,86.12695158405981 -55.06843981882462,84.29682456508664 -57.56843981882568,83.62695158395059 -60.06843981885572,84.29682456497848 -61.89856683782889,86.12695158387247 -62.56843981896494,88.62695158387353 -61.89856683793705,91.12695158390358 -60.068439819043064,92.95707860287675 -57.568439819042005,93.6269515840128" stroke="#00f" stroke-linecap="round" stroke-linejoin="round"/><polyline fill="none" points="135.37040071397186,282.68076230519296 137.8704007140019,282.0108893241651 139.70052773297508,280.1807623052711 140.37040071411113,277.68076230527004 139.70052773308325,275.18076230523997 137.87040071418926,273.3506352862668 135.3704007141882,272.68076230513077 132.87040071415817,273.35063528615865 131.040273695185,275.1807623050526 130.37040071404894,277.6807623050537 131.04027369507682,280.18076230508376 132.8704007139708,282.0108893240569 135.37040071397186,282.68076230519296" stroke="#ffa500" stroke-linecap="round" stroke-linejoin="round"/><polyline fill="none" points="-229.53045666348422,-97.50618074433761 -227.03045666345417,-98.1760537253655 -225.200329644481,-100.0061807442595 -224.53045666334495,-102.50618074426055 -225.20032964437283,-105.00618074429059 -227.03045666326682,-106.83630776326376 -229.53045666326787,-107.50618074439983 -232.0304566632979,-106.83630776337193 -233.86058368227108,-105.00618074447794 -234.53045666340714,-102.50618074447688 -233.86058368237926,-100.00618074444684 -232.03045666348527,-98.17605372547366 -229.53045666348422,-97.5061807443376" stroke="#00f" stroke-linecap="round" stroke-linejoin="round"/><polyline fill="none" points="-213.9304965433573,29.54903647044215 -211.43049654332725,28.879163489414264 -209.60036952435408,27.04903647052028 -208.93049654321803,24.549036470519223 -209.6003695242459,22.049036470489177 -211.4304965431399,20.218909451516 -213.93049654314095,19.54903647037994 -216.430496543171,20.218909451407825 -218.26062356214416,22.049036470301807 -218.9304965432802,24.549036470302866 -218.26062356225233,27.04903647033291 -216.43049654335834,28.879163489306087 -213.9304965433573,29.54903647044215" stroke="#ffa500" stroke-linecap="round" stroke-linejoin="round"/><polyline fill="none" points="-152.16163504617103,-56.61581794529506 -149.661635046141,-57.28569092632295 -147.8315080271678,-59.11581794521693 -147.16163504603176,-61.61581794521799 -147.83150802705964,-64.11581794524804 -149.66163504595363,-65.94594496422121 -152.16163504595468,-66.61581794535728 -154.66163504598472,-65.9459449643294 -156.4917620649579,-64.11581794543542 -157.16163504609395,-61.615817945434365 -156.49176206506607,-59.115817945404316 -154.66163504617208,-57.28569092643114 -152.16163504617103,-56.61581794529507" stroke="#ffa500" stroke-linecap="round" stroke-linejoin="round"/><polyline fill="none" points="-319.2042366310066,-166.90599895645104 -316.70423663097654,-167.57587193747892 -314.87410961200334,-169.4059989563729 -314.2042366308673,-171.90599895637396 -314.87410961189516,-174.405998956404 -316.7042366307891,-176.23612597537718 -319.2042366307902,-176.90599895651326 -321.7042366308203,-176.23612597548538 -323.5343636497935,-174.4059989565914 -324.20423663092953,-171.90599895659034 -323.53436364990165,-169.4059989565603 -321.7042366310077,-167.57587193758712 -319.2042366310066,-166.90599895645104" stroke="#008000" stroke-linecap="round" stroke-linejoin="round"/><polyline fill="none" points="-344.53564082749716,-198.90579186429412 -342.0356408274671,-199.575664845322 -340.2055138084939,-201.40579186421598 -339.53564082735784,-203.90579186421704 -340.2055138083857,-206.40579186424708 -342.0356408272797,-208.23591888322025 -344.53564082728076,-208.90579186435633 -347.03564082731083,-208.23591888332845 -348.86576784628403,-206.40579186443446 -349.5356408274201,-203.9057918644334 -348.8657678463922,-201.40579186440337 -347.03564082749824,-199.5756648454302 -344.53564082749716,-198.90579186429412" stroke="#00f" stroke-linecap="round" stroke-linejoin="round"/><polyline fill="none" points="166.62120141810004,319.29531882468103 169.12120141813008,318.62544584365315 170.95132843710326,316.7953188247592 171.62120141823934,314.2953188247581 170.95132843721146,311.79531882472804 169.12120141831747,309.96519180575484 166.62120141831642,309.2953188246188 164.12120141828638,309.96519180564667 162.2910743993132,311.79531882454063 161.62120141817712,314.2953188245417 162.291074399205,316.7953188245718 164.121201418099,318.625445843545 166.62120141810004,319.29531882468103" stroke="#00f" stroke-linecap="round" stroke-linejoin="round"/><polyline fill="none" points="-327.1356691429116,-86.04767234652441 -324.6356691428815,-86.71754532755229 -322.8055421239083,-88.54767234644626 -322.13566914277226,-91.04767234644733 -322.80554212380014,-93.54767234647738 -324.6356691426941,-95.37779936545057 -327.1356691426952,-96.04767234658665 -329.63566914272525,-95.37779936555877 -331.46579616169845,-93.5476723466648 -332.1356691428345,-91.04767234666373 -331.4657961618066,-88.54767234663368 -329.63566914291266,-86.71754532766049 -327.1356691429116,-86.04767234652441" stroke="#00f" stroke-linecap="round" stroke-linejoin="round"/><polyline fill="none" points="73.1590444938942,143.11321549433347 75.65904449392426,142.4433425133056 77.48917151289744,140.61321549441163 78.15904449403352,138.11321549441058 77.48917151300566,135.61321549438054 75.65904449411168,133.78308847540734 73.15904449411062,133.11321549427126 70.65904449408056,133.78308847529914 68.82891747510737,135.6132154941931 68.1590444939713,138.11321549419415 68.82891747499916,140.6132154942242 70.65904449389313,142.4433425131974 73.1590444938942,143.11321549433347" stroke="#ffa500" stroke-linecap="round" stroke-linejoin="round"/><polyline fill="none" points="-282.02921024470766,-91.43775917036552 -279.5292102446776,-92.10763215139339 -277.6990832257044,-93.93775917028736 -277.0292102445683,-96.43775917028843 -277.69908322559615,-98.93775917031849 -279.5292102444901,-100.76788618929167 -282.0292102444912,-101.43775917042775 -284.52921024452127,-100.76788618939989 -286.35933726349447,-98.93775917050591 -287.0292102446306,-96.43775917050485 -286.3593372636027,-93.93775917047479 -284.52921024470874,-92.1076321515016 -282.02921024470766,-91.43775917036552" stroke="#ffa500" stroke-linecap="round" stroke-linejoin="round"/><polyline fill="none" points="19.866320001075792,-167.79463851996118 22.366320001105848,-168.46451150098906 24.19644702007904,-170.29463851988302 24.866320001215126,-172.79463851988407 24.19644702018726,-175.29463851991414 22.36632000129329,-177.12476553888735 19.86632000129223,-177.79463852002343 17.366320001262174,-177.12476553899558 15.53619298228898,-175.2946385201016 14.866320001152895,-172.79463852010056 15.53619298218076,-170.2946385200705 17.36632000107473,-168.4645115010973 19.86632000107579,-167.7946385199612" stroke="#ffa500" stroke-linecap="round" stroke-linejoin="round"/><polyline fill="none" points="-382.8207623590769,32.117106493642 -380.32076235904685,31.447233512614133 -378.49063534007365,29.617106493720165 -377.82076235893754,27.117106493719106 -378.4906353399654,24.617106493689047 -380.3207623588594,22.78697947471585 -382.82076235886046,22.11710649357976 -385.32076235889053,22.786979474607623 -387.15088937786373,24.61710649350159 -387.82076235899984,27.11710649350265 -387.15088937797196,29.61710649353271 -385.320762359078,31.447233512505907 -382.8207623590769,32.117106493642" stroke="#ffa500" stroke-linecap="round" stroke-linejoin="round"/><polyline fill="none" points="-89.95513100230386,-141.4657000974405 -87.4551310022738,-142.13557307846835 -85.6250039833006,-143.96570009736232 -84.9551310021645,-146.46570009736337 -85.62500398319237,-148.96570009739344 -87.45513100208635,-150.79582711636664 -89.95513100208741,-151.46570009750272 -92.45513100211747,-150.79582711647487 -94.28525802109067,-148.9657000975809 -94.95513100222676,-146.46570009757986 -94.2852580211989,-143.96570009754979 -92.45513100230494,-142.13557307857658 -89.95513100230387,-141.4657000974405" stroke="#ffa500" stroke-linecap="round" stroke-linejoin="round"/><polyline fill="none" points="-412.212923338259,-139.1745634178112 -409.7129233382289,-139.84443639883906 -407.8827963192557,-141.67456341773303 -407.2129233381196,-144.17456341773408 -407.8827963191475,-146.67456341776415 -409.71292333804143,-148.50469043673735 -412.2129233380425,-149.17456341787343 -414.7129233380726,-148.50469043684558 -416.5430503570458,-146.67456341795162 -417.2129233381819,-144.17456341795057 -416.543050357154,-141.6745634179205 -414.71292333826005,-139.8444363989473 -412.212923338259,-139.17456341781119" stroke="#008000" stroke-linecap="round" stroke-linejoin="round"/><polyline fill="none" points="-241.52683828752475,6.523200709727005 -239.02683828749468,5.853327728699148 -237.19671126852148,4.023200709805182 -236.52683828738537,1.5232007098041223 -237.19671126841322,-0.9767992902259399 -239.02683828730719,-2.8069263091991434 -241.52683828730824,-3.4767992903352405 -244.0268382873383,-2.806926309307385 -245.8569653063115,-0.9767992904134195 -246.52683828744762,1.5232007095876396 -245.85696530641977,4.0232007096177025 -244.0268382875258,5.853327728590908 -241.52683828752475,6.523200709727006" stroke="#00f" stroke-linecap="round" stroke-linejoin="round"/><polyline fill="none" points="-211.2261431953112,-86.81288362885822 -208.72614319528114,-87.48275660988607 -206.89601617630794,-89.31288362878003 -206.22614319517183,-91.8128836287811 -206.89601617619968,-94.31288362881116 -208.72614319509364,-96.14301064778437 -211.2261431950947,-96.81288362892046 -213.72614319512476,-96.14301064789261 -215.55627021409796,-94.31288362899865 -216.22614319523407,-91.81288362899758 -215.55627021420622,-89.31288362896751 -213.72614319531226,-87.48275660999431 -211.2261431953112,-86.81288362885822" stroke="#ffa500" stroke-linecap="round" stroke-linejoin="round"/><polyline fill="none" points="22.856006605732016,118.80030385948979 25.356006605762083,118.13043087846194 27.18613362473529,116.30030385956798 27.856006605871393,113.80030385956691 27.186133624843542,111.30030385953684 25.35600660594958,109.47017684056362 22.856006605948522,108.80030385942752 20.356006605918456,109.47017684045537 18.525879586945248,111.30030385934933 17.856006605809146,113.8003038593504 18.525879586836997,116.30030385938046 20.356006605730958,118.13043087835368 22.856006605732016,118.80030385948979" stroke="#00f" stroke-linecap="round" stroke-linejoin="round"/><polyline fill="none" points="-501.7651717074956,-146.29583181576496 -499.2651717074655,-146.9657047967928 -497.4350446884923,-148.79583181568677 -496.7651717073562,-151.29583181568782 -497.43504468838404,-153.7958318157179 -499.265171707278,-155.6259588346911 -501.7651717072791,-156.2958318158272 -504.26517170730915,-155.62595883479935 -506.09529872628235,-153.7958318159054 -506.76517170741846,-151.29583181590434 -506.09529872639064,-148.79583181587427 -504.2651717074967,-146.96570479690106 -501.7651717074956,-146.29583181576496" stroke="#ffa500" stroke-linecap="round" stroke-linejoin="round"/><polyline fill="none" points="-378.9898360324763,12.099861677940432 -376.48983603244625,11.429988696912584 -374.65970901347305,9.599861678018623 -373.98983603233694,7.0998616780175645 -374.65970901336476,4.599861677987497 -376.4898360322587,2.769734659014284 -378.9898360322598,2.099861677878176 -381.4898360322899,2.769734658906022 -383.3199630512631,4.599861677799981 -383.9898360323992,7.099861677801041 -383.31996305137136,9.59986167783111 -381.4898360324774,11.429988696804323 -378.9898360324763,12.099861677940432" stroke="#ffa500" stroke-linecap="round" stroke-linejoin="round"/><polyline fill="none" points="-298.9064201106942,2.768286201842882 -296.40642011066416,2.0984132208150377 -294.57629309169096,0.268286201921079 -293.90642011055485,-2.23171379807998 -294.57629309158267,-4.731713798110048 -296.40642011047663,-6.561840817083263 -298.9064201104777,-7.231713798219374 -301.4064201105078,-6.5618408171915314 -303.236547129481,-4.731713798297573 -303.9064201106171,-2.231713798296514 -303.23654712958927,0.2682862017335559 -301.4064201106953,2.0984132207067727 -298.9064201106942,2.7682862018428853" stroke="#ffa500" stroke-linecap="round" stroke-linejoin="round"/><polyline fill="none" points="-337.16375000397517,-159.7935387962687 -334.6637500039451,-160.46341177729656 -332.8336229849719,-162.29353879619052 -332.1637500038358,-164.79353879619157 -332.8336229848636,-167.29353879622164 -334.66375000375757,-169.12366581519487 -337.16375000375865,-169.79353879633098 -339.6637500037887,-169.12366581530313 -341.4938770227619,-167.29353879640917 -342.16375000389803,-164.79353879640811 -341.4938770228702,-162.29353879637804 -339.66375000397625,-160.46341177740481 -337.16375000397517,-159.7935387962687" stroke="#008000" stroke-linecap="round" stroke-linejoin="round"/><polyline fill="none" points="-463.1815787683496,-176.77050447241615 -460.6815787683195,-177.440377453444 -458.8514517493463,-179.27050447233796 -458.1815787682102,-181.770504472339 -458.85145174923804,-184.27050447236908 -460.681578768132,-186.1006314913423 -463.1815787681331,-186.77050447247842 -465.68157876816315,-186.10063149145057 -467.51170578713635,-184.2705044725566 -468.18157876827246,-181.77050447255556 -467.51170578724464,-179.2705044725255 -465.6815787683507,-177.44037745355226 -463.1815787683496,-176.77050447241615" stroke="#ffa500" stroke-linecap="round" stroke-linejoin="round"/><polyline fill="none" points="-367.3602832815735,-195.93698022081188 -364.86028328154345,-196.60685320183973 -363.03015626257024,-198.4369802207337 -362.36028328143414,-200.93698022073474 -363.03015626246196,-203.4369802207648 -364.8602832813559,-205.26710723973804 -367.360283281357,-205.93698022087415 -369.86028328138707,-205.26710723984633 -371.69041030036027,-203.43698022095236 -372.3602832814964,-200.9369802209513 -371.69041030046856,-198.43698022092124 -369.8602832815746,-196.606853201948 -367.3602832815735,-195.9369802208119" stroke="#00f" stroke-linecap="round" stroke-linejoin="round"/><polyline fill="none" points="-113.1214389069613,-216.66033958462793 -110.62143890693123,-217.33021256565576 -108.791311887958,-219.16033958454972 -108.12143890682188,-221.66033958455077 -108.79131188784972,-224.16033958458084 -110.62143890674366,-225.99046660355407 -113.12143890674473,-226.66033958469018 -115.6214389067748,-225.99046660366236 -117.45156592574803,-224.1603395847684 -118.12143890688415,-221.66033958476734 -117.45156592585631,-219.16033958473727 -115.62143890696237,-217.33021256576404 -113.12143890696132,-216.6603395846279" stroke="#00f" stroke-linecap="round" stroke-linejoin="round"/><polyline fill="none" points="-447.8704365005152,-146.56953817638814 -445.37043650048514,-147.23941115741596 -443.54030948151194,-149.06953817630992 -442.87043650037583,-151.56953817631097 -443.54030948140365,-154.06953817634104 -445.3704365002976,-155.89966519531427 -447.8704365002987,-156.5695381764504 -450.37043650032876,-155.89966519542259 -452.20056351930197,-154.06953817652862 -452.8704365004381,-151.56953817652757 -452.20056351941025,-149.0695381764975 -450.3704365005163,-147.23941115752427 -447.8704365005152,-146.56953817638814" stroke="#00f" stroke-linecap="round" stroke-linejoin="round"/><polyline fill="none" points="-16.890652630724972,104.88314968421004 -14.390652630694895,104.2132767031822 -12.560525611721665,102.38314968428826 -11.890652630585539,99.88314968428719 -12.560525611613368,97.3831496842571 -14.390652630507319,95.55302266528388 -16.890652630508377,94.88314968414775 -19.390652630538455,95.55302266517558 -21.220779649511684,97.38314968406952 -21.890652630647814,99.88314968407059 -21.220779649619985,102.38314968410067 -19.390652630726034,104.2132767030739 -16.890652630724976,104.88314968421003" stroke="#ffa500" stroke-linecap="round" stroke-linejoin="round"/><polyline fill="none" points="-392.52549531830755,-89.95778547698194 -390.0254953182775,-90.62765845800976 -388.1953682993042,-92.45778547690371 -387.5254953181681,-94.95778547690477 -388.19536829919593,-97.45778547693486 -390.0254953180899,-99.28791249590809 -392.525495318091,-99.95778547704423 -395.02549531812105,-99.2879124960164 -396.8556223370943,-97.45778547712246 -397.5254953182304,-94.95778547712139 -396.8556223372026,-92.4577854770913 -395.02549531830863,-90.62765845811808 -392.52549531830755,-89.95778547698194" stroke="#008000" stroke-linecap="round" stroke-linejoin="round"/><polyline fill="none" points="-143.91565529502444,-29.200923802796744 -141.41565529499437,-29.87079678382457 -139.58552827602114,-31.700923802718517 -138.915655294885,-34.20092380271958 -139.58552827591282,-36.70092380274966 -141.41565529480678,-38.53105082172289 -143.91565529480783,-39.20092380285902 -146.4156552948379,-38.5310508218312 -148.24578231381113,-36.700923802937254 -148.91565529494727,-34.200923802936195 -148.24578231391945,-31.700923802906114 -146.4156552950255,-29.870796783932878 -143.91565529502444,-29.200923802796744" stroke="#ffa500" stroke-linecap="round" stroke-linejoin="round"/><polyline fill="none" points="71.42253314061723,-279.04643605134305 73.92253314064732,-279.7163090323709 75.75266015962056,-281.54643605126483 76.4225331407567,-284.0464360512659 75.75266015972888,-286.546436051296 73.92253314083493,-288.37656307026924 71.42253314083386,-289.04643605140535 68.92253314080378,-288.37656307037753 67.09240612183054,-286.54643605148357 66.4225331406944,-284.0464360514825 67.09240612172222,-281.5464360514524 68.92253314061617,-279.71630903247916 71.42253314061723,-279.046436051343" stroke="#ffa500" stroke-linecap="round" stroke-linejoin="round"/><polyline fill="none" points="131.96299759490373,320.65188073539775 134.4629975949338,319.98200775436993 136.29312461390703,318.15188073547597 136.96299759504316,315.6518807354749 136.29312461401534,313.1518807354448 134.4629975951214,311.32175371647156 131.96299759512036,310.6518807353354 129.46299759509026,311.3217537163632 127.63287057611701,313.1518807352572 126.96299759498088,315.65188073525826 127.6328705760087,318.15188073528833 129.46299759490265,319.9820077542616 131.9629975949037,320.65188073539775" stroke="#ffa500" stroke-linecap="round" stroke-linejoin="round"/><polyline fill="none" points="219.80763941335354,-197.74304295626297 222.30763941338364,-198.4129159372908 224.13776643235687,-200.24304295618472 224.807639413493,-202.74304295618577 224.13776643246518,-205.24304295621587 222.30763941357125,-207.0731699751891 219.8076394135702,-207.74304295632524 217.3076394135401,-207.07316997529742 215.47751239456684,-205.24304295640349 214.8076394134307,-202.74304295640243 215.47751239445853,-200.24304295637234 217.30763941335246,-198.41291593739908 219.8076394133535,-197.74304295626294" stroke="#ffa500" stroke-linecap="round" stroke-linejoin="round"/><polyline fill="none" points="-92.63075084186872,-224.34914726729542 -90.13075084183863,-225.01902024832324 -88.30062382286539,-226.84914726721718 -87.63075084172925,-229.34914726721823 -88.30062382275707,-231.84914726724833 -90.13075084165102,-233.67927428622158 -92.63075084165209,-234.34914726735772 -95.13075084168217,-233.6792742863299 -96.96087786065542,-231.84914726743597 -97.63075084179157,-229.34914726743492 -96.96087786076376,-226.84914726740482 -95.13075084186981,-225.01902024843156 -92.63075084186875,-224.34914726729542" stroke="#ffa500" stroke-linecap="round" stroke-linejoin="round"/><polyline fill="none" points="-119.02626236918853,-185.49589311057127 -116.52626236915845,-186.1657660915991 -114.6961353501852,-187.99589311049303 -114.02626236904905,-190.49589311049408 -114.69613535007686,-192.99589311052418 -116.5262623689708,-194.82602012949744 -119.02626236897187,-195.49589311063357 -121.52626236900196,-194.82602012960575 -123.3563893879752,-192.99589311071182 -124.02626236911135,-190.49589311071077 -123.35638938808354,-187.99589311068067 -121.5262623691896,-186.1657660917074 -119.02626236918853,-185.49589311057127" stroke="#00f" stroke-linecap="round" stroke-linejoin="round"/><polyline fill="none" points="146.88563540589277,-188.09880991746564 149.38563540592287,-188.76868289849347 151.21576242489613,-190.5988099173874 151.88563540603226,-193.09880991738845 151.21576242500444,-195.59880991741855 149.3856354061105,-197.4289369363918 146.88563540610946,-198.09880991752794 144.38563540607936,-197.42893693650012 142.5555083871061,-195.5988099176062 141.88563540596996,-193.09880991760514 142.5555083869978,-190.59880991757504 144.38563540589172,-188.76868289860178 146.88563540589277,-188.09880991746562" stroke="#00f" stroke-linecap="round" stroke-linejoin="round"/><polyline fill="none" points="-481.6545854434877,-141.2740693711554 -479.1545854434576,-141.94394235218323 -477.32445842448436,-143.77406937107716 -476.6545854433482,-146.2740693710782 -477.324458424376,-148.7740693711083 -479.15458544327,-150.60419639008157 -481.65458544327106,-151.27406937121773 -484.15458544330113,-150.60419639018994 -485.9847124622744,-148.774069371296 -486.65458544341055,-146.27406937129496 -485.98471246238273,-143.77406937126486 -484.15458544348877,-141.9439423522916 -481.6545854434877,-141.27406937115543" stroke="#00f" stroke-linecap="round" stroke-linejoin="round"/><polyline fill="none" points="39.29800416331894,-197.94867530816126 41.798004163349034,-198.61854828918905 43.62813118232229,-200.44867530808298 44.29800416345845,-202.94867530808403 43.62813118243064,-205.44867530811413 41.7980041635367,-207.2788023270874 39.298004163535644,-207.94867530822356 36.79800416350555,-207.27880232719576 34.967877144532295,-205.44867530830183 34.298004163396136,-202.94867530830078 34.96787714442394,-200.44867530827068 36.79800416331788,-198.61854828929742 39.298004163318936,-197.94867530816126" stroke="#00f" stroke-linecap="round" stroke-linejoin="round"/><polyline fill="none" points="-445.0393105402774,-189.0224914791653 -442.53931054024736,-189.6923644601931 -440.7091835212741,-191.52249147908702 -440.03931054013793,-194.02249147908807 -440.70918352116576,-196.52249147911817 -442.5393105400597,-198.35261849809143 -445.0393105400608,-199.0224914792276 -447.53931054009087,-198.3526184981998 -449.3694375590641,-196.52249147930587 -450.0393105402003,-194.02249147930482 -449.36943755917247,-191.52249147927472 -447.5393105402785,-189.69236446030146 -445.0393105402774,-189.0224914791653" stroke="#ffa500" stroke-linecap="round" stroke-linejoin="round"/><polyline fill="none" points="-319.5506539980815,63.67865224588278 -317.0506539980514,63.00877926485498 -315.22052697907816,61.17865224596105 -314.550653997942,58.67865224595999 -315.2205269789698,56.17865224592989 -317.0506539978638,54.34852522695663 -319.55065399786486,53.67865224582047 -322.0506539978949,54.348525226848274 -323.8807810168682,56.17865224574221 -324.55065399800435,58.678652245743265 -323.8807810169765,61.178652245773364 -322.05065399808257,63.00877926474663 -319.5506539980815,63.678652245882795" stroke="#ffa500" stroke-linecap="round" stroke-linejoin="round"/><polyline fill="none" points="-352.4779180133043,-88.10486352497571 -349.97791801327423,-88.7747365060035 -348.147790994301,-90.60486352489744 -347.4779180131648,-93.1048635248985 -348.14779099419263,-95.6048635249286 -349.9779180130866,-97.43499054390186 -352.4779180130877,-98.10486352503803 -354.97791801311774,-97.43499054401023 -356.808045032091,-95.6048635251163 -357.47791801322717,-93.10486352511523 -356.80804503219935,-90.60486352508514 -354.97791801330544,-88.77473650611188 -352.47791801330436,-88.10486352497571" stroke="#00f" stroke-linecap="round" stroke-linejoin="round"/><polyline fill="none" points="-393.3600705454971,-134.26197815941487 -390.86007054546695,-134.93185114044266 -389.0299435264937,-136.7619781593366 -388.36007054535753,-139.26197815933764 -389.02994352638535,-141.76197815936774 -390.86007054527926,-143.592105178341 -393.36007054528034,-144.26197815947717 -395.86007054531046,-143.59210517844937 -397.6901975642837,-141.76197815955544 -398.3600705454199,-139.2619781595544 -397.69019756439207,-136.7619781595243 -395.86007054549816,-134.93185114055103 -393.3600705454971,-134.26197815941487" stroke="#008000" stroke-linecap="round" stroke-linejoin="round"/><polyline fill="none" points="141.99865474074343,-144.34817577501985 144.49865474077353,-145.01804875604765 146.3287817597468,-146.84817577494158 146.99865474088296,-149.34817577494263 146.32878175985516,-151.84817577497273 144.49865474096123,-153.678302793946 141.99865474096018,-154.34817577508215 139.49865474093008,-153.67830279405436 137.66852772195682,-151.84817577516043 136.99865474082065,-149.34817577515938 137.66852772184845,-146.84817577512928 139.49865474074238,-145.01804875615602 141.99865474074343,-144.34817577501985" stroke="#ffa500" stroke-linecap="round" stroke-linejoin="round"/><polyline fill="none" points="84.09209658506722,-255.11753340667264 86.59209658509732,-255.78740638770043 88.4222236040706,-257.61753340659436 89.09209658520678,-260.11753340659544 88.42222360417898,-262.61753340662557 86.59209658528505,-264.4476604255988 84.09209658528398,-265.117533406735 81.59209658525388,-264.4476604257072 79.76196956628061,-262.6175334068133 79.09209658514443,-260.11753340681224 79.76196956617223,-257.6175334067821 81.59209658506616,-255.78740638780883 84.09209658506722,-255.11753340667266" stroke="#ffa500" stroke-linecap="round" stroke-linejoin="round"/><polyline fill="none" points="-405.09223217339945,-186.98365081453875 -402.5922321733693,-187.65352379556654 -400.76210515439607,-189.48365081446047 -400.0922321732599,-191.98365081446153 -400.76210515428767,-194.48365081449163 -402.59223217318157,-196.3137778334649 -405.09223217318265,-196.98365081460108 -407.5922321732128,-196.31377783357328 -409.42235919218604,-194.48365081467935 -410.0922321733222,-191.9836508146783 -409.42235919229444,-189.4836508146482 -407.59223217340053,-187.65352379567491 -405.09223217339945,-186.98365081453875" stroke="#00f" stroke-linecap="round" stroke-linejoin="round"/><polyline fill="none" points="-71.32129041657677,-206.4260511523446 -68.82129041654667,-207.0959241333724 -66.9911633975734,-208.92605115226633 -66.32129041643722,-211.42605115226738 -66.991163397465,-213.92605115229748 -68.82129041635893,-215.75617817127076 -71.32129041636,-216.42605115240696 -73.8212904163901,-215.75617817137916 -75.65141743536337,-213.92605115248523 -76.32129041649955,-211.42605115248418 -75.65141743547177,-208.92605115245408 -73.82129041657785,-207.0959241334808 -71.32129041657679,-206.4260511523446" stroke="#00f" stroke-linecap="round" stroke-linejoin="round"/><polyline fill="none" points="-78.29987139202089,-167.6671236948443 -75.79987139199078,-168.3369966758721 -73.9697443730175,-170.16712369476602 -73.29987139188133,-172.66712369476707 -73.9697443729091,-175.16712369479717 -75.79987139180302,-176.99725071377046 -78.29987139180409,-177.66712369490665 -80.7998713918342,-176.99725071387886 -82.62999841080749,-175.16712369498492 -83.29987139194367,-172.66712369498387 -82.62999841091589,-170.16712369495377 -80.79987139202197,-168.3369966759805 -78.2998713920209,-167.6671236948443" stroke="#ffa500" stroke-linecap="round" stroke-linejoin="round"/><polyline fill="none" points="-298.61407201062826,45.22438528631149 -296.11407201059814,44.55451230528371 -294.2839449916249,42.72438528638978 -293.6140720104887,40.224385286388724 -294.2839449915165,37.72438528635862 -296.1140720104104,35.89425826738534 -298.61407201041146,35.22438528624915 -301.1140720104416,35.89425826727693 -302.94419902941485,37.72438528617086 -303.614072010551,40.224385286171916 -302.94419902952325,42.72438528620202 -301.11407201062934,44.5545123051753 -298.61407201062826,45.22438528631149" stroke="#ffa500" stroke-linecap="round" stroke-linejoin="round"/><polyline fill="none" points="-409.70904707413956,-166.9294888811144 -407.20904707410944,-167.59936186214216 -405.3789200551362,-169.4294888810361 -404.709047074,-171.92948888103714 -405.3789200550278,-174.42948888106724 -407.2090470739217,-176.25961590004053 -409.70904707392276,-176.92948888117672 -412.2090470739529,-176.25961590014896 -414.03917409292615,-174.42948888125503 -414.7090470740623,-171.92948888125397 -414.03917409303455,-169.42948888122388 -412.20904707414064,-167.5993618622506 -409.70904707413956,-166.9294888811144" stroke="#008000" stroke-linecap="round" stroke-linejoin="round"/><polyline fill="none" points="-291.65267396952527,-72.14540647428171 -289.15267396949514,-72.8152794553095 -287.3225469505219,-74.64540647420341 -286.6526739693857,-77.14540647420448 -287.3225469504135,-79.64540647423459 -289.1526739693074,-81.47553349320788 -291.65267396930847,-82.14540647434407 -294.1526739693386,-81.47553349331629 -295.9828009883119,-79.64540647442237 -296.6526739694481,-77.1454064744213 -295.9828009884203,-74.6454064743912 -294.1526739695264,-72.81527945541791 -291.6526739695253,-72.14540647428171" stroke="#ffa500" stroke-linecap="round" stroke-linejoin="round"/><polyline fill="none" points="-329.995369440888,-184.35493386107692 -327.49536944085787,-185.02480684210468 -325.66524242188456,-186.8549338609986 -324.9953694407484,-189.35493386099967 -325.66524242177616,-191.85493386102976 -327.49536944067006,-193.68506088000305 -329.99536944067114,-194.35493386113924 -332.49536944070127,-193.68506088011148 -334.3254964596746,-191.85493386121755 -334.9953694408108,-189.3549338612165 -334.32549645978304,-186.8549338611864 -332.49536944088914,-185.0248068422131 -329.99536944088806,-184.35493386107692" stroke="#ffa500" stroke-linecap="round" stroke-linejoin="round"/><polyline fill="none" points="-352.1761150066374,-179.5427969169807 -349.6761150066073,-180.21266989800847 -347.845987987634,-182.04279691690238 -347.17611500649775,-184.54279691690343 -347.8459879875255,-187.04279691693355 -349.6761150064194,-188.87292393590684 -352.1761150064205,-189.54279691704303 -354.67611500645063,-188.87292393601527 -356.50624202542394,-187.04279691712136 -357.17611500656017,-184.5427969171203 -356.5062420255324,-182.0427969170902 -354.6761150066385,-180.2126698981169 -352.1761150066374,-179.5427969169807" stroke="#00f" stroke-linecap="round" stroke-linejoin="round"/><polyline fill="none" points="153.6420254147916,304.2651126527249 156.14202541482172,303.59523967169713 157.972152433795,301.7651126528032 158.6420254149312,299.26511265280215 157.97215243390343,296.765112652772 156.14202541500953,294.9349856337987 153.64202541500848,294.2651126526625 151.14202541497835,294.93498563369025 149.31189839600506,296.76511265258415 148.64202541486887,299.26511265258523 149.31189839589663,301.76511265261536 151.14202541479054,303.5952396715887 153.6420254147916,304.2651126527249" stroke="#ffa500" stroke-linecap="round" stroke-linejoin="round"/><polyline fill="none" points="-311.02950013308134,-66.1377647330154 -308.5295001330512,-66.80763771404317 -306.6993731140779,-68.63776473293709 -306.0295001329417,-71.13776473293815 -306.69937311396944,-73.63776473296826 -308.52950013286335,-75.46789175194156 -311.0295001328644,-76.13776473307777 -313.52950013289455,-75.46789175205001 -315.35962715186787,-73.63776473315609 -316.0295001330041,-71.13776473315502 -315.3596271519763,-68.63776473312491 -313.5295001330824,-66.80763771415161 -311.02950013308134,-66.1377647330154" stroke="#ffa500" stroke-linecap="round" stroke-linejoin="round"/></svg>