<?xml version="1.0" ?><!DOCTYPE svg  PUBLIC '-//W3C//DTD SVG 1.1//EN'  'http://www.w3.org/Graphics/SVG/1.1/DTD/svg11.dtd'><svg height="654.000" viewBox="-519.000 -299.000 767.000 654.000" width="767.000" xmlns="http://www.w3.org/2000/svg"><line fill="none" stroke="none" stroke-linecap="round" stroke-width="2.0" x1="0.0" x2="0.0" y1="0.0" y2="0.0"/><polygon fill="none" fill-rule="evenodd" points="0.0,0.0 0.0,0.0 0.0,0.0" stroke-linejoin="round"/><polyline fill="none" points="-71.94799015323686,114.46447486114693 -69.44799015320659,113.79460188011943 -67.61786313423302,111.96447486122567 -66.94799015309651,109.4644748612246 -67.61786313412401,106.96447486119433 -69.44799015301777,105.13434784222076 -71.94799015301884,104.46447486108426 -74.4479901530491,105.13434784211175 -76.27811717202268,106.96447486100551 -76.94799015315918,109.46447486100658 -76.27811717213169,111.96447486103685 -74.44799015323792,113.79460188001042 -71.94799015323686,114.46447486114693" stroke="#ffa500" stroke-linecap="round" stroke-linejoin="round"/><polyline fill="none" points="-165.39079533283999,-9.058923862755535 -162.89079533280972,-9.728796843783034 -161.06066831383615,-11.558923862676798 -160.39079533269964,-14.058923862677863 -161.06066831372715,-16.558923862708138 -162.8907953326209,-18.389050881681705 -165.39079533262196,-19.05892386281822 -167.89079533265223,-18.38905088179072 -169.7209223516258,-16.558923862896958 -170.3907953327623,-14.058923862895892 -169.7209223517348,-11.558923862865615 -167.89079533284104,-9.728796843892049 -165.39079533283996,-9.058923862755535" stroke="#ffa500" stroke-linecap="round" stroke-linejoin="round"/><polyline fill="none" points="124.52175631136619,-104.9827680422687 127.02175631139647,-105.6526410232962 128.85188333037004,-107.48276804218996 129.52175631150655,-109.98276804219103 128.85188333047904,-112.48276804222131 127.02175631158528,-114.31289506119488 124.52175631158421,-114.9827680423314 122.02175631155393,-114.3128950613039 120.19162929258036,-112.48276804241014 119.52175631144384,-109.98276804240908 120.19162929247133,-107.4827680423788 122.0217563113651,-105.65264102340522 124.52175631136616,-104.9827680422687" stroke="#ffa500" stroke-linecap="round" stroke-linejoin="round"/><polyline fill="none" points="-313.6979347157411,-223.32100148733406 -311.1979347157108,-223.99087446836154 -309.3678076967372,-225.8210014872553 -308.6979347156007,-228.32100148725635 -309.3678076966282,-230.82100148728662 -311.1979347155219,-232.6511285062602 -313.697934715523,-233.3210014873967 -316.1979347155533,-232.65112850636922 -318.0280617345269,-230.82100148747546 -318.6979347156634,-228.3210014874744 -318.0280617346359,-225.82100148744414 -316.1979347157422,-223.99087446847057 -313.6979347157411,-223.32100148733406" stroke="#ffa500" stroke-linecap="round" stroke-linejoin="round"/><polyline fill="none" points="-335.61159318647503,-125.95394844040041 -333.11159318644474,-126.6238214214279 -331.28146616747114,-128.45394844032165 -330.61159318633463,-130.95394844032273 -331.2814661673621,-133.453948440353 -333.11159318625585,-135.28407545932657 -335.6115931862569,-135.9539484404631 -338.1115931862872,-135.28407545943563 -339.9417202052608,-133.45394844054186 -340.61159318639733,-130.95394844054078 -339.94172020536985,-128.45394844051052 -338.1115931864761,-126.62382142153695 -335.61159318647503,-125.95394844040042" stroke="#00f" stroke-linecap="round" stroke-linejoin="round"/><polyline fill="none" points="-471.62870070440414,-161.2915419918369 -469.12870070437384,-161.9614149728644 -467.29857368540024,-163.79154199175815 -466.62870070426374,-166.29154199175923 -467.2985736852912,-168.7915419917895 -469.12870070418495,-170.62166901076307 -471.62870070418603,-171.2915419918996 -474.1287007042163,-170.62166901087213 -475.9588277231899,-168.79154199197836 -476.62870070432643,-166.29154199197728 -475.95882772329895,-163.791541991947 -474.1287007044052,-161.96141497297344 -471.62870070440414,-161.2915419918369" stroke="#00f" stroke-linecap="round" stroke-linejoin="round"/><polyline fill="none" points="115.7070638239502,-199.62625081606222 118.20706382398048,-200.2961237970897 120.03719084295406,-202.12625081598347 120.70706382409058,-204.62625081598452 120.0371908430631,-207.1262508160148 118.20706382416934,-208.95637783498836 115.70706382416827,-209.6262508161249 113.20706382413799,-208.9563778350974 111.3769368051644,-207.12625081620365 110.70706382402788,-204.6262508162026 111.37693680505537,-202.12625081617233 113.20706382394913,-200.29612379719876 115.7070638239502,-199.62625081606222" stroke="#ffa500" stroke-linecap="round" stroke-linejoin="round"/><polyline fill="none" points="108.08669968312368,-275.6376813525071 110.58669968315397,-276.3075543335346 112.41682670212755,-278.13768135242833 113.08669968326409,-280.6376813524294 112.4168267022366,-283.1376813524597 110.58669968334284,-284.9678083714333 108.08669968334178,-285.6376813525698 105.5866996833115,-284.96780837154233 103.75657266433791,-283.1376813526486 103.08669968320137,-280.6376813526475 103.75657266422886,-278.1376813526172 105.5866996831226,-276.3075543336436 108.08669968312367,-275.6376813525071" stroke="#ffa500" stroke-linecap="round" stroke-linejoin="round"/><polyline fill="none" points="-490.4314342425143,-166.63468486836547 -487.931434242484,-167.30455784939295 -486.1013072235104,-169.1346848682867 -485.4314342423739,-171.63468486828776 -486.10130722340136,-174.13468486831806 -487.9314342422951,-175.96481188729163 -490.4314342422962,-176.63468486842817 -492.9314342423265,-175.96481188740069 -494.7615612613001,-174.13468486850692 -495.4314342424366,-171.63468486850587 -494.7615612614091,-169.13468486847557 -492.93143424251537,-167.304557849502 -490.4314342425143,-166.63468486836547" stroke="#00f" stroke-linecap="round" stroke-linejoin="round"/><polyline fill="none" points="-397.5152462092263,-49.78937169358809 -395.015246209196,-50.45924467461557 -393.1851191902224,-52.289371693509324 -392.5152462090859,-54.78937169351039 -393.18511919011337,-57.28937169354067 -395.0152462090071,-59.11949871251426 -397.5152462090082,-59.78937169365079 -400.0152462090385,-59.11949871262331 -401.8453732280121,-57.28937169372956 -402.5152462091486,-54.78937169372849 -401.8453732281211,-52.2893716936982 -400.01524620922737,-50.459244674724616 -397.5152462092263,-49.78937169358808" stroke="#00f" stroke-linecap="round" stroke-linejoin="round"/><polyline fill="none" points="40.13561702820463,154.6543476922795 42.63561702823492,153.984474711252 44.4657440472085,152.15434769235824 45.13561702834504,149.6543476923572 44.46574404731756,147.1543476923269 42.63561702842381,145.3242206733533 40.13561702842274,144.65434769221676 37.63561702839245,145.32422067324424 35.80549000941886,147.154347692138 35.135617028282326,149.65434769213905 35.8054900093098,152.15434769216935 37.63561702820355,153.98447471114295 40.135617028204614,154.6543476922795" stroke="#ffa500" stroke-linecap="round" stroke-linejoin="round"/><polyline fill="none" points="60.72095211208869,85.60449096203908 63.22095211211898,84.9346179810116 65.05107913109256,83.10449096211785 65.7209521122291,80.60449096211678 65.05107913120162,78.1044909620865 63.22095211230787,76.27436394311292 60.720952112306804,75.60449096197638 58.220952112276514,76.27436394300386 56.39082509330292,78.10449096189761 55.72095211216638,80.60449096189868 56.390825093193854,83.10449096192896 58.2209521120876,84.93461798090254 60.72095211208867,85.60449096203908" stroke="#ffa500" stroke-linecap="round" stroke-linejoin="round"/><polyline fill="none" points="3.9413279169169586,-211.01189580920487 6.441327916947248,-211.68176879023235 8.27145493592084,-213.51189580912612 8.941327917057382,-216.01189580912717 8.271454936029908,-218.51189580915747 6.44132791713616,-220.34202282813106 3.9413279171350943,-221.0118958092676 1.441327917104804,-220.34202282824012 -0.38879910186878885,-218.51189580934636 -1.0586720830053316,-216.0118958093453 -0.38879910197785916,-213.511895809315 1.4413279169158884,-211.6817687903414 3.9413279169169537,-211.01189580920487" stroke="#ffa500" stroke-linecap="round" stroke-linejoin="round"/><polyline fill="none" points="-243.24417140917623,-195.3396341632779 -240.74417140914593,-196.0095071443054 -238.91404439017234,-197.83963416319912 -238.2441714090358,-200.33963416320017 -238.91404439006328,-202.83963416323047 -240.74417140895702,-204.66976118220407 -243.2441714089581,-205.3396341633406 -245.7441714089884,-204.66976118231312 -247.574298427962,-202.8396341634194 -248.24417140909853,-200.33963416341834 -247.57429842807105,-197.83963416338804 -245.7441714091773,-196.00950714441444 -243.24417140917626,-195.3396341632779" stroke="#00f" stroke-linecap="round" stroke-linejoin="round"/><polyline fill="none" points="141.48515961412593,342.70778906647126 143.98515961415623,342.0379160854438 145.81528663312983,340.20778906655005 146.48515961426637,337.70778906654897 145.81528663323888,335.20778906651867 143.98515961434515,333.3776620475451 141.48515961434407,332.7077890664085 138.98515961431377,333.377662047436 137.15503259534017,335.2077890663297 136.48515961420364,337.7077890663308 137.15503259523112,340.2077890663611 138.98515961412485,342.0379160853347 141.4851596141259,342.70778906647126" stroke="#ffa500" stroke-linecap="round" stroke-linejoin="round"/><polyline fill="none" points="-78.57369219953745,-236.84913682796648 -76.07369219950715,-237.51900980899393 -74.24356518053355,-239.34913682788766 -73.573692199397,-241.8491368278887 -74.24356518042447,-244.349136827919 -76.07369219931822,-246.1792638468926 -78.57369219931928,-246.84913682802917 -81.07369219934958,-246.17926384700172 -82.90381921832318,-244.349136828108 -83.57369219945973,-241.84913682810694 -82.90381921843226,-239.34913682807664 -81.07369219953851,-237.51900980910304 -78.57369219953745,-236.84913682796648" stroke="#ffa500" stroke-linecap="round" stroke-linejoin="round"/><polyline fill="none" points="-379.3093877540246,-157.79944962807193 -376.8093877539943,-158.46932260909938 -374.9792607350207,-160.2994496279931 -374.30938775388415,-162.79944962799416 -374.97926073491163,-165.29944962802446 -376.80938775380537,-167.12957664699806 -379.30938775380645,-167.79944962813462 -381.80938775383675,-167.12957664710717 -383.63951477281034,-165.29944962821344 -384.3093877539469,-162.7994496282124 -383.6395147729194,-160.2994496281821 -381.8093877540257,-158.4693226092085 -379.3093877540246,-157.79944962807193" stroke="#008000" stroke-linecap="round" stroke-linejoin="round"/><polyline fill="none" points="-137.2729859477687,-67.03301588209666 -134.7729859477384,-67.70288886312413 -132.9428589287648,-69.53301588201788 -132.27298594762823,-72.03301588201894 -132.94285892865568,-74.53301588204924 -134.77298594754942,-76.36314290102284 -137.27298594755047,-77.0330158821594 -139.77298594758076,-76.36314290113195 -141.60311296655436,-74.53301588223822 -142.27298594769093,-72.03301588223715 -141.60311296666347,-69.53301588220685 -139.77298594776974,-67.70288886323324 -137.2729859477687,-67.03301588209668" stroke="#ffa500" stroke-linecap="round" stroke-linejoin="round"/><polyline fill="none" points="-431.24636782211076,-183.4017689242784 -428.74636782208046,-184.07164190530585 -426.91624080310686,-185.9017689241996 -426.2463678219703,-188.40176892420067 -426.9162408029978,-190.90176892423096 -428.7463678218915,-192.73189594320456 -431.2463678218926,-193.40176892434113 -433.7463678219229,-192.73189594331367 -435.5764948408965,-190.90176892441994 -436.24636782203305,-188.4017689244189 -435.57649484100557,-185.9017689243886 -433.74636782211184,-184.071641905415 -431.24636782211076,-183.40176892427843" stroke="#00f" stroke-linecap="round" stroke-linejoin="round"/><polyline fill="none" points="62.578702768358355,-260.0166985733278 65.07870276838865,-260.6865715543553 66.90882978736227,-262.516698573249 67.57870276849883,-265.0166985732501 66.90882978747138,-267.5166985732804 65.07870276857764,-269.346825592254 62.578702768576576,-270.01669857339056 60.07870276854628,-269.3468255923631 58.248575749572666,-267.51669857346934 57.5787027684361,-265.01669857346826 58.248575749463555,-262.51669857343796 60.07870276835729,-260.68657155446436 62.578702768358355,-260.0166985733278" stroke="#00f" stroke-linecap="round" stroke-linejoin="round"/><polyline fill="none" points="-68.35326927457574,-146.93676281025378 -65.85326927454544,-147.60663579128124 -64.02314225557183,-149.43676281017497 -63.35326927443526,-151.93676281017605 -64.02314225546272,-154.43676281020635 -65.85326927435645,-156.26688982917997 -68.35326927435752,-156.93676281031654 -70.85326927438781,-156.26688982928908 -72.68339629336143,-154.43676281039535 -73.35326927449799,-151.9367628103943 -72.68339629347054,-149.436762810364 -70.8532692745768,-147.60663579139037 -68.35326927457574,-146.9367628102538" stroke="#ffa500" stroke-linecap="round" stroke-linejoin="round"/><polyline fill="none" points="-322.57947199641677,-108.45149032884727 -320.0794719963865,-109.12136330987472 -318.2493449774129,-110.95149032876846 -317.5794719962763,-113.45149032876952 -318.24934497730374,-115.95149032879982 -320.07947199619747,-117.78161734777343 -322.57947199619855,-118.45149032891 -325.07947199622885,-117.78161734788254 -326.90959901520245,-115.95149032898881 -327.579471996339,-113.45149032898775 -326.9095990153116,-110.95149032895745 -325.07947199641785,-109.12136330998383 -322.57947199641677,-108.45149032884726" stroke="#ffa500" stroke-linecap="round" stroke-linejoin="round"/><polyline fill="none" points="-62.755749197578076,-223.19504869367398 -60.25574919754777,-223.86492167470143 -58.42562217857415,-225.69504869359517 -57.75574919743758,-228.19504869359622 -58.42562217846503,-230.69504869362652 -60.25574919735876,-232.52517571260015 -62.755749197359826,-233.1950486937367 -65.25574919739013,-232.52517571270926 -67.08587621636374,-230.69504869381552 -67.75574919750032,-228.19504869381447 -67.08587621647287,-225.69504869378417 -65.25574919757914,-223.86492167481055 -62.75574919757807,-223.19504869367398" stroke="#ffa500" stroke-linecap="round" stroke-linejoin="round"/><polyline fill="none" points="-317.41524692855705,-28.03926528363086 -314.91524692852676,-28.709138264658307 -313.08511990955316,-30.53926528355204 -312.4152469284166,-33.03926528355311 -313.085119909444,-35.53926528358341 -314.91524692833775,-37.36939230255703 -317.41524692833883,-38.03926528369361 -319.91524692836913,-37.369392302666164 -321.7453739473427,-35.53926528377243 -322.4152469284793,-33.039265283771364 -321.74537394745187,-30.539265283741056 -319.91524692855813,-28.709138264767432 -317.41524692855705,-28.039265283630854" stroke="#00f" stroke-linecap="round" stroke-linejoin="round"/><polyline fill="none" points="115.13011375792566,-150.92424463827462 117.63011375795597,-151.59411761930207 119.4602407769296,-153.4242446381958 120.13011375806617,-155.92424463819685 119.46024077703873,-158.42424463822715 117.630113758145,-160.25437165720078 115.13011375814393,-160.92424463833737 112.63011375811362,-160.25437165730992 110.79998673914,-158.42424463841618 110.13011375800342,-155.92424463841513 110.79998673903086,-153.42424463838483 112.63011375792459,-151.5941176194112 115.13011375792566,-150.92424463827462" stroke="#00f" stroke-linecap="round" stroke-linejoin="round"/><polyline fill="none" points="174.82344787197903,-189.34946759791274 177.32344787200933,-190.0193405789402 179.15357489098295,-191.84946759783392 179.82344787211954,-194.34946759783497 179.1535748910921,-196.84946759786527 177.32344787219836,-198.6795946168389 174.82344787219728,-199.3494675979755 172.32344787216698,-198.67959461694804 170.49332085319335,-196.8494675980543 169.82344787205676,-194.34946759805325 170.4933208530842,-191.84946759802295 172.32344787197795,-190.01934057904933 174.823447871979,-189.34946759791274" stroke="#00f" stroke-linecap="round" stroke-linejoin="round"/><polyline fill="none" points="-7.38964870599451,81.43799193187134 -4.889648705964199,80.7681189508439 -3.0595216869905717,78.93799193195017 -2.389648705853989,76.4379919319491 -3.0595216868814266,73.93799193191879 -4.889648705775155,72.10786491294516 -7.389648705776221,71.43799193180858 -9.889648705806533,72.10786491283602 -11.719775724780161,73.93799193172975 -12.389648705916747,76.43799193173082 -11.71977572488931,78.93799193176113 -9.889648705995583,80.76811895073476 -7.389648705994517,81.43799193187135" stroke="#ffa500" stroke-linecap="round" stroke-linejoin="round"/><polyline fill="none" points="-124.99312152432289,-24.579028428904337 -122.49312152429258,-25.248901409931772 -120.66299450531895,-27.0790284288255 -119.99312152418236,-29.579028428826565 -120.6629945052098,-32.07902842885688 -122.49312152410351,-33.90915544783051 -124.99312152410458,-34.57902842896709 -127.49312152413489,-33.90915544793966 -129.32324854310852,-32.079028429045934 -129.9931215242451,-29.579028429044868 -129.3232485432177,-27.079028429014556 -127.49312152432397,-25.248901410040926 -124.9931215243229,-24.579028428904337" stroke="#ffa500" stroke-linecap="round" stroke-linejoin="round"/><polyline fill="none" points="-222.50579593507504,-207.19647887802412 -220.00579593504472,-207.86635185905155 -218.1756689160711,-209.69647887794528 -217.5057959349345,-212.19647887794633 -218.17566891596192,-214.69647887797666 -220.00579593485566,-216.5266058969503 -222.50579593485674,-217.19647887808688 -225.00579593488706,-216.52660589705945 -226.8359229538607,-214.69647887816572 -227.50579593499728,-212.19647887816467 -226.83592295396986,-209.69647887813434 -225.00579593507612,-207.86635185916072 -222.50579593507507,-207.19647887802412" stroke="#ffa500" stroke-linecap="round" stroke-linejoin="round"/><polyline fill="none" points="-307.6644404171316,-45.858114494230016 -305.1644404171013,-46.52798747525745 -303.3343133981276,-48.358114494151174 -302.66444041699106,-50.85811449415224 -303.3343133980185,-53.35811449418256 -305.1644404169122,-55.18824151315619 -307.6644404169133,-55.858114494292785 -310.1644404169436,-55.18824151326535 -311.99456743591725,-53.358114494371634 -312.66444041705387,-50.85811449437057 -311.99456743602644,-48.35811449434025 -310.1644404171327,-46.527987475366615 -307.66444041713163,-45.85811449423002" stroke="#ffa500" stroke-linecap="round" stroke-linejoin="round"/><polyline fill="none" points="-422.68665586665156,-96.90732650619951 -420.18665586662127,-97.57719948722693 -418.3565288476476,-99.40732650612065 -417.686655866511,-101.90732650612172 -418.3565288475384,-104.40732650615203 -420.18665586643215,-106.23745352512567 -422.6866558664332,-106.90732650626227 -425.1866558664635,-106.23745352523484 -427.0167828854372,-104.40732650634112 -427.6866558665738,-101.90732650634006 -427.0167828855464,-99.40732650630974 -425.18665586665264,-97.5771994873361 -422.68665586665156,-96.90732650619951" stroke="#ffa500" stroke-linecap="round" stroke-linejoin="round"/><polyline fill="none" points="-158.25597463724498,-206.93774681138535 -155.75597463721465,-207.60761979241278 -153.92584761824102,-209.4377468113065 -153.25597463710443,-211.9377468113076 -153.92584761813185,-214.43774681133792 -155.7559746370256,-216.26787383031154 -158.25597463702667,-216.93774681144814 -160.755974637057,-216.2678738304207 -162.58610165603062,-214.43774681152698 -163.2559746371672,-211.93774681152593 -162.5861016561398,-209.4377468114956 -160.75597463724606,-207.60761979252197 -158.255974637245,-206.93774681138538" stroke="#00f" stroke-linecap="round" stroke-linejoin="round"/><polyline fill="none" points="-464.55296995996446,-135.94573907740227 -462.05296995993416,-136.6156120584297 -460.2228429409605,-138.44573907732342 -459.5529699598239,-140.9457390773245 -460.2228429408513,-143.44573907735483 -462.05296995974504,-145.27586609632849 -464.5529699597461,-145.94573907746508 -467.0529699597764,-145.27586609643765 -468.8830969787501,-143.44573907754395 -469.5529699598867,-140.9457390775429 -468.88309697885927,-138.44573907751257 -467.05296995996554,-136.61561205853891 -464.55296995996446,-135.94573907740232" stroke="#ffa500" stroke-linecap="round" stroke-linejoin="round"/><polyline fill="none" points="-270.17844364357694,31.349012839729156 -267.67844364354664,30.679139858701735 -265.848316624573,28.849012839808015 -265.17844364343637,26.34901283980695 -265.8483166244638,23.849012839776627 -267.6784436433575,22.018885820802982 -270.1784436433586,21.34901283966638 -272.6784436433889,22.0188858206938 -274.50857066236256,23.849012839587516 -275.1784436434992,26.349012839588582 -274.50857066247175,28.849012839618904 -272.678443643578,30.67913985859255 -270.17844364357694,31.349012839729152" stroke="#ffa500" stroke-linecap="round" stroke-linejoin="round"/><polyline fill="none" points="67.40886981171194,166.0429269720105 69.90886981174226,165.37305399098307 71.7389968307159,163.54292697208936 72.40886981185251,161.0429269720883 71.73899683082509,158.54292697205798 69.90886981193137,156.71279995308433 67.4088698119303,156.04292697194774 64.90886981189998,156.71279995297516 63.07874279292633,158.54292697186887 62.40886981178972,161.04292697186992 63.07874279281714,163.54292697190024 64.90886981171086,165.3730539908739 67.40886981171192,166.04292697201052" stroke="#ffa500" stroke-linecap="round" stroke-linejoin="round"/><polyline fill="none" points="-426.08669032721895,-127.80479412345909 -423.58669032718865,-128.4746671044865 -421.756563308215,-130.30479412338022 -421.0866903270784,-132.80479412338127 -421.7565633081058,-135.3047941234116 -423.58669032699953,-137.13492114238525 -426.0866903270006,-137.80479412352187 -428.5866903270309,-137.13492114249445 -430.41681734600456,-135.30479412360074 -431.0866903271412,-132.80479412359966 -430.41681734611376,-130.30479412356934 -428.58669032722,-128.47466710459568 -426.08669032721895,-127.80479412345908" stroke="#f00" stroke-linecap="round" stroke-linejoin="round"/><polyline fill="none" points="-56.753939625072846,-187.1378089671031 -54.25393962504252,-187.80768194813052 -52.42381260606887,-189.63780896702423 -51.75393962493226,-192.1378089670253 -52.423812605959675,-194.63780896705563 -54.25393962485339,-196.4679359860293 -56.75393962485445,-197.1378089671659 -59.25393962488478,-196.46793598613849 -61.084066643858435,-194.63780896724478 -61.75393962499505,-192.1378089672437 -61.08406664396764,-189.63780896721337 -59.253939625073926,-187.80768194823972 -56.75393962507286,-187.1378089671031" stroke="#ffa500" stroke-linecap="round" stroke-linejoin="round"/><polyline fill="none" points="163.29237864606435,-170.20773901445673 165.79237864609468,-170.87761199548416 167.62250566506833,-172.70773901437786 168.29237864620495,-175.20773901437894 167.62250566517753,-177.70773901440927 165.79237864628382,-179.53786603338293 163.29237864628277,-180.20773901451955 160.79237864625244,-179.53786603349212 158.9622516272788,-177.70773901459842 158.29237864614217,-175.20773901459737 158.9622516271696,-172.70773901456704 160.7923786460633,-170.87761199559338 163.29237864606435,-170.20773901445676" stroke="#ffa500" stroke-linecap="round" stroke-linejoin="round"/><polyline fill="none" points="231.16328844609137,-172.71696749816678 233.6632884461217,-173.38684047919418 235.49341546509535,-175.21696749808788 236.16328844623197,-177.71696749808893 235.49341546520458,-180.21696749811926 233.66328844631087,-182.04709451709292 231.16328844630982,-182.71696749822954 228.6632884462795,-182.04709451720214 226.83316142730584,-180.21696749830843 226.16328844616922,-177.71696749830738 226.83316142719661,-175.21696749827706 228.66328844609032,-173.3868404793034 231.16328844609137,-172.71696749816678" stroke="#ffa500" stroke-linecap="round" stroke-linejoin="round"/><polyline fill="none" points="-407.6448253338214,-120.6945094310114 -405.14482533379106,-121.36438241203881 -403.3146983148174,-123.19450943093251 -402.6448253336808,-125.69450943093358 -403.3146983147082,-128.1945094309639 -405.14482533360194,-130.02463644993756 -407.644825333603,-130.69450943107418 -410.1448253336334,-130.02463645004678 -411.97495235260703,-128.19450943115308 -412.64482533374365,-125.69450943115201 -411.97495235271623,-123.19450943112169 -410.1448253338225,-121.36438241214803 -407.6448253338214,-120.69450943101141" stroke="#00f" stroke-linecap="round" stroke-linejoin="round"/><polyline fill="none" points="107.50762079648864,-246.2166527908835 110.00762079651896,-246.8865257719109 111.83774781549262,-248.7166527908046 112.50762079662924,-251.21665279080565 111.83774781560183,-253.71665279083598 110.00762079670812,-255.54677980980964 107.50762079670706,-256.2166527909463 105.00762079667673,-255.5467798099189 103.17749377770308,-253.71665279102518 102.50762079656646,-251.21665279102413 103.17749377759387,-248.7166527909938 105.00762079648757,-246.88652577202015 107.50762079648864,-246.21665279088353" stroke="#ffa500" stroke-linecap="round" stroke-linejoin="round"/><polyline fill="none" points="-122.5789053870414,-159.90351610831698 -120.07890538701108,-160.57338908934437 -118.2487783680374,-162.40351610823808 -117.57890538690079,-164.90351610823916 -118.24877836792818,-167.40351610826949 -120.07890538682189,-169.23364312724314 -122.57890538682295,-169.90351610837976 -125.07890538685328,-169.23364312735237 -126.90903240582695,-167.40351610845866 -127.57890538696357,-164.9035161084576 -126.90903240593617,-162.40351610842728 -125.07890538704247,-160.57338908945363 -122.5789053870414,-159.903516108317" stroke="#ffa500" stroke-linecap="round" stroke-linejoin="round"/><polyline fill="none" points="53.493255580216875,104.76254444189956 55.99325558024721,104.09267146087217 57.82338259922087,102.26254444197846 58.4932555803575,99.7625444419774 57.823382599330095,97.26254444194707 55.99325558043639,95.4324174229734 53.493255580435324,94.76254444183678 50.99325558040499,95.43241742286418 49.16312856143132,97.26254444175788 48.493255580294694,99.76254444175895 49.16312856132209,102.26254444178929 50.993255580215795,104.09267146076296 53.49325558021686,104.76254444189959" stroke="#ffa500" stroke-linecap="round" stroke-linejoin="round"/><polyline fill="none" points="184.77629252709545,299.82348641321084 187.27629252712578,299.1536134321834 189.10641954609943,297.32348641328974 189.77629252723605,294.82348641328866 189.10641954620866,292.3234864132583 187.27629252731495,290.49335939428465 184.7762925273139,289.82348641314803 182.27629252728357,290.49335939417546 180.44616550830992,292.32348641306913 179.7762925271733,294.8234864130702 180.4461655082007,297.32348641310057 182.2762925270944,299.1536134320742 184.77629252709545,299.82348641321084" stroke="#ffa500" stroke-linecap="round" stroke-linejoin="round"/><polyline fill="none" points="-335.343362349193,-215.11426109608828 -332.84336234916265,-215.78413407711568 -331.013235330189,-217.6142610960094 -330.34336234905237,-220.11426109601047 -331.01323533007974,-222.6142610960408 -332.8433623489734,-224.44438811501448 -335.3433623489745,-225.1142610961511 -337.84336234900485,-224.4443881151237 -339.6734893679785,-222.61426109623 -340.3433623491151,-220.11426109622892 -339.67348936808776,-217.6142610961986 -337.8433623491941,-215.7841340772249 -335.343362349193,-215.11426109608828" stroke="#00f" stroke-linecap="round" stroke-linejoin="round"/><polyline fill="none" points="-307.6959610726882,22.682397256628906 -305.19596107265784,22.012524275601514 -303.3658340536842,20.182397256707812 -302.69596107254756,17.682397256706746 -303.36583405357493,15.18239725667641 -305.1959610724686,13.352270237702736 -307.6959610724697,12.6823972565661 -310.19596107250004,13.352270237593492 -312.0260880914737,15.182397256487194 -312.6959610726103,17.682397256488258 -312.02608809158295,20.182397256518595 -310.1959610726893,22.012524275492268 -307.6959610726882,22.682397256628906" stroke="#00f" stroke-linecap="round" stroke-linejoin="round"/><polyline fill="none" points="76.8422378875012,115.63351126479547 79.34223788753154,114.96363828376808 81.17236490650521,113.13351126487437 81.84223788764184,110.6335112648733 81.17236490661445,108.13351126484297 79.34223788772074,106.3033842458693 76.84223788771968,105.63351126473266 74.34223788768934,106.30338424576006 72.51211086871567,108.13351126465376 71.84223788757903,110.63351126465483 72.51211086860641,113.13351126468517 74.34223788750012,114.96363828365884 76.84223788750118,115.63351126479547" stroke="#ffa500" stroke-linecap="round" stroke-linejoin="round"/><polyline fill="none" points="-388.27912328459496,-209.7296370885405 -385.7791232845646,-210.3995100695679 -383.94899626559095,-212.2296370884616 -383.27912328445433,-214.72963708846265 -383.9489962654817,-217.22963708849298 -385.7791232843754,-219.05976410746666 -388.27912328437645,-219.7296370886033 -390.7791232844068,-219.05976410757592 -392.60925030338046,-217.2296370886822 -393.2791232845171,-214.72963708868116 -392.6092503034897,-212.2296370886508 -390.77912328459604,-210.39951006967712 -388.27912328459496,-209.72963708854047" stroke="#ffa500" stroke-linecap="round" stroke-linejoin="round"/><polyline fill="none" points="-309.3965765332927,-190.16501639578493 -306.89657653326236,-190.83488937681233 -305.0664495142887,-192.66501639570603 -304.3965765331521,-195.16501639570708 -305.06644951417945,-197.66501639573744 -306.89657653307313,-199.49514341471112 -309.3965765330742,-200.16501639584777 -311.89657653310456,-199.49514341482038 -313.7267035520782,-197.66501639592667 -314.39657653321484,-195.16501639592562 -313.7267035521875,-192.66501639589526 -311.8965765332938,-190.83488937692158 -309.3965765332927,-190.16501639578493" stroke="#00f" stroke-linecap="round" stroke-linejoin="round"/><polyline fill="none" points="137.70107291111074,-119.98133659506816 140.2010729111411,-120.65120957609554 142.03119993011478,-122.48133659498923 142.70107291125143,-124.9813365949903 142.03119993022403,-127.48133659502064 140.20107291133033,-129.3114636139943 137.70107291132928,-129.98133659513095 135.20107291129892,-129.31146361410356 133.37094589232524,-127.48133659520987 132.7010729111886,-124.9813365952088 133.37094589221596,-122.48133659517846 135.20107291110966,-120.65120957620478 137.7010729111107,-119.98133659506813" stroke="#ffa500" stroke-linecap="round" stroke-linejoin="round"/><polyline fill="none" points="-184.74538185534297,-54.631568957490195 -182.24538185531262,-55.30144193851758 -180.41525483633893,-57.131568957411275 -179.74538185520228,-59.63156895741234 -180.41525483622965,-62.13156895744269 -182.24538185512336,-63.96169597641637 -184.74538185512444,-64.63156895755303 -187.2453818551548,-63.96169597652565 -189.07550887412847,-62.131568957631956 -189.74538185526512,-59.63156895763089 -189.07550887423776,-57.13156895760054 -187.24538185534405,-55.30144193862686 -184.745381855343,-54.63156895749021" stroke="#00f" stroke-linecap="round" stroke-linejoin="round"/><polyline fill="none" points="-46.818336040402436,122.20601548494163 -44.31833604037209,121.53614250391425 -42.488209021398404,119.70601548502056 -41.818336040261755,117.20601548501949 -42.48820902128913,114.70601548498915 -44.31833604018282,112.87588846601547 -46.81833604018389,112.20601548487882 -49.318336040214234,112.8758884659062 -51.148463059187925,114.70601548479989 -51.81833604032458,117.20601548480096 -51.14846305929721,119.7060154848313 -49.318336040403516,121.53614250380498 -46.81833604040245,122.20601548494163" stroke="#ffa500" stroke-linecap="round" stroke-linejoin="round"/><polyline fill="none" points="-432.84456922498947,-209.18174280334944 -430.3445692249591,-209.8516157843768 -428.5144422059854,-211.6817428032705 -427.8445692248487,-214.18174280327156 -428.5144422058761,-216.68174280330192 -430.34456922476977,-218.5118698222756 -432.84456922477085,-219.18174280341225 -435.3445692248012,-218.51186982238488 -437.1746962437749,-216.68174280349118 -437.8445692249116,-214.18174280349012 -437.1746962438842,-211.68174280345977 -435.34456922499055,-209.85161578448609 -432.84456922498947,-209.18174280334944" stroke="#ffa500" stroke-linecap="round" stroke-linejoin="round"/><polyline fill="none" points="-229.30689827579766,-180.96620633564123 -226.8068982757673,-181.6360793166686 -224.97677125679363,-183.46620633556228 -224.30689827565698,-185.96620633556333 -224.97677125668434,-188.46620633559368 -226.80689827557802,-190.29633335456737 -229.30689827557907,-190.96620633570402 -231.80689827560943,-190.29633335467665 -233.6370252945831,-188.46620633578297 -234.30689827571976,-185.96620633578192 -233.6370252946924,-183.46620633575156 -231.80689827579872,-181.63607931677788 -229.30689827579766,-180.96620633564123" stroke="#ffa500" stroke-linecap="round" stroke-linejoin="round"/><polyline fill="none" points="-357.1880156976557,-61.88939700371439 -354.68801569762536,-62.55926998474177 -352.85788867865165,-64.38939700363545 -352.18801569751497,-66.88939700363652 -352.85788867854234,-69.38939700366687 -354.688015697436,-71.21952402264057 -357.1880156974371,-71.88939700377723 -359.68801569746745,-71.21952402274987 -361.51814271644116,-69.38939700385617 -362.18801569757784,-66.88939700385511 -361.51814271655047,-64.38939700382475 -359.6880156976568,-62.559269984851056 -357.1880156976557,-61.88939700371439" stroke="#ffa500" stroke-linecap="round" stroke-linejoin="round"/><polyline fill="none" points="-61.03491820798324,92.57441050306969 -58.53491820795289,91.90453752204232 -56.70479118897919,90.07441050314863 -56.03491820784253,87.57441050314756 -56.7047911888699,85.0744105031172 -58.53491820776359,83.24428348414351 -61.034918207764655,82.57441050300685 -63.53491820779501,83.24428348403421 -65.3650452267687,85.0744105029279 -66.03491820790536,87.57441050292897 -65.365045226878,90.07441050295932 -63.53491820798431,91.90453752193302 -61.034918207983246,92.57441050306969" stroke="#00f" stroke-linecap="round" stroke-linejoin="round"/><polyline fill="none" points="140.5006980836688,287.259303564288 143.00069808369915,286.58943058326065 144.83082510267286,284.759303564367 145.50069808380954,282.2593035643659 144.83082510278217,279.75930356433554 143.0006980838885,277.9291765453618 140.50069808388741,277.25930356422515 138.00069808385706,277.9291765452525 136.17057106488335,279.7593035641462 135.50069808374667,282.2593035641473 136.17057106477404,284.7593035641776 138.00069808366771,286.58943058315134 140.5006980836688,287.259303564288" stroke="#ffa500" stroke-linecap="round" stroke-linejoin="round"/><polyline fill="none" points="-231.68362608821926,-99.51760863466986 -229.1836260881889,-100.18748161569722 -227.3534990692152,-102.01760863459091 -226.6836260880785,-104.51760863459198 -227.35349906910588,-107.01760863462233 -229.18362608799956,-108.84773565359603 -231.6836260880006,-109.5176086347327 -234.18362608803096,-108.84773565370533 -236.01375310700467,-107.01760863481164 -236.68362608814135,-104.51760863481057 -236.01375310711398,-102.01760863478022 -234.1836260882203,-100.18748161580652 -231.68362608821923,-99.51760863466986" stroke="#00f" stroke-linecap="round" stroke-linejoin="round"/><polyline fill="none" points="-218.17772074742882,27.653642131960293 -215.67772074739847,26.98376915093293 -213.84759372842475,25.153642132039245 -213.17772074728808,22.65364213203818 -213.84759372831545,20.153642132007825 -215.67772074720912,18.32351511303412 -218.17772074721017,17.65364213189745 -220.67772074724053,18.32351511292481 -222.50784776621424,20.153642131818494 -223.17772074735092,22.65364213181956 -222.50784776632355,25.153642131849914 -220.67772074742987,26.98376915082362 -218.1777207474288,27.653642131960293" stroke="#ffa500" stroke-linecap="round" stroke-linejoin="round"/><polyline fill="none" points="-156.352065504385,-56.91257413330149 -153.85206550435464,-57.58244711432885 -152.02193848538093,-59.412574133222535 -151.35206550424425,-61.9125741332236 -152.02193848527162,-64.41257413325395 -153.8520655041653,-66.24270115222767 -156.35206550416638,-66.91257413336434 -158.85206550419673,-66.24270115233699 -160.68219252317044,-64.41257413344331 -161.35206550430712,-61.91257413344225 -160.68219252327975,-59.412574133411894 -158.85206550438608,-57.58244711443819 -156.352065504385,-56.91257413330151" stroke="#ffa500" stroke-linecap="round" stroke-linejoin="round"/><polyline fill="none" points="-323.1835618756642,-170.16032258266955 -320.68356187563387,-170.83019556369692 -318.85343485666016,-172.6603225825906 -318.1835618755235,-175.16032258259168 -318.85343485655085,-177.66032258262203 -320.6835618754445,-179.49044960159574 -323.1835618754456,-180.16032258273242 -325.68356187547596,-179.49044960170505 -327.5136888944497,-177.66032258281138 -328.18356187558635,-175.1603225828103 -327.513688894559,-172.66032258277994 -325.6835618756653,-170.83019556380623 -323.1835618756642,-170.16032258266955" stroke="#008000" stroke-linecap="round" stroke-linejoin="round"/><polyline fill="none" points="-349.48227349598244,-201.6327298883492 -346.9822734959521,-202.30260286937656 -345.1521464769784,-204.13272988827023 -344.4822734958417,-206.63272988827129 -345.15214647686906,-209.13272988830164 -346.98227349576274,-210.96285690727535 -349.4822734957638,-211.63272988841203 -351.9822734957942,-210.96285690738466 -353.8124005147679,-209.13272988849099 -354.48227349590456,-206.6327298884899 -353.8124005148772,-204.13272988845955 -351.9822734959835,-202.30260286948584 -349.48227349598244,-201.63272988834916" stroke="#00f" stroke-linecap="round" stroke-linejoin="round"/><polyline fill="none" points="170.1248861290099,321.7625949207461 172.62488612904025,321.09272193971873 174.45501314801396,319.26259492082505 175.12488612915064,316.762594920824 174.4550131481233,314.2625949207936 172.62488612922962,312.4324679018199 170.12488612922857,311.7625949206832 167.62488612919822,312.4324679017106 165.7947591102245,314.2625949206043 165.12488612908783,316.76259492060535 165.79475911011517,319.2625949206357 167.62488612900884,321.0927219396094 170.1248861290099,321.7625949207461" stroke="#00f" stroke-linecap="round" stroke-linejoin="round"/><polyline fill="none" points="-331.2196484995121,-89.26067611602693 -328.71964849948176,-89.93054909705428 -326.88952148050805,-91.76067611594796 -326.2196484993714,-94.26067611594902 -326.88952148039874,-96.76067611597938 -328.7196484992924,-98.59080313495309 -331.2196484992935,-99.26067611608978 -333.71964849932385,-98.59080313506243 -335.54977551829757,-96.76067611616875 -336.21964849943424,-94.26067611616769 -335.5497755184069,-91.76067611613732 -333.7196484995132,-89.9305490971636 -331.2196484995121,-89.26067611602691" stroke="#00f" stroke-linecap="round" stroke-linejoin="round"/><polyline fill="none" points="70.0258774599743,141.34066176649534 72.52587746000466,140.670788785468 74.35600447897838,138.84066176657433 75.02587746011507,136.34066176657328 74.35600447908772,133.84066176654292 72.52587746019404,132.0105347475692 70.02587746019297,131.34066176643253 67.5258774601626,132.01053474745987 65.69575044118889,133.84066176635355 65.0258774600522,136.3406617663546 65.69575044107954,138.84066176638495 67.52587745997322,140.67078878535867 70.02587745997428,141.34066176649534" stroke="#ffa500" stroke-linecap="round" stroke-linejoin="round"/><polyline fill="none" points="-287.7904404146295,-96.92491640458456 -285.2904404145991,-97.5947893856119 -283.4603133956254,-99.42491640450558 -282.7904404144887,-101.92491640450665 -283.4603133955161,-104.42491640453702 -285.2904404144098,-106.25504342351074 -287.79044041441085,-106.92491640464743 -290.2904404144412,-106.2550434236201 -292.1205674334149,-104.42491640472642 -292.7904404145516,-101.92491640472535 -292.12056743352423,-99.42491640469498 -290.29044041463055,-97.59478938572126 -287.7904404146295,-96.92491640458456" stroke="#ffa500" stroke-linecap="round" stroke-linejoin="round"/><polyline fill="none" points="12.585643826013031,-172.43011471933093 15.085643826043398,-173.09998770035827 16.91577084501712,-174.93011471925195 17.585643826153817,-177.430114719253 16.915770845126474,-179.93011471928335 15.085643826232802,-181.76024173825706 12.585643826231736,-182.43011471939377 10.08564382620137,-181.76024173836643 8.255516807227645,-179.93011471947275 7.58564382609095,-177.4301147194717 8.25551680711829,-174.93011471944135 10.085643826011962,-173.09998770046764 12.585643826013028,-172.43011471933093" stroke="#ffa500" stroke-linecap="round" stroke-linejoin="round"/><polyline fill="none" points="-386.1192330895728,26.724551340564556 -383.61923308954243,26.054678359537217 -381.7891060705687,24.224551340643547 -381.11923308943204,21.72455134064248 -381.7891060704594,19.224551340612113 -383.6192330893531,17.394424321638386 -386.11923308935417,16.724551340501687 -388.6192330893845,17.394424321529026 -390.44936010835823,19.224551340422696 -391.1192330894949,21.724551340423762 -390.4493601084676,24.22455134045413 -388.6192330895739,26.054678359427857 -386.11923308957284,26.724551340564556" stroke="#ffa500" stroke-linecap="round" stroke-linejoin="round"/><polyline fill="none" points="-94.11685739451633,-146.5875881732926 -91.61685739448596,-147.25746115431994 -89.78673037551224,-149.08758817321362 -89.11685739437553,-151.58758817321467 -89.78673037540287,-154.08758817324505 -91.61685739429655,-155.9177151922188 -94.11685739429761,-156.5875881733555 -96.61685739432798,-155.91771519232816 -98.4469844133017,-154.08758817343448 -99.11685739443841,-151.5875881734334 -98.44698441341107,-149.08758817340302 -96.61685739451741,-147.25746115442928 -94.11685739451634,-146.58758817329257" stroke="#ffa500" stroke-linecap="round" stroke-linejoin="round"/><polyline fill="none" points="-416.94673550927297,-143.12189332772368 -414.4467355092426,-143.79176630875102 -412.6166084902689,-145.6218933276447 -411.9467355091322,-148.12189332764575 -412.61660849015954,-150.62189332767613 -414.4467355090532,-152.45202034664987 -416.9467355090543,-153.12189332778658 -419.44673550908465,-152.45202034675924 -421.27686252805836,-150.62189332786556 -421.94673550919504,-148.12189332786448 -421.2768625281677,-145.6218933278341 -419.44673550927405,-143.79176630886036 -416.94673550927297,-143.12189332772365" stroke="#008000" stroke-linecap="round" stroke-linejoin="round"/><polyline fill="none" points="-245.52925669218718,3.543363041335438 -243.0292566921568,2.873490060308104 -241.19912967318305,1.0433630414144364 -240.52925669204635,-1.4566369585866294 -241.19912967307368,-3.9566369586170005 -243.02925669196736,-5.786763977590733 -245.52925669196844,-6.4566369587274375 -248.02925669199882,-5.7867639777001045 -249.85938371097257,-3.9566369588064374 -250.52925669210927,-1.4566369588053716 -249.85938371108193,1.0433630412250001 -248.02925669218826,2.873490060198734 -245.52925669218718,3.54336304133544" stroke="#00f" stroke-linecap="round" stroke-linejoin="round"/><polyline fill="none" points="-214.51402617434618,-88.61161993800418 -212.0140261743158,-89.2814929190315 -210.18389915534206,-91.11161993792517 -209.51402617420536,-93.61161993792624 -210.1838991552327,-96.1116199379566 -212.01402617412637,-97.94174695693034 -214.51402617412742,-98.61161993806705 -217.0140261741578,-97.94174695703973 -218.84415319313155,-96.11161993814606 -219.51402617426825,-93.611619938145 -218.8441531932409,-91.11161993811463 -217.01402617434724,-89.28149291914089 -214.51402617434616,-88.61161993800418" stroke="#ffa500" stroke-linecap="round" stroke-linejoin="round"/><polyline fill="none" points="20.24105696800704,117.39110831328685 22.741056968037412,116.72123533225952 24.57118398701115,114.89110831336586 25.24105696814786,112.3911083133648 24.57118398712053,109.89110831333443 22.741056968226864,108.06098129436069 20.2410569682258,107.39110831322398 17.741056968195423,108.0609812942513 15.910929949221686,109.89110831314497 15.241056968084974,112.39110831314603 15.910929949112301,114.8911083131764 17.741056968005964,116.72123533215014 20.24105696800703,117.39110831328685" stroke="#00f" stroke-linecap="round" stroke-linejoin="round"/><polyline fill="none" points="-503.0060652937467,-151.31788993808115 -500.50606529371635,-151.9877629191085 -498.67593827474263,-153.81788993800217 -498.0060652936059,-156.31788993800325 -498.6759382746332,-158.81788993803363 -500.5060652935269,-160.64801695700737 -503.00606529352797,-161.31788993814408 -505.5060652935583,-160.64801695711674 -507.33619231253203,-158.81788993822306 -508.00606529366877,-156.31788993822198 -507.33619231264146,-153.8178899381916 -505.5060652937478,-151.98776291921786 -503.0060652937467,-151.31788993808115" stroke="#ffa500" stroke-linecap="round" stroke-linejoin="round"/><polyline fill="none" points="-382.3004437180626,6.770724189587117 -379.8004437180322,6.100851208559793 -377.97031669905846,4.270724189666131 -377.3004437179217,1.7707241896650654 -377.97031669894903,-0.7292758103653112 -379.8004437178427,-2.559402829339053 -382.3004437178438,-3.2292758104757686 -384.80044371787415,-2.559402829448446 -386.6305707368479,-0.7292758105547845 -387.30044371798465,1.7707241894462813 -386.63057073695734,4.270724189476659 -384.80044371806366,6.100851208450402 -382.3004437180626,6.770724189587119" stroke="#ffa500" stroke-linecap="round" stroke-linejoin="round"/><polyline fill="none" points="-301.030579269267,4.25544671566313 -298.5305792692366,3.5855737346358083 -296.70045225026286,1.7554467157421478 -296.0305792691261,-0.744553284258918 -296.70045225015343,-3.2445532842892963 -298.5305792690471,-5.074680303263041 -301.0305792690482,-5.7445532843997595 -303.53057926907854,-5.074680303372439 -305.3607062880523,-3.244553284478779 -306.03057926918905,-0.7445532844777136 -305.36070628816174,1.7554467155526652 -303.53057926926806,3.5855737345264105 -301.030579269267,4.25544671566313" stroke="#ffa500" stroke-linecap="round" stroke-linejoin="round"/><polyline fill="none" points="-341.8472354236966,-162.73230603215094 -339.34723542366623,-163.40217901317826 -337.51710840469246,-165.2323060320719 -336.84723542355573,-167.73230603207296 -337.51710840458304,-170.23230603210334 -339.3472354234767,-172.06243305107708 -341.8472354234778,-172.7323060322138 -344.34723542350815,-172.0624330511865 -346.1773624424819,-170.23230603229285 -346.84723542361866,-167.73230603229177 -346.17736244259135,-165.2323060322614 -344.34723542369767,-163.40217901328765 -341.8472354236966,-162.73230603215092" stroke="#008000" stroke-linecap="round" stroke-linejoin="round"/><polyline fill="none" points="-466.67348588976404,-181.7879478915133 -464.1734858897337,-182.45782087254062 -462.3433588707599,-184.28794789143427 -461.6734858896232,-186.78794789143535 -462.3433588706505,-189.28794789146573 -464.17348588954417,-191.11807491043947 -466.67348588954525,-191.7879478915762 -469.1734858895756,-191.1180749105489 -471.00361290854937,-189.28794789165525 -471.6734858896861,-186.7879478916542 -471.0036129086588,-184.28794789162382 -469.1734858897651,-182.45782087265007 -466.67348588976404,-181.78794789151334" stroke="#ffa500" stroke-linecap="round" stroke-linejoin="round"/><polyline fill="none" points="-371.0357140638051,-197.04752940531162 -368.5357140637747,-197.71740238633893 -366.70558704480095,-199.54752940523258 -366.0357140636642,-202.04752940523366 -366.7055870446915,-204.54752940526404 -368.5357140635852,-206.37765642423778 -371.0357140635863,-207.04752940537452 -373.53571406361664,-206.3776564243472 -375.3658410825904,-204.54752940545356 -376.03571406372714,-202.0475294054525 -375.36584108269983,-199.54752940542213 -373.53571406380615,-197.71740238644838 -371.0357140638051,-197.04752940531165" stroke="#00f" stroke-linecap="round" stroke-linejoin="round"/><polyline fill="none" points="-118.00211467322674,-218.36310827565364 -115.50211467319636,-219.03298125668096 -113.6719876542226,-220.8631082755746 -113.00211467308587,-223.36310827557566 -113.67198765411318,-225.86310827560604 -115.50211467300683,-227.69323529457978 -118.0021146730079,-228.3631082757165 -120.50211467303828,-227.6932352946892 -122.33224169201203,-225.86310827579555 -123.00211467314877,-223.3631082757945 -122.33224169212146,-220.86310827576412 -120.50211467322781,-219.03298125679035 -118.00211467322674,-218.36310827565362" stroke="#00f" stroke-linecap="round" stroke-linejoin="round"/><polyline fill="none" points="-450.74650285841824,-152.61242555224126 -448.2465028583878,-153.28229853326857 -446.41637583941406,-155.11242555216222 -445.7465028582773,-157.61242555216327 -446.41637583930464,-160.11242555219366 -448.2465028581983,-161.94255257116743 -450.7465028581994,-162.61242555230416 -453.2465028582298,-161.94255257127685 -455.0766298772036,-160.1124255523832 -455.7465028583403,-157.61242555238215 -455.076629877313,-155.11242555235177 -453.2465028584193,-153.282298533378 -450.74650285841824,-152.61242555224126" stroke="#00f" stroke-linecap="round" stroke-linejoin="round"/><polyline fill="none" points="-21.985453974452607,104.30453700260648 -19.48545397442222,103.63466402157917 -17.655326955448462,101.80453700268552 -16.985453974311728,99.30453700268446 -17.655326955339035,96.80453700265407 -19.485453974232687,94.97440998368032 -21.985453974233753,94.30453700254358 -24.48545397426414,94.9744099835709 -26.315580993237898,96.80453700246454 -26.985453974374632,99.30453700246561 -26.315580993347325,101.80453700249599 -24.485453974453673,103.63466402146975 -21.985453974452607,104.30453700260648" stroke="#ffa500" stroke-linecap="round" stroke-linejoin="round"/><polyline fill="none" points="-396.15251435170114,-93.68946769897408 -393.65251435167073,-94.3593406800014 -391.82238733269696,-96.18946769889504 -391.1525143515602,-98.68946769889611 -391.82238733258754,-101.18946769892649 -393.6525143514812,-103.01959471790025 -396.1525143514823,-103.68946769903698 -398.6525143515127,-103.01959471800967 -400.4826413704865,-101.18946769911602 -401.1525143516232,-98.68946769911496 -400.4826413705959,-96.18946769908457 -398.6525143517022,-94.35934068011082 -396.15251435170114,-93.68946769897408" stroke="#008000" stroke-linecap="round" stroke-linejoin="round"/><polyline fill="none" points="-148.87946983365003,-32.068901766242256 -146.37946983361965,-32.73877474726956 -144.54934281464588,-34.56890176616321 -143.87946983350915,-37.068901766164274 -144.54934281453646,-39.568901766194664 -146.3794698334301,-41.399028785168426 -148.87946983343116,-42.06890176630517 -151.37946983346154,-41.399028785277864 -153.2095968524353,-39.568901766384215 -153.87946983357205,-37.06890176638315 -153.20959685254473,-34.56890176635276 -151.3794698336511,-32.738774747379 -148.87946983365003,-32.068901766242256" stroke="#ffa500" stroke-linecap="round" stroke-linejoin="round"/><polyline fill="none" points="72.41532776220352,-278.23525087186306 74.9153277622339,-278.90512385289037 76.74545478120767,-280.735250871784 77.41532776234442,-283.23525087178507 76.74545478131712,-285.7352508718155 74.91532776242347,-287.56537789078925 72.41532776242241,-288.235250871926 69.91532776239201,-287.5653778908987 68.08520074341824,-285.73525087200505 67.41532776228149,-283.235250872004 68.08520074330879,-280.73525087197356 69.91532776220244,-278.9051238529998 72.4153277622035,-278.23525087186306" stroke="#ffa500" stroke-linecap="round" stroke-linejoin="round"/><polyline fill="none" points="137.41287267487405,321.6691400855407 139.91287267490443,320.99926710451336 141.7429996938782,319.16914008561974 142.41287267501494,316.66914008561866 141.74299969398766,314.16914008558825 139.912872675094,312.3390130666145 137.41287267509296,311.66914008547775 134.91287267506257,312.33901306650506 133.0827456560888,314.1691400853987 132.41287267495207,316.66914008539976 133.08274565597935,319.1691400854302 134.912872674873,320.99926710440394 137.41287267487405,321.6691400855407" stroke="#ffa500" stroke-linecap="round" stroke-linejoin="round"/><polyline fill="none" points="217.7071094578912,-197.79235311438194 220.20710945792158,-198.46222609540922 222.03723647689534,-200.29235311430287 222.70710945803208,-202.79235311430392 222.0372364770048,-205.2923531143343 220.20710945811115,-207.12248013330807 217.7071094581101,-207.79235311444484 215.2071094580797,-207.12248013341755 213.37698243910594,-205.2923531145239 212.70710945796918,-202.79235311452285 213.37698243899646,-200.29235311449247 215.2071094578901,-198.4622260955187 217.70710945789116,-197.79235311438194" stroke="#ffa500" stroke-linecap="round" stroke-linejoin="round"/><polyline fill="none" points="-96.00345414852826,-224.627208417594 -93.50345414849787,-225.2970813986213 -91.6733271295241,-227.12720841751494 -91.00345414838735,-229.627208417516 -91.67332712941464,-232.12720841754637 -93.5034541483083,-233.95733543652014 -96.00345414830936,-234.6272084176569 -98.50345414833976,-233.95733543662962 -100.33358116731353,-232.12720841773597 -101.00345414845027,-229.62720841773492 -100.33358116742298,-227.12720841770454 -98.50345414852933,-225.29708139873077 -96.00345414852826,-224.627208417594" stroke="#ffa500" stroke-linecap="round" stroke-linejoin="round"/><polyline fill="none" points="-123.24802516389592,-188.35456327201672 -120.74802516386552,-189.024436253044 -118.91789814489175,-190.85456327193765 -118.248025163755,-193.3545632719387 -118.9178981447823,-195.85456327196908 -120.74802516367595,-197.68469029094285 -123.24802516367701,-198.35456327207962 -125.74802516370741,-197.68469029105233 -127.57815218268118,-195.85456327215869 -128.24802516381794,-193.35456327215763 -127.57815218279066,-190.85456327212722 -125.74802516389703,-189.02443625315345 -123.24802516389596,-188.3545632720167" stroke="#00f" stroke-linecap="round" stroke-linejoin="round"/><polyline fill="none" points="145.08446768570445,-188.9903352189613 147.58446768573486,-189.66020819998857 149.41459470470863,-191.49033521888222 150.0844676858454,-193.99033521888327 149.41459470481811,-196.49033521891369 147.58446768592447,-198.32046223788745 145.0844676859234,-198.99033521902422 142.584467685893,-198.32046223799694 140.75434066691923,-196.4903352191033 140.08446768578247,-193.99033521910223 140.75434066680975,-191.49033521907182 142.5844676857034,-189.66020820009805 145.08446768570445,-188.9903352189613" stroke="#00f" stroke-linecap="round" stroke-linejoin="round"/><polyline fill="none" points="-483.4204443713291,-145.98382084290023 -480.9204443712987,-146.6536938239275 -479.0903173523249,-148.48382084282116 -478.4204443711882,-150.98382084282224 -479.0903173522155,-153.48382084285265 -480.9204443711091,-155.31394786182642 -483.4204443711102,-155.98382084296318 -485.9204443711406,-155.3139478619359 -487.7505713901144,-153.48382084304225 -488.4204443712511,-150.9838208430412 -487.7505713902238,-148.4838208430108 -485.9204443713302,-146.65369382403702 -483.4204443713291,-145.98382084290026" stroke="#00f" stroke-linecap="round" stroke-linejoin="round"/><polyline fill="none" points="36.82157218308033,-199.1885158002603 39.321572183110725,-199.85838878128757 41.15169920208451,-201.68851580018122 41.82157218322127,-204.18851580018227 41.15169920219399,-206.68851580021268 39.32157218330035,-208.51864281918648 36.82157218329928,-209.18851580032324 34.32157218326888,-208.51864281929596 32.491445164295094,-206.6885158004023 31.82157218315833,-204.18851580040126 32.49144516418561,-201.68851580037085 34.32157218307925,-199.85838878139705 36.82157218308031,-199.1885158002603" stroke="#00f" stroke-linecap="round" stroke-linejoin="round"/><polyline fill="none" points="-448.77444619613453,-192.21142968202685 -446.2744461961041,-192.88130266305413 -444.44431917713035,-194.71142968194778 -443.77444619599356,-197.21142968194886 -444.4443191770208,-199.71142968197927 -446.27444619591444,-201.54155670095307 -448.7744461959155,-202.21142968208983 -451.2744461959459,-201.54155670106255 -453.1045732149197,-199.7114296821689 -453.7744461960565,-197.21142968216785 -453.10457321502923,-194.71142968213744 -451.2744461961356,-192.88130266316364 -448.77444619613453,-192.21142968202687" stroke="#ffa500" stroke-linecap="round" stroke-linejoin="round"/><polyline fill="none" points="-319.7386063840657,60.30702808114062 -317.2386063840353,59.63715510011335 -315.4084793650615,57.80702808121971 -314.7386063839247,55.30702808121865 -315.408479364952,52.80702808118824 -317.2386063838456,50.97690106221445 -319.7386063838467,50.30702808107768 -322.2386063838771,50.97690106210496 -324.06873340285085,52.80702808099859 -324.73860638398764,55.30702808099966 -324.0687334029604,57.80702808103006 -322.23860638406677,59.63715510000385 -319.7386063840657,60.30702808114062" stroke="#ffa500" stroke-linecap="round" stroke-linejoin="round"/><polyline fill="none" points="-356.8812190403171,-91.45806865953237 -354.3812190402867,-92.12794164055965 -352.5510920213129,-93.95806865945329 -351.8812190401761,-96.45806865945436 -352.5510920212034,-98.95806865948477 -354.381219040097,-100.78819567845855 -356.8812190400981,-101.45806865959533 -359.3812190401285,-100.78819567856806 -361.21134605910225,-98.95806865967442 -361.88121904023905,-96.45806865967336 -361.2113460592118,-93.95806865964295 -359.3812190403182,-92.12794164066915 -356.8812190403171,-91.45806865953237" stroke="#00f" stroke-linecap="round" stroke-linejoin="round"/><polyline fill="none" points="-397.94953892676943,-138.2494322382115 -395.449538926739,-138.9193052192388 -393.61941190776525,-140.7494322381324 -392.94953892662846,-143.24943223813347 -393.6194119076557,-145.74943223816388 -395.44953892654934,-147.57955925713767 -397.9495389265504,-148.24943223827444 -400.44953892658083,-147.57955925724715 -402.2796659455546,-145.74943223835353 -402.9495389266914,-143.24943223835248 -402.27966594566414,-140.74943223832207 -400.4495389267705,-138.91930521934827 -397.94953892676943,-138.2494322382115" stroke="#008000" stroke-linecap="round" stroke-linejoin="round"/><polyline fill="none" points="141.42908512752092,-145.66139256764166 143.92908512755133,-146.33126554866894 145.75921214652513,-148.16139256756256 146.4290851276619,-150.6613925675636 145.7592121466346,-153.16139256759402 143.929085127741,-154.99151958656782 141.42908512773994,-155.66139256770458 138.92908512770953,-154.9915195866773 137.09895810873573,-153.16139256778368 136.42908512759894,-150.66139256778263 137.09895810862622,-148.16139256775222 138.92908512751984,-146.33126554877842 141.42908512752092,-145.66139256764163" stroke="#ffa500" stroke-linecap="round" stroke-linejoin="round"/><polyline fill="none" points="83.896622623731,-256.5506215489327 86.39662262376142,-257.22049452996 88.22674964273521,-259.0506215488536 88.89662262387199,-261.5506215488547 88.22674964284472,-264.0506215488851 86.39662262395109,-265.8807485678589 83.89662262395002,-266.5506215489957 81.39662262391961,-265.88074856796845 79.56649560494581,-264.05062154907483 78.89662262380904,-261.55062154907375 79.5664956048363,-259.05062154904334 81.39662262372994,-257.2204945300695 83.896622623731,-256.5506215489327" stroke="#ffa500" stroke-linecap="round" stroke-linejoin="round"/><polyline fill="none" points="-408.34467895465514,-190.11631238265528 -405.8446789546247,-190.78618536368253 -404.0145519356509,-192.61631238257615 -403.3446789545141,-195.11631238257723 -404.01455193554136,-197.61631238260765 -405.844678954435,-199.44643940158144 -408.34467895443606,-200.11631238271823 -410.8446789544665,-199.44643940169098 -412.6748059734403,-197.61631238279736 -413.3446789545771,-195.1163123827963 -412.67480597354984,-192.6163123827659 -410.8446789546562,-190.7861853637921 -408.34467895465514,-190.1163123826553" stroke="#00f" stroke-linecap="round" stroke-linejoin="round"/><polyline fill="none" points="-76.99891532357627,-208.85010691176709 -74.49891532354586,-209.51997989279434 -72.66878830457206,-211.35010691168796 -71.99891532343527,-213.850106911689 -72.66878830446254,-216.35010691171942 -74.49891532335616,-218.18023393069322 -76.99891532335722,-218.85010691183 -79.49891532338764,-218.18023393080276 -81.32904234236143,-216.35010691190914 -81.99891532349822,-213.85010691190809 -81.32904234247096,-211.35010691187767 -79.49891532357734,-209.51997989290388 -76.99891532357627,-208.85010691176709" stroke="#00f" stroke-linecap="round" stroke-linejoin="round"/><polyline fill="none" points="-83.55473559292179,-170.3316004616841 -81.05473559289138,-171.00147344271136 -79.22460857391758,-172.83160046160498 -78.55473559278079,-175.33160046160606 -79.22460857380804,-177.83160046163647 -81.05473559270166,-179.66172748061027 -83.55473559270273,-180.33160046174706 -86.05473559273314,-179.6617274807198 -87.88486261170695,-177.83160046182618 -88.55473559284374,-175.33160046182513 -87.88486261181649,-172.83160046179472 -86.05473559292287,-171.00147344282092 -83.5547355929218,-170.33160046168413" stroke="#ffa500" stroke-linecap="round" stroke-linejoin="round"/><polyline fill="none" points="-300.7656502720067,43.58357258520577 -298.2656502719763,42.91369960417851 -296.4355232530025,41.083572585284884 -295.7656502718657,38.58357258528382 -296.43552325289295,36.08357258525341 -298.26565027178657,34.2534455662796 -300.76565027178765,33.58357258514281 -303.26565027181806,34.25344556617007 -305.0957772907919,36.0835725850637 -305.7656502719287,38.583572585064765 -305.0957772909014,41.08357258509518 -303.2656502720078,42.913699604068995 -300.7656502720067,43.583572585205786" stroke="#ffa500" stroke-linecap="round" stroke-linejoin="round"/><polyline fill="none" points="-414.4123829700712,-169.62423719057284 -411.91238297004077,-170.2941101716001 -410.08225595106694,-172.12423719049372 -409.41238296993015,-174.6242371904948 -410.0822559509574,-177.1242371905252 -411.912382969851,-178.954364209499 -414.4123829698521,-179.6242371906358 -416.9123829698825,-178.95436420960854 -418.74250998885634,-177.12423719071492 -419.41238296999313,-174.62423719071387 -418.7425099889659,-172.12423719068346 -416.91238297007226,-170.29411017170966 -414.4123829700712,-169.62423719057287" stroke="#008000" stroke-linecap="round" stroke-linejoin="round"/><polyline fill="none" points="-295.46423710906276,-78.40337062575357 -292.96423710903235,-79.07324360678082 -291.1341100900585,-80.90337062567444 -290.46423710892174,-83.4033706256755 -291.134110089949,-85.90337062570592 -292.9642371088426,-87.73349764467973 -295.4642371088437,-88.40337062581652 -297.9642371088741,-87.73349764478927 -299.7943641278479,-85.90337062589565 -300.4642371089847,-83.40337062589458 -299.79436412795746,-80.90337062586417 -297.96423710906384,-79.07324360689036 -295.46423710906276,-78.40337062575357" stroke="#ffa500" stroke-linecap="round" stroke-linejoin="round"/><polyline fill="none" points="-335.3858856912364,-186.37237319536231 -332.885885691206,-187.04224617638957 -331.0557586722322,-188.8723731952832 -330.3858856910954,-191.37237319528424 -331.05575867212264,-193.87237319531465 -332.88588569101626,-195.70250021428848 -335.38588569101734,-196.37237319542527 -337.88588569104775,-195.70250021439801 -339.7160127100216,-193.8723731955044 -340.38588569115836,-191.37237319550331 -339.7160127101311,-188.8723731954729 -337.8858856912375,-187.04224617649908 -335.3858856912364,-186.3723731953623" stroke="#ffa500" stroke-linecap="round" stroke-linejoin="round"/><polyline fill="none" points="-356.4924873475281,-182.10381450102648 -353.9924873474977,-182.77368748205373 -352.16236032852385,-184.60381450094735 -351.49248734738705,-187.1038145009484 -352.1623603284143,-189.6038145009788 -353.99248734730793,-191.43394151995264 -356.492487347309,-192.10381450108943 -358.9924873473394,-191.43394152006218 -360.82261436631325,-189.60381450116856 -361.49248734745004,-187.1038145011675 -360.8226143664228,-184.6038145011371 -358.99248734752916,-182.77368748216327 -356.4924873475281,-182.10381450102648" stroke="#00f" stroke-linecap="round" stroke-linejoin="round"/><polyline fill="none" points="157.0586411974213,306.81927434158325 159.55864119745172,306.149401360556 161.38876821642555,304.3192743416624 162.05864119756234,301.8192743416613 161.38876821653508,299.3192743416309 159.55864119764146,297.48914732265706 157.0586411976404,296.81927434152027 154.55864119761,297.4891473225475 152.72851417863617,299.31927434144114 152.05864119749938,301.8192743414422 152.72851417852664,304.31927434147264 154.55864119742026,306.14940136044646 157.0586411974213,306.81927434158325" stroke="#ffa500" stroke-linecap="round" stroke-linejoin="round"/><polyline fill="none" points="-314.36623054403725,-68.82669614044404 -311.86623054400684,-69.49656912147128 -310.036103525033,-71.3266961403649 -309.3662305438962,-73.82669614036597 -310.0361035249235,-76.3266961403964 -311.8662305438171,-78.15682315937022 -314.3662305438182,-78.82669614050702 -316.8662305438486,-78.15682315947979 -318.6963575628224,-76.32669614058617 -319.3662305439592,-73.8266961405851 -318.69635756293195,-71.32669614055467 -316.86623054403833,-69.49656912158085 -314.36623054403725,-68.82669614044404" stroke="#ffa500" stroke-linecap="round" stroke-linejoin="round"/></svg>