<?xml version="1.0" ?><!DOCTYPE svg  PUBLIC '-//W3C//DTD SVG 1.1//EN'  'http://www.w3.org/Graphics/SVG/1.1/DTD/svg11.dtd'><svg height="655.000" viewBox="-522.000 -299.000 767.000 655.000" width="767.000" xmlns="http://www.w3.org/2000/svg"><line fill="none" stroke="none" stroke-linecap="round" stroke-width="2.0" x1="0.0" x2="0.0" y1="0.0" y2="0.0"/><polygon fill="none" fill-rule="evenodd" points="0.0,0.0 0.0,0.0 0.0,0.0" stroke-linejoin="round"/><polyline fill="none" points="-72.2286797884795,112.86916812646122 -69.72867978844891,112.19929514543422 -67.89855276947483,110.36916812654074 -67.22867978833773,107.86916812653966 -67.89855276936473,105.36916812650908 -69.7286797882582,103.539041107535 -72.22867978825929,102.8691681263979 -74.72867978828987,103.5390411074249 -76.55880680726395,105.36916812631837 -77.22867978840105,107.86916812631945 -76.55880680737407,110.36916812635003 -74.72867978848059,112.19929514532411 -72.22867978847951,112.86916812646122" stroke="#ffa500" stroke-linecap="round" stroke-linejoin="round"/><polyline fill="none" points="-168.7802766467208,-14.059495182182804 -166.28027664669023,-14.729368163209795 -164.45014962771614,-16.55949518210327 -163.78027664657904,-19.059495182104342 -164.45014962760604,-21.55949518213492 -166.28027664649952,-23.389622201109006 -168.7802766465006,-24.059495182246113 -171.28027664653118,-23.389622201219126 -173.11040366550526,-21.55949518232565 -173.78027664664236,-19.05949518232458 -173.11040366561537,-16.559495182293997 -171.2802766467219,-14.729368163319911 -168.7802766467208,-14.059495182182804" stroke="#ffa500" stroke-linecap="round" stroke-linejoin="round"/><polyline fill="none" points="124.26671553679311,-108.81707226953245 126.7667155368237,-109.48694525055943 128.5968425557978,-111.31707226945291 129.2667155369349,-113.81707226945399 128.5968425559079,-116.31707226948457 126.76671553701442,-118.14719928845865 124.26671553701334,-118.81707226959576 121.76671553698276,-118.14719928856877 119.93658851800868,-116.3170722696753 119.26671553687157,-113.81707226967421 119.93658851789856,-111.31707226964363 121.76671553679203,-109.48694525066955 124.26671553679311,-108.81707226953245" stroke="#ffa500" stroke-linecap="round" stroke-linejoin="round"/><polyline fill="none" points="-317.4121525686774,-223.5455074242354 -314.91215256864683,-224.2153804052624 -313.0820255496727,-226.0455074241559 -312.4121525685356,-228.54550742415697 -313.08202554956256,-231.04550742418755 -314.912152568456,-232.87563444316163 -317.4121525684571,-233.54550742429873 -319.91215256848767,-232.87563444327174 -321.7422795874618,-231.04550742437826 -322.4121525685989,-228.54550742437718 -321.74227958757194,-226.0455074243466 -319.9121525686785,-224.2153804053725 -317.4121525686774,-223.5455074242354" stroke="#ffa500" stroke-linecap="round" stroke-linejoin="round"/><polyline fill="none" points="-340.20199723747623,-129.41823430655893 -337.70199723744565,-130.0881072875859 -335.87187021847154,-131.91823430647938 -335.2019972373344,-134.41823430648046 -335.8718702183614,-136.91823430651104 -337.70199723725483,-138.74836132548512 -340.2019972372559,-139.41823430662222 -342.7019972372865,-138.74836132559525 -344.5321242562606,-136.91823430670178 -345.20199723739773,-134.4182343067007 -344.53212425637076,-131.91823430667012 -342.7019972374773,-130.08810728769603 -340.20199723747623,-129.41823430655893" stroke="#00f" stroke-linecap="round" stroke-linejoin="round"/><polyline fill="none" points="-474.00633509928736,-166.63747293301478 -471.5063350992568,-167.30734591404175 -469.67620808028266,-169.13747293293522 -469.00633509914553,-171.6374729329363 -469.6762080801725,-174.1374729329669 -471.50633509906595,-175.96759995194097 -474.00633509906703,-176.63747293307807 -476.5063350990976,-175.9675999520511 -478.3364621180717,-174.13747293315762 -479.00633509920885,-171.63747293315654 -478.3364621181819,-169.13747293312596 -476.50633509928844,-167.30734591415188 -474.00633509928736,-166.63747293301475" stroke="#00f" stroke-linecap="round" stroke-linejoin="round"/><polyline fill="none" points="114.59414211315229,-200.41395398022567 117.09414211318287,-201.08382696125264 118.92426913215697,-202.91395398014612 119.59414211329408,-205.4139539801472 118.9242691322671,-207.91395398017778 117.09414211337364,-209.7440809991519 114.59414211337256,-210.41395398028902 112.09414211334197,-209.74408099926205 110.26401509436788,-207.91395398036858 109.59414211323076,-205.4139539803675 110.26401509425774,-202.9139539803369 112.09414211315121,-201.0838269613628 114.59414211315229,-200.41395398022567" stroke="#ffa500" stroke-linecap="round" stroke-linejoin="round"/><polyline fill="none" points="105.53871913803361,-275.19759012992415 108.0387191380642,-275.8674631109511 109.86884615703829,-277.69759012984457 110.53871913817541,-280.19759012984565 109.86884615714844,-282.69759012987623 108.03871913825498,-284.52771714885034 105.5387191382539,-285.1975901299875 103.03871913822331,-284.5277171489605 101.20859211924922,-282.69759013006706 100.5387191381121,-280.197590130066 101.20859211913907,-277.6975901300354 103.03871913803253,-275.8674631110613 105.53871913803361,-275.19759012992415" stroke="#ffa500" stroke-linecap="round" stroke-linejoin="round"/><polyline fill="none" points="-492.31871707601863,-173.2332465073999 -489.81871707598805,-173.90311948842688 -487.98859005701394,-175.73324650732036 -487.3187170758768,-178.23324650732144 -487.9885900569038,-180.73324650735202 -489.8187170757972,-182.56337352632613 -492.3187170757983,-183.23324650746326 -494.8187170758289,-182.5633735264363 -496.648844094803,-180.73324650754282 -497.3187170759401,-178.23324650754174 -496.64884409491316,-175.73324650751115 -494.8187170760197,-173.90311948853704 -492.31871707601863,-173.2332465073999" stroke="#00f" stroke-linecap="round" stroke-linejoin="round"/><polyline fill="none" points="-401.34113632959804,-54.13164685672215 -398.84113632956746,-54.80151983774912 -397.01100931059335,-56.63164685664258 -396.3411363294562,-59.131646856643655 -397.0110093104832,-61.631646856674244 -398.84113632937664,-63.46177387564835 -401.3411363293777,-64.13164685678548 -403.8411363294083,-63.46177387575851 -405.6712633483824,-61.631646856865046 -406.34113632951954,-59.13164685686397 -405.6712633484926,-56.631646856833385 -403.8411363295991,-54.80151983785928 -401.34113632959804,-54.13164685672215" stroke="#00f" stroke-linecap="round" stroke-linejoin="round"/><polyline fill="none" points="39.8670841786424,151.65773180772592 42.36708417867299,150.98785882669895 44.19721119764709,149.1577318078055 44.867084178784225,146.65773180780442 44.197211197757255,144.15773180777384 42.36708417886379,142.32760478879973 39.86708417886272,141.6577318076626 37.36708417883213,142.32760478868957 35.53695715985802,144.15773180758302 34.86708417872089,146.6577318075841 35.53695715974786,149.15773180761468 37.36708417864132,150.9878588265888 39.86708417864239,151.65773180772592" stroke="#ffa500" stroke-linecap="round" stroke-linejoin="round"/><polyline fill="none" points="51.10627706355531,84.91107735228198 53.60627706358591,84.24120437125501 55.43640408256002,82.41107735236154 56.10627706369715,79.91107735236046 55.43640408267019,77.41107735232987 53.60627706377673,75.58095033335576 51.10627706377566,74.91107735221863 48.60627706374506,75.5809503332456 46.77615004477095,77.41107735213906 46.10627706363382,79.91107735214014 46.77615004466078,82.41107735217074 48.60627706355424,84.24120437114485 51.10627706355531,84.91107735228198" stroke="#ffa500" stroke-linecap="round" stroke-linejoin="round"/><polyline fill="none" points="-3.2112980519250787,-211.82553361306788 -0.711298051894484,-212.49540659409485 1.1188289670796268,-214.3255336129883 1.7887019482167628,-216.82553361298937 1.1188289671897997,-219.32553361301996 -0.7112980517036587,-221.15566063199407 -3.211298051704733,-221.8255336131312 -5.711298051735328,-221.15566063210423 -7.54142507070944,-219.32553361321078 -8.211298051846578,-216.8255336132097 -7.541425070819616,-214.32553361317912 -5.711298051926159,-212.495406594205 -3.2112980519250844,-211.82553361306788" stroke="#ffa500" stroke-linecap="round" stroke-linejoin="round"/><polyline fill="none" points="-247.95684480303328,-198.20467286675262 -245.45684480300267,-198.8745458477796 -243.62671778402856,-200.70467286667304 -242.95684480289142,-203.20467286667412 -243.6267177839184,-205.70467286670473 -245.45684480281184,-207.53479988567884 -247.95684480281292,-208.20467286681597 -250.45684480284353,-207.534799885789 -252.28697182181764,-205.70467286689555 -252.95684480295478,-203.20467286689447 -252.2869718219278,-200.70467286686386 -250.45684480303436,-198.87454584788975 -247.95684480303328,-198.20467286675262" stroke="#00f" stroke-linecap="round" stroke-linejoin="round"/><polyline fill="none" points="146.7660111016153,343.7917759101732 149.26601110164592,343.12190292914624 151.09613812062003,341.2917759102528 151.76601110175716,338.7917759102517 151.0961381207302,336.29177591022113 149.26601110183674,334.461648891247 146.76601110183566,333.7917759101099 144.26601110180505,334.46164889113686 142.43588408283094,336.2917759100303 141.7660111016938,338.7917759100314 142.43588408272078,341.291775910062 144.26601110161423,343.1219029290361 146.7660111016153,343.7917759101732" stroke="#ffa500" stroke-linecap="round" stroke-linejoin="round"/><polyline fill="none" points="-85.28634850099479,-239.71698754585879 -82.7863485009642,-240.38686052688576 -80.95622148199007,-242.2169875457792 -80.28634850085292,-244.71698754578028 -80.95622148187988,-247.2169875458109 -82.78634850077333,-249.047114564785 -85.28634850077441,-249.71698754592214 -87.786348500805,-249.0471145648952 -89.61647551977913,-247.21698754600175 -90.28634850091628,-244.71698754600067 -89.61647551988932,-242.21698754597006 -87.78634850099587,-240.38686052699595 -85.28634850099479,-239.71698754585879" stroke="#ffa500" stroke-linecap="round" stroke-linejoin="round"/><polyline fill="none" points="-383.8890004895579,-160.86339214058748 -381.3890004895273,-161.53326512161442 -379.5588734705532,-163.36339214050787 -378.88900048941605,-165.86339214050895 -379.558873470443,-168.36339214053956 -381.38900048933647,-170.19351915951367 -383.88900048933755,-170.86339214065083 -386.38900048936813,-170.1935191596239 -388.21912750834224,-168.36339214073044 -388.8890004894794,-165.86339214072936 -388.2191275084524,-163.36339214069875 -386.38900048955895,-161.53326512172464 -383.8890004895579,-160.86339214058748" stroke="#008000" stroke-linecap="round" stroke-linejoin="round"/><polyline fill="none" points="-141.5706481753588,-67.51336716107376 -139.0706481753282,-68.18324014210071 -137.24052115635408,-70.01336716099416 -136.57064817521692,-72.51336716099524 -137.24052115624386,-75.01336716102585 -139.0706481751373,-76.84349417999998 -141.5706481751384,-77.51336716113713 -144.070648175169,-76.84349418011017 -145.90077519414314,-75.01336716121672 -146.5706481752803,-72.51336716121564 -145.90077519425336,-70.01336716118503 -144.0706481753599,-68.1832401422109 -141.57064817535883,-67.51336716107376" stroke="#ffa500" stroke-linecap="round" stroke-linejoin="round"/><polyline fill="none" points="-437.51463156466036,-184.81729712032973 -435.0146315646298,-185.48717010135667 -433.18450454565567,-187.31729712025012 -432.51463156451854,-189.8172971202512 -433.1845045455455,-192.3172971202818 -435.01463156443896,-194.14742413925595 -437.51463156444004,-194.8172971203931 -440.0146315644706,-194.14742413936617 -441.84475858344473,-192.31729712047272 -442.51463156458186,-189.81729712047164 -441.8447585835549,-187.31729712044103 -440.01463156466144,-185.4871701014669 -437.51463156466036,-184.81729712032973" stroke="#00f" stroke-linecap="round" stroke-linejoin="round"/><polyline fill="none" points="60.81980292855757,-260.0675284380754 63.319802928588174,-260.73740141910235 65.1499299475623,-262.5675284379958 65.81980292869946,-265.0675284379969 65.14992994767252,-267.56752843802747 63.31980292877907,-269.3976554570016 60.819802928777996,-270.0675284381387 58.319802928747386,-269.39765545711174 56.489675909773254,-267.5675284382183 55.81980292863609,-265.0675284382172 56.48967590966304,-262.5675284381866 58.31980292855649,-260.7374014192125 60.819802928557564,-260.0675284380754" stroke="#00f" stroke-linecap="round" stroke-linejoin="round"/><polyline fill="none" points="-74.93774898883892,-151.81351432085128 -72.43774898880831,-152.48338730187822 -70.60762196983417,-154.31351432077167 -69.93774898869701,-156.81351432077275 -70.60762196972395,-159.31351432080336 -72.4377489886174,-161.1436413397775 -74.93774898861848,-161.81351432091466 -77.43774898864909,-161.14364133988772 -79.26787600762323,-159.31351432099427 -79.93774898876039,-156.8135143209932 -79.26787600773345,-154.31351432096258 -77.43774898884,-152.48338730198844 -74.93774898883892,-151.81351432085128" stroke="#ffa500" stroke-linecap="round" stroke-linejoin="round"/><polyline fill="none" points="-326.0475983176592,-111.12340827336934 -323.5475983176286,-111.79328125439628 -321.7174712986545,-113.62340827328973 -321.0475983175173,-116.1234082732908 -321.7174712985443,-118.62340827332142 -323.54759831743775,-120.45353529229556 -326.0475983174388,-121.12340827343272 -328.54759831746946,-120.45353529240577 -330.3777253364436,-118.62340827351233 -331.04759831758076,-116.12340827351125 -330.37772533655385,-113.62340827348063 -328.5475983176604,-111.7932812545065 -326.0475983176593,-111.12340827336934" stroke="#ffa500" stroke-linecap="round" stroke-linejoin="round"/><polyline fill="none" points="-69.34685241693077,-225.91068358824072 -66.84685241690016,-226.58055656926766 -65.01672539792602,-228.4106835881611 -64.34685241678886,-230.9106835881622 -65.0167253978158,-233.4106835881928 -66.84685241670925,-235.24081060716694 -69.34685241671033,-235.9106835883041 -71.84685241674094,-235.24081060727715 -73.67697943571508,-233.4106835883837 -74.34685241685224,-230.91068358838262 -73.6769794358253,-228.41068358835201 -71.84685241693185,-226.58055656937788 -69.34685241693077,-225.91068358824072" stroke="#ffa500" stroke-linecap="round" stroke-linejoin="round"/><polyline fill="none" points="-318.05378906167476,-31.654937341082473 -315.5537890616441,-32.324810322109414 -313.72366204266996,-34.154937341002864 -313.05378906153277,-36.654937341003944 -313.7236620425597,-39.15493734103456 -315.55378906145313,-40.9850643600087 -318.0537890614542,-41.65493734114587 -320.55378906148485,-40.98506436011893 -322.383916080459,-39.154937341225484 -323.0537890615962,-36.654937341224404 -322.3839160805693,-34.154937341193786 -320.55378906167584,-32.32481032221965 -318.05378906167476,-31.654937341082476" stroke="#00f" stroke-linecap="round" stroke-linejoin="round"/><polyline fill="none" points="113.69291198693904,-152.98357824301098 116.19291198696965,-153.65345122403792 118.02303900594379,-155.48357824293137 118.69291198708096,-157.98357824293245 118.02303900605402,-160.48357824296306 116.19291198716057,-162.3137052619372 113.69291198715949,-162.98357824307436 111.19291198712888,-162.31370526204742 109.36278496815474,-160.48357824315397 108.69291198701757,-157.9835782431529 109.36278496804451,-155.48357824312228 111.19291198693796,-153.65345122414814 113.69291198693904,-152.98357824301098" stroke="#00f" stroke-linecap="round" stroke-linejoin="round"/><polyline fill="none" points="172.45617469863893,-190.2931429093559 174.95617469866954,-190.96301589038285 176.78630171764368,-192.7931429092763 177.45617469878084,-195.29314290927738 176.7863017177539,-197.793142909308 174.95617469886045,-199.62326992828213 172.45617469885937,-200.2931429094193 169.95617469882876,-199.62326992839235 168.12604767985462,-197.7931429094989 167.45617469871746,-195.29314290949782 168.1260476797444,-192.7931429094672 169.95617469863785,-190.96301589049307 172.45617469863893,-190.29314290935588" stroke="#00f" stroke-linecap="round" stroke-linejoin="round"/><polyline fill="none" points="-13.725215389186769,82.94021355649741 -11.225215389156151,82.27034057547048 -9.395088370182004,80.44021355657704 -8.725215389044829,77.94021355657596 -9.39508837007176,75.44021355654533 -11.225215388965202,73.61008653757118 -13.72521538896628,72.940213556434 -16.2252153889969,73.61008653746093 -18.05534240797105,75.44021355635437 -18.72521538910823,77.94021355635545 -18.055342408081298,80.44021355638607 -16.225215389187856,82.27034057536022 -13.725215389186777,82.9402135564974" stroke="#ffa500" stroke-linecap="round" stroke-linejoin="round"/><polyline fill="none" points="-132.17146950439025,-28.123981112339422 -129.67146950435964,-28.79385409336635 -127.84134248538548,-30.62398111225979 -127.17146950424831,-33.12398111226087 -127.84134248527523,-35.62398111229149 -129.67146950416867,-37.45410813126564 -132.17146950416975,-38.123981112402824 -134.67146950420036,-37.4541081313759 -136.5015965231745,-35.623981112482454 -137.1714695043117,-33.123981112481374 -136.50159652328477,-30.623981112450753 -134.67146950439133,-28.7938540934766 -132.17146950439025,-28.12398111233942" stroke="#ffa500" stroke-linecap="round" stroke-linejoin="round"/><polyline fill="none" points="-226.7175660541786,-208.1189802364999 -224.217566054148,-208.78885321752682 -222.38743903517386,-210.61898023642027 -221.71756605403667,-213.11898023642135 -222.38743903506358,-215.61898023645196 -224.21756605395703,-217.4491072554261 -226.7175660539581,-218.1189802365633 -229.21756605398872,-217.44910725553638 -231.0476930729629,-215.61898023664293 -231.71756605410008,-213.11898023664185 -231.04769307307316,-210.61898023661124 -229.2175660541797,-208.78885321763707 -226.71756605417863,-208.11898023649988" stroke="#ffa500" stroke-linecap="round" stroke-linejoin="round"/><polyline fill="none" points="-314.1656845644716,-50.96664128865608 -311.66568456444094,-51.636514269683005 -309.83555754546677,-53.46664128857644 -309.1656845643296,-55.96664128857752 -309.8355575453565,-58.466641288608145 -311.66568456424994,-60.2967683075823 -314.165684564251,-60.96664128871948 -316.66568456428166,-60.29676830769256 -318.49581158325583,-58.466641288799124 -319.165684564393,-55.966641288798044 -318.4958115833661,-53.46664128876742 -316.66568456447266,-51.63651426979327 -314.1656845644716,-50.96664128865608" stroke="#ffa500" stroke-linecap="round" stroke-linejoin="round"/><polyline fill="none" points="-427.1792446258297,-102.13110663539608 -424.6792446257991,-102.800979616423 -422.8491176068249,-104.63110663531644 -422.1792446256877,-107.13110663531752 -422.84911760671463,-109.63110663534815 -424.6792446256081,-111.4612336543223 -427.17924462560916,-112.13110663545949 -429.6792446256398,-111.46123365443256 -431.50937164461396,-109.63110663553913 -432.17924462575115,-107.13110663553805 -431.50937164472424,-104.63110663550742 -429.6792446258308,-102.80097961653327 -427.1792446258297,-102.13110663539608" stroke="#ffa500" stroke-linecap="round" stroke-linejoin="round"/><polyline fill="none" points="-162.12209449664266,-209.24699467299266 -159.62209449661202,-209.91686765401957 -157.79196747763785,-211.74699467291302 -157.12209449650067,-214.2469946729141 -157.79196747752758,-216.74699467294474 -159.62209449642103,-218.5771216919189 -162.1220944964221,-219.2469946730561 -164.62209449645275,-218.57712169202918 -166.4522215154269,-216.74699467313576 -167.1220944965641,-214.24699467313468 -166.4522215155372,-211.74699467310404 -164.62209449664377,-209.91686765412987 -162.1220944966427,-209.24699467299268" stroke="#00f" stroke-linecap="round" stroke-linejoin="round"/><polyline fill="none" points="-467.7698991627089,-142.15458430391146 -465.26989916267826,-142.82445728493838 -463.4397721437041,-144.6545843038318 -462.7698991625669,-147.15458430383288 -463.4397721435938,-149.65458430386352 -465.26989916248726,-151.48471132283768 -467.76989916248834,-152.15458430397487 -470.269899162519,-151.48471132294796 -472.10002618149315,-149.65458430405454 -472.76989916263034,-147.15458430405346 -472.1000261816034,-144.65458430402282 -470.26989916271,-142.82445728504865 -467.7698991627089,-142.15458430391146" stroke="#ffa500" stroke-linecap="round" stroke-linejoin="round"/><polyline fill="none" points="-274.7637412876771,28.63420014968408 -272.26374128764644,27.964327168657164 -270.4336142686723,26.13420014976373 -269.7637412875351,23.63420014976265 -270.433614268562,21.13420014973202 -272.26374128745545,19.304073130757857 -274.7637412874565,18.63420014962066 -277.26374128748716,19.304073130647573 -279.09386830646133,21.134200149541005 -279.7637412875985,23.634200149542085 -279.0938683065716,26.134200149572713 -277.26374128767816,27.96432716854688 -274.7637412876771,28.634200149684077" stroke="#ffa500" stroke-linecap="round" stroke-linejoin="round"/><polyline fill="none" points="64.58239962051681,161.97818502126998 67.08239962054743,161.30831204024307 68.9125266395216,159.47818502134965 69.5823996206588,156.97818502134857 68.91252663963189,154.47818502131793 67.08239962073846,152.64805800234376 64.58239962073738,151.97818502120657 62.082399620706745,152.64805800223348 60.25227260173258,154.4781850211269 59.58239962059538,156.97818502112798 60.252272601622295,159.47818502115862 62.08239962051572,161.3083120401328 64.5823996205168,161.97818502126998" stroke="#ffa500" stroke-linecap="round" stroke-linejoin="round"/><polyline fill="none" points="-431.3340028980173,-131.09794597371422 -428.83400289798664,-131.76781895474113 -427.00387587901247,-133.59794597363455 -426.3340028978753,-136.09794597363563 -427.0038758789022,-138.59794597366627 -428.83400289779564,-140.42807299264044 -431.3340028977967,-141.09794597377763 -433.83400289782736,-140.4280729927507 -435.6641299168015,-138.5979459738573 -436.3340028979387,-136.0979459738562 -435.6641299169118,-133.59794597382557 -433.83400289801835,-131.7678189548514 -431.3340028980173,-131.09794597371422" stroke="#f00" stroke-linecap="round" stroke-linejoin="round"/><polyline fill="none" points="-63.961840407515965,-191.07962814692175 -61.46184040748533,-191.74950112794866 -59.63171338851116,-193.57962814684208 -58.961840407373955,-196.07962814684316 -59.63171338840086,-198.5796281468738 -61.46184040729429,-200.40975516584797 -63.96184040729537,-201.0796281469852 -66.46184040732601,-200.40975516595827 -68.29196742630018,-198.57962814706485 -68.96184040743738,-196.07962814706377 -68.29196742641048,-193.57962814703313 -66.46184040751706,-191.74950112805897 -63.96184040751598,-191.07962814692175" stroke="#ffa500" stroke-linecap="round" stroke-linejoin="round"/><polyline fill="none" points="160.8542046130091,-171.88693871691538 163.35420461303974,-172.5568116979423 165.1843316320139,-174.38693871683572 165.85420461315113,-176.8869387168368 165.1843316321242,-179.38693871686743 163.3542046132308,-181.2170657358416 160.8542046132297,-181.88693871697882 158.35420461319907,-181.2170657359519 156.5240775942249,-179.38693871705848 155.8542046130877,-176.8869387170574 156.5240775941146,-174.38693871702677 158.35420461300802,-172.5568116980526 160.8542046130091,-171.88693871691538" stroke="#ffa500" stroke-linecap="round" stroke-linejoin="round"/><polyline fill="none" points="227.77351177767113,-175.1862222608707 230.27351177770177,-175.8560952418976 232.10363879667594,-177.68622226079103 232.77351177781316,-180.1862222607921 232.10363879678624,-182.68622226082275 230.27351177789282,-184.5163492797969 227.77351177789174,-185.18622226093413 225.2735117778611,-184.51634927990722 223.44338475888694,-182.6862222610138 222.77351177774972,-180.18622226101272 223.44338475877663,-177.68622226098208 225.27351177767005,-175.8560952420079 227.77351177767113,-175.1862222608707" stroke="#ffa500" stroke-linecap="round" stroke-linejoin="round"/><polyline fill="none" points="-412.7008218684135,-123.6337786464766 -410.2008218683829,-124.3036516275035 -408.3706948494087,-126.13377864639692 -407.70082186827153,-128.63377864639799 -408.37069484929845,-131.13377864642862 -410.2008218681919,-132.9639056654028 -412.700821868193,-133.63377864654 -415.2008218682236,-132.96390566551312 -417.0309488871978,-131.1337786466197 -417.70082186833497,-128.63377864661862 -417.03094888730806,-126.13377864658798 -415.2008218684146,-124.3036516276138 -412.7008218684135,-123.63377864647659" stroke="#00f" stroke-linecap="round" stroke-linejoin="round"/><polyline fill="none" points="105.01395161350976,-248.53593714349907 107.5139516135404,-249.20581012452595 109.34407863251458,-251.03593714341937 110.0139516136518,-253.53593714342045 109.3440786326249,-256.0359371434511 107.51395161373148,-257.8660641624253 105.0139516137304,-258.5359371435625 102.51395161369976,-257.86606416253557 100.68382459472558,-256.0359371436421 100.01395161358836,-253.53593714364104 100.68382459461526,-251.0359371436104 102.51395161350868,-249.2058101246362 105.01395161350976,-248.53593714349898" stroke="#ffa500" stroke-linecap="round" stroke-linejoin="round"/><polyline fill="none" points="-124.0776045166818,-163.56412582885582 -121.57760451665116,-164.2339988098827 -119.74747749767698,-166.06412582877613 -119.07760451653976,-168.5641258287772 -119.74747749756666,-171.06412582880785 -121.57760451646008,-172.89425284778204 -124.07760451646116,-173.56412582891926 -126.5776045164918,-172.89425284789237 -128.40773153546598,-171.06412582899895 -129.0776045166032,-168.56412582899787 -128.40773153557632,-166.06412582896724 -126.5776045166829,-164.23399880999304 -124.07760451668182,-163.56412582885582" stroke="#ffa500" stroke-linecap="round" stroke-linejoin="round"/><polyline fill="none" points="51.97192011413325,106.44524230068949 54.47192011416389,105.77536931966259 56.30204713313808,103.94524230076917 56.971920114275306,101.44524230076809 56.302047133248415,98.94524230073745 54.471920114354994,97.11511528176325 51.971920114353914,96.44524230062603 49.47192011432327,97.11511528165293 47.64179309534908,98.94524230054635 46.971920114211855,101.44524230054743 47.64179309523875,103.94524230057807 49.47192011413217,105.77536931955227 51.97192011413325,106.44524230068949" stroke="#ffa500" stroke-linecap="round" stroke-linejoin="round"/><polyline fill="none" points="185.627867021997,303.02301389231866 188.12786702202763,302.35314091129175 189.95799404100183,300.52301389239835 190.62786702213904,298.0230138923973 189.95799404111216,295.52301389236663 188.12786702221874,293.69288687339247 185.62786702221766,293.0230138922552 183.12786702218702,293.69288687328213 181.29774000321282,295.5230138921755 180.6278670220756,298.0230138921766 181.2977400031025,300.52301389220725 183.1278670219959,302.3531409111814 185.627867021997,303.02301389231866" stroke="#ffa500" stroke-linecap="round" stroke-linejoin="round"/><polyline fill="none" points="-338.83406376499636,-214.49983170975767 -336.3340637649657,-215.16970469078456 -334.50393674599155,-216.99983170967798 -333.8340637648543,-219.49983170967906 -334.5039367458812,-221.9998317097097 -336.3340637647746,-223.8299587286839 -338.8340637647757,-224.4998317098211 -341.33406376480633,-223.82995872879422 -343.1641907837805,-221.9998317099008 -343.83406376491774,-219.49983170989972 -343.16419078389083,-216.99983170986908 -341.33406376499744,-215.1697046908949 -338.83406376499636,-214.49983170975767" stroke="#00f" stroke-linecap="round" stroke-linejoin="round"/><polyline fill="none" points="-313.9084166126583,22.57310365267633 -311.40841661262766,21.903230671649446 -309.5782895936535,20.07310365275603 -308.90841661251625,17.57310365275495 -309.57828959354316,15.073103652724301 -311.40841661243655,13.242976633750105 -313.90841661243763,12.573103652612875 -316.4084166124683,13.24297663363976 -318.2385436314425,15.073103652533177 -318.90841661257974,17.573103652534257 -318.23854363155283,20.073103652564907 -316.40841661265944,21.903230671539102 -313.90841661265836,22.573103652676334" stroke="#00f" stroke-linecap="round" stroke-linejoin="round"/><polyline fill="none" points="73.13101938080555,116.29662953047018 75.63101938083621,115.6267565494433 77.4611463998104,113.79662953054988 78.13101938094763,111.2966295305488 77.46114639992075,108.79662953051815 75.63101938102733,106.96650251154395 73.13101938102625,106.29662953040672 70.6310193809956,106.9665025114336 68.8008923620214,108.79662953032702 68.13101938088417,111.2966295303281 68.80089236191105,113.79662953035876 70.63101938080447,115.62675654933295 73.13101938080555,116.29662953047018" stroke="#ffa500" stroke-linecap="round" stroke-linejoin="round"/><polyline fill="none" points="-396.1742778180173,-208.49334897349837 -393.67427781798665,-209.16322195452526 -391.8441507990124,-210.99334897341868 -391.1742778178752,-213.49334897341976 -391.84415079890204,-215.9933489734504 -393.6742778177954,-217.8234759924246 -396.1742778177965,-218.49334897356184 -398.67427781782715,-217.82347599253495 -400.50440483680137,-215.99334897364153 -401.1742778179386,-213.49334897364045 -400.50440483691176,-210.9933489736098 -398.67427781801837,-209.16322195463562 -396.1742778180173,-208.49334897349837" stroke="#ffa500" stroke-linecap="round" stroke-linejoin="round"/><polyline fill="none" points="-313.29346566561475,-191.75605663505746 -310.7934656655841,-192.42592961608435 -308.9633386466099,-194.25605663497777 -308.29346566547264,-196.75605663497885 -308.9633386464995,-199.2560566350095 -310.7934656653929,-201.08618365398368 -313.29346566539397,-201.75605663512093 -315.7934656654246,-201.08618365409404 -317.62359268439883,-199.25605663520062 -318.2934656655361,-196.75605663519954 -317.6235926845092,-194.2560566351689 -315.7934656656158,-192.4259296161947 -313.29346566561475,-191.75605663505746" stroke="#00f" stroke-linecap="round" stroke-linejoin="round"/><polyline fill="none" points="137.40427806453076,-123.76812308447231 139.9042780645614,-124.43799606549918 141.7344050835356,-126.26812308439258 142.40427806467284,-128.76812308439366 141.73440508364595,-131.2681230844243 139.90427806475253,-133.0982501033985 137.40427806475145,-133.76812308453574 134.90427806472078,-133.09825010350886 133.0741510457466,-131.26812308461544 132.40427806460934,-128.76812308461436 133.07415104563623,-126.2681230845837 134.90427806452965,-124.4379960656095 137.40427806453073,-123.76812308447225" stroke="#ffa500" stroke-linecap="round" stroke-linejoin="round"/><polyline fill="none" points="-189.42883994695174,-57.248301952224274 -186.92883994692107,-57.91817493325115 -185.09871292794688,-59.748301952144566 -184.42883994680963,-62.248301952145646 -185.09871292783652,-64.7483019521763 -186.92883994672994,-66.57842897115052 -189.42883994673102,-67.24830195228776 -191.92883994676168,-66.57842897126089 -193.75896696573588,-64.74830195236748 -194.42883994687313,-62.248301952366404 -193.75896696584624,-59.74830195233575 -191.92883994695282,-57.91817493336154 -189.42883994695174,-57.248301952224296" stroke="#00f" stroke-linecap="round" stroke-linejoin="round"/><polyline fill="none" points="-49.4559165513975,119.88463562650486 -46.95591655136685,119.21476264547799 -45.12578953239264,117.38463562658458 -44.45591655125539,114.8846356265835 -45.12578953228226,112.38463562655285 -46.95591655117567,110.55450860757864 -49.45591655117675,109.8846356264414 -51.95591655120741,110.55450860746826 -53.78604357018162,112.38463562636167 -54.455916551318865,114.88463562636275 -53.786043570291994,117.3846356263934 -51.95591655139859,119.21476264536761 -49.45591655139751,119.88463562650486" stroke="#ffa500" stroke-linecap="round" stroke-linejoin="round"/><polyline fill="none" points="-433.1246707041725,-208.70519364958756 -430.62467070414186,-209.3750666306144 -428.79454368516764,-211.20519364950783 -428.1246707040304,-213.7051936495089 -428.79454368505725,-216.20519364953958 -430.62467070395064,-218.0353206685138 -433.1246707039517,-218.70519364965105 -435.62467070398236,-218.0353206686242 -437.4547977229566,-216.20519364973077 -438.12467070409383,-213.7051936497297 -437.454797723067,-211.20519364969903 -435.6246707041736,-209.3750666307248 -433.1246707041725,-208.70519364958756" stroke="#ffa500" stroke-linecap="round" stroke-linejoin="round"/><polyline fill="none" points="-232.3092567253054,-183.32931018631356 -229.80925672527474,-183.99918316734042 -227.9791297063005,-185.82931018623384 -227.30925672516327,-188.32931018623492 -227.97912970619012,-190.8293101862656 -229.80925672508354,-192.6594372052398 -232.30925672508462,-193.32931018637706 -234.8092567251153,-192.6594372053502 -236.6393837440895,-190.82931018645678 -237.30925672522676,-188.3293101864557 -236.6393837441999,-185.82931018642503 -234.80925672530648,-183.9991831674508 -232.3092567253054,-183.32931018631356" stroke="#ffa500" stroke-linecap="round" stroke-linejoin="round"/><polyline fill="none" points="-361.71330417080236,-65.53968726068278 -359.2133041707717,-66.20956024170965 -357.3831771517975,-68.03968726060306 -356.71330417066025,-70.53968726060414 -357.3831771516871,-73.0396872606348 -359.2133041705805,-74.86981427960903 -361.7133041705816,-75.53968726074629 -364.2133041706122,-74.86981427971942 -366.04343118958644,-73.03968726082601 -366.7133041707237,-70.53968726082493 -366.04343118969683,-68.03968726079427 -364.21330417080344,-66.20956024182004 -361.71330417080236,-65.53968726068278" stroke="#ffa500" stroke-linecap="round" stroke-linejoin="round"/><polyline fill="none" points="-65.02419979479255,91.25894362955665 -62.52419979476189,90.5890706485298 -60.694072775787674,88.75894362963639 -60.024199794650414,86.25894362963531 -60.69407277567728,83.75894362960464 -62.524199794570684,81.92881661063042 -65.02419979457177,81.25894362949316 -67.52419979460244,81.92881661052002 -69.35432681357666,83.75894362941342 -70.02419979471392,86.2589436294145 -69.35432681368707,88.75894362944517 -67.52419979479366,90.5890706484194 -65.02419979479258,91.25894362955665" stroke="#00f" stroke-linecap="round" stroke-linejoin="round"/><polyline fill="none" points="145.50484642991236,291.63721606154786 148.00484642994303,290.967343080521 149.83497344891725,289.1372160616276 150.5048464300545,286.63721606162653 149.83497344902764,284.1372160615959 148.00484643013425,282.30708904262167 145.50484643013317,281.6372160614844 143.0048464301025,282.3070890425113 141.17471941112828,284.1372160614047 140.504846429991,286.63721606140575 141.17471941101786,289.1372160614364 143.00484642991125,290.9673430804106 145.50484642991233,291.63721606154786" stroke="#ffa500" stroke-linecap="round" stroke-linejoin="round"/><polyline fill="none" points="-234.1229364231666,-101.94939394183352 -231.62293642313594,-102.61926692286038 -229.79280940416172,-104.44939394175378 -229.12293642302444,-106.94939394175486 -229.7928094040513,-109.44939394178553 -231.6229364229447,-111.27952096075975 -234.12293642294577,-111.94939394189701 -236.62293642297644,-111.27952096087016 -238.45306344195066,-109.44939394197675 -239.12293642308794,-106.94939394197567 -238.45306344206108,-104.449393941945 -236.6229364231677,-102.61926692297078 -234.1229364231666,-101.94939394183352" stroke="#00f" stroke-linecap="round" stroke-linejoin="round"/><polyline fill="none" points="-222.40965108568952,25.475010073891294 -219.90965108565885,24.805137092864438 -218.07952406668463,22.975010073971035 -217.40965108554735,20.47501007396995 -218.0795240665742,17.975010073939284 -219.9096510854676,16.144883054965057 -222.40965108546868,15.47501007382779 -224.90965108549935,16.144883054854645 -226.73977810447357,17.975010073748045 -227.40965108561085,20.47501007374913 -226.739778104584,22.975010073779796 -224.9096510856906,24.805137092754023 -222.40965108568952,25.47501007389129" stroke="#ffa500" stroke-linecap="round" stroke-linejoin="round"/><polyline fill="none" points="-160.58928231694887,-57.42498850525635 -158.0892823169182,-58.09486148628321 -156.25915529794398,-59.92498850517661 -155.5892823168067,-62.42498850517769 -156.25915529783356,-64.92498850520836 -158.08928231672695,-66.75511552418259 -160.58928231672803,-67.42498850531986 -163.0892823167587,-66.755115524293 -164.91940933573292,-64.92498850539961 -165.5892823168702,-62.42498850539853 -164.91940933584334,-59.924988505367864 -163.08928231694995,-58.09486148639363 -160.58928231694887,-57.424988505256366" stroke="#ffa500" stroke-linecap="round" stroke-linejoin="round"/><polyline fill="none" points="-328.41190499469997,-172.31980561767904 -325.91190499466927,-172.9896785987059 -324.08177797569505,-174.8198056175993 -323.4119049945578,-177.31980561760037 -324.08177797558466,-179.81980561763103 -325.91190499447805,-181.64993263660526 -328.41190499447913,-182.31980561774253 -330.9119049945098,-181.64993263671568 -332.74203201348405,-179.81980561782228 -333.4119049946213,-177.3198056178212 -332.74203201359444,-174.81980561779054 -330.91190499470105,-172.9896785988163 -328.41190499469997,-172.31980561767904" stroke="#008000" stroke-linecap="round" stroke-linejoin="round"/><polyline fill="none" points="-353.8863336598737,-204.31312103316904 -351.386333659843,-204.9829940141959 -349.55620664086877,-206.8131210330893 -348.8863336597315,-209.31312103309037 -349.5562066407584,-211.81312103312104 -351.38633365965177,-213.64324805209526 -353.88633365965285,-214.31312103323253 -356.38633365968354,-213.64324805220568 -358.21646067865777,-211.81312103331229 -358.88633365979507,-209.3131210333112 -358.2164606787682,-206.81312103328054 -356.3863336598748,-204.9829940143063 -353.88633365987374,-204.31312103316904" stroke="#00f" stroke-linecap="round" stroke-linejoin="round"/><polyline fill="none" points="173.89867117424436,324.2142682681562 176.39867117427502,323.54439528712936 178.22879819324925,321.71426826823597 178.89867117438652,319.2142682682349 178.22879819335967,316.7142682682042 176.39867117446627,314.88414124922997 173.8986711744652,314.21426826809267 171.39867117443453,314.8841412491195 169.5685441554603,316.7142682680129 168.89867117432303,319.214268268014 169.56854415534988,321.7142682680447 171.39867117424328,323.5443952870189 173.89867117424436,324.2142682681562" stroke="#00f" stroke-linecap="round" stroke-linejoin="round"/><polyline fill="none" points="-335.4331102502095,-92.2563140346208 -332.9331102501788,-92.92618701564764 -331.1029832312046,-94.75631403454103 -330.4331102500673,-97.25631403454211 -331.10298323109413,-99.75631403457278 -332.9331102499875,-101.58644105354702 -335.4331102499886,-102.2563140346843 -337.9331102500193,-101.58644105365745 -339.7632372689935,-99.75631403476406 -340.4331102501308,-97.25631403476298 -339.76323726910397,-94.7563140347323 -337.9331102502106,-92.92618701575806 -335.4331102502095,-92.25631403462077" stroke="#00f" stroke-linecap="round" stroke-linejoin="round"/><polyline fill="none" points="66.95396014004955,139.59272621555158 69.45396014008023,138.92285323452475 71.28408715905447,137.09272621563136 71.95396014019175,134.59272621563028 71.28408715916491,132.0927262155996 69.45396014027152,130.26259919662536 66.95396014027044,129.59272621548809 64.45396014023976,130.2625991965149 62.62383312126551,132.0927262154083 61.95396014012823,134.59272621540939 62.62383312115507,137.09272621544005 64.45396014004847,138.9228532344143 66.95396014004955,139.59272621555158" stroke="#ffa500" stroke-linecap="round" stroke-linejoin="round"/><polyline fill="none" points="-293.4381493731079,-102.2275117796916 -290.9381493730772,-102.89738476071844 -289.10802235410296,-104.72751177961183 -288.43814937296565,-107.22751177961291 -289.1080223539925,-109.72751177964359 -290.9381493728859,-111.55763879861783 -293.438149372887,-112.22751177975512 -295.9381493729177,-111.55763879872828 -297.7682763918919,-109.72751177983488 -298.4381493730292,-107.2275117798338 -297.76827639200235,-104.72751177980312 -295.93814937310896,-102.89738476082887 -293.4381493731079,-102.22751177969158" stroke="#ffa500" stroke-linecap="round" stroke-linejoin="round"/><polyline fill="none" points="5.454069026957637,-176.86230801196837 7.954069026988314,-177.5321809929952 9.784196045962561,-179.3623080118886 10.45406902709985,-181.86230801188967 9.784196046073014,-184.36230801192033 7.9540690271796235,-186.1924350308946 5.454069027178541,-186.86230801203186 2.9540690271478622,-186.19243503100503 1.1239420081736147,-184.36230801211164 0.4540690270363257,-181.86230801211056 1.1239420080631604,-179.3623080120799 2.95406902695655,-177.53218099310564 5.454069026957633,-176.86230801196834" stroke="#ffa500" stroke-linecap="round" stroke-linejoin="round"/><polyline fill="none" points="-389.4803100663738,21.407495142562855 -386.9803100663431,20.73762216153602 -385.1501830473689,18.90749514264263 -384.4803100662316,16.407495142641547 -385.15018304725845,13.907495142610868 -386.98031006615184,12.077368123636619 -389.4803100661529,11.407495142499329 -391.9803100661836,12.077368123526162 -393.81043708515784,13.90749514241955 -394.48031006629515,16.407495142420633 -393.8104370852683,18.907495142451314 -391.9803100663749,20.737622161425563 -389.4803100663738,21.407495142562855" stroke="#ffa500" stroke-linecap="round" stroke-linejoin="round"/><polyline fill="none" points="-98.28499005147887,-151.4970885037585 -95.78499005144819,-152.16696148478533 -93.95486303247394,-153.99708850367873 -93.28499005133665,-156.4970885036798 -93.95486303236348,-158.99708850371047 -95.78499005125687,-160.82721552268472 -98.28499005125795,-161.49708850382203 -100.78499005128863,-160.8272155227952 -102.61511707026288,-158.9970885039018 -103.28499005140017,-156.49708850390073 -102.61511707037334,-153.99708850387003 -100.78499005147995,-152.16696148489578 -98.28499005147887,-151.49708850375848" stroke="#ffa500" stroke-linecap="round" stroke-linejoin="round"/><polyline fill="none" points="-421.7997288283977,-146.7098685451828 -419.299728828367,-147.3797415262096 -417.4696018093927,-149.209868545103 -416.7997288282554,-151.7098685451041 -417.46960180928227,-154.20986854513478 -419.29972882817566,-156.03999556410903 -421.79972882817674,-156.70986854524634 -424.29972882820744,-156.0399955642195 -426.1298558471817,-154.20986854532612 -426.799728828319,-151.70986854532504 -426.1298558472922,-149.20986854529434 -424.2997288283988,-147.3797415263201 -421.79972882839775,-146.7098685451828" stroke="#008000" stroke-linecap="round" stroke-linejoin="round"/><polyline fill="none" points="-249.67804163314088,-2.0209477399286513 -247.17804163311018,-2.6908207209554784 -245.34791461413593,-4.5209477398488636 -244.67804163299863,-7.020947739849946 -245.34791461402546,-9.52094773988063 -247.17804163291885,-11.351074758854885 -249.67804163291993,-12.020947739992184 -252.17804163295062,-11.351074758965359 -254.00816865192488,-9.520947740071975 -254.67804163306218,-7.020947740070892 -254.00816865203535,-4.520947740040208 -252.17804163314196,-2.6908207210659505 -249.67804163314088,-2.0209477399286495" stroke="#00f" stroke-linecap="round" stroke-linejoin="round"/><polyline fill="none" points="-217.75061855702916,-90.4764477472643 -215.25061855699846,-91.14632072829113 -213.4204915380242,-92.97644774718451 -212.7506185568869,-95.47644774718559 -213.42049153791373,-97.97644774721627 -215.25061855680713,-99.80657476619052 -217.7506185568082,-100.47644774732782 -220.2506185568389,-99.806574766301 -222.08074557581315,-97.97644774740762 -222.75061855695046,-95.47644774740654 -222.08074557592363,-92.97644774737586 -220.25061855703024,-91.14632072840159 -217.75061855702916,-90.47644774726429" stroke="#ffa500" stroke-linecap="round" stroke-linejoin="round"/><polyline fill="none" points="17.88361745446599,115.92676651397336 20.383617454496676,115.25689353294653 22.213744473470936,113.42676651405316 22.88361745460824,110.92676651405208 22.213744473581418,108.4267665140214 20.383617454688036,106.59663949504713 17.883617454686952,105.92676651390983 15.383617454656266,106.59663949493665 13.553490435682004,108.42676651383003 12.883617454544698,110.92676651383111 13.553490435571518,113.42676651386179 15.3836174544649,115.25689353283606 17.883617454465984,115.92676651397336" stroke="#00f" stroke-linecap="round" stroke-linejoin="round"/><polyline fill="none" points="-506.3324527224163,-157.02619351193135 -503.8324527223856,-157.69606649295818 -502.0023257034113,-159.52619351185157 -501.332452722274,-162.02619351185265 -502.0023257033008,-164.52619351188335 -503.8324527221942,-166.3563205308576 -506.3324527221953,-167.0261935119949 -508.832452722226,-166.35632053096808 -510.66257974120026,-164.52619351207468 -511.33245272233756,-162.0261935120736 -510.66257974131076,-159.5261935120429 -508.8324527224174,-157.69606649306866 -506.3324527224163,-157.02619351193135" stroke="#ffa500" stroke-linecap="round" stroke-linejoin="round"/><polyline fill="none" points="-385.6736191982414,1.0021163713857755 -383.1736191982107,0.33224339035895767 -381.3434921792364,-1.4978836285344224 -380.6736191980991,-3.9978836285355053 -381.3434921791259,-6.4978836285661945 -383.1736191980193,-8.328010647540461 -385.6736191980204,-8.997883628677771 -388.1736191980511,-8.328010647650954 -390.00374621702537,-6.497883628757575 -390.67361919816267,-3.997883628756491 -390.00374621713587,-1.4978836287258006 -388.1736191982425,0.33224339024846694 -385.6736191982414,1.0021163713857788" stroke="#ffa500" stroke-linecap="round" stroke-linejoin="round"/><polyline fill="none" points="-303.56320449356775,5.994135156882896 -301.06320449353706,5.324262175856081 -299.2330774745628,3.494135156962702 -298.5632044934255,0.9941351569616184 -299.2330774744523,-1.505864843069073 -301.06320449334567,-3.3359918620433424 -303.56320449334675,-4.005864843180656 -306.06320449337744,-3.3359918621538416 -307.8933315123517,-1.5058648432604633 -308.563204493489,0.9941351567406203 -307.8933315124622,3.4941351567713124 -306.06320449356883,5.324262175745583 -303.56320449356775,5.994135156882898" stroke="#ffa500" stroke-linecap="round" stroke-linejoin="round"/><polyline fill="none" points="-346.3340355639592,-165.49061564959473 -343.8340355639285,-166.16048863062153 -342.00390854495424,-167.9906156495149 -341.33403556381694,-170.49061564951597 -342.00390854484374,-172.99061564954667 -343.83403556373713,-174.82074266852095 -346.3340355637382,-175.49061564965825 -348.8340355637689,-174.82074266863145 -350.6641625827432,-172.9906156497381 -351.3340355638805,-170.490615649737 -350.6641625828537,-167.9906156497063 -348.8340355639603,-166.16048863073203 -346.3340355639592,-165.4906156495947" stroke="#008000" stroke-linecap="round" stroke-linejoin="round"/><polyline fill="none" points="-468.94011196505147,-187.22008477275375 -466.4401119650208,-187.88995775378055 -464.6099849460465,-189.7200847726739 -463.9401119649092,-192.220084772675 -464.609984945936,-194.7200847727057 -466.4401119648294,-196.55021179167997 -468.94011196483046,-197.2200847728173 -471.44011196486116,-196.5502117917905 -473.27023898383544,-194.72008477289714 -473.94011196497274,-192.22008477289606 -473.27023898394594,-189.72008477286536 -471.44011196505255,-187.88995775389108 -468.94011196505147,-187.22008477275375" stroke="#ffa500" stroke-linecap="round" stroke-linejoin="round"/><polyline fill="none" points="-376.0898338392443,-199.68500611625242 -373.5898338392136,-200.35487909727922 -371.75970682023933,-202.1850061161726 -371.089833839102,-204.68500611617367 -371.7597068201288,-207.18500611620436 -373.5898338390222,-209.01513313517864 -376.0898338390233,-209.68500611631598 -378.589833839054,-209.01513313528918 -380.4199608580283,-207.1850061163958 -381.0898338391656,-204.68500611639473 -380.4199608581388,-202.18500611636404 -378.5898338392454,-200.35487909738976 -376.0898338392443,-199.68500611625242" stroke="#00f" stroke-linecap="round" stroke-linejoin="round"/><polyline fill="none" points="-123.11495281267054,-220.41780390624683 -120.61495281263984,-221.08767688727363 -118.78482579366556,-222.917803906167 -118.11495281252824,-225.41780390616807 -118.78482579355504,-227.91780390619877 -120.61495281244842,-229.74793092517305 -123.1149528124495,-230.41780390631038 -125.6149528124802,-229.74793092528358 -127.44507983145448,-227.91780390639022 -128.1149528125918,-225.41780390638914 -127.44507983156501,-222.91780390635844 -125.61495281267163,-221.08767688738416 -123.11495281267055,-220.41780390624683" stroke="#00f" stroke-linecap="round" stroke-linejoin="round"/><polyline fill="none" points="-454.0068106218898,-157.92553411088218 -451.50681062185913,-158.59540709190898 -449.67668360288485,-160.42553411080235 -449.00681062174755,-162.92553411080343 -449.67668360277435,-165.42553411083412 -451.50681062166774,-167.2556611298084 -454.0068106216688,-167.92553411094573 -456.5068106216995,-167.25566112991893 -458.3369376406738,-165.42553411102557 -459.0068106218111,-162.9255341110245 -458.3369376407843,-160.4255341109938 -456.5068106218909,-158.5954070920195 -454.0068106218898,-157.92553411088218" stroke="#00f" stroke-linecap="round" stroke-linejoin="round"/><polyline fill="none" points="-26.952091339834702,103.66212300291366 -24.452091339804003,102.99225002188686 -22.621964320829722,101.1621230029935 -21.952091339692394,98.66212300299242 -22.621964320719197,96.16212300296172 -24.45209133961257,94.33199598398744 -26.952091339613652,93.66212300285011 -29.45209133964435,94.33199598387691 -31.282218358618636,96.16212300277027 -31.952091339755967,98.66212300277135 -31.282218358729168,101.16212300280205 -29.4520913398358,102.99225002177633 -26.952091339834716,103.66212300291366" stroke="#ffa500" stroke-linecap="round" stroke-linejoin="round"/><polyline fill="none" points="-399.69148350693706,-97.50085197851347 -397.19148350690637,-98.17072495954027 -395.3613564879321,-100.00085197843363 -394.6914835067948,-102.50085197843471 -395.3613564878216,-105.0008519784654 -397.191483506715,-106.83097899743969 -399.69148350671605,-107.50085197857702 -402.19148350674675,-106.83097899755022 -404.02161052572103,-105.00085197865685 -404.6914835068584,-102.50085197865577 -404.0216105258316,-100.00085197862508 -402.1914835069382,-98.1707249596508 -399.6914835069371,-97.50085197851347" stroke="#008000" stroke-linecap="round" stroke-linejoin="round"/><polyline fill="none" points="-153.81753563026533,-34.91138500660224 -151.31753563023463,-35.58125798762904 -149.48740861126035,-37.41138500652241 -148.81753563012302,-39.91138500652349 -149.48740861114982,-42.41138500655419 -151.31753563004318,-44.24151202552848 -153.81753563004426,-44.91138500666581 -156.31753563007496,-44.24151202563902 -158.14766264904924,-42.411385006745654 -158.81753563018657,-39.911385006744574 -158.14766264915977,-37.41138500671387 -156.3175356302664,-35.58125798773958 -153.81753563026533,-34.911385006602245" stroke="#ffa500" stroke-linecap="round" stroke-linejoin="round"/><polyline fill="none" points="73.21293767484475,-277.55153560766746 75.71293767487545,-278.22140858869426 77.54306469384974,-280.05153560758765 78.21293767498707,-282.55153560758873 77.54306469396028,-285.0515356076194 75.71293767506691,-286.8816626265937 73.21293767506583,-287.55153560773107 70.71293767503512,-286.88166262670427 68.88281065606083,-285.0515356078109 68.2129376749235,-282.5515356078098 68.8828106559503,-280.0515356077791 70.71293767484366,-278.2214085888048 73.21293767484474,-277.55153560766746" stroke="#ffa500" stroke-linecap="round" stroke-linejoin="round"/><polyline fill="none" points="142.70662578444734,322.8197805571324 145.20662578447804,322.1499075761056 147.03675280345232,320.3197805572122 147.70662578458965,317.8197805572111 147.03675280356285,315.3197805571804 145.20662578466948,313.48965353820614 142.7066257846684,312.8197805570688 140.2066257846377,313.4896535380956 138.37649876566343,315.3197805569889 137.7066257845261,317.81978055699 138.3764987655529,320.3197805570207 140.20662578444626,322.149907575995 142.70662578444734,322.81978055713233" stroke="#ffa500" stroke-linecap="round" stroke-linejoin="round"/><polyline fill="none" points="215.57937743749432,-197.90980680177202 218.079377437525,-198.57967978279882 219.9095044564993,-200.40980680169218 220.57937743763662,-202.90980680169326 219.90950445660982,-205.40980680172396 218.07937743771646,-207.23993382069824 215.57937743771538,-207.90980680183557 213.07937743768468,-207.23993382080877 211.2492504187104,-205.4098068019154 210.57937743757307,-202.90980680191433 211.24925041859987,-200.40980680188363 213.07937743749324,-198.57967978290932 215.57937743749432,-197.909806801772" stroke="#ffa500" stroke-linecap="round" stroke-linejoin="round"/><polyline fill="none" points="-99.53017323851037,-225.05292573999904 -97.03017323847966,-225.72279872102584 -95.20004621950537,-227.5529257399192 -94.53017323836802,-230.05292573992028 -95.2000462193948,-232.55292573995098 -97.03017323828817,-234.3830527589253 -99.53017323828925,-235.05292574006262 -102.03017323831996,-234.38305275903582 -103.86030025729426,-232.55292574014246 -104.5301732384316,-230.05292574014138 -103.86030025740482,-227.55292574011068 -102.03017323851145,-225.72279872113637 -99.53017323851037,-225.052925739999" stroke="#ffa500" stroke-linecap="round" stroke-linejoin="round"/><polyline fill="none" points="-127.44120208566387,-191.18304415013486 -124.94120208563317,-191.85291713116163 -123.11107506665887,-193.683044150055 -122.44120208552152,-196.18304415005608 -123.11107506654831,-198.68304415008677 -124.94120208544167,-200.51317116906108 -127.44120208544275,-201.18304415019844 -129.94120208547346,-200.51317116917167 -131.77132910444777,-198.6830441502783 -132.44120208558513,-196.18304415027723 -131.77132910455836,-193.68304415024653 -129.941202085665,-191.85291713127222 -127.44120208566392,-191.18304415013486" stroke="#00f" stroke-linecap="round" stroke-linejoin="round"/><polyline fill="none" points="143.22554103536893,-190.04008444104664 145.72554103539966,-190.70995742207342 147.55566805437397,-192.54008444096678 148.22554103551133,-195.04008444096786 147.55566805448456,-197.54008444099856 145.7255410355912,-199.37021145997286 143.2255410355901,-200.04008444111022 140.7255410355594,-199.37021146008345 138.89541401658508,-197.5400844411901 138.22554103544772,-195.040084441189 138.8954140164745,-192.54008444115829 140.72554103536785,-190.70995742218398 143.22554103536893,-190.04008444104662" stroke="#00f" stroke-linecap="round" stroke-linejoin="round"/><polyline fill="none" points="-485.6316960927484,-150.89052705421153 -483.13169609271773,-151.5604000352383 -481.30156907374345,-153.39052705413167 -480.6316960926061,-155.89052705413275 -481.3015690736329,-158.39052705416347 -483.1316960925262,-160.22065407313778 -485.6316960925273,-160.89052705427514 -488.131696092558,-160.22065407324837 -489.9618231115323,-158.390527054355 -490.63169609266964,-155.89052705435392 -489.96182311164284,-153.3905270543232 -488.1316960927495,-151.5604000353489 -485.6316960927484,-150.89052705421153" stroke="#00f" stroke-linecap="round" stroke-linejoin="round"/><polyline fill="none" points="34.29243319471882,-200.5026980707533 36.79243319474953,-201.17257105178007 38.62256021372383,-203.00269807067343 39.29243319486118,-205.5026980706745 38.622560213834404,-208.00269807070524 36.79243319494105,-209.83282508967955 34.29243319493997,-210.5026980708169 31.792433194909254,-209.83282508979013 29.96230617593495,-208.00269807089677 29.292433194797592,-205.5026980708957 29.96230617582437,-203.00269807086497 31.792433194717727,-201.17257105189066 34.29243319471881,-200.5026980707533" stroke="#00f" stroke-linecap="round" stroke-linejoin="round"/><polyline fill="none" points="-450.70654400409916,-199.56516923371666 -448.20654400406846,-200.23504221474343 -446.3764169850942,-202.0651692336368 -445.7065440039568,-204.56516923363787 -446.3764169849836,-207.0651692336686 -448.20654400387696,-208.8952962526429 -450.70654400387804,-209.56516923378027 -453.20654400390873,-208.8952962527535 -455.036671022883,-207.06516923386013 -455.7065440040204,-204.56516923385905 -455.0366710229936,-202.06516923382833 -453.20654400410024,-200.23504221485402 -450.70654400409916,-199.56516923371666" stroke="#ffa500" stroke-linecap="round" stroke-linejoin="round"/><polyline fill="none" points="-320.51662017550655,57.286068947188454 -318.01662017547585,56.61619596616168 -316.1864931565015,54.786068947268326 -315.51662017536415,52.28606894726724 -316.18649315639095,49.78606894723652 -318.0166201752843,47.95594192826221 -320.51662017528537,47.28606894712485 -323.01662017531606,47.955941928151624 -324.8467471942904,49.78606894704498 -325.51662017542776,52.28606894704606 -324.84674719440096,54.78606894707678 -323.0166201755076,56.61619596605109 -320.51662017550655,57.28606894718845" stroke="#ffa500" stroke-linecap="round" stroke-linejoin="round"/><polyline fill="none" points="-361.0868267951455,-94.9103645454255 -358.5868267951148,-95.58023752645227 -356.75669977614047,-97.41036454534562 -356.0868267950031,-99.9103645453467 -356.7566997760299,-102.4103645453774 -358.58682679492324,-104.24049156435171 -361.0868267949243,-104.91036454548907 -363.586826794955,-104.2404915644623 -365.41695381392935,-102.41036454556895 -366.0868267950667,-99.91036454556787 -365.41695381403997,-97.41036454553715 -363.58682679514664,-95.58023752656284 -361.08682679514556,-94.91036454542548" stroke="#00f" stroke-linecap="round" stroke-linejoin="round"/><polyline fill="none" points="-402.27094138789744,-142.03870207426525 -399.77094138786674,-142.70857505529202 -397.9408143688924,-144.53870207418538 -397.27094138775504,-147.03870207418646 -397.9408143687818,-149.53870207421718 -399.7709413876751,-151.3688290931915 -402.2709413876762,-152.03870207432885 -404.7709413877069,-151.36882909330208 -406.60106840668124,-149.53870207440872 -407.2709413878186,-147.03870207440764 -406.60106840679185,-144.5387020743769 -404.7709413878985,-142.7085750554026 -402.27094138789744,-142.03870207426525" stroke="#008000" stroke-linecap="round" stroke-linejoin="round"/><polyline fill="none" points="140.78264289072618,-147.03966641541507 143.2826428907569,-147.70953939644184 145.1127699097312,-149.5396664153352 145.78264289086857,-152.03966641533628 145.1127699098418,-154.539666415367 143.28264289094844,-156.36979343434132 140.78264289094736,-157.03966641547868 138.28264289091663,-156.3697934344519 136.45251587194232,-154.53966641555854 135.78264289080496,-152.03966641555746 136.45251587183174,-149.53966641552674 138.2826428907251,-147.70953939655243 140.78264289072618,-147.03966641541507" stroke="#ffa500" stroke-linecap="round" stroke-linejoin="round"/><polyline fill="none" points="83.6174107472838,-257.90069094272735 86.11741074731452,-258.5705639237541 87.94753776628885,-260.40069094264743 88.61741074742622,-262.9006909426485 87.94753776639945,-265.4006909426792 86.1174107475061,-267.23081796165354 83.61741074750502,-267.9006909427909 81.1174107474743,-267.23081796176416 79.28728372849997,-265.4006909428708 78.6174107473626,-262.90069094286974 79.28728372838935,-260.40069094283905 81.1174107472827,-258.5705639238647 83.61741074728378,-257.90069094272735" stroke="#ffa500" stroke-linecap="round" stroke-linejoin="round"/><polyline fill="none" points="-412.2699812137702,-191.6649324077373 -409.7699812137395,-192.33480538876407 -407.9398541947652,-194.1649324076574 -407.26998121362783,-196.66493240765848 -407.9398541946546,-199.1649324076892 -409.7699812135479,-200.99505942666352 -412.269981213549,-201.6649324078009 -414.76998121357974,-200.99505942677413 -416.6001082325541,-199.1649324078808 -417.26998121369144,-196.66493240787972 -416.6001082326647,-194.164932407849 -414.76998121377136,-192.33480538887466 -412.2699812137703,-191.66493240773727" stroke="#00f" stroke-linecap="round" stroke-linejoin="round"/><polyline fill="none" points="-82.61540834752554,-211.34936179346195 -80.11540834749482,-212.01923477448872 -78.2852813285205,-213.84936179338206 -77.61540834738312,-216.34936179338314 -78.28528132840988,-218.84936179341386 -80.11540834730323,-220.6794888123882 -82.61540834730431,-221.3493617935256 -85.11540834733503,-220.67948881249882 -86.94553536630936,-218.84936179360548 -87.61540834744673,-216.3493617936044 -86.94553536641997,-213.84936179357368 -85.11540834752662,-212.01923477459934 -82.61540834752554,-211.34936179346195" stroke="#00f" stroke-linecap="round" stroke-linejoin="round"/><polyline fill="none" points="-88.71348150667602,-173.01416819431205 -86.2134815066453,-173.68404117533882 -84.38335448767097,-175.51416819423216 -83.7134815065336,-178.01416819423324 -84.38335448756035,-180.51416819426396 -86.2134815064537,-182.3442952132383 -88.71348150645478,-183.01416819437569 -91.21348150648551,-182.34429521334891 -93.04360852545983,-180.51416819445558 -93.71348150659722,-178.0141681944545 -93.04360852557046,-175.51416819442377 -91.21348150667711,-173.68404117544944 -88.71348150667603,-173.01416819431205" stroke="#ffa500" stroke-linecap="round" stroke-linejoin="round"/><polyline fill="none" points="-303.3231229826104,42.13109344275854 -300.82312298257966,41.461220461731784 -298.9929959636053,39.63109344283844 -298.32312298246796,37.131093442837354 -298.9929959634947,34.63109344280663 -300.82312298238804,32.8009664238323 -303.3231229823891,32.13109344269492 -305.8231229824199,32.800966423721675 -307.6532500013942,34.63109344261502 -308.3231229825316,37.131093442616105 -307.65325000150483,39.631093442646836 -305.8231229826115,41.46122046162117 -303.3231229826104,42.131093442758555" stroke="#ffa500" stroke-linecap="round" stroke-linejoin="round"/><polyline fill="none" points="-418.96237327729096,-172.34794127953575 -416.4623732772602,-173.0178142605625 -414.6322462582859,-174.84794127945582 -413.9623732771485,-177.3479412794569 -414.63224625817526,-179.84794127948763 -416.4623732770686,-181.67806829846197 -418.9623732770697,-182.34794127959935 -421.4623732771004,-181.6780682985726 -423.29250029607476,-179.84794127967928 -423.9623732772121,-177.3479412796782 -423.2925002961854,-174.84794127964747 -421.46237327729204,-173.01781426067313 -418.96237327729096,-172.34794127953575" stroke="#008000" stroke-linecap="round" stroke-linejoin="round"/><polyline fill="none" points="-301.0876343168277,-83.76464506439758 -298.58763431679694,-84.43451804542434 -296.7575072978226,-86.26464506431768 -296.0876343166852,-88.76464506431876 -296.7575072977119,-91.2646450643495 -298.58763431660526,-93.09477208332383 -301.08763431660634,-93.76464506446122 -303.5876343166371,-93.09477208343446 -305.41776133561143,-91.26464506454113 -306.08763431674885,-88.76464506454005 -305.4177613357221,-86.26464506450931 -303.58763431682877,-84.43451804553497 -301.0876343168277,-83.76464506439758" stroke="#ffa500" stroke-linecap="round" stroke-linejoin="round"/><polyline fill="none" points="-340.6470220840753,-188.34481533406307 -338.1470220840445,-189.0146883150898 -336.3168950650702,-190.84481533398315 -335.64702208393277,-193.34481533398423 -336.3168950649595,-195.84481533401495 -338.14702208385285,-197.6749423529893 -340.6470220838539,-198.34481533412668 -343.1470220838847,-197.67494235309994 -344.977149102859,-195.8448153342066 -345.64702208399643,-193.34481533420552 -344.9771491029697,-190.8448153341748 -343.14702208407635,-189.01468831520046 -340.6470220840753,-188.34481533406307" stroke="#ffa500" stroke-linecap="round" stroke-linejoin="round"/><polyline fill="none" points="-360.7862802466375,-184.46819125819206 -358.28628024660674,-185.1380642392188 -356.4561532276324,-186.96819125811214 -355.786280246495,-189.46819125811322 -356.4561532275217,-191.96819125814395 -358.28628024641506,-193.79831827711828 -360.78628024641614,-194.46819125825567 -363.2862802464469,-193.79831827722893 -365.11640726542123,-191.9681912583356 -365.78628024655865,-189.4681912583345 -365.1164072655319,-186.9681912583038 -363.28628024663857,-185.13806423932945 -360.7862802466375,-184.46819125819206" stroke="#00f" stroke-linecap="round" stroke-linejoin="round"/><polyline fill="none" points="160.5098328308186,309.3626722670153 163.00983283084932,308.69279928598854 164.83995984982366,306.8626722670952 165.50983283096105,304.3626722670941 164.8399598499343,301.8626722670634 163.00983283104097,300.03254524808904 160.5098328310399,299.3626722669516 158.00983283100916,300.03254524797836 156.17970581203483,301.8626722668717 155.50983283089744,304.3626722668728 156.17970581192418,306.86267226690353 158.00983283081752,308.69279928587787 160.5098328308186,309.3626722670153" stroke="#ffa500" stroke-linecap="round" stroke-linejoin="round"/><polyline fill="none" points="-317.7808468213341,-71.55237117571025 -315.2808468213033,-72.22224415673699 -313.450719802329,-74.05237117563033 -312.7808468211916,-76.55237117563141 -313.4507198022183,-79.05237117566215 -315.28084682111165,-80.8824981946365 -317.78084682111273,-81.5523711757739 -320.2808468211435,-80.88249819474716 -322.1109738401178,-79.05237117585382 -322.78084682125524,-76.55237117585274 -322.1109738402285,-74.052371175822 -320.28084682133516,-72.22224415684765 -317.7808468213341,-71.55237117571025" stroke="#ffa500" stroke-linecap="round" stroke-linejoin="round"/></svg>