<?xml version="1.0" ?><!DOCTYPE svg  PUBLIC '-//W3C//DTD SVG 1.1//EN'  'http://www.w3.org/Graphics/SVG/1.1/DTD/svg11.dtd'><svg height="653.000" viewBox="-522.000 -298.000 765.000 653.000" width="765.000" xmlns="http://www.w3.org/2000/svg"><line fill="none" stroke="none" stroke-linecap="round" stroke-width="2.0" x1="0.0" x2="0.0" y1="0.0" y2="0.0"/><polygon fill="none" fill-rule="evenodd" points="0.0,0.0 0.0,0.0 0.0,0.0" stroke-linejoin="round"/><polyline fill="none" points="-72.50627579121729,112.07696887313851 -70.00627579118655,111.40709589211177 -68.1761487722122,109.57696887321843 -67.5062757910748,107.07696887321735 -68.17614877210154,104.57696887318662 -70.00627579099488,102.74684185421226 -72.50627579099597,102.07696887307486 -75.00627579102671,102.7468418541016 -76.83640281000106,104.57696887299494 -77.50627579113846,107.07696887299602 -76.83640281011172,109.57696887302676 -75.00627579121839,111.40709589200111 -72.5062757912173,112.07696887313851" stroke="#ffa500" stroke-linecap="round" stroke-linejoin="round"/><polyline fill="none" points="-170.52274580478192,-16.475200567413072 -168.02274580475117,-17.145073548439807 -166.19261878577683,-18.975200567333143 -165.5227458046394,-21.47520056733423 -166.19261878566616,-23.975200567364972 -168.0227458045595,-25.805327586339324 -170.52274580456057,-26.47520056747673 -173.02274580459132,-25.805327586449994 -174.8528728235657,-23.975200567556662 -175.5227458047031,-21.475200567555575 -174.85287282367636,-18.975200567524833 -173.02274580478303,-17.14507354855048 -170.52274580478195,-16.475200567413072" stroke="#ffa500" stroke-linecap="round" stroke-linejoin="round"/><polyline fill="none" points="123.45896112197273,-109.94489162568792 125.95896112200347,-110.61476460671464 127.78908814097782,-112.44489162560798 128.45896112211523,-114.94489162560906 127.7890881410885,-117.4448916256398 125.95896112219516,-119.27501864461415 123.45896112219408,-119.94489162575157 120.95896112216334,-119.27501864472484 119.12883410318899,-117.4448916258315 118.45896112205158,-114.94489162583042 119.1288341030783,-112.44489162579968 120.95896112197164,-110.61476460682533 123.45896112197272,-109.94489162568792" stroke="#ffa500" stroke-linecap="round" stroke-linejoin="round"/><polyline fill="none" points="-319.20526133389797,-223.65271693159963 -316.7052613338672,-224.32258991262637 -314.8751343148929,-226.1527169315197 -314.20526133375546,-228.65271693152079 -314.8751343147822,-231.15271693155154 -316.70526133367554,-232.9828439505259 -319.2052613336766,-233.65271693166332 -321.70526133370737,-232.98284395063658 -323.5353883526817,-231.15271693174324 -324.2052613338191,-228.65271693174216 -323.5353883527924,-226.1527169317114 -321.70526133389905,-224.32258991273704 -319.20526133389797,-223.65271693159963" stroke="#ffa500" stroke-linecap="round" stroke-linejoin="round"/><polyline fill="none" points="-342.48930744273184,-131.21953292599764 -339.9893074427011,-131.88940590702438 -338.15918042372675,-133.71953292591772 -337.48930744258934,-136.2195329259188 -338.1591804236161,-138.71953292594955 -339.9893074425094,-140.54965994492392 -342.4893074425105,-141.21953292606133 -344.98930744254125,-140.54965994503462 -346.8194344615156,-138.71953292614128 -347.489307442653,-136.2195329261402 -346.81943446162626,-133.71953292610945 -344.9893074427329,-131.88940590713509 -342.48930744273184,-131.21953292599767" stroke="#00f" stroke-linecap="round" stroke-linejoin="round"/><polyline fill="none" points="-474.74679714745054,-170.00217400857056 -472.2467971474198,-170.67204698959728 -470.41667012844545,-172.5021740084906 -469.74679714730803,-175.0021740084917 -470.4166701283348,-177.50217400852245 -472.2467971472281,-179.3323010274968 -474.7467971472292,-180.00217400863423 -477.24679714725994,-179.3323010276075 -479.0769241662343,-177.50217400871418 -479.7467971473717,-175.0021740087131 -479.07692416634495,-172.50217400868235 -477.2467971474516,-170.67204698970798 -474.74679714745054,-170.00217400857056" stroke="#00f" stroke-linecap="round" stroke-linejoin="round"/><polyline fill="none" points="113.96286818514044,-200.836160831082 116.46286818517119,-201.5060338121087 118.29299520414556,-203.33616083100205 118.96286818528297,-205.83616083100313 118.29299520425624,-208.33616083103388 116.46286818536292,-210.16628785000825 113.96286818536183,-210.83616083114566 111.46286818533108,-210.16628785011895 109.63274116635671,-208.3361608312256 108.96286818521929,-205.83616083122453 109.63274116624602,-203.33616083119378 111.46286818513934,-201.5060338122194 113.96286818514044,-200.836160831082" stroke="#ffa500" stroke-linecap="round" stroke-linejoin="round"/><polyline fill="none" points="104.29832575755579,-275.0035936916931 106.79832575758654,-275.6734666727198 108.6284527765609,-277.50359369161316 109.29832575769832,-280.00359369161424 108.6284527766716,-282.503593691645 106.79832575777827,-284.3337207106194 104.29832575777718,-285.0035936917568 101.79832575774643,-284.33372071073006 99.96819873877206,-282.5035936918367 99.29832575763463,-280.00359369183565 99.96819873866134,-277.5035936918049 101.79832575755466,-275.6734666728305 104.29832575755576,-275.0035936916931" stroke="#ffa500" stroke-linecap="round" stroke-linejoin="round"/><polyline fill="none" points="-492.9918224781409,-175.5441918470533 -490.4918224781101,-176.21406482808 -488.66169545913573,-178.04419184697335 -487.9918224779983,-180.54419184697443 -488.66169545902505,-183.04419184700518 -490.4918224779184,-184.87431886597955 -492.99182247791947,-185.54419184711696 -495.4918224779502,-184.87431886609025 -497.3219494969246,-183.0441918471969 -497.99182247806203,-180.54419184719583 -497.3219494970353,-178.04419184716508 -495.49182247814196,-176.21406482819071 -492.9918224781409,-175.5441918470533" stroke="#00f" stroke-linecap="round" stroke-linejoin="round"/><polyline fill="none" points="-403.1419184621552,-56.40506621843684 -400.64191846212447,-57.074939199463564 -398.81179144315007,-58.90506621835689 -398.14191846201265,-61.40506621835798 -398.8117914430394,-63.90506621838873 -400.64191846193273,-65.7351932373631 -403.1419184619338,-66.40506621850054 -405.64191846196456,-65.73519323747382 -407.47204548093896,-63.905066218580494 -408.1419184620764,-61.40506621857941 -407.47204548104963,-58.905066218548654 -405.6419184621563,-57.07493919957428 -403.1419184621552,-56.40506621843685" stroke="#00f" stroke-linecap="round" stroke-linejoin="round"/><polyline fill="none" points="39.66101486044399,150.20952690851212 42.161014860474744,149.5396539274854 43.99114187944912,147.70952690859207 44.66101486058655,145.209526908591 43.991141879559834,142.70952690856024 42.16101486066651,140.87939988958587 39.661014860665425,140.20952690844842 37.16101486063467,140.87939988947514 35.3308878416603,142.70952690836847 34.66101486052287,145.20952690836955 35.33088784154958,147.7095269084003 37.161014860442904,149.53965392737467 39.66101486044399,150.20952690851212" stroke="#ffa500" stroke-linecap="round" stroke-linejoin="round"/><polyline fill="none" points="46.2753915226586,85.46223544897283 48.77539152268936,84.79236246794612 50.605518541663734,82.9622354490528 51.275391522801165,80.4622354490517 50.60551854177445,77.96223544902095 48.77539152288113,76.13210843004657 46.27539152288004,75.46223544890914 43.77539152284928,76.13210842993585 41.94526450387491,77.96223544882918 41.27539152273747,80.46223544883027 41.945264503764186,82.96223544886102 43.77539152265751,84.7923624678354 46.275391522658595,85.46223544897283" stroke="#ffa500" stroke-linecap="round" stroke-linejoin="round"/><polyline fill="none" points="-7.681597989219183,-212.29325507493058 -5.181597989188426,-212.9631280559573 -3.3514709702140486,-214.7932550748506 -2.6815979890766126,-217.2932550748517 -3.351470970103323,-219.79325507488244 -5.181597988996644,-221.6233820938568 -7.681597988997732,-222.29325507499425 -10.18159798902849,-221.62338209396754 -12.011725008002868,-219.79325507507423 -12.681597989140306,-217.29325507507315 -12.011725008113597,-214.7932550750424 -10.181597989220277,-212.96312805606803 -7.681597989219188,-212.29325507493058" stroke="#ffa500" stroke-linecap="round" stroke-linejoin="round"/><polyline fill="none" points="-248.94720946342613,-198.38277249069702 -246.44720946339538,-199.05264547172374 -244.617082444421,-200.88277249061704 -243.94720946328354,-203.38277249061812 -244.61708244431026,-205.88277249064888 -246.44720946320356,-207.71289950962327 -248.94720946320464,-208.38277249076071 -251.4472094632354,-207.712899509734 -253.2773364822098,-205.8827724908407 -253.94720946334724,-203.3827724908396 -253.27733648232052,-200.88277249080886 -251.4472094634272,-199.05264547183447 -248.94720946342613,-198.38277249069702" stroke="#00f" stroke-linecap="round" stroke-linejoin="round"/><polyline fill="none" points="149.17162806391318,343.4053059777531 151.67162806394393,342.7354329967264 153.50175508291832,340.90530597783305 154.17162806405577,338.405305977832 153.50175508302905,335.9053059778012 151.67162806413575,334.0751789588268 149.17162806413467,333.4053059776894 146.6716280641039,334.0751789587161 144.84150104512952,335.90530597760943 144.17162806399207,338.4053059776105 144.8415010450188,340.90530597764126 146.6716280639121,342.73543299661566 149.17162806391318,343.4053059777531" stroke="#ffa500" stroke-linecap="round" stroke-linejoin="round"/><polyline fill="none" points="-86.4385972116125,-240.68116917355326 -83.93859721158174,-241.35104215457997 -82.10847019260736,-243.18116917347328 -81.43859721146991,-245.68116917347436 -82.10847019249661,-248.1811691735051 -83.93859721138993,-250.0112961924795 -86.43859721139103,-250.68116917361695 -88.9385972114218,-250.01129619259024 -90.76872423039617,-248.18116917369693 -91.43859721153362,-245.68116917369585 -90.76872423050692,-243.1811691736651 -88.9385972116136,-241.3510421546907 -86.4385972116125,-240.68116917355326" stroke="#ffa500" stroke-linecap="round" stroke-linejoin="round"/><polyline fill="none" points="-386.1519321685583,-162.26215287149773 -383.65193216852754,-162.93202585252445 -381.82180514955314,-164.76215287141775 -381.15193216841567,-167.26215287141883 -381.82180514944235,-169.7621528714496 -383.6519321683357,-171.59227989042398 -386.15193216833677,-172.26215287156143 -388.6519321683675,-171.5922798905347 -390.4820591873419,-169.7621528716414 -391.1519321684794,-167.26215287164032 -390.4820591874527,-164.76215287160957 -388.65193216855937,-162.93202585263518 -386.1519321685583,-162.26215287149773" stroke="#008000" stroke-linecap="round" stroke-linejoin="round"/><polyline fill="none" points="-144.62051184377393,-67.36066927479581 -142.12051184374317,-68.03054225582251 -140.29038482476878,-69.86066927471583 -139.62051184363133,-72.36066927471693 -140.29038482465802,-74.86066927474769 -142.12051184355133,-76.69079629372209 -144.6205118435524,-77.36066927485953 -147.12051184358316,-76.69079629383283 -148.95063886255755,-74.86066927493953 -149.620511843695,-72.36066927493843 -148.9506388626683,-69.86066927490766 -147.120511843775,-68.03054225593327 -144.62051184377393,-67.36066927479582" stroke="#ffa500" stroke-linecap="round" stroke-linejoin="round"/><polyline fill="none" points="-440.03059110111764,-184.46646245225128 -437.5305911010869,-185.13633543327796 -435.7004640821125,-186.96646245217127 -435.030591100975,-189.46646245217235 -435.7004640820017,-191.96646245220313 -437.53059110089504,-193.79658947117753 -440.0305911008961,-194.46646245231497 -442.53059110092687,-193.79658947128829 -444.36071811990126,-191.96646245239498 -445.03059110103874,-189.4664624523939 -444.36071812001205,-186.96646245236312 -442.5305911011187,-185.13633543338872 -440.03059110111764,-184.46646245225128" stroke="#00f" stroke-linecap="round" stroke-linejoin="round"/><polyline fill="none" points="60.484795132457386,-261.0382708490432 62.98479513248815,-261.7081438300699 64.81492215146255,-263.53827084896324 65.48479513260001,-266.0382708489643 64.81492215157331,-268.53827084899507 62.98479513268,-270.36839786796946 60.48479513267891,-271.03827084910694 57.984795132648145,-270.36839786808025 56.15466811367375,-268.5382708491869 55.48479513253629,-266.03827084918584 56.154668113562984,-263.5382708491551 57.9847951324563,-261.7081438301807 60.484795132457386,-261.0382708490432" stroke="#00f" stroke-linecap="round" stroke-linejoin="round"/><polyline fill="none" points="-78.1451329850972,-154.1789392275623 -75.64513298506644,-154.84881220858898 -73.81500596609204,-156.6789392274823 -73.14513298495459,-159.17893922748337 -73.81500596598127,-161.67893922751415 -75.64513298487458,-163.50906624648854 -78.14513298487567,-164.178939227626 -80.64513298490644,-163.5090662465993 -82.47526000388083,-161.678939227706 -83.1451329850183,-159.17893922770492 -82.47526000399161,-156.67893922767414 -80.6451329850983,-154.84881220869974 -78.1451329850972,-154.17893922756227" stroke="#ffa500" stroke-linecap="round" stroke-linejoin="round"/><polyline fill="none" points="-327.749923011079,-112.46889276967903 -325.2499230110482,-113.13876575070572 -323.41979599207383,-114.96889276959902 -322.74992301093636,-117.46889276960012 -323.41979599196304,-119.96889276963088 -325.2499230108564,-121.79901978860528 -327.74992301085746,-122.46889276974274 -330.2499230108882,-121.79901978871605 -332.0800500298626,-119.96889276982274 -332.7499230110001,-117.46889276982165 -332.0800500299734,-114.96889276979088 -330.24992301108006,-113.13876575081649 -327.749923011079,-112.46889276967903" stroke="#ffa500" stroke-linecap="round" stroke-linejoin="round"/><polyline fill="none" points="-69.78989119611867,-227.27759023904719 -67.28989119608791,-227.94746322007387 -65.4597641771135,-229.77759023896718 -64.78989119597604,-232.27759023896826 -65.45976417700273,-234.77759023899904 -67.28989119589603,-236.60771725797343 -69.78989119589713,-237.2775902391109 -72.2898911959279,-236.60771725808422 -74.1200182149023,-234.7775902391909 -74.78989119603976,-232.27759023918983 -74.12001821501308,-229.77759023915905 -72.28989119611977,-227.94746322018466 -69.78989119611867,-227.27759023904719" stroke="#ffa500" stroke-linecap="round" stroke-linejoin="round"/><polyline fill="none" points="-318.5379999804603,-33.36750664948711 -316.03799998042956,-34.0373796305138 -314.20787296145517,-35.867506649407105 -313.5379999803177,-38.36750664940819 -314.2078729613444,-40.867506649438965 -316.03799998023766,-42.69763366841337 -318.53799998023874,-43.36750664955083 -321.0379999802695,-42.69763366852415 -322.8681269992439,-40.86750664963084 -323.53799998038136,-38.36750664962975 -322.8681269993547,-35.86750664959898 -321.0379999804614,-34.03737963062457 -318.5379999804603,-33.367506649487105" stroke="#00f" stroke-linecap="round" stroke-linejoin="round"/><polyline fill="none" points="112.94319693170674,-154.0276913124355 115.44319693173752,-154.6975642934622 117.27332395071193,-156.5276913123555 117.9431969318494,-159.02769131235658 117.27332395082271,-161.52769131238736 115.4431969319294,-163.35781833136176 112.94319693192831,-164.02769131249923 110.44319693189753,-163.35781833147254 108.61306991292312,-161.52769131257924 107.94319693178565,-159.02769131257816 108.61306991281234,-156.52769131254738 110.44319693170564,-154.69756429357298 112.94319693170674,-154.0276913124355" stroke="#00f" stroke-linecap="round" stroke-linejoin="round"/><polyline fill="none" points="171.29063240490544,-190.83825313962998 173.79063240493622,-191.50812612065667 175.6207594239106,-193.33825313954998 176.2906324050481,-195.83825313955106 175.6207594240214,-198.33825313958184 173.7906324051281,-200.16838015855626 171.290632405127,-200.83825313969373 168.79063240509623,-200.16838015866705 166.9605053861218,-198.33825313977374 166.29063240498434,-195.83825313977266 166.96050538601102,-193.33825313974188 168.79063240490433,-191.50812612076746 171.2906324049054,-190.83825313962998" stroke="#00f" stroke-linecap="round" stroke-linejoin="round"/><polyline fill="none" points="-16.81384235740909,83.58606962048962 -14.313842357378313,82.91619663946294 -12.483715338403902,81.08606962056963 -11.813842357266429,78.58606962056854 -12.483715338293107,76.08606962053776 -14.31384235718641,74.25594260156335 -16.8138423571875,73.58606962042587 -19.313842357218277,74.25594260145255 -21.14396937619269,76.08606962034585 -21.813842357330167,78.58606962034695 -21.143969376303488,81.08606962037773 -19.313842357410188,82.91619663935214 -16.813842357409097,83.58606962048961" stroke="#ffa500" stroke-linecap="round" stroke-linejoin="round"/><polyline fill="none" points="-135.67295398817944,-29.863902492823314 -133.17295398814866,-30.53377547384999 -131.34282696917424,-32.36390249274329 -130.67295398803677,-34.86390249274438 -131.34282696906345,-37.36390249277516 -133.17295398795676,-39.19402951174958 -135.67295398795784,-39.86390249288706 -138.17295398798862,-39.194029511860386 -140.00308100696304,-37.363902492967085 -140.67295398810052,-34.863902492966 -140.00308100707383,-32.36390249293522 -138.17295398818052,-30.5337754739608 -135.67295398817944,-29.86390249282332" stroke="#ffa500" stroke-linecap="round" stroke-linejoin="round"/><polyline fill="none" points="-228.74377665202525,-208.61763842308528 -226.24377665199447,-209.28751140411197 -224.41364963302004,-211.11763842300527 -223.74377665188257,-213.61763842300635 -224.41364963290926,-216.11763842303714 -226.24377665180256,-217.94776544201156 -228.74377665180364,-218.61763842314903 -231.24377665183442,-217.94776544212235 -233.07390367080885,-216.11763842322904 -233.74377665194632,-213.61763842322796 -233.07390367091963,-211.11763842319718 -231.24377665202633,-209.28751140422276 -228.74377665202525,-208.61763842308528" stroke="#ffa500" stroke-linecap="round" stroke-linejoin="round"/><polyline fill="none" points="-317.0886707143773,-51.514809862589324 -314.58867071434656,-52.184682843615995 -312.75854369537217,-54.014809862509296 -312.0886707142347,-56.51480986251038 -312.7585436952614,-59.01480986254116 -314.58867071415466,-60.84493688151558 -317.08867071415574,-61.51480986265306 -319.58867071418655,-60.84493688162639 -321.41879773316094,-59.01480986273309 -322.0886707142984,-56.514809862732 -321.41879773327173,-54.01480986270122 -319.58867071437845,-52.1846828437268 -317.0886707143774,-51.51480986258931" stroke="#ffa500" stroke-linecap="round" stroke-linejoin="round"/><polyline fill="none" points="-429.3627132882192,-104.66752404022078 -426.8627132881884,-105.33739702124745 -425.032586269214,-107.16752404014075 -424.3627132880765,-109.66752404014184 -425.0325862691032,-112.16752404017262 -426.8627132879965,-113.99765105914705 -429.36271328799756,-114.66752404028453 -431.8627132880284,-113.99765105925786 -433.69284030700277,-112.16752404036457 -434.36271328814024,-109.66752404036347 -433.69284030711356,-107.1675240403327 -431.8627132882203,-105.33739702135827 -429.3627132882192,-104.66752404022078" stroke="#ffa500" stroke-linecap="round" stroke-linejoin="round"/><polyline fill="none" points="-164.0725648631548,-210.37432822883062 -161.57256486312403,-211.04420120985728 -159.7424378441496,-212.87432822875058 -159.0725648630121,-215.37432822875166 -159.74243784403876,-217.87432822878245 -161.57256486293207,-219.70445524775687 -164.07256486293315,-220.37432822889437 -166.57256486296393,-219.7044552478677 -168.40269188193835,-217.8743282289744 -169.07256486307585,-215.37432822897333 -168.4026918820492,-212.87432822894255 -166.5725648631559,-211.04420120996812 -164.0725648631548,-210.37432822883062" stroke="#00f" stroke-linecap="round" stroke-linejoin="round"/><polyline fill="none" points="-469.0976468231042,-142.84186638547757 -466.5976468230734,-143.51173936650423 -464.7675198040989,-145.34186638539754 -464.09764682296145,-147.84186638539862 -464.76751980398814,-150.3418663854294 -466.5976468228814,-152.17199340440382 -469.0976468228825,-152.84186638554132 -471.5976468229133,-152.17199340451467 -473.42777384188776,-150.34186638562136 -474.09764682302523,-147.84186638562028 -473.42777384199854,-145.3418663855895 -471.59764682310526,-143.51173936661507 -469.0976468231042,-142.84186638547757" stroke="#ffa500" stroke-linecap="round" stroke-linejoin="round"/><polyline fill="none" points="-277.1181145121599,27.277513780801243 -274.61811451212907,26.607640799774583 -272.7879874931546,24.77751378088129 -272.11811451201714,22.2775137808802 -272.78798749304383,19.77751378084941 -274.6181145119371,17.947386761874984 -277.1181145119382,17.27751378073749 -279.618114511969,17.94738676176415 -281.44824153094345,19.777513780657443 -282.1181145120809,22.277513780658534 -281.44824153105424,24.777513780689322 -279.61811451216096,26.60764079966375 -277.1181145121599,27.277513780801243" stroke="#ffa500" stroke-linecap="round" stroke-linejoin="round"/><polyline fill="none" points="63.18878495364214,160.03409301760877 65.68878495367292,159.3642200365821 67.51891197264735,157.53409301768883 68.18878495378485,155.03409301768775 67.51891197275819,152.53409301765697 65.6887849538649,150.70396599868255 63.18878495386381,150.03409301754505 60.68878495383302,150.7039659985717 58.85865793485859,152.53409301746498 58.1887849537211,155.03409301746606 58.858657934747754,157.53409301749684 60.68878495364105,159.36422003647127 63.188784953642134,160.03409301760877" stroke="#ffa500" stroke-linecap="round" stroke-linejoin="round"/><polyline fill="none" points="-434.02740705241695,-132.6593124076367 -431.52740705238614,-133.32918538866335 -429.6972800334117,-135.15931240755663 -429.0274070522742,-137.6593124075577 -429.6972800333009,-140.1593124075885 -431.5274070521942,-141.9894394265629 -434.02740705219526,-142.6593124077004 -436.52740705222607,-141.98943942667375 -438.3575340712005,-140.15931240778048 -439.027407052338,-137.6593124077794 -438.35753407131136,-135.15931240774862 -436.5274070524181,-133.3291853887742 -434.027407052417,-132.6593124076367" stroke="#f00" stroke-linecap="round" stroke-linejoin="round"/><polyline fill="none" points="-67.49465204903373,-192.9848377174207 -64.99465204900294,-193.65471069844736 -63.1645250300285,-195.48483771734064 -62.494652048891,-197.98483771734172 -63.164525029917655,-200.4848377173725 -64.99465204881095,-202.31496473634692 -67.49465204881204,-202.98483771748442 -69.99465204884284,-202.31496473645777 -71.82477906781727,-200.4848377175645 -72.49465204895478,-197.9848377175634 -71.82477906792812,-195.48483771753263 -69.99465204903483,-193.6547106985582 -67.49465204903373,-192.9848377174207" stroke="#ffa500" stroke-linecap="round" stroke-linejoin="round"/><polyline fill="none" points="159.69131169637566,-172.719516961902 162.19131169640644,-173.38938994292866 164.02143871538087,-175.21951696182194 164.69131169651837,-177.71951696182302 164.0214387154917,-180.2195169618538 162.19131169659843,-182.04964398082822 159.69131169659735,-182.71951696196572 157.19131169656657,-182.04964398093907 155.36118467759212,-180.2195169620458 154.69131169645462,-177.7195169620447 155.36118467748128,-175.21951696201393 157.19131169637456,-173.38938994303948 159.69131169637564,-172.71951696190197" stroke="#ffa500" stroke-linecap="round" stroke-linejoin="round"/><polyline fill="none" points="226.11636441800707,-176.367560070488 228.61636441803785,-177.03743305151465 230.4464914370123,-178.86756007040793 231.1163644181498,-181.367560070409 230.44649143712314,-183.8675600704398 228.61636441822986,-185.69768708941425 226.11636441822878,-186.36756007055175 223.616364418198,-185.6976870895251 221.78623739922355,-183.8675600706318 221.11636441808605,-181.36756007063073 221.7862373991127,-178.86756007059995 223.616364418006,-177.0374330516255 226.11636441800707,-176.367560070488" stroke="#ffa500" stroke-linecap="round" stroke-linejoin="round"/><polyline fill="none" points="-414.6475304246289,-125.9634270210253 -412.1475304245981,-126.63330000205194 -410.3174034056236,-128.46342702094523 -409.6475304244861,-130.9634270209463 -410.3174034055127,-133.4634270209771 -412.147530424406,-135.29355403995154 -414.6475304244071,-135.96342702108905 -417.1475304244379,-135.2935540400624 -418.97765744341234,-133.4634270211691 -419.64753042454987,-130.96342702116803 -418.97765744352324,-128.46342702113725 -417.14753042462996,-126.63330000216281 -414.6475304246289,-125.9634270210253" stroke="#00f" stroke-linecap="round" stroke-linejoin="round"/><polyline fill="none" points="103.79877276991901,-249.62300556023672 106.2987727699498,-250.29287854126338 108.12889978892424,-252.12300556015666 108.79877277006176,-254.62300556015774 108.12889978903512,-257.1230055601885 106.29877277014184,-258.95313257916297 103.79877277014074,-259.6230055603005 101.29877277010995,-258.95313257927387 99.46864575113551,-257.1230055603806 98.798772769998,-254.6230055603795 99.46864575102464,-252.1230055603487 101.29877276991792,-250.29287854137425 103.79877276991901,-249.62300556023675" stroke="#ffa500" stroke-linecap="round" stroke-linejoin="round"/><polyline fill="none" points="-124.92386927074573,-165.36494600400871 -122.42386927071493,-166.03481898503537 -120.59374225174048,-167.86494600392865 -119.92386927060296,-170.36494600392973 -120.5937422516296,-172.86494600396054 -122.42386927052289,-174.695073022935 -124.92386927052398,-175.3649460040725 -127.42386927055477,-174.69507302304586 -129.25399628952923,-172.86494600415259 -129.92386927066673,-170.3649460041515 -129.2539962896401,-167.8649460041207 -127.42386927074682,-166.03481898514625 -124.92386927074573,-165.36494600400871" stroke="#ffa500" stroke-linecap="round" stroke-linejoin="round"/><polyline fill="none" points="51.18422594694236,107.169450767691 53.68422594697316,106.49957778666436 55.51435296594761,104.66945076777108 56.184225947085125,102.16945076776999 55.51435296605848,99.66945076773919 53.6842259471652,97.83932374876474 51.184225947164116,97.16945076762723 48.684225947133314,97.83932374865387 46.85409892815886,99.66945076754715 46.184225947021346,102.16945076754824 46.85409892804799,104.66945076757904 48.68422594694127,106.49957778655349 51.184225946942355,107.169450767691" stroke="#ffa500" stroke-linecap="round" stroke-linejoin="round"/><polyline fill="none" points="186.16621199467724,304.59544081555293 188.66621199470805,303.9255678345263 190.4963390136825,302.095440815633 191.16621199482003,299.59544081563195 190.4963390137934,297.09544081560114 188.66621199490012,295.2653137966267 186.16621199489904,294.59544081548916 183.66621199486823,295.2653137965158 181.83608497589378,297.09544081540906 181.16621199475625,299.59544081541014 181.83608497578288,302.09544081544095 183.66621199467616,303.9255678344154 186.16621199467724,304.59544081555293" stroke="#ffa500" stroke-linecap="round" stroke-linejoin="round"/><polyline fill="none" points="-339.1389414515847,-215.21187421190498 -336.6389414515539,-215.8817471929316 -334.8088144325794,-217.7118742118249 -334.1389414514419,-220.21187421182597 -334.8088144324685,-222.71187421185678 -336.6389414513618,-224.54200123083123 -339.1389414513629,-225.21187421196876 -341.6389414513937,-224.54200123094213 -343.46906847036814,-222.71187421204885 -344.1389414515057,-220.21187421204777 -343.46906847047904,-217.71187421201697 -341.63894145158577,-215.88174719304251 -339.1389414515847,-215.21187421190498" stroke="#00f" stroke-linecap="round" stroke-linejoin="round"/><polyline fill="none" points="-317.04385233259035,23.309104902678026 -314.54385233255954,22.63923192165139 -312.7137253135851,20.809104902758115 -312.04385233244756,18.309104902757028 -312.7137253134742,15.809104902726226 -314.54385233236746,13.97897788375177 -317.04385233236854,13.309104902614246 -319.54385233239935,13.97897788364088 -321.3739793513738,15.809104902534157 -322.04385233251134,18.309104902535246 -321.3739793514847,20.809104902566048 -319.5438523325914,22.639231921540507 -317.04385233259035,23.309104902678033" stroke="#00f" stroke-linecap="round" stroke-linejoin="round"/><polyline fill="none" points="71.32665237464522,116.54748902847923 73.82665237467603,115.8776160474526 75.65677939365048,114.04748902855933 76.32665237478801,111.54748902855823 75.65677939376138,109.04748902852742 73.8266523748681,107.21736200955297 71.32665237486701,106.54748902841544 68.8266523748362,107.21736200944207 66.99652535586173,109.04748902833535 66.3266523747242,111.54748902833644 66.99652535575083,114.04748902836725 68.82665237464411,115.87761604734172 71.3266523746452,116.54748902847925" stroke="#ffa500" stroke-linecap="round" stroke-linejoin="round"/><polyline fill="none" points="-398.2443098284997,-207.2112265628598 -395.7443098284689,-207.88109954388642 -393.91418280949443,-209.7112265627797 -393.2443098283569,-212.21122656278078 -393.91418280938353,-214.7112265628116 -395.7443098282768,-216.54135358178604 -398.2443098282779,-217.21122656292357 -400.7443098283087,-216.54135358189694 -402.57443684728315,-214.71122656300366 -403.2443098284207,-212.21122656300258 -402.57443684739405,-209.71122656297177 -400.7443098285008,-207.88109954399732 -398.2443098284997,-207.2112265628598" stroke="#ffa500" stroke-linecap="round" stroke-linejoin="round"/><polyline fill="none" points="-315.29660581104906,-192.6484562368985 -312.79660581101825,-193.31832921792514 -310.9664787920438,-195.14845623681842 -310.29660581090627,-197.6484562368195 -310.9664787919329,-200.1484562368503 -312.7966058108262,-201.97858325582476 -315.29660581082726,-202.6484562369623 -317.79660581085807,-201.97858325593566 -319.6267328298325,-200.14845623704238 -320.29660581097005,-197.6484562370413 -319.6267328299434,-195.1484562370105 -317.79660581105014,-193.31832921803604 -315.29660581104906,-192.6484562368985" stroke="#00f" stroke-linecap="round" stroke-linejoin="round"/><polyline fill="none" points="137.21590897930517,-125.60082673839977 139.71590897933598,-126.2706997194264 141.54603599831043,-128.10082673831968 142.21590897944796,-130.60082673832076 141.54603599842133,-133.10082673835157 139.71590897952805,-134.93095375732602 137.21590897952697,-135.60082673846355 134.71590897949616,-134.93095375743692 132.8857819605217,-133.10082673854365 132.21590897938418,-130.60082673854257 132.8857819604108,-128.10082673851176 134.7159089793041,-126.27069971953729 137.21590897930517,-125.60082673839975" stroke="#ffa500" stroke-linecap="round" stroke-linejoin="round"/><polyline fill="none" points="-191.79026956070237,-58.56571280525194 -189.29026956067156,-59.23558578627856 -187.46014254169708,-61.065712805171835 -186.79026956055955,-63.56571280517292 -187.46014254158618,-66.06571280520373 -189.29026956047946,-67.8958398241782 -191.79026956048054,-68.56571280531574 -194.29026956051135,-67.89583982428911 -196.12039657948583,-66.06571280539585 -196.79026956062336,-63.56571280539476 -196.12039657959673,-61.06571280536395 -194.29026956070345,-59.235585786389485 -191.79026956070237,-58.56571280525195" stroke="#00f" stroke-linecap="round" stroke-linejoin="round"/><polyline fill="none" points="-50.82772027818008,118.75535041455622 -48.32772027814927,118.0854774335296 -46.497593259174806,116.25535041463634 -45.82772027803726,113.75535041463525 -46.49759325906388,111.25535041460444 -48.327720277957155,109.42522339562997 -50.82772027795824,108.75535041449243 -53.32772027798905,109.42522339551904 -55.157847296963524,111.2553504144123 -55.82772027810107,113.7553504144134 -55.15784729707445,116.25535041444421 -53.327720278181175,118.08547743341867 -50.82772027818009,118.75535041455622" stroke="#ffa500" stroke-linecap="round" stroke-linejoin="round"/><polyline fill="none" points="-432.6220064672192,-208.81666145542994 -430.1220064671884,-209.48653443645657 -428.29187944821393,-211.31666145534984 -427.6220064670764,-213.81666145535092 -428.29187944810303,-216.31666145538173 -430.1220064669963,-218.1467884743562 -432.6220064669974,-218.81666145549377 -435.1220064670282,-218.14678847446714 -436.95213348600265,-216.31666145557386 -437.6220064671402,-213.81666145557278 -436.95213348611355,-211.31666145554198 -435.1220064672203,-209.4865344365675 -432.6220064672192,-208.81666145542994" stroke="#ffa500" stroke-linecap="round" stroke-linejoin="round"/><polyline fill="none" points="-233.84015391039296,-184.49855743424837 -231.34015391036215,-185.168430415275 -229.51002689138767,-186.99855743416828 -228.8401539102501,-189.49855743416936 -229.51002689127674,-191.99855743420017 -231.34015391017002,-193.82868445317465 -233.8401539101711,-194.4985574343122 -236.3401539102019,-193.8286844532856 -238.17028092917639,-191.99855743439232 -238.84015391031394,-189.49855743439124 -238.17028092928734,-186.99855743436044 -236.34015391039406,-185.16843041538596 -233.84015391039298,-184.4985574342484" stroke="#ffa500" stroke-linecap="round" stroke-linejoin="round"/><polyline fill="none" points="-363.83420965438216,-67.36283157615406 -361.33420965435135,-68.03270455718068 -359.5040826353769,-69.86283157607394 -358.8342096542394,-72.36283157607504 -359.504082635266,-74.86283157610585 -361.3342096541593,-76.69295859508033 -363.83420965416036,-77.36283157621787 -366.33420965419117,-76.69295859519126 -368.1643366731656,-74.86283157629799 -368.83420965430315,-72.3628315762969 -368.1643366732765,-69.86283157626609 -366.33420965438324,-68.03270455729161 -363.83420965438216,-67.36283157615405" stroke="#ffa500" stroke-linecap="round" stroke-linejoin="round"/><polyline fill="none" points="-67.15806930681285,90.59445640203657 -64.65806930678204,89.92458342100996 -62.82794228780756,88.09445640211669 -62.15806930667001,85.5944564021156 -62.827942287696615,83.09445640208477 -64.65806930658988,81.2643293831103 -67.15806930659097,80.59445640197274 -69.6580693066218,81.26432938299935 -71.48819632559628,83.09445640189261 -72.15806930673384,85.59445640189371 -71.48819632570722,88.09445640192453 -69.65806930681396,89.92458342089901 -67.15806930681286,90.59445640203657" stroke="#00f" stroke-linecap="round" stroke-linejoin="round"/><polyline fill="none" points="147.971061050505,293.75671879640583 150.4710610505358,293.0868458153792 152.3011880695103,291.2567187964859 152.97106105064785,288.75671879648485 152.30118806962125,286.25671879645404 150.471061050728,284.42659177747953 147.97106105072692,283.756718796342 145.4710610506961,284.4265917773686 143.64093403172163,286.2567187962619 142.97106105058407,288.756718796263 143.64093403161067,291.2567187962938 145.47106105050392,293.0868458152683 147.971061050505,293.75671879640583" stroke="#ffa500" stroke-linecap="round" stroke-linejoin="round"/><polyline fill="none" points="-235.43060816439058,-103.28276290150559 -232.93060816435977,-103.95263588253219 -231.1004811453853,-105.78276290142546 -230.43060816424773,-108.28276290142655 -231.10048114527433,-110.78276290145737 -232.93060816416758,-112.61288992043185 -235.43060816416866,-113.28276290156941 -237.93060816419947,-112.61288992054281 -239.76073518317395,-110.78276290164955 -240.4306081643115,-108.28276290164845 -239.7607351832849,-105.78276290161763 -237.93060816439166,-103.95263588264315 -235.43060816439058,-103.28276290150559" stroke="#00f" stroke-linecap="round" stroke-linejoin="round"/><polyline fill="none" points="-224.52538881406755,24.278095966116148 -222.02538881403675,23.608222985089544 -220.19526179506227,21.778095966196283 -219.5253888139247,19.278095966195192 -220.1952617949513,16.778095966164372 -222.02538881384456,14.947968947189887 -224.52538881384564,14.278095966052327 -227.02538881387645,14.94796894707893 -228.85551583285093,16.77809596597219 -229.52538881398849,19.278095965973282 -228.85551583296188,21.778095966004102 -227.02538881406863,23.60822298497859 -224.52538881406755,24.27809596611615" stroke="#ffa500" stroke-linecap="round" stroke-linejoin="round"/><polyline fill="none" points="-162.72532028218257,-57.757026780917194 -160.22532028215176,-58.426899761943794 -158.39519326317728,-60.25702678083705 -157.72532028203972,-62.75702678083814 -158.39519326306632,-65.25702678086896 -160.22532028195957,-67.08715379984345 -162.72532028196065,-67.75702678098101 -165.22532028199146,-67.08715379995441 -167.05544730096594,-65.25702678106114 -167.7253202821035,-62.757026781060055 -167.0554473010769,-60.25702678102923 -165.22532028218365,-58.426899762054745 -162.72532028218257,-57.75702678091718" stroke="#ffa500" stroke-linecap="round" stroke-linejoin="round"/><polyline fill="none" points="-330.3116117839958,-175.54112602482982 -327.81161178396496,-176.21099900585642 -325.98148476499046,-178.04112602474967 -325.31161178385287,-180.54112602475075 -325.98148476487944,-183.04112602478156 -327.8116117837727,-184.87125304375604 -330.3116117837738,-185.5411260248936 -332.8116117838046,-184.871253043867 -334.6417388027791,-183.04112602497375 -335.3116117839167,-180.54112602497267 -334.64173880289013,-178.04112602494186 -332.81161178399685,-176.21099900596738 -330.3116117839958,-175.54112602482982" stroke="#008000" stroke-linecap="round" stroke-linejoin="round"/><polyline fill="none" points="-357.08349920479117,-204.51932051755765 -354.58349920476036,-205.18919349858425 -352.75337218578585,-207.0193205174775 -352.08349920464826,-209.51932051747858 -352.75337218567483,-212.0193205175094 -354.5834992045681,-213.8494475364839 -357.0834992045692,-214.51932051762145 -359.5834992046,-213.84944753659485 -361.4136262235745,-212.0193205177016 -362.0834992047121,-209.51932051770052 -361.4136262236855,-207.01932051766968 -359.58349920479225,-205.1891934986952 -357.08349920479117,-204.51932051755765" stroke="#00f" stroke-linecap="round" stroke-linejoin="round"/><polyline fill="none" points="175.8609164706281,325.4384189716656 178.36091647065894,324.76854599063904 180.19104348963344,322.93841897174576 180.860916470771,320.4384189717447 180.1910434897444,317.9384189717139 178.36091647085115,316.10829195273936 175.86091647085007,315.4384189716018 173.36091647081923,316.10829195262835 171.53078945184473,317.9384189715216 170.86091647070717,320.4384189715227 171.53078945173377,322.9384189715535 173.36091647062702,324.768545990528 175.8609164706281,325.4384189716656" stroke="#00f" stroke-linecap="round" stroke-linejoin="round"/><polyline fill="none" points="-337.5793337946176,-93.71544626827753 -335.0793337945868,-94.38531924930412 -333.24920677561227,-96.21544626819737 -332.5793337944747,-98.71544626819846 -333.24920677550125,-101.21544626822929 -335.07933379439453,-103.04557328720378 -337.5793337943956,-103.71544626834135 -340.0793337944264,-103.04557328731477 -341.9094608134009,-101.21544626842152 -342.5793337945385,-98.71544626842042 -341.90946081351194,-96.2154462683896 -340.07933379461866,-94.3853192494151 -337.5793337946176,-93.71544626827753" stroke="#00f" stroke-linecap="round" stroke-linejoin="round"/><polyline fill="none" points="65.44639444266106,138.72423235852276 67.94639444269188,138.05435937749616 69.77652146166638,136.2242323586029 70.44639444280395,133.72423235860182 69.77652146177736,131.224232358571 67.94639444288411,129.39410533959648 65.44639444288302,128.7242323584589 62.94639444285219,129.3941053394855 61.11626742387769,131.22423235837874 60.44639444274011,133.72423235837982 61.11626742376669,136.22423235841066 62.946394442659944,138.05435937738517 65.44639444266103,138.72423235852276" stroke="#ffa500" stroke-linecap="round" stroke-linejoin="round"/><polyline fill="none" points="-295.8536544186114,-105.71262020253148 -293.3536544185806,-106.38249318355807 -291.5235273996061,-108.21262020245132 -290.8536544184685,-110.71262020245241 -291.5235273994951,-113.21262020248324 -293.3536544183883,-115.04274722145774 -295.8536544183894,-115.71262020259532 -298.3536544184202,-115.04274722156873 -300.1837814373947,-113.21262020267548 -300.8536544185323,-110.71262020267439 -300.18378143750573,-108.21262020264356 -298.3536544186125,-106.38249318366906 -295.8536544186114,-105.71262020253147" stroke="#ffa500" stroke-linecap="round" stroke-linejoin="round"/><polyline fill="none" points="1.9402347593626073,-179.00997630821203 4.440234759393437,-179.6798492892386 6.270361778367941,-181.50997630813185 6.940234759505523,-184.00997630813293 6.270361778478938,-186.50997630816377 4.440234759585689,-188.34010332713828 1.9402347595845995,-189.00997630827587 -0.5597652404462314,-188.3401033272493 -2.389892259420736,-186.50997630835604 -3.0597652405583187,-184.00997630835496 -2.389892259531735,-181.50997630832413 -0.5597652406384868,-179.67984928934962 1.9402347593626026,-179.00997630821203" stroke="#ffa500" stroke-linecap="round" stroke-linejoin="round"/><polyline fill="none" points="-390.99779743507406,17.85044648246351 -388.49779743504325,17.18057350143693 -386.66767041606874,15.350446482543681 -385.99779743493116,12.850446482542592 -386.66767041595773,10.35044648251176 -388.49779743485095,8.520319463537254 -390.99779743485203,7.850446482399669 -393.49779743488284,8.520319463426251 -395.32792445385735,10.350446482319498 -395.99779743499494,12.850446482320587 -395.32792445396836,15.350446482351419 -393.49779743507514,17.180573501325927 -390.99779743507406,17.850446482463514" stroke="#ffa500" stroke-linecap="round" stroke-linejoin="round"/><polyline fill="none" points="-100.37056325824643,-153.87771734376236 -97.8705632582156,-154.54759032478893 -96.04043623924109,-156.37771734368218 -95.3705632581035,-158.87771734368326 -96.04043623913009,-161.3777173437141 -97.87056325802334,-163.2078443626886 -100.37056325802443,-163.8777173438262 -102.87056325805527,-163.20784436279962 -104.70069027702978,-161.37771734390637 -105.37056325816737,-158.8777173439053 -104.70069027714078,-156.37771734387445 -102.87056325824753,-154.54759032489994 -100.37056325824643,-153.87771734376236" stroke="#ffa500" stroke-linecap="round" stroke-linejoin="round"/><polyline fill="none" points="-424.303301543134,-148.29865557169273 -421.8033015431032,-148.9685285527193 -419.9731745241287,-150.79865557161256 -419.3033015429911,-153.29865557161364 -419.9731745240177,-155.79865557164447 -421.8033015429109,-157.62878259061898 -424.303301542912,-158.29865557175657 -426.8033015429428,-157.62878259073 -428.6334285619173,-155.79865557183675 -429.3033015430549,-153.29865557183567 -428.6334285620283,-150.79865557180483 -426.8033015431351,-148.96852855283032 -424.303301543134,-148.29865557169273" stroke="#008000" stroke-linecap="round" stroke-linejoin="round"/><polyline fill="none" points="-251.8147241776961,-4.148153047942909 -249.31472417766525,-4.818026028969485 -247.48459715869075,-6.6481530478627295 -246.81472417755316,-9.148153047863818 -247.48459715857973,-11.648153047894654 -249.31472417747298,-13.478280066869168 -251.81472417747406,-14.14815304800676 -254.3147241775049,-13.478280066980185 -256.1448511964794,-11.648153048086941 -256.814724177617,-9.148153048085852 -256.1448511965904,-6.648153048055016 -254.31472417769717,-4.818026029080501 -251.8147241776961,-4.148153047942907" stroke="#00f" stroke-linecap="round" stroke-linejoin="round"/><polyline fill="none" points="-219.35658668501853,-91.44454990760887 -216.8565866849877,-92.11442288863545 -215.02645966601318,-93.94454990752868 -214.3565866848756,-96.44454990752978 -215.02645966590217,-98.94454990756061 -216.85658668479542,-100.77467692653514 -219.3565866847965,-101.44454990767274 -221.85658668482733,-100.77467692664617 -223.68671370380184,-98.94454990775293 -224.35658668493943,-96.44454990775183 -223.68671370391286,-93.944549907721 -221.8565866850196,-92.11442288874647 -219.35658668501853,-91.44454990760887" stroke="#ffa500" stroke-linecap="round" stroke-linejoin="round"/><polyline fill="none" points="16.776385522098348,115.14484229129604 19.276385522129186,114.47496931026947 21.106512541103704,112.64484229137624 21.776385522241302,110.14484229137514 21.10651254121473,107.6448422913443 19.27638552232149,105.81471527236978 16.776385522320403,105.14484229123218 14.276385522289564,105.81471527225875 12.446258503315045,107.64484229115199 11.776385522177446,110.14484229115308 12.446258503204016,112.64484229118392 14.276385522097256,114.47496931015844 16.776385522098344,115.14484229129604" stroke="#00f" stroke-linecap="round" stroke-linejoin="round"/><polyline fill="none" points="-506.1046157469286,-159.3118892085419 -503.6046157468977,-159.98176218956849 -501.7744887279232,-161.81188920846174 -501.1046157467856,-164.31188920846282 -501.7744887278122,-166.81188920849365 -503.6046157467054,-168.64201622746816 -506.1046157467065,-169.31188920860575 -508.60461574673735,-168.64201622757918 -510.43474276571186,-166.81188920868593 -511.10461574684945,-164.31188920868485 -510.4347427658229,-161.811889208654 -508.60461574692965,-159.9817621896795 -506.1046157469286,-159.31188920854188" stroke="#ffa500" stroke-linecap="round" stroke-linejoin="round"/><polyline fill="none" points="-387.37401412662587,-2.0026280346108676 -384.874014126595,-2.6725010156374354 -383.0438871076205,-4.502628034530675 -382.3740141264829,-7.002628034531764 -383.0438871075095,-9.502628034562605 -384.8740141264027,-11.332755053537127 -387.3740141264038,-12.00262803467473 -389.87401412643464,-11.332755053648164 -391.70414114540915,-9.502628034754926 -392.37401412654674,-7.002628034753837 -391.70414114552017,-4.502628034722996 -389.87401412662695,-2.6725010157484723 -387.37401412662587,-2.0026280346108685" stroke="#ffa500" stroke-linecap="round" stroke-linejoin="round"/><polyline fill="none" points="-304.9792803990482,7.047585365707813 -302.47928039901734,6.377712384681248 -300.64915338004283,4.547585365788009 -299.97928039890525,2.04758536578692 -300.6491533799318,-0.4524146342439219 -302.47928039882504,-2.282541653218446 -304.9792803988261,-2.952414634356051 -307.479280398857,-2.282541653329486 -309.3094074178315,-0.45241463443624896 -309.9792803989691,2.0475853655648404 -309.3094074179425,4.547585365595683 -307.4792803990493,6.377712384570208 -304.9792803990482,7.047585365707814" stroke="#ffa500" stroke-linecap="round" stroke-linejoin="round"/><polyline fill="none" points="-348.5249026749571,-166.84640764944263 -346.02490267492624,-167.5162806304692 -344.19477565595173,-169.34640764936245 -343.52490267481414,-171.84640764936353 -344.1947756558407,-174.34640764939437 -346.02490267473394,-176.1765346683689 -348.524902674735,-176.84640764950652 -351.0249026747659,-176.17653466847995 -352.8550296937404,-174.34640764958672 -353.524902674878,-171.84640764958564 -352.8550296938514,-169.3464076495548 -351.0249026749582,-167.51628063058027 -348.5249026749571,-166.84640764944265" stroke="#008000" stroke-linecap="round" stroke-linejoin="round"/><polyline fill="none" points="-470.7853633095526,-189.88184438461508 -468.28536330952176,-190.55171736564165 -466.45523629054725,-192.38184438453487 -465.78536330940966,-194.88184438453595 -466.45523629043623,-197.3818443845668 -468.28536330932945,-199.21197140354133 -470.78536330933053,-199.88184438467894 -473.2853633093614,-199.21197140365237 -475.1154903283359,-197.38184438475915 -475.7853633094735,-194.88184438475807 -475.1154903284469,-192.38184438472723 -473.2853633095537,-190.5517173657527 -470.7853633095526,-189.88184438461508" stroke="#ffa500" stroke-linecap="round" stroke-linejoin="round"/><polyline fill="none" points="-377.72138286194735,-200.13020692897626 -375.2213828619165,-200.80007991000284 -373.391255842942,-202.63020692889606 -372.7213828618044,-205.13020692889714 -373.39125584283096,-207.63020692892798 -375.2213828617242,-209.4603339479025 -377.72138286172526,-210.13020692904013 -380.2213828617561,-209.46033394801358 -382.05150988073063,-207.63020692912036 -382.7213828618682,-205.13020692911928 -382.05150988084165,-202.63020692908844 -380.2213828619484,-200.8000799101139 -377.72138286194735,-200.1302069289763" stroke="#00f" stroke-linecap="round" stroke-linejoin="round"/><polyline fill="none" points="-125.69199235192363,-221.47567582964302 -123.19199235189278,-222.14554881066957 -121.36186533291824,-223.9756758295628 -120.69199235178063,-226.47567582956387 -121.36186533280718,-228.9756758295947 -123.19199235170042,-230.80580284856924 -125.69199235170151,-231.47567582970686 -128.19199235173235,-230.80580284868032 -130.0221193707069,-228.9756758297871 -130.6919923518445,-226.475675829786 -130.02211937081796,-223.97567582975518 -128.19199235192474,-222.14554881078064 -125.69199235192364,-221.47567582964302" stroke="#00f" stroke-linecap="round" stroke-linejoin="round"/><polyline fill="none" points="-456.2486180804427,-159.5842367482486 -453.74861808041186,-160.25410972927514 -451.91849106143735,-162.08423674816837 -451.2486180802997,-164.58423674816945 -451.9184910613263,-167.08423674820028 -453.7486180802195,-168.91436376717482 -456.2486180802206,-169.58423674831243 -458.74861808025145,-168.9143637672859 -460.578745099226,-167.08423674839267 -461.24861808036366,-164.5842367483916 -460.5787450993371,-162.08423674836075 -458.74861808044386,-160.25410972938622 -456.2486180804428,-159.5842367482486" stroke="#00f" stroke-linecap="round" stroke-linejoin="round"/><polyline fill="none" points="-29.405180596646833,103.31231274669827 -26.90518059661598,102.64243976567171 -25.07505357764144,100.81231274677847 -24.40518059650382,98.31231274677738 -25.07505357753037,95.81231274674653 -26.905180596423598,93.98218572777199 -29.40518059642469,93.31231274663438 -31.90518059645554,93.98218572766092 -33.73530761543008,95.81231274655416 -34.4051805965677,98.31231274655525 -33.73530761554115,100.8123127465861 -31.905180596647924,102.64243976556064 -29.405180596646833,103.31231274669827" stroke="#ffa500" stroke-linecap="round" stroke-linejoin="round"/><polyline fill="none" points="-401.40406205235774,-99.3742845818291 -398.9040620523269,-100.04415756285564 -397.0739350333523,-101.87428458174887 -396.40406205221467,-104.37428458174996 -397.07393503324124,-106.87428458178081 -398.90406205213446,-108.70441160075535 -401.40406205213554,-109.37428458189298 -403.9040620521664,-108.70441160086644 -405.734189071141,-106.87428458197321 -406.4040620522786,-104.37428458197212 -405.73418907125205,-101.87428458194127 -403.9040620523588,-100.04415756296673 -401.40406205235774,-99.3742845818291" stroke="#008000" stroke-linecap="round" stroke-linejoin="round"/><polyline fill="none" points="-156.27894902107664,-36.32517864887558 -153.77894902104578,-36.99505162990212 -151.94882200207124,-38.82517864879535 -151.27894902093362,-41.32517864879644 -151.94882200196017,-43.82517864882729 -153.7789490208534,-45.655305667801834 -156.27894902085447,-46.32517864893946 -158.77894902088534,-45.65530566791292 -160.60907603985987,-43.82517864901969 -161.2789490209975,-41.3251786490186 -160.60907603997094,-38.82517864898775 -158.77894902107772,-36.99505163001321 -156.27894902107664,-36.32517864887558" stroke="#ffa500" stroke-linecap="round" stroke-linejoin="round"/><polyline fill="none" points="73.52576466532341,-277.2444345234648 76.02576466535426,-277.9143075044914 77.85589168432881,-279.7444345233846 78.52576466546644,-282.2444345233857 77.8558916844399,-284.74443452341654 76.02576466554667,-286.5745615423911 73.52576466554558,-287.24443452352875 71.02576466551473,-286.57456154250224 69.19563764654018,-284.744434523609 68.52576466540255,-282.24443452360794 69.19563764642909,-279.74443452357707 71.02576466532231,-277.9143075046025 73.52576466532341,-277.24443452346486" stroke="#ffa500" stroke-linecap="round" stroke-linejoin="round"/><polyline fill="none" points="145.3072920133922,323.4409933141174 147.80729201342308,322.7711203330909 149.63741903239762,320.94099331419767 150.30729201353526,318.4409933141966 149.63741903250872,315.9409933141657 147.8072920136155,314.11086629519116 145.30729201361441,313.4409933140535 142.80729201358355,314.11086629508003 140.977164994609,315.94099331397325 140.30729201347137,318.44099331397433 140.9771649944979,320.9409933140052 142.80729201339113,322.77112033297976 145.3072920133922,323.4409933141174" stroke="#ffa500" stroke-linecap="round" stroke-linejoin="round"/><polyline fill="none" points="214.5081456228237,-197.99929987283997 217.00814562285456,-198.6691728538665 218.8382726418291,-200.49929987275974 219.50814562296674,-202.99929987276082 218.8382726419402,-205.49929987279168 217.00814562304697,-207.32942689176622 214.5081456230459,-207.99929987290386 212.00814562301503,-207.32942689187732 210.17801860404046,-205.4992998729841 209.50814562290282,-202.99929987298302 210.17801860392936,-200.49929987295215 212.00814562282258,-198.66917285397759 214.50814562282366,-197.99929987283994" stroke="#ffa500" stroke-linecap="round" stroke-linejoin="round"/><polyline fill="none" points="-101.35396326899695,-225.32575349321007 -98.8539632689661,-225.99562647423662 -97.02383624999155,-227.82575349312984 -96.3539632688539,-230.32575349313092 -97.02383624988043,-232.82575349316178 -98.85396326877365,-234.65588051213635 -101.35396326877475,-235.325753493274 -103.85396326880561,-234.65588051224745 -105.68409028778017,-232.82575349335423 -106.35396326891781,-230.32575349335315 -105.68409028789128,-227.82575349332228 -103.85396326899806,-225.99562647434772 -101.35396326899696,-225.32575349321007" stroke="#ffa500" stroke-linecap="round" stroke-linejoin="round"/><polyline fill="none" points="-129.5337698043748,-192.58942608767535 -127.03376980434393,-193.2592990687019 -125.20364278536938,-195.08942608759511 -124.53376980423174,-197.5894260875962 -125.20364278525827,-200.08942608762706 -127.03376980415149,-201.91955310660163 -129.53376980415257,-202.58942608773927 -132.03376980418344,-201.91955310671273 -133.863896823158,-200.0894260878195 -134.53376980429564,-197.58942608781842 -133.8638968232691,-195.08942608778756 -132.03376980437588,-193.259299068813 -129.5337698043748,-192.58942608767535" stroke="#00f" stroke-linecap="round" stroke-linejoin="round"/><polyline fill="none" points="142.28020935213817,-190.61580504436313 144.78020935216904,-191.28567802538967 146.6103363711436,-193.1158050442829 147.28020935228125,-195.61580504428397 146.6103363712547,-198.11580504431484 144.78020935236148,-199.9459320632894 142.2802093523604,-200.61580504442705 139.78020935232954,-199.9459320634005 137.95008233335497,-198.11580504450728 137.28020935221733,-195.6158050445062 137.95008233324387,-193.11580504447534 139.7802093521371,-191.28567802550077 142.28020935213817,-190.61580504436313" stroke="#00f" stroke-linecap="round" stroke-linejoin="round"/><polyline fill="none" points="-486.8228220860892,-153.3349578175631 -484.32282208605835,-154.00483079858964 -482.4926950670838,-155.83495781748286 -481.82282208594614,-158.33495781748394 -482.49269506697266,-160.8349578175148 -484.3228220858659,-162.66508483648937 -486.82282208586696,-163.33495781762701 -489.3228220858978,-162.6650848366005 -491.1529491048724,-160.83495781770728 -491.82282208601004,-158.3349578177062 -491.1529491049835,-155.83495781767533 -489.3228220860903,-154.00483079870077 -486.8228220860892,-153.33495781756312" stroke="#00f" stroke-linecap="round" stroke-linejoin="round"/><polyline fill="none" points="33.00531376268475,-201.19545949993048 35.505313762715616,-201.865332480957 37.33544078169018,-203.69545949985022 38.00531376282783,-206.1954594998513 37.3354407818013,-208.69545949988216 35.50531376290809,-210.52558651885673 33.005313762907,-211.19545949999437 30.505313762876135,-210.52558651896786 28.675186743901573,-208.69545950007463 28.005313762763922,-206.19545950007355 28.675186743790448,-203.6954595000427 30.505313762683663,-201.86533248106812 33.00531376268475,-201.19545949993048" stroke="#00f" stroke-linecap="round" stroke-linejoin="round"/><polyline fill="none" points="-452.2255661142527,-200.77402456821693 -449.7255661142218,-201.44389754924345 -447.89543909524724,-203.27402456813667 -447.2255661141096,-205.77402456813775 -447.8954390951361,-208.2740245681686 -449.72556611402933,-210.10415158714318 -452.2255661140304,-210.77402456828082 -454.7255661140613,-210.1041515872543 -456.55569313303585,-208.27402456836109 -457.2255661141735,-205.77402456836 -456.555693133147,-203.27402456832914 -454.72556611425375,-201.44389754935457 -452.2255661142527,-200.77402456821693" stroke="#ffa500" stroke-linecap="round" stroke-linejoin="round"/><polyline fill="none" points="-321.1181019891328,55.87499477878907 -318.61810198910194,55.20512179776255 -316.7879749701274,53.374994778869336 -316.11810198898974,50.87499477886825 -316.78797497001625,48.37499477883738 -318.6181019889095,46.54486775986282 -321.11810198891055,45.87499477872516 -323.6181019889414,46.54486775975168 -325.448229007916,48.3749947786449 -326.1181019890536,50.874994778645984 -325.4482290080271,53.37499477867685 -323.6181019891339,55.205121797651415 -321.1181019891328,55.87499477878907" stroke="#ffa500" stroke-linecap="round" stroke-linejoin="round"/><polyline fill="none" points="-363.11339090082106,-96.66386020321747 -360.6133909007902,-97.33373318424398 -358.7832638818156,-99.16386020313719 -358.113390900678,-101.66386020313828 -358.7832638817045,-104.16386020316915 -360.6133909005977,-105.99398722214372 -363.1133909005988,-106.66386020328137 -365.61339090062967,-105.99398722225486 -367.44351791960423,-104.16386020336165 -368.1133909007419,-101.66386020336056 -367.44351791971536,-99.16386020332969 -365.61339090082214,-97.33373318435513 -363.11339090082106,-96.66386020321747" stroke="#00f" stroke-linecap="round" stroke-linejoin="round"/><polyline fill="none" points="-404.35835346492985,-143.8507151830506 -401.858353464899,-144.5205881640771 -400.0282264459244,-146.35071518297033 -399.3583534647868,-148.8507151829714 -400.0282264458133,-151.35071518300228 -401.8583534647065,-153.18084220197684 -404.3583534647076,-153.85071518311452 -406.85835346473846,-153.180842202088 -408.688480483713,-151.35071518319478 -409.35835346485067,-148.8507151831937 -408.68848048382415,-146.35071518316283 -406.85835346493093,-144.52058816418827 -404.35835346492985,-143.8507151830506" stroke="#008000" stroke-linecap="round" stroke-linejoin="round"/><polyline fill="none" points="140.431946869196,-147.75419647758025 142.93194686922686,-148.42406945860677 144.76207388820143,-150.25419647749996 145.4319468693391,-152.75419647750104 144.76207388831259,-155.2541964775319 142.9319468694194,-157.08432349650647 140.4319468694183,-157.75419647764414 137.93194686938745,-157.08432349661763 136.10181985041288,-155.25419647772443 135.4319468692752,-152.75419647772335 136.10181985030172,-150.2541964776925 137.93194686919492,-148.42406945871792 140.431946869196,-147.75419647758025" stroke="#ffa500" stroke-linecap="round" stroke-linejoin="round"/><polyline fill="none" points="83.43031356598075,-258.5377926235791 85.93031356601162,-259.2076656046056 87.7604405849862,-261.03779262349883 88.43031356612387,-263.5377926234999 87.76044058509736,-266.0377926235308 85.93031356620415,-267.86791964250534 83.43031356620305,-268.537792623643 80.93031356617219,-267.86791964261647 79.10018654719761,-266.03779262372325 78.43031356605994,-263.53779262372217 79.10018654708645,-261.0377926236913 80.93031356597966,-259.20766560471674 83.43031356598075,-258.5377926235791" stroke="#ffa500" stroke-linecap="round" stroke-linejoin="round"/><polyline fill="none" points="-414.19958268678016,-192.7494774378984 -411.6995826867493,-193.41935041892492 -409.86945566777473,-195.24947743781811 -409.1995826866371,-197.7494774378192 -409.8694556676636,-200.24947743785006 -411.6995826865568,-202.07960445682463 -414.1995826865579,-202.7494774379623 -416.69958268658877,-202.07960445693578 -418.52970970556333,-200.2494774380426 -419.199582686701,-197.7494774380415 -418.52970970567446,-195.24947743801064 -416.69958268678124,-193.41935041903605 -414.19958268678016,-192.74947743789838" stroke="#00f" stroke-linecap="round" stroke-linejoin="round"/><polyline fill="none" points="-85.42972027205218,-212.59723688730767 -82.9297202720213,-213.2671098683342 -81.09959325304672,-215.09723688722738 -80.42972027190905,-217.59723688722846 -81.09959325293555,-220.09723688725933 -82.92972027182876,-221.92736390623392 -85.42972027182985,-222.5972368873716 -87.92972027186073,-221.92736390634508 -89.75984729083531,-220.09723688745188 -90.42972027197298,-217.5972368874508 -89.75984729094648,-215.09723688741994 -87.92972027205327,-213.26710986844535 -85.42972027205218,-212.59723688730767" stroke="#00f" stroke-linecap="round" stroke-linejoin="round"/><polyline fill="none" points="-91.25895580104763,-174.36092360616934 -88.75895580101675,-175.03079658719585 -86.92882878204217,-176.86092360608905 -86.2589558009045,-179.36092360609013 -86.928828781931,-181.860923606121 -88.75895580082421,-183.69105062509558 -91.2589558008253,-184.36092360623326 -93.75895580085619,-183.69105062520674 -95.58908281983076,-181.86092360631355 -96.25895580096844,-179.36092360631247 -95.58908281994194,-176.8609236062816 -93.75895580104873,-175.030796587307 -91.25895580104763,-174.36092360616934" stroke="#ffa500" stroke-linecap="round" stroke-linejoin="round"/><polyline fill="none" points="-304.7507345564221,41.44820017546537 -302.25073455639125,40.778327194438866 -300.4206075374167,38.948200175545665 -299.750734556279,36.44820017554458 -300.4206075373055,33.948200175513705 -302.2507345561987,32.11807315653912 -304.7507345561998,31.448200175401443 -307.25073455623067,32.11807315642795 -309.08086157520523,33.94820017532115 -309.75073455634293,36.448200175322235 -309.0808615753164,38.948200175353115 -307.2507345564232,40.7783271943277 -304.7507345564221,41.44820017546538" stroke="#ffa500" stroke-linecap="round" stroke-linejoin="round"/><polyline fill="none" points="-421.2932714657535,-173.70590609554182 -418.7932714657226,-174.37577907656834 -416.96314444674806,-176.20590609546153 -416.29327146561036,-178.7059060954626 -416.9631444466369,-181.20590609549348 -418.7932714655301,-183.03603311446807 -421.2932714655312,-183.70590609560574 -423.79327146556204,-183.03603311457925 -425.6233984845366,-181.20590609568606 -426.2932714656743,-178.70590609568498 -425.6233984846478,-176.20590609565411 -423.7932714657546,-174.37577907667952 -421.2932714657535,-173.70590609554185" stroke="#008000" stroke-linecap="round" stroke-linejoin="round"/><polyline fill="none" points="-303.8637830314359,-86.37930063408665 -301.36378303140503,-87.04917361511315 -299.53365601243047,-88.87930063400634 -298.86378303129277,-91.37930063400744 -299.5336560123193,-93.87930063403832 -301.3637830312125,-95.70942765301291 -303.8637830312136,-96.3793006341506 -306.36378303124445,-95.7094276531241 -308.193910050219,-93.8793006342309 -308.8637830313567,-91.3793006342298 -308.1939100503302,-88.87930063419893 -306.363783031437,-87.04917361522433 -303.8637830314359,-86.37930063408665" stroke="#ffa500" stroke-linecap="round" stroke-linejoin="round"/><polyline fill="none" points="-343.26848197737917,-189.3523297060076 -340.7684819773483,-190.02220268703408 -338.93835495837374,-191.85232970592727 -338.26848197723604,-194.35232970592835 -338.93835495826255,-196.85232970595925 -340.7684819771558,-198.68245672493384 -343.26848197715685,-199.35232970607152 -345.7684819771877,-198.68245672504503 -347.59860899616234,-196.85232970615183 -348.26848197730004,-194.35232970615075 -347.5986089962735,-191.85232970611986 -345.7684819773803,-190.02220268714527 -343.2684819773792,-189.3523297060076" stroke="#ffa500" stroke-linecap="round" stroke-linejoin="round"/><polyline fill="none" points="-362.8907659428913,-185.68797026514207 -360.3907659428604,-186.35784324616856 -358.5606389238858,-188.18797026506175 -357.8907659427481,-190.68797026506283 -358.5606389237746,-193.18797026509372 -360.3907659426678,-195.01809728406832 -362.8907659426689,-195.68797026520602 -365.3907659426998,-195.01809728417953 -367.2208929616744,-193.18797026528634 -367.8907659428121,-190.68797026528526 -367.2208929617856,-188.18797026525436 -365.39076594289236,-186.35784324627977 -362.8907659428913,-185.68797026514207" stroke="#00f" stroke-linecap="round" stroke-linejoin="round"/><polyline fill="none" points="162.2550733716244,310.6304851612369 164.7550733716553,309.9606121802104 166.5852003906299,308.13048516131715 167.2550733717676,305.6304851613161 166.5852003907411,303.1304851612852 164.7550733718479,301.3003581423106 162.25507337184683,300.6304851611729 159.75507337181594,301.3003581421994 157.92494635284135,303.1304851610926 157.25507337170365,305.6304851610937 157.92494635273013,308.13048516112457 159.75507337162333,309.9606121800992 162.2550733716244,310.6304851612369" stroke="#ffa500" stroke-linecap="round" stroke-linejoin="round"/><polyline fill="none" points="-319.51865885869597,-72.92515354285258 -317.0186588586651,-73.59502652387907 -315.1885318396905,-75.42515354277226 -314.5186588585528,-77.92515354277336 -315.1885318395793,-80.42515354280424 -317.01865885847246,-82.25528056177885 -319.51865885847354,-82.92515354291655 -322.0186588585044,-82.25528056189006 -323.84878587747903,-80.42515354299687 -324.51865885861673,-77.92515354299577 -323.8487858775902,-75.42515354296489 -322.01865885869705,-73.59502652399028 -319.51865885869597,-72.92515354285258" stroke="#ffa500" stroke-linecap="round" stroke-linejoin="round"/></svg>