<?xml version="1.0" ?><!DOCTYPE svg  PUBLIC '-//W3C//DTD SVG 1.1//EN'  'http://www.w3.org/Graphics/SVG/1.1/DTD/svg11.dtd'><svg height="259.000" viewBox="-164.000 -129.000 353.000 259.000" width="353.000" xmlns="http://www.w3.org/2000/svg"><line fill="none" stroke="none" stroke-linecap="round" stroke-width="2.0" x1="0.0" x2="0.0" y1="0.0" y2="0.0"/><polygon fill="none" fill-rule="evenodd" points="0.0,0.0 0.0,0.0 0.0,0.0" stroke-linejoin="round"/><polyline fill="none" points="-38.86024517591206,12.014002232834883 -36.360245175907366,11.344129251764855 -34.53011815697722,9.514002232847048 -33.86024517589033,7.0140022328468685 -34.530118156960356,4.51400223284217 -36.36024517587816,2.6838752139120174 -38.86024517587834,2.014002232825124 -41.36024517588304,2.6838752138951514 -43.19037219481319,4.514002232812957 -43.86024517590009,7.014002232813137 -43.19037219483006,9.514002232817838 -41.360245175912254,11.34412925174799 -38.86024517591208,12.014002232834885" stroke="#00f" stroke-linecap="round" stroke-linejoin="round"/><polyline fill="none" points="-57.112628884285016,-35.74287643099296 -54.61262888428032,-36.412749412062986 -52.78250186535016,-38.24287643098079 -52.112628884263266,-40.74287643098097 -52.782501865333295,-43.24287643098567 -54.6126288842511,-45.073003449915824 -57.11262888425128,-45.74287643100272 -59.61262888425598,-45.0730034499327 -61.44275590318614,-43.24287643101489 -62.112628884273036,-40.742876431014714 -61.442755903203015,-38.24287643101001 -59.612628884285215,-36.412749412079854 -57.11262888428504,-35.74287643099296" stroke="#008000" stroke-linecap="round" stroke-linejoin="round"/><polyline fill="none" points="-37.60962118277559,-104.91017396088033 -35.10962118277089,-105.58004694195036 -33.27949416384073,-107.41017396086816 -32.609621182753834,-109.91017396086835 -33.279494163823856,-112.41017396087305 -35.109621182741655,-114.24030097980321 -37.60962118274183,-114.9101739608901 -40.10962118274654,-114.24030097982009 -41.93974820167669,-112.41017396090228 -42.6096211827636,-109.9101739609021 -41.939748201693575,-107.4101739608974 -40.109621182775776,-105.58004694196724 -37.6096211827756,-104.91017396088034" stroke="#ffa500" stroke-linecap="round" stroke-linejoin="round"/><polyline fill="none" points="-45.93012434909394,-42.34569685321882 -43.43012434908923,-43.01556983428884 -41.59999733015907,-44.84569685320664 -40.930124349072166,-47.34569685320682 -41.59999733014219,-49.84569685321152 -43.43012434905999,-51.675823872141684 -45.930124349060165,-52.34569685322859 -48.43012434906487,-51.67582387215857 -50.26025136799503,-49.84569685324077 -50.930124349081936,-47.34569685324059 -50.260251368011915,-44.845696853235886 -48.430124349094115,-43.01556983430572 -45.93012434909394,-42.34569685321882" stroke="#008000" stroke-linecap="round" stroke-linejoin="round"/><polyline fill="none" points="-55.72275790162238,21.021896299997536 -53.222757901617676,20.352023318927518 -51.39263088268751,18.52189630000972 -50.72275790160061,16.021896300009537 -51.39263088267062,13.521896300004832 -53.22275790158842,11.691769281074668 -55.7227579015886,11.021896299987763 -58.222757901593305,11.691769281057779 -60.05288492052347,13.521896299975579 -60.72275790161037,16.021896299975758 -60.05288492054036,18.521896299980465 -58.22275790162256,20.35202331891063 -55.72275790162238,21.021896299997536" stroke="#00f" stroke-linecap="round" stroke-linejoin="round"/><polyline fill="none" points="-63.59790344439725,-73.47673061612079 -61.09790344439254,-74.1466035971908 -59.26777642546238,-75.9767306161086 -58.59790344437547,-78.47673061610878 -59.26777642544548,-80.97673061611349 -61.09790344436328,-82.80685763504366 -63.59790344436347,-83.47673061613057 -66.09790344436817,-82.80685763506055 -67.92803046329834,-80.97673061614276 -68.59790344438525,-78.47673061614258 -67.92803046331524,-75.97673061613787 -66.09790344439745,-74.1466035972077 -63.59790344439726,-73.47673061612079" stroke="#00f" stroke-linecap="round" stroke-linejoin="round"/><polyline fill="none" points="141.7384211911526,-104.83996035663006 144.23842119115733,-105.50983333770007 146.0685482100875,-107.33996035661787 146.7384211911744,-109.83996035661805 146.0685482101044,-112.33996035662275 144.2384211911866,-114.17008737555292 141.73842119118643,-114.83996035663984 139.23842119118171,-114.17008737556982 137.40829417225154,-112.33996035665203 136.73842119116463,-109.83996035665184 137.40829417223463,-107.33996035664714 139.23842119115244,-105.50983333771697 141.7384211911526,-104.83996035663006" stroke="#ffa500" stroke-linecap="round" stroke-linejoin="round"/><polyline fill="none" points="-97.39577619416391,-68.87976564927295 -94.8957761941592,-69.54963863034297 -93.06564917522903,-71.37976564926076 -92.39577619414212,-73.87976564926095 -93.06564917521213,-76.37976564926566 -94.89577619412992,-78.20989266819583 -97.39577619413011,-78.87976564928275 -99.89577619413483,-78.20989266821273 -101.725903213065,-76.37976564929494 -102.3957761941519,-73.87976564929475 -101.72590321308189,-71.37976564929004 -99.8957761941641,-69.54963863035987 -97.39577619416391,-68.87976564927295" stroke="#00f" stroke-linecap="round" stroke-linejoin="round"/><polyline fill="none" points="68.24257720277494,-35.92160455698893 70.74257720277966,-36.59147753805894 72.57270422170983,-38.42160455697673 73.24257720279674,-40.92160455697692 72.57270422172672,-43.42160455698163 70.74257720280893,-45.251731575911805 68.24257720280875,-45.92160455699872 65.74257720280403,-45.251731575928716 63.91245018387385,-43.42160455701092 63.24257720278693,-40.92160455701074 63.91245018385694,-38.42160455700603 65.74257720277474,-36.59147753807585 68.24257720277492,-35.92160455698893" stroke="#ffa500" stroke-linecap="round" stroke-linejoin="round"/><polyline fill="none" points="164.95253642875534,-74.48994930526335 167.45253642876006,-75.15982228633335 169.28266344769023,-76.98994930525114 169.95253642877714,-79.48994930525133 169.28266344770714,-81.98994930525605 167.45253642878933,-83.82007632418622 164.95253642878916,-84.48994930527314 162.45253642878444,-83.82007632420314 160.62240940985427,-81.98994930528535 159.95253642876736,-79.48994930528517 160.62240940983736,-76.98994930528045 162.45253642875517,-75.15982228635026 164.95253642875534,-74.48994930526334" stroke="#00f" stroke-linecap="round" stroke-linejoin="round"/><polyline fill="none" points="-42.68220364734956,-56.969906351133744 -40.18220364734484,-57.63977933220375 -38.352076628414665,-59.469906351121544 -37.68220364732774,-61.96990635112173 -38.35207662839774,-64.46990635112644 -40.18220364731553,-66.30003337005662 -42.68220364731572,-66.96990635114355 -45.182203647320435,-66.30003337007355 -47.01233066625061,-64.46990635115576 -47.68220364733754,-61.96990635115557 -47.01233066626754,-59.469906351150854 -45.182203647349745,-57.63977933222068 -42.68220364734956,-56.96990635113375" stroke="#00f" stroke-linecap="round" stroke-linejoin="round"/><polyline fill="none" points="57.198423415795205,29.931235158374758 59.69842341579992,29.261362177304758 61.5285504347301,27.431235158386965 62.198423415817025,24.931235158386784 61.528550434747025,22.43123515838207 59.69842341582923,20.60110813945189 57.198423415829055,19.931235158364963 54.69842341582434,20.601108139434963 52.86829639689415,22.431235158352752 52.19842341580723,24.931235158352933 52.86829639687723,27.43123515835765 54.69842341579502,29.261362177287833 57.198423415795205,29.931235158374758" stroke="#00f" stroke-linecap="round" stroke-linejoin="round"/><polyline fill="none" points="16.372072767487737,-73.14353015396568 18.872072767492455,-73.81340313503568 20.702199786422636,-75.64353015395348 21.372072767509565,-78.14353015395366 20.702199786439568,-80.64353015395838 18.87207276752178,-82.47365717288857 16.372072767521598,-83.14353015397549 13.87207276751688,-82.47365717290549 12.041945748586697,-80.6435301539877 11.372072767499768,-78.14353015398751 12.041945748569765,-75.6435301539828 13.872072767487554,-73.81340313505261 16.372072767487733,-73.14353015396568" stroke="#ffa500" stroke-linecap="round" stroke-linejoin="round"/><polyline fill="none" points="59.62176100673804,-30.436815481547683 62.12176100674276,-31.10668846261768 63.95188802567294,-32.93681548153547 64.62176100675987,-35.436815481535646 63.951888025689875,-37.936815481540364 62.12176100677209,-39.76694250047055 59.62176100677191,-40.43681548155748 57.121761006767194,-39.76694250048749 55.29163398783701,-37.9368154815697 54.62176100675008,-35.436815481569525 55.29163398782007,-32.93681548156481 57.121761006737856,-31.106688462634622 59.62176100673803,-30.43681548154769" stroke="#ffa500" stroke-linecap="round" stroke-linejoin="round"/><polyline fill="none" points="38.05499282274613,-60.604199647372425 40.55499282275085,-61.27407262844242 42.38511984168103,-63.104199647360204 43.054992822767964,-65.60419964736039 42.38511984169797,-68.1041996473651 40.554992822780186,-69.93432666629529 38.05499282278001,-70.60419964738223 35.55499282277529,-69.93432666631223 33.724865803845105,-68.10419964739444 33.05499282275817,-65.60419964739425 33.724865803828166,-63.104199647389535 35.55499282274595,-61.27407262845935 38.05499282274613,-60.60419964737242" stroke="#ffa500" stroke-linecap="round" stroke-linejoin="round"/><polyline fill="none" points="-46.30527981100636,-73.98755431625023 -43.80527981100164,-74.65742729732021 -41.975152792071455,-76.487554316238 -41.30527981098452,-78.98755431623819 -41.975152792054516,-81.4875543162429 -43.8052798109723,-83.31768133517309 -46.30527981097248,-83.98755431626003 -48.8052798109772,-83.31768133519004 -50.63540682990739,-81.48755431627227 -51.30527981099433,-78.98755431627208 -50.635406829924335,-76.48755431626736 -48.80527981100655,-74.65742729733718 -46.30527981100637,-73.98755431625024" stroke="#00f" stroke-linecap="round" stroke-linejoin="round"/><polyline fill="none" points="-44.890929947912724,-25.71862376740906 -42.390929947908006,-26.38849674847905 -40.560802928977814,-28.218623767396835 -39.890929947890875,-30.718623767397013 -40.56080292896086,-33.21862376740173 -42.39092994787865,-35.04875078633192 -44.890929947878824,-35.71862376741886 -47.39092994788354,-35.048750786348876 -49.221056966813734,-33.21862376743109 -49.89092994790067,-30.718623767430913 -49.22105696683069,-28.21862376742619 -47.3909299479129,-26.388496748496 -44.890929947912724,-25.71862376740906" stroke="#00f" stroke-linecap="round" stroke-linejoin="round"/><polyline fill="none" points="8.734872702005735,-3.6767412256313836 11.234872702010456,-4.346614206701371 13.06499972094065,-6.176741225619154 13.73487270202759,-8.676741225619335 13.064999720957601,-11.176741225624058 11.23487270203982,-13.006868244554251 8.734872702039638,-13.676741225641193 6.234872702034915,-13.006868244571207 4.4047456831047205,-11.176741225653425 3.7348727020177788,-8.676741225653243 4.404745683087764,-6.17674122564852 6.234872702005546,-4.346614206718325 8.734872702005728,-3.6767412256313827" stroke="#ffa500" stroke-linecap="round" stroke-linejoin="round"/><polyline fill="none" points="-63.09766802783364,-76.2855849250434 -60.59766802782892,-76.95545790611338 -58.76754100889872,-78.78558492503116 -58.09766802781178,-81.28558492503134 -58.767541008881764,-83.78558492503606 -60.59766802779954,-85.61571194396626 -63.09766802779972,-86.2855849250532 -65.59766802780445,-85.61571194398321 -67.42779504673464,-83.78558492506544 -68.09766802782158,-81.28558492506525 -67.4277950467516,-78.78558492506053 -65.59766802783382,-76.95545790613033 -63.09766802783364,-76.2855849250434" stroke="#00f" stroke-linecap="round" stroke-linejoin="round"/><polyline fill="none" points="40.5212899544452,13.400287848305856 43.02128995444993,12.730414867235874 44.851416973380125,10.900287848318094 45.52128995446707,8.400287848317914 44.85141697339709,5.900287848313189 43.021289954479315,4.070160829382991 40.52128995447914,3.400287848296045 38.02128995447441,4.070160829366027 36.19116293554421,5.900287848283806 35.521289954457266,8.400287848283986 36.191162935527245,10.900287848288713 38.021289954445024,12.730414867218911 40.5212899544452,13.400287848305858" stroke="#00f" stroke-linecap="round" stroke-linejoin="round"/><polyline fill="none" points="68.13254036699209,-15.029749745426944 70.63254036699682,-15.699622726496925 72.46266738592702,-17.5297497454147 73.13254036701397,-20.029749745414883 72.46266738594399,-22.529749745419608 70.63254036702621,-24.359876764349806 68.13254036702602,-25.029749745436757 65.63254036702129,-24.359876764366778 63.80241334809109,-22.529749745449 63.13254036700415,-20.029749745448818 63.802413348074126,-17.52974974544409 65.6325403669919,-15.699622726513889 68.13254036699209,-15.029749745426939" stroke="#ffa500" stroke-linecap="round" stroke-linejoin="round"/><polyline fill="none" points="-68.5614336797986,-68.20562038134813 -66.06143367979386,-68.8754933624181 -64.23130666086367,-70.70562038133588 -63.56143367977671,-73.20562038133606 -64.23130666084668,-75.7056203813408 -66.06143367976446,-77.53574740027099 -68.56143367976465,-78.20562038135795 -71.06143367976938,-77.53574740028797 -72.89156069869958,-75.7056203813702 -73.56143367978653,-73.20562038137001 -72.89156069871656,-70.70562038136528 -71.06143367979878,-68.87549336243508 -68.5614336797986,-68.20562038134813" stroke="#ffa500" stroke-linecap="round" stroke-linejoin="round"/><polyline fill="none" points="106.62979770887593,-0.7911484579799506 109.12979770888066,-1.4610214390499263 110.95992472781086,-3.291148457967702 111.62979770889781,-5.791148457967882 110.95992472782784,-8.29114845797261 109.12979770891006,-10.121275476902817 106.62979770890988,-10.79114845798977 104.12979770890514,-10.121275476919797 102.29967068997493,-8.291148458002022 101.62979770888798,-5.791148458001842 102.29967068995795,-3.2911484579971124 104.12979770887573,-1.461021439066906 106.62979770887591,-0.7911484579799501" stroke="#ffa500" stroke-linecap="round" stroke-linejoin="round"/><polyline fill="none" points="-25.04859178239126,11.89544159617583 -22.548591782386527,11.225568615105857 -20.718464763456318,9.395441596188082 -20.04859178236936,6.895441596187901 -20.718464763439332,4.3954415961831685 -22.548591782357107,2.5653145772529604 -25.04859178235729,1.8954415961660027 -27.54859178236202,2.5653145772359744 -29.37871880129223,4.3954415961537485 -30.048591782379187,6.89544159615393 -29.378718801309216,9.395441596158662 -27.54859178239144,11.225568615088871 -25.04859178239126,11.89544159617583" stroke="#00f" stroke-linecap="round" stroke-linejoin="round"/><polyline fill="none" points="3.934141144924437,59.23438496178553 6.434141144929169,58.56451198071556 8.264268163859379,56.73438496179779 8.934141144946338,54.23438496179761 8.264268163876368,51.73438496179288 6.434141144958596,49.904257942862664 3.9341411449584163,49.2343849617757 1.434141144953684,49.904257942845675 -0.3959858739765265,51.734384961763446 -1.0658588550634873,54.234384961763624 -0.3959858739935186,56.734384961768356 1.434141144924253,58.56451198069857 3.934141144924433,59.23438496178553" stroke="#ffa500" stroke-linecap="round" stroke-linejoin="round"/><polyline fill="none" points="90.7956317977188,16.73063088100752 93.29563179772353,16.060757899937553 95.12575881665374,14.230630881019781 95.79563179774071,11.730630881019602 95.12575881667074,9.230630881014868 93.29563179775297,7.400503862084655 90.79563179775279,6.730630880997691 88.29563179774806,7.400503862067659 86.46550477881785,9.23063088098543 85.79563179773088,11.73063088098561 86.46550477880085,14.230630880990343 88.29563179771861,16.060757899920556 90.7956317977188,16.73063088100752" stroke="#ffa500" stroke-linecap="round" stroke-linejoin="round"/><polyline fill="none" points="171.845105384901,-64.39966529213783 174.34510538490574,-65.0695382732078 176.17523240383596,-66.89966529212556 176.84510538492293,-69.39966529212575 176.17523240385296,-71.89966529213048 174.34510538493518,-73.72979231106069 171.845105384935,-74.39966529214766 169.34510538493026,-73.7297923110777 167.51497836600004,-71.89966529215994 166.84510538491307,-69.39966529215975 167.51497836598304,-66.89966529215502 169.34510538490082,-65.06953827322481 171.845105384901,-64.39966529213784" stroke="#ffa500" stroke-linecap="round" stroke-linejoin="round"/><polyline fill="none" points="10.103308851976221,-15.889207895987713 12.603308851980957,-16.559080877057678 14.433435870911174,-18.389207895975446 15.103308851998142,-20.889207895975623 14.433435870928179,-23.38920789598036 12.60330885201041,-25.219334914910576 10.103308852010231,-25.889207895997544 7.603308852005495,-25.219334914927583 5.773181833075277,-23.389207896009815 5.1033088519883085,-20.889207896009633 5.7731818330582705,-18.389207896004898 7.603308851976038,-16.559080877074678 10.103308851976218,-15.889207895987708" stroke="#ffa500" stroke-linecap="round" stroke-linejoin="round"/><polyline fill="none" points="40.298912752136395,66.58879666613353 42.798912752141135,65.91892368506358 44.629039771071355,64.08879666614581 45.29891275215832,61.58879666614563 44.629039771088365,59.088796666140894 42.7989127521706,57.258669647210674 40.29891275217042,56.588796666123706 37.798912752165684,57.25866964719366 35.968785733235464,59.08879666611143 35.29891275214849,61.588796666111605 35.968785733218446,64.08879666611634 37.79891275213621,65.91892368504656 40.29891275213639,66.58879666613353" stroke="#ffa500" stroke-linecap="round" stroke-linejoin="round"/><polyline fill="none" points="32.262983902018874,21.895068483687005 34.76298390202361,21.225195502617048 36.59311092095383,19.39506848369928 37.26298390204081,16.8950684836991 36.59311092097085,14.39506848369436 34.76298390205309,12.564941464764138 32.26298390205291,11.895068483677164 29.76298390204817,12.564941464747122 27.932856883117946,14.395068483664888 27.26298390203097,16.895068483665067 27.93285688310093,19.395068483669807 29.762983902018693,21.22519550260003 32.262983902018874,21.895068483687005" stroke="#ffa500" stroke-linecap="round" stroke-linejoin="round"/><polyline fill="none" points="107.47463138260245,31.909255699413198 109.9746313826072,31.23938271834324 111.80475840153743,29.409255699425476 112.47463138262441,26.909255699425294 111.80475840155445,24.40925569942055 109.97463138263669,22.579128680490328 107.4746313826365,21.909255699403353 104.97463138263176,22.57912868047331 103.14450436370153,24.409255699391075 102.47463138261455,26.909255699391256 103.1445043636845,29.409255699396 104.97463138260227,31.239382718326226 107.47463138260245,31.909255699413205" stroke="#ffa500" stroke-linecap="round" stroke-linejoin="round"/><polyline fill="none" points="82.06503728815527,26.12265032934826 84.56503728816001,25.452777348278307 86.39516430709024,23.622650329360543 87.06503728817722,21.12265032936036 86.39516430710727,18.62265032935562 84.5650372881895,16.79252331042539 82.06503728818932,16.122650329338413 79.56503728818457,16.792523310408367 77.73491026925434,18.62265032932613 77.06503728816736,21.122650329326312 77.73491026923732,23.622650329331055 79.56503728815508,25.452777348261282 82.06503728815527,26.122650329348264" stroke="#00f" stroke-linecap="round" stroke-linejoin="round"/><polyline fill="none" points="-56.92760031097447,18.617161499468683 -54.42760031096972,17.94728851839873 -52.597473292039496,16.117161499480964 -51.92760031095251,13.617161499480783 -52.597473292022464,11.117161499476039 -54.42760031094023,9.287034480545808 -56.92760031094041,8.617161499458826 -59.42760031094516,9.287034480528778 -61.257727329875394,11.11716149944654 -61.927600310962376,13.617161499446723 -61.257727329892425,16.11716149945147 -59.42760031097466,17.9472885183817 -56.927600310974476,18.617161499468683" stroke="#00f" stroke-linecap="round" stroke-linejoin="round"/><polyline fill="none" points="47.463085629576426,41.127394099825516 49.96308562958117,40.457521118755565 51.79321264851141,38.6273940998378 52.46308562959839,36.127394099837616 51.79321264852844,33.62739409983287 49.963085629610674,31.797267080902635 47.46308562961049,31.12739409981565 44.96308562960574,31.7972670808856 43.13295861067551,33.62739409980336 42.46308562958852,36.127394099803546 43.13295861065847,38.62739409980829 44.963085629576234,40.457521118738526 47.46308562957642,41.127394099825516" stroke="#ffa500" stroke-linecap="round" stroke-linejoin="round"/><polyline fill="none" points="43.721722746039646,50.54496842343078 46.22172274604439,49.87509544236083 48.05184976497463,48.04496842344307 48.721722746061616,45.54496842344289 48.051849764991665,43.04496842343814 46.22172274607391,41.21484140450791 43.72172274607372,40.54496842342092 41.22172274606898,41.21484140449086 39.39159572713874,43.04496842340862 38.72172274605175,45.544968423408804 39.3915957271217,48.04496842341355 41.221722746039454,49.875095442343785 43.72172274603964,50.544968423430774" stroke="#ffa500" stroke-linecap="round" stroke-linejoin="round"/><polyline fill="none" points="167.46299251324828,-38.17579391361004 169.96299251325303,-38.84566689467999 171.79311953218325,-40.675793913597744 172.46299251327025,-43.17579391359793 171.7931195322003,-45.675793913602675 169.96299251328256,-47.50592093253291 167.4629925132824,-48.1757939136199 164.96299251327764,-47.505920932549955 163.1328654943474,-45.6757939136322 162.46299251326042,-43.17579391363201 163.13286549433036,-40.67579391362726 164.9629925132481,-38.84566689469702 167.46299251324828,-38.17579391361002" stroke="#ffa500" stroke-linecap="round" stroke-linejoin="round"/><polyline fill="none" points="64.94710902470949,30.543952081757887 67.44710902471424,29.874079100687943 69.27723604364448,28.043952081770186 69.94710902473147,25.543952081770005 69.27723604366153,23.043952081765255 67.44710902474378,21.213825062835014 64.9471090247436,20.54395208174802 62.44710902473884,21.21382506281796 60.6169820058086,23.043952081735718 59.947109024721605,25.5439520817359 60.61698200579155,28.04395208174065 62.447109024709306,29.87407910067089 64.94710902470949,30.543952081757887" stroke="#ffa500" stroke-linecap="round" stroke-linejoin="round"/><polyline fill="none" points="85.43220871280312,30.31969214438723 87.93220871280786,29.64981916331729 89.7623357317381,27.819692144399532 90.4322087128251,25.31969214439935 89.76233573175516,22.8196921443946 87.93220871283741,20.98956512546436 85.43220871283722,20.319692144377363 82.93220871283248,20.989565125447303 81.10208169390224,22.819692144365057 80.43220871281524,25.319692144365238 81.10208169388518,27.81969214436999 82.93220871280293,29.649819163300236 85.43220871280312,30.319692144387236" stroke="#ffa500" stroke-linecap="round" stroke-linejoin="round"/><polyline fill="none" points="162.8452780745579,-29.103421034724697 165.34527807456266,-29.773294015794633 167.1754050934929,-31.603421034712387 167.8452780745799,-34.10342103471257 167.17540509350997,-36.60342103471732 165.34527807459222,-38.43354805364757 162.84527807459204,-39.10342103473457 160.3452780745873,-38.43354805366464 158.51515105565704,-36.60342103474689 157.84527807457005,-34.1034210347467 158.51515105564,-31.60342103474195 160.34527807455774,-29.7732940158117 162.8452780745579,-29.1034210347247" stroke="#ffa500" stroke-linecap="round" stroke-linejoin="round"/><polyline fill="none" points="79.78862017857077,37.90034712712136 82.28862017857553,37.23047414605142 84.11874719750577,35.40034712713367 84.78862017859277,32.900347127133486 84.11874719752284,30.40034712712873 82.28862017860509,28.57022010819848 79.7886201786049,27.900347127111477 77.28862017860014,28.57022010818141 75.45849315966989,30.400347127099163 74.78862017858287,32.900347127099344 75.4584931596528,35.4003471271041 77.28862017857055,37.23047414603435 79.78862017857074,37.90034712712135" stroke="#ffa500" stroke-linecap="round" stroke-linejoin="round"/><polyline fill="none" points="111.64338529168732,58.03537358226261 114.14338529169208,57.36550060119268 115.97351231062234,55.53537358227493 116.64338529170935,53.035373582274744 115.97351231063942,50.53537358226998 114.14338529172167,48.705246563339735 111.64338529172149,48.03537358225273 109.14338529171673,48.70524656332266 107.31325827278647,50.53537358224041 106.64338529169946,53.035373582240595 107.31325827276939,55.535373582245356 109.14338529168714,57.36550060117561 111.64338529168732,58.03537358226262" stroke="#ffa500" stroke-linecap="round" stroke-linejoin="round"/><polyline fill="none" points="-23.661906384667496,10.429865112779808 -21.161906384662736,9.759992131709879 -19.331779365732483,7.929865112792128 -18.661906384645476,5.429865112791945 -19.331779365715406,2.9298651127871858 -21.161906384633156,1.0997380938569317 -23.66190638463334,0.42986511276992234 -26.1619063846381,1.0997380938398507 -27.992033403568357,2.9298651127576005 -28.661906384655367,5.429865112757783 -27.992033403585438,7.929865112762544 -26.161906384667688,9.7599921316928 -23.661906384667503,10.42986511277981" stroke="#ffa500" stroke-linecap="round" stroke-linejoin="round"/><polyline fill="none" points="104.76916862509093,64.5208625176983 107.26916862509569,63.850989536628376 109.09929564402594,62.020862517710626 109.76916862511295,59.52086251771044 109.09929564404302,57.02086251770568 107.26916862512527,55.190735498775425 104.76916862512509,54.520862517688414 102.26916862512033,55.19073549875834 100.43904160619007,57.02086251767609 99.76916862510306,59.52086251767628 100.43904160617299,62.02086251768104 102.26916862509074,63.850989536611294 104.76916862509093,64.5208625176983" stroke="#ffa500" stroke-linecap="round" stroke-linejoin="round"/><polyline fill="none" points="-51.078252369502884,2.247696964621859 -48.578252369498124,1.5778239835519343 -46.74812535056787,-0.25230303536581355 -46.07825236948086,-2.752303035365996 -46.74812535055078,-5.252303035370758 -48.57825236946853,-7.082430054301017 -51.078252369468714,-7.752303035388032 -53.578252369473475,-7.082430054318108 -55.40837938840373,-5.252303035400361 -56.07825236949075,-2.7523030354001787 -55.408379388420826,-0.25230303539541676 -53.578252369503076,1.5778239835348427 -51.07825236950289,2.2476969646218583" stroke="#008000" stroke-linecap="round" stroke-linejoin="round"/><polyline fill="none" points="12.581901819050266,83.13568056884549 15.081901819055028,82.46580758777556 16.91202883798529,80.63568056885781 17.581901819072307,78.13568056885762 16.912028838002385,75.63568056885286 15.081901819084639,73.8055535499226 12.581901819084456,73.1356805688356 10.081901819079693,73.80555354990551 8.251774800149432,75.63568056882326 7.581901819062415,78.13568056882345 8.251774800132335,80.6356805688282 10.08190181905008,82.46580758775846 12.581901819050263,83.13568056884549" stroke="#ffa500" stroke-linecap="round" stroke-linejoin="round"/><polyline fill="none" points="68.16871932848724,66.93665983832177 70.668719328492,66.26678685725186 72.49884634742226,64.43665983833411 73.16871932850928,61.936659838333924 72.49884634743937,59.43665983832916 70.66871932852162,57.6065328193989 68.16871932852143,56.93665983831188 65.66871932851667,57.606532819381805 63.83859230958641,59.43665983829955 63.16871932849939,61.93665983829973 63.83859230956931,64.4366598383045 65.66871932848706,66.26678685723476 68.16871932848724,66.93665983832179" stroke="#ffa500" stroke-linecap="round" stroke-linejoin="round"/><polyline fill="none" points="-28.11179629352548,43.67790369261194 -25.611796293520715,43.00803071154203 -23.781669274590453,41.177903692624284 -23.11179629350343,38.6779036926241 -23.78166927457335,36.17790369261933 -25.611796293491093,34.34777667368907 -28.111796293491274,33.677903692602044 -30.611796293496038,34.34777667367196 -32.441923312426304,36.1779036925897 -33.11179629351333,38.67790369258989 -32.441923312443414,41.177903692594654 -30.61179629352567,43.008030711524924 -28.11179629352549,43.67790369261195" stroke="#ffa500" stroke-linecap="round" stroke-linejoin="round"/><polyline fill="none" points="-114.40935893682254,-0.4087401263747319 -111.90935893681778,-1.0786131074446472 -110.07923191788751,-2.908740126362389 -109.40935893680049,-5.40874012636257 -110.0792319178704,-7.908740126367337 -111.90935893678814,-9.738867145297604 -114.40935893678832,-10.408740126384629 -116.90935893679308,-9.738867145314716 -118.73948595572335,-7.9087401263969745 -119.40935893681038,-5.408740126396793 -118.73948595574046,-2.908740126392026 -116.90935893682273,-1.0786131074617573 -114.40935893682254,-0.40874012637473045" stroke="#00f" stroke-linecap="round" stroke-linejoin="round"/><polyline fill="none" points="-60.491590082959185,16.768985530382068 -57.99159008295442,16.099112549312157 -56.16146306402415,14.268985530394415 -55.49159008293712,11.768985530394232 -56.16146306400704,9.268985530389465 -57.99159008292478,7.438858511459195 -60.491590082924965,6.768985530372166 -62.99159008292973,7.438858511442078 -64.82171710186,9.268985530359817 -65.49159008294703,11.768985530359998 -64.82171710187711,14.268985530364768 -62.99159008295938,16.09911254929504 -60.49159008295919,16.76898553038207" stroke="#00f" stroke-linecap="round" stroke-linejoin="round"/><polyline fill="none" points="-18.268836877144775,49.61105314623372 -15.768836877140005,48.941180165163814 -13.938709858209734,47.11105314624608 -13.268836877122704,44.611053146245894 -13.938709858192613,42.111053146241126 -15.768836877110353,40.280926127310856 -18.268836877110534,39.611053146223824 -20.768836877115305,40.28092612729373 -22.59896389604558,42.11105314621147 -23.26883687713261,44.61105314621165 -22.598963896062703,47.11105314621642 -20.768836877144963,48.9411801651467 -18.268836877144782,49.61105314623373" stroke="#ffa500" stroke-linecap="round" stroke-linejoin="round"/><polyline fill="none" points="5.001168412251223,107.7097306945332 7.5011684122559945,107.0398577134633 9.33129543118627,105.20973069454557 10.001168412273303,102.70973069454539 9.331295431203397,100.20973069454061 7.501168412285661,98.37960367561034 5.0011684122854785,97.7097306945233 2.5011684122807067,98.3796036755932 0.6710413933504304,100.20973069451094 0.0011684122633948135,102.70973069451112 0.6710413933332997,105.2097306945159 2.501168412251036,107.03985771344618 5.001168412251218,107.70973069453322" stroke="#ffa500" stroke-linecap="round" stroke-linejoin="round"/><polyline fill="none" points="9.565268574805785,77.55239073829371 12.065268574810558,76.88251775722381 13.895395593740837,75.05239073830607 14.565268574827874,72.55239073830589 13.89539559375797,70.05239073830111 12.065268574840236,68.22226371937083 9.565268574840054,67.55239073828379 7.065268574835281,68.22226371935369 5.2351415559050025,70.05239073827143 4.5652685748179636,72.55239073827161 5.235141555887866,75.05239073827639 7.0652685748056,76.88251775720667 9.565268574805781,77.55239073829371" stroke="#ffa500" stroke-linecap="round" stroke-linejoin="round"/><polyline fill="none" points="39.59841648783521,25.248438419832397 42.098416487839984,24.578565438762496 43.92854350677027,22.74843841984476 44.59841648785731,20.24843841984458 43.928543506787406,17.748438419839804 42.09841648786967,15.918311400909523 39.598416487869486,15.248438419822483 37.09841648786471,15.918311400892383 35.26828946893443,17.748438419810117 34.59841648784739,20.2484384198103 35.26828946891729,22.748438419815074 37.098416487835024,24.578565438745358 39.59841648783521,25.2484384198324" stroke="#00f" stroke-linecap="round" stroke-linejoin="round"/><polyline fill="none" points="-60.58845160637776,-26.331465505388206 -58.088451606372985,-27.001338486458106 -56.2583245874427,-28.83146550537584 -55.588451606355655,-31.33146550537602 -56.258324587425555,-33.8314655053808 -58.088451606343284,-35.66159252431108 -60.58845160634347,-36.33146550539813 -63.088451606348244,-35.66159252432823 -64.91857862527853,-33.8314655054105 -65.58845160636557,-31.331465505410318 -64.91857862529567,-28.83146550540554 -63.08845160637794,-27.001338486475255 -60.58845160637775,-26.33146550538821" stroke="#00f" stroke-linecap="round" stroke-linejoin="round"/><polyline fill="none" points="-60.829287574960624,117.79593263708229 -58.32928757495585,117.12605965601239 -56.499160556025565,115.29593263709465 -55.82928757493852,112.79593263709447 -56.49916055600841,110.29593263708969 -58.32928757492614,108.46580561815941 -60.829287574926326,107.79593263707235 -63.3292875749311,108.46580561814226 -65.15941459386138,110.29593263705999 -65.82928757494844,112.79593263706018 -65.15941459387854,115.29593263706495 -63.32928757496081,117.12605965599523 -60.829287574960624,117.79593263708229" stroke="#ffa500" stroke-linecap="round" stroke-linejoin="round"/><polyline fill="none" points="-31.23876842099041,69.20304885417033 -28.738768420985632,68.53317587310043 -26.908641402055345,66.7030488541827 -26.238768420968295,64.20304885418251 -26.90864140203819,61.70304885417773 -28.738768420955918,59.87292183524744 -31.2387684209561,59.20304885416039 -33.73876842096088,59.87292183523029 -35.56889543989117,61.703048854148015 -36.238768420978225,64.2030488541482 -35.56889543990833,66.70304885415297 -33.7387684209906,68.53317587308325 -31.23876842099042,69.2030488541703" stroke="#ffa500" stroke-linecap="round" stroke-linejoin="round"/><polyline fill="none" points="-44.94127522663119,-26.347985160517325 -42.44127522662641,-27.01785814158722 -40.61114820769612,-28.847985160504948 -39.941275226609065,-31.34798516050513 -40.61114820767896,-33.84798516050991 -42.44127522659669,-35.6781121794402 -44.94127522659687,-36.34798516052725 -47.441275226601654,-35.67811217945736 -49.271402245531945,-33.84798516053963 -49.941275226619,-31.347985160539448 -49.271402245549105,-28.847985160534666 -47.441275226631376,-27.017858141604375 -44.94127522663119,-26.34798516051732" stroke="#f00" stroke-linecap="round" stroke-linejoin="round"/><polyline fill="none" points="45.177251389186665,8.743693649293805 47.67725138919145,8.073820668223915 49.50737840812174,6.243693649306188 50.17725138920879,3.7436936493060067 49.507378408138905,1.2436936493012265 47.677251389221176,-0.5864333696290656 45.177251389221,-1.2563063507161196 42.67725138921622,-0.5864333696462308 40.847124370285925,1.2436936492714956 40.17725138919887,3.743693649271677 40.84712437026876,6.243693649276458 42.67725138918649,8.073820668206752 45.177251389186665,8.743693649293807" stroke="#008000" stroke-linecap="round" stroke-linejoin="round"/><polyline fill="none" points="-37.980045855177124,91.37809892921963 -35.48004585517234,90.70822594814975 -33.64991883624205,88.87809892923202 -32.980045855155,86.37809892923184 -33.649918836224884,83.87809892922705 -35.48004585514261,82.04797191029675 -37.9800458551428,81.3780989292097 -40.48004585514758,82.04797191027959 -42.31017287407788,83.87809892919731 -42.98004585516494,86.37809892919749 -42.31017287409505,88.87809892920228 -40.48004585517733,90.70822594813258 -37.980045855177146,91.37809892921963" stroke="#ffa500" stroke-linecap="round" stroke-linejoin="round"/><polyline fill="none" points="-47.768287630217245,88.75534745027697 -45.26828763021246,88.08547446920709 -43.438160611282164,86.25534745028936 -42.768287630195104,83.75534745028918 -43.43816061126499,81.25534745028439 -45.26828763018271,79.42522043135409 -47.7682876301829,78.75534745026702 -50.26828763018768,79.42522043133691 -52.09841464911798,81.25534745025463 -52.76828763020504,83.75534745025482 -52.09841464913516,86.2553474502596 -50.268287630217436,88.0854744691899 -47.76828763021725,88.75534745027697" stroke="#ffa500" stroke-linecap="round" stroke-linejoin="round"/><polyline fill="none" points="-68.11452167798912,80.4580183314427 -65.61452167798433,79.78814535037282 -63.78439465905403,77.9580183314551 -63.11452167796697,75.45801833145491 -63.78439465903685,72.95801833145012 -65.61452167795457,71.12789131251982 -68.11452167795476,70.45801833143275 -70.61452167795954,71.12789131250264 -72.44464869688984,72.95801833142036 -73.11452167797691,75.45801833142055 -72.44464869690702,77.95801833142534 -70.6145216779893,79.78814535035563 -68.11452167798912,80.4580183314427" stroke="#00f" stroke-linecap="round" stroke-linejoin="round"/><polyline fill="none" points="-46.66192626456005,43.16438688047716 -44.16192626455526,42.49451389940728 -42.33179924562496,40.66438688048956 -41.66192626453789,38.164386880489374 -42.33179924560777,35.664386880484585 -44.16192626452549,33.83425986155428 -46.661926264525675,33.16438688046721 -49.161926264530464,33.83425986153709 -50.99205328346077,35.66438688045481 -51.66192626454784,38.164386880455 -50.99205328347796,40.66438688045979 -49.161926264560236,42.49451389939009 -46.66192626456005,43.16438688047716" stroke="#00f" stroke-linecap="round" stroke-linejoin="round"/><polyline fill="none" points="-48.15149017465507,104.06675858014954 -45.651490174650284,103.39688559907967 -43.82136315571998,101.56675858016195 -43.15149017463291,99.06675858016176 -43.82136315570279,96.56675858015697 -45.65149017462051,94.73663156122666 -48.1514901746207,94.06675858013959 -50.651490174625486,94.73663156120946 -52.48161719355579,96.56675858012719 -53.15149017464286,99.06675858012737 -52.48161719357298,101.56675858013216 -50.65149017465526,103.39688559906247 -48.15149017465507,104.06675858014954" stroke="#ffa500" stroke-linecap="round" stroke-linejoin="round"/><polyline fill="none" points="70.73280539175887,16.104672886362955 73.23280539176366,15.43479990529308 75.06293241069397,13.604672886375361 75.73280539178104,11.10467288637518 75.06293241071117,8.604672886370391 73.23280539179345,6.774545867440084 70.73280539179326,6.104672886353013 68.23280539178847,6.774545867422887 66.40267837285816,8.604672886340605 65.7328053917711,11.104672886340786 66.40267837284097,13.604672886345577 68.23280539175869,15.434799905275886 70.73280539175887,16.10467288636296" stroke="#00f" stroke-linecap="round" stroke-linejoin="round"/><polyline fill="none" points="-86.17710620359242,33.43245056297577 -83.67710620358763,32.762577581905894 -81.84697918465731,30.932450562988176 -81.17710620357025,28.432450562987995 -81.84697918464012,25.932450562983203 -83.67710620355784,24.102323544052894 -86.17710620355803,23.43245056296582 -88.67710620356281,24.10232354403569 -90.50723322249313,25.93245056295341 -91.17710620358021,28.43245056295359 -90.50723322251034,30.932450562958383 -88.67710620359261,32.76257758188869 -86.17710620359243,33.43245056297577" stroke="#ffa500" stroke-linecap="round" stroke-linejoin="round"/><polyline fill="none" points="-109.78017450378363,57.268232480163455 -107.28017450377884,56.59835949909358 -105.45004748484853,54.76823248017587 -104.78017450376144,52.26823248017568 -105.45004748483132,49.76823248017089 -107.28017450374904,47.938105461240575 -109.78017450374922,47.2682324801535 -112.28017450375401,47.93810546122337 -114.11030152268432,49.76823248014109 -114.7801745037714,52.26823248014127 -114.11030152270153,54.76823248014607 -112.28017450378381,56.59835949907638 -109.78017450378363,57.26823248016346" stroke="#ffa500" stroke-linecap="round" stroke-linejoin="round"/><polyline fill="none" points="-103.06632703193429,12.625241521591915 -100.5663270319295,11.955368540522047 -98.73620001299919,10.125241521604332 -98.06632703191211,7.625241521604149 -98.73620001298198,5.125241521599355 -100.56632703189969,3.2951145026690396 -103.06632703189987,2.62524152158196 -105.56632703190466,3.2951145026518267 -107.39645405083498,5.125241521569541 -108.06632703192206,7.625241521569723 -107.39645405085218,10.125241521574518 -105.56632703193448,11.955368540504834 -103.06632703193429,12.625241521591915" stroke="#ffa500" stroke-linecap="round" stroke-linejoin="round"/><polyline fill="none" points="-56.78524783364802,-33.70474359215261 -54.285247833643226,-34.374616573222475 -52.455120814712906,-36.20474359214019 -51.785247833625824,-38.704743592140375 -52.45512081469569,-41.20474359214517 -54.285247833613404,-43.03487061107549 -56.78524783361359,-43.70474359216257 -59.285247833618385,-43.03487061109271 -61.115374852548705,-41.20474359217499 -61.785247833635786,-38.70474359217481 -61.11537485256592,-36.20474359217001 -59.28524783364821,-34.37461657323969 -56.78524783364802,-33.70474359215261" stroke="#00f" stroke-linecap="round" stroke-linejoin="round"/><polyline fill="none" points="-77.3747874070818,52.011250433682314 -74.87478740707701,51.34137745261245 -73.0446603881467,49.511250433694734 -72.37478740705961,47.01125043369455 -73.04466038812947,44.51125043368975 -74.87478740704718,42.68112341475943 -77.37478740704736,42.01125043367235 -79.87478740705217,42.68112341474222 -81.7049144259825,44.51125043365993 -82.37478740706958,47.011250433660116 -81.70491442599972,49.51125043366491 -79.87478740708201,51.34137745259523 -77.37478740708183,52.01125043368232" stroke="#ffa500" stroke-linecap="round" stroke-linejoin="round"/><polyline fill="none" points="-68.42903802550518,-56.68679445590887 -65.92903802550038,-57.356667436978725 -64.09891100657005,-59.18679445589643 -63.42903802548296,-61.68679445589662 -64.09891100655283,-64.18679445590142 -65.92903802547053,-66.01692147483175 -68.42903802547072,-66.68679445591883 -70.92903802547552,-66.01692147484897 -72.75916504440585,-64.18679445593126 -73.42903802549293,-61.68679445593108 -72.75916504442307,-59.18679445592628 -70.92903802550536,-57.35666743699596 -68.42903802550518,-56.686794455908874" stroke="#ffa500" stroke-linecap="round" stroke-linejoin="round"/><polyline fill="none" points="-14.134847552422753,35.80715267099284 -11.634847552417954,35.137279689922984 -9.80472053348763,33.30715267100528 -9.13484755240054,30.807152671005095 -9.804720533470398,28.307152671000296 -11.634847552388107,26.477025652069972 -14.13484755238829,25.80715267098288 -16.63484755239309,26.47702565205274 -18.464974571323417,28.307152670970446 -19.13484755241051,30.807152670970627 -18.46497457134065,33.30715267097543 -16.634847552422944,35.13727968990575 -14.13484755242276,35.80715267099284" stroke="#ffa500" stroke-linecap="round" stroke-linejoin="round"/><polyline fill="none" points="-28.41587149847844,58.6486077922821 -25.915871498473642,57.97873481121224 -24.085744479543315,56.148607792294534 -23.415871498456223,53.64860779229435 -24.085744479526078,51.148607792289546 -25.915871498443785,49.31848077335922 -28.415871498443966,48.648607792272124 -30.915871498448766,49.31848077334198 -32.74599851737909,51.14860779225969 -33.41587149846619,53.648607792259874 -32.74599851739634,56.14860779226468 -30.91587149847863,57.978734811195004 -28.41587149847845,58.6486077922821" stroke="#00f" stroke-linecap="round" stroke-linejoin="round"/><polyline fill="none" points="-42.49067444721967,15.889039442300717 -39.990674447214865,15.219166461230865 -38.16054742828454,13.389039442313159 -37.49067444719744,10.889039442312978 -38.16054742826729,8.389039442308174 -39.990674447185,6.558912423377845 -42.490674447185185,5.889039442290748 -44.99067444718999,6.558912423360601 -46.820801466120315,8.389039442278307 -47.49067444720741,10.889039442278488 -46.82080146613756,13.389039442283291 -44.99067444721985,15.219166461213621 -42.49067444721967,15.889039442300719" stroke="#00f" stroke-linecap="round" stroke-linejoin="round"/><polyline fill="none" points="-38.130575295539394,-9.137422380257576 -35.63057529553459,-9.807295361327427 -33.80044827660426,-11.63742238024513 -33.13057529551716,-14.137422380245312 -33.80044827658701,-16.637422380250115 -35.63057529550471,-18.467549399180445 -38.1305752955049,-19.137422380267544 -40.6305752955097,-18.467549399197694 -42.460702314440034,-16.63742238027999 -43.13057529552714,-14.137422380279808 -42.460702314457286,-11.637422380275005 -40.630575295539586,-9.807295361344671 -38.1305752955394,-9.13742238025757" stroke="#00f" stroke-linecap="round" stroke-linejoin="round"/><polyline fill="none" points="-104.82238888147032,88.27557722869054 -102.32238888146551,87.6057042476207 -100.49226186253519,85.77557722870299 -99.82238888144809,83.2755772287028 -100.49226186251794,80.775577228698 -102.32238888143564,78.94545020976766 -104.82238888143583,78.27557722868056 -107.32238888144063,78.9454502097504 -109.15251590037097,80.77557722866811 -109.82238888145808,83.2755772286683 -109.15251590038824,85.7755772286731 -107.32238888147053,87.60570424760344 -104.82238888147035,88.27557722869055" stroke="#ffa500" stroke-linecap="round" stroke-linejoin="round"/><polyline fill="none" points="-146.6636766094713,-36.93416234037813 -144.1636766094665,-37.604035321447974 -142.33354959053617,-39.434162340365674 -141.66367660944906,-41.93416234036586 -142.3335495905189,-44.43416234037066 -144.1636766094366,-46.264289359300996 -146.66367660943678,-46.9341623403881 -149.16367660944158,-46.264289359318255 -150.99380362837192,-44.434162340400555 -151.66367660945903,-41.93416234040038 -150.9938036283892,-39.434162340395574 -149.1636766094715,-37.60403532146523 -146.66367660947134,-36.93416234037812" stroke="#ffa500" stroke-linecap="round" stroke-linejoin="round"/><polyline fill="none" points="-64.33273941476313,45.53199545459111 -61.832739414758315,44.86212247352127 -60.002612395827974,43.03199545460357 -59.332739414740864,40.53199545460338 -60.00261239581071,38.03199545459857 -61.83273941472841,36.20186843566823 -64.3327394147286,35.53199545458112 -66.8327394147334,36.201868435650965 -68.66286643366374,38.031995454568666 -69.33273941475085,40.53199545456885 -68.662866433681,43.03199545457366 -66.83273941476331,44.862122473504 -64.33273941476313,45.53199545459111" stroke="#ffa500" stroke-linecap="round" stroke-linejoin="round"/><polyline fill="none" points="-107.86581159432166,79.09104445566688 -105.36581159431685,78.42117147459703 -103.53568457538651,76.59104445567934 -102.8658115942994,74.09104445567915 -103.53568457536925,71.59104445567435 -105.36581159428694,69.76091743674401 -107.86581159428712,69.0910444556569 -110.36581159429193,69.76091743672674 -112.19593861322227,71.59104445564444 -112.86581159430938,74.09104445564462 -112.19593861323953,76.59104445564944 -110.36581159432184,78.42117147457978 -107.86581159432166,79.09104445566689" stroke="#ffa500" stroke-linecap="round" stroke-linejoin="round"/><polyline fill="none" points="-41.12811879602495,-10.089413163452608 -38.62811879602014,-10.759286144522447 -36.79799177708979,-12.589413163440145 -36.128118796002674,-15.089413163440328 -36.79799177707251,-17.58941316344514 -38.62811879599021,-19.419540182375485 -41.128118795990396,-20.0894131634626 -43.628118795995206,-19.419540182392762 -45.458245814925554,-17.589413163475065 -46.12811879601267,-15.089413163474882 -45.458245814942835,-12.58941316347007 -43.628118796025134,-10.759286144539724 -41.12811879602495,-10.089413163452608" stroke="#00f" stroke-linecap="round" stroke-linejoin="round"/><polyline fill="none" points="-93.33027662648153,-47.50301349646719 -90.83027662647672,-48.17288647753703 -89.00014960754638,-50.00301349645472 -88.33027662645927,-52.503013496454905 -89.0001496075291,-55.003013496459715 -90.83027662644679,-56.83314051539006 -93.33027662644697,-57.50301349647718 -95.83027662645179,-56.833140515407344 -97.66040364538213,-55.00301349648965 -98.33027662646926,-52.503013496489466 -97.66040364539943,-50.003013496484655 -95.83027662648173,-48.17288647755431 -93.33027662648155,-47.50301349646719" stroke="#00f" stroke-linecap="round" stroke-linejoin="round"/><polyline fill="none" points="-42.76165647751457,-62.46739121649098 -40.26165647750976,-63.13726419756082 -38.43152945857941,-64.96739121647852 -37.761656477492295,-67.4673912164787 -38.431529458562125,-69.96739121648352 -40.26165647747982,-71.79751823541388 -42.76165647748,-72.467391216501 -45.26165647748482,-71.79751823543117 -47.09178349641517,-69.96739121651348 -47.761656477502285,-67.46739121651329 -47.091783496432456,-64.96739121650847 -45.26165647751476,-63.137264197578126 -42.76165647751458,-62.467391216491" stroke="#ffa500" stroke-linecap="round" stroke-linejoin="round"/><polyline fill="none" points="-89.88130206091449,20.5304679092182 -87.38130206090968,19.86059492814837 -85.55117504197932,18.030467909230676 -84.8813020608922,15.530467909230493 -85.55117504196203,13.030467909225678 -87.38130206087972,11.200340890295324 -89.8813020608799,10.530467909208202 -92.38130206088472,11.200340890278031 -94.21142907981508,13.030467909195725 -94.8813020609022,15.530467909195908 -94.21142907983237,18.030467909200723 -92.38130206091468,19.86059492813108 -89.88130206091449,20.530467909218203" stroke="#ffa500" stroke-linecap="round" stroke-linejoin="round"/><polyline fill="none" points="-109.02474457328994,65.53814147011153 -106.52474457328512,64.8682684890417 -104.69461755435476,63.038141470124 -104.02474457326764,60.53814147012382 -104.69461755433747,58.038141470119 -106.52474457325516,56.208014451188646 -109.02474457325535,55.53814147010152 -111.52474457326016,56.20801445117135 -113.35487159219052,58.038141470089045 -114.02474457327764,60.53814147008923 -113.35487159220781,63.03814147009405 -111.52474457329012,64.8682684890244 -109.02474457328994,65.53814147011153" stroke="#ffa500" stroke-linecap="round" stroke-linejoin="round"/><polyline fill="none" points="14.676122506744063,8.773401487947165 17.176122506748882,8.103528506877339 19.00624952567924,6.273401487959647 19.67612250676637,3.7734014879594624 19.006249525696543,1.2734014879546418 17.17612250677885,-0.5567255309757166 14.676122506778665,-1.2265985120628455 12.176122506773844,-0.5567255309930199 10.345995487843485,1.2734014879246718 9.676122506756355,3.773401487924856 10.34599548782618,6.273401487929677 12.176122506743871,8.103528506860037 14.676122506744056,8.773401487947167" stroke="#00f" stroke-linecap="round" stroke-linejoin="round"/><polyline fill="none" points="-127.56326761494088,10.249906571296997 -125.06326761493607,9.580033590227172 -123.23314059600571,7.749906571309481 -122.56326761491859,5.249906571309296 -123.23314059598842,2.7499065713044746 -125.06326761490611,0.9197795523741141 -127.5632676149063,0.2499065712869828 -130.06326761491113,0.9197795523568061 -131.8933946338415,2.7499065712744963 -132.56326761492863,5.24990657127468 -131.8933946338588,7.749906571279503 -130.0632676149411,9.580033590209865 -127.56326761494093,10.249906571296998" stroke="#ffa500" stroke-linecap="round" stroke-linejoin="round"/><polyline fill="none" points="-61.45059198177078,-24.224473657806776 -58.95059198176595,-24.8943466388766 -57.12046496283559,-26.724473657794288 -56.45059198174846,-29.224473657794473 -57.12046496281828,-31.724473657799294 -58.95059198173597,-33.554600676729656 -61.45059198173615,-34.22447365781679 -63.95059198174098,-33.554600676746965 -65.78071900067134,-31.724473657829275 -66.45059198175848,-29.22447365782909 -65.78071900068866,-26.724473657824266 -63.95059198177098,-24.8943466388939 -61.45059198177079,-24.224473657806765" stroke="#00f" stroke-linecap="round" stroke-linejoin="round"/><polyline fill="none" points="-147.50303177437397,-68.54790611365136 -145.00303177436913,-69.21777909472118 -143.17290475543876,-71.04790611363887 -142.50303177435163,-73.54790611363906 -143.17290475542146,-76.04790611364389 -145.00303177433915,-77.87803313257426 -147.50303177433935,-78.5479061136614 -150.00303177434418,-77.87803313259158 -151.83315879327455,-76.04790611367389 -152.5030317743617,-73.5479061136737 -151.83315879329186,-71.04790611366887 -150.00303177437416,-69.2177790947385 -147.50303177437397,-68.54790611365136" stroke="#ffa500" stroke-linecap="round" stroke-linejoin="round"/><polyline fill="none" points="-62.06248837094224,-30.498862746702734 -59.562488370937416,-31.168735727772553 -57.73236135200705,-32.99886274669024 -57.06248837091991,-35.49886274669043 -57.732361351989724,-37.99886274669525 -59.56248837090741,-39.82898976562562 -62.062488370907595,-40.49886274671276 -64.56248837091242,-39.828989765642945 -66.39261538984279,-37.99886274672526 -67.06248837092993,-35.498862746725074 -66.39261538986011,-32.99886274672025 -64.56248837094242,-31.16873572778988 -62.06248837094223,-30.498862746702738" stroke="#008000" stroke-linecap="round" stroke-linejoin="round"/><polyline fill="none" points="-64.99587857117015,9.105449730707264 -62.49587857116533,8.435576749637448 -60.66575155223496,6.605449730719763 -59.99587857114781,4.105449730719578 -60.66575155221763,1.6054497307147506 -62.495878571135314,-0.2246772882156196 -64.99587857113549,-0.8945502693027623 -67.49587857114032,-0.22467728823294875 -69.3260055900707,1.6054497306847355 -69.99587857115783,4.105449730684919 -69.32600559008802,6.605449730689747 -67.49587857117034,8.435576749620118 -64.99587857117015,9.105449730707262" stroke="#ffa500" stroke-linecap="round" stroke-linejoin="round"/><polyline fill="none" points="-23.08737675860635,-16.656278046244775 -20.587376758601522,-17.326151027314587 -18.75724973967115,-19.15627804623227 -18.087376758584004,-21.656278046232455 -18.757249739653815,-24.156278046237283 -20.587376758571498,-25.986405065167656 -23.087376758571683,-26.6562780462548 -25.58737675857651,-25.98640506518499 -27.417503777506884,-24.156278046267307 -28.08737675859403,-21.656278046267122 -27.417503777524217,-19.156278046262294 -25.587376758606535,-17.32615102733192 -23.08737675860635,-16.656278046244775" stroke="#ffa500" stroke-linecap="round" stroke-linejoin="round"/><polyline fill="none" points="-106.13561102031987,-63.19322173586258 -103.63561102031504,-63.86309471693239 -101.80548400138467,-65.69322173585007 -101.13561102029752,-68.19322173585026 -101.80548400136733,-70.69322173585509 -103.63561102028501,-72.52334875478546 -106.1356110202852,-73.19322173587261 -108.63561102029003,-72.5233487548028 -110.4657380392204,-70.69322173588512 -111.13561102030755,-68.19322173588493 -110.46573803923775,-65.6932217358801 -108.63561102032007,-63.863094716949725 -106.13561102031989,-63.19322173586257" stroke="#ffa500" stroke-linecap="round" stroke-linejoin="round"/><polyline fill="none" points="-88.55040983386328,-37.45782874675426 -86.05040983385845,-38.12770172782407 -84.22028281492807,-39.95782874674175 -83.55040983384092,-42.45782874674193 -84.22028281491072,-44.95782874674676 -86.0504098338284,-46.78795576567714 -88.55040983382858,-47.45782874676429 -91.05040983383341,-46.787955765694484 -92.8805368527638,-44.957828746776805 -93.55040983385095,-42.45782874677662 -92.88053685278115,-39.95782874677179 -91.05040983386347,-38.12770172784141 -88.55040983386328,-37.45782874675426" stroke="#00f" stroke-linecap="round" stroke-linejoin="round"/><polyline fill="none" points="-58.59946167033537,-84.35956701120546 -56.09946167033054,-85.02943999227526 -54.269334651400165,-86.85956701119294 -53.59946167031301,-89.35956701119312 -54.26933465138282,-91.85956701119795 -56.0994616703005,-93.68969403012834 -58.599461670300684,-94.35956701121549 -61.099461670305516,-93.68969403014569 -62.9295886892359,-91.85956701122801 -63.59946167032305,-89.35956701122782 -62.92958868925325,-86.85956701122299 -61.09946167033557,-85.02943999229261 -58.59946167033539,-84.35956701120546" stroke="#ffa500" stroke-linecap="round" stroke-linejoin="round"/><polyline fill="none" points="-40.24960186717125,-44.36659290273631 -37.74960186716642,-45.03646588380611 -35.919474848236035,-46.86659290272379 -35.24960186714888,-49.36659290272397 -35.919474848218684,-51.866592902728804 -37.74960186713636,-53.69671992165919 -40.24960186713655,-54.36659290274635 -42.74960186714138,-53.69671992167655 -44.57972888607176,-51.86659290275887 -45.24960186715892,-49.36659290275868 -44.57972888608912,-46.86659290275385 -42.74960186717144,-45.03646588382347 -40.24960186717126,-44.36659290273631" stroke="#008000" stroke-linecap="round" stroke-linejoin="round"/><polyline fill="none" points="-75.27417030980439,-16.87220490967456 -72.77417030979956,-17.542077890744363 -70.94404329086917,-19.372204909662038 -70.27417030978202,-21.872204909662223 -70.94404329085182,-24.372204909667058 -72.7741703097695,-26.20233192859744 -75.27417030976969,-26.8722049096846 -77.77417030977452,-26.202331928614804 -79.6042973287049,-24.37220490969713 -80.27417030979207,-21.872204909696944 -79.60429732872227,-19.37220490969211 -77.77417030980459,-17.54207789076172 -75.2741703098044,-16.87220490967456" stroke="#ffa500" stroke-linecap="round" stroke-linejoin="round"/><polyline fill="none" points="-113.86678751035753,-23.723478858809273 -111.3667875103527,-24.39335183987907 -109.53666049142231,-26.223478858796746 -108.86678751033514,-28.72347885879693 -109.53666049140494,-31.22347885880177 -111.36678751032262,-33.05360587773216 -113.86678751032281,-33.72347885881932 -116.36678751032764,-33.053605877749526 -118.19691452925802,-31.22347885883185 -118.86678751034519,-28.723478858831665 -118.19691452927539,-26.223478858826827 -116.36678751035771,-24.39335183989644 -113.86678751035753,-23.723478858809276" stroke="#ffa500" stroke-linecap="round" stroke-linejoin="round"/><polyline fill="none" points="37.904645572088086,-28.546046466029075 40.404645572092925,-29.21591944709887 42.234772591023315,-31.046046466016545 42.90464557211048,-33.546046466016726 42.23477259104069,-36.046046466021565 40.404645572123016,-37.876173484951956 37.90464557212283,-38.54604646603912 35.40464557211799,-37.87617348496933 33.5745185531876,-36.046046466051656 32.904645572100435,-33.54604646605147 33.57451855317023,-31.046046466046633 35.4046455720879,-29.215919447116242 37.904645572088086,-28.546046466029075" stroke="#ffa500" stroke-linecap="round" stroke-linejoin="round"/><polyline fill="none" points="-126.25101069294176,-59.21069274931867 -123.75101069293692,-59.88056573038846 -121.92088367400652,-61.71069274930613 -121.25101069291935,-64.21069274930632 -121.92088367398914,-66.71069274931116 -123.75101069290682,-68.54081976824156 -126.251010692907,-69.21069274932873 -128.75101069291185,-68.54081976825894 -130.58113771184225,-66.71069274934126 -131.2510106929294,-64.21069274934108 -130.5811377118596,-61.71069274933624 -128.75101069294195,-59.88056573040585 -126.25101069294176,-59.21069274931868" stroke="#00f" stroke-linecap="round" stroke-linejoin="round"/><polyline fill="none" points="32.767655426632786,-25.282095766533754 35.267655426637624,-25.951968747603544 37.09778244556802,-27.782095766521216 37.767655426655196,-30.2820957665214 37.09778244558541,-32.78209576652624 35.26765542666774,-34.61222278545664 32.76765542666755,-35.28209576654381 30.26765542666271,-34.612222785474025 28.437528407732316,-32.78209576655635 27.767655426645145,-30.282095766556168 28.437528407714932,-27.782095766551326 30.267655426632604,-25.951968747620928 32.767655426632786,-25.282095766533754" stroke="#00f" stroke-linecap="round" stroke-linejoin="round"/><polyline fill="none" points="-64.98931633298096,-52.1141688217985 -62.48931633297612,-52.78404180286829 -60.65918931404572,-54.61416882178596 -59.989316332958545,-57.114168821786144 -60.65918931402833,-59.61416882179099 -62.489316332946004,-61.44429584072139 -64.98931633294619,-62.11416882180856 -67.48931633295103,-61.444295840738775 -69.31944335188143,-59.6141688218211 -69.98931633296861,-57.11416882182092 -69.31944335189883,-54.61416882181607 -67.48931633298116,-52.784041802885675 -64.98931633298098,-52.1141688217985" stroke="#ffa500" stroke-linecap="round" stroke-linejoin="round"/><polyline fill="none" points="-72.52606411068443,-48.662867271349704 -70.02606411067958,-49.33274025241949 -68.19593709174919,-51.162867271337156 -67.526064110662,-53.66286727133734 -68.19593709173179,-56.162867271342186 -70.02606411064946,-57.992994290272584 -72.52606411064964,-58.66286727135976 -75.02606411065449,-57.99299429028997 -76.85619112958489,-56.162867271372306 -77.52606411067207,-53.66286727137212 -76.85619112960228,-51.162867271367276 -75.02606411068462,-49.33274025243688 -72.52606411068443,-48.6628672713497" stroke="#ffa500" stroke-linecap="round" stroke-linejoin="round"/><polyline fill="none" points="-100.5558453000779,-32.47822327424289 -98.05584530007306,-33.14809625531267 -96.22571828114266,-34.97822327423034 -95.55584530005548,-37.47822327423052 -96.22571828112527,-39.97822327423537 -98.05584530004293,-41.80835029316577 -100.55584530004312,-42.478223274252954 -103.05584530004796,-41.808350293183175 -104.88597231897836,-39.97822327426551 -105.55584530006554,-37.478223274265325 -104.88597231899575,-34.97822327426048 -103.05584530007809,-33.148096255330074 -100.5558453000779,-32.47822327424289" stroke="#ffa500" stroke-linecap="round" stroke-linejoin="round"/><polyline fill="none" points="-59.795613481638526,-55.15403106241289 -57.29561348163368,-55.82390404348267 -55.465486462703275,-57.654031062400335 -54.795613481616094,-60.15403106240052 -55.465486462685874,-62.654031062405366 -57.29561348160354,-64.48415808133576 -59.79561348160372,-65.15403106242294 -62.29561348160857,-64.48415808135317 -64.12574050053898,-62.65403106243551 -64.79561348162616,-60.15403106243532 -64.12574050055639,-57.65403106243048 -62.295613481638725,-55.82390404350007 -59.79561348163854,-55.15403106241289" stroke="#00f" stroke-linecap="round" stroke-linejoin="round"/><polyline fill="none" points="-11.17843647938804,47.916974100784934 -8.67843647938319,47.247101119715154 -6.848309460452784,45.41697410079749 -6.178436479365599,42.916974100797304 -6.8483094604353765,40.41697410079246 -8.67843647935304,38.586847081862054 -11.178436479353225,37.916974100774866 -13.678436479358075,38.586847081844645 -15.508563498288483,40.41697410076231 -16.17843647937567,42.916974100762495 -15.508563498305893,45.41697410076735 -13.67843647938823,47.24710111969776 -11.178436479388045,47.91697410078495" stroke="#00f" stroke-linecap="round" stroke-linejoin="round"/><polyline fill="none" points="-45.190737646144804,-10.656575581343139 -42.69073764613995,-11.326448562412915 -40.86061062720954,-13.156575581330578 -40.19073764612235,-15.656575581330763 -40.86061062719212,-18.156575581335613 -42.69073764610979,-19.98670260026602 -45.19073764610997,-20.65657558135321 -47.690737646114826,-19.986702600283436 -49.52086466504524,-18.156575581365775 -50.190737646132426,-15.65657558136559 -49.52086466506265,-13.156575581360741 -47.69073764614499,-11.32644856243033 -45.190737646144804,-10.65657558134314" stroke="#ffa500" stroke-linecap="round" stroke-linejoin="round"/><polyline fill="none" points="-38.8120018937939,-0.7379572833685275 -36.312001893789045,-1.4078302644383007 -34.48187487485863,-3.2379572833559616 -33.812001893771445,-5.737957283356145 -34.48187487484122,-8.237957283360997 -36.312001893758875,-10.068084302291409 -38.81200189375906,-10.737957283378599 -41.31200189376391,-10.068084302308826 -43.142128912694325,-8.237957283391165 -43.81200189378151,-5.73795728339098 -43.14212891271174,-3.2379572833861276 -41.31200189379408,-1.4078302644557146 -38.8120018937939,-0.7379572833685225" stroke="#008000" stroke-linecap="round" stroke-linejoin="round"/><polyline fill="none" points="-84.56012099782757,-78.28190962028135 -82.06012099782272,-78.95178260135113 -80.22999397889231,-80.78190962026879 -79.56012099780511,-83.28190962026898 -80.22999397887489,-85.78190962027384 -82.06012099779255,-87.61203663920425 -84.56012099779274,-88.28190962029144 -87.0601209977976,-87.61203663922167 -88.89024801672801,-85.781909620304 -89.5601209978152,-83.28190962030382 -88.89024801674543,-80.78190962029896 -87.06012099782777,-78.95178260136855 -84.56012099782758,-78.28190962028135" stroke="#ffa500" stroke-linecap="round" stroke-linejoin="round"/><polyline fill="none" points="122.48157186392321,-107.52890093718428 124.98157186392807,-108.19877391825405 126.81169888285848,-110.02890093717171 127.48157186394567,-112.5289009371719 126.8116988828759,-115.02890093717676 124.98157186395824,-116.85902795610717 122.48157186395805,-117.52890093719436 119.98157186395319,-116.85902795612459 118.15144484502278,-115.02890093720693 117.48157186393559,-112.52890093720674 118.15144484500536,-110.02890093720188 119.98157186392302,-108.19877391827147 122.48157186392321,-107.52890093718428" stroke="#ffa500" stroke-linecap="round" stroke-linejoin="round"/></svg>