<?xml version="1.0" ?><!DOCTYPE svg  PUBLIC '-//W3C//DTD SVG 1.1//EN'  'http://www.w3.org/Graphics/SVG/1.1/DTD/svg11.dtd'><svg height="234.000" viewBox="-179.000 -121.000 403.000 234.000" width="403.000" xmlns="http://www.w3.org/2000/svg"><line fill="none" stroke="none" stroke-linecap="round" stroke-width="2.0" x1="0.0" x2="0.0" y1="0.0" y2="0.0"/><polygon fill="none" fill-rule="evenodd" points="0.0,0.0 0.0,0.0 0.0,0.0" stroke-linejoin="round"/><polyline fill="none" points="-99.40346701847554,-25.60381751709298 -96.90346701846687,-26.273690498156345 -95.07333999952995,-28.103817517070368 -94.4034670184353,-30.603817517070656 -95.07333999949866,-33.10381751707933 -96.90346701841268,-34.933944536016256 -99.40346701841297,-35.603817517110905 -101.90346701842164,-34.93394453604754 -103.73359403735856,-33.10381751713352 -104.40346701845321,-30.603817517133233 -103.73359403738985,-28.10381751712456 -101.90346701847582,-26.273690498187634 -99.40346701847554,-25.60381751709298" stroke="#00f" stroke-linecap="round" stroke-linejoin="round"/><polyline fill="none" points="-109.23807110010988,-50.74019007795466 -106.73807110010121,-51.41006305901802 -104.90794408116427,-53.24019007793204 -104.23807110006962,-55.74019007793233 -104.90794408113298,-58.24019007794101 -106.738071100047,-60.070317096877936 -109.23807110004728,-60.74019007797259 -111.73807110005595,-60.070317096909235 -113.56819811899288,-58.240190077995216 -114.23807110008754,-55.740190077994924 -113.56819811902417,-53.24019007798625 -111.73807110011016,-51.41006305904932 -109.23807110010988,-50.740190077954665" stroke="#008000" stroke-linecap="round" stroke-linejoin="round"/><polyline fill="none" points="-84.50739656592482,-74.40335713068488 -82.00739656591615,-75.07323011174825 -80.17726954697922,-76.90335713066226 -79.50739656588456,-79.40335713066254 -80.17726954694793,-81.90335713067121 -82.00739656586194,-83.73348414960815 -84.50739656586222,-84.4033571307028 -87.00739656587089,-83.73348414963944 -88.83752358480783,-81.90335713072542 -89.50739656590248,-79.40335713072514 -88.83752358483912,-76.90335713071646 -87.0073965659251,-75.07323011177952 -84.50739656592482,-74.40335713068487" stroke="#ffa500" stroke-linecap="round" stroke-linejoin="round"/><polyline fill="none" points="-92.57447198307268,-52.396545387599886 -90.074471983064,-53.06641836866324 -88.24434496412707,-54.89654538757726 -87.57447198303241,-57.396545387577554 -88.24434496409577,-59.89654538758623 -90.07447198300979,-61.726672406523164 -92.57447198301007,-62.39654538761783 -95.07447198301875,-61.72667240655447 -96.90459900195569,-59.89654538764045 -97.57447198305034,-57.39654538764016 -96.904599001987,-54.896545387631484 -95.07447198307298,-53.06641836869455 -92.5744719830727,-52.396545387599886" stroke="#008000" stroke-linecap="round" stroke-linejoin="round"/><polyline fill="none" points="-114.00970321811276,-12.72826617934684 -111.50970321810408,-13.398139160410194 -109.67957619916714,-15.22826617932421 -109.00970321807249,-17.7282661793245 -109.67957619913584,-20.228266179333176 -111.50970321804985,-22.05839319827011 -114.00970321805013,-22.728266179364773 -116.50970321805882,-22.05839319830142 -118.33983023699575,-20.228266179387404 -119.00970321809041,-17.728266179387116 -118.33983023702706,-15.228266179378439 -116.50970321811305,-13.398139160441502 -114.00970321811276,-12.72826617934684" stroke="#00f" stroke-linecap="round" stroke-linejoin="round"/><polyline fill="none" points="-108.15915951752406,-79.30508926335396 -105.65915951751538,-79.97496224441731 -103.82903249857844,-81.80508926333133 -103.15915951748377,-84.30508926333161 -103.82903249854712,-86.80508926334029 -105.65915951746113,-88.63521628227723 -108.15915951746142,-89.3050892633719 -110.6591595174701,-88.63521628230855 -112.48928653640704,-86.80508926339454 -113.1591595175017,-84.30508926339425 -112.48928653643836,-81.80508926338557 -110.65915951752434,-79.97496224444863 -108.15915951752406,-79.30508926335396" stroke="#00f" stroke-linecap="round" stroke-linejoin="round"/><polyline fill="none" points="191.8436044454963,-99.34474751339704 194.34360444550498,-100.01462049446039 196.17373146444191,-101.8447475133744 196.84360444553658,-104.34474751337468 196.17373146447324,-106.84474751338337 194.3436044455592,-108.6748745323203 191.84360444555892,-109.34474751341497 189.34360444555026,-108.67487453235162 187.51347742661332,-106.84474751343761 186.84360444551865,-104.34474751343733 187.513477426582,-101.84474751342864 189.343604445496,-100.01462049449171 191.84360444549628,-99.34474751339704" stroke="#ffa500" stroke-linecap="round" stroke-linejoin="round"/><polyline fill="none" points="-155.35489476376324,-68.99525636356813 -152.85489476375457,-69.66512934463148 -151.02476774481764,-71.4952563635455 -150.35489476372297,-73.99525636354578 -151.02476774478632,-76.49525636355446 -152.85489476370032,-78.32538338249141 -155.3548947637006,-78.99525636358608 -157.85489476370927,-78.32538338252273 -159.6850217826462,-76.49525636360872 -160.35489476374087,-73.99525636360843 -159.68502178267752,-71.49525636359975 -157.85489476376353,-69.6651293446628 -155.35489476376324,-68.99525636356813" stroke="#00f" stroke-linecap="round" stroke-linejoin="round"/><polyline fill="none" points="63.495968740416366,-5.843982233089756 65.99596874042506,-6.513855214153101 67.826095759362,-8.343982233067111 68.49596874045668,-10.8439822330674 67.82609575939333,-13.343982233076083 65.99596874047931,-15.174109252013029 63.49596874047902,-15.843982233107702 60.99596874047034,-15.174109252044358 59.1658417215334,-13.34398223313035 58.49596874043872,-10.84398223313006 59.16584172150206,-8.343982233121375 60.995968740416075,-6.51385521418443 63.495968740416366,-5.843982233089754" stroke="#ffa500" stroke-linecap="round" stroke-linejoin="round"/><polyline fill="none" points="206.59541746967713,-96.52923193810868 209.09541746968583,-97.19910491917203 210.92554448862276,-99.02923193808604 211.59541746971743,-101.52923193808633 210.92554448865408,-104.02923193809501 209.09541746974008,-105.85935895703196 206.5954174697398,-106.52923193812663 204.0954174697311,-105.8593589570633 202.26529045079417,-104.02923193814928 201.5954174696995,-101.529231938149 202.26529045076285,-99.02923193814031 204.09541746967685,-97.19910491920336 206.59541746967713,-96.52923193810868" stroke="#00f" stroke-linecap="round" stroke-linejoin="round"/><polyline fill="none" points="-80.84810188350536,-63.95653242234158 -78.34810188349668,-64.62640540340492 -76.51797486455973,-66.45653242231893 -75.84810188346505,-68.95653242231921 -76.51797486452838,-71.4565324223279 -78.3481018834424,-73.28665944126485 -80.84810188344268,-73.95653242235953 -83.34810188345136,-73.2866594412962 -85.17822890238831,-71.45653242238218 -85.848101883483,-68.9565324223819 -85.17822890241966,-66.45653242237321 -83.34810188350565,-64.62640540343627 -80.84810188350536,-63.95653242234159" stroke="#00f" stroke-linecap="round" stroke-linejoin="round"/><polyline fill="none" points="37.203496895962026,25.47795859869141 39.703496895970716,24.80808561762807 41.533623914907665,22.977958598714064 42.20349689600235,20.477958598713776 41.533623914939014,17.97795859870509 39.70349689602501,16.147831579768138 37.20349689602472,15.477958598673457 34.70349689601603,16.147831579736796 32.87336987707907,17.9779585986508 32.20349689598439,20.477958598651092 32.87336987704772,22.977958598659782 34.70349689596173,24.808085617596735 37.20349689596202,25.47795859869142" stroke="#00f" stroke-linecap="round" stroke-linejoin="round"/><polyline fill="none" points="-51.663288443658104,-62.021355637979 -49.163288443649414,-62.691228619042334 -47.33316142471246,-64.52135563795633 -46.66328844361777,-67.02135563795662 -47.33316142468111,-69.5213556379653 -49.163288443595114,-71.35148265690225 -51.663288443595405,-72.02135563799693 -54.163288443604095,-71.3514826569336 -55.99341546254105,-69.5213556380196 -56.663288443635736,-67.02135563801932 -55.9934154625724,-64.52135563801063 -54.163288443658395,-62.69122861907368 -51.663288443658104,-62.02135563797899" stroke="#ffa500" stroke-linecap="round" stroke-linejoin="round"/><polyline fill="none" points="3.4509017293700777,3.9037172919692606 5.950901729378767,3.233844310905927 7.781028748315723,1.4037172919919234 8.45090172941041,-1.0962827080083657 7.781028748347077,-3.596282708017056 5.950901729433073,-5.426409726954013 3.450901729432784,-6.0962827080487 0.9509017294240931,-5.4264097269853675 -0.8792252895128636,-3.596282708071364 -1.5490982706075513,-1.096282708071075 -0.8792252895442195,1.4037172919376157 0.9509017293697833,3.233844310874573 3.4509017293700723,3.9037172919692615" stroke="#ffa500" stroke-linecap="round" stroke-linejoin="round"/><polyline fill="none" points="-47.53879380621996,-45.277604474287195 -45.03879380621127,-45.94747745535052 -43.20866678727431,-47.77760447426453 -42.53879380617962,-50.27760447426482 -43.20866678724295,-52.77760447427351 -45.03879380615695,-54.607731493210466 -47.538793806157244,-55.27760447430516 -50.038793806165934,-54.60773149324183 -51.86892082510289,-52.77760447432783 -52.53879380619758,-50.27760447432754 -51.86892082513425,-47.77760447431885 -50.038793806220255,-45.947477455381886 -47.538793806219964,-45.277604474287195" stroke="#ffa500" stroke-linecap="round" stroke-linejoin="round"/><polyline fill="none" points="-89.18879546821393,-76.17072242153591 -86.68879546820523,-76.84059540259925 -84.85866844926827,-78.67072242151325 -84.18879546817357,-81.17072242151353 -84.8586684492369,-83.67072242152223 -86.6887954681509,-85.50084944045919 -89.18879546815118,-86.17072242155389 -91.68879546815988,-85.50084944049055 -93.51892248709684,-83.67072242157656 -94.18879546819154,-81.17072242157627 -93.51892248712822,-78.67072242156758 -91.68879546821422,-76.84059540263061 -89.18879546821394,-76.17072242153591" stroke="#00f" stroke-linecap="round" stroke-linejoin="round"/><polyline fill="none" points="-97.26209193586057,-35.55381835475227 -94.76209193585187,-36.2236913358156 -92.93196491691491,-38.0538183547296 -92.26209193582021,-40.55381835472989 -92.93196491688353,-43.05381835473859 -94.76209193579753,-44.88394537367555 -97.26209193579781,-45.55381835477024 -99.76209193580651,-44.883945373706915 -101.59221895474347,-43.05381835479292 -102.26209193583817,-40.553818354792625 -101.59221895477485,-38.05381835478393 -99.76209193586085,-36.223691335846965 -97.26209193586057,-35.553818354752266" stroke="#00f" stroke-linecap="round" stroke-linejoin="round"/><polyline fill="none" points="-65.51676763695806,27.08225384592878 -63.01676763694937,26.412380864865455 -61.186640618012405,24.582253845951456 -60.516767636917706,22.08225384595117 -61.18664061798103,19.582253845942475 -63.016767636895025,17.752126827005508 -65.51676763689531,17.08225384591081 -68.016767636904,17.752126826974134 -69.84689465584097,19.582253845888133 -70.51676763693567,22.08225384588842 -69.84689465587235,24.582253845897117 -68.01676763695835,26.412380864834084 -65.51676763695806,27.082253845928783" stroke="#ffa500" stroke-linecap="round" stroke-linejoin="round"/><polyline fill="none" points="-106.3466910007833,-80.96887182509622 -103.8466910007746,-81.63874480615954 -102.01656398183763,-83.46887182507353 -101.34669100074294,-85.96887182507382 -102.01656398180626,-88.46887182508252 -103.84669100072026,-90.29899884401948 -106.34669100072054,-90.96887182511418 -108.84669100072924,-90.29899884405086 -110.6768180196662,-88.46887182513686 -111.3466910007609,-85.96887182513657 -110.67681801969758,-83.46887182512788 -108.84669100078358,-81.63874480619091 -106.3466910007833,-80.96887182509622" stroke="#00f" stroke-linecap="round" stroke-linejoin="round"/><polyline fill="none" points="48.30106725481862,14.956202304229024 50.801067254827316,14.286329323165702 52.63119427376429,12.456202304251706 53.301067254858985,9.956202304251416 52.631194273795664,7.456202304242719 50.801067254881666,5.62607528530575 48.301067254881374,4.956202304211048 45.80106725487268,5.626075285274366 43.97094023593571,7.456202304188361 43.301067254841,9.95620230418865 43.97094023590432,12.45620230419735 45.80106725481832,14.286329323134321 48.30106725481861,14.956202304229025" stroke="#00f" stroke-linecap="round" stroke-linejoin="round"/><polyline fill="none" points="44.98554562947245,-7.207589554294406 47.485545629481145,-7.877462535357724 49.315672648418115,-9.707589554271719 49.98554562951282,-12.207589554272008 49.31567264844951,-14.707589554280707 47.485545629535515,-16.53771657321768 44.985545629535224,-17.207589554312385 42.48554562952653,-16.537716573249067 40.65541861058956,-14.707589554335073 39.98554562949485,-12.207589554334783 40.655418610558165,-9.707589554326084 42.485545629472156,-7.877462535389111 44.98554562947245,-7.2075895542944055" stroke="#ffa500" stroke-linecap="round" stroke-linejoin="round"/><polyline fill="none" points="-142.1730420096144,-73.61110775284875 -139.6730420096057,-74.28098073391207 -137.84291499066873,-76.11110775282607 -137.17304200957403,-78.61110775282636 -137.84291499063735,-81.11110775283505 -139.67304200955135,-82.94123477177203 -142.17304200955164,-83.61110775286674 -144.67304200956033,-82.94123477180342 -146.5031690284973,-81.11110775288942 -147.173042009592,-78.61110775288914 -146.50316902852867,-76.11110775288044 -144.67304200961468,-74.28098073394347 -142.1730420096144,-73.61110775284875" stroke="#ffa500" stroke-linecap="round" stroke-linejoin="round"/><polyline fill="none" points="79.422232651877,3.773798762710321 81.9222326518857,3.103925781647007 83.75235967082267,1.2737987627330143 84.42223265191738,-1.2262012372672753 83.75235967085408,-3.726201237275977 81.92223265194008,-5.556328256212954 79.4222326519398,-6.226201237307664 76.9222326519311,-5.556328256244352 75.09210563299412,-3.7262012373303603 74.4222326518994,-1.2262012373300712 75.09210563296271,1.2737987626786316 76.9222326518767,3.10392578161561 79.42223265187698,3.7737987627103218" stroke="#ffa500" stroke-linecap="round" stroke-linejoin="round"/><polyline fill="none" points="-89.78641198329152,-24.78287633892952 -87.28641198328282,-25.45274931999283 -85.45628496434584,-27.28287633890682 -84.78641198325113,-29.78287633890711 -85.45628496431443,-32.28287633891581 -87.28641198322842,-34.11300335785279 -89.7864119832287,-34.7828763389475 -92.2864119832374,-34.113003357884196 -94.11653900217438,-32.282876338970205 -94.78641198326909,-29.782876338969917 -94.11653900220578,-27.282876338961213 -92.2864119832918,-25.452749320024232 -89.78641198329152,-24.78287633892952" stroke="#00f" stroke-linecap="round" stroke-linejoin="round"/><polyline fill="none" points="-61.60326478038007,84.09541050030508 -59.10326478037137,83.42553751924177 -57.273137761434384,81.59541050032779 -56.60326478033967,79.0954105003275 -57.27313776140298,76.59541050031879 -59.10326478031697,74.76528348138181 -61.60326478031726,74.0954105002871 -64.10326478032597,74.76528348135041 -65.93339179926295,76.59541050026439 -66.60326478035766,79.09541050026468 -65.93339179929436,81.59541050027339 -64.10326478038037,83.42553751921037 -61.60326478038008,84.09541050030508" stroke="#ffa500" stroke-linecap="round" stroke-linejoin="round"/><polyline fill="none" points="40.84857798288704,26.537302633945835 43.34857798289575,25.867429652882528 45.17870500183273,24.03730263396854 45.84857798292745,21.537302633968253 45.178705001864145,19.037302633959545 43.34857798295016,17.20717561502256 40.84857798294987,16.53730263392784 38.348577982941165,17.207175614991144 36.51845096400418,19.03730263390513 35.84857798290946,21.53730263390542 36.51845096397277,24.037302633914127 38.34857798288675,25.86742965285111 40.84857798288704,26.53730263394583" stroke="#ffa500" stroke-linecap="round" stroke-linejoin="round"/><polyline fill="none" points="198.0562217713192,-89.86909135764763 200.5562217713279,-90.53896433871094 202.3863487902649,-92.36909135762492 203.05622177135962,-94.86909135762521 202.38634879029632,-97.36909135763392 200.55622177138233,-99.19921837657091 198.05622177138204,-99.86909135766564 195.55622177137334,-99.19921837660233 193.72609475243635,-97.36909135768835 193.05622177134163,-94.86909135768806 193.72609475240492,-92.36909135767935 195.55622177131892,-90.53896433874236 198.0562217713192,-89.86909135764763" stroke="#ffa500" stroke-linecap="round" stroke-linejoin="round"/><polyline fill="none" points="-71.4807666528121,-37.94676595496348 -68.98076665280338,-38.61663893602678 -67.15063963386639,-40.446765954940766 -66.48076665277166,-42.94676595494106 -67.15063963383497,-45.44676595494977 -68.98076665274895,-47.27689297388676 -71.48076665274924,-47.94676595498149 -73.98076665275795,-47.27689297391819 -75.81089367169494,-45.4467659550042 -76.48076665278967,-42.94676595500391 -75.81089367172636,-40.4467659549952 -73.98076665281238,-38.61663893605821 -71.4807666528121,-37.94676595496348" stroke="#ffa500" stroke-linecap="round" stroke-linejoin="round"/><polyline fill="none" points="-19.56608359232154,54.924473016154764 -17.06608359231283,54.254600035091464 -15.235956573375839,52.42447301617748 -14.566083592281114,49.92447301617719 -15.235956573344414,47.42447301616848 -17.066083592258398,45.594345997231486 -19.566083592258686,44.92447301613676 -22.066083592267397,45.59434599720006 -23.89621061120439,47.42447301611404 -24.566083592299115,49.924473016114334 -23.89621061123582,52.424473016123045 -22.066083592321835,54.25460003506004 -19.566083592321547,54.924473016154764" stroke="#ffa500" stroke-linecap="round" stroke-linejoin="round"/><polyline fill="none" points="-49.17875029712585,-2.393218301706921 -46.67875029711714,-3.063091282770218 -44.84862327818015,-4.8932183016842 -44.17875029708542,-7.39321830168449 -44.84862327814872,-9.893218301693201 -46.678750297062706,-11.723345320630195 -49.178750297063,-12.393218301724923 -51.67875029707171,-11.723345320661627 -53.5088773160087,-9.893218301747645 -54.17875029710343,-7.393218301747355 -53.508877316040135,-4.893218301738643 -51.67875029712615,-3.0630912828016488 -49.17875029712586,-2.393218301706918" stroke="#ffa500" stroke-linecap="round" stroke-linejoin="round"/><polyline fill="none" points="79.65706129853793,22.52774188533047 82.15706129854664,21.857868904267175 83.98718831748363,20.027741885353194 84.65706129857836,17.527741885352903 83.98718831751506,15.02774188534419 82.15706129860108,13.197614866407195 79.6570612986008,12.527741885312462 77.15706129859208,13.197614866375757 75.32693427965509,15.027741885289737 74.65706129856036,17.527741885290027 75.32693427962366,20.02774188529874 77.15706129853764,21.857868904235737 79.65706129853793,22.52774188533047" stroke="#ffa500" stroke-linecap="round" stroke-linejoin="round"/><polyline fill="none" points="63.5267194834511,9.915114976076556 66.02671948345981,9.245241995013263 67.8568465023968,7.415114976099282 68.52671948349153,4.915114976098993 67.85684650242824,2.415114976090279 66.02671948351426,0.5849879571532819 63.526719483513965,-0.08488502394145203 61.02671948350525,0.5849879571218398 59.196592464568255,2.4151149760358197 58.52671948347352,4.915114976036109 59.19659246453681,7.415114976044823 61.02671948345079,9.245241994981821 63.52671948345108,9.915114976076557" stroke="#00f" stroke-linecap="round" stroke-linejoin="round"/><polyline fill="none" points="-89.3323198681063,25.686946102844733 -86.83231986809758,25.017073121781443 -85.0021928491606,23.186946102867466 -84.33231986806585,20.68694610286718 -85.00219284912914,18.186946102858464 -86.83231986804313,16.356819083921465 -89.33231986804341,15.68694610282673 -91.83231986805212,16.35681908389002 -93.66244688698913,18.186946102803997 -94.33231986808387,20.686946102804285 -93.66244688702058,23.186946102813 -91.8323198681066,25.01707312175 -89.33231986810631,25.686946102844736" stroke="#00f" stroke-linecap="round" stroke-linejoin="round"/><polyline fill="none" points="14.095903461039159,50.79886811418931 16.595903461047875,50.128995133126026 18.426030479984878,48.29886811421205 19.095903461079615,45.79886811421176 18.42603048001633,43.29886811420304 16.595903461102353,41.46874109526604 14.095903461102063,40.7988681141713 11.595903461093346,41.468741095234584 9.765776442156344,43.29886811414856 9.095903461061603,45.79886811414885 9.765776442124888,48.29886811415757 11.595903461038866,50.12899513309458 14.095903461039155,50.79886811418932" stroke="#ffa500" stroke-linecap="round" stroke-linejoin="round"/><polyline fill="none" points="12.049538007601802,58.038664106685545 14.549538007610519,57.36879112562226 16.37966502654752,55.53866410670828 17.049538007642262,53.03866410670799 16.379665026578976,50.53866410669927 14.549538007665001,48.70853708776227 12.049538007664712,48.038664106667525 9.549538007655993,48.70853708773081 7.719410988718988,50.53866410664479 7.049538007624245,53.03866410664508 7.719410988687529,55.5386641066538 9.549538007601504,57.3687911255908 12.049538007601793,58.038664106685545" stroke="#ffa500" stroke-linecap="round" stroke-linejoin="round"/><polyline fill="none" points="199.26787476247063,-85.08128222764451 201.76787476247935,-85.75115520870779 203.59800178141637,-87.58128222762176 204.26787476251113,-90.08128222762204 203.59800178144783,-92.58128222763077 201.76787476253386,-94.41140924656777 199.26787476253358,-95.08128222766251 196.76787476252485,-94.41140924659923 194.93774774358783,-92.58128222768526 194.26787476249308,-90.08128222768498 194.93774774355637,-87.58128222767625 196.76787476247034,-85.75115520873925 199.26787476247063,-85.08128222764451" stroke="#ffa500" stroke-linecap="round" stroke-linejoin="round"/><polyline fill="none" points="4.709102719513975,31.485624168943406 7.209102719522696,30.815751187880124 9.039229738459705,28.98562416896615 9.709102719554453,26.485624168965863 9.039229738491173,23.98562416895714 7.209102719577199,22.155497150020132 4.70910271957691,21.485624168925384 2.2091027195681887,22.155497149988662 0.37897570063117914,23.985624168902635 -0.29089728046356944,26.485624168902923 0.37897570059970964,28.985624168911645 2.209102719513682,30.815751187848655 4.709102719513972,31.485624168943403" stroke="#ffa500" stroke-linecap="round" stroke-linejoin="round"/><polyline fill="none" points="70.62564505420087,19.952020445739542 73.1256450542096,19.282147464676264 74.9557720731466,17.45202044576229 75.62564505424136,14.952020445762003 74.95577207317808,12.45202044575328 73.12564505426411,10.62189342681627 70.62564505426383,9.95202044572152 68.1256450542551,10.621893426784796 66.2955180353181,12.452020445698768 65.62564505422334,14.952020445699057 66.29551803528662,17.45202044570778 68.12564505420059,19.282147464644794 70.62564505420087,19.952020445739546" stroke="#ffa500" stroke-linecap="round" stroke-linejoin="round"/><polyline fill="none" points="195.93872154249044,-78.54053143336886 198.43872154249917,-79.21040441443213 200.2688485614362,-81.0405314333461 200.93872154253094,-83.54053143334639 200.26884856146768,-86.04053143335511 198.4387215425537,-87.87065845229213 195.93872154255342,-88.54053143338689 193.4387215425447,-87.87065845232361 191.60859452360768,-86.04053143340964 190.93872154251292,-83.54053143340936 191.6085945235762,-81.04053143340063 193.43872154249016,-79.21040441446361 195.93872154249044,-78.54053143336886" stroke="#ffa500" stroke-linecap="round" stroke-linejoin="round"/><polyline fill="none" points="67.06452324944289,26.593098149994752 69.56452324945161,25.92322516893148 71.39465026838863,24.09309815001751 72.06452324948339,21.59309815001722 71.39465026842011,19.093098150008494 69.56452324950614,17.262971131071478 67.06452324950585,16.59309814997672 64.56452324949713,17.26297113103999 62.73439623056011,19.093098149953956 62.06452324946535,21.593098149954244 62.734396230528624,24.09309814996297 64.56452324944259,25.92322516889999 67.06452324944287,26.59309814999475" stroke="#ffa500" stroke-linecap="round" stroke-linejoin="round"/><polyline fill="none" points="99.36685816449469,29.089203307325366 101.86685816450341,28.419330326262095 103.69698518344043,26.58920330734813 104.36685816453519,24.08920330734784 103.69698518347192,21.589203307339115 101.86685816455795,19.759076288402095 99.36685816455767,19.089203307307336 96.86685816454894,19.759076288370604 95.03673114561192,21.58920330728457 94.36685816451717,24.08920330728486 95.03673114558043,26.589203307293587 96.8668581644944,28.419330326230607 99.36685816449469,29.08920330732537" stroke="#ffa500" stroke-linecap="round" stroke-linejoin="round"/><polyline fill="none" points="-99.18113862825392,-47.24263011047925 -96.6811386282452,-47.91250309154252 -94.85101160930817,-49.74263011045648 -94.1811386282134,-52.24263011045677 -94.85101160927667,-54.7426301104655 -96.68113862819064,-56.57275712940252 -99.18113862819092,-57.24263011049728 -101.68113862819965,-56.57275712943402 -103.51126564713667,-54.742630110520054 -104.18113862823144,-52.24263011051976 -103.51126564716817,-49.74263011051103 -101.6811386282542,-47.91250309157401 -99.18113862825392,-47.24263011047925" stroke="#ffa500" stroke-linecap="round" stroke-linejoin="round"/><polyline fill="none" points="93.91527536531592,34.23250641217106 96.41527536532465,33.5626334311078 98.24540238426167,31.732506412193835 98.91527536535644,29.232506412193548 98.24540238429317,26.73250641218482 96.4152753653792,24.902379393247795 93.91527536537892,24.23250641215303 91.41527536537019,24.902379393216293 89.58514834643317,26.732506412130256 88.9152753653384,29.232506412130544 89.58514834640167,31.732506412139273 91.41527536531564,33.5626334310763 93.91527536531592,34.23250641217107" stroke="#ffa500" stroke-linecap="round" stroke-linejoin="round"/><polyline fill="none" points="-105.2278427319486,-30.52882296054247 -102.72784273193987,-31.198695941605735 -100.89771571300285,-33.0288229605197 -100.22784273190808,-35.52882296051999 -100.89771571297135,-38.02882296052872 -102.7278427318853,-39.85894997946575 -105.22784273188559,-40.52882296056052 -107.72784273189431,-39.858949979497254 -109.55796975083135,-38.02882296058329 -110.22784273192612,-35.528822960583 -109.55796975086285,-33.02882296057427 -107.7278427319489,-31.19869594163724 -105.22784273194861,-30.52882296054247" stroke="#008000" stroke-linecap="round" stroke-linejoin="round"/><polyline fill="none" points="-61.68030599312655,54.7706146132975 -59.18030599311782,54.10074163223424 -57.35017897418079,52.27061461332028 -56.68030599308602,49.770614613319985 -57.35017897414928,47.27061461331125 -59.18030599306324,45.440487594374225 -61.680305993063534,44.770614613279456 -64.18030599307227,45.44048759434271 -66.0104330120093,47.270614613256676 -66.68030599310407,49.77061461325697 -66.0104330120408,52.2706146132657 -64.18030599312685,54.100741632202734 -61.68030599312656,54.77061461329751" stroke="#ffa500" stroke-linecap="round" stroke-linejoin="round"/><polyline fill="none" points="41.76662371027332,36.476509188136646 44.266623710282055,35.80663620707339 46.09675072921909,33.976509188159426 46.766623710313866,31.476509188159135 46.09675072925061,28.976509188150402 44.266623710336646,27.146382169213368 41.766623710336354,26.476509188118595 39.26662371032762,27.14638216918185 37.43649669139059,28.97650918809581 36.76662371029581,31.4765091880961 37.43649669135907,33.976509188104835 39.266623710273024,35.80663620704187 41.766623710273315,36.476509188136646" stroke="#ffa500" stroke-linecap="round" stroke-linejoin="round"/><polyline fill="none" points="-64.55635142115652,21.685480999563328 -62.05635142114779,21.015608018500075 -60.226224402210754,19.185480999586115 -59.55635142111598,16.685480999585828 -60.226224402179234,14.185480999577091 -62.05635142109319,12.355353980640057 -64.55635142109348,11.68548099954528 -67.05635142110222,12.355353980608534 -68.88647844003926,14.185480999522492 -69.55635142113404,16.68548099952278 -68.88647844007079,19.185480999531517 -67.05635142115683,21.01560801846855 -64.55635142115655,21.68548099956333" stroke="#ffa500" stroke-linecap="round" stroke-linejoin="round"/><polyline fill="none" points="-144.91800846665706,-4.5002210607279896 -142.41800846664833,-5.170094041791242 -140.58788144771128,-7.0002210607052 -139.9180084666165,-9.500221060705488 -140.58788144767976,-12.000221060714225 -142.41800846659373,-13.830348079651262 -144.91800846659402,-14.500221060746043 -147.41800846660274,-13.830348079682791 -149.2481354855398,-12.000221060768835 -149.91800846663457,-9.500221060768546 -149.2481354855713,-7.000221060759808 -147.41800846665734,-5.170094041822769 -144.91800846665706,-4.500221060727987" stroke="#00f" stroke-linecap="round" stroke-linejoin="round"/><polyline fill="none" points="-115.07029093864487,8.670469734626451 -112.57029093863613,8.000596753563201 -110.7401639196991,6.170469734649245 -110.07029093860432,3.670469734648956 -110.74016391966757,1.1704697346402178 -112.57029093858152,-0.6596572842968218 -115.0702909385818,-1.3295302653916048 -117.57029093859055,-0.6596572843283555 -119.40041795752758,1.1704697345855999 -120.07029093862236,3.6704697345858888 -119.40041795755911,6.1704697345946276 -117.57029093864516,8.000596753531669 -115.07029093864487,8.670469734626453" stroke="#00f" stroke-linecap="round" stroke-linejoin="round"/><polyline fill="none" points="-92.60432971950806,21.126791614665716 -90.10432971949932,20.45691863360247 -88.27420270056228,18.626791614688514 -87.6043297194675,16.126791614688226 -88.27420270053075,13.626791614679487 -90.1043297194447,11.796664595742445 -92.60432971944499,11.12679161464766 -95.10432971945373,11.796664595710906 -96.93445673839078,13.62679161462486 -97.60432971948556,16.126791614625148 -96.93445673842231,18.626791614633888 -95.10432971950836,20.45691863357093 -92.60432971950807,21.126791614665716" stroke="#ffa500" stroke-linecap="round" stroke-linejoin="round"/><polyline fill="none" points="-42.38015241325972,67.44088951821959 -39.88015241325098,66.77101653715634 -38.05002539431394,64.94088951824239 -37.38015241321915,62.440889518242095 -38.05002539428239,59.940889518233355 -39.88015241319635,58.110762499296314 -42.38015241319664,57.44088951820152 -44.88015241320538,58.110762499264766 -46.71027943214242,59.94088951817872 -47.38015241323721,62.44088951817901 -46.71027943217397,64.94088951818776 -44.880152413260014,66.77101653712481 -42.38015241325972,67.44088951821959" stroke="#ffa500" stroke-linecap="round" stroke-linejoin="round"/><polyline fill="none" points="1.904483589217507,65.09543365480638 4.404483589226249,64.42556067374313 6.234610608163295,62.595433654829186 6.904483589258085,60.095433654828895 6.234610608194842,57.595433654820155 4.40448358928089,55.76530663588311 1.9044835892806007,55.095433654788316 -0.5955164107281417,55.76530663585156 -2.4256434296651883,57.59543365476551 -3.0955164107599797,60.0954336547658 -2.4256434296967377,62.59543365477454 -0.5955164107827868,64.42556067371159 1.9044835892175023,65.09543365480638" stroke="#ffa500" stroke-linecap="round" stroke-linejoin="round"/><polyline fill="none" points="0.9277431117310342,9.806861321594209 3.4277431117397774,9.136988340530968 5.257870130676825,7.306861321617017 5.927743111771618,4.8068613216167275 5.257870130708377,2.306861321607984 3.4277431117944266,0.4767343026709352 0.9277431117941375,-0.19313867842385857 -1.5722568882146062,0.47673430263938144 -3.4023839071516555,2.306861321553331 -4.07225688824645,4.806861321553621 -3.4023839071832107,7.306861321562366 -1.5722568882692611,9.136988340499416 0.927743111731028,9.80686132159421" stroke="#00f" stroke-linecap="round" stroke-linejoin="round"/><polyline fill="none" points="-103.78058488736161,-40.99975885755332 -101.28058488735287,-41.66963183861655 -99.45045786841582,-43.4997588575305 -98.78058488732103,-45.99975885753079 -99.45045786838426,-48.49975885753954 -101.28058488729822,-50.32988587647659 -103.7805848872985,-50.999758857571386 -106.28058488730724,-50.32988587650815 -108.11071190624429,-48.4997588575942 -108.78058488733909,-45.99975885759391 -108.11071190627585,-43.499758857585164 -106.28058488736191,-41.66963183864811 -103.78058488736163,-40.99975885755331" stroke="#00f" stroke-linecap="round" stroke-linejoin="round"/><polyline fill="none" points="-80.16987163130206,100.9064476817965 -77.66987163129332,100.23657470073326 -75.83974461235627,98.40644768181932 -75.16987163126147,95.90644768181903 -75.83974461232471,93.40644768181029 -77.66987163123865,91.57632066287324 -80.16987163123893,90.90644768177845 -82.66987163124767,91.57632066284168 -84.49999865018472,93.40644768175562 -85.16987163127952,95.9064476817559 -84.49999865021628,98.40644768176466 -82.66987163130234,100.23657470070171 -80.16987163130206,100.90644768179651" stroke="#ffa500" stroke-linecap="round" stroke-linejoin="round"/><polyline fill="none" points="-87.80003319048,35.46641758904701 -85.30003319047124,34.796544607983776 -83.46990617153418,32.96641758906983 -82.80003319043938,30.46641758906954 -83.46990617150261,27.966417589060793 -85.30003319041656,26.136290570123737 -87.80003319041684,25.466417589028936 -90.3000331904256,26.136290570092168 -92.13016020936266,27.966417589006113 -92.80003319045746,30.4664175890064 -92.13016020939422,32.96641758901515 -90.30003319048028,34.79654460795221 -87.80003319048,35.46641758904701" stroke="#ffa500" stroke-linecap="round" stroke-linejoin="round"/><polyline fill="none" points="-93.70825953615243,-44.40748873186299 -91.20825953614367,-45.07736171292622 -89.37813251720661,-46.90748873184016 -88.70825953611181,-49.40748873184045 -89.37813251717505,-51.9074887318492 -91.20825953608899,-53.737615750786254 -93.70825953608927,-54.40748873188106 -96.20825953609803,-53.73761575081783 -98.03838655503509,-51.90748873190389 -98.7082595361299,-49.4074887319036 -98.03838655506667,-46.90748873189485 -96.20825953615272,-45.07736171295779 -93.70825953615244,-44.40748873186298" stroke="#f00" stroke-linecap="round" stroke-linejoin="round"/><polyline fill="none" points="14.232819568412424,-14.674633883993248 16.732819568421174,-15.344506865056477 18.562946587358233,-17.174633883970422 19.232819568453042,-19.674633883970714 18.562946587389813,-22.174633883979464 16.73281956847587,-24.004760902916527 14.232819568475579,-24.674633884011335 11.732819568466827,-24.004760902948107 9.902692549529764,-22.174633884034165 9.232819568434955,-19.674633884033874 9.902692549498182,-17.174633884025123 11.732819568412125,-15.34450686508806 14.232819568412415,-14.674633883993252" stroke="#008000" stroke-linecap="round" stroke-linejoin="round"/><polyline fill="none" points="-71.80613434085525,58.87006726615507 -69.3061343408465,58.20019428509184 -67.47600732190944,56.3700672661779 -66.80613434081462,53.87006726617761 -67.47600732187784,51.37006726616885 -69.30613434079179,49.53994024723179 -71.80613434079207,48.87006726613698 -74.30613434080082,49.53994024720021 -76.13626135973789,51.37006726611415 -76.8061343408327,53.87006726611444 -76.13626135976948,56.37006726612319 -74.30613434085554,58.200194285060256 -71.80613434085525,58.87006726615507" stroke="#ffa500" stroke-linecap="round" stroke-linejoin="round"/><polyline fill="none" points="-81.61170605406723,57.1322966685726 -79.11170605405847,56.46242368750938 -77.28157903512141,54.63229666859544 -76.6117060540266,52.132296668595146 -77.28157903508982,49.63229666858639 -79.11170605400376,47.80216964964932 -81.61170605400405,47.13229666855451 -84.1117060540128,47.80216964961773 -85.94183307294986,49.63229666853167 -86.61170605404467,52.132296668531964 -85.94183307298145,54.63229666854072 -84.11170605406751,56.46242368747779 -81.61170605406723,57.1322966685726" stroke="#ffa500" stroke-linecap="round" stroke-linejoin="round"/><polyline fill="none" points="-76.6133935092735,88.87457386992617 -74.11339350926474,88.20470088886294 -72.28326649032768,86.374573869949 -71.61339350923286,83.87457386994872 -72.28326649029609,81.37457386993997 -74.11339350921003,79.5444468510029 -76.61339350921031,78.87457386990809 -79.11339350921907,79.54444685097131 -80.94352052815614,81.37457386988525 -81.61339350925095,83.87457386988554 -80.94352052818773,86.37457386989429 -79.11339350927379,88.20470088883137 -76.61339350927351,88.87457386992618" stroke="#00f" stroke-linecap="round" stroke-linejoin="round"/><polyline fill="none" points="-102.1180785184712,30.7810404871402 -99.61807851846244,30.11116750607698 -97.78795149952536,28.281040487163043 -97.11807851843055,25.781040487162752 -97.78795149949377,23.281040487153994 -99.61807851840771,21.45091346821692 -102.118078518408,20.7810404871221 -104.61807851841675,21.45091346818532 -106.44820553735383,23.281040487099258 -107.11807851844866,25.78104048709955 -106.44820553738543,28.281040487108307 -104.61807851847149,30.11116750604538 -102.11807851847121,30.7810404871402" stroke="#00f" stroke-linecap="round" stroke-linejoin="round"/><polyline fill="none" points="-59.37142739974363,66.42829468677739 -56.87142739973487,65.75842170571417 -55.04130038079779,63.92829468680023 -54.371427399702974,61.42829468679994 -55.04130038076619,58.928294686791176 -56.87142739968013,57.0981676678541 -59.37142739968042,56.42829468675928 -61.87142739968918,57.098167667822494 -63.70155441862626,58.92829468673643 -64.37142739972109,61.42829468673672 -63.70155441865787,63.92829468674548 -61.871427399743936,65.75842170568255 -59.371427399743645,66.42829468677738" stroke="#ffa500" stroke-linecap="round" stroke-linejoin="round"/><polyline fill="none" points="39.93204083692861,7.237091179761995 42.43204083693737,6.56721819869878 44.262167855874445,4.7370911797848425 44.93204083696927,2.237091179784551 44.26216785590606,-0.26290882022421025 42.43204083699212,-2.0930358391612875 39.93204083699183,-2.762908820256113 37.43204083698307,-2.0930358391928996 35.60191381804599,-0.26290882027896356 34.93204083695117,2.237091179721328 35.60191381801438,4.73709117973009 37.432040836928316,6.5672181986671685 39.93204083692861,7.237091179761995" stroke="#00f" stroke-linecap="round" stroke-linejoin="round"/><polyline fill="none" points="-100.0733799607632,-22.252374282817787 -97.57337996075444,-22.922247263880998 -95.74325294181736,-24.752374282794932 -95.07337996072253,-27.252374282795223 -95.74325294178574,-29.752374282803988 -97.57337996069968,-31.58250130174107 -100.07337996069998,-32.252374282835895 -102.57337996070875,-31.582501301772684 -104.40350697964583,-29.75237428285875 -105.07337996074065,-27.252374282858458 -104.40350697967745,-24.752374282849694 -102.5733799607635,-22.922247263912613 -100.0733799607632,-22.252374282817783" stroke="#ffa500" stroke-linecap="round" stroke-linejoin="round"/><polyline fill="none" points="-137.3268635220127,18.6646791827855 -134.82686352200395,17.994806201722287 -132.99673650306687,16.164679182808353 -132.32686352197203,13.664679182808062 -132.99673650303524,11.164679182799297 -134.82686352194918,9.334552163862213 -137.32686352194946,8.664679182767381 -139.82686352195822,9.33455216383059 -141.6569905408953,11.164679182744525 -142.32686352199013,13.664679182744818 -141.65699054092693,16.164679182753584 -139.82686352201299,17.99480620169067 -137.3268635220127,18.664679182785502" stroke="#ffa500" stroke-linecap="round" stroke-linejoin="round"/><polyline fill="none" points="-127.28984712013752,-41.40667262814328 -124.78984712012875,-42.07654560920649 -122.95972010119166,-43.906672628120425 -122.28984712009684,-46.40667262812072 -122.95972010116004,-48.906672628129485 -124.78984712007397,-50.73679964706657 -127.28984712007427,-51.4066726281614 -129.78984712008304,-50.736799647098195 -131.61997413902012,-48.90667262818426 -132.28984712011496,-46.40667262818397 -131.61997413905175,-43.9066726281752 -129.7898471201378,-42.07654560923812 -127.28984712013751,-41.40667262814328" stroke="#ffa500" stroke-linecap="round" stroke-linejoin="round"/><polyline fill="none" points="-108.37744379663525,-51.963213791709585 -105.87744379662648,-52.63308677277279 -104.04731677768939,-54.46321379168673 -103.37744379659455,-56.96321379168702 -104.04731677765776,-59.463213791695786 -105.87744379657168,-61.29334081063288 -108.37744379657198,-61.96321379172772 -110.87744379658075,-61.29334081066451 -112.70757081551784,-59.463213791750576 -113.37744379661268,-56.963213791750285 -112.70757081554947,-54.463213791741516 -110.87744379663555,-52.633086772804425 -108.37744379663525,-51.963213791709585" stroke="#00f" stroke-linecap="round" stroke-linejoin="round"/><polyline fill="none" points="-85.93139147477773,36.64079636731957 -83.43139147476896,35.970923386256366 -81.60126445583187,34.14079636734243 -80.93139147473703,31.64079636734214 -81.60126445580023,29.14079636733337 -83.43139147471416,27.310669348396278 -85.93139147471446,26.640796367301437 -88.43139147472323,27.310669348364637 -90.26151849366032,29.14079636727857 -90.93139147475516,31.640796367278863 -90.26151849369195,34.140796367287635 -88.43139147477802,35.970923386224726 -85.93139147477773,36.64079636731957" stroke="#ffa500" stroke-linecap="round" stroke-linejoin="round"/><polyline fill="none" points="-114.8477705068075,-70.28806650536217 -112.34777050679874,-70.95793948642537 -110.51764348786165,-72.7880665053393 -109.8477705067668,-75.2880665053396 -110.51764348783,-77.78806650534837 -112.34777050674393,-79.61819352428546 -114.84777050674423,-80.2880665053803 -117.347770506753,-79.6181935243171 -119.17789752569008,-77.78806650540318 -119.84777050678493,-75.28806650540288 -119.17789752572173,-72.78806650539411 -117.3477705068078,-70.95793948645702 -114.8477705068075,-70.28806650536218" stroke="#ffa500" stroke-linecap="round" stroke-linejoin="round"/><polyline fill="none" points="36.47464567336137,25.777062057966873 38.97464567337015,25.107189076903676 40.804772692307246,23.27706205798975 41.474645673402094,20.777062057989454 40.804772692338894,18.27706205798068 38.974645673424966,16.44693503904358 36.474645673424675,15.777062057948735 33.9746456734159,16.44693503901193 32.1445186544788,18.277062057925857 31.474645673383954,20.777062057926152 32.14451865444715,23.277062057934927 33.974645673361074,25.107189076872025 36.474645673361366,25.777062057966873" stroke="#ffa500" stroke-linecap="round" stroke-linejoin="round"/><polyline fill="none" points="-66.77655184456523,35.8917920114997 -64.27655184455647,35.22191903043651 -62.44642482561937,33.39179201152258 -61.77655184452452,30.89179201152229 -62.44642482558771,28.391792011513516 -64.27655184450164,26.561664992576418 -66.77655184450194,25.89179201148157 -69.27655184451072,26.561664992544763 -71.10667886344783,28.39179201145869 -71.77655184454268,30.891792011458985 -71.10667886347949,33.391792011467764 -69.27655184456556,35.22191903040486 -66.77655184456526,35.89179201149971" stroke="#00f" stroke-linecap="round" stroke-linejoin="round"/><polyline fill="none" points="-87.1333845396586,-13.627344548231637 -84.63338453964982,-14.29721752929483 -82.80325752071272,-16.127344548208754 -82.13338453961786,-18.627344548209045 -82.80325752068106,-21.12734454821782 -84.63338453959499,-22.957471567154922 -87.13338453959528,-23.627344548249773 -89.63338453960407,-22.95747156718658 -91.46351155854117,-21.127344548272657 -92.13338453963603,-18.62734454827236 -91.46351155857283,-16.127344548263586 -89.6333845396589,-14.297217529326485 -87.1333845396586,-13.627344548231632" stroke="#00f" stroke-linecap="round" stroke-linejoin="round"/><polyline fill="none" points="-93.9334955668452,-33.30108814871109 -91.43349556683641,-33.97096112977428 -89.60336854789931,-35.80108814868821 -88.93349556680445,-38.3010881486885 -89.60336854786765,-40.801088148697275 -91.43349556678157,-42.63121516763438 -93.93349556678187,-43.301088148729235 -96.43349556679065,-42.63121516766605 -98.26362258572776,-40.80108814875213 -98.93349556682261,-38.30108814875184 -98.26362258575942,-35.80108814874306 -96.4334955668455,-33.97096112980596 -93.9334955668452,-33.3010881487111" stroke="#00f" stroke-linecap="round" stroke-linejoin="round"/><polyline fill="none" points="-90.42479727325805,97.77848541871248 -87.92479727324927,97.10861243764928 -86.09467025431216,95.27848541873536 -85.42479727321731,92.77848541873506 -86.0946702542805,90.27848541872628 -87.92479727319443,88.44835839978917 -90.42479727319473,87.77848541869432 -92.92479727320351,88.44835839975751 -94.75492429214061,90.27848541867144 -95.42479727323547,92.77848541867174 -94.75492429217228,95.27848541868052 -92.92479727325835,97.10861243761762 -90.42479727325805,97.77848541871248" stroke="#ffa500" stroke-linecap="round" stroke-linejoin="round"/><polyline fill="none" points="-159.82940865614947,-61.890649753256056 -157.32940865614069,-62.56052273431924 -155.49928163720358,-64.39064975323316 -154.8294086561087,-66.89064975323346 -155.4992816371719,-69.39064975324224 -157.3294086560858,-71.22077677217935 -159.8294086560861,-71.8906497532742 -162.32940865609487,-71.22077677221102 -164.15953567503198,-69.39064975329711 -164.82940865612684,-66.89064975329681 -164.15953567506367,-64.39064975328803 -162.32940865614975,-62.56052273435092 -159.82940865614947,-61.890649753256056" stroke="#ffa500" stroke-linecap="round" stroke-linejoin="round"/><polyline fill="none" points="-39.22972423429525,57.98379655007036 -36.729724234286465,57.31392356900717 -34.89959721534935,55.48379655009325 -34.22972423425449,52.98379655009296 -34.89959721531768,50.48379655008418 -36.7297242342316,48.65366953114707 -39.22972423423189,47.983796550052205 -41.72972423424067,48.65366953111538 -43.55985125317778,50.483796550029304 -44.229724234272645,52.983796550029595 -43.559851253209466,55.48379655003838 -41.729724234295546,57.31392356897549 -39.229724234295254,57.98379655007035" stroke="#ffa500" stroke-linecap="round" stroke-linejoin="round"/><polyline fill="none" points="-92.93845511321808,93.72205115896037 -90.4384551132093,93.05217817789719 -88.60832809427218,91.22205115898328 -87.93845511317731,88.72205115898298 -88.60832809424049,86.2220511589742 -90.4384551131544,84.39192414003708 -92.9384551131547,83.72205115894221 -95.43845511316349,84.39192414000539 -97.2685821321006,86.2220511589193 -97.93845511319547,88.7220511589196 -97.2685821321323,91.22205115892838 -95.43845511321838,93.0521781778655 -92.93845511321808,93.72205115896037" stroke="#ffa500" stroke-linecap="round" stroke-linejoin="round"/><polyline fill="none" points="-68.91791540125314,-14.246985176797708 -66.41791540124436,-14.916858157860887 -64.58778838230724,-16.746985176774803 -63.91791540121237,-19.246985176775098 -64.58778838227555,-21.746985176783884 -66.41791540118946,-23.577112195721 -68.91791540118976,-24.24698517681587 -71.41791540119854,-23.57711219575269 -73.24804242013566,-21.746985176838773 -73.91791540123053,-19.24698517683848 -73.24804242016735,-16.746985176829693 -71.41791540125344,-14.916858157892577 -68.91791540125314,-14.246985176797708" stroke="#00f" stroke-linecap="round" stroke-linejoin="round"/><polyline fill="none" points="-142.6228571646515,-65.59377824552021 -140.1228571646427,-66.26365122658339 -138.2927301457056,-68.0937782454973 -137.62285716461074,-70.5937782454976 -138.29273014567391,-73.09377824550639 -140.12285716458783,-74.9239052644435 -142.6228571645881,-75.59377824553837 -145.1228571645969,-74.9239052644752 -146.952984183534,-73.09377824556128 -147.62285716462887,-70.59377824556098 -146.9529841835657,-68.0937782455522 -145.12285716465178,-66.26365122661508 -142.6228571646515,-65.59377824552021" stroke="#00f" stroke-linecap="round" stroke-linejoin="round"/><polyline fill="none" points="-82.09323091018071,-69.16248050991955 -79.59323091017193,-69.83235349098273 -77.7631038912348,-71.66248050989664 -77.09323091013994,-74.16248050989694 -77.76310389120312,-76.66248050990572 -79.59323091011703,-78.49260752884284 -82.09323091011733,-79.16248050993771 -84.59323091012611,-78.49260752887453 -86.42335792906323,-76.66248050996062 -87.0932309101581,-74.16248050996032 -86.42335792909492,-71.66248050995154 -84.593230910181,-69.83235349101442 -82.09323091018071,-69.16248050991955" stroke="#ffa500" stroke-linecap="round" stroke-linejoin="round"/><polyline fill="none" points="-88.8249298426848,27.601446413257303 -86.32492984267601,26.93157343219413 -84.4948028237389,25.101446413280218 -83.82492984264401,22.601446413279927 -84.49480282370718,20.101446413271137 -86.32492984262109,18.271319394334014 -88.82492984262139,17.601446413239138 -91.32492984263017,18.271319394302306 -93.15505686156729,20.101446413216216 -93.82492984266217,22.601446413216507 -93.15505686159901,25.101446413225297 -91.3249298426851,26.93157343216242 -88.8249298426848,27.6014464132573" stroke="#ffa500" stroke-linecap="round" stroke-linejoin="round"/><polyline fill="none" points="-93.5662054826694,86.38095377825204 -91.0662054826606,85.71108079718887 -89.23607846372349,83.88095377827496 -88.5662054826286,81.38095377827466 -89.23607846369177,78.88095377826586 -91.06620548260568,77.05082675932874 -93.56620548260598,76.38095377823386 -96.06620548261478,77.05082675929702 -97.89633250155191,78.88095377821094 -98.5662054826468,81.38095377821124 -97.89633250158363,83.88095377822003 -96.06620548266972,85.71108079715717 -93.56620548266942,86.38095377825205" stroke="#ffa500" stroke-linecap="round" stroke-linejoin="round"/><polyline fill="none" points="-66.63696523415456,27.595759642602495 -64.13696523414576,26.92588666153933 -62.306838215208636,25.09575964262542 -61.63696523411375,22.595759642625126 -62.30683821517692,20.095759642616333 -64.13696523409082,18.265632623679203 -66.63696523409112,17.59575964258432 -69.13696523409992,18.265632623647484 -70.96709225303705,20.095759642561394 -71.63696523413194,22.59575964256169 -70.96709225306877,25.09575964257048 -69.13696523415486,26.92588666150761 -66.63696523415456,27.595759642602495" stroke="#00f" stroke-linecap="round" stroke-linejoin="round"/><polyline fill="none" points="-143.01661183905225,6.594916880090917 -140.51661183904346,5.925043899027754 -138.68648482010633,4.094916880113846 -138.01661183901143,1.5949168801135531 -138.68648482007458,-0.9050831198952403 -140.5166118389885,-2.7352101388323713 -143.01661183898878,-3.4050831199272578 -145.51661183899756,-2.735210138864096 -147.3467388579347,-0.905083119950189 -148.0166118390296,1.5949168800501046 -147.34673885796644,4.094916880058899 -145.51661183905253,5.925043898996032 -143.01661183905225,6.59491688009092" stroke="#ffa500" stroke-linecap="round" stroke-linejoin="round"/><polyline fill="none" points="-109.6170335154493,-49.267127888393425 -107.1170335154405,-49.93700086945658 -105.28690649650336,-51.76712788837049 -104.61703351540848,-54.26712788837078 -105.28690649647164,-56.76712788837958 -107.11703351538554,-58.59725490731671 -109.61703351538584,-59.2671278884116 -112.11703351539464,-58.59725490734844 -113.94716053433177,-56.76712788843454 -114.61703351542666,-54.267127888434246 -113.94716053436349,-51.76712788842545 -112.11703351544959,-49.937000869488315 -109.6170335154493,-49.267127888393425" stroke="#00f" stroke-linecap="round" stroke-linejoin="round"/><polyline fill="none" points="-161.04236249135732,-72.27638342482047 -158.5423624913485,-72.94625640588363 -156.71223547241138,-74.77638342479753 -156.04236249131648,-77.27638342479783 -156.71223547237963,-79.77638342480662 -158.54236249129355,-81.60651044374376 -161.04236249129383,-82.27638342483866 -163.54236249130264,-81.6065104437755 -165.37248951023977,-79.7763834248616 -166.04236249133467,-77.27638342486131 -165.37248951027152,-74.77638342485251 -163.5423624913576,-72.94625640591538 -161.04236249135732,-72.27638342482048" stroke="#ffa500" stroke-linecap="round" stroke-linejoin="round"/><polyline fill="none" points="-113.5070603052599,-45.19395508169929 -111.0070603052511,-45.86382806276245 -109.17693328631397,-47.69395508167636 -108.50706030521907,-50.19395508167665 -109.17693328628222,-52.693955081685445 -111.00706030519612,-54.524082100622586 -113.50706030519642,-55.19395508171748 -116.00706030520521,-54.524082100654326 -117.83718732414235,-52.69395508174042 -118.50706030523725,-50.19395508174013 -117.8371873241741,-47.69395508173133 -116.0070603052602,-45.86382806279419 -113.5070603052599,-45.19395508169929" stroke="#008000" stroke-linecap="round" stroke-linejoin="round"/><polyline fill="none" points="-36.187725445561796,48.9271915951485 -33.687725445553,48.25731861408535 -31.85759842661586,46.42719159517144 -31.18772544552096,43.92719159517115 -31.857598426584115,41.427191595162355 -33.68772544549802,39.597064576225215 -36.18772544549831,38.92719159513032 -38.687725445507105,39.59706457619347 -40.517852464444246,41.42719159510737 -41.187725445539144,43.92719159510766 -40.51785246447599,46.427191595116454 -38.687725445562094,48.257318614053595 -36.1877254455618,48.92719159514849" stroke="#ffa500" stroke-linecap="round" stroke-linejoin="round"/><polyline fill="none" points="31.014926820506595,1.1347785040516052 33.5149268205154,0.46490552298845367 35.34505383945254,-1.3652214959254474 36.01492682054744,-3.8652214959257405 35.34505383948429,-6.3652214959345415 33.51492682057039,-8.195348514871684 31.014926820570096,-8.865221495966583 28.514926820561296,-8.195348514903433 26.684799801624152,-6.365221495989532 26.01492682052925,-3.8652214959892386 26.6847998015924,-1.3652214959804376 28.5149268205063,0.4649055229567063 31.014926820506595,1.1347785040516076" stroke="#ffa500" stroke-linecap="round" stroke-linejoin="round"/><polyline fill="none" points="-133.14425449485117,-61.01091077287562 -130.64425449484236,-61.68078375393877 -128.81412747590522,-63.51091077285267 -128.14425449481033,-66.01091077285297 -128.81412747587348,-68.51091077286176 -130.6442544947874,-70.34103779179891 -133.14425449478767,-71.01091077289381 -135.64425449479648,-70.34103779183066 -137.47438151373362,-68.51091077291676 -138.14425449482852,-66.01091077291646 -137.47438151376537,-63.51091077290766 -135.64425449485148,-61.68078375397051 -133.1442544948512,-61.010910772875604" stroke="#ffa500" stroke-linecap="round" stroke-linejoin="round"/><polyline fill="none" points="-143.6958508501079,-40.99286706919701 -141.19585085009908,-41.662740050260155 -139.36572383116194,-43.49286706917405 -138.69585085006705,-45.992867069174345 -139.3657238311302,-48.49286706918315 -141.19585085004408,-50.322994088120296 -143.69585085004437,-50.9928670692152 -146.19585085005318,-50.32299408815206 -148.02597786899034,-48.49286706923816 -148.69585085008524,-45.99286706923787 -148.02597786902209,-43.492867069229064 -146.1958508501082,-41.662740050291916 -143.69585085010792,-40.99286706919701" stroke="#00f" stroke-linecap="round" stroke-linejoin="round"/><polyline fill="none" points="-105.54291448460813,-85.23382526492243 -103.04291448459932,-85.90369824598558 -101.21278746566217,-87.73382526489948 -100.54291448456726,-90.23382526489978 -101.2127874656304,-92.73382526490859 -103.0429144845443,-94.56395228384574 -105.5429144845446,-95.23382526494065 -108.0429144845534,-94.56395228387751 -109.87304150349055,-92.73382526496361 -110.54291448458547,-90.23382526496331 -109.87304150352233,-87.7338252649545 -108.04291448460843,-85.90369824601736 -105.54291448460813,-85.23382526492244" stroke="#ffa500" stroke-linecap="round" stroke-linejoin="round"/><polyline fill="none" points="-88.46139988180214,-54.001339016666655 -85.96139988179333,-54.6712119977298 -84.13127286285618,-56.5013390166437 -83.46139988176127,-59.00133901664399 -84.1312728628244,-61.50133901665279 -85.9613998817383,-63.33146603558995 -88.4613998817386,-64.00133901668485 -90.96139988174741,-63.33146603562171 -92.79152690068456,-61.50133901670782 -93.46139988177947,-59.001339016707526 -92.79152690071633,-56.50133901669872 -90.96139988180244,-54.67121199776157 -88.46139988180214,-54.001339016666655" stroke="#008000" stroke-linecap="round" stroke-linejoin="round"/><polyline fill="none" points="-85.09542064953337,10.216999454714152 -82.59542064952456,9.547126473651014 -80.7652936305874,7.7169994547371195 -80.09542064949248,5.2169994547368255 -80.76529363055562,2.7169994547280174 -82.59542064946952,0.8868724357908617 -85.09542064946982,0.21699945469594728 -87.59542064947863,0.8868724357590851 -89.42554766841579,2.7169994546729788 -90.0954206495107,5.216999454673273 -89.42554766844756,7.716999454682082 -87.59542064953366,9.547126473619238 -85.09542064953337,10.216999454714154" stroke="#ffa500" stroke-linecap="round" stroke-linejoin="round"/><polyline fill="none" points="-140.72159111939894,-12.026591506119392 -138.22159111939013,-12.696464487182528 -136.39146410045296,-14.52659150609642 -135.72159111935804,-17.026591506096715 -136.39146410042116,-19.526591506105525 -138.22159111933505,-21.356718525042684 -140.72159111933533,-22.0265915061376 -143.22159111934414,-21.356718525074463 -145.0517181382813,-19.52659150616057 -145.72159111937623,-17.026591506160276 -145.0517181383131,-14.526591506151467 -143.22159111939922,-12.696464487214309 -140.72159111939894,-12.02659150611939" stroke="#ffa500" stroke-linecap="round" stroke-linejoin="round"/><polyline fill="none" points="18.392329396893498,-33.164883240672395 20.89232939690231,-33.83475622173553 22.722456415839467,-35.664883240649424 23.392329396934386,-38.164883240649715 22.722456415871253,-40.664883240658526 20.89232939695736,-42.49501025959569 18.392329396957066,-43.16488324069061 15.892329396948256,-42.49501025962748 14.062202378011095,-40.664883240713586 13.392329396916175,-38.164883240713294 14.062202377979307,-35.664883240704484 15.892329396893198,-33.83475622176732 18.39232939689349,-33.1648832406724" stroke="#ffa500" stroke-linecap="round" stroke-linejoin="round"/><polyline fill="none" points="-162.81361209154537,-68.16968708413762 -160.31361209153656,-68.83956006520076 -158.4834850725994,-70.66968708411464 -157.81361209150447,-73.16968708411494 -158.4834850725676,-75.66968708412375 -160.31361209148147,-77.49981410306091 -162.81361209148176,-78.16968708415584 -165.31361209149057,-77.4998141030927 -167.14373911042773,-75.66968708417882 -167.81361209152266,-73.16968708417852 -167.14373911045953,-70.66968708416971 -165.31361209154565,-68.83956006523255 -162.81361209154537,-68.16968708413762" stroke="#00f" stroke-linecap="round" stroke-linejoin="round"/><polyline fill="none" points="-8.333086568841527,-32.075616242834336 -5.833086568832714,-32.745489223897465 -4.002959549895549,-34.57561624281136 -3.333086568800624,-37.07561624281165 -4.0029595498637525,-39.57561624282046 -5.833086568777641,-41.40574326175762 -8.333086568777933,-42.07561624285255 -10.833086568786747,-41.40574326178942 -12.663213587723913,-39.57561624287553 -13.333086568818839,-37.07561624287524 -12.663213587755711,-34.57561624286643 -10.833086568841825,-32.74548922392926 -8.333086568841532,-32.075616242834336" stroke="#00f" stroke-linecap="round" stroke-linejoin="round"/><polyline fill="none" points="-68.14924835201691,-28.329870731987903 -65.6492483520081,-28.99974371305103 -63.81912133307093,-30.829870731964917 -63.149248351976006,-33.32987073196521 -63.819121333039135,-35.829870731974026 -65.64924835195302,-37.659997750911195 -68.14924835195332,-38.32987073200612 -70.64924835196213,-37.659997750943 -72.47937537089929,-35.829870732029114 -73.14924835199422,-33.32987073202882 -72.4793753709311,-30.82987073202001 -70.64924835201721,-28.99974371308284 -68.14924835201691,-28.32987073198791" stroke="#ffa500" stroke-linecap="round" stroke-linejoin="round"/><polyline fill="none" points="-94.31022969699866,-40.664775734887655 -91.81022969698985,-41.33464871595078 -89.98010267805267,-43.16477573486466 -89.31022969695775,-45.66477573486495 -89.98010267802087,-48.16477573487377 -91.81022969693475,-49.99490275381094 -94.31022969693505,-50.664775734905874 -96.81022969694386,-49.99490275384275 -98.64035671588104,-48.16477573492887 -99.31022969697597,-45.664775734928575 -98.64035671591284,-43.16477573491976 -96.81022969699896,-41.33464871598259 -94.31022969699866,-40.664775734887655" stroke="#ffa500" stroke-linecap="round" stroke-linejoin="round"/><polyline fill="none" points="-134.76288340305567,-15.945695223853981 -132.26288340304686,-16.615568204917103 -130.4327563841097,-18.445695223830988 -129.76288340301477,-20.94569522383128 -130.4327563840779,-23.445695223840097 -132.26288340299178,-25.27582224277727 -134.76288340299206,-25.945695223872203 -137.26288340300087,-25.27582224280908 -139.09301042193803,-23.445695223895196 -139.76288340303296,-20.9456952238949 -139.09301042196984,-18.445695223886084 -137.26288340305595,-16.61556820494891 -134.76288340305567,-15.945695223853976" stroke="#ffa500" stroke-linecap="round" stroke-linejoin="round"/><polyline fill="none" points="-105.2409686936077,-55.55781725540294 -102.74096869359887,-56.22769023646606 -100.9108416746617,-58.057817255379945 -100.24096869356676,-60.557817255380236 -100.91084167462988,-63.057817255389054 -102.74096869354376,-64.88794427432623 -105.24096869354406,-65.55781725542117 -107.74096869355289,-64.88794427435805 -109.57109571249006,-63.057817255444164 -110.240968693585,-60.55781725544387 -109.57109571252188,-58.057817255435054 -107.740968693608,-56.22769023649788 -105.2409686936077,-55.55781725540294" stroke="#00f" stroke-linecap="round" stroke-linejoin="round"/><polyline fill="none" points="-19.585227205162635,55.14768050212545 -17.085227205153814,54.47780752106234 -15.255100186216637,52.647680502148454 -14.585227205121699,50.14768050214816 -15.255100186184816,47.647680502139345 -17.085227205098697,45.81755348320217 -19.58522720509899,45.14768050210723 -22.085227205107813,45.81755348317034 -23.915354224044993,47.64768050208422 -24.585227205139933,50.14768050208451 -23.915354224076818,52.64768050209334 -22.085227205162937,54.47780752103051 -19.585227205162642,55.14768050212545" stroke="#00f" stroke-linecap="round" stroke-linejoin="round"/><polyline fill="none" points="-80.36391624406308,26.690521905233034 -77.86391624405425,26.02064892416992 -76.03378922511708,24.190521905256038 -75.36391624402214,21.690521905255743 -76.03378922508524,19.19052190524692 -77.86391624399913,17.36039488630974 -80.36391624399943,16.690521905214798 -82.86391624400825,17.360394886277913 -84.69404326294543,19.190521905191794 -85.36391624404037,21.690521905192085 -84.69404326297726,24.190521905200907 -82.86391624406338,26.020648924138086 -80.36391624406308,26.69052190523303" stroke="#ffa500" stroke-linecap="round" stroke-linejoin="round"/><polyline fill="none" points="-92.82177925451298,-25.715412000884058 -90.32177925450415,-26.38528498194717 -88.49165223556697,-28.215412000861047 -87.82177925447203,-30.715412000861342 -88.49165223553514,-33.21541200087017 -90.32177925444903,-35.04553901980735 -92.82177925444932,-35.7154120009023 -95.32177925445815,-35.04553901983919 -97.15190627339533,-33.21541200092531 -97.82177925449027,-30.71541200092502 -97.15190627342716,-28.215412000916196 -95.32177925451327,-26.385284981979012 -92.82177925451298,-25.715412000884065" stroke="#008000" stroke-linecap="round" stroke-linejoin="round"/><polyline fill="none" points="-144.3845473258597,-62.20924553956954 -141.8845473258509,-62.879118520632645 -140.0544203069137,-64.70924553954652 -139.38454732581874,-67.20924553954681 -140.05442030688187,-69.70924553955564 -141.88454732579575,-71.53937255849283 -144.38454732579604,-72.20924553958778 -146.88454732580487,-71.53937255852468 -148.71467434474206,-69.7092455396108 -149.38454732583702,-67.2092455396105 -148.7146743447739,-64.70924553960168 -146.88454732586,-62.8791185206645 -144.38454732585973,-62.20924553956955" stroke="#ffa500" stroke-linecap="round" stroke-linejoin="round"/><polyline fill="none" points="184.71928889150593,-100.33955517254557 187.21928889151476,-101.00942815360868 189.04941591045196,-102.83955517252255 189.7192888915469,-105.33955517252285 189.04941591048382,-107.83955517253167 187.21928889156993,-109.66968219146887 184.71928889156965,-110.33955517256382 182.2192888915608,-109.66968219150071 180.38916187262362,-107.83955517258684 179.71928889152866,-105.33955517258654 180.38916187259176,-102.83955517257772 182.21928889150564,-101.00942815364053 184.71928889150593,-100.33955517254557" stroke="#ffa500" stroke-linecap="round" stroke-linejoin="round"/></svg>