<?xml version="1.0" ?><!DOCTYPE svg  PUBLIC '-//W3C//DTD SVG 1.1//EN'  'http://www.w3.org/Graphics/SVG/1.1/DTD/svg11.dtd'><svg height="255.000" viewBox="-200.000 -138.000 447.000 255.000" width="447.000" xmlns="http://www.w3.org/2000/svg"><line fill="none" stroke="none" stroke-linecap="round" stroke-width="2.0" x1="0.0" x2="0.0" y1="0.0" y2="0.0"/><polygon fill="none" fill-rule="evenodd" points="0.0,0.0 0.0,0.0 0.0,0.0" stroke-linejoin="round"/><polyline fill="none" points="-131.573667877396,-37.904168266690554 -129.0736678773853,-38.57404124775055 -127.24354085844494,-40.404168266662666 -126.57366787734637,-42.90416826666302 -127.24354085840636,-45.404168266673715 -129.07366787731848,-47.234295285614074 -131.57366787731883,-47.90416826671265 -134.0736678773295,-47.23429528565266 -135.90379489626986,-45.40416826674054 -136.57366787736845,-42.904168266740186 -135.90379489630845,-40.40416826672949 -134.07366787739633,-38.57404124778913 -131.573667877396,-37.904168266690554" stroke="#00f" stroke-linecap="round" stroke-linejoin="round"/><polyline fill="none" points="-136.17734141069337,-63.606626356515946 -133.6773414106827,-64.27649933757594 -131.8472143917423,-66.10662635648805 -131.17734141064372,-68.6066263564884 -131.84721439170372,-71.1066263564991 -133.67734141061584,-72.93675337543947 -136.17734141061618,-73.60662635653804 -138.67734141062687,-72.93675337547805 -140.50746842956724,-71.10662635656594 -141.17734141066583,-68.60662635656558 -140.50746842960584,-66.10662635655488 -138.6773414106937,-64.27649933761452 -136.17734141069337,-63.60662635651594" stroke="#008000" stroke-linecap="round" stroke-linejoin="round"/><polyline fill="none" points="-102.62197115988516,-79.67316531008244 -100.12197115987446,-80.34303829114243 -98.2918441409341,-82.17316531005454 -97.62197115983552,-84.6731653100549 -98.29184414089552,-87.1731653100656 -100.12197115980763,-89.00329232900596 -102.62197115980798,-89.67316531010454 -105.12197115981868,-89.00329232904454 -106.95209817875904,-87.17316531013243 -107.62197115985762,-84.67316531013208 -106.95209817879763,-82.17316531012138 -105.12197115988552,-80.34303829118102 -102.62197115988516,-79.67316531008242" stroke="#ffa500" stroke-linecap="round" stroke-linejoin="round"/><polyline fill="none" points="-119.46062234668402,-62.997831866065724 -116.96062234667332,-63.66770484712571 -115.13049532773296,-65.49783186603783 -114.46062234663437,-67.99783186603818 -115.13049532769435,-70.49783186604888 -116.96062234660646,-72.32795888498924 -119.46062234660681,-72.99783186608784 -121.96062234661751,-72.32795888502785 -123.79074936555787,-70.49783186611575 -124.46062234665646,-67.99783186611539 -123.79074936559648,-65.49783186610469 -121.96062234668437,-63.66770484716432 -119.46062234668402,-62.99783186606574" stroke="#008000" stroke-linecap="round" stroke-linejoin="round"/><polyline fill="none" points="-145.47714085806766,-29.546784554908974 -142.97714085805697,-30.21665753596896 -141.1470138391166,-32.04678455488107 -140.477140858018,-34.54678455488143 -141.147013839078,-37.04678455489213 -142.97714085799012,-38.876911573832494 -145.47714085799046,-39.54678455493109 -147.97714085800115,-38.8769115738711 -149.80726787694152,-37.04678455495899 -150.47714085804012,-34.546784554958634 -149.80726787698012,-32.04678455494793 -147.97714085806803,-30.216657536007563 -145.47714085806768,-29.546784554908974" stroke="#00f" stroke-linecap="round" stroke-linejoin="round"/><polyline fill="none" points="-134.4209138703467,-85.73085566697623 -131.92091387033602,-86.4007286480362 -130.09078685139565,-88.23085566694832 -129.42091387029706,-90.73085566694867 -130.09078685135705,-93.23085566695937 -131.92091387026915,-95.06098268589975 -134.4209138702695,-95.73085566699834 -136.92091387028017,-95.06098268593836 -138.75104088922055,-93.23085566702625 -139.42091387031914,-90.73085566702589 -138.75104088925914,-88.23085566701519 -136.92091387034705,-86.40072864807482 -134.4209138703467,-85.73085566697623" stroke="#00f" stroke-linecap="round" stroke-linejoin="round"/><polyline fill="none" points="211.97596318043986,-117.14349955778063 214.47596318045055,-117.81337253884061 216.30609019939092,-119.64349955775272 216.97596318048952,-122.14349955775307 216.30609019942955,-124.64349955776377 214.47596318051745,-126.47362657670415 211.9759631805171,-127.14349955780274 209.47596318050643,-126.47362657674276 207.64583616156605,-124.64349955783065 206.97596318046746,-122.1434995578303 207.64583616152743,-119.6434995578196 209.47596318043952,-117.81337253887922 211.97596318043986,-117.14349955778063" stroke="#ffa500" stroke-linecap="round" stroke-linejoin="round"/><polyline fill="none" points="-183.08754891041772,-81.00301389663936 -180.587548910407,-81.67288687769934 -178.75742189146663,-83.50301389661145 -178.08754891036804,-86.0030138966118 -178.757421891428,-88.5030138966225 -180.5875489103401,-90.33314091556288 -183.08754891034044,-91.00301389666147 -185.58754891035116,-90.33314091560149 -187.41767592929153,-88.50301389668938 -188.08754891039013,-86.00301389668903 -187.41767592933016,-83.50301389667833 -185.58754891041806,-81.67288687773795 -183.08754891041772,-81.00301389663936" stroke="#00f" stroke-linecap="round" stroke-linejoin="round"/><polyline fill="none" points="63.24693908445944,-4.486153904686425 65.74693908447014,-5.156026885746402 67.57706610341052,-6.986153904658505 68.24693908450911,-9.486153904658858 67.57706610344913,-11.98615390466956 65.74693908453702,-13.816280923609938 63.24693908453666,-14.486153904708537 60.74693908452596,-13.816280923648561 58.91681206558558,-11.986153904736458 58.24693908448698,-9.486153904736105 58.91681206554696,-6.986153904725401 60.74693908445906,-5.156026885785023 63.24693908445941,-4.486153904686422" stroke="#ffa500" stroke-linecap="round" stroke-linejoin="round"/><polyline fill="none" points="230.0789007530344,-112.63786281889939 232.5789007530451,-113.30773579995937 234.40902777198548,-115.13786281887148 235.07890075308407,-117.63786281887184 234.4090277720241,-120.13786281888254 232.578900753112,-121.96798983782291 230.07890075311167,-122.63786281892152 227.57890075310095,-121.96798983786155 225.74877373416058,-120.13786281894946 225.078900753062,-117.6378628189491 225.74877373412195,-115.1378628189384 227.57890075303405,-113.30773579999803 230.0789007530344,-112.63786281889942" stroke="#00f" stroke-linecap="round" stroke-linejoin="round"/><polyline fill="none" points="-108.48998988104512,-69.8735574657797 -105.98998988103442,-70.54343044683966 -104.15986286209403,-72.37355746575176 -103.48998988099542,-74.87355746575211 -104.15986286205539,-77.37355746576281 -105.98998988096749,-79.2036844847032 -108.48998988096784,-79.87355746580181 -110.98998988097854,-79.20368448474184 -112.82011689991893,-77.37355746582975 -113.48998988101754,-74.87355746582939 -112.82011689995757,-72.37355746581869 -110.98998988104547,-70.5434304468783 -108.48998988104512,-69.8735574657797" stroke="#00f" stroke-linecap="round" stroke-linejoin="round"/><polyline fill="none" points="10.669813538131788,11.224323251770864 13.169813538142494,10.554450270710893 14.999940557082878,8.724323251798793 15.669813538181486,6.22432325179844 14.999940557121517,3.7243232517877334 13.169813538209418,1.8941962328473492 10.669813538209064,1.224323251748741 8.169813538198358,1.8941962328087096 6.339686519257974,3.724323251720808 5.6698135381593655,6.224323251721161 6.339686519219334,8.72432325173187 8.169813538131432,10.554450270672255 10.669813538131786,11.224323251770866" stroke="#00f" stroke-linecap="round" stroke-linejoin="round"/><polyline fill="none" points="-84.39883693335685,-63.63832773463625 -81.89883693334615,-64.30820071569622 -80.06870991440576,-66.13832773460831 -79.39883693330715,-68.63832773460867 -80.06870991436712,-71.13832773461937 -81.89883693327921,-72.96845475355975 -84.39883693327957,-73.63832773465836 -86.89883693329028,-72.9684547535984 -88.72896395223067,-71.1383277346863 -89.39883693332928,-68.63832773468594 -88.72896395226931,-66.13832773467523 -86.89883693335722,-64.30820071573484 -84.39883693335686,-63.63832773463623" stroke="#ffa500" stroke-linecap="round" stroke-linejoin="round"/><polyline fill="none" points="-42.818610303024265,17.668082382625798 -40.31861030301356,16.998209401565834 -38.48848328407317,15.168082382653738 -37.818610302974555,12.668082382653385 -38.48848328403452,10.168082382642675 -40.31861030294662,8.337955363702285 -42.81861030294697,7.6680823826036715 -45.31861030295768,8.337955363663635 -47.14873732189807,10.168082382575731 -47.81861030299668,12.668082382576085 -47.148737321936714,15.168082382586794 -45.31861030302462,16.998209401527184 -42.818610303024265,17.668082382625798" stroke="#ffa500" stroke-linecap="round" stroke-linejoin="round"/><polyline fill="none" points="-83.31026911729536,-46.45979568535375 -80.81026911728465,-47.12966866641371 -78.98014209834426,-48.9597956853258 -78.31026911724564,-51.459795685326156 -78.9801420983056,-53.959795685336864 -80.8102691172177,-55.78992270427725 -83.31026911721806,-56.459795685375866 -85.81026911722877,-55.789922704315906 -87.64039613616916,-53.95979568540381 -88.31026911726778,-51.459795685403456 -87.64039613620781,-48.95979568539275 -85.81026911729572,-47.12966866645235 -83.31026911729536,-46.45979568535374" stroke="#ffa500" stroke-linecap="round" stroke-linejoin="round"/><polyline fill="none" points="-120.79620434751547,-82.0395948968388 -118.29620434750476,-82.70946787789877 -116.46607732856437,-84.53959489681087 -115.79620434746575,-87.03959489681122 -116.46607732852571,-89.53959489682194 -118.29620434743781,-91.36972191576233 -120.79620434743816,-92.03959489686095 -123.29620434744888,-91.369721915801 -125.12633136638927,-89.5395948968889 -125.79620434748789,-87.03959489688854 -125.12633136642793,-84.53959489687783 -123.29620434751584,-82.70946787793744 -120.79620434751548,-82.03959489683882" stroke="#00f" stroke-linecap="round" stroke-linejoin="round"/><polyline fill="none" points="-122.51595762505555,-43.692990518467795 -120.01595762504483,-44.362863499527755 -118.18583060610445,-46.19299051843985 -117.51595762500583,-48.692990518440205 -118.18583060606578,-51.19299051845092 -120.01595762497787,-53.023117537391315 -122.51595762497823,-53.692990518489935 -125.01595762498894,-53.023117537429975 -126.84608464392934,-51.19299051851788 -127.51595762502797,-48.692990518517526 -126.84608464396801,-46.19299051850681 -125.01595762505592,-44.362863499566416 -122.51595762505556,-43.692990518467795" stroke="#00f" stroke-linecap="round" stroke-linejoin="round"/><polyline fill="none" points="-87.60219695800065,32.39714296450947 -85.10219695798993,31.727269983449514 -83.27206993904953,29.897142964537423 -82.60219695795091,27.397142964537068 -83.27206993901086,24.897142964526353 -85.10219695792296,23.067015945585954 -87.60219695792331,22.39714296448733 -90.10219695793403,23.067015945547286 -91.93232397687443,24.897142964459377 -92.60219695797305,27.397142964459732 -91.9323239769131,29.897142964470447 -90.102196958001,31.727269983410846 -87.60219695800065,32.39714296450947" stroke="#ffa500" stroke-linecap="round" stroke-linejoin="round"/><polyline fill="none" points="-132.4510062910989,-86.7633517386296 -129.9510062910882,-87.43322471968955 -128.1208792721478,-89.26335173860164 -127.45100629104917,-91.763351738602 -128.12087927210914,-94.26335173861271 -129.95100629102123,-96.09347875755311 -132.45100629102157,-96.76335173865174 -134.9510062910323,-96.09347875759178 -136.7811333099727,-94.26335173867969 -137.4510062910713,-91.76335173867933 -136.78113331001137,-89.26335173866862 -134.95100629109928,-87.43322471972822 -132.45100629109893,-86.76335173862958" stroke="#00f" stroke-linecap="round" stroke-linejoin="round"/><polyline fill="none" points="49.913999594883705,12.685388134734811 52.41399959489442,12.01551515367486 54.24412661383482,10.185388134762771 54.91399959493345,7.685388134762418 54.2441266138735,5.185388134751701 52.41399959496141,3.3552611158112984 49.913999594961055,2.685388134712669 47.41399959495034,3.3552611157726195 45.58387257600994,5.1853881346847075 44.91399959491131,7.685388134685061 45.58387257597126,10.185388134695778 47.41399959488335,12.015515153636182 49.913999594883705,12.685388134734811" stroke="#00f" stroke-linecap="round" stroke-linejoin="round"/><polyline fill="none" points="14.66368127129621,-16.90656205075934 17.163681271306928,-17.57643503181929 18.993808290247333,-19.406562050731377 19.663681271345965,-21.90656205073173 18.993808290286015,-24.406562050742448 17.163681271373928,-26.236689069682853 14.663681271373575,-26.906562050781485 12.163681271362856,-26.236689069721535 10.33355425242245,-24.40656205080945 9.663681271323817,-21.906562050809093 10.333554252383765,-19.406562050798374 12.16368127129585,-17.57643503185797 14.663681271296204,-16.906562050759334" stroke="#ffa500" stroke-linecap="round" stroke-linejoin="round"/><polyline fill="none" points="-171.63889984382317,-88.87562966159676 -169.13889984381245,-89.54550264265671 -167.30877282487205,-91.3756296615688 -166.63889984377343,-93.87562966156915 -167.30877282483337,-96.37562966157986 -169.13889984374546,-98.20575668052027 -171.6388998437458,-98.8756296616189 -174.13889984375652,-98.20575668055895 -175.96902686269692,-96.37562966164687 -176.63889984379557,-93.87562966164651 -175.96902686273563,-91.3756296616358 -174.13889984382354,-89.5455026426954 -171.6388998438232,-88.87562966159676" stroke="#ffa500" stroke-linecap="round" stroke-linejoin="round"/><polyline fill="none" points="59.83066032626324,-4.268325400653442 62.330660326273964,-4.938198381713387 64.16078734521437,-6.768325400625471 64.83066032631301,-9.268325400625825 64.16078734525307,-11.768325400636545 62.33066032634098,-13.598452419576954 59.83066032634063,-14.268325400675591 57.330660326329905,-13.598452419615647 55.500533307389496,-11.768325400703564 54.83066032629086,-9.26832540070321 55.50053330735081,-6.768325400692488 57.33066032626289,-4.938198381752077 59.83066032626324,-4.268325400653438" stroke="#ffa500" stroke-linecap="round" stroke-linejoin="round"/><polyline fill="none" points="-123.66685895944734,-39.577411459772414 -121.16685895943661,-40.24728444083236 -119.3367319404962,-42.07741145974445 -118.66685895939756,-44.5774114597448 -119.3367319404575,-47.077411459755524 -121.16685895936958,-48.90753847869593 -123.66685895936993,-49.577411459794575 -126.16685895938066,-48.90753847873464 -127.99698597832108,-47.07741145982256 -128.66685895941973,-44.5774114598222 -127.99698597835979,-42.07741145981148 -126.16685895944771,-40.24728444087106 -123.66685895944735,-39.57741145977242" stroke="#00f" stroke-linecap="round" stroke-linejoin="round"/><polyline fill="none" points="-74.36130763958876,90.12512874279251 -71.86130763957803,89.45525576173257 -70.03118062063761,87.6251287428205 -69.36130763953898,85.12512874282014 -70.03118062059892,82.62512874280941 -71.861307639511,80.79500172386899 -74.36130763951135,80.12512874277036 -76.86130763952208,80.7950017238303 -78.6914346584625,82.62512874274238 -79.36130763956115,85.12512874274273 -78.69143465850121,87.62512874275346 -76.86130763958913,89.45525576169388 -74.36130763958877,90.12512874279253" stroke="#ffa500" stroke-linecap="round" stroke-linejoin="round"/><polyline fill="none" points="6.273832102724322,10.360402975465501 8.773832102735046,9.690529994405562 10.603959121675462,7.860402975493481 11.273832102774106,5.360402975493128 10.603959121714169,2.860402975482403 8.77383210280209,1.030275956541987 6.273832102801736,0.36040297544334243 3.7738321027910104,1.0302759565032797 1.943705083850594,2.86040297541536 1.2738321027519488,5.360402975415713 1.9437050838118854,7.860402975426439 3.773832102723965,9.690529994366855 6.2738321027243185,10.360402975465501" stroke="#ffa500" stroke-linecap="round" stroke-linejoin="round"/><polyline fill="none" points="221.23402610117134,-111.24450358002495 223.73402610118205,-111.9143765610849 225.56415312012248,-113.74450357999697 226.23402610122113,-116.24450357999733 225.5641531201612,-118.74450358000806 223.73402610124913,-120.57463059894847 221.2340261012488,-121.24450358004712 218.73402610123807,-120.57463059898718 216.90389908229764,-118.7445035800751 216.234026101199,-116.24450358007475 216.90389908225893,-113.74450358006402 218.734026101171,-111.9143765611236 221.23402610117134,-111.24450358002495" stroke="#ffa500" stroke-linecap="round" stroke-linejoin="round"/><polyline fill="none" points="-99.23249449803886,-55.50796130509841 -96.73249449802813,-56.177834286158344 -94.90236747908772,-58.007961305070424 -94.23249449798907,-60.50796130507078 -94.902367479049,-63.00796130508151 -96.73249449796108,-64.83808832402192 -99.23249449796144,-65.50796130512057 -101.73249449797217,-64.83808832406064 -103.56262151691259,-63.007961305148555 -104.23249449801123,-60.5079613051482 -103.5626215169513,-58.00796130513747 -101.73249449803922,-56.17783428619705 -99.23249449803886,-55.5079613050984" stroke="#ffa500" stroke-linecap="round" stroke-linejoin="round"/><polyline fill="none" points="-46.38316899169928,39.069370707867186 -43.88316899168855,38.399497726807255 -42.053041972748126,36.569370707895175 -41.38316899164948,34.06937070789482 -42.05304197270941,31.56937070788409 -43.88316899162149,29.739243688943667 -46.383168991621844,29.069370707845014 -48.88316899163257,29.739243688904946 -50.713296010572996,31.569370707817022 -51.38316899167165,34.06937070781738 -50.71329601061172,36.56937070782811 -48.88316899169965,38.39949772676853 -46.38316899169929,39.069370707867186" stroke="#ffa500" stroke-linecap="round" stroke-linejoin="round"/><polyline fill="none" points="-88.23264930292673,-17.892087496420192 -85.732649302916,-18.56196047748012 -83.90252228397557,-20.392087496392197 -83.23264930287692,-22.89208749639255 -83.90252228393685,-25.392087496403278 -85.73264930284893,-27.2222145153437 -88.23264930284928,-27.892087496442358 -90.73264930286001,-27.22221451538243 -92.56277632180044,-25.392087496470353 -93.2326493028991,-22.892087496469998 -92.56277632183918,-20.39208749645927 -90.7326493029271,-18.56196047751884 -88.23264930292675,-17.892087496420185" stroke="#ffa500" stroke-linecap="round" stroke-linejoin="round"/><polyline fill="none" points="63.91785018478625,10.602448597561654 66.41785018479699,9.932575616501728 68.24797720373742,8.102448597589653 68.91785018483608,5.6024485975893 68.24797720377616,3.102448597578568 66.41785018486408,1.2723215786381399 63.917850184863724,0.6024485975394813 61.417850184852995,1.2723215785994064 59.587723165912564,3.1024485975114793 58.91785018481391,5.602448597511833 59.58772316587383,8.102448597522566 61.417850184785905,9.932575616462994 63.91785018478626,10.602448597561654" stroke="#ffa500" stroke-linecap="round" stroke-linejoin="round"/><polyline fill="none" points="33.70428026052458,-15.648562065929873 36.20428026053531,-16.318435046989798 38.034407279475744,-18.14856206590187 38.70428026057441,-20.648562065902226 38.03440727951448,-23.14856206591296 36.20428026060241,-24.97868908485339 33.704280260602054,-25.64856206595205 31.20428026059132,-24.978689084892125 29.37415324165089,-23.14856206598005 28.704280260552228,-20.648562065979696 29.37415324161215,-18.148562065968964 31.20428026052422,-16.318435047028533 33.70428026052458,-15.64856206592987" stroke="#00f" stroke-linecap="round" stroke-linejoin="round"/><polyline fill="none" points="-108.33523346898086,29.665447058091893 -105.83523346897013,28.99557407703197 -104.0051064500297,27.165447058119902 -103.33523346893104,24.665447058119547 -104.00510644999096,22.165447058108814 -105.83523346890303,20.33532003916838 -108.33523346890338,19.665447058069716 -110.83523346891411,20.335320039129638 -112.66536048785454,22.165447058041707 -113.3352334689532,24.665447058042062 -112.66536048789328,27.1654470580528 -110.83523346898122,28.995574076993233 -108.33523346898086,29.665447058091896" stroke="#00f" stroke-linecap="round" stroke-linejoin="round"/><polyline fill="none" points="3.4051979004256787,49.73767938308738 5.905197900436415,49.067806402027465 7.735324919376849,47.23767938311539 8.405197900475514,44.73767938311504 7.735324919415595,42.2376793831043 5.9051979005035244,40.40755236416386 3.4051979005031705,39.7376793830652 0.9051979004924342,40.40755236412512 -0.9249291184480015,42.23767938303719 -1.5948020995466687,44.737679383037545 -0.924929118486751,47.23767938304828 0.9051979004253181,49.06780640198872 3.4051979004256716,49.73767938308739" stroke="#ffa500" stroke-linecap="round" stroke-linejoin="round"/><polyline fill="none" points="3.8722664404459026,57.366485835747326 6.372266440456639,56.69661285468741 8.202393459397076,54.86648583577534 8.872266440495745,52.36648583577499 8.202393459435829,49.86648583576425 6.372266440523761,48.036358816823814 3.872266440523408,47.36648583572514 1.3722664405126714,48.03635881678506 -0.4578605784277656,49.86648583569713 -1.127733559526435,52.36648583569748 -0.4578605784665195,54.86648583570822 1.3722664404455478,56.696612854648656 3.872266440445901,57.366485835747326" stroke="#ffa500" stroke-linecap="round" stroke-linejoin="round"/><polyline fill="none" points="221.53376267026434,-104.5264738105058 224.03376267027508,-105.19634679156572 225.8638896892155,-107.02647381047778 226.5337626703142,-109.52647381047814 225.86388968925428,-112.02647381048888 224.0337626703422,-113.85660082942933 221.53376267034187,-114.526473810528 219.03376267033113,-113.85660082946809 217.2036356513907,-112.02647381055603 216.53376267029202,-109.52647381055567 217.20363565135193,-107.02647381054493 219.033762670264,-105.19634679160448 221.53376267026434,-104.5264738105058" stroke="#ffa500" stroke-linecap="round" stroke-linejoin="round"/><polyline fill="none" points="-40.48871027323441,31.629663343824145 -37.988710273223674,30.95979036276423 -36.158583254283236,29.129663343852165 -35.488710273184566,26.62966334385181 -36.158583254244476,24.12966334384107 -37.98871027315654,22.29953632490063 -40.4887102731569,21.629663343801955 -42.98871027316764,22.299536324861865 -44.818837292108086,24.12966334377393 -45.48871027320676,26.629663343774283 -44.81883729214685,29.129663343785023 -42.98871027323479,30.959790362725464 -40.48871027323443,31.629663343824138" stroke="#ffa500" stroke-linecap="round" stroke-linejoin="round"/><polyline fill="none" points="62.273327062462684,14.264263259879517 64.77332706247343,13.594390278819606 66.60345408141387,11.764263259907542 67.27332706251255,9.264263259907189 66.60345408145264,6.764263259896447 64.77332706254057,4.934136240956003 62.27332706254022,4.2642632598573265 59.773327062529475,4.934136240917235 57.94320004358903,6.764263259829299 57.27332706249035,9.264263259829653 57.94320004355026,11.764263259840394 59.77332706246233,13.594390278780839 62.273327062462684,14.264263259879517" stroke="#ffa500" stroke-linecap="round" stroke-linejoin="round"/><polyline fill="none" points="216.9812562729863,-95.58221445493376 219.48125627299703,-96.25208743599367 221.3113832919375,-98.08221445490574 221.98125627303617,-100.5822144549061 221.31138329197626,-103.08221445491684 219.4812562730642,-104.91234147385728 216.98125627306385,-105.58221445495596 214.4812562730531,-104.91234147389605 212.65112925411265,-103.08221445498398 211.98125627301397,-100.58221445498363 212.65112925407388,-98.08221445497288 214.48125627298595,-96.25208743603244 216.9812562729863,-95.58221445493376" stroke="#ffa500" stroke-linecap="round" stroke-linejoin="round"/><polyline fill="none" points="66.45014942248916,23.18462682131318 68.9501494224999,22.514753840253274 70.78027644144035,20.68462682134121 71.45014942253903,18.184626821340856 70.78027644147912,15.684626821330113 68.95014942256705,13.854499802389665 66.4501494225667,13.184626821290982 63.95014942255595,13.854499802350887 62.1200224036155,15.684626821262949 61.450149422516816,18.184626821263304 62.12002240357672,20.684626821274048 63.95014942248878,22.514753840214496 66.45014942248913,23.18462682131318" stroke="#ffa500" stroke-linecap="round" stroke-linejoin="round"/><polyline fill="none" points="88.21613189542386,11.417389886999379 90.7161318954346,10.747516905939476 92.54625891437504,8.917389887027415 93.21613189547372,6.417389887027062 92.54625891441383,3.917389887016316 90.71613189550176,2.0872628680758654 88.2161318955014,1.4173898869771804 85.71613189549066,2.0872628680370826 83.88600487655022,3.9173898869491426 83.21613189545153,6.417389886949496 83.88600487651142,8.917389886960242 85.71613189542349,10.747516905900694 88.21613189542384,11.41738988699938" stroke="#ffa500" stroke-linecap="round" stroke-linejoin="round"/><polyline fill="none" points="-125.50764395334747,-76.37652005582031 -123.00764395333672,-77.0463930368802 -121.17751693439627,-78.87652005579227 -120.50764395329757,-81.37652005579262 -121.17751693435747,-83.87652005580337 -123.00764395326954,-85.70664707474383 -125.50764395326989,-86.37652005584252 -128.00764395328065,-85.70664707478262 -129.8377709722211,-83.87652005587057 -130.50764395331979,-81.37652005587022 -129.83777097225988,-78.87652005585947 -128.0076439533478,-77.04639303691901 -125.50764395334745,-76.37652005582032" stroke="#ffa500" stroke-linecap="round" stroke-linejoin="round"/><polyline fill="none" points="80.76127357902018,18.45068596584086 83.26127357903093,17.78081298478096 85.09140059797139,15.950685965868905 85.76127357907008,13.450685965868551 85.09140059801018,10.950685965857804 83.26127357909813,9.120558946917349 80.76127357909778,8.450685965818657 78.26127357908703,9.120558946878555 76.43114656014657,10.950685965790612 75.76127357904788,13.450685965790965 76.43114656010778,15.950685965801714 78.26127357901983,17.78081298474217 80.76127357902018,18.45068596584086" stroke="#ffa500" stroke-linecap="round" stroke-linejoin="round"/><polyline fill="none" points="-136.0989580742138,-41.978984435965735 -133.59895807420307,-42.64885741702563 -131.7688310552626,-44.47898443593769 -131.0989580741639,-46.978984435938045 -131.76883105522379,-49.478984435948796 -133.59895807413585,-51.309111454889255 -136.0989580741362,-51.97898443598795 -138.59895807414694,-51.30911145492805 -140.4290850930874,-49.47898443601599 -141.0989580741861,-46.97898443601564 -140.42908509312622,-44.478984436004886 -138.59895807421415,-42.64885741706443 -136.0989580742138,-41.97898443596573" stroke="#008000" stroke-linecap="round" stroke-linejoin="round"/><polyline fill="none" points="-97.9855125938056,43.67874150991927 -95.48551259379485,43.008868528859374 -93.65538557485439,41.17874150994732 -92.9855125937557,38.67874150994697 -93.6553855748156,36.178741509936216 -95.48551259372765,34.34861449099576 -97.985512593728,33.67874150989706 -100.48551259373876,34.34861449095695 -102.31563961267922,36.178741509869 -102.98551259377791,38.678741509869354 -102.31563961271802,41.178741509880105 -100.48551259380596,43.008868528820564 -97.98551259380561,43.67874150991926" stroke="#ffa500" stroke-linecap="round" stroke-linejoin="round"/><polyline fill="none" points="7.627428060026057,22.648717438968824 10.12742806003681,21.978844457908934 11.957555078977272,20.148717438996883 12.627428060075971,17.648717438996528 11.95755507901608,15.148717438985775 10.127428060104027,13.318590420045313 7.627428060103673,12.648717438946614 5.127428060092921,13.318590420006503 3.2973010411524566,15.148717438918556 2.6274280600537563,17.648717438918908 3.2973010411136454,20.148717438929662 5.127428060025698,21.978844457870128 7.627428060026052,22.64871743896883" stroke="#ffa500" stroke-linecap="round" stroke-linejoin="round"/><polyline fill="none" points="-85.9561003989994,13.160914534972399 -83.45610039898864,12.49104155391251 -81.62597338004818,10.660914535000458 -80.95610039894947,8.160914535000105 -81.62597338000936,5.660914534989351 -83.45610039892141,3.8307875160488845 -85.95610039892176,3.160914534950182 -88.45610039893252,3.8307875160100693 -90.286227417873,5.660914534922121 -90.9561003989717,8.160914534922474 -90.28622741791182,10.660914534933228 -88.45610039899977,12.491041553873696 -85.95610039899941,13.1609145349724" stroke="#ffa500" stroke-linecap="round" stroke-linejoin="round"/><polyline fill="none" points="-165.67437386283888,-9.485032497550376 -163.17437386282813,-10.154905478610262 -161.34424684388767,-11.985032497522312 -160.67437386278897,-14.485032497522665 -161.34424684384885,-16.98503249753342 -163.1743738627609,-18.81515951647389 -165.67437386276123,-19.485032497572597 -168.17437386277197,-18.81515951651271 -170.00450088171243,-16.985032497600663 -170.67437386281114,-14.48503249760031 -170.00450088175126,-11.985032497589554 -168.17437386283922,-10.154905478649084 -165.67437386283888,-9.485032497550378" stroke="#00f" stroke-linecap="round" stroke-linejoin="round"/><polyline fill="none" points="-143.52291845052957,-12.571013056663098 -141.02291845051883,-13.240886037722982 -139.19279143157837,-15.071013056635032 -138.52291845047966,-17.571013056635387 -139.19279143153955,-20.071013056646144 -141.02291845045158,-21.901140075586614 -143.52291845045193,-22.571013056685324 -146.02291845046267,-21.90114007562544 -147.85304546940313,-20.071013056713394 -148.52291845050183,-17.571013056713042 -147.85304546944195,-15.071013056702284 -146.02291845052991,-13.240886037761813 -143.52291845052957,-12.571013056663103" stroke="#00f" stroke-linecap="round" stroke-linejoin="round"/><polyline fill="none" points="-125.56823638417436,3.047890349618081 -123.0682363841636,2.3780173685582002 -121.23810936522312,0.5478903496461527 -120.56823638412442,-1.9521096503542008 -121.2381093651843,-4.452109650364958 -123.06823638409635,-6.282236669305432 -125.5682363840967,-6.952109650404143 -128.06823638410748,-6.282236669344263 -129.89836340304797,-4.452109650432216 -130.56823638414667,-1.9521096504318622 -129.8983634030868,0.5478903495788963 -128.06823638417475,2.3780173685193704 -125.5682363841744,3.0478903496180827" stroke="#ffa500" stroke-linecap="round" stroke-linejoin="round"/><polyline fill="none" points="-68.3484243298104,54.95031147526414 -65.84842432979964,54.280438494204255 -64.01829731085917,52.45031147529221 -63.348424329760455,49.950311475291855 -64.01829731082033,47.4503114752811 -65.84842432973238,45.620184456340624 -68.34842432973274,44.95031147524191 -70.8484243297435,45.620184456301786 -72.67855134868397,47.45031147521383 -73.34842432978269,49.950311475214185 -72.6785513487228,52.45031147522494 -70.84842432981075,54.28043849416542 -68.3484243298104,54.95031147526414" stroke="#ffa500" stroke-linecap="round" stroke-linejoin="round"/><polyline fill="none" points="-14.04467785764257,63.35831317841709 -11.54467785763181,62.68844019735722 -9.71455083869133,60.85831317844517 -9.044677857592616,58.35831317844482 -9.714550838652492,55.85831317843406 -11.544677857564537,54.02818615949358 -14.04467785756489,53.358313178394866 -16.54467785757565,54.02818615945474 -18.37480487651613,55.858313178366785 -19.044677857614847,58.35831317836714 -18.374804876554972,60.858313178377905 -16.544677857642927,62.688440197318386 -14.044677857642574,63.358313178417106" stroke="#ffa500" stroke-linecap="round" stroke-linejoin="round"/><polyline fill="none" points="-61.92164067768382,-16.07654186059642 -59.421640677673054,-16.746414841656296 -57.59151365873257,-18.57654186056834 -56.92164067763385,-21.076541860568696 -57.59151365869373,-23.576541860579457 -59.42164067760577,-25.406668879519938 -61.92164067760613,-26.076541860618658 -64.42164067761689,-25.406668879558787 -66.25176769655738,-23.576541860646742 -66.9216406776561,-21.076541860646387 -66.25176769659623,-18.576541860635626 -64.4216406776842,-16.746414841695145 -61.92164067768384,-16.076541860596425" stroke="#00f" stroke-linecap="round" stroke-linejoin="round"/><polyline fill="none" points="-131.08903983172553,-49.31225274747185 -128.58903983171476,-49.98212572853173 -126.75891281277427,-51.81225274744377 -126.08903983167555,-54.31225274744413 -126.75891281273542,-56.81225274745489 -128.58903983164745,-58.64237976639537 -131.0890398316478,-59.31225274749409 -133.58903983165857,-58.642379766434225 -135.41916685059905,-56.81225274752218 -136.0890398316978,-54.312252747521825 -135.4191668506379,-51.81225274751106 -133.58903983172587,-49.98212572857058 -131.08903983172553,-49.31225274747186" stroke="#00f" stroke-linecap="round" stroke-linejoin="round"/><polyline fill="none" points="-80.96740968741506,103.99199657735471 -78.4674096874043,103.32212359629484 -76.63728266846381,101.4919965773828 -75.96740968736509,98.99199657738245 -76.63728266842496,96.49199657737168 -78.467409687337,94.66186955843119 -80.96740968733735,93.99199657733247 -83.46740968734812,94.66186955839234 -85.29753670628861,96.49199657730438 -85.96740968738733,98.99199657730473 -85.29753670632746,101.4919965773155 -83.46740968741543,103.32212359625599 -80.96740968741507,103.99199657735471" stroke="#ffa500" stroke-linecap="round" stroke-linejoin="round"/><polyline fill="none" points="-121.52572082760332,3.5909580190511736 -119.02572082759255,2.9210850379913063 -117.19559380865206,1.0909580190792663 -116.52572082755334,-1.4090419809210877 -117.19559380861321,-3.9090419809318537 -119.02572082752525,-5.739168999872341 -121.5257208275256,-6.409041980971068 -124.02572082753638,-5.739168999911202 -125.85584784647686,-3.909041980999163 -126.5257208275756,-1.4090419809988095 -125.85584784651573,1.0909580190119574 -124.02572082760369,2.9210850379524462 -121.52572082760334,3.5909580190511745" stroke="#ffa500" stroke-linecap="round" stroke-linejoin="round"/><polyline fill="none" points="-126.1110114816501,-55.72705081517374 -123.61101148163932,-56.39692379623361 -121.78088446269884,-58.227050815145645 -121.1110114816001,-60.727050815146 -121.78088446265997,-63.227050815156765 -123.611011481572,-65.05717783409726 -126.11101148157236,-65.727050815196 -128.61101148158312,-65.05717783413613 -130.4411385005236,-63.22705081522409 -131.11101148162234,-60.727050815223734 -130.4411385005625,-58.22705081521297 -128.61101148165045,-56.39692379627248 -126.1110114816501,-55.72705081517375" stroke="#f00" stroke-linecap="round" stroke-linejoin="round"/><polyline fill="none" points="-42.860860107431606,-31.037204565827288 -40.360860107420834,-31.70707754688715 -38.53073308848034,-33.537204565799186 -37.860860107381605,-36.03720456579954 -38.530733088441465,-38.53720456581031 -40.3608601073535,-40.36733158475081 -42.86086010735386,-41.03720456584954 -45.36086010736463,-40.36733158478968 -47.190987126305124,-38.537204565877644 -47.86086010740386,-36.03720456587729 -47.190987126344,-33.53720456586652 -45.36086010743196,-31.707077546926023 -42.860860107431606,-31.037204565827288" stroke="#008000" stroke-linecap="round" stroke-linejoin="round"/><polyline fill="none" points="-103.3606669670572,55.319900012913905 -100.86066696704643,54.650027031854044 -99.03053994810594,52.81990001294201 -98.3606669670072,50.31990001294165 -99.03053994806706,47.81990001293088 -100.8606669669791,45.989772993990385 -103.36066696697945,45.31990001289165 -105.86066696699022,45.98977299395151 -107.69079398593072,47.81990001286355 -108.36066696702946,50.319900012863904 -107.6907939859696,52.819900012874676 -105.86066696705757,54.65002703181517 -103.36066696705721,55.319900012913905" stroke="#ffa500" stroke-linecap="round" stroke-linejoin="round"/><polyline fill="none" points="-107.7228607980131,46.071640041808095 -105.22286079800233,45.401767060748234 -103.39273377906183,43.5716400418362 -102.7228607979631,41.07164004183584 -103.39273377902295,38.57164004182507 -105.22286079793498,36.741513022884575 -107.72286079793534,36.071640041785834 -110.22286079794611,36.74151302284569 -112.05298781688661,38.57164004175772 -112.72286079798535,41.07164004175807 -112.0529878169255,43.571640041768845 -110.22286079801346,45.401767060709346 -107.7228607980131,46.07164004180809" stroke="#ffa500" stroke-linecap="round" stroke-linejoin="round"/><polyline fill="none" points="-81.71417961203316,91.56454431843966 -79.21417961202239,90.8946713373798 -77.38405259308189,89.06454431846777 -76.71417961198316,86.56454431846741 -77.38405259304301,84.06454431845664 -79.21417961195505,82.23441729951614 -81.7141796119554,81.5645443184174 -84.21417961196617,82.23441729947726 -86.04430663090668,84.0645443183893 -86.71417961200541,86.56454431838965 -86.04430663094556,89.06454431840042 -84.21417961203352,90.89467133734092 -81.71417961203316,91.56454431843967" stroke="#00f" stroke-linecap="round" stroke-linejoin="round"/><polyline fill="none" points="-132.4181061251856,20.29393306305103 -129.91810612517483,19.624060081991175 -128.08797910623434,17.793933063079145 -127.4181061251356,15.293933063078791 -128.08797910619543,12.793933063068017 -129.91810612510747,10.963806044127516 -132.4181061251078,10.293933063028772 -134.91810612511858,10.963806044088624 -136.7482331440591,12.793933063000654 -137.41810612515783,15.293933063001008 -136.74823314409798,17.79393306301178 -134.91810612518594,19.624060081952283 -132.4181061251856,20.29393306305103" stroke="#00f" stroke-linecap="round" stroke-linejoin="round"/><polyline fill="none" points="-78.10524369414836,52.42706156565436 -75.60524369413758,51.75718858459451 -73.77511667519708,49.92706156568248 -73.10524369409833,47.42706156568212 -73.77511667515819,44.92706156567135 -75.60524369407021,43.09693454673085 -78.10524369407057,42.4270615656321 -80.60524369408134,43.09693454669195 -82.43537071302184,44.92706156560398 -83.10524369412059,47.42706156560433 -82.43537071306073,49.92706156561511 -80.60524369414871,51.757188584555614 -78.10524369414836,52.42706156565436" stroke="#ffa500" stroke-linecap="round" stroke-linejoin="round"/><polyline fill="none" points="8.585939777744262,-17.78964015526305 11.085939777755039,-18.4595131363229 12.916066796695544,-20.28964015523493 13.585939777794293,-22.789640155235283 12.916066796734444,-25.289640155246058 11.085939777822416,-27.119767174186563 8.585939777822063,-27.789640155285312 6.085939777811285,-27.119767174225466 4.255812758870778,-25.28964015531344 3.5859397777720288,-22.789640155313087 4.255812758831875,-20.28964015530231 6.085939777743903,-18.4595131363618 8.585939777744256,-17.78964015526305" stroke="#00f" stroke-linecap="round" stroke-linejoin="round"/><polyline fill="none" points="-123.99490851078752,-39.43571047812636 -121.49490851077675,-40.10558345918621 -119.66478149183625,-41.93571047809824 -118.9949085107375,-44.43571047809859 -119.66478149179734,-46.93571047810937 -121.49490851070937,-48.76583749704988 -123.99490851070972,-49.43571047814863 -126.4949085107205,-48.76583749708878 -128.32503552966102,-46.93571047817675 -128.99490851075979,-44.4357104781764 -128.32503552969993,-41.93571047816562 -126.49490851078791,-40.10558345922511 -123.99490851078755,-39.43571047812635" stroke="#ffa500" stroke-linecap="round" stroke-linejoin="round"/><polyline fill="none" points="-153.7897252146851,12.308447273530643 -151.28972521467432,11.638574292470798 -149.4595981957338,9.808447273558771 -148.78972521463504,7.308447273558417 -149.4595981956949,4.808447273547637 -151.28972521460693,2.978320254607126 -153.78972521460727,2.308447273508372 -156.28972521461804,2.978320254568215 -158.11985223355856,4.808447273480241 -158.78972521465732,7.308447273480596 -158.11985223359747,9.808447273491376 -156.28972521468543,11.638574292431889 -153.7897252146851,12.308447273530644" stroke="#ffa500" stroke-linecap="round" stroke-linejoin="round"/><polyline fill="none" points="-149.63458568332356,-59.11354316544792 -147.1345856833128,-59.78341614650776 -145.30445866437228,-61.613543165419784 -144.6345856832735,-64.11354316542014 -145.30445866433337,-66.61354316543093 -147.1345856832454,-68.44367018437144 -149.63458568324575,-69.1135431654702 -152.13458568325652,-68.44367018441037 -153.96471270219703,-66.61354316549834 -154.6345856832958,-64.11354316549799 -153.96471270223594,-61.6135431654872 -152.1345856833239,-59.783416146546685 -149.63458568332356,-59.11354316544793" stroke="#ffa500" stroke-linecap="round" stroke-linejoin="round"/><polyline fill="none" points="-135.66375353197984,-62.15461588485107 -133.16375353196906,-62.82448886591091 -131.33362651302855,-64.65461588482293 -130.66375353192979,-67.15461588482329 -131.3336265129896,-69.65461588483407 -133.16375353190165,-71.48474290377459 -135.663753531902,-72.15461588487335 -138.16375353191276,-71.48474290381351 -139.99388055085328,-69.65461588490149 -140.66375353195204,-67.15461588490113 -139.99388055089221,-64.65461588489035 -138.16375353198018,-62.82448886594983 -135.6637535319798,-62.15461588485107" stroke="#00f" stroke-linecap="round" stroke-linejoin="round"/><polyline fill="none" points="-96.8339660003523,42.66028594457165 -94.33396600034152,41.99041296351181 -92.503838981401,40.160285944599785 -91.83396600030224,37.66028594459943 -92.50383898136208,35.160285944588644 -94.3339660002741,33.33015892564813 -96.83396600027446,32.660285944549365 -99.33396600028524,33.330158925609204 -101.16409301922576,35.16028594452123 -101.83396600032452,37.66028594452158 -101.16409301926468,40.16028594453237 -99.33396600035266,41.99041296347289 -96.8339660003523,42.660285944571655" stroke="#ffa500" stroke-linecap="round" stroke-linejoin="round"/><polyline fill="none" points="-137.4590903857489,-81.13814527219112 -134.9590903857381,-81.80801825325096 -133.1289633667976,-83.63814527216299 -132.45909038569883,-86.13814527216334 -133.12896336675865,-88.63814527217413 -134.95909038567066,-90.46827229111464 -137.45909038567103,-91.13814527221341 -139.95909038568183,-90.46827229115357 -141.78921740462235,-88.63814527224154 -142.4590903857211,-86.13814527224119 -141.7892174046613,-83.6381452722304 -139.95909038574928,-81.80801825328989 -137.4590903857489,-81.13814527219112" stroke="#ffa500" stroke-linecap="round" stroke-linejoin="round"/><polyline fill="none" points="50.32262647178096,22.754398201729675 52.82262647179174,22.084525220669843 54.652753490732266,20.254398201757823 55.322626471831036,17.754398201757468 54.652753490771204,15.25439820174668 52.82262647185918,13.424271182806157 50.322626471858825,12.754398201707389 47.82262647184804,13.424271182767221 45.992499452907516,15.25439820167924 45.322626471808746,17.754398201679596 45.99249945286858,20.254398201690385 47.8226264717806,22.084525220630912 50.32262647178096,22.754398201729682" stroke="#ffa500" stroke-linecap="round" stroke-linejoin="round"/><polyline fill="none" points="-89.00830257729385,25.354999924172677 -86.50830257728306,24.68512694311285 -84.67817555834253,22.85499992420083 -84.00830257724375,20.354999924200474 -84.67817555830358,17.854999924189684 -86.5083025772156,16.024872905249158 -89.00830257721596,15.354999924150388 -91.50830257722674,16.024872905210216 -93.33842959616727,17.854999924122236 -94.00830257726605,20.35499992412259 -93.33842959620623,22.85499992413338 -91.5083025772942,24.685126943073907 -89.00830257729385,25.35499992417268" stroke="#00f" stroke-linecap="round" stroke-linejoin="round"/><polyline fill="none" points="-118.81185279907484,-24.67249184343816 -116.31185279906406,-25.342364824497988 -114.48172578012353,-27.172491843410008 -113.81185279902475,-29.672491843410363 -114.48172578008457,-32.172491843421156 -116.3118527989966,-34.002618862361686 -118.81185279899695,-34.672491843460456 -121.31185279900774,-34.00261886240063 -123.14197981794827,-32.172491843488615 -123.81185279904705,-29.67249184348826 -123.14197981798722,-27.172491843477466 -121.3118527990752,-25.342364824536936 -118.81185279907484,-24.672491843438163" stroke="#00f" stroke-linecap="round" stroke-linejoin="round"/><polyline fill="none" points="-128.94379475415366,-44.679757384849694 -126.44379475414287,-45.34963036590952 -124.61366773520234,-47.179757384821535 -123.94379475410356,-49.67975738482189 -124.61366773516339,-52.17975738483268 -126.44379475407541,-54.00988440377321 -128.94379475407578,-54.67975738487199 -131.44379475408658,-54.009884403812165 -133.27392177302713,-52.17975738490015 -133.94379475412592,-49.679757384899794 -133.2739217730661,-47.179757384889 -131.44379475415408,-45.34963036594847 -128.9437947541537,-44.679757384849694" stroke="#00f" stroke-linecap="round" stroke-linejoin="round"/><polyline fill="none" points="-86.71020740812264,105.28461009255204 -84.21020740811184,104.61473711149222 -82.38008038917131,102.78461009258021 -81.71020740807253,100.28461009257985 -82.38008038913236,97.78461009256905 -84.21020740804437,95.95448307362852 -86.71020740804472,95.28461009252975 -89.21020740805552,95.95448307358957 -91.04033442699605,97.78461009250158 -91.71020740809483,100.28461009250194 -91.040334427035,102.78461009251274 -89.210207408123,104.61473711145327 -86.71020740812264,105.28461009255204" stroke="#ffa500" stroke-linecap="round" stroke-linejoin="round"/><polyline fill="none" points="-175.83803323824742,-64.44307674109479 -173.33803323823662,-65.11294972215461 -171.50790621929607,-66.94307674106662 -170.83803323819728,-69.44307674106697 -171.5079062192571,-71.94307674107777 -173.33803323816912,-73.7732037600183 -175.8380332381695,-74.44307674111708 -178.3380332381803,-73.77320376005726 -180.16816025712083,-71.94307674114525 -180.83803323821962,-69.44307674114489 -180.1681602571598,-66.94307674113409 -178.3380332382478,-65.11294972219355 -175.83803323824742,-64.44307674109477" stroke="#ffa500" stroke-linecap="round" stroke-linejoin="round"/><polyline fill="none" points="-41.458085950698226,64.13886884492354 -38.95808595068743,63.46899586386372 -37.127958931746896,61.6388688449517 -36.45808595064811,59.13886884495135 -37.12795893170793,56.638868844940546 -38.958085950619946,54.80874182600001 -41.4580859506203,54.138868844901225 -43.9580859506311,54.80874182596104 -45.78821296957164,56.63886884487305 -46.45808595067042,59.13886884487341 -45.788212969610605,61.63886884488421 -43.958085950698596,63.468995863824745 -41.45808595069824,64.13886884492354" stroke="#ffa500" stroke-linecap="round" stroke-linejoin="round"/><polyline fill="none" points="-92.77038288023783,101.93870459543851 -90.27038288022703,101.2688316143787 -88.44025586128649,99.43870459546669 -87.7703828801877,96.93870459546633 -88.44025586124751,94.43870459545553 -90.27038288015952,92.60857757651499 -92.77038288015987,91.9387045954162 -95.27038288017067,92.60857757647601 -97.10050989911122,94.43870459538802 -97.77038288021001,96.93870459538837 -97.1005098991502,99.43870459539917 -95.27038288023819,101.26883161433972 -92.77038288023783,101.93870459543851" stroke="#ffa500" stroke-linecap="round" stroke-linejoin="round"/><polyline fill="none" points="-85.22520159680744,-18.803367901621044 -82.72520159679664,-19.47324088268086 -80.8950745778561,-21.303367901592868 -80.2252015967573,-23.803367901593223 -80.89507457781711,-26.303367901604023 -82.72520159672912,-28.133494920544564 -85.22520159672948,-28.803367901643355 -87.72520159674028,-28.133494920583544 -89.55532861568082,-26.303367901671535 -90.22520159677961,-23.80336790167118 -89.5553286157198,-21.30336790166038 -87.72520159680779,-19.473240882719836 -85.22520159680744,-18.803367901621044" stroke="#00f" stroke-linecap="round" stroke-linejoin="round"/><polyline fill="none" points="-166.4794775153207,-80.88964342857584 -163.9794775153099,-81.55951640963565 -162.14935049636935,-83.38964342854766 -161.47947751527056,-85.88964342854801 -162.14935049633036,-88.38964342855881 -163.97947751524237,-90.21977044749936 -166.47947751524273,-90.88964342859815 -168.97947751525354,-90.21977044753834 -170.80960453419408,-88.38964342862633 -171.47947751529287,-85.88964342862597 -170.80960453423307,-83.38964342861517 -168.97947751532107,-81.55951640967463 -166.4794775153207,-80.88964342857584" stroke="#00f" stroke-linecap="round" stroke-linejoin="round"/><polyline fill="none" points="-111.85017505613325,-75.6452648921823 -109.35017505612245,-76.31513787324211 -107.52004803718191,-78.14526489215412 -106.85017505608312,-80.64526489215447 -107.52004803714293,-83.14526489216527 -109.35017505605494,-84.97539191110582 -111.85017505605529,-85.64526489220461 -114.35017505606609,-84.9753919111448 -116.18030207500664,-83.14526489223279 -116.85017505610543,-80.64526489223243 -116.18030207504562,-78.14526489222163 -114.35017505613361,-76.31513787328109 -111.85017505613325,-75.6452648921823" stroke="#ffa500" stroke-linecap="round" stroke-linejoin="round"/><polyline fill="none" points="-106.66625968694274,35.45334259047449 -104.16625968693194,34.78346960941469 -102.3361326679914,32.95334259050268 -101.6662596868926,30.453342590502324 -102.33613266795241,27.95334259049152 -104.16625968686442,26.12321557155097 -106.66625968686478,25.45334259045217 -109.16625968687558,26.123215571511977 -110.99638670581612,27.953342590423983 -111.66625968691491,30.453342590424338 -110.9963867058551,32.95334259043514 -109.16625968694309,34.78346960937569 -106.66625968694274,35.45334259047449" stroke="#ffa500" stroke-linecap="round" stroke-linejoin="round"/><polyline fill="none" points="-93.62881064969856,91.89999787922629 -91.12881064968776,91.23012489816648 -89.2986836307472,89.39999787925447 -88.6288106496484,86.89999787925412 -89.29868363070821,84.39999787924332 -91.12881064962022,82.56987086030276 -93.62881064962058,81.89999787920395 -96.12881064963138,82.56987086026375 -97.95893766857193,84.39999787917576 -98.62881064967074,86.89999787917611 -97.95893766861094,89.39999787918691 -96.12881064969893,91.23012489812747 -93.62881064969858,91.89999787922628" stroke="#ffa500" stroke-linecap="round" stroke-linejoin="round"/><polyline fill="none" points="-97.59665606689859,26.79016075685094 -95.09665606688779,26.120287775791137 -93.26652904794723,24.290160756879132 -92.59665606684842,21.790160756878777 -93.26652904790822,19.29016075686797 -95.09665606682023,17.460033737927414 -97.59665606682059,16.790160756828612 -100.0966560668314,17.460033737888413 -101.92678308577196,19.290160756800418 -102.59665606687076,21.790160756800773 -101.92678308581097,24.29016075681158 -100.09665606689896,26.120287775752136 -97.5966560668986,26.79016075685094" stroke="#00f" stroke-linecap="round" stroke-linejoin="round"/><polyline fill="none" points="-158.18163819290228,-0.5975004533841934 -155.68163819289148,-1.2673734344439938 -153.85151117395094,-3.0975004533559973 -153.18163819285212,-5.597500453356355 -153.85151117391192,-8.097500453367164 -155.68163819282393,-9.927627472307723 -158.1816381928243,-10.59750045340653 -160.6816381928351,-9.927627472346732 -162.51176521177567,-8.097500453434728 -163.1816381928745,-5.597500453434371 -162.5117652118147,-3.097500453423561 -160.68163819290268,-1.2673734344830014 -158.1816381929023,-0.5975004533841933" stroke="#ffa500" stroke-linecap="round" stroke-linejoin="round"/><polyline fill="none" points="-134.86394736220194,-66.20286991809063 -132.36394736219114,-66.87274289915042 -130.53382034325057,-68.70286991806243 -129.86394736215175,-71.20286991806279 -130.53382034321154,-73.7028699180736 -132.36394736212355,-75.53299693701416 -134.86394736212392,-76.20286991811297 -137.36394736213472,-75.53299693705317 -139.1940743810753,-73.70286991814118 -139.86394736217412,-71.20286991814082 -139.19407438111432,-68.70286991813 -137.3639473622023,-66.87274289918945 -134.86394736220194,-66.20286991809064" stroke="#00f" stroke-linecap="round" stroke-linejoin="round"/><polyline fill="none" points="-171.38197825836096,-82.25796286313971 -168.88197825835016,-82.9278358441995 -167.0518512394096,-84.7579628631115 -166.38197825831077,-87.25796286311186 -167.05185123937056,-89.75796286312267 -168.88197825828257,-91.58808988206323 -171.38197825828294,-92.25796286316204 -173.88197825829374,-91.58808988210224 -175.71210527723431,-89.75796286319024 -176.38197825833313,-87.25796286318989 -175.71210527727334,-84.75796286317907 -173.88197825836133,-82.92783584423852 -171.38197825836096,-82.2579628631397" stroke="#ffa500" stroke-linecap="round" stroke-linejoin="round"/><polyline fill="none" points="-140.55648464612935,-58.34093836530948 -138.05648464611855,-59.01081134636927 -136.22635762717798,-60.840938365281275 -135.55648464607916,-63.34093836528163 -136.22635762713895,-65.84093836529244 -138.05648464605096,-67.67106538423302 -140.55648464605133,-68.34093836533184 -143.05648464606213,-67.67106538427204 -144.8866116650027,-65.84093836536005 -145.55648464610152,-63.34093836535969 -144.88661166504173,-60.840938365348876 -143.05648464612972,-59.01081134640831 -140.55648464612935,-58.3409383653095" stroke="#008000" stroke-linecap="round" stroke-linejoin="round"/><polyline fill="none" points="-40.01174195733143,54.28262706888918 -37.511741957320616,53.61275408782939 -35.68161493838005,51.782627068917385 -35.01174195728123,49.28262706891703 -35.68161493834102,46.782627068906216 -37.511741957253015,44.95250004996565 -40.01174195725337,44.28262706886683 -42.511741957264185,44.95250004992662 -44.34186897620475,46.782627068838615 -45.01174195730357,49.28262706883897 -44.34186897624378,51.782627068849784 -42.511741957331786,53.61275408779035 -40.01174195733143,54.28262706888917" stroke="#ffa500" stroke-linecap="round" stroke-linejoin="round"/><polyline fill="none" points="47.444166403255586,3.742928847078776 49.9441664032664,3.0730558660189877 51.77429342220697,1.242928847106991 52.44416640330579,-1.2570711528933665 51.774293422246004,-3.7570711529041825 49.94416640333401,-5.5871981718447525 47.444166403333654,-6.257071152943573 44.94416640332284,-5.587198171883786 43.11403938438227,-3.75707115297179 42.44416640328345,-1.2570711529714322 43.114039384343236,1.2429288470393849 44.94416640325523,3.0730558659799563 47.444166403255586,3.7429288470787783" stroke="#ffa500" stroke-linecap="round" stroke-linejoin="round"/><polyline fill="none" points="-150.47994290082988,-73.90881965797482 -147.97994290081905,-74.5786926390346 -146.14981588187848,-76.4088196579466 -145.47994290077966,-78.90881965794695 -146.14981588183946,-81.40881965795776 -147.97994290075147,-83.23894667689834 -150.47994290075184,-83.90881965799716 -152.97994290076267,-83.23894667693737 -154.81006991970324,-81.40881965802538 -155.47994290080206,-78.90881965802502 -154.81006991974226,-76.40881965801421 -152.97994290083028,-74.57869263907364 -150.4799429008299,-73.90881965797482" stroke="#ffa500" stroke-linecap="round" stroke-linejoin="round"/><polyline fill="none" points="-171.66695765429034,-52.066928849395865 -169.1669576542795,-52.73680183045565 -167.33683063533894,-54.56692884936764 -166.66695765424012,-57.066928849368 -167.33683063529992,-59.56692884937882 -169.1669576542119,-61.39705586831939 -171.66695765421227,-62.06692884941822 -174.1669576542231,-61.397055868358436 -175.99708467316367,-59.56692884944644 -176.6669576542625,-57.066928849446086 -175.99708467320272,-54.566928849435264 -174.16695765429074,-52.736801830494684 -171.66695765429037,-52.06692884939586" stroke="#00f" stroke-linecap="round" stroke-linejoin="round"/><polyline fill="none" points="-131.72079903089127,-90.16306488113736 -129.22079903088044,-90.83293786219714 -127.39067201193987,-92.66306488110914 -126.72079903084104,-95.16306488110949 -127.39067201190082,-97.6630648811203 -129.2207990308128,-99.49319190006088 -131.72079903081317,-100.16306488115971 -134.220799030824,-99.49319190009993 -136.05092604976457,-97.66306488118794 -136.7207990308634,-95.16306488118758 -136.05092604980362,-92.66306488117675 -134.22079903089164,-90.83293786223618 -131.72079903089127,-90.16306488113734" stroke="#ffa500" stroke-linecap="round" stroke-linejoin="round"/><polyline fill="none" points="-120.84197379561877,-61.710439942123585 -118.34197379560794,-62.38031292318336 -116.51184677666735,-64.21043994209535 -115.84197379556852,-66.7104399420957 -116.5118467766283,-69.21043994210653 -118.3419737955403,-71.04056696104712 -120.84197379554065,-71.71043994214595 -123.34197379555148,-71.04056696108617 -125.17210081449207,-69.21043994217418 -125.8419737955909,-66.71043994217382 -125.17210081453112,-64.21043994216299 -123.34197379561913,-62.38031292322241 -120.84197379561877,-61.71043994212358" stroke="#008000" stroke-linecap="round" stroke-linejoin="round"/><polyline fill="none" points="-97.39974649597055,22.057559892136158 -94.89974649595972,21.387686911076383 -93.06961947701913,19.55755989216439 -92.3997464959203,17.057559892164033 -93.06961947698007,14.55755989215321 -94.89974649589206,12.727432873212626 -97.39974649589242,12.05755989211379 -99.89974649590324,12.727432873173566 -101.72987351484383,14.557559892085555 -102.39974649594267,17.057559892085912 -101.7298735148829,19.557559892096737 -99.8997464959709,21.38768691103732 -97.39974649597055,22.057559892136158" stroke="#ffa500" stroke-linecap="round" stroke-linejoin="round"/><polyline fill="none" points="-161.97846178448742,-9.552381300020645 -159.4784617844766,-10.222254281080419 -157.64833476553602,-12.052381299992406 -156.97846178443717,-14.552381299992764 -157.64833476549694,-17.05238130000359 -159.47846178440892,-18.882508318944172 -161.9784617844093,-19.55238130004301 -164.47846178442012,-18.882508318983238 -166.3085888033607,-17.05238130007125 -166.97846178445954,-14.552381300070893 -166.30858880339977,-12.052381300060068 -164.4784617844878,-10.222254281119483 -161.97846178448742,-9.552381300020643" stroke="#ffa500" stroke-linecap="round" stroke-linejoin="round"/><polyline fill="none" points="-26.76036481740489,-43.27911631985019 -24.260364817394066,-43.94898930090996 -22.43023779845348,-45.779116319821945 -21.76036481735464,-48.2791163198223 -22.430237798414407,-50.77911631983313 -24.260364817326394,-52.609243338773716 -26.760364817326753,-53.27911631987256 -29.26036481733758,-52.60924333881279 -31.090491836278172,-50.7791163199008 -31.760364817377013,-48.279116319900446 -31.090491836317245,-45.77911631988962 -29.26036481740526,-43.94898930094903 -26.760364817404902,-43.27911631985019" stroke="#ffa500" stroke-linecap="round" stroke-linejoin="round"/><polyline fill="none" points="-183.69869149524712,-77.92919513391246 -181.1986914952363,-78.59906811497223 -179.3685644762957,-80.4291951338842 -178.69869149519684,-82.92919513388456 -179.3685644762566,-85.42919513389539 -181.1986914951686,-87.25932215283598 -183.69869149516896,-87.92919513393483 -186.1986914951798,-87.25932215287506 -188.0288185141204,-85.42919513396308 -188.69869149521924,-82.92919513396272 -188.02881851415947,-80.4291951339519 -186.1986914952475,-78.5990681150113 -183.69869149524712,-77.92919513391246" stroke="#00f" stroke-linecap="round" stroke-linejoin="round"/><polyline fill="none" points="-63.692834893970314,-44.106912217670114 -61.192834893959485,-44.77678519872988 -59.36270787501889,-46.60691221764186 -58.69283489392004,-49.10691221764222 -59.36270787497981,-51.60691221765305 -61.19283489389179,-53.43703923659364 -63.69283489389215,-54.10691221769249 -66.19283489390298,-53.43703923663273 -68.02296191284358,-51.60691221772075 -68.69283489394243,-49.10691221772039 -68.02296191288266,-46.606912217709564 -66.19283489397068,-44.77678519876897 -63.69283489397033,-44.10691221767012" stroke="#00f" stroke-linecap="round" stroke-linejoin="round"/><polyline fill="none" points="-79.58762552887218,-25.712920640249834 -77.08762552886135,-26.3827936213096 -75.25749850992075,-28.212920640221583 -74.5876255288219,-30.71292064022194 -75.25749850988167,-33.212920640232774 -77.08762552879365,-35.04304765917337 -79.587625528794,-35.712920640272216 -82.08762552880484,-35.043047659212455 -83.91775254774544,-33.212920640300474 -84.58762552884428,-30.712920640300116 -83.91775254778452,-28.212920640289283 -82.08762552887254,-26.382793621348686 -79.58762552887218,-25.712920640249834" stroke="#ffa500" stroke-linecap="round" stroke-linejoin="round"/><polyline fill="none" points="-113.1487518805769,-47.70226145048221 -110.64875188056607,-48.37213443154197 -108.81862486162547,-50.20226145045395 -108.14875188052662,-52.70226145045431 -108.81862486158637,-55.202261450465144 -110.64875188049835,-57.032388469405745 -113.14875188049871,-57.7022614505046 -115.64875188050954,-57.03238846944484 -117.47887889945014,-55.20226145053286 -118.14875188054899,-52.702261450532504 -117.47887889948923,-50.20226145052167 -115.64875188057725,-48.37213443158107 -113.1487518805769,-47.70226145048221" stroke="#ffa500" stroke-linecap="round" stroke-linejoin="round"/><polyline fill="none" points="-153.8301269961222,-14.911625398340767 -151.33012699611137,-15.581498379400525 -149.49999997717077,-17.411625398312506 -148.83012699607193,-19.911625398312864 -149.4999999771317,-22.411625398323697 -151.33012699604367,-24.241752417264298 -153.83012699604404,-24.911625398363153 -156.33012699605487,-24.241752417303395 -158.16025401499547,-22.41162539839142 -158.83012699609432,-19.91162539839106 -158.16025401503455,-17.411625398380224 -156.33012699612257,-15.581498379439623 -153.8301269961222,-14.911625398340766" stroke="#ffa500" stroke-linecap="round" stroke-linejoin="round"/><polyline fill="none" points="-126.56145678902372,-62.8746004440149 -124.0614567890129,-63.544473425074656 -122.23132977007229,-65.37460044398664 -121.56145678897343,-67.87460044398699 -122.23132977003318,-70.37460044399782 -124.06145678894516,-72.20472746293842 -126.56145678894552,-72.87460044403728 -129.06145678895635,-72.20472746297753 -130.89158380789695,-70.37460044406555 -131.5614567889958,-67.8746004440652 -130.89158380793606,-65.37460044405435 -129.06145678902408,-63.54447342511375 -126.56145678902372,-62.87460044401489" stroke="#00f" stroke-linecap="round" stroke-linejoin="round"/><polyline fill="none" points="-34.225905016214,52.90313750315863 -31.725905016203164,52.23326452209888 -29.89577799726256,50.403137503186905 -29.2259050161637,47.90313750318655 -29.895777997223455,45.403137503175714 -31.72590501613543,43.573010484235105 -34.22590501613579,42.90313750313624 -36.725905016146626,43.573010484196 -38.556032035087235,45.40313750310797 -39.2259050161861,47.903137503108326 -38.55603203512634,50.40313750311916 -36.72590501621437,52.23326452205977 -34.225905016214014,52.90313750315863" stroke="#00f" stroke-linecap="round" stroke-linejoin="round"/><polyline fill="none" points="-105.96499745722058,29.155456417757428 -103.46499745720973,28.485583436697677 -101.63487043826913,26.655456417785704 -100.96499745717027,24.155456417785345 -101.63487043823002,21.65545641777451 -103.464997457142,19.8253293988339 -105.96499745714236,19.15545641773504 -108.4649974571532,19.82532939879479 -110.2951244760938,21.655456417706763 -110.96499745719267,24.15545641770712 -110.29512447613291,26.65545641771796 -108.46499745722093,28.48558343665857 -105.96499745722058,29.155456417757435" stroke="#ffa500" stroke-linecap="round" stroke-linejoin="round"/><polyline fill="none" points="-128.50347772181718,-39.688348964592805 -126.00347772180633,-40.35822194565255 -124.17335070286572,-42.188348964564526 -123.50347772176686,-44.68834896456488 -124.17335070282661,-47.188348964575724 -126.00347772173859,-49.01847598351633 -128.50347772173896,-49.6883489646152 -131.0034777217498,-49.018475983555454 -132.8336047406904,-47.18834896464348 -133.50347772178927,-44.688348964643126 -132.83360474072953,-42.18834896463228 -131.00347772181755,-40.358221945691675 -128.50347772181718,-39.688348964592805" stroke="#008000" stroke-linecap="round" stroke-linejoin="round"/><polyline fill="none" points="-173.09265959371461,-68.9537463562989 -170.5926595937038,-69.62361933735863 -168.76253257476318,-71.4537463562706 -168.0926595936643,-73.95374635627095 -168.76253257472405,-76.4537463562818 -170.59265959363603,-78.28387337522241 -173.0926595936364,-78.95374635632129 -175.59265959364723,-78.28387337526155 -177.42278661258783,-76.45374635634958 -178.0926595936867,-73.95374635634923 -177.42278661262696,-71.45374635633839 -175.59265959371498,-69.62361933739777 -173.09265959371461,-68.9537463562989" stroke="#ffa500" stroke-linecap="round" stroke-linejoin="round"/><polyline fill="none" points="211.06617350998258,-107.07504422459247 213.5661735099934,-107.74491720565221 215.396300528934,-109.57504422456418 216.06617351003288,-112.07504422456454 215.39630052897314,-114.57504422457538 213.56617351006116,-116.405171243516 211.0661735100608,-117.07504422461487 208.56617351004996,-116.40517124355513 206.73604649110933,-114.57504422464316 206.06617351001046,-112.07504422464281 206.7360464910702,-109.57504422463197 208.56617350998218,-107.74491720569135 211.06617350998255,-107.07504422459247" stroke="#ffa500" stroke-linecap="round" stroke-linejoin="round"/></svg>