<?xml version="1.0" ?><!DOCTYPE svg  PUBLIC '-//W3C//DTD SVG 1.1//EN'  'http://www.w3.org/Graphics/SVG/1.1/DTD/svg11.dtd'><svg height="256.000" viewBox="-203.000 -139.000 453.000 256.000" width="453.000" xmlns="http://www.w3.org/2000/svg"><line fill="none" stroke="none" stroke-linecap="round" stroke-width="2.0" x1="0.0" x2="0.0" y1="0.0" y2="0.0"/><polygon fill="none" fill-rule="evenodd" points="0.0,0.0 0.0,0.0 0.0,0.0" stroke-linejoin="round"/><polyline fill="none" points="-136.6159192188723,-40.9594823079693 -134.1159192188613,-41.62935528902878 -132.28579219992042,-43.459482307940604 -131.61591921882123,-45.959482307940974 -132.28579219988072,-48.45948230795198 -134.11591921879253,-50.28960932689287 -136.6159192187929,-50.959482307992054 -139.1159192188039,-50.28960932693258 -140.94604623774478,-48.45948230802075 -141.61591921884397,-45.959482308020384 -140.9460462377845,-43.45948230800938 -139.11591921887268,-41.629355289068485 -136.6159192188723,-40.9594823079693" stroke="#00f" stroke-linecap="round" stroke-linejoin="round"/><polyline fill="none" points="-140.2156905211722,-64.6116251746518 -137.7156905211612,-65.28149815571128 -135.88556350222032,-67.1116251746231 -135.21569052112113,-69.61162517462347 -135.88556350218062,-72.11162517463448 -137.71569052109243,-73.94175219357538 -140.2156905210928,-74.61162517467457 -142.7156905211038,-73.9417521936151 -144.54581754004468,-72.11162517470328 -145.21569052114387,-69.61162517470291 -144.54581754008439,-67.1116251746919 -142.71569052117258,-65.281498155751 -140.2156905211722,-64.6116251746518" stroke="#008000" stroke-linecap="round" stroke-linejoin="round"/><polyline fill="none" points="-106.48853548978846,-78.90385117448997 -103.98853548977745,-79.57372415554944 -102.15840847083655,-81.40385117446127 -101.48853548973736,-83.90385117446164 -102.15840847079683,-86.40385117447265 -103.98853548970865,-88.23397819341355 -106.48853548970902,-88.90385117451274 -108.98853548972004,-88.23397819345327 -110.81866250866094,-86.40385117454144 -111.48853548976012,-83.90385117454107 -110.81866250870065,-81.40385117453006 -108.98853548978883,-79.57372415558916 -106.48853548978846,-78.90385117448997" stroke="#ffa500" stroke-linecap="round" stroke-linejoin="round"/><polyline fill="none" points="-123.95425179085568,-64.95596105839866 -121.45425179084467,-65.62583403945813 -119.62412477190377,-67.45596105836995 -118.95425179080458,-69.95596105837032 -119.62412477186405,-72.45596105838133 -121.45425179077587,-74.28608807732223 -123.95425179077624,-74.95596105842142 -126.45425179078725,-74.28608807736195 -128.28437880972814,-72.45596105845013 -128.95425179082733,-69.95596105844976 -128.28437880976784,-67.45596105843875 -126.45425179085602,-65.62583403949785 -123.95425179085565,-64.95596105839866" stroke="#008000" stroke-linecap="round" stroke-linejoin="round"/><polyline fill="none" points="-150.17922546282514,-32.374170340605154 -147.67922546281414,-33.044043321664624 -145.84909844387323,-34.87417034057644 -145.17922546277404,-37.37417034057681 -145.8490984438335,-39.874170340587824 -147.6792254627453,-41.704297359528724 -150.17922546274568,-42.37417034062792 -152.67922546275668,-41.70429735956845 -154.5093524816976,-39.87417034065663 -155.17922546279678,-37.37417034065626 -154.50935248173732,-34.87417034064525 -152.6792254628255,-33.04404332170435 -150.17922546282514,-32.374170340605154" stroke="#00f" stroke-linecap="round" stroke-linejoin="round"/><polyline fill="none" points="-138.49387367810573,-87.19183955011538 -135.9938736780947,-87.86171253117485 -134.1637466591538,-89.69183955008667 -133.4938736780546,-92.19183955008704 -134.16374665911405,-94.69183955009805 -135.99387367802586,-96.52196656903895 -138.49387367802623,-97.19183955013816 -140.99387367803726,-96.52196656907869 -142.82400069697817,-94.69183955016688 -143.49387367807736,-92.1918395501665 -142.8240006970179,-89.69183955015549 -140.9938736781061,-87.8617125312146 -138.49387367810573,-87.19183955011539" stroke="#00f" stroke-linecap="round" stroke-linejoin="round"/><polyline fill="none" points="215.7295782260791,-117.64685866231216 218.22957822609013,-118.31673164337163 220.05970524503104,-120.14685866228344 220.72957822613023,-122.6468586622838 220.05970524507077,-125.14685866229482 218.22957822615896,-126.97698568123572 215.7295782261586,-127.64685866233492 213.22957822614757,-126.97698568127545 211.39945120720665,-125.14685866236364 210.72957822610746,-122.64685866236327 211.39945120716692,-120.14685866235226 213.22957822607873,-118.31673164341136 215.7295782260791,-117.64685866231216" stroke="#ffa500" stroke-linecap="round" stroke-linejoin="round"/><polyline fill="none" points="-186.44761875786602,-81.61917232448958 -183.947618757855,-82.28904530554904 -182.11749173891408,-84.11917232446085 -181.4476187578149,-86.61917232446122 -182.11749173887435,-89.11917232447223 -183.94761875778616,-90.94929934341314 -186.44761875778653,-91.61917232451235 -188.94761875779756,-90.94929934345289 -190.77774577673847,-89.11917232454108 -191.4476187578377,-86.61917232454071 -190.77774577677823,-84.1191723245297 -188.94761875786642,-82.28904530558879 -186.44761875786605,-81.61917232448958" stroke="#00f" stroke-linecap="round" stroke-linejoin="round"/><polyline fill="none" points="63.57871853117026,-3.4918256943680923 66.07871853118128,-4.1616986754275525 67.9088455501222,-5.991825694339366 68.5787185312214,-8.491825694339735 67.90884555016194,-10.991825694350755 66.07871853125013,-12.821952713291665 63.57871853124976,-13.491825694390872 61.07871853123874,-12.821952713331413 59.24859151229783,-10.9918256944196 58.57871853119862,-8.49182569441923 59.24859151225807,-5.99182569440821 61.07871853116988,-4.1616986754672975 63.57871853117025,-3.4918256943680896" stroke="#ffa500" stroke-linecap="round" stroke-linejoin="round"/><polyline fill="none" points="233.34546447466002,-114.28771316560422 235.84546447467105,-114.95758614666367 237.67559149361196,-116.78771316557548 238.34546447471118,-119.28771316557585 237.67559149365172,-121.78771316558688 235.8454644747399,-123.6178401845278 233.34546447473954,-124.287713165627 230.84546447472852,-123.61784018456754 229.0153374557876,-121.78771316565573 228.34546447468838,-119.28771316565536 229.01533745574784,-116.78771316564433 230.84546447465965,-114.95758614670342 233.34546447466002,-114.2877131656042" stroke="#00f" stroke-linecap="round" stroke-linejoin="round"/><polyline fill="none" points="-114.41120684056456,-71.90199535548486 -111.91120684055353,-72.57186833654431 -110.08107982161262,-74.40199535545612 -109.4112068405134,-76.90199535545649 -110.08107982157286,-79.40199535546752 -111.91120684048467,-81.23212237440843 -114.41120684048504,-81.90199535550765 -116.91120684049606,-81.2321223744482 -118.74133385943698,-79.40199535553639 -119.4112068405362,-76.90199535553602 -118.74133385947674,-74.40199535552499 -116.91120684056493,-72.57186833658407 -114.41120684056456,-71.90199535548486" stroke="#00f" stroke-linecap="round" stroke-linejoin="round"/><polyline fill="none" points="6.258373794910278,9.461259043687788 8.758373794921303,8.791386062628336 10.58850081386222,6.961259043716526 11.258373794961434,4.461259043716155 10.588500813901982,1.9612590437051303 8.758373794990172,0.1311320247642116 6.258373794989801,-0.5387409563350039 3.7583737949787754,0.13113202472444763 1.928246776037856,1.9612590436362574 1.25837379493864,4.461259043636629 1.928246775998091,6.9612590436476545 3.7583737949099003,8.791386062588574 6.258373794910272,9.46125904368779" stroke="#00f" stroke-linecap="round" stroke-linejoin="round"/><polyline fill="none" points="-89.48120999937775,-64.30924178362221 -86.98120999936673,-64.97911476468167 -85.15108298042581,-66.80924178359348 -84.4812099993266,-69.30924178359385 -85.15108298038605,-71.80924178360488 -86.98120999929786,-73.6393688025458 -89.48120999929823,-74.30924178364502 -91.98120999930926,-73.63936880258557 -93.81133701825019,-71.80924178367376 -94.4812099993494,-69.30924178367339 -93.81133701828995,-66.80924178366236 -91.98120999937814,-64.97911476472143 -89.48120999937777,-64.30924178362221" stroke="#ffa500" stroke-linecap="round" stroke-linejoin="round"/><polyline fill="none" points="-49.599040600459595,19.0792683190934 -47.09904060044857,18.409395338033953 -45.26891358150765,16.579268319122146 -44.59904060040843,14.079268319121775 -45.26891358146788,11.579268319110747 -47.09904060037969,9.749141300169825 -49.59904060038006,9.079268319070604 -52.099040600391085,9.74914130013005 -53.929167619332006,11.579268319041857 -54.59904060043123,14.079268319042228 -53.92916761937178,16.579268319053256 -52.09904060045997,18.40939533799418 -49.5990406004596,19.0792683190934" stroke="#ffa500" stroke-linecap="round" stroke-linejoin="round"/><polyline fill="none" points="-88.62319718530591,-46.981366215018326 -86.12319718529488,-47.651239196077775 -84.29307016635396,-49.48136621498958 -83.62319718525474,-51.98136621498995 -84.29307016631418,-54.481366215000975 -86.12319718522599,-56.3114932339419 -88.62319718522636,-56.98136621504113 -91.12319718523739,-56.311493233981686 -92.95332420417832,-54.48136621506988 -93.62319718527753,-51.981366215069514 -92.95332420421809,-49.481366215058486 -91.12319718530628,-47.65123919611756 -88.62319718530591,-46.98136621501833" stroke="#ffa500" stroke-linecap="round" stroke-linejoin="round"/><polyline fill="none" points="-125.38470807794809,-83.46567589611057 -122.88470807793706,-84.13554887717001 -121.05458105899613,-85.96567589608182 -120.3847080778969,-88.46567589608219 -121.05458105895634,-90.96567589609322 -122.88470807786815,-92.79580291503414 -125.38470807786852,-93.46567589613338 -127.88470807787955,-92.79580291507393 -129.71483509682048,-90.96567589616213 -130.3847080779197,-88.46567589616176 -129.71483509686024,-85.96567589615073 -127.88470807794843,-84.1355488772098 -125.38470807794806,-83.46567589611057" stroke="#00f" stroke-linecap="round" stroke-linejoin="round"/><polyline fill="none" points="-126.92140456886747,-45.071038623896605 -124.42140456885645,-45.74091160495605 -122.59127754991552,-47.57103862386785 -121.92140456881629,-50.07103862386822 -122.59127754987573,-52.571038623879254 -124.42140456878754,-54.40116564282018 -126.9214045687879,-55.071038623919414 -129.42140456879895,-54.40116564285997 -131.2515315877399,-52.57103862394817 -131.9214045688391,-50.0710386239478 -131.25153158777968,-47.571038623936765 -129.42140456886787,-45.74091160499584 -126.9214045688675,-45.071038623896605" stroke="#00f" stroke-linecap="round" stroke-linejoin="round"/><polyline fill="none" points="-93.47635871696023,32.712477617788835 -90.9763587169492,32.04260463672939 -89.14623169800828,30.21247761781759 -88.47635871690905,27.71247761781722 -89.14623169796849,25.212477617806186 -90.97635871688028,23.382350598865255 -93.47635871688065,22.712477617766023 -95.97635871689168,23.38235059882546 -97.80648573583261,25.212477617737264 -98.47635871693184,27.712477617737633 -97.8064857358724,30.212477617748668 -95.9763587169606,32.0426046366896 -93.47635871696023,32.712477617788835" stroke="#ffa500" stroke-linecap="round" stroke-linejoin="round"/><polyline fill="none" points="-136.7689739038638,-88.20948222406047 -134.26897390385278,-88.87935520511991 -132.43884688491184,-90.7094822240317 -131.7689739038126,-93.20948222403207 -132.43884688487202,-95.7094822240431 -134.26897390378383,-97.53960924298403 -136.7689739037842,-98.20948222408326 -139.26897390379523,-97.53960924302382 -141.09910092273617,-95.70948222411202 -141.76897390383542,-93.20948222411165 -141.099100922776,-90.70948222410061 -139.26897390386418,-88.87935520515967 -136.7689739038638,-88.20948222406044" stroke="#00f" stroke-linecap="round" stroke-linejoin="round"/><polyline fill="none" points="50.2266911452109,12.607933555998656 52.726691145221935,11.938060574939223 54.55681816416287,10.107933556027424 55.22669114526211,7.607933556027054 54.556818164202674,5.107933556016018 52.72669114529088,3.27780653707508 50.22669114529051,2.6079335559758423 47.726691145279474,3.2778065370352745 45.89656412633853,5.107933555947072 45.22669114523929,7.607933555947444 45.89656412629873,10.10793355595848 47.72669114521052,11.938060574899419 50.22669114521089,12.607933555998658" stroke="#00f" stroke-linecap="round" stroke-linejoin="round"/><polyline fill="none" points="9.540655138324437,-18.281336493319657 12.040655138335474,-18.951209474379088 13.870782157276414,-20.781336493290887 14.540655138375655,-23.281336493291256 13.870782157316224,-25.781336493302295 12.040655138404427,-27.611463512243237 9.540655138404055,-28.281336493342476 7.040655138393017,-27.611463512283045 5.210528119452076,-25.78133649337125 4.540655138352835,-23.28133649337088 5.210528119412264,-20.78133649335984 7.040655138324061,-18.9512094744189 9.540655138324432,-18.281336493319657" stroke="#ffa500" stroke-linecap="round" stroke-linejoin="round"/><polyline fill="none" points="-175.45553580772105,-89.04419966507056 -172.95553580771002,-89.71407264612999 -171.12540878876908,-91.54419966504179 -170.45553580766983,-94.04419966504216 -171.12540878872926,-96.5441996650532 -172.95553580764107,-98.37432668399414 -175.45553580764144,-99.04419966509339 -177.95553580765247,-98.37432668403396 -179.7856628265934,-96.54419966512216 -180.45553580769266,-94.0441996651218 -179.78566282663323,-91.54419966511075 -177.95553580772145,-89.71407264616981 -175.45553580772108,-89.04419966507056" stroke="#ffa500" stroke-linecap="round" stroke-linejoin="round"/><polyline fill="none" points="56.30264989335513,-6.327158908619124 58.80264989336617,-6.99703188967855 60.632776912307115,-8.827158908590345 61.30264989340636,-11.327158908590716 60.632776912346934,-13.827158908601756 58.80264989343514,-15.657285927542702 56.30264989343477,-16.327158908641948 53.80264989342373,-15.657285927582523 51.97252287448278,-13.827158908670727 51.30264989338353,-11.327158908670356 51.97252287444296,-8.827158908659314 53.802649893354754,-6.997031889718367 56.302649893355124,-6.32715890861912" stroke="#ffa500" stroke-linecap="round" stroke-linejoin="round"/><polyline fill="none" points="-129.57803854351403,-42.526932998737124 -127.07803854350298,-43.19680597979655 -125.24791152456204,-45.02693299870835 -124.5780385434628,-47.526932998708716 -125.24791152452222,-50.02693299871976 -127.07803854343402,-51.85706001766071 -129.5780385434344,-52.52693299875995 -132.07803854344542,-51.85706001770053 -133.90816556238636,-50.02693299878874 -134.5780385434856,-47.52693299878837 -133.90816556242618,-45.026932998777326 -132.0780385435144,-43.19680597983638 -129.57803854351403,-42.526932998737124" stroke="#00f" stroke-linecap="round" stroke-linejoin="round"/><polyline fill="none" points="-76.47322290623347,90.95800403709998 -73.97322290622243,90.28813105604056 -72.14309588728149,88.45800403712876 -71.47322290618224,85.95800403712839 -72.14309588724167,83.45800403711735 -73.97322290615347,81.62787701817639 -76.47322290615384,80.95800403707715 -78.97322290616488,81.62787701813657 -80.80334992510583,83.45800403704837 -81.47322290620508,85.95800403704874 -80.80334992514567,88.45800403705978 -78.97322290623387,90.28813105600074 -76.4732229062335,90.95800403709998" stroke="#ffa500" stroke-linecap="round" stroke-linejoin="round"/><polyline fill="none" points="0.9865300931463254,8.252767899697632 3.486530093157369,7.582894918638214 5.316657112098321,5.7527678997264236 5.986530093197574,3.252767899726053 5.316657112138156,0.7527678997150091 3.4865300932263654,-1.0773591192259429 0.986530093225995,-1.747232100325197 -1.5134699067850494,-1.077359119265779 -3.3435969257260023,0.7527678996460112 -4.013469906825257,3.252767899646382 -3.3435969257658402,5.752767899657427 -1.5134699068540505,7.582894918598381 0.9865300931463203,8.252767899697636" stroke="#ffa500" stroke-linecap="round" stroke-linejoin="round"/><polyline fill="none" points="224.1193345665832,-112.30112496718263 226.61933456659426,-112.97099794824204 228.4494615855352,-114.80112496715384 229.11933456663445,-117.30112496715421 228.44946158557502,-119.80112496716525 226.61933456666324,-121.63125198610621 224.11933456666287,-122.30112496720547 221.61933456665182,-121.63125198614605 219.78920754771087,-119.80112496723427 219.11933456661163,-117.3011249672339 219.78920754767105,-114.80112496722286 221.61933456658284,-112.9709979482819 224.1193345665832,-112.30112496718264" stroke="#ffa500" stroke-linecap="round" stroke-linejoin="round"/><polyline fill="none" points="-104.21472322859525,-57.310910057636285 -101.7147232285842,-57.9807830386957 -99.88459620964325,-59.81091005760749 -99.21472322854399,-62.310910057607856 -99.8845962096034,-64.8109100576189 -101.71472322851518,-66.64103707655985 -104.21472322851555,-67.31091005765911 -106.7147232285266,-66.6410370765997 -108.54485024746755,-64.81091005768792 -109.21472322856681,-62.31091005768755 -108.5448502475074,-59.8109100576765 -106.71472322859562,-57.980783038735545 -104.21472322859525,-57.310910057636285" stroke="#ffa500" stroke-linecap="round" stroke-linejoin="round"/><polyline fill="none" points="-51.92769785687078,38.279204504944055 -49.42769785685973,37.60933152388464 -47.597570837918774,35.77920450497285 -46.92769785681951,33.27920450497248 -47.597570837878926,30.779204504961434 -49.427697856790715,28.949077486020474 -51.927697856791085,28.27920450492121 -54.42769785680213,28.94907748598062 -56.2578248757431,30.779204504892405 -56.92769785684236,33.279204504892775 -56.257824875782944,35.779204504903824 -54.427697856871156,37.60933152384479 -51.927697856870786,38.279204504944055" stroke="#ffa500" stroke-linecap="round" stroke-linejoin="round"/><polyline fill="none" points="-93.97671839123538,-20.61369942564894 -91.47671839122432,-21.28357240670835 -89.64659137228337,-23.113699425620133 -88.97671839118411,-25.613699425620503 -89.64659137224352,-28.11369942563155 -91.4767183911553,-29.943826444572515 -93.97671839115567,-30.613699425671783 -96.47671839116673,-29.943826444612373 -98.30684541010768,-28.113699425700588 -98.97671839120694,-25.61369942570022 -98.30684541014753,-23.11369942568917 -96.47671839123575,-21.283572406748206 -93.97671839123538,-20.61369942564894" stroke="#ffa500" stroke-linecap="round" stroke-linejoin="round"/><polyline fill="none" points="60.00650536765753,8.313381578281309 62.50650536766858,7.643508597221902 64.33663238660955,5.813381578310118 65.00650536770883,3.313381578309747 64.33663238664941,0.8133815782986953 62.50650536773763,-1.0167454406422693 60.00650536773726,-1.6866184217415379 57.50650536772621,-1.0167454406821324 55.67637834878525,0.8133815782296507 55.00650536768598,3.3133815782300218 55.67637834874539,5.813381578241074 57.50650536765717,7.6435085971820405 60.00650536765754,8.31338157828131" stroke="#ffa500" stroke-linecap="round" stroke-linejoin="round"/><polyline fill="none" points="27.803230493190835,-18.14300390306457 30.303230493201887,-18.812876884123977 32.13335751214285,-20.64300390303576 32.80323049324212,-23.143003903036128 32.13335751218271,-25.64300390304718 30.30323049327093,-27.473130921988147 27.80323049327056,-28.14300390308742 25.30323049325951,-27.473130922028016 23.473103474318542,-25.643003903116234 22.80323049321927,-23.143003903115865 23.473103474278673,-20.643003903104812 25.303230493190455,-18.812876884163845 27.803230493190824,-18.143003903064574" stroke="#00f" stroke-linecap="round" stroke-linejoin="round"/><polyline fill="none" points="-112.60950506255726,29.059413337563466 -110.1095050625462,28.389540356504064 -108.27937804360523,26.559413337592282 -107.60950506250596,24.059413337591913 -108.27937804356536,21.559413337580857 -110.10950506247714,19.729286318639886 -112.60950506247751,19.05941333754061 -115.10950506248857,19.729286318600014 -116.93963208142954,21.559413337511796 -117.60950506252881,24.05941333751217 -116.93963208146941,26.559413337523225 -115.10950506255763,28.389540356464195 -112.60950506255726,29.05941333756347" stroke="#00f" stroke-linecap="round" stroke-linejoin="round"/><polyline fill="none" points="1.1747782657239085,50.6416577580732 3.674778265734965,49.9717847770138 5.504905284675937,48.14165775810202 6.174778265775213,45.64165775810165 5.504905284715814,43.141657758090595 3.6747782658040347,41.311530739149624 1.1747782658036634,40.64165775805035 -1.325221734207393,41.31153073910975 -3.155348753148366,43.14165775802153 -3.825221734247643,45.6416577580219 -3.155348753188245,48.141657758032956 -1.3252217342764656,49.97178477697393 1.1747782657239056,50.6416577580732" stroke="#ffa500" stroke-linecap="round" stroke-linejoin="round"/><polyline fill="none" points="1.5980408076439652,57.55496433793656 4.098040807655022,56.88509135687716 5.928167826595995,55.05496433796538 6.5980408076952735,52.55496433796501 5.928167826635876,50.054964337953955 4.098040807724098,48.22483731901298 1.5980408077237276,47.554964337913695 -0.9019591922873298,48.224837318973094 -2.732086211228304,50.05496433788487 -3.401959192327584,52.55496433788524 -2.7320862112681885,55.054964337896294 -0.9019591923564114,56.88509135683727 1.598040807643959,57.55496433793655" stroke="#ffa500" stroke-linecap="round" stroke-linejoin="round"/><polyline fill="none" points="224.3909590740595,-106.21317402786613 226.89095907407057,-106.88304700892553 228.72108609301154,-108.71317402783731 229.3909590741108,-111.21317402783768 228.7210860930514,-113.71317402784874 226.89095907413963,-115.54330104678971 224.39095907413926,-116.213174027889 221.8909590741282,-115.5433010468296 220.06083205518723,-113.71317402791782 219.39095907408796,-111.21317402791745 220.06083205514736,-108.71317402790639 221.89095907405914,-106.8830470089654 224.3909590740595,-106.21317402786612" stroke="#ffa500" stroke-linecap="round" stroke-linejoin="round"/><polyline fill="none" points="-47.48766009732021,31.731403371057336 -44.987660097309146,31.061530389997944 -43.15753307836817,29.23140337108617 -42.487660097268886,26.7314033710858 -43.15753307832828,24.23140337107474 -44.98766009724005,22.401276352133763 -47.48766009724042,21.731403371034478 -49.987660097251485,22.40127635209387 -51.81778711619246,24.231403371005644 -52.48766009729175,26.731403371006014 -51.81778711623236,29.231403371017073 -49.987660097320585,31.061530389958055 -47.487660097320216,31.73140337105734" stroke="#ffa500" stroke-linecap="round" stroke-linejoin="round"/><polyline fill="none" points="62.69642082973132,14.664489218832463 65.19642082974238,13.994616237773073 67.02654784868336,12.164489218861299 67.69642082978265,9.664489218860929 67.02654784872327,7.164489218849868 65.1964208298115,5.334362199908886 62.69642082981113,4.6644892188095985 60.19642082980007,5.334362199868988 58.366293810859084,7.164489218780761 57.696420829759795,9.664489218781132 58.36629381081919,12.164489218792193 60.19642082973096,13.994616237733176 62.69642082973133,14.664489218832465" stroke="#ffa500" stroke-linecap="round" stroke-linejoin="round"/><polyline fill="none" points="220.26542874025495,-98.10778985819428 222.765428740266,-98.77766283925367 224.59555575920697,-100.60778985816543 225.26542874030628,-103.1077898581658 224.59555575924688,-105.60778985817686 222.7654287403351,-107.43791687711784 220.26542874033473,-108.10778985821713 217.76542874032367,-107.43791687715775 215.9353017213827,-105.60778985824598 215.2654287402834,-103.10778985824561 215.9353017213428,-100.60778985823454 217.76542874025458,-98.77766283929355 220.26542874025495,-98.10778985819427" stroke="#ffa500" stroke-linecap="round" stroke-linejoin="round"/><polyline fill="none" points="66.48150224235822,22.74821876246644 68.98150224236929,22.078345781407055 70.81162926131027,20.248218762495284 71.48150224240956,17.748218762494915 70.81162926135018,15.24821876248385 68.98150224243841,13.418091743542863 66.48150224243804,12.74821876244357 63.98150224242698,13.418091743502954 62.15137522348599,15.248218762414725 61.481502242386696,17.748218762415096 62.15137522344608,20.248218762426163 63.98150224235785,22.07834578136715 66.48150224235822,22.748218762466447" stroke="#ffa500" stroke-linecap="round" stroke-linejoin="round"/><polyline fill="none" points="84.38095812755301,9.266212720542562 86.88095812756409,8.596339739483179 88.71108514650507,6.766212720571408 89.38095812760436,4.266212720571037 88.71108514654497,1.7662127205599707 86.8809581276332,-0.06391429838101881 84.38095812763284,-0.7337872794803153 81.88095812762177,-0.06391429842093332 80.05083110868078,1.7662127204908369 79.38095812758148,4.266212720491209 80.05083110864086,6.766212720502276 81.88095812755263,8.596339739443266 84.380958127553,9.266212720542564" stroke="#ffa500" stroke-linecap="round" stroke-linejoin="round"/><polyline fill="none" points="-131.03857271725855,-77.64428568665619 -128.5385727172475,-78.31415866771557 -126.7084456983065,-80.14428568662734 -126.0385727172072,-82.64428568662771 -126.70844569826659,-85.14428568663878 -128.53857271717837,-86.97441270557977 -131.03857271717874,-87.64428568667907 -133.5385727171898,-86.97441270561968 -135.3686997361308,-85.14428568670792 -136.0385727172301,-82.64428568670755 -135.36869973617073,-80.14428568669648 -133.53857271725894,-78.31415866775548 -131.03857271725857,-77.64428568665618" stroke="#ffa500" stroke-linecap="round" stroke-linejoin="round"/><polyline fill="none" points="77.62528522241948,15.639861385207322 80.12528522243055,14.969988404147944 81.95541224137155,13.139861385236175 82.62528522247085,10.639861385235802 81.95541224141147,8.139861385224732 80.1252852224997,6.309734366283737 77.62528522249933,5.639861385184435 75.12528522248826,6.309734366243813 73.29515820354726,8.13986138515558 72.62528522244796,10.639861385155953 73.29515820350733,13.139861385167023 75.1252852224191,14.969988404108019 77.62528522241946,15.639861385207322" stroke="#ffa500" stroke-linecap="round" stroke-linejoin="round"/><polyline fill="none" points="-140.76715071894427,-44.997917911657055 -138.26715071893318,-45.66779089271643 -136.43702369999218,-47.4979179116282 -135.76715071889288,-49.997917911628576 -136.43702369995225,-52.49791791163965 -138.267150718864,-54.328044930580646 -140.76715071886437,-54.99791791167995 -143.26715071887546,-54.32804493062057 -145.09727773781646,-52.497917911708804 -145.76715071891576,-49.997917911708434 -145.0972777378564,-47.497917911697364 -143.26715071894463,-45.667790892756365 -140.76715071894427,-44.99791791165706" stroke="#008000" stroke-linecap="round" stroke-linejoin="round"/><polyline fill="none" points="-102.87135373427908,41.966118325236764 -100.37135373426801,41.296245344177386 -98.54122671532701,39.46611832526562 -97.87135373422771,36.96611832526524 -98.54122671528708,34.46611832525417 -100.37135373419885,32.63599130631317 -102.87135373419922,31.966118325213866 -105.37135373421029,32.63599130627324 -107.20148075315129,34.46611832518501 -107.87135373425059,36.96611832518538 -107.20148075319122,39.46611832519645 -105.37135373427945,41.296245344137446 -102.87135373427908,41.96611832523676" stroke="#ffa500" stroke-linecap="round" stroke-linejoin="round"/><polyline fill="none" points="2.2131733296945173,19.38857082812911 4.713173329705591,18.71869784706974 6.543300348646592,16.888570828157977 7.213173329745901,14.388570828157604 6.543300348686529,11.88857082814653 4.713173329774763,10.05844380920553 2.2131733297743903,9.38857082810622 -0.2868266702366844,10.05844380916559 -2.1169536891776866,11.888570828077354 -2.786826670276997,14.388570828077727 -2.1169536892176266,16.888570828088803 -0.2868266703058622,18.718697847029805 2.213173329694511,19.388570828129115" stroke="#ffa500" stroke-linecap="round" stroke-linejoin="round"/><polyline fill="none" points="-89.0811374379214,12.285665145359953 -86.58113743791033,11.615792164300583 -84.75101041896933,9.785665145388819 -84.08113743787001,7.285665145388446 -84.75101041892938,4.78566514537737 -86.58113743784115,2.955538126436366 -89.08113743784152,2.2856651453370533 -91.58113743785259,2.955538126396422 -93.41126445679359,4.785665145308186 -94.0811374378929,7.28566514530856 -93.41126445683354,9.785665145319637 -91.58113743792177,11.615792164260643 -89.0811374379214,12.285665145359957" stroke="#ffa500" stroke-linecap="round" stroke-linejoin="round"/><polyline fill="none" points="-168.04386677265606,-10.7062361795053 -165.54386677264498,-11.376109160564669 -163.71373975370398,-13.206236179476432 -163.04386677260467,-15.706236179476807 -163.71373975366404,-18.206236179487885 -165.5438667725758,-20.03636319842889 -168.04386677257617,-20.706236179528204 -170.54386677258725,-20.036363198468838 -172.37399379152825,-18.206236179557074 -173.04386677262755,-15.7062361795567 -172.37399379156818,-13.206236179545623 -170.54386677265643,-11.376109160604615 -168.04386677265606,-10.706236179505298" stroke="#00f" stroke-linecap="round" stroke-linejoin="round"/><polyline fill="none" points="-147.71822342653988,-14.65598516255615 -145.2182234265288,-15.325858143615514 -143.3880964075878,-17.155985162527276 -142.7182234264885,-19.65598516252765 -143.38809640754786,-22.15598516253873 -145.21822342645962,-23.98611218147974 -147.71822342645999,-24.655985162579057 -150.21822342647107,-23.986112181519694 -152.04835044541207,-22.155985162607934 -152.7182234265114,-19.65598516260756 -152.04835044545203,-17.15598516259648 -150.21822342654028,-15.32585814365547 -147.7182234265399,-14.655985162556151" stroke="#00f" stroke-linecap="round" stroke-linejoin="round"/><polyline fill="none" points="-129.9230611321022,-0.5479064073616895 -127.4230611320911,-1.2177793884210533 -125.5929341131501,-3.0479064073328144 -124.92306113205078,-5.547906407333189 -125.59293411311013,-8.04790640734427 -127.4230611320219,-9.878033426285281 -129.92306113202227,-10.547906407384602 -132.42306113203335,-9.87803342632524 -134.25318815097435,-8.04790640741348 -134.92306113207368,-5.547906407413105 -134.2531881510143,-3.0479064074020235 -132.42306113210256,-1.2177793884610102 -129.9230611321022,-0.547906407361688" stroke="#ffa500" stroke-linecap="round" stroke-linejoin="round"/><polyline fill="none" points="-71.83284883948556,52.670684087360904 -69.33284883947448,52.00081110630154 -67.50272182053347,50.17068408738978 -66.83284883943415,47.670684087389404 -67.5027218204935,45.17068408737832 -69.33284883940526,43.340557068437306 -71.83284883940563,42.67068408733798 -74.33284883941671,43.34055706839734 -76.16297585835773,45.1706840873091 -76.83284883945706,47.670684087309475 -76.1629758583977,50.17068408732056 -74.33284883948595,52.00081110626157 -71.83284883948558,52.6706840873609" stroke="#ffa500" stroke-linecap="round" stroke-linejoin="round"/><polyline fill="none" points="-17.318179352218415,62.98482281586938 -14.81817935220733,62.31494983481002 -12.988052333266314,60.48482281589826 -12.318179352166988,57.984822815897886 -12.988052333226346,55.4848228158868 -14.818179352138104,53.65469579694578 -17.31817935213848,52.98482281584646 -19.818179352149563,53.65469579690581 -21.64830637109058,55.48482281581757 -22.318179352189908,57.98482281581795 -21.648306371130552,60.484822815829034 -19.818179352218795,62.314949834770054 -17.31817935221842,62.984822815869386" stroke="#ffa500" stroke-linecap="round" stroke-linejoin="round"/><polyline fill="none" points="-67.47307012953777,-18.874077752515248 -64.97307012952669,-19.543950733574604 -63.14294311058567,-21.37407775248636 -62.47307012948634,-23.874077752486738 -63.142943110545694,-26.374077752497822 -64.97307012945745,-28.204204771438842 -67.47307012945782,-28.87407775253817 -69.97307012946891,-28.204204771478814 -71.80319714840994,-26.374077752567057 -72.47307012950927,-23.87407775256668 -71.80319714844991,-21.374077752555593 -69.97307012953816,-19.543950733614572 -67.47307012953779,-18.87407775251524" stroke="#00f" stroke-linecap="round" stroke-linejoin="round"/><polyline fill="none" points="-135.3078188291075,-51.82273639510867 -132.80781882909642,-52.492609376168026 -130.9776918101554,-54.32273639507978 -130.30781882905606,-56.822736395080156 -130.9776918101154,-59.32273639509124 -132.80781882902716,-61.15286341403226 -135.30781882902752,-61.82273639513159 -137.8078188290386,-61.152863414072236 -139.63794584797964,-59.32273639516048 -140.30781882907897,-56.822736395160106 -139.63794584801963,-54.32273639514902 -137.80781882910787,-52.492609376208 -135.3078188291075,-51.82273639510867" stroke="#00f" stroke-linecap="round" stroke-linejoin="round"/><polyline fill="none" points="-82.45974373854042,103.52430903351906 -79.95974373852934,102.8544360524597 -78.12961671958831,101.02430903354795 -77.45974373848898,98.52430903354758 -78.12961671954834,96.0243090335365 -79.95974373846009,94.19418201459547 -82.45974373846046,93.52430903349614 -84.95974373847154,94.1941820145555 -86.78987075741257,96.02430903346725 -87.4597437385119,98.52430903346762 -86.78987075745255,101.0243090334787 -84.9597437385408,102.85443605241973 -82.45974373854042,103.52430903351906" stroke="#ffa500" stroke-linecap="round" stroke-linejoin="round"/><polyline fill="none" points="-125.4633570472942,-0.3350212585845407 -122.96335704728311,-1.0048942396438902 -121.13323002834208,-2.835021258555644 -120.46335704724275,-5.335021258556019 -121.1332300283021,-7.835021258567108 -122.96335704721385,-9.665148277508136 -125.46335704721422,-10.335021258607473 -127.9633570472253,-9.665148277548123 -129.79348406616631,-7.83502125863637 -130.46335704726565,-5.3350212586359955 -129.7934840662063,-2.835021258624905 -127.96335704729455,-1.004894239683877 -125.46335704729418,-0.33502125858453813" stroke="#ffa500" stroke-linecap="round" stroke-linejoin="round"/><polyline fill="none" points="-130.93968636115113,-58.06488560941518 -128.43968636114005,-58.73475859047453 -126.60955934219902,-60.56488560938628 -125.93968636109967,-63.06488560938666 -126.60955934215902,-65.56488560939775 -128.43968636107076,-67.39501262833878 -130.93968636107113,-68.06488560943812 -133.4396863610822,-67.39501262837878 -135.26981338002324,-65.56488560946703 -135.93968636112257,-63.06488560946665 -135.26981338006323,-60.56488560945556 -133.43968636115147,-58.73475859051453 -130.9396863611511,-58.06488560941519" stroke="#f00" stroke-linecap="round" stroke-linejoin="round"/><polyline fill="none" points="-49.507265965639704,-33.67214778167338 -47.00726596562861,-34.34202076273272 -45.17713894668758,-36.172147781644476 -44.50726596558823,-38.67214778164485 -45.177138946647574,-41.172147781655944 -47.00726596555933,-43.00227480059698 -49.507265965559704,-43.672147781696324 -52.007265965570795,-43.00227480063698 -53.83739298451183,-41.17214778172523 -54.507265965611175,-38.67214778172485 -53.83739298455183,-36.17214778171376 -52.00726596564009,-34.34202076277273 -49.50726596563971,-33.67214778167338" stroke="#008000" stroke-linecap="round" stroke-linejoin="round"/><polyline fill="none" points="-107.74237652493134,52.51546155151885 -105.24237652492025,51.845588570459505 -103.41224950597922,50.01546155154776 -102.74237652487987,47.51546155154738 -103.41224950593922,45.01546155153629 -105.24237652485097,43.185334532595256 -107.74237652485134,42.51546155149591 -110.24237652486244,43.18533453255525 -112.07250354380346,45.015461551467 -112.74237652490281,47.515461551467375 -112.07250354384347,50.01546155147847 -110.24237652493171,51.8455885704195 -107.74237652493134,52.51546155151885" stroke="#ffa500" stroke-linecap="round" stroke-linejoin="round"/><polyline fill="none" points="-111.69544356121352,44.13458874955647 -109.19544356120242,43.46471576849713 -107.36531654226138,41.63458874958538 -106.69544356116204,39.134588749585006 -107.36531654222138,36.63458874957391 -109.19544356113313,34.80446173063287 -111.6954435611335,34.13458874953352 -114.1954435611446,34.804461730592855 -116.02557058008564,36.6345887495046 -116.69544356118499,39.13458874950498 -116.02557058012565,41.63458874951608 -114.1954435612139,43.46471576845711 -111.69544356121354,44.134588749556464" stroke="#ffa500" stroke-linecap="round" stroke-linejoin="round"/><polyline fill="none" points="-83.08444817615971,91.43526148467573 -80.58444817614861,90.76538850361639 -78.75432115720757,88.93526148470465 -78.08444817610822,86.43526148470428 -78.75432115716757,83.93526148469319 -80.5844481760793,82.10513446575214 -83.08444817607968,81.4352614846528 -85.58444817609077,82.10513446571213 -87.41457519503182,83.93526148462387 -88.08444817613118,86.43526148462423 -87.41457519507185,88.93526148463533 -85.58444817616011,90.76538850357638 -83.08444817615974,91.43526148467573" stroke="#00f" stroke-linecap="round" stroke-linejoin="round"/><polyline fill="none" points="-136.89625020835433,18.331122366557203 -134.39625020834325,17.661249385497868 -132.56612318940222,15.831122366586124 -131.89625020830286,13.331122366585749 -132.5661231893622,10.83112236657465 -134.39625020827395,9.000995347633609 -136.89625020827432,8.331122366534252 -139.39625020828544,9.000995347593584 -141.2263772272265,10.831122366505326 -141.89625020832585,13.331122366505701 -141.2263772272665,15.831122366516801 -139.39625020835476,17.661249385457847 -136.8962502083544,18.331122366557203" stroke="#00f" stroke-linecap="round" stroke-linejoin="round"/><polyline fill="none" points="-80.6745836414607,50.38408784049157 -78.1745836414496,49.71421485943224 -76.34445662250856,47.88408784052049 -75.6745836414092,45.38408784052012 -76.34445662246853,42.88408784050902 -78.17458364138027,41.053960821567976 -80.67458364138064,40.38408784046862 -83.17458364139173,41.053960821527944 -85.00471066033278,42.88408784043968 -85.67458364143214,45.38408784044006 -85.00471066037281,47.88408784045116 -83.17458364146107,49.71421485939221 -80.6745836414607,50.38408784049157" stroke="#ffa500" stroke-linecap="round" stroke-linejoin="round"/><polyline fill="none" points="3.7724469876438222,-20.46918360434515 6.272446987654924,-21.13905658540448 8.10257400659597,-22.96918360431622 8.772446987695332,-25.469183604316598 8.102574006636004,-27.9691836043277 6.272446987724264,-29.79931062326875 3.7724469877238884,-30.469183604368112 1.2724469877127857,-29.799310623308784 -0.5576800312282626,-27.969183604397042 -1.2275530123276246,-25.469183604396665 -0.5576800312682977,-22.969183604385563 1.272446987643443,-21.139056585444514 3.7724469876438187,-20.46918360434515" stroke="#00f" stroke-linecap="round" stroke-linejoin="round"/><polyline fill="none" points="-126.65468953131186,-42.7460632385669 -124.15468953130076,-43.415936219626225 -122.3245625123597,-45.246063238537964 -121.65468953126035,-47.74606323853834 -122.32456251231967,-50.246063238549446 -124.15468953123141,-52.076190257490495 -126.65468953123178,-52.74606323858986 -129.1546895312429,-52.076190257530534 -130.98481655018395,-50.246063238618795 -131.6546895312833,-47.74606323861842 -130.984816550224,-45.24606323860731 -129.15468953131227,-43.415936219666264 -126.6546895313119,-42.7460632385669" stroke="#ffa500" stroke-linecap="round" stroke-linejoin="round"/><polyline fill="none" points="-156.53051374493353,10.720048242501475 -154.03051374492242,10.050175261442151 -152.20038672598136,8.220048242530412 -151.530513744882,5.720048242530037 -152.2003867259413,3.2200482425189327 -154.03051374485304,1.3899212235778804 -156.5305137448534,0.7200482424785133 -159.03051374486452,1.3899212235378355 -160.86064076380558,3.220048242449573 -161.53051374490494,5.720048242449948 -160.86064076384562,8.220048242461054 -159.0305137449339,10.050175261402108 -156.53051374493353,10.720048242501477" stroke="#ffa500" stroke-linecap="round" stroke-linejoin="round"/><polyline fill="none" points="-152.90266719243905,-62.00039008321896 -150.40266719242794,-62.67026306427828 -148.57254017348689,-64.50039008319001 -147.90266719238753,-67.00039008319038 -148.57254017344684,-69.5003900832015 -150.40266719235856,-71.33051710214255 -152.90266719235893,-72.00039008324192 -155.40266719237005,-71.33051710218261 -157.2327942113111,-69.50039008327087 -157.90266719241046,-67.0003900832705 -157.23279421135115,-64.50039008325939 -155.40266719243942,-62.670263064318334 -152.90266719243905,-62.00039008321896" stroke="#ffa500" stroke-linecap="round" stroke-linejoin="round"/><polyline fill="none" points="-140.79948504267608,-64.06733585727618 -138.29948504266497,-64.73720883833549 -136.4693580237239,-66.56733585724723 -135.79948504262455,-69.0673358572476 -136.46935802368387,-71.56733585725871 -138.2994850425956,-73.39746287619977 -140.79948504259596,-74.06733585729914 -143.29948504260707,-73.39746287623983 -145.12961206154813,-71.56733585732809 -145.7994850426475,-69.06733585732772 -145.12961206158818,-66.5673358573166 -143.29948504267645,-64.73720883837555 -140.79948504267608,-64.06733585727618" stroke="#00f" stroke-linecap="round" stroke-linejoin="round"/><polyline fill="none" points="-99.51579993326449,41.998316098472564 -97.01579993325338,41.32844311741325 -95.18567291431232,39.49831609850152 -94.51579993321295,36.99831609850114 -95.18567291427226,34.49831609849004 -97.015799933184,32.66818907954897 -99.51579993318437,31.998316098449596 -102.01579993319548,32.66818907950891 -103.84592695213654,34.498316098420645 -104.51579993323591,36.99831609842102 -103.8459269521766,39.498316098432134 -102.01579993326486,41.3284431173732 -99.51579993326449,41.99831609847257" stroke="#ffa500" stroke-linecap="round" stroke-linejoin="round"/><polyline fill="none" points="-142.28613670151424,-82.1579780072552 -139.78613670150312,-82.82785098831451 -137.95600968256207,-84.65797800722625 -137.28613670146268,-87.15797800722662 -137.956009682522,-89.65797800723773 -139.78613670143372,-91.48810502617879 -142.2861367014341,-92.15797800727816 -144.7861367014452,-91.48810502621885 -146.61626372038626,-89.65797800730712 -147.28613670148565,-87.15797800730675 -146.61626372042633,-84.65797800729564 -144.7861367015146,-82.82785098835457 -142.28613670151424,-82.1579780072552" stroke="#ffa500" stroke-linecap="round" stroke-linejoin="round"/><polyline fill="none" points="51.86656722940436,22.358340953261415 54.36656722941547,21.688467972202105 56.196694248356536,19.858340953290373 56.86656722945592,17.358340953289996 56.196694248396604,14.858340953278883 54.36656722948487,13.028213934337819 51.866567229484495,12.358340953238438 49.36656722947338,13.028213934297748 47.53644021053232,14.858340953209478 46.86656722943294,17.358340953209854 47.536440210492245,19.858340953220967 49.36656722940398,21.688467972162034 51.86656722940435,22.358340953261415" stroke="#ffa500" stroke-linecap="round" stroke-linejoin="round"/><polyline fill="none" points="-92.85708748856389,23.568690623365768 -90.35708748855278,22.898817642306458 -88.52696046961171,21.06869062339473 -87.85708748851232,18.568690623394353 -88.52696046957163,16.06869062338324 -90.35708748848336,14.238563604442174 -92.85708748848373,13.568690623342789 -95.35708748849484,14.238563604402097 -97.18721450743591,16.068690623313827 -97.8570874885353,18.568690623314204 -97.18721450747599,21.068690623325317 -95.35708748856426,22.898817642266387 -92.85708748856389,23.56869062336577" stroke="#00f" stroke-linecap="round" stroke-linejoin="round"/><polyline fill="none" points="-123.77251876945952,-27.409351999263947 -121.27251876944841,-28.079224980323254 -119.44239175050734,-29.909351999234982 -118.77251876940795,-32.409351999235355 -119.44239175046725,-34.90935199924647 -121.27251876937898,-36.73947901818754 -123.77251876937936,-37.409351999286926 -126.27251876939047,-36.73947901822762 -128.10264578833156,-34.90935199931589 -128.77251876943095,-32.40935199931551 -128.10264578837163,-29.909351999304395 -126.27251876945991,-28.07922498036332 -123.77251876945954,-27.409351999263933" stroke="#00f" stroke-linecap="round" stroke-linejoin="round"/><polyline fill="none" points="-134.2986334814938,-47.99042516385125 -131.79863348148268,-48.660298144910556 -129.9685064625416,-50.49042516382228 -129.2986334814422,-52.99042516382266 -129.96850646250152,-55.49042516383378 -131.79863348141325,-57.32055218277485 -134.29863348141362,-57.990425163874235 -136.79863348142473,-57.320552182814936 -138.62876050036581,-55.49042516390321 -139.2986334814652,-52.990425163902835 -138.6287605004059,-50.490425163891715 -136.79863348149416,-48.66029814495064 -134.2986334814938,-47.99042516385124" stroke="#00f" stroke-linecap="round" stroke-linejoin="round"/><polyline fill="none" points="-87.66392889066853,104.69568932416965 -85.16392889065742,104.02581634311035 -83.33380187171635,102.19568932419863 -82.66392889061696,99.69568932419824 -83.33380187167626,97.19568932418713 -85.16392889058798,95.36556230524606 -87.66392889058835,94.69568932414667 -90.16392889059946,95.36556230520597 -91.99405590954053,97.1956893241177 -92.66392889063992,99.69568932411808 -91.99405590958062,102.1956893241292 -90.1639288906689,104.02581634307029 -87.66392889066852,104.69568932416968" stroke="#ffa500" stroke-linecap="round" stroke-linejoin="round"/><polyline fill="none" points="-178.2724221499149,-66.547313237948 -175.77242214990378,-67.2171862190073 -173.9422951309627,-69.04731323791903 -173.2724221498633,-71.54731323791941 -173.9422951309226,-74.04731323793054 -175.7724221498343,-75.87744025687162 -178.27242214983468,-76.54731323797103 -180.7724221498458,-75.87744025691173 -182.60254916878688,-74.047313238 -183.27242214988627,-71.54731323799962 -182.60254916882698,-69.04731323798849 -180.77242214991526,-67.2171862190474 -178.2724221499149,-66.547313237948" stroke="#ffa500" stroke-linecap="round" stroke-linejoin="round"/><polyline fill="none" points="-42.160505045265964,63.69217076848745 -39.660505045254844,63.02229778742815 -37.83037802631377,61.19217076851643 -37.160505045214364,58.69217076851605 -37.83037802627366,56.19217076850493 -39.66050504518538,54.362043749563846 -42.16050504518576,53.69217076846444 -44.66050504519688,54.362043749523735 -46.49063206413796,56.19217076843546 -47.160505045237365,58.69217076843584 -46.49063206417807,61.19217076844696 -44.66050504526635,63.02229778738804 -42.16050504526597,63.69217076848744" stroke="#ffa500" stroke-linecap="round" stroke-linejoin="round"/><polyline fill="none" points="-93.15572517970568,101.66359372280192 -90.65572517969456,100.99372074174262 -88.82559816075347,99.1635937228309 -88.15572517965407,96.66359372283051 -88.82559816071337,94.16359372281939 -90.6557251796251,92.3334667038783 -93.15572517962548,91.6635937227789 -95.6557251796366,92.3334667038382 -97.48585219857769,94.16359372274992 -98.15572517967709,96.6635937227503 -97.4858521986178,99.16359372276143 -95.65572517970608,100.99372074170252 -93.1557251797057,101.66359372280192" stroke="#ffa500" stroke-linecap="round" stroke-linejoin="round"/><polyline fill="none" points="-88.06555779365753,-19.8156402247884 -85.5655577936464,-20.485513205847692 -83.73543077470532,-22.315640224759413 -83.06555779360592,-24.81564022475979 -83.7354307746652,-27.315640224770913 -85.56555779357693,-29.145767243711997 -88.06555779357731,-29.815640224811403 -90.56555779358844,-29.145767243752115 -92.39568481252952,-27.315640224840394 -93.06555779362893,-24.815640224840017 -92.39568481256964,-22.31564022482889 -90.56555779365792,-20.485513205887802 -88.06555779365755,-19.815640224788396" stroke="#00f" stroke-linecap="round" stroke-linejoin="round"/><polyline fill="none" points="-170.19756066141056,-82.0917994700335 -167.69756066139945,-82.76167245109278 -165.86743364245837,-84.5917994700045 -165.19756066135895,-87.09179947000487 -165.86743364241823,-89.591799470016 -167.69756066132996,-91.42192648895708 -170.19756066133033,-92.09179947005649 -172.69756066134147,-91.4219264889972 -174.52768768028255,-89.59179947008548 -175.19756066138197,-87.0917994700851 -174.52768768032269,-84.59179947007398 -172.69756066141096,-82.7616724511329 -170.1975606614106,-82.09179947003348" stroke="#00f" stroke-linecap="round" stroke-linejoin="round"/><polyline fill="none" points="-117.21436442346413,-77.45862157446446 -114.714364423453,-78.12849455552374 -112.88423740451192,-79.95862157443547 -112.2143644234125,-82.45862157443585 -112.88423740447179,-84.95862157444698 -114.7143644233835,-86.78874859338808 -117.21436442338388,-87.4586215744875 -119.71436442339501,-86.78874859342821 -121.54449144233611,-84.9586215745165 -122.21436442343553,-82.45862157451612 -121.54449144237624,-79.95862157450499 -119.71436442346453,-78.12849455556389 -117.21436442346415,-77.45862157446447" stroke="#ffa500" stroke-linecap="round" stroke-linejoin="round"/><polyline fill="none" points="-108.42593037902432,35.4673064025574 -105.9259303790132,34.79743342149811 -104.0958033600721,32.967306402586395 -103.42593037897268,30.46730640258602 -104.09580336003197,27.967306402574888 -105.92593037894368,26.137179383633793 -108.42593037894406,25.46730640253438 -110.92593037895519,26.13717938359366 -112.75605739789629,27.967306402505375 -113.4259303789957,30.467306402505752 -112.75605739793642,32.96730640251688 -110.9259303790247,34.79743342145798 -108.42593037902432,35.4673064025574" stroke="#ffa500" stroke-linecap="round" stroke-linejoin="round"/><polyline fill="none" points="-93.93364167080777,92.566409566254 -91.43364167079665,91.89653658519471 -89.60351465185555,90.066409566283 -88.93364167075613,87.56640956628262 -89.60351465181542,85.06640956627149 -91.43364167072713,83.23628254733039 -93.93364167072751,82.56640956623097 -96.43364167073864,83.23628254729026 -98.26376868967974,85.06640956620197 -98.93364167077915,87.56640956620235 -98.26376868971987,90.06640956621348 -96.43364167080816,91.89653658515458 -93.93364167080777,92.566409566254" stroke="#ffa500" stroke-linecap="round" stroke-linejoin="round"/><polyline fill="none" points="-103.26151946829552,26.264805506600474 -100.76151946828439,25.594932525541196 -98.93139244934329,23.764805506629482 -98.26151946824388,21.264805506629106 -98.93139244930316,18.76480550661797 -100.76151946821487,16.934678487676873 -103.26151946821525,16.264805506577453 -105.76151946822638,16.93467848763673 -107.59164648716748,18.764805506548445 -108.2615194682669,21.26480550654882 -107.59164648720763,23.764805506559956 -105.76151946829592,25.594932525501054 -103.26151946829553,26.264805506600474" stroke="#00f" stroke-linecap="round" stroke-linejoin="round"/><polyline fill="none" points="-160.5105125925788,-2.1399455135361842 -158.01051259256766,-2.809818494595461 -156.18038557362655,-4.639945513507174 -155.51051259252714,-7.13994551350755 -156.18038557358642,-9.639945513518684 -158.01051259249815,-11.470072532459785 -160.51051259249851,-12.139945513559207 -163.01051259250966,-11.470072532499932 -164.84063961145077,-9.63994551358822 -165.51051259255019,-7.139945513587843 -164.8406396114909,-4.639945513576709 -163.01051259257918,-2.809818494635607 -160.5105125925788,-2.1399455135361833" stroke="#ffa500" stroke-linecap="round" stroke-linejoin="round"/><polyline fill="none" points="-138.88067300286139,-67.09764793180362 -136.38067300285024,-67.76752091286289 -134.55054598390913,-69.5976479317746 -133.88067300280971,-72.09764793177499 -134.550545983869,-74.59764793178613 -136.3806730027807,-76.42777495072723 -138.88067300278107,-77.09764793182666 -141.3806730027922,-76.42777495076739 -143.21080002173332,-74.59764793185568 -143.88067300283274,-72.0976479318553 -143.21080002177345,-69.59764793184416 -141.38067300286176,-67.76752091290307 -138.88067300286139,-67.09764793180364" stroke="#00f" stroke-linecap="round" stroke-linejoin="round"/><polyline fill="none" points="-174.23429712946157,-82.69135493192849 -171.73429712945043,-83.36122791298776 -169.9041701105093,-85.19135493189947 -169.2342971294099,-87.69135493189984 -169.90417011046915,-90.19135493191098 -171.73429712938085,-92.02148195085209 -174.23429712938122,-92.69135493195152 -176.73429712939236,-92.02148195089225 -178.56442414833347,-90.19135493198054 -179.2342971294329,-87.69135493198016 -178.56442414837363,-85.19135493196902 -176.73429712946194,-83.3612279130279 -174.23429712946157,-82.69135493192847" stroke="#ffa500" stroke-linecap="round" stroke-linejoin="round"/><polyline fill="none" points="-144.86733692740444,-59.762646457928184 -142.3673369273933,-60.432519438987455 -140.53720990845218,-62.262646457899166 -139.86733692735274,-64.76264645789955 -140.537209908412,-67.26264645791069 -142.3673369273237,-69.0927734768518 -144.86733692732406,-69.76264645795123 -147.3673369273352,-69.09277347689196 -149.19746394627632,-67.26264645798025 -149.86733692737576,-64.76264645797988 -149.1974639463165,-62.26264645796874 -147.3673369274048,-60.43251943902763 -144.86733692740444,-59.7626464579282" stroke="#008000" stroke-linecap="round" stroke-linejoin="round"/><polyline fill="none" points="-40.849812539415026,54.7603383061205 -38.349812539403885,54.09046532506124 -36.51968552046277,52.260338306149535 -35.849812539363334,49.76033830614916 -36.5196855204226,47.26033830613802 -38.3498125393343,45.430211287196904 -40.84981253933468,44.760338306097466 -43.34981253934582,45.43021128715673 -45.17993955828693,47.260338306068434 -45.84981253938637,49.76033830606881 -45.179939558327106,52.26033830607995 -43.3498125394154,54.090465325021064 -40.849812539415026,54.7603383061205" stroke="#ffa500" stroke-linecap="round" stroke-linejoin="round"/><polyline fill="none" points="49.25807571043655,3.9654577335241505 51.75807571044769,3.2955847524648876 53.588202729388804,1.465457733553183 54.25807571048824,-1.034542266447194 53.58820272942898,-3.5345422664583355 51.758075710517275,-5.36466928539945 49.2580757105169,-6.034542266498888 46.75807571050576,-5.364669285439626 44.927948691564644,-3.5345422665279216 44.25807571046521,-1.0345422665275446 44.92794869152447,1.4654577334835976 46.758075710436174,3.2955847524247135 49.25807571043655,3.9654577335241528" stroke="#ffa500" stroke-linecap="round" stroke-linejoin="round"/><polyline fill="none" points="-153.66873900857271,-75.40802900569028 -151.16873900856157,-76.07790198674954 -149.33861198962046,-77.90802900566125 -148.66873900852102,-80.40802900566163 -149.33861198958027,-82.90802900567277 -151.16873900849197,-84.73815602461389 -153.66873900849234,-85.40802900571333 -156.16873900850348,-84.73815602465407 -157.9988660274446,-82.90802900574238 -158.66873900854404,-80.408029005742 -157.99886602748478,-77.90802900573085 -156.16873900857308,-76.07790198678974 -153.66873900857271,-75.4080290056903" stroke="#ffa500" stroke-linecap="round" stroke-linejoin="round"/><polyline fill="none" points="-175.642958149583,-53.60453909294088 -173.14295814957185,-54.27441207400014 -171.31283113063074,-56.10453909291184 -170.6429581495313,-58.60453909291222 -171.31283113059055,-61.10453909292336 -173.14295814950225,-62.93466611186448 -175.64295814950262,-63.604539092963925 -178.14295814951376,-62.93466611190467 -179.97308516845487,-61.104539092992965 -180.64295814955432,-58.60453909299259 -179.97308516849506,-56.10453909298145 -178.14295814958336,-54.27441207404033 -175.642958149583,-53.60453909294088" stroke="#00f" stroke-linecap="round" stroke-linejoin="round"/><polyline fill="none" points="-135.61142678370229,-91.17007429661281 -133.11142678369114,-91.83994727767207 -131.28129976475003,-93.67007429658376 -130.6114267836506,-96.17007429658415 -131.28129976470984,-98.67007429659529 -133.11142678362154,-100.50020131553642 -135.6114267836219,-101.17007429663586 -138.11142678363305,-100.5002013155766 -139.94155380257416,-98.67007429666491 -140.6114267836736,-96.17007429666452 -139.94155380261435,-93.67007429665338 -138.11142678370265,-91.83994727771226 -135.61142678370229,-91.17007429661281" stroke="#ffa500" stroke-linecap="round" stroke-linejoin="round"/><polyline fill="none" points="-126.00719440916248,-63.90452987716563 -123.50719440915134,-64.57440285822489 -121.67706739021021,-66.40452987713658 -121.00719440911077,-68.90452987713697 -121.67706739017002,-71.40452987714811 -123.50719440908172,-73.23465689608923 -126.0071944090821,-73.90452987718868 -128.50719440909324,-73.23465689612942 -130.33732142803436,-71.40452987721773 -131.0071944091338,-68.90452987721734 -130.33732142807455,-66.4045298772062 -128.50719440916285,-64.57440285826507 -126.00719440916247,-63.90452987716562" stroke="#008000" stroke-linecap="round" stroke-linejoin="round"/><polyline fill="none" points="-100.0285163126074,23.32790383080229 -97.52851631259625,22.658030849743035 -95.69838929365513,20.82790383083134 -95.02851631255568,18.327903830830962 -95.69838929361494,15.827903830819814 -97.52851631252663,13.997776811878687 -100.02851631252702,13.327903830779235 -102.52851631253817,13.997776811838484 -104.3586433314793,15.827903830750182 -105.02851631257874,18.32790383075056 -104.35864333151949,20.82790383076171 -102.52851631260779,22.658030849702836 -100.02851631260741,23.32790383080229" stroke="#ffa500" stroke-linecap="round" stroke-linejoin="round"/><polyline fill="none" points="-163.9512350281486,-10.254954992818318 -161.45123502813746,-10.924827973877568 -159.62110800919632,-12.754954992789264 -158.95123502809687,-15.25495499278964 -159.62110800915613,-17.75495499280079 -161.45123502806783,-19.585082011741918 -163.9512350280682,-20.25495499284137 -166.45123502807934,-19.58508201178212 -168.28136204702048,-17.754954992870424 -168.95123502811992,-15.254954992870047 -168.28136204706067,-12.754954992858897 -166.45123502814897,-10.924827973917768 -163.9512350281486,-10.254954992818313" stroke="#ffa500" stroke-linecap="round" stroke-linejoin="round"/><polyline fill="none" points="-36.079452275473855,-45.53160548085525 -33.57945227546271,-46.2014784619145 -31.749325256521576,-48.031605480826194 -31.07945227542212,-50.53160548082657 -31.749325256481367,-53.03160548083772 -33.57945227539306,-54.86173249977885 -36.079452275393436,-55.53160548087831 -38.579452275404584,-54.86173249981907 -40.40957929434572,-53.03160548090737 -41.07945227544518,-50.531605480907 -40.409579294385935,-48.03160548089585 -38.57945227547424,-46.201478461954714 -36.07945227547386,-45.531605480855255" stroke="#ffa500" stroke-linecap="round" stroke-linejoin="round"/><polyline fill="none" points="-186.87168536448715,-79.13565909627125 -184.371685364476,-79.8055320773305 -182.54155834553487,-81.6356590962422 -181.87168536443542,-84.13565909624258 -182.54155834549468,-86.63565909625373 -184.37168536440637,-88.46578611519486 -186.87168536440674,-89.13565909629432 -189.37168536441789,-88.46578611523508 -191.20181238335903,-86.63565909632338 -191.8716853644585,-84.135659096323 -191.20181238339924,-81.63565909631184 -189.37168536448755,-79.8055320773707 -186.87168536448718,-79.13565909627124" stroke="#00f" stroke-linecap="round" stroke-linejoin="round"/><polyline fill="none" points="-69.85880213520585,-46.51342654179579 -67.3588021351947,-47.18329952285503 -65.52867511625355,-49.01342654176672 -64.8588021351541,-51.513426541767096 -65.52867511621334,-54.01342654177825 -67.35880213512503,-55.843553560719386 -69.85880213512542,-56.513426541818845 -72.35880213513657,-55.8435535607596 -74.18892915407771,-54.01342654184791 -74.85880213517717,-51.51342654184754 -74.18892915411793,-49.01342654183638 -72.35880213520623,-47.18329952289525 -69.85880213520585,-46.51342654179578" stroke="#00f" stroke-linecap="round" stroke-linejoin="round"/><polyline fill="none" points="-81.6108740554252,-25.783122230080767 -79.11087405541404,-26.452995211140006 -77.2807470364729,-28.283122230051696 -76.61087405537344,-30.783122230052072 -77.28074703643269,-33.28312223006323 -79.11087405534438,-35.11324924900437 -81.61087405534477,-35.783122230103835 -84.11087405535592,-35.1132492490446 -85.94100107429706,-33.28312223013291 -86.61087405539652,-30.783122230132534 -85.94100107433728,-28.28312223012138 -84.11087405542558,-26.452995211180237 -81.6108740554252,-25.78312223008077" stroke="#ffa500" stroke-linecap="round" stroke-linejoin="round"/><polyline fill="none" points="-116.47189725206869,-48.69616100411478 -113.97189725205753,-49.36603398517401 -112.14177023311639,-51.1961610040857 -111.47189725201692,-53.69616100408608 -112.14177023307616,-56.196161004097235 -113.97189725198785,-58.026288023038376 -116.47189725198824,-58.69616100413784 -118.9718972519994,-58.02628802307861 -120.80202427094054,-56.19616100416692 -121.47189725204001,-53.69616100416654 -120.80202427098078,-51.196161004155385 -118.9718972520691,-49.366033985214244 -116.47189725206871,-48.69616100411478" stroke="#ffa500" stroke-linecap="round" stroke-linejoin="round"/><polyline fill="none" points="-156.56712627445307,-15.111559720952698 -154.0671262744419,-15.781432702011934 -152.23699925550076,-17.611559720923623 -151.5671262744013,-20.111559720924 -152.23699925546052,-22.61155972093516 -154.0671262743722,-24.441686739876303 -156.56712627437258,-25.111559720975773 -159.06712627438375,-24.441686739916538 -160.8972532933249,-22.61155972100485 -161.56712627442437,-20.111559721004472 -160.89725329336514,-17.611559720993313 -159.06712627445344,-15.781432702052168 -156.56712627445307,-15.111559720952696" stroke="#ffa500" stroke-linecap="round" stroke-linejoin="round"/><polyline fill="none" points="-130.4862961003481,-63.97118638965887 -127.98629610033696,-64.6410593707181 -126.15616908139582,-66.47118638962978 -125.48629610029634,-68.97118638963016 -126.15616908135557,-71.47118638964132 -127.98629610026725,-73.30131340858246 -130.48629610026762,-73.97118638968193 -132.9862961002788,-73.3013134086227 -134.81642311921993,-71.47118638971102 -135.4862961003194,-68.97118638971064 -134.81642311926018,-66.47118638969948 -132.98629610034848,-64.64105937075834 -130.4862961003481,-63.97118638965887" stroke="#00f" stroke-linecap="round" stroke-linejoin="round"/><polyline fill="none" points="-36.697791460541474,52.421102485702484 -34.19779146053031,51.751229504643256 -32.36766444158916,49.921102485731566 -31.69779146048969,47.42110248573119 -32.36766444154892,44.92110248572003 -34.19779146046061,43.09097546677888 -36.697791460460984,42.421102485679405 -39.197791460472146,43.090975466738634 -41.027918479413295,44.921102485650316 -41.69779146051277,47.42110248565069 -41.02791847945354,49.921102485661855 -39.19779146054186,51.751229504603 -36.69779146054148,52.42110248570248" stroke="#00f" stroke-linecap="round" stroke-linejoin="round"/><polyline fill="none" points="-110.10244886724479,28.804960939487934 -107.60244886723363,28.135087958428706 -105.77232184829249,26.30496093951702 -105.10244886719302,23.804960939516643 -105.77232184825225,21.30496093950548 -107.60244886716393,19.474833920564333 -110.10244886716431,18.804960939464856 -112.60244886717547,19.474833920524084 -114.43257588611662,21.30496093943577 -115.1024488672161,23.804960939436146 -114.43257588615687,26.30496093944731 -112.60244886724519,28.135087958388457 -110.1024488672448,28.804960939487934" stroke="#ffa500" stroke-linecap="round" stroke-linejoin="round"/><polyline fill="none" points="-133.5454086439795,-42.876108230950265 -131.04540864396833,-43.545981212009494 -129.2152816250272,-45.376108230921176 -128.54540864392771,-47.87610823092155 -129.21528162498694,-50.376108230932715 -131.04540864389864,-52.20623524987386 -133.545408643899,-52.876108230973344 -136.04540864391018,-52.206235249914116 -137.87553566285132,-50.37610823100243 -138.5454086439508,-47.87610823100206 -137.87553566289156,-45.376108230990894 -136.04540864397987,-43.54598121204974 -133.5454086439795,-42.87610823095026" stroke="#008000" stroke-linecap="round" stroke-linejoin="round"/><polyline fill="none" points="-177.1348237595745,-70.0736375698249 -174.63482375956332,-70.74351055088412 -172.80469674062218,-72.5736375697958 -172.1348237595227,-75.07363756979619 -172.80469674058193,-77.57363756980736 -174.63482375949363,-79.40376458874852 -177.134823759494,-80.073637569848 -179.63482375950517,-79.40376458878877 -181.4649507784463,-77.57363756987709 -182.13482375954578,-75.07363756987671 -181.46495077848655,-72.57363756986554 -179.63482375957489,-70.74351055092438 -177.13482375957452,-70.0736375698249" stroke="#ffa500" stroke-linecap="round" stroke-linejoin="round"/><polyline fill="none" points="214.9051170270575,-108.52271598862822 217.40511702706868,-109.19258896968745 219.23524404600985,-111.02271598859913 219.90511702710933,-113.52271598859951 219.2352440460501,-116.02271598861068 217.40511702713843,-117.85284300755184 214.90511702713806,-118.52271598865133 212.4051170271269,-117.8528430075921 210.57499000818572,-116.02271598868042 209.90511702708625,-113.52271598868003 210.57499000814548,-111.02271598866886 212.40511702705714,-109.19258896972771 214.9051170270575,-108.52271598862822" stroke="#ffa500" stroke-linecap="round" stroke-linejoin="round"/></svg>