<?xml version="1.0" ?><!DOCTYPE svg  PUBLIC '-//W3C//DTD SVG 1.1//EN'  'http://www.w3.org/Graphics/SVG/1.1/DTD/svg11.dtd'><svg height="256.000" viewBox="-219.000 -142.000 485.000 256.000" width="485.000" xmlns="http://www.w3.org/2000/svg"><line fill="none" stroke="none" stroke-linecap="round" stroke-width="2.0" x1="0.0" x2="0.0" y1="0.0" y2="0.0"/><polygon fill="none" fill-rule="evenodd" points="0.0,0.0 0.0,0.0 0.0,0.0" stroke-linejoin="round"/><polyline fill="none" points="-159.55440466942397,-53.39792972272536 -157.05440466941158,-54.067802703782526 -155.22427765046834,-55.89792972269304 -154.55440466936648,-58.397929722693455 -155.22427765042366,-60.89792972270584 -157.05440466933416,-62.728056741649084 -159.55440466933456,-63.39792972275096 -162.05440466934695,-62.72805674169379 -163.8845316882902,-60.897929722783275 -164.55440466939208,-58.39792972278286 -163.88453168833493,-55.89792972277047 -162.05440466942443,-54.067802703827226 -159.55440466942403,-53.39792972272535" stroke="#00f" stroke-linecap="round" stroke-linejoin="round"/><polyline fill="none" points="-160.17458806969367,-71.30858409160462 -157.67458806968128,-71.97845707266178 -155.84446105073803,-73.8085840915723 -155.17458806963614,-76.30858409157271 -155.8444610506933,-78.8085840915851 -157.6745880696038,-80.63871111052835 -160.1745880696042,-81.30858409163022 -162.6745880696166,-80.63871111057306 -164.50471508855983,-78.80858409166254 -165.17458806966172,-76.30858409166213 -164.50471508860457,-73.80858409164973 -162.67458806969407,-71.97845707270649 -160.17458806969367,-71.30858409160462" stroke="#008000" stroke-linecap="round" stroke-linejoin="round"/><polyline fill="none" points="-123.9572060384762,-77.31031966418742 -121.45720603846381,-77.98019264524459 -119.62707901952056,-79.8103196641551 -118.95720603841869,-82.31031966415551 -119.62707901947586,-84.8103196641679 -121.45720603838637,-86.64044668311115 -123.95720603838679,-87.31031966421303 -126.45720603839918,-86.64044668315586 -128.28733305734244,-84.81031966424534 -128.95720603844433,-82.31031966424493 -128.28733305738717,-79.81031966423254 -126.45720603847666,-77.98019264528929 -123.95720603847624,-77.31031966418742" stroke="#ffa500" stroke-linecap="round" stroke-linejoin="round"/><polyline fill="none" points="-147.89226049201275,-73.11763190914904 -145.39226049200036,-73.78750489020621 -143.56213347305712,-75.61763190911672 -142.89226049195523,-78.11763190911714 -143.56213347301238,-80.61763190912953 -145.39226049192288,-82.44775892807277 -147.89226049192328,-83.11763190917466 -150.39226049193567,-82.4477589281175 -152.22238751087892,-80.61763190920699 -152.8922604919808,-78.11763190920658 -152.22238751092365,-75.61763190919419 -150.39226049201315,-73.78750489025094 -147.89226049201275,-73.11763190914905" stroke="#008000" stroke-linecap="round" stroke-linejoin="round"/><polyline fill="none" points="-171.41902723979052,-44.12588543210436 -168.91902723977813,-44.79575841316152 -167.0889002208349,-46.62588543207203 -166.419027239733,-49.12588543207244 -167.08890022079015,-51.62588543208483 -168.91902723970065,-53.45601245102808 -171.41902723970105,-54.12588543212996 -173.91902723971344,-53.4560124510728 -175.7491542586567,-51.62588543216229 -176.41902723975858,-49.12588543216188 -175.74915425870142,-46.62588543214949 -173.91902723979092,-44.79575841320624 -171.41902723979052,-44.12588543210435" stroke="#00f" stroke-linecap="round" stroke-linejoin="round"/><polyline fill="none" points="-159.30856009932373,-94.02111117706913 -156.80856009931134,-94.69098415812628 -154.9784330803681,-96.52111117703679 -154.3085600992662,-99.0211111770372 -154.97843308032336,-101.52111117704959 -156.80856009923386,-103.35123819599285 -159.30856009923426,-104.02111117709474 -161.80856009924665,-103.35123819603758 -163.6386871181899,-101.52111117712708 -164.30856009929178,-99.02111117712667 -163.63868711823463,-96.52111117711428 -161.80856009932413,-94.69098415817102 -159.30856009932373,-94.02111117706913" stroke="#00f" stroke-linecap="round" stroke-linejoin="round"/><polyline fill="none" points="232.37226524546995,-121.01256517334271 234.87226524548234,-121.68243815439986 236.70239226442558,-123.51256517331036 237.37226524552747,-126.01256517331078 236.70239226447032,-128.51256517332317 234.87226524555982,-130.3426921922664 232.37226524555942,-131.0125651733683 229.87226524554703,-130.34269219231115 228.04213822660378,-128.51256517340065 227.3722652455019,-126.01256517340023 228.04213822655905,-123.51256517338784 229.87226524546955,-121.68243815444458 232.37226524546995,-121.0125651733427" stroke="#ffa500" stroke-linecap="round" stroke-linejoin="round"/><polyline fill="none" points="-202.78611930868828,-85.93685828515571 -200.2861193086759,-86.60673126621286 -198.45599228973265,-88.43685828512336 -197.78611930863076,-90.93685828512378 -198.4559922896879,-93.43685828513617 -200.28611930859842,-95.26698530407943 -202.7861193085988,-95.93685828518132 -205.2861193086112,-95.26698530412416 -207.11624632755445,-93.43685828521366 -207.78611930865634,-90.93685828521325 -207.11624632759919,-88.43685828520086 -205.28611930868868,-86.6067312662576 -202.78611930868828,-85.93685828515571" stroke="#00f" stroke-linecap="round" stroke-linejoin="round"/><polyline fill="none" points="65.09581572716026,-0.13538856757253548 67.59581572717266,-0.805261548629685 69.42594274611592,-2.635388567540188 70.09581572721783,-5.1353885675405975 69.42594274616067,-7.635388567552996 67.59581572725017,-9.465515586496256 65.09581572724976,-10.135388567598152 62.59581572723736,-9.465515586541004 60.7656887082941,-7.6353885676305016 60.0958157271922,-5.135388567630092 60.76568870824935,-2.6353885676176922 62.59581572715985,-0.8052615486744306 65.09581572716026,-0.13538856757253204" stroke="#ffa500" stroke-linecap="round" stroke-linejoin="round"/><polyline fill="none" points="248.7553097739849,-121.14139283767824 251.25530977399728,-121.8112658187354 253.08543679294056,-123.6413928376459 253.75530977404244,-126.14139283764631 253.0854367929853,-128.6413928376587 251.2553097740748,-130.471519856602 248.7553097740744,-131.14139283770388 246.255309774062,-130.47151985664672 244.42518275511873,-128.64139283773622 243.75530977401684,-126.14139283773581 244.425182755074,-123.6413928377234 246.2553097739845,-121.81126581878014 248.7553097739849,-121.14139283767824" stroke="#00f" stroke-linecap="round" stroke-linejoin="round"/><polyline fill="none" points="-140.35787498636373,-80.83406426490639 -137.85787498635133,-81.50393724596353 -136.02774796740806,-83.33406426487403 -135.35787498630617,-85.83406426487444 -136.02774796736333,-88.33406426488685 -137.85787498627383,-90.1641912838301 -140.35787498627423,-90.83406426493201 -142.85787498628662,-90.16419128387487 -144.6880020052299,-88.33406426496437 -145.35787498633178,-85.83406426496396 -144.68800200527463,-83.33406426495155 -142.85787498636412,-81.50393724600828 -140.35787498636373,-80.83406426490637" stroke="#00f" stroke-linecap="round" stroke-linejoin="round"/><polyline fill="none" points="-43.20337574491519,-6.801697066831203 -40.703375744902786,-7.471570047888346 -38.87324872595952,-9.301697066798845 -38.20337574485762,-11.801697066799253 -38.873248725914756,-14.301697066811656 -40.70337574482525,-16.13182408575492 -43.203375744825664,-16.801697066856825 -45.70337574483807,-16.131824085799682 -47.533502763781335,-14.301697066889183 -48.20337574488324,-11.801697066888774 -47.5335027638261,-9.30169706687637 -45.703375744915604,-7.471570047933102 -43.20337574491519,-6.801697066831196" stroke="#00f" stroke-linecap="round" stroke-linejoin="round"/><polyline fill="none" points="-112.52408951991792,-68.8686728830049 -110.02408951990552,-69.53854586406204 -108.19396250096224,-71.36867288297255 -107.52408951986034,-73.86867288297296 -108.19396250091748,-76.36867288298536 -110.02408951982798,-78.19879990192864 -112.5240895198284,-78.86867288303054 -115.0240895198408,-78.1987999019734 -116.85421653878407,-76.3686728830629 -117.52408951988598,-73.86867288306249 -116.85421653882884,-71.36867288305008 -115.02408951991833,-69.53854586410681 -112.52408951991792,-68.8686728830049" stroke="#ffa500" stroke-linecap="round" stroke-linejoin="round"/><polyline fill="none" points="-78.82450531713954,23.2794740020739 -76.32450531712713,22.609601021016765 -74.49437829818386,20.77947400210627 -73.82450531708196,18.27947400210586 -74.4943782981391,15.779474002093455 -76.3245053170496,13.949346983150182 -78.82450531705001,13.279474002048271 -81.32450531706242,13.949346983105407 -83.15463233600569,15.779474002015903 -83.82450531710761,18.27947400201631 -83.15463233605047,20.779474002028717 -81.32450531713998,22.60960102097199 -78.82450531713957,23.279474002073904" stroke="#ffa500" stroke-linecap="round" stroke-linejoin="round"/><polyline fill="none" points="-111.46070549385058,-50.24561682966798 -108.96070549383818,-50.91548981072511 -107.1305784748949,-52.74561682963561 -106.46070549379299,-55.24561682963602 -107.13057847485013,-57.74561682964843 -108.96070549376061,-59.5757438485917 -111.46070549376103,-60.24561682969362 -113.96070549377343,-59.575743848636485 -115.7908325127167,-57.74561682972599 -116.46070549381862,-55.24561682972558 -115.79083251276148,-52.74561682971317 -113.960705493851,-50.91548981076989 -111.46070549385058,-50.24561682966797" stroke="#ffa500" stroke-linecap="round" stroke-linejoin="round"/><polyline fill="none" points="-147.21129670434945,-90.63225624405563 -144.71129670433703,-91.30212922511276 -142.88116968539376,-93.13225624402325 -142.21129670429184,-95.63225624402367 -142.88116968534897,-98.13225624403607 -144.71129670425947,-99.96238326297934 -147.21129670425987,-100.63225624408126 -149.71129670427229,-99.96238326302414 -151.54142372321556,-98.13225624411365 -152.21129670431748,-95.63225624411324 -151.54142372326035,-93.13225624410083 -149.71129670434985,-91.30212922515756 -147.21129670434945,-90.63225624405564" stroke="#00f" stroke-linecap="round" stroke-linejoin="round"/><polyline fill="none" points="-145.97645968630053,-51.43518741792977 -143.4764596862881,-52.1050603989869 -141.64633266734484,-53.93518741789739 -140.97645968624292,-56.4351874178978 -141.64633266730004,-58.935187417910214 -143.47645968621055,-60.765314436853494 -145.97645968621094,-61.43518741795541 -148.47645968622336,-60.76531443689829 -150.30658670516664,-58.9351874179878 -150.97645968626856,-56.43518741798739 -150.30658670521143,-53.93518741797498 -148.47645968630093,-52.1050603990317 -145.97645968630053,-51.435187417929775" stroke="#00f" stroke-linecap="round" stroke-linejoin="round"/><polyline fill="none" points="-118.02351265722268,32.38476976543434 -115.52351265721028,31.714896784377213 -113.69338563826699,29.884769765466725 -113.02351265716507,27.384769765466316 -113.6933856382222,24.884769765453903 -115.52351265713268,23.05464274651062 -118.0235126571331,22.3847697654087 -120.5235126571455,23.054642746465824 -122.35363967608879,24.884769765376312 -123.02351265719071,27.38476976537672 -122.35363967613358,29.884769765389134 -120.5235126572231,31.714896784332417 -118.02351265722268,32.38476976543434" stroke="#ffa500" stroke-linecap="round" stroke-linejoin="round"/><polyline fill="none" points="-158.1751150457375,-95.10841306754328 -155.67511504572508,-95.7782860486004 -153.8449880267818,-97.6084130675109 -153.1751150456799,-100.10841306751131 -153.844988026737,-102.60841306752373 -155.6751150456475,-104.43854008646701 -158.17511504564789,-105.10841306756895 -160.6751150456603,-104.43854008651182 -162.50524206460358,-102.60841306760133 -163.1751150457055,-100.10841306760092 -162.50524206464837,-97.6084130675885 -160.6751150457379,-95.77828604864521 -158.1751150457375,-95.10841306754328" stroke="#00f" stroke-linecap="round" stroke-linejoin="round"/><polyline fill="none" points="51.35558449317141,12.046306378472757 53.85558449318383,11.376433397415635 55.685711512127114,9.546306378505149 56.35558449322904,7.046306378504739 55.68571151217191,4.546306378492324 53.855584493261425,2.716179359549036 51.35558449326101,2.046306378447108 48.8555844932486,2.716179359504229 47.02545747430531,4.546306378414716 46.35558449320338,7.046306378415125 47.0254574742605,9.546306378427541 48.85558449317099,11.37643339737083 51.3555844931714,12.04630637847276" stroke="#00f" stroke-linecap="round" stroke-linejoin="round"/><polyline fill="none" points="-29.563525362789896,-26.52063352198183 -27.06352536277748,-27.19050650303895 -25.23339834383419,-29.020633521949435 -24.563525362732257,-31.520633521949843 -25.233398343789375,-34.02063352196226 -27.06352536269986,-35.85076054090555 -29.56352536270027,-36.52063352200748 -32.06352536271268,-35.85076054095036 -33.89365238165597,-34.02063352203987 -34.5635253627579,-31.520633522039464 -33.89365238170078,-29.020633522027047 -32.063525362790294,-27.190506503083757 -29.563525362789886,-26.520633521981825" stroke="#ffa500" stroke-linecap="round" stroke-linejoin="round"/><polyline fill="none" points="-192.34192131487254,-91.38017361314975 -189.84192131486012,-92.05004659420688 -188.01179429591681,-93.88017361311736 -187.34192131481487,-96.38017361311778 -188.011794295872,-98.8801736131302 -189.84192131478247,-100.71030063207348 -192.34192131478287,-101.38017361317542 -194.8419213147953,-100.7103006321183 -196.6720483337386,-98.88017361320782 -197.34192131484053,-96.3801736132074 -196.6720483337834,-93.88017361319498 -194.84192131487293,-92.0500465942517 -192.34192131487254,-91.38017361314976" stroke="#ffa500" stroke-linecap="round" stroke-linejoin="round"/><polyline fill="none" points="33.08602553451363,-16.066173166419578 35.58602553452605,-16.736046147476692 37.416152553469345,-18.566173166387177 38.08602553457128,-21.066173166387586 37.41615255351416,-23.566173166400006 35.58602553460368,-25.3963001853433 33.086025534603266,-26.066173166445235 30.586025534590846,-25.39630018538812 28.75589851564755,-23.566173166477636 28.086025534545616,-21.066173166477228 28.75589851560273,-18.566173166464807 30.58602553451321,-16.736046147521513 33.086025534513624,-16.066173166419574" stroke="#ffa500" stroke-linecap="round" stroke-linejoin="round"/><polyline fill="none" points="-154.19972105557213,-54.81758986198398 -151.6997210555597,-55.487462843041094 -149.8695940366164,-57.317589861951575 -149.19972105551446,-59.81758986195199 -149.86959403657158,-62.31758986196441 -151.69972105548206,-64.14771688090771 -154.19972105548246,-64.81758986200964 -156.69972105549488,-64.14771688095253 -158.52984807443818,-62.31758986204205 -159.19972105554012,-59.817589862041636 -158.529848074483,-57.317589862029216 -156.69972105557252,-55.48746284308592 -154.19972105557213,-54.81758986198398" stroke="#00f" stroke-linecap="round" stroke-linejoin="round"/><polyline fill="none" points="-85.65198491767357,93.43224829663903 -83.15198491766115,92.76237531558192 -81.32185789871785,90.93224829667145 -80.6519849176159,88.43224829667103 -81.32185789867302,85.93224829665861 -83.15198491758349,84.10212127771531 -85.6519849175839,83.43224829661337 -88.15198491759632,84.10212127767048 -89.98211193653962,85.93224829658095 -90.65198491764157,88.43224829658136 -89.98211193658446,90.93224829659378 -88.15198491767399,92.76237531553708 -85.65198491767357,93.43224829663903" stroke="#ffa500" stroke-linecap="round" stroke-linejoin="round"/><polyline fill="none" points="-33.4087469977156,-4.9183891881899395 -30.908746997703183,-5.588262169247049 -29.078619978759882,-7.418389188157528 -28.40874699765794,-9.918389188157938 -29.078619978715047,-12.41838918817036 -30.908746997625528,-14.248516207113662 -33.40874699762594,-14.918389188215606 -35.90874699763836,-14.248516207158499 -37.73887401658166,-12.41838918824802 -38.40874699768361,-9.91838918824761 -37.7388740166265,-7.418389188235187 -35.908746997716015,-5.588262169291885 -33.4087469977156,-4.9183891881899395" stroke="#ffa500" stroke-linecap="round" stroke-linejoin="round"/><polyline fill="none" points="237.75844493374902,-117.58063210174102 240.25844493376144,-118.25050508279813 242.08857195270474,-120.0806321017086 242.7584449338067,-122.58063210170901 242.0885719527496,-125.08063210172143 240.25844493383912,-126.91075912066474 237.75844493383872,-127.58063210176668 235.2584449338263,-126.91075912070957 233.428317914883,-125.0806321017991 232.75844493378105,-122.58063210179868 233.42831791483815,-120.08063210178626 235.25844493374862,-118.25050508284296 237.75844493374902,-117.58063210174102" stroke="#ffa500" stroke-linecap="round" stroke-linejoin="round"/><polyline fill="none" points="-125.755203697145,-64.93890483333601 -123.25520369713259,-65.60877781439312 -121.42507667818928,-67.4389048333036 -120.75520369708734,-69.93890483330401 -121.42507667814445,-72.43890483331643 -123.25520369705492,-74.26903185225973 -125.75520369705534,-74.93890483336168 -128.25520369706777,-74.26903185230456 -130.08533071601107,-72.43890483339409 -130.75520369711302,-69.93890483339368 -130.08533071605592,-67.43890483338126 -128.25520369714545,-65.60877781443796 -125.75520369714503,-64.93890483333601" stroke="#ffa500" stroke-linecap="round" stroke-linejoin="round"/><polyline fill="none" points="-74.9989774327509,33.733161387887506 -72.49897743273849,33.0632884068304 -70.66885041379518,31.233161387919925 -69.99897743269324,28.733161387919516 -70.66885041375033,26.23316138790709 -72.49897743266081,24.40303436896378 -74.99897743266122,23.73316138786183 -77.49897743267364,24.40303436891893 -79.32910445161694,26.233161387829405 -79.99897743271889,28.733161387829814 -79.32910445166179,31.23316138784224 -77.49897743275132,33.063288406785546 -74.9989774327509,33.7331613878875" stroke="#ffa500" stroke-linecap="round" stroke-linejoin="round"/><polyline fill="none" points="-119.1687356440284,-33.046708100970775 -116.66873564401598,-33.71658108202788 -114.83860862507267,-35.54670810093835 -114.16873564397072,-38.046708100938766 -114.83860862502782,-40.54670810095119 -116.66873564393829,-42.3768351198945 -119.1687356439387,-43.046708100996455 -121.66873564395114,-42.37683511993936 -123.49886266289445,-40.546708101028884 -124.16873564399641,-38.04670810102847 -123.49886266293932,-35.546708101016044 -121.66873564402884,-33.716581082072736 -119.16873564402843,-33.04670810097078" stroke="#ffa500" stroke-linecap="round" stroke-linejoin="round"/><polyline fill="none" points="35.463881376130416,-5.410412904434592 37.963881376142844,-6.08028588549169 39.79400839508615,-7.910412904402163 40.463881376188105,-10.410412904402571 39.79400839513101,-12.910412904415 37.963881376220534,-14.740539923358313 35.46388137622012,-15.41041290446027 32.963881376207695,-14.740539923403173 31.133754357264383,-12.9104129044927 30.463881376162426,-10.41041290449229 31.133754357219523,-7.91041290447986 32.96388137613,-6.080285885536546 35.46388137613041,-5.410412904434588" stroke="#ffa500" stroke-linecap="round" stroke-linejoin="round"/><polyline fill="none" points="-0.5967608474765052,-29.646291945388846 1.903239152535925,-30.316164926445943 3.733366171479239,-32.14629194535642 4.4032391525811985,-34.64629194535683 3.7333661715241035,-37.146291945369256 1.9032391526136323,-38.97641896431257 -0.5967608473867771,-39.64629194541453 -3.0967608473992083,-38.976418964357435 -4.926887866342524,-37.14629194544696 -5.596760847444484,-34.64629194544655 -4.92688786638739,-32.146291945434115 -3.0967608474769195,-30.3161649264908 -0.59676084747651,-29.64629194538884" stroke="#00f" stroke-linecap="round" stroke-linejoin="round"/><polyline fill="none" points="-130.91817493878264,26.5062096100215 -128.41817493877022,25.836336628964407 -126.5880479198269,24.006209610053936 -125.91817493872495,21.506209610053528 -126.58804791978204,19.006209610041097 -128.41817493869252,17.17608259109778 -130.9181749386929,16.50620960999582 -133.41817493870533,17.176082591052914 -135.24830195764866,19.006209609963385 -135.91817493875064,21.506209609963793 -135.24830195769354,24.006209609976224 -133.41817493878307,25.836336628919543 -130.91817493878267,26.506209610021507" stroke="#00f" stroke-linecap="round" stroke-linejoin="round"/><polyline fill="none" points="-18.523881875043198,53.19721597234648 -16.023881875030767,52.52734299128939 -14.193754856087448,50.69721597237892 -13.523881874985484,48.19721597237851 -14.193754856042574,45.697215972366074 -16.02388187495304,43.86708895342275 -18.52388187495345,43.197215972320784 -21.023881874965884,43.86708895337787 -22.854008893909203,45.69721597228834 -23.523881875011167,48.19721597228875 -22.854008893954077,50.69721597230119 -21.02388187504361,52.52734299124451 -18.5238818750432,53.19721597234648" stroke="#ffa500" stroke-linecap="round" stroke-linejoin="round"/><polyline fill="none" points="-18.059561606137223,57.6355226368127 -15.559561606124788,56.96564965575561 -13.729434587181467,55.135522636845145 -13.0595616060795,52.63552263684473 -13.729434587136588,50.1355226368323 -15.559561606047055,48.305395617888976 -18.059561606047463,47.63552263678701 -20.559561606059898,48.3053956178441 -22.38968862500322,50.135522636754565 -23.059561606105188,52.63552263675498 -22.3896886250481,55.13552263676741 -20.559561606137635,56.965649655710735 -18.059561606137226,57.6355226368127" stroke="#ffa500" stroke-linecap="round" stroke-linejoin="round"/><polyline fill="none" points="237.93282644682648,-113.67219944151229 240.43282644683893,-114.34207242256937 242.26295346578226,-116.17219944147983 242.93282644688423,-118.67219944148025 242.26295346582714,-121.17219944149268 240.43282644691666,-123.00232646043601 237.93282644691627,-123.67219944153798 235.43282644690382,-123.0023264604809 233.6026994279605,-121.17219944157044 232.9328264468585,-118.67219944157003 233.6026994279156,-116.1721994415576 235.43282644682608,-114.34207242261427 237.93282644682648,-113.67219944151229" stroke="#ffa500" stroke-linecap="round" stroke-linejoin="round"/><polyline fill="none" points="-77.46901007762526,31.40207852888892 -74.96901007761282,30.73220554783184 -73.13888305866949,28.902078528921376 -72.46901007756752,26.402078528920967 -73.1388830586246,23.90207852890853 -74.96901007753506,22.071951509965203 -77.46901007753547,21.40207852886323 -79.9690100775479,22.07195150992031 -81.79913709649124,23.902078528830774 -82.46901007759321,26.402078528831183 -81.79913709653613,28.90207852884362 -79.96901007762567,30.732205547786947 -77.46901007762526,31.40207852888892" stroke="#ffa500" stroke-linecap="round" stroke-linejoin="round"/><polyline fill="none" points="64.52938521766342,15.861746551148318 67.02938521767585,15.191873570091238 68.85951223661918,13.361746551180774 69.52938521772116,10.861746551180364 68.85951223666407,8.361746551167926 67.02938521775361,6.531619532224597 64.5293852177532,5.861746551122621 62.02938521774076,6.531619532179702 60.19925819879743,8.361746551090166 59.529385217695456,10.861746551090576 60.19925819875254,13.361746551103014 62.029385217663,15.191873570046344 64.5293852176634,15.86174655114832" stroke="#ffa500" stroke-linecap="round" stroke-linejoin="round"/><polyline fill="none" points="235.2842575509647,-108.46858519950881 237.78425755097715,-109.13845818056589 239.61438456992047,-110.96858519947635 240.28425755102245,-113.46858519947676 239.61438456996538,-115.9685851994892 237.7842575510549,-117.79871221843253 235.2842575510545,-118.4685851995345 232.78425755104206,-117.79871221847742 230.95413053209873,-115.96858519956696 230.28425755099676,-113.46858519956655 230.95413053205382,-110.96858519955411 232.7842575509643,-109.13845818061078 235.2842575509647,-108.46858519950881" stroke="#ffa500" stroke-linecap="round" stroke-linejoin="round"/><polyline fill="none" points="66.9593876868352,21.051458636499284 69.45938768684763,20.38158565544221 71.28951470579096,18.55145863653175 71.95938768689294,16.05145863653134 71.28951470583586,13.551458636518898 69.4593876869254,11.721331617575565 66.95938768692498,11.051458636473583 64.45938768691255,11.721331617530659 62.62926066796921,13.551458636441119 61.95938768686723,16.051458636441527 62.62926066792431,18.55145863645397 64.45938768683476,20.381585655397302 66.95938768683517,21.051458636499284" stroke="#ffa500" stroke-linecap="round" stroke-linejoin="round"/><polyline fill="none" points="64.80480239244457,-3.489774387656203 67.30480239245702,-4.159647368713277 69.13492941140035,-5.989774387623736 69.80480239250234,-8.489774387624145 69.13492941144527,-10.989774387636588 67.30480239253481,-12.819901406579923 64.8048023925344,-13.489774387681909 62.30480239252196,-12.819901406624835 60.47467537357862,-10.989774387714377 59.80480239247664,-8.489774387713968 60.474675373533714,-5.989774387701525 62.304802392444174,-4.159647368758188 64.80480239244459,-3.4897743876562024" stroke="#ffa500" stroke-linecap="round" stroke-linejoin="round"/><polyline fill="none" points="-154.07785283159183,-83.31397546294377 -151.57785283157938,-83.98384844400084 -149.74772581263605,-85.8139754629113 -149.07785283153407,-88.31397546291171 -149.74772581259114,-90.81397546292416 -151.5778528315016,-92.6441024818675 -154.07785283150199,-93.3139754629695 -156.57785283151443,-92.64410248191243 -158.40797985045776,-90.81397546300197 -159.07785283155974,-88.31397546300155 -158.40797985050267,-85.8139754629891 -156.57785283159222,-83.98384844404576 -154.07785283159183,-83.31397546294377" stroke="#ffa500" stroke-linecap="round" stroke-linejoin="round"/><polyline fill="none" points="60.467695722657496,2.543272134932841 62.967695722669944,1.8733991538757713 64.79782274161329,0.04327213496531446 65.46769572271528,-2.456727865035095 64.79782274165821,-4.95672786504754 62.967695722747756,-6.786854883990881 60.467695722747344,-7.456727865092871 57.967695722734895,-6.786854884035803 56.13756870379155,-4.956727865125346 55.46769572268956,-2.456727865124937 56.13756870374663,0.043272134887509583 57.96769572265708,1.8733991538308512 60.467695722657496,2.543272134932842" stroke="#ffa500" stroke-linecap="round" stroke-linejoin="round"/><polyline fill="none" points="-162.57929400432184,-56.6639236106451 -160.0792940043094,-57.33379659170217 -158.24916698536606,-59.16392361061262 -157.57929400426406,-61.66392361061303 -158.24916698532112,-64.16392361062547 -160.07929400423157,-65.99405062956882 -162.57929400423197,-66.6639236106708 -165.07929400424442,-65.99405062961374 -166.90942102318775,-64.16392361070328 -167.57929400428975,-61.66392361070287 -166.90942102323268,-59.16392361069042 -165.07929400432224,-57.333796591747074 -162.57929400432184,-56.66392361064508" stroke="#008000" stroke-linecap="round" stroke-linejoin="round"/><polyline fill="none" points="-124.47595629552677,33.85168519109729 -121.97595629551432,33.18181221004022 -120.14582927657098,31.351685191129768 -119.47595629546899,28.85168519112936 -120.14582927652606,26.35168519111691 -121.97595629543652,24.521558172173567 -124.47595629543693,23.85168519107157 -126.97595629544938,24.521558172128636 -128.80608331439274,26.35168519103909 -129.47595629549474,28.851685191039497 -128.80608331443767,31.351685191051946 -126.97595629552721,33.18181220999529 -124.4759562955268,33.85168519109729" stroke="#ffa500" stroke-linecap="round" stroke-linejoin="round"/><polyline fill="none" points="-32.060286861793756,5.315004110624136 -29.560286861781307,4.645131129567073 -27.73015984283796,2.81500411065662 -27.060286861735964,0.3150041106562105 -27.730159842793025,-2.1849958893562387 -29.560286861703478,-4.015122908299586 -32.06028686170389,-4.684995889401582 -34.560286861716335,-4.015122908344521 -36.390413880659686,-2.1849958894340693 -37.06028686176168,0.31500411056634015 -36.39041388070462,2.81500411057879 -34.56028686179417,4.645131129522139 -32.060286861793756,5.3150041106241375" stroke="#ffa500" stroke-linecap="round" stroke-linejoin="round"/><polyline fill="none" points="-103.40997143324815,7.426492812034587 -100.9099714332357,6.7566198309775265 -99.07984441429235,4.9264928120670755 -98.40997143319035,2.426492812066666 -99.0798444142474,-0.07350718794578492 -100.90997143315785,-1.9036342068891345 -103.40997143315826,-2.5735071879911344 -105.90997143317071,-1.903634206934075 -107.74009845211405,-0.07350718802362421 -108.40997143321606,2.426492811976785 -107.740098452159,4.926492811989236 -105.90997143324856,6.756619830932587 -103.40997143324815,7.4264928120345886" stroke="#ffa500" stroke-linecap="round" stroke-linejoin="round"/><polyline fill="none" points="-180.08416665954314,-16.156335977617907 -177.5841666595307,-16.826208958674965 -175.75403964058734,-18.656335977585414 -175.08416665948533,-21.156335977585822 -175.7540396405424,-23.656335977598275 -177.58416665945285,-25.486462996541626 -180.08416665945325,-26.15633597764363 -182.5841666594657,-25.48646299658657 -184.41429367840905,-23.65633597767612 -185.08416665951106,-21.156335977675713 -184.414293678454,-18.65633597766326 -182.58416665954354,-16.826208958719906 -180.08416665954314,-16.156335977617903" stroke="#00f" stroke-linecap="round" stroke-linejoin="round"/><polyline fill="none" points="-167.1549966178139,-22.58752655079496 -164.65499661780146,-23.257399531852016 -162.8248695988581,-25.087526550762465 -162.1549966177561,-27.587526550762874 -162.82486959881317,-30.087526550775326 -164.6549966177236,-31.91765356971868 -167.154996617724,-32.587526550820684 -169.65499661773646,-31.91765356976363 -171.48512363667982,-30.08752655085318 -172.15499661778182,-27.587526550852772 -171.48512363672478,-25.087526550840316 -169.65499661781433,-23.25739953189696 -167.15499661781394,-22.587526550794955" stroke="#00f" stroke-linecap="round" stroke-linejoin="round"/><polyline fill="none" points="-150.3544305162155,-14.657259440032714 -147.85443051620305,-15.327132421089768 -146.0243034972597,-17.157259440000214 -145.3544305161577,-19.657259440000622 -146.02430349721473,-22.15725944001308 -147.85443051612518,-23.987386458956436 -150.35443051612557,-24.657259440058443 -152.85443051613802,-23.98738645900139 -154.68455753508138,-22.157259440090943 -155.35443051618338,-19.657259440090534 -154.68455753512634,-17.15725944007808 -152.8544305162159,-15.32713242113472 -150.3544305162155,-14.65725944003271" stroke="#ffa500" stroke-linecap="round" stroke-linejoin="round"/><polyline fill="none" points="-87.7779802504,42.97241600567314 -85.27798025038756,42.302543024616085 -83.4478532314442,40.47241600570564 -82.7779802503422,37.97241600570523 -83.44785323139925,35.47241600569277 -85.2779802503097,33.64228898674941 -87.77798025031011,32.9724160056474 -90.27798025032257,33.64228898670445 -92.10810726926593,35.472416005614896 -92.77798025036795,37.97241600561531 -92.10810726931089,40.472416005627764 -90.27798025040045,42.30254302457112 -87.77798025040003,42.97241600567313" stroke="#ffa500" stroke-linecap="round" stroke-linejoin="round"/><polyline fill="none" points="-31.512797986024147,61.12146337896248 -29.01279798601169,60.451590397905434 -27.18267096706833,58.62146337899499 -26.512797985966316,56.12146337899458 -27.182670967023363,53.62146337898212 -29.01279798593381,51.79133636003876 -31.512797985934217,51.12146337893675 -34.012797985946676,51.7913363599938 -35.842925004890034,53.621463378904245 -36.51279798599205,56.12146337890465 -35.842925004935005,58.621463378917106 -34.01279798602456,60.45159039786047 -31.51279798602415,61.12146337896249" stroke="#ffa500" stroke-linecap="round" stroke-linejoin="round"/><polyline fill="none" points="-95.7442584336808,-30.075832773929477 -93.24425843366834,-30.745705754986524 -91.41413141472498,-32.57583277389697 -90.74425843362296,-35.07583277389738 -91.41413141468,-37.57583277390984 -93.24425843359045,-39.4059597928532 -95.74425843359086,-40.07583277395522 -98.24425843360332,-39.40595979289817 -100.07438545254668,-37.57583277398773 -100.7442584336487,-35.075832773987315 -100.07438545259166,-32.57583277397485 -98.24425843368121,-30.745705755031487 -95.7442584336808,-30.07583277392947" stroke="#00f" stroke-linecap="round" stroke-linejoin="round"/><polyline fill="none" points="-156.09176709689666,-62.03834455382197 -153.5917670968842,-62.70821753487902 -151.76164007794085,-64.53834455378946 -151.09176709683882,-67.03834455378987 -151.76164007789586,-69.53834455380233 -153.5917670968063,-71.3684715727457 -156.0917670968067,-72.03834455384772 -158.59176709681915,-71.36847157279068 -160.4218941157625,-69.53834455388024 -161.09176709686454,-67.03834455387982 -160.4218941158075,-64.53834455386736 -158.59176709689706,-62.708217534923996 -156.09176709689666,-62.03834455382197" stroke="#00f" stroke-linecap="round" stroke-linejoin="round"/><polyline fill="none" points="-89.49529997972867,101.49975037672527 -86.99529997971621,100.82987739566823 -85.16517296077284,98.99975037675779 -84.49529997967082,96.49975037675738 -85.16517296072786,93.99975037674491 -86.9952999796383,92.16962335780154 -89.49529997963872,91.49975037669952 -91.99529997965118,92.16962335775656 -93.82542699859455,93.99975037666701 -94.49529997969657,96.49975037666742 -93.82542699863953,98.99975037667988 -91.99529997972908,100.82987739562326 -89.49529997972867,101.49975037672529" stroke="#ffa500" stroke-linecap="round" stroke-linejoin="round"/><polyline fill="none" points="-144.01330344548174,-16.7540828548731 -141.51330344546926,-17.423955835930137 -139.6831764265259,-19.254082854840576 -139.01330344542387,-21.754082854840984 -139.6831764264809,-24.254082854853447 -141.51330344539136,-26.08420987379682 -144.01330344539176,-26.754082854898844 -146.51330344540423,-26.084209873841807 -148.34343046434762,-24.25408285493137 -149.01330344544965,-21.75408285493096 -148.3434304643926,-19.254082854918497 -146.51330344548217,-17.423955835975125 -144.01330344548177,-16.754082854873097" stroke="#ffa500" stroke-linecap="round" stroke-linejoin="round"/><polyline fill="none" points="-153.8514944544258,-67.95255468425852 -151.3514944544133,-68.62242766531556 -149.52136743546993,-70.45255468422599 -148.8514944543679,-72.9525546842264 -149.52136743542493,-75.45255468423886 -151.35149445433538,-77.28268170318223 -153.85149445433578,-77.95255468428427 -156.35149445434826,-77.28268170322723 -158.18162147329164,-75.4525546843168 -158.85149445439367,-72.95255468431638 -158.18162147333663,-70.45255468430392 -156.3514944544262,-68.62242766536055 -153.8514944544258,-67.95255468425852" stroke="#f00" stroke-linecap="round" stroke-linejoin="round"/><polyline fill="none" points="-81.45176141630179,-44.83590789795529 -78.95176141628933,-45.50578087901232 -77.12163439734596,-47.33590789792276 -76.45176141624393,-49.83590789792317 -77.12163439730095,-52.33590789793564 -78.95176141621138,-54.16603491687902 -81.4517614162118,-54.83590789798105 -83.95176141622426,-54.16603491692402 -85.78188843516763,-52.33590789801359 -86.45176141626966,-49.835907898013176 -85.78188843521264,-47.335907898000706 -83.9517614163022,-45.505780879057326 -81.45176141630179,-44.835907897955295" stroke="#008000" stroke-linecap="round" stroke-linejoin="round"/><polyline fill="none" points="-127.6031274494127,40.624308364402985 -125.10312744940023,39.95443538334595 -123.27300043045686,38.12430836443552 -122.60312744935483,35.62430836443511 -123.27300043041186,33.12430836442264 -125.10312744932229,31.29418134547926 -127.6031274493227,30.624308364377224 -130.10312744933518,31.294181345434254 -131.93325446827856,33.124308364344685 -132.6031274493806,35.6243083643451 -131.93325446832355,38.12430836435757 -130.1031274494131,39.95443538330095 -127.6031274494127,40.624308364402985" stroke="#ffa500" stroke-linecap="round" stroke-linejoin="round"/><polyline fill="none" points="-130.14097581032829,35.243831861402555 -127.64097581031582,34.57395888034553 -125.81084879137244,32.7438318614351 -125.1409758102704,30.24383186143469 -125.81084879132743,27.74383186142222 -127.64097581023786,25.913704842478836 -130.14097581023827,25.243831861376798 -132.64097581025075,25.913704842433823 -134.47110282919414,27.743831861344255 -135.14097581029617,30.243831861344663 -134.47110282923913,32.74383186135714 -132.64097581032868,34.57395888030052 -130.14097581032829,35.24383186140256" stroke="#ffa500" stroke-linecap="round" stroke-linejoin="round"/><polyline fill="none" points="-93.24680849184531,89.28426309467554 -90.74680849183284,88.61439011361851 -88.91668147288945,86.78426309470808 -88.2468084917874,84.28426309470767 -88.91668147284443,81.78426309469519 -90.74680849175486,79.9541360757518 -93.24680849175527,79.28426309464976 -95.74680849176775,79.95413607570678 -97.57693551071114,81.78426309461722 -98.24680849181318,84.28426309461763 -97.57693551075616,86.7842630946301 -95.74680849184573,88.61439011357349 -93.24680849184531,89.28426309467554" stroke="#00f" stroke-linecap="round" stroke-linejoin="round"/><polyline fill="none" points="-157.1916621388942,9.369915887513518 -154.69166213888172,8.700042906456494 -152.86153511993834,6.869915887546064 -152.1916621388363,4.3699158875456545 -152.86153511989332,1.8699158875331823 -154.69166213880374,0.03978886858979558 -157.19166213880413,-0.6300841125122475 -159.6916621388166,0.03978886854477437 -161.52178915776,1.8699158874552038 -162.19166213886203,4.369915887455614 -161.52178915780502,6.869915887468087 -159.6916621388946,8.700042906411475 -157.1916621388942,9.36991588751352" stroke="#00f" stroke-linecap="round" stroke-linejoin="round"/><polyline fill="none" points="-93.45432774688624,41.504433175143994 -90.95432774687376,40.834560194086976 -89.12420072793037,39.004433175176544 -88.45432774682833,36.50443317517613 -89.12420072788535,34.004433175163655 -90.95432774679578,32.17430615622027 -93.4543277467962,31.504433175118223 -95.95432774680867,32.17430615617524 -97.78445476575206,34.004433175085666 -98.4543277468541,36.50443317508608 -97.78445476579708,39.004433175098555 -95.95432774688665,40.83456019404195 -93.45432774688624,41.504433175143994" stroke="#ffa500" stroke-linecap="round" stroke-linejoin="round"/><polyline fill="none" points="-48.28270260896285,-31.838035592794952 -45.78270260895037,-32.50790857385197 -43.95257559000698,-34.338035592762395 -43.282702608904934,-36.83803559276281 -43.95257558996195,-39.338035592775284 -45.78270260887238,-41.16816261171868 -48.28270260887279,-41.838035592820724 -50.782702608885266,-41.168162611763705 -52.61282962782866,-39.33803559285328 -53.28270260893071,-36.83803559285287 -52.612829627873694,-34.33803559284039 -50.78270260896327,-32.507908573897 -48.28270260896286,-31.83803559279495" stroke="#00f" stroke-linecap="round" stroke-linejoin="round"/><polyline fill="none" points="-140.16154469203738,-55.58834935641075 -137.6615446920249,-56.25822233746777 -135.83141767308152,-58.088349356378195 -135.16154469197946,-60.58834935637861 -135.83141767303647,-63.088349356391085 -137.6615446919469,-64.91847637533448 -140.16154469194728,-65.58834935643652 -142.66154469195976,-64.91847637537951 -144.49167171090315,-63.08834935646909 -145.1615446920052,-60.588349356468676 -144.4916717109482,-58.0883493564562 -142.66154469203778,-56.258222337512805 -140.16154469203738,-55.58834935641075" stroke="#ffa500" stroke-linecap="round" stroke-linejoin="round"/><polyline fill="none" points="-168.68100563912904,3.067372116145391 -166.18100563911656,2.397499135088377 -164.35087862017318,0.5673721161779526 -163.68100563907112,-1.9326278838224569 -164.35087862012813,-4.432627883834935 -166.18100563903855,-6.262754902778332 -168.68100563903894,-6.932627883880387 -171.18100563905142,-6.262754902823374 -173.0111326579948,-4.432627883912951 -173.68100563909687,-1.9326278839125415 -173.01113265803986,0.567372116099937 -171.18100563912944,2.3974991350433346 -168.68100563912904,3.06737211614539" stroke="#ffa500" stroke-linecap="round" stroke-linejoin="round"/><polyline fill="none" points="-168.11448712528323,-73.27067631038078 -165.61448712527076,-73.94054929143779 -163.78436010632737,-75.77067631034821 -163.1144871252253,-78.27067631034862 -163.78436010628232,-80.7706763103611 -165.61448712519274,-82.6008033293045 -168.11448712519314,-83.27067631040656 -170.6144871252056,-82.60080332934955 -172.444614144149,-80.77067631043913 -173.11448712525106,-78.27067631043872 -172.44461414419405,-75.77067631042624 -170.61448712528363,-73.94054929148284 -168.11448712528323,-73.27067631038078" stroke="#ffa500" stroke-linecap="round" stroke-linejoin="round"/><polyline fill="none" points="-163.7339097378831,-73.54744655448025 -161.23390973787062,-74.21731953553726 -159.40378271892723,-76.04744655444767 -158.73390973782517,-78.54744655444809 -159.40378271888218,-81.04744655446056 -161.2339097377926,-82.87757357340396 -163.733909737793,-83.54744655450602 -166.23390973780548,-82.87757357344901 -168.0640367567489,-81.0474465545386 -168.73390973785095,-78.54744655453818 -168.06403675679394,-76.0474465545257 -166.23390973788352,-74.2173195355823 -163.73390973788312,-73.54744655448025" stroke="#00f" stroke-linecap="round" stroke-linejoin="round"/><polyline fill="none" points="-113.08565915954661,39.03564111980928 -110.58565915953413,38.36576813875227 -108.75553214059073,36.535641119841856 -108.08565915948867,34.03564111984144 -108.75553214054568,31.535641119828963 -110.5856591594561,29.70551410088556 -113.08565915945651,29.0356411197835 -115.58565915946899,29.705514100840503 -117.41578617841239,31.535641119750924 -118.08565915951445,34.03564111975133 -117.41578617845744,36.53564111976382 -115.58565915954702,38.365768138707224 -113.08565915954661,39.035641119809284" stroke="#ffa500" stroke-linecap="round" stroke-linejoin="round"/><polyline fill="none" points="-163.39711153344984,-88.4127179117238 -160.89711153343737,-89.08259089278081 -159.06698451449395,-90.91271791169123 -158.3971115333919,-93.41271791169164 -159.0669845144489,-95.91271791170412 -160.89711153335932,-97.74284493064752 -163.39711153335972,-98.41271791174958 -165.8971115333722,-97.74284493069258 -167.7272385523156,-95.91271791178217 -168.39711153341767,-93.41271791178175 -167.72723855236066,-90.91271791176928 -165.89711153345024,-89.08259089282588 -163.39711153344984,-88.41271791172382" stroke="#ffa500" stroke-linecap="round" stroke-linejoin="round"/><polyline fill="none" points="57.57667585142051,20.80115912223178 60.076675851432995,20.13128614117478 61.9068028703764,18.301159122264362 62.57667585147847,15.801159122263954 61.906802870421465,13.30115912225147 60.07667585151105,11.471032103308062 57.576675851510636,10.801159122205995 55.07667585149815,11.471032103262996 53.246548832554744,13.301159122173413 52.57667585145268,15.801159122173821 53.246548832509674,18.301159122186306 55.07667585142009,20.131286141129713 57.576675851420504,20.80115912223178" stroke="#ffa500" stroke-linecap="round" stroke-linejoin="round"/><polyline fill="none" points="-109.45045039089807,16.426981449480344 -106.95045039088558,15.757108468423343 -105.12032337194216,13.926981449512926 -104.45045039084009,11.426981449512517 -105.12032337189709,8.926981449500031 -106.9504503908075,7.096854430556622 -109.45045039080792,6.426981449454552 -111.95045039082041,7.096854430511551 -113.78057740976382,8.926981449421968 -114.4504503908659,11.426981449422378 -113.7805774098089,13.926981449434864 -111.95045039089848,15.757108468378275 -109.45045039089807,16.426981449480348" stroke="#00f" stroke-linecap="round" stroke-linejoin="round"/><polyline fill="none" points="-146.02433476508864,-38.08812678814899 -143.52433476507616,-38.75799976920599 -141.69420774613275,-40.588126788116405 -141.0243347650307,-43.08812678811682 -141.69420774608767,-45.5881267881293 -143.5243347649981,-47.418253807072716 -146.02433476499849,-48.08812678817479 -148.52433476501096,-47.41825380711779 -150.35446178395438,-45.588126788207376 -151.02433476505644,-43.088126788206964 -150.35446178399945,-40.58812678819447 -148.52433476508904,-38.75799976925106 -146.02433476508864,-38.08812678814898" stroke="#00f" stroke-linecap="round" stroke-linejoin="round"/><polyline fill="none" points="-158.05233209336942,-60.4915082499317 -155.55233209335694,-61.161381230988695 -153.72220507441352,-62.99150824989911 -153.05233209331146,-65.49150824989952 -153.72220507436845,-67.99150824991202 -155.55233209327886,-69.82163526885543 -158.05233209327926,-70.4915082499575 -160.55233209329174,-69.82163526890051 -162.38245911223515,-67.99150824999009 -163.05233209333724,-65.49150824998968 -162.38245911228026,-62.99150824997719 -160.55233209336984,-61.16138123103377 -158.05233209336944,-60.4915082499317" stroke="#00f" stroke-linecap="round" stroke-linejoin="round"/><polyline fill="none" points="-92.83635962708826,102.2517703964597 -90.33635962707577,101.58189741540271 -88.50623260813235,99.75177039649229 -87.83635962703028,97.25177039649188 -88.50623260808727,94.75177039647939 -90.33635962699769,92.92164337753597 -92.8363596269981,92.2517703964339 -95.3363596270106,92.9216433774909 -97.16648664595401,94.75177039640131 -97.83635962705608,97.25177039640172 -97.16648664599909,99.75177039641422 -95.33635962708867,101.58189741535763 -92.83635962708826,102.2517703964597" stroke="#ffa500" stroke-linecap="round" stroke-linejoin="round"/><polyline fill="none" points="-190.0727805851422,-75.08665509343376 -187.57278058512972,-75.75652807449076 -185.7426535661863,-77.58665509340118 -185.07278058508422,-80.08665509340159 -185.7426535661412,-82.58665509341408 -187.57278058505162,-84.4167821123575 -190.07278058505202,-85.08665509345957 -192.5727805850645,-84.41678211240257 -194.4029076040079,-82.58665509349215 -195.07278058511,-80.08665509349174 -194.402907604053,-77.58665509347925 -192.5727805851426,-75.75652807453584 -190.0727805851422,-75.08665509343376" stroke="#ffa500" stroke-linecap="round" stroke-linejoin="round"/><polyline fill="none" points="-47.46144114405297,61.57557706478476 -44.96144114404048,60.90570408372777 -43.131314125097056,59.07557706481736 -42.461441143994975,56.57557706481695 -43.131314125051965,54.075577064804456 -44.961441143962375,52.245450045861034 -47.46144114396279,51.57557706475895 -49.96144114397528,52.24545004581594 -51.7915681629187,54.07557706472635 -52.46144114402078,56.575577064726765 -51.79156816296379,59.07557706473926 -49.96144114405338,60.90570408368268 -47.46144114405297,61.57557706478476" stroke="#ffa500" stroke-linecap="round" stroke-linejoin="round"/><polyline fill="none" points="-96.36206412000345,100.3051808796506 -93.86206411999096,99.63530789859362 -92.03193710104753,97.80518087968322 -91.36206411994544,95.30518087968281 -92.03193710100243,92.80518087967032 -93.86206411991283,90.97505386072689 -96.36206411991324,90.3051808796248 -98.86206411992573,90.97505386068178 -100.69219113886916,92.80518087959219 -101.36206411997125,95.3051808795926 -100.69219113891427,97.80518087960509 -98.86206412000386,99.63530789854852 -96.36206412000345,100.3051808796506" stroke="#ffa500" stroke-linecap="round" stroke-linejoin="round"/><polyline fill="none" points="-100.75558071022421,-23.967519672544846 -98.25558071021172,-24.637392653601832 -96.42545369126829,-26.46751967251224 -95.7555807101662,-28.967519672512648 -96.42545369122318,-31.467519672525142 -98.25558071013359,-33.297646691468564 -100.755580710134,-33.96751967257065 -103.25558071014649,-33.29764669151367 -105.08570772908992,-31.467519672603263 -105.755580710192,-28.967519672602855 -105.08570772913502,-26.46751967259036 -103.25558071022462,-24.637392653646934 -100.75558071022421,-23.967519672544846" stroke="#00f" stroke-linecap="round" stroke-linejoin="round"/><polyline fill="none" points="-187.13446524228624,-87.72834582307576 -184.63446524227373,-88.39821880413274 -182.80433822333032,-90.22834582304314 -182.13446524222823,-92.72834582304355 -182.8043382232852,-95.22834582305605 -184.63446524219563,-97.05847284199947 -187.13446524219603,-97.72834582310156 -189.63446524220853,-97.05847284204458 -191.46459226115195,-95.22834582313418 -192.13446524225404,-92.72834582313376 -191.46459226119705,-90.22834582312127 -189.63446524228664,-88.39821880417784 -187.13446524228624,-87.72834582307576" stroke="#00f" stroke-linecap="round" stroke-linejoin="round"/><polyline fill="none" points="-141.25480081679262,-85.60363117358273 -138.75480081678012,-86.27350415463971 -136.92467379783668,-88.10363117355011 -136.2548008167346,-90.60363117355053 -136.92467379779157,-93.10363117356302 -138.754800816702,-94.93375819250645 -141.25480081670239,-95.60363117360853 -143.7548008167149,-94.93375819255155 -145.58492783565833,-93.10363117364115 -146.25480081676042,-90.60363117364074 -145.58492783570344,-88.10363117362824 -143.75480081679302,-86.27350415468482 -141.25480081679262,-85.60363117358273" stroke="#ffa500" stroke-linecap="round" stroke-linejoin="round"/><polyline fill="none" points="-118.80591630160166,34.84276705524745 -116.30591630158915,34.172894074190474 -114.47578928264572,32.34276705528007 -113.80591630154362,29.842767055279662 -114.4757892826006,27.342767055267164 -116.305916301511,25.51264003632373 -118.80591630151142,24.842767055221636 -121.30591630152392,25.51264003627861 -123.13604332046735,27.342767055189015 -123.80591630156945,29.842767055189423 -123.13604332051247,32.342767055201925 -121.30591630160207,34.17289407414536 -118.80591630160166,34.84276705524746" stroke="#ffa500" stroke-linecap="round" stroke-linejoin="round"/><polyline fill="none" points="-96.86148243842628,94.4648362336475 -94.36148243841377,93.79496325259053 -92.53135541947034,91.96483623368013 -91.86148243836824,89.46483623367972 -92.53135541942521,86.96483623366721 -94.36148243833561,85.13470921472378 -96.86148243833603,84.46483623362168 -99.36148243834853,85.13470921467865 -101.19160945729197,86.96483623358905 -101.86148243839408,89.46483623358947 -101.19160945733711,91.96483623360197 -99.3614824384267,93.79496325254541 -96.8614824384263,94.46483623364752" stroke="#ffa500" stroke-linecap="round" stroke-linejoin="round"/><polyline fill="none" points="-127.63381491564864,23.52299152809652 -125.13381491563614,22.853118547039546 -123.3036878966927,21.022991528129147 -122.63381491559059,18.52299152812874 -123.30368789664756,16.022991528116236 -125.13381491555796,14.192864509172798 -127.63381491555837,13.522991528070696 -130.13381491557087,14.192864509127666 -131.9639419345143,16.022991528038066 -132.6338149156164,18.522991528038474 -131.96394193455941,21.022991528050976 -130.13381491564903,22.853118546994416 -127.63381491564861,23.52299152809652" stroke="#00f" stroke-linecap="round" stroke-linejoin="round"/><polyline fill="none" points="-171.23614408207382,-8.734006671392462 -168.73614408206132,-9.403879652449433 -166.90601706311787,-11.234006671359833 -166.23614408201576,-13.734006671360241 -166.90601706307274,-16.234006671372743 -168.73614408198313,-18.064133690316183 -171.23614408198353,-18.73400667141829 -173.73614408199603,-18.06413369036132 -175.56627110093947,-16.23400667145092 -176.2361440820416,-13.734006671450512 -175.56627110098464,-11.234006671438008 -173.73614408207425,-9.403879652494567 -171.23614408207385,-8.73400667139246" stroke="#ffa500" stroke-linecap="round" stroke-linejoin="round"/><polyline fill="none" points="-157.7278093834627,-73.9628595916024 -155.2278093834502,-74.63273257265936 -153.39768236450675,-76.46285959156977 -152.72780938340463,-78.96285959157018 -153.3976823644616,-81.46285959158268 -155.22780938337198,-83.29298661052613 -157.72780938337237,-83.96285959162823 -160.22780938338488,-83.29298661057126 -162.05793640232832,-81.46285959166086 -162.72780938343044,-78.96285959166045 -162.05793640237349,-76.46285959164794 -160.2278093834631,-74.6327325727045 -157.7278093834627,-73.9628595916024" stroke="#00f" stroke-linecap="round" stroke-linejoin="round"/><polyline fill="none" points="-187.4803254432815,-85.45104542012899 -184.98032544326898,-86.12091840118596 -183.15019842432554,-87.95104542009636 -182.48032544322342,-90.45104542009678 -183.15019842428038,-92.95104542010928 -184.98032544319076,-94.78117243905272 -187.48032544319116,-95.45104542015484 -189.98032544320367,-94.78117243909787 -191.8104524621471,-92.95104542018748 -192.48032544324923,-90.45104542018707 -191.81045246219227,-87.95104542017457 -189.98032544328188,-86.12091840123112 -187.4803254432815,-85.451045420129" stroke="#ffa500" stroke-linecap="round" stroke-linejoin="round"/><polyline fill="none" points="-165.38958051263705,-67.30858844673806 -162.88958051262455,-67.97846142779503 -161.0594534936811,-69.80858844670541 -160.389580512579,-72.30858844670583 -161.05945349363594,-74.80858844671833 -162.88958051254633,-76.63871546566178 -165.38958051254673,-77.30858844676389 -167.88958051255923,-76.63871546570694 -169.71970753150268,-74.80858844679655 -170.3895805126048,-72.30858844679614 -169.71970753154784,-69.80858844678363 -167.88958051263745,-67.97846142784019 -165.38958051263705,-67.30858844673807" stroke="#008000" stroke-linecap="round" stroke-linejoin="round"/><polyline fill="none" points="-46.61998341082758,55.84138734157965 -44.119983410815074,55.171514360522686 -42.28985639187162,53.34138734161229 -41.61998341076951,50.84138734161188 -42.28985639182647,48.34138734159937 -44.119983410736864,46.51126032265592 -46.61998341073728,45.841387341553805 -49.11998341074978,46.51126032261077 -50.95011042969323,48.34138734152116 -51.61998341079535,50.84138734152157 -50.95011042973839,53.34138734153407 -49.119983410828,55.171514360477524 -46.61998341082759,55.84138734157964" stroke="#ffa500" stroke-linecap="round" stroke-linejoin="round"/><polyline fill="none" points="55.902037939866005,4.652148388076525 58.40203793987852,3.982275407019568 60.23216495882197,2.1521483881091763 60.902037939924085,-0.3478516118912327 60.23216495886713,-2.8478516119037427 58.40203793995674,-4.677978630847195 55.90203793995633,-5.347851611949315 53.40203793994382,-4.677978630892358 51.57191092100037,-2.847851611981967 50.90203793989825,-0.34785161198155734 51.571910920955204,2.152148388030953 53.40203793986559,3.9822754069744066 55.902037939866005,4.652148388076527" stroke="#ffa500" stroke-linecap="round" stroke-linejoin="round"/><polyline fill="none" points="-168.60630122432946,-81.87831037042524 -166.10630122431695,-82.5481833514822 -164.2761742053735,-84.37831037039258 -163.6063012242714,-86.878310370393 -164.27617420532835,-89.3783103704055 -166.10630122423873,-91.20843738934896 -168.60630122423913,-91.87831037045108 -171.10630122425164,-91.20843738939412 -172.93642824319508,-89.37831037048373 -173.6063012242972,-86.87831037048332 -172.93642824324024,-84.37831037047081 -171.10630122432985,-82.54818335152736 -168.60630122432946,-81.87831037042524" stroke="#ffa500" stroke-linecap="round" stroke-linejoin="round"/><polyline fill="none" points="-193.6434802885615,-60.67267141982134 -191.143480288549,-61.342544400878296 -189.31335326960556,-63.172671419788685 -188.64348028850344,-65.6726714197891 -189.3133532695604,-68.17267141980162 -191.14348028847078,-70.00279843874507 -193.64348028847118,-70.6726714198472 -196.1434802884837,-70.00279843879025 -197.97360730742713,-68.17267141987986 -198.64348028852925,-65.67267141987945 -197.9736073074723,-63.17267141986694 -196.1434802885619,-61.34254440092348 -193.6434802885615,-60.672671419821356" stroke="#00f" stroke-linecap="round" stroke-linejoin="round"/><polyline fill="none" points="-154.89785165815104,-96.90713536747606 -152.39785165813853,-97.57700834853301 -150.56772463919506,-99.4071353674434 -149.89785165809295,-101.90713536744381 -150.5677246391499,-104.40713536745633 -152.3978516580603,-106.23726238639979 -154.8978516580607,-106.90713536750192 -157.3978516580732,-106.23726238644497 -159.22797867701667,-104.40713536753458 -159.89785165811878,-101.90713536753417 -159.22797867706183,-99.40713536752165 -157.39785165815144,-97.57700834857819 -154.89785165815104,-96.90713536747606" stroke="#ffa500" stroke-linecap="round" stroke-linejoin="round"/><polyline fill="none" points="-149.72178421338987,-73.36384004914105 -147.22178421337736,-74.033713030198 -145.3916571944339,-75.86384004910839 -144.72178421333177,-78.3638400491088 -145.39165719438873,-80.86384004912132 -147.22178421329912,-82.69396706806478 -149.72178421329951,-83.36384004916691 -152.22178421331202,-82.69396706810997 -154.0519112322555,-80.86384004919958 -154.7217842133576,-78.36384004919917 -154.05191123230065,-75.86384004918665 -152.22178421339026,-74.03371303024319 -149.72178421338987,-73.36384004914106" stroke="#008000" stroke-linecap="round" stroke-linejoin="round"/><polyline fill="none" points="-113.41482039333985,27.04933409889734 -110.91482039332733,26.379461117840396 -109.08469337438387,24.54933409893001 -108.41482039328174,22.049334098929602 -109.08469337433868,19.549334098917086 -110.91482039324907,17.71920707997362 -113.41482039324949,17.04933409887149 -115.914820393262,17.719207079928434 -117.74494741220548,19.54933409883882 -118.41482039330761,22.04933409883923 -117.74494741225067,24.549334098851745 -115.91482039334028,26.37946111779521 -113.41482039333987,27.049334098897344" stroke="#ffa500" stroke-linecap="round" stroke-linejoin="round"/><polyline fill="none" points="-173.4450698891322,-13.943800311820947 -170.9450698891197,-14.613673292877891 -169.11494287017624,-16.443800311788273 -168.4450698890741,-18.94380031178868 -169.11494287013105,-21.443800311801198 -170.94506988904143,-23.273927330744666 -173.44506988904183,-23.9438003118468 -175.94506988905434,-23.27392733078986 -177.7751969079978,-21.443800311879478 -178.44506988909995,-18.94380031187907 -177.775196908043,-16.44380031186655 -175.9450698891326,-14.613673292923082 -173.4450698891322,-13.943800311820944" stroke="#ffa500" stroke-linecap="round" stroke-linejoin="round"/><polyline fill="none" points="-70.20399368271774,-55.71109917922235 -67.70399368270522,-56.38097216027929 -65.87386666376175,-58.211099179189674 -65.20399368265961,-60.711099179190086 -65.87386666371656,-63.211099179202606 -67.70399368262693,-65.04122619814608 -70.20399368262734,-65.71109917924822 -72.70399368263986,-65.04122619819128 -74.53412070158333,-63.2110991792809 -75.20399368268548,-60.71109917928049 -74.53412070162854,-58.21109917926797 -72.70399368271816,-56.3809721603245 -70.20399368271775,-55.71109917922236" stroke="#ffa500" stroke-linecap="round" stroke-linejoin="round"/><polyline fill="none" points="-201.71989607786497,-84.65838608906753 -199.21989607785244,-85.32825907012447 -197.38976905890897,-87.15838608903485 -196.71989607780682,-89.65838608903526 -197.38976905886375,-92.15838608904778 -199.21989607777414,-93.98851310799125 -201.71989607777454,-94.6583860890934 -204.21989607778707,-93.98851310803646 -206.05002309673054,-92.15838608912608 -206.7198960778327,-89.65838608912567 -206.05002309677576,-87.15838608911315 -204.21989607786537,-85.32825907016968 -201.71989607786497,-84.65838608906753" stroke="#00f" stroke-linecap="round" stroke-linejoin="round"/><polyline fill="none" points="-97.69025560826984,-56.726079111398846 -95.19025560825732,-57.39595209245578 -93.36012858931385,-59.22607911136616 -92.6902556082117,-61.72607911136657 -93.36012858926864,-64.2260791113791 -95.19025560817902,-66.05620613032256 -97.69025560817943,-66.72607911142471 -100.19025560819195,-66.05620613036777 -102.02038262713542,-64.2260791114574 -102.69025560823756,-61.72607911145698 -102.02038262718062,-59.226079111444456 -100.19025560827025,-57.39595209250098 -97.69025560826984,-56.72607911139883" stroke="#00f" stroke-linecap="round" stroke-linejoin="round"/><polyline fill="none" points="-91.53407776156787,-26.997054438184254 -89.03407776155535,-27.666927419241187 -87.20395074261188,-29.497054438151565 -86.53407776150974,-31.997054438151974 -87.20395074256666,-34.4970544381645 -89.03407776147704,-36.327181457107976 -91.53407776147745,-36.99705443821012 -94.03407776148997,-36.32718145715319 -95.86420478043344,-34.49705443824281 -96.53407776153558,-31.997054438242404 -95.86420478047866,-29.49705443822988 -94.03407776156828,-27.666927419286402 -91.53407776156787,-26.997054438184254" stroke="#ffa500" stroke-linecap="round" stroke-linejoin="round"/><polyline fill="none" points="-132.6679023817912,-54.595211470851034 -130.16790238177867,-55.26508445190797 -128.3377753628352,-57.09521147081834 -127.66790238173306,-59.595211470818754 -128.33777536278998,-62.09521147083128 -130.16790238170037,-63.92533848977476 -132.66790238170077,-64.5952114708769 -135.1679023817133,-63.92533848981998 -136.99802940065678,-62.095211470909604 -137.66790238175892,-59.59521147090919 -136.998029400702,-57.095211470896665 -135.1679023817916,-55.265084451953186 -132.6679023817912,-54.595211470851034" stroke="#ffa500" stroke-linecap="round" stroke-linejoin="round"/><polyline fill="none" points="-168.70451069157997,-17.061715144983612 -166.20451069156744,-17.731588126040542 -164.37438367262396,-19.561715144950917 -163.70451069152182,-22.061715144951325 -164.37438367257874,-24.561715144963852 -166.20451069148913,-26.391842163907334 -168.70451069148953,-27.061715145009487 -171.20451069150207,-26.39184216395256 -173.03463771044554,-24.561715145042186 -173.70451069154768,-22.061715145041777 -173.03463771049076,-19.56171514502925 -171.2045106915804,-17.731588126085768 -168.70451069158,-17.061715144983616" stroke="#ffa500" stroke-linecap="round" stroke-linejoin="round"/><polyline fill="none" points="-148.27474109575653,-68.54470527824843 -145.774741095744,-69.21457825930536 -143.94461407680052,-71.04470527821573 -143.27474109569837,-73.54470527821614 -143.9446140767553,-76.04470527822868 -145.77474109566566,-77.87483229717216 -148.27474109566606,-78.54470527827432 -150.7747410956786,-77.8748322972174 -152.60486811462206,-76.04470527830702 -153.2747410957242,-73.54470527830661 -152.60486811466728,-71.04470527829407 -150.77474109575692,-69.21457825935059 -148.27474109575653,-68.54470527824843" stroke="#00f" stroke-linecap="round" stroke-linejoin="round"/><polyline fill="none" points="-50.374701331524825,50.266417723793296 -47.8747013315123,49.59654474273637 -46.04457431256881,47.766417723825995 -45.37470133146665,45.26641772382558 -46.04457431252358,42.766417723813056 -47.874701331433954,40.93629070486957 -50.374701331434366,40.26641772376741 -52.87470133144689,40.93629070482433 -54.70482835039038,42.766417723734705 -55.37470133149254,45.26641772373512 -54.70482835043562,47.76641772374765 -52.874701331525245,49.59654474269114 -50.37470133152483,50.266417723793296" stroke="#00f" stroke-linecap="round" stroke-linejoin="round"/><polyline fill="none" points="-129.11828154890293,25.40229098841572 -126.6182815488904,24.7324180073588 -124.78815452994691,22.902290988448428 -124.11828154884475,20.40229098844802 -124.78815452990168,17.90229098843549 -126.61828154881205,16.072163969492 -129.11828154881246,15.402290988389838 -131.618281548825,16.07216396944676 -133.4484085677685,17.90229098835713 -134.11828154887067,20.40229098835754 -133.44840856781374,22.90229098837007 -131.61828154890338,24.73241800731356 -129.11828154890298,25.40229098841572" stroke="#ffa500" stroke-linecap="round" stroke-linejoin="round"/><polyline fill="none" points="-156.72917799741893,-55.48202541498625 -154.2291779974064,-56.15189839604317 -152.3990509784629,-57.98202541495354 -151.72917799736072,-60.48202541495395 -152.39905097841765,-62.982025414966486 -154.229177997328,-64.81215243390997 -156.7291779973284,-65.48202541501213 -159.22917799734094,-64.81215243395522 -161.05930501628444,-62.98202541504485 -161.7291779973866,-60.48202541504444 -161.0593050163297,-57.982025415031906 -159.22917799741933,-56.15189839608841 -156.72917799741893,-55.482025414986246" stroke="#008000" stroke-linecap="round" stroke-linejoin="round"/><polyline fill="none" points="-194.84823989370028,-75.26863468101445 -192.34823989368775,-75.93850766207136 -190.51811287474425,-77.76863468098173 -189.84823989364207,-80.26863468098215 -190.518112874699,-82.76863468099468 -192.34823989360936,-84.59876169993818 -194.84823989360976,-85.26863468104034 -197.3482398936223,-84.59876169998343 -199.1783669125658,-82.76863468107305 -199.84823989366797,-80.26863468107264 -199.17836691261104,-77.7686346810601 -197.34823989370068,-75.9385076621166 -194.84823989370028,-75.26863468101443" stroke="#ffa500" stroke-linecap="round" stroke-linejoin="round"/><polyline fill="none" points="231.84296546801303,-115.15491330034384 234.34296546802557,-115.82478628140075 236.17309248696907,-117.65491330031111 236.84296546807124,-120.15491330031152 236.17309248701432,-122.65491330032405 234.34296546810396,-124.48504031926755 231.84296546810356,-125.15491330036973 229.34296546809102,-124.48504031931282 227.51283844914752,-122.65491330040246 226.84296546804535,-120.15491330040204 227.51283844910228,-117.65491330038951 229.34296546801264,-115.82478628144601 231.84296546801303,-115.15491330034384" stroke="#ffa500" stroke-linecap="round" stroke-linejoin="round"/></svg>