<?xml version="1.0" ?><!DOCTYPE svg  PUBLIC '-//W3C//DTD SVG 1.1//EN'  'http://www.w3.org/Graphics/SVG/1.1/DTD/svg11.dtd'><svg height="271.000" viewBox="-233.000 -152.000 507.000 271.000" width="507.000" xmlns="http://www.w3.org/2000/svg"><line fill="none" stroke="none" stroke-linecap="round" stroke-width="2.0" x1="0.0" x2="0.0" y1="0.0" y2="0.0"/><polygon fill="none" fill-rule="evenodd" points="0.0,0.0 0.0,0.0 0.0,0.0" stroke-linejoin="round"/><polyline fill="none" points="-175.11356571396146,-51.11008462403399 -172.61356571394862,-51.77995760509038 -170.78343869500458,-53.61008462400045 -170.1135657139018,-56.11008462400087 -170.7834386949582,-58.61008462401372 -172.61356571386827,-60.440211642957756 -175.1135657138687,-61.11008462406054 -177.61356571388154,-60.440211643004154 -179.44369273282558,-58.610084624094085 -180.11356571392835,-56.110084624093666 -179.44369273287197,-53.61008462408081 -177.6135657139619,-51.77995760513678 -175.11356571396146,-51.110084624033995" stroke="#00f" stroke-linecap="round" stroke-linejoin="round"/><polyline fill="none" points="-155.53549067773173,-90.49959560698936 -153.03549067771888,-91.16946858804575 -151.20536365877484,-92.99959560695582 -150.53549067767207,-95.49959560695625 -151.20536365872846,-97.99959560696911 -153.03549067763853,-99.82972262591315 -155.53549067763896,-100.49959560701593 -158.0354906776518,-99.82972262595955 -159.86561769659585,-97.99959560704947 -160.53549067769865,-95.49959560704905 -159.86561769664226,-92.99959560703618 -158.03549067773218,-91.16946858809214 -155.53549067773176,-90.49959560698936" stroke="#008000" stroke-linecap="round" stroke-linejoin="round"/><polyline fill="none" points="-129.96975099385662,-81.66383489202322 -127.46975099384376,-82.3337078730796 -125.63962397489972,-84.16383489198967 -124.96975099379694,-86.66383489199009 -125.63962397485332,-89.16383489200295 -127.4697509937634,-90.993961910947 -129.96975099376382,-91.66383489204978 -132.46975099377667,-90.99396191099339 -134.2998780127207,-89.16383489208333 -134.9697509938235,-86.6638348920829 -134.29987801276712,-84.16383489207004 -132.46975099385705,-82.333707873126 -129.96975099385662,-81.66383489202322" stroke="#ffa500" stroke-linecap="round" stroke-linejoin="round"/><polyline fill="none" points="-150.19628047770485,-75.40263260381059 -147.696280477692,-76.07250558486697 -145.86615345874796,-77.90263260377704 -145.19628047764516,-80.40263260377746 -145.86615345870155,-82.90263260379032 -147.69628047761162,-84.73275962273436 -150.19628047761205,-85.40263260383715 -152.6962804776249,-84.73275962278076 -154.52640749656894,-82.9026326038707 -155.19628047767173,-80.40263260387027 -154.52640749661535,-77.90263260385741 -152.69628047770527,-76.07250558491337 -150.19628047770485,-75.40263260381059" stroke="#008000" stroke-linecap="round" stroke-linejoin="round"/><polyline fill="none" points="-177.1952864768378,-47.23771301045683 -174.69528647682495,-47.90758599151321 -172.8651594578809,-49.73771301042328 -172.1952864767781,-52.2377130104237 -172.8651594578345,-54.73771301043656 -174.69528647674457,-56.5678400293806 -177.195286476745,-57.23771301048339 -179.69528647675784,-56.56784002942701 -181.52541349570188,-54.73771301051694 -182.19528647680468,-52.23771301051652 -181.5254134957483,-49.73771301050366 -179.69528647683822,-47.907585991559614 -177.1952864768378,-47.23771301045682" stroke="#00f" stroke-linecap="round" stroke-linejoin="round"/><polyline fill="none" points="-173.45617788115976,-102.10044563643798 -170.9561778811469,-102.77031861749435 -169.12605086220287,-104.60044563640442 -168.45617788110007,-107.10044563640484 -169.12605086215646,-109.6004456364177 -170.95617788106654,-111.43057265536174 -173.45617788106696,-112.10044563646454 -175.9561778810798,-111.43057265540817 -177.78630490002385,-109.60044563649811 -178.45617788112665,-107.10044563649768 -177.78630490007026,-104.60044563648482 -175.9561778811602,-102.77031861754078 -173.45617788115976,-102.10044563643798" stroke="#00f" stroke-linecap="round" stroke-linejoin="round"/><polyline fill="none" points="230.38146148698576,-128.31510202417064 232.88146148699863,-128.98497500522703 234.71158850594267,-130.8151020241371 235.38146148704547,-133.31510202413753 234.71158850598908,-135.8151020241504 232.881461487079,-137.64522904309445 230.38146148707858,-138.31510202419724 227.8814614870657,-137.64522904314086 226.05133446812167,-135.81510202423078 225.38146148701887,-133.31510202423036 226.05133446807525,-130.81510202421748 227.88146148698533,-128.98497500527344 230.38146148698576,-128.31510202417064" stroke="#ffa500" stroke-linecap="round" stroke-linejoin="round"/><polyline fill="none" points="-216.67719946940213,-88.03610860461852 -214.17719946938925,-88.70598158567489 -212.3470724504452,-90.53610860458495 -211.6771994693424,-93.03610860458538 -212.3470724503988,-95.53610860459824 -214.17719946930885,-97.3662356235423 -216.67719946930927,-98.0361086046451 -219.17719946932215,-97.36623562358872 -221.0073264882662,-95.53610860467866 -221.677199469369,-93.03610860467823 -221.00732648831263,-90.53610860466537 -219.17719946940258,-88.70598158572132 -216.67719946940215,-88.03610860461852" stroke="#00f" stroke-linecap="round" stroke-linejoin="round"/><polyline fill="none" points="70.43803864188236,13.588018519555751 72.93803864189522,12.918145538499381 74.76816566083927,11.08801851958932 75.43803864194207,8.5880185195889 74.7681656608857,6.0880185195760355 72.93803864197564,4.257891500631983 70.43803864197521,3.5880185195291787 67.93803864196235,4.257891500585548 66.1079116230183,6.088018519495607 65.4380386419155,8.588018519496028 66.10791162297187,11.088018519508893 67.93803864188193,12.918145538452947 70.43803864188236,13.588018519555753" stroke="#ffa500" stroke-linecap="round" stroke-linejoin="round"/><polyline fill="none" points="257.2691879221517,-125.7709317173155 259.7691879221645,-126.44080469837188 261.59931494110856,-128.27093171728194 262.26918792221136,-130.77093171728237 261.599314941155,-133.27093171729524 259.76918792224495,-135.1010587362393 257.26918792224456,-135.7709317173421 254.76918792223168,-135.10105873628575 252.9390609032876,-133.2709317173757 252.2691879221848,-130.77093171737528 252.93906090324117,-128.2709317173624 254.76918792215122,-126.44080469841835 257.2691879221516,-125.77093171731553" stroke="#00f" stroke-linecap="round" stroke-linejoin="round"/><polyline fill="none" points="-142.18346860135682,-84.29626587929467 -139.68346860134395,-84.96613886035104 -137.85334158239988,-86.7962658792611 -137.18346860129708,-89.29626587926153 -137.85334158235344,-91.79626587927439 -139.68346860126348,-93.62639289821844 -142.1834686012639,-94.29626587932125 -144.6834686012768,-93.6263928982649 -146.51359562022085,-91.79626587935483 -147.18346860132365,-89.29626587935441 -146.5135956202673,-86.79626587934155 -144.68346860135725,-84.96613886039749 -142.18346860135682,-84.29626587929468" stroke="#00f" stroke-linecap="round" stroke-linejoin="round"/><polyline fill="none" points="-60.0284962714197,-13.486549733582287 -57.52849627140683,-14.15642271463865 -55.69836925246277,-15.986549733548706 -55.028496271359955,-18.48654973354913 -55.69836925241632,-20.986549733561997 -57.528496271326375,-22.816676752506055 -60.028496271326794,-23.486549733608868 -62.52849627133966,-22.816676752552507 -64.35862329028372,-20.986549733642452 -65.02849627138653,-18.48654973364203 -64.35862329033017,-15.986549733629161 -62.52849627142012,-14.1564227146851 -60.0284962714197,-13.486549733582285" stroke="#00f" stroke-linecap="round" stroke-linejoin="round"/><polyline fill="none" points="-119.25836114663606,-71.79106436628742 -116.75836114662319,-72.46093734734377 -114.92823412767912,-74.29106436625383 -114.2583611465763,-76.79106436625426 -114.92823412763266,-79.29106436626714 -116.75836114654271,-81.1211913852112 -119.25836114654314,-81.79106436631402 -121.75836114655601,-81.12119138525766 -123.58848816550008,-79.29106436634761 -124.2583611466029,-76.79106436634719 -123.58848816554654,-74.29106436633431 -121.75836114663649,-72.46093734739024 -119.25836114663606,-71.79106436628743" stroke="#ffa500" stroke-linecap="round" stroke-linejoin="round"/><polyline fill="none" points="-90.39000286882126,16.05573163280847 -87.89000286880838,15.385858651752113 -86.05987584986431,13.55573163284206 -85.3900028687615,11.055731632841637 -86.05987584981786,8.555731632828765 -87.8900028687279,6.7256046138847 -90.39000286872833,6.055731632781881 -92.8900028687412,6.725604613838238 -94.72012988768527,8.55573163274829 -95.39000286878809,11.055731632748714 -94.72012988773173,13.555731632761587 -92.89000286882168,15.385858651705654 -90.39000286882126,16.055731632808474" stroke="#ffa500" stroke-linecap="round" stroke-linejoin="round"/><polyline fill="none" points="-117.20922739256136,-50.745546624577045 -114.70922739254848,-51.4154196056334 -112.87910037360442,-53.24554662454346 -112.20922739250159,-55.74554662454388 -112.87910037355795,-58.24554662455675 -114.709227392468,-60.07567364350082 -117.20922739246842,-60.74554662460364 -119.7092273924813,-60.07567364354729 -121.53935441142536,-58.24554662463724 -122.20922739252819,-55.74554662463682 -121.53935441147183,-53.24554662462395 -119.70922739256179,-51.41541960567988 -117.20922739256136,-50.74554662457706" stroke="#ffa500" stroke-linecap="round" stroke-linejoin="round"/><polyline fill="none" points="-148.93746507265385,-100.49929250839112 -146.43746507264098,-101.16916548944748 -144.6073380536969,-102.99929250835753 -143.93746507259408,-105.49929250835795 -144.60733805365044,-107.99929250837083 -146.43746507256049,-109.8294195273149 -148.9374650725609,-110.49929250841772 -151.4374650725738,-109.82941952736137 -153.26759209151786,-107.99929250845132 -153.93746507262068,-105.49929250845089 -153.26759209156432,-102.99929250843802 -151.43746507265428,-101.16916548949395 -148.93746507265385,-100.49929250839112" stroke="#00f" stroke-linecap="round" stroke-linejoin="round"/><polyline fill="none" points="-144.20328653541753,-50.97002750848629 -141.70328653540466,-51.63990048954264 -139.8731595164606,-53.47002750845269 -139.20328653535776,-55.97002750845311 -139.87315951641412,-58.47002750846598 -141.70328653532417,-60.30015452741006 -144.2032865353246,-60.970027508512885 -146.70328653533747,-60.300154527456534 -148.53341355428154,-58.47002750854649 -149.20328653538436,-55.97002750854607 -148.533413554328,-53.47002750853319 -146.70328653541796,-51.63990048958912 -144.20328653541753,-50.97002750848629" stroke="#00f" stroke-linecap="round" stroke-linejoin="round"/><polyline fill="none" points="-112.21503850200261,29.720501371489394 -109.71503850198974,29.050628390433047 -107.88491148304567,27.220501371523 -107.21503850194284,24.720501371522577 -107.88491148299919,22.220501371509698 -109.71503850190923,20.390374352565622 -112.21503850190966,19.72050137146279 -114.71503850192254,20.39037435251914 -116.54516552086662,22.220501371429187 -117.21503850196945,24.72050137142961 -116.5451655209131,27.220501371442488 -114.71503850200305,29.050628390386564 -112.21503850200263,29.720501371489394" stroke="#ffa500" stroke-linecap="round" stroke-linejoin="round"/><polyline fill="none" points="-165.4489162755057,-107.76054813726608 -162.94891627549282,-108.43042111832243 -161.11878925654875,-110.26054813723248 -160.44891627544592,-112.7605481372329 -161.11878925650228,-115.26054813724578 -162.94891627541233,-117.09067515618986 -165.44891627541276,-117.76054813729269 -167.94891627542563,-117.09067515623634 -169.7790432943697,-115.2605481373263 -170.44891627547253,-112.76054813732587 -169.7790432944162,-110.260548137313 -167.94891627550615,-108.43042111836891 -165.44891627550572,-107.76054813726607" stroke="#00f" stroke-linecap="round" stroke-linejoin="round"/><polyline fill="none" points="47.133593334920725,2.8683070091644995 49.63359333493361,2.198434028108157 51.46372035387769,0.36830700919811243 52.133593334980525,-2.1316929908023097 51.46372035392418,-4.63169299081519 49.63359333501414,-6.46182000975927 47.13359333501372,-7.131692990862106 44.63359333500084,-6.4618200098057645 42.803466316056756,-4.631692990895721 42.13359333495392,-2.1316929908952993 42.803466316010265,0.3683070091175815 44.633593334920306,2.198434028061663 47.133593334920725,2.868307009164501" stroke="#00f" stroke-linecap="round" stroke-linejoin="round"/><polyline fill="none" points="-45.599914581516614,-30.638837467049434 -43.09991458150373,-31.308710448105774 -41.26978756255965,-33.13883746701582 -40.59991458145681,-35.63883746701624 -41.269787562513145,-38.13883746702912 -43.099914581423185,-39.9689644859732 -45.599914581423604,-40.638837467076044 -48.09991458143649,-39.96896448601971 -49.93004160038057,-38.13883746710967 -50.59991458148341,-35.63883746710925 -49.930041600427074,-33.138837467096366 -48.099914581517034,-31.308710448152283 -45.599914581516614,-30.63883746704944" stroke="#ffa500" stroke-linecap="round" stroke-linejoin="round"/><polyline fill="none" points="-207.30144042889282,-99.83341208482877 -204.80144042887994,-100.50328506588511 -202.97131340993585,-102.33341208479516 -202.30144042883302,-104.83341208479558 -202.97131340988935,-107.33341208480847 -204.8014404287994,-109.16353910375256 -207.30144042879982,-109.8334120848554 -209.8014404288127,-109.16353910379905 -211.6315674477568,-107.333412084889 -212.30144042885965,-104.83341208488858 -211.63156744780332,-102.33341208487569 -209.80144042889327,-100.5032850659316 -207.30144042889285,-99.83341208482877" stroke="#ffa500" stroke-linecap="round" stroke-linejoin="round"/><polyline fill="none" points="22.2526522401337,-23.81791414951226 24.752652240146585,-24.487787130568595 26.58277925909067,-26.317914149478636 27.252652240193516,-28.81791414947906 26.582779259137183,-31.317914149491944 24.752652240227142,-33.14804116843603 22.25265224022672,-33.81791414953888 19.752652240213834,-33.14804116848254 17.922525221269744,-31.317914149572502 17.2526522401669,-28.81791414957208 17.922525221223232,-26.317914149559194 19.752652240133273,-24.487787130615104 22.252652240133695,-23.81791414951226" stroke="#ffa500" stroke-linecap="round" stroke-linejoin="round"/><polyline fill="none" points="-163.94927947168907,-50.33258449788077 -161.4492794716762,-51.0024574789371 -159.6191524527321,-52.832584497847144 -158.94927947162924,-55.33258449784756 -159.61915245268557,-57.83258449786045 -161.44927947159562,-59.66271151680454 -163.94927947159604,-60.33258449790739 -166.44927947160892,-59.66271151685106 -168.27940649055301,-57.83258449794102 -168.94927947165587,-55.3325844979406 -168.27940649059954,-52.83258449792771 -166.4492794716895,-51.00245747898362 -163.94927947168907,-50.332584497880774" stroke="#00f" stroke-linecap="round" stroke-linejoin="round"/><polyline fill="none" points="-81.68886748629647,86.7977361366359 -79.18886748628358,86.12786315557958 -77.35874046733949,84.29773613666954 -76.68886748623663,81.79773613666912 -77.35874046729296,79.29773613665623 -79.188867486203,77.46760911771213 -81.68886748620342,76.79773613660927 -84.18886748621631,77.4676091176656 -86.0189945051604,79.29773613657564 -86.68886748626326,81.79773613657606 -86.01899450520693,84.29773613658895 -84.1888674862969,86.12786315553305 -81.68886748629647,86.7977361366359" stroke="#ffa500" stroke-linecap="round" stroke-linejoin="round"/><polyline fill="none" points="-44.778194943898164,-14.68627893413137 -42.278194943885275,-15.356151915187697 -40.44806792494118,-17.186278934097732 -39.77819494383832,-19.686278934098155 -40.44806792489465,-22.186278934111044 -42.278194943804685,-24.01640595305514 -44.778194943805104,-24.686278934157993 -47.278194943817994,-24.016405953101668 -49.10832196276209,-22.186278934191634 -49.778194943864946,-19.68627893419121 -49.10832196280862,-17.186278934178322 -47.27819494389858,-15.356151915234225 -44.778194943898164,-14.68627893413137" stroke="#ffa500" stroke-linecap="round" stroke-linejoin="round"/><polyline fill="none" points="241.96466930916768,-130.8002577600706 244.46466930918058,-131.47013074112692 246.29479632812468,-133.30025776003697 246.96466930922753,-135.8002577600374 246.2947963281712,-138.3002577600503 244.46466930926115,-140.1303847789944 241.96466930926073,-140.80025776009725 239.46466930924782,-140.13038477904092 237.63454229030373,-138.30025776013088 236.96466930920087,-135.80025776013045 237.6345422902572,-133.30025776011755 239.46466930916722,-131.47013074117345 241.96466930916765,-130.8002577600706" stroke="#ffa500" stroke-linecap="round" stroke-linejoin="round"/><polyline fill="none" points="-127.08853302690768,-67.5353211890103 -124.5885330268948,-68.20519417006663 -122.7584060079507,-70.03532118897667 -122.08853302684784,-72.5353211889771 -122.75840600790417,-75.03532118898998 -124.5885330268142,-76.86544820793408 -127.08853302681463,-77.53532118903694 -129.58853302682752,-76.86544820798062 -131.41866004577162,-75.03532118907059 -132.08853302687447,-72.53532118907016 -131.41866004581814,-70.03532118905727 -129.58853302690812,-68.20519417011317 -127.0885330269077,-67.53532118901032" stroke="#ffa500" stroke-linecap="round" stroke-linejoin="round"/><polyline fill="none" points="-72.6860143507989,39.46606782804168 -70.18601435078601,38.79619484698536 -68.35588733184191,36.966067828075325 -67.68601435073906,34.466067828074905 -68.35588733179537,31.966067828062013 -70.1860143507054,30.13594080911791 -72.68601435070583,29.466067828015046 -75.18601435071872,30.135940809071364 -77.01614136966282,31.966067827981394 -77.68601435076567,34.46606782798182 -77.01614136970936,36.96606782799471 -75.18601435079933,38.79619484693882 -72.6860143507989,39.46606782804168" stroke="#ffa500" stroke-linecap="round" stroke-linejoin="round"/><polyline fill="none" points="-127.16933644716674,-35.17022274944943 -124.66933644715385,-35.840095730505745 -122.83920942820974,-37.67022274941578 -122.16933644710687,-40.1702227494162 -122.83920942816319,-42.670222749429094 -124.66933644707322,-44.5003497683732 -127.16933644707365,-45.17022274947606 -129.66933644708655,-44.500349768419746 -131.49946346603065,-42.67022274950972 -132.1693364471335,-40.1702227495093 -131.49946346607717,-37.6702227494964 -129.66933644716715,-35.8400957305523 -127.16933644716673,-35.17022274944944" stroke="#ffa500" stroke-linecap="round" stroke-linejoin="round"/><polyline fill="none" points="25.255961757675074,-10.359341240525795 27.75596175768797,-11.029214221582112 29.586088776632078,-12.859341240492142 30.255961757734944,-15.359341240492565 29.58608877667863,-17.85934124050546 27.7559617577686,-19.68946825944957 25.255961757768176,-20.359341240552435 22.75596175775528,-19.68946825949612 20.925834738811172,-17.85934124058609 20.255961757708306,-15.359341240585668 20.92583473876462,-12.859341240572771 22.755961757674648,-11.029214221628663 25.25596175767507,-10.359341240525795" stroke="#ffa500" stroke-linecap="round" stroke-linejoin="round"/><polyline fill="none" points="-26.722912250328477,-35.81584228929248 -24.22291225031558,-36.4857152703488 -22.392785231371473,-38.315842289258825 -21.722912250268603,-40.815842289259244 -22.392785231324915,-43.31584228927214 -24.22291225023494,-45.14596930821625 -26.722912250235364,-45.81584228931912 -29.22291225024826,-45.145969308262806 -31.053039269192368,-43.31584228935278 -31.722912250295238,-40.81584228935236 -31.053039269238926,-38.315842289339464 -29.2229122503289,-36.48571527039535 -26.722912250328477,-35.81584228929248" stroke="#00f" stroke-linecap="round" stroke-linejoin="round"/><polyline fill="none" points="-139.91139360238574,21.990570313193377 -137.41139360237284,21.320697332137065 -135.58126658342874,19.49057031322704 -134.91139360232586,16.990570313226616 -135.58126658338216,14.490570313213718 -137.41139360229218,12.660443294269607 -139.9113936022926,11.990570313166733 -142.4113936023055,12.660443294223043 -144.24152062124963,14.490570313133068 -144.91139360235252,16.99057031313349 -144.24152062129622,19.49057031314639 -142.4113936023862,21.3206973320905 -139.91139360238577,21.990570313193373" stroke="#00f" stroke-linecap="round" stroke-linejoin="round"/><polyline fill="none" points="-26.034329581039657,44.19114408091996 -23.534329581026757,43.521271099863654 -21.704202562082642,41.69114408095363 -21.03432958097977,39.19114408095321 -21.704202562036077,36.69114408094031 -23.5343295809461,34.8610170619962 -26.03432958094652,34.191144080893324 -28.53432958095942,34.86101706194963 -30.364456599903534,36.69114408085966 -31.03432958100641,39.19114408086008 -30.364456599950103,41.691144080872974 -28.53432958104008,43.521271099817085 -26.034329581039657,44.19114408091996" stroke="#ffa500" stroke-linecap="round" stroke-linejoin="round"/><polyline fill="none" points="-23.490939236000283,57.108432037044764 -20.990939235987383,56.438559055988456 -19.16081221704327,54.60843203707844 -18.49093923594039,52.10843203707802 -19.160812216996696,49.608432037065114 -20.99093923590672,47.778305018120996 -23.490939235907142,47.10843203701812 -25.99093923592004,47.77830501807442 -27.82106625486416,49.60843203698444 -28.49093923596704,52.10843203698486 -27.821066254910736,54.60843203699776 -25.990939236000713,56.43855905594188 -23.49093923600029,57.10843203704476" stroke="#ffa500" stroke-linecap="round" stroke-linejoin="round"/><polyline fill="none" points="249.5050172457647,-126.08409898680637 252.0050172457776,-126.75397196786267 253.83514426472172,-128.5840989867727 254.5050172458246,-131.0840989867731 253.8351442647683,-133.58409898678602 252.00501724585828,-135.41422600573014 249.50501724585786,-136.08409898683303 247.00501724584495,-135.41422600577673 245.17489022690083,-133.5840989868667 244.50501724579794,-131.08409898686628 245.17489022685425,-128.58409898685338 247.00501724576426,-126.75397196790925 249.5050172457647,-126.08409898680637" stroke="#ffa500" stroke-linecap="round" stroke-linejoin="round"/><polyline fill="none" points="-87.03289666536391,29.56381584816924 -84.532896665351,28.89394286711294 -82.70276964640688,27.06381584820292 -82.032896665304,24.5638158482025 -82.7027696463603,22.063815848189595 -84.53289666527031,20.233688829245473 -87.03289666527074,19.56381584814259 -89.53289666528364,20.23368882919889 -91.36302368422777,22.06381584810891 -92.03289666533065,24.563815848109332 -91.36302368427435,27.06381584812224 -89.53289666536433,28.89394286706636 -87.03289666536391,29.56381584816925" stroke="#ffa500" stroke-linecap="round" stroke-linejoin="round"/><polyline fill="none" points="44.425013476906734,11.7829257904964 46.92501347691964,11.1130528094401 48.75514049586376,9.282925790530081 49.42501347696665,6.782925790529658 48.75514049591035,4.282925790516753 46.92501347700033,2.4527987715726285 44.42501347699991,1.7829257904697415 41.925013476987004,2.452798771526039 40.09488645804288,4.282925790436058 39.42501347693999,6.7829257904364795 40.09488645799628,9.282925790449386 41.9250134769063,11.113052809393512 44.42501347690673,11.7829257904964" stroke="#ffa500" stroke-linecap="round" stroke-linejoin="round"/><polyline fill="none" points="244.3886814500168,-105.20185993391063 246.8886814500297,-105.87173291496693 248.71880846897383,-107.70185993387695 249.38868145007672,-110.20185993387737 248.71880846902042,-112.70185993389028 246.8886814501104,-114.5319869528344 244.38868145010997,-115.20185993393729 241.88868145009707,-114.53198695288098 240.05855443115294,-112.70185993397097 239.38868145005006,-110.20185993397054 240.05855443110636,-107.70185993395764 241.88868145001638,-105.87173291501351 244.3886814500168,-105.20185993391061" stroke="#ffa500" stroke-linecap="round" stroke-linejoin="round"/><polyline fill="none" points="66.9134933301011,30.183349852542392 69.41349333011401,29.513476871486098 71.24362034905813,27.683349852576082 71.91349333016103,25.18334985257566 71.24362034910475,22.68334985256275 69.41349333019473,20.85322283361862 66.9134933301943,20.18334985251573 64.4134933301814,20.853222833572023 62.58336631123726,22.68334985248204 61.91349333013437,25.18334985248246 62.583366311190666,27.683349852495372 64.41349333010068,29.5134768714395 66.9134933301011,30.183349852542396" stroke="#ffa500" stroke-linecap="round" stroke-linejoin="round"/><polyline fill="none" points="60.066377327515085,-17.987311748702325 62.566377327527995,-18.65718472975862 64.39650434647213,-20.487311748668635 65.06637732757503,-22.987311748669057 64.39650434651874,-25.487311748681968 62.56637732760872,-27.3174387676261 60.06637732760829,-27.987311748728995 57.56637732759538,-27.317438767672705 55.73625030865125,-25.48731174876269 55.06637732754835,-22.987311748762266 55.73625030860464,-20.487311748749356 57.56637732751465,-18.657184729805223 60.06637732751508,-17.987311748702325" stroke="#ffa500" stroke-linecap="round" stroke-linejoin="round"/><polyline fill="none" points="-154.63898820679415,-93.28863245458389 -152.13898820678125,-93.95850543564018 -150.30886118783712,-95.7886324545502 -149.63898820673424,-98.28863245455062 -150.30886118779054,-100.78863245456354 -152.13898820670056,-102.61875947350768 -154.638988206701,-103.28863245461058 -157.1389882067139,-102.61875947355429 -158.96911522565802,-100.78863245464427 -159.63898820676093,-98.28863245464385 -158.96911522570463,-95.78863245463093 -157.1389882067946,-93.95850543568679 -154.63898820679418,-93.28863245458389" stroke="#ffa500" stroke-linecap="round" stroke-linejoin="round"/><polyline fill="none" points="60.917535250352856,-8.639442974440078 63.417535250365766,-9.309315955496364 65.2476622693099,-11.139442974406377 65.9175352504128,-13.6394429744068 65.24766226935651,-16.139442974419712 63.4175352504465,-17.969569993363848 60.91753525044608,-18.63944297446675 58.41753525043317,-17.969569993410463 56.58740823148903,-16.13944297450045 55.91753525038613,-13.639442974500028 56.58740823144242,-11.139442974487114 58.41753525035243,-9.309315955542976 60.91753525035285,-8.639442974440074" stroke="#ffa500" stroke-linecap="round" stroke-linejoin="round"/><polyline fill="none" points="-169.67081829352054,-58.70130136644811 -167.17081829350764,-59.37117434750439 -165.3406912745635,-61.201301366414405 -164.6708182934606,-63.701301366414825 -165.34069127451687,-66.20130136642774 -167.1708182934269,-68.03142838537188 -169.67081829342732,-68.70130136647478 -172.17081829344022,-68.0314283854185 -174.00094531238435,-66.20130136650849 -174.67081829348726,-63.70130136650807 -174.00094531243099,-61.20130136649515 -172.17081829352097,-59.37117434755101 -169.67081829352054,-58.70130136644811" stroke="#008000" stroke-linecap="round" stroke-linejoin="round"/><polyline fill="none" points="-122.78790089685992,11.237065001527593 -120.287900896847,10.567192020471312 -118.45777387790287,8.737065001561303 -117.78790089679995,6.2370650015608815 -118.45777387785624,3.7370650015479665 -120.28790089676625,1.906937982603825 -122.78790089676667,1.2370650015009184 -125.28790089677959,1.906937982557199 -127.11802791572373,3.737065001467208 -127.78790089682664,6.237065001467631 -127.11802791577036,8.737065001480547 -125.28790089686035,10.567192020424688 -122.78790089685992,11.237065001527595" stroke="#ffa500" stroke-linecap="round" stroke-linejoin="round"/><polyline fill="none" points="-43.075045791893395,-1.5098502351050325 -40.57504579188048,-2.179723216161312 -38.74491877293633,-4.009850235071321 -38.075045791833425,-6.5098502350717435 -38.744918772889704,-9.00985023508466 -40.57504579179971,-10.839977254028803 -43.07504579180013,-11.509850235131712 -45.57504579181305,-10.839977254075434 -47.40517281075719,-9.009850235165427 -48.075045791860106,-6.509850235165004 -47.405172810803826,-4.009850235152086 -45.57504579189382,-2.1797232162079414 -43.0750457918934,-1.5098502351050307" stroke="#ffa500" stroke-linecap="round" stroke-linejoin="round"/><polyline fill="none" points="-103.8110872978437,2.4345968873960295 -101.31108729783078,1.7647239063397522 -99.48096027888664,-0.065403112570255 -98.81108729778373,-2.565403112570678 -99.48096027884,-5.0654031125835965 -101.31108729775,-6.895530131527743 -103.81108729775043,-7.565403112630656 -106.31108729776335,-6.895530131574381 -108.1412143167075,-5.065403112664375 -108.81108729781042,-2.5654031126639523 -108.14121431675414,-0.06540311265103327 -106.31108729784414,1.7647239062931142 -103.81108729784371,2.4345968873960278" stroke="#ffa500" stroke-linecap="round" stroke-linejoin="round"/><polyline fill="none" points="-188.80634949172182,-17.821505818598226 -186.3063494917089,-18.491378799654502 -184.47622247276473,-20.321505818564507 -183.80634949166182,-22.82150581856493 -184.4762224727181,-25.32150581857785 -186.3063494916281,-27.151632837522 -188.80634949162854,-27.821505818624917 -191.30634949164147,-27.151632837568645 -193.13647651058562,-25.32150581865864 -193.80634949168854,-22.821505818658217 -193.13647651063226,-20.321505818645296 -191.30634949172224,-18.491378799701145 -188.80634949172182,-17.82150581859823" stroke="#00f" stroke-linecap="round" stroke-linejoin="round"/><polyline fill="none" points="-171.7293681800035,-30.11604550996576 -169.22936817999056,-30.78591849102203 -167.3992411610464,-32.616045509932036 -166.7293681799435,-35.11604550993246 -167.39924116099976,-37.61604550994538 -169.22936817990976,-39.446172528889534 -171.72936817991018,-40.11604550999245 -174.2293681799231,-39.44617252893618 -176.05949519886727,-37.616045510026176 -176.72936817997018,-35.11604551002576 -176.0594951989139,-32.61604551001284 -174.22936818000392,-30.78591849106869 -171.7293681800035,-30.11604550996577" stroke="#00f" stroke-linecap="round" stroke-linejoin="round"/><polyline fill="none" points="-161.54335784213802,-15.587866139744126 -159.0433578421251,-16.257739120800395 -157.21323082318094,-18.087866139710396 -156.54335784207802,-20.58786613971082 -157.2132308231343,-23.08786613972374 -159.0433578420443,-24.917993158667894 -161.5433578420447,-25.587866139770814 -164.04335784205765,-24.917993158714545 -165.8734848610018,-23.087866139804543 -166.5433578421047,-20.58786613980412 -165.87348486104844,-18.0878661397912 -164.04335784213845,-16.257739120847045 -161.54335784213802,-15.587866139744124" stroke="#ffa500" stroke-linecap="round" stroke-linejoin="round"/><polyline fill="none" points="-84.13554101694211,42.447695821666294 -81.6355410169292,41.77782284061003 -79.80541399798504,39.94769582170003 -79.13554101688212,37.44769582169961 -79.80541399793839,34.947695821686686 -81.63554101684839,33.11756880274253 -84.13554101684882,32.44769582163961 -86.63554101686174,33.11756880269588 -88.46566803580589,34.947695821605876 -89.13554101690882,37.447695821606295 -88.46566803585254,39.94769582161922 -86.63554101694254,41.777822840563374 -84.13554101694211,42.4476958216663" stroke="#ffa500" stroke-linecap="round" stroke-linejoin="round"/><polyline fill="none" points="-35.419736222853494,60.20510482592034 -32.91973622284057,59.53523184486407 -31.089609203896412,57.70510482595407 -30.41973622279349,55.205104825953654 -31.089609203849754,52.70510482594073 -32.91973622275975,50.87497780699657 -35.41973622276017,50.20510482589364 -37.919736222773096,50.87497780694991 -39.74986324171726,52.705104825859905 -40.419736222820184,55.205104825860325 -39.74986324176392,57.70510482587325 -37.91973622285392,59.53523184481741 -35.4197362228535,60.20510482592034" stroke="#ffa500" stroke-linecap="round" stroke-linejoin="round"/><polyline fill="none" points="-103.8165228792602,-36.74344465460068 -101.31652287924727,-37.413317635656945 -99.48639586030312,-39.24344465456694 -98.81652287920019,-41.74344465456736 -99.48639586025645,-44.24344465458029 -101.31652287916644,-46.07357167352445 -103.81652287916687,-46.743444654627375 -106.3165228791798,-46.07357167357112 -108.14664989812397,-44.24344465466112 -108.8165228792269,-41.7434446546607 -108.14664989817064,-39.243444654647774 -106.31652287926065,-37.41331763570361 -103.81652287926022,-36.74344465460069" stroke="#00f" stroke-linecap="round" stroke-linejoin="round"/><polyline fill="none" points="-169.60934263868873,-54.11314818326023 -167.1093426386758,-54.78302116431649 -165.27921561973164,-56.613148183226485 -164.6093426386287,-59.11314818322691 -165.27921561968498,-61.61314818323984 -167.10934263859497,-63.443275202184005 -169.6093426385954,-64.11314818328694 -172.10934263860833,-63.44327520223068 -173.93946965755248,-61.61314818332068 -174.60934263865542,-59.11314818332026 -173.93946965759915,-56.61314818330733 -172.10934263868916,-54.78302116436317 -169.60934263868873,-54.113148183260236" stroke="#00f" stroke-linecap="round" stroke-linejoin="round"/><polyline fill="none" points="-77.0645485246465,107.1336237533068 -74.56454852463357,106.46375077225053 -72.7344215056894,104.63362375334054 -72.06454852458647,102.13362375334012 -72.73442150564273,99.63362375332719 -74.56454852455272,97.80349673438302 -77.06454852455315,97.13362375328008 -79.56454852456608,97.80349673433633 -81.39467554351025,99.63362375324633 -82.06454852461319,102.13362375324675 -81.39467554355693,104.63362375325968 -79.56454852464694,106.46375077220385 -77.06454852464651,107.1336237533068" stroke="#ffa500" stroke-linecap="round" stroke-linejoin="round"/><polyline fill="none" points="-147.4639186275871,-23.40864593028902 -144.96391862757417,-24.078518911345274 -143.13379160863002,-25.90864593025527 -142.46391862752708,-28.40864593025569 -143.13379160858332,-30.90864593026862 -144.9639186274933,-32.73877294921279 -147.46391862749374,-33.40864593031572 -149.96391862750667,-32.73877294925947 -151.79404564645083,-30.908645930349476 -152.46391862755377,-28.408645930349053 -151.79404564649752,-25.90864593033612 -149.96391862758753,-24.078518911391953 -147.4639186275871,-23.408645930289016" stroke="#ffa500" stroke-linecap="round" stroke-linejoin="round"/><polyline fill="none" points="-152.3199034120631,-74.38742038007116 -149.81990341205017,-75.05729336112742 -147.98977639310598,-76.88742038003741 -147.31990341200304,-79.38742038003784 -147.9897763930593,-81.88742038005077 -149.81990341196928,-83.71754739899494 -152.3199034119697,-84.38742038009788 -154.81990341198264,-83.71754739904162 -156.65003043092682,-81.88742038013163 -157.31990341202976,-79.3874203801312 -156.65003043097352,-76.88742038011827 -154.81990341206352,-75.0572933611741 -152.3199034120631,-74.38742038007116" stroke="#f00" stroke-linecap="round" stroke-linejoin="round"/><polyline fill="none" points="-90.32062127404483,-48.759412788937404 -87.8206212740319,-49.429285769993655 -85.99049425508773,-51.259412788903646 -85.32062127398478,-53.759412788904065 -85.99049425504103,-56.259412788917 -87.82062127395102,-58.08953980786117 -90.32062127395145,-58.75941278896411 -92.82062127396438,-58.08953980790786 -94.65074829290855,-56.25941278899787 -95.32062127401149,-53.75941278899745 -94.65074829295524,-51.25941278898452 -92.82062127404525,-49.429285770040345 -90.32062127404483,-48.7594127889374" stroke="#008000" stroke-linecap="round" stroke-linejoin="round"/><polyline fill="none" points="-131.81619464015333,45.82136923309231 -129.3161946401404,45.15149625203607 -127.48606762119623,43.32136923312608 -126.81619464009329,40.82136923312566 -127.48606762114953,38.321369233112726 -129.3161946400595,36.49124221416855 -131.81619464005993,35.8213692330656 -134.31619464007287,36.49124221412185 -136.14632165901705,38.32136923303184 -136.81619464012,40.82136923303226 -136.14632165906374,43.32136923304519 -134.31619464015375,45.151496251989364 -131.81619464015333,45.82136923309231" stroke="#ffa500" stroke-linecap="round" stroke-linejoin="round"/><polyline fill="none" points="-141.1794704863015,35.44907661304542 -138.67947048628858,34.779203631989176 -136.8493434673444,32.949076613079185 -136.17947048624146,30.449076613078763 -136.8493434672977,27.949076613065827 -138.6794704862077,26.11894959412165 -141.17947048620812,25.4490766130187 -143.67947048622105,26.118949594074945 -145.50959750516523,27.949076612984932 -146.17947048626817,30.449076612985355 -145.50959750521193,32.94907661299829 -143.67947048630194,34.77920363194247 -141.1794704863015,35.44907661304542" stroke="#ffa500" stroke-linecap="round" stroke-linejoin="round"/><polyline fill="none" points="-93.682505591527,84.79677536919839 -91.18250559151407,84.12690238814214 -89.35237857256989,82.29677536923215 -88.68250559146693,79.79677536923172 -89.35237857252318,77.29677536921879 -91.18250559143317,75.46664835027461 -93.6825055914336,74.79677536917166 -96.18250559144653,75.4666483502279 -98.01263261039071,77.29677536913789 -98.68250559149367,79.79677536913832 -98.01263261043742,82.29677536915125 -96.18250559152743,84.12690238809543 -93.682505591527,84.79677536919839" stroke="#00f" stroke-linecap="round" stroke-linejoin="round"/><polyline fill="none" points="-162.35443066970652,4.988962628958021 -159.85443066969358,4.319089647901779 -158.0243036507494,2.4889626289917928 -157.35443066964646,-0.011037371008630448 -158.0243036507027,-2.51103737102157 -159.8544306696127,-4.341164389965752 -162.35443066961312,-5.011037371068706 -164.85443066962605,-4.341164390012466 -166.68455768857024,-2.5110373711024803 -167.35443066967318,-0.011037371102057048 -166.68455768861693,2.4889626289108833 -164.85443066970694,4.319089647855067 -162.35443066970652,4.9889626289580224" stroke="#00f" stroke-linecap="round" stroke-linejoin="round"/><polyline fill="none" points="-97.89375167076157,42.92921311265462 -95.39375167074863,42.259340131598385 -93.56362465180445,40.4292131126884 -92.89375167070149,37.929213112687975 -93.56362465175773,35.429213112675036 -95.39375167066773,33.599086093730854 -97.89375167066815,32.9292131126279 -100.3937516706811,33.599086093684136 -102.22387868962528,35.42921311259412 -102.89375167072824,37.929213112594546 -102.22387868967199,40.429213112607485 -100.393751670762,42.259340131551674 -97.89375167076157,42.92921311265463" stroke="#ffa500" stroke-linecap="round" stroke-linejoin="round"/><polyline fill="none" points="-59.91449645520808,-36.65749508673697 -57.414496455195135,-37.32736806779321 -55.584369436250945,-39.15749508670319 -54.91449645514798,-41.65749508670362 -55.58436943620422,-44.157495086716565 -57.414496455114204,-45.987622105660755 -59.91449645511463,-46.65749508676372 -62.414496455127576,-45.98762210570748 -64.24462347407176,-44.157495086797496 -64.91449645517471,-41.65749508679707 -64.24462347411848,-39.157495086784124 -62.4144964552085,-37.327368067839934 -59.914496455208074,-36.65749508673697" stroke="#00f" stroke-linecap="round" stroke-linejoin="round"/><polyline fill="none" points="-146.12300757995985,-59.709200119789855 -143.62300757994691,-60.37907310084609 -141.79288056100273,-62.209200119756076 -141.12300757989976,-64.7092001197565 -141.792880560956,-67.20920011976945 -143.623007579866,-69.03932713871365 -146.12300757986642,-69.70920011981661 -148.62300757987936,-69.03932713876038 -150.45313459882354,-67.20920011985041 -151.1230075799265,-64.70920011984998 -150.45313459887026,-62.209200119837035 -148.62300757996027,-60.379073100892846 -146.12300757995985,-59.709200119789884" stroke="#ffa500" stroke-linecap="round" stroke-linejoin="round"/><polyline fill="none" points="-173.29802910054352,8.110662262323938 -170.79802910053056,7.440789281267707 -168.96790208158637,5.6106622623577245 -168.2980291004834,3.1106622623573 -168.96790208153965,0.610662262344353 -170.79802910044964,-1.2194647565998407 -173.29802910045007,-1.8893377377028067 -175.79802910046303,-1.2194647566465764 -177.6281561194072,0.6106622622634046 -178.29802910051018,3.110662262263829 -177.62815611945396,5.610662262276776 -175.79802910054397,7.440789281220971 -173.29802910054354,8.110662262323938" stroke="#ffa500" stroke-linecap="round" stroke-linejoin="round"/><polyline fill="none" points="-182.36507861394128,-75.37089384861244 -179.86507861392832,-76.04076682966867 -178.03495159498414,-77.87089384857865 -177.36507861388117,-80.37089384857907 -178.03495159493738,-82.87089384859202 -179.86507861384737,-84.70102086753622 -182.3650786138478,-85.37089384863918 -184.86507861386076,-84.70102086758295 -186.69520563280497,-82.87089384867298 -187.36507861390794,-80.37089384867255 -186.69520563285172,-77.8708938486596 -184.86507861394173,-76.04076682971541 -182.3650786139413,-75.37089384861244" stroke="#ffa500" stroke-linecap="round" stroke-linejoin="round"/><polyline fill="none" points="-177.6604723960355,-76.44804031901738 -175.16047239602253,-77.11791330007361 -173.33034537707832,-78.94804031898359 -172.66047239597535,-81.44804031898401 -173.33034537703156,-83.94804031899696 -175.16047239594155,-85.77816733794116 -177.66047239594198,-86.44804031904413 -180.16047239595494,-85.7781673379879 -181.99059941489915,-83.94804031907792 -182.66047239600212,-81.44804031907749 -181.9905994149459,-78.94804031906455 -180.1604723960359,-77.11791330012035 -177.6604723960355,-76.44804031901738" stroke="#00f" stroke-linecap="round" stroke-linejoin="round"/><polyline fill="none" points="-113.25112807046447,41.42807990807641 -110.75112807045153,40.75820692702019 -108.92100105150733,38.92807990811021 -108.25112807040436,36.42807990810979 -108.92100105146059,33.928079908096834 -110.75112807037057,32.09795288915263 -113.251128070371,31.428079908049654 -115.75112807038394,32.097952889105876 -117.58125508932814,33.92807990801585 -118.25112807043111,36.42807990801628 -117.58125508937489,38.92807990802923 -115.75112807046492,40.758206926973436 -113.25112807046449,41.42807990807641" stroke="#ffa500" stroke-linecap="round" stroke-linejoin="round"/><polyline fill="none" points="-176.5879526830386,-97.16601949774754 -174.08795268302563,-97.83589247880376 -172.25782566408142,-99.66601949771373 -171.58795268297845,-102.16601949771416 -172.25782566403467,-104.6660194977271 -174.08795268294463,-106.4961465166713 -176.58795268294506,-107.16601949777429 -179.08795268295802,-106.49614651671807 -180.91807970190223,-104.6660194978081 -181.5879526830052,-102.16601949780767 -180.91807970194898,-99.66601949779471 -179.08795268303902,-97.8358924788505 -176.5879526830386,-97.16601949774751" stroke="#ffa500" stroke-linecap="round" stroke-linejoin="round"/><polyline fill="none" points="58.41109393653913,19.125598798144473 60.911093936552085,18.455725817088254 62.74122095549629,16.62559879817828 63.411093936599265,14.125598798177856 62.74122095554305,11.625598798164903 60.91109393663307,9.795471779220698 58.411093936632646,9.125598798117718 55.91109393661969,9.795471779173937 54.08096691767549,11.62559879808391 53.411093936572506,14.125598798084335 54.08096691762872,16.62559879809729 55.9110939365387,18.455725817041497 58.411093936539125,19.125598798144477" stroke="#ffa500" stroke-linecap="round" stroke-linejoin="round"/><polyline fill="none" points="-107.22156024440525,17.610856305304146 -104.7215602443923,16.94098332424793 -102.89143322544808,15.110856305337958 -102.2215602443451,12.610856305337533 -102.89143322540131,10.110856305324578 -104.72156024431129,8.28072928638037 -107.22156024431172,7.610856305277386 -109.72156024432468,8.280729286333601 -111.55168726326889,10.110856305243574 -112.22156024437187,12.610856305243999 -111.55168726331566,15.110856305256956 -109.72156024440568,16.940983324201166 -107.22156024440525,17.61085630530415" stroke="#00f" stroke-linecap="round" stroke-linejoin="round"/><polyline fill="none" points="-152.66504748370048,-38.46892805385434 -150.16504748368752,-39.13880103491056 -148.3349204647433,-40.96892805382053 -147.6650474836403,-43.46892805382095 -148.33492046469652,-45.96892805383391 -150.1650474836065,-47.799055072778124 -152.6650474836069,-48.46892805388111 -155.16504748361987,-47.79905507282489 -156.99517450256408,-45.96892805391492 -157.66504748366708,-43.468928053914496 -156.99517450261087,-40.968928053901536 -155.1650474837009,-39.138801034957325 -152.66504748370048,-38.468928053854334" stroke="#00f" stroke-linecap="round" stroke-linejoin="round"/><polyline fill="none" points="-162.75192088887013,-56.90884904659471 -160.25192088885717,-57.578722027650926 -158.42179386991296,-59.408849046560896 -157.75192088880996,-61.90884904656132 -158.42179386986618,-64.40884904657428 -160.25192088877614,-66.23897606551849 -162.75192088877657,-66.90884904662147 -165.25192088878953,-66.23897606556525 -167.08204790773374,-64.40884904665528 -167.75192088883674,-61.90884904665485 -167.08204790778052,-59.40884904664189 -165.25192088887056,-57.57872202769767 -162.75192088887013,-56.90884904659468" stroke="#00f" stroke-linecap="round" stroke-linejoin="round"/><polyline fill="none" points="-86.22657882672817,105.24061706568118 -83.72657882671521,104.57074408462496 -81.896451807771,102.740617065715 -81.226578826668,100.24061706571457 -81.89645180772422,97.74061706570161 -83.72657882663418,95.9104900467574 -86.22657882663461,95.2406170656544 -88.72657882664757,95.91049004671062 -90.55670584559178,97.74061706562058 -91.22657882669478,100.24061706562101 -90.55670584563858,102.74061706563397 -88.72657882672861,104.57074408457818 -86.22657882672819,105.24061706568118" stroke="#ffa500" stroke-linecap="round" stroke-linejoin="round"/><polyline fill="none" points="-202.05081632868294,-65.0802331913521 -199.55081632866998,-65.7501061724083 -197.72068930972577,-67.58023319131826 -197.05081632862277,-70.08023319131868 -197.720689309679,-72.58023319133164 -199.55081632858895,-74.41036021027587 -202.05081632858938,-75.08023319137887 -204.55081632860234,-74.41036021032266 -206.38094334754655,-72.5802331914127 -207.05081632864955,-70.08023319141228 -206.38094334759333,-67.58023319139932 -204.55081632868337,-65.75010617245509 -202.05081632868294,-65.0802331913521" stroke="#ffa500" stroke-linecap="round" stroke-linejoin="round"/><polyline fill="none" points="-51.36075151356321,69.97493213217432 -48.86075151355024,69.30505915111812 -47.030624494606016,67.47493213220815 -46.36075151350302,64.97493213220773 -47.03062449455922,62.47493213219476 -48.86075151346919,60.644805113250534 -51.360751513469616,59.974932132147536 -53.86075151348258,60.64480511320374 -55.69087853242681,62.47493213211371 -56.360751513529806,64.97493213211413 -55.690878532473604,67.4749321321271 -53.86075151356364,69.30505915107132 -51.360751513563216,69.97493213217432" stroke="#ffa500" stroke-linecap="round" stroke-linejoin="round"/><polyline fill="none" points="-97.09008523323949,106.89334697331705 -94.59008523322653,106.22347399226085 -92.7599582142823,104.39334697335089 -92.09008523317931,101.89334697335046 -92.75995821423551,99.3933469733375 -94.59008523314547,97.56321995439328 -97.0900852331459,96.89334697329028 -99.59008523315886,97.56321995434648 -101.42021225210308,99.39334697325644 -102.09008523320608,101.89334697325687 -101.42021225214988,104.39334697326983 -99.59008523323992,106.22347399221405 -97.09008523323949,106.89334697331705" stroke="#ffa500" stroke-linecap="round" stroke-linejoin="round"/><polyline fill="none" points="-105.4929287164337,-24.73952888446717 -102.99292871642072,-25.40940186552337 -101.1628016974765,-27.239528884433337 -100.4929287163735,-29.739528884433764 -101.1628016974297,-32.239528884446734 -102.99292871633966,-34.06965590339096 -105.49292871634009,-34.739528884493964 -107.99292871635306,-34.06965590343776 -109.82305573529729,-32.2395288845278 -110.4929287164003,-29.739528884527374 -109.8230557353441,-27.239528884514407 -107.99292871643414,-25.409401865570178 -105.49292871643371,-24.739528884467173" stroke="#00f" stroke-linecap="round" stroke-linejoin="round"/><polyline fill="none" points="-196.47748292348479,-95.57305099017127 -193.97748292347183,-96.24292397122747 -192.1473559045276,-98.07305099013743 -191.4774829234246,-100.57305099013786 -192.14735590448078,-103.07305099015083 -193.97748292339074,-104.90317800909506 -196.47748292339116,-105.57305099019807 -198.97748292340412,-104.90317800914187 -200.80760994234836,-103.0730509902319 -201.47748292345136,-100.57305099023148 -200.80760994239517,-98.0730509902185 -198.9774829234852,-96.24292397127428 -196.47748292348479,-95.57305099017127" stroke="#00f" stroke-linecap="round" stroke-linejoin="round"/><polyline fill="none" points="-144.73787717215626,-90.93436152638125 -142.2378771721433,-91.60423450743745 -140.40775015319906,-93.43436152634742 -139.73787717209606,-95.93436152634784 -140.40775015315225,-98.43436152636082 -142.2378771720622,-100.26448854530506 -144.73787717206264,-100.93436152640807 -147.2378771720756,-100.26448854535188 -149.06800419101984,-98.43436152644192 -149.73787717212284,-95.93436152644149 -149.06800419106665,-93.43436152642852 -147.2378771721567,-91.60423450748428 -144.73787717215626,-90.93436152638127" stroke="#ffa500" stroke-linecap="round" stroke-linejoin="round"/><polyline fill="none" points="-125.39350796788722,39.37385472478465 -122.89350796787424,38.703981743728455 -121.06338094893,36.87385472481849 -120.39350796782699,34.37385472481807 -121.06338094888318,31.873854724805096 -122.89350796779314,30.04372770586086 -125.39350796779357,29.373854724757848 -127.89350796780654,30.04372770581404 -129.72363498675077,31.873854724723998 -130.3935079678538,34.373854724724424 -129.7236349867976,36.8738547247374 -127.89350796788764,38.70398174368164 -125.39350796788722,39.37385472478465" stroke="#ffa500" stroke-linecap="round" stroke-linejoin="round"/><polyline fill="none" points="-98.20755337239298,93.82534601533328 -95.70755337238,93.1554730342771 -93.87742635343577,91.32534601536713 -93.20755337233275,88.8253460153667 -93.87742635338894,86.32534601535373 -95.7075533722989,84.49521899640949 -98.20755337229933,83.82534601530648 -100.7075533723123,84.49521899636267 -102.53768039125654,86.32534601527263 -103.20755337235956,88.82534601527306 -102.53768039130337,91.32534601528603 -100.7075533723934,93.15547303423027 -98.20755337239298,93.82534601533328" stroke="#ffa500" stroke-linecap="round" stroke-linejoin="round"/><polyline fill="none" points="-135.0757037851732,14.0774176727416 -132.57570378516024,13.407544691685413 -130.745576766216,11.577417672775455 -130.07570378511298,9.077417672775029 -130.74557676616917,6.5774176727620555 -132.57570378507913,4.747290653817817 -135.07570378507955,4.0774176727148 -137.57570378509251,4.747290653770986 -139.40583080403675,6.577417672680943 -140.07570378513978,9.077417672681369 -139.4058308040836,11.577417672694343 -137.57570378517363,13.407544691638584 -135.0757037851732,14.077417672741603" stroke="#00f" stroke-linecap="round" stroke-linejoin="round"/><polyline fill="none" points="-172.23969018439897,-2.662862778178563 -169.73969018438598,-3.3327357592347484 -167.90956316544174,-5.162862778144705 -167.2396901843387,-7.662862778145131 -167.9095631653949,-10.162862778158107 -169.73969018430486,-11.99298979710235 -172.2396901843053,-12.66286277820537 -174.73969018431828,-11.992989797149185 -176.56981720326252,-10.16286277823923 -177.23969018436554,-7.662862778238803 -176.56981720330936,-5.162862778225826 -174.7396901843994,-3.332735759281582 -172.23969018439897,-2.6628627781785603" stroke="#ffa500" stroke-linecap="round" stroke-linejoin="round"/><polyline fill="none" points="-162.3047848407006,-89.35772840447214 -159.8047848406876,-90.02760138552833 -157.97465782174336,-91.85772840443829 -157.30478484064034,-94.35772840443872 -157.97465782169652,-96.85772840445169 -159.8047848406065,-98.68785542339593 -162.3047848406069,-99.35772840449896 -164.8047848406199,-98.68785542344277 -166.63491185956414,-96.85772840453282 -167.30478484066717,-94.3577284045324 -166.63491185961098,-91.85772840451942 -164.80478484070102,-90.02760138557518 -162.3047848407006,-89.35772840447216" stroke="#00f" stroke-linecap="round" stroke-linejoin="round"/><polyline fill="none" points="-189.2180844284088,-87.4683376040319 -186.7180844283958,-88.13821058508809 -184.88795740945156,-89.96833760399804 -184.21808442834853,-92.46833760399846 -184.88795740940472,-94.96833760401144 -186.71808442831468,-96.79846462295569 -189.2180844283151,-97.46833760405872 -191.7180844283281,-96.79846462300254 -193.54821144727234,-94.9683376040926 -194.21808442837536,-92.46833760409217 -193.54821144731918,-89.9683376040792 -191.7180844284092,-88.13821058513494 -189.2180844284088,-87.46833760403192" stroke="#ffa500" stroke-linecap="round" stroke-linejoin="round"/><polyline fill="none" points="-168.796842117422,-74.16201515712693 -166.296842117409,-74.8318881381831 -164.46671509846476,-76.66201515709305 -163.79684211736173,-79.16201515709348 -164.46671509841792,-81.66201515710645 -166.29684211732788,-83.4921421760507 -168.7968421173283,-84.16201515715373 -171.2968421173413,-83.49214217609756 -173.12696913628554,-81.66201515718761 -173.79684211738856,-79.16201515718718 -173.12696913633238,-76.6620151571742 -171.29684211742241,-74.83188813822994 -168.796842117422,-74.16201515712692" stroke="#008000" stroke-linecap="round" stroke-linejoin="round"/><polyline fill="none" points="-44.631701001442636,62.52895128706295 -42.131701001429654,61.85907830600678 -40.3015739824854,60.02895128709683 -39.63170100138237,57.528951287096405 -40.30157398243854,55.02895128708342 -42.13170100134849,53.19882426813917 -44.631701001348915,52.528951287036136 -47.1317010013619,53.19882426809231 -48.96182802030615,55.02895128700226 -49.63170100140918,57.528951287002684 -48.96182802035301,60.028951287015666 -47.13170100144306,61.85907830595992 -44.631701001442636,62.52895128706295" stroke="#ffa500" stroke-linecap="round" stroke-linejoin="round"/><polyline fill="none" points="56.96643692825466,3.5702780145487374 59.46643692826764,2.9004050334925635 61.296563947211894,1.0702780145826127 61.96643692831493,-1.4297219854178158 61.296563947258754,-3.9297219854308008 59.466436928348806,-5.759849004375057 56.96643692834838,-6.429721985478092 54.46643692833539,-5.75984900442192 52.63630990939114,-3.9297219855119696 51.966436928288104,-1.4297219855115406 52.63630990934428,1.0702780145014454 54.466436928254225,2.9004050334457023 56.96643692825465,3.570278014548739" stroke="#ffa500" stroke-linecap="round" stroke-linejoin="round"/><polyline fill="none" points="-169.85800072027746,-85.6404031226404 -167.35800072026447,-86.31027610369657 -165.5278737013202,-88.14040312260651 -164.85800072021718,-90.64040312260694 -165.52787370127334,-93.14040312261993 -167.3580007201833,-94.97053014156418 -169.85800072018372,-95.64040312266722 -172.3580007201967,-94.97053014161105 -174.18812773914098,-93.1404031227011 -174.858000720244,-90.64040312270068 -174.18812773918785,-88.14040312268769 -172.3580007202779,-86.31027610374343 -169.85800072027746,-85.6404031226404" stroke="#ffa500" stroke-linecap="round" stroke-linejoin="round"/><polyline fill="none" points="-195.70263292330327,-63.596127077088525 -193.20263292329028,-64.2660000581447 -191.372505904346,-66.09612707705465 -190.702632923243,-68.59612707705507 -191.37250590429915,-71.09612707706806 -193.20263292320908,-72.92625409601233 -195.7026329232095,-73.59612707711537 -198.2026329232225,-72.9262540960592 -200.03275994216676,-71.09612707714925 -200.70263292326982,-68.59612707714882 -200.03275994221366,-66.09612707713583 -198.20263292330372,-64.26600005819157 -195.7026329233033,-63.596127077088525" stroke="#00f" stroke-linecap="round" stroke-linejoin="round"/><polyline fill="none" points="-163.30971460283007,-106.80817961421253 -160.80971460281708,-107.47805259526871 -158.9795875838728,-109.30817961417866 -158.30971460276976,-111.80817961417908 -158.97958758382592,-114.30817961419207 -160.80971460273585,-116.13830663313634 -163.30971460273628,-116.80817961423938 -165.80971460274927,-116.13830663318322 -167.63984162169353,-114.30817961427327 -168.3097146027966,-111.80817961427285 -167.63984162174043,-109.30817961425986 -165.8097146028305,-107.47805259531559 -163.30971460283007,-106.80817961421255" stroke="#ffa500" stroke-linecap="round" stroke-linejoin="round"/><polyline fill="none" points="-157.07752566590227,-77.72815705692976 -154.57752566588928,-78.39803003798592 -152.74739864694502,-80.22815705689587 -152.07752566584196,-82.7281570568963 -152.74739864689812,-85.22815705690928 -154.57752566580805,-87.05828407585355 -157.07752566580848,-87.72815705695659 -159.57752566582147,-87.05828407590043 -161.40765268476574,-85.22815705699048 -162.0775256658688,-82.72815705699006 -161.40765268481263,-80.22815705697707 -159.5775256659027,-78.3980300380328 -157.07752566590227,-77.72815705692976" stroke="#008000" stroke-linecap="round" stroke-linejoin="round"/><polyline fill="none" points="-119.1783348811866,26.951444311015106 -116.67833488117361,26.281571329958943 -114.84820786222934,24.451444311049 -114.17833488112629,21.95144431104857 -114.84820786218245,19.451444311035576 -116.6783348810924,17.62131729209131 -119.17833488109282,16.95144431098826 -121.67833488110581,17.621317292044424 -123.50846190005008,19.451444310954365 -124.17833488115313,21.951444310954795 -123.50846190009698,24.451444310967787 -121.67833488118703,26.281571329912055 -119.1783348811866,26.951444311015106" stroke="#ffa500" stroke-linecap="round" stroke-linejoin="round"/><polyline fill="none" points="-185.25488090045837,-10.501316266667299 -182.7548809004454,-11.171189247723458 -180.92475388150112,-13.001316266633399 -180.25488090039806,-15.501316266633827 -180.92475388145422,-18.00131626664682 -182.75488090036416,-19.831443285591092 -185.25488090036458,-20.501316266694143 -187.75488090037757,-19.831443285637985 -189.58500791932184,-18.001316266728043 -190.2548809004249,-15.501316266727615 -189.58500791936873,-13.001316266714621 -187.7548809004588,-11.17118924777035 -185.25488090045837,-10.501316266667295" stroke="#ffa500" stroke-linecap="round" stroke-linejoin="round"/><polyline fill="none" points="-80.38011410142371,-59.35723669057326 -77.88011410141073,-60.02710967162942 -76.04998708246646,-61.85723669053936 -75.3801141013634,-64.35723669053979 -76.04998708241956,-66.85723669055278 -77.8801141013295,-68.68736370949705 -80.38011410132992,-69.3572366906001 -82.88011410134293,-68.68736370954394 -84.7102411202872,-66.85723669063401 -85.38011410139025,-64.35723669063358 -84.71024112033409,-61.85723669062059 -82.88011410142416,-60.027109671676314 -80.38011410142373,-59.35723669057326" stroke="#ffa500" stroke-linecap="round" stroke-linejoin="round"/><polyline fill="none" points="-209.35450676624623,-87.59890765612744 -206.85450676623324,-88.2687806371836 -205.02437974728898,-90.09890765609353 -204.35450676618592,-92.59890765609396 -205.02437974724208,-95.09890765610696 -206.854506766152,-96.92903467505124 -209.35450676615244,-97.5989076561543 -211.85450676616543,-96.92903467509814 -213.6846337851097,-95.0989076561882 -214.35450676621275,-92.59890765618778 -213.6846337851566,-90.09890765617477 -211.85450676624666,-88.26878063723049 -209.35450676624623,-87.59890765612744" stroke="#00f" stroke-linecap="round" stroke-linejoin="round"/><polyline fill="none" points="-107.29247649599155,-61.53908393083883 -104.79247649597855,-62.20895691189498 -102.96234947703427,-64.03908393080492 -102.29247649593121,-66.53908393080535 -102.96234947698736,-69.03908393081835 -104.79247649589729,-70.86921094976263 -107.29247649589772,-71.53908393086569 -109.79247649591072,-70.86921094980954 -111.622603514855,-69.03908393089961 -112.29247649595806,-66.53908393089918 -111.62260351490191,-64.03908393088618 -109.79247649599198,-62.2089569119419 -107.29247649599155,-61.539083930838835" stroke="#00f" stroke-linecap="round" stroke-linejoin="round"/><polyline fill="none" points="-95.43669874523454,-27.48125596756921 -92.93669874522153,-28.151128948625363 -91.10657172627725,-29.9812559675353 -90.43669874517418,-32.48125596753573 -91.10657172623033,-34.981255967548734 -92.93669874514026,-36.811382986493015 -95.43669874514069,-37.48125596759608 -97.93669874515369,-36.811382986539925 -99.76682576409797,-34.98125596762999 -100.43669874520104,-32.48125596762956 -99.7668257641449,-29.981255967616555 -97.93669874523496,-28.151128948672273 -95.43669874523454,-27.481255967569208" stroke="#ffa500" stroke-linecap="round" stroke-linejoin="round"/><polyline fill="none" points="-135.61621033481777,-56.17896692179265 -133.11621033480478,-56.848839902848795 -131.28608331586048,-58.67896692175873 -130.61621033475743,-61.17896692175916 -131.28608331581358,-63.678966921772165 -133.11621033472352,-65.50909394071645 -135.61621033472395,-66.17896692181952 -138.11621033473693,-65.50909394076338 -139.94633735368123,-63.678966921853444 -140.61621033478428,-61.17896692185301 -139.94633735372813,-58.67896692184001 -138.1162103348182,-56.848839902895726 -135.61621033481777,-56.17896692179266" stroke="#ffa500" stroke-linecap="round" stroke-linejoin="round"/><polyline fill="none" points="-173.58697438485112,-18.175419105790393 -171.0869743848381,-18.84529208684654 -169.2568473658938,-20.67541910575648 -168.58697438479075,-23.175419105756912 -169.2568473658469,-25.67541910576992 -171.08697438475684,-27.505546124714204 -173.58697438475727,-28.175419105817273 -176.0869743847703,-27.50554612476113 -177.91710140371458,-25.67541910585119 -178.58697438481767,-23.175419105850757 -177.9171014037615,-20.67541910583775 -176.08697438485157,-18.845292086893462 -173.58697438485115,-18.175419105790393" stroke="#ffa500" stroke-linecap="round" stroke-linejoin="round"/><polyline fill="none" points="-153.07374902650378,-70.22407353101563 -150.57374902649076,-70.89394651207178 -148.74362200754646,-72.72407353098171 -148.07374902644338,-75.22407353098214 -148.7436220074995,-77.72407353099514 -150.57374902640944,-79.55420054993942 -153.07374902640987,-80.22407353104249 -155.5737490264229,-79.55420054998635 -157.40387604536718,-77.72407353107641 -158.07374902647027,-75.22407353107599 -157.40387604541414,-72.72407353106298 -155.5737490265042,-70.89394651211869 -153.07374902650378,-70.22407353101562" stroke="#00f" stroke-linecap="round" stroke-linejoin="round"/><polyline fill="none" points="-55.01982925098458,49.40629111653043 -52.51982925097157,48.73641813547429 -50.68970223202728,46.906291116564354 -50.019829250924204,44.40629111656392 -50.68970223198035,41.90629111655091 -52.51982925089028,40.07616409760662 -55.019829250890716,39.406291116503546 -57.519829250903726,40.07616409755969 -59.349956269848015,41.906291116469625 -60.01982925095109,44.40629111647006 -59.349956269894946,46.90629111648307 -57.51982925098501,48.73641813542736 -55.01982925098458,49.40629111653043" stroke="#00f" stroke-linecap="round" stroke-linejoin="round"/><polyline fill="none" points="-135.31707463043847,23.690657553215985 -132.81707463042545,23.020784572159844 -130.98694761148116,21.19065755324991 -130.31707463037807,18.690657553249476 -130.9869476114342,16.190657553236466 -132.81707463034414,14.360530534292174 -135.31707463034456,13.690657553189098 -137.81707463035758,14.360530534245237 -139.64720164930188,16.19065755315517 -140.31707463040496,18.690657553155603 -139.64720164934883,21.190657553168613 -137.8170746304389,23.02078457211291 -135.31707463043847,23.690657553215985" stroke="#ffa500" stroke-linecap="round" stroke-linejoin="round"/><polyline fill="none" points="-163.905431200688,-58.441210929574055 -161.405431200675,-59.11108391063019 -159.5753041817307,-60.94121092954013 -158.90543120062762,-63.44121092954056 -159.57530418168375,-65.94121092955358 -161.40543120059368,-67.77133794849787 -163.9054312005941,-68.44121092960096 -166.40543120060713,-67.77133794854483 -168.23555821955142,-65.94121092963489 -168.9054312006545,-63.44121092963446 -168.23555821959837,-60.94121092962145 -166.40543120068844,-59.11108391067715 -163.905431200688,-58.44121092957407" stroke="#008000" stroke-linecap="round" stroke-linejoin="round"/><polyline fill="none" points="-201.23181300603784,-77.05142465887148 -198.73181300602482,-77.72129763992761 -196.90168598708053,-79.55142465883755 -196.23181300597744,-82.05142465883797 -196.90168598703357,-84.55142465885099 -198.7318130059435,-86.38155167779529 -201.23181300594393,-87.05142465889837 -203.73181300595695,-86.38155167784224 -205.56194002490125,-84.5514246589323 -206.23181300600433,-82.05142465893188 -205.5619400249482,-79.55142465891886 -203.73181300603827,-77.72129763997457 -201.23181300603784,-77.05142465887148" stroke="#ffa500" stroke-linecap="round" stroke-linejoin="round"/><polyline fill="none" points="238.02502322894586,-117.56625846853336 240.52502322895887,-118.2361314495895 242.35515024790317,-120.06625846849943 243.02502322900625,-122.56625846849985 242.35515024795012,-125.06625846851287 240.5250232290402,-126.89638548745717 238.02502322903976,-127.56625846856025 235.52502322902674,-126.89638548750412 233.69489621008245,-125.06625846859419 233.02502322897936,-122.56625846859376 233.6948962100355,-120.06625846858074 235.52502322894543,-118.23613144963645 238.02502322894586,-117.56625846853336" stroke="#ffa500" stroke-linecap="round" stroke-linejoin="round"/></svg>