<?xml version="1.0" ?><!DOCTYPE svg  PUBLIC '-//W3C//DTD SVG 1.1//EN'  'http://www.w3.org/Graphics/SVG/1.1/DTD/svg11.dtd'><svg height="270.000" viewBox="-234.000 -152.000 511.000 270.000" width="511.000" xmlns="http://www.w3.org/2000/svg"><line fill="none" stroke="none" stroke-linecap="round" stroke-width="2.0" x1="0.0" x2="0.0" y1="0.0" y2="0.0"/><polygon fill="none" fill-rule="evenodd" points="0.0,0.0 0.0,0.0 0.0,0.0" stroke-linejoin="round"/><polyline fill="none" points="-176.82820492662864,-54.70886801112089 -174.32820492661548,-55.378740992176766 -172.49807790767093,-57.20886801108655 -171.82820492656757,-59.708868011086984 -172.49807790762344,-62.208868011100144 -174.32820492653323,-64.0389950300447 -176.82820492653366,-64.70886801114808 -179.32820492654682,-64.03899503009221 -181.15833194549137,-62.20886801118243 -181.82820492659474,-59.708868011182 -181.15833194553886,-57.20886801116884 -179.32820492662907,-55.37874099222428 -176.82820492662864,-54.7088680111209" stroke="#00f" stroke-linecap="round" stroke-linejoin="round"/><polyline fill="none" points="-162.9203785398108,-87.16469747970613 -160.42037853979764,-87.83457046076201 -158.5902515208531,-89.66469747967179 -157.9203785397497,-92.16469747967221 -158.59025152080557,-94.66469747968537 -160.42037853971536,-96.49482449862992 -162.92037853971578,-97.1646974797333 -165.42037853972894,-96.49482449867743 -167.2505055586735,-94.66469747976765 -167.9203785397769,-92.16469747976723 -167.25050555872102,-89.66469747975407 -165.42037853981122,-87.8345704608095 -162.9203785398108,-87.16469747970612" stroke="#008000" stroke-linecap="round" stroke-linejoin="round"/><polyline fill="none" points="-133.75486077203792,-81.41627067643877 -131.25486077202476,-82.08614365749465 -129.4247337530802,-83.91627067640442 -128.7548607719768,-86.41627067640485 -129.42473375303268,-88.91627067641801 -131.25486077194248,-90.74639769536257 -133.7548607719429,-91.41627067646596 -136.25486077195606,-90.74639769541008 -138.0849877909006,-88.9162706765003 -138.754860772004,-86.41627067649988 -138.08498779094813,-83.91627067648672 -136.25486077203834,-82.08614365754215 -133.75486077203792,-81.41627067643877" stroke="#ffa500" stroke-linecap="round" stroke-linejoin="round"/><polyline fill="none" points="-157.17564099682843,-79.64442424710579 -154.67564099681528,-80.31429722816166 -152.84551397787072,-82.14442424707144 -152.17564099676733,-84.64442424707187 -152.8455139778232,-87.14442424708503 -154.67564099673297,-88.9745512660296 -157.1756409967334,-89.64442424713297 -159.67564099674655,-88.9745512660771 -161.5057680156911,-87.14442424716732 -162.1756409967945,-84.6444242471669 -161.50576801573862,-82.14442424715374 -159.67564099682886,-80.31429722820917 -157.17564099682843,-79.64442424710577" stroke="#008000" stroke-linecap="round" stroke-linejoin="round"/><polyline fill="none" points="-181.96428733256255,-49.62737483683624 -179.4642873325494,-50.29724781789211 -177.63416031360484,-52.127374836801884 -176.96428733250144,-54.62737483680232 -177.63416031355732,-57.127374836815484 -179.46428733246708,-58.95750185576005 -181.9642873324675,-59.62737483686344 -184.46428733248067,-58.95750185580757 -186.29441435142525,-57.12737483689779 -186.96428733252864,-54.62737483689736 -186.29441435147277,-52.127374836884194 -184.464287332563,-50.29724781793963 -181.96428733256258,-49.62737483683624" stroke="#00f" stroke-linecap="round" stroke-linejoin="round"/><polyline fill="none" points="-174.96568113596092,-103.82770979734427 -172.46568113594776,-104.49758277840013 -170.63555411700318,-106.32770979730991 -169.96568113589979,-108.82770979731033 -170.63555411695566,-111.32770979732351 -172.46568113586542,-113.15783681626807 -174.96568113586585,-113.82770979737147 -177.465681135879,-113.15783681631561 -179.2958081548236,-111.32770979740583 -179.96568113592699,-108.8277097974054 -179.2958081548711,-106.32770979739223 -177.46568113596135,-104.49758277844766 -174.96568113596092,-103.82770979734427" stroke="#00f" stroke-linecap="round" stroke-linejoin="round"/><polyline fill="none" points="235.02512416071937,-129.03320099507567 237.52512416073253,-129.70307397613155 239.3552511796771,-131.5332009950413 240.0251241607805,-134.03320099504174 239.35525117972463,-136.5332009950549 237.52512416081487,-138.36332801399948 235.02512416081444,-139.03320099510287 232.52512416080128,-138.363328014047 230.6949971418567,-136.53320099513724 230.0251241607533,-134.0332009951368 230.69499714180918,-131.53320099512365 232.52512416071895,-129.70307397617907 235.02512416071937,-129.03320099507567" stroke="#ffa500" stroke-linecap="round" stroke-linejoin="round"/><polyline fill="none" points="-218.19845102181557,-90.13247563830245 -215.6984510218024,-90.80234861935831 -213.86832400285783,-92.63247563826809 -213.19845102175444,-95.13247563826852 -213.86832400281028,-97.63247563828169 -215.69845102172005,-99.46260265722626 -218.19845102172047,-100.13247563832965 -220.69845102173363,-99.46260265727379 -222.5285780406782,-97.63247563836401 -223.1984510217816,-95.13247563836359 -222.52857804072576,-92.63247563835041 -220.698451021816,-90.80234861940583 -218.19845102181557,-90.13247563830244" stroke="#00f" stroke-linecap="round" stroke-linejoin="round"/><polyline fill="none" points="69.90135248715156,13.05273438655885 72.40135248716473,12.382861405502991 74.23147950610931,10.55273438659322 74.9013524872127,8.052734386592787 74.23147950615684,5.5527343865796155 72.40135248724707,3.7226073676350406 69.90135248724664,3.052734386531639 67.40135248723347,3.7226073675874964 65.57122546828889,5.552734386497267 64.90135248718549,8.052734386497699 65.57122546824135,10.55273438651087 67.40135248715112,12.382861405455447 69.90135248715154,13.05273438655885" stroke="#ffa500" stroke-linecap="round" stroke-linejoin="round"/><polyline fill="none" points="259.8598836653534,-127.96111516681083 262.35988366536657,-128.63098814786667 264.1900106843111,-130.46111516677644 264.85988366541454,-132.96111516677686 264.1900106843587,-135.46111516679002 262.35988366544893,-137.2912421857346 259.8598836654485,-137.961115166838 257.3598836654353,-137.29124218578215 255.5297566464907,-135.4611151668724 254.85988366538731,-132.96111516687196 255.52975664644316,-130.46111516685878 257.3598836653529,-128.6309881479142 259.8598836653534,-127.96111516681079" stroke="#00f" stroke-linecap="round" stroke-linejoin="round"/><polyline fill="none" points="-150.4480111335462,-87.0813234256608 -147.94801113353302,-87.75119640671666 -146.11788411458843,-89.58132342562642 -145.44801113348504,-92.08132342562685 -146.11788411454089,-94.58132342564002 -147.94801113345065,-96.4114504445846 -150.44801113345108,-97.08132342568801 -152.94801113346426,-96.41145044463217 -154.77813815240884,-94.5813234257224 -155.44801113351224,-92.08132342572198 -154.7781381524564,-89.5813234257088 -152.94801113354663,-87.75119640676422 -150.4480111335462,-87.08132342566081" stroke="#00f" stroke-linecap="round" stroke-linejoin="round"/><polyline fill="none" points="-68.335124975483,-16.63840477919781 -65.83512497546982,-17.308277760253663 -64.00499795652524,-19.13840477916343 -63.335124975421834,-21.638404779163864 -64.00499795647768,-24.13840477917704 -65.83512497538744,-25.968531798121624 -68.33512497538787,-26.638404779225034 -70.83512497540104,-25.968531798169185 -72.66525199434562,-24.138404779259417 -73.33512497544903,-21.638404779258984 -72.66525199439319,-19.138404779245807 -70.83512497548342,-17.308277760301223 -68.335124975483,-16.638404779197813" stroke="#00f" stroke-linecap="round" stroke-linejoin="round"/><polyline fill="none" points="-124.48458808451359,-73.12984746576875 -121.98458808450042,-73.7997204468246 -120.15446106555584,-75.62984746573436 -119.48458808445243,-78.12984746573478 -120.15446106550827,-80.62984746574796 -121.98458808441804,-82.45997448469254 -124.48458808441846,-83.12984746579595 -126.98458808443164,-82.4599744847401 -128.81471510337622,-80.62984746583034 -129.48458808447964,-78.12984746582991 -128.8147151034238,-75.62984746581674 -126.98458808451403,-73.79972044687216 -124.4845880845136,-73.12984746576875" stroke="#ffa500" stroke-linecap="round" stroke-linejoin="round"/><polyline fill="none" points="-96.18982244655756,16.436913637111623 -93.68982244654438,15.767040656055775 -91.8596954275998,13.93691363714601 -91.1898224464964,11.436913637145576 -91.85969542755224,8.936913637132397 -93.689822446462,7.106786618187811 -96.18982244646243,6.4369136370843965 -98.6898224464756,7.106786618140243 -100.51994946542018,8.936913637050006 -101.18982244652359,11.436913637050438 -100.51994946546775,13.936913637063617 -98.68982244655798,15.767040656008204 -96.18982244655756,16.43691363711162" stroke="#ffa500" stroke-linecap="round" stroke-linejoin="round"/><polyline fill="none" points="-121.47272456414596,-51.65999316879779 -118.97272456413279,-52.329866149853636 -117.1425975451882,-54.1599931687634 -116.47272456408477,-56.65999316876383 -117.14259754514062,-59.159993168777014 -118.97272456405038,-60.9901201877216 -121.47272456405081,-61.65999316882502 -123.97272456406398,-60.99012018776917 -125.80285158300858,-59.15999316885941 -126.472724564112,-56.659993168858975 -125.80285158305615,-54.159993168845794 -123.97272456414639,-52.32986614990121 -121.47272456414596,-51.65999316879779" stroke="#ffa500" stroke-linecap="round" stroke-linejoin="round"/><polyline fill="none" points="-156.7851057802699,-101.50801151765062 -154.2851057802567,-102.17788449870646 -152.45497876131213,-104.00801151761623 -151.7851057802087,-106.50801151761665 -152.45497876126456,-109.00801151762984 -154.28510578017432,-110.83813853657443 -156.78510578017475,-111.50801151767786 -159.28510578018793,-110.83813853662201 -161.1152327991325,-109.00801151771225 -161.78510578023594,-106.50801151771182 -161.1152327991801,-104.00801151769863 -159.28510578027033,-102.17788449875404 -156.7851057802699,-101.50801151765062" stroke="#00f" stroke-linecap="round" stroke-linejoin="round"/><polyline fill="none" points="-150.69187950499546,-54.71798865495067 -148.19187950498227,-55.38786163600651 -146.3617524860377,-57.21798865491627 -145.69187950493426,-59.7179886549167 -146.3617524859901,-62.21798865492988 -148.19187950489987,-64.04811567387448 -150.6918795049003,-64.7179886549779 -153.1918795049135,-64.04811567392207 -155.0220065238581,-62.21798865501231 -155.69187950496152,-59.71798865501188 -155.02200652390567,-57.2179886549987 -153.1918795049959,-55.387861636054105 -150.69187950499548,-54.71798865495068" stroke="#00f" stroke-linecap="round" stroke-linejoin="round"/><polyline fill="none" points="-119.72338983718161,28.7109356866174 -117.22338983716843,28.041062705561565 -115.39326281822383,26.210935686651805 -114.72338983712041,23.71093568665137 -115.39326281817624,21.210935686638187 -117.223389837086,19.38080866769359 -119.72338983708643,18.71093568659016 -122.22338983709962,19.380808667645997 -124.05351685604421,21.210935686555754 -124.72338983714764,23.710935686556187 -124.0535168560918,26.21093568656937 -122.22338983718204,28.04106270551397 -119.72338983718161,28.710935686617397" stroke="#ffa500" stroke-linecap="round" stroke-linejoin="round"/><polyline fill="none" points="-170.49702889177246,-107.19717295018745 -167.99702889175927,-107.86704593124328 -166.16690187281466,-109.69717295015305 -165.49702889171124,-112.19717295015347 -166.16690187276708,-114.69717295016666 -167.99702889167685,-116.52729996911125 -170.49702889167727,-117.19717295021468 -172.99702889169046,-116.52729996915885 -174.82715591063507,-114.6971729502491 -175.4970288917385,-112.19717295024867 -174.82715591068265,-109.69717295023548 -172.99702889177289,-107.86704593129089 -170.49702889177246,-107.19717295018746" stroke="#00f" stroke-linecap="round" stroke-linejoin="round"/><polyline fill="none" points="47.941569530428986,2.455441602233684 50.44156953044217,1.785568621177852 52.271696549386775,-0.04455839773190351 52.941569530490206,-2.5445583977323363 52.271696549434374,-5.044558397745524 50.44156953052462,-6.8746854166901255 47.941569530524184,-7.544558397793558 45.441569530510996,-6.874685416737728 43.611442511566395,-5.0445583978279736 42.941569530462964,-2.5445583978275415 43.611442511518796,-0.044558397814353334 45.44156953042855,1.7855686211302497 47.941569530428986,2.455441602233684" stroke="#00f" stroke-linecap="round" stroke-linejoin="round"/><polyline fill="none" points="-55.64058073426045,-33.41887353877414 -53.140580734247266,-34.088746519829975 -51.310453715302664,-35.91887353873973 -50.640580734199226,-38.418873538740165 -51.31045371525505,-40.91887353875335 -53.14058073416481,-42.749000557697954 -55.64058073416524,-43.41887353880139 -58.14058073417843,-42.74900055774557 -59.97070775312304,-40.91887353883581 -60.640580734226475,-38.41887353883538 -59.97070775317065,-35.91887353882219 -58.1405807342609,-34.08874651987758 -55.64058073426047,-33.41887353877414" stroke="#ffa500" stroke-linecap="round" stroke-linejoin="round"/><polyline fill="none" points="-210.33609650595108,-99.97640946715133 -207.8360965059379,-100.64628244820716 -206.00596948699328,-102.47640946711691 -205.33609650588986,-104.97640946711734 -206.00596948694567,-107.47640946713052 -207.83609650585544,-109.30653648607513 -210.33609650585586,-109.97640946717857 -212.83609650586905,-109.30653648612274 -214.66622352481366,-107.47640946721299 -215.3360965059171,-104.97640946721256 -214.6662235248613,-102.47640946719937 -212.83609650595153,-100.64628244825477 -210.3360965059511,-99.97640946715133" stroke="#ffa500" stroke-linecap="round" stroke-linejoin="round"/><polyline fill="none" points="15.6135428128412,-25.84643130688168 18.11354281285439,-26.516304287937505 19.943669831799,-28.346431306847258 20.613542812902438,-30.84643130684769 19.943669831846613,-33.34643130686088 18.11354281293686,-35.17655832580549 15.613542812936426,-35.846431306908926 13.113542812923235,-35.1765583258531 11.283415793978627,-33.34643130694335 10.613542812875185,-30.846431306942918 11.283415793931008,-28.346431306929727 13.113542812840759,-26.51630428798512 15.613542812841192,-25.846431306881676" stroke="#ffa500" stroke-linecap="round" stroke-linejoin="round"/><polyline fill="none" points="-169.2000444792758,-55.193371726870126 -166.7000444792626,-55.86324470792595 -164.869917460318,-57.6933717268357 -164.20004447921454,-60.19337172683613 -164.86991746027036,-62.69337172684933 -166.70004447918012,-64.52349874579394 -169.20004447918055,-65.19337172689738 -171.70004447919374,-64.52349874584156 -173.53017149813834,-62.693371726931815 -174.2000444792418,-60.19337172693138 -173.53017149818598,-57.69337172691819 -171.70004447927624,-55.86324470797358 -169.20004447927582,-55.19337172687013" stroke="#00f" stroke-linecap="round" stroke-linejoin="round"/><polyline fill="none" points="-84.25469427667447,87.31166820864966 -81.75469427666128,86.64179522759385 -79.92456725771667,84.8116682086841 -79.25469427661324,82.31166820868367 -79.92456725766905,79.81166820867048 -81.7546942765788,77.98154118972587 -84.25469427657923,77.31166820862242 -86.75469427659242,77.98154118967824 -88.58482129553703,79.81166820858799 -89.25469427664048,82.31166820858842 -88.58482129558466,84.81166820860162 -86.75469427667491,86.64179522754623 -84.25469427667448,87.31166820864968" stroke="#ffa500" stroke-linecap="round" stroke-linejoin="round"/><polyline fill="none" points="-51.99276552025308,-17.450445890694084 -49.492765520239885,-18.1203188717499 -47.66263850129527,-19.95044589065965 -46.992765520191824,-22.450445890660085 -47.66263850124764,-24.95044589067328 -49.49276552015739,-26.780572909617895 -51.992765520157825,-27.450445890721344 -54.49276552017102,-26.780572909665526 -56.322892539115635,-24.95044589075578 -56.99276552021909,-22.450445890755347 -56.32289253916327,-19.950445890742152 -54.49276552025352,-18.120318871797537 -51.99276552025309,-17.450445890694088" stroke="#ffa500" stroke-linecap="round" stroke-linejoin="round"/><polyline fill="none" points="245.52195185584245,-131.28527589140387 248.02195185585563,-131.9551488724597 249.85207887480024,-133.78527589136942 250.5219518559037,-136.28527589136985 249.85207887484788,-138.78527589138304 248.02195185593814,-140.61540291032765 245.52195185593771,-141.2852758914311 243.02195185592453,-140.61540291037528 241.19182483697992,-138.78527589146555 240.52195185587647,-136.28527589146512 241.19182483693228,-133.78527589145193 243.02195185584202,-131.95514887250732 245.52195185584245,-131.28527589140387" stroke="#ffa500" stroke-linecap="round" stroke-linejoin="round"/><polyline fill="none" points="-132.03852779623568,-70.31302964737121 -129.5385277962225,-70.98290262842703 -127.70840077727787,-72.81302964733678 -127.03852779617442,-75.3130296473372 -127.70840077723024,-77.8130296473504 -129.53852779614,-79.64315666629503 -132.03852779614041,-80.31302964739848 -134.5385277961536,-79.64315666634266 -136.3686548150982,-77.81302964743291 -137.03852779620166,-75.31302964743249 -136.36865481514585,-72.81302964741928 -134.5385277962361,-70.98290262847466 -132.03852779623568,-70.31302964737121" stroke="#ffa500" stroke-linecap="round" stroke-linejoin="round"/><polyline fill="none" points="-77.50284654942945,37.83234114149083 -75.00284654941625,37.16246816043502 -73.17271953047162,35.332341141525276 -72.50284654936817,32.83234114152484 -73.17271953042398,30.332341141511645 -75.00284654933373,28.502214122567022 -77.50284654933415,27.832341141463566 -80.00284654934735,28.502214122519376 -81.83297356829198,30.33234114142912 -82.50284654939543,32.83234114142955 -81.83297356833963,35.332341141442754 -80.00284654942988,37.16246816038738 -77.50284654942945,37.832341141490836" stroke="#ffa500" stroke-linecap="round" stroke-linejoin="round"/><polyline fill="none" points="-133.2140497559232,-37.538403483610324 -130.71404975591003,-38.208276464666135 -128.8839227369654,-40.03840348357588 -128.21404975586194,-42.53840348357631 -128.88392273691775,-45.03840348358951 -130.7140497558275,-46.868530502534135 -133.21404975582792,-47.538403483637595 -135.7140497558411,-46.86853050258179 -137.54417677478574,-45.03840348367205 -138.2140497558892,-42.538403483671615 -137.54417677483337,-40.03840348365841 -135.71404975592364,-38.20827646471379 -133.2140497559232,-37.53840348361033" stroke="#ffa500" stroke-linecap="round" stroke-linejoin="round"/><polyline fill="none" points="18.335174247303083,-13.650127569902565 20.835174247316285,-14.32000055095837 22.66530126626091,-16.15012756986811 23.335174247364375,-18.650127569868545 22.665301266308568,-21.150127569881747 20.835174247398825,-22.980254588826377 18.335174247398392,-23.65012756992984 15.83517424738519,-22.980254588874036 14.005047228440562,-21.150127569964297 13.335174247337099,-18.650127569963864 14.005047228392902,-16.150127569950662 15.835174247302643,-14.320000551006032 18.335174247303076,-13.650127569902569" stroke="#ffa500" stroke-linecap="round" stroke-linejoin="round"/><polyline fill="none" points="-38.78204151787701,-39.42131837274892 -36.28204151786381,-40.091191353804724 -34.45191449891918,-41.92131837271447 -33.78204151781571,-44.4213183727149 -34.45191449887152,-46.9213183727281 -36.28204151778125,-48.75144539167273 -38.782041517781686,-49.4213183727762 -41.28204151779489,-48.751445391720395 -43.11216853673952,-46.92131837281066 -43.782041517842984,-44.42131837281023 -43.11216853678718,-41.921318372797025 -41.282041517877445,-40.091191353852395 -38.78204151787701,-39.42131837274893" stroke="#00f" stroke-linecap="round" stroke-linejoin="round"/><polyline fill="none" points="-141.62818351094592,22.894324706735162 -139.1281835109327,22.224451725679362 -137.29805649198806,20.394324706769623 -136.62818351088458,17.89432470676919 -137.29805649194037,15.394324706755985 -139.1281835108501,13.564197687811351 -141.62818351085053,12.894324706707883 -144.12818351086375,13.564197687763683 -145.9583105298084,15.39432470667342 -146.62818351091187,17.894324706673853 -145.95831052985608,20.39432470668706 -144.12818351094634,22.224451725631692 -141.62818351094592,22.894324706735162" stroke="#00f" stroke-linecap="round" stroke-linejoin="round"/><polyline fill="none" points="-30.16954847487216,45.24094707237779 -27.669548474858953,44.571074091322 -25.83942145591432,42.74094707241226 -25.16954847481085,40.24094707241183 -25.839421455866646,37.74094707239862 -27.66954847477638,35.91082005345398 -30.169548474776814,35.24094707235051 -32.66954847479002,35.910820053406304 -34.49967549373466,37.74094707231604 -35.16954847483813,40.24094707231647 -34.499675493782334,42.74094707232968 -32.6695484748726,44.57107409127432 -30.169548474872165,45.24094707237779" stroke="#ffa500" stroke-linecap="round" stroke-linejoin="round"/><polyline fill="none" points="-27.864700748477045,56.946732554709776 -25.364700748463836,56.27685957365398 -23.5345737295192,54.446732554744244 -22.864700748415725,51.94673255474381 -23.53457372947152,49.4467325547306 -25.364700748381257,47.616605535785965 -27.86470074838169,46.94673255468249 -30.3647007483949,47.61660553573829 -32.19482776733954,49.44673255464802 -32.86470074844301,51.946732554648456 -32.19482776738722,54.446732554661665 -30.364700748477482,56.2768595736063 -27.86470074847705,56.946732554709776" stroke="#ffa500" stroke-linecap="round" stroke-linejoin="round"/><polyline fill="none" points="252.35509637563285,-127.01144201172542 254.85509637564607,-127.68131499278121 256.6852233945907,-129.51144201169095 257.3550963756942,-132.01144201169137 256.6852233946384,-134.5114420117046 254.85509637572866,-136.34156903064923 252.35509637572824,-137.0114420117527 249.85509637571502,-136.34156903069692 248.02496935677038,-134.51144201178718 247.3550963756669,-132.01144201178676 248.0249693567227,-129.51144201177354 249.85509637563243,-127.6813149928289 252.35509637563285,-127.01144201172542" stroke="#ffa500" stroke-linecap="round" stroke-linejoin="round"/><polyline fill="none" points="-93.14757664445446,28.67808505323021 -90.64757664444124,28.008212072174416 -88.81744962549661,26.178085053264684 -88.14757664439313,23.67808505326425 -88.81744962544892,21.17808505325104 -90.64757664435865,19.347958034306398 -93.14757664435908,18.67808505320292 -95.6475766443723,19.34795803425871 -97.47770366331693,21.17808505316844 -98.14757664442041,23.678085053168875 -97.47770366336462,26.178085053182087 -95.64757664445489,28.00821207212673 -93.14757664445446,28.678085053230213" stroke="#ffa500" stroke-linecap="round" stroke-linejoin="round"/><polyline fill="none" points="46.328068887529824,11.416939912218979 48.82806888754303,10.74706693116319 50.65819590648768,8.916939912253458 51.32806888759116,6.416939912253024 50.65819590653537,3.9169399122398123 48.82806888762564,2.0868128932951677 46.32806888762521,1.4169399121916864 43.82806888761199,2.0868128932474743 41.99794186866735,3.916939912157205 41.328068887563866,6.416939912157638 41.997941868619655,8.91693991217085 43.82806888752938,10.747066931115496 46.32806888752982,11.416939912218979" stroke="#ffa500" stroke-linecap="round" stroke-linejoin="round"/><polyline fill="none" points="247.71861776773727,-108.08773205230867 250.2186177677505,-108.75760503336446 252.04874478669512,-110.58773205227419 252.7186177677986,-113.08773205227462 252.04874478674282,-115.58773205228783 250.21861776783308,-117.41785907123248 247.71861776783265,-118.08773205233597 245.21861776781944,-117.41785907128018 243.3884907488748,-115.58773205237044 242.71861776777132,-113.08773205237001 243.3884907488271,-110.5877320523568 245.21861776773684,-108.75760503341215 247.71861776773727,-108.08773205230867" stroke="#ffa500" stroke-linecap="round" stroke-linejoin="round"/><polyline fill="none" points="66.70737156154192,28.09160239445628 69.20737156155514,27.421729413400495 71.03749858049979,25.591602394490767 71.70737156160327,23.091602394490334 71.03749858054748,20.591602394477118 69.20737156163774,18.76147537553247 66.70737156163732,18.091602394428982 64.2073715616241,18.761475375484764 62.37724454267945,20.591602394394492 61.70737156157596,23.091602394394926 62.37724454263174,25.59160239440814 64.20737156154146,27.421729413352793 66.70737156154189,28.09160239445628" stroke="#ffa500" stroke-linecap="round" stroke-linejoin="round"/><polyline fill="none" points="52.84776064127372,-20.5057589677837 55.34776064128694,-21.17563194883948 57.17788766023159,-23.00575896774921 57.84776064133508,-25.505758967749642 57.177887660279296,-28.00575896776286 55.34776064136957,-29.83588598670751 52.847760641369135,-30.505758967810998 50.34776064135592,-29.835885986755216 48.51763362241127,-28.005758967845487 47.84776064130778,-25.505758967845054 48.51763362236356,-23.005758967831838 50.34776064127329,-21.175631948887187 52.84776064127372,-20.505758967783695" stroke="#ffa500" stroke-linecap="round" stroke-linejoin="round"/><polyline fill="none" points="-160.23459385349955,-94.27439984579577 -157.73459385348633,-94.94427282685155 -155.90446683454167,-96.77439984576127 -155.23459385343818,-99.27439984576169 -155.90446683449397,-101.77439984577491 -157.7345938534037,-103.60452686471956 -160.23459385340414,-104.27439984582305 -162.73459385341735,-103.60452686476728 -164.56472087236202,-101.77439984585756 -165.2345938534655,-99.27439984585713 -164.5647208724097,-96.77439984584392 -162.73459385349997,-94.94427282689927 -160.23459385349955,-94.27439984579577" stroke="#ffa500" stroke-linecap="round" stroke-linejoin="round"/><polyline fill="none" points="53.61908911906012,-12.034619595480759 56.11908911907334,-12.704492576536538 57.94921613801799,-14.534619595446262 58.61908911912148,-17.034619595446696 57.94921613806571,-19.534619595459915 56.11908911915599,-21.36474661440457 53.619089119155554,-22.034619595508065 51.11908911914234,-21.364746614452287 49.28896210019768,-19.534619595542562 48.619089119094184,-17.03461959554213 49.28896210014996,-14.534619595528909 51.11908911905968,-12.704492576584252 53.61908911906011,-12.034619595480757" stroke="#ffa500" stroke-linecap="round" stroke-linejoin="round"/><polyline fill="none" points="-173.36907854973379,-60.9273684093169 -170.86907854972057,-61.59724139037267 -169.0389515307759,-63.427368409282394 -168.3690785496724,-65.92736840928282 -169.03895153072818,-68.42736840929604 -170.86907854963792,-70.25749542824069 -173.36907854963835,-70.92736840934418 -175.86907854965156,-70.25749542828841 -177.69920556859623,-68.42736840937869 -178.36907854969974,-65.92736840937826 -177.69920556864398,-63.42736840936504 -175.86907854973424,-61.59724139042038 -173.3690785497338,-60.927368409316884" stroke="#008000" stroke-linecap="round" stroke-linejoin="round"/><polyline fill="none" points="-128.18469256915472,10.678090898000388 -125.6846925691415,10.008217916944615 -123.85456555019684,8.178090898034892 -123.18469256909334,5.678090898034459 -123.85456555014912,3.1780908980212383 -125.68469256905884,1.347963879076578 -128.18469256905928,0.6780908979730781 -130.6846925690725,1.3479638790288502 -132.51481958801716,3.1780908979385716 -133.18469256912067,5.678090897939004 -132.5148195880649,8.178090897952226 -130.6846925691552,10.008217916896887 -128.18469256915478,10.67809089800039" stroke="#ffa500" stroke-linecap="round" stroke-linejoin="round"/><polyline fill="none" points="-50.44935341350895,-5.509824275851862 -47.94935341349573,-6.179697256907633 -46.11922639455106,-8.009824275817353 -45.44935341344756,-10.509824275817786 -46.11922639450333,-13.009824275831008 -47.94935341341305,-14.83995129477567 -50.44935341341348,-15.509824275879172 -52.94935341342671,-14.839951294823402 -54.77948043237137,-13.009824275913683 -55.449353413474874,-10.50982427591325 -54.779480432419106,-8.009824275900026 -52.949353413509385,-6.179697256955363 -50.44935341350895,-5.509824275851859" stroke="#ffa500" stroke-linecap="round" stroke-linejoin="round"/><polyline fill="none" points="-107.13976791681917,-0.012343265020277272 -104.63976791680594,-0.6822162460760463 -102.80964089786127,-2.512343264985766 -102.13976791675776,-5.0123432649862 -102.80964089781354,-7.512343264999423 -104.63976791672326,-9.342470283944088 -107.13976791672368,-10.012343265047594 -109.63976791673691,-9.342470283991826 -111.46989493568158,-7.512343265082107 -112.13976791678509,-5.0123432650816735 -111.46989493572933,-2.512343265068449 -109.63976791681961,-0.6822162461237833 -107.13976791681918,-0.012343265020276939" stroke="#ffa500" stroke-linecap="round" stroke-linejoin="round"/><polyline fill="none" points="-190.37341808207208,-17.95136443624674 -187.87341808205886,-18.62123741730251 -186.0432910631142,-20.451364436212227 -185.3734180820107,-22.95136443621266 -186.04329106306645,-25.451364436225884 -187.87341808197615,-27.28149145517055 -190.37341808197658,-27.951364436274055 -192.8734180819898,-27.28149145521829 -194.70354510093446,-25.451364436308573 -195.37341808203797,-22.95136443630814 -194.7035451009822,-20.451364436294917 -192.8734180820725,-18.621237417350248 -190.37341808207208,-17.951364436246738" stroke="#00f" stroke-linecap="round" stroke-linejoin="round"/><polyline fill="none" points="-176.64960483537808,-31.03592431891532 -174.14960483536487,-31.705797299971085 -172.3194778164202,-33.5359243188808 -171.6496048353167,-36.035924318881236 -172.31947781637245,-38.53592431889446 -174.14960483528216,-40.366051337839124 -176.6496048352826,-41.035924318942634 -179.1496048352958,-40.36605133788687 -180.97973185424047,-38.53592431897716 -181.64960483534398,-36.035924318976726 -180.97973185428822,-33.535924318963495 -179.1496048353785,-31.705797300018826 -176.64960483537808,-31.035924318915313" stroke="#00f" stroke-linecap="round" stroke-linejoin="round"/><polyline fill="none" points="-165.93563831765758,-18.799096729635085 -163.43563831764436,-19.468969710690846 -161.6055112986997,-21.29909672960056 -160.9356383175962,-23.799096729600993 -161.60551129865195,-26.29909672961422 -163.43563831756165,-28.129223748558893 -165.93563831756208,-28.799096729662406 -168.4356383175753,-28.129223748606645 -170.26576533651996,-26.29909672969693 -170.93563831762347,-23.799096729696497 -170.2657653365677,-21.29909672968327 -168.435638317658,-19.468969710738598 -165.93563831765758,-18.799096729635085" stroke="#ffa500" stroke-linecap="round" stroke-linejoin="round"/><polyline fill="none" points="-87.87853094102519,40.534324545440306 -85.37853094101196,39.864451564384545 -83.54840392206728,38.03432454547483 -82.87853094096377,35.5343245454744 -83.54840392201953,33.03432454546117 -85.37853094092924,31.204197526516495 -87.87853094092966,30.53432454541298 -90.3785309409429,31.204197526468736 -92.20865795988757,33.034324545378446 -92.8785309409911,35.53432454537888 -92.20865795993534,38.03432454539211 -90.37853094102563,39.86445156433678 -87.8785309410252,40.5343245454403" stroke="#ffa500" stroke-linecap="round" stroke-linejoin="round"/><polyline fill="none" points="-38.67470506708348,59.75297079130219 -36.17470506707025,59.083097810246436 -34.34457804812557,57.25297079133672 -33.67470506702205,54.75297079133629 -34.34457804807781,52.25297079132306 -36.17470506698752,50.42284377237838 -38.674705066987954,49.75297079127486 -41.174705067001184,50.422843772330616 -43.004832085945864,52.25297079124033 -43.67470506704938,54.75297079124076 -43.00483208599363,57.25297079125399 -41.17470506708391,59.08309781019867 -38.67470506708348,59.7529707913022" stroke="#ffa500" stroke-linecap="round" stroke-linejoin="round"/><polyline fill="none" points="-111.01498819222773,-37.310483084907375 -108.5149881922145,-37.98035606596313 -106.68486117326982,-39.81048308487284 -106.0149881921663,-42.310483084873276 -106.68486117322206,-44.810483084886506 -108.51498819213177,-46.640610103831186 -111.0149881921322,-47.31048308493471 -113.51498819214542,-46.640610103878956 -115.3451152110901,-44.81048308496924 -116.01498819219363,-42.31048308496881 -115.34511521113788,-39.81048308495558 -113.51498819222817,-37.9803560660109 -111.01498819222775,-37.310483084907375" stroke="#00f" stroke-linecap="round" stroke-linejoin="round"/><polyline fill="none" points="-172.6266828528729,-59.84145158157763 -170.12668285285966,-60.51132456263338 -168.29655583391497,-62.34145158154309 -167.62668285281146,-64.84145158154352 -168.29655583386722,-67.34145158155675 -170.12668285277692,-69.17157860050143 -172.62668285277735,-69.84145158160496 -175.1266828527906,-69.17157860054921 -176.9568098717353,-67.3414515816395 -177.62668285283883,-64.84145158163908 -176.95680987178307,-62.34145158162585 -175.12668285287336,-60.51132456268117 -172.62668285287293,-59.841451581577644" stroke="#00f" stroke-linecap="round" stroke-linejoin="round"/><polyline fill="none" points="-80.06408662351858,105.74026861162278 -77.56408662350535,105.07039563056703 -75.73395960456067,103.24026861165733 -75.06408662345714,100.7402686116569 -75.73395960451289,98.24026861164367 -77.5640866234226,96.41014159269899 -80.06408662342302,95.74026861159547 -82.56408662343625,96.41014159265121 -84.39421364238093,98.24026861156092 -85.06408662348446,100.74026861156135 -84.39421364242871,103.24026861157458 -82.564086623519,105.07039563051926 -80.06408662351858,105.74026861162278" stroke="#ffa500" stroke-linecap="round" stroke-linejoin="round"/><polyline fill="none" points="-151.95634489794494,-26.446633482079253 -149.4563448979317,-27.116506463135 -147.626217878987,-28.946633482044707 -146.95634489788347,-31.44663348204514 -147.6262178789392,-33.946633482058374 -149.4563448978489,-35.77676050100306 -151.95634489784933,-36.44663348210659 -154.45634489786258,-35.776760501050845 -156.28647191680727,-33.94663348214114 -156.9563448979108,-31.446633482140705 -156.28647191685508,-28.946633482127467 -154.45634489794537,-27.11650646318278 -151.95634489794494,-26.44663348207925" stroke="#ffa500" stroke-linecap="round" stroke-linejoin="round"/><polyline fill="none" points="-160.9525909504293,-76.18748457395185 -158.45259095041607,-76.8573575550076 -156.62246393147137,-78.6874845739173 -155.95259095036783,-81.18748457391773 -156.62246393142357,-83.68748457393096 -158.45259095033327,-85.51761159287565 -160.9525909503337,-86.18748457397919 -163.45259095034694,-85.51761159292344 -165.28271796929164,-83.68748457401374 -165.95259095039518,-81.18748457401331 -165.28271796933944,-78.68748457400007 -163.45259095042974,-76.85735755505537 -160.9525909504293,-76.18748457395183" stroke="#f00" stroke-linecap="round" stroke-linejoin="round"/><polyline fill="none" points="-99.20797575805304,-52.424169010274056 -96.7079757580398,-53.094041991329796 -94.8778487390951,-54.9241690102395 -94.20797575799156,-57.424169010239936 -94.87784873904731,-59.92416901025317 -96.70797575795702,-61.75429602919787 -99.20797575795744,-62.424169010301405 -101.70797575797069,-61.754296029245666 -103.53810277691538,-59.92416901033596 -104.20797575801892,-57.424169010335525 -103.53810277696317,-54.92416901032229 -101.70797575805346,-53.094041991377594 -99.20797575805304,-52.424169010274056" stroke="#008000" stroke-linecap="round" stroke-linejoin="round"/><polyline fill="none" points="-136.36622960614255,42.01875991192039 -133.8662296061293,41.34888693086465 -132.03610258718462,39.518759911954945 -131.36622960608108,37.01875991195451 -132.0361025871368,34.518759911941274 -133.86622960604652,32.68863289299658 -136.36622960604694,32.01875991189304 -138.8662296060602,32.68863289294878 -140.69635662500488,34.51875991185848 -141.36622960610842,37.018759911858915 -140.6963566250527,39.51875991187215 -138.86622960614298,41.348886930816846 -136.36622960614255,42.018759911920384" stroke="#ffa500" stroke-linecap="round" stroke-linejoin="round"/><polyline fill="none" points="-144.8513310329434,32.619276616150565 -142.35133103293015,31.94940363509483 -140.52120401398545,30.119276616185125 -139.85133103288192,27.619276616184692 -140.52120401393765,25.11927661617145 -142.35133103284736,23.289149597226753 -144.85133103284778,22.619276616123212 -147.35133103286103,23.289149597178948 -149.18145805180572,25.119276616088648 -149.85133103290926,27.61927661608908 -149.18145805185353,30.119276616102322 -147.35133103294382,31.94940363504702 -144.8513310329434,32.619276616150565" stroke="#ffa500" stroke-linecap="round" stroke-linejoin="round"/><polyline fill="none" points="-96.08970324772898,85.906144000427 -93.58970324771573,85.23627101937127 -91.75957622877104,83.40614400046157 -91.0897032476675,80.90614400046114 -91.75957622872323,78.4061440004479 -93.58970324763294,76.5760169815032 -96.08970324763337,75.90614400039966 -98.58970324764661,76.5760169814554 -100.4198302665913,78.40614400036509 -101.08970324769484,80.90614400036552 -100.41983026663911,83.40614400037876 -98.58970324772942,85.23627101932345 -96.08970324772899,85.906144000427" stroke="#00f" stroke-linecap="round" stroke-linejoin="round"/><polyline fill="none" points="-167.25982418170986,-4.313910829494409 -164.75982418169662,-4.9837838105501415 -162.92969716275192,-6.81391082945984 -162.25982418164838,-9.313910829460273 -162.92969716270412,-11.813910829473517 -164.75982418161382,-13.644037848418218 -167.25982418161425,-14.313910829521765 -169.7598241816275,-13.644037848466033 -171.5899512005722,-11.813910829556335 -172.25982418167573,-9.313910829555901 -171.58995120062,-6.813910829542657 -169.7598241817103,-4.983783810597955 -167.25982418170986,-4.313910829494406" stroke="#00f" stroke-linecap="round" stroke-linejoin="round"/><polyline fill="none" points="-100.34636962987179,40.97068070112006 -97.84636962985854,40.30080772006433 -96.01624261091384,38.47068070115463 -95.34636962981028,35.970680701154194 -96.01624261086602,33.47068070114095 -97.84636962977571,31.640553682196245 -100.34636962977613,30.970680701092697 -102.84636962978938,31.640553682148425 -104.67649664873409,33.47068070105812 -105.34636962983764,35.970680701058555 -104.6764966487819,38.4706807010718 -102.84636962987221,40.30080772001651 -100.34636962987179,40.97068070112006" stroke="#ffa500" stroke-linecap="round" stroke-linejoin="round"/><polyline fill="none" points="-67.62586822814599,-39.76706521900133 -65.12586822813275,-40.43693820005706 -63.29574120918804,-42.26706521896675 -62.625868228084485,-44.76706521896718 -63.29574120914021,-47.26706521898043 -65.12586822804991,-49.097192237925135 -67.62586822805034,-49.76706521902869 -70.12586822806358,-49.09719223797296 -71.95599524700829,-47.26706521906327 -72.62586822811184,-44.767065219062836 -71.95599524705611,-42.267065219049584 -70.12586822814642,-40.436938200104876 -67.62586822814599,-39.767065219001324" stroke="#00f" stroke-linecap="round" stroke-linejoin="round"/><polyline fill="none" points="-149.28777366299573,-63.220914436638054 -146.7877736629825,-63.89078741769378 -144.9576466440378,-65.72091443660348 -144.28777366293423,-68.2209144366039 -144.95764664398996,-70.72091443661715 -146.78777366289967,-72.55104145556186 -149.2877736629001,-73.22091443666541 -151.78777366291334,-72.55104145560969 -153.61790068185806,-70.7209144367 -154.28777366296163,-68.22091443669957 -153.6179006819059,-65.72091443668633 -151.7877736629962,-63.89078741774162 -149.28777366299576,-63.22091443663806" stroke="#ffa500" stroke-linecap="round" stroke-linejoin="round"/><polyline fill="none" points="-176.3351383058374,6.123119906318017 -173.83513830582416,5.453246925262294 -172.00501128687944,3.623119906352602 -171.33513830577587,1.1231199063521693 -172.0050112868316,-1.3768800936610806 -173.83513830574128,-3.2070071126057913 -176.3351383057417,-3.8768800937093495 -178.83513830575495,-3.2070071126536277 -180.66526532469967,-1.3768800937439356 -181.33513830580324,1.1231199062564974 -180.6652653247475,3.623119906269748 -178.83513830583783,5.45324692521446 -176.3351383058374,6.123119906318019" stroke="#ffa500" stroke-linecap="round" stroke-linejoin="round"/><polyline fill="none" points="-185.36027562758406,-78.03715212302204 -182.86027562757081,-78.70702510407776 -181.0301486086261,-80.53715212298745 -180.36027562752253,-83.03715212298788 -181.03014860857826,-85.53715212300114 -182.86027562748794,-87.36727914194584 -185.36027562748836,-88.03715212304941 -187.8602756275016,-87.36727914199369 -189.69040264644633,-85.537152123084 -190.3602756275499,-83.03715212308357 -189.69040264649416,-80.53715212307031 -187.86027562758449,-78.7070251041256 -185.36027562758406,-78.03715212302204" stroke="#ffa500" stroke-linecap="round" stroke-linejoin="round"/><polyline fill="none" points="-180.25691322995553,-77.98689547710185 -177.75691322994228,-78.65676845815757 -175.92678621099756,-80.48689547706726 -175.256913229894,-82.98689547706769 -175.9267862109497,-85.48689547708095 -177.75691322985938,-87.31702249602566 -180.2569132298598,-87.98689547712922 -182.75691322987305,-87.3170224960735 -184.58704024881777,-85.48689547716381 -185.25691322992134,-82.98689547716339 -184.58704024886563,-80.48689547715013 -182.75691322995596,-78.6567684582054 -180.25691322995553,-77.98689547710184" stroke="#00f" stroke-linecap="round" stroke-linejoin="round"/><polyline fill="none" points="-117.23894630763337,40.17448357993704 -114.73894630762011,39.50461059888132 -112.90881928867539,37.674483579971636 -112.23894630757182,35.1744835799712 -112.90881928862754,32.67448357995795 -114.73894630753723,30.84435656101323 -117.23894630753766,30.174483579909666 -119.73894630755092,30.84435656096538 -121.56907332649564,32.674483579875066 -122.2389463075992,35.1744835798755 -121.56907332654349,37.67448357988875 -119.7389463076338,39.504610598833466 -117.23894630763337,40.17448357993703" stroke="#ffa500" stroke-linecap="round" stroke-linejoin="round"/><polyline fill="none" points="-180.04399834063886,-98.93246675811868 -177.54399834062562,-99.6023397391744 -175.7138713216809,-101.43246675808409 -175.04399834057733,-103.93246675808453 -175.71387132163304,-106.43246675809779 -177.54399834054271,-108.26259377704251 -180.04399834054314,-108.93246675814608 -182.54399834055639,-108.26259377709036 -184.3741253595011,-106.43246675818067 -185.04399834060467,-103.93246675818023 -184.37412535954897,-101.43246675816697 -182.5439983406393,-99.60233973922224 -180.04399834063886,-98.93246675811868" stroke="#ffa500" stroke-linecap="round" stroke-linejoin="round"/><polyline fill="none" points="59.00240564886712,18.07094928217215 61.50240564888038,17.40107630111644 63.3325326678251,15.570949282206755 64.00240564892867,13.070949282206321 63.33253266787296,10.570949282193064 61.502405648963276,8.740822263248342 59.00240564896284,8.07094928214477 56.50240564894958,8.740822263200482 54.67227863000486,10.570949282110167 54.00240564890129,13.0709492821106 54.672278629957,15.570949282123857 56.502405648866684,17.40107630106858 59.00240564886712,18.070949282172155" stroke="#ffa500" stroke-linecap="round" stroke-linejoin="round"/><polyline fill="none" points="-111.97933618124972,15.37768849185467 -109.47933618123646,14.70781551079896 -107.64920916229174,12.877688491889275 -106.97933618118817,10.377688491888843 -107.64920916224388,7.877688491875586 -109.47933618115356,6.0475614729308615 -111.97933618115398,5.377688491827287 -114.47933618116724,6.047561472882995 -116.30946320011196,7.877688491792679 -116.97933618121554,10.37768849179311 -116.30946320015984,12.877688491806369 -114.47933618125016,14.707815510751095 -111.97933618124974,15.37768849185467" stroke="#00f" stroke-linecap="round" stroke-linejoin="round"/><polyline fill="none" points="-158.99980534359895,-40.70785519985067 -156.49980534358568,-41.377728180906374 -154.66967832464096,-43.20785519981606 -153.9998053435374,-45.70785519981649 -154.6696783245931,-48.20785519982975 -156.49980534350277,-50.03798221877448 -158.9998053435032,-50.70785519987806 -161.49980534351647,-50.03798221882236 -163.3299323624612,-48.20785519991267 -163.99980534356476,-45.70785519991224 -163.32993236250906,-43.20785519989898 -161.49980534359938,-41.37772818095425 -158.99980534359895,-40.70785519985067" stroke="#00f" stroke-linecap="round" stroke-linejoin="round"/><polyline fill="none" points="-170.08800534675126,-62.00680017456919 -167.588005346738,-62.6766731556249 -165.75787832779326,-64.50680017453458 -165.0880053466897,-67.006800174535 -165.7578783277454,-69.50680017454826 -167.58800534665508,-71.336927193493 -170.0880053466555,-72.00680017459658 -172.58800534666878,-71.33692719354087 -174.4181323656135,-69.5068001746312 -175.0880053467171,-67.00680017463077 -174.4181323656614,-64.50680017461751 -172.58800534675171,-62.67667315567278 -170.0880053467513,-62.0068001745692" stroke="#00f" stroke-linecap="round" stroke-linejoin="round"/><polyline fill="none" points="-88.36681717060225,104.02480556107909 -85.86681717058899,103.35493258002339 -84.03669015164425,101.52480556111371 -83.36681717054067,99.02480556111328 -84.03669015159637,96.52480556110002 -85.86681717050605,94.69467854215529 -88.36681717050648,94.0248055610517 -90.86681717051974,94.69467854210741 -92.69694418946447,96.52480556101709 -93.36681717056805,99.02480556101752 -92.69694418951235,101.52480556103077 -90.86681717060267,103.35493257997551 -88.36681717060225,104.02480556107909" stroke="#ffa500" stroke-linecap="round" stroke-linejoin="round"/><polyline fill="none" points="-204.44825361513494,-67.99479395384586 -201.94825361512167,-68.66466693490156 -200.11812659617695,-70.49479395381124 -199.44825361507336,-72.99479395381167 -200.11812659612906,-75.49479395382492 -201.94825361503874,-77.32492097276966 -204.44825361503916,-77.99479395387324 -206.94825361505244,-77.32492097281754 -208.77838063399716,-75.49479395390786 -209.44825361510075,-72.99479395390743 -208.77838063404505,-70.49479395389417 -206.94825361513537,-68.66466693494944 -204.44825361513494,-67.99479395384586" stroke="#ffa500" stroke-linecap="round" stroke-linejoin="round"/><polyline fill="none" points="-53.12062482960942,68.60649353035458 -50.62062482959615,67.93662054929888 -48.790497810651416,66.1064935303892 -48.12062482954783,63.60649353038877 -48.790497810603526,61.1064935303755 -50.620624829513204,59.276366511430766 -53.12062482951364,58.60649353032718 -55.6206248295269,59.276366511382875 -57.45075184847164,61.10649353029255 -58.12062482957523,63.60649353029299 -57.45075184851953,66.10649353030625 -55.62062482960985,67.93662054925099 -53.12062482960942,68.60649353035458" stroke="#ffa500" stroke-linecap="round" stroke-linejoin="round"/><polyline fill="none" points="-98.21144369069657,105.52252720549332 -95.7114436906833,104.85265422443763 -93.88131667173856,103.02252720552795 -93.21144369063497,100.52252720552752 -93.88131667169066,98.02252720551425 -95.71144369060033,96.19240018656951 -98.21144369060076,95.52252720546592 -100.71144369061403,96.19240018652161 -102.54157070955877,98.02252720543129 -103.21144369066236,100.52252720543171 -102.54157070960667,103.02252720544499 -100.711443690697,104.85265422438972 -98.21144369069657,105.52252720549332" stroke="#ffa500" stroke-linecap="round" stroke-linejoin="round"/><polyline fill="none" points="-106.96730134502658,-26.63785638374411 -104.46730134501331,-27.307729364799805 -102.63717432606857,-29.13785638370948 -101.96730134496498,-31.637856383709913 -102.63717432602067,-34.13785638372318 -104.46730134493035,-35.967983402667926 -106.96730134493077,-36.63785638377152 -109.46730134494405,-35.96798340271583 -111.29742836388878,-34.13785638380615 -111.96730134499238,-31.63785638380572 -111.29742836393669,-29.13785638379245 -109.46730134502701,-27.30772936484771 -106.96730134502658,-26.637856383744115" stroke="#00f" stroke-linecap="round" stroke-linejoin="round"/><polyline fill="none" points="-199.63687202922608,-95.16449806242458 -197.1368720292128,-95.83437104348027 -195.30674501026806,-97.66449806238995 -194.63687202916446,-100.16449806239038 -195.30674501022014,-102.66449806240365 -197.13687202912982,-104.4946250813484 -199.63687202913025,-105.164498062452 -202.13687202914352,-104.49462508139631 -203.96699904808827,-102.66449806248663 -204.63687202919186,-100.1644980624862 -203.9669990481362,-97.66449806247293 -202.1368720292265,-95.83437104352818 -199.63687202922608,-95.16449806242458" stroke="#00f" stroke-linecap="round" stroke-linejoin="round"/><polyline fill="none" points="-151.76374122284025,-93.69467062481971 -149.26374122282698,-94.3645436058754 -147.43361420388223,-96.19467062478508 -146.76374122277863,-98.6946706247855 -147.4336142038343,-101.19467062479877 -149.263741222744,-103.02479764374353 -151.76374122274441,-103.69467062484712 -154.2637412227577,-103.02479764379143 -156.09386824170244,-101.19467062488175 -156.76374122280603,-98.69467062488133 -156.09386824175036,-96.19467062486805 -154.26374122284068,-94.3645436059233 -151.76374122284025,-93.69467062481971" stroke="#ffa500" stroke-linecap="round" stroke-linejoin="round"/><polyline fill="none" points="-128.2425017603719,38.312922592081556 -125.74250176035864,37.64304961102587 -123.91237474141388,35.8129225921162 -123.24250176031029,33.31292259211577 -123.91237474136598,30.812922592102495 -125.74250176027564,28.98279557315775 -128.24250176027607,28.312922592054147 -130.74250176028934,28.982795573109833 -132.5726287792341,30.812922592019504 -133.2425017603377,33.31292259201994 -132.572628779282,35.81292259203321 -130.74250176037233,37.64304961097796 -128.2425017603719,38.31292259208156" stroke="#ffa500" stroke-linecap="round" stroke-linejoin="round"/><polyline fill="none" points="-99.22410535502597,93.68016397749588 -96.7241053550127,93.01029099644019 -94.89397833606795,91.18016397753053 -94.22410535496434,88.6801639775301 -94.89397833602001,86.18016397751683 -96.72410535492968,84.35003695857208 -99.2241053549301,83.68016397746847 -101.72410535494338,84.35003695852414 -103.55423237388813,86.1801639774338 -104.22410535499174,88.68016397743423 -103.55423237393606,91.1801639774475 -101.7241053550264,93.01029099639226 -99.22410535502597,93.68016397749587" stroke="#ffa500" stroke-linecap="round" stroke-linejoin="round"/><polyline fill="none" points="-139.51941530175796,15.127561742547528 -137.0194153017447,14.457688761491847 -135.18928828279994,12.627561742582177 -134.51941530169634,10.127561742581744 -135.18928828275202,7.627561742568469 -137.0194153016617,5.797434723623716 -139.51941530166212,5.1275617425201085 -142.0194153016754,5.797434723575789 -143.84954232062015,7.627561742485457 -144.51941530172374,10.127561742485891 -143.84954232066806,12.627561742499168 -142.0194153017584,14.457688761443922 -139.51941530175796,15.127561742547531" stroke="#00f" stroke-linecap="round" stroke-linejoin="round"/><polyline fill="none" points="-175.37606018029967,-4.736003809607277 -172.8760601802864,-5.405876790662957 -171.04593316134165,-7.236003809572624 -170.37606018023806,-9.736003809573058 -171.04593316129373,-12.236003809586334 -172.8760601802034,-14.06613082853109 -175.37606018020384,-14.736003809634699 -177.8760601802171,-14.066130828579022 -179.70618719916186,-12.236003809669356 -180.37606018026548,-9.736003809668922 -179.7061871992098,-7.236003809655646 -177.87606018030013,-5.40587679071089 -175.3760601802997,-4.736003809607279" stroke="#ffa500" stroke-linecap="round" stroke-linejoin="round"/><polyline fill="none" points="-166.40883226298385,-88.28455990706698 -163.90883226297058,-88.95443288812265 -162.07870524402583,-90.78455990703232 -161.4088322629222,-93.28455990703276 -162.07870524397788,-95.78455990704603 -163.90883226288756,-97.61468692599078 -166.40883226288798,-98.28455990709439 -168.90883226290126,-97.61468692603871 -170.738959281846,-95.78455990712905 -171.40883226294963,-93.28455990712862 -170.73895928189395,-90.78455990711535 -168.90883226298428,-88.95443288817059 -166.40883226298385,-88.28455990706698" stroke="#00f" stroke-linecap="round" stroke-linejoin="round"/><polyline fill="none" points="-192.81909374139676,-88.28313532248569 -190.31909374138348,-88.95300830354137 -188.48896672243873,-90.78313532245103 -187.8190937413351,-93.28313532245146 -188.48896672239078,-95.78313532246473 -190.31909374130046,-97.6132623414095 -192.8190937413009,-98.2831353225131 -195.31909374131416,-97.61326234145743 -197.1492207602589,-95.78313532254776 -197.81909374136254,-93.28313532254734 -197.14922076030686,-90.78313532253406 -195.31909374139718,-88.9530083035893 -192.81909374139676,-88.28313532248569" stroke="#ffa500" stroke-linecap="round" stroke-linejoin="round"/><polyline fill="none" points="-173.39034237567273,-76.19053745487348 -170.89034237565946,-76.86041043592915 -169.0602153567147,-78.69053745483882 -168.39034237561108,-81.19053745483924 -169.06021535666676,-83.69053745485252 -170.8903423755764,-85.52066447379728 -173.39034237557684,-86.1905374549009 -175.8903423755901,-85.52066447384523 -177.72046939453486,-83.69053745493557 -178.39034237563848,-81.19053745493514 -177.7204693945828,-78.69053745492187 -175.89034237567316,-76.8604104359771 -173.39034237567273,-76.19053745487348" stroke="#008000" stroke-linecap="round" stroke-linejoin="round"/><polyline fill="none" points="-47.022686774639375,61.85886548532839 -44.522686774626095,61.18899250427272 -42.69255975568133,59.358865485363054 -42.022686774577714,56.85886548536262 -42.69255975563338,54.35886548534934 -44.52268677454305,52.528738466404576 -47.02268677454348,51.85886548530096 -49.52268677455676,52.52873846635663 -51.352813793501525,54.35886548526629 -52.02268677460514,56.858865485266726 -51.35281379354947,59.358865485280006 -49.52268677463981,61.18899250422477 -47.022686774639375,61.85886548532839" stroke="#ffa500" stroke-linecap="round" stroke-linejoin="round"/><polyline fill="none" points="57.69324190706887,2.8785107575112527 60.19324190708215,2.2086377764555833 62.02336892602691,0.37851075754592167 62.69324190713053,-2.12148924245451 62.02336892607486,-4.621489242467791 60.193241907165195,-6.451616261412555 57.69324190716476,-7.1214892425161755 55.19324190715148,-6.451616261460508 53.36311488820672,-4.621489242550847 52.69324190710309,-2.1214892425504153 53.36311488815876,0.3785107574628661 55.193241907068426,2.2086377764076315 57.69324190706886,2.878510757511253" stroke="#ffa500" stroke-linecap="round" stroke-linejoin="round"/><polyline fill="none" points="-174.02622692236605,-87.34349204351524 -171.52622692235278,-88.0133650245709 -169.696099903408,-89.84349204348057 -169.02622692230437,-92.34349204348099 -169.69609990336005,-94.84349204349428 -171.5262269222697,-96.67361906243904 -174.02622692227013,-97.34349204354267 -176.5262269222834,-96.673619062487 -178.35635394122818,-94.84349204357734 -179.0262269223318,-92.34349204357692 -178.35635394127613,-89.84349204356363 -176.52622692236648,-88.01336502461886 -174.02622692236605,-87.34349204351524" stroke="#ffa500" stroke-linecap="round" stroke-linejoin="round"/><polyline fill="none" points="-201.9535897232032,-65.50820997917342 -199.45358972318994,-66.17808296022908 -197.62346270424516,-68.00820997913874 -196.95358972314153,-70.50820997913917 -197.6234627041972,-73.00820997915245 -199.45358972310686,-74.83833699809722 -201.95358972310729,-75.50820997920084 -204.45358972312056,-74.83833699814518 -206.28371674206534,-73.00820997923552 -206.95358972316896,-70.50820997923509 -206.28371674211328,-68.0082099792218 -204.45358972320363,-66.17808296027704 -201.9535897232032,-65.50820997917342" stroke="#00f" stroke-linecap="round" stroke-linejoin="round"/><polyline fill="none" points="-167.7631594302585,-108.26082720325982 -165.26315943024522,-108.93070018431548 -163.43303241130045,-110.76082720322515 -162.76315943019682,-113.26082720322557 -163.43303241125247,-115.76082720323886 -165.26315943016212,-117.59095422218363 -167.76315943016255,-118.26082720328725 -170.26315943017582,-117.59095422223159 -172.0932864491206,-115.76082720332194 -172.76315943022422,-113.26082720332151 -172.09328644916857,-110.76082720330822 -170.26315943025892,-108.93070018436345 -167.7631594302585,-108.26082720325981" stroke="#ffa500" stroke-linecap="round" stroke-linejoin="round"/><polyline fill="none" points="-162.246801790746,-78.45647333433823 -159.74680179073272,-79.12634631539389 -157.91667477178794,-80.95647333430354 -157.24680179068432,-83.45647333430396 -157.91667477173996,-85.95647333431725 -159.7468017906496,-87.78660035326203 -162.24680179065004,-88.45647333436567 -164.7468017906633,-87.78660035331 -166.5769288096081,-85.95647333440036 -167.24680179071171,-83.45647333439993 -166.57692880965607,-80.95647333438664 -164.74680179074642,-79.12634631544186 -162.246801790746,-78.45647333433823" stroke="#008000" stroke-linecap="round" stroke-linejoin="round"/><polyline fill="none" points="-122.6102449634655,27.05560046912584 -120.11024496345222,26.38572748807018 -118.28011794450744,24.555600469160527 -117.6102449634038,22.055600469160094 -118.28011794445946,19.555600469146807 -120.11024496336911,17.72547345020203 -122.61024496336954,17.055600469098398 -125.11024496338283,17.725473450154055 -126.9403719823276,19.55560046906371 -127.61024496343124,22.055600469064142 -126.94037198237558,24.55560046907743 -125.11024496346593,26.385727488022205 -122.6102449634655,27.05560046912584" stroke="#ffa500" stroke-linecap="round" stroke-linejoin="round"/><polyline fill="none" points="-187.17056619822822,-11.839294791518046 -184.6705661982149,-12.5091677725737 -182.84043917927013,-14.339294791483354 -182.1705661981665,-16.839294791483788 -182.84043917922216,-19.339294791497075 -184.6705661981318,-21.169421810441854 -187.17056619813224,-21.83929479154549 -189.67056619814554,-21.169421810489837 -191.50069321709032,-19.339294791580183 -192.17056619819394,-16.83929479157975 -191.5006932171383,-14.33929479156646 -189.67056619822864,-12.50916777262168 -187.17056619822822,-11.839294791518043" stroke="#ffa500" stroke-linecap="round" stroke-linejoin="round"/><polyline fill="none" points="-88.25898090335244,-62.04175658167587 -85.75898090333915,-62.711629562731524 -83.92885388439437,-64.54175658164118 -83.25898090329073,-67.04175658164161 -83.92885388434638,-69.5417565816549 -85.75898090325603,-71.37188360059967 -88.25898090325646,-72.04175658170331 -90.75898090326974,-71.37188360064766 -92.58910792221452,-69.54175658173801 -93.25898090331816,-67.04175658173759 -92.58910792226251,-64.5417565817243 -90.75898090335286,-62.71162956277952 -88.25898090335244,-62.041756581675884" stroke="#ffa500" stroke-linecap="round" stroke-linejoin="round"/><polyline fill="none" points="-212.82936341229518,-88.10263381474198 -210.32936341228188,-88.77250679579763 -208.4992363933371,-90.60263381470727 -207.82936341223345,-93.1026338147077 -208.4992363932891,-95.60263381472099 -210.32936341219875,-97.43276083366577 -212.82936341219917,-98.1026338147694 -215.32936341221247,-97.43276083371376 -217.15949043115725,-95.60263381480411 -217.8293634122609,-93.10263381480368 -217.15949043120526,-90.6026338147904 -215.3293634122956,-88.77250679584562 -212.82936341229518,-88.10263381474198" stroke="#00f" stroke-linecap="round" stroke-linejoin="round"/><polyline fill="none" points="-114.97974478547674,-63.67563642558714 -112.47974478546345,-64.34550940664279 -110.64961776651867,-66.17563642555244 -109.97974478541504,-68.67563642555287 -110.64961776647068,-71.17563642556615 -112.47974478538033,-73.00576344451093 -114.97974478538076,-73.67563642561458 -117.47974478539405,-73.00576344455894 -119.30987180433884,-71.17563642564929 -119.97974478544249,-68.67563642564886 -119.30987180438684,-66.17563642563556 -117.4797447854772,-64.34550940669077 -114.97974478547677,-63.67563642558712" stroke="#00f" stroke-linecap="round" stroke-linejoin="round"/><polyline fill="none" points="-97.79655834031092,-27.97150796692518 -95.29655834029762,-28.641380947980828 -93.46643132135283,-30.471507966890478 -92.79655834024918,-32.97150796689091 -93.46643132130482,-35.471507966904205 -95.29655834021447,-37.30163498584899 -97.7965583402149,-37.971507966952636 -100.2965583402282,-37.30163498589699 -102.126685359173,-35.47150796698734 -102.79655834027665,-32.971507966986906 -102.126685359221,-30.47150796697361 -100.29655834031135,-28.64138094802882 -97.79655834031092,-27.971507966925174" stroke="#ffa500" stroke-linecap="round" stroke-linejoin="round"/><polyline fill="none" points="-140.41596049261042,-56.97223832611335 -137.91596049259712,-57.64211130716899 -136.08583347365234,-59.47223832607864 -135.4159604925487,-61.97223832607907 -136.08583347360434,-64.47223832609237 -137.915960492514,-66.30236534503716 -140.41596049251442,-66.97223832614081 -142.91596049252772,-66.30236534508516 -144.7460875114725,-64.47223832617551 -145.41596049257615,-61.97223832617508 -144.7460875115205,-59.472238326161786 -142.91596049261085,-57.64211130721699 -140.41596049261042,-56.97223832611334" stroke="#ffa500" stroke-linecap="round" stroke-linejoin="round"/><polyline fill="none" points="-176.59698363480473,-18.793649444697046 -174.09698363479143,-19.463522425752686 -172.26685661584665,-21.293649444662332 -171.596983634743,-23.793649444662766 -172.26685661579864,-26.293649444676063 -174.0969836347083,-28.123776463620857 -176.59698363470872,-28.793649444724508 -179.09698363472202,-28.123776463668868 -180.92711065366683,-26.29364944475922 -181.59698363477048,-23.79364944475879 -180.92711065371483,-21.29364944474549 -179.09698363480518,-19.463522425800697 -176.59698363480476,-18.793649444697042" stroke="#ffa500" stroke-linecap="round" stroke-linejoin="round"/><polyline fill="none" points="-156.91547654329537,-71.93415895590793 -154.41547654328207,-72.60403193696357 -152.58534952433726,-74.43415895587322 -151.9154765432336,-76.93415895587366 -152.58534952428926,-79.43415895588696 -154.4154765431989,-81.26428597483175 -156.91547654319933,-81.9341589559354 -159.41547654321263,-81.26428597487977 -161.24560356215744,-79.43415895597012 -161.9154765432611,-76.93415895596968 -161.24560356220545,-74.43415895595638 -159.4154765432958,-72.60403193701158 -156.91547654329537,-71.93415895590793" stroke="#00f" stroke-linecap="round" stroke-linejoin="round"/><polyline fill="none" points="-58.533230011014105,49.08841239442994 -56.0332300110008,48.418539413374305 -54.203102992056,46.58841239446466 -53.533230010952344,44.08841239446423 -54.20310299200798,41.58841239445093 -56.03323001091762,39.75828537550613 -58.533230010918054,39.08841239440247 -61.033230010931355,39.7582853754581 -62.863357029876155,41.588412394367744 -63.533230010979814,44.08841239436818 -62.86335702992418,46.58841239438148 -61.03323001101454,48.41853941332628 -58.533230011014105,49.08841239442994" stroke="#00f" stroke-linecap="round" stroke-linejoin="round"/><polyline fill="none" points="-139.53876476250534,21.963670610211548 -137.03876476249204,21.293797629155915 -135.20863774354723,19.46367061024627 -134.53876476244358,16.96367061024584 -135.20863774349922,14.463670610232535 -137.03876476240887,12.633543591287735 -139.5387647624093,11.963670610184073 -142.0387647624226,12.633543591239706 -143.8688917813674,14.463670610149347 -144.53876476247106,16.96367061014978 -143.86889178141544,19.463670610163085 -142.0387647625058,21.293797629107885 -139.53876476250537,21.963670610211548" stroke="#ffa500" stroke-linecap="round" stroke-linejoin="round"/><polyline fill="none" points="-169.0341098608682,-60.59014597526917 -166.5341098608549,-61.2600189563248 -164.7039828419101,-63.09014597523444 -164.03410986080644,-65.59014597523488 -164.70398284186206,-68.09014597524818 -166.5341098607717,-69.92027299419298 -169.03410986077213,-70.59014597529665 -171.53410986078543,-69.92027299424102 -173.36423687973024,-68.09014597533138 -174.0341098608339,-65.59014597533094 -173.36423687977828,-63.09014597531763 -171.53410986086863,-61.260018956372825 -169.0341098608682,-60.59014597526916" stroke="#008000" stroke-linecap="round" stroke-linejoin="round"/><polyline fill="none" points="-205.4289305247907,-78.45979344990769 -202.9289305247774,-79.12966643096333 -201.0988035058326,-80.95979344987296 -200.4289305247289,-83.4597934498734 -201.09880350578453,-85.9597934498867 -202.92893052469418,-87.78992046883151 -205.4289305246946,-88.45979344993518 -207.9289305247079,-87.78992046887954 -209.75905754365272,-85.95979344996991 -210.4289305247564,-83.45979344996947 -209.75905754370078,-80.95979344995617 -207.92893052479113,-79.12966643101136 -205.4289305247907,-78.45979344990769" stroke="#ffa500" stroke-linecap="round" stroke-linejoin="round"/><polyline fill="none" points="241.9518021426807,-119.29248318551589 244.451802142694,-119.96235616657152 246.2819291616388,-121.79248318548116 246.95180214274248,-124.2924831854816 246.28192916168686,-126.79248318549492 244.4518021427772,-128.62261020443972 241.95180214277678,-129.2924831855434 239.45180214276348,-128.62261020448778 237.62167512381868,-126.79248318557815 236.951802142715,-124.29248318557771 237.62167512377061,-121.7924831855644 239.45180214268026,-119.96235616661959 241.9518021426807,-119.29248318551592" stroke="#ffa500" stroke-linecap="round" stroke-linejoin="round"/></svg>