<?xml version="1.0" ?><!DOCTYPE svg  PUBLIC '-//W3C//DTD SVG 1.1//EN'  'http://www.w3.org/Graphics/SVG/1.1/DTD/svg11.dtd'><svg height="270.000" viewBox="-235.000 -153.000 513.000 270.000" width="513.000" xmlns="http://www.w3.org/2000/svg"><line fill="none" stroke="none" stroke-linecap="round" stroke-width="2.0" x1="0.0" x2="0.0" y1="0.0" y2="0.0"/><polygon fill="none" fill-rule="evenodd" points="0.0,0.0 0.0,0.0 0.0,0.0" stroke-linejoin="round"/><polyline fill="none" points="-178.44946991902555,-56.446704503683144 -175.94946991901224,-57.11657748473877 -174.11934290006744,-58.946704503648405 -173.44946991896376,-61.44670450364884 -174.11934290001938,-63.94670450366215 -175.94946991892903,-65.77683152260695 -178.44946991892945,-66.44670450371063 -180.94946991894275,-65.77683152265502 -182.77959693788756,-63.94670450374538 -183.44946991899124,-61.44670450374495 -182.77959693793562,-58.94670450373164 -180.94946991902597,-57.11657748478682 -178.44946991902555,-56.44670450368315" stroke="#00f" stroke-linecap="round" stroke-linejoin="round"/><polyline fill="none" points="-166.3968626847112,-86.34353998088795 -163.8968626846979,-87.01341296194357 -162.0667356657531,-88.84353998085321 -161.39686268464942,-91.34353998085365 -162.06673566570504,-93.84353998086696 -163.8968626846147,-95.67366699981177 -166.39686268461512,-96.34353998091545 -168.89686268462842,-95.67366699985983 -170.72698970357322,-93.8435399809502 -171.3968626846769,-91.34353998094976 -170.72698970362129,-88.84353998093644 -168.89686268471166,-87.01341296199163 -166.39686268471124,-86.34353998088795" stroke="#008000" stroke-linecap="round" stroke-linejoin="round"/><polyline fill="none" points="-135.65187932852712,-81.36285130469813 -133.15187932851381,-82.03272428575374 -131.321752309569,-83.86285130466338 -130.65187932846533,-86.36285130466382 -131.32175230952095,-88.86285130467714 -133.15187932843057,-90.69297832362196 -135.651879328431,-91.36285130472564 -138.1518793284443,-90.69297832367002 -139.9820063473891,-88.86285130476038 -140.65187932849278,-86.36285130475994 -139.98200634743716,-83.86285130474663 -138.15187932852754,-82.0327242858018 -135.65187932852712,-81.36285130469813" stroke="#ffa500" stroke-linecap="round" stroke-linejoin="round"/><polyline fill="none" points="-160.3877943681429,-81.13469609157778 -157.8877943681296,-81.8045690726334 -156.05766734918478,-83.63469609154303 -155.3877943680811,-86.13469609154347 -156.05766734913672,-88.63469609155679 -157.88779436804634,-90.46482311050161 -160.38779436804677,-91.13469609160529 -162.88779436806007,-90.46482311054967 -164.71792138700488,-88.63469609164004 -165.38779436810856,-86.1346960916396 -164.71792138705294,-83.63469609162628 -162.88779436814332,-81.80456907268146 -160.3877943681429,-81.13469609157778" stroke="#008000" stroke-linecap="round" stroke-linejoin="round"/><polyline fill="none" points="-184.4517596200709,-51.073437370252044 -181.9517596200576,-51.743310351307656 -180.1216326011128,-53.573437370217285 -179.4517596200091,-56.07343737021772 -180.12163260106473,-58.573437370231034 -181.95175961997435,-60.403564389175855 -184.45175961997478,-61.07343737027954 -186.95175961998808,-60.40356438922393 -188.7818866389329,-58.5734373703143 -189.45175962003657,-56.07343737031387 -188.78188663898095,-53.57343737030055 -186.95175962007133,-51.74331035135573 -184.4517596200709,-51.073437370252044" stroke="#00f" stroke-linecap="round" stroke-linejoin="round"/><polyline fill="none" points="-176.50676498614456,-104.68631920499914 -174.00676498613123,-105.35619218605476 -172.1766379671864,-107.18631920496439 -171.50676498608271,-109.68631920496483 -172.17663796713833,-112.18631920497815 -174.00676498604795,-114.01644622392297 -176.50676498604838,-114.68631920502665 -179.0067649860617,-114.01644622397104 -180.83689200500655,-112.18631920506141 -181.50676498611023,-109.68631920506097 -180.8368920050546,-107.18631920504765 -179.006764986145,-105.35619218610283 -176.50676498614456,-104.68631920499914" stroke="#00f" stroke-linecap="round" stroke-linejoin="round"/><polyline fill="none" points="237.28424238734237,-129.44116791858778 239.7842423873557,-130.1110408996434 241.61436940630054,-131.94116791855302 242.28424238740422,-134.44116791855345 241.6143694063486,-136.94116791856678 239.78424238743898,-138.7712949375116 237.28424238743855,-139.4411679186153 234.78424238742522,-138.77129493755967 232.9541153684804,-136.94116791865005 232.2842423873767,-134.44116791864963 232.95411536843233,-131.9411679186363 234.78424238734195,-130.11104089969146 237.28424238734237,-129.44116791858778" stroke="#ffa500" stroke-linecap="round" stroke-linejoin="round"/><polyline fill="none" points="-219.34763702836864,-90.97996444999417 -216.8476370283553,-91.64983743104978 -215.01751000941047,-93.4799644499594 -214.3476370283068,-95.97996444995984 -215.0175100093624,-98.47996444997315 -216.84763702827203,-100.31009146891797 -219.34763702827246,-100.97996445002167 -221.8476370282858,-100.31009146896606 -223.67776404723062,-98.47996445005644 -224.3476370283343,-95.979964450056 -223.67776404727869,-93.47996445004269 -221.84763702836906,-91.64983743109785 -219.34763702836864,-90.97996444999416" stroke="#00f" stroke-linecap="round" stroke-linejoin="round"/><polyline fill="none" points="69.68121822416944,12.782398459817074 72.18121822418276,12.11252547876147 74.0113452431276,10.282398459851843 74.68121822423129,7.782398459851407 74.01134524317568,5.282398459838086 72.18121822426606,3.4522714408932558 69.68121822426562,2.7823984597895604 67.1812182242523,3.4522714408451645 65.35109120530747,5.2823984597547895 64.68121822420377,7.782398459755225 65.35109120525938,10.282398459768546 67.181218224169,12.112525478713378 69.68121822416944,12.782398459817074" stroke="#ffa500" stroke-linecap="round" stroke-linejoin="round"/><polyline fill="none" points="261.34677924182324,-128.9246400490385 263.84677924183654,-129.59451303009408 265.6769062607814,-131.4246400490037 266.3467792418851,-133.92464004900413 265.67690626082947,-136.42464004901746 263.8467792419198,-138.2547670679623 261.34677924191936,-138.924640049066 258.84677924190606,-138.2547670680104 257.0166522229612,-136.4246400491008 256.3467792418575,-133.92464004910036 257.01665222291314,-131.42464004908703 258.8467792418228,-129.5945130301422 261.34677924182324,-128.9246400490385" stroke="#00f" stroke-linecap="round" stroke-linejoin="round"/><polyline fill="none" points="-154.1741132784506,-88.29158909476331 -151.67411327843726,-88.96146207581891 -149.84398625949243,-90.79158909472854 -149.17411327838872,-93.29158909472898 -149.8439862594443,-95.7915890947423 -151.67411327835393,-97.62171611368714 -154.17411327835435,-98.29158909479084 -156.67411327836768,-97.62171611373523 -158.50424029731252,-95.79158909482561 -159.17411327841623,-93.29158909482517 -158.50424029736064,-90.79158909481184 -156.67411327845102,-88.961462075867 -154.1741132784506,-88.2915890947633" stroke="#00f" stroke-linecap="round" stroke-linejoin="round"/><polyline fill="none" points="-72.46277934512379,-18.099244634616294 -69.96277934511046,-18.76911761567189 -68.13265232616563,-20.599244634581513 -67.46277934506192,-23.09924463458195 -68.13265232611752,-25.599244634595276 -69.96277934502714,-27.429371653540112 -72.46277934502758,-28.099244634643817 -74.96277934504091,-27.42937165358822 -76.79290636398575,-25.5992446346786 -77.46277934508946,-23.099244634678165 -76.79290636403387,-20.59924463466484 -74.96277934512425,-18.76911761572 -72.4627793451238,-18.099244634616294" stroke="#00f" stroke-linecap="round" stroke-linejoin="round"/><polyline fill="none" points="-127.1043509852669,-73.7939569509604 -124.60435098525357,-74.463829932016 -122.77422396630874,-76.29395695092562 -122.10435098520503,-78.79395695092606 -122.77422396626062,-81.29395695093939 -124.60435098517024,-83.12408396988423 -127.10435098517068,-83.79395695098793 -129.604350985184,-83.12408396993234 -131.43447800412883,-81.29395695102272 -132.10435098523254,-78.79395695102228 -131.43447800417695,-76.29395695100895 -129.60435098526733,-74.46382993206412 -127.10435098526689,-73.7939569509604" stroke="#ffa500" stroke-linecap="round" stroke-linejoin="round"/><polyline fill="none" points="-99.04591500291595,16.632825331408387 -96.54591500290262,15.962952350352793 -94.71578798395778,14.132825331443174 -94.04591500285407,11.632825331442739 -94.71578798390966,9.13282533142941 -96.54591500281929,7.302698312484568 -99.04591500281973,6.63282533138086 -101.54591500283306,7.302698312436453 -103.37604202177789,9.132825331346073 -104.0459150028816,11.632825331346508 -103.37604202182601,14.132825331359836 -101.54591500291639,15.962952350304679 -99.04591500291595,16.632825331408387" stroke="#ffa500" stroke-linecap="round" stroke-linejoin="round"/><polyline fill="none" points="-123.67164337996789,-52.202661934644674 -121.17164337995456,-52.872534915700264 -119.34151636100971,-54.702661934609885 -118.671643379906,-57.20266193461032 -119.34151636096159,-59.70266193462365 -121.17164337987121,-61.53278895356849 -123.67164337987165,-62.2026619346722 -126.17164337988498,-61.53278895361661 -128.00177039882982,-59.702661934706995 -128.67164337993353,-57.20266193470656 -128.00177039887794,-54.70266193469323 -126.17164337996832,-52.87253491574839 -123.67164337996788,-52.202661934644674" stroke="#ffa500" stroke-linecap="round" stroke-linejoin="round"/><polyline fill="none" points="-160.30842450001853,-102.0992162858258 -157.8084245000052,-102.7690892668814 -155.97829748106037,-104.59921628579102 -155.30842449995666,-107.09921628579146 -155.97829748101225,-109.59921628580479 -157.80842449992187,-111.42934330474964 -160.3084244999223,-112.09921628585334 -162.80842449993563,-111.42934330479775 -164.63855151888046,-109.59921628588813 -165.30842449998417,-107.09921628588769 -164.63855151892858,-104.59921628587436 -162.80842450001896,-102.76908926692951 -160.30842450001853,-102.0992162858258" stroke="#00f" stroke-linecap="round" stroke-linejoin="round"/><polyline fill="none" points="-153.49761457770876,-56.05506132684783 -150.99761457769543,-56.72493430790341 -149.1674875587506,-58.555061326813025 -148.49761457764689,-61.05506132681346 -149.16748755870248,-63.55506132682679 -150.9976145776121,-65.38518834577164 -153.49761457761252,-66.05506132687536 -155.99761457762585,-65.38518834581977 -157.82774159657072,-63.555061326910156 -158.49761457767443,-61.05506132690972 -157.82774159661884,-58.55506132689639 -155.99761457770921,-56.72493430795154 -153.4976145777088,-56.05506132684783" stroke="#00f" stroke-linecap="round" stroke-linejoin="round"/><polyline fill="none" points="-123.18990937413577,28.313782629372717 -120.68990937412244,27.643909648317134 -118.85978235517759,25.81378262940752 -118.18990937407386,23.313782629407086 -118.85978235512944,20.813782629393753 -120.68990937403905,18.9836556104489 -123.18990937403949,18.31378262934518 -125.68990937405282,18.983655610400763 -127.52003639299767,20.813782629310378 -128.18990937410138,23.313782629310815 -127.5200363930458,25.813782629324148 -125.68990937413619,27.643909648269002 -123.18990937413575,28.313782629372724" stroke="#ffa500" stroke-linecap="round" stroke-linejoin="round"/><polyline fill="none" points="-173.09456585794334,-107.36367899985669 -170.59456585793,-108.03355198091226 -168.76443883898514,-109.86367899982187 -168.09456585788143,-112.36367899982231 -168.76443883893702,-114.86367899983564 -170.59456585784665,-116.69380601878049 -173.09456585784707,-117.36367899988421 -175.5945658578604,-116.69380601882864 -177.42469287680527,-114.86367899991903 -178.094565857909,-112.36367899991859 -177.4246928768534,-109.86367899990526 -175.5945658579438,-108.03355198096041 -173.09456585794337,-107.36367899985669" stroke="#00f" stroke-linecap="round" stroke-linejoin="round"/><polyline fill="none" points="48.23385190517767,2.1244966857688334 50.73385190519101,1.4546237047132546 52.56397892413587,-0.3755033141963564 53.23385190523959,-2.8755033141967923 52.56397892418401,-5.375503314210128 50.7338519052744,-7.205630333154986 48.233851905273966,-7.875503314258712 45.73385190526063,-7.205630333203134 43.90372488631577,-5.375503314293523 43.23385190521204,-2.8755033142930873 43.90372488626762,-0.3755033142797499 45.733851905177225,1.454623704665109 48.23385190517766,2.124496685768836" stroke="#00f" stroke-linecap="round" stroke-linejoin="round"/><polyline fill="none" points="-60.52775199838691,-34.79910134788431 -58.027751998373574,-35.468974328939886 -56.19762497942872,-37.29910134784949 -55.52775199832499,-39.79910134784993 -56.197624979380564,-42.299101347863264 -58.02775199829017,-44.12922836680812 -60.527751998290604,-44.79910134791185 -63.02775199830394,-44.129228366856275 -64.8578790172488,-42.29910134794667 -65.52775199835253,-39.799101347946234 -64.85787901729695,-37.2991013479329 -63.027751998387345,-35.46897432898804 -60.52775199838691,-34.79910134788431" stroke="#ffa500" stroke-linecap="round" stroke-linejoin="round"/><polyline fill="none" points="-211.8171820723406,-100.10076600721452 -209.31718207232726,-100.7706389882701 -207.4870550533824,-102.6007660071797 -206.81718207227865,-105.10076600718014 -207.48705505333422,-107.60076600719349 -209.31718207224384,-109.43089302613835 -211.81718207224426,-110.10076600724209 -214.3171820722576,-109.43089302618651 -216.14730909120246,-107.6007660072769 -216.8171820723062,-105.10076600727646 -216.14730909125063,-102.60076600726312 -214.317182072341,-100.77063898831825 -211.8171820723406,-100.10076600721452" stroke="#ffa500" stroke-linecap="round" stroke-linejoin="round"/><polyline fill="none" points="12.25395205577852,-26.898731413739306 14.75395205579186,-27.56860439479488 16.584079074736724,-29.398731413704486 17.253952055840458,-31.898731413704922 16.584079074784885,-34.39873141371826 14.753952055875278,-36.228858432663124 12.253952055874842,-36.89873141376686 9.753952055861502,-36.22885843271129 7.923825036916638,-34.398731413801684 7.253952055812903,-31.89873141380125 7.923825036868473,-29.39873141378791 9.753952055778079,-27.568604394843046 12.253952055778514,-26.89873141373931" stroke="#ffa500" stroke-linecap="round" stroke-linejoin="round"/><polyline fill="none" points="-171.76291747279947,-57.29097411233527 -169.26291747278614,-57.96084709339084 -167.43279045384128,-59.79097411230045 -166.76291747273754,-62.29097411230088 -167.4327904537931,-64.79097411231422 -169.2629174727027,-66.62110113125908 -171.76291747270312,-67.29097411236282 -174.26291747271645,-66.62110113130726 -176.09304449166132,-64.79097411239765 -176.76291747276505,-62.290974112397215 -176.0930444917095,-59.79097411238387 -174.2629174727999,-57.96084709343901 -171.76291747279947,-57.29097411233527" stroke="#00f" stroke-linecap="round" stroke-linejoin="round"/><polyline fill="none" points="-85.5342964367957,87.57452174527847 -83.03429643678236,86.90464876422291 -81.20416941783749,85.0745217453133 -80.53429643673375,82.57452174531286 -81.20416941778932,80.07452174529952 -83.03429643669892,78.24439472635466 -85.53429643669936,77.57452174525092 -88.03429643671271,78.24439472630648 -89.86442345565757,80.07452174521609 -90.53429643676131,82.57452174521653 -89.86442345570575,85.07452174522987 -88.03429643679614,86.90464876417474 -85.5342964367957,87.57452174527847" stroke="#ffa500" stroke-linecap="round" stroke-linejoin="round"/><polyline fill="none" points="-55.59691429404652,-18.771794447932358 -53.096914294033176,-19.441667428987923 -51.266787275088305,-21.271794447897527 -50.59691429398456,-23.77179444789796 -51.26678727504012,-26.271794447911304 -53.09691429394972,-28.101921466856176 -55.59691429395016,-28.771794447959916 -58.0969142939635,-28.10192146690435 -59.92704131290837,-26.271794447994747 -60.596914294012116,-23.77179444799431 -59.927041312956554,-21.271794447980966 -58.096914294046954,-19.441667429036094 -55.59691429404652,-18.77179444793235" stroke="#ffa500" stroke-linecap="round" stroke-linejoin="round"/><polyline fill="none" points="247.2767083665685,-131.5850329450361 249.77670836658186,-132.25490592609165 251.60683538552672,-134.08503294500125 252.27670836663046,-136.58503294500167 251.6068353855749,-139.08503294501503 249.7767083666653,-140.9151599639599 247.27670836666488,-141.58503294506363 244.77670836665152,-140.91515996400807 242.94658134770665,-139.08503294509848 242.27670836660292,-136.58503294509805 242.94658134765848,-134.0850329450847 244.77670836656807,-132.25490592613983 247.2767083665685,-131.5850329450361" stroke="#ffa500" stroke-linecap="round" stroke-linejoin="round"/><polyline fill="none" points="-134.48646240028293,-71.5740626825177 -131.98646240026957,-72.24393566357327 -130.1563353813247,-74.07406268248286 -129.48646240022097,-76.5740626824833 -130.15633538127653,-79.07406268249665 -131.98646240018613,-80.90418970144152 -134.48646240018655,-81.57406268254528 -136.9864624001999,-80.90418970148971 -138.81658941914478,-79.07406268258012 -139.4864624002485,-76.57406268257968 -138.81658941919295,-74.07406268256634 -136.98646240028336,-72.24393566362146 -134.48646240028293,-71.5740626825177" stroke="#ffa500" stroke-linecap="round" stroke-linejoin="round"/><polyline fill="none" points="-79.90371481200674,36.98884272736602 -77.4037148119934,36.318969746310465 -75.57358779304852,34.488842727400865 -74.90371481194477,31.98884272740043 -75.57358779300033,29.488842727387084 -77.40371481190992,27.658715708442205 -79.90371481191036,26.988842727338454 -82.4037148119237,27.658715708394013 -84.23384183086858,29.48884272730361 -84.90371481197234,31.988842727304046 -84.23384183091677,34.4888427273174 -82.40371481200718,36.318969746262276 -79.90371481200674,36.98884272736603" stroke="#ffa500" stroke-linecap="round" stroke-linejoin="round"/><polyline fill="none" points="-136.10468406013658,-38.766337733251724 -133.60468406012322,-39.43621071430728 -131.77455704117833,-41.26633773321688 -131.10468406007456,-43.76633773321731 -131.77455704113012,-46.266337733230664 -133.60468406003972,-48.09646475217554 -136.10468406004014,-48.76633773327929 -138.6046840600535,-48.09646475222374 -140.4348110789984,-46.26633773331414 -141.10468406010216,-43.766337733313705 -140.4348110790466,-41.266337733300354 -138.604684060137,-39.436210714355475 -136.10468406013658,-38.766337733251724" stroke="#ffa500" stroke-linecap="round" stroke-linejoin="round"/><polyline fill="none" points="14.844811914275393,-15.288447459026585 17.344811914288744,-15.958320440082138 19.174938933233626,-17.788447458991733 19.84481191433738,-20.288447458992167 19.17493893328183,-22.788447459005518 17.344811914372233,-24.6185744779504 14.844811914371798,-25.288447459054154 12.344811914358447,-24.618574477998603 10.514684895413563,-22.788447459089006 9.844811914309807,-20.28844745908857 10.514684895365358,-17.78844745907522 12.344811914274954,-15.958320440130334 14.84481191427539,-15.288447459026578" stroke="#ffa500" stroke-linecap="round" stroke-linejoin="round"/><polyline fill="none" points="-44.06189509623236,-41.0959600326617 -41.56189509621901,-41.76583301371725 -39.731768077274126,-43.59596003262684 -39.06189509617037,-46.095960032627275 -39.731768077225915,-48.595960032640626 -41.56189509613551,-50.42608705158551 -44.06189509613594,-51.09596003268927 -46.56189509614929,-50.42608705163372 -48.39202211509418,-48.59596003272413 -49.06189509619794,-46.095960032723696 -48.39202211514239,-43.595960032710344 -46.561895096232796,-41.76583301376546 -44.06189509623236,-41.0959600326617" stroke="#00f" stroke-linecap="round" stroke-linejoin="round"/><polyline fill="none" points="-143.03532678088584,23.015112983246528 -140.53532678087248,22.34524000219098 -138.7051997619276,20.515112983281387 -138.03532678082382,18.01511298328095 -138.70519976187938,15.515112983267596 -140.53532678078898,13.684985964322708 -143.0353267807894,13.015112983218946 -145.53532678080276,13.684985964274494 -147.36545379974766,15.515112983184087 -148.03532678085142,18.015112983184522 -147.3654537997959,20.515112983197877 -145.5353267808863,22.345240002142766 -143.03532678088587,23.015112983246528" stroke="#00f" stroke-linecap="round" stroke-linejoin="round"/><polyline fill="none" points="-32.21652316997328,45.712862229005694 -29.716523169959924,45.042989247950146 -27.886396151015035,43.21286222904055 -27.216523169911273,40.71286222904012 -27.88639615096682,38.21286222902676 -29.716523169876414,36.38273521008187 -32.21652316987685,35.7128622289781 -34.71652316989021,36.38273521003365 -36.5466501888351,38.212862228943244 -37.21652316993887,40.71286222894368 -36.54665018888332,43.212862228957036 -34.716523169973726,45.04298924790193 -32.21652316997329,45.712862229005694" stroke="#ffa500" stroke-linecap="round" stroke-linejoin="round"/><polyline fill="none" points="-30.02242099336995,56.856196823958214 -27.52242099335659,56.18632384290267 -25.692293974411697,54.35619682399307 -25.022420993307932,51.85619682399264 -25.692293974363476,49.35619682397928 -27.52242099327307,47.52606980503439 -30.022420993273506,46.856196823930624 -32.522420993286865,47.526069804986165 -34.35254801223176,49.35619682389576 -35.02242099333552,51.8561968238962 -34.35254801227998,54.356196823909556 -32.52242099337039,56.18632384285445 -30.022420993369952,56.856196823958214" stroke="#ffa500" stroke-linecap="round" stroke-linejoin="round"/><polyline fill="none" points="253.78152735839248,-127.51655236367031 256.28152735840587,-128.18642534472585 258.11165437735076,-130.01655236363544 258.7815273584545,-132.51655236363587 258.11165437739896,-135.01655236364923 256.28152735848937,-136.84667938259412 253.78152735848894,-137.51655236369788 251.28152735847559,-136.84667938264235 249.4514003395307,-135.01655236373276 248.78152735842693,-132.51655236373233 249.45140033948246,-130.01655236371897 251.28152735839205,-128.18642534477408 253.78152735839248,-127.51655236367031" stroke="#ffa500" stroke-linecap="round" stroke-linejoin="round"/><polyline fill="none" points="-96.14984596559316,28.285821119675962 -93.6498459655798,27.61594813862042 -91.81971894663491,25.785821119710832 -91.14984596553114,23.285821119710395 -91.81971894658668,20.785821119697033 -93.64984596549627,18.955694100752133 -96.14984596549671,18.28582111964836 -98.64984596551007,18.955694100703898 -100.47997298445496,20.785821119613487 -101.14984596555874,23.285821119613924 -100.4799729845032,25.785821119627286 -98.64984596559361,27.615948138572186 -96.14984596559317,28.28582111967596" stroke="#ffa500" stroke-linecap="round" stroke-linejoin="round"/><polyline fill="none" points="47.24060652418802,11.225202218381057 49.74060652420138,10.55532923732552 51.57073354314628,8.725202218415932 52.240606524250055,6.225202218415495 51.57073354319452,3.7252022184021327 49.740606524284935,1.8950751994572321 47.2406065242845,1.2252022183534572 44.740606524271136,1.8950751994089932 42.91047950532624,3.7252022183185804 42.24060652422246,6.225202218319017 42.91047950527799,8.725202218332381 44.74060652418758,10.555329237277283 47.24060652418801,11.225202218381058" stroke="#ffa500" stroke-linecap="round" stroke-linejoin="round"/><polyline fill="none" points="249.3678267529866,-109.50210709864334 251.86782675299995,-110.17198007969887 253.69795377194484,-112.00210709860846 254.3678267530486,-114.5021070986089 253.69795377199307,-117.00210709862226 251.86782675308348,-118.83223411756717 249.36782675308305,-119.50210709867095 246.8678267530697,-118.83223411761541 245.0376997341248,-117.00210709870584 244.36782675302103,-114.5021070987054 245.03769973407657,-112.00210709869204 246.86782675298616,-110.17198007974713 249.3678267529866,-109.50210709864335" stroke="#ffa500" stroke-linecap="round" stroke-linejoin="round"/><polyline fill="none" points="66.64070477911407,27.098664411748988 69.14070477912743,26.428791430693455 70.97083179807234,24.59866441178387 71.64070477917612,22.09866441178343 70.97083179812059,19.598664411770066 69.140704779211,17.76853739282516 66.64070477921057,17.09866441172138 64.1407047791972,17.76853739277691 62.310577760252286,19.598664411686496 61.64070477914851,22.098664411686933 62.31057776020404,24.598664411700298 64.14070477911362,26.428791430645205 66.64070477911406,27.098664411748988" stroke="#ffa500" stroke-linecap="round" stroke-linejoin="round"/><polyline fill="none" points="49.08293497234305,-21.80138772621257 51.58293497235641,-22.4712607072681 53.41306199130132,-24.301387726177687 54.082934972405106,-26.801387726178124 53.41306199134958,-29.301387726191493 51.58293497243999,-31.1315147451364 49.08293497243956,-31.801387726240183 46.582934972426195,-31.131514745184653 44.75280795348129,-29.30138772627507 44.0829349723775,-26.801387726274633 44.75280795343303,-24.301387726261265 46.58293497234261,-22.471260707316354 49.082934972343054,-21.801387726212567" stroke="#ffa500" stroke-linecap="round" stroke-linejoin="round"/><polyline fill="none" points="-162.94720155632533,-94.7278253735628 -160.44720155631197,-95.39769835461833 -158.61707453736705,-97.2278253735279 -157.94720155626325,-99.72782537352835 -158.61707453731879,-102.22782537354172 -160.44720155622838,-104.05795239248663 -162.9472015562288,-104.72782537359042 -165.44720155624216,-104.0579523925349 -167.27732857518708,-102.22782537362532 -167.94720155629088,-99.72782537362488 -167.27732857523534,-97.22782537361151 -165.44720155632575,-95.3976983546666 -162.94720155632533,-94.72782537356281" stroke="#ffa500" stroke-linecap="round" stroke-linejoin="round"/><polyline fill="none" points="49.817201914408784,-13.737277840675652 52.31720191442216,-14.407150821731177 54.14732893336707,-16.237277840640758 54.81720191447086,-18.737277840641195 54.14732893341533,-21.237277840654563 52.31720191450575,-23.067404859599478 49.81720191450532,-23.737277840703268 47.317201914491946,-23.067404859647745 45.48707489554703,-21.237277840738166 44.81720191444324,-18.73727784073773 45.48707489549876,-16.23727784072436 47.31720191440834,-14.407150821779446 49.81720191440877,-13.737277840675656" stroke="#ffa500" stroke-linecap="round" stroke-linejoin="round"/><polyline fill="none" points="-175.68879095321537,-62.15077076377959 -173.18879095320202,-62.82064374483511 -171.3586639342571,-64.65077076374469 -170.6887909531533,-67.15077076374513 -171.35866393420883,-69.6507707637585 -173.18879095311843,-71.48089778270342 -175.68879095311885,-72.15077076380722 -178.1887909531322,-71.4808977827517 -180.01891797207713,-69.65077076384212 -180.68879095318093,-67.15077076384168 -180.0189179721254,-64.6507707638283 -178.18879095321583,-62.82064374488339 -175.6887909532154,-62.1507707637796" stroke="#008000" stroke-linecap="round" stroke-linejoin="round"/><polyline fill="none" points="-130.86484879294085,10.137896851213588 -128.3648487929275,9.468023870158069 -126.53472177398257,7.637896851248491 -125.86484879287877,5.137896851248054 -126.5347217739343,2.637896851234682 -128.36484879284387,0.8077698322897642 -130.8648487928443,0.13789685118596962 -133.36484879285769,0.8077698322414888 -135.1949758118026,2.6378968511510665 -135.8648487929064,5.1378968511515035 -135.1949758118509,7.637896851164877 -133.36484879294133,9.468023870109796 -130.8648487929409,10.137896851213592" stroke="#ffa500" stroke-linecap="round" stroke-linejoin="round"/><polyline fill="none" points="-54.12766154297662,-7.4049073537907795 -51.627661542963246,-8.074780334846297 -49.797534524018324,-9.904907353755874 -49.12766154291453,-12.404907353756311 -49.79753452397005,-14.904907353769685 -51.62766154287963,-16.735034372714605 -54.12766154288007,-17.404907353818402 -56.62766154289344,-16.735034372762886 -58.45778856183836,-14.904907353853309 -59.127661542942164,-12.404907353852872 -58.457788561886645,-9.904907353839498 -56.627661542977066,-8.074780334894577 -54.127661542976625,-7.404907353790778" stroke="#ffa500" stroke-linecap="round" stroke-linejoin="round"/><polyline fill="none" points="-108.79248078025113,-1.2101111098037656 -106.29248078023775,-1.8799840908592813 -104.46235376129283,-3.7101111097688575 -103.79248078018904,-6.210111109769295 -104.46235376124456,-8.710111109782671 -106.29248078015414,-10.540238128727594 -108.79248078015458,-11.210111109831395 -111.29248078016795,-10.540238128775881 -113.12260779911287,-8.710111109866306 -113.79248078021668,-6.210111109865869 -113.12260779916116,-3.7101111098524933 -111.29248078025158,-1.8799840909075696 -108.79248078025114,-1.2101111098037678" stroke="#ffa500" stroke-linecap="round" stroke-linejoin="round"/><polyline fill="none" points="-191.4076962163983,-18.218288910981602 -188.90769621638492,-18.888161892037115 -187.07756919744,-20.71828891094669 -186.4076962163362,-23.218288910947127 -187.0775691973917,-25.718288910960503 -188.90769621630128,-27.548415929905428 -191.4076962163017,-28.218288911009232 -193.9076962163151,-27.54841592995372 -195.73782323526,-25.718288911044148 -196.4076962163638,-23.21828891104371 -195.7378232353083,-20.718288911030335 -193.90769621639873,-18.88816189208541 -191.4076962163983,-18.218288910981606" stroke="#00f" stroke-linecap="round" stroke-linejoin="round"/><polyline fill="none" points="-178.99351616411516,-31.726816571515137 -176.49351616410178,-32.39668955257065 -174.66338914515686,-34.22681657148022 -173.99351616405306,-36.726816571480654 -174.66338914510857,-39.226816571494034 -176.49351616401813,-41.05694359043896 -178.99351616401856,-41.72681657154277 -181.49351616403194,-41.05694359048726 -183.32364318297687,-39.226816571577686 -183.99351616408066,-36.726816571577245 -183.32364318302515,-34.226816571563866 -181.4935161641156,-32.39668955261894 -178.99351616411516,-31.72681657151513" stroke="#00f" stroke-linecap="round" stroke-linejoin="round"/><polyline fill="none" points="-168.07864828194195,-20.57445033199953 -165.57864828192857,-21.244323313055038 -163.74852126298364,-23.07445033196461 -163.07864828187982,-25.574450331965046 -163.74852126293533,-28.074450331978426 -165.5786482818449,-29.904577350923354 -168.07864828184532,-30.574450332027162 -170.5786482818587,-29.904577350971657 -172.40877530080363,-28.07445033206209 -173.07864828190745,-25.57445033206165 -172.40877530085194,-23.074450332048272 -170.57864828194238,-21.24432331310334 -168.07864828194195,-20.57445033199953" stroke="#ffa500" stroke-linecap="round" stroke-linejoin="round"/><polyline fill="none" points="-89.78085829816473,39.560998622898424 -87.28085829815134,38.89112564184292 -85.45073127920641,37.06099862293335 -84.7808582981026,34.560998622932914 -85.4507312791581,32.060998622919534 -87.28085829806767,30.230871603974602 -89.78085829806811,29.56099862287079 -92.2808582980815,30.230871603926296 -94.11098531702643,32.06099862283587 -94.78085829813024,34.5609986228363 -94.11098531707474,37.06099862284968 -92.28085829816517,38.891125641794616 -89.78085829816473,39.56099862289843" stroke="#ffa500" stroke-linecap="round" stroke-linejoin="round"/><polyline fill="none" points="-40.31301578317946,59.52759821523583 -37.81301578316608,58.85772523418032 -35.982888764221144,57.02759821527076 -35.31301578311733,54.52759821527032 -35.982888764172834,52.02759821525694 -37.8130157830824,50.197471196312 -40.31301578308283,49.52759821520819 -42.81301578309621,50.197471196263685 -44.64314280204115,52.02759821517325 -45.31301578314496,54.52759821517368 -44.643142802089464,57.02759821518707 -42.8130157831799,58.857725234132005 -40.313015783179466,59.52759821523582" stroke="#ffa500" stroke-linecap="round" stroke-linejoin="round"/><polyline fill="none" points="-114.45612254557223,-38.15736597261776 -111.95612254555884,-38.82723895367326 -110.1259955266139,-40.657365972582824 -109.45612254551008,-43.157365972583264 -110.12599552656559,-45.65736597259665 -111.95612254547515,-47.487492991541586 -114.4561225454756,-48.1573659726454 -116.95612254548898,-47.4874929915899 -118.78624956443392,-45.65736597268034 -119.45612254553774,-43.1573659726799 -118.78624956448225,-40.65736597266651 -116.95612254557268,-38.82723895372157 -114.45612254557224,-38.15736597261775" stroke="#00f" stroke-linecap="round" stroke-linejoin="round"/><polyline fill="none" points="-174.34150608594146,-62.104715944155885 -171.84150608592807,-62.77458892521138 -170.01137906698312,-64.60471594412095 -169.3415060858793,-67.1047159441214 -170.0113790669348,-69.60471594413478 -171.84150608584437,-71.43484296307972 -174.3415060858448,-72.10471594418354 -176.84150608585819,-71.43484296312805 -178.67163310480313,-69.60471594421848 -179.34150608590696,-67.10471594421804 -178.67163310485145,-64.60471594420466 -176.8415060859419,-62.774588925259714 -174.34150608594146,-62.10471594415589" stroke="#00f" stroke-linecap="round" stroke-linejoin="round"/><polyline fill="none" points="-81.54504314783298,105.11764695605211 -79.0450431478196,104.44777397499662 -77.21491612887465,102.61764695608706 -76.54504314777083,100.11764695608662 -77.21491612882632,97.61764695607323 -79.04504314773588,95.78751993712828 -81.54504314773632,95.11764695602446 -84.04504314774971,95.78751993707995 -85.87517016669466,97.61764695598951 -86.54504314779848,100.11764695598995 -85.87517016674299,102.61764695600334 -84.04504314783343,104.44777397494829 -81.54504314783298,105.11764695605211" stroke="#ffa500" stroke-linecap="round" stroke-linejoin="round"/><polyline fill="none" points="-154.21662253422264,-27.952147448571203 -151.71662253420925,-28.622020429626694 -149.8864955152643,-30.452147448536255 -149.21662253416048,-32.95214744853669 -149.88649551521598,-35.45214744855008 -151.71662253412555,-37.28227446749503 -154.21662253412597,-37.95214744859886 -156.71662253413936,-37.28227446754337 -158.5467495530843,-35.45214744863381 -159.21662253418813,-32.95214744863337 -158.54674955313266,-30.45214744861998 -156.7166225342231,-28.622020429675032 -154.21662253422267,-27.952147448571203" stroke="#ffa500" stroke-linecap="round" stroke-linejoin="round"/><polyline fill="none" points="-164.7324760796139,-77.07652913002325 -162.2324760796005,-77.74640211107874 -160.40234906065555,-79.5765291299883 -159.73247607955173,-82.07652912998874 -160.4023490606072,-84.57652913000213 -162.23247607951677,-86.40665614894708 -164.7324760795172,-87.07652913005091 -167.23247607953058,-86.40665614899542 -169.06260309847553,-84.57652913008586 -169.73247607957936,-82.07652913008542 -169.06260309852388,-79.57652913007203 -167.23247607961432,-77.74640211112708 -164.7324760796139,-77.07652913002325" stroke="#f00" stroke-linecap="round" stroke-linejoin="round"/><polyline fill="none" points="-103.54770958988698,-54.046278019744214 -101.04770958987359,-54.7161510007997 -99.21758257092864,-56.546278019709256 -98.5477095898248,-59.04627801970969 -99.2175825708803,-61.54627801972308 -101.04770958978986,-63.37640503866803 -103.5477095897903,-64.04627801977186 -106.04770958980369,-63.37640503871638 -107.87783660874864,-61.54627801980682 -108.54770958985247,-59.04627801980638 -107.87783660879698,-56.546278019792986 -106.04770958988742,-54.716151000848036 -103.54770958988698,-54.0462780197442" stroke="#008000" stroke-linecap="round" stroke-linejoin="round"/><polyline fill="none" points="-138.6532714358944,39.972679128651805 -136.153271435881,39.30280614759632 -134.32314441693606,37.472679128686764 -133.65327143583224,34.97267912868632 -134.32314441688771,32.47267912867293 -136.15327143579728,30.642552109727976 -138.6532714357977,29.97267912862414 -141.1532714358111,30.642552109679624 -142.98339845475604,32.47267912858918 -143.6532714358599,34.97267912858962 -142.98339845480442,37.47267912860301 -141.15327143589485,39.30280614754797 -138.65327143589442,39.972679128651805" stroke="#ffa500" stroke-linecap="round" stroke-linejoin="round"/><polyline fill="none" points="-146.73067251364887,31.024831285162676 -144.23067251363548,30.354958304107196 -142.40054549469053,28.52483128519764 -141.73067251358668,26.0248312851972 -142.40054549464216,23.524831285183808 -144.23067251355172,21.69470426623885 -146.73067251355215,21.02483128513501 -149.23067251356554,21.69470426619049 -151.0607995325105,23.52483128510005 -151.73067251361434,26.024831285100486 -151.06079953255886,28.524831285113883 -149.2306725136493,30.35495830405884 -146.73067251364887,31.02483128516268" stroke="#ffa500" stroke-linecap="round" stroke-linejoin="round"/><polyline fill="none" points="-97.40673578012562,86.03607220312313 -94.90673578011221,85.36619922206765 -93.07660876116725,83.5360722031581 -92.40673578006341,81.03607220315766 -93.07660876111889,78.53607220314426 -94.90673578002844,76.7059451841993 -97.40673578002888,76.03607220309546 -99.90673578004228,76.70594518415093 -101.73686279898725,78.53607220306048 -102.40673578009108,81.03607220306093 -101.7368627990356,83.53607220307433 -99.90673578012606,85.36619922201929 -97.40673578012562,86.03607220312313" stroke="#00f" stroke-linecap="round" stroke-linejoin="round"/><polyline fill="none" points="-169.6658210359557,-7.109629510810823 -167.16582103594232,-7.7795024918663 -165.33569401699737,-9.609629510775854 -164.66582103589352,-12.10962951077629 -165.335694016949,-14.609629510789688 -167.16582103585856,-16.439756529734648 -169.66582103585898,-17.10962951083849 -172.16582103587237,-16.439756529783015 -173.99594805481732,-14.609629510873463 -174.66582103592117,-12.109629510873026 -173.9959480548657,-9.609629510859627 -172.16582103595613,-7.7795024919146645 -169.6658210359557,-7.1096295108108185" stroke="#00f" stroke-linecap="round" stroke-linejoin="round"/><polyline fill="none" points="-101.64963023110415,39.976388316537175 -99.14963023109075,39.3065153354817 -97.31950321214579,37.47638831657215 -96.64963023104194,34.97638831657171 -97.31950321209742,32.47638831655831 -99.14963023100697,30.646261297613343 -101.64963023100741,29.976388316509496 -104.14963023102081,30.64626129756497 -105.97975724996577,32.47638831647452 -106.64963023106962,34.97638831647495 -105.97975725001415,37.476388316488354 -104.1496302311046,39.30651533543332 -101.64963023110415,39.97638831653717" stroke="#ffa500" stroke-linecap="round" stroke-linejoin="round"/><polyline fill="none" points="-71.43979259783282,-41.262747744076684 -68.93979259781942,-41.93262072513215 -67.10966557887446,-43.762747744041704 -66.4397925977706,-46.262747744042144 -67.10966557882608,-48.762747744055545 -68.93979259773563,-50.59287476300051 -71.43979259773607,-51.26274774410436 -73.93979259774947,-50.59287476304889 -75.76991961669444,-48.76274774413934 -76.43979259779829,-46.262747744138906 -75.76991961674281,-43.762747744125505 -73.93979259783326,-41.93262072518054 -71.43979259783282,-41.26274774407669" stroke="#00f" stroke-linecap="round" stroke-linejoin="round"/><polyline fill="none" points="-150.90689984072858,-64.82271627364707 -148.40689984071517,-65.49258925470255 -146.5767728217702,-67.3227162736121 -145.90689984066634,-69.82271627361254 -146.57677282172182,-72.32271627362594 -148.40689984063135,-74.1528432925709 -150.90689984063178,-74.82271627367476 -153.4068998406452,-74.1528432926193 -155.23702685959017,-72.32271627370974 -155.90689984069402,-69.8227162737093 -155.23702685963855,-67.3227162736959 -153.406899840729,-65.49258925475094 -150.90689984072858,-64.82271627364709" stroke="#ffa500" stroke-linecap="round" stroke-linejoin="round"/><polyline fill="none" points="-177.8071909802442,5.186665408382848 -175.30719098023079,4.516792427327381 -173.4770639612858,2.6866654084178334 -172.80719098018196,0.18666540841739643 -173.47706396123743,-2.3133345915960066 -175.30719098014697,-4.143461610540978 -177.8071909801474,-4.813334591644834 -180.3071909801608,-4.143461610589368 -182.1373179991058,-2.313334591679821 -182.80719098020964,0.18666540832061607 -182.13731799915416,2.6866654083340196 -180.30719098024463,4.516792427278991 -177.8071909802442,5.186665408382849" stroke="#ffa500" stroke-linecap="round" stroke-linejoin="round"/><polyline fill="none" points="-186.86562030383405,-79.27076061280033 -184.36562030382063,-79.9406335938558 -182.53549328487566,-81.77076061276534 -181.8656203037718,-84.27076061276578 -182.53549328482728,-86.77076061277918 -184.36562030373682,-88.60088763172416 -186.86562030373724,-89.27076061282803 -189.36562030375066,-88.60088763177257 -191.19574732269564,-86.77076061286301 -191.8656203037995,-84.27076061286257 -191.195747322744,-81.77076061284917 -189.36562030383448,-79.9406335939042 -186.86562030383405,-79.27076061280033" stroke="#ffa500" stroke-linecap="round" stroke-linejoin="round"/><polyline fill="none" points="-181.98761412571778,-79.05745265621802 -179.48761412570437,-79.72732563727348 -177.6574871067594,-81.55745265618303 -176.98761412565554,-84.05745265618347 -177.657487106711,-86.55745265619687 -179.48761412562052,-88.38757967514185 -181.98761412562095,-89.05745265624572 -184.48761412563437,-88.38757967519025 -186.31774114457934,-86.5574526562807 -186.9876141256832,-84.05745265628026 -186.31774114462775,-81.55745265626686 -184.4876141257182,-79.72732563732188 -181.98761412571778,-79.05745265621802" stroke="#00f" stroke-linecap="round" stroke-linejoin="round"/><polyline fill="none" points="-119.16740464539322,39.61248231470876 -116.66740464537982,38.942609333653294 -114.83727762643484,37.11248231474375 -114.16740464533098,34.61248231474331 -114.83727762638644,32.1124823147299 -116.66740464529599,30.282355295784924 -119.16740464529643,29.61248231468106 -121.66740464530983,30.28235529573652 -123.49753166425481,32.11248231464606 -124.16740464535867,34.6124823146465 -123.49753166430321,37.11248231465991 -121.66740464539367,38.942609333604885 -119.16740464539323,39.61248231470875" stroke="#ffa500" stroke-linecap="round" stroke-linejoin="round"/><polyline fill="none" points="-181.79329639820287,-99.6683986940962 -179.29329639818945,-100.33827167515166 -177.46316937924448,-102.1683986940612 -176.7932963981406,-104.66839869406164 -177.46316937919605,-107.16839869407505 -179.29329639810558,-108.99852571302003 -181.793296398106,-109.6683986941239 -184.29329639811942,-108.99852571306843 -186.1234234170644,-107.1683986941589 -186.79329639816828,-104.66839869415845 -186.12342341711283,-102.16839869414504 -184.2932963982033,-100.33827167520006 -181.79329639820287,-99.6683986940962" stroke="#ffa500" stroke-linecap="round" stroke-linejoin="round"/><polyline fill="none" points="59.305954510776296,17.559493319072402 61.805954510789704,16.889620338016947 63.63608152973469,15.059493319107407 64.30595451083856,12.55949331910697 63.636081529783105,10.05949331909356 61.80595451087356,8.229366300148577 59.30595451087312,7.559493319044707 56.80595451085971,8.22936630010016 54.97582749191473,10.0594933190097 54.30595451081086,12.559493319010137 54.97582749186631,15.059493319023549 56.80595451077585,16.889620337968534 59.30595451077629,17.559493319072406" stroke="#ffa500" stroke-linecap="round" stroke-linejoin="round"/><polyline fill="none" points="-114.16264377745509,14.24718798944547 -111.66264377744167,13.577315008390018 -109.8325167584967,11.747187989480478 -109.16264377739282,9.247187989480041 -109.83251675844826,6.74718798946663 -111.6626437773578,4.917060970521645 -114.16264377735824,4.247187989417772 -116.66264377737166,4.917060970473223 -118.49277079631665,6.747187989382761 -119.16264377742053,9.247187989383198 -118.49277079636508,11.74718798939661 -116.66264377745554,13.577315008341596 -114.1626437774551,14.24718798944547" stroke="#00f" stroke-linecap="round" stroke-linejoin="round"/><polyline fill="none" points="-161.76353319810335,-41.84138328988817 -159.26353319808993,-42.51125627094362 -157.43340617914495,-44.341383289853155 -156.76353319804107,-46.841383289853596 -157.43340617909652,-49.34138328986701 -159.26353319800606,-51.171510308811996 -161.76353319800648,-51.841383289915875 -164.2635331980199,-51.17151030886043 -166.09366021696488,-49.34138328995089 -166.76353319806876,-46.84138328995045 -166.0936602170133,-44.341383289937035 -164.26353319810377,-42.51125627099204 -161.76353319810335,-41.841383289888164" stroke="#00f" stroke-linecap="round" stroke-linejoin="round"/><polyline fill="none" points="-173.26997293485158,-64.05005458493385 -170.76997293483817,-64.7199275659893 -168.9398459158932,-66.55005458489883 -168.2699729347893,-69.05005458489927 -168.93984591584476,-71.55005458491269 -170.7699729347543,-73.38018160385768 -173.26997293475472,-74.05005458496156 -175.76997293476813,-73.38018160390611 -177.6000999537131,-71.55005458499657 -178.269972934817,-69.05005458499613 -177.60009995376154,-66.55005458498272 -175.769972934852,-64.71992756603773 -173.26997293485158,-64.05005458493385" stroke="#00f" stroke-linecap="round" stroke-linejoin="round"/><polyline fill="none" points="-89.4488360780495,103.48461013111296 -86.94883607803608,102.81473715005751 -85.11870905909109,100.98461013114797 -84.44883607798721,98.48461013114753 -85.11870905904266,95.98461013113412 -86.9488360779522,94.15448311218913 -89.44883607795263,93.48461013108525 -91.94883607796605,94.1544831121407 -93.77896309691104,95.98461013105023 -94.44883607801492,98.48461013105067 -93.77896309695947,100.98461013106409 -91.94883607804994,102.81473715000908 -89.4488360780495,103.48461013111296" stroke="#ffa500" stroke-linecap="round" stroke-linejoin="round"/><polyline fill="none" points="-205.68469748056754,-69.36981145874957 -203.18469748055412,-70.03968443980501 -201.35457046160911,-71.86981145871455 -200.68469748050524,-74.36981145871499 -201.35457046156068,-76.8698114587284 -203.18469748047022,-78.6999384776734 -205.68469748047065,-79.36981145877728 -208.18469748048406,-78.69993847772183 -210.01482449942907,-76.8698114588123 -210.68469748053295,-74.36981145881185 -210.0148244994775,-71.86981145879844 -208.18469748056796,-70.03968443985345 -205.68469748056754,-69.36981145874957" stroke="#ffa500" stroke-linecap="round" stroke-linejoin="round"/><polyline fill="none" points="-54.06482403975746,67.95571834217557 -51.564824039744046,67.28584536112014 -49.73469702079905,65.4557183422106 -49.06482403969516,62.95571834221016 -49.7346970207506,60.45571834219675 -51.56482403966013,58.62559132325175 -54.06482403966057,57.95571834214786 -56.564824039673994,58.6255913232033 -58.39495105861899,60.45571834211283 -59.06482403972288,62.95571834211327 -58.39495105866744,65.45571834212669 -56.56482403975791,67.28584536107168 -54.06482403975747,67.95571834217557" stroke="#ffa500" stroke-linecap="round" stroke-linejoin="round"/><polyline fill="none" points="-98.82043847426048,104.91036779931903 -96.32043847424707,104.2404948182636 -94.49031145530208,102.41036779935406 -93.82043847419818,99.91036779935362 -94.49031145525362,97.41036779934021 -96.32043847416315,95.5802407803952 -98.8204384741636,94.91036779929131 -101.32043847417701,95.58024078034674 -103.15056549312202,97.41036779925628 -103.82043847422591,99.91036779925672 -103.15056549317048,102.41036779927013 -101.32043847426094,104.24049481821514 -98.8204384742605,104.91036779931903" stroke="#ffa500" stroke-linecap="round" stroke-linejoin="round"/><polyline fill="none" points="-108.03269322986819,-27.56584604070533 -105.53269322985477,-28.235719021760765 -103.70256621090977,-30.065846040670294 -103.03269322980587,-32.565846040670735 -103.7025662108613,-35.06584604068416 -105.53269322977084,-36.895973059629156 -108.03269322977128,-37.56584604073305 -110.5326932297847,-36.895973059677615 -112.3628202487297,-35.065846040768086 -113.0326932298336,-32.56584604076765 -112.36282024877816,-30.06584604075423 -110.53269322986864,-28.235719021809228 -108.0326932298682,-27.565846040705335" stroke="#00f" stroke-linecap="round" stroke-linejoin="round"/><polyline fill="none" points="-201.29945392556107,-95.3353051207384 -198.79945392554765,-96.00517810179383 -196.96932690660265,-97.83530512070335 -196.29945392549874,-100.3353051207038 -196.96932690655416,-102.83530512071722 -198.7994539254637,-104.66543213966223 -201.29945392546412,-105.33530512076612 -203.79945392547754,-104.66543213971069 -205.62958094442254,-102.83530512080117 -206.29945392552645,-100.33530512080073 -205.62958094447103,-97.8353051207873 -203.7994539255615,-96.00517810184229 -201.29945392556107,-95.3353051207384" stroke="#00f" stroke-linecap="round" stroke-linejoin="round"/><polyline fill="none" points="-155.1695497562162,-94.91341901609452 -152.6695497562028,-95.58329199714996 -150.8394227372578,-97.41341901605948 -150.16954975615388,-99.91341901605992 -150.8394227372093,-102.41341901607335 -152.66954975611884,-104.24354603501835 -155.16954975611927,-104.91341901612225 -157.66954975613268,-104.24354603506681 -159.4996767750777,-102.41341901615729 -160.1695497561816,-99.91341901615685 -159.49967677512618,-97.41341901614342 -157.66954975621664,-95.58329199719842 -155.1695497562162,-94.91341901609452" stroke="#ffa500" stroke-linecap="round" stroke-linejoin="round"/><polyline fill="none" points="-129.6422506374926,37.840367407264594 -127.14225063747917,37.17049442620917 -125.31212361853416,35.340367407299645 -124.64225063743027,32.84036740729921 -125.3121236184857,30.340367407285786 -127.14225063739522,28.510240388340776 -129.64225063739565,27.840367407236876 -132.14225063740906,28.510240388292303 -133.97237765635407,30.34036740720183 -134.64225063745798,32.840367407202265 -133.97237765640256,35.340367407215695 -132.14225063749302,37.17049442616071 -129.6422506374926,37.84036740726461" stroke="#ffa500" stroke-linecap="round" stroke-linejoin="round"/><polyline fill="none" points="-99.78444279282041,93.6370178781441 -97.28444279280698,92.96714489708869 -95.45431577386198,91.13701787817917 -94.78444279275807,88.63701787817872 -95.45431577381349,86.1370178781653 -97.28444279272301,84.30689085922029 -99.78444279272345,83.63701787811638 -102.28444279273688,84.3068908591718 -104.11456981168189,86.13701787808132 -104.7844427927858,88.63701787808176 -104.11456981173038,91.1370178780952 -102.28444279282085,92.96714489704021 -99.78444279282041,93.63701787814412" stroke="#ffa500" stroke-linecap="round" stroke-linejoin="round"/><polyline fill="none" points="-141.87985199635793,15.14529973406521 -139.3798519963445,14.475426753009787 -137.5497249773995,12.645299734100263 -136.8798519962956,10.145299734099826 -137.54972497735102,7.645299734086397 -139.37985199626056,5.815172715141381 -141.87985199626098,5.145299734037475 -144.3798519962744,5.815172715092897 -146.2099790152194,7.645299734002419 -146.8798519963233,10.145299734002858 -146.2099790152679,12.645299734016287 -144.37985199635835,14.475426752961305 -141.87985199635793,15.145299734065212" stroke="#00f" stroke-linecap="round" stroke-linejoin="round"/><polyline fill="none" points="-176.8941955668482,-5.708102262612828 -174.39419556683475,-6.377975243668249 -172.56406854788975,-8.208102262577771 -171.89419556678584,-10.70810226257821 -172.56406854784126,-13.208102262591641 -174.39419556675077,-15.038229281536658 -176.8941955667512,-15.708102262640567 -179.39419556676464,-15.038229281585147 -181.22432258570964,-13.208102262675627 -181.89419556681355,-10.70810226267519 -181.22432258575813,-8.20810226266176 -179.39419556684862,-6.37797524371674 -176.8941955668482,-5.7081022626128295" stroke="#ffa500" stroke-linecap="round" stroke-linejoin="round"/><polyline fill="none" points="-168.56228839598305,-88.1404158191119 -166.0622883959696,-88.81028880016731 -164.2321613770246,-90.64041581907684 -163.5622883959207,-93.14041581907728 -164.2321613769761,-95.6404158190907 -166.06228839588562,-97.47054283803573 -168.56228839588604,-98.14041581913963 -171.0622883958995,-97.47054283808421 -172.89241541484452,-95.64041581917469 -173.56228839594843,-93.14041581917425 -172.892415414893,-90.64041581916082 -171.0622883959835,-88.8102888002158 -168.56228839598307,-88.1404158191119" stroke="#00f" stroke-linecap="round" stroke-linejoin="round"/><polyline fill="none" points="-194.61430671295506,-88.68331900496271 -192.1143067129416,-89.35319198601813 -190.28417969399658,-91.18331900492765 -189.61430671289267,-93.6833190049281 -190.2841796939481,-96.18331900494152 -192.1143067128576,-98.01344602388654 -194.61430671285802,-98.68331900499047 -197.11430671287147,-98.01344602393505 -198.9444337318165,-96.18331900502552 -199.6143067129204,-93.68331900502508 -198.944433731865,-91.18331900501165 -197.11430671295548,-89.35319198606663 -194.61430671295506,-88.68331900496271" stroke="#ffa500" stroke-linecap="round" stroke-linejoin="round"/><polyline fill="none" points="-175.93375485574492,-77.02666025571772 -173.43375485573148,-77.69653323677313 -171.60362783678644,-79.52666025568266 -170.93375485568254,-82.0266602556831 -171.60362783673796,-84.52666025569653 -173.43375485564746,-86.35678727464155 -175.9337548556479,-87.02666025574547 -178.43375485566133,-86.35678727469006 -180.26388187460637,-84.52666025578054 -180.93375485571028,-82.0266602557801 -180.26388187465486,-79.52666025576666 -178.43375485574535,-77.69653323682164 -175.93375485574492,-77.02666025571772" stroke="#008000" stroke-linecap="round" stroke-linejoin="round"/><polyline fill="none" points="-48.2598856024021,61.532306846936656 -45.759885602388664,60.86243386588124 -43.929758583443636,59.03230684697173 -43.259885602339715,56.53230684697129 -43.92975858339513,54.03230684695785 -45.75988560230464,52.202179828012824 -48.25988560230508,51.5323068469089 -50.75988560231852,52.202179827964315 -52.59001262126355,54.03230684687383 -53.25988560236747,56.53230684687427 -52.590012621312056,59.03230684688771 -50.75988560240254,60.862433865832735 -48.2598856024021,61.532306846936656" stroke="#ffa500" stroke-linecap="round" stroke-linejoin="round"/><polyline fill="none" points="58.059694732954725,2.539622134785292 60.55969473296816,1.869749153729883 62.38982175191319,0.03962213482036714 63.05969473301711,-2.4603778651800727 62.389821751961705,-4.960377865193513 60.55969473305219,-6.790504884138544 58.05969473305175,-7.460377865242468 55.55969473303831,-6.79050488418706 53.72956771409328,-4.960377865277545 53.05969473298936,-2.4603778652771053 53.72956771404476,0.039622134736334136 55.55969473295428,1.869749153681366 58.05969473295472,2.539622134785291" stroke="#ffa500" stroke-linecap="round" stroke-linejoin="round"/><polyline fill="none" points="-176.07616091827114,-88.12994052387454 -173.5761609182577,-88.79981350492994 -171.74603389931266,-90.62994052383945 -171.07616091820873,-93.12994052383989 -171.74603389926415,-95.62994052385334 -173.57616091817366,-97.46006754279837 -176.07616091817408,-98.12994052390229 -178.57616091818753,-97.46006754284689 -180.40628793713256,-95.62994052393738 -181.0761609182365,-93.12994052393694 -180.4062879371811,-90.6299405239235 -178.5761609182716,-88.79981350497846 -176.07616091827117,-88.12994052387454" stroke="#ffa500" stroke-linecap="round" stroke-linejoin="round"/><polyline fill="none" points="-204.6954623343747,-66.61490279944971 -202.19546233436125,-67.28477578050511 -200.36533531541622,-69.11490279941462 -199.69546233431228,-71.61490279941506 -200.36533531536767,-74.1149027994285 -202.19546233427718,-75.94502981837354 -204.6954623342776,-76.61490279947748 -207.19546233429105,-75.94502981842207 -209.0255893532361,-74.11490279951256 -209.69546233434002,-71.61490279951212 -209.02558935328463,-69.11490279949868 -207.19546233437512,-67.28477578055364 -204.6954623343747,-66.61490279944971" stroke="#00f" stroke-linecap="round" stroke-linejoin="round"/><polyline fill="none" points="-170.0409554449092,-108.92763068642766 -167.54095544489576,-109.59750366748307 -165.71082842595072,-111.42763068639258 -165.0409554448468,-113.92763068639302 -165.71082842590218,-116.42763068640646 -167.5409554448117,-118.2577577053515 -170.0409554448121,-118.92763068645543 -172.54095544482556,-118.25775770540002 -174.3710824637706,-116.42763068649052 -175.04095544487453,-113.92763068649008 -174.37108246381914,-111.42763068647663 -172.54095544490963,-109.5975036675316 -170.0409554449092,-108.92763068642766" stroke="#ffa500" stroke-linecap="round" stroke-linejoin="round"/><polyline fill="none" points="-165.0583605280463,-79.33314886396826 -162.55836052803286,-80.00302184502367 -160.72823350908783,-81.83314886393318 -160.0583605279839,-84.33314886393362 -160.72823350903928,-86.83314886394706 -162.5583605279488,-88.6632758828921 -165.05836052794922,-89.33314886399603 -167.55836052796266,-88.66327588294064 -169.3884875469077,-86.83314886403113 -170.05836052801163,-84.33314886403069 -169.38848754695624,-81.83314886401725 -167.55836052804673,-80.0030218450722 -165.0583605280463,-79.33314886396826" stroke="#008000" stroke-linecap="round" stroke-linejoin="round"/><polyline fill="none" points="-124.2806179553156,27.12394797102986 -121.78061795530216,26.454074989974462 -119.95049093635711,24.623947971064954 -119.28061795525318,22.123947971064513 -119.95049093630857,19.623947971051066 -121.78061795521808,17.793820952106024 -124.28061795521852,17.123947971002085 -126.78061795523196,17.79382095205748 -128.610744974177,19.623947970966988 -129.28061795528095,22.12394797096743 -128.61074497422555,24.623947970980876 -126.78061795531605,26.45407498992592 -124.2806179553156,27.12394797102986" stroke="#ffa500" stroke-linecap="round" stroke-linejoin="round"/><polyline fill="none" points="-188.12198776740848,-12.470087458412927 -185.62198776739504,-13.139960439468322 -183.79186074845,-14.97008745837783 -183.12198776734607,-17.47008745837827 -183.79186074840146,-19.970087458391717 -185.62198776731097,-21.800214477336763 -188.1219877673114,-22.4700874584407 -190.62198776732484,-21.800214477385307 -192.45211478626987,-19.9700874584758 -193.1219877673738,-17.47008745847536 -192.45211478631842,-14.970087458461911 -190.6219877674089,-13.139960439516866 -188.12198776740848,-12.470087458412923" stroke="#ffa500" stroke-linecap="round" stroke-linejoin="round"/><polyline fill="none" points="-92.3255207724952,-63.39441794933475 -89.82552077248175,-64.06429093039014 -87.9953937535367,-65.89441794929965 -87.32552077243277,-68.39441794930009 -87.99539375348816,-70.89441794931354 -89.82552077239767,-72.72454496825858 -92.32552077239811,-73.39441794936253 -94.82552077241155,-72.72454496830714 -96.6556477913566,-70.89441794939763 -97.32552077246055,-68.3944179493972 -96.65564779140516,-65.89441794938375 -94.82552077249565,-64.0642909304387 -92.32552077249521,-63.39441794933476" stroke="#ffa500" stroke-linecap="round" stroke-linejoin="round"/><polyline fill="none" points="-214.55415657083356,-88.51512389704686 -212.0541565708201,-89.18499687810225 -210.22402955187505,-91.01512389701176 -209.5541565707711,-93.5151238970122 -210.2240295518265,-96.01512389702565 -212.054156570736,-97.8452509159707 -214.55415657073644,-98.51512389707464 -217.05415657074988,-97.84525091601925 -218.88428358969495,-96.01512389710975 -219.55415657079888,-93.5151238971093 -218.8842835897435,-91.01512389709585 -217.05415657083398,-89.1849968781508 -214.55415657083356,-88.51512389704685" stroke="#00f" stroke-linecap="round" stroke-linejoin="round"/><polyline fill="none" points="-118.90853554489472,-64.80952914986983 -116.40853554488126,-65.47940213092522 -114.57840852593621,-67.30952914983473 -113.90853554483226,-69.80952914983517 -114.57840852588765,-72.30952914984863 -116.40853554479716,-74.13965616879368 -118.9085355447976,-74.80952914989763 -121.40853554481106,-74.13965616884224 -123.23866256375611,-72.30952914993273 -123.90853554486006,-69.80952914993229 -123.23866256380467,-67.30952914991883 -121.40853554489516,-65.47940213097378 -118.90853554489472,-64.80952914986983" stroke="#00f" stroke-linecap="round" stroke-linejoin="round"/><polyline fill="none" points="-98.95344971395608,-28.266662478776155 -96.45344971394262,-28.93653545983154 -94.62332269499757,-30.76666247874104 -93.95344971389362,-33.26666247874148 -94.62332269494901,-35.76666247875493 -96.45344971385852,-37.59678949769999 -98.95344971385896,-38.26666247880394 -101.45344971387242,-37.59678949774855 -103.28357673281747,-35.76666247883905 -103.95344971392142,-33.26666247883861 -103.28357673286604,-30.766662478825157 -101.45344971395654,-28.9365354598801 -98.9534497139561,-28.266662478776148" stroke="#ffa500" stroke-linecap="round" stroke-linejoin="round"/><polyline fill="none" points="-142.75722842650302,-57.5294370997003 -140.25722842648958,-58.19931008075569 -138.4271014075445,-60.02943709966519 -137.75722842644055,-62.52943709966563 -138.42710140749594,-65.02943709967909 -140.25722842640545,-66.85956411862415 -142.75722842640587,-67.5294370997281 -145.25722842641932,-66.85956411867272 -147.08735544536438,-65.02943709976323 -147.75722842646834,-62.52943709976279 -147.08735544541295,-60.02943709974933 -145.25722842650345,-58.199310080804274 -142.75722842650302,-57.52943709970032" stroke="#ffa500" stroke-linecap="round" stroke-linejoin="round"/><polyline fill="none" points="-178.05645491193104,-19.09029256206057 -175.5564549119176,-19.76016554311595 -173.72632789297253,-21.590292562025446 -173.05645491186857,-24.090292562025887 -173.72632789292396,-26.59029256203934 -175.55645491183347,-28.4204195809844 -178.0564549118339,-29.090292562088358 -180.55645491184734,-28.42041958103298 -182.3865819307924,-26.590292562123484 -183.05645491189637,-24.090292562123047 -182.38658193084098,-21.59029256210959 -180.55645491193147,-19.76016554316453 -178.05645491193104,-19.09029256206057" stroke="#ffa500" stroke-linecap="round" stroke-linejoin="round"/><polyline fill="none" points="-158.91351694990405,-72.78840903739312 -156.4135169498906,-73.4582820184485 -154.58338993094554,-75.288409037358 -153.91351694984158,-77.78840903735843 -154.58338993089697,-80.28840903737189 -156.41351694980648,-82.11853605631696 -158.9135169498069,-82.78840903742092 -161.41351694982035,-82.11853605636554 -163.2436439687654,-80.28840903745605 -163.91351694986938,-77.78840903745561 -163.243643968814,-75.28840903744215 -161.4135169499045,-73.45828201849709 -158.91351694990408,-72.78840903739312" stroke="#00f" stroke-linecap="round" stroke-linejoin="round"/><polyline fill="none" points="-60.34972019615262,48.887096663719575 -57.84972019613916,48.2172236826642 -56.019593177194096,46.387096663754704 -55.34972019609013,43.887096663754264 -56.01959317714551,41.387096663740806 -57.849720196055,39.55696964479574 -60.34972019605544,38.88709666369178 -62.8497201960689,39.556969644747156 -64.67984721501396,41.38709666365665 -65.34972019611793,43.88709666365709 -64.67984721506255,46.38709666367055 -62.84972019615306,48.21722368261561 -60.34972019615262,48.887096663719575" stroke="#00f" stroke-linecap="round" stroke-linejoin="round"/><polyline fill="none" points="-141.67336955873802,20.881216128761444 -139.17336955872454,20.21134314770607 -137.34324253977948,18.381216128796577 -136.67336955867552,15.881216128796137 -137.34324253973088,13.381216128782675 -139.1733695586404,11.551089109837609 -141.67336955864084,10.881216128733643 -144.17336955865431,11.551089109789014 -146.00349657759938,13.38121612869851 -146.67336955870334,15.88121612869895 -146.00349657764798,18.381216128712413 -144.17336955873847,20.211343147657484 -141.67336955873805,20.88121612876145" stroke="#ffa500" stroke-linecap="round" stroke-linejoin="round"/><polyline fill="none" points="-171.6896715971881,-61.76686726917171 -169.18967159717462,-62.43674025022708 -167.35954457822956,-64.26686726913658 -166.6896715971256,-66.76686726913702 -167.35954457818096,-69.26686726915048 -169.18967159709047,-71.09699428809556 -171.68967159709092,-71.76686726919952 -174.1896715971044,-71.09699428814416 -176.01979861604946,-69.26686726923467 -176.68967159715342,-66.76686726923423 -176.01979861609806,-64.26686726922077 -174.18967159718858,-62.4367402502757 -171.68967159718812,-61.766867269171726" stroke="#008000" stroke-linecap="round" stroke-linejoin="round"/><polyline fill="none" points="-207.5059252469699,-79.20479186258231 -205.00592524695642,-79.87466484363767 -203.17579822801136,-81.70479186254717 -202.5059252469074,-84.20479186254761 -203.17579822796276,-86.70479186256107 -205.00592524687224,-88.53491888150614 -207.5059252468727,-89.20479186261012 -210.00592524688616,-88.53491888155476 -211.83605226583123,-86.70479186264527 -212.5059252469352,-84.20479186264483 -211.83605226587983,-81.70479186263135 -210.00592524697035,-79.87466484368628 -207.5059252469699,-79.2047918625823" stroke="#ffa500" stroke-linecap="round" stroke-linejoin="round"/><polyline fill="none" points="243.87810065520372,-120.16848152682293 246.3781006552172,-120.8383545078783 248.20822767416226,-122.66848152678779 248.87810065526622,-125.16848152678823 248.20822767421086,-127.6684815268017 246.37810065530138,-129.49860854574678 243.87810065530093,-130.16848152685074 241.37810065528745,-129.49860854579538 239.5479736363424,-127.66848152688588 238.87810065523843,-125.16848152688544 239.5479736362938,-122.66848152687197 241.37810065520327,-120.8383545079269 243.87810065520372,-120.16848152682292" stroke="#ffa500" stroke-linecap="round" stroke-linejoin="round"/></svg>