<?xml version="1.0" ?><!DOCTYPE svg  PUBLIC '-//W3C//DTD SVG 1.1//EN'  'http://www.w3.org/Graphics/SVG/1.1/DTD/svg11.dtd'><svg height="360.000" viewBox="-184.000 -184.000 376.000 360.000" width="376.000" xmlns="http://www.w3.org/2000/svg"><line fill="none" stroke="none" stroke-linecap="round" stroke-width="2.0" x1="0.0" x2="0.0" y1="0.0" y2="0.0"/><polygon fill="none" fill-rule="evenodd" points="0.0,0.0 0.0,0.0 0.0,0.0" stroke-linejoin="round"/><polyline fill="none" points="-8.662136653007442,30.857433917480826 -6.162136653005875,30.187560936405617 -4.332009634081025,28.35743391748489 -3.662136653000183,25.857433917484833 -4.33200963407539,23.357433917483267 -6.162136652996114,21.527306898558415 -8.662136652996171,20.85743391747757 -11.16213665299774,21.527306898552776 -12.992263671922592,23.3574339174735 -13.662136653003435,25.857433917473557 -12.99226367192823,28.357433917475124 -11.162136653007504,30.187560936399976 -8.662136653007448,30.85743391748082" stroke="#00f" stroke-linecap="round" stroke-linejoin="round"/><polyline fill="none" points="-41.89176226368391,-44.65921934975068 -39.39176226368234,-45.32909233082589 -37.56163524475748,-47.159219349746614 -36.89176226367664,-49.65921934974667 -37.56163524475184,-52.15921934974824 -39.39176226367257,-53.9893463686731 -41.891762263672625,-54.65921934975394 -44.391762263674195,-53.98934636867874 -46.22188928259905,-52.15921934975802 -46.891762263679894,-49.65921934975796 -46.22188928260469,-47.15921934975639 -44.39176226368397,-45.329092330831536 -41.891762263683916,-44.659219349750686" stroke="#008000" stroke-linecap="round" stroke-linejoin="round"/><polyline fill="none" points="1.6696924338239383,-163.17681344966405 4.1696924338255075,-163.84668643073925 5.999819452750362,-165.67681344966 6.669692433831209,-168.17681344966005 5.9998194527560065,-170.6768134496616 4.169692433835284,-172.50694046858646 1.6696924338352264,-173.17681344966732 -0.8303075661663439,-172.50694046859212 -2.6604345850912,-170.67681344967139 -3.3303075661720483,-168.17681344967133 -2.660434585096847,-165.67681344966977 -0.830307566176125,-163.8466864307449 1.6696924338239327,-163.17681344966405" stroke="#ffa500" stroke-linecap="round" stroke-linejoin="round"/><polyline fill="none" points="-32.81194549283111,-48.03073772680772 -30.311945492829537,-48.70061070788292 -28.48181847390468,-50.53073772680364 -27.81194549282383,-53.0307377268037 -28.481818473899033,-55.53073772680527 -30.311945492819753,-57.360864745730126 -32.81194549281981,-58.030737726810976 -35.31194549282138,-57.360864745735775 -37.142072511746235,-55.530737726815055 -37.811945492827086,-53.030737726815 -37.142072511751884,-50.53073772681343 -35.311945492831164,-48.70061070788857 -32.81194549283111,-48.03073772680772" stroke="#008000" stroke-linecap="round" stroke-linejoin="round"/><polyline fill="none" points="4.377108445740051,26.738248323387637 6.877108445741624,26.06837534231244 8.707235464666484,24.23824832339172 9.377108445747336,21.738248323391662 8.707235464672138,19.23824832339009 6.877108445751418,17.40812130446523 4.377108445751359,16.738248323384376 1.8771084457497853,17.408121304459574 0.046981426824924455,19.238248323380294 -0.6228915542559292,21.73824832338035 0.04698142681926776,24.238248323381924 1.8771084457399878,26.068375342306787 4.3771084457400455,26.73824832338764" stroke="#00f" stroke-linecap="round" stroke-linejoin="round"/><polyline fill="none" points="-26.339384484803933,-71.9299149288759 -23.83938448480236,-72.5997879099511 -22.009257465877496,-74.42991492887182 -21.339384484796643,-76.92991492887188 -22.00925746587184,-79.42991492887346 -23.83938448479256,-81.26004194779833 -26.339384484792618,-81.92991492887919 -28.83938448479419,-81.26004194780398 -30.669511503719054,-79.42991492888326 -31.33938448479991,-76.9299149288832 -30.669511503724717,-74.42991492888163 -28.839384484803997,-72.59978790995676 -26.339384484803936,-71.9299149288759" stroke="#00f" stroke-linecap="round" stroke-linejoin="round"/><polyline fill="none" points="94.49467431213822,-149.64414082087845 96.9946743121398,-150.31401380195365 98.82480133106466,-152.14414082087436 99.49467431214552,-154.6441408208744 98.82480133107033,-157.14414082087598 96.99467431214961,-158.97426783980083 94.49467431214956,-159.6441408208817 91.99467431214798,-158.9742678398065 90.16454729322311,-157.14414082088578 89.49467431214225,-154.64414082088572 90.16454729321744,-152.14414082088416 91.99467431213816,-150.3140138019593 94.49467431213822,-149.64414082087845" stroke="#ffa500" stroke-linecap="round" stroke-linejoin="round"/><polyline fill="none" points="-34.17560354806209,-98.20312017869814 -31.675603548060515,-98.87299315977333 -29.84547652913565,-100.70312017869405 -29.175603548054788,-103.2031201786941 -29.84547652912998,-105.70312017869568 -31.675603548050695,-107.53324719762055 -34.17560354805075,-108.20312017870141 -36.67560354805233,-107.53324719762622 -38.5057305669772,-105.7031201787055 -39.17560354805806,-103.20312017870545 -38.505730566982876,-100.70312017870387 -36.675603548062156,-98.872993159779 -34.1756035480621,-98.20312017869814" stroke="#00f" stroke-linecap="round" stroke-linejoin="round"/><polyline fill="none" points="84.36574300475827,-116.17388710014248 86.86574300475985,-116.84376008121767 88.69587002368472,-118.67388710013839 89.36574300476558,-121.17388710013844 88.69587002369039,-123.67388710014002 86.86574300476967,-125.50401411906489 84.36574300476961,-126.17388710014576 81.86574300476804,-125.50401411907058 80.03561598584317,-123.67388710014986 79.3657430047623,-121.1738871001498 80.03561598583748,-118.67388710014822 81.8657430047582,-116.84376008122335 84.36574300475826,-116.17388710014248" stroke="#ffa500" stroke-linecap="round" stroke-linejoin="round"/><polyline fill="none" points="134.39325721590222,-67.5889596879022 136.89325721590382,-68.25883266897739 138.7233842348287,-70.08895968789811 139.39325721590956,-72.58895968789817 138.72338423483438,-75.08895968789975 136.89325721591368,-76.91908670682461 134.39325721591362,-77.58895968790549 131.89325721591203,-76.9190867068303 130.06313019698715,-75.08895968790958 129.3932572159063,-72.58895968790952 130.06313019698146,-70.08895968790794 131.89325721590217,-68.25883266898308 134.39325721590222,-67.5889596879022" stroke="#00f" stroke-linecap="round" stroke-linejoin="round"/><polyline fill="none" points="-10.37224613097051,-61.34439686528428 -7.872246130968927,-62.01426984635947 -6.042119112044052,-63.84439686528018 -5.372246130963183,-66.34439686528025 -6.0421191120383675,-68.84439686528182 -7.872246130959081,-70.67452388420669 -10.372246130959141,-71.34439686528756 -12.872246130960725,-70.67452388421238 -14.702373149885602,-68.84439686529166 -15.372246130966472,-66.3443968652916 -14.702373149891288,-63.844396865290015 -12.872246130970575,-62.01426984636514 -10.372246130970515,-61.34439686528427" stroke="#00f" stroke-linecap="round" stroke-linejoin="round"/><polyline fill="none" points="56.96930544359649,5.092868679545733 59.469305443598074,4.42299569847055 61.29943246252295,2.592868679549837 61.96930544360382,0.09286867954977707 61.29943246252864,-2.407131320451807 59.46930544360793,-4.237258339376685 56.96930544360787,-4.907131320457557 54.46930544360629,-4.237258339382375 52.63917842468141,-2.407131320461663 51.96930544360054,0.09286867953839684 52.63917842467572,2.592868679539982 54.46930544359643,4.422995698464861 56.96930544359649,5.092868679545735" stroke="#00f" stroke-linecap="round" stroke-linejoin="round"/><polyline fill="none" points="71.78155406280388,-108.54876296356261 74.28155406280547,-109.2186359446378 76.11168108173035,-111.0487629635585 76.78155406281122,-113.54876296355856 76.11168108173604,-116.04876296356015 74.28155406281533,-117.87888998248503 71.78155406281527,-118.5487629635659 69.28155406281368,-117.87888998249073 67.4514270438888,-116.04876296357003 66.78155406280793,-113.54876296356997 67.4514270438831,-111.04876296356838 69.2815540628038,-109.2186359446435 71.78155406280386,-108.54876296356262" stroke="#ffa500" stroke-linecap="round" stroke-linejoin="round"/><polyline fill="none" points="88.4574886878925,-89.60636296492379 90.9574886878941,-90.27623594599896 92.78761570681898,-92.10636296491967 93.45748868789985,-94.60636296491973 92.78761570682468,-97.10636296492132 90.95748868790398,-98.9364899838462 88.45748868790392,-99.60636296492707 85.95748868790233,-98.9364899838519 84.12736166897744,-97.1063629649312 83.45748868789657,-94.60636296493114 84.12736166897174,-92.10636296492955 85.95748868789245,-90.27623594600466 88.4574886878925,-89.60636296492378" stroke="#ffa500" stroke-linecap="round" stroke-linejoin="round"/><polyline fill="none" points="105.96234243320477,-102.53034183511748 108.46234243320636,-103.20021481619266 110.29246945213124,-105.03034183511336 110.96234243321213,-107.53034183511342 110.29246945213696,-110.03034183511501 108.46234243321625,-111.8604688540399 105.9623424332162,-112.53034183512078 103.4623424332146,-111.8604688540456 101.63221541428972,-110.0303418351249 100.96234243320883,-107.53034183512484 101.632215414284,-105.03034183512325 103.46234243320471,-103.20021481619837 105.96234243320477,-102.53034183511748" stroke="#ffa500" stroke-linecap="round" stroke-linejoin="round"/><polyline fill="none" points="11.888639960399926,-82.40715214888509 14.388639960401516,-83.07702512996026 16.218766979326404,-84.90715214888097 16.888639960407286,-87.40715214888102 16.218766979332113,-89.90715214888262 14.388639960411407,-91.7372791678075 11.888639960411346,-92.40715214888839 9.388639960409757,-91.73727916781321 7.558512941484869,-89.90715214889251 6.888639960403985,-87.40715214889245 7.558512941479156,-84.90715214889086 9.388639960399862,-83.07702512996597 11.888639960399923,-82.40715214888509" stroke="#00f" stroke-linecap="round" stroke-linejoin="round"/><polyline fill="none" points="8.193221984332418,-34.745677131854585 10.69322198433401,-35.41555011292976 12.523349003258899,-37.245677131850464 13.193221984339784,-39.74567713185052 12.523349003264615,-42.24567713185211 10.693221984343909,-44.075804150777 8.193221984343849,-44.74567713185789 5.693221984342257,-44.075804150782716 3.8630949654173667,-42.24567713186201 3.1932219843364797,-39.74567713186195 3.8630949654116487,-37.24567713186036 5.693221984332354,-35.41555011293547 8.193221984332414,-34.745677131854585" stroke="#00f" stroke-linecap="round" stroke-linejoin="round"/><polyline fill="none" points="72.12597902724613,-36.77213973239691 74.62597902724772,-37.442012713472074 76.45610604617262,-39.27213973239278 77.1259790272535,-41.772139732392844 76.45610604617833,-44.272139732394436 74.62597902725763,-46.10226675131933 72.12597902725757,-46.77213973240021 69.62597902725598,-46.10226675132505 67.79585200833108,-44.27213973240434 67.1259790272502,-41.772139732404284 67.79585200832537,-39.27213973240269 69.62597902724607,-37.4420127134778 72.12597902724613,-36.77213973239691" stroke="#ffa500" stroke-linecap="round" stroke-linejoin="round"/><polyline fill="none" points="0.02873158308929824,-71.61372077681442 2.5287315830908925,-72.28359375788959 4.358858602015786,-74.1137207768103 5.028731583096677,-76.61372077681035 4.358858602021511,-79.11372077681195 2.528731583100808,-80.94384779573684 0.028731583100747304,-81.61372077681773 -2.4712684169008483,-80.94384779574257 -4.301395435825744,-79.11372077682186 -4.971268416906636,-76.61372077682181 -4.301395435831471,-74.11372077682022 -2.4712684169107675,-72.28359375789532 0.028731583089293355,-71.61372077681442" stroke="#00f" stroke-linecap="round" stroke-linejoin="round"/><polyline fill="none" points="38.63097269977212,-3.6837614973212904 41.13097269977372,-4.353634478396455 42.96109971869862,-6.183761497317159 43.63097269977951,-8.683761497317219 42.96109971870435,-11.183761497318816 41.13097269978364,-13.013888516243714 38.63097269978358,-13.683761497324609 36.13097269978198,-13.013888516249445 34.30084568085708,-11.183761497328742 33.63097269977619,-8.683761497328682 34.30084568085135,-6.183761497327085 36.13097269977205,-4.353634478402186 38.630972699772116,-3.68376149732129" stroke="#00f" stroke-linecap="round" stroke-linejoin="round"/><polyline fill="none" points="98.38439312386704,-57.83786914411488 100.88439312386863,-58.50774212519004 102.71452014279353,-60.33786914411074 103.38439312387443,-62.837869144110805 102.71452014279927,-65.3378691441124 100.88439312387857,-67.1679961630373 98.38439312387851,-67.8378691441182 95.88439312387692,-67.16799616304304 94.05426610495202,-65.33786914412234 93.38439312387112,-62.83786914412227 94.05426610494628,-60.337869144120674 95.88439312386699,-58.507742125195776 98.38439312386704,-57.837869144114876" stroke="#ffa500" stroke-linecap="round" stroke-linejoin="round"/><polyline fill="none" points="58.38148330835713,-73.63223206491942 60.88148330835873,-74.30210504599458 62.71161032728363,-76.13223206491529 63.38148330836453,-78.63223206491534 62.71161032728937,-81.13223206491693 60.88148330836867,-82.96235908384183 58.38148330836861,-83.63223206492273 55.88148330836701,-82.96235908384757 54.051356289442104,-81.13223206492687 53.381483308361204,-78.63223206492681 54.05135628943636,-76.1322320649252 55.88148330835706,-74.3021050460003 58.381483308357126,-73.6322320649194" stroke="#ffa500" stroke-linecap="round" stroke-linejoin="round"/><polyline fill="none" points="133.2948053072908,-15.687434325352942 135.7948053072924,-16.3573073064281 137.6249323262173,-18.1874343253488 138.29480530729822,-20.68743432534886 137.62493232622307,-23.187434325350463 135.79480530730237,-25.017561344275368 133.2948053073023,-25.68743432535627 130.79480530730072,-25.017561344281116 128.9646782883758,-23.187434325360417 128.2948053072949,-20.687434325360357 128.96467828837004,-18.187434325358755 130.79480530729074,-16.35730730643385 133.2948053072908,-15.687434325352944" stroke="#ffa500" stroke-linecap="round" stroke-linejoin="round"/><polyline fill="none" points="22.354624940890833,4.230829431782067 24.854624940892435,3.5609564507069122 26.684751959817344,1.7308294317862145 27.35462494089825,-0.7691705682138477 26.684751959823096,-3.2691705682154506 24.854624940902397,-5.099297587140359 22.354624940902333,-5.7691705682212655 19.85462494090073,-5.099297587146112 18.024497921975822,-3.269170568225415 17.354624940894915,-0.7691705682253529 18.024497921970067,1.7308294317762511 19.854624940890766,3.560956450701161 22.35462494089083,4.230829431782069" stroke="#00f" stroke-linecap="round" stroke-linejoin="round"/><polyline fill="none" points="101.97451697731343,15.926669916904851 104.47451697731503,15.256796935829698 106.30464399623995,13.426669916909 106.97451697732086,10.926669916908939 106.3046439962457,8.426669916907334 104.47451697732501,6.596542897982424 101.97451697732495,5.926669916901515 99.47451697732335,6.596542897976666 97.64438995839843,8.426669916897362 96.97451697731752,10.926669916897424 97.64438995839267,13.42666991689903 99.47451697731336,15.256796935823942 101.97451697731341,15.926669916904853" stroke="#ffa500" stroke-linecap="round" stroke-linejoin="round"/><polyline fill="none" points="139.46767459671347,-4.705821127264057 141.96767459671506,-5.375694108339207 143.79780161563997,-7.205821127259902 144.46767459672088,-9.705821127259965 143.79780161564574,-12.20582112726157 141.96767459672503,-14.035948146186483 139.46767459672498,-14.705821127267395 136.96767459672336,-14.035948146192247 135.13754757779844,-12.205821127271552 134.46767459671753,-9.70582112727149 135.13754757779267,-7.205821127269883 136.96767459671338,-5.375694108344969 139.46767459671344,-4.7058211272640555" stroke="#ffa500" stroke-linecap="round" stroke-linejoin="round"/><polyline fill="none" points="175.10129743047722,-41.37065570109125 177.60129743047884,-42.040528682166396 179.43142444940375,-43.87065570108709 180.10129743048466,-46.37065570108715 179.43142444940952,-48.87065570108876 177.6012974304888,-50.70078272001367 175.10129743048876,-51.370655701094584 172.60129743048714,-50.70078272001944 170.77117041156222,-48.87065570109875 170.1012974304813,-46.370655701098684 170.77117041155645,-43.87065570109708 172.60129743047716,-42.04052868217216 175.10129743047722,-41.370655701091245" stroke="#ffa500" stroke-linecap="round" stroke-linejoin="round"/><polyline fill="none" points="92.91240326701183,-3.0471541920587892 95.41240326701343,-3.7170271731339346 97.24253028593834,-5.547154192054627 97.91240326701926,-8.04715419205469 97.24253028594411,-10.547154192056297 95.41240326702342,-12.377281210981215 92.91240326702336,-13.04715419206213 90.41240326702176,-12.377281210986986 88.58227624809685,-10.547154192066294 87.91240326701593,-8.047154192066232 88.58227624809108,-5.547154192064624 90.41240326701177,-3.7170271731397055 92.91240326701183,-3.0471541920587875" stroke="#ffa500" stroke-linecap="round" stroke-linejoin="round"/><polyline fill="none" points="112.6566797433596,48.300434414433184 115.15667974336121,47.63056143335804 116.98680676228612,45.80043441443735 117.65667974336704,43.300434414437284 116.98680676229189,40.80043441443567 115.1566797433712,38.97030739551075 112.65667974337114,38.30043441442983 110.15667974336954,38.970307395504975 108.32655272444461,40.800434414425666 107.6566797433637,43.30043441442573 108.32655272443884,45.80043441442734 110.15667974335953,47.63056143335226 112.65667974335959,48.300434414433184" stroke="#ffa500" stroke-linecap="round" stroke-linejoin="round"/><polyline fill="none" points="125.44965139475784,24.30678762465219 127.94965139475944,23.63691464357705 129.77977841368437,21.806787624656362 130.44965139476528,19.3067876246563 129.77977841369014,16.80678762465469 127.94965139476945,14.976660605729768 125.44965139476939,14.306787624648845 122.94965139476778,14.976660605723984 121.11952437584286,16.806787624644674 120.44965139476193,19.306787624644734 121.11952437583707,21.806787624646347 122.94965139475777,23.63691464357127 125.44965139475782,24.306787624652195" stroke="#ffa500" stroke-linecap="round" stroke-linejoin="round"/><polyline fill="none" points="136.58867594229926,46.33375754860049 139.08867594230088,45.66388456752535 140.9188029612258,43.833757548604666 141.5886759423067,41.3337575486046 140.91880296123156,38.83375754860299 139.08867594231089,37.00363052967806 136.58867594231083,36.333757548597134 134.0886759423092,37.00363052967227 132.2585489233843,38.833757548592956 131.58867594230338,41.33375754859302 132.25854892337853,43.83375754859463 134.0886759422992,45.66388456751956 136.58867594229926,46.33375754860049" stroke="#ffa500" stroke-linecap="round" stroke-linejoin="round"/><polyline fill="none" points="71.47603790003666,30.881371373890698 73.97603790003828,30.21149839281556 75.8061649189632,28.381371373894872 76.47603790004413,25.88137137389481 75.806164918969,23.3813713738932 73.97603790004831,21.551244354968272 71.47603790004825,20.881371373887344 68.97603790004663,21.551244354962478 67.14591088112171,23.381371373883162 66.47603790004078,25.881371373883223 67.14591088111591,28.381371373884836 68.9760379000366,30.211498392809762 71.47603790003666,30.88137137389069" stroke="#00f" stroke-linecap="round" stroke-linejoin="round"/><polyline fill="none" points="-43.68660369604944,15.697750908665641 -41.186603696047825,15.027877927590508 -39.3564766771229,13.197750908669821 -38.68660369604197,10.697750908669759 -39.3564766771171,8.197750908668144 -41.186603696037785,6.367623889743215 -43.68660369603785,5.697750908662284 -46.18660369603946,6.367623889737416 -48.01673071496439,8.1977509086581 -48.68660369604532,10.697750908658163 -48.01673071497019,13.19775090865978 -46.1866036960495,15.02787792758471 -43.68660369604944,15.697750908665641" stroke="#00f" stroke-linecap="round" stroke-linejoin="round"/><polyline fill="none" points="112.76469172608941,41.19357571475026 115.26469172609103,40.52370273367513 117.09481874501596,38.693575714754445 117.76469172609688,36.19357571475438 117.09481874502175,33.69357571475276 115.26469172610108,31.863448695827827 112.76469172610102,31.193575714746895 110.2646917260994,31.863448695822026 108.43456470717447,33.69357571474271 107.76469172609355,36.19357571474277 108.43456470716868,38.69357571474439 110.26469172608935,40.523702733669325 112.76469172608941,41.19357571475026" stroke="#ffa500" stroke-linecap="round" stroke-linejoin="round"/><polyline fill="none" points="110.12690279369401,47.83328805864696 112.62690279369563,47.16341507757183 114.45702981262056,45.33328805865114 115.12690279370149,42.83328805865108 114.45702981262636,40.33328805864946 112.62690279370568,38.503161039724525 110.12690279370563,37.83328805864359 107.626902793704,38.50316103971872 105.79677577477906,40.333288058639404 105.12690279369812,42.83328805863947 105.79677577477325,45.33328805864109 107.62690279369393,47.16341507756602 110.12690279369399,47.83328805864696" stroke="#ffa500" stroke-linecap="round" stroke-linejoin="round"/><polyline fill="none" points="162.2448383259497,26.360851306633254 164.74483832595132,25.690978325558127 166.57496534487626,23.860851306637446 167.2448383259572,21.360851306637386 166.5749653448821,18.860851306635766 164.7448383259614,17.03072428771083 162.24483832596135,16.36085130662989 159.74483832595973,17.030724287705013 157.9147113070348,18.860851306625694 157.24483832595385,21.360851306625754 157.91471130702897,23.860851306627374 159.74483832594964,25.69097832555231 162.2448383259497,26.36085130663325" stroke="#ffa500" stroke-linecap="round" stroke-linejoin="round"/><polyline fill="none" points="110.53889491799731,66.60977052492618 113.03889491799893,65.93989754385105 114.86902193692387,64.10977052493037 115.53889491800481,61.609770524930305 114.8690219369297,59.109770524928685 113.03889491800902,57.279643506003744 110.53889491800896,56.6097705249228 108.03889491800734,57.279643505997925 106.2087678990824,59.1097705249186 105.53889491800146,61.609770524918666 106.20876789907658,64.1097705249203 108.03889491799725,65.93989754384523 110.53889491799731,66.60977052492618" stroke="#ffa500" stroke-linecap="round" stroke-linejoin="round"/><polyline fill="none" points="131.8596238169411,66.54330627889689 134.35962381694273,65.87343329782178 136.18975083586767,64.0433062789011 136.8596238169486,61.543306278901035 136.1897508358735,59.043306278899415 134.35962381695282,57.213179259974474 131.85962381695276,56.54330627889353 129.35962381695114,57.21317925996865 127.5294967980262,59.043306278889325 126.85962381694526,61.54330627888939 127.52949679802038,64.04330627889101 129.35962381694105,65.87343329781595 131.8596238169411,66.54330627889689" stroke="#ffa500" stroke-linecap="round" stroke-linejoin="round"/><polyline fill="none" points="151.00546264952152,44.58265468668995 153.50546264952314,43.91278170561483 155.33558966844808,42.082654686694156 156.00546264952902,39.58265468669409 155.3355896684539,37.082654686692464 153.50546264953323,35.25252766776752 151.00546264953317,34.58265468668657 148.50546264953155,35.25252766776168 146.6753356306066,37.08265468668236 146.00546264952567,39.582654686682424 146.67533563060078,42.08265468668405 148.50546264952146,43.912781705609 151.00546264952152,44.58265468668995" stroke="#ffa500" stroke-linecap="round" stroke-linejoin="round"/><polyline fill="none" points="123.33044868549655,77.9999767229961 125.83044868549817,77.33010374192098 127.66057570442311,75.4999767230003 128.33044868550405,72.99997672300024 127.66057570442894,70.49997672299862 125.83044868550826,68.66984970407368 123.3304486855082,67.99997672299273 120.83044868550658,68.66984970406784 119.00032166658164,70.49997672298852 118.33044868550068,72.99997672298858 119.0003216665758,75.4999767229902 120.83044868549648,77.33010374191514 123.33044868549653,77.9999767229961" stroke="#ffa500" stroke-linecap="round" stroke-linejoin="round"/><polyline fill="none" points="129.34442623733185,102.97612227937165 131.84442623733347,102.30624929829654 133.6745532562584,100.47612227937586 134.34442623733935,97.9761222793758 133.67455325626423,95.47612227937418 131.84442623734355,93.64599526044923 129.3444262373435,92.97612227936827 126.84442623734188,93.64599526044339 125.01429921841692,95.47612227936406 124.34442623733597,97.97612227936412 125.01429921841108,100.47612227936574 126.84442623733176,102.3062492982907 129.34442623733182,102.97612227937165" stroke="#ffa500" stroke-linecap="round" stroke-linejoin="round"/><polyline fill="none" points="62.99230366669752,85.73144537087956 65.49230366669914,85.06157238980444 67.3224306856241,83.23144537088376 67.99230366670506,80.7314453708837 67.32243068562994,78.23144537088207 65.49230366670926,76.40131835195712 62.9923036667092,75.73144537087616 60.49230366670757,76.40131835195128 58.662176647782616,78.23144537087195 57.99230366670166,80.73144537087201 58.66217664777677,83.23144537087364 60.49230366669744,85.0615723897986 62.9923036666975,85.73144537087956" stroke="#ffa500" stroke-linecap="round" stroke-linejoin="round"/><polyline fill="none" points="118.9553984963379,112.7776644378489 121.45539849633954,112.1077914567738 123.2855255152645,110.27766443785312 123.95539849634545,107.77766443785306 123.28552551527035,105.27766443785143 121.45539849634967,103.44753741892647 118.95539849634962,102.77766443784552 116.45539849634798,103.44753741892062 114.62527147742303,105.2776644378413 113.95539849634207,107.77766443784135 114.62527147741717,110.27766443784299 116.45539849633784,112.10779145676794 118.95539849633789,112.7776644378489" stroke="#ffa500" stroke-linecap="round" stroke-linejoin="round"/><polyline fill="none" points="4.090253854238513,15.342904015070905 6.590253854240144,14.673031033995798 8.4203808731651,12.842904015075128 9.090253854246063,10.342904015075066 8.420380873170958,7.842904015073435 6.590253854250288,6.012776996148478 4.090253854250226,5.342904015067516 1.5902538542485942,6.012776996142621 -0.239873164676363,7.84290401506329 -0.9097461457573258,10.342904015063352 -0.23987316468222142,12.842904015064985 1.5902538542384475,14.673031033989943 4.09025385423851,15.342904015070907" stroke="#008000" stroke-linecap="round" stroke-linejoin="round"/><polyline fill="none" points="65.43990292908245,127.94657861351865 67.93990292908408,127.27670563244355 69.77002994800904,125.44657861352289 70.43990292909001,122.94657861352283 69.77002994801491,120.4465786135212 67.93990292909425,118.61645159459624 65.43990292909419,117.94657861351527 62.939902929092554,118.61645159459037 61.10977591016759,120.44657861351104 60.43990292908663,122.9465786135111 61.10977591016173,125.44657861351273 62.9399029290824,127.27670563243768 65.43990292908246,127.94657861351865" stroke="#ffa500" stroke-linecap="round" stroke-linejoin="round"/><polyline fill="none" points="78.88714058633859,121.38755681609149 81.38714058634022,120.71768383501639 83.21726760526518,118.88755681609572 83.88714058634615,116.38755681609567 83.21726760527105,113.88755681609403 81.38714058635038,112.05742979716908 78.88714058635033,111.38755681608811 76.38714058634869,112.05742979716321 74.55701356742374,113.88755681608387 73.88714058634277,116.38755681608393 74.55701356741787,118.88755681608556 76.38714058633853,120.71768383501053 78.88714058633859,121.3875568160915" stroke="#ffa500" stroke-linecap="round" stroke-linejoin="round"/><polyline fill="none" points="11.957780127629613,100.2987149584361 14.457780127631247,99.62884197736099 16.28790714655621,97.79871495844033 16.957780127637182,95.29871495844027 16.287907146562084,92.79871495843864 14.457780127641419,90.96858793951367 11.957780127641357,90.2987149584327 9.45778012763972,90.9685879395078 7.627653108714757,92.79871495842846 6.957780127633786,95.29871495842852 7.627653108708883,97.79871495843015 9.457780127629547,99.62884197735512 11.95778012762961,100.2987149584361" stroke="#ffa500" stroke-linecap="round" stroke-linejoin="round"/><polyline fill="none" points="-81.03937819389539,24.132123062846585 -78.53937819389375,23.462250081771487 -76.70925117496878,21.632123062850823 -76.03937819388781,19.132123062850763 -76.70925117496292,16.632123062849125 -78.53937819388358,14.80199604392416 -81.03937819388364,14.132123062843187 -83.53937819388527,14.801996043918281 -85.36950521281024,16.632123062838943 -86.03937819389121,19.132123062839003 -85.36950521281611,21.63212306284064 -83.53937819389544,23.462250081765607 -81.03937819389539,24.13212306284658" stroke="#00f" stroke-linecap="round" stroke-linejoin="round"/><polyline fill="none" points="-0.013754146617675267,38.79871050175584 2.4862458533839624,38.12883752068075 4.31637287230893,36.298710501760084 4.986245853389906,33.79871050176002 4.316372872314812,31.298710501758382 2.4862458533941494,29.468583482833413 -0.013754146605912787,28.79871050175244 -2.5137541466075515,29.468583482827533 -4.343881165532521,31.298710501748197 -5.013754146613497,33.79871050174826 -4.343881165538405,36.2987105017499 -2.513754146617743,38.12883752067487 -0.013754146617680707,38.79871050175585" stroke="#00f" stroke-linecap="round" stroke-linejoin="round"/><polyline fill="none" points="22.391126773590145,98.5771047439456 24.891126773591786,97.90723176287051 26.721253792516755,96.07710474394985 27.391126773597733,93.57710474394979 26.721253792522642,91.07710474394815 24.891126773601982,89.24697772502319 22.39112677360192,88.5771047439422 19.891126773600277,89.24697772501729 18.060999754675304,91.07710474393795 17.391126773594326,93.57710474393801 18.060999754669417,96.07710474393964 19.891126773590077,97.90723176286461 22.391126773590138,98.5771047439456" stroke="#ffa500" stroke-linecap="round" stroke-linejoin="round"/><polyline fill="none" points="18.367158249017887,160.67031039930382 20.86715824901953,160.00043741822873 22.6972852679445,158.17031039930808 23.367158249025483,155.67031039930802 22.697285267950395,153.17031039930637 20.867158249029735,151.3401833803814 18.36715824902967,150.67031039930043 15.86715824902803,151.34018338037552 14.037031230103057,153.17031039929617 13.367158249022076,155.67031039929623 14.037031230097163,158.17031039929788 15.867158249017823,160.00043741822284 18.367158249017884,160.67031039930382" stroke="#ffa500" stroke-linecap="round" stroke-linejoin="round"/><polyline fill="none" points="18.67756181940072,120.14205171798154 21.17756181940236,119.47217873690646 23.007688838327336,117.6420517179858 23.677561819408318,115.14205171798574 23.00768883833323,112.64205171798409 21.17756181941257,110.81192469905912 18.67756181941251,110.14205171797813 16.17756181941087,110.81192469905322 14.347434800485892,112.64205171797389 13.677561819404907,115.14205171797394 14.347434800479993,117.64205171797559 16.17756181940065,119.47217873690057 18.67756181940071,120.14205171798156" stroke="#ffa500" stroke-linecap="round" stroke-linejoin="round"/><polyline fill="none" points="45.93476950598265,28.930776325916366 48.43476950598429,28.26090334484128 50.26489652490927,26.430776325920625 50.93476950599025,23.930776325920565 50.264896524915166,21.43077632591892 48.43476950599451,19.600649306993944 45.934769505994446,18.93077632591296 43.434769505992804,19.600649306988043 41.60464248706783,21.4307763259087 40.93476950598684,23.93077632590876 41.60464248706192,26.430776325910404 43.43476950598258,28.260903344835384 45.93476950598264,28.930776325916373" stroke="#00f" stroke-linecap="round" stroke-linejoin="round"/><polyline fill="none" points="-48.809755162955646,13.088140985462996 -46.309755162954005,12.418268004387913 -44.47962814402902,10.588140985467257 -43.80975516294803,8.088140985467195 -44.47962814402311,5.58814098546555 -46.309755162943766,3.7580139665405694 -48.80975516294383,3.08814098545958 -51.30975516294548,3.758013966534661 -53.13988218187046,5.588140985455316 -53.809755162951454,8.088140985455377 -53.139882181876374,10.588140985457022 -51.30975516295572,12.418268004382004 -48.80975516295565,13.088140985462994" stroke="#00f" stroke-linecap="round" stroke-linejoin="round"/><polyline fill="none" points="-29.744294532557856,163.58753875668526 -27.24429453255621,162.91766577561017 -25.414167513631227,161.08753875668953 -24.744294532550235,158.58753875668947 -25.414167513625316,156.08753875668782 -27.24429453254597,154.25741173776285 -29.74429453254603,153.58753875668185 -32.24429453254768,154.25741173775694 -34.07442155147266,156.0875387566776 -34.74429453255365,158.58753875667765 -34.07442155147857,161.0875387566793 -32.244294532557916,162.9176657756043 -29.744294532557856,163.5875387566853" stroke="#ffa500" stroke-linecap="round" stroke-linejoin="round"/><polyline fill="none" points="-8.585965180119599,129.22058877661027 -6.0859651801179515,128.55071579553518 -4.255838161192966,126.72058877661453 -3.5859651801119714,124.22058877661448 -4.2558381611870475,121.72058877661283 -6.0859651801077,119.89046175768785 -8.585965180107761,119.22058877660685 -11.08596518010941,119.89046175768192 -12.916092199034397,121.72058877660257 -13.585965180115393,124.22058877660263 -12.916092199040317,126.72058877660427 -11.085965180119665,128.55071579552927 -8.585965180119603,129.22058877661027" stroke="#ffa500" stroke-linecap="round" stroke-linejoin="round"/><polyline fill="none" points="-32.875173244843715,-16.77615072288002 -30.375173244842067,-17.446023703955092 -28.54504622591708,-19.276150722875744 -27.875173244836084,-21.776150722875805 -28.545046225911157,-24.276150722877453 -30.37517324483181,-26.10627774180244 -32.87517324483187,-26.77615072288344 -35.37517324483352,-26.106277741808366 -37.20530026375851,-24.276150722887717 -37.87517324483951,-21.776150722887657 -37.205300263764435,-19.27615072288601 -35.375173244843786,-17.446023703961018 -32.87517324484372,-16.77615072288002" stroke="#f00" stroke-linecap="round" stroke-linejoin="round"/><polyline fill="none" points="29.95573514823554,21.568242432981975 32.45573514823719,20.898369451906902 34.28586216716218,19.068242432986253 34.95573514824318,16.568242432986192 34.285862167168105,14.068242432984542 32.455735148247456,12.238115414059552 29.955735148247395,11.56824243297855 27.455735148245743,12.23811541405362 25.625608129320753,14.06824243297427 24.95573514823975,16.56824243297433 25.62560812931482,19.068242432975982 27.45573514823547,20.898369451900976 29.95573514823553,21.56824243298198" stroke="#008000" stroke-linecap="round" stroke-linejoin="round"/><polyline fill="none" points="-41.31386501805622,144.84161520267762 -38.81386501805457,144.17174222160256 -36.98373799912958,142.3416152026819 -36.313865018048574,139.84161520268185 -36.98373799912364,137.3416152026802 -38.81386501804429,135.5114881837552 -41.31386501804435,134.8416152026742 -43.81386501804601,135.51148818374926 -45.64399203697101,137.3416152026699 -46.31386501805201,139.84161520266997 -45.64399203697695,142.34161520267162 -43.8138650180563,144.17174222159662 -41.313865018056234,144.84161520267762" stroke="#ffa500" stroke-linecap="round" stroke-linejoin="round"/><polyline fill="none" points="-48.21491060639615,142.9924856103516 -45.7149106063945,142.32261262927653 -43.8847835874695,140.49248561035589 -43.21491060638849,137.99248561035583 -43.88478358746356,135.49248561035418 -45.71491060638421,133.66235859142918 -48.21491060638427,132.99248561034818 -50.71491060638593,133.66235859142324 -52.545037625310925,135.4924856103439 -53.21491060639193,137.99248561034395 -52.545037625316866,140.4924856103456 -50.71491060639622,142.3226126292706 -48.21491060639615,142.9924856103516" stroke="#ffa500" stroke-linecap="round" stroke-linejoin="round"/><polyline fill="none" points="-66.37905089460126,72.09936837787792 -63.87905089459961,71.42949539680286 -62.04892387567461,69.59936837788221 -61.3790508945936,67.09936837788216 -62.04892387566866,64.5993683778805 -63.879050894589305,62.7692413589555 -66.37905089458937,62.099368377874484 -68.87905089459103,62.76924135894954 -70.70917791351603,64.59936837787019 -71.37905089459704,67.09936837787025 -70.70917791352198,69.59936837787191 -68.87905089460133,71.42949539679691 -66.37905089460128,72.09936837787792" stroke="#00f" stroke-linecap="round" stroke-linejoin="round"/><polyline fill="none" points="-19.906128013602512,55.60554228848142 -17.406128013600856,54.935669307406364 -15.576000994675855,53.10554228848572 -14.906128013594842,50.60554228848566 -15.576000994669903,48.105542288484 -17.406128013590546,46.275415269559 -19.90612801359061,45.605542288477984 -22.406128013592266,46.275415269553044 -24.236255032517267,48.105542288473686 -24.90612801359828,50.60554228847375 -24.23625503252322,53.105542288475405 -22.40612801360258,54.93566930740041 -19.90612801360252,55.60554228848142" stroke="#00f" stroke-linecap="round" stroke-linejoin="round"/><polyline fill="none" points="-76.01722836493909,150.91673945256645 -73.51722836493742,150.2468664714914 -71.68710134601243,148.41673945257074 -71.01722836493141,145.91673945257068 -71.68710134600647,143.41673945256903 -73.51722836492712,141.58661243364404 -76.01722836492718,140.916739452563 -78.51722836492884,141.58661243363807 -80.34735538385384,143.41673945255872 -81.01722836493485,145.91673945255877 -80.34735538385979,148.41673945256042 -78.51722836493916,150.24686647148542 -76.0172283649391,150.91673945256645" stroke="#ffa500" stroke-linecap="round" stroke-linejoin="round"/><polyline fill="none" points="67.80129559100196,19.14953662166014 70.30129559100362,18.479663640585084 72.13142260992863,16.649536621664442 72.80129559100965,14.14953662166438 72.13142260993459,11.64953662166272 70.30129559101395,9.819409602737714 67.8012955910139,9.149536621656695 65.30129559101223,9.819409602731751 63.47116857208723,11.649536621652391 62.80129559100621,14.149536621652453 63.47116857208126,16.649536621654114 65.3012955910019,18.479663640579123 67.80129559100196,19.149536621660143" stroke="#00f" stroke-linecap="round" stroke-linejoin="round"/><polyline fill="none" points="-108.33868160193039,105.03676798542699 -105.83868160192873,104.36689500435193 -104.00855458300371,102.5367679854313 -103.33868160192269,100.03676798543124 -104.00855458299775,97.53676798542958 -105.83868160191838,95.70664096650457 -108.33868160191844,95.03676798542354 -110.8386816019201,95.7066409664986 -112.66880862084511,97.53676798541923 -113.33868160192614,100.03676798541929 -112.66880862085108,102.53676798542095 -110.83868160193045,104.36689500434596 -108.33868160193039,105.03676798542699" stroke="#ffa500" stroke-linecap="round" stroke-linejoin="round"/><polyline fill="none" points="-92.15699027001789,129.88801955399944 -89.65699027001622,129.21814657292438 -87.82686325109121,127.38801955400375 -87.15699027001018,124.88801955400369 -87.82686325108523,122.38801955400203 -89.65699027000586,120.55789253507702 -92.15699027000592,119.88801955399599 -94.65699027000758,120.55789253507103 -96.4871172889326,122.38801955399167 -97.15699027001362,124.88801955399173 -96.48711728893858,127.38801955399339 -94.65699027001794,129.2181465729184 -92.15699027001789,129.88801955399944" stroke="#ffa500" stroke-linecap="round" stroke-linejoin="round"/><polyline fill="none" points="-111.17901418201093,90.481071533343 -108.67901418200927,89.81119855226795 -106.84888716308426,87.98107153334732 -106.17901418200323,85.48107153334726 -106.84888716307827,82.9810715333456 -108.67901418199891,81.15094451442059 -111.17901418199897,80.48107153333956 -113.67901418200063,81.1509445144146 -115.50914120092564,82.98107153333524 -116.17901418200667,85.4810715333353 -115.50914120093162,87.98107153333696 -113.67901418201099,89.81119855226197 -111.17901418201093,90.481071533343" stroke="#ffa500" stroke-linecap="round" stroke-linejoin="round"/><polyline fill="none" points="-38.432838089501836,-3.65430741547663 -35.93283808950017,-4.324180396551679 -34.10271107057516,-6.154307415472315 -33.43283808949413,-8.65430741547238 -34.10271107056918,-11.154307415474046 -35.93283808948981,-12.984434434399061 -38.43283808948988,-13.65430741548009 -40.93283808949154,-12.984434434405044 -42.76296510841656,-11.154307415484407 -43.43283808949759,-8.654307415484343 -42.76296510842254,-6.154307415482677 -40.93283808950191,-4.324180396557661 -38.43283808950184,-3.65430741547663" stroke="#00f" stroke-linecap="round" stroke-linejoin="round"/><polyline fill="none" points="-92.54414856499965,99.40040866208744 -90.04414856499798,98.7305356810124 -88.21402154607297,96.90040866209176 -87.54414856499194,94.4004086620917 -88.21402154606699,91.90040866209004 -90.04414856498762,90.07028164316503 -92.54414856498768,89.400408662084 -95.04414856498934,90.07028164315905 -96.87427558391437,91.90040866207968 -97.5441485649954,94.40040866207974 -96.87427558392035,96.9004086620814 -95.04414856499972,98.73053568100643 -92.54414856499966,99.40040866208746" stroke="#ffa500" stroke-linecap="round" stroke-linejoin="round"/><polyline fill="none" points="-56.3986665318015,-12.49561965815213 -53.89866653179983,-13.165492639227173 -52.068539512874814,-14.995619658147808 -51.39866653179378,-17.495619658147874 -52.068539512868824,-19.995619658149543 -53.89866653178946,-21.825746677074566 -56.39866653178952,-22.4956196581556 -58.89866653179119,-21.82574667708056 -60.72879355071621,-19.995619658159924 -61.39866653179725,-17.49561965815986 -60.7287935507222,-14.99561965815819 -58.89866653180157,-13.165492639233168 -56.3986665318015,-12.495619658152131" stroke="#ffa500" stroke-linecap="round" stroke-linejoin="round"/><polyline fill="none" points="-80.21233032258449,72.39572832577197 -77.71233032258282,71.72585534469692 -75.88220330365779,69.89572832577629 -75.21233032257675,67.39572832577622 -75.88220330365179,64.89572832577454 -77.71233032257243,63.065601306849516 -80.2123303225725,62.39572832576848 -82.71233032257418,63.06560130684352 -84.5424573414992,64.89572832576415 -85.21233032258024,67.39572832576422 -84.5424573415052,69.8957283257659 -82.71233032258456,71.72585534469093 -80.2123303225845,72.39572832577197" stroke="#ffa500" stroke-linecap="round" stroke-linejoin="round"/><polyline fill="none" points="-10.648044576600755,82.88870640174537 -8.148044576599084,82.21883342067032 -6.3179175576740585,80.38870640174969 -5.648044576593018,77.88870640174963 -6.317917557668056,75.38870640174795 -8.148044576588688,73.55857938282293 -10.648044576588752,72.88870640174189 -13.148044576590426,73.55857938281692 -14.978171595515452,75.38870640173755 -15.648044576596494,77.88870640173761 -14.978171595521458,80.38870640173928 -13.148044576600826,82.21883342066431 -10.648044576600762,82.88870640174535" stroke="#00f" stroke-linecap="round" stroke-linejoin="round"/><polyline fill="none" points="-29.073706201525223,41.13920736585721 -26.57370620152355,40.46933438478217 -24.74357918259852,38.639207365861544 -24.073706201517478,36.13920736586148 -24.743579182592512,33.639207365859804 -26.573706201513144,31.809080346934774 -29.073706201513208,31.13920736585373 -31.57370620151488,31.809080346928763 -33.40383322043991,33.639207365849394 -34.07370620152095,36.13920736584946 -33.40383322044591,38.639207365851135 -31.57370620152528,40.46933438477617 -29.073706201525216,41.13920736585721" stroke="#00f" stroke-linecap="round" stroke-linejoin="round"/><polyline fill="none" points="-15.005630933051041,-8.460908827895576 -12.505630933049366,-9.13078180897061 -10.675503914124334,-10.96090882789124 -10.005630933043289,-13.460908827891304 -10.675503914118321,-15.960908827892979 -12.505630933038951,-17.79103584681801 -15.005630933039015,-18.460908827899054 -17.505630933040692,-17.79103584682402 -19.335757951965725,-15.960908827903392 -20.005630933046774,-13.460908827903328 -19.335757951971743,-10.960908827901651 -17.505630933051116,-9.130781808976618 -15.005630933051052,-8.460908827895569" stroke="#00f" stroke-linecap="round" stroke-linejoin="round"/><polyline fill="none" points="-142.69598161974028,89.41283255478083 -140.1959816197386,88.7429595737058 -138.36585460081358,86.91283255478518 -137.69598161973252,84.41283255478513 -138.36585460080755,81.91283255478345 -140.19598161972817,80.08270553585841 -142.69598161972823,79.41283255477735 -145.1959816197299,80.08270553585238 -147.02610863865493,81.912832554773 -147.695981619736,84.41283255477308 -147.02610863866096,86.91283255477475 -145.19598161974034,88.74295957369979 -142.69598161974028,89.41283255478085" stroke="#ffa500" stroke-linecap="round" stroke-linejoin="round"/><polyline fill="none" points="-165.6422225982669,13.559520321709355 -163.14222259826522,12.889647340634326 -161.3120955793402,11.0595203217137 -160.64222259825914,8.559520321713636 -161.31209557933417,6.059520321711958 -163.1422225982548,4.229393302786923 -165.64222259825485,3.5595203217058704 -168.14222259825652,4.229393302780899 -169.97234961718155,6.059520321701525 -170.6422225982626,8.559520321701589 -169.97234961718758,11.059520321703268 -168.14222259826695,12.889647340628304 -165.6422225982669,13.559520321709359" stroke="#ffa500" stroke-linecap="round" stroke-linejoin="round"/><polyline fill="none" points="-131.24972516835135,34.411722927087766 -128.74972516834967,33.74184994601274 -126.91959814942463,31.911722927092118 -126.24972516834357,29.411722927092054 -126.9195981494186,26.911722927090374 -128.74972516833924,25.081595908165337 -131.2497251683393,24.41172292708428 -133.74972516834097,25.081595908159304 -135.579852187266,26.91172292707993 -136.24972516834706,29.411722927079992 -135.57985218727202,31.911722927081673 -133.7497251683514,33.74184994600671 -131.24972516835135,34.411722927087766" stroke="#ffa500" stroke-linecap="round" stroke-linejoin="round"/><polyline fill="none" points="-149.43016141721913,69.09022183488176 -146.93016141721745,68.42034885380673 -145.1000343982924,66.59022183488611 -144.43016141721134,64.09022183488604 -145.10003439828637,61.59022183488435 -146.930161417207,59.76009481595931 -149.43016141720705,59.09022183487826 -151.93016141720872,59.76009481595328 -153.76028843613378,61.5902218348739 -154.43016141721483,64.09022183487397 -153.7602884361398,66.59022183487565 -151.93016141721918,68.42034885380069 -149.43016141721913,69.09022183488175" stroke="#ffa500" stroke-linecap="round" stroke-linejoin="round"/><polyline fill="none" points="-34.22184017829665,-13.230626094062334 -31.721840178294972,-13.900499075137356 -29.891713159369928,-15.730626094057978 -29.22184017828887,-18.230626094058042 -29.89171315936389,-20.730626094059723 -31.72184017828451,-22.560753112984766 -34.22184017828457,-23.230626094065826 -36.72184017828626,-22.560753112990806 -38.5519671972113,-20.730626094070185 -39.22184017829236,-18.23062609407012 -38.551967197217344,-15.73062609406844 -36.72184017829672,-13.900499075143395 -34.22184017829666,-13.230626094062334" stroke="#00f" stroke-linecap="round" stroke-linejoin="round"/><polyline fill="none" points="-56.431445697961955,-36.35969028463423 -53.93144569796027,-37.02956326570925 -52.101318679035224,-38.85969028462987 -51.43144569795416,-41.359690284629934 -52.10131867902918,-43.85969028463162 -53.9314456979498,-45.689817303556666 -56.43144569794986,-46.35969028463773 -58.931445697951546,-45.68981730356271 -60.76157271687659,-43.85969028464209 -61.431445697957656,-41.35969028464203 -60.76157271688264,-38.859690284640344 -58.93144569796202,-37.029563265715296 -56.431445697961955,-36.35969028463423" stroke="#00f" stroke-linecap="round" stroke-linejoin="round"/><polyline fill="none" points="-18.110805219197584,-55.59163138690486 -15.610805219195898,-56.261504367979875 -13.78067820027085,-58.091631386900495 -13.110805219189785,-60.59163138690056 -13.780678200264802,-63.09163138690224 -15.610805219185421,-64.92175840582729 -18.110805219185487,-65.59163138690836 -20.61080521918717,-64.92175840583334 -22.440932238112218,-63.091631386912724 -23.110805219193285,-60.59163138691266 -22.44093223811827,-58.091631386910976 -20.61080521919765,-56.26150436798593 -18.110805219197587,-55.59163138690486" stroke="#ffa500" stroke-linecap="round" stroke-linejoin="round"/><polyline fill="none" points="-126.02867003331883,15.11482091387603 -123.52867003331714,14.444947932801016 -121.69854301439209,12.614820913880397 -121.02867003331102,10.114820913880333 -121.69854301438603,7.6148209138786465 -123.52867003330665,5.784693894953596 -126.02867003330672,5.114820913872528 -128.5286700333084,5.784693894947542 -130.35879705223346,7.61482091386816 -131.0286700333145,10.114820913868224 -130.3587970522395,12.614820913869911 -128.5286700333189,14.444947932794964 -126.02867003331882,15.114820913876034" stroke="#ffa500" stroke-linecap="round" stroke-linejoin="round"/><polyline fill="none" points="-152.53304957500941,32.80413545998585 -150.03304957500774,32.13426247891084 -148.20292255608268,30.304135459990224 -147.5330495750016,27.80413545999016 -148.2029225560766,25.304135459988473 -150.03304957499722,23.474008441063418 -152.53304957499728,22.804135459982348 -155.03304957499896,23.47400844105736 -156.863176593924,25.304135459977978 -157.5330495750051,27.804135459978042 -156.8631765939301,30.30413545997973 -155.03304957500947,32.13426247890478 -152.53304957500941,32.80413545998585" stroke="#ffa500" stroke-linecap="round" stroke-linejoin="round"/><polyline fill="none" points="45.396905765757495,1.1527275566831219 47.896905765759186,0.4828545756081115 49.72703278468424,-1.347272443312504 50.39690576576531,-3.8472724433125682 49.7270327846903,-6.347272443314257 47.89690576576969,-8.177399462239311 45.396905765769624,-8.847272443320385 42.89690576576793,-8.177399462245376 41.06677874684288,-6.34727244332476 40.3969057657618,-3.847272443324696 41.06677874683681,-1.3472724433230066 42.896905765757424,0.48285457560204925 45.39690576575749,1.1527275566831248" stroke="#00f" stroke-linecap="round" stroke-linejoin="round"/><polyline fill="none" points="-139.76884533398535,4.574186555000223 -137.26884533398368,3.904313573925215 -135.43871831505862,2.074186555004601 -134.76884533397754,-0.4258134449954629 -135.43871831505254,-2.925813444997153 -137.26884533397316,-4.75594046392221 -139.76884533397322,-5.425813445003286 -142.2688453339749,-4.75594046392828 -144.09897235289995,-2.925813445007666 -144.76884533398103,-0.4258134450076021 -144.09897235290603,2.074186554994089 -142.2688453339854,3.904313573919147 -139.76884533398535,4.574186555000225" stroke="#ffa500" stroke-linecap="round" stroke-linejoin="round"/><polyline fill="none" points="-56.134733499509025,-0.7201455085833084 -53.634733499507334,-1.3900184896583139 -51.80460648058227,-3.2201455085789266 -51.134733499501195,-5.720145508578991 -51.8046064805762,-8.220145508580682 -53.63473349949681,-10.050272527505742 -56.134733499496875,-10.720145508586821 -58.634733499498566,-10.050272527511817 -60.46486051842363,-8.220145508591205 -61.134733499504705,-5.720145508591141 -60.4648605184297,-3.2201455085894493 -58.63473349950909,-1.3900184896643892 -56.134733499509025,-0.7201455085833087" stroke="#00f" stroke-linecap="round" stroke-linejoin="round"/><polyline fill="none" points="-167.88948387102428,-69.14145736346727 -165.38948387102258,-69.81133034454227 -163.55935685209752,-71.64145736346288 -162.88948387101644,-74.14145736346295 -163.55935685209144,-76.64145736346464 -165.38948387101206,-78.47158438238971 -167.88948387101212,-79.14145736347079 -170.38948387101382,-78.47158438239579 -172.21961088993888,-76.64145736347518 -172.88948387101996,-74.14145736347511 -172.21961088994496,-71.64145736347342 -170.38948387102434,-69.81133034454835 -167.88948387102428,-69.14145736346727" stroke="#ffa500" stroke-linecap="round" stroke-linejoin="round"/><polyline fill="none" points="-43.915976983475666,-21.62436012529363 -41.41597698347397,-22.294233106368633 -39.585849964548906,-24.124360125289243 -38.91597698346782,-26.624360125289307 -39.585849964542824,-29.124360125291002 -41.41597698346344,-30.954487144216067 -43.9159769834635,-31.62436012529715 -46.41597698346519,-30.954487144222153 -48.246104002390254,-29.124360125301543 -48.91597698347134,-26.62436012530148 -48.246104002396336,-24.124360125299784 -46.41597698347573,-22.29423310637472 -43.915976983475666,-21.624360125293634" stroke="#008000" stroke-linecap="round" stroke-linejoin="round"/><polyline fill="none" points="-126.3646749631984,-54.92896710198559 -123.8646749631967,-55.598840083060594 -122.03454794427164,-57.4289671019812 -121.36467496319055,-59.928967101981264 -122.03454794426555,-62.42896710198296 -123.86467496318616,-64.25909412090803 -126.36467496318622,-64.92896710198912 -128.86467496318792,-64.25909412091411 -130.69480198211298,-62.42896710199351 -131.36467496319406,-59.92896710199344 -130.69480198211906,-57.428967101991745 -128.86467496319844,-55.598840083066676 -126.36467496319838,-54.928967101985585" stroke="#ffa500" stroke-linecap="round" stroke-linejoin="round"/><polyline fill="none" points="-91.45170599901267,-61.538540645538134 -88.95170599901098,-62.20841362661313 -87.12157898008591,-64.03854064553374 -86.45170599900483,-66.5385406455338 -87.12157898007983,-69.03854064553549 -88.95170599900044,-70.86866766446056 -91.45170599900051,-71.53854064554164 -93.9517059990022,-70.86866766446666 -95.78183301792727,-69.03854064554605 -96.45170599900835,-66.53854064554598 -95.78183301793337,-64.03854064554429 -93.95170599901276,-62.20841362661922 -91.45170599901269,-61.53854064553813" stroke="#ffa500" stroke-linecap="round" stroke-linejoin="round"/><polyline fill="none" points="-138.59753215709577,-70.4846881189705 -136.09753215709407,-71.15456110004548 -134.26740513816898,-72.98468811896609 -133.5975321570879,-75.48468811896616 -134.2674051381629,-77.98468811896785 -136.0975321570835,-79.81481513789292 -138.59753215708355,-80.48468811897402 -141.09753215708525,-79.81481513789903 -142.92765917601034,-77.98468811897843 -143.59753215709142,-75.48468811897837 -142.92765917601642,-72.98468811897666 -141.09753215709583,-71.1545611000516 -138.59753215709577,-70.4846881189705" stroke="#ffa500" stroke-linecap="round" stroke-linejoin="round"/><polyline fill="none" points="-58.02681302615131,-66.91121870304872 -55.52681302614961,-67.5810916841237 -53.696686007224535,-69.41121870304431 -53.026813026143444,-71.91121870304438 -53.69668600721843,-74.41121870304609 -55.52681302613904,-76.24134572197116 -58.0268130261391,-76.91121870305226 -60.5268130261408,-76.24134572197727 -62.356940045065876,-74.41121870305666 -63.026813026146975,-71.91121870305659 -62.35694004507199,-69.41121870305489 -60.52681302615138,-67.58109168412982 -58.026813026151316,-66.91121870304872" stroke="#00f" stroke-linecap="round" stroke-linejoin="round"/><polyline fill="none" points="-32.30636655381525,-96.75894865542479 -29.80636655381355,-97.42882163649978 -27.976239534888474,-99.25894865542038 -27.306366553807376,-101.75894865542045 -27.976239534882364,-104.25894865542216 -29.806366553802967,-106.08907567434724 -32.30636655380303,-106.75894865542834 -34.806366553804736,-106.08907567435335 -36.63649357272981,-104.25894865543275 -37.30636655381091,-101.75894865543268 -36.63649357273592,-99.25894865543097 -34.80636655381532,-97.42882163650589 -32.30636655381526,-96.75894865542479" stroke="#ffa500" stroke-linecap="round" stroke-linejoin="round"/><polyline fill="none" points="-23.937859504039146,-40.272241076906234 -21.437859504037444,-40.94211405798122 -19.607732485112365,-42.77224107690182 -18.937859504031266,-45.272241076901885 -19.607732485106254,-47.77224107690359 -21.437859504026857,-49.602368095828666 -23.93785950402692,-50.272241076909765 -26.437859504028623,-49.60236809583478 -28.267986522953702,-47.77224107691418 -28.937859504034805,-45.27224107691411 -28.26798652295982,-42.77224107691241 -26.43785950403922,-40.94211405798733 -23.937859504039157,-40.27224107690623" stroke="#008000" stroke-linecap="round" stroke-linejoin="round"/><polyline fill="none" points="-92.54414856499965,-74.63838397368795 -90.04414856499794,-75.30825695476294 -88.21402154607286,-77.13838397368355 -87.54414856499176,-79.63838397368362 -88.21402154606675,-82.13838397368532 -90.04414856498735,-83.9685109926104 -92.54414856498742,-84.6383839736915 -95.04414856498913,-83.96851099261652 -96.87427558391421,-82.13838397369591 -97.54414856499531,-79.63838397369584 -96.87427558392032,-77.13838397369413 -95.04414856499972,-75.30825695476905 -92.54414856499965,-74.63838397368795" stroke="#ffa500" stroke-linecap="round" stroke-linejoin="round"/><polyline fill="none" points="-103.09835041222213,-63.435496333705004 -100.59835041222043,-64.10536931477999 -98.76822339329534,-65.9354963337006 -98.09835041221424,-68.43549633370066 -98.76822339328923,-70.93549633370236 -100.59835041220983,-72.76562335262744 -103.0983504122099,-73.43549633370856 -105.5983504122116,-72.76562335263358 -107.42847743113668,-70.93549633371299 -108.0983504122178,-68.43549633371292 -107.42847743114282,-65.93549633371121 -105.59835041222223,-64.10536931478613 -103.09835041222217,-63.435496333705025" stroke="#ffa500" stroke-linecap="round" stroke-linejoin="round"/><polyline fill="none" points="-14.496652247063583,-65.75645834651733 -11.996652247061878,-66.42633132759231 -10.166525228136793,-68.2564583465129 -9.496652247055685,-70.75645834651297 -10.166525228130665,-73.25645834651468 -11.996652247051262,-75.08658536543976 -14.496652247051326,-75.75645834652087 -16.996652247053035,-75.0865853654459 -18.82677926597812,-73.2564583465253 -19.49665224705923,-70.75645834652525 -18.826779265984253,-68.25645834652354 -16.996652247063658,-66.42633132759846 -14.496652247063594,-65.75645834651735" stroke="#ffa500" stroke-linecap="round" stroke-linejoin="round"/><polyline fill="none" points="-112.99518221359742,-67.10599193310449 -110.49518221359571,-67.77586491417946 -108.66505519467063,-69.60599193310006 -107.99518221358952,-72.10599193310011 -108.66505519466449,-74.60599193310182 -110.49518221358508,-76.4361189520269 -112.99518221358515,-77.10599193310802 -115.49518221358686,-76.43611895203304 -117.32530923251194,-74.60599193311245 -117.99518221359305,-72.10599193311239 -117.32530923251808,-69.60599193311069 -115.49518221359749,-67.7758649141856 -112.99518221359742,-67.10599193310449" stroke="#00f" stroke-linecap="round" stroke-linejoin="round"/><polyline fill="none" points="29.130570871520646,-41.66061695567784 31.630570871522355,-42.33048993675281 33.46069789044744,-44.160616955673405 34.130570871528555,-46.66061695567347 33.46069789045358,-49.16061695567518 31.630570871532985,-50.99074397460027 29.13057087153292,-51.660616955681384 26.630570871531212,-50.99074397460641 24.800443852606122,-49.16061695568582 24.130570871525006,-46.660616955685754 24.80044385259998,-44.16061695568404 26.630570871520575,-42.33048993675895 29.13057087152064,-41.66061695567784" stroke="#00f" stroke-linecap="round" stroke-linejoin="round"/><polyline fill="none" points="-92.17218960387852,-106.9440994947776 -89.67218960387682,-107.61397247585258 -87.84206258495172,-109.44409949477317 -87.1721896038706,-111.94409949477324 -87.84206258494558,-114.44409949477495 -89.67218960386617,-116.27422651370004 -92.17218960386624,-116.94409949478116 -94.67218960386795,-116.27422651370618 -96.50231662279305,-114.44409949478559 -97.17218960387416,-111.94409949478552 -96.50231662279919,-109.44409949478381 -94.67218960387859,-107.61397247585872 -92.17218960387852,-106.9440994947776" stroke="#ffa500" stroke-linecap="round" stroke-linejoin="round"/><polyline fill="none" points="-74.99506047019943,-85.17503489515128 -72.49506047019773,-85.84490787622626 -70.66493345127263,-87.67503489514685 -69.99506047019152,-90.17503489514692 -70.66493345126649,-92.67503489514863 -72.49506047018708,-94.50516191407372 -74.99506047018716,-95.17503489515485 -77.49506047018886,-94.50516191407988 -79.32518748911396,-92.67503489515929 -79.99506047019509,-90.17503489515923 -79.32518748912011,-87.67503489515751 -77.49506047019952,-85.84490787623241 -74.99506047019946,-85.17503489515128" stroke="#ffa500" stroke-linecap="round" stroke-linejoin="round"/><polyline fill="none" points="-67.46008167465077,-86.87515441929311 -64.96008167464905,-87.54502740036808 -63.12995465572395,-89.37515441928868 -62.46008167464283,-91.87515441928875 -63.129954655717796,-94.37515441929047 -64.96008167463839,-96.20528143821556 -67.46008167463845,-96.87515441929669 -69.96008167464016,-96.20528143822173 -71.79020869356526,-94.37515441930114 -72.46008167464639,-91.87515441930108 -71.79020869357143,-89.37515441929936 -69.96008167465084,-87.54502740037427 -67.46008167465077,-86.87515441929314" stroke="#ffa500" stroke-linecap="round" stroke-linejoin="round"/><polyline fill="none" points="-39.11594747277912,-79.33880025987604 -36.61594747277741,-80.008673240951 -34.78582045385231,-81.83880025987159 -34.11594747277118,-84.33880025987165 -34.78582045384615,-86.83880025987337 -36.61594747276674,-88.66892727879846 -39.115947472766806,-89.33880025987959 -41.61594747276852,-88.66892727880463 -43.44607449169362,-86.83880025988404 -44.11594747277475,-84.33880025988397 -43.44607449169979,-81.83880025988225 -41.615947472779204,-80.00867324095715 -39.11594747277914,-79.33880025987602" stroke="#00f" stroke-linecap="round" stroke-linejoin="round"/><polyline fill="none" points="-11.346421646863634,32.1381407139613 -8.846421646861918,31.468267732886336 -7.016294627936816,29.638140713965747 -6.346421646855687,27.138140713965683 -7.016294627930648,24.638140713963967 -8.846421646851237,22.808013695038863 -11.3464216468513,22.138140713957732 -13.846421646853019,22.80801369503269 -15.676548665778123,24.63814071395328 -16.346421646859252,27.138140713953344 -15.67654866578429,29.63814071395506 -13.846421646863703,31.468267732880165 -11.34642164686364,32.13814071396129" stroke="#00f" stroke-linecap="round" stroke-linejoin="round"/><polyline fill="none" points="-41.313865018056276,-99.64868519125939 -38.81386501805456,-100.31855817233435 -36.98373799912945,-102.14868519125494 -36.31386501804832,-104.64868519125501 -36.98373799912328,-107.14868519125673 -38.81386501804386,-108.97881221018184 -41.31386501804393,-109.64868519126297 -43.81386501804565,-108.97881221018801 -45.64399203697075,-107.14868519126742 -46.313865018051885,-104.64868519126735 -45.643992036976925,-102.14868519126563 -43.81386501805634,-100.31855817234052 -41.313865018056276,-99.64868519125939" stroke="#ffa500" stroke-linecap="round" stroke-linejoin="round"/><polyline fill="none" points="-15.542521457789826,0.26679164476502937 -13.042521457788107,-0.40308133630992893 -11.212394438863,-2.2332083552305146 -10.542521457781866,-4.733208355230579 -11.212394438856824,-7.233208355232298 -13.04252145777741,-9.063335374157406 -15.542521457777474,-9.73320835523854 -18.042521457779195,-9.063335374163584 -19.872648476704303,-7.233208355242999 -20.542521457785437,-4.733208355242935 -19.87264847671048,-2.2332083552412145 -18.042521457789896,-0.4030813363161061 -15.542521457789832,0.2667916447650296" stroke="#008000" stroke-linecap="round" stroke-linejoin="round"/><polyline fill="none" points="-41.657389800197635,-140.60549539593978 -39.157389800195915,-141.27536837701473 -37.327262781270804,-143.10549539593532 -36.65738980018967,-145.60549539593538 -37.32726278126462,-148.1054953959371 -39.15738980018521,-149.93562241486222 -41.65738980018527,-150.60549539594336 -44.15738980018699,-149.93562241486842 -45.9875168191121,-148.10549539594783 -46.657389800193236,-145.60549539594777 -45.987516819118284,-143.10549539594604 -44.1573898001977,-141.27536837702092 -41.657389800197635,-140.60549539593978" stroke="#ffa500" stroke-linecap="round" stroke-linejoin="round"/><polyline fill="none" points="42.937033949705224,-156.84341984375226 45.437033949706944,-157.5132928248272 47.267160968632055,-159.3434198437478 47.9370339497132,-161.84341984374785 47.267160968638244,-164.3434198437496 45.43703394971766,-166.1735468626747 42.937033949717595,-166.84341984375584 40.437033949715875,-166.1735468626809 38.606906930790764,-164.3434198437603 37.93703394970962,-161.84341984376024 38.606906930784575,-159.3434198437585 40.43703394970516,-157.5132928248334 42.937033949705224,-156.84341984375226" stroke="#ffa500" stroke-linecap="round" stroke-linejoin="round"/></svg>