<?xml version="1.0" ?><!DOCTYPE svg  PUBLIC '-//W3C//DTD SVG 1.1//EN'  'http://www.w3.org/Graphics/SVG/1.1/DTD/svg11.dtd'><svg height="286.000" viewBox="-271.000 -167.000 579.000 286.000" width="579.000" xmlns="http://www.w3.org/2000/svg"><line fill="none" stroke="none" stroke-linecap="round" stroke-width="2.0" x1="0.0" x2="0.0" y1="0.0" y2="0.0"/><polygon fill="none" fill-rule="evenodd" points="0.0,0.0 0.0,0.0 0.0,0.0" stroke-linejoin="round"/><polyline fill="none" points="-183.810365070088,-92.68921472019606 -181.3103650700724,-93.35908770124784 -179.4802380511237,-95.18921472015529 -178.81036507001556,-97.68921472015577 -179.48023805106735,-100.18921472017136 -181.31036506997478,-102.01934173912008 -183.81036506997526,-102.68921472022822 -186.31036506999087,-102.01934173917645 -188.14049208893957,-100.189214720269 -188.8103650700477,-97.68921472026852 -188.14049208899593,-95.18921472025293 -186.3103650700885,-93.35908770130422 -183.810365070088,-92.68921472019608" stroke="#00f" stroke-linecap="round" stroke-linejoin="round"/><polyline fill="none" points="-243.41996763789152,-87.31038630606855 -240.9199676378759,-87.98025928712032 -239.0898406189272,-89.81038630602777 -238.41996763781907,-92.31038630602825 -239.08984061887085,-94.81038630604384 -240.91996763777829,-96.64051332499255 -243.41996763777877,-97.31038630610071 -245.91996763779437,-96.64051332504894 -247.7500946567431,-94.8103863061415 -248.41996763785124,-92.31038630614101 -247.75009465679946,-89.81038630612542 -245.91996763789203,-87.98025928717671 -243.41996763789155,-87.31038630606855" stroke="#008000" stroke-linecap="round" stroke-linejoin="round"/><polyline fill="none" points="-140.8299512104771,-94.22285434291409 -138.3299512104615,-94.89272732396586 -136.49982419151277,-96.7228543428733 -135.82995121040463,-99.22285434287379 -136.4998241914564,-101.72285434288938 -138.32995121036384,-103.55298136183809 -140.82995121036433,-104.22285434294625 -143.32995121037993,-103.55298136189448 -145.16007822932866,-101.72285434298703 -145.8299512104368,-99.22285434298655 -145.16007822938502,-96.72285434297096 -143.3299512104776,-94.89272732402225 -140.8299512104771,-94.22285434291409" stroke="#ffa500" stroke-linecap="round" stroke-linejoin="round"/><polyline fill="none" points="-186.15370979162304,-96.00390929060954 -183.65370979160744,-96.67378227166131 -181.8235827726587,-98.50390929056876 -181.15370979155057,-101.00390929056924 -181.82358277260235,-103.50390929058484 -183.65370979150978,-105.33403630953356 -186.15370979151027,-106.00390929064172 -188.65370979152587,-105.33403630958995 -190.4838368104746,-103.5039092906825 -191.15370979158277,-101.00390929068202 -190.48383681053102,-98.50390929066641 -188.65370979162358,-96.6737822717177 -186.1537097916231,-96.00390929060954" stroke="#008000" stroke-linecap="round" stroke-linejoin="round"/><polyline fill="none" points="-221.51331357261995,-63.17453545289791 -219.01331357260435,-63.84440843394968 -217.18318655365562,-65.67453545285713 -216.51331357254745,-68.17453545285761 -217.1831865535992,-70.67453545287322 -219.01331357250663,-72.50466247182194 -221.51331357250712,-73.1745354529301 -224.01331357252272,-72.50466247187833 -225.84344059147145,-70.6745354529709 -226.51331357257962,-68.17453545297042 -225.84344059152787,-65.67453545295481 -224.01331357262043,-63.84440843400609 -221.51331357261995,-63.17453545289793" stroke="#00f" stroke-linecap="round" stroke-linejoin="round"/><polyline fill="none" points="-225.5117157178817,-121.46176999057182 -223.0117157178661,-122.13164297162359 -221.18158869891738,-123.96176999053102 -220.5117157178092,-126.46176999053151 -221.18158869886096,-128.9617699905471 -223.0117157177684,-130.79189700949584 -225.51171571776888,-131.461769990604 -228.01171571778448,-130.79189700955226 -229.8418427367332,-128.96176999064483 -230.51171571784138,-126.46176999064434 -229.84184273678963,-123.96176999062874 -228.0117157178822,-122.13164297168001 -225.5117157178817,-121.46176999057184" stroke="#00f" stroke-linecap="round" stroke-linejoin="round"/><polyline fill="none" points="257.6422923672019,-135.52146873968024 260.14229236721746,-136.191341720732 261.97241938616617,-138.02146873963943 262.6422923672743,-140.52146873963991 261.97241938622255,-143.02146873965552 260.1422923673151,-144.85159575860425 257.6422923673146,-145.52146873971242 255.142292367299,-144.85159575866066 253.31216534835028,-143.02146873975323 252.6422923672421,-140.52146873975275 253.31216534829386,-138.02146873973714 255.1422923672013,-136.19134172078842 257.6422923672018,-135.52146873968024" stroke="#ffa500" stroke-linecap="round" stroke-linejoin="round"/><polyline fill="none" points="-255.3108423644616,-100.49430581357 -252.810842364446,-101.16417879462175 -250.98071534549726,-102.99430581352918 -250.3108423643891,-105.49430581352966 -250.98071534544084,-107.99430581354527 -252.81084236434828,-109.824432832494 -255.31084236434876,-110.49430581360217 -257.81084236436436,-109.82443283255041 -259.6409693833131,-107.99430581364298 -260.31084236442126,-105.4943058136425 -259.6409693833695,-102.9943058136269 -257.8108423644621,-101.16417879467816 -255.3108423644616,-100.49430581357" stroke="#00f" stroke-linecap="round" stroke-linejoin="round"/><polyline fill="none" points="76.92961195226499,3.5209227180274887 79.4296119522806,2.851049736975733 81.25973897122932,1.0209227180682983 81.9296119523375,-1.4790772819321902 81.25973897128574,-3.9790772819477955 79.42961195237831,-5.809204300896529 76.92961195237783,-6.479077282004701 74.42961195236222,-5.809204300952946 72.59948493341349,-3.9790772820455125 71.92961195230532,-1.4790772820450235 72.59948493335708,1.0209227179705822 74.42961195226451,2.8510497369193173 76.92961195226499,3.5209227180274896" stroke="#ffa500" stroke-linecap="round" stroke-linejoin="round"/><polyline fill="none" points="290.87794321852624,-141.7972711359664 293.3779432185419,-142.46714411701817 295.20807023749063,-144.2972711359256 295.87794321859883,-146.79727113592608 295.2080702375471,-149.29727113594168 293.37794321863964,-151.12739815489041 290.87794321863913,-151.79727113599859 288.3779432186235,-151.12739815494683 286.54781619967474,-149.2972711360394 285.87794321856654,-146.79727113603892 286.5478161996183,-144.2972711360233 288.37794321852573,-142.46714411707458 290.87794321852624,-141.7972711359664" stroke="#00f" stroke-linecap="round" stroke-linejoin="round"/><polyline fill="none" points="-199.04102559117965,-103.1564723478049 -196.54102559116404,-103.82634532885665 -194.7108985722153,-105.65647234776408 -194.04102559110714,-108.15647234776456 -194.7108985721589,-110.65647234778017 -196.54102559106633,-112.48659936672891 -199.0410255910668,-113.15647234783708 -201.54102559108242,-112.48659936678533 -203.37115261003115,-110.6564723478779 -204.04102559113932,-108.15647234787741 -203.37115261008756,-105.65647234786181 -201.54102559118013,-103.82634532891306 -199.04102559117965,-103.15647234780488" stroke="#00f" stroke-linecap="round" stroke-linejoin="round"/><polyline fill="none" points="-126.21431644777333,-24.930896714009283 -123.71431644775772,-25.600769695061032 -121.88418942880898,-27.430896713968465 -121.2143164477008,-29.930896713968956 -121.88418942875255,-32.430896713984566 -123.71431644765998,-34.26102373293331 -126.21431644766047,-34.93089671404149 -128.71431644767608,-34.26102373298974 -130.5444434666248,-32.43089671408231 -131.21431644773298,-29.93089671408182 -130.54444346668123,-27.430896714066208 -128.7143164477738,-25.600769695117467 -126.21431644777331,-24.930896714009286" stroke="#00f" stroke-linecap="round" stroke-linejoin="round"/><polyline fill="none" points="-154.7228318170306,-103.85995536192031 -152.222831817015,-104.52982834297207 -150.39270479806626,-106.3599553618795 -149.7228318169581,-108.85995536187998 -150.39270479800985,-111.3599553618956 -152.22283181691728,-113.19008238084434 -154.72283181691776,-113.85995536195253 -157.22283181693336,-113.19008238090079 -159.0529588358821,-111.35995536199336 -159.72283181699026,-108.85995536199287 -159.0529588359385,-106.35995536197726 -157.22283181703108,-104.52982834302851 -154.7228318170306,-103.85995536192033" stroke="#ffa500" stroke-linecap="round" stroke-linejoin="round"/><polyline fill="none" points="-142.65948779524746,7.826004327773444 -140.15948779523185,7.1561313467217 -138.3293607762831,5.326004327814271 -137.65948779517493,2.8260043278137816 -138.32936077622668,0.3260043277981697 -140.1594877951341,-1.5041226911505752 -142.6594877951346,-2.1739956722587594 -145.1594877951502,-1.504122691207016 -146.98961481409896,0.32600432770041166 -147.65948779520716,2.8260043277009004 -146.9896148141554,5.326004327716513 -145.15948779524797,7.1561313466652585 -142.6594877952475,7.826004327773444" stroke="#ffa500" stroke-linecap="round" stroke-linejoin="round"/><polyline fill="none" points="-146.61437955972693,-64.56584435940383 -144.11437955971132,-65.23571734045557 -142.28425254076257,-67.065844359363 -141.61437955965437,-69.56584435936348 -142.28425254070612,-72.0658443593791 -144.11437955961355,-73.89597137832784 -146.61437955961404,-74.56584435943603 -149.11437955962964,-73.89597137838429 -150.9445065785784,-72.06584435947686 -151.6143795596866,-69.56584435947637 -150.94450657863484,-67.06584435946075 -149.1143795597274,-65.23571734051201 -146.61437955972693,-64.56584435940383" stroke="#ffa500" stroke-linecap="round" stroke-linejoin="round"/><polyline fill="none" points="-196.76084958086133,-125.47361444478676 -194.26084958084573,-126.1434874258385 -192.43072256189697,-127.97361444474592 -191.76084958078877,-130.4736144447464 -192.43072256184053,-132.973614444762 -194.26084958074796,-134.80374146371076 -196.76084958074844,-135.47361444481896 -199.26084958076405,-134.80374146376724 -201.0909765997128,-132.9736144448598 -201.760849580821,-130.47361444485932 -201.09097659976928,-127.9736144448437 -199.26084958086184,-126.14348742589496 -196.76084958086136,-125.47361444478678" stroke="#00f" stroke-linecap="round" stroke-linejoin="round"/><polyline fill="none" points="-190.2551927693165,-67.19297078826139 -187.7551927693009,-67.86284376931313 -185.92506575035213,-69.69297078822055 -185.25519276924393,-72.19297078822103 -185.92506575029566,-74.69297078823665 -187.7551927692031,-76.52309780718541 -190.25519276920357,-77.19297078829361 -192.75519276921918,-76.52309780724187 -194.58531978816794,-74.69297078833445 -195.25519276927614,-72.19297078833397 -194.5853197882244,-69.69297078831835 -192.75519276931698,-67.86284376936959 -190.2551927693165,-67.19297078826139" stroke="#00f" stroke-linecap="round" stroke-linejoin="round"/><polyline fill="none" points="-165.5526393118491,28.52084281584227 -163.0526393118335,27.850969834790533 -161.22251229288474,26.02084281588311 -160.55263931177655,23.520842815882624 -161.22251229282827,21.020842815867006 -163.0526393117357,19.19071579691825 -165.5526393117362,18.520842815810056 -168.0526393117518,19.19071579686179 -169.88276633070055,21.020842815769214 -170.55263931180875,23.520842815769704 -169.88276633075702,26.020842815785322 -168.0526393118496,27.850969834734077 -165.5526393118491,28.520842815842272" stroke="#ffa500" stroke-linecap="round" stroke-linejoin="round"/><polyline fill="none" points="-221.05707273016213,-129.3151318120472 -218.5570727301465,-129.98500479309894 -216.72694571119774,-131.81513181200637 -216.05707273008954,-134.31513181200685 -216.72694571114127,-136.81513181202249 -218.5570727300487,-138.64525883097124 -221.05707273004919,-139.31513181207944 -223.55707273006482,-138.64525883102772 -225.38719974901358,-136.81513181212028 -226.05707273012177,-134.3151318121198 -225.38719974907005,-131.81513181210417 -223.55707273016262,-129.9850047931554 -221.05707273016213,-129.3151318120472" stroke="#00f" stroke-linecap="round" stroke-linejoin="round"/><polyline fill="none" points="47.47050434074981,-6.403608639765071 49.97050434076543,-7.073481620816802 51.80063135971419,-8.90360863972422 52.47050434082239,-11.403608639724709 51.800631359770655,-13.903608639740328 49.970504340863236,-15.733735658689088 47.470504340862746,-16.40360863979729 44.97050434084713,-15.733735658745562 43.14037732189837,-13.903608639838144 42.47050434079017,-11.403608639837655 43.140377321841896,-8.903608639822036 44.970504340749315,-7.073481620873275 47.470504340749805,-6.403608639765072" stroke="#00f" stroke-linecap="round" stroke-linejoin="round"/><polyline fill="none" points="-119.77284048859569,-51.58068071609611 -117.27284048858007,-52.250553697147836 -115.44271346963131,-54.080680716055255 -114.77284048852312,-56.580680716055745 -115.44271346957484,-59.08068071607136 -117.27284048848226,-60.91080773502012 -119.77284048848274,-61.58068071612833 -122.27284048849836,-60.9108077350766 -124.10296750744712,-59.080680716169184 -124.77284048855532,-56.58068071616869 -124.10296750750359,-54.08068071615307 -122.27284048859617,-52.2505536972043 -119.77284048859569,-51.5806807160961" stroke="#ffa500" stroke-linecap="round" stroke-linejoin="round"/><polyline fill="none" points="-246.18117531425602,-115.48164637244237 -243.6811753142404,-116.1515193534941 -241.85104829529163,-117.98164637240151 -241.18117531418343,-120.481646372402 -241.85104829523516,-122.98164637241761 -243.68117531414256,-124.81177339136637 -246.18117531414305,-125.48164637247459 -248.68117531415868,-124.81177339142286 -250.51130233310744,-122.98164637251544 -251.18117531421564,-120.48164637251496 -250.5113023331639,-117.98164637249934 -248.6811753142565,-116.15151935355057 -246.18117531425602,-115.48164637244236" stroke="#ffa500" stroke-linecap="round" stroke-linejoin="round"/><polyline fill="none" points="-55.4618935272924,-52.98214498415835 -52.96189352727678,-53.65201796521008 -51.13176650832801,-55.4821449841175 -50.46189352721981,-57.98214498411799 -51.13176650827153,-60.48214498413361 -52.96189352717895,-62.31227200308238 -55.46189352717944,-62.98214498419058 -57.961893527195066,-62.31227200313886 -59.79202054614383,-60.48214498423144 -60.461893527252045,-57.98214498423095 -59.79202054620033,-55.482144984215324 -57.961893527292915,-53.65201796526656 -55.461893527292425,-52.982144984158346" stroke="#ffa500" stroke-linecap="round" stroke-linejoin="round"/><polyline fill="none" points="-191.2676417483213,-77.30966591302905 -188.76764174830566,-77.97953889408078 -186.9375147293569,-79.8096659129882 -186.2676417482487,-82.30966591298868 -186.93751472930043,-84.80966591300431 -188.76764174820784,-86.63979293195308 -191.26764174820832,-87.3096659130613 -193.76764174822395,-86.63979293200957 -195.5977687671727,-84.80966591310215 -196.2676417482809,-82.30966591310167 -195.59776876722918,-79.80966591308604 -193.76764174832178,-77.97953889413726 -191.2676417483213,-77.30966591302905" stroke="#00f" stroke-linecap="round" stroke-linejoin="round"/><polyline fill="none" points="-103.35867253458639,79.9946341608969 -100.85867253457076,79.32476117984517 -99.02854551562199,77.49463416093775 -98.35867253451377,74.99463416093727 -99.0285455155655,72.49463416092163 -100.85867253447292,70.66450714197286 -103.35867253447341,69.99463416086465 -105.85867253448905,70.66450714191636 -107.68879955343782,72.49463416082378 -108.35867253454603,74.99463416082428 -107.68879955349432,77.49463416083991 -105.8586725345869,79.32476117978868 -103.3586725345864,79.9946341608969" stroke="#ffa500" stroke-linecap="round" stroke-linejoin="round"/><polyline fill="none" points="-109.36708406008731,-48.037005708470026 -106.86708406007168,-48.706878689521744 -105.0369570411229,-50.537005708429156 -104.36708406001469,-53.037005708429646 -105.0369570410664,-55.53700570844528 -106.86708405997382,-57.36713272739405 -109.36708405997432,-58.03700570850227 -111.86708405998995,-57.36713272745055 -113.69721107893872,-55.53700570854314 -114.36708406004693,-53.03700570854265 -113.69721107899522,-50.53700570852702 -111.8670840600878,-48.70687868957824 -109.36708406008731,-48.03700570847002" stroke="#ffa500" stroke-linecap="round" stroke-linejoin="round"/><polyline fill="none" points="263.262082732445,-145.85106963633538 265.7620827324606,-146.5209426173871 267.59220975140937,-148.3510696362945 268.26208273251757,-150.851069636295 267.5922097514659,-153.35106963631063 265.76208273255844,-155.1811966552594 263.26208273255793,-155.85106963636764 260.7620827325423,-155.18119665531592 258.93195571359354,-153.3510696364085 258.26208273248534,-150.85106963640803 258.93195571353704,-148.3510696363924 260.76208273244447,-146.5209426174436 263.262082732445,-145.85106963633538" stroke="#ffa500" stroke-linecap="round" stroke-linejoin="round"/><polyline fill="none" points="-155.77769518740612,-98.85392178797893 -153.2776951873905,-99.52379476903064 -151.4475681684417,-101.35392178793805 -150.77769518733348,-103.85392178793855 -151.4475681683852,-106.35392178795418 -153.2776951872926,-108.18404880690296 -155.7776951872931,-108.85392178801119 -158.27769518730872,-108.18404880695948 -160.1078222062575,-106.35392178805208 -160.77769518736574,-103.85392178805158 -160.10782220631404,-101.35392178803595 -158.27769518740664,-99.52379476908716 -155.77769518740615,-98.85392178797893" stroke="#ffa500" stroke-linecap="round" stroke-linejoin="round"/><polyline fill="none" points="-101.09510830250707,17.04093006712746 -98.59510830249144,16.371057086075748 -96.76498128354265,14.540930067168338 -96.09510830243443,12.040930067167846 -96.76498128348614,9.54093006715221 -98.59510830239354,7.710803048203427 -101.09510830239404,7.040930067095201 -103.59510830240967,7.710803048146909 -105.42523532135846,9.540930067054317 -106.09510830246668,12.04093006705481 -105.42523532141497,14.540930067070445 -103.59510830250757,16.371057086019228 -101.09510830250707,17.040930067127455" stroke="#ffa500" stroke-linecap="round" stroke-linejoin="round"/><polyline fill="none" points="-175.4748086168608,-55.47310089838531 -172.97480861684517,-56.142973879437015 -171.14468159789638,-57.97310089834443 -170.47480861678815,-60.47310089834492 -171.14468159783985,-62.973100898360556 -172.97480861674725,-64.80322791730934 -175.47480861674774,-65.47310089841757 -177.97480861676337,-64.80322791736586 -179.80493563571216,-62.973100898458455 -180.47480861682038,-60.473100898457965 -179.8049356357687,-57.973100898442326 -177.97480861686128,-56.14297387949354 -175.4748086168608,-55.47310089838531" stroke="#ffa500" stroke-linecap="round" stroke-linejoin="round"/><polyline fill="none" points="-50.55274685522396,-38.59452883246477 -48.05274685520832,-39.26440181351647 -46.22261983625953,-41.094528832423876 -45.5527468551513,-43.594528832424366 -46.222619836203,-46.094528832440005 -48.052746855110406,-47.92465585138879 -50.5527468551109,-48.594528832497026 -53.052746855126536,-47.92465585144532 -54.88287387407532,-46.09452883253792 -55.55274685518356,-43.59452883253743 -54.88287387413185,-41.09452883252179 -53.05274685522445,-39.264401813573 -50.55274685522396,-38.59452883246477" stroke="#ffa500" stroke-linecap="round" stroke-linejoin="round"/><polyline fill="none" points="-106.16160895258884,-63.61093632566141 -103.66160895257319,-64.28080930671311 -101.8314819336244,-66.11093632562051 -101.16160895251618,-68.61093632562101 -101.83148193356787,-71.11093632563666 -103.66160895247528,-72.94106334458544 -106.16160895247577,-73.61093632569369 -108.66160895249142,-72.94106334464199 -110.4917359714402,-71.11093632573458 -111.16160895254845,-68.61093632573409 -110.49173597149675,-66.11093632571844 -108.66160895258935,-64.28080930676965 -106.16160895258885,-63.61093632566142" stroke="#00f" stroke-linecap="round" stroke-linejoin="round"/><polyline fill="none" points="-188.45844632596447,20.41732593388184 -185.95844632594884,19.74745295283014 -184.12831930700006,17.917325933922736 -183.45844632589183,15.417325933922243 -184.12831930694352,12.9173259339066 -185.95844632585093,11.087198914957806 -188.4584463258514,10.417325933849568 -190.95844632586704,11.087198914901267 -192.78857334481583,12.917325933808671 -193.45844632592406,15.417325933809163 -192.78857334487236,17.917325933824806 -190.95844632596496,19.7474529527736 -188.45844632596447,20.417325933881838" stroke="#00f" stroke-linecap="round" stroke-linejoin="round"/><polyline fill="none" points="-64.10158789094359,38.91473197106533 -61.601587890927945,38.24485899001363 -59.77146087197915,36.41473197110623 -59.10158789087091,33.91473197110574 -59.771460871922606,31.414731971090095 -61.60158789083001,29.584604952141298 -64.1015878908305,28.914731971033056 -66.60158789084615,29.584604952084753 -68.43171490979495,31.414731970992158 -69.10158789090319,33.91473197099265 -68.4317149098515,36.414731971008294 -66.60158789094409,38.24485898995709 -64.10158789094359,38.91473197106533" stroke="#ffa500" stroke-linecap="round" stroke-linejoin="round"/><polyline fill="none" points="-46.88310272610658,53.752424355231945 -44.38310272609093,53.08255137418025 -42.55297570714214,51.252424355272844 -41.8831027260339,48.75242435527235 -42.552975707085594,46.25242435525671 -44.383102725993,44.422297336307906 -46.88310272599349,43.752424355199665 -49.383102726009135,44.42229733625136 -51.213229744957935,46.252424355158766 -51.88310272606618,48.752424355159256 -51.21322974501448,51.2524243551749 -49.383102726107076,53.0825513741237 -46.883102726106586,53.752424355231945" stroke="#ffa500" stroke-linecap="round" stroke-linejoin="round"/><polyline fill="none" points="280.0315460439759,-145.3407220624762 282.5315460439915,-146.0105950435279 284.3616730629403,-147.8407220624353 285.0315460440486,-150.3407220624358 284.3616730629969,-152.84072206245142 282.5315460440895,-154.6708490814002 280.031546044089,-155.34072206250846 277.53154604407337,-154.67084908145677 275.70141902512455,-152.84072206254936 275.0315460440163,-150.34072206254888 275.701419025068,-147.84072206253322 277.53154604397537,-146.0105950435844 280.0315460439759,-145.34072206247615" stroke="#ffa500" stroke-linecap="round" stroke-linejoin="round"/><polyline fill="none" points="-137.43010348254336,19.460963604382627 -134.9301034825277,18.791090623330938 -133.09997646357888,16.960963604423537 -132.43010348247063,14.460963604423043 -133.09997646352232,11.960963604407395 -134.93010348242973,10.130836585458592 -137.4301034824302,9.460963604350344 -139.93010348244587,10.130836585402033 -141.7602305013947,11.960963604309432 -142.43010348250294,14.460963604309924 -141.76023050145125,16.96096360432557 -139.93010348254384,18.791090623274375 -137.43010348254336,19.460963604382624" stroke="#ffa500" stroke-linecap="round" stroke-linejoin="round"/><polyline fill="none" points="48.170784992951624,3.0574066319059683 50.67078499296727,2.3875336508542797 52.50091201191607,0.5574066319468813 53.17078499302432,-1.9425933680536112 52.50091201197263,-4.44259336806926 50.67078499306523,-6.272720387018065 48.17078499306474,-6.9425933681263166 45.6707849930491,-6.27272038707463 43.84065797410029,-4.442593368167232 43.17078499299204,-1.9425933681667398 43.84065797404373,0.5574066318489099 45.67078499295113,2.3875336507977165 48.17078499295162,3.0574066319059696" stroke="#ffa500" stroke-linecap="round" stroke-linejoin="round"/><polyline fill="none" points="279.1406037457249,-119.83969475835185 281.6406037457405,-120.50956773940354 283.47073076468934,-122.33969475831093 284.1406037457976,-124.83969475831142 283.4707307647459,-127.33969475832707 281.6406037458385,-129.16982177727587 279.140603745838,-129.83969475838413 276.6406037458224,-129.16982177733243 274.81047672687356,-127.33969475842504 274.1406037457653,-124.83969475842454 274.810476726817,-122.3396947584089 276.6406037457244,-120.50956773946008 279.1406037457249,-119.83969475835183" stroke="#ffa500" stroke-linecap="round" stroke-linejoin="round"/><polyline fill="none" points="72.16144840873925,21.659039520567966 74.6614484087549,20.989166539516283 76.49157542770371,19.159039520608886 77.16144840881196,16.659039520608392 76.49157542776028,14.15903952059274 74.66144840885289,12.32891250164393 72.1614484088524,11.659039520535673 69.66144840883675,12.328912501587356 67.83132138988793,14.159039520494751 67.16144840877968,16.659039520495245 67.83132138983136,19.1590395205109 69.66144840873875,20.98916653945971 72.16144840873925,21.65903952056797" stroke="#ffa500" stroke-linecap="round" stroke-linejoin="round"/><polyline fill="none" points="-15.606575675513652,-52.97850575699015 -13.106575675497998,-53.648378738041835 -11.276448656549187,-55.47850575694923 -10.606575675440927,-57.97850575694972 -11.276448656492608,-60.478505756965376 -13.106575675400002,-62.30863277591419 -15.606575675400494,-62.978505757022454 -18.106575675416146,-62.30863277597077 -19.936702694364957,-60.47850575706338 -20.606575675473216,-57.97850575706289 -19.936702694421538,-55.47850575704724 -18.106575675514144,-53.64837873809842 -15.606575675513652,-52.97850575699016" stroke="#ffa500" stroke-linecap="round" stroke-linejoin="round"/><polyline fill="none" points="-183.9485058982519,-100.56204671884436 -181.44850589823625,-101.23191969989604 -179.61837887928743,-103.06204671880343 -178.94850589817918,-105.56204671880393 -179.61837887923085,-108.06204671881959 -181.44850589813825,-109.8921737377684 -183.94850589813873,-110.56204671887666 -186.4485058981544,-109.89217373782498 -188.2786329171032,-108.06204671891759 -188.94850589821147,-105.56204671891709 -188.2786329171598,-103.06204671890143 -186.4485058982524,-101.23191969995261 -183.9485058982519,-100.56204671884434" stroke="#ffa500" stroke-linecap="round" stroke-linejoin="round"/><polyline fill="none" points="-13.329591730849883,-38.34753376555044 -10.829591730834228,-39.01740674660211 -8.99946471188541,-40.8475337655095 -8.329591730777146,-43.34753376550999 -8.999464711828821,-45.84753376552565 -10.829591730736212,-47.67766078447446 -13.329591730736706,-48.347533765582725 -15.829591730752362,-47.67766078453105 -17.65971874970118,-45.84753376562366 -18.329591730809447,-43.34753376562317 -17.659718749757772,-40.84753376560751 -15.829591730850382,-39.017406746658686 -13.329591730849888,-38.347533765550416" stroke="#ffa500" stroke-linecap="round" stroke-linejoin="round"/><polyline fill="none" points="-223.04123646143537,-71.01039384284648 -220.54123646141971,-71.68026682389815 -218.7111094424709,-73.51039384280554 -218.04123646136264,-76.01039384280604 -218.7111094424143,-78.5103938428217 -220.5412364613217,-80.34052086177051 -223.04123646132217,-81.01039384287878 -225.54123646133783,-80.34052086182712 -227.37136348028665,-78.51039384291973 -228.0412364613949,-76.01039384291923 -227.37136348034323,-73.51039384290357 -225.54123646143586,-71.68026682395475 -223.04123646143537,-71.01039384284648" stroke="#008000" stroke-linecap="round" stroke-linejoin="round"/><polyline fill="none" points="-166.55282197097645,-12.004321589405844 -164.0528219709608,-12.674194570457516 -162.22269495201198,-14.504321589364904 -161.5528219709037,-17.004321589365397 -162.22269495195536,-19.504321589381057 -164.05282197086274,-21.33444860832988 -166.55282197086322,-22.00432158943815 -169.05282197087888,-21.334448608386477 -170.8829489898277,-19.50432158947909 -171.55282197093598,-17.004321589478597 -170.8829489898843,-14.504321589462936 -169.05282197097694,-12.674194570514112 -166.55282197097645,-12.00432158940584" stroke="#ffa500" stroke-linecap="round" stroke-linejoin="round"/><polyline fill="none" points="-103.67431522150558,-31.40893678539915 -101.17431522148992,-32.07880976645082 -99.34418820254109,-33.90893678535821 -98.67431522143282,-36.4089367853587 -99.34418820248449,-38.90893678537436 -101.17431522139188,-40.73906380432318 -103.67431522139238,-41.40893678543146 -106.17431522140804,-40.73906380437979 -108.00444224035687,-38.908936785472406 -108.67431522146514,-36.408936785471916 -108.00444224041347,-33.908936785456255 -106.17431522150608,-32.07880976650743 -103.67431522150558,-31.40893678539916" stroke="#ffa500" stroke-linecap="round" stroke-linejoin="round"/><polyline fill="none" points="-134.54372132032358,-24.229649580798167 -132.04372132030792,-24.899522561849835 -130.2135943013591,-26.729649580757222 -129.54372132025082,-29.229649580757716 -130.2135943013025,-31.729649580773376 -132.04372132020987,-33.559776599722206 -134.54372132021035,-34.22964958083048 -137.043721320226,-33.559776599778814 -138.87384833917483,-31.72964958087143 -139.5437213202831,-29.229649580870937 -138.87384833923144,-26.729649580855273 -137.04372132032407,-24.899522561906444 -134.54372132032358,-24.229649580798167" stroke="#ffa500" stroke-linecap="round" stroke-linejoin="round"/><polyline fill="none" points="-219.27613672605116,-27.368380703922142 -216.7761367260355,-28.038253684973807 -214.9460097070867,-29.86838070388119 -214.2761367259784,-32.368380703881684 -214.94600970703007,-34.868380703897344 -216.77613672593745,-36.69850772284617 -219.27613672593793,-37.36838070395445 -221.7761367259536,-36.69850772290279 -223.60626374490244,-34.868380703995406 -224.27613672601072,-32.368380703994916 -223.60626374495905,-29.868380703979252 -221.77613672605167,-28.038253685030423 -219.2761367260512,-27.368380703922142" stroke="#00f" stroke-linecap="round" stroke-linejoin="round"/><polyline fill="none" points="-217.4527329229731,-44.9477208150747 -214.95273292295744,-45.617593796126364 -213.1226059040086,-47.44772081503375 -212.4527329229003,-49.94772081503424 -213.12260590395198,-52.447720815049905 -214.95273292285935,-54.277847833998734 -217.45273292285984,-54.94772081510702 -219.9527329228755,-54.27784783405536 -221.78285994182434,-52.447720815147974 -222.45273292293263,-49.947720815147484 -221.78285994188096,-47.44772081513182 -219.95273292297358,-45.61759379618298 -217.4527329229731,-44.947720815074696" stroke="#00f" stroke-linecap="round" stroke-linejoin="round"/><polyline fill="none" points="-200.43446515174693,-46.250178140900495 -197.93446515173127,-46.920051121952156 -196.10433813278243,-48.75017814085954 -195.43446515167415,-51.25017814086003 -196.10433813272581,-53.7501781408757 -197.9344651516332,-55.58030515982453 -200.43446515163367,-56.25017814093282 -202.93446515164933,-55.58030515988116 -204.76459217059818,-53.75017814097378 -205.43446515170646,-51.25017814097329 -204.7645921706548,-48.75017814095762 -202.93446515174742,-46.920051122008786 -200.43446515174693,-46.2501781409005" stroke="#ffa500" stroke-linecap="round" stroke-linejoin="round"/><polyline fill="none" points="-109.54716822514054,22.224602735661417 -107.04716822512486,21.55472975460976 -105.21704120617602,19.72460273570238 -104.54716822506774,17.224602735701886 -105.21704120611939,14.724602735686219 -107.04716822502677,12.89447571673738 -109.54716822502726,12.224602735629093 -112.04716822504294,12.894475716680748 -113.87729524399178,14.724602735588128 -114.54716822510007,17.224602735588622 -113.87729524404841,19.72460273560429 -112.04716822514104,21.55472975455313 -109.54716822514054,22.22460273566142" stroke="#ffa500" stroke-linecap="round" stroke-linejoin="round"/><polyline fill="none" points="-56.47406105849786,49.97919066991877 -53.97406105848219,49.30931768886712 -52.143934039533356,47.47919066995974 -51.474061058425065,44.97919066995925 -52.14393403947672,42.479190669943584 -53.974061058384095,40.64906365099474 -56.474061058384585,39.97919066988645 -58.97406105840025,40.6490636509381 -60.804188077349096,42.47919066984548 -61.47406105845739,44.97919066984598 -60.80418807740573,47.479190669861644 -58.97406105849836,49.30931768881049 -56.47406105849787,49.97919066991878" stroke="#ffa500" stroke-linecap="round" stroke-linejoin="round"/><polyline fill="none" points="-161.1077298282291,-56.55898571277233 -158.60772982821345,-57.22885869382399 -156.7776028092646,-59.05898571273136 -156.10772982815632,-61.55898571273186 -156.77760280920796,-64.05898571274753 -158.60772982811534,-65.88911273169637 -161.10772982811582,-66.55898571280467 -163.60772982813148,-65.88911273175302 -165.43785684708033,-64.05898571284564 -166.1077298281886,-61.55898571284514 -165.43785684713697,-59.05898571282947 -163.6077298282296,-57.228858693880625 -161.1077298282291,-56.558985712772326" stroke="#00f" stroke-linecap="round" stroke-linejoin="round"/><polyline fill="none" points="-209.18191840789908,-66.39487611574938 -206.68191840788342,-67.06474909680104 -204.85179138893457,-68.89487611570841 -204.1819184078263,-71.39487611570891 -204.85179138887793,-73.89487611572459 -206.6819184077853,-75.72500313467343 -209.1819184077858,-76.39487611578173 -211.68191840780145,-75.72500313473007 -213.5120454267503,-73.8948761158227 -214.18191840785857,-71.3948761158222 -213.51204542680694,-68.89487611580653 -211.68191840789956,-67.06474909685768 -209.18191840789908,-66.39487611574938" stroke="#00f" stroke-linecap="round" stroke-linejoin="round"/><polyline fill="none" points="-90.53026881720226,102.70485868038783 -88.03026881718658,102.03498569933618 -86.20014179823774,100.2048586804288 -85.53026881712944,97.7048586804283 -86.20014179818108,95.20485868041263 -88.03026881708846,93.37473166146378 -90.53026881708895,92.70485868035549 -93.03026881710463,93.37473166140713 -94.86039583605347,95.2048586803145 -95.53026881716177,97.704858680315 -94.86039583611013,100.20485868033067 -93.03026881720275,102.03498569927952 -90.53026881720226,102.70485868038782" stroke="#ffa500" stroke-linecap="round" stroke-linejoin="round"/><polyline fill="none" points="-188.42627997985295,-48.75144536275298 -185.92627997983726,-49.42131834380463 -184.09615296088842,-51.251445362712005 -183.4262799797801,-53.7514453627125 -184.09615296083174,-56.25144536272818 -185.92627997973912,-58.08157238167703 -188.4262799797396,-58.75144536278533 -190.9262799797553,-58.081572381733686 -192.75640699870414,-56.25144536282631 -193.42627997981245,-53.75144536282581 -192.7564069987608,-51.25144536281014 -190.92627997985343,-49.42131834386129 -188.42627997985295,-48.75144536275298" stroke="#ffa500" stroke-linecap="round" stroke-linejoin="round"/><polyline fill="none" points="-201.22548142444475,-79.39925701854045 -198.72548142442906,-80.06912999959209 -196.89535440548022,-81.89925701849947 -196.2254814243719,-84.39925701849997 -196.89535440542355,-86.89925701851564 -198.72548142433092,-88.7293840374645 -201.2254814243314,-89.39925701857281 -203.7254814243471,-88.72938403752117 -205.55560844329594,-86.8992570186138 -206.22548142440425,-84.3992570186133 -205.5556084433526,-81.89925701859762 -203.72548142444523,-80.06912999964877 -201.22548142444475,-79.39925701854045" stroke="#f00" stroke-linecap="round" stroke-linejoin="round"/><polyline fill="none" points="-160.3812678445466,-71.01179296251374 -157.88126784453092,-71.68166594356538 -156.05114082558208,-73.51179296247275 -155.38126784447377,-76.01179296247325 -156.0511408255254,-78.51179296248893 -157.88126784443278,-80.34191998143778 -160.38126784443327,-81.0117929625461 -162.88126784444896,-80.34191998149446 -164.7113948633978,-78.51179296258708 -165.3812678445061,-76.01179296258658 -164.71139486345447,-73.51179296257091 -162.8812678445471,-71.68166594362205 -160.3812678445466,-71.01179296251374" stroke="#008000" stroke-linecap="round" stroke-linejoin="round"/><polyline fill="none" points="-166.63960659976675,16.902599977370848 -164.13960659975106,16.232726996319208 -162.3094795808022,14.402599977411837 -161.63960659969388,11.902599977411342 -162.30947958074552,9.40259997739566 -164.1396065996529,7.572472958446801 -166.63960659965338,6.9025999773384905 -169.13960659966907,7.572472958390128 -170.96973361861794,9.402599977297498 -171.63960659972625,11.902599977297994 -170.9697336186746,14.402599977313676 -169.13960659976723,16.232726996262535 -166.63960659976675,16.902599977370848" stroke="#ffa500" stroke-linecap="round" stroke-linejoin="round"/><polyline fill="none" points="-161.0517489407121,8.447735867768996 -158.5517489406964,7.77786288671736 -156.72162192174753,5.947735867809991 -156.05174894063921,3.447735867809495 -156.72162192169085,0.9477358677938126 -158.55174894059823,-0.8823911511550482 -161.0517489405987,-1.5522641322633621 -163.5517489406144,-0.8823911512117276 -165.38187595956327,0.947735867695641 -166.0517489406716,3.4477358676961365 -165.38187595961995,5.9477358677118195 -163.55174894071257,7.777862886660682 -161.0517489407121,8.447735867768996" stroke="#ffa500" stroke-linecap="round" stroke-linejoin="round"/><polyline fill="none" points="-120.14172005663963,78.84854759209315 -117.64172005662394,78.17867461104152 -115.81159303767508,76.34854759213415 -115.14172005656677,73.84854759213366 -115.8115930376184,71.34854759211797 -117.64172005652576,69.51842057316911 -120.14172005652625,68.8485475920608 -122.64172005654194,69.51842057311242 -124.4718470754908,71.34854759201978 -125.14172005659911,73.84854759202028 -124.47184707554749,76.34854759203597 -122.64172005664012,78.17867461098483 -120.14172005663963,78.84854759209314" stroke="#00f" stroke-linecap="round" stroke-linejoin="round"/><polyline fill="none" points="-207.53887309711936,-34.65074227537935 -205.03887309710368,-35.32061525643098 -203.2087460781548,-37.15074227533835 -202.5388730970465,-39.65074227533885 -203.20874607809813,-42.15074227535453 -205.0388730970055,-43.980869294303396 -207.538873097006,-44.650742275411716 -210.03887309702168,-43.98086929436008 -211.86900011597055,-42.15074227545272 -212.53887309707886,-39.650742275452224 -211.86900011602722,-37.150742275436535 -210.03887309711985,-35.32061525648767 -207.53887309711936,-34.65074227537935" stroke="#00f" stroke-linecap="round" stroke-linejoin="round"/><polyline fill="none" points="-124.41387969402956,23.922369021462632 -121.91387969401387,23.252496040411003 -120.083752675065,21.422369021503638 -119.41387969395667,18.922369021503144 -120.0837526750083,16.42236902148746 -121.91387969391566,14.59224200253859 -124.41387969391616,13.922369021430267 -126.91387969393185,14.592242002481894 -128.74400671288072,16.422369021389258 -129.41387969398903,18.922369021389752 -128.7440067129374,21.42236902140544 -126.91387969403003,23.25249604035431 -124.41387969402953,23.922369021462632" stroke="#ffa500" stroke-linecap="round" stroke-linejoin="round"/><polyline fill="none" points="-127.84872530141877,-61.3643067104928 -125.34872530140308,-62.03417969154442 -123.5185982824542,-63.864306710451785 -122.84872530134588,-66.36430671045228 -123.5185982823975,-68.86430671046797 -125.34872530130487,-70.69443372941684 -127.84872530130536,-71.36430671052517 -130.34872530132105,-70.69443372947354 -132.17885232026993,-68.86430671056618 -132.84872530137824,-66.36430671056569 -132.17885232032663,-63.86430671055 -130.34872530141925,-62.034179691601125 -127.84872530141875,-61.3643067104928" stroke="#00f" stroke-linecap="round" stroke-linejoin="round"/><polyline fill="none" points="-172.69911514550583,-81.10121339477011 -170.19911514549014,-81.77108637582174 -168.36898812654127,-83.6012133947291 -167.69911514543293,-86.1012133947296 -168.36898812648454,-88.60121339474529 -170.1991151453919,-90.43134041369416 -172.69911514539237,-91.10121339480249 -175.19911514540806,-90.43134041375086 -177.02924216435693,-88.6012133948435 -177.69911514546527,-86.101213394843 -177.02924216441366,-83.60121339482731 -175.1991151455063,-81.77108637587844 -172.69911514550583,-81.10121339477011" stroke="#ffa500" stroke-linecap="round" stroke-linejoin="round"/><polyline fill="none" points="-200.30149676472757,-3.3196754394246355 -197.80149676471189,-3.9895484204762557 -195.971369745763,-5.819675439383616 -195.30149676465467,-8.319675439384111 -195.97136974570628,-10.819675439399802 -197.80149676461363,-12.649802458348677 -200.30149676461411,-13.31967543945701 -202.8014967646298,-12.649802458405391 -204.63162378357868,-10.819675439498031 -205.30149676468702,-8.319675439497535 -204.6316237836354,-5.819675439481844 -202.80149676472806,-3.9895484205329668 -200.30149676472757,-3.3196754394246337" stroke="#ffa500" stroke-linecap="round" stroke-linejoin="round"/><polyline fill="none" points="-198.91437752640758,-87.00261821367616 -196.4143775263919,-87.67249119472777 -194.58425050744302,-89.50261821363513 -193.91437752633468,-92.00261821363563 -194.5842505073863,-94.50261821365132 -196.41437752629363,-96.33274523260019 -198.91437752629412,-97.00261821370853 -201.4143775263098,-96.33274523265692 -203.24450454525868,-94.50261821374956 -203.91437752636702,-92.00261821374906 -203.2445045453154,-89.50261821373337 -201.41437752640806,-87.67249119478448 -198.91437752640758,-87.00261821367614" stroke="#ffa500" stroke-linecap="round" stroke-linejoin="round"/><polyline fill="none" points="-215.8235513672232,-106.60199430803698 -213.3235513672075,-107.27186728908859 -211.49342434825863,-109.10199430799595 -210.8235513671503,-111.60199430799645 -211.4934243482019,-114.10199430801214 -213.32355136710925,-115.93212132696102 -215.82355136710973,-116.60199430806937 -218.32355136712542,-115.93212132701775 -220.1536783860743,-114.10199430811039 -220.82355136718263,-111.6019943081099 -220.15367838613102,-109.1019943080942 -218.32355136722367,-107.27186728914532 -215.8235513672232,-106.60199430803698" stroke="#00f" stroke-linecap="round" stroke-linejoin="round"/><polyline fill="none" points="-138.38830581477092,34.56963438802105 -135.88830581475523,33.89976140696944 -134.05817879580636,32.069634388062084 -133.38830581469801,29.56963438806159 -134.05817879574963,27.069634388045895 -135.88830581465697,25.239507369097012 -138.38830581465746,24.56963438798867 -140.88830581467315,25.239507369040282 -142.71843283362202,27.069634387947637 -143.38830581473036,29.56963438794813 -142.71843283367875,32.06963438796383 -140.8883058147714,33.89976140691272 -138.38830581477092,34.56963438802106" stroke="#ffa500" stroke-linecap="round" stroke-linejoin="round"/><polyline fill="none" points="-213.9079859445007,-131.7557435967475 -211.407985944485,-132.4256165777991 -209.57785892553613,-134.25574359670645 -208.9079859444278,-136.75574359670694 -209.5778589254794,-139.25574359672262 -211.40798594438675,-141.08587061567152 -213.90798594438724,-141.75574359677987 -216.40798594440292,-141.08587061572825 -218.23811296335182,-139.2557435968209 -218.90798594446017,-136.75574359682042 -218.23811296340855,-134.25574359680473 -216.4079859445012,-132.42561657785583 -213.90798594450072,-131.7557435967475" stroke="#ffa500" stroke-linecap="round" stroke-linejoin="round"/><polyline fill="none" points="63.19716911797787,12.47338865797264 65.69716911799357,11.803515676921032 67.52729613694245,9.973388658013679 68.1971691180508,7.473388658013183 67.52729613699918,4.973388657997485 65.69716911809184,3.143261639048596 63.19716911809134,2.4733886579402498 60.69716911807564,3.143261638991856 58.867042099126756,4.973388657899209 58.19716911801841,7.473388657899704 58.86704209907001,9.973388657915404 60.69716911797737,11.803515676864293 63.197169117977865,12.473388657972642" stroke="#ffa500" stroke-linecap="round" stroke-linejoin="round"/><polyline fill="none" points="-142.25135807097215,-11.56554479339918 -139.75135807095646,-12.235417774450786 -137.92123105200756,-14.06554479335814 -137.25135807089922,-16.565544793358637 -137.92123105195083,-19.065544793374336 -139.75135807085817,-20.89567181232323 -142.25135807085866,-21.565544793431577 -144.75135807087435,-20.895671812379973 -146.58148508982325,-19.065544793472622 -147.2513580709316,-16.565544793472124 -146.58148508987998,-14.065544793456422 -144.75135807097263,-12.235417774507528 -142.25135807097215,-11.565544793399178" stroke="#00f" stroke-linecap="round" stroke-linejoin="round"/><polyline fill="none" points="-201.46479405485528,-55.2294289053898 -198.96479405483956,-55.89930188644141 -197.13466703589066,-57.72942890534876 -196.46479405478232,-60.22942890534926 -197.13466703583393,-62.72942890536496 -198.96479405474128,-64.55955592431386 -201.4647940547418,-65.22942890542221 -203.9647940547575,-64.55955592437061 -205.7949210737064,-62.729428905463266 -206.46479405481475,-60.22942890546277 -205.79492107376313,-57.729428905447065 -203.9647940548558,-55.89930188649817 -201.4647940548553,-55.22942890538982" stroke="#00f" stroke-linecap="round" stroke-linejoin="round"/><polyline fill="none" points="-204.12961641855367,-72.8877096058494 -201.62961641853795,-73.55758258690099 -199.79948939958905,-75.38770960580834 -199.1296164184807,-77.88770960580884 -199.79948939953232,-80.38770960582454 -201.62961641843967,-82.21783662477344 -204.12961641844015,-82.8877096058818 -206.62961641845587,-82.2178366248302 -208.45974343740477,-80.38770960592285 -209.12961641851314,-77.88770960592235 -208.45974343746153,-75.38770960590665 -206.62961641855418,-73.55758258695775 -204.12961641855367,-72.8877096058494" stroke="#00f" stroke-linecap="round" stroke-linejoin="round"/><polyline fill="none" points="-96.48293512250297,94.49664895891131 -93.98293512248726,93.82677597785971 -92.15280810353836,91.99664895895236 -91.48293512243,89.49664895895187 -92.1528081034816,86.99664895893616 -93.98293512238895,85.16652193998726 -96.48293512238945,84.49664895887891 -98.98293512240515,85.1665219399305 -100.81306214135405,86.99664895883785 -101.48293512246241,89.49664895883835 -100.81306214141081,91.99664895885405 -98.98293512250346,93.82677597780295 -96.48293512250297,94.49664895891131" stroke="#ffa500" stroke-linecap="round" stroke-linejoin="round"/><polyline fill="none" points="-227.25841308917796,-79.05826409366053 -224.75841308916225,-79.72813707471212 -222.92828607021335,-81.55826409361947 -222.25841308910498,-84.05826409361997 -222.92828607015656,-86.55826409363567 -224.7584130890639,-88.38839111258457 -227.2584130890644,-89.05826409369293 -229.7584130890801,-88.38839111264133 -231.588540108029,-86.55826409373398 -232.25841308913738,-84.05826409373348 -231.5885401080858,-81.55826409371778 -229.75841308917845,-79.72813707476888 -227.25841308917796,-79.05826409366053" stroke="#ffa500" stroke-linecap="round" stroke-linejoin="round"/><polyline fill="none" points="-80.35613574548226,67.99290200930915 -77.85613574546656,67.32302902825755 -76.02600872651766,65.4929020093502 -75.35613574540929,62.992902009349706 -76.02600872646089,60.492902009333996 -77.85613574536823,58.66277499038509 -80.35613574536873,57.992902009276726 -82.85613574538444,58.662774990328316 -84.68626276433334,60.492902009235664 -85.3561357454417,62.99290200923616 -84.68626276439011,65.49290200925186 -82.85613574548276,67.32302902820076 -80.35613574548226,67.99290200930913" stroke="#ffa500" stroke-linecap="round" stroke-linejoin="round"/><polyline fill="none" points="-111.08689245580014,106.82930278967584 -108.58689245578444,106.15942980862424 -106.75676543683554,104.32930278971689 -106.08689245572717,101.8293027897164 -106.75676543677876,99.32930278970069 -108.58689245568611,97.49917577075179 -111.08689245568661,96.82930278964342 -113.58689245570233,97.49917577069502 -115.41701947465123,99.32930278960237 -116.0868924557596,101.82930278960286 -115.41701947470801,104.32930278961858 -113.58689245580067,106.1594298085675 -111.08689245580017,106.82930278967586" stroke="#ffa500" stroke-linecap="round" stroke-linejoin="round"/><polyline fill="none" points="-131.43733851238557,-42.127854671628995 -128.93733851236985,-42.797727652680585 -127.10721149342093,-44.627854671587926 -126.43733851231256,-47.12785467158842 -127.10721149336415,-49.62785467160413 -128.93733851227148,-51.45798169055304 -131.437338512272,-52.12785467166141 -133.9373385122877,-51.45798169060982 -135.7674655312366,-49.62785467170248 -136.43733851234498,-47.12785467170198 -135.7674655312934,-44.62785467168627 -133.93733851238605,-42.797727652737365 -131.43733851238557,-42.127854671628995" stroke="#00f" stroke-linecap="round" stroke-linejoin="round"/><polyline fill="none" points="-230.12353500395216,-109.83402346144742 -227.62353500393644,-110.503896442499 -225.79340798498754,-112.33402346140635 -225.12353500387917,-114.83402346140684 -225.79340798493075,-117.33402346142256 -227.6235350038381,-119.16415048037148 -230.12353500383858,-119.83402346147984 -232.6235350038543,-119.16415048042826 -234.4536620228032,-117.33402346152091 -235.12353500391157,-114.83402346152042 -234.45366202286,-112.3340234615047 -232.62353500395264,-110.50389644255579 -230.12353500395216,-109.83402346144742" stroke="#00f" stroke-linecap="round" stroke-linejoin="round"/><polyline fill="none" points="-197.89112534163627,-112.79721891511123 -195.39112534162055,-113.46709189616281 -193.56099832267165,-115.29721891507015 -192.89112534156328,-117.79721891507064 -193.56099832261486,-120.29721891508636 -195.3911253415222,-122.12734593403528 -197.8911253415227,-122.79721891514365 -200.3911253415384,-122.12734593409206 -202.22125236048734,-120.29721891518473 -202.8911253415957,-117.79721891518423 -202.22125236054413,-115.29721891516851 -200.39112534163678,-113.4670918962196 -197.8911253416363,-112.79721891511123" stroke="#ffa500" stroke-linecap="round" stroke-linejoin="round"/><polyline fill="none" points="-157.921205118741,39.56038234984871 -155.42120511872528,38.890509368797126 -153.59107809977635,37.060382349889785 -152.92120511866798,34.56038234988929 -153.59107809971957,32.06038234987357 -155.42120511862692,30.230255330924653 -157.92120511862743,29.560382349816276 -160.42120511864314,30.230255330867855 -162.25133213759207,32.060382349775196 -162.92120511870044,34.56038234977569 -162.25133213764886,37.06038234979141 -160.4212051187415,38.890509368740325 -157.921205118741,39.5603823498487" stroke="#ffa500" stroke-linecap="round" stroke-linejoin="round"/><polyline fill="none" points="-112.40095993028434,91.46221140358371 -109.90095993026863,90.79233842253213 -108.07083291131971,88.96221140362479 -107.40095993021133,86.4622114036243 -108.07083291126291,83.96221140360858 -109.90095993017025,82.13208438465966 -112.40095993017074,81.46221140355128 -114.90095993018646,82.13208438460286 -116.73108694913537,83.9622114035102 -117.40095993024376,86.4622114035107 -116.73108694919217,88.96221140352641 -114.90095993028484,90.79233842247532 -112.40095993028434,91.46221140358371" stroke="#ffa500" stroke-linecap="round" stroke-linejoin="round"/><polyline fill="none" points="-184.54610078330887,12.206941689952687 -182.04610078329316,11.53706870890111 -180.21597376434423,9.706941689993773 -179.54610078323586,7.2069416899932754 -180.21597376428744,4.7069416899775565 -182.0461007831948,2.876814671028635 -184.5461007831953,2.2069416899202516 -187.04610078321102,2.876814670971827 -188.87622780215995,4.706941689879162 -189.54610078326834,7.20694168987966 -188.87622780221676,9.706941689895379 -187.0461007833094,11.537068708844302 -184.54610078330893,12.206941689952686" stroke="#00f" stroke-linecap="round" stroke-linejoin="round"/><polyline fill="none" points="-190.98854085537923,-13.019030101408386 -188.4885408553635,-13.68890308245996 -186.65841383641458,-15.519030101367296 -185.98854085530618,-18.019030101367793 -186.65841383635777,-20.519030101383514 -188.48854085526511,-22.34915712033244 -190.9885408552656,-23.019030101440826 -193.48854085528131,-22.349157120389254 -195.31866787423024,-20.51903010148192 -195.98854085533864,-18.019030101481423 -195.31866787428706,-15.519030101465702 -193.48854085537974,-13.688903082516777 -190.98854085537926,-13.01903010140839" stroke="#ffa500" stroke-linecap="round" stroke-linejoin="round"/><polyline fill="none" points="-195.26121496081026,-96.21047990752791 -192.76121496079455,-96.88035288857948 -190.93108794184562,-98.71047990748681 -190.26121496073722,-101.21047990748731 -190.9310879417888,-103.71047990750303 -192.76121496069612,-105.54060692645196 -195.26121496069663,-106.21047990756034 -197.76121496071235,-105.54060692650877 -199.59134197966128,-103.71047990760144 -200.26121496076968,-101.21047990760094 -199.5913419797181,-98.71047990758522 -197.76121496081078,-96.8803528886363 -195.26121496081026,-96.21047990752791" stroke="#00f" stroke-linecap="round" stroke-linejoin="round"/><polyline fill="none" points="-227.13105521333816,-106.9257980516888 -224.63105521332244,-107.59567103274037 -222.8009281943735,-109.4257980516477 -222.1310552132651,-111.9257980516482 -222.8009281943167,-114.42579805166392 -224.63105521322402,-116.25592507061285 -227.1310552132245,-116.92579805172124 -229.63105521324022,-116.25592507066968 -231.46118223218915,-114.42579805176234 -232.13105521329754,-111.92579805176184 -231.461182232246,-109.42579805174613 -229.63105521333867,-107.5956710327972 -227.1310552133382,-106.9257980516888" stroke="#ffa500" stroke-linecap="round" stroke-linejoin="round"/><polyline fill="none" points="-221.42223224751706,-87.49343108909085 -218.92223224750134,-88.16330407014242 -217.0921052285524,-89.99343108904975 -216.42223224744401,-92.49343108905025 -217.09210522849557,-94.99343108906596 -218.9222322474029,-96.8235581080149 -221.42223224740337,-97.49343108912329 -223.9222322474191,-96.82355810807172 -225.75235926636802,-94.99343108916439 -226.42223224747642,-92.49343108916389 -225.75235926642486,-89.99343108914816 -223.92223224751754,-88.16330407019923 -221.42223224751706,-87.49343108909083" stroke="#008000" stroke-linecap="round" stroke-linejoin="round"/><polyline fill="none" points="-69.82405063075646,56.338701482492596 -67.32405063074073,55.668828501441034 -65.4939236117918,53.83870148253371 -64.8240506306834,51.33870148253321 -65.49392361173497,48.838701482517486 -67.3240506306423,47.00857446356855 -69.8240506306428,46.33870148246015 -72.32405063065853,47.008574463511714 -74.15417764960746,48.83870148241904 -74.82405063071586,51.33870148241954 -74.15417764966429,53.83870148243526 -72.32405063075696,55.6688285013842 -69.82405063075646,56.338701482492596" stroke="#ffa500" stroke-linecap="round" stroke-linejoin="round"/><polyline fill="none" points="62.476703768080654,-3.1265798413402397 64.97670376809639,-3.796452822391801 66.80683078704533,-5.626579841299128 67.47670376815373,-8.126579841299623 66.80683078710217,-10.626579841315351 64.97670376819485,-12.456706860264289 62.476703768194355,-13.12657984137269 59.97670376817862,-12.45670686032113 58.14657674922969,-10.626579841413804 57.47670376812128,-8.126579841413307 58.146576749172844,-5.626579841397579 59.97670376808017,-3.7964528224486402 62.47670376808067,-3.1265798413402375" stroke="#ffa500" stroke-linecap="round" stroke-linejoin="round"/><polyline fill="none" points="-222.52798852502755,-97.91322287967056 -220.02798852501184,-98.58309586072211 -218.1978615060629,-100.41322287962943 -217.5279885249545,-102.91322287962993 -218.19786150600606,-105.41322287964566 -220.02798852491338,-107.2433498985946 -222.5279885249139,-107.913222879703 -225.0279885249296,-107.24334989865145 -226.85811554387854,-105.41322287974413 -227.52798852498694,-102.91322287974363 -226.85811554393538,-100.4132228797279 -225.02798852502806,-98.58309586077895 -222.52798852502758,-97.91322287967054" stroke="#ffa500" stroke-linecap="round" stroke-linejoin="round"/><polyline fill="none" points="-243.61050784478434,-78.41151150267783 -241.11050784476862,-79.08138448372938 -239.2803808258197,-80.9115115026367 -238.6105078447113,-83.4115115026372 -239.28038082576285,-85.91151150265293 -241.11050784467017,-87.74163852160187 -243.61050784467068,-88.41151150271028 -246.1105078446864,-87.74163852165873 -247.94063486363532,-85.91151150275141 -248.61050784474372,-83.41151150275091 -247.94063486369217,-80.91151150273518 -246.11050784478485,-79.08138448378624 -243.61050784478437,-78.41151150267783" stroke="#00f" stroke-linecap="round" stroke-linejoin="round"/><polyline fill="none" points="-208.95161038141418,-121.51252928497907 -206.45161038139847,-122.18240226603062 -204.62148336244954,-124.01252928493794 -203.95161038134114,-126.51252928493844 -204.6214833623927,-129.01252928495416 -206.45161038130001,-130.8426563039031 -208.9516103813005,-131.5125292850115 -211.45161038131624,-130.84265630395996 -213.2817374002652,-129.01252928505264 -213.9516103813736,-126.51252928505214 -213.28173740032204,-124.01252928503641 -211.45161038141472,-122.18240226608746 -208.95161038141424,-121.51252928497905" stroke="#ffa500" stroke-linecap="round" stroke-linejoin="round"/><polyline fill="none" points="-205.0549958387375,-95.55407609922536 -202.55499583872177,-96.22394908027691 -200.7248688197728,-98.05407609918423 -200.0549958386644,-100.55407609918473 -200.72486881971597,-103.05407609920046 -202.55499583862328,-104.8842031181494 -205.05499583862377,-105.55407609925781 -207.5549958386395,-104.88420311820626 -209.38512285758847,-103.05407609929894 -210.05499583869687,-100.55407609929844 -209.3851228576453,-98.05407609928271 -207.554995838738,-96.22394908033377 -205.0549958387375,-95.55407609922536" stroke="#008000" stroke-linecap="round" stroke-linejoin="round"/><polyline fill="none" points="-151.2769995783395,26.28045483295888 -148.77699957832377,25.61058185190733 -146.9468725593748,23.78045483300001 -146.27699957826638,21.280454832999514 -146.94687255931794,18.78045483298378 -148.77699957822526,16.950327814034832 -151.27699957822574,16.28045483292642 -153.7769995782415,16.950327813977967 -155.60712659719044,18.780454832885287 -156.27699957829887,21.280454832885784 -155.60712659724732,23.78045483290152 -153.77699957834,25.61058185185047 -151.27699957833948,26.280454832958885" stroke="#ffa500" stroke-linecap="round" stroke-linejoin="round"/><polyline fill="none" points="-212.0855946112365,-16.67395697369952 -209.58559461122076,-17.34382995475107 -207.7554675922718,-19.173956973658388 -207.08559461116337,-21.673956973658886 -207.75546759221493,-24.17395697367462 -209.58559461112225,-26.00408399262357 -212.08559461112273,-26.673956973731986 -214.58559461113848,-26.00408399268044 -216.41572163008743,-24.17395697377312 -217.08559461119586,-21.673956973772622 -216.4157216301443,-19.173956973756887 -214.58559461123698,-17.343829954807937 -212.0855946112365,-16.673956973699518" stroke="#ffa500" stroke-linecap="round" stroke-linejoin="round"/><polyline fill="none" points="-149.42066317876026,-82.3414245435246 -146.92066317874452,-83.01129752457614 -145.09053615979556,-84.84142454348346 -144.42066317868714,-87.34142454348395 -145.0905361597387,-89.84142454349968 -146.920663178646,-91.67155156244864 -149.42066317864652,-92.34142454355705 -151.92066317866227,-91.67155156250551 -153.75079019761122,-89.8414245435982 -154.42066317871965,-87.3414245435977 -153.7507901976681,-84.84142454358197 -151.92066317876078,-83.01129752463301 -149.42066317876026,-82.34142454352458" stroke="#ffa500" stroke-linecap="round" stroke-linejoin="round"/><polyline fill="none" points="-244.48253862262433,-105.16103951998123 -241.9825386226086,-105.83091250103277 -240.15241160365963,-107.66103951994009 -239.4825386225512,-110.16103951994059 -240.15241160360276,-112.66103951995632 -241.98253862251008,-114.49116653890528 -244.48253862251056,-115.1610395200137 -246.9825386225263,-114.49116653896216 -248.81266564147526,-112.66103952005484 -249.4825386225837,-110.16103952005435 -248.81266564153213,-107.66103952003861 -246.98253862262482,-105.83091250108966 -244.4825386226243,-105.16103951998123" stroke="#00f" stroke-linecap="round" stroke-linejoin="round"/><polyline fill="none" points="-163.9139926414378,-88.58793321872355 -161.41399264142206,-89.25780619977509 -159.5838656224731,-91.08793321868241 -158.91399264136467,-93.5879332186829 -159.58386562241623,-96.08793321869865 -161.41399264132355,-97.91806023764761 -163.91399264132403,-98.58793321875604 -166.41399264133977,-97.9180602377045 -168.24411966028873,-96.08793321879718 -168.91399264139716,-93.58793321879668 -168.24411966034563,-91.08793321878093 -166.4139926414383,-89.25780619983198 -163.9139926414378,-88.58793321872355" stroke="#00f" stroke-linecap="round" stroke-linejoin="round"/><polyline fill="none" points="-117.36261118426025,-35.40657246420675 -114.8626111842445,-36.07644544525829 -113.03248416529554,-37.9065724641656 -112.36261118418712,-40.406572464166096 -113.03248416523866,-42.906572464181835 -114.86261118414598,-44.73669948313079 -117.36261118414647,-45.40657246423922 -119.86261118416222,-44.73669948318768 -121.69273820311118,-42.906572464280366 -122.3626111842196,-40.40657246427987 -121.69273820316806,-37.90657246426413 -119.86261118426074,-36.07644544531517 -117.36261118426025,-35.40657246420675" stroke="#ffa500" stroke-linecap="round" stroke-linejoin="round"/><polyline fill="none" points="-177.95805671526065,-66.34236352415633 -175.4580567152449,-67.01223650520787 -173.62792969629595,-68.84236352411519 -172.95805671518752,-71.34236352411568 -173.62792969623905,-73.84236352413143 -175.45805671514637,-75.67249054308039 -177.95805671514688,-76.34236352418881 -180.45805671516263,-75.67249054313727 -182.28818373411158,-73.84236352422995 -182.95805671522,-71.34236352422946 -182.28818373416848,-68.84236352421371 -180.45805671526116,-67.01223650526475 -177.95805671526065,-66.34236352415633" stroke="#ffa500" stroke-linecap="round" stroke-linejoin="round"/><polyline fill="none" points="-199.61225428194314,-24.877801965630407 -197.1122542819274,-25.547674946681944 -195.28212726297843,-27.377801965589256 -194.61225428187,-29.877801965589754 -195.28212726292153,-32.3778019656055 -197.11225428182885,-34.207928984554464 -199.61225428182937,-34.8778019656629 -202.1122542818451,-34.207928984611364 -203.94238130079407,-32.37780196570405 -204.6122542819025,-29.877801965703554 -203.94238130085097,-27.37780196568781 -202.11225428194365,-25.547674946738844 -199.61225428194314,-24.87780196563041" stroke="#ffa500" stroke-linecap="round" stroke-linejoin="round"/><polyline fill="none" points="-182.33309918941154,-86.08982586022151 -179.8330991893958,-86.75969884127304 -178.00297217044684,-88.58982586018034 -177.3330991893384,-91.08982586018084 -178.00297217038994,-93.58982586019658 -179.83309918929726,-95.41995287914555 -182.33309918929777,-96.089825860254 -184.83309918931351,-95.41995287920247 -186.66322620826247,-93.58982586029516 -187.3330991893709,-91.08982586029467 -186.66322620831937,-88.58982586027892 -184.83309918941205,-86.75969884132995 -182.33309918941154,-86.08982586022151" stroke="#00f" stroke-linecap="round" stroke-linejoin="round"/><polyline fill="none" points="-88.45516595842132,42.81959893276092 -85.95516595840557,42.149725951709385 -84.1250389394566,40.31959893280207 -83.45516595834816,37.819598932801576 -84.12503893939969,35.31959893278583 -85.95516595830699,33.48947191383686 -88.45516595830749,32.81959893272842 -90.95516595832324,33.489471913779944 -92.7852929772722,35.319598932687256 -93.45516595838065,37.819598932687754 -92.78529297732912,40.3195989327035 -90.95516595842182,42.14972595165247 -88.45516595842132,42.81959893276091" stroke="#00f" stroke-linecap="round" stroke-linejoin="round"/><polyline fill="none" points="-174.86947985726175,0.29066745208790046 -172.369479857246,-0.37920552896362714 -170.53935283829702,-2.209332547870936 -169.8694798571886,-4.709332547871435 -170.53935283824012,-7.209332547887184 -172.36947985714744,-9.039459566836157 -174.86947985714795,-9.709332547944598 -177.3694798571637,-9.039459566893072 -179.19960687611268,-7.209332547985763 -179.86947985722114,-4.709332547985264 -179.1996068761696,-2.2093325479695145 -177.3694798572623,-0.37920552902054094 -174.86947985726178,0.29066745208790135" stroke="#ffa500" stroke-linecap="round" stroke-linejoin="round"/><polyline fill="none" points="-209.27490713326964,-79.89169919067444 -206.7749071332539,-80.56157217172597 -204.9447801143049,-82.39169919063328 -204.27490713319645,-84.89169919063377 -204.94478011424798,-87.39169919064952 -206.7749071331553,-89.22182620959849 -209.2749071331558,-89.89169919070693 -211.77490713317155,-89.2218262096554 -213.60503415212054,-87.3916991907481 -214.274907133229,-84.8916991907476 -213.60503415217747,-82.39169919073186 -211.77490713327015,-80.56157217178288 -209.27490713326964,-79.89169919067444" stroke="#008000" stroke-linecap="round" stroke-linejoin="round"/><polyline fill="none" points="-238.41917771309963,-91.28691073208365 -235.91917771308388,-91.95678371313518 -234.0890506941349,-93.78691073204249 -233.41917771302644,-96.28691073204298 -234.08905069407797,-98.78691073205873 -235.9191777129853,-100.6170377510077 -238.4191777129858,-101.28691073211614 -240.91917771300155,-100.61703775106461 -242.74930473195053,-98.78691073215731 -243.41917771305899,-96.28691073215681 -242.74930473200746,-93.78691073214107 -240.91917771310017,-91.9567837131921 -238.41917771309966,-91.28691073208364" stroke="#ffa500" stroke-linecap="round" stroke-linejoin="round"/><polyline fill="none" points="272.3376631646912,-133.05760584489298 274.83766316470695,-133.7274788259445 276.66779018365594,-135.5576058448518 277.33766316476436,-138.0576058448523 276.66779018371284,-140.55760584486805 274.8376631648055,-142.38773286381704 272.337663164805,-143.0576058449255 269.83766316478926,-142.38773286387396 268.0075361458403,-140.55760584496667 267.33766316473185,-138.05760584496616 268.0075361457834,-135.55760584495042 269.8376631646907,-133.72747882600143 272.3376631646912,-133.05760584489298" stroke="#ffa500" stroke-linecap="round" stroke-linejoin="round"/></svg>