<?xml version="1.0" ?><!DOCTYPE svg  PUBLIC '-//W3C//DTD SVG 1.1//EN'  'http://www.w3.org/Graphics/SVG/1.1/DTD/svg11.dtd'><svg height="284.000" viewBox="-273.000 -167.000 583.000 284.000" width="583.000" xmlns="http://www.w3.org/2000/svg"><line fill="none" stroke="none" stroke-linecap="round" stroke-width="2.0" x1="0.0" x2="0.0" y1="0.0" y2="0.0"/><polygon fill="none" fill-rule="evenodd" points="0.0,0.0 0.0,0.0 0.0,0.0" stroke-linejoin="round"/><polyline fill="none" points="-203.4950027330681,-85.51718912177729 -200.9950027330522,-86.18706210282855 -199.16487571410295,-88.0171891217357 -198.49500273299418,-90.5171891217362 -199.16487571404542,-93.0171891217521 -200.99500273295257,-94.84731614070134 -203.49500273295308,-95.51718912181009 -205.995002732969,-94.84731614075883 -207.82512975191824,-93.01718912185169 -208.495002733027,-90.51718912185119 -207.82512975197577,-88.01718912183529 -205.99500273306862,-86.18706210288605 -203.4950027330681,-85.51718912177729" stroke="#00f" stroke-linecap="round" stroke-linejoin="round"/><polyline fill="none" points="-233.91409385235733,-90.35272286169644 -231.4140938523414,-91.02259584274769 -229.58396683339217,-92.85272286165484 -228.9140938522834,-95.35272286165534 -229.58396683333464,-97.85272286167125 -231.4140938522418,-99.68284988062051 -233.9140938522423,-100.35272286172926 -236.41409385225822,-99.682849880678 -238.24422087120746,-97.85272286177086 -238.91409385231623,-95.35272286177036 -238.244220871265,-92.85272286175444 -236.41409385235784,-91.02259584280519 -233.91409385235733,-90.35272286169642" stroke="#008000" stroke-linecap="round" stroke-linejoin="round"/><polyline fill="none" points="-146.36713652390102,-94.2854005327635 -143.8671365238851,-94.95527351381476 -142.03700950493587,-96.78540053272191 -141.3671365238271,-99.2854005327224 -142.03700950487834,-101.78540053273832 -143.8671365237855,-103.61552755168758 -146.367136523786,-104.28540053279634 -148.86713652380192,-103.61552755174509 -150.69726354275116,-101.78540053283794 -151.36713652385993,-99.28540053283744 -150.69726354280868,-96.78540053282153 -148.86713652390154,-94.95527351387227 -146.36713652390102,-94.2854005327635" stroke="#ffa500" stroke-linecap="round" stroke-linejoin="round"/><polyline fill="none" points="-202.31517953933604,-97.03548175485932 -199.81517953932013,-97.70535473591056 -197.98505252037089,-99.53548175481771 -197.31517953926212,-102.0354817548182 -197.98505252031336,-104.53548175483412 -199.8151795392205,-106.36560877378338 -202.31517953922102,-107.03548175489215 -204.81517953923694,-106.3656087738409 -206.64530655818618,-104.53548175493376 -207.31517953929495,-102.03548175493326 -206.6453065582437,-99.53548175491734 -204.81517953933655,-97.70535473596809 -202.31517953933604,-97.03548175485932" stroke="#008000" stroke-linecap="round" stroke-linejoin="round"/><polyline fill="none" points="-225.63860532060954,-68.38318724947622 -223.13860532059363,-69.05306023052746 -221.30847830164436,-70.88318724943461 -220.6386053205356,-73.38318724943511 -221.30847830158683,-75.88318724945103 -223.13860532049398,-77.71331426840028 -225.6386053204945,-78.38318724950905 -228.1386053205104,-77.71331426845781 -229.96873233945968,-75.88318724955066 -230.63860532056844,-73.38318724955016 -229.9687323395172,-70.88318724953425 -228.13860532061005,-69.05306023058499 -225.63860532060954,-68.38318724947622" stroke="#00f" stroke-linecap="round" stroke-linejoin="round"/><polyline fill="none" points="-224.9325571864485,-124.60594878843173 -222.43255718643258,-125.27582176948297 -220.6024301674833,-127.10594878839012 -219.93255718637454,-129.60594878839063 -220.60243016742578,-132.10594878840655 -222.43255718633293,-133.93607580735582 -224.93255718633344,-134.6059487884646 -227.43255718634936,-133.93607580741335 -229.26268420529863,-132.1059487885062 -229.9325571864074,-129.60594878850569 -229.26268420535615,-127.10594878848977 -227.432557186449,-125.27582176954051 -224.9325571864485,-124.60594878843175" stroke="#00f" stroke-linecap="round" stroke-linejoin="round"/><polyline fill="none" points="262.9635197370021,-137.03470609685846 265.46351973701803,-137.7045790779097 267.2936467559673,-139.53470609681685 267.96351973707607,-142.03470609681736 267.2936467560248,-144.53470609683328 265.4635197371177,-146.36483311578255 262.96351973711717,-147.0347060968913 260.46351973710125,-146.36483311584007 258.633392718152,-144.53470609693292 257.9635197370432,-142.0347060969324 258.63339271809446,-139.5347060969165 260.4635197370016,-137.70457907796722 262.9635197370021,-137.03470609685846" stroke="#ffa500" stroke-linecap="round" stroke-linejoin="round"/><polyline fill="none" points="-256.7643146285455,-103.70419305696794 -254.26431462852958,-104.37406603801918 -252.4341876095803,-106.20419305692633 -251.76431462847154,-108.70419305692683 -252.43418760952278,-111.20419305694274 -254.26431462842993,-113.03432007589201 -256.76431462843044,-113.7041930570008 -259.26431462844636,-113.03432007594955 -261.0944416473956,-111.2041930570424 -261.7643146285044,-108.7041930570419 -261.09444164745315,-106.20419305702599 -259.264314628546,-104.37406603807672 -256.7643146285455,-103.70419305696794" stroke="#00f" stroke-linecap="round" stroke-linejoin="round"/><polyline fill="none" points="75.88679521192047,1.967974821703279 78.38679521193639,1.2981018406520421 80.21692223088566,-0.5320251782551004 80.88679521199444,-3.0320251782556022 80.2169222309432,-5.532025178271522 78.38679521203605,-7.362152197220787 75.88679521203555,-8.032025178329565 73.38679521201963,-7.36215219727833 71.55666819307037,-5.532025178371188 70.88679521196158,-3.032025178370686 71.55666819301283,-0.5320251783547656 73.38679521191997,1.298101840594501 75.88679521192047,1.96797482170328" stroke="#ffa500" stroke-linecap="round" stroke-linejoin="round"/><polyline fill="none" points="292.507697030904,-143.33045676478633 295.0076970309199,-144.00032974583758 296.8378240498692,-145.83045676474472 297.50769703097797,-148.33045676474524 296.8378240499267,-150.83045676476115 295.0076970310196,-152.66058378371042 292.50769703101906,-153.3304567648192 290.00769703100315,-152.66058378376795 288.1775700120539,-150.8304567648608 287.5076970309451,-148.3304567648603 288.17757001199635,-145.83045676484437 290.0076970309035,-144.0003297458951 292.507697030904,-143.33045676478633" stroke="#00f" stroke-linecap="round" stroke-linejoin="round"/><polyline fill="none" points="-205.6857596705048,-107.52233097437276 -203.1857596704889,-108.19220395542399 -201.35563265153962,-110.02233097433113 -200.68575967043083,-112.52233097433162 -201.35563265148207,-115.02233097434754 -203.18575967038922,-116.85245799329681 -205.68575967038973,-117.52233097440559 -208.18575967040564,-116.85245799335436 -210.01588668935491,-115.02233097444723 -210.6857596704637,-112.52233097444673 -210.01588668941247,-110.02233097443082 -208.18575967050532,-108.19220395548155 -205.6857596705048,-107.52233097437276" stroke="#00f" stroke-linecap="round" stroke-linejoin="round"/><polyline fill="none" points="-133.1768326384196,-31.4585564121543 -130.67683263840368,-32.12842939320553 -128.8467056194544,-33.95855641211267 -128.17683263834562,-36.458556412113175 -128.84670561939686,-38.9585564121291 -130.676832638304,-40.78868343107837 -133.17683263830452,-41.45855641218716 -135.67683263832043,-40.78868343113593 -137.5069596572697,-38.958556412228795 -138.1768326383785,-36.45855641222829 -137.50695965732726,-33.95855641221237 -135.6768326384201,-32.12842939326309 -133.1768326384196,-31.4585564121543" stroke="#00f" stroke-linecap="round" stroke-linejoin="round"/><polyline fill="none" points="-161.06377026977142,-103.94080391915296 -158.5637702697555,-104.61067690020418 -156.73364325080624,-106.44080391911132 -156.06377026969744,-108.94080391911181 -156.73364325074866,-111.44080391912775 -158.5637702696558,-113.27093093807702 -161.06377026965632,-113.94080391918581 -163.56377026967223,-113.27093093813458 -165.3938972886215,-111.44080391922745 -166.0637702697303,-108.94080391922695 -165.39389728867909,-106.44080391921102 -163.56377026977194,-104.61067690026175 -161.06377026977142,-103.94080391915296" stroke="#ffa500" stroke-linecap="round" stroke-linejoin="round"/><polyline fill="none" points="-148.21728310565425,8.489483509573532 -145.71728310563833,7.819610528522307 -143.88715608668906,5.989483509615171 -143.21728310558026,3.4894835096146695 -143.88715608663148,0.9894835095987426 -145.71728310553863,-0.8406435093505349 -148.21728310553914,-1.5105164904593265 -150.71728310555505,-0.8406435094081027 -152.54741012450432,0.9894835094990323 -153.21728310561312,3.489483509499534 -152.5474101245619,5.989483509515462 -150.71728310565476,7.81961052846474 -148.21728310565425,8.489483509573533" stroke="#ffa500" stroke-linecap="round" stroke-linejoin="round"/><polyline fill="none" points="-152.40831581479864,-65.66262244136085 -149.90831581478272,-66.33249542241208 -148.07818879583346,-68.16262244131921 -147.40831581472466,-70.66262244131971 -148.07818879577587,-73.16262244133564 -149.908315814683,-74.99274946028493 -152.4083158146835,-75.66262244139372 -154.90831581469942,-74.9927494603425 -156.7384428336487,-73.16262244143536 -157.4083158147575,-70.66262244143486 -156.73844283370627,-68.16262244141893 -154.90831581479915,-66.33249542246965 -152.40831581479864,-65.66262244136085" stroke="#ffa500" stroke-linecap="round" stroke-linejoin="round"/><polyline fill="none" points="-206.61021120407037,-124.95553792569692 -204.11021120405445,-125.62541090674813 -202.28008418510518,-127.45553792565526 -201.61021120399639,-129.95553792565576 -202.2800841850476,-132.45553792567168 -204.11021120395472,-134.28566494462095 -206.61021120395523,-134.95553792572974 -209.11021120397115,-134.28566494467853 -210.94033822292042,-132.4555379257714 -211.6102112040292,-129.9555379257709 -210.940338222978,-127.45553792575497 -209.11021120407088,-125.62541090680568 -206.61021120407037,-124.95553792569689" stroke="#00f" stroke-linecap="round" stroke-linejoin="round"/><polyline fill="none" points="-195.3015984707351,-70.22975972453563 -192.80159847071917,-70.89963270558684 -190.97147145176987,-72.72975972449397 -190.30159847066108,-75.22975972449447 -190.9714714517123,-77.7297597245104 -192.8015984706194,-79.55988674345969 -195.30159847061992,-80.22975972456848 -197.80159847063587,-79.55988674351727 -199.63172548958516,-77.72975972461013 -200.30159847069396,-75.22975972460964 -199.63172548964275,-72.7297597245937 -197.80159847073563,-70.89963270564442 -195.30159847073512,-70.22975972453563" stroke="#00f" stroke-linecap="round" stroke-linejoin="round"/><polyline fill="none" points="-172.1540743268934,26.959589208597443 -169.65407432687746,26.28971622754623 -167.82394730792817,24.4595892086391 -167.15407432681937,21.959589208638597 -167.82394730787058,19.459589208622667 -169.6540743267777,17.62946218967338 -172.15407432677821,16.959589208564577 -174.65407432679416,17.62946218961579 -176.48420134574346,19.459589208522917 -177.15407432685225,21.95958920852342 -176.48420134580104,24.459589208539352 -174.65407432689392,26.28971622748864 -172.1540743268934,26.959589208597446" stroke="#ffa500" stroke-linecap="round" stroke-linejoin="round"/><polyline fill="none" points="-223.29122205184473,-129.13071012463507 -220.79122205182878,-129.8005831056863 -218.96109503287948,-131.6307101245934 -218.2912220517707,-134.13071012459392 -218.9610950328219,-136.63071012460986 -220.79122205172902,-138.46083714355916 -223.29122205172953,-139.13071012466796 -225.79122205174548,-138.46083714361674 -227.62134907069478,-136.63071012470962 -228.29122205180357,-134.1307101247091 -227.62134907075236,-131.63071012469317 -225.79122205184524,-129.80058310574387 -223.29122205184473,-129.13071012463507" stroke="#00f" stroke-linecap="round" stroke-linejoin="round"/><polyline fill="none" points="48.33892030815421,-7.057647746694171 50.838920308170145,-7.72752072774538 52.669047327119436,-9.557647746652506 53.338920308228246,-12.057647746653007 52.66904732717704,-14.557647746668943 50.83892030826991,-16.387774765618236 48.33892030826941,-17.057647746727046 45.83892030825347,-16.387774765675836 44.00879328930418,-14.55764774676871 43.33892030819537,-12.05764774676821 44.008793289246576,-9.557647746752274 45.8389203081537,-7.72752072780298 48.33892030815421,-7.057647746694169" stroke="#00f" stroke-linecap="round" stroke-linejoin="round"/><polyline fill="none" points="-127.64013029191806,-54.09971117932669 -125.14013029190212,-54.769584160377896 -123.31000327295283,-56.59971117928502 -122.64013029184402,-59.09971117928553 -123.31000327289522,-61.599711179301465 -125.14013029180234,-63.42983819825076 -127.64013029180283,-64.09971117935957 -130.14013029181876,-63.42983819830837 -131.97025731076806,-61.59971117940124 -132.6401302918769,-59.099711179400735 -131.97025731082567,-56.5997111793848 -130.14013029191855,-54.7695841604355 -127.64013029191806,-54.09971117932668" stroke="#ffa500" stroke-linecap="round" stroke-linejoin="round"/><polyline fill="none" points="-248.74700099081275,-115.2300799103518 -246.2470009907968,-115.899952891403 -244.4168739718475,-117.73007991031012 -243.74700099073868,-120.23007991031062 -244.4168739717899,-122.73007991032657 -246.24700099069702,-124.56020692927586 -248.74700099069753,-125.23007991038467 -251.24700099071347,-124.56020692933348 -253.07712800966277,-122.73007991042635 -253.7470009907716,-120.23007991042586 -253.07712800972038,-117.73007991040991 -251.24700099081326,-115.89995289146061 -248.74700099081275,-115.2300799103518" stroke="#ffa500" stroke-linecap="round" stroke-linejoin="round"/><polyline fill="none" points="-63.85806366812007,-54.5496986754584 -61.35806366810413,-55.2195716565096 -59.52793664915483,-57.04969867541672 -58.858063668046015,-59.549698675417226 -59.527936649097214,-62.04969867543316 -61.358063668004334,-63.87982569438246 -63.85806366800484,-64.54969867549129 -66.35806366802078,-63.879825694440086 -68.18819068697007,-62.049698675532966 -68.8580636680789,-59.54969867553246 -68.1881906870277,-57.049698675516524 -66.35806366812058,-55.219571656567226 -63.858063668120074,-54.54969867545841" stroke="#ffa500" stroke-linecap="round" stroke-linejoin="round"/><polyline fill="none" points="-201.4587909977377,-81.07258526361738 -198.95879099772176,-81.74245824466858 -197.12866397877247,-83.5725852635757 -196.45879099766364,-86.0725852635762 -197.12866397871483,-88.57258526359215 -198.95879099762195,-90.40271228254144 -201.45879099762246,-91.07258526365027 -203.9587909976384,-90.40271228259907 -205.7889180165877,-88.57258526369195 -206.45879099769652,-86.07258526369145 -205.78891801664534,-83.5725852636755 -203.95879099773822,-81.74245824472621 -201.4587909977377,-81.07258526361738" stroke="#00f" stroke-linecap="round" stroke-linejoin="round"/><polyline fill="none" points="-106.28831994502896,80.48771313062602 -103.78831994501301,79.81784014957482 -101.95819292606372,77.9877131306677 -101.28831994495489,75.4877131306672 -101.95819292600609,72.98771313065126 -103.78831994491321,71.15758611170195 -106.28831994491371,70.48771313059312 -108.78831994492965,71.15758611164432 -110.61844696387897,72.98771313055144 -111.28831994498779,75.48771313055194 -110.61844696393659,77.98771313056788 -108.78831994502947,79.8178401495172 -106.28831994502897,80.48771313062602" stroke="#ffa500" stroke-linecap="round" stroke-linejoin="round"/><polyline fill="none" points="-115.80833649788599,-49.638432240885564 -113.30833649787004,-50.308305221936756 -111.47820947892073,-52.138432240843876 -110.80833649781191,-54.63843224084438 -111.4782094788631,-57.138432240860325 -113.30833649777023,-58.96855925980963 -115.80833649777072,-59.638432240918455 -118.30833649778667,-58.96855925986726 -120.13846351673598,-57.13843224096014 -120.8083364978448,-54.63843224095964 -120.1384635167936,-52.13843224094369 -118.30833649788649,-50.30830522199438 -115.80833649788599,-49.63843224088555" stroke="#ffa500" stroke-linecap="round" stroke-linejoin="round"/><polyline fill="none" points="268.0562342986544,-146.39550169304374 270.55623429867035,-147.06537467409493 272.3863613176197,-148.89550169300205 273.0562342987285,-151.39550169300256 272.3863613176773,-153.8955016930185 270.5562342987702,-155.7256287119678 268.0562342987697,-156.39550169307662 265.55623429875374,-155.72562871202544 263.7261072798044,-153.89550169311832 263.0562342986956,-151.3955016931178 263.72610727974677,-148.89550169310186 265.55623429865386,-147.06537467415257 268.0562342986544,-146.39550169304374" stroke="#ffa500" stroke-linecap="round" stroke-linejoin="round"/><polyline fill="none" points="-161.3682662745596,-99.55695190242282 -158.86826627454366,-100.22682488347401 -157.03813925559436,-102.05695190238113 -156.36826627448553,-104.55695190238163 -157.03813925553672,-107.05695190239757 -158.86826627444384,-108.88707892134688 -161.36826627444435,-109.55695190245572 -163.8682662744603,-108.88707892140454 -165.69839329340962,-107.05695190249742 -166.36826627451845,-104.55695190249692 -165.69839329346726,-102.05695190248098 -163.86826627456014,-100.22682488353166 -161.36826627455963,-99.55695190242282" stroke="#ffa500" stroke-linecap="round" stroke-linejoin="round"/><polyline fill="none" points="-106.43439823494525,14.586131152553927 -103.9343982349293,13.91625817150274 -102.10427121597999,12.086131152595627 -101.43439823487115,9.586131152595126 -102.10427121592234,7.086131152579178 -103.93439823482946,5.256004133629863 -106.43439823482996,4.586131152521027 -108.9343982348459,5.256004133572213 -110.76452525379521,7.086131152479326 -111.43439823490405,9.586131152479828 -110.76452525385287,12.086131152495778 -108.93439823494576,13.916258171445094 -106.43439823494526,14.58613115255393" stroke="#ffa500" stroke-linecap="round" stroke-linejoin="round"/><polyline fill="none" points="-178.6596502992641,-59.34114574938151 -176.15965029924814,-60.011018730432696 -174.32952328029882,-61.84114574933981 -173.65965029919,-64.34114574934031 -174.32952328024118,-66.84114574935626 -176.1596502991483,-68.67127276830557 -178.6596502991488,-69.34114574941441 -181.15965029916475,-68.67127276836322 -182.98977731811408,-66.84114574945612 -183.65965029922293,-64.34114574945562 -182.98977731817175,-61.84114574943967 -181.15965029926463,-60.01101873049035 -178.65965029926411,-59.34114574938151" stroke="#ffa500" stroke-linecap="round" stroke-linejoin="round"/><polyline fill="none" points="-59.409342075807054,-41.511485944898084 -56.9093420757911,-42.18135892594927 -55.07921505684178,-44.01148594485638 -54.409342075732944,-46.51148594485689 -55.07921505678412,-49.01148594487284 -56.909342075691235,-50.84161296382216 -59.40934207569174,-51.511485944930996 -61.90934207570769,-50.84161296387982 -63.73946909465701,-49.011485944972705 -64.40934207576585,-46.5114859449722 -63.73946909471467,-44.01148594495625 -61.90934207580756,-42.18135892600693 -59.409342075807054,-41.511485944898084" stroke="#ffa500" stroke-linecap="round" stroke-linejoin="round"/><polyline fill="none" points="-113.69102708041285,-65.85273629459695 -111.1910270803969,-66.52260927564814 -109.36090006144758,-68.35273629455524 -108.69102708033874,-70.85273629455574 -109.36090006138993,-73.35273629457168 -111.19102708029703,-75.18286331352101 -113.69102708029753,-75.85273629462985 -116.19102708031349,-75.18286331357868 -118.02115409926282,-73.35273629467157 -118.69102708037165,-70.85273629467108 -118.02115409932048,-68.35273629465512 -116.19102708041338,-66.52260927570579 -113.69102708041288,-65.85273629459694" stroke="#00f" stroke-linecap="round" stroke-linejoin="round"/><polyline fill="none" points="-186.4947044530672,19.370402377568915 -183.99470445305124,18.700529396517737 -182.16457743410191,16.87040237761063 -181.49470445299306,14.37040237761013 -182.16457743404425,11.870402377594175 -183.99470445295137,10.040275358644848 -186.49470445295188,9.370402377536001 -188.99470445296782,10.040275358587177 -190.82483147191715,11.870402377494283 -191.494704453026,14.370402377494784 -190.82483147197482,16.87040237751074 -188.9947044530677,18.700529396460066 -186.4947044530672,19.370402377568915" stroke="#00f" stroke-linecap="round" stroke-linejoin="round"/><polyline fill="none" points="-67.7750593241702,39.71355997958048 -65.27505932415424,39.04368699852931 -63.444932305204915,37.213559979622204 -62.77505932409606,34.7135599796217 -63.44493230514723,32.21355997960574 -65.27505932405434,30.38343296065641 -67.77505932405484,29.71355997954756 -70.2750593240708,30.383432960598736 -72.10518634302012,32.21355997950584 -72.77505932412897,34.71355997950634 -72.1051863430778,37.2135599795223 -70.2750593241707,39.04368699847163 -67.7750593241702,39.71355997958048" stroke="#ffa500" stroke-linecap="round" stroke-linejoin="round"/><polyline fill="none" points="-52.17148260164862,53.15963663993166 -49.67148260163266,52.48976365888049 -47.841355582683335,50.659636639973385 -47.17148260157448,48.15963663997288 -47.84135558262565,45.65963663995692 -49.67148260153276,43.82950962100759 -52.17148260153326,43.159636639898736 -54.67148260154922,43.829509620949906 -56.501609620498556,45.65963663985701 -57.17148260160741,48.15963663985752 -56.50160962055624,50.659636639873476 -54.67148260164913,52.48976365882281 -52.17148260164863,53.15963663993166" stroke="#ffa500" stroke-linecap="round" stroke-linejoin="round"/><polyline fill="none" points="283.2529025811433,-145.93301922448563 285.7529025811593,-146.6028922055368 287.5830296001086,-148.43301922444388 288.2529025812175,-150.9330192244444 287.5830296001663,-153.43301922446034 285.7529025812592,-155.26314624340966 283.2529025812587,-155.93301922451852 280.7529025812427,-155.26314624346736 278.9227755622934,-153.43301922456027 278.2529025811845,-150.93301922455976 278.9227755622357,-148.43301922454378 280.7529025811428,-146.60289220559446 283.2529025811433,-145.9330192244856" stroke="#ffa500" stroke-linecap="round" stroke-linejoin="round"/><polyline fill="none" points="-143.47835871400892,19.033208930131128 -140.97835871399295,18.36333594907996 -139.14823169504362,16.533208930172858 -138.47835871393477,14.033208930172357 -139.14823169498592,11.533208930156396 -140.97835871389302,9.703081911207061 -143.47835871389353,9.033208930098201 -145.9783587139095,9.703081911149367 -147.80848573285883,11.533208930056468 -148.47835871396768,14.033208930056968 -147.80848573291652,16.53320893007293 -145.97835871400943,18.363335949022268 -143.47835871400892,19.033208930131128" stroke="#ffa500" stroke-linecap="round" stroke-linejoin="round"/><polyline fill="none" points="49.825236450307,1.5479315517709136 52.32523645032296,0.8780585707197497 54.1553634692723,-0.9520684481873503 54.82523645038116,-3.452068448187851 54.15536346933,-5.952068448203812 52.3252364504229,-7.782195467153151 49.8252364504224,-8.452068448262013 47.32523645040644,-7.78219546721085 45.4951094314571,-5.952068448303751 44.82523645034824,-3.4520684483032507 45.495109431399406,-0.9520684482872892 47.325236450306505,0.8780585706620498 49.825236450307,1.5479315517709131" stroke="#ffa500" stroke-linecap="round" stroke-linejoin="round"/><polyline fill="none" points="282.44552107382617,-122.82371360127004 284.94552107384214,-123.4935865823212 286.77564809279147,-125.32371360122829 287.44552107390035,-127.82371360122879 286.77564809284917,-130.32371360124475 284.9455210739421,-132.1538406201941 282.44552107394156,-132.82371360130296 279.9455210739256,-132.1538406202518 278.11539405497626,-130.3237136013447 277.4455210738674,-127.82371360134421 278.11539405491857,-125.32371360132825 279.94552107382566,-123.49358658237891 282.44552107382617,-122.82371360127004" stroke="#ffa500" stroke-linecap="round" stroke-linejoin="round"/><polyline fill="none" points="71.56583404926997,19.40445425478272 74.06583404928593,18.73458127373156 75.89596106823527,16.90445425482446 76.56583404934413,14.40445425482396 75.89596106829298,11.904454254807996 74.06583404938588,10.074327235858654 71.56583404938539,9.404454254749785 69.06583404936943,10.074327235800943 67.23570703042009,11.90445425470804 66.56583404931122,14.404454254708542 67.23570703036238,16.904454254724506 69.06583404926947,18.73458127367385 71.56583404926997,19.40445425478272" stroke="#ffa500" stroke-linecap="round" stroke-linejoin="round"/><polyline fill="none" points="-25.723285682681954,-54.77910813010986 -23.22328568266599,-55.44898111116102 -21.393158663716644,-57.27910813006812 -20.723285682607774,-59.77910813006862 -21.39315866365893,-62.27910813008459 -23.223285682566026,-64.10923514903394 -25.723285682566527,-64.7791081301428 -28.223285682582492,-64.10923514909165 -30.05341270153184,-62.279108130184554 -30.72328568264071,-59.77910813018405 -30.053412701589558,-57.27910813016808 -28.223285682682462,-55.448981111218735 -25.72328568268196,-54.77910813010986" stroke="#ffa500" stroke-linecap="round" stroke-linejoin="round"/><polyline fill="none" points="-189.9684060162554,-102.17351582873532 -187.4684060162394,-102.84338880978648 -185.63827899729006,-104.67351582869357 -184.96840601618118,-107.17351582869406 -185.63827899723233,-109.67351582871004 -187.46840601613943,-111.50364284765939 -189.96840601613994,-112.17351582876826 -192.4684060161559,-111.5036428477171 -194.29853303510527,-109.67351582881001 -194.96840601621415,-107.17351582880951 -194.298533035163,-104.67351582879354 -192.4684060162559,-102.84338880984419 -189.9684060162554,-102.1735158287353" stroke="#ffa500" stroke-linecap="round" stroke-linejoin="round"/><polyline fill="none" points="-23.65985830586095,-41.52036371630328 -21.15985830584498,-42.19023669735443 -19.32973128689563,-44.02036371626152 -18.659858305786752,-46.520363716262025 -19.3297312868379,-49.02036371627799 -21.159858305744994,-50.85049073522734 -23.659858305745495,-51.52036371633621 -26.159858305761464,-50.850490735285064 -27.989985324710815,-49.02036371637797 -28.659858305819693,-46.52036371637747 -27.989985324768544,-44.020363716361494 -26.15985830586145,-42.19023669741214 -23.65985830586095,-41.52036371630326" stroke="#ffa500" stroke-linecap="round" stroke-linejoin="round"/><polyline fill="none" points="-223.34135761888197,-74.9769283133575 -220.841357618866,-75.64680129440865 -219.01123059991664,-77.47692831331574 -218.34135761880776,-79.97692831331624 -219.01123059985892,-82.47692831333221 -220.841357618766,-84.30705533228156 -223.34135761876652,-84.97692831339045 -225.8413576187825,-84.3070553323393 -227.67148463773185,-82.47692831343221 -228.34135761884073,-79.97692831343171 -227.67148463778958,-77.47692831341574 -225.84135761888248,-75.64680129446639 -223.34135761888197,-74.9769283133575" stroke="#008000" stroke-linecap="round" stroke-linejoin="round"/><polyline fill="none" points="-171.95973265834928,-14.663628486181466 -169.4597326583333,-15.333501467232612 -167.62960563938395,-17.1636284861397 -166.95973265827507,-19.6636284861402 -167.62960563932623,-22.163628486156174 -169.45973265823332,-23.99375550510553 -171.95973265823383,-24.663628486214414 -174.4597326582498,-23.993755505163268 -176.28985967719916,-22.16362848625618 -176.95973265830804,-19.66362848625568 -176.28985967725689,-17.163628486239705 -174.4597326583498,-15.333501467290349 -171.95973265834928,-14.663628486181464" stroke="#ffa500" stroke-linecap="round" stroke-linejoin="round"/><polyline fill="none" points="-110.6494880576184,-34.569897076226134 -108.14948805760243,-35.239770057277276 -106.31936103865307,-37.06989707618437 -105.64948805754419,-39.56989707618487 -106.31936103859533,-42.069897076200846 -108.14948805750242,-43.90002409515021 -110.64948805750292,-44.569897076259096 -113.1494880575189,-43.900024095207954 -114.97961507646825,-42.06989707630086 -115.64948805757713,-39.56989707630036 -114.97961507652599,-37.069897076284384 -113.1494880576189,-35.23977005733502 -110.6494880576184,-34.569897076226134" stroke="#ffa500" stroke-linecap="round" stroke-linejoin="round"/><polyline fill="none" points="-137.73632339657786,-26.16468260511961 -135.2363233965619,-26.83455558617075 -133.40619637761253,-28.66468260507784 -132.73632339650365,-31.16468260507834 -133.40619637755478,-33.66468260509431 -135.23632339646187,-35.494809624043675 -137.73632339646238,-36.164682605152564 -140.23632339647835,-35.49480962410142 -142.0664504154277,-33.664682605194336 -142.7363233965366,-31.164682605193835 -142.06645041548546,-28.66468260517786 -140.23632339657837,-26.834555586228497 -137.73632339657786,-26.164682605119605" stroke="#ffa500" stroke-linecap="round" stroke-linejoin="round"/><polyline fill="none" points="-220.22303145512794,-27.659332970831997 -217.72303145511196,-28.329205951883136 -215.8929044361626,-30.15933297079022 -215.22303145505373,-32.65933297079072 -215.89290443610486,-35.1593329708067 -217.72303145501195,-36.989459989756064 -220.22303145501246,-37.65933297086495 -222.72303145502843,-36.98945998981382 -224.5531584739778,-35.15933297090673 -225.22303145508667,-32.65933297090623 -224.55315847403554,-30.15933297089025 -222.72303145512845,-28.329205951940885 -220.22303145512794,-27.659332970831993" stroke="#00f" stroke-linecap="round" stroke-linejoin="round"/><polyline fill="none" points="-221.64913881804935,-46.19275342886393 -219.14913881803338,-46.862626409915066 -217.31901179908402,-48.69275342882215 -216.64913881797514,-51.192753428822655 -217.31901179902627,-53.692753428838635 -219.14913881793336,-55.522880447788005 -221.64913881793387,-56.1927534288969 -224.14913881794985,-55.522880447845765 -225.9792658368992,-53.69275342893868 -226.64913881800808,-51.192753428938175 -225.97926583695696,-48.692753428922195 -224.14913881804986,-46.862626409972826 -221.64913881804935,-46.19275342886393" stroke="#00f" stroke-linecap="round" stroke-linejoin="round"/><polyline fill="none" points="-203.39302090077445,-50.24544940562616 -200.89302090075847,-50.915322386677296 -199.06289388180912,-52.74544940558438 -198.3930209007002,-55.245449405584885 -199.06289388175134,-57.745449405600866 -200.89302090065843,-59.575576424550235 -203.39302090065894,-60.24544940565913 -205.8930209006749,-59.575576424607995 -207.7231479196243,-57.74544940570091 -208.3930209007332,-55.245449405700406 -207.72314791968208,-52.745449405684425 -205.89302090077499,-50.915322386735056 -203.39302090077447,-50.24544940562616" stroke="#ffa500" stroke-linecap="round" stroke-linejoin="round"/><polyline fill="none" points="-114.09374597684106,19.28363115987664 -111.59374597682508,18.61375817882551 -109.7636189578757,16.78363115991843 -109.09374597676681,14.283631159917926 -109.76361895781794,11.783631159901944 -111.59374597672502,9.953504140952571 -114.09374597672551,9.28363115984367 -116.5937459767415,9.9535041408948 -118.42387299569087,11.783631159801882 -119.09374597679977,14.283631159802384 -118.42387299574864,16.783631159818366 -116.59374597684156,18.61375817876774 -114.09374597684106,19.28363115987664" stroke="#ffa500" stroke-linecap="round" stroke-linejoin="round"/><polyline fill="none" points="-60.8629123499282,49.740291631520506 -58.36291234991222,49.07041865046938 -56.532785330962845,47.2402916315623 -55.86291234985394,44.740291631561796 -56.53278533090507,42.240291631545816 -58.36291234981215,40.41016461259644 -60.86291234981265,39.74029163148754 -63.36291234982863,40.410164612538665 -65.193039368778,42.24029163144574 -65.86291234988691,44.74029163144625 -65.19303936883578,47.240291631462235 -63.362912349928706,49.07041865041161 -60.8629123499282,49.74029163152051" stroke="#ffa500" stroke-linecap="round" stroke-linejoin="round"/><polyline fill="none" points="-165.6480246132706,-58.94448931126068 -163.14802461325462,-59.61436229231181 -161.31789759430524,-61.44448931121889 -160.64802461319633,-63.94448931121939 -161.31789759424746,-66.44448931123537 -163.14802461315455,-68.27461633018476 -165.64802461315506,-68.94448931129367 -168.14802461317103,-68.27461633024254 -169.97815163212042,-66.44448931133546 -170.64802461322932,-63.944489311334955 -169.9781516321782,-61.44448931131897 -168.1480246132711,-59.61436229236959 -165.6480246132706,-58.94448931126068" stroke="#00f" stroke-linecap="round" stroke-linejoin="round"/><polyline fill="none" points="-211.93055552231192,-75.97941222066822 -209.43055552229595,-76.64928520171935 -207.60042850334656,-78.47941222062643 -206.93055552223765,-80.97941222062693 -207.60042850328878,-83.47941222064291 -209.43055552219587,-85.3095392395923 -211.93055552219639,-85.9794122207012 -214.43055552221236,-85.30953923965008 -216.26068254116174,-83.479412220743 -216.93055552227065,-80.9794122207425 -216.26068254121952,-78.47941222072652 -214.43055552231243,-76.64928520177713 -211.93055552231192,-75.97941222066822" stroke="#00f" stroke-linecap="round" stroke-linejoin="round"/><polyline fill="none" points="-94.6630823172461,101.06796320972308 -92.1630823172301,100.39809022867195 -90.33295529828072,98.56796320976487 -89.66308231717181,96.06796320976437 -90.33295529822294,93.56796320974838 -92.16308231713002,91.737836190799 -94.66308231713052,91.06796320969009 -97.1630823171465,91.73783619074122 -98.99320933609589,93.5679632096483 -99.6630823172048,96.0679632096488 -98.99320933615368,98.56796320966478 -97.1630823172466,100.39809022861417 -94.66308231724611,101.06796320972308" stroke="#ffa500" stroke-linecap="round" stroke-linejoin="round"/><polyline fill="none" points="-193.22455578840044,-51.05433735357697 -190.72455578838444,-51.72421033462809 -188.89442876943505,-53.55433735353517 -188.22455578832614,-56.05433735353567 -188.89442876937727,-58.55433735355166 -190.72455578828433,-60.38446437250104 -193.22455578828485,-61.05433735360996 -195.72455578830085,-60.38446437255884 -197.55468280725023,-58.55433735365176 -198.22455578835914,-56.054337353651256 -197.554682807308,-53.55433735363527 -195.72455578840095,-51.724210334685885 -193.22455578840044,-51.05433735357697" stroke="#ffa500" stroke-linecap="round" stroke-linejoin="round"/><polyline fill="none" points="-213.00121459707339,-86.36582873056443 -210.50121459705738,-87.03570171161554 -208.671087578108,-88.86582873052262 -208.0012145969991,-91.36582873052312 -208.67108757805022,-93.8658287305391 -210.50121459695728,-95.69595574948849 -213.0012145969578,-96.3658287305974 -215.5012145969738,-95.69595574954629 -217.33134161592318,-93.86582873063921 -218.0012145970321,-91.36582873063871 -217.33134161598096,-88.86582873062272 -215.5012145970739,-87.03570171167334 -213.00121459707339,-86.36582873056442" stroke="#f00" stroke-linecap="round" stroke-linejoin="round"/><polyline fill="none" points="-165.71609621222882,-73.30162020933341 -163.21609621221282,-73.97149319038452 -161.38596919326343,-75.8016202092916 -160.71609621215453,-78.3016202092921 -161.38596919320565,-80.80162020930808 -163.21609621211272,-82.63174722825747 -165.71609621211323,-83.30162020936639 -168.21609621212923,-82.63174722831528 -170.0462232310786,-80.8016202094082 -170.71609621218752,-78.3016202094077 -170.0462232311364,-75.80162020939171 -168.21609621222933,-73.97149319044233 -165.71609621222882,-73.30162020933341" stroke="#008000" stroke-linecap="round" stroke-linejoin="round"/><polyline fill="none" points="-172.03837782374572,12.531657818699024 -169.53837782372972,11.86178483764791 -167.70825080478033,10.031657818740838 -167.03837782367142,7.531657818740334 -167.70825080472252,5.031657818724341 -169.5383778236296,3.2015307997749494 -172.0383778236301,2.531657818666028 -174.5383778236461,3.20153079971714 -176.36850484259548,5.031657818624212 -177.0383778237044,7.531657818624716 -176.3685048426533,10.03165781864071 -174.53837782374623,11.861784837590102 -172.03837782374572,12.531657818699026" stroke="#ffa500" stroke-linecap="round" stroke-linejoin="round"/><polyline fill="none" points="-166.97460102439948,4.869768892367593 -164.47460102438347,4.1998959113164815 -162.6444740054341,2.36976889240941 -161.97460102432518,-0.13023110759109402 -162.64447400537628,-2.6302311076070892 -164.47460102428334,-4.460358126556483 -166.97460102428386,-5.1302311076654075 -169.47460102429986,-4.460358126614297 -171.30472804324924,-2.630231107707226 -171.97460102435818,-0.13023110770672197 -171.30472804330708,2.3697688923092737 -169.47460102440002,4.199895911258668 -166.9746010243995,4.869768892367594" stroke="#ffa500" stroke-linecap="round" stroke-linejoin="round"/><polyline fill="none" points="-121.16498943637484,79.39074673438891 -118.66498943635884,78.7208737533378 -116.83486241740944,76.89074673443073 -116.16498943630052,74.39074673443024 -116.83486241735163,71.89074673441424 -118.6649894362587,70.06061971546484 -121.16498943625919,69.39074673435591 -123.66498943627519,70.06061971540703 -125.49511645522459,71.89074673431409 -126.16498943633351,74.39074673431459 -125.4951164552824,76.89074673433059 -123.66498943637534,78.72087375327999 -121.16498943637484,79.39074673438891" stroke="#00f" stroke-linecap="round" stroke-linejoin="round"/><polyline fill="none" points="-209.58247814274142,-32.87828808923095 -207.08247814272542,-33.548161070282056 -205.25235112377604,-35.37828808918913 -204.5824781426671,-37.87828808918963 -205.2523511237182,-40.378288089205626 -207.08247814262526,-42.20841510815502 -209.58247814262577,-42.878288089263954 -212.08247814264178,-42.20841510821285 -213.9126051615912,-40.37828808930578 -214.58247814270013,-37.87828808930527 -213.91260516164903,-35.37828808928927 -212.08247814274196,-33.54816107033987 -209.58247814274145,-32.87828808923094" stroke="#00f" stroke-linecap="round" stroke-linejoin="round"/><polyline fill="none" points="-127.56612004434213,20.822165255286457 -125.06612004432613,20.152292274235354 -123.23599302537673,18.322165255328287 -122.56612004426779,15.822165255327782 -123.23599302531889,13.322165255311782 -125.06612004422595,11.492038236362381 -127.56612004422647,10.822165255253449 -130.06612004424247,11.492038236304552 -131.89624706319188,13.322165255211619 -132.56612004430082,15.822165255212123 -131.89624706324972,18.322165255228125 -130.06612004434265,20.152292274177526 -127.56612004434214,20.82216525528646" stroke="#ffa500" stroke-linecap="round" stroke-linejoin="round"/><polyline fill="none" points="-134.21740080144394,-63.24857752727014 -131.71740080142794,-63.91845050832124 -129.88727378247853,-65.7485775272283 -129.2174008013696,-68.24857752722882 -129.8872737824207,-70.74857752724482 -131.71740080132776,-72.57870454619422 -134.21740080132827,-73.24857752730315 -136.71740080134427,-72.57870454625206 -138.54752782029368,-70.74857752734499 -139.21740080140262,-68.24857752734448 -138.54752782035152,-65.74857752732848 -136.71740080144446,-63.918450508379074 -134.21740080144394,-63.248577527270136" stroke="#00f" stroke-linecap="round" stroke-linejoin="round"/><polyline fill="none" points="-176.70263930694574,-83.46925633605095 -174.20263930692974,-84.13912931710205 -172.37251228798033,-85.96925633600911 -171.7026393068714,-88.46925633600962 -172.3725122879225,-90.96925633602562 -174.20263930682955,-92.79938335497503 -176.70263930683006,-93.46925633608397 -179.20263930684607,-92.79938335503287 -181.03276632579548,-90.96925633612581 -181.70263930690442,-88.4692563361253 -181.03276632585332,-85.9692563361093 -179.20263930694625,-84.13912931715988 -176.70263930694574,-83.46925633605095" stroke="#ffa500" stroke-linecap="round" stroke-linejoin="round"/><polyline fill="none" points="-203.62563620195797,-6.220359075178601 -201.12563620194197,-6.890232056229698 -199.29550918299256,-8.720359075136763 -198.62563620188362,-11.220359075137267 -199.29550918293472,-13.720359075153272 -201.1256362018418,-15.55048609410268 -203.6256362018423,-16.220359075211622 -206.1256362018583,-15.550486094160526 -207.9557632208077,-13.720359075253462 -208.62563620191665,-11.220359075252958 -207.95576322086555,-8.720359075236953 -206.12563620195849,-6.890232056287543 -203.62563620195797,-6.2203590751786" stroke="#ffa500" stroke-linecap="round" stroke-linejoin="round"/><polyline fill="none" points="-203.53064008817157,-89.88581566414649 -201.03064008815556,-90.55568864519759 -199.20051306920615,-92.38581566410465 -198.53064008809721,-94.88581566410517 -199.20051306914831,-97.38581566412117 -201.03064008805538,-99.21594268307058 -203.5306400880559,-99.88581566417952 -206.0306400880719,-99.21594268312842 -207.8607671070213,-97.38581566422135 -208.53064008813024,-94.88581566422084 -207.86076710707914,-92.38581566420484 -206.03064008817208,-90.55568864525543 -203.53064008817157,-89.88581566414649" stroke="#ffa500" stroke-linecap="round" stroke-linejoin="round"/><polyline fill="none" points="-219.5105737554243,-104.49808421548073 -217.0105737554083,-105.16795719653183 -215.1804467364589,-106.9980842154389 -214.51057375534995,-109.4980842154394 -215.18044673640105,-111.9980842154554 -217.01057375530812,-113.82821123440482 -219.51057375530863,-114.49808421551377 -222.01057375532463,-113.82821123446269 -223.84070077427404,-111.99808421555562 -224.51057375538298,-109.49808421555511 -223.84070077433188,-106.99808421553911 -222.01057375542482,-105.1679571965897 -219.5105737554243,-104.49808421548074" stroke="#00f" stroke-linecap="round" stroke-linejoin="round"/><polyline fill="none" points="-144.41913573589727,33.65305386109128 -141.91913573588127,32.98318088004019 -140.08900871693186,31.153053861133127 -139.41913573582292,28.653053861132623 -140.08900871687402,26.153053861116614 -141.91913573578108,24.3229268421672 -144.4191357357816,23.65305386105825 -146.9191357357976,24.32292684210934 -148.749262754747,26.1530538610164 -149.41913573585595,28.653053861016904 -148.74926275480485,31.153053861032912 -146.91913573589778,32.98318087998233 -144.41913573589727,33.65305386109128" stroke="#ffa500" stroke-linecap="round" stroke-linejoin="round"/><polyline fill="none" points="-219.89161007463926,-128.7122145812233 -217.39161007462326,-129.3820875622744 -215.56148305567385,-131.21221458118146 -214.8916100745649,-133.71221458118197 -215.561483055616,-136.21221458119797 -217.39161007452307,-138.04234160014738 -219.89161007452358,-138.71221458125632 -222.39161007453959,-138.04234160020522 -224.221737093489,-136.21221458129816 -224.89161007459796,-133.71221458129764 -224.22173709354686,-131.21221458128164 -222.3916100746398,-129.38208756233223 -219.8916100746393,-128.71221458122326" stroke="#ffa500" stroke-linecap="round" stroke-linejoin="round"/><polyline fill="none" points="63.44230759868798,11.08031850133651 65.94230759870399,10.410445520285423 67.77243461765342,8.580318501378365 68.44230759876237,6.0803185013778585 67.77243461771128,3.580318501361847 65.94230759880422,1.7501914824124263 63.442307598803716,1.0803185013034722 60.94230759878771,1.7501914823545572 59.11218057983829,3.5803185012616145 58.442307598729336,6.08031850126212 59.11218057978042,8.580318501278132 60.94230759868748,10.410445520227553 63.44230759868798,11.080318501336508" stroke="#ffa500" stroke-linecap="round" stroke-linejoin="round"/><polyline fill="none" points="-144.96926203576788,-15.182476601540088 -142.46926203575188,-15.852349582591172 -140.63913501680247,-17.68247660149823 -139.9692620356935,-20.182476601498735 -140.63913501674458,-22.682476601514747 -142.46926203565164,-24.51260362046417 -144.96926203565215,-25.182476601573125 -147.46926203566815,-24.512603620522043 -149.29938905461756,-22.682476601614987 -149.96926203572653,-20.182476601614482 -149.29938905467546,-17.682476601598466 -147.4692620357684,-15.852349582649042 -144.96926203576788,-15.182476601540083" stroke="#00f" stroke-linecap="round" stroke-linejoin="round"/><polyline fill="none" points="-205.33339086275294,-57.70195450034288 -202.83339086273693,-58.37182748139396 -201.00326384378752,-60.201954500301014 -200.33339086267856,-62.70195450030152 -201.00326384372963,-65.20195450031753 -202.8333908626367,-67.03208151926695 -205.3333908626372,-67.70195450037592 -207.8333908626532,-67.03208151932483 -209.66351788160262,-65.20195450041778 -210.33339086271158,-62.70195450041728 -209.6635178816605,-60.201954500401264 -207.83339086275345,-58.37182748145184 -205.33339086275294,-57.70195450034288" stroke="#00f" stroke-linecap="round" stroke-linejoin="round"/><polyline fill="none" points="-211.84702538415618,-81.37474491158412 -209.34702538414015,-82.0446178926352 -207.5168983651907,-83.87474491154225 -206.84702538408175,-86.37474491154276 -207.51689836513282,-88.87474491155878 -209.34702538403988,-90.7048719305082 -211.8470253840404,-91.37474491161717 -214.34702538405642,-90.7048719305661 -216.17715240300586,-88.87474491165905 -216.84702538411483,-86.37474491165854 -216.17715240306376,-83.87474491164252 -214.3470253841567,-82.0446178926931 -211.84702538415618,-81.37474491158413" stroke="#00f" stroke-linecap="round" stroke-linejoin="round"/><polyline fill="none" points="-100.05745264129817,93.62959514670894 -97.55745264128215,92.95972216565787 -95.72732562233273,91.12959514675082 -95.05745264122376,88.6295951467503 -95.72732562227483,86.12959514673429 -97.55745264118188,84.29946812778486 -100.0574526411824,83.6295951466759 -102.55745264119841,84.29946812772697 -104.38757966014784,86.12959514663402 -105.0574526412568,88.62959514663453 -104.38757966020573,91.12959514665054 -102.55745264129868,92.95972216559997 -100.05745264129817,93.62959514670894" stroke="#ffa500" stroke-linecap="round" stroke-linejoin="round"/><polyline fill="none" points="-230.6151399361142,-82.26600950324782 -228.11513993609816,-82.93588248429889 -226.28501291714872,-84.76600950320594 -225.61513993603975,-87.26600950320645 -226.28501291709082,-89.76600950322246 -228.1151399359979,-91.5961365221719 -230.6151399359984,-92.26600950328087 -233.11513993601443,-91.5961365222298 -234.94526695496387,-89.76600950332275 -235.61513993607284,-87.26600950332224 -234.94526695502176,-84.76600950330622 -233.1151399361147,-82.93588248435678 -230.6151399361142,-82.26600950324782" stroke="#ffa500" stroke-linecap="round" stroke-linejoin="round"/><polyline fill="none" points="-82.50510567320363,66.06451087907334 -80.00510567318761,65.39463789802227 -78.17497865423817,63.56451087911522 -77.50510567312921,61.064510879114714 -78.17497865418028,58.56451087909869 -80.00510567308733,56.73438386014926 -82.50510567308784,56.064510879040284 -85.00510567310386,56.734383860091356 -86.8352326920533,58.564510878998405 -87.50510567316226,61.06451087899892 -86.83523269211119,63.56451087901494 -85.00510567320414,65.39463789796437 -82.50510567320363,66.06451087907334" stroke="#ffa500" stroke-linecap="round" stroke-linejoin="round"/><polyline fill="none" points="-113.29171608091198,104.80557888734685 -110.79171608089595,104.13570590629578 -108.96158906194651,102.30557888738873 -108.29171608083753,99.80557888738822 -108.9615890618886,97.30557888737219 -110.79171608079565,95.47545186842275 -113.29171608079616,94.80557888731377 -115.7917160808122,95.47545186836484 -117.62184309976163,97.30557888727189 -118.29171608087061,99.8055788872724 -117.62184309981954,102.30557888728843 -115.7917160809125,104.13570590623787 -113.29171608091198,104.80557888734685" stroke="#ffa500" stroke-linecap="round" stroke-linejoin="round"/><polyline fill="none" points="-133.2782589441493,-44.142386888969114 -130.77825894413326,-44.812259870020185 -128.94813192518382,-46.642386888927234 -128.27825894407485,-49.142386888927746 -128.94813192512592,-51.64238688894377 -130.77825894403296,-53.47251390789321 -133.27825894403347,-54.14238688900219 -135.7782589440495,-53.472513907951125 -137.60838596299894,-51.642386889044076 -138.2782589441079,-49.142386889043564 -137.60838596305683,-46.64238688902754 -135.7782589441498,-44.8122598700781 -133.2782589441493,-44.14238688896912" stroke="#00f" stroke-linecap="round" stroke-linejoin="round"/><polyline fill="none" points="-233.68418337080658,-108.90892967029001 -231.18418337079055,-109.57880265134108 -229.3540563518411,-111.40892967024813 -228.68418337073214,-113.90892967024864 -229.3540563517832,-116.40892967026467 -231.18418337069025,-118.23905668921411 -233.68418337069076,-118.90892967032309 -236.1841833707068,-118.23905668927203 -238.01431038965623,-116.40892967036498 -238.68418337076523,-113.90892967036447 -238.01431038971415,-111.40892967034844 -236.18418337080712,-109.578802651399 -233.6841833708066,-108.90892967029002" stroke="#00f" stroke-linecap="round" stroke-linejoin="round"/><polyline fill="none" points="-206.0520146408084,-115.43954018834344 -203.55201464079238,-116.1094131693945 -201.72188762184294,-117.93954018830155 -201.05201464073394,-120.43954018830206 -201.72188762178502,-122.93954018831809 -203.55201464069205,-124.76966720726753 -206.05201464069256,-125.43954018837651 -208.5520146407086,-124.76966720732545 -210.38214165965803,-122.9395401884184 -211.05201464076703,-120.4395401884179 -210.38214165971596,-117.93954018840186 -208.55201464080892,-116.10941316945241 -206.0520146408084,-115.43954018834343" stroke="#ffa500" stroke-linecap="round" stroke-linejoin="round"/><polyline fill="none" points="-162.12005948064126,38.175723421139274 -159.62005948062523,37.50585044008822 -157.7899324616758,35.675723421181175 -157.1200594805668,33.17572342118066 -157.78993246161787,30.675723421164633 -159.6200594805249,28.845596402215186 -162.1200594805254,28.175723421106202 -164.62005948054144,28.845596402157263 -166.45018649949088,30.675723421064305 -167.12005948059988,33.175723421064816 -166.4501864995488,35.675723421080846 -164.62005948064177,37.505850440030294 -162.12005948064126,38.17572342113928" stroke="#ffa500" stroke-linecap="round" stroke-linejoin="round"/><polyline fill="none" points="-114.48253818055625,90.87975514911447 -111.98253818054022,90.20988216806342 -110.15241116159076,88.37975514915637 -109.48253818048177,85.87975514915586 -110.15241116153283,83.37975514913983 -111.98253818043986,81.54962813019037 -114.48253818044037,80.87975514908138 -116.9825381804564,81.54962813013243 -118.81266519940586,83.37975514903947 -119.48253818051485,85.87975514903998 -118.8126651994638,88.37975514905601 -116.98253818055676,90.20988216800546 -114.48253818055625,90.87975514911446" stroke="#ffa500" stroke-linecap="round" stroke-linejoin="round"/><polyline fill="none" points="-188.67110440051258,8.374611078341909 -186.17110440049655,7.704738097290854 -184.3409773815471,5.874611078383813 -183.6711044004381,3.374611078383305 -184.34097738148915,0.8746110783672725 -186.1711044003962,-0.9555159405821816 -188.6711044003967,-1.6253889216911732 -191.17110440041273,-0.9555159406401195 -193.00123141936217,0.874611078266921 -193.67110440047117,3.374611078267429 -193.00123141942012,5.874611078283461 -191.1711044005131,7.704738097232917 -188.67110440051258,8.37461107834191" stroke="#00f" stroke-linecap="round" stroke-linejoin="round"/><polyline fill="none" points="-195.18613524389826,-15.010018744908539 -192.68613524388223,-15.679891725959592 -190.85600822493276,-17.51001874486663 -190.18613524382377,-20.01001874486714 -190.8560082248748,-22.510018744883173 -192.68613524378185,-24.34014576383263 -195.18613524378236,-25.010018744941625 -197.6861352437984,-24.340145763890575 -199.51626226274786,-22.510018744983537 -200.18613524385685,-20.01001874498303 -199.5162622628058,-17.510018744966995 -197.68613524389878,-15.679891726017537 -195.18613524389826,-15.01001874490854" stroke="#ffa500" stroke-linecap="round" stroke-linejoin="round"/><polyline fill="none" points="-204.18570076465866,-100.08147396524714 -201.68570076464263,-100.7513469462982 -199.85557374569316,-102.58147396520523 -199.18570076458417,-105.08147396520575 -199.8555737456352,-107.58147396522178 -201.68570076454225,-109.41160098417123 -204.18570076454276,-110.08147396528022 -206.6857007645588,-109.41160098422918 -208.51582778350826,-107.58147396532215 -209.18570076461725,-105.08147396532163 -208.5158277835662,-102.5814739653056 -206.68570076465917,-100.75134694635615 -204.18570076465866,-100.08147396524716" stroke="#00f" stroke-linecap="round" stroke-linejoin="round"/><polyline fill="none" points="-230.49972685721326,-107.51986894667732 -227.99972685719723,-108.18974192772836 -226.16959983824776,-110.0198689466354 -225.49972685713877,-112.51986894663591 -226.1695998381898,-115.01986894665194 -227.99972685709685,-116.8499959656014 -230.49972685709736,-117.51986894671039 -232.9997268571134,-116.84999596565935 -234.82985387606286,-115.01986894675231 -235.49972685717185,-112.5198689467518 -234.8298538761208,-110.01986894673576 -232.99972685721377,-108.18974192778629 -230.49972685721326,-107.51986894667729" stroke="#ffa500" stroke-linecap="round" stroke-linejoin="round"/><polyline fill="none" points="-223.79173442361096,-89.64492156335307 -221.29173442359493,-90.31479454440411 -219.46160740464546,-92.14492156331114 -218.79173442353647,-94.64492156331166 -219.4616074045875,-97.1449215633277 -221.29173442349455,-98.97504858227717 -223.79173442349506,-99.64492156338618 -226.2917344235111,-98.97504858233513 -228.12186144246056,-97.1449215634281 -228.79173442356955,-94.64492156342759 -228.1218614425185,-92.14492156341154 -226.29173442361147,-90.31479454446207 -223.79173442361096,-89.64492156335307" stroke="#008000" stroke-linecap="round" stroke-linejoin="round"/><polyline fill="none" points="-72.96081669757659,55.50334883032379 -70.46081669756055,54.833475849272745 -68.63068967861108,53.00334883036571 -67.96081669750207,50.5033488303652 -68.63068967855311,48.00334883034916 -70.46081669746015,46.17322181139969 -72.96081669746066,45.50334883029069 -75.4608166974767,46.17322181134173 -77.29094371642617,48.00334883024877 -77.96081669753518,50.50334883024927 -77.29094371648414,53.00334883026531 -75.4608166975771,54.83347584921478 -72.96081669757659,55.50334883032379" stroke="#ffa500" stroke-linecap="round" stroke-linejoin="round"/><polyline fill="none" points="62.78941413823436,-4.056063600101458 65.28941413825041,-4.7259365811524985 67.11954115719988,-6.556063600059531 67.78941413830889,-9.056063600060039 67.11954115725784,-11.55606360007608 65.2894141383508,-13.386190619025548 62.789414138350296,-14.056063600134557 60.28941413833425,-13.386190619083518 58.45928711938478,-11.556063600176486 57.789414138275774,-9.056063600175978 58.45928711932681,-6.556063600159937 60.289414138233845,-4.725936581210467 62.78941413823435,-4.056063600101457" stroke="#ffa500" stroke-linecap="round" stroke-linejoin="round"/><polyline fill="none" points="-224.92954872533758,-99.77312313429566 -222.42954872532155,-100.4429961153467 -220.59942170637208,-102.27312313425374 -219.92954872526306,-104.77312313425425 -220.5994217063141,-107.27312313427029 -222.42954872522114,-109.10325015321976 -224.92954872522165,-109.77312313432877 -227.42954872523768,-109.10325015327773 -229.25967574418715,-107.27312313437069 -229.92954872529617,-104.77312313437018 -229.25967574424513,-102.27312313435414 -227.4295487253381,-100.44299611540467 -224.92954872533758,-99.77312313429566" stroke="#ffa500" stroke-linecap="round" stroke-linejoin="round"/><polyline fill="none" points="-246.73133272041036,-82.00893374005477 -244.23133272039433,-82.6788067211058 -242.40120570144487,-84.50893374001284 -241.73133272033584,-87.00893374001335 -242.40120570138689,-89.50893374002939 -244.23133272029392,-91.33906075897886 -246.73133272029443,-92.00893374008787 -249.23133272031046,-91.33906075903684 -251.06145973925993,-89.5089337401298 -251.73133272036895,-87.0089337401293 -251.0614597393179,-84.50893374011325 -249.23133272041088,-82.67880672116378 -246.73133272041036,-82.00893374005477" stroke="#00f" stroke-linecap="round" stroke-linejoin="round"/><polyline fill="none" points="-214.94618400350157,-124.88842076728216 -212.44618400348554,-125.55829374833318 -210.61605698453607,-127.38842076724022 -209.94618400342705,-129.88842076724072 -210.6160569844781,-132.38842076725678 -212.44618400338513,-134.21854778620624 -214.94618400338564,-134.88842076731527 -217.4461840034017,-134.21854778626422 -219.27631102235117,-132.3884207673572 -219.9461840034602,-129.88842076735668 -219.27631102240915,-127.38842076734063 -217.4461840035021,-125.55829374839115 -214.9461840035016,-124.88842076728213" stroke="#ffa500" stroke-linecap="round" stroke-linejoin="round"/><polyline fill="none" points="-208.76852640191083,-97.82135631233298 -206.26852640189477,-98.49122929338401 -204.4383993829453,-100.32135631229103 -203.76852640183628,-102.82135631229154 -204.43839938288733,-105.32135631230759 -206.26852640179436,-107.15148333125707 -208.76852640179487,-107.82135631236609 -211.26852640181093,-107.15148333131506 -213.0986534207604,-105.32135631240804 -213.76852640186942,-102.82135631240753 -213.0986534208184,-100.32135631239149 -211.26852640191137,-98.491229293442 -208.76852640191086,-97.82135631233298" stroke="#008000" stroke-linecap="round" stroke-linejoin="round"/><polyline fill="none" points="-156.0990088529371,26.141310062728273 -153.59900885292103,25.471437081677244 -151.76888183397156,23.64131006277022 -151.09900885286254,21.141310062769712 -151.76888183391355,18.641310062753664 -153.5990088528206,16.811183043804185 -156.0990088528211,16.14131006269516 -158.59900885283716,16.811183043746187 -160.42913587178663,18.64131006265321 -161.09900885289565,21.14131006265372 -160.42913587184464,23.641310062669767 -158.5990088529376,25.47143708161925 -156.0990088529371,26.141310062728273" stroke="#ffa500" stroke-linecap="round" stroke-linejoin="round"/><polyline fill="none" points="-214.30451260098084,-18.3221528450363 -211.80451260096478,-18.992025826087325 -209.9743855820153,-20.82215284499435 -209.30451260090626,-23.322152844994857 -209.97438558195728,-25.822152845010905 -211.8045126008643,-27.652279863960388 -214.30451260086483,-28.322152845069414 -216.80451260088088,-27.65227986401839 -218.63463961983038,-25.822152845111365 -219.3045126009394,-23.322152845110857 -218.6346396198884,-20.822152845094806 -216.80451260098135,-18.99202582614532 -214.30451260098084,-18.322152845036292" stroke="#ffa500" stroke-linecap="round" stroke-linejoin="round"/><polyline fill="none" points="-156.02634502566863,-85.36539721149481 -153.52634502565257,-86.03527019254584 -151.69621800670308,-87.86539721145286 -151.02634502559405,-90.36539721145337 -151.69621800664507,-92.86539721146943 -153.5263450255521,-94.69552423041891 -156.02634502555262,-95.36539721152793 -158.52634502556867,-94.6955242304769 -160.35647204451817,-92.86539721156988 -161.0263450256272,-90.36539721156937 -160.35647204457618,-87.86539721155332 -158.52634502566914,-86.03527019260383 -156.02634502566863,-85.36539721149481" stroke="#ffa500" stroke-linecap="round" stroke-linejoin="round"/><polyline fill="none" points="-248.49260723670204,-104.74834451005592 -245.99260723668598,-105.41821749110693 -244.1624802177365,-107.24834451001395 -243.49260723662746,-109.74834451001446 -244.16248021767848,-112.24834451003052 -245.9926072365855,-114.07847152898 -248.49260723658603,-114.74834451008904 -250.99260723660208,-114.07847152903803 -252.82273425555158,-112.248344510131 -253.4926072366606,-109.7483445101305 -252.8227342556096,-107.24834451011444 -250.99260723670255,-105.41821749116494 -248.49260723670204,-104.7483445100559" stroke="#00f" stroke-linecap="round" stroke-linejoin="round"/><polyline fill="none" points="-172.95487149364726,-88.12623017897135 -170.4548714936312,-88.79610316002237 -168.6247444746817,-90.62623017892939 -167.95487149357268,-93.1262301789299 -168.6247444746237,-95.62623017894596 -170.4548714935307,-97.45635719789546 -172.95487149353121,-98.1262301790045 -175.45487149354727,-97.45635719795348 -177.28499851249677,-95.62623017904646 -177.9548714936058,-93.12623017904595 -177.28499851255478,-90.62623017902989 -175.45487149364777,-88.79610316008039 -172.95487149364726,-88.12623017897135" stroke="#00f" stroke-linecap="round" stroke-linejoin="round"/><polyline fill="none" points="-120.10311505617446,-36.791485997879086 -117.6031150561584,-37.4613589789301 -115.7729880372089,-39.29148599783712 -115.10311505609987,-41.79148599783763 -115.77298803715088,-44.29148599785369 -117.6031150560579,-46.12161301680319 -120.10311505605841,-46.791485997912226 -122.60311505607447,-46.12161301686121 -124.43324207502397,-44.29148599795419 -125.103115056133,-41.79148599795368 -124.43324207508199,-39.29148599793762 -122.60311505617497,-37.46135897898812 -120.10311505617446,-36.791485997879086" stroke="#ffa500" stroke-linecap="round" stroke-linejoin="round"/><polyline fill="none" points="-182.4830785987735,-67.52149754781033 -179.98307859875743,-68.19137052886134 -178.15295157980793,-70.02149754776836 -177.48307859869888,-72.52149754776887 -178.1529515797499,-75.02149754778493 -179.9830785986569,-76.85162456673443 -182.4830785986574,-77.52149754784347 -184.98307859867347,-76.85162456679245 -186.81320561762297,-75.02149754788543 -187.48307859873202,-72.52149754788492 -186.813205617681,-70.02149754786886 -184.983078598774,-68.19137052891936 -182.4830785987735,-67.52149754781033" stroke="#ffa500" stroke-linecap="round" stroke-linejoin="round"/><polyline fill="none" points="-203.00103723999396,-25.756565543122207 -200.5010372399779,-26.426438524173218 -198.6709102210284,-28.256565543080235 -198.00103723991936,-30.756565543080743 -198.67091022097037,-33.2565655430968 -200.50103723987738,-35.086692562046295 -203.0010372398779,-35.75656554315534 -205.50103723989395,-35.08669256210433 -207.33116425884344,-33.25656554319732 -208.0010372399525,-30.75656554319681 -207.33116425890148,-28.256565543180752 -205.50103723999447,-26.426438524231255 -203.00103723999396,-25.75656554312221" stroke="#ffa500" stroke-linecap="round" stroke-linejoin="round"/><polyline fill="none" points="-187.1078398989593,-87.73848481698558 -184.60783989894324,-88.40835779803659 -182.77771287999374,-90.23848481694361 -182.1078398988847,-92.73848481694412 -182.7777128799357,-95.23848481696018 -184.6078398988427,-97.06861183590968 -187.10783989884322,-97.73848481701873 -189.60783989885928,-97.06861183596772 -191.43796691780878,-95.23848481706071 -192.10783989891783,-92.7384848170602 -191.43796691786682,-90.23848481704414 -189.6078398989598,-88.40835779809464 -187.1078398989593,-87.73848481698559" stroke="#00f" stroke-linecap="round" stroke-linejoin="round"/><polyline fill="none" points="-91.44136023216302,41.42630778371777 -88.94136023214696,40.75643480266676 -87.11123321319747,38.926307783759746 -86.44136023208841,36.426307783759235 -87.11123321313941,33.92630778374318 -88.94136023204642,32.09618076479367 -91.44136023204693,31.426307783684624 -93.94136023206299,32.09618076473563 -95.77148725101249,33.92630778364264 -96.44136023212154,36.42630778364315 -95.77148725107054,38.92630778365921 -93.94136023216353,40.756434802608716 -91.44136023216302,41.42630778371777" stroke="#00f" stroke-linecap="round" stroke-linejoin="round"/><polyline fill="none" points="-179.4963776164451,-3.5217769832809243 -176.99637761642904,-4.191649964331928 -175.16625059747955,-6.02177698323894 -174.4963776163705,-8.521776983239448 -175.1662505974215,-11.02177698325551 -176.99637761632852,-12.851904002205014 -179.49637761632903,-13.521776983314066 -181.9963776163451,-12.851904002263064 -183.82650463529458,-11.021776983356052 -184.49637761640363,-8.521776983355544 -183.82650463535262,-6.021776983339482 -181.9963776164456,-4.191649964389976 -179.4963776164451,-3.5217769832809243" stroke="#ffa500" stroke-linecap="round" stroke-linejoin="round"/><polyline fill="none" points="-213.7525987571501,-80.87398478160284 -211.25259875713405,-81.54385776265384 -209.42247173818456,-83.37398478156085 -208.7525987570755,-85.87398478156136 -209.42247173812652,-88.37398478157742 -211.25259875703352,-90.20411180052693 -213.75259875703404,-90.87398478163598 -216.2525987570501,-90.20411180058498 -218.0827257759996,-88.37398478167798 -218.75259875710864,-85.87398478167746 -218.08272577605763,-83.3739847816614 -216.25259875715062,-81.5438577627119 -213.7525987571501,-80.87398478160284" stroke="#008000" stroke-linecap="round" stroke-linejoin="round"/><polyline fill="none" points="-243.59575179681698,-92.71547448967515 -241.09575179680093,-93.38534747072615 -239.26562477785143,-95.21547448963315 -238.59575179674238,-97.71547448963366 -239.26562477779336,-100.21547448964972 -241.09575179670037,-102.04560150859923 -243.59575179670088,-102.71547448970828 -246.09575179671694,-102.04560150865728 -247.92587881566644,-100.21547448975028 -248.5957517967755,-97.71547448974977 -247.9258788157245,-95.21547448973371 -246.0957517968175,-93.3853474707842 -243.59575179681698,-92.71547448967515" stroke="#ffa500" stroke-linecap="round" stroke-linejoin="round"/><polyline fill="none" points="276.2806230425122,-134.80192700249904 278.7806230425283,-135.47179998355003 280.6107500614778,-137.30192700245703 281.28062304258685,-139.80192700245755 280.61075006153584,-142.3019270024736 278.7806230426288,-144.13205402142313 276.2806230426283,-144.80192700253218 273.7806230426122,-144.1320540214812 271.9504960236627,-142.3019270025742 271.28062304255366,-139.80192700257368 271.95049602360467,-137.30192700255762 273.7806230425117,-135.4717999836081 276.2806230425122,-134.80192700249904" stroke="#ffa500" stroke-linecap="round" stroke-linejoin="round"/></svg>