<?xml version="1.0" ?><!DOCTYPE svg  PUBLIC '-//W3C//DTD SVG 1.1//EN'  'http://www.w3.org/Graphics/SVG/1.1/DTD/svg11.dtd'><svg height="281.000" viewBox="-283.000 -170.000 604.000 281.000" width="604.000" xmlns="http://www.w3.org/2000/svg"><line fill="none" stroke="none" stroke-linecap="round" stroke-width="2.0" x1="0.0" x2="0.0" y1="0.0" y2="0.0"/><polygon fill="none" fill-rule="evenodd" points="0.0,0.0 0.0,0.0 0.0,0.0" stroke-linejoin="round"/><polyline fill="none" points="-233.72632579736458,-88.36993126221365 -231.22632579734756,-89.0398042432631 -229.39619877839644,-90.86993126216925 -228.72632579728557,-93.3699312621698 -229.39619877833502,-95.86993126218682 -231.22632579724117,-97.70005828113794 -233.72632579724174,-98.36993126224881 -236.22632579725877,-97.70005828119936 -238.05645281620988,-95.86993126229322 -238.72632579732075,-93.36993126229267 -238.0564528162713,-90.86993126227564 -236.22632579736515,-89.03980424332453 -233.72632579736458,-88.36993126221364" stroke="#00f" stroke-linecap="round" stroke-linejoin="round"/><polyline fill="none" points="-235.62993192570835,-100.5926903230282 -233.12993192569132,-101.26256330407764 -231.2998049067402,-103.09269032298378 -230.62993192562934,-105.59269032298434 -231.2998049066788,-108.09269032300136 -233.12993192558494,-109.92281734195248 -235.6299319255855,-110.59269032306337 -238.12993192560253,-109.92281734201391 -239.96005894455365,-108.09269032310777 -240.62993192566452,-105.59269032310722 -239.96005894461507,-103.0926903230902 -238.12993192570892,-101.26256330413908 -235.62993192570835,-100.5926903230282" stroke="#008000" stroke-linecap="round" stroke-linejoin="round"/><polyline fill="none" points="-165.3669390891147,-95.50295218214954 -162.86693908909768,-96.172825163199 -161.03681207014657,-98.00295218210513 -160.3669390890357,-100.50295218210569 -161.03681207008515,-103.00295218212271 -162.8669390889913,-104.83307920107383 -165.36693908899187,-105.50295218218471 -167.8669390890089,-104.83307920113528 -169.69706610796,-103.00295218222914 -170.36693908907088,-100.50295218222858 -169.69706610802143,-98.00295218221156 -167.86693908911528,-96.17282516326044 -165.3669390891147,-95.50295218214956" stroke="#ffa500" stroke-linecap="round" stroke-linejoin="round"/><polyline fill="none" points="-228.17087087222342,-104.78850629860042 -225.6708708722064,-105.45837927964986 -223.84074385325528,-107.288506298556 -223.1708708721444,-109.78850629855656 -223.84074385319386,-112.28850629857358 -225.6708708721,-114.1186333175247 -228.17087087210058,-114.78850629863558 -230.6708708721176,-114.11863331758614 -232.50099789106872,-112.28850629868 -233.17087087217962,-109.78850629867945 -232.50099789113017,-107.28850629866243 -230.67087087222404,-105.45837927971131 -228.17087087222347,-104.78850629860042" stroke="#008000" stroke-linecap="round" stroke-linejoin="round"/><polyline fill="none" points="-242.73320813705294,-79.93126159533493 -240.23320813703592,-80.60113457638437 -238.4030811180848,-82.43126159529051 -237.7332081369739,-84.93126159529106 -238.40308111802335,-87.43126159530809 -240.23320813692948,-89.2613886142592 -242.73320813693005,-89.93126159537009 -245.23320813694707,-89.26138861432065 -247.0633351558982,-87.43126159541451 -247.7332081370091,-84.93126159541396 -247.06333515595963,-82.43126159539693 -245.2332081370535,-80.60113457644582 -242.73320813705294,-79.93126159533493" stroke="#00f" stroke-linecap="round" stroke-linejoin="round"/><polyline fill="none" points="-240.337496512378,-130.7127801794703 -237.83749651236099,-131.38265316051974 -236.00736949340987,-133.21278017942586 -235.33749651229897,-135.71278017942643 -236.0073694933484,-138.21278017944346 -237.83749651225452,-140.04290719839457 -240.3374965122551,-140.71278017950547 -242.8374965122721,-140.04290719845605 -244.66762353122323,-138.21278017954992 -245.33749651233413,-135.71278017954936 -244.6676235312847,-133.21278017953233 -242.83749651237858,-131.3826531605812 -240.337496512378,-130.71278017947031" stroke="#00f" stroke-linecap="round" stroke-linejoin="round"/><polyline fill="none" points="279.90081168969976,-142.32104779612354 282.4008116897168,-142.99092077717296 284.23093870866796,-144.82104779607909 284.90081168977883,-147.32104779607965 284.2309387087294,-149.82104779609668 282.4008116898233,-151.6511748150478 279.9008116898227,-152.3210477961587 277.40081168980566,-151.65117481510927 275.5706846708545,-149.82104779620315 274.90081168974365,-147.32104779620258 275.57068467079307,-144.82104779618555 277.4008116896992,-142.99092077723444 279.90081168969976,-142.32104779612354" stroke="#ffa500" stroke-linecap="round" stroke-linejoin="round"/><polyline fill="none" points="-266.5921446886516,-110.27552625929235 -264.09214468863456,-110.94539924034179 -262.2620176696834,-112.77552625924793 -261.59214468857255,-115.27552625924848 -262.26201766962197,-117.7755262592655 -264.0921446885281,-119.60565327821664 -266.59214468852866,-120.27552625932753 -269.0921446885457,-119.6056532782781 -270.92227170749686,-117.77552625937196 -271.59214468860773,-115.27552625937139 -270.9222717075583,-112.77552625935436 -269.0921446886522,-110.94539924040323 -266.5921446886516,-110.27552625929233" stroke="#00f" stroke-linecap="round" stroke-linejoin="round"/><polyline fill="none" points="73.26326633964707,-3.1424318012558423 75.76326633966411,-3.8123047823052727 77.59339335861524,-5.642431801211407 78.26326633972614,-8.142431801211968 77.59339335867672,-10.642431801229 75.76326633977058,-12.472558820180131 73.26326633977001,-13.14243180129103 70.76326633975297,-12.472558820241602 68.93313932080184,-10.64243180133547 68.26326633969094,-8.142431801334908 68.93313932074037,-5.642431801317875 70.7632663396465,-3.812304782366742 73.26326633964707,-3.1424318012558423" stroke="#ffa500" stroke-linecap="round" stroke-linejoin="round"/><polyline fill="none" points="303.70011891348616,-148.558112242879 306.2001189135032,-149.2279852239284 308.03024593245436,-151.05811224283454 308.7001189135653,-153.5581122428351 308.03024593251587,-156.05811224285213 306.20011891360974,-157.88823926180328 303.7001189136092,-158.55811224291418 301.2001189135921,-157.88823926186475 299.369991894641,-156.05811224295863 298.70011891353005,-153.55811224295806 299.36999189457947,-151.05811224294104 301.2001189134856,-149.2279852239899 303.70011891348616,-148.558112242879" stroke="#00f" stroke-linecap="round" stroke-linejoin="round"/><polyline fill="none" points="-227.16037257833773,-116.89788512959443 -224.6603725783207,-117.56775811064385 -222.83024555936956,-119.39788512954998 -222.16037257825866,-121.89788512955053 -222.83024555930808,-124.39788512956757 -224.6603725782142,-126.2280121485187 -227.16037257821478,-126.8978851296296 -229.6603725782318,-126.22801214858018 -231.49049959718295,-124.39788512967405 -232.16037257829385,-121.89788512967348 -231.49049959724442,-119.39788512965644 -229.6603725783383,-117.56775811070531 -227.16037257833773,-116.89788512959441" stroke="#00f" stroke-linecap="round" stroke-linejoin="round"/><polyline fill="none" points="-156.019536495229,-44.57004032255191 -153.51953649521198,-45.239913303601334 -151.68940947626083,-47.07004032250747 -151.01953649514994,-49.57004032250803 -151.68940947619936,-52.07004032252507 -153.51953649510548,-53.900167341476205 -156.01953649510605,-54.57004032258711 -158.51953649512308,-53.90016734153769 -160.34966351407422,-52.070040322631556 -161.01953649518512,-49.570040322630994 -160.3496635141357,-47.070040322613956 -158.51953649522957,-45.23991330366282 -156.019536495229,-44.57004032255191" stroke="#00f" stroke-linecap="round" stroke-linejoin="round"/><polyline fill="none" points="-182.78391543307896,-105.96855219783315 -180.28391543306194,-106.63842517888257 -178.4537884141108,-108.4685521977887 -177.7839154329999,-110.96855219778926 -178.4537884140493,-113.4685521978063 -180.28391543295544,-115.29867921675745 -182.783915432956,-115.96855219786836 -185.28391543297303,-115.29867921681894 -187.11404245192418,-113.46855219791281 -187.78391543303508,-110.96855219791225 -187.11404245198565,-108.4685521978952 -185.28391543307953,-106.63842517894406 -182.78391543307896,-105.96855219783315" stroke="#ffa500" stroke-linecap="round" stroke-linejoin="round"/><polyline fill="none" points="-166.7106635108293,7.7771715204726855 -164.21066351081225,7.107298539423267 -162.3805364918611,5.27717152051714 -161.7106635107502,2.777171520516578 -162.38053649179963,0.2771715204995391 -164.21066351070576,-1.5529554984516045 -166.71066351070633,-2.2228284795625166 -169.21066351072335,-1.552955498513099 -171.0407905296745,0.2771715203930276 -171.7106635107854,2.7771715203935896 -171.04079052973597,5.277171520410629 -169.21066351082985,7.107298539361774 -166.71066351082928,7.777171520472687" stroke="#ffa500" stroke-linecap="round" stroke-linejoin="round"/><polyline fill="none" points="-171.30322556316645,-70.63400170070565 -168.8032255631494,-71.30387468175508 -166.97309854419825,-73.1340017006612 -166.30322556308732,-75.63400170066177 -166.97309854413675,-78.13400170067881 -168.80322556304287,-79.96412871962995 -171.30322556304344,-80.63400170074087 -173.8032255630605,-79.96412871969146 -175.63335258201164,-78.13400170078533 -176.30322556312257,-75.63400170078476 -175.63335258207314,-73.13400170076773 -173.80322556316702,-71.30387468181658 -171.30322556316645,-70.63400170070567" stroke="#ffa500" stroke-linecap="round" stroke-linejoin="round"/><polyline fill="none" points="-231.61086968919273,-128.27480108793736 -229.11086968917567,-128.94467406898679 -227.28074267022453,-130.7748010878929 -226.6108696891136,-133.27480108789348 -227.28074267016302,-135.77480108791053 -229.11086968906915,-137.60492810686168 -231.61086968906972,-138.2748010879726 -234.11086968908677,-137.60492810692318 -235.94099670803791,-135.77480108801706 -236.61086968914884,-133.2748010880165 -235.94099670809942,-130.77480108799944 -234.1108696891933,-128.9446740690483 -231.61086968919273,-128.27480108793736" stroke="#00f" stroke-linecap="round" stroke-linejoin="round"/><polyline fill="none" points="-207.75007470922174,-79.2990859935525 -205.25007470920468,-79.9689589746019 -203.41994769025354,-81.79908599350803 -202.7500747091426,-84.29908599350858 -203.41994769019203,-86.79908599352562 -205.25007470909816,-88.62921301247677 -207.75007470909873,-89.29908599358768 -210.25007470911578,-88.62921301253827 -212.08020172806692,-86.79908599363215 -212.75007470917785,-84.29908599363159 -212.08020172812843,-81.79908599361455 -210.2500747092223,-79.96895897466341 -207.75007470922174,-79.29908599355248" stroke="#00f" stroke-linecap="round" stroke-linejoin="round"/><polyline fill="none" points="-190.52734169512874,20.138914019162502 -188.0273416951117,19.469041038113094 -186.19721467616054,17.63891401920697 -185.5273416950496,15.13891401920641 -186.19721467609904,12.638914019189366 -188.02734169500516,10.808787000238214 -190.52734169500573,10.138914019127292 -193.02734169502278,10.8087870001767 -194.85746871397393,12.638914019082822 -195.52734169508486,15.138914019083384 -194.85746871403546,17.63891401910043 -193.02734169512934,19.469041038051582 -190.52734169512877,20.138914019162506" stroke="#ffa500" stroke-linecap="round" stroke-linejoin="round"/><polyline fill="none" points="-240.07520625376554,-132.69043595182927 -237.5752062537485,-133.36030893287867 -235.74507923479734,-135.1904359517848 -235.07520625368642,-137.69043595178536 -235.7450792347358,-140.1904359518024 -237.57520625364194,-142.02056297075356 -240.0752062536425,-142.6904359518645 -242.57520625365956,-142.0205629708151 -244.4053332726107,-140.19043595190897 -245.07520625372163,-137.6904359519084 -244.40533327267224,-135.19043595189135 -242.5752062537661,-133.3603089329402 -240.07520625376554,-132.69043595182927" stroke="#00f" stroke-linecap="round" stroke-linejoin="round"/><polyline fill="none" points="48.82816686537449,-11.534226421225608 51.32816686539154,-12.204099402275013 53.1582938843427,-14.034226421181131 53.828166865453625,-16.534226421181693 53.15829388440422,-19.03422642119874 51.328166865498105,-20.864353440149895 48.82816686549754,-21.534226421260822 46.3281668654805,-20.864353440211417 44.49803984652934,-19.0342264213053 43.82816686541841,-16.534226421304737 44.49803984646781,-14.03422642128769 46.32816686537393,-12.204099402336531 48.82816686537449,-11.534226421225602" stroke="#00f" stroke-linecap="round" stroke-linejoin="round"/><polyline fill="none" points="-154.55005707018333,-63.39372290983887 -152.05005707016628,-64.06359589088828 -150.21993005121513,-65.89372290979439 -149.5500570701042,-68.39372290979495 -150.2199300511536,-70.893722909812 -152.05005707005972,-72.72384992876316 -154.5500570700603,-73.39372290987409 -157.05005707007734,-72.72384992882469 -158.88018408902852,-70.89372290991858 -159.55005707013945,-68.39372290991801 -158.88018408909005,-65.89372290990096 -157.05005707018393,-64.0635958909498 -154.55005707018336,-63.393722909838864" stroke="#ffa500" stroke-linecap="round" stroke-linejoin="round"/><polyline fill="none" points="-258.2715481363731,-116.21362554350645 -255.77154813635605,-116.88349852455585 -253.94142111740487,-118.71362554346196 -253.27154813629394,-121.21362554346253 -253.94142111734334,-123.71362554347958 -255.77154813624946,-125.54375256243074 -258.27154813625003,-126.21362554354167 -260.7715481362671,-125.54375256249227 -262.60167515521823,-123.71362554358616 -263.27154813632916,-121.2136255435856 -262.60167515527974,-118.71362554356854 -260.7715481363736,-116.88349852461738 -258.27154813637304,-116.21362554350645" stroke="#ffa500" stroke-linecap="round" stroke-linejoin="round"/><polyline fill="none" points="-92.34149264627372,-60.529400099535536 -89.84149264625667,-61.19927308058494 -88.01136562730551,-63.029400099491056 -87.34149264619457,-65.52940009949162 -88.01136562724396,-68.02940009950868 -89.84149264615007,-69.85952711845984 -92.34149264615064,-70.52940009957078 -94.8414926461677,-69.85952711852138 -96.67161966511885,-68.02940009961527 -97.3414926462298,-65.52940009961472 -96.6716196651804,-63.029400099597666 -94.84149264627429,-61.1992730806465 -92.34149264627374,-60.529400099535565" stroke="#ffa500" stroke-linecap="round" stroke-linejoin="round"/><polyline fill="none" points="-229.709216745678,-90.39258400082095 -227.20921674566094,-91.06245698187034 -225.37908972670976,-92.89258400077645 -224.70921674559884,-95.39258400077702 -225.37908972664823,-97.89258400079407 -227.20921674555436,-99.72271101974523 -229.70921674555493,-100.39258400085617 -232.20921674557198,-99.72271101980678 -234.03934376452315,-97.89258400090067 -234.70921674563408,-95.39258400090011 -234.0393437645847,-92.89258400088306 -232.20921674567856,-91.06245698193189 -229.709216745678,-90.39258400082095" stroke="#00f" stroke-linecap="round" stroke-linejoin="round"/><polyline fill="none" points="-116.03066391178476,81.45742707618032 -113.5306639117677,80.78755409513093 -111.70053689281653,78.95742707622482 -111.03066391170559,76.45742707622425 -111.70053689275498,73.9574270762072 -113.5306639116611,72.12730005725602 -116.03066391166166,71.45742707614508 -118.53066391167872,72.12730005719447 -120.36079093062989,73.95742707610059 -121.03066391174083,76.45742707610115 -120.36079093069144,78.95742707611821 -118.53066391178533,80.78755409506938 -116.03066391178476,81.45742707618032" stroke="#ffa500" stroke-linecap="round" stroke-linejoin="round"/><polyline fill="none" points="-137.8162230533889,-55.68598593051129 -135.31622305337186,-56.35585891156069 -133.48609603442068,-58.1859859304668 -132.81622305330973,-60.68598593046736 -133.48609603435912,-63.185985930484414 -135.31622305326522,-65.01611294943558 -137.8162230532658,-65.68598593054652 -140.31622305328284,-65.01611294949713 -142.14635007223401,-63.185985930591016 -142.81622305334497,-60.685985930590455 -142.14635007229558,-58.1859859305734 -140.31622305338948,-56.35585891162223 -137.8162230533889,-55.68598593051128" stroke="#ffa500" stroke-linecap="round" stroke-linejoin="round"/><polyline fill="none" points="283.5086877100705,-148.95259754316325 286.00868771008754,-149.62247052421264 287.8388147290387,-151.45259754311874 288.5086877101496,-153.9525975431193 287.83881472910025,-156.45259754313636 286.0086877101941,-158.28272456208754 283.50868771019356,-158.9525975431985 281.0086877101765,-158.2827245621491 279.1785606912253,-156.452597543243 278.5086877101144,-153.95259754324243 279.17856069116374,-151.45259754322538 281.00868771006986,-149.6224705242742 283.50868771007043,-148.95259754316325" stroke="#ffa500" stroke-linecap="round" stroke-linejoin="round"/><polyline fill="none" points="-181.51924648379318,-103.45934620639882 -179.01924648377613,-104.1292191874482 -177.18911946482496,-105.95934620635431 -176.519246483714,-108.45934620635488 -177.1891194647634,-110.95934620637193 -179.0192464836695,-112.7894732253231 -181.51924648367006,-113.45934620643406 -184.0192464836871,-112.78947322538468 -185.8493735026383,-110.95934620647857 -186.51924648374924,-108.459346206478 -185.84937350269985,-105.95934620646095 -184.01924648379375,-104.12921918750978 -181.51924648379318,-103.45934620639882" stroke="#ffa500" stroke-linecap="round" stroke-linejoin="round"/><polyline fill="none" points="-123.62280798637012,5.435529112355731 -121.12280798635307,4.765656131306347 -119.29268096740189,2.93552911240024 -118.62280798629094,0.4355291123996792 -119.29268096734032,-2.064470887617379 -121.12280798624643,-3.894597906568558 -123.62280798624698,-4.56447088767951 -126.12280798626404,-3.8945979066301284 -127.95293500521521,-2.0644708877240223 -128.62280798632617,0.435529112276539 -127.95293500527679,2.9355291122935987 -126.12280798637067,4.7656561312447785 -123.6228079863701,5.4355291123557326" stroke="#ffa500" stroke-linecap="round" stroke-linejoin="round"/><polyline fill="none" points="-195.69096838705897,-69.29963455414351 -193.19096838704192,-69.96950753519289 -191.36084136809075,-71.799634554099 -190.6909683869798,-74.29963455409955 -191.36084136802918,-76.79963455411661 -193.19096838693528,-78.62976157306778 -195.69096838693585,-79.29963455417874 -198.1909683869529,-78.62976157312936 -200.02109540590408,-76.79963455422325 -200.69096838701503,-74.29963455422269 -200.02109540596567,-71.79963455420562 -198.19096838705957,-69.96950753525444 -195.690968387059,-69.29963455414348" stroke="#ffa500" stroke-linecap="round" stroke-linejoin="round"/><polyline fill="none" points="-89.18984615992413,-51.2926257840667 -86.68984615990706,-51.96249876511608 -84.85971914095587,-53.792625784022185 -84.18984615984492,-56.292625784022746 -84.8597191408943,-58.79262578403981 -86.6898461598004,-60.62275280299099 -89.18984615980096,-61.29262578410194 -91.68984615981803,-60.62275280305256 -93.51997317876922,-58.79262578414646 -94.18984615988018,-56.2926257841459 -93.5199731788308,-53.79262578412884 -91.6898461599247,-51.96249876517765 -89.18984615992413,-51.292625784066686" stroke="#ffa500" stroke-linecap="round" stroke-linejoin="round"/><polyline fill="none" points="-141.15130994395074,-74.87723395324043 -138.65130994393368,-75.54710693428981 -136.8211829249825,-77.37723395319591 -136.15130994387155,-79.87723395319648 -136.82118292492092,-82.37723395321355 -138.65130994382702,-84.20736097216474 -141.15130994382758,-84.87723395327569 -143.65130994384464,-84.20736097222631 -145.4814369627958,-82.37723395332021 -146.15130994390677,-79.87723395331965 -145.4814369628574,-77.37723395330258 -143.6513099439513,-75.54710693435139 -141.15130994395074,-74.87723395324043" stroke="#00f" stroke-linecap="round" stroke-linejoin="round"/><polyline fill="none" points="-195.65897857974664,13.611208835285012 -193.1589785797296,12.94133585423564 -191.32885156077842,11.111208835329538 -190.65897857966746,8.611208835328977 -191.32885156071683,6.1112088353119125 -193.15897857962293,4.281081816360724 -195.6589785796235,3.6112088352497604 -198.15897857964055,4.2810818162991335 -199.98910559859175,6.111208835205234 -200.6589785797027,8.611208835205796 -199.98910559865334,11.111208835222861 -198.15897857974724,12.941335854174051 -195.65897857974667,13.611208835285016" stroke="#00f" stroke-linecap="round" stroke-linejoin="round"/><polyline fill="none" points="-80.48401022423418,41.06701340380851 -77.98401022421712,40.397140422759136 -76.15388320526593,38.56701340385304 -75.48401022415496,36.06701340385248 -76.15388320520432,33.56701340383541 -77.98401022411042,31.73688638488422 -80.48401022411099,31.067013403773252 -82.98401022412806,31.736886384822622 -84.81413724307924,33.56701340372872 -85.48401022419021,36.067013403729284 -84.81413724314085,38.56701340374635 -82.98401022423475,40.39714042269754 -80.4840102242342,41.06701340380851" stroke="#ffa500" stroke-linecap="round" stroke-linejoin="round"/><polyline fill="none" points="-69.4298328090877,50.59273430641715 -66.92983280907063,49.92286132536778 -65.09970579011944,48.092734306461686 -64.42983280900847,45.592734306461125 -65.09970579005784,43.09273430644406 -66.92983280896394,41.26260728749286 -69.4298328089645,40.59273430638189 -71.92983280898157,41.26260728743126 -73.75995982793276,43.092734306337356 -74.42983280904373,45.59273430633792 -73.75995982799436,48.092734306354984 -71.92983280908827,49.92286132530618 -69.4298328090877,50.59273430641715" stroke="#ffa500" stroke-linecap="round" stroke-linejoin="round"/><polyline fill="none" points="294.2745954439875,-148.6249570701007 296.77459544400455,-149.29483005115006 298.60472246295575,-151.12495707005615 299.27459544406673,-153.62495707005672 298.60472246301737,-156.1249570700738 296.77459544411124,-157.955084089025 294.2745954441107,-158.624957070136 291.7745954440936,-157.95508408908663 289.9444684251424,-156.12495707018053 289.27459544403143,-153.62495707017996 289.9444684250808,-151.12495707016288 291.77459544398687,-149.29483005121168 294.27459544398744,-148.6249570701007" stroke="#ffa500" stroke-linecap="round" stroke-linejoin="round"/><polyline fill="none" points="-163.3534261341834,15.246754519811955 -160.8534261341663,14.57688153876259 -159.0232991152151,12.746754519856495 -158.35342613410413,10.246754519855934 -159.0232991151535,7.746754519838864 -160.8534261340596,5.916627500887666 -163.35342613406016,5.246754519776691 -165.85342613407724,5.9166275008260545 -167.68355315302844,7.74675451973215 -168.35342613413943,10.246754519732711 -167.68355315309006,12.746754519749782 -165.85342613418396,14.576881538700981 -163.3534261341834,15.246754519811958" stroke="#ffa500" stroke-linecap="round" stroke-linejoin="round"/><polyline fill="none" points="54.80024985379719,-3.4400067041413234 57.300249853814265,-4.109879685190685 59.13037687276547,-5.940006704096779 59.800249853876444,-8.44000670409734 59.130376872827085,-10.940006704114412 57.30024985392099,-12.770133723065612 54.80024985392043,-13.44000670417659 52.30024985390335,-12.770133723127229 50.47012283495215,-10.940006704221135 49.80024985384117,-8.440006704220574 50.47012283489053,-5.940006704203501 52.30024985379662,-4.1098796852523 54.80024985379718,-3.4400067041413207" stroke="#ffa500" stroke-linecap="round" stroke-linejoin="round"/><polyline fill="none" points="293.7026151485525,-132.25343092307608 296.2026151485696,-132.92330390412545 298.0327421675208,-134.75343092303154 298.70261514863176,-137.2534309230321 298.0327421675824,-139.7534309230492 296.20261514867633,-141.5835579420004 293.70261514867576,-142.25343092311138 291.2026151486587,-141.58355794206201 289.3724881297075,-139.75343092315592 288.7026151485965,-137.25343092315535 289.3724881296459,-134.75343092313827 291.20261514855196,-132.92330390418707 293.7026151485525,-132.25343092307608" stroke="#ffa500" stroke-linecap="round" stroke-linejoin="round"/><polyline fill="none" points="70.20213028441465,12.234382215785175 72.70213028443172,11.564509234735818 74.53225730338292,9.734382215829726 75.2021302844939,7.234382215829164 74.53225730344455,4.73438221581209 72.70213028453846,2.904255196860885 70.20213028453789,2.234382215749902 67.70213028452082,2.904255196799258 65.87200326556962,4.734382215705349 65.20213028445863,7.23438221570591 65.87200326550798,9.734382215722984 67.70213028441408,11.56450923467419 70.20213028441464,12.234382215785175" stroke="#ffa500" stroke-linecap="round" stroke-linejoin="round"/><polyline fill="none" points="-59.58103928344945,-61.556813174324716 -57.081039283432375,-62.22668615537407 -55.250912264481165,-64.05681317428017 -54.58103928337018,-66.55681317428073 -55.25091226441953,-69.05681317429782 -57.08103928332562,-70.88694019324902 -59.581039283326184,-71.55681317436 -62.08103928334326,-70.88694019331065 -63.91116630229447,-69.05681317440457 -64.58103928340546,-66.556813174404 -63.91116630235611,-64.05681317438692 -62.08103928345002,-62.22668615543571 -59.581039283449456,-61.55681317432472" stroke="#ffa500" stroke-linecap="round" stroke-linejoin="round"/><polyline fill="none" points="-209.42448329816568,-106.90938820877585 -206.9244832981486,-107.5792611898252 -205.0943562791974,-109.40938820873129 -204.42448329808641,-111.90938820873185 -205.09435627913578,-114.40938820874894 -206.92448329804188,-116.23951522770015 -209.42448329804245,-116.90938820881114 -211.92448329805953,-116.23951522776179 -213.75461031701073,-114.4093882088557 -214.42448329812171,-111.90938820885513 -213.75461031707238,-109.40938820883805 -211.92448329816628,-107.57926118988684 -209.4244832981657,-106.90938820877585" stroke="#ffa500" stroke-linecap="round" stroke-linejoin="round"/><polyline fill="none" points="-58.11922750065947,-52.16380568260303 -55.619227500642396,-52.83367866365238 -53.789100481691186,-54.66380568255847 -53.119227500580195,-57.16380568255903 -53.789100481629546,-59.66380568257611 -55.61922750053564,-61.49393270152732 -58.1192275005362,-62.16380568263831 -60.61922750055328,-61.49393270158896 -62.44935451950449,-59.66380568268287 -63.11922750061548,-57.16380568268231 -62.44935451956613,-54.66380568266523 -60.61922750066004,-52.83367866371402 -58.11922750065948,-52.16380568260303" stroke="#ffa500" stroke-linecap="round" stroke-linejoin="round"/><polyline fill="none" points="-237.30674697740795,-87.4681779069819 -234.80674697739087,-88.13805088803124 -232.97661995843967,-89.96817790693733 -232.3067469773287,-92.46817790693788 -232.97661995837802,-94.96817790695496 -234.80674697728412,-96.79830492590618 -237.3067469772847,-97.46817790701718 -239.80674697730177,-96.79830492596783 -241.63687399625297,-94.96817790706174 -242.30674697736396,-92.46817790706119 -241.63687399631462,-89.96817790704411 -239.80674697740852,-88.13805088809289 -237.30674697740795,-87.4681779069819" stroke="#008000" stroke-linecap="round" stroke-linejoin="round"/><polyline fill="none" points="-189.58126483367494,-22.99188269591083 -187.08126483365785,-23.661755676960176 -185.25113781470665,-25.491882695866263 -184.58126483359567,-27.991882695866824 -185.251137814645,-30.491882695883906 -187.0812648335511,-32.32200971483512 -189.58126483355167,-32.99188269594612 -192.08126483356875,-32.32200971489677 -193.91139185251998,-30.49188269599069 -194.58126483363097,-27.991882695990128 -193.91139185258163,-25.491882695973047 -192.08126483367553,-23.66175567702183 -189.58126483367496,-22.99188269591083" stroke="#ffa500" stroke-linecap="round" stroke-linejoin="round"/><polyline fill="none" points="-134.16149523484586,-45.01085265442738 -131.66149523482878,-45.680725635476726 -129.83136821587755,-47.51085265438281 -129.16149523476656,-50.01085265438337 -129.8313682158159,-52.51085265440045 -131.661495234722,-54.34097967335167 -134.16149523472257,-55.01085265446267 -136.66149523473965,-54.34097967341332 -138.49162225369088,-52.51085265450724 -139.1614952348019,-50.01085265450668 -138.49162225375255,-47.5108526544896 -136.66149523484646,-45.68072563553838 -134.1614952348459,-45.01085265442738" stroke="#ffa500" stroke-linecap="round" stroke-linejoin="round"/><polyline fill="none" points="-148.34855660839438,-33.719464842159304 -145.8485566083773,-34.38933782320864 -144.01842958942606,-36.219464842114725 -143.34855660831505,-38.719464842115286 -144.0184295893644,-41.21946484213237 -145.84855660827046,-43.04959186108359 -148.34855660827102,-43.71946484219459 -150.8485566082881,-43.04959186114525 -152.67868362723934,-41.21946484223917 -153.34855660835035,-38.71946484223861 -152.678683627301,-36.21946484222153 -150.84855660839494,-34.3893378232703 -148.34855660839438,-33.7194648421593" stroke="#ffa500" stroke-linecap="round" stroke-linejoin="round"/><polyline fill="none" points="-228.60657618623182,-31.857188625751057 -226.10657618621474,-32.527061606800395 -224.2764491672635,-34.35718862570648 -223.6065761861525,-36.85718862570704 -224.27644916720183,-39.35718862572412 -226.1065761861079,-41.187315644675344 -228.60657618610847,-41.85718862578635 -231.10657618612555,-41.18731564473701 -232.93670320507678,-39.35718862583093 -233.6065761861878,-36.85718862583037 -232.93670320513846,-34.35718862581328 -231.1065761862324,-32.527061606862055 -228.60657618623182,-31.85718862575105" stroke="#00f" stroke-linecap="round" stroke-linejoin="round"/><polyline fill="none" points="-235.1492526768112,-53.250007988677844 -232.6492526767941,-53.91988096972718 -230.81912565784287,-55.750007988633264 -230.14925267673186,-58.250007988633826 -230.8191256577812,-60.750007988650914 -232.64925267668727,-62.58013500760214 -235.14925267668784,-63.25000798871314 -237.64925267670492,-62.580135007663806 -239.47937969565615,-60.75000798875773 -240.14925267676716,-58.25000798875717 -239.47937969571782,-55.75000798874008 -237.64925267681176,-53.919880969788856 -235.1492526768112,-53.25000798867785" stroke="#00f" stroke-linecap="round" stroke-linejoin="round"/><polyline fill="none" points="-219.3721573436445,-59.38827674850589 -216.8721573436274,-60.05814972955522 -215.04203032467618,-61.888276748461294 -214.37215734356516,-64.38827674846186 -215.0420303246145,-66.88827674847894 -216.87215734352057,-68.71840376743017 -219.37215734352114,-69.38827674854119 -221.87215734353822,-68.71840376749185 -223.70228436248945,-66.88827674858577 -224.37215734360046,-64.3882767485852 -223.70228436255113,-61.88827674856811 -221.87215734364506,-60.05814972961688 -219.3721573436445,-59.38827674850587" stroke="#ffa500" stroke-linecap="round" stroke-linejoin="round"/><polyline fill="none" points="-129.0489862484997,8.763419852537602 -126.5489862484826,8.093546871488272 -124.71885922953138,6.263419852582195 -124.04898624842036,3.763419852581633 -124.7188592294697,1.2634198525645441 -126.54898624837578,-0.566707166386687 -129.04898624837634,-1.2365801474976998 -131.54898624839342,-0.5667071664483697 -133.37911326734465,1.2634198524577065 -134.04898624845566,3.7634198524582683 -133.37911326740632,6.263419852475359 -131.54898624850026,8.093546871426591 -129.0489862484997,8.763419852537606" stroke="#ffa500" stroke-linecap="round" stroke-linejoin="round"/><polyline fill="none" points="-75.58717789331386,48.17033801621172 -73.08717789329677,47.50046503516239 -71.25705087434554,45.670338016256316 -70.58717789323453,43.170338016255755 -71.25705087428385,40.67033801623867 -73.08717789318992,38.840210997287436 -75.58717789319049,38.17033801617642 -78.08717789320758,38.84021099722575 -79.91730491215881,40.67033801613183 -80.58717789326982,43.17033801613239 -79.9173049122205,45.67033801614948 -78.08717789331443,47.50046503510072 -75.58717789331386,48.17033801621174" stroke="#ffa500" stroke-linecap="round" stroke-linejoin="round"/><polyline fill="none" points="-186.71904499307385,-66.8018025459859 -184.21904499305677,-67.47167552703522 -182.38891797410554,-69.30180254594129 -181.71904499299453,-71.80180254594185 -182.38891797404386,-74.30180254595895 -184.21904499294993,-76.13192956491018 -186.7190449929505,-76.8018025460212 -189.21904499296758,-76.13192956497187 -191.0491720119188,-74.3018025460658 -191.71904499302983,-71.80180254606523 -191.0491720119805,-69.30180254604814 -189.21904499307442,-67.4716755270969 -186.71904499307385,-66.8018025459859" stroke="#00f" stroke-linecap="round" stroke-linejoin="round"/><polyline fill="none" points="-229.40493818239807,-90.91255473564541 -226.904938182381,-91.58242771669474 -225.07481116342976,-93.4125547356008 -224.40493818231874,-95.91255473560138 -225.07481116336808,-98.41255473561847 -226.90493818227415,-100.2426817545697 -229.40493818227472,-100.91255473568073 -231.9049381822918,-100.2426817546314 -233.73506520124303,-98.41255473572534 -234.40493818235404,-95.91255473572478 -233.73506520130474,-93.41255473570769 -231.90493818239867,-91.58242771675644 -229.4049381823981,-90.91255473564541" stroke="#00f" stroke-linecap="round" stroke-linejoin="round"/><polyline fill="none" points="-107.794895823737,96.03727243266577 -105.2948958237199,95.36739945161645 -103.46476880476865,93.53727243271038 -102.79489582365763,91.03727243270981 -103.46476880470695,88.53727243269272 -105.29489582361302,86.70714541374147 -107.79489582361359,86.03727243263044 -110.29489582363068,86.70714541367977 -112.12502284258193,88.53727243258584 -112.79489582369295,91.0372724325864 -112.12502284264363,93.5372724326035 -110.29489582373756,95.36739945155475 -107.794895823737,96.03727243266577" stroke="#ffa500" stroke-linecap="round" stroke-linejoin="round"/><polyline fill="none" points="-209.90693472145972,-60.19298619723318 -207.40693472144264,-60.8628591782825 -205.5768077024914,-62.69298619718857 -204.9069347213804,-65.19298619718913 -205.5768077024297,-67.69298619720622 -207.40693472133577,-69.52311321615747 -209.90693472133634,-70.1929861972685 -212.40693472135345,-69.52311321621917 -214.23706174030468,-67.6929861973131 -214.9069347214157,-65.19298619731254 -214.23706174036639,-62.69298619729544 -212.40693472146032,-60.862859178344195 -209.90693472145975,-60.19298619723317" stroke="#ffa500" stroke-linecap="round" stroke-linejoin="round"/><polyline fill="none" points="-235.53003207336488,-99.52305341599673 -233.03003207334777,-100.19292639704605 -231.19990505439654,-102.02305341595212 -230.5300320732855,-104.52305341595267 -231.1999050543348,-107.02305341596977 -233.03003207324087,-108.85318043492101 -235.53003207324144,-109.52305341603204 -238.03003207325855,-108.85318043498273 -239.8601590922098,-107.02305341607666 -240.53003207332085,-104.5230534160761 -239.86015909227154,-102.023053416059 -238.03003207336548,-100.19292639710775 -235.5300320733649,-99.52305341599673" stroke="#f00" stroke-linecap="round" stroke-linejoin="round"/><polyline fill="none" points="-188.40094582837452,-83.1764798710918 -185.9009458283574,-83.84635285214111 -184.07081880940615,-85.67647987104718 -183.4009458282951,-88.17647987104775 -184.07081880934442,-90.67647987106484 -185.90094582825049,-92.50660689001609 -188.40094582825105,-93.17647987112711 -190.90094582826816,-92.5066068900778 -192.73107284721942,-90.67647987117174 -193.40094582833046,-88.17647987117117 -192.73107284728115,-85.67647987115407 -190.9009458283751,-83.84635285220283 -188.40094582837452,-83.1764798710918" stroke="#008000" stroke-linecap="round" stroke-linejoin="round"/><polyline fill="none" points="-189.63698011143435,-2.1105531667297743 -187.13698011141724,-2.780426147779087 -185.30685309246599,-4.610553166685153 -184.63698011135494,-7.110553166685715 -185.30685309240425,-9.610553166702815 -187.13698011131032,-11.440680185654065 -189.6369801113109,-12.1105531667651 -192.136980111328,-11.44068018571579 -193.96710713027926,-9.610553166809725 -194.6369801113903,-7.110553166809163 -193.967107130341,-4.610553166792062 -192.13698011143492,-2.780426147840811 -189.63698011143435,-2.110553166729775" stroke="#ffa500" stroke-linecap="round" stroke-linejoin="round"/><polyline fill="none" points="-186.0496047214135,-9.153668292710618 -183.54960472139638,-9.823541273759929 -181.71947770244512,-11.653668292665994 -181.04960472133408,-14.153668292666556 -181.7194777023834,-16.65366829268366 -183.54960472128946,-18.48379531163491 -186.04960472129002,-19.153668292745948 -188.54960472130713,-18.48379531169664 -190.3797317402584,-16.653668292790574 -191.04960472136943,-14.153668292790012 -190.37973174032012,-11.65366829277291 -188.54960472141406,-9.823541273821656 -186.0496047214135,-9.153668292710616" stroke="#ffa500" stroke-linecap="round" stroke-linejoin="round"/><polyline fill="none" points="-130.70766946383154,76.14139682181717 -128.20766946381443,75.47152384076786 -126.37754244486317,73.64139682186179 -125.70766946375213,71.14139682186122 -126.37754244480143,68.64139682184411 -128.2076694637075,66.81126980289285 -130.70766946370807,66.14139682178181 -133.20766946372518,66.81126980283112 -135.03779648267644,68.64139682173719 -135.70766946378748,71.14139682173776 -135.03779648273817,73.64139682175487 -133.2076694638321,75.47152384070613 -130.70766946383154,76.14139682181717" stroke="#00f" stroke-linecap="round" stroke-linejoin="round"/><polyline fill="none" points="-223.84963002659924,-40.99518757382663 -221.34963002658213,-41.66506055487593 -219.51950300763087,-43.49518757378199 -218.84963002651983,-45.99518757378255 -219.51950300756914,-48.495187573799655 -221.3496300264752,-50.325314592750914 -223.84963002647578,-50.995187573861955 -226.3496300264929,-50.32531459281265 -228.17975704544415,-48.49518757390659 -228.8496300265552,-45.99518757390603 -228.17975704550588,-43.49518757388893 -226.3496300265998,-41.66506055493767 -223.84963002659924,-40.99518757382663" stroke="#00f" stroke-linecap="round" stroke-linejoin="round"/><polyline fill="none" points="-138.5933372517169,9.853376927915352 -136.09333725169978,9.183503946866049 -134.26321023274852,7.353376927959988 -133.59333725163748,4.853376927959426 -134.2632102326868,2.3533769279423202 -136.09333725159286,0.5232499089910609 -138.59333725159343,-0.14662307211998427 -141.09333725161054,0.5232499089293179 -142.9234642705618,2.353376927835378 -143.59333725167284,4.85337692783594 -142.92346427062353,7.353376927853047 -141.09333725171746,9.183503946804308 -138.5933372517169,9.853376927915354" stroke="#ffa500" stroke-linecap="round" stroke-linejoin="round"/><polyline fill="none" points="-159.27093502995814,-71.7456317322804 -156.77093502994103,-72.4155047133297 -154.94080801098977,-74.24563173223575 -154.27093502987873,-76.74563173223632 -154.94080801092804,-79.24563173225343 -156.7709350298341,-81.07575875120469 -159.27093502983467,-81.74563173231573 -161.77093502985178,-81.07575875126643 -163.60106204880304,-79.24563173236038 -164.27093502991409,-76.74563173235981 -163.60106204886478,-74.2456317323427 -161.7709350299587,-72.41550471339144 -159.27093502995814,-71.74563173228039" stroke="#00f" stroke-linecap="round" stroke-linejoin="round"/><polyline fill="none" points="-192.38270959000346,-92.06220027287341 -189.88270958998635,-92.7320732539227 -188.0525825710351,-94.56220027282876 -187.38270958992405,-97.06220027282932 -188.05258257097336,-99.56220027284643 -189.88270958987943,-101.39232729179768 -192.38270958988,-102.06220027290874 -194.8827095898971,-101.39232729185944 -196.71283660884836,-99.56220027295339 -197.3827095899594,-97.06220027295282 -196.7128366089101,-94.56220027293571 -194.88270959000403,-92.73207325398445 -192.38270959000346,-92.0622002728734" stroke="#ffa500" stroke-linecap="round" stroke-linejoin="round"/><polyline fill="none" points="-214.2909222457941,-14.996350525044033 -211.79092224577698,-15.666223506093328 -209.96079522682572,-17.496350524999386 -209.29092224571468,-19.996350524999947 -209.960795226764,-22.496350525017057 -211.79092224567006,-24.326477543968323 -214.29092224567063,-24.99635052507938 -216.79092224568774,-24.326477544030084 -218.621049264639,-22.49635052512403 -219.29092224575004,-19.996350525123468 -218.62104926470076,-17.496350525106358 -216.7909222457947,-15.66622350615509 -214.29092224579412,-14.996350525044035" stroke="#ffa500" stroke-linecap="round" stroke-linejoin="round"/><polyline fill="none" points="-219.03249460497844,-98.20430603057005 -216.53249460496133,-98.87417901161935 -214.70236758601007,-100.7043060305254 -214.032494604899,-103.20430603052597 -214.70236758594828,-105.70430603054308 -216.53249460485432,-107.53443304949435 -219.0324946048549,-108.20430603060541 -221.532494604872,-107.53443304955611 -223.36262162382326,-105.70430603065006 -224.03249460493433,-103.20430603064949 -223.36262162388505,-100.70430603063238 -221.532494604979,-98.87417901168111 -219.03249460497844,-98.20430603057005" stroke="#ffa500" stroke-linecap="round" stroke-linejoin="round"/><polyline fill="none" points="-239.80666885776296,-107.99597761715228 -237.30666885774585,-108.66585059820157 -235.4765418387946,-110.49597761710763 -234.80666885768352,-112.9959776171082 -235.4765418387328,-115.4959776171253 -237.30666885763884,-117.32610463607658 -239.8066688576394,-117.99597761718763 -242.30666885765652,-117.32610463613834 -244.13679587660778,-115.49597761723228 -244.80666885771885,-112.99597761723172 -244.13679587666957,-110.4959776172146 -242.30666885776353,-108.66585059826333 -239.80666885776296,-107.99597761715228" stroke="#00f" stroke-linecap="round" stroke-linejoin="round"/><polyline fill="none" points="-162.2222516779726,30.029979286508183 -159.72225167795548,29.360106305458896 -157.89212465900422,27.529979286552845 -157.22225167789315,25.029979286552283 -157.89212465894244,22.52997928653517 -159.72225167784848,20.699852267583896 -162.22225167784904,20.029979286472834 -164.72225167786615,20.69985226752212 -166.55237869681744,22.529979286428173 -167.2222516779285,25.029979286428734 -166.55237869687923,27.529979286445847 -164.7222516779732,29.36010630539712 -162.22225167797262,30.029979286508183" stroke="#ffa500" stroke-linecap="round" stroke-linejoin="round"/><polyline fill="none" points="-238.436974997562,-126.82552770526095 -235.9369749975449,-127.49540068631023 -234.1068479785936,-129.32552770521627 -233.43697499748254,-131.82552770521684 -234.10684797853182,-134.32552770523395 -235.93697499743786,-136.15565472418524 -238.43697499743843,-136.8255277052963 -240.93697499745554,-136.15565472424703 -242.76710201640682,-134.325527705341 -243.4369749975179,-131.82552770534042 -242.7671020164686,-129.3255277053233 -240.93697499756257,-127.49540068637204 -238.436974997562,-126.82552770526097" stroke="#ffa500" stroke-linecap="round" stroke-linejoin="round"/><polyline fill="none" points="64.44710986709227,6.33724240722159 66.94710986710938,5.667369426172306 68.77723688606065,3.837242407266257 69.44710986717172,1.3372424072656952 68.77723688612244,-1.1627575927514213 66.94710986721638,-2.9928846117027 64.44710986721581,-3.662757592813768 61.9471098671987,-2.9928846117644854 60.11698284824742,-1.1627575928584364 59.44710986713635,1.3372424071421254 60.11698284818563,3.837242407159242 61.947109867091676,5.667369426110522 64.44710986709224,6.337242407221591" stroke="#ffa500" stroke-linecap="round" stroke-linejoin="round"/><polyline fill="none" points="-156.64531335391777,-25.362406360705013 -154.14531335390066,-26.032279341754293 -152.31518633494937,-27.86240636066034 -151.6453133538383,-30.362406360660902 -152.31518633488758,-32.86240636067802 -154.14531335379363,-34.6925333796293 -156.6453133537942,-35.36240636074037 -159.1453133538113,-34.69253337969109 -160.9754403727626,-32.862406360785045 -161.64531335387366,-30.362406360784483 -160.97544037282438,-27.862406360767363 -159.14531335391834,-26.03227934181608 -156.64531335391777,-25.362406360705005" stroke="#00f" stroke-linecap="round" stroke-linejoin="round"/><polyline fill="none" points="-221.8389798272413,-66.25463796417161 -219.3389798272242,-66.92451094522089 -217.5088528082729,-68.75463796412694 -216.83897982716184,-71.25463796412751 -217.50885280821112,-73.75463796414464 -219.33897982711716,-75.58476498309592 -221.83897982711773,-76.25463796420699 -224.33897982713484,-75.58476498315771 -226.16910684608612,-73.75463796425167 -226.8389798271972,-71.2546379642511 -226.1691068461479,-68.75463796423398 -224.33897982724187,-66.92451094528269 -221.8389798272413,-66.25463796417162" stroke="#00f" stroke-linecap="round" stroke-linejoin="round"/><polyline fill="none" points="-236.27796006157087,-94.78626111364694 -233.77796006155376,-95.45613409469622 -231.94783304260247,-97.28626111360227 -231.2779600614914,-99.78626111360282 -231.94783304254068,-102.28626111361994 -233.77796006144672,-104.11638813257123 -236.2779600614473,-104.7862611136823 -238.7779600614644,-104.11638813263302 -240.6080870804157,-102.28626111372698 -241.27796006152676,-99.78626111372643 -240.60808708047747,-97.2862611137093 -238.77796006157143,-95.45613409475801 -236.27796006157087,-94.78626111364693" stroke="#00f" stroke-linecap="round" stroke-linejoin="round"/><polyline fill="none" points="-111.61647645652897,90.7676447242291 -109.11647645651185,90.09777174317982 -107.28634943756056,88.26764472427378 -106.61647645644948,85.76764472427323 -107.28634943749874,83.2676447242561 -109.11647645640478,81.43751770530481 -111.61647645640534,80.76764472419373 -114.11647645642246,81.437517705243 -115.94660347537375,83.26764472414904 -116.61647645648483,85.7676447241496 -115.94660347543557,88.26764472416673 -114.11647645652953,90.09777174311802 -111.61647645652896,90.7676447242291" stroke="#ffa500" stroke-linecap="round" stroke-linejoin="round"/><polyline fill="none" points="-242.5572974449679,-91.65474905703951 -240.0572974449508,-92.32462203808878 -238.2271704259995,-94.15474905699482 -237.55729744488843,-96.65474905699537 -238.22717042593771,-99.1547490570125 -240.05729744484375,-100.98487607596378 -242.55729744484432,-101.65474905707487 -245.05729744486143,-100.9848760760256 -246.88742446381272,-99.15474905711956 -247.5572974449238,-96.65474905711899 -246.8874244638745,-94.15474905710187 -245.05729744496847,-92.32462203815058 -242.5572974449679,-91.6547490570395" stroke="#ffa500" stroke-linecap="round" stroke-linejoin="round"/><polyline fill="none" points="-90.91934492800918,59.735046476018994 -88.41934492799206,59.06517349496973 -86.58921790904077,57.23504647606369 -85.91934492792969,54.735046476063125 -86.58921790897895,52.235046476046 -88.41934492788499,50.40491945709471 -90.91934492788556,49.73504647598362 -93.41934492790269,50.40491945703289 -95.24947194685397,52.23504647593893 -95.91934492796506,54.73504647593949 -95.24947194691579,57.235046475956615 -93.41934492800975,59.06517349490791 -90.91934492800918,59.735046476018994" stroke="#ffa500" stroke-linecap="round" stroke-linejoin="round"/><polyline fill="none" points="-120.99214067902243,98.68514397806935 -118.4921406790053,98.01527099702008 -116.66201366005401,96.18514397811404 -115.99214067894293,93.68514397811347 -116.6620136599922,91.18514397809635 -118.49214067889824,89.35501695914505 -120.9921406788988,88.68514397803396 -123.49214067891593,89.35501695908323 -125.32226769786723,91.18514397798927 -125.99214067897832,93.68514397798984 -125.32226769792905,96.18514397800696 -123.49214067902301,98.01527099695826 -120.99214067902244,98.68514397806935" stroke="#ffa500" stroke-linecap="round" stroke-linejoin="round"/><polyline fill="none" points="-142.1981598855128,-51.172522901472874 -139.69815988549567,-51.84239588252214 -137.86803286654438,-53.67252290142818 -137.19815988543328,-56.17252290142874 -137.86803286648254,-58.67252290144587 -139.69815988538858,-60.50264992039717 -142.19815988538915,-61.17252290150826 -144.69815988540628,-60.50264992045899 -146.52828690435757,-58.67252290155295 -147.19815988546867,-56.17252290155239 -146.52828690441942,-53.67252290153526 -144.69815988551338,-51.84239588258396 -142.1981598855128,-51.17252290147287" stroke="#00f" stroke-linecap="round" stroke-linejoin="round"/><polyline fill="none" points="-246.70098585171027,-111.79856610532022 -244.20098585169313,-112.46843908636949 -242.37085883274185,-114.29856610527553 -241.70098585163075,-116.7985661052761 -242.37085883268,-119.29856610529322 -244.20098585158604,-121.12869312424452 -246.7009858515866,-121.79856610535562 -249.20098585160375,-121.12869312430635 -251.03111287055503,-119.29856610540031 -251.70098585166613,-116.79856610539974 -251.03111287061688,-114.29856610538262 -249.20098585171084,-112.46843908643132 -246.70098585171027,-111.79856610532022" stroke="#00f" stroke-linecap="round" stroke-linejoin="round"/><polyline fill="none" points="-228.84477928603374,-122.87100701164465 -226.3447792860166,-123.54087999269392 -224.5146522670653,-125.37100701159996 -223.8447792859542,-127.87100701160053 -224.51465226700344,-130.37100701161765 -226.34477928590948,-132.20113403056897 -228.84477928591005,-132.87100701168006 -231.3447792859272,-132.2011340306308 -233.1749063048785,-130.37100701172477 -233.8447792859896,-127.8710070117242 -233.17490630494035,-125.37100701170706 -231.3447792860343,-123.54087999275576 -228.84477928603374,-122.87100701164466" stroke="#ffa500" stroke-linecap="round" stroke-linejoin="round"/><polyline fill="none" points="-174.76227086498105,33.23401337407047 -172.2622708649639,32.56414039302121 -170.4321438460126,30.73401337411518 -169.7622708649015,28.234013374114618 -170.43214384595075,25.734013374097486 -172.2622708648568,23.90388635514618 -174.76227086485736,23.234013374035083 -177.2622708648745,23.90388635508434 -179.0923978838258,25.734013373990372 -179.7622708649369,28.234013373990933 -179.09239788388766,30.734013374008065 -177.26227086498162,32.564140392959374 -174.76227086498105,33.23401337407047" stroke="#ffa500" stroke-linecap="round" stroke-linejoin="round"/><polyline fill="none" points="-121.83576512445774,88.81955168522727 -119.3357651244406,88.14967870417802 -117.5056381054893,86.31955168527197 -116.8357651243782,83.8195516852714 -117.50563810542745,81.31955168525427 -119.33576512433349,79.48942466630297 -121.83576512433406,78.81955168519187 -124.3357651243512,79.48942466624112 -126.1658921433025,81.31955168514715 -126.8357651244136,83.81955168514772 -126.16589214336435,86.31955168516485 -124.33576512445832,88.14967870411617 -121.83576512445775,88.81955168522727" stroke="#ffa500" stroke-linecap="round" stroke-linejoin="round"/><polyline fill="none" points="-203.5505026895018,-6.108692713634225 -201.05050268948466,-6.778565694683478 -199.22037567053334,-8.60869271358951 -198.55050268942225,-11.108692713590074 -199.2203756704715,-13.60869271360721 -201.05050268937754,-15.438819732558521 -203.5505026893781,-16.108692713669626 -206.05050268939524,-15.438819732620374 -207.88062970834656,-13.60869271371434 -208.55050268945766,-11.108692713713777 -207.8806297084084,-8.608692713696641 -206.05050268950237,-6.778565694745328 -203.5505026895018,-6.108692713634222" stroke="#00f" stroke-linecap="round" stroke-linejoin="round"/><polyline fill="none" points="-208.31205326307952,-21.2232854859054 -205.81205326306238,-21.893158466954652 -203.98192624411107,-23.723285485860686 -203.31205326299997,-26.22328548586125 -203.98192624404922,-28.72328548587839 -205.81205326295526,-30.5534125048297 -208.31205326295583,-31.22328548594081 -210.81205326297297,-30.55341250489156 -212.64218028192428,-28.72328548598553 -213.31205326303538,-26.223285485984967 -212.64218028198613,-23.72328548596783 -210.8120532630801,-21.893158467016512 -208.31205326307952,-21.223285485905404" stroke="#ffa500" stroke-linecap="round" stroke-linejoin="round"/><polyline fill="none" points="-223.28489829708516,-108.33034059445757 -220.78489829706803,-109.00021357550682 -218.9547712781167,-110.83034059441285 -218.2848982970056,-113.33034059441341 -218.95477127805486,-115.83034059443055 -220.7848982969609,-117.66046761338187 -223.28489829696147,-118.33034059449298 -225.7848982969786,-117.66046761344373 -227.61502531592993,-115.8303405945377 -228.28489829704102,-113.33034059453713 -227.61502531599177,-110.83034059452 -225.78489829708573,-109.00021357556868 -223.28489829708516,-108.33034059445757" stroke="#00f" stroke-linecap="round" stroke-linejoin="round"/><polyline fill="none" points="-242.47553435481953,-109.54556009794086 -239.9755343548024,-110.21543307899012 -238.14540733585108,-112.04556009789614 -237.47553435473998,-114.54556009789671 -238.14540733578923,-117.04556009791385 -239.97553435469527,-118.87568711686517 -242.47553435469584,-119.54556009797628 -244.97553435471298,-118.87568711692704 -246.8056613736643,-117.04556009802101 -247.47553435477542,-114.54556009802045 -246.80566137372617,-112.0455600980033 -244.97553435482013,-110.21543307905199 -242.47553435481956,-109.54556009794088" stroke="#ffa500" stroke-linecap="round" stroke-linejoin="round"/><polyline fill="none" points="-238.6327905715302,-97.88342998979309 -236.13279057151306,-98.55330297084232 -234.30266355256174,-100.38342998974835 -233.6327905714506,-102.88342998974892 -234.30266355249987,-105.38342998976606 -236.1327905714059,-107.21355700871737 -238.63279057140647,-107.88342998982849 -241.1327905714236,-107.21355700877925 -242.96291759037493,-105.38342998987322 -243.63279057148605,-102.88342998987265 -242.9629175904368,-100.38342998985551 -241.13279057153076,-98.5533029709042 -238.6327905715302,-97.88342998979309" stroke="#008000" stroke-linecap="round" stroke-linejoin="round"/><polyline fill="none" points="-84.15780137205466,52.25311069468727 -81.65780137203753,51.58323771363803 -79.82767435308621,49.753110694732 -79.1578013719751,47.25311069473144 -79.82767435302434,44.753110694714294 -81.65780137193036,42.92298367576297 -84.15780137193093,42.25311069465185 -86.65780137194807,42.92298367570109 -88.4879283908994,44.753110694607116 -89.15780137201051,47.25311069460768 -88.48792839096127,49.75311069462482 -86.65780137205525,51.583237713576146 -84.15780137205468,52.253110694687265" stroke="#ffa500" stroke-linecap="round" stroke-linejoin="round"/><polyline fill="none" points="63.984574880826834,-7.410093674842415 66.48457488084398,-8.079966655891655 68.31470189979531,-9.910093674797679 68.98457488090644,-12.410093674798244 68.3147018998572,-14.91009367481539 66.48457488095117,-16.740220693766716 63.98457488095061,-17.410093674877835 61.484574880933465,-16.740220693828597 59.65444786198214,-14.910093674922573 58.98457488087102,-12.41009367492201 59.65444786192026,-9.910093674904864 61.48457488082629,-8.079966655953537 63.98457488082685,-7.410093674842415" stroke="#ffa500" stroke-linecap="round" stroke-linejoin="round"/><polyline fill="none" points="-234.19230935593342,-105.20885715860587 -231.69230935591628,-105.8787301396551 -229.86218233696496,-107.70885715856113 -229.19230935585384,-110.2088571585617 -229.86218233690306,-112.70885715857885 -231.69230935580907,-114.53898417753018 -234.19230935580964,-115.20885715864131 -236.69230935582678,-114.53898417759207 -238.5224363747781,-112.70885715868604 -239.19230935588922,-110.20885715868548 -238.52243637484,-107.70885715866832 -236.692309355934,-105.87873013971699 -234.19230935593342,-105.20885715860587" stroke="#ffa500" stroke-linecap="round" stroke-linejoin="round"/><polyline fill="none" points="-259.14338134977294,-90.91717120443488 -256.64338134975577,-91.58704418548412 -254.81325433080445,-93.41717120439014 -254.14338134969333,-95.91717120439071 -254.81325433074255,-98.41717120440786 -256.64338134964856,-100.2472982233592 -259.14338134964913,-100.91717120447032 -261.6433813496663,-100.24729822342108 -263.4735083686176,-98.41717120451506 -264.14338134972877,-95.91717120451449 -263.4735083686795,-93.41717120449734 -261.6433813497735,-91.587044185546 -259.14338134977294,-90.91717120443488" stroke="#00f" stroke-linecap="round" stroke-linejoin="round"/><polyline fill="none" points="-234.41264859852117,-132.94027928341606 -231.91264859850403,-133.61015226446528 -230.0825215795527,-135.4402792833713 -229.41264859844156,-137.94027928337186 -230.0825215794908,-140.440279283389 -231.9126485983968,-142.27040630234035 -234.41264859839737,-142.94027928345147 -236.9126485984145,-142.27040630240225 -238.74277561736585,-140.44027928349624 -239.41264859847698,-137.94027928349567 -238.74277561742775,-135.44027928347853 -236.91264859852174,-133.6101522645272 -234.41264859852117,-132.94027928341606" stroke="#ffa500" stroke-linecap="round" stroke-linejoin="round"/><polyline fill="none" points="-230.23738613171784,-107.00053084810429 -227.7373861317007,-107.67040382915351 -225.90725911274936,-109.50053084805954 -225.23738613163823,-112.00053084806011 -225.90725911268746,-114.50053084807726 -227.73738613159347,-116.33065786702859 -230.23738613159404,-117.00053084813972 -232.73738613161117,-116.3306578670905 -234.56751315056252,-114.50053084818448 -235.23738613167365,-112.00053084818391 -234.56751315062442,-109.50053084816676 -232.7373861317184,-107.67040382921543 -230.23738613171784,-107.00053084810429" stroke="#008000" stroke-linecap="round" stroke-linejoin="round"/><polyline fill="none" points="-170.49672566032578,24.70836936841936 -167.99672566030864,24.03849638737013 -166.1665986413573,22.208369368464112 -165.49672566024617,19.708369368463547 -166.1665986412954,17.208369368446395 -167.9967256602014,15.378242349495057 -170.49672566020197,14.708369368383922 -172.9967256602191,15.378242349433147 -174.82685267917046,17.208369368339163 -175.49672566028158,19.708369368339728 -174.82685267923236,22.20836936835688 -172.99672566032635,24.038496387308218 -170.49672566032578,24.708369368419355" stroke="#ffa500" stroke-linecap="round" stroke-linejoin="round"/><polyline fill="none" points="-221.85625142694497,-23.569729420950296 -219.3562514269278,-24.23960240199952 -217.52612440797645,-26.069729420905535 -216.85625142686533,-28.5697294209061 -217.52612440791455,-31.069729420923252 -219.35625142682056,-32.89985643987459 -221.85625142682113,-33.56972942098573 -224.3562514268383,-32.89985643993651 -226.18637844578964,-31.06972942103049 -226.85625142690077,-28.569729421029926 -226.18637844585155,-26.069729421012774 -224.35625142694553,-24.239602402061433 -221.85625142694497,-23.569729420950292" stroke="#ffa500" stroke-linecap="round" stroke-linejoin="round"/><polyline fill="none" points="-180.4079205795225,-94.76326252599083 -177.90792057950534,-95.43313550704005 -176.077793560554,-97.26326252594606 -175.40792057944287,-99.76326252594663 -176.0777935604921,-102.26326252596378 -177.9079205793981,-104.09338954491513 -180.40792057939868,-104.76326252602627 -182.90792057941584,-104.09338954497704 -184.7380475983672,-102.26326252607103 -185.40792057947834,-99.76326252607046 -184.73804759842912,-97.26326252605331 -182.9079205795231,-95.43313550710197 -180.40792057952254,-94.76326252599083" stroke="#ffa500" stroke-linecap="round" stroke-linejoin="round"/><polyline fill="none" points="-260.83747249831293,-108.1402877905275 -258.33747249829577,-108.81016077157672 -256.5073454793444,-110.64028779048273 -255.83747249823324,-113.1402877904833 -256.50734547928244,-115.64028779050045 -258.33747249818845,-117.4704148094518 -260.837472498189,-118.14028779056294 -263.3374724982062,-117.47041480951371 -265.16759951715756,-115.6402877906077 -265.8374724982687,-113.14028779060713 -265.1675995172195,-110.64028779058998 -263.3374724983135,-108.81016077163864 -260.83747249831293,-108.1402877905275" stroke="#00f" stroke-linecap="round" stroke-linejoin="round"/><polyline fill="none" points="-199.37863171304323,-94.51782125318694 -196.87863171302607,-95.18769423423615 -195.04850469407472,-97.01782125314216 -194.37863171296357,-99.51782125314273 -195.0485046940128,-102.01782125315988 -196.8786317129188,-103.84794827211122 -199.37863171291937,-104.51782125322237 -201.87863171293654,-103.84794827217316 -203.70875873188788,-102.01782125326714 -204.37863171299904,-99.51782125326658 -203.7087587319498,-97.01782125324942 -201.8786317130438,-95.18769423429808 -199.37863171304323,-94.51782125318692" stroke="#00f" stroke-linecap="round" stroke-linejoin="round"/><polyline fill="none" points="-129.3915782426294,-42.06998620097668 -126.89157824261225,-42.739859182025896 -125.06145122366091,-44.56998620093191 -124.39157824254976,-47.06998620093247 -125.06145122359897,-49.56998620094963 -126.89157824250498,-51.40011321990098 -129.39157824250555,-52.06998620101213 -131.8915782425227,-51.40011321996292 -133.72170526147406,-49.569986201056906 -134.3915782425852,-47.069986201056345 -133.721705261536,-44.569986201039185 -131.89157824262998,-42.739859182087834 -129.3915782426294,-42.06998620097668" stroke="#ffa500" stroke-linecap="round" stroke-linejoin="round"/><polyline fill="none" points="-198.20884082739323,-74.86065062400311 -195.70884082737606,-75.53052360505232 -193.87871380842472,-77.36065062395834 -193.20884082731357,-79.8606506239589 -193.8787138083628,-82.36065062397607 -195.7088408272688,-84.19077764292743 -198.20884082726937,-84.86065062403858 -200.70884082728654,-84.19077764298937 -202.53896784623788,-82.36065062408336 -203.20884082734904,-79.8606506240828 -202.53896784629984,-77.36065062406563 -200.70884082739383,-75.53052360511427 -198.20884082739326,-74.86065062400311" stroke="#ffa500" stroke-linecap="round" stroke-linejoin="round"/><polyline fill="none" points="-213.8484321769049,-28.836554995848267 -211.34843217688774,-29.506427976897477 -209.5183051579364,-31.336554995803485 -208.84843217682524,-33.83655499580405 -209.51830515787444,-36.33655499582121 -211.34843217678045,-38.16668201477257 -213.84843217678102,-38.83655499588372 -216.34843217679818,-38.166682014834514 -218.17855919574953,-36.33655499592851 -218.84843217686068,-33.83655499592795 -218.1785591958115,-31.336554995910785 -216.34843217690548,-29.50642797695943 -213.8484321769049,-28.836554995848275" stroke="#ffa500" stroke-linecap="round" stroke-linejoin="round"/><polyline fill="none" points="-204.14650362209844,-93.10571819956192 -201.64650362208127,-93.77559118061113 -199.81637660312992,-95.60571819951714 -199.14650362201877,-98.10571819951771 -199.81637660306797,-100.60571819953488 -201.64650362197398,-102.43584521848624 -204.14650362197455,-103.10571819959739 -206.6465036219917,-102.43584521854818 -208.47663064094306,-100.60571819964217 -209.1465036220542,-98.1057181996416 -208.47663064100502,-95.60571819962443 -206.646503622099,-93.77559118067308 -204.14650362209844,-93.10571819956192" stroke="#00f" stroke-linecap="round" stroke-linejoin="round"/><polyline fill="none" points="-104.41553617099102,37.43819238535068 -101.91553617097385,36.76831940430148 -100.08540915202249,34.938192385395475 -99.41553617091134,32.43819238539491 -100.08540915196055,29.938192385377747 -101.91553617086656,28.108065366426388 -104.41553617086713,27.438192385315226 -106.9155361708843,28.10806536636443 -108.74566318983565,29.938192385270433 -109.41553617094681,32.438192385270995 -108.7456631898976,34.93819238528816 -106.91553617099159,36.76831940423952 -104.41553617099102,37.43819238535068" stroke="#00f" stroke-linecap="round" stroke-linejoin="round"/><polyline fill="none" points="-194.92051569668465,-15.098564039778068 -192.42051569666748,-15.768437020827271 -190.5903886777161,-17.598564039733276 -189.92051569660495,-20.09856403973384 -190.59038867765415,-22.598564039751007 -192.42051569656016,-24.42869105870237 -194.92051569656073,-25.09856403981353 -197.4205156965779,-24.42869105876433 -199.25064271552927,-22.598564039858324 -199.92051569664042,-20.09856403985776 -199.25064271559123,-17.598564039840593 -197.42051569668521,-15.768437020889229 -194.92051569668465,-15.098564039778063" stroke="#ffa500" stroke-linecap="round" stroke-linejoin="round"/><polyline fill="none" points="-234.57852663059032,-89.36420708086398 -232.07852663057315,-90.03408006191317 -230.24839961162178,-91.86420708081917 -229.57852663051062,-94.36420708081974 -230.24839961155982,-96.8642070808369 -232.07852663046583,-98.69433409978828 -234.5785266304664,-99.36420708089945 -237.07852663048357,-98.69433409985025 -238.90865364943494,-96.86420708094425 -239.5785266305461,-94.36420708094369 -238.9086536494969,-91.86420708092652 -237.0785266305909,-90.03408006197515 -234.57852663059032,-89.36420708086398" stroke="#008000" stroke-linecap="round" stroke-linejoin="round"/><polyline fill="none" points="-258.8998792165319,-99.07827280648654 -256.3998792165147,-99.74814578753573 -254.56975219756333,-101.57827280644173 -253.89987921645218,-104.0782728064423 -254.56975219750137,-106.57827280645947 -256.3998792164074,-108.40839982541084 -258.89987921640795,-109.07827280652201 -261.3998792164251,-108.40839982547281 -263.2300062353765,-106.57827280656682 -263.89987921648765,-104.07827280656625 -263.23000623543845,-101.57827280654908 -261.39987921653244,-99.74814578759771 -258.8998792165319,-99.07827280648654" stroke="#ffa500" stroke-linecap="round" stroke-linejoin="round"/><polyline fill="none" points="289.3351628780694,-140.73926070481807 291.8351628780866,-141.40913368586726 293.66528989703795,-143.23926070477327 294.3351628781491,-145.73926070477384 293.6652898970999,-148.239260704791 291.8351628781939,-150.06938772374238 289.33516287819333,-150.73926070485356 286.83516287817616,-150.06938772380437 285.0050358592248,-148.23926070489836 284.33516287811364,-145.7392607048978 285.00503585916283,-143.23926070488062 286.83516287806884,-141.40913368592925 289.3351628780694,-140.73926070481807" stroke="#ffa500" stroke-linecap="round" stroke-linejoin="round"/></svg>