<?xml version="1.0" ?><!DOCTYPE svg  PUBLIC '-//W3C//DTD SVG 1.1//EN'  'http://www.w3.org/Graphics/SVG/1.1/DTD/svg11.dtd'><svg height="292.000" viewBox="-315.000 -185.000 664.000 292.000" width="664.000" xmlns="http://www.w3.org/2000/svg"><line fill="none" stroke="none" stroke-linecap="round" stroke-width="2.0" x1="0.0" x2="0.0" y1="0.0" y2="0.0"/><polygon fill="none" fill-rule="evenodd" points="0.0,0.0 0.0,0.0 0.0,0.0" stroke-linejoin="round"/><polyline fill="none" points="-278.04979383977144,-116.01903742848197 -275.5497938397522,-116.68891040952781 -273.71966682079744,-118.51903742843193 -273.04979383968237,-121.01903742843258 -273.7196668207282,-123.5190374284518 -275.54979383963234,-125.34916444740661 -278.049793839633,-126.0190374285217 -280.54979383965224,-125.34916444747586 -282.379920858607,-123.51903742857174 -283.0497938397221,-121.01903742857108 -282.37992085867626,-118.51903742855187 -280.5497938397721,-116.68891040959706 -278.04979383977144,-116.01903742848197" stroke="#00f" stroke-linecap="round" stroke-linejoin="round"/><polyline fill="none" points="-261.0457926952526,-126.80129739778951 -258.5457926952334,-127.47117037883535 -256.7156656762786,-129.30129739773946 -256.0457926951635,-131.80129739774011 -256.71566567620937,-134.30129739775933 -258.5457926951135,-136.13142441671414 -261.0457926951142,-136.80129739782925 -263.5457926951334,-136.1314244167834 -265.37591971408824,-134.3012973978793 -266.0457926952033,-131.80129739787864 -265.3759197141575,-129.30129739785943 -263.54579269525334,-127.47117037890462 -261.04579269525266,-126.80129739778953" stroke="#008000" stroke-linecap="round" stroke-linejoin="round"/><polyline fill="none" points="-201.01548914214638,-101.52963667549538 -198.51548914212717,-102.19950965654122 -196.68536212317235,-104.02963667544535 -196.01548914205725,-106.529636675446 -196.6853621231031,-109.02963667546521 -198.5154891420072,-110.85976369442002 -201.01548914200785,-111.52963667553512 -203.51548914202706,-110.85976369448927 -205.34561616098188,-109.02963667558515 -206.01548914209698,-106.5296366755845 -205.34561616105114,-104.02963667556529 -203.51548914214703,-102.19950965661047 -201.01548914214638,-101.52963667549538" stroke="#ffa500" stroke-linecap="round" stroke-linejoin="round"/><polyline fill="none" points="-270.8060987267857,-126.87989088042087 -268.3060987267665,-127.54976386146672 -266.47597170781165,-129.37989088037082 -265.8060987266966,-131.87989088037148 -266.4759717077424,-134.3798908803907 -268.30609872664655,-136.2100178993455 -270.80609872664724,-136.8798908804606 -273.30609872666645,-136.21001789941477 -275.1362257456213,-134.37989088051066 -275.80609872673637,-131.87989088051 -275.1362257456905,-129.3798908804908 -273.3060987267864,-127.54976386153598 -270.8060987267857,-126.87989088042087" stroke="#008000" stroke-linecap="round" stroke-linejoin="round"/><polyline fill="none" points="-281.8514542599482,-98.68675357565623 -279.35145425992897,-99.35662655670207 -277.52132724097413,-101.18675357560618 -276.85145425985905,-103.68675357560683 -277.5213272409049,-106.18675357562604 -279.35145425980903,-108.01688059458085 -281.8514542598097,-108.68675357569596 -284.3514542598289,-108.01688059465012 -286.18158127878377,-106.18675357574601 -286.85145425989884,-103.68675357574536 -286.181581278853,-101.18675357572614 -284.35145425994887,-99.35662655677132 -281.8514542599482,-98.68675357565621" stroke="#00f" stroke-linecap="round" stroke-linejoin="round"/><polyline fill="none" points="-289.40976888661356,-147.21186894206963 -286.90976888659435,-147.88174192311547 -285.0796418676395,-149.71186894201958 -284.40976888652443,-152.21186894202023 -285.0796418675703,-154.71186894203944 -286.9097688864744,-156.54199596099426 -289.40976888647504,-157.21186894210936 -291.90976888649425,-156.54199596106352 -293.7398959054491,-154.7118689421594 -294.40976888656417,-152.21186894215876 -293.7398959055183,-149.71186894213955 -291.9097688866142,-147.88174192318473 -289.4097688866135,-147.21186894206963" stroke="#00f" stroke-linecap="round" stroke-linejoin="round"/><polyline fill="none" points="305.96038997819517,-144.2813054320158 308.4603899782144,-144.95117841306165 310.2905169971692,-146.78130543196576 310.96038997828435,-149.28130543196642 310.2905169972385,-151.78130543198563 308.4603899783344,-153.61143245094044 305.96038997833375,-154.28130543205555 303.46038997831454,-153.6114324510097 301.6302629593597,-151.7813054321056 300.96038997824456,-149.28130543210494 301.6302629592904,-146.78130543208573 303.46038997819454,-144.95117841313092 305.96038997819517,-144.2813054320158" stroke="#ffa500" stroke-linecap="round" stroke-linejoin="round"/><polyline fill="none" points="-298.90820010788974,-120.26530108532046 -296.4082001078705,-120.93517406636629 -294.5780730889157,-122.7653010852704 -293.90820010780055,-125.26530108527105 -294.5780730888464,-127.76530108529026 -296.40820010775053,-129.5954281042451 -298.9082001077512,-130.2653010853602 -301.4082001077704,-129.59542810431435 -303.23832712672527,-127.76530108541024 -303.9082001078404,-125.26530108540959 -303.23832712679456,-122.76530108539038 -301.4082001078905,-120.93517406643555 -298.9082001078898,-120.26530108532044" stroke="#00f" stroke-linecap="round" stroke-linejoin="round"/><polyline fill="none" points="77.38947266381605,-16.13715485386709 79.88947266383526,-16.80702783491292 81.71959968279009,-18.637154853817027 82.3894726639052,-21.13715485381768 81.71959968285937,-23.6371548538369 79.88947266395526,-25.46728187279173 77.3894726639546,-26.137154853906843 74.8894726639354,-25.46728187286102 73.05934564498057,-23.637154853956915 72.38947266386545,-21.13715485395626 73.05934564491128,-18.63715485393704 74.88947266381538,-16.80702783498221 77.38947266381604,-16.137154853867095" stroke="#ffa500" stroke-linecap="round" stroke-linejoin="round"/><polyline fill="none" points="331.630148609356,-158.14340245921036 334.1301486093752,-158.81327544025618 335.96027562833007,-160.64340245916028 336.6301486094452,-163.14340245916094 335.96027562839936,-165.64340245918015 334.1301486094953,-167.473529478135 331.63014860949465,-168.1434024592501 329.13014860947544,-167.47352947820428 327.3000215905206,-165.64340245930018 326.63014860940547,-163.14340245929952 327.3000215904513,-160.6434024592803 329.1301486093554,-158.81327544032547 331.63014860935607,-158.14340245921036" stroke="#00f" stroke-linecap="round" stroke-linejoin="round"/><polyline fill="none" points="-266.96440514920175,-134.16838098394595 -264.46440514918254,-134.83825396499176 -262.6342781302277,-136.66838098389587 -261.96440514911257,-139.16838098389653 -262.6342781301584,-141.66838098391574 -264.4644051490625,-143.49850800287058 -266.9644051490631,-144.16838098398568 -269.4644051490823,-143.49850800293987 -271.29453216803716,-141.66838098403576 -271.9644051491523,-139.1683809840351 -271.29453216810646,-136.6683809840159 -269.4644051492024,-134.83825396506106 -266.96440514920175,-134.16838098394592" stroke="#00f" stroke-linecap="round" stroke-linejoin="round"/><polyline fill="none" points="-201.97211820878647,-61.16943523500477 -199.47211820876726,-61.83930821605059 -197.64199118981242,-63.66943523495469 -196.97211820869728,-66.16943523495534 -197.6419911897431,-68.66943523497457 -199.4721182086472,-70.49956225392941 -201.97211820864786,-71.16943523504453 -204.47211820866707,-70.49956225399872 -206.3022452276219,-68.66943523509461 -206.97211820873704,-66.16943523509396 -206.30224522769123,-63.66943523507473 -204.47211820878712,-61.83930821611989 -201.97211820878647,-61.16943523500476" stroke="#00f" stroke-linecap="round" stroke-linejoin="round"/><polyline fill="none" points="-228.66639173519306,-124.52030750730557 -226.16639173517385,-125.19018048835139 -224.336264716219,-127.0203075072555 -223.66639173510387,-129.52030750725615 -224.33626471614969,-132.02030750727536 -226.1663917350538,-133.8504345262302 -228.66639173505445,-134.52030750734534 -231.16639173507366,-133.85043452629952 -232.9965187540285,-132.02030750739542 -233.66639173514363,-129.52030750739476 -232.99651875409782,-127.02030750737553 -231.1663917351937,-125.1901804884207 -228.66639173519306,-124.52030750730557" stroke="#ffa500" stroke-linecap="round" stroke-linejoin="round"/><polyline fill="none" points="-203.74497466144842,-12.32719244035465 -201.2449746614292,-12.997065421400464 -199.41484764247437,-14.827192440304565 -198.74497466135924,-17.327192440305218 -199.41484764240505,-19.827192440324445 -201.24497466130916,-21.657319459279286 -203.7449746613098,-22.327192440394413 -206.24497466132902,-21.6573194593486 -208.07510168028386,-19.827192440444502 -208.744974661399,-17.32719244044385 -208.07510168035319,-14.827192440424621 -206.24497466144908,-12.99706542146978 -203.74497466144842,-12.32719244035465" stroke="#ffa500" stroke-linecap="round" stroke-linejoin="round"/><polyline fill="none" points="-214.48104896386153,-87.69089738564786 -211.98104896384228,-88.36077036669367 -210.15092194488744,-90.19089738559776 -209.4810489637723,-92.69089738559842 -210.15092194481812,-95.19089738561765 -211.98104896372223,-97.02102440457249 -214.48104896372288,-97.69089738568762 -216.98104896374213,-97.0210244046418 -218.81117598269697,-95.19089738573771 -219.4810489638121,-92.69089738573706 -218.8111759827663,-90.19089738571783 -216.98104896386218,-88.36077036676299 -214.48104896386153,-87.69089738564786" stroke="#ffa500" stroke-linecap="round" stroke-linejoin="round"/><polyline fill="none" points="-278.2113092523921,-147.85937466998558 -275.71130925237287,-148.5292476510314 -273.88118223341803,-150.3593746699355 -273.2113092523029,-152.85937466993616 -273.8811822333487,-155.3593746699554 -275.71130925225276,-157.18950168891024 -278.21130925225344,-157.85937467002537 -280.71130925227266,-157.18950168897956 -282.5414362712275,-155.35937467007545 -283.21130925234263,-152.8593746700748 -282.54143627129685,-150.35937467005556 -280.71130925239277,-148.52924765110072 -278.2113092523921,-147.85937466998558" stroke="#00f" stroke-linecap="round" stroke-linejoin="round"/><polyline fill="none" points="-239.4442906959472,-96.70782746215376 -236.94429069592795,-97.37770044319957 -235.1141636769731,-99.20782746210367 -234.44429069585797,-101.70782746210432 -235.1141636769038,-104.20782746212355 -236.9442906958079,-106.0379544810784 -239.44429069580855,-106.70782746219353 -241.9442906958278,-106.03795448114774 -243.77441771478263,-104.20782746224364 -244.44429069589776,-101.70782746224299 -243.77441771485195,-99.20782746222376 -241.94429069594784,-97.3777004432689 -239.4442906959472,-96.70782746215377" stroke="#00f" stroke-linecap="round" stroke-linejoin="round"/><polyline fill="none" points="-221.37783883701044,6.776154202000312 -218.8778388369912,6.106281220954507 -217.04771181803636,4.276154202050414 -216.37783883692123,1.77615420204976 -217.04771181796704,-0.7238457979694721 -218.87783883687115,-2.5539728169243228 -221.3778388368718,-3.223845798039462 -223.87783883689104,-2.5539728169936593 -225.70796585584588,-0.7238457980895663 -226.37783883696102,1.7761542019110874 -225.7079658559152,4.27615420193032 -223.87783883701113,6.106281220885172 -221.37783883701047,6.776154202000312" stroke="#ffa500" stroke-linecap="round" stroke-linejoin="round"/><polyline fill="none" points="-285.3483225486368,-149.10960739379001 -282.8483225486176,-149.77948037483583 -281.01819552966276,-151.6096073937399 -280.3483225485476,-154.10960739374056 -281.0181955295934,-156.6096073937598 -282.8483225484975,-158.43973441271464 -285.3483225484981,-159.10960739382978 -287.84832254851733,-158.43973441278396 -289.67844956747217,-156.60960739387988 -290.3483225485873,-154.10960739387923 -289.6784495675415,-151.60960739386 -287.84832254863744,-149.77948037490515 -285.3483225486368,-149.10960739379001" stroke="#00f" stroke-linecap="round" stroke-linejoin="round"/><polyline fill="none" points="45.640600883535576,-23.9440529356145 48.14060088355481,-24.6139259166603 49.970727902509665,-26.44405293556439 50.640600883624806,-28.944052935565043 49.97072790257901,-31.444052935584278 48.140600883674914,-33.274179954539136 45.64060088367426,-33.944052935654284 43.140600883655026,-33.274179954608485 41.31047386470017,-31.444052935704395 40.64060088358502,-28.94405293570374 41.31047386463082,-26.444052935684507 43.140600883534916,-24.61392591672965 45.64060088353557,-23.944052935614504" stroke="#00f" stroke-linecap="round" stroke-linejoin="round"/><polyline fill="none" points="-202.78227778293416,-77.12654314333624 -200.28227778291492,-77.79641612438203 -198.45215076396005,-79.62654314328613 -197.78227778284491,-82.12654314328678 -198.4521507638907,-84.62654314330602 -200.28227778279478,-86.45667016226088 -202.78227778279543,-87.12654314337603 -205.28227778281467,-86.45667016233023 -207.11240480176954,-84.62654314342613 -207.7822777828847,-82.12654314342548 -207.11240480183892,-79.62654314340624 -205.28227778293484,-77.79641612445138 -202.7822777829342,-77.12654314333624" stroke="#ffa500" stroke-linecap="round" stroke-linejoin="round"/><polyline fill="none" points="-293.28331732257857,-127.92623288376964 -290.78331732255936,-128.59610586481543 -288.9531903036045,-130.4262328837195 -288.2833173224894,-132.92623288372016 -288.95319030353517,-135.4262328837394 -290.78331732243925,-137.25635990269427 -293.2833173224399,-137.92623288380943 -295.78331732245914,-137.25635990276365 -297.613444341414,-135.42623288385957 -298.2833173225291,-132.92623288385892 -297.61344434148333,-130.42623288383967 -295.78331732257925,-128.5961058648848 -293.28331732257857,-127.92623288376966" stroke="#ffa500" stroke-linecap="round" stroke-linejoin="round"/><polyline fill="none" points="-149.13468026180377,-82.21771564373972 -146.63468026178452,-82.88758862478551 -144.80455324282966,-84.7177156436896 -144.1346802617145,-87.21771564369025 -144.80455324276028,-89.7177156437095 -146.63468026166436,-91.54784266266437 -149.134680261665,-92.21771564377951 -151.63468026168425,-91.54784266273373 -153.46480728063912,-89.71771564382965 -154.13468026175428,-87.217715643829 -153.4648072807085,-84.71771564380975 -151.63468026180442,-82.88758862485489 -149.13468026180377,-82.21771564373974" stroke="#ffa500" stroke-linecap="round" stroke-linejoin="round"/><polyline fill="none" points="-273.45375543345136,-124.15239227350688 -270.95375543343215,-124.82226525455266 -269.1236284144773,-126.65239227345674 -268.4537554333622,-129.1523922734574 -269.12362841440796,-131.65239227347664 -270.95375543331204,-133.4825192924315 -273.4537554333127,-134.15239227354667 -275.95375543333193,-133.48251929250088 -277.7838824522868,-131.6523922735968 -278.4537554334019,-129.15239227359615 -277.7838824523561,-126.65239227357691 -275.95375543345205,-124.82226525462204 -273.4537554334514,-124.15239227350688" stroke="#00f" stroke-linecap="round" stroke-linejoin="round"/><polyline fill="none" points="-140.68441841751385,69.16340036580513 -138.1844184174946,68.49352738475935 -136.35429139853974,66.66340036585527 -135.68441841742458,64.16340036585461 -136.35429139847037,61.66340036583537 -138.18441841737445,59.8332733468805 -140.6844184173751,59.16340036576534 -143.18441841739434,59.833273346811126 -145.0145454363492,61.66340036571521 -145.68441841746437,64.16340036571587 -145.0145454364186,66.66340036573511 -143.1844184175145,68.49352738468998 -140.68441841751385,69.16340036580515" stroke="#ffa500" stroke-linecap="round" stroke-linejoin="round"/><polyline fill="none" points="-184.2239614884833,-76.59188661998873 -181.72396148846406,-77.26175960103451 -179.8938344695092,-79.09188661993859 -179.22396148839402,-81.59188661993925 -179.8938344694398,-84.09188661995849 -181.7239614883439,-85.92201363891336 -184.22396148834454,-86.59188662002852 -186.72396148836378,-85.92201363898273 -188.55408850731865,-84.09188662007865 -189.22396148843382,-81.591886620078 -188.55408850738803,-79.09188662005876 -186.72396148848395,-77.26175960110389 -184.2239614884833,-76.59188661998873" stroke="#ffa500" stroke-linecap="round" stroke-linejoin="round"/><polyline fill="none" points="303.8560314244213,-157.2181712112972 306.3560314244406,-157.888044192343 308.18615844339547,-159.71817121124707 308.85603142451066,-162.21817121124772 308.1861584434649,-164.71817121126696 306.3560314245608,-166.54829823022183 303.8560314245601,-167.218171211337 301.35603142454084,-166.5482982302912 299.52590440558595,-164.71817121138713 298.85603142447076,-162.21817121138648 299.52590440551654,-159.71817121136723 301.3560314244206,-157.88804419241237 303.8560314244213,-157.2181712112972" stroke="#ffa500" stroke-linecap="round" stroke-linejoin="round"/><polyline fill="none" points="-213.66889853990446,-119.61713192731325 -211.16889853988522,-120.28700490835904 -209.33877152093035,-122.11713192726312 -208.6688985398152,-124.61713192726377 -209.33877152086097,-127.11713192728301 -211.16889853976505,-128.9472589462379 -213.6688985397657,-129.61713192735306 -216.16889853978495,-128.94725894630727 -217.99902555873982,-127.1171319274032 -218.66889853985498,-124.61713192740254 -217.9990255588092,-122.1171319273833 -216.16889853990511,-120.28700490842843 -213.66889853990446,-119.61713192731327" stroke="#ffa500" stroke-linecap="round" stroke-linejoin="round"/><polyline fill="none" points="-146.06643739434332,-25.70308439350337 -143.56643739432408,-26.37295737454915 -141.73631037536921,-28.203084393453228 -141.06643739425405,-30.70308439345388 -141.73631037529984,-33.20308439347313 -143.56643739420392,-35.033211412428 -146.06643739420457,-35.70308439354317 -148.5664373942238,-35.033211412497394 -150.39656441317868,-33.203084393593315 -151.06643739429384,-30.70308439359266 -150.39656441324806,-28.203084393573413 -148.56643739434398,-26.372957374618533 -146.06643739434332,-25.70308439350336" stroke="#ffa500" stroke-linecap="round" stroke-linejoin="round"/><polyline fill="none" points="-247.21632325419657,-91.77551353392025 -244.71632325417733,-92.44538651496602 -242.88619623522246,-94.2755135338701 -242.2163232541073,-96.77551353387075 -242.88619623515308,-99.27551353389 -244.71632325405716,-101.10564055284489 -247.2163232540578,-101.77551353396007 -249.71632325407705,-101.1056405529143 -251.54645027303192,-99.27551353401022 -252.21632325414708,-96.77551353400956 -251.5464502731013,-94.2755135339903 -249.71632325419722,-92.44538651503542 -247.21632325419657,-91.77551353392025" stroke="#ffa500" stroke-linecap="round" stroke-linejoin="round"/><polyline fill="none" points="-145.03198850407688,-70.19363933435908 -142.53198850405764,-70.86351231540485 -140.70186148510277,-72.69363933430893 -140.0319885039876,-75.19363933430958 -140.7018614850334,-77.69363933432884 -142.53198850393747,-79.52376635328372 -145.03198850393812,-80.1936393343989 -147.53198850395736,-79.52376635335312 -149.36211552291223,-77.69363933444905 -150.0319885040274,-75.19363933444839 -149.36211552298164,-72.69363933442914 -147.53198850407756,-70.86351231547425 -145.0319885040769,-70.19363933435908" stroke="#ffa500" stroke-linecap="round" stroke-linejoin="round"/><polyline fill="none" points="-195.2296227241167,-94.41467280005568 -192.72962272409745,-95.08454578110145 -190.89949570514256,-96.91467280000553 -190.22962272402737,-99.41467280000619 -190.89949570507312,-101.91467280002544 -192.7296227239772,-103.74479981898033 -195.22962272397785,-104.4146728000955 -197.7296227239971,-103.74479981904973 -199.559749742952,-101.91467280014565 -200.22962272406718,-99.414672800145 -199.55974974302143,-96.91467280012574 -197.72962272411735,-95.08454578117086 -195.2296227241167,-94.41467280005568" stroke="#00f" stroke-linecap="round" stroke-linejoin="round"/><polyline fill="none" points="-225.63766210757478,-7.0890129932182155 -223.13766210755554,-7.7588859742639835 -221.30753508860064,-9.589012993168057 -220.63766210748545,-12.08901299316871 -221.3075350885312,-14.589012993187964 -223.1376621074353,-16.41914001214285 -225.63766210743594,-17.08901299325803 -228.13766210745518,-16.419140012212264 -229.96778912641008,-14.589012993308192 -230.63766210752527,-12.089012993307538 -229.96778912647952,-9.589012993288284 -228.13766210757544,-7.758885974333396 -225.63766210757478,-7.089012993218215" stroke="#00f" stroke-linecap="round" stroke-linejoin="round"/><polyline fill="none" points="-113.43857085544137,33.105993323479936 -110.93857085542211,32.43612034243417 -109.10844383646723,30.6059933235301 -108.43857085535205,28.105993323529447 -109.10844383639783,25.60599332351019 -110.93857085530189,23.7758663045553 -113.43857085530254,23.105993323440117 -115.9385708553218,23.77586630448588 -117.76869787427668,25.605993323389953 -118.43857085539187,28.105993323390607 -117.76869787434612,30.605993323409862 -115.93857085544205,32.43612034236475 -113.4385708554414,33.105993323479936" stroke="#ffa500" stroke-linecap="round" stroke-linejoin="round"/><polyline fill="none" points="-92.7346681679906,47.37759981139127 -90.23466816797135,46.70772683034551 -88.40454114901645,44.877599811441435 -87.73466816790126,42.37759981144078 -88.40454114894702,39.877599811421526 -90.23466816785108,38.047472792466635 -92.73466816785174,37.37759981135145 -95.23466816787099,38.047472792397215 -97.06479518682589,39.87759981130129 -97.73466816794108,42.37759981130194 -97.06479518689532,44.8775998113212 -95.23466816799126,46.70772683027609 -92.7346681679906,47.37759981139127" stroke="#ffa500" stroke-linecap="round" stroke-linejoin="round"/><polyline fill="none" points="319.8053701097736,-163.90463532029477 322.3053701097929,-164.57450830134053 324.1354971287478,-166.4046353202446 324.80537010986296,-168.90463532024526 324.1354971288172,-171.40463532026453 322.3053701099131,-173.23476233921943 319.8053701099124,-173.90463532033462 317.30537010989315,-173.23476233928886 315.47524309093825,-171.40463532038478 314.80537010982306,-168.90463532038413 315.47524309086884,-166.40463532036486 317.3053701097729,-164.57450830140996 319.8053701097736,-163.90463532029477" stroke="#ffa500" stroke-linecap="round" stroke-linejoin="round"/><polyline fill="none" points="-200.071648219764,-1.3324368372694622 -197.57164821974473,-2.0023098183152213 -195.74152120078983,-3.8324368372192894 -195.07164821967464,-6.332436837219944 -195.7415212007204,-8.832436837239204 -197.57164821962448,-10.6625638561941 -200.07164821962513,-11.33243683730929 -202.5716482196444,-10.662563856263532 -204.4017752385993,-8.832436837359465 -205.0716482197145,-6.332436837358811 -204.40177523866873,-3.8324368373395523 -202.57164821976465,-2.0023098183846555 -200.071648219764,-1.332436837269463" stroke="#ffa500" stroke-linecap="round" stroke-linejoin="round"/><polyline fill="none" points="52.52596281955562,-19.25614580433211 55.025962819574886,-19.926018785377867 56.85608983852978,-21.756145804281935 57.525962819644974,-24.25614580428259 56.85608983859922,-26.75614580430185 55.02596281969515,-28.586272823256746 52.5259628196945,-29.25614580437194 50.025962819675236,-28.586272823326183 48.19583580072034,-26.75614580442212 47.52596281960515,-24.256145804421465 48.195835800650904,-21.756145804402205 50.02596281955497,-19.926018785447305 52.52596281955562,-19.25614580433211" stroke="#ffa500" stroke-linecap="round" stroke-linejoin="round"/><polyline fill="none" points="322.5264327591867,-139.8089962875787 325.026432759206,-140.47886926862446 326.8565597781609,-142.30899628752854 327.5264327592761,-144.8089962875292 326.85655977823035,-147.30899628754847 325.02643275932627,-149.13912330650336 322.5264327593256,-149.80899628761856 320.0264327593063,-149.1391233065728 318.1963057403514,-147.30899628766872 317.52643275923623,-144.80899628766807 318.19630574028196,-142.3089962876488 320.02643275918604,-140.4788692686939 322.5264327591867,-139.8089962875787" stroke="#ffa500" stroke-linecap="round" stroke-linejoin="round"/><polyline fill="none" points="71.78674004905218,3.953177279561377 74.28674004907144,3.2833042985156244 76.11686706802634,1.45317727961156 76.78674004914154,-1.0468227203890945 76.11686706809579,-3.5468227204083576 74.28674004919172,-5.37694973936326 71.78674004919107,-6.046822720478459 69.2867400491718,-5.376949739432708 67.4566130302169,-3.5468227205286436 66.7867400491017,-1.046822720527989 67.45661303014745,1.4531772794912747 69.28674004905152,3.283304298446179 71.78674004905217,3.9531772795613795" stroke="#ffa500" stroke-linecap="round" stroke-linejoin="round"/><polyline fill="none" points="-123.55074394444512,-85.87403444938259 -121.05074394442585,-86.54390743042835 -119.22061692547095,-88.37403444933241 -118.55074394435574,-90.87403444933307 -119.22061692540149,-93.37403444935234 -121.05074394430555,-95.20416146830725 -123.5507439443062,-95.87403444942245 -126.05074394432548,-95.20416146837671 -127.88087096328039,-93.37403444947265 -128.55074394439558,-90.87403444947199 -127.88087096334984,-88.37403444945272 -126.05074394444577,-86.54390743049781 -123.55074394444512,-85.8740344493826" stroke="#ffa500" stroke-linecap="round" stroke-linejoin="round"/><polyline fill="none" points="-232.79399413524084,-119.42389994516951 -230.29399413522157,-120.09377292621525 -228.46386711626667,-121.92389994511932 -227.79399413515148,-124.42389994511997 -228.46386711619724,-126.92389994513924 -230.2939941351013,-128.75402696409415 -232.79399413510194,-129.42389994520934 -235.2939941351212,-128.7540269641636 -237.1241211540761,-126.92389994525952 -237.79399413519133,-124.42389994525887 -237.12412115414557,-121.9238999452396 -235.29399413524152,-120.09377292628469 -232.79399413524087,-119.42389994516948" stroke="#ffa500" stroke-linecap="round" stroke-linejoin="round"/><polyline fill="none" points="-121.45752076842149,-72.42383435815701 -118.95752076840222,-73.09370733920275 -117.12739374944731,-74.92383435810682 -116.4575207683321,-77.42383435810747 -117.12739374937784,-79.92383435812674 -118.95752076828191,-81.75396137708165 -121.45752076828256,-82.42383435819686 -123.95752076830183,-81.75396137715111 -125.78764778725674,-79.92383435824705 -126.45752076837195,-77.4238343582464 -125.78764778732621,-74.92383435822713 -123.95752076842214,-73.09370733927221 -121.45752076842149,-72.42383435815701" stroke="#ffa500" stroke-linecap="round" stroke-linejoin="round"/><polyline fill="none" points="-274.8482442664105,-102.62654281452505 -272.34824426639125,-103.2964157955708 -270.51811724743635,-105.12654281447485 -269.84824426632116,-107.6265428144755 -270.5181172473669,-110.12654281449477 -272.34824426627097,-111.95666983344968 -274.84824426627165,-112.62654281456489 -277.3482442662909,-111.95666983351914 -279.1783712852458,-110.12654281461509 -279.848244266361,-107.62654281461444 -279.1783712853153,-105.12654281459517 -277.3482442664112,-103.29641579564026 -274.8482442664106,-102.62654281452504" stroke="#008000" stroke-linecap="round" stroke-linejoin="round"/><polyline fill="none" points="-223.97617088984012,-49.34977644734355 -221.47617088982085,-50.01964942838929 -219.64604387086592,-51.84977644729335 -218.9761708897507,-54.349776447294005 -219.64604387079643,-56.849776447313275 -221.47617088970048,-58.67990346626819 -223.97617088970114,-59.349776447383405 -226.4761708897204,-58.67990346633767 -228.30629790867533,-56.84977644743361 -228.97617088979055,-54.34977644743296 -228.30629790874482,-51.84977644741369 -226.47617088984077,-50.01964942845877 -223.97617088984012,-49.34977644734356" stroke="#ffa500" stroke-linecap="round" stroke-linejoin="round"/><polyline fill="none" points="-184.33139004069105,-64.65278760598743 -181.83139004067178,-65.32266058703317 -180.00126302171685,-67.15278760593722 -179.33139004060163,-69.65278760593787 -180.00126302164736,-72.15278760595714 -181.8313900405514,-73.98291462491206 -184.33139004055207,-74.65278760602727 -186.83139004057134,-73.98291462498153 -188.66151705952626,-72.15278760607748 -189.33139004064148,-69.65278760607683 -188.66151705959575,-67.15278760605756 -186.8313900406917,-65.32266058710263 -184.33139004069105,-64.65278760598741" stroke="#ffa500" stroke-linecap="round" stroke-linejoin="round"/><polyline fill="none" points="-167.83301913189635,-50.5056110263545 -165.33301913187708,-51.175484007400236 -163.50289211292215,-53.00561102630429 -162.83301913180694,-55.50561102630494 -163.50289211285266,-58.00561102632421 -165.3330191317567,-59.83573804527913 -167.83301913175737,-60.50561102639435 -170.33301913177664,-59.83573804534861 -172.16314615073156,-58.00561102644456 -172.83301913184678,-55.50561102644391 -172.16314615080105,-53.00561102642463 -170.333019131897,-51.17548400746971 -167.83301913189635,-50.505611026354494" stroke="#ffa500" stroke-linecap="round" stroke-linejoin="round"/><polyline fill="none" points="-253.89215622529568,-42.71140113346994 -251.3921562252764,-43.381274114515676 -249.56202920632148,-45.21140113341973 -248.89215622520626,-47.71140113342038 -249.562029206252,-50.21140113343966 -251.39215622515604,-52.041528152394584 -253.8921562251567,-52.7114011335098 -256.392156225176,-52.041528152464075 -258.2222832441309,-50.211401133560024 -258.89215622524614,-47.71140113355937 -258.2222832442004,-45.21140113354009 -256.39215622529633,-43.38127411458517 -253.89215622529568,-42.71140113346994" stroke="#00f" stroke-linecap="round" stroke-linejoin="round"/><polyline fill="none" points="-269.88520573775753,-68.80142749610903 -267.38520573773826,-69.47130047715476 -265.55507871878336,-71.3014274960588 -264.8852057376681,-73.80142749605946 -265.55507871871384,-76.30142749607873 -267.3852057376179,-78.13155451503366 -269.8852057376186,-78.80142749614888 -272.3852057376379,-78.13155451510315 -274.2153327565928,-76.3014274961991 -274.885205737708,-73.80142749619844 -274.2153327566623,-71.30142749617917 -272.38520573775827,-69.47130047722425 -269.8852057377576,-68.80142749610903" stroke="#00f" stroke-linecap="round" stroke-linejoin="round"/><polyline fill="none" points="-260.4821736268333,-74.04593487290717 -257.982173626814,-74.7158078539529 -256.15204660785906,-76.54593487285695 -255.48217362674384,-79.0459348728576 -256.15204660778954,-81.54593487287687 -257.98217362669357,-83.3760618918318 -260.48217362669425,-84.04593487294703 -262.9821736267135,-83.3760618919013 -264.8123006456685,-81.54593487299725 -265.4821736267837,-79.0459348729966 -264.812300645738,-76.54593487297731 -262.98217362683397,-74.71580785402239 -260.4821736268333,-74.04593487290715" stroke="#ffa500" stroke-linecap="round" stroke-linejoin="round"/><polyline fill="none" points="-149.04469146292126,-17.519699646010228 -146.544691462902,-18.189572627055952 -144.71456444394707,-20.01969964596 -144.04469146283185,-22.519699645960653 -144.71456444387758,-25.01969964597993 -146.54469146278163,-26.84982666493486 -149.04469146278228,-27.51969964605009 -151.54469146280155,-26.849826665004365 -153.37481848175648,-25.019699646100317 -154.0446914628717,-22.519699646099664 -153.37481848182597,-20.019699646080387 -151.54469146292192,-18.189572627125457 -149.04469146292126,-17.519699646010224" stroke="#ffa500" stroke-linecap="round" stroke-linejoin="round"/><polyline fill="none" points="-97.74187968031168,38.41567336422334 -95.2418796802924,37.74580038317762 -93.41175266133747,35.91567336427357 -92.74187968022224,33.41567336427292 -93.41175266126797,30.915673364253642 -95.24187968017202,29.08554634529871 -97.74187968017267,28.415673364183476 -100.24187968019196,29.085546345229197 -102.0720066991469,30.91567336413324 -102.74187968026213,33.415673364133895 -102.07200669921642,35.91567336415317 -100.24187968031237,37.745800383108104 -97.74187968031171,38.41567336422334" stroke="#ffa500" stroke-linecap="round" stroke-linejoin="round"/><polyline fill="none" points="-231.12240353041423,-85.29802841787327 -228.62240353039496,-85.96790139891898 -226.79227651144004,-87.79802841782303 -226.1224035303248,-90.29802841782369 -226.79227651137052,-92.79802841784297 -228.62240353027457,-94.62815543679791 -231.12240353027522,-95.29802841791314 -233.6224035302945,-94.62815543686743 -235.45253054924942,-92.79802841796338 -236.12240353036466,-90.29802841796273 -235.45253054931894,-87.79802841794344 -233.62240353041489,-85.9679013989885 -231.12240353041423,-85.29802841787327" stroke="#00f" stroke-linecap="round" stroke-linejoin="round"/><polyline fill="none" points="-264.3628857771108,-105.3715273155552 -261.86288577709155,-106.04140029660091 -260.0327587581366,-107.87152731550495 -259.36288577702135,-110.3715273155056 -260.0327587580671,-112.87152731552489 -261.8628857769711,-114.70165433447983 -264.3628857769717,-115.37152731559506 -266.862885776991,-114.70165433454935 -268.69301279594595,-112.87152731564531 -269.3628857770612,-110.37152731564466 -268.69301279601547,-107.87152731562537 -266.86288577711144,-106.04140029667043 -264.3628857771108,-105.37152731555518" stroke="#00f" stroke-linecap="round" stroke-linejoin="round"/><polyline fill="none" points="-126.73809102545135,94.60763361336872 -124.23809102543207,93.937760632323 -122.40796400647713,92.10763361341897 -121.73809102536188,89.60763361341832 -122.4079640064076,87.10763361339903 -124.23809102531163,85.27750659444409 -126.73809102531229,84.60763361332884 -129.23809102533156,85.27750659437456 -131.0682180442865,87.1076336132786 -131.73809102540176,89.60763361327925 -131.06821804435606,92.10763361329853 -129.238091025452,93.93776063225347 -126.73809102545135,94.60763361336872" stroke="#ffa500" stroke-linecap="round" stroke-linejoin="round"/><polyline fill="none" points="-244.266346117379,-75.33716411054797 -241.7663461173597,-76.00703709159369 -239.93621909840473,-77.83716411049772 -239.2663461172895,-80.33716411049838 -239.9362190983352,-82.83716411051766 -241.76634611723924,-84.6672911294726 -244.2663461172399,-85.33716411058785 -246.7663461172592,-84.66729112954214 -248.59647313621414,-82.8371641106381 -249.2663461173294,-80.33716411063745 -248.5964731362837,-77.83716411061816 -246.76634611737964,-76.00703709166322 -244.266346117379,-75.33716411054797" stroke="#ffa500" stroke-linecap="round" stroke-linejoin="round"/><polyline fill="none" points="-272.7112733668646,-116.32529932513727 -270.2112733668453,-116.99517230618298 -268.38114634789036,-118.82529932508702 -267.7112733667751,-121.32529932508767 -268.38114634782085,-123.82529932510695 -270.21127336672487,-125.6554263440619 -272.71127336672555,-126.32529932517714 -275.2112733667448,-125.65542634413143 -277.0414003856998,-123.82529932522739 -277.711273366815,-121.32529932522674 -277.0414003857693,-118.82529932520745 -275.21127336686527,-116.99517230625251 -272.7112733668646,-116.32529932513727" stroke="#f00" stroke-linecap="round" stroke-linejoin="round"/><polyline fill="none" points="-238.22495448252425,-98.08508802428149 -235.72495448250496,-98.7549610053272 -233.89482746355,-100.58508802423124 -233.22495448243475,-103.0850880242319 -233.89482746348045,-105.58508802425118 -235.7249544823845,-107.41521504320613 -238.22495448238516,-108.08508802432138 -240.72495448240446,-107.41521504327568 -242.5550815013594,-105.58508802437164 -243.22495448247466,-103.08508802437099 -242.55508150142896,-100.5850880243517 -240.7249544825249,-98.75496100539675 -238.22495448252425,-98.0850880242815" stroke="#008000" stroke-linecap="round" stroke-linejoin="round"/><polyline fill="none" points="-224.42729181893887,-17.104670799824653 -221.92729181891957,-17.77454378087036 -220.09716479996462,-19.604670799774397 -219.42729181884937,-22.10467079977505 -220.09716479989507,-24.604670799794338 -221.9272918187991,-26.43479781874929 -224.42729181879974,-27.104670799864543 -226.92729181881904,-26.43479781881884 -228.757418837774,-24.604670799914803 -229.42729181888924,-22.10467079991415 -228.75741883784355,-19.60467079989486 -226.92729181893952,-17.774543780939908 -224.42729181893887,-17.104670799824653" stroke="#ffa500" stroke-linecap="round" stroke-linejoin="round"/><polyline fill="none" points="-214.81482636241793,-31.141970915538906 -212.31482636239863,-31.81184389658461 -210.48469934344368,-33.64197091548864 -209.81482636232843,-36.141970915489296 -210.48469934337413,-38.64197091550859 -212.31482636227815,-40.47209793446354 -214.8148263622788,-41.141970915578796 -217.3148263622981,-40.472097934533096 -219.14495338125306,-38.64197091562906 -219.8148263623683,-36.141970915628406 -219.1449533813226,-33.641970915609114 -217.3148263624186,-31.81184389665416 -214.81482636241793,-31.141970915538902" stroke="#ffa500" stroke-linecap="round" stroke-linejoin="round"/><polyline fill="none" points="-154.60699083649004,66.91164706716603 -152.10699083647074,66.24177408612033 -150.2768638175158,64.4116470672163 -149.60699083640054,61.91164706721564 -150.27686381744624,59.41164706719635 -152.10699083635026,57.581520048241394 -154.60699083635092,56.91164706712613 -157.10699083637022,57.58152004817183 -158.93711785532517,59.41164706707586 -159.60699083644042,61.911647067076515 -158.93711785539472,64.41164706709581 -157.1069908364907,66.24177408605077 -154.60699083649004,66.91164706716603" stroke="#00f" stroke-linecap="round" stroke-linejoin="round"/><polyline fill="none" points="-257.97634266279624,-59.10366332646166 -255.47634266277694,-59.77353630750736 -253.646215643822,-61.603663326411386 -252.97634266270674,-64.10366332641205 -253.64621564375244,-66.60366332643135 -255.47634266265646,-68.4337903453863 -257.97634266265715,-69.10366332650156 -260.4763426626764,-68.43379034545586 -262.30646968163137,-66.60366332655182 -262.9763426627466,-64.10366332655117 -262.30646968170095,-61.60366332653188 -260.4763426627969,-59.77353630757692 -257.97634266279624,-59.10366332646166" stroke="#00f" stroke-linecap="round" stroke-linejoin="round"/><polyline fill="none" points="-161.46915923345097,-15.65759825730105 -158.96915923343167,-16.327471238346746 -157.1390322144767,-18.157598257250775 -156.46915923336144,-20.65759825725143 -157.13903221440714,-23.157598257270724 -158.96915923331116,-24.98772527622568 -161.4691592333118,-25.657598257340947 -163.9691592333311,-24.987725276295254 -165.79928625228607,-23.157598257391225 -166.46915923340134,-20.65759825739057 -165.79928625235564,-18.157598257371276 -163.96915923345162,-16.327471238416315 -161.46915923345097,-15.65759825730105" stroke="#ffa500" stroke-linecap="round" stroke-linejoin="round"/><polyline fill="none" points="-209.57714438082772,-90.6440223851848 -207.07714438080842,-91.31389536623048 -205.24701736185347,-93.1440223851345 -204.5771443807382,-95.64402238513516 -205.2470173617839,-98.14402238515446 -207.0771443806879,-99.97414940410943 -209.57714438068857,-100.64402238522469 -212.07714438070786,-99.974149404179 -213.90727139966282,-98.14402238527498 -214.5771443807781,-95.64402238527433 -213.9072713997324,-93.14402238525503 -212.07714438082837,-91.31389536630006 -209.57714438082772,-90.64402238518478" stroke="#00f" stroke-linecap="round" stroke-linejoin="round"/><polyline fill="none" points="-218.91272453743852,-101.28524448316351 -216.41272453741922,-101.9551174642092 -214.58259751846427,-103.78524448311322 -213.912724537349,-106.28524448311387 -214.5825975183947,-108.78524448313317 -216.41272453729871,-110.61537150208814 -218.91272453729937,-111.28524448320341 -221.41272453731867,-110.61537150215773 -223.24285155627362,-108.7852444832537 -223.9127245373889,-106.28524448325305 -223.2428515563432,-103.78524448323375 -221.41272453743917,-101.95511746427879 -218.91272453743852,-101.28524448316351" stroke="#ffa500" stroke-linecap="round" stroke-linejoin="round"/><polyline fill="none" points="-245.62219526521653,-44.92567175546196 -243.12219526519723,-45.59554473650765 -241.29206824624228,-47.42567175541168 -240.622195265127,-49.92567175541233 -241.2920682461727,-52.42567175543163 -243.12219526507673,-54.2557987743866 -245.62219526507738,-54.925671755501874 -248.12219526509668,-54.25579877445619 -249.95232228405163,-52.425671755552166 -250.6221952651669,-49.92567175555151 -249.9523222841212,-47.425671755532214 -248.1221952652172,-45.595544736577246 -245.62219526521653,-44.92567175546197" stroke="#ffa500" stroke-linecap="round" stroke-linejoin="round"/><polyline fill="none" points="-241.45397931988344,-120.94258270072616 -238.95397931986415,-121.61245568177185 -237.12385230090916,-123.44258270067587 -236.4539793197939,-125.94258270067652 -237.12385230083956,-128.44258270069582 -238.95397931974358,-130.2727097196508 -241.45397931974423,-130.94258270076608 -243.95397931976353,-130.2727097197204 -245.78410633871852,-128.4425827008164 -246.4539793198338,-125.94258270081573 -245.78410633878812,-123.44258270079644 -243.9539793198841,-121.61245568184147 -241.45397931988344,-120.94258270072619" stroke="#ffa500" stroke-linecap="round" stroke-linejoin="round"/><polyline fill="none" points="-284.02136661331537,-131.40107061563103 -281.52136661329604,-132.0709435966767 -279.6912395943411,-133.90107061558072 -279.0213666132258,-136.40107061558138 -279.69123959427145,-138.90107061560067 -281.5213666131755,-140.73119763455566 -284.02136661317616,-141.40107061567093 -286.5213666131955,-140.73119763462526 -288.35149363215044,-138.90107061572124 -289.02136661326574,-136.40107061572058 -288.35149363222007,-133.9010706157013 -286.52136661331605,-132.0709435967463 -284.0213666133154,-131.40107061563103" stroke="#00f" stroke-linecap="round" stroke-linejoin="round"/><polyline fill="none" points="-185.37259745531702,17.637888037347594 -182.87259745529772,16.968015056301912 -181.04247043634274,15.13788803739789 -180.37259745522746,12.637888037397236 -181.04247043627313,10.137888037377932 -182.87259745517716,8.307761018422958 -185.3725974551778,7.637888037307676 -187.8725974551971,8.307761018353355 -189.7027244741521,10.137888037257378 -190.37259745526737,12.637888037258032 -189.7027244742217,15.137888037277335 -187.87259745531767,16.96801505623231 -185.37259745531702,17.637888037347594" stroke="#ffa500" stroke-linecap="round" stroke-linejoin="round"/><polyline fill="none" points="-285.6589673437963,-145.79339479302828 -283.15896734377696,-146.46326777407396 -281.328840324822,-148.29339479297798 -280.6589673437067,-150.79339479297863 -281.3288403247524,-153.29339479299793 -283.1589673436564,-155.1235218119529 -285.6589673436571,-155.7933947930682 -288.1589673436764,-155.12352181202252 -289.98909436263136,-153.2933947931185 -290.65896734374667,-150.79339479311784 -289.989094362701,-148.29339479309854 -288.158967343797,-146.46326777414356 -285.65896734379635,-145.79339479302828" stroke="#ffa500" stroke-linecap="round" stroke-linejoin="round"/><polyline fill="none" points="65.15524671958123,-2.884035323696466 67.65524671960054,-3.5539083047421416 69.48537373855552,-5.384035323646161 70.15524671967081,-7.884035323646815 69.48537373862514,-10.384035323666122 67.65524671972112,-12.214162342621101 65.15524671972047,-12.88403532373639 62.65524671970116,-12.214162342690717 60.82511970074618,-10.384035323786698 60.15524671963089,-7.884035323786044 60.82511970067656,-5.384035323766737 62.655246719580575,-3.553908304811756 65.15524671958123,-2.884035323696467" stroke="#ffa500" stroke-linecap="round" stroke-linejoin="round"/><polyline fill="none" points="-179.96133791998457,-46.60072550386434 -177.46133791996527,-47.27059848491001 -175.6312109010103,-49.100725503814026 -174.96133791989502,-51.60072550381468 -175.6312109009407,-54.100725503833985 -177.4613379198447,-55.93085252278897 -179.96133791984536,-56.60072550390426 -182.46133791986466,-55.930852522858586 -184.29146493881964,-54.10072550395457 -184.96133791993495,-51.60072550395392 -184.29146493888928,-49.10072550393461 -182.46133791998525,-47.27059848497963 -179.9613379199846,-46.60072550386434" stroke="#00f" stroke-linecap="round" stroke-linejoin="round"/><polyline fill="none" points="-260.0671601924497,-84.26426112289144 -257.5671601924304,-84.93413410393711 -255.7370331734754,-86.76426112284113 -255.0671601923601,-89.26426112284179 -255.73703317340576,-91.7642611228611 -257.56716019230976,-93.59438814181608 -260.06716019231044,-94.26426112293137 -262.56716019232977,-93.5943881418857 -264.3972872112848,-91.76426112298168 -265.0671601924001,-89.26426112298103 -264.3972872113544,-86.76426112296171 -262.5671601924504,-84.93413410400673 -260.0671601924497,-84.26426112289144" stroke="#00f" stroke-linecap="round" stroke-linejoin="round"/><polyline fill="none" points="-279.27385452868185,-122.5463047574895 -276.7738545286625,-123.21617773853517 -274.9437275097075,-125.04630475743917 -274.2738545285922,-127.54630475743983 -274.9437275096379,-130.04630475745913 -276.7738545285419,-131.8764317764141 -279.27385452854253,-132.5463047575294 -281.77385452856186,-131.87643177648374 -283.60398154751687,-130.04630475757972 -284.27385452863217,-127.54630475757907 -283.6039815475865,-125.04630475755975 -281.7738545286825,-123.21617773860477 -279.2738545286818,-122.54630475748947" stroke="#00f" stroke-linecap="round" stroke-linejoin="round"/><polyline fill="none" points="-127.16175023948907,78.26663577008371 -124.66175023946975,77.59676278903804 -122.83162322051477,75.76663577013403 -122.16175023939947,73.26663577013338 -122.83162322044514,70.76663577011406 -124.66175023934915,68.93650875115908 -127.1617502393498,68.26663577004378 -129.6617502393691,68.93650875108945 -131.49187725832408,70.76663576999346 -132.16175023943939,73.26663576999411 -131.4918772583937,75.76663577001342 -129.6617502394897,77.59676278896842 -127.16175023948904,78.26663577008372" stroke="#ffa500" stroke-linecap="round" stroke-linejoin="round"/><polyline fill="none" points="-263.60004468149754,-94.16436996245271 -261.1000446814782,-94.83424294349837 -259.2699176625232,-96.66436996240238 -258.6000446814079,-99.16436996240303 -259.26991766245357,-101.66436996242234 -261.1000446813576,-103.49449698137734 -263.6000446813582,-104.16436996249264 -266.10004468137754,-103.49449698144699 -267.93017170033255,-101.66436996254298 -268.60004468144786,-99.16436996254232 -267.9301717004022,-96.66436996252301 -266.10004468149816,-94.83424294356801 -263.6000446814975,-94.16436996245271" stroke="#ffa500" stroke-linecap="round" stroke-linejoin="round"/><polyline fill="none" points="-117.57339380662584,54.54951235518445 -115.07339380660653,53.87963937413879 -113.24326678765154,52.04951235523478 -112.57339380653623,49.54951235523413 -113.24326678758189,47.049512355214816 -115.0733938064859,45.21938533625982 -117.57339380648655,44.549512355144515 -120.07339380650586,45.21938533619017 -121.90352082546086,47.04951235509418 -122.57339380657616,49.54951235509483 -121.9035208255305,52.049512355114146 -120.0733938066265,53.87963937406914 -117.57339380662584,54.54951235518445" stroke="#ffa500" stroke-linecap="round" stroke-linejoin="round"/><polyline fill="none" points="-138.78074767825348,95.42478826588516 -136.28074767823415,94.7549152848395 -134.45062065927917,92.92478826593549 -133.78074767816386,90.42478826593484 -134.45062065920953,87.92478826591552 -136.28074767811356,86.09466124696053 -138.7807476781142,85.42478826584522 -141.28074767813354,86.09466124689088 -143.11087469708855,87.92478826579489 -143.78074767820385,90.42478826579554 -143.1108746971582,92.92478826581485 -141.2807476782542,94.75491528476985 -138.78074767825353,95.42478826588516" stroke="#ffa500" stroke-linecap="round" stroke-linejoin="round"/><polyline fill="none" points="-163.2125189016031,-66.14177844926924 -160.71251890158376,-66.8116514303149 -158.88239188262875,-68.6417784492189 -158.21251890151345,-71.14177844921956 -158.8823918825591,-73.64177844923887 -160.71251890146308,-75.47190546819387 -163.21251890146374,-76.14177844930917 -165.71251890148307,-75.47190546826351 -167.54264592043808,-73.6417784493595 -168.21251890155338,-71.14177844935885 -167.54264592050774,-68.64177844933954 -165.71251890160374,-66.81165143038454 -163.2125189016031,-66.14177844926922" stroke="#00f" stroke-linecap="round" stroke-linejoin="round"/><polyline fill="none" points="-275.05292547424256,-117.85073548510235 -272.55292547422323,-118.520608466148 -270.7227984552682,-120.35073548505201 -270.0529254741529,-122.85073548505267 -270.7227984551986,-125.35073548507198 -272.5529254741026,-127.18086250402698 -275.0529254741033,-127.8507354851423 -277.5529254741226,-127.18086250409664 -279.3830524930776,-125.35073548519263 -280.05292547419293,-122.85073548519198 -279.38305249314726,-120.35073548517265 -277.55292547424324,-118.52060846621765 -275.05292547424256,-117.85073548510233" stroke="#00f" stroke-linecap="round" stroke-linejoin="round"/><polyline fill="none" points="-270.8688238640414,-121.91272577634213 -268.3688238640221,-122.58259875738779 -266.5386968450671,-124.4127257762918 -265.8688238639518,-126.91272577629245 -266.53869684499745,-129.41272577631176 -268.36882386390147,-131.24285279526677 -270.8688238639021,-131.91272577638208 -273.3688238639214,-131.24285279533643 -275.19895088287643,-129.41272577643244 -275.86882386399174,-126.91272577643178 -275.19895088294606,-124.41272577641246 -273.36882386404204,-122.58259875745745 -270.86882386404136,-121.91272577634213" stroke="#ffa500" stroke-linecap="round" stroke-linejoin="round"/><polyline fill="none" points="-204.95528034606463,28.321755085077104 -202.4552803460453,27.651882104031458 -200.6251533270903,25.821755085127453 -199.95528034597498,23.3217550851268 -200.62515332702063,20.821755085107476 -202.45528034592462,18.99162806615247 -204.95528034592527,18.32175508503715 -207.4552803459446,18.991628066082797 -209.2854073648996,20.821755084986798 -209.95528034601494,23.32175508498745 -209.2854073649693,25.821755085006775 -207.4552803460653,27.651882103961782 -204.95528034606465,28.321755085077104" stroke="#ffa500" stroke-linecap="round" stroke-linejoin="round"/><polyline fill="none" points="-139.8789454215271,82.58214098287091 -137.37894542150778,81.91226800182527 -135.54881840255277,80.08214098292126 -134.87894542143744,77.5821409829206 -135.54881840248308,75.08214098290128 -137.37894542138707,73.25201396394627 -139.87894542138773,72.58214098283095 -142.37894542140705,73.25201396387659 -144.20907244036206,75.0821409827806 -144.8789454214774,77.58214098278125 -144.20907244043175,80.08214098280058 -142.37894542152776,81.91226800175559 -139.8789454215271,82.58214098287091" stroke="#ffa500" stroke-linecap="round" stroke-linejoin="round"/><polyline fill="none" points="-237.04800574179637,-23.500213415395287 -234.54800574177705,-24.17008639644093 -232.71787872282204,-26.00021341534493 -232.0480057417067,-28.500213415345584 -232.71787872275235,-31.00021341536491 -234.54800574165634,-32.83034043431992 -237.048005741657,-33.50021341543525 -239.54800574167632,-32.830340434389605 -241.37813276063133,-31.000213415485604 -242.04800574174666,-28.50021341548495 -241.37813276070102,-26.000213415465623 -239.54800574179703,-24.17008639651061 -237.04800574179637,-23.500213415395283" stroke="#00f" stroke-linecap="round" stroke-linejoin="round"/><polyline fill="none" points="-220.6644421701507,-22.388426922258862 -218.16444217013137,-23.0582999033045 -216.33431515117636,-24.888426922208502 -215.66444217006102,-27.388426922209156 -216.33431515110667,-29.888426922228483 -218.16444217001066,-31.718553941183497 -220.6644421700113,-32.38842692229883 -223.16444217003064,-31.718553941253187 -224.99456918898565,-29.88842692234919 -225.66444217010098,-27.388426922348536 -224.99456918905534,-24.88842692232921 -223.16444217015135,-23.058299903374195 -220.6644421701507,-22.388426922258866" stroke="#ffa500" stroke-linecap="round" stroke-linejoin="round"/><polyline fill="none" points="-254.984360560532,-126.9294746851694 -252.48436056051267,-127.59934766621504 -250.65423354155766,-129.42947468511903 -249.98436056044233,-131.9294746851197 -250.65423354148797,-134.429474685139 -252.48436056039196,-136.25960170409402 -254.98436056039262,-136.92947468520936 -257.484360560412,-136.2596017041637 -259.314487579367,-134.42947468525972 -259.9843605604823,-131.92947468525907 -259.3144875794367,-129.42947468523974 -257.48436056053265,-127.59934766628471 -254.984360560532,-126.92947468516938" stroke="#00f" stroke-linecap="round" stroke-linejoin="round"/><polyline fill="none" points="-255.4444899930607,-101.43471437937335 -252.94448999304137,-102.10458736041898 -251.11436297408636,-103.93471437932297 -250.44448999297103,-106.43471437932362 -251.11436297401667,-108.93471437934295 -252.94448999292067,-110.76484139829797 -255.44448999292132,-111.43471437941331 -257.94448999294065,-110.76484139836768 -259.77461701189566,-108.93471437946368 -260.444489993011,-106.43471437946303 -259.7746170119654,-103.9347143794437 -257.9444899930614,-102.10458736048868 -255.44448999306073,-101.43471437937335" stroke="#ffa500" stroke-linecap="round" stroke-linejoin="round"/><polyline fill="none" points="-277.897781854197,-113.3735399841174 -275.39778185417765,-114.04341296516303 -273.56765483522264,-115.87353998406702 -272.8977818541073,-118.37353998406768 -273.5676548351529,-120.873539984087 -275.3977818540569,-122.70366700304203 -277.8977818540576,-123.37353998415736 -280.3977818540769,-122.70366700311173 -282.22790887303194,-120.87353998420774 -282.8977818541473,-118.37353998420708 -282.2279088731017,-115.87353998418776 -280.39778185419766,-114.04341296523273 -277.897781854197,-113.3735399841174" stroke="#008000" stroke-linecap="round" stroke-linejoin="round"/><polyline fill="none" points="-108.77147736813032,44.80981712132387 -106.271477368111,44.13994414027824 -104.44135034915597,42.309817121374245 -103.77147736804064,39.80981712137359 -104.44135034908626,37.30981712135426 -106.27147736799026,35.47969010239923 -108.77147736799091,34.80981712128389 -111.27147736801024,35.47969010232952 -113.10160438696526,37.309817121233515 -113.77147736808061,39.80981712123417 -113.10160438703498,42.3098171212535 -111.27147736813099,44.13994414020853 -108.77147736813033,44.80981712132387" stroke="#ffa500" stroke-linecap="round" stroke-linejoin="round"/><polyline fill="none" points="64.74399735579269,-16.03713125787215 67.24399735581201,-16.70700423891778 69.07412437476704,-18.537131257821773 69.74399735588239,-21.037131257822427 69.07412437483676,-23.53713125784176 67.24399735593276,-25.36725827679679 64.74399735593211,-26.037131257912133 62.243997355912775,-25.367258276866508 60.41387033695775,-23.537131257962518 59.74399735584241,-21.037131257961864 60.41387033688804,-18.53713125794253 62.24399735579203,-16.7070042389875 64.74399735579269,-16.037131257872158" stroke="#ffa500" stroke-linecap="round" stroke-linejoin="round"/><polyline fill="none" points="-255.80141981601074,-113.57284407660403 -253.3014198159914,-114.24271705764966 -251.47129279703637,-116.07284407655365 -250.80141981592104,-118.5728440765543 -251.47129279696665,-121.07284407657365 -253.30141981587064,-122.90297109552867 -255.8014198158713,-123.57284407664402 -258.30141981589065,-122.90297109559839 -260.13154683484566,-121.0728440766944 -260.801419815961,-118.57284407669374 -260.1315468349154,-116.0728440766744 -258.30141981601145,-114.24271705771937 -255.8014198160108,-113.57284407660403" stroke="#ffa500" stroke-linecap="round" stroke-linejoin="round"/><polyline fill="none" points="-294.08791529249294,-103.91149419281253 -291.5879152924736,-104.58136717385815 -289.7577882735186,-106.41149419276215 -289.08791529240324,-108.9114941927628 -289.75778827344885,-111.41149419278214 -291.5879152923528,-113.24162121173717 -294.0879152923535,-113.91149419285252 -296.5879152923728,-113.24162121180689 -298.41804231132784,-111.4114941929029 -299.0879152924432,-108.91149419290224 -298.4180423113976,-106.4114941928829 -296.5879152924936,-104.58136717392786 -294.08791529249294,-103.91149419281251" stroke="#00f" stroke-linecap="round" stroke-linejoin="round"/><polyline fill="none" points="-278.15934733932556,-150.2250497750142 -275.65934733930624,-150.89492275605983 -273.8292203203512,-152.72504977496382 -273.15934733923586,-155.22504977496448 -273.8292203202815,-157.7250497749838 -275.65934733918544,-159.55517679393884 -278.1593473391861,-160.2250497750542 -280.65934733920545,-159.5551767940086 -282.48947435816046,-157.7250497751046 -283.1593473392758,-155.22504977510394 -282.4894743582302,-152.7250497750846 -280.65934733932625,-150.89492275612957 -278.15934733932556,-150.2250497750142" stroke="#ffa500" stroke-linecap="round" stroke-linejoin="round"/><polyline fill="none" points="-273.17064178782334,-126.95969751528125 -270.670641787804,-127.62957049632686 -268.840514768849,-129.45969751523086 -268.17064178773364,-131.9596975152315 -268.84051476877926,-134.45969751525084 -270.6706417876832,-136.28982453420588 -273.1706417876839,-136.95969751532124 -275.67064178770323,-136.28982453427562 -277.50076880665824,-134.45969751537163 -278.1706417877736,-131.95969751537098 -277.500768806728,-129.45969751535162 -275.670641787824,-127.62957049639658 -273.17064178782334,-126.95969751528122" stroke="#008000" stroke-linecap="round" stroke-linejoin="round"/><polyline fill="none" points="-198.84728601609672,16.113565335028582 -196.34728601607736,15.443692353982966 -194.51715899712232,13.61356533507898 -193.84728601600696,11.113565335078324 -194.51715899705258,8.613565335058983 -196.34728601595657,6.783438316103943 -198.84728601595722,6.113565334988587 -201.34728601597658,6.783438316034202 -203.17741303493162,8.613565334938187 -203.84728601604698,11.113565334938842 -203.17741303500136,13.613565334958185 -201.34728601609737,15.443692353913226 -198.84728601609672,16.113565335028586" stroke="#ffa500" stroke-linecap="round" stroke-linejoin="round"/><polyline fill="none" points="-246.0974030821337,-29.75402301020675 -243.59740308211434,-30.423895991252365 -241.7672760631593,-32.25402301015635 -241.09740308204394,-34.754023010157006 -241.76727606308955,-37.25402301017635 -243.59740308199355,-39.084150029131386 -246.0974030819942,-39.75402301024675 -248.59740308201356,-39.08415002920113 -250.4275301009686,-37.254023010297146 -251.09740308208396,-34.75402301029649 -250.42753010103834,-32.254023010277145 -248.59740308213435,-30.4238959913221 -246.0974030821337,-29.75402301020674" stroke="#ffa500" stroke-linecap="round" stroke-linejoin="round"/><polyline fill="none" points="-227.41179507965575,-115.2377507906374 -224.9117950796364,-115.90762377168302 -223.08166806068135,-117.737750790587 -222.411795079566,-120.23775079058765 -223.0816680606116,-122.737750790607 -224.9117950795156,-124.56787780956203 -227.41179507951625,-125.2377507906774 -229.9117950795356,-124.56787780963178 -231.74192209849065,-122.7377507907278 -232.411795079606,-120.23775079072715 -231.7419220985604,-117.7377507907078 -229.9117950796564,-115.90762377175275 -227.41179507965575,-115.23775079063739" stroke="#ffa500" stroke-linecap="round" stroke-linejoin="round"/><polyline fill="none" points="-287.6317438554178,-116.68922890223976 -285.1317438553985,-117.35910188328538 -283.30161683644343,-119.18922890218936 -282.63174385532807,-121.68922890219001 -283.3016168363737,-124.18922890220935 -285.13174385527765,-126.0193559211644 -287.63174385527833,-126.68922890227977 -290.13174385529766,-126.01935592123415 -291.9618708742527,-124.18922890233017 -292.6317438553681,-121.68922890232952 -291.96187087432247,-119.18922890231016 -290.1317438554185,-117.35910188335511 -287.6317438554178,-116.68922890223975" stroke="#00f" stroke-linecap="round" stroke-linejoin="round"/><polyline fill="none" points="-248.07547237362064,-114.993404245866 -245.5754723736013,-115.6632772269116 -243.74534535464625,-117.49340424581558 -243.07547237353089,-119.99340424581624 -243.7453453545765,-122.49340424583559 -245.5754723734805,-124.32353126479065 -248.07547237348115,-124.99340424590602 -250.5754723735005,-124.32353126486042 -252.40559939245554,-122.49340424595644 -253.0754723735709,-119.99340424595579 -252.4055993925253,-117.49340424593643 -250.5754723736213,-115.66327722698138 -248.07547237362064,-114.993404245866" stroke="#00f" stroke-linecap="round" stroke-linejoin="round"/><polyline fill="none" points="-148.4477097223414,-54.12001975085937 -145.94770972232203,-54.78989273190498 -144.117582703367,-56.62001975080896 -143.44770972225163,-59.12001975080961 -144.11758270329724,-61.62001975082896 -145.94770972220124,-63.45014676978401 -148.4477097222019,-64.12001975089939 -150.94770972222125,-63.45014676985379 -152.7778367411763,-61.62001975094981 -153.44770972229165,-59.120019750949155 -152.77783674124603,-56.620019750929806 -150.94770972234207,-54.78989273197475 -148.44770972234141,-54.12001975085938" stroke="#ffa500" stroke-linecap="round" stroke-linejoin="round"/><polyline fill="none" points="-231.00171286830977,-90.18518130563157 -228.5017128682904,-90.85505428667717 -226.67158584933534,-92.68518130558115 -226.00171286821998,-95.1851813055818 -226.6715858492656,-97.68518130560116 -228.50171286816956,-99.51530832455622 -231.00171286817022,-100.18518130567159 -233.50171286818957,-99.51530832462599 -235.33183988714464,-97.68518130572201 -236.00171286826,-95.18518130572136 -235.3318398872144,-92.685181305702 -233.50171286831042,-90.85505428674695 -231.00171286830977,-90.18518130563157" stroke="#ffa500" stroke-linecap="round" stroke-linejoin="round"/><polyline fill="none" points="-238.85015694414363,-37.474904696056505 -236.35015694412428,-38.144777677102105 -234.5200299251692,-39.974904696006085 -233.85015694405385,-42.474904696006746 -234.52002992509946,-44.9749046960261 -236.35015694400343,-46.80503171498116 -238.85015694400408,-47.47490469609654 -241.35015694402344,-46.80503171505094 -243.1802839629785,-44.97490469614696 -243.8501569440939,-42.4749046961463 -243.1802839630483,-39.97490469612694 -241.35015694414435,-38.14477767717188 -238.8501569441437,-37.474904696056505" stroke="#ffa500" stroke-linecap="round" stroke-linejoin="round"/><polyline fill="none" points="-236.31504981216267,-105.383372681804 -233.81504981214331,-106.0532456628496 -231.98492279318825,-107.88337268175358 -231.31504981207286,-110.38337268175424 -231.98492279311844,-112.8833726817736 -233.8150498120224,-114.71349970072865 -236.31504981202306,-115.38337268184402 -238.81504981204242,-114.71349970079842 -240.64517683099749,-112.88337268189444 -241.31504981211287,-110.38337268189379 -240.6451768310673,-107.88337268187443 -238.81504981216332,-106.05324566291937 -236.31504981216267,-105.38337268180399" stroke="#00f" stroke-linecap="round" stroke-linejoin="round"/><polyline fill="none" points="-133.03113144589167,28.77161732938307 -130.53113144587232,28.101744348337473 -128.70100442691725,26.271617329433496 -128.03113144580186,23.77161732943284 -128.70100442684745,21.27161732941348 -130.5311314457514,19.441490310458416 -133.03113144575207,18.771617329343034 -135.53113144577142,19.441490310388627 -137.3612584647265,21.271617329292603 -138.03113144584188,23.77161732929326 -137.3612584647963,26.27161732931262 -135.53113144589233,28.101744348267683 -133.03113144589167,28.771617329383066" stroke="#00f" stroke-linecap="round" stroke-linejoin="round"/><polyline fill="none" points="-226.23364055847412,-36.757295553622676 -223.73364055845477,-37.42716853466827 -221.9035135394997,-39.25729555357224 -221.2336405583843,-41.7572955535729 -221.9035135394299,-44.25729555359226 -223.73364055833386,-46.087422572547325 -226.2336405583345,-46.75729555366271 -228.73364055835387,-46.087422572617115 -230.56376757730894,-44.25729555371314 -231.23364055842433,-41.75729555371248 -230.56376757737874,-39.25729555369312 -228.73364055847478,-37.42716853473805 -226.23364055847412,-36.75729555362267" stroke="#ffa500" stroke-linecap="round" stroke-linejoin="round"/><polyline fill="none" points="-275.2211385391413,-110.00174637614502 -272.7211385391219,-110.67161935719061 -270.89101152016684,-112.50174637609459 -270.2211385390515,-115.00174637609524 -270.8910115200971,-117.5017463761146 -272.72113853900106,-119.33187339506966 -275.22113853900174,-120.00174637618505 -277.7211385390211,-119.33187339513947 -279.5512655579762,-117.5017463762355 -280.22113853909156,-115.00174637623485 -279.55126555804594,-112.5017463762155 -277.721138539142,-110.67161935726043 -275.2211385391413,-110.00174637614504" stroke="#008000" stroke-linecap="round" stroke-linejoin="round"/><polyline fill="none" points="-289.0500481844718,-111.6505886978974 -286.5500481844524,-112.32046167894299 -284.71992116549734,-114.15058869784696 -284.050048184382,-116.65058869784761 -284.7199211654276,-119.15058869786697 -286.55004818433156,-120.98071571682203 -289.05004818433224,-121.65058869793742 -291.5500481843516,-120.98071571689184 -293.3801752033067,-119.15058869798787 -294.0500481844221,-116.65058869798722 -293.3801752033765,-114.15058869796786 -291.55004818447253,-112.3204616790128 -289.05004818447185,-111.6505886978974" stroke="#ffa500" stroke-linecap="round" stroke-linejoin="round"/><polyline fill="none" points="316.2725138755228,-151.96017455557256 318.7725138755422,-152.63004753661815 320.60264089449726,-154.46017455552212 321.2725138756127,-156.96017455552277 320.6026408945671,-159.46017455554212 318.77251387566315,-161.2903015744972 316.27251387566247,-161.96017455561258 313.7725138756431,-161.290301574567 311.942386856688,-159.46017455566303 311.2725138755726,-156.96017455566238 311.94238685661816,-154.46017455564302 313.7725138755221,-152.63004753668795 316.2725138755228,-151.96017455557256" stroke="#ffa500" stroke-linecap="round" stroke-linejoin="round"/></svg>