<?xml version="1.0" ?><!DOCTYPE svg  PUBLIC '-//W3C//DTD SVG 1.1//EN'  'http://www.w3.org/Graphics/SVG/1.1/DTD/svg11.dtd'><svg height="302.000" viewBox="-366.000 -200.000 750.000 302.000" width="750.000" xmlns="http://www.w3.org/2000/svg"><line fill="none" stroke="none" stroke-linecap="round" stroke-width="2.0" x1="0.0" x2="0.0" y1="0.0" y2="0.0"/><polygon fill="none" fill-rule="evenodd" points="0.0,0.0 0.0,0.0 0.0,0.0" stroke-linejoin="round"/><polyline fill="none" points="-321.01077461134054,-146.27404988223313 -318.51077461131865,-146.94392286327457 -316.6806475923593,-148.7740498821762 -316.01077461123907,-151.27404988217694 -316.6806475922805,-153.7740498821988 -318.5107746111821,-155.60417690115813 -321.01077461118285,-156.27404988227838 -323.51077461120474,-155.60417690123694 -325.34090163016407,-153.7740498823353 -326.0107746112843,-151.27404988233457 -325.3409016302429,-148.7740498823127 -323.5107746113413,-146.94392286335338 -321.01077461134054,-146.27404988223313" stroke="#00f" stroke-linecap="round" stroke-linejoin="round"/><polyline fill="none" points="-308.4739887443153,-139.74346522543433 -305.9739887442934,-140.41333820647577 -304.1438617253341,-142.2434652253774 -303.47398874421384,-144.74346522537815 -304.14386172525525,-147.24346522540003 -305.9739887441569,-149.07359224435936 -308.4739887441576,-149.7434652254796 -310.9739887441795,-149.07359224443817 -312.80411576313884,-147.24346522553654 -313.4739887442591,-144.7434652255358 -312.8041157632177,-142.24346522551392 -310.97398874431605,-140.41333820655458 -308.4739887443153,-139.74346522543433" stroke="#008000" stroke-linecap="round" stroke-linejoin="round"/><polyline fill="none" points="-238.82862610506035,-115.70882996423362 -236.32862610503847,-116.37870294527504 -234.49849908607914,-118.20882996417666 -233.8286261049589,-120.70882996417741 -234.49849908600032,-123.20882996419928 -236.32862610490196,-125.03895698315861 -238.8286261049027,-125.70882996427886 -241.32862610492458,-125.03895698323744 -243.1587531238839,-123.20882996433582 -243.82862610500416,-120.70882996433507 -243.15875312396273,-118.2088299643132 -241.3286261050611,-116.37870294535387 -238.82862610506035,-115.70882996423362" stroke="#ffa500" stroke-linecap="round" stroke-linejoin="round"/><polyline fill="none" points="-303.6477583436772,-154.8111635613442 -301.1477583436553,-155.48103654238562 -299.317631324696,-157.31116356128726 -298.64775834357573,-159.811163561288 -299.31763132461714,-162.31116356130988 -301.1477583435188,-164.1412905802692 -303.6477583435195,-164.81116356138946 -306.1477583435414,-164.14129058034803 -307.97788536250073,-162.3111635614464 -308.647758343621,-159.81116356144565 -307.97788536257957,-157.31116356142377 -306.14775834367794,-155.48103654246444 -303.6477583436772,-154.8111635613442" stroke="#008000" stroke-linecap="round" stroke-linejoin="round"/><polyline fill="none" points="-326.30043503395365,-109.7186942581085 -323.80043503393176,-110.38856723914992 -321.97030801497243,-112.21869425805154 -321.3004350338522,-114.7186942580523 -321.9703080148936,-117.21869425807417 -323.8004350337952,-119.0488212770335 -326.30043503379596,-119.71869425815375 -328.80043503381785,-119.04882127711232 -330.6305620527772,-117.2186942582107 -331.30043503389743,-114.71869425820995 -330.630562052856,-112.21869425818808 -328.8004350339544,-110.38856723922875 -326.30043503395365,-109.71869425810848" stroke="#00f" stroke-linecap="round" stroke-linejoin="round"/><polyline fill="none" points="-349.5533957171404,-174.1290899954741 -347.0533957171185,-174.7989629765155 -345.2232686981592,-176.6290899954171 -344.55339571703894,-179.12908999541784 -345.22326869808035,-181.62908999543973 -347.053395716982,-183.45921701439906 -349.5533957169827,-184.1290899955193 -352.0533957170046,-183.4592170144779 -353.88352273596394,-181.6290899955763 -354.5533957170842,-179.12908999557555 -353.8835227360428,-176.62908999555367 -352.05339571714114,-174.79896297659434 -349.5533957171404,-174.1290899954741" stroke="#00f" stroke-linecap="round" stroke-linejoin="round"/><polyline fill="none" points="343.4097126919801,-147.61230062458563 345.90971269200196,-148.28217360562704 347.7398397109613,-150.11230062452864 348.40971269208154,-152.61230062452938 347.73983971104013,-155.11230062455127 345.9097126921385,-156.9424276435106 343.40971269213776,-157.61230062463085 340.9097126921159,-156.94242764358944 339.07958567315654,-155.11230062468783 338.4097126920363,-152.6123006246871 339.0795856730777,-150.1123006246652 340.90971269197934,-148.28217360570588 343.4097126919801,-147.6123006245856" stroke="#ffa500" stroke-linecap="round" stroke-linejoin="round"/><polyline fill="none" points="-339.9389302419152,-127.95578006559964 -337.43893024189333,-128.62565304664105 -335.608803222934,-130.45578006554265 -334.93893024181375,-132.9557800655434 -335.60880322285516,-135.45578006556528 -337.4389302417568,-137.2859070845246 -339.93893024175753,-137.9557800656449 -342.4389302417794,-137.28590708460348 -344.26905726073875,-135.45578006570187 -344.938930241859,-132.95578006570113 -344.2690572608176,-130.45578006567925 -342.43893024191595,-128.62565304671992 -339.9389302419152,-127.95578006559965" stroke="#00f" stroke-linecap="round" stroke-linejoin="round"/><polyline fill="none" points="78.36549397719996,-32.67360475471784 80.86549397722185,-33.34347773575925 82.69562099618119,-35.173604754660865 83.36549397730145,-37.67360475466162 82.69562099626005,-40.1736047546835 80.86549397735843,-42.00373177364285 78.36549397735767,-42.67360475476312 75.86549397733579,-42.00373177372171 74.03536695837644,-40.1736047548201 73.36549397725618,-37.673604754819344 74.03536695829759,-35.17360475479746 75.86549397719921,-33.343477735838114 78.36549397719996,-32.67360475471784" stroke="#ffa500" stroke-linecap="round" stroke-linejoin="round"/><polyline fill="none" points="366.52627444385257,-169.20451479678326 369.02627444387446,-169.87438777782467 370.8564014628338,-171.70451479672627 371.52627444395404,-174.204514796727 370.85640146291263,-176.7045147967489 369.026274444011,-178.53464181570823 366.52627444401026,-179.2045147968285 364.02627444398837,-178.5346418157871 362.19614742502904,-176.7045147968855 361.5262744439088,-174.20451479688475 362.1961474249502,-171.70451479686287 364.02627444385183,-169.8743877779035 366.52627444385257,-169.20451479678323" stroke="#00f" stroke-linecap="round" stroke-linejoin="round"/><polyline fill="none" points="-338.8211476830178,-176.0002837733914 -336.3211476829959,-176.6701567544328 -334.49102066403657,-178.50028377333442 -333.8211476829163,-181.00028377333516 -334.4910206639577,-183.50028377335704 -336.32114768285936,-185.3304107923164 -338.8211476828601,-186.00028377343668 -341.321147682882,-185.33041079239527 -343.1512747018413,-183.50028377349366 -343.82114768296157,-181.00028377349292 -343.15127470192016,-178.50028377347104 -341.3211476830185,-176.67015675451168 -338.8211476830178,-176.0002837733914" stroke="#00f" stroke-linecap="round" stroke-linejoin="round"/><polyline fill="none" points="-253.6249193179819,-80.60945650215004 -251.12491931796,-81.27932948319145 -249.29479229900065,-83.10945650209305 -248.62491931788037,-85.6094565020938 -249.29479229892178,-88.10945650211569 -251.12491931782338,-89.93958352107504 -253.62491931782415,-90.60945650219531 -256.12491931784604,-89.9395835211539 -257.95504633680537,-88.1094565022523 -258.6249193179256,-85.60945650225155 -257.9550463368842,-83.10945650222966 -256.1249193179826,-81.27932948327032 -253.62491931798183,-80.60945650215004" stroke="#00f" stroke-linecap="round" stroke-linejoin="round"/><polyline fill="none" points="-282.10109097321254,-149.02888917438926 -279.60109097319065,-149.69876215543067 -277.7709639542313,-151.52888917433228 -277.101090973111,-154.02888917433302 -277.7709639541524,-156.5288891743549 -279.60109097305406,-158.35901619331426 -282.1010909730548,-159.02888917443454 -284.6010909730767,-158.35901619339313 -286.431217992036,-156.52888917449152 -287.1010909731563,-154.02888917449076 -286.4312179921149,-151.52888917446887 -284.6010909732133,-149.6987621555095 -282.10109097321254,-149.02888917438923" stroke="#ffa500" stroke-linecap="round" stroke-linejoin="round"/><polyline fill="none" points="-242.36278549387262,-40.83972384824086 -239.86278549385074,-41.50959682928226 -238.03265847489138,-43.339723848183866 -237.3627854937711,-45.83972384818462 -238.0326584748125,-48.33972384820651 -239.8627854937141,-50.16985086716586 -242.36278549371485,-50.83972384828615 -244.86278549373674,-50.16985086724475 -246.6929125126961,-48.33972384834314 -247.36278549381638,-45.83972384834239 -246.69291251277497,-43.339723848320496 -244.86278549387336,-41.50959682936114 -242.36278549387262,-40.83972384824086" stroke="#ffa500" stroke-linecap="round" stroke-linejoin="round"/><polyline fill="none" points="-243.5311549120952,-104.46719405058933 -241.0311549120733,-105.13706703163072 -239.20102789311395,-106.96719405053233 -238.53115491199367,-109.46719405053308 -239.20102789303508,-111.96719405055497 -241.03115491193668,-113.79732106951433 -243.53115491193742,-114.4671940506346 -246.0311549119593,-113.79732106959321 -247.86128193091866,-111.9671940506916 -248.53115491203894,-109.46719405069085 -247.86128193099754,-106.96719405066897 -246.03115491209593,-105.1370670317096 -243.5311549120952,-104.46719405058931" stroke="#ffa500" stroke-linecap="round" stroke-linejoin="round"/><polyline fill="none" points="-312.77878463609704,-164.94368729332126 -310.27878463607516,-165.61356027436267 -308.4486576171158,-167.44368729326428 -307.7787846359955,-169.94368729326504 -308.44865761703693,-172.44368729328693 -310.2787846359385,-174.2738143122463 -312.77878463593925,-174.94368729336657 -315.27878463596113,-174.2738143123252 -317.10891165492046,-172.44368729342358 -317.77878463604077,-169.94368729342284 -317.10891165499936,-167.44368729340096 -315.2787846360978,-165.6135602744416 -312.77878463609704,-164.94368729332132" stroke="#00f" stroke-linecap="round" stroke-linejoin="round"/><polyline fill="none" points="-278.61421697895815,-132.01468844858152 -276.11421697893627,-132.6845614296229 -274.2840899599769,-134.5146884485245 -273.6142169788566,-137.01468844852528 -274.284089959898,-139.51468844854716 -276.11421697879956,-141.34481546750652 -278.6142169788003,-142.0146884486268 -281.1142169788222,-141.34481546758542 -282.9443439977816,-139.5146884486838 -283.6142169789019,-137.01468844868305 -282.94434399786047,-134.51468844866116 -281.1142169789589,-132.6845614297018 -278.61421697895815,-132.01468844858152" stroke="#00f" stroke-linecap="round" stroke-linejoin="round"/><polyline fill="none" points="-258.13453996225485,-21.580945298012303 -255.63453996223296,-22.250818279053693 -253.8044129432736,-24.080945297955296 -253.13453996215333,-26.58094529795605 -253.8044129431947,-29.080945297977944 -255.6345399620963,-30.911072316937307 -258.13453996209705,-31.5809452980576 -260.63453996211894,-30.91107231701621 -262.4646669810783,-29.080945298114607 -263.13453996219863,-26.580945298113853 -262.4646669811572,-24.080945298091958 -260.63453996225564,-22.25081827913259 -258.1345399622549,-21.580945298012296" stroke="#ffa500" stroke-linecap="round" stroke-linejoin="round"/><polyline fill="none" points="-344.2976167086878,-161.87856932672986 -341.79761670866594,-162.54844230777124 -339.96748968970655,-164.37856932667285 -339.29761670858625,-166.8785693266736 -339.96748968962766,-169.3785693266955 -341.79761670852923,-171.20869634565486 -344.29761670853,-171.87856932677516 -346.79761670855186,-171.20869634573378 -348.62774372751124,-169.37856932683218 -349.29761670863155,-166.8785693268314 -348.62774372759014,-164.37856932680953 -346.79761670868857,-162.54844230785017 -344.2976167086878,-161.87856932672986" stroke="#00f" stroke-linecap="round" stroke-linejoin="round"/><polyline fill="none" points="41.538890876104134,-38.697645005316055 44.03889087612603,-39.36751798635744 45.8690178950854,-41.19764500525904 46.5388908762057,-43.697645005259794 45.86901789516431,-46.19764500528169 44.03889087626271,-48.02777202424106 41.53889087626196,-48.69764500536136 39.03889087624006,-48.02777202431997 37.20876385728069,-46.19764500541837 36.53889087616039,-43.69764500541762 37.208763857201774,-41.19764500539572 39.03889087610337,-39.36751798643635 41.53889087610413,-38.69764500531605" stroke="#00f" stroke-linecap="round" stroke-linejoin="round"/><polyline fill="none" points="-259.69071737186624,-96.64078112679177 -257.19071737184436,-97.31065410783314 -255.360590352885,-99.14078112673475 -254.6907173717647,-101.6407811267355 -255.36059035280607,-104.1407811267574 -257.19071737170765,-105.97090814571678 -259.6907173717084,-106.64078112683708 -262.1907173717303,-105.9709081457957 -264.02084439068966,-104.14078112689411 -264.69071737180997,-101.64078112689336 -264.02084439076856,-99.14078112687146 -262.190717371867,-97.31065410791209 -259.69071737186624,-96.64078112679178" stroke="#ffa500" stroke-linecap="round" stroke-linejoin="round"/><polyline fill="none" points="-310.36061997075666,-153.55479733387318 -307.8606199707348,-154.22467031491456 -306.0304929517754,-156.05479733381617 -305.3606199706551,-158.55479733381694 -306.0304929516965,-161.05479733383885 -307.86061997059807,-162.88492435279824 -310.3606199705988,-163.55479733391854 -312.8606199706207,-162.88492435287716 -314.6907469895801,-161.05479733397556 -315.3606199707004,-158.5547973339748 -314.69074698965903,-156.05479733395288 -312.86061997075745,-154.2246703149935 -310.3606199707567,-153.55479733387318" stroke="#ffa500" stroke-linecap="round" stroke-linejoin="round"/><polyline fill="none" points="-212.70685811349148,-107.24467399065607 -210.20685811346956,-107.91454697169745 -208.37673109451018,-109.74467399059904 -207.70685811338987,-112.2446739905998 -208.37673109443125,-114.74467399062169 -210.20685811333286,-116.57480100958107 -212.70685811333362,-117.24467399070137 -215.20685811335554,-116.57480100965999 -217.03698513231492,-114.7446739907584 -217.70685811343523,-112.24467399075765 -217.03698513239385,-109.74467399073575 -215.20685811349225,-107.91454697177637 -212.70685811349148,-107.24467399065607" stroke="#ffa500" stroke-linecap="round" stroke-linejoin="round"/><polyline fill="none" points="-344.78027253796506,-137.39614619758783 -342.2802725379432,-138.0660191786292 -340.4501455189838,-139.8961461975308 -339.7802725378635,-142.39614619753158 -340.45014551890483,-144.8961461975535 -342.2802725378064,-146.72627321651288 -344.78027253780715,-147.3961461976332 -347.28027253782903,-146.7262732165918 -349.1103995567884,-144.8961461976902 -349.78027253790873,-142.39614619768943 -349.1103995568674,-139.89614619766752 -347.2802725379658,-138.06601917870813 -344.78027253796506,-137.39614619758783" stroke="#00f" stroke-linecap="round" stroke-linejoin="round"/><polyline fill="none" points="-172.30096367886026,58.805351290333924 -169.80096367883834,58.13547830929255 -167.97083665987896,56.30535129039096 -167.30096367875865,53.805351290390206 -167.97083665980003,51.3053512903683 -169.80096367870163,49.47522427140892 -172.3009636787024,48.805351290288606 -174.80096367872432,49.47522427132998 -176.6310906976837,51.30535129023157 -177.300963678804,53.80535129023232 -176.63109069776263,56.30535129025423 -174.80096367886102,58.13547830921361 -172.30096367886026,58.805351290333924" stroke="#ffa500" stroke-linecap="round" stroke-linejoin="round"/><polyline fill="none" points="-232.56825459512098,-102.20129635467421 -230.06825459509906,-102.87116933571558 -228.23812757613968,-104.70129635461717 -227.56825459501937,-107.20129635461792 -228.23812757606075,-109.70129635463984 -230.06825459496235,-111.53142337359922 -232.56825459496312,-112.20129635471955 -235.06825459498504,-111.53142337367818 -236.89838161394442,-109.70129635477659 -237.56825459506473,-107.20129635477583 -236.89838161402335,-104.70129635475392 -235.06825459512177,-102.87116933579453 -232.568254595121,-102.20129635467421" stroke="#ffa500" stroke-linecap="round" stroke-linejoin="round"/><polyline fill="none" points="335.48288440497197,-163.5627817849514 337.98288440499385,-164.23265476599278 339.81301142395324,-166.06278178489436 340.48288440507355,-168.56278178489512 339.8130114240322,-171.06278178491704 337.9828844051306,-172.89290880387642 335.4828844051299,-173.56278178499673 332.982884405108,-172.89290880395535 331.1527573861486,-171.06278178505377 330.4828844050283,-168.562781785053 331.15275738606965,-166.0627817850311 332.98288440497123,-164.2326547660717 335.48288440497197,-163.5627817849514" stroke="#ffa500" stroke-linecap="round" stroke-linejoin="round"/><polyline fill="none" points="-256.9502021061262,-141.4572388084968 -254.45020210610429,-142.1271117895382 -252.6200750871449,-143.95723880843977 -251.95020210602456,-146.45723880844054 -252.62007508706594,-148.95723880846245 -254.45020210596752,-150.78736582742184 -256.9502021059683,-151.45723880854217 -259.4502021059902,-150.78736582750082 -261.28032912494956,-148.95723880859924 -261.95020210606987,-146.45723880859848 -261.2803291250285,-143.95723880857656 -259.45020210612694,-142.12711178961717 -256.9502021061262,-141.45723880849684" stroke="#ffa500" stroke-linecap="round" stroke-linejoin="round"/><polyline fill="none" points="-180.90667233360128,-57.468742791543406 -178.40667233357937,-58.13861577258477 -176.57654531461998,-59.96874279148636 -175.90667233349964,-62.46874279148712 -176.576545314541,-64.96874279150903 -178.40667233344257,-66.79886981046842 -180.90667233344334,-67.46874279158874 -183.40667233346525,-66.79886981054737 -185.23679935242464,-64.96874279164578 -185.90667233354498,-62.46874279164503 -185.23679935250362,-59.968742791623114 -183.40667233360205,-58.13861577266372 -180.90667233360128,-57.46874279154339" stroke="#ffa500" stroke-linecap="round" stroke-linejoin="round"/><polyline fill="none" points="-291.74998588079336,-103.0558728300956 -289.2499858807714,-103.72574581113696 -287.41985886181203,-105.55587283003855 -286.7499858806917,-108.0558728300393 -287.4198588617331,-110.55587283006122 -289.24998588063465,-112.3859998490206 -291.7499858806354,-113.05587283014093 -294.2499858806573,-112.38599984909956 -296.08011289961667,-110.55587283019797 -296.749985880737,-108.05587283019722 -296.0801128996956,-105.5558728301753 -294.24998588079404,-103.72574581121592 -291.7499858807933,-103.0558728300956" stroke="#ffa500" stroke-linecap="round" stroke-linejoin="round"/><polyline fill="none" points="-207.63885590741387,-92.39148762898952 -205.13885590739196,-93.06136061003089 -203.30872888843257,-94.89148762893248 -202.63885590731223,-97.39148762893323 -203.30872888835358,-99.89148762895515 -205.13885590725516,-101.72161464791455 -207.63885590725593,-102.39148762903488 -210.13885590727784,-101.72161464799352 -211.96898292623723,-99.89148762909193 -212.63885590735757,-97.39148762909117 -211.96898292631622,-94.89148762906926 -210.13885590741464,-93.06136061010986 -207.63885590741387,-92.39148762898952" stroke="#ffa500" stroke-linecap="round" stroke-linejoin="round"/><polyline fill="none" points="-250.9987096373586,-116.63612215394545 -248.49870963733667,-117.3059951349868 -246.6685826183773,-119.13612215388838 -245.99870963725695,-121.63612215388913 -246.6685826182983,-124.13612215391105 -248.49870963719988,-125.96624917287045 -250.99870963720065,-126.63612215399078 -253.49870963722256,-125.96624917294943 -255.32883665618195,-124.13612215404785 -255.99870963730228,-121.6361221540471 -255.32883665626093,-119.13612215402519 -253.49870963735935,-117.30599513506579 -250.9987096373586,-116.63612215394545" stroke="#00f" stroke-linecap="round" stroke-linejoin="round"/><polyline fill="none" points="-263.2413988588701,-30.423503645934517 -260.7413988588482,-31.09337662697587 -258.9112718398888,-32.92350364587745 -258.2413988587685,-35.423503645878206 -258.91127183980984,-37.92350364590013 -260.7413988587114,-39.75363066485953 -263.24139885871216,-40.423503645979864 -265.7413988587341,-39.75363066493851 -267.5715258776935,-37.92350364603693 -268.2413988588138,-35.423503646036174 -267.57152587777244,-32.923503646014254 -265.74139885887087,-31.09337662705485 -263.2413988588701,-30.423503645934517" stroke="#00f" stroke-linecap="round" stroke-linejoin="round"/><polyline fill="none" points="-152.33602564481774,23.549986856737448 -149.83602564479582,22.880113875696097 -148.00589862583644,21.049986856794515 -147.3360256447161,18.549986856793762 -148.00589862575745,16.049986856771845 -149.83602564465903,14.219859837812443 -152.3360256446598,13.549986856692106 -154.8360256446817,14.219859837733457 -156.66615266364113,16.049986856635037 -157.33602564476146,18.54998685663579 -156.6661526637201,21.04998685665771 -154.83602564481853,22.880113875617113 -152.33602564481777,23.54998685673745" stroke="#ffa500" stroke-linecap="round" stroke-linejoin="round"/><polyline fill="none" points="-129.60568876988856,44.21848597025699 -127.10568876986665,43.54861298921564 -125.27556175090724,41.71848597031406 -124.60568876978691,39.21848597031331 -125.27556175082826,36.71848597029139 -127.10568876972984,34.88835895133199 -129.6056887697306,34.218485970211646 -132.1056887697525,34.888358951253 -133.93581578871192,36.718485970154575 -134.60568876983226,39.21848597015533 -133.9358157887909,41.71848597017725 -132.10568876988933,43.54861298913666 -129.60568876988856,44.218485970257" stroke="#ffa500" stroke-linecap="round" stroke-linejoin="round"/><polyline fill="none" points="351.35369289264463,-178.79179707192836 353.8536928926666,-179.4616700529697 355.68381991162596,-181.2917970718713 356.3536928927463,-183.79179707187205 355.683819911705,-186.29179707189397 353.8536928928034,-188.12192409085338 351.35369289280266,-188.79179707197372 348.8536928927807,-188.12192409093237 347.0235658738213,-186.2917970720308 346.35369289270096,-183.79179707203002 347.0235658737423,-181.2917970720081 348.8536928926439,-179.4616700530487 351.35369289264463,-178.79179707192836" stroke="#ffa500" stroke-linecap="round" stroke-linejoin="round"/><polyline fill="none" points="-243.0410221989451,-25.265131184315077 -240.54102219892317,-25.935004165356425 -238.71089517996376,-27.765131184258003 -238.04102219884342,-30.265131184258756 -238.71089517988477,-32.765131184280676 -240.54102219878635,-34.595258203240085 -243.04102219878712,-35.26513118436043 -245.54102219880903,-34.595258203319084 -247.37114921776845,-32.765131184417505 -248.04102219888878,-30.265131184416752 -247.37114921784743,-27.76513118439483 -245.54102219894585,-25.93500416543542 -243.0410221989451,-25.265131184315074" stroke="#ffa500" stroke-linecap="round" stroke-linejoin="round"/><polyline fill="none" points="51.51386198446989,-37.244757057443756 54.01386198449181,-37.9146300384851 55.84398900345122,-39.74475705738668 56.51386198457157,-42.24475705738743 55.843989003530226,-44.74475705740935 54.01386198462865,-46.57488407636876 51.513861984627894,-47.24475705748911 49.01386198460597,-46.574884076447766 47.18373496564656,-44.74475705754619 46.51386198452621,-42.244757057545435 47.18373496556755,-39.74475705752351 49.01386198446913,-37.91463003856409 51.513861984469884,-37.24475705744374" stroke="#ffa500" stroke-linecap="round" stroke-linejoin="round"/><polyline fill="none" points="356.93781588984194,-150.48586001111485 359.4378158898639,-151.1557329921562 361.2679429088233,-152.98586001105778 361.93781588994364,-155.48586001105855 361.2679429089023,-157.98586001108046 359.4378158900007,-159.81598703003988 356.93781588999997,-160.48586001116024 354.437815889978,-159.8159870301189 352.60768887101864,-157.9858600112173 351.9378158898983,-155.48586001121654 352.6076888709396,-152.98586001119463 354.4378158898412,-151.15573299223522 356.93781588984194,-150.48586001111485" stroke="#ffa500" stroke-linecap="round" stroke-linejoin="round"/><polyline fill="none" points="75.14747182353865,-11.592129943045833 77.64747182356058,-12.262002924087174 79.47759884252,-14.09212994298875 80.14747182364034,-16.592129942989505 79.47759884259901,-19.092129943011432 77.64747182369743,-20.92225696197085 75.14747182369668,-21.5921299430912 72.64747182367475,-20.922256962049865 70.81734480471533,-19.09212994314829 70.14747182359498,-16.592129943147533 70.81734480463632,-14.092129943125604 72.6474718235379,-12.262002924166186 75.14747182353865,-11.592129943045832" stroke="#ffa500" stroke-linecap="round" stroke-linejoin="round"/><polyline fill="none" points="-193.5377483222669,-111.14888788030639 -191.03774832224497,-111.81876086134773 -189.20762130328555,-113.6488878802493 -188.53774832216519,-116.14888788025006 -189.2076213032065,-118.64888788027199 -191.0377483221081,-120.4790148992314 -193.53774832210885,-121.14888788035177 -196.0377483221308,-120.47901489931043 -197.8678753410902,-118.64888788040885 -198.53774832221058,-116.1488878804081 -197.86787534116925,-113.64888788038617 -196.03774832226767,-111.81876086142675 -193.5377483222669,-111.14888788030639" stroke="#ffa500" stroke-linecap="round" stroke-linejoin="round"/><polyline fill="none" points="-282.3745981734692,-119.95698420076981 -279.8745981734473,-120.62685718181115 -278.04447115448784,-122.45698420071272 -277.3745981733675,-124.95698420071348 -278.0444711544088,-127.4569842007354 -279.8745981733104,-129.28711121969482 -282.37459817331114,-129.95698420081519 -284.8745981733331,-129.28711121977386 -286.7047251922925,-127.45698420087228 -287.3745981734129,-124.95698420087153 -286.70472519237154,-122.4569842008496 -284.87459817346996,-120.62685718189017 -282.3745981734692,-119.95698420076981" stroke="#ffa500" stroke-linecap="round" stroke-linejoin="round"/><polyline fill="none" points="-191.227408539707,-100.69729896154963 -188.72740853968506,-101.36717194259097 -186.89728152072564,-103.19729896149255 -186.22740853960528,-105.6972989614933 -186.8972815206466,-108.19729896151523 -188.72740853954818,-110.02742598047466 -191.22740853954895,-110.69729896159502 -193.7274085395709,-110.02742598055369 -195.5575355585303,-108.19729896165212 -196.22740853965067,-105.69729896165137 -195.55753555860935,-103.19729896162944 -193.72740853970777,-101.36717194267001 -191.227408539707,-100.69729896154965" stroke="#ffa500" stroke-linecap="round" stroke-linejoin="round"/><polyline fill="none" points="-339.74170920293227,-117.77399996831697 -337.24170920291033,-118.4438729493583 -335.4115821839509,-120.27399996825986 -334.7417092028305,-122.77399996826061 -335.4115821838719,-125.27399996828254 -337.24170920277345,-127.10412698724197 -339.7417092027742,-127.77399996836233 -342.24170920279613,-127.10412698732101 -344.0718362217556,-125.27399996841945 -344.74170920287594,-122.77399996841869 -344.0718362218346,-120.27399996839675 -342.241709202933,-118.44387294943732 -339.74170920293227,-117.77399996831696" stroke="#008000" stroke-linecap="round" stroke-linejoin="round"/><polyline fill="none" points="-267.535109826933,-76.47299990155545 -265.0351098269111,-77.14287288259678 -263.20498280795164,-78.97299990149834 -262.5351098268313,-81.4729999014991 -263.2049828078726,-83.97299990152104 -265.0351098267742,-85.80312692048047 -267.53510982677494,-86.47299990160083 -270.0351098267969,-85.8031269205595 -271.8652368457563,-83.97299990165794 -272.5351098268767,-81.47299990165719 -271.86523684583534,-78.97299990163525 -270.03510982693376,-77.14287288267582 -267.535109826933,-76.47299990155545" stroke="#ffa500" stroke-linecap="round" stroke-linejoin="round"/><polyline fill="none" points="-235.71747172717858,-86.77011985109314 -233.21747172715664,-87.43999283213446 -231.3873447081972,-89.27011985103603 -230.71747172707683,-91.77011985103678 -231.38734470811815,-94.27011985105872 -233.21747172701973,-96.10024687001815 -235.7174717270205,-96.77011985113853 -238.21747172704244,-96.10024687009721 -240.04759874600188,-94.27011985119564 -240.71747172712224,-91.77011985119489 -240.04759874608092,-89.27011985117295 -238.21747172717934,-87.43999283221352 -235.71747172717858,-86.77011985109314" stroke="#ffa500" stroke-linecap="round" stroke-linejoin="round"/><polyline fill="none" points="-196.18130271315343,-71.21698541871697 -193.6813027131315,-71.8868583997583 -191.85117569417204,-73.71698541865986 -191.18130271305168,-76.21698541866061 -191.851175694093,-78.71698541868255 -193.68130271299458,-80.54711243764199 -196.18130271299535,-81.21698541876236 -198.6813027130173,-80.54711243772104 -200.51142973197673,-78.71698541881948 -201.1813027130971,-76.21698541881872 -200.51142973205577,-73.71698541879678 -198.6813027131542,-71.88685839983735 -196.18130271315343,-71.21698541871697" stroke="#ffa500" stroke-linecap="round" stroke-linejoin="round"/><polyline fill="none" points="-284.71907408551834,-63.6055635533485 -282.2190740854964,-64.27543653438983 -280.38894706653696,-66.10556355329139 -279.7190740854166,-68.60556355329214 -280.3889470664579,-71.10556355331408 -282.21907408535947,-72.93569057227353 -284.7190740853602,-73.6055635533939 -287.21907408538215,-72.93569057235258 -289.0492011043416,-71.10556355345102 -289.71907408546195,-68.60556355345027 -289.04920110442066,-66.10556355342833 -287.2190740855191,-64.27543653446888 -284.71907408551834,-63.6055635533485" stroke="#00f" stroke-linecap="round" stroke-linejoin="round"/><polyline fill="none" points="-313.3046071105383,-89.46666858634293 -310.8046071105164,-90.13654156738426 -308.9744800915569,-91.96666858628582 -308.30460711043656,-94.46666858628657 -308.97448009147786,-96.96666858630851 -310.80460711037944,-98.79679560526796 -313.3046071103802,-99.46666858638834 -315.8046071104021,-98.79679560534701 -317.63473412936156,-96.96666858644545 -318.3046071104819,-94.4666685864447 -317.63473412944063,-91.96666858642276 -315.80460711053905,-90.13654156746331 -313.3046071105383,-89.46666858634293" stroke="#00f" stroke-linecap="round" stroke-linejoin="round"/><polyline fill="none" points="-300.0086121878865,-93.59451390907185 -297.50861218786457,-94.26438689011316 -295.6784851689051,-96.09451390901472 -295.00861218778476,-98.59451390901548 -295.67848516882606,-101.09451390903742 -297.50861218772764,-102.92464092799686 -300.0086121877284,-103.59451390911724 -302.5086121877503,-102.92464092807593 -304.33873920670976,-101.09451390917437 -305.0086121878301,-98.59451390917361 -304.33873920678883,-96.09451390915167 -302.50861218788725,-94.26438689019223 -300.0086121878865,-93.59451390907185" stroke="#ffa500" stroke-linecap="round" stroke-linejoin="round"/><polyline fill="none" points="-175.44252951846997,-40.046650126942225 -172.94252951844803,-40.71652310798354 -171.11240249948858,-42.546650126885105 -170.4425295183682,-45.046650126885865 -171.1124024994095,-47.546650126907814 -172.94252951831106,-49.37677714586726 -175.44252951831183,-50.04665012698764 -177.94252951833377,-49.376777145946335 -179.77265653729322,-47.54665012704477 -180.4425295184136,-45.04665012704401 -179.77265653737228,-42.54665012702206 -177.94252951847074,-40.71652310806262 -175.44252951846997,-40.04665012694223" stroke="#ffa500" stroke-linecap="round" stroke-linejoin="round"/><polyline fill="none" points="-129.59738135280907,25.409250304101718 -127.09738135278712,24.739377323060406 -125.26725433382768,22.909250304158846 -124.59738135270729,20.409250304158085 -125.2672543337486,17.909250304136137 -127.09738135265016,16.07912328517669 -129.59738135265093,15.4092503040563 -132.09738135267287,16.07912328509761 -133.9275083716323,17.90925030399917 -134.5973813527527,20.40925030399993 -133.92750837171138,22.909250304021878 -132.09738135280983,24.73937732298133 -129.59738135280907,25.409250304101718" stroke="#ffa500" stroke-linecap="round" stroke-linejoin="round"/><polyline fill="none" points="-279.31966936189167,-99.23396226435737 -276.8196693618697,-99.90383524539868 -274.9895423429103,-101.73396226430025 -274.3196693617899,-104.233962264301 -274.9895423428312,-106.73396226432295 -276.8196693617328,-108.56408928328241 -279.31966936173353,-109.2339622644028 -281.8196693617555,-108.5640892833615 -283.6497963807149,-106.73396226445993 -284.3196693618353,-104.23396226445918 -283.649796380794,-101.73396226443722 -281.8196693618924,-99.90383524547777 -279.31966936189167,-99.23396226435737" stroke="#00f" stroke-linecap="round" stroke-linejoin="round"/><polyline fill="none" points="-315.72200223634684,-117.90193892771282 -313.2220022363249,-118.57181190875413 -311.39187521736545,-120.40193892765569 -310.72200223624503,-122.90193892765645 -311.3918752172863,-125.4019389276784 -313.2220022361879,-127.23206594663786 -315.72200223618864,-127.90193892775825 -318.2220022362106,-127.23206594671694 -320.05212925517003,-125.40193892781538 -320.72200223629045,-122.90193892781463 -320.05212925524916,-120.40193892779267 -318.2220022363476,-118.57181190883321 -315.72200223634684,-117.90193892771282" stroke="#00f" stroke-linecap="round" stroke-linejoin="round"/><polyline fill="none" points="-155.73090382602436,90.3222904460666 -153.23090382600242,89.6524174650253 -151.40077680704297,87.82229044612373 -150.73090382592258,85.32229044612296 -151.40077680696388,82.82229044610101 -153.23090382586543,80.99216342714155 -155.7309038258662,80.32229044602116 -158.23090382588813,80.99216342706247 -160.06103084484758,82.82229044596403 -160.73090382596797,85.3222904459648 -160.06103084492668,87.82229044598675 -158.23090382602513,89.65241746494621 -155.73090382602436,90.3222904460666" stroke="#ffa500" stroke-linecap="round" stroke-linejoin="round"/><polyline fill="none" points="-284.19206872774333,-84.18929646841747 -281.6920687277214,-84.85916944945878 -279.86194170876195,-86.68929646836034 -279.1920687276415,-89.1892964683611 -279.8619417086828,-91.68929646838306 -281.6920687275844,-93.51942348734252 -284.19206872758514,-94.18929646846293 -286.6920687276071,-93.51942348742163 -288.5221957465665,-91.68929646852008 -289.19206872768694,-89.18929646851932 -288.52219574664565,-86.68929646849736 -286.6920687277441,-84.8591694495379 -284.19206872774333,-84.1892964684175" stroke="#ffa500" stroke-linecap="round" stroke-linejoin="round"/><polyline fill="none" points="-331.5312082045244,-130.57683960115648 -329.03120820450243,-131.24671258219777 -327.201081185543,-133.07683960109932 -326.53120820442257,-135.5768396011001 -327.20108118546386,-138.07683960112206 -329.03120820436544,-139.90696662008153 -331.5312082043662,-140.57683960120193 -334.0312082043881,-139.90696662016063 -335.86133522334757,-138.07683960125908 -336.531208204468,-135.5768396012583 -335.8613352234267,-133.07683960123634 -334.0312082045251,-131.24671258227687 -331.5312082045244,-130.57683960115648" stroke="#f00" stroke-linecap="round" stroke-linejoin="round"/><polyline fill="none" points="-287.5990837774588,-105.88999109746166 -285.0990837774369,-106.55986407850295 -283.26895675847743,-108.3899910974045 -282.599083777357,-110.88999109740527 -283.2689567583983,-113.38999109742723 -285.0990837772999,-115.22011811638669 -287.5990837773006,-115.88999109750709 -290.09908377732256,-115.2201181164658 -291.929210796282,-113.38999109756425 -292.5990837774024,-110.88999109756348 -291.92921079636113,-108.38999109754153 -290.09908377745955,-106.55986407858207 -287.5990837774588,-105.88999109746166" stroke="#008000" stroke-linecap="round" stroke-linejoin="round"/><polyline fill="none" points="-272.1720082334868,-30.041739774640625 -269.67200823346485,-30.71161275568192 -267.8418812145054,-32.54173977458347 -267.172008233385,-35.04173977458423 -267.8418812144263,-37.541739774606185 -269.67200823332786,-39.37186679356565 -272.1720082333286,-40.04173977468606 -274.67200823335054,-39.37186679364476 -276.50213525231,-37.54173977474321 -277.1720082334304,-35.04173977474245 -276.5021352523891,-32.5417397747205 -274.67200823348753,-30.71161275576103 -272.1720082334868,-30.04173977464062" stroke="#ffa500" stroke-linecap="round" stroke-linejoin="round"/><polyline fill="none" points="-250.2578473999088,-58.54405657044373 -247.75784739988683,-59.21392955148502 -245.92772038092735,-61.04405657038657 -245.25784739980693,-63.54405657038733 -245.92772038084823,-66.0440565704093 -247.75784739974978,-67.87418358936877 -250.25784739975055,-68.54405657048918 -252.75784739977252,-67.87418358944788 -254.587974418732,-66.04405657054633 -255.2578473998524,-63.54405657054557 -254.58797441881111,-61.04405657052361 -252.75784739990956,-59.213929551564135 -250.2578473999088,-58.54405657044372" stroke="#ffa500" stroke-linecap="round" stroke-linejoin="round"/><polyline fill="none" points="-187.39767888820057,53.04087014553484 -184.8976788881786,52.37099716449355 -183.06755186921913,50.540870145592 -182.3976788880987,48.04087014559124 -183.06755186914,45.54087014556928 -184.89767888804155,43.710743126609806 -187.39767888804232,43.04087014548939 -189.8976788880643,43.71074312653068 -191.72780590702376,45.54087014543223 -192.39767888814418,48.04087014543299 -191.7278059071029,50.54087014545495 -189.89767888820134,52.370997164414426 -187.39767888820057,53.04087014553484" stroke="#00f" stroke-linecap="round" stroke-linejoin="round"/><polyline fill="none" points="-299.4993261957602,-78.57622819583761 -296.99932619573826,-79.24610117687891 -295.16919917677876,-81.07622819578046 -294.49932619565834,-83.57622819578123 -295.16919917669964,-86.0762281958032 -296.99932619560116,-87.90635521476267 -299.4993261956019,-88.57622819588309 -301.99932619562384,-87.90635521484181 -303.82945321458334,-86.07622819594026 -304.49932619570376,-83.5762281959395 -303.82945321466246,-81.07622819591754 -301.99932619576094,-79.24610117695806 -299.4993261957602,-78.57622819583764" stroke="#00f" stroke-linecap="round" stroke-linejoin="round"/><polyline fill="none" points="-189.92603805111298,-45.12224802811548 -187.426038051091,-45.792121009156766 -185.59591103213154,-47.62224802805831 -184.92603805101112,-50.12224802805907 -185.5959110320524,-52.62224802808103 -187.42603805095396,-54.45237504704051 -189.92603805095473,-55.12224802816093 -192.4260380509767,-54.45237504711965 -194.25616506993617,-52.62224802821811 -194.9260380510566,-50.12224802821735 -194.2561650700153,-47.622248028195386 -192.42603805111375,-45.792121009235906 -189.92603805111298,-45.122248028115486" stroke="#ffa500" stroke-linecap="round" stroke-linejoin="round"/><polyline fill="none" points="-262.38917995369036,-108.88884885983069 -259.8891799536684,-109.55872184087197 -258.0590529347089,-111.38884885977352 -257.3891799535885,-113.88884885977428 -258.0590529346298,-116.38884885979625 -259.8891799535313,-118.21897587875573 -262.38917995353205,-118.88884885987615 -264.889179953554,-118.21897587883487 -266.7193069725135,-116.38884885993332 -267.3891799536339,-113.88884885993255 -266.7193069725926,-111.38884885991058 -264.8891799536911,-109.5587218409511 -262.38917995369036,-108.88884885983067" stroke="#00f" stroke-linecap="round" stroke-linejoin="round"/><polyline fill="none" points="-257.923875782552,-126.92869645854992 -255.42387578253002,-127.5985694395912 -253.59374876357055,-129.42869645849274 -252.92387578245012,-131.9286964584935 -253.5937487634914,-134.42869645851547 -255.42387578239294,-136.25882347747495 -257.9238757823937,-136.92869645859537 -260.4238757824156,-136.2588234775541 -262.2540028013751,-134.42869645865255 -262.92387578249554,-131.92869645865179 -262.25400280145425,-129.42869645862982 -260.4238757825527,-127.59856943967033 -257.923875782552,-126.92869645854991" stroke="#ffa500" stroke-linecap="round" stroke-linejoin="round"/><polyline fill="none" points="-252.12907471271066,-67.51782520413887 -249.6290747126887,-68.18769818518015 -247.79894769372922,-70.01782520408169 -247.1290747126088,-72.51782520408246 -247.79894769365006,-75.01782520410443 -249.6290747125516,-76.84795222306391 -252.12907471255238,-77.51782520418435 -254.62907471257435,-76.84795222314307 -256.4592017315338,-75.01782520424153 -257.12907471265424,-72.51782520424076 -256.45920173161295,-70.0178252042188 -254.6290747127114,-68.18769818525931 -252.12907471271063,-67.51782520413887" stroke="#ffa500" stroke-linecap="round" stroke-linejoin="round"/><polyline fill="none" points="-264.872231463819,-134.20763108583887 -262.372231463797,-134.87750406688014 -260.5421044448375,-136.70763108578168 -259.87223146371707,-139.20763108578245 -260.54210444475837,-141.70763108580442 -262.3722314636599,-143.5377581047639 -264.8722314636606,-144.20763108588432 -267.3722314636826,-143.53775810484305 -269.2023584826421,-141.7076310859415 -269.87223146376255,-139.20763108594073 -269.20235848272125,-136.70763108591876 -267.37223146381973,-134.87750406695926 -264.872231463819,-134.20763108583884" stroke="#ffa500" stroke-linecap="round" stroke-linejoin="round"/><polyline fill="none" points="-339.0899866324353,-147.9653303951901 -336.5899866324133,-148.63520337623137 -334.7598596134538,-150.46533039513292 -334.08998663233336,-152.9653303951337 -334.75985961337466,-155.46533039515566 -336.5899866322762,-157.29545741411516 -339.0899866322769,-157.96533039523558 -341.5899866322989,-157.29545741419432 -343.4201136512584,-155.46533039529277 -344.08998663237884,-152.965330395292 -343.42011365133754,-150.46533039527003 -341.589986632436,-148.63520337631053 -339.0899866324353,-147.96533039519008" stroke="#00f" stroke-linecap="round" stroke-linejoin="round"/><polyline fill="none" points="-220.94490152334575,-9.157883475213069 -218.44490152332378,-9.827756456254338 -216.61477450436428,-11.657883475155876 -215.94490152324383,-14.157883475156636 -216.6147745042851,-16.657883475178608 -218.44490152318664,-18.4880104941381 -220.9449015231874,-19.157883475258533 -223.44490152320938,-18.488010494217264 -225.27502854216888,-16.657883475315728 -225.94490152328933,-14.157883475314968 -225.27502854224807,-11.657883475292994 -223.44490152334652,-9.827756456333502 -220.94490152334575,-9.157883475213064" stroke="#ffa500" stroke-linecap="round" stroke-linejoin="round"/><polyline fill="none" points="-345.557458857769,-167.0106919722674 -343.057458857747,-167.68056495330868 -341.2273318387875,-169.51069197221022 -340.5574588576671,-172.010691972211 -341.2273318387084,-174.51069197223296 -343.0574588576099,-176.34081899119246 -345.55745885761064,-177.0106919723129 -348.05745885763264,-176.34081899127165 -349.88758587659214,-174.5106919723701 -350.55745885771256,-172.01069197236933 -349.88758587667127,-169.51069197234736 -348.05745885776975,-167.68056495338786 -345.557458857769,-167.0106919722674" stroke="#ffa500" stroke-linecap="round" stroke-linejoin="round"/><polyline fill="none" points="64.52796190696981,-13.757649894701203 67.02796190699178,-14.427522875742468 68.85808892595128,-16.257649894644004 69.52796190707171,-18.757649894644764 68.85808892603045,-21.25764989466674 67.02796190712891,-23.087776913626236 64.52796190712814,-23.757649894746677 62.02796190710617,-23.08777691370541 60.19783488814667,-21.257649894803876 59.52796190702623,-18.757649894803116 60.1978348880675,-16.25764989478114 62.02796190696903,-14.42752287582164 64.5279619069698,-13.757649894701197" stroke="#ffa500" stroke-linecap="round" stroke-linejoin="round"/><polyline fill="none" points="-211.94480545856504,-72.0305894957529 -209.44480545854307,-72.70046247679417 -207.61467843958357,-74.53058949569571 -206.94480545846312,-77.03058949569647 -207.6146784395044,-79.53058949571846 -209.4448054584059,-81.36071651467796 -211.94480545840668,-82.03058949579841 -214.44480545842865,-81.36071651475714 -216.27493247738815,-79.53058949585561 -216.9448054585086,-77.03058949585484 -216.27493247746733,-74.53058949583286 -214.4448054585658,-72.70046247687335 -211.94480545856504,-72.0305894957529" stroke="#00f" stroke-linecap="round" stroke-linejoin="round"/><polyline fill="none" points="-307.2897082423406,-98.64937829571168 -304.7897082423186,-99.31925127675295 -302.9595812233591,-101.14937829565449 -302.2897082422387,-103.64937829565525 -302.95958122327994,-106.14937829567724 -304.78970824218146,-107.97950531463674 -307.2897082421822,-108.64937829575719 -309.7897082422042,-107.97950531471594 -311.6198352611637,-106.1493782958144 -312.2897082422842,-103.64937829581363 -311.61983526124294,-101.14937829579165 -309.7897082423414,-99.31925127683215 -307.2897082423407,-98.6493782957117" stroke="#00f" stroke-linecap="round" stroke-linejoin="round"/><polyline fill="none" points="-337.99456777336127,-136.4995228577925 -335.49456777333927,-137.16939583883376 -333.66444075437977,-138.9995228577353 -332.9945677732593,-141.49952285773605 -333.66444075430053,-143.99952285775802 -335.49456777320205,-145.82964987671753 -337.9945677732028,-146.49952285783797 -340.4945677732248,-145.8296498767967 -342.3246947921843,-143.9995228578952 -342.99456777330477,-141.49952285789442 -342.32469479226353,-138.99952285787245 -340.494567773362,-137.16939583891295 -337.99456777336127,-136.4995228577925" stroke="#00f" stroke-linecap="round" stroke-linejoin="round"/><polyline fill="none" points="-153.18116498923345,62.56554855415778 -150.68116498921148,61.89567557311653 -148.85103797025198,60.065548554215 -148.18116498913153,57.56554855421424 -148.8510379701728,55.065548554192254 -150.68116498907432,53.235421535232746 -153.18116498907509,52.56554855411229 -155.68116498909706,53.23542153515354 -157.51129200805656,55.06554855405507 -158.181164989177,57.56554855405583 -157.51129200813574,60.065548554077814 -155.68116498923422,61.89567557303732 -153.18116498923345,62.56554855415778" stroke="#ffa500" stroke-linecap="round" stroke-linejoin="round"/><polyline fill="none" points="-301.7213950870233,-106.71370183156482 -299.2213950870013,-107.38357481260607 -297.3912680680418,-109.21370183150759 -296.72139508692135,-111.71370183150836 -297.3912680679626,-114.21370183153034 -299.2213950868641,-116.04382885048986 -301.72139508686485,-116.71370183161032 -304.22139508688684,-116.04382885056907 -306.05152210584635,-114.21370183166755 -306.7213950869668,-111.71370183166678 -306.0515221059256,-109.2137018316448 -304.22139508702406,-107.38357481268528 -301.7213950870233,-106.71370183156482" stroke="#ffa500" stroke-linecap="round" stroke-linejoin="round"/><polyline fill="none" points="-151.7497848540366,44.52909368967153 -149.2497848540146,43.859220708630275 -147.4196578350551,42.02909368972875 -146.74978485393464,39.529093689727986 -147.41965783497588,37.029093689706 -149.2497848538774,35.19896667074649 -151.74978485387817,34.52909368962604 -154.24978485390017,35.19896667066729 -156.07991187285967,37.02909368956882 -156.74978485398012,39.52909368956958 -156.07991187293888,42.02909368959156 -154.24978485403736,43.85922070855108 -151.7497848540366,44.52909368967154" stroke="#ffa500" stroke-linecap="round" stroke-linejoin="round"/><polyline fill="none" points="-164.50586296633603,86.36349845781464 -162.00586296631403,85.69362547677339 -160.17573594735453,83.86349845787187 -159.50586296623408,81.3634984578711 -160.1757359472753,78.86349845784912 -162.00586296617684,77.0333714388896 -164.5058629661776,76.36349845776914 -167.0058629661996,77.03337143881039 -168.8359899851591,78.86349845771191 -169.50586296627955,81.36349845771268 -168.8359899852383,83.86349845773466 -167.0058629663368,85.69362547669418 -164.50586296633603,86.36349845781464" stroke="#ffa500" stroke-linecap="round" stroke-linejoin="round"/><polyline fill="none" points="-189.61376688701753,-86.03737820341723 -187.11376688699553,-86.70725118445849 -185.283639868036,-88.53737820336 -184.61376688691553,-91.03737820336077 -185.28363986795677,-93.53737820338276 -187.1137668868583,-95.36750522234227 -189.61376688685905,-96.03737820346274 -192.11376688688105,-95.3675052224215 -193.94389390584058,-93.53737820351998 -194.61376688696106,-91.03737820351921 -193.94389390591982,-88.53737820349723 -192.1137668870183,-86.70725118453771 -189.61376688701753,-86.03737820341725" stroke="#00f" stroke-linecap="round" stroke-linejoin="round"/><polyline fill="none" points="-304.9825758028877,-121.25278046093335 -302.4825758028657,-121.92265344197459 -300.6524487839062,-123.75278046087611 -299.98257580278573,-126.25278046087688 -300.65244878382697,-128.75278046089886 -302.4825758027285,-130.5829074798584 -304.98257580272923,-131.25278046097887 -307.4825758027512,-130.58290747993763 -309.31270282171073,-128.7527804610361 -309.9825758028312,-126.25278046103534 -309.31270282178997,-123.75278046101336 -307.48257580288845,-121.92265344205384 -304.9825758028877,-121.25278046093338" stroke="#00f" stroke-linecap="round" stroke-linejoin="round"/><polyline fill="none" points="-326.0616320184351,-160.99900545060893 -323.5616320184131,-161.66887843165017 -321.7315049994536,-163.4990054505517 -321.0616320183331,-165.99900545055246 -321.73150499937435,-168.49900545057446 -323.5616320182759,-170.329132469534 -326.0616320182766,-170.99900545065447 -328.5616320182986,-170.32913246961323 -330.3917590372581,-168.4990054507117 -331.0616320183786,-165.99900545071094 -330.39175903733735,-163.49900545068894 -328.56163201843583,-161.6688784317294 -326.0616320184351,-160.99900545060893" stroke="#ffa500" stroke-linecap="round" stroke-linejoin="round"/><polyline fill="none" points="-240.9163058674214,8.6594486143164 -238.41630586739942,7.9895756332751615 -236.58617884843989,6.159448614373641 -235.9163058673194,3.65944861437288 -236.58617884836065,1.1594486143508886 -238.41630586726217,-0.6706784046086343 -240.91630586726293,-1.3405513857291065 -243.41630586728493,-0.670678404687869 -245.24643288624446,1.15944861421365 -245.91630586736494,3.659448614214411 -245.2464328863237,6.159448614236403 -243.41630586742218,7.989575633195928 -240.9163058674214,8.659448614316402" stroke="#ffa500" stroke-linecap="round" stroke-linejoin="round"/><polyline fill="none" points="-165.73912615377216,71.94135616115486 -163.23912615375016,71.27148318011362 -161.40899913479063,69.4413561612121 -160.73912615367016,66.94135616121133 -161.4089991347114,64.44135616118933 -163.23912615361292,62.61122914222981 -165.73912615361368,61.94135616110933 -168.23912615363568,62.61122914215057 -170.0692531725952,64.44135616105208 -170.7391261537157,66.94135616105285 -170.06925317267445,69.44135616107485 -168.23912615377293,71.27148318003438 -165.73912615377216,71.94135616115486" stroke="#ffa500" stroke-linecap="round" stroke-linejoin="round"/><polyline fill="none" points="-281.53812995083905,-52.78292534154703 -279.03812995081705,-53.45279832258826 -277.20800293185755,-55.28292534148977 -276.5381299507371,-57.78292534149053 -277.2080029317783,-60.282925341512524 -279.03812995067983,-62.113052360472054 -281.53812995068057,-62.78292534159253 -284.03812995070257,-62.1130523605513 -285.86825696966207,-60.282925341649786 -286.53812995078255,-57.782925341649026 -285.8682569697413,-55.28292534162703 -284.0381299508398,-53.4527983226675 -281.53812995083905,-52.78292534154702" stroke="#00f" stroke-linecap="round" stroke-linejoin="round"/><polyline fill="none" points="-252.49398575728281,-41.52131558121039 -249.99398575726082,-42.19118856225162 -248.1638587383013,-44.02131558115313 -247.4939857571808,-46.52131558115389 -248.16385873822205,-49.02131558117589 -249.99398575712357,-50.85144260013542 -252.49398575712434,-51.5213155812559 -254.99398575714633,-50.85144260021467 -256.8241127761059,-49.021315581313154 -257.49398575722637,-46.52131558131239 -256.82411277618513,-44.021315581290395 -254.9939857572836,-42.191188562330865 -252.49398575728284,-41.52131558121038" stroke="#ffa500" stroke-linecap="round" stroke-linejoin="round"/><polyline fill="none" points="-299.7727601252264,-149.31563461909414 -297.2727601252044,-149.98550760013538 -295.44263310624484,-151.8156346190369 -294.77276012512436,-154.31563461903767 -295.4426331061656,-156.81563461905967 -297.2727601250671,-158.6457616380192 -299.77276012506786,-159.31563461913967 -302.27276012508986,-158.64576163809843 -304.1028871440494,-156.8156346191969 -304.7727601251699,-154.31563461919615 -304.10288714412866,-151.81563461917415 -302.27276012522714,-149.98550760021462 -299.7727601252264,-149.31563461909414" stroke="#00f" stroke-linecap="round" stroke-linejoin="round"/><polyline fill="none" points="-291.7286079326672,-108.97991594646801 -289.2286079326452,-109.64978892750923 -287.39848091368566,-111.47991594641074 -286.7286079325652,-113.97991594641151 -287.3984809136064,-116.47991594643351 -289.22860793250794,-118.31004296539304 -291.7286079325087,-118.97991594651353 -294.2286079325307,-118.3100429654723 -296.05873495149024,-116.4799159465708 -296.7286079326107,-113.97991594657003 -296.0587349515695,-111.47991594654803 -294.22860793266796,-109.6497889275885 -291.7286079326672,-108.97991594646801" stroke="#ffa500" stroke-linecap="round" stroke-linejoin="round"/><polyline fill="none" points="-312.03519952243346,-144.73467770411125 -309.53519952241146,-145.4045506851525 -307.7050725034519,-147.234677704054 -307.0351995223314,-149.73467770405477 -307.70507250337266,-152.23467770407677 -309.5351995222742,-154.0648047230363 -312.0351995222749,-154.73467770415678 -314.5351995222969,-154.06480472311557 -316.3653265412565,-152.23467770421405 -317.03519952237696,-149.73467770421328 -316.3653265413357,-147.23467770419128 -314.5351995224342,-145.40455068523175 -312.03519952243346,-144.73467770411128" stroke="#008000" stroke-linecap="round" stroke-linejoin="round"/><polyline fill="none" points="-141.86533591124098,33.591530156752796 -139.36533591121898,32.92165717571157 -137.53520889225945,31.091530156810062 -136.86533591113894,28.591530156809302 -137.53520889218015,26.0915301567873 -139.36533591108167,24.26140313782776 -141.86533591108244,23.591530156707268 -144.36533591110444,24.261403137748488 -146.19546293006397,26.09153015665 -146.86533591118447,28.59153015665076 -146.19546293014326,31.09153015667276 -144.36533591124174,32.921657175632305 -141.86533591124098,33.591530156752796" stroke="#ffa500" stroke-linecap="round" stroke-linejoin="round"/><polyline fill="none" points="64.06613369404275,-28.5284223860699 66.56613369406475,-29.19829536711112 68.39626071302429,-31.028422386012625 69.06613369414478,-33.52842238601339 68.39626071310356,-36.028422386035395 66.56613369420205,-37.85854940499494 64.06613369420128,-38.52842238611544 61.56613369417928,-37.85854940507422 59.736006675219734,-36.028422386172714 59.066133694099236,-33.528422386171954 59.73600667514045,-31.02842238614995 61.56613369404196,-29.198295367190404 64.06613369404272,-28.528422386069906" stroke="#ffa500" stroke-linecap="round" stroke-linejoin="round"/><polyline fill="none" points="-292.0066328852919,-118.94930170423243 -289.5066328852699,-119.61917468527365 -287.6765058663103,-121.44930170417516 -287.00663288518984,-123.94930170417592 -287.6765058662311,-126.44930170419792 -289.5066328851326,-128.27942872315748 -292.00663288513334,-128.94930170427799 -294.50663288515534,-128.27942872323678 -296.3367599041149,-126.44930170433527 -297.0066328852354,-123.9493017043345 -296.33675990419414,-121.4493017043125 -294.5066328852926,-119.61917468535296 -292.0066328852919,-118.94930170423245" stroke="#ffa500" stroke-linecap="round" stroke-linejoin="round"/><polyline fill="none" points="-332.07581391109545,-115.61601471615788 -329.57581391107345,-116.28588769719909 -327.7456868921139,-118.1160147161006 -327.0758139109934,-120.61601471610136 -327.74568689203466,-123.11601471612337 -329.5758139109362,-124.94614173508292 -332.0758139109369,-125.61601471620342 -334.5758139109589,-124.94614173516221 -336.4059409299185,-123.11601471626071 -337.07581391103895,-120.61601471625994 -336.4059409299977,-118.11601471623793 -334.5758139110962,-116.28588769727838 -332.07581391109545,-115.61601471615788" stroke="#00f" stroke-linecap="round" stroke-linejoin="round"/><polyline fill="none" points="-336.2860013521624,-170.44421823766442 -333.7860013521404,-171.11409121870562 -331.9558743331808,-172.94421823760712 -331.28600135206034,-175.44421823760788 -331.9558743331016,-177.94421823762988 -333.7860013520031,-179.77434525658944 -336.28600135200384,-180.44421823770995 -338.78600135202583,-179.77434525666874 -340.6161283709854,-177.94421823776725 -341.28600135210587,-175.44421823776648 -340.61612837106463,-172.94421823774448 -338.7860013521631,-171.11409121878492 -336.2860013521624,-170.44421823766442" stroke="#ffa500" stroke-linecap="round" stroke-linejoin="round"/><polyline fill="none" points="-327.8457327794381,-151.80582456205804 -325.3457327794161,-152.47569754309924 -323.51560576045654,-154.30582456200074 -322.845732779336,-156.8058245620015 -323.5156057603772,-159.3058245620235 -325.3457327792787,-161.13595158098306 -327.84573277927944,-161.80582456210357 -330.34573277930144,-161.13595158106236 -332.175859798261,-159.30582456216086 -332.84573277938154,-156.8058245621601 -332.17585979834035,-154.3058245621381 -330.34573277943883,-152.47569754317854 -327.8457327794381,-151.80582456205804" stroke="#008000" stroke-linecap="round" stroke-linejoin="round"/><polyline fill="none" points="-235.24754057337393,-6.418709916393196 -232.74754057335193,-7.088582897434403 -230.91741355439237,-8.918709916335905 -230.24754057327186,-11.418709916336667 -230.91741355431307,-13.918709916358678 -232.74754057321456,-15.748836935318232 -235.24754057321533,-16.418709916438743 -237.74754057323733,-15.748836935397538 -239.5776675921969,-13.918709916496038 -240.2475405733174,-11.418709916495278 -239.57766759227619,-8.918709916473267 -237.7475405733747,-7.088582897513711 -235.24754057337393,-6.4187099163932" stroke="#ffa500" stroke-linecap="round" stroke-linejoin="round"/><polyline fill="none" points="-275.9967694592051,-38.327088839240915 -273.4967694591831,-38.99696182028212 -271.66664244022354,-40.82708883918362 -270.996769459103,-43.32708883918438 -271.6666424401442,-45.82708883920639 -273.4967694590457,-47.65721585816595 -275.99676945904645,-48.32708883928646 -278.49676945906845,-47.65721585824526 -280.326896478028,-45.82708883934376 -280.99676945914854,-43.327088839343 -280.32689647810736,-40.827088839320986 -278.49676945920584,-38.99696182036143 -275.9967694592051,-38.327088839240915" stroke="#ffa500" stroke-linecap="round" stroke-linejoin="round"/><polyline fill="none" points="-287.7351506129869,-132.05903073920805 -285.2351506129649,-132.72890372024926 -283.40502359400534,-134.55903073915076 -282.7351506128848,-137.05903073915152 -283.405023593926,-139.55903073917355 -285.2351506128275,-141.3891577581331 -287.73515061282825,-142.05903073925361 -290.23515061285025,-141.3891577582124 -292.0652776318098,-139.5590307393109 -292.73515061293034,-137.05903073931015 -292.06527763188916,-134.55903073928812 -290.23515061298764,-132.72890372032856 -287.7351506129869,-132.05903073920805" stroke="#ffa500" stroke-linecap="round" stroke-linejoin="round"/><polyline fill="none" points="-310.8697959873161,-125.64661401744726 -308.3697959872941,-126.31648699848846 -306.5396689683345,-128.14661401738996 -305.869795987214,-130.64661401739073 -306.53966896825517,-133.14661401741276 -308.3697959871567,-134.97674103637232 -310.86979598715743,-135.64661401749282 -313.36979598717943,-134.9767410364516 -315.199923006139,-133.14661401755012 -315.8697959872595,-130.64661401754935 -315.19992300621834,-128.14661401752733 -313.3697959873168,-126.31648699856777 -310.8697959873161,-125.64661401744725" stroke="#00f" stroke-linecap="round" stroke-linejoin="round"/><polyline fill="none" points="-297.72720248653746,-136.2990942343011 -295.22720248651547,-136.9689672153423 -293.3970754675559,-138.7990942342438 -292.7272024864354,-141.29909423424456 -293.39707546747655,-143.7990942342666 -295.2272024863781,-145.62922125322615 -297.7272024863788,-146.29909423434668 -300.2272024864008,-145.62922125330547 -302.05732950536037,-143.79909423440398 -302.7272024864809,-141.2990942344032 -302.0573295054397,-138.7990942343812 -300.2272024865382,-136.96896721542163 -297.72720248653746,-136.2990942343011" stroke="#00f" stroke-linecap="round" stroke-linejoin="round"/><polyline fill="none" points="-172.99018430347255,-71.13629007860717 -170.49018430345052,-71.80616305964837 -168.66005728449096,-73.63629007854986 -167.99018430337043,-76.13629007855063 -168.66005728441164,-78.63629007857264 -170.49018430331313,-80.46641709753222 -172.9901843033139,-81.13629007865273 -175.49018430333592,-80.46641709761154 -177.32031132229548,-78.63629007871005 -177.99018430341602,-76.13629007870928 -177.32031132237483,-73.63629007868727 -175.49018430347334,-71.8061630597277 -172.99018430347257,-71.13629007860717" stroke="#ffa500" stroke-linecap="round" stroke-linejoin="round"/><polyline fill="none" points="-278.52927681569344,-107.57970430267608 -276.02927681567144,-108.24957728371727 -274.1991497967119,-110.07970430261877 -273.52927681559134,-112.57970430261953 -274.1991497966325,-115.07970430264155 -276.02927681553405,-116.90983132160112 -278.5292768155348,-117.57970430272164 -281.0292768155568,-116.90983132168044 -282.85940383451634,-115.07970430277895 -283.5292768156369,-112.57970430277818 -282.8594038345957,-110.07970430275617 -281.02927681569423,-108.2495772837966 -278.5292768156935,-107.57970430267608" stroke="#ffa500" stroke-linecap="round" stroke-linejoin="round"/><polyline fill="none" points="-264.92471493560953,-46.1548094091584 -262.42471493558753,-46.82468239019959 -260.594587916628,-48.654809409101084 -259.92471493550744,-51.154809409101844 -260.5945879165486,-53.654809409123864 -262.4247149354501,-55.48493642808344 -264.9247149354508,-56.15480940920396 -267.4247149354728,-55.484936428162776 -269.2548419544324,-53.65480940926128 -269.9247149355529,-51.15480940926052 -269.25484195451173,-48.6548094092385 -267.42471493561027,-46.82468239027893 -264.92471493560953,-46.1548094091584" stroke="#ffa500" stroke-linecap="round" stroke-linejoin="round"/><polyline fill="none" points="-271.8421995794808,-123.20800160296426 -269.3421995794588,-123.87787458400545 -267.51207256049923,-125.70800160290695 -266.8421995793787,-128.2080016029077 -267.5120725604199,-130.70800160292973 -269.34219957932135,-132.5381286218893 -271.8421995793221,-133.20800160300985 -274.3421995793441,-132.53812862196867 -276.17232659830364,-130.70800160306717 -276.8421995794242,-128.2080016030664 -276.172326598383,-125.70800160304438 -274.34219957948153,-123.87787458408481 -271.8421995794808,-123.20800160296427" stroke="#00f" stroke-linecap="round" stroke-linejoin="round"/><polyline fill="none" points="-169.90016159601757,16.263289280116645 -167.40016159599554,15.593416299075459 -165.57003457703595,13.76328928017397 -164.90016159591542,11.26328928017321 -165.5700345769566,8.763289280151188 -167.4001615958581,6.933162261191612 -169.90016159585886,6.263289280071078 -172.4001615958809,6.933162261112262 -174.23028861484048,8.763289280013751 -174.900161595961,11.263289280014511 -174.23028861491983,13.763289280036535 -172.40016159601834,15.593416298996111 -169.90016159601757,16.263289280116645" stroke="#00f" stroke-linecap="round" stroke-linejoin="round"/><polyline fill="none" points="-266.4239093917267,-61.62612143678804 -263.9239093917047,-62.29599441782922 -262.0937823727451,-64.12612143673071 -261.4239093916246,-66.62612143673147 -262.09378237266577,-69.1261214367535 -263.92390939156724,-70.95624845571307 -266.423909391568,-71.6261214368336 -268.92390939159,-70.95624845579242 -270.75403641054953,-69.12612143689093 -271.42390939167007,-66.62612143689017 -270.7540364106289,-64.12612143686815 -268.9239093917274,-62.29599441790857 -266.4239093917267,-61.626121436788026" stroke="#ffa500" stroke-linecap="round" stroke-linejoin="round"/><polyline fill="none" points="-325.487802347339,-139.66581397024243 -322.98780234731703,-140.3356869512836 -321.15767532835747,-142.1658139701851 -320.48780234723694,-144.66581397018587 -321.1576753282781,-147.1658139702079 -322.9878023471796,-148.99594098916748 -325.4878023471803,-149.665813970288 -327.9878023472023,-148.99594098924683 -329.8179293661619,-147.16581397034534 -330.4878023472824,-144.66581397034457 -329.81792936624123,-142.16581397032255 -327.98780234733977,-140.33568695136296 -325.487802347339,-139.66581397024243" stroke="#008000" stroke-linecap="round" stroke-linejoin="round"/><polyline fill="none" points="-324.3968936271896,-126.59388919409798 -321.89689362716763,-127.26376217513916 -320.06676660820807,-129.09388919404066 -319.39689362708754,-131.59388919404142 -320.0667666081287,-134.09388919406345 -321.8968936270302,-135.92401621302304 -324.3968936270309,-136.59388919414357 -326.8968936270529,-135.9240162131024 -328.7270206460125,-134.0938891942009 -329.396893627133,-131.59388919420013 -328.72702064609183,-129.0938891941781 -326.89689362719037,-127.26376217521852 -324.3968936271896,-126.59388919409797" stroke="#ffa500" stroke-linecap="round" stroke-linejoin="round"/><polyline fill="none" points="349.9147383214604,-164.13149071257226 352.41473832148245,-164.80136369361344 354.244865340442,-166.63149071251493 354.91473832156254,-169.1314907125157 354.24486534052136,-171.63149071253773 352.4147383216199,-173.4616177314973 349.91473832161915,-174.13149071261785 347.4147383215971,-173.46161773157667 345.58461130263754,-171.63149071267517 344.914738321517,-169.1314907126744 345.5846113025582,-166.63149071265238 347.41473832145965,-164.8013636936928 349.9147383214604,-164.13149071257226" stroke="#ffa500" stroke-linecap="round" stroke-linejoin="round"/></svg>