<?xml version="1.0" ?><!DOCTYPE svg  PUBLIC '-//W3C//DTD SVG 1.1//EN'  'http://www.w3.org/Graphics/SVG/1.1/DTD/svg11.dtd'><svg height="289.000" viewBox="-386.000 -201.000 790.000 289.000" width="790.000" xmlns="http://www.w3.org/2000/svg"><line fill="none" stroke="none" stroke-linecap="round" stroke-width="2.0" x1="0.0" x2="0.0" y1="0.0" y2="0.0"/><polygon fill="none" fill-rule="evenodd" points="0.0,0.0 0.0,0.0 0.0,0.0" stroke-linejoin="round"/><polyline fill="none" points="-355.73105131452525,-140.5040626408572 -353.2310513145018,-141.17393562189605 -351.4009242955399,-143.00406264079623 -350.7310513144166,-145.50406264079706 -351.40092429545547,-148.0040626408205 -353.2310513143556,-149.83418965978248 -355.7310513143565,-150.50406264090574 -358.2310513143799,-149.8341896598669 -360.06117833334184,-148.0040626409667 -360.7310513144651,-145.50406264096588 -360.06117833342626,-143.00406264094244 -358.2310513145261,-141.17393562198046 -355.73105131452525,-140.5040626408572" stroke="#00f" stroke-linecap="round" stroke-linejoin="round"/><polyline fill="none" points="-338.94324929110786,-153.2508592223945 -336.44324929108444,-153.92073220343335 -334.61312227212244,-155.75085922233353 -333.9432492909992,-158.25085922233436 -334.613122272038,-160.7508592223578 -336.4432492909382,-162.58098624131978 -338.94324929093904,-163.25085922244304 -341.44324929096246,-162.5809862414042 -343.27337630992446,-160.750859222504 -343.9432492910477,-158.25085922250318 -343.27337631000887,-155.75085922247973 -341.4432492911087,-153.92073220351776 -338.94324929110786,-153.2508592223945" stroke="#008000" stroke-linecap="round" stroke-linejoin="round"/><polyline fill="none" points="-262.06423903660055,-124.06116602092544 -259.56423903657713,-124.73103900196429 -257.73411201761513,-126.56116602086446 -257.06423903649187,-129.0611660208653 -257.7341120175307,-131.56116602088875 -259.5642390364309,-133.39129303985072 -262.06423903643173,-134.06116602097399 -264.56423903645515,-133.39129303993514 -266.39436605541715,-131.56116602103495 -267.0642390365404,-129.06116602103413 -266.39436605550156,-126.56116602101068 -264.5642390366014,-124.7310390020487 -262.06423903660055,-124.06116602092543" stroke="#ffa500" stroke-linecap="round" stroke-linejoin="round"/><polyline fill="none" points="-343.7824592742329,-155.47182612449086 -341.2824592742095,-156.1416991055297 -339.4523322552475,-157.9718261244299 -338.7824592741242,-160.47182612443072 -339.45233225516307,-162.97182612445417 -341.2824592740632,-164.80195314341614 -343.7824592740641,-165.4718261245394 -346.2824592740875,-164.80195314350055 -348.1125862930495,-162.97182612460037 -348.78245927417277,-160.47182612459954 -348.1125862931339,-157.9718261245761 -346.28245927423376,-156.14169910561412 -343.7824592742329,-155.47182612449086" stroke="#008000" stroke-linecap="round" stroke-linejoin="round"/><polyline fill="none" points="-353.57364792008593,-129.75261155755453 -351.07364792006246,-130.42248453859338 -349.24352090110045,-132.25261155749357 -348.5736479199772,-134.7526115574944 -349.24352090101604,-137.25261155751784 -351.0736479199162,-139.0827385764798 -353.57364791991705,-139.75261155760307 -356.0736479199405,-139.08273857656422 -357.90377493890253,-137.25261155766404 -358.5736479200258,-134.75261155766322 -357.90377493898694,-132.25261155763977 -356.0736479200868,-130.4224845386778 -353.57364792008593,-129.7526115575545" stroke="#00f" stroke-linecap="round" stroke-linejoin="round"/><polyline fill="none" points="-367.71074206120545,-178.56586194413575 -365.210742061182,-179.2357349251746 -363.38061504222,-181.06586194407478 -362.7107420610967,-183.5658619440756 -363.38061504213556,-186.06586194409905 -365.2107420610357,-187.89598896306103 -367.71074206103657,-188.56586194418432 -370.21074206106005,-187.89598896314547 -372.04086908002205,-186.06586194424528 -372.7107420611453,-183.56586194424446 -372.04086908010646,-181.065861944221 -370.2107420612063,-179.23573492525904 -367.71074206120545,-178.56586194413575" stroke="#00f" stroke-linecap="round" stroke-linejoin="round"/><polyline fill="none" points="366.6843370871803,-160.32635467090634 369.1843370872038,-160.9962276519452 371.0144641061658,-162.82635467084538 371.68433708728907,-165.3263546708462 371.0144641062502,-167.82635467086965 369.18433708735006,-169.65648168983162 366.6843370873492,-170.3263546709549 364.18433708732573,-169.65648168991606 362.3542100683637,-167.8263546710159 361.68433708724046,-165.32635467101508 362.3542100682793,-162.82635467099163 364.1843370871795,-160.99622765202963 366.6843370871803,-160.32635467090634" stroke="#ffa500" stroke-linecap="round" stroke-linejoin="round"/><polyline fill="none" points="-347.9709124415441,-141.2080338041575 -345.4709124415206,-141.87790678519636 -343.6407854225586,-143.70803380409652 -342.97091244143536,-146.20803380409734 -343.6407854224742,-148.7080338041208 -345.47091244137437,-150.5381608230828 -347.9709124413752,-151.20803380420608 -350.4709124413987,-150.53816082316726 -352.3010394603607,-148.7080338042671 -352.97091244148396,-146.20803380426628 -352.3010394604451,-143.70803380424283 -350.47091244154495,-141.87790678528083 -347.9709124415441,-141.20803380415754" stroke="#00f" stroke-linecap="round" stroke-linejoin="round"/><polyline fill="none" points="71.63179375957642,-39.23202063630427 74.13179375959987,-39.901893617343106 75.96192077856186,-41.73202063624328 76.63179375968515,-44.2320206362441 75.96192077864632,-46.732020636267556 74.13179375974615,-48.56214765522955 71.63179375974532,-49.232020636352836 69.13179375972187,-48.562147655314 67.30166674075988,-46.732020636413836 66.6317937596366,-44.23202063641301 67.30166674067543,-41.73202063638956 69.1317937595756,-39.90189361742756 71.63179375957642,-39.23202063630427" stroke="#ffa500" stroke-linecap="round" stroke-linejoin="round"/><polyline fill="none" points="386.674317335047,-174.33108833325693 389.1743173350705,-175.00096131429575 391.0044443540325,-176.8310883331959 391.67431733515576,-179.33108833319673 391.0044443541169,-181.83108833322018 389.17431733521676,-183.66121535218218 386.6743173352159,-184.33108833330547 384.1743173351924,-183.66121535226665 382.3441903162304,-181.8310883333665 381.67431733510716,-179.33108833336567 382.344190316146,-176.83108833334222 384.17431733504617,-175.00096131438022 386.674317335047,-174.33108833325693" stroke="#00f" stroke-linecap="round" stroke-linejoin="round"/><polyline fill="none" points="-360.04357978257633,-169.53402531752727 -357.54357978255285,-170.2038982985661 -355.71345276359085,-172.03402531746625 -355.04357978246753,-174.53402531746707 -355.7134527635064,-177.03402531749052 -357.54357978240654,-178.86415233645252 -360.0435797824074,-179.5340253175758 -362.54357978243087,-178.864152336537 -364.37370680139287,-177.03402531763683 -365.0435797825162,-174.534025317636 -364.37370680147734,-172.03402531761256 -362.5435797825772,-170.20389829865056 -360.04357978257633,-169.53402531752727" stroke="#00f" stroke-linecap="round" stroke-linejoin="round"/><polyline fill="none" points="-283.3837171130826,-91.80083133842217 -280.8837171130591,-92.47070431946099 -279.0535900940971,-94.30083133836116 -278.3837171129738,-96.80083133836199 -279.05359009401263,-99.30083133838545 -280.8837171129128,-101.13095835734745 -283.38371711291364,-101.80083133847074 -285.8837171129371,-101.13095835743192 -287.7138441318991,-99.30083133853176 -288.38371711302244,-96.80083133853094 -287.7138441319836,-94.30083133850748 -285.88371711308343,-92.47070431954548 -283.3837171130826,-91.80083133842219" stroke="#00f" stroke-linecap="round" stroke-linejoin="round"/><polyline fill="none" points="-312.294889544982,-154.71674030453522 -309.79488954495855,-155.38661328557404 -307.96476252599655,-157.2167403044742 -307.29488954487323,-159.71674030447502 -307.9647625259121,-162.21674030449847 -309.79488954481224,-164.04686732346048 -312.2948895448131,-164.71674030458377 -314.79488954483656,-164.04686732354494 -316.62501656379857,-162.2167403046448 -317.2948895449219,-159.71674030464396 -316.62501656388304,-157.21674030462052 -314.7948895449829,-155.3866132856585 -312.294889544982,-154.71674030453522" stroke="#ffa500" stroke-linecap="round" stroke-linejoin="round"/><polyline fill="none" points="-267.52554436159505,-50.23703926801289 -265.0255443615716,-50.906912249051715 -263.1954173426096,-52.73703926795188 -262.52554436148625,-55.2370392679527 -263.1954173425251,-57.737039267976165 -265.02554436142526,-59.56716628693817 -267.5255443614261,-60.237039268061466 -270.0255443614496,-59.567166287022644 -271.8556713804116,-57.73703926812248 -272.5255443615349,-55.237039268121656 -271.8556713804961,-52.737039268098194 -270.02554436159596,-50.90691224913619 -267.5255443615951,-50.23703926801289" stroke="#ffa500" stroke-linecap="round" stroke-linejoin="round"/><polyline fill="none" points="-267.3299614468884,-116.57198772432247 -264.8299614468649,-117.24186070536129 -262.9998344279029,-119.07198772426145 -262.3299614467796,-121.57198772426227 -262.99983442781837,-124.07198772428573 -264.8299614467185,-125.90211474324774 -267.3299614467194,-126.57198772437104 -269.82996144674286,-125.90211474333222 -271.66008846570486,-124.07198772443206 -272.3299614468282,-121.57198772443124 -271.6600884657894,-119.07198772440778 -269.82996144688923,-117.24186070544577 -267.3299614468884,-116.57198772432247" stroke="#ffa500" stroke-linecap="round" stroke-linejoin="round"/><polyline fill="none" points="-362.27168190922885,-175.81185783972336 -359.77168190920537,-176.48173082076218 -357.94155489024337,-178.31185783966234 -357.27168190912005,-180.81185783966316 -357.94155489015884,-183.31185783968664 -359.771681909059,-185.14198485864864 -362.27168190905985,-185.81185783977196 -364.7716819090833,-185.14198485873314 -366.60180892804533,-183.31185783983298 -367.27168190916865,-180.81185783983216 -366.60180892812986,-178.31185783980868 -364.7716819092297,-176.48173082084668 -362.27168190922885,-175.81185783972336" stroke="#00f" stroke-linecap="round" stroke-linejoin="round"/><polyline fill="none" points="-299.11170247478805,-130.18181936952186 -296.61170247476457,-130.85169235056068 -294.78157545580257,-132.68181936946084 -294.11170247467925,-135.18181936946166 -294.78157545571804,-137.68181936948514 -296.6117024746182,-139.51194638844714 -299.11170247461905,-140.18181936957046 -301.6117024746425,-139.51194638853164 -303.44182949360453,-137.68181936963148 -304.11170247472785,-135.18181936963066 -303.44182949368906,-132.68181936960718 -301.6117024747889,-130.85169235064518 -299.11170247478805,-130.18181936952186" stroke="#00f" stroke-linecap="round" stroke-linejoin="round"/><polyline fill="none" points="-284.824121062356,-43.143394898750195 -282.32412106233255,-43.81326787978901 -280.49399404337055,-45.643394898689166 -279.82412106224723,-48.14339489868999 -280.493994043286,-50.64339489871346 -282.3241210621862,-52.47352191767547 -284.82412106218703,-53.14339489879878 -287.3241210622105,-52.47352191775997 -289.1542480811725,-50.64339489885981 -289.82412106229583,-48.143394898858986 -289.15424808125704,-45.64339489883552 -287.3241210623569,-43.8132678798735 -284.824121062356,-43.14339489875019" stroke="#ffa500" stroke-linecap="round" stroke-linejoin="round"/><polyline fill="none" points="-370.0715821285755,-180.35376159796573 -367.57158212855205,-181.02363457900455 -365.74145510959005,-182.8537615979047 -365.07158212846673,-185.35376159790553 -365.7414551095055,-187.853761597929 -367.5715821284057,-189.683888616891 -370.07158212840653,-190.35376159801433 -372.57158212843,-189.6838886169755 -374.401709147392,-187.85376159807535 -375.07158212851533,-185.35376159807453 -374.40170914747654,-182.85376159805105 -372.5715821285764,-181.02363457908905 -370.0715821285755,-180.35376159796573" stroke="#00f" stroke-linecap="round" stroke-linejoin="round"/><polyline fill="none" points="40.19802681993328,-47.773575502397826 42.69802681995675,-48.44344848343663 44.52815383891877,-50.27357550233679 45.19802682004208,-52.773575502337614 44.528153839003274,-55.27357550236108 42.69802682010312,-57.1037025213231 40.19802682010229,-57.77357550244642 37.69802682007882,-57.10370252140761 35.867899801116806,-55.273575502507455 35.19802681999349,-52.77357550250663 35.867899801032294,-50.27357550248316 37.69802681993245,-48.443448483521145 40.198026819933276,-47.773575502397826" stroke="#00f" stroke-linecap="round" stroke-linejoin="round"/><polyline fill="none" points="-291.76956380048995,-112.14947027972158 -289.26956380046647,-112.81934326076039 -287.43943678150447,-114.64947027966055 -286.76956380038115,-117.14947027966137 -287.43943678141994,-119.64947027968485 -289.2695638003201,-121.47959729864687 -291.76956380032095,-122.14947027977018 -294.26956380034443,-121.47959729873138 -296.09969081930643,-119.64947027983122 -296.76956380042975,-117.1494702798304 -296.09969081939096,-114.64947027980692 -294.2695638004908,-112.8193432608449 -291.76956380048995,-112.14947027972158" stroke="#ffa500" stroke-linecap="round" stroke-linejoin="round"/><polyline fill="none" points="-332.89619621604334,-147.6010638444161 -330.39619621601986,-148.2709368254549 -328.56606919705786,-150.10106384435505 -327.89619621593454,-152.60106384435588 -328.56606919697333,-155.10106384437935 -330.3961962158735,-156.93119086334139 -332.89619621587434,-157.6010638444647 -335.3961962158978,-156.9311908634259 -337.2263232348598,-155.10106384452575 -337.89619621598314,-152.60106384452493 -337.22632323494435,-150.10106384450145 -335.3961962160442,-148.27093682553942 -332.89619621604334,-147.6010638444161" stroke="#ffa500" stroke-linecap="round" stroke-linejoin="round"/><polyline fill="none" points="-244.91382002212524,-113.82750586456143 -242.41382002210176,-114.49737884560024 -240.58369300313973,-116.3275058645004 -239.9138200220164,-118.82750586450122 -240.5836930030552,-121.3275058645247 -242.41382002195536,-123.15763288348673 -244.91382002195618,-123.82750586461005 -247.41382002197966,-123.15763288357124 -249.2439470409417,-121.3275058646711 -249.913820022065,-118.82750586467027 -249.24394704102622,-116.3275058646468 -247.41382002212606,-114.49737884568476 -244.91382002212524,-113.82750586456145" stroke="#ffa500" stroke-linecap="round" stroke-linejoin="round"/><polyline fill="none" points="-356.36573404128325,-142.8200373959336 -353.86573404125977,-143.4899103769724 -352.03560702229777,-145.32003739587256 -351.36573404117445,-147.82003739587338 -352.03560702221324,-150.32003739589686 -353.8657340411134,-152.1501644148589 -356.36573404111425,-152.8200373959822 -358.8657340411377,-152.15016441494342 -360.69586106009973,-150.32003739604326 -361.36573404122305,-147.82003739604244 -360.69586106018426,-145.32003739601896 -358.8657340412841,-143.48991037705693 -356.36573404128325,-142.8200373959336" stroke="#00f" stroke-linecap="round" stroke-linejoin="round"/><polyline fill="none" points="-186.83877311892365,56.64701977638919 -184.33877311890018,55.97714679535039 -182.50864609993815,54.14701977645024 -181.83877311881483,51.64701977644942 -182.50864609985362,49.14701977642594 -184.33877311875378,47.31689275746391 -186.8387731187546,46.647019776340585 -189.33877311877808,47.31689275737938 -191.1689001377401,49.14701977627953 -191.83877311886343,51.64701977628035 -191.16890013782464,54.14701977630383 -189.33877311892448,55.97714679526586 -186.83877311892365,56.64701977638919" stroke="#ffa500" stroke-linecap="round" stroke-linejoin="round"/><polyline fill="none" points="-263.9196685394828,-108.06539409508302 -261.41966853945934,-108.73526707612181 -259.58954152049733,-110.56539409502196 -258.919668539374,-113.06539409502278 -259.5895415204128,-115.56539409504626 -261.41966853931297,-117.39552111400829 -263.9196685393138,-118.06539409513162 -266.4196685393373,-117.39552111409283 -268.24979555829935,-115.56539409519269 -268.9196685394227,-113.06539409519186 -268.2497955583839,-110.56539409516839 -266.4196685394837,-108.73526707620636 -263.91966853948287,-108.06539409508302" stroke="#ffa500" stroke-linecap="round" stroke-linejoin="round"/><polyline fill="none" points="361.8398751248389,-170.07445270768122 364.3398751248624,-170.74432568872 366.17000214382443,-172.57445270762017 366.83987512494775,-175.074452707621 366.17000214390896,-177.57445270764447 364.3398751250088,-179.4045797266065 361.83987512500795,-180.07445270772985 359.3398751249845,-179.40457972669105 357.5097481060224,-177.5744527077909 356.8398751248991,-175.07445270779007 357.5097481059379,-172.5744527077666 359.33987512483804,-170.74432568880457 361.8398751248389,-170.07445270768122" stroke="#ffa500" stroke-linecap="round" stroke-linejoin="round"/><polyline fill="none" points="-285.98203533812506,-149.49857054045998 -283.4820353381016,-150.16844352149877 -281.6519083191395,-151.99857054039893 -280.9820353380162,-154.49857054039975 -281.651908319055,-156.99857054042323 -283.48203533795515,-158.82869755938526 -285.982035337956,-159.4985705405086 -288.4820353379795,-158.82869755946982 -290.31216235694154,-156.9985705405697 -290.98203533806486,-154.49857054056886 -290.31216235702607,-151.9985705405454 -288.4820353381259,-150.16844352158336 -285.98203533812506,-149.49857054046" stroke="#ffa500" stroke-linecap="round" stroke-linejoin="round"/><polyline fill="none" points="-201.76689091476098,-68.88317833691825 -199.2668909147375,-69.55305131795704 -197.43676389577547,-71.38317833685718 -196.76689091465212,-73.88317833685801 -197.43676389569092,-76.38317833688149 -199.26689091459104,-78.21330535584353 -201.76689091459187,-78.88317833696686 -204.26689091461535,-78.21330535592807 -206.09701793357738,-76.38317833702793 -206.76689091470072,-73.8831783370271 -206.09701793366193,-71.38317833700363 -204.2668909147618,-69.55305131804158 -201.76689091476098,-68.88317833691823" stroke="#ffa500" stroke-linecap="round" stroke-linejoin="round"/><polyline fill="none" points="-317.6822627372261,-119.89837557037552 -315.1822627372026,-120.5682485514143 -313.35213571824056,-122.39837557031444 -312.68226273711724,-124.89837557031527 -313.35213571815603,-127.39837557033874 -315.1822627370562,-129.22850258930077 -317.68226273705704,-129.89837557042412 -320.1822627370805,-129.22850258938533 -322.0123897560426,-127.39837557048519 -322.6822627371659,-124.89837557048436 -322.0123897561271,-122.39837557046087 -320.18226273722695,-120.56824855149883 -317.6822627372261,-119.89837557037548" stroke="#ffa500" stroke-linecap="round" stroke-linejoin="round"/><polyline fill="none" points="-241.8165227143678,-104.75001689377153 -239.31652271434433,-105.41988987481031 -237.4863956953823,-107.25001689371045 -236.81652271425895,-109.75001689371128 -237.48639569529774,-112.25001689373477 -239.31652271419787,-114.08014391269681 -241.8165227141987,-114.75001689382016 -244.31652271422217,-114.08014391278138 -246.1466497331842,-112.25001689388124 -246.81652271430755,-109.75001689388041 -246.14664973326876,-107.25001689385692 -244.31652271436863,-105.41988987489488 -241.8165227143678,-104.75001689377153" stroke="#ffa500" stroke-linecap="round" stroke-linejoin="round"/><polyline fill="none" points="-290.085497691693,-128.45272362472195 -287.5854976916695,-129.12259660576075 -285.75537067270744,-130.95272362466088 -285.0854976915841,-133.4527236246617 -285.7553706726229,-135.95272362468518 -287.5854976915231,-137.78285064364724 -290.0854976915239,-138.45272362477058 -292.5854976915474,-137.7828506437318 -294.41562471050946,-135.95272362483166 -295.08549769163284,-133.45272362483084 -294.41562471059405,-130.95272362480736 -292.5854976916939,-129.1225966058453 -290.08549769169304,-128.45272362472195" stroke="#00f" stroke-linecap="round" stroke-linejoin="round"/><polyline fill="none" points="-288.5721339986429,-47.565433411873855 -286.07213399861945,-48.235306392912634 -284.2420069796574,-50.06543341181277 -283.572133998534,-52.56543341181359 -284.2420069795728,-55.06543341183708 -286.07213399847296,-56.89556043079912 -288.5721339984738,-57.56543341192247 -291.0721339984973,-56.89556043088369 -292.90226101745935,-55.065433411983555 -293.57213399858273,-52.56543341198273 -292.90226101754394,-50.06543341195924 -291.0721339986438,-48.23530639299719 -288.5721339986429,-47.56543341187383" stroke="#00f" stroke-linecap="round" stroke-linejoin="round"/><polyline fill="none" points="-169.11588072779742,20.302561006418838 -166.61588072777394,19.632688025380062 -164.78575370881188,17.802561006479927 -164.11588072768853,15.3025610064791 -164.7857537087273,12.802561006455612 -166.61588072762743,10.972433987493561 -169.11588072762825,10.302561006370208 -171.61588072765173,10.972433987408984 -173.4460077466138,12.802561006309118 -174.11588072773714,15.302561006309944 -173.44600774669837,17.80256100633343 -171.61588072779824,19.632688025295483 -169.11588072779742,20.302561006418838" stroke="#ffa500" stroke-linecap="round" stroke-linejoin="round"/><polyline fill="none" points="-155.22429024610625,32.93406432007579 -152.72429024608277,32.26419133903702 -150.8941632271207,30.434064320136887 -150.22429024599737,27.934064320136063 -150.89416322703613,25.434064320112576 -152.72429024593626,23.603937301150523 -155.22429024593708,22.93406432002717 -157.72429024596056,23.60393730106594 -159.55441726492262,25.434064319966073 -160.22429024604597,27.934064319966897 -159.5544172650072,30.434064319990387 -157.72429024610707,32.26419133895244 -155.22429024610625,32.9340643200758" stroke="#ffa500" stroke-linecap="round" stroke-linejoin="round"/><polyline fill="none" points="371.5392814001264,-179.38162861845424 374.0392814001499,-180.051501599493 375.86940841911195,-181.88162861839314 376.5392814002353,-184.38162861839396 375.86940841919653,-186.88162861841744 374.0392814002964,-188.7117556373795 371.5392814002955,-189.38162861850284 369.03928140027205,-188.71175563746408 367.20915438131,-186.88162861856395 366.5392814001866,-184.38162861856313 367.2091543812254,-181.88162861853962 369.03928140012556,-180.05150159957756 371.5392814001264,-179.38162861845422" stroke="#ffa500" stroke-linecap="round" stroke-linejoin="round"/><polyline fill="none" points="-267.9400470857893,-40.71866457797305 -265.4400470857658,-41.38853755901182 -263.60992006680374,-43.21866457791195 -262.94004708568036,-45.718664577912776 -263.60992006671916,-48.218664577936266 -265.4400470856193,-50.048791596898326 -267.94004708562017,-50.71866457802169 -270.44004708564364,-50.04879159698292 -272.2701741046057,-48.218664578082794 -272.9400470857291,-45.71866457808197 -272.2701741046903,-43.21866457805848 -270.4400470857901,-41.38853755909642 -267.9400470857893,-40.71866457797306" stroke="#ffa500" stroke-linecap="round" stroke-linejoin="round"/><polyline fill="none" points="55.22148372059511,-42.02566932564451 57.7214837206186,-42.69554230668327 59.55161073958066,-44.5256693255834 60.22148372070402,-47.025669325584225 59.55161073966526,-49.525669325607716 57.72148372076513,-51.355796344569775 55.221483720764304,-52.02566932569314 52.721483720740814,-51.35579634465437 50.891356701778754,-49.525669325754244 50.22148372065539,-47.02566932575342 50.89135670169416,-44.52566932572992 52.721483720594286,-42.69554230676786 55.22148372059511,-42.0256693256445" stroke="#ffa500" stroke-linecap="round" stroke-linejoin="round"/><polyline fill="none" points="374.9520046828167,-162.08252354962246 377.4520046828402,-162.75239653066123 379.28213170180226,-164.58252354956136 379.95200468292563,-167.08252354956218 379.2821317018869,-169.5825235495857 377.4520046829868,-171.41265056854775 374.95200468298594,-172.08252354967112 372.45200468296247,-171.41265056863236 370.6218776640004,-169.58252354973223 369.95200468287703,-167.0825235497314 370.62187766391577,-164.5825235497079 372.45200468281587,-162.75239653074584 374.9520046828167,-162.08252354962246" stroke="#ffa500" stroke-linecap="round" stroke-linejoin="round"/><polyline fill="none" points="69.66510729269092,-26.34812822216057 72.16510729271441,-27.018001203199333 73.99523431167647,-28.848128222099458 74.66510729279985,-31.348128222100282 73.99523431176108,-33.848128222123776 72.16510729286095,-35.67825524108584 69.66510729286013,-36.34812822220921 67.16510729283664,-35.678255241170454 65.33498027387458,-33.848128222270326 64.6651072927512,-31.3481282222695 65.33498027378997,-28.848128222246004 67.1651072926901,-27.018001203283937 69.66510729269092,-26.348128222160565" stroke="#ffa500" stroke-linecap="round" stroke-linejoin="round"/><polyline fill="none" points="-230.2603180063455,-118.61240956352974 -227.760318006322,-119.2822825445685 -225.93019098735994,-121.11240956346863 -225.26031800623656,-123.61240956346946 -225.93019098727532,-126.11240956349295 -227.76031800617545,-127.94253658245502 -230.26031800617628,-128.61240956357838 -232.76031800619978,-127.94253658253962 -234.59044502516184,-126.11240956363949 -235.26031800628522,-123.61240956363866 -234.59044502524645,-121.11240956361516 -232.76031800634632,-119.28228254465309 -230.2603180063455,-118.61240956352971" stroke="#ffa500" stroke-linecap="round" stroke-linejoin="round"/><polyline fill="none" points="-301.99053959527777,-128.90997624053773 -299.4905395952543,-129.5798492215765 -297.66041257629223,-131.40997624047662 -296.99053959516885,-133.90997624047745 -297.6604125762076,-136.40997624050095 -299.4905395951077,-138.240103259463 -301.99053959510854,-138.9099762405864 -304.490539595132,-138.24010325954762 -306.3206666140941,-136.4099762406475 -306.99053959521746,-133.90997624064667 -306.3206666141787,-131.40997624062317 -304.4905395952786,-129.5798492216611 -301.99053959527777,-128.90997624053773" stroke="#ffa500" stroke-linecap="round" stroke-linejoin="round"/><polyline fill="none" points="-228.8483594282797,-112.22494623902061 -226.3483594282562,-112.89481922005936 -224.51823240929414,-114.72494623895949 -223.84835942817077,-117.22494623896031 -224.51823240920953,-119.72494623898382 -226.34835942810966,-121.55507325794589 -228.84835942811048,-122.22494623906927 -231.348359428134,-121.55507325803052 -233.17848644709605,-119.72494623913039 -233.84835942821942,-117.22494623912957 -233.17848644718066,-114.72494623910606 -231.34835942828053,-112.89481922014399 -228.8483594282797,-112.22494623902061" stroke="#ffa500" stroke-linecap="round" stroke-linejoin="round"/><polyline fill="none" points="-351.7582811958002,-140.00720137533477 -349.2582811957767,-140.67707435637354 -347.42815417681464,-142.50720137527367 -346.75828119569127,-145.0072013752745 -347.42815417673,-147.507201375298 -349.2582811956301,-149.33732839426006 -351.75828119563096,-150.00720137538343 -354.25828119565443,-149.33732839434467 -356.0884082146165,-147.50720137544454 -356.75828119573987,-145.0072013754437 -356.08840821470113,-142.5072013754202 -354.25828119580103,-140.67707435645812 -351.7582811958002,-140.00720137533474" stroke="#008000" stroke-linecap="round" stroke-linejoin="round"/><polyline fill="none" points="-291.4265535522542,-83.74122214103312 -288.9265535522307,-84.41109512207187 -287.09642653326864,-86.24122214097198 -286.42655355214526,-88.74122214097281 -287.096426533184,-91.24122214099631 -288.9265535520841,-93.07134915995839 -291.42655355208495,-93.74122214108176 -293.92655355210843,-93.07134916004301 -295.7566805710705,-91.2412221411429 -296.42655355219387,-88.74122214114207 -295.75668057115513,-86.24122214111857 -293.92655355225503,-84.4110951221565 -291.4265535522542,-83.7412221410331" stroke="#ffa500" stroke-linecap="round" stroke-linejoin="round"/><polyline fill="none" points="-265.8443049835966,-98.63466784505195 -263.3443049835731,-99.3045408260907 -261.51417796461106,-101.13466784499082 -260.8443049834877,-103.63466784499164 -261.5141779645264,-106.13466784501514 -263.3443049834265,-107.96479486397722 -265.8443049834274,-108.63466784510061 -268.34430498345085,-107.96479486406186 -270.1744320024129,-106.13466784516174 -270.8443049835363,-103.63466784516092 -270.17443200249755,-101.13466784513741 -268.34430498359745,-99.30454082617534 -265.8443049835966,-98.63466784505195" stroke="#ffa500" stroke-linecap="round" stroke-linejoin="round"/><polyline fill="none" points="-213.52373338055324,-85.40247913902351 -211.02373338052973,-86.07235212006226 -209.19360636156765,-87.90247913896238 -208.52373338044427,-90.4024791389632 -209.193606361483,-92.9024791389867 -211.02373338038313,-94.73260615794878 -213.52373338038396,-95.40247913907217 -216.02373338040746,-94.73260615803342 -217.85386039936955,-92.9024791391333 -218.52373338049293,-90.40247913913248 -217.8538603994542,-87.90247913910898 -216.02373338055406,-86.07235212014689 -213.52373338055324,-85.4024791390235" stroke="#ffa500" stroke-linecap="round" stroke-linejoin="round"/><polyline fill="none" points="-298.1584540079604,-69.93413122394257 -295.6584540079369,-70.60400420498131 -293.8283269889748,-72.43413122388142 -293.15845400785145,-74.93413122388225 -293.8283269888902,-77.43413122390575 -295.6584540077903,-79.26425824286784 -298.15845400779114,-79.93413122399123 -300.65845400781467,-79.2642582429525 -302.4885810267767,-77.43413122405238 -303.1584540079001,-74.93413122405155 -302.48858102686137,-72.43413122402805 -300.65845400796127,-70.60400420506596 -298.1584540079604,-69.93413122394257" stroke="#00f" stroke-linecap="round" stroke-linejoin="round"/><polyline fill="none" points="-331.821870300663,-104.08086591238458 -329.3218703006395,-104.75073889342332 -327.49174328167743,-106.58086591232343 -326.82187030055405,-109.08086591232426 -327.4917432815928,-111.58086591234776 -329.3218703004929,-113.41099293130985 -331.82187030049374,-114.08086591243324 -334.3218703005173,-113.4109929313945 -336.15199731947934,-111.58086591249439 -336.8218703006027,-109.08086591249356 -336.151997319564,-106.58086591247006 -334.3218703006639,-104.75073889350797 -331.821870300663,-104.08086591238458" stroke="#00f" stroke-linecap="round" stroke-linejoin="round"/><polyline fill="none" points="-328.18944692072546,-110.86235431646375 -325.6894469207019,-111.53222729750249 -323.85931990173987,-113.3623543164026 -323.1894469206165,-115.86235431640343 -323.8593199016552,-118.36235431642693 -325.6894469205553,-120.19248133538902 -328.1894469205562,-120.86235431651241 -330.6894469205797,-120.19248133547367 -332.51957393954183,-118.36235431657356 -333.1894469206652,-115.86235431657273 -332.51957393962647,-113.36235431654923 -330.68944692072637,-111.53222729758714 -328.1894469207255,-110.86235431646374" stroke="#ffa500" stroke-linecap="round" stroke-linejoin="round"/><polyline fill="none" points="-198.4274932305587,-58.23570848363798 -195.9274932305352,-58.905581464676715 -194.0973662115731,-60.73570848357683 -193.4274932304497,-63.23570848357765 -194.09736621148843,-65.73570848360116 -195.92749323038854,-67.56583550256325 -198.42749323038936,-68.23570848368665 -200.92749323041286,-67.56583550264791 -202.75762024937495,-65.7357084837478 -203.42749323049836,-63.235708483746976 -202.75762024945962,-60.735708483723464 -200.92749323055952,-58.90558146476137 -198.4274932305587,-58.235708483637964" stroke="#ffa500" stroke-linecap="round" stroke-linejoin="round"/><polyline fill="none" points="-155.21921318822265,21.438845371691432 -152.71921318819915,20.7689723906527 -150.88908616923706,18.93884537175259 -150.21921318811366,16.438845371751764 -150.8890861691524,13.938845371728252 -152.7192131880525,12.108718352766159 -155.21921318805332,11.438845371642756 -157.71921318807682,12.108718352681489 -159.5493402070389,13.9388453715816 -160.2192131881623,16.438845371582424 -159.54934020712358,18.938845371605936 -157.71921318822348,20.76897239056803 -155.21921318822265,21.438845371691436" stroke="#ffa500" stroke-linecap="round" stroke-linejoin="round"/><polyline fill="none" points="-311.56954626145773,-116.22813296359047 -309.0695462614342,-116.8980059446292 -307.2394192424721,-118.72813296352932 -306.5695462613487,-121.22813296353014 -307.23941924238744,-123.72813296355366 -309.06954626128754,-125.55825998251575 -311.5695462612884,-126.22813296363915 -314.0695462613119,-125.55825998260042 -315.89967328027404,-123.7281329637003 -316.5695462613975,-121.22813296369948 -315.89967328035874,-118.72813296367596 -314.06954626145864,-116.89800594471386 -311.5695462614578,-116.22813296359045" stroke="#00f" stroke-linecap="round" stroke-linejoin="round"/><polyline fill="none" points="-348.5553920830192,-142.04716476978257 -346.0553920829957,-142.7170377508213 -344.2252650640336,-144.5471647697214 -343.55539208291015,-147.04716476972223 -344.2252650639489,-149.54716476974573 -346.055392082849,-151.37729178870782 -348.55539208284983,-152.04716476983123 -351.05539208287337,-151.3772917887925 -352.8855191018355,-149.5471647698924 -353.5553920829589,-147.04716476989157 -352.8855191019202,-144.54716476986806 -351.0553920830201,-142.71703775090597 -348.5553920830192,-142.04716476978257" stroke="#00f" stroke-linecap="round" stroke-linejoin="round"/><polyline fill="none" points="-176.71202106068245,75.90852102016139 -174.21202106065894,75.23864803912267 -172.38189404169685,73.40852102022257 -171.71202106057345,70.90852102022174 -172.38189404161218,68.40852102019822 -174.21202106051228,66.57839400123612 -176.7120210605131,65.90852102011272 -179.2120210605366,66.57839400115144 -181.0421480794987,68.40852102005154 -181.7120210606221,70.90852102005236 -181.04214807958337,73.40852102007588 -179.21202106068327,75.23864803903798 -176.71202106068245,75.9085210201614" stroke="#ffa500" stroke-linecap="round" stroke-linejoin="round"/><polyline fill="none" points="-313.25860851197876,-102.00013349294586 -310.75860851195523,-102.67000647398459 -308.9284814929931,-104.50013349288469 -308.2586085118697,-107.00013349288551 -308.9284814929084,-109.50013349290903 -310.7586085118085,-111.33026051187113 -313.25860851180937,-112.00013349299455 -315.7586085118329,-111.33026051195583 -317.588735530795,-109.50013349305573 -318.25860851191845,-107.0001334930549 -317.5887355308797,-104.50013349303138 -315.7586085119796,-102.67000647406928 -313.25860851197876,-102.00013349294586" stroke="#ffa500" stroke-linecap="round" stroke-linejoin="round"/><polyline fill="none" points="-353.22106353458224,-152.18087731792522 -350.7210635345587,-152.85075029896393 -348.8909365155966,-154.68087731786403 -348.22106353447316,-157.18087731786486 -348.8909365155119,-159.6808773178884 -350.721063534412,-161.5110043368505 -353.22106353441285,-162.1808773179739 -355.7210635344364,-161.5110043369352 -357.5511905533985,-159.6808773180351 -358.22106353452193,-157.18087731803428 -357.5511905534832,-154.68087731801074 -355.7210635345831,-152.85075029904863 -353.22106353458224,-152.18087731792522" stroke="#f00" stroke-linecap="round" stroke-linejoin="round"/><polyline fill="none" points="-320.87439430866226,-133.26266728390272 -318.3743943086387,-133.93254026494142 -316.5442672896766,-135.76266728384152 -315.8743943085532,-138.26266728384235 -316.5442672895919,-140.76266728386588 -318.374394308492,-142.592794302828 -320.87439430849287,-143.26266728395143 -323.3743943085164,-142.59279430291272 -325.2045213274785,-140.76266728401262 -325.87439430860195,-138.2626672840118 -325.2045213275632,-135.76266728398826 -323.3743943086631,-133.93254026502615 -320.87439430866226,-133.26266728390272" stroke="#008000" stroke-linecap="round" stroke-linejoin="round"/><polyline fill="none" points="-294.2603828141556,-55.36486965752077 -291.7603828141321,-56.034742638559486 -289.93025579516996,-57.864869657459586 -289.2603828140465,-60.36486965746041 -289.93025579508526,-62.864869657483936 -291.76038281398536,-64.69499667644605 -294.2603828139862,-65.36486965756947 -296.76038281400974,-64.69499667653076 -298.59050983297186,-62.86486965763066 -299.2603828140953,-60.36486965762984 -298.59050983305656,-57.86486965760631 -296.76038281415646,-56.034742638644204 -294.2603828141556,-55.36486965752078" stroke="#ffa500" stroke-linecap="round" stroke-linejoin="round"/><polyline fill="none" points="-280.8675963488681,-72.78399172708554 -278.3675963488446,-73.45386470812424 -276.53746932988247,-75.28399172702434 -275.86759634875904,-77.78399172702517 -276.5374693297978,-80.28399172704869 -278.3675963486979,-82.1141187460108 -280.8675963486987,-82.78399172713422 -283.36759634872226,-82.11411874609551 -285.1977233676844,-80.28399172719541 -285.8675963488078,-77.78399172719459 -285.1977233677691,-75.28399172717107 -283.367596348869,-73.45386470820895 -280.8675963488681,-72.78399172708552" stroke="#ffa500" stroke-linecap="round" stroke-linejoin="round"/><polyline fill="none" points="-204.67052696700918,45.89293975273524 -202.17052696698565,45.22306677169653 -200.34039994802353,43.39293975279643 -199.6705269669001,40.892939752795606 -200.3403999479388,38.39293975277208 -202.1705269668389,36.56281273380996 -204.67052696683973,35.89293975268654 -207.17052696686326,36.562812733725245 -209.00065398582538,38.392939752625345 -209.6705269669488,40.89293975262617 -209.0006539859101,43.392939752649696 -207.17052696701,45.22306677161181 -204.67052696700918,45.89293975273524" stroke="#00f" stroke-linecap="round" stroke-linejoin="round"/><polyline fill="none" points="-324.15748233633735,-95.47511665108064 -321.6574823363138,-96.14498963211935 -319.8273553173517,-97.97511665101945 -319.15748233622827,-100.47511665102027 -319.827355317267,-102.9751166510438 -321.6574823361671,-104.80524367000592 -324.15748233616796,-105.47511665112935 -326.6574823361915,-104.80524367009065 -328.4876093551536,-102.97511665119055 -329.15748233627704,-100.47511665118972 -328.48760935523836,-97.97511665116619 -326.65748233633826,-96.14498963220407 -324.1574823363374,-95.47511665108064" stroke="#00f" stroke-linecap="round" stroke-linejoin="round"/><polyline fill="none" points="-207.2790544890047,-61.337647882107575 -204.77905448898116,-62.00752086314628 -202.94892747001904,-63.837647882046376 -202.2790544888956,-66.33764788204721 -202.94892746993432,-68.83764788207074 -204.77905448883442,-70.66777490103286 -207.27905448883524,-71.33764788215629 -209.77905448885878,-70.66777490111758 -211.6091815078209,-68.83764788221748 -212.27905448894433,-66.33764788221666 -211.60918150790562,-63.83764788219313 -209.77905448900552,-62.00752086323101 -207.2790544890047,-61.337647882107575" stroke="#ffa500" stroke-linecap="round" stroke-linejoin="round"/><polyline fill="none" points="-295.59579015669897,-122.66427131686179 -293.09579015667543,-123.3341442979005 -291.2656631377133,-125.1642713168006 -290.5957901565899,-127.66427131680142 -291.26566313762856,-130.16427131682494 -293.09579015652866,-131.99439833578705 -295.5957901565295,-132.6642713169105 -298.09579015655305,-131.99439833587178 -299.92591717551517,-130.16427131697168 -300.5957901566386,-127.66427131697085 -299.9259171755999,-125.16427131694732 -298.0957901566998,-123.3341442979852 -295.59579015669897,-122.66427131686177" stroke="#00f" stroke-linecap="round" stroke-linejoin="round"/><polyline fill="none" points="-286.57709365380845,-140.6194869733365 -284.0770936537849,-141.28935995437521 -282.2469666348228,-143.11948697327531 -281.57709365369936,-145.61948697327614 -282.24696663473804,-148.11948697329967 -284.07709365363814,-149.9496139922618 -286.577093653639,-150.61948697338522 -289.07709365366253,-149.9496139923465 -290.90722067262465,-148.1194869734464 -291.5770936537481,-145.6194869734456 -290.9072206727094,-143.11948697342206 -289.0770936538093,-141.28935995445994 -286.57709365380845,-140.6194869733365" stroke="#ffa500" stroke-linecap="round" stroke-linejoin="round"/><polyline fill="none" points="-273.3690990081688,-69.59967409372412 -270.86909900814527,-70.26954707476281 -269.03897198918315,-72.0996740936629 -268.3690990080597,-74.59967409366372 -269.0389719890984,-77.09967409368726 -270.8690990079985,-78.92980111264939 -273.36909900799935,-79.59967409377283 -275.8690990080229,-78.92980111273414 -277.699226026985,-77.09967409383405 -278.36909900810844,-74.59967409383323 -277.69922602706976,-72.0996740938097 -275.86909900816966,-70.26954707484757 -273.3690990081688,-69.59967409372412" stroke="#ffa500" stroke-linecap="round" stroke-linejoin="round"/><polyline fill="none" points="-291.2940104532479,-137.61922466548796 -288.79401045322436,-138.28909764652667 -286.96388343426224,-140.11922466542677 -286.2940104531388,-142.6192246654276 -286.9638834341775,-145.11922466545113 -288.7940104530776,-146.94935168441324 -291.29401045307844,-147.61922466553668 -293.794010453102,-146.94935168449797 -295.6241374720641,-145.11922466559787 -296.2940104531875,-142.61922466559705 -295.62413747214885,-140.1192246655735 -293.79401045324875,-138.2890976466114 -291.2940104532479,-137.61922466548796" stroke="#ffa500" stroke-linecap="round" stroke-linejoin="round"/><polyline fill="none" points="-364.21308934242285,-159.63787714882483 -361.7130893423993,-160.30775012986354 -359.8829623234372,-162.13787714876364 -359.21308934231376,-164.63787714876446 -359.88296232335244,-167.137877148788 -361.71308934225254,-168.96800416775014 -364.2130893422534,-169.63787714887357 -366.71308934227693,-168.96800416783486 -368.54321636123905,-167.13787714893476 -369.2130893423625,-164.63787714893394 -368.5432163613238,-162.1378771489104 -366.7130893424237,-160.30775012994826 -364.21308934242285,-159.6378771488248" stroke="#00f" stroke-linecap="round" stroke-linejoin="round"/><polyline fill="none" points="-248.68981407742973,-23.316933790402086 -246.1898140774062,-23.98680677144078 -244.35968705844405,-25.816933790340865 -243.6898140773206,-28.31693379034169 -244.35968705835927,-30.816933790365226 -246.18981407725937,-32.64706080932736 -248.6898140772602,-33.316933790450804 -251.18981407728373,-32.64706080941211 -253.01994109624587,-30.816933790512024 -253.68981407736933,-28.3169337905112 -253.01994109633065,-25.816933790487663 -251.18981407743055,-23.98680677152553 -248.68981407742973,-23.31693379040208" stroke="#ffa500" stroke-linecap="round" stroke-linejoin="round"/><polyline fill="none" points="-362.46472075787125,-173.4496021210101 -359.9647207578477,-174.11947510204877 -358.1345937388856,-175.94960212094884 -357.46472075776217,-178.44960212094966 -358.13459373880085,-180.9496021209732 -359.96472075770095,-182.77972913993534 -362.4647207577018,-183.4496021210588 -364.96472075772533,-182.77972914002012 -366.79484777668745,-180.94960212112005 -367.4647207578109,-178.44960212111923 -366.7948477767722,-175.9496021210957 -364.9647207578721,-174.11947510213355 -362.46472075787125,-173.4496021210101" stroke="#ffa500" stroke-linecap="round" stroke-linejoin="round"/><polyline fill="none" points="63.17501945593992,-27.671580510344974 65.67501945596345,-28.34145349138366 67.50514647492558,-30.171580510283746 68.17501945604903,-32.67158051028457 67.50514647501033,-35.17158051030811 65.67501945611025,-37.00170752927025 63.175019456109425,-37.6715805103937 60.675019456085884,-37.001707529355016 58.84489243712375,-35.17158051045493 58.17501945600029,-32.671580510454106 58.84489243703898,-30.171580510430566 60.675019455939065,-28.341453491468428 63.17501945593989,-27.67158051034497" stroke="#ffa500" stroke-linecap="round" stroke-linejoin="round"/><polyline fill="none" points="-228.61213794685833,-86.0953498208221 -226.1121379468348,-86.76522280186077 -224.28201092787265,-88.59534982076086 -223.6121379467492,-91.09534982076168 -224.28201092778787,-93.59534982078522 -226.11213794668794,-95.42547683974736 -228.61213794668876,-96.09534982087082 -231.1121379467123,-95.42547683983214 -232.94226496567444,-93.59534982093206 -233.6121379467979,-91.09534982093123 -232.94226496575922,-88.5953498209077 -231.11213794685915,-86.76522280194555 -228.61213794685833,-86.0953498208221" stroke="#00f" stroke-linecap="round" stroke-linejoin="round"/><polyline fill="none" points="-336.38306849715207,-118.52647478015746 -333.88306849712853,-119.19634776119614 -332.0529414781664,-121.02647478009622 -331.383068497043,-123.52647478009705 -332.05294147808166,-126.0264747801206 -333.88306849698176,-127.85660179908274 -336.3830684969826,-128.5264747802062 -338.88306849700615,-127.85660179916752 -340.71319551596827,-126.02647478026743 -341.38306849709176,-123.52647478026661 -340.7131955160531,-121.02647478024306 -338.883068497153,-119.19634776128092 -336.3830684971521,-118.52647478015746" stroke="#00f" stroke-linecap="round" stroke-linejoin="round"/><polyline fill="none" points="-361.1989505164254,-147.76367384083903 -358.69895051640185,-148.4335468218777 -356.8688234974397,-150.26367384077778 -356.1989505163162,-152.7636738407786 -356.86882349735487,-155.26367384080214 -358.69895051625497,-157.0938008597643 -361.1989505162558,-157.76367384088775 -363.69895051627935,-157.09380085984907 -365.5290775352415,-155.263673840949 -366.198950516365,-152.76367384094817 -365.52907753532634,-150.26367384092464 -363.69895051642624,-148.4335468219625 -361.1989505164254,-147.76367384083903" stroke="#00f" stroke-linecap="round" stroke-linejoin="round"/><polyline fill="none" points="-175.1537543288317,58.94505525236272 -172.65375432880816,58.27518227132404 -170.82362730984602,56.44505525242396 -170.15375432872256,53.94505525242314 -170.82362730976124,51.44505525239959 -172.6537543286613,49.614928233437446 -175.15375432866213,48.94505525231398 -177.65375432868566,49.61492823335266 -179.4838813476478,51.445055252252736 -180.15375432877127,53.94505525225356 -179.4838813477326,56.44505525227711 -177.65375432883252,58.27518227123926 -175.1537543288317,58.94505525236273" stroke="#ffa500" stroke-linecap="round" stroke-linejoin="round"/><polyline fill="none" points="-318.210532362909,-118.39494718557633 -315.7105323628855,-119.06482016661501 -313.8804053439233,-120.89494718551508 -313.2105323627998,-123.3949471855159 -313.8804053438385,-125.89494718553945 -315.7105323627386,-127.7250742045016 -318.21053236273946,-128.39494718562506 -320.710532362763,-127.72507420458638 -322.54065938172516,-125.8949471856863 -323.21053236284865,-123.39494718568548 -322.54065938181,-120.89494718566193 -320.7105323629099,-119.06482016669979 -318.210532362909,-118.39494718557631" stroke="#ffa500" stroke-linecap="round" stroke-linejoin="round"/><polyline fill="none" points="-168.75760108442879,33.123891477601 -166.25760108440525,32.45401849656233 -164.4274740654431,30.62389147766225 -163.75760108431965,28.123891477661427 -164.42747406535833,25.62389147763788 -166.2576010842584,23.793764458675728 -168.75760108425922,23.123891477552256 -171.25760108428275,23.79376445859093 -173.0877281032449,25.623891477491004 -173.75760108436836,28.123891477491828 -173.08772810332968,30.623891477515375 -171.2576010844296,32.45401849647753 -168.75760108442879,33.123891477601006" stroke="#ffa500" stroke-linecap="round" stroke-linejoin="round"/><polyline fill="none" points="-182.07481614557318,73.48911485800939 -179.57481614554962,72.81924187697072 -177.74468912658747,70.98911485807065 -177.074816145464,68.48911485806983 -177.7446891265027,65.98911485804628 -179.57481614540276,64.15898783908412 -182.0748161454036,63.489114857960644 -184.57481614542715,64.15898783899931 -186.4049431643893,65.98911485789938 -187.07481614551276,68.4891148579002 -186.40494316447408,70.98911485792375 -184.574816145574,72.81924187688591 -182.07481614557318,73.48911485800939" stroke="#ffa500" stroke-linecap="round" stroke-linejoin="round"/><polyline fill="none" points="-205.2367502137738,-97.68971275159724 -202.73675021375024,-98.3595857326359 -200.9066231947881,-100.18971275153598 -200.2367502136646,-102.6897127515368 -200.9066231947033,-105.18971275156035 -202.73675021360336,-107.01983977052251 -205.23675021360418,-107.68971275164598 -207.73675021362774,-107.01983977060732 -209.5668772325899,-105.18971275170725 -210.23675021371338,-102.68971275170642 -209.5668772326747,-100.18971275168288 -207.73675021377463,-98.35958573272072 -205.2367502137738,-97.68971275159724" stroke="#00f" stroke-linecap="round" stroke-linejoin="round"/><polyline fill="none" points="-326.3801680250329,-141.18747270197804 -323.88016802500937,-141.85734568301672 -322.0500410060472,-143.6874727019168 -321.3801680249237,-146.1874727019176 -322.0500410059624,-148.68747270194118 -323.8801680248624,-150.51759972090335 -326.3801680248633,-151.18747270202684 -328.8801680248868,-150.5175997209882 -330.710295043849,-148.68747270208812 -331.3801680249725,-146.1874727020873 -330.7102950439338,-143.68747270206373 -328.88016802503375,-141.85734568310156 -326.3801680250329,-141.18747270197807" stroke="#00f" stroke-linecap="round" stroke-linejoin="round"/><polyline fill="none" points="-360.3395480692388,-171.83204782471313 -357.83954806921525,-172.50192080575178 -356.0094210502531,-174.33204782465185 -355.3395480691296,-176.83204782465268 -356.00942105016827,-179.33204782467624 -357.8395480690683,-181.1621748436384 -360.33954806906917,-181.8320478247619 -362.8395480690927,-181.16217484372325 -364.6696750880549,-179.33204782482318 -365.33954806917836,-176.83204782482235 -364.6696750881397,-174.3320478247988 -362.83954806923964,-172.50192080583662 -360.3395480692388,-171.83204782471313" stroke="#ffa500" stroke-linecap="round" stroke-linejoin="round"/><polyline fill="none" points="-260.8952896063986,-11.860859608709955 -258.39528960637506,-12.530732589748617 -256.5651625874129,-14.360859608648685 -255.8952896062894,-16.86085960864951 -256.5651625873281,-19.360859608673064 -258.3952896062281,-21.19098662763523 -260.89528960622897,-21.860859608758716 -263.3952896062525,-21.190986627720054 -265.2254166252147,-19.360859608819986 -265.89528960633817,-16.860859608819162 -265.2254166252995,-14.360859608795607 -263.39528960639944,-12.530732589833441 -260.8952896063986,-11.860859608709955" stroke="#ffa500" stroke-linecap="round" stroke-linejoin="round"/><polyline fill="none" points="-182.8285219639371,64.67505742646959 -180.32852196391354,64.00518444543093 -178.49839494495137,62.17505742653086 -177.82852196382788,59.67505742653004 -178.49839494486653,57.175057426506484 -180.3285219637666,55.34493040754432 -182.82852196376743,54.67505742642083 -185.328521963791,55.344930407459486 -187.15864898275316,57.17505742635955 -187.82852196387665,59.675057426360375 -187.158648982838,62.17505742638393 -185.32852196393793,64.0051844453461 -182.8285219639371,64.67505742646959" stroke="#ffa500" stroke-linecap="round" stroke-linejoin="round"/><polyline fill="none" points="-301.68765995109754,-64.9898923397258 -299.187659951074,-65.65976532076445 -297.35753293211184,-67.48989233966452 -296.68765995098835,-69.98989233966535 -297.357532932027,-72.48989233968891 -299.18765995092707,-74.32001935865108 -301.6876599509279,-74.98989233977457 -304.18765995095146,-74.32001935873592 -306.01778696991363,-72.48989233983585 -306.6876599510371,-69.98989233983502 -306.01778696999844,-67.48989233981146 -304.1876599510984,-65.65976532084929 -301.68765995109754,-64.9898923397258" stroke="#00f" stroke-linecap="round" stroke-linejoin="round"/><polyline fill="none" points="-273.5921135117083,-53.711970025713605 -271.0921135116848,-54.38184300675226 -269.2619864927226,-56.21197002565233 -268.5921135115991,-58.71197002565315 -269.2619864926378,-61.211970025676706 -271.09211351153783,-63.04209704463888 -273.5921135115387,-63.711970025762376 -276.0921135115622,-63.042097044723725 -277.9222405305244,-61.21197002582366 -278.5921135116479,-58.711970025822836 -277.9222405306092,-56.211970025799275 -276.09211351170916,-54.3818430068371 -273.5921135117083,-53.711970025713605" stroke="#ffa500" stroke-linecap="round" stroke-linejoin="round"/><polyline fill="none" points="-328.7488350238332,-157.87067533753782 -326.24883502380965,-158.54054831857647 -324.4187080048475,-160.37067533747654 -323.748835023724,-162.87067533747737 -324.41870800476266,-165.37067533750093 -326.2488350236627,-167.2008023564631 -328.74883502366356,-167.8706753375866 -331.2488350236871,-167.20080235654794 -333.07896204264927,-165.37067533764787 -333.74883502377276,-162.87067533764704 -333.07896204273413,-160.37067533762348 -331.2488350238341,-158.5405483186613 -328.74883502383324,-157.87067533753782" stroke="#00f" stroke-linecap="round" stroke-linejoin="round"/><polyline fill="none" points="-312.1034646285927,-119.77993846842816 -309.60346462856916,-120.44981144946681 -307.773337609607,-122.27993846836686 -307.1034646284835,-124.77993846836769 -307.7733376095221,-127.27993846839125 -309.60346462842216,-129.11006548735344 -312.103464628423,-129.77993846847693 -314.60346462844655,-129.11006548743828 -316.4335916474087,-127.27993846853822 -317.1034646285322,-124.7799384685374 -316.4335916474936,-122.27993846851383 -314.60346462859354,-120.44981144955166 -312.1034646285927,-119.77993846842816" stroke="#ffa500" stroke-linecap="round" stroke-linejoin="round"/><polyline fill="none" points="-345.645982642638,-149.99782421940222 -343.1459826426144,-150.66769720044087 -341.3158556236522,-152.49782421934094 -340.64598264252874,-154.99782421934177 -341.31585562356736,-157.49782421936533 -343.1459826424674,-159.3279512383275 -345.64598264246825,-159.997824219451 -348.14598264249184,-159.32795123841234 -349.976109661454,-157.49782421951227 -350.6459826425775,-154.99782421951144 -349.9761096615389,-152.49782421948788 -348.14598264263884,-150.6676972005257 -345.645982642638,-149.99782421940222" stroke="#008000" stroke-linecap="round" stroke-linejoin="round"/><polyline fill="none" points="-162.71674398644421,26.43942594139644 -160.21674398642065,25.769552960357796 -158.38661696745848,23.939425941457735 -157.716743986335,21.43942594145691 -158.38661696737364,18.93942594143335 -160.2167439862737,17.10929892247117 -162.71674398627454,16.439425941347665 -165.2167439862981,17.10929892238631 -167.04687100526027,18.939425941286366 -167.7167439863838,21.43942594128719 -167.04687100534514,23.939425941310756 -165.21674398644507,25.769552960272936 -162.71674398644424,26.43942594139644" stroke="#ffa500" stroke-linecap="round" stroke-linejoin="round"/><polyline fill="none" points="62.89277425903969,-36.69870244335241 65.39277425906326,-37.368575424391054 67.22290127802545,-39.19870244329111 67.89277425914895,-41.698702443291936 67.22290127811031,-44.1987024433155 65.39277425921026,-46.02882946227768 62.89277425920943,-46.69870244340118 60.39277425918587,-46.02882946236254 58.56264724022369,-44.19870244346248 57.892774259100186,-41.698702443461656 58.56264724013883,-39.198702443438094 60.39277425903889,-37.36857542447591 62.89277425903971,-36.698702443352396" stroke="#ffa500" stroke-linecap="round" stroke-linejoin="round"/><polyline fill="none" points="-307.87713434564677,-128.29413351658295 -305.3771343456232,-128.9640064976216 -303.547007326661,-130.79413351652164 -302.8771343455375,-133.29413351652246 -303.54700732657614,-135.79413351654603 -305.3771343454762,-137.6242605355082 -307.87713434547703,-138.29413351663172 -310.3771343455006,-137.62426053559307 -312.2072613644628,-135.79413351669302 -312.8771343455863,-133.2941335166922 -312.20726136454766,-130.79413351666864 -310.3771343456476,-128.96400649770646 -307.87713434564677,-128.29413351658295" stroke="#ffa500" stroke-linecap="round" stroke-linejoin="round"/><polyline fill="none" points="-350.28550854541476,-129.42771324471536 -347.78550854539117,-130.09758622575401 -345.955381526429,-131.92771324465406 -345.2855085453055,-134.42771324465488 -345.9553815263441,-136.92771324467844 -347.78550854524417,-138.75784026364065 -350.285508545245,-139.42771324476416 -352.7855085452686,-138.7578402637255 -354.6156355642308,-136.92771324482547 -355.2855085453543,-134.42771324482464 -354.61563556431565,-131.92771324480108 -352.7855085454156,-130.09758622583888 -350.28550854541476,-129.42771324471536" stroke="#00f" stroke-linecap="round" stroke-linejoin="round"/><polyline fill="none" points="-363.6878452841574,-180.28250583173278 -361.1878452841338,-180.9523788127714 -359.3577182651716,-182.78250583167144 -358.68784528404814,-185.28250583167227 -359.35771826508676,-187.78250583169583 -361.1878452839868,-189.61263285065803 -363.68784528398766,-190.28250583178155 -366.18784528401125,-189.61263285074293 -368.0179723029734,-187.78250583184288 -368.6878452840969,-185.28250583184206 -368.0179723030583,-182.7825058318185 -366.18784528415824,-180.9523788128563 -363.6878452841574,-180.28250583173278" stroke="#ffa500" stroke-linecap="round" stroke-linejoin="round"/><polyline fill="none" points="-356.5304674760046,-159.25354143891923 -354.030467475981,-159.92341441995785 -352.20034045701885,-161.7535414388579 -351.53046747589536,-164.25354143885872 -352.200340456934,-166.75354143888228 -354.03046747583403,-168.58366845784448 -356.5304674758349,-169.253541438968 -359.0304674758585,-168.58366845792938 -360.86059449482065,-166.75354143902933 -361.5304674759442,-164.2535414390285 -360.86059449490557,-161.75354143900495 -359.0304674760055,-159.92341442004275 -356.5304674760047,-159.25354143891923" stroke="#008000" stroke-linecap="round" stroke-linejoin="round"/><polyline fill="none" points="-257.4308373884207,-21.64289448571536 -254.93083738839712,-22.31276746675399 -253.10071036943492,-24.14289448565404 -252.4308373883114,-26.642894485654864 -253.10071036935003,-29.142894485678436 -254.93083738825007,-30.97302150464063 -257.4308373882509,-31.642894485764153 -259.9308373882745,-30.973021504725523 -261.76096440723666,-29.142894485825472 -262.4308373883602,-26.642894485824648 -261.7609644073216,-24.142894485801076 -259.93083738842154,-22.31276746683888 -257.4308373884207,-21.64289448571536" stroke="#ffa500" stroke-linecap="round" stroke-linejoin="round"/><polyline fill="none" points="-287.95578300606473,-51.75982606721172 -285.45578300604114,-52.42969904825035 -283.62565598707897,-54.2598260671504 -282.9557830059554,-56.759826067151224 -283.62565598699405,-59.2598260671748 -285.4557830058941,-61.089953086136994 -287.95578300589494,-61.75982606726052 -290.45578300591853,-61.08995308622189 -292.2859100248807,-59.25982606732184 -292.95578300600425,-56.759826067321015 -292.28591002496563,-54.25982606729744 -290.4557830060656,-52.42969904833524 -287.95578300606473,-51.75982606721171" stroke="#ffa500" stroke-linecap="round" stroke-linejoin="round"/><polyline fill="none" points="-321.91095191967247,-148.17462126372487 -319.4109519196489,-148.8444942447635 -317.5808249006867,-150.67462126366354 -316.91095191956316,-153.17462126366436 -317.5808249006018,-155.67462126368792 -319.4109519195018,-157.50474828265013 -321.9109519195027,-158.17462126377364 -324.41095191952627,-157.50474828273502 -326.24107893848844,-155.67462126383498 -326.910951919612,-153.17462126383415 -326.24107893857337,-150.6746212638106 -324.4109519196733,-148.8444942448484 -321.91095191967247,-148.17462126372487" stroke="#ffa500" stroke-linecap="round" stroke-linejoin="round"/><polyline fill="none" points="-338.8503078980559,-133.45282593020463 -336.3503078980323,-134.12269891124325 -334.52018087907015,-135.9528259301433 -333.8503078979466,-138.45282593014412 -334.52018087898523,-140.9528259301677 -336.3503078978853,-142.7829529491299 -338.8503078978861,-143.45282593025343 -341.3503078979097,-142.7829529492148 -343.18043491687195,-140.95282593031476 -343.8503078979955,-138.45282593031394 -343.18043491695687,-135.95282593029035 -341.3503078980568,-134.12269891132814 -338.850307898056,-133.45282593020463" stroke="#00f" stroke-linecap="round" stroke-linejoin="round"/><polyline fill="none" points="-334.60982754729855,-145.79846256261334 -332.10982754727496,-146.46833554365196 -330.27970052831273,-148.298462562552 -329.6098275471892,-150.79846256255283 -330.2797005282278,-153.29846256257642 -332.10982754712785,-155.12858958153862 -334.6098275471287,-155.79846256266214 -337.1098275471523,-155.12858958162352 -338.9399545661145,-153.29846256272347 -339.60982754723807,-150.79846256272265 -338.93995456619945,-148.29846256269906 -337.1098275472994,-146.46833554373686 -334.60982754729855,-145.7984625626133" stroke="#00f" stroke-linecap="round" stroke-linejoin="round"/><polyline fill="none" points="-188.0464970365161,-82.26892967200762 -185.5464970364925,-82.93880265304624 -183.7163700175303,-84.76892967194628 -183.04649703640675,-87.2689296719471 -183.71637001744537,-89.76892967197068 -185.54649703634541,-91.59905669093288 -188.04649703634624,-92.26892967205642 -190.54649703636983,-91.5990566910178 -192.37662405533203,-89.76892967211775 -193.04649703645558,-87.26892967211693 -192.37662405541695,-84.76892967209335 -190.5464970365169,-82.93880265313115 -188.0464970365161,-82.26892967200762" stroke="#ffa500" stroke-linecap="round" stroke-linejoin="round"/><polyline fill="none" points="-306.51497225332474,-120.71514653050575 -304.01497225330115,-121.38501951154437 -302.1848452343389,-123.21514653044441 -301.5149722532154,-125.71514653044524 -302.184845234254,-128.21514653046881 -304.01497225315404,-130.04527354943102 -306.5149722531549,-130.71514653055456 -309.0149722531785,-130.04527354951594 -310.8450992721407,-128.2151465306159 -311.51497225326426,-125.71514653061507 -310.84509927222564,-123.2151465305915 -309.0149722533256,-121.38501951162928 -306.51497225332474,-120.71514653050575" stroke="#ffa500" stroke-linecap="round" stroke-linejoin="round"/><polyline fill="none" points="-281.18912362573735,-56.54371858762298 -278.68912362571376,-57.2135915686616 -276.85899660675153,-59.04371858756164 -276.189123625628,-61.543718587562466 -276.8589966066666,-64.04371858758604 -278.68912362556665,-65.87384560654826 -281.1891236255675,-66.5437185876718 -283.6891236255911,-65.8738456066332 -285.5192506445533,-64.04371858773315 -286.18912362567687,-61.54371858773233 -285.51925064463825,-59.043718587708746 -283.6891236257382,-57.21359156874653 -281.18912362573735,-56.54371858762299" stroke="#ffa500" stroke-linecap="round" stroke-linejoin="round"/><polyline fill="none" points="-293.55555202235956,-133.76388782380167 -291.055552022336,-134.4337608048403 -289.22542500337374,-136.26388782374033 -288.5555520222502,-138.76388782374116 -289.2254250032888,-141.26388782376475 -291.05555202218886,-143.09401484272695 -293.5555520221897,-143.7638878238505 -296.0555520222133,-143.09401484281187 -297.88567904117554,-141.26388782391183 -298.5555520222991,-138.763887823911 -297.88567904126046,-136.26388782388742 -296.0555520223604,-134.43376080492519 -293.55555202235956,-133.76388782380164" stroke="#00f" stroke-linecap="round" stroke-linejoin="round"/><polyline fill="none" points="-192.7253451946112,8.424755231976567 -190.22534519458762,7.754882250937957 -188.3952181756254,5.924755232037916 -187.72534519450184,3.4247552320370884 -188.39521817554046,0.9247552320135024 -190.2253451944405,-0.9053717869487157 -192.72534519444133,-1.5752447680722617 -195.22534519446492,-0.9053717870336526 -197.05547221342715,0.9247552318663876 -197.7253451945507,3.4247552318672154 -197.05547221351208,5.924755231890803 -195.22534519461203,7.754882250853022 -192.7253451946112,8.424755231976569" stroke="#00f" stroke-linecap="round" stroke-linejoin="round"/><polyline fill="none" points="-290.74744609010367,-74.66758822619803 -288.2474460900801,-75.33746120723664 -286.41731907111784,-77.16758822613669 -285.7474460899943,-79.66758822613751 -286.4173190710329,-82.1675882261611 -288.24744608993296,-83.99771524512332 -290.7474460899338,-84.66758822624686 -293.2474460899574,-83.99771524520825 -295.07757310891964,-82.16758822630821 -295.7474460900432,-79.66758822630739 -295.07757310900456,-77.1675882262838 -293.2474460901045,-75.33746120732158 -290.74744609010367,-74.66758822619803" stroke="#ffa500" stroke-linecap="round" stroke-linejoin="round"/><polyline fill="none" points="-355.5331120704481,-141.89535414290557 -353.0331120704245,-142.56522712394417 -351.2029850514623,-144.3953541428442 -350.53311207033875,-146.89535414284504 -351.20298505137737,-149.39535414286863 -353.0331120702774,-151.22548116183086 -355.53311207027826,-151.8953541429544 -358.03311207030185,-151.2254811619158 -359.8632390892641,-149.39535414301577 -360.53311207038763,-146.89535414301494 -359.863239089349,-144.39535414299135 -358.03311207044896,-142.56522712402912 -355.5331120704481,-141.89535414290557" stroke="#008000" stroke-linecap="round" stroke-linejoin="round"/><polyline fill="none" points="-345.9563391636057,-133.76334321992977 -343.45633916358213,-134.43321620096836 -341.6262121446199,-136.2633432198684 -340.95633916349635,-138.76334321986923 -341.626212144535,-141.26334321989282 -343.456339163435,-143.09347023885505 -345.95633916343587,-143.7633432199786 -348.45633916345946,-143.09347023894 -350.2864661824217,-141.26334322003996 -350.95633916354524,-138.76334322003913 -350.2864661825066,-136.26334322001554 -348.4563391636066,-134.4332162010533 -345.9563391636057,-133.76334321992977" stroke="#ffa500" stroke-linecap="round" stroke-linejoin="round"/><polyline fill="none" points="370.6598677893807,-170.4220177952231 373.1598677894043,-171.0918907762617 374.98999480836653,-172.92201779516174 375.6598677894901,-175.42201779516256 374.98999480845146,-177.92201779518615 373.1598677895514,-179.75214481414838 370.65986778955056,-180.42201779527193 368.15986778952697,-179.75214481423333 366.32974077056474,-177.9220177953333 365.6598677894412,-175.42201779533247 366.3297407704798,-172.92201779530888 368.15986778937986,-171.09189077634664 370.6598677893807,-170.4220177952231" stroke="#ffa500" stroke-linecap="round" stroke-linejoin="round"/></svg>