<?xml version="1.0" ?><!DOCTYPE svg  PUBLIC '-//W3C//DTD SVG 1.1//EN'  'http://www.w3.org/Graphics/SVG/1.1/DTD/svg11.dtd'><svg height="289.000" viewBox="-389.000 -202.000 795.000 289.000" width="795.000" xmlns="http://www.w3.org/2000/svg"><line fill="none" stroke="none" stroke-linecap="round" stroke-width="2.0" x1="0.0" x2="0.0" y1="0.0" y2="0.0"/><polygon fill="none" fill-rule="evenodd" points="0.0,0.0 0.0,0.0 0.0,0.0" stroke-linejoin="round"/><polyline fill="none" points="-358.4388737911965,-141.65308066228337 -355.9388737911729,-142.32295364332197 -354.1087467722107,-144.153080662222 -353.43887379108713,-146.65308066222283 -354.10874677212576,-149.15308066224642 -355.9388737910258,-150.98320768120865 -358.43887379102665,-151.6530806623322 -360.93887379105024,-150.9832076812936 -362.76900081001247,-149.15308066239356 -363.438873791136,-146.65308066239274 -362.7690008100974,-144.15308066236915 -360.93887379119735,-142.32295364340692 -358.4388737911965,-141.65308066228337" stroke="#00f" stroke-linecap="round" stroke-linejoin="round"/><polyline fill="none" points="-341.76127562285575,-154.26385129092984 -339.26127562283216,-154.93372427196843 -337.43114860386993,-156.76385129086847 -336.7612756227464,-159.2638512908693 -337.431148603785,-161.7638512908929 -339.26127562268505,-163.59397830985512 -341.7612756226859,-164.2638512909787 -344.2612756227095,-163.5939783099401 -346.0914026416717,-161.76385129104006 -346.76127562279527,-159.26385129103923 -346.09140264175664,-156.76385129101564 -344.2612756228566,-154.9337242720534 -341.76127562285575,-154.26385129092984" stroke="#008000" stroke-linecap="round" stroke-linejoin="round"/><polyline fill="none" points="-264.3690296885679,-124.9263762215956 -261.8690296885443,-125.5962492026342 -260.03890266958206,-127.42637622153423 -259.3690296884585,-129.92637622153507 -260.0389026694971,-132.42637622155866 -261.8690296883971,-134.25650324052089 -264.369029688398,-134.92637622164446 -266.86902968842156,-134.25650324060587 -268.6991567073838,-132.42637622170582 -269.36902968850734,-129.926376221705 -268.6991567074688,-127.42637622168141 -266.86902968856873,-125.59624920271918 -264.3690296885679,-124.92637622159562" stroke="#ffa500" stroke-linecap="round" stroke-linejoin="round"/><polyline fill="none" points="-346.693474546944,-156.42413015268824 -344.1934745469204,-157.09400313372683 -342.3633475279582,-158.92413015262687 -341.69347454683464,-161.4241301526277 -342.3633475278732,-163.9241301526513 -344.19347454677325,-165.75425717161352 -346.6934745467741,-166.4241301527371 -349.1934745467977,-165.7542571716985 -351.0236015657599,-163.92413015279845 -351.69347454688346,-161.42413015279763 -351.0236015658449,-158.92413015277404 -349.19347454694486,-157.0940031338118 -346.693474546944,-156.42413015268824" stroke="#008000" stroke-linecap="round" stroke-linejoin="round"/><polyline fill="none" points="-355.954525616595,-131.0934414104361 -353.4545256165714,-131.7633143914747 -351.6243985976092,-133.59344141037474 -350.9545256164856,-136.09344141037556 -351.6243985975242,-138.59344141039915 -353.45452561642423,-140.42356842936138 -355.9545256164251,-141.09344141048496 -358.4545256164487,-140.42356842944636 -360.2846526354109,-138.59344141054635 -360.95452561653445,-136.09344141054552 -360.2846526354959,-133.59344141052193 -358.45452561659584,-131.7633143915597 -355.954525616595,-131.09344141043613" stroke="#00f" stroke-linecap="round" stroke-linejoin="round"/><polyline fill="none" points="-370.56187847483324,-179.46534767210304 -368.06187847480965,-180.13522065314163 -366.2317514558474,-181.96534767204164 -365.56187847472387,-184.46534767204247 -366.23175145576243,-186.96534767206606 -368.0618784746625,-188.7954746910283 -370.56187847466333,-189.46534767215186 -373.0618784746869,-188.79547469111327 -374.89200549364915,-186.96534767221326 -375.5618784747727,-184.46534767221243 -374.89200549373413,-181.96534767218884 -373.0618784748341,-180.1352206532266 -370.56187847483324,-179.46534767210304" stroke="#00f" stroke-linecap="round" stroke-linejoin="round"/><polyline fill="none" points="368.9813164990696,-161.43302491662033 371.48131649909317,-162.10289789765892 373.3114435180554,-163.93302491655894 373.981316499179,-166.43302491655976 373.31144351814044,-168.93302491658335 371.4813164992404,-170.7631519355456 368.98131649923954,-171.43302491666918 366.48131649921595,-170.7631519356306 364.6511894802537,-168.93302491673057 363.9813164991301,-166.43302491672975 364.6511894801687,-163.93302491670616 366.4813164990687,-162.1028978977439 368.9813164990696,-161.43302491662033" stroke="#ffa500" stroke-linecap="round" stroke-linejoin="round"/><polyline fill="none" points="-349.80260826144274,-142.1491466505818 -347.30260826141915,-142.8190196316204 -345.4724812424569,-144.6491466505204 -344.8026082613333,-147.14914665052123 -345.4724812423719,-149.64914665054485 -347.3026082612719,-151.4792736695071 -349.8026082612728,-152.14914665063068 -352.30260826129637,-151.4792736695921 -354.1327352802586,-149.64914665069207 -354.8026082613822,-147.14914665069125 -354.13273528034364,-144.64914665066763 -352.3026082614436,-142.81901963170537 -349.80260826144274,-142.1491466505818" stroke="#00f" stroke-linecap="round" stroke-linejoin="round"/><polyline fill="none" points="71.06717629283091,-39.95780182581759 73.56717629285451,-40.62767480685617 75.39730331181676,-42.45780182575619 76.06717629294033,-44.95780182575702 75.39730331190175,-47.45780182578063 73.56717629300172,-49.28792884474288 71.0671762930009,-49.95780182586646 68.5671762929773,-49.28792884482788 66.73704927401504,-47.45780182592786 66.06717629289145,-44.95780182592703 66.73704927393003,-42.457801825903424 68.56717629283006,-40.62767480694117 71.06717629283088,-39.95780182581759" stroke="#ffa500" stroke-linecap="round" stroke-linejoin="round"/><polyline fill="none" points="388.8830168667848,-175.01102939341322 391.3830168668084,-175.6809023744518 393.21314388577065,-177.5110293933518 393.88301686689425,-180.01102939335263 393.2131438858557,-182.51102939337625 391.38301686695564,-184.3411564123385 388.8830168669548,-185.01102939346208 386.3830168669312,-184.34115641242352 384.55288984796897,-182.5110293935235 383.88301686684537,-180.01102939352268 384.55288984788393,-177.51102939349906 386.383016866784,-175.6809023745368 388.8830168667848,-175.01102939341322" stroke="#00f" stroke-linecap="round" stroke-linejoin="round"/><polyline fill="none" points="-362.8493713908602,-170.2637874828097 -360.3493713908366,-170.93366046384827 -358.5192443718744,-172.76378748274828 -357.8493713907508,-175.2637874827491 -358.51924437178934,-177.76378748277273 -360.3493713906894,-179.593914501735 -362.84937139069024,-180.26378748285856 -365.3493713907138,-179.59391450182 -367.17949840967606,-177.76378748291998 -367.84937139079966,-175.26378748291916 -367.1794984097611,-172.76378748289554 -365.34937139086105,-170.93366046393328 -362.8493713908602,-170.26378748280968" stroke="#00f" stroke-linecap="round" stroke-linejoin="round"/><polyline fill="none" points="-286.4487718216648,-93.11016153645184 -283.94877182164123,-93.7800345174904 -282.118644802679,-95.61016153639042 -281.4487718215554,-98.11016153639125 -282.11864480259396,-100.61016153641485 -283.948771821494,-102.44028855537711 -286.44877182149486,-103.1101615365007 -288.94877182151845,-102.44028855546213 -290.77889884048074,-100.61016153656212 -291.44877182160434,-98.1101615365613 -290.7788988405658,-95.61016153653767 -288.94877182166573,-93.78003451757542 -286.4487718216649,-93.11016153645183" stroke="#00f" stroke-linecap="round" stroke-linejoin="round"/><polyline fill="none" points="-315.2863803144639,-155.35950279836328 -312.7863803144403,-156.02937577940185 -310.956253295478,-157.85950279830186 -310.2863803143544,-160.35950279830269 -310.95625329539297,-162.8595027983263 -312.786380314293,-164.68962981728856 -315.28638031429387,-165.35950279841217 -317.78638031431746,-164.6896298173736 -319.61650733327974,-162.85950279847359 -320.28638031440335,-160.35950279847276 -319.6165073333648,-157.85950279844914 -317.78638031446474,-156.02937577948688 -315.2863803144639,-155.35950279836328" stroke="#ffa500" stroke-linecap="round" stroke-linejoin="round"/><polyline fill="none" points="-269.9688581597674,-51.288375033031905 -267.46885815974383,-51.95824801407047 -265.63873114078154,-53.788375032970485 -264.96885815965794,-56.28837503297132 -265.6387311406965,-58.78837503299493 -267.46885815959655,-60.61850205195719 -269.9688581595974,-61.28837503308079 -272.468858159621,-60.618502052042224 -274.2989851785833,-58.78837503314221 -274.9688581597069,-56.28837503314138 -274.2989851786683,-53.78837503311777 -272.4688581597683,-51.9582480141555 -269.9688581597674,-51.288375033031905" stroke="#ffa500" stroke-linecap="round" stroke-linejoin="round"/><polyline fill="none" points="-269.65402072004923,-117.6228905003896 -267.15402072002564,-118.29276348142817 -265.32389370106335,-120.12289050032818 -264.65402071993975,-122.622890500329 -265.3238937009783,-125.12289050035263 -267.15402071987836,-126.9530175193149 -269.6540207198792,-127.6228905004385 -272.1540207199028,-126.95301751939994 -273.9841477388651,-125.12289050049992 -274.6540207199887,-122.6228905004991 -273.9841477389501,-120.12289050047548 -272.15402072005014,-118.2927634815132 -269.6540207200493,-117.6228905003896" stroke="#ffa500" stroke-linecap="round" stroke-linejoin="round"/><polyline fill="none" points="-365.64560200326713,-176.85088363093058 -363.14560200324354,-177.52075661196915 -361.31547498428125,-179.35088363086916 -360.64560200315765,-181.85088363087 -361.3154749841962,-184.3508836308936 -363.1456020030962,-186.18101064985586 -365.64560200309705,-186.85088363097947 -368.14560200312064,-186.1810106499409 -369.97572902208293,-184.3508836310409 -370.64560200320653,-181.85088363104006 -369.97572902216797,-179.35088363101644 -368.145602003268,-177.52075661205419 -365.64560200326713,-176.85088363093058" stroke="#00f" stroke-linecap="round" stroke-linejoin="round"/><polyline fill="none" points="-301.35970078113894,-131.19494958040212 -298.85970078111535,-131.8648225614407 -297.02957376215306,-133.6949495803407 -296.35970078102946,-136.19494958034153 -297.029573762068,-138.69494958036515 -298.859700780968,-140.5250765993274 -301.35970078096886,-141.194949580451 -303.85970078099245,-140.52507659941244 -305.68982779995474,-138.69494958051243 -306.35970078107835,-136.1949495805116 -305.6898278000398,-133.694949580488 -303.8597007811398,-131.86482256152573 -301.35970078113894,-131.19494958040212" stroke="#00f" stroke-linecap="round" stroke-linejoin="round"/><polyline fill="none" points="-287.3582085909944,-45.0411140368157 -284.8582085909708,-45.71098701785426 -283.0280815720085,-47.541114036754266 -282.3582085908849,-50.0411140367551 -283.02808157192345,-52.541114036778716 -284.85820859082344,-54.37124105574099 -287.3582085908243,-55.0411140368646 -289.85820859084794,-54.37124105582604 -291.6883356098102,-52.54111403692603 -292.3582085909338,-50.0411140369252 -291.68833560989526,-47.54111403690158 -289.8582085909953,-45.71098701793931 -287.3582085909944,-45.0411140368157" stroke="#ffa500" stroke-linecap="round" stroke-linejoin="round"/><polyline fill="none" points="-372.92127087632224,-181.3256995186484 -370.4212708762986,-181.99557249968697 -368.5911438573363,-183.825699518587 -367.9212708762127,-186.3256995185878 -368.59114385725127,-188.82569951861143 -370.42127087615125,-190.65582653757372 -372.9212708761521,-191.32569951869732 -375.42127087617575,-190.65582653765875 -377.25139789513804,-188.82569951875874 -377.92127087626164,-186.32569951875792 -377.2513978952231,-183.8256995187343 -375.4212708763231,-181.995572499772 -372.92127087632224,-181.3256995186484" stroke="#00f" stroke-linecap="round" stroke-linejoin="round"/><polyline fill="none" points="39.82645876350463,-48.7410763618131 42.32645876352825,-49.41094934285165 44.15658578249053,-51.24107636175166 44.82645876361414,-53.74107636175249 44.15658578257559,-56.24107636177611 42.32645876367558,-58.07120338073839 39.82645876367475,-58.741076361862 37.326458763651125,-58.07120338082345 35.496331744688845,-56.24107636192344 34.82645876356523,-53.74107636192261 35.49633174460378,-51.24107636189898 37.32645876350379,-49.4109493429367 39.82645876350462,-48.741076361813086" stroke="#00f" stroke-linecap="round" stroke-linejoin="round"/><polyline fill="none" points="-295.0120102219403,-113.54225187412408 -292.5120102219166,-114.21212485516263 -290.68188320295434,-116.04225187406263 -290.01201022183074,-118.54225187406345 -290.6818832028693,-121.04225187408707 -292.5120102217693,-122.87237889304936 -295.01201022177014,-123.54225187417298 -297.5120102217938,-122.87237889313442 -299.3421372407561,-121.04225187423442 -300.0120102218797,-118.5422518742336 -299.3421372408411,-116.04225187420998 -297.5120102219411,-114.2121248552477 -295.0120102219403,-113.54225187412408" stroke="#ffa500" stroke-linecap="round" stroke-linejoin="round"/><polyline fill="none" points="-334.924517793162,-147.79429827004714 -332.42451779313836,-148.46417125108567 -330.5943907741761,-150.2942982699857 -329.9245177930525,-152.7942982699865 -330.59439077409104,-155.29429827001013 -332.424517792991,-157.12442528897242 -334.9245177929919,-157.79429827009605 -337.4245177930155,-157.1244252890575 -339.2546448119778,-155.2942982701575 -339.9245177931014,-152.79429827015667 -339.25464481206285,-150.29429827013305 -337.42451779316286,-148.46417125117077 -334.924517793162,-147.79429827004714" stroke="#ffa500" stroke-linecap="round" stroke-linejoin="round"/><polyline fill="none" points="-248.1619064578985,-114.64609419972204 -245.6619064578749,-115.3159671807606 -243.8317794389126,-117.1460941996606 -243.16190645778897,-119.64609419966142 -243.8317794388275,-122.14609419968505 -245.66190645772753,-123.97622121864734 -248.16190645772835,-124.64609419977096 -250.66190645775197,-123.97622121873242 -252.49203347671425,-122.14609419983242 -253.1619064578379,-119.6460941998316 -252.49203347679935,-117.14609419980796 -250.66190645789933,-115.31596718084567 -248.1619064578985,-114.64609419972206" stroke="#ffa500" stroke-linecap="round" stroke-linejoin="round"/><polyline fill="none" points="-358.74475415112244,-143.81249726325535 -356.2447541510988,-144.4823702442939 -354.4146271321365,-146.3124972631939 -353.7447541510129,-148.81249726319473 -354.41462713205146,-151.31249726321835 -356.24475415095145,-153.14262428218063 -358.7447541509523,-153.81249726330427 -361.24475415097595,-153.14262428226573 -363.07488116993824,-151.3124972633657 -363.74475415106184,-148.8124972633649 -363.0748811700233,-146.31249726334127 -361.2447541511233,-144.48237024437898 -358.74475415112244,-143.81249726325535" stroke="#00f" stroke-linecap="round" stroke-linejoin="round"/><polyline fill="none" points="-188.3949745754303,56.26822202180054 -185.89497457540668,55.598349040762 -184.0648475564444,53.768222021862 -183.39497457532076,51.26822202186117 -184.0648475563593,48.76822202183754 -185.8949745752593,46.938095002875244 -188.39497457526014,46.26822202175161 -190.89497457528375,46.93809500279015 -192.72510159424604,48.76822202169015 -193.39497457536967,51.26822202169098 -192.72510159433114,53.768222021714614 -190.89497457543112,55.59834904067691 -188.3949745754303,56.26822202180054" stroke="#ffa500" stroke-linecap="round" stroke-linejoin="round"/><polyline fill="none" points="-267.03156209489913,-108.84462241025732 -264.5315620948755,-109.51449539129585 -262.7014350759132,-111.34462241019585 -262.0315620947896,-113.84462241019668 -262.7014350758281,-116.34462241022031 -264.5315620947281,-118.1747494291826 -267.03156209472894,-118.84462241030623 -269.5315620947526,-118.17474942926769 -271.3616891137149,-116.34462241036769 -272.03156209483853,-113.84462241036687 -271.3616891138,-111.34462241034323 -269.53156209490004,-109.51449539138093 -267.0315620948992,-108.8446224102573" stroke="#ffa500" stroke-linecap="round" stroke-linejoin="round"/><polyline fill="none" points="364.3696259243218,-170.7127369233145 366.8696259243454,-171.38260990435305 368.6997529433077,-173.21273692325303 369.3696259244314,-175.71273692325386 368.69975294339287,-178.21273692327748 366.8696259244929,-180.04286394223976 364.369625924492,-180.7127369233634 361.8696259244684,-180.04286394232486 360.0394989055061,-178.21273692342487 359.36962592438243,-175.71273692342405 360.03949890542094,-173.21273692340043 361.8696259243209,-171.38260990443814 364.3696259243218,-170.7127369233145" stroke="#ffa500" stroke-linecap="round" stroke-linejoin="round"/><polyline fill="none" points="-288.87358867884944,-150.32360332870311 -286.3735886788258,-150.99347630974165 -284.5434616598635,-152.82360332864164 -283.87358867873985,-155.32360332864246 -284.54346165977836,-157.8236033286661 -286.37358867867835,-159.6537303476284 -288.8735886786792,-160.32360332875203 -291.37358867870284,-159.6537303477135 -293.20371569766513,-157.8236033288135 -293.8735886787888,-155.32360332881268 -293.2037156977503,-152.82360332878903 -291.3735886788503,-150.99347630982675 -288.87358867884944,-150.32360332870311" stroke="#ffa500" stroke-linecap="round" stroke-linejoin="round"/><polyline fill="none" points="-203.77723925442126,-70.0698193027913 -201.2772392543976,-70.73969228382984 -199.44711223543533,-72.56981930272984 -198.7772392543117,-75.06981930273066 -199.44711223535023,-77.5698193027543 -201.27723925425022,-79.3999463217166 -203.77723925425104,-80.06981930284024 -206.2772392542747,-79.39994632180172 -208.10736627323698,-77.56981930290172 -208.7772392543606,-75.0698193029009 -208.10736627332207,-72.56981930287726 -206.27723925442208,-70.73969228391496 -203.77723925442126,-70.06981930279132" stroke="#ffa500" stroke-linecap="round" stroke-linejoin="round"/><polyline fill="none" points="-320.37216869862795,-121.29821073021148 -317.8721686986043,-121.96808371125 -316.042041679642,-123.79821073015 -315.37216869851835,-126.29821073015083 -316.04204167955686,-128.79821073017447 -317.87216869845685,-130.6283377491368 -320.3721686984577,-131.29821073026042 -322.87216869848135,-130.62833774922188 -324.70229571744363,-128.7982107303219 -325.3721686985673,-126.29821073032107 -324.7022957175288,-123.79821073029744 -322.8721686986288,-121.96808371133514 -320.37216869862795,-121.2982107302115" stroke="#ffa500" stroke-linecap="round" stroke-linejoin="round"/><polyline fill="none" points="-245.21343108283878,-106.00476918687446 -242.71343108281513,-106.67464216791298 -240.88330406385282,-108.50476918681296 -240.2134310827292,-111.00476918681379 -240.88330406376772,-113.50476918683742 -242.7134310826677,-115.33489620579972 -245.21343108266854,-116.00476918692337 -247.71343108269218,-115.33489620588485 -249.5435581016545,-113.50476918698486 -250.21343108277813,-111.00476918698403 -249.5435581017396,-108.5047691869604 -247.7134310828396,-106.6746421679981 -245.21343108283878,-106.00476918687446" stroke="#ffa500" stroke-linecap="round" stroke-linejoin="round"/><polyline fill="none" points="-293.59663831799224,-129.70343058313094 -291.0966383179686,-130.37330356416945 -289.2665112990063,-132.20343058306943 -288.59663831788265,-134.70343058307026 -289.26651129892116,-137.2034305830939 -291.09663831782115,-139.03355760205622 -293.596638317822,-139.70343058317988 -296.09663831784565,-139.03355760214137 -297.92676533680793,-137.20343058324138 -298.5966383179316,-134.70343058324056 -297.9267653368931,-132.2034305832169 -296.0966383179931,-130.3733035642546 -293.59663831799224,-129.70343058313094" stroke="#00f" stroke-linecap="round" stroke-linejoin="round"/><polyline fill="none" points="-291.04183392281925,-49.280148008602914 -288.5418339227956,-49.95002098964144 -286.7117069038333,-51.78014800854143 -286.04183392270966,-54.28014800854226 -286.71170690374817,-56.7801480085659 -288.54183392264815,-58.61027502752821 -291.041833922649,-59.280148008651864 -293.54183392267265,-58.61027502761334 -295.37196094163494,-56.780148008713354 -296.0418339227586,-54.28014800871252 -295.3719609417201,-51.78014800868888 -293.5418339228201,-49.950020989726575 -291.04183392281925,-49.28014800860292" stroke="#00f" stroke-linecap="round" stroke-linejoin="round"/><polyline fill="none" points="-170.9437114030664,19.83352022157397 -168.44371140304276,19.16364724053545 -166.61358438408044,17.33352022163546 -165.94371140295678,14.833520221634629 -166.6135843839953,12.333520221610987 -168.44371140289527,10.503393202648676 -170.9437114028961,9.833520221525022 -173.44371140291975,10.50339320256354 -175.27383842188206,12.333520221463528 -175.94371140300572,14.833520221464358 -175.2738384219672,17.333520221488 -173.44371140306723,19.163647240450317 -170.9437114030664,19.83352022157397" stroke="#ffa500" stroke-linecap="round" stroke-linejoin="round"/><polyline fill="none" points="-157.7195974786154,31.85809286334854 -155.21959747859177,31.188219882310023 -153.38947045962945,29.358092863410032 -152.7195974785058,26.8580928634092 -153.3894704595443,24.358092863385558 -155.21959747844429,22.527965844423242 -157.7195974784451,21.858092863299586 -160.21959747846876,22.5279658443381 -162.04972449743107,24.358092863238088 -162.71959747855473,26.85809286323892 -162.04972449751622,29.358092863262563 -160.21959747861624,31.188219882224878 -157.7195974786154,31.858092863348535" stroke="#ffa500" stroke-linecap="round" stroke-linejoin="round"/><polyline fill="none" points="373.60298575831547,-179.57271265620014 376.1029857583391,-180.24258563723865 377.93311277730146,-182.07271265613863 378.6029857584251,-184.57271265613946 377.9331127773866,-187.0727126561631 376.1029857584866,-188.90283967512542 373.6029857584858,-189.57271265624908 371.1029857584621,-188.90283967521057 369.2728587394998,-187.07271265631059 368.6029857583761,-184.57271265630976 369.27285873941463,-182.07271265628611 371.1029857583146,-180.2425856373238 373.60298575831547,-179.57271265620014" stroke="#ffa500" stroke-linecap="round" stroke-linejoin="round"/><polyline fill="none" points="-270.36344445670466,-42.227348403820905 -267.863444456681,-42.897221384859414 -266.03331743771867,-44.7273484037594 -265.363444456595,-47.22734840376023 -266.0333174376335,-49.72734840378388 -267.8634444565335,-51.5574754227462 -270.36344445653435,-52.22734840386986 -272.863444456558,-51.55747542283135 -274.69357147552034,-49.727348403931366 -275.363444456644,-47.227348403930534 -274.6935714756055,-44.72734840390689 -272.8634444567055,-42.897221384944565 -270.36344445670466,-42.227348403820905" stroke="#ffa500" stroke-linecap="round" stroke-linejoin="round"/><polyline fill="none" points="55.44536468118948,-42.617218584569535 57.94536468121313,-43.287091565608044 59.77549170017545,-45.11721858450803 60.44536468129912,-47.61721858450886 59.77549170026061,-50.11721858453251 57.94536468136062,-51.94734560349483 55.44536468135979,-52.6172185846185 52.945364681336144,-51.94734560357999 51.11523766237382,-50.11721858468 50.445364681250155,-47.61721858467917 51.11523766228866,-45.117218584655525 52.94536468118865,-43.2870915656932 55.44536468118948,-42.617218584569535" stroke="#ffa500" stroke-linecap="round" stroke-linejoin="round"/><polyline fill="none" points="376.85173121639696,-163.10481169678246 379.3517312164206,-163.77468467782097 381.18185823538295,-165.60481169672096 381.8517312165066,-168.10481169672178 381.1818582354681,-170.60481169674543 379.3517312165681,-172.43493871570774 376.85173121656726,-173.1048116968314 374.3517312165436,-172.4349387157929 372.52160419758127,-170.6048116968929 371.8517312164576,-168.10481169689209 372.5216041974961,-165.60481169686844 374.3517312163961,-163.77468467790612 376.85173121639696,-163.10481169678246" stroke="#ffa500" stroke-linecap="round" stroke-linejoin="round"/><polyline fill="none" points="69.19498707691301,-27.69296711883709 71.69498707693666,-28.362840099875594 73.52511409589899,-30.192967118775577 74.19498707702266,-32.69296711877641 73.52511409598415,-35.19296711880006 71.69498707708416,-37.02309413776239 69.19498707708333,-37.69296711888606 66.69498707705968,-37.02309413784756 64.86486005809735,-35.19296711894758 64.19498707697367,-32.69296711894675 64.86486005801218,-30.192967118923093 66.69498707691217,-28.362840099960763 69.19498707691301,-27.692967118837092" stroke="#ffa500" stroke-linecap="round" stroke-linejoin="round"/><polyline fill="none" points="-233.94817690187446,-119.48539090870197 -231.44817690185081,-120.15526388974047 -229.61804988288847,-121.98539090864045 -228.9481769017648,-124.48539090864129 -229.61804988280332,-126.98539090866495 -231.4481769017033,-128.8155179276273 -233.94817690170413,-129.48539090875096 -236.44817690172778,-128.81551792771245 -238.27830392069012,-126.98539090881246 -238.94817690181378,-124.48539090881162 -238.27830392077527,-121.98539090878796 -236.44817690187529,-120.15526388982563 -233.94817690187446,-119.48539090870196" stroke="#ffa500" stroke-linecap="round" stroke-linejoin="round"/><polyline fill="none" points="-303.9824232406894,-129.90539520342566 -301.48242324066575,-130.57526818446416 -299.6522962217034,-132.40539520336415 -298.98242324057975,-134.90539520336498 -299.65229622161826,-137.40539520338862 -301.48242324051824,-139.23552222235097 -303.9824232405191,-139.90539520347465 -306.48242324054274,-139.23552222243615 -308.3125502595051,-137.40539520353616 -308.98242324062875,-134.90539520353533 -308.31255025959024,-132.4053952035117 -306.48242324069025,-130.57526818454934 -303.9824232406894,-129.90539520342566" stroke="#ffa500" stroke-linecap="round" stroke-linejoin="round"/><polyline fill="none" points="-232.60406147336704,-113.40483859160847 -230.1040614733434,-114.07471157264696 -228.27393445438105,-115.90483859154693 -227.60406147325736,-118.40483859154777 -228.27393445429587,-120.90483859157143 -230.10406147319586,-122.73496561053376 -232.60406147319668,-123.40483859165744 -235.10406147322033,-122.73496561061894 -236.93418849218267,-120.90483859171897 -237.60406147330636,-118.40483859171813 -236.93418849226785,-115.90483859169447 -235.10406147336786,-114.07471157273213 -232.60406147336704,-113.40483859160845" stroke="#ffa500" stroke-linecap="round" stroke-linejoin="round"/><polyline fill="none" points="-354.13221297553577,-141.37203121375933 -351.6322129755121,-142.0419041947978 -349.8020859565498,-143.8720312136978 -349.1322129754261,-146.37203121369862 -349.8020859564646,-148.87203121372227 -351.6322129753646,-150.7021582326846 -354.13221297536546,-151.3720312138083 -356.6322129753891,-150.70215823276982 -358.46233999435145,-148.87203121386983 -359.1322129754751,-146.372031213869 -358.4623399944366,-143.87203121384536 -356.6322129755366,-142.04190419488302 -354.13221297553577,-141.37203121375933" stroke="#008000" stroke-linecap="round" stroke-linejoin="round"/><polyline fill="none" points="-293.8240971423543,-84.6771069558798 -291.32409714233063,-85.34697993691829 -289.4939701233683,-87.17710695581826 -288.8240971422446,-89.6771069558191 -289.49397012328313,-92.17710695584276 -291.3240971421831,-94.0072339748051 -293.824097142184,-94.67710695592879 -296.3240971422076,-94.0072339748903 -298.15422416116996,-92.17710695599033 -298.8240971422936,-89.67710695598949 -298.1542241612551,-87.17710695596583 -296.32409714235513,-85.34697993700348 -293.8240971423543,-84.6771069558798" stroke="#ffa500" stroke-linecap="round" stroke-linejoin="round"/><polyline fill="none" points="-268.86372174815517,-99.86703280415064 -266.3637217481315,-100.53690578518913 -264.5335947291692,-102.3670328040891 -263.8637217480455,-104.86703280408994 -264.53359472908403,-107.3670328041136 -266.363721747984,-109.19715982307595 -268.86372174798487,-109.86703280419964 -271.3637217480085,-109.19715982316114 -273.19384876697086,-107.36703280426117 -273.8637217480945,-104.86703280426033 -273.193848767056,-102.36703280423667 -271.363721748156,-100.53690578527433 -268.86372174815517,-99.86703280415064" stroke="#ffa500" stroke-linecap="round" stroke-linejoin="round"/><polyline fill="none" points="-215.23023323456064,-86.72664746769738 -212.73023323453697,-87.39652044873586 -210.90010621557462,-89.22664746763583 -210.23023323445094,-91.72664746763667 -210.90010621548942,-94.22664746766033 -212.73023323438937,-96.05677448662267 -215.2302332343902,-96.72664746774636 -217.73023323441387,-96.05677448670788 -219.56036025337622,-94.22664746780791 -220.2302332344999,-91.72664746780707 -219.56036025346143,-89.22664746778341 -217.73023323456147,-87.39652044882106 -215.23023323456064,-86.72664746769738" stroke="#ffa500" stroke-linecap="round" stroke-linejoin="round"/><polyline fill="none" points="-299.86176666678773,-70.86445943561512 -297.3617666667641,-71.5343324166536 -295.53163964780174,-73.36445943555357 -294.861766666678,-75.86445943555441 -295.53163964771653,-78.36445943557807 -297.3617666666165,-80.19458645454041 -299.86176666661737,-80.8644594356641 -302.361766666641,-80.19458645462562 -304.19189368560336,-78.36445943572565 -304.8617666667271,-75.86445943572481 -304.19189368568857,-73.36445943570115 -302.3617666667886,-71.5343324167388 -299.86176666678773,-70.86445943561512" stroke="#00f" stroke-linecap="round" stroke-linejoin="round"/><polyline fill="none" points="-334.0423624651539,-105.35863912633087 -331.5423624651302,-106.02851210736935 -329.7122354461679,-107.85863912626932 -329.04236246504416,-110.35863912627016 -329.7122354460827,-112.85863912629382 -331.54236246498266,-114.68876614525617 -334.0423624649835,-115.35863912637987 -336.54236246500716,-114.68876614534139 -338.3724894839695,-112.85863912644142 -339.0423624650932,-110.35863912644058 -338.37248948405477,-107.85863912641692 -336.5423624651548,-106.02851210745456 -334.04236246515393,-105.35863912633086" stroke="#00f" stroke-linecap="round" stroke-linejoin="round"/><polyline fill="none" points="-330.9519282615409,-112.30112950996819 -328.45192826151725,-112.97100249100667 -326.6218012425549,-114.80112950990664 -325.9519282614312,-117.30112950990748 -326.62180124246964,-119.80112950993114 -328.45192826136963,-121.6312565288935 -330.9519282613705,-122.3011295100172 -333.45192826139413,-121.63125652897872 -335.2820552803565,-119.80112951007875 -335.9519282614802,-117.30112951007791 -335.28205528044174,-114.80112951005425 -333.45192826154175,-112.9710024910919 -330.9519282615409,-112.30112950996819" stroke="#ffa500" stroke-linecap="round" stroke-linejoin="round"/><polyline fill="none" points="-200.598296175647,-59.93394936532722 -198.09829617562332,-60.6038223463657 -196.26816915666097,-62.43394936526567 -195.59829617553729,-64.9339493652665 -196.26816915657577,-67.43394936529016 -198.09829617547572,-69.26407638425252 -200.59829617547655,-69.93394936537622 -203.09829617550022,-69.26407638433774 -204.92842319446257,-67.43394936543777 -205.59829617558626,-64.93394936543693 -204.92842319454778,-62.43394936541326 -203.09829617564782,-60.603822346450904 -200.598296175647,-59.9339493653272" stroke="#ffa500" stroke-linecap="round" stroke-linejoin="round"/><polyline fill="none" points="-157.71476436811287,20.91520729813599 -155.2147643680892,20.245334317097516 -153.38463734912685,18.41520729819755 -152.71476436800313,15.91520729819672 -153.3846373490416,13.41520729817305 -155.21476436794157,11.585080279210692 -157.7147643679424,10.915207298086987 -160.21476436796607,11.58508027912546 -162.04489138692844,13.415207298025425 -162.71476436805216,15.915207298026257 -162.04489138701368,18.41520729804993 -160.21476436811372,20.245334317012286 -157.7147643681129,20.915207298135993" stroke="#ffa500" stroke-linecap="round" stroke-linejoin="round"/><polyline fill="none" points="-314.477993324916,-117.42067440807233 -311.97799332489234,-118.0905473891108 -310.14786630593,-119.92067440801075 -309.4779933248063,-122.42067440801159 -310.14786630584473,-124.92067440803527 -311.9779933247447,-126.75080142699763 -314.47799332474557,-127.42067440812133 -316.9779933247692,-126.75080142708286 -318.80812034373156,-124.9206744081829 -319.4779933248553,-122.42067440818207 -318.8081203438168,-119.92067440815839 -316.97799332491684,-118.09054738919603 -314.477993324916,-117.42067440807233" stroke="#00f" stroke-linecap="round" stroke-linejoin="round"/><polyline fill="none" points="-351.46100078534243,-143.43260635634476 -348.9610007853188,-144.10247933738324 -347.13087376635644,-145.9326063562832 -346.4610007852327,-148.43260635628403 -347.1308737662712,-150.9326063563077 -348.96100078517117,-152.76273337527007 -351.461000785172,-153.4326063563938 -353.96100078519567,-152.7627333753553 -355.791127804158,-150.93260635645535 -356.4610007852817,-148.43260635645453 -355.7911278042433,-145.93260635643085 -353.9610007853433,-144.10247933746848 -351.46100078534243,-143.43260635634476" stroke="#00f" stroke-linecap="round" stroke-linejoin="round"/><polyline fill="none" points="-178.7548024814321,74.60422804928233 -176.25480248140843,73.93435506824386 -174.42467546244606,72.1042280493439 -173.75480248132234,69.60422804934306 -174.42467546236082,67.10422804931939 -176.25480248126078,65.27410103035702 -178.7548024812616,64.6042280492333 -181.25480248128528,65.27410103027177 -183.08492950024765,67.10422804917172 -183.75480248137137,69.60422804917256 -183.0849295003329,72.10422804919624 -181.25480248143293,73.93435506815861 -178.7548024814321,74.60422804928233" stroke="#ffa500" stroke-linecap="round" stroke-linejoin="round"/><polyline fill="none" points="-316.04867568376824,-103.73684518218579 -313.54867568374453,-104.40671816322426 -311.7185486647822,-106.23684518212421 -311.0486756836585,-108.73684518212505 -311.7185486646969,-111.23684518214873 -313.5486756835969,-113.0669722011111 -316.04867568359776,-113.73684518223482 -318.54867568362147,-113.06697220119635 -320.3788027025838,-111.23684518229639 -321.04867568370753,-108.73684518229555 -320.3788027026691,-106.23684518227188 -318.5486756837691,-104.4067181633095 -316.04867568376824,-103.73684518218579" stroke="#ffa500" stroke-linecap="round" stroke-linejoin="round"/><polyline fill="none" points="-356.00638498199237,-153.4086931721514 -353.50638498196867,-154.07856615318985 -351.6762579630063,-155.9086931720898 -351.0063849818826,-158.40869317209064 -351.67625796292106,-160.9086931721143 -353.50638498182104,-162.73882019107668 -356.0063849818219,-163.4086931722004 -358.5063849818456,-162.73882019116195 -360.33651200080794,-160.908693172262 -361.00638498193166,-158.40869317226117 -360.3365120008932,-155.9086931722375 -358.5063849819932,-154.07856615327512 -356.00638498199237,-153.4086931721514" stroke="#f00" stroke-linecap="round" stroke-linejoin="round"/><polyline fill="none" points="-324.0545995328012,-134.73745301884497 -321.5545995327775,-135.40732599988343 -319.72447251381516,-137.23745301878338 -319.05459953269144,-139.7374530187842 -319.7244725137299,-142.23745301880788 -321.5545995326299,-144.06758003777026 -324.05459953263073,-144.73745301889397 -326.55459953265444,-144.06758003785552 -328.38472655161684,-142.23745301895556 -329.05459953274055,-139.73745301895474 -328.3847265517021,-137.23745301893106 -326.5545995328021,-135.4073259999687 -324.05459953280126,-134.73745301884497" stroke="#008000" stroke-linecap="round" stroke-linejoin="round"/><polyline fill="none" points="-296.521763838707,-57.66420886498666 -294.0217638386833,-58.33408184602512 -292.1916368197209,-60.16420886492508 -291.52176383859717,-62.66420886492591 -292.1916368196356,-65.16420886494959 -294.02176383853555,-66.99433588391196 -296.5217638385364,-67.66420886503568 -299.0217638385601,-66.99433588399721 -300.8518908575225,-65.16420886509725 -301.5217638386462,-62.66420886509642 -300.85189085760777,-60.16420886507274 -299.02176383870784,-58.334081846110365 -296.521763838707,-57.66420886498664" stroke="#ffa500" stroke-linecap="round" stroke-linejoin="round"/><polyline fill="none" points="-283.7724869134887,-74.24636013236261 -281.272486913465,-74.91623311340106 -279.4423598945026,-76.74636013230102 -278.7724869133789,-79.24636013230186 -279.44235989441734,-81.74636013232553 -281.27248691331727,-83.5764871512879 -283.7724869133181,-84.24636013241164 -286.2724869133418,-83.57648715137319 -288.1026139323042,-81.74636013247323 -288.77248691342794,-79.24636013247239 -288.1026139323895,-76.7463601324487 -286.27248691348956,-74.91623311348633 -283.7724869134887,-74.2463601323626" stroke="#ffa500" stroke-linecap="round" stroke-linejoin="round"/><polyline fill="none" points="-206.66838798054184,44.97271636301606 -204.16838798051816,44.3028433819776 -202.3382609615558,42.472716363077645 -201.66838798043207,39.97271636307681 -202.33826096147052,37.47271636305313 -204.16838798037048,35.64258934409075 -206.6683879803713,34.97271636296702 -209.16838798039498,35.64258934400547 -210.99851499935735,37.47271636290543 -211.66838798048107,39.97271636290627 -210.99851499944262,42.47271636292995 -209.16838798054266,44.30284338189233 -206.66838798054184,44.97271636301606" stroke="#00f" stroke-linecap="round" stroke-linejoin="round"/><polyline fill="none" points="-326.57157142504775,-96.94109487858653 -324.07157142502405,-97.61096785962498 -322.24144440606165,-99.44109487852494 -321.57157142493793,-101.94109487852577 -322.2414444059764,-104.44109487854946 -324.0715714248763,-106.27122189751185 -326.57157142487716,-106.94109487863558 -329.07157142490087,-106.27122189759713 -330.90169844386327,-104.44109487869717 -331.571571424987,-101.94109487869633 -330.90169844394853,-99.44109487867264 -329.0715714250486,-97.61096785971026 -326.57157142504775,-96.94109487858653" stroke="#00f" stroke-linecap="round" stroke-linejoin="round"/><polyline fill="none" points="-209.02454906909512,-62.88684378344077 -206.52454906907144,-63.55671676447922 -204.69442205010907,-65.38684378337918 -204.02454906898532,-67.88684378338002 -204.69442205002377,-70.3868437834037 -206.52454906892373,-72.21697080236609 -209.02454906892456,-72.88684378348982 -211.52454906894823,-72.21697080245137 -213.3546760879106,-70.38684378355141 -214.02454906903435,-67.88684378355057 -213.3546760879959,-65.38684378352688 -211.52454906909594,-63.5567167645645 -209.02454906909512,-62.88684378344076" stroke="#ffa500" stroke-linecap="round" stroke-linejoin="round"/><polyline fill="none" points="-298.81305736014167,-123.88966885925416 -296.31305736011797,-124.55954184029261 -294.48293034115557,-126.38966885919257 -293.81305736003185,-128.8896688591934 -294.4829303410703,-131.38966885921707 -296.31305735997023,-133.21979587817947 -298.8130573599711,-133.8896688593032 -301.3130573599948,-133.21979587826476 -303.1431843789572,-131.3896688593648 -303.8130573600809,-128.88966885936398 -303.14318437904245,-126.38966885934029 -301.3130573601425,-124.5595418403779 -298.81305736014167,-123.88966885925417" stroke="#00f" stroke-linecap="round" stroke-linejoin="round"/><polyline fill="none" points="-289.4400550578188,-141.87115054504847 -286.9400550577951,-142.54102352608692 -285.1099280388327,-144.37115054498688 -284.440055057709,-146.8711505449877 -285.10992803874746,-149.3711505450114 -286.9400550576474,-151.2012775639738 -289.44005505764824,-151.87115054509755 -291.94005505767194,-151.2012775640591 -293.77018207663434,-149.37115054515914 -294.44005505775806,-146.87115054515832 -293.7701820767196,-144.3711505451346 -291.9400550578197,-142.5410235261722 -289.4400550578188,-141.87115054504847" stroke="#ffa500" stroke-linecap="round" stroke-linejoin="round"/><polyline fill="none" points="-275.34541260408287,-69.95206404300139 -272.84541260405916,-70.62193702403982 -271.01528558509676,-72.45206404293977 -270.34541260397305,-74.9520640429406 -271.0152855850115,-77.4520640429643 -272.8454126039114,-79.28219106192668 -275.3454126039123,-79.95206404305043 -277.845412603936,-79.28219106201199 -279.6755396228984,-77.45206404311205 -280.3454126040221,-74.9520640431112 -279.67553962298365,-72.45206404308752 -277.8454126040837,-70.62193702412513 -275.34541260408287,-69.95206404300139" stroke="#ffa500" stroke-linecap="round" stroke-linejoin="round"/><polyline fill="none" points="-293.79985126256764,-138.1961732478607 -291.29985126254394,-138.86604622889917 -289.46972424358154,-140.69617324779912 -288.7998512624578,-143.19617324779995 -289.4697242434963,-145.69617324782365 -291.2998512623962,-147.52630026678605 -293.79985126239706,-148.1961732479098 -296.29985126242076,-147.52630026687135 -298.12997828138316,-145.6961732479714 -298.7998512625069,-143.19617324797056 -298.1299782814684,-140.69617324794686 -296.2998512625685,-138.86604622898446 -293.79985126256764,-138.1961732478607" stroke="#ffa500" stroke-linecap="round" stroke-linejoin="round"/><polyline fill="none" points="-366.8475574845208,-160.55775842622674 -364.3475574844971,-161.2276314072652 -362.5174304655347,-163.05775842616515 -361.8475574844109,-165.55775842616598 -362.51743046544937,-168.05775842618968 -364.3475574843493,-169.88788544515208 -366.84755748435015,-170.55775842627583 -369.34755748437385,-169.88788544523737 -371.17768450333625,-168.05775842633741 -371.84755748446,-165.5577584263366 -371.1776845034216,-163.0577584263129 -369.34755748452164,-161.2276314073505 -366.8475574845208,-160.55775842622674" stroke="#00f" stroke-linecap="round" stroke-linejoin="round"/><polyline fill="none" points="-251.39720818104647,-24.812058373984343 -248.89720818102276,-25.48193135502278 -247.06708116206036,-27.312058373922728 -246.39720818093662,-29.812058373923563 -247.06708116197504,-32.31205837394726 -248.897208180875,-34.14218539290966 -251.39720818087582,-34.81205837403341 -253.89720818089953,-34.142185392994975 -255.72733519986193,-32.31205837409503 -256.3972081809857,-29.812058374094196 -255.72733519994725,-27.3120583740705 -253.8972081810473,-25.4819313551081 -251.39720818104647,-24.81205837398435" stroke="#ffa500" stroke-linecap="round" stroke-linejoin="round"/><polyline fill="none" points="-364.86695502277473,-174.30014007687788 -362.36695502275103,-174.9700130579163 -360.5368280037886,-176.80014007681626 -359.86695502266485,-179.3001400768171 -360.5368280037033,-181.8001400768408 -362.36695502260324,-183.6302670958032 -364.8669550226041,-184.30014007692694 -367.3669550226278,-183.6302670958885 -369.1970820415902,-181.80014007698855 -369.86695502271397,-179.30014007698773 -369.1970820416755,-176.80014007696403 -367.3669550227756,-174.97001305800163 -364.86695502277473,-174.30014007687788" stroke="#ffa500" stroke-linecap="round" stroke-linejoin="round"/><polyline fill="none" points="63.01674124926605,-28.952828893166846 65.51674124928975,-29.62270187420528 67.34686826825215,-31.452828893105224 68.01674124937591,-33.95282889310606 67.34686826833747,-36.452828893129755 65.51674124943753,-38.282955912092156 63.01674124943669,-38.95282889321591 60.516741249412995,-38.28295591217748 58.68661423045059,-36.452828893277534 58.016741249326834,-33.952828893276696 58.686614230365265,-31.452828893252995 60.51674124926521,-29.62270187429059 63.01674124926605,-28.952828893166835" stroke="#ffa500" stroke-linecap="round" stroke-linejoin="round"/><polyline fill="none" points="-230.48687132182403,-87.39953096710573 -227.98687132180032,-88.06940394814417 -226.15674430283792,-89.89953096704411 -225.48687132171418,-92.39953096704495 -226.1567443027526,-94.89953096706866 -227.98687132165253,-96.72965798603106 -230.48687132165335,-97.39953096715482 -232.98687132167706,-96.7296579861164 -234.81699834063946,-94.89953096721645 -235.4868713217632,-92.39953096721561 -234.81699834072478,-89.89953096719191 -232.98687132182485,-88.0694039482295 -230.48687132182403,-87.39953096710575" stroke="#00f" stroke-linecap="round" stroke-linejoin="round"/><polyline fill="none" points="-339.1189465255866,-120.0617763398018 -336.6189465255629,-120.73164932084022 -334.7888195066005,-122.56177633974016 -334.1189465254767,-125.061776339741 -334.78881950651515,-127.5617763397647 -336.6189465254151,-129.39190335872712 -339.11894652541594,-130.0617763398509 -341.61894652543964,-129.39190335881247 -343.44907354440204,-127.56177633991253 -344.1189465255258,-125.06177633991169 -343.44907354448736,-122.56177633988798 -341.61894652558743,-120.73164932092557 -339.1189465255866,-120.06177633980181" stroke="#00f" stroke-linecap="round" stroke-linejoin="round"/><polyline fill="none" points="-363.8060927002242,-148.87317102495928 -361.3060927002005,-149.5430440059977 -359.4759656812381,-151.37317102489763 -358.80609270011433,-153.87317102489845 -359.4759656811528,-156.37317102492216 -361.3060927000527,-158.20329804388456 -363.80609270005357,-158.87317102500833 -366.3060927000773,-158.2032980439699 -368.1362197190397,-156.37317102506998 -368.80609270016345,-153.87317102506915 -368.136219719125,-151.37317102504545 -366.30609270022507,-149.54304400608305 -363.8060927002242,-148.87317102495928" stroke="#00f" stroke-linecap="round" stroke-linejoin="round"/><polyline fill="none" points="-177.27140885463066,58.455839269570454 -174.77140885460696,57.78596628853203 -172.94128183564456,55.955839269632094 -172.27140885452079,53.455839269631255 -172.9412818355592,50.95583926960755 -174.77140885445914,49.12571225064514 -177.27140885446,48.45583926952137 -179.7714088544837,49.12571225055979 -181.60153587344612,50.95583926945973 -182.2714088545699,53.45583926946057 -181.60153587353147,55.95583926948427 -179.77140885463155,57.78596628844669 -177.27140885463072,58.455839269570454" stroke="#ffa500" stroke-linecap="round" stroke-linejoin="round"/><polyline fill="none" points="-320.0347219405535,-119.52001799048742 -317.5347219405298,-120.18989097152584 -315.7045949215674,-122.02001799042579 -315.0347219404436,-124.52001799042662 -315.704594921482,-127.02001799045033 -317.5347219403819,-128.85014500941276 -320.0347219403828,-129.52001799053653 -322.5347219404065,-128.8501450094981 -324.3648489593689,-127.02001799059816 -325.03472194049266,-124.52001799059732 -324.36484895945426,-122.02001799057362 -322.53472194055433,-120.1898909716112 -320.0347219405535,-119.52001799048743" stroke="#ffa500" stroke-linecap="round" stroke-linejoin="round"/><polyline fill="none" points="-170.60264672606178,32.03879902225645 -168.10264672603807,31.368926041218028 -166.27251970707565,29.53879902231809 -165.60264672595187,27.038799022317253 -166.2725197069903,24.538799022293546 -168.10264672589022,22.708672003331127 -170.60264672589105,22.038799022207353 -173.10264672591475,22.70867200324577 -174.93277374487718,24.538799022145707 -175.60264672600096,27.038799022146545 -174.93277374496253,29.538799022170252 -173.1026467260626,31.368926041132674 -170.60264672606178,32.03879902225645" stroke="#ffa500" stroke-linecap="round" stroke-linejoin="round"/><polyline fill="none" points="-183.85992080820327,72.30107185129441 -181.35992080817957,71.63119887025599 -179.52979378921714,69.80107185135606 -178.85992080809336,67.30107185135522 -179.5297937891318,64.80107185133151 -181.35992080803172,62.97094483236909 -183.85992080803254,62.30107185124532 -186.35992080805624,62.970944832283735 -188.19004782701867,64.80107185118366 -188.85992080814245,67.3010718511845 -188.19004782710402,69.8010718512082 -186.3599208082041,71.63119887017064 -183.85992080820327,72.30107185129441" stroke="#ffa500" stroke-linecap="round" stroke-linejoin="round"/><polyline fill="none" points="-206.849401064805,-98.77457774346209 -204.3494010647813,-99.4444507245005 -202.51927404581886,-101.27457774340043 -201.8494010646951,-103.77457774340127 -202.5192740457335,-106.27457774342497 -204.34940106463344,-108.1047047623874 -206.84940106463426,-108.77457774351117 -209.34940106465797,-108.10470476247276 -211.1795280836204,-106.27457774357283 -211.84940106474417,-103.774577743572 -211.17952808370575,-101.27457774354829 -209.34940106480582,-99.44445072458586 -206.849401064805,-98.77457774346209" stroke="#00f" stroke-linecap="round" stroke-linejoin="round"/><polyline fill="none" points="-328.43699634804693,-142.0749303843812 -325.93699634802323,-142.7448033654196 -324.1068693290608,-144.57493038431954 -323.43699634793705,-147.07493038432037 -324.10686932897545,-149.57493038434407 -325.9369963478754,-151.4050574033065 -328.43699634787623,-152.07493038443027 -330.93699634789994,-151.40505740339185 -332.76712336686234,-149.57493038449192 -333.4369963479861,-147.0749303844911 -332.7671233669477,-144.5749303844674 -330.9369963480478,-142.74480336550496 -328.43699634804693,-142.0749303843812" stroke="#00f" stroke-linecap="round" stroke-linejoin="round"/><polyline fill="none" points="-363.443192466747,-172.8805989408458 -360.9431924667233,-173.5504719218842 -359.1130654477609,-175.38059894078413 -358.44319246663713,-177.88059894078495 -359.1130654476755,-180.38059894080865 -360.94319246657545,-182.21072595977108 -363.4431924665763,-182.88059894089486 -365.9431924666,-182.21072595985646 -367.7733194855624,-180.38059894095653 -368.4431924666862,-177.8805989409557 -367.7733194856478,-175.380598940932 -365.94319246674786,-173.55047192196957 -363.443192466747,-172.8805989408458" stroke="#ffa500" stroke-linecap="round" stroke-linejoin="round"/><polyline fill="none" points="-263.0162232326285,-13.906436709904376 -260.5162232326048,-14.576309690942782 -258.6860962136423,-16.406436709842712 -258.01622323251854,-18.906436709843547 -258.68609621355694,-21.40643670986726 -260.51622323245687,-23.23656372882969 -263.0162232324577,-23.906436709953475 -265.5162232324814,-23.23656372891507 -267.3463502514439,-21.406436710015143 -268.01622323256765,-18.906436710014308 -267.34635025152926,-16.406436709990594 -265.51622323262933,-14.576309691028161 -263.0162232326285,-13.906436709904373" stroke="#ffa500" stroke-linecap="round" stroke-linejoin="round"/><polyline fill="none" points="-184.577411841408,63.91052076465267 -182.0774118413843,63.240647783614264 -180.24728482242188,61.410520764714335 -179.57741184129807,58.910520764713496 -180.24728482233647,56.41052076468978 -182.0774118412364,54.58039374572735 -184.57741184123722,53.91052076460356 -187.07741184126093,54.58039374564196 -188.90753886022335,56.410520764541886 -189.57741184134716,58.910520764542724 -188.90753886030876,61.41052076456644 -187.07741184140883,63.24064778352888 -184.577411841408,63.91052076465267" stroke="#ffa500" stroke-linecap="round" stroke-linejoin="round"/><polyline fill="none" points="-304.0553560530765,-66.47381173039183 -301.5553560530528,-67.14368471143023 -299.7252290340903,-68.97381173033016 -299.05535605296654,-71.473811730331 -299.72522903400494,-73.97381173035471 -301.55535605290487,-75.80393874931714 -304.0553560529057,-76.47381173044093 -306.5553560529294,-75.80393874940253 -308.3854830718919,-73.9738117305026 -309.05535605301566,-71.47381173050177 -308.38548307197726,-68.97381173047805 -306.55535605307733,-67.1436847115156 -304.0553560530765,-66.47381173039182" stroke="#00f" stroke-linecap="round" stroke-linejoin="round"/><polyline fill="none" points="-275.5577114913483,-54.82774772585665 -273.0577114913246,-55.497620706895056 -271.22758447236214,-57.32774772579498 -270.55771149123836,-59.82774772579582 -271.22758447227676,-62.327747725819535 -273.0577114911767,-64.15787474478198 -275.55771149117754,-64.82774772590577 -278.05771149120125,-64.15787474486737 -279.8878385101637,-62.32774772596745 -280.5577114912875,-59.82774772596661 -279.8878385102491,-57.32774772594289 -278.05771149134915,-55.497620706980456 -275.5577114913483,-54.82774772585666" stroke="#ffa500" stroke-linecap="round" stroke-linejoin="round"/><polyline fill="none" points="-331.52857910339975,-158.8110159391392 -329.02857910337605,-159.4808889201776 -327.1984520844136,-161.31101593907752 -326.5285791032898,-163.81101593907835 -327.1984520843282,-166.31101593910208 -329.02857910322814,-168.1411429580645 -331.528579103229,-168.8110159391883 -334.0285791032527,-168.1411429581499 -335.85870612221515,-166.31101593924998 -336.5285791033389,-163.81101593924916 -335.85870612230053,-161.31101593922543 -334.0285791034006,-159.480888920263 -331.52857910339975,-158.8110159391392" stroke="#00f" stroke-linecap="round" stroke-linejoin="round"/><polyline fill="none" points="-314.2210924955033,-120.83846187442877 -311.7210924954796,-121.50833485546717 -309.8909654765171,-123.33846187436708 -309.22109249539335,-125.83846187436792 -309.89096547643175,-128.33846187439164 -311.7210924953317,-130.16858889335407 -314.2210924953325,-130.83846187447787 -316.72109249535623,-130.16858889343948 -318.5512195143187,-128.33846187453955 -319.22109249544246,-125.83846187453871 -318.55121951440407,-123.33846187451499 -316.72109249550414,-121.50833485555255 -314.2210924955033,-120.83846187442875" stroke="#ffa500" stroke-linecap="round" stroke-linejoin="round"/><polyline fill="none" points="-348.35521313718345,-150.97565832996736 -345.85521313715975,-151.64553131100575 -344.0250861181973,-153.47565832990568 -343.3552131370735,-155.9756583299065 -344.0250861181119,-158.47565832993024 -345.85521313701184,-160.3057853488927 -348.3552131370127,-160.9756583300165 -350.8552131370364,-160.3057853489781 -352.68534015599886,-158.47565833007818 -353.3552131371227,-155.97565833007735 -352.6853401560843,-153.47565833005362 -350.85521313718436,-151.64553131109116 -348.3552131371835,-150.97565832996736" stroke="#008000" stroke-linecap="round" stroke-linejoin="round"/><polyline fill="none" points="-164.85204656473664,25.675515142607125 -162.3520465647129,25.005642161568733 -160.52191954575045,23.175515142668814 -159.85204656462665,20.675515142667976 -160.52191954566504,18.17551514264425 -162.35204656456497,16.3453881236818 -164.8520465645658,15.675515142557995 -167.35204656458953,16.345388123596386 -169.182173583552,18.175515142496305 -169.8520465646758,20.675515142497144 -169.1821735836374,23.17551514252087 -167.35204656473746,25.00564216148332 -164.8520465647366,25.675515142607125" stroke="#ffa500" stroke-linecap="round" stroke-linejoin="round"/><polyline fill="none" points="62.748057642204856,-37.54620695231242 65.24805764222859,-38.216079933350805 67.07818466119103,-40.04620695225073 67.74805764231483,-42.546206952251566 67.07818466127645,-45.04620695227529 65.24805764237654,-46.87633397123774 62.7480576423757,-47.54620695236155 60.248057642351974,-46.87633397132316 58.41793062338952,-45.04620695242325 57.748057642265714,-42.54620695242241 58.4179306233041,-40.046206952398684 60.24805764220402,-38.216079933436234 62.748057642204856,-37.546206952312424" stroke="#ffa500" stroke-linecap="round" stroke-linejoin="round"/><polyline fill="none" points="-309.58617320067805,-129.31914308550907 -307.08617320065434,-129.98901606654746 -305.2560461816919,-131.8191430854474 -304.58617320056806,-134.31914308544822 -305.25604618160645,-136.81914308547195 -307.0861732005064,-138.6492701044344 -309.58617320050723,-139.3191430855582 -312.08617320053094,-138.64927010451981 -313.9163002194934,-136.81914308561988 -314.5861732006172,-134.31914308561906 -313.91630021957883,-131.81914308559533 -312.0861732006789,-129.98901606663287 -309.58617320067805,-129.31914308550907" stroke="#ffa500" stroke-linecap="round" stroke-linejoin="round"/><polyline fill="none" points="-352.343683863336,-130.66575354198866 -349.8436838633123,-131.33562652302706 -348.01355684434986,-133.165753541927 -347.34368386322603,-135.6657535419278 -348.01355684426443,-138.16575354195155 -349.84368386316436,-139.995880560914 -352.3436838631652,-140.6657535420378 -354.8436838631889,-139.9958805609994 -356.6738108821514,-138.16575354209948 -357.3436838632752,-135.66575354209866 -356.6738108822368,-133.16575354207492 -354.8436838633369,-131.33562652311247 -352.343683863336,-130.66575354198866" stroke="#00f" stroke-linecap="round" stroke-linejoin="round"/><polyline fill="none" points="-366.64144883772,-181.27998543238394 -364.1414488376963,-181.94985841342233 -362.31132181873386,-183.77998543232223 -361.64144883761,-186.27998543232306 -362.3113218186484,-188.7799854323468 -364.14144883754835,-190.61011245130925 -366.6414488375492,-191.27998543243305 -369.1414488375729,-190.61011245139468 -370.97157585653537,-188.77998543249478 -371.6414488376592,-186.27998543249396 -370.9715758566208,-183.77998543247023 -369.1414488377209,-181.94985841350777 -366.64144883772,-181.27998543238394" stroke="#ffa500" stroke-linecap="round" stroke-linejoin="round"/><polyline fill="none" points="-359.41813630616537,-160.22818548237044 -356.91813630614166,-160.8980584634088 -355.0880092871792,-162.7281854823087 -354.4181363060554,-165.22818548230953 -355.08800928709377,-167.72818548233326 -356.9181363059937,-169.55831250129572 -359.41813630599455,-170.22818548241955 -361.91813630601825,-169.55831250138118 -363.7482633249807,-167.72818548248128 -364.41813630610454,-165.22818548248046 -363.74826332506615,-162.72818548245672 -361.9181363061662,-160.89805846349427 -359.41813630616537,-160.22818548237044" stroke="#008000" stroke-linecap="round" stroke-linejoin="round"/><polyline fill="none" points="-259.71823436110657,-23.21845492675035 -257.2182343610828,-23.888327907788728 -255.38810734212035,-25.71845492668864 -254.71823436099652,-28.21845492668948 -255.38810734203489,-30.71845492671321 -257.2182343609348,-32.54858194567567 -259.71823436093564,-33.218454926799495 -262.2182343609594,-32.54858194576112 -264.04836137992186,-30.71845492686121 -264.7182343610457,-28.21845492686037 -264.0483613800073,-25.718454926836635 -262.21823436110736,-23.88832790787417 -259.7182343611065,-23.218454926750347" stroke="#ffa500" stroke-linecap="round" stroke-linejoin="round"/><polyline fill="none" points="-289.23122152008665,-52.96940226583306 -286.7312215200629,-53.639275246871435 -284.90109450110043,-55.46940226577134 -284.2312215199766,-57.96940226577218 -284.901094501015,-60.469402265795914 -286.7312215199149,-62.29952928475838 -289.2312215199158,-62.9694022658822 -291.73122151993954,-62.29952928484383 -293.561348538902,-60.46940226594392 -294.2312215200258,-57.96940226594308 -293.56134853898743,-55.46940226591934 -291.7312215200875,-53.63927524695688 -289.23122152008665,-52.969402265833054" stroke="#ffa500" stroke-linecap="round" stroke-linejoin="round"/><polyline fill="none" points="-325.22835811309454,-149.33917059978955 -322.7283581130708,-150.00904358082792 -320.8982310941083,-151.83917059972782 -320.2283581129845,-154.33917059972867 -320.8982310940229,-156.8391705997524 -322.7283581129228,-158.66929761871486 -325.2283581129237,-159.3391705998387 -327.72835811294743,-158.66929761880033 -329.5584851319099,-156.83917059990043 -330.2283581130337,-154.3391705998996 -329.5584851319953,-151.83917059987587 -327.7283581130954,-150.0090435809134 -325.22835811309454,-149.33917059978958" stroke="#ffa500" stroke-linecap="round" stroke-linejoin="round"/><polyline fill="none" points="-340.91562665831,-134.52812607699119 -338.4156266582862,-135.19799905802955 -336.58549963932376,-137.02812607692945 -335.9156266581999,-139.52812607693028 -336.5854996392383,-142.028126076954 -338.41562665813825,-143.85825309591647 -340.9156266581391,-144.5281260770403 -343.41562665816286,-143.85825309600193 -345.2457536771253,-142.02812607710203 -345.91562665824915,-139.5281260771012 -345.24575367721076,-137.02812607707747 -343.4156266583108,-135.19799905811502 -340.91562665831,-134.52812607699119" stroke="#00f" stroke-linecap="round" stroke-linejoin="round"/><polyline fill="none" points="-337.87230855949076,-146.9641238569851 -335.372308559467,-147.63399683802348 -333.54218154050454,-149.46412385692338 -332.8723085593807,-151.9641238569242 -333.54218154041905,-154.46412385694794 -335.372308559319,-156.29425087591042 -337.87230855931983,-156.96412385703425 -340.3723085593436,-156.29425087599589 -342.20243557830605,-154.46412385709598 -342.8723085594299,-151.96412385709516 -342.20243557839154,-149.46412385707143 -340.3723085594916,-147.63399683810894 -337.87230855949076,-146.9641238569851" stroke="#00f" stroke-linecap="round" stroke-linejoin="round"/><polyline fill="none" points="-189.5648176514748,-83.37650569565693 -187.06481765145108,-84.0463786766953 -185.2346906324886,-85.8765056955952 -184.56481765136476,-88.37650569559604 -185.23469063240313,-90.87650569561978 -187.06481765130303,-92.70663271458226 -189.56481765130385,-93.37650569570609 -192.0648176513276,-92.70663271466772 -193.89494467029007,-90.87650569576782 -194.5648176514139,-88.37650569576698 -193.89494467037554,-85.87650569574323 -192.06481765147564,-84.04637867678076 -189.5648176514748,-83.37650569565692" stroke="#ffa500" stroke-linecap="round" stroke-linejoin="round"/><polyline fill="none" points="-309.393630412022,-122.15640644451447 -306.89363041199823,-122.82627942555284 -305.0635033930358,-124.65640644445274 -304.39363041191194,-127.15640644445358 -305.0635033929503,-129.6564064444773 -306.8936304118502,-131.4865334634398 -309.39363041185106,-132.15640644456363 -311.8936304118748,-131.48653346352526 -313.7237574308373,-129.65640644462536 -314.3936304119611,-127.15640644462452 -313.7237574309228,-124.65640644460078 -311.89363041202284,-122.82627942563829 -309.393630412022,-122.15640644451445" stroke="#ffa500" stroke-linecap="round" stroke-linejoin="round"/><polyline fill="none" points="-282.7896931255273,-57.52343369770018 -280.28969312550356,-58.19330667873854 -278.4595661065411,-60.02343369763844 -277.7896931254173,-62.52343369763928 -278.4595661064556,-65.02343369766302 -280.2896931253555,-66.85356071662551 -282.78969312535634,-67.52343369774935 -285.2896931253801,-66.853560716711 -287.11982014434255,-65.0234336978111 -287.7896931254664,-62.52343369781026 -287.11982014442805,-60.023433697786515 -285.2896931255282,-58.19330667882404 -282.7896931255273,-57.52343369770019" stroke="#ffa500" stroke-linecap="round" stroke-linejoin="round"/><polyline fill="none" points="-295.8067183793273,-134.6974029184228 -293.30671837930356,-135.36727589946116 -291.4765913603411,-137.19740291836106 -290.8067183792173,-139.6974029183619 -291.4765913602556,-142.19740291838562 -293.3067183791555,-144.0275299373481 -295.80671837915634,-144.69740291847194 -298.3067183791801,-144.02752993743357 -300.13684539814255,-142.19740291853367 -300.8067183792664,-139.69740291853284 -300.13684539822805,-137.1974029185091 -298.3067183793282,-135.36727589954663 -295.8067183793273,-134.69740291842277" stroke="#00f" stroke-linecap="round" stroke-linejoin="round"/><polyline fill="none" points="-195.0095273931661,7.531085803749935 -192.50952739314238,6.861212822711582 -190.6794003741799,5.031085803811683 -190.00952739305603,2.531085803810846 -190.6794003740944,0.031085803787100463 -192.5095273929943,-1.7990412151753838 -195.00952739299512,-2.468914196299232 -197.50952739301886,-1.7990412152608795 -199.33965441198134,0.031085803639018028 -200.0095273931052,2.531085803639855 -199.33965441206686,5.031085803663601 -197.50952739316696,6.8612128226260864 -195.00952739316614,7.531085803749936" stroke="#00f" stroke-linecap="round" stroke-linejoin="round"/><polyline fill="none" points="-293.17762009148976,-76.039451767535 -290.677620091466,-76.70932474857335 -288.8474930725035,-78.53945176747325 -288.17762009137965,-81.03945176747409 -288.847493072418,-83.53945176749784 -290.67762009131786,-85.36957878646032 -293.1776200913187,-86.03945176758417 -295.6776200913425,-85.36957878654582 -297.507747110305,-83.53945176764591 -298.1776200914288,-81.03945176764508 -297.5077471103905,-78.53945176762133 -295.6776200914906,-76.70932474865884 -293.17762009148976,-76.039451767535" stroke="#ffa500" stroke-linecap="round" stroke-linejoin="round"/><polyline fill="none" points="-358.1732005738489,-143.03976784022623 -355.6732005738251,-143.70964082126457 -353.8430735548626,-145.53976784016447 -353.17320057373877,-148.0397678401653 -353.8430735547771,-150.53976784018906 -355.673200573677,-152.36989485915154 -358.17320057367783,-153.0397678402754 -360.6732005737016,-152.36989485923706 -362.5033275926641,-150.53976784033716 -363.17320057378794,-148.0397678403363 -362.5033275927496,-145.53976784031255 -360.6732005738497,-143.70964082135006 -358.1732005738489,-143.0397678402262" stroke="#008000" stroke-linecap="round" stroke-linejoin="round"/><polyline fill="none" points="-347.90324163306923,-134.70201649373047 -345.40324163304547,-135.3718894747688 -343.57311461408295,-137.2020164936687 -342.9032416329591,-139.70201649366953 -343.57311461399746,-142.2020164936933 -345.40324163289733,-144.03214351265578 -347.9032416328982,-144.70201649377964 -350.40324163292195,-144.0321435127413 -352.23336865188446,-142.2020164938414 -352.9032416330083,-139.70201649384057 -352.23336865196995,-137.2020164938168 -350.4032416330701,-135.37188947485433 -347.90324163306923,-134.70201649373047" stroke="#ffa500" stroke-linecap="round" stroke-linejoin="round"/><polyline fill="none" points="372.7658270621574,-171.0436018678198 375.2658270621812,-171.71347484885814 377.0959540811437,-173.54360186775804 377.76582706226753,-176.04360186775887 377.0959540812292,-178.54360186778263 375.2658270623293,-180.3737288867451 372.76582706232847,-181.04360186786897 370.2658270623047,-180.37372888683063 368.4357000433422,-178.54360186793073 367.7658270622183,-176.0436018679299 368.43570004325665,-173.54360186790615 370.2658270621565,-171.71347484894366 372.76582706215737,-171.0436018678198" stroke="#ffa500" stroke-linecap="round" stroke-linejoin="round"/></svg>