<?xml version="1.0" ?><!DOCTYPE svg  PUBLIC '-//W3C//DTD SVG 1.1//EN'  'http://www.w3.org/Graphics/SVG/1.1/DTD/svg11.dtd'><svg height="288.000" viewBox="-401.000 -206.000 816.000 288.000" width="816.000" xmlns="http://www.w3.org/2000/svg"><line fill="none" stroke="none" stroke-linecap="round" stroke-width="2.0" x1="0.0" x2="0.0" y1="0.0" y2="0.0"/><polygon fill="none" fill-rule="evenodd" points="0.0,0.0 0.0,0.0 0.0,0.0" stroke-linejoin="round"/><polyline fill="none" points="-369.2308224961684,-146.47783189730805 -366.7308224961442,-147.14770487834562 -364.9006954771809,-148.97783189724507 -364.23082249605613,-151.47783189724592 -364.9006954770937,-153.97783189727014 -366.73082249599315,-155.80795891623342 -369.230822495994,-156.4778318973582 -371.7308224960182,-155.80795891632062 -373.56094951498153,-153.97783189742117 -374.23082249610627,-151.47783189742032 -373.5609495150687,-148.9778318973961 -371.73082249616925,-147.14770487843282 -369.2308224961684,-146.47783189730805" stroke="#00f" stroke-linecap="round" stroke-linejoin="round"/><polyline fill="none" points="-352.79942870774147,-158.35654070825086 -350.29942870771725,-159.02641368928843 -348.46930168875394,-160.85654070818788 -347.7994287076292,-163.35654070818873 -348.46930168866675,-165.85654070821295 -350.2994287075662,-167.68666772717623 -352.7994287075671,-168.356540708301 -355.2994287075913,-167.68666772726343 -357.1295557265546,-165.85654070836398 -357.7994287076794,-163.35654070836313 -357.12955572664185,-160.8565407083389 -355.2994287077424,-159.02641368937563 -352.7994287077415,-158.35654070825086" stroke="#008000" stroke-linecap="round" stroke-linejoin="round"/><polyline fill="none" points="-273.561983411617,-128.4212725189141 -271.0619834115928,-129.09114549995166 -269.2318563926295,-130.9212725188511 -268.5619834115047,-133.42127251885196 -269.2318563925422,-135.92127251887618 -271.0619834114417,-137.75139953783946 -273.56198341144255,-138.42127251896423 -276.06198341146677,-137.75139953792666 -277.8921104304301,-135.9212725190272 -278.5619834115549,-133.42127251902636 -277.89211043051733,-130.92127251900214 -276.06198341161786,-129.09114550003886 -273.561983411617,-128.4212725189141" stroke="#ffa500" stroke-linecap="round" stroke-linejoin="round"/><polyline fill="none" points="-358.07320503521527,-160.42749192328174 -355.57320503519105,-161.0973649043193 -353.74307801622774,-162.92749192321875 -353.07320503510294,-165.4274919232196 -353.7430780161405,-167.92749192324382 -355.57320503503996,-169.75761894220713 -358.0732050350408,-170.4274919233319 -360.57320503506503,-169.75761894229433 -362.40333205402834,-167.92749192339488 -363.07320503515314,-165.42749192339403 -362.4033320541156,-162.92749192336981 -360.5732050352161,-161.0973649044065 -358.07320503521527,-160.42749192328174" stroke="#008000" stroke-linecap="round" stroke-linejoin="round"/><polyline fill="none" points="-365.70011655059636,-136.33698613769994 -363.20011655057215,-137.0068591187375 -361.36998953160884,-138.83698613763696 -360.70011655048404,-141.3369861376378 -361.3699895315216,-143.83698613766202 -363.20011655042106,-145.66711315662533 -365.7001165504219,-146.3369861377501 -368.2001165504461,-145.66711315671253 -370.03024356940944,-143.83698613781308 -370.70011655053423,-141.33698613781223 -370.0302435694967,-138.83698613778802 -368.2001165505972,-137.0068591188247 -365.70011655059636,-136.33698613769994" stroke="#00f" stroke-linecap="round" stroke-linejoin="round"/><polyline fill="none" points="-382.1570735288746,-183.22213667994453 -379.6570735288504,-183.8920096609821 -377.8269465098871,-185.72213667988154 -377.1570735287623,-188.2221366798824 -377.8269465097998,-190.7221366799066 -379.6570735286993,-192.55226369886992 -382.15707352870015,-193.2221366799947 -384.65707352872437,-192.55226369895715 -386.4872005476877,-190.7221366800577 -387.1570735288125,-188.22213668005685 -386.48720054777493,-185.72213668003263 -384.65707352887546,-183.89200966106932 -382.1570735288746,-183.22213667994455" stroke="#00f" stroke-linecap="round" stroke-linejoin="round"/><polyline fill="none" points="378.1773049904665,-165.66384900154642 380.6773049904907,-166.33372198258397 382.507432009454,-168.1638490014834 383.1773049905788,-170.66384900148427 382.5074320095413,-173.1638490015085 380.6773049906418,-174.99397602047182 378.17730499064095,-175.6638490015966 375.67730499061673,-174.99397602055905 373.8471779716534,-173.1638490016596 373.1773049905286,-170.66384900165875 373.84717797156617,-168.1638490016345 375.67730499046564,-166.3337219826712 378.1773049904665,-165.6638490015464" stroke="#ffa500" stroke-linecap="round" stroke-linejoin="round"/><polyline fill="none" points="-357.4809718254768,-145.79076422731615 -354.98097182545257,-146.4606372083537 -353.15084480648926,-148.29076422725313 -352.48097182536446,-150.790764227254 -353.150844806402,-153.29076422727823 -354.9809718253015,-155.12089124624154 -357.48097182530233,-155.79076422736634 -359.98097182532655,-155.1208912463288 -361.81109884428986,-153.29076422742935 -362.48097182541466,-150.7907642274285 -361.8110988443771,-148.29076422740425 -359.9809718254777,-146.46063720844094 -357.48097182547684,-145.79076422731615" stroke="#00f" stroke-linecap="round" stroke-linejoin="round"/><polyline fill="none" points="68.90468392656504,-42.97210094444125 71.40468392658927,-43.6419739254788 73.23481094555258,-45.47210094437825 73.90468392667736,-47.97210094437911 73.23481094563982,-50.47210094440334 71.40468392674038,-52.30222796336665 68.90468392673952,-52.97210094449144 66.4046839267153,-52.30222796345389 64.57455690775198,-50.47210094455444 63.90468392662719,-47.97210094455358 64.57455690766474,-45.472100944529345 66.40468392656419,-43.641973925566035 68.90468392656504,-42.972100944441245" stroke="#ffa500" stroke-linecap="round" stroke-linejoin="round"/><polyline fill="none" points="397.83744119266237,-177.77624005423056 400.3374411926866,-178.4461130352681 402.1675682116499,-180.27624005416754 402.8374411927747,-182.7762400541684 402.16756821173715,-185.27624005419264 400.33744119283773,-187.10636707315595 397.8374411928369,-187.77624005428075 395.33744119281266,-187.1063670732432 393.50731417384935,-185.27624005434376 392.83744119272455,-182.7762400543429 393.5073141737621,-180.27624005431866 395.3374411926615,-178.44611303535535 397.83744119266237,-177.77624005423056" stroke="#00f" stroke-linecap="round" stroke-linejoin="round"/><polyline fill="none" points="-374.3808981743543,-173.69801905768117 -371.88089817433007,-174.3678920387187 -370.05077115536676,-176.19801905761815 -369.38089817424196,-178.698019057619 -370.0507711552795,-181.19801905764325 -371.8808981741789,-183.02814607660656 -374.3808981741798,-183.69801905773136 -376.880898174204,-183.02814607669382 -378.7110251931673,-181.19801905779437 -379.3808981742921,-178.69801905779352 -378.71102519325456,-176.19801905776927 -376.88089817435514,-174.36789203880596 -374.3808981743543,-173.69801905768117" stroke="#00f" stroke-linecap="round" stroke-linejoin="round"/><polyline fill="none" points="-298.6479703846824,-98.19973153881634 -296.1479703846582,-98.86960451985388 -294.3178433656949,-100.69973153875333 -293.6479703845701,-103.19973153875418 -294.31784336560764,-105.69973153877842 -296.14797038450706,-107.52985855774173 -298.6479703845079,-108.19973153886653 -301.14797038453213,-107.52985855782899 -302.97809740349544,-105.69973153892954 -303.64797038462024,-103.19973153892869 -302.9780974035827,-100.69973153890444 -301.1479703846833,-98.86960451994113 -298.6479703846824,-98.19973153881634" stroke="#00f" stroke-linecap="round" stroke-linejoin="round"/><polyline fill="none" points="-327.2102060978301,-158.09080510922334 -324.7102060978059,-158.76067809026088 -322.8800790788426,-160.59080510916033 -322.2102060977178,-163.09080510916118 -322.88007907875533,-165.59080510918542 -324.71020609765475,-167.42093212814873 -327.2102060976556,-168.09080510927353 -329.7102060976798,-167.420932128236 -331.5403331166431,-165.59080510933654 -332.2102060977679,-163.0908051093357 -331.5403331167304,-160.59080510931145 -329.71020609783096,-158.76067809034814 -327.2102060978301,-158.09080510922334" stroke="#ffa500" stroke-linecap="round" stroke-linejoin="round"/><polyline fill="none" points="-279.71888612280856,-55.69606028690475 -277.21888612278434,-56.36593326794229 -275.38875910382103,-58.19606028684173 -274.71888612269623,-60.69606028684259 -275.3887591037338,-63.196060286866825 -277.2188861226332,-65.02618730583015 -279.71888612263405,-65.69606028695495 -282.21888612265826,-65.0261873059174 -284.0490131416216,-63.196060287017964 -284.71888612274637,-60.696060287017104 -284.0490131417088,-58.19606028699286 -282.2188861228094,-56.365933268029536 -279.71888612280856,-55.69606028690473" stroke="#ffa500" stroke-linecap="round" stroke-linejoin="round"/><polyline fill="none" points="-278.9234495168242,-121.82388336198049 -276.42344951679996,-122.49375634301803 -274.59332249783665,-124.32388336191747 -273.92344951671186,-126.82388336191832 -274.5933224977494,-129.32388336194256 -276.4234495166488,-131.15401038090587 -278.92344951664967,-131.82388336203067 -281.4234495166739,-131.15401038099313 -283.2535765356372,-129.32388336209368 -283.923449516762,-126.82388336209283 -283.25357653572445,-124.32388336206859 -281.42344951682503,-122.49375634310526 -278.9234495168242,-121.82388336198045" stroke="#ffa500" stroke-linecap="round" stroke-linejoin="round"/><polyline fill="none" points="-378.5177562224662,-180.96367997274834 -376.01775622244196,-181.63355295378588 -374.18762920347865,-183.46367997268533 -373.51775622235385,-185.96367997268618 -374.1876292033914,-188.46367997271042 -376.0177562222908,-190.29380699167376 -378.51775622229167,-190.96367997279856 -381.0177562223159,-190.29380699176102 -382.8478832412792,-188.46367997286157 -383.517756222404,-185.96367997286072 -382.84788324136645,-183.46367997283647 -381.017756222467,-181.63355295387314 -378.5177562224662,-180.96367997274834" stroke="#00f" stroke-linecap="round" stroke-linejoin="round"/><polyline fill="none" points="-310.4408657102613,-135.45388488998614 -307.94086571023706,-136.12375787102368 -306.11073869127375,-137.95388488992313 -305.44086571014896,-140.45388488992398 -306.1107386911865,-142.95388488994823 -307.9408657100859,-144.78401190891157 -310.44086571008677,-145.45388489003636 -312.940865710111,-144.78401190899882 -314.7709927290743,-142.95388489009937 -315.4408657101991,-140.45388489009852 -314.77099272916155,-137.95388489007428 -312.94086571026213,-136.12375787111094 -310.4408657102613,-135.45388488998614" stroke="#00f" stroke-linecap="round" stroke-linejoin="round"/><polyline fill="none" points="-297.4095202880629,-52.37956165316707 -294.9095202880386,-53.0494346342046 -293.0793932690753,-54.879561653104034 -292.4095202879505,-57.37956165310489 -293.07939326898804,-59.87956165312914 -294.90952028788746,-61.70968867209247 -297.4095202878883,-62.37956165321728 -299.9095202879126,-61.70968867217975 -301.7396473068759,-59.87956165328032 -302.4095202880007,-57.37956165327946 -301.73964730696315,-54.879561653255216 -299.90952028806373,-53.049434634291885 -297.4095202880629,-52.37956165316707" stroke="#ffa500" stroke-linecap="round" stroke-linejoin="round"/><polyline fill="none" points="-384.5114978221973,-185.15652290739618 -382.01149782217306,-185.8263958884337 -380.18137080320975,-187.65652290733314 -379.51149782208495,-190.156522907334 -380.1813708031225,-192.65652290735824 -382.0114978220219,-194.48664992632158 -384.51149782202276,-195.1565229074464 -387.01149782204703,-194.4866499264089 -388.84162484101034,-192.65652290750947 -389.51149782213514,-190.15652290750862 -388.8416248410976,-187.65652290748437 -387.0114978221982,-185.82639588852103 -384.5114978221973,-185.1565229073962" stroke="#00f" stroke-linecap="round" stroke-linejoin="round"/><polyline fill="none" points="38.21895907533019,-52.634694282007914 40.718959075354434,-53.304567263045435 42.549086094317765,-55.13469428194487 43.218959075442584,-57.63469428194573 42.54908609440506,-60.13469428196997 40.71895907550563,-61.9648213009333 38.21895907550477,-62.63469428205812 35.71895907548052,-61.9648213010206 33.88883205651719,-60.13469428212117 33.21895907539237,-57.63469428212031 33.88883205642989,-55.134694282096056 35.71895907532932,-53.304567263132725 38.21895907533018,-52.63469428200791" stroke="#00f" stroke-linecap="round" stroke-linejoin="round"/><polyline fill="none" points="-307.9075953296104,-118.97214930649828 -305.4075953295861,-119.64202228753581 -303.5774683106228,-121.47214930643524 -302.907595329498,-123.9721493064361 -303.57746831053555,-126.47214930646034 -305.40759532943497,-128.30227632542366 -307.9075953294358,-128.9721493065485 -310.4075953294601,-128.30227632551097 -312.2377223484234,-126.47214930661154 -312.9075953295482,-123.97214930661069 -312.23772234851066,-121.47214930658645 -310.40759532961124,-119.6420222876231 -307.9075953296104,-118.97214930649828" stroke="#ffa500" stroke-linecap="round" stroke-linejoin="round"/><polyline fill="none" points="-342.9874083894729,-149.16320195050966 -340.4874083894486,-149.83307493154717 -338.6572813704853,-151.6632019504466 -337.9874083893605,-154.16320195044744 -338.65728137039804,-156.6632019504717 -340.48740838929746,-158.49332896943503 -342.9874083892983,-159.16320195055985 -345.4874083893226,-158.49332896952234 -347.31753540828595,-156.66320195062292 -347.98740838941075,-154.16320195062207 -347.3175354083732,-151.66320195059782 -345.4874083894738,-149.83307493163448 -342.98740838947293,-149.16320195050966" stroke="#ffa500" stroke-linecap="round" stroke-linejoin="round"/><polyline fill="none" points="-261.137123025364,-118.09810594399379 -258.63712302533975,-118.7679789250313 -256.8069960063764,-120.59810594393073 -256.1371230252516,-123.09810594393159 -256.8069960062891,-125.59810594395584 -258.63712302518854,-127.42823296291918 -261.1371230251894,-128.09810594404402 -263.63712302521367,-127.42823296300651 -265.46725004417704,-125.59810594410708 -266.1371230253019,-123.09810594410622 -265.46725004426435,-120.59810594408196 -263.63712302536493,-118.76797892511863 -261.1371230253641,-118.0981059439938" stroke="#ffa500" stroke-linecap="round" stroke-linejoin="round"/><polyline fill="none" points="-368.7872689854232,-148.07587413682154 -366.28726898539895,-148.74574711785905 -364.4571419664356,-150.57587413675847 -363.78726898531073,-153.07587413675932 -364.4571419663482,-155.57587413678357 -366.28726898524764,-157.4060011557469 -368.7872689852485,-158.07587413687173 -371.28726898527276,-157.40600115583422 -373.1173960042361,-155.5758741369348 -373.787268985361,-153.07587413693395 -373.1173960043235,-150.5758741369097 -371.2872689854241,-148.74574711794637 -368.7872689854232,-148.07587413682154" stroke="#00f" stroke-linecap="round" stroke-linejoin="round"/><polyline fill="none" points="-194.83011922648186,54.46931918604852 -192.3301192264576,53.79944620501101 -190.49999220749427,51.96931918611158 -189.83011922636945,49.469319186110724 -190.49999220740696,46.969319186086466 -192.33011922630638,45.13919216712312 -194.83011922630723,44.46931918599829 -197.33011922633148,45.1391921670358 -199.16024624529481,46.96931918593523 -199.83011922641964,49.46931918593609 -199.16024624538213,51.969319185960344 -197.3301192264827,53.79944620492369 -194.83011922648186,54.46931918604852" stroke="#ffa500" stroke-linecap="round" stroke-linejoin="round"/><polyline fill="none" points="-279.3883145115398,-112.14492831008143 -276.88831451151555,-112.81480129111894 -275.0581874925522,-114.64492831001836 -274.3883145114273,-117.14492831001921 -275.0581874924648,-119.64492831004347 -276.88831451136423,-121.47505532900682 -279.3883145113651,-122.14492831013166 -281.88831451138935,-121.47505532909415 -283.7184415303527,-119.64492831019473 -284.3883145114776,-117.14492831019388 -283.7184415304401,-114.64492831016962 -281.88831451154067,-112.81480129120627 -279.3883145115398,-112.14492831008143" stroke="#ffa500" stroke-linecap="round" stroke-linejoin="round"/><polyline fill="none" points="374.3901018548761,-173.28451518447895 376.89010185490037,-173.95438816551646 378.72022887386373,-175.78451518441588 379.3901018549886,-178.28451518441673 378.7202288739511,-180.78451518444098 376.8901018550517,-182.61464220340432 374.39010185505083,-183.28451518452914 371.89010185502656,-182.61464220349163 370.0599748360632,-180.7845151845922 369.39010185493834,-178.28451518459136 370.0599748359758,-175.7845151845671 371.89010185487524,-173.95438816560377 374.3901018548761,-173.28451518447895" stroke="#ffa500" stroke-linecap="round" stroke-linejoin="round"/><polyline fill="none" points="-300.3916133965891,-153.68129436278917 -297.8916133965648,-154.3511673438267 -296.06148637760145,-156.1812943627261 -295.3916133964766,-158.68129436272696 -296.0614863775141,-161.1812943627512 -297.8916133964135,-163.01142138171454 -300.39161339641436,-163.68129436283937 -302.89161339643863,-163.01142138180185 -304.721740415402,-161.18129436290243 -305.39161339652685,-158.68129436290158 -304.72174041548936,-156.1812943628773 -302.89161339658995,-154.35116734391394 -300.3916133965891,-153.6812943627891" stroke="#ffa500" stroke-linecap="round" stroke-linejoin="round"/><polyline fill="none" points="-211.76039898627977,-74.87351676271682 -209.2603989862555,-75.54338974375432 -207.43027196729213,-77.37351676265374 -206.76039898616727,-79.87351676265459 -207.4302719672048,-82.37351676267885 -209.2603989861042,-84.2036437816422 -211.76039898610506,-84.87351676276704 -214.26039898612933,-84.20364378172954 -216.0905260050927,-82.37351676283012 -216.76039898621755,-79.87351676282927 -216.09052600518004,-77.37351676280501 -214.26039898628062,-75.54338974384166 -211.76039898627977,-74.87351676271682" stroke="#ffa500" stroke-linecap="round" stroke-linejoin="round"/><polyline fill="none" points="-331.1421740550998,-126.80066106245806 -328.64217405507554,-127.47053404349556 -326.8120470361122,-129.30066106239497 -326.1421740549873,-131.80066106239582 -326.8120470360248,-134.3006610624201 -328.6421740549242,-136.13078808138346 -331.1421740549251,-136.8006610625083 -333.64217405494935,-136.13078808147083 -335.4723010739127,-134.3006610625714 -336.1421740550376,-131.80066106257055 -335.4723010740001,-129.30066106254628 -333.64217405510067,-127.47053404358293 -331.1421740550998,-126.80066106245809" stroke="#ffa500" stroke-linecap="round" stroke-linejoin="round"/><polyline fill="none" points="-258.71578208658076,-111.00169462717359 -256.2157820865565,-111.67156760821109 -254.38565506759312,-113.50169462711051 -253.71578208646827,-116.00169462711136 -254.38565506750575,-118.50169462713562 -256.21578208640517,-120.33182164609897 -258.715782086406,-121.00169462722381 -261.2157820864303,-120.33182164618631 -263.04590910539366,-118.5016946272869 -263.7157820865185,-116.00169462728604 -263.04590910548103,-113.50169462726178 -261.2157820865816,-111.67156760829842 -258.71578208658076,-111.00169462717356" stroke="#ffa500" stroke-linecap="round" stroke-linejoin="round"/><polyline fill="none" points="-307.3776828758552,-134.5588322349419 -304.87768287583094,-135.22870521597937 -303.0475558568676,-137.0588322348788 -302.3776828757427,-139.55883223487965 -303.0475558567802,-142.05883223490392 -304.8776828756796,-143.88895925386728 -307.3776828756805,-144.55883223499214 -309.87768287570475,-143.88895925395465 -311.7078098946681,-142.05883223505523 -312.37768287579297,-139.55883223505438 -311.7078098947555,-137.0588322350301 -309.87768287585607,-135.22870521606674 -307.3776828758552,-134.5588322349419" stroke="#00f" stroke-linecap="round" stroke-linejoin="round"/><polyline fill="none" points="-300.91906970646363,-56.045841679702555 -298.41906970643936,-56.71571466074005 -296.588942687476,-58.54584167963946 -295.91906970635114,-61.04584167964032 -296.5889426873886,-63.54584167966458 -298.41906970628804,-65.37596869862794 -300.9190697062889,-66.0458416797528 -303.41906970631317,-65.37596869871531 -305.24919672527653,-63.5458416798159 -305.9190697064014,-61.04584167981504 -305.2491967253639,-58.545841679790776 -303.4190697064645,-56.71571466082741 -300.91906970646363,-56.045841679702555" stroke="#00f" stroke-linecap="round" stroke-linejoin="round"/><polyline fill="none" points="-178.46710288937442,17.691679068132622 -175.96710288935014,17.021806087095133 -174.13697587038678,15.191679068195722 -173.46710288926192,12.691679068194865 -174.1369758702994,10.191679068170599 -175.96710288919883,8.361552049207232 -178.46710288919968,7.691679068082376 -180.96710288922395,8.361552049119865 -182.79722990818732,10.191679068019276 -183.46710288931217,12.691679068020132 -182.7972299082747,15.191679068044401 -180.96710288937527,17.02180608700777 -178.46710288937442,17.69167906813263" stroke="#ffa500" stroke-linecap="round" stroke-linejoin="round"/><polyline fill="none" points="-167.60722300187217,27.56647410803082 -165.1072230018479,26.896601126993332 -163.27709598288453,25.06647410809392 -162.60722300175968,22.56647410809306 -163.27709598279716,20.066474108068793 -165.10722300169658,18.236347089105422 -167.60722300169743,17.566474107980564 -170.1072230017217,18.23634708901805 -171.93735002068507,20.06647410791746 -172.60722300180993,22.56647410791832 -171.93735002077244,25.06647410794259 -170.10722300187302,26.89660112690596 -167.60722300187217,27.56647410803082" stroke="#ffa500" stroke-linecap="round" stroke-linejoin="round"/><polyline fill="none" points="381.9727028010049,-180.56048640001882 384.4727028010292,-181.2303593810563 386.30282981999255,-183.06048639995572 386.9727028011174,-185.56048639995657 386.3028298200799,-188.06048639998085 384.4727028011805,-189.8906134189442 381.97270280117965,-190.56048640006907 379.4727028011554,-189.89061341903158 377.642575782192,-188.06048640013216 376.97270280106716,-185.5604864001313 377.64257578210464,-183.06048640010704 379.47270280100406,-181.23035938114367 381.9727028010049,-180.56048640001882" stroke="#ffa500" stroke-linecap="round" stroke-linejoin="round"/><polyline fill="none" points="-280.04292747744853,-48.25498246400813 -277.54292747742426,-48.924855445045615 -275.7128004584609,-50.754982463945026 -275.04292747733604,-53.254982463945886 -275.7128004583735,-55.75498246397016 -277.54292747727294,-57.58510948293353 -280.0429274772738,-58.2549824640584 -282.54292747729806,-57.585109483020915 -284.37305449626143,-55.754982464121504 -285.0429274773863,-53.254982464120644 -284.3730544963488,-50.75498246409637 -282.5429274774494,-48.924855445133 -280.04292747744853,-48.25498246400813" stroke="#ffa500" stroke-linecap="round" stroke-linejoin="round"/><polyline fill="none" points="56.075771630677,-45.15606175541525 58.575771630701276,-45.82593473645273 60.40589864966465,-47.656061755352134 61.07577163078952,-50.156061755352994 60.40589864975204,-52.656061755377266 58.575771630852635,-54.48618877434065 56.075771630851776,-55.156061755465515 53.575771630827504,-54.48618877442804 51.74564461186412,-52.65606175552863 51.075771630739254,-50.15606175552777 51.74564461177673,-47.6560617555035 53.57577163067614,-45.82593473654012 56.075771630676996,-45.15606175541525" stroke="#ffa500" stroke-linecap="round" stroke-linejoin="round"/><polyline fill="none" points="384.6406309254443,-167.03675033420265 387.1406309254686,-167.70662331524014 388.97075794443197,-169.53675033413955 389.6406309255568,-172.0367503341404 388.97075794451933,-174.53675033416468 387.1406309256199,-176.36687735312805 384.64063092561906,-177.03675033425293 382.1406309255948,-176.36687735321544 380.3105039066314,-174.53675033431603 379.64063092550657,-172.03675033431517 380.31050390654406,-169.5367503342909 382.1406309254435,-167.7066233153275 384.6406309254443,-167.03675033420262" stroke="#ffa500" stroke-linecap="round" stroke-linejoin="round"/><polyline fill="none" points="67.36720851401942,-32.899998380986766 69.8672085140437,-33.569871362024244 71.69733553300708,-35.39999838092365 72.36720851413195,-37.89999838092451 71.69733553309447,-40.39999838094879 69.86720851419507,-42.23012539991217 67.36720851419422,-42.899998381037044 64.86720851416995,-42.230125399999565 63.037081495206564,-40.39999838110016 62.36720851408169,-37.8999983810993 63.03708149511916,-35.39999838107502 64.86720851401856,-33.569871362111634 67.36720851401941,-32.89999838098676" stroke="#ffa500" stroke-linecap="round" stroke-linejoin="round"/><polyline fill="none" points="-248.61353956823356,-123.14165646953685 -246.1135395682093,-123.81152945057433 -244.2834125492459,-125.64165646947373 -243.613539568121,-128.14165646947458 -244.2834125491585,-130.64165646949886 -246.1135395680579,-132.47178348846225 -248.61353956805874,-133.14165646958713 -251.113539568083,-132.47178348854965 -252.9436665870464,-130.64165646965026 -253.6135395681713,-128.1416564696494 -252.9436665871338,-125.64165646962512 -251.11353956823442,-123.81152945066174 -248.61353956823356,-123.14165646953685" stroke="#ffa500" stroke-linecap="round" stroke-linejoin="round"/><polyline fill="none" points="-311.97922173791045,-133.82477188685294 -309.4792217378862,-134.49464486789043 -307.6490947189228,-136.32477188678982 -306.97922173779796,-138.82477188679067 -307.64909471883544,-141.32477188681494 -309.47922173773486,-143.15489890577834 -311.9792217377357,-143.82477188690322 -314.47922173776,-143.15489890586576 -316.30934875672335,-141.32477188696637 -316.9792217378482,-138.82477188696552 -316.3093487568107,-136.32477188694125 -314.4792217379113,-134.49464486797785 -311.97922173791045,-133.82477188685297" stroke="#ffa500" stroke-linecap="round" stroke-linejoin="round"/><polyline fill="none" points="-247.5097278352191,-118.14819768730311 -245.00972783519484,-118.81807066834058 -243.17960081623144,-120.64819768723999 -242.50972783510656,-123.14819768724085 -243.17960081614402,-125.64819768726514 -245.0097278350434,-127.47832470622853 -247.50972783504426,-128.14819768735342 -250.00972783506853,-127.47832470631595 -251.83985485403193,-125.64819768741654 -252.5097278351568,-123.14819768741569 -251.83985485411935,-120.6481976873914 -250.00972783521996,-118.818070668428 -247.5097278352191,-118.14819768730312" stroke="#ffa500" stroke-linecap="round" stroke-linejoin="round"/><polyline fill="none" points="-364.0611155029115,-146.5529507130391 -361.5611155028872,-147.22282369407657 -359.73098848392385,-149.05295071297596 -359.06111550279894,-151.5529507129768 -359.7309884838364,-154.05295071300108 -361.56111550273584,-155.88307773196448 -364.0611155027367,-156.55295071308936 -366.56111550276097,-155.8830777320519 -368.39124252172434,-154.0529507131525 -369.06111550284925,-151.55295071315166 -368.39124252181176,-149.0529507131274 -366.56111550291234,-147.222823694164 -364.0611155029115,-146.5529507130391" stroke="#008000" stroke-linecap="round" stroke-linejoin="round"/><polyline fill="none" points="-303.4285596702012,-88.65918063933012 -300.9285596701769,-89.32905362036757 -299.0984326512135,-91.15918063926698 -298.4285596700886,-93.65918063926784 -299.0984326511261,-96.15918063929213 -300.9285596700255,-97.98930765825553 -303.42855967002635,-98.65918063938041 -305.9285596700506,-97.98930765834295 -307.75868668901404,-96.15918063944355 -308.42855967013895,-93.65918063944268 -307.75868668910147,-91.1591806394184 -305.92855967020205,-89.329053620455 -303.4285596702012,-88.65918063933012" stroke="#ffa500" stroke-linecap="round" stroke-linejoin="round"/><polyline fill="none" points="-280.8929169282129,-104.77237046926152 -278.39291692818864,-105.44224345029897 -276.5627899092252,-107.27237046919838 -275.8929169281003,-109.77237046919925 -276.5627899091378,-112.27237046922353 -278.3929169280372,-114.10249748818693 -280.89291692803806,-114.77237046931182 -283.39291692806233,-114.10249748827437 -285.22304394702576,-112.27237046937498 -285.89291692815067,-109.77237046937411 -285.2230439471132,-107.27237046934982 -283.39291692821377,-105.44224345038643 -280.8929169282129,-104.77237046926153" stroke="#ffa500" stroke-linecap="round" stroke-linejoin="round"/><polyline fill="none" points="-222.09434327825173,-91.91917332355581 -219.59434327822743,-92.58904630459327 -217.76421625926403,-94.41917332349266 -217.09434327813915,-96.91917332349352 -217.7642162591766,-99.41917332351781 -219.594343278076,-101.2493003424812 -222.09434327807685,-101.9191733236061 -224.59434327810115,-101.24930034256865 -226.42447029706454,-99.41917332366926 -227.09434327818943,-96.91917332366839 -226.42447029715197,-94.4191733236441 -224.59434327825258,-92.58904630468069 -222.09434327825173,-91.9191733235558" stroke="#ffa500" stroke-linecap="round" stroke-linejoin="round"/><polyline fill="none" points="-306.8637457283148,-74.68184264881468 -304.36374572829055,-75.35171562985214 -302.53361870932713,-77.18184264875153 -301.8637457282022,-79.6818426487524 -302.53361870923965,-82.18184264877668 -304.36374572813907,-84.01196966774009 -306.8637457281399,-84.68184264886499 -309.3637457281642,-84.01196966782753 -311.1938727471276,-82.18184264892814 -311.8637457282525,-79.68184264892727 -311.1938727472151,-77.18184264890299 -309.3637457283157,-75.35171562993958 -306.8637457283148,-74.68184264881468" stroke="#00f" stroke-linecap="round" stroke-linejoin="round"/><polyline fill="none" points="-343.1253127135807,-110.41087889706621 -340.6253127135564,-111.08075187810367 -338.795185694593,-112.91087889700306 -338.1253127134681,-115.41087889700393 -338.7951856945055,-117.91087889702821 -340.6253127134049,-119.74100591599162 -343.1253127134058,-120.41087889711652 -345.62531271343005,-119.74100591607906 -347.4554397323935,-117.91087889717967 -348.1253127135184,-115.4108788971788 -347.45543973248095,-112.91087889715452 -345.62531271358154,-111.08075187819111 -343.1253127135807,-110.41087889706621" stroke="#00f" stroke-linecap="round" stroke-linejoin="round"/><polyline fill="none" points="-341.83736795026607,-117.95664213412967 -339.3373679502418,-118.62651511516712 -337.5072409312784,-120.45664213406651 -336.83736795015346,-122.95664213406737 -337.5072409311909,-125.45664213409165 -339.3373679500903,-127.28676915305506 -341.83736795009116,-127.95664213417996 -344.33736795011544,-127.2867691531425 -346.16749496907886,-125.45664213424311 -346.83736795020377,-122.95664213424226 -346.16749496916634,-120.45664213421797 -344.3373679502669,-118.62651511525456 -341.83736795026607,-117.95664213412967" stroke="#ffa500" stroke-linecap="round" stroke-linejoin="round"/><polyline fill="none" points="-209.1497938295242,-66.549758308649 -206.6497938294999,-67.21963128968645 -204.8196668105365,-69.04975830858584 -204.14979382941158,-71.54975830858669 -204.81966681044904,-74.04975830861098 -206.64979382934843,-75.87988532757439 -209.14979382934928,-76.5497583086993 -211.64979382937358,-75.87988532766185 -213.479920848337,-74.04975830876246 -214.1497938294619,-71.5497583087616 -213.47992084842446,-69.0497583087373 -211.64979382952507,-67.21963128977389 -209.1497938295242,-66.54975830864898" stroke="#ffa500" stroke-linecap="round" stroke-linejoin="round"/><polyline fill="none" points="-167.60325396471467,18.5799799247675 -165.10325396469037,17.910106943730053 -163.27312694572694,16.079979924830663 -162.60325396460203,13.579979924829804 -163.2731269456395,11.07997992480551 -165.10325396453888,9.249852905842097 -167.60325396453973,8.57997992471719 -170.10325396456403,9.249852905754636 -171.93338098352746,11.079979924654024 -172.60325396465237,13.579979924654884 -171.9333809836149,16.07997992467918 -170.10325396471552,17.910106943642592 -167.60325396471467,18.5799799247675" stroke="#ffa500" stroke-linecap="round" stroke-linejoin="round"/><polyline fill="none" points="-326.0384304031664,-122.128251802949 -323.5384304031421,-122.79812478398644 -321.7083033841787,-124.62825180288583 -321.0384304030538,-127.1282518028867 -321.7083033840912,-129.628251802911 -323.53843040299057,-131.45837882187442 -326.0384304029914,-132.12825180299933 -328.5384304030157,-131.45837882196187 -330.3685574219791,-129.62825180306248 -331.03843040310403,-127.12825180306163 -330.3685574220666,-124.62825180303733 -328.53843040316724,-122.79812478407392 -326.0384304031664,-122.12825180294901" stroke="#00f" stroke-linecap="round" stroke-linejoin="round"/><polyline fill="none" points="-362.8664711828475,-148.6707201263863 -360.3664711828232,-149.34059310742373 -358.5363441638598,-151.17072012632312 -357.86647118273487,-153.67072012632397 -358.5363441637723,-156.17072012634827 -360.36647118267166,-158.0008471453117 -362.8664711826725,-158.6707201264366 -365.3664711826968,-158.00084714539918 -367.1965982016602,-156.1707201264998 -367.8664711827851,-153.67072012649894 -367.1965982017477,-151.17072012647463 -365.36647118284833,-149.3405931075112 -362.8664711828475,-148.6707201263863" stroke="#00f" stroke-linecap="round" stroke-linejoin="round"/><polyline fill="none" points="-186.9134367452382,69.52717668883285 -184.4134367452139,68.85730370779541 -182.58330972625046,67.02717668889602 -181.91343674512555,64.52717668889517 -182.58330972616298,62.02717668887087 -184.41343674506237,60.19704966990744 -186.91343674506322,59.527176688782525 -189.41343674508752,60.19704966981996 -191.24356376405095,62.027176688719344 -191.91343674517586,64.5271766887202 -191.24356376413843,67.0271766887445 -189.41343674523904,68.85730370770793 -186.9134367452382,69.52717668883284" stroke="#ffa500" stroke-linecap="round" stroke-linejoin="round"/><polyline fill="none" points="-327.03956027220147,-110.49582882315369 -324.5395602721772,-111.16570180419113 -322.7094332532138,-112.99582882309052 -322.03956027208886,-115.49582882309139 -322.7094332531263,-117.99582882311569 -324.53956027202565,-119.82595584207911 -327.0395602720265,-120.49582882320404 -329.53956027205084,-119.8259558421666 -331.36968729101426,-117.9958288232672 -332.03956027213917,-115.49582882326634 -331.36968729110174,-112.99582882324204 -329.5395602722024,-111.16570180427861 -327.0395602722015,-110.49582882315369" stroke="#ffa500" stroke-linecap="round" stroke-linejoin="round"/><polyline fill="none" points="-367.1657399100389,-158.093610224464 -364.66573991001457,-158.76348320550142 -362.83561289105114,-160.5936102244008 -362.16573990992623,-163.09361022440166 -362.83561289096366,-165.59361022442596 -364.665739909863,-167.42373724338938 -367.1657399098639,-168.0936102245143 -369.6657399098882,-167.42373724347686 -371.4958669288516,-165.59361022457747 -372.16573990997654,-163.09361022457662 -371.4958669289391,-160.59361022455232 -369.66573991003975,-158.7634832055889 -367.1657399100389,-158.093610224464" stroke="#f00" stroke-linecap="round" stroke-linejoin="round"/><polyline fill="none" points="-336.6131710421093,-140.0606250503622 -334.11317104208496,-140.73049803139963 -332.28304402312153,-142.56062505029902 -331.6131710419966,-145.06062505029988 -332.28304402303405,-147.56062505032418 -334.1131710419334,-149.3907520692876 -336.61317104193427,-150.0606250504125 -339.1131710419586,-149.39075206937508 -340.943298060922,-147.5606250504757 -341.61317104204693,-145.06062505047484 -340.9432980610095,-142.56062505045054 -339.11317104211014,-140.73049803148712 -336.6131710421093,-140.0606250503622" stroke="#008000" stroke-linecap="round" stroke-linejoin="round"/><polyline fill="none" points="-305.64393201698175,-66.47570351894402 -303.1439320169574,-67.14557649998144 -301.313804997994,-68.97570351888082 -300.6439320168691,-71.47570351888169 -301.3138049979065,-73.97570351890599 -303.1439320168059,-75.80583053786941 -305.64393201680673,-76.47570351899434 -308.14393201683106,-75.80583053795691 -309.9740590357945,-73.97570351905753 -310.6439320169194,-71.47570351905668 -309.97405903588196,-68.97570351903238 -308.1439320169826,-67.14557650006896 -305.64393201698175,-66.47570351894403" stroke="#ffa500" stroke-linecap="round" stroke-linejoin="round"/><polyline fill="none" points="-295.173996802315,-80.0932639898299 -292.6739968022907,-80.76313697086732 -290.84386978332725,-82.5932639897667 -290.17399680220234,-85.09326398976756 -290.84386978323977,-87.59326398979186 -292.67399680213913,-89.4233910087553 -295.17399680214,-90.09326398988023 -297.6739968021643,-89.4233910088428 -299.50412382112773,-87.59326398994342 -300.17399680225265,-85.09326398994256 -299.5041238212152,-82.59326398991826 -297.67399680231586,-80.76313697095482 -295.173996802315,-80.0932639898299" stroke="#ffa500" stroke-linecap="round" stroke-linejoin="round"/><polyline fill="none" points="-214.78567739081564,41.18457096498982 -212.28567739079134,40.51469798395239 -210.4555503718279,38.68457096505301 -209.78567739070297,36.18457096505215 -210.4555503717404,33.684570965027845 -212.2856773906398,31.85444394606441 -214.78567739064064,31.18457096493948 -217.28567739066494,31.854443945976904 -219.11580440962837,33.68457096487628 -219.7856773907533,36.18457096487714 -219.11580440971588,38.68457096490145 -217.28567739081652,40.514697983864885 -214.78567739081566,41.18457096498982" stroke="#00f" stroke-linecap="round" stroke-linejoin="round"/><polyline fill="none" points="-336.281523310466,-102.69693339539313 -333.7815233104417,-103.36680637643056 -331.95139629147826,-105.19693339532994 -331.28152331035335,-107.6969333953308 -331.9513962913908,-110.1969333953551 -333.78152331029014,-112.02706041431854 -336.281523310291,-112.69693339544348 -338.7815233103153,-112.02706041440605 -340.61165032927875,-110.19693339550668 -341.28152331040366,-107.69693339550582 -340.6116503293662,-105.19693339548151 -338.78152331046687,-103.36680637651807 -336.281523310466,-102.69693339539313" stroke="#00f" stroke-linecap="round" stroke-linejoin="round"/><polyline fill="none" points="-216.06958405874846,-68.9747282449633 -213.56958405872416,-69.64460122600073 -211.73945703976074,-71.4747282449001 -211.0695840586358,-73.97472824490097 -211.73945703967323,-76.47472824492529 -213.5695840585726,-78.30485526388873 -216.06958405857344,-78.97472824501367 -218.56958405859774,-78.30485526397624 -220.3997110775612,-76.47472824507686 -221.06958405868613,-73.974728245076 -220.3997110776487,-71.47472824505168 -218.56958405874934,-69.64460122608824 -216.0695840587485,-68.9747282449633" stroke="#ffa500" stroke-linecap="round" stroke-linejoin="round"/><polyline fill="none" points="-311.48828494070597,-128.65056046979245 -308.98828494068164,-129.32043345082988 -307.1581579217182,-131.15056046972924 -306.4882849405933,-133.6505604697301 -307.15815792163073,-136.1505604697544 -308.9882849405301,-137.98068748871785 -311.48828494053095,-138.6505604698428 -313.9882849405553,-137.98068748880536 -315.8184119595187,-136.150560469906 -316.4882849406436,-133.65056046990514 -315.8184119596062,-131.15056046988084 -313.9882849407068,-129.3204334509174 -311.48828494070597,-128.65056046979245" stroke="#00f" stroke-linecap="round" stroke-linejoin="round"/><polyline fill="none" points="-300.8568057619196,-146.7399883131225 -298.35680576189526,-147.40986129415992 -296.52667874293184,-149.23998831305929 -295.85680576180687,-151.73998831306014 -296.5266787428443,-154.23998831308444 -298.35680576174366,-156.0701153320479 -300.8568057617445,-156.73998831317283 -303.35680576176884,-156.0701153321354 -305.18693278073226,-154.23998831323604 -305.85680576185723,-151.7399883132352 -305.1869327808198,-149.2399883132109 -303.35680576192044,-147.40986129424743 -300.8568057619196,-146.7399883131225" stroke="#ffa500" stroke-linecap="round" stroke-linejoin="round"/><polyline fill="none" points="-283.13551069947397,-71.63178769554018 -280.63551069944964,-72.3016606765776 -278.8053836804862,-74.13178769547697 -278.13551069936125,-76.63178769547784 -278.8053836803987,-79.13178769550215 -280.63551069929804,-80.9619147144656 -283.1355106992989,-81.63178769559055 -285.6355106993232,-80.96191471455313 -287.46563771828664,-79.13178769565376 -288.1355106994116,-76.63178769565289 -287.4656377183742,-74.13178769562857 -285.6355106994748,-72.30166067666512 -283.13551069947397,-71.63178769554018" stroke="#ffa500" stroke-linecap="round" stroke-linejoin="round"/><polyline fill="none" points="-303.61711072918814,-140.63330773665606 -301.1171107291638,-141.30318071769346 -299.2869837102004,-143.13330773659283 -298.6171107290754,-145.63330773659368 -299.28698371011285,-148.133307736618 -301.1171107290122,-149.96343475558146 -303.61711072901306,-150.6333077367064 -306.1171107290374,-149.963434755669 -307.9472377480008,-148.13330773676964 -308.6171107291258,-145.63330773676878 -307.94723774808836,-143.13330773674446 -306.117110729189,-141.303180717781 -303.61711072918814,-140.63330773665606" stroke="#ffa500" stroke-linecap="round" stroke-linejoin="round"/><polyline fill="none" points="-377.57963061984066,-164.4956646395232 -375.0796306198163,-165.1655376205606 -373.2495036008529,-166.99566463945996 -372.57963061972794,-169.4956646394608 -373.24950360076537,-171.99566463948514 -375.0796306196647,-173.8257916584486 -377.5796306196656,-174.49566463957353 -380.0796306196899,-173.82579165853613 -381.90975763865333,-171.99566463963677 -382.5796306197783,-169.49566463963592 -381.90975763874087,-166.9956646396116 -380.0796306198415,-165.16553762064814 -377.57963061984066,-164.4956646395232" stroke="#00f" stroke-linecap="round" stroke-linejoin="round"/><polyline fill="none" points="-262.12125279831145,-30.892731552883482 -259.6212527982871,-31.56260453392089 -257.79112577932364,-33.39273155282026 -257.12125279819867,-35.89273155282112 -257.7911257792361,-38.39273155284544 -259.62125279813546,-40.22285857180889 -262.1212527981363,-40.892731552933846 -264.62125279816064,-40.22285857189644 -266.4513798171241,-38.39273155299707 -267.1212527982491,-35.89273155299621 -266.45137981721166,-33.39273155297189 -264.6212527983123,-31.562604534008432 -262.12125279831145,-30.89273155288348" stroke="#ffa500" stroke-linecap="round" stroke-linejoin="round"/><polyline fill="none" points="-375.09952663227995,-177.8487213520985 -372.5995266322556,-178.5185943331359 -370.76939961329214,-180.34872135203526 -370.09952663216717,-182.8487213520361 -370.7693996132046,-185.34872135206044 -372.59952663210396,-187.1788483710239 -375.0995266321048,-187.84872135214886 -377.59952663212914,-187.17884837111146 -379.4296536510926,-185.3487213522121 -380.0995266322176,-182.84872135221124 -379.42965365118016,-180.3487213521869 -377.5995266322808,-178.51859433322346 -375.09952663227995,-177.8487213520985" stroke="#ffa500" stroke-linecap="round" stroke-linejoin="round"/><polyline fill="none" points="62.29352206613948,-33.93461949981872 64.7935220661638,-34.60449248085612 66.62364908512725,-36.434619499755485 67.29352206625221,-38.934619499756344 66.62364908521481,-41.434619499780666 64.79352206631545,-43.264746518744126 62.29352206631459,-43.934619499869086 59.793522066290265,-43.264746518831686 57.963395047326806,-41.434619499932325 57.293522066201845,-38.934619499931465 57.963395047239246,-36.43461949990714 59.79352206613861,-34.604492480943684 62.29352206613947,-33.93461949981872" stroke="#ffa500" stroke-linecap="round" stroke-linejoin="round"/><polyline fill="none" points="-238.06666626388918,-92.63280651134315 -235.56666626386485,-93.30267949238055 -233.7365392449014,-95.13280651127991 -233.06666626377643,-97.63280651128078 -233.73653924481383,-100.1328065113051 -235.5666662637132,-101.96293353026857 -238.06666626371404,-102.63280651139354 -240.56666626373837,-101.96293353035614 -242.39679328270182,-100.13280651145678 -243.0666662638268,-97.63280651145591 -242.3967932827894,-95.13280651143158 -240.56666626389003,-93.30267949246812 -238.06666626388918,-92.63280651134315" stroke="#00f" stroke-linecap="round" stroke-linejoin="round"/><polyline fill="none" points="-349.9773582258183,-125.87111825299016 -347.477358225794,-126.54099123402756 -345.6472312068305,-128.37111825292692 -344.97735822570553,-130.87111825292777 -345.6472312067429,-133.3711182529521 -347.47735822564226,-135.20124527191555 -349.9773582256431,-135.87111825304052 -352.47735822566744,-135.20124527200312 -354.3074852446309,-133.37111825310376 -354.9773582257559,-130.8711182531029 -354.3074852447185,-128.37111825307858 -352.47735822581916,-126.54099123411511 -349.9773582258183,-125.87111825299014" stroke="#00f" stroke-linecap="round" stroke-linejoin="round"/><polyline fill="none" points="-374.4260418246955,-153.45236631660447 -371.9260418246712,-154.12223929764187 -370.0959148057077,-155.95236631654123 -369.42604182458274,-158.45236631654208 -370.0959148056201,-160.9523663165664 -371.9260418245195,-162.7824933355299 -374.4260418245203,-163.45236631665486 -376.92604182454465,-162.78249333561746 -378.75616884350814,-160.9523663167181 -379.4260418246331,-158.45236631671725 -378.75616884359573,-155.95236631669292 -376.92604182469637,-154.12223929772944 -374.4260418246955,-153.45236631660447" stroke="#00f" stroke-linecap="round" stroke-linejoin="round"/><polyline fill="none" points="-185.69524725405705,56.26582976409812 -183.19524725403272,55.59595678306073 -181.36512023506924,53.76582976416137 -180.69524725394427,51.26582976416051 -181.36512023498167,48.76582976413618 -183.19524725388104,46.93570274517271 -185.6952472538819,46.265829764047744 -188.19524725390622,46.93570274508514 -190.0253742728697,48.7658297639845 -190.69524725399467,51.26582976398536 -190.02537427295727,53.76582976400969 -188.1952472540579,55.59595678297316 -185.69524725405705,56.265829764098136" stroke="#ffa500" stroke-linecap="round" stroke-linejoin="round"/><polyline fill="none" points="-327.43178155651935,-123.9924506659556 -324.931781556495,-124.66232364699299 -323.10165453753154,-126.49245066589235 -322.4317815564066,-128.99245066589322 -323.10165453744395,-131.49245066591754 -324.9317815563433,-133.32257768488103 -327.43178155634416,-133.992450666006 -329.9317815563685,-133.3225776849686 -331.761908575332,-131.49245066606923 -332.43178155645694,-128.99245066606838 -331.76190857541957,-126.49245066604405 -329.9317815565202,-124.66232364708058 -327.43178155651935,-123.99245066595562" stroke="#ffa500" stroke-linecap="round" stroke-linejoin="round"/><polyline fill="none" points="-178.1870144503834,27.71487325158654 -175.68701445035907,27.04500027054915 -173.8568874313956,25.214873251649795 -173.18701445027062,22.714873251648932 -173.85688743130802,20.214873251624603 -175.68701445020739,18.38474623266113 -178.18701445020824,17.714873251536154 -180.68701445023257,18.38474623257354 -182.51714146919605,20.214873251472895 -183.18701445032102,22.714873251473755 -182.51714146928362,25.214873251498087 -180.68701445038425,27.04500027046156 -178.1870144503834,27.71487325158654" stroke="#ffa500" stroke-linecap="round" stroke-linejoin="round"/><polyline fill="none" points="-191.10585161378475,67.63578344954304 -188.60585161376042,66.96591046850565 -186.77572459479694,65.13578344960631 -186.10585161367197,62.63578344960545 -186.77572459470935,60.13578344958111 -188.6058516136087,58.30565643061764 -191.10585161360956,57.635783449492656 -193.6058516136339,58.30565643053004 -195.43597863259737,60.1357834494294 -196.10585161372234,62.63578344943026 -195.43597863268496,65.13578344945459 -193.6058516137856,66.96591046841807 -191.10585161378475,67.63578344954306" stroke="#ffa500" stroke-linecap="round" stroke-linejoin="round"/><polyline fill="none" points="-213.39971008240025,-103.1737146721751 -210.89971008237592,-103.84358765321248 -209.06958306341244,-105.67371467211183 -208.39971008228747,-108.1737146721127 -209.06958306332484,-110.67371467213702 -210.8997100822242,-112.5038416911005 -213.39971008222506,-113.17371467222549 -215.89971008224938,-112.5038416911881 -217.72983710121287,-110.67371467228875 -218.39971008233786,-108.17371467228789 -217.7298371013005,-105.67371467226356 -215.89971008240113,-103.84358765330008 -213.39971008240028,-103.1737146721751" stroke="#00f" stroke-linecap="round" stroke-linejoin="round"/><polyline fill="none" points="-336.66382737526834,-145.4867410153464 -334.163827375244,-146.15661399638378 -332.33370035628053,-147.98674101528314 -331.66382737515556,-150.486741015284 -332.33370035619294,-152.98674101530833 -334.1638273750923,-154.8168680342718 -336.66382737509315,-155.4867410153968 -339.1638273751175,-154.81686803435943 -340.99395439408096,-152.98674101546007 -341.6638273752059,-150.48674101545922 -340.99395439416855,-147.9867410154349 -339.1638273752692,-146.1566139964714 -336.66382737526834,-145.4867410153464" stroke="#00f" stroke-linecap="round" stroke-linejoin="round"/><polyline fill="none" points="-375.7230790605889,-177.02599902241155 -373.22307906056454,-177.69587200344893 -371.39295204160106,-179.5259990223483 -370.7230790604761,-182.02599902234914 -371.39295204151347,-184.52599902237347 -373.22307906041283,-186.35612604133695 -375.7230790604137,-187.02599902246195 -378.223079060438,-186.35612604142457 -380.0532060794015,-184.5259990225252 -380.72307906052646,-182.02599902252436 -380.0532060794891,-179.52599902250003 -378.2230790605897,-177.69587200353655 -375.7230790605889,-177.02599902241155" stroke="#ffa500" stroke-linecap="round" stroke-linejoin="round"/><polyline fill="none" points="-271.6629966604809,-21.936839154567842 -269.1629966604566,-22.606712135605218 -267.3328696414931,-24.436839154504565 -266.66299666036815,-26.936839154505428 -267.3328696414055,-29.436839154529764 -269.1629966603049,-31.266966173493252 -271.66299666030574,-31.93683915461824 -274.16299666033007,-31.266966173580865 -275.99312367929355,-29.43683915468152 -276.6629966604185,-26.936839154680655 -275.99312367938114,-24.436839154656315 -274.1629966604818,-22.606712135692828 -271.6629966604809,-21.936839154567835" stroke="#ffa500" stroke-linecap="round" stroke-linejoin="round"/><polyline fill="none" points="-191.69506813789204,60.74531218534724 -189.1950681378677,60.075439204309866 -187.36494111890423,58.24531218541052 -186.69506813777923,55.74531218540966 -187.3649411188166,53.245312185385316 -189.19506813771594,51.41518516642183 -191.6950681377168,50.74531218529683 -194.19506813774112,51.415185166334204 -196.0251951567046,53.24531218523355 -196.6950681378296,55.74531218523441 -196.02519515679222,58.245312185258754 -194.1950681378929,60.07543920422224 -191.69506813789204,60.74531218534724" stroke="#ffa500" stroke-linecap="round" stroke-linejoin="round"/><polyline fill="none" points="-313.6470039606508,-72.41212794306469 -311.1470039606265,-73.08200092410206 -309.316876941663,-74.91212794300141 -308.64700396053803,-77.41212794300228 -309.3168769415754,-79.91212794302662 -311.14700396047476,-81.74225496199011 -313.6470039604756,-82.41212794311511 -316.14700396049994,-81.74225496207774 -317.9771309794634,-79.91212794317839 -318.64700396058845,-77.41212794317752 -317.9771309795511,-74.91212794315318 -316.1470039606517,-73.08200092418969 -313.64700396065086,-72.41212794306469" stroke="#00f" stroke-linecap="round" stroke-linejoin="round"/><polyline fill="none" points="-283.30985435902875,-59.21142747154879 -280.8098543590044,-59.88130045258616 -278.97972734004094,-61.71142747148551 -278.3098543589159,-64.21142747148637 -278.9797273399533,-66.71142747151072 -280.80985435885265,-68.54155449047421 -283.3098543588535,-69.21142747159921 -285.8098543588778,-68.54155449056184 -287.6399813778413,-66.71142747166249 -288.30985435896633,-64.21142747166162 -287.63998137792896,-61.71142747163728 -285.8098543590296,-59.881300452673784 -283.30985435902875,-59.21142747154878" stroke="#ffa500" stroke-linecap="round" stroke-linejoin="round"/><polyline fill="none" points="-342.6030101761891,-162.6620081036533 -340.1030101761648,-163.33188108469068 -338.2728831572013,-165.16200810359 -337.6030101760763,-167.66200810359086 -338.27288315711365,-170.16200810361522 -340.103010176013,-171.99213512257873 -342.60301017601387,-172.66200810370373 -345.1030101760382,-171.99213512266635 -346.9331371950017,-170.16200810376702 -347.6030101761267,-167.66200810376617 -346.93313719508933,-165.1620081037418 -345.10301017618997,-163.3318810847783 -342.6030101761891,-162.6620081036533" stroke="#00f" stroke-linecap="round" stroke-linejoin="round"/><polyline fill="none" points="-322.6575246313007,-125.07518046545775 -320.1575246312764,-125.7450534464951 -318.3273976123129,-127.57518046539445 -317.65752463118787,-130.0751804653953 -318.32739761222524,-132.57518046541966 -320.1575246311246,-134.40530748438317 -322.65752463112545,-135.07518046550817 -325.1575246311498,-134.4053074844708 -326.98765165011326,-132.57518046557146 -327.6575246312383,-130.0751804655706 -326.9876516502009,-127.57518046554627 -325.15752463130156,-125.74505344658277 -322.6575246313007,-125.07518046545776" stroke="#ffa500" stroke-linecap="round" stroke-linejoin="round"/><polyline fill="none" points="-359.03378357288074,-155.07040366023926 -356.5337835728564,-155.74027664127664 -354.7036565538929,-157.57040366017597 -354.0337835727679,-160.07040366017682 -354.7036565538053,-162.57040366020118 -356.53378357270464,-164.4005306791647 -359.0337835727055,-165.07040366028968 -361.5337835727298,-164.4005306792523 -363.3639105916933,-162.57040366035298 -364.0337835728183,-160.07040366035213 -363.36391059178095,-157.57040366032777 -361.5337835728816,-155.74027664136426 -359.03378357288074,-155.07040366023926" stroke="#008000" stroke-linecap="round" stroke-linejoin="round"/><polyline fill="none" points="-173.46451830509739,22.489230231731817 -170.96451830507303,21.81935725069446 -169.13439128610952,19.989230231795123 -168.4645183049845,17.48923023179426 -169.13439128602187,14.98923023176991 -170.9645183049212,13.159103212806407 -173.46451830492205,12.489230231681397 -175.9645183049464,13.159103212718755 -177.79464532390992,14.989230231618091 -178.46451830503494,17.489230231618954 -177.7946453239976,19.989230231643305 -175.96451830509827,21.81935725060681 -173.4645183050974,22.489230231731824" stroke="#ffa500" stroke-linecap="round" stroke-linejoin="round"/><polyline fill="none" points="62.07287426190129,-40.991655917031245 64.57287426192563,-41.6615288980686 66.40300128088914,-43.491655916967936 67.07287426201415,-45.991655916968796 66.4030012809768,-48.491655916993146 64.57287426207746,-50.321782935956655 62.0728742620766,-50.99165591708167 59.57287426205225,-50.321782936044315 57.74274724308874,-48.49165591714498 57.072874261963726,-45.99165591714412 57.74274724300108,-43.49165591711977 59.57287426190041,-41.66152889815626 62.07287426190127,-40.991655917031245" stroke="#ffa500" stroke-linecap="round" stroke-linejoin="round"/><polyline fill="none" points="-316.5811218601222,-133.34333111730572 -314.0811218600979,-134.01320409834307 -312.2509948411344,-135.8433311172424 -311.5811218600094,-138.34333111724325 -312.25099484104675,-140.8433311172676 -314.0811218599461,-142.67345813623112 -316.58112185994696,-143.34333111735614 -319.0811218599713,-142.6734581363188 -320.9112488789348,-140.84333111741947 -321.58112186005985,-138.34333111741861 -320.9112488790225,-135.84333111739426 -319.0811218601231,-134.01320409843075 -316.58112186012227,-133.34333111730572" stroke="#ffa500" stroke-linecap="round" stroke-linejoin="round"/><polyline fill="none" points="-360.7318492787745,-135.4485644221139 -358.2318492787502,-136.11843740315123 -356.40172225978665,-137.94856442205057 -355.7318492786616,-140.44856442205142 -356.401722259699,-142.94856442207578 -358.2318492785983,-144.77869144103929 -360.73184927859916,-145.4485644221643 -363.2318492786235,-144.77869144112697 -365.061976297587,-142.94856442222763 -365.73184927871205,-140.44856442222678 -365.0619762976747,-137.94856442220242 -363.23184927877537,-136.11843740323891 -360.7318492787745,-135.4485644221139" stroke="#00f" stroke-linecap="round" stroke-linejoin="round"/><polyline fill="none" points="-378.54897307751975,-185.23698976165716 -376.0489730774954,-185.9068627426945 -374.2188460585319,-187.73698976159383 -373.54897307740686,-190.23698976159469 -374.2188460584442,-192.73698976161904 -376.04897307734353,-194.56711678058255 -378.5489730773444,-195.23698976170758 -381.0489730773687,-194.56711678067023 -382.87910009633225,-192.7369897617709 -383.5489730774573,-190.23698976177005 -382.8791000964199,-187.7369897617457 -381.0489730775206,-185.90686274278218 -378.54897307751975,-185.23698976165716" stroke="#ffa500" stroke-linecap="round" stroke-linejoin="round"/><polyline fill="none" points="-370.93994269346274,-164.26059714325547 -368.4399426934384,-164.9304701242928 -366.6098156744749,-166.76059714319214 -365.93994269334985,-169.260597143193 -366.6098156743872,-171.76059714321735 -368.4399426932865,-173.59072416218086 -370.9399426932874,-174.2605971433059 -373.4399426933117,-173.59072416226854 -375.27006971227524,-171.7605971433692 -375.93994269340027,-169.26059714336836 -375.2700697123629,-166.760597143344 -373.4399426934636,-164.9304701243805 -370.93994269346274,-164.26059714325547" stroke="#008000" stroke-linecap="round" stroke-linejoin="round"/><polyline fill="none" points="-268.9546289604096,-29.58403577756414 -266.45462896038526,-30.253908758601483 -264.6245019414217,-32.08403577750081 -263.9546289602967,-34.58403577750167 -264.624501941334,-37.084035777526026 -266.4546289602333,-38.91416279648954 -268.9546289602342,-39.584035777614574 -271.4546289602585,-38.91416279657723 -273.28475597922204,-37.084035777677904 -273.95462896034707,-34.584035777677045 -273.28475597930975,-32.08403577765269 -271.45462896041045,-30.253908758689168 -268.9546289604096,-29.58403577756414" stroke="#ffa500" stroke-linecap="round" stroke-linejoin="round"/><polyline fill="none" points="-294.53878639946544,-57.68532080000638 -292.03878639944105,-58.355193781043724 -290.2086593804775,-60.18532079994305 -289.5387863993525,-62.68532079994391 -290.2086593803898,-65.18532079996827 -292.0387863992891,-67.01544781893179 -294.53878639928996,-67.68532080005681 -297.03878639931435,-67.01544781901947 -298.8689134182779,-65.18532080012014 -299.5387863994029,-62.68532080011928 -298.8689134183656,-60.18532080009492 -297.0387863994663,-58.3551937811314 -294.53878639946544,-57.685320800006366" stroke="#ffa500" stroke-linecap="round" stroke-linejoin="round"/><polyline fill="none" points="-338.357828611276,-153.8799102235944 -335.8578286112516,-154.54978320463175 -334.02770159228805,-156.37991022353108 -333.35782861116303,-158.87991022353194 -334.02770159220034,-161.3799102235563 -335.85782861109965,-163.21003724251983 -338.3578286111005,-163.87991022364486 -340.8578286111249,-163.2100372426075 -342.6879556300884,-161.37991022370818 -343.35782861121345,-158.87991022370733 -342.68795563017613,-156.37991022368297 -340.85782861127683,-154.54978320471943 -338.357828611276,-153.8799102235944" stroke="#ffa500" stroke-linecap="round" stroke-linejoin="round"/><polyline fill="none" points="-349.0508208294942,-138.75486323999758 -346.55082082946984,-139.42473622103492 -344.7206938105063,-141.25486323993425 -344.0508208293813,-143.7548632399351 -344.7206938104186,-146.25486323995946 -346.5508208293179,-148.084990258923 -349.05082082931875,-148.75486324004802 -351.55082082934314,-148.08499025901068 -353.3809478483067,-146.25486324011135 -354.0508208294317,-143.7548632401105 -353.3809478483944,-141.25486324008614 -351.5508208294951,-139.4247362211226 -349.0508208294942,-138.75486323999755" stroke="#00f" stroke-linecap="round" stroke-linejoin="round"/><polyline fill="none" points="-350.6001357734949,-151.60416117081667 -348.1001357734705,-152.274034151854 -346.270008754507,-154.10416117075334 -345.60013577338196,-156.6041611707542 -346.2700087544193,-159.10416117077855 -348.1001357733186,-160.9342881897421 -350.60013577331944,-161.60416117086714 -353.1001357733438,-160.9342881898298 -354.93026279230736,-159.10416117093047 -355.6001357734324,-156.60416117092961 -354.93026279239507,-154.10416117090526 -353.10013577349577,-152.27403415194172 -350.6001357734949,-151.60416117081667" stroke="#00f" stroke-linecap="round" stroke-linejoin="round"/><polyline fill="none" points="-195.6838381822412,-87.80052925427569 -193.18383818221685,-88.47040223531302 -191.3537111632533,-90.30052925421234 -190.68383818212826,-92.8005292542132 -191.3537111631656,-95.30052925423757 -193.18383818206493,-97.13065627320111 -195.68383818206578,-97.80052925432615 -198.18383818209014,-97.13065627328882 -200.01396520105368,-95.3005292543895 -200.68383818217873,-92.80052925438864 -200.01396520114142,-90.30052925436426 -198.18383818224208,-88.47040223540073 -195.68383818224123,-87.80052925427569" stroke="#ffa500" stroke-linecap="round" stroke-linejoin="round"/><polyline fill="none" points="-320.91232589241525,-127.87617239786286 -318.41232589239087,-128.54604537890017 -316.58219887342733,-130.3761723977995 -315.9123258923023,-132.87617239780036 -316.5821988733396,-135.37617239782472 -318.4123258922389,-137.20629941678826 -320.9123258922398,-137.8761723979133 -323.41232589226416,-137.206299416876 -325.2424529112277,-135.37617239797666 -325.9123258923527,-132.8761723979758 -325.2424529113154,-130.37617239795145 -323.4123258924161,-128.5460453789879 -320.91232589241525,-127.87617239786286" stroke="#ffa500" stroke-linecap="round" stroke-linejoin="round"/><polyline fill="none" points="-289.2488875785313,-61.42517321178455 -286.7488875785069,-62.095046192821876 -284.9187605595434,-63.925173211721194 -284.24888757841836,-66.42517321172205 -284.9187605594557,-68.92517321174643 -286.748887578355,-70.75530023070996 -289.24888757835583,-71.42517321183502 -291.7488875783802,-70.75530023079769 -293.57901459734376,-68.92517321189837 -294.2488875784688,-66.4251732118975 -293.57901459743147,-63.92517321187314 -291.74888757853216,-62.0950461929096 -289.2488875785313,-61.425173211784546" stroke="#ffa500" stroke-linecap="round" stroke-linejoin="round"/><polyline fill="none" points="-304.7663806759346,-138.49582942510014 -302.2663806759102,-139.16570240613746 -300.4362536569467,-140.99582942503676 -299.76638067582167,-143.4958294250376 -300.436253656859,-145.99582942506197 -302.2663806757583,-147.8259564440255 -304.76638067575914,-148.49582942515056 -307.2663806757835,-147.82595644411325 -309.09650769474706,-145.99582942521394 -309.7663806758721,-143.4958294252131 -309.09650769483477,-140.99582942518873 -307.26638067593547,-139.1657024062252 -304.7663806759346,-138.49582942510014" stroke="#00f" stroke-linecap="round" stroke-linejoin="round"/><polyline fill="none" points="-204.16711098279023,2.008612998235425 -201.66711098276588,1.338740017198104 -199.83698396380234,-0.49138700170121163 -199.1671109826773,-2.9913870017020727 -199.8369839637146,-5.491387001726443 -201.6671109826139,-7.321514020689984 -204.16711098261476,-7.991387001815038 -206.66711098263912,-7.321514020777719 -208.49723800160265,-5.491387001878404 -209.1671109827277,-2.991387001877542 -208.4972380016904,-0.4913870018531714 -206.6671109827911,1.3387400171103716 -204.16711098279023,2.0086129982354275" stroke="#00f" stroke-linecap="round" stroke-linejoin="round"/><polyline fill="none" points="-302.89766110395135,-81.56578304830931 -300.39766110392696,-82.23565602934663 -298.5675340849634,-84.06578304824595 -297.89766110383835,-86.56578304824681 -298.56753408487566,-89.06578304827119 -300.39766110377496,-90.89591006723472 -302.8976611037758,-91.56578304835978 -305.3976611038002,-90.89591006732246 -307.22778812276374,-89.06578304842314 -307.8976611038888,-86.56578304842228 -307.2277881228515,-84.0657830483979 -305.3976611039522,-82.23565602943435 -302.89766110395135,-81.5657830483093" stroke="#ffa500" stroke-linecap="round" stroke-linejoin="round"/><polyline fill="none" points="-368.7720619878327,-147.7770662515546 -366.27206198780834,-148.44693923259192 -364.4419349688448,-150.27706625149122 -363.7720619877197,-152.77706625149207 -364.44193496875704,-155.27706625151646 -366.27206198765634,-157.10719327048 -368.7720619876572,-157.77706625160505 -371.2720619876816,-157.10719327056773 -373.1021890066451,-155.27706625166843 -373.7720619877702,-152.77706625166758 -373.1021890067329,-150.2770662516432 -371.2720619878336,-148.44693923267965 -368.7720619878327,-147.7770662515546" stroke="#008000" stroke-linecap="round" stroke-linejoin="round"/><polyline fill="none" points="-355.7212190054336,-138.56573935637766 -353.22121900540924,-139.23561233741498 -351.3910919864457,-141.06573935631428 -350.7212190053206,-143.56573935631513 -351.39109198635794,-146.06573935633952 -353.22121900525724,-147.89586637530306 -355.7212190052581,-148.5657393564281 -358.2212190052825,-147.8958663753908 -360.051346024246,-146.0657393564915 -360.7212190053711,-143.56573935649064 -360.0513460243338,-141.06573935646625 -358.2212190054345,-139.23561233750272 -355.7212190054336,-138.56573935637766" stroke="#ffa500" stroke-linecap="round" stroke-linejoin="round"/><polyline fill="none" points="381.285213042599,-173.5562274199331 383.7852130426234,-174.2261004009704 385.61534006158695,-176.0562274198697 386.28521304271203,-178.55622741987057 385.6153400616747,-181.05622741989495 383.7852130427754,-182.88635443885852 381.28521304277456,-183.55622741998357 378.7852130427502,-182.88635443894626 376.95508602378663,-181.05622742004695 376.28521304266155,-178.5562274200461 376.95508602369887,-176.0562274200217 378.7852130425982,-174.22610040105815 381.285213042599,-173.55622741993307" stroke="#ffa500" stroke-linecap="round" stroke-linejoin="round"/></svg>