<?xml version="1.0" ?><!DOCTYPE svg  PUBLIC '-//W3C//DTD SVG 1.1//EN'  'http://www.w3.org/Graphics/SVG/1.1/DTD/svg11.dtd'><svg height="287.000" viewBox="-403.000 -207.000 820.000 287.000" width="820.000" xmlns="http://www.w3.org/2000/svg"><line fill="none" stroke="none" stroke-linecap="round" stroke-width="2.0" x1="0.0" x2="0.0" y1="0.0" y2="0.0"/><polygon fill="none" fill-rule="evenodd" points="0.0,0.0 0.0,0.0 0.0,0.0" stroke-linejoin="round"/><polyline fill="none" points="-371.93266512092157,-147.70984808976596 -369.4326651208972,-148.37972107080327 -367.60253810193365,-150.20984808970258 -366.93266512080857,-152.70984808970343 -367.6025381018459,-155.2098480897278 -369.4326651207452,-157.03997510869138 -371.93266512074604,-157.70984808981646 -374.4326651207704,-157.03997510877915 -376.26279213973396,-155.20984808987984 -376.93266512085904,-152.709848089879 -376.2627921398217,-150.2098480898546 -374.4326651209224,-148.37972107089104 -371.93266512092157,-147.70984808976596" stroke="#00f" stroke-linecap="round" stroke-linejoin="round"/><polyline fill="none" points="-355.5178496630919,-159.3930619215095 -353.0178496630675,-160.06293490254683 -351.187722644104,-161.89306192144613 -350.5178496629789,-164.39306192144699 -351.1877226440162,-166.89306192147137 -353.0178496629155,-168.72318894043494 -355.5178496629164,-169.39306192156002 -358.01784966294076,-168.7231889405227 -359.8479766819043,-166.8930619216234 -360.5178496630294,-164.39306192162255 -359.84797668199207,-161.89306192159816 -358.01784966309276,-160.0629349026346 -355.5178496630919,-159.3930619215095" stroke="#008000" stroke-linecap="round" stroke-linejoin="round"/><polyline fill="none" points="-275.8533361144439,-129.3042350445727 -273.3533361144195,-129.97410802561 -271.52320909545597,-131.8042350445093 -270.8533361143309,-134.30423504451016 -271.5232090953682,-136.80423504453455 -273.3533361142675,-138.63436206349812 -275.85333611426836,-139.3042350446232 -278.35333611429274,-138.63436206358588 -280.1834631332563,-136.80423504468658 -280.85333611438136,-134.30423504468573 -280.18346313334405,-131.80423504466134 -278.35333611444474,-129.97410802569777 -275.8533361144439,-129.3042350445727" stroke="#ffa500" stroke-linecap="round" stroke-linejoin="round"/><polyline fill="none" points="-360.87792439395554,-161.45628509048885 -358.37792439393115,-162.12615807152616 -356.5477973749676,-163.95628509042547 -355.87792439384253,-166.45628509042632 -356.54779737487985,-168.9562850904507 -358.37792439377915,-170.78641210941427 -360.87792439378,-171.45628509053935 -363.3779243938044,-170.78641210950204 -365.20805141276793,-168.95628509060273 -365.877924393893,-166.45628509060188 -365.2080514128557,-163.9562850905775 -363.3779243939564,-162.12615807161393 -360.87792439395554,-161.45628509048885" stroke="#008000" stroke-linecap="round" stroke-linejoin="round"/><polyline fill="none" points="-368.1826512976676,-137.6306231610315 -365.6826512976432,-138.3004961420688 -363.85252427867965,-140.1306231609681 -363.18265129755457,-142.63062316096895 -363.8525242785919,-145.13062316099334 -365.6826512974912,-146.9607501799569 -368.18265129749204,-147.63062316108199 -370.68265129751643,-146.9607501800447 -372.51277831647997,-145.1306231611454 -373.18265129760505,-142.63062316114454 -372.51277831656773,-140.13062316112016 -370.68265129766843,-138.3004961421566 -368.1826512976676,-137.6306231610315" stroke="#00f" stroke-linecap="round" stroke-linejoin="round"/><polyline fill="none" points="-385.0813107206346,-184.1863450775941 -382.5813107206102,-184.85621805863138 -380.7511837016466,-186.6863450775307 -380.0813107205215,-189.18634507753154 -380.75118370155883,-191.68634507755593 -382.58131072045813,-193.5164720965195 -385.081310720459,-194.18634507764457 -387.5813107204834,-193.5164720966073 -389.41143773944697,-191.68634507770798 -390.08131072057205,-189.18634507770713 -389.41143773953473,-186.68634507768274 -387.58131072063543,-184.85621805871918 -385.0813107206346,-184.1863450775941" stroke="#00f" stroke-linecap="round" stroke-linejoin="round"/><polyline fill="none" points="380.48073109883467,-166.67794280233076 382.98073109885905,-167.34781578336805 384.81085811782265,-169.17794280226735 385.48073109894773,-171.6779428022682 384.8108581179104,-174.1779428022926 382.9807310990111,-176.00806982125616 380.48073109901026,-176.67794280238124 377.98073109898587,-176.00806982134395 376.1506040800223,-174.17794280244465 375.4807310988972,-171.6779428024438 376.1506040799345,-169.1779428024194 377.9807310988338,-167.34781578345584 380.48073109883467,-166.67794280233076" stroke="#ffa500" stroke-linecap="round" stroke-linejoin="round"/><polyline fill="none" points="-359.45575556470664,-146.68874484452158 -356.95575556468225,-147.35861782555887 -355.12562854571866,-149.18874484445817 -354.4557555645936,-151.68874484445902 -355.1256285456309,-154.1887448444834 -356.9557555645302,-156.01887186344698 -359.45575556453105,-156.68874484457206 -361.95575556455543,-156.01887186353477 -363.785882583519,-154.18874484463547 -364.4557555646441,-151.6887448446346 -363.7858825836068,-149.18874484461023 -361.9557555647075,-147.35861782564666 -359.45575556470664,-146.68874484452158" stroke="#00f" stroke-linecap="round" stroke-linejoin="round"/><polyline fill="none" points="68.38320842336502,-43.751342216515106 70.8832084233894,-44.4212151975524 72.71333544235299,-46.2513422164517 73.38320842347808,-48.751342216452564 72.7133354424408,-51.25134221647696 70.88320842354149,-53.08146923544053 68.38320842354062,-53.75134221656562 65.88320842351624,-53.08146923552833 64.05308140455266,-51.251342216629034 63.38320842342757,-48.75134221662817 64.05308140446486,-46.251342216603774 65.88320842336417,-44.4212151976402 68.38320842336503,-43.75134221651511" stroke="#ffa500" stroke-linecap="round" stroke-linejoin="round"/><polyline fill="none" points="400.10069145068036,-178.47288942645957 402.60069145070474,-179.14276240749686 404.43081846966834,-180.97288942639616 405.1006914507934,-183.47288942639702 404.4308184697561,-185.9728894264214 402.6006914508568,-187.80301644538497 400.10069145085595,-188.47288942651005 397.60069145083156,-187.80301644547276 395.77056443186797,-185.97288942657346 395.1006914507429,-183.4728894265726 395.77056443178014,-180.97288942654822 397.60069145067945,-179.14276240758466 400.1006914506803,-178.47288942645957" stroke="#00f" stroke-linecap="round" stroke-linejoin="round"/><polyline fill="none" points="-377.31199300563435,-174.6387654465136 -374.81199300560996,-175.30863842755087 -372.98186598664637,-177.13876544645018 -372.3119930055213,-179.63876544645103 -372.98186598655855,-182.13876544647542 -374.81199300545785,-183.96889246543898 -377.3119930054587,-184.6387654465641 -379.8119930054831,-183.9688924655268 -381.6421200244467,-182.1387654466275 -382.31199300557176,-179.63876544662665 -381.6421200245345,-177.13876544660226 -379.8119930056352,-175.30863842763867 -377.31199300563435,-174.63876544651356" stroke="#00f" stroke-linecap="round" stroke-linejoin="round"/><polyline fill="none" points="-301.6778151442316,-99.43431387626354 -299.1778151442072,-100.10418685730083 -297.3476881252436,-101.93431387620012 -296.67781514411854,-104.43431387620099 -297.3476881251558,-106.93431387622539 -299.1778151440551,-108.76444089518897 -301.67781514405596,-109.43431387631406 -304.17781514408034,-108.76444089527678 -306.00794216304394,-106.93431387637749 -306.677815144169,-104.43431387637662 -306.00794216313176,-101.93431387635222 -304.17781514423245,-100.10418685738864 -301.6778151442316,-99.43431387626354" stroke="#00f" stroke-linecap="round" stroke-linejoin="round"/><polyline fill="none" points="-330.18102720006334,-158.8127629424851 -327.68102720003895,-159.4826359235224 -325.85090018107536,-161.3127629424217 -325.1810271999503,-163.81276294242255 -325.85090018098754,-166.31276294244694 -327.68102719988684,-168.14288996141053 -330.1810271998877,-168.81276294253564 -332.6810271999121,-168.14288996149835 -334.5111542188757,-166.31276294259905 -335.18102720000076,-163.8127629425982 -334.5111542189635,-161.3127629425738 -332.6810272000642,-159.48263592361022 -330.18102720006334,-158.8127629424851" stroke="#ffa500" stroke-linecap="round" stroke-linejoin="round"/><polyline fill="none" points="-282.153458643347,-56.84355641375614 -279.6534586433226,-57.51342939479342 -277.823331624359,-59.34355641369271 -277.15345864323393,-61.84355641369358 -277.8233316242712,-64.34355641371798 -279.6534586431705,-66.17368343268157 -282.15345864317135,-66.84355641380668 -284.65345864319573,-66.17368343276941 -286.4835856621593,-64.34355641387012 -287.1534586432844,-61.84355641386925 -286.48358566224715,-59.34355641384485 -284.65345864334785,-57.513429394881264 -282.153458643347,-56.843556413756154" stroke="#ffa500" stroke-linecap="round" stroke-linejoin="round"/><polyline fill="none" points="-281.23641153453934,-122.87720835620765 -278.73641153451496,-123.54708133724492 -276.90628451555136,-125.37720835614421 -276.2364115344263,-127.87720835614508 -276.90628451546354,-130.37720835616946 -278.73641153436284,-132.20733537513306 -281.2364115343637,-132.87720835625817 -283.7364115343881,-132.20733537522088 -285.5665385533517,-130.37720835632157 -286.23641153447676,-127.87720835632071 -285.5665385534395,-125.37720835629631 -283.7364115345402,-123.54708133733271 -281.23641153453934,-122.8772083562076" stroke="#ffa500" stroke-linecap="round" stroke-linejoin="round"/><polyline fill="none" points="-381.64102282633627,-181.98565111842902 -379.1410228263119,-182.6555240994663 -377.3108958073483,-184.48565111836558 -376.6410228262232,-186.98565111836643 -377.31089580726047,-189.48565111839082 -379.14102282615977,-191.3157781373544 -381.6410228261606,-191.98565111847952 -384.141022826185,-191.31577813744227 -385.9711498451486,-189.485651118543 -386.64102282627374,-186.98565111854214 -385.9711498452365,-184.48565111851772 -384.1410228263372,-182.65552409955413 -381.6410228263363,-181.98565111842902" stroke="#00f" stroke-linecap="round" stroke-linejoin="round"/><polyline fill="none" points="-312.7244286481645,-136.5461739941681 -310.22442864814013,-137.21604697520536 -308.39430162917654,-139.04617399410463 -307.7244286480514,-141.5461739941055 -308.39430162908866,-144.0461739941299 -310.22442864798796,-145.8763010130935 -312.7244286479888,-146.5461739942186 -315.2244286480132,-145.87630101318135 -317.0545556669768,-144.04617399428207 -317.72442864810193,-141.54617399428122 -317.0545556670647,-139.0461739942568 -315.2244286481654,-137.2160469752932 -312.7244286481645,-136.5461739941681" stroke="#00f" stroke-linecap="round" stroke-linejoin="round"/><polyline fill="none" points="-299.9071790109512,-54.15996479679163 -297.4071790109268,-54.8298377778289 -295.57705199196323,-56.65996479672819 -294.9071790108381,-59.15996479672906 -295.57705199187535,-61.65996479675346 -297.40717901077466,-63.49009181571705 -299.9071790107755,-64.15996479684216 -302.4071790107999,-63.490091815804895 -304.2373060297635,-61.659964796905605 -304.9071790108886,-59.15996479690474 -304.23730602985137,-56.65996479688034 -302.40717901095206,-54.829837777916744 -299.9071790109512,-54.15996479679163" stroke="#ffa500" stroke-linecap="round" stroke-linejoin="round"/><polyline fill="none" points="-387.4427684857276,-186.11737268521173 -384.9427684857032,-186.787245666249 -383.1126414667396,-188.61737268514827 -382.44276848561447,-191.11737268514912 -383.1126414666517,-193.61737268517354 -384.942768485551,-195.44749970413713 -387.4427684855519,-196.11737268526224 -389.94276848557627,-195.44749970422498 -391.77289550453986,-193.6173726853257 -392.442768485665,-191.11737268532485 -391.77289550462774,-188.61737268530044 -389.94276848572844,-186.78724566633684 -387.4427684857276,-186.11737268521173" stroke="#00f" stroke-linecap="round" stroke-linejoin="round"/><polyline fill="none" points="37.79272785368419,-53.612723930412635 40.2927278537086,-54.2825969114499 42.1228548726722,-56.11272393034918 42.79272785379732,-58.61272393035005 42.12285487276005,-61.11272393037446 40.29272785386077,-62.94285094933806 37.7927278538599,-63.61272393046318 35.292727853835494,-62.94285094942592 33.46260083487189,-61.112723930526634 32.79272785374677,-58.61272393052577 33.462600834784034,-56.11272393050136 35.29272785368332,-54.28259691153776 37.792727853684184,-53.612723930412635" stroke="#00f" stroke-linecap="round" stroke-linejoin="round"/><polyline fill="none" points="-311.1084315234696,-120.29655695000503 -308.60843152344523,-120.96642993104228 -306.77830450448164,-122.79655694994157 -306.1084315233565,-125.29655694994244 -306.77830450439376,-127.79655694996684 -308.60843152329306,-129.62668396893045 -311.1084315232939,-130.29655695005556 -313.6084315233183,-129.6266839690183 -315.4385585422819,-127.79655695011901 -316.10843152340703,-125.29655695011814 -315.4385585423698,-122.79655695009373 -313.6084315234705,-120.96642993113012 -311.1084315234696,-120.296556950005" stroke="#ffa500" stroke-linecap="round" stroke-linejoin="round"/><polyline fill="none" points="-344.9993193115988,-149.62381127565033 -342.4993193115744,-150.29368425668758 -340.66919229261083,-152.12381127558686 -339.9993193114857,-154.6238112755877 -340.66919229252295,-157.12381127561213 -342.49931931142225,-158.95393829457572 -344.9993193114231,-159.62381127570086 -347.4993193114475,-158.9539382946636 -349.3294463304111,-157.12381127576433 -349.9993193115362,-154.62381127576347 -349.32944633049897,-152.12381127573906 -347.49931931159966,-150.29368425677546 -344.9993193115988,-149.62381127565033" stroke="#ffa500" stroke-linecap="round" stroke-linejoin="round"/><polyline fill="none" points="-264.37289545800934,-118.99839357487743 -261.87289545798495,-119.66826655591468 -260.04276843902136,-121.49839357481396 -259.3728954578962,-123.99839357481483 -260.0427684389335,-126.49839357483924 -261.8728954578328,-128.32852059380284 -264.37289545783364,-128.99839357492797 -266.872895457858,-128.32852059389072 -268.7030224768216,-126.49839357499144 -269.37289545794675,-123.99839357499057 -268.7030224769095,-121.49839357496616 -266.8728954580102,-119.66826655600255 -264.37289545800934,-118.99839357487743" stroke="#ffa500" stroke-linecap="round" stroke-linejoin="round"/><polyline fill="none" points="-371.387491273709,-149.195808845696 -368.8874912736846,-149.86568182673327 -367.057364254721,-151.69580884563254 -366.38749127359586,-154.1958088456334 -367.0573642546331,-156.6958088456578 -368.8874912735324,-158.52593586462143 -371.38749127353327,-159.19580884574657 -373.88749127355766,-158.5259358647093 -375.71761829252125,-156.69580884581003 -376.3874912736464,-154.19580884580918 -375.71761829260913,-151.69580884578477 -373.8874912737098,-149.86568182682115 -371.387491273709,-149.195808845696" stroke="#00f" stroke-linecap="round" stroke-linejoin="round"/><polyline fill="none" points="-196.48915729823693,53.95311416922371 -193.98915729821252,53.28324118818646 -192.1590302792489,51.45311416928718 -191.48915729812376,48.953114169286316 -192.15903027916102,46.4531141692619 -193.9891572980603,44.622987150298286 -196.48915729806114,43.95311416917315 -198.98915729808556,44.6229871502104 -200.81928431704918,46.453114169109675 -201.48915729817432,48.95311416911054 -200.81928431713706,51.453114169134956 -198.98915729823779,53.28324118809857 -196.48915729823693,53.95311416922371" stroke="#ffa500" stroke-linecap="round" stroke-linejoin="round"/><polyline fill="none" points="-282.4554851011356,-113.01290819991476 -279.9554851011112,-113.682781180952 -278.1253580821476,-115.51290819985128 -277.4554851010225,-118.01290819985215 -278.12535808205973,-120.51290819987656 -279.95548510095904,-122.34303521884017 -282.4554851009599,-123.01290819996531 -284.95548510098433,-122.34303521892807 -286.7856121199479,-120.51290820002879 -287.45548510107307,-118.01290820002792 -286.7856121200358,-115.51290820000351 -284.95548510113656,-113.6827811810399 -282.4554851011357,-113.01290819991476" stroke="#ffa500" stroke-linecap="round" stroke-linejoin="round"/><polyline fill="none" points="376.8754991575322,-173.93244385576534 379.37549915755665,-174.6023168368026 381.20562617652024,-176.43244385570188 381.8754991576454,-178.93244385570273 381.2056261766081,-181.43244385572714 379.3754991577089,-183.26257087469077 376.875499157708,-183.9324438558159 374.3754991576836,-183.26257087477865 372.54537213872,-181.43244385587937 371.87549915759485,-178.93244385587852 372.5453721386321,-176.4324438558541 374.37549915753135,-174.60231683689048 376.8754991575322,-173.93244385576534" stroke="#ffa500" stroke-linecap="round" stroke-linejoin="round"/><polyline fill="none" points="-303.2594907603067,-154.5357157996885 -300.75949076028223,-155.20558878072575 -298.92936374131864,-157.03571579962502 -298.2594907601935,-159.53571579962588 -298.92936374123076,-162.0357157996503 -300.75949076013,-163.8658428186139 -303.25949076013086,-164.53571579973905 -305.7594907601553,-163.8658428187018 -307.5896177791189,-162.03571579980252 -308.25949076024403,-159.53571579980166 -307.5896177792068,-157.03571579977725 -305.75949076030753,-155.20558878081363 -303.2594907603067,-154.5357157996885" stroke="#ffa500" stroke-linecap="round" stroke-linejoin="round"/><polyline fill="none" points="-213.7445573745144,-76.08757103725078 -211.24455737448997,-76.75744401828803 -209.41443035552635,-78.5875710371873 -208.7445573744012,-81.08757103718817 -209.41443035543844,-83.58757103721258 -211.24455737433772,-85.4176980561762 -213.74455737433857,-86.08757103730136 -216.24455737436298,-85.41769805626411 -218.0746843933266,-83.58757103736484 -218.74455737445174,-81.08757103736397 -218.07468439341451,-78.58757103733956 -216.24455737451524,-76.75744401837594 -213.7445573745144,-76.08757103725078" stroke="#ffa500" stroke-linecap="round" stroke-linejoin="round"/><polyline fill="none" points="-333.83680963260406,-128.15812956120823 -331.3368096325796,-128.82800254224546 -329.50668261361596,-130.65812956114473 -328.8368096324908,-133.15812956114559 -329.5066826135281,-135.65812956117 -331.33680963242733,-137.48825658013362 -333.8368096324282,-138.15812956125876 -336.3368096324526,-137.48825658022153 -338.1669366514163,-135.65812956132226 -338.8368096325414,-133.1581295613214 -338.16693665150416,-130.658129561297 -336.3368096326049,-128.82800254233337 -333.83680963260406,-128.15812956120823" stroke="#ffa500" stroke-linecap="round" stroke-linejoin="round"/><polyline fill="none" points="-262.06789744740655,-112.24295748337462 -259.5678974473821,-112.91283046441187 -257.73777042841846,-114.74295748331114 -257.0678974472933,-117.24295748331201 -257.7377704283306,-119.74295748333643 -259.5678974472298,-121.57308450230005 -262.0678974472307,-122.2429574834252 -264.5678974472551,-121.57308450238796 -266.39802446621877,-119.74295748348868 -267.0678974473439,-117.24295748348781 -266.39802446630665,-114.74295748346339 -264.5678974474074,-112.91283046449976 -262.06789744740655,-112.24295748337461" stroke="#ffa500" stroke-linecap="round" stroke-linejoin="round"/><polyline fill="none" points="-310.77066739954614,-135.74166985483288 -308.2706673995217,-136.4115428358701 -306.44054038055805,-138.24166985476938 -305.7706673994329,-140.74166985477024 -306.44054038047017,-143.24166985479465 -308.2706673993694,-145.07179687375827 -310.77066739937027,-145.74166985488344 -313.2706673993947,-145.0717968738462 -315.10079441835836,-143.24166985494693 -315.7706673994835,-140.74166985494608 -315.10079441844624,-138.24166985492167 -313.270667399547,-136.41154283595804 -310.77066739954614,-135.74166985483288" stroke="#00f" stroke-linecap="round" stroke-linejoin="round"/><polyline fill="none" points="-303.39005787153275,-57.71426954853418 -300.8900578715083,-58.38414252957142 -299.05993085254465,-60.21426954847069 -298.3900578714195,-62.714269548471556 -299.0599308524568,-65.21426954849598 -300.890057871356,-67.04439656745961 -303.3900578713569,-67.71426954858477 -305.8900578713813,-67.04439656754754 -307.72018489034497,-65.21426954864828 -308.3900578714701,-62.71426954864741 -307.72018489043285,-60.21426954862299 -305.8900578715336,-58.38414252965936 -303.39005787153275,-57.7142695485342" stroke="#00f" stroke-linecap="round" stroke-linejoin="round"/><polyline fill="none" points="-180.3965942501563,16.993342129267845 -177.8965942501319,16.323469148230615 -176.06646723116828,14.49334212933135 -175.3965942500431,11.993342129330484 -176.06646723108034,9.49334212930606 -177.89659424997961,7.663215110342425 -180.39659424998047,6.9933421292172655 -182.89659425000488,7.663215110254495 -184.7267212689685,9.49334212915376 -185.39659425009367,11.993342129154623 -184.72672126905644,14.493342129179048 -182.89659425015716,16.323469148142685 -180.3965942501563,16.993342129267845" stroke="#ffa500" stroke-linecap="round" stroke-linejoin="round"/><polyline fill="none" points="-170.05852036095976,26.393663479103644 -167.55852036093535,25.723790498066414 -165.72839334197172,23.89366347916715 -165.05852036084656,21.393663479166285 -165.7283933418838,18.89366347914186 -167.55852036078306,17.063536460178224 -170.05852036078392,16.39366347905306 -172.55852036080833,17.063536460090287 -174.38864737977198,18.893663478989552 -175.05852036089715,21.393663478990415 -174.38864737985992,23.893663479014844 -172.55852036096064,25.72379049797848 -170.0585203609598,26.393663479103644" stroke="#ffa500" stroke-linecap="round" stroke-linejoin="round"/><polyline fill="none" points="384.093763969428,-180.85881217853864 386.5937639694524,-181.52868515957587 388.4238909884161,-183.35881217847515 389.0937639695412,-185.858812178476 388.423890988504,-188.35881217850041 386.59376396960477,-190.18893919746407 384.0937639696039,-190.85881217858923 381.59376396957947,-190.188939197552 379.7636369506158,-188.35881217865273 379.0937639694907,-185.85881217865187 379.7636369505279,-183.35881217862743 381.59376396942713,-181.52868515966378 384.093763969428,-180.8588121785386" stroke="#ffa500" stroke-linecap="round" stroke-linejoin="round"/><polyline fill="none" points="-282.46193014599027,-49.76001468537148 -279.9619301459658,-50.4298876664087 -278.1318031270022,-52.260014685307965 -277.461930145877,-54.76001468530883 -278.1318031269142,-57.26001468533326 -279.9619301458134,-59.090141704296904 -282.4619301458143,-59.76001468542207 -284.9619301458387,-59.09014170438485 -286.7920571648024,-57.26001468548559 -287.46193014592757,-54.76001468548472 -286.79205716489037,-52.26001468546029 -284.9619301459911,-50.42988766649665 -282.46193014599027,-49.76001468537148" stroke="#ffa500" stroke-linecap="round" stroke-linejoin="round"/><polyline fill="none" points="56.17071209681335,-45.83036596897318 58.670712096837775,-46.500238950010406 60.50083911580142,-48.33036596890967 61.170712096926586,-50.830365968910534 60.50083911588936,-53.33036596893496 58.6707120969901,-55.16049298789861 56.170712096989234,-55.83036596902378 53.670712096964806,-55.16049298798656 51.84058507800116,-53.330365969087296 51.17071209687599,-50.83036596908643 51.84058507791321,-48.330365969062 53.67071209681247,-46.50023895009836 56.17071209681334,-45.83036596897318" stroke="#ffa500" stroke-linecap="round" stroke-linejoin="round"/><polyline fill="none" points="386.63350090641393,-167.98487764568114 389.13350090643837,-168.65475062671837 390.963627925402,-170.48487764561762 391.6335009065272,-172.98487764561847 390.96362792549,-175.4848776456429 389.13350090659077,-177.31500466460656 386.6335009065899,-177.98487764573173 384.1335009065655,-177.3150046646945 382.3033738876018,-175.48487764579525 381.6335009064766,-172.9848776457944 382.3033738875138,-170.48487764576996 384.1335009064131,-168.6547506268063 386.63350090641393,-167.98487764568114" stroke="#ffa500" stroke-linecap="round" stroke-linejoin="round"/><polyline fill="none" points="66.91960711447655,-34.16319376559262 69.41960711450098,-34.83306674662983 71.24973413346463,-36.66319376552909 71.91960711458981,-39.163193765529954 71.2497341335526,-41.66319376555439 69.41960711465333,-43.49332078451804 66.91960711465246,-44.163193765643214 64.41960711462804,-43.493320784606 62.589480095664385,-41.663193765706744 61.919607114539204,-39.16319376570588 62.58948009557642,-36.66319376568144 64.41960711447568,-34.83306674671779 66.91960711447655,-34.16319376559261" stroke="#ffa500" stroke-linecap="round" stroke-linejoin="round"/><polyline fill="none" points="-252.2547313539978,-124.08964053772405 -249.75473135397337,-124.75951351876127 -247.92460433500972,-126.58964053766053 -247.25473135388455,-129.08964053766138 -247.92460433492175,-131.58964053768582 -249.754731353821,-133.41976755664948 -252.25473135382185,-134.08964053777464 -254.7547313538463,-133.41976755673744 -256.58485837280995,-131.5896405378382 -257.25473135393514,-129.08964053783734 -256.58485837289794,-126.58964053781291 -254.7547313539987,-124.75951351884926 -252.25473135399784,-124.08964053772408" stroke="#ffa500" stroke-linecap="round" stroke-linejoin="round"/><polyline fill="none" points="-313.9851449544664,-134.78846684985916 -311.485144954442,-135.45833983089636 -309.6550179354783,-137.2884668497956 -308.98514495435313,-139.78846684979646 -309.65501793539033,-142.2884668498209 -311.4851449542896,-144.11859386878456 -313.98514495429043,-144.78846684990975 -316.4851449543149,-144.11859386887255 -318.3152719732785,-142.2884668499733 -318.9851449544037,-139.78846684997245 -318.3152719733665,-137.288466849948 -316.4851449544673,-135.45833983098436 -313.9851449544664,-134.78846684985916" stroke="#ffa500" stroke-linecap="round" stroke-linejoin="round"/><polyline fill="none" points="-251.20395663329415,-119.33611228620089 -248.7039566332697,-120.0059852672381 -246.87382961430606,-121.83611228613735 -246.20395663318087,-124.33611228613822 -246.87382961421807,-126.83611228616266 -248.70395663311731,-128.6662393051263 -251.20395663311817,-129.3361122862515 -253.7039566331426,-128.6662393052143 -255.53408365210626,-126.83611228631506 -256.2039566332314,-124.33611228631419 -255.53408365219423,-121.83611228628975 -253.70395663329498,-120.0059852673261 -251.20395663329413,-119.33611228620092" stroke="#ffa500" stroke-linecap="round" stroke-linejoin="round"/><polyline fill="none" points="-366.6111092614806,-147.80676311183547 -364.11110926145614,-148.47663609287267 -362.2809822424925,-150.30676311177191 -361.6111092613673,-152.80676311177277 -362.2809822424045,-155.3067631117972 -364.11110926130374,-157.13689013076086 -366.6111092613046,-157.80676311188606 -369.11110926132903,-157.13689013084885 -370.9412362802927,-155.3067631119496 -371.6111092614179,-152.80676311194875 -370.9412362803807,-150.3067631119243 -369.11110926148143,-148.47663609296066 -366.6111092614806,-147.80676311183547" stroke="#008000" stroke-linecap="round" stroke-linejoin="round"/><polyline fill="none" points="-305.83410751004465,-89.706507626706 -303.3341075100202,-90.3763806077432 -301.50398049105655,-92.20650762664245 -300.83410750993136,-94.70650762664332 -301.50398049096856,-97.20650762666776 -303.3341075098678,-99.03663464563142 -305.83410750986866,-99.70650762675662 -308.3341075098931,-99.03663464571942 -310.16423452885675,-97.20650762682017 -310.83410750998195,-94.7065076268193 -310.16423452894475,-92.20650762679486 -308.3341075100455,-90.3763806078312 -305.83410751004465,-89.706507626706" stroke="#ffa500" stroke-linecap="round" stroke-linejoin="round"/><polyline fill="none" points="-283.88779292760887,-105.9945941393251 -281.3877929275844,-106.6644671203623 -279.5576659086208,-108.49459413926155 -278.8877929274956,-110.99459413926242 -279.5576659085328,-113.49459413928686 -281.38779292743203,-115.32472115825053 -283.8877929274329,-115.99459413937572 -286.3877929274573,-115.32472115833852 -288.217919946421,-113.49459413943927 -288.8877929275462,-110.9945941394384 -288.21791994650897,-108.49459413941396 -286.3877929276097,-106.6644671204503 -283.88779292760887,-105.9945941393251" stroke="#ffa500" stroke-linecap="round" stroke-linejoin="round"/><polyline fill="none" points="-223.8216922573951,-93.19728083800705 -221.32169225737067,-93.86715381904425 -219.49156523840702,-95.6972808379435 -218.82169225728182,-98.19728083794436 -219.49156523831903,-100.6972808379688 -221.32169225721827,-102.52740785693247 -223.82169225721913,-103.19728083805767 -226.32169225724357,-102.52740785702046 -228.15181927620725,-100.69728083812122 -228.82169225733244,-98.19728083812035 -228.15181927629524,-95.6972808380959 -226.321692257396,-93.86715381913224 -223.82169225739514,-93.19728083800705" stroke="#ffa500" stroke-linecap="round" stroke-linejoin="round"/><polyline fill="none" points="-308.6477702272697,-75.65107156446462 -306.14777022724525,-76.32094454550182 -304.3176432082816,-78.15107156440106 -303.6477702271564,-80.65107156440193 -304.3176432081936,-83.15107156442637 -306.14777022709285,-84.98119858339004 -308.6477702270937,-85.65107156451523 -311.14777022711814,-84.98119858347803 -312.9778972460818,-83.15107156457879 -313.647770227207,-80.65107156457792 -312.9778972461698,-78.15107156455348 -311.14777022727054,-76.32094454558981 -308.6477702272697,-75.65107156446462" stroke="#00f" stroke-linecap="round" stroke-linejoin="round"/><polyline fill="none" points="-345.4344408746359,-111.66555599658071 -342.9344408746115,-112.3354289776179 -341.10431385564783,-114.16555599651714 -340.43444087452264,-116.66555599651801 -341.10431385555984,-119.16555599654245 -342.9344408744591,-120.99568301550612 -345.43444087445994,-121.66555599663133 -347.9344408744844,-120.99568301559414 -349.76456789344803,-119.16555599669489 -350.4344408745732,-116.66555599669402 -349.764567893536,-114.16555599666958 -347.9344408746368,-112.33542897770592 -345.4344408746359,-111.66555599658071" stroke="#00f" stroke-linecap="round" stroke-linejoin="round"/><polyline fill="none" points="-344.52593130749517,-119.35157207990463 -342.0259313074707,-120.02144506094182 -340.1958042885071,-121.85157207984106 -339.5259313073819,-124.35157207984193 -340.1958042884191,-126.85157207986637 -342.02593130731833,-128.68169909883005 -344.5259313073192,-129.35157207995525 -347.0259313073436,-128.68169909891805 -348.8560583263073,-126.8515720800188 -349.5259313074325,-124.35157208001793 -348.85605832639527,-121.85157207999349 -347.025931307496,-120.02144506102981 -344.52593130749517,-119.3515720799046" stroke="#ffa500" stroke-linecap="round" stroke-linejoin="round"/><polyline fill="none" points="-211.2593890958932,-68.16376056923556 -208.75938909586876,-68.83363355027275 -206.92926207690508,-70.663760569172 -206.25938909577988,-73.16376056917287 -206.92926207681708,-75.66376056919731 -208.75938909571633,-77.49388758816099 -211.25938909571718,-78.1637605692862 -213.75938909574162,-77.49388758824901 -215.5895161147053,-75.66376056934976 -216.2593890958305,-73.1637605693489 -215.5895161147933,-70.66376056932445 -213.75938909589405,-68.83363355036077 -211.2593890958932,-68.16376056923556" stroke="#ffa500" stroke-linecap="round" stroke-linejoin="round"/><polyline fill="none" points="-170.05474203193327,17.83896104834045 -167.55474203190883,17.169088067303264 -165.72461501294515,15.338961048404023 -165.05474203181993,12.83896104840316 -165.7246150128571,10.33896104837871 -167.55474203175635,8.508834029415032 -170.0547420317572,7.838961048289821 -172.55474203178164,8.508834029327007 -174.38486905074532,10.338961048226246 -175.05474203187055,12.838961048227109 -174.38486905083337,15.338961048251559 -172.55474203193413,17.169088067215238 -170.05474203193327,17.83896104834045" stroke="#ffa500" stroke-linecap="round" stroke-linejoin="round"/><polyline fill="none" points="-328.91655894055435,-123.37336502534149 -326.4165589405299,-124.04323800637867 -324.5864319215662,-125.8733650252779 -323.916558940441,-128.37336502527876 -324.5864319214782,-130.8733650253032 -326.41655894037746,-132.70349204426688 -328.9165589403783,-133.3733650253921 -331.41655894040275,-132.70349204435493 -333.24668595936646,-130.87336502545568 -333.91655894049165,-128.37336502545483 -333.24668595945445,-125.87336502543037 -331.4165589405552,-124.0432380064667 -328.91655894055435,-123.37336502534149" stroke="#00f" stroke-linecap="round" stroke-linejoin="round"/><polyline fill="none" points="-365.6865073449429,-149.93739487108184 -363.1865073449185,-150.607267852119 -361.3563803259548,-152.43739487101826 -360.6865073448296,-154.9373948710191 -361.3563803258668,-157.43739487104355 -363.186507344766,-159.26752189000723 -365.6865073447669,-159.93739487113245 -368.1865073447913,-159.26752189009528 -370.01663436375503,-157.43739487119603 -370.6865073448802,-154.93739487119518 -370.016634363843,-152.43739487117074 -368.1865073449438,-150.60726785220706 -365.6865073449429,-149.93739487108184" stroke="#00f" stroke-linecap="round" stroke-linejoin="round"/><polyline fill="none" points="-188.95286322351214,68.2874571904504 -186.4528632234877,67.61758420941322 -184.62273620452402,65.78745719051399 -183.9528632233988,63.28745719051312 -184.62273620443597,60.78745719048867 -186.4528632233352,58.95733017152498 -188.95286322333607,58.28745719039976 -191.4528632233605,58.95733017143694 -193.2829902423242,60.78745719033618 -193.9528632234494,63.287457190337044 -193.28299024241224,65.7874571903615 -191.452863223513,67.61758420932517 -188.95286322351214,68.2874571904504" stroke="#ffa500" stroke-linecap="round" stroke-linejoin="round"/><polyline fill="none" points="-329.75382323946747,-112.14078622227048 -327.253823239443,-112.81065920330765 -325.4236962204793,-114.64078622220688 -324.7538232393541,-117.14078622220775 -325.4236962203913,-119.64078622223221 -327.25382323929057,-121.4709132411959 -329.7538232392914,-122.14078622232113 -332.25382323931586,-121.47091324128395 -334.0839502582796,-119.64078622238472 -334.75382323940477,-117.14078622238385 -334.08395025836757,-114.6407862223594 -332.2538232394683,-112.8106592033957 -329.75382323946747,-112.14078622227048" stroke="#ffa500" stroke-linecap="round" stroke-linejoin="round"/><polyline fill="none" points="-369.9525463616437,-159.23481079633981 -367.4525463616193,-159.904683777377 -365.6224193426556,-161.73481079627624 -364.9525463615303,-164.2348107962771 -365.6224193425675,-166.73481079630156 -367.4525463614668,-168.56493781526524 -369.9525463614676,-169.23481079639046 -372.45254636149207,-168.5649378153533 -374.2826733804558,-166.73481079645404 -374.952546361581,-164.2348107964532 -374.2826733805438,-161.73481079642872 -372.4525463616446,-159.90468377746504 -369.9525463616437,-159.23481079633981" stroke="#f00" stroke-linecap="round" stroke-linejoin="round"/><polyline fill="none" points="-339.7181503787938,-141.30207427340412 -337.21815037876934,-141.9719472544413 -335.38802335980563,-143.80207427334054 -334.7181503786804,-146.3020742733414 -335.3880233597176,-148.80207427336586 -337.2181503786168,-150.63220129232954 -339.7181503786177,-151.30207427345476 -342.2181503786421,-150.6322012924176 -344.04827739760583,-148.80207427351834 -344.7181503787311,-146.3020742735175 -344.04827739769394,-143.80207427349302 -342.2181503787947,-141.9719472545293 -339.71815037879384,-141.3020742734041" stroke="#008000" stroke-linecap="round" stroke-linejoin="round"/><polyline fill="none" points="-307.9430335064967,-68.58892364184295 -305.44303350647226,-69.25879662288013 -303.61290648750855,-71.08892364177936 -302.9430335063833,-73.58892364178023 -303.61290648742045,-76.08892364180468 -305.4430335063197,-77.91905066076838 -307.94303350632055,-78.5889236418936 -310.443033506345,-77.91905066085643 -312.2731605253087,-76.0889236419572 -312.94303350643395,-73.58892364195633 -312.2731605253968,-71.08892364193187 -310.44303350649756,-69.25879662296818 -307.9430335064967,-68.58892364184295" stroke="#ffa500" stroke-linecap="round" stroke-linejoin="round"/><polyline fill="none" points="-297.9761678518508,-81.5521744141312 -295.47616785182635,-82.22204739516837 -293.64604083286264,-84.05217441406761 -292.9761678517374,-86.55217441406847 -293.64604083277453,-89.05217441409293 -295.4761678516738,-90.88230143305663 -297.97616785167463,-91.55217441418186 -300.4761678516991,-90.88230143314469 -302.3062948706628,-89.05217441424546 -302.97616785178803,-86.55217441424459 -302.3062948707509,-84.05217441422013 -300.47616785185164,-82.22204739525644 -297.9761678518508,-81.5521744141312" stroke="#ffa500" stroke-linecap="round" stroke-linejoin="round"/><polyline fill="none" points="-216.83831612728537,40.2180171838044 -214.3383161272609,39.54814420276723 -212.5081891082972,37.71801718386801 -211.83831612717196,35.21801718386714 -212.50818910820914,32.718017183842676 -214.33831612710836,30.887890164878975 -216.8383161271092,30.21801718375374 -219.33831612713368,30.887890164790907 -221.1684431460974,32.71801718369014 -221.8383161272226,35.218017183691 -221.16844314618544,37.71801718371547 -219.33831612728622,39.54814420267917 -216.83831612728537,40.218017183804406" stroke="#00f" stroke-linecap="round" stroke-linejoin="round"/><polyline fill="none" points="-338.72043238467813,-104.11637932302484 -336.2204323846537,-104.786252304062 -334.39030536569,-106.61637932296124 -333.72043238456473,-109.1163793229621 -334.3903053656019,-111.61637932298657 -336.2204323845011,-113.44650634195028 -338.720432384502,-114.11637932307552 -341.2204323845264,-113.44650634203836 -343.0505594034901,-111.61637932313913 -343.7204323846154,-109.11637932313826 -343.05055940357823,-106.61637932311379 -341.220432384679,-104.78625230415008 -338.72043238467813,-104.11637932302484" stroke="#00f" stroke-linecap="round" stroke-linejoin="round"/><polyline fill="none" points="-217.84669056041375,-70.47221320779082 -215.34669056038928,-71.14208618882797 -213.51656354142557,-72.97221320772721 -212.84669056030032,-75.47221320772807 -213.5165635413375,-77.97221320775255 -215.3466905602367,-79.80234022671625 -217.84669056023756,-80.47221320784149 -220.34669056026203,-79.80234022680433 -222.17681757922574,-77.97221320790511 -222.846690560351,-75.47221320790425 -222.17681757931382,-72.97221320787978 -220.3466905604146,-71.14208618891607 -217.84669056041375,-70.47221320779083" stroke="#ffa500" stroke-linecap="round" stroke-linejoin="round"/><polyline fill="none" points="-314.6189518684385,-129.81656445261746 -312.11895186841406,-130.48643743365463 -310.28882484945035,-132.31656445255385 -309.6189518683251,-134.8165644525547 -310.28882484936224,-137.31656445257917 -312.1189518682615,-139.14669147154288 -314.61895186826234,-139.81656445266813 -317.1189518682868,-139.146691471631 -318.9490788872505,-137.31656445273177 -319.61895186837575,-134.81656445273092 -318.9490788873386,-132.31656445270644 -317.11895186843935,-130.48643743374274 -314.6189518684385,-129.81656445261748" stroke="#00f" stroke-linecap="round" stroke-linejoin="round"/><polyline fill="none" points="-303.7023311135421,-147.92793232764808 -301.20233111351763,-148.59780530868522 -299.3722040945539,-150.42793232758444 -298.70233111342867,-152.9279323275853 -299.3722040944658,-155.42793232760977 -301.20233111336506,-157.25805934657348 -303.7023311133659,-157.92793232769873 -306.20233111339036,-157.25805934666158 -308.03245813235407,-155.42793232776236 -308.7023311134793,-152.9279323277615 -308.0324581324422,-150.42793232773704 -306.2023311135429,-148.59780530877333 -303.7023311135421,-147.92793232764808" stroke="#ffa500" stroke-linecap="round" stroke-linejoin="round"/><polyline fill="none" points="-285.06078178524325,-72.11473773635926 -282.5607817852188,-72.78461071739642 -280.7306547662551,-74.61473773629564 -280.06078178512985,-77.1147377362965 -280.730654766167,-79.61473773632098 -282.56078178506624,-81.44486475528468 -285.0607817850671,-82.11473773640994 -287.56078178509154,-81.44486475537278 -289.39090880405524,-79.61473773647356 -290.0607817851805,-77.11473773647269 -289.39090880414335,-74.61473773644822 -287.5607817852441,-72.78461071748451 -285.06078178524325,-72.11473773635926" stroke="#ffa500" stroke-linecap="round" stroke-linejoin="round"/><polyline fill="none" points="-306.02482473238723,-141.26985959284076 -303.52482473236273,-141.9397325738779 -301.694697713399,-143.76985959277712 -301.02482473227377,-146.26985959277798 -301.6946977133109,-148.76985959280245 -303.52482473221016,-150.59998661176616 -306.024824732211,-151.2698595928914 -308.5248247322355,-150.59998661185426 -310.3549517511992,-148.76985959295504 -311.0248247323245,-146.2698595929542 -310.35495175128733,-143.76985959292972 -308.5248247323881,-141.939732573966 -306.02482473238723,-141.26985959284076" stroke="#ffa500" stroke-linecap="round" stroke-linejoin="round"/><polyline fill="none" points="-380.3031662201912,-165.53011604154466 -377.8031662201667,-166.1999890225818 -375.973039201203,-168.03011604148102 -375.30316622007774,-170.53011604148188 -375.9730392011149,-173.03011604150635 -377.80316622001413,-174.86024306047005 -380.303166220015,-175.5301160415953 -382.8031662200395,-174.86024306055816 -384.6332932390032,-173.03011604165894 -385.30316622012845,-170.5301160416581 -384.6332932390913,-168.03011604163362 -382.8031662201921,-166.1999890226699 -380.30316622019126,-165.53011604154466" stroke="#00f" stroke-linecap="round" stroke-linejoin="round"/><polyline fill="none" points="-264.7784150379052,-32.43333489668058 -262.2784150378807,-33.10320787771772 -260.44828801891697,-34.93333489661694 -259.7784150377917,-37.43333489661781 -260.44828801882886,-39.933334896642286 -262.27841503772805,-41.76346191560601 -264.7784150377289,-42.43333489673127 -267.2784150377534,-41.76346191569412 -269.1085420567171,-39.933334896794904 -269.77841503784236,-37.43333489679404 -269.1085420568052,-34.93333489676956 -267.27841503790603,-33.103207877805836 -264.7784150379052,-32.43333489668058" stroke="#ffa500" stroke-linecap="round" stroke-linejoin="round"/><polyline fill="none" points="-377.77178476351185,-178.76918672792 -375.27178476348735,-179.43905970895713 -373.44165774452364,-181.26918672785635 -372.7717847633984,-183.7691867278572 -373.44165774443553,-186.26918672788167 -375.2717847633347,-188.09931374684538 -377.7717847633356,-188.76918672797063 -380.2717847633601,-188.0993137469335 -382.1019117823238,-186.26918672803427 -382.77178476344903,-183.76918672803342 -382.1019117824119,-181.26918672800895 -380.2717847635127,-179.4390597090452 -377.77178476351185,-178.76918672791996" stroke="#ffa500" stroke-linecap="round" stroke-linejoin="round"/><polyline fill="none" points="62.089706053677425,-35.14810240957468 64.5897060537019,-35.81797539061183 66.41983307266563,-37.64810240951104 67.08970605379089,-40.14810240951191 66.41983307275375,-42.648102409536385 64.58970605385453,-44.47822942850011 62.08970605385366,-45.14810240962537 59.58970605382918,-44.47822942858823 57.75957903486546,-42.64810240968902 57.089706053740194,-40.14810240968815 57.75957903477734,-37.64810240966367 59.58970605367655,-35.81797539069994 62.08970605367742,-35.148102409574676" stroke="#ffa500" stroke-linecap="round" stroke-linejoin="round"/><polyline fill="none" points="-239.9743811927118,-93.9412249009514 -237.47438119268733,-94.61109788198854 -235.6442541737236,-96.44122490088776 -234.97438119259834,-98.94122490088863 -235.6442541736355,-101.44122490091311 -237.4743811925347,-103.27135191987684 -239.9743811925356,-103.9412249010021 -242.47438119256006,-103.27135191996496 -244.3045082115238,-101.44122490106574 -244.97438119264908,-98.94122490106487 -244.30450821161193,-96.44122490104039 -242.4743811927127,-94.61109788207666 -239.97438119271186,-93.9412249009514" stroke="#00f" stroke-linecap="round" stroke-linejoin="round"/><polyline fill="none" points="-352.68129416170143,-127.26681878960883 -350.18129416167693,-127.93669177064598 -348.3511671427132,-129.7668187895452 -347.68129416158797,-132.26681878954605 -348.3511671426251,-134.76681878957052 -350.1812941615243,-136.59694580853426 -352.68129416152516,-137.26681878965954 -355.18129416154966,-136.5969458086224 -357.01142118051337,-134.76681878972317 -357.6812941616386,-132.26681878972232 -357.0114211806015,-129.76681878969785 -355.1812941617023,-127.93669177073411 -352.68129416170143,-127.26681878960885" stroke="#00f" stroke-linecap="round" stroke-linejoin="round"/><polyline fill="none" points="-377.118257591042,-154.6199647570067 -374.6182575910175,-155.28983773804384 -372.7881305720538,-157.11996475694306 -372.1182575909285,-159.61996475694394 -372.78813057196567,-162.11996475696841 -374.61825759086486,-163.95009177593215 -377.1182575908657,-164.61996475705743 -379.6182575908902,-163.9500917760203 -381.4483846098539,-162.11996475712107 -382.11825759097917,-159.61996475712021 -381.448384609942,-157.11996475709574 -379.61825759104283,-155.289837738132 -377.118257591042,-154.61996475700673" stroke="#00f" stroke-linecap="round" stroke-linejoin="round"/><polyline fill="none" points="-187.79320647764277,55.66330427178401 -185.2932064776183,54.99343129074688 -183.46307945865456,53.163304271847664 -182.79320647752928,50.6633042718468 -183.46307945856643,48.16330427182231 -185.29320647746565,46.333177252858576 -187.7932064774665,45.6633042717333 -190.29320647749097,46.33317725277043 -192.1233334964547,48.163304271669645 -192.79320647758,50.66330427167051 -192.12333349654284,53.163304271695 -190.29320647764362,54.993431290658734 -187.79320647764277,55.66330427178401" stroke="#ffa500" stroke-linecap="round" stroke-linejoin="round"/><polyline fill="none" points="-329.30187540843764,-125.10241030816115 -326.80187540841314,-125.77228328919828 -324.97174838944943,-127.60241030809749 -324.3018754083242,-130.10241030809834 -324.9717483893613,-132.6024103081228 -326.8018754082605,-134.43253732708655 -329.30187540826137,-135.10241030821183 -331.80187540828587,-134.4325373271747 -333.63200242724963,-132.6024103082755 -334.3018754083749,-130.10241030827464 -333.63200242733774,-127.60241030825016 -331.80187540843855,-125.77228328928642 -329.3018754084377,-125.10241030816114" stroke="#ffa500" stroke-linecap="round" stroke-linejoin="round"/><polyline fill="none" points="-180.12996377101717,26.53493219727225 -177.62996377099267,25.865059216235124 -175.79983675202894,24.034932197335916 -175.12996377090366,21.53493219733505 -175.79983675194077,19.034932197310564 -177.62996377084,17.204805178346824 -180.12996377084085,16.534932197221544 -182.62996377086534,17.20480517825867 -184.46009078982908,19.03493219715788 -185.12996377095436,21.534932197158746 -184.46009078991725,24.03493219718323 -182.62996377101803,25.86505921614697 -180.12996377101717,26.53493219727225" stroke="#ffa500" stroke-linecap="round" stroke-linejoin="round"/><polyline fill="none" points="-192.9438368930349,66.48694344040356 -190.4438368930104,65.81707045936643 -188.61370987404666,63.98694344046723 -187.94383689292138,61.48694344046636 -188.6137098739585,58.98694344044188 -190.44383689285772,57.15681642147813 -192.94383689285857,56.48694344035285 -195.44383689288307,57.156816421389976 -197.2739639118468,58.98694344028918 -197.9438368929721,61.48694344029005 -197.27396391193497,63.98694344031453 -195.44383689303575,65.81707045927827 -192.9438368930349,66.48694344040355" stroke="#ffa500" stroke-linecap="round" stroke-linejoin="round"/><polyline fill="none" points="-215.0565383150168,-104.2844029793228 -212.5565383149923,-104.95427596035994 -210.72641129602857,-106.78440297925914 -210.0565383149033,-109.28440297926001 -210.7264112959404,-111.7844029792845 -212.5565383148396,-113.61452999824823 -215.05653831484045,-114.28440297937351 -217.55653831486495,-113.6145299983364 -219.3866653338287,-111.78440297943719 -220.05653831495397,-109.28440297943632 -219.38666533391685,-106.78440297941184 -217.55653831501766,-104.95427596044809 -215.0565383150168,-104.2844029793228" stroke="#00f" stroke-linecap="round" stroke-linejoin="round"/><polyline fill="none" points="-338.72257839113377,-146.32999974366436 -336.22257839110927,-146.99987272470148 -334.3924513721455,-148.82999974360067 -333.7225783910202,-151.32999974360152 -334.39245137205734,-153.82999974362602 -336.2225783909565,-155.66012676258975 -338.7225783909574,-156.32999974371504 -341.2225783909819,-155.66012676267792 -343.05270540994564,-153.82999974377873 -343.72257839107095,-151.32999974377788 -343.0527054100338,-148.82999974375338 -341.2225783911346,-146.99987272478964 -338.72257839113377,-146.32999974366436" stroke="#00f" stroke-linecap="round" stroke-linejoin="round"/><polyline fill="none" points="-378.7707242109988,-178.0554120660829 -376.2707242109743,-178.72528504712002 -374.44059719201056,-180.55541206601922 -373.77072421088525,-183.05541206602007 -374.4405971919224,-185.55541206604457 -376.2707242108216,-187.3855390850083 -378.77072421082244,-188.05541206613358 -381.27072421084694,-187.38553908509647 -383.1008512298107,-185.55541206619728 -383.770724210936,-183.05541206619642 -383.10085122989886,-180.55541206617193 -381.2707242109997,-178.7252850472082 -378.7707242109988,-178.0554120660829" stroke="#ffa500" stroke-linecap="round" stroke-linejoin="round"/><polyline fill="none" points="-273.86168797469116,-23.90776386674388 -271.36168797466667,-24.577636847780997 -269.5315609557029,-26.4077638666802 -268.8616879745776,-28.907763866681066 -269.5315609556147,-31.407763866705558 -271.36168797451387,-33.23789088566931 -273.8616879745147,-33.9077638667946 -276.3616879745392,-33.23789088575749 -278.191814993503,-31.40776386685829 -278.8616879746283,-28.907763866857422 -278.1918149935912,-26.40776386683293 -276.361687974692,-24.57763684786918 -273.86168797469116,-23.907763866743885" stroke="#ffa500" stroke-linecap="round" stroke-linejoin="round"/><polyline fill="none" points="-193.50474217247233,59.927552194960796 -191.00474217244783,59.25767921392368 -189.17461515348407,57.42755219502448 -188.50474217235876,54.927552195023615 -189.17461515339588,52.42755219499912 -191.00474217229507,50.59742517603537 -193.50474217229592,49.92755219491008 -196.00474217232042,50.597425175947194 -197.83486919128418,52.42755219484639 -198.5047421724095,54.92755219484726 -197.83486919137238,57.42755219487175 -196.0047421724732,59.2576792138355 -193.50474217247233,59.927552194960796" stroke="#ffa500" stroke-linecap="round" stroke-linejoin="round"/><polyline fill="none" points="-316.06399043294334,-73.89163356711097 -313.56399043291884,-74.56150654814809 -311.7338634139551,-76.39163356704728 -311.06399043282977,-78.89163356704815 -311.73386341386686,-81.39163356707265 -313.56399043276605,-83.2217605860364 -316.0639904327669,-83.89163356716169 -318.5639904327914,-83.22176058612457 -320.39411745175516,-81.39163356722538 -321.0639904328805,-78.89163356722452 -320.3941174518434,-76.39163356720002 -318.5639904329442,-74.56150654823627 -316.06399043294334,-73.89163356711097" stroke="#00f" stroke-linecap="round" stroke-linejoin="round"/><polyline fill="none" points="-285.2267484122465,-60.291162977136565 -282.726748412222,-60.961035958173674 -280.8966213932582,-62.79116297707287 -280.2267484121329,-65.29116297707374 -280.89662139317,-67.79116297709824 -282.7267484120692,-69.62128999606199 -285.22674841207004,-70.29116297718728 -287.72674841209454,-69.62128999615018 -289.5568754310583,-67.79116297725099 -290.2267484121836,-65.29116297725012 -289.5568754311465,-62.791162977225625 -287.72674841224733,-60.96103595826187 -285.2267484122465,-60.291162977136565" stroke="#ffa500" stroke-linecap="round" stroke-linejoin="round"/><polyline fill="none" points="-345.3676715615411,-163.64367800593905 -342.8676715615166,-164.31355098697617 -341.03754454255284,-166.14367800587536 -340.3676715614275,-168.6436780058762 -341.0375445424646,-171.1436780059007 -342.8676715613638,-172.97380502486448 -345.36767156136466,-173.64367800598978 -347.86767156138916,-172.97380502495267 -349.6977985803529,-171.14367800605348 -350.36767156147823,-168.64367800605262 -349.69779858044114,-166.14367800602813 -347.86767156154195,-164.31355098706436 -345.3676715615411,-163.64367800593905" stroke="#00f" stroke-linecap="round" stroke-linejoin="round"/><polyline fill="none" points="-324.7570165913783,-126.13311606045684 -322.2570165913538,-126.80298904149394 -320.42688957239005,-128.63311606039315 -319.75701659126474,-131.133116060394 -320.42688957230183,-133.6331160604185 -322.257016591201,-135.46324307938227 -324.7570165912019,-136.13311606050758 -327.2570165912264,-135.46324307947046 -329.08714361019014,-133.63311606057127 -329.75701659131545,-131.13311606057042 -329.08714361027836,-128.63311606054592 -327.25701659137917,-126.80298904158215 -324.7570165913783,-126.13311606045684" stroke="#ffa500" stroke-linecap="round" stroke-linejoin="round"/><polyline fill="none" points="-361.683628771602,-156.12484263016532 -359.1836287715775,-156.7947156112024 -357.35350175261374,-158.6248426301016 -356.68362877148843,-161.12484263010245 -357.3535017525255,-163.62484263012695 -359.1836287714247,-165.4549696490907 -361.68362877142556,-166.12484263021602 -364.18362877145006,-165.45496964917893 -366.0137557904138,-163.62484263027974 -366.68362877153913,-161.1248426302789 -366.01375579050205,-158.6248426302544 -364.18362877160286,-156.79471561129063 -361.683628771602,-156.12484263016532" stroke="#008000" stroke-linecap="round" stroke-linejoin="round"/><polyline fill="none" points="-175.63437868194103,21.56037592064221 -173.13437868191653,20.89050293960511 -171.30425166295277,19.06037592070592 -170.63437868182746,16.560375920705052 -171.30425166286454,14.06037592068055 -173.13437868176374,12.23024890171678 -175.6343786817646,11.560375920591468 -178.1343786817891,12.230248901628567 -179.96450570075285,14.060375920527758 -180.63437868187816,16.560375920528625 -179.96450570084107,19.060375920553128 -178.13437868194188,20.890502939516896 -175.63437868194103,21.56037592064221" stroke="#ffa500" stroke-linecap="round" stroke-linejoin="round"/><polyline fill="none" points="61.87966014825922,-41.86605552467806 64.37966014828372,-42.535928505715155 66.20978716724748,-44.366055524614346 66.87966014837279,-46.86605552461521 66.20978716733569,-49.36605552463972 64.3796601484365,-51.19618254360349 61.87966014843563,-51.86605552472881 59.379660148411126,-51.19618254369171 57.549533129447354,-49.36605552479252 56.87966014832204,-46.866055524791655 57.54953312935913,-44.36605552476715 59.379660148258324,-42.535928505803376 61.87966014825919,-41.86605552467806" stroke="#ffa500" stroke-linecap="round" stroke-linejoin="round"/><polyline fill="none" points="-318.3659285346678,-134.33015881142697 -315.8659285346433,-135.00003179246406 -314.0358015156795,-136.83015881136325 -313.3659285345542,-139.3301588113641 -314.0358015155913,-141.8301588113886 -315.8659285344905,-143.66028583035236 -318.36592853449133,-144.33015881147767 -320.86592853451583,-143.66028583044059 -322.6960555534796,-141.8301588115414 -323.3659285346049,-139.33015881154054 -322.6960555535678,-136.83015881151604 -320.8659285346686,-135.00003179255228 -318.3659285346678,-134.33015881142697" stroke="#ffa500" stroke-linecap="round" stroke-linejoin="round"/><polyline fill="none" points="-362.8625982133589,-136.61339904267803 -360.3625982133344,-137.2832720237151 -358.53247119437066,-139.1133990426143 -357.86259821324535,-141.61339904261516 -358.53247119428244,-144.11339904263966 -360.3625982131816,-145.94352606160342 -362.8625982131825,-146.61339904272873 -365.362598213207,-145.94352606169164 -367.19272523217074,-144.11339904279245 -367.86259821329605,-141.6133990427916 -367.19272523225897,-139.1133990427671 -365.3625982133598,-137.28327202380333 -362.8625982133589,-136.61339904267803" stroke="#00f" stroke-linecap="round" stroke-linejoin="round"/><polyline fill="none" points="-381.538975461347,-186.22172035887803 -379.0389754613225,-186.89159333991512 -377.2088484423587,-188.7217203588143 -376.5389754612334,-191.22172035881516 -377.2088484422705,-193.72172035883966 -379.0389754611697,-195.55184737780343 -381.53897546117054,-196.22172035892876 -384.03897546119504,-195.55184737789168 -385.8691024801588,-193.72172035899248 -386.5389754612841,-191.22172035899163 -385.869102480247,-188.72172035896713 -384.03897546134783,-186.89159334000337 -381.538975461347,-186.22172035887803" stroke="#ffa500" stroke-linecap="round" stroke-linejoin="round"/><polyline fill="none" points="-373.81558094900544,-165.29470579571426 -371.31558094898094,-165.96457877675135 -369.4854539300172,-167.79470579565054 -368.81558094889186,-170.2947057956514 -369.48545392992895,-172.7947057956759 -371.31558094882814,-174.62483281463966 -373.815580948829,-175.294705795765 -376.3155809488535,-174.6248328147279 -378.14570796781726,-172.79470579582872 -378.81558094894257,-170.29470579582787 -378.1457079679055,-167.79470579580337 -376.3155809490063,-165.96457877683957 -373.81558094900544,-165.29470579571424" stroke="#008000" stroke-linecap="round" stroke-linejoin="round"/><polyline fill="none" points="-271.28345454186353,-31.18752060003255 -268.78345454183903,-31.857393581069633 -266.95332752287527,-33.68752059996881 -266.28345454174996,-36.18752059996968 -266.95332752278705,-38.687520599994194 -268.78345454168624,-40.51764761895797 -271.2834545416871,-41.1875206000833 -273.7834545417116,-40.51764761904622 -275.61358156067536,-38.68752060014704 -276.28345454180067,-36.18752060014617 -275.6135815607636,-33.68752060012166 -273.7834545418644,-31.857393581157876 -271.28345454186353,-31.187520600032546" stroke="#ffa500" stroke-linecap="round" stroke-linejoin="round"/><polyline fill="none" points="-295.91614188006895,-58.83838415300264 -293.41614188004445,-59.508257134039724 -291.5860148610807,-61.33838415293891 -290.9161418799554,-63.838384152939774 -291.58601486099246,-66.33838415296428 -293.41614187989165,-68.16851117192806 -295.9161418798925,-68.8383841530534 -298.416141879917,-68.16851117201631 -300.24626889888077,-66.33838415311713 -300.9161418800061,-63.838384153116266 -300.246268898969,-61.33838415309175 -298.4161418800698,-59.508257134127966 -295.91614188006895,-58.838384153002636" stroke="#ffa500" stroke-linecap="round" stroke-linejoin="round"/><polyline fill="none" points="-341.6085304400119,-154.99876937393677 -339.1085304399874,-155.66864235497385 -337.27840342102365,-157.49876937387305 -336.60853043989835,-159.9987693738739 -337.27840342093543,-162.49876937389843 -339.1085304398346,-164.32889639286222 -341.6085304398355,-164.99876937398756 -344.10853043986,-164.32889639295047 -345.93865745882374,-162.49876937405128 -346.60853043994905,-159.99876937405043 -345.93865745891196,-157.4987693740259 -344.10853044001277,-155.6686423550621 -341.6085304400119,-154.99876937393677" stroke="#ffa500" stroke-linecap="round" stroke-linejoin="round"/><polyline fill="none" points="-351.0750863115387,-139.79335144719033 -348.5750863115142,-140.46322442822742 -346.74495929255045,-142.2933514471266 -346.07508631142514,-144.79335144712746 -346.7449592924622,-147.293351447152 -348.5750863113614,-149.12347846611578 -351.07508631136227,-149.79335144724112 -353.57508631138677,-149.12347846620403 -355.40521333035053,-147.29335144730484 -356.0750863114759,-144.793351447304 -355.4052133304388,-142.29335144727946 -353.5750863115396,-140.46322442831567 -351.07508631153877,-139.79335144719033" stroke="#00f" stroke-linecap="round" stroke-linejoin="round"/><polyline fill="none" points="-353.72659917674747,-152.75976756076415 -351.22659917672297,-153.42964054180123 -349.3964721577592,-155.25976756070042 -348.72659917663384,-157.75976756070128 -349.3964721576709,-160.2597675607258 -351.2265991765701,-162.0898945796896 -353.72659917657097,-162.75976756081494 -356.22659917659547,-162.08989457977785 -358.05672619555924,-160.2597675608787 -358.7265991766846,-157.75976756087783 -358.0567261956475,-155.2597675608533 -356.2265991767483,-153.4296405418895 -353.72659917674747,-152.75976756076417" stroke="#00f" stroke-linecap="round" stroke-linejoin="round"/><polyline fill="none" points="-197.22606905107548,-88.90633736064618 -194.72606905105096,-89.57621034168325 -192.89594203208716,-91.40633736058243 -192.22606905096183,-93.9063373605833 -192.89594203199889,-96.40633736060781 -194.72606905089805,-98.2364643795716 -197.2260690508989,-98.90633736069694 -199.72606905092343,-98.23646437965986 -201.55619606988722,-96.40633736076069 -202.22606905101256,-93.90633736075982 -201.5561960699755,-91.40633736073531 -199.72606905107634,-89.57621034177151 -197.22606905107548,-88.90633736064616" stroke="#ffa500" stroke-linecap="round" stroke-linejoin="round"/><polyline fill="none" points="-323.7888384932105,-129.29022945624342 -321.288838493186,-129.96010243728048 -319.4587114742222,-131.79022945617965 -318.7888384930968,-134.2902294561805 -319.4587114741339,-136.79022945620503 -321.2888384930331,-138.62035647516882 -323.78883849303395,-139.29022945629416 -326.28883849305845,-138.6203564752571 -328.11896551202227,-136.79022945635793 -328.78883849314764,-134.29022945635708 -328.11896551211055,-131.79022945633255 -326.28883849321136,-129.96010243736876 -323.7888384932105,-129.29022945624342" stroke="#ffa500" stroke-linecap="round" stroke-linejoin="round"/><polyline fill="none" points="-290.8804172271539,-62.39854052380622 -288.3804172271294,-63.068413504843285 -286.55029020816556,-64.89854052374245 -285.8804172270402,-67.39854052374332 -286.5502902080773,-69.89854052376785 -288.3804172269765,-71.72866754273164 -290.88041722697733,-72.398540523857 -293.38041722700183,-71.72866754281992 -295.21054424596565,-69.89854052392074 -295.880417227091,-67.39854052391988 -295.2105442460539,-64.89854052389535 -293.38041722715474,-63.06841350493155 -290.8804172271539,-62.3985405238062" stroke="#ffa500" stroke-linecap="round" stroke-linejoin="round"/><polyline fill="none" points="-306.99801176788986,-139.46119067618756 -304.49801176786536,-140.13106365722462 -302.66788474890154,-141.96119067612378 -301.9980117677762,-144.46119067612463 -302.66788474881326,-146.96119067614916 -304.49801176771246,-148.79131769511295 -306.9980117677133,-149.46119067623832 -309.4980117677378,-148.79131769520126 -311.32813878670163,-146.9611906763021 -311.998011767827,-144.46119067630124 -311.3281387867899,-141.96119067627671 -309.4980117678907,-140.13106365731292 -306.99801176788986,-139.46119067618756" stroke="#00f" stroke-linecap="round" stroke-linejoin="round"/><polyline fill="none" points="-206.4638112789986,-0.3141902121638447 -203.96381127897408,-0.9840631932009082 -202.13368426001028,-2.8141902121000784 -201.46381127888492,-5.314190212100945 -202.13368425992198,-7.814190212125468 -203.96381127882114,-9.644317231089271 -206.463811278822,-10.314190212214626 -208.96381127884652,-9.644317231177563 -210.7939382978103,-7.814190212278394 -211.46381127893568,-5.314190212277528 -210.79393829789862,-2.8141902122530036 -208.96381127899946,-0.9840631932891988 -206.4638112789986,-0.314190212163843" stroke="#00f" stroke-linecap="round" stroke-linejoin="round"/><polyline fill="none" points="-305.3287180708967,-82.95394045459443 -302.8287180708722,-83.62381343563149 -300.99859105190836,-85.45394045453065 -300.328718070783,-87.95394045453152 -300.9985910518201,-90.45394045455605 -302.8287180707193,-92.28406747351985 -305.32871807072013,-92.9539404546452 -307.8287180707446,-92.28406747360815 -309.65884508970845,-90.45394045470898 -310.3287180708338,-87.95394045470812 -309.6588450897968,-85.45394045468359 -307.8287180708976,-83.62381343571978 -305.32871807089674,-82.95394045459443" stroke="#ffa500" stroke-linecap="round" stroke-linejoin="round"/><polyline fill="none" points="-371.43943913521906,-148.98081210481047 -368.93943913519456,-149.65068508584753 -367.10931211623074,-151.4808121047467 -366.4394391351054,-153.98081210474754 -367.1093121161424,-156.48081210477207 -368.9394391350416,-158.3109391237359 -371.43943913504245,-158.98081210486126 -373.93943913506695,-158.3109391238242 -375.76956615403077,-156.48081210492504 -376.43943913515614,-153.98081210492418 -375.7695661541191,-151.48081210489966 -373.9394391352199,-149.65068508593583 -371.43943913521906,-148.98081210481047" stroke="#008000" stroke-linecap="round" stroke-linejoin="round"/><polyline fill="none" points="-357.69169828935435,-139.54870773649012 -355.19169828932985,-140.21858071752717 -353.361571270366,-142.04870773642634 -352.69169828924066,-144.5487077364272 -353.3615712702777,-147.04870773645172 -355.1916982891769,-148.87883475541554 -357.69169828917774,-149.5487077365409 -360.19169828920224,-148.87883475550385 -362.02182530816606,-147.04870773660468 -362.6916982892914,-144.54870773660383 -362.0218253082544,-142.0487077365793 -360.1916982893552,-140.21858071761548 -357.69169828935435,-139.54870773649012" stroke="#ffa500" stroke-linecap="round" stroke-linejoin="round"/><polyline fill="none" points="383.4393073829748,-174.19110059928573 385.93930738299935,-174.8609735803228 387.76943440196317,-176.69110059922195 388.43930738308853,-179.1911005992228 387.7694344020515,-181.69110059924733 385.9393073831523,-183.52122761821116 383.43930738315146,-184.19110059933652 380.9393073831269,-183.52122761829946 379.1091803641631,-181.6911005994003 378.4393073830377,-179.19110059939945 379.10918036407475,-176.69110059937492 380.93930738297394,-174.8609735804111 383.4393073829748,-174.19110059928573" stroke="#ffa500" stroke-linecap="round" stroke-linejoin="round"/></svg>