<?xml version="1.0" ?><!DOCTYPE svg  PUBLIC '-//W3C//DTD SVG 1.1//EN'  'http://www.w3.org/Graphics/SVG/1.1/DTD/svg11.dtd'><svg height="287.000" viewBox="-409.000 -209.000 831.000 287.000" width="831.000" xmlns="http://www.w3.org/2000/svg"><line fill="none" stroke="none" stroke-linecap="round" stroke-width="2.0" x1="0.0" x2="0.0" y1="0.0" y2="0.0"/><polygon fill="none" fill-rule="evenodd" points="0.0,0.0 0.0,0.0 0.0,0.0" stroke-linejoin="round"/><polyline fill="none" points="-377.3483809426098,-150.18654486336249 -374.84838094258515,-150.8564178443993 -373.01825392362105,-152.6865448632983 -372.3483809424954,-155.1865448632992 -373.0182539235322,-157.6865448633239 -374.8483809424312,-159.51667188228797 -377.3483809424321,-160.18654486341364 -379.84838094245674,-159.51667188237684 -381.67850796142085,-157.68654486347782 -382.3483809425465,-155.18654486347694 -381.6785079615097,-152.68654486345224 -379.8483809426107,-150.85641784448816 -377.3483809426098,-150.18654486336249" stroke="#00f" stroke-linecap="round" stroke-linejoin="round"/><polyline fill="none" points="-360.9233234428328,-161.48186757691812 -358.4233234428081,-162.15174055795492 -356.593196423844,-163.98186757685394 -355.92332344271836,-166.48186757685482 -356.59319642375516,-168.98186757687952 -358.4233234426542,-170.8119945958436 -360.92332344265503,-171.48186757696928 -363.4233234426797,-170.81199459593248 -365.2534504616438,-168.98186757703346 -365.92332344276946,-166.48186757703257 -365.25345046173265,-163.98186757700788 -363.42332344283363,-162.1517405580438 -360.9233234428328,-161.48186757691812" stroke="#008000" stroke-linecap="round" stroke-linejoin="round"/><polyline fill="none" points="-280.4277324661248,-131.0820224129167 -277.9277324661001,-131.7518953939535 -276.097605447136,-133.58202241285252 -275.42773246601035,-136.0820224128534 -276.09760544704716,-138.5820224128781 -277.9277324659462,-140.41214943184218 -280.42773246594703,-141.08202241296786 -282.9277324659717,-140.41214943193108 -284.7578594849358,-138.58202241303206 -285.42773246606146,-136.08202241303118 -284.75785948502465,-133.58202241300648 -282.92773246612563,-131.7518953940424 -280.4277324661248,-131.08202241291673" stroke="#ffa500" stroke-linecap="round" stroke-linejoin="round"/><polyline fill="none" points="-366.4594726699702,-163.5336229052682 -363.9594726699455,-164.20349588630498 -362.1293456509814,-166.033622905204 -361.4594726698557,-168.53362290520488 -362.1293456508925,-171.03362290522958 -363.9594726697915,-172.86374992419366 -366.4594726697924,-173.53362290531933 -368.95947266981705,-172.86374992428256 -370.78959968878115,-171.03362290538354 -371.45947266990686,-168.53362290538266 -370.78959968887006,-166.03362290535796 -368.95947266997103,-164.20349588639385 -366.4594726699702,-163.53362290526817" stroke="#008000" stroke-linecap="round" stroke-linejoin="round"/><polyline fill="none" points="-373.18955941910133,-140.2062221584436 -370.68955941907666,-140.87609513948038 -368.85943240011255,-142.7062221583794 -368.18955941898685,-145.20622215838029 -368.85943240002365,-147.70622215840498 -370.68955941892267,-149.5363491773691 -373.1895594189235,-150.20622215849477 -375.6895594189482,-149.536349177458 -377.5196864379123,-147.70622215855897 -378.189559419038,-145.2062221585581 -377.5196864380012,-142.7062221585334 -375.6895594191022,-140.8760951395693 -373.18955941910133,-140.2062221584436" stroke="#00f" stroke-linecap="round" stroke-linejoin="round"/><polyline fill="none" points="-390.9454929736441,-186.13414767070867 -388.44549297361937,-186.80402065174545 -386.61536595465526,-188.63414767064447 -385.94549297352955,-191.13414767064535 -386.61536595456636,-193.63414767067005 -388.4454929734654,-195.46427468963415 -390.94549297346623,-196.13414767075983 -393.44549297349096,-195.46427468972306 -395.27561999245506,-193.63414767082404 -395.94549297358077,-191.13414767082315 -395.27561999254397,-188.63414767079846 -393.44549297364495,-186.80402065183435 -390.9454929736441,-186.13414767070867" stroke="#00f" stroke-linecap="round" stroke-linejoin="round"/><polyline fill="none" points="385.09542052836565,-168.65997095829383 387.5954205283904,-169.3298439393306 389.4255475473545,-171.15997095822962 390.0954205284802,-173.6599709582305 389.4255475474434,-176.1599709582552 387.59542052854437,-177.9900979772193 385.0954205285435,-178.65997095834499 382.5954205285188,-177.9900979773082 380.7652935095547,-176.1599709584092 380.095420528429,-173.6599709584083 380.7652935094658,-171.1599709583836 382.5954205283648,-169.3298439394195 385.09542052836565,-168.65997095829383" stroke="#ffa500" stroke-linecap="round" stroke-linejoin="round"/><polyline fill="none" points="-363.4466674934503,-148.48482266237215 -360.9466674934256,-149.15469564340893 -359.1165404744615,-150.98482266230795 -358.4466674933358,-153.48482266230883 -359.1165404743726,-155.98482266233353 -360.9466674932716,-157.81494968129763 -363.44666749327246,-158.4848226624233 -365.9466674932972,-157.81494968138654 -367.7767945122613,-155.98482266248752 -368.446667493387,-153.48482266248664 -367.7767945123502,-150.98482266246194 -365.9466674934512,-149.15469564349783 -363.4466674934503,-148.48482266237212" stroke="#00f" stroke-linecap="round" stroke-linejoin="round"/><polyline fill="none" points="67.35769690416586,-45.337784547042254 69.85769690419056,-46.00765752807903 71.68782392315467,-47.83778454697804 72.35769690428036,-50.337784546978924 71.68782392324358,-52.83778454700363 69.85769690434458,-54.667911565967735 67.3576969043437,-55.33778454709343 64.857696904319,-54.66791156605665 63.02756988535489,-52.83778454715764 62.3576969042292,-50.33778454715676 63.027569885265976,-47.83778454713205 64.85769690416498,-46.00765752816795 67.35769690416586,-45.337784547042254" stroke="#ffa500" stroke-linecap="round" stroke-linejoin="round"/><polyline fill="none" points="404.6527911008295,-179.86801867215905 407.15279110085424,-180.53789165319583 408.98291811981835,-182.36801867209485 409.65279110094406,-184.86801867209573 408.9829181199073,-187.36801867212043 407.1527911010083,-189.19814569108453 404.65279110100744,-189.86801867221024 402.1527911009827,-189.19814569117347 400.3226640820186,-187.36801867227445 399.6527911008929,-184.86801867227356 400.32266408192964,-182.36801867224887 402.15279110082867,-180.53789165328476 404.6527911008295,-179.86801867215905" stroke="#00f" stroke-linecap="round" stroke-linejoin="round"/><polyline fill="none" points="-383.20697848312415,-176.58001462603838 -380.7069784830994,-177.24988760707515 -378.8768514641353,-179.08001462597417 -378.2069784830096,-181.58001462597505 -378.87685146404635,-184.08001462599975 -380.7069784829454,-185.91014164496386 -383.2069784829463,-186.58001462608956 -385.706978482971,-185.9101416450528 -387.5371055019351,-184.08001462615377 -388.2069784830608,-181.5800146261529 -387.5371055020241,-179.0800146261282 -385.70697848312506,-177.24988760716408 -383.2069784831242,-176.58001462603838" stroke="#00f" stroke-linecap="round" stroke-linejoin="round"/><polyline fill="none" points="-307.7113910328286,-101.8644232590605 -305.2113910328039,-102.53429624009728 -303.38126401383977,-104.36442325899628 -302.71139103271406,-106.86442325899716 -303.3812640137508,-109.36442325902188 -305.21139103264983,-111.19455027798598 -307.7113910326507,-111.86442325911169 -310.2113910326754,-111.19455027807493 -312.0415180516395,-109.36442325917592 -312.7113910327652,-106.86442325917504 -312.0415180517285,-104.36442325915033 -310.21139103282945,-102.53429624018621 -307.7113910328286,-101.8644232590605" stroke="#00f" stroke-linecap="round" stroke-linejoin="round"/><polyline fill="none" points="-336.1113247004617,-160.3016023430458 -333.61132470043697,-160.97147532408258 -331.78119768147286,-162.8016023429816 -331.11132470034715,-165.30160234298248 -331.7811976813839,-167.80160234300718 -333.6113247002829,-169.63172936197128 -336.11132470028383,-170.301602343097 -338.61132470030856,-169.6317293620602 -340.44145171927266,-167.8016023431612 -341.11132470039837,-165.3016023431603 -340.4414517193616,-162.80160234313558 -338.6113247004626,-160.97147532417148 -336.1113247004617,-160.30160234304577" stroke="#ffa500" stroke-linecap="round" stroke-linejoin="round"/><polyline fill="none" points="-287.0215803491959,-59.18637902697914 -284.5215803491712,-59.85625200801591 -282.6914533302071,-61.68637902691491 -282.0215803490814,-64.1863790269158 -282.6914533301181,-66.68637902694051 -284.52158034901714,-68.51650604590463 -287.02158034901805,-69.18637902703034 -289.5215803490428,-68.51650604599358 -291.3517073680069,-66.68637902709457 -292.0215803491326,-64.1863790270937 -291.35170736809584,-61.68637902706898 -289.5215803491968,-59.85625200810486 -287.0215803491959,-59.186379026979154" stroke="#ffa500" stroke-linecap="round" stroke-linejoin="round"/><polyline fill="none" points="-285.8590552688563,-124.98996375786942 -283.3590552688316,-125.65983673890618 -281.5289282498675,-127.48996375780519 -280.85905526874177,-129.98996375780607 -281.5289282497785,-132.4899637578308 -283.35905526867754,-134.32009077679493 -285.85905526867845,-134.98996375792063 -288.3590552687032,-134.3200907768839 -290.1891822876673,-132.4899637579849 -290.859055268793,-129.98996375798401 -290.18918228775624,-127.4899637579593 -288.3590552688572,-125.65983673899518 -285.8590552688563,-124.98996375786948" stroke="#ffa500" stroke-linecap="round" stroke-linejoin="round"/><polyline fill="none" points="-387.8250597727861,-184.02752321981308 -385.3250597727614,-184.69739620084982 -383.4949327537973,-186.52752321974882 -382.8250597726716,-189.0275232197497 -383.4949327537083,-191.52752321977442 -385.32505977260735,-193.35765023873856 -387.82505977260826,-194.02752321986426 -390.325059772633,-193.35765023882752 -392.1551867915971,-191.52752321992853 -392.8250597727228,-189.02752321992764 -392.15518679168605,-186.52752321990292 -390.32505977278703,-184.69739620093878 -387.8250597727861,-184.02752321981308" stroke="#00f" stroke-linecap="round" stroke-linejoin="round"/><polyline fill="none" points="-317.3004924036976,-138.74774012702204 -314.8004924036729,-139.4176131080588 -312.97036538470877,-141.24774012695778 -312.30049240358306,-143.74774012695866 -312.9703653846198,-146.2477401269834 -314.80049240351883,-148.07786714594752 -317.30049240351974,-148.74774012707323 -319.80049240354447,-148.07786714603648 -321.6306194225086,-146.2477401271375 -322.3004924036343,-143.7477401271366 -321.63061942259753,-141.24774012711188 -319.8004924036985,-139.41761310814775 -317.3004924036976,-138.74774012702204" stroke="#00f" stroke-linecap="round" stroke-linejoin="round"/><polyline fill="none" points="-304.89041362638227,-57.665617261236584 -302.39041362635754,-58.33549024227334 -300.56028660739344,-60.165617261172336 -299.89041362626773,-62.66561726117322 -300.5602866073045,-65.16561726119794 -302.3904136262035,-66.99574428016207 -304.8904136262044,-67.66561726128779 -307.39041362622913,-66.99574428025103 -309.22054064519324,-65.16561726135203 -309.89041362631895,-62.665617261351144 -309.2205406452822,-60.165617261326425 -307.3904136263832,-58.3354902423623 -304.89041362638227,-57.66561726123658" stroke="#ffa500" stroke-linecap="round" stroke-linejoin="round"/><polyline fill="none" points="-393.33219360505143,-188.0521301222206 -390.8321936050267,-188.72200310325735 -389.0020665860626,-190.55213012215634 -388.3321936049369,-193.05213012215722 -389.00206658597364,-195.55213012218195 -390.83219360487266,-197.38225714114608 -393.33219360487357,-198.05213012227182 -395.8321936048983,-197.38225714123507 -397.6623206238624,-195.55213012233608 -398.3321936049881,-193.0521301223352 -397.66232062395136,-190.55213012231047 -395.83219360505234,-188.72200310334634 -393.33219360505143,-188.0521301222206" stroke="#00f" stroke-linecap="round" stroke-linejoin="round"/><polyline fill="none" points="36.91565054409874,-55.57314963038256 39.415650544123466,-56.24302261141931 41.2457775630876,-58.07314963031831 41.91565054421332,-60.57314963031919 41.245777563176574,-63.07314963034392 39.415650544277575,-64.90327664930805 36.915650544276694,-65.57314963043378 34.41565054425197,-64.90327664939703 32.58552352528783,-63.07314963049803 31.91565054416211,-60.57314963049715 32.58552352519886,-58.07314963047242 34.41565054409786,-56.24302261150829 36.91565054409874,-55.57314963038256" stroke="#00f" stroke-linecap="round" stroke-linejoin="round"/><polyline fill="none" points="-317.4795178854274,-122.9090717931281 -314.9795178854027,-123.57894477416485 -313.1493908664385,-125.40907179306384 -312.4795178853128,-127.90907179306473 -313.14939086634956,-130.40907179308945 -314.9795178852486,-132.2391988120536 -317.4795178852495,-132.90907179317932 -319.9795178852742,-132.23919881214258 -321.8096449042384,-130.40907179324358 -322.4795178853641,-127.9090717932427 -321.80964490432734,-125.40907179321798 -319.9795178854283,-123.57894477425384 -317.4795178854274,-122.9090717931281" stroke="#ffa500" stroke-linecap="round" stroke-linejoin="round"/><polyline fill="none" points="-349.0256942117346,-150.65601709738615 -346.5256942117099,-151.3258900784229 -344.6955671927457,-153.1560170973219 -344.02569421162,-155.65601709732277 -344.69556719265677,-158.1560170973475 -346.5256942115558,-159.98614411631164 -349.0256942115567,-160.65601709743737 -351.5256942115814,-159.98614411640062 -353.3558212305456,-158.15601709750163 -354.0256942116713,-155.65601709750075 -353.35582123063455,-153.15601709747602 -351.5256942117355,-151.3258900785119 -349.0256942117346,-150.65601709738615" stroke="#ffa500" stroke-linecap="round" stroke-linejoin="round"/><polyline fill="none" points="-270.83123466429134,-120.83634331911719 -268.3312346642666,-121.50621630015394 -266.50110764530245,-123.33634331905293 -265.83123466417675,-125.83634331905381 -266.5011076452135,-128.33634331907854 -268.3312346641125,-130.16647033804267 -270.8312346641134,-130.8363433191684 -273.33123466413815,-130.16647033813166 -275.1613616831023,-128.33634331923267 -275.831234664228,-125.83634331923179 -275.1613616831913,-123.33634331920706 -273.33123466429225,-121.50621630024291 -270.83123466429134,-120.83634331911718" stroke="#ffa500" stroke-linecap="round" stroke-linejoin="round"/><polyline fill="none" points="-376.65830233919877,-151.48615220455184 -374.15830233917404,-152.1560251855886 -372.3281753202099,-153.98615220448758 -371.6583023390841,-156.48615220448846 -372.32817532012086,-158.9861522045132 -374.1583023390199,-160.81627922347732 -376.6583023390208,-161.48615220460306 -379.1583023390455,-160.8162792235663 -380.9884293580097,-158.98615220466732 -381.65830233913545,-156.48615220466644 -380.9884293580987,-153.9861522046417 -379.1583023391997,-152.15602518567758 -376.65830233919877,-151.48615220455184" stroke="#00f" stroke-linecap="round" stroke-linejoin="round"/><polyline fill="none" points="-199.86373692863137,52.847312819457834 -197.36373692860664,52.177439838421094 -195.5336099096425,50.3473128195221 -194.86373692851677,47.84731281952122 -195.53360990955352,45.34731281949649 -197.3637369284525,43.51718580053234 -199.8637369284534,42.847312819406596 -202.36373692847812,43.517185800443336 -204.19386394744225,45.34731281934233 -204.863736928568,47.84731281934321 -204.19386394753124,50.34731281936794 -202.36373692863225,52.17743983833209 -199.86373692863137,52.847312819457834" stroke="#ffa500" stroke-linecap="round" stroke-linejoin="round"/><polyline fill="none" points="-288.56494141528486,-114.80423366327285 -286.06494141526014,-115.47410664430959 -284.234814396296,-117.30423366320858 -283.5649414151702,-119.80423366320946 -284.23481439620696,-122.30423366323419 -286.0649414151059,-124.13436068219833 -288.56494141510683,-124.80423366332407 -291.06494141513156,-124.13436068228734 -292.8950684340957,-122.30423366338835 -293.5649414152215,-119.80423366338746 -292.89506843418474,-117.30423366336274 -291.0649414152858,-115.47410664439859 -288.56494141528486,-114.80423366327284" stroke="#ffa500" stroke-linecap="round" stroke-linejoin="round"/><polyline fill="none" points="381.8283205099807,-175.23407795360868 384.3283205100054,-175.90395093464542 386.1584475289696,-177.7340779535444 386.82832051009535,-180.2340779535453 386.1584475290586,-182.73407795357002 384.32832051015964,-184.56420497253418 381.82832051015873,-185.23407795365992 379.328320510134,-184.56420497262317 377.49819349116984,-182.73407795372418 376.8283205100441,-180.2340779537233 377.4981934910808,-177.73407795369857 379.3283205099798,-175.9039509347344 381.8283205099807,-175.23407795360868" stroke="#ffa500" stroke-linecap="round" stroke-linejoin="round"/><polyline fill="none" points="-308.9825662843519,-156.26290813043934 -306.48256628432716,-156.93278111147606 -304.652439265363,-158.76290813037505 -303.98256628423724,-161.26290813037593 -304.652439265274,-163.76290813040066 -306.48256628417295,-165.59303514936482 -308.98256628417386,-166.26290813049056 -311.4825662841986,-165.59303514945384 -313.31269330316275,-163.76290813055485 -313.9825662842885,-161.26290813055397 -313.31269330325176,-158.76290813052924 -311.4825662843528,-156.93278111156508 -308.9825662843519,-156.26290813043934" stroke="#ffa500" stroke-linecap="round" stroke-linejoin="round"/><polyline fill="none" points="-217.70184037167985,-78.52949115705282 -215.20184037165512,-79.19936413808955 -213.37171335269096,-81.02949115698854 -212.70184037156523,-83.52949115698942 -213.37171335260194,-86.02949115701416 -215.20184037150094,-87.85961817597831 -217.70184037150182,-88.52949115710406 -220.20184037152654,-87.85961817606733 -222.0319673904907,-86.02949115716834 -222.70184037161647,-83.52949115716746 -222.03196739057975,-81.02949115714271 -220.20184037168076,-79.19936413817855 -217.70184037167988,-78.5294911570528" stroke="#ffa500" stroke-linecap="round" stroke-linejoin="round"/><polyline fill="none" points="-339.22928655179476,-130.85609832302677 -336.72928655177003,-131.5259713040635 -334.89915953280587,-133.35609832296248 -334.2292865516801,-135.85609832296336 -334.89915953271685,-138.3560983229881 -336.7292865516158,-140.18622534195225 -339.2292865516167,-140.85609832307802 -341.72928655164145,-140.1862253420413 -343.5594135706056,-138.3560983231423 -344.2292865517314,-135.85609832314142 -343.55941357069463,-133.3560983231167 -341.72928655179567,-131.52597130415253 -339.22928655179476,-130.85609832302677" stroke="#ffa500" stroke-linecap="round" stroke-linejoin="round"/><polyline fill="none" points="-268.74242063916745,-114.71449436790296 -266.2424206391427,-115.38436734893968 -264.41229362017856,-117.21449436783865 -263.7424206390528,-119.71449436783954 -264.41229362008954,-122.21449436786428 -266.2424206389885,-124.04462138682844 -268.7424206389894,-124.71449436795419 -271.24242063901414,-124.04462138691747 -273.0725476579783,-122.21449436801849 -273.74242063910407,-119.71449436801761 -273.0725476580673,-117.21449436799287 -271.24242063916836,-115.38436734902871 -268.74242063916745,-114.71449436790294" stroke="#ffa500" stroke-linecap="round" stroke-linejoin="round"/><polyline fill="none" points="-317.50663319764874,-138.08032775596732 -315.006633197624,-138.75020073700404 -313.17650617865985,-140.58032775590303 -312.5066331975341,-143.0803277559039 -313.17650617857083,-145.58032775592864 -315.0066331974698,-147.4104547748928 -317.5066331974707,-148.08032775601856 -320.00663319749543,-147.41045477498184 -321.8367602164596,-145.58032775608285 -322.50663319758536,-143.08032775608197 -321.8367602165486,-140.58032775605722 -320.00663319764965,-138.75020073709305 -317.50663319764874,-138.0803277559673" stroke="#00f" stroke-linecap="round" stroke-linejoin="round"/><polyline fill="none" points="-308.3359038368851,-61.026287303020126 -305.8359038368604,-61.696160284056845 -304.0057768178962,-63.52628730295583 -303.33590383677046,-66.02628730295672 -304.0057768178072,-68.52628730298146 -305.83590383670617,-70.35641432194562 -308.3359038367071,-71.02628730307138 -310.8359038367318,-70.35641432203467 -312.66603085569596,-68.52628730313569 -313.3359038368217,-66.02628730313481 -312.666030855785,-63.52628730311007 -310.835903836886,-61.696160284145904 -308.3359038368851,-61.02628730302014" stroke="#00f" stroke-linecap="round" stroke-linejoin="round"/><polyline fill="none" points="-184.3086242434316,15.389396161101892 -181.80862424340685,14.719523180065174 -179.9784972244427,12.889396161166193 -179.30862424331693,10.389396161165308 -179.97849722435365,7.889396161140564 -181.80862424325264,6.0592691421763964 -184.30862424325352,5.389396161050633 -186.80862424327827,6.0592691420873495 -188.63875126224244,7.88939616098633 -189.3086242433682,10.389396160987214 -188.63875126233148,12.889396161011959 -186.8086242434325,14.719523179976127 -184.3086242434316,15.389396161101892" stroke="#ffa500" stroke-linecap="round" stroke-linejoin="round"/><polyline fill="none" points="-174.94015033013983,23.908068622374078 -172.44015033011507,23.238195641337363 -170.6100233111509,21.408068622438382 -169.94015033002515,18.908068622437497 -170.61002331106187,16.408068622412753 -172.44015032996086,14.577941603448583 -174.94015032996174,13.908068622322816 -177.4401503299865,14.57794160335953 -179.27027734895066,16.40806862225851 -179.94015033007642,18.908068622259396 -179.2702773490397,21.408068622284144 -177.4401503301407,23.238195641248318 -174.94015033013983,23.90806862237409" stroke="#ffa500" stroke-linecap="round" stroke-linejoin="round"/><polyline fill="none" points="388.3695898329002,-181.51082753396938 390.86958983292493,-182.1807005150061 392.6997168518891,-184.0108275339051 393.36958983301486,-186.51082753390597 392.69971685197817,-189.01082753393072 390.8695898330792,-190.84095455289489 388.3695898330783,-191.51082753402065 385.86958983305357,-190.84095455298393 384.0394628140894,-189.01082753408494 383.36958983296364,-186.51082753408406 384.03946281400033,-184.0108275340593 385.8695898328993,-182.18070051509514 388.3695898329002,-181.51082753396938" stroke="#ffa500" stroke-linecap="round" stroke-linejoin="round"/><polyline fill="none" points="-287.30112054754244,-52.76719721348541 -284.8011205475177,-53.43707019452212 -282.97099352855355,-55.2671972134211 -282.3011205474278,-57.76719721342199 -282.9709935284645,-60.267197213446735 -284.80112054736344,-62.09732423241091 -287.30112054736435,-62.76719721353668 -289.8011205473891,-62.09732423249997 -291.63124756635324,-60.267197213600994 -292.301120547479,-57.767197213600106 -291.6312475664423,-55.26719721357536 -289.80112054754335,-53.43707019461118 -287.30112054754244,-52.7671972134854" stroke="#ffa500" stroke-linecap="round" stroke-linejoin="round"/><polyline fill="none" points="56.29060118810286,-47.221818265390056 58.79060118812761,-47.89169124642677 60.62072820709179,-49.721818265325744 61.290601188217565,-52.22181826532663 60.62072820718086,-54.72181826535138 58.79060118828188,-56.55194528431556 56.290601188280995,-57.221818265441335 53.79060118825625,-56.55194528440463 51.96047416929207,-54.721818265505654 51.29060118816629,-52.221818265504766 51.960474169202996,-49.72181826548001 53.790601188101974,-47.89169124651583 56.29060118810286,-47.221818265390056" stroke="#ffa500" stroke-linecap="round" stroke-linejoin="round"/><polyline fill="none" points="390.6711268015652,-169.8443293907766 393.17112680158993,-170.51420237181333 395.0012538205541,-172.3443293907123 395.67112680167986,-174.84432939071317 395.00125382064317,-177.34432939073793 393.1711268017442,-179.17445640970212 390.6711268017433,-179.8443293908279 388.1711268017186,-179.1744564097912 386.3409997827544,-177.34432939089223 385.67112680162865,-174.84432939089135 386.34099978266534,-172.3443293908666 388.1711268015643,-170.5142023719024 390.6711268015652,-169.8443293907766" stroke="#ffa500" stroke-linecap="round" stroke-linejoin="round"/><polyline fill="none" points="66.03136563310481,-36.64890114361586 68.53136563312957,-37.31877412465256 70.36149265209374,-39.148901143551534 71.03136563321952,-41.64890114355242 70.36149265218282,-44.14890114357718 68.53136563328384,-45.97902816254136 66.03136563328296,-46.64890114366714 63.531365633258204,-45.979028162630435 61.70123861429402,-44.148901143731464 61.031365633168235,-41.648901143730576 61.70123861420494,-39.14890114370582 63.53136563310391,-37.31877412474164 66.0313656331048,-36.64890114361585" stroke="#ffa500" stroke-linecap="round" stroke-linejoin="round"/><polyline fill="none" points="-259.5038439706234,-126.01810843591247 -257.00384397059867,-126.68798141694917 -255.17371695163447,-128.51810843584815 -254.50384397050868,-131.01810843584903 -255.17371695154537,-133.51810843587378 -257.00384397044434,-135.34823545483798 -259.50384397044525,-136.01810843596377 -262.00384397047,-135.34823545492708 -263.83397098943414,-133.51810843602811 -264.5038439705599,-131.01810843602723 -263.8339709895232,-128.51810843600248 -262.00384397062425,-126.68798141703829 -259.50384397062334,-126.01810843591251" stroke="#ffa500" stroke-linecap="round" stroke-linejoin="round"/><polyline fill="none" points="-318.00453005918763,-136.6981066295519 -315.50453005916285,-137.36797961058858 -313.6744030401987,-139.19810662948754 -313.0045300590729,-141.69810662948842 -313.6744030401096,-144.19810662951318 -315.5045300590086,-146.02823364847737 -318.0045300590095,-146.69810662960316 -320.50453005903427,-146.02823364856647 -322.33465707799843,-144.1981066296675 -323.0045300591242,-141.69810662966663 -322.3346570780875,-139.19810662964187 -320.50453005918854,-137.36797961067768 -318.00453005918763,-136.6981066295519" stroke="#ffa500" stroke-linecap="round" stroke-linejoin="round"/><polyline fill="none" points="-258.5516206004707,-121.71040993251638 -256.0516206004459,-122.38028291355309 -254.22149358148172,-124.21040993245205 -253.55162060035593,-126.71040993245293 -254.22149358139262,-129.2104099324777 -256.0516206002916,-131.04053695144188 -258.5516206002925,-131.71040993256767 -261.0516206003173,-131.04053695153098 -262.88174761928144,-129.21040993263202 -263.5516206004072,-126.71040993263114 -262.8817476193705,-124.21040993260638 -261.05162060047155,-122.38028291364219 -258.55162060047064,-121.7104099325164" stroke="#ffa500" stroke-linecap="round" stroke-linejoin="round"/><polyline fill="none" points="-371.75950933268217,-150.28809296058563 -369.2595093326574,-150.95796594162232 -367.42938231369317,-152.78809296052128 -366.7595093325674,-155.28809296052216 -367.4293823136041,-157.78809296054692 -369.25950933250306,-159.6182199795111 -371.75950933250397,-160.2880929606369 -374.25950933252875,-159.6182199796002 -376.08963635149297,-157.78809296070125 -376.7595093326188,-155.28809296070037 -376.0896363515821,-152.7880929606756 -374.25950933268314,-150.95796594171142 -371.7595093326822,-150.28809296058563" stroke="#008000" stroke-linecap="round" stroke-linejoin="round"/><polyline fill="none" points="-310.65133810469825,-91.85418829366755 -308.15133810467347,-92.52406127470424 -306.32121108570925,-94.3541882936032 -305.65133810458343,-96.85418829360408 -306.3212110856201,-99.35418829362884 -308.1513381045191,-101.18431531259303 -310.65133810452,-101.85418829371882 -313.1513381045448,-101.18431531268213 -314.981465123509,-99.35418829378317 -315.6513381046348,-96.85418829378229 -314.9814651235981,-94.35418829375753 -313.15133810469916,-92.52406127479334 -310.65133810469825,-91.85418829366755" stroke="#ffa500" stroke-linecap="round" stroke-linejoin="round"/><polyline fill="none" points="-289.8629141955086,-108.44416186492427 -287.3629141954838,-109.11403484596096 -285.5327871765196,-110.94416186485992 -284.8629141953938,-113.4441618648608 -285.5327871764305,-115.94416186488556 -287.36291419532944,-117.77428888384975 -289.86291419533035,-118.44416186497554 -292.36291419535513,-117.77428888393885 -294.19304121431935,-115.94416186503989 -294.86291419544517,-113.444161865039 -294.1930412144085,-110.94416186501425 -292.3629141955095,-109.11403484605006 -289.8629141955086,-108.44416186492427" stroke="#ffa500" stroke-linecap="round" stroke-linejoin="round"/><polyline fill="none" points="-227.29065699967995,-95.73542846864403 -224.7906569996552,-96.40530144968072 -222.960529980691,-98.23542846857968 -222.29065699956521,-100.73542846858057 -222.9605299806019,-103.23542846860533 -224.79065699950087,-105.06555548756954 -227.29065699950175,-105.73542846869535 -229.7906569995265,-105.06555548765866 -231.6207840184907,-103.2354284687597 -232.2906569996165,-100.73542846875881 -231.6207840185798,-98.23542846873404 -229.79065699968083,-96.40530144976984 -227.29065699967995,-95.73542846864403" stroke="#ffa500" stroke-linecap="round" stroke-linejoin="round"/><polyline fill="none" points="-312.2446304074883,-77.60066898244952 -309.7446304074635,-78.27054196348621 -307.91450338849927,-80.10066898238517 -307.24463040737345,-82.60066898238605 -307.91450338841014,-85.10066898241082 -309.7446304073091,-86.93079600137503 -312.24463040731,-87.60066898250084 -314.7446304073348,-86.93079600146415 -316.574757426299,-85.10066898256518 -317.24463040742484,-82.6006689825643 -316.57475742638815,-80.10066898253953 -314.7446304074892,-78.27054196357533 -312.2446304074883,-77.60066898244952" stroke="#00f" stroke-linecap="round" stroke-linejoin="round"/><polyline fill="none" points="-350.08687575428394,-114.16940500691997 -347.58687575425915,-114.83927798795665 -345.75674873529493,-116.66940500685561 -345.0868757541691,-119.1694050068565 -345.7567487352058,-121.66940500688126 -347.58687575410477,-123.49953202584547 -350.0868757541057,-124.16940500697127 -352.58687575413046,-123.4995320259346 -354.4170027730947,-121.66940500703564 -355.0868757542205,-119.16940500703475 -354.4170027731838,-116.66940500700998 -352.58687575428485,-114.83927798804578 -350.08687575428394,-114.16940500691997" stroke="#00f" stroke-linecap="round" stroke-linejoin="round"/><polyline fill="none" points="-349.8741679264881,-122.12351640954152 -347.3741679264633,-122.7933893905782 -345.5440409074991,-124.62351640947716 -344.8741679263733,-127.12351640947804 -345.54404090740996,-129.6235164095028 -347.3741679263089,-131.45364342846702 -349.87416792630984,-132.12351640959284 -352.3741679263346,-131.45364342855615 -354.20429494529884,-129.62351640965719 -354.87416792642466,-127.1235164096563 -354.20429494538797,-124.62351640963153 -352.374167926489,-122.79338939066733 -349.8741679264881,-122.12351640954152" stroke="#ffa500" stroke-linecap="round" stroke-linejoin="round"/><polyline fill="none" points="-215.4497541090025,-71.34884876088617 -212.94975410897774,-72.01872174192285 -211.11962709001352,-73.84884876082181 -210.4497541088877,-76.34884876082269 -211.1196270899244,-78.84884876084746 -212.94975410882336,-80.67897577981167 -215.44975410882424,-81.34884876093747 -217.949754108849,-80.6789757799008 -219.7798811278132,-78.84884876100183 -220.44975410893903,-76.34884876100095 -219.77988112790234,-73.84884876097618 -217.94975410900338,-72.01872174201198 -215.4497541090025,-71.34884876088617" stroke="#ffa500" stroke-linecap="round" stroke-linejoin="round"/><polyline fill="none" points="-174.9367263676784,16.155705134013804 -172.43672636765365,15.485832152977128 -170.60659934868943,13.655705134078172 -169.9367263675636,11.155705134077287 -170.60659934860027,8.655705134052518 -172.43672636749923,6.825578115088307 -174.9367263675001,6.155705133962494 -177.4367263675249,6.8255781149991686 -179.26685338648912,8.655705133898126 -179.93672636761494,11.15570513389901 -179.26685338657828,13.655705133923782 -177.4367263676793,15.485832152887994 -174.93672636767843,16.155705134013807" stroke="#ffa500" stroke-linecap="round" stroke-linejoin="round"/><polyline fill="none" points="-334.6635567823487,-125.89096167290967 -332.1635567823239,-126.56083465394634 -330.3334297633597,-128.3909616728453 -329.66355678223385,-130.89096167284617 -330.33342976327054,-133.39096167287096 -332.1635567821695,-135.22108869183518 -334.6635567821704,-135.890961672961 -337.1635567821952,-135.22108869192434 -338.9936838011594,-133.39096167302537 -339.66355678228524,-130.8909616730245 -338.99368380124855,-128.3909616729997 -337.1635567823496,-126.56083465403549 -334.6635567823487,-125.89096167290967" stroke="#00f" stroke-linecap="round" stroke-linejoin="round"/><polyline fill="none" points="-371.3094138378632,-152.4453167455749 -368.8094138378384,-153.11518972661156 -366.9792868188742,-154.94531674551052 -366.30941383774837,-157.4453167455114 -366.97928681878506,-159.9453167455362 -368.809413837684,-161.7754437645004 -371.30941383768493,-162.44531674562623 -373.8094138377097,-161.77544376458957 -375.63954085667393,-159.9453167456906 -376.30941383779975,-157.44531674568972 -375.63954085676306,-154.94531674566494 -373.8094138378641,-153.11518972670072 -371.3094138378632,-152.4453167455749" stroke="#00f" stroke-linecap="round" stroke-linejoin="round"/><polyline fill="none" points="-193.0342660621351,65.83724886536609 -190.5342660621103,65.16737588432943 -188.70413904314609,63.33724886543048 -188.03426606202027,60.83724886542959 -188.70413904305693,58.33724886540482 -190.5342660619559,56.5071218464406 -193.03426606195677,55.83724886531478 -195.53426606198155,56.507121846351446 -197.36439308094577,58.337248865250395 -198.0342660620716,60.83724886525128 -197.36439308103493,63.33724886527606 -195.53426606213597,65.16737588424027 -193.0342660621351,65.83724886536609" stroke="#ffa500" stroke-linecap="round" stroke-linejoin="round"/><polyline fill="none" points="-335.1521567957329,-115.38094682016828 -332.6521567957081,-116.05081980120494 -330.8220297767439,-117.88094682010389 -330.15215679561805,-120.38094682010477 -330.82202977665474,-122.88094682012954 -332.6521567955537,-124.71107383909376 -335.1521567955546,-125.38094682021958 -337.6521567955794,-124.71107383918292 -339.4822838145436,-122.88094682028397 -340.15215679566944,-120.38094682028309 -339.48228381463275,-117.8809468202583 -337.6521567957338,-116.05081980129408 -335.1521567957329,-115.38094682016826" stroke="#ffa500" stroke-linecap="round" stroke-linejoin="round"/><polyline fill="none" points="-375.5203788295412,-161.50221271975826 -373.0203788295164,-162.17208570079492 -371.1902518105522,-164.0022127196939 -370.52037882942636,-166.50221271969477 -371.19025181046305,-169.00221271971955 -373.020378829362,-170.83233973868377 -375.5203788293629,-171.5022127198096 -378.0203788293877,-170.83233973877293 -379.85050584835193,-169.00221271987397 -380.52037882947775,-166.50221271987309 -379.8505058484411,-164.0022127198483 -378.02037882954215,-162.17208570088408 -375.52037882954124,-161.50221271975826" stroke="#f00" stroke-linecap="round" stroke-linejoin="round"/><polyline fill="none" points="-345.8939167163205,-143.7301917321671 -343.39391671629573,-144.40006471320376 -341.5637896973315,-146.2301917321027 -340.8939167162057,-148.73019173210358 -341.5637896972423,-151.23019173212836 -343.3939167161413,-153.06031875109258 -345.8939167161422,-153.7301917322184 -348.393916716167,-153.06031875118174 -350.2240437351312,-151.2301917322828 -350.893916716257,-148.73019173228192 -350.2240437352204,-146.23019173225714 -348.3939167163214,-144.40006471329292 -345.8939167163205,-143.7301917321671" stroke="#008000" stroke-linecap="round" stroke-linejoin="round"/><polyline fill="none" points="-312.5624695586406,-72.71720622192188 -310.0624695586158,-73.38707920295855 -308.2323425396516,-75.2172062218575 -307.5624695585258,-77.71720622185838 -308.2323425395624,-80.21720622188316 -310.0624695584614,-82.0473332408474 -312.5624695584623,-82.71720622197323 -315.06246955848707,-82.04733324093657 -316.8925965774513,-80.21720622203762 -317.5624695585771,-77.71720622203674 -316.8925965775405,-75.21720622201195 -315.0624695586415,-73.38707920304772 -312.5624695586406,-72.71720622192188" stroke="#ffa500" stroke-linecap="round" stroke-linejoin="round"/><polyline fill="none" points="-303.5303885459085,-84.46464370334229 -301.03038854588374,-85.13451668437895 -299.2002615269195,-86.9646437032779 -298.5303885457937,-89.46464370327878 -299.20026152683033,-91.96464370330357 -301.0303885457293,-93.7947707222678 -303.5303885457302,-94.46464370339363 -306.030388545755,-93.79477072235697 -307.8605155647192,-91.96464370345802 -308.530388545845,-89.46464370345714 -307.8605155648084,-86.96464370343236 -306.03038854590943,-85.13451668446812 -303.5303885459085,-84.46464370334229" stroke="#ffa500" stroke-linecap="round" stroke-linejoin="round"/><polyline fill="none" points="-220.9652528975352,38.26683698063868 -218.46525289751042,37.596963999602025 -216.6351258785462,35.76683698070308 -215.96525289742036,33.266836980702195 -216.63512587845702,30.76683698067741 -218.46525289735595,28.936709961713177 -220.96525289735683,28.26683698058734 -223.46525289738162,28.936709961623993 -225.29537991634584,30.76683698052294 -225.9652528974717,33.26683698052383 -225.29537991643502,35.76683698054861 -223.4652528975361,37.596963999512845 -220.9652528975352,38.266836980638686" stroke="#00f" stroke-linecap="round" stroke-linejoin="round"/><polyline fill="none" points="-343.60916473165025,-106.93799663977654 -341.10916473162547,-107.60786962081319 -339.27903771266125,-109.43799663971214 -338.60916473153543,-111.93799663971302 -339.27903771257206,-114.4379966397378 -341.109164731471,-116.26812365870204 -343.60916473147194,-116.93799663982787 -346.1091647314967,-116.26812365879123 -347.93929175046094,-114.43799663989228 -348.60916473158676,-111.9379966398914 -347.9392917505501,-109.43799663986661 -346.10916473165116,-107.60786962090238 -343.60916473165025,-106.93799663977653" stroke="#00f" stroke-linecap="round" stroke-linejoin="round"/><polyline fill="none" points="-221.41923765021033,-73.4407934070716 -218.91923765018555,-74.11066638810824 -217.0891106312213,-75.94079340700719 -216.41923765009545,-78.44079340700807 -217.08911063113212,-80.94079340703286 -218.91923765003105,-82.77092042599709 -221.41923765003193,-83.44079340712294 -223.91923765005671,-82.77092042608629 -225.74936466902096,-80.94079340718736 -226.4192376501468,-78.44079340718648 -225.74936466911015,-75.94079340716169 -223.91923765021122,-74.11066638819746 -221.41923765021033,-73.44079340707161" stroke="#ffa500" stroke-linecap="round" stroke-linejoin="round"/><polyline fill="none" points="-320.84481281003696,-132.13628925107946 -318.3448128100122,-132.8061622321161 -316.51468579104795,-134.63628925101503 -315.84481280992213,-137.1362892510159 -316.51468579095877,-139.6362892510407 -318.34481280985773,-141.46641627000494 -320.84481280985864,-142.1362892511308 -323.3448128098834,-141.46641627009416 -325.17493982884764,-139.63628925119522 -325.84481280997346,-137.13628925119434 -325.17493982893683,-134.63628925116956 -323.34481281003787,-132.8061622322053 -320.84481281003696,-132.13628925107946" stroke="#00f" stroke-linecap="round" stroke-linejoin="round"/><polyline fill="none" points="-309.38387298243754,-150.27486357339833 -306.88387298241275,-150.94473655443497 -305.05374596344853,-152.7748635733339 -304.3838729823227,-155.27486357333478 -305.05374596335935,-157.77486357335957 -306.8838729822583,-159.60499059232382 -309.3838729822592,-160.27486357344966 -311.883872982284,-159.60499059241303 -313.7140000012482,-157.7748635735141 -314.3838729823741,-155.27486357351322 -313.71400000133747,-152.77486357348843 -311.8838729824385,-150.94473655452418 -309.3838729824376,-150.27486357339833" stroke="#ffa500" stroke-linecap="round" stroke-linejoin="round"/><polyline fill="none" points="-288.89145908215414,-73.1496043430712 -286.39145908212936,-73.81947732410785 -284.56133206316514,-75.64960434300679 -283.89145908203926,-78.14960434300767 -284.5613320630759,-80.64960434303245 -286.39145908197486,-82.4797313619967 -288.89145908197577,-83.14960434312255 -291.39145908200055,-82.4797313620859 -293.22158610096477,-80.64960434318697 -293.89145908209065,-78.14960434318608 -293.221586101054,-75.6496043431613 -291.39145908215505,-73.81947732419705 -288.89145908215414,-73.1496043430712" stroke="#ffa500" stroke-linecap="round" stroke-linejoin="round"/><polyline fill="none" points="-310.7908021306293,-142.57161454652234 -308.2908021306045,-143.24148752755897 -306.4606751116403,-145.0716145464579 -305.7908021305144,-147.5716145464588 -306.46067511155104,-150.07161454648357 -308.29080213045,-151.90174156544782 -310.7908021304509,-152.57161454657367 -313.2908021304757,-151.90174156553704 -315.1209291494399,-150.0716145466381 -315.7908021305658,-147.57161454663722 -315.12092914952916,-145.07161454661244 -313.29080213063025,-143.2414875276482 -310.79080213062934,-142.57161454652234" stroke="#ffa500" stroke-linecap="round" stroke-linejoin="round"/><polyline fill="none" points="-385.7883726866948,-167.64206465073804 -383.28837268667,-168.31193763177467 -381.45824566770574,-170.1420646506736 -380.78837268657986,-172.64206465067448 -381.4582456676165,-175.14206465069927 -383.2883726865154,-176.97219166966352 -385.7883726865163,-177.64206465078937 -388.2883726865411,-176.97219166975273 -390.11849970550537,-175.1420646508538 -390.78837268663125,-172.64206465085292 -390.1184997055946,-170.14206465082813 -388.2883726866957,-168.31193763186388 -385.7883726866948,-167.64206465073804" stroke="#00f" stroke-linecap="round" stroke-linejoin="round"/><polyline fill="none" points="-270.06756126147786,-35.53337033147456 -267.5675612614531,-36.20324331251119 -265.7374342424888,-38.033370331410126 -265.0675612613629,-40.533370331411014 -265.73743424239956,-43.033370331435805 -267.56756126129847,-44.86349735040006 -270.0675612612994,-45.53337033152592 -272.56756126132416,-44.86349735048929 -274.39768828028843,-43.033370331590355 -275.0675612614143,-40.53337033158947 -274.3976882803777,-38.03337033156467 -272.5675612614788,-36.203243312600414 -270.06756126147786,-35.53337033147455" stroke="#ffa500" stroke-linecap="round" stroke-linejoin="round"/><polyline fill="none" points="-383.2104727663273,-180.64510888008553 -380.71047276630253,-181.31498186112216 -378.88034574733825,-183.1451088800211 -378.2104727662124,-185.64510888002198 -378.880345747249,-188.14510888004676 -380.7104727661479,-189.975235899011 -383.2104727661488,-190.6451088801369 -385.7104727661736,-189.97523589910026 -387.5405997851379,-188.14510888020132 -388.21047276626376,-185.64510888020044 -387.54059978522713,-183.14510888017566 -385.7104727663282,-181.3149818612114 -383.2104727663273,-180.64510888008553" stroke="#ffa500" stroke-linecap="round" stroke-linejoin="round"/><polyline fill="none" points="61.654457267305425,-37.54143596557761 64.15445726733022,-38.21130894661424 65.98458428629448,-40.041435965513166 66.65445726742034,-42.541435965514054 65.98458428638371,-45.04143596553885 64.15445726748477,-46.87156298450311 61.654457267483885,-47.54143596562898 59.15445726745909,-46.87156298459235 57.32433024849483,-45.041435965693424 56.65445726736896,-42.541435965692536 57.32433024840559,-40.04143596566774 59.154457267304515,-38.21130894670348 61.6544572673054,-37.54143596557761" stroke="#ffa500" stroke-linecap="round" stroke-linejoin="round"/><polyline fill="none" points="-243.79896864342436,-96.55401264004276 -241.29896864339958,-97.22388562107939 -239.46884162443533,-99.05401263997832 -238.79896864330945,-101.5540126399792 -239.46884162434608,-104.054012640004 -241.29896864324502,-105.88413965896827 -243.7989686432459,-106.55401264009413 -246.2989686432707,-105.8841396590575 -248.12909566223496,-104.05401264015856 -248.79896864336084,-101.55401264015768 -248.1290956623242,-99.05401264013288 -246.29896864342527,-97.22388562116862 -243.7989686434244,-96.55401264004274" stroke="#00f" stroke-linecap="round" stroke-linejoin="round"/><polyline fill="none" points="-358.08567630016324,-130.0215598493232 -355.58567630013846,-130.69143283035984 -353.7555492811742,-132.52155984925878 -353.0856763000483,-135.02155984925966 -353.75554928108494,-137.52155984928447 -355.58567629998385,-139.35168686824872 -358.08567629998475,-140.0215598493746 -360.58567630000954,-139.35168686833796 -362.4158033189738,-137.52155984943903 -363.0856763000997,-135.02155984943815 -362.41580331906306,-132.52155984941334 -360.58567630016415,-130.69143283044906 -358.08567630016324,-130.02155984932318" stroke="#00f" stroke-linecap="round" stroke-linejoin="round"/><polyline fill="none" points="-382.53605251452933,-156.97226623295407 -380.03605251450455,-157.6421392139907 -378.20592549554027,-159.47226623288964 -377.5360525144144,-161.97226623289052 -378.205925495451,-164.47226623291533 -380.03605251434993,-166.3023932518796 -382.53605251435084,-166.97226623300548 -385.0360525143756,-166.30239325196885 -386.8661795333399,-164.47226623306992 -387.5360525144658,-161.97226623306904 -386.86617953342915,-159.47226623304422 -385.03605251453024,-157.64213921407995 -382.53605251452933,-156.97226623295407" stroke="#00f" stroke-linecap="round" stroke-linejoin="round"/><polyline fill="none" points="-191.983372627972,54.39710551143589 -189.48337262794718,53.72723253039927 -187.6532456089829,51.89710551150034 -186.98337262785702,49.397105511499454 -187.65324560889366,46.89710551147465 -189.4833726277926,45.06697849251038 -191.98337262779347,44.3971055113845 -194.48337262781828,45.06697849242112 -196.31349964678256,46.89710551132005 -196.98337262790844,49.39710551132094 -196.31349964687183,51.89710551134574 -194.4833726279729,53.72723253031001 -191.98337262797202,54.39710551143589" stroke="#ffa500" stroke-linecap="round" stroke-linejoin="round"/><polyline fill="none" points="-333.06383422512573,-127.3113360283136 -330.56383422510095,-127.98120900935022 -328.73370720613667,-129.81133602824914 -328.0638342250108,-132.31133602825003 -328.7337072060474,-134.81133602827484 -330.56383422494633,-136.6414630472391 -333.06383422494724,-137.311336028365 -335.563834224972,-136.6414630473284 -337.3939612439363,-134.81133602842945 -338.0638342250622,-132.31133602842857 -337.39396124402555,-129.81133602840376 -335.56383422512664,-127.98120900943948 -333.06383422512573,-127.3113360283136" stroke="#ffa500" stroke-linecap="round" stroke-linejoin="round"/><polyline fill="none" points="-184.06700083126836,24.036087856431767 -181.56700083124355,23.36621487539515 -179.73687381227927,21.53608785649623 -179.0670008311534,19.036087856495346 -179.73687381219,16.53608785647054 -181.56700083108893,14.70596083750627 -184.0670008310898,14.036087856380387 -186.56700083111463,14.705960837417 -188.3971278500789,16.536087856315923 -189.06700083120478,19.036087856316808 -188.39712785016818,21.536087856341613 -186.56700083126924,23.366214875305886 -184.06700083126836,24.03608785643177" stroke="#ffa500" stroke-linecap="round" stroke-linejoin="round"/><polyline fill="none" points="-196.65092938958816,64.20560391112912 -194.15092938956334,63.535730930092505 -192.32080237059907,61.705603911193585 -191.6509293894732,59.205603911192696 -192.3208023705098,56.70560391116789 -194.1509293894087,54.875476892203615 -196.65092938940958,54.20560391107773 -199.1509293894344,54.87547689211434 -200.98105640839867,56.70560391101326 -201.65092938952455,59.20560391101415 -200.98105640848794,61.705603911038956 -199.15092938958904,63.53573093000323 -196.65092938958816,64.20560391112912" stroke="#ffa500" stroke-linecap="round" stroke-linejoin="round"/><polyline fill="none" points="-218.38761584068797,-106.51407166596934 -215.88761584066316,-107.18394464700594 -214.05748882169888,-109.01407166590486 -213.387615840573,-111.51407166590575 -214.0574888216096,-114.01407166593056 -215.88761584050852,-115.84419868489483 -218.3876158405094,-116.51407166602073 -220.8876158405342,-115.84419868498412 -222.7177428594985,-114.0140716660852 -223.38761584062436,-111.51407166608432 -222.71774285958776,-109.01407166605951 -220.88761584068885,-107.18394464709523 -218.38761584068797,-106.51407166596934" stroke="#00f" stroke-linecap="round" stroke-linejoin="round"/><polyline fill="none" points="-342.84421845459053,-148.02072226273057 -340.34421845456575,-148.69059524376718 -338.5140914356015,-150.52072226266608 -337.8442184544756,-153.02072226266696 -338.5140914355122,-155.52072226269178 -340.34421845441113,-157.35084928165605 -342.84421845441204,-158.02072226278196 -345.3442184544368,-157.35084928174535 -347.1743454734011,-155.52072226284645 -347.844218454527,-153.02072226284557 -347.1743454734904,-150.52072226282075 -345.3442184545915,-148.69059524385648 -342.8442184545906,-148.02072226273057" stroke="#00f" stroke-linecap="round" stroke-linejoin="round"/><polyline fill="none" points="-384.849193906587,-180.11205605748893 -382.3491939065622,-180.78192903852553 -380.51906688759794,-182.61205605742444 -379.84919390647207,-185.11205605742532 -380.51906688750864,-187.61205605745013 -382.34919390640755,-189.4421830764144 -384.84919390640846,-190.11205605754031 -387.34919390643324,-189.4421830765037 -389.1793209253975,-187.6120560576048 -389.8491939065234,-185.11205605760392 -389.1793209254868,-182.6120560575791 -387.3491939065879,-180.78192903861483 -384.849193906587,-180.11205605748893" stroke="#ffa500" stroke-linecap="round" stroke-linejoin="round"/><polyline fill="none" points="-278.2989210358082,-27.807406032327442 -275.79892103578334,-28.477279013364043 -273.96879401681906,-30.307406032262957 -273.2989210356932,-32.80740603226384 -273.96879401672976,-35.307406032288654 -275.79892103562867,-37.13753305125294 -278.2989210356296,-37.807406032378836 -280.7989210356544,-37.13753305134224 -282.6290480546187,-35.307406032443325 -283.29892103574457,-32.80740603244244 -282.629048054708,-30.307406032417624 -280.7989210358091,-28.477279013453337 -278.2989210358082,-27.807406032327435" stroke="#ffa500" stroke-linecap="round" stroke-linejoin="round"/><polyline fill="none" points="-197.1592277955155,58.26141291108003 -194.6592277954907,57.59153993004343 -192.82910077652642,55.76141291114452 -192.1592277954005,53.26141291114363 -192.82910077643712,50.76141291111882 -194.65922779533602,48.93128589215453 -197.1592277953369,48.26141291102862 -199.65922779536172,48.93128589206522 -201.489354814326,50.76141291096413 -202.1592277954519,53.26141291096502 -201.4893548144153,55.76141291098983 -199.6592277955164,57.59153992995412 -197.1592277955155,58.26141291108003" stroke="#ffa500" stroke-linecap="round" stroke-linejoin="round"/><polyline fill="none" points="-320.9122154243691,-76.84171808535444 -318.41221542434425,-77.51159106639103 -316.58208840538,-79.34171808528994 -315.9122154242541,-81.84171808529082 -316.5820884052907,-84.34171808531563 -318.4122154241896,-86.17184510427992 -320.9122154241905,-86.84171808540583 -323.41221542421533,-86.17184510436924 -325.2423424431796,-84.34171808547033 -325.9122154243055,-81.84171808546945 -325.2423424432689,-79.34171808544464 -323.41221542437,-77.51159106648035 -320.9122154243691,-76.84171808535444" stroke="#00f" stroke-linecap="round" stroke-linejoin="round"/><polyline fill="none" points="-289.04185982722726,-62.43495354052784 -286.5418598272024,-63.10482652156443 -284.71173280823814,-64.93495354046334 -284.0418598271122,-67.43495354046422 -284.7117328081488,-69.93495354048903 -286.5418598270477,-71.76508055945332 -289.0418598270486,-72.43495354057923 -291.54185982707344,-71.76508055954264 -293.3719868460377,-69.93495354064373 -294.04185982716365,-67.43495354064285 -293.3719868461271,-64.93495354061804 -291.54185982722817,-63.10482652165375 -289.04185982722726,-62.434953540527836" stroke="#ffa500" stroke-linecap="round" stroke-linejoin="round"/><polyline fill="none" points="-350.8977834453395,-165.6257977161022 -348.39778344531464,-166.2956706971388 -346.56765642635037,-168.1257977160377 -345.89778344522443,-170.6257977160386 -346.567656426261,-173.1257977160634 -348.3977834451599,-174.9559247350277 -350.8977834451608,-175.6257977161536 -353.39778344518567,-174.95592473511704 -355.22791046414994,-173.12579771621813 -355.8977834452759,-170.62579771621725 -355.2279104642393,-168.12579771619244 -353.3977834453404,-166.29567069722813 -350.8977834453395,-165.62579771610223" stroke="#00f" stroke-linecap="round" stroke-linejoin="round"/><polyline fill="none" points="-328.94523421089025,-128.24537268312537 -326.4452342108654,-128.91524566416194 -324.61510719190113,-130.74537268306085 -323.9452342107752,-133.24537268306173 -324.6151071918118,-135.74537268308654 -326.4452342107107,-137.57549970205085 -328.9452342107116,-138.24537268317675 -331.44523421073643,-137.57549970214018 -333.2753612297007,-135.74537268324127 -333.94523421082664,-133.2453726832404 -333.27536122979006,-130.74537268321558 -331.44523421089116,-128.91524566425127 -328.94523421089025,-128.24537268312537" stroke="#ffa500" stroke-linecap="round" stroke-linejoin="round"/><polyline fill="none" points="-366.9743961022831,-158.25792237846517 -364.47439610225825,-158.92779535950174 -362.644269083294,-160.75792237840065 -361.97439610216804,-163.25792237840153 -362.6442690832046,-165.75792237842634 -364.4743961021035,-167.58804939739065 -366.97439610210444,-168.25792237851655 -369.4743961021293,-167.58804939747998 -371.30452312109355,-165.75792237858107 -371.9743961022195,-163.2579223785802 -371.3045231211829,-160.75792237855538 -369.474396102284,-158.92779535959107 -366.9743961022831,-158.25792237846517" stroke="#008000" stroke-linecap="round" stroke-linejoin="round"/><polyline fill="none" points="-179.99305320007505,19.52809137591599 -177.49305320005024,18.858218394879408 -175.66292618108594,17.028091375980505 -174.99305319996003,14.52809137597962 -175.6629261809966,12.028091375954798 -177.4930531998955,10.197964356990495 -179.9930531998964,9.528091375864575 -182.4930531999212,10.197964356901156 -184.3231802188855,12.02809137580006 -184.99305320001145,14.528091375800944 -184.32318021897487,17.028091375825767 -182.49305320007596,18.85821839479007 -179.99305320007508,19.52809137591599" stroke="#ffa500" stroke-linecap="round" stroke-linejoin="round"/><polyline fill="none" points="61.46411140533972,-43.62931743983684 63.96411140536455,-44.29919042087342 65.79423842432885,-46.12931743977232 66.46411140545477,-48.62931743977321 65.7942384244182,-51.12931743979804 63.9641114055193,-52.95944445876234 61.46411140551841,-53.62931743988826 58.96411140549358,-52.959444458851685 57.13398438652928,-51.129317439952786 56.46411140540335,-48.6293174399519 57.13398438643993,-46.12931743992707 58.964111405338826,-44.299190420962766 61.464111405339715,-43.62931743983684" stroke="#ffa500" stroke-linecap="round" stroke-linejoin="round"/><polyline fill="none" points="-321.9744433264724,-136.28278294853325 -319.47444332644756,-136.95265592956983 -317.6443163074832,-138.78278294846874 -316.9744433263573,-141.28278294846962 -317.64431630739386,-143.78278294849443 -319.47444332629277,-145.61290996745873 -321.9744433262937,-146.28278294858467 -324.4744433263185,-145.6129099675481 -326.30457034528285,-143.78278294864919 -326.9744433264088,-141.2827829486483 -326.3045703453722,-138.78278294862346 -324.4744433264733,-136.95265592965916 -321.9744433264724,-136.28278294853322" stroke="#ffa500" stroke-linecap="round" stroke-linejoin="round"/><polyline fill="none" points="-367.15853787335914,-138.91837919525574 -364.6585378733343,-139.58825217629231 -362.82841085436996,-141.41837919519122 -362.15853787324403,-143.9183791951921 -362.8284108542806,-146.41837919521694 -364.6585378731795,-148.24850621418125 -367.1585378731804,-148.91837919530718 -369.65853787320526,-148.2485062142706 -371.4886648921696,-146.4183791953717 -372.15853787329553,-143.91837919537082 -371.48866489225895,-141.41837919534598 -369.65853787336005,-139.58825217638167 -367.15853787335914,-138.91837919525574" stroke="#00f" stroke-linecap="round" stroke-linejoin="round"/><polyline fill="none" points="-387.5266853803532,-188.19019450364422 -385.02668538032833,-188.8600674846808 -383.196558361364,-190.6901945035797 -382.52668538023806,-193.19019450358059 -383.19655836127464,-195.69019450360543 -385.02668538017355,-197.52032152256973 -387.52668538017446,-198.19019450369566 -390.0266853801993,-197.5203215226591 -391.85681239916363,-195.69019450376018 -392.52668538028956,-193.1901945037593 -391.856812399253,-190.69019450373446 -390.0266853803541,-188.86006748477016 -387.5266853803532,-188.19019450364422" stroke="#ffa500" stroke-linecap="round" stroke-linejoin="round"/><polyline fill="none" points="-379.56403467845536,-167.38698429428783 -377.0640346784305,-168.0568572753244 -375.2339076594662,-169.8869842942233 -374.56403467834025,-172.3869842942242 -375.2339076593768,-174.88698429424903 -377.06403467827573,-176.71711131321334 -379.56403467827664,-177.38698429433927 -382.0640346783015,-176.7171113133027 -383.8941616972658,-174.8869842944038 -384.56403467839175,-172.3869842944029 -383.8941616973552,-169.88698429437807 -382.06403467845627,-168.05685727541376 -379.56403467845536,-167.38698429428783" stroke="#008000" stroke-linecap="round" stroke-linejoin="round"/><polyline fill="none" points="-275.9624981279527,-34.40439999676357 -273.46249812792786,-35.07427297780014 -271.6323711089635,-36.90439999669904 -270.9624981278376,-39.40439999669993 -271.63237110887417,-41.90439999672476 -273.4624981277731,-43.73452701568908 -275.962498127774,-44.404399996815016 -278.4624981277988,-43.73452701577845 -280.29262514676316,-41.904399996879555 -280.9624981278891,-39.40439999687867 -280.2926251468525,-36.90439999685383 -278.4624981279536,-35.074272977889514 -275.9624981279527,-34.40439999676357" stroke="#ffa500" stroke-linecap="round" stroke-linejoin="round"/><polyline fill="none" points="-298.7287033268522,-61.11842972172403 -296.2287033268274,-61.788302702760596 -294.39857630786304,-63.61842972165949 -293.7287033267371,-66.11842972166038 -294.3985763077737,-68.6184297216852 -296.2287033266726,-70.44855674064952 -298.7287033266735,-71.11842972177546 -301.22870332669834,-70.4485567407389 -303.05883034566267,-68.61842972184 -303.7287033267886,-66.11842972183912 -303.058830345752,-63.61842972181429 -301.2287033268531,-61.78830270284997 -298.7287033268522,-61.11842972172403" stroke="#ffa500" stroke-linecap="round" stroke-linejoin="round"/><polyline fill="none" points="-348.0765155233694,-157.22732106787055 -345.57651552334454,-157.89719404890712 -343.7463885043802,-159.727321067806 -343.0765155232543,-162.22732106780688 -343.74638850429085,-164.72732106783172 -345.57651552318976,-166.55744808679606 -348.07651552319066,-167.227321067922 -350.5765155232155,-166.55744808688542 -352.40664254217984,-164.72732106798654 -353.0765155233058,-162.22732106798566 -352.4066425422692,-159.72732106796082 -350.5765155233703,-157.89719404899648 -348.0765155233694,-157.22732106787055" stroke="#ffa500" stroke-linecap="round" stroke-linejoin="round"/><polyline fill="none" points="-355.12738104043143,-141.85321492940318 -352.6273810404066,-142.52308791043973 -350.79725402144226,-144.3532149293386 -350.1273810403163,-146.8532149293395 -350.7972540213529,-149.35321492936433 -352.6273810402518,-151.18334194832866 -355.1273810402527,-151.8532149294546 -357.62738104027756,-151.18334194841805 -359.4575080592419,-149.35321492951917 -360.1273810403678,-146.8532149295183 -359.45750805933125,-144.35321492949345 -357.62738104043234,-142.5230879105291 -355.12738104043143,-141.85321492940318" stroke="#00f" stroke-linecap="round" stroke-linejoin="round"/><polyline fill="none" points="-359.9360474778098,-155.0724968634112 -357.43604747778494,-155.74236984444775 -355.6059204588206,-157.57249686334663 -354.9360474776947,-160.0724968633475 -355.60592045873125,-162.57249686337235 -357.43604747763015,-164.40262388233668 -359.93604747763106,-165.07249686346262 -362.4360474776559,-164.40262388242607 -364.26617449662024,-162.5724968635272 -364.9360474777462,-160.0724968635263 -364.2661744967096,-157.57249686350147 -362.4360474778107,-155.74236984453714 -359.9360474778098,-155.07249686341117" stroke="#00f" stroke-linecap="round" stroke-linejoin="round"/><polyline fill="none" points="-200.32616444805097,-91.11894614942504 -197.82616444802613,-91.7888191304616 -195.9960374290618,-93.6189461493605 -195.32616444793584,-96.11894614936138 -195.9960374289724,-98.61894614938622 -197.82616444787126,-100.44907316835055 -200.32616444787215,-101.1189461494765 -202.82616444789699,-100.44907316843994 -204.65629146686132,-98.61894614954105 -205.32616444798728,-96.11894614954016 -204.65629146695073,-93.61894614951532 -202.82616444805186,-91.78881913055099 -200.32616444805097,-91.11894614942504" stroke="#ffa500" stroke-linecap="round" stroke-linejoin="round"/><polyline fill="none" points="-329.5352878224496,-132.09690087085187 -327.0352878224248,-132.76677385188842 -325.20516080346044,-134.5969008707873 -324.5352878223345,-137.09690087078818 -325.2051608033711,-139.59690087081302 -327.03528782227,-141.42702788977735 -329.5352878222709,-142.0969008709033 -332.03528782229574,-141.42702788986676 -333.8654148412601,-139.5969008709679 -334.535287822386,-137.096900870967 -333.86541484134943,-134.59690087094216 -332.0352878224505,-132.76677385197783 -329.5352878224496,-132.09690087085187" stroke="#ffa500" stroke-linecap="round" stroke-linejoin="round"/><polyline fill="none" points="-294.16527540488147,-64.34468177259852 -291.66527540485663,-65.01455475363507 -289.8351483858923,-66.84468177253396 -289.16527540476636,-69.34468177253484 -289.83514838580294,-71.84468177255968 -291.66527540470184,-73.67480879152401 -294.16527540470275,-74.34468177264998 -296.6652754047276,-73.67480879161343 -298.4954024236919,-71.84468177271455 -299.16527540481786,-69.34468177271367 -298.4954024237813,-66.84468177268883 -296.6652754048824,-65.0145547537245 -294.16527540488147,-64.34468177259853" stroke="#ffa500" stroke-linecap="round" stroke-linejoin="round"/><polyline fill="none" points="-311.45488879390115,-141.40859155201764 -308.9548887938763,-142.0784645330542 -307.124761774912,-143.90859155195307 -306.45488879378604,-146.40859155195395 -307.1247617748226,-148.9085915519788 -308.9548887937215,-150.73871857094312 -311.45488879372243,-151.40859155206908 -313.9548887937473,-150.73871857103254 -315.7850158127116,-148.90859155213366 -316.45488879383754,-146.40859155213278 -315.785015812801,-143.90859155210794 -313.9548887939021,-142.0784645331436 -311.4548887939012,-141.40859155201764" stroke="#00f" stroke-linecap="round" stroke-linejoin="round"/><polyline fill="none" points="-211.0677319782523,-4.038045967887198 -208.56773197822747,-4.707918948923745 -206.73760495926314,-6.538045967822629 -206.06773197813718,-9.038045967823514 -206.73760495917372,-11.538045967848358 -208.5677319780726,-13.368172986812697 -211.06773197807348,-14.03804596793866 -213.56773197809832,-13.368172986902113 -215.39785899706266,-11.538045968003232 -216.06773197818862,-9.038045968002347 -215.39785899715207,-6.538045967977502 -213.5677319782532,-4.707918949013162 -211.0677319782523,-4.038045967887198" stroke="#00f" stroke-linecap="round" stroke-linejoin="round"/><polyline fill="none" points="-310.19334875122127,-85.73493918810773 -307.6933487511964,-86.40481216914428 -305.8632217322321,-88.23493918804316 -305.1933487511061,-90.73493918804404 -305.8632217321426,-93.23493918806888 -307.6933487510415,-95.06506620703323 -310.19334875104244,-95.73493918815919 -312.6933487510673,-95.06506620712264 -314.5234757700316,-93.23493918822376 -315.1933487511576,-90.73493918822288 -314.5234757701211,-88.23493918819804 -312.6933487512222,-86.4048121692337 -310.19334875122127,-85.73493918810773" stroke="#ffa500" stroke-linecap="round" stroke-linejoin="round"/><polyline fill="none" points="-376.797196293349,-151.40359608205577 -374.29719629332413,-152.07346906309232 -372.4670692743598,-153.9035960819912 -371.7971962932338,-156.40359608199208 -372.46706927427033,-158.90359608201692 -374.29719629316924,-160.73372310098125 -376.79719629317015,-161.4035960821072 -379.297196293195,-160.73372310107067 -381.1273233121593,-158.9035960821718 -381.7971962932853,-156.4035960821709 -381.1273233122488,-153.90359608214607 -379.2971962933499,-152.07346906318173 -376.797196293349,-151.40359608205577" stroke="#008000" stroke-linecap="round" stroke-linejoin="round"/><polyline fill="none" points="-361.65769908068376,-141.5265062106691 -359.1576990806589,-142.19637919170566 -357.3275720616946,-144.02650621060454 -356.6576990805686,-146.52650621060542 -357.3275720616051,-149.02650621063026 -359.157699080504,-150.8566332295946 -361.6576990805049,-151.52650621072056 -364.15769908052977,-150.856633229684 -365.9878260994941,-149.02650621078513 -366.6576990806201,-146.52650621078425 -365.9878260995836,-144.0265062107594 -364.1576990806847,-142.19637919179507 -361.6576990806838,-141.5265062106691" stroke="#ffa500" stroke-linecap="round" stroke-linejoin="round"/><polyline fill="none" points="387.77651422488236,-175.46847548066637 390.2765142249072,-176.13834846170292 392.10664124387154,-177.9684754806018 392.7765142249975,-180.46847548060268 392.106641243961,-182.96847548062752 390.27651422506216,-184.79860249959188 387.77651422506125,-185.46847548071784 385.2765142250364,-184.7986024996813 383.4463872060721,-182.96847548078242 382.7765142249461,-180.46847548078154 383.4463872059826,-177.9684754807567 385.27651422488145,-176.13834846179233 387.77651422488236,-175.46847548066637" stroke="#ffa500" stroke-linecap="round" stroke-linejoin="round"/></svg>