<?xml version="1.0" ?><!DOCTYPE svg  PUBLIC '-//W3C//DTD SVG 1.1//EN'  'http://www.w3.org/Graphics/SVG/1.1/DTD/svg11.dtd'><svg height="303.000" viewBox="-442.000 -229.000 889.000 303.000" width="889.000" xmlns="http://www.w3.org/2000/svg"><line fill="none" stroke="none" stroke-linecap="round" stroke-width="2.0" x1="0.0" x2="0.0" y1="0.0" y2="0.0"/><polygon fill="none" fill-rule="evenodd" points="0.0,0.0 0.0,0.0 0.0,0.0" stroke-linejoin="round"/><polyline fill="none" points="-415.1473036420982,-164.12549937319744 -412.64730364207185,-164.79537235423143 -410.8171766231049,-166.62549937312886 -410.14730364197595,-169.1254993731298 -410.8171766230099,-171.6254993731562 -412.64730364190734,-173.45562639212318 -415.1473036419083,-174.12549937325215 -417.6473036419347,-173.4556263922182 -419.47743066090163,-171.62549937332076 -420.1473036420306,-169.12549937331983 -419.4774306609966,-166.62549937329342 -417.6473036420992,-164.79537235432645 -415.1473036420982,-164.12549937319747" stroke="#00f" stroke-linecap="round" stroke-linejoin="round"/><polyline fill="none" points="-390.3223953882501,-179.8326158337179 -387.8223953882237,-180.50248881475187 -385.99226836925675,-182.3326158336493 -385.3223953881278,-184.83261583365024 -385.99226836916176,-187.33261583367664 -387.8223953880592,-189.16274285264362 -390.32239538806016,-189.8326158337726 -392.82239538808653,-189.16274285273863 -394.6525224070535,-187.3326158338412 -395.32239538818243,-184.83261583384026 -394.65252240714847,-182.33261583381386 -392.82239538825104,-180.50248881484688 -390.3223953882501,-179.8326158337179" stroke="#008000" stroke-linecap="round" stroke-linejoin="round"/><polyline fill="none" points="-301.1511381193057,-147.17230646924466 -298.6511381192793,-147.84217945027862 -296.8210111003124,-149.67230646917605 -296.15113811918343,-152.172306469177 -296.8210111002174,-154.6723064692034 -298.6511381191148,-156.50243348817037 -301.1511381191158,-157.17230646929934 -303.65113811914216,-156.50243348826538 -305.4812651381091,-154.67230646936795 -306.15113811923806,-152.17230646936702 -305.4812651382041,-149.6723064693406 -303.65113811930667,-147.84217945037364 -301.1511381193057,-147.17230646924466" stroke="#ffa500" stroke-linecap="round" stroke-linejoin="round"/><polyline fill="none" points="-397.1042562700759,-180.82344937822742 -394.6042562700495,-181.49332235926138 -392.77412925108257,-183.3234493781588 -392.1042562699536,-185.82344937815975 -392.7741292509876,-188.32344937818615 -394.604256269885,-190.15357639715313 -397.104256269886,-190.8234493782821 -399.60425626991236,-190.15357639724814 -401.4343832888793,-188.32344937835072 -402.10425627000825,-185.82344937834978 -401.4343832889743,-183.32344937832337 -399.60425627007686,-181.4933223593564 -397.1042562700759,-180.82344937822742" stroke="#008000" stroke-linecap="round" stroke-linejoin="round"/><polyline fill="none" points="-406.10241989173255,-150.7461655226936 -403.6024198917062,-151.41603850372755 -401.77229287273923,-153.24616552262498 -401.1024198916103,-155.74616552262592 -401.77229287264424,-158.24616552265232 -403.6024198915417,-160.0762925416193 -406.10241989154264,-160.74616552274827 -408.602419891569,-160.0762925417143 -410.43254691053596,-158.24616552281688 -411.1024198916649,-155.74616552281594 -410.43254691063095,-153.24616552278954 -408.6024198917335,-151.41603850382256 -406.10241989173255,-150.7461655226936" stroke="#00f" stroke-linecap="round" stroke-linejoin="round"/><polyline fill="none" points="-423.0225371033124,-204.90449107214042 -420.522537103286,-205.57436405317438 -418.692410084319,-207.4044910720718 -418.02253710319,-209.90449107207274 -418.692410084224,-212.40449107209915 -420.5225371031214,-214.23461809106612 -423.0225371031224,-214.9044910721951 -425.52253710314875,-214.23461809116114 -427.35266412211575,-212.4044910722637 -428.02253710324476,-209.90449107226277 -427.3526641222108,-207.40449107223637 -425.52253710331337,-205.5743640532694 -423.0225371033124,-204.90449107214042" stroke="#00f" stroke-linecap="round" stroke-linejoin="round"/><polyline fill="none" points="412.42778510373404,-168.6071379360922 414.9277851037604,-169.27701091712615 416.7579121227274,-171.10713793602358 417.4277851038564,-173.60713793602451 416.75791212282246,-176.10713793605092 414.92778510392503,-177.9372649550179 412.42778510392407,-178.60713793614687 409.9277851038977,-177.9372649551129 408.0976580849307,-176.10713793621548 407.4277851038017,-173.60713793621454 408.09765808483564,-171.10713793618814 409.9277851037331,-169.27701091722116 412.42778510373404,-168.6071379360922" stroke="#ffa500" stroke-linecap="round" stroke-linejoin="round"/><polyline fill="none" points="-390.87922516582665,-150.18390183376988 -388.3792251658003,-150.85377481480384 -386.5490981468333,-152.68390183370127 -385.87922516570427,-155.1839018337022 -386.54909814673823,-157.6839018337286 -388.37922516563566,-159.5140288526956 -390.8792251656366,-160.18390183382456 -393.379225165663,-159.5140288527906 -395.20935218463,-157.68390183389317 -395.879225165759,-155.18390183389224 -395.20935218472505,-152.68390183386583 -393.3792251658276,-150.85377481489886 -390.87922516582665,-150.18390183376988" stroke="#00f" stroke-linecap="round" stroke-linejoin="round"/><polyline fill="none" points="67.87233521881603,-56.800490873120275 70.37233521884244,-57.47036385415423 72.20246223780943,-59.30049087305165 72.87233521893842,-61.800490873052595 72.20246223790446,-64.300490873079 70.37233521900704,-66.13061789204599 67.8723352190061,-66.80049087317498 65.3723352189797,-66.13061789214102 63.542208200012716,-64.3004908732436 62.872335218883734,-61.800490873242666 63.54220819991769,-59.30049087321626 65.37233521881511,-57.47036385424928 67.87233521881605,-56.80049087312029" stroke="#ffa500" stroke-linecap="round" stroke-linejoin="round"/><polyline fill="none" points="429.82529946726686,-184.55635105240336 432.3252994672933,-185.22622403343732 434.1554264862603,-187.05635105233475 434.8252994673893,-189.55635105233569 434.15542648635534,-192.0563510523621 432.3252994674579,-193.88647807132907 429.82529946745694,-194.55635105245804 427.3252994674305,-193.88647807142408 425.4951724484635,-192.05635105252665 424.8252994673345,-189.5563510525257 425.49517244836846,-187.0563510524993 427.3252994672659,-185.22622403353233 429.82529946726686,-184.55635105240336" stroke="#00f" stroke-linecap="round" stroke-linejoin="round"/><polyline fill="none" points="-417.0064966401837,-194.36094098194184 -414.50649664015725,-195.0308139629758 -412.67636962119025,-196.86094098187323 -412.00649664006124,-199.36094098187417 -412.6763696210952,-201.86094098190057 -414.50649663999263,-203.69106800086755 -417.0064966399936,-204.36094098199655 -419.50649664002003,-203.6910680009626 -421.33662365898704,-201.86094098206516 -422.00649664011604,-199.36094098206422 -421.3366236590821,-196.86094098203782 -419.50649664018465,-195.0308139630708 -417.0064966401837,-194.3609409819418" stroke="#00f" stroke-linecap="round" stroke-linejoin="round"/><polyline fill="none" points="-339.8949738084244,-119.50678595120402 -337.394973808398,-120.17665893223797 -335.564846789431,-122.00678595113538 -334.894973808302,-124.50678595113632 -335.56484678933595,-127.00678595116273 -337.3949738082334,-128.83691297012973 -339.89497380823434,-129.50678595125873 -342.3949738082608,-128.83691297022477 -344.2251008272278,-127.00678595132736 -344.8949738083568,-124.50678595132642 -344.2251008273228,-122.00678595130002 -342.3949738084254,-120.17665893233303 -339.8949738084244,-119.50678595120404" stroke="#00f" stroke-linecap="round" stroke-linejoin="round"/><polyline fill="none" points="-369.0180553667481,-173.26755546373735 -366.5180553667217,-173.93742844477129 -364.6879283477547,-175.76755546366869 -364.0180553666257,-178.26755546366962 -364.68792834765964,-180.76755546369603 -366.51805536655706,-182.59768248266303 -369.01805536655803,-183.26755546379204 -371.51805536658446,-182.5976824827581 -373.34818238555147,-180.7675554638607 -374.01805536668047,-178.26755546385976 -373.3481823856465,-175.76755546383336 -371.5180553667491,-173.93742844486636 -369.0180553667481,-173.26755546373735" stroke="#ffa500" stroke-linecap="round" stroke-linejoin="round"/><polyline fill="none" points="-307.30867476908446,-67.81989384334402 -304.80867476905803,-68.48976682437797 -302.978547750091,-70.31989384327538 -302.308674768962,-72.81989384327632 -302.978547749996,-75.31989384330274 -304.8086747688934,-77.15002086226974 -307.3086747688944,-77.81989384339875 -309.8086747689208,-77.1500208623648 -311.6388017878878,-75.31989384346738 -312.3086747690168,-72.81989384346645 -311.63880178798286,-70.31989384344003 -309.8086747690854,-68.48976682447302 -307.30867476908446,-67.81989384334402" stroke="#ffa500" stroke-linecap="round" stroke-linejoin="round"/><polyline fill="none" points="-310.24322107975036,-143.17429485010533 -307.7432210797239,-143.84416783113926 -305.9130940607569,-145.67429485003666 -305.2432210796279,-148.1742948500376 -305.9130940606619,-150.674294850064 -307.7432210795593,-152.504421869031 -310.24322107956027,-153.17429485016 -312.7432210795867,-152.50442186912608 -314.5733480985537,-150.67429485022868 -315.2432210796827,-148.17429485022774 -314.57334809864875,-145.67429485020133 -312.7432210797513,-143.84416783123433 -310.24322107975036,-143.17429485010533" stroke="#ffa500" stroke-linecap="round" stroke-linejoin="round"/><polyline fill="none" points="-419.7655610832014,-202.7246292680445 -417.265561083175,-203.39450224907844 -415.435434064208,-205.22462926797584 -414.765561083079,-207.72462926797678 -415.43543406411294,-210.22462926800318 -417.26556108301037,-212.0547562869702 -419.76556108301133,-212.7246292680992 -422.26556108303777,-212.05475628706526 -424.0956881020048,-210.22462926816786 -424.7655610831338,-207.72462926816692 -424.0956881020998,-205.22462926814052 -422.2655610832024,-203.3945022491735 -419.7655610832014,-202.7246292680445" stroke="#00f" stroke-linecap="round" stroke-linejoin="round"/><polyline fill="none" points="-342.3888996917534,-153.77033981784245 -339.888899691727,-154.4402127988764 -338.05877267275997,-156.2703398177738 -337.38889969163097,-158.77033981777473 -338.05877267266493,-161.27033981780113 -339.88889969156236,-163.10046683676813 -342.3888996915633,-163.77033981789714 -344.88889969158976,-163.1004668368632 -346.71902671055676,-161.2703398179658 -347.38889969168576,-158.77033981796487 -346.7190267106518,-156.27033981793846 -344.8888996917544,-154.44021279897146 -342.3888996917534,-153.77033981784245" stroke="#00f" stroke-linecap="round" stroke-linejoin="round"/><polyline fill="none" points="-332.4372977742258,-68.70398591018103 -329.93729777419935,-69.37385889121497 -328.10717075523235,-71.20398591011237 -327.43729777410334,-73.7039859101133 -328.1071707551373,-76.20398591013972 -329.93729777403473,-78.03411292910673 -332.4372977740357,-78.70398591023574 -334.93729777406213,-78.03411292920181 -336.76742479302914,-76.20398591030441 -337.43729777415814,-73.70398591030347 -336.76742479312423,-71.20398591027705 -334.9372977742268,-69.37385889131005 -332.43729777422584,-68.70398591018103" stroke="#ffa500" stroke-linecap="round" stroke-linejoin="round"/><polyline fill="none" points="-425.6698276348611,-206.59242161164812 -423.1698276348347,-207.26229459268205 -421.3397006158677,-209.09242161157945 -420.6698276347387,-211.5924216115804 -421.3397006157726,-214.09242161160682 -423.16982763467,-215.92254863057383 -425.669827634671,-216.59242161170283 -428.1698276346974,-215.9225486306689 -429.9999546536644,-214.0924216117715 -430.6698276347934,-211.59242161177056 -429.9999546537595,-209.09242161174413 -428.1698276348621,-207.26229459277712 -425.6698276348611,-206.59242161164812" stroke="#00f" stroke-linecap="round" stroke-linejoin="round"/><polyline fill="none" points="33.69271995010979,-66.23679554820313 36.19271995013621,-66.90666852923707 38.02284696910322,-68.73679554813447 38.69271995023224,-71.2367955481354 38.02284696919831,-73.73679554816182 36.19271995030091,-75.56692256712884 33.692719950299974,-76.23679554825786 31.192719950273553,-75.56692256722393 29.362592931306537,-73.73679554832653 28.69271995017752,-71.23679554832559 29.362592931211445,-68.73679554829917 31.19271995010885,-66.90666852933215 33.69271995010979,-66.23679554820313" stroke="#00f" stroke-linecap="round" stroke-linejoin="round"/><polyline fill="none" points="-351.61711539724257,-136.78255019700202 -349.11711539721614,-137.45242317803596 -347.28698837824913,-139.28255019693336 -346.61711539712013,-141.7825501969343 -347.28698837815404,-144.28255019696073 -349.11711539705146,-146.11267721592773 -351.61711539705243,-146.78255019705676 -354.11711539707886,-146.11267721602283 -355.94724241604587,-144.28255019712543 -356.61711539717487,-141.7825501971245 -355.94724241614097,-139.28255019709806 -354.11711539724354,-137.45242317813106 -351.61711539724257,-136.78255019700202" stroke="#ffa500" stroke-linecap="round" stroke-linejoin="round"/><polyline fill="none" points="-382.10147780068723,-148.9014082503706 -379.6014778006608,-149.57128123140453 -377.7713507816938,-151.40140825030193 -377.1014778005648,-153.90140825030286 -377.7713507815987,-156.4014082503293 -379.6014778004961,-158.2315352692963 -382.1014778004971,-158.90140825042533 -384.6014778005235,-158.2315352693914 -386.43160481949053,-156.401408250494 -387.10147780061953,-153.90140825049306 -386.43160481958563,-151.40140825046663 -384.60147780068826,-149.5712812314996 -382.1014778006873,-148.90140825037057" stroke="#ffa500" stroke-linecap="round" stroke-linejoin="round"/><polyline fill="none" points="-307.1966908403378,-141.872424531085 -304.69669084031136,-142.54229751211892 -302.86656382134436,-144.37242453101632 -302.19669084021535,-146.87242453101726 -302.86656382124926,-149.3724245310437 -304.69669084014663,-151.20255155001072 -307.1966908401476,-151.87242453113976 -309.696690840174,-151.20255155010582 -311.52681785914103,-149.37242453120842 -312.19669084027004,-146.87242453120749 -311.52681785923613,-144.37242453118105 -309.69669084033876,-142.54229751221402 -307.1966908403378,-141.872424531085" stroke="#ffa500" stroke-linecap="round" stroke-linejoin="round"/><polyline fill="none" points="-415.17262825386905,-163.9149429979831 -412.6726282538426,-164.584815979017 -410.8425012348756,-166.4149429979144 -410.1726282537466,-168.91494299791535 -410.8425012347805,-171.41494299794178 -412.6726282536779,-173.2450700169088 -415.17262825367885,-173.91494299803784 -417.6726282537053,-173.24507001700394 -419.5027552726723,-171.41494299810654 -420.1726282538013,-168.9149429981056 -419.5027552727674,-166.41494299807917 -417.67262825387,-164.58481597911214 -415.17262825386905,-163.9149429979831" stroke="#00f" stroke-linecap="round" stroke-linejoin="round"/><polyline fill="none" points="-224.82913867206065,42.31944654785585 -222.32913867203422,41.64957356682193 -220.49901165306719,39.819446547924535 -219.82913867193815,37.3194465479236 -220.49901165297206,34.81944654789717 -222.32913867186946,32.989319528930146 -224.8291386718704,32.319446547801114 -227.32913867189683,32.989319528835026 -229.15926569086386,34.81944654773242 -229.8291386719929,37.31944654773336 -229.159265690959,39.81944654775978 -227.3291386720616,41.64957356672681 -224.82913867206065,42.31944654785584" stroke="#ffa500" stroke-linecap="round" stroke-linejoin="round"/><polyline fill="none" points="-321.9377090302346,-132.01615015731886 -319.43770903020817,-132.68602313835277 -317.60758201124116,-134.51615015725017 -316.9377090301121,-137.0161501572511 -317.607582011146,-139.51615015727754 -319.4377090300434,-141.34627717624457 -321.93770903004435,-142.0161501573736 -324.4377090300708,-141.3462771763397 -326.2678360490378,-139.5161501574423 -326.93770903016684,-137.01615015744136 -326.26783604913294,-134.51615015741493 -324.43770903023557,-132.6860231384479 -321.9377090302346,-132.01615015731886" stroke="#ffa500" stroke-linecap="round" stroke-linejoin="round"/><polyline fill="none" points="403.2830674236128,-178.6036235841318 405.78306742363924,-179.27349656516571 407.61319444260624,-181.10362358406312 408.2830674237353,-183.60362358406405 407.6131944427014,-186.10362358409049 405.783067423804,-187.93375060305752 403.28306742380306,-188.60362358418655 400.78306742377663,-187.93375060315265 398.9529404048096,-186.10362358425525 398.28306742368056,-183.6036235842543 398.95294040471447,-181.10362358422788 400.78306742361184,-179.27349656526084 403.2830674236128,-178.6036235841318" stroke="#ffa500" stroke-linecap="round" stroke-linejoin="round"/><polyline fill="none" points="-340.66292581019746,-175.9630014147895 -338.16292581017103,-176.6328743958234 -336.332798791204,-178.4630014147208 -335.66292581007497,-180.96300141472173 -336.33279879110887,-183.46300141474816 -338.16292581000624,-185.2931284337152 -340.6629258100072,-185.96300141484423 -343.16292581003364,-185.29312843381032 -344.9930528290007,-183.46300141491292 -345.66292581012976,-180.963001414912 -344.99305282909586,-178.46300141488555 -343.1629258101985,-176.63287439591852 -340.6629258101975,-175.9630014147895" stroke="#ffa500" stroke-linecap="round" stroke-linejoin="round"/><polyline fill="none" points="-240.68763151390448,-98.98776454918156 -238.18763151387805,-99.65763753021547 -236.357504494911,-101.48776454911285 -235.68763151378198,-103.98776454911379 -236.35750449481588,-106.48776454914022 -238.18763151371328,-108.31789156810726 -240.68763151371422,-108.9877645492363 -243.18763151374066,-108.3178915682024 -245.0177585327077,-106.48776454930501 -245.68763151383672,-103.98776454930407 -245.01775853280282,-101.48776454927764 -243.18763151390542,-99.65763753031061 -240.68763151390448,-98.98776454918156" stroke="#ffa500" stroke-linecap="round" stroke-linejoin="round"/><polyline fill="none" points="-377.6422789648725,-156.0066417757526 -375.14227896484607,-156.6765147567865 -373.312151945879,-158.5066417756839 -372.64227896474995,-161.00664177568484 -373.31215194578385,-163.50664177571127 -375.1422789646812,-165.3367687946783 -377.6422789646822,-166.00664177580734 -380.1422789647086,-165.33676879477343 -381.9724059836757,-163.50664177587603 -382.64227896480475,-161.0066417758751 -381.97240598377084,-158.50664177584866 -380.14227896487347,-156.67651475688163 -377.6422789648725,-156.00664177575257" stroke="#ffa500" stroke-linecap="round" stroke-linejoin="round"/><polyline fill="none" points="-305.1142227977846,-130.6683482256375 -302.61422279775815,-131.3382212066714 -300.7840957787911,-133.1683482255688 -300.114222797662,-135.66834822556973 -300.7840957786959,-138.16834822559616 -302.6142227975933,-139.9984752445632 -305.11422279759427,-140.66834822569226 -307.6142227976207,-139.99847524465835 -309.44434981658776,-138.16834822576095 -310.1142227977168,-135.66834822576 -309.4443498166829,-133.16834822573358 -307.61422279778554,-131.33822120676655 -305.1142227977846,-130.6683482256375" stroke="#ffa500" stroke-linecap="round" stroke-linejoin="round"/><polyline fill="none" points="-355.1264292724691,-157.8144841996608 -352.6264292724427,-158.4843571806947 -350.79630225347563,-160.3144841995921 -350.12642927234657,-162.81448419959304 -350.7963022533805,-165.31448419961947 -352.62642927227785,-167.1446112185865 -355.1264292722788,-167.81448419971557 -357.62642927230524,-167.14461121868166 -359.4565562912723,-165.3144841997843 -360.12642927240137,-162.81448419978335 -359.45655629136746,-160.31448419975692 -357.6264292724701,-158.48435718078989 -355.1264292724691,-157.81448419966082" stroke="#00f" stroke-linecap="round" stroke-linejoin="round"/><polyline fill="none" points="-336.7825852934622,-75.3129155219259 -334.2825852934358,-75.98278850295979 -332.4524582744687,-77.81291552185718 -331.78258529333965,-80.31291552185812 -332.45245827437356,-82.81291552188455 -334.2825852932709,-84.6430425408516 -336.7825852932719,-85.31291552198066 -339.2825852932983,-84.64304254094677 -341.1127123122654,-82.81291552204938 -341.78258529339445,-80.31291552204844 -341.11271231236054,-77.812915522022 -339.28258529346317,-75.98278850305495 -336.7825852934622,-75.31291552192589" stroke="#00f" stroke-linecap="round" stroke-linejoin="round"/><polyline fill="none" points="-212.6784741674783,-0.1189980411521363 -210.17847416745187,-0.7888710221860304 -208.34834714848483,-2.6189980410834135 -207.67847416735577,-5.118998041084355 -208.34834714838968,-7.618998041110794 -210.17847416728705,-9.449125060077842 -212.678474167288,-10.118998041206899 -215.17847416731442,-9.449125060173005 -217.00860118628148,-7.6189980412756215 -217.67847416741054,-5.118998041274681 -217.00860118637664,-2.6189980412482408 -215.17847416747927,-0.7888710222811921 -212.67847416747833,-0.11899804115213386" stroke="#ffa500" stroke-linecap="round" stroke-linejoin="round"/><polyline fill="none" points="-200.1177539358851,16.590556649958558 -197.61775393585867,15.920683668924665 -195.7876269168916,14.090556650027283 -195.11775393576255,11.590556650026343 -195.78762691679646,9.090556649999904 -197.61775393569383,7.260429631032855 -200.11775393569476,6.590556649903795 -202.6177539357212,7.2604296309376855 -204.44788095468826,9.090556649835067 -205.11775393581732,11.590556649836007 -204.44788095478344,14.090556649862448 -202.61775393588607,15.920683668829499 -200.11775393588513,16.59055664995856" stroke="#ffa500" stroke-linecap="round" stroke-linejoin="round"/><polyline fill="none" points="411.78157050821983,-191.53814042930836 414.28157050824626,-192.20801341034223 416.1116975272133,-194.0381404292396 416.7815705083424,-196.53814042924054 416.1116975273085,-199.03814042926697 414.2815705084111,-200.86826744823404 411.78157050841014,-201.5381404293631 409.2815705083837,-200.86826744832922 407.45144348941665,-199.03814042943185 406.7815705082876,-196.5381404294309 407.4514434893215,-194.03814042940448 409.28157050821886,-192.20801341043742 411.78157050821983,-191.53814042930836" stroke="#ffa500" stroke-linecap="round" stroke-linejoin="round"/><polyline fill="none" points="-316.7069800361772,-64.02083999271079 -314.20698003615075,-64.69071297374468 -312.3768530171837,-66.52083999264207 -311.70698003605463,-69.020839992643 -312.37685301708854,-71.52083999266945 -314.2069800359859,-73.35096701163651 -316.7069800359869,-74.02083999276557 -319.2069800360133,-73.35096701173168 -321.03710705498037,-71.5208399928343 -321.7069800361094,-69.02083999283336 -321.0371070550755,-66.52083999280691 -319.20698003617815,-64.69071297383985 -316.7069800361772,-64.02083999271079" stroke="#ffa500" stroke-linecap="round" stroke-linejoin="round"/><polyline fill="none" points="52.36499183922748,-59.97603376841488 54.864991839253925,-60.64590674944876 56.69511885822098,-62.47603376834614 57.36499183935005,-64.97603376834708 56.695118858316164,-67.47603376837353 54.864991839418785,-69.30616078734059 52.36499183941784,-69.97603376846966 49.864991839391394,-69.30616078743577 48.03486482042433,-67.4760337685384 47.364991839295264,-64.97603376853746 48.03486482032915,-62.476033768511016 49.864991839226526,-60.645906749543954 52.36499183922747,-59.97603376841489" stroke="#ffa500" stroke-linecap="round" stroke-linejoin="round"/><polyline fill="none" points="416.55418090816073,-173.29259580887404 419.05418090818716,-173.96246878990792 420.8843079271542,-175.7925958088053 421.5541809082833,-178.29259580880623 420.8843079272494,-180.7925958088327 419.054180908352,-182.62272282779975 416.55418090835104,-183.2925958089288 414.0541809083246,-182.62272282789493 412.22405388935755,-180.79259580899756 411.5541809082285,-178.29259580899662 412.2240538892624,-175.79259580897016 414.05418090815976,-173.9624687900031 416.55418090816073,-173.29259580887404" stroke="#ffa500" stroke-linecap="round" stroke-linejoin="round"/><polyline fill="none" points="68.94069725118217,-48.02592943850112 71.44069725120862,-48.695802419535 73.27082427017568,-50.52592943843238 73.94069725130475,-53.02592943843332 73.27082427027088,-55.52592943845978 71.4406972513735,-57.35605645742684 68.94069725137257,-58.02592943855591 66.44069725134612,-57.35605645752204 64.61057023237906,-55.52592943862466 63.940697251249986,-53.02592943862371 64.61057023228386,-50.52592943859726 66.44069725118123,-48.6958024196302 68.94069725118217,-48.02592943850112" stroke="#ffa500" stroke-linecap="round" stroke-linejoin="round"/><polyline fill="none" points="-301.7672361975003,-148.39029768101236 -299.2672361974739,-149.06017066204623 -297.43710917850683,-150.8902976809436 -296.76723619737777,-153.39029768094454 -297.4371091784117,-155.890297680971 -299.26723619730905,-157.72042469993806 -301.76723619731,-158.39029768106715 -304.26723619733644,-157.72042470003328 -306.0973632163035,-155.8902976811359 -306.76723619743257,-153.39029768113497 -306.0973632163987,-150.8902976811085 -304.26723619750135,-149.06017066214145 -301.7672361975004,-148.39029768101236" stroke="#ffa500" stroke-linecap="round" stroke-linejoin="round"/><polyline fill="none" points="-336.77577938448775,-135.40273114790466 -334.2757793844613,-136.07260412893854 -332.44565236549425,-137.9027311478359 -331.7757793843652,-140.40273114783685 -332.44565236539904,-142.9027311478633 -334.2757793842964,-144.73285816683037 -336.7757793842974,-145.40273114795946 -339.2757793843238,-144.73285816692558 -341.1059064032909,-142.9027311480282 -341.77577938441993,-140.40273114802727 -341.1059064033861,-137.9027311480008 -339.2757793844887,-136.07260412903375 -336.77577938448775,-135.40273114790466" stroke="#ffa500" stroke-linecap="round" stroke-linejoin="round"/><polyline fill="none" points="-299.6634716215684,-138.87322028163456 -297.163471621542,-139.54309326266844 -295.3333446025749,-141.3732202815658 -294.66347162144586,-143.87322028156674 -295.3333446024797,-146.3732202815932 -297.1634716213771,-148.20334730056027 -299.66347162137805,-148.87322028168936 -302.1634716214045,-148.20334730065548 -303.99359864037154,-146.3732202817581 -304.6634716215006,-143.87322028175717 -303.99359864046676,-141.3732202817307 -302.1634716215694,-139.54309326276365 -299.6634716215684,-138.87322028163456" stroke="#ffa500" stroke-linecap="round" stroke-linejoin="round"/><polyline fill="none" points="-405.328499139181,-161.92600321406186 -402.8284991391546,-162.59587619509574 -400.9983721201875,-164.4260032139931 -400.32849913905847,-166.92600321399405 -400.9983721200923,-169.4260032140205 -402.8284991389897,-171.25613023298757 -405.32849913899065,-171.92600321411666 -407.8284991390171,-171.25613023308279 -409.65862615798414,-169.4260032141854 -410.3284991391132,-166.92600321418448 -409.65862615807936,-164.42600321415802 -407.828499139182,-162.59587619519095 -405.328499139181,-161.92600321406186" stroke="#008000" stroke-linecap="round" stroke-linejoin="round"/><polyline fill="none" points="-336.5120350545646,-109.84344620100664 -334.01203505453816,-110.5133191820405 -332.1819080355711,-112.34344620093788 -331.51203505444204,-114.84344620093881 -332.1819080354759,-117.34344620096527 -334.01203505437326,-119.17357321993235 -336.5120350543742,-119.84344620106144 -339.01203505440066,-119.17357322002758 -340.8421620733677,-117.3434462011302 -341.51203505449683,-114.84344620112927 -340.842162073463,-112.34344620110281 -339.0120350545656,-110.51331918213573 -336.51203505456465,-109.84344620100664" stroke="#ffa500" stroke-linecap="round" stroke-linejoin="round"/><polyline fill="none" points="-323.89634238593527,-122.41883890496086 -321.3963423859088,-123.08871188599473 -319.5662153669417,-124.9188389048921 -318.8963423858126,-127.41883890489305 -319.56621536684645,-129.9188389049195 -321.3963423857438,-131.7489659238866 -323.8963423857448,-132.4188389050157 -326.3963423857713,-131.7489659239818 -328.22646940473834,-129.91883890508444 -328.89634238586746,-127.41883890508349 -328.2264694048336,-124.91883890505703 -326.39634238593624,-123.08871188608995 -323.89634238593527,-122.41883890496086" stroke="#ffa500" stroke-linecap="round" stroke-linejoin="round"/><polyline fill="none" points="-248.47852350681785,-111.0725795247943 -245.9785235067914,-111.74245250582817 -244.1483964878243,-113.57257952472554 -243.4785235066952,-116.07257952472649 -244.1483964877291,-118.57257952475295 -245.97852350662646,-120.40270654372003 -248.4785235066274,-121.07257952484912 -250.97852350665386,-120.40270654381526 -252.80865052562095,-118.57257952491788 -253.47852350675004,-116.07257952491693 -252.8086505257162,-113.57257952489047 -250.97852350681882,-111.74245250592338 -248.47852350681788,-111.07257952479428" stroke="#ffa500" stroke-linecap="round" stroke-linejoin="round"/><polyline fill="none" points="-333.90351773927756,-92.30865797996921 -331.4035177392511,-92.97853096100307 -329.573390720284,-94.80865797990045 -328.9035177391549,-97.3086579799014 -329.57339072018874,-99.80865797992786 -331.4035177390861,-101.63878499889495 -333.9035177390871,-102.30865798002405 -336.40351773911357,-101.63878499899019 -338.23364475808063,-99.80865798009282 -338.90351773920975,-97.30865798009188 -338.2336447581759,-94.80865798006542 -336.4035177392785,-92.97853096109833 -333.90351773927756,-92.30865797996923" stroke="#00f" stroke-linecap="round" stroke-linejoin="round"/><polyline fill="none" points="-379.3528496561226,-127.07113147106244 -376.8528496560961,-127.7410044520963 -375.02272263712905,-129.57113147099366 -374.35284965599993,-132.0711314709946 -375.0227226370338,-134.57113147102106 -376.85284965593115,-136.40125848998815 -379.3528496559321,-137.07113147111724 -381.8528496559586,-136.4012584900834 -383.68297667492567,-134.57113147118602 -384.3528496560548,-132.07113147118508 -383.68297667502094,-129.57113147115862 -381.85284965612357,-127.74100445219153 -379.3528496561226,-127.07113147106243" stroke="#00f" stroke-linecap="round" stroke-linejoin="round"/><polyline fill="none" points="-383.18200123226546,-134.67660761083545 -380.682001232239,-135.3464805918693 -378.8518742132719,-137.17660761076667 -378.1820012321428,-139.6766076107676 -378.85187421317664,-142.17660761079406 -380.682001232074,-144.00673462976116 -383.182001232075,-144.67660761089024 -385.68200123210147,-144.0067346298564 -387.5121282510686,-142.17660761095902 -388.1820012321977,-139.6766076109581 -387.51212825116386,-137.17660761093163 -385.6820012322665,-135.34648059196454 -383.1820012322655,-134.67660761083542" stroke="#ffa500" stroke-linecap="round" stroke-linejoin="round"/><polyline fill="none" points="-232.48358985170577,-86.46812368094022 -229.9835898516793,-87.13799666197407 -228.15346283271222,-88.96812368087143 -227.4835898515831,-91.46812368087237 -228.15346283261695,-93.96812368089883 -229.98358985151432,-95.79825069986592 -232.48358985151526,-96.46812368099502 -234.98358985154172,-95.79825069996117 -236.8137168705088,-93.96812368106382 -237.48358985163793,-91.46812368106288 -236.81371687060408,-88.9681236810364 -234.9835898517067,-87.13799666206931 -232.48358985170577,-86.46812368094021" stroke="#ffa500" stroke-linecap="round" stroke-linejoin="round"/><polyline fill="none" points="-197.2427345152096,0.45611089955411366 -194.74273451518314,-0.21376208147973763 -192.91260749621605,-2.043889100377099 -192.24273451508694,-4.5438891003780455 -192.91260749612078,-7.043889100404515 -194.74273451501816,-8.87401611937161 -197.2427345150191,-9.54388910050072 -199.74273451504556,-8.874016119466871 -201.57286153401265,-7.04388910056951 -202.24273451514176,-4.543889100568565 -201.57286153410791,-2.0438891005420947 -199.74273451521054,-0.2137620815749981 -197.2427345152096,0.4561108995541129" stroke="#ffa500" stroke-linecap="round" stroke-linejoin="round"/><polyline fill="none" points="-369.01185958462827,-141.30787858815717 -366.5118595846018,-141.977751569191 -364.68173256563466,-143.80787858808839 -364.01185958450554,-146.30787858808932 -364.6817325655394,-148.80787858811578 -366.51185958443676,-150.63800560708287 -369.01185958443773,-151.307878588212 -371.5118595844642,-150.63800560717814 -373.34198660343134,-148.80787858828077 -374.01185958456045,-146.30787858827983 -373.3419866035266,-143.80787858825337 -371.51185958462924,-141.97775156928628 -369.01185958462827,-141.30787858815717" stroke="#00f" stroke-linecap="round" stroke-linejoin="round"/><polyline fill="none" points="-409.6132138725374,-163.76443924311727 -407.1132138725109,-164.4343122241511 -405.2830868535438,-166.26443924304849 -404.6132138724147,-168.76443924304942 -405.28308685344854,-171.26443924307588 -407.1132138723459,-173.09456626204297 -409.6132138723469,-173.7644392431721 -412.11321387237336,-173.09456626213824 -413.9433408913405,-171.26443924324087 -414.6132138724696,-168.76443924323993 -413.94334089143575,-166.26443924321347 -412.1132138725384,-164.43431222424638 -409.6132138725374,-163.76443924311727" stroke="#00f" stroke-linecap="round" stroke-linejoin="round"/><polyline fill="none" points="-211.5478378779274,62.079086059365025 -209.04783787790095,61.409213078331184 -207.21771085893386,59.57908605943383 -206.54783787780474,57.07908605943288 -207.2177108588386,54.57908605940641 -209.04783787773593,52.7489590404393 -211.54783787773687,52.079086059310185 -214.04783787776333,52.748959040344026 -215.87796489673042,54.579086059241384 -216.54783787785954,57.07908605924233 -215.8779648968257,59.5790860592688 -214.04783787792834,61.40921307823591 -211.5478378779274,62.079086059365025" stroke="#ffa500" stroke-linecap="round" stroke-linejoin="round"/><polyline fill="none" points="-362.4002171656042,-124.83397401118214 -359.9002171655777,-125.50384699221598 -358.0700901466106,-127.33397401111334 -357.4002171654815,-129.8339740111143 -358.0700901465153,-132.33397401114078 -359.9002171654127,-134.1641010301079 -362.40021716541366,-134.83397401123702 -364.90021716544015,-134.16410103020317 -366.7303441844073,-132.33397401130583 -367.4002171655364,-129.8339740113049 -366.73034418450254,-127.33397401127841 -364.90021716560517,-125.50384699231131 -362.4002171656042,-124.83397401118219" stroke="#ffa500" stroke-linecap="round" stroke-linejoin="round"/><polyline fill="none" points="-407.79891892109106,-177.74352277785633 -405.29891892106457,-178.41339575889018 -403.46879190209745,-180.24352277778752 -402.79891892096833,-182.74352277778846 -403.4687919020022,-185.24352277781495 -405.29891892089955,-187.07364979678206 -407.7989189209005,-187.74352277791118 -410.298918920927,-187.07364979687733 -412.1290459398941,-185.24352277798 -412.79891892102324,-182.74352277797905 -412.1290459399894,-180.24352277795256 -410.298918921092,-178.41339575898544 -407.79891892109106,-177.74352277785633" stroke="#f00" stroke-linecap="round" stroke-linejoin="round"/><polyline fill="none" points="-379.41772304622003,-162.81139438314463 -376.91772304619354,-163.48126736417848 -375.0875960272264,-165.31139438307582 -374.4177230460973,-167.81139438307676 -375.08759602713116,-170.31139438310325 -376.9177230460285,-172.14152140207037 -379.4177230460295,-172.81139438319948 -381.917723046056,-172.14152140216564 -383.7478500650231,-170.3113943832683 -384.4177230461522,-167.81139438326736 -383.74785006511837,-165.31139438324087 -381.917723046221,-163.48126736427375 -379.41772304622003,-162.81139438314463" stroke="#008000" stroke-linecap="round" stroke-linejoin="round"/><polyline fill="none" points="-337.042522899254,-90.50890185026329 -334.5425228992275,-91.17877483129712 -332.7123958802604,-93.00890185019448 -332.04252289913126,-95.50890185019543 -332.7123958801651,-98.0089018502219 -334.5425228990625,-99.83902886918901 -337.04252289906344,-100.50890185031814 -339.54252289908993,-99.8390288692843 -341.37264991805705,-98.00890185038695 -342.04252289918617,-95.508901850386 -341.3726499181523,-93.00890185035952 -339.54252289925495,-91.1787748313924 -337.042522899254,-90.50890185026327" stroke="#ffa500" stroke-linecap="round" stroke-linejoin="round"/><polyline fill="none" points="-328.3538295172987,-98.16357446267975 -325.85382951727223,-98.83344744371358 -324.0237024983051,-100.66357446261094 -323.353829517176,-103.16357446261189 -324.02370249820984,-105.66357446263837 -325.8538295171072,-107.49370148160548 -328.3538295171082,-108.16357446273462 -330.85382951713467,-107.49370148170078 -332.6839565361018,-105.66357446280344 -333.3538295172309,-103.16357446280249 -332.68395653619706,-100.66357446277601 -330.8538295172997,-98.8334474438089 -328.3538295172987,-98.16357446267976" stroke="#ffa500" stroke-linecap="round" stroke-linejoin="round"/><polyline fill="none" points="-243.40165505480311,27.647270424779702 -240.90165505477663,26.977397443745872 -239.0715280358095,25.14727042484852 -238.40165505468036,22.647270424847576 -239.07152803571418,20.147270424821095 -240.90165505461152,18.31714340585398 -243.40165505461246,17.647270424724844 -245.90165505463895,18.317143405758674 -247.73178207360607,20.14727042465602 -248.40165505473522,22.647270424656966 -247.7317820737014,25.147270424683448 -245.90165505480405,26.977397443650567 -243.40165505480311,27.647270424779702" stroke="#00f" stroke-linecap="round" stroke-linejoin="round"/><polyline fill="none" points="-371.89514086002555,-119.95909065623061 -369.39514085999906,-120.62896363726445 -367.56501384103194,-122.45909065616179 -366.8951408599028,-124.95909065616274 -367.5650138409367,-127.45909065618923 -369.39514085983404,-129.28921767515635 -371.895140859835,-129.9590906562855 -374.3951408598615,-129.28921767525168 -376.2252678788286,-127.45909065635433 -376.89514085995773,-124.9590906563534 -376.2252678789239,-122.45909065632691 -374.3951408600265,-120.62896363735979 -371.89514086002555,-119.95909065623066" stroke="#00f" stroke-linecap="round" stroke-linejoin="round"/><polyline fill="none" points="-241.49150570191307,-89.62485595200656 -238.99150570188658,-90.29472893304037 -237.16137868291946,-92.12485595193772 -236.49150570179032,-94.62485595193867 -237.16137868282414,-97.12485595196516 -238.99150570172148,-98.95498297093228 -241.49150570172242,-99.62485595206142 -243.9915057017489,-98.9549829710276 -245.82163272071602,-97.12485595213026 -246.49150570184517,-94.62485595212931 -245.82163272081135,-92.12485595210282 -243.991505701914,-90.2947289331357 -241.49150570191307,-89.62485595200656" stroke="#ffa500" stroke-linecap="round" stroke-linejoin="round"/><polyline fill="none" points="-354.2845401427441,-151.2673615522026 -351.7845401427176,-151.93723453323642 -349.9544131237505,-153.76736155213376 -349.2845401426214,-156.2673615521347 -349.95441312365523,-158.7673615521612 -351.7845401425526,-160.5974885711283 -354.28454014255357,-161.26736155225746 -356.78454014258006,-160.59748857122364 -358.6146671615472,-158.7673615523263 -359.2845401426763,-156.26736155232535 -358.61466716164244,-153.76736155229887 -356.7845401427451,-151.93723453333175 -354.2845401427441,-151.2673615522026" stroke="#00f" stroke-linecap="round" stroke-linejoin="round"/><polyline fill="none" points="-351.6269771451601,-165.76695652885044 -349.1269771451336,-166.43682950988426 -347.2968501261665,-168.2669565287816 -346.62697714503736,-170.76695652878254 -347.2968501260712,-173.26695652880903 -349.1269771449685,-175.09708354777615 -351.6269771449695,-175.7669565289053 -354.126977144996,-175.09708354787148 -355.9571041639631,-173.26695652897413 -356.6269771450922,-170.7669565289732 -355.9571041640584,-168.2669565289467 -354.1269771451611,-166.4368295099796 -351.62697714516014,-165.76695652885044" stroke="#ffa500" stroke-linecap="round" stroke-linejoin="round"/><polyline fill="none" points="-308.98192095432694,-86.74507280910773 -306.48192095430045,-87.41494579014154 -304.65179393533333,-89.24507280903889 -303.98192095420416,-91.74507280903984 -304.65179393523795,-94.24507280906633 -306.48192095413526,-96.07519982803346 -308.9819209541362,-96.74507280916261 -311.4819209541627,-96.07519982812879 -313.31204797312984,-94.24507280923144 -313.981920954259,-91.74507280923049 -313.3120479732252,-89.245072809204 -311.4819209543279,-87.41494579023687 -308.98192095432694,-86.74507280910773" stroke="#ffa500" stroke-linecap="round" stroke-linejoin="round"/><polyline fill="none" points="-329.36042038847324,-151.26422129086015 -326.86042038844676,-151.93409427189397 -325.03029336947964,-153.7642212907913 -324.36042038835046,-156.26422129079225 -325.03029336938425,-158.76422129081874 -326.86042038828157,-160.59434830978586 -329.36042038828253,-161.264221290915 -331.860420388309,-160.59434830988118 -333.69054740727614,-158.76422129098384 -334.3604203884053,-156.2642212909829 -333.6905474073715,-153.7642212909564 -331.8604203884742,-151.9340942719893 -329.36042038847324,-151.26422129086015" stroke="#ffa500" stroke-linecap="round" stroke-linejoin="round"/><polyline fill="none" points="-421.7861344396477,-182.01938215737653 -419.2861344396212,-182.68925513841035 -417.4560074206541,-184.5193821573077 -416.7861344395249,-187.01938215730863 -417.4560074205587,-189.51938215733512 -419.286134439456,-191.34950917630223 -421.786134439457,-192.01938215743138 -424.2861344394835,-191.34950917639756 -426.1162614584506,-189.51938215750022 -426.78613443957977,-187.01938215749928 -426.116261458546,-184.5193821574728 -424.28613443964866,-182.68925513850564 -421.7861344396477,-182.0193821573765" stroke="#00f" stroke-linecap="round" stroke-linejoin="round"/><polyline fill="none" points="-293.9465328172775,-55.24175082995504 -291.446532817251,-55.91162381098885 -289.6164057982839,-57.741750829886186 -288.9465328171547,-60.24175082988713 -289.6164057981885,-62.74175082991362 -291.4465328170858,-64.57187784888076 -293.9465328170868,-65.24175083000992 -296.4465328171133,-64.57187784897611 -298.2766598360804,-62.74175083007878 -298.9465328172096,-60.241750830077834 -298.2766598361758,-57.74175083005134 -296.44653281727847,-55.911623811084205 -293.9465328172775,-55.24175082995505" stroke="#ffa500" stroke-linecap="round" stroke-linejoin="round"/><polyline fill="none" points="-414.7301404399603,-197.45573625340955 -412.2301404399338,-198.12560923444337 -410.4000134209667,-199.95573625334072 -409.7301404398375,-202.45573625334166 -410.4000134208713,-204.95573625336814 -412.2301404397686,-206.7858632723353 -414.73014043976957,-207.45573625346444 -417.23014043979606,-206.78586327243062 -419.0602674587632,-204.95573625353327 -419.73014043989235,-202.45573625353234 -419.06026745885856,-199.95573625350585 -417.23014043996125,-198.1256092345387 -414.7301404399603,-197.45573625340955" stroke="#ffa500" stroke-linecap="round" stroke-linejoin="round"/><polyline fill="none" points="59.47592720141767,-43.43441096637134 61.975927201444165,-44.10428394740514 63.806054220411305,-45.93441096630248 64.47592720154046,-48.434410966303425 63.80605422050665,-50.93441096632992 61.975927201609316,-52.76453798529706 59.47592720160837,-53.43441096642622 56.975927201581875,-52.764537985392415 55.145800182614735,-50.93441096649508 54.475927201485575,-48.434410966494134 55.14580018251938,-45.93441096646764 56.97592720141672,-44.1042839475005 59.47592720141766,-43.43441096637134" stroke="#ffa500" stroke-linecap="round" stroke-linejoin="round"/><polyline fill="none" points="-264.40630957823305,-112.44258763974184 -261.90630957820656,-113.11246062077565 -260.07618255923944,-114.94258763967298 -259.40630957811027,-117.44258763967393 -260.07618255914406,-119.94258763970043 -261.9063095780414,-121.77271465866758 -264.40630957804234,-122.44258763979674 -266.90630957806883,-121.77271465876294 -268.73643659703595,-119.94258763986561 -269.4063095781651,-117.44258763986466 -268.73643659713133,-114.94258763983815 -266.906309578234,-113.112460620871 -264.40630957823305,-112.44258763974184" stroke="#00f" stroke-linecap="round" stroke-linejoin="round"/><polyline fill="none" points="-393.6167167566615,-142.36775703628973 -391.116716756635,-143.03763001732352 -389.2865897376679,-144.86775703622087 -388.6167167565387,-147.3677570362218 -389.2865897375725,-149.8677570362483 -391.1167167564698,-151.69788405521544 -393.6167167564708,-152.3677570363446 -396.1167167564973,-151.69788405531082 -397.9468437754644,-149.86775703641348 -398.6167167565936,-147.36775703641254 -397.9468437755598,-144.86775703638605 -396.11671675666247,-143.0376300174189 -393.6167167566615,-142.36775703628973" stroke="#00f" stroke-linecap="round" stroke-linejoin="round"/><polyline fill="none" points="-419.2641358676887,-169.30517441416364 -416.7641358676622,-169.97504739519744 -414.9340088486951,-171.80517441409478 -414.2641358675659,-174.30517441409572 -414.9340088485997,-176.8051744141222 -416.76413586749703,-178.63530143308935 -419.264135867498,-179.30517441421853 -421.7641358675245,-178.63530143318474 -423.59426288649166,-176.8051744142874 -424.26413586762084,-174.30517441428645 -423.59426288658705,-171.80517441425997 -421.76413586768973,-169.97504739529282 -419.26413586768876,-169.30517441416364" stroke="#00f" stroke-linecap="round" stroke-linejoin="round"/><polyline fill="none" points="-211.57886520754485,40.96317708334537 -209.07886520751836,40.29330410231157 -207.24873818855121,38.463177083414244 -206.57886520742204,35.9631770834133 -207.24873818845583,33.463177083386796 -209.07886520735318,31.633050064419646 -211.5788652073541,30.963177083290475 -214.0788652073806,31.633050064324273 -215.90899222634775,33.4631770832216 -216.57886520747692,35.96317708322255 -215.90899222644313,38.46317708324905 -214.0788652075458,40.2933041022162 -211.57886520754485,40.96317708334537" stroke="#ffa500" stroke-linecap="round" stroke-linejoin="round"/><polyline fill="none" points="-361.51183310061515,-127.86100606659326 -359.01183310058866,-128.53087904762705 -357.1817060816215,-130.3610060665244 -356.5118331004923,-132.86100606652533 -357.1817060815261,-135.36100606655182 -359.0118331004234,-137.19113308551897 -361.5118331004244,-137.86100606664814 -364.0118331004509,-137.19113308561435 -365.84196011941805,-135.36100606671704 -366.5118331005472,-132.8610060667161 -365.84196011951343,-130.36100606668958 -364.0118331006161,-128.53087904772244 -361.51183310061515,-127.86100606659326" stroke="#ffa500" stroke-linecap="round" stroke-linejoin="round"/><polyline fill="none" points="-211.5742901563815,14.684773775640798 -209.074290156355,14.014900794607005 -207.24416313738786,12.184773775709678 -206.57429015625868,9.684773775708733 -207.24416313729247,7.184773775682229 -209.0742901561898,5.354646756715076 -211.57429015619073,4.684773775585899 -214.07429015621724,5.354646756619691 -215.9044171751844,7.184773775517018 -216.57429015631357,9.684773775517963 -215.90441717527978,12.184773775544468 -214.07429015638246,14.014900794511622 -211.57429015638152,14.6847737756408" stroke="#ffa500" stroke-linecap="round" stroke-linejoin="round"/><polyline fill="none" points="-216.94966839874073,58.45920582552727 -214.4496683987142,57.78933284449348 -212.61954137974706,55.95920582559615 -211.9496683986179,53.459205825595205 -212.61954137965168,50.9592058255687 -214.449668398549,49.12907880660155 -216.94966839854993,48.45920582547237 -219.44966839857645,49.12907880650616 -221.2797954175436,50.95920582540348 -221.94966839867277,53.459205825404425 -221.27979541763898,55.95920582543093 -219.44966839874166,57.78933284439808 -216.94966839874073,58.45920582552726" stroke="#ffa500" stroke-linecap="round" stroke-linejoin="round"/><polyline fill="none" points="-236.45674862286415,-119.88121054802292 -233.95674862283764,-120.55108352905671 -232.1266216038705,-122.38121054795404 -231.45674862274132,-124.88121054795499 -232.1266216037751,-127.3812105479815 -233.95674862267242,-129.21133756694866 -236.45674862267336,-129.88121054807783 -238.95674862269988,-129.21133756704404 -240.78687564166702,-127.38121054814671 -241.4567486227962,-124.88121054814576 -240.7868756417624,-122.38121054811926 -238.9567486228651,-120.5510835291521 -236.45674862286415,-119.8812105480229" stroke="#00f" stroke-linecap="round" stroke-linejoin="round"/><polyline fill="none" points="-367.0916156149224,-150.89174511686198 -364.5916156148959,-151.56161809789577 -362.7614885959287,-153.3917451167931 -362.09161561479954,-155.89174511679403 -362.7614885958333,-158.39174511682054 -364.59161561473064,-160.2218721357877 -367.0916156147316,-160.89174511691687 -369.5916156147581,-160.22187213588307 -371.4217426337253,-158.39174511698576 -372.09161561485445,-155.89174511698482 -371.42174263382066,-153.3917451169583 -369.59161561492334,-151.56161809799113 -367.0916156149224,-150.89174511686196" stroke="#00f" stroke-linecap="round" stroke-linejoin="round"/><polyline fill="none" points="-417.4861906254428,-198.94655349533826 -414.9861906254163,-199.61642647637206 -413.15606360644915,-201.44655349526937 -412.48619062532,-203.9465534952703 -413.15606360635377,-206.44655349529683 -414.9861906252511,-208.276680514264 -417.48619062525205,-208.94655349539318 -419.98619062527854,-208.27668051435938 -421.8163176442457,-206.44655349546207 -422.4861906253749,-203.94655349546113 -421.8163176443411,-201.4465534954346 -419.9861906254438,-199.61642647646744 -417.4861906254428,-198.94655349533824" stroke="#ffa500" stroke-linecap="round" stroke-linejoin="round"/><polyline fill="none" points="-306.2544028571961,-41.774495573223504 -303.7544028571696,-42.44436855425729 -301.92427583820245,-44.27449557315461 -301.2544028570733,-46.774495573155555 -301.92427583810706,-49.274495573182065 -303.7544028570044,-51.104622592149234 -306.25440285700535,-51.77449557327842 -308.75440285703183,-51.104622592244645 -310.584529875999,-49.27449557334732 -311.2544028571282,-46.77449557334638 -310.5845298760944,-44.27449557331987 -308.7544028571971,-42.4443685543527 -306.2544028571961,-41.774495573223504" stroke="#ffa500" stroke-linecap="round" stroke-linejoin="round"/><polyline fill="none" points="-217.79338966195508,48.59248131711465 -215.29338966192856,47.92260833608087 -213.46326264296138,46.09248131718355 -212.79338966183218,43.5924813171826 -213.46326264286597,41.09248131715609 -215.29338966176329,39.262354298188924 -217.79338966176422,38.59248131705973 -220.29338966179074,39.262354298093506 -222.12351668075792,41.09248131699083 -222.79338966188712,43.59248131699177 -222.12351668085333,46.09248131701828 -220.293389661956,47.92260833598545 -217.79338966195508,48.59248131711465" stroke="#ffa500" stroke-linecap="round" stroke-linejoin="round"/><polyline fill="none" points="-348.32115503107724,-88.60783014710167 -345.82115503105075,-89.27770312813544 -343.9910280120836,-91.10783014703276 -343.3211550309544,-93.6078301470337 -343.9910280119882,-96.10783014706021 -345.8211550308855,-97.93795716602739 -348.3211550308865,-98.60783014715659 -350.82115503091296,-97.93795716612281 -352.65128204988014,-96.1078301472255 -353.3211550310093,-93.60783014722455 -352.6512820499755,-91.10783014719803 -350.8211550310782,-89.27770312823085 -348.32115503107724,-88.60783014710165" stroke="#00f" stroke-linecap="round" stroke-linejoin="round"/><polyline fill="none" points="-304.17803120398804,-77.73661797582784 -301.67803120396155,-78.40649095686162 -299.8479041849944,-80.23661797575893 -299.1780312038652,-82.73661797575988 -299.847904184899,-85.2366179757864 -301.6780312037963,-87.06674499475358 -304.1780312037973,-87.73661797588278 -306.67803120382376,-87.066744994849 -308.50815822279094,-85.23661797595169 -309.1780312039201,-82.73661797595074 -308.5081582228863,-80.23661797592422 -306.678031203989,-78.40649095695704 -304.17803120398804,-77.73661797582784" stroke="#ffa500" stroke-linecap="round" stroke-linejoin="round"/><polyline fill="none" points="-383.7646493433634,-183.43097256122613 -381.2646493433369,-184.1008455422599 -379.4345223243697,-185.9309725611572 -378.76464934324054,-188.43097256115814 -379.4345223242743,-190.93097256118466 -381.26464934317164,-192.76109958015184 -383.7646493431726,-193.43097256128104 -386.2646493431991,-192.76109958024728 -388.0947763621663,-190.93097256134996 -388.76464934329545,-188.43097256134902 -388.09477636226165,-185.9309725613225 -386.26464934336434,-184.10084554235533 -383.7646493433634,-183.43097256122613" stroke="#00f" stroke-linecap="round" stroke-linejoin="round"/><polyline fill="none" points="-354.9043912251197,-127.6988215060965 -352.4043912250932,-128.36869448713026 -350.57426420612603,-130.19882150602757 -349.9043912249968,-132.6988215060285 -350.5742642060306,-135.19882150605503 -352.4043912249279,-137.0289485250222 -354.9043912249289,-137.6988215061514 -357.40439122495536,-137.02894852511764 -359.23451824392254,-135.19882150622033 -359.90439122505177,-132.6988215062194 -359.234518244018,-130.19882150619287 -357.40439122512066,-128.3686944872257 -354.9043912251197,-127.6988215060965" stroke="#ffa500" stroke-linecap="round" stroke-linejoin="round"/><polyline fill="none" points="-397.7641190266668,-174.6593111399615 -395.26411902664023,-175.32918412099525 -393.43399200767306,-177.15931113989257 -392.7641190265438,-179.6593111398935 -393.4339920075776,-182.15931113992002 -395.26411902647493,-183.9894381588872 -397.7641190264759,-184.6593111400164 -400.26411902650244,-183.98943815898264 -402.0942460454696,-182.15931114008532 -402.76411902659885,-179.65931114008438 -402.09424604556506,-177.15931114005787 -400.26411902666774,-175.3291841210907 -397.7641190266668,-174.6593111399615" stroke="#008000" stroke-linecap="round" stroke-linejoin="round"/><polyline fill="none" points="-204.81197061813782,7.201979336872631 -202.3119706181113,6.532106355838867 -200.48184359914413,4.701979336941555 -199.81197061801493,2.2019793369406093 -200.4818435990487,-0.2980206630859108 -202.311970617946,-2.1281476820530925 -204.81197061794694,-2.798020663182302 -207.31197061797346,-2.1281476821485388 -209.14209763694063,-0.29802066325122833 -209.81197061806984,2.2019793367497167 -209.14209763703607,4.701979336776237 -207.31197061813876,6.532106355743419 -204.81197061813782,7.20197933687263" stroke="#ffa500" stroke-linecap="round" stroke-linejoin="round"/><polyline fill="none" points="59.15997332622815,-53.53964637113697 61.65997332625467,-54.20951935217073 63.490100345221855,-56.03964637106804 64.15997332635106,-58.53964637106898 63.4901003453173,-61.0396463710955 61.659973326419994,-62.86977339006268 59.15997332641905,-63.53964637119189 56.659973326392524,-62.86977339015813 54.82984630742534,-61.03964637126082 54.15997332629613,-58.53964637125988 54.829846307329895,-56.03964637123335 56.6599733262272,-54.20951935226617 59.15997332622815,-53.53964637113695" stroke="#ffa500" stroke-linecap="round" stroke-linejoin="round"/><polyline fill="none" points="-345.2946021092675,-140.837494254373 -342.79460210924094,-141.50736723540678 -340.96447509027377,-143.3374942543041 -340.29460210914453,-145.83749425430503 -340.96447509017827,-148.33749425433155 -342.7946021090756,-150.16762127329872 -345.29460210907655,-150.83749425442792 -347.7946021091031,-150.16762127339416 -349.62472912807027,-148.33749425449685 -350.2946021091995,-145.8374942544959 -349.62472912816577,-143.3374942544694 -347.79460210926845,-141.50736723550222 -345.2946021092675,-140.837494254373" stroke="#ffa500" stroke-linecap="round" stroke-linejoin="round"/><polyline fill="none" points="-395.3866278339112,-145.04434476128807 -392.88662783388463,-145.71421774232184 -391.05650081491746,-147.54434476121915 -390.3866278337882,-150.0443447612201 -391.05650081482196,-152.5443447612466 -392.8866278337193,-154.37447178021378 -395.38662783372024,-155.044344761343 -397.8866278337468,-154.37447178030925 -399.71675485271396,-152.54434476141193 -400.3866278338432,-150.044344761411 -399.71675485280946,-147.54434476138448 -397.88662783391214,-145.71421774241728 -395.3866278339112,-145.04434476128804" stroke="#00f" stroke-linecap="round" stroke-linejoin="round"/><polyline fill="none" points="-419.88716516570724,-207.53281109038002 -417.3871651656807,-208.20268407141378 -415.5570381467135,-210.0328110903111 -414.8871651655843,-212.53281109031204 -415.557038146618,-215.03281109033856 -417.38716516551534,-216.86293810930576 -419.8871651655163,-217.532811090435 -422.38716516554285,-216.86293810940123 -424.21729218451003,-215.0328110905039 -424.88716516563926,-212.53281109050297 -424.2172921846055,-210.03281109047646 -422.3871651657082,-208.20268407150925 -419.88716516570724,-207.53281109038002" stroke="#ffa500" stroke-linecap="round" stroke-linejoin="round"/><polyline fill="none" points="-414.46928021751773,-182.07092104508152 -411.9692802174912,-182.74079402611528 -410.139153198524,-184.5709210450126 -409.4692802173948,-187.07092104501353 -410.1391531984285,-189.57092104504005 -411.96928021732583,-191.40104806400726 -414.4692802173268,-192.0709210451365 -416.96928021735334,-191.40104806410272 -418.7994072363205,-189.5709210452054 -419.46928021744975,-187.07092104520447 -418.799407236416,-184.57092104517795 -416.9692802175187,-182.74079402621075 -414.46928021751773,-182.07092104508152" stroke="#008000" stroke-linecap="round" stroke-linejoin="round"/><polyline fill="none" points="-303.04926781887616,-50.824336863474436 -300.5492678188496,-51.494209844508184 -298.71914079988244,-53.324336863405485 -298.0492678187532,-55.82433686340643 -298.71914079978694,-58.32433686343296 -300.54926781868426,-60.15446388240016 -303.0492678186852,-60.82433686352938 -305.54926781871177,-60.154463882495634 -307.37939483767894,-58.32433686359833 -308.0492678188082,-55.82433686359739 -307.37939483777444,-53.324336863570856 -305.5492678188771,-51.49420984460366 -303.04926781887616,-50.82433686347443" stroke="#ffa500" stroke-linecap="round" stroke-linejoin="round"/><polyline fill="none" points="-321.507670305456,-73.0736152504872 -319.00767030542943,-73.74348823152094 -317.17754328646225,-75.57361525041824 -316.507670305333,-78.07361525041918 -317.17754328636676,-80.57361525044571 -319.00767030526407,-82.40374226941292 -321.50767030526504,-83.07361525054215 -324.0076703052916,-82.4037422695084 -325.83779732425876,-80.5736152506111 -326.507670305388,-78.07361525061015 -325.83779732435426,-75.57361525058361 -324.00767030545694,-73.74348823161641 -321.507670305456,-73.07361525048718" stroke="#ffa500" stroke-linecap="round" stroke-linejoin="round"/><polyline fill="none" points="-383.43788228140613,-176.09940046333736 -380.9378822813796,-176.7692734443711 -379.1077552624124,-178.59940046326838 -378.4378822812832,-181.09940046326932 -379.1077552623169,-183.59940046329584 -380.93788228121423,-185.42952748226304 -383.4378822812152,-186.09940046339227 -385.93788228124174,-185.42952748235854 -387.7680093002089,-183.59940046346125 -388.43788228133815,-181.0994004634603 -387.7680093003044,-178.59940046343377 -385.9378822814071,-176.76927344446656 -383.43788228140613,-176.09940046333733" stroke="#ffa500" stroke-linecap="round" stroke-linejoin="round"/><polyline fill="none" points="-381.1115721904001,-143.49294785272093 -378.6115721903736,-144.16282083375467 -376.7814451714064,-145.99294785265195 -376.1115721902772,-148.4929478526529 -376.7814451713109,-150.99294785267944 -378.6115721902082,-152.82307487164664 -381.1115721902092,-153.49294785277587 -383.61157219023573,-152.82307487174214 -385.44169920920297,-150.99294785284485 -386.1115721903322,-148.4929478528439 -385.44169920929846,-145.99294785281737 -383.61157219040115,-144.16282083385016 -381.1115721904002,-143.49294785272093" stroke="#00f" stroke-linecap="round" stroke-linejoin="round"/><polyline fill="none" points="-395.3110886480427,-171.2560917245717 -392.81108864801615,-171.92596470560542 -390.9809616290489,-173.7560917245027 -390.3110886479197,-176.25609172450365 -390.9809616289534,-178.7560917245302 -392.81108864785074,-180.5862187434974 -395.3110886478517,-181.25609172462663 -397.81108864787825,-180.5862187435929 -399.6412156668455,-178.7560917246956 -400.3110886479747,-176.25609172469467 -399.641215666941,-173.75609172466812 -397.81108864804366,-171.92596470570092 -395.3110886480427,-171.2560917245717" stroke="#00f" stroke-linecap="round" stroke-linejoin="round"/><polyline fill="none" points="-217.49593869243438,-103.5396699192256 -214.99593869240783,-104.20954290025934 -213.16581167344063,-106.03966991915664 -212.4959386923114,-108.53966991915757 -213.16581167334513,-111.0396699191841 -214.99593869224242,-112.86979693815131 -217.49593869224336,-113.53966991928056 -219.9959386922699,-112.86979693824682 -221.8260657112371,-111.03966991934952 -222.49593869236634,-108.53966991934857 -221.8260657113326,-106.03966991932204 -219.99593869243532,-104.20954290035483 -217.49593869243438,-103.53966991922559" stroke="#ffa500" stroke-linecap="round" stroke-linejoin="round"/><polyline fill="none" points="-367.71810089750835,-140.2989638937536 -365.2181008974818,-140.96883687478734 -363.3879738785146,-142.79896389368463 -362.71810089738534,-145.29896389368557 -363.3879738784191,-147.7989638937121 -365.2181008973164,-149.62909091267932 -367.71810089731736,-150.29896389380855 -370.2181008973439,-149.6290909127748 -372.04822791631113,-147.79896389387753 -372.71810089744037,-145.2989638938766 -372.04822791640663,-142.79896389385004 -370.2181008975093,-140.96883687488284 -367.71810089750835,-140.29896389375358" stroke="#ffa500" stroke-linecap="round" stroke-linejoin="round"/><polyline fill="none" points="-313.9328655726147,-78.4288503330102 -311.4328655725881,-79.09872331404394 -309.6027385536209,-80.92885033294122 -308.93286557249166,-83.42885033294218 -309.6027385535254,-85.92885033296872 -311.4328655724227,-87.75897735193594 -313.9328655724237,-88.42885033306518 -316.4328655724502,-87.75897735203145 -318.26299259141746,-85.92885033313416 -318.9328655725467,-83.42885033313321 -318.26299259151295,-80.92885033310667 -316.43286557261564,-79.09872331413945 -313.9328655726147,-78.4288503330102" stroke="#ffa500" stroke-linecap="round" stroke-linejoin="round"/><polyline fill="none" points="-334.6763284461522,-153.84315691705632 -332.17632844612564,-154.51302989809005 -330.3462014271584,-156.34315691698734 -329.6763284460292,-158.84315691698828 -330.3462014270629,-161.34315691701482 -332.1763284459602,-163.17328393598203 -334.6763284459612,-163.8431569171113 -337.17632844598774,-163.17328393607755 -339.00645546495497,-161.34315691718027 -339.6763284460842,-158.84315691717933 -339.00645546505046,-156.34315691715278 -337.17632844615315,-154.51302989818558 -334.6763284461522,-153.84315691705632" stroke="#00f" stroke-linecap="round" stroke-linejoin="round"/><polyline fill="none" points="-238.02789115666718,-17.81805325140281 -235.52789115664064,-18.487926232436536 -233.6977641376734,-20.318053251333826 -233.02789115654414,-22.81805325133477 -233.69776413757788,-25.318053251361313 -235.52789115647516,-27.14818027032853 -238.0278911564761,-27.818053251457783 -240.52789115650265,-27.148180270424056 -242.35801817546988,-25.318053251526766 -243.02789115659914,-22.81805325152582 -242.3580181755654,-20.31805325149928 -240.52789115666812,-18.487926232532057 -238.02789115666718,-17.818053251402805" stroke="#00f" stroke-linecap="round" stroke-linejoin="round"/><polyline fill="none" points="-337.4941641464349,-99.90618217019379 -334.99416414640837,-100.57605515122751 -333.16403712744113,-102.4061821701248 -332.4941641463119,-104.90618217012575 -333.16403712734564,-107.40618217015229 -334.99416414624295,-109.23630918911951 -337.4941641462439,-109.90618217024877 -339.99416414627046,-109.23630918921505 -341.8242911652377,-107.40618217031776 -342.4941641463669,-104.90618217031681 -341.8242911653332,-102.40618217029026 -339.9941641464359,-100.57605515132305 -337.4941641464349,-99.90618217019379" stroke="#ffa500" stroke-linecap="round" stroke-linejoin="round"/><polyline fill="none" points="-412.061629349824,-164.1173083131322 -409.56162934979744,-164.78718129416595 -407.7315023308302,-166.61730831306323 -407.061629349701,-169.11730831306417 -407.7315023307347,-171.61730831309072 -409.561629349632,-173.44743533205795 -412.061629349633,-174.1173083131872 -414.56162934965954,-173.44743533215347 -416.3917563686268,-171.6173083132562 -417.061629349756,-169.11730831325525 -416.39175636872227,-166.6173083132287 -414.561629349825,-164.78718129426147 -412.06162934982405,-164.1173083131322" stroke="#008000" stroke-linecap="round" stroke-linejoin="round"/><polyline fill="none" points="-387.30912520138554,-147.2426528830827 -384.809125201359,-147.91252586411645 -382.97899818239176,-149.74265288301373 -382.3091252012625,-152.24265288301467 -382.9789981822962,-154.74265288304122 -384.80912520119347,-156.57277990200845 -387.30912520119443,-157.2426528831377 -389.809125201221,-156.572779902104 -391.6392522201882,-154.74265288320672 -392.3091252013175,-152.24265288320578 -391.63925222028377,-149.74265288317923 -389.8091252013865,-147.912525864212 -387.30912520138554,-147.24265288308274" stroke="#ffa500" stroke-linecap="round" stroke-linejoin="round"/><polyline fill="none" points="412.1862274110589,-181.7793994590185 414.68622741108544,-182.4492724400522 416.5163544300527,-184.27939945894948 417.18622741118196,-186.77939945895042 416.5163544301482,-189.27939945897697 414.68622741125097,-191.1095264779442 412.18622741125,-191.77939945907346 409.68622741122346,-191.10952647803975 407.8561003922562,-189.27939945914247 407.18622741112694,-186.77939945914153 407.85610039216067,-184.27939945911498 409.6862274110579,-182.44927244014775 412.1862274110589,-181.7793994590185" stroke="#ffa500" stroke-linecap="round" stroke-linejoin="round"/></svg>