<?xml version="1.0" ?><!DOCTYPE svg  PUBLIC '-//W3C//DTD SVG 1.1//EN'  'http://www.w3.org/Graphics/SVG/1.1/DTD/svg11.dtd'><svg height="422.000" viewBox="-204.000 -211.000 413.000 422.000" width="413.000" xmlns="http://www.w3.org/2000/svg"><line fill="none" stroke="none" stroke-linecap="round" stroke-width="2.0" x1="0.0" x2="0.0" y1="0.0" y2="0.0"/><polygon fill="none" fill-rule="evenodd" points="0.0,0.0 0.0,0.0 0.0,0.0" stroke-linejoin="round"/><polyline fill="none" points="-3.530262858285722,-17.38146105981336 -1.0302628582854099,-18.05133404089066 0.7998641606373094,-19.881461059812565 1.4697371417157152,-22.38146105981258 0.79986416063842,-24.881461059812892 -1.0302628582834863,-26.711588078735613 -3.5302628582835016,-27.38146105981402 -6.030262858283814,-26.711588078736725 -7.860389877206535,-24.881461059814818 -8.530262858284942,-22.381461059814804 -7.860389877207648,-19.88146105981449 -6.0302628582857425,-18.05133404089177 -3.5302628582857274,-17.38146105981336" stroke="#00f" stroke-linecap="round" stroke-linejoin="round"/><polyline fill="none" points="-3.336791613673172,-125.62705125134866 -0.8367916136728586,-126.29692423242595 0.9933354052498629,-128.12705125134786 1.6632083863282712,-130.6270512513479 0.993335405250978,-133.1270512513482 -0.836791613670927,-134.95717827027093 -3.3367916136709415,-135.62705125134934 -5.836791613671256,-134.95717827027204 -7.666918632593978,-133.12705125135014 -8.336791613672387,-130.6270512513501 -7.666918632595095,-128.1270512513498 -5.836791613673191,-126.29692423242707 -3.3367916136731766,-125.62705125134866" stroke="#008000" stroke-linecap="round" stroke-linejoin="round"/><polyline fill="none" points="17.276708605861874,-189.94002462136953 19.77670860586219,-190.60989760244684 21.606835624784914,-192.44002462136874 22.276708605863327,-194.94002462136876 21.606835624786036,-197.44002462136908 19.776708605864133,-199.2701516402918 17.27670860586412,-199.9400246213702 14.776708605863803,-199.27015164029294 12.946581586941077,-197.44002462137104 12.276708605862664,-194.940024621371 12.946581586939953,-192.4400246213707 14.776708605861856,-190.60989760244797 17.27670860586187,-189.94002462136956" stroke="#ffa500" stroke-linecap="round" stroke-linejoin="round"/><polyline fill="none" points="2.277815490337332,-93.29159648553538 4.777815490337648,-93.96146946661267 6.607942509260375,-95.79159648553457 7.2778154903387895,-98.29159648553458 6.607942509261502,-100.7915964855349 4.7778154903396,-102.62172350445762 2.2778154903395857,-103.29159648553603 -0.2221845096607309,-102.62172350445874 -2.0523115285834583,-100.79159648553684 -2.722184509661874,-98.29159648553683 -2.052311528584587,-95.79159648553652 -0.222184509662686,-93.96146946661379 2.2778154903373284,-93.29159648553538" stroke="#008000" stroke-linecap="round" stroke-linejoin="round"/><polyline fill="none" points="16.64707497117373,-25.73552150756076 19.14707497117405,-26.40539448863805 20.977201990096777,-28.235521507559948 21.647074971175194,-30.735521507559962 20.977201990097907,-33.23552150756028 19.147074971176007,-35.06564852648301 16.647074971175993,-35.73552150756143 14.147074971175675,-35.065648526484146 12.316947952252944,-33.23552150756225 11.647074971174526,-30.735521507562233 12.31694795225181,-28.235521507561913 14.14707497117371,-26.405394488639182 16.647074971173726,-25.73552150756076" stroke="#00f" stroke-linecap="round" stroke-linejoin="round"/><polyline fill="none" points="21.730383072982004,-114.17426490750594 24.230383072982324,-114.84413788858323 26.060510091905055,-116.67426490750513 26.730383072983475,-119.17426490750515 26.060510091906192,-121.67426490750546 24.230383072984292,-123.5043919264282 21.730383072984278,-124.17426490750663 19.230383072983958,-123.50439192642935 17.400256054061227,-121.67426490750745 16.730383072982807,-119.17426490750744 17.40025605406009,-116.67426490750711 19.23038307298199,-114.84413788858437 21.730383072982004,-114.17426490750594" stroke="#00f" stroke-linecap="round" stroke-linejoin="round"/><polyline fill="none" points="72.04723596930232,-178.70555055377062 74.54723596930265,-179.3754235348479 76.37736298822539,-181.2055505537698 77.04723596930381,-183.70555055376983 76.37736298822654,-186.20555055377014 74.54723596930464,-188.03567757269286 72.04723596930462,-188.70555055377127 69.5472359693043,-188.035677572694 67.71710895038156,-186.2055505537721 67.04723596930313,-183.70555055377207 67.7171089503804,-181.20555055377176 69.5472359693023,-179.37542353484903 72.04723596930232,-178.70555055377062" stroke="#ffa500" stroke-linecap="round" stroke-linejoin="round"/><polyline fill="none" points="35.544181221552904,-140.4488369907623 38.044181221553224,-141.11870997183956 39.87430824047596,-142.94883699076146 40.54418122155439,-145.4488369907615 39.87430824047711,-147.9488369907618 38.04418122155521,-149.77896400968453 35.5441812215552,-150.44883699076294 33.04418122155488,-149.77896400968567 31.21405420263214,-147.94883699076377 30.544181221553714,-145.44883699076374 31.21405420263099,-142.94883699076343 33.04418122155289,-141.1187099718407 35.544181221552904,-140.4488369907623" stroke="#00f" stroke-linecap="round" stroke-linejoin="round"/><polyline fill="none" points="93.18281591857557,-163.27838484634893 95.6828159185759,-163.9482578274262 97.51294293749864,-165.7783848463481 98.18281591857706,-168.27838484634813 97.51294293749979,-170.77838484634844 95.68281591857789,-172.6085118652712 93.18281591857787,-173.27838484634964 90.68281591857755,-172.60851186527236 88.85268889965481,-170.77838484635046 88.18281591857638,-168.27838484635043 88.85268889965366,-165.77838484635012 90.68281591857556,-163.94825782742737 93.18281591857557,-163.27838484634893" stroke="#ffa500" stroke-linecap="round" stroke-linejoin="round"/><polyline fill="none" points="106.88135543678511,-113.63910958043556 109.38135543678544,-114.30898256151283 111.21148245570818,-116.13910958043473 111.8813554367866,-118.63910958043475 111.21148245570933,-121.13910958043508 109.38135543678743,-122.96923659935781 106.88135543678742,-123.63910958043624 104.38135543678709,-122.96923659935896 102.55122841786435,-121.13910958043707 101.88135543678592,-118.63910958043705 102.5512284178632,-116.13910958043672 104.3813554367851,-114.30898256151399 106.88135543678511,-113.63910958043556" stroke="#00f" stroke-linecap="round" stroke-linejoin="round"/><polyline fill="none" points="48.96460171121518,-109.16423500169985 51.46460171121551,-109.83410798277713 53.29472873013825,-111.66423500169903 53.96460171121669,-114.16423500169904 53.29472873013941,-116.66423500169937 51.46460171121752,-118.4943620206221 48.964601711217504,-119.16423500170053 46.46460171121718,-118.49436202062326 44.63447469229443,-116.66423500170136 43.964601711216,-114.16423500170134 44.63447469229327,-111.66423500170102 46.46460171121516,-109.83410798277828 48.964601711215174,-109.16423500169984" stroke="#00f" stroke-linecap="round" stroke-linejoin="round"/><polyline fill="none" points="87.0644387460544,-66.32838031264149 89.56443874605473,-66.99825329371876 91.39456576497747,-68.82838031264066 92.06443874605591,-71.32838031264068 91.39456576497864,-73.828380312641 89.56443874605675,-75.65850733156375 87.06443874605674,-76.3283803126422 84.56443874605641,-75.65850733156492 82.73431172713366,-73.82838031264303 82.06443874605522,-71.32838031264302 82.73431172713248,-68.8283803126427 84.56443874605436,-66.99825329371994 87.06443874605438,-66.3283803126415" stroke="#00f" stroke-linecap="round" stroke-linejoin="round"/><polyline fill="none" points="113.42722193857816,-139.30777945719169 115.92722193857848,-139.97765243826896 117.75734895750124,-141.80777945719086 118.42722193857968,-144.3077794571909 117.75734895750242,-146.80777945719123 115.92722193858053,-148.63790647611398 113.42722193858052,-149.30777945719242 110.92722193858019,-148.63790647611515 109.09709491965744,-146.80777945719325 108.427221938579,-144.30777945719322 109.09709491965626,-141.80777945719288 110.92722193857814,-139.97765243827013 113.42722193857816,-139.30777945719169" stroke="#ffa500" stroke-linecap="round" stroke-linejoin="round"/><polyline fill="none" points="116.55330626815753,-129.33774567909592 119.05330626815785,-130.0076186601732 120.8834332870806,-131.8377456790951 121.55330626815905,-134.33774567909512 120.88343328708179,-136.83774567909546 119.0533062681599,-138.66787269801821 116.55330626815989,-139.33774567909666 114.05330626815956,-138.66787269801938 112.22317924923681,-136.83774567909748 111.55330626815837,-134.33774567909745 112.22317924923563,-131.8377456790971 114.05330626815751,-130.00761866017436 116.55330626815753,-129.33774567909592" stroke="#ffa500" stroke-linecap="round" stroke-linejoin="round"/><polyline fill="none" points="140.71599138125237,-127.03679730910642 143.2159913812527,-127.70667029018368 145.04611840017546,-129.53679730910557 145.7159913812539,-132.0367973091056 145.04611840017662,-134.53679730910594 143.21599138125472,-136.3669243280287 140.7159913812547,-137.03679730910713 138.21599138125436,-136.36692432802985 136.3858643623316,-134.53679730910795 135.71599138125316,-132.03679730910793 136.38586436233044,-129.53679730910758 138.21599138125234,-127.70667029018483 140.71599138125237,-127.03679730910639" stroke="#ffa500" stroke-linecap="round" stroke-linejoin="round"/><polyline fill="none" points="80.67024790448455,-104.72882411400782 83.17024790448488,-105.39869709508508 85.00037492340763,-107.22882411400697 85.67024790448608,-109.72882411400698 85.00037492340881,-112.22882411400732 83.17024790448693,-114.05895113293008 80.67024790448691,-114.72882411400852 78.17024790448657,-114.05895113293126 76.34012088556382,-112.22882411400937 75.67024790448538,-109.72882411400936 76.34012088556264,-107.22882411400902 78.17024790448453,-105.39869709508626 80.67024790448454,-104.72882411400781" stroke="#00f" stroke-linecap="round" stroke-linejoin="round"/><polyline fill="none" points="53.48965165474447,-60.88288871704458 55.989651654744804,-61.55276169812184 57.819778673667564,-63.38288871704373 58.48965165474601,-65.88288871704374 57.81977867366875,-68.38288871704408 55.989651654746865,-70.21301573596683 53.48965165474685,-70.88288871704529 50.98965165474652,-70.21301573596803 49.15952463582376,-68.38288871704614 48.48965165474531,-65.88288871704613 49.159524635822564,-63.382888717045795 50.98965165474445,-61.552761698123035 53.48965165474446,-60.88288871704459" stroke="#00f" stroke-linecap="round" stroke-linejoin="round"/><polyline fill="none" points="139.81053225099552,-84.79504384357644 142.31053225099586,-85.4649168246537 144.14065926991861,-87.29504384357558 144.81053225099706,-89.7950438435756 144.1406592699198,-92.29504384357594 142.31053225099794,-94.1251708624987 139.8105322509979,-94.79504384357716 137.31053225099757,-94.1251708624999 135.48040523207482,-92.29504384357801 134.81053225099637,-89.795043843578 135.48040523207362,-87.29504384357766 137.3105322509955,-85.46491682465489 139.81053225099552,-84.79504384357644" stroke="#ffa500" stroke-linecap="round" stroke-linejoin="round"/><polyline fill="none" points="76.51478361942583,-75.23014262861214 79.01478361942617,-75.90001560968939 80.84491063834894,-77.73014262861128 81.51478361942739,-80.23014262861129 80.84491063835014,-82.73014262861163 79.01478361942826,-84.5602696475344 76.51478361942824,-85.23014262861285 74.0147836194279,-84.5602696475356 72.18465660050514,-82.73014262861372 71.51478361942668,-80.2301426286137 72.18465660050393,-77.73014262861336 74.01478361942581,-75.9000156096906 76.51478361942583,-75.23014262861214" stroke="#00f" stroke-linecap="round" stroke-linejoin="round"/><polyline fill="none" points="89.58135037695612,-34.88969566989556 92.08135037695646,-35.559568650972814 93.91147739587923,-37.3896956698947 94.58135037695769,-39.889695669894714 93.91147739588044,-42.389695669895055 92.08135037695855,-44.21982268881782 89.58135037695854,-44.88969566989628 87.0813503769582,-44.21982268881903 85.25122335803543,-42.38969566989715 84.58135037695698,-39.88969566989714 85.25122335803422,-37.389695669896795 87.08135037695611,-35.55956865097403 89.58135037695612,-34.889695669895566" stroke="#00f" stroke-linecap="round" stroke-linejoin="round"/><polyline fill="none" points="157.2267832638631,-78.7817930266944 159.72678326386344,-79.45166600777165 161.55691028278622,-81.28179302669353 162.2267832638647,-83.78179302669355 161.55691028278744,-86.28179302669389 159.72678326386557,-88.11192004561666 157.22678326386554,-88.78179302669511 154.7267832638652,-88.11192004561786 152.89665624494242,-86.28179302669598 152.22678326386395,-83.78179302669596 152.8966562449412,-81.28179302669562 154.72678326386307,-79.45166600777286 157.2267832638631,-78.7817930266944" stroke="#ffa500" stroke-linecap="round" stroke-linejoin="round"/><polyline fill="none" points="152.37974447725514,-65.4333099140495 154.87974447725549,-66.10318289512675 156.70987149617827,-67.93330991404864 157.37974447725674,-70.43330991404865 156.7098714961795,-72.93330991404899 154.87974447725762,-74.76343693297176 152.3797444772576,-75.43330991405023 149.87974447725725,-74.76343693297298 148.04961745833447,-72.9333099140511 147.379744477256,-70.43330991405108 148.04961745833324,-67.93330991405074 149.87974447725512,-66.10318289512797 152.37974447725514,-65.4333099140495" stroke="#ffa500" stroke-linecap="round" stroke-linejoin="round"/><polyline fill="none" points="171.18069926744647,-38.20279365430659 173.6806992674468,-38.87266663538384 175.5108262863696,-40.702793654305715 176.18069926744806,-43.20279365430573 175.51082628637081,-45.70279365430607 173.68069926744894,-47.532920673228844 171.18069926744892,-48.202793654307314 168.68069926744857,-47.53292067323007 166.8505722485258,-45.702793654308195 166.18069926744732,-43.20279365430818 166.85057224852457,-40.70279365430784 168.68069926744644,-38.872666635385066 171.18069926744647,-38.202793654306596" stroke="#ffa500" stroke-linecap="round" stroke-linejoin="round"/><polyline fill="none" points="107.03280685286043,-23.67828164507247 109.53280685286077,-24.348154626149714 111.36293387178355,-26.178281645071593 112.03280685286202,-28.67828164507161 111.36293387178478,-31.178281645071955 109.5328068528629,-33.00840866399473 107.03280685286289,-33.6782816450732 104.53280685286255,-33.00840866399596 102.70267983393977,-31.17828164507408 102.0328068528613,-28.678281645074062 102.70267983393855,-26.178281645073717 104.53280685286042,-24.348154626150944 107.03280685286043,-23.678281645072474" stroke="#00f" stroke-linecap="round" stroke-linejoin="round"/><polyline fill="none" points="175.56661867070503,-15.903924211471068 178.06661867070537,-16.57379719254831 179.89674568962815,-18.403924211470187 180.56661867070662,-20.903924211470205 179.89674568962937,-23.40392421147055 178.0666186707075,-25.234051230393327 175.56661867070747,-25.903924211471796 173.06661867070713,-25.234051230394556 171.23649165178435,-23.40392421147268 170.56661867070588,-20.903924211472663 171.23649165178313,-18.403924211472315 173.066618670705,-16.573797192549538 175.56661867070503,-15.903924211471066" stroke="#ffa500" stroke-linecap="round" stroke-linejoin="round"/><polyline fill="none" points="182.7230261725175,-16.192182724754 185.22302617251785,-16.862055705831242 187.05315319144063,-18.692182724753117 187.7230261725191,-21.192182724753135 187.05315319144185,-23.692182724753483 185.22302617251998,-25.52230974367626 182.72302617251995,-26.192182724754733 180.2230261725196,-25.522309743677496 178.39289915359683,-23.69218272475562 177.72302617251836,-21.192182724755604 178.3928991535956,-18.692182724755256 180.22302617251748,-16.862055705832475 182.7230261725175,-16.192182724754" stroke="#ffa500" stroke-linecap="round" stroke-linejoin="round"/><polyline fill="none" points="191.57088612146967,-18.157426149474237 194.07088612147,-18.827299130551474 195.9010131403928,-20.65742614947335 196.57088612147126,-23.157426149473366 195.901013140394,-25.657426149473714 194.07088612147214,-27.487553168396495 191.5708861214721,-28.157426149474972 189.07088612147177,-27.487553168397735 187.240759102549,-25.657426149475864 186.57088612147052,-23.157426149475846 187.24075910254777,-20.657426149475498 189.07088612146964,-18.827299130552717 191.57088612146967,-18.15742614947424" stroke="#ffa500" stroke-linecap="round" stroke-linejoin="round"/><polyline fill="none" points="169.9887959482267,1.484827133127466 172.48879594822705,0.8149541520502317 174.31892296714983,-1.0151728668716409 174.9887959482283,-3.5151728668716578 174.31892296715105,-6.015172866872009 172.48879594822918,-7.845299885794792 169.98879594822915,-8.51517286687327 167.4887959482288,-7.845299885796036 165.65866892930603,-6.015172866874164 164.98879594822756,-3.5151728668741473 165.65866892930478,-1.0151728668737965 167.48879594822665,0.814954152048988 169.98879594822668,1.4848271331274683" stroke="#ffa500" stroke-linecap="round" stroke-linejoin="round"/><polyline fill="none" points="173.78493072525558,24.09897524720375 176.28493072525592,23.429102266126517 178.1150577441787,21.598975247204645 178.78493072525717,19.098975247204628 178.11505774417995,16.598975247204276 176.28493072525808,14.76884822828149 173.78493072525805,14.098975247203008 171.2849307252577,14.768848228280238 169.45480370633493,16.59897524720211 168.78493072525646,19.098975247202127 169.45480370633368,21.59897524720248 171.28493072525555,23.429102266125266 173.78493072525558,24.09897524720375" stroke="#ffa500" stroke-linecap="round" stroke-linejoin="round"/><polyline fill="none" points="181.91560712628728,22.047535298900936 184.41560712628763,21.377662317823706 186.2457341452104,19.547535298901835 186.91560712628888,17.047535298901817 186.24573414521166,14.547535298901465 184.41560712628979,12.717408279978677 181.91560712628976,12.047535298900193 179.41560712628942,12.717408279977422 177.58548010736664,14.547535298899291 176.91560712628814,17.04753529889931 177.58548010736536,19.54753529889966 179.41560712628723,21.37766231782245 181.91560712628726,22.047535298900932" stroke="#ffa500" stroke-linecap="round" stroke-linejoin="round"/><polyline fill="none" points="176.0648567497326,46.87071946392088 178.56485674973294,46.20084648284365 180.39498376865572,44.37071946392178 181.06485674973422,41.870719463921766 180.394983768657,39.37071946392141 178.56485674973513,37.54059244499862 176.0648567497351,36.87071946392014 173.56485674973476,37.540592444997365 171.73472973081198,39.37071946391923 171.06485674973348,41.870719463919244 171.7347297308107,44.3707194639196 173.56485674973257,46.20084648284239 176.0648567497326,46.87071946392088" stroke="#ffa500" stroke-linecap="round" stroke-linejoin="round"/><polyline fill="none" points="113.03510010722367,35.147921350459455 115.53510010722403,34.47804836938223 117.36522712614682,32.647921350460365 118.0351001072253,30.147921350460347 117.36522712614808,27.647921350459992 115.53510010722621,25.8177943315372 113.0351001072262,25.14792135045871 110.53510010722584,25.817794331535932 108.70497308830305,27.6479213504578 108.03510010722457,30.147921350457818 108.70497308830178,32.64792135045818 110.53510010722366,34.47804836938097 113.03510010722367,35.14792135045946" stroke="#00f" stroke-linecap="round" stroke-linejoin="round"/><polyline fill="none" points="60.228043425365875,34.004956436503804 62.72804342536623,33.33508345542658 64.55817044428902,31.50495643650471 65.22804342536752,29.004956436504692 64.5581704442903,26.504956436504333 62.72804342536843,24.674829417581538 60.22804342536841,24.004956436503047 57.72804342536806,24.67482941758027 55.89791640644526,26.504956436502134 55.22804342536677,29.00495643650215 55.89791640644399,31.50495643650251 57.728043425365854,33.335083455425305 60.22804342536587,34.0049564365038" stroke="#00f" stroke-linecap="round" stroke-linejoin="round"/><polyline fill="none" points="168.91632327110165,57.80622378704216 171.41632327110202,57.13635080596494 173.24645029002482,55.30622378704307 173.91632327110332,52.80622378704305 173.2464502900261,50.30622378704269 171.41632327110423,48.476096768119895 168.9163232711042,47.806223787041404 166.41632327110383,48.47609676811862 164.58619625218103,50.30622378704049 163.91632327110253,52.80622378704051 164.58619625217975,55.30622378704087 166.41632327110162,57.13635080596367 168.91632327110165,57.80622378704217" stroke="#ffa500" stroke-linecap="round" stroke-linejoin="round"/><polyline fill="none" points="165.00500495339944,67.65160155628377 167.5050049533998,66.98172857520655 169.3351319723226,65.15160155628467 170.0050049534011,62.65160155628465 169.3351319723239,60.15160155628429 167.50500495340202,58.32147453736149 165.005004953402,57.65160155628299 162.50500495340162,58.32147453736021 160.67487793447881,60.151601556282074 160.00500495340032,62.651601556282095 160.67487793447754,65.15160155628246 162.5050049533994,66.98172857520527 165.00500495339944,67.65160155628377" stroke="#ffa500" stroke-linecap="round" stroke-linejoin="round"/><polyline fill="none" points="172.50730473375603,75.38335283232219 175.0073047337564,74.71347985124497 176.8374317526792,72.88335283232311 177.5073047337577,70.3833528323231 176.8374317526805,67.88335283232273 175.00730473375862,66.05322581339992 172.5073047337586,65.38335283232142 170.00730473375822,66.05322581339864 168.1771777148354,67.8833528323205 167.5073047337569,70.38335283232051 168.17717771483413,72.88335283232088 170.007304733756,74.71347985124369 172.50730473375603,75.38335283232219" stroke="#ffa500" stroke-linecap="round" stroke-linejoin="round"/><polyline fill="none" points="149.2956563507338,95.40820144338863 151.79565635073416,94.73832846231142 153.62578336965697,92.90820144338956 154.29565635073547,90.40820144338954 153.62578336965825,87.90820144338917 151.79565635073638,86.07807442446637 149.29565635073635,85.40820144338787 146.79565635073598,86.07807442446509 144.96552933181317,87.90820144338694 144.29565635073467,90.40820144338696 144.9655293318119,92.90820144338733 146.79565635073376,94.73832846231014 149.2956563507338,95.40820144338863" stroke="#ffa500" stroke-linecap="round" stroke-linejoin="round"/><polyline fill="none" points="163.60683040966956,100.76338299556794 166.10683040966993,100.09351001449073 167.93695742859273,98.26338299556888 168.60683040967123,95.76338299556886 167.936957428594,93.26338299556849 166.10683040967214,91.43325597664568 163.6068304096721,90.76338299556717 161.10683040967174,91.43325597664438 159.27670339074893,93.26338299556623 158.60683040967044,95.76338299556625 159.27670339074766,98.26338299556662 161.10683040966953,100.09351001448942 163.60683040966956,100.76338299556794" stroke="#ffa500" stroke-linecap="round" stroke-linejoin="round"/><polyline fill="none" points="155.84153765025025,102.40267665565159 158.34153765025061,101.73280367457438 160.17166466917342,99.90267665565253 160.84153765025192,97.40267665565251 160.1716646691747,94.90267665565214 158.34153765025283,93.07254963672933 155.8415376502528,92.40267665565082 153.34153765025243,93.07254963672803 151.51141063132962,94.90267665564988 150.84153765025113,97.4026766556499 151.51141063132835,99.90267665565027 153.34153765025022,101.73280367457308 155.84153765025025,102.40267665565159" stroke="#ffa500" stroke-linecap="round" stroke-linejoin="round"/><polyline fill="none" points="150.95975371721593,117.75135516329976 153.4597537172163,117.08148218222256 155.2898807361391,115.2513551633007 155.9597537172176,112.75135516330069 155.2898807361404,110.25135516330032 153.45975371721852,108.42122814437751 150.9597537172185,107.751355163299 148.45975371721812,108.4212281443762 146.6296266982953,110.25135516329806 145.9597537172168,112.75135516329807 146.62962669829403,115.25135516329844 148.4597537172159,117.08148218222125 150.95975371721593,117.75135516329976" stroke="#ffa500" stroke-linecap="round" stroke-linejoin="round"/><polyline fill="none" points="145.52655148932266,133.51968244847373 148.02655148932303,132.84980946739654 149.85667850824584,131.0196824484747 150.52655148932436,128.51968244847467 149.85667850824717,126.0196824484743 148.02655148932533,124.18955542955149 145.5265514893253,123.51968244847298 143.02655148932493,124.18955542955018 141.19642447040212,126.01968244847204 140.5265514893236,128.51968244847205 141.19642447040079,131.01968244847242 143.02655148932263,132.84980946739523 145.52655148932266,133.51968244847376" stroke="#ffa500" stroke-linecap="round" stroke-linejoin="round"/><polyline fill="none" points="116.47236081704426,138.23908700382694 118.97236081704463,137.56921402274975 120.80248783596745,135.7390870038279 121.47236081704597,133.23908700382788 120.80248783596876,130.7390870038275 118.9723608170469,128.9089599849047 116.47236081704689,128.23908700382617 113.97236081704652,128.90895998490336 112.1422337981237,130.7390870038252 111.47236081704519,133.23908700382523 112.14223379812239,135.7390870038256 113.97236081704425,137.5692140227484 116.47236081704426,138.23908700382694" stroke="#ffa500" stroke-linecap="round" stroke-linejoin="round"/><polyline fill="none" points="130.12168190047115,148.0534273267531 132.62168190047151,147.38355434567592 134.45180891939432,145.55342732675408 135.12168190047285,143.05342732675405 134.45180891939566,140.55342732675368 132.62168190047382,138.72330030783087 130.1216819004738,138.05342732675234 127.62168190047342,138.72330030782953 125.7915548815506,140.55342732675138 125.12168190047207,143.0534273267514 125.79155488154927,145.55342732675177 127.62168190047113,147.38355434567458 130.12168190047115,148.0534273267531" stroke="#ffa500" stroke-linecap="round" stroke-linejoin="round"/><polyline fill="none" points="51.82837359303087,82.4956293332212 54.328373593031245,81.825756352144 56.15850061195407,79.99562933322214 56.82837359303259,77.49562933322213 56.15850061195539,74.99562933322176 54.32837359303354,73.16550231429893 51.82837359303352,72.4956293332204 49.32837359303314,73.1655023142976 47.49824657411032,74.99562933321945 46.8283735930318,77.49562933321947 47.498246574109,79.99562933321984 49.32837359303085,81.82575635214266 51.82837359303087,82.49562933322119" stroke="#008000" stroke-linecap="round" stroke-linejoin="round"/><polyline fill="none" points="100.35256599567688,159.48740834311144 102.85256599567725,158.81753536203425 104.68269301460008,156.9874083431124 105.3525659956786,154.48740834311238 104.68269301460141,151.987408343112 102.85256599567956,150.15728132418917 100.35256599567954,149.48740834311064 97.85256599567917,150.15728132418784 96.02243897675635,151.98740834310968 95.35256599567782,154.4874083431097 96.02243897675501,156.98740834311008 97.85256599567687,158.8175353620329 100.35256599567688,159.48740834311144" stroke="#ffa500" stroke-linecap="round" stroke-linejoin="round"/><polyline fill="none" points="92.89409806499401,163.8876866453763 95.3940980649944,163.21781366429911 97.22422508391722,161.38768664537727 97.89409806499575,158.88768664537724 97.22422508391855,156.38768664537687 95.39409806499671,154.55755962645404 92.8940980649967,153.8876866453755 90.39409806499631,154.5575596264527 88.56397104607349,156.38768664537454 87.89409806499496,158.88768664537457 88.56397104607215,161.38768664537494 90.394098064994,163.21781366429778 92.89409806499401,163.8876866453763" stroke="#ffa500" stroke-linecap="round" stroke-linejoin="round"/><polyline fill="none" points="56.54441813112005,162.4863923612273 59.04441813112042,161.8165193801501 60.874545150043254,159.98639236122827 61.54441813112178,157.48639236122824 60.87454515004459,154.98639236122787 59.04441813112274,153.15626534230503 56.54441813112272,152.4863923612265 54.04441813112234,153.1562653423037 52.21429111219951,154.98639236122554 51.54441813112098,157.48639236122557 52.21429111219817,159.98639236122594 54.04441813112002,161.81651938014878 56.54441813112004,162.4863923612273" stroke="#ffa500" stroke-linecap="round" stroke-linejoin="round"/><polyline fill="none" points="17.271462128200394,111.86564731383504 19.771462128200774,111.19577433275785 21.601589147123605,109.365647313836 22.271462128202135,106.86564731383599 21.601589147124947,104.36564731383561 19.7714621282031,102.53552029491277 17.271462128203083,101.86564731383424 14.771462128202703,102.53552029491144 12.941335109279871,104.36564731383328 12.271462128201337,106.86564731383329 12.941335109278524,109.36564731383368 14.77146212820037,111.19577433275651 17.27146212820039,111.86564731383504" stroke="#00f" stroke-linecap="round" stroke-linejoin="round"/><polyline fill="none" points="32.7623794874991,119.89963153882827 35.26237948749949,119.22975855775108 37.09250650642232,117.39963153882924 37.76237948750085,114.89963153882923 37.09250650642367,112.39963153882884 35.26237948750182,110.569504519906 32.762379487501796,109.89963153882746 30.262379487501416,110.56950451990465 28.432252468578582,112.3996315388265 27.762379487500045,114.89963153882651 28.43225246857723,117.3996315388269 30.262379487499075,119.22975855774973 32.762379487499096,119.89963153882827" stroke="#00f" stroke-linecap="round" stroke-linejoin="round"/><polyline fill="none" points="48.519127790222576,161.29111468251807 51.01912779022296,160.62124170144088 52.8492548091458,158.79111468251904 53.51912779022433,156.291114682519 52.84925480914715,153.79111468251864 51.019127790225305,151.9609876635958 48.51912779022528,151.29111468251728 46.0191277902249,151.96098766359447 44.18900077130206,153.7911146825163 43.51912779022352,156.29111468251634 44.189000771300705,158.7911146825167 46.01912779022255,160.62124170143954 48.51912779022257,161.29111468251807" stroke="#ffa500" stroke-linecap="round" stroke-linejoin="round"/><polyline fill="none" points="33.97225350195055,190.72123561829218 36.47225350195093,190.051362637215 38.30238052087377,188.22123561829315 38.97225350195231,185.72123561829312 38.302380520875126,183.22123561829275 36.47225350195328,181.39110859936991 33.97225350195326,180.7212356182914 31.472253501952878,181.39110859936858 29.64212648303004,183.22123561829042 28.9722535019515,185.72123561829045 29.64212648302868,188.22123561829082 31.472253501950522,190.05136263721366 33.97225350195054,190.7212356182922" stroke="#ffa500" stroke-linecap="round" stroke-linejoin="round"/><polyline fill="none" points="29.403752669070858,174.8711703238004 31.903752669071242,174.20129734272322 33.73387968799408,172.37117032380138 34.403752669072624,169.87117032380135 33.73387968799545,167.37117032380095 31.903752669073604,165.54104330487812 29.403752669073583,164.87117032379956 26.9037526690732,165.54104330487675 25.07362565015036,167.3711703237986 24.403752669071814,169.87117032379862 25.07362565014899,172.37117032379902 26.90375266907083,174.20129734272186 29.403752669070848,174.8711703238004" stroke="#ffa500" stroke-linecap="round" stroke-linejoin="round"/><polyline fill="none" points="15.317034640067284,16.42361197320249 17.817034640067668,15.753738992125314 19.64716165899051,13.923611973203473 20.317034640069053,11.423611973203453 19.647161658991877,8.923611973203068 17.817034640070037,7.093484954280226 15.317034640070018,6.42361197320168 12.817034640069632,7.093484954278857 10.98690762114679,8.923611973200696 10.317034640068243,11.423611973200716 10.98690762114542,13.923611973201101 12.81703464006726,15.753738992123944 15.317034640067279,16.42361197320249" stroke="#00f" stroke-linecap="round" stroke-linejoin="round"/><polyline fill="none" points="-21.025201041814434,115.46104044321682 -18.525201041814046,114.79116746213964 -16.695074022891202,112.9610404432178 -16.025201041812654,110.46104044321778 -16.695074022889827,107.9610404432174 -18.525201041811666,106.13091342429456 -21.025201041811684,105.461040443216 -23.52520104181207,106.13091342429318 -25.355328060734916,107.96104044321503 -26.025201041813464,110.46104044321504 -25.35532806073629,112.96104044321542 -23.52520104181445,114.79116746213828 -21.025201041814434,115.46104044321683" stroke="#00f" stroke-linecap="round" stroke-linejoin="round"/><polyline fill="none" points="-5.951940490060201,199.05750238657566 -3.4519404900598127,198.3876294054985 -1.6218134711369665,196.55750238657666 -0.9519404900584162,194.05750238657663 -1.6218134711355883,191.55750238657623 -3.451940490057426,189.7273753676534 -5.951940490057446,189.05750238657484 -8.451940490057835,189.727375367652 -10.282067508980683,191.55750238657384 -10.951940490059235,194.05750238657387 -10.282067508982063,196.55750238657427 -8.451940490060226,198.3876294054971 -5.951940490060207,199.05750238657566" stroke="#ffa500" stroke-linecap="round" stroke-linejoin="round"/><polyline fill="none" points="-10.153669578960955,182.40376683102963 -7.6536695789605655,181.73389384995247 -5.823542560037717,179.90376683103062 -5.153669578959164,177.4037668310306 -5.8235425600363335,174.9037668310302 -7.65366957895817,173.07363981210736 -10.153669578958189,172.4037668310288 -12.653669578958578,173.07363981210597 -14.483796597881428,174.9037668310278 -15.153669578959981,177.40376683102784 -14.483796597882812,179.90376683102824 -12.653669578960976,181.73389384995107 -10.153669578960956,182.40376683102963" stroke="#ffa500" stroke-linecap="round" stroke-linejoin="round"/><polyline fill="none" points="-23.676368452394215,64.51751769584043 -21.176368452393824,63.847644714763256 -19.346241433470972,62.01751769584142 -18.676368452392417,59.5175176958414 -19.346241433469586,57.01751769584101 -21.176368452391422,55.187390676918156 -23.67636845239144,54.5175176958396 -26.17636845239183,55.18739067691677 -28.006495471314683,57.017517695838606 -28.676368452393238,59.51751769583863 -28.00649547131607,62.01751769583902 -26.176368452394236,63.84764471476187 -23.676368452394218,64.51751769584043" stroke="#f00" stroke-linecap="round" stroke-linejoin="round"/><polyline fill="none" points="-20.312073829570867,112.40759280126711 -17.812073829570473,111.73771982018995 -15.981946810647619,109.90759280126812 -15.31207382956906,107.40759280126811 -15.981946810646226,104.90759280126771 -17.81207382956806,103.07746578234486 -20.312073829568078,102.4075928012663 -22.812073829568472,103.07746578234347 -24.642200848491328,104.9075928012653 -25.312073829569886,107.40759280126531 -24.64220084849272,109.90759280126571 -22.81207382957089,111.73771982018856 -20.31207382957087,112.40759280126711" stroke="#008000" stroke-linecap="round" stroke-linejoin="round"/><polyline fill="none" points="-44.14778030130209,184.53939990993425 -41.6477803013017,183.86952692885708 -39.81765328237884,182.03939990993524 -39.14778030130028,179.5393999099352 -39.81765328237744,177.03939990993482 -41.64778030129928,175.20927289101195 -44.1477803012993,174.5393999099334 -46.6477803012997,175.20927289101056 -48.477907320222556,177.0393999099324 -49.14778030130112,179.53939990993243 -48.477907320223956,182.03939990993283 -46.64778030130213,183.8695269288557 -44.147780301302106,184.53939990993425" stroke="#ffa500" stroke-linecap="round" stroke-linejoin="round"/><polyline fill="none" points="-54.38066348974615,181.79750712334868 -51.88066348974575,181.12763414227152 -50.05053647082289,179.29750712334967 -49.38066348974433,176.79750712334965 -50.05053647082149,174.29750712334925 -51.88066348974332,172.46738010442638 -54.38066348974334,171.79750712334783 -56.88066348974374,172.467380104425 -58.7107905086666,174.29750712334683 -59.38066348974516,176.79750712334686 -58.710790508668,179.29750712334726 -56.88066348974617,181.12763414227013 -54.38066348974615,181.79750712334868" stroke="#ffa500" stroke-linecap="round" stroke-linejoin="round"/><polyline fill="none" points="-58.92865067395188,112.09574943653932 -56.42865067395148,111.42587645546216 -54.59852365502862,109.59574943654033 -53.92865067395005,107.09574943654032 -54.59852365502721,104.59574943653992 -56.428650673949036,102.76562241761705 -58.92865067394906,102.09574943653848 -61.428650673949456,102.76562241761565 -63.25877769287232,104.59574943653747 -63.92865067395089,107.09574943653749 -63.258777692873736,109.59574943653789 -61.42865067395191,111.42587645546075 -58.928650673951886,112.09574943653932" stroke="#00f" stroke-linecap="round" stroke-linejoin="round"/><polyline fill="none" points="-18.398377106564705,40.754701205383235 -15.898377106564306,40.08482822430608 -14.068250087641442,38.25470120538425 -13.39837710656287,35.75470120538423 -14.068250087640026,33.25470120538383 -15.898377106561856,31.424574186460966 -18.398377106561878,30.754701205382393 -20.89837710656228,31.424574186459548 -22.728504125485145,33.25470120538138 -23.398377106563718,35.7547012053814 -22.728504125486563,38.2547012053818 -20.898377106564734,40.084828224304665 -18.398377106564713,40.754701205383235" stroke="#00f" stroke-linecap="round" stroke-linejoin="round"/><polyline fill="none" points="-92.18675122939239,176.25862254168825 -89.68675122939199,175.5887495606111 -87.85662421046912,173.75862254168925 -87.18675122939055,171.25862254168922 -87.8566242104677,168.75862254168882 -89.68675122938953,166.92849552276596 -92.18675122938956,166.25862254168737 -94.68675122938996,166.92849552276454 -96.51687824831282,168.75862254168635 -97.18675122939139,171.25862254168638 -96.51687824831424,173.75862254168678 -94.68675122939241,175.58874956060964 -92.18675122939239,176.25862254168823" stroke="#ffa500" stroke-linecap="round" stroke-linejoin="round"/><polyline fill="none" points="-21.402653066665422,84.82908743906098 -18.902653066665017,84.15921445798384 -17.072526047742148,82.32908743906201 -16.40265306666357,79.82908743906198 -17.072526047740723,77.32908743906158 -18.902653066662552,75.49896042013872 -21.402653066662573,74.82908743906013 -23.902653066662978,75.49896042013728 -25.732780085585848,77.32908743905911 -26.402653066664424,79.82908743905912 -25.732780085587272,82.32908743905952 -23.902653066665447,84.15921445798239 -21.402653066665426,84.82908743906097" stroke="#00f" stroke-linecap="round" stroke-linejoin="round"/><polyline fill="none" points="-114.63234701701548,154.86024211579914 -112.13234701701508,154.19036913472198 -110.30221999809221,152.36024211580016 -109.63234701701363,149.86024211580013 -110.30221999809078,147.36024211579974 -112.1323470170126,145.53011509687687 -114.63234701701263,144.8602421157983 -117.13234701701305,145.53011509687545 -118.96247403593593,147.36024211579726 -119.63234701701451,149.8602421157973 -118.96247403593736,152.3602421157977 -117.13234701701553,154.19036913472056 -114.6323470170155,154.86024211579914" stroke="#ffa500" stroke-linecap="round" stroke-linejoin="round"/><polyline fill="none" points="-106.06931485470595,163.60290482430625 -103.56931485470554,162.93303184322912 -101.73918783578266,161.1029048243073 -101.06931485470407,158.60290482430727 -101.73918783578122,156.10290482430688 -103.56931485470305,154.272777805384 -106.06931485470308,153.60290482430543 -108.56931485470349,154.27277780538256 -110.39944187362637,156.10290482430437 -111.06931485470496,158.6029048243044 -110.39944187362781,161.1029048243048 -108.56931485470598,162.93303184322767 -106.06931485470595,163.60290482430625" stroke="#ffa500" stroke-linecap="round" stroke-linejoin="round"/><polyline fill="none" points="-127.99485342230597,145.2818414802479 -125.49485342230555,144.61196849917076 -123.66472640338267,142.78184148024894 -122.99485342230409,140.28184148024891 -123.66472640338124,137.78184148024852 -125.49485342230307,135.95171446132565 -127.9948534223031,135.28184148024707 -130.4948534223035,135.9517144613242 -132.32498044122636,137.78184148024602 -132.99485342230494,140.28184148024604 -132.3249804412278,142.78184148024644 -130.494853422306,144.6119684991693 -127.99485342230597,145.2818414802479" stroke="#ffa500" stroke-linecap="round" stroke-linejoin="round"/><polyline fill="none" points="-62.91900027607911,57.259719193109554 -60.4190002760787,56.58984621203241 -58.58887325715582,54.75971919311059 -57.91900027607723,52.25971919311057 -58.58887325715437,49.75971919311016 -60.41900027607619,47.92959217418728 -62.91900027607621,47.25971919310869 -65.41900027607662,47.92959217418583 -67.2491272949995,49.75971919310765 -67.91900027607808,52.25971919310767 -67.24912729500095,54.75971919310808 -65.41900027607912,56.58984621203096 -62.919000276079096,57.259719193109554" stroke="#00f" stroke-linecap="round" stroke-linejoin="round"/><polyline fill="none" points="-124.31113749942172,133.89305455051962 -121.8111374994213,133.2231815694425 -119.98101048049843,131.39305455052067 -119.31113749941984,128.89305455052065 -119.98101048049698,126.39305455052023 -121.81113749941879,124.56292753159735 -124.31113749941882,123.89305455051876 -126.81113749941923,124.56292753159589 -128.64126451834213,126.3930545505177 -129.3111374994207,128.89305455051772 -128.64126451834358,131.39305455051814 -126.81113749942176,133.22318156944104 -124.31113749942173,133.89305455051962" stroke="#ffa500" stroke-linecap="round" stroke-linejoin="round"/><polyline fill="none" points="-112.70115096370084,78.67897158644566 -110.20115096370043,78.00909860536852 -108.37102394477755,76.1789715864467 -107.70115096369895,73.67897158644668 -108.37102394477608,71.17897158644627 -110.2011509636979,69.34884456752339 -112.70115096369793,68.67897158644479 -115.20115096369834,69.34884456752192 -117.03127798262122,71.17897158644374 -117.70115096369982,73.67897158644377 -117.03127798262268,76.17897158644418 -115.20115096370087,78.00909860536707 -112.70115096370084,78.67897158644567" stroke="#ffa500" stroke-linecap="round" stroke-linejoin="round"/><polyline fill="none" points="-137.05951756485285,109.44136525326134 -134.55951756485243,108.7714922721842 -132.72939054592953,106.94136525326239 -132.05951756485095,104.44136525326236 -132.72939054592808,101.94136525326195 -134.5595175648499,100.11123823433905 -137.05951756484993,99.44136525326046 -139.55951756485035,100.11123823433759 -141.38964458377325,101.9413652532594 -142.05951756485183,104.44136525325943 -141.3896445837747,106.94136525325985 -139.55951756485288,108.77149227218274 -137.05951756485285,109.44136525326134" stroke="#ffa500" stroke-linecap="round" stroke-linejoin="round"/><polyline fill="none" points="-75.31253800189255,95.83050499338188 -72.81253800189214,95.16063201230475 -70.98241098296924,93.33050499338293 -70.31253800189064,90.8305049933829 -70.98241098296778,88.33050499338249 -72.81253800188959,86.5003779744596 -75.31253800188962,85.830504993381 -77.81253800189003,86.50037797445813 -79.64266502081293,88.33050499337995 -80.31253800189153,90.83050499337998 -79.64266502081439,93.33050499338039 -77.81253800189258,95.16063201230328 -75.31253800189255,95.83050499338188" stroke="#00f" stroke-linecap="round" stroke-linejoin="round"/><polyline fill="none" points="-92.20392337794937,83.33727656444171 -89.70392337794895,82.66740358336457 -87.87379635902606,80.83727656444276 -87.20392337794746,78.33727656444273 -87.8737963590246,75.83727656444232 -89.70392337794641,74.00714954551943 -92.20392337794644,73.33727656444083 -94.70392337794685,74.00714954551796 -96.53405039686974,75.83727656443978 -97.20392337794834,78.3372765644398 -96.53405039687121,80.83727656444022 -94.7039233779494,82.66740358336311 -92.20392337794937,83.33727656444171" stroke="#00f" stroke-linecap="round" stroke-linejoin="round"/><polyline fill="none" points="-65.85470938259809,20.075111557830787 -63.35470938259767,19.40523857675366 -61.524582363674774,17.575111557831846 -60.85470938259617,15.075111557831823 -61.5245823636733,12.575111557831404 -63.35470938259511,10.744984538908508 -65.85470938259513,10.075111557829903 -68.35470938259556,10.74498453890703 -70.18483640151845,12.575111557828844 -70.85470938259706,15.075111557828867 -70.18483640151995,17.57511155782929 -68.35470938259813,19.405238576752186 -65.8547093825981,20.07511155783079" stroke="#00f" stroke-linecap="round" stroke-linejoin="round"/><polyline fill="none" points="-173.43691144195625,89.07111055869171 -170.93691144195583,88.4012375776146 -169.10678442303293,86.57111055869278 -168.43691144195432,84.07111055869275 -169.10678442303146,81.57111055869233 -170.93691144195327,79.74098353976943 -173.4369114419533,79.07111055869082 -175.93691144195373,79.74098353976794 -177.76703846087662,81.57111055868975 -178.43691144195523,84.07111055868978 -177.7670384608781,86.57111055869021 -175.93691144195628,88.4012375776131 -173.43691144195625,89.07111055869171" stroke="#ffa500" stroke-linecap="round" stroke-linejoin="round"/><polyline fill="none" points="-182.1101453516907,56.61053863363908 -179.61014535169028,55.940665652561954 -177.78001833276738,54.11053863364014 -177.11014535168877,51.61053863364012 -177.7800183327659,49.1105386336397 -179.61014535168772,47.2804116147168 -182.11014535168775,46.610538633638186 -184.61014535168817,47.280411614715305 -186.44027237061107,49.11053863363712 -187.11014535168968,51.61053863363714 -186.44027237061255,54.11053863363757 -184.61014535169073,55.94066565256047 -182.1101453516907,56.61053863363908" stroke="#ffa500" stroke-linecap="round" stroke-linejoin="round"/><polyline fill="none" points="-179.11436767697583,47.75007990434857 -176.6143676769754,47.08020692327145 -174.7842406580525,45.25007990434964 -174.1143676769739,42.75007990434962 -174.78424065805103,40.25007990434919 -176.61436767697285,38.41995288542629 -179.11436767697288,37.75007990434768 -181.6143676769733,38.4199528854248 -183.4444946958962,40.250079904346606 -184.1143676769748,42.75007990434663 -183.4444946958977,45.250079904347054 -181.6143676769759,47.080206923269955 -179.11436767697586,47.75007990434857" stroke="#ffa500" stroke-linecap="round" stroke-linejoin="round"/><polyline fill="none" points="-183.42236572645072,58.93670571831243 -180.9223657264503,58.26683273723531 -179.0922387075274,56.436705718313505 -178.4223657264488,53.93670571831348 -179.0922387075259,51.43670571831306 -180.9223657264477,49.60657869939015 -183.42236572644774,48.93670571831153 -185.92236572644816,49.60657869938865 -187.75249274537106,51.436705718310456 -188.42236572644967,53.93670571831048 -187.75249274537256,56.436705718310904 -185.92236572645075,58.26683273723381 -183.42236572645072,58.93670571831243" stroke="#ffa500" stroke-linecap="round" stroke-linejoin="round"/><polyline fill="none" points="-100.64830325730524,11.15292232268669 -98.14830325730482,10.483049341609574 -96.31817623838191,8.652922322687767 -95.6483032573033,6.152922322687743 -96.31817623838042,3.652922322687317 -98.14830325730222,1.8227953037644085 -100.64830325730225,1.1529223226857885 -103.14830325730267,1.8227953037629026 -104.97843027622558,3.6529223226847094 -105.6483032573042,6.1529223226847325 -104.97843027622709,8.65292232268516 -103.14830325730529,10.483049341608071 -100.64830325730526,11.152922322686692" stroke="#00f" stroke-linecap="round" stroke-linejoin="round"/><polyline fill="none" points="-88.14880807332068,-8.45660881252794 -85.64880807332025,-9.126481793605052 -83.81868105439735,-10.956608812526857 -83.14880807331872,-13.45660881252688 -83.81868105439582,-15.956608812527309 -85.64880807331762,-17.78673583145022 -88.14880807331765,-18.45660881252884 -90.64880807331808,-17.78673583145173 -92.47893509224099,-15.956608812529923 -93.14880807331961,-13.4566088125299 -92.47893509224251,-10.95660881252947 -90.64880807332071,-9.126481793606558 -88.14880807332068,-8.456608812527934" stroke="#00f" stroke-linecap="round" stroke-linejoin="round"/><polyline fill="none" points="-98.7132673754226,-13.354216618199018 -96.21326737542218,-14.02408959927613 -94.38314035649927,-15.854216618197935 -93.71326737542064,-18.35421661819796 -94.38314035649775,-20.85421661819839 -96.21326737541955,-22.6843436371213 -98.71326737541958,-23.354216618199928 -101.21326737542,-22.68434363712282 -103.04339439434291,-20.854216618201015 -103.71326737542154,-18.35421661820099 -103.04339439434443,-15.85421661820056 -101.21326737542263,-14.024089599277646 -98.7132673754226,-13.35421661819902" stroke="#ffa500" stroke-linecap="round" stroke-linejoin="round"/><polyline fill="none" points="-173.96204799118703,8.914228826768232 -171.4620479911866,8.244355845691123 -169.63192097226369,6.414228826769319 -168.96204799118505,3.9142288267692957 -169.63192097226215,1.414228826768865 -171.46204799118397,-0.415898192154051 -173.962047991184,-1.0857711732326787 -176.46204799118442,-0.4158981921555711 -178.29217501010734,1.4142288267662322 -178.96204799118598,3.914228826766256 -178.29217501010888,6.414228826766687 -176.46204799118706,8.244355845689604 -173.96204799118703,8.914228826768234" stroke="#ffa500" stroke-linecap="round" stroke-linejoin="round"/><polyline fill="none" points="-188.02333403756023,5.131629590794529 -185.5233340375598,4.461756609717423 -183.69320701863688,2.63162959079562 -183.02333403755824,0.13162959079559666 -183.69320701863535,-2.368370409204835 -185.52333403755716,-4.198497428127753 -188.0233340375572,-4.868370409206383 -190.52333403755762,-4.1984974281292775 -192.35346105648054,-2.368370409207476 -193.02333403755918,0.13162959079254755 -192.35346105648208,2.6316295907929796 -190.52333403756026,4.4617566097158985 -188.02333403756023,5.13162959079453" stroke="#ffa500" stroke-linecap="round" stroke-linejoin="round"/><polyline fill="none" points="-60.33022939483585,-5.16562870494829 -57.83022939483541,-5.835501686025394 -56.00010237591249,-7.665628704947194 -55.33022939483386,-10.165628704947217 -56.00010237591096,-12.66562870494765 -57.83022939483276,-14.495755723870571 -60.330229394832784,-15.165628704949205 -62.83022939483322,-14.495755723872103 -64.66035641375613,-12.665628704950302 -65.33022939483477,-10.16562870495028 -64.66035641375767,-7.665628704949846 -62.83022939483587,-5.835501686026924 -60.33022939483585,-5.165628704948289" stroke="#00f" stroke-linecap="round" stroke-linejoin="round"/><polyline fill="none" points="-176.66826178499397,-15.321053857562696 -174.16826178499355,-15.990926838639798 -172.33813476607062,-17.821053857561598 -171.66826178499198,-20.321053857561623 -172.3381347660691,-22.821053857562056 -174.16826178499088,-24.65118087648498 -176.6682617849909,-25.321053857563616 -179.16826178499133,-24.651180876486517 -180.99838880391425,-22.821053857564717 -181.6682617849929,-20.321053857564692 -180.9983888039158,-17.821053857564255 -179.168261784994,-15.99092683864133 -176.66826178499397,-15.321053857562692" stroke="#ffa500" stroke-linecap="round" stroke-linejoin="round"/><polyline fill="none" points="-129.57206601342008,-19.927844378930025 -127.07206601341964,-20.597717360007124 -125.24193899449672,-22.42784437892892 -124.57206601341808,-24.927844378928945 -125.24193899449517,-27.427844378929382 -127.07206601341697,-29.25797139785231 -129.572066013417,-29.92784437893095 -132.0720660134174,-29.25797139785385 -133.90219303234034,-27.427844378932054 -134.57206601341898,-24.92784437893203 -133.90219303234187,-22.427844378931592 -132.07206601342008,-20.597717360008666 -129.57206601342006,-19.927844378930025" stroke="#00f" stroke-linecap="round" stroke-linejoin="round"/><polyline fill="none" points="-185.44238853189714,-59.12699921235354 -182.9423885318967,-59.79687219343064 -181.1122615129738,-61.62699921235244 -180.44238853189515,-64.12699921235246 -181.11226151297225,-66.6269992123529 -182.94238853189404,-68.45712623127582 -185.44238853189407,-69.12699921235446 -187.9423885318945,-68.45712623127737 -189.77251555081742,-66.62699921235557 -190.44238853189606,-64.12699921235554 -189.77251555081895,-61.6269992123551 -187.94238853189717,-59.79687219343217 -185.44238853189714,-59.12699921235353" stroke="#ffa500" stroke-linecap="round" stroke-linejoin="round"/><polyline fill="none" points="-83.22970986459657,-28.137222656241562 -80.72970986459613,-28.807095637318657 -78.89958284567321,-30.637222656240453 -78.22970986459457,-33.137222656240475 -78.89958284567166,-35.637222656240915 -80.72970986459346,-37.467349675163845 -83.22970986459349,-38.13722265624249 -85.72970986459393,-37.4673496751654 -87.55983688351687,-35.63722265624361 -88.2297098645955,-33.13722265624359 -87.55983688351841,-30.637222656243146 -85.72970986459661,-28.807095637320216 -83.22970986459659,-28.137222656241573" stroke="#008000" stroke-linecap="round" stroke-linejoin="round"/><polyline fill="none" points="-171.87080617906702,-77.83283571088572 -169.37080617906656,-78.50270869196281 -167.54067916014364,-80.33283571088461 -166.870806179065,-82.83283571088464 -167.5406791601421,-85.33283571088508 -169.3708061790639,-87.16296272980802 -171.87080617906392,-87.83283571088666 -174.37080617906437,-87.16296272980956 -176.2009331979873,-85.33283571088776 -176.87080617906594,-82.83283571088774 -176.20093319798886,-80.3328357108873 -174.37080617906707,-78.50270869196436 -171.87080617906705,-77.8328357108857" stroke="#ffa500" stroke-linecap="round" stroke-linejoin="round"/><polyline fill="none" points="-153.72528464835875,-82.26499186503611 -151.2252846483583,-82.9348648461132 -149.39515762943537,-84.764991865035 -148.72528464835673,-87.26499186503503 -149.3951576294338,-89.76499186503547 -151.2252846483556,-91.5951188839584 -153.72528464835563,-92.26499186503706 -156.22528464835608,-91.59511888395997 -158.055411667279,-89.76499186503818 -158.72528464835764,-87.26499186503816 -158.05541166728057,-84.76499186503771 -156.22528464835878,-82.93486484611478 -153.72528464835875,-82.26499186503612" stroke="#ffa500" stroke-linecap="round" stroke-linejoin="round"/><polyline fill="none" points="-168.65108269187533,-86.50686011865764 -166.15108269187488,-87.17673309973473 -164.32095567295192,-89.00686011865652 -163.65108269187328,-91.50686011865655 -164.32095567295036,-94.00686011865699 -166.15108269187215,-95.83698713757992 -168.65108269187218,-96.50686011865858 -171.15108269187263,-95.83698713758149 -172.98120971079558,-94.0068601186597 -173.65108269187422,-91.50686011865967 -172.98120971079715,-89.00686011865923 -171.15108269187536,-87.1767330997363 -168.65108269187533,-86.50686011865764" stroke="#ffa500" stroke-linecap="round" stroke-linejoin="round"/><polyline fill="none" points="-107.74927903535642,-99.23590942019 -105.24927903535598,-99.90578240126709 -103.41915201643305,-101.73590942018888 -102.74927903535439,-104.2359094201889 -103.41915201643148,-106.73590942018934 -105.24927903535327,-108.56603643911228 -107.7492790353533,-109.23590942019094 -110.24927903535374,-108.56603643911384 -112.07940605427667,-106.73590942019206 -112.74927903535533,-104.23590942019203 -112.07940605427825,-101.73590942019159 -110.24927903535647,-99.90578240126865 -107.74927903535644,-99.23590942019" stroke="#00f" stroke-linecap="round" stroke-linejoin="round"/><polyline fill="none" points="-102.72876297626794,-112.43428716759047 -100.2287629762675,-113.10416014866755 -98.39863595734457,-114.93428716758933 -97.72876297626591,-117.43428716758936 -98.39863595734299,-119.9342871675898 -100.22876297626478,-121.76441418651274 -102.7287629762648,-122.43428716759139 -105.22876297626524,-121.76441418651432 -107.05888999518818,-119.93428716759253 -107.72876297626684,-117.4342871675925 -107.05888999518976,-114.93428716759206 -105.22876297626797,-113.10416014866912 -102.72876297626794,-112.43428716759047" stroke="#ffa500" stroke-linecap="round" stroke-linejoin="round"/><polyline fill="none" points="-43.54115712326771,-36.4155170323367 -41.04115712326726,-37.085390013413786 -39.21103010434432,-38.91551703233557 -38.541157123265656,-41.4155170323356 -39.21103010434274,-43.91551703233605 -41.041157123264526,-45.74564405125899 -43.541157123264554,-46.415517032337654 -46.041157123265,-45.74564405126057 -47.871284142187946,-43.915517032338784 -48.54115712326661,-41.415517032338755 -47.87128414218953,-38.91551703233831 -46.041157123267745,-37.08539001341536 -43.541157123267716,-36.4155170323367" stroke="#008000" stroke-linecap="round" stroke-linejoin="round"/><polyline fill="none" points="-124.31113749942172,-117.2803645851704 -121.81113749942126,-117.95023756624748 -119.98101048049831,-119.78036458516927 -119.31113749941966,-122.2803645851693 -119.98101048049674,-124.78036458516975 -121.81113749941852,-126.6104916040927 -124.31113749941855,-127.28036458517137 -126.811137499419,-126.61049160409429 -128.64126451834196,-124.7803645851725 -129.31113749942062,-122.28036458517248 -128.64126451834355,-119.78036458517202 -126.81113749942176,-117.95023756624907 -124.31113749942173,-117.2803645851704" stroke="#ffa500" stroke-linecap="round" stroke-linejoin="round"/><polyline fill="none" points="-122.29318395173748,-116.16593769068822 -119.79318395173702,-116.8358106717653 -117.96305693281407,-118.66593769068709 -117.2931839517354,-121.16593769068712 -117.96305693281248,-123.66593769068757 -119.79318395173426,-125.49606470961052 -122.29318395173429,-126.16593769068919 -124.79318395173475,-125.49606470961211 -126.6233109706577,-123.66593769069033 -127.29318395173637,-121.1659376906903 -126.62331097065929,-118.66593769068984 -124.7931839517375,-116.8358106717669 -122.29318395173748,-116.16593769068822" stroke="#ffa500" stroke-linecap="round" stroke-linejoin="round"/><polyline fill="none" points="-86.83405093506626,-126.83828397139803 -84.3340509350658,-127.5081569524751 -82.50392391614285,-129.3382839713969 -81.83405093506418,-131.83828397139692 -82.50392391614126,-134.33828397139737 -84.33405093506305,-136.16841099032033 -86.83405093506308,-136.838283971399 -89.33405093506353,-136.16841099032192 -91.16417795398648,-134.33828397140013 -91.83405093506515,-131.8382839714001 -91.16417795398807,-129.33828397139965 -89.33405093506629,-127.5081569524767 -86.83405093506626,-126.83828397139803" stroke="#ffa500" stroke-linecap="round" stroke-linejoin="round"/><polyline fill="none" points="-115.86767450935942,-109.73161859359159 -113.36767450935896,-110.40149157466867 -111.53754749043601,-112.23161859359045 -110.86767450935734,-114.73161859359048 -111.53754749043442,-117.23161859359094 -113.3676745093562,-119.06174561251389 -115.86767450935623,-119.73161859359256 -118.36767450935669,-119.06174561251548 -120.19780152827964,-117.2316185935937 -120.86767450935831,-114.73161859359367 -120.19780152828123,-112.23161859359321 -118.36767450935945,-110.40149157467026 -115.86767450935942,-109.73161859359159" stroke="#00f" stroke-linecap="round" stroke-linejoin="round"/><polyline fill="none" points="-35.55035319387131,-80.8843724940581 -33.050353193870855,-81.55424547513516 -31.2202261749479,-83.38437249405695 -30.550353193869228,-85.88437249405698 -31.220226174946298,-88.38437249405743 -33.05035319386808,-90.21449951298038 -35.550353193868105,-90.88437249405905 -38.05035319386856,-90.21449951298199 -39.88048021279152,-88.3843724940602 -40.550353193870194,-85.88437249406017 -39.880480212793124,-83.38437249405972 -38.050353193871345,-81.55424547513677 -35.55035319387132,-80.8843724940581" stroke="#00f" stroke-linecap="round" stroke-linejoin="round"/><polyline fill="none" points="-103.67006200079432,-151.86040241227178 -101.17006200079386,-152.53027539334886 -99.33993498187091,-154.36040241227064 -98.67006200079224,-156.86040241227067 -99.3399349818693,-159.36040241227113 -101.17006200079109,-161.19052943119408 -103.67006200079112,-161.86040241227275 -106.17006200079157,-161.19052943119567 -108.00018901971454,-159.36040241227388 -108.67006200079322,-156.86040241227386 -108.00018901971616,-154.3604024122734 -106.17006200079437,-152.53027539335045 -103.67006200079435,-151.86040241227178" stroke="#ffa500" stroke-linecap="round" stroke-linejoin="round"/><polyline fill="none" points="-83.3379321823158,-145.67728894911164 -80.83793218231534,-146.34716193018872 -79.00780516339238,-148.1772889491105 -78.3379321823137,-150.67728894911053 -79.00780516339076,-153.177288949111 -80.83793218231254,-155.00741596803394 -83.33793218231257,-155.6772889491126 -85.83793218231303,-155.00741596803553 -87.66805920123599,-153.17728894911374 -88.33793218231467,-150.67728894911372 -87.66805920123761,-148.17728894911326 -85.83793218231584,-146.3471619301903 -83.33793218231581,-145.67728894911164" stroke="#ffa500" stroke-linecap="round" stroke-linejoin="round"/><polyline fill="none" points="-69.4486930174773,-150.9223061418912 -66.94869301747684,-151.59217912296828 -65.11856599855388,-153.42230614189006 -64.4486930174752,-155.9223061418901 -65.11856599855226,-158.42230614189054 -66.94869301747403,-160.2524331608135 -69.44869301747406,-160.92230614189216 -71.94869301747451,-160.25243316081512 -73.77882003639748,-158.42230614189333 -74.44869301747616,-155.9223061418933 -73.7788200363991,-153.42230614189285 -71.94869301747732,-151.5921791229699 -69.4486930174773,-150.92230614189123" stroke="#ffa500" stroke-linecap="round" stroke-linejoin="round"/><polyline fill="none" points="-54.39619874770108,-133.8583541017674 -51.896198747700616,-134.52822708284444 -50.06607172877765,-136.35835410176622 -49.39619874769897,-138.85835410176625 -50.06607172877603,-141.3583541017667 -51.89619874769781,-143.18848112068966 -54.39619874769784,-143.85835410176836 -56.8961987476983,-143.1884811206913 -58.726325766621265,-141.35835410176952 -59.39619874769995,-138.8583541017695 -58.72632576662289,-136.35835410176904 -56.89619874770111,-134.52822708284606 -54.396198747701085,-133.85835410176736" stroke="#00f" stroke-linecap="round" stroke-linejoin="round"/><polyline fill="none" points="-31.55812027917422,-69.65967565359475 -29.058120279173757,-70.32954863467181 -27.227993260250788,-72.15967565359358 -26.5581202791721,-74.65967565359361 -27.227993260249157,-77.15967565359406 -29.058120279170932,-78.98980267251703 -31.558120279170957,-79.65967565359571 -34.05812027917142,-78.98980267251865 -35.888247298094385,-77.15967565359688 -36.558120279173075,-74.65967565359685 -35.88824729809602,-72.15967565359638 -34.05812027917425,-70.32954863467342 -31.558120279174222,-69.65967565359473" stroke="#00f" stroke-linecap="round" stroke-linejoin="round"/><polyline fill="none" points="-44.14778030130216,-171.09964550086747 -41.6477803013017,-171.76951848194452 -39.81765328237873,-173.5996455008663 -39.14778030130004,-176.09964550086633 -39.817653282377094,-178.59964550086679 -41.647780301298866,-180.42977251978976 -44.147780301298894,-181.09964550086846 -46.647780301299356,-180.4297725197914 -48.47790732022233,-178.59964550086963 -49.14778030130102,-176.0996455008696 -48.47790732022396,-173.59964550086914 -46.64778030130219,-171.76951848194616 -44.14778030130216,-171.09964550086747" stroke="#ffa500" stroke-linecap="round" stroke-linejoin="round"/><polyline fill="none" points="-23.772800393207067,-83.2875530456028 -21.2728003932066,-83.95742602667985 -19.44267337428363,-85.78755304560163 -18.772800393204935,-88.28755304560165 -19.442673374281988,-90.78755304560212 -21.27280039320376,-92.6176800645251 -23.772800393203784,-93.2875530456038 -26.27280039320425,-92.61768006452675 -28.102927412127222,-90.78755304560498 -28.772800393205916,-88.28755304560495 -28.102927412128864,-85.78755304560448 -26.272800393207092,-83.9574260266815 -23.772800393207067,-83.2875530456028" stroke="#008000" stroke-linecap="round" stroke-linejoin="round"/><polyline fill="none" points="-27.801911656903137,-181.52358515988414 -25.30191165690267,-182.19345814096118 -23.471784637979695,-184.02358515988294 -22.801911656901,-186.52358515988297 -23.47178463797805,-189.02358515988342 -25.301911656899822,-190.8537121788064 -27.801911656899847,-191.5235851598851 -30.301911656900312,-190.85371217880805 -32.13203867582329,-189.0235851598863 -32.801911656901986,-186.52358515988627 -32.13203867582494,-184.0235851598858 -30.301911656903165,-182.19345814096283 -27.80191165690314,-181.52358515988414" stroke="#ffa500" stroke-linecap="round" stroke-linejoin="round"/><polyline fill="none" points="-3.2545415200067564,-189.3806548316723 -0.7545415200062893,-190.05052781274935 1.0755854989166882,-191.8806548316711 1.745458479995386,-194.38065483167114 1.0755854989183384,-196.8806548316716 -0.7545415200034309,-198.71078185059457 -3.254541520003456,-199.38065483167327 -5.754541520003924,-198.71078185059622 -7.584668538926903,-196.88065483167446 -8.254541520005603,-194.38065483167443 -7.584668538928556,-191.88065483167398 -5.754541520006787,-190.050527812751 -3.2545415200067613,-189.3806548316723" stroke="#ffa500" stroke-linecap="round" stroke-linejoin="round"/></svg>