<?xml version="1.0" ?><!DOCTYPE svg  PUBLIC '-//W3C//DTD SVG 1.1//EN'  'http://www.w3.org/Graphics/SVG/1.1/DTD/svg11.dtd'><svg height="380.000" viewBox="-716.000 -13.000 1347.000 380.000" width="1347.000" xmlns="http://www.w3.org/2000/svg"><line fill="none" stroke="none" stroke-linecap="round" stroke-width="2.0" x1="0.0" x2="0.0" y1="0.0" y2="0.0"/><polygon fill="none" fill-rule="evenodd" points="0.0,0.0 0.0,0.0 0.0,0.0" stroke-linejoin="round"/><line fill="none" stroke="none" stroke-linecap="round" stroke-width="2.0" x1="0.0" x2="0.0" y1="0.0" y2="0.0"/><line fill="none" stroke="none" stroke-linecap="round" stroke-width="2.0" x1="0.0" x2="0.0" y1="0.0" y2="0.0"/><polygon fill="none" fill-rule="evenodd" points="0.0,0.0 0.0,0.0 0.0,0.0" stroke-linejoin="round"/><line fill="none" stroke="none" stroke-linecap="round" stroke-width="2.0" x1="0.0" x2="0.0" y1="0.0" y2="0.0"/><line fill="none" stroke="none" stroke-linecap="round" stroke-width="2.0" x1="0.0" x2="0.0" y1="0.0" y2="0.0"/><polygon fill="none" fill-rule="evenodd" points="0.0,0.0 0.0,0.0 0.0,0.0" stroke-linejoin="round"/><line fill="none" stroke="none" stroke-linecap="round" stroke-width="2.0" x1="0.0" x2="0.0" y1="0.0" y2="0.0"/><line fill="none" stroke="none" stroke-linecap="round" stroke-width="2.0" x1="0.0" x2="0.0" y1="0.0" y2="0.0"/><polygon fill="none" fill-rule="evenodd" points="0.0,0.0 0.0,0.0 0.0,0.0" stroke-linejoin="round"/><line fill="none" stroke="none" stroke-linecap="round" stroke-width="2.0" x1="0.0" x2="0.0" y1="0.0" y2="0.0"/><line fill="none" stroke="none" stroke-linecap="round" stroke-width="2.0" x1="0.0" x2="0.0" y1="0.0" y2="0.0"/><polygon fill="none" fill-rule="evenodd" points="0.0,0.0 0.0,0.0 0.0,0.0" stroke-linejoin="round"/><line fill="none" stroke="none" stroke-linecap="round" stroke-width="2.0" x1="0.0" x2="0.0" y1="0.0" y2="0.0"/><line fill="none" stroke="none" stroke-linecap="round" stroke-width="2.0" x1="0.0" x2="0.0" y1="0.0" y2="0.0"/><polygon fill="none" fill-rule="evenodd" points="0.0,0.0 0.0,0.0 0.0,0.0" stroke-linejoin="round"/><line fill="none" stroke="none" stroke-linecap="round" stroke-width="2.0" x1="0.0" x2="0.0" y1="0.0" y2="0.0"/><line fill="none" stroke="none" stroke-linecap="round" stroke-width="2.0" x1="0.0" x2="0.0" y1="0.0" y2="0.0"/><polygon fill="none" fill-rule="evenodd" points="0.0,0.0 0.0,0.0 0.0,0.0" stroke-linejoin="round"/><line fill="none" stroke="none" stroke-linecap="round" stroke-width="2.0" x1="0.0" x2="0.0" y1="0.0" y2="0.0"/><line fill="none" stroke="none" stroke-linecap="round" stroke-width="2.0" x1="0.0" x2="0.0" y1="0.0" y2="0.0"/><polygon fill="none" fill-rule="evenodd" points="0.0,0.0 0.0,0.0 0.0,0.0" stroke-linejoin="round"/><line fill="none" stroke="none" stroke-linecap="round" stroke-width="2.0" x1="0.0" x2="0.0" y1="0.0" y2="0.0"/><line fill="none" stroke="none" stroke-linecap="round" stroke-width="2.0" x1="0.0" x2="0.0" y1="0.0" y2="0.0"/><polygon fill="none" fill-rule="evenodd" points="0.0,0.0 0.0,0.0 0.0,0.0" stroke-linejoin="round"/><line fill="none" stroke="none" stroke-linecap="round" stroke-width="2.0" x1="0.0" x2="0.0" y1="0.0" y2="0.0"/><line fill="none" stroke="none" stroke-linecap="round" stroke-width="2.0" x1="0.0" x2="0.0" y1="0.0" y2="0.0"/><polygon fill="none" fill-rule="evenodd" points="0.0,0.0 0.0,0.0 0.0,0.0" stroke-linejoin="round"/><line fill="none" stroke="none" stroke-linecap="round" stroke-width="2.0" x1="0.0" x2="0.0" y1="0.0" y2="0.0"/><line fill="none" stroke="none" stroke-linecap="round" stroke-width="2.0" x1="0.0" x2="0.0" y1="0.0" y2="0.0"/><polygon fill="none" fill-rule="evenodd" points="0.0,0.0 0.0,0.0 0.0,0.0" stroke-linejoin="round"/><line fill="none" stroke="none" stroke-linecap="round" stroke-width="2.0" x1="0.0" x2="0.0" y1="0.0" y2="0.0"/><line fill="none" stroke="none" stroke-linecap="round" stroke-width="2.0" x1="0.0" x2="0.0" y1="0.0" y2="0.0"/><polygon fill="none" fill-rule="evenodd" points="0.0,0.0 0.0,0.0 0.0,0.0" stroke-linejoin="round"/><polyline fill="none" points="554.6754224095595,214.34603502854083 557.1754224095595,213.676162047463 559.0055494284817,211.84603502854083 559.6754224095595,209.34603502854083 559.0055494284817,206.84603502854083 557.1754224095595,205.01590800961864 554.6754224095595,204.34603502854083 552.1754224095595,205.01590800961864 550.3452953906373,206.84603502854083 549.6754224095595,209.34603502854083 550.3452953906373,211.84603502854083 552.1754224095595,213.676162047463 554.6754224095595,214.34603502854083" stroke="#ffa500" stroke-linecap="round" stroke-linejoin="round"/><polyline fill="none" points="474.2553313929253,202.6740230328892 476.7553313929253,202.0041500518114 478.5854584118475,200.1740230328892 479.2553313929253,197.6740230328892 478.5854584118475,195.1740230328892 476.7553313929253,193.34389601396703 474.2553313929253,192.6740230328892 471.7553313929253,193.34389601396703 469.9252043740031,195.1740230328892 469.2553313929253,197.6740230328892 469.9252043740031,200.1740230328892 471.7553313929253,202.0041500518114 474.2553313929253,202.6740230328892" stroke="#00f" stroke-linecap="round" stroke-linejoin="round"/><polyline fill="none" points="423.0466992752791,273.6492440952586 425.5466992752791,272.9793711141808 427.3768262942013,271.1492440952586 428.0466992752791,268.6492440952586 427.3768262942013,266.1492440952586 425.5466992752791,264.3191170763364 423.0466992752791,263.6492440952586 420.5466992752791,264.3191170763364 418.71657225635687,266.1492440952586 418.0466992752791,268.6492440952586 418.71657225635687,271.1492440952586 420.5466992752791,272.9793711141808 423.0466992752791,273.6492440952586" stroke="#00f" stroke-linecap="round" stroke-linejoin="round"/><polyline fill="none" points="370.87728424313525,338.8080563954562 373.37728424313525,338.13818341437843 375.20741126205746,336.3080563954562 375.87728424313525,333.8080563954562 375.20741126205746,331.3080563954562 373.37728424313525,329.477929376534 370.87728424313525,328.80805639545616 368.37728424313525,329.47792937653395 366.54715722421304,331.30805639545616 365.8772842431352,333.80805639545616 366.547157224213,336.30805639545616 368.3772842431352,338.1381834143784 370.8772842431352,338.8080563954562" stroke="#ffa500" stroke-linecap="round" stroke-linejoin="round"/><polyline fill="none" points="546.1690417376143,295.34973826708637 548.6690417376143,294.6798652860086 550.4991687565365,292.84973826708637 551.1690417376143,290.34973826708637 550.4991687565365,287.84973826708637 548.6690417376143,286.01961124816415 546.1690417376143,285.3497382670863 543.6690417376143,286.0196112481641 541.8389147186921,287.8497382670863 541.1690417376143,290.3497382670863 541.8389147186921,292.8497382670863 543.6690417376143,294.6798652860085 546.1690417376143,295.34973826708637" stroke="#ffa500" stroke-linecap="round" stroke-linejoin="round"/><polyline fill="none" points="490.94725141049025,354.7872094131994 493.44725141049025,354.1173364321216 495.27737842941247,352.2872094131994 495.9472514104903,349.7872094131994 495.2773784294125,347.2872094131994 493.4472514104903,345.45708239427717 490.9472514104903,344.7872094131993 488.4472514104903,345.4570823942771 486.6171243915681,347.2872094131993 485.94725141049025,349.7872094131993 486.61712439156804,352.2872094131993 488.44725141049025,354.11733643212153 490.94725141049025,354.7872094131994" stroke="#00f" stroke-linecap="round" stroke-linejoin="round"/><polyline fill="none" points="410.4363322623547,283.5294966386262 412.9363322623547,282.8596236575484 414.7664592812769,281.0294966386262 415.43633226235477,278.5294966386262 414.766459281277,276.0294966386262 412.93633226235477,274.199369619704 410.43633226235477,273.52949663862614 407.93633226235477,274.19936961970393 406.10620524343256,276.0294966386261 405.4363322623547,278.5294966386261 406.1062052434325,281.0294966386261 407.93633226235465,282.8596236575483 410.43633226235465,283.52949663862614" stroke="#ffa500" stroke-linecap="round" stroke-linejoin="round"/><polyline fill="none" points="611.3045374286708,314.91212360244276 613.8045374286708,314.242250621365 615.634664447593,312.4121236024428 616.3045374286708,309.9121236024428 615.634664447593,307.4121236024428 613.8045374286708,305.5819965835206 611.3045374286708,304.91212360244276 608.8045374286708,305.58199658352055 606.9744104097485,307.4121236024427 606.3045374286708,309.9121236024427 606.9744104097485,312.4121236024427 608.8045374286708,314.2422506213649 611.3045374286708,314.91212360244276" stroke="#ffa500" stroke-linecap="round" stroke-linejoin="round"/><polyline fill="none" points="459.5755483676709,219.02112484717347 462.0755483676709,218.35125186609568 463.9056753865931,216.5211248471735 464.57554836767093,214.0211248471735 463.90567538659315,211.5211248471735 462.075548367671,209.69099782825128 459.575548367671,209.02112484717344 457.075548367671,209.69099782825123 455.2454213487488,211.5211248471734 454.57554836767093,214.0211248471734 455.2454213487487,216.5211248471734 457.0755483676709,218.35125186609562 459.5755483676709,219.02112484717347" stroke="#ffa500" stroke-linecap="round" stroke-linejoin="round"/><polyline fill="none" points="372.83495161644703,302.5283741915221 375.33495161644703,301.85850121044433 377.16507863536924,300.0283741915222 377.8349516164471,297.5283741915222 377.1650786353693,295.0283741915222 375.33495161644714,293.19824717259996 372.83495161644714,292.5283741915221 370.33495161644714,293.1982471725999 368.50482459752493,295.02837419152206 367.8349516164471,297.52837419152206 368.5048245975249,300.02837419152206 370.33495161644703,301.8585012104443 372.83495161644703,302.5283741915221" stroke="#ffa500" stroke-linecap="round" stroke-linejoin="round"/><polyline fill="none" points="486.63546468996265,317.3793024519023 489.13546468996265,316.7094294708245 490.96559170888486,314.87930245190233 491.6354646899627,312.37930245190233 490.9655917088849,309.87930245190233 489.13546468996276,308.0491754329801 486.63546468996276,307.3793024519023 484.13546468996276,308.04917543298006 482.30533767104055,309.8793024519022 481.6354646899627,312.3793024519022 482.3053376710405,314.8793024519022 484.13546468996265,316.70942947082443 486.63546468996265,317.3793024519023" stroke="#00f" stroke-linecap="round" stroke-linejoin="round"/><polyline fill="none" points="514.7834278743701,285.23223801748355 517.2834278743701,284.56236503640577 519.1135548932923,282.7322380174836 519.7834278743701,280.2322380174836 519.1135548932923,277.7322380174836 517.2834278743701,275.9021109985614 514.7834278743701,275.23223801748355 512.2834278743701,275.90211099856134 510.4533008554479,277.7322380174835 509.78342787437003,280.2322380174835 510.4533008554478,282.7322380174835 512.28342787437,284.5623650364057 514.78342787437,285.23223801748355" stroke="#00f" stroke-linecap="round" stroke-linejoin="round"/><polyline fill="none" points="505.46405360858046,184.69489507506657 507.96405360858046,184.02502209398878 509.79418062750267,182.1948950750666 510.4640536085805,179.6948950750666 509.7941806275027,177.19489507506657 507.96405360858057,175.36476805614436 505.46405360858057,174.6948950750665 502.96405360858057,175.3647680561443 501.13392658965836,177.19489507506648 500.4640536085805,179.69489507506648 501.1339265896583,182.1948950750665 502.96405360858046,184.02502209398872 505.46405360858046,184.69489507506657" stroke="#ffa500" stroke-linecap="round" stroke-linejoin="round"/><polyline fill="none" points="347.2425028465508,334.68544713167535 349.7425028465508,334.01557415059756 351.572629865473,332.1854471316754 352.24250284655085,329.6854471316754 351.57262986547306,327.1854471316754 349.7425028465509,325.3553201127532 347.2425028465509,324.68544713167535 344.7425028465509,325.35532011275313 342.9123758276287,327.1854471316753 342.24250284655085,329.6854471316753 342.91237582762864,332.1854471316753 344.7425028465508,334.0155741505975 347.2425028465508,334.68544713167535" stroke="#ffa500" stroke-linecap="round" stroke-linejoin="round"/><polyline fill="none" points="490.36003638899473,335.27072388061185 492.86003638899473,334.60085089953407 494.69016340791694,332.7707238806119 495.3600363889948,330.2707238806119 494.690163407917,327.7707238806119 492.86003638899484,325.9405968616897 490.36003638899484,325.27072388061185 487.86003638899484,325.94059686168964 486.02990937007263,327.7707238806118 485.3600363889948,330.2707238806118 486.0299093700726,332.7707238806118 487.86003638899473,334.600850899534 490.36003638899473,335.27072388061185" stroke="#00f" stroke-linecap="round" stroke-linejoin="round"/><polyline fill="none" points="485.56065837461995,298.94849405776 488.06065837461995,298.2786210766822 489.89078539354216,296.44849405776006 490.56065837462,293.94849405776006 489.8907853935422,291.44849405776006 488.06065837462006,289.61836703883785 485.56065837462006,288.94849405776 483.06065837462006,289.6183670388378 481.23053135569785,291.44849405775994 480.56065837462,293.94849405775994 481.2305313556978,296.44849405775994 483.06065837461995,298.27862107668216 485.56065837461995,298.94849405776" stroke="#00f" stroke-linecap="round" stroke-linejoin="round"/><polyline fill="none" points="557.5178106488004,325.482534182387 560.0178106488004,324.8126612013092 561.8479376677226,322.98253418238704 562.5178106488005,320.48253418238704 561.8479376677227,317.98253418238704 560.0178106488005,316.15240716346483 557.5178106488005,315.482534182387 555.0178106488005,316.1524071634648 553.1876836298783,317.9825341823869 552.5178106488004,320.4825341823869 553.1876836298782,322.9825341823869 555.0178106488004,324.81266120130914 557.5178106488004,325.482534182387" stroke="#00f" stroke-linecap="round" stroke-linejoin="round"/><polyline fill="none" points="402.94275217186197,259.82882461310703 405.44275217186197,259.15895163202924 407.2728791907842,257.3288246131071 407.942752171862,254.8288246131071 407.27287919078424,252.32882461310706 405.4427521718621,250.49869759418482 402.9427521718621,249.82882461310697 400.4427521718621,250.49869759418473 398.61262515293987,252.32882461310692 397.942752171862,254.82882461310692 398.6126251529398,257.3288246131069 400.44275217186197,259.15895163202913 402.94275217186197,259.828824613107" stroke="#ffa500" stroke-linecap="round" stroke-linejoin="round"/><polyline fill="none" points="404.81523356133215,354.7454962239473 407.31523356133215,354.07562324286954 409.14536058025436,352.2454962239474 409.8152335613322,349.7454962239474 409.1453605802544,347.2454962239474 407.31523356133226,345.4153692050252 404.81523356133226,344.7454962239473 402.31523356133226,345.4153692050251 400.48510654241005,347.24549622394727 399.8152335613322,349.74549622394727 400.48510654241,352.24549622394727 402.31523356133215,354.0756232428695 404.81523356133215,354.7454962239473" stroke="#ffa500" stroke-linecap="round" stroke-linejoin="round"/><polyline fill="none" points="448.4648456489786,339.8685615196186 450.9648456489786,339.1986885385408 452.7949726679008,337.36856151961865 453.46484564897867,334.86856151961865 452.7949726679009,332.36856151961865 450.9648456489787,330.53843450069644 448.4648456489787,329.8685615196186 445.9648456489787,330.5384345006964 444.1347186300565,332.36856151961854 443.46484564897867,334.86856151961854 444.13471863005645,337.36856151961854 445.9648456489786,339.19868853854075 448.4648456489786,339.8685615196186" stroke="#ffa500" stroke-linecap="round" stroke-linejoin="round"/><polyline fill="none" points="559.2919071663655,291.58258141371664 561.7919071663655,290.91270843263885 563.6220341852877,289.0825814137167 564.2919071663656,286.5825814137167 563.6220341852878,284.08258141371664 561.7919071663656,282.25245439479437 559.2919071663656,281.5825814137165 556.7919071663656,282.2524543947943 554.9617801474434,284.08258141371647 554.2919071663655,286.58258141371647 554.9617801474433,289.0825814137165 556.7919071663655,290.9127084326388 559.2919071663655,291.58258141371664" stroke="#00f" stroke-linecap="round" stroke-linejoin="round"/><polyline fill="none" points="614.3008225277315,333.5250142836614 616.8008225277315,332.85514130258366 618.6309495466537,331.0250142836615 619.3008225277316,328.5250142836615 618.6309495466538,326.02501428366145 616.8008225277316,324.1948872647392 614.3008225277316,323.52501428366133 611.8008225277316,324.19488726473907 609.9706955088094,326.0250142836612 609.3008225277315,328.5250142836612 609.9706955088093,331.0250142836613 611.8008225277315,332.85514130258355 614.3008225277315,333.5250142836614" stroke="#ffa500" stroke-linecap="round" stroke-linejoin="round"/><polyline fill="none" points="500.29583456052524,307.50543764845463 502.7958345605253,306.8355646673769 504.62596157944756,305.00543764845474 505.2958345605254,302.50543764845474 504.6259615794477,300.0054376484547 502.7958345605255,298.1753106295324 500.2958345605255,297.5054376484546 497.79583456052546,298.1753106295323 495.9657075416032,300.00543764845446 495.29583456052535,302.50543764845446 495.9657075416031,305.0054376484545 497.79583456052524,306.8355646673768 500.29583456052524,307.50543764845463" stroke="#008000" stroke-linecap="round" stroke-linejoin="round"/><polyline fill="none" points="527.1416431234834,308.0706221407805 529.6416431234834,307.40074915970274 531.4717701424056,305.5706221407806 532.1416431234835,303.0706221407806 531.4717701424057,300.57062214078053 529.6416431234835,298.74049512185826 527.1416431234835,298.0706221407804 524.6416431234835,298.74049512185815 522.8115161045613,300.5706221407803 522.1416431234834,303.0706221407803 522.8115161045612,305.57062214078036 524.6416431234834,307.4007491597026 527.1416431234834,308.0706221407805" stroke="#008000" stroke-linecap="round" stroke-linejoin="round"/><polyline fill="none" points="404.47154228552904,316.763100530482 406.9715422855291,316.0932275494043 408.80166930445137,314.2631005304821 409.4715422855292,311.7631005304821 408.8016693044515,309.26310053048206 406.9715422855293,307.4329735115598 404.4715422855293,306.76310053048195 401.97154228552927,307.4329735115597 400.141415266607,309.26310053048184 399.4715422855291,311.76310053048184 400.1414152666068,314.2631005304819 401.971542285529,316.09322754940416 404.471542285529,316.76310053048206" stroke="#ffa500" stroke-linecap="round" stroke-linejoin="round"/><polyline fill="none" points="-644.9365083471197,354.71800422888646 -642.4365083471197,354.0481312478087 -640.6063813281975,352.21800422888657 -639.9365083471196,349.71800422888657 -640.6063813281974,347.2180042288865 -642.4365083471196,345.38787720996424 -644.9365083471196,344.71800422888634 -647.4365083471196,345.3878772099641 -649.2666353660418,347.21800422888623 -649.9365083471197,349.71800422888623 -649.2666353660419,352.2180042288863 -647.4365083471197,354.04813124780856 -644.9365083471197,354.71800422888646" stroke="#ffa500" stroke-linecap="round" stroke-linejoin="round"/><polyline fill="none" points="519.8333060614724,244.6627347943739 522.3333060614724,243.99286181329614 524.1634330803946,242.162734794374 524.8333060614725,239.662734794374 524.1634330803947,237.16273479437396 522.3333060614725,235.3326077754517 519.8333060614725,234.66273479437382 517.3333060614725,235.33260777545158 515.5031790425503,237.16273479437373 514.8333060614724,239.66273479437373 515.5031790425502,242.16273479437376 517.3333060614724,243.99286181329603 519.8333060614724,244.6627347943739" stroke="#ffa500" stroke-linecap="round" stroke-linejoin="round"/><polyline fill="none" points="537.3937022271109,223.238473838495 539.8937022271109,222.56860085741727 541.7238292460331,220.7384738384951 542.393702227111,218.2384738384951 541.7238292460332,215.73847383849508 539.893702227111,213.9083468195728 537.393702227111,213.23847383849494 534.893702227111,213.90834681957267 533.0635752081888,215.73847383849483 532.3937022271109,218.23847383849483 533.0635752081887,220.73847383849485 534.8937022271109,222.56860085741712 537.3937022271109,223.238473838495" stroke="#ffa500" stroke-linecap="round" stroke-linejoin="round"/><polyline fill="none" points="459.9452571460967,353.7717889459356 462.44525714609676,353.1019159648579 464.27538416501903,351.2717889459357 464.94525714609694,348.7717889459357 464.2753841650192,346.27178894593567 462.44525714609705,344.4416619270134 459.94525714609705,343.7717889459355 457.445257146097,344.44166192701323 455.6151301271747,346.2717889459354 454.9452571460968,348.7717889459354 455.61513012717455,351.27178894593544 457.4452571460967,353.1019159648577 459.9452571460967,353.7717889459356" stroke="#00f" stroke-linecap="round" stroke-linejoin="round"/><polyline fill="none" points="577.7463149144121,354.48762509743773 580.2463149144121,353.81775211636 582.0764419333343,351.98762509743784 582.7463149144122,349.48762509743784 582.0764419333344,346.9876250974378 580.2463149144123,345.1574980785155 577.7463149144123,344.4876250974376 575.2463149144123,345.15749807851535 573.4161878954901,346.9876250974375 572.7463149144122,349.4876250974375 573.41618789549,351.98762509743756 575.2463149144121,353.8177521163598 577.7463149144121,354.48762509743773" stroke="#ffa500" stroke-linecap="round" stroke-linejoin="round"/><polyline fill="none" points="505.0635508355302,354.0395266063407 507.56355083553024,353.36965362526297 509.3936778544525,351.5395266063408 510.0635508355304,349.0395266063408 509.3936778544527,346.53952660634076 507.5635508355305,344.7093995874185 505.0635508355305,344.0395266063406 502.56355083553046,344.7093995874183 500.7334238166082,346.5395266063405 500.0635508355303,349.0395266063405 500.733423816608,351.53952660634053 502.5635508355302,353.3696536252628 505.0635508355302,354.0395266063407" stroke="#008000" stroke-linecap="round" stroke-linejoin="round"/><polyline fill="none" points="438.8209759857706,354.9014655111757 441.32097598577064,354.23159253009794 443.1511030046929,352.4014655111758 443.8209759857708,349.9014655111758 443.1511030046931,347.40146551117573 441.32097598577093,345.57133849225346 438.82097598577093,344.90146551117556 436.3209759857709,345.5713384922533 434.4908489668486,347.40146551117545 433.8209759857707,349.90146551117545 434.49084896684843,352.4014655111755 436.3209759857706,354.23159253009777 438.8209759857706,354.9014655111757" stroke="#ffa500" stroke-linecap="round" stroke-linejoin="round"/><polyline fill="none" points="476.5161506596506,327.0557754927189 479.01615065965063,326.3859025116412 480.8462776785729,324.555775492719 481.5161506596508,322.055775492719 480.8462776785731,319.55577549271896 479.0161506596509,317.7256484737967 476.5161506596509,317.0557754927188 474.01615065965086,317.7256484737965 472.1860236407286,319.5557754927187 471.5161506596507,322.0557754927187 472.1860236407284,324.55577549271874 474.0161506596506,326.385902511641 476.5161506596506,327.0557754927189" stroke="#00f" stroke-linecap="round" stroke-linejoin="round"/><polyline fill="none" points="534.856579331558,291.55961183020185 537.356579331558,290.8897388491241 539.1867063504803,289.05961183020196 539.8565793315582,286.55961183020196 539.1867063504806,284.0596118302019 537.3565793315585,282.22948481127963 534.8565793315585,281.55961183020173 532.3565793315585,282.22948481127946 530.5264523126361,284.0596118302016 529.8565793315582,286.5596118302016 530.5264523126359,289.0596118302017 532.356579331558,290.88973884912394 534.856579331558,291.55961183020185" stroke="#00f" stroke-linecap="round" stroke-linejoin="round"/><polyline fill="none" points="416.1195205727874,333.82850562560196 418.61952057278745,333.15863264452423 420.4496475917097,331.3285056256021 421.1195205727876,328.8285056256021 420.4496475917099,326.328505625602 418.61952057278774,324.49837860667975 416.11952057278774,323.82850562560185 413.6195205727877,324.4983786066796 411.7893935538654,326.32850562560174 411.1195205727875,328.82850562560174 411.78939355386524,331.3285056256018 413.6195205727874,333.15863264452406 416.1195205727874,333.82850562560196" stroke="#ffa500" stroke-linecap="round" stroke-linejoin="round"/><polyline fill="none" points="450.3615518364344,201.9528376458991 452.86155183643444,201.28296466482138 454.6916788553567,199.45283764589922 455.3615518364346,196.95283764589922 454.6916788553569,194.45283764589917 452.8615518364347,192.6227106269769 450.3615518364347,191.952837645899 447.86155183643467,192.62271062697673 446.0314248175124,194.45283764589888 445.3615518364345,196.95283764589888 446.03142481751223,199.45283764589894 447.8615518364344,201.2829646648212 450.3615518364344,201.9528376458991" stroke="#ffa500" stroke-linecap="round" stroke-linejoin="round"/><polyline fill="none" points="533.4655501054717,290.38612352359706 535.9655501054717,289.71625054251933 537.795677124394,287.8861235235972 538.465550105472,285.3861235235972 537.7956771243943,282.8861235235971 535.9655501054722,281.05599650467485 533.4655501054722,280.38612352359695 530.9655501054722,281.0559965046747 529.1354230865498,282.88612352359684 528.465550105472,285.38612352359684 529.1354230865496,287.8861235235969 530.9655501054717,289.71625054251916 533.4655501054717,290.38612352359706" stroke="#ffa500" stroke-linecap="round" stroke-linejoin="round"/><polyline fill="none" points="535.6548354234446,338.6257263994591 538.1548354234446,337.95585341838137 539.984962442367,336.1257263994592 540.6548354234449,333.6257263994592 539.9849624423672,331.12572639945915 538.1548354234451,329.2955993805369 535.6548354234451,328.625726399459 533.1548354234451,329.2955993805367 531.3247084045228,331.12572639945887 530.6548354234449,333.62572639945887 531.3247084045225,336.1257263994589 533.1548354234446,337.9558534183812 535.6548354234446,338.6257263994591" stroke="#008000" stroke-linecap="round" stroke-linejoin="round"/><polyline fill="none" points="546.7489162053138,354.6965481710402 549.2489162053138,354.0266751899625 551.0790432242361,352.1965481710403 551.748916205314,349.6965481710403 551.0790432242363,347.19654817104026 549.2489162053142,345.366421152118 546.7489162053142,344.6965481710401 544.2489162053142,345.3664211521178 542.4187891863919,347.19654817104 541.748916205314,349.69654817104 542.4187891863917,352.19654817104004 544.2489162053138,354.0266751899623 546.7489162053138,354.6965481710402" stroke="#00f" stroke-linecap="round" stroke-linejoin="round"/><polyline fill="none" points="488.83561832105465,354.2487593859408 491.3356183210547,353.57888640486306 493.165745339977,351.7487593859409 493.8356183210549,349.2487593859409 493.16574533997715,346.74875938594084 491.335618321055,344.9186323670186 488.835618321055,344.2487593859407 486.33561832105494,344.9186323670184 484.50549130213267,346.74875938594056 483.83561832105477,349.24875938594056 484.5054913021325,351.7487593859406 486.33561832105465,353.5788864048629 488.83561832105465,354.2487593859408" stroke="#ffa500" stroke-linecap="round" stroke-linejoin="round"/><polyline fill="none" points="450.1926838334468,299.251896962087 452.69268383344684,298.5820239810093 454.5228108523691,296.75189696208713 455.192683833447,294.25189696208713 454.5228108523693,291.7518969620871 452.6926838334471,289.9217699431648 450.1926838334471,289.2518969620869 447.69268383344706,289.92176994316463 445.8625568145248,291.7518969620868 445.1926838334469,294.2518969620868 445.8625568145246,296.75189696208685 447.6926838334468,298.5820239810091 450.1926838334468,299.251896962087" stroke="#ffa500" stroke-linecap="round" stroke-linejoin="round"/><polyline fill="none" points="592.9540063033942,303.735906363833 595.4540063033943,303.0660333827553 597.2841333223166,301.2359063638331 597.9540063033945,298.7359063638331 597.2841333223168,296.23590636383307 595.4540063033947,294.4057793449108 592.9540063033947,293.7359063638329 590.4540063033946,294.4057793449106 588.6238792844723,296.2359063638328 587.9540063033944,298.7359063638328 588.6238792844721,301.23590636383284 590.4540063033942,303.0660333827551 592.9540063033942,303.735906363833" stroke="#ffa500" stroke-linecap="round" stroke-linejoin="round"/><polyline fill="none" points="474.28861552179495,279.17612076014814 476.788615521795,278.5062477790704 478.6187425407173,276.67612076014825 479.2886155217952,274.17612076014825 478.61874254071745,271.6761207601482 476.7886155217953,269.8459937412259 474.2886155217953,269.176120760148 471.78861552179524,269.84599374122575 469.95848850287297,271.6761207601479 469.28861552179507,274.1761207601479 469.9584885028728,276.67612076014797 471.78861552179495,278.50624777907024 474.28861552179495,279.17612076014814" stroke="#ffa500" stroke-linecap="round" stroke-linejoin="round"/><polyline fill="none" points="552.7102488217018,254.22717198428404 555.210248821702,253.55729900320634 557.0403758406243,251.7271719842842 557.7102488217022,249.2271719842842 557.0403758406245,246.72717198428415 555.2102488217024,244.89704496536186 552.7102488217024,244.22717198428393 550.2102488217023,244.89704496536163 548.38012180278,246.72717198428376 547.7102488217021,249.22717198428376 548.3801218027797,251.7271719842838 550.2102488217018,253.5572990032061 552.7102488217018,254.22717198428404" stroke="#00f" stroke-linecap="round" stroke-linejoin="round"/><polyline fill="none" points="466.4131704633565,261.861412531792 468.91317046335655,261.19153955071425 470.7432974822789,259.3614125317921 471.4131704633568,256.8614125317921 470.74329748227905,254.36141253179204 468.9131704633569,252.53128551286974 466.4131704633569,251.8614125317918 463.91317046335683,252.53128551286952 462.0830434444345,254.36141253179164 461.4131704633566,256.86141253179164 462.08304344443434,259.3614125317917 463.9131704633565,261.191539550714 466.4131704633565,261.8614125317919" stroke="#ffa500" stroke-linecap="round" stroke-linejoin="round"/><polyline fill="none" points="549.7800059011096,268.90606159599224 552.2800059011097,268.23618861491457 554.110132920032,266.4060615959924 554.7800059011099,263.9060615959924 554.1101329200322,261.40606159599236 552.2800059011101,259.57593457707003 549.7800059011101,258.9060615959921 547.28000590111,259.5759345770698 545.4498788821877,261.40606159599196 544.7800059011098,263.90606159599196 545.4498788821875,266.406061595992 547.2800059011096,268.23618861491434 549.7800059011096,268.9060615959923" stroke="#ffa500" stroke-linecap="round" stroke-linejoin="round"/><polyline fill="none" points="511.00633245875946,354.86844344042254 513.5063324587595,354.19857045934486 515.3364594776818,352.3684434404227 516.0063324587597,349.8684434404227 515.3364594776821,347.36844344042265 513.50633245876,345.5383164215003 511.00633245875997,344.86844344042237 508.5063324587599,345.53831642150004 506.6762054398376,347.3684434404222 506.00633245875963,349.8684434404222 506.6762054398373,352.36844344042225 508.50633245875946,354.1985704593446 511.00633245875946,354.86844344042254" stroke="#00f" stroke-linecap="round" stroke-linejoin="round"/><polyline fill="none" points="494.13486701069354,316.9295647828358 496.6348670106936,316.25969180175815 498.4649940296159,314.429564782836 499.1348670106939,311.929564782836 498.4649940296162,309.42956478283594 496.63486701069405,307.5994377639136 494.13486701069405,306.92956478283566 491.634867010694,307.59943776391333 489.80473999177167,309.4295647828355 489.1348670106937,311.9295647828355 489.8047399917714,314.42956478283554 491.63486701069354,316.25969180175787 494.13486701069354,316.9295647828358" stroke="#00f" stroke-linecap="round" stroke-linejoin="round"/><polyline fill="none" points="583.341283618903,346.5681375966413 585.8412836189032,345.8982646155636 587.6714106378255,344.06813759664146 588.3412836189034,341.56813759664146 587.6714106378257,339.0681375966414 585.8412836189036,337.2380105777191 583.3412836189036,336.5681375966411 580.8412836189035,337.2380105777188 579.0111565999812,339.06813759664095 578.3412836189033,341.56813759664095 579.011156599981,344.068137596641 580.841283618903,345.89826461556333 583.341283618903,346.5681375966413" stroke="#ffa500" stroke-linecap="round" stroke-linejoin="round"/><polyline fill="none" points="557.7985709983308,281.6364249987514 560.2985709983309,280.96655201767373 562.1286980172532,279.1364249987516 562.7985709983311,276.6364249987516 562.1286980172534,274.1364249987515 560.2985709983313,272.3062979798292 557.7985709983313,271.63642499875124 555.2985709983312,272.3062979798289 553.4684439794089,274.13642499875107 552.798570998331,276.63642499875107 553.4684439794087,279.1364249987511 555.2985709983308,280.96655201767345 557.7985709983308,281.6364249987514" stroke="#ffa500" stroke-linecap="round" stroke-linejoin="round"/><polyline fill="none" points="448.9986513347346,315.05003251278396 451.49865133473463,314.3801595317063 453.32877835365696,312.5500325127842 453.9986513347349,310.0500325127842 453.32877835365724,307.5500325127841 451.49865133473514,305.7199054938618 448.99865133473514,305.05003251278384 446.4986513347351,305.7199054938615 444.66852431581276,307.5500325127836 443.9986513347348,310.0500325127836 444.6685243158125,312.5500325127837 446.4986513347346,314.380159531706 448.9986513347346,315.05003251278396" stroke="#ffa500" stroke-linecap="round" stroke-linejoin="round"/><polyline fill="none" points="550.8936363759412,237.41181569085464 553.3936363759414,236.74194270977696 555.2237633948637,234.91181569085484 555.8936363759416,232.41181569085484 555.2237633948639,229.91181569085475 553.3936363759418,228.08168867193243 550.8936363759418,227.41181569085447 548.3936363759417,228.08168867193214 546.5635093570194,229.91181569085427 545.8936363759415,232.41181569085427 546.5635093570191,234.91181569085435 548.3936363759412,236.74194270977668 550.8936363759412,237.41181569085464" stroke="#ffa500" stroke-linecap="round" stroke-linejoin="round"/><polyline fill="none" points="550.7063292188087,321.32578404903944 553.2063292188088,320.65591106796177 555.0364562377312,318.82578404903967 555.7063292188091,316.32578404903967 555.0364562377314,313.8257840490396 553.2063292188093,311.9956570301173 550.7063292188093,311.3257840490393 548.2063292188092,311.995657030117 546.3762021998868,313.8257840490391 545.706329218809,316.3257840490391 546.3762021998866,318.82578404903916 548.2063292188087,320.6559110679615 550.7063292188087,321.32578404903944" stroke="#ffa500" stroke-linecap="round" stroke-linejoin="round"/><polyline fill="none" points="532.0514998804733,354.6313712483354 534.5514998804734,353.96149826725775 536.3816268993958,352.13137124833565 537.0514998804737,349.63137124833565 536.381626899396,347.1313712483356 534.5514998804739,345.30124422941327 532.0514998804739,344.6313712483353 529.5514998804738,345.301244229413 527.7213728615515,347.1313712483351 527.0514998804736,349.6313712483351 527.7213728615512,352.13137124833514 529.5514998804733,353.96149826725747 532.0514998804733,354.6313712483354" stroke="#00f" stroke-linecap="round" stroke-linejoin="round"/><polyline fill="none" points="576.5906516536248,267.96154060259886 579.090651653625,267.2916676215212 580.9207786725473,265.4615406025991 581.5906516536252,262.9615406025991 580.9207786725475,260.46154060259903 579.0906516536254,258.6314135836767 576.5906516536254,257.96154060259875 574.0906516536253,258.6314135836764 572.260524634703,260.4615406025985 571.5906516536251,262.9615406025985 572.2605246347027,265.4615406025986 574.0906516536248,267.2916676215209 576.5906516536248,267.96154060259886" stroke="#ffa500" stroke-linecap="round" stroke-linejoin="round"/><polyline fill="none" points="501.52981972089833,247.5051570585224 504.0298197208984,246.83528407744473 505.8599467398207,245.0051570585226 506.5298197208987,242.5051570585226 505.859946739821,240.0051570585225 504.0298197208989,238.1750300396002 501.5298197208989,237.50515705852223 499.02981972089884,238.1750300395999 497.1996927019765,240.00515705852203 496.52981972089856,242.50515705852203 497.19969270197623,245.00515705852212 499.02981972089833,246.83528407744444 501.52981972089833,247.5051570585224" stroke="#ffa500" stroke-linecap="round" stroke-linejoin="round"/><polyline fill="none" points="512.6379175019846,264.32812183094256 515.1379175019847,263.6582488498649 516.968044520907,261.8281218309428 517.637917501985,259.3281218309428 516.9680445209074,256.82812183094273 515.1379175019853,254.9979948120204 512.6379175019853,254.32812183094245 510.1379175019852,254.99799481202012 508.3077904830629,256.8281218309422 507.63791750198493,259.3281218309422 508.3077904830626,261.8281218309423 510.1379175019847,263.6582488498646 512.6379175019847,264.32812183094256" stroke="#ffa500" stroke-linecap="round" stroke-linejoin="round"/><polyline fill="none" points="506.7832125740529,334.3962680915905 509.283212574053,333.72639511051284 511.1133395929753,331.89626809159074 511.78321257405327,329.39626809159074 511.1133395929756,326.8962680915907 509.2832125740535,325.06614107266836 506.7832125740535,324.3962680915904 504.28321257405344,325.0661410726681 502.4530855551311,326.8962680915902 501.78321257405315,329.3962680915902 502.4530855551308,331.89626809159023 504.2832125740529,333.72639511051256 506.7832125740529,334.3962680915905" stroke="#ffa500" stroke-linecap="round" stroke-linejoin="round"/><polyline fill="none" points="578.3691229887246,291.03220286951944 580.8691229887247,290.36232988844176 582.699250007647,288.53220286951967 583.369122988725,286.03220286951967 582.6992500076474,283.5322028695196 580.8691229887253,281.7020758505973 578.3691229887253,281.0322028695193 575.8691229887252,281.702075850597 574.0389959698028,283.5322028695191 573.3691229887248,286.0322028695191 574.0389959698025,288.53220286951915 575.8691229887246,290.3623298884415 578.3691229887246,291.03220286951944" stroke="#ffa500" stroke-linecap="round" stroke-linejoin="round"/><polyline fill="none" points="411.92840515955794,299.71084884081074 414.428405159558,299.04097585973307 416.2585321784803,297.21084884081097 416.9284051595583,294.71084884081097 416.2585321784806,292.2108488408109 414.4284051595585,290.3807218218886 411.9284051595585,289.7108488408106 409.42840515955845,290.3807218218883 407.5982781406361,292.2108488408104 406.92840515955817,294.7108488408104 407.59827814063584,297.21084884081046 409.42840515955794,299.0409758597328 411.92840515955794,299.71084884081074" stroke="#ffa500" stroke-linecap="round" stroke-linejoin="round"/><polyline fill="none" points="-680.6407268292836,334.90144697639295 -678.1407268292835,334.2315739953153 -676.3105998103612,332.4014469763932 -675.6407268292832,329.9014469763932 -676.3105998103608,327.4014469763931 -678.1407268292829,325.5713199574708 -680.6407268292829,324.90144697639283 -683.140726829283,325.5713199574705 -684.9708538482054,327.4014469763926 -685.6407268292834,329.9014469763926 -684.9708538482057,332.40144697639266 -683.1407268292836,334.231573995315 -680.6407268292836,334.90144697639295" stroke="#ffa500" stroke-linecap="round" stroke-linejoin="round"/><polyline fill="none" points="378.98723239434736,349.4342276035874 381.4872323943474,348.7643546225097 383.31735941326974,346.9342276035876 383.9872323943477,344.4342276035876 383.31735941327,341.93422760358754 381.4872323943479,340.1041005846652 378.9872323943479,339.43422760358726 376.48723239434787,340.10410058466493 374.65710537542554,341.93422760358703 373.9872323943476,344.43422760358703 374.65710537542526,346.9342276035871 376.48723239434736,348.7643546225094 378.98723239434736,349.4342276035874" stroke="#00f" stroke-linecap="round" stroke-linejoin="round"/><polyline fill="none" points="390.31432979423124,279.6579412599578 392.81432979423136,278.9880682788801 394.6444568131537,277.157941259958 395.31432979423164,274.657941259958 394.64445681315397,272.1579412599579 392.81432979423187,270.3278142410356 390.31432979423187,269.6579412599576 387.81432979423175,270.3278142410353 385.9842027753094,272.1579412599574 385.31432979423147,274.6579412599574 385.98420277530914,277.1579412599575 387.81432979423124,278.98806827887984 390.31432979423124,279.6579412599578" stroke="#ffa500" stroke-linecap="round" stroke-linejoin="round"/><polyline fill="none" points="435.76787772315527,300.87317232638185 438.2678777231554,300.2032993453042 440.0980047420777,298.3731723263821 440.76787772315566,295.8731723263821 440.098004742078,293.37317232638196 438.2678777231559,291.54304530745964 435.7678777231559,290.8731723263817 433.2678777231558,291.54304530745935 431.43775070423345,293.37317232638145 430.7678777231555,295.87317232638145 431.43775070423317,298.37317232638156 433.26787772315527,300.2032993453039 435.76787772315527,300.87317232638185" stroke="#ffa500" stroke-linecap="round" stroke-linejoin="round"/><polyline fill="none" points="493.3780981135237,264.73306922047016 495.87809811352383,264.0631962393925 497.70822513244616,262.2330692204704 498.3780981135241,259.7330692204704 497.70822513244644,257.23306922047027 495.87809811352435,255.40294220154792 493.37809811352435,254.73306922046993 490.87809811352423,255.40294220154757 489.0479710946019,257.2330692204697 488.37809811352395,259.7330692204697 489.0479710946016,262.2330692204698 490.8780981135237,264.06319623939214 493.3780981135237,264.7330692204701" stroke="#ffa500" stroke-linecap="round" stroke-linejoin="round"/><polyline fill="none" points="358.04529459044056,321.7797452265729 360.5452945904407,321.10987224549524 362.375421609363,319.27974522657314 363.04529459044096,316.77974522657314 362.3754216093633,314.279745226573 360.5452945904412,312.4496182076507 358.0452945904412,311.77974522657274 355.5452945904411,312.4496182076504 353.71516757151875,314.2797452265725 353.0452945904408,316.7797452265725 353.71516757151846,319.27974522657263 355.54529459044056,321.10987224549496 358.04529459044056,321.7797452265729" stroke="#ffa500" stroke-linecap="round" stroke-linejoin="round"/><polyline fill="none" points="-699.8133499470852,333.9509187088018 -697.313349947085,333.2810457277241 -695.4832229281627,331.450918708802 -694.8133499470847,328.950918708802 -695.4832229281624,326.4509187088019 -697.3133499470845,324.6207916898796 -699.8133499470845,323.95091870880157 -702.3133499470846,324.62079168987924 -704.1434769660069,326.45091870880134 -704.8133499470849,328.95091870880134 -704.1434769660073,331.45091870880145 -702.3133499470852,333.2810457277238 -699.8133499470852,333.9509187088018" stroke="#ffa500" stroke-linecap="round" stroke-linejoin="round"/><polyline fill="none" points="482.45436360256934,248.76281904851146 484.95436360256946,248.09294606743381 486.7844906214918,246.26281904851172 487.4543636025698,243.76281904851172 486.7844906214921,241.26281904851163 484.95436360257,239.43269202958928 482.45436360257,238.7628190485113 479.9543636025699,239.43269202958894 478.1242365836476,241.26281904851103 477.4543636025696,243.76281904851103 478.12423658364725,246.26281904851112 479.95436360256934,248.09294606743347 482.45436360256934,248.76281904851146" stroke="#ffa500" stroke-linecap="round" stroke-linejoin="round"/><polyline fill="none" points="520.3754748879616,354.3780468360075 522.8754748879617,353.70817385492984 524.705601906884,351.87804683600774 525.375474887962,349.37804683600774 524.7056019068843,346.8780468360076 522.8754748879622,345.04791981708524 520.3754748879622,344.37804683600723 517.8754748879621,345.0479198170849 516.0453478690398,346.878046836007 515.3754748879618,349.378046836007 516.0453478690395,351.8780468360071 517.8754748879616,353.7081738549295 520.3754748879616,354.3780468360075" stroke="#00f" stroke-linecap="round" stroke-linejoin="round"/><polyline fill="none" points="494.62424545035213,199.72383496079019 497.12424545035225,199.05396197971254 498.95437246927463,197.22383496079044 499.62424545035265,194.72383496079044 498.954372469275,192.22383496079036 497.1242454503529,190.393707941868 494.6242454503529,189.72383496079001 492.12424545035276,190.39370794186766 490.2941184314304,192.22383496078976 489.62424545035236,194.72383496078976 490.29411843143,197.22383496078984 492.1242454503521,199.0539619797122 494.6242454503521,199.72383496079019" stroke="#ffa500" stroke-linecap="round" stroke-linejoin="round"/><polyline fill="none" points="458.26945026608763,328.7996022970025 460.76945026608774,328.12972931592486 462.5995772850101,326.29960229700276 463.26945026608814,323.79960229700276 462.5995772850105,321.29960229700265 460.7694502660884,319.46947527808027 458.2694502660884,318.79960229700225 455.7694502660883,319.46947527807987 453.93932324716593,321.29960229700197 453.2694502660879,323.79960229700197 453.93932324716553,326.2996022970021 455.76945026608763,328.12972931592446 458.26945026608763,328.7996022970025" stroke="#00f" stroke-linecap="round" stroke-linejoin="round"/><polyline fill="none" points="517.5045956008443,342.03204445622237 520.0045956008444,341.36217147514475 521.8347226197667,339.53204445622265 522.5045956008447,337.03204445622265 521.834722619767,334.53204445622254 520.0045956008449,332.70191743730015 517.5045956008449,332.03204445622214 515.0045956008448,332.70191743729976 513.1744685819225,334.53204445622185 512.5045956008445,337.03204445622185 513.1744685819222,339.53204445622197 515.0045956008443,341.36217147514435 517.5045956008443,342.03204445622237" stroke="#00f" stroke-linecap="round" stroke-linejoin="round"/><polyline fill="none" points="529.8062723636347,340.69174467586197 532.3062723636348,340.02187169478435 534.1363993825571,338.19174467586225 534.8062723636351,335.69174467586225 534.1363993825574,333.19174467586214 532.3062723636353,331.36161765693976 529.8062723636353,330.69174467586174 527.3062723636352,331.36161765693936 525.4761453447129,333.19174467586146 524.8062723636349,335.69174467586146 525.4761453447126,338.19174467586157 527.3062723636347,340.02187169478395 529.8062723636347,340.69174467586197" stroke="#008000" stroke-linecap="round" stroke-linejoin="round"/><polyline fill="none" points="378.59889733518486,320.82766008184785 381.098897335185,320.15778710077024 382.92902435410736,318.32766008184814 383.59889733518537,315.82766008184814 382.92902435410775,313.327660081848 381.09889733518565,311.49753306292564 378.59889733518565,310.8276600818476 376.09889733518554,311.49753306292524 374.26877031626316,313.32766008184734 373.59889733518514,315.82766008184734 374.26877031626276,318.32766008184745 376.09889733518486,320.15778710076984 378.59889733518486,320.82766008184785" stroke="#ffa500" stroke-linecap="round" stroke-linejoin="round"/><polyline fill="none" points="532.9456999133989,276.2875566409179 535.445699913399,275.6176836598403 537.2758269323214,273.7875566409182 537.9456999133994,271.2875566409182 537.2758269323217,268.78755664091807 535.4456999133996,266.9574296219957 532.9456999133996,266.28755664091767 530.4456999133995,266.9574296219953 528.6155728944772,268.7875566409174 527.9456999133992,271.2875566409174 528.6155728944768,273.7875566409175 530.4456999133989,275.6176836598399 532.9456999133989,276.2875566409179" stroke="#ffa500" stroke-linecap="round" stroke-linejoin="round"/><polyline fill="none" points="452.00293436032445,278.9887934531586 454.50293436032456,278.318920472081 456.33306137924694,276.4887934531589 457.00293436032496,273.9887934531589 456.33306137924734,271.4887934531588 454.50293436032524,269.6586664342364 452.00293436032524,268.9887934531584 449.5029343603251,269.658666434236 447.67280734140274,271.4887934531581 447.00293436032473,273.9887934531581 447.67280734140235,276.4887934531582 449.50293436032445,278.3189204720806 452.00293436032445,278.9887934531586" stroke="#ffa500" stroke-linecap="round" stroke-linejoin="round"/><polyline fill="none" points="432.2426294085513,281.7272141480892 434.7426294085514,281.0573411670116 436.5727564274738,279.2272141480895 437.2426294085518,276.7272141480895 436.5727564274742,274.2272141480894 434.7426294085521,272.397087129167 432.2426294085521,271.727214148089 429.742629408552,272.3970871291666 427.9125023896296,274.2272141480887 427.2426294085516,276.7272141480887 427.9125023896292,279.2272141480888 429.7426294085513,281.0573411670112 432.2426294085513,281.7272141480892" stroke="#ffa500" stroke-linecap="round" stroke-linejoin="round"/><polyline fill="none" points="414.7652700811441,349.9109084933215 417.2652700811442,349.24103551224385 419.0953971000666,347.41090849332176 419.7652700811446,344.91090849332176 419.095397100067,342.41090849332164 417.2652700811449,340.58078147439926 414.7652700811449,339.91090849332124 412.26527008114476,340.58078147439886 410.4351430622224,342.41090849332096 409.76527008114437,344.91090849332096 410.435143062222,347.4109084933211 412.2652700811441,349.24103551224346 414.7652700811441,349.9109084933215" stroke="#00f" stroke-linecap="round" stroke-linejoin="round"/><polyline fill="none" points="-665.0351220660623,354.4062117213057 -662.5351220660622,353.73633874022806 -660.7049950471398,351.90621172130597 -660.0351220660618,349.40621172130597 -660.7049950471395,346.90621172130585 -662.5351220660616,345.07608470238347 -665.0351220660616,344.40621172130545 -667.5351220660617,345.07608470238307 -669.365249084984,346.90621172130517 -670.0351220660621,349.40621172130517 -669.3652490849844,351.9062117213053 -667.5351220660623,353.73633874022767 -665.0351220660623,354.4062117213057" stroke="#ffa500" stroke-linecap="round" stroke-linejoin="round"/><polyline fill="none" points="500.4046269946369,354.8159099519031 502.904626994637,354.1460369708255 504.7347540135594,352.3159099519034 505.4046269946374,349.8159099519034 504.7347540135598,347.3159099519033 502.9046269946377,345.4857829329809 500.4046269946377,344.8159099519029 497.90462699463757,345.4857829329805 496.0744999757152,347.3159099519026 495.40462699463717,349.8159099519026 496.0744999757148,352.3159099519027 497.9046269946369,354.1460369708251 500.4046269946369,354.8159099519031" stroke="#00f" stroke-linecap="round" stroke-linejoin="round"/><polyline fill="none" points="571.0145477031707,353.8699862655193 573.5145477031708,353.20011328444167 575.3446747220931,351.3699862655196 576.0145477031712,348.8699862655196 575.3446747220935,346.36998626551946 573.5145477031714,344.5398592465971 571.0145477031714,343.86998626551906 568.5145477031713,344.5398592465967 566.684420684249,346.3699862655188 566.0145477031709,348.8699862655188 566.6844206842486,351.3699862655189 568.5145477031707,353.2001132844413 571.0145477031707,353.8699862655193" stroke="#00f" stroke-linecap="round" stroke-linejoin="round"/><polyline fill="none" points="-698.4993531580137,351.9850434192166 -695.9993531580136,351.315170438139 -694.1692261390912,349.4850434192169 -693.4993531580132,346.9850434192169 -694.1692261390907,344.48504341921677 -695.9993531580128,342.6549164002944 -698.4993531580128,341.98504341921637 -700.9993531580129,342.654916400294 -702.8294801769354,344.4850434192161 -703.4993531580134,346.9850434192161 -702.8294801769358,349.4850434192162 -700.9993531580137,351.3151704381386 -698.4993531580137,351.9850434192166" stroke="#00f" stroke-linecap="round" stroke-linejoin="round"/><polyline fill="none" points="531.1738305642322,331.9908854629058 533.6738305642323,331.3210124818282 535.5039575831547,329.4908854629061 536.1738305642327,326.9908854629061 535.5039575831552,324.49088546290596 533.6738305642331,322.6607584439836 531.1738305642331,321.99088546290557 528.673830564233,322.6607584439832 526.8437035453105,324.4908854629053 526.1738305642325,326.9908854629053 526.8437035453101,329.4908854629054 528.6738305642322,331.3210124818278 531.1738305642322,331.9908854629058" stroke="#008000" stroke-linecap="round" stroke-linejoin="round"/><polyline fill="none" points="518.022730745834,341.25600235682276 520.5227307458341,340.58612937574514 522.3528577647565,338.75600235682305 523.0227307458346,336.25600235682305 522.352857764757,333.75600235682293 520.5227307458349,331.92587533790055 518.0227307458349,331.25600235682253 515.5227307458348,331.92587533790015 513.6926037269124,333.75600235682225 513.0227307458343,336.25600235682225 513.6926037269119,338.75600235682236 515.522730745834,340.58612937574475 518.022730745834,341.25600235682276" stroke="#008000" stroke-linecap="round" stroke-linejoin="round"/><polyline fill="none" points="505.2598471754034,352.8535783430931 507.75984717540354,352.1837053620155 509.5899741943259,350.3535783430934 510.25984717540393,347.8535783430934 509.5899741943263,345.35357834309326 507.7598471754042,343.5234513241709 505.2598471754042,342.85357834309286 502.7598471754041,343.5234513241705 500.9297201564817,345.3535783430926 500.2598471754037,347.8535783430926 500.9297201564813,350.3535783430927 502.7598471754034,352.1837053620151 505.2598471754034,352.8535783430931" stroke="#f00" stroke-linecap="round" stroke-linejoin="round"/><polyline fill="none" points="511.64242931579804,308.13427329325356 514.1424293157982,307.46440031217594 515.9725563347206,305.63427329325384 516.6424293157986,303.13427329325384 515.972556334721,300.6342732932537 514.142429315799,298.80414627433134 511.64242931579895,298.13427329325333 509.14242931579884,298.80414627433095 507.31230229687645,300.63427329325305 506.64242931579844,303.13427329325305 507.31230229687606,305.63427329325316 509.14242931579815,307.46440031217554 511.64242931579815,308.13427329325356" stroke="#00f" stroke-linecap="round" stroke-linejoin="round"/><polyline fill="none" points="352.06378995044497,354.6525893087963 354.5637899504451,353.98271632771866 356.39391696936747,352.15258930879656 357.0637899504455,349.65258930879656 356.39391696936787,347.15258930879645 354.56378995044577,345.32246228987407 352.06378995044577,344.65258930879605 349.56378995044565,345.32246228987367 347.73366293152327,347.15258930879577 347.06378995044525,349.65258930879577 347.7336629315229,352.1525893087959 349.56378995044497,353.98271632771826 352.06378995044497,354.6525893087963" stroke="#ffa500" stroke-linecap="round" stroke-linejoin="round"/><polyline fill="none" points="577.7716278077696,315.12392742741844 580.2716278077697,314.4540544463408 582.1017548266922,312.6239274274187 582.7716278077702,310.1239274274187 582.1017548266926,307.6239274274186 580.2716278077705,305.7938004084962 577.7716278077705,305.12392742741815 575.2716278077704,305.79380040849577 573.441500788848,307.62392742741787 572.77162780777,310.12392742741787 573.4415007888475,312.623927427418 575.2716278077696,314.45405444634036 577.7716278077696,315.12392742741844" stroke="#00f" stroke-linecap="round" stroke-linejoin="round"/><polyline fill="none" points="479.1556271370373,212.459723257288 481.6556271370374,211.78985027621042 483.4857541559598,209.95972325728835 484.15562713703787,207.45972325728835 483.48575415596025,204.95972325728823 481.65562713703815,203.12959623836582 479.15562713703815,202.45972325728778 476.65562713703804,203.12959623836537 474.82550011811566,204.95972325728744 474.1556271370376,207.45972325728744 474.8255001181152,209.95972325728755 476.6556271370373,211.78985027620996 479.1556271370373,212.459723257288" stroke="#ffa500" stroke-linecap="round" stroke-linejoin="round"/><polyline fill="none" points="597.769839697721,327.4578155471182 600.2698396977211,326.78794256604056 602.0999667166435,324.95781554711846 602.7698396977215,322.45781554711846 602.099966716644,319.95781554711834 600.2698396977219,318.12768852819596 597.7698396977219,317.4578155471179 595.2698396977217,318.1276885281955 593.4397126787993,319.9578155471176 592.7698396977213,322.4578155471176 593.4397126787989,324.9578155471177 595.269839697721,326.7879425660401 597.769839697721,327.4578155471182" stroke="#ffa500" stroke-linecap="round" stroke-linejoin="round"/><polyline fill="none" points="539.4559581321244,306.7254388843186 541.9559581321245,306.05556590324096 543.7860851510469,304.22543888431886 544.4559581321249,301.72543888431886 543.7860851510474,299.22543888431875 541.9559581321253,297.39531186539637 539.4559581321253,296.7254388843183 536.9559581321251,297.3953118653959 535.1258311132027,299.225438884318 534.4559581321247,301.725438884318 535.1258311132023,304.2254388843181 536.9559581321244,306.0555659032405 539.4559581321244,306.7254388843186" stroke="#ffa500" stroke-linecap="round" stroke-linejoin="round"/><polyline fill="none" points="391.40143041495554,354.89033311986003 393.90143041495566,354.2204601387824 395.73155743387804,352.3903331198603 396.4014304149561,349.8903331198603 395.7315574338785,347.3903331198602 393.9014304149564,345.5602061009378 391.4014304149564,344.89033311985975 388.9014304149563,345.56020610093736 387.0713033960339,347.39033311985946 386.4014304149558,349.89033311985946 387.07130339603344,352.3903331198596 388.90143041495554,354.22046013878196 391.40143041495554,354.89033311986003" stroke="#ffa500" stroke-linecap="round" stroke-linejoin="round"/><polyline fill="none" points="502.05498904962974,283.9225833921953 504.55498904962985,283.2527104111177 506.38511606855224,281.42258339219563 507.0549890496303,278.92258339219563 506.3851160685527,276.4225833921955 504.55498904963065,274.59245637327314 502.05498904963065,273.92258339219507 499.55498904963054,274.5924563732727 497.7248620307081,276.4225833921947 497.05498904963,278.9225833921947 497.72486203070764,281.42258339219484 499.5549890496297,283.2527104111173 502.0549890496297,283.92258339219535" stroke="#00f" stroke-linecap="round" stroke-linejoin="round"/><polyline fill="none" points="521.8040107410794,321.215380211097 524.3040107410795,320.5455072300194 526.134137760002,318.71538021109734 526.80401074108,316.21538021109734 526.1341377600024,313.7153802110972 524.3040107410803,311.8852531921748 521.8040107410803,311.2153802110967 519.3040107410802,311.8852531921743 517.4738837221578,313.7153802110963 516.8040107410798,316.2153802110963 517.4738837221573,318.71538021109643 519.3040107410794,320.54550723001887 521.8040107410794,321.21538021109694" stroke="#00f" stroke-linecap="round" stroke-linejoin="round"/><polyline fill="none" points="558.6558345382831,336.7798460683957 561.1558345382832,336.10997308731817 562.9859615572057,334.2798460683961 563.6558345382837,331.7798460683961 562.9859615572061,329.279846068396 561.155834538284,327.4497190494736 558.655834538284,326.7798460683955 556.1558345382839,327.44971904947306 554.3257075193615,329.2798460683951 553.6558345382834,331.7798460683951 554.325707519361,334.2798460683952 556.1558345382831,336.10997308731766 558.6558345382831,336.7798460683957" stroke="#00f" stroke-linecap="round" stroke-linejoin="round"/><polyline fill="none" points="426.3558170777697,317.35316600337154 428.8558170777698,316.683293022294 430.68594409669225,314.85316600337194 431.3558170777703,312.35316600337194 430.68594409669277,309.8531660033718 428.8558170777707,308.0230389844494 426.3558170777707,307.3531660033713 423.8558170777706,308.0230389844489 422.02569005884817,309.8531660033709 421.3558170777701,312.3531660033709 422.02569005884766,314.85316600337103 423.8558170777697,316.68329302229347 426.3558170777697,317.35316600337154" stroke="#00f" stroke-linecap="round" stroke-linejoin="round"/><polyline fill="none" points="470.52977380435846,304.7282902292504 473.02977380435857,304.0584172481728 474.859900823281,302.2282902292508 475.5297738043591,299.7282902292508 474.8599008232815,297.22829022925066 473.0297738043595,295.3981632103282 470.5297738043595,294.72829022925015 468.02977380435937,295.3981632103277 466.1996467854369,297.22829022924975 465.52977380435885,299.72829022924975 466.1996467854364,302.22829022924986 468.02977380435846,304.0584172481723 470.52977380435846,304.7282902292504" stroke="#ffa500" stroke-linecap="round" stroke-linejoin="round"/><polyline fill="none" points="476.8884912948622,348.9983439321904 479.3884912948623,348.3284709511128 481.21861831378476,346.4983439321908 481.88849129486283,343.9983439321908 481.21861831378527,341.49834393219066 479.38849129486323,339.6682169132682 476.88849129486323,338.99834393219015 474.3884912948631,339.6682169132677 472.5583642759407,341.49834393218975 471.8884912948626,343.99834393218975 472.55836427594016,346.49834393218987 474.3884912948622,348.3284709511123 476.8884912948622,348.9983439321904" stroke="#ffa500" stroke-linecap="round" stroke-linejoin="round"/><polyline fill="none" points="514.6590177630534,354.03243598919954 517.1590177630535,353.362563008122 518.9891447819759,351.53243598919994 519.6590177630541,349.03243598919994 518.9891447819765,346.5324359891998 517.1590177630544,344.7023089702774 514.6590177630544,344.0324359891993 512.1590177630543,344.7023089702769 510.32889074413185,346.5324359891989 509.6590177630538,349.0324359891989 510.32889074413134,351.53243598919903 512.1590177630534,353.36256300812147 514.6590177630534,354.03243598919954" stroke="#00f" stroke-linecap="round" stroke-linejoin="round"/><polyline fill="none" points="556.6249708307498,354.17960974492064 559.1249708307499,353.5097367638431 560.9550978496724,351.67960974492104 561.6249708307505,349.17960974492104 560.9550978496729,346.6796097449209 559.1249708307508,344.8494827259985 556.6249708307508,344.1796097449204 554.1249708307507,344.849482725998 552.2948438118283,346.67960974492 551.6249708307502,349.17960974492 552.2948438118277,351.6796097449201 554.1249708307498,353.50973676384257 556.6249708307498,354.17960974492064" stroke="#ffa500" stroke-linecap="round" stroke-linejoin="round"/><polyline fill="none" points="539.6787693316787,354.5632975705766 542.1787693316788,353.89342458949903 544.0088963506013,352.063297570577 544.6787693316794,349.563297570577 544.0088963506018,347.0632975705769 542.1787693316797,345.23317055165444 539.6787693316797,344.56329757057637 537.1787693316796,345.2331705516539 535.3486423127572,347.06329757057597 534.6787693316791,349.56329757057597 535.3486423127566,352.0632975705761 537.1787693316787,353.8934245894985 539.6787693316787,354.5632975705766" stroke="#00f" stroke-linecap="round" stroke-linejoin="round"/><polyline fill="none" points="427.3316166200482,346.0593824953954 429.8316166200483,345.38950951431787 431.66174363897073,343.5593824953958 432.3316166200488,341.0593824953958 431.66174363897125,338.5593824953957 429.8316166200492,336.72925547647327 427.3316166200492,336.0593824953952 424.8316166200491,336.72925547647276 423.00148960112665,338.5593824953948 422.3316166200486,341.0593824953948 423.00148960112614,343.5593824953949 424.8316166200482,345.38950951431735 427.3316166200482,346.0593824953954" stroke="#ffa500" stroke-linecap="round" stroke-linejoin="round"/><polyline fill="none" points="385.7780605973321,338.88267207955937 388.2780605973322,338.2127990984818 390.10818761625467,336.38267207955977 390.77806059733274,333.88267207955977 390.1081876162552,331.38267207955965 388.27806059733314,329.5525450606372 385.77806059733314,328.88267207955914 383.278060597333,329.5525450606367 381.4479335784106,331.38267207955874 380.7780605973325,333.88267207955874 381.4479335784101,336.38267207955886 383.2780605973321,338.2127990984813 385.7780605973321,338.88267207955937" stroke="#ffa500" stroke-linecap="round" stroke-linejoin="round"/><polyline fill="none" points="536.2912710395999,253.93401458471683 538.7912710396,253.26414160363927 540.6213980585225,251.43401458471723 541.2912710396006,248.93401458471723 540.621398058523,246.4340145847171 538.7912710396009,244.60388756579465 536.2912710396009,243.93401458471655 533.7912710396008,244.6038875657941 531.9611440206784,246.43401458471615 531.2912710396002,248.93401458471615 531.9611440206778,251.4340145847163 533.7912710395999,253.26414160363873 536.2912710395999,253.93401458471683" stroke="#ffa500" stroke-linecap="round" stroke-linejoin="round"/><polyline fill="none" points="528.0203957918357,354.6278469790091 530.5203957918358,353.95797399793156 532.3505228107582,352.1278469790095 533.0203957918363,349.6278469790095 532.3505228107588,347.12784697900935 530.5203957918367,345.2977199600869 528.0203957918367,344.62784697900884 525.5203957918366,345.2977199600864 523.6902687729141,347.12784697900844 523.020395791836,349.62784697900844 523.6902687729136,352.1278469790086 525.5203957918357,353.95797399793105 528.0203957918357,354.6278469790091" stroke="#00f" stroke-linecap="round" stroke-linejoin="round"/><polyline fill="none" points="518.5394465739865,301.89476240442815 521.0394465739867,301.2248894233506 522.8695735929091,299.39476240442855 523.5394465739872,296.89476240442855 522.8695735929097,294.3947624044284 521.0394465739876,292.56463538550594 518.5394465739876,291.89476240442787 516.0394465739874,292.5646353855054 514.209319555065,294.39476240442747 513.5394465739869,296.89476240442747 514.2093195550644,299.39476240442764 516.0394465739865,301.2248894233501 518.5394465739865,301.89476240442815" stroke="#ffa500" stroke-linecap="round" stroke-linejoin="round"/><polyline fill="none" points="564.4436134173957,301.93691832953874 566.9436134173958,301.2670453484612 568.7737404363182,299.43691832953914 569.4436134173964,296.93691832953914 568.7737404363188,294.43691832953897 566.9436134173967,292.60679131061653 564.4436134173967,291.93691832953846 561.9436134173966,292.606791310616 560.1134863984742,294.43691832953806 559.443613417396,296.93691832953806 560.1134863984736,299.43691832953823 561.9436134173957,301.26704534846067 564.4436134173957,301.93691832953874" stroke="#ffa500" stroke-linecap="round" stroke-linejoin="round"/><polyline fill="none" points="-684.7405175754778,354.8375904376834 -682.2405175754777,354.1677174566058 -680.4103905565553,352.3375904376838 -679.7405175754772,349.8375904376838 -680.4103905565547,347.3375904376836 -682.2405175754768,345.5074634187612 -684.7405175754768,344.8375904376831 -687.2405175754769,345.50746341876066 -689.0706445943994,347.3375904376827 -689.7405175754775,349.8375904376827 -689.0706445943999,352.3375904376829 -687.2405175754778,354.1677174566053 -684.7405175754778,354.83759043768345" stroke="#ffa500" stroke-linecap="round" stroke-linejoin="round"/><line fill="none" stroke="#000" stroke-linecap="round" x1="474.2553313929253" x2="459.5755483676709" y1="197.6740230328892" y2="214.02112484717347"/><line fill="none" stroke="#000" stroke-linecap="round" x1="474.2553313929253" x2="494.62424545035213" y1="197.6740230328892" y2="194.72383496079019"/><line fill="none" stroke="#000" stroke-linecap="round" x1="474.2553313929253" x2="450.3615518364344" y1="197.6740230328892" y2="196.9528376458991"/><line fill="none" stroke="#000" stroke-linecap="round" x1="474.2553313929253" x2="505.46405360858046" y1="197.6740230328892" y2="179.69489507506657"/><line fill="none" stroke="#000" stroke-linecap="round" x1="474.2553313929253" x2="479.1556271370373" y1="197.6740230328892" y2="207.459723257288"/><line fill="none" stroke="#000" stroke-linecap="round" x1="423.0466992752791" x2="402.94275217186197" y1="268.6492440952586" y2="254.82882461310703"/><line fill="none" stroke="#000" stroke-linecap="round" x1="423.0466992752791" x2="411.92840515955794" y1="268.6492440952586" y2="294.71084884081074"/><line fill="none" stroke="#000" stroke-linecap="round" x1="423.0466992752791" x2="404.47154228552904" y1="268.6492440952586" y2="311.763100530482"/><line fill="none" stroke="#000" stroke-linecap="round" x1="423.0466992752791" x2="426.3558170777697" y1="268.6492440952586" y2="312.35316600337154"/><line fill="none" stroke="#000" stroke-linecap="round" x1="423.0466992752791" x2="390.31432979423124" y1="268.6492440952586" y2="274.6579412599578"/><line fill="none" stroke="#000" stroke-linecap="round" x1="490.94725141049025" x2="490.36003638899473" y1="349.7872094131994" y2="330.27072388061185"/><line fill="none" stroke="#000" stroke-linecap="round" x1="490.94725141049025" x2="459.9452571460967" y1="349.7872094131994" y2="348.7717889459356"/><line fill="none" stroke="#000" stroke-linecap="round" x1="490.94725141049025" x2="520.3754748879616" y1="349.7872094131994" y2="349.3780468360075"/><line fill="none" stroke="#000" stroke-linecap="round" x1="490.94725141049025" x2="511.64242931579804" y1="349.7872094131994" y2="303.13427329325356"/><line fill="none" stroke="#000" stroke-linecap="round" x1="490.94725141049025" x2="476.8884912948622" y1="349.7872094131994" y2="343.9983439321904"/><line fill="none" stroke="#000" stroke-linecap="round" x1="486.63546468996265" x2="546.1690417376143" y1="312.3793024519023" y2="290.34973826708637"/><line fill="none" stroke="#000" stroke-linecap="round" x1="486.63546468996265" x2="502.05498904962974" y1="312.3793024519023" y2="278.9225833921953"/><line fill="none" stroke="#000" stroke-linecap="round" x1="486.63546468996265" x2="500.29583456052524" y1="312.3793024519023" y2="302.50543764845463"/><line fill="none" stroke="#000" stroke-linecap="round" x1="486.63546468996265" x2="470.52977380435846" y1="312.3793024519023" y2="299.7282902292504"/><line fill="none" stroke="#000" stroke-linecap="round" x1="486.63546468996265" x2="370.87728424313525" y1="312.3793024519023" y2="333.8080563954562"/><line fill="none" stroke="#000" stroke-linecap="round" x1="514.7834278743701" x2="500.29583456052524" y1="280.23223801748355" y2="302.50543764845463"/><line fill="none" stroke="#000" stroke-linecap="round" x1="514.7834278743701" x2="502.05498904962974" y1="280.23223801748355" y2="278.9225833921953"/><line fill="none" stroke="#000" stroke-linecap="round" x1="514.7834278743701" x2="521.8040107410794" y1="280.23223801748355" y2="316.215380211097"/><line fill="none" stroke="#000" stroke-linecap="round" x1="514.7834278743701" x2="482.45436360256934" y1="280.23223801748355" y2="243.76281904851146"/><line fill="none" stroke="#000" stroke-linecap="round" x1="514.7834278743701" x2="493.3780981135237" y1="280.23223801748355" y2="259.73306922047016"/><line fill="none" stroke="#000" stroke-linecap="round" x1="490.36003638899473" x2="458.26945026608763" y1="330.27072388061185" y2="323.7996022970025"/><line fill="none" stroke="#000" stroke-linecap="round" x1="490.36003638899473" x2="490.94725141049025" y1="330.27072388061185" y2="349.7872094131994"/><line fill="none" stroke="#000" stroke-linecap="round" x1="490.36003638899473" x2="459.9452571460967" y1="330.27072388061185" y2="348.7717889459356"/><line fill="none" stroke="#000" stroke-linecap="round" x1="490.36003638899473" x2="550.7063292188087" y1="330.27072388061185" y2="316.32578404903944"/><line fill="none" stroke="#000" stroke-linecap="round" x1="490.36003638899473" x2="435.76787772315527" y1="330.27072388061185" y2="295.87317232638185"/><line fill="none" stroke="#000" stroke-linecap="round" x1="485.56065837461995" x2="494.13486701069354" y1="293.94849405776" y2="311.9295647828358"/><line fill="none" stroke="#000" stroke-linecap="round" x1="485.56065837461995" x2="426.3558170777697" y1="293.94849405776" y2="312.35316600337154"/><line fill="none" stroke="#000" stroke-linecap="round" x1="485.56065837461995" x2="474.28861552179495" y1="293.94849405776" y2="274.17612076014814"/><line fill="none" stroke="#000" stroke-linecap="round" x1="485.56065837461995" x2="458.26945026608763" y1="293.94849405776" y2="323.7996022970025"/><line fill="none" stroke="#000" stroke-linecap="round" x1="485.56065837461995" x2="531.1738305642322" y1="293.94849405776" y2="326.9908854629058"/><line fill="none" stroke="#000" stroke-linecap="round" x1="557.5178106488004" x2="546.1690417376143" y1="320.482534182387" y2="290.34973826708637"/><line fill="none" stroke="#000" stroke-linecap="round" x1="557.5178106488004" x2="521.8040107410794" y1="320.482534182387" y2="316.215380211097"/><line fill="none" stroke="#000" stroke-linecap="round" x1="557.5178106488004" x2="486.63546468996265" y1="320.482534182387" y2="312.3793024519023"/><line fill="none" stroke="#000" stroke-linecap="round" x1="557.5178106488004" x2="539.4559581321244" y1="320.482534182387" y2="301.7254388843186"/><line fill="none" stroke="#000" stroke-linecap="round" x1="557.5178106488004" x2="517.5045956008443" y1="320.482534182387" y2="337.03204445622237"/><line fill="none" stroke="#000" stroke-linecap="round" x1="559.2919071663655" x2="592.9540063033942" y1="286.58258141371664" y2="298.735906363833"/><line fill="none" stroke="#000" stroke-linecap="round" x1="559.2919071663655" x2="564.4436134173957" y1="286.58258141371664" y2="296.93691832953874"/><line fill="none" stroke="#000" stroke-linecap="round" x1="559.2919071663655" x2="577.7716278077696" y1="286.58258141371664" y2="310.12392742741844"/><line fill="none" stroke="#000" stroke-linecap="round" x1="559.2919071663655" x2="576.5906516536248" y1="286.58258141371664" y2="262.96154060259886"/><line fill="none" stroke="#000" stroke-linecap="round" x1="559.2919071663655" x2="549.7800059011096" y1="286.58258141371664" y2="263.90606159599224"/><line fill="none" stroke="#000" stroke-linecap="round" x1="500.29583456052524" x2="502.05498904962974" y1="302.50543764845463" y2="278.9225833921953"/><line fill="none" stroke="#000" stroke-linecap="round" x1="500.29583456052524" x2="514.7834278743701" y1="302.50543764845463" y2="280.23223801748355"/><line fill="none" stroke="#000" stroke-linecap="round" x1="500.29583456052524" x2="506.7832125740529" y1="302.50543764845463" y2="329.3962680915905"/><line fill="none" stroke="#000" stroke-linecap="round" x1="500.29583456052524" x2="521.8040107410794" y1="302.50543764845463" y2="316.215380211097"/><line fill="none" stroke="#000" stroke-linecap="round" x1="500.29583456052524" x2="505.2598471754034" y1="302.50543764845463" y2="347.8535783430931"/><line fill="none" stroke="#000" stroke-linecap="round" x1="527.1416431234834" x2="505.0635508355302" y1="303.0706221407805" y2="349.0395266063407"/><line fill="none" stroke="#000" stroke-linecap="round" x1="527.1416431234834" x2="531.1738305642322" y1="303.0706221407805" y2="326.9908854629058"/><line fill="none" stroke="#000" stroke-linecap="round" x1="527.1416431234834" x2="505.2598471754034" y1="303.0706221407805" y2="347.8535783430931"/><line fill="none" stroke="#000" stroke-linecap="round" x1="527.1416431234834" x2="514.6590177630534" y1="303.0706221407805" y2="349.03243598919954"/><line fill="none" stroke="#000" stroke-linecap="round" x1="527.1416431234834" x2="534.856579331558" y1="303.0706221407805" y2="286.55961183020185"/><line fill="none" stroke="#000" stroke-linecap="round" x1="459.9452571460967" x2="490.94725141049025" y1="348.7717889459356" y2="349.7872094131994"/><line fill="none" stroke="#000" stroke-linecap="round" x1="459.9452571460967" x2="490.36003638899473" y1="348.7717889459356" y2="330.27072388061185"/><line fill="none" stroke="#000" stroke-linecap="round" x1="459.9452571460967" x2="476.8884912948622" y1="348.7717889459356" y2="343.9983439321904"/><line fill="none" stroke="#000" stroke-linecap="round" x1="459.9452571460967" x2="416.1195205727874" y1="348.7717889459356" y2="328.82850562560196"/><line fill="none" stroke="#000" stroke-linecap="round" x1="459.9452571460967" x2="458.26945026608763" y1="348.7717889459356" y2="323.7996022970025"/><line fill="none" stroke="#000" stroke-linecap="round" x1="505.0635508355302" x2="494.13486701069354" y1="349.0395266063407" y2="311.9295647828358"/><line fill="none" stroke="#000" stroke-linecap="round" x1="505.0635508355302" x2="527.1416431234834" y1="349.0395266063407" y2="303.0706221407805"/><line fill="none" stroke="#000" stroke-linecap="round" x1="505.0635508355302" x2="476.5161506596506" y1="349.0395266063407" y2="322.0557754927189"/><line fill="none" stroke="#000" stroke-linecap="round" x1="505.0635508355302" x2="531.1738305642322" y1="349.0395266063407" y2="326.9908854629058"/><line fill="none" stroke="#000" stroke-linecap="round" x1="505.0635508355302" x2="505.2598471754034" y1="349.0395266063407" y2="347.8535783430931"/><line fill="none" stroke="#000" stroke-linecap="round" x1="476.5161506596506" x2="488.83561832105465" y1="322.0557754927189" y2="349.2487593859408"/><line fill="none" stroke="#000" stroke-linecap="round" x1="476.5161506596506" x2="448.9986513347346" y1="322.0557754927189" y2="310.05003251278396"/><line fill="none" stroke="#000" stroke-linecap="round" x1="476.5161506596506" x2="452.00293436032445" y1="322.0557754927189" y2="273.9887934531586"/><line fill="none" stroke="#000" stroke-linecap="round" x1="476.5161506596506" x2="527.1416431234834" y1="322.0557754927189" y2="303.0706221407805"/><line fill="none" stroke="#000" stroke-linecap="round" x1="476.5161506596506" x2="505.0635508355302" y1="322.0557754927189" y2="349.0395266063407"/><line fill="none" stroke="#000" stroke-linecap="round" x1="534.856579331558" x2="527.1416431234834" y1="286.55961183020185" y2="303.0706221407805"/><line fill="none" stroke="#000" stroke-linecap="round" x1="534.856579331558" x2="520.3754748879616" y1="286.55961183020185" y2="349.3780468360075"/><line fill="none" stroke="#000" stroke-linecap="round" x1="534.856579331558" x2="577.7716278077696" y1="286.55961183020185" y2="310.12392742741844"/><line fill="none" stroke="#000" stroke-linecap="round" x1="534.856579331558" x2="552.7102488217018" y1="286.55961183020185" y2="249.22717198428404"/><line fill="none" stroke="#000" stroke-linecap="round" x1="534.856579331558" x2="511.64242931579804" y1="286.55961183020185" y2="303.13427329325356"/><line fill="none" stroke="#000" stroke-linecap="round" x1="535.6548354234446" x2="505.2598471754034" y1="333.6257263994591" y2="347.8535783430931"/><line fill="none" stroke="#000" stroke-linecap="round" x1="535.6548354234446" x2="514.6590177630534" y1="333.6257263994591" y2="349.03243598919954"/><line fill="none" stroke="#000" stroke-linecap="round" x1="535.6548354234446" x2="500.4046269946369" y1="333.6257263994591" y2="349.8159099519031"/><line fill="none" stroke="#000" stroke-linecap="round" x1="535.6548354234446" x2="557.5178106488004" y1="333.6257263994591" y2="320.482534182387"/><line fill="none" stroke="#000" stroke-linecap="round" x1="535.6548354234446" x2="578.3691229887246" y1="333.6257263994591" y2="286.03220286951944"/><line fill="none" stroke="#000" stroke-linecap="round" x1="546.7489162053138" x2="517.5045956008443" y1="349.6965481710402" y2="337.03204445622237"/><line fill="none" stroke="#000" stroke-linecap="round" x1="546.7489162053138" x2="583.341283618903" y1="349.6965481710402" y2="341.5681375966413"/><line fill="none" stroke="#000" stroke-linecap="round" x1="546.7489162053138" x2="514.6590177630534" y1="349.6965481710402" y2="349.03243598919954"/><line fill="none" stroke="#000" stroke-linecap="round" x1="546.7489162053138" x2="529.8062723636347" y1="349.6965481710402" y2="335.69174467586197"/><line fill="none" stroke="#000" stroke-linecap="round" x1="546.7489162053138" x2="577.7463149144121" y1="349.6965481710402" y2="349.48762509743773"/><line fill="none" stroke="#000" stroke-linecap="round" x1="552.7102488217018" x2="534.856579331558" y1="249.22717198428404" y2="286.55961183020185"/><line fill="none" stroke="#000" stroke-linecap="round" x1="552.7102488217018" x2="550.8936363759412" y1="249.22717198428404" y2="232.41181569085464"/><line fill="none" stroke="#000" stroke-linecap="round" x1="552.7102488217018" x2="536.2912710395999" y1="249.22717198428404" y2="248.93401458471683"/><line fill="none" stroke="#000" stroke-linecap="round" x1="552.7102488217018" x2="554.6754224095595" y1="249.22717198428404" y2="209.34603502854083"/><line fill="none" stroke="#000" stroke-linecap="round" x1="552.7102488217018" x2="537.3937022271109" y1="249.22717198428404" y2="218.238473838495"/><line fill="none" stroke="#000" stroke-linecap="round" x1="511.00633245875946" x2="521.8040107410794" y1="349.86844344042254" y2="316.215380211097"/><line fill="none" stroke="#000" stroke-linecap="round" x1="511.00633245875946" x2="514.6590177630534" y1="349.86844344042254" y2="349.03243598919954"/><line fill="none" stroke="#000" stroke-linecap="round" x1="511.00633245875946" x2="546.7489162053138" y1="349.86844344042254" y2="349.6965481710402"/><line fill="none" stroke="#000" stroke-linecap="round" x1="511.00633245875946" x2="517.5045956008443" y1="349.86844344042254" y2="337.03204445622237"/><line fill="none" stroke="#000" stroke-linecap="round" x1="511.00633245875946" x2="520.3754748879616" y1="349.86844344042254" y2="349.3780468360075"/><line fill="none" stroke="#000" stroke-linecap="round" x1="494.13486701069354" x2="426.3558170777697" y1="311.9295647828358" y2="312.35316600337154"/><line fill="none" stroke="#000" stroke-linecap="round" x1="494.13486701069354" x2="505.0635508355302" y1="311.9295647828358" y2="349.0395266063407"/><line fill="none" stroke="#000" stroke-linecap="round" x1="494.13486701069354" x2="527.1416431234834" y1="311.9295647828358" y2="303.0706221407805"/><line fill="none" stroke="#000" stroke-linecap="round" x1="494.13486701069354" x2="532.9456999133989" y1="311.9295647828358" y2="271.2875566409179"/><line fill="none" stroke="#000" stroke-linecap="round" x1="494.13486701069354" x2="423.0466992752791" y1="311.9295647828358" y2="268.6492440952586"/><line fill="none" stroke="#000" stroke-linecap="round" x1="532.0514998804733" x2="506.7832125740529" y1="349.6313712483354" y2="329.3962680915905"/><line fill="none" stroke="#000" stroke-linecap="round" x1="532.0514998804733" x2="539.6787693316787" y1="349.6313712483354" y2="349.5632975705766"/><line fill="none" stroke="#000" stroke-linecap="round" x1="532.0514998804733" x2="556.6249708307498" y1="349.6313712483354" y2="349.17960974492064"/><line fill="none" stroke="#000" stroke-linecap="round" x1="532.0514998804733" x2="528.0203957918357" y1="349.6313712483354" y2="349.6278469790091"/><line fill="none" stroke="#000" stroke-linecap="round" x1="532.0514998804733" x2="557.5178106488004" y1="349.6313712483354" y2="320.482534182387"/><line fill="none" stroke="#000" stroke-linecap="round" x1="378.98723239434736" x2="438.8209759857706" y1="344.4342276035874" y2="349.9014655111757"/><line fill="none" stroke="#000" stroke-linecap="round" x1="378.98723239434736" x2="358.04529459044056" y1="344.4342276035874" y2="316.7797452265729"/><line fill="none" stroke="#000" stroke-linecap="round" x1="378.98723239434736" x2="378.59889733518486" y1="344.4342276035874" y2="315.82766008184785"/><line fill="none" stroke="#000" stroke-linecap="round" x1="378.98723239434736" x2="352.06378995044497" y1="344.4342276035874" y2="349.6525893087963"/><line fill="none" stroke="#000" stroke-linecap="round" x1="378.98723239434736" x2="385.7780605973321" y1="344.4342276035874" y2="333.88267207955937"/><line fill="none" stroke="#000" stroke-linecap="round" x1="520.3754748879616" x2="511.64242931579804" y1="349.3780468360075" y2="303.13427329325356"/><line fill="none" stroke="#000" stroke-linecap="round" x1="520.3754748879616" x2="490.94725141049025" y1="349.3780468360075" y2="349.7872094131994"/><line fill="none" stroke="#000" stroke-linecap="round" x1="520.3754748879616" x2="518.022730745834" y1="349.3780468360075" y2="336.25600235682276"/><line fill="none" stroke="#000" stroke-linecap="round" x1="520.3754748879616" x2="533.4655501054717" y1="349.3780468360075" y2="285.38612352359706"/><line fill="none" stroke="#000" stroke-linecap="round" x1="520.3754748879616" x2="517.5045956008443" y1="349.3780468360075" y2="337.03204445622237"/><line fill="none" stroke="#000" stroke-linecap="round" x1="458.26945026608763" x2="448.4648456489786" y1="323.7996022970025" y2="334.8685615196186"/><line fill="none" stroke="#000" stroke-linecap="round" x1="458.26945026608763" x2="416.1195205727874" y1="323.7996022970025" y2="328.82850562560196"/><line fill="none" stroke="#000" stroke-linecap="round" x1="458.26945026608763" x2="432.2426294085513" y1="323.7996022970025" y2="276.7272141480892"/><line fill="none" stroke="#000" stroke-linecap="round" x1="458.26945026608763" x2="459.9452571460967" y1="323.7996022970025" y2="348.7717889459356"/><line fill="none" stroke="#000" stroke-linecap="round" x1="458.26945026608763" x2="450.1926838334468" y1="323.7996022970025" y2="294.251896962087"/><line fill="none" stroke="#000" stroke-linecap="round" x1="517.5045956008443" x2="546.7489162053138" y1="337.03204445622237" y2="349.6965481710402"/><line fill="none" stroke="#000" stroke-linecap="round" x1="517.5045956008443" x2="520.3754748879616" y1="337.03204445622237" y2="349.3780468360075"/><line fill="none" stroke="#000" stroke-linecap="round" x1="517.5045956008443" x2="529.8062723636347" y1="337.03204445622237" y2="335.69174467586197"/><line fill="none" stroke="#000" stroke-linecap="round" x1="517.5045956008443" x2="518.022730745834" y1="337.03204445622237" y2="336.25600235682276"/><line fill="none" stroke="#000" stroke-linecap="round" x1="517.5045956008443" x2="535.6548354234446" y1="337.03204445622237" y2="333.6257263994591"/><line fill="none" stroke="#000" stroke-linecap="round" x1="529.8062723636347" x2="520.3754748879616" y1="335.69174467586197" y2="349.3780468360075"/><line fill="none" stroke="#000" stroke-linecap="round" x1="529.8062723636347" x2="521.8040107410794" y1="335.69174467586197" y2="316.215380211097"/><line fill="none" stroke="#000" stroke-linecap="round" x1="529.8062723636347" x2="505.2598471754034" y1="335.69174467586197" y2="347.8535783430931"/><line fill="none" stroke="#000" stroke-linecap="round" x1="529.8062723636347" x2="517.5045956008443" y1="335.69174467586197" y2="337.03204445622237"/><line fill="none" stroke="#000" stroke-linecap="round" x1="529.8062723636347" x2="518.022730745834" y1="335.69174467586197" y2="336.25600235682276"/><line fill="none" stroke="#000" stroke-linecap="round" x1="414.7652700811441" x2="391.40143041495554" y1="344.9109084933215" y2="349.89033311986003"/><line fill="none" stroke="#000" stroke-linecap="round" x1="414.7652700811441" x2="427.3316166200482" y1="344.9109084933215" y2="341.0593824953954"/><line fill="none" stroke="#000" stroke-linecap="round" x1="414.7652700811441" x2="404.81523356133215" y1="344.9109084933215" y2="349.7454962239473"/><line fill="none" stroke="#000" stroke-linecap="round" x1="414.7652700811441" x2="372.83495161644703" y1="344.9109084933215" y2="297.5283741915221"/><line fill="none" stroke="#000" stroke-linecap="round" x1="414.7652700811441" x2="410.4363322623547" y1="344.9109084933215" y2="278.5294966386262"/><line fill="none" stroke="#000" stroke-linecap="round" x1="500.4046269946369" x2="535.6548354234446" y1="349.8159099519031" y2="333.6257263994591"/><line fill="none" stroke="#000" stroke-linecap="round" x1="500.4046269946369" x2="506.7832125740529" y1="349.8159099519031" y2="329.3962680915905"/><line fill="none" stroke="#000" stroke-linecap="round" x1="500.4046269946369" x2="546.1690417376143" y1="349.8159099519031" y2="290.34973826708637"/><line fill="none" stroke="#000" stroke-linecap="round" x1="500.4046269946369" x2="539.6787693316787" y1="349.8159099519031" y2="349.5632975705766"/><line fill="none" stroke="#000" stroke-linecap="round" x1="500.4046269946369" x2="514.6590177630534" y1="349.8159099519031" y2="349.03243598919954"/><line fill="none" stroke="#000" stroke-linecap="round" x1="571.0145477031707" x2="611.3045374286708" y1="348.8699862655193" y2="309.91212360244276"/><line fill="none" stroke="#000" stroke-linecap="round" x1="571.0145477031707" x2="558.6558345382831" y1="348.8699862655193" y2="331.7798460683957"/><line fill="none" stroke="#000" stroke-linecap="round" x1="571.0145477031707" x2="514.6590177630534" y1="348.8699862655193" y2="349.03243598919954"/><line fill="none" stroke="#000" stroke-linecap="round" x1="571.0145477031707" x2="535.6548354234446" y1="348.8699862655193" y2="333.6257263994591"/><line fill="none" stroke="#000" stroke-linecap="round" x1="571.0145477031707" x2="546.7489162053138" y1="348.8699862655193" y2="349.6965481710402"/><line fill="none" stroke="#000" stroke-linecap="round" x1="-698.4993531580137" x2="-644.9365083471197" y1="346.9850434192166" y2="349.71800422888646"/><line fill="none" stroke="#000" stroke-linecap="round" x1="-698.4993531580137" x2="-684.7405175754778" y1="346.9850434192166" y2="349.8375904376834"/><line fill="none" stroke="#000" stroke-linecap="round" x1="-698.4993531580137" x2="-699.8133499470852" y1="346.9850434192166" y2="328.9509187088018"/><line fill="none" stroke="#000" stroke-linecap="round" x1="-698.4993531580137" x2="-680.6407268292836" y1="346.9850434192166" y2="329.90144697639295"/><line fill="none" stroke="#000" stroke-linecap="round" x1="-698.4993531580137" x2="-665.0351220660623" y1="346.9850434192166" y2="349.4062117213057"/><line fill="none" stroke="#000" stroke-linecap="round" x1="531.1738305642322" x2="505.2598471754034" y1="326.9908854629058" y2="347.8535783430931"/><line fill="none" stroke="#000" stroke-linecap="round" x1="531.1738305642322" x2="505.0635508355302" y1="326.9908854629058" y2="349.0395266063407"/><line fill="none" stroke="#000" stroke-linecap="round" x1="531.1738305642322" x2="527.1416431234834" y1="326.9908854629058" y2="303.0706221407805"/><line fill="none" stroke="#000" stroke-linecap="round" x1="531.1738305642322" x2="514.7834278743701" y1="326.9908854629058" y2="280.23223801748355"/><line fill="none" stroke="#000" stroke-linecap="round" x1="531.1738305642322" x2="535.6548354234446" y1="326.9908854629058" y2="333.6257263994591"/><line fill="none" stroke="#000" stroke-linecap="round" x1="518.022730745834" x2="505.2598471754034" y1="336.25600235682276" y2="347.8535783430931"/><line fill="none" stroke="#000" stroke-linecap="round" x1="518.022730745834" x2="520.3754748879616" y1="336.25600235682276" y2="349.3780468360075"/><line fill="none" stroke="#000" stroke-linecap="round" x1="518.022730745834" x2="529.8062723636347" y1="336.25600235682276" y2="335.69174467586197"/><line fill="none" stroke="#000" stroke-linecap="round" x1="518.022730745834" x2="494.13486701069354" y1="336.25600235682276" y2="311.9295647828358"/><line fill="none" stroke="#000" stroke-linecap="round" x1="518.022730745834" x2="558.6558345382831" y1="336.25600235682276" y2="331.7798460683957"/><line fill="none" stroke="#000" stroke-linecap="round" x1="505.2598471754034" x2="518.022730745834" y1="347.8535783430931" y2="336.25600235682276"/><line fill="none" stroke="#000" stroke-linecap="round" x1="505.2598471754034" x2="535.6548354234446" y1="347.8535783430931" y2="333.6257263994591"/><line fill="none" stroke="#000" stroke-linecap="round" x1="505.2598471754034" x2="500.29583456052524" y1="347.8535783430931" y2="302.50543764845463"/><line fill="none" stroke="#000" stroke-linecap="round" x1="505.2598471754034" x2="505.0635508355302" y1="347.8535783430931" y2="349.0395266063407"/><line fill="none" stroke="#000" stroke-linecap="round" x1="505.2598471754034" x2="531.1738305642322" y1="347.8535783430931" y2="326.9908854629058"/><line fill="none" stroke="#000" stroke-linecap="round" x1="511.64242931579804" x2="583.341283618903" y1="303.13427329325356" y2="341.5681375966413"/><line fill="none" stroke="#000" stroke-linecap="round" x1="511.64242931579804" x2="512.6379175019846" y1="303.13427329325356" y2="259.32812183094256"/><line fill="none" stroke="#000" stroke-linecap="round" x1="511.64242931579804" x2="501.52981972089833" y1="303.13427329325356" y2="242.5051570585224"/><line fill="none" stroke="#000" stroke-linecap="round" x1="511.64242931579804" x2="466.4131704633565" y1="303.13427329325356" y2="256.861412531792"/><line fill="none" stroke="#000" stroke-linecap="round" x1="511.64242931579804" x2="518.5394465739865" y1="303.13427329325356" y2="296.89476240442815"/><line fill="none" stroke="#000" stroke-linecap="round" x1="577.7716278077696" x2="592.9540063033942" y1="310.12392742741844" y2="298.735906363833"/><line fill="none" stroke="#000" stroke-linecap="round" x1="577.7716278077696" x2="559.2919071663655" y1="310.12392742741844" y2="286.58258141371664"/><line fill="none" stroke="#000" stroke-linecap="round" x1="577.7716278077696" x2="614.3008225277315" y1="310.12392742741844" y2="328.5250142836614"/><line fill="none" stroke="#000" stroke-linecap="round" x1="577.7716278077696" x2="511.64242931579804" y1="310.12392742741844" y2="303.13427329325356"/><line fill="none" stroke="#000" stroke-linecap="round" x1="577.7716278077696" x2="597.769839697721" y1="310.12392742741844" y2="322.4578155471182"/><line fill="none" stroke="#000" stroke-linecap="round" x1="502.05498904962974" x2="514.7834278743701" y1="278.9225833921953" y2="280.23223801748355"/><line fill="none" stroke="#000" stroke-linecap="round" x1="502.05498904962974" x2="500.29583456052524" y1="278.9225833921953" y2="302.50543764845463"/><line fill="none" stroke="#000" stroke-linecap="round" x1="502.05498904962974" x2="486.63546468996265" y1="278.9225833921953" y2="312.3793024519023"/><line fill="none" stroke="#000" stroke-linecap="round" x1="502.05498904962974" x2="474.2553313929253" y1="278.9225833921953" y2="197.6740230328892"/><line fill="none" stroke="#000" stroke-linecap="round" x1="502.05498904962974" x2="539.4559581321244" y1="278.9225833921953" y2="301.7254388843186"/><line fill="none" stroke="#000" stroke-linecap="round" x1="521.8040107410794" x2="519.8333060614724" y1="316.215380211097" y2="239.6627347943739"/><line fill="none" stroke="#000" stroke-linecap="round" x1="521.8040107410794" x2="500.29583456052524" y1="316.215380211097" y2="302.50543764845463"/><line fill="none" stroke="#000" stroke-linecap="round" x1="521.8040107410794" x2="557.7985709983308" y1="316.215380211097" y2="276.6364249987514"/><line fill="none" stroke="#000" stroke-linecap="round" x1="521.8040107410794" x2="414.7652700811441" y1="316.215380211097" y2="344.9109084933215"/><line fill="none" stroke="#000" stroke-linecap="round" x1="521.8040107410794" x2="511.00633245875946" y1="316.215380211097" y2="349.86844344042254"/><line fill="none" stroke="#000" stroke-linecap="round" x1="558.6558345382831" x2="571.0145477031707" y1="331.7798460683957" y2="348.8699862655193"/><line fill="none" stroke="#000" stroke-linecap="round" x1="558.6558345382831" x2="546.7489162053138" y1="331.7798460683957" y2="349.6965481710402"/><line fill="none" stroke="#000" stroke-linecap="round" x1="558.6558345382831" x2="521.8040107410794" y1="331.7798460683957" y2="316.215380211097"/><line fill="none" stroke="#000" stroke-linecap="round" x1="558.6558345382831" x2="518.022730745834" y1="331.7798460683957" y2="336.25600235682276"/><line fill="none" stroke="#000" stroke-linecap="round" x1="558.6558345382831" x2="559.2919071663655" y1="331.7798460683957" y2="286.58258141371664"/><line fill="none" stroke="#000" stroke-linecap="round" x1="426.3558170777697" x2="494.13486701069354" y1="312.35316600337154" y2="311.9295647828358"/><line fill="none" stroke="#000" stroke-linecap="round" x1="426.3558170777697" x2="423.0466992752791" y1="312.35316600337154" y2="268.6492440952586"/><line fill="none" stroke="#000" stroke-linecap="round" x1="426.3558170777697" x2="411.92840515955794" y1="312.35316600337154" y2="294.71084884081074"/><line fill="none" stroke="#000" stroke-linecap="round" x1="426.3558170777697" x2="378.98723239434736" y1="312.35316600337154" y2="344.4342276035874"/><line fill="none" stroke="#000" stroke-linecap="round" x1="426.3558170777697" x2="347.2425028465508" y1="312.35316600337154" y2="329.68544713167535"/><line fill="none" stroke="#000" stroke-linecap="round" x1="514.6590177630534" x2="535.6548354234446" y1="349.03243598919954" y2="333.6257263994591"/><line fill="none" stroke="#000" stroke-linecap="round" x1="514.6590177630534" x2="488.83561832105465" y1="349.03243598919954" y2="349.2487593859408"/><line fill="none" stroke="#000" stroke-linecap="round" x1="514.6590177630534" x2="500.4046269946369" y1="349.03243598919954" y2="349.8159099519031"/><line fill="none" stroke="#000" stroke-linecap="round" x1="514.6590177630534" x2="571.0145477031707" y1="349.03243598919954" y2="348.8699862655193"/><line fill="none" stroke="#000" stroke-linecap="round" x1="514.6590177630534" x2="511.00633245875946" y1="349.03243598919954" y2="349.86844344042254"/><line fill="none" stroke="#000" stroke-linecap="round" x1="539.6787693316787" x2="506.7832125740529" y1="349.5632975705766" y2="329.3962680915905"/><line fill="none" stroke="#000" stroke-linecap="round" x1="539.6787693316787" x2="528.0203957918357" y1="349.5632975705766" y2="349.6278469790091"/><line fill="none" stroke="#000" stroke-linecap="round" x1="539.6787693316787" x2="556.6249708307498" y1="349.5632975705766" y2="349.17960974492064"/><line fill="none" stroke="#000" stroke-linecap="round" x1="539.6787693316787" x2="488.83561832105465" y1="349.5632975705766" y2="349.2487593859408"/><line fill="none" stroke="#000" stroke-linecap="round" x1="539.6787693316787" x2="500.4046269946369" y1="349.5632975705766" y2="349.8159099519031"/><line fill="none" stroke="#000" stroke-linecap="round" x1="528.0203957918357" x2="539.6787693316787" y1="349.6278469790091" y2="349.5632975705766"/><line fill="none" stroke="#000" stroke-linecap="round" x1="528.0203957918357" x2="506.7832125740529" y1="349.6278469790091" y2="329.3962680915905"/><line fill="none" stroke="#000" stroke-linecap="round" x1="528.0203957918357" x2="556.6249708307498" y1="349.6278469790091" y2="349.17960974492064"/><line fill="none" stroke="#000" stroke-linecap="round" x1="528.0203957918357" x2="488.83561832105465" y1="349.6278469790091" y2="349.2487593859408"/><line fill="none" stroke="#000" stroke-linecap="round" x1="528.0203957918357" x2="531.1738305642322" y1="349.6278469790091" y2="326.9908854629058"/></svg>