<?xml version="1.0" ?><!DOCTYPE svg  PUBLIC '-//W3C//DTD SVG 1.1//EN'  'http://www.w3.org/Graphics/SVG/1.1/DTD/svg11.dtd'><svg height="307.000" viewBox="-127.000 -159.000 234.000 307.000" width="234.000" xmlns="http://www.w3.org/2000/svg"><line fill="none" stroke="none" stroke-linecap="round" stroke-width="2.0" x1="0.0" x2="0.0" y1="0.0" y2="0.0"/><polygon fill="none" fill-rule="evenodd" points="0.0,0.0 0.0,0.0 0.0,0.0" stroke-linejoin="round"/><line fill="none" stroke="none" stroke-linecap="round" stroke-width="2.0" x1="0.0" x2="0.0" y1="0.0" y2="0.0"/><line fill="none" stroke="none" stroke-linecap="round" stroke-width="2.0" x1="0.0" x2="0.0" y1="0.0" y2="0.0"/><polygon fill="none" fill-rule="evenodd" points="0.0,0.0 0.0,0.0 0.0,0.0" stroke-linejoin="round"/><line fill="none" stroke="none" stroke-linecap="round" stroke-width="2.0" x1="0.0" x2="0.0" y1="0.0" y2="0.0"/><line fill="none" stroke="none" stroke-linecap="round" stroke-width="2.0" x1="0.0" x2="0.0" y1="0.0" y2="0.0"/><polygon fill="none" fill-rule="evenodd" points="0.0,0.0 0.0,0.0 0.0,0.0" stroke-linejoin="round"/><line fill="none" stroke="none" stroke-linecap="round" stroke-width="2.0" x1="0.0" x2="0.0" y1="0.0" y2="0.0"/><line fill="none" stroke="none" stroke-linecap="round" stroke-width="2.0" x1="0.0" x2="0.0" y1="0.0" y2="0.0"/><polygon fill="none" fill-rule="evenodd" points="0.0,0.0 0.0,0.0 0.0,0.0" stroke-linejoin="round"/><line fill="none" stroke="none" stroke-linecap="round" stroke-width="2.0" x1="0.0" x2="0.0" y1="0.0" y2="0.0"/><line fill="none" stroke="none" stroke-linecap="round" stroke-width="2.0" x1="0.0" x2="0.0" y1="0.0" y2="0.0"/><polygon fill="none" fill-rule="evenodd" points="0.0,0.0 0.0,0.0 0.0,0.0" stroke-linejoin="round"/><line fill="none" stroke="none" stroke-linecap="round" stroke-width="2.0" x1="0.0" x2="0.0" y1="0.0" y2="0.0"/><line fill="none" stroke="none" stroke-linecap="round" stroke-width="2.0" x1="0.0" x2="0.0" y1="0.0" y2="0.0"/><polygon fill="none" fill-rule="evenodd" points="0.0,0.0 0.0,0.0 0.0,0.0" stroke-linejoin="round"/><line fill="none" stroke="none" stroke-linecap="round" stroke-width="2.0" x1="0.0" x2="0.0" y1="0.0" y2="0.0"/><line fill="none" stroke="none" stroke-linecap="round" stroke-width="2.0" x1="0.0" x2="0.0" y1="0.0" y2="0.0"/><polygon fill="none" fill-rule="evenodd" points="0.0,0.0 0.0,0.0 0.0,0.0" stroke-linejoin="round"/><line fill="none" stroke="none" stroke-linecap="round" stroke-width="2.0" x1="0.0" x2="0.0" y1="0.0" y2="0.0"/><line fill="none" stroke="none" stroke-linecap="round" stroke-width="2.0" x1="0.0" x2="0.0" y1="0.0" y2="0.0"/><polygon fill="none" fill-rule="evenodd" points="0.0,0.0 0.0,0.0 0.0,0.0" stroke-linejoin="round"/><polyline fill="none" points="-48.4610344830604,91.13878764322868 -45.9610344830604,90.46891466215088 -44.13090746413821,88.63878764322868 -43.4610344830604,86.13878764322868 -44.13090746413821,83.63878764322868 -45.9610344830604,81.80866062430648 -48.4610344830604,81.13878764322868 -50.9610344830604,81.80866062430648 -52.79116150198259,83.63878764322868 -53.4610344830604,86.13878764322868 -52.7911615019826,88.63878764322868 -50.96103448306041,90.46891466215088 -48.46103448306041,91.1387876432287" stroke="#ffa500" stroke-linecap="round" stroke-linejoin="round"/><polyline fill="none" points="-56.52015837863145,-54.641230016947645 -54.02015837863145,-55.31110299802545 -52.19003135970925,-57.14123001694764 -51.52015837863144,-59.64123001694764 -52.190031359709245,-62.14123001694764 -54.020158378631436,-63.971357035869836 -56.520158378631436,-64.64123001694765 -59.020158378631436,-63.97135703586984 -60.850285397553634,-62.14123001694765 -61.52015837863144,-59.64123001694765 -60.85028539755364,-57.14123001694765 -59.02015837863145,-55.311102998025454 -56.52015837863145,-54.641230016947645" stroke="#00f" stroke-linecap="round" stroke-linejoin="round"/><polyline fill="none" points="74.74188936311849,95.58136096684383 77.24188936311849,94.91148798576603 79.07201638204069,93.08136096684385 79.7418893631185,90.58136096684385 79.0720163820407,88.08136096684385 77.24188936311852,86.25123394792165 74.74188936311852,85.58136096684383 72.24188936311852,86.25123394792163 70.41176234419632,88.08136096684382 69.7418893631185,90.58136096684382 70.4117623441963,93.08136096684382 72.24188936311849,94.91148798576602 74.74188936311849,95.58136096684383" stroke="#00f" stroke-linecap="round" stroke-linejoin="round"/><polyline fill="none" points="-19.311446134115283,-8.409453349234795 -16.81144613411528,-9.079326330312593 -14.981319115193077,-10.909453349234782 -14.311446134115261,-13.409453349234782 -14.98131911519306,-15.909453349234788 -16.811446134115247,-17.73958036815699 -19.311446134115247,-18.409453349234806 -21.81144613411525,-17.739580368157007 -23.641573153037452,-15.90945334923482 -24.31144613411527,-13.40945334923482 -23.64157315303747,-10.909453349234814 -21.811446134115283,-9.079326330312613 -19.311446134115283,-8.409453349234795" stroke="#00f" stroke-linecap="round" stroke-linejoin="round"/><polyline fill="none" points="-28.961180106298613,24.52607610054561 -26.461180106298606,23.85620311946781 -24.631053087376404,22.026076100545623 -23.961180106298585,19.526076100545623 -24.63105308737638,17.026076100545616 -26.461180106298567,15.195949081623413 -28.961180106298567,14.526076100545593 -31.461180106298574,15.19594908162339 -33.291307125220776,17.026076100545577 -33.9611801062986,19.526076100545577 -33.291307125220804,22.026076100545584 -31.461180106298617,23.85620311946779 -28.961180106298617,24.52607610054561" stroke="#00f" stroke-linecap="round" stroke-linejoin="round"/><polyline fill="none" points="-110.68904125727236,35.45804966233251 -108.18904125727236,34.78817668125472 -106.35891423835017,32.958049662332535 -105.68904125727235,30.458049662332535 -106.35891423835014,27.958049662332527 -108.18904125727232,26.127922643410322 -110.68904125727232,25.4580496623325 -113.18904125727232,26.127922643410294 -115.01916827619453,27.958049662332478 -115.68904125727235,30.458049662332478 -115.01916827619456,32.958049662332485 -113.18904125727238,34.78817668125469 -110.68904125727238,35.45804966233251" stroke="#ffa500" stroke-linecap="round" stroke-linejoin="round"/><polyline fill="none" points="61.17166645328962,-30.269638696166865 63.671666453289625,-30.939511677244656 65.50179347221183,-32.769638696166844 66.17166645328966,-35.269638696166844 65.50179347221187,-37.76963869616685 63.67166645328969,-39.599765715089056 61.17166645328969,-40.26963869616688 58.67166645328968,-39.59976571508909 56.84153943436747,-37.76963869616691 56.171666453289646,-35.26963869616691 56.841539434367434,-32.7696386961669 58.67166645328962,-30.939511677244692 61.17166645328962,-30.269638696166865" stroke="#ffa500" stroke-linecap="round" stroke-linejoin="round"/><polyline fill="none" points="73.81166881479093,128.76861986401178 76.31166881479095,128.098746882934 78.14179583371316,126.26861986401181 78.81166881479099,123.76861986401181 78.1417958337132,121.2686198640118 76.31166881479102,119.43849284508958 73.81166881479102,118.76861986401175 71.311668814791,119.43849284508954 69.4815417958688,121.26861986401173 68.81166881479096,123.76861986401173 69.48154179586875,126.26861986401174 71.31166881479093,128.09874688293394 73.81166881479093,128.76861986401175" stroke="#ffa500" stroke-linecap="round" stroke-linejoin="round"/><polyline fill="none" points="-22.359773172269108,-136.6905653907118 -19.859773172269097,-137.3604383717896 -18.029646153346885,-139.19056539071178 -17.359773172269055,-141.69056539071178 -18.029646153346842,-144.19056539071178 -19.859773172269023,-146.020692409634 -22.359773172269023,-146.6905653907118 -24.859773172269033,-146.02069240963402 -26.689900191191246,-144.19056539071184 -27.359773172269076,-141.69056539071184 -26.689900191191292,-139.19056539071184 -24.85977317226911,-137.36043837178963 -22.35977317226911,-136.69056539071178" stroke="#ffa500" stroke-linecap="round" stroke-linejoin="round"/><polyline fill="none" points="54.07707619735947,67.84070702103865 56.57707619735948,67.17083403996087 58.407203216281694,65.34070702103868 59.077076197359524,62.84070702103868 58.40720321628174,60.34070702103867 56.57707619735956,58.510580002116455 54.07707619735956,57.840707021038625 51.577076197359546,58.510580002116406 49.746949178437326,60.34070702103858 49.077076197359496,62.84070702103858 49.746949178437276,65.3407070210386 51.57707619735945,67.17083403996081 54.07707619735945,67.84070702103864" stroke="#00f" stroke-linecap="round" stroke-linejoin="round"/><polyline fill="none" points="-61.15721234211175,73.35443347028931 -58.657212342111734,72.68456048921152 -56.827085323189515,70.85443347028934 -56.15721234211168,68.35443347028934 -56.82708532318946,65.85443347028932 -58.657212342111634,64.02430645136711 -61.157212342111634,63.35443347028927 -63.65721234211165,64.02430645136705 -65.48733936103386,65.85443347028924 -66.15721234211169,68.35443347028924 -65.4873393610339,70.85443347028925 -63.65721234211173,72.68456048921146 -61.15721234211173,73.3544334702893" stroke="#ffa500" stroke-linecap="round" stroke-linejoin="round"/><polyline fill="none" points="-28.914833777793337,4.813420878860419 -26.414833777793323,4.143547897782638 -24.584706758871103,2.3134208788604607 -23.914833777793266,-0.18657912113953934 -24.584706758871047,-2.6865791211395544 -26.414833777793223,-4.516706140061775 -28.914833777793223,-5.186579121139613 -31.414833777793238,-4.516706140061833 -33.24496079671546,-2.6865791211396566 -33.9148337777933,-0.18657912113965658 -33.24496079671552,2.3134208788603594 -31.41483377779334,4.143547897782581 -28.91483377779334,4.81342087886042" stroke="#00f" stroke-linecap="round" stroke-linejoin="round"/><polyline fill="none" points="-37.96441603756389,-128.03701340674294 -35.46441603756388,-128.70688638782073 -33.63428901864166,-130.53701340674291 -32.96441603756382,-133.03701340674291 -33.6342890186416,-135.53701340674294 -35.46441603756378,-137.36714042566516 -37.96441603756378,-138.037013406743 -40.464416037563794,-137.3671404256652 -42.29454305648601,-135.53701340674303 -42.96441603756386,-133.03701340674303 -42.294543056486084,-130.537013406743 -40.46441603756391,-128.7068863878208 -37.96441603756391,-128.03701340674294" stroke="#00f" stroke-linecap="round" stroke-linejoin="round"/><polyline fill="none" points="3.873319751283334,-20.960361148197258 6.373319751283352,-21.630234129275035 8.203446770205577,-23.46036114819721 8.87331975128342,-25.96036114819721 8.203446770205645,-28.46036114819723 6.37331975128347,-30.290488167119452 3.8733197512834696,-30.960361148197297 1.373319751283451,-30.290488167119523 -0.45680726763877444,-28.46036114819735 -1.1266802487166183,-25.96036114819735 -0.4568072676388436,-23.460361148197332 1.3733197512833315,-21.630234129275106 3.8733197512833324,-20.96036114819726" stroke="#00f" stroke-linecap="round" stroke-linejoin="round"/><polyline fill="none" points="-25.139653759292923,12.00791811882442 -22.6396537592929,11.338045137746645 -20.809526740370675,9.50791811882447 -20.13965375929283,7.007918118824469 -20.809526740370604,4.507918118824448 -22.639653759292777,2.6777910999022208 -25.139653759292777,2.007918118824375 -27.6396537592928,2.6777910999021484 -29.469780778215025,4.507918118824323 -30.139653759292873,7.007918118824325 -29.4697807782151,9.507918118824346 -27.639653759292926,11.338045137746574 -25.139653759292926,12.00791811882442" stroke="#00f" stroke-linecap="round" stroke-linejoin="round"/><polyline fill="none" points="46.475041466739064,-20.565009141076818 48.975041466739086,-21.23488212215459 50.80516848566131,-23.065009141076764 51.47504146673916,-25.565009141076768 50.80516848566138,-28.06500914107679 48.975041466739206,-29.89513615999902 46.475041466739206,-30.565009141076867 43.975041466739185,-29.895136159999097 42.14491444781695,-28.065009141076924 41.4750414667391,-25.56500914107692 42.14491444781687,-23.065009141076896 43.97504146673905,-21.234882122154666 46.47504146673905,-20.565009141076814" stroke="#00f" stroke-linecap="round" stroke-linejoin="round"/><polyline fill="none" points="-40.54161641608267,-67.30114826991287 -38.04161641608265,-67.97102125099065 -36.21148939716041,-69.80114826991282 -35.54161641608256,-72.30114826991282 -36.21148939716033,-74.80114826991284 -38.0416164160825,-76.63127528883507 -40.5416164160825,-77.30114826991291 -43.04161641608252,-76.63127528883514 -44.87174343500475,-74.80114826991297 -45.541616416082604,-72.30114826991297 -44.87174343500484,-69.80114826991294 -43.04161641608267,-67.97102125099072 -40.54161641608267,-67.30114826991286" stroke="#ffa500" stroke-linecap="round" stroke-linejoin="round"/><polyline fill="none" points="-78.2787906183563,-70.57559708649596 -75.77879061835627,-71.24547006757373 -73.94866359943404,-73.0755970864959 -73.27879061835618,-75.5755970864959 -73.94866359943396,-78.07559708649593 -75.77879061835613,-79.90572410541817 -78.27879061835613,-80.57559708649603 -80.77879061835615,-79.90572410541826 -82.6089176372784,-78.07559708649609 -83.27879061835625,-75.57559708649609 -82.6089176372785,-73.07559708649606 -80.77879061835633,-71.24547006757382 -78.27879061835633,-70.57559708649596" stroke="#ffa500" stroke-linecap="round" stroke-linejoin="round"/><polyline fill="none" points="36.67235551726981,-12.139106703336711 39.172355517269835,-12.808979684414478 41.00248253619207,-14.639106703336648 41.67235551726993,-17.13910670333665 41.00248253619216,-19.639106703336676 39.17235551726999,-21.469233722258913 36.67235551726999,-22.13910670333677 34.17235551726996,-21.469233722259006 32.34222849834772,-19.639106703336836 31.672355517269864,-17.139106703336836 32.34222849834763,-14.63910670333681 34.1723555172698,-12.80897968441457 36.6723555172698,-12.139106703336711" stroke="#00f" stroke-linecap="round" stroke-linejoin="round"/><polyline fill="none" points="-15.968059738473507,42.976164972421614 -13.46805973847348,42.30629199134385 -11.637932719551241,40.47616497242168 -10.968059738473382,37.97616497242168 -11.637932719551145,35.47616497242165 -13.468059738473313,33.64603795349941 -15.968059738473315,32.97616497242155 -18.468059738473343,33.64603795349931 -20.298186757395584,35.47616497242148 -20.968059738473443,37.97616497242148 -20.29818675739568,40.47616497242151 -18.46805973847351,42.30629199134375 -15.968059738473508,42.97616497242161" stroke="#00f" stroke-linecap="round" stroke-linejoin="round"/><polyline fill="none" points="-12.77338643247144,135.94089992087805 -10.273386432471412,135.2710269398003 -8.443259413549171,133.44089992087814 -7.773386432471311,130.94089992087814 -8.443259413549072,128.4408999208781 -10.273386432471238,126.61077290195587 -12.77338643247124,125.94089992087801 -15.273386432471268,126.61077290195577 -17.10351345139351,128.44089992087794 -17.773386432471373,130.94089992087794 -17.103513451393614,133.44089992087797 -15.273386432471447,135.2710269398002 -12.773386432471446,135.94089992087808" stroke="#ffa500" stroke-linecap="round" stroke-linejoin="round"/><polyline fill="none" points="7.119659318095167,-80.13092333959705 9.619659318095197,-80.8007963206748 11.44978633701744,-82.63092333959698 12.119659318095303,-85.13092333959698 11.449786337017546,-87.630923339597 9.61965931809538,-89.46105035851924 7.119659318095378,-90.1309233395971 4.619659318095348,-89.46105035851934 2.789532299173103,-87.63092333959717 2.1196593180952377,-85.13092333959717 2.7895322991729947,-82.63092333959715 4.6196593180951595,-80.8007963206749 7.119659318095161,-80.13092333959703" stroke="#ffa500" stroke-linecap="round" stroke-linejoin="round"/><polyline fill="none" points="-42.78400292445701,31.392663098357858 -40.284002924456985,30.722790117280102 -38.45387590553474,28.892663098357936 -37.78400292445687,26.392663098357936 -38.45387590553462,23.892663098357904 -40.284002924456786,22.062536079435656 -42.784002924456786,21.39266309835779 -45.284002924456814,22.062536079435546 -47.11412994337906,23.89266309835771 -47.78400292445693,26.39266309835771 -47.114129943379176,28.89266309835774 -45.28400292445701,30.722790117279988 -42.78400292445701,31.392663098357858" stroke="#00f" stroke-linecap="round" stroke-linejoin="round"/><polyline fill="none" points="52.920194012309395,127.77435869210429 55.42019401230943,127.10448571102653 57.25032103123168,125.27435869210436 57.920194012309544,122.77435869210436 57.25032103123179,120.27435869210433 55.42019401230963,118.44423167318207 52.92019401230963,117.7743586921042 50.420194012309594,118.44423167318196 48.590066993387346,120.27435869210413 47.92019401230947,122.77435869210413 48.590066993387225,125.27435869210416 50.42019401230939,127.10448571102641 52.92019401230939,127.77435869210429" stroke="#ffa500" stroke-linecap="round" stroke-linejoin="round"/><polyline fill="none" points="-3.067185613028962,119.56507610732282 -0.5671856130289279,118.89520312624508 1.2629414058933228,117.06507610732291 1.9328143869711947,114.56507610732291 1.2629414058934434,112.06507610732288 -0.5671856130287187,110.23494908840063 -3.0671856130287205,109.56507610732275 -5.567185613028755,110.2349490884005 -7.3973126319510065,112.06507610732265 -8.06718561302888,114.56507610732265 -7.397312631951129,117.06507610732268 -5.567185613028968,118.89520312624494 -3.0671856130289665,119.56507610732281" stroke="#ffa500" stroke-linecap="round" stroke-linejoin="round"/><polyline fill="none" points="35.66429836717421,25.40182856546925 38.16429836717425,24.7319555843915 39.9944253860965,22.901828565469337 40.664298367174375,20.401828565469337 39.99442538609662,17.9018285654693 38.16429836717446,16.071701546547047 35.66429836717446,15.401828565469172 33.164298367174425,16.07170154654692 31.33417134825217,17.901828565469078 30.664298367174293,20.40182856546908 31.334171348252042,22.901828565469117 33.164298367174204,24.731955584391372 35.664298367174204,25.40182856546925" stroke="#00f" stroke-linecap="round" stroke-linejoin="round"/><polyline fill="none" points="-32.2499651825548,-32.07866027904549 -29.749965182554767,-32.74853326012323 -27.919838163632512,-34.578660279045394 -27.249965182554636,-37.078660279045394 -27.91983816363238,-39.57866027904543 -29.74996518255454,-41.408787297967685 -32.24996518255454,-42.078660279045565 -34.749965182554575,-41.40878729796782 -36.58009220147683,-39.578660279045664 -37.24996518255471,-37.078660279045664 -36.580092201476965,-34.57866027904563 -34.74996518255481,-32.748533260123374 -32.24996518255481,-32.078660279045494" stroke="#00f" stroke-linecap="round" stroke-linejoin="round"/><polyline fill="none" points="-25.447093594336838,14.452634206528002 -22.9470935943368,13.782761225450257 -21.11696657541454,11.952634206528097 -20.44709359433666,9.452634206528096 -21.116966575414406,6.9526342065280575 -22.947093594336565,5.1225071876058 -25.447093594336565,4.452634206527919 -27.947093594336604,5.122507187605662 -29.777220613258862,6.9526342065278195 -30.447093594336742,9.452634206527822 -29.777220613259,11.952634206527861 -27.94709359433684,13.78276122545012 -25.44709359433684,14.452634206528002" stroke="#008000" stroke-linecap="round" stroke-linejoin="round"/><polyline fill="none" points="-24.88589129334826,-21.967494964007706 -22.38589129334822,-22.637367945085447 -20.55576427442596,-24.467494964007603 -19.885891293348077,-26.967494964007603 -20.55576427442582,-29.467494964007642 -22.385891293347974,-31.2976219829299 -24.885891293347974,-31.967494964007784 -27.385891293348013,-31.297621982930043 -29.216018312270275,-29.467494964007887 -29.88589129334816,-26.967494964007884 -29.216018312270418,-24.467494964007845 -27.385891293348262,-22.637367945085582 -24.88589129334826,-21.9674949640077" stroke="#00f" stroke-linecap="round" stroke-linejoin="round"/><polyline fill="none" points="-37.49019747778453,20.433860748520022 -34.990197477784484,19.763987767442284 -33.16007045886222,17.93386074852013 -32.490197477784335,15.433860748520127 -33.16007045886207,12.933860748520086 -34.99019747778423,11.103733729597824 -37.49019747778423,10.433860748519937 -39.99019747778427,11.103733729597675 -41.82032449670653,12.933860748519828 -42.49019747778442,15.43386074851983 -41.82032449670668,17.933860748519873 -39.99019747778453,19.76398776744214 -37.49019747778453,20.433860748520026" stroke="#ffa500" stroke-linecap="round" stroke-linejoin="round"/><polyline fill="none" points="-46.422251238243994,117.23499313002715 -43.92225123824395,116.56512014894942 -42.09212421932169,114.73499313002726 -41.4222512382438,112.23499313002726 -42.09212421932154,109.73499313002722 -43.922251238243696,107.90486611110495 -46.422251238243696,107.23499313002706 -48.92225123824374,107.9048661111048 -50.75237825716601,109.73499313002695 -51.422251238243895,112.23499313002695 -50.75237825716616,114.734993130027 -48.922251238244,116.56512014894926 -46.422251238244,117.23499313002715" stroke="#ffa500" stroke-linecap="round" stroke-linejoin="round"/><polyline fill="none" points="-19.23371663021651,-15.694967540963894 -16.733716630216467,-16.36484052204163 -14.9035896112942,-18.19496754096378 -14.233716630216307,-20.69496754096378 -14.903589611294041,-23.194967540963823 -16.733716630216193,-25.025094559886092 -19.233716630216193,-25.694967540963987 -21.733716630216236,-25.025094559886252 -23.563843649138505,-23.1949675409641 -24.2337166302164,-20.6949675409641 -23.56384364913867,-18.194967540964054 -21.733716630216517,-16.364840522041785 -19.233716630216513,-15.69496754096389" stroke="#ffa500" stroke-linecap="round" stroke-linejoin="round"/><polyline fill="none" points="-57.29854234958666,7.788283567915747 -54.79854234958662,7.118410586838015 -52.96841533066435,5.288283567915865 -52.298542349586455,2.7882835679158635 -52.968415330664186,0.2882835679158178 -54.798542349586334,-1.5418434510064534 -57.298542349586334,-2.211716432084349 -59.798542349586384,-1.5418434510066188 -61.62866936850865,0.28828356791553134 -62.29854234958655,2.788283567915533 -61.62866936850882,5.288283567915579 -59.79854234958667,7.118410586837852 -57.29854234958667,7.788283567915749" stroke="#ffa500" stroke-linecap="round" stroke-linejoin="round"/><polyline fill="none" points="-17.03560564027558,9.991471231357723 -14.535605640275534,9.321598250279994 -12.705478621353262,7.491471231357845 -12.035605640275364,4.991471231357843 -12.705478621353093,2.491471231357796 -14.535605640275243,0.6613442124355227 -17.035605640275243,-0.008528768642375506 -19.53560564027529,0.6613442124353528 -21.365732659197562,2.491471231357502 -22.03560564027546,4.991471231357504 -21.365732659197732,7.491471231357551 -19.535605640275584,9.321598250279825 -17.035605640275584,9.991471231357725" stroke="#008000" stroke-linecap="round" stroke-linejoin="round"/><polyline fill="none" points="-29.94563621157504,25.34022304670597 -27.445636211574993,24.67035006562824 -25.615509192652716,22.840223046706093 -24.945636211574815,20.340223046706093 -25.615509192652542,17.840223046706043 -27.44563621157469,16.010096027783767 -29.945636211574694,15.340223046705866 -32.445636211574744,16.010096027783593 -34.27576323049702,17.84022304670574 -34.94563621157492,20.340223046705745 -34.2757632304972,22.840223046705795 -32.44563621157505,24.67035006562807 -29.94563621157505,25.340223046705972" stroke="#008000" stroke-linecap="round" stroke-linejoin="round"/><polyline fill="none" points="87.34723842550169,70.32434930981319 89.84723842550173,69.65447632873546 91.67736544442401,67.82434930981331 92.34723842550191,65.32434930981331 91.67736544442418,62.824349309813265 89.84723842550204,60.99422229089099 87.34723842550204,60.32434930981309 84.84723842550198,60.99422229089081 83.0171114065797,62.82434930981296 82.3472384255018,65.32434930981296 83.01711140657952,67.82434930981302 84.84723842550166,69.6544763287353 87.34723842550166,70.3243493098132" stroke="#ffa500" stroke-linecap="round" stroke-linejoin="round"/><polyline fill="none" points="-4.2255821771686435,74.69726492651674 -1.7255821771685924,74.02739194543902 0.10454484175368717,72.19726492651688 0.7744178228315926,69.69726492651688 0.10454484175387013,67.19726492651682 -1.7255821771682756,65.36713790759454 -4.2255821771682776,64.69726492651664 -6.725582177168329,65.36713790759435 -8.555709196090609,67.1972649265165 -9.225582177168516,69.6972649265165 -8.555709196090794,72.19726492651655 -6.725582177168649,74.02739194543884 -4.225582177168647,74.69726492651674" stroke="#ffa500" stroke-linecap="round" stroke-linejoin="round"/><polyline fill="none" points="89.31736378743726,108.45683034292415 91.81736378743732,107.78695736184643 93.6474908063596,105.95683034292429 94.3173637874375,103.45683034292429 93.64749080635978,100.95683034292423 91.81736378743764,99.12670332400195 89.31736378743764,98.45683034292404 86.81736378743759,99.12670332400175 84.9872367685153,100.9568303429239 84.31736378743739,103.4568303429239 84.9872367685151,105.95683034292395 86.81736378743724,107.78695736184623 89.31736378743724,108.45683034292415" stroke="#ffa500" stroke-linecap="round" stroke-linejoin="round"/><polyline fill="none" points="-26.595638162150948,16.32240737959512 -24.095638162150895,15.652534398517401 -22.26551114322861,13.822407379595258 -21.5956381621507,11.322407379595257 -22.265511143228416,8.822407379595203 -24.095638162150557,6.992280360672919 -26.595638162150557,6.322407379595008 -29.09563816215061,6.992280360672725 -30.925765181072894,8.822407379594868 -31.595638162150806,11.32240737959487 -30.92576518107309,13.822407379594924 -29.095638162150948,15.65253439851721 -26.595638162150948,16.322407379595123" stroke="#00f" stroke-linecap="round" stroke-linejoin="round"/><polyline fill="none" points="-26.295777153929972,-108.64706625354812 -23.79577715392992,-109.31693923462583 -21.965650135007632,-111.14706625354798 -21.29577715392972,-113.64706625354798 -21.965650135007436,-116.14706625354803 -23.795777153929578,-117.97719327247032 -26.295777153929578,-118.64706625354823 -28.795777153929635,-117.97719327247052 -30.62590417285192,-116.14706625354837 -31.295777153929837,-113.64706625354837 -30.625904172852124,-111.14706625354832 -28.795777153929983,-109.31693923462603 -26.295777153929983,-108.64706625354812" stroke="#ffa500" stroke-linecap="round" stroke-linejoin="round"/><polyline fill="none" points="-78.23406704986307,4.891420280240831 -75.73406704986301,4.221547299163117 -73.90394003094073,2.3914202802409763 -73.23406704986282,-0.10857971975902547 -73.90394003094053,-2.6085797197590814 -75.73406704986267,-4.43870673868137 -78.23406704986267,-5.108579719759287 -80.73406704986273,-4.438706738681574 -82.56419406878501,-2.608579719759435 -83.23406704986293,-0.10857971975943315 -82.56419406878521,2.3914202802406237 -80.73406704986307,4.221547299162914 -78.23406704986307,4.8914202802408315" stroke="#00f" stroke-linecap="round" stroke-linejoin="round"/><polyline fill="none" points="-33.034958003649315,2.753383316466071 -30.53495800364926,2.0835103353883593 -28.704830984726968,0.2533833164662198 -28.03495800364905,-2.246616683533782 -28.704830984726758,-4.746616683533839 -30.534958003648896,-6.57674370245613 -33.034958003648896,-7.246616683534049 -35.53495800364895,-6.576743702456339 -37.36508502257124,-4.7466166835342 -38.034958003649166,-2.2466166835341985 -37.365085022571456,0.2533833164658592 -35.534958003649315,2.0835103353881514 -33.034958003649315,2.7533833164660715" stroke="#00f" stroke-linecap="round" stroke-linejoin="round"/><polyline fill="none" points="-79.75753364428384,-46.80708941621393 -77.25753364428378,-47.476962397291636 -75.42740662536148,-49.30708941621377 -74.75753364428357,-51.80708941621377 -75.42740662536127,-54.30708941621383 -77.25753364428341,-56.13721643513612 -79.75753364428341,-56.80708941621404 -82.25753364428347,-56.13721643513633 -84.08766066320577,-54.3070894162142 -84.75753364428368,-51.8070894162142 -84.08766066320598,-49.30708941621414 -82.25753364428384,-47.47696239729184 -79.75753364428384,-46.80708941621392" stroke="#ffa500" stroke-linecap="round" stroke-linejoin="round"/><polyline fill="none" points="-63.95101982231975,41.45129726363089 -61.451019822319694,40.78142428255318 -59.620892803397396,38.95129726363105 -58.95101982231947,36.45129726363105 -59.62089280339718,33.95129726363099 -61.45101982231932,32.12117024470869 -63.95101982231932,31.45129726363077 -66.45101982231938,32.12117024470847 -68.28114684124168,33.95129726363061 -68.95101982231961,36.45129726363061 -68.2811468412419,38.95129726363067 -66.45101982231976,40.78142428255297 -63.951019822319765,41.45129726363089" stroke="#00f" stroke-linecap="round" stroke-linejoin="round"/><polyline fill="none" points="-61.00753385732744,46.70452032232085 -58.507533857327374,46.03464734124315 -56.677406838405076,44.20452032232102 -56.00753385732715,41.70452032232102 -56.67740683840485,39.20452032232095 -58.50753385732698,37.374393303398655 -61.00753385732698,36.704520322320725 -63.50753385732705,37.37439330339843 -65.33766087624934,39.20452032232056 -66.00753385732727,41.70452032232056 -65.33766087624957,44.204520322320626 -63.50753385732744,46.03464734124292 -61.00753385732744,46.70452032232085" stroke="#00f" stroke-linecap="round" stroke-linejoin="round"/><polyline fill="none" points="-41.27685223000773,47.10708676422132 -38.77685223000766,46.43721378314362 -36.946725211085365,44.607086764221485 -36.276852230007435,42.107086764221485 -36.94672521108514,39.60708676422142 -38.77685223000727,37.77695974529912 -41.27685223000727,37.107086764221194 -43.776852230007336,37.776959745298896 -45.60697924892963,39.60708676422103 -46.27685223000756,42.10708676422103 -45.60697924892986,44.607086764221094 -43.77685223000773,46.4372137831434 -41.27685223000773,47.10708676422133" stroke="#008000" stroke-linecap="round" stroke-linejoin="round"/><polyline fill="none" points="-106.6129669289748,3.740192103553824 -104.11296692897474,3.0703191224761244 -102.28283991005245,1.2401921035539925 -101.61296692897452,-1.2598078964460089 -102.28283991005222,-3.759807896446073 -104.11296692897434,-5.589934915368376 -106.61296692897434,-6.259807896446309 -109.11296692897442,-5.589934915368611 -110.94309394789671,-3.759807896446479 -111.61296692897464,-1.2598078964464774 -110.94309394789694,1.2401921035535879 -109.11296692897481,3.070319122475892 -106.61296692897481,3.7401921035538264" stroke="#ffa500" stroke-linecap="round" stroke-linejoin="round"/><polyline fill="none" points="47.033794660665414,38.79150259245302 49.53379466066548,38.121629611375326 51.36392167958778,36.29150259245319 52.03379466066572,33.79150259245319 51.363921679588024,31.291502592453128 49.53379466066589,29.461375573530823 47.03379466066589,28.791502592452886 44.533794660665826,29.46137557353058 42.70366764174352,31.291502592452712 42.033794660665585,33.791502592452716 42.70366764174328,36.29150259245278 44.53379466066541,38.121629611375084 47.03379466066541,38.79150259245302" stroke="#ffa500" stroke-linecap="round" stroke-linejoin="round"/><polyline fill="none" points="-97.02159095527799,-11.855075119310015 -94.52159095527792,-12.52494810038771 -92.6914639363556,-14.355075119309841 -92.02159095527766,-16.855075119309845 -92.69146393635535,-19.355075119309912 -94.52159095527747,-21.18520213823222 -97.02159095527747,-21.855075119310158 -99.52159095527755,-21.185202138232462 -101.35171797419986,-19.355075119310335 -102.0215909552778,-16.855075119310335 -101.35171797420011,-14.355075119310268 -99.52159095527799,-12.52494810038796 -97.02159095527799,-11.855075119310019" stroke="#ffa500" stroke-linecap="round" stroke-linejoin="round"/><polyline fill="none" points="50.078677335890966,17.763083560483423 52.57867733589104,17.09321057940573 54.40880435481335,15.263083560483604 55.078677335891285,12.763083560483603 54.4088043548136,10.263083560483533 52.57867733589147,8.432956541561223 50.07867733589147,7.763083560483282 47.5786773358914,8.432956541560973 45.74855031696909,10.2630835604831 45.07867733589114,12.763083560483102 45.74855031696883,15.263083560483171 47.57867733589096,17.093210579405483 50.07867733589096,17.763083560483423" stroke="#ffa500" stroke-linecap="round" stroke-linejoin="round"/><polyline fill="none" points="-32.76227809088354,135.08564662215605 -30.26227809088347,134.41577364107835 -28.432151071961158,132.58564662215622 -27.762278090883214,130.08564662215622 -28.432151071960902,127.58564662215615 -30.26227809088303,125.75551960323384 -32.76227809088303,125.08564662215589 -35.2622780908831,125.75551960323358 -37.09240510980541,127.5856466221557 -37.762278090883356,130.0856466221557 -37.09240510980567,132.58564662215576 -35.26227809088354,134.4157736410781 -32.76227809088354,135.08564662215605" stroke="#ffa500" stroke-linecap="round" stroke-linejoin="round"/><polyline fill="none" points="44.94899768305404,109.82619532320201 47.44899768305411,109.15632234212433 49.27912470197642,107.3261953232022 49.948997683054365,104.8261953232022 49.27912470197668,102.32619532320213 47.44899768305455,100.49606830427982 44.94899768305455,99.82619532320187 42.44899768305448,100.49606830427956 40.61887066413216,102.32619532320169 39.948997683054216,104.82619532320169 40.618870664131904,107.32619532320176 42.44899768305403,109.15632234212407 44.94899768305403,109.82619532320201" stroke="#ffa500" stroke-linecap="round" stroke-linejoin="round"/><polyline fill="none" points="-22.03654845277152,120.4734585460874 -19.53654845277145,119.80358556500971 -17.706421433849133,117.97345854608758 -17.036548452771186,115.47345854608758 -17.70642143384887,112.97345854608751 -19.536548452770994,111.1433315271652 -22.036548452770997,110.47345854608726 -24.536548452771072,111.14333152716495 -26.36667547169339,112.97345854608707 -27.036548452771342,115.47345854608707 -26.366675471693657,117.97345854608714 -24.536548452771534,119.80358556500946 -22.03654845277153,120.4734585460874" stroke="#00f" stroke-linecap="round" stroke-linejoin="round"/><polyline fill="none" points="-9.747464342209792,-94.68942305064851 -7.247464342209717,-95.3592960317262 -5.4173373232873985,-97.18942305064833 -4.747464342209447,-99.68942305064833 -5.41733732328713,-102.1894230506484 -7.247464342209253,-104.01955006957073 -9.747464342209256,-104.68942305064868 -12.24746434220933,-104.019550069571 -14.07759136113165,-102.18942305064887 -14.747464342209604,-99.68942305064887 -14.077591361131923,-97.1894230506488 -12.2474643422098,-95.35929603172647 -9.747464342209799,-94.68942305064851" stroke="#ffa500" stroke-linecap="round" stroke-linejoin="round"/><polyline fill="none" points="-2.4217162272502812,-67.78916696778678 0.07828377274979426,-68.45903994886446 1.9084107916721162,-70.28916696778658 2.57828377275007,-72.78916696778658 1.9084107916723898,-75.28916696778666 0.07828377275026854,-77.11929398670898 -2.4217162272497337,-77.78916696778694 -4.92171622724981,-77.11929398670927 -6.7518432461721325,-75.28916696778714 -7.421716227250088,-72.78916696778714 -6.751843246172409,-70.28916696778707 -4.921716227250288,-68.45903994886474 -2.4217162272502857,-67.78916696778678" stroke="#ffa500" stroke-linecap="round" stroke-linejoin="round"/><polyline fill="none" points="-94.08973770650249,51.72621303475654 -91.58973770650242,51.05634005367886 -89.75961068758009,49.22621303475674 -89.08973770650213,46.72621303475674 -89.75961068757981,44.22621303475666 -91.58973770650194,42.396086015834335 -94.08973770650194,41.72621303475638 -96.589737706502,42.39608601583406 -98.41986472542433,44.22621303475618 -99.08973770650229,46.72621303475618 -98.41986472542462,49.226213034756256 -96.5897377065025,51.05634005367858 -94.0897377065025,51.72621303475654" stroke="#ffa500" stroke-linecap="round" stroke-linejoin="round"/><polyline fill="none" points="67.98489894720053,79.1576782069895 70.4848989472006,78.48780522591183 72.31502596612293,76.65767820698971 72.98489894720089,74.15767820698971 72.31502596612322,71.65767820698964 70.4848989472011,69.82755118806732 67.9848989472011,69.15767820698936 65.48489894720103,69.82755118806703 63.654771928278706,71.65767820698915 62.98489894720075,74.15767820698915 63.65477192827842,76.65767820698923 65.48489894720053,78.48780522591156 67.98489894720053,79.15767820698952" stroke="#ffa500" stroke-linecap="round" stroke-linejoin="round"/><polyline fill="none" points="12.704553594889806,-17.037866679248545 15.204553594889884,-17.70773966032622 17.034680613812213,-19.537866679248335 17.704553594890175,-22.03786667924834 17.0346806138125,-24.537866679248417 15.204553594890385,-26.367993698170746 12.704553594890383,-27.037866679248708 10.204553594890303,-26.367993698171034 8.374426575967973,-24.537866679248918 7.704553594890011,-22.037866679248914 8.374426575967684,-19.537866679248836 10.2045535948898,-17.707739660326506 12.704553594889802,-17.037866679248545" stroke="#ffa500" stroke-linecap="round" stroke-linejoin="round"/><polyline fill="none" points="-31.568187859419094,-74.33831770800903 -29.068187859419012,-75.0081906890867 -27.238060840496683,-76.83831770800882 -26.568187859418718,-79.33831770800882 -27.238060840496388,-81.8383177080089 -29.068187859418504,-83.66844472693123 -31.568187859418508,-84.33831770800919 -34.068187859418586,-83.66844472693151 -35.89831487834092,-81.8383177080094 -36.568187859418884,-79.3383177080094 -35.89831487834122,-76.83831770800931 -34.068187859419105,-75.00819068908699 -31.568187859419105,-74.33831770800901" stroke="#00f" stroke-linecap="round" stroke-linejoin="round"/><polyline fill="none" points="-62.055721914678294,-120.01472126515952 -59.555721914678216,-120.6845942462372 -57.72559489575588,-122.51472126515931 -57.05572191467792,-125.01472126515931 -57.725594895755584,-127.5147212651594 -59.5557219146777,-129.34484828408173 -62.0557219146777,-130.0147212651597 -64.55572191467778,-129.34484828408202 -66.38584893360012,-127.5147212651599 -67.05572191467809,-125.0147212651599 -66.38584893360041,-122.51472126515982 -64.5557219146783,-120.68459424623748 -62.0557219146783,-120.01472126515951" stroke="#ffa500" stroke-linecap="round" stroke-linejoin="round"/><polyline fill="none" points="-75.64151637198749,-18.46981985832127 -73.14151637198741,-19.139692839398936 -71.31138935306507,-20.96981985832105 -70.6415163719871,-23.469819858321053 -71.31138935306475,-25.969819858321138 -73.14151637198687,-27.799946877243475 -75.64151637198687,-28.469819858321443 -78.14151637198695,-27.799946877243777 -79.97164339090929,-25.969819858321664 -80.64151637198727,-23.469819858321664 -79.9716433909096,-20.96981985832158 -78.14151637198749,-19.139692839399242 -75.64151637198749,-18.46981985832127" stroke="#ffa500" stroke-linecap="round" stroke-linejoin="round"/><polyline fill="none" points="-63.867167270836404,-42.006712734127106 -61.36716727083632,-42.67658571520477 -59.53704025191398,-44.506712734126886 -58.867167270836006,-47.006712734126886 -59.53704025191367,-49.50671273412697 -61.367167270835786,-51.33683975304931 -63.867167270835786,-52.006712734127284 -66.36716727083586,-51.33683975304962 -68.1972942897582,-49.506712734127504 -68.86716727083618,-47.006712734127504 -68.19729428975852,-44.50671273412742 -66.3671672708364,-42.67658571520508 -63.867167270836404,-42.006712734127106" stroke="#ffa500" stroke-linecap="round" stroke-linejoin="round"/><polyline fill="none" points="2.096368598269288,38.14428945570235 4.596368598269374,37.47441647462469 6.426495617191714,35.64428945570258 7.096368598269689,33.14428945570258 6.426495617192027,30.64428945570249 4.596368598269917,28.81416243678015 2.0963685982699154,28.144289455702175 -0.40363140173017076,28.814162436779835 -2.233758420652512,30.644289455701944 -2.9036314017304887,33.144289455701944 -2.2337584206528285,35.64428945570203 -0.403631401730719,37.47441647462437 2.096368598269283,38.14428945570235" stroke="#008000" stroke-linecap="round" stroke-linejoin="round"/><polyline fill="none" points="-66.016341123415,26.352741393051705 -63.51634112341492,25.682868411974045 -61.68621410449258,23.852741393051936 -61.0163411234146,21.352741393051936 -61.68621410449226,18.85274139305185 -63.516341123414364,17.022614374129507 -66.01634112341436,16.352741393051527 -68.51634112341445,17.022614374129187 -70.34646814233679,18.852741393051296 -71.01634112341476,21.352741393051296 -70.3464681423371,23.852741393051385 -68.51634112341499,25.68286841197373 -66.01634112341499,26.35274139305171" stroke="#00f" stroke-linecap="round" stroke-linejoin="round"/><polyline fill="none" points="90.34019730821778,87.50279722593235 92.84019730821787,86.8329242448547 94.67032432714021,85.00279722593258 95.3401973082182,82.50279722593258 94.67032432714053,80.0027972259325 92.84019730821842,78.17267020701016 90.34019730821842,77.50279722593217 87.84019730821834,78.17267020700983 86.010070289296,80.00279722593194 85.34019730821801,82.50279722593194 86.01007028929567,85.00279722593203 87.84019730821778,86.83292424485437 90.34019730821778,87.50279722593235" stroke="#ffa500" stroke-linecap="round" stroke-linejoin="round"/><polyline fill="none" points="1.549860727478008,61.5580197483098 4.049860727478098,60.88814676723215 5.879987746400445,59.058019748310045 6.549860727478428,56.558019748310045 5.879987746400774,54.05801974830995 4.049860727478668,52.227892729387605 1.5498607274786664,51.55801974830962 -0.9501392725214237,52.22789272938727 -2.7802662914437715,54.05801974830938 -3.450139272521756,56.55801974830938 -2.7802662914441023,59.05801974830947 -0.9501392725219968,60.88814676723182 1.549860727478005,61.5580197483098" stroke="#ffa500" stroke-linecap="round" stroke-linejoin="round"/><polyline fill="none" points="-49.31257165647124,-103.55375374293344 -46.81257165647115,-104.2236267240111 -44.9824446375488,-106.0537537429332 -44.312571656470816,-108.5537537429332 -44.98244463754847,-111.05375374293328 -46.812571656470574,-112.88388076185564 -49.312571656470574,-113.55375374293362 -51.812571656470666,-112.88388076185598 -53.642698675393014,-111.05375374293388 -54.312571656471,-108.55375374293388 -53.64269867539335,-106.0537537429338 -51.81257165647124,-104.22362672401144 -49.31257165647124,-103.55375374293345" stroke="#ffa500" stroke-linecap="round" stroke-linejoin="round"/><polyline fill="none" points="-91.83842284048853,33.19272651204868 -89.33842284048845,32.52285353097103 -87.5082958215661,30.69272651204892 -86.83842284048811,28.19272651204892 -87.50829582156575,25.69272651204883 -89.33842284048785,23.862599493126478 -91.83842284048785,23.192726512048488 -94.33842284048795,23.862599493126137 -96.1685498594103,25.69272651204824 -96.83842284048829,28.19272651204824 -96.16854985941065,30.69272651204833 -94.33842284048855,32.522853530970686 -91.83842284048855,33.19272651204868" stroke="#ffa500" stroke-linecap="round" stroke-linejoin="round"/><polyline fill="none" points="13.134686677897205,8.125688536203416 15.6346866778973,7.455815555125768 17.464813696819654,5.625688536203665 18.134686677897644,3.125688536203663 17.464813696819995,0.6256885362035693 15.634686677897893,-1.204438482718785 13.134686677897891,-1.874311463796777 10.634686677897797,-1.20443848271913 8.804559658975442,0.6256885362029723 8.13468667789745,3.125688536202974 8.804559658975098,5.625688536203068 10.6346866778972,7.455815555125423 13.134686677897202,8.125688536203416" stroke="#ffa500" stroke-linecap="round" stroke-linejoin="round"/><polyline fill="none" points="42.44944167290157,78.7685595390957 44.94944167290166,78.09868655801806 46.77956869182402,76.26855953909596 47.44944167290201,73.76855953909596 46.779568691824366,71.26855953909586 44.94944167290227,69.4384325201735 42.44944167290227,68.7685595390955 39.949441672902175,69.43843252017315 38.11931465397982,71.26855953909525 37.44944167290183,73.76855953909525 38.11931465397947,76.26855953909535 39.94944167290157,78.0986865580177 42.44944167290157,78.7685595390957" stroke="#ffa500" stroke-linecap="round" stroke-linejoin="round"/><polyline fill="none" points="18.78565195048391,-8.932897716628108 21.285651950484006,-9.602770697705752 23.115778969406364,-11.432897716627853 23.78565195048436,-13.932897716627854 23.11577896940672,-16.43289771662795 21.28565195048462,-18.263024735550307 18.78565195048462,-18.932897716628304 16.285651950484525,-18.263024735550662 14.455524931562165,-16.432897716628563 13.785651950484167,-13.932897716628561 14.45552493156181,-11.432897716628464 16.28565195048391,-9.602770697706104 18.78565195048391,-8.932897716628107" stroke="#00f" stroke-linecap="round" stroke-linejoin="round"/><polyline fill="none" points="-21.384935829721226,82.05982267481764 -18.88493582972113,81.38994969374 -17.054808810798768,79.5598226748179 -16.38493582972077,77.0598226748179 -17.054808810798413,74.5598226748178 -18.88493582972051,72.72969565589544 -21.384935829720515,72.05982267481744 -23.884935829720614,72.72969565589509 -25.715062848642976,74.55982267481718 -26.384935829720977,77.05982267481718 -25.71506284864334,79.55982267481728 -23.88493582972124,81.38994969373965 -21.384935829721236,82.05982267481765" stroke="#ffa500" stroke-linecap="round" stroke-linejoin="round"/><polyline fill="none" points="-91.9196687991489,14.362825743234797 -89.4196687991488,13.692952762157159 -87.58954178022643,11.862825743235062 -86.91966879914843,9.36282574323506 -87.58954178022607,6.8628257432349615 -89.41966879914817,5.032698724312599 -91.91966879914817,4.362825743234597 -94.41966879914827,5.032698724312236 -96.24979581807064,6.862825743234333 -96.91966879914864,9.362825743234334 -96.24979581807101,11.862825743234433 -94.41966879914891,13.692952762156796 -91.91966879914891,14.362825743234799" stroke="#ffa500" stroke-linecap="round" stroke-linejoin="round"/><polyline fill="none" points="-36.34628266918327,77.32780669988134 -33.84628266918317,76.6579337188037 -32.0161556502608,74.8278066998816 -31.346282669182795,72.3278066998816 -32.01615565026043,69.8278066998815 -33.84628266918253,67.99767968095914 -36.34628266918253,67.32780669988114 -38.84628266918263,67.99767968095877 -40.676409688105,69.82780669988087 -41.346282669183005,72.32780669988087 -40.676409688105366,74.82780669988097 -38.84628266918327,76.65793371880333 -36.34628266918327,77.32780669988134" stroke="#00f" stroke-linecap="round" stroke-linejoin="round"/><polyline fill="none" points="-47.082120126796546,-45.762155113776785 -44.58212012679645,-46.432028094854424 -42.75199310787408,-48.26215511377652 -42.08212012679607,-50.76215511377652 -42.7519931078737,-53.26215511377662 -44.5821201267958,-55.09228213269899 -47.0821201267958,-55.762155113777 -49.5821201267959,-55.09228213269937 -51.41224714571827,-53.262155113777276 -52.082120126796276,-50.762155113777276 -51.412247145718645,-48.26215511377717 -49.58212012679655,-46.4320280948548 -47.08212012679655,-45.76215511377679" stroke="#ffa500" stroke-linecap="round" stroke-linejoin="round"/><polyline fill="none" points="-4.716991966073512,22.398918091644788 -2.216991966073409,21.729045110567156 -0.38686494715103925,19.89891809164506 0.28300803392697027,17.398918091645058 -0.3868649471506618,14.898918091644955 -2.2169919660727553,13.068791072722584 -4.716991966072758,12.398918091644575 -7.216991966072861,13.068791072722206 -9.047118984995231,14.8989180916443 -9.716991966073243,17.3989180916443 -9.047118984995612,19.898918091644404 -7.216991966073519,21.729045110566776 -4.716991966073517,22.398918091644788" stroke="#008000" stroke-linecap="round" stroke-linejoin="round"/><polyline fill="none" points="-13.030428394671322,33.61086663663703 -10.530428394671219,32.940993655559396 -8.700301375748847,31.110866636637304 -8.030428394670835,28.610866636637304 -8.700301375748465,26.1108666366372 -10.530428394670556,24.28073961771483 -13.030428394670558,23.610866636636818 -15.530428394670663,24.280739617714445 -17.360555413593037,26.110866636636537 -18.030428394671052,28.610866636636537 -17.360555413593424,31.110866636636644 -15.530428394671333,32.94099365555902 -13.03042839467133,33.610866636637034" stroke="#008000" stroke-linecap="round" stroke-linejoin="round"/><polyline fill="none" points="-55.21388740710693,-76.52007493761309 -52.713887407106824,-77.18994791869072 -50.88376038818445,-79.0200749376128 -50.213887407106434,-81.5200749376128 -50.88376038818406,-84.0200749376129 -52.71388740710615,-85.85020195653527 -55.21388740710615,-86.52007493761329 -57.713887407106256,-85.85020195653566 -59.54401442602863,-84.02007493761357 -60.21388740710665,-81.52007493761357 -59.54401442602902,-79.02007493761347 -57.71388740710693,-77.1899479186911 -55.21388740710693,-76.52007493761309" stroke="#ffa500" stroke-linecap="round" stroke-linejoin="round"/><polyline fill="none" points="-62.799400740400515,30.959992585495204 -60.29940074040041,30.29011960441758 -58.46927372147803,28.459992585495492 -57.79940074040002,25.959992585495492 -58.46927372147764,23.459992585495385 -60.29940074039973,21.62986556657301 -62.79940074039973,20.95999258549499 -65.29940074039985,21.629865566572615 -67.12952775932223,23.459992585494703 -67.79940074040024,25.959992585494703 -67.12952775932263,28.45999258549481 -65.29940074040054,30.29011960441719 -62.79940074040054,30.959992585495208" stroke="#00f" stroke-linecap="round" stroke-linejoin="round"/><polyline fill="none" points="28.04259673075754,39.581187581973246 30.542596730757648,38.91131460089562 32.37272374968003,37.08118758197354 33.04259673075805,34.58118758197354 32.372723749680425,32.08118758197343 30.542596730758337,30.251060563051052 28.042596730758337,29.58118758197303 25.542596730758227,30.25106056305065 23.712469711835848,32.081187581972735 23.042596730757825,34.581187581972735 23.712469711835446,37.08118758197284 25.54259673075753,38.911314600895224 28.04259673075753,39.581187581973246" stroke="#00f" stroke-linecap="round" stroke-linejoin="round"/><polyline fill="none" points="-53.404869669505736,-137.95113478310338 -50.90486966950563,-138.621007764181 -49.07474265058325,-140.4511347831031 -48.404869669505224,-142.9511347831031 -49.07474265058284,-145.4511347831032 -50.904869669504926,-147.2812618020256 -53.404869669504926,-147.9511347831036 -55.90486966950503,-147.281261802026 -57.734996688427415,-145.4511347831039 -58.40486966950544,-142.9511347831039 -57.73499668842782,-140.45113478310378 -55.904869669505736,-138.6210077641814 -53.404869669505736,-137.95113478310338" stroke="#ffa500" stroke-linecap="round" stroke-linejoin="round"/><polyline fill="none" points="-44.638646059338036,34.78911805194606 -42.13864605933793,34.119245070868445 -40.30851904041555,32.28911805194636 -39.63864605933752,29.78911805194636 -40.308519040415135,27.28911805194625 -42.13864605933722,25.458991033023867 -44.63864605933722,24.78911805194584 -47.13864605933733,25.45899103302346 -48.968773078259716,27.289118051945543 -49.638646059337745,29.789118051945543 -48.96877307826013,32.28911805194566 -47.13864605933804,34.11924507086804 -44.63864605933804,34.78911805194607" stroke="#00f" stroke-linecap="round" stroke-linejoin="round"/><polyline fill="none" points="-77.87440930946727,39.55691410621281 -75.37440930946715,38.88704112513519 -73.54428229054477,37.05691410621311 -72.87440930946674,34.55691410621311 -73.54428229054436,32.05691410621299 -75.37440930946644,30.226787087290607 -77.87440930946644,29.556914106212577 -80.37440930946656,30.22678708729019 -82.20453632838894,32.056914106212275 -82.87440930946697,34.556914106212275 -82.20453632838935,37.05691410621239 -80.37440930946727,38.88704112513478 -77.87440930946727,39.55691410621281" stroke="#ffa500" stroke-linecap="round" stroke-linejoin="round"/><polyline fill="none" points="-42.50493921766797,-121.50182660685736 -40.004939217667854,-122.17169958793498 -38.174812198745464,-124.00182660685707 -37.504939217667435,-126.50182660685707 -38.174812198745045,-129.00182660685718 -40.00493921766713,-130.83195362577956 -42.50493921766713,-131.5018266068576 -45.00493921766724,-130.83195362578 -46.83506623658963,-129.00182660685792 -47.50493921766767,-126.50182660685792 -46.83506623659006,-124.0018266068578 -45.004939217667975,-122.17169958793541 -42.504939217667975,-121.50182660685738" stroke="#ffa500" stroke-linecap="round" stroke-linejoin="round"/><polyline fill="none" points="-37.83844277592902,-11.511091062541382 -35.338442775928904,-12.180964043618992 -33.508315757006514,-14.011091062541073 -32.83844277592848,-16.511091062541077 -33.50831575700609,-19.01109106254119 -35.338442775928165,-20.841218081463584 -37.838442775928165,-21.51109106254162 -40.33844277592828,-20.84121808146401 -42.16856979485067,-19.01109106254193 -42.838442775928705,-16.51109106254193 -42.168569794851095,-14.011091062541812 -40.33844277592902,-12.180964043619419 -37.83844277592902,-11.511091062541382" stroke="#00f" stroke-linecap="round" stroke-linejoin="round"/><polyline fill="none" points="-15.846864450512815,26.00495066791087 -13.346864450512697,25.335077686833262 -11.516737431590304,23.50495066791118 -10.846864450512266,21.00495066791118 -11.516737431589872,18.504950667911064 -13.346864450511951,16.67482364898867 -15.846864450511953,16.00495066791063 -18.346864450512072,16.674823648988237 -20.17699146943447,18.504950667910315 -20.84686445051251,21.004950667910315 -20.176991469434903,23.504950667910432 -18.346864450512825,25.33507768683283 -15.846864450512824,26.00495066791087" stroke="#f00" stroke-linecap="round" stroke-linejoin="round"/><polyline fill="none" points="-14.310921143248581,61.94925203461983 -11.810921143248462,61.27937905354223 -9.980794124326065,59.44925203462015 -9.310921143248024,56.94925203462015 -9.980794124325628,54.44925203462003 -11.810921143247706,52.619125015697634 -14.310921143247707,51.94925203461959 -16.81092114324783,52.61912501569719 -18.641048162170225,54.44925203461927 -19.31092114324827,56.94925203461927 -18.641048162170666,59.44925203461939 -16.81092114324859,61.27937905354179 -14.310921143248587,61.94925203461983" stroke="#ffa500" stroke-linecap="round" stroke-linejoin="round"/><polyline fill="none" points="-28.84096319901311,112.86374696042593 -26.34096319901299,112.19387397934833 -24.51083618009059,110.36374696042625 -23.840963199012545,107.86374696042625 -24.51083618009015,105.36374696042614 -26.340963199012226,103.53361994150374 -28.84096319901223,102.8637469604257 -31.34096319901235,103.5336199415033 -33.17109021793475,105.36374696042537 -33.84096319901279,107.86374696042537 -33.17109021793519,110.3637469604255 -31.34096319901311,112.1938739793479 -28.840963199013107,112.86374696042594" stroke="#ffa500" stroke-linecap="round" stroke-linejoin="round"/><polyline fill="none" points="-48.22916195589621,66.79250935107973 -45.72916195589609,66.12263637000213 -43.899034936973685,64.29250935108006 -43.22916195589564,61.79250935108006 -43.899034936973244,59.292509351079936 -45.72916195589532,57.46238233215753 -48.22916195589532,56.79250935107949 -50.72916195589544,57.46238233215709 -52.55928897481785,59.29250935107917 -53.2291619558959,61.79250935107917 -52.5592889748183,64.29250935107929 -50.729161955896224,66.12263637000169 -48.229161955896224,66.79250935107973" stroke="#ffa500" stroke-linecap="round" stroke-linejoin="round"/><polyline fill="none" points="-28.554238361068045,-54.095295502777326 -26.05423836106792,-54.76516848385492 -24.224111342145516,-56.595295502777 -23.55423836106747,-59.095295502777 -24.22411134214507,-61.59529550277712 -26.054238361067142,-63.425422521699524 -28.554238361067146,-64.09529550277757 -31.05423836106727,-63.42542252169998 -32.884365379989674,-61.5952955027779 -33.554238361067725,-59.0952955027779 -32.88436537999013,-56.59529550277778 -31.054238361068055,-54.765168483855376 -28.55423836106805,-54.095295502777326" stroke="#00f" stroke-linecap="round" stroke-linejoin="round"/><polyline fill="none" points="42.7906194633463,-39.33155340602165 45.29061946334643,-40.001426387099244 47.120746482268835,-41.831553406021314 47.790619463346886,-44.331553406021314 47.12074648226929,-46.83155340602144 45.29061946334722,-48.661680424943846 42.79061946334722,-49.3315534060219 40.29061946334709,-48.6616804249443 38.46049244442469,-46.83155340602223 37.79061946334664,-44.33155340602223 38.46049244442423,-41.8315534060221 40.2906194633463,-40.00142638709969 42.7906194633463,-39.33155340602164" stroke="#ffa500" stroke-linecap="round" stroke-linejoin="round"/><polyline fill="none" points="-3.3106093115482085,-52.72220635650908 -0.8106093115480828,-53.39207933758668 1.019517707374326,-55.22220635650875 1.6893906884523804,-57.72220635650875 1.019517707374787,-60.22220635650888 -0.8106093115472848,-62.05233337543129 -3.3106093115472874,-62.722206356509346 -5.810609311547414,-62.05233337543175 -7.640736330469824,-60.22220635650968 -8.31060931154788,-57.72220635650968 -7.640736330470288,-55.22220635650955 -5.810609311548218,-53.39207933758714 -3.310609311548216,-52.72220635650908" stroke="#ffa500" stroke-linecap="round" stroke-linejoin="round"/><polyline fill="none" points="-82.47756642741165,-1.140475490818429 -79.97756642741152,-1.8103484718960203 -78.1474394084891,-3.6404754908180905 -77.47756642741105,-6.140475490818092 -78.14743940848864,-8.640475490818218 -79.97756642741071,-10.47060250974063 -82.47756642741071,-11.140475490818687 -84.97756642741084,-10.470602509741097 -86.80769344633325,-8.640475490819028 -87.4775664274113,-6.140475490819027 -86.80769344633372,-3.640475490818899 -84.97756642741165,-1.8103484718964868 -82.47756642741165,-1.1404754908184278" stroke="#ffa500" stroke-linecap="round" stroke-linejoin="round"/><polyline fill="none" points="-50.67817859027014,16.972462537847207 -48.178178590270015,16.302589556769618 -46.348051571347604,14.47246253784755 -45.678178590269546,11.972462537847548 -46.348051571347135,9.47246253784742 -48.178178590269205,7.642335518925006 -50.678178590269205,6.972462537846946 -53.17817859026933,7.642335518924534 -55.008305609191744,9.472462537846601 -55.6781785902698,11.972462537846603 -55.00830560919221,14.47246253784673 -53.17817859027014,16.302589556769146 -50.67817859027014,16.972462537847207" stroke="#00f" stroke-linecap="round" stroke-linejoin="round"/><polyline fill="none" points="51.956162761386,93.60068784792139 54.456162761386125,92.9308148668438 56.28628978030854,91.10068784792173 56.95616276138661,88.60068784792173 56.28628978030902,86.1006878479216 54.45616276138695,84.2705608289992 51.95616276138695,83.60068784792114 49.45616276138682,84.27056082899873 47.6260357424644,86.1006878479208 46.95616276138634,88.6006878479208 47.62603574246392,91.10068784792092 49.45616276138598,92.93081486684333 51.95616276138598,93.60068784792139" stroke="#00f" stroke-linecap="round" stroke-linejoin="round"/><polyline fill="none" points="-16.201381948476598,-57.35517114493023 -13.701381948476469,-58.02504412600781 -11.87125492955405,-59.85517114492988 -11.201381948475985,-62.35517114492988 -11.871254929553569,-64.85517114493001 -13.701381948475634,-66.68529816385242 -16.201381948475635,-67.3551711449305 -18.701381948475767,-66.6852981638529 -20.531508967398185,-64.85517114493084 -21.20138194847625,-62.355171144930836 -20.53150896739867,-59.85517114493071 -18.7013819484766,-58.02504412600829 -16.2013819484766,-57.355171144930225" stroke="#ffa500" stroke-linecap="round" stroke-linejoin="round"/><polyline fill="none" points="-80.1920766208398,64.7991313267984 -77.69207662083967,64.12925834572081 -75.86194960191725,62.29913132679875 -75.19207662083917,59.79913132679875 -75.86194960191676,57.299131326798616 -77.69207662083883,55.4690043078762 -80.19207662083883,54.799131326798125 -82.69207662083896,55.46900430787571 -84.52220363976139,57.29913132679777 -85.19207662083946,59.79913132679777 -84.52220363976188,62.299131326797905 -82.69207662083981,64.12925834572033 -80.19207662083981,64.7991313267984" stroke="#ffa500" stroke-linecap="round" stroke-linejoin="round"/><polyline fill="none" points="-28.6514727933166,-42.84957495880294 -26.151472793316465,-43.51944793988052 -24.321345774394043,-45.349574958802584 -23.65147279331597,-47.849574958802584 -24.32134577439355,-50.34957495880272 -26.151472793315612,-52.179701977725145 -28.651472793315612,-52.84957495880322 -31.151472793315747,-52.179701977725635 -32.98159981223817,-50.34957495880357 -33.651472793316245,-47.84957495880357 -32.98159981223867,-45.34957495880344 -31.151472793316607,-43.51944793988101 -28.651472793316607,-42.84957495880294" stroke="#ffa500" stroke-linecap="round" stroke-linejoin="round"/><polyline fill="none" points="51.44251076614342,61.93994780346854 53.942510766143556,61.27007482239097 55.77263778506598,59.439947803468904 56.44251076614405,56.939947803468904 55.77263778506648,54.43994780346877 53.942510766144416,52.60982078454634 51.442510766144416,51.93994780346827 48.94251076614428,52.609820784545846 47.112383747221855,54.43994780346791 46.44251076614378,56.93994780346791 47.11238374722136,59.439947803468044 48.94251076614342,61.27007482239047 51.44251076614342,61.93994780346854" stroke="#ffa500" stroke-linecap="round" stroke-linejoin="round"/><polyline fill="none" points="32.397677590854954,-25.26269439766621 34.89767759085509,-25.932567378743784 36.727804609777515,-27.762694397665843 37.397677590855594,-30.262694397665847 36.72780460977802,-32.76269439766598 34.897677590855956,-34.59282141658841 32.397677590855956,-35.262694397666486 29.89767759085582,-34.59282141658891 28.067550571933392,-32.76269439766685 27.397677590855317,-30.262694397666845 28.06755057193289,-27.762694397666706 29.89767759085495,-25.932567378744277 32.397677590854954,-25.2626943976662" stroke="#ffa500" stroke-linecap="round" stroke-linejoin="round"/><polyline fill="none" points="73.0823535604739,96.84270108418266 75.58235356047405,96.17282810310509 77.41248057939647,94.34270108418303 78.08235356047454,91.84270108418303 77.41248057939697,89.34270108418289 75.58235356047491,87.51257406526047 73.08235356047491,86.84270108418238 70.58235356047477,87.51257406525995 68.75222654155235,89.34270108418201 68.08235356047426,91.84270108418201 68.75222654155183,94.34270108418215 70.58235356047389,96.17282810310458 73.08235356047389,96.84270108418266" stroke="#ffa500" stroke-linecap="round" stroke-linejoin="round"/><polyline fill="none" points="-31.301433909580357,61.03821859448507 -28.80143390958022,60.368345613407506 -26.971306890657786,58.53821859448545 -26.301433909579703,56.03821859448545 -26.971306890657274,53.538218594485315 -28.80143390957933,51.70809157556288 -31.30143390957933,51.0382185944848 -33.80143390957947,51.70809157556237 -35.631560928501905,53.53821859448443 -36.30143390957999,56.03821859448443 -35.631560928502424,58.53821859448457 -33.80143390958037,60.368345613407 -31.301433909580368,61.03821859448509" stroke="#00f" stroke-linecap="round" stroke-linejoin="round"/><polyline fill="none" points="70.87748241805541,-15.034706216559215 73.37748241805555,-15.704579197636782 75.20760943697799,-17.53470621655884 75.87748241805608,-20.03470621655884 75.20760943697852,-22.53470621655898 73.37748241805646,-24.364833235481417 70.87748241805646,-25.034706216559503 68.37748241805632,-24.364833235481935 66.54735539913388,-22.53470621655988 65.87748241805579,-20.03470621655988 66.54735539913335,-17.534706216559737 68.37748241805541,-15.704579197637301 70.87748241805541,-15.034706216559215" stroke="#ffa500" stroke-linecap="round" stroke-linejoin="round"/><polyline fill="none" points="-62.265177434682236,34.00623920620009 -59.765177434682094,33.336366225122525 -57.935050415759655,31.50623920620047 -57.26517743468157,29.00623920620047 -57.935050415759136,26.506239206200327 -59.76517743468119,24.67611218727789 -62.26517743468119,24.0062392061998 -64.76517743468133,24.676112187277365 -66.59530445360377,26.506239206199417 -67.26517743468186,29.006239206199417 -66.5953044536043,31.50623920619956 -64.76517743468224,33.336366225122 -62.26517743468224,34.006239206200085" stroke="#ffa500" stroke-linecap="round" stroke-linejoin="round"/><polyline fill="none" points="-36.64381647688672,0.7030029524293031 -34.14381647688658,0.03312997135174067 -32.31368945796414,-1.7969970475703119 -31.643816476886048,-4.296997047570313 -32.31368945796361,-6.796997047570457 -34.14381647688566,-8.627124066492897 -36.64381647688566,-9.296997047570988 -39.1438164768858,-8.627124066493428 -40.97394349580824,-6.7969970475713755 -41.643816476886336,-4.296997047571374 -40.973943495808776,-1.7969970475712294 -39.14381647688673,0.03312997135121232 -36.64381647688673,0.7030029524293052" stroke="#ffa500" stroke-linecap="round" stroke-linejoin="round"/><polyline fill="none" points="-27.464116203846825,-89.46905594396428 -24.96411620384668,-90.13892892504184 -23.133989184924236,-91.9690559439639 -22.464116203846142,-94.4690559439639 -23.133989184923703,-96.96905594396404 -24.964116203845755,-98.79918296288648 -27.464116203845755,-99.46905594396458 -29.9641162038459,-98.79918296288702 -31.794243222768344,-96.96905594396496 -32.46411620384644,-94.46905594396496 -31.79424322276888,-91.96905594396482 -29.96411620384683,-90.13892892504238 -27.464116203846828,-89.46905594396428" stroke="#ffa500" stroke-linecap="round" stroke-linejoin="round"/><polyline fill="none" points="-35.88072177574663,-24.72410585967597 -33.38072177574648,-25.393978840753526 -31.550594756824033,-27.224105859675575 -30.880721775745936,-29.72410585967558 -31.550594756823493,-32.224105859675724 -33.38072177574554,-34.05423287859817 -35.88072177574554,-34.72410585967627 -38.38072177574569,-34.05423287859872 -40.21084879466814,-32.22410585967667 -40.88072177574624,-29.72410585967667 -40.210848794668685,-27.224105859676524 -38.380721775746636,-25.393978840754077 -35.880721775746636,-24.72410585967598" stroke="#ffa500" stroke-linecap="round" stroke-linejoin="round"/><polyline fill="none" points="34.103534866667964,-6.48100314531017 36.60353486666811,-7.150876126387725 38.43366188559056,-8.981003145309774 39.10353486666866,-11.481003145309776 38.43366188559111,-13.981003145309923 36.60353486666906,-15.81113016423237 34.10353486666906,-16.48100314531047 31.60353486666891,-15.811130164232917 29.773407847746462,-13.981003145310869 29.10353486666836,-11.481003145310867 29.773407847745915,-8.98100314531072 31.603534866667964,-7.150876126388271 34.103534866667964,-6.48100314531017" stroke="#ffa500" stroke-linecap="round" stroke-linejoin="round"/><line fill="none" stroke="#000" stroke-linecap="round" x1="-56.52015837863145" x2="-55.21388740710693" y1="-59.641230016947645" y2="-81.52007493761309"/><line fill="none" stroke="#000" stroke-linecap="round" x1="-56.52015837863145" x2="-31.568187859419094" y1="-59.641230016947645" y2="-79.33831770800903"/><line fill="none" stroke="#000" stroke-linecap="round" x1="-56.52015837863145" x2="-79.75753364428384" y1="-59.641230016947645" y2="-51.80708941621393"/><line fill="none" stroke="#000" stroke-linecap="round" x1="-56.52015837863145" x2="-32.2499651825548" y1="-59.641230016947645" y2="-37.07866027904549"/><line fill="none" stroke="#000" stroke-linecap="round" x1="-56.52015837863145" x2="-78.2787906183563" y1="-59.641230016947645" y2="-75.57559708649596"/><line fill="none" stroke="#000" stroke-linecap="round" x1="74.74188936311849" x2="67.98489894720053" y1="90.58136096684383" y2="74.1576782069895"/><line fill="none" stroke="#000" stroke-linecap="round" x1="74.74188936311849" x2="90.34019730821778" y1="90.58136096684383" y2="82.50279722593235"/><line fill="none" stroke="#000" stroke-linecap="round" x1="74.74188936311849" x2="87.34723842550169" y1="90.58136096684383" y2="65.32434930981319"/><line fill="none" stroke="#000" stroke-linecap="round" x1="74.74188936311849" x2="89.31736378743726" y1="90.58136096684383" y2="103.45683034292415"/><line fill="none" stroke="#000" stroke-linecap="round" x1="74.74188936311849" x2="73.0823535604739" y1="90.58136096684383" y2="91.84270108418266"/><line fill="none" stroke="#000" stroke-linecap="round" x1="-19.311446134115283" x2="-32.2499651825548" y1="-13.409453349234795" y2="-37.07866027904549"/><line fill="none" stroke="#000" stroke-linecap="round" x1="-19.311446134115283" x2="3.873319751283334" y1="-13.409453349234795" y2="-25.960361148197258"/><line fill="none" stroke="#000" stroke-linecap="round" x1="-19.311446134115283" x2="-17.03560564027558" y1="-13.409453349234795" y2="4.991471231357723"/><line fill="none" stroke="#000" stroke-linecap="round" x1="-19.311446134115283" x2="-2.4217162272502812" y1="-13.409453349234795" y2="-72.78916696778678"/><line fill="none" stroke="#000" stroke-linecap="round" x1="-19.311446134115283" x2="-26.595638162150948" y1="-13.409453349234795" y2="11.32240737959512"/><line fill="none" stroke="#000" stroke-linecap="round" x1="-28.961180106298613" x2="-44.638646059338036" y1="19.52607610054561" y2="29.78911805194606"/><line fill="none" stroke="#000" stroke-linecap="round" x1="-28.961180106298613" x2="-25.139653759292923" y1="19.52607610054561" y2="7.007918118824421"/><line fill="none" stroke="#000" stroke-linecap="round" x1="-28.961180106298613" x2="-28.914833777793337" y1="19.52607610054561" y2="-0.18657912113958094"/><line fill="none" stroke="#000" stroke-linecap="round" x1="-28.961180106298613" x2="-26.595638162150948" y1="19.52607610054561" y2="11.32240737959512"/><line fill="none" stroke="#000" stroke-linecap="round" x1="-28.961180106298613" x2="-19.311446134115283" y1="19.52607610054561" y2="-13.409453349234795"/><line fill="none" stroke="#000" stroke-linecap="round" x1="54.07707619735947" x2="28.04259673075754" y1="62.840707021038654" y2="34.581187581973246"/><line fill="none" stroke="#000" stroke-linecap="round" x1="54.07707619735947" x2="51.956162761386" y1="62.840707021038654" y2="88.60068784792139"/><line fill="none" stroke="#000" stroke-linecap="round" x1="54.07707619735947" x2="42.44944167290157" y1="62.840707021038654" y2="73.7685595390957"/><line fill="none" stroke="#000" stroke-linecap="round" x1="54.07707619735947" x2="74.74188936311849" y1="62.840707021038654" y2="90.58136096684383"/><line fill="none" stroke="#000" stroke-linecap="round" x1="54.07707619735947" x2="51.44251076614342" y1="62.840707021038654" y2="56.93994780346854"/><line fill="none" stroke="#000" stroke-linecap="round" x1="-28.914833777793337" x2="-26.595638162150948" y1="-0.18657912113958094" y2="11.32240737959512"/><line fill="none" stroke="#000" stroke-linecap="round" x1="-28.914833777793337" x2="-19.23371663021651" y1="-0.18657912113958094" y2="-20.694967540963894"/><line fill="none" stroke="#000" stroke-linecap="round" x1="-28.914833777793337" x2="-25.139653759292923" y1="-0.18657912113958094" y2="7.007918118824421"/><line fill="none" stroke="#000" stroke-linecap="round" x1="-28.914833777793337" x2="-25.447093594336838" y1="-0.18657912113958094" y2="9.452634206528002"/><line fill="none" stroke="#000" stroke-linecap="round" x1="-28.914833777793337" x2="-36.64381647688672" y1="-0.18657912113958094" y2="-4.296997047570697"/><line fill="none" stroke="#000" stroke-linecap="round" x1="-37.96441603756389" x2="-53.404869669505736" y1="-133.03701340674294" y2="-142.95113478310338"/><line fill="none" stroke="#000" stroke-linecap="round" x1="-37.96441603756389" x2="-62.055721914678294" y1="-133.03701340674294" y2="-125.01472126515952"/><line fill="none" stroke="#000" stroke-linecap="round" x1="-37.96441603756389" x2="-49.31257165647124" y1="-133.03701340674294" y2="-108.55375374293344"/><line fill="none" stroke="#000" stroke-linecap="round" x1="-37.96441603756389" x2="-22.359773172269108" y1="-133.03701340674294" y2="-141.6905653907118"/><line fill="none" stroke="#000" stroke-linecap="round" x1="-37.96441603756389" x2="-42.50493921766797" y1="-133.03701340674294" y2="-126.50182660685736"/><line fill="none" stroke="#000" stroke-linecap="round" x1="3.873319751283334" x2="46.475041466739064" y1="-25.960361148197258" y2="-25.565009141076818"/><line fill="none" stroke="#000" stroke-linecap="round" x1="3.873319751283334" x2="18.78565195048391" y1="-25.960361148197258" y2="-13.932897716628108"/><line fill="none" stroke="#000" stroke-linecap="round" x1="3.873319751283334" x2="-19.311446134115283" y1="-25.960361148197258" y2="-13.409453349234795"/><line fill="none" stroke="#000" stroke-linecap="round" x1="3.873319751283334" x2="-32.2499651825548" y1="-25.960361148197258" y2="-37.07866027904549"/><line fill="none" stroke="#000" stroke-linecap="round" x1="3.873319751283334" x2="13.134686677897205" y1="-25.960361148197258" y2="3.1256885362034152"/><line fill="none" stroke="#000" stroke-linecap="round" x1="-25.139653759292923" x2="-29.94563621157504" y1="7.007918118824421" y2="20.34022304670597"/><line fill="none" stroke="#000" stroke-linecap="round" x1="-25.139653759292923" x2="-37.49019747778453" y1="7.007918118824421" y2="15.433860748520022"/><line fill="none" stroke="#000" stroke-linecap="round" x1="-25.139653759292923" x2="-50.67817859027014" y1="7.007918118824421" y2="11.972462537847207"/><line fill="none" stroke="#000" stroke-linecap="round" x1="-25.139653759292923" x2="-33.034958003649315" y1="7.007918118824421" y2="-2.246616683533929"/><line fill="none" stroke="#000" stroke-linecap="round" x1="-25.139653759292923" x2="-28.961180106298613" y1="7.007918118824421" y2="19.52607610054561"/><line fill="none" stroke="#000" stroke-linecap="round" x1="46.475041466739064" x2="36.67235551726981" y1="-25.565009141076818" y2="-17.13910670333671"/><line fill="none" stroke="#000" stroke-linecap="round" x1="46.475041466739064" x2="3.873319751283334" y1="-25.565009141076818" y2="-25.960361148197258"/><line fill="none" stroke="#000" stroke-linecap="round" x1="46.475041466739064" x2="18.78565195048391" y1="-25.565009141076818" y2="-13.932897716628108"/><line fill="none" stroke="#000" stroke-linecap="round" x1="46.475041466739064" x2="61.17166645328962" y1="-25.565009141076818" y2="-35.269638696166865"/><line fill="none" stroke="#000" stroke-linecap="round" x1="46.475041466739064" x2="70.87748241805541" y1="-25.565009141076818" y2="-20.034706216559215"/><line fill="none" stroke="#000" stroke-linecap="round" x1="36.67235551726981" x2="34.103534866667964" y1="-17.13910670333671" y2="-11.48100314531017"/><line fill="none" stroke="#000" stroke-linecap="round" x1="36.67235551726981" x2="12.704553594889806" y1="-17.13910670333671" y2="-22.037866679248545"/><line fill="none" stroke="#000" stroke-linecap="round" x1="36.67235551726981" x2="42.7906194633463" y1="-17.13910670333671" y2="-44.33155340602165"/><line fill="none" stroke="#000" stroke-linecap="round" x1="36.67235551726981" x2="18.78565195048391" y1="-17.13910670333671" y2="-13.932897716628108"/><line fill="none" stroke="#000" stroke-linecap="round" x1="36.67235551726981" x2="32.397677590854954" y1="-17.13910670333671" y2="-30.26269439766621"/><line fill="none" stroke="#000" stroke-linecap="round" x1="-15.968059738473507" x2="-37.49019747778453" y1="37.976164972421614" y2="15.433860748520022"/><line fill="none" stroke="#000" stroke-linecap="round" x1="-15.968059738473507" x2="1.549860727478008" y1="37.976164972421614" y2="56.5580197483098"/><line fill="none" stroke="#000" stroke-linecap="round" x1="-15.968059738473507" x2="-4.2255821771686435" y1="37.976164972421614" y2="69.69726492651674"/><line fill="none" stroke="#000" stroke-linecap="round" x1="-15.968059738473507" x2="-4.716991966073512" y1="37.976164972421614" y2="17.398918091644788"/><line fill="none" stroke="#000" stroke-linecap="round" x1="-15.968059738473507" x2="2.096368598269288" y1="37.976164972421614" y2="33.14428945570235"/><line fill="none" stroke="#000" stroke-linecap="round" x1="-42.78400292445701" x2="-57.29854234958666" y1="26.392663098357858" y2="2.788283567915747"/><line fill="none" stroke="#000" stroke-linecap="round" x1="-42.78400292445701" x2="-44.638646059338036" y1="26.392663098357858" y2="29.78911805194606"/><line fill="none" stroke="#000" stroke-linecap="round" x1="-42.78400292445701" x2="-61.00753385732744" y1="26.392663098357858" y2="41.70452032232085"/><line fill="none" stroke="#000" stroke-linecap="round" x1="-42.78400292445701" x2="-48.22916195589621" y1="26.392663098357858" y2="61.79250935107974"/><line fill="none" stroke="#000" stroke-linecap="round" x1="-42.78400292445701" x2="-26.595638162150948" y1="26.392663098357858" y2="11.32240737959512"/><line fill="none" stroke="#000" stroke-linecap="round" x1="35.66429836717421" x2="28.04259673075754" y1="20.40182856546925" y2="34.581187581973246"/><line fill="none" stroke="#000" stroke-linecap="round" x1="35.66429836717421" x2="54.07707619735947" y1="20.40182856546925" y2="62.840707021038654"/><line fill="none" stroke="#000" stroke-linecap="round" x1="35.66429836717421" x2="50.078677335890966" y1="20.40182856546925" y2="12.763083560483421"/><line fill="none" stroke="#000" stroke-linecap="round" x1="35.66429836717421" x2="36.67235551726981" y1="20.40182856546925" y2="-17.13910670333671"/><line fill="none" stroke="#000" stroke-linecap="round" x1="35.66429836717421" x2="-13.030428394671322" y1="20.40182856546925" y2="28.610866636637027"/><line fill="none" stroke="#000" stroke-linecap="round" x1="-32.2499651825548" x2="-19.23371663021651" y1="-37.07866027904549" y2="-20.694967540963894"/><line fill="none" stroke="#000" stroke-linecap="round" x1="-32.2499651825548" x2="-47.082120126796546" y1="-37.07866027904549" y2="-50.762155113776785"/><line fill="none" stroke="#000" stroke-linecap="round" x1="-32.2499651825548" x2="-63.867167270836404" y1="-37.07866027904549" y2="-47.006712734127106"/><line fill="none" stroke="#000" stroke-linecap="round" x1="-32.2499651825548" x2="-28.6514727933166" y1="-37.07866027904549" y2="-47.84957495880294"/><line fill="none" stroke="#000" stroke-linecap="round" x1="-32.2499651825548" x2="-35.88072177574663" y1="-37.07866027904549" y2="-29.72410585967597"/><line fill="none" stroke="#000" stroke-linecap="round" x1="-25.447093594336838" x2="-19.311446134115283" y1="9.452634206528002" y2="-13.409453349234795"/><line fill="none" stroke="#000" stroke-linecap="round" x1="-25.447093594336838" x2="-44.638646059338036" y1="9.452634206528002" y2="29.78911805194606"/><line fill="none" stroke="#000" stroke-linecap="round" x1="-25.447093594336838" x2="-15.846864450512815" y1="9.452634206528002" y2="21.00495066791087"/><line fill="none" stroke="#000" stroke-linecap="round" x1="-25.447093594336838" x2="-26.595638162150948" y1="9.452634206528002" y2="11.32240737959512"/><line fill="none" stroke="#000" stroke-linecap="round" x1="-25.447093594336838" x2="-17.03560564027558" y1="9.452634206528002" y2="4.991471231357723"/><line fill="none" stroke="#000" stroke-linecap="round" x1="-24.88589129334826" x2="-4.716991966073512" y1="-26.967494964007706" y2="17.398918091644788"/><line fill="none" stroke="#000" stroke-linecap="round" x1="-24.88589129334826" x2="-19.311446134115283" y1="-26.967494964007706" y2="-13.409453349234795"/><line fill="none" stroke="#000" stroke-linecap="round" x1="-24.88589129334826" x2="-56.52015837863145" y1="-26.967494964007706" y2="-59.641230016947645"/><line fill="none" stroke="#000" stroke-linecap="round" x1="-24.88589129334826" x2="-28.554238361068045" y1="-26.967494964007706" y2="-59.095295502777326"/><line fill="none" stroke="#000" stroke-linecap="round" x1="-24.88589129334826" x2="-32.2499651825548" y1="-26.967494964007706" y2="-37.07866027904549"/><line fill="none" stroke="#000" stroke-linecap="round" x1="-17.03560564027558" x2="-15.846864450512815" y1="4.991471231357723" y2="21.00495066791087"/><line fill="none" stroke="#000" stroke-linecap="round" x1="-17.03560564027558" x2="-19.311446134115283" y1="4.991471231357723" y2="-13.409453349234795"/><line fill="none" stroke="#000" stroke-linecap="round" x1="-17.03560564027558" x2="-25.447093594336838" y1="4.991471231357723" y2="9.452634206528002"/><line fill="none" stroke="#000" stroke-linecap="round" x1="-17.03560564027558" x2="28.04259673075754" y1="4.991471231357723" y2="34.581187581973246"/><line fill="none" stroke="#000" stroke-linecap="round" x1="-17.03560564027558" x2="-37.83844277592902" y1="4.991471231357723" y2="-16.511091062541382"/><line fill="none" stroke="#000" stroke-linecap="round" x1="-29.94563621157504" x2="-15.846864450512815" y1="20.34022304670597" y2="21.00495066791087"/><line fill="none" stroke="#000" stroke-linecap="round" x1="-29.94563621157504" x2="-25.139653759292923" y1="20.34022304670597" y2="7.007918118824421"/><line fill="none" stroke="#000" stroke-linecap="round" x1="-29.94563621157504" x2="-50.67817859027014" y1="20.34022304670597" y2="11.972462537847207"/><line fill="none" stroke="#000" stroke-linecap="round" x1="-29.94563621157504" x2="-42.78400292445701" y1="20.34022304670597" y2="26.392663098357858"/><line fill="none" stroke="#000" stroke-linecap="round" x1="-29.94563621157504" x2="-61.15721234211175" y1="20.34022304670597" y2="68.35443347028931"/><line fill="none" stroke="#000" stroke-linecap="round" x1="-26.595638162150948" x2="-28.914833777793337" y1="11.32240737959512" y2="-0.18657912113958094"/><line fill="none" stroke="#000" stroke-linecap="round" x1="-26.595638162150948" x2="-19.311446134115283" y1="11.32240737959512" y2="-13.409453349234795"/><line fill="none" stroke="#000" stroke-linecap="round" x1="-26.595638162150948" x2="-25.447093594336838" y1="11.32240737959512" y2="9.452634206528002"/><line fill="none" stroke="#000" stroke-linecap="round" x1="-26.595638162150948" x2="-17.03560564027558" y1="11.32240737959512" y2="4.991471231357723"/><line fill="none" stroke="#000" stroke-linecap="round" x1="-26.595638162150948" x2="-29.94563621157504" y1="11.32240737959512" y2="20.34022304670597"/><line fill="none" stroke="#000" stroke-linecap="round" x1="-78.23406704986307" x2="-106.6129669289748" y1="-0.10857971975916893" y2="-1.2598078964461759"/><line fill="none" stroke="#000" stroke-linecap="round" x1="-78.23406704986307" x2="-91.9196687991489" y1="-0.10857971975916893" y2="9.362825743234797"/><line fill="none" stroke="#000" stroke-linecap="round" x1="-78.23406704986307" x2="-97.02159095527799" y1="-0.10857971975916893" y2="-16.855075119310015"/><line fill="none" stroke="#000" stroke-linecap="round" x1="-78.23406704986307" x2="-75.64151637198749" y1="-0.10857971975916893" y2="-23.46981985832127"/><line fill="none" stroke="#000" stroke-linecap="round" x1="-78.23406704986307" x2="-82.47756642741165" y1="-0.10857971975916893" y2="-6.140475490818429"/><line fill="none" stroke="#000" stroke-linecap="round" x1="-33.034958003649315" x2="-91.83842284048853" y1="-2.246616683533929" y2="28.19272651204868"/><line fill="none" stroke="#000" stroke-linecap="round" x1="-33.034958003649315" x2="-37.83844277592902" y1="-2.246616683533929" y2="-16.511091062541382"/><line fill="none" stroke="#000" stroke-linecap="round" x1="-33.034958003649315" x2="-25.139653759292923" y1="-2.246616683533929" y2="7.007918118824421"/><line fill="none" stroke="#000" stroke-linecap="round" x1="-33.034958003649315" x2="-29.94563621157504" y1="-2.246616683533929" y2="20.34022304670597"/><line fill="none" stroke="#000" stroke-linecap="round" x1="-33.034958003649315" x2="-28.914833777793337" y1="-2.246616683533929" y2="-0.18657912113958094"/><line fill="none" stroke="#000" stroke-linecap="round" x1="-63.95101982231975" x2="-62.265177434682236" y1="36.45129726363089" y2="29.006239206200092"/><line fill="none" stroke="#000" stroke-linecap="round" x1="-63.95101982231975" x2="-66.016341123415" y1="36.45129726363089" y2="21.352741393051705"/><line fill="none" stroke="#000" stroke-linecap="round" x1="-63.95101982231975" x2="-77.87440930946727" y1="36.45129726363089" y2="34.55691410621281"/><line fill="none" stroke="#000" stroke-linecap="round" x1="-63.95101982231975" x2="-62.799400740400515" y1="36.45129726363089" y2="25.959992585495204"/><line fill="none" stroke="#000" stroke-linecap="round" x1="-63.95101982231975" x2="-42.78400292445701" y1="36.45129726363089" y2="26.392663098357858"/><line fill="none" stroke="#000" stroke-linecap="round" x1="-61.00753385732744" x2="-57.29854234958666" y1="41.70452032232085" y2="2.788283567915747"/><line fill="none" stroke="#000" stroke-linecap="round" x1="-61.00753385732744" x2="-36.34628266918327" y1="41.70452032232085" y2="72.32780669988134"/><line fill="none" stroke="#000" stroke-linecap="round" x1="-61.00753385732744" x2="-41.27685223000773" y1="41.70452032232085" y2="42.10708676422132"/><line fill="none" stroke="#000" stroke-linecap="round" x1="-61.00753385732744" x2="-80.1920766208398" y1="41.70452032232085" y2="59.799131326798395"/><line fill="none" stroke="#000" stroke-linecap="round" x1="-61.00753385732744" x2="-110.68904125727236" y1="41.70452032232085" y2="30.45804966233251"/><line fill="none" stroke="#000" stroke-linecap="round" x1="-41.27685223000773" x2="-36.34628266918327" y1="42.10708676422132" y2="72.32780669988134"/><line fill="none" stroke="#000" stroke-linecap="round" x1="-41.27685223000773" x2="-31.301433909580357" y1="42.10708676422132" y2="56.03821859448507"/><line fill="none" stroke="#000" stroke-linecap="round" x1="-41.27685223000773" x2="-62.265177434682236" y1="42.10708676422132" y2="29.006239206200092"/><line fill="none" stroke="#000" stroke-linecap="round" x1="-41.27685223000773" x2="-44.638646059338036" y1="42.10708676422132" y2="29.78911805194606"/><line fill="none" stroke="#000" stroke-linecap="round" x1="-41.27685223000773" x2="-15.846864450512815" y1="42.10708676422132" y2="21.00495066791087"/><line fill="none" stroke="#000" stroke-linecap="round" x1="-22.03654845277152" x2="-46.422251238243994" y1="115.4734585460874" y2="112.23499313002715"/><line fill="none" stroke="#000" stroke-linecap="round" x1="-22.03654845277152" x2="-3.067185613028962" y1="115.4734585460874" y2="114.56507610732282"/><line fill="none" stroke="#000" stroke-linecap="round" x1="-22.03654845277152" x2="-28.84096319901311" y1="115.4734585460874" y2="107.86374696042593"/><line fill="none" stroke="#000" stroke-linecap="round" x1="-22.03654845277152" x2="-32.76227809088354" y1="115.4734585460874" y2="130.08564662215605"/><line fill="none" stroke="#000" stroke-linecap="round" x1="-22.03654845277152" x2="-12.77338643247144" y1="115.4734585460874" y2="130.94089992087805"/><line fill="none" stroke="#000" stroke-linecap="round" x1="-31.568187859419094" x2="-55.21388740710693" y1="-79.33831770800903" y2="-81.52007493761309"/><line fill="none" stroke="#000" stroke-linecap="round" x1="-31.568187859419094" x2="-26.295777153929972" y1="-79.33831770800903" y2="-113.64706625354812"/><line fill="none" stroke="#000" stroke-linecap="round" x1="-31.568187859419094" x2="-56.52015837863145" y1="-79.33831770800903" y2="-59.641230016947645"/><line fill="none" stroke="#000" stroke-linecap="round" x1="-31.568187859419094" x2="-27.464116203846825" y1="-79.33831770800903" y2="-94.46905594396428"/><line fill="none" stroke="#000" stroke-linecap="round" x1="-31.568187859419094" x2="-9.747464342209792" y1="-79.33831770800903" y2="-99.68942305064851"/><line fill="none" stroke="#000" stroke-linecap="round" x1="2.096368598269288" x2="28.04259673075754" y1="33.14428945570235" y2="34.581187581973246"/><line fill="none" stroke="#000" stroke-linecap="round" x1="2.096368598269288" x2="-4.716991966073512" y1="33.14428945570235" y2="17.398918091644788"/><line fill="none" stroke="#000" stroke-linecap="round" x1="2.096368598269288" x2="-15.968059738473507" y1="33.14428945570235" y2="37.976164972421614"/><line fill="none" stroke="#000" stroke-linecap="round" x1="2.096368598269288" x2="-13.030428394671322" y1="33.14428945570235" y2="28.610866636637027"/><line fill="none" stroke="#000" stroke-linecap="round" x1="2.096368598269288" x2="-15.846864450512815" y1="33.14428945570235" y2="21.00495066791087"/><line fill="none" stroke="#000" stroke-linecap="round" x1="-66.016341123415" x2="-62.265177434682236" y1="21.352741393051705" y2="29.006239206200092"/><line fill="none" stroke="#000" stroke-linecap="round" x1="-66.016341123415" x2="-62.799400740400515" y1="21.352741393051705" y2="25.959992585495204"/><line fill="none" stroke="#000" stroke-linecap="round" x1="-66.016341123415" x2="-77.87440930946727" y1="21.352741393051705" y2="34.55691410621281"/><line fill="none" stroke="#000" stroke-linecap="round" x1="-66.016341123415" x2="-37.49019747778453" y1="21.352741393051705" y2="15.433860748520022"/><line fill="none" stroke="#000" stroke-linecap="round" x1="-66.016341123415" x2="-50.67817859027014" y1="21.352741393051705" y2="11.972462537847207"/><line fill="none" stroke="#000" stroke-linecap="round" x1="18.78565195048391" x2="3.873319751283334" y1="-13.932897716628108" y2="-25.960361148197258"/><line fill="none" stroke="#000" stroke-linecap="round" x1="18.78565195048391" x2="46.475041466739064" y1="-13.932897716628108" y2="-25.565009141076818"/><line fill="none" stroke="#000" stroke-linecap="round" x1="18.78565195048391" x2="13.134686677897205" y1="-13.932897716628108" y2="3.1256885362034152"/><line fill="none" stroke="#000" stroke-linecap="round" x1="18.78565195048391" x2="12.704553594889806" y1="-13.932897716628108" y2="-22.037866679248545"/><line fill="none" stroke="#000" stroke-linecap="round" x1="18.78565195048391" x2="36.67235551726981" y1="-13.932897716628108" y2="-17.13910670333671"/><line fill="none" stroke="#000" stroke-linecap="round" x1="-36.34628266918327" x2="-31.301433909580357" y1="72.32780669988134" y2="56.03821859448507"/><line fill="none" stroke="#000" stroke-linecap="round" x1="-36.34628266918327" x2="-41.27685223000773" y1="72.32780669988134" y2="42.10708676422132"/><line fill="none" stroke="#000" stroke-linecap="round" x1="-36.34628266918327" x2="-61.00753385732744" y1="72.32780669988134" y2="41.70452032232085"/><line fill="none" stroke="#000" stroke-linecap="round" x1="-36.34628266918327" x2="-22.03654845277152" y1="72.32780669988134" y2="115.4734585460874"/><line fill="none" stroke="#000" stroke-linecap="round" x1="-36.34628266918327" x2="-48.22916195589621" y1="72.32780669988134" y2="61.79250935107974"/><line fill="none" stroke="#000" stroke-linecap="round" x1="-4.716991966073512" x2="2.096368598269288" y1="17.398918091644788" y2="33.14428945570235"/><line fill="none" stroke="#000" stroke-linecap="round" x1="-4.716991966073512" x2="-13.030428394671322" y1="17.398918091644788" y2="28.610866636637027"/><line fill="none" stroke="#000" stroke-linecap="round" x1="-4.716991966073512" x2="-15.846864450512815" y1="17.398918091644788" y2="21.00495066791087"/><line fill="none" stroke="#000" stroke-linecap="round" x1="-4.716991966073512" x2="-25.139653759292923" y1="17.398918091644788" y2="7.007918118824421"/><line fill="none" stroke="#000" stroke-linecap="round" x1="-4.716991966073512" x2="-24.88589129334826" y1="17.398918091644788" y2="-26.967494964007706"/><line fill="none" stroke="#000" stroke-linecap="round" x1="-13.030428394671322" x2="-15.846864450512815" y1="28.610866636637027" y2="21.00495066791087"/><line fill="none" stroke="#000" stroke-linecap="round" x1="-13.030428394671322" x2="2.096368598269288" y1="28.610866636637027" y2="33.14428945570235"/><line fill="none" stroke="#000" stroke-linecap="round" x1="-13.030428394671322" x2="-4.716991966073512" y1="28.610866636637027" y2="17.398918091644788"/><line fill="none" stroke="#000" stroke-linecap="round" x1="-13.030428394671322" x2="-31.301433909580357" y1="28.610866636637027" y2="56.03821859448507"/><line fill="none" stroke="#000" stroke-linecap="round" x1="-13.030428394671322" x2="-29.94563621157504" y1="28.610866636637027" y2="20.34022304670597"/><line fill="none" stroke="#000" stroke-linecap="round" x1="-62.799400740400515" x2="-66.016341123415" y1="25.959992585495204" y2="21.352741393051705"/><line fill="none" stroke="#000" stroke-linecap="round" x1="-62.799400740400515" x2="-62.265177434682236" y1="25.959992585495204" y2="29.006239206200092"/><line fill="none" stroke="#000" stroke-linecap="round" x1="-62.799400740400515" x2="-77.87440930946727" y1="25.959992585495204" y2="34.55691410621281"/><line fill="none" stroke="#000" stroke-linecap="round" x1="-62.799400740400515" x2="-37.49019747778453" y1="25.959992585495204" y2="15.433860748520022"/><line fill="none" stroke="#000" stroke-linecap="round" x1="-62.799400740400515" x2="-13.030428394671322" y1="25.959992585495204" y2="28.610866636637027"/><line fill="none" stroke="#000" stroke-linecap="round" x1="28.04259673075754" x2="54.07707619735947" y1="34.581187581973246" y2="62.840707021038654"/><line fill="none" stroke="#000" stroke-linecap="round" x1="28.04259673075754" x2="2.096368598269288" y1="34.581187581973246" y2="33.14428945570235"/><line fill="none" stroke="#000" stroke-linecap="round" x1="28.04259673075754" x2="-4.716991966073512" y1="34.581187581973246" y2="17.398918091644788"/><line fill="none" stroke="#000" stroke-linecap="round" x1="28.04259673075754" x2="47.033794660665414" y1="34.581187581973246" y2="33.79150259245302"/><line fill="none" stroke="#000" stroke-linecap="round" x1="28.04259673075754" x2="51.956162761386" y1="34.581187581973246" y2="88.60068784792139"/><line fill="none" stroke="#000" stroke-linecap="round" x1="-44.638646059338036" x2="-21.384935829721226" y1="29.78911805194606" y2="77.05982267481764"/><line fill="none" stroke="#000" stroke-linecap="round" x1="-44.638646059338036" x2="-41.27685223000773" y1="29.78911805194606" y2="42.10708676422132"/><line fill="none" stroke="#000" stroke-linecap="round" x1="-44.638646059338036" x2="-94.08973770650249" y1="29.78911805194606" y2="46.72621303475654"/><line fill="none" stroke="#000" stroke-linecap="round" x1="-44.638646059338036" x2="-78.23406704986307" y1="29.78911805194606" y2="-0.10857971975916893"/><line fill="none" stroke="#000" stroke-linecap="round" x1="-44.638646059338036" x2="-28.961180106298613" y1="29.78911805194606" y2="19.52607610054561"/><line fill="none" stroke="#000" stroke-linecap="round" x1="-37.83844277592902" x2="-33.034958003649315" y1="-16.511091062541382" y2="-2.246616683533929"/><line fill="none" stroke="#000" stroke-linecap="round" x1="-37.83844277592902" x2="-28.914833777793337" y1="-16.511091062541382" y2="-0.18657912113958094"/><line fill="none" stroke="#000" stroke-linecap="round" x1="-37.83844277592902" x2="-44.638646059338036" y1="-16.511091062541382" y2="29.78911805194606"/><line fill="none" stroke="#000" stroke-linecap="round" x1="-37.83844277592902" x2="-17.03560564027558" y1="-16.511091062541382" y2="4.991471231357723"/><line fill="none" stroke="#000" stroke-linecap="round" x1="-37.83844277592902" x2="-31.568187859419094" y1="-16.511091062541382" y2="-79.33831770800903"/><line fill="none" stroke="#000" stroke-linecap="round" x1="-15.846864450512815" x2="-17.03560564027558" y1="21.00495066791087" y2="4.991471231357723"/><line fill="none" stroke="#000" stroke-linecap="round" x1="-15.846864450512815" x2="-29.94563621157504" y1="21.00495066791087" y2="20.34022304670597"/><line fill="none" stroke="#000" stroke-linecap="round" x1="-15.846864450512815" x2="-41.27685223000773" y1="21.00495066791087" y2="42.10708676422132"/><line fill="none" stroke="#000" stroke-linecap="round" x1="-15.846864450512815" x2="2.096368598269288" y1="21.00495066791087" y2="33.14428945570235"/><line fill="none" stroke="#000" stroke-linecap="round" x1="-15.846864450512815" x2="-13.030428394671322" y1="21.00495066791087" y2="28.610866636637027"/><line fill="none" stroke="#000" stroke-linecap="round" x1="-28.554238361068045" x2="-24.88589129334826" y1="-59.095295502777326" y2="-26.967494964007706"/><line fill="none" stroke="#000" stroke-linecap="round" x1="-28.554238361068045" x2="-40.54161641608267" y1="-59.095295502777326" y2="-72.30114826991287"/><line fill="none" stroke="#000" stroke-linecap="round" x1="-28.554238361068045" x2="7.119659318095167" y1="-59.095295502777326" y2="-85.13092333959705"/><line fill="none" stroke="#000" stroke-linecap="round" x1="-28.554238361068045" x2="-16.201381948476598" y1="-59.095295502777326" y2="-62.35517114493023"/><line fill="none" stroke="#000" stroke-linecap="round" x1="-28.554238361068045" x2="-3.3106093115482085" y1="-59.095295502777326" y2="-57.72220635650908"/><line fill="none" stroke="#000" stroke-linecap="round" x1="-50.67817859027014" x2="-29.94563621157504" y1="11.972462537847207" y2="20.34022304670597"/><line fill="none" stroke="#000" stroke-linecap="round" x1="-50.67817859027014" x2="-62.265177434682236" y1="11.972462537847207" y2="29.006239206200092"/><line fill="none" stroke="#000" stroke-linecap="round" x1="-50.67817859027014" x2="-57.29854234958666" y1="11.972462537847207" y2="2.788283567915747"/><line fill="none" stroke="#000" stroke-linecap="round" x1="-50.67817859027014" x2="-66.016341123415" y1="11.972462537847207" y2="21.352741393051705"/><line fill="none" stroke="#000" stroke-linecap="round" x1="-50.67817859027014" x2="-25.139653759292923" y1="11.972462537847207" y2="7.007918118824421"/><line fill="none" stroke="#000" stroke-linecap="round" x1="51.956162761386" x2="44.94899768305404" y1="88.60068784792139" y2="104.82619532320201"/><line fill="none" stroke="#000" stroke-linecap="round" x1="51.956162761386" x2="42.44944167290157" y1="88.60068784792139" y2="73.7685595390957"/><line fill="none" stroke="#000" stroke-linecap="round" x1="51.956162761386" x2="52.920194012309395" y1="88.60068784792139" y2="122.77435869210429"/><line fill="none" stroke="#000" stroke-linecap="round" x1="51.956162761386" x2="54.07707619735947" y1="88.60068784792139" y2="62.840707021038654"/><line fill="none" stroke="#000" stroke-linecap="round" x1="51.956162761386" x2="73.81166881479093" y1="88.60068784792139" y2="123.76861986401178"/><line fill="none" stroke="#000" stroke-linecap="round" x1="-31.301433909580357" x2="-41.27685223000773" y1="56.03821859448507" y2="42.10708676422132"/><line fill="none" stroke="#000" stroke-linecap="round" x1="-31.301433909580357" x2="-36.34628266918327" y1="56.03821859448507" y2="72.32780669988134"/><line fill="none" stroke="#000" stroke-linecap="round" x1="-31.301433909580357" x2="-44.638646059338036" y1="56.03821859448507" y2="29.78911805194606"/><line fill="none" stroke="#000" stroke-linecap="round" x1="-31.301433909580357" x2="-48.4610344830604" y1="56.03821859448507" y2="86.13878764322868"/><line fill="none" stroke="#000" stroke-linecap="round" x1="-31.301433909580357" x2="-14.310921143248581" y1="56.03821859448507" y2="56.94925203461983"/></svg>