<?xml version="1.0" ?><!DOCTYPE svg  PUBLIC '-//W3C//DTD SVG 1.1//EN'  'http://www.w3.org/Graphics/SVG/1.1/DTD/svg11.dtd'><svg height="380.000" viewBox="-716.000 -13.000 1182.000 380.000" width="1182.000" xmlns="http://www.w3.org/2000/svg"><line fill="none" stroke="none" stroke-linecap="round" stroke-width="2.0" x1="0.0" x2="0.0" y1="0.0" y2="0.0"/><polygon fill="none" fill-rule="evenodd" points="0.0,0.0 0.0,0.0 0.0,0.0" stroke-linejoin="round"/><line fill="none" stroke="none" stroke-linecap="round" stroke-width="2.0" x1="0.0" x2="0.0" y1="0.0" y2="0.0"/><line fill="none" stroke="none" stroke-linecap="round" stroke-width="2.0" x1="0.0" x2="0.0" y1="0.0" y2="0.0"/><polygon fill="none" fill-rule="evenodd" points="0.0,0.0 0.0,0.0 0.0,0.0" stroke-linejoin="round"/><line fill="none" stroke="none" stroke-linecap="round" stroke-width="2.0" x1="0.0" x2="0.0" y1="0.0" y2="0.0"/><line fill="none" stroke="none" stroke-linecap="round" stroke-width="2.0" x1="0.0" x2="0.0" y1="0.0" y2="0.0"/><polygon fill="none" fill-rule="evenodd" points="0.0,0.0 0.0,0.0 0.0,0.0" stroke-linejoin="round"/><line fill="none" stroke="none" stroke-linecap="round" stroke-width="2.0" x1="0.0" x2="0.0" y1="0.0" y2="0.0"/><line fill="none" stroke="none" stroke-linecap="round" stroke-width="2.0" x1="0.0" x2="0.0" y1="0.0" y2="0.0"/><polygon fill="none" fill-rule="evenodd" points="0.0,0.0 0.0,0.0 0.0,0.0" stroke-linejoin="round"/><line fill="none" stroke="none" stroke-linecap="round" stroke-width="2.0" x1="0.0" x2="0.0" y1="0.0" y2="0.0"/><line fill="none" stroke="none" stroke-linecap="round" stroke-width="2.0" x1="0.0" x2="0.0" y1="0.0" y2="0.0"/><polygon fill="none" fill-rule="evenodd" points="0.0,0.0 0.0,0.0 0.0,0.0" stroke-linejoin="round"/><line fill="none" stroke="none" stroke-linecap="round" stroke-width="2.0" x1="0.0" x2="0.0" y1="0.0" y2="0.0"/><line fill="none" stroke="none" stroke-linecap="round" stroke-width="2.0" x1="0.0" x2="0.0" y1="0.0" y2="0.0"/><polygon fill="none" fill-rule="evenodd" points="0.0,0.0 0.0,0.0 0.0,0.0" stroke-linejoin="round"/><line fill="none" stroke="none" stroke-linecap="round" stroke-width="2.0" x1="0.0" x2="0.0" y1="0.0" y2="0.0"/><line fill="none" stroke="none" stroke-linecap="round" stroke-width="2.0" x1="0.0" x2="0.0" y1="0.0" y2="0.0"/><polygon fill="none" fill-rule="evenodd" points="0.0,0.0 0.0,0.0 0.0,0.0" stroke-linejoin="round"/><line fill="none" stroke="none" stroke-linecap="round" stroke-width="2.0" x1="0.0" x2="0.0" y1="0.0" y2="0.0"/><line fill="none" stroke="none" stroke-linecap="round" stroke-width="2.0" x1="0.0" x2="0.0" y1="0.0" y2="0.0"/><polygon fill="none" fill-rule="evenodd" points="0.0,0.0 0.0,0.0 0.0,0.0" stroke-linejoin="round"/><polyline fill="none" points="-663.7329743590141,354.4595336224452 -661.2329743590141,353.7896606413674 -659.4028473400919,351.9595336224452 -658.7329743590141,349.4595336224452 -659.4028473400919,346.9595336224452 -661.2329743590141,345.12940660352297 -663.7329743590141,344.4595336224452 -666.2329743590141,345.12940660352297 -668.0631013779363,346.9595336224452 -668.7329743590141,349.4595336224452 -668.0631013779363,351.9595336224452 -666.2329743590141,353.7896606413674 -663.7329743590141,354.4595336224452" stroke="#ffa500" stroke-linecap="round" stroke-linejoin="round"/><polyline fill="none" points="-699.0073114722027,274.0218561101887 -696.5073114722027,273.3519831291109 -694.6771844532805,271.5218561101887 -694.0073114722027,269.0218561101887 -694.6771844532805,266.5218561101887 -696.5073114722027,264.6917290912665 -699.0073114722027,264.0218561101887 -701.5073114722027,264.6917290912665 -703.3374384911249,266.5218561101887 -704.0073114722027,269.0218561101887 -703.3374384911249,271.5218561101887 -701.5073114722027,273.3519831291109 -699.0073114722027,274.0218561101887" stroke="#00f" stroke-linecap="round" stroke-linejoin="round"/><polyline fill="none" points="-561.0475031091843,179.87094742898492 -558.5475031091843,179.20107444790713 -556.7173760902621,177.37094742898495 -556.0475031091843,174.87094742898495 -556.7173760902621,172.37094742898495 -558.5475031091843,170.54082041006274 -561.0475031091843,169.87094742898492 -563.5475031091843,170.5408204100627 -565.3776301281065,172.3709474289849 -566.0475031091843,174.8709474289849 -565.3776301281065,177.3709474289849 -563.5475031091843,179.2010744479071 -561.0475031091843,179.87094742898492" stroke="#ffa500" stroke-linecap="round" stroke-linejoin="round"/><polyline fill="none" points="-582.0491888105148,114.00430670559626 -579.5491888105148,113.33443372451846 -577.7190617915926,111.50430670559628 -577.0491888105148,109.00430670559628 -577.7190617915926,106.50430670559628 -579.5491888105148,104.67417968667408 -582.0491888105148,104.00430670559626 -584.5491888105148,104.67417968667407 -586.379315829437,106.50430670559625 -587.0491888105148,109.00430670559625 -586.379315829437,111.50430670559625 -584.5491888105148,113.33443372451845 -582.0491888105148,114.00430670559626" stroke="#ffa500" stroke-linecap="round" stroke-linejoin="round"/><polyline fill="none" points="-606.0456765562075,274.26594137588506 -603.5456765562075,273.5960683948073 -601.7155495372853,271.76594137588506 -601.0456765562075,269.26594137588506 -601.7155495372853,266.76594137588506 -603.5456765562075,264.93581435696285 -606.0456765562075,264.265941375885 -608.5456765562075,264.9358143569628 -610.3758035751297,266.765941375885 -611.0456765562075,269.265941375885 -610.3758035751297,271.765941375885 -608.5456765562075,273.5960683948072 -606.0456765562075,274.26594137588506" stroke="#00f" stroke-linecap="round" stroke-linejoin="round"/><polyline fill="none" points="-656.5442076776881,348.9499957637789 -654.0442076776881,348.2801227827011 -652.2140806587659,346.4499957637789 -651.5442076776881,343.9499957637789 -652.2140806587659,341.4499957637789 -654.0442076776881,339.61986874485666 -656.5442076776881,338.9499957637788 -659.0442076776881,339.6198687448566 -660.8743346966103,341.4499957637788 -661.5442076776881,343.9499957637788 -660.8743346966103,346.4499957637788 -659.0442076776881,348.280122782701 -656.5442076776881,348.9499957637789" stroke="#ffa500" stroke-linecap="round" stroke-linejoin="round"/><polyline fill="none" points="-627.1016795203344,257.8100278710034 -624.6016795203344,257.1401548899256 -622.7715525014122,255.31002787100343 -622.1016795203344,252.81002787100343 -622.7715525014122,250.31002787100343 -624.6016795203344,248.47990085208122 -627.1016795203344,247.8100278710034 -629.6016795203344,248.4799008520812 -631.4318065392566,250.31002787100337 -632.1016795203344,252.81002787100337 -631.4318065392566,255.31002787100337 -629.6016795203344,257.14015488992555 -627.1016795203344,257.8100278710034" stroke="#ffa500" stroke-linecap="round" stroke-linejoin="round"/><polyline fill="none" points="-614.1557563228289,269.41473605375825 -611.6557563228289,268.74486307268046 -609.8256293039067,266.9147360537583 -609.1557563228289,264.4147360537583 -609.8256293039067,261.9147360537583 -611.6557563228289,260.0846090348361 -614.1557563228289,259.41473605375825 -616.6557563228289,260.08460903483603 -618.4858833417511,261.9147360537582 -619.1557563228289,264.4147360537582 -618.4858833417511,266.9147360537582 -616.6557563228289,268.7448630726804 -614.1557563228289,269.41473605375825" stroke="#f00" stroke-linecap="round" stroke-linejoin="round"/><polyline fill="none" points="402.63007029568024,331.1040760465792 405.13007029568024,330.43420306550144 406.96019731460245,328.6040760465793 407.6300702956803,326.1040760465793 406.9601973146025,323.6040760465793 405.13007029568035,321.77394902765707 402.63007029568035,321.1040760465792 400.13007029568035,321.773949027657 398.29994327675814,323.60407604657917 397.6300702956803,326.10407604657917 398.2999432767581,328.60407604657917 400.13007029568024,330.4342030655014 402.63007029568024,331.1040760465792" stroke="#ffa500" stroke-linecap="round" stroke-linejoin="round"/><polyline fill="none" points="-600.1021873472471,318.70039545930507 -597.6021873472471,318.0305224782273 -595.7720603283249,316.2003954593051 -595.1021873472471,313.7003954593051 -595.7720603283249,311.2003954593051 -597.6021873472471,309.3702684403829 -600.1021873472471,308.70039545930507 -602.6021873472471,309.37026844038286 -604.4323143661693,311.200395459305 -605.1021873472471,313.700395459305 -604.4323143661693,316.200395459305 -602.6021873472471,318.0305224782272 -600.1021873472471,318.70039545930507" stroke="#ffa500" stroke-linecap="round" stroke-linejoin="round"/><polyline fill="none" points="-680.9313863632599,354.5582448088513 -678.4313863632599,353.88837182777354 -676.6012593443377,352.0582448088514 -675.9313863632599,349.5582448088514 -676.6012593443377,347.0582448088514 -678.4313863632599,345.2281177899292 -680.9313863632599,344.5582448088513 -683.4313863632599,345.2281177899291 -685.2615133821821,347.05824480885127 -685.9313863632599,349.55824480885127 -685.2615133821821,352.05824480885127 -683.4313863632599,353.8883718277735 -680.9313863632599,354.5582448088513" stroke="#ffa500" stroke-linecap="round" stroke-linejoin="round"/><polyline fill="none" points="418.0918452774467,344.217542707092 420.5918452774467,343.5476697260142 422.4219722963689,341.71754270709204 423.09184527744674,339.21754270709204 422.42197229636895,336.71754270709204 420.5918452774468,334.8874156881698 418.0918452774468,334.217542707092 415.5918452774468,334.88741568816977 413.7617182585246,336.7175427070919 413.09184527744674,339.2175427070919 413.7617182585245,341.7175427070919 415.5918452774467,343.54766972601413 418.0918452774467,344.217542707092" stroke="#00f" stroke-linecap="round" stroke-linejoin="round"/><polyline fill="none" points="-626.1202271924896,302.08165592746906 -623.6202271924896,301.41178294639127 -621.7901001735673,299.5816559274691 -621.1202271924896,297.0816559274691 -621.7901001735673,294.5816559274691 -623.6202271924896,292.7515289085469 -626.1202271924896,292.08165592746906 -628.6202271924896,292.75152890854685 -630.4503542114118,294.581655927469 -631.1202271924896,297.081655927469 -630.4503542114118,299.581655927469 -628.6202271924896,301.4117829463912 -626.1202271924896,302.08165592746906" stroke="#00f" stroke-linecap="round" stroke-linejoin="round"/><polyline fill="none" points="-594.6932431135376,249.75287362798778 -592.1932431135376,249.08300064691 -590.3631160946154,247.2528736279878 -589.6932431135376,244.7528736279878 -590.3631160946154,242.25287362798778 -592.1932431135376,240.42274660906557 -594.6932431135376,239.75287362798773 -597.1932431135376,240.4227466090655 -599.0233701324598,242.2528736279877 -599.6932431135376,244.7528736279877 -599.0233701324598,247.25287362798773 -597.1932431135376,249.08300064690994 -594.6932431135376,249.75287362798778" stroke="#008000" stroke-linecap="round" stroke-linejoin="round"/><polyline fill="none" points="-591.0054008714742,141.57603773951135 -588.5054008714742,140.90616475843356 -586.675273852552,139.07603773951138 -586.0054008714741,136.57603773951138 -586.6752738525519,134.07603773951135 -588.5054008714741,132.2459107205891 -591.0054008714741,131.57603773951126 -593.5054008714741,132.24591072058905 -595.3355278903963,134.07603773951124 -596.0054008714742,136.57603773951124 -595.3355278903964,139.07603773951126 -593.5054008714742,140.9061647584335 -591.0054008714742,141.57603773951135" stroke="#00f" stroke-linecap="round" stroke-linejoin="round"/><polyline fill="none" points="-640.0758822216801,271.62447023430724 -637.5758822216801,270.95459725322945 -635.7457552027579,269.1244702343073 -635.07588222168,266.6244702343073 -635.7457552027578,264.1244702343073 -637.57588222168,262.2943432153851 -640.07588222168,261.62447023430724 -642.57588222168,262.294343215385 -644.4060092406022,264.1244702343072 -645.0758822216801,266.6244702343072 -644.4060092406023,269.1244702343072 -642.5758822216801,270.9545972532294 -640.0758822216801,271.62447023430724" stroke="#00f" stroke-linecap="round" stroke-linejoin="round"/><polyline fill="none" points="-572.1961054251171,215.8434008019028 -569.6961054251171,215.17352782082503 -567.8659784061949,213.34340080190285 -567.196105425117,210.84340080190285 -567.8659784061948,208.34340080190282 -569.696105425117,206.51327378298058 -572.196105425117,205.84340080190273 -574.696105425117,206.5132737829805 -576.5262324440392,208.34340080190267 -577.1961054251171,210.84340080190267 -576.5262324440394,213.3434008019027 -574.6961054251171,215.17352782082494 -572.1961054251171,215.8434008019028" stroke="#ffa500" stroke-linecap="round" stroke-linejoin="round"/><polyline fill="none" points="-626.5373815435744,217.53584623966387 -624.0373815435744,216.8659732585861 -622.2072545246522,215.03584623966393 -621.5373815435743,212.53584623966393 -622.2072545246521,210.0358462396639 -624.0373815435743,208.20571922074166 -626.5373815435743,207.5358462396638 -629.0373815435743,208.20571922074157 -630.8675085624965,210.03584623966375 -631.5373815435744,212.53584623966375 -630.8675085624966,215.03584623966378 -629.0373815435744,216.86597325858602 -626.5373815435744,217.53584623966387" stroke="#00f" stroke-linecap="round" stroke-linejoin="round"/><polyline fill="none" points="-565.7427821567759,324.65915668138877 -563.2427821567759,323.989283700311 -561.4126551378537,322.1591566813888 -560.7427821567758,319.6591566813888 -561.4126551378536,317.1591566813888 -563.2427821567758,315.3290296624666 -565.7427821567758,314.65915668138877 -568.2427821567758,315.32902966246655 -570.072909175698,317.1591566813887 -570.7427821567759,319.6591566813887 -570.0729091756981,322.1591566813887 -568.2427821567759,323.9892837003109 -565.7427821567759,324.65915668138877" stroke="#ffa500" stroke-linecap="round" stroke-linejoin="round"/><polyline fill="none" points="-618.2868588338887,183.1003379592737 -615.7868588338887,182.43046497819594 -613.9567318149665,180.6003379592738 -613.2868588338886,178.1003379592738 -613.9567318149664,175.60033795927376 -615.7868588338886,173.77021094035152 -618.2868588338886,173.10033795927365 -620.7868588338886,173.7702109403514 -622.6169858528108,175.60033795927356 -623.2868588338887,178.10033795927356 -622.6169858528109,180.6003379592736 -620.7868588338887,182.43046497819583 -618.2868588338887,183.1003379592737" stroke="#ffa500" stroke-linecap="round" stroke-linejoin="round"/><polyline fill="none" points="422.3835592731535,354.3186298679428 424.8835592731535,353.648756886865 426.7136862920757,351.81862986794283 427.38355927315354,349.31862986794283 426.71368629207575,346.81862986794283 424.8835592731536,344.98850284902056 422.3835592731536,344.3186298679427 419.88355927315354,344.9885028490205 418.05343225423127,346.81862986794266 417.3835592731534,349.31862986794266 418.0534322542312,351.8186298679427 419.88355927315337,353.648756886865 422.38355927315337,354.31862986794283" stroke="#ffa500" stroke-linecap="round" stroke-linejoin="round"/><polyline fill="none" points="-624.7155651237471,272.6629306704688 -622.2155651237471,271.9930576893911 -620.3854381048249,270.16293067046894 -619.715565123747,267.66293067046894 -620.3854381048247,265.1629306704689 -622.215565123747,263.3328036515466 -624.715565123747,262.66293067046877 -627.215565123747,263.3328036515465 -629.0456921426692,265.16293067046865 -629.7155651237471,267.66293067046865 -629.0456921426693,270.1629306704687 -627.2155651237471,271.993057689391 -624.7155651237471,272.6629306704688" stroke="#008000" stroke-linecap="round" stroke-linejoin="round"/><polyline fill="none" points="-538.0784207615899,311.0594540799859 -535.5784207615899,310.3895810989082 -533.7482937426677,308.55945407998604 -533.0784207615898,306.05945407998604 -533.7482937426676,303.559454079986 -535.5784207615898,301.7293270610637 -538.0784207615898,301.05945407998587 -540.5784207615898,301.7293270610636 -542.408547780512,303.55945407998576 -543.0784207615899,306.05945407998576 -542.4085477805121,308.5594540799858 -540.5784207615899,310.3895810989081 -538.0784207615899,311.0594540799859" stroke="#ffa500" stroke-linecap="round" stroke-linejoin="round"/><polyline fill="none" points="-635.5708360120324,269.09481501641847 -633.0708360120324,268.42494203534073 -631.2407089931102,266.5948150164186 -630.5708360120323,264.0948150164186 -631.24070899311,261.5948150164185 -633.0708360120323,259.76468799749625 -635.5708360120323,259.0948150164184 -638.0708360120323,259.76468799749614 -639.9009630309545,261.5948150164183 -640.5708360120324,264.0948150164183 -639.9009630309546,266.59481501641835 -638.0708360120324,268.4249420353406 -635.5708360120324,269.09481501641847" stroke="#008000" stroke-linecap="round" stroke-linejoin="round"/><polyline fill="none" points="-573.6230496713248,225.35130401892403 -571.1230496713248,224.68143103784627 -569.2929226524026,222.8513040189241 -568.6230496713247,220.3513040189241 -569.2929226524025,217.85130401892408 -571.1230496713247,216.02117700000184 -573.6230496713247,215.35130401892397 -576.1230496713247,216.02117700000173 -577.9531766902469,217.85130401892388 -578.6230496713248,220.35130401892388 -577.953176690247,222.8513040189239 -576.1230496713248,224.68143103784615 -573.6230496713248,225.35130401892403" stroke="#00f" stroke-linecap="round" stroke-linejoin="round"/><polyline fill="none" points="420.22799921880363,329.38042686344113 422.7279992188037,328.7105538823634 424.55812623772596,326.88042686344124 425.22799921880386,324.38042686344124 424.5581262377261,321.8804268634412 422.727999218804,320.0502998445189 420.227999218804,319.380426863441 417.7279992188039,320.05029984451875 415.89787219988165,321.8804268634409 415.22799921880375,324.3804268634409 415.8978721998815,326.88042686344096 417.72799921880363,328.71055388236323 420.22799921880363,329.38042686344113" stroke="#ffa500" stroke-linecap="round" stroke-linejoin="round"/><polyline fill="none" points="-571.2470950854321,302.27590461583407 -568.7470950854321,301.60603163475633 -566.9169680665099,299.7759046158342 -566.247095085432,297.2759046158342 -566.9169680665098,294.7759046158341 -568.747095085432,292.94577759691185 -571.247095085432,292.27590461583395 -573.747095085432,292.9457775969117 -575.5772221043542,294.77590461583384 -576.2470950854321,297.27590461583384 -575.5772221043543,299.7759046158339 -573.7470950854321,301.60603163475616 -571.2470950854321,302.27590461583407" stroke="#00f" stroke-linecap="round" stroke-linejoin="round"/><polyline fill="none" points="-562.8500545067451,116.00055532070435 -560.3500545067451,115.3306823396266 -558.5199274878229,113.50055532070445 -557.850054506745,111.00055532070445 -558.5199274878228,108.50055532070441 -560.350054506745,106.67042830178215 -562.850054506745,106.00055532070427 -565.350054506745,106.67042830178201 -567.1801815256672,108.50055532070417 -567.8500545067451,111.00055532070417 -567.1801815256673,113.50055532070421 -565.3500545067451,115.33068233962646 -562.8500545067451,116.00055532070435" stroke="#ffa500" stroke-linecap="round" stroke-linejoin="round"/><polyline fill="none" points="-616.6163865970941,264.8178253578254 -614.1163865970941,264.1479523767477 -612.2862595781719,262.31782535782554 -611.616386597094,259.81782535782554 -612.2862595781718,257.3178253578255 -614.116386597094,255.48769833890321 -616.616386597094,254.81782535782534 -619.116386597094,255.48769833890307 -620.9465136160162,257.31782535782526 -621.6163865970941,259.81782535782526 -620.9465136160163,262.3178253578253 -619.1163865970941,264.1479523767476 -616.6163865970941,264.8178253578255" stroke="#008000" stroke-linecap="round" stroke-linejoin="round"/><polyline fill="none" points="-521.0121544420996,219.79097019020728 -518.5121544420996,219.12109720912954 -516.6820274231774,217.2909701902074 -516.0121544420995,214.7909701902074 -516.6820274231773,212.29097019020736 -518.5121544420994,210.4608431712851 -521.0121544420994,209.79097019020722 -523.5121544420994,210.46084317128495 -525.3422814610216,212.2909701902071 -526.0121544420995,214.7909701902071 -525.3422814610217,217.29097019020713 -523.5121544420996,219.1210972091294 -521.0121544420996,219.7909701902073" stroke="#ffa500" stroke-linecap="round" stroke-linejoin="round"/><polyline fill="none" points="-699.5393634092962,332.335726758667 -697.0393634092962,331.6658537775893 -695.209236390374,329.83572675866714 -694.5393634092961,327.33572675866714 -695.2092363903739,324.8357267586671 -697.039363409296,323.0055997397448 -699.539363409296,322.3357267586669 -702.039363409296,323.00559973974464 -703.8694904282182,324.8357267586668 -704.5393634092961,327.3357267586668 -703.8694904282183,329.83572675866685 -702.0393634092962,331.6658537775891 -699.5393634092962,332.335726758667" stroke="#ffa500" stroke-linecap="round" stroke-linejoin="round"/><polyline fill="none" points="448.631390804502,353.8251646670735 451.1313908045021,353.1552916859958 452.96151782342434,351.32516466707364 453.63139080450225,348.82516466707364 452.9615178234245,346.3251646670736 451.13139080450236,344.4950376481513 448.63139080450236,343.8251646670734 446.1313908045023,344.49503764815114 444.30126378558003,346.3251646670733 443.63139080450213,348.8251646670733 444.30126378557986,351.32516466707335 446.131390804502,353.1552916859956 448.631390804502,353.8251646670735" stroke="#ffa500" stroke-linecap="round" stroke-linejoin="round"/><polyline fill="none" points="-630.7285734681732,195.46571164773889 -628.2285734681732,194.79583866666115 -626.3984464492509,192.965711647739 -625.728573468173,190.465711647739 -626.3984464492507,187.96571164773894 -628.2285734681728,186.13558462881667 -630.7285734681728,185.46571164773877 -633.2285734681728,186.1355846288165 -635.0587004870952,187.96571164773866 -635.7285734681731,190.46571164773866 -635.0587004870954,192.96571164773871 -633.2285734681733,194.79583866666098 -630.7285734681733,195.46571164773889" stroke="#ffa500" stroke-linecap="round" stroke-linejoin="round"/><polyline fill="none" points="-641.4346266620594,296.69009570403057 -638.9346266620594,296.02022272295284 -637.104499643137,294.1900957040307 -636.4346266620591,291.6900957040307 -637.1044996431368,289.1900957040306 -638.9346266620589,287.35996868510836 -641.4346266620589,286.69009570403045 -643.9346266620589,287.3599686851082 -645.7647536809812,289.19009570403034 -646.4346266620591,291.69009570403034 -645.7647536809815,294.1900957040304 -643.9346266620594,296.02022272295267 -641.4346266620594,296.69009570403057" stroke="#00f" stroke-linecap="round" stroke-linejoin="round"/><polyline fill="none" points="-521.6547431315898,191.32168375008706 -519.1547431315898,190.65181076900933 -517.3246161126675,188.82168375008717 -516.6547431315896,186.32168375008717 -517.3246161126673,183.82168375008712 -519.1547431315894,181.99155673116485 -521.6547431315894,181.32168375008695 -524.1547431315894,181.99155673116468 -525.9848701505117,183.82168375008683 -526.6547431315896,186.32168375008683 -525.9848701505119,188.8216837500869 -524.1547431315898,190.65181076900916 -521.6547431315898,191.32168375008706" stroke="#ffa500" stroke-linecap="round" stroke-linejoin="round"/><polyline fill="none" points="-566.8820825955149,257.6919578671275 -564.3820825955149,257.02208488604975 -562.5519555765926,255.1919578671276 -561.8820825955147,252.6919578671276 -562.5519555765924,250.19195786712754 -564.3820825955145,248.36183084820527 -566.8820825955145,247.69195786712737 -569.3820825955145,248.3618308482051 -571.2122096144368,250.19195786712726 -571.8820825955147,252.69195786712726 -571.212209614437,255.19195786712731 -569.3820825955149,257.0220848860496 -566.8820825955149,257.6919578671275" stroke="#ffa500" stroke-linecap="round" stroke-linejoin="round"/><polyline fill="none" points="-568.2792442006128,134.61524799541777 -565.7792442006128,133.94537501434004 -563.9491171816904,132.1152479954179 -563.2792442006125,129.6152479954179 -563.9491171816902,127.11524799541783 -565.7792442006123,125.28512097649555 -568.2792442006123,124.61524799541765 -570.7792442006123,125.28512097649536 -572.6093712195346,127.1152479954175 -573.2792442006125,129.61524799541752 -572.6093712195349,132.11524799541758 -570.7792442006128,133.94537501433985 -568.2792442006128,134.61524799541775" stroke="#ffa500" stroke-linecap="round" stroke-linejoin="round"/><polyline fill="none" points="-597.5606585405134,267.6876076868706 -595.0606585405134,267.01773470579286 -593.230531521591,265.1876076868707 -592.5606585405131,262.6876076868707 -593.2305315215908,260.18760768687065 -595.0606585405129,258.3574806679484 -597.5606585405129,257.6876076868705 -600.0606585405129,258.3574806679482 -601.8907855594352,260.18760768687036 -602.5606585405131,262.68760768687036 -601.8907855594355,265.1876076868704 -600.0606585405134,267.0177347057927 -597.5606585405134,267.6876076868706" stroke="#00f" stroke-linecap="round" stroke-linejoin="round"/><polyline fill="none" points="-533.8706647138509,280.5951156130707 -531.3706647138509,279.92524263199294 -529.5405376949286,278.0951156130708 -528.8706647138507,275.5951156130708 -529.5405376949284,273.09511561307073 -531.3706647138505,271.26498859414846 -533.8706647138505,270.59511561307056 -536.3706647138505,271.2649885941483 -538.2007917327728,273.09511561307045 -538.8706647138507,275.59511561307045 -538.200791732773,278.0951156130705 -536.3706647138509,279.9252426319928 -533.8706647138509,280.5951156130707" stroke="#ffa500" stroke-linecap="round" stroke-linejoin="round"/><polyline fill="none" points="-696.8752181334216,279.6239397648695 -694.3752181334216,278.95406678379175 -692.5450911144993,277.1239397648696 -691.8752181334214,274.6239397648696 -692.5450911144991,272.12393976486953 -694.3752181334212,270.29381274594726 -696.8752181334212,269.62393976486936 -699.3752181334212,270.2938127459471 -701.2053451523435,272.12393976486925 -701.8752181334214,274.62393976486925 -701.2053451523437,277.1239397648693 -699.3752181334216,278.9540667837916 -696.8752181334216,279.6239397648695" stroke="#00f" stroke-linecap="round" stroke-linejoin="round"/><polyline fill="none" points="-694.4096134394425,248.49102802159857 -691.9096134394425,247.82115504052086 -690.0794864205202,245.99102802159874 -689.4096134394423,243.49102802159874 -690.07948642052,240.99102802159868 -691.9096134394421,239.16090100267638 -694.4096134394421,238.49102802159845 -696.9096134394421,239.16090100267616 -698.7397404583644,240.99102802159828 -699.4096134394423,243.49102802159828 -698.7397404583646,245.99102802159834 -696.9096134394425,247.82115504052064 -694.4096134394425,248.49102802159857" stroke="#ffa500" stroke-linecap="round" stroke-linejoin="round"/><polyline fill="none" points="-609.5354768386276,263.5397204431708 -607.0354768386275,262.86984746209305 -605.2053498197051,261.0397204431709 -604.5354768386272,258.5397204431709 -605.2053498197049,256.03972044317084 -607.035476838627,254.20959342424854 -609.535476838627,253.5397204431706 -612.0354768386271,254.2095934242483 -613.8656038575494,256.03972044317044 -614.5354768386273,258.53972044317044 -613.8656038575497,261.0397204431705 -612.0354768386276,262.86984746209276 -609.5354768386276,263.53972044317067" stroke="#00f" stroke-linecap="round" stroke-linejoin="round"/><polyline fill="none" points="-565.0958022068083,271.9166844981365 -562.5958022068082,271.24681151705875 -560.7656751878859,269.4166844981366 -560.095802206808,266.9166844981366 -560.7656751878857,264.41668449813653 -562.5958022068078,262.58655747921426 -565.0958022068078,261.91668449813636 -567.5958022068079,262.5865574792141 -569.4259292257302,264.41668449813625 -570.0958022068081,266.91668449813625 -569.4259292257304,269.4166844981363 -567.5958022068083,271.2468115170586 -565.0958022068083,271.9166844981365" stroke="#ffa500" stroke-linecap="round" stroke-linejoin="round"/><polyline fill="none" points="-679.4929101364221,270.7232957278165 -676.992910136422,270.05342274673876 -675.1627831174997,268.2232957278166 -674.4929101364218,265.7232957278166 -675.1627831174994,263.22329572781655 -676.9929101364215,261.3931687088943 -679.4929101364215,260.7232957278164 -681.9929101364216,261.3931687088941 -683.823037155344,263.22329572781626 -684.4929101364219,265.72329572781626 -683.8230371553442,268.2232957278163 -681.9929101364221,270.0534227467386 -679.4929101364221,270.7232957278165" stroke="#00f" stroke-linecap="round" stroke-linejoin="round"/><polyline fill="none" points="-540.8216698262156,188.688102423749 -538.3216698262155,188.0182294426713 -536.4915428072932,186.18810242374917 -535.8216698262153,183.68810242374917 -536.491542807293,181.18810242374911 -538.321669826215,179.35797540482682 -540.821669826215,178.6881024237489 -543.3216698262152,179.3579754048266 -545.1517968451375,181.18810242374872 -545.8216698262154,183.68810242374872 -545.1517968451377,186.18810242374877 -543.3216698262156,188.01822944267107 -540.8216698262156,188.688102423749" stroke="#ffa500" stroke-linecap="round" stroke-linejoin="round"/><polyline fill="none" points="-571.9514702516794,243.5035547611121 -569.4514702516793,242.8336817800344 -567.621343232757,241.00355476111227 -566.9514702516791,238.50355476111227 -567.6213432327568,236.0035547611122 -569.4514702516789,234.17342774218992 -571.9514702516789,233.50355476111199 -574.451470251679,234.1734277421897 -576.2815972706013,236.00355476111181 -576.9514702516792,238.50355476111181 -576.2815972706015,241.00355476111187 -574.4514702516794,242.83368178003417 -571.9514702516794,243.5035547611121" stroke="#00f" stroke-linecap="round" stroke-linejoin="round"/><polyline fill="none" points="-646.0044810538712,237.2107968017028 -643.5044810538711,236.5409238206251 -641.6743540349488,234.71079680170297 -641.0044810538709,232.21079680170297 -641.6743540349486,229.7107968017029 -643.5044810538707,227.88066978278061 -646.0044810538707,227.21079680170268 -648.5044810538708,227.8806697827804 -650.3346080727931,229.71079680170251 -651.004481053871,232.21079680170251 -650.3346080727933,234.71079680170257 -648.5044810538712,236.54092382062487 -646.0044810538712,237.2107968017028" stroke="#00f" stroke-linecap="round" stroke-linejoin="round"/><polyline fill="none" points="-604.8719189881587,308.9348604230794 -602.3719189881585,308.2649874420017 -600.5417919692362,306.43486042307956 -599.8719189881583,303.93486042307956 -600.541791969236,301.4348604230795 -602.3719189881581,299.6047334041572 -604.8719189881581,298.9348604230792 -607.3719189881582,299.6047334041569 -609.2020460070805,301.43486042307904 -609.8719189881584,303.93486042307904 -609.2020460070808,306.4348604230791 -607.3719189881587,308.2649874420014 -604.8719189881587,308.9348604230794" stroke="#00f" stroke-linecap="round" stroke-linejoin="round"/><polyline fill="none" points="-699.1962327602491,315.68851489118776 -696.696232760249,315.0186419101101 -694.8661057413267,313.18851489118794 -694.1962327602488,310.68851489118794 -694.8661057413265,308.1885148911879 -696.6962327602486,306.35838787226555 -699.1962327602486,305.6885148911876 -701.6962327602487,306.35838787226527 -703.526359779171,308.1885148911874 -704.1962327602489,310.6885148911874 -703.5263597791712,313.1885148911875 -701.6962327602491,315.0186419101098 -699.1962327602491,315.68851489118776" stroke="#ffa500" stroke-linecap="round" stroke-linejoin="round"/><polyline fill="none" points="-641.9408719469593,277.47588099212766 -639.4408719469592,276.80600801105 -637.6107449280369,274.9758809921278 -636.940871946959,272.4758809921278 -637.6107449280366,269.97588099212777 -639.4408719469587,268.14575397320544 -641.9408719469587,267.4758809921275 -644.4408719469589,268.14575397320516 -646.2709989658812,269.9758809921273 -646.9408719469591,272.4758809921273 -646.2709989658814,274.9758809921274 -644.4408719469593,276.8060080110497 -641.9408719469593,277.47588099212766" stroke="#ffa500" stroke-linecap="round" stroke-linejoin="round"/><polyline fill="none" points="-604.1849687758613,193.53120649622082 -601.6849687758612,192.86133351514312 -599.8548417569389,191.031206496221 -599.184968775861,188.531206496221 -599.8548417569386,186.03120649622093 -601.6849687758607,184.2010794772986 -604.1849687758607,183.53120649622068 -606.6849687758609,184.20107947729838 -608.5150957947832,186.0312064962205 -609.1849687758611,188.5312064962205 -608.5150957947834,191.03120649622056 -606.6849687758613,192.8613335151429 -604.1849687758613,193.53120649622085" stroke="#ffa500" stroke-linecap="round" stroke-linejoin="round"/><polyline fill="none" points="-602.8420864063509,119.32460369072521 -600.3420864063507,118.65473070964752 -598.5119593874284,116.8246036907254 -597.8420864063505,114.3246036907254 -598.5119593874282,111.82460369072533 -600.3420864063503,109.99447667180301 -602.8420864063503,109.32460369072507 -605.3420864063504,109.99447667180276 -607.1722134252727,111.82460369072489 -607.8420864063506,114.32460369072489 -607.172213425273,116.82460369072496 -605.3420864063509,118.65473070964727 -602.8420864063509,119.32460369072521" stroke="#ffa500" stroke-linecap="round" stroke-linejoin="round"/><polyline fill="none" points="-576.6978537450557,281.4120490179985 -574.1978537450556,280.74217603692085 -572.3677267261332,278.91204901799875 -571.6978537450553,276.41204901799875 -572.367726726133,273.9120490179987 -574.1978537450551,272.08192199907637 -576.6978537450551,271.4120490179984 -579.1978537450552,272.0819219990761 -581.0279807639776,273.9120490179982 -581.6978537450555,276.4120490179982 -581.0279807639778,278.91204901799824 -579.1978537450557,280.74217603692057 -576.6978537450557,281.4120490179985" stroke="#00f" stroke-linecap="round" stroke-linejoin="round"/><polyline fill="none" points="-620.9580696797872,262.7237630288243 -618.4580696797871,262.0538900477466 -616.6279426608647,260.2237630288245 -615.9580696797868,257.7237630288245 -616.6279426608645,255.22376302882444 -618.4580696797866,253.3936360099021 -620.9580696797866,252.72376302882415 -623.4580696797867,253.39363600990183 -625.288196698709,255.22376302882395 -625.958069679787,257.72376302882395 -625.2881966987093,260.223763028824 -623.4580696797872,262.05389004774634 -620.9580696797872,262.7237630288243" stroke="#008000" stroke-linecap="round" stroke-linejoin="round"/><polyline fill="none" points="-527.1732318455481,256.7505103087791 -524.673231845548,256.0806373277014 -522.8431048266257,254.2505103087793 -522.1732318455478,251.7505103087793 -522.8431048266254,249.2505103087792 -524.6732318455475,247.4203832898569 -527.1732318455475,246.75051030877893 -529.6732318455477,247.4203832898566 -531.50335886447,249.25051030877873 -532.1732318455479,251.75051030877873 -531.5033588644702,254.25051030877881 -529.6732318455481,256.08063732770114 -527.1732318455481,256.7505103087791" stroke="#ffa500" stroke-linecap="round" stroke-linejoin="round"/><polyline fill="none" points="-596.2483296175138,341.2941070980511 -593.7483296175137,340.6242341169734 -591.9182025985914,338.7941070980513 -591.2483296175135,336.2941070980513 -591.9182025985912,333.79410709805126 -593.7483296175133,331.96398007912893 -596.2483296175133,331.294107098051 -598.7483296175134,331.96398007912865 -600.5784566364357,333.79410709805074 -601.2483296175136,336.29410709805074 -600.5784566364359,338.7941070980508 -598.7483296175138,340.6242341169731 -596.2483296175138,341.2941070980511" stroke="#ffa500" stroke-linecap="round" stroke-linejoin="round"/><polyline fill="none" points="-524.2982443231109,238.790861667472 -521.7982443231108,238.12098868639433 -519.9681173041885,236.2908616674722 -519.2982443231105,233.7908616674722 -519.9681173041881,231.29086166747211 -521.7982443231102,229.4607346485498 -524.2982443231102,228.79086166747183 -526.7982443231103,229.4607346485495 -528.6283713420327,231.29086166747163 -529.2982443231107,233.79086166747163 -528.628371342033,236.29086166747172 -526.7982443231109,238.12098868639404 -524.2982443231109,238.790861667472" stroke="#ffa500" stroke-linecap="round" stroke-linejoin="round"/><polyline fill="none" points="-680.8263992220365,290.8330679332258 -678.3263992220363,290.1631949521481 -676.496272203114,288.333067933226 -675.826399222036,285.833067933226 -676.4962722031137,283.33306793322595 -678.3263992220358,281.5029409143036 -680.8263992220358,280.83306793322566 -683.3263992220359,281.50294091430334 -685.1565262409582,283.33306793322544 -685.8263992220362,285.83306793322544 -685.1565262409586,288.3330679332255 -683.3263992220365,290.1631949521478 -680.8263992220365,290.8330679332258" stroke="#ffa500" stroke-linecap="round" stroke-linejoin="round"/><polyline fill="none" points="-635.1285558320158,331.934569483411 -632.6285558320156,331.2646965023333 -630.7984288130933,329.4345694834112 -630.1285558320153,326.9345694834112 -630.798428813093,324.43456948341117 -632.6285558320151,322.60444246448884 -635.1285558320151,321.9345694834109 -637.6285558320152,322.60444246448856 -639.4586828509375,324.43456948341066 -640.1285558320155,326.93456948341066 -639.4586828509379,329.4345694834107 -637.6285558320158,331.26469650233304 -635.1285558320158,331.934569483411" stroke="#ffa500" stroke-linecap="round" stroke-linejoin="round"/><polyline fill="none" points="-550.0832826711858,228.0270855075609 -547.5832826711857,227.35721252648324 -545.7531556522633,225.5270855075611 -545.0832826711853,223.0270855075611 -545.753155652263,220.52708550756103 -547.5832826711851,218.6969584886387 -550.0832826711851,218.02708550756074 -552.5832826711852,218.69695848863842 -554.4134096901075,220.52708550756054 -555.0832826711855,223.02708550756054 -554.4134096901079,225.52708550756063 -552.5832826711858,227.35721252648295 -550.0832826711858,228.0270855075609" stroke="#00f" stroke-linecap="round" stroke-linejoin="round"/><polyline fill="none" points="-675.1357162517372,340.16996093759735 -672.6357162517371,339.5000879565197 -670.8055892328148,337.6699609375976 -670.1357162517368,335.1699609375976 -670.8055892328144,332.6699609375975 -672.6357162517365,330.8398339186752 -675.1357162517365,330.16996093759724 -677.6357162517367,330.8398339186749 -679.465843270659,332.669960937597 -680.135716251737,335.169960937597 -679.4658432706593,337.66996093759707 -677.6357162517372,339.5000879565194 -675.1357162517372,340.16996093759735" stroke="#ffa500" stroke-linecap="round" stroke-linejoin="round"/><polyline fill="none" points="-545.8423309370374,265.7231135996248 -543.3423309370373,265.05324061854714 -541.512203918115,263.22311359962504 -540.842330937037,260.72311359962504 -541.5122039181147,258.223113599625 -543.3423309370368,256.39298658070265 -545.8423309370368,255.72311359962467 -548.3423309370369,256.3929865807023 -550.1724579559592,258.2231135996244 -550.8423309370372,260.7231135996244 -550.1724579559595,263.22311359962447 -548.3423309370374,265.0532406185468 -545.8423309370374,265.72311359962475" stroke="#ffa500" stroke-linecap="round" stroke-linejoin="round"/><polyline fill="none" points="-590.881415031742,227.44373844291502 -588.3814150317419,226.77386546183735 -586.5512880128196,224.94373844291525 -585.8814150317415,222.44373844291525 -586.5512880128192,219.94373844291516 -588.3814150317413,218.1136114239928 -590.8814150317413,217.44373844291482 -593.3814150317414,218.1136114239925 -595.2115420506638,219.9437384429146 -595.8814150317418,222.4437384429146 -595.2115420506641,224.94373844291468 -593.381415031742,226.77386546183703 -590.881415031742,227.44373844291502" stroke="#00f" stroke-linecap="round" stroke-linejoin="round"/><polyline fill="none" points="-581.0118239976373,251.9781933778262 -578.5118239976372,251.30832039674854 -576.6816969787149,249.47819337782644 -576.0118239976368,246.97819337782644 -576.6816969787145,244.47819337782636 -578.5118239976366,242.648066358904 -581.0118239976366,241.97819337782602 -583.5118239976367,242.64806635890366 -585.341951016559,244.47819337782576 -586.0118239976371,246.97819337782576 -585.3419510165594,249.47819337782585 -583.5118239976373,251.3083203967482 -581.0118239976373,251.9781933778262" stroke="#00f" stroke-linecap="round" stroke-linejoin="round"/><polyline fill="none" points="-610.2309007701073,233.81335649279134 -607.7309007701072,233.1434835117137 -605.9007737511848,231.3133564927916 -605.2309007701068,228.8133564927916 -605.9007737511845,226.3133564927915 -607.7309007701066,224.48322947386916 -610.2309007701066,223.81335649279117 -612.7309007701067,224.48322947386882 -614.561027789029,226.31335649279092 -615.230900770107,228.81335649279092 -614.5610277890294,231.313356492791 -612.7309007701073,233.14348351171336 -610.2309007701073,233.81335649279134" stroke="#ffa500" stroke-linecap="round" stroke-linejoin="round"/><polyline fill="none" points="-659.7964681481948,333.3621324223496 -657.2964681481947,332.6922594412719 -655.4663411292723,330.8621324223498 -654.7964681481943,328.3621324223498 -655.466341129272,325.8621324223497 -657.2964681481941,324.0320054034274 -659.7964681481941,323.3621324223494 -662.2964681481942,324.0320054034271 -664.1265951671165,325.8621324223492 -664.7964681481945,328.3621324223492 -664.1265951671169,330.8621324223493 -662.2964681481948,332.69225944127163 -659.7964681481948,333.3621324223496" stroke="#00f" stroke-linecap="round" stroke-linejoin="round"/><polyline fill="none" points="-637.1233186283376,353.15243632881084 -634.6233186283375,352.48256334773316 -632.7931916094152,350.65243632881106 -632.1233186283372,348.15243632881106 -632.7931916094149,345.65243632881095 -634.623318628337,343.8223093098886 -637.123318628337,343.1524363288106 -639.6233186283371,343.8223093098883 -641.4534456472594,345.6524363288104 -642.1233186283374,348.1524363288104 -641.4534456472597,350.6524363288105 -639.6233186283376,352.4825633477328 -637.1233186283376,353.15243632881084" stroke="#ffa500" stroke-linecap="round" stroke-linejoin="round"/><polyline fill="none" points="-607.2152585487918,339.3806072318064 -604.7152585487917,338.7107342507287 -602.8851315298693,336.8806072318066 -602.2152585487913,334.3806072318066 -602.885131529869,331.8806072318065 -604.7152585487911,330.05048021288417 -607.2152585487911,329.38060723180615 -609.7152585487912,330.0504802128838 -611.5453855677135,331.8806072318059 -612.2152585487916,334.3806072318059 -611.5453855677139,336.88060723180604 -609.7152585487918,338.71073425072836 -607.2152585487918,339.3806072318064" stroke="#ffa500" stroke-linecap="round" stroke-linejoin="round"/><polyline fill="none" points="-615.2266492319385,268.8532417633737 -612.7266492319384,268.18336878229604 -610.896522213016,266.35324176337394 -610.226649231938,263.85324176337394 -610.8965222130157,261.35324176337383 -612.7266492319378,259.5231147444515 -615.2266492319378,258.8532417633735 -617.7266492319379,259.52311474445116 -619.5567762508603,261.35324176337326 -620.2266492319383,263.85324176337326 -619.5567762508606,266.3532417633734 -617.7266492319385,268.18336878229576 -615.2266492319385,268.8532417633738" stroke="#00f" stroke-linecap="round" stroke-linejoin="round"/><polyline fill="none" points="-536.2336767680479,226.00391361412875 -533.7336767680478,225.3340406330511 -531.9035497491254,223.503913614129 -531.2336767680474,221.003913614129 -531.9035497491251,218.50391361412892 -533.7336767680472,216.67378659520656 -536.2336767680472,216.00391361412858 -538.7336767680473,216.67378659520622 -540.5638037869696,218.50391361412832 -541.2336767680476,221.00391361412832 -540.56380378697,223.5039136141284 -538.7336767680479,225.33404063305076 -536.2336767680479,226.00391361412875" stroke="#ffa500" stroke-linecap="round" stroke-linejoin="round"/><polyline fill="none" points="-615.8694236186801,218.7268362224804 -613.36942361868,218.05696324140274 -611.5392965997577,216.22683622248064 -610.8694236186797,213.72683622248064 -611.5392965997573,211.22683622248056 -613.3694236186794,209.3967092035582 -615.8694236186794,208.72683622248022 -618.3694236186795,209.39670920355786 -620.1995506376019,211.22683622247996 -620.8694236186799,213.72683622247996 -620.1995506376022,216.22683622248005 -618.3694236186801,218.0569632414024 -615.8694236186801,218.7268362224804" stroke="#00f" stroke-linecap="round" stroke-linejoin="round"/><polyline fill="none" points="-595.849139057334,287.94823561989193 -593.3491390573339,287.2783626388143 -591.5190120384116,285.4482356198922 -590.8491390573336,282.9482356198922 -591.5190120384112,280.4482356198921 -593.3491390573333,278.6181086009697 -595.8491390573333,277.9482356198917 -598.3491390573334,278.6181086009693 -600.1792660762558,280.4482356198914 -600.8491390573338,282.9482356198914 -600.1792660762561,285.44823561989153 -598.349139057334,287.2783626388139 -595.849139057334,287.94823561989193" stroke="#00f" stroke-linecap="round" stroke-linejoin="round"/><polyline fill="none" points="-670.3502498664388,325.35282207752266 -667.8502498664387,324.68294909644504 -666.0201228475164,322.85282207752294 -665.3502498664384,320.35282207752294 -666.0201228475161,317.85282207752283 -667.8502498664382,316.02269505860045 -670.3502498664382,315.35282207752243 -672.8502498664383,316.02269505860005 -674.6803768853606,317.85282207752215 -675.3502498664386,320.35282207752215 -674.6803768853609,322.85282207752226 -672.8502498664388,324.68294909644464 -670.3502498664388,325.35282207752266" stroke="#ffa500" stroke-linecap="round" stroke-linejoin="round"/><polyline fill="none" points="-572.1183611305848,322.8741613033674 -569.6183611305847,322.20428832228976 -567.7882341116624,320.37416130336766 -567.1183611305844,317.87416130336766 -567.7882341116621,315.37416130336754 -569.6183611305842,313.54403428444516 -572.1183611305842,312.87416130336715 -574.6183611305843,313.54403428444476 -576.4484881495066,315.37416130336686 -577.1183611305846,317.87416130336686 -576.4484881495069,320.374161303367 -574.6183611305848,322.20428832228936 -572.1183611305848,322.8741613033674" stroke="#ffa500" stroke-linecap="round" stroke-linejoin="round"/><polyline fill="none" points="-550.8414868965172,288.78849296233926 -548.341486896517,288.11861998126165 -546.5113598775947,286.28849296233955 -545.8414868965167,283.78849296233955 -546.5113598775944,281.28849296233943 -548.3414868965165,279.45836594341705 -550.8414868965165,278.78849296233903 -553.3414868965166,279.45836594341665 -555.1716139154389,281.28849296233875 -555.8414868965169,283.78849296233875 -555.1716139154393,286.28849296233886 -553.3414868965172,288.11861998126125 -550.8414868965172,288.78849296233926" stroke="#ffa500" stroke-linecap="round" stroke-linejoin="round"/><polyline fill="none" points="-548.3543973873566,215.98758336365458 -545.8543973873565,215.31771038257693 -544.0242703684341,213.48758336365484 -543.3543973873561,210.98758336365484 -544.0242703684338,208.48758336365472 -545.8543973873559,206.65745634473234 -548.3543973873559,205.98758336365432 -550.854397387356,206.65745634473194 -552.6845244062783,208.48758336365404 -553.3543973873564,210.98758336365404 -552.6845244062787,213.48758336365415 -550.8543973873566,215.31771038257654 -548.3543973873566,215.98758336365455" stroke="#00f" stroke-linecap="round" stroke-linejoin="round"/><polyline fill="none" points="-699.6682638004598,263.7874116035936 -697.1682638004597,263.117538622516 -695.3381367815374,261.2874116035939 -694.6682638004594,258.7874116035939 -695.3381367815371,256.2874116035938 -697.1682638004592,254.4572845846714 -699.6682638004592,253.7874116035934 -702.1682638004593,254.45728458467102 -703.9983908193816,256.2874116035931 -704.6682638004596,258.7874116035931 -703.9983908193819,261.2874116035932 -702.1682638004598,263.1175386225156 -699.6682638004598,263.7874116035936" stroke="#ffa500" stroke-linecap="round" stroke-linejoin="round"/><polyline fill="none" points="-595.069931645147,273.5939131261143 -592.5699316451469,272.92404014503666 -590.7398046262246,271.09391312611456 -590.0699316451465,268.59391312611456 -590.7398046262242,266.09391312611444 -592.5699316451463,264.26378610719206 -595.0699316451463,263.59391312611405 -597.5699316451464,264.26378610719166 -599.4000586640688,266.09391312611376 -600.0699316451468,268.59391312611376 -599.4000586640691,271.0939131261139 -597.569931645147,272.92404014503626 -595.069931645147,273.5939131261143" stroke="#008000" stroke-linecap="round" stroke-linejoin="round"/><polyline fill="none" points="-617.4227866676432,288.12965922496664 -614.9227866676431,287.459786243889 -613.0926596487208,285.62965922496693 -612.4227866676428,283.12965922496693 -613.0926596487204,280.6296592249668 -614.9227866676425,278.79953220604443 -617.4227866676425,278.1296592249664 -619.9227866676426,278.79953220604403 -621.752913686565,280.62965922496613 -622.422786667643,283.12965922496613 -621.7529136865653,285.62965922496625 -619.9227866676432,287.45978624388863 -617.4227866676432,288.12965922496664" stroke="#ffa500" stroke-linecap="round" stroke-linejoin="round"/><polyline fill="none" points="-679.8901302121019,274.78535870136835 -677.3901302121018,274.11548572029074 -675.5600031931795,272.28535870136864 -674.8901302121014,269.78535870136864 -675.5600031931791,267.2853587013685 -677.3901302121012,265.45523168244614 -679.8901302121012,264.7853587013681 -682.3901302121013,265.45523168244574 -684.2202572310237,267.28535870136784 -684.8901302121017,269.78535870136784 -684.220257231024,272.28535870136795 -682.3901302121019,274.11548572029034 -679.8901302121019,274.78535870136835" stroke="#ffa500" stroke-linecap="round" stroke-linejoin="round"/><polyline fill="none" points="-599.4862004223278,303.7962919224467 -596.9862004223277,303.1264189413691 -595.1560734034053,301.296291922447 -594.4862004223273,298.796291922447 -595.156073403405,296.29629192244687 -596.9862004223271,294.4661649035245 -599.4862004223271,293.79629192244647 -601.9862004223272,294.4661649035241 -603.8163274412495,296.2962919224462 -604.4862004223276,298.7962919224462 -603.8163274412499,301.2962919224463 -601.9862004223278,303.1264189413687 -599.4862004223278,303.7962919224467" stroke="#00f" stroke-linecap="round" stroke-linejoin="round"/><polyline fill="none" points="-699.6835341600021,298.31843356120413 -697.183534160002,297.6485605801265 -695.3534071410795,295.8184335612044 -694.6835341600015,293.3184335612044 -695.3534071410791,290.8184335612043 -697.1835341600012,288.9883065422819 -699.6835341600012,288.3184335612039 -702.1835341600013,288.9883065422815 -704.0136611789237,290.8184335612036 -704.6835341600017,293.3184335612036 -704.0136611789242,295.81843356120373 -702.1835341600021,297.6485605801261 -699.6835341600021,298.31843356120413" stroke="#ffa500" stroke-linecap="round" stroke-linejoin="round"/><polyline fill="none" points="-581.621926569276,199.50435811545537 -579.1219265692758,198.83448513437776 -577.2917995503534,197.0043581154557 -576.6219265692754,194.5043581154557 -577.291799550353,192.00435811545557 -579.121926569275,190.1742310965332 -581.621926569275,189.50435811545515 -584.1219265692752,190.17423109653276 -585.9520535881976,192.00435811545483 -586.6219265692756,194.50435811545483 -585.952053588198,197.00435811545495 -584.121926569276,198.83448513437733 -581.621926569276,199.50435811545537" stroke="#ffa500" stroke-linecap="round" stroke-linejoin="round"/><polyline fill="none" points="-557.3918418928264,195.87547755604888 -554.8918418928263,195.20560457497126 -553.0617148739038,193.3754775560492 -552.3918418928258,190.8754775560492 -553.0617148739034,188.37547755604908 -554.8918418928255,186.5453505371267 -557.3918418928255,185.87547755604865 -559.8918418928256,186.54535053712627 -561.721968911748,188.37547755604834 -562.391841892826,190.87547755604834 -561.7219689117485,193.37547755604845 -559.8918418928264,195.20560457497083 -557.3918418928264,195.87547755604888" stroke="#ffa500" stroke-linecap="round" stroke-linejoin="round"/><polyline fill="none" points="-533.6293876781828,204.77848381074165 -531.1293876781826,204.10861082966403 -529.2992606592602,202.27848381074196 -528.6293876781822,199.77848381074196 -529.2992606592597,197.27848381074185 -531.1293876781818,195.44835679181946 -533.6293876781818,194.77848381074142 -536.129387678182,195.44835679181904 -537.9595146971044,197.2784838107411 -538.6293876781824,199.7784838107411 -537.9595146971049,202.27848381074122 -536.1293876781828,204.1086108296636 -533.6293876781828,204.77848381074165" stroke="#ffa500" stroke-linecap="round" stroke-linejoin="round"/><polyline fill="none" points="-661.2244246365935,258.0697837582723 -658.7244246365934,257.3999107771947 -656.894297617671,255.56978375827262 -656.224424636593,253.06978375827262 -656.8942976176705,250.5697837582725 -658.7244246365926,248.73965673935012 -661.2244246365926,248.06978375827208 -663.7244246365927,248.7396567393497 -665.5545516555152,250.56978375827177 -666.2244246365932,253.06978375827177 -665.5545516555156,255.56978375827188 -663.7244246365935,257.3999107771943 -661.2244246365935,258.0697837582723" stroke="#ffa500" stroke-linecap="round" stroke-linejoin="round"/><polyline fill="none" points="-615.5181011298698,199.46152063748545 -613.0181011298697,198.79164765640783 -611.1879741109473,196.96152063748576 -610.5181011298693,194.46152063748576 -611.1879741109468,191.96152063748565 -613.0181011298689,190.13139361856324 -615.5181011298689,189.4615206374852 -618.018101129869,190.1313936185628 -619.8482281487915,191.96152063748488 -620.5181011298695,194.46152063748488 -619.8482281487919,196.961520637485 -618.0181011298698,198.7916476564074 -615.5181011298698,199.46152063748545" stroke="#ffa500" stroke-linecap="round" stroke-linejoin="round"/><polyline fill="none" points="433.81719889145364,343.40458045537883 436.31719889145376,342.7347074743012 438.14732591037614,340.9045804553791 438.8171988914542,338.4045804553791 438.1473259103766,335.904580455379 436.3171988914545,334.0744534364566 433.8171988914545,333.40458045537855 431.3171988914544,334.07445343645617 429.487071872532,335.90458045537827 428.8171988914539,338.40458045537827 429.48707187253154,340.9045804553784 431.31719889145364,342.73470747430076 433.81719889145364,343.40458045537883" stroke="#ffa500" stroke-linecap="round" stroke-linejoin="round"/><polyline fill="none" points="-606.0080708236999,272.9629895484734 -603.5080708236998,272.29311656739577 -601.6779438047773,270.4629895484737 -601.0080708236993,267.9629895484737 -601.6779438047769,265.46298954847356 -603.508070823699,263.6328625295512 -606.008070823699,262.9629895484731 -608.5080708236991,263.6328625295507 -610.3381978426215,265.4629895484728 -611.0080708236995,267.9629895484728 -610.338197842622,270.46298954847293 -608.5080708236999,272.2931165673953 -606.0080708236999,272.9629895484734" stroke="#00f" stroke-linecap="round" stroke-linejoin="round"/><polyline fill="none" points="-627.817443518994,340.62195780626223 -625.3174435189939,339.9520848251846 -623.4873165000714,338.1219578062625 -622.8174435189934,335.6219578062625 -623.487316500071,333.1219578062624 -625.3174435189931,331.29183078734 -627.8174435189931,330.62195780626195 -630.3174435189932,331.29183078733956 -632.1475705379156,333.12195780626166 -632.8174435189936,335.62195780626166 -632.1475705379161,338.1219578062618 -630.317443518994,339.95208482518416 -627.817443518994,340.62195780626223" stroke="#ffa500" stroke-linecap="round" stroke-linejoin="round"/><polyline fill="none" points="-611.0727104251268,328.1621721697561 -608.5727104251267,327.4922991886785 -606.7425834062043,325.6621721697564 -606.0727104251263,323.1621721697564 -606.7425834062038,320.6621721697563 -608.5727104251259,318.8320451508339 -611.0727104251259,318.1621721697558 -613.572710425126,318.83204515083344 -615.4028374440485,320.66217216975554 -616.0727104251265,323.16217216975554 -615.4028374440489,325.66217216975565 -613.5727104251268,327.49229918867803 -611.0727104251268,328.1621721697561" stroke="#ffa500" stroke-linecap="round" stroke-linejoin="round"/><polyline fill="none" points="-621.6780937576013,218.58295917070808 -619.1780937576012,217.9130861896305 -617.3479667386788,216.08295917070842 -616.6780937576008,213.58295917070842 -617.3479667386783,211.0829591707083 -619.1780937576004,209.2528321517859 -621.6780937576004,208.58295917070785 -624.1780937576005,209.25283215178544 -626.008220776523,211.0829591707075 -626.678093757601,213.5829591707075 -626.0082207765234,216.08295917070762 -624.1780937576013,217.91308618963004 -621.6780937576013,218.58295917070808" stroke="#ffa500" stroke-linecap="round" stroke-linejoin="round"/><polyline fill="none" points="-599.171474437227,209.76100754073582 -596.6714744372268,209.09113455965823 -594.8413474183044,207.26100754073616 -594.1714744372264,204.76100754073616 -594.8413474183039,202.26100754073605 -596.671474437226,200.43088052181363 -599.171474437226,199.7610075407356 -601.6714744372262,200.43088052181318 -603.5016014561486,202.26100754073525 -604.1714744372266,204.76100754073525 -603.501601456149,207.26100754073536 -601.671474437227,209.09113455965777 -599.171474437227,209.76100754073585" stroke="#ffa500" stroke-linecap="round" stroke-linejoin="round"/><polyline fill="none" points="-541.8204951670866,245.92324860744898 -539.3204951670865,245.2533756263714 -537.4903681481641,243.42324860744932 -536.820495167086,240.92324860744932 -537.4903681481636,238.42324860744918 -539.3204951670857,236.59312158852677 -541.8204951670857,235.9232486074487 -544.3204951670858,236.5931215885263 -546.1506221860083,238.42324860744836 -546.8204951670863,240.92324860744836 -546.1506221860087,243.4232486074485 -544.3204951670866,245.2533756263709 -541.8204951670866,245.92324860744898" stroke="#ffa500" stroke-linecap="round" stroke-linejoin="round"/><polyline fill="none" points="-625.6714778622658,276.374232461543 -623.1714778622656,275.7043594804654 -621.3413508433432,273.8742324615434 -620.6714778622652,271.3742324615434 -621.3413508433428,268.8742324615433 -623.1714778622649,267.04410544262083 -625.6714778622649,266.37423246154276 -628.171477862265,267.0441054426203 -630.0016048811874,268.87423246154236 -630.6714778622654,271.37423246154236 -630.0016048811879,273.8742324615425 -628.1714778622658,275.7043594804649 -625.6714778622658,276.374232461543" stroke="#008000" stroke-linecap="round" stroke-linejoin="round"/><polyline fill="none" points="-630.2936366355126,240.73006147273477 -627.7936366355125,240.0601884916572 -625.96350961659,238.23006147273512 -625.293636635512,235.73006147273512 -625.9635096165896,233.23006147273497 -627.7936366355117,231.39993445381256 -630.2936366355117,230.7300614727345 -632.7936366355118,231.39993445381208 -634.6237636544342,233.23006147273415 -635.2936366355123,235.73006147273415 -634.6237636544347,238.2300614727343 -632.7936366355126,240.0601884916567 -630.2936366355126,240.73006147273477" stroke="#00f" stroke-linecap="round" stroke-linejoin="round"/><polyline fill="none" points="-610.8235938362709,302.156970686213 -608.3235938362708,301.48709770513545 -606.4934668173483,299.6569706862134 -605.8235938362703,297.1569706862134 -606.4934668173479,294.6569706862133 -608.32359383627,292.82684366729086 -610.82359383627,292.1569706862128 -613.3235938362701,292.82684366729035 -615.1537208551925,294.6569706862124 -615.8235938362706,297.1569706862124 -615.153720855193,299.6569706862125 -613.3235938362709,301.48709770513494 -610.8235938362709,302.156970686213" stroke="#00f" stroke-linecap="round" stroke-linejoin="round"/><polyline fill="none" points="-693.9467640944953,277.5284654728813 -691.4467640944952,276.85859249180373 -689.6166370755727,275.0284654728817 -688.9467640944947,272.5284654728817 -689.6166370755723,270.0284654728816 -691.4467640944944,268.19833845395914 -693.9467640944944,267.52846547288107 -696.4467640944945,268.1983384539586 -698.2768911134169,270.02846547288067 -698.9467640944949,272.52846547288067 -698.2768911134174,275.0284654728808 -696.4467640944953,276.8585924918032 -693.9467640944953,277.5284654728813" stroke="#00f" stroke-linecap="round" stroke-linejoin="round"/><polyline fill="none" points="-578.3494099054757,228.23071695540648 -575.8494099054756,227.5608439743289 -574.0192828865531,225.73071695540682 -573.349409905475,223.23071695540682 -574.0192828865526,220.73071695540668 -575.8494099054747,218.90058993648427 -578.3494099054747,218.2307169554062 -580.8494099054748,218.90058993648378 -582.6795369243972,220.73071695540585 -583.3494099054753,223.23071695540585 -582.6795369243978,225.730716955406 -580.8494099054757,227.56084397432844 -578.3494099054757,228.2307169554065" stroke="#ffa500" stroke-linecap="round" stroke-linejoin="round"/><polyline fill="none" points="-659.1577058599125,313.86617564518133 -656.6577058599124,313.19630266410377 -654.82757884099,311.3661756451817 -654.1577058599119,308.8661756451817 -654.8275788409894,306.3661756451816 -656.6577058599115,304.5360486262592 -659.1577058599115,303.8661756451811 -661.6577058599116,304.53604862625866 -663.4878328788341,306.3661756451807 -664.1577058599122,308.8661756451807 -663.4878328788346,311.3661756451808 -661.6577058599125,313.19630266410326 -659.1577058599125,313.86617564518133" stroke="#ffa500" stroke-linecap="round" stroke-linejoin="round"/><polyline fill="none" points="-550.7531319816502,212.88834075024806 -548.2531319816501,212.2184677691705 -546.4230049627276,210.38834075024843 -545.7531319816495,207.88834075024843 -546.4230049627271,205.3883407502483 -548.2531319816492,203.55821373132585 -550.7531319816492,202.88834075024778 -553.2531319816493,203.55821373132534 -555.0832590005717,205.3883407502474 -555.7531319816499,207.8883407502474 -555.0832590005723,210.38834075024755 -553.2531319816502,212.21846776917 -550.7531319816502,212.88834075024806" stroke="#ffa500" stroke-linecap="round" stroke-linejoin="round"/><polyline fill="none" points="-572.232599741968,285.89608213917234 -569.7325997419679,285.2262091580948 -567.9024727230454,283.39608213917273 -567.2325997419673,280.89608213917273 -567.9024727230449,278.3960821391726 -569.732599741967,276.5659551202502 -572.232599741967,275.8960821391721 -574.7325997419671,276.56595512024967 -576.5627267608895,278.3960821391717 -577.2325997419676,280.8960821391717 -576.5627267608901,283.3960821391718 -574.732599741968,285.22620915809426 -572.232599741968,285.89608213917234" stroke="#ffa500" stroke-linecap="round" stroke-linejoin="round"/><polyline fill="none" points="-640.1663851550774,312.7019646003423 -637.6663851550773,312.03209161926475 -635.8362581361548,310.2019646003427 -635.1663851550767,307.7019646003427 -635.8362581361542,305.2019646003426 -637.6663851550763,303.37183758142015 -640.1663851550763,302.7019646003421 -642.6663851550765,303.37183758141964 -644.4965121739989,305.2019646003417 -645.166385155077,307.7019646003417 -644.4965121739995,310.2019646003418 -642.6663851550774,312.03209161926424 -640.1663851550774,312.7019646003423" stroke="#00f" stroke-linecap="round" stroke-linejoin="round"/><polyline fill="none" points="-587.7712436517485,131.6794638307133 -585.2712436517484,131.00959084963574 -583.4411166328259,129.1794638307137 -582.7712436517478,126.6794638307137 -583.4411166328254,124.17946383071356 -585.2712436517475,122.34933681179112 -587.7712436517475,121.67946383071303 -590.2712436517476,122.3493368117906 -592.10137067067,124.17946383071265 -592.7712436517481,126.67946383071265 -592.1013706706706,129.1794638307128 -590.2712436517485,131.00959084963523 -587.7712436517485,131.67946383071333" stroke="#ffa500" stroke-linecap="round" stroke-linejoin="round"/><polyline fill="none" points="-605.6781089701998,278.31852840800013 -603.1781089701997,277.6486554269226 -601.3479819512772,275.81852840800053 -600.6781089701991,273.31852840800053 -601.3479819512767,270.81852840800036 -603.1781089701988,268.9884013890779 -605.6781089701988,268.31852840799985 -608.1781089701989,268.9884013890774 -610.0082359891213,270.81852840799945 -610.6781089701994,273.31852840799945 -610.0082359891219,275.8185284079996 -608.1781089701998,277.64865542692206 -605.6781089701998,278.31852840800013" stroke="#ffa500" stroke-linecap="round" stroke-linejoin="round"/><polyline fill="none" points="-614.4985871959746,317.8151845273873 -611.9985871959744,317.14531154630976 -610.168460177052,315.3151845273877 -609.4985871959739,312.8151845273877 -610.1684601770514,310.31518452738754 -611.9985871959735,308.4850575084651 -614.4985871959735,307.81518452738703 -616.9985871959736,308.4850575084646 -618.8287142148961,310.31518452738663 -619.4985871959742,312.81518452738663 -618.8287142148966,315.3151845273868 -616.9985871959746,317.14531154630924 -614.4985871959746,317.8151845273873" stroke="#00f" stroke-linecap="round" stroke-linejoin="round"/><polyline fill="none" points="-556.4199548026976,305.92651483174546 -553.9199548026975,305.2566418506679 -552.089827783775,303.42651483174586 -551.4199548026969,300.92651483174586 -552.0898277837745,298.4265148317457 -553.9199548026966,296.59638781282325 -556.4199548026966,295.9265148317452 -558.9199548026967,296.59638781282274 -560.7500818216191,298.4265148317448 -561.4199548026972,300.9265148317448 -560.7500818216197,303.42651483174495 -558.9199548026976,305.2566418506674 -556.4199548026976,305.92651483174546" stroke="#ffa500" stroke-linecap="round" stroke-linejoin="round"/><polyline fill="none" points="-583.0702435560502,258.2713512678104 -580.5702435560501,257.60147828673286 -578.7401165371276,255.77135126781081 -578.0702435560495,253.27135126781081 -578.740116537127,250.77135126781067 -580.5702435560491,248.94122424888823 -583.0702435560491,248.27135126781013 -585.5702435560493,248.9412242488877 -587.4003705749717,250.77135126780973 -588.0702435560498,253.27135126780973 -587.4003705749723,255.77135126780988 -585.5702435560502,257.60147828673234 -583.0702435560502,258.2713512678105" stroke="#00f" stroke-linecap="round" stroke-linejoin="round"/><line fill="none" stroke="#000" stroke-linecap="round" x1="-699.0073114722027" x2="-696.8752181334216" y1="269.0218561101887" y2="274.6239397648695"/><line fill="none" stroke="#000" stroke-linecap="round" x1="-699.0073114722027" x2="-679.4929101364221" y1="269.0218561101887" y2="265.7232957278165"/><line fill="none" stroke="#000" stroke-linecap="round" x1="-699.0073114722027" x2="-693.9467640944953" y1="269.0218561101887" y2="272.5284654728813"/><line fill="none" stroke="#000" stroke-linecap="round" x1="-699.0073114722027" x2="-699.6835341600021" y1="269.0218561101887" y2="293.31843356120413"/><line fill="none" stroke="#000" stroke-linecap="round" x1="-699.0073114722027" x2="-699.6682638004598" y1="269.0218561101887" y2="258.7874116035936"/><line fill="none" stroke="#000" stroke-linecap="round" x1="-606.0456765562075" x2="-595.069931645147" y1="269.26594137588506" y2="268.5939131261143"/><line fill="none" stroke="#000" stroke-linecap="round" x1="-606.0456765562075" x2="-617.4227866676432" y1="269.26594137588506" y2="283.12965922496664"/><line fill="none" stroke="#000" stroke-linecap="round" x1="-606.0456765562075" x2="-566.8820825955149" y1="269.26594137588506" y2="252.69195786712748"/><line fill="none" stroke="#000" stroke-linecap="round" x1="-606.0456765562075" x2="-604.8719189881587" y1="269.26594137588506" y2="303.9348604230794"/><line fill="none" stroke="#000" stroke-linecap="round" x1="-606.0456765562075" x2="-595.849139057334" y1="269.26594137588506" y2="282.94823561989193"/><line fill="none" stroke="#000" stroke-linecap="round" x1="-614.1557563228289" x2="-624.7155651237471" y1="264.41473605375825" y2="267.6629306704688"/><line fill="none" stroke="#000" stroke-linecap="round" x1="-614.1557563228289" x2="-595.069931645147" y1="264.41473605375825" y2="268.5939131261143"/><line fill="none" stroke="#000" stroke-linecap="round" x1="-614.1557563228289" x2="-594.6932431135376" y1="264.41473605375825" y2="244.75287362798778"/><line fill="none" stroke="#000" stroke-linecap="round" x1="-614.1557563228289" x2="-635.5708360120324" y1="264.41473605375825" y2="264.09481501641847"/><line fill="none" stroke="#000" stroke-linecap="round" x1="-614.1557563228289" x2="-620.9580696797872" y1="264.41473605375825" y2="257.7237630288243"/><line fill="none" stroke="#000" stroke-linecap="round" x1="418.0918452774467" x2="402.63007029568024" y1="339.217542707092" y2="326.1040760465792"/><line fill="none" stroke="#000" stroke-linecap="round" x1="418.0918452774467" x2="448.631390804502" y1="339.217542707092" y2="348.8251646670735"/><line fill="none" stroke="#000" stroke-linecap="round" x1="418.0918452774467" x2="422.3835592731535" y1="339.217542707092" y2="349.3186298679428"/><line fill="none" stroke="#000" stroke-linecap="round" x1="418.0918452774467" x2="420.22799921880363" y1="339.217542707092" y2="324.38042686344113"/><line fill="none" stroke="#000" stroke-linecap="round" x1="418.0918452774467" x2="433.81719889145364" y1="339.217542707092" y2="338.40458045537883"/><line fill="none" stroke="#000" stroke-linecap="round" x1="-626.1202271924896" x2="-641.9408719469593" y1="297.08165592746906" y2="272.47588099212766"/><line fill="none" stroke="#000" stroke-linecap="round" x1="-626.1202271924896" x2="-596.2483296175138" y1="297.08165592746906" y2="336.2941070980511"/><line fill="none" stroke="#000" stroke-linecap="round" x1="-626.1202271924896" x2="-565.0958022068083" y1="297.08165592746906" y2="266.9166844981365"/><line fill="none" stroke="#000" stroke-linecap="round" x1="-626.1202271924896" x2="-607.2152585487918" y1="297.08165592746906" y2="334.3806072318064"/><line fill="none" stroke="#000" stroke-linecap="round" x1="-626.1202271924896" x2="-627.817443518994" y1="297.08165592746906" y2="335.62195780626223"/><line fill="none" stroke="#000" stroke-linecap="round" x1="-594.6932431135376" x2="-573.6230496713248" y1="244.75287362798778" y2="220.35130401892403"/><line fill="none" stroke="#000" stroke-linecap="round" x1="-594.6932431135376" x2="-590.881415031742" y1="244.75287362798778" y2="222.44373844291502"/><line fill="none" stroke="#000" stroke-linecap="round" x1="-594.6932431135376" x2="-617.4227866676432" y1="244.75287362798778" y2="283.12965922496664"/><line fill="none" stroke="#000" stroke-linecap="round" x1="-594.6932431135376" x2="-581.0118239976373" y1="244.75287362798778" y2="246.9781933778262"/><line fill="none" stroke="#000" stroke-linecap="round" x1="-594.6932431135376" x2="-614.1557563228289" y1="244.75287362798778" y2="264.41473605375825"/><line fill="none" stroke="#000" stroke-linecap="round" x1="-591.0054008714742" x2="-562.8500545067451" y1="136.57603773951135" y2="111.00055532070435"/><line fill="none" stroke="#000" stroke-linecap="round" x1="-591.0054008714742" x2="-602.8420864063509" y1="136.57603773951135" y2="114.32460369072521"/><line fill="none" stroke="#000" stroke-linecap="round" x1="-591.0054008714742" x2="-582.0491888105148" y1="136.57603773951135" y2="109.00430670559626"/><line fill="none" stroke="#000" stroke-linecap="round" x1="-591.0054008714742" x2="-587.7712436517485" y1="136.57603773951135" y2="126.6794638307133"/><line fill="none" stroke="#000" stroke-linecap="round" x1="-591.0054008714742" x2="-568.2792442006128" y1="136.57603773951135" y2="129.61524799541777"/><line fill="none" stroke="#000" stroke-linecap="round" x1="-640.0758822216801" x2="-626.1202271924896" y1="266.62447023430724" y2="297.08165592746906"/><line fill="none" stroke="#000" stroke-linecap="round" x1="-640.0758822216801" x2="-679.4929101364221" y1="266.62447023430724" y2="265.7232957278165"/><line fill="none" stroke="#000" stroke-linecap="round" x1="-640.0758822216801" x2="-624.7155651237471" y1="266.62447023430724" y2="267.6629306704688"/><line fill="none" stroke="#000" stroke-linecap="round" x1="-640.0758822216801" x2="-661.2244246365935" y1="266.62447023430724" y2="253.0697837582723"/><line fill="none" stroke="#000" stroke-linecap="round" x1="-640.0758822216801" x2="-615.2266492319385" y1="266.62447023430724" y2="263.8532417633737"/><line fill="none" stroke="#000" stroke-linecap="round" x1="-626.5373815435744" x2="-630.2936366355126" y1="212.53584623966387" y2="235.73006147273477"/><line fill="none" stroke="#000" stroke-linecap="round" x1="-626.5373815435744" x2="-615.8694236186801" y1="212.53584623966387" y2="213.7268362224804"/><line fill="none" stroke="#000" stroke-linecap="round" x1="-626.5373815435744" x2="-621.6780937576013" y1="212.53584623966387" y2="213.58295917070808"/><line fill="none" stroke="#000" stroke-linecap="round" x1="-626.5373815435744" x2="-591.0054008714742" y1="212.53584623966387" y2="136.57603773951135"/><line fill="none" stroke="#000" stroke-linecap="round" x1="-626.5373815435744" x2="-610.2309007701073" y1="212.53584623966387" y2="228.81335649279134"/><line fill="none" stroke="#000" stroke-linecap="round" x1="-624.7155651237471" x2="-614.1557563228289" y1="267.6629306704688" y2="264.41473605375825"/><line fill="none" stroke="#000" stroke-linecap="round" x1="-624.7155651237471" x2="-640.0758822216801" y1="267.6629306704688" y2="266.62447023430724"/><line fill="none" stroke="#000" stroke-linecap="round" x1="-624.7155651237471" x2="-616.6163865970941" y1="267.6629306704688" y2="259.8178253578254"/><line fill="none" stroke="#000" stroke-linecap="round" x1="-624.7155651237471" x2="-630.2936366355126" y1="267.6629306704688" y2="235.73006147273477"/><line fill="none" stroke="#000" stroke-linecap="round" x1="-624.7155651237471" x2="-597.5606585405134" y1="267.6629306704688" y2="262.6876076868706"/><line fill="none" stroke="#000" stroke-linecap="round" x1="-635.5708360120324" x2="-630.2936366355126" y1="264.09481501641847" y2="235.73006147273477"/><line fill="none" stroke="#000" stroke-linecap="round" x1="-635.5708360120324" x2="-625.6714778622658" y1="264.09481501641847" y2="271.374232461543"/><line fill="none" stroke="#000" stroke-linecap="round" x1="-635.5708360120324" x2="-640.1663851550774" y1="264.09481501641847" y2="307.7019646003423"/><line fill="none" stroke="#000" stroke-linecap="round" x1="-635.5708360120324" x2="-620.9580696797872" y1="264.09481501641847" y2="257.7237630288243"/><line fill="none" stroke="#000" stroke-linecap="round" x1="-635.5708360120324" x2="-614.1557563228289" y1="264.09481501641847" y2="264.41473605375825"/><line fill="none" stroke="#000" stroke-linecap="round" x1="-573.6230496713248" x2="-590.881415031742" y1="220.35130401892403" y2="222.44373844291502"/><line fill="none" stroke="#000" stroke-linecap="round" x1="-573.6230496713248" x2="-594.6932431135376" y1="220.35130401892403" y2="244.75287362798778"/><line fill="none" stroke="#000" stroke-linecap="round" x1="-573.6230496713248" x2="-571.9514702516794" y1="220.35130401892403" y2="238.5035547611121"/><line fill="none" stroke="#000" stroke-linecap="round" x1="-573.6230496713248" x2="-548.3543973873566" y1="220.35130401892403" y2="210.98758336365458"/><line fill="none" stroke="#000" stroke-linecap="round" x1="-573.6230496713248" x2="-572.1961054251171" y1="220.35130401892403" y2="210.8434008019028"/><line fill="none" stroke="#000" stroke-linecap="round" x1="-571.2470950854321" x2="-565.7427821567759" y1="297.27590461583407" y2="319.65915668138877"/><line fill="none" stroke="#000" stroke-linecap="round" x1="-571.2470950854321" x2="-538.0784207615899" y1="297.27590461583407" y2="306.0594540799859"/><line fill="none" stroke="#000" stroke-linecap="round" x1="-571.2470950854321" x2="-614.4985871959746" y1="297.27590461583407" y2="312.8151845273873"/><line fill="none" stroke="#000" stroke-linecap="round" x1="-571.2470950854321" x2="-550.8414868965172" y1="297.27590461583407" y2="283.78849296233926"/><line fill="none" stroke="#000" stroke-linecap="round" x1="-571.2470950854321" x2="-556.4199548026976" y1="297.27590461583407" y2="300.92651483174546"/><line fill="none" stroke="#000" stroke-linecap="round" x1="-616.6163865970941" x2="-640.0758822216801" y1="259.8178253578254" y2="266.62447023430724"/><line fill="none" stroke="#000" stroke-linecap="round" x1="-616.6163865970941" x2="-581.0118239976373" y1="259.8178253578254" y2="246.9781933778262"/><line fill="none" stroke="#000" stroke-linecap="round" x1="-616.6163865970941" x2="-614.1557563228289" y1="259.8178253578254" y2="264.41473605375825"/><line fill="none" stroke="#000" stroke-linecap="round" x1="-616.6163865970941" x2="-615.2266492319385" y1="259.8178253578254" y2="263.8532417633737"/><line fill="none" stroke="#000" stroke-linecap="round" x1="-616.6163865970941" x2="-624.7155651237471" y1="259.8178253578254" y2="267.6629306704688"/><line fill="none" stroke="#000" stroke-linecap="round" x1="-641.4346266620594" x2="-625.6714778622658" y1="291.69009570403057" y2="271.374232461543"/><line fill="none" stroke="#000" stroke-linecap="round" x1="-641.4346266620594" x2="-640.0758822216801" y1="291.69009570403057" y2="266.62447023430724"/><line fill="none" stroke="#000" stroke-linecap="round" x1="-641.4346266620594" x2="-614.4985871959746" y1="291.69009570403057" y2="312.8151845273873"/><line fill="none" stroke="#000" stroke-linecap="round" x1="-641.4346266620594" x2="-659.7964681481948" y1="291.69009570403057" y2="328.3621324223496"/><line fill="none" stroke="#000" stroke-linecap="round" x1="-641.4346266620594" x2="-626.1202271924896" y1="291.69009570403057" y2="297.08165592746906"/><line fill="none" stroke="#000" stroke-linecap="round" x1="-597.5606585405134" x2="-576.6978537450557" y1="262.6876076868706" y2="276.4120490179985"/><line fill="none" stroke="#000" stroke-linecap="round" x1="-597.5606585405134" x2="-606.0080708236999" y1="262.6876076868706" y2="267.9629895484734"/><line fill="none" stroke="#000" stroke-linecap="round" x1="-597.5606585405134" x2="-581.0118239976373" y1="262.6876076868706" y2="246.9781933778262"/><line fill="none" stroke="#000" stroke-linecap="round" x1="-597.5606585405134" x2="-624.7155651237471" y1="262.6876076868706" y2="267.6629306704688"/><line fill="none" stroke="#000" stroke-linecap="round" x1="-597.5606585405134" x2="-571.2470950854321" y1="262.6876076868706" y2="297.27590461583407"/><line fill="none" stroke="#000" stroke-linecap="round" x1="-696.8752181334216" x2="-699.5393634092962" y1="274.6239397648695" y2="327.335726758667"/><line fill="none" stroke="#000" stroke-linecap="round" x1="-696.8752181334216" x2="-679.8901302121019" y1="274.6239397648695" y2="269.78535870136835"/><line fill="none" stroke="#000" stroke-linecap="round" x1="-696.8752181334216" x2="-699.1962327602491" y1="274.6239397648695" y2="310.68851489118776"/><line fill="none" stroke="#000" stroke-linecap="round" x1="-696.8752181334216" x2="-693.9467640944953" y1="274.6239397648695" y2="272.5284654728813"/><line fill="none" stroke="#000" stroke-linecap="round" x1="-696.8752181334216" x2="-694.4096134394425" y1="274.6239397648695" y2="243.49102802159857"/><line fill="none" stroke="#000" stroke-linecap="round" x1="-609.5354768386276" x2="-581.0118239976373" y1="258.5397204431708" y2="246.9781933778262"/><line fill="none" stroke="#000" stroke-linecap="round" x1="-609.5354768386276" x2="-595.849139057334" y1="258.5397204431708" y2="282.94823561989193"/><line fill="none" stroke="#000" stroke-linecap="round" x1="-609.5354768386276" x2="-606.0080708236999" y1="258.5397204431708" y2="267.9629895484734"/><line fill="none" stroke="#000" stroke-linecap="round" x1="-609.5354768386276" x2="-615.2266492319385" y1="258.5397204431708" y2="263.8532417633737"/><line fill="none" stroke="#000" stroke-linecap="round" x1="-609.5354768386276" x2="-640.0758822216801" y1="258.5397204431708" y2="266.62447023430724"/><line fill="none" stroke="#000" stroke-linecap="round" x1="-679.4929101364221" x2="-699.0073114722027" y1="265.7232957278165" y2="269.0218561101887"/><line fill="none" stroke="#000" stroke-linecap="round" x1="-679.4929101364221" x2="-693.9467640944953" y1="265.7232957278165" y2="272.5284654728813"/><line fill="none" stroke="#000" stroke-linecap="round" x1="-679.4929101364221" x2="-640.0758822216801" y1="265.7232957278165" y2="266.62447023430724"/><line fill="none" stroke="#000" stroke-linecap="round" x1="-679.4929101364221" x2="-626.1202271924896" y1="265.7232957278165" y2="297.08165592746906"/><line fill="none" stroke="#000" stroke-linecap="round" x1="-679.4929101364221" x2="-680.8263992220365" y1="265.7232957278165" y2="285.8330679332258"/><line fill="none" stroke="#000" stroke-linecap="round" x1="-571.9514702516794" x2="-566.8820825955149" y1="238.5035547611121" y2="252.69195786712748"/><line fill="none" stroke="#000" stroke-linecap="round" x1="-571.9514702516794" x2="-573.6230496713248" y1="238.5035547611121" y2="220.35130401892403"/><line fill="none" stroke="#000" stroke-linecap="round" x1="-571.9514702516794" x2="-594.6932431135376" y1="238.5035547611121" y2="244.75287362798778"/><line fill="none" stroke="#000" stroke-linecap="round" x1="-571.9514702516794" x2="-521.0121544420996" y1="238.5035547611121" y2="214.79097019020728"/><line fill="none" stroke="#000" stroke-linecap="round" x1="-571.9514702516794" x2="-627.1016795203344" y1="238.5035547611121" y2="252.81002787100337"/><line fill="none" stroke="#000" stroke-linecap="round" x1="-646.0044810538712" x2="-630.2936366355126" y1="232.2107968017028" y2="235.73006147273477"/><line fill="none" stroke="#000" stroke-linecap="round" x1="-646.0044810538712" x2="-626.5373815435744" y1="232.2107968017028" y2="212.53584623966387"/><line fill="none" stroke="#000" stroke-linecap="round" x1="-646.0044810538712" x2="-604.1849687758613" y1="232.2107968017028" y2="188.53120649622082"/><line fill="none" stroke="#000" stroke-linecap="round" x1="-646.0044810538712" x2="-696.8752181334216" y1="232.2107968017028" y2="274.6239397648695"/><line fill="none" stroke="#000" stroke-linecap="round" x1="-646.0044810538712" x2="-620.9580696797872" y1="232.2107968017028" y2="257.7237630288243"/><line fill="none" stroke="#000" stroke-linecap="round" x1="-604.8719189881587" x2="-617.4227866676432" y1="303.9348604230794" y2="283.12965922496664"/><line fill="none" stroke="#000" stroke-linecap="round" x1="-604.8719189881587" x2="-610.8235938362709" y1="303.9348604230794" y2="297.156970686213"/><line fill="none" stroke="#000" stroke-linecap="round" x1="-604.8719189881587" x2="-611.0727104251268" y1="303.9348604230794" y2="323.1621721697561"/><line fill="none" stroke="#000" stroke-linecap="round" x1="-604.8719189881587" x2="-600.1021873472471" y1="303.9348604230794" y2="313.70039545930507"/><line fill="none" stroke="#000" stroke-linecap="round" x1="-604.8719189881587" x2="-606.0456765562075" y1="303.9348604230794" y2="269.26594137588506"/><line fill="none" stroke="#000" stroke-linecap="round" x1="-576.6978537450557" x2="-572.1183611305848" y1="276.4120490179985" y2="317.8741613033674"/><line fill="none" stroke="#000" stroke-linecap="round" x1="-576.6978537450557" x2="-597.5606585405134" y1="276.4120490179985" y2="262.6876076868706"/><line fill="none" stroke="#000" stroke-linecap="round" x1="-576.6978537450557" x2="-595.849139057334" y1="276.4120490179985" y2="282.94823561989193"/><line fill="none" stroke="#000" stroke-linecap="round" x1="-576.6978537450557" x2="-595.069931645147" y1="276.4120490179985" y2="268.5939131261143"/><line fill="none" stroke="#000" stroke-linecap="round" x1="-576.6978537450557" x2="-606.0080708236999" y1="276.4120490179985" y2="267.9629895484734"/><line fill="none" stroke="#000" stroke-linecap="round" x1="-620.9580696797872" x2="-614.1557563228289" y1="257.7237630288243" y2="264.41473605375825"/><line fill="none" stroke="#000" stroke-linecap="round" x1="-620.9580696797872" x2="-635.5708360120324" y1="257.7237630288243" y2="264.09481501641847"/><line fill="none" stroke="#000" stroke-linecap="round" x1="-620.9580696797872" x2="-625.6714778622658" y1="257.7237630288243" y2="271.374232461543"/><line fill="none" stroke="#000" stroke-linecap="round" x1="-620.9580696797872" x2="-590.881415031742" y1="257.7237630288243" y2="222.44373844291502"/><line fill="none" stroke="#000" stroke-linecap="round" x1="-620.9580696797872" x2="-595.069931645147" y1="257.7237630288243" y2="268.5939131261143"/><line fill="none" stroke="#000" stroke-linecap="round" x1="-550.0832826711858" x2="-561.0475031091843" y1="223.0270855075609" y2="174.87094742898492"/><line fill="none" stroke="#000" stroke-linecap="round" x1="-550.0832826711858" x2="-541.8204951670866" y1="223.0270855075609" y2="240.92324860744898"/><line fill="none" stroke="#000" stroke-linecap="round" x1="-550.0832826711858" x2="-524.2982443231109" y1="223.0270855075609" y2="233.790861667472"/><line fill="none" stroke="#000" stroke-linecap="round" x1="-550.0832826711858" x2="-540.8216698262156" y1="223.0270855075609" y2="183.688102423749"/><line fill="none" stroke="#000" stroke-linecap="round" x1="-550.0832826711858" x2="-527.1732318455481" y1="223.0270855075609" y2="251.7505103087791"/><line fill="none" stroke="#000" stroke-linecap="round" x1="-590.881415031742" x2="-594.6932431135376" y1="222.44373844291502" y2="244.75287362798778"/><line fill="none" stroke="#000" stroke-linecap="round" x1="-590.881415031742" x2="-573.6230496713248" y1="222.44373844291502" y2="220.35130401892403"/><line fill="none" stroke="#000" stroke-linecap="round" x1="-590.881415031742" x2="-581.0118239976373" y1="222.44373844291502" y2="246.9781933778262"/><line fill="none" stroke="#000" stroke-linecap="round" x1="-590.881415031742" x2="-578.3494099054757" y1="222.44373844291502" y2="223.23071695540648"/><line fill="none" stroke="#000" stroke-linecap="round" x1="-590.881415031742" x2="-581.621926569276" y1="222.44373844291502" y2="194.50435811545537"/><line fill="none" stroke="#000" stroke-linecap="round" x1="-581.0118239976373" x2="-545.8423309370374" y1="246.9781933778262" y2="260.7231135996248"/><line fill="none" stroke="#000" stroke-linecap="round" x1="-581.0118239976373" x2="-594.6932431135376" y1="246.9781933778262" y2="244.75287362798778"/><line fill="none" stroke="#000" stroke-linecap="round" x1="-581.0118239976373" x2="-533.8706647138509" y1="246.9781933778262" y2="275.5951156130707"/><line fill="none" stroke="#000" stroke-linecap="round" x1="-581.0118239976373" x2="-550.0832826711858" y1="246.9781933778262" y2="223.0270855075609"/><line fill="none" stroke="#000" stroke-linecap="round" x1="-581.0118239976373" x2="-609.5354768386276" y1="246.9781933778262" y2="258.5397204431708"/><line fill="none" stroke="#000" stroke-linecap="round" x1="-659.7964681481948" x2="-641.4346266620594" y1="328.3621324223496" y2="291.69009570403057"/><line fill="none" stroke="#000" stroke-linecap="round" x1="-659.7964681481948" x2="-680.9313863632599" y1="328.3621324223496" y2="349.5582448088513"/><line fill="none" stroke="#000" stroke-linecap="round" x1="-659.7964681481948" x2="-663.7329743590141" y1="328.3621324223496" y2="349.4595336224452"/><line fill="none" stroke="#000" stroke-linecap="round" x1="-659.7964681481948" x2="-659.1577058599125" y1="328.3621324223496" y2="308.86617564518133"/><line fill="none" stroke="#000" stroke-linecap="round" x1="-659.7964681481948" x2="-670.3502498664388" y1="328.3621324223496" y2="320.35282207752266"/><line fill="none" stroke="#000" stroke-linecap="round" x1="-615.2266492319385" x2="-606.0080708236999" y1="263.8532417633737" y2="267.9629895484734"/><line fill="none" stroke="#000" stroke-linecap="round" x1="-615.2266492319385" x2="-640.0758822216801" y1="263.8532417633737" y2="266.62447023430724"/><line fill="none" stroke="#000" stroke-linecap="round" x1="-615.2266492319385" x2="-616.6163865970941" y1="263.8532417633737" y2="259.8178253578254"/><line fill="none" stroke="#000" stroke-linecap="round" x1="-615.2266492319385" x2="-624.7155651237471" y1="263.8532417633737" y2="267.6629306704688"/><line fill="none" stroke="#000" stroke-linecap="round" x1="-615.2266492319385" x2="-595.069931645147" y1="263.8532417633737" y2="268.5939131261143"/><line fill="none" stroke="#000" stroke-linecap="round" x1="-615.8694236186801" x2="-599.171474437227" y1="213.7268362224804" y2="204.76100754073582"/><line fill="none" stroke="#000" stroke-linecap="round" x1="-615.8694236186801" x2="-621.6780937576013" y1="213.7268362224804" y2="213.58295917070808"/><line fill="none" stroke="#000" stroke-linecap="round" x1="-615.8694236186801" x2="-615.5181011298698" y1="213.7268362224804" y2="194.46152063748545"/><line fill="none" stroke="#000" stroke-linecap="round" x1="-615.8694236186801" x2="-626.5373815435744" y1="213.7268362224804" y2="212.53584623966387"/><line fill="none" stroke="#000" stroke-linecap="round" x1="-615.8694236186801" x2="-630.7285734681732" y1="213.7268362224804" y2="190.46571164773889"/><line fill="none" stroke="#000" stroke-linecap="round" x1="-595.849139057334" x2="-595.069931645147" y1="282.94823561989193" y2="268.5939131261143"/><line fill="none" stroke="#000" stroke-linecap="round" x1="-595.849139057334" x2="-600.1021873472471" y1="282.94823561989193" y2="313.70039545930507"/><line fill="none" stroke="#000" stroke-linecap="round" x1="-595.849139057334" x2="-606.0456765562075" y1="282.94823561989193" y2="269.26594137588506"/><line fill="none" stroke="#000" stroke-linecap="round" x1="-595.849139057334" x2="-576.6978537450557" y1="282.94823561989193" y2="276.4120490179985"/><line fill="none" stroke="#000" stroke-linecap="round" x1="-595.849139057334" x2="-609.5354768386276" y1="282.94823561989193" y2="258.5397204431708"/><line fill="none" stroke="#000" stroke-linecap="round" x1="-548.3543973873566" x2="-521.6547431315898" y1="210.98758336365458" y2="186.32168375008706"/><line fill="none" stroke="#000" stroke-linecap="round" x1="-548.3543973873566" x2="-536.2336767680479" y1="210.98758336365458" y2="221.00391361412875"/><line fill="none" stroke="#000" stroke-linecap="round" x1="-548.3543973873566" x2="-533.6293876781828" y1="210.98758336365458" y2="199.77848381074165"/><line fill="none" stroke="#000" stroke-linecap="round" x1="-548.3543973873566" x2="-557.3918418928264" y1="210.98758336365458" y2="190.87547755604888"/><line fill="none" stroke="#000" stroke-linecap="round" x1="-548.3543973873566" x2="-550.7531319816502" y1="210.98758336365458" y2="207.88834075024806"/><line fill="none" stroke="#000" stroke-linecap="round" x1="-595.069931645147" x2="-614.1557563228289" y1="268.5939131261143" y2="264.41473605375825"/><line fill="none" stroke="#000" stroke-linecap="round" x1="-595.069931645147" x2="-595.849139057334" y1="268.5939131261143" y2="282.94823561989193"/><line fill="none" stroke="#000" stroke-linecap="round" x1="-595.069931645147" x2="-606.0456765562075" y1="268.5939131261143" y2="269.26594137588506"/><line fill="none" stroke="#000" stroke-linecap="round" x1="-595.069931645147" x2="-583.0702435560502" y1="268.5939131261143" y2="253.27135126781042"/><line fill="none" stroke="#000" stroke-linecap="round" x1="-595.069931645147" x2="-572.232599741968" y1="268.5939131261143" y2="280.89608213917234"/><line fill="none" stroke="#000" stroke-linecap="round" x1="-599.4862004223278" x2="-617.4227866676432" y1="298.7962919224467" y2="283.12965922496664"/><line fill="none" stroke="#000" stroke-linecap="round" x1="-599.4862004223278" x2="-604.8719189881587" y1="298.7962919224467" y2="303.9348604230794"/><line fill="none" stroke="#000" stroke-linecap="round" x1="-599.4862004223278" x2="-611.0727104251268" y1="298.7962919224467" y2="323.1621721697561"/><line fill="none" stroke="#000" stroke-linecap="round" x1="-599.4862004223278" x2="-610.8235938362709" y1="298.7962919224467" y2="297.156970686213"/><line fill="none" stroke="#000" stroke-linecap="round" x1="-599.4862004223278" x2="-583.0702435560502" y1="298.7962919224467" y2="253.27135126781042"/><line fill="none" stroke="#000" stroke-linecap="round" x1="-606.0080708236999" x2="-615.2266492319385" y1="267.9629895484734" y2="263.8532417633737"/><line fill="none" stroke="#000" stroke-linecap="round" x1="-606.0080708236999" x2="-641.9408719469593" y1="267.9629895484734" y2="272.47588099212766"/><line fill="none" stroke="#000" stroke-linecap="round" x1="-606.0080708236999" x2="-595.849139057334" y1="267.9629895484734" y2="282.94823561989193"/><line fill="none" stroke="#000" stroke-linecap="round" x1="-606.0080708236999" x2="-616.6163865970941" y1="267.9629895484734" y2="259.8178253578254"/><line fill="none" stroke="#000" stroke-linecap="round" x1="-606.0080708236999" x2="-605.6781089701998" y1="267.9629895484734" y2="273.31852840800013"/><line fill="none" stroke="#000" stroke-linecap="round" x1="-625.6714778622658" x2="-635.5708360120324" y1="271.374232461543" y2="264.09481501641847"/><line fill="none" stroke="#000" stroke-linecap="round" x1="-625.6714778622658" x2="-620.9580696797872" y1="271.374232461543" y2="257.7237630288243"/><line fill="none" stroke="#000" stroke-linecap="round" x1="-625.6714778622658" x2="-614.1557563228289" y1="271.374232461543" y2="264.41473605375825"/><line fill="none" stroke="#000" stroke-linecap="round" x1="-625.6714778622658" x2="-595.849139057334" y1="271.374232461543" y2="282.94823561989193"/><line fill="none" stroke="#000" stroke-linecap="round" x1="-625.6714778622658" x2="-641.4346266620594" y1="271.374232461543" y2="291.69009570403057"/><line fill="none" stroke="#000" stroke-linecap="round" x1="-630.2936366355126" x2="-626.5373815435744" y1="235.73006147273477" y2="212.53584623966387"/><line fill="none" stroke="#000" stroke-linecap="round" x1="-630.2936366355126" x2="-635.5708360120324" y1="235.73006147273477" y2="264.09481501641847"/><line fill="none" stroke="#000" stroke-linecap="round" x1="-630.2936366355126" x2="-625.6714778622658" y1="235.73006147273477" y2="271.374232461543"/><line fill="none" stroke="#000" stroke-linecap="round" x1="-630.2936366355126" x2="-618.2868588338887" y1="235.73006147273477" y2="178.1003379592737"/><line fill="none" stroke="#000" stroke-linecap="round" x1="-630.2936366355126" x2="-615.8694236186801" y1="235.73006147273477" y2="213.7268362224804"/><line fill="none" stroke="#000" stroke-linecap="round" x1="-610.8235938362709" x2="-604.8719189881587" y1="297.156970686213" y2="303.9348604230794"/><line fill="none" stroke="#000" stroke-linecap="round" x1="-610.8235938362709" x2="-617.4227866676432" y1="297.156970686213" y2="283.12965922496664"/><line fill="none" stroke="#000" stroke-linecap="round" x1="-610.8235938362709" x2="-611.0727104251268" y1="297.156970686213" y2="323.1621721697561"/><line fill="none" stroke="#000" stroke-linecap="round" x1="-610.8235938362709" x2="-600.1021873472471" y1="297.156970686213" y2="313.70039545930507"/><line fill="none" stroke="#000" stroke-linecap="round" x1="-610.8235938362709" x2="-620.9580696797872" y1="297.156970686213" y2="257.7237630288243"/><line fill="none" stroke="#000" stroke-linecap="round" x1="-693.9467640944953" x2="-679.4929101364221" y1="272.5284654728813" y2="265.7232957278165"/><line fill="none" stroke="#000" stroke-linecap="round" x1="-693.9467640944953" x2="-699.0073114722027" y1="272.5284654728813" y2="269.0218561101887"/><line fill="none" stroke="#000" stroke-linecap="round" x1="-693.9467640944953" x2="-680.8263992220365" y1="272.5284654728813" y2="285.8330679332258"/><line fill="none" stroke="#000" stroke-linecap="round" x1="-693.9467640944953" x2="-679.8901302121019" y1="272.5284654728813" y2="269.78535870136835"/><line fill="none" stroke="#000" stroke-linecap="round" x1="-693.9467640944953" x2="-696.8752181334216" y1="272.5284654728813" y2="274.6239397648695"/><line fill="none" stroke="#000" stroke-linecap="round" x1="-640.1663851550774" x2="-600.1021873472471" y1="307.7019646003423" y2="313.70039545930507"/><line fill="none" stroke="#000" stroke-linecap="round" x1="-640.1663851550774" x2="-656.5442076776881" y1="307.7019646003423" y2="343.9499957637789"/><line fill="none" stroke="#000" stroke-linecap="round" x1="-640.1663851550774" x2="-675.1357162517372" y1="307.7019646003423" y2="335.16996093759735"/><line fill="none" stroke="#000" stroke-linecap="round" x1="-640.1663851550774" x2="-625.6714778622658" y1="307.7019646003423" y2="271.374232461543"/><line fill="none" stroke="#000" stroke-linecap="round" x1="-640.1663851550774" x2="-635.5708360120324" y1="307.7019646003423" y2="264.09481501641847"/><line fill="none" stroke="#000" stroke-linecap="round" x1="-614.4985871959746" x2="-565.7427821567759" y1="312.8151845273873" y2="319.65915668138877"/><line fill="none" stroke="#000" stroke-linecap="round" x1="-614.4985871959746" x2="-571.2470950854321" y1="312.8151845273873" y2="297.27590461583407"/><line fill="none" stroke="#000" stroke-linecap="round" x1="-614.4985871959746" x2="-635.1285558320158" y1="312.8151845273873" y2="326.934569483411"/><line fill="none" stroke="#000" stroke-linecap="round" x1="-614.4985871959746" x2="-626.1202271924896" y1="312.8151845273873" y2="297.08165592746906"/><line fill="none" stroke="#000" stroke-linecap="round" x1="-614.4985871959746" x2="-637.1233186283376" y1="312.8151845273873" y2="348.15243632881084"/><line fill="none" stroke="#000" stroke-linecap="round" x1="-583.0702435560502" x2="-566.8820825955149" y1="253.27135126781042" y2="252.69195786712748"/><line fill="none" stroke="#000" stroke-linecap="round" x1="-583.0702435560502" x2="-581.0118239976373" y1="253.27135126781042" y2="246.9781933778262"/><line fill="none" stroke="#000" stroke-linecap="round" x1="-583.0702435560502" x2="-571.9514702516794" y1="253.27135126781042" y2="238.5035547611121"/><line fill="none" stroke="#000" stroke-linecap="round" x1="-583.0702435560502" x2="-572.1961054251171" y1="253.27135126781042" y2="210.8434008019028"/><line fill="none" stroke="#000" stroke-linecap="round" x1="-583.0702435560502" x2="-615.2266492319385" y1="253.27135126781042" y2="263.8532417633737"/></svg>