<?xml version="1.0" ?><!DOCTYPE svg  PUBLIC '-//W3C//DTD SVG 1.1//EN'  'http://www.w3.org/Graphics/SVG/1.1/DTD/svg11.dtd'><svg height="425.000" viewBox="-620.000 -366.000 1153.000 425.000" width="1153.000" xmlns="http://www.w3.org/2000/svg"><line fill="none" stroke="none" stroke-linecap="round" stroke-width="2.0" x1="0.0" x2="0.0" y1="0.0" y2="0.0"/><polygon fill="none" fill-rule="evenodd" points="0.0,0.0 0.0,0.0 0.0,0.0" stroke-linejoin="round"/><polyline fill="none" points="-576.405186654933,-291.1064412002216 -573.9051866549017,-291.7763141812475 -572.0750596359266,-293.6064412001404 -571.4051866547883,-296.1064412001415 -572.0750596358142,-298.6064412001727 -573.9051866547071,-300.43656821914783 -576.4051866547082,-301.10644120028616 -578.9051866547395,-300.4365682192602 -580.7353136737147,-298.6064412003673 -581.405186654853,-296.10644120036625 -580.735313673827,-293.60644120033504 -578.9051866549341,-291.7763141813599 -576.405186654933,-291.1064412002216" stroke="#00f" stroke-linecap="round" stroke-linejoin="round"/><polyline fill="none" points="-539.9594986759994,-155.50585582697462 -537.4594986759681,-156.1757288080006 -535.6293716569929,-158.0058558268935 -534.9594986758547,-160.50585582689462 -535.6293716568806,-163.00585582692582 -537.4594986757735,-164.83598284590096 -539.9594986757746,-165.50585582703926 -542.4594986758059,-164.83598284601328 -544.2896256947811,-163.00585582712037 -544.9594986759193,-160.50585582711926 -544.2896256948934,-158.00585582708806 -542.4594986760005,-156.17572880811292 -539.9594986759994,-155.5058558269746" stroke="#008000" stroke-linecap="round" stroke-linejoin="round"/><polyline fill="none" points="-327.7554675328178,-194.8423892745068 -325.2554675327866,-195.51226225553273 -323.4253405138115,-197.34238927442564 -322.75546753267315,-199.84238927442675 -323.4253405136991,-202.34238927445796 -325.255467532592,-204.1725162934331 -327.75546753259306,-204.84238927457142 -330.25546753262427,-204.17251629354547 -332.0855945515994,-202.34238927465256 -332.7554675327377,-199.84238927465145 -332.0855945517118,-197.34238927462025 -330.2554675328189,-195.5122622556451 -327.7554675328178,-194.8423892745068" stroke="#ffa500" stroke-linecap="round" stroke-linejoin="round"/><polyline fill="none" points="-517.1292778387902,-287.32017243919324 -514.629277838759,-287.9900454202192 -512.7991508197838,-289.82017243911207 -512.1292778386455,-292.32017243911315 -512.7991508196715,-294.82017243914436 -514.6292778385643,-296.6502994581195 -517.1292778385655,-297.3201724392578 -519.6292778385967,-296.65029945823187 -521.4594048575719,-294.820172439339 -522.1292778387102,-292.3201724393379 -521.4594048576843,-289.8201724393067 -519.6292778387914,-287.99004542033157 -517.1292778387902,-287.32017243919324" stroke="#008000" stroke-linecap="round" stroke-linejoin="round"/><polyline fill="none" points="-527.9022031819062,-186.49216909702852 -525.4022031818749,-187.16204207805447 -523.5720761628997,-188.99216909694738 -522.9022031817615,-191.4921690969485 -523.5720761627874,-193.9921690969797 -525.4022031816803,-195.82229611595486 -527.9022031816814,-196.49216909709318 -530.4022031817127,-195.82229611606724 -532.2323302006879,-193.99216909717435 -532.9022031818262,-191.49216909717325 -532.2323302008002,-188.99216909714204 -530.4022031819073,-187.16204207816688 -527.9022031819062,-186.49216909702855" stroke="#00f" stroke-linecap="round" stroke-linejoin="round"/><polyline fill="none" points="-572.3236757859622,-344.7491157898517 -569.823675785931,-345.41898877087766 -567.9935487669558,-347.24911578977054 -567.3236757858175,-349.7491157897716 -567.9935487668434,-352.24911578980283 -569.8236757857363,-354.07924280877796 -572.3236757857375,-354.7491157899163 -574.8236757857687,-354.07924280889034 -576.6538028047439,-352.24911578999746 -577.3236757858822,-349.7491157899964 -576.6538028048562,-347.2491157899652 -574.8236757859634,-345.41898877099004 -572.3236757859622,-344.7491157898517" stroke="#00f" stroke-linecap="round" stroke-linejoin="round"/><polyline fill="none" points="480.8901071901918,-162.0453994350641 483.39010719022303,-162.71527241609004 485.22023420919817,-164.54539943498293 485.8901071903365,-167.04539943498403 485.22023420931055,-169.54539943501524 483.39010719041767,-171.3755264539904 480.8901071904166,-172.04539943512873 478.3901071903854,-171.37552645410278 476.55998017141025,-169.5453994352099 475.8901071902719,-167.0453994352088 476.55998017129787,-164.5453994351776 478.39010719019075,-162.71527241620242 480.8901071901918,-162.0453994350641" stroke="#ffa500" stroke-linecap="round" stroke-linejoin="round"/><polyline fill="none" points="-564.2609448742367,-162.0120624854621 -561.7609448742054,-162.68193546648806 -559.9308178552302,-164.51206248538094 -559.2609448740918,-167.01206248538205 -559.9308178551178,-169.51206248541325 -561.7609448740106,-171.34218950438841 -564.2609448740118,-172.01206248552674 -566.760944874043,-171.3421895045008 -568.5910718930182,-169.5120624856079 -569.2609448741566,-167.0120624856068 -568.5910718931307,-164.5120624855756 -566.7609448742378,-162.68193546660044 -564.2609448742367,-162.0120624854621" stroke="#00f" stroke-linecap="round" stroke-linejoin="round"/><polyline fill="none" points="36.69112220622573,-110.97515293220579 39.19112220625695,-111.64502591323173 41.02124922523211,-113.47515293212463 41.69112220637044,-115.97515293212574 41.02124922534449,-118.47515293215696 39.1911222064516,-120.30527995113212 36.691122206450494,-120.97515293227045 34.19112220641927,-120.3052799512445 32.36099518744411,-118.4751529323516 31.69112220630578,-115.9751529323505 32.360995187331724,-113.47515293231928 34.19112220622461,-111.64502591334411 36.69112220622572,-110.97515293220579" stroke="#ffa500" stroke-linecap="round" stroke-linejoin="round"/><polyline fill="none" points="516.3861902273176,-194.58040825469615 518.8861902273488,-195.2502812357221 520.716317246324,-197.08040825461498 521.3861902274624,-199.5804082546161 520.7163172464365,-202.0804082546473 518.8861902275436,-203.91053527362246 516.3861902275424,-204.58040825476078 513.8861902275112,-203.91053527373484 512.056063208536,-202.08040825484196 511.38619022739766,-199.58040825484085 512.0560632084236,-197.0804082548096 513.8861902273164,-195.25028123583445 516.3861902273176,-194.58040825469612" stroke="#00f" stroke-linecap="round" stroke-linejoin="round"/><polyline fill="none" points="-539.3940491942234,-343.4953378160103 -536.8940491941921,-344.16521079703625 -535.0639221752169,-345.99533781592913 -534.3940491940785,-348.4953378159302 -535.0639221751045,-350.9953378159614 -536.8940491939974,-352.8254648349366 -539.3940491939985,-353.49533781607494 -541.8940491940298,-352.825464835049 -543.724176213005,-350.9953378161561 -544.3940491941433,-348.49533781615503 -543.7241762131174,-345.9953378161238 -541.8940491942245,-344.16521079714863 -539.3940491942234,-343.4953378160103" stroke="#00f" stroke-linecap="round" stroke-linejoin="round"/><polyline fill="none" points="-423.9959590725249,-124.01125845437085 -421.4959590724937,-124.6811314353968 -419.6658320535185,-126.51125845428967 -418.9959590723802,-129.01125845429078 -419.6658320534061,-131.51125845432202 -421.495959072299,-133.34138547329718 -423.9959590723001,-134.0112584544355 -426.4959590723313,-133.34138547340956 -428.3260860913065,-131.51125845451668 -428.9959590724448,-129.01125845451557 -428.32608609141886,-126.51125845448435 -426.495959072526,-124.68113143550919 -423.9959590725249,-124.01125845437085" stroke="#00f" stroke-linecap="round" stroke-linejoin="round"/><polyline fill="none" points="-547.2905668294021,-202.8511603534118 -544.7905668293708,-203.52103333443776 -542.9604398103957,-205.35116035333064 -542.2905668292573,-207.85116035333175 -542.9604398102832,-210.35116035336299 -544.7905668291761,-212.18128737233815 -547.2905668291772,-212.8511603534765 -549.7905668292085,-212.18128737245056 -551.6206938481837,-210.35116035355767 -552.2905668293221,-207.85116035355657 -551.6206938482961,-205.35116035352533 -549.7905668294032,-203.52103333455017 -547.2905668294021,-202.8511603534118" stroke="#ffa500" stroke-linecap="round" stroke-linejoin="round"/><polyline fill="none" points="-349.3667971801404,-131.43994081086973 -346.8667971801092,-132.10981379189568 -345.036670161134,-133.93994081078856 -344.3667971799957,-136.43994081078966 -345.0366701610216,-138.9399408108209 -346.8667971799145,-140.77006782979606 -349.3667971799156,-141.43994081093442 -351.8667971799468,-140.77006782990847 -353.696924198922,-138.9399408110156 -354.3667971800603,-136.43994081101448 -353.69692419903436,-133.93994081098325 -351.8667971801415,-132.10981379200808 -349.3667971801404,-131.43994081086973" stroke="#ffa500" stroke-linecap="round" stroke-linejoin="round"/><polyline fill="none" points="-302.2209288056389,-205.94678889713154 -299.7209288056077,-206.6166618781575 -297.8908017866325,-208.44678889705037 -297.22092880549417,-210.94678889705148 -297.8908017865201,-213.4467888970827 -299.720928805413,-215.27691591605787 -302.2209288054141,-215.94678889719623 -304.7209288054453,-215.2769159161703 -306.5510558244205,-213.44678889727743 -307.2209288055588,-210.94678889727632 -306.55105582453285,-208.44678889724509 -304.72092880563997,-206.61666187826992 -302.2209288056389,-205.94678889713157" stroke="#ffa500" stroke-linecap="round" stroke-linejoin="round"/><polyline fill="none" points="-511.9203449090342,-316.28545284758286 -509.420344909003,-316.9553258286088 -507.5902178900278,-318.7854528475017 -506.9203449088895,-321.28545284750277 -507.59021788991544,-323.785452847534 -509.4203449088083,-325.61557986650917 -511.9203449088094,-326.2854528476475 -514.4203449088407,-325.61557986662154 -516.2504719278159,-323.78545284772866 -516.9203449089542,-321.2854528477276 -516.2504719279283,-318.7854528476964 -514.4203449090354,-316.9553258287212 -511.9203449090343,-316.28545284758286" stroke="#00f" stroke-linecap="round" stroke-linejoin="round"/><polyline fill="none" points="-368.24031229252773,-197.52004694713017 -365.7403122924965,-198.1899199281561 -363.91018527352134,-200.02004694704897 -363.240312292383,-202.52004694705008 -363.91018527340896,-205.0200469470813 -365.74031229230184,-206.8501739660565 -368.2403122923029,-207.52004694719486 -370.7403122923341,-206.85017396616894 -372.5704393113093,-205.02004694727606 -373.24031229244764,-202.52004694727495 -372.5704393114217,-200.0200469472437 -370.7403122925288,-198.18991992826852 -368.24031229252773,-197.52004694713017" stroke="#00f" stroke-linecap="round" stroke-linejoin="round"/><polyline fill="none" points="-468.9467396805299,-39.768571579840724 -466.4467396804987,-40.43844456086665 -464.6166126615235,-42.26857157975953 -463.9467396803852,-44.76857157976064 -464.6166126614111,-47.26857157979187 -466.446739680304,-49.09869859876705 -468.9467396803051,-49.768571579905405 -471.4467396803363,-49.09869859887948 -473.2768666993115,-47.2685715799866 -473.9467396804498,-44.76857157998549 -473.27686669942386,-42.268571579954255 -471.446739680531,-40.43844456097907 -468.9467396805299,-39.76857157984072" stroke="#ffa500" stroke-linecap="round" stroke-linejoin="round"/><polyline fill="none" points="-559.6503049727132,-328.69761445097225 -557.150304972682,-329.3674874319982 -555.3201779537068,-331.1976144508911 -554.6503049725684,-333.69761445089216 -555.3201779535943,-336.19761445092337 -557.1503049724872,-338.02774146989856 -559.6503049724884,-338.69761445103694 -562.1503049725196,-338.027741470011 -563.9804319914948,-336.1976144511181 -564.6503049726332,-333.69761445111703 -563.9804319916072,-331.1976144510858 -562.1503049727144,-329.36748743211064 -559.6503049727132,-328.69761445097225" stroke="#00f" stroke-linecap="round" stroke-linejoin="round"/><polyline fill="none" points="-20.646758696712716,-105.68294461191188 -18.14675869668148,-106.3528175929378 -16.316631677706294,-108.18294461183068 -15.646758696567936,-110.68294461183179 -16.316631677593858,-113.18294461186302 -18.14675869648673,-115.01307163083821 -20.646758696487836,-115.68294461197657 -23.146758696519072,-115.01307163095065 -24.97688571549426,-113.18294461205777 -25.646758696632617,-110.68294461205666 -24.9768857156067,-108.18294461202542 -23.146758696713825,-106.35281759305023 -20.64675869671272,-105.68294461191188" stroke="#00f" stroke-linecap="round" stroke-linejoin="round"/><polyline fill="none" points="-460.8662249286425,-257.33076521970867 -458.3662249286113,-258.0006382007346 -456.5360979096361,-259.8307652196275 -455.86622492849773,-262.3307652196286 -456.5360979095237,-264.83076521965984 -458.36622492841656,-266.66089223863503 -460.86622492841764,-267.3307652197734 -463.3662249284489,-266.6608922387475 -465.1963519474241,-264.83076521985464 -465.8662249285625,-262.33076521985356 -465.1963519475366,-259.8307652198223 -463.3662249286437,-258.0006382008471 -460.8662249286426,-257.3307652197087" stroke="#ffa500" stroke-linecap="round" stroke-linejoin="round"/><polyline fill="none" points="-423.03876841799,-238.63270900381312 -420.53876841795875,-239.30258198483904 -418.70864139898356,-241.13270900373192 -418.0387684178452,-243.63270900373303 -418.70864139887107,-246.13270900376426 -420.53876841776395,-247.96283602273945 -423.038768417765,-248.6327090038778 -425.5387684177963,-247.9628360228519 -427.3688954367715,-246.132709003959 -428.03876841790986,-243.6327090039579 -427.368895436884,-241.13270900392666 -425.5387684179911,-239.30258198495147 -423.03876841799,-238.63270900381312" stroke="#ffa500" stroke-linecap="round" stroke-linejoin="round"/><polyline fill="none" points="-411.6602971152422,-188.90057689668637 -409.16029711521094,-189.5704498777123 -407.33017009623575,-191.40057689660517 -406.66029711509736,-193.90057689660628 -407.33017009612325,-196.40057689663752 -409.16029711501614,-198.2307039156127 -411.6602971150172,-198.90057689675106 -414.1602971150485,-198.23070391572514 -415.99042413402367,-196.40057689683226 -416.66029711516205,-193.90057689683115 -415.99042413413616,-191.40057689679992 -414.1602971152433,-189.57044987782473 -411.6602971152422,-188.90057689668635" stroke="#ffa500" stroke-linecap="round" stroke-linejoin="round"/><polyline fill="none" points="-604.2183498514325,-255.19182281179707 -601.7183498514013,-255.86169579282299 -599.8882228324261,-257.69182281171584 -599.2183498512877,-260.1918228117169 -599.8882228323137,-262.6918228117482 -601.7183498512065,-264.5219498307234 -604.2183498512077,-265.19182281186175 -606.7183498512389,-264.52194983083587 -608.5484768702141,-262.691822811943 -609.2183498513525,-260.1918228119419 -608.5484768703266,-257.69182281191064 -606.7183498514337,-255.86169579293545 -604.2183498514325,-255.19182281179707" stroke="#00f" stroke-linecap="round" stroke-linejoin="round"/><polyline fill="none" points="-303.3827832275351,30.697992764053545 -300.88278322750386,30.028119783027638 -299.0526562085287,28.197992764134767 -298.3827832273903,25.697992764133662 -299.0526562084162,23.19799276410242 -300.88278322730906,21.367865745127222 -303.38278322731014,20.69799276398885 -305.8827832273414,21.367865745014758 -307.7129102463166,23.197992763907624 -308.382783227455,25.69799276390873 -307.7129102464291,28.197992763939972 -305.8827832275362,30.02811978291517 -303.3827832275351,30.697992764053545" stroke="#ffa500" stroke-linecap="round" stroke-linejoin="round"/><polyline fill="none" points="-408.47888880829146,-264.4024791289877 -405.9788888082602,-265.0723521100136 -404.148761789285,-266.90247912890646 -403.4788888081466,-269.40247912890754 -404.1487617891725,-271.9024791289388 -405.9788888080654,-273.732606147914 -408.4788888080665,-274.4024791290524 -410.97888880809774,-273.7326061480265 -412.8090158270729,-271.9024791291336 -413.4788888082113,-269.40247912913253 -412.8090158271854,-266.90247912910127 -410.97888880829254,-265.0723521101261 -408.47888880829146,-264.4024791289877" stroke="#ffa500" stroke-linecap="round" stroke-linejoin="round"/><polyline fill="none" points="466.26754982678494,-186.51194269363268 468.7675498268162,-187.1818156746586 470.5976768457914,-189.01194269355145 471.2675498269298,-191.51194269355256 470.5976768459039,-194.0119426935838 468.767549827011,-195.84206971255898 466.26754982700993,-196.51194269369736 463.76754982697867,-195.84206971267147 461.9374228080035,-194.01194269377862 461.2675498268651,-191.5119426937775 461.937422807891,-189.01194269374628 463.76754982678386,-187.1818156747711 466.26754982678494,-186.5119426936327" stroke="#ffa500" stroke-linecap="round" stroke-linejoin="round"/><polyline fill="none" points="-472.93222890445895,-282.96904004884254 -470.4322289044277,-283.63891302986843 -468.6021018854525,-285.4690400487613 -467.9322289043141,-287.9690400487624 -468.60210188534,-290.46904004879366 -470.4322289042329,-292.29916706776885 -472.93222890423397,-292.96904004890723 -475.43222890426523,-292.29916706788134 -477.2623559232404,-290.46904004898846 -477.9322289043788,-287.9690400489874 -477.2623559233529,-285.4690400489561 -475.43222890446003,-283.6389130299809 -472.93222890445895,-282.96904004884254" stroke="#ffa500" stroke-linecap="round" stroke-linejoin="round"/><polyline fill="none" points="-303.49041173046635,-116.48561854876026 -300.9904117304351,-117.15549152978616 -299.1602847114599,-118.98561854867903 -298.4904117303215,-121.48561854868014 -299.1602847113474,-123.98561854871139 -300.9904117302403,-125.81574556768659 -303.49041173024136,-126.48561854882497 -305.9904117302726,-125.81574556779907 -307.8205387492478,-123.9856185489062 -308.4904117303862,-121.4856185489051 -307.8205387493603,-118.98561854887384 -305.99041173046743,-117.15549152989864 -303.49041173046635,-116.48561854876026" stroke="#ffa500" stroke-linecap="round" stroke-linejoin="round"/><polyline fill="none" points="-358.3044645694358,-173.85952504316734 -355.80446456940456,-174.52939802419323 -353.97433755042937,-176.35952504308608 -353.304464569291,-178.8595250430872 -353.9743375503169,-181.35952504311842 -355.80446456920976,-183.18965206209364 -358.30446456921084,-183.85952504323203 -360.8044645692421,-183.18965206220614 -362.6345915882173,-181.35952504331328 -363.3044645693557,-178.85952504331217 -362.6345915883298,-176.35952504328094 -360.8044645694369,-174.52939802430572 -358.3044645694358,-173.85952504316734" stroke="#ffa500" stroke-linecap="round" stroke-linejoin="round"/><polyline fill="none" points="-437.29978922053766,-152.9828847664203 -434.7997892205064,-153.6527577474462 -432.9696622015312,-155.48288476633905 -432.2997892203928,-157.98288476634016 -432.9696622014187,-160.4828847663714 -434.7997892203116,-162.31301178534662 -437.2997892203127,-162.982884766485 -439.79978922034394,-162.3130117854591 -441.62991623931913,-160.48288476656626 -442.2997892204575,-157.98288476656515 -441.6299162394316,-155.4828847665339 -439.79978922053874,-153.6527577475587 -437.29978922053766,-152.9828847664203" stroke="#ffa500" stroke-linecap="round" stroke-linejoin="round"/><polyline fill="none" points="-496.4794764186844,-246.60835443120334 -493.9794764186531,-247.27822741222923 -492.14934939967793,-249.10835443112208 -491.47947641853955,-251.6083544311232 -492.14934939956544,-254.10835443115445 -493.9794764184583,-255.93848145012967 -496.4794764184594,-256.6083544312681 -498.97947641849066,-255.9384814502422 -500.80960343746585,-254.10835443134934 -501.47947641860424,-251.60835443134823 -500.80960343757835,-249.10835443131697 -498.97947641868546,-247.27822741234175 -496.4794764186844,-246.60835443120337" stroke="#00f" stroke-linecap="round" stroke-linejoin="round"/><polyline fill="none" points="-473.097867141701,-68.63741977628393 -470.5978671416697,-69.30729275730982 -468.76774012269453,-71.13741977620268 -468.09786714155615,-73.63741977620379 -468.76774012258204,-76.13741977623503 -470.5978671414749,-77.96754679521025 -473.097867141476,-78.63741977634865 -475.59786714150727,-77.96754679532276 -477.42799416048246,-76.13741977642991 -478.09786714162084,-73.6374197764288 -477.42799416059495,-71.13741977639755 -475.59786714170207,-69.30729275742233 -473.097867141701,-68.63741977628393" stroke="#00f" stroke-linecap="round" stroke-linejoin="round"/><polyline fill="none" points="-276.45511954521254,-64.26203487029997 -273.9551195451813,-64.93190785132586 -272.12499252620603,-66.76203487021871 -271.45511954506765,-69.26203487021982 -272.12499252609354,-71.76203487025107 -273.9551195449864,-73.59216188922629 -276.4551195449875,-74.26203487036469 -278.95511954501876,-73.5921618893388 -280.785246563994,-71.76203487044594 -281.4551195451324,-69.26203487044484 -280.7852465641065,-66.76203487041359 -278.9551195452136,-64.93190785143837 -276.45511954521254,-64.26203487029997" stroke="#ffa500" stroke-linecap="round" stroke-linejoin="round"/><polyline fill="none" points="-244.40073158334866,-30.61220635068775 -241.9007315833174,-31.282079331713636 -240.07060456434218,-33.11220635060649 -239.40073158320376,-35.6122063506076 -240.07060456422965,-38.11220635063886 -241.9007315831225,-39.942333369614076 -244.40073158312362,-40.61220635075248 -246.90073158315488,-39.9423333697266 -248.7308586021301,-38.112206350833745 -249.4007315832685,-35.612206350832636 -248.73085860224262,-33.11220635080138 -246.90073158334977,-31.282079331826157 -244.40073158334866,-30.612206350687757" stroke="#ffa500" stroke-linecap="round" stroke-linejoin="round"/><polyline fill="none" points="488.27407945436005,-222.1995162548136 490.7740794543913,-222.8693892358395 492.60420647336656,-224.69951625473234 493.27407945450494,-227.19951625473345 492.60420647347905,-229.69951625476472 490.7740794545862,-231.52964327373994 488.2740794545851,-232.19951625487835 485.7740794545538,-231.52964327385246 483.9439524355786,-229.6995162549596 483.2740794544402,-227.1995162549585 483.9439524354661,-224.69951625492723 485.7740794543589,-222.869389235952 488.27407945436,-222.1995162548136" stroke="#ffa500" stroke-linecap="round" stroke-linejoin="round"/><polyline fill="none" points="-450.3509465063174,-59.019891613214384 -447.85094650628616,-59.689764594240266 -446.0208194873109,-61.51989161313312 -445.35094650617253,-64.01989161313422 -446.0208194871984,-66.51989161316548 -447.85094650609125,-68.35001863214072 -450.3509465060923,-69.01989161327913 -452.8509465061236,-68.35001863225325 -454.68107352509884,-66.5198916133604 -455.3509465062372,-64.01989161335929 -454.68107352521133,-61.519891613328035 -452.8509465063185,-59.68976459435281 -450.3509465063174,-59.019891613214405" stroke="#ffa500" stroke-linecap="round" stroke-linejoin="round"/><polyline fill="none" points="11.365163582115166,-103.92158628426229 13.865163582146424,-104.59145926528817 15.695290601121652,-106.42158628418102 16.36516358226006,-108.92158628418213 15.695290601234182,-111.42158628421339 13.865163582341332,-113.25171330318862 11.365163582340225,-113.92158628432703 8.865163582308966,-113.25171330330116 7.035036563333737,-111.4215862844083 6.365163582195327,-108.9215862844072 7.035036563221204,-106.42158628437593 8.865163582114054,-104.5914592654007 11.36516358211516,-103.92158628426229" stroke="#ffa500" stroke-linecap="round" stroke-linejoin="round"/><polyline fill="none" points="503.35983754743586,-172.91275912692402 505.8598375474671,-173.5826321079499 507.68996456644237,-175.41275912684276 508.35983754758075,-177.91275912684387 507.68996456655486,-180.41275912687513 505.85983754766204,-182.24288614585035 503.35983754766096,-182.91275912698876 500.8598375476297,-182.2428861459629 499.02971052865445,-180.41275912707005 498.359837547516,-177.91275912706894 499.0297105285419,-175.41275912703767 500.8598375474347,-173.58263210806246 503.3598375474358,-172.91275912692404" stroke="#ffa500" stroke-linecap="round" stroke-linejoin="round"/><polyline fill="none" points="55.79392320214492,-92.27132585699009 58.29392320217618,-92.94119883801596 60.124050221151414,-94.77132585690882 60.793923202289825,-97.27132585690993 60.12405022126395,-99.77132585694119 58.293923202371104,-101.60145287591642 55.793923202369996,-102.27132585705483 53.29392320233873,-101.60145287602896 51.4637961833635,-99.7713258571361 50.79392320222508,-97.271325857135 51.46379618325095,-94.77132585710373 53.293923202143795,-92.9411988381285 55.7939232021449,-92.27132585699009" stroke="#ffa500" stroke-linecap="round" stroke-linejoin="round"/><polyline fill="none" points="-375.20926748759234,-224.7398286737835 -372.7092674875611,-225.40970165480937 -370.87914046858583,-227.23982867370222 -370.2092674874474,-229.73982867370333 -370.8791404684733,-232.2398286737346 -372.7092674873661,-234.06995569270984 -375.2092674873672,-234.73982867384825 -377.70926748739845,-234.0699556928224 -379.5393945063737,-232.23982867392954 -380.20926748751214,-229.73982867392843 -379.53939450648625,-227.23982867389716 -377.7092674875934,-225.40970165492192 -375.20926748759234,-224.7398286737835" stroke="#ffa500" stroke-linecap="round" stroke-linejoin="round"/><polyline fill="none" points="-432.7449488637933,-181.17541683225204 -430.24494886376203,-181.8452898132779 -428.4148218447868,-183.67541683217075 -427.74494886364835,-186.17541683217186 -428.41482184467424,-188.67541683220313 -430.24494886356706,-190.50554385117837 -432.74494886356814,-191.17541683231678 -435.2449488635994,-190.50554385129092 -437.07507588257465,-188.67541683239807 -437.7449488637131,-186.17541683239696 -437.0750758826872,-183.6754168323657 -435.2449488637944,-181.84528981339045 -432.7449488637933,-181.17541683225204" stroke="#ffa500" stroke-linecap="round" stroke-linejoin="round"/><polyline fill="none" points="-395.9183393659149,-242.21584147618935 -393.41833936588364,-242.88571445721522 -391.5882123469084,-244.71584147610807 -390.91833936576995,-247.21584147610918 -391.58821234679584,-249.71584147614044 -393.41833936568867,-251.5459684951157 -395.91833936568975,-252.2158414762541 -398.418339365721,-251.54596849522824 -400.24846638469626,-249.71584147633538 -400.9183393658347,-247.21584147633428 -400.2484663848088,-244.715841476303 -398.418339365916,-242.88571445732777 -395.9183393659149,-242.21584147618935" stroke="#ffa500" stroke-linecap="round" stroke-linejoin="round"/><polyline fill="none" points="-566.1880136051083,-220.7316598471167 -563.688013605077,-221.40153282814256 -561.8578865861018,-223.23165984703542 -561.1880136049634,-225.73165984703652 -561.8578865859893,-228.2316598470678 -563.6880136048821,-230.06178686604304 -566.1880136048833,-230.73165984718145 -568.6880136049145,-230.0617868661556 -570.5181406238897,-228.23165984726273 -571.1880136050281,-225.73165984726162 -570.5181406240023,-223.23165984723036 -568.6880136051094,-221.4015328282551 -566.1880136051083,-220.73165984711667" stroke="#008000" stroke-linecap="round" stroke-linejoin="round"/><polyline fill="none" points="-383.54603858664655,-176.98847402896462 -381.0460385866153,-177.65834700999048 -379.21591156764003,-179.48847402888333 -378.5460385865016,-181.98847402888444 -379.2159115675275,-184.4884740289157 -381.0460385864203,-186.31860104789095 -383.5460385864214,-186.9884740290294 -386.04603858645265,-186.31860104800353 -387.8761656054279,-184.48847402911068 -388.54603858656634,-181.98847402910957 -387.8761656055405,-179.4884740290783 -386.0460385866477,-177.65834701010306 -383.5460385866466,-176.98847402896462" stroke="#ffa500" stroke-linecap="round" stroke-linejoin="round"/><polyline fill="none" points="-372.20880441164917,-131.836067872916 -369.7088044116179,-132.50594085394187 -367.87867739264266,-134.33606787283472 -367.2088044115042,-136.83606787283583 -367.87867739253005,-139.3360678728671 -369.7088044114229,-141.16619489184234 -372.20880441142396,-141.83606787298078 -374.7088044114552,-141.16619489195492 -376.53893143043047,-139.33606787306206 -377.2088044115689,-136.83606787306095 -376.5389314305431,-134.3360678730297 -374.70880441165025,-132.50594085405444 -372.20880441164917,-131.836067872916" stroke="#ffa500" stroke-linecap="round" stroke-linejoin="round"/><polyline fill="none" points="-299.0167486260824,-179.16131452323282 -296.51674862605114,-179.83118750425868 -294.6866216070759,-181.66131452315153 -294.01674862593745,-184.16131452315264 -294.6866216069633,-186.6613145231839 -296.5167486258561,-188.49144154215915 -299.0167486258572,-189.1613145232976 -301.51674862588845,-188.49144154227173 -303.3468756448637,-186.66131452337888 -304.01674862600214,-184.16131452337777 -303.3468756449763,-181.6613145233465 -301.5167486260835,-179.83118750437126 -299.0167486260824,-179.16131452323282" stroke="#ffa500" stroke-linecap="round" stroke-linejoin="round"/><polyline fill="none" points="-392.2169104421105,-118.00866197068105 -389.7169104420792,-118.67853495170691 -387.88678342310396,-120.50866197059975 -387.2169104419655,-123.00866197060085 -387.88678342299136,-125.50866197063213 -389.7169104418842,-127.33878898960738 -392.21691044188526,-128.0086619707458 -394.7169104419165,-127.33878898971996 -396.5470374608918,-125.50866197082712 -397.2169104420302,-123.00866197082601 -396.5470374610044,-120.50866197079473 -394.71691044211155,-118.67853495181949 -392.2169104421105,-118.00866197068105" stroke="#00f" stroke-linecap="round" stroke-linejoin="round"/><polyline fill="none" points="-500.99098023764265,-125.66493122614392 -498.4909802376114,-126.33480420716977 -496.66085321863613,-128.1649312260626 -495.9909802374977,-130.66493122606371 -496.6608532185235,-133.16493122609498 -498.49098023741635,-134.99505824507023 -500.99098023741743,-135.66493122620867 -503.4909802374487,-134.9950582451828 -505.32110725642394,-133.16493122628998 -505.9909802375624,-130.66493122628887 -505.32110725653655,-128.1649312262576 -503.4909802376437,-126.33480420728235 -500.99098023764265,-125.6649312261439" stroke="#00f" stroke-linecap="round" stroke-linejoin="round"/><polyline fill="none" points="-592.0838744646231,-209.05137979778328 -589.5838744645919,-209.72125277880914 -587.7537474456166,-211.55137979770197 -587.0838744644781,-214.05137979770308 -587.7537474455039,-216.55137979773434 -589.5838744643968,-218.3815068167096 -592.0838744643979,-219.05137979784803 -594.5838744644292,-218.38150681682217 -596.4140014834045,-216.55137979792934 -597.083874464543,-214.05137979792823 -596.4140014835172,-211.55137979789697 -594.5838744646243,-209.72125277892172 -592.0838744646231,-209.05137979778328" stroke="#ffa500" stroke-linecap="round" stroke-linejoin="round"/><polyline fill="none" points="-268.07609811724757,-114.91396557826629 -265.5760981172163,-115.58383855929213 -263.74597109824106,-117.41396557818497 -263.0760981171026,-119.91396557818608 -263.74597109812845,-122.41396557821736 -265.5760981170213,-124.24409259719262 -268.07609811702235,-124.91396557833106 -270.5760981170536,-124.24409259730521 -272.40622513602887,-122.41396557841237 -273.0760981171673,-119.91396557841126 -272.4062251361415,-117.41396557837999 -270.57609811724865,-115.58383855940473 -268.07609811724757,-114.91396557826629" stroke="#ffa500" stroke-linecap="round" stroke-linejoin="round"/><polyline fill="none" points="-249.74058621817892,-58.22768457380099 -247.24058621814766,-58.89755755482684 -245.4104591991724,-60.72768457371967 -244.74058621803397,-63.22768457372078 -245.4104591990598,-65.72768457375206 -247.24058621795263,-67.55781159272732 -249.74058621795373,-68.22768457386576 -252.240586217985,-67.55781159283991 -254.07071323696027,-65.72768457394709 -254.7405862180987,-63.22768457394598 -254.07071323707288,-60.7276845739147 -252.24058621818006,-58.89755755493944 -249.74058621817895,-58.22768457380099" stroke="#ffa500" stroke-linecap="round" stroke-linejoin="round"/><polyline fill="none" points="-478.28153340774446,-210.14945432898878 -475.7815334077132,-210.81932731001461 -473.95140638873795,-212.64945432890744 -473.2815334075995,-215.14945432890855 -473.95140638862534,-217.64945432893984 -475.78153340751817,-219.47958134791511 -478.28153340751925,-220.14945432905355 -480.7815334075505,-219.47958134802772 -482.61166042652576,-217.6494543291349 -483.2815334076642,-215.1494543291338 -482.61166042663837,-212.6494543291025 -480.78153340774554,-210.81932731012722 -478.28153340774446,-210.14945432898878" stroke="#00f" stroke-linecap="round" stroke-linejoin="round"/><polyline fill="none" points="-572.3103309020568,-195.46218754666415 -569.8103309020255,-196.13206052769 -567.9802038830502,-197.9621875465828 -567.3103309019117,-200.46218754658392 -567.9802038829375,-202.9621875466152 -569.8103309018304,-204.7923145655905 -572.3103309018315,-205.46218754672893 -574.8103309018628,-204.7923145657031 -576.6404579208381,-202.96218754681027 -577.3103309019766,-200.46218754680916 -576.6404579209508,-197.96218754677787 -574.8103309020579,-196.1320605278026 -572.3103309020568,-195.46218754666415" stroke="#00f" stroke-linecap="round" stroke-linejoin="round"/><polyline fill="none" points="-255.93096848330754,29.53455776111574 -253.43096848327625,28.8646847800899 -251.60084146430097,27.03455776119707 -250.93096848316253,24.534557761195966 -251.60084146418836,22.034557761164685 -253.4309684830812,20.204430742189416 -255.9309684830823,19.534557761050962 -258.4309684831136,20.2044307420768 -260.26109550208884,22.034557760969626 -260.9309684832273,24.53455776097073 -260.26109550220144,27.034557761002013 -258.4309684833086,28.86468477997728 -255.9309684833075,29.534557761115735" stroke="#ffa500" stroke-linecap="round" stroke-linejoin="round"/><polyline fill="none" points="-415.5693720583506,-139.46190501449416 -413.06937205831935,-140.13177799552 -411.2392450393441,-141.96190501441282 -410.56937205820566,-144.46190501441393 -411.2392450392315,-146.96190501444522 -413.0693720581243,-148.7920320334205 -415.5693720581254,-149.46190501455897 -418.06937205815666,-148.79203203353313 -419.8994990771319,-146.9619050146403 -420.56937205827035,-144.4619050146392 -419.8994990772445,-141.9619050146079 -418.0693720583517,-140.13177799563263 -415.5693720583506,-139.46190501449416" stroke="#ffa500" stroke-linecap="round" stroke-linejoin="round"/><polyline fill="none" points="-523.1132424148317,-240.1849304155388 -520.6132424148004,-240.85480339656462 -518.7831153958251,-242.68493041545744 -518.1132424146866,-245.18493041545855 -518.7831153957125,-247.68493041548984 -520.6132424146053,-249.51505743446512 -523.1132424146065,-250.1849304156036 -525.6132424146377,-249.51505743457776 -527.443369433613,-247.68493041568493 -528.1132424147515,-245.18493041568382 -527.4433694337257,-242.68493041565253 -525.6132424148329,-240.85480339667726 -523.1132424148318,-240.1849304155388" stroke="#f00" stroke-linecap="round" stroke-linejoin="round"/><polyline fill="none" points="-477.17852046601377,-236.66175412260108 -474.6785204659825,-237.33162710362691 -472.8483934470072,-239.16175412251974 -472.17852046586876,-241.66175412252085 -472.8483934468946,-244.16175412255214 -474.6785204657874,-245.99188114152741 -477.1785204657885,-246.66175412266588 -479.67852046581976,-245.99188114164005 -481.50864748479506,-244.16175412274723 -482.1785204659335,-241.66175412274612 -481.50864748490767,-239.16175412271483 -479.67852046601485,-237.33162710373955 -477.17852046601377,-236.66175412260108" stroke="#008000" stroke-linecap="round" stroke-linejoin="round"/><polyline fill="none" points="-441.9318666633539,-84.53668698766009 -439.43186666332264,-85.20655996868592 -437.60173964434733,-87.03668698757875 -436.9318666632089,-89.53668698757986 -437.6017396442347,-92.03668698761115 -439.43186666312755,-93.86681400658642 -441.93186666312863,-94.53668698772489 -444.4318666631599,-93.86681400669906 -446.2619936821352,-92.03668698780623 -446.93186666327364,-89.53668698780513 -446.2619936822478,-87.03668698777383 -444.431866663355,-85.20655996879856 -441.9318666633539,-84.53668698766009" stroke="#ffa500" stroke-linecap="round" stroke-linejoin="round"/><polyline fill="none" points="-389.9475448843395,-151.69544523061302 -387.44754488430823,-152.36531821163885 -385.6174178653329,-154.19544523053167 -384.9475448841945,-156.69544523053278 -385.6174178652203,-159.19544523056408 -387.44754488411314,-161.02557224953935 -389.9475448841142,-161.69544523067782 -392.4475448841455,-161.025572249652 -394.2776719031208,-159.19544523075916 -394.9475448842593,-156.69544523075805 -394.27767190323345,-154.19544523072676 -392.44754488434063,-152.3653182117515 -389.94754488433955,-151.69544523061302" stroke="#ffa500" stroke-linecap="round" stroke-linejoin="round"/><polyline fill="none" points="-305.83181617299005,3.8003666237601257 -303.3318161729588,3.1304936427343018 -301.5016891539835,1.3003666238414826 -300.831816172845,-1.1996333761596232 -301.5016891538708,-3.6996333761909135 -303.33181617276364,-5.529760395166196 -305.8318161727647,-6.199633376304668 -308.331816172796,-5.529760395278846 -310.1619431917713,-3.699633376386027 -310.8318161729098,-1.1996333763849214 -310.16194319188395,1.3003666236463691 -308.3318161729911,3.130493642621653 -305.83181617299005,3.800366623760126" stroke="#00f" stroke-linecap="round" stroke-linejoin="round"/><polyline fill="none" points="-516.0858014939346,-154.18729564211048 -513.5858014939033,-154.85716862313632 -511.755674474928,-156.68729564202914 -511.0858014937895,-159.18729564203025 -511.75567447481535,-161.68729564206154 -513.5858014937081,-163.51742266103682 -516.0858014937093,-164.1872956421753 -518.5858014937405,-163.51742266114945 -520.4159285127158,-161.68729564225663 -521.0858014938543,-159.18729564225552 -520.4159285128285,-156.68729564222423 -518.5858014939357,-154.85716862324895 -516.0858014939346,-154.18729564211048" stroke="#00f" stroke-linecap="round" stroke-linejoin="round"/><polyline fill="none" points="-285.9469708331524,-134.31125445602694 -283.4469708331211,-134.98112743705278 -281.6168438141458,-136.8112544559456 -280.9469708330073,-139.3112544559467 -281.61684381403313,-141.811254455978 -283.44697083292596,-143.64138147495328 -285.94697083292704,-144.31125445609175 -288.44697083295836,-143.64138147506594 -290.27709785193366,-141.81125445617312 -290.94697083307216,-139.311254456172 -290.2770978520463,-136.81125445614072 -288.4469708331535,-134.98112743716544 -285.9469708331524,-134.31125445602697" stroke="#ffa500" stroke-linecap="round" stroke-linejoin="round"/><polyline fill="none" points="-453.44194681111156,-202.50344217089997 -450.94194681108024,-203.17331515192578 -449.11181979210494,-205.0034421708186 -448.44194681096644,-207.5034421708197 -449.1118197919923,-210.003442170851 -450.9419468108851,-211.8335691898263 -453.4419468108862,-212.50344217096477 -455.9419468109175,-211.83356918993897 -457.7720738298928,-210.00344217104615 -458.4419468110313,-207.50344217104504 -457.77207383000547,-205.00344217101375 -455.94194681111264,-203.17331515203844 -453.44194681111156,-202.50344217089997" stroke="#00f" stroke-linecap="round" stroke-linejoin="round"/><polyline fill="none" points="-447.8592230395885,-236.58559521596402 -445.3592230395572,-237.25546819698982 -443.5290960205819,-239.08559521588265 -442.8592230394434,-241.58559521588376 -443.52909602046924,-244.08559521591505 -445.35922303936206,-245.91572223489035 -447.85922303936314,-246.58559521602882 -450.35922303939446,-245.91572223500302 -452.18935005836977,-244.0855952161102 -452.85922303950827,-241.58559521610908 -452.18935005848243,-239.0855952160778 -450.3592230395896,-237.2554681971025 -447.8592230395885,-236.585595215964" stroke="#ffa500" stroke-linecap="round" stroke-linejoin="round"/><polyline fill="none" points="-407.71330043127165,-96.9938474506667 -405.2133004312403,-97.66372043169252 -403.383173412265,-99.49384745058533 -402.7133004311265,-101.99384745058644 -403.38317341215236,-104.49384745061774 -405.2133004310452,-106.32397446959303 -407.71330043104626,-106.99384745073151 -410.2133004310776,-106.32397446970569 -412.0434274500529,-104.49384745081288 -412.7133004311914,-101.99384745081177 -412.04342745016555,-99.49384745078048 -410.2133004312727,-97.66372043180519 -407.71330043127165,-96.9938474506667" stroke="#ffa500" stroke-linecap="round" stroke-linejoin="round"/><polyline fill="none" points="-413.7185185465493,-215.52292890119654 -411.218518546518,-216.19280188222234 -409.3883915275427,-218.02292890111516 -408.7185185464042,-220.52292890111627 -409.38839152743003,-223.02292890114757 -411.21851854632285,-224.85305592012287 -413.71851854632393,-225.52292890126137 -416.21851854635526,-224.85305592023556 -418.04864556533056,-223.02292890134274 -418.71851854646906,-220.52292890134163 -418.0486455654432,-218.02292890131034 -416.2185185465504,-216.19280188233503 -413.7185185465493,-215.52292890119654" stroke="#ffa500" stroke-linecap="round" stroke-linejoin="round"/><polyline fill="none" points="-584.5066215617595,-271.7842213233305 -582.0066215617283,-272.4540943043563 -580.176494542753,-274.28422132324914 -579.5066215616145,-276.7842213232502 -580.1764945426403,-279.28422132328154 -582.006621561533,-281.11434834225685 -584.5066215615342,-281.78422132339534 -587.0066215615655,-281.1143483423695 -588.8367485805408,-279.2842213234767 -589.5066215616793,-276.7842213234756 -588.8367485806534,-274.2842213234443 -587.0066215617607,-272.454094304469 -584.5066215617595,-271.7842213233305" stroke="#00f" stroke-linecap="round" stroke-linejoin="round"/><polyline fill="none" points="-374.2561057723501,-62.387321110266925 -371.7561057723188,-63.05719409129273 -369.9259787533435,-64.88732111018554 -369.256105772205,-67.38732111018665 -369.9259787532308,-69.88732111021795 -371.75610577212365,-71.71744812919326 -374.2561057721247,-72.38732111033175 -376.75610577215605,-71.71744812930595 -378.58623279113135,-69.88732111041314 -379.25610577226985,-67.38732111041203 -378.586232791244,-64.88732111038073 -376.7561057723512,-63.05719409140542 -374.2561057723501,-62.387321110266925" stroke="#ffa500" stroke-linecap="round" stroke-linejoin="round"/><polyline fill="none" points="-559.0275846108424,-278.3594204715509 -556.5275846108111,-279.02929345257667 -554.6974575918358,-280.8594204714695 -554.0275846106973,-283.35942047147057 -554.6974575917232,-285.8594204715019 -556.5275846106159,-287.6895474904772 -559.027584610617,-288.3594204716157 -561.5275846106483,-287.6895474905899 -563.3577116296236,-285.8594204716971 -564.0275846107621,-283.359420471696 -563.3577116297363,-280.8594204716647 -561.5275846108435,-279.0292934526894 -559.0275846108424,-278.3594204715509" stroke="#ffa500" stroke-linecap="round" stroke-linejoin="round"/><polyline fill="none" points="30.857899378901198,-61.97567037653276 33.3578993789325,-62.645543357558566 35.188026397907805,-64.47567037645138 35.8578993790463,-66.97567037645248 35.188026398020504,-69.47567037648379 33.3578993791277,-71.3057973954591 30.857899379126597,-71.97567037659759 28.357899379095294,-71.30579739557179 26.527772360119986,-69.47567037667898 25.857899378981486,-66.97567037667787 26.527772360007287,-64.47567037664656 28.357899378900093,-62.64554335767126 30.857899378901198,-61.97567037653276" stroke="#ffa500" stroke-linecap="round" stroke-linejoin="round"/><polyline fill="none" points="-305.309964118618,-154.66598127941492 -302.80996411858666,-155.33585426044073 -300.97983709961136,-157.16598127933352 -300.30996411847286,-159.66598127933463 -300.97983709949864,-162.16598127936592 -302.80996411839146,-163.99610829834123 -305.30996411839254,-164.66598127947972 -307.80996411842386,-163.99610829845392 -309.64009113739917,-162.16598127956112 -310.30996411853766,-159.66598127956001 -309.6400911375119,-157.16598127952872 -307.80996411861906,-155.33585426055342 -305.309964118618,-154.66598127941492" stroke="#00f" stroke-linecap="round" stroke-linejoin="round"/><polyline fill="none" points="-547.4062539491678,-177.91273474694873 -544.9062539491365,-178.58260772797453 -543.0761269301612,-180.41273474686733 -542.4062539490227,-182.91273474686844 -543.0761269300485,-185.41273474689976 -544.9062539489413,-187.24286176587506 -547.4062539489424,-187.91273474701356 -549.9062539489737,-187.24286176598775 -551.736380967949,-185.41273474709496 -552.4062539490875,-182.91273474709385 -551.7363809680617,-180.41273474706253 -549.9062539491689,-178.58260772808723 -547.4062539491678,-177.91273474694873" stroke="#00f" stroke-linecap="round" stroke-linejoin="round"/><polyline fill="none" points="-590.8743959241389,-235.38657341741157 -588.3743959241076,-236.05644639843737 -586.5442689051323,-237.88657341733017 -585.8743959239938,-240.38657341733128 -586.5442689050196,-242.8865734173626 -588.3743959239124,-244.7167004363379 -590.8743959239135,-245.3865734174764 -593.3743959239448,-244.7167004364506 -595.2045229429201,-242.8865734175578 -595.8743959240586,-240.3865734175567 -595.2045229430328,-237.88657341752537 -593.37439592414,-236.05644639855007 -590.8743959241389,-235.38657341741157" stroke="#00f" stroke-linecap="round" stroke-linejoin="round"/><polyline fill="none" points="-260.00779031406256,2.866369631476202 -257.50779031403124,2.1964966504504106 -255.67766329505594,0.3663696315576088 -255.00779031391744,-2.133630368443499 -255.67766329494324,-4.63363036847481 -257.50779031383604,-6.463757387450127 -260.0077903138371,-7.133630368588637 -262.50779031386844,-6.463757387562847 -264.33791733284374,-4.633630368670046 -265.00779031398224,-2.1336303686689377 -264.33791733295647,0.3663696313623741 -262.50779031406364,2.196496650337693 -260.00779031406256,2.866369631476204" stroke="#ffa500" stroke-linecap="round" stroke-linejoin="round"/><polyline fill="none" points="-447.109762777948,-111.54154483826187 -444.60976277791667,-112.21141781928766 -442.77963575894137,-114.04154483818046 -442.10976277780287,-116.54154483818157 -442.77963575882865,-119.04154483821287 -444.60976277772147,-120.87167185718819 -447.10976277772255,-121.5415448383267 -449.6097627777539,-120.87167185730091 -451.4398897967292,-119.04154483840811 -452.1097627778677,-116.541544838407 -451.4398897968419,-114.0415448383757 -449.6097627779491,-112.21141781940038 -447.10976277794794,-111.54154483826187" stroke="#ffa500" stroke-linecap="round" stroke-linejoin="round"/><polyline fill="none" points="-287.714628440183,-22.60564777119536 -285.21462844015167,-23.275520752221148 -283.38450142117637,-25.105647771113947 -282.71462844003787,-27.605647771115056 -283.38450142106365,-30.10564777114637 -285.21462843995647,-31.93577479012169 -287.7146284399576,-32.60564777126021 -290.2146284399889,-31.935774790234422 -292.04475545896423,-30.105647771341623 -292.71462844010273,-27.605647771340514 -292.04475545907695,-25.1056477713092 -290.21462844018413,-23.275520752333875 -287.71462844018305,-22.605647771195358" stroke="#ffa500" stroke-linecap="round" stroke-linejoin="round"/><polyline fill="none" points="-276.9435459821118,47.202443001530035 -274.4435459820805,46.53257002050425 -272.6134189631052,44.70244300161146 -271.9435459819667,42.20244300161035 -272.61341896299245,39.702443001579034 -274.4435459818853,37.87231598260371 -276.94354598188636,37.20244300146519 -279.4435459819177,37.872315982490974 -281.273673000893,39.70244300138377 -281.9435459820315,42.20244300138488 -281.2736730010057,44.70244300141619 -279.4435459821129,46.53257002039152 -276.94354598211174,47.202443001530035" stroke="#ffa500" stroke-linecap="round" stroke-linejoin="round"/><polyline fill="none" points="-277.18403457093706,-167.34086143270304 -274.68403457090574,-168.0107344137288 -272.85390755193043,-169.8408614326216 -272.18403457079194,-172.34086143262272 -272.8539075518177,-174.84086143265404 -274.68403457071054,-176.67098845162937 -277.1840345707117,-177.3408614327679 -279.684034570743,-176.67098845174212 -281.5141615897183,-174.84086143284932 -282.1840345708568,-172.34086143284821 -281.514161589831,-169.8408614328169 -279.68403457093825,-168.01073441384156 -277.1840345709371,-167.34086143270304" stroke="#00f" stroke-linecap="round" stroke-linejoin="round"/><polyline fill="none" points="-456.9439826405698,-173.16853951957302 -454.4439826405385,-173.8384125005988 -452.6138556215632,-175.6685395194916 -451.9439826404247,-178.1685395194927 -452.61385562145045,-180.66853951952402 -454.4439826403432,-182.49866653849935 -456.9439826403443,-183.16853951963787 -459.4439826403756,-182.4986665386121 -461.2741096593509,-180.6685395197193 -461.9439826404895,-178.1685395197182 -461.2741096594637,-175.66853951968687 -459.44398264057094,-173.83841250071154 -456.94398264056986,-173.16853951957302" stroke="#00f" stroke-linecap="round" stroke-linejoin="round"/><polyline fill="none" points="-550.4984006194519,-302.3564267938881 -547.9984006194206,-303.02629977491387 -546.1682736004453,-304.85642679380663 -545.4984006193068,-307.3564267938077 -546.1682736003326,-309.85642679383903 -547.9984006192253,-311.6865538128144 -550.4984006192265,-312.35642679395295 -552.9984006192577,-311.6865538129272 -554.828527638233,-309.8564267940344 -555.4984006193715,-307.3564267940333 -554.8285276383458,-304.856426794002 -552.998400619453,-303.02629977502664 -550.4984006194519,-302.3564267938881" stroke="#ffa500" stroke-linecap="round" stroke-linejoin="round"/><polyline fill="none" points="-424.77554197380067,-50.7964239342974 -422.27554197376935,-51.46629691532318 -420.445414954794,-53.296423934215966 -419.77554197365544,-55.796423934217074 -420.4454149546812,-58.296423934248395 -422.275541973574,-60.12655095322373 -424.7755419735751,-60.79642393436226 -427.27554197360644,-60.12655095333649 -429.1056689925818,-58.2964239344437 -429.77554197372035,-55.79642393444259 -429.1056689926946,-53.29642393441127 -427.2755419738018,-51.46629691543593 -424.77554197380067,-50.7964239342974" stroke="#ffa500" stroke-linecap="round" stroke-linejoin="round"/><polyline fill="none" points="-279.2163920824407,20.623112481255156 -276.71639208240936,19.953239500229383 -274.886265063434,18.12311248133659 -274.21639208229544,15.623112481335482 -274.8862650633212,13.123112481304158 -276.716392082214,11.29298546232882 -279.2163920822151,10.623112481190287 -281.71639208224644,11.292985462216057 -283.5465191012218,13.123112481108848 -284.21639208236036,15.623112481109956 -283.5465191013346,18.12311248114128 -281.7163920824418,19.95323950011662 -279.2163920824407,20.623112481255156" stroke="#ffa500" stroke-linecap="round" stroke-linejoin="round"/><polyline fill="none" points="-465.95809217839883,-94.11743783667005 -463.4580921783675,-94.78731081769581 -461.62796515939215,-96.6174378365886 -460.9580921782536,-99.11743783658972 -461.62796515927937,-101.61743783662104 -463.45809217817214,-103.44756485559638 -465.9580921781733,-104.11743783673492 -468.4580921782046,-103.44756485570916 -470.28821919717996,-101.61743783681638 -470.9580921783185,-99.11743783681527 -470.28821919729273,-96.61743783678395 -468.45809217839997,-94.7873108178086 -465.95809217839883,-94.11743783667006" stroke="#00f" stroke-linecap="round" stroke-linejoin="round"/><polyline fill="none" points="-341.21500845976095,-107.33943367220402 -338.71500845972963,-108.00930665322979 -336.88488144075427,-109.83943367212257 -336.2150084596157,-112.33943367212368 -336.8848814406415,-114.839433672155 -338.71500845953426,-116.66956069113034 -341.2150084595354,-117.33943367226888 -343.7150084595667,-116.66956069124312 -345.5451354785421,-114.83943367235034 -346.21500845968063,-112.33943367234923 -345.54513547865486,-109.83943367231791 -343.7150084597621,-108.00930665334256 -341.21500845976095,-107.33943367220402" stroke="#ffa500" stroke-linecap="round" stroke-linejoin="round"/><polyline fill="none" points="-543.0505271047477,-254.3890346237377 -540.5505271047164,-255.05890760476348 -538.7204000857411,-256.88903462365624 -538.0505271046026,-259.3890346236574 -538.7204000856283,-261.8890346236887 -540.550527104521,-263.71916164266406 -543.0505271045222,-264.3890346238026 -545.5505271045536,-263.71916164277684 -547.3806541235289,-261.8890346238841 -548.0505271046674,-259.38903462388294 -547.3806541236416,-256.8890346238516 -545.5505271047489,-255.05890760487625 -543.0505271047477,-254.3890346237377" stroke="#00f" stroke-linecap="round" stroke-linejoin="round"/><polyline fill="none" points="-475.63334827065677,-118.91724995752531 -473.13334827062545,-119.58712293855108 -471.3032212516501,-121.41724995744386 -470.63334827051153,-123.91724995744497 -471.3032212515373,-126.4172499574763 -473.1333482704301,-128.24737697645165 -475.6333482704312,-128.9172499575902 -478.13334827046253,-128.24737697656445 -479.9634752894379,-126.41724995767167 -480.63334827057645,-123.91724995767056 -479.9634752895507,-121.41724995763923 -478.1333482706579,-119.58712293866388 -475.63334827065677,-118.91724995752533" stroke="#ffa500" stroke-linecap="round" stroke-linejoin="round"/><polyline fill="none" points="-522.4336369079787,-213.36260551406443 -519.9336369079473,-214.03247849509017 -518.103509888972,-215.86260551398297 -517.4336369078335,-218.36260551398408 -518.1035098888592,-220.8626055140154 -519.933636907752,-222.69273253299076 -522.4336369077531,-223.3626055141293 -524.9336369077845,-222.69273253310357 -526.7637639267598,-220.86260551421077 -527.4336369078983,-218.36260551420966 -526.7637639268726,-215.86260551417834 -524.9336369079798,-214.03247849520298 -522.4336369079787,-213.36260551406443" stroke="#008000" stroke-linecap="round" stroke-linejoin="round"/><polyline fill="none" points="-269.6990285467234,-40.0457778478765 -267.1990285466921,-40.715650828902255 -265.36890152771673,-42.54577784779504 -264.6990285465782,-45.045777847796145 -265.36890152760395,-47.54577784782748 -267.1990285464967,-49.375904866802834 -269.69902854649786,-50.04577784794139 -272.1990285465292,-49.37590486691563 -274.02915556550454,-47.54577784802285 -274.6990285466431,-45.04577784802174 -274.0291555656173,-42.54577784799041 -272.19902854672455,-40.715650829015054 -269.6990285467234,-40.0457778478765" stroke="#ffa500" stroke-linecap="round" stroke-linejoin="round"/><polyline fill="none" points="30.08414692984302,-86.72279727300544 32.58414692987435,-87.3926702540312 34.414273948849704,-89.22279727292398 35.08414692998826,-91.72279727292509 34.4142739489625,-94.22279727295643 32.58414693006972,-96.05292429193179 30.084146930068613,-96.72279727307034 27.584146930037278,-96.0529242920446 25.75401991106192,-94.22279727315181 25.084146929923367,-91.7227972731507 25.75401991094912,-89.22279727311937 27.5841469298419,-87.39267025414401 30.08414692984301,-86.72279727300545" stroke="#ffa500" stroke-linecap="round" stroke-linejoin="round"/><polyline fill="none" points="-412.35594924875545,-165.55174775857233 -409.85594924872413,-166.22162073959808 -408.02582222974877,-168.05174775849085 -407.3559492486102,-170.55174775849196 -408.025822229636,-173.0517477585233 -409.85594924852876,-174.88187477749867 -412.3559492485299,-175.55174775863722 -414.8559492485612,-174.88187477761147 -416.6860762675366,-173.0517477587187 -417.35594924867513,-170.5517477587176 -416.68607626764936,-168.05174775868625 -414.8559492487566,-166.2216207397109 -412.35594924875545,-165.55174775857233" stroke="#ffa500" stroke-linecap="round" stroke-linejoin="round"/><polyline fill="none" points="-503.69646934187847,-197.95774095153723 -501.19646934184715,-198.62761393256298 -499.3663423228718,-200.45774095145575 -498.69646934173323,-202.95774095145686 -499.366342322759,-205.4577409514882 -501.1964693416518,-207.28786797046357 -503.6964693416529,-207.95774095160212 -506.19646934168424,-207.28786797057637 -508.0265963606596,-205.4577409516836 -508.69646934179815,-202.9577409516825 -508.0265963607724,-200.45774095165115 -506.1964693418796,-198.62761393267579 -503.69646934187847,-197.95774095153723" stroke="#00f" stroke-linecap="round" stroke-linejoin="round"/><polyline fill="none" points="-534.9065160378445,-321.2238783692669 -532.4065160378132,-321.89375135029263 -530.5763890188377,-323.7238783691854 -529.9065160376991,-326.22387836918654 -530.5763890187249,-328.72387836921786 -532.4065160376176,-330.5540053881932 -534.9065160376188,-331.22387836933177 -537.4065160376501,-330.55400538830605 -539.2366430566256,-328.7238783694133 -539.9065160377642,-326.22387836941215 -539.2366430567384,-323.7238783693808 -537.4065160378457,-321.89375135040547 -534.9065160378445,-321.2238783692669" stroke="#ffa500" stroke-linecap="round" stroke-linejoin="round"/><polyline fill="none" points="-570.4952938931116,-251.67029587780178 -567.9952938930802,-252.34016885882752 -566.1651668741048,-254.1702958777203 -565.4952938929662,-256.6702958777214 -566.1651668739919,-259.1702958777527 -567.9952938928847,-261.0004228967281 -570.4952938928858,-261.67029587786664 -572.9952938929172,-261.0004228968409 -574.8254209118926,-259.17029587794815 -575.4952938930312,-256.670295877947 -574.8254209120055,-254.17029587791566 -572.9952938931127,-252.3401688589403 -570.4952938931116,-251.67029587780175" stroke="#008000" stroke-linecap="round" stroke-linejoin="round"/><polyline fill="none" points="-400.127228455807,-57.846350329834486 -397.6272284557757,-58.51622331086023 -395.79710143680035,-60.346350329753 -395.1272284556618,-62.84635032975411 -395.7971014366875,-65.34635032978545 -397.6272284555803,-67.17647734876083 -400.1272284555814,-67.8463503298994 -402.62722845561274,-67.17647734887365 -404.4573554745881,-65.34635032998088 -405.12722845572665,-62.84635032997977 -404.45735547470093,-60.34635032994843 -402.62722845580817,-58.51622331097306 -400.127228455807,-57.84635032983449" stroke="#ffa500" stroke-linecap="round" stroke-linejoin="round"/><polyline fill="none" points="-385.26814995296127,-85.91222902969865 -382.76814995292995,-86.58210201072438 -380.9380229339546,-88.41222902961715 -380.26814995281603,-90.91222902961826 -380.93802293384175,-93.41222902964961 -382.7681499527345,-95.24235604862498 -385.26814995273566,-95.91222902976355 -387.768149952767,-95.24235604873782 -389.59827697174234,-93.41222902984505 -390.2681499528809,-90.91222902984394 -389.59827697185517,-88.4122290298126 -387.7681499529624,-86.58210201083722 -385.26814995296127,-85.91222902969865" stroke="#ffa500" stroke-linecap="round" stroke-linejoin="round"/><polyline fill="none" points="-496.50250547038206,-273.7580865662943 -494.00250547035074,-274.42795954732003 -492.1723784513754,-276.2580865662128 -491.5025054702368,-278.75808656621393 -492.17237845126255,-281.25808656624525 -494.0025054701553,-283.0882135852206 -496.50250547015645,-283.75808656635917 -499.00250547018777,-283.08821358533345 -500.83263248916313,-281.2580865664407 -501.5025054703017,-278.75808656643954 -500.83263248927597,-276.2580865664082 -499.0025054703832,-274.42795954743286 -496.50250547038206,-273.7580865662943" stroke="#ffa500" stroke-linecap="round" stroke-linejoin="round"/><polyline fill="none" points="-494.4679054525916,-149.4571829048534 -491.9679054525603,-150.12705588587914 -490.1377784335849,-151.9571829047719 -489.46790545244636,-154.45718290477302 -490.1377784334721,-156.95718290480437 -491.96790545236485,-158.78730992377976 -494.467905452366,-159.45718290491834 -496.9679054523973,-158.7873099238926 -498.79803247137266,-156.95718290499983 -499.4679054525112,-154.45718290499872 -498.7980324714855,-151.95718290496737 -496.96790545259273,-150.12705588599198 -494.4679054525916,-149.4571829048534" stroke="#00f" stroke-linecap="round" stroke-linejoin="round"/><polyline fill="none" points="-520.9843848460822,-267.5130696750848 -518.4843848460508,-268.1829426561105 -516.6542578270754,-270.0130696750033 -515.9843848459368,-272.51306967500443 -516.6542578269625,-275.0130696750358 -518.4843848458553,-276.84319669401117 -520.9843848458564,-277.5130696751497 -523.4843848458878,-276.843196694124 -525.3145118648632,-275.01306967523124 -525.9843848460018,-272.5130696752301 -525.3145118649761,-270.0130696751987 -523.4843848460833,-268.18294265622336 -520.9843848460822,-267.5130696750848" stroke="#00f" stroke-linecap="round" stroke-linejoin="round"/><polyline fill="none" points="-259.3757502858822,-144.5516037208214 -256.8757502858508,-145.2214767018471 -255.04562326687542,-147.05160372073988 -254.37575028573684,-149.55160372074099 -255.04562326676256,-152.05160372077233 -256.87575028565533,-153.88173073974772 -259.37575028565647,-154.5516037208863 -261.87575028568784,-153.8817307398606 -263.7058773046632,-152.05160372096782 -264.3757502858018,-149.5516037209667 -263.7058773047761,-147.05160372093536 -261.8757502858833,-145.22147670195997 -259.3757502858822,-144.5516037208214" stroke="#ffa500" stroke-linecap="round" stroke-linejoin="round"/><polyline fill="none" points="-479.463456976009,-184.11495338434034 -476.96345697597764,-184.78482636536606 -475.1333299570023,-186.61495338425883 -474.46345697586366,-189.11495338425993 -475.1333299568894,-191.61495338429128 -476.96345697578215,-193.44508040326667 -479.4634569757833,-194.11495338440525 -481.96345697581467,-193.44508040337954 -483.79358399479,-191.61495338448677 -484.46345697592864,-189.11495338448566 -483.7935839949029,-186.6149533844543 -481.96345697601015,-184.78482636547892 -479.463456976009,-184.11495338434034" stroke="#ffa500" stroke-linecap="round" stroke-linejoin="round"/><polyline fill="none" points="-366.344914141867,-103.01039166548377 -363.8449141418356,-103.6802646465095 -362.01478712286024,-105.51039166540227 -361.34491414172163,-108.01039166540338 -362.01478712274735,-110.51039166543472 -363.8449141416401,-112.34051868441011 -366.34491414164125,-113.0103916655487 -368.84491414167263,-112.34051868452298 -370.675041160648,-110.51039166563021 -371.3449141417866,-108.0103916656291 -370.6750411607609,-105.51039166559775 -368.8449141418681,-103.68026464662236 -366.344914141867,-103.01039166548377" stroke="#ffa500" stroke-linecap="round" stroke-linejoin="round"/><polyline fill="none" points="-389.61667186897705,-204.08194646432995 -387.1166718689457,-204.75181944535566 -385.28654484997026,-206.58194646424843 -384.61667186883165,-209.08194646424954 -385.28654484985736,-211.5819464642809 -387.11667186875013,-213.41207348325628 -389.61667186875127,-214.08194646439486 -392.11667186878265,-213.41207348336914 -393.94679888775806,-211.58194646447637 -394.6166718688967,-209.08194646447527 -393.94679888787095,-206.58194646444392 -392.1166718689782,-204.75181944546853 -389.61667186897705,-204.08194646432995" stroke="#00f" stroke-linecap="round" stroke-linejoin="round"/><polyline fill="none" points="-305.48297078182105,-70.64738819729656 -302.9829707817897,-71.31726117832228 -301.15284376281426,-73.14738819721505 -300.48297078167565,-75.64738819721616 -301.15284376270137,-78.14738819724752 -302.98297078159413,-79.97751521622291 -305.48297078159527,-80.64738819736151 -307.98297078162665,-79.97751521633579 -309.81309780060207,-78.14738819744302 -310.4829707817407,-75.64738819744191 -309.81309780071496,-73.14738819741055 -307.9829707818222,-71.31726117843516 -305.48297078182105,-70.64738819729656" stroke="#00f" stroke-linecap="round" stroke-linejoin="round"/><polyline fill="none" points="-456.907738548017,-135.50730309964996 -454.4077385479856,-136.17717608067568 -452.5776115290102,-138.00730309956845 -451.9077385478716,-140.50730309956955 -452.5776115288973,-143.0073030996009 -454.4077385477901,-144.8374301185763 -456.9077385477912,-145.5073030997149 -459.4077385478226,-144.83743011868918 -461.237865566798,-143.00730309979642 -461.9077385479366,-140.5073030997953 -461.2378655669109,-138.00730309976396 -459.40773854801813,-136.17717608078857 -456.907738548017,-135.50730309964996" stroke="#ffa500" stroke-linecap="round" stroke-linejoin="round"/><polyline fill="none" points="-544.5561619710833,-229.982171466325 -542.0561619710519,-230.65204444735073 -540.2260349520765,-232.4821714662435 -539.5561619709379,-234.9821714662446 -540.2260349519636,-237.48217146627596 -542.0561619708564,-239.31229848525135 -544.5561619708575,-239.98217146638996 -547.0561619708889,-239.31229848536424 -548.8862889898643,-237.48217146647147 -549.5561619710029,-234.98217146647036 -548.8862889899772,-232.482171466439 -547.0561619710844,-230.65204444746362 -544.5561619710833,-229.982171466325" stroke="#008000" stroke-linecap="round" stroke-linejoin="round"/><polyline fill="none" points="-503.5808129010448,-173.44011428705105 -501.0808129010134,-174.10998726807676 -499.250685882038,-175.94011428696953 -498.5808129008994,-178.44011428697064 -499.2506858819251,-180.940114287002 -501.0808129008179,-182.77024130597738 -503.580812900819,-183.440114287116 -506.0808129008504,-182.77024130609027 -507.9109399198258,-180.9401142871975 -508.5808129009644,-178.4401142871964 -507.9109399199387,-175.94011428716504 -506.08081290104593,-174.10998726818966 -503.5808129010448,-173.44011428705105" stroke="#ffa500" stroke-linecap="round" stroke-linejoin="round"/><polyline fill="none" points="491.5932903414533,-195.77481016377362 494.0932903414847,-196.44468314479934 495.9234173604601,-198.2748101636921 496.59329034159873,-200.77481016369322 495.923417360573,-203.27481016372457 494.09329034168024,-205.10493718269996 491.5932903416791,-205.77481016383857 489.09329034164773,-205.10493718281285 487.2631633226723,-203.27481016392008 486.5932903415337,-200.77481016391897 487.2631633225594,-198.2748101638876 489.0932903414522,-196.44468314491218 491.5932903414533,-195.77481016377357" stroke="#ffa500" stroke-linecap="round" stroke-linejoin="round"/><line fill="none" stroke="#000" stroke-linecap="round" x1="-576.405186654933" x2="-590.8743959241389" y1="-296.1064412002216" y2="-240.38657341741157"/><line fill="none" stroke="#000" stroke-linecap="round" x1="-576.405186654933" x2="-592.0838744646231" y1="-296.1064412002216" y2="-214.05137979778328"/><line fill="none" stroke="#000" stroke-linecap="round" x1="-576.405186654933" x2="-584.5066215617595" y1="-296.1064412002216" y2="-276.7842213233305"/><line fill="none" stroke="#000" stroke-linecap="round" x1="-576.405186654933" x2="-544.5561619710833" y1="-296.1064412002216" y2="-234.982171466325"/><line fill="none" stroke="#000" stroke-linecap="round" x1="-576.405186654933" x2="-358.3044645694358" y1="-296.1064412002216" y2="-178.85952504316734"/><line fill="none" stroke="#000" stroke-linecap="round" x1="-539.9594986759994" x2="-368.24031229252773" y1="-160.50585582697462" y2="-202.52004694713017"/><line fill="none" stroke="#000" stroke-linecap="round" x1="-539.9594986759994" x2="-522.4336369079787" y1="-160.50585582697462" y2="-218.36260551406443"/><line fill="none" stroke="#000" stroke-linecap="round" x1="-539.9594986759994" x2="-543.0505271047477" y1="-160.50585582697462" y2="-259.3890346237377"/><line fill="none" stroke="#000" stroke-linecap="round" x1="-539.9594986759994" x2="-517.1292778387902" y1="-160.50585582697462" y2="-292.32017243919324"/><line fill="none" stroke="#000" stroke-linecap="round" x1="-539.9594986759994" x2="-523.1132424148317" y1="-160.50585582697462" y2="-245.1849304155388"/><line fill="none" stroke="#000" stroke-linecap="round" x1="-517.1292778387902" x2="-523.1132424148317" y1="-292.32017243919324" y2="-245.1849304155388"/><line fill="none" stroke="#000" stroke-linecap="round" x1="-517.1292778387902" x2="-539.9594986759994" y1="-292.32017243919324" y2="-160.50585582697462"/><line fill="none" stroke="#000" stroke-linecap="round" x1="-517.1292778387902" x2="-522.4336369079787" y1="-292.32017243919324" y2="-218.36260551406443"/><line fill="none" stroke="#000" stroke-linecap="round" x1="-517.1292778387902" x2="-453.44194681111156" y1="-292.32017243919324" y2="-207.50344217089997"/><line fill="none" stroke="#000" stroke-linecap="round" x1="-517.1292778387902" x2="-570.4952938931116" y1="-292.32017243919324" y2="-256.6702958778018"/><line fill="none" stroke="#000" stroke-linecap="round" x1="-527.9022031819062" x2="-516.0858014939346" y1="-191.49216909702852" y2="-159.18729564211048"/><line fill="none" stroke="#000" stroke-linecap="round" x1="-527.9022031819062" x2="-503.69646934187847" y1="-191.49216909702852" y2="-202.95774095153723"/><line fill="none" stroke="#000" stroke-linecap="round" x1="-527.9022031819062" x2="-566.1880136051083" y1="-191.49216909702852" y2="-225.7316598471167"/><line fill="none" stroke="#000" stroke-linecap="round" x1="-527.9022031819062" x2="-415.5693720583506" y1="-191.49216909702852" y2="-144.46190501449416"/><line fill="none" stroke="#000" stroke-linecap="round" x1="-527.9022031819062" x2="-590.8743959241389" y1="-191.49216909702852" y2="-240.38657341741157"/><line fill="none" stroke="#000" stroke-linecap="round" x1="-572.3236757859622" x2="-559.6503049727132" y1="-349.7491157898517" y2="-333.69761445097225"/><line fill="none" stroke="#000" stroke-linecap="round" x1="-572.3236757859622" x2="-550.4984006194519" y1="-349.7491157898517" y2="-307.3564267938881"/><line fill="none" stroke="#000" stroke-linecap="round" x1="-572.3236757859622" x2="-534.9065160378445" y1="-349.7491157898517" y2="-326.2238783692669"/><line fill="none" stroke="#000" stroke-linecap="round" x1="-572.3236757859622" x2="-559.0275846108424" y1="-349.7491157898517" y2="-283.3594204715509"/><line fill="none" stroke="#000" stroke-linecap="round" x1="-572.3236757859622" x2="-517.1292778387902" y1="-349.7491157898517" y2="-292.32017243919324"/><line fill="none" stroke="#000" stroke-linecap="round" x1="-564.2609448742367" x2="-503.69646934187847" y1="-167.0120624854621" y2="-202.95774095153723"/><line fill="none" stroke="#000" stroke-linecap="round" x1="-564.2609448742367" x2="-494.4679054525916" y1="-167.0120624854621" y2="-154.4571829048534"/><line fill="none" stroke="#000" stroke-linecap="round" x1="-564.2609448742367" x2="-503.5808129010448" y1="-167.0120624854621" y2="-178.44011428705105"/><line fill="none" stroke="#000" stroke-linecap="round" x1="-564.2609448742367" x2="-423.03876841799" y1="-167.0120624854621" y2="-243.63270900381312"/><line fill="none" stroke="#000" stroke-linecap="round" x1="-564.2609448742367" x2="-456.9439826405698" y1="-167.0120624854621" y2="-178.16853951957302"/><line fill="none" stroke="#000" stroke-linecap="round" x1="516.3861902273176" x2="491.5932903414533" y1="-199.58040825469615" y2="-200.77481016377362"/><line fill="none" stroke="#000" stroke-linecap="round" x1="516.3861902273176" x2="466.26754982678494" y1="-199.58040825469615" y2="-191.51194269363268"/><line fill="none" stroke="#000" stroke-linecap="round" x1="516.3861902273176" x2="488.27407945436005" y1="-199.58040825469615" y2="-227.1995162548136"/><line fill="none" stroke="#000" stroke-linecap="round" x1="516.3861902273176" x2="503.35983754743586" y1="-199.58040825469615" y2="-177.91275912692402"/><line fill="none" stroke="#000" stroke-linecap="round" x1="516.3861902273176" x2="480.8901071901918" y1="-199.58040825469615" y2="-167.0453994350641"/><line fill="none" stroke="#000" stroke-linecap="round" x1="-539.3940491942234" x2="-570.4952938931116" y1="-348.4953378160103" y2="-256.6702958778018"/><line fill="none" stroke="#000" stroke-linecap="round" x1="-539.3940491942234" x2="-550.4984006194519" y1="-348.4953378160103" y2="-307.3564267938881"/><line fill="none" stroke="#000" stroke-linecap="round" x1="-539.3940491942234" x2="-496.50250547038206" y1="-348.4953378160103" y2="-278.7580865662943"/><line fill="none" stroke="#000" stroke-linecap="round" x1="-539.3940491942234" x2="-559.6503049727132" y1="-348.4953378160103" y2="-333.69761445097225"/><line fill="none" stroke="#000" stroke-linecap="round" x1="-539.3940491942234" x2="-584.5066215617595" y1="-348.4953378160103" y2="-276.7842213233305"/><line fill="none" stroke="#000" stroke-linecap="round" x1="-423.9959590725249" x2="-453.44194681111156" y1="-129.01125845437085" y2="-207.50344217089997"/><line fill="none" stroke="#000" stroke-linecap="round" x1="-423.9959590725249" x2="-477.17852046601377" y1="-129.01125845437085" y2="-241.66175412260108"/><line fill="none" stroke="#000" stroke-linecap="round" x1="-423.9959590725249" x2="-496.4794764186844" y1="-129.01125845437085" y2="-251.60835443120334"/><line fill="none" stroke="#000" stroke-linecap="round" x1="-423.9959590725249" x2="-305.83181617299005" y1="-129.01125845437085" y2="-1.199633376239874"/><line fill="none" stroke="#000" stroke-linecap="round" x1="-423.9959590725249" x2="-460.8662249286425" y1="-129.01125845437085" y2="-262.33076521970867"/><line fill="none" stroke="#000" stroke-linecap="round" x1="-511.9203449090342" x2="-550.4984006194519" y1="-321.28545284758286" y2="-307.3564267938881"/><line fill="none" stroke="#000" stroke-linecap="round" x1="-511.9203449090342" x2="-559.6503049727132" y1="-321.28545284758286" y2="-333.69761445097225"/><line fill="none" stroke="#000" stroke-linecap="round" x1="-511.9203449090342" x2="-534.9065160378445" y1="-321.28545284758286" y2="-326.2238783692669"/><line fill="none" stroke="#000" stroke-linecap="round" x1="-511.9203449090342" x2="-572.3236757859622" y1="-321.28545284758286" y2="-349.7491157898517"/><line fill="none" stroke="#000" stroke-linecap="round" x1="-511.9203449090342" x2="-520.9843848460822" y1="-321.28545284758286" y2="-272.5130696750848"/><line fill="none" stroke="#000" stroke-linecap="round" x1="-368.24031229252773" x2="-277.18403457093706" y1="-202.52004694713017" y2="-172.34086143270304"/><line fill="none" stroke="#000" stroke-linecap="round" x1="-368.24031229252773" x2="-539.9594986759994" y1="-202.52004694713017" y2="-160.50585582697462"/><line fill="none" stroke="#000" stroke-linecap="round" x1="-368.24031229252773" x2="-522.4336369079787" y1="-202.52004694713017" y2="-218.36260551406443"/><line fill="none" stroke="#000" stroke-linecap="round" x1="-368.24031229252773" x2="-302.2209288056389" y1="-202.52004694713017" y2="-210.94678889713154"/><line fill="none" stroke="#000" stroke-linecap="round" x1="-368.24031229252773" x2="-305.309964118618" y1="-202.52004694713017" y2="-159.66598127941492"/><line fill="none" stroke="#000" stroke-linecap="round" x1="-559.6503049727132" x2="-550.4984006194519" y1="-333.69761445097225" y2="-307.3564267938881"/><line fill="none" stroke="#000" stroke-linecap="round" x1="-559.6503049727132" x2="-572.3236757859622" y1="-333.69761445097225" y2="-349.7491157898517"/><line fill="none" stroke="#000" stroke-linecap="round" x1="-559.6503049727132" x2="-534.9065160378445" y1="-333.69761445097225" y2="-326.2238783692669"/><line fill="none" stroke="#000" stroke-linecap="round" x1="-559.6503049727132" x2="-559.0275846108424" y1="-333.69761445097225" y2="-283.3594204715509"/><line fill="none" stroke="#000" stroke-linecap="round" x1="-559.6503049727132" x2="-539.3940491942234" y1="-333.69761445097225" y2="-348.4953378160103"/><line fill="none" stroke="#000" stroke-linecap="round" x1="-20.646758696712716" x2="36.69112220622573" y1="-110.68294461191188" y2="-115.97515293220579"/><line fill="none" stroke="#000" stroke-linecap="round" x1="-20.646758696712716" x2="30.857899378901198" y1="-110.68294461191188" y2="-66.97567037653276"/><line fill="none" stroke="#000" stroke-linecap="round" x1="-20.646758696712716" x2="11.365163582115166" y1="-110.68294461191188" y2="-108.92158628426229"/><line fill="none" stroke="#000" stroke-linecap="round" x1="-20.646758696712716" x2="30.08414692984302" y1="-110.68294461191188" y2="-91.72279727300544"/><line fill="none" stroke="#000" stroke-linecap="round" x1="-20.646758696712716" x2="55.79392320214492" y1="-110.68294461191188" y2="-97.27132585699009"/><line fill="none" stroke="#000" stroke-linecap="round" x1="-604.2183498514325" x2="-478.28153340774446" y1="-260.19182281179707" y2="-215.14945432898878"/><line fill="none" stroke="#000" stroke-linecap="round" x1="-604.2183498514325" x2="-584.5066215617595" y1="-260.19182281179707" y2="-276.7842213233305"/><line fill="none" stroke="#000" stroke-linecap="round" x1="-604.2183498514325" x2="-576.405186654933" y1="-260.19182281179707" y2="-296.1064412002216"/><line fill="none" stroke="#000" stroke-linecap="round" x1="-604.2183498514325" x2="-590.8743959241389" y1="-260.19182281179707" y2="-240.38657341741157"/><line fill="none" stroke="#000" stroke-linecap="round" x1="-604.2183498514325" x2="-527.9022031819062" y1="-260.19182281179707" y2="-191.49216909702852"/><line fill="none" stroke="#000" stroke-linecap="round" x1="-496.4794764186844" x2="-496.50250547038206" y1="-251.60835443120334" y2="-278.7580865662943"/><line fill="none" stroke="#000" stroke-linecap="round" x1="-496.4794764186844" x2="-423.9959590725249" y1="-251.60835443120334" y2="-129.01125845437085"/><line fill="none" stroke="#000" stroke-linecap="round" x1="-496.4794764186844" x2="-477.17852046601377" y1="-251.60835443120334" y2="-241.66175412260108"/><line fill="none" stroke="#000" stroke-linecap="round" x1="-496.4794764186844" x2="-375.20926748759234" y1="-251.60835443120334" y2="-229.7398286737835"/><line fill="none" stroke="#000" stroke-linecap="round" x1="-496.4794764186844" x2="-395.9183393659149" y1="-251.60835443120334" y2="-247.21584147618935"/><line fill="none" stroke="#000" stroke-linecap="round" x1="-473.097867141701" x2="-468.9467396805299" y1="-73.63741977628393" y2="-44.768571579840724"/><line fill="none" stroke="#000" stroke-linecap="round" x1="-473.097867141701" x2="-374.2561057723501" y1="-73.63741977628393" y2="-67.38732111026692"/><line fill="none" stroke="#000" stroke-linecap="round" x1="-473.097867141701" x2="-465.95809217839883" y1="-73.63741977628393" y2="-99.11743783667005"/><line fill="none" stroke="#000" stroke-linecap="round" x1="-473.097867141701" x2="-400.127228455807" y1="-73.63741977628393" y2="-62.846350329834486"/><line fill="none" stroke="#000" stroke-linecap="round" x1="-473.097867141701" x2="-424.77554197380067" y1="-73.63741977628393" y2="-55.7964239342974"/><line fill="none" stroke="#000" stroke-linecap="round" x1="-566.1880136051083" x2="-523.1132424148317" y1="-225.7316598471167" y2="-245.1849304155388"/><line fill="none" stroke="#000" stroke-linecap="round" x1="-566.1880136051083" x2="-527.9022031819062" y1="-225.7316598471167" y2="-191.49216909702852"/><line fill="none" stroke="#000" stroke-linecap="round" x1="-566.1880136051083" x2="-544.5561619710833" y1="-225.7316598471167" y2="-234.982171466325"/><line fill="none" stroke="#000" stroke-linecap="round" x1="-566.1880136051083" x2="-368.24031229252773" y1="-225.7316598471167" y2="-202.52004694713017"/><line fill="none" stroke="#000" stroke-linecap="round" x1="-566.1880136051083" x2="-547.4062539491678" y1="-225.7316598471167" y2="-182.91273474694873"/><line fill="none" stroke="#000" stroke-linecap="round" x1="-392.2169104421105" x2="-500.99098023764265" y1="-123.00866197068105" y2="-130.66493122614392"/><line fill="none" stroke="#000" stroke-linecap="round" x1="-392.2169104421105" x2="-385.26814995296127" y1="-123.00866197068105" y2="-90.91222902969865"/><line fill="none" stroke="#000" stroke-linecap="round" x1="-392.2169104421105" x2="-407.71330043127165" y1="-123.00866197068105" y2="-101.9938474506667"/><line fill="none" stroke="#000" stroke-linecap="round" x1="-392.2169104421105" x2="-366.344914141867" y1="-123.00866197068105" y2="-108.01039166548377"/><line fill="none" stroke="#000" stroke-linecap="round" x1="-392.2169104421105" x2="-341.21500845976095" y1="-123.00866197068105" y2="-112.33943367220402"/><line fill="none" stroke="#000" stroke-linecap="round" x1="-500.99098023764265" x2="-522.4336369079787" y1="-130.66493122614392" y2="-218.36260551406443"/><line fill="none" stroke="#000" stroke-linecap="round" x1="-500.99098023764265" x2="-527.9022031819062" y1="-130.66493122614392" y2="-191.49216909702852"/><line fill="none" stroke="#000" stroke-linecap="round" x1="-500.99098023764265" x2="-465.95809217839883" y1="-130.66493122614392" y2="-99.11743783667005"/><line fill="none" stroke="#000" stroke-linecap="round" x1="-500.99098023764265" x2="-392.2169104421105" y1="-130.66493122614392" y2="-123.00866197068105"/><line fill="none" stroke="#000" stroke-linecap="round" x1="-500.99098023764265" x2="-516.0858014939346" y1="-130.66493122614392" y2="-159.18729564211048"/><line fill="none" stroke="#000" stroke-linecap="round" x1="-478.28153340774446" x2="-408.47888880829146" y1="-215.14945432898878" y2="-269.4024791289877"/><line fill="none" stroke="#000" stroke-linecap="round" x1="-478.28153340774446" x2="-477.17852046601377" y1="-215.14945432898878" y2="-241.66175412260108"/><line fill="none" stroke="#000" stroke-linecap="round" x1="-478.28153340774446" x2="-372.20880441164917" y1="-215.14945432898878" y2="-136.836067872916"/><line fill="none" stroke="#000" stroke-linecap="round" x1="-478.28153340774446" x2="-305.48297078182105" y1="-215.14945432898878" y2="-75.64738819729656"/><line fill="none" stroke="#000" stroke-linecap="round" x1="-478.28153340774446" x2="-604.2183498514325" y1="-215.14945432898878" y2="-260.19182281179707"/><line fill="none" stroke="#000" stroke-linecap="round" x1="-572.3103309020568" x2="-479.463456976009" y1="-200.46218754666415" y2="-189.11495338434034"/><line fill="none" stroke="#000" stroke-linecap="round" x1="-572.3103309020568" x2="-547.4062539491678" y1="-200.46218754666415" y2="-182.91273474694873"/><line fill="none" stroke="#000" stroke-linecap="round" x1="-572.3103309020568" x2="-584.5066215617595" y1="-200.46218754666415" y2="-276.7842213233305"/><line fill="none" stroke="#000" stroke-linecap="round" x1="-572.3103309020568" x2="-570.4952938931116" y1="-200.46218754666415" y2="-256.6702958778018"/><line fill="none" stroke="#000" stroke-linecap="round" x1="-572.3103309020568" x2="-576.405186654933" y1="-200.46218754666415" y2="-296.1064412002216"/><line fill="none" stroke="#000" stroke-linecap="round" x1="-523.1132424148317" x2="-566.1880136051083" y1="-245.1849304155388" y2="-225.7316598471167"/><line fill="none" stroke="#000" stroke-linecap="round" x1="-523.1132424148317" x2="-570.4952938931116" y1="-245.1849304155388" y2="-256.6702958778018"/><line fill="none" stroke="#000" stroke-linecap="round" x1="-523.1132424148317" x2="-477.17852046601377" y1="-245.1849304155388" y2="-241.66175412260108"/><line fill="none" stroke="#000" stroke-linecap="round" x1="-523.1132424148317" x2="-539.9594986759994" y1="-245.1849304155388" y2="-160.50585582697462"/><line fill="none" stroke="#000" stroke-linecap="round" x1="-523.1132424148317" x2="-517.1292778387902" y1="-245.1849304155388" y2="-292.32017243919324"/><line fill="none" stroke="#000" stroke-linecap="round" x1="-477.17852046601377" x2="-423.9959590725249" y1="-241.66175412260108" y2="-129.01125845437085"/><line fill="none" stroke="#000" stroke-linecap="round" x1="-477.17852046601377" x2="-453.44194681111156" y1="-241.66175412260108" y2="-207.50344217089997"/><line fill="none" stroke="#000" stroke-linecap="round" x1="-477.17852046601377" x2="-550.4984006194519" y1="-241.66175412260108" y2="-307.3564267938881"/><line fill="none" stroke="#000" stroke-linecap="round" x1="-477.17852046601377" x2="-478.28153340774446" y1="-241.66175412260108" y2="-215.14945432898878"/><line fill="none" stroke="#000" stroke-linecap="round" x1="-477.17852046601377" x2="-523.1132424148317" y1="-241.66175412260108" y2="-245.1849304155388"/><line fill="none" stroke="#000" stroke-linecap="round" x1="-305.83181617299005" x2="-276.9435459821118" y1="-1.199633376239874" y2="42.202443001530035"/><line fill="none" stroke="#000" stroke-linecap="round" x1="-305.83181617299005" x2="-303.3827832275351" y1="-1.199633376239874" y2="25.697992764053545"/><line fill="none" stroke="#000" stroke-linecap="round" x1="-305.83181617299005" x2="-255.93096848330754" y1="-1.199633376239874" y2="24.53455776111574"/><line fill="none" stroke="#000" stroke-linecap="round" x1="-305.83181617299005" x2="-279.2163920824407" y1="-1.199633376239874" y2="15.623112481255154"/><line fill="none" stroke="#000" stroke-linecap="round" x1="-305.83181617299005" x2="-260.00779031406256" y1="-1.199633376239874" y2="-2.133630368523798"/><line fill="none" stroke="#000" stroke-linecap="round" x1="-516.0858014939346" x2="-592.0838744646231" y1="-159.18729564211048" y2="-214.05137979778328"/><line fill="none" stroke="#000" stroke-linecap="round" x1="-516.0858014939346" x2="-383.54603858664655" y1="-159.18729564211048" y2="-181.98847402896462"/><line fill="none" stroke="#000" stroke-linecap="round" x1="-516.0858014939346" x2="-389.9475448843395" y1="-159.18729564211048" y2="-156.69544523061302"/><line fill="none" stroke="#000" stroke-linecap="round" x1="-516.0858014939346" x2="-456.907738548017" y1="-159.18729564211048" y2="-140.50730309964996"/><line fill="none" stroke="#000" stroke-linecap="round" x1="-516.0858014939346" x2="-441.9318666633539" y1="-159.18729564211048" y2="-89.53668698766009"/><line fill="none" stroke="#000" stroke-linecap="round" x1="-453.44194681111156" x2="-477.17852046601377" y1="-207.50344217089997" y2="-241.66175412260108"/><line fill="none" stroke="#000" stroke-linecap="round" x1="-453.44194681111156" x2="-423.9959590725249" y1="-207.50344217089997" y2="-129.01125845437085"/><line fill="none" stroke="#000" stroke-linecap="round" x1="-453.44194681111156" x2="-478.28153340774446" y1="-207.50344217089997" y2="-215.14945432898878"/><line fill="none" stroke="#000" stroke-linecap="round" x1="-453.44194681111156" x2="-411.6602971152422" y1="-207.50344217089997" y2="-193.90057689668637"/><line fill="none" stroke="#000" stroke-linecap="round" x1="-453.44194681111156" x2="-437.29978922053766" y1="-207.50344217089997" y2="-157.9828847664203"/><line fill="none" stroke="#000" stroke-linecap="round" x1="-584.5066215617595" x2="-570.4952938931116" y1="-276.7842213233305" y2="-256.6702958778018"/><line fill="none" stroke="#000" stroke-linecap="round" x1="-584.5066215617595" x2="-559.0275846108424" y1="-276.7842213233305" y2="-283.3594204715509"/><line fill="none" stroke="#000" stroke-linecap="round" x1="-584.5066215617595" x2="-539.3940491942234" y1="-276.7842213233305" y2="-348.4953378160103"/><line fill="none" stroke="#000" stroke-linecap="round" x1="-584.5066215617595" x2="-572.3103309020568" y1="-276.7842213233305" y2="-200.46218754666415"/><line fill="none" stroke="#000" stroke-linecap="round" x1="-584.5066215617595" x2="-604.2183498514325" y1="-276.7842213233305" y2="-260.19182281179707"/><line fill="none" stroke="#000" stroke-linecap="round" x1="-305.309964118618" x2="-303.49041173046635" y1="-159.66598127941492" y2="-121.48561854876026"/><line fill="none" stroke="#000" stroke-linecap="round" x1="-305.309964118618" x2="-299.0167486260824" y1="-159.66598127941492" y2="-184.16131452323282"/><line fill="none" stroke="#000" stroke-linecap="round" x1="-305.309964118618" x2="-285.9469708331524" y1="-159.66598127941492" y2="-139.31125445602694"/><line fill="none" stroke="#000" stroke-linecap="round" x1="-305.309964118618" x2="-277.18403457093706" y1="-159.66598127941492" y2="-172.34086143270304"/><line fill="none" stroke="#000" stroke-linecap="round" x1="-305.309964118618" x2="-268.07609811724757" y1="-159.66598127941492" y2="-119.91396557826629"/><line fill="none" stroke="#000" stroke-linecap="round" x1="-547.4062539491678" x2="-572.3103309020568" y1="-182.91273474694873" y2="-200.46218754666415"/><line fill="none" stroke="#000" stroke-linecap="round" x1="-547.4062539491678" x2="-576.405186654933" y1="-182.91273474694873" y2="-296.1064412002216"/><line fill="none" stroke="#000" stroke-linecap="round" x1="-547.4062539491678" x2="-478.28153340774446" y1="-182.91273474694873" y2="-215.14945432898878"/><line fill="none" stroke="#000" stroke-linecap="round" x1="-547.4062539491678" x2="-566.1880136051083" y1="-182.91273474694873" y2="-225.7316598471167"/><line fill="none" stroke="#000" stroke-linecap="round" x1="-547.4062539491678" x2="-473.097867141701" y1="-182.91273474694873" y2="-73.63741977628393"/><line fill="none" stroke="#000" stroke-linecap="round" x1="-590.8743959241389" x2="-576.405186654933" y1="-240.38657341741157" y2="-296.1064412002216"/><line fill="none" stroke="#000" stroke-linecap="round" x1="-590.8743959241389" x2="-527.9022031819062" y1="-240.38657341741157" y2="-191.49216909702852"/><line fill="none" stroke="#000" stroke-linecap="round" x1="-590.8743959241389" x2="-544.5561619710833" y1="-240.38657341741157" y2="-234.982171466325"/><line fill="none" stroke="#000" stroke-linecap="round" x1="-590.8743959241389" x2="-566.1880136051083" y1="-240.38657341741157" y2="-225.7316598471167"/><line fill="none" stroke="#000" stroke-linecap="round" x1="-590.8743959241389" x2="-570.4952938931116" y1="-240.38657341741157" y2="-256.6702958778018"/><line fill="none" stroke="#000" stroke-linecap="round" x1="-277.18403457093706" x2="-368.24031229252773" y1="-172.34086143270304" y2="-202.52004694713017"/><line fill="none" stroke="#000" stroke-linecap="round" x1="-277.18403457093706" x2="-305.309964118618" y1="-172.34086143270304" y2="-159.66598127941492"/><line fill="none" stroke="#000" stroke-linecap="round" x1="-277.18403457093706" x2="-299.0167486260824" y1="-172.34086143270304" y2="-184.16131452323282"/><line fill="none" stroke="#000" stroke-linecap="round" x1="-277.18403457093706" x2="-20.646758696712716" y1="-172.34086143270304" y2="-110.68294461191188"/><line fill="none" stroke="#000" stroke-linecap="round" x1="-277.18403457093706" x2="-259.3757502858822" y1="-172.34086143270304" y2="-149.5516037208214"/><line fill="none" stroke="#000" stroke-linecap="round" x1="-456.9439826405698" x2="-432.7449488637933" y1="-178.16853951957302" y2="-186.17541683225204"/><line fill="none" stroke="#000" stroke-linecap="round" x1="-456.9439826405698" x2="-423.03876841799" y1="-178.16853951957302" y2="-243.63270900381312"/><line fill="none" stroke="#000" stroke-linecap="round" x1="-456.9439826405698" x2="-413.7185185465493" y1="-178.16853951957302" y2="-220.52292890119654"/><line fill="none" stroke="#000" stroke-linecap="round" x1="-456.9439826405698" x2="-564.2609448742367" y1="-178.16853951957302" y2="-167.0120624854621"/><line fill="none" stroke="#000" stroke-linecap="round" x1="-456.9439826405698" x2="-412.35594924875545" y1="-178.16853951957302" y2="-170.55174775857233"/><line fill="none" stroke="#000" stroke-linecap="round" x1="-465.95809217839883" x2="-468.9467396805299" y1="-99.11743783667005" y2="-44.768571579840724"/><line fill="none" stroke="#000" stroke-linecap="round" x1="-465.95809217839883" x2="-473.097867141701" y1="-99.11743783667005" y2="-73.63741977628393"/><line fill="none" stroke="#000" stroke-linecap="round" x1="-465.95809217839883" x2="-349.3667971801404" y1="-99.11743783667005" y2="-136.43994081086973"/><line fill="none" stroke="#000" stroke-linecap="round" x1="-465.95809217839883" x2="-516.0858014939346" y1="-99.11743783667005" y2="-159.18729564211048"/><line fill="none" stroke="#000" stroke-linecap="round" x1="-465.95809217839883" x2="-450.3509465063174" y1="-99.11743783667005" y2="-64.01989161321438"/><line fill="none" stroke="#000" stroke-linecap="round" x1="-543.0505271047477" x2="-559.0275846108424" y1="-259.3890346237377" y2="-283.3594204715509"/><line fill="none" stroke="#000" stroke-linecap="round" x1="-543.0505271047477" x2="-472.93222890445895" y1="-259.3890346237377" y2="-287.96904004884254"/><line fill="none" stroke="#000" stroke-linecap="round" x1="-543.0505271047477" x2="-447.8592230395885" y1="-259.3890346237377" y2="-241.58559521596402"/><line fill="none" stroke="#000" stroke-linecap="round" x1="-543.0505271047477" x2="-522.4336369079787" y1="-259.3890346237377" y2="-218.36260551406443"/><line fill="none" stroke="#000" stroke-linecap="round" x1="-543.0505271047477" x2="-539.9594986759994" y1="-259.3890346237377" y2="-160.50585582697462"/><line fill="none" stroke="#000" stroke-linecap="round" x1="-522.4336369079787" x2="-539.9594986759994" y1="-218.36260551406443" y2="-160.50585582697462"/><line fill="none" stroke="#000" stroke-linecap="round" x1="-522.4336369079787" x2="-517.1292778387902" y1="-218.36260551406443" y2="-292.32017243919324"/><line fill="none" stroke="#000" stroke-linecap="round" x1="-522.4336369079787" x2="-523.1132424148317" y1="-218.36260551406443" y2="-245.1849304155388"/><line fill="none" stroke="#000" stroke-linecap="round" x1="-522.4336369079787" x2="-584.5066215617595" y1="-218.36260551406443" y2="-276.7842213233305"/><line fill="none" stroke="#000" stroke-linecap="round" x1="-522.4336369079787" x2="-500.99098023764265" y1="-218.36260551406443" y2="-130.66493122614392"/><line fill="none" stroke="#000" stroke-linecap="round" x1="-503.69646934187847" x2="-494.4679054525916" y1="-202.95774095153723" y2="-154.4571829048534"/><line fill="none" stroke="#000" stroke-linecap="round" x1="-503.69646934187847" x2="-564.2609448742367" y1="-202.95774095153723" y2="-167.0120624854621"/><line fill="none" stroke="#000" stroke-linecap="round" x1="-503.69646934187847" x2="-527.9022031819062" y1="-202.95774095153723" y2="-191.49216909702852"/><line fill="none" stroke="#000" stroke-linecap="round" x1="-503.69646934187847" x2="-516.0858014939346" y1="-202.95774095153723" y2="-159.18729564211048"/><line fill="none" stroke="#000" stroke-linecap="round" x1="-503.69646934187847" x2="-503.5808129010448" y1="-202.95774095153723" y2="-178.44011428705105"/><line fill="none" stroke="#000" stroke-linecap="round" x1="-570.4952938931116" x2="-523.1132424148317" y1="-256.6702958778018" y2="-245.1849304155388"/><line fill="none" stroke="#000" stroke-linecap="round" x1="-570.4952938931116" x2="-584.5066215617595" y1="-256.6702958778018" y2="-276.7842213233305"/><line fill="none" stroke="#000" stroke-linecap="round" x1="-570.4952938931116" x2="-539.3940491942234" y1="-256.6702958778018" y2="-348.4953378160103"/><line fill="none" stroke="#000" stroke-linecap="round" x1="-570.4952938931116" x2="-520.9843848460822" y1="-256.6702958778018" y2="-272.5130696750848"/><line fill="none" stroke="#000" stroke-linecap="round" x1="-570.4952938931116" x2="-547.2905668294021" y1="-256.6702958778018" y2="-207.8511603534118"/><line fill="none" stroke="#000" stroke-linecap="round" x1="-494.4679054525916" x2="-456.9439826405698" y1="-154.4571829048534" y2="-178.16853951957302"/><line fill="none" stroke="#000" stroke-linecap="round" x1="-494.4679054525916" x2="-503.69646934187847" y1="-154.4571829048534" y2="-202.95774095153723"/><line fill="none" stroke="#000" stroke-linecap="round" x1="-494.4679054525916" x2="-564.2609448742367" y1="-154.4571829048534" y2="-167.0120624854621"/><line fill="none" stroke="#000" stroke-linecap="round" x1="-494.4679054525916" x2="-447.109762777948" y1="-154.4571829048534" y2="-116.54154483826187"/><line fill="none" stroke="#000" stroke-linecap="round" x1="-494.4679054525916" x2="-475.63334827065677" y1="-154.4571829048534" y2="-123.91724995752531"/><line fill="none" stroke="#000" stroke-linecap="round" x1="-520.9843848460822" x2="-496.50250547038206" y1="-272.5130696750848" y2="-278.7580865662943"/><line fill="none" stroke="#000" stroke-linecap="round" x1="-520.9843848460822" x2="-478.28153340774446" y1="-272.5130696750848" y2="-215.14945432898878"/><line fill="none" stroke="#000" stroke-linecap="round" x1="-520.9843848460822" x2="-496.4794764186844" y1="-272.5130696750848" y2="-251.60835443120334"/><line fill="none" stroke="#000" stroke-linecap="round" x1="-520.9843848460822" x2="-460.8662249286425" y1="-272.5130696750848" y2="-262.33076521970867"/><line fill="none" stroke="#000" stroke-linecap="round" x1="-520.9843848460822" x2="-590.8743959241389" y1="-272.5130696750848" y2="-240.38657341741157"/><line fill="none" stroke="#000" stroke-linecap="round" x1="-389.61667186897705" x2="-368.24031229252773" y1="-209.08194646432995" y2="-202.52004694713017"/><line fill="none" stroke="#000" stroke-linecap="round" x1="-389.61667186897705" x2="-277.18403457093706" y1="-209.08194646432995" y2="-172.34086143270304"/><line fill="none" stroke="#000" stroke-linecap="round" x1="-389.61667186897705" x2="-327.7554675328178" y1="-209.08194646432995" y2="-199.8423892745068"/><line fill="none" stroke="#000" stroke-linecap="round" x1="-389.61667186897705" x2="-456.9439826405698" y1="-209.08194646432995" y2="-178.16853951957302"/><line fill="none" stroke="#000" stroke-linecap="round" x1="-389.61667186897705" x2="-517.1292778387902" y1="-209.08194646432995" y2="-292.32017243919324"/><line fill="none" stroke="#000" stroke-linecap="round" x1="-305.48297078182105" x2="-249.74058621817892" y1="-75.64738819729656" y2="-63.22768457380099"/><line fill="none" stroke="#000" stroke-linecap="round" x1="-305.48297078182105" x2="-244.40073158334866" y1="-75.64738819729656" y2="-35.61220635068775"/><line fill="none" stroke="#000" stroke-linecap="round" x1="-305.48297078182105" x2="-269.6990285467234" y1="-75.64738819729656" y2="-45.0457778478765"/><line fill="none" stroke="#000" stroke-linecap="round" x1="-305.48297078182105" x2="-287.714628440183" y1="-75.64738819729656" y2="-27.60564777119536"/><line fill="none" stroke="#000" stroke-linecap="round" x1="-305.48297078182105" x2="-276.45511954521254" y1="-75.64738819729656" y2="-69.26203487029997"/><line fill="none" stroke="#000" stroke-linecap="round" x1="-544.5561619710833" x2="-527.9022031819062" y1="-234.982171466325" y2="-191.49216909702852"/><line fill="none" stroke="#000" stroke-linecap="round" x1="-544.5561619710833" x2="-478.28153340774446" y1="-234.982171466325" y2="-215.14945432898878"/><line fill="none" stroke="#000" stroke-linecap="round" x1="-544.5561619710833" x2="-523.1132424148317" y1="-234.982171466325" y2="-245.1849304155388"/><line fill="none" stroke="#000" stroke-linecap="round" x1="-544.5561619710833" x2="-590.8743959241389" y1="-234.982171466325" y2="-240.38657341741157"/><line fill="none" stroke="#000" stroke-linecap="round" x1="-544.5561619710833" x2="-566.1880136051083" y1="-234.982171466325" y2="-225.7316598471167"/></svg>