<?xml version="1.0" ?><!DOCTYPE svg  PUBLIC '-//W3C//DTD SVG 1.1//EN'  'http://www.w3.org/Graphics/SVG/1.1/DTD/svg11.dtd'><svg height="400.000" viewBox="-324.000 -186.000 568.000 400.000" width="568.000" xmlns="http://www.w3.org/2000/svg"><line fill="none" stroke="none" stroke-linecap="round" stroke-width="2.0" x1="0.0" x2="0.0" y1="0.0" y2="0.0"/><polygon fill="none" fill-rule="evenodd" points="0.0,0.0 0.0,0.0 0.0,0.0" stroke-linejoin="round"/><line fill="none" stroke="none" stroke-linecap="round" stroke-width="2.0" x1="0.0" x2="0.0" y1="0.0" y2="0.0"/><line fill="none" stroke="none" stroke-linecap="round" stroke-width="2.0" x1="0.0" x2="0.0" y1="0.0" y2="0.0"/><polygon fill="none" fill-rule="evenodd" points="0.0,0.0 0.0,0.0 0.0,0.0" stroke-linejoin="round"/><line fill="none" stroke="none" stroke-linecap="round" stroke-width="2.0" x1="0.0" x2="0.0" y1="0.0" y2="0.0"/><line fill="none" stroke="none" stroke-linecap="round" stroke-width="2.0" x1="0.0" x2="0.0" y1="0.0" y2="0.0"/><polygon fill="none" fill-rule="evenodd" points="0.0,0.0 0.0,0.0 0.0,0.0" stroke-linejoin="round"/><line fill="none" stroke="none" stroke-linecap="round" stroke-width="2.0" x1="0.0" x2="0.0" y1="0.0" y2="0.0"/><line fill="none" stroke="none" stroke-linecap="round" stroke-width="2.0" x1="0.0" x2="0.0" y1="0.0" y2="0.0"/><polygon fill="none" fill-rule="evenodd" points="0.0,0.0 0.0,0.0 0.0,0.0" stroke-linejoin="round"/><line fill="none" stroke="none" stroke-linecap="round" stroke-width="2.0" x1="0.0" x2="0.0" y1="0.0" y2="0.0"/><line fill="none" stroke="none" stroke-linecap="round" stroke-width="2.0" x1="0.0" x2="0.0" y1="0.0" y2="0.0"/><polygon fill="none" fill-rule="evenodd" points="0.0,0.0 0.0,0.0 0.0,0.0" stroke-linejoin="round"/><line fill="none" stroke="none" stroke-linecap="round" stroke-width="2.0" x1="0.0" x2="0.0" y1="0.0" y2="0.0"/><line fill="none" stroke="none" stroke-linecap="round" stroke-width="2.0" x1="0.0" x2="0.0" y1="0.0" y2="0.0"/><polygon fill="none" fill-rule="evenodd" points="0.0,0.0 0.0,0.0 0.0,0.0" stroke-linejoin="round"/><line fill="none" stroke="none" stroke-linecap="round" stroke-width="2.0" x1="0.0" x2="0.0" y1="0.0" y2="0.0"/><line fill="none" stroke="none" stroke-linecap="round" stroke-width="2.0" x1="0.0" x2="0.0" y1="0.0" y2="0.0"/><polygon fill="none" fill-rule="evenodd" points="0.0,0.0 0.0,0.0 0.0,0.0" stroke-linejoin="round"/><line fill="none" stroke="none" stroke-linecap="round" stroke-width="2.0" x1="0.0" x2="0.0" y1="0.0" y2="0.0"/><line fill="none" stroke="none" stroke-linecap="round" stroke-width="2.0" x1="0.0" x2="0.0" y1="0.0" y2="0.0"/><polygon fill="none" fill-rule="evenodd" points="0.0,0.0 0.0,0.0 0.0,0.0" stroke-linejoin="round"/><line fill="none" stroke="none" stroke-linecap="round" stroke-width="2.0" x1="0.0" x2="0.0" y1="0.0" y2="0.0"/><line fill="none" stroke="none" stroke-linecap="round" stroke-width="2.0" x1="0.0" x2="0.0" y1="0.0" y2="0.0"/><polygon fill="none" fill-rule="evenodd" points="0.0,0.0 0.0,0.0 0.0,0.0" stroke-linejoin="round"/><line fill="none" stroke="none" stroke-linecap="round" stroke-width="2.0" x1="0.0" x2="0.0" y1="0.0" y2="0.0"/><line fill="none" stroke="none" stroke-linecap="round" stroke-width="2.0" x1="0.0" x2="0.0" y1="0.0" y2="0.0"/><polygon fill="none" fill-rule="evenodd" points="0.0,0.0 0.0,0.0 0.0,0.0" stroke-linejoin="round"/><line fill="none" stroke="none" stroke-linecap="round" stroke-width="2.0" x1="0.0" x2="0.0" y1="0.0" y2="0.0"/><line fill="none" stroke="none" stroke-linecap="round" stroke-width="2.0" x1="0.0" x2="0.0" y1="0.0" y2="0.0"/><polygon fill="none" fill-rule="evenodd" points="0.0,0.0 0.0,0.0 0.0,0.0" stroke-linejoin="round"/><line fill="none" stroke="none" stroke-linecap="round" stroke-width="2.0" x1="0.0" x2="0.0" y1="0.0" y2="0.0"/><line fill="none" stroke="none" stroke-linecap="round" stroke-width="2.0" x1="0.0" x2="0.0" y1="0.0" y2="0.0"/><polygon fill="none" fill-rule="evenodd" points="0.0,0.0 0.0,0.0 0.0,0.0" stroke-linejoin="round"/><line fill="none" stroke="none" stroke-linecap="round" stroke-width="2.0" x1="0.0" x2="0.0" y1="0.0" y2="0.0"/><line fill="none" stroke="none" stroke-linecap="round" stroke-width="2.0" x1="0.0" x2="0.0" y1="0.0" y2="0.0"/><polygon fill="none" fill-rule="evenodd" points="0.0,0.0 0.0,0.0 0.0,0.0" stroke-linejoin="round"/><polyline fill="none" points="160.9437744074887,-76.77952356029506 163.4437744074887,-77.44939654137286 165.27390142641087,-79.27952356029506 165.9437744074887,-81.77952356029506 165.27390142641087,-84.27952356029506 163.4437744074887,-86.10965057921726 160.9437744074887,-86.77952356029506 158.4437744074887,-86.10965057921726 156.6136473885665,-84.27952356029506 155.9437744074887,-81.77952356029506 156.6136473885665,-79.27952356029506 158.4437744074887,-77.44939654137286 160.9437744074887,-76.77952356029505" stroke="#00f" stroke-linecap="round" stroke-linejoin="round"/><polyline fill="none" points="184.840429473805,-148.8864951443348 187.340429473805,-149.5563681254126 189.17055649272717,-151.3864951443348 189.840429473805,-153.8864951443348 189.17055649272717,-156.3864951443348 187.340429473805,-158.21662216325697 184.840429473805,-158.8864951443348 182.340429473805,-158.21662216325697 180.5103024548828,-156.3864951443348 179.840429473805,-153.8864951443348 180.5103024548828,-151.3864951443348 182.340429473805,-149.5563681254126 184.840429473805,-148.8864951443348" stroke="#ffa500" stroke-linecap="round" stroke-linejoin="round"/><polyline fill="none" points="81.62628463441547,-105.58947503546611 84.12628463441547,-106.25934801654391 85.95641165333767,-108.0894750354661 86.62628463441548,-110.5894750354661 85.95641165333768,-113.0894750354661 84.1262846344155,-114.91960205438829 81.6262846344155,-115.58947503546611 79.1262846344155,-114.9196020543883 77.2961576154933,-113.08947503546612 76.62628463441548,-110.58947503546612 77.29615761549329,-108.08947503546612 79.12628463441547,-106.25934801654392 81.62628463441547,-105.58947503546611" stroke="#00f" stroke-linecap="round" stroke-linejoin="round"/><polyline fill="none" points="9.346172769966367,-41.972990354115424 11.84617276996637,-42.642863335193226 13.67629978888857,-44.47299035411542 14.346172769966387,-46.97299035411542 13.676299788888588,-49.472990354115424 11.846172769966401,-51.30311737303762 9.346172769966401,-51.97299035411544 6.846172769966396,-51.303117373037644 5.016045751044194,-49.47299035411545 4.346172769966377,-46.97299035411545 5.0160457510441745,-44.472990354115446 6.846172769966362,-42.64286333519324 9.346172769966362,-41.972990354115424" stroke="#ffa500" stroke-linecap="round" stroke-linejoin="round"/><polyline fill="none" points="158.41522271338548,6.681015091864624 160.91522271338548,6.011142110786826 162.7453497323077,4.181015091864639 163.4152227133855,1.681015091864639 162.74534973230772,-0.8189849081353673 160.91522271338553,-2.649111927057571 158.41522271338553,-3.3189849081353904 155.91522271338553,-2.6491119270575942 154.08509569446332,-0.818984908135407 153.4152227133855,1.681015091864593 154.0850956944633,4.1810150918646 155.91522271338548,6.011142110786805 158.41522271338548,6.681015091864626" stroke="#00f" stroke-linecap="round" stroke-linejoin="round"/><polyline fill="none" points="167.369850392766,59.939889338151495 169.869850392766,59.2700163570737 171.69997741168822,57.43988933815152 172.36985039276604,54.93988933815152 171.69997741168825,52.43988933815151 169.86985039276607,50.609762319229304 167.36985039276607,49.93988933815148 164.86985039276607,50.609762319229276 163.03972337384386,52.43988933815146 162.36985039276604,54.93988933815146 163.03972337384383,57.43988933815147 164.869850392766,59.27001635707367 167.369850392766,59.939889338151495" stroke="#ffa500" stroke-linecap="round" stroke-linejoin="round"/><polyline fill="none" points="51.09149693125049,7.529987748816236 53.5914969312505,6.860114767738444 55.4216239501727,5.029987748816259 56.091496931250525,2.5299877488162594 55.42162395017273,0.029987748816250992 53.591496931250546,-1.8001392701059575 51.091496931250546,-2.470012251183782 48.59149693125054,-1.800139270105991 46.76136991232833,0.029987748816192594 46.091496931250504,2.5299877488161924 46.76136991232829,5.029987748816202 48.591496931250475,6.860114767738412 51.091496931250475,7.529987748816238" stroke="#00f" stroke-linecap="round" stroke-linejoin="round"/><polyline fill="none" points="94.0432642285952,-44.97702512527047 96.54326422859522,-45.64689810634826 98.37339124751743,-47.477025125270444 99.04326422859526,-49.977025125270444 98.37339124751747,-52.47702512527045 96.54326422859529,-54.30715214419266 94.04326422859529,-54.977025125270494 91.54326422859528,-54.307152144192706 89.71313720967306,-52.47702512527052 89.04326422859523,-49.97702512527052 89.71313720967302,-47.477025125270515 91.5432642285952,-45.6468981063483 94.0432642285952,-44.97702512527047" stroke="#00f" stroke-linecap="round" stroke-linejoin="round"/><polyline fill="none" points="96.81643524826136,-36.41596250011566 99.31643524826137,-37.08583548119345 101.14656226718358,-38.91596250011563 101.81643524826141,-41.41596250011563 101.14656226718363,-43.91596250011565 99.31643524826144,-45.74608951903786 96.81643524826144,-46.41596250011569 94.31643524826143,-45.7460895190379 92.48630822933922,-43.91596250011572 91.81643524826139,-41.41596250011572 92.48630822933917,-38.915962500115704 94.31643524826136,-37.08583548119349 96.81643524826136,-36.41596250011566" stroke="#00f" stroke-linecap="round" stroke-linejoin="round"/><polyline fill="none" points="122.33598024522507,-60.218672689877636 124.83598024522509,-60.88854567095542 126.6661072641473,-62.71867268987761 127.33598024522513,-65.21867268987761 126.66610726414734,-67.71867268987762 124.83598024522516,-69.54879970879983 122.33598024522516,-70.21867268987766 119.83598024522514,-69.54879970879988 118.00585322630293,-67.71867268987769 117.3359802452251,-65.21867268987769 118.00585322630289,-62.71867268987768 119.83598024522507,-60.88854567095546 122.33598024522507,-60.21867268987762" stroke="#00f" stroke-linecap="round" stroke-linejoin="round"/><polyline fill="none" points="130.32743017234043,14.814047775435355 132.82743017234043,14.144174794357573 134.65755719126264,12.314047775435395 135.32743017234048,9.814047775435395 134.6575571912627,7.31404777543538 132.8274301723405,5.483920756513162 130.3274301723405,4.814047775435326 127.8274301723405,5.483920756513108 125.99730315341829,7.314047775435286 125.32743017234046,9.814047775435286 125.99730315341824,12.314047775435302 127.82743017234043,14.144174794357522 130.32743017234043,14.814047775435359" stroke="#00f" stroke-linecap="round" stroke-linejoin="round"/><polyline fill="none" points="208.04097393792676,-2.5074326435896586 210.5409739379268,-3.177305624667439 212.371100956849,-5.007432643589617 213.04097393792685,-7.507432643589617 212.37110095684906,-10.007432643589631 210.54097393792688,-11.83755966251185 208.04097393792688,-12.507432643589688 205.54097393792685,-11.837559662511909 203.71084691900464,-10.007432643589732 203.0409739379268,-7.507432643589732 203.71084691900458,-5.007432643589716 205.54097393792676,-3.177305624667495 208.04097393792676,-2.5074326435896555" stroke="#ffa500" stroke-linecap="round" stroke-linejoin="round"/><polyline fill="none" points="86.89295862319956,-127.10212101062709 89.39295862319958,-127.77199399170486 91.2230856421218,-129.60212101062703 91.89295862319965,-132.10212101062703 91.22308564212187,-134.60212101062706 89.3929586231997,-136.43224802954927 86.8929586231997,-137.10212101062712 84.39295862319969,-136.43224802954933 82.56283160427746,-134.60212101062714 81.89295862319962,-132.10212101062714 82.56283160427739,-129.60212101062712 84.39295862319956,-127.77199399170489 86.89295862319956,-127.10212101062704" stroke="#ffa500" stroke-linecap="round" stroke-linejoin="round"/><polyline fill="none" points="110.22350196065429,7.798424510283177 112.7235019606543,7.128551529205401 114.55362897957653,5.298424510283226 115.22350196065437,2.798424510283226 114.5536289795766,0.2984245102832084 112.72350196065443,-1.5317025086390161 110.22350196065443,-2.2015754897168596 107.72350196065442,-1.5317025086390845 105.89337494173219,0.29842451028309047 105.22350196065435,2.798424510283091 105.89337494173212,5.298424510283111 107.72350196065429,7.128551529205336 110.22350196065429,7.798424510283181" stroke="#008000" stroke-linecap="round" stroke-linejoin="round"/><polyline fill="none" points="21.293085165203006,2.4191776134471903 23.793085165203028,1.749304632369416 25.623212184125254,-0.08082238655275908 26.2930851652031,-2.5808223865527604 25.623212184125325,-5.08082238655278 23.793085165203152,-6.910949405475008 21.293085165203152,-7.580822386552853 18.79308516520313,-6.91094940547508 16.962958146280904,-5.080822386552905 16.293085165203056,-2.580822386552903 16.96295814628083,-0.08082238655288165 18.793085165203003,1.7493046323693469 21.293085165203003,2.419177613447194" stroke="#ffa500" stroke-linecap="round" stroke-linejoin="round"/><polyline fill="none" points="158.19533323212974,-17.3997595018927 160.69533323212977,-18.069632482970473 162.525460251052,-19.899759501892646 163.19533323212985,-22.39975950189265 162.5254602510521,-24.89975950189267 160.6953332321299,-26.7298865208149 158.1953332321299,-27.39975950189275 155.69533323212988,-26.72988652081498 153.86520621320764,-24.899759501892806 153.1953332321298,-22.399759501892802 153.86520621320756,-19.899759501892778 155.69533323212974,-18.069632482970547 158.19533323212974,-17.399759501892696" stroke="#ffa500" stroke-linecap="round" stroke-linejoin="round"/><polyline fill="none" points="136.63404771405095,-9.954626615758887 139.13404771405098,-10.624499596836657 140.96417473297322,-12.45462661575883 141.63404771405106,-14.954626615758832 140.9641747329733,-17.454626615758855 139.13404771405112,-19.28475363468109 136.63404771405112,-19.95462661575894 134.1340477140511,-19.28475363468117 132.30392069512885,-17.454626615758997 131.634047714051,-14.954626615758995 132.30392069512877,-12.454626615758972 134.13404771405095,-10.624499596836738 136.63404771405095,-9.954626615758887" stroke="#ffa500" stroke-linecap="round" stroke-linejoin="round"/><polyline fill="none" points="190.22858758704933,-91.57065598464051 192.72858758704936,-92.24052896571828 194.5587146059716,-94.07065598464045 195.22858758704945,-96.57065598464045 194.5587146059717,-99.07065598464048 192.7285875870495,-100.90078300356272 190.2285875870495,-101.57065598464058 187.72858758704947,-100.90078300356281 185.89846056812723,-99.07065598464064 185.2285875870494,-96.57065598464064 185.89846056812715,-94.07065598464061 187.72858758704933,-92.24052896571837 190.22858758704933,-91.57065598464051" stroke="#00f" stroke-linecap="round" stroke-linejoin="round"/><polyline fill="none" points="181.27539967998726,-8.861469472184755 183.7753996799873,-9.531342453262521 185.60552669890953,-11.361469472184691 186.27539967998737,-13.861469472184693 185.6055266989096,-16.36146947218472 183.77539967998743,-18.191596491106957 181.27539967998743,-18.86146947218481 178.7753996799874,-18.19159649110705 176.94527266106516,-16.36146947218488 176.27539967998732,-13.861469472184877 176.94527266106508,-11.36146947218485 178.77539967998723,-9.531342453262612 181.27539967998723,-8.861469472184753" stroke="#00f" stroke-linecap="round" stroke-linejoin="round"/><polyline fill="none" points="46.319567179772584,-69.78732684914125 48.81956717977261,-70.45719983021901 50.64969419869485,-72.28732684914118 51.31956717977271,-74.78732684914118 50.64969419869495,-77.28732684914121 48.81956717977278,-79.11745386806345 46.31956717977278,-79.78732684914131 43.819567179772754,-79.11745386806355 41.98944016085051,-77.28732684914138 41.319567179772655,-74.78732684914138 41.989440160850414,-72.28732684914135 43.819567179772584,-70.45719983021911 46.319567179772584,-69.78732684914125" stroke="#ffa500" stroke-linecap="round" stroke-linejoin="round"/><polyline fill="none" points="201.62589090390546,-112.35323112574727 204.12589090390549,-113.02310410682503 205.95601792282773,-114.8532311257472 206.6258909039056,-117.3532311257472 205.95601792282784,-119.85323112574723 204.12589090390568,-121.68335814466947 201.62589090390568,-122.35323112574733 199.12589090390566,-121.68335814466957 197.29576388498342,-119.8532311257474 196.62589090390554,-117.3532311257474 197.2957638849833,-114.85323112574737 199.12589090390546,-113.02310410682513 201.62589090390546,-112.35323112574727" stroke="#ffa500" stroke-linecap="round" stroke-linejoin="round"/><polyline fill="none" points="142.59473712479476,-130.92788652487252 145.0947371247948,-131.59775950595028 146.92486414371703,-133.42788652487243 147.5947371247949,-135.92788652487243 146.92486414371714,-138.42788652487246 145.094737124795,-140.2580135437947 142.594737124795,-140.92788652487258 140.09473712479496,-140.25801354379482 138.26461010587272,-138.42788652487266 137.59473712479485,-135.92788652487266 138.2646101058726,-133.42788652487263 140.09473712479476,-131.5977595059504 142.59473712479476,-130.92788652487252" stroke="#ffa500" stroke-linecap="round" stroke-linejoin="round"/><polyline fill="none" points="179.73102150897387,-132.88935958063178 182.2310215089739,-133.55923256170954 184.06114852789614,-135.3893595806317 184.731021508974,-137.8893595806317 184.06114852789625,-140.38935958063172 182.2310215089741,-142.21948659955396 179.7310215089741,-142.88935958063183 177.23102150897407,-142.21948659955407 175.40089449005183,-140.38935958063192 174.73102150897395,-137.88935958063192 175.4008944900517,-135.3893595806319 177.23102150897387,-133.55923256170965 179.73102150897387,-132.88935958063178" stroke="#ffa500" stroke-linecap="round" stroke-linejoin="round"/><polyline fill="none" points="205.25401428086226,15.93195864077456 207.7540142808623,15.262085659696806 209.58414129978453,13.431958640774642 210.2540142808624,10.93195864077464 209.58414129978465,8.431958640774607 207.7540142808625,6.601831621852358 205.2540142808625,5.9319586407744875 202.75401428086246,6.601831621852241 200.92388726194022,8.431958640774404 200.25401428086235,10.931958640774406 200.9238872619401,13.43195864077444 202.75401428086226,15.26208565969669 205.25401428086226,15.93195864077456" stroke="#ffa500" stroke-linecap="round" stroke-linejoin="round"/><polyline fill="none" points="77.00535159351392,-20.76961914413478 79.50535159351395,-21.43949212521253 81.3354786124362,-23.269619144134694 82.00535159351408,-25.769619144134698 81.33547861243633,-28.269619144134733 79.50535159351418,-30.099746163056984 77.00535159351418,-30.769619144134857 74.50535159351415,-30.099746163057105 72.6752245745919,-28.269619144134943 72.00535159351402,-25.769619144134943 72.67522457459177,-23.269619144134907 74.50535159351392,-21.439492125212656 77.00535159351392,-20.769619144134783" stroke="#00f" stroke-linecap="round" stroke-linejoin="round"/><polyline fill="none" points="136.62991541994828,-79.36147535439446 139.1299154199483,-80.0313483354722 140.96004243887054,-81.86147535439436 141.62991541994842,-84.36147535439436 140.96004243887066,-86.8614753543944 139.1299154199485,-88.69160237331666 136.6299154199485,-89.36147535439453 134.12991541994847,-88.69160237331678 132.29978840102623,-86.86147535439463 131.62991541994836,-84.36147535439463 132.29978840102612,-81.86147535439459 134.12991541994828,-80.03134833547233 136.62991541994828,-79.36147535439446" stroke="#00f" stroke-linecap="round" stroke-linejoin="round"/><polyline fill="none" points="105.83337178236282,-113.1066639290318 108.33337178236286,-113.77653691010954 110.16349880128512,-115.6066639290317 110.83337178236299,-118.1066639290317 110.16349880128524,-120.60666392903174 108.33337178236309,-122.436790947954 105.83337178236309,-123.10666392903187 103.33337178236305,-122.43679094795412 101.50324476344079,-120.60666392903197 100.83337178236292,-118.10666392903197 101.50324476344066,-115.60666392903192 103.33337178236282,-113.77653691010967 105.83337178236282,-113.1066639290318" stroke="#ffa500" stroke-linecap="round" stroke-linejoin="round"/><polyline fill="none" points="174.8457708050851,-54.247368318903234 177.34577080508512,-54.91724129998098 179.1758978240074,-56.747368318903135 179.84577080508527,-59.247368318903135 179.17589782400754,-61.74736831890317 177.34577080508538,-63.577495337825425 174.84577080508538,-64.24736831890331 172.34577080508535,-63.57749533782557 170.51564378616308,-61.74736831890341 169.8457708050852,-59.24736831890341 170.51564378616294,-56.74736831890337 172.3457708050851,-54.91724129998111 174.8457708050851,-54.24736831890323" stroke="#00f" stroke-linecap="round" stroke-linejoin="round"/><polyline fill="none" points="52.94143577152128,-16.846925836714465 55.44143577152131,-17.516798817792207 57.271562790443575,-19.346925836714362 57.941435771521455,-21.846925836714362 57.27156279044372,-24.3469258367144 55.44143577152156,-26.17705285563666 52.94143577152156,-26.846925836714544 50.44143577152152,-26.177052855636802 48.61130875259926,-24.346925836714647 47.94143577152137,-21.846925836714647 48.61130875259911,-19.346925836714608 50.44143577152126,-17.516798817792345 52.94143577152126,-16.846925836714462" stroke="#ffa500" stroke-linecap="round" stroke-linejoin="round"/><polyline fill="none" points="190.01617319141369,25.864666834627283 192.5161731914137,25.194793853549545 194.34630021033598,23.36466683462739 195.01617319141386,20.864666834627386 194.34630021033612,18.364666834627343 192.51617319141397,16.53453981570508 190.01617319141397,15.864666834627194 187.51617319141394,16.53453981570493 185.68604617249167,18.364666834627087 185.01617319141377,20.864666834627087 185.6860461724915,23.36466683462713 187.51617319141366,25.194793853549395 190.01617319141366,25.864666834627283" stroke="#ffa500" stroke-linecap="round" stroke-linejoin="round"/><polyline fill="none" points="-12.488838868525026,-116.26513908926901 -9.988838868524983,-116.93501207034674 -8.158711849602717,-118.7651390892689 -7.488838868524828,-121.2651390892689 -8.158711849602565,-123.76513908926894 -9.988838868524718,-125.59526610819121 -12.48883886852472,-126.2651390892691 -14.988838868524763,-125.59526610819137 -16.81896588744703,-123.76513908926921 -17.48883886852492,-121.26513908926921 -16.818965887447185,-118.76513908926917 -14.988838868525033,-116.9350120703469 -12.488838868525031,-116.26513908926901" stroke="#ffa500" stroke-linecap="round" stroke-linejoin="round"/><polyline fill="none" points="205.11043458165926,-63.65422514548737 207.61043458165932,-64.3240981265651 209.4405616005816,-66.15422514548726 210.1104345816595,-68.65422514548726 209.44056160058176,-71.1542251454873 207.6104345816596,-72.98435216440957 205.1104345816596,-73.65422514548746 202.61043458165955,-72.98435216440973 200.78030756273728,-71.15422514548757 200.11043458165938,-68.65422514548757 200.7803075627371,-66.15422514548753 202.61043458165926,-64.32409812656526 205.11043458165926,-63.654225145487366" stroke="#ffa500" stroke-linecap="round" stroke-linejoin="round"/><polyline fill="none" points="65.65007672156766,-58.33146161186009 68.1500767215677,-59.00133459293782 69.98020374048997,-60.83146161185997 70.65007672156787,-63.33146161185997 69.98020374049014,-65.83146161186002 68.15007672156798,-67.66158863078229 65.65007672156798,-68.33146161186019 63.15007672156794,-67.66158863078246 61.31994970264567,-65.8314616118603 60.65007672156778,-63.331461611860306 61.31994970264551,-60.83146161186026 63.15007672156766,-59.001334592937994 65.65007672156766,-58.3314616118601" stroke="#ffa500" stroke-linecap="round" stroke-linejoin="round"/><polyline fill="none" points="166.0492500069502,-61.7490368386091 168.54925000695025,-62.41890981968683 170.37937702587251,-64.24903683860899 171.04925000695042,-66.74903683860899 170.37937702587269,-69.24903683860903 168.54925000695053,-71.0791638575313 166.04925000695053,-71.7490368386092 163.54925000695047,-71.07916385753147 161.7191229880282,-69.24903683860931 161.0492500069503,-66.74903683860931 161.71912298802803,-64.24903683860927 163.5492500069502,-62.418909819686995 166.0492500069502,-61.74903683860909" stroke="#008000" stroke-linecap="round" stroke-linejoin="round"/><polyline fill="none" points="145.49254864876002,70.0862104710321 147.99254864876008,69.41633748995437 149.82267566768235,67.58621047103222 150.49254864876025,65.08621047103222 149.82267566768252,62.58621047103217 147.99254864876036,60.75608345210989 145.49254864876036,60.08621047103199 142.9925486487603,60.75608345210971 141.16242162983804,62.58621047103186 140.49254864876013,65.08621047103186 141.16242162983787,67.5862104710319 142.99254864876002,69.41633748995417 145.49254864876002,70.08621047103208" stroke="#ffa500" stroke-linecap="round" stroke-linejoin="round"/><polyline fill="none" points="96.40882114822692,52.785830947882815 98.90882114822696,52.11595796680509 100.73894816714925,50.28583094788294 101.40882114822715,47.78583094788294 100.73894816714942,45.28583094788289 98.90882114822728,43.45570392896062 96.40882114822728,42.785830947882715 93.90882114822722,43.45570392896044 92.07869412930494,45.28583094788259 91.40882114822703,47.78583094788259 92.07869412930475,50.28583094788264 93.90882114822689,52.11595796680491 96.40882114822689,52.785830947882815" stroke="#ffa500" stroke-linecap="round" stroke-linejoin="round"/><polyline fill="none" points="46.52745020892973,-51.261249824147164 49.02745020892978,-51.93112280522489 50.857577227852055,-53.761249824147036 51.52745020892996,-56.261249824147036 50.85757722785224,-58.761249824147086 49.02745020893009,-60.59137684306937 46.52745020893009,-61.26124982414728 44.02745020893004,-60.591376843069554 42.19732319000776,-58.761249824147406 41.52745020892985,-56.261249824147406 42.19732319000757,-53.761249824147356 44.027450208929714,-51.93112280522507 46.527450208929714,-51.261249824147164" stroke="#ffa500" stroke-linecap="round" stroke-linejoin="round"/><polyline fill="none" points="-282.9490547415793,165.43179166395464 -280.44905474157923,164.7619186828769 -278.61892772265696,162.93179166395475 -277.94905474157906,160.43179166395475 -278.6189277226568,157.9317916639547 -280.44905474157895,156.10166464503243 -282.94905474157895,155.43179166395453 -285.449054741579,156.10166464503226 -287.2791817605013,157.9317916639544 -287.9490547415792,160.4317916639544 -287.27918176050144,162.93179166395447 -285.4490547415793,164.76191868287674 -282.9490547415793,165.43179166395464" stroke="#ffa500" stroke-linecap="round" stroke-linejoin="round"/><polyline fill="none" points="119.67305972704628,-101.05102016480917 122.17305972704634,-101.72089314588689 124.00318674596862,-103.55102016480903 124.67305972704654,-106.05102016480903 124.00318674596882,-108.55102016480909 122.17305972704668,-110.38114718373137 119.67305972704668,-111.05102016480929 117.17305972704662,-110.38114718373157 115.34293270812434,-108.55102016480943 114.67305972704642,-106.05102016480943 115.34293270812414,-103.55102016480937 117.17305972704628,-101.72089314588709 119.67305972704628,-101.05102016480917" stroke="#ffa500" stroke-linecap="round" stroke-linejoin="round"/><polyline fill="none" points="66.60336787939644,14.93858731529195 69.1033678793965,14.268714334214234 70.93349489831878,12.438587315292093 71.6033678793967,9.938587315292091 70.93349489831898,7.438587315292036 69.10336787939684,5.608460296369749 66.60336787939684,4.938587315291835 64.10336787939679,5.60846029636955 62.273240860474495,7.4385873152916915 61.60336787939658,9.938587315291693 62.273240860474296,12.438587315291748 64.10336787939643,14.268714334214035 66.60336787939643,14.93858731529195" stroke="#ffa500" stroke-linecap="round" stroke-linejoin="round"/><polyline fill="none" points="226.61656591616716,-21.74514355596644 229.11656591616722,-22.415016537044153 230.94669293508952,-24.245143555966294 231.61656591616742,-26.745143555966294 230.94669293508971,-29.24514355596635 229.1165659161676,-31.07527057488864 226.6165659161676,-31.745143555966557 224.11656591616753,-31.075270574888844 222.28643889724523,-29.245143555966703 221.6165659161673,-26.7451435559667 222.286438897245,-24.245143555966642 224.11656591616713,-22.41501653704435 226.61656591616713,-21.745143555966433" stroke="#ffa500" stroke-linecap="round" stroke-linejoin="round"/><polyline fill="none" points="83.0481667255649,-69.02048815501756 85.54816672556495,-69.69036113609528 87.37829374448725,-71.52048815501742 88.04816672556517,-74.02048815501742 87.37829374448745,-76.52048815501747 85.54816672556531,-78.35061517393977 83.04816672556531,-79.02048815501769 80.54816672556525,-78.35061517393997 78.71803970664295,-76.52048815501783 78.04816672556504,-74.02048815501783 78.71803970664276,-71.52048815501777 80.5481667255649,-69.69036113609548 83.0481667255649,-69.02048815501756" stroke="#00f" stroke-linecap="round" stroke-linejoin="round"/><polyline fill="none" points="108.36838309567439,71.76435517031334 110.86838309567445,71.09448218923563 112.69851011459674,69.2643551703135 113.36838309567466,66.7643551703135 112.69851011459696,64.26435517031344 110.86838309567482,62.434228151391146 108.36838309567482,61.76435517031322 105.86838309567476,62.43422815139093 104.03825607675246,64.26435517031307 103.36838309567455,66.76435517031307 104.03825607675225,69.26435517031312 105.86838309567439,71.09448218923542 108.36838309567439,71.76435517031335" stroke="#ffa500" stroke-linecap="round" stroke-linejoin="round"/><polyline fill="none" points="27.807485704179317,-46.54039188993209 30.307485704179378,-47.2102648710098 32.137612723101675,-49.04039188993193 32.8074857041796,-51.54039188993193 32.13761272310189,-54.04039188993199 30.307485704179754,-55.87051890885429 27.807485704179754,-56.54039188993221 25.307485704179694,-55.87051890885451 23.477358685257396,-54.04039188993237 22.80748570417947,-51.54039188993237 23.477358685257176,-49.04039188993231 25.30748570417931,-47.21026487101001 27.807485704179314,-46.54039188993209" stroke="#ffa500" stroke-linecap="round" stroke-linejoin="round"/><polyline fill="none" points="53.9270657680436,-105.72222109857124 56.42706576804366,-106.39209407964894 58.25719278696596,-108.22222109857108 58.92706576804389,-110.72222109857108 58.257192786966186,-113.22222109857114 56.42706576804405,-115.05234811749344 53.92706576804405,-115.72222109857137 51.42706576804399,-115.05234811749366 49.59693874912169,-113.22222109857152 48.92706576804376,-110.72222109857152 49.59693874912146,-108.22222109857147 51.4270657680436,-106.39209407964917 53.9270657680436,-105.72222109857124" stroke="#ffa500" stroke-linecap="round" stroke-linejoin="round"/><polyline fill="none" points="-308.27708441669665,199.3320819648015 -305.7770844166966,198.6622089837238 -303.94695739777427,196.83208196480166 -303.27708441669637,194.33208196480166 -303.94695739777404,191.8320819648016 -305.7770844166962,190.0019549458793 -308.2770844166962,189.33208196480138 -310.77708441669625,190.00195494587908 -312.6072114356186,191.8320819648012 -313.27708441669654,194.3320819648012 -312.60721143561886,196.83208196480126 -310.7770844166967,198.66220898372356 -308.2770844166967,199.3320819648015" stroke="#ffa500" stroke-linecap="round" stroke-linejoin="round"/><polyline fill="none" points="209.1270384411975,-24.39924151394721 211.62703844119756,-25.06911449502491 213.45716546011985,-26.89924151394704 214.12703844119778,-29.39924151394704 213.45716546012008,-31.899241513947103 211.62703844119795,-33.72936853286941 209.12703844119795,-34.39924151394734 206.6270384411979,-33.72936853286964 204.7969114222756,-31.899241513947512 204.12703844119767,-29.39924151394751 204.79691142227537,-26.899241513947445 206.6270384411975,-25.06911449502514 209.1270384411975,-24.399241513947207" stroke="#ffa500" stroke-linecap="round" stroke-linejoin="round"/><polyline fill="none" points="121.90768985823784,59.631299701216584 124.40768985823792,58.96142672013889 126.23781687716023,57.131299701216754 126.90768985823816,54.631299701216754 126.23781687716045,52.13129970121669 124.40768985823833,50.301172682294386 121.90768985823833,49.63129970121645 119.40768985823826,50.301172682294144 117.57756283931595,52.13129970121627 116.90768985823802,54.63129970121627 117.5775628393157,57.131299701216335 119.40768985823783,58.96142672013864 121.90768985823783,59.63129970121658" stroke="#ffa500" stroke-linecap="round" stroke-linejoin="round"/><polyline fill="none" points="71.244254401781,-115.41030401617328 73.74425440178108,-116.08017699725097 75.57438142070339,-117.9103040161731 76.24425440178133,-120.4103040161731 75.57438142070365,-122.91030401617317 73.74425440178152,-124.74043103509548 71.24425440178152,-125.41030401617343 68.74425440178145,-124.74043103509574 66.91412738285914,-122.91030401617361 66.24425440178119,-120.41030401617361 66.91412738285888,-117.91030401617354 68.744254401781,-116.08017699725123 71.244254401781,-115.41030401617328" stroke="#ffa500" stroke-linecap="round" stroke-linejoin="round"/><polyline fill="none" points="140.6885410700693,29.590549852044784 143.18854107006936,28.920676870967092 145.01866808899166,27.090549852044965 145.6885410700696,24.590549852044965 145.0186680889919,22.090549852044898 143.18854107006976,20.260422833122586 140.68854107006976,19.590549852044646 138.1885410700697,20.260422833122337 136.3584140511474,22.090549852044465 135.68854107006948,24.590549852044468 136.35841405114718,27.09054985204454 138.1885410700693,28.92067687096685 140.6885410700693,29.59054985204479" stroke="#ffa500" stroke-linecap="round" stroke-linejoin="round"/><polyline fill="none" points="56.60872179325482,48.62147584682598 59.108721793254894,47.95160286574829 60.938848812177206,46.121475846826165 61.60872179325515,43.621475846826165 60.93884881217746,41.121475846826094 59.108721793255334,39.29134882790378 56.608721793255334,38.62147584682584 54.10872179325526,39.291348827903526 52.27859477433295,41.12147584682565 51.60872179325501,43.62147584682565 52.278594774332696,46.121475846825724 54.10872179325482,47.951602865748036 56.60872179325482,48.62147584682598" stroke="#ffa500" stroke-linecap="round" stroke-linejoin="round"/><polyline fill="none" points="-1.9718953452965526,-165.0009154182225 0.5281046547035184,-165.67078839930016 2.358231673625833,-167.5009154182223 3.0281046547037787,-170.0009154182223 2.3582316736260918,-172.50091541822238 0.5281046547039667,-174.3310424371447 -1.971895345296035,-175.00091541822266 -4.471895345296106,-174.331042437145 -6.302022364218422,-172.50091541822286 -6.971895345296368,-170.00091541822286 -6.302022364218682,-167.50091541822277 -4.4718953452965575,-165.67078839930045 -1.9718953452965557,-165.0009154182225" stroke="#ffa500" stroke-linecap="round" stroke-linejoin="round"/><polyline fill="none" points="198.4208876808121,-46.59724402608994 200.92088768081217,-47.26711700716763 202.7510146997345,-49.097244026089754 203.42088768081246,-51.597244026089754 202.75101469973478,-54.097244026089825 200.92088768081265,-55.927371045012144 198.42088768081265,-56.597244026090095 195.92088768081257,-55.927371045012414 194.09076066189024,-54.09724402609029 193.42088768081229,-51.59724402609029 194.09076066188996,-49.097244026090216 195.9208876808121,-47.2671170071679 198.4208876808121,-46.597244026089946" stroke="#ffa500" stroke-linecap="round" stroke-linejoin="round"/><polyline fill="none" points="143.72159522504504,-150.7377080616828 146.22159522504512,-151.40758104276048 148.05172224396745,-153.2377080616826 148.7215952250454,-155.7377080616826 148.05172224396773,-158.2377080616827 146.2215952250456,-160.06783508060502 143.7215952250456,-160.73770806168298 141.22159522504552,-160.0678350806053 139.3914682061232,-158.23770806168318 138.72159522504523,-155.73770806168318 139.3914682061229,-153.2377080616831 141.22159522504504,-151.40758104276077 143.72159522504504,-150.7377080616828" stroke="#ffa500" stroke-linecap="round" stroke-linejoin="round"/><polyline fill="none" points="58.83575398239507,-1.175360077301864 61.33575398239515,-1.8452330583795449 63.165881001317466,-3.675360077301667 63.83575398239542,-6.175360077301669 63.165881001317736,-8.675360077301743 61.335753982395616,-10.505487096224066 58.835753982395616,-11.17536007730202 56.33575398239554,-10.505487096224341 54.50562696347321,-8.67536007730222 53.835753982395254,-6.1753600773022175 54.505626963472935,-3.675360077302141 56.335753982395055,-1.8452330583798175 58.835753982395055,-1.1753600773018613" stroke="#ffa500" stroke-linecap="round" stroke-linejoin="round"/><polyline fill="none" points="50.561671085381676,30.262283642773486 53.061671085381754,29.59241066169581 54.89179810430408,27.76228364277369 55.56167108538204,25.262283642773685 54.89179810430436,22.762283642773607 53.06167108538224,20.93215662385128 50.56167108538224,20.262283642773323 48.06167108538216,20.932156623851 46.23154406645983,22.76228364277312 45.561671085381874,25.262283642773124 46.23154406645955,27.762283642773202 48.06167108538167,29.592410661695528 50.56167108538167,30.262283642773486" stroke="#ffa500" stroke-linecap="round" stroke-linejoin="round"/><polyline fill="none" points="137.4858679681394,-58.561023715423204 139.98586796813947,-59.23089669650088 141.8159949870618,-61.061023715423 142.48586796813976,-63.561023715423 141.81599498706208,-66.06102371542308 139.98586796813996,-67.8911507343454 137.48586796813996,-68.56102371542336 134.98586796813987,-67.89115073434569 133.15574094921755,-66.06102371542357 132.4858679681396,-63.56102371542357 133.15574094921726,-61.061023715423495 134.9858679681394,-59.23089669650117 137.4858679681394,-58.56102371542321" stroke="#008000" stroke-linecap="round" stroke-linejoin="round"/><polyline fill="none" points="-263.252411245505,173.24396067589373 -260.75241124550496,172.57408769481606 -258.92228422658263,170.74396067589393 -258.2524112455047,168.24396067589393 -258.92228422658235,165.74396067589385 -260.75241124550445,163.91383365697152 -263.25241124550445,163.24396067589356 -265.7524112455045,163.91383365697124 -267.58253826442683,165.74396067589336 -268.2524112455048,168.24396067589336 -267.5825382644271,170.74396067589345 -265.752411245505,172.57408769481577 -263.252411245505,173.24396067589373" stroke="#ffa500" stroke-linecap="round" stroke-linejoin="round"/><polyline fill="none" points="-296.8552977205388,183.22259064290768 -294.3552977205387,182.55271766183 -292.5251707016164,180.72259064290787 -291.85529772053843,178.22259064290787 -292.5251707016161,175.7225906429078 -294.3552977205382,173.89246362398546 -296.8552977205382,173.2225906429075 -299.35529772053826,173.89246362398518 -301.1854247394606,175.7225906429073 -301.85529772053854,178.2225906429073 -301.18542473946087,180.7225906429074 -299.3552977205388,182.55271766182972 -296.8552977205388,183.22259064290768" stroke="#00f" stroke-linecap="round" stroke-linejoin="round"/><polyline fill="none" points="179.4837161603369,43.305733944356994 181.983716160337,42.63586096327933 183.81384317925932,40.805733944357215 184.48371616033728,38.305733944357215 183.8138431792596,35.80573394435714 181.98371616033748,33.9756069254348 179.48371616033748,33.30573394435684 176.9837161603374,33.975606925434505 175.15358914141507,35.80573394435662 174.4837161603371,38.30573394435662 175.15358914141478,40.8057339443567 176.9837161603369,42.635860963279036 179.4837161603369,43.305733944357" stroke="#ffa500" stroke-linecap="round" stroke-linejoin="round"/><polyline fill="none" points="74.22753323756918,-96.46758090366333 76.72753323756926,-97.137453884741 78.5576602564916,-98.96758090366312 79.22753323756957,-101.46758090366312 78.55766025649191,-103.9675809036632 76.7275332375698,-105.79770792258554 74.2275332375698,-106.46758090366352 71.72753323756972,-105.79770792258586 69.89740621864738,-103.96758090366374 69.2275332375694,-101.46758090366374 69.89740621864706,-98.96758090366366 71.72753323756918,-97.13745388474132 74.22753323756918,-96.46758090366335" stroke="#00f" stroke-linecap="round" stroke-linejoin="round"/><polyline fill="none" points="81.00379980001995,3.109675354889024 83.50379980002003,2.4398023738113594 85.33392681894237,0.6096753548892471 86.00379980002035,-1.8903246451107552 85.33392681894269,-4.39032464511084 83.50379980002057,-6.2204516640331775 81.00379980002057,-6.890324645111151 78.50379980002049,-6.2204516640334875 76.67367278109815,-4.390324645111376 76.00379980002018,-1.890324645111375 76.67367278109784,0.6096753548887097 78.50379980001995,2.4398023738110486 81.00379980001995,3.109675354889023" stroke="#00f" stroke-linecap="round" stroke-linejoin="round"/><polyline fill="none" points="190.8044445954257,5.3530061805359646 193.3044445954258,4.683133199458302 195.13457161434812,2.853006180536191 195.8044445954261,0.35300618053618926 195.13457161434843,-2.1469938194638964 193.30444459542633,-3.977120838386237 190.80444459542633,-4.646993819464213 188.30444459542625,-3.9771208383865524 186.4743175765039,-2.1469938194644422 185.8044445954259,0.35300618053555954 186.47431757650358,2.853006180535646 188.30444459542568,4.683133199457988 190.80444459542568,5.353006180535965" stroke="#00f" stroke-linecap="round" stroke-linejoin="round"/><polyline fill="none" points="119.17113624156114,-42.48863020978841 121.67113624156123,-43.15850319086607 123.50126326048357,-44.988630209788184 124.17113624156154,-47.488630209788184 123.50126326048388,-49.98863020978827 121.67113624156177,-51.81875722871061 119.17113624156177,-52.48863020978859 116.67113624156168,-51.81875722871093 114.84100922263934,-49.98863020978882 114.17113624156137,-47.48863020978882 114.84100922263903,-44.98863020978874 116.67113624156114,-43.15850319086639 119.17113624156114,-42.48863020978841" stroke="#ffa500" stroke-linecap="round" stroke-linejoin="round"/><polyline fill="none" points="163.7722138585441,30.31619102482054 166.27221385854418,29.646318043742884 168.10234087746653,27.816191024820775 168.77221385854452,25.316191024820775 168.10234087746687,22.816191024820686 166.27221385854477,20.986064005898342 163.77221385854477,20.316191024820363 161.2722138585447,20.98606400589802 159.44208683962233,22.816191024820125 158.77221385854435,25.316191024820125 159.442086839622,27.816191024820213 161.2722138585441,29.64631804374256 163.7722138585441,30.316191024820544" stroke="#ffa500" stroke-linecap="round" stroke-linejoin="round"/><polyline fill="none" points="-25.536319304230418,-134.0920142206986 -23.03631930423033,-134.76188720177623 -21.20619228530798,-136.59201422069833 -20.53631930423,-139.09201422069833 -21.20619228530765,-141.59201422069842 -23.036319304229757,-143.42214123962077 -25.536319304229757,-144.09201422069876 -28.036319304229846,-143.4221412396211 -29.866446323152193,-141.592014220699 -30.536319304230176,-139.092014220699 -29.866446323152523,-136.59201422069893 -28.036319304230418,-134.76188720177657 -25.536319304230418,-134.0920142206986" stroke="#ffa500" stroke-linecap="round" stroke-linejoin="round"/><polyline fill="none" points="194.18177850268793,-14.93668462775489 196.68177850268802,-15.606557608832542 198.51190552161037,-17.436684627754648 199.18177850268836,-19.93668462775465 198.51190552161071,-22.436684627754744 196.68177850268862,-24.266811646677095 194.18177850268862,-24.93668462775508 191.68177850268853,-24.26681164667743 189.85165148376618,-22.436684627755323 189.1817785026882,-19.93668462775532 189.85165148376583,-17.436684627755227 191.68177850268793,-15.606557608832876 194.18177850268793,-14.936684627754888" stroke="#ffa500" stroke-linecap="round" stroke-linejoin="round"/><polyline fill="none" points="136.1250047034906,-98.3312078401141 138.62500470349067,-99.00108082119175 140.45513172241303,-100.83120784011385 141.12500470349102,-103.33120784011385 140.45513172241337,-105.83120784011395 138.62500470349127,-107.6613348590363 136.12500470349127,-108.33120784011429 133.6250047034912,-107.66133485903664 131.79487768456883,-105.83120784011454 131.12500470349084,-103.33120784011454 131.7948776845685,-100.83120784011444 133.6250047034906,-99.00108082119209 136.1250047034906,-98.3312078401141" stroke="#ffa500" stroke-linecap="round" stroke-linejoin="round"/><polyline fill="none" points="33.99528207688199,-11.509168072146117 36.495282076882084,-12.179041053223765 38.32540909580444,-14.009168072145867 38.99528207688243,-16.50916807214587 38.32540909580479,-19.00916807214596 36.49528207688268,-20.839295091068315 33.99528207688268,-21.50916807214631 31.49528207688259,-20.839295091068664 29.665155057960234,-19.00916807214656 28.99528207688224,-16.509168072146558 29.665155057959886,-14.009168072146464 31.49528207688199,-12.17904105322411 33.99528207688199,-11.509168072146117" stroke="#ffa500" stroke-linecap="round" stroke-linejoin="round"/><polyline fill="none" points="152.01702961162144,50.68914678661097 154.51702961162152,50.019273805533324 156.34715663054388,48.189146786611225 157.01702961162187,45.689146786611225 156.34715663054422,43.18914678661113 154.51702961162212,41.35901976768878 152.01702961162212,40.689146786610785 149.51702961162204,41.35901976768843 147.68690259269968,43.18914678661053 147.0170296116217,45.68914678661053 147.68690259269934,48.18914678661062 149.51702961162144,50.019273805532976 152.01702961162144,50.68914678661097" stroke="#00f" stroke-linecap="round" stroke-linejoin="round"/><polyline fill="none" points="116.36953141632671,40.255322041288004 118.86953141632681,39.58544906021036 120.69965843524916,37.75532204128826 121.36953141632716,35.25532204128826 120.69965843524952,32.75532204128817 118.86953141632742,30.92519502236581 116.36953141632742,30.255322041287812 113.86953141632732,30.925195022365454 112.03940439740497,32.755322041287556 111.36953141632696,35.255322041287556 112.03940439740461,37.755322041287656 113.86953141632671,39.58544906021002 116.36953141632671,40.25532204128802" stroke="#00f" stroke-linecap="round" stroke-linejoin="round"/><polyline fill="none" points="103.27949311334874,-92.42242722721411 105.77949311334883,-93.09230020829176 107.60962013227119,-94.92242722721386 108.27949311334919,-97.42242722721386 107.60962013227154,-99.92242722721396 105.77949311334945,-101.75255424613631 103.27949311334945,-102.42242722721431 100.77949311334935,-101.75255424613667 98.94936609442698,-99.92242722721457 98.27949311334898,-97.42242722721457 98.94936609442662,-94.92242722721447 100.77949311334872,-93.0923002082921 103.27949311334872,-92.4224272272141" stroke="#ffa500" stroke-linecap="round" stroke-linejoin="round"/><polyline fill="none" points="187.70269509263792,-71.9886526540772 190.202695092638,-72.65852563515485 192.03282211156036,-74.48865265407694 192.70269509263838,-76.98865265407694 192.03282211156073,-79.48865265407704 190.20269509263863,-81.31877967299941 187.70269509263863,-81.98865265407741 185.20269509263855,-81.31877967299977 183.3725680737162,-79.48865265407767 182.70269509263818,-76.98865265407767 183.37256807371583,-74.48865265407757 185.20269509263792,-72.6585256351552 187.70269509263792,-71.9886526540772" stroke="#ffa500" stroke-linecap="round" stroke-linejoin="round"/><polyline fill="none" points="159.61373113551093,-55.378299425826064 162.11373113551105,-56.0481724069037 163.9438581544334,-57.8782994258258 164.61373113551142,-60.3782994258258 163.94385815443377,-62.8782994258259 162.11373113551167,-64.70842644474827 159.61373113551167,-65.37829942582627 157.11373113551156,-64.70842644474864 155.2836041165892,-62.87829942582654 154.6137311355112,-60.37829942582654 155.28360411658883,-57.87829942582644 157.11373113551093,-56.04817240690407 159.61373113551093,-55.378299425826064" stroke="#008000" stroke-linecap="round" stroke-linejoin="round"/><polyline fill="none" points="20.87750548037652,-27.079589853692262 23.377505480376623,-27.749462834769897 25.20763249929899,-29.579589853691992 25.877505480377,-32.07958985369199 25.207632499299365,-34.57958985369209 23.37750548037727,-36.40971687261446 20.877505480377266,-37.07958985369247 18.377505480377163,-36.40971687261484 16.547378461454795,-34.579589853692745 15.877505480376787,-32.079589853692745 16.54737846145442,-29.579589853692642 18.377505480376517,-27.749462834770274 20.87750548037652,-27.079589853692266" stroke="#ffa500" stroke-linecap="round" stroke-linejoin="round"/><polyline fill="none" points="54.38513238892429,-85.04378949801122 56.88513238892439,-85.71366247908885 58.71525940784676,-87.54378949801095 59.38513238892477,-90.04378949801095 58.715259407847135,-92.54378949801105 56.885132388925044,-94.37391651693342 54.385132388925044,-95.04378949801144 51.88513238892494,-94.3739165169338 50.05500537000257,-92.5437894980117 49.38513238892456,-90.0437894980117 50.05500537000219,-87.5437894980116 51.88513238892428,-85.71366247908924 54.38513238892428,-85.04378949801122" stroke="#ffa500" stroke-linecap="round" stroke-linejoin="round"/><polyline fill="none" points="150.13238542399546,-53.07563495203731 152.63238542399557,-53.74550793311494 154.46251244291796,-55.575634952037035 155.13238542399597,-58.075634952037035 154.46251244291835,-60.57563495203714 152.63238542399625,-62.40576197095952 150.13238542399625,-63.07563495203753 147.63238542399614,-62.4057619709599 145.80225840507376,-60.57563495203781 145.13238542399574,-58.07563495203781 145.80225840507336,-55.5756349520377 147.63238542399546,-53.74550793311533 150.13238542399546,-53.07563495203731" stroke="#00f" stroke-linecap="round" stroke-linejoin="round"/><polyline fill="none" points="134.76024316281277,-35.95087440908936 137.26024316281288,-36.62074739016699 139.09037018173527,-38.45087440908908 139.76024316281328,-40.95087440908908 139.09037018173566,-43.45087440908919 137.26024316281357,-45.281001428011564 134.76024316281357,-45.95087440908958 132.26024316281345,-45.281001428011955 130.43011614389107,-43.45087440908986 129.76024316281305,-40.95087440908986 130.43011614389067,-38.45087440908976 132.26024316281277,-36.62074739016738 134.76024316281277,-35.950874409089366" stroke="#f00" stroke-linecap="round" stroke-linejoin="round"/><polyline fill="none" points="175.92835113119355,-112.74355389356636 178.42835113119366,-113.41342687464399 180.25847815011605,-115.24355389356607 180.92835113119406,-117.74355389356607 180.25847815011645,-120.24355389356617 178.42835113119435,-122.07368091248856 175.92835113119435,-122.74355389356657 173.42835113119423,-122.07368091248895 171.59822411227185,-120.24355389356687 170.92835113119384,-117.74355389356687 171.59822411227145,-115.24355389356677 173.42835113119355,-113.41342687464439 175.92835113119355,-112.74355389356637" stroke="#ffa500" stroke-linecap="round" stroke-linejoin="round"/><polyline fill="none" points="104.1738910457139,-51.918089677884076 106.67389104571402,-52.5879626589617 108.5040180646364,-54.418089677883785 109.17389104571441,-56.918089677883785 108.5040180646368,-59.41808967788389 106.67389104571471,-61.24821669680627 104.17389104571471,-61.91808967788429 101.6738910457146,-61.248216696806665 99.84376402679221,-59.41808967788458 99.17389104571419,-56.91808967788458 99.8437640267918,-54.418089677884474 101.67389104571389,-52.58796265896209 104.17389104571389,-51.91808967788407" stroke="#008000" stroke-linecap="round" stroke-linejoin="round"/><polyline fill="none" points="-288.9480905270128,201.6736867954241 -286.4480905270127,201.00381381434647 -284.6179635080903,199.17368679542437 -283.9480905270123,196.67368679542437 -284.61796350808993,194.17368679542426 -286.448090527012,192.34355977650188 -288.948090527012,191.67368679542386 -291.44809052701214,192.34355977650148 -293.2782175459345,194.17368679542358 -293.94809052701254,196.67368679542358 -293.2782175459349,199.1736867954237 -291.4480905270128,201.00381381434607 -288.9480905270128,201.6736867954241" stroke="#ffa500" stroke-linecap="round" stroke-linejoin="round"/><polyline fill="none" points="98.31874834311485,-2.8354555683762213 100.81874834311496,-3.5053285494538384 102.64887536203734,-5.335455568375923 103.31874834311537,-7.835455568375924 102.64887536203776,-10.335455568376034 100.81874834311567,-12.165582587298418 98.31874834311567,-12.835455568376446 95.81874834311556,-12.16558258729883 93.98862132419318,-10.335455568376746 93.31874834311515,-7.835455568376745 93.98862132419276,-5.335455568376634 95.81874834311485,-3.5053285494542488 98.31874834311485,-2.8354555683762204" stroke="#008000" stroke-linecap="round" stroke-linejoin="round"/><polyline fill="none" points="163.16776865172974,-144.7612510857833 165.66776865172986,-145.43112406686092 167.49789567065224,-147.261251085783 168.16776865173026,-149.761251085783 167.49789567065264,-152.2612510857831 165.66776865173057,-154.09137810470548 163.16776865173057,-154.76125108578353 160.66776865173046,-154.0913781047059 158.83764163280807,-152.26125108578384 158.16776865173003,-149.76125108578384 158.83764163280765,-147.26125108578373 160.66776865172972,-145.43112406686134 163.16776865172972,-144.7612510857833" stroke="#ffa500" stroke-linecap="round" stroke-linejoin="round"/><polyline fill="none" points="-8.829167938634,-145.62379544251326 -6.329167938633887,-146.29366842359087 -4.499040919711498,-148.12379544251294 -3.829167938633466,-150.62379544251294 -4.499040919711078,-153.12379544251306 -6.32916793863316,-154.95392246143544 -8.82916793863316,-155.62379544251348 -11.329167938633276,-154.95392246143587 -13.159294957555666,-153.1237954425138 -13.829167938633699,-150.6237954425138 -13.159294957556089,-148.12379544251368 -11.329167938634008,-146.2936684235913 -8.829167938634006,-145.62379544251326" stroke="#00f" stroke-linecap="round" stroke-linejoin="round"/><polyline fill="none" points="178.10503025292854,-30.969075449534294 180.60503025292866,-31.638948430611904 182.43515727185104,-33.46907544953399 183.10503025292908,-35.96907544953399 182.43515727185147,-38.4690754495341 180.6050302529294,-40.29920246845649 178.1050302529294,-40.96907544953453 175.60503025292928,-40.29920246845692 173.7749032340069,-38.46907544953484 173.10503025292886,-35.96907544953484 173.77490323400647,-33.46907544953473 175.60503025292854,-31.638948430612334 178.10503025292854,-30.969075449534298" stroke="#ffa500" stroke-linecap="round" stroke-linejoin="round"/><polyline fill="none" points="100.33290508516055,-74.10966507649276 102.83290508516066,-74.77953805757036 104.66303210408306,-76.60966507649245 105.3329050851611,-79.10966507649245 104.6630321040835,-81.60966507649256 102.83290508516141,-83.43979209541496 100.33290508516141,-84.109665076493 97.8329050851613,-83.4397920954154 96.0027780662389,-81.60966507649331 95.33290508516086,-79.10966507649331 96.00277806623846,-76.6096650764932 97.83290508516055,-74.7795380575708 100.33290508516055,-74.10966507649276" stroke="#008000" stroke-linecap="round" stroke-linejoin="round"/><polyline fill="none" points="140.02489984207438,50.05869447573984 142.5248998420745,49.38882149466224 144.35502686099687,47.55869447574016 145.02489984207492,45.05869447574016 144.3550268609973,42.55869447574004 142.52489984207523,40.72856745681764 140.02489984207523,40.0586944757396 137.52489984207511,40.7285674568172 135.6947728231527,42.55869447573928 135.02489984207466,45.05869447573928 135.69477282315228,47.5586944757394 137.52489984207435,49.3888214946618 140.02489984207435,50.05869447573984" stroke="#ffa500" stroke-linecap="round" stroke-linejoin="round"/><polyline fill="none" points="100.19145565711321,33.87156463252094 102.69145565711332,33.20169165144334 104.52158267603572,31.371564632521263 105.19145565711376,28.87156463252126 104.52158267603616,26.37156463252114 102.69145565711409,24.541437613598738 100.19145565711409,23.871564632520695 97.69145565711398,24.541437613598298 95.86132863819158,26.371564632520375 95.19145565711354,28.87156463252038 95.86132863819114,31.3715646325205 97.69145565711321,33.2016916514429 100.19145565711321,33.87156463252094" stroke="#ffa500" stroke-linecap="round" stroke-linejoin="round"/><polyline fill="none" points="161.05944052423706,-125.23993568316132 163.55944052423717,-125.90980866423892 165.3895675431596,-127.739935683161 166.05944052423763,-130.239935683161 165.38956754316004,-132.73993568316112 163.55944052423797,-134.57006270208353 161.05944052423797,-135.23993568316158 158.55944052423786,-134.570062702084 156.72931350531545,-132.73993568316192 156.0594405242374,-130.23993568316192 156.729313505315,-127.73993568316179 158.55944052423706,-125.90980866423939 161.05944052423706,-125.23993568316135" stroke="#00f" stroke-linecap="round" stroke-linejoin="round"/><polyline fill="none" points="98.14712458755923,-20.672294977319726 100.64712458755936,-21.342167958397326 102.47725160648176,-23.1722949773194 103.1471245875598,-25.672294977319403 102.4772516064822,-28.172294977319527 100.64712458756013,-30.00242199624193 98.14712458756013,-30.672294977319982 95.64712458756,-30.002421996242383 93.81699756863759,-28.17229497732031 93.14712458755955,-25.672294977320306 93.81699756863715,-23.17229497732018 95.64712458755922,-21.342167958397773 98.14712458755922,-20.672294977319723" stroke="#00f" stroke-linecap="round" stroke-linejoin="round"/><polyline fill="none" points="158.10647370168084,-97.1796771874512 160.60647370168095,-97.84955016852881 162.43660072060337,-99.67967718745088 163.1064737016814,-102.17967718745088 162.43660072060382,-104.679677187451 160.60647370168175,-106.50980420637342 158.10647370168175,-107.17967718745147 155.60647370168164,-106.50980420637389 153.77634668275923,-104.67967718745182 153.10647370168118,-102.17967718745182 153.77634668275877,-99.67967718745169 155.60647370168084,-97.84955016852928 158.10647370168084,-97.17967718745122" stroke="#ffa500" stroke-linecap="round" stroke-linejoin="round"/><polyline fill="none" points="9.180165769525596,-149.05557605364424 11.680165769525722,-149.72544903472183 13.510292788448131,-151.5555760536439 14.180165769526186,-154.0555760536439 13.510292788448591,-156.55557605364402 11.68016576952652,-158.38570307256643 9.180165769526518,-159.05557605364447 6.680165769526392,-158.38570307256688 4.850038750603982,-156.5555760536448 4.180165769525926,-154.0555760536448 4.8500387506035185,-151.5555760536447 6.680165769525589,-149.7254490347223 9.18016576952559,-149.05557605364424" stroke="#ffa500" stroke-linecap="round" stroke-linejoin="round"/><polyline fill="none" points="174.05613324671046,14.586262891104388 176.55613324671057,13.916389910026796 178.38626026563298,12.086262891104726 179.05613324671103,9.586262891104724 178.38626026563344,7.086262891104598 176.55613324671137,5.2561358721821865 174.05613324671137,4.586262891104129 171.55613324671125,5.256135872181719 169.72600622778884,7.086262891103789 169.05613324671077,9.58626289110379 169.72600622778836,12.086262891103917 171.55613324671043,13.91638991002633 174.05613324671043,14.58626289110439" stroke="#00f" stroke-linecap="round" stroke-linejoin="round"/><polyline fill="none" points="120.75683931518206,-71.01613232651347 123.25683931518219,-71.68600530759106 125.0869663341046,-73.51613232651313 125.75683931518266,-76.01613232651313 125.08696633410507,-78.51613232651326 123.256839315183,-80.34625934543567 120.756839315183,-81.01613232651373 118.25683931518287,-80.34625934543614 116.42671229626046,-78.51613232651407 115.7568393151824,-76.01613232651407 116.42671229625999,-73.51613232651394 118.25683931518206,-71.68600530759153 120.75683931518206,-71.01613232651347" stroke="#00f" stroke-linecap="round" stroke-linejoin="round"/><polyline fill="none" points="63.212101808657735,-37.05689395867763 65.71210180865786,-37.726766939755215 67.54222882758027,-39.556893958677286 68.21210180865833,-42.056893958677286 67.54222882758074,-44.55689395867741 65.71210180865867,-46.38702097759983 63.21210180865867,-47.0568939586779 60.712101808658545,-46.38702097760031 58.88197478973613,-44.556893958678245 58.21210180865806,-42.056893958678245 58.881974789735644,-39.55689395867812 60.71210180865771,-37.7267669397557 63.21210180865771,-37.056893958677634" stroke="#00f" stroke-linecap="round" stroke-linejoin="round"/><polyline fill="none" points="-5.178526862478531,-134.43538692698374 -2.678526862478401,-135.10525990806133 -0.8483998435559832,-136.9353869269834 -0.17852686247791794,-139.4353869269834 -0.8483998435555016,-141.93538692698354 -2.678526862477567,-143.76551394590595 -5.178526862477568,-144.43538692698402 -7.6785268624777,-143.76551394590643 -9.508653881400118,-141.93538692698436 -10.178526862478185,-139.43538692698436 -9.508653881400601,-136.93538692698422 -7.678526862478536,-135.1052599080618 -5.1785268624785346,-134.43538692698374" stroke="#ffa500" stroke-linecap="round" stroke-linejoin="round"/><polyline fill="none" points="74.78369020481362,-1.6441786861310108 77.28369020481375,-2.314051667208593 79.11381722373618,-4.144178686130658 79.78369020481425,-6.64417868613066 79.11381722373667,-9.144178686130793 77.2836902048146,-10.974305705053213 74.7836902048146,-11.644178686131282 72.28369020481448,-10.974305705053702 70.45356318589205,-9.144178686131639 69.78369020481398,-6.644178686131637 70.45356318589155,-4.144178686131504 72.28369020481362,-2.314051667209082 74.78369020481362,-1.6441786861310121" stroke="#ffa500" stroke-linecap="round" stroke-linejoin="round"/><polyline fill="none" points="76.22861196155161,58.80983349580861 78.72861196155174,58.13996051473103 80.55873898047416,56.30983349580897 81.22861196155223,53.80983349580897 80.55873898047466,51.30983349580883 78.7286119615526,49.479706476886406 76.2286119615526,48.809833495808334 73.72861196155247,49.479706476885916 71.89848494263005,51.30983349580798 71.22861196155198,53.80983349580798 71.89848494262955,56.309833495808114 73.72861196155161,58.13996051473054 76.22861196155161,58.80983349580861" stroke="#ffa500" stroke-linecap="round" stroke-linejoin="round"/><polyline fill="none" points="40.766351085815735,-32.24175284809499 43.26635108581587,-32.911625829172564 45.096478104738296,-34.74175284809463 45.76635108581637,-37.24175284809463 45.09647810473879,-39.74175284809476 43.26635108581673,-41.57187986701719 40.76635108581673,-42.24175284809526 38.266351085816595,-41.571879867017685 36.43622406689417,-39.74175284809562 35.7663510858161,-37.24175284809562 36.43622406689367,-34.74175284809549 38.266351085815735,-32.91162582917306 40.766351085815735,-32.24175284809499" stroke="#00f" stroke-linecap="round" stroke-linejoin="round"/><polyline fill="none" points="117.48996900506083,0.07036574750352909 119.98996900506097,-0.5995072335740461 121.8200960239834,-2.4296342524961068 122.48996900506147,-4.929634252496109 121.8200960239839,-7.429634252496246 119.98996900506184,-9.259761271418673 117.48996900506184,-9.92963425249675 114.9899690050617,-9.259761271419176 113.15984198613927,-7.429634252497116 112.4899690050612,-4.929634252497113 113.15984198613877,-2.4296342524969763 114.98996900506083,-0.5995072335745477 117.48996900506083,0.07036574750353009" stroke="#00f" stroke-linecap="round" stroke-linejoin="round"/><polyline fill="none" points="162.4122511231591,-41.460134489756285 164.91225112315925,-42.13000747083386 166.7423781420817,-43.960134489755916 167.41225112315976,-46.460134489755916 166.7423781420822,-48.96013448975605 164.91225112316013,-50.79026150867848 162.41225112316013,-51.46013448975656 159.91225112316,-50.79026150867899 158.08212410423755,-48.96013448975693 157.41225112315948,-46.46013448975693 158.08212410423704,-43.9601344897568 159.9122511231591,-42.130007470834364 162.4122511231591,-41.460134489756285" stroke="#00f" stroke-linecap="round" stroke-linejoin="round"/><polyline fill="none" points="-280.57678925230266,184.61451764338452 -278.07678925230255,183.94464466230696 -276.2466622333801,182.1145176433849 -275.57678925230204,179.6145176433849 -276.2466622333796,177.11451764338474 -278.07678925230164,175.2843906244623 -280.57678925230164,174.61451764338423 -283.07678925230175,175.2843906244618 -284.9069162712242,177.11451764338386 -285.57678925230226,179.61451764338386 -284.9069162712247,182.114517643384 -283.07678925230266,183.94464466230644 -280.57678925230266,184.61451764338452" stroke="#ffa500" stroke-linecap="round" stroke-linejoin="round"/><polyline fill="none" points="87.42760794119627,-85.90284192667157 89.92760794119641,-86.57271490774914 91.75773496011885,-88.4028419266712 92.42760794119694,-90.9028419266712 91.75773496011938,-93.40284192667134 89.92760794119732,-95.23296894559378 87.42760794119732,-95.90284192667187 84.92760794119718,-95.23296894559431 83.09748092227474,-93.40284192667225 82.42760794119665,-90.90284192667225 83.09748092227422,-88.40284192667211 84.92760794119627,-86.57271490774967 87.42760794119627,-85.90284192667158" stroke="#00f" stroke-linecap="round" stroke-linejoin="round"/><polyline fill="none" points="73.78013997145105,39.290003156127746 76.28013997145119,38.62013017505018 78.11026699037363,36.79000315612812 78.78013997145172,34.29000315612812 78.11026699037416,31.79000315612798 76.2801399714521,29.959876137205544 73.7801399714521,29.290003156127455 71.28013997145196,29.95987613720502 69.45001295252952,31.79000315612707 68.78013997145143,34.29000315612707 69.450012952529,36.79000315612721 71.28013997145105,38.62013017504965 73.78013997145105,39.29000315612774" stroke="#00f" stroke-linecap="round" stroke-linejoin="round"/><polyline fill="none" points="137.75596802045743,9.882022704387838 140.25596802045757,9.212149723310276 142.08609503938,7.382022704388223 142.7559680204581,4.882022704388222 142.08609503938055,2.382022704388078 140.2559680204585,0.5518956854656378 137.7559680204585,-0.11797729561245363 135.25596802045837,0.5518956854651074 133.42584100153593,2.3820227043871594 132.75596802045783,4.882022704387161 133.4258410015354,7.382022704387305 135.25596802045743,9.212149723309746 137.75596802045743,9.88202270438784" stroke="#00f" stroke-linecap="round" stroke-linejoin="round"/><polyline fill="none" points="117.42353202389825,-17.481692503626334 119.92353202389839,-18.151565484703895 121.75365904282083,-19.981692503625947 122.42353202389893,-22.48169250362595 121.75365904282137,-24.981692503626096 119.92353202389931,-26.81181952254854 117.42353202389931,-27.481692503626633 114.92353202389917,-26.811819522549072 113.09340500497673,-24.981692503627023 112.42353202389863,-22.481692503627023 113.09340500497619,-19.981692503626878 114.92353202389825,-18.151565484704435 117.42353202389825,-17.481692503626338" stroke="#ffa500" stroke-linecap="round" stroke-linejoin="round"/><polyline fill="none" points="121.34801983956442,-88.36991258565902 123.84801983956456,-89.03978556673658 125.678146858487,-90.86991258565864 126.3480198395651,-93.36991258565864 125.67814685848754,-95.86991258565878 123.84801983956548,-97.70003960458122 121.34801983956548,-98.36991258565932 118.84801983956534,-97.70003960458176 117.0178928206429,-95.8699125856597 116.3480198395648,-93.3699125856597 117.01789282064236,-90.86991258565956 118.84801983956442,-89.03978556673712 121.34801983956442,-88.36991258565902" stroke="#00f" stroke-linecap="round" stroke-linejoin="round"/><polyline fill="none" points="174.36179658221792,-85.77757161821151 176.86179658221806,-86.44744459928907 178.6919236011405,-88.27757161821111 179.3617965822186,-90.77757161821111 178.69192360114104,-93.27757161821125 176.861796582219,-95.10769863713371 174.361796582219,-95.77757161821181 171.86179658221886,-95.10769863713425 170.03166956329642,-93.2775716182122 169.36179658221832,-90.7775716182122 170.03166956329588,-88.27757161821206 171.86179658221792,-86.44744459928961 174.36179658221792,-85.77757161821151" stroke="#ffa500" stroke-linecap="round" stroke-linejoin="round"/><line fill="none" stroke="#000" stroke-linecap="round" x1="160.9437744074887" x2="174.8457708050851" y1="-81.77952356029506" y2="-59.247368318903234"/><line fill="none" stroke="#000" stroke-linecap="round" x1="160.9437744074887" x2="190.22858758704933" y1="-81.77952356029506" y2="-96.57065598464051"/><line fill="none" stroke="#000" stroke-linecap="round" x1="160.9437744074887" x2="174.36179658221792" y1="-81.77952356029506" y2="-90.77757161821151"/><line fill="none" stroke="#000" stroke-linecap="round" x1="160.9437744074887" x2="161.05944052423706" y1="-81.77952356029506" y2="-130.23993568316132"/><line fill="none" stroke="#000" stroke-linecap="round" x1="160.9437744074887" x2="158.10647370168084" y1="-81.77952356029506" y2="-102.1796771874512"/><line fill="none" stroke="#000" stroke-linecap="round" x1="81.62628463441547" x2="87.42760794119627" y1="-110.58947503546611" y2="-90.90284192667157"/><line fill="none" stroke="#000" stroke-linecap="round" x1="81.62628463441547" x2="100.33290508516055" y1="-110.58947503546611" y2="-79.10966507649276"/><line fill="none" stroke="#000" stroke-linecap="round" x1="81.62628463441547" x2="74.22753323756918" y1="-110.58947503546611" y2="-101.46758090366333"/><line fill="none" stroke="#000" stroke-linecap="round" x1="81.62628463441547" x2="-8.829167938634" y1="-110.58947503546611" y2="-150.62379544251326"/><line fill="none" stroke="#000" stroke-linecap="round" x1="81.62628463441547" x2="46.319567179772584" y1="-110.58947503546611" y2="-74.78732684914125"/><line fill="none" stroke="#000" stroke-linecap="round" x1="158.41522271338548" x2="174.05613324671046" y1="1.6810150918646238" y2="9.586262891104388"/><line fill="none" stroke="#000" stroke-linecap="round" x1="158.41522271338548" x2="190.8044445954257" y1="1.6810150918646238" y2="0.3530061805359647"/><line fill="none" stroke="#000" stroke-linecap="round" x1="158.41522271338548" x2="117.48996900506083" y1="1.6810150918646238" y2="-4.929634252496471"/><line fill="none" stroke="#000" stroke-linecap="round" x1="158.41522271338548" x2="130.32743017234043" y1="1.6810150918646238" y2="9.814047775435355"/><line fill="none" stroke="#000" stroke-linecap="round" x1="158.41522271338548" x2="205.25401428086226" y1="1.6810150918646238" y2="10.93195864077456"/><line fill="none" stroke="#000" stroke-linecap="round" x1="51.09149693125049" x2="77.00535159351392" y1="2.5299877488162363" y2="-25.76961914413478"/><line fill="none" stroke="#000" stroke-linecap="round" x1="51.09149693125049" x2="81.00379980001995" y1="2.5299877488162363" y2="-1.8903246451109756"/><line fill="none" stroke="#000" stroke-linecap="round" x1="51.09149693125049" x2="63.212101808657735" y1="2.5299877488162363" y2="-42.05689395867763"/><line fill="none" stroke="#000" stroke-linecap="round" x1="51.09149693125049" x2="110.22350196065429" y1="2.5299877488162363" y2="2.7984245102831773"/><line fill="none" stroke="#000" stroke-linecap="round" x1="51.09149693125049" x2="73.78013997145105" y1="2.5299877488162363" y2="34.290003156127746"/><line fill="none" stroke="#000" stroke-linecap="round" x1="94.0432642285952" x2="104.1738910457139" y1="-49.97702512527047" y2="-56.918089677884076"/><line fill="none" stroke="#000" stroke-linecap="round" x1="94.0432642285952" x2="119.17113624156114" y1="-49.97702512527047" y2="-47.48863020978841"/><line fill="none" stroke="#000" stroke-linecap="round" x1="94.0432642285952" x2="120.75683931518206" y1="-49.97702512527047" y2="-76.01613232651347"/><line fill="none" stroke="#000" stroke-linecap="round" x1="94.0432642285952" x2="77.00535159351392" y1="-49.97702512527047" y2="-25.76961914413478"/><line fill="none" stroke="#000" stroke-linecap="round" x1="94.0432642285952" x2="96.81643524826136" y1="-49.97702512527047" y2="-41.41596250011566"/><line fill="none" stroke="#000" stroke-linecap="round" x1="96.81643524826136" x2="63.212101808657735" y1="-41.41596250011566" y2="-42.05689395867763"/><line fill="none" stroke="#000" stroke-linecap="round" x1="96.81643524826136" x2="94.0432642285952" y1="-41.41596250011566" y2="-49.97702512527047"/><line fill="none" stroke="#000" stroke-linecap="round" x1="96.81643524826136" x2="81.00379980001995" y1="-41.41596250011566" y2="-1.8903246451109756"/><line fill="none" stroke="#000" stroke-linecap="round" x1="96.81643524826136" x2="98.14712458755923" y1="-41.41596250011566" y2="-25.672294977319726"/><line fill="none" stroke="#000" stroke-linecap="round" x1="96.81643524826136" x2="117.48996900506083" y1="-41.41596250011566" y2="-4.929634252496471"/><line fill="none" stroke="#000" stroke-linecap="round" x1="122.33598024522507" x2="119.67305972704628" y1="-65.21867268987764" y2="-106.05102016480917"/><line fill="none" stroke="#000" stroke-linecap="round" x1="122.33598024522507" x2="136.62991541994828" y1="-65.21867268987764" y2="-84.36147535439446"/><line fill="none" stroke="#000" stroke-linecap="round" x1="122.33598024522507" x2="136.1250047034906" y1="-65.21867268987764" y2="-103.3312078401141"/><line fill="none" stroke="#000" stroke-linecap="round" x1="122.33598024522507" x2="119.17113624156114" y1="-65.21867268987764" y2="-47.48863020978841"/><line fill="none" stroke="#000" stroke-linecap="round" x1="122.33598024522507" x2="120.75683931518206" y1="-65.21867268987764" y2="-76.01613232651347"/><line fill="none" stroke="#000" stroke-linecap="round" x1="130.32743017234043" x2="58.83575398239507" y1="9.814047775435355" y2="-6.175360077301864"/><line fill="none" stroke="#000" stroke-linecap="round" x1="130.32743017234043" x2="167.369850392766" y1="9.814047775435355" y2="54.939889338151495"/><line fill="none" stroke="#000" stroke-linecap="round" x1="130.32743017234043" x2="103.27949311334874" y1="9.814047775435355" y2="-97.42242722721411"/><line fill="none" stroke="#000" stroke-linecap="round" x1="130.32743017234043" x2="136.63404771405095" y1="9.814047775435355" y2="-14.954626615758887"/><line fill="none" stroke="#000" stroke-linecap="round" x1="130.32743017234043" x2="209.1270384411975" y1="9.814047775435355" y2="-29.39924151394721"/><line fill="none" stroke="#000" stroke-linecap="round" x1="110.22350196065429" x2="134.76024316281277" y1="2.7984245102831773" y2="-40.95087440908936"/><line fill="none" stroke="#000" stroke-linecap="round" x1="110.22350196065429" x2="117.48996900506083" y1="2.7984245102831773" y2="-4.929634252496471"/><line fill="none" stroke="#000" stroke-linecap="round" x1="110.22350196065429" x2="98.31874834311485" y1="2.7984245102831773" y2="-7.835455568376221"/><line fill="none" stroke="#000" stroke-linecap="round" x1="110.22350196065429" x2="174.8457708050851" y1="2.7984245102831773" y2="-59.247368318903234"/><line fill="none" stroke="#000" stroke-linecap="round" x1="110.22350196065429" x2="51.09149693125049" y1="2.7984245102831773" y2="2.5299877488162363"/><line fill="none" stroke="#000" stroke-linecap="round" x1="190.22858758704933" x2="198.4208876808121" y1="-96.57065598464051" y2="-51.59724402608994"/><line fill="none" stroke="#000" stroke-linecap="round" x1="190.22858758704933" x2="174.36179658221792" y1="-96.57065598464051" y2="-90.77757161821151"/><line fill="none" stroke="#000" stroke-linecap="round" x1="190.22858758704933" x2="184.840429473805" y1="-96.57065598464051" y2="-153.8864951443348"/><line fill="none" stroke="#000" stroke-linecap="round" x1="190.22858758704933" x2="160.9437744074887" y1="-96.57065598464051" y2="-81.77952356029506"/><line fill="none" stroke="#000" stroke-linecap="round" x1="190.22858758704933" x2="201.62589090390546" y1="-96.57065598464051" y2="-117.35323112574727"/><line fill="none" stroke="#000" stroke-linecap="round" x1="181.27539967998726" x2="226.61656591616716" y1="-13.861469472184755" y2="-26.74514355596644"/><line fill="none" stroke="#000" stroke-linecap="round" x1="181.27539967998726" x2="208.04097393792676" y1="-13.861469472184755" y2="-7.507432643589659"/><line fill="none" stroke="#000" stroke-linecap="round" x1="181.27539967998726" x2="190.01617319141369" y1="-13.861469472184755" y2="20.864666834627283"/><line fill="none" stroke="#000" stroke-linecap="round" x1="181.27539967998726" x2="190.8044445954257" y1="-13.861469472184755" y2="0.3530061805359647"/><line fill="none" stroke="#000" stroke-linecap="round" x1="181.27539967998726" x2="194.18177850268793" y1="-13.861469472184755" y2="-19.93668462775489"/><line fill="none" stroke="#000" stroke-linecap="round" x1="77.00535159351392" x2="66.60336787939644" y1="-25.76961914413478" y2="9.93858731529195"/><line fill="none" stroke="#000" stroke-linecap="round" x1="77.00535159351392" x2="51.09149693125049" y1="-25.76961914413478" y2="2.5299877488162363"/><line fill="none" stroke="#000" stroke-linecap="round" x1="77.00535159351392" x2="94.0432642285952" y1="-25.76961914413478" y2="-49.97702512527047"/><line fill="none" stroke="#000" stroke-linecap="round" x1="77.00535159351392" x2="104.1738910457139" y1="-25.76961914413478" y2="-56.918089677884076"/><line fill="none" stroke="#000" stroke-linecap="round" x1="77.00535159351392" x2="81.00379980001995" y1="-25.76961914413478" y2="-1.8903246451109756"/><line fill="none" stroke="#000" stroke-linecap="round" x1="136.62991541994828" x2="122.33598024522507" y1="-84.36147535439446" y2="-65.21867268987764"/><line fill="none" stroke="#000" stroke-linecap="round" x1="136.62991541994828" x2="119.67305972704628" y1="-84.36147535439446" y2="-106.05102016480917"/><line fill="none" stroke="#000" stroke-linecap="round" x1="136.62991541994828" x2="136.1250047034906" y1="-84.36147535439446" y2="-103.3312078401141"/><line fill="none" stroke="#000" stroke-linecap="round" x1="136.62991541994828" x2="119.17113624156114" y1="-84.36147535439446" y2="-47.48863020978841"/><line fill="none" stroke="#000" stroke-linecap="round" x1="136.62991541994828" x2="137.4858679681394" y1="-84.36147535439446" y2="-63.561023715423204"/><line fill="none" stroke="#000" stroke-linecap="round" x1="174.8457708050851" x2="160.9437744074887" y1="-59.247368318903234" y2="-81.77952356029506"/><line fill="none" stroke="#000" stroke-linecap="round" x1="174.8457708050851" x2="166.0492500069502" y1="-59.247368318903234" y2="-66.7490368386091"/><line fill="none" stroke="#000" stroke-linecap="round" x1="174.8457708050851" x2="159.61373113551093" y1="-59.247368318903234" y2="-60.378299425826064"/><line fill="none" stroke="#000" stroke-linecap="round" x1="174.8457708050851" x2="205.11043458165926" y1="-59.247368318903234" y2="-68.65422514548737"/><line fill="none" stroke="#000" stroke-linecap="round" x1="174.8457708050851" x2="190.22858758704933" y1="-59.247368318903234" y2="-96.57065598464051"/><line fill="none" stroke="#000" stroke-linecap="round" x1="166.0492500069502" x2="174.8457708050851" y1="-66.7490368386091" y2="-59.247368318903234"/><line fill="none" stroke="#000" stroke-linecap="round" x1="166.0492500069502" x2="159.61373113551093" y1="-66.7490368386091" y2="-60.378299425826064"/><line fill="none" stroke="#000" stroke-linecap="round" x1="166.0492500069502" x2="150.13238542399546" y1="-66.7490368386091" y2="-58.07563495203731"/><line fill="none" stroke="#000" stroke-linecap="round" x1="166.0492500069502" x2="137.4858679681394" y1="-66.7490368386091" y2="-63.561023715423204"/><line fill="none" stroke="#000" stroke-linecap="round" x1="166.0492500069502" x2="134.76024316281277" y1="-66.7490368386091" y2="-40.95087440908936"/><line fill="none" stroke="#000" stroke-linecap="round" x1="83.0481667255649" x2="105.83337178236282" y1="-74.02048815501756" y2="-118.1066639290318"/><line fill="none" stroke="#000" stroke-linecap="round" x1="83.0481667255649" x2="63.212101808657735" y1="-74.02048815501756" y2="-42.05689395867763"/><line fill="none" stroke="#000" stroke-linecap="round" x1="83.0481667255649" x2="74.22753323756918" y1="-74.02048815501756" y2="-101.46758090366333"/><line fill="none" stroke="#000" stroke-linecap="round" x1="83.0481667255649" x2="46.319567179772584" y1="-74.02048815501756" y2="-74.78732684914125"/><line fill="none" stroke="#000" stroke-linecap="round" x1="83.0481667255649" x2="98.14712458755923" y1="-74.02048815501756" y2="-25.672294977319726"/><line fill="none" stroke="#000" stroke-linecap="round" x1="137.4858679681394" x2="134.76024316281277" y1="-63.561023715423204" y2="-40.95087440908936"/><line fill="none" stroke="#000" stroke-linecap="round" x1="137.4858679681394" x2="166.0492500069502" y1="-63.561023715423204" y2="-66.7490368386091"/><line fill="none" stroke="#000" stroke-linecap="round" x1="137.4858679681394" x2="159.61373113551093" y1="-63.561023715423204" y2="-60.378299425826064"/><line fill="none" stroke="#000" stroke-linecap="round" x1="137.4858679681394" x2="87.42760794119627" y1="-63.561023715423204" y2="-90.90284192667157"/><line fill="none" stroke="#000" stroke-linecap="round" x1="137.4858679681394" x2="104.1738910457139" y1="-63.561023715423204" y2="-56.918089677884076"/><line fill="none" stroke="#000" stroke-linecap="round" x1="-296.8552977205388" x2="-308.27708441669665" y1="178.22259064290768" y2="194.3320819648015"/><line fill="none" stroke="#000" stroke-linecap="round" x1="-296.8552977205388" x2="-288.9480905270128" y1="178.22259064290768" y2="196.6736867954241"/><line fill="none" stroke="#000" stroke-linecap="round" x1="-296.8552977205388" x2="-263.252411245505" y1="178.22259064290768" y2="168.24396067589373"/><line fill="none" stroke="#000" stroke-linecap="round" x1="-296.8552977205388" x2="-280.57678925230266" y1="178.22259064290768" y2="179.61451764338452"/><line fill="none" stroke="#000" stroke-linecap="round" x1="-296.8552977205388" x2="-282.9490547415793" y1="178.22259064290768" y2="160.43179166395464"/><line fill="none" stroke="#000" stroke-linecap="round" x1="74.22753323756918" x2="105.83337178236282" y1="-101.46758090366333" y2="-118.1066639290318"/><line fill="none" stroke="#000" stroke-linecap="round" x1="74.22753323756918" x2="81.62628463441547" y1="-101.46758090366333" y2="-110.58947503546611"/><line fill="none" stroke="#000" stroke-linecap="round" x1="74.22753323756918" x2="100.33290508516055" y1="-101.46758090366333" y2="-79.10966507649276"/><line fill="none" stroke="#000" stroke-linecap="round" x1="74.22753323756918" x2="54.38513238892429" y1="-101.46758090366333" y2="-90.04378949801122"/><line fill="none" stroke="#000" stroke-linecap="round" x1="74.22753323756918" x2="53.9270657680436" y1="-101.46758090366333" y2="-110.72222109857124"/><line fill="none" stroke="#000" stroke-linecap="round" x1="81.00379980001995" x2="98.14712458755923" y1="-1.8903246451109756" y2="-25.672294977319726"/><line fill="none" stroke="#000" stroke-linecap="round" x1="81.00379980001995" x2="58.83575398239507" y1="-1.8903246451109756" y2="-6.175360077301864"/><line fill="none" stroke="#000" stroke-linecap="round" x1="81.00379980001995" x2="94.0432642285952" y1="-1.8903246451109756" y2="-49.97702512527047"/><line fill="none" stroke="#000" stroke-linecap="round" x1="81.00379980001995" x2="98.31874834311485" y1="-1.8903246451109756" y2="-7.835455568376221"/><line fill="none" stroke="#000" stroke-linecap="round" x1="81.00379980001995" x2="74.78369020481362" y1="-1.8903246451109756" y2="-6.644178686131011"/><line fill="none" stroke="#000" stroke-linecap="round" x1="190.8044445954257" x2="158.41522271338548" y1="0.3530061805359647" y2="1.6810150918646238"/><line fill="none" stroke="#000" stroke-linecap="round" x1="190.8044445954257" x2="174.05613324671046" y1="0.3530061805359647" y2="9.586262891104388"/><line fill="none" stroke="#000" stroke-linecap="round" x1="190.8044445954257" x2="205.25401428086226" y1="0.3530061805359647" y2="10.93195864077456"/><line fill="none" stroke="#000" stroke-linecap="round" x1="190.8044445954257" x2="208.04097393792676" y1="0.3530061805359647" y2="-7.507432643589659"/><line fill="none" stroke="#000" stroke-linecap="round" x1="190.8044445954257" x2="181.27539967998726" y1="0.3530061805359647" y2="-13.861469472184755"/><line fill="none" stroke="#000" stroke-linecap="round" x1="152.01702961162144" x2="137.75596802045743" y1="45.68914678661097" y2="4.882022704387838"/><line fill="none" stroke="#000" stroke-linecap="round" x1="152.01702961162144" x2="140.02489984207438" y1="45.68914678661097" y2="45.05869447573984"/><line fill="none" stroke="#000" stroke-linecap="round" x1="152.01702961162144" x2="121.90768985823784" y1="45.68914678661097" y2="54.631299701216584"/><line fill="none" stroke="#000" stroke-linecap="round" x1="152.01702961162144" x2="108.36838309567439" y1="45.68914678661097" y2="66.76435517031334"/><line fill="none" stroke="#000" stroke-linecap="round" x1="152.01702961162144" x2="145.49254864876002" y1="45.68914678661097" y2="65.0862104710321"/><line fill="none" stroke="#000" stroke-linecap="round" x1="116.36953141632671" x2="96.40882114822692" y1="35.255322041288004" y2="47.785830947882815"/><line fill="none" stroke="#000" stroke-linecap="round" x1="116.36953141632671" x2="73.78013997145105" y1="35.255322041288004" y2="34.290003156127746"/><line fill="none" stroke="#000" stroke-linecap="round" x1="116.36953141632671" x2="140.6885410700693" y1="35.255322041288004" y2="24.590549852044784"/><line fill="none" stroke="#000" stroke-linecap="round" x1="116.36953141632671" x2="130.32743017234043" y1="35.255322041288004" y2="9.814047775435355"/><line fill="none" stroke="#000" stroke-linecap="round" x1="116.36953141632671" x2="100.19145565711321" y1="35.255322041288004" y2="28.871564632520943"/><line fill="none" stroke="#000" stroke-linecap="round" x1="159.61373113551093" x2="166.0492500069502" y1="-60.378299425826064" y2="-66.7490368386091"/><line fill="none" stroke="#000" stroke-linecap="round" x1="159.61373113551093" x2="137.4858679681394" y1="-60.378299425826064" y2="-63.561023715423204"/><line fill="none" stroke="#000" stroke-linecap="round" x1="159.61373113551093" x2="134.76024316281277" y1="-60.378299425826064" y2="-40.95087440908936"/><line fill="none" stroke="#000" stroke-linecap="round" x1="159.61373113551093" x2="94.0432642285952" y1="-60.378299425826064" y2="-49.97702512527047"/><line fill="none" stroke="#000" stroke-linecap="round" x1="159.61373113551093" x2="137.75596802045743" y1="-60.378299425826064" y2="4.882022704387838"/><line fill="none" stroke="#000" stroke-linecap="round" x1="150.13238542399546" x2="119.17113624156114" y1="-58.07563495203731" y2="-47.48863020978841"/><line fill="none" stroke="#000" stroke-linecap="round" x1="150.13238542399546" x2="178.10503025292854" y1="-58.07563495203731" y2="-35.969075449534294"/><line fill="none" stroke="#000" stroke-linecap="round" x1="150.13238542399546" x2="187.70269509263792" y1="-58.07563495203731" y2="-76.9886526540772"/><line fill="none" stroke="#000" stroke-linecap="round" x1="150.13238542399546" x2="159.61373113551093" y1="-58.07563495203731" y2="-60.378299425826064"/><line fill="none" stroke="#000" stroke-linecap="round" x1="150.13238542399546" x2="166.0492500069502" y1="-58.07563495203731" y2="-66.7490368386091"/><line fill="none" stroke="#000" stroke-linecap="round" x1="134.76024316281277" x2="110.22350196065429" y1="-40.95087440908936" y2="2.7984245102831773"/><line fill="none" stroke="#000" stroke-linecap="round" x1="134.76024316281277" x2="104.1738910457139" y1="-40.95087440908936" y2="-56.918089677884076"/><line fill="none" stroke="#000" stroke-linecap="round" x1="134.76024316281277" x2="100.33290508516055" y1="-40.95087440908936" y2="-79.10966507649276"/><line fill="none" stroke="#000" stroke-linecap="round" x1="134.76024316281277" x2="166.0492500069502" y1="-40.95087440908936" y2="-66.7490368386091"/><line fill="none" stroke="#000" stroke-linecap="round" x1="134.76024316281277" x2="137.4858679681394" y1="-40.95087440908936" y2="-63.561023715423204"/><line fill="none" stroke="#000" stroke-linecap="round" x1="104.1738910457139" x2="134.76024316281277" y1="-56.918089677884076" y2="-40.95087440908936"/><line fill="none" stroke="#000" stroke-linecap="round" x1="104.1738910457139" x2="94.0432642285952" y1="-56.918089677884076" y2="-49.97702512527047"/><line fill="none" stroke="#000" stroke-linecap="round" x1="104.1738910457139" x2="120.75683931518206" y1="-56.918089677884076" y2="-76.01613232651347"/><line fill="none" stroke="#000" stroke-linecap="round" x1="104.1738910457139" x2="83.0481667255649" y1="-56.918089677884076" y2="-74.02048815501756"/><line fill="none" stroke="#000" stroke-linecap="round" x1="104.1738910457139" x2="65.65007672156766" y1="-56.918089677884076" y2="-63.33146161186009"/><line fill="none" stroke="#000" stroke-linecap="round" x1="98.31874834311485" x2="117.48996900506083" y1="-7.835455568376221" y2="-4.929634252496471"/><line fill="none" stroke="#000" stroke-linecap="round" x1="98.31874834311485" x2="63.212101808657735" y1="-7.835455568376221" y2="-42.05689395867763"/><line fill="none" stroke="#000" stroke-linecap="round" x1="98.31874834311485" x2="134.76024316281277" y1="-7.835455568376221" y2="-40.95087440908936"/><line fill="none" stroke="#000" stroke-linecap="round" x1="98.31874834311485" x2="98.14712458755923" y1="-7.835455568376221" y2="-25.672294977319726"/><line fill="none" stroke="#000" stroke-linecap="round" x1="98.31874834311485" x2="110.22350196065429" y1="-7.835455568376221" y2="2.7984245102831773"/><line fill="none" stroke="#000" stroke-linecap="round" x1="-8.829167938634" x2="9.180165769525596" y1="-150.62379544251326" y2="-154.05557605364424"/><line fill="none" stroke="#000" stroke-linecap="round" x1="-8.829167938634" x2="-1.9718953452965526" y1="-150.62379544251326" y2="-170.0009154182225"/><line fill="none" stroke="#000" stroke-linecap="round" x1="-8.829167938634" x2="-5.178526862478531" y1="-150.62379544251326" y2="-139.43538692698374"/><line fill="none" stroke="#000" stroke-linecap="round" x1="-8.829167938634" x2="-25.536319304230418" y1="-150.62379544251326" y2="-139.0920142206986"/><line fill="none" stroke="#000" stroke-linecap="round" x1="-8.829167938634" x2="-12.488838868525026" y1="-150.62379544251326" y2="-121.26513908926901"/><line fill="none" stroke="#000" stroke-linecap="round" x1="100.33290508516055" x2="81.62628463441547" y1="-79.10966507649276" y2="-110.58947503546611"/><line fill="none" stroke="#000" stroke-linecap="round" x1="100.33290508516055" x2="87.42760794119627" y1="-79.10966507649276" y2="-90.90284192667157"/><line fill="none" stroke="#000" stroke-linecap="round" x1="100.33290508516055" x2="119.67305972704628" y1="-79.10966507649276" y2="-106.05102016480917"/><line fill="none" stroke="#000" stroke-linecap="round" x1="100.33290508516055" x2="63.212101808657735" y1="-79.10966507649276" y2="-42.05689395867763"/><line fill="none" stroke="#000" stroke-linecap="round" x1="100.33290508516055" x2="134.76024316281277" y1="-79.10966507649276" y2="-40.95087440908936"/><line fill="none" stroke="#000" stroke-linecap="round" x1="161.05944052423706" x2="179.73102150897387" y1="-130.23993568316132" y2="-137.88935958063178"/><line fill="none" stroke="#000" stroke-linecap="round" x1="161.05944052423706" x2="163.16776865172974" y1="-130.23993568316132" y2="-149.7612510857833"/><line fill="none" stroke="#000" stroke-linecap="round" x1="161.05944052423706" x2="142.59473712479476" y1="-130.23993568316132" y2="-135.92788652487252"/><line fill="none" stroke="#000" stroke-linecap="round" x1="161.05944052423706" x2="175.92835113119355" y1="-130.23993568316132" y2="-117.74355389356636"/><line fill="none" stroke="#000" stroke-linecap="round" x1="161.05944052423706" x2="143.72159522504504" y1="-130.23993568316132" y2="-155.7377080616828"/><line fill="none" stroke="#000" stroke-linecap="round" x1="98.14712458755923" x2="81.00379980001995" y1="-25.672294977319726" y2="-1.8903246451109756"/><line fill="none" stroke="#000" stroke-linecap="round" x1="98.14712458755923" x2="117.48996900506083" y1="-25.672294977319726" y2="-4.929634252496471"/><line fill="none" stroke="#000" stroke-linecap="round" x1="98.14712458755923" x2="98.31874834311485" y1="-25.672294977319726" y2="-7.835455568376221"/><line fill="none" stroke="#000" stroke-linecap="round" x1="98.14712458755923" x2="110.22350196065429" y1="-25.672294977319726" y2="2.7984245102831773"/><line fill="none" stroke="#000" stroke-linecap="round" x1="98.14712458755923" x2="104.1738910457139" y1="-25.672294977319726" y2="-56.918089677884076"/><line fill="none" stroke="#000" stroke-linecap="round" x1="174.05613324671046" x2="181.27539967998726" y1="9.586262891104388" y2="-13.861469472184755"/><line fill="none" stroke="#000" stroke-linecap="round" x1="174.05613324671046" x2="158.41522271338548" y1="9.586262891104388" y2="1.6810150918646238"/><line fill="none" stroke="#000" stroke-linecap="round" x1="174.05613324671046" x2="190.8044445954257" y1="9.586262891104388" y2="0.3530061805359647"/><line fill="none" stroke="#000" stroke-linecap="round" x1="174.05613324671046" x2="179.4837161603369" y1="9.586262891104388" y2="38.305733944356994"/><line fill="none" stroke="#000" stroke-linecap="round" x1="174.05613324671046" x2="163.7722138585441" y1="9.586262891104388" y2="25.31619102482054"/><line fill="none" stroke="#000" stroke-linecap="round" x1="120.75683931518206" x2="104.1738910457139" y1="-76.01613232651347" y2="-56.918089677884076"/><line fill="none" stroke="#000" stroke-linecap="round" x1="120.75683931518206" x2="119.67305972704628" y1="-76.01613232651347" y2="-106.05102016480917"/><line fill="none" stroke="#000" stroke-linecap="round" x1="120.75683931518206" x2="105.83337178236282" y1="-76.01613232651347" y2="-118.1066639290318"/><line fill="none" stroke="#000" stroke-linecap="round" x1="120.75683931518206" x2="122.33598024522507" y1="-76.01613232651347" y2="-65.21867268987764"/><line fill="none" stroke="#000" stroke-linecap="round" x1="120.75683931518206" x2="94.0432642285952" y1="-76.01613232651347" y2="-49.97702512527047"/><line fill="none" stroke="#000" stroke-linecap="round" x1="63.212101808657735" x2="9.346172769966367" y1="-42.05689395867763" y2="-46.972990354115424"/><line fill="none" stroke="#000" stroke-linecap="round" x1="63.212101808657735" x2="100.33290508516055" y1="-42.05689395867763" y2="-79.10966507649276"/><line fill="none" stroke="#000" stroke-linecap="round" x1="63.212101808657735" x2="21.293085165203006" y1="-42.05689395867763" y2="-2.5808223865528097"/><line fill="none" stroke="#000" stroke-linecap="round" x1="63.212101808657735" x2="40.766351085815735" y1="-42.05689395867763" y2="-37.24175284809499"/><line fill="none" stroke="#000" stroke-linecap="round" x1="63.212101808657735" x2="96.81643524826136" y1="-42.05689395867763" y2="-41.41596250011566"/><line fill="none" stroke="#000" stroke-linecap="round" x1="40.766351085815735" x2="20.87750548037652" y1="-37.24175284809499" y2="-32.07958985369226"/><line fill="none" stroke="#000" stroke-linecap="round" x1="40.766351085815735" x2="52.94143577152128" y1="-37.24175284809499" y2="-21.846925836714465"/><line fill="none" stroke="#000" stroke-linecap="round" x1="40.766351085815735" x2="27.807485704179317" y1="-37.24175284809499" y2="-51.54039188993209"/><line fill="none" stroke="#000" stroke-linecap="round" x1="40.766351085815735" x2="46.52745020892973" y1="-37.24175284809499" y2="-56.261249824147164"/><line fill="none" stroke="#000" stroke-linecap="round" x1="40.766351085815735" x2="33.99528207688199" y1="-37.24175284809499" y2="-16.509168072146117"/><line fill="none" stroke="#000" stroke-linecap="round" x1="117.48996900506083" x2="130.32743017234043" y1="-4.929634252496471" y2="9.814047775435355"/><line fill="none" stroke="#000" stroke-linecap="round" x1="117.48996900506083" x2="158.41522271338548" y1="-4.929634252496471" y2="1.6810150918646238"/><line fill="none" stroke="#000" stroke-linecap="round" x1="117.48996900506083" x2="110.22350196065429" y1="-4.929634252496471" y2="2.7984245102831773"/><line fill="none" stroke="#000" stroke-linecap="round" x1="117.48996900506083" x2="117.42353202389825" y1="-4.929634252496471" y2="-22.481692503626334"/><line fill="none" stroke="#000" stroke-linecap="round" x1="117.48996900506083" x2="98.14712458755923" y1="-4.929634252496471" y2="-25.672294977319726"/><line fill="none" stroke="#000" stroke-linecap="round" x1="162.4122511231591" x2="174.8457708050851" y1="-46.460134489756285" y2="-59.247368318903234"/><line fill="none" stroke="#000" stroke-linecap="round" x1="162.4122511231591" x2="160.9437744074887" y1="-46.460134489756285" y2="-81.77952356029506"/><line fill="none" stroke="#000" stroke-linecap="round" x1="162.4122511231591" x2="158.19533323212974" y1="-46.460134489756285" y2="-22.3997595018927"/><line fill="none" stroke="#000" stroke-linecap="round" x1="162.4122511231591" x2="181.27539967998726" y1="-46.460134489756285" y2="-13.861469472184755"/><line fill="none" stroke="#000" stroke-linecap="round" x1="162.4122511231591" x2="137.4858679681394" y1="-46.460134489756285" y2="-63.561023715423204"/><line fill="none" stroke="#000" stroke-linecap="round" x1="87.42760794119627" x2="100.33290508516055" y1="-90.90284192667157" y2="-79.10966507649276"/><line fill="none" stroke="#000" stroke-linecap="round" x1="87.42760794119627" x2="81.62628463441547" y1="-90.90284192667157" y2="-110.58947503546611"/><line fill="none" stroke="#000" stroke-linecap="round" x1="87.42760794119627" x2="63.212101808657735" y1="-90.90284192667157" y2="-42.05689395867763"/><line fill="none" stroke="#000" stroke-linecap="round" x1="87.42760794119627" x2="86.89295862319956" y1="-90.90284192667157" y2="-132.1021210106271"/><line fill="none" stroke="#000" stroke-linecap="round" x1="87.42760794119627" x2="71.244254401781" y1="-90.90284192667157" y2="-120.41030401617328"/><line fill="none" stroke="#000" stroke-linecap="round" x1="73.78013997145105" x2="96.40882114822692" y1="34.290003156127746" y2="47.785830947882815"/><line fill="none" stroke="#000" stroke-linecap="round" x1="73.78013997145105" x2="50.561671085381676" y1="34.290003156127746" y2="25.262283642773486"/><line fill="none" stroke="#000" stroke-linecap="round" x1="73.78013997145105" x2="116.36953141632671" y1="34.290003156127746" y2="35.255322041288004"/><line fill="none" stroke="#000" stroke-linecap="round" x1="73.78013997145105" x2="76.22861196155161" y1="34.290003156127746" y2="53.80983349580861"/><line fill="none" stroke="#000" stroke-linecap="round" x1="73.78013997145105" x2="56.60872179325482" y1="34.290003156127746" y2="43.62147584682598"/><line fill="none" stroke="#000" stroke-linecap="round" x1="137.75596802045743" x2="159.61373113551093" y1="4.882022704387838" y2="-60.378299425826064"/><line fill="none" stroke="#000" stroke-linecap="round" x1="137.75596802045743" x2="117.48996900506083" y1="4.882022704387838" y2="-4.929634252496471"/><line fill="none" stroke="#000" stroke-linecap="round" x1="137.75596802045743" x2="116.36953141632671" y1="4.882022704387838" y2="35.255322041288004"/><line fill="none" stroke="#000" stroke-linecap="round" x1="137.75596802045743" x2="152.01702961162144" y1="4.882022704387838" y2="45.68914678661097"/><line fill="none" stroke="#000" stroke-linecap="round" x1="137.75596802045743" x2="130.32743017234043" y1="4.882022704387838" y2="9.814047775435355"/><line fill="none" stroke="#000" stroke-linecap="round" x1="121.34801983956442" x2="119.67305972704628" y1="-93.36991258565902" y2="-106.05102016480917"/><line fill="none" stroke="#000" stroke-linecap="round" x1="121.34801983956442" x2="122.33598024522507" y1="-93.36991258565902" y2="-65.21867268987764"/><line fill="none" stroke="#000" stroke-linecap="round" x1="121.34801983956442" x2="136.1250047034906" y1="-93.36991258565902" y2="-103.3312078401141"/><line fill="none" stroke="#000" stroke-linecap="round" x1="121.34801983956442" x2="136.62991541994828" y1="-93.36991258565902" y2="-84.36147535439446"/><line fill="none" stroke="#000" stroke-linecap="round" x1="121.34801983956442" x2="83.0481667255649" y1="-93.36991258565902" y2="-74.02048815501756"/></svg>