<?xml version="1.0" ?><!DOCTYPE svg  PUBLIC '-//W3C//DTD SVG 1.1//EN'  'http://www.w3.org/Graphics/SVG/1.1/DTD/svg11.dtd'><svg height="327.000" viewBox="-174.000 -156.000 346.000 327.000" width="346.000" xmlns="http://www.w3.org/2000/svg"><line fill="none" stroke="none" stroke-linecap="round" stroke-width="2.0" x1="0.0" x2="0.0" y1="0.0" y2="0.0"/><polygon fill="none" fill-rule="evenodd" points="0.0,0.0 0.0,0.0 0.0,0.0" stroke-linejoin="round"/><polyline fill="none" points="37.08096414010372,-33.472176128977864 39.58096414010731,-34.14204911004971 41.4110911590356,-35.97217612896854 42.080964140120365,-38.47217612896868 41.41109115904852,-40.97217612897227 39.58096414012969,-42.80230314790056 37.08096414012955,-43.472176128985325 34.58096414012596,-42.802303147913484 32.75083712119767,-40.972176128994654 32.0809641401129,-38.47217612899452 32.75083712118474,-35.972176128990924 34.58096414010356,-34.142049110062636 37.080964140103696,-33.472176128977864" stroke="#ffa500" stroke-linecap="round" stroke-linejoin="round"/><polyline fill="none" points="39.81527351367386,-12.354956617090384 42.315273513677454,-13.024829598162226 44.14540053260574,-14.854956617081053 44.815273513690514,-17.354956617081186 44.14540053261867,-19.85495661708478 42.31527351369985,-21.685083636013072 39.815273513699715,-22.354956617097844 37.31527351369612,-21.685083636026004 35.485146494767825,-19.854956617107177 34.81527351368305,-17.354956617107046 35.48514649475489,-14.854956617103449 37.315273513673716,-13.024829598175156 39.81527351367385,-12.354956617090382" stroke="#ffa500" stroke-linecap="round" stroke-linejoin="round"/><polyline fill="none" points="48.297604545837906,-135.10136347362413 50.7976045458415,-135.77123645469598 52.627731564769796,-137.6013634736148 53.29760454585457,-140.10136347361495 52.62773156478273,-142.60136347361856 50.797604545863905,-144.43149049254686 48.29760454586377,-145.10136347363164 45.797604545860175,-144.4314904925598 43.96747752693188,-142.60136347364096 43.29760454584711,-140.10136347364082 43.96747752691895,-137.6013634736372 45.79760454583777,-135.7712364547089 48.297604545837906,-135.10136347362413" stroke="#ffa500" stroke-linecap="round" stroke-linejoin="round"/><polyline fill="none" points="33.17575082426086,-64.11019840804897 35.67575082426446,-64.7800713891208 37.505877843192756,-66.61019840803964 38.175750824277536,-69.11019840803976 37.505877843205695,-71.61019840804336 35.67575082428687,-73.44032542697165 33.17575082428674,-74.11019840805643 30.675750824283135,-73.4403254269846 28.845623805354837,-71.61019840806578 28.175750824270057,-69.11019840806566 28.845623805341894,-66.61019840806206 30.675750824260717,-64.78007138913377 33.17575082426085,-64.11019840804899" stroke="#ffa500" stroke-linecap="round" stroke-linejoin="round"/><polyline fill="none" points="-24.558656768452252,9.381058347812713 -22.05865676844865,8.711185366740878 -20.22852974952035,6.881058347822056 -19.558656768435572,4.381058347821923 -20.228529749507405,1.8810583478183212 -22.05865676842623,0.05093132889002239 -24.55865676842636,-0.618941652194758 -27.058656768429962,0.05093132887707552 -28.88878378735826,1.8810583477958969 -29.55865676844304,4.38105834779603 -28.888783787371207,6.881058347799631 -27.058656768452387,8.71118536672793 -24.558656768452256,9.381058347812711" stroke="#00f" stroke-linecap="round" stroke-linejoin="round"/><polyline fill="none" points="-117.32016163468987,10.071499527906475 -114.82016163468626,9.401626546834642 -112.99003461575796,7.5714995279158215 -112.32016163467318,5.071499527915689 -112.99003461574502,2.5714995279120867 -114.82016163466383,0.7413725089837857 -117.32016163466396,0.0714995278990026 -119.82016163466757,0.7413725089708336 -121.65028865359587,2.571499527889653 -122.32016163468064,5.071499527889785 -121.65028865360881,7.571499527893389 -119.82016163469,9.40162654682169 -117.32016163468987,10.071499527906475" stroke="#00f" stroke-linecap="round" stroke-linejoin="round"/><polyline fill="none" points="39.60946114921973,-94.81630023171964 42.109461149223335,-95.48617321279147 43.93958816815164,-97.31630023171029 44.609461149236424,-99.81630023171041 43.9395881681646,-102.31630023171402 42.10946114924578,-104.14642725064233 39.60946114924565,-104.81630023172711 37.109461149242044,-104.14642725065528 35.27933413031374,-102.31630023173646 34.609461149228956,-99.81630023173634 35.27933413030078,-97.31630023173273 37.1094611492196,-95.48617321280442 39.60946114921973,-94.81630023171962" stroke="#ffa500" stroke-linecap="round" stroke-linejoin="round"/><polyline fill="none" points="85.90772342402629,-126.02315446247229 88.4077234240299,-126.69302744354412 90.2378504429582,-128.52315446246294 90.907723424043,-131.02315446246308 90.23785044297117,-133.5231544624667 88.40772342405235,-135.353281481395 85.90772342405222,-136.02315446247977 83.40772342404861,-135.35328148140795 81.5775964051203,-133.52315446248912 80.90772342403551,-131.02315446248898 81.57759640510733,-128.52315446248537 83.40772342402614,-126.69302744355706 85.90772342402627,-126.02315446247226" stroke="#ffa500" stroke-linecap="round" stroke-linejoin="round"/><polyline fill="none" points="-120.96564146608688,-62.58869698181661 -118.46564146608327,-63.25856996288844 -116.63551444715496,-65.08869698180726 -115.96564146607017,-67.58869698180739 -116.63551444714199,-70.088696981811 -118.4656414660608,-71.9188240007393 -120.96564146606093,-72.5886969818241 -123.46564146606454,-71.91882400075228 -125.29576848499285,-70.08869698183346 -125.96564146607764,-67.58869698183334 -125.29576848500582,-65.08869698182973 -123.465641466087,-63.25856996290142 -120.96564146608688,-62.588696981816625" stroke="#00f" stroke-linecap="round" stroke-linejoin="round"/><polyline fill="none" points="5.323366720638995,79.383581375551 7.823366720642602,78.71370839447918 9.65349373957091,76.88358137556037 10.323366720655704,74.38358137556024 9.653493739583881,71.88358137555663 7.823366720665067,70.05345435662832 5.323366720664934,69.38358137554353 2.8233667206613258,70.05345435661535 0.993239701733015,71.88358137553416 0.3233667206482205,74.38358137553429 0.9932397017200418,76.8835813755379 2.8233667206388557,78.71370839446621 5.3233667206389885,79.383581375551" stroke="#00f" stroke-linecap="round" stroke-linejoin="round"/><polyline fill="none" points="155.40527644413285,26.70382385796938 157.90527644413646,26.03395087689756 159.73540346306478,24.203823857978747 160.4052764441496,21.703823857978616 159.73540346307777,19.203823857975006 157.90527644415897,17.373696839046694 155.40527644415883,16.703823857961897 152.90527644415522,17.373696839033716 151.0751494252269,19.20382385795253 150.4052764441421,21.70382385795266 151.0751494252139,24.20382385795627 152.9052764441327,26.03395087688458 155.40527644413285,26.70382385796938" stroke="#ffa500" stroke-linecap="round" stroke-linejoin="round"/><polyline fill="none" points="142.3514726553538,-42.627623161636166 144.8514726553574,-43.297496142707985 146.68159967428574,-45.12762316162679 147.35147265537054,-47.62762316162693 146.68159967429872,-50.12762316163054 144.85147265537992,-51.957750180558854 142.35147265537978,-52.627623161643655 139.85147265537617,-51.957750180571836 138.02134563644785,-50.12762316165303 137.35147265536304,-47.62762316165289 138.02134563643486,-45.12762316164928 139.85147265535366,-43.297496142720966 142.3514726553538,-42.627623161636166" stroke="#ffa500" stroke-linecap="round" stroke-linejoin="round"/><polyline fill="none" points="111.674805105677,-87.49465359924467 114.1748051056806,-88.16452658031649 116.00493212460893,-89.9946535992353 116.67480510569374,-92.49465359923543 116.00493212462192,-94.99465359923904 114.1748051057031,-96.82478061816737 111.67480510570297,-97.49465359925217 109.17480510569936,-96.82478061818036 107.34467808677104,-94.99465359926154 106.67480510568623,-92.49465359926141 107.34467808675805,-89.9946535992578 109.17480510567687,-88.16452658032948 111.674805105677,-87.49465359924467" stroke="#ffa500" stroke-linecap="round" stroke-linejoin="round"/><polyline fill="none" points="-15.506579462061822,26.101890531843992 -13.006579462058209,25.43201755077218 -11.17645244312989,23.60189053185337 -10.506579462045085,21.10189053185324 -11.176452443116897,18.601890531849627 -13.006579462035706,16.771763512921307 -15.506579462035837,16.101890531836503 -18.00657946203945,16.771763512908315 -19.83670648096777,18.601890531827124 -20.506579462052574,21.101890531827255 -19.836706480980762,23.60189053183087 -18.006579462061953,25.43201755075919 -15.506579462061822,26.101890531844" stroke="#00f" stroke-linecap="round" stroke-linejoin="round"/><polyline fill="none" points="-18.69389055789746,134.4667184112509 -16.193890557893845,133.79684543017908 -14.363763538965522,131.96671841126027 -13.693890557880714,129.46671841126013 -14.363763538952524,126.96671841125652 -16.19389055787133,125.1365913923282 -18.693890557871462,124.46671841124339 -21.19389055787508,125.1365913923152 -23.024017576803402,126.966718411234 -23.69389055788821,129.46671841123413 -23.0240175768164,131.96671841123774 -21.193890557897596,133.79684543016606 -18.693890557897465,134.46671841125087" stroke="#ffa500" stroke-linecap="round" stroke-linejoin="round"/><polyline fill="none" points="77.03492304494532,-111.74008426398865 79.53492304494893,-112.40995724506045 81.36505006387725,-114.24008426397926 82.03492304496206,-116.74008426397938 81.36505006389025,-119.240084263983 79.53492304497145,-121.07021128291132 77.03492304497132,-121.74008426399612 74.5349230449677,-121.07021128292432 72.70479602603938,-119.24008426400552 72.03492304495457,-116.74008426400539 72.70479602602637,-114.24008426400177 74.53492304494517,-112.40995724507344 77.0349230449453,-111.74008426398863" stroke="#ffa500" stroke-linecap="round" stroke-linejoin="round"/><polyline fill="none" points="-12.416620896087316,43.54375952342108 -9.916620896083698,42.873886542349275 -8.08649387715537,41.043759523430474 -7.4166208960705555,38.54375952343034 -8.08649387714236,36.04375952342672 -9.916620896061163,34.21363250449839 -12.416620896061296,33.54375952341358 -14.916620896064915,34.21363250448538 -16.746747914993243,36.043759523404184 -17.416620896078058,38.54375952340432 -16.746747915006253,41.043759523407935 -14.91662089608745,42.873886542336265 -12.416620896087316,43.54375952342108" stroke="#008000" stroke-linecap="round" stroke-linejoin="round"/><polyline fill="none" points="86.90744931804002,-89.12488954242296 89.40744931804365,-89.79476252349477 91.23757633697198,-91.62488954241357 91.9074493180568,-94.1248895424137 91.237576336985,-96.62488954241732 89.4074493180662,-98.45501656134566 86.90744931806607,-99.12488954243048 84.40744931806245,-98.45501656135868 82.57732229913411,-96.62488954243987 81.90744931804929,-94.12488954243975 82.5773222991211,-91.62488954243612 84.4074493180399,-89.79476252350779 86.90744931804002,-89.12488954242296" stroke="#ffa500" stroke-linecap="round" stroke-linejoin="round"/><polyline fill="none" points="-3.4073625863112644,-9.762387566026055 -0.9073625863076433,-10.432260547097854 0.9227644326206894,-12.262387566016656 1.5926374137055093,-14.76238756601679 0.9227644326337099,-17.26238756602041 -0.9073625862850911,-19.092514584948745 -3.4073625862852235,-19.762387566033567 -5.907362586288845,-19.09251458496177 -7.737489605217179,-17.262387566042968 -8.407362586302,-14.762387566042836 -7.737489605230202,-12.262387566039214 -5.907362586311401,-10.43226054711088 -3.407362586311269,-9.762387566026058" stroke="#00f" stroke-linecap="round" stroke-linejoin="round"/><polyline fill="none" points="29.59063440728885,-81.1530968355381 32.09063440729247,-81.82296981660988 33.92076142622081,-83.65309683552869 34.59063440730563,-86.15309683552881 33.92076142623383,-88.65309683553244 32.09063440731503,-90.48322385446077 29.590634407314898,-91.1530968355456 27.090634407311274,-90.4832238544738 25.260507388382937,-88.653096835555 24.59063440729811,-86.15309683555488 25.260507388369906,-83.65309683555125 27.090634407288704,-81.82296981662292 29.590634407288835,-81.1530968355381" stroke="#00f" stroke-linecap="round" stroke-linejoin="round"/><polyline fill="none" points="141.55783925627674,-23.40933710222589 144.05783925628037,-24.079210083297685 145.88796627520873,-25.909337102216483 146.55783925629356,-28.409337102216615 145.88796627522177,-30.90933710222024 144.05783925630297,-32.73946412114858 141.55783925630283,-33.40933710223341 139.0578392562992,-32.73946412116162 137.22771223737084,-30.90933710224282 136.557839256286,-28.409337102242688 137.2277122373578,-25.909337102239064 139.0578392562766,-24.079210083310723 141.55783925627674,-23.409337102225894" stroke="#ffa500" stroke-linecap="round" stroke-linejoin="round"/><polyline fill="none" points="126.13382749279566,-45.61314678825091 128.6338274927993,-46.2830197693227 130.46395451172765,-48.113146788241494 131.1338274928125,-50.61314678824163 130.4639545117407,-53.11314678824525 128.6338274928219,-54.9432738071736 126.13382749282177,-55.613146788258426 123.63382749281814,-54.943273807186635 121.8037004738898,-53.11314678826784 121.13382749280497,-50.613146788267706 121.80370047387676,-48.11314678826408 123.63382749279556,-46.28301976933574 126.13382749279569,-45.61314678825091" stroke="#ffa500" stroke-linecap="round" stroke-linejoin="round"/><polyline fill="none" points="89.42434344000525,-74.43834653131653 91.92434344000887,-75.10821951238832 93.7544704589372,-76.93834653130712 94.42434344002204,-79.43834653130725 93.75447045895025,-81.93834653131087 91.92434344003145,-83.76847355023921 89.42434344003132,-84.43834653132404 86.9243434400277,-83.76847355025225 85.09421642109935,-81.93834653133345 84.42434344001451,-79.43834653133332 85.0942164210863,-76.9383465313297 86.9243434400051,-75.10821951240135 89.42434344000523,-74.43834653131651" stroke="#ffa500" stroke-linecap="round" stroke-linejoin="round"/><polyline fill="none" points="-2.3559449886330714,51.72804084125208 0.14405501137055765,51.05816786018029 1.9741820302989035,49.228040841261496 2.644055011383738,46.72804084126136 1.9741820303119515,44.22804084125773 0.14405501139315735,42.397913822329386 -2.3559449886069754,41.72804084124455 -4.855944988610605,42.39791382231633 -6.686072007538952,44.22804084123513 -7.355944988623787,46.72804084123526 -6.686072007552001,49.228040841238894 -4.855944988633207,51.05816786016724 -2.3559449886330746,51.728040841252074" stroke="#00f" stroke-linecap="round" stroke-linejoin="round"/><polyline fill="none" points="77.9917974928447,-42.23601967761231 80.49179749284832,-42.905892658684095 82.32192451177667,-44.73601967760289 82.99179749286151,-47.236019677603025 82.32192451178972,-49.736019677606656 80.49179749287093,-51.56614669653501 77.9917974928708,-52.23601967761984 75.49179749286716,-51.56614669654806 73.66167047393881,-49.736019677629265 72.99179749285398,-47.23601967762913 73.66167047392577,-44.7360196776255 75.49179749284455,-42.90589265869715 77.99179749284468,-42.23601967761231" stroke="#00f" stroke-linecap="round" stroke-linejoin="round"/><polyline fill="none" points="95.4979819986631,-65.18497998752011 97.99798199866673,-65.85485296859189 99.82810901759508,-67.68497998751067 100.49798199867992,-70.1849799875108 99.82810901760814,-72.68497998751444 97.99798199868935,-74.51510700644279 95.49798199868923,-75.18497998752763 92.99798199868559,-74.51510700645585 91.16785497975724,-72.68497998753706 90.4979819986724,-70.18497998753693 91.16785497974418,-67.6849799875333 92.99798199866296,-65.85485296860494 95.4979819986631,-65.18497998752011" stroke="#00f" stroke-linecap="round" stroke-linejoin="round"/><polyline fill="none" points="98.40709389258053,27.476531202056183 100.90709389258417,26.806658220984403 102.73722091151252,24.976531202065612 103.40709389259737,22.476531202065477 102.7372209115256,19.976531202061842 100.90709389260681,18.146404183133487 98.40709389260668,17.476531202048644 95.90709389260304,18.146404183120424 94.07696687367469,19.976531202039215 93.40709389258984,22.47653120203935 94.07696687366162,24.976531202042985 95.9070938925804,26.80665822097134 98.40709389258053,27.476531202056186" stroke="#ffa500" stroke-linecap="round" stroke-linejoin="round"/><polyline fill="none" points="135.73354440305016,3.3328177351161754 138.2335444030538,2.662944754044397 140.06367142198215,0.8328177351256063 140.733544403067,-1.6671822648745287 140.0636714219952,-4.167182264878165 138.2335444030764,-5.997309283806523 135.73354440307625,-6.66718226489137 133.2335444030726,-5.997309283819591 131.40341738414426,-4.1671822649008 130.73354440305943,-1.6671822649006645 131.40341738413122,0.8328177351029735 133.23354440305002,2.662944754031332 135.73354440305016,3.33281773511618" stroke="#ffa500" stroke-linecap="round" stroke-linejoin="round"/><polyline fill="none" points="35.29095701271126,-34.061092384480915 37.7909570127149,-34.73096536555269 39.62108403164326,-36.56109238447148 40.29095701272811,-39.061092384471614 39.62108403165633,-41.56109238447525 37.79095701273754,-43.39121940340361 35.29095701273741,-44.06109238448846 32.79095701273377,-43.391219403416684 30.960829993805408,-41.5610923844979 30.290957012720558,-39.06109238449776 30.960829993792334,-36.561092384494124 32.790957012711125,-34.730965365565766 35.29095701271126,-34.061092384480915" stroke="#ffa500" stroke-linecap="round" stroke-linejoin="round"/><polyline fill="none" points="122.51412474658866,-27.99112967044254 125.0141247465923,-28.661002651514313 126.84425176552067,-30.4911296704331 127.51412474660552,-32.99112967043324 126.84425176553374,-35.49112967043688 125.01412474661495,-37.32125668936524 122.51412474661481,-37.99112967045009 120.01412474661117,-37.321256689378316 118.18399772768281,-35.49112967045953 117.51412474659796,-32.991129670459394 118.18399772766973,-30.491129670455752 120.01412474658852,-28.661002651527387 122.51412474658866,-27.991129670442533" stroke="#ffa500" stroke-linecap="round" stroke-linejoin="round"/><polyline fill="none" points="2.3521063839730796,36.20915547909228 4.852106383976722,35.53928249802051 6.682233402905086,33.709155479101724 7.352106383989941,31.20915547910159 6.68223340291817,28.709155479097948 4.8521063839993825,26.879028460169582 2.3521063839992458,26.20915547908473 -0.1478936160043971,26.879028460156498 -1.9780206349327634,28.709155479075285 -2.6478936160176194,31.20915547907542 -1.9780206349458491,33.709155479079065 -0.14789361602706252,35.53928249800743 2.3521063839730743,36.20915547909229" stroke="#ffa500" stroke-linecap="round" stroke-linejoin="round"/><polyline fill="none" points="57.51138612749669,-57.37644572524698 60.01138612750034,-58.04631870631875 61.8415131464287,-59.87644572523754 62.51138612751356,-62.37644572523767 61.84151314644179,-64.87644572524131 60.011386127523004,-66.70657274416968 57.51138612752287,-67.37644572525454 55.01138612751922,-66.70657274418278 53.18125910859085,-64.87644572526399 52.51138612750599,-62.376445725263856 53.18125910857776,-59.87644572526021 55.01138612749655,-58.04631870633184 57.511386127496685,-57.37644572524698" stroke="#00f" stroke-linecap="round" stroke-linejoin="round"/><polyline fill="none" points="-64.64566231306696,26.609626053847677 -62.14566231306332,25.93975307277591 -60.315535294134946,24.109626053857124 -59.64566231305009,21.609626053856985 -60.31553529412186,19.10962605385334 -62.145662313040646,17.279499034924967 -64.64566231304079,16.609626053840106 -67.14566231304444,17.279499034911872 -68.9757893319728,19.109626053830656 -69.64566231305767,21.609626053830794 -68.97578933198591,24.10962605383444 -67.14566231306712,25.939753072762812 -64.64566231306698,26.609626053847673" stroke="#ffa500" stroke-linecap="round" stroke-linejoin="round"/><polyline fill="none" points="-0.6350721166528,63.87780803223989 1.8649278833508474,63.20793505116813 3.69505490227922,61.37780803224934 4.364927883364083,58.877808032249206 3.6950549022923185,56.37780803224556 1.8649278833735343,54.54768101331719 -0.6350721166266038,53.87780803223232 -3.135072116630252,54.547681013304086 -4.965199135558627,56.37780803222287 -5.635072116643491,58.87780803222301 -4.965199135571728,61.37780803222665 -3.1350721166529447,63.207935051155026 -0.6350721166528066,63.87780803223989" stroke="#ffa500" stroke-linecap="round" stroke-linejoin="round"/><polyline fill="none" points="122.25922071777441,77.40332181417442 124.75922071777806,76.73344883310266 126.58934773670644,74.90332181418387 127.25922071779131,72.40332181418373 126.58934773671955,69.90332181418007 124.75922071780076,68.0731947952517 122.25922071780062,67.40332181416683 119.75922071779696,68.07319479523859 117.92909369886858,69.90332181415738 117.25922071778372,72.40332181415752 117.92909369885548,74.90332181416117 119.75922071777427,76.73344883308955 122.25922071777441,77.40332181417442" stroke="#ffa500" stroke-linecap="round" stroke-linejoin="round"/><polyline fill="none" points="-95.16320082237046,32.9127614082835 -92.6632008223668,32.24288842721174 -90.83307380343842,30.41276140829296 -90.16320082235356,27.91276140829282 -90.83307380342532,25.412761408289168 -92.66320082234411,23.582634389360788 -95.16320082234425,22.91276140827592 -97.6632008223479,23.582634389347678 -99.49332784127628,25.41276140826646 -100.16320082236115,27.912761408266597 -99.49332784128939,30.41276140827025 -97.6632008223706,32.24288842719863 -95.16320082237046,32.9127614082835" stroke="#f00" stroke-linecap="round" stroke-linejoin="round"/><polyline fill="none" points="22.58181531897608,-45.80144000869353 25.081815318979732,-46.47131298976529 26.911942337908112,-48.30144000868407 27.581815318992984,-50.8014400086842 26.91194233792123,-53.301440008687855 25.081815319002448,-55.131567027616235 22.58181531900231,-55.80144000870111 20.081815318998657,-55.13156702762935 18.251688300070274,-53.30144000871057 17.5818153189854,-50.801440008710436 18.251688300057154,-48.301440008706784 20.081815318975934,-46.471312989778404 22.581815318976073,-45.80144000869353" stroke="#ffa500" stroke-linecap="round" stroke-linejoin="round"/><polyline fill="none" points="104.15987833540038,-33.260519902426246 106.65987833540403,-33.930392883498 108.49000535433241,-35.76051990241678 109.15987833541729,-38.26051990241692 108.49000535434554,-40.76051990242057 106.65987833542677,-42.590646921348956 104.15987833542663,-43.260519902433835 101.65987833542297,-42.59064692136208 99.8297513164946,-40.7605199024433 99.15987833540972,-38.260519902443164 99.82975131648146,-35.76051990243951 101.65987833540024,-33.930392883511125 104.15987833540038,-33.260519902426246" stroke="#ffa500" stroke-linecap="round" stroke-linejoin="round"/><polyline fill="none" points="149.60581868018122,24.822146114336682 152.10581868018488,24.15227313326493 153.93594569911326,22.322146114346154 154.60581868019813,19.822146114346015 153.93594569912636,17.32214611434236 152.1058186802076,15.492019095413973 149.60581868020745,14.822146114329094 147.10581868020378,15.492019095400845 145.2756916612754,17.322146114319622 144.6058186801905,19.82214611431976 145.27569166126227,22.322146114323417 147.10581868018105,24.152273133251803 149.6058186801812,24.822146114336682" stroke="#ffa500" stroke-linecap="round" stroke-linejoin="round"/><polyline fill="none" points="11.178145018118585,61.843855201482484 13.67814501812224,61.173982220410736 15.508272037050629,59.34385520149196 16.17814501813551,56.84385520149183 15.50827203706376,54.34385520148817 13.678145018144985,52.51372818255978 11.178145018144846,51.8438552014749 8.678145018141189,52.51372818254665 6.848017999212799,54.34385520146542 6.178145018127917,56.84385520146556 6.848017999199665,59.34385520146922 8.678145018118439,61.173982220397605 11.178145018118578,61.84385520148249" stroke="#00f" stroke-linecap="round" stroke-linejoin="round"/><polyline fill="none" points="101.70606067949127,0.3015196365198882 104.20606067949493,-0.368353344551859 106.03618769842332,-2.1984803634706336 106.7060606795082,-4.698480363470772 106.03618769843645,-7.198480363474431 104.20606067951768,-9.028607382402823 101.70606067951753,-9.698480363487707 99.20606067951388,-9.028607382415961 97.37593366058549,-7.198480363497187 96.70606067950061,-4.6984803634970485 97.37593366057236,-2.1984803634933887 99.20606067949113,-0.36835334456499513 101.70606067949127,0.3015196365198912" stroke="#ffa500" stroke-linecap="round" stroke-linejoin="round"/><polyline fill="none" points="126.69676336771485,52.42194077401909 129.19676336771852,51.752067792947344 131.02689038664693,49.92194077402857 131.69676336773182,47.42194077402843 131.02689038666009,44.92194077402477 129.1967633677413,43.091813755096375 126.69676336774117,42.42194077401149 124.1967633677375,43.09181375508323 122.36663634880911,44.921940774002 121.69676336772422,47.421940774002145 122.36663634879596,49.921940774005805 124.19676336771474,51.7520677929342 126.69676336771488,52.421940774019085" stroke="#ffa500" stroke-linecap="round" stroke-linejoin="round"/><polyline fill="none" points="119.50851471936835,99.5367610450423 122.00851471937202,98.86688806397055 123.83864173830041,97.03676104505178 124.5085147193853,94.53676104505163 123.83864173831356,92.03676104504797 122.00851471939478,90.20663402611957 119.50851471939464,89.53676104503468 117.00851471939097,90.20663402610643 115.17838770046258,92.0367610450252 114.50851471937769,94.53676104502534 115.17838770044942,97.03676104502901 117.0085147193682,98.8668880639574 119.50851471936834,99.5367610450423" stroke="#ffa500" stroke-linecap="round" stroke-linejoin="round"/><polyline fill="none" points="47.8304688523136,147.89927204383105 50.33046885231727,147.2293990627593 52.16059587124567,145.39927204384054 52.83046885233056,142.8992720438404 52.16059587125882,140.39927204383673 50.33046885234005,138.56914502490832 47.830468852339905,137.89927204382343 45.33046885233624,138.56914502489516 43.50034183340784,140.39927204381394 42.830468852322944,142.89927204381408 43.500341833394685,145.39927204381775 45.33046885231345,147.22939906274615 47.830468852313594,147.89927204383105" stroke="#ffa500" stroke-linecap="round" stroke-linejoin="round"/><polyline fill="none" points="-49.4597778658674,-17.556698041506543 -46.959777865863735,-18.22657102257828 -45.129650846935334,-20.05669804149705 -44.45977786585044,-22.55669804149719 -45.129650846922175,-25.056698041500855 -46.95977786584094,-26.886825060429256 -49.45977786584108,-27.556698041514153 -51.95977786584475,-26.886825060442415 -53.78990488477315,-25.056698041523646 -54.45977786585805,-22.556698041523507 -53.78990488478632,-20.05669804151984 -51.95977786586755,-18.226571022591436 -49.45977786586741,-17.55669804150654" stroke="#00f" stroke-linecap="round" stroke-linejoin="round"/><polyline fill="none" points="-144.64954853362883,21.891844577079695 -142.14954853362516,21.22197159600796 -140.31942151469676,19.39184457708919 -139.64954853361186,16.891844577089053 -140.3194215146836,14.391844577085386 -142.14954853360237,12.561717558156982 -144.6495485336025,11.891844577072082 -147.14954853360618,12.561717558143815 -148.9796755525346,14.391844577062583 -149.64954853361948,16.891844577062724 -148.97967555254775,19.39184457706639 -147.14954853362897,21.221971595994795 -144.64954853362883,21.891844577079695" stroke="#00f" stroke-linecap="round" stroke-linejoin="round"/><polyline fill="none" points="97.9298493795673,131.25660290936574 100.42984937957097,130.586729928294 102.25997639849938,128.75660290937523 102.92984937958428,126.25660290937509 102.25997639851255,123.75660290937142 100.42984937959378,121.92647589044302 97.92984937959363,121.25660290935811 95.42984937958997,121.92647589042984 93.59972236066156,123.75660290934862 92.92984937957665,126.25660290934876 93.59972236064839,128.75660290935244 95.42984937956714,130.58672992828085 97.92984937956729,131.25660290936574" stroke="#ffa500" stroke-linecap="round" stroke-linejoin="round"/><polyline fill="none" points="53.6039618799908,124.88106570912804 56.10396187999447,124.2111927280563 57.93408889892288,122.38106570913754 58.60396188000779,119.8810657091374 57.93408889893606,117.38106570913374 56.103961880017295,115.55093869020533 53.60396188001715,114.88106570912042 51.103961880013486,115.55093869019215 49.27383486108508,117.38106570911091 48.60396188000017,119.88106570911106 49.2738348610719,122.38106570911472 51.10396187999066,124.21119272804313 53.603961879990806,124.88106570912804" stroke="#ffa500" stroke-linecap="round" stroke-linejoin="round"/><polyline fill="none" points="-0.47675201708625203,-25.44226018815457 2.023247982917418,-26.112133169226297 3.8533750018458295,-27.942260188145063 4.523247982930736,-30.4422601881452 3.8533750018590087,-32.94226018814887 2.0232479829402448,-34.77238720707729 -0.4767520170598947,-35.442260188162194 -2.9767520170635655,-34.77238720709047 -4.806879035991978,-32.9422601881717 -5.476752017076886,-30.442260188171563 -4.80687903600516,-27.942260188167893 -2.9767520170863975,-26.11213316923948 -0.4767520170862585,-25.442260188154574" stroke="#00f" stroke-linecap="round" stroke-linejoin="round"/><polyline fill="none" points="82.92531622827521,43.562153272271104 85.42531622827887,42.89228029119938 87.25544324720728,41.06215327228061 87.92531622829219,38.56215327228047 87.25544324722047,36.062153272276795 85.42531622830171,34.23202625334838 82.92531622830157,33.56215327226347 80.4253162282979,34.2320262533352 78.5951892093695,36.06215327225396 77.92531622828459,38.5621532722541 78.5951892093563,41.062153272257774 80.42531622827507,42.89228029118619 82.92531622827521,43.562153272271104" stroke="#ffa500" stroke-linecap="round" stroke-linejoin="round"/><polyline fill="none" points="50.170081956954,29.370787021542284 52.670081956957674,28.70091404047056 54.50020897588609,26.8707870215518 55.170081956971,24.37078702155166 54.500208975899284,21.870787021547986 52.670081956980525,20.040660002619568 50.17008195698038,19.370787021534653 47.67008195697671,20.040660002606376 45.839954938048294,21.87078702152514 45.17008195696338,24.370787021525278 45.8399549380351,26.87078702152895 47.67008195695386,28.70091404045737 50.170081956954,29.370787021542284" stroke="#00f" stroke-linecap="round" stroke-linejoin="round"/><polyline fill="none" points="25.250455853183766,137.45072828690283 27.75045585318744,136.7808553058311 29.58058287211586,134.95072828691232 30.250455853200773,132.45072828691218 29.580582872129053,129.95072828690851 27.750455853210294,128.1206012679801 25.250455853210156,127.45072828689518 22.75045585320648,128.1206012679669 20.92032883427806,129.95072828688566 20.25045585319314,132.4507282868858 20.92032883426486,134.95072828688947 22.75045585318362,136.78085530581788 25.25045585318376,137.4507282869028" stroke="#ffa500" stroke-linecap="round" stroke-linejoin="round"/><polyline fill="none" points="-17.0179273307485,26.272430835065848 -14.517927330744822,25.602557853994128 -12.6878003118164,23.77243083507537 -12.017927330731482,21.27243083507523 -12.6878003118032,18.772430835071553 -14.517927330721959,16.94230381614313 -17.0179273307221,16.272430835058213 -19.517927330725776,16.94230381612993 -21.3480543496542,18.772430835048688 -22.01792733073912,21.27243083504883 -21.348054349667404,23.772430835052507 -19.517927330748645,25.60255785398093 -17.017927330748506,26.27243083506585" stroke="#ffa500" stroke-linecap="round" stroke-linejoin="round"/><polyline fill="none" points="28.625209696176345,112.50682326697341 31.125209696180022,111.8369502859017 32.955336715108444,110.00682326698293 33.625209696193366,107.50682326698279 32.95533671512165,105.00682326697911 31.125209696202894,103.17669624805069 28.625209696202752,102.50682326696577 26.12520969619907,103.17669624803749 24.295082677270646,105.00682326695625 23.625209696185724,107.50682326695639 24.295082677257437,110.00682326696007 26.125209696176192,111.83695028588849 28.625209696176334,112.50682326697341" stroke="#ffa500" stroke-linecap="round" stroke-linejoin="round"/><polyline fill="none" points="84.42605745872578,56.58967740488694 86.92605745872946,55.91980442381523 88.75618447765788,54.08967740489647 89.4260574587428,51.58967740489633 88.7561844776711,49.08967740489265 86.92605745875234,47.25955038596422 84.4260574587522,46.58967740487929 81.92605745874852,47.259550385951 80.0959304398201,49.08967740486976 79.42605745873517,51.5896774048699 80.09593043980688,54.089677404873584 81.92605745872564,55.91980442380201 84.42605745872578,56.58967740488694" stroke="#ffa500" stroke-linecap="round" stroke-linejoin="round"/><polyline fill="none" points="34.960385890372095,32.44132364964524 37.460385890375775,31.77145066857353 39.290512909304205,29.941323649654773 39.960385890389134,27.44132364965463 39.29051290931742,24.941323649650947 37.46038589039867,23.111196630722517 34.96038589039853,22.44132364963759 32.460385890394846,23.111196630709298 30.630258871466413,24.941323649628053 29.960385890381485,27.441323649628195 30.630258871453194,29.94132364963188 32.460385890371946,31.771450668560313 34.96038589037209,32.44132364964524" stroke="#00f" stroke-linecap="round" stroke-linejoin="round"/><polyline fill="none" points="-19.59973066379741,109.45923581054247 -17.099730663793725,108.78936282947076 -15.269603644865292,106.959235810552 -14.599730663780361,104.45923581055186 -15.269603644852069,101.95923581054818 -17.09973066377082,100.12910879161974 -19.599730663770963,99.4592358105348 -22.099730663774647,100.12910879160651 -23.92985768270308,101.95923581052527 -24.599730663788012,104.45923581052541 -23.929857682716307,106.9592358105291 -22.099730663797555,108.78936282945753 -19.599730663797413,109.45923581054247" stroke="#ffa500" stroke-linecap="round" stroke-linejoin="round"/><polyline fill="none" points="-100.27821686381543,53.16433754659336 -97.77821686381175,52.49446456552165 -95.94808984488331,50.6643375466029 -95.27821686379838,48.16433754660276 -95.94808984487008,45.66433754659907 -97.77821686378884,43.834210527670635 -100.27821686378898,43.1643375465857 -102.77821686379266,43.834210527657405 -104.6083438827211,45.66433754657616 -105.27821686380604,48.1643375465763 -104.60834388273433,50.664337546579986 -102.77821686381559,52.49446456550842 -100.27821686381544,53.16433754659336" stroke="#00f" stroke-linecap="round" stroke-linejoin="round"/><polyline fill="none" points="-60.27436659012907,142.65315589607056 -57.77436659012538,141.98328291499885 -55.944239571196945,140.1531558960801 -55.27436659011201,137.65315589607997 -55.944239571183715,135.15315589607627 -57.77436659010247,133.32302887714783 -60.27436659010261,132.65315589606288 -62.7743665901063,133.3230288771346 -64.60449360903473,135.15315589605333 -65.27436659011967,137.65315589605348 -64.60449360904796,140.15315589605717 -62.77436659012921,141.9832829149856 -60.27436659012907,142.65315589607056" stroke="#ffa500" stroke-linecap="round" stroke-linejoin="round"/><polyline fill="none" points="-11.980207465573697,158.60500561862557 -9.48020746557001,157.93513263755386 -7.650080446641569,156.10500561863512 -6.98020746555663,153.60500561863498 -7.65008044662833,151.10500561863128 -9.480207465547078,149.27487859970284 -11.980207465547219,148.6050056186179 -14.480207465550908,149.2748785996896 -16.31033448447935,151.10500561860835 -16.980207465564288,153.6050056186085 -16.31033448449259,156.10500561861218 -14.48020746557384,157.93513263754062 -11.9802074655737,158.60500561862557" stroke="#ffa500" stroke-linecap="round" stroke-linejoin="round"/><polyline fill="none" points="-41.94951676608115,60.39022706968682 -39.449516766077465,59.720354088615125 -37.61938974714902,57.89022706969638 -36.94951676606408,55.39022706969624 -37.61938974713578,52.89022706969255 -39.44951676605452,51.060100050764106 -41.949516766054664,50.39022706967916 -44.44951676605835,51.06010005075086 -46.279643784986796,52.890227069669606 -46.94951676607174,55.39022706966975 -46.27964378500004,57.890227069673436 -44.449516766081295,59.72035408860188 -41.94951676608115,60.39022706968682" stroke="#008000" stroke-linecap="round" stroke-linejoin="round"/><polyline fill="none" points="-104.63578302490168,-8.584371297963896 -102.13578302489799,-9.254244279035593 -100.30565600596954,-11.08437129795434 -99.63578302488459,-13.584371297954482 -100.30565600595628,-16.084371297958175 -102.13578302487502,-17.914498316886622 -104.63578302487517,-18.58437129797157 -107.13578302487886,-17.914498316899873 -108.96591004380731,-16.08437129798113 -109.63578302489226,-13.584371297980987 -108.96591004382057,-11.084371297977295 -107.13578302490183,-9.254244279048848 -104.63578302490168,-8.584371297963902" stroke="#00f" stroke-linecap="round" stroke-linejoin="round"/><polyline fill="none" points="5.5623636474825995,92.7577099849563 8.062363647486293,92.08783700388462 9.89249066641474,90.25770998496587 10.562363647499689,87.75770998496573 9.892490666427996,85.25770998496203 8.062363647509251,83.42758296603358 5.562363647509109,82.75770998494863 3.0623636475054155,83.42758296602032 1.2322366285769664,85.25770998493907 0.5623636474920178,87.75770998493921 1.2322366285637107,90.2577099849429 3.062363647482456,92.08783700387136 5.562363647482599,92.7577099849563" stroke="#00f" stroke-linecap="round" stroke-linejoin="round"/><polyline fill="none" points="-109.90719535368537,34.38760002311406 -107.40719535368167,33.71772704204237 -105.57706833475322,31.887600023123625 -104.90719535366827,29.387600023123483 -105.57706833473996,26.887600023119788 -107.40719535365871,25.057473004191337 -109.90719535365885,24.387600023106387 -112.40719535366254,25.057473004178078 -114.237322372591,26.887600023096823 -114.90719535367595,29.387600023096965 -114.23732237260425,31.88760002310066 -112.40719535368551,33.71772704202911 -109.90719535368537,34.38760002311406" stroke="#00f" stroke-linecap="round" stroke-linejoin="round"/><polyline fill="none" points="-28.325849552829506,123.56086271912285 -25.82584955282581,122.89098973805116 -23.99572253389736,121.06086271913242 -23.325849552812407,118.56086271913227 -23.995722533884095,116.06086271912858 -25.825849552802836,114.23073570020013 -28.32584955280298,113.56086271911518 -30.825849552806673,114.23073570018687 -32.655976571735124,116.06086271910561 -33.32584955282008,118.56086271910576 -32.6559765717484,121.06086271910945 -30.825849552829656,122.8909897380379 -28.325849552829514,123.56086271912285" stroke="#ffa500" stroke-linecap="round" stroke-linejoin="round"/><polyline fill="none" points="-81.13322041307555,126.101447113025 -78.63322041307185,125.43157413195331 -76.8030933941434,123.60144711303457 -76.13322041305845,121.10144711303442 -76.80309339413014,118.60144711303073 -78.63322041304889,116.77132009410228 -81.13322041304903,116.10144711301733 -83.63322041305273,116.77132009408902 -85.46334743198118,118.60144711300777 -86.13322041306613,121.10144711300791 -85.46334743199444,123.6014471130116 -83.63322041307569,125.43157413194005 -81.13322041307555,126.10144711302502" stroke="#ffa500" stroke-linecap="round" stroke-linejoin="round"/><polyline fill="none" points="-18.59112412837295,-36.4515553184235 -16.091124128369252,-37.121428299495186 -14.260997109440796,-38.951555318413924 -13.591124128355837,-41.451555318414066 -14.260997109427521,-43.95155531841776 -16.09112412834626,-45.78168233734622 -18.5911241283464,-46.451555318431176 -21.0911241283501,-45.78168233735949 -22.921251147278557,-43.951555318440754 -23.591124128363518,-41.45155531844061 -22.921251147291834,-38.95155531843691 -21.091124128373096,-37.12142829950845 -18.591124128372954,-36.45155531842349" stroke="#ffa500" stroke-linecap="round" stroke-linejoin="round"/><polyline fill="none" points="-61.45978735594466,122.30126898074761 -58.95978735594096,121.63139599967593 -57.1296603370125,119.80126898075719 -56.45978735592754,117.30126898075704 -57.12966033699922,114.80126898075335 -58.95978735591796,112.97114196182488 -61.4597873559181,112.30126898073992 -63.959787355921804,112.9711419618116 -65.78991437485027,114.80126898073033 -66.45978735593523,117.30126898073047 -65.78991437486356,119.80126898073416 -63.95978735594482,121.63139599966263 -61.45978735594468,122.3012689807476" stroke="#ffa500" stroke-linecap="round" stroke-linejoin="round"/><polyline fill="none" points="15.257776226408549,58.31569722068033 17.75777622641225,57.64582423960865 19.587903245340712,55.81569722068991 20.257776226425676,53.31569722068977 19.587903245353996,50.81569722068607 17.757776226435258,48.985570201757604 15.257776226435116,48.31569722067264 12.757776226431414,48.985570201744316 10.92764920750295,50.815697220663054 10.257776226417985,53.315697220663196 10.927649207489662,55.8156972206669 12.757776226408398,57.64582423959536 15.257776226408538,58.31569722068033" stroke="#ffa500" stroke-linecap="round" stroke-linejoin="round"/><polyline fill="none" points="-16.976526226876047,43.32349880015037 -14.476526226872345,42.65362581907869 -12.64639920794388,40.82349880015995 -11.976526226858914,38.32349880015981 -12.64639920793059,35.82349880015611 -14.476526226849327,33.993371781227644 -16.97652622684947,33.32349880014268 -19.47652622685317,33.99337178121436 -21.306653245781636,35.823498800133095 -21.976526226866604,38.32349880013324 -21.306653245794926,40.82349880013694 -19.476526226876192,42.653625819065404 -16.97652622687605,43.323498800150375" stroke="#008000" stroke-linecap="round" stroke-linejoin="round"/><polyline fill="none" points="-77.81629041977686,82.14022026032004 -75.31629041977315,81.47034727924836 -73.48616340084469,79.64022026032963 -72.81629041975972,77.14022026032949 -73.4861634008314,74.64022026032578 -75.31629041975013,72.81009324139731 -77.81629041975027,72.14022026031235 -80.31629041975398,72.81009324138402 -82.14641743868245,74.64022026030275 -82.81629041976741,77.1402202603029 -82.14641743869574,79.6402202603066 -80.316290419777,81.47034727923507 -77.81629041977686,82.14022026032005" stroke="#00f" stroke-linecap="round" stroke-linejoin="round"/><polyline fill="none" points="-110.30280113368187,106.5435127789207 -107.80280113367816,105.87363979784902 -105.9726741147497,104.04351277893029 -105.30280113366472,101.54351277893015 -105.97267411473639,99.04351277892644 -107.80280113365512,97.21338575999798 -110.30280113365527,96.543512778913 -112.80280113365897,97.21338575998467 -114.63292815258744,99.0435127789034 -115.30280113367242,101.54351277890355 -114.63292815260074,104.04351277890726 -112.80280113368201,105.87363979783572 -110.30280113368187,106.5435127789207" stroke="#ffa500" stroke-linecap="round" stroke-linejoin="round"/><polyline fill="none" points="83.44002581144561,92.7323686720928 85.94002581144932,92.06249569102114 87.77015283037778,90.23236867210241 88.44002581146276,87.73236867210227 87.7701528303911,85.23236867209856 85.94002581147237,83.40224165317008 83.44002581147222,82.7323686720851 80.94002581146852,83.40224165315676 79.10989879254004,85.2323686720755 78.44002581145506,87.73236867207564 79.10989879252672,90.23236867207935 80.94002581144545,92.06249569100783 83.4400258114456,92.7323686720928" stroke="#00f" stroke-linecap="round" stroke-linejoin="round"/><polyline fill="none" points="-98.92617084602136,-91.20757139500708 -96.42617084601765,-91.87744437607874 -94.59604382708918,-93.70757139499747 -93.9261708460042,-96.20757139499761 -94.59604382707586,-98.70757139500132 -96.42617084599459,-100.5376984139298 -98.92617084599473,-101.20757139501478 -101.42617084599844,-100.53769841394312 -103.25629786492692,-98.70757139502439 -103.9261708460119,-96.20757139502425 -103.25629786494024,-93.70757139502054 -101.4261708460215,-91.87744437609206 -98.92617084602136,-91.20757139500708" stroke="#ffa500" stroke-linecap="round" stroke-linejoin="round"/><polyline fill="none" points="-96.80309034339494,87.53422968423497 -94.30309034339123,86.86435670316331 -92.47296332446275,85.03422968424458 -91.80309034337778,82.53422968424444 -92.47296332444944,80.03422968424073 -94.30309034336817,78.20410266531225 -96.80309034336831,77.53422968422727 -99.30309034337202,78.20410266529893 -101.1332173623005,80.03422968421766 -101.80309034338548,82.5342296842178 -101.13321736231381,85.03422968422151 -99.30309034339508,86.86435670315 -96.80309034339494,87.53422968423497" stroke="#ffa500" stroke-linecap="round" stroke-linejoin="round"/><polyline fill="none" points="-157.80360487279947,31.850464579304774 -155.30360487279574,31.18059159823311 -153.47347785386725,29.350464579314384 -152.80360487278227,26.85046457931424 -153.47347785385392,24.35046457931053 -155.30360487277264,22.52033756038205 -157.80360487277278,21.850464579297064 -160.3036048727765,22.520337560368723 -162.133731891705,24.35046457928745 -162.80360487278998,26.850464579287593 -162.13373189171833,29.350464579291305 -160.3036048727996,31.180591598219788 -157.80360487279947,31.850464579304774" stroke="#ffa500" stroke-linecap="round" stroke-linejoin="round"/><polyline fill="none" points="-66.05134036322387,61.214688938663954 -63.55134036322016,60.54481595759229 -61.721213344291684,58.71468893867357 -61.0513403632067,56.214688938673426 -61.721213344278354,53.71468893866971 -63.55134036319708,51.88456191974123 -66.05134036319721,51.214688938656245 -68.55134036320092,51.8845619197279 -70.3814673821294,53.714688938646624 -71.0513403632144,56.214688938646766 -70.38146738214273,58.71468893865048 -68.551340363224,60.54481595757897 -66.05134036322386,61.21468893866396" stroke="#008000" stroke-linecap="round" stroke-linejoin="round"/><polyline fill="none" points="-117.30123938685247,-53.911574255549965 -114.80123938684876,-54.58144723662162 -112.97111236792028,-56.411574255540344 -112.30123938683529,-58.911574255540486 -112.97111236790695,-61.4115742555442 -114.80123938682567,-63.24170127447269 -117.30123938682581,-63.91157425555768 -119.80123938682952,-63.241701274486026 -121.631366405758,-61.4115742555673 -122.301239386843,-58.91157425556716 -121.63136640577135,-56.411574255563444 -119.80123938685263,-54.58144723663496 -117.30123938685249,-53.911574255549965" stroke="#ffa500" stroke-linecap="round" stroke-linejoin="round"/><polyline fill="none" points="-110.59946981011458,-37.81848727620111 -108.09946981011088,-38.48836025727277 -106.26934279118238,-40.31848727619149 -105.59946981009739,-42.81848727619163 -106.26934279116904,-45.31848727619535 -108.09946981008775,-47.148614295123835 -110.5994698100879,-47.81848727620883 -113.0994698100916,-47.14861429513717 -114.9295968290201,-45.31848727621845 -115.59946981010509,-42.818487276218306 -114.92959682903344,-40.31848727621459 -113.09946981011473,-38.488360257286104 -110.59946981011458,-37.81848727620111" stroke="#00f" stroke-linecap="round" stroke-linejoin="round"/><polyline fill="none" points="40.96337998149577,-83.34693057465802 43.463379981499486,-84.01680355572967 45.29350700042797,-85.84693057464838 45.963379981512965,-88.34693057464852 45.293507000441316,-90.84693057465225 43.46337998152259,-92.67705759358074 40.96337998152245,-93.34693057466573 38.463379981518734,-92.67705759359409 36.63325296259024,-90.84693057467537 35.96337998150524,-88.34693057467523 36.63325296257689,-85.8469305746715 38.463379981495606,-84.01680355574301 40.96337998149575,-83.34693057465802" stroke="#00f" stroke-linecap="round" stroke-linejoin="round"/><polyline fill="none" points="-104.16846836866685,12.119627037625307 -101.66846836866313,11.449754056553656 -99.83834134973463,9.619627037634936 -99.16846836864964,7.119627037634796 -99.83834134972129,4.619627037631078 -101.66846836864,2.7895000187025856 -104.16846836864015,2.1196270376175868 -106.66846836864387,2.7895000186892354 -108.49859538757237,4.6196270376079545 -109.16846836865737,7.119627037608096 -108.49859538758572,9.619627037611814 -106.668468368667,11.449754056540307 -104.16846836866686,12.119627037625307" stroke="#00f" stroke-linecap="round" stroke-linejoin="round"/><polyline fill="none" points="-61.45623307666296,65.89127389414492 -58.956233076659245,65.22140091307327 -57.12610605773075,63.39127389415455 -56.45623307664575,60.89127389415441 -57.1261060577174,58.391273894150686 -58.95623307663612,56.56114687522219 -61.45623307663626,55.89127389413719 -63.956233076639975,56.56114687520884 -65.78636009556847,58.39127389412756 -66.45623307665348,60.8912738941277 -65.78636009558183,63.39127389413142 -63.95623307666311,65.22140091305992 -61.45623307666297,65.89127389414493" stroke="#ffa500" stroke-linecap="round" stroke-linejoin="round"/><polyline fill="none" points="-25.60295833582714,53.51689773834564 -23.10295833582342,52.847024757274 -21.272831316894923,51.01689773835528 -20.60295833580992,48.51689773835514 -21.272831316881565,46.01689773835142 -23.10295833580028,44.186770719422924 -25.602958335800423,43.51689773833792 -28.102958335804143,44.18677071940956 -29.93308535473264,46.016897738328275 -30.602958335817647,48.51689773832842 -29.933085354746005,51.01689773833214 -28.10295833582729,52.84702475726064 -25.602958335827147,53.51689773834565" stroke="#008000" stroke-linecap="round" stroke-linejoin="round"/><polyline fill="none" points="7.291080038316295,35.36141029612157 9.791080038320018,34.69153731504993 11.621207057248517,32.86141029613121 12.291080038333524,30.36141029613107 11.621207057261882,27.861410296127346 9.791080038343168,26.031283277198845 7.2910800383430265,25.36141029611384 4.791080038339304,26.03128327718548 2.9609530194108036,27.861410296104197 2.291080038325795,30.36141029610434 2.960953019397435,32.86141029610806 4.791080038316149,34.69153731503656 7.29108003831629,35.36141029612157" stroke="#ffa500" stroke-linecap="round" stroke-linejoin="round"/><polyline fill="none" points="-53.680652326360146,-124.07206407912781 -51.18065232635642,-124.74193706019945 -49.35052530742792,-126.57206407911816 -48.680652326342916,-129.0720640791183 -49.35052530741456,-131.57206407912201 -51.18065232633327,-133.4021910980505 -53.680652326333416,-134.07206407913552 -56.18065232633714,-133.40219109806387 -58.01077934526564,-131.57206407914515 -58.68065232635065,-129.072064079145 -58.01077934527901,-126.57206407914128 -56.180652326360295,-124.74193706021278 -53.68065232636015,-124.07206407912777" stroke="#ffa500" stroke-linecap="round" stroke-linejoin="round"/><polyline fill="none" points="-85.67059860205599,69.2652953880078 -83.17059860205227,68.59542240693617 -81.34047158312376,66.76529538801745 -80.67059860203875,64.26529538801731 -81.34047158311039,61.765295388013584 -83.1705986020291,59.935168369085076 -85.67059860202924,59.26529538800006 -88.17059860203297,59.9351683690717 -90.00072562096148,61.765295387990406 -90.67059860204648,64.26529538799055 -90.00072562097485,66.76529538799427 -88.17059860205613,68.59542240692278 -85.67059860205599,69.2652953880078" stroke="#ffa500" stroke-linecap="round" stroke-linejoin="round"/><polyline fill="none" points="17.85341011202973,-51.66594945870518 20.35341011203346,-52.33582243977681 22.183537130961966,-54.16594945869552 22.85341011204698,-56.665949458695664 22.183537130975346,-59.165949458699394 20.353410112056633,-60.9960764776279 17.85341011205649,-61.665949458712916 15.353410112052764,-60.99607647764128 13.523283093124256,-59.16594945872257 12.853410112039239,-56.66594945872243 13.523283093110873,-54.1659494587187 15.353410112029584,-52.33582243979019 17.853410112029728,-51.66594945870517" stroke="#ffa500" stroke-linecap="round" stroke-linejoin="round"/><polyline fill="none" points="-108.34657801254632,-90.22903709630451 -105.8465780125426,-90.89891007737614 -104.01645099361409,-92.72903709629486 -103.34657801252906,-95.229037096295 -104.0164509936007,-97.72903709629873 -105.84657801251942,-99.55916411522723 -108.34657801251956,-100.22903709631225 -110.84657801252328,-99.55916411524062 -112.67670503145179,-97.7290370963219 -113.34657801253681,-95.22903709632176 -112.67670503146518,-92.72903709631802 -110.84657801254646,-90.89891007738952 -108.34657801254632,-90.2290370963045" stroke="#ffa500" stroke-linecap="round" stroke-linejoin="round"/><polyline fill="none" points="74.34700709193352,-7.29926571034027 76.84700709193726,-7.9691386914119 78.67713411086577,-9.799265710330609 79.34700709195079,-12.29926571033075 78.67713411087915,-14.799265710334481 76.84700709196045,-16.629392729262996 74.34700709196031,-17.299265710348017 71.84700709195657,-16.62939272927639 70.01688007302806,-14.79926571035768 69.34700709194304,-12.299265710357538 70.01688007301468,-9.799265710353806 71.84700709193338,-7.969138691425291 74.34700709193352,-7.299265710340268" stroke="#00f" stroke-linecap="round" stroke-linejoin="round"/><polyline fill="none" points="92.91974658477004,-39.757868025484576 95.41974658477378,-40.427741006556204 97.2498736037023,-42.25786802547491 97.91974658478732,-44.757868025475055 97.24987360371568,-47.257868025478786 95.41974658479698,-49.0879950444073 92.91974658479684,-49.75786802549233 90.4197465847931,-49.0879950444207 88.58961956586458,-47.25786802550199 87.91974658477956,-44.75786802550185 88.58961956585118,-42.25786802549811 90.41974658476988,-40.4277410065696 92.91974658477002,-39.75786802548457" stroke="#00f" stroke-linecap="round" stroke-linejoin="round"/><polyline fill="none" points="-46.28319548529383,-2.1990970198501483 -43.78319548529009,-2.868970000921774 -41.95306846636158,-4.699097019840481 -41.28319548527655,-7.199097019840625 -41.95306846634818,-9.69909701984436 -43.78319548526689,-11.529224038772877 -46.28319548526703,-12.199097019857906 -48.78319548527077,-11.529224038786282 -50.61332250419929,-9.699097019867576 -51.28319548528432,-7.199097019867432 -50.6133225042127,-4.6990970198636965 -48.78319548529399,-2.8689700009351764 -46.283195485293845,-2.1990970198501465" stroke="#00f" stroke-linecap="round" stroke-linejoin="round"/><polyline fill="none" points="71.74136173003247,-58.69616403099514 74.2413617300362,-59.36603701206676 76.07148874896473,-61.196164030985464 76.74136173004976,-63.69616403098561 76.07148874897814,-66.19616403098934 74.24136173005944,-68.02629104991786 71.7413617300593,-68.6961640310029 69.24136173005556,-68.02629104993127 67.41123471112704,-66.19616403101257 66.741361730042,-63.69616403101243 67.41123471111362,-61.19616403100869 69.24136173003232,-59.36603701208017 71.74136173003247,-58.696164030995135" stroke="#00f" stroke-linecap="round" stroke-linejoin="round"/><polyline fill="none" points="-100.76433191008931,-100.17018107901411 -98.26433191008557,-100.84005406008573 -96.43420489115705,-102.67018107900444 -95.76433191007202,-105.17018107900458 -96.43420489114364,-107.67018107900832 -98.26433191006234,-109.50030809793684 -100.76433191006248,-110.17018107902187 -103.26433191006622,-109.50030809795025 -105.09445892899474,-107.67018107903155 -105.76433191007978,-105.17018107903141 -105.09445892900816,-102.67018107902767 -103.26433191008945,-100.84005406009915 -100.76433191008931,-100.17018107901411" stroke="#ffa500" stroke-linecap="round" stroke-linejoin="round"/><polyline fill="none" points="-130.39880988004455,-19.86913611969988 -127.89880988004082,-20.539009100771498 -126.0686828611123,-22.3691361196902 -125.39880988002726,-24.869136119690342 -126.06868286109888,-27.369136119694083 -127.89880988001758,-29.19926313862261 -130.39880988001772,-29.869136119707647 -132.89880988002147,-29.19926313863603 -134.72893689895,-27.36913611971733 -135.39880988003503,-24.869136119717187 -134.7289368989634,-22.369136119713446 -132.89880988004472,-20.539009100784916 -130.39880988004458,-19.869136119699878" stroke="#ffa500" stroke-linecap="round" stroke-linejoin="round"/><polyline fill="none" points="48.832755163414845,19.921629538609118 51.33275516341858,19.2517565575375 53.16288218234711,17.4216295386188 53.832755163432154,14.921629538618655 53.16288218236054,12.421629538614914 51.33275516344184,10.591502519686385 48.832755163441696,9.921629538601344 46.33275516343795,10.591502519672959 44.50262814450942,12.42162953859166 43.83275516342438,14.921629538591803 44.50262814449599,17.421629538595546 46.332755163414696,19.251756557524075 48.83275516341484,19.921629538609118" stroke="#00f" stroke-linecap="round" stroke-linejoin="round"/><polyline fill="none" points="-56.10331207020664,57.93973572165888 -53.6033120702029,57.269862740587264 -51.77318505127437,55.43973572166856 -51.103312070189325,52.93973572166842 -51.77318505126094,50.439735721664675 -53.60331207017964,48.609608702736146 -56.10331207017978,47.939735721651104 -58.60331207018353,48.60960870272272 -60.433439089112056,50.43973572164142 -61.1033120701971,52.93973572164156 -60.433439089125486,55.439735721645306 -58.60331207020678,57.26986274057384 -56.10331207020664,57.939735721658884" stroke="#008000" stroke-linecap="round" stroke-linejoin="round"/><polyline fill="none" points="27.101213894445376,-13.167967748630442 29.60121389444912,-13.837840729702052 31.431340913377653,-15.66796774862075 32.101213894462695,-18.167967748620892 31.431340913391086,-20.667967748624637 29.601213894472387,-22.49809476755317 27.101213894472245,-23.167967748638215 24.6012138944685,-22.498094767566606 22.771086875539964,-20.667967748647907 22.10121389445492,-18.167967748647765 22.771086875526528,-15.66796774864402 24.601213894445227,-13.837840729715486 27.10121389444537,-13.167967748630439" stroke="#ffa500" stroke-linecap="round" stroke-linejoin="round"/><polyline fill="none" points="-16.602116850835166,-122.89655751823045 -14.102116850831422,-123.56643049930206 -12.271989831902886,-125.39655751822076 -11.602116850817838,-127.8965575182209 -12.271989831889446,-130.39655751822465 -14.102116850808143,-132.22668453715318 -16.602116850808287,-132.8965575182382 -19.10211685081203,-132.2266845371666 -20.932243869740567,-130.3965575182479 -21.602116850825617,-127.89655751824776 -20.93224386975401,-125.39655751824401 -19.102116850835316,-123.56643049931547 -16.602116850835174,-122.89655751823042" stroke="#ffa500" stroke-linecap="round" stroke-linejoin="round"/><polyline fill="none" points="-99.1543961274117,-17.806638631247665 -96.65439612740795,-18.47651161231927 -94.82426910847941,-20.306638631237966 -94.15439612739436,-22.80663863123811 -94.82426910846597,-25.306638631241853 -96.65439612738467,-27.136765650170393 -99.15439612738481,-27.806638631255442 -101.65439612738857,-27.136765650183836 -103.4845231463171,-25.30663863126514 -104.15439612740215,-22.806638631265 -103.48452314633055,-20.30663863126125 -101.65439612741186,-18.47651161233271 -99.15439612741172,-17.806638631247658" stroke="#00f" stroke-linecap="round" stroke-linejoin="round"/><polyline fill="none" points="65.70819366082753,-54.22367589463574 68.20819366083128,-54.893548875707346 70.03832067975982,-56.72367589462604 70.70819366084487,-59.22367589462618 70.03832067977326,-61.72367589462993 68.20819366085458,-63.55380291355847 65.70819366085443,-64.22367589464352 63.20819366085068,-63.55380291357192 61.37806664192214,-61.723675894653226 60.70819366083708,-59.223675894653084 61.37806664190868,-56.72367589464933 63.20819366082738,-54.89354887572079 65.70819366082752,-54.22367589463573" stroke="#00f" stroke-linecap="round" stroke-linejoin="round"/><polyline fill="none" points="4.750493041254055,-71.2477334684583 7.250493041257803,-71.91760644952991 9.080620060186346,-73.7477334684486 9.750493041271403,-76.24773346844874 9.080620060199802,-78.7477334684525 7.25049304128111,-80.57786048738103 4.750493041280967,-81.2477334684661 2.2504930412772173,-80.57786048739449 0.42036602234867315,-78.7477334684758 -0.2495069587363844,-76.24773346847566 0.4203660223352146,-73.7477334684719 2.2504930412539066,-71.91760644954336 4.75049304125405,-71.24773346845829" stroke="#ffa500" stroke-linecap="round" stroke-linejoin="round"/><polyline fill="none" points="-124.6702902611721,-42.02685526831418 -122.17029026116835,-42.69672824938578 -120.3401632422398,-44.52685526830447 -119.67029026115473,-47.026855268304615 -120.34016324222632,-49.52685526830837 -122.17029026114501,-51.35698228723691 -124.67029026114515,-52.02685526832197 -127.1702902611489,-51.35698228725037 -129.00041728007744,-49.52685526833168 -129.6702902611625,-47.02685526833154 -129.00041728009091,-44.526855268327786 -127.17029026117223,-42.696728249399236 -124.67029026117208,-42.02685526831417" stroke="#ffa500" stroke-linecap="round" stroke-linejoin="round"/><polyline fill="none" points="-78.25266943088398,27.414241481015786 -75.75266943088023,26.74436849994419 -73.92254241195168,24.9142414810255 -73.25266943086662,22.414241481025357 -73.92254241193821,19.914241481021605 -75.7526694308569,18.08411446209306 -78.25266943085704,17.414241481007995 -80.75266943086079,18.08411446207959 -82.58279644978934,19.914241480998278 -83.2526694308744,22.41424148099842 -82.58279644980281,24.914241481002172 -80.75266943088413,26.744368499930722 -78.25266943088398,27.414241481015786" stroke="#008000" stroke-linecap="round" stroke-linejoin="round"/><polyline fill="none" points="-26.329691713654647,2.279143506150898 -23.82969171365089,1.6092705250793042 -21.99956469472234,-0.2208564938393851 -21.329691713637278,-2.7208564938395297 -21.99956469470887,-5.220856493843284 -23.829691713627557,-7.050983512771835 -26.329691713627703,-7.720856493856901 -28.82969171363146,-7.050983512785308 -30.659818732560012,-5.220856493866619 -31.32969171364508,-2.7208564938664748 -30.659818732573488,-0.22085649386272 -28.8296917136548,1.6092705250658328 -26.329691713654654,2.2791435061509" stroke="#ffa500" stroke-linecap="round" stroke-linejoin="round"/><polyline fill="none" points="-89.53170101959896,-84.98141149164863 -87.0317010195952,-85.65128447272022 -85.20157400066665,-87.48141149163891 -84.53170101958159,-89.98141149163905 -85.20157400065318,-92.4814114916428 -87.03170101957187,-94.31153851057135 -89.53170101957201,-94.98141149165642 -92.03170101957576,-94.31153851058482 -93.86182803850431,-92.48141149166614 -94.53170101958938,-89.981411491666 -93.86182803851779,-87.48141149166224 -92.0317010195991,-85.65128447273369 -89.53170101959896,-84.98141149164863" stroke="#ffa500" stroke-linecap="round" stroke-linejoin="round"/><polyline fill="none" points="-60.251770042647095,44.40561577823598 -57.75177004264334,43.73574279716439 -55.92164302371478,41.9056157782457 -55.25177004262971,39.40561577824556 -55.9216430237013,36.9056157782418 -57.75177004261999,35.075488759313245 -60.25177004262013,34.405615778228174 -62.75177004262389,35.07548875929976 -64.58189706155244,36.90561577821845 -65.25177004263752,39.40561577821859 -64.58189706156593,41.90561577822235 -62.75177004264724,43.735742797150905 -60.251770042647095,44.405615778235976" stroke="#00f" stroke-linecap="round" stroke-linejoin="round"/><polyline fill="none" points="-4.2839430401196,-9.182243184203703 -1.7839430401158411,-9.852116165275289 0.04618397881271763,-11.682243184193975 0.7160569598977908,-14.182243184194121 0.0461839788262044,-16.68224318419788 -1.7839430400924814,-18.51237020312644 -4.283943040092627,-19.182243184211515 -6.7839430400963865,-18.51237020313993 -8.614070059024947,-16.682243184221246 -9.283943040110021,-14.1822431842211 -8.614070059038436,-11.682243184217342 -6.783943040119751,-9.852116165288782 -4.283943040119605,-9.182243184203708" stroke="#ffa500" stroke-linecap="round" stroke-linejoin="round"/><polyline fill="none" points="-63.71707088273793,-40.387824069589364 -61.21707088273417,-41.05769705066095 -59.38694386380561,-42.887824069579636 -58.717070882720535,-45.38782406957978 -59.38694386379212,-47.88782406958354 -61.21707088271081,-49.717951088512095 -63.717070882710956,-50.38782406959717 -66.21707088271472,-49.71795108852559 -68.04719790164329,-47.88782406960691 -68.71707088272836,-45.387824069606765 -68.04719790165679,-42.887824069603006 -66.2170708827381,-41.05769705067444 -63.71707088273796,-40.387824069589364" stroke="#ffa500" stroke-linecap="round" stroke-linejoin="round"/></svg>