<?xml version="1.0" ?><!DOCTYPE svg  PUBLIC '-//W3C//DTD SVG 1.1//EN'  'http://www.w3.org/Graphics/SVG/1.1/DTD/svg11.dtd'><svg height="280.000" viewBox="-166.000 -140.000 353.000 280.000" width="353.000" xmlns="http://www.w3.org/2000/svg"><line fill="none" stroke="none" stroke-linecap="round" stroke-width="2.0" x1="0.0" x2="0.0" y1="0.0" y2="0.0"/><polygon fill="none" fill-rule="evenodd" points="0.0,0.0 0.0,0.0 0.0,0.0" stroke-linejoin="round"/><polyline fill="none" points="-24.893233378188857,16.363778272906014 -22.393233378185094,15.693905291834431 -20.56310635925653,13.863778272915749 -19.893233378171452,11.363778272915603 -20.563106359243033,8.86377827291184 -22.393233378161717,7.033651253983277 -24.893233378161863,6.363778272898198 -27.393233378165625,7.03365125396978 -29.22336039709419,8.863778272888464 -29.893233378179268,11.36377827288861 -29.223360397107687,13.863778272892372 -27.393233378189002,15.693905291820936 -24.893233378188857,16.363778272906018" stroke="#00f" stroke-linecap="round" stroke-linejoin="round"/><polyline fill="none" points="-39.760749308585346,-34.00783972494391 -37.26074930858158,-34.67771270601549 -35.430622289653016,-36.50783972493417 -34.76074930856794,-39.007839724934314 -35.430622289639516,-41.50783972493808 -37.260749308558196,-43.337966743866644 -39.76074930855834,-44.00783972495173 -42.260749308562104,-43.33796674388015 -44.09087632749067,-41.50783972496147 -44.760749308575754,-39.00783972496133 -44.090876327504176,-36.50783972495756 -42.260749308585495,-34.677712706029 -39.76074930858535,-34.00783972494391" stroke="#008000" stroke-linecap="round" stroke-linejoin="round"/><polyline fill="none" points="-26.69128704872513,-118.86141487953675 -24.191287048721364,-119.53128786060833 -22.361160029792796,-121.36141487952702 -21.69128704870771,-123.86141487952716 -22.36116002977929,-126.36141487953093 -24.19128704869797,-128.1915418984595 -26.691287048698115,-128.86141487954458 -29.19128704870188,-128.19154189847302 -31.02141406763045,-126.36141487955435 -31.691287048715534,-123.8614148795542 -31.021414067643956,-121.36141487955044 -29.191287048725275,-119.53128786062187 -26.69128704872513,-118.86141487953678" stroke="#ffa500" stroke-linecap="round" stroke-linejoin="round"/><polyline fill="none" points="-33.2834901561414,-37.77122068426044 -30.78349015613763,-38.44109366533202 -28.95336313720906,-40.2712206842507 -28.283490156123975,-42.77122068425085 -28.95336313719555,-45.271220684254615 -30.783490156114226,-47.10134770318319 -33.28349015611437,-47.77122068426827 -35.783490156118134,-47.101347703196694 -37.613617175046706,-45.27122068427801 -38.28349015613179,-42.771220684277864 -37.61361717506022,-40.2712206842741 -35.78349015614154,-38.44109366534553 -33.2834901561414,-37.77122068426044" stroke="#008000" stroke-linecap="round" stroke-linejoin="round"/><polyline fill="none" points="-39.4562271776864,26.528392565591528 -36.956227177682635,25.858519584519954 -35.12610015875406,24.028392565601276 -34.45622717766897,21.52839256560113 -35.12610015874054,19.028392565597365 -36.95622717765922,17.198265546668793 -39.45622717765937,16.528392565583705 -41.95622717766314,17.198265546655275 -43.78635419659171,19.028392565573952 -44.4562271776768,21.528392565574098 -43.78635419660523,24.028392565577867 -41.95622717768656,25.858519584506443 -39.456227177686415,26.528392565591535" stroke="#00f" stroke-linecap="round" stroke-linejoin="round"/><polyline fill="none" points="-55.53313494798958,-69.46042096093124 -53.033134947985815,-70.13029394200282 -51.203007929057236,-71.9604209609215 -50.533134947972144,-74.46042096092164 -51.203007929043714,-76.9604209609254 -53.03313494796239,-78.79054797985398 -55.53313494796254,-79.46042096093908 -58.0331349479663,-78.79054797986751 -59.86326196689488,-76.96042096094884 -60.533134947979974,-74.4604209609487 -59.863261966908404,-71.96042096094493 -58.03313494798973,-70.13029394201635 -55.53313494798958,-69.46042096093126" stroke="#00f" stroke-linecap="round" stroke-linejoin="round"/><polyline fill="none" points="129.13048865273566,-113.00892003298881 131.63048865273944,-113.67879301406037 133.46061567166802,-115.50892003297905 134.13048865275312,-118.00892003297919 133.46061567168155,-120.50892003298296 131.63048865276286,-122.33904705191154 129.13048865276272,-123.00892003299663 126.63048865275896,-122.33904705192506 124.80036163383038,-120.50892003300639 124.13048865274529,-118.00892003300625 124.80036163381685,-115.50892003300248 126.63048865273552,-113.6787930140739 129.13048865273566,-113.00892003298881" stroke="#ffa500" stroke-linecap="round" stroke-linejoin="round"/><polyline fill="none" points="-80.46327999632389,-74.97116452848353 -77.96327999632013,-75.64103750955509 -76.13315297739155,-77.47116452847376 -75.46327999630645,-79.9711645284739 -76.13315297737802,-82.47116452847767 -77.96327999629669,-84.30129154740625 -80.46327999629683,-84.97116452849134 -82.9632799963006,-84.30129154741978 -84.79340701522918,-82.4711645285011 -85.46327999631428,-79.97116452850096 -84.79340701524272,-77.47116452849718 -82.96327999632405,-75.6410375095686 -80.4632799963239,-74.9711645284835" stroke="#00f" stroke-linecap="round" stroke-linejoin="round"/><polyline fill="none" points="72.7660652531222,-50.50944626512678 75.26606525312599,-51.17931924619835 77.09619227205457,-53.00944626511702 77.76606525313967,-55.50944626511717 77.09619227206811,-58.00944626512094 75.26606525314943,-59.83957328404953 72.76606525314929,-60.50944626513463 70.26606525314551,-59.839573284063064 68.43593823421693,-58.00944626514439 67.76606525313183,-55.50944626514424 68.43593823420339,-53.00944626514047 70.26606525312206,-51.17931924621188 72.7660652531222,-50.509446265126776" stroke="#ffa500" stroke-linecap="round" stroke-linejoin="round"/><polyline fill="none" points="156.0598829645739,-70.36417630419658 158.55988296457767,-71.03404928526814 160.39000998350625,-72.86417630418681 161.05988296459134,-75.36417630418696 160.39000998351978,-77.86417630419074 158.55988296460112,-79.69430332311933 156.05988296460097,-80.36417630420443 153.5598829645972,-79.69430332313287 151.72975594566861,-77.8641763042142 151.05988296458352,-75.36417630421406 151.72975594565509,-72.86417630421028 153.55988296457375,-71.03404928528168 156.0598829645739,-70.36417630419658" stroke="#00f" stroke-linecap="round" stroke-linejoin="round"/><polyline fill="none" points="-36.12602906142701,-56.279352284927846 -33.62602906142324,-56.9492252659994 -31.795902042494653,-58.779352284918076 -31.126029061409547,-61.279352284918225 -31.795902042481107,-63.779352284922 -33.62602906139978,-65.60947930385059 -36.126029061399926,-66.2793522849357 -38.6260290614037,-65.60947930386413 -40.456156080332285,-63.77935228494547 -41.12602906141739,-61.27935228494532 -40.456156080345835,-58.77935228494154 -38.62602906142717,-56.94922526601295 -36.12602906142702,-56.279352284927846" stroke="#00f" stroke-linecap="round" stroke-linejoin="round"/><polyline fill="none" points="60.2979583343492,29.533658995108485 62.79795833435298,28.86378601403693 64.62808535328156,27.03365899511826 65.29795833436667,24.533658995118113 64.62808535329512,22.033658995114337 62.79795833437645,20.203531976185747 60.297958334376304,19.533658995100637 57.797958334372524,20.203531976172194 55.96783131544393,22.03365899509086 55.297958334358825,24.533658995091006 55.96783131543038,27.033658995094783 57.79795833434905,28.863786014023372 60.29795833434919,29.533658995108482" stroke="#00f" stroke-linecap="round" stroke-linejoin="round"/><polyline fill="none" points="29.429206601003283,-80.31089723365972 31.92920660100706,-80.98077021473127 33.75933361993565,-82.81089723364994 34.429206601020766,-85.31089723365008 33.75933361994921,-87.81089723365386 31.929206601030543,-89.64102425258245 29.429206601030398,-90.31089723366756 26.92920660102662,-89.64102425259601 25.099079582098028,-87.81089723367734 24.429206601012915,-85.3108972336772 25.099079582084467,-82.81089723367342 26.929206601003134,-80.98077021474482 29.42920660100328,-80.31089723365972" stroke="#ffa500" stroke-linecap="round" stroke-linejoin="round"/><polyline fill="none" points="68.28782154151061,-40.1856284760398 70.78782154151439,-40.85550145711135 72.61794856044298,-42.68562847603002 73.28782154152809,-45.18562847603016 72.61794856045654,-47.68562847603394 70.78782154153788,-49.515755494962534 68.28782154153774,-50.18562847604765 65.78782154153396,-49.5157554949761 63.957694522605365,-47.68562847605743 63.28782154152025,-45.18562847605729 63.9576945225918,-42.68562847605351 65.78782154151047,-40.855501457124916 68.28782154151061,-40.1856284760398" stroke="#ffa500" stroke-linecap="round" stroke-linejoin="round"/><polyline fill="none" points="58.963273660486834,-69.96940502072819 61.463273660490614,-70.63927800179974 63.29340067941921,-72.4694050207184 63.96327366050432,-74.96940502071854 63.29340067943277,-77.46940502072232 61.463273660514105,-79.29953203965091 58.96327366051396,-79.96940502073603 56.46327366051018,-79.29953203966448 54.63314664158158,-77.46940502074582 53.96327366049646,-74.96940502074568 54.63314664156801,-72.4694050207419 56.46327366048668,-70.63927800181331 58.96327366048682,-69.96940502072819" stroke="#ffa500" stroke-linecap="round" stroke-linejoin="round"/><polyline fill="none" points="-33.19059124683066,-77.99094177202129 -30.690591246826877,-78.66081475309284 -28.86046422789828,-80.4909417720115 -28.190591246813163,-82.99094177201164 -28.860464227884712,-85.49094177201542 -30.690591246803375,-87.32106879094401 -33.19059124680352,-87.99094177202913 -35.6905912468073,-87.32106879095758 -37.5207182657359,-85.49094177203892 -38.19059124682102,-82.99094177203878 -37.52071826574947,-80.490941772035 -35.690591246830806,-78.66081475310641 -33.19059124683066,-77.99094177202129" stroke="#00f" stroke-linecap="round" stroke-linejoin="round"/><polyline fill="none" points="-26.412398032437082,-26.020092841458624 -23.9123980324333,-26.68996582253017 -22.0822710135047,-28.520092841448832 -21.412398032419578,-31.020092841448978 -22.082271013491123,-33.52009284145276 -23.912398032409786,-35.35021986038136 -26.412398032409932,-36.02009284146648 -28.912398032413716,-35.35021986039494 -30.742525051342316,-33.52009284147628 -31.412398032427436,-31.02009284147613 -30.74252505135589,-28.520092841472348 -28.91239803243723,-26.689965822543748 -26.412398032437086,-26.020092841458624" stroke="#00f" stroke-linecap="round" stroke-linejoin="round"/><polyline fill="none" points="19.16447723954594,-10.365399296595276 21.664477239549722,-11.03527227766682 23.494604258478326,-12.865399296585482 24.16447723956345,-15.365399296585627 23.494604258491908,-17.865399296589413 21.664477239573248,-19.695526315518016 19.164477239573102,-20.36539929660314 16.66447723956932,-19.6955263155316 14.834350220640715,-17.86539929661294 14.164477239555591,-15.365399296612793 14.834350220627133,-12.865399296609008 16.664477239545793,-11.035272277680404 19.16447723954594,-10.365399296595278" stroke="#ffa500" stroke-linecap="round" stroke-linejoin="round"/><polyline fill="none" points="-52.93417328816966,-76.30029896139408 -50.43417328816587,-76.97017194246561 -48.604046269237266,-78.80029896138427 -47.93417328815214,-81.30029896138441 -48.60404626922368,-83.8002989613882 -50.43417328814234,-85.6304259803168 -52.93417328814248,-86.30029896140192 -55.43417328814627,-85.63042598033039 -57.264300307074876,-83.80029896141173 -57.934173288160004,-81.30029896141158 -57.26430030708846,-78.8002989614078 -55.4341732881698,-76.9701719424792 -52.93417328816966,-76.30029896139406" stroke="#00f" stroke-linecap="round" stroke-linejoin="round"/><polyline fill="none" points="38.20445332452803,13.907997186011572 40.70445332453182,13.238124204940034 42.534580343460426,11.407997186021376 43.204453324545554,8.90799718602123 42.53458034347402,6.407997186017443 40.70445332455536,4.577870167088836 38.20445332455522,3.907997186003706 35.70445332455143,4.577870167075243 33.87432630562282,6.407997185993901 33.204453324537695,8.907997185994047 33.87432630560923,11.407997185997834 35.70445332452789,13.238124204926443 38.20445332452803,13.907997186011574" stroke="#00f" stroke-linecap="round" stroke-linejoin="round"/><polyline fill="none" points="72.6456123570249,-22.807958546852493 75.1456123570287,-23.477831527924028 76.9757393759573,-25.307958546842684 77.64561235704244,-27.80795854684283 76.9757393759709,-30.307958546846617 75.14561235705224,-32.13808556577523 72.6456123570521,-32.80795854686036 70.14561235704831,-32.13808556578883 68.3154853381197,-30.30795854687017 67.64561235703457,-27.807958546870026 68.3154853381061,-25.30795854686624 70.14561235702476,-23.477831527937628 72.6456123570249,-22.807958546852493" stroke="#ffa500" stroke-linecap="round" stroke-linejoin="round"/><polyline fill="none" points="-39.236119558908285,-69.69629354404393 -36.7361195589045,-70.36616652511546 -34.905992539975884,-72.19629354403412 -34.23611955889075,-74.69629354403426 -34.905992539962284,-77.19629354403806 -36.73611955888094,-79.02642056296666 -39.23611955888108,-79.6962935440518 -41.736119558884866,-79.02642056298026 -43.56624657781348,-77.1962935440616 -44.236119558898615,-74.69629354406146 -43.56624657782708,-72.19629354405767 -41.73611955890843,-70.36616652512906 -39.236119558908285,-69.69629354404393" stroke="#ffa500" stroke-linecap="round" stroke-linejoin="round"/><polyline fill="none" points="112.56847147816714,-4.375549784557862 115.06847147817093,-5.045422765629393 116.89859849709954,-6.875549784548047 117.56847147818468,-9.375549784548191 116.89859849711314,-11.875549784551982 115.06847147819448,-13.705676803480596 112.56847147819434,-14.375549784565735 110.06847147819055,-13.705676803494205 108.23834445926192,-11.875549784575552 107.56847147817679,-9.375549784575407 108.23834445924832,-6.875549784571614 110.06847147816698,-5.045422765642998 112.56847147816713,-4.375549784557858" stroke="#ffa500" stroke-linecap="round" stroke-linejoin="round"/><polyline fill="none" points="3.6313388726219977,14.608677986594786 6.131338872625791,13.938805005523257 7.961465891554408,12.108677986604604 8.631338872639548,9.608677986604459 7.96146589156802,7.108677986600666 6.131338872649367,5.278550967672048 3.6313388726492217,4.608677986586907 1.1313388726454288,5.278550967658435 -0.6987881462831893,7.108677986577087 -1.368661127368331,9.608677986577232 -0.698788146296804,12.108677986581025 1.1313388726218474,13.938805005509643 3.631338872621993,14.608677986594785" stroke="#00f" stroke-linecap="round" stroke-linejoin="round"/><polyline fill="none" points="24.026969367816395,49.39466966941099 26.52696936782019,48.72479668833946 28.357096386748808,46.89466966942081 29.02696936783395,44.394669669420665 28.35709638676242,41.89466966941687 26.52696936784377,40.06454265048825 24.026969367843623,39.39466966940311 21.52696936783983,40.064542650474635 19.69684234891121,41.89466966939329 19.026969367826066,44.39466966939344 19.69684234889759,46.89466966939723 21.52696936781624,48.72479668832585 24.026969367816385,49.394669669410995" stroke="#ffa500" stroke-linecap="round" stroke-linejoin="round"/><polyline fill="none" points="101.79089471166675,11.032935607837544 104.29089471167055,10.36306262676602 106.12102173059917,8.532935607847369 106.79089471168432,6.032935607847223 106.1210217306128,3.5329356078434277 104.29089471169415,1.7028085889148061 101.79089471169401,1.0329356078296603 99.29089471169021,1.7028085889011841 97.46076769276159,3.5329356078198337 96.79089471167644,6.032935607819979 97.46076769274796,8.532935607823775 99.29089471166661,10.363062626752399 101.79089471166675,11.032935607837546" stroke="#ffa500" stroke-linecap="round" stroke-linejoin="round"/><polyline fill="none" points="169.58577385032086,-58.66804145001125 172.08577385032467,-59.33791443108277 173.9159008692533,-61.16804145000142 174.58577385033846,-63.66804145000157 173.91590086926692,-66.16804145000536 172.08577385034826,-67.99816846893398 169.58577385034812,-68.66804145001913 167.0857738503443,-67.99816846894761 165.25564683141567,-66.16804145002897 164.58577385033053,-63.668041450028824 165.25564683140203,-61.16804145002503 167.0857738503207,-59.33791443109641 169.58577385032083,-58.66804145001126" stroke="#ffa500" stroke-linecap="round" stroke-linejoin="round"/><polyline fill="none" points="28.66395224508388,-11.554719048028883 31.16395224508768,-12.224592029100403 32.99407926401631,-14.05471904801905 33.663952245101456,-16.554719048019194 32.994079264029935,-19.054719048022992 31.16395224511129,-20.884846066951617 28.663952245111144,-21.55471904803677 26.163952245107346,-20.884846066965252 24.333825226178718,-19.054719048046607 23.663952245093565,-16.55471904804646 24.333825226165082,-14.054719048042664 26.163952245083728,-12.224592029114035 28.663952245083873,-11.554719048028883" stroke="#ffa500" stroke-linecap="round" stroke-linejoin="round"/><polyline fill="none" points="57.44974770420201,65.53101363949571 59.94974770420581,64.86114065842419 61.77987472313444,63.031013639505545 62.4497477042196,60.5310136395054 61.77987472314808,58.0310136395016 59.94974770422944,56.20088662057297 57.449747704229296,55.53101363948782 54.949747704225494,56.20088662055933 53.119620685296866,58.031013639477976 52.44974770421171,60.53101363947812 53.11962068528322,63.03101363948192 54.94974770420187,64.86114065841055 57.44974770420201,65.5310136394957" stroke="#ffa500" stroke-linecap="round" stroke-linejoin="round"/><polyline fill="none" points="49.45062711656007,22.184051441472146 51.95062711656387,21.514178460400633 53.7807541354925,19.684051441481987 54.45062711657766,17.18405144148184 53.78075413550614,14.68405144147804 51.9506271165875,12.853924422549408 49.450627116587356,12.18405144146425 46.950627116583554,12.853924422535764 45.120500097654926,14.684051441454407 44.45062711656977,17.184051441454553 45.12050009764128,19.684051441458355 46.95062711655993,21.514178460386987 49.45062711656007,22.184051441472146" stroke="#ffa500" stroke-linecap="round" stroke-linejoin="round"/><polyline fill="none" points="113.7037006849167,34.783911643088906 116.2037006849205,34.11403866201739 118.03382770384914,32.28391164309875 118.7037006849343,29.7839116430986 118.0338277038628,27.2839116430948 116.20370068494415,25.453784624166165 113.70370068494401,24.783911643081005 111.2037006849402,25.453784624152515 109.37357366601157,27.283911643071157 108.7037006849264,29.783911643071303 109.37357366599791,32.28391164307511 111.20370068491656,34.11403866200374 113.7037006849167,34.783911643088906" stroke="#ffa500" stroke-linecap="round" stroke-linejoin="round"/><polyline fill="none" points="83.19004086534365,27.630973716182716 85.69004086534746,26.961100735111206 87.52016788427609,25.130973716192564 88.19004086536125,22.63097371619242 87.52016788428975,20.130973716188613 85.6900408653711,18.300846697259978 83.19004086537096,17.630973716174815 80.69004086536715,18.300846697246325 78.85991384643852,20.130973716164966 78.19004086535335,22.630973716165112 78.85991384642486,25.130973716168917 80.6900408653435,26.961100735097556 83.19004086534365,27.63097371618272" stroke="#00f" stroke-linecap="round" stroke-linejoin="round"/><polyline fill="none" points="-54.87738375514035,16.9725058580921 -52.37738375513655,16.302632877020592 -50.54725673620791,14.472505858101952 -49.87738375512275,11.972505858101806 -50.54725673619426,9.472505858098001 -52.377383755112895,7.642378839169362 -54.877383755113044,6.9725058580841965 -57.37738375511685,7.642378839155703 -59.20751077404549,9.472505858074342 -59.87738375513065,11.972505858074488 -59.207510774059145,14.472505858078293 -57.37738375514051,16.302632877006932 -54.877383755140364,16.9725058580921" stroke="#00f" stroke-linecap="round" stroke-linejoin="round"/><polyline fill="none" points="62.47606141803196,36.45919969877155 64.97606141803577,35.78932671770004 66.8061884369644,33.959199698781404 67.47606141804957,31.45919969878126 66.80618843697806,28.959199698777454 64.97606141805943,27.12907267984881 62.47606141805929,26.45919969876364 59.97606141805548,27.129072679835144 58.14593439912684,28.959199698753782 57.47606141804167,31.459199698753928 58.145934399113166,33.959199698757736 59.976061418031804,35.78932671768638 62.47606141803195,36.45919969877155" stroke="#ffa500" stroke-linecap="round" stroke-linejoin="round"/><polyline fill="none" points="57.44867608701734,49.1138863683191 59.94867608702115,48.4440133872476 61.77880310594979,46.61388636832896 62.44867608703496,44.11388636832882 61.77880310596346,41.61388636832501 59.948676087044824,39.78375934939637 57.448676087044674,39.1138863683112 54.948676087040866,39.7837593493827 53.11854906811222,41.61388636830134 52.44867608702705,44.11388636830148 53.11854906809855,46.61388636830529 54.94867608701719,48.44401338723393 57.44867608701733,49.1138863683191" stroke="#ffa500" stroke-linecap="round" stroke-linejoin="round"/><polyline fill="none" points="163.69739288980531,-23.43021224318597 166.19739288980912,-24.10008522425747 168.02751990873776,-25.930212243176104 168.69739288982294,-28.43021224317625 168.02751990875143,-30.93021224318006 166.1973928898328,-32.76033926210871 163.69739288983266,-33.430212243193886 161.19739288982885,-32.760339262122386 159.3672658709002,-30.93021224320375 158.69739288981503,-28.430212243203606 159.36726587088654,-25.930212243199797 161.19739288980517,-24.10008522427115 163.69739288980531,-23.430212243185977" stroke="#ffa500" stroke-linecap="round" stroke-linejoin="round"/><polyline fill="none" points="75.44365681905225,36.97503427005397 77.94365681905606,36.30516128898247 79.77378383798471,34.47503427006383 80.44365681906989,31.975034270063684 79.7737838379984,29.475034270059872 77.94365681907976,27.644907251131222 75.44365681907962,26.975034270046045 72.94365681907581,27.64490725111754 71.11352980014716,29.475034270036176 70.44365681906199,31.97503427003632 71.11352980013348,34.47503427004013 72.94365681905211,36.30516128896878 75.44365681905225,36.97503427005396" stroke="#ffa500" stroke-linecap="round" stroke-linejoin="round"/><polyline fill="none" points="95.86430618541286,33.71995261947023 98.36430618541667,33.05007963839873 100.19443320434532,31.219952619480093 100.8643061854305,28.719952619479947 100.194433204359,26.219952619476135 98.36430618544037,24.389825600547486 95.86430618544023,23.719952619462305 93.36430618543642,24.3898256005338 91.53417916650777,26.21995261945243 90.86430618542259,28.719952619452577 91.53417916649408,31.21995261945639 93.36430618541272,33.05007963838504 95.86430618541286,33.71995261947022" stroke="#ffa500" stroke-linecap="round" stroke-linejoin="round"/><polyline fill="none" points="157.4924267973581,-11.239383460042976 159.9924267973619,-11.909256441114469 161.82255381629057,-13.7393834600331 162.49242679737574,-16.239383460033245 161.82255381630424,-18.739383460037057 159.9924267973856,-20.56951047896571 157.49242679738546,-21.23938346005089 154.99242679738165,-20.5695104789794 153.162299778453,-18.73938346006077 152.4924267973678,-16.239383460060623 153.1622997784393,-13.739383460056809 154.99242679735792,-11.909256441128154 157.49242679735806,-11.23938346004297" stroke="#ffa500" stroke-linecap="round" stroke-linejoin="round"/><polyline fill="none" points="88.28084125712954,43.90631380549169 90.78084125713335,43.2364408244202 92.610968276062,41.40631380550157 93.28084125714719,38.906313805501426 92.6109682760757,36.40631380549761 90.78084125715706,34.576186786568954 88.28084125715692,33.90631380548377 85.78084125715311,34.57618678655526 83.95071423822446,36.40631380547389 83.28084125713927,38.906313805474035 83.95071423821076,41.40631380547785 85.7808412571294,43.23644082440651 88.28084125712954,43.90631380549169" stroke="#ffa500" stroke-linecap="round" stroke-linejoin="round"/><polyline fill="none" points="115.97748256337911,66.19858304785134 118.47748256338294,65.52871006677985 120.3076095823116,63.69858304786122 120.97748256339679,61.19858304786108 120.3076095823253,58.69858304785726 118.47748256340667,56.868456028928605 115.97748256340653,56.198583047843414 113.4774825634027,56.8684560289149 111.64735554447404,58.69858304783353 110.97748256338885,61.19858304783368 111.64735554446034,63.698583047837495 113.47748256337897,65.52871006676615 115.97748256337911,66.19858304785134" stroke="#ffa500" stroke-linecap="round" stroke-linejoin="round"/><polyline fill="none" points="2.6823270957000522,27.362697926581735 5.1823270957038705,26.69282494551025 7.012454114632531,24.862697926591622 7.682327095717722,22.362697926591476 7.012454114646237,19.862697926587657 5.182327095727611,18.032570907658997 2.6823270957274654,17.362697926573805 0.18232709572364714,18.03257090764529 -1.6477999232050144,19.862697926563918 -2.3176729042902062,22.362697926564064 -1.6477999232187226,24.862697926567883 0.18232709569990369,26.692824945496547 2.6823270957000496,27.36269792658174" stroke="#ffa500" stroke-linecap="round" stroke-linejoin="round"/><polyline fill="none" points="106.74038445029971,74.91333565363041 109.24038445030354,74.24346267255893 111.0705114692322,72.4133356536403 111.74038445031739,69.91333565364016 111.07051146924591,67.41333565363634 109.24038445032728,65.58320863470767 106.74038445032714,64.91333565362248 104.24038445032332,65.58320863469396 102.41025743139465,67.41333565361259 101.74038445030946,69.91333565361273 102.41025743138094,72.41333565361656 104.24038445029957,74.24346267254522 106.74038445029971,74.91333565363041" stroke="#ffa500" stroke-linecap="round" stroke-linejoin="round"/><polyline fill="none" points="-35.57500791667874,9.609358451891168 -33.07500791667492,8.939485470819687 -31.244880897746256,7.109358451901062 -30.57500791666106,4.609358451900917 -31.244880897732543,2.1093584518970965 -33.07500791665117,0.2792314329684309 -35.575007916651316,-0.39064154811676577 -38.07500791665514,0.27923143295471375 -39.9051349355838,2.1093584518733377 -40.575007916669,4.609358451873483 -39.90513493559752,7.109358451877304 -38.0750079166789,8.939485470805971 -35.57500791667876,9.60935845189117" stroke="#008000" stroke-linecap="round" stroke-linejoin="round"/><polyline fill="none" points="26.302525430112233,93.52540533606256 28.802525430116056,92.85553235499108 30.632652449044723,91.02540533607247 31.302525430129922,88.52540533607232 30.632652449058444,86.0254053360685 28.80252543013982,84.19527831713984 26.302525430139674,83.52540533605463 23.80252543013585,84.19527831712611 21.972398411207184,86.02540533604473 21.302525430121985,88.52540533604487 21.972398411193463,91.02540533604869 23.802525430112084,92.85553235497736 26.30252543011223,93.52540533606256" stroke="#ffa500" stroke-linecap="round" stroke-linejoin="round"/><polyline fill="none" points="71.38641073751866,78.4963336703889 73.88641073752248,77.82646068931743 75.71653775645115,75.99633367039881 76.38641073753635,73.49633367039867 75.71653775646487,70.99633367039485 73.88641073754626,69.16620665146618 71.38641073754611,68.49633367038098 68.88641073754229,69.16620665145246 67.05628371861363,70.99633367037107 66.38641073752842,73.49633367037121 67.0562837185999,75.99633367037504 68.88641073751852,77.82646068930372 71.38641073751866,78.49633367038892" stroke="#ffa500" stroke-linecap="round" stroke-linejoin="round"/><polyline fill="none" points="-14.17350724111559,52.40020585349581 -11.673507241111766,51.73033287242434 -9.843380222183093,49.900205853505724 -9.173507241097889,47.40020585350558 -9.843380222169362,44.90020585350176 -11.673507241087982,43.07007883457309 -14.173507241088128,42.40020585348788 -16.673507241091954,43.070078834559354 -18.50363426002063,44.90020585347797 -19.173507241105835,47.40020585347811 -18.503634260034364,49.900205853481935 -16.673507241115743,51.73033287241061 -14.173507241115598,52.40020585349581" stroke="#ffa500" stroke-linecap="round" stroke-linejoin="round"/><polyline fill="none" points="-108.7927482030375,1.1173246231135243 -106.29274820303368,0.4474516420420531 -104.462621184105,-1.382675376876566 -103.7927482030198,-3.882675376876712 -104.46262118409126,-6.382675376880538 -106.29274820300988,-8.212802395809213 -108.79274820301002,-8.88267537689442 -111.29274820301384,-8.21280239582295 -113.12287522194252,-6.382675376904331 -113.79274820302773,-3.882675376904185 -113.12287522195626,-1.3826753769003588 -111.29274820303765,0.447451642028317 -108.7927482030375,1.1173246231135257" stroke="#00f" stroke-linecap="round" stroke-linejoin="round"/><polyline fill="none" points="-50.0988976248054,20.344889225107945 -47.59889762480157,19.675016244036478 -45.768770605872895,17.84488922511786 -45.09889762478768,15.344889225117715 -45.76877060585915,12.844889225113887 -47.59889762477777,11.014762206185209 -50.09889762477792,10.3448892251 -52.59889762478175,11.014762206171467 -54.42902464371043,12.844889225090085 -55.09889762479564,15.344889225090231 -54.429024643724176,17.844889225094057 -52.59889762480556,19.675016244022736 -50.09889762480542,20.34488922510795" stroke="#00f" stroke-linecap="round" stroke-linejoin="round"/><polyline fill="none" points="3.0438827849265024,59.94466503245255 5.5438827849303305,59.274792051381084 7.37400980385901,57.44466503246247 8.043882784944222,54.944665032462325 7.374009803872755,52.444665032458495 5.543882784954139,50.61453801352982 3.0438827849539933,49.944665032444604 0.5438827849501644,50.61453801351607 -1.2862442339785156,52.444665032434685 -1.956117215063729,54.94466503243483 -1.2862442339922642,57.44466503243866 0.5438827849263512,59.274792051367335 3.043882784926496,59.94466503245255" stroke="#ffa500" stroke-linecap="round" stroke-linejoin="round"/><polyline fill="none" points="10.019074006896568,120.7864879057529 12.519074006900398,120.11661492468144 14.34920102582908,118.28648790576283 15.019074006914295,115.78648790576268 14.34920102584283,113.28648790575886 12.519074006924216,111.45636088683018 10.01907400692407,110.78648790574496 7.51907400692024,111.45636088681643 5.6889469879915575,113.28648790573504 5.019074006906341,115.78648790573519 5.688946987977803,118.28648790573902 7.5190740068964175,120.1166149246677 10.019074006896563,120.78648790575292" stroke="#ffa500" stroke-linecap="round" stroke-linejoin="round"/><polyline fill="none" points="11.551589382183666,85.40459726720592 14.051589382187498,84.73472428613445 15.881716401116181,82.90459726721583 16.5515893822014,80.40459726721569 15.881716401129939,77.90459726721186 14.051589382211326,76.07447024828318 11.55158938221118,75.40459726719796 9.051589382207348,76.07447024826942 7.221462363278663,77.90459726718804 6.551589382193444,80.40459726718818 7.221462363264903,82.90459726719202 9.051589382183515,84.73472428612071 11.55158938218366,85.40459726720593" stroke="#ffa500" stroke-linecap="round" stroke-linejoin="round"/><polyline fill="none" points="46.12288624248191,26.770430378532133 48.62288624248574,26.100557397460673 50.453013261414426,24.27043037854206 51.122886242499646,21.770430378541914 50.45301326142819,19.27043037853808 48.62288624250958,17.44030335960939 46.12288624250944,16.77043037852417 43.6228862425056,17.440303359595628 41.792759223576915,19.27043037851424 41.122886242491695,21.770430378514387 41.79275922356315,24.27043037851822 43.62288624248176,26.10055739744691 46.12288624248191,26.770430378532133" stroke="#00f" stroke-linecap="round" stroke-linejoin="round"/><polyline fill="none" points="-57.41352277012095,-24.678289274889284 -54.91352277011711,-25.34816225596074 -53.08339575118842,-27.17828927487935 -52.41352277010319,-29.678289274879496 -53.08339575117465,-32.17828927488333 -54.91352277009326,-34.008416293812026 -57.41352277009341,-34.67828927489725 -59.913522770097245,-34.008416293825796 -61.74364978902594,-32.178289274907186 -62.413522770111165,-29.67828927490704 -61.74364978903971,-27.178289274903207 -59.9135227701211,-25.34816225597452 -57.413522770120956,-24.67828927488929" stroke="#00f" stroke-linecap="round" stroke-linejoin="round"/><polyline fill="none" points="-53.17677216290128,128.08563734854377 -50.67677216289744,127.41576436747232 -48.84664514396875,125.58563734855372 -48.17677216288352,123.08563734855358 -48.84664514395498,120.58563734854974 -50.67677216287359,118.75551032962105 -53.17677216287373,118.08563734853583 -55.67677216287757,118.75551032960728 -57.50689918180626,120.58563734852588 -58.17677216289149,123.08563734852602 -57.50689918182004,125.58563734852986 -55.67677216290143,127.41576436745855 -53.17677216290129,128.08563734854377" stroke="#ffa500" stroke-linecap="round" stroke-linejoin="round"/><polyline fill="none" points="-20.373767282365872,82.43431169785859 -17.873767282362035,81.76443871678714 -16.04364026343334,79.93431169786854 -15.37376728234811,77.4343116978684 -16.04364026341956,74.93431169786456 -17.87376728233817,73.10418467893587 -20.373767282338317,72.43431169785063 -22.873767282342154,73.10418467892208 -24.70389430127085,74.93431169784068 -25.37376728235608,77.43431169784083 -24.70389430128463,79.93431169784466 -22.873767282366025,81.76443871677336 -20.37376728236588,82.43431169785859" stroke="#ffa500" stroke-linecap="round" stroke-linejoin="round"/><polyline fill="none" points="-34.99657580537933,-23.500515239635135 -32.49657580537549,-24.170388220706585 -30.666448786446797,-26.00051523962519 -29.996575805361566,-28.500515239625337 -30.666448786433016,-31.000515239629173 -32.49657580535162,-32.83064225855787 -34.99657580535176,-33.50051523964311 -37.4965758053556,-32.83064225857166 -39.3267028242843,-31.00051523965305 -39.99657580536953,-28.500515239652906 -39.32670282429808,-26.000515239649065 -37.49657580537948,-24.170388220720366 -34.99657580537934,-23.50051523963513" stroke="#f00" stroke-linecap="round" stroke-linejoin="round"/><polyline fill="none" points="48.701583829535465,9.40888313640724 51.2015838295393,8.739010155335794 53.031710848468,6.908883136417189 53.701583829553236,4.408883136417043 53.031710848481794,1.9088831364132033 51.20158382956319,0.07875611748450373 48.70158382956305,-0.5911168636007322 46.20158382955921,0.0787561174707131 44.37145681063051,1.9088831363893175 43.70158382954528,4.408883136389463 44.37145681061672,6.908883136393303 46.20158382953532,8.739010155322005 48.701583829535465,9.408883136407242" stroke="#008000" stroke-linecap="round" stroke-linejoin="round"/><polyline fill="none" points="-31.81824561362362,104.60099849474025 -29.31824561361978,103.9311255136688 -27.48811859469108,102.1009984947502 -26.818245613605843,99.60099849475006 -27.488118594677285,97.10099849474622 -29.318245613595888,95.27087147581751 -31.818245613596034,94.60099849473228 -34.31824561359988,95.27087147580373 -36.14837263252858,97.10099849472233 -36.81824561361382,99.60099849472248 -36.148372632542376,102.10099849472631 -34.31824561362377,103.93112551365502 -31.818245613623628,104.60099849474025" stroke="#ffa500" stroke-linecap="round" stroke-linejoin="round"/><polyline fill="none" points="-44.97100963253182,101.0767259976366 -42.471009632527974,100.40685301656517 -40.64088261359927,98.57672599764656 -39.971009632514026,96.07672599764642 -40.64088261358547,93.57672599764258 -42.47100963250407,91.74659897871388 -44.97100963250422,91.07672599762863 -47.471009632508064,91.74659897870006 -49.30113665143677,93.57672599761867 -49.97100963252201,96.07672599761881 -49.30113665145057,98.57672599762265 -47.47100963253197,100.40685301655135 -44.97100963253182,101.0767259976366" stroke="#ffa500" stroke-linecap="round" stroke-linejoin="round"/><polyline fill="none" points="-67.31599387496522,78.35293669406849 -64.81599387496138,77.68306371299705 -62.98586685603267,75.85293669407845 -62.31599387494743,73.35293669407831 -62.98586685601887,70.85293669407446 -64.81599387493748,69.02280967514575 -67.31599387493762,68.3529366940605 -69.81599387494147,69.02280967513194 -71.64612089387018,70.85293669405054 -72.31599387495542,73.35293669405068 -71.64612089388399,75.85293669405453 -69.81599387496539,77.68306371298324 -67.31599387496524,78.35293669406849" stroke="#00f" stroke-linecap="round" stroke-linejoin="round"/><polyline fill="none" points="-35.21487350396768,47.66682782693282 -32.71487350396384,46.99695484586138 -30.88474648503513,45.16682782694278 -30.214873503949885,42.66682782694264 -30.88474648502132,40.16682782693879 -32.71487350393992,38.336700808010086 -35.21487350394006,37.66682782692484 -37.714873503943906,38.33670080799627 -39.54500052287261,40.16682782691487 -40.21487350395786,42.66682782691501 -39.545000522886426,45.166827826918855 -37.71487350396783,46.99695484584756 -35.21487350396768,47.66682782693281" stroke="#00f" stroke-linecap="round" stroke-linejoin="round"/><polyline fill="none" points="-51.582915631435824,115.89131330247184 -49.08291563143198,115.22144032140041 -47.25278861250327,113.3913133024818 -46.58291563141802,110.89131330248166 -47.252788612489454,108.39131330247781 -49.08291563140805,106.5611862835491 -51.5829156314082,105.89131330246386 -54.08291563141204,106.56118628353529 -55.913042650340756,108.3913133024539 -56.582915631426005,110.89131330245404 -55.91304265035457,113.39131330245789 -54.082915631435974,115.2214403213866 -51.582915631435824,115.89131330247184" stroke="#ffa500" stroke-linecap="round" stroke-linejoin="round"/><polyline fill="none" points="75.45579873900459,16.68628554669033 77.95579873900844,16.016412565618896 79.78592575793715,14.186285546700299 80.4557987390224,11.686285546700153 79.78592575795096,9.186285546696304 77.95579873903236,7.35615852776759 75.45579873903222,6.686285546682338 72.95579873902837,7.35615852775377 71.12567172009965,9.186285546672366 70.4557987390144,11.686285546672512 71.12567172008583,14.18628554667636 72.95579873900444,16.016412565605076 75.45579873900458,16.68628554669033" stroke="#00f" stroke-linecap="round" stroke-linejoin="round"/><polyline fill="none" points="-90.89014120659472,49.93923723080594 -88.39014120659087,49.26936424973451 -86.56001418766215,47.43923723081591 -85.8901412065769,44.93923723081576 -86.56001418764833,42.43923723081191 -88.39014120656692,40.6091102118832 -90.89014120656707,39.93923723079794 -93.39014120657092,40.60911021186937 -95.22026822549964,42.43923723078797 -95.89014120658489,44.93923723078811 -95.22026822551345,47.43923723079196 -93.39014120659486,49.269364249720674 -90.89014120659472,49.93923723080593" stroke="#ffa500" stroke-linecap="round" stroke-linejoin="round"/><polyline fill="none" points="-103.56772132734177,74.5134953095266 -101.06772132733792,73.84362232845518 -99.2375943084092,72.0134953095366 -98.56772132732394,69.51349530953645 -99.23759430839536,67.0134953095326 -101.06772132731395,65.18336829060388 -103.56772132731409,64.51349530951862 -106.06772132731794,65.18336829059004 -107.89784834624666,67.01349530950863 -108.56772132733192,69.51349530950877 -107.8978483462605,72.01349530951262 -106.06772132734191,73.84362232844134 -103.56772132734177,74.5134953095266" stroke="#ffa500" stroke-linecap="round" stroke-linejoin="round"/><polyline fill="none" points="-102.86786816531887,30.31269328850825 -100.36786816531502,29.642820307436825 -98.5377411463863,27.812693288518233 -97.86786816530103,25.312693288518087 -98.53774114637245,22.812693288514236 -100.36786816529104,20.982566269585515 -102.86786816529118,20.312693288500256 -105.36786816529504,20.98256626957168 -107.19799518422376,22.812693288490273 -107.86786816530902,25.31269328849042 -107.1979951842376,27.812693288494273 -105.36786816531901,29.642820307422994 -102.86786816531887,30.312693288508257" stroke="#ffa500" stroke-linecap="round" stroke-linejoin="round"/><polyline fill="none" points="-43.76305118175932,-30.785168514538213 -41.26305118175547,-31.45504149560964 -39.43292416282675,-33.28516851452823 -38.76305118174149,-35.78516851452838 -39.43292416281291,-38.28516851453223 -41.2630511817315,-40.11529553346095 -43.76305118173164,-40.785168514546214 -46.26305118173549,-40.11529553347479 -48.09317820066421,-38.285168514556204 -48.763051181749475,-35.78516851455606 -48.093178200678054,-33.28516851455221 -46.263051181759465,-31.455041495623487 -43.76305118175932,-30.785168514538224" stroke="#00f" stroke-linecap="round" stroke-linejoin="round"/><polyline fill="none" points="-79.58689649521793,61.288626496904655 -77.08689649521408,60.618753515833234 -75.25676947628536,58.788626496914645 -74.5868964952001,56.2886264969145 -75.25676947627151,53.788626496910645 -77.0868964951901,51.95849947798192 -79.58689649519025,51.288626496896654 -82.0868964951941,51.958499477968076 -83.91702351412282,53.788626496886664 -84.58689649520808,56.288626496886806 -83.91702351413666,58.788626496890664 -82.08689649521807,60.61875351581939 -79.58689649521793,61.28862649690466" stroke="#ffa500" stroke-linecap="round" stroke-linejoin="round"/><polyline fill="none" points="-59.85116281372938,-51.82043423011696 -57.35116281372552,-52.49030721118838 -55.521035794796795,-54.32043423010697 -54.851162813711525,-56.82043423010711 -55.52103579478295,-59.32043423011097 -57.351162813701535,-61.1505612490397 -59.85116281370168,-61.82043423012497 -62.351162813705535,-61.15056124905355 -64.18128983263426,-59.320434230134964 -64.85116281371953,-56.82043423013482 -64.1812898326481,-54.320434230130964 -62.351162813729516,-52.490307211202236 -59.851162813729374,-51.820434230116966" stroke="#ffa500" stroke-linecap="round" stroke-linejoin="round"/><polyline fill="none" points="-28.10614898259277,41.09362350217802 -25.606148982588913,40.423750521106605 -23.776021963660185,38.59362350218802 -23.106148982574915,36.09362350218787 -23.77602196364633,33.59362350218401 -25.606148982564918,31.763496483255278 -28.106148982565063,31.093623502170008 -30.60614898256892,31.763496483241422 -32.43627600149765,33.59362350216001 -33.10614898258292,36.093623502160156 -32.43627600151151,38.593623502164014 -30.60614898259292,40.42375052109274 -28.106148982592774,41.09362350217801" stroke="#ffa500" stroke-linecap="round" stroke-linejoin="round"/><polyline fill="none" points="-18.89995456759645,64.98222393718426 -16.39995456759259,64.31235095611285 -14.56982754866386,62.48222393719426 -13.899954567578586,59.98222393719412 -14.56982754865,57.48222393719026 -16.399954567568585,55.65209691826153 -18.89995456756873,54.98222393717625 -21.39995456757259,55.652096918247665 -23.23008158650132,57.48222393716625 -23.899954567586594,59.982223937166395 -23.230081586515183,62.482223937170254 -21.3999545675966,64.31235095609898 -18.899954567596453,64.98222393718426" stroke="#00f" stroke-linecap="round" stroke-linejoin="round"/><polyline fill="none" points="-34.913736340735156,20.82088559706338 -32.4137363407313,20.15101261599197 -30.583609321802562,18.320885597073385 -29.913736340717286,15.82088559707324 -30.583609321788696,13.32088559706938 -32.41373634070728,11.490758578140644 -34.91373634070743,10.820885597055367 -37.41373634071129,11.490758578126778 -39.243863359640024,13.320885597045361 -39.9137363407253,15.820885597045507 -39.24386335965389,18.32088559704937 -37.41373634073531,20.151012615978104 -34.91373634073517,20.82088559706338" stroke="#00f" stroke-linecap="round" stroke-linejoin="round"/><polyline fill="none" points="-23.392613536447612,-7.689061833432369 -20.89261353644375,-8.358934814503778 -19.062486517515016,-10.189061833422361 -18.39261353642974,-12.689061833422507 -19.06248651750115,-15.189061833426369 -20.89261353641973,-17.019188852355107 -23.392613536419876,-17.689061833440388 -25.892613536423738,-17.01918885236898 -27.722740555352477,-15.189061833450397 -28.392613536437757,-12.689061833450252 -27.72274055536635,-10.189061833446388 -25.89261353644777,-8.35893481451765 -23.392613536447623,-7.689061833432369" stroke="#00f" stroke-linecap="round" stroke-linejoin="round"/><polyline fill="none" points="-112.2916666703034,88.41822032264129 -109.79166667029953,87.74834734156988 -107.9615396513708,85.9182203226513 -107.29166667028552,83.41822032265115 -107.96153965135693,80.91822032264729 -109.79166667027552,79.08809330371855 -112.29166667027566,78.41822032263327 -114.79166667027953,79.08809330370468 -116.62179368920826,80.91822032262326 -117.29166667029354,83.4182203226234 -116.62179368922213,85.91822032262726 -114.79166667030356,87.748347341556 -112.29166667030341,88.41822032264128" stroke="#ffa500" stroke-linecap="round" stroke-linejoin="round"/><polyline fill="none" points="-149.09013438919155,-26.582539225216337 -146.59013438918768,-27.25241220628774 -144.76000737025893,-29.08253922520632 -144.09013438917364,-31.582539225206467 -144.76000737024503,-34.08253922521033 -146.5901343891636,-35.912666244139075 -149.09013438916375,-36.58253922522436 -151.59013438916762,-35.91266624415296 -153.42026140809637,-34.08253922523438 -154.09013438918166,-31.582539225234232 -153.42026140811026,-29.082539225230366 -151.5901343891917,-27.252412206301624 -149.09013438919155,-26.582539225216337" stroke="#ffa500" stroke-linecap="round" stroke-linejoin="round"/><polyline fill="none" points="-77.92656958809194,42.377799131442174 -75.42656958808807,41.707926150370774 -73.59644256915932,39.87779913145219 -72.92656958807403,37.37779913145205 -73.59644256914544,34.877799131448185 -75.42656958806401,33.04767211251944 -77.92656958806415,32.37779913143416 -80.42656958806802,33.04767211250556 -82.25669660699677,34.87779913142414 -82.92656958808206,37.37779913142428 -82.25669660701067,39.87779913142815 -80.4265695880921,41.70792615035689 -77.92656958809195,42.37779913144218" stroke="#ffa500" stroke-linecap="round" stroke-linejoin="round"/><polyline fill="none" points="-116.38120814995844,76.07667881152416 -113.88120814995457,75.40680583045277 -112.05108113102582,73.5766788115342 -111.38120814994053,71.07667881153405 -112.05108113101193,68.57667881153019 -113.8812081499305,66.74655179260144 -116.38120814993064,66.07667881151615 -118.88120814993451,66.74655179258754 -120.71133516886326,68.57667881150611 -121.38120814994855,71.07667881150626 -120.71133516887716,73.57667881151012 -118.88120814995858,75.40680583043887 -116.38120814995844,76.07667881152416" stroke="#ffa500" stroke-linecap="round" stroke-linejoin="round"/><polyline fill="none" points="-33.13630467495545,-10.524117656509121 -30.636304674951578,-11.19399063758052 -28.80617765602283,-13.024117656499097 -28.136304674937538,-15.524117656499243 -28.806177656008934,-18.024117656503112 -30.636304674927512,-19.85424467543186 -33.13630467492766,-20.524117656517156 -35.63630467493152,-19.85424467544576 -37.46643169386027,-18.024117656527185 -38.13630467494556,-15.52411765652704 -37.46643169387417,-13.02411765652317 -35.636304674955596,-11.193990637594421 -33.136304674955454,-10.524117656509127" stroke="#00f" stroke-linecap="round" stroke-linejoin="round"/><polyline fill="none" points="-83.0901795308097,-40.52666360970724 -80.59017953080584,-41.196536590778635 -78.76005251187709,-43.02666360969721 -78.0901795307918,-45.52666360969735 -78.7600525118632,-48.026663609701224 -80.59017953078177,-49.85679062862997 -83.09017953078191,-50.52666360971527 -85.59017953078578,-49.85679062864388 -87.42030654971452,-48.026663609725304 -88.09017953079982,-45.52666360972516 -87.42030654972842,-43.02666360972129 -85.59017953080985,-41.19653659079254 -83.0901795308097,-40.52666360970724" stroke="#00f" stroke-linecap="round" stroke-linejoin="round"/><polyline fill="none" points="-33.62833462224001,-62.24647743967559 -31.12833462223614,-62.91635042074698 -29.298207603307386,-64.74647743966555 -28.628334622222088,-67.2464774396657 -29.29820760329348,-69.74647743966956 -31.128334622212055,-71.57660445859831 -33.6283346222122,-72.24647743968362 -36.12833462221607,-71.57660445861222 -37.95846164114483,-69.74647743969365 -38.62833462223013,-67.2464774396935 -37.958461641158735,-64.74647743968964 -36.12833462224016,-62.916350420760885 -33.62833462224002,-62.24647743967559" stroke="#ffa500" stroke-linecap="round" stroke-linejoin="round"/><polyline fill="none" points="-96.39228807844788,18.986922759805456 -93.89228807844401,18.317049778734066 -92.06216105951526,16.486922759815496 -91.39228807842996,13.98692275981535 -92.06216105950135,11.486922759811478 -93.89228807841992,9.656795740882721 -96.39228807842007,8.98692275979742 -98.89228807842395,9.656795740868809 -100.72241509735271,11.48692275978738 -101.39228807843801,13.986922759787525 -100.72241509736662,16.486922759791398 -98.89228807844805,18.317049778720154 -96.3922880784479,18.986922759805456" stroke="#ffa500" stroke-linecap="round" stroke-linejoin="round"/><polyline fill="none" points="-117.9385023337792,57.865222777129745 -115.43850233377532,57.19534979605836 -113.60837531484655,55.365222777139785 -112.93850233376125,52.865222777139635 -113.60837531483264,50.36522277713576 -115.43850233375122,48.53509575820701 -117.93850233375136,47.8652227771217 -120.43850233375524,48.53509575819309 -122.268629352684,50.365222777111654 -122.9385023337693,52.865222777111796 -122.26862935269793,55.36522277711567 -120.43850233377935,57.195349796044425 -117.93850233377921,57.86522277712973" stroke="#ffa500" stroke-linecap="round" stroke-linejoin="round"/><polyline fill="none" points="24.655758689143152,4.047729211310123 27.155758689147028,3.377856230238738 28.985885708075788,1.5477292113201684 29.655758689161093,-0.9522707886799768 28.985885708089707,-3.4522707886838524 27.155758689171137,-5.282397807612613 24.65575868917099,-5.95227078869792 22.155758689167115,-5.282397807626536 20.325631670238355,-3.452270788707967 19.655758689153046,-0.9522707887078217 20.32563167022443,1.5477292112960548 22.155758689142996,3.377856230224817 24.65575868914314,4.047729211310125" stroke="#00f" stroke-linecap="round" stroke-linejoin="round"/><polyline fill="none" points="-127.46341501706628,11.333512687887398 -124.9634150170624,10.663639706816014 -123.13328799813364,8.833512687897445 -122.46341501704833,6.333512687897299 -123.13328799811971,3.833512687893422 -124.96341501703829,2.0033856689646585 -127.46341501703843,1.3335126878793488 -129.9634150170423,2.0033856689507306 -131.7935420359711,3.833512687869298 -132.4634150170564,6.333512687869444 -131.793542035985,8.833512687873322 -129.96341501706644,10.663639706802087 -127.4634150170663,11.333512687887398" stroke="#ffa500" stroke-linecap="round" stroke-linejoin="round"/><polyline fill="none" points="-53.658584947799035,-17.3973750804072 -51.158584947795156,-18.067248061478583 -49.32845792886639,-19.89737508039715 -48.65858494778108,-22.397375080397296 -49.32845792885246,-24.897375080401176 -51.158584947771025,-26.727502099329943 -53.658584947771175,-27.397375080415255 -56.158584947775054,-26.727502099343877 -57.98871196670382,-24.89737508042531 -58.65858494778913,-22.397375080425164 -57.98871196671775,-19.897375080421284 -56.158584947799184,-18.067248061492517 -53.658584947799035,-17.397375080407205" stroke="#00f" stroke-linecap="round" stroke-linejoin="round"/><polyline fill="none" points="-150.21800195373902,-69.06290711563723 -147.71800195373513,-69.73278009670861 -145.88787493480635,-71.56290711562717 -145.21800195372103,-74.06290711562731 -145.8878749347924,-76.56290711563119 -147.71800195371097,-78.39303413455995 -150.2180019537111,-79.06290711564527 -152.718001953715,-78.3930341345739 -154.54812897264378,-76.56290711565534 -155.2180019537291,-74.0629071156552 -154.54812897265774,-71.56290711565131 -152.71800195373916,-69.73278009672255 -150.21800195373902,-69.06290711563723" stroke="#ffa500" stroke-linecap="round" stroke-linejoin="round"/><polyline fill="none" points="-49.8829204488005,-26.551580813091487 -47.38292044879662,-27.221453794162862 -45.55279342986785,-29.051580813081426 -44.88292044878253,-31.55158081308157 -45.55279342985391,-34.05158081308545 -47.382920448772474,-35.88170783201422 -49.882920448772616,-36.55158081309954 -52.382920448776495,-35.88170783202816 -54.213047467705266,-34.051580813109595 -54.882920448790586,-31.55158081310945 -54.213047467719214,-29.05158081310557 -52.382920448800654,-27.2214537941768 -49.88292044880051,-26.55158081309148" stroke="#008000" stroke-linecap="round" stroke-linejoin="round"/><polyline fill="none" points="-78.81765023734204,-3.199252672329294 -76.31765023733816,-3.8691256534006677 -74.48752321840938,-5.699252672319231 -73.81765023732406,-8.199252672319377 -74.48752321839544,-10.699252672323258 -76.317650237314,-12.52937969125203 -78.81765023731414,-13.19925267233735 -81.31765023731802,-12.529379691265977 -83.1477772562468,-10.699252672347415 -83.81765023733212,-8.199252672347269 -83.14777725626074,-5.699252672343386 -81.31765023734218,-3.869125653414612 -78.81765023734204,-3.1992526723292904" stroke="#ffa500" stroke-linecap="round" stroke-linejoin="round"/><polyline fill="none" points="-40.135940106222186,-24.622029590440587 -37.6359401062183,-25.291902571511958 -35.80581308728952,-27.122029590430518 -35.1359401062042,-29.622029590430664 -35.805813087275574,-32.12202959043455 -37.635940106194134,-33.95215660936333 -40.13594010619428,-34.622029590448655 -42.63594010619817,-33.95215660937728 -44.46606712512695,-32.12202959045872 -45.135940106212274,-29.622029590458578 -44.4660671251409,-27.122029590454694 -42.63594010622234,-25.291902571525917 -40.13594010622219,-24.622029590440594" stroke="#ffa500" stroke-linecap="round" stroke-linejoin="round"/><polyline fill="none" points="-106.99216024290016,-66.78584129756783 -104.49216024289628,-67.45571427863919 -102.6620332239675,-69.28584129755775 -101.99216024288218,-71.7858412975579 -102.66203322395354,-74.28584129756177 -104.4921602428721,-76.11596831649055 -106.99216024287225,-76.78584129757587 -109.49216024287612,-76.1159683165045 -111.3222872618049,-74.28584129758595 -111.99216024289022,-71.7858412975858 -111.32228726181886,-69.28584129758192 -109.4921602429003,-67.45571427865315 -106.99216024290016,-66.78584129756781" stroke="#ffa500" stroke-linecap="round" stroke-linejoin="round"/><polyline fill="none" points="-74.3313848772856,-40.27166686279579 -71.83138487728172,-40.941539843867155 -70.00125785835294,-42.771666862785715 -69.33138487726761,-45.271666862785864 -70.00125785833897,-47.77166686278975 -71.83138487725753,-49.60179388171853 -74.33138487725768,-50.271666862803855 -76.83138487726157,-49.60179388173249 -78.66151189619035,-47.77166686281393 -79.33138487727568,-45.27166686281379 -78.66151189620432,-42.7716668628099 -76.83138487728576,-40.941539843881124 -74.33138487728561,-40.2716668627958" stroke="#00f" stroke-linecap="round" stroke-linejoin="round"/><polyline fill="none" points="-44.808613823849534,-85.99982475005073 -42.30861382384565,-86.6696977311221 -40.47848680491687,-88.49982475004066 -39.808613823831536,-90.9998247500408 -40.4784868049029,-93.4998247500447 -42.30861382382146,-95.32995176897347 -44.8086138238216,-95.9998247500588 -47.30861382382549,-95.32995176898744 -49.138740842754274,-93.49982475006888 -49.80861382383961,-90.99982475006874 -49.13874084276824,-88.49982475006485 -47.30861382384968,-86.66969773113607 -44.80861382384954,-85.99982475005073" stroke="#ffa500" stroke-linecap="round" stroke-linejoin="round"/><polyline fill="none" points="-30.616784582395002,-44.24819724825816 -28.116784582391112,-44.91807022932952 -26.286657563462327,-46.748197248248076 -25.616784582376994,-49.24819724824822 -26.286657563448355,-51.748197248252104 -28.11678458236691,-53.57832426718089 -30.616784582367057,-54.24819724826622 -33.11678458237095,-53.57832426719486 -34.94691160129973,-51.748197248276306 -35.616784582385066,-49.248197248276156 -34.94691160131371,-46.74819724827227 -33.116784582395155,-44.918070229343485 -30.61678458239501,-44.24819724825815" stroke="#008000" stroke-linecap="round" stroke-linejoin="round"/><polyline fill="none" points="-76.76423215880693,-26.49112289161098 -74.26423215880304,-27.160995872682342 -72.43410513987425,-28.991122891600895 -71.76423215878891,-31.49112289160104 -72.43410513986028,-33.99112289160493 -74.26423215877884,-35.821249910533716 -76.76423215877898,-36.49112289161905 -79.26423215878287,-35.82124991054769 -81.09435917771167,-33.99112289162914 -81.764232158797,-31.491122891628994 -81.09435917772564,-28.991122891625103 -79.26423215880708,-27.160995872696315 -76.76423215880693,-26.491122891610978" stroke="#ffa500" stroke-linecap="round" stroke-linejoin="round"/><polyline fill="none" points="-109.05902995532543,-29.53649315266714 -106.55902995532153,-30.2063661337385 -104.72890293639274,-32.03649315265705 -104.05902995530741,-34.5364931526572 -104.72890293637876,-37.036493152661095 -106.55902995529732,-38.86662017158989 -109.05902995529746,-39.53649315267523 -111.55902995530136,-38.86662017160387 -113.38915697423015,-37.03649315268532 -114.05902995531548,-34.53649315268517 -113.38915697424413,-32.036493152681274 -111.55902995532558,-30.206366133752482 -109.05902995532544,-29.53649315266714" stroke="#ffa500" stroke-linecap="round" stroke-linejoin="round"/><polyline fill="none" points="33.091614759351216,-31.912479158329717 35.59161475935511,-32.582352139401074 37.4217417782839,-34.41247915831963 38.09161475936924,-36.91247915831977 37.421741778297886,-39.41247915832366 35.59161475937933,-41.242606177252455 33.09161475937919,-41.912479158337796 30.591614759375297,-41.24260617726644 28.761487740446505,-39.412479158347885 28.09161475936116,-36.912479158347736 28.761487740432514,-34.41247915834384 30.591614759351064,-32.58235213941505 33.09161475935121,-31.912479158329706" stroke="#ffa500" stroke-linecap="round" stroke-linejoin="round"/><polyline fill="none" points="-120.12160513520473,-58.33320702286273 -117.62160513520084,-59.00308000393408 -115.79147811627205,-60.83320702285263 -115.1216051351867,-63.333207022852775 -115.79147811625805,-65.83320702285667 -117.6216051351766,-67.66333404178546 -120.12160513517674,-68.33320702287081 -122.62160513518063,-67.66333404179946 -124.45173215410942,-65.83320702288091 -125.12160513519477,-63.33320702288077 -124.45173215412342,-60.83320702287688 -122.62160513520487,-59.003080003948085 -120.12160513520473,-58.33320702286274" stroke="#00f" stroke-linecap="round" stroke-linejoin="round"/><polyline fill="none" points="38.09932986913422,-27.781415338058906 40.59932986913812,-28.451288319130256 42.42945688806691,-30.281415338048806 43.09932986915226,-32.78141533804895 42.42945688808091,-35.281415338052845 40.59932986916236,-37.111542356981644 38.09932986916222,-37.78141533806699 35.599329869158325,-37.11154235699564 33.769202850229526,-35.281415338077096 33.09932986914418,-32.781415338076954 33.76920285021553,-30.281415338073057 35.599329869134074,-28.45128831914426 38.09932986913422,-27.781415338058913" stroke="#00f" stroke-linecap="round" stroke-linejoin="round"/><polyline fill="none" points="-69.45534667697763,-63.985515376071476 -66.95534667697373,-64.65538835714283 -65.12521965804494,-66.48551537606137 -64.45534667695959,-68.98551537606151 -65.12521965803094,-71.48551537606541 -66.95534667694949,-73.3156423949942 -69.45534667694963,-73.98551537607955 -71.95534667695352,-73.3156423950082 -73.78547369588233,-71.48551537608965 -74.45534667696768,-68.98551537608951 -73.78547369589633,-66.48551537608562 -71.95534667697778,-64.65538835715681 -69.45534667697764,-63.98551537607146" stroke="#ffa500" stroke-linecap="round" stroke-linejoin="round"/><polyline fill="none" points="-72.18082302525816,-53.968739593024594 -69.68082302525427,-54.63861257409594 -67.85069600632546,-56.46873959301448 -67.18082302524012,-58.968739593014625 -67.85069600631147,-61.468739593018526 -69.68082302523001,-63.298866611947325 -72.18082302523015,-63.96873959303268 -74.68082302523405,-63.29886661196134 -76.51095004416285,-61.46873959304279 -77.1808230252482,-58.96873959304265 -76.51095004417685,-56.46873959303875 -74.6808230252583,-54.63861257410995 -72.18082302525816,-53.968739593024594" stroke="#ffa500" stroke-linecap="round" stroke-linejoin="round"/><polyline fill="none" points="-91.17270411817947,-41.30051471940869 -88.67270411817557,-41.97038770048003 -86.84257709924677,-43.80051471939858 -86.1727041181614,-46.30051471939872 -86.84257709923274,-48.80051471940262 -88.67270411815129,-50.63064173833143 -91.17270411815143,-51.30051471941678 -93.67270411815532,-50.63064173834544 -95.50283113708413,-48.80051471942689 -96.17270411816949,-46.300514719426744 -95.50283113709816,-43.80051471942284 -93.67270411817961,-41.97038770049404 -91.17270411817947,-41.30051471940868" stroke="#ffa500" stroke-linecap="round" stroke-linejoin="round"/><polyline fill="none" points="-48.839158992948015,-57.24982549657929 -46.339158992944114,-57.919698477650634 -44.50903197401531,-59.74982549656918 -43.83915899292995,-62.24982549656933 -44.509031974001296,-64.74982549657324 -46.33915899291984,-66.57995251550204 -48.83915899291999,-67.2498254965874 -51.33915899292389,-66.57995251551607 -53.1692860118527,-64.74982549659752 -53.83915899293806,-62.249825496597374 -53.169286011866724,-59.74982549659347 -51.33915899294818,-57.91969847766467 -48.83915899294803,-57.249825496579305" stroke="#00f" stroke-linecap="round" stroke-linejoin="round"/><polyline fill="none" points="-10.078932893412722,46.04934104531658 -7.578932893408818,45.379468064245245 -5.74880587448001,43.5493410453267 -5.078932893394649,41.04934104532655 -5.748805874465987,38.54934104532265 -7.578932893384529,36.71921402639384 -10.078932893384675,36.04934104530848 -12.57893289338858,36.71921402637982 -14.409059912317389,38.549341045298355 -15.078932893402751,41.049341045298505 -14.409059912331415,43.549341045302405 -12.578932893412874,45.37946806423121 -10.078932893412729,46.049341045316574" stroke="#00f" stroke-linecap="round" stroke-linejoin="round"/><polyline fill="none" points="-41.50747578584089,-27.725072150084806 -39.00747578583699,-28.394945131156142 -37.177348766908175,-30.225072150074684 -36.50747578582281,-32.72507215007483 -37.17734876689415,-35.22507215007873 -39.00747578581269,-37.055199169007544 -41.50747578581283,-37.725072150092906 -44.00747578581674,-37.05519916902157 -45.83760280474555,-35.22507215010303 -46.50747578583091,-32.72507215010289 -45.83760280475958,-30.225072150098985 -44.00747578584104,-28.39494513117017 -41.507475785840896,-27.725072150084806" stroke="#ffa500" stroke-linecap="round" stroke-linejoin="round"/><polyline fill="none" points="-26.83944057879944,2.09191411024167 -24.339440578795536,1.4220411291703363 -22.509313559866722,-0.4080858897482036 -21.839440578781357,-2.9080858897483495 -22.50931355985269,-5.408085889752255 -24.339440578771228,-7.238212908681067 -26.839440578771374,-7.908085889766434 -29.339440578775278,-7.238212908695101 -31.16956759770409,-5.408085889776562 -31.839440578789457,-2.908085889776416 -31.169567597718125,-0.4080858897725097 -29.339440578799586,1.4220411291563038 -26.83944057879944,2.091914110241671" stroke="#008000" stroke-linecap="round" stroke-linejoin="round"/><polyline fill="none" points="-70.71463162872435,-90.51853056653141 -68.21463162872044,-91.18840354760275 -66.38450460979162,-93.01853056652129 -65.71463162870626,-95.51853056652143 -66.3845046097776,-98.01853056652534 -68.21463162869613,-99.84865758545416 -70.71463162869627,-100.51853056653952 -73.21463162870018,-99.84865758546819 -75.044758647629,-98.01853056654966 -75.71463162871437,-95.51853056654952 -75.04475864764304,-93.0185305665456 -73.2146316287245,-91.18840354761679 -70.71463162872436,-90.51853056653141" stroke="#ffa500" stroke-linecap="round" stroke-linejoin="round"/><polyline fill="none" points="103.25446303242637,-116.622132878536 105.75446303243028,-117.29200585960733 107.5845900513591,-119.12213287852586 108.25446303244448,-121.622132878526 107.58459005137314,-124.12213287852991 105.75446303245461,-125.95225989745873 103.25446303245447,-126.62213287854411 100.75446303245056,-125.95225989747279 98.92433601352174,-124.12213287855425 98.25446303243636,-121.62213287855411 98.92433601350768,-119.1221328785502 100.75446303242622,-117.29200585962138 103.25446303242636,-116.62213287853601" stroke="#ffa500" stroke-linecap="round" stroke-linejoin="round"/></svg>