<?xml version="1.0" ?><!DOCTYPE svg  PUBLIC '-//W3C//DTD SVG 1.1//EN'  'http://www.w3.org/Graphics/SVG/1.1/DTD/svg11.dtd'><svg height="284.000" viewBox="-170.000 -138.000 327.000 284.000" width="327.000" xmlns="http://www.w3.org/2000/svg"><line fill="none" stroke="none" stroke-linecap="round" stroke-width="2.0" x1="0.0" x2="0.0" y1="0.0" y2="0.0"/><polygon fill="none" fill-rule="evenodd" points="0.0,0.0 0.0,0.0 0.0,0.0" stroke-linejoin="round"/><polyline fill="none" points="42.78424785764501,-11.058801131782783 45.284247857649866,-11.728674112852548 47.114374876580285,-13.558801131770206 47.78424785766748,-16.05880113177039 47.114374876597715,-18.558801131775247 45.28424785768006,-20.388928150705667 42.78424785767987,-21.058801131792865 40.28424785767502,-20.3889281507231 38.4541208387446,-18.558801131805442 37.7842478576574,-16.058801131805257 38.454120838727164,-13.5588011318004 40.28424785764482,-11.72867411286998 42.784247857645006,-11.05880113178278" stroke="#ffa500" stroke-linecap="round" stroke-linejoin="round"/><polyline fill="none" points="48.88640722526724,-0.9077434930076702 51.3864072252721,-1.577616474077434 53.21653424420252,-3.40774349299509 53.88640722528972,-5.907743492995275 53.21653424421996,-8.407743493000133 51.3864072253023,-10.237870511930556 48.886407225302115,-10.907743493017758 46.386407225297255,-10.237870511947996 44.556280206366836,-8.40774349303034 43.88640722527963,-5.907743493030155 44.5562802063494,-3.407743493025297 46.38640722526706,-1.577616474094874 48.88640722526724,-0.9077434930076709" stroke="#ffa500" stroke-linecap="round" stroke-linejoin="round"/><polyline fill="none" points="61.31087108887709,-106.19343705651268 63.81087108888195,-106.86331003758244 65.64099810781238,-108.69343705650009 66.31087108889959,-111.19343705650027 65.64099810782983,-113.69343705650513 63.81087108891217,-115.52356407543556 61.31087108891199,-116.19343705652277 58.81087108890713,-115.52356407545301 56.9807440699767,-113.69343705653536 56.3108710888895,-111.19343705653517 56.98074406995926,-108.69343705653031 58.810871088876915,-106.86331003759989 61.3108710888771,-106.19343705651268" stroke="#ffa500" stroke-linecap="round" stroke-linejoin="round"/><polyline fill="none" points="7.433996399178448,-51.2969259070418 9.93399639918331,-51.96679888811156 11.764123418113735,-53.79692590702922 12.433996399200941,-56.296925907029404 11.764123418131183,-58.796925907034264 9.933996399213529,-60.62705292596469 7.433996399213342,-61.2969259070519 4.93399639920848,-60.62705292598214 3.103869380278052,-58.79692590706449 2.4339963991908444,-56.296925907064306 3.1038693802606026,-53.796925907059446 4.933996399178256,-51.96679888812902 7.433996399178443,-51.29692590704181" stroke="#ffa500" stroke-linecap="round" stroke-linejoin="round"/><polyline fill="none" points="-45.19624439966587,39.88241400607785 -42.69624439966101,39.21254102500809 -40.866117380730586,37.38241400609044 -40.196244399643376,34.88241400609026 -40.866117380713135,32.3824140060854 -42.696244399630785,30.552286987154968 -45.19624439963097,29.88241400606776 -47.69624439963583,30.552286987137514 -49.526371418566264,32.382414006055164 -50.19624439965347,34.88241400605535 -49.526371418583715,37.38241400606021 -47.696244399666064,39.21254102499064 -45.19624439966588,39.88241400607785" stroke="#00f" stroke-linecap="round" stroke-linejoin="round"/><polyline fill="none" points="-113.7337517561572,-18.35526733211709 -111.23375175615234,-19.025140313186846 -109.40362473722192,-20.855267332104496 -108.73375175613471,-23.35526733210468 -109.40362473720447,-25.855267332109545 -111.23375175612212,-27.685394351039978 -113.7337517561223,-28.35526733212719 -116.23375175612716,-27.685394351057436 -118.06387877505759,-25.855267332139785 -118.7337517561448,-23.355267332139597 -118.06387877507504,-20.855267332134733 -116.23375175615739,-19.0251403132043 -113.7337517561572,-18.355267332117087" stroke="#00f" stroke-linecap="round" stroke-linejoin="round"/><polyline fill="none" points="72.85416020992469,-76.05406947750679 75.35416020992955,-76.72394245857654 77.18428722885999,-78.5540694774942 77.8541602099472,-81.05406947749438 77.18428722887744,-83.55406947749924 75.35416020995979,-85.38419649642968 72.8541602099596,-86.05406947751689 70.35416020995474,-85.38419649644713 68.5240331910243,-83.55406947752948 67.85416020993709,-81.0540694775293 68.52403319100684,-78.55406947752444 70.35416020992449,-76.723942458594 72.85416020992467,-76.05406947750679" stroke="#ffa500" stroke-linecap="round" stroke-linejoin="round"/><polyline fill="none" points="76.21275549918562,-116.55074607451016 78.71275549919048,-117.2206190555799 80.54288251812092,-119.05074607449755 81.21275549920814,-121.55074607449774 80.5428825181384,-124.0507460745026 78.71275549922075,-125.88087309343304 76.21275549922056,-126.55074607452026 73.7127554992157,-125.88087309345052 71.88262848028526,-124.05074607453287 71.21275549919804,-121.55074607453268 71.88262848026778,-119.05074607452781 73.71275549918543,-117.22061905559737 76.21275549918562,-116.55074607451014" stroke="#ffa500" stroke-linecap="round" stroke-linejoin="round"/><polyline fill="none" points="-117.50565148193543,-26.525369967908038 -115.00565148193056,-27.195242948977786 -113.17552446300012,-29.025369967895433 -112.50565148191289,-31.52536996789562 -113.17552446298264,-34.02536996790049 -115.00565148190029,-35.85549698683093 -117.50565148190047,-36.52536996791815 -120.00565148190535,-35.85549698684841 -121.83577850083579,-34.02536996793076 -122.50565148192301,-31.525369967930573 -121.83577850085327,-29.025369967925705 -120.00565148193562,-27.195242948995265 -117.50565148193543,-26.525369967908045" stroke="#00f" stroke-linecap="round" stroke-linejoin="round"/><polyline fill="none" points="-42.72027058406774,77.72859619953034 -40.220270584062874,77.0587232184606 -38.39014356513243,75.22859619954295 -37.72027058404521,72.72859619954276 -38.390143565114954,70.22859619953789 -40.2202705840326,68.39846918060745 -42.72027058403278,67.72859619952023 -45.22027058403765,68.39846918058997 -47.05039760296809,70.22859619950762 -47.720270584055314,72.7285961995078 -47.05039760298557,75.22859619951268 -45.220270584067926,77.05872321844312 -42.72027058406774,77.72859619953034" stroke="#00f" stroke-linecap="round" stroke-linejoin="round"/><polyline fill="none" points="140.23343424277837,51.923106705080336 142.73343424278323,51.25323372401059 144.5635612617137,49.42310670509295 145.2334342428009,46.92310670509276 144.56356126173117,44.42310670508789 142.73343424281353,42.59297968615745 140.23343424281333,41.923106705070225 137.73343424280847,42.59297968613997 135.90330722387802,44.42310670505761 135.2334342427908,46.9231067050578 135.90330722386054,49.42310670506267 137.73343424277817,51.25323372399312 140.23343424277837,51.92310670508035" stroke="#ffa500" stroke-linecap="round" stroke-linejoin="round"/><polyline fill="none" points="113.77856734639614,-17.233224917383883 116.27856734640102,-17.903097898453623 118.10869436533146,-19.733224917371267 118.77856734641868,-22.23322491737145 118.10869436534894,-24.733224917376322 116.2785673464313,-26.56335193630677 113.77856734643112,-27.233224917393997 111.27856734642624,-26.563351936324256 109.4484403274958,-24.733224917406613 108.77856734640858,-22.233224917406424 109.44844032747832,-19.73322491740155 111.27856734639596,-17.903097898471103 113.77856734639614,-17.233224917383872" stroke="#ffa500" stroke-linecap="round" stroke-linejoin="round"/><polyline fill="none" points="103.31987266831831,-81.86484291783862 105.81987266832319,-82.53471589890836 107.64999968725364,-84.364842917826 108.31987266834088,-86.86484291782618 107.64999968727113,-89.36484291783106 105.8198726683535,-91.19496993676151 103.31987266835331,-91.86484291784875 100.81987266834844,-91.194969936779 98.98974564941798,-89.36484291786137 98.31987266833075,-86.86484291786118 98.98974564940048,-84.36484291785631 100.81987266831811,-82.53471589892585 103.3198726683183,-81.86484291783862" stroke="#ffa500" stroke-linecap="round" stroke-linejoin="round"/><polyline fill="none" points="-23.69703869026799,20.187559233565494 -21.197038690263117,19.517686252495757 -19.366911671332666,17.687559233578117 -18.69703869024543,15.18755923357793 -19.36691167131517,12.687559233573054 -21.19703869023281,10.857432214642603 -23.697038690232997,10.187559233555369 -26.19703869023787,10.857432214625105 -28.027165709168322,12.687559233542746 -28.697038690255557,15.187559233542933 -28.027165709185823,17.68755923354781 -26.197038690268183,19.51768625247826 -23.697038690267995,20.187559233565494" stroke="#00f" stroke-linecap="round" stroke-linejoin="round"/><polyline fill="none" points="-16.618777266656036,125.3770332779817 -14.11877726665116,124.70716029691197 -12.288650247720707,122.87703327799433 -11.61877726663347,120.37703327799414 -12.288650247703204,117.87703327798927 -14.118777266620844,116.04690625905882 -16.61877726662103,115.37703327797158 -19.11877726662591,116.04690625904131 -20.948904285556363,117.87703327795894 -21.6187772666436,120.37703327795913 -20.948904285573867,122.877033277964 -19.118777266656227,124.70716029689446 -16.61877726665604,125.3770332779817" stroke="#ffa500" stroke-linecap="round" stroke-linejoin="round"/><polyline fill="none" points="69.49210835498435,-104.0562273367027 71.99210835498923,-104.72610031777243 73.82223537391968,-106.55622733669007 74.49210835500692,-109.05622733669026 73.82223537393719,-111.55622733669513 71.99210835501955,-113.38635435562558 69.49210835501937,-114.05622733671282 66.9921083550145,-113.38635435564309 65.16198133608404,-111.55622733672546 64.4921083549968,-109.05622733672527 65.16198133606653,-106.5562273367204 66.99210835498417,-104.72610031778994 69.49210835498435,-104.0562273367027" stroke="#ffa500" stroke-linecap="round" stroke-linejoin="round"/><polyline fill="none" points="-72.24051020854378,23.758227002058156 -69.74051020853891,23.088354020988426 -67.91038318960845,21.25822700207079 -67.24051020852121,18.7582270020706 -67.91038318959095,16.258227002065723 -69.74051020850858,14.428099983135265 -72.24051020850877,13.758227002048022 -74.74051020851364,14.42809998311775 -76.5706372274441,16.258227002035387 -77.24051020853133,18.758227002035575 -76.5706372274616,21.258227002040456 -74.74051020854397,23.088354020970915 -72.24051020854378,23.75822700205816" stroke="#008000" stroke-linecap="round" stroke-linejoin="round"/><polyline fill="none" points="80.64532072943513,-52.68130497857317 83.14532072944,-53.351177959642904 84.97544774837046,-55.18130497856054 85.6453207294577,-57.681304978560725 84.97544774838796,-60.181304978565606 83.14532072947033,-62.01143199749607 80.64532072947014,-62.68130497858331 78.14532072946525,-62.01143199751359 76.3151937105348,-60.18130497859595 75.64532072944755,-57.68130497859577 76.31519371051728,-55.18130497859089 78.14532072943491,-53.351177959660426 80.6453207294351,-52.68130497857318" stroke="#ffa500" stroke-linecap="round" stroke-linejoin="round"/><polyline fill="none" points="-74.04334500597524,-13.767517031033876 -71.54334500597037,-14.4373900121036 -69.7132179870399,-16.267517031021235 -69.04334500595265,-18.76751703102142 -69.71321798702238,-21.2675170310263 -71.54334500594001,-23.097644049956763 -74.0433450059402,-23.76751703104401 -76.54334500594508,-23.09764404997429 -78.37347202487555,-21.267517031056656 -79.0433450059628,-18.76751703105647 -78.37347202489309,-16.26751703105159 -76.54334500597545,-14.437390012121126 -74.04334500597527,-13.767517031033876" stroke="#00f" stroke-linecap="round" stroke-linejoin="round"/><polyline fill="none" points="46.487010185653304,-90.45974200102901 48.987010185658185,-91.12961498209873 50.81713720458865,-92.95974200101637 51.4870101856759,-95.45974200101655 50.817137204606176,-97.95974200102144 48.98701018568855,-99.78986901995191 46.48701018568836,-100.45974200103916 43.98701018568348,-99.78986901996944 42.15688316675302,-97.95974200105181 41.48701018566577,-95.45974200105162 42.15688316673549,-92.95974200104673 43.98701018565312,-91.12961498211627 46.487010185653304,-90.45974200102901" stroke="#00f" stroke-linecap="round" stroke-linejoin="round"/><polyline fill="none" points="124.03268135726705,-25.14098979341705 126.53268135727194,-25.81086277448677 128.3628083762024,-27.6409897934044 129.03268135728965,-30.140989793404586 128.36280837621993,-32.64098979340947 126.5326813573023,-34.471116812339936 124.03268135730211,-35.14098979342719 121.53268135729722,-34.47111681235747 119.70255433836675,-32.64098979343984 119.0326813572795,-30.14098979343966 119.70255433834922,-27.640989793434773 121.53268135726685,-25.810862774504304 124.03268135726704,-25.14098979341705" stroke="#ffa500" stroke-linecap="round" stroke-linejoin="round"/><polyline fill="none" points="102.90152468694595,-24.571753488044425 105.40152468695084,-25.24162646911414 107.2316517058813,-27.07175348803177 107.90152468696856,-29.57175348803196 107.23165170589884,-32.07175348803685 105.4015246869812,-33.901880506967316 102.90152468698102,-34.571753488054576 100.40152468697613,-33.90188050698486 98.57139766804566,-32.07175348806723 97.90152468695841,-29.571753488067046 98.57139766802813,-27.07175348806216 100.40152468694575,-25.24162646913169 102.90152468694593,-24.571753488044433" stroke="#ffa500" stroke-linecap="round" stroke-linejoin="round"/><polyline fill="none" points="78.78069314485023,-77.0704833799424 81.28069314485512,-77.74035636101212 83.11082016378559,-79.57048337992975 83.78069314487284,-82.07048337992994 83.11082016380313,-84.57048337993483 81.2806931448855,-86.4006103988653 78.78069314488532,-87.07048337995255 76.28069314488043,-86.40061039888283 74.45056612594996,-84.57048337996521 73.7806931448627,-82.07048337996503 74.45056612593241,-79.57048337996014 76.28069314485003,-77.74035636102967 78.78069314485022,-77.0704833799424" stroke="#ffa500" stroke-linecap="round" stroke-linejoin="round"/><polyline fill="none" points="33.83076950065713,68.20232218191703 36.330769500662015,67.53244920084731 38.16089651959249,65.70232218192969 38.83076950067975,63.2023221819295 38.16089651961004,60.702322181924615 36.33076950069241,58.87219516299414 33.83076950069223,58.20232218190688 31.33076950068734,58.87219516297659 29.500642481756863,60.70232218189422 28.8307695006696,63.2023221818944 29.500642481739312,65.70232218189929 31.330769500656938,67.53244920082976 33.83076950065713,68.20232218191703" stroke="#00f" stroke-linecap="round" stroke-linejoin="round"/><polyline fill="none" points="72.98487249695545,-37.52592775191679 75.48487249696034,-38.1958007329865 77.3149995158908,-40.02592775190413 77.98487249697807,-42.52592775190431 77.31499951590835,-45.0259277519092 75.48487249699073,-46.85605477083968 72.98487249699055,-47.52592775192694 70.48487249698566,-46.856054770857234 68.65474547805518,-45.025927751939605 67.98487249696791,-42.52592775193942 68.65474547803763,-40.02592775193453 70.48487249695525,-38.195800733004056 72.98487249695543,-37.52592775191679" stroke="#00f" stroke-linecap="round" stroke-linejoin="round"/><polyline fill="none" points="99.81099297890523,-48.373800468505465 102.31099297891012,-49.043673449575174 104.1411199978406,-50.873800468492796 104.81099297892787,-53.37380046849298 104.14111999785817,-55.87380046849787 102.31099297894055,-57.703927487428345 99.81099297894036,-58.37380046851561 97.31099297893547,-57.7039274874459 95.48086596000499,-55.87380046852828 94.81099297891772,-53.373800468528096 95.48086595998743,-50.8738004685232 97.31099297890505,-49.04367344959272 99.81099297890523,-48.37380046850545" stroke="#00f" stroke-linecap="round" stroke-linejoin="round"/><polyline fill="none" points="84.14252483438467,34.727549971846756 86.64252483438956,34.05767699077705 88.47265185332004,32.227549971859425 89.14252483440731,29.72754997185924 88.47265185333761,27.227549971854348 86.64252483441999,25.39742295292387 84.1425248344198,24.7275499718366 81.64252483441491,25.397422952906304 79.81239781548443,27.227549971823926 79.14252483439716,29.72754997182411 79.81239781546687,32.227549971829006 81.64252483438449,34.05767699075949 84.14252483438467,34.72754997184676" stroke="#ffa500" stroke-linecap="round" stroke-linejoin="round"/><polyline fill="none" points="113.57358756070239,13.349132878245058 116.07358756070728,12.679259897175355 117.90371457963776,10.849132878257732 118.57358756072503,8.349132878257546 117.90371457965533,5.849132878252652 116.0735875607377,4.019005859322168 113.57358756073752,3.349132878234895 111.07358756073263,4.019005859304597 109.24346054180215,5.8491328782222185 108.57358756071488,8.349132878222406 109.24346054178459,10.849132878227302 111.07358756070221,12.679259897157786 113.57358756070239,13.34913287824506" stroke="#ffa500" stroke-linecap="round" stroke-linejoin="round"/><polyline fill="none" points="27.27601714373841,-30.177810279574373 29.776017143743307,-30.847683260644075 31.606144162673793,-32.6778102795617 32.27601714376107,-35.17781027956188 31.606144162691365,-37.67781027956678 29.776017143773743,-39.50793729849726 27.276017143773558,-40.177810279584534 24.776017143768662,-39.50793729851483 22.945890124838176,-37.67781027959721 22.2760171437509,-35.177810279597026 22.945890124820597,-32.67781027959213 24.776017143738216,-30.847683260661643 27.2760171437384,-30.177810279574366" stroke="#ffa500" stroke-linecap="round" stroke-linejoin="round"/><polyline fill="none" points="100.46040098722241,-12.687483800901308 102.96040098722732,-13.357356781971006 104.7905280061578,-15.187483800888625 105.46040098724508,-17.687483800888813 104.79052800617538,-20.18748380089371 102.96040098725776,-22.0176108198242 100.46040098725757,-22.687483800911476 97.96040098725267,-22.017610819841778 96.13027396832219,-20.18748380092416 95.4604009872349,-17.68748380092397 96.1302739683046,-15.187483800919074 97.96040098722223,-13.357356781988583 100.46040098722241,-12.687483800901305" stroke="#ffa500" stroke-linecap="round" stroke-linejoin="round"/><polyline fill="none" points="-42.87226323355281,49.90069948130423 -40.37226323354791,49.230826500234535 -38.54213621461742,47.40069948131692 -37.87226323353014,44.900699481316735 -38.542136214599836,42.40069948131184 -40.37226323351745,40.57057246238135 -42.872263233517636,39.90069948129407 -45.37226323352253,40.570572462363764 -47.20239025245302,42.40069948128138 -47.8722632335403,44.90069948128156 -47.20239025247061,47.400699481286466 -45.37226323355299,49.230826500216956 -42.87226323355281,49.90069948130424" stroke="#ffa500" stroke-linecap="round" stroke-linejoin="round"/><polyline fill="none" points="38.834987958266645,-36.1410576322583 41.33498795827155,-36.810930613328 43.16511497720204,-38.64105763224561 43.83498795828932,-41.1410576322458 43.16511497721962,-43.6410576322507 41.33498795830201,-45.4711846511812 38.834987958301824,-46.14105763226848 36.33498795829692,-45.47118465119878 34.504860939366424,-43.64105763228117 33.834987958279136,-41.14105763228098 34.50486093934883,-38.64105763227608 36.334987958266446,-36.81093061334558 38.83498795826663,-36.141057632258295" stroke="#00f" stroke-linecap="round" stroke-linejoin="round"/><polyline fill="none" points="-99.69826940562253,10.80754591389223 -97.19826940561762,10.13767293282254 -95.36814238668713,8.307545913904924 -94.69826940559985,5.807545913904737 -95.36814238666953,3.3075459138998347 -97.19826940558715,1.4774188949693376 -99.69826940558734,0.8075459138820505 -102.19826940559224,1.4774188949517406 -104.02839642452274,3.3075459138693555 -104.69826940561003,5.807545913869543 -104.02839642454035,8.307545913874446 -102.19826940562274,10.137672932804945 -99.69826940562255,10.807545913892234" stroke="#ffa500" stroke-linecap="round" stroke-linejoin="round"/><polyline fill="none" points="-65.7059350929659,61.55213835479895 -63.205935092961,60.88226537372926 -61.3758080740305,59.052138354811646 -60.705935092943214,56.55213835481146 -61.3758080740129,54.05213835480656 -63.20593509293052,52.22201133587606 -65.7059350929307,51.552138354788774 -68.2059350929356,52.22201133585846 -70.0360621118661,54.052138354776076 -70.7059350929534,56.55213835477626 -70.03606211188371,59.052138354781164 -68.2059350929661,60.88226537371167 -65.70593509296592,61.55213835479896" stroke="#ffa500" stroke-linecap="round" stroke-linejoin="round"/><polyline fill="none" points="117.87976935392543,86.11479444923782 120.37976935393033,85.44492146816813 122.20989637286083,83.61479444925052 122.87976935394812,81.11479444925034 122.20989637287843,78.61479444924544 120.37976935396082,76.78466743031494 117.87976935396064,76.11479444922765 115.37976935395574,76.78466743029733 113.54964233502524,78.61479444921494 112.87976935393795,81.11479444921513 113.54964233500763,83.61479444922003 115.37976935392524,85.44492146815053 117.87976935392543,86.11479444923782" stroke="#ffa500" stroke-linecap="round" stroke-linejoin="round"/><polyline fill="none" points="-80.29319849005695,47.001766216449234 -77.79319849005205,46.331893235379546 -75.96307147112154,44.50176621646193 -75.29319849003424,42.00176621646174 -75.96307147110393,39.50176621645683 -77.79319849002154,37.671639197526325 -80.29319849002172,37.00176621643903 -82.79319849002663,37.67163919750871 -84.62332550895714,39.501766216426326 -85.29319849004443,42.00176621642652 -84.62332550897474,44.50176621643143 -82.79319849005714,46.33189323536193 -80.29319849005695,47.00176621644923" stroke="#f00" stroke-linecap="round" stroke-linejoin="round"/><polyline fill="none" points="32.76899015618888,-59.58727546270879 35.26899015619379,-60.25714844377847 37.09911717512429,-62.087275462696084 37.768990156211586,-64.58727546269627 37.099117175141906,-67.08727546270117 35.26899015622429,-68.91740248163168 32.7689901562241,-69.58727546271898 30.26899015621919,-68.91740248164929 28.43886313728868,-67.08727546273168 27.768990156201383,-64.5872754627315 28.438863137271063,-62.08727546272659 30.268990156188675,-60.257148443796076 32.76899015618886,-59.587275462708774" stroke="#ffa500" stroke-linecap="round" stroke-linejoin="round"/><polyline fill="none" points="101.6748990843244,-44.657243033328676 104.17489908432931,-45.32711601439836 106.00502610325982,-47.157243033315964 106.67489908434712,-49.657243033316156 106.00502610327744,-52.157243033321066 104.17489908435984,-53.98737005225158 101.67489908435965,-54.65724303333888 99.17489908435473,-53.9873700522692 97.34477206542422,-52.15724303335159 96.67489908433691,-49.6572430333514 97.34477206540659,-47.15724303334649 99.1748990843242,-45.32711601441598 101.67489908432438,-44.657243033328676" stroke="#ffa500" stroke-linecap="round" stroke-linejoin="round"/><polyline fill="none" points="137.96229174503313,0.480235290826343 140.46229174503804,-0.18963769024333466 142.29241876396856,-2.019764709160944 142.96229174505586,-4.519764709161134 142.29241876398618,-7.019764709166047 140.46229174506857,-8.84989172809656 137.96229174506837,-9.519764709183864 135.46229174506345,-8.849891728114187 133.63216472613294,-7.019764709196578 132.96229174504563,-4.519764709196388 133.63216472611532,-2.0197647091914743 135.46229174503293,-0.18963769026096022 137.96229174503313,0.4802352908263454" stroke="#ffa500" stroke-linecap="round" stroke-linejoin="round"/><polyline fill="none" points="-48.370585961737866,49.08904789538466 -45.87058596173295,48.419174914314986 -44.04045894280243,46.58904789539738 -43.37058596171512,44.08904789539719 -44.040458942784795,41.58904789539227 -45.8705859617024,39.75892087646175 -48.370585961702595,39.08904789537444 -50.87058596170751,39.758920876444115 -52.70071298063803,41.58904789536172 -53.37058596172534,44.089047895361915 -52.700712980655666,46.58904789536683 -50.87058596173806,48.41917491429735 -48.370585961737866,49.08904789538466" stroke="#00f" stroke-linecap="round" stroke-linejoin="round"/><polyline fill="none" points="86.86713741796434,-31.35751960693782 89.36713741796926,-32.027392588007494 91.19726443689977,-33.8575196069251 91.86713741798708,-36.357519606925294 91.19726443691741,-38.85751960693021 89.3671374179998,-40.68764662586073 86.86713741799961,-41.35751960694804 84.3671374179947,-40.687646625878365 82.53701039906417,-38.85751960696076 81.86713741797686,-36.357519606960565 82.53701039904654,-33.85751960695565 84.36713741796414,-32.02739258802513 86.86713741796433,-31.357519606937817" stroke="#ffa500" stroke-linecap="round" stroke-linejoin="round"/><polyline fill="none" points="114.01038751201314,30.682151129153286 116.51038751201806,30.012278148083617 118.34051453094858,28.182151129166012 119.01038751203589,25.68215112916582 118.34051453096622,23.182151129160903 116.51038751204861,21.35202411023038 114.01038751204842,20.68215112914307 111.51038751204351,21.35202411021274 109.68026049311298,23.182151129130343 109.01038751202567,25.682151129130535 109.68026049309535,28.182151129135455 111.51038751201295,30.012278148065977 114.01038751201314,30.682151129153294" stroke="#ffa500" stroke-linecap="round" stroke-linejoin="round"/><polyline fill="none" points="116.02469614087855,101.04156243301225 118.52469614088346,100.37168945194257 120.35482315981399,98.54156243302496 121.0246961409013,96.04156243302478 120.35482315983162,93.54156243301986 118.52469614091402,91.71143541408934 116.02469614091383,91.04156243300201 113.52469614090892,91.71143541407167 111.69456912197839,93.54156243298928 111.02469614089107,96.04156243298947 111.69456912196073,98.54156243299438 113.52469614087833,100.37168945192491 116.02469614087852,101.04156243301223" stroke="#ffa500" stroke-linecap="round" stroke-linejoin="round"/><polyline fill="none" points="37.54806768022078,134.43593322623286 40.0480676802257,133.7660602451632 41.878194699156225,131.9359332262456 42.54806768024354,129.4359332262454 41.878194699173875,126.93593322624048 40.048067680256274,125.10580620730995 37.54806768025608,124.43593322622263 35.04806768025116,125.10580620729229 33.21794066132063,126.9359332262099 32.54806768023331,129.4359332262101 33.217940661302976,131.935933226215 35.048067680220576,133.76606024514555 37.54806768022077,134.43593322623286" stroke="#ffa500" stroke-linecap="round" stroke-linejoin="round"/><polyline fill="none" points="-65.30537926543826,-15.851829146750955 -62.80537926543334,-16.521702127820618 -60.97525224650281,-18.35182914673822 -60.30537926541549,-20.85182914673841 -60.97525224648515,-23.351829146743334 -62.80537926540275,-25.181956165673864 -65.30537926540293,-25.851829146761187 -67.80537926540785,-25.181956165691524 -69.63550628433838,-23.351829146773923 -70.3053792654257,-20.85182914677373 -69.63550628435604,-18.351829146768807 -67.80537926543845,-16.521702127838278 -65.30537926543826,-15.851829146750955" stroke="#00f" stroke-linecap="round" stroke-linejoin="round"/><polyline fill="none" points="-125.3848713088966,34.60646221139781 -122.88487130889169,33.93658923032815 -121.05474428996116,32.10646221141055 -120.38487130887384,29.60646221141036 -121.0547442899435,27.106462211405436 -122.8848713088611,25.276335192474903 -125.38487130886128,24.606462211387576 -127.8848713088662,25.276335192457235 -129.71499832779674,27.106462211374833 -130.38487130888407,29.606462211375025 -129.7149983278144,32.10646221137995 -127.88487130889682,33.93658923031048 -125.38487130889663,34.606462211397805" stroke="#00f" stroke-linecap="round" stroke-linejoin="round"/><polyline fill="none" points="101.47206708187916,122.43339020329627 103.97206708188409,121.76351722222661 105.80219410081463,119.93339020330902 106.47206708190195,117.43339020330883 105.8021941008323,114.9333902033039 103.9720670819147,113.10326318437336 101.47206708191452,112.43339020328604 98.97206708190959,113.1032631843557 97.14194006297905,114.93339020327329 96.47206708189172,117.43339020327348 97.14194006296138,119.9333902032784 98.97206708187898,121.76351722220895 101.47206708187916,122.43339020329627" stroke="#ffa500" stroke-linecap="round" stroke-linejoin="round"/><polyline fill="none" points="15.495517090352212,98.77929635372529 17.99551709035714,98.10942337265563 19.825644109287676,96.27929635373803 20.495517090375007,93.77929635373783 19.82564410930535,91.2792963537329 17.995517090387754,89.44916933480236 15.495517090387562,88.77929635371504 12.995517090382634,89.4491693347847 11.165390071452098,91.27929635370229 10.495517090364768,93.77929635370249 11.165390071434423,96.27929635370742 12.99551709035202,98.10942337263796 15.495517090352212,98.7792963537253" stroke="#ffa500" stroke-linecap="round" stroke-linejoin="round"/><polyline fill="none" points="-52.68007409497787,-18.090767179173024 -50.18007409497294,-18.76064016024268 -48.3499470760424,-20.590767179160277 -47.68007409495507,-23.09076717916047 -48.34994707602472,-25.590767179165397 -50.18007409494231,-27.420894198095937 -52.680074094942505,-28.09076717918327 -55.180074094947436,-27.42089419811362 -57.010201113877976,-25.59076717919602 -57.680074094965306,-23.09076717919583 -57.010201113895654,-20.590767179190898 -55.18007409497806,-18.76064016026036 -52.68007409497787,-18.090767179173024" stroke="#00f" stroke-linecap="round" stroke-linejoin="round"/><polyline fill="none" points="84.66376318582347,18.979656887305957 87.1637631858284,18.309783906236305 88.99389020475894,16.479656887318708 89.66376318584628,13.979656887318516 88.99389020477663,11.479656887313585 87.16376318585904,9.649529868383043 84.66376318585884,8.979656887295707 82.16376318585391,9.649529868365358 80.33363616692337,11.479656887282953 79.66376318583603,13.979656887283145 80.33363616690568,16.479656887288076 82.16376318582327,18.30978390621862 84.66376318582347,18.979656887305957" stroke="#ffa500" stroke-linecap="round" stroke-linejoin="round"/><polyline fill="none" points="53.251892978956754,31.415901190921925 55.751892978961685,30.746028209852277 57.582019997892225,28.915901190934683 58.25189297897956,26.41590119093449 57.58201999790991,23.91590119092956 55.751892978992316,22.085774171999017 53.251892978992124,21.41590119091168 50.75189297898719,22.085774171981328 48.921765960056646,23.91590119089892 48.25189297896931,26.415901190899113 48.921765960038954,28.915901190904044 50.75189297895655,30.746028209834588 53.25189297895674,31.41590119092193" stroke="#00f" stroke-linecap="round" stroke-linejoin="round"/><polyline fill="none" points="34.80576559436005,108.89403205195786 37.30576559436498,108.22415907088822 39.135892613295525,106.39403205197063 39.80576559438286,103.89403205197043 39.13589261331322,101.3940320519655 37.30576559439562,99.56390503303496 34.80576559439543,98.89403205194762 32.3057655943905,99.56390503301726 30.475638575459953,101.39403205193486 29.805765594372613,103.89403205193506 30.475638575442257,106.39403205193999 32.30576559435985,108.22415907087054 34.80576559436004,108.89403205195788" stroke="#ffa500" stroke-linecap="round" stroke-linejoin="round"/><polyline fill="none" points="-31.933102738496135,15.716581346479638 -29.4331027384912,15.046708365409993 -27.602975719560654,13.2165813464924 -26.93310273847331,10.716581346492209 -27.602975719542954,8.216581346487274 -29.433102738460548,6.386454327556725 -31.93310273846074,5.716581346469382 -34.43310273846568,6.386454327539026 -36.263229757396225,8.216581346456618 -36.93310273848357,10.71658134645681 -36.263229757413924,13.216581346461744 -34.43310273849633,15.046708365392295 -31.93310273849614,15.71658134647964" stroke="#ffa500" stroke-linecap="round" stroke-linejoin="round"/><polyline fill="none" points="17.263934550905013,85.86039574839938 19.763934550909948,85.19052276732974 21.5940615698405,83.36039574841215 22.263934550927843,80.86039574841195 21.5940615698582,78.36039574840702 19.76393455094061,76.53026872947646 17.26393455094042,75.86039574838911 14.763934550935483,76.53026872945875 12.933807532004932,78.36039574837635 12.263934550917586,80.86039574837655 12.933807531987227,83.36039574838148 14.763934550904818,85.19052276731203 17.26393455090501,85.86039574839938" stroke="#ffa500" stroke-linecap="round" stroke-linejoin="round"/><polyline fill="none" points="47.074225690780374,61.358052925373705 49.57422569078531,60.68817994430407 51.404352709715866,58.85805292538648 52.07422569080322,56.35805292538629 51.40435270973358,53.85805292538135 49.57422569081599,52.0279259064508 47.0742256908158,51.358052925363445 44.57422569081086,52.02792590643308 42.74409867188031,53.85805292535067 42.07422569079296,56.35805292535086 42.744098671862595,58.8580529253558 44.57422569078018,60.688179944286354 47.074225690780374,61.358052925373705" stroke="#ffa500" stroke-linecap="round" stroke-linejoin="round"/><polyline fill="none" points="41.499173631230626,46.375813200210565 43.999173631235564,45.70594021914093 45.82930065016612,43.87581320022334 46.49917363125347,41.37581320022315 45.82930065018383,38.87581320021821 43.999173631266245,37.04568618128766 41.49917363126605,36.375813200200305 38.999173631261115,37.04568618126994 37.16904661233056,38.87581320018753 36.49917363124321,41.37581320018772 37.16904661231285,43.87581320019266 38.999173631230434,45.705940219123214 41.499173631230626,46.375813200210565" stroke="#00f" stroke-linecap="round" stroke-linejoin="round"/><polyline fill="none" points="-17.229674875027225,108.51201348844694 -14.729674875022285,107.84214050737731 -12.899547856091727,106.01201348845973 -12.229674875004374,103.51201348845953 -12.899547856074008,101.01201348845458 -14.729674874991595,99.18188646952403 -17.229674874991787,98.51201348843668 -19.72967487499673,99.18188646950631 -21.559801893927286,101.01201348842389 -22.22967487501464,103.51201348842409 -21.559801893945007,106.01201348842903 -19.72967487502742,107.84214050735959 -17.22967487502723,108.51201348844694" stroke="#ffa500" stroke-linecap="round" stroke-linejoin="round"/><polyline fill="none" points="-75.30808514108814,51.1280256696841 -72.8080851410832,50.45815268861447 -70.97795812215264,48.62802566969688 -70.30808514106529,46.12802566969669 -70.97795812213492,43.628025669691745 -72.8080851410525,41.797898650761184 -75.3080851410527,41.128025669673825 -77.80808514105765,41.797898650743456 -79.63821215998821,43.62802566966104 -80.30808514107557,46.128025669661234 -79.63821216000593,48.62802566966618 -77.80808514108836,50.45815268859674 -75.30808514108816,51.1280256696841" stroke="#00f" stroke-linecap="round" stroke-linejoin="round"/><polyline fill="none" points="-71.11473246951279,122.79390690470285 -68.61473246950784,122.12403392363322 -66.78460545057727,120.29390690471564 -66.11473246948991,117.79390690471544 -66.78460545055954,115.2939069047105 -68.61473246947712,113.46377988577993 -71.11473246947732,112.79390690469256 -73.61473246948226,113.4637798857622 -75.44485948841283,115.29390690467977 -76.1147324695002,117.79390690467997 -75.44485948843057,120.29390690468492 -73.61473246951299,122.12403392361549 -71.11473246951279,122.79390690470285" stroke="#ffa500" stroke-linecap="round" stroke-linejoin="round"/><polyline fill="none" points="7.837385935243914,119.07008144519533 10.337385935248857,118.4002084641257 12.167512954179422,116.57008144520812 12.837385935266784,114.07008144520792 12.167512954197157,111.57008144520297 10.337385935279574,109.7399544262724 7.837385935279381,109.07008144518504 5.337385935274437,109.73995442625467 3.507258916343871,111.57008144517225 2.8373859352565076,114.07008144517245 3.5072589163261343,116.5700814451774 5.337385935243716,118.40020846410796 7.837385935243908,119.07008144519533" stroke="#ffa500" stroke-linecap="round" stroke-linejoin="round"/><polyline fill="none" points="-69.48492547814578,37.55666950201525 -66.98492547814084,36.88679652094562 -65.15479845921027,35.05666950202804 -64.4849254781229,32.55666950202785 -65.15479845919253,30.056669502022906 -66.98492547811011,28.226542483092338 -69.48492547811031,27.556669502004972 -71.98492547811526,28.226542483074596 -73.81505249704583,30.056669501992175 -74.48492547813319,32.55666950199237 -73.81505249706356,35.05666950199731 -71.98492547814598,36.88679652092788 -69.48492547814578,37.55666950201525" stroke="#008000" stroke-linecap="round" stroke-linejoin="round"/><polyline fill="none" points="-77.10769034123221,4.286614785477435 -74.60769034122727,3.6167418044078112 -72.7775633222967,1.786614785490231 -72.10769034120933,-0.7133852145099617 -72.77756332227895,-3.2133852145149087 -74.60769034119653,-5.043512233445478 -77.10769034119673,-5.713385214532846 -79.60769034120167,-5.043512233463224 -81.43781736013224,-3.213385214545645 -82.10769034121961,-0.7133852145454522 -81.43781736014999,1.7866147854594954 -79.60769034123241,3.616741804390066 -77.10769034123221,4.286614785477434" stroke="#00f" stroke-linecap="round" stroke-linejoin="round"/><polyline fill="none" points="0.8677601670587886,101.00181552369108 3.3677601670637367,100.33194254262146 5.197887185994308,98.50181552370388 5.867760167081677,96.00181552370368 5.197887186012055,93.50181552369874 3.3677601670944766,91.67168850476817 0.8677601670942838,91.0018155236808 -1.6322398329106642,91.67168850475042 -3.4623668518412356,93.501815523668 -4.132239832928606,96.0018155236682 -3.462366851858986,98.50181552367314 -1.6322398329414083,100.33194254260371 0.867760167058784,101.00181552369108" stroke="#00f" stroke-linecap="round" stroke-linejoin="round"/><polyline fill="none" points="-96.30412306980453,41.45541825968522 -93.80412306979959,40.7855452786156 -91.97399605086902,38.95541825969802 -91.30412306978165,36.45541825969783 -91.97399605085127,33.95541825969288 -93.80412306976885,32.1252912407623 -96.30412306976905,31.45541825967493 -98.804123069774,32.125291240744545 -100.63425008870456,33.955418259662125 -101.30412306979194,36.455418259662316 -100.63425008872233,38.95541825966727 -98.80412306980475,40.785545278597844 -96.30412306980455,41.45541825968522" stroke="#00f" stroke-linecap="round" stroke-linejoin="round"/><polyline fill="none" points="9.187125604862691,117.24339116677237 11.687125604867642,116.57351818570275 13.517252623798218,114.74339116678517 14.187125604885592,112.24339116678497 13.517252623815976,109.74339116678003 11.6871256048984,107.91326414784945 9.187125604898206,107.24339116676207 6.6871256048932555,107.91326414783168 4.856998585962679,109.74339116674926 4.187125604875303,112.24339116674946 4.856998585944918,114.7433911667544 6.6871256048624925,116.57351818568499 9.187125604862684,117.24339116677237" stroke="#ffa500" stroke-linecap="round" stroke-linejoin="round"/><polyline fill="none" points="-71.48596286723134,98.31723975072128 -68.98596286722639,97.64736676965167 -67.15583584829581,95.81723975073409 -66.48596286720843,93.31723975073389 -67.15583584827804,90.81723975072893 -68.98596286719562,88.98711273179835 -71.48596286719582,88.31723975071097 -73.98596286720078,88.98711273178058 -75.81608988613137,90.81723975069816 -76.48596286721875,93.31723975069836 -75.81608988614913,95.81723975070332 -73.98596286723155,97.6473667696339 -71.48596286723135,98.31723975072128" stroke="#ffa500" stroke-linecap="round" stroke-linejoin="round"/><polyline fill="none" points="9.09921178131752,-47.44143147854284 11.599211781322472,-48.11130445961245 13.429338800253053,-49.94143147853002 14.099211781340433,-52.44143147853021 13.429338800270822,-54.941431478535165 11.59921178135325,-56.77155849746575 9.099211781353057,-57.44143147855313 6.599211781348103,-56.77155849748352 4.7690847624175206,-54.941431478565946 4.099211781330138,-52.441431478565754 4.769084762399748,-49.9414314785608 6.59921178131732,-48.11130445963022 9.099211781317512,-47.44143147854284" stroke="#ffa500" stroke-linecap="round" stroke-linejoin="round"/><polyline fill="none" points="-53.82270688781115,110.6896164905493 -51.3227068878062,110.01974350947968 -49.492579868875616,108.18961649056212 -48.82270688778823,105.68961649056192 -49.49257986885784,103.18961649055696 -51.32270688777541,101.35948947162638 -53.8227068877756,100.689616490539 -56.322706887780555,101.3594894716086 -58.15283390671114,103.18961649052616 -58.822706887798525,105.68961649052636 -58.152833906728915,108.18961649053132 -56.32270688781134,110.0197435094619 -53.82270688781115,110.68961649054928" stroke="#ffa500" stroke-linecap="round" stroke-linejoin="round"/><polyline fill="none" points="38.85605256865521,34.65689423683514 41.35605256866017,33.987021255765534 43.18617958759075,32.15689423684796 43.85605256867814,29.65689423684777 43.18617958760853,27.156894236842813 41.356052568690956,25.326767217912227 38.856052568690764,24.65689423682484 36.356052568685804,25.326767217894446 34.525925549755215,27.156894236812015 33.85605256866783,29.656894236812207 34.52592554973744,32.156894236817166 36.35605256865501,33.987021255747756 38.8560525686552,34.65689423683514" stroke="#ffa500" stroke-linecap="round" stroke-linejoin="round"/><polyline fill="none" points="-77.91871707192342,37.28411661465943 -75.41871707191846,36.61424363358983 -73.58859005298788,34.78411661467226 -72.91871707190049,32.284116614672065 -73.58859005297009,29.78411661466711 -75.41871707188766,27.95398959573652 -77.91871707188785,27.28411661464913 -80.41871707189281,27.95398959571873 -82.2488440908234,29.7841166146363 -82.91871707191079,32.284116614636496 -82.24884409084119,34.784116614641455 -80.41871707192362,36.614243633572045 -77.91871707192342,37.28411661465944" stroke="#008000" stroke-linecap="round" stroke-linejoin="round"/><polyline fill="none" points="-78.62115615026684,69.43101887778937 -76.12115615026188,68.76114589671977 -74.29102913133129,66.9310188778022 -73.62115615024389,64.431018877802 -74.2910291313135,61.931018877797044 -76.12115615023106,60.100891858866454 -78.62115615023126,59.43101887777906 -81.12115615023622,60.10089185884866 -82.95128316916681,61.93101887776623 -83.62115615025421,64.43101887776642 -82.9512831691846,66.93101887777138 -81.12115615026704,68.76114589670198 -78.62115615026684,69.43101887778937" stroke="#00f" stroke-linecap="round" stroke-linejoin="round"/><polyline fill="none" points="-106.66068160829717,91.69976172788263 -104.16068160829221,91.02988874681303 -102.33055458936161,89.19976172789546 -101.66068160827422,86.69976172789526 -102.33055458934382,84.1997617278903 -104.16068160826138,82.36963470895971 -106.66068160826158,81.69976172787231 -109.16068160826654,82.36963470894192 -110.99080862719714,84.19976172785948 -111.66068160828453,86.69976172785968 -110.99080862721493,89.19976172786464 -109.16068160829737,91.02988874679524 -106.66068160829717,91.69976172788263" stroke="#ffa500" stroke-linecap="round" stroke-linejoin="round"/><polyline fill="none" points="98.73741150190475,97.75313887784186 101.2374115019097,97.08326589677226 103.0675385208403,95.2531388778547 103.7374115019277,92.7531388778545 103.0675385208581,90.25313887784954 101.23741150194053,88.42301185891894 98.73741150194033,87.75313887783155 96.23741150193537,88.42301185890115 94.40728448300477,90.25313887781871 93.73741150191738,92.75313887781891 94.40728448298698,95.25313887782387 96.23741150190455,97.08326589675447 98.73741150190475,97.75313887784186" stroke="#00f" stroke-linecap="round" stroke-linejoin="round"/><polyline fill="none" points="-113.04933739976704,-46.900315309664485 -110.54933739976208,-47.57018829073408 -108.71921038083148,-49.400315309651646 -108.04933739974409,-51.90031530965184 -108.71921038081368,-54.400315309656804 -110.54933739973124,-56.2304423285874 -113.04933739973144,-56.9003153096748 -115.5493373997364,-56.23044232860521 -117.379464418667,-54.40031530968764 -118.0493373997544,-51.90031530968745 -117.37946441868482,-49.40031530968248 -115.54933739976725,-47.57018829075189 -113.04933739976705,-46.900315309664485" stroke="#ffa500" stroke-linecap="round" stroke-linejoin="round"/><polyline fill="none" points="-77.65819300323426,87.24276199818199 -75.1581930032293,86.5728890171124 -73.3280659842987,84.74276199819484 -72.6581930032113,82.24276199819464 -73.32806598428088,79.74276199818968 -75.15819300319845,77.91263497925908 -77.65819300319865,77.24276199817167 -80.1581930032036,77.91263497924126 -81.9883200221342,79.74276199815883 -82.65819300322161,82.24276199815903 -81.98832002215202,84.74276199816399 -80.15819300323446,86.57288901709458 -77.65819300323426,87.24276199818199" stroke="#ffa500" stroke-linecap="round" stroke-linejoin="round"/><polyline fill="none" points="-154.01683191491918,33.7116041443225 -151.5168319149142,33.04173116325291 -149.6867048959836,31.21160414433535 -149.01683191489622,28.71160414433516 -149.68670489596582,26.21160414433019 -151.51683191488337,24.381477125399588 -154.01683191488357,23.711604144312183 -156.51683191488854,24.38147712538177 -158.34695893381914,26.21160414429933 -159.01683191490653,28.71160414429952 -158.34695893383693,31.211604144304488 -156.51683191491938,33.04173116323509 -154.01683191491918,33.7116041443225" stroke="#ffa500" stroke-linecap="round" stroke-linejoin="round"/><polyline fill="none" points="-75.95179278161254,37.73350649578392 -73.45179278160757,37.06363351471433 -71.62166576267695,35.233506495796775 -70.95179278158955,32.73350649579658 -71.62166576265913,30.233506495791616 -73.4517927815767,28.403379476861012 -75.9517927815769,27.733506495773604 -78.45179278158187,28.40337947684319 -80.28191980051248,30.23350649576075 -80.95179278159989,32.73350649576094 -80.2819198005303,35.23350649576591 -78.45179278161274,37.06363351469651 -75.95179278161254,37.73350649578392" stroke="#008000" stroke-linecap="round" stroke-linejoin="round"/><polyline fill="none" points="-112.2821339871521,-31.474820996858796 -109.78213398714712,-32.144693977928384 -107.95200696821651,-33.97482099684594 -107.2821339871291,-36.474820996846134 -107.95200696819869,-38.9748209968511 -109.78213398711624,-40.80494801578171 -112.28213398711644,-41.47482099686912 -114.78213398712141,-40.80494801579954 -116.61226100605202,-38.97482099688198 -117.28213398713943,-36.47482099688179 -116.61226100606984,-33.97482099687682 -114.78213398715229,-32.14469397794621 -112.2821339871521,-31.4748209968588" stroke="#ffa500" stroke-linecap="round" stroke-linejoin="round"/><polyline fill="none" points="-92.77934350906972,-26.51083014258933 -90.27934350906474,-27.180703123658915 -88.44921649013413,-29.01083014257647 -87.77934350904673,-31.510830142576662 -88.44921649011631,-34.01083014258163 -90.27934350903386,-35.84095716151224 -92.77934350903406,-36.51083014259966 -95.27934350903904,-35.84095716153008 -97.10947052796965,-34.01083014261252 -97.77934350905706,-31.510830142612328 -97.10947052798747,-29.010830142607357 -95.27934350906992,-27.180703123676746 -92.77934350906972,-26.51083014258933" stroke="#00f" stroke-linecap="round" stroke-linejoin="round"/><polyline fill="none" points="37.562474568353245,-77.8112023789168 40.06247456835822,-78.48107535998638 41.89260158728883,-80.31120237890393 42.562474568376246,-82.81120237890413 41.892601587306665,-85.3112023789091 40.06247456838911,-87.14132939783971 37.56247456838892,-87.81120237892713 35.06247456838395,-87.14132939785756 33.23234754945334,-85.31120237894001 32.56247456836592,-82.81120237893981 33.2323475494355,-80.31120237893484 35.06247456835305,-78.48107536000423 37.562474568353245,-77.8112023789168" stroke="#00f" stroke-linecap="round" stroke-linejoin="round"/><polyline fill="none" points="-98.30639398460295,17.159829782823575 -95.80639398459797,16.489956801753998 -93.97626696566736,14.659829782836443 -93.30639398457994,12.159829782836251 -93.97626696564951,9.659829782831277 -95.80639398456707,7.829702763900662 -98.30639398456726,7.159829782813241 -100.80639398457224,7.8297027638828185 -102.63652100350285,9.659829782800372 -103.30639398459027,12.159829782800564 -102.6365210035207,14.659829782805538 -100.80639398460315,16.489956801736156 -98.30639398460295,17.15982978282358" stroke="#00f" stroke-linecap="round" stroke-linejoin="round"/><polyline fill="none" points="-32.97202101275105,60.634411772226805 -30.472021012746076,59.96453879115723 -28.641893993815458,58.13441177223968 -27.972021012728035,55.63441177223949 -28.64189399379761,53.134411772234515 -30.47202101271516,51.3042847533039 -32.97202101271535,50.634411772216474 -35.472021012720326,51.30428475328605 -37.302148031650944,53.1344117722036 -37.97202101273837,55.63441177220379 -37.30214803166879,58.134411772208765 -35.47202101275124,59.96453879113938 -32.97202101275105,60.634411772226805" stroke="#ffa500" stroke-linecap="round" stroke-linejoin="round"/><polyline fill="none" points="-42.06071955930427,52.42682569358974 -39.560719559299294,51.75695271252017 -37.730592540368676,49.926825693602616 -37.06071955928125,47.426825693602424 -37.73059254035083,44.92682569359745 -39.56071955926838,43.09669867466683 -42.06071955926857,42.42682569357941 -44.560719559273544,43.096698674648984 -46.39084657820416,44.926825693566535 -47.06071955929159,47.42682569356673 -46.39084657822202,49.9268256935717 -44.56071955930447,51.75695271250232 -42.060719559304275,52.42682569358975" stroke="#008000" stroke-linecap="round" stroke-linejoin="round"/><polyline fill="none" points="26.952125580099835,35.95473124243007 29.452125580104813,35.2848582613605 31.282252599035434,33.454731242442946 31.952125580122864,30.954731242442755 31.282252599053294,28.454731242437777 29.452125580135746,26.624604223507156 26.952125580135554,25.954731242419726 24.452125580130577,26.624604223489296 22.621998561199952,28.454731242406844 21.952125580112522,30.954731242407036 22.62199856118209,33.45473124241202 24.452125580099636,35.28485826134264 26.95212558009983,35.95473124243007" stroke="#ffa500" stroke-linecap="round" stroke-linejoin="round"/><polyline fill="none" points="-27.228384711823043,-115.23493278567709 -24.728384711818066,-115.90480576674666 -22.89825769288744,-117.73493278566421 -22.228384711800008,-120.23493278566441 -22.898257692869574,-122.73493278566939 -24.728384711787122,-124.56505980460001 -27.228384711787314,-125.23493278568745 -29.728384711792295,-124.56505980461787 -31.55851173072292,-122.73493278570032 -32.22838471181035,-120.23493278570012 -31.558511730740783,-117.73493278569515 -29.728384711823235,-115.90480576676453 -27.228384711823043,-115.23493278567709" stroke="#ffa500" stroke-linecap="round" stroke-linejoin="round"/><polyline fill="none" points="-61.787798260821376,81.40526262235922 -59.287798260816395,80.73538964128966 -57.45767124188577,78.9052626223721 -56.78779826079833,76.40526262237191 -57.4576712418679,73.90526262236693 -59.28779826078544,72.07513560343631 -61.787798260785635,71.40526262234887 -64.28779826079062,72.07513560341843 -66.11792527972125,73.90526262233598 -66.78779826080869,76.40526262233618 -66.11792527973913,78.90526262234117 -64.28779826082157,80.7353896412718 -61.78779826082138,81.40526262235923" stroke="#ffa500" stroke-linecap="round" stroke-linejoin="round"/><polyline fill="none" points="49.108606898010834,-54.829492057547 51.608606898015815,-55.49936503861657 53.43873391694645,-57.32949205753411 54.108606898033884,-59.8294920575343 53.438733916964324,-62.329492057539284 51.60860689804678,-64.15961907646991 49.10860689804659,-64.82949205755735 46.60860689804161,-64.15961907648779 44.778479879110975,-62.32949205757024 44.10860689802354,-59.82949205757005 44.7784798790931,-57.32949205756507 46.60860689801064,-55.49936503863444 49.108606898010834,-54.829492057547" stroke="#ffa500" stroke-linecap="round" stroke-linejoin="round"/><polyline fill="none" points="-64.83186708019412,-89.54919990138897 -62.331867080189134,-90.21907288245853 -60.5017400612585,-92.04919990137607 -59.831867080171065,-94.54919990137627 -60.501740061240625,-97.04919990138126 -62.33186708015817,-98.87932692031188 -64.83186708015836,-99.54919990139932 -67.33186708016335,-98.87932692032976 -69.16199409909399,-97.04919990141222 -69.83186708018142,-94.54919990141202 -69.16199409911187,-92.04919990140704 -67.33186708019433,-90.2190728824764 -64.83186708019413,-89.54919990138896" stroke="#ffa500" stroke-linecap="round" stroke-linejoin="round"/><polyline fill="none" points="71.10233584257664,-25.841742557754092 73.60233584258162,-26.51161553882365 75.43246286151226,-28.341742557741192 76.1023358425997,-30.841742557741384 75.43246286153014,-33.34174255774637 73.6023358426126,-35.171869576677004 71.1023358426124,-35.84174255776445 68.60233584260742,-35.17186957669489 66.77220882367678,-33.341742557777344 66.10233584258933,-30.841742557777152 66.77220882365889,-28.341742557772168 68.60233584257642,-26.511615538841532 71.10233584257662,-25.84174255775409" stroke="#00f" stroke-linecap="round" stroke-linejoin="round"/><polyline fill="none" points="97.25483688416794,-57.8392014240816 99.75483688417293,-58.50907440515115 101.58496390310357,-60.33920142406869 102.25483688419102,-62.83920142406888 101.58496390312146,-65.33920142407386 99.75483688420393,-67.1693284430045 97.25483688420373,-67.83920142409195 94.75483688419874,-67.1693284430224 92.9247098652681,-65.33920142410486 92.25483688418065,-62.839201424104665 92.92470986525021,-60.33920142409968 94.75483688416774,-58.50907440516904 97.25483688416794,-57.83920142408159" stroke="#00f" stroke-linecap="round" stroke-linejoin="round"/><polyline fill="none" points="-98.67967930019744,-13.993181324198982 -96.17967930019245,-14.663054305268535 -94.34955228126181,-16.493181324186075 -93.67967930017436,-18.993181324186267 -94.34955228124392,-21.493181324191255 -96.17967930016145,-23.323308343121894 -98.67967930016165,-23.993181324209345 -101.17967930016664,-23.323308343139793 -103.00980631909728,-21.493181324222256 -103.67967930018473,-18.993181324222064 -103.00980631911519,-16.493181324217076 -101.17967930019765,-14.663054305286435 -98.67967930019745,-13.993181324198984" stroke="#00f" stroke-linecap="round" stroke-linejoin="round"/><polyline fill="none" points="76.19804748062839,-47.430654242314304 78.69804748063338,-48.10052722338386 80.52817449956402,-49.930654242301394 81.19804748065147,-52.430654242301586 80.52817449958192,-54.930654242306574 78.69804748066439,-56.76078126123721 76.19804748066419,-57.430654242324664 73.6980474806592,-56.76078126125511 71.86792046172856,-54.930654242337575 71.19804748064111,-52.43065424233738 71.86792046171065,-49.930654242332395 73.69804748062819,-48.10052722340175 76.19804748062839,-47.4306542423143" stroke="#00f" stroke-linecap="round" stroke-linejoin="round"/><polyline fill="none" points="-88.41158932126615,-74.23878966704189 -85.91158932126116,-74.90866264811143 -84.08146230233052,-76.73878966702897 -83.41158932124307,-79.23878966702917 -84.08146230231262,-81.73878966703415 -85.91158932123015,-83.5689166859648 -88.41158932123035,-84.23878966705225 -90.91158932123534,-83.5689166859827 -92.74171634016598,-81.73878966706516 -93.41158932125343,-79.23878966706496 -92.74171634018388,-76.73878966705998 -90.91158932126635,-74.90866264812934 -88.41158932126615,-74.23878966704189" stroke="#ffa500" stroke-linecap="round" stroke-linejoin="round"/><polyline fill="none" points="-135.535067186315,-5.850647217876347 -133.03506718631,-6.520520198945893 -131.20494016737933,-8.350647217863429 -130.53506718629188,-10.85064721786362 -131.20494016736143,-13.350647217868612 -133.03506718627895,-15.18077423679926 -135.53506718627915,-15.850647217886719 -138.03506718628415,-15.180774236817173 -139.8651942052148,-13.350647217899638 -140.53506718630226,-10.850647217899446 -139.8651942052327,-8.350647217894455 -138.0350671863152,-6.520520198963807 -135.535067186315,-5.850647217876348" stroke="#ffa500" stroke-linecap="round" stroke-linejoin="round"/><polyline fill="none" points="32.81978286615916,30.874712451914885 35.319782866164154,30.20483947084534 37.1499098850948,28.374712451927806 37.81978286618226,25.874712451927614 37.14990988511271,23.37471245192262 35.319782866195176,21.54458543299197 32.819782866194984,20.874712451904507 30.31978286618999,21.54458543297405 28.48965584725934,23.374712451891583 27.819782866171877,25.874712451891774 28.48965584724142,28.37471245189677 30.319782866158953,30.20483947082742 32.819782866159144,30.87471245191488" stroke="#00f" stroke-linecap="round" stroke-linejoin="round"/><polyline fill="none" points="-76.22458752462997,39.533425907090326 -73.72458752462498,38.86355292602079 -71.89446050569433,37.03342590710326 -71.22458752460686,34.533425907103066 -71.8944605056764,32.03342590709807 -73.72458752459394,30.203298888167417 -76.22458752459414,29.533425907079952 -78.72458752459914,30.20329888814949 -80.5547145435298,32.03342590706702 -81.22458752461726,34.53342590706721 -80.55471454354772,37.03342590707221 -78.72458752463018,38.86355292600286 -76.22458752462998,39.533425907090326" stroke="#008000" stroke-linecap="round" stroke-linejoin="round"/><polyline fill="none" points="47.01604767501146,-23.961684075149698 49.51604767501645,-24.631557056219236 51.346174693947106,-26.461684075136766 52.01604767503457,-28.961684075136958 51.34617469396503,-31.461684075141953 49.5160476750475,-33.29181109407261 47.01604767504731,-33.96168407516007 44.516047675042316,-33.291811094090534 42.68592065611166,-31.461684075173004 42.0160476750242,-28.961684075172812 42.685920656093735,-26.461684075167817 44.516047675011265,-24.631557056237163 47.01604767501146,-23.961684075149698" stroke="#ffa500" stroke-linecap="round" stroke-linejoin="round"/><polyline fill="none" points="-2.2226596435996653,-114.44217240556188 0.2773403564053316,-115.11204538663141 2.1074673753359874,-116.94217240554894 2.777340356423455,-119.44217240554914 2.107467375353919,-121.94217240555415 0.27734035643638943,-123.7722994244848 -2.222659643563803,-124.44217240557226 -4.7226596435688,-123.77229942450273 -6.552786662499457,-121.94217240558521 -7.222659643586926,-119.44217240558501 -6.5527866625173905,-116.94217240558001 -4.722659643599862,-115.11204538664936 -2.2226596435996693,-114.44217240556189" stroke="#ffa500" stroke-linecap="round" stroke-linejoin="round"/><polyline fill="none" points="-99.10034575493583,-8.105190164788176 -96.60034575493083,-8.775063145857711 -94.77021873600017,-10.60519016477524 -94.10034575491271,-13.105190164775433 -94.77021873598224,-15.605190164780431 -96.60034575489976,-17.43531718371109 -99.10034575489996,-18.10519016479856 -101.60034575490496,-17.435317183729026 -103.43047277383562,-15.605190164811498 -104.10034575492308,-13.105190164811304 -103.43047277385355,-10.605190164806306 -101.60034575493603,-8.775063145875645 -99.10034575493583,-8.105190164788173" stroke="#00f" stroke-linecap="round" stroke-linejoin="round"/><polyline fill="none" points="71.59179721161154,-64.80004199949181 74.09179721161654,-65.46991498056134 75.92192423054719,-67.30004199947886 76.59179721163467,-69.80004199947906 75.92192423056514,-72.30004199948407 74.09179721164762,-74.13016901841473 71.59179721164742,-74.80004199950221 69.09179721164242,-74.13016901843268 67.26167019271175,-72.30004199951516 66.59179721162427,-69.80004199951496 67.2616701926938,-67.30004199950996 69.09179721161132,-65.46991498057929 71.59179721161152,-64.80004199949181" stroke="#00f" stroke-linecap="round" stroke-linejoin="round"/><polyline fill="none" points="31.769951913051596,-57.4031536544552 34.269951913056595,-58.073026635524734 36.100078931987255,-59.90315365444226 36.76995191307473,-62.40315365444245 36.1000789320052,-64.90315365444745 34.269951913087674,-66.73328067337812 31.769951913087482,-67.4031536544656 29.26995191308248,-66.73328067339607 27.439824894151815,-64.90315365447854 26.76995191306434,-62.40315365447835 27.439824894133867,-59.90315365447335 29.269951913051393,-58.07302663554268 31.769951913051585,-57.4031536544552" stroke="#ffa500" stroke-linecap="round" stroke-linejoin="round"/><polyline fill="none" points="-131.6717596203513,-20.793789552472905 -129.1717596203463,-21.463662533542433 -127.34163260141564,-23.293789552459955 -126.67175962032816,-25.793789552460147 -127.34163260139769,-28.29378955246515 -129.1717596203152,-30.123916571395814 -131.6717596203154,-30.793789552483293 -134.17175962032042,-30.123916571413766 -136.00188663925107,-28.293789552496243 -136.67175962033855,-25.79378955249605 -136.00188663926903,-23.29378955249105 -134.1717596203515,-21.46366253356038 -131.6717596203513,-20.7937895524729" stroke="#ffa500" stroke-linecap="round" stroke-linejoin="round"/><polyline fill="none" points="-79.90264276881616,39.1386026202839 -77.40264276881116,38.468729639214374 -75.5725157498805,36.63860262029685 -74.90264276879302,34.13860262029666 -75.57251574986255,31.638602620291657 -77.40264276878007,29.80847560136099 -79.90264276878027,29.138602620273506 -82.40264276878527,29.80847560134303 -84.23276978771594,31.638602620260553 -84.90264276880342,34.13860262026075 -84.2327697877339,36.63860262026575 -82.40264276881638,38.46872963919642 -79.90264276881618,39.138602620283905" stroke="#008000" stroke-linecap="round" stroke-linejoin="round"/><polyline fill="none" points="-34.52652113494419,12.813288652952977 -32.02652113493919,12.143415671883455 -30.19639411600852,10.313288652965934 -29.526521134921037,7.813288652965742 -30.196394115990557,5.313288652960736 -32.02652113490808,3.4831616340300657 -34.52652113490827,2.813288652942581 -37.02652113491328,3.483161634012102 -38.85664815384395,5.313288652929622 -39.526521134931436,7.813288652929815 -38.85664815386192,10.31328865293482 -37.026521134944396,12.143415671865492 -34.526521134944204,12.813288652952979" stroke="#ffa500" stroke-linecap="round" stroke-linejoin="round"/><polyline fill="none" points="-97.02494947819923,-70.17108498583845 -94.52494947819423,-70.84095796690796 -92.69482245926356,-72.67108498582549 -92.02494947817607,-75.17108498582569 -92.69482245924559,-77.67108498583069 -94.52494947816311,-79.50121200476136 -97.02494947816331,-80.17108498584885 -99.52494947816831,-79.50121200477933 -101.35507649709898,-77.67108498586181 -102.02494947818647,-75.17108498586161 -101.35507649711695,-72.67108498585661 -99.52494947819943,-70.84095796692594 -97.02494947819923,-70.17108498583845" stroke="#ffa500" stroke-linecap="round" stroke-linejoin="round"/><polyline fill="none" points="-72.93429856028234,33.69410835621014 -70.43429856027734,33.02423537514062 -68.60417154134666,31.1941083562231 -67.93429856025917,28.69410835622291 -68.60417154132868,26.1941083562179 -70.4342985602462,24.363981337287225 -72.9342985602464,23.694108356199735 -75.4342985602514,24.36398133726925 -77.26442557918209,26.19410835618677 -77.93429856026958,28.694108356186963 -77.26442557920006,31.194108356191972 -75.43429856028254,33.02423537512265 -72.93429856028234,33.694108356210144" stroke="#00f" stroke-linecap="round" stroke-linejoin="round"/><polyline fill="none" points="-6.900723917031953,26.842633605288682 -4.4007239170269425,26.17276062421917 -2.5705968980962646,24.342633605301653 -1.9007239170087717,21.84263360530146 -2.570596898078286,19.342633605296452 -4.400723916995803,17.512506586365774 -6.900723916995996,16.84263360527828 -9.400723917001006,17.512506586347794 -11.230850935931684,19.34263360526531 -11.900723917019178,21.8426336052655 -11.230850935949665,24.34263360527051 -9.400723917032149,26.17276062420119 -6.900723917031956,26.842633605288682" stroke="#ffa500" stroke-linecap="round" stroke-linejoin="round"/><polyline fill="none" points="-79.86927804276102,-16.30722116809151 -77.36927804275601,-16.977094149161022 -75.53915102382533,-18.807221168078538 -74.86927804273783,-21.30722116807873 -75.53915102380735,-23.807221168083743 -77.36927804272486,-25.637348187014425 -79.86927804272506,-26.307221168101922 -82.36927804273007,-25.63734818703241 -84.19940506166076,-23.807221168114893 -84.86927804274825,-21.3072211681147 -84.19940506167873,-18.807221168109688 -82.36927804276122,-16.977094149179006 -79.86927804276102,-16.30722116809151" stroke="#ffa500" stroke-linecap="round" stroke-linejoin="round"/></svg>