<?xml version="1.0" ?><!DOCTYPE svg  PUBLIC '-//W3C//DTD SVG 1.1//EN'  'http://www.w3.org/Graphics/SVG/1.1/DTD/svg11.dtd'><svg height="282.000" viewBox="-169.000 -137.000 325.000 282.000" width="325.000" xmlns="http://www.w3.org/2000/svg"><line fill="none" stroke="none" stroke-linecap="round" stroke-width="2.0" x1="0.0" x2="0.0" y1="0.0" y2="0.0"/><polygon fill="none" fill-rule="evenodd" points="0.0,0.0 0.0,0.0 0.0,0.0" stroke-linejoin="round"/><polyline fill="none" points="43.456326236080926,-8.59407940322275 45.956326236085935,-9.26395238429226 47.78645325501662,-11.094079403209774 48.45632623610412,-13.594079403209966 47.78645325503461,-16.094079403214977 45.95632623611709,-17.92420642214566 43.4563262361169,-18.594079403233156 40.95632623611189,-17.924206422163646 39.12619921718121,-16.094079403246134 38.45632623609371,-13.594079403245942 39.12619921716322,-11.09407940324093 40.956326236080734,-9.263952384310246 43.456326236080926,-8.594079403222747" stroke="#ffa500" stroke-linecap="round" stroke-linejoin="round"/><polyline fill="none" points="49.84149563388059,0.33319821098389735 52.34149563388561,-0.33667477008561075 54.17162265281629,-2.1668017890031237 54.84149563390379,-4.6668017890033155 54.17162265283428,-7.166801789008328 52.341495633916765,-8.996928807939014 49.84149563391657,-9.666801789026515 47.341495633911556,-8.996928807957008 45.51136861498087,-7.166801789039496 44.841495633893366,-4.666801789039304 45.511368614962876,-2.166801789034289 47.341495633880385,-0.3366747701036026 49.84149563388058,0.3331982109839001" stroke="#ffa500" stroke-linecap="round" stroke-linejoin="round"/><polyline fill="none" points="62.64674853230608,-103.28882704866292 65.1467485323111,-103.95870002973243 66.97687555124178,-105.78882704864994 67.64674853232928,-108.28882704865013 66.97687555125978,-110.78882704865515 65.14674853234227,-112.61895406758583 62.64674853234208,-113.28882704867334 60.146748532337064,-112.61895406760384 58.316621513406375,-110.78882704868633 57.64674853231887,-108.28882704868613 58.31662151338837,-105.78882704868111 60.14674853230588,-103.95870002975043 62.64674853230607,-103.28882704866292" stroke="#ffa500" stroke-linecap="round" stroke-linejoin="round"/><polyline fill="none" points="4.535409923733002,-49.95538680186129 7.035409923738017,-50.62525978293079 8.865536942668706,-52.4553868018483 9.535409923756212,-54.95538680184849 8.86553694268671,-57.45538680185351 7.035409923769199,-59.285513820784196 4.535409923769007,-59.955386801871704 2.03540992376399,-59.2855138208022 0.20528290483330025,-57.45538680188469 -0.4645900762542071,-54.9553868018845 0.20528290481529465,-52.455386801879484 2.035409923732804,-50.625259782948795 4.535409923732997,-49.95538680186129" stroke="#ffa500" stroke-linecap="round" stroke-linejoin="round"/><polyline fill="none" points="-46.97526814892879,40.26654581045555 -44.475268148923774,39.596672829386044 -42.645141129993085,37.766545810468536 -41.97526814890558,35.266545810468344 -42.64514112997508,32.76654581046333 -44.47526814889259,30.936418791532635 -46.97526814889278,30.266545810445127 -49.4752681488978,30.936418791514626 -51.30539516782849,32.766545810432135 -51.975268148916,35.266545810432326 -51.3053951678465,37.76654581043734 -49.47526814892899,39.59667282936804 -46.9752681489288,40.26654581045555" stroke="#00f" stroke-linecap="round" stroke-linejoin="round"/><polyline fill="none" points="-115.41615970790376,-18.440640325078654 -112.91615970789874,-19.110513306148153 -111.08603268896805,-20.94064032506566 -110.41615970788054,-23.440640325065853 -111.08603268895004,-25.940640325070873 -112.91615970786755,-27.770767344001566 -115.41615970786775,-28.440640325089078 -117.91615970787277,-27.77076734401958 -119.74628672680346,-25.94064032510207 -120.41615970789097,-23.440640325101878 -119.74628672682147,-20.940640325096858 -117.91615970790396,-19.110513306166162 -115.41615970790376,-18.440640325078647" stroke="#00f" stroke-linecap="round" stroke-linejoin="round"/><polyline fill="none" points="75.71085875117187,-74.64064910180444 78.21085875117689,-75.31052208287394 80.04098577010758,-77.14064910179145 80.71085875119509,-79.64064910179165 80.04098577012559,-82.14064910179667 78.21085875120808,-83.97077612072736 75.71085875120788,-84.64064910181487 73.21085875120286,-83.97077612074538 71.38073173227217,-82.14064910182788 70.71085875118465,-79.64064910182768 71.38073173225413,-77.14064910182266 73.21085875117164,-75.31052208289196 75.71085875117184,-74.64064910180444" stroke="#ffa500" stroke-linecap="round" stroke-linejoin="round"/><polyline fill="none" points="75.53362196558214,-115.74598312501664 78.03362196558716,-116.41585610608612 79.86374898451785,-118.24598312500363 80.53362196560538,-120.74598312500383 79.86374898453589,-123.24598312500885 78.03362196561838,-125.07611014393954 75.53362196561818,-125.74598312502707 73.03362196561316,-125.07611014395758 71.20349494668247,-123.24598312504007 70.53362196559495,-120.74598312503987 71.20349494666443,-118.24598312503485 73.03362196558194,-116.41585610610416 75.53362196558214,-115.74598312501664" stroke="#ffa500" stroke-linecap="round" stroke-linejoin="round"/><polyline fill="none" points="-119.0071982297349,-25.11108942252587 -116.50719822972988,-25.78096240359536 -114.67707121079918,-27.611089422512865 -114.00719822971166,-30.111089422513057 -114.67707121078115,-32.61108942251808 -116.50719822969866,-34.44121644144878 -119.00719822969886,-35.1110894225363 -121.50719822970387,-34.441216441466814 -123.33732524863457,-32.61108942254931 -124.00719822972209,-30.11108942254912 -123.3373252486526,-27.611089422544097 -121.5071982297351,-25.780962403613394 -119.0071982297349,-25.111089422525872" stroke="#00f" stroke-linecap="round" stroke-linejoin="round"/><polyline fill="none" points="-45.755916245638254,77.8161635413678 -43.25591624563323,77.14629056029831 -41.42578922670253,75.3161635413808 -40.755916245615005,72.8161635413806 -41.42578922668449,70.31616354137557 -43.255916245601995,68.48603652244486 -45.75591624560219,67.81616354135734 -48.25591624560721,68.48603652242683 -50.08604326453791,70.31616354134434 -50.755916245625436,72.81616354134454 -50.08604326455595,75.31616354134957 -48.255916245638446,77.14629056028028 -45.755916245638254,77.8161635413678" stroke="#00f" stroke-linecap="round" stroke-linejoin="round"/><polyline fill="none" points="139.04733931575248,54.56964006516342 141.5473393157575,53.89976708409393 143.37746633468822,52.06964006517643 144.04733931577576,49.56964006517624 143.37746633470627,47.069640065171214 141.54733931578878,45.23951304624051 139.04733931578858,44.56964006515298 136.54733931578355,45.23951304622247 134.71721229685284,47.06964006513997 134.0473393157653,49.56964006514016 134.7172122968348,52.06964006514519 136.54733931575228,53.8997670840759 139.04733931575248,54.569640065163426" stroke="#ffa500" stroke-linecap="round" stroke-linejoin="round"/><polyline fill="none" points="111.03944208919246,-14.47182851094685 113.5394420891975,-15.141701492016335 115.3695691081282,-16.971828510933832 116.03944208921573,-19.471828510934024 115.36956910814624,-21.97182851093905 113.53944208922874,-23.80195552986976 111.03944208922854,-24.471828510957288 108.53944208922351,-23.801955529887802 106.7093150702928,-21.971828510970305 106.03944208920528,-19.471828510970113 106.70931507027477,-16.971828510965086 108.53944208919226,-15.141701492034377 111.03944208919246,-14.471828510946848" stroke="#ffa500" stroke-linecap="round" stroke-linejoin="round"/><polyline fill="none" points="102.5568429243448,-81.47045599135927 105.05684292434984,-82.14032897242876 106.88696994328055,-83.97045599134626 107.55684292436808,-86.47045599134645 106.8869699432986,-88.97045599135149 105.0568429243811,-90.8005830102822 102.5568429243809,-91.47045599136973 100.05684292437587,-90.80058301030024 98.22671590544516,-88.97045599138275 97.55684292435762,-86.47045599138255 98.2267159054271,-83.97045599137752 100.0568429243446,-82.14032897244681 102.55684292434479,-81.47045599135927" stroke="#ffa500" stroke-linecap="round" stroke-linejoin="round"/><polyline fill="none" points="-24.596081625817376,19.512944073456346 -22.096081625812346,18.843071092386865 -20.265954606881635,17.012944073469367 -19.596081625794103,14.512944073469175 -20.265954606863584,12.012944073464144 -22.096081625781082,10.182817054533432 -24.596081625781274,9.5129440734459 -27.096081625786304,10.182817054515379 -28.92620864471702,12.012944073432875 -29.59608162580455,14.512944073433067 -28.926208644735073,17.0129440734381 -27.096081625817575,18.843071092368813 -24.596081625817384,19.51294407345635" stroke="#00f" stroke-linecap="round" stroke-linejoin="round"/><polyline fill="none" points="-16.460116361800996,124.65606958466259 -13.960116361795965,123.98619660359311 -12.129989342865251,122.15606958467562 -11.460116361777716,119.65606958467542 -12.129989342847194,117.15606958467039 -13.96011636176469,115.32594256573968 -16.460116361764882,114.65606958465214 -18.960116361769913,115.32594256572162 -20.79024338070063,117.15606958463911 -21.460116361788167,119.65606958463931 -20.790243380718692,122.15606958464434 -18.960116361801198,123.98619660357505 -16.460116361801006,124.65606958466259" stroke="#ffa500" stroke-linecap="round" stroke-linejoin="round"/><polyline fill="none" points="68.68284799519654,-103.22441778692102 71.18284799520157,-103.8942907679905 73.0129750141323,-105.72441778690799 73.68284799521983,-108.22441778690819 73.01297501415036,-110.72441778691322 71.18284799523286,-112.55454480584395 68.68284799523266,-113.22441778693148 66.18284799522763,-112.55454480586201 64.35272097629691,-110.72441778694451 63.682847995209364,-108.22441778694431 64.35272097627883,-105.72441778693928 66.18284799519633,-103.89429076800856 68.68284799519652,-103.22441778692102" stroke="#ffa500" stroke-linecap="round" stroke-linejoin="round"/><polyline fill="none" points="-75.46469870491785,23.410903065140722 -72.96469870491282,22.741030084071248 -71.1345716859821,20.910903065153754 -70.46469870489456,18.410903065153562 -71.13457168596403,15.910903065148528 -72.96469870488153,14.080776046217807 -75.46469870488173,13.410903065130263 -77.96469870488676,14.080776046199734 -79.79482572381748,15.910903065117227 -80.46469870490502,18.41090306511742 -79.79482572383554,20.910903065122454 -77.96469870491805,22.741030084053175 -75.46469870491785,23.41090306514072" stroke="#008000" stroke-linecap="round" stroke-linejoin="round"/><polyline fill="none" points="80.07442618632027,-48.952697184655136 82.5744261863253,-49.6225701657246 84.40455320525602,-51.4526971846421 85.07442618634357,-53.95269718464229 84.4045532052741,-56.45269718464733 82.5744261863566,-58.28282420357805 80.0744261863564,-58.952697184665595 77.57442618635137,-58.28282420359613 75.74429916742065,-56.45269718467864 75.0744261863331,-53.95269718467845 75.74429916740257,-51.45269718467341 77.57442618632007,-49.62257016574269 80.07442618632027,-48.95269718465514" stroke="#ffa500" stroke-linecap="round" stroke-linejoin="round"/><polyline fill="none" points="-78.32952301377335,-13.620787088251713 -75.82952301376832,-14.290660069321182 -73.9993959948376,-16.12078708823867 -73.32952301375005,-18.620787088238863 -73.99939599481952,-21.1207870882439 -75.82952301373702,-22.950914107174626 -78.32952301373722,-23.620787088262173 -80.82952301374225,-22.950914107192705 -82.65965003267297,-21.120787088275215 -83.32952301376052,-18.620787088275023 -82.65965003269106,-16.120787088269985 -80.82952301377357,-14.290660069339259 -78.32952301377337,-13.62078708825171" stroke="#00f" stroke-linecap="round" stroke-linejoin="round"/><polyline fill="none" points="47.193037968382214,-90.77373541538414 49.69303796838725,-91.4436083964536 51.523164987317976,-93.27373541537109 52.19303796840553,-95.77373541537129 51.52316498733606,-98.27373541537634 49.69303796841857,-100.10386243430706 47.19303796841838,-100.77373541539461 44.69303796841334,-100.10386243432515 42.86291094948262,-98.27373541540766 42.19303796839507,-95.77373541540746 42.862910949464535,-93.27373541540241 44.69303796838202,-91.44360839647169 47.193037968382214,-90.77373541538414" stroke="#00f" stroke-linecap="round" stroke-linejoin="round"/><polyline fill="none" points="122.24667038303207,-25.56614117664888 124.74667038303711,-26.236014157718344 126.57679740196784,-28.06614117663583 127.24667038305539,-30.566141176636023 126.57679740198593,-33.06614117664106 124.74667038306845,-34.89626819557179 122.24667038306825,-35.56614117665934 119.7466703830632,-34.89626819558988 117.91654336413248,-33.066141176672396 117.24667038304493,-30.566141176672204 117.91654336411439,-28.066141176667163 119.74667038303187,-26.23601415773643 122.24667038303207,-25.566141176648877" stroke="#ffa500" stroke-linecap="round" stroke-linejoin="round"/><polyline fill="none" points="100.22078026783699,-22.20930221735467 102.72078026784203,-22.87917519842413 104.55090728677277,-24.709302217341616 105.22078026786032,-27.209302217341808 104.55090728679086,-29.70930221734685 102.72078026787338,-31.53942923627758 100.22078026787318,-32.209302217365135 97.72078026786814,-31.539429236295675 95.8906532489374,-29.70930221737819 95.22078026784985,-27.209302217378 95.8906532489193,-24.709302217372958 97.72078026783679,-22.879175198442223 100.22078026783699,-22.209302217354665" stroke="#ffa500" stroke-linecap="round" stroke-linejoin="round"/><polyline fill="none" points="77.95748599167356,-77.36552186027023 80.45748599167861,-78.0353948413397 82.28761301060935,-79.86552186025718 82.95748599169691,-82.36552186025737 82.28761301062745,-84.86552186026242 80.45748599170997,-86.69564887919316 77.95748599170977,-87.36552186028072 75.45748599170473,-86.69564887921126 73.62735897277399,-84.86552186029378 72.95748599168643,-82.36552186029358 73.62735897275589,-79.86552186028854 75.45748599167337,-78.0353948413578 77.95748599167356,-77.36552186027023" stroke="#ffa500" stroke-linecap="round" stroke-linejoin="round"/><polyline fill="none" points="33.57471814292573,69.16875751032711 36.07471814293078,68.49888452925765 37.904845161861516,66.66875751034017 38.57471814294908,64.16875751033997 37.90484516187963,61.66875751033493 36.07471814296215,59.83863049140419 33.574718142961956,59.168757510316624 31.07471814295691,59.83863049138608 29.244591124026172,61.66875751030356 28.57471814293861,64.16875751030375 29.244591124008064,66.6687575103088 31.074718142925548,68.49888452923953 33.57471814292574,69.1687575103271" stroke="#00f" stroke-linecap="round" stroke-linejoin="round"/><polyline fill="none" points="73.71053080876932,-37.74551729468321 76.21053080877437,-38.415390275752664 78.0406578277051,-40.245517294670144 78.71053080879267,-42.745517294670336 78.04065782772321,-45.24551729467538 76.21053080880573,-47.07564431360612 73.71053080880553,-47.745517294693684 71.21053080880048,-47.07564431362423 69.38040378986975,-45.24551729470675 68.71053080878218,-42.74551729470656 69.38040378985163,-40.245517294701514 71.21053080876911,-38.415390275770775 73.7105308087693,-37.74551729468321" stroke="#00f" stroke-linecap="round" stroke-linejoin="round"/><polyline fill="none" points="100.56423036583818,-48.25827332684784 103.06423036584323,-48.928146307917295 104.89435738477397,-50.758273326834775 105.56423036586153,-53.25827332683497 104.89435738479209,-55.75827332684001 103.06423036587461,-57.58840034577075 100.56423036587441,-58.258273326858315 98.06423036586936,-57.58840034578886 96.23410334693862,-55.75827332687138 95.56423036585106,-53.25827332687119 96.2341033469205,-50.758273326866146 98.06423036583799,-48.9281463079354 100.56423036583818,-48.258273326847835" stroke="#00f" stroke-linecap="round" stroke-linejoin="round"/><polyline fill="none" points="82.827380773014,35.68163585608732 85.32738077301904,35.01176287501787 87.15750779194978,33.18163585610039 87.82738077303735,30.6816358561002 87.1575077919679,28.181635856095152 85.32738077305042,26.351508837164406 82.82738077305022,25.681635856076838 80.32738077304518,26.351508837146287 78.49725375411444,28.181635856063764 77.82738077302687,30.681635856063956 78.49725375409632,33.18163585606901 80.3273807730138,35.011762874999754 82.827380773014,35.681635856087325" stroke="#ffa500" stroke-linecap="round" stroke-linejoin="round"/><polyline fill="none" points="111.42052384772978,14.594397393925306 113.92052384773483,13.924524412855858 115.75065086666557,12.09439739393838 116.42052384775313,9.594397393938188 115.75065086668369,7.094397393933138 113.9205238477662,5.264270375002392 111.420523847766,4.59439739391482 108.92052384776096,5.264270374984266 107.09039682883021,7.094397393901743 106.42052384774263,9.594397393901936 107.09039682881208,12.094397393906986 108.92052384772956,13.924524412837734 111.42052384772975,14.594397393925307" stroke="#ffa500" stroke-linecap="round" stroke-linejoin="round"/><polyline fill="none" points="26.305992064777413,-30.0369919634659 28.805992064782465,-30.706864944535347 30.636119083713215,-32.53699196345283 31.30599206480079,-35.03699196345302 30.636119083731344,-37.53699196345807 28.805992064813868,-39.36711898238882 26.305992064813676,-40.03699196347639 23.805992064808624,-39.36711898240694 21.975865045877875,-37.53699196348947 21.3059920647903,-35.03699196348928 21.97586504585974,-32.536991963484226 23.805992064777218,-30.706864944553477 26.30599206477741,-30.0369919634659" stroke="#ffa500" stroke-linecap="round" stroke-linejoin="round"/><polyline fill="none" points="97.89695003749958,-10.896059399060231 100.39695003750462,-11.565932380129674 102.22707705643538,-13.39605939904715 102.89695003752296,-15.896059399047342 102.22707705645351,-18.396059399052394 100.39695003753603,-20.226186417983143 97.89695003753583,-20.89605939907072 95.39695003753079,-20.226186418001276 93.56682301860003,-18.3960593990838 92.89695003751245,-15.896059399083608 93.5668230185819,-13.396059399078556 95.39695003749938,-11.565932380147805 97.89695003749958,-10.896059399060228" stroke="#ffa500" stroke-linecap="round" stroke-linejoin="round"/><polyline fill="none" points="-48.014293328945605,50.75539142494665 -45.51429332894055,50.08551844387721 -43.6841663100098,48.25539142495974 -43.01429332892222,45.75539142495955 -43.68416630999166,43.255391424954496 -45.51429332890913,41.42526440602374 -48.014293328909325,40.755391424936164 -50.51429332891438,41.4252644060056 -52.34442034784513,43.255391424923076 -53.01429332893271,45.75539142492327 -52.34442034786327,48.25539142492832 -50.5142933289458,50.08551844385907 -48.014293328945605,50.75539142494665" stroke="#ffa500" stroke-linecap="round" stroke-linejoin="round"/><polyline fill="none" points="37.556238994712885,-36.01221433725207 40.05623899471794,-36.68208731832151 41.88636601364869,-38.51221433723898 42.55623899473627,-41.01221433723917 41.88636601366683,-43.512214337244224 40.05623899474936,-45.34234135617498 37.556238994749165,-46.012214337262556 35.05623899474411,-45.34234135619312 33.22611197581336,-43.512214337275644 32.55623899472578,-41.01221433727545 33.22611197579522,-38.5122143372704 35.05623899471269,-36.68208731833965 37.556238994712885,-36.01221433725206" stroke="#00f" stroke-linecap="round" stroke-linejoin="round"/><polyline fill="none" points="-102.22766565013242,10.491166657920704 -99.72766565012736,9.821293676851267 -97.89753863119661,7.991166657933795 -97.22766565010903,5.4911666579336025 -97.89753863117846,2.9911666579285474 -99.72766565009593,1.1610396389977906 -102.22766565009613,0.4911666579102063 -104.72766565010119,1.1610396389796414 -106.55779266903194,2.9911666578971126 -107.22766565011952,5.491166657897305 -106.55779266905009,7.991166657902362 -104.72766565013262,9.82129367683312 -102.22766565013242,10.491166657920706" stroke="#ffa500" stroke-linecap="round" stroke-linejoin="round"/><polyline fill="none" points="-70.6862081110541,61.41954925978546 -68.18620811104904,60.74967627871603 -66.35608109211829,58.91954925979856 -65.6862081110307,56.419549259798366 -66.35608109210013,53.91954925979331 -68.18620811101759,52.08942224086255 -70.68620811101779,51.41954925977496 -73.18620811102285,52.08942224084439 -75.0163351299536,53.91954925976186 -75.6862081110412,56.41954925976205 -75.01633512997176,58.91954925976711 -73.1862081110543,60.74967627869787 -70.6862081110541,61.419549259785455" stroke="#ffa500" stroke-linecap="round" stroke-linejoin="round"/><polyline fill="none" points="117.76774490870481,87.1184525711125 120.26774490870987,86.44857959004307 122.09787192764064,84.6184525711256 122.76774490872823,82.1184525711254 122.0978719276588,79.61845257112034 120.26774490874134,77.78832555218958 117.76774490874114,77.11845257110198 115.26774490873608,77.78832555217141 113.43761788980531,79.61845257108888 112.76774490871772,82.11845257108908 113.43761788978715,84.61845257109414 115.26774490870461,86.4485795900249 117.76774490870481,87.1184525711125" stroke="#ffa500" stroke-linecap="round" stroke-linejoin="round"/><polyline fill="none" points="-82.37857823269431,46.63768262146943 -79.87857823268925,45.9678096404 -78.04845121375848,44.13768262148253 -77.37857823267089,41.63768262148234 -78.04845121374032,39.13768262147728 -79.87857823265779,37.307555602546515 -82.37857823265799,36.63768262145892 -84.87857823266305,37.307555602528346 -86.70870525159381,39.13768262144581 -87.3785782326814,41.637682621446004 -86.70870525161197,44.13768262145106 -84.87857823269451,45.96780964038183 -82.37857823269431,46.63768262146942" stroke="#f00" stroke-linecap="round" stroke-linejoin="round"/><polyline fill="none" points="33.72423765018229,-60.89215306477291 36.22423765018735,-61.56202604584234 38.054364669118115,-63.3921530647598 38.72423765020571,-65.89215306476 38.054364669136284,-68.39215306476505 36.22423765021882,-70.22228008369582 33.724237650218626,-70.89215306478341 31.224237650213567,-70.22228008371398 29.3941106312828,-68.39215306479652 28.724237650195203,-65.89215306479632 29.394110631264628,-63.39215306479126 31.224237650182094,-61.56202604586049 33.72423765018229,-60.8921530647729" stroke="#ffa500" stroke-linecap="round" stroke-linejoin="round"/><polyline fill="none" points="101.66133627119913,-45.73820630842227 104.16133627120419,-46.408079289491695 105.99146329013496,-48.23820630840916 106.66133627122255,-50.73820630840935 105.99146329015313,-53.23820630841441 104.16133627123567,-55.06833332734518 101.66133627123547,-55.73820630843278 99.16133627123041,-55.068333327363355 97.33120925229964,-53.23820630844589 96.66133627121205,-50.7382063084457 97.33120925228147,-48.23820630844064 99.16133627119893,-46.40807928950987 101.66133627119913,-45.73820630842227" stroke="#ffa500" stroke-linecap="round" stroke-linejoin="round"/><polyline fill="none" points="136.93097489075893,-2.265413284113893 139.430974890764,-2.9352862651833154 141.26110190969476,-4.765413284100779 141.93097489078235,-7.265413284100971 141.26110190971292,-9.765413284106033 139.43097489079545,-11.595540303036804 136.93097489079526,-12.265413284124405 134.4309748907902,-11.595540303054984 132.60084787185943,-9.765413284137521 131.93097489077184,-7.265413284137329 132.60084787184127,-4.765413284132265 134.43097489075873,-2.9352862652014933 136.93097489075893,-2.265413284113891" stroke="#ffa500" stroke-linecap="round" stroke-linejoin="round"/><polyline fill="none" points="-53.178072969028385,49.06445722056286 -50.67807296902332,48.39458423949344 -48.847945950092544,46.56445722057598 -48.178072969004944,44.06445722057579 -48.84794595007436,41.56445722057072 -50.67807296899182,39.73433020163995 -53.17807296899201,39.06445722055235 -55.67807296899708,39.734330201621766 -57.50819998792785,41.564457220539225 -58.17807296901546,44.06445722053942 -57.50819998794604,46.56445722054448 -55.678072969028584,48.39458423947526 -53.17807296902839,49.064457220562865" stroke="#00f" stroke-linecap="round" stroke-linejoin="round"/><polyline fill="none" points="85.67607185094529,-34.64620309021274 88.17607185095036,-35.316076071282154 90.00619886988115,-37.14620309019961 90.67607185096875,-39.646203090199805 90.00619886989934,-42.14620309020487 88.17607185098187,-43.976330109135645 85.67607185098167,-44.64620309022325 83.1760718509766,-43.976330109153835 81.34594483204582,-42.14620309023638 80.67607185095821,-39.646203090236185 81.34594483202763,-37.14620309023112 83.17607185094509,-35.316076071300344 85.67607185094529,-34.64620309021274" stroke="#ffa500" stroke-linecap="round" stroke-linejoin="round"/><polyline fill="none" points="112.70593739290817,28.264106529926693 115.20593739291324,27.59423354885728 117.03606441184402,25.76410652993982 117.70593739293163,23.264106529939628 117.03606441186221,20.764106529934562 115.20593739294475,18.933979511003784 112.70593739294455,18.264106529916177 110.20593739293948,18.93397951098559 108.3758103740087,20.76410652990305 107.70593739292109,23.26410652990324 108.3758103739905,25.76410652990831 110.20593739290796,27.59423354883909 112.70593739290815,28.2641065299267" stroke="#ffa500" stroke-linecap="round" stroke-linejoin="round"/><polyline fill="none" points="116.00180604519875,101.32800478915699 118.50180604520382,100.65813180808757 120.3319330641346,98.82800478917012 121.00180604522221,96.32800478916992 120.33193306415279,93.82800478916485 118.50180604523534,91.99787777023407 116.00180604523514,91.32800478914646 113.50180604523007,91.99787777021588 111.67167902629929,93.82800478913333 111.00180604521168,96.32800478913353 111.6716790262811,98.8280047891386 113.50180604519855,100.65813180806938 116.00180604519875,101.32800478915699" stroke="#ffa500" stroke-linecap="round" stroke-linejoin="round"/><polyline fill="none" points="36.476895296660764,133.27969875828134 38.97689529666583,132.60982577721194 40.80702231559661,130.77969875829447 41.476895296684226,128.27969875829427 40.807022315614816,125.7796987582892 38.97689529669736,123.94957173935842 36.476895296697165,123.27969875827081 33.97689529669209,123.94957173934021 32.14676827776131,125.77969875825767 31.476895296673696,128.27969875825787 32.14676827774311,130.77969875826292 33.976895296660565,132.60982577719372 36.47689529666076,133.27969875828134" stroke="#ffa500" stroke-linecap="round" stroke-linejoin="round"/><polyline fill="none" points="-66.75555209485208,-15.45829731203552 -64.255552094847,-16.12817029310493 -62.42542507591622,-17.958297312022385 -61.75555209482861,-20.458297312022577 -62.42542507589802,-22.958297312027646 -64.25555209481547,-24.78842433095843 -66.75555209481567,-25.45829731204605 -69.25555209482074,-24.788424330976643 -71.08567911375152,-22.958297312059187 -71.75555209483915,-20.458297312058995 -71.08567911376974,-17.958297312053922 -69.25555209485229,-16.128170293123137 -66.75555209485209,-15.45829731203552" stroke="#00f" stroke-linecap="round" stroke-linejoin="round"/><polyline fill="none" points="-125.8873530423008,35.439525244792435 -123.38735304229573,34.76965226372303 -121.55722602336495,32.93952524480558 -120.88735304227733,30.439525244805388 -121.55722602334673,27.939525244800315 -123.38735304226418,26.109398225869526 -125.88735304226438,25.43952524478191 -128.38735304226944,26.10939822585131 -130.21748006120023,27.939525244768767 -130.88735304228786,30.43952524476896 -130.21748006121845,32.93952524477403 -128.387353042301,34.76965226370482 -125.88735304230079,35.43952524479244" stroke="#00f" stroke-linecap="round" stroke-linejoin="round"/><polyline fill="none" points="102.14841576349393,121.69197735653945 104.648415763499,121.02210437547005 106.4785427824298,119.1919773565526 107.14841576351742,116.6919773565524 106.47854278244802,114.19197735654733 104.64841576353056,112.36185033761653 102.14841576353037,111.69197735652891 99.64841576352529,112.36185033759831 97.8182887445945,114.19197735651576 97.14841576350688,116.69197735651596 97.81828874457628,119.19197735652104 99.64841576349373,121.02210437545183 102.14841576349393,121.69197735653945" stroke="#ffa500" stroke-linecap="round" stroke-linejoin="round"/><polyline fill="none" points="11.484753329204901,96.28590858631296 13.984753329209976,95.61603560524355 15.814880348140768,93.7859085863261 16.484753329228393,91.2859085863259 15.814880348158994,88.78590858632083 13.984753329241542,86.95578156739003 11.48475332924135,86.28590858630241 8.984753329236273,86.95578156737182 7.15462631030548,88.78590858628927 6.484753329217854,91.28590858628947 7.154626310287253,93.78590858629454 8.984753329204704,95.61603560522533 11.484753329204896,96.28590858631296" stroke="#ffa500" stroke-linecap="round" stroke-linejoin="round"/><polyline fill="none" points="-55.1979764159155,-17.6191841040045 -52.69797641591042,-18.2890570850739 -50.86784939697962,-20.11918410399135 -50.19797641589199,-22.619184103991543 -50.86784939696139,-25.11918410399662 -52.69797641587884,-26.949311122927416 -55.19797641587903,-27.619184104015044 -57.69797641588411,-26.949311122945648 -59.52810343481491,-25.1191841040282 -60.19797641590254,-22.619184104028008 -59.52810343483314,-20.11918410402293 -57.69797641591569,-18.289057085092136 -55.1979764159155,-17.619184104004507" stroke="#00f" stroke-linecap="round" stroke-linejoin="round"/><polyline fill="none" points="84.87755831340709,16.559180151832294 87.37755831341217,15.889307170762898 89.20768533234296,14.05918015184545 89.8775583134306,11.559180151845258 89.20768533236121,9.059180151840179 87.37755831344376,7.229053132909382 84.87755831344356,6.55918015182175 82.37755831343848,7.229053132891146 80.54743129450769,9.059180151808594 79.87755831342005,11.559180151808786 80.54743129448944,14.059180151813866 82.3775583134069,15.889307170744665 84.87755831340709,16.559180151832297" stroke="#ffa500" stroke-linecap="round" stroke-linejoin="round"/><polyline fill="none" points="53.45228300789029,31.96036615669593 55.95228300789537,31.290493175626537 57.78241002682616,29.46036615670909 58.4522830079138,26.960366156708897 57.7824100268444,24.460366156703817 55.95228300792696,22.630239137773017 53.452283007926766,21.960366156685385 50.952283007921686,22.630239137754778 49.12215598899088,24.460366156672222 48.45228300790325,26.960366156672414 49.12215598897264,29.460366156677495 50.95228300789008,31.290493175608294 53.45228300789027,31.96036615669593" stroke="#00f" stroke-linecap="round" stroke-linejoin="round"/><polyline fill="none" points="35.86120179493434,106.28449516840274 38.36120179493942,105.61462218733335 40.19132881387022,103.7844951684159 40.86120179495786,101.2844951684157 40.19132881388847,98.78449516841061 38.361201794971024,96.95436814947982 35.86120179497083,96.28449516839218 33.36120179496575,96.95436814946157 31.53107477603495,98.78449516837902 30.861201794947313,101.28449516837922 31.531074776016702,103.78449516838431 33.361201794934146,105.6146221873151 35.86120179493434,106.28449516840274" stroke="#ffa500" stroke-linecap="round" stroke-linejoin="round"/><polyline fill="none" points="-34.79949829786875,14.624582021079538 -32.29949829786367,13.954709040010147 -30.46937127893287,12.124582021092703 -29.799498297845233,9.624582021092511 -30.469371278914622,7.124582021087429 -32.299498297832066,5.294455002156625 -34.79949829783226,4.624582021068987 -37.29949829783734,5.294455002138375 -39.12962531676814,7.124582021055819 -39.79949829785578,9.62458202105601 -39.12962531678639,12.124582021061093 -37.29949829786894,13.954709039991897 -34.79949829786875,14.624582021079537" stroke="#ffa500" stroke-linecap="round" stroke-linejoin="round"/><polyline fill="none" points="15.944011502942612,83.04670085583822 18.444011502947696,82.37682787476884 20.274138521878502,80.5467008558514 20.94401150296614,78.0467008558512 20.274138521896756,75.54670085584611 18.44401150297931,73.7165738369153 15.94401150297912,73.04670085582767 13.444011502974035,73.71657383689706 11.61388448404323,75.54670085581449 10.944011502955588,78.04670085581469 11.613884484024974,80.54670085581978 13.444011502942416,82.37682787475059 15.944011502942608,83.04670085583822" stroke="#ffa500" stroke-linecap="round" stroke-linejoin="round"/><polyline fill="none" points="43.19090417643336,61.89183962223096 45.690904176438444,61.22196664116158 47.521031195369254,59.391839622244134 48.1909041764569,56.89183962224394 47.521031195387515,54.391839622238855 45.69090417647007,52.561712603308045 43.19090417646988,51.8918396222204 40.69090417646479,52.561712603289784 38.86077715753398,54.39183962220723 38.19090417644634,56.89183962220742 38.86077715751572,59.39183962221251 40.690904176433165,61.22196664114332 43.19090417643336,61.89183962223096" stroke="#ffa500" stroke-linecap="round" stroke-linejoin="round"/><polyline fill="none" points="41.685905721140564,47.041008602554406 44.18590572114565,46.371135621485024 46.01603274007646,44.54100860256759 46.685905721164104,42.041008602567395 46.01603274009472,39.54100860256231 44.185905721177285,37.7108815836315 41.68590572117709,37.041008602543855 39.185905721172006,37.71088158361324 37.355778702241196,39.541008602530674 36.68590572115355,42.041008602530866 37.355778702222935,44.54100860253595 39.18590572114037,46.37113562146676 41.685905721140564,47.04100860255441" stroke="#00f" stroke-linecap="round" stroke-linejoin="round"/><polyline fill="none" points="-17.041660971824065,108.60139655576283 -14.541660971818978,107.93152357469346 -12.711533952888166,106.10139655577602 -12.041660971800518,103.60139655577582 -12.711533952869898,101.10139655577073 -14.541660971787337,99.27126953683992 -17.04166097178753,98.60139655575227 -19.541660971792616,99.27126953682165 -21.37178799072343,101.10139655573909 -22.04166097181108,103.60139655573929 -21.3717879907417,106.10139655574437 -19.541660971824264,107.93152357467518 -17.041660971824072,108.60139655576283" stroke="#ffa500" stroke-linecap="round" stroke-linejoin="round"/><polyline fill="none" points="-74.69878903662983,50.54391373294965 -72.19878903662475,49.87404075188027 -70.36866201769394,48.043913732962835 -69.69878903660629,45.54391373296264 -70.36866201767566,43.043913732957556 -72.1987890365931,41.21378671402674 -74.6987890365933,40.54391373293909 -77.19878903659838,41.213786714008464 -79.0289160555292,43.0439137329259 -79.69878903661684,45.54391373292609 -79.02891605554747,48.04391373293118 -77.19878903663003,49.874040751862 -74.69878903662983,50.54391373294965" stroke="#00f" stroke-linecap="round" stroke-linejoin="round"/><polyline fill="none" points="-72.25025548811028,120.62456589605027 -69.7502554881052,119.9546929149809 -67.92012846917437,118.12456589606346 -67.25025548808672,115.62456589606326 -67.9201284691561,113.12456589605817 -69.75025548807353,111.29443887712735 -72.25025548807373,110.6245658960397 -74.75025548807882,111.29443887710907 -76.58038250700965,113.12456589602651 -77.2502554880973,115.62456589602671 -76.58038250702792,118.1245658960318 -74.75025548811048,119.95469291496262 -72.25025548811028,120.62456589605027" stroke="#ffa500" stroke-linecap="round" stroke-linejoin="round"/><polyline fill="none" points="10.764837367720931,115.23556370911398 13.264837367726022,114.5656907280446 15.09496438665684,112.73556370912716 15.764837367744498,110.23556370912696 15.094964386675125,107.73556370912188 13.26483736775769,105.90543669019105 10.764837367757497,105.2355637091034 8.264837367752406,105.90543669017278 6.434710348821586,107.73556370909021 5.764837367733929,110.23556370909041 6.434710348803301,112.7355637090955 8.264837367720736,114.56569072802633 10.76483736772093,115.23556370911399" stroke="#ffa500" stroke-linecap="round" stroke-linejoin="round"/><polyline fill="none" points="-71.37772093465128,36.76342415836547 -68.87772093464619,36.09355117729609 -67.04759391571537,34.263424158378655 -66.3777209346277,31.763424158378463 -67.04759391569708,29.26342415837337 -68.87772093461452,27.433297139442548 -71.37772093461471,26.763424158354887 -73.8777209346198,27.43329713942426 -75.70784795355063,29.263424158341692 -76.37772093463829,31.763424158341884 -75.70784795356892,34.26342415834698 -73.87772093465148,36.0935511772778 -71.37772093465128,36.76342415836547" stroke="#008000" stroke-linecap="round" stroke-linejoin="round"/><polyline fill="none" points="-77.15253798691025,4.869861677027081 -74.65253798690516,4.199988695957712 -72.82241096797433,2.369861677040279 -72.15253798688667,-0.13013832295991357 -72.82241096795605,-2.6301383229650077 -74.65253798687348,-4.460265341895832 -77.15253798687368,-5.130138322983495 -79.65253798687877,-4.460265341914127 -81.4826650058096,-2.630138322996695 -82.15253798689726,-0.13013832299650208 -81.4826650058279,2.3698616770085925 -79.65253798691046,4.1999886959394175 -77.15253798691026,4.869861677027081" stroke="#00f" stroke-linecap="round" stroke-linejoin="round"/><polyline fill="none" points="0.93994284222198,101.79050155006608 3.4399428422270746,101.12062856899672 5.2700698611579,99.29050155007928 5.939942842245564,96.79050155007909 5.270069861176198,94.29050155007398 3.439942842258767,92.46037453114316 0.9399428422585747,91.7905015500555 -1.5600571577465208,92.46037453112486 -3.3901841766773475,94.2905015500423 -4.060057157765013,96.79050155004249 -3.390184176695648,99.2905015500476 -1.5600571577782176,101.12062856897842 0.9399428422219747,101.79050155006608" stroke="#00f" stroke-linecap="round" stroke-linejoin="round"/><polyline fill="none" points="-97.48492509275015,41.51501666234986 -94.98492509274504,40.84514368128049 -93.15479807381422,39.01501666236306 -92.48492509272656,36.51501666236287 -93.15479807379592,34.01501666235777 -94.98492509271334,32.18488964342694 -97.48492509271354,31.515016662339274 -99.98492509271864,32.18488964340864 -101.81505211164946,34.01501666232607 -102.48492509273713,36.51501666232626 -101.81505211166777,39.015016662331355 -99.98492509275034,40.845143681262186 -97.48492509275015,41.51501666234986" stroke="#00f" stroke-linecap="round" stroke-linejoin="round"/><polyline fill="none" points="14.297670291850364,116.75135240670093 16.79767029185546,116.08147942563157 18.627797310786292,114.25135240671415 19.297670291873963,111.75135240671395 18.627797310804603,109.25135240670885 16.797670291887176,107.42122538777801 14.297670291886984,106.75135240669034 11.797670291881886,107.4212253877597 9.967543272951053,109.25135240667713 9.297670291863382,111.75135240667733 9.967543272932742,114.25135240668243 11.797670291850169,116.08147942561327 14.297670291850363,116.75135240670095" stroke="#ffa500" stroke-linecap="round" stroke-linejoin="round"/><polyline fill="none" points="-70.98641254799263,95.89215087855096 -68.48641254798753,95.2222778974816 -66.65628552905669,93.39215087856418 -65.98641254796901,90.89215087856398 -66.65628552903837,88.39215087855888 -68.4864125479558,86.56202385962804 -70.986412547956,85.89215087854036 -73.4864125479611,86.56202385960972 -75.31653956689193,88.39215087852715 -75.98641254797961,90.89215087852735 -75.31653956691025,93.39215087853245 -73.48641254799283,95.22227789746329 -70.98641254799263,95.89215087855096" stroke="#ffa500" stroke-linecap="round" stroke-linejoin="round"/><polyline fill="none" points="12.863387358623699,-48.70105387419597 15.363387358628799,-49.37092685526533 17.193514377559634,-51.201053874182755 17.86338735864731,-53.701053874182946 17.19351437757795,-56.20105387418805 15.363387358660527,-58.031180893118886 12.863387358660335,-58.701053874206565 10.363387358655233,-58.03118089313721 8.533260339724396,-56.20105387421979 7.86338735863672,-53.701053874219596 8.533260339706075,-51.201053874214494 10.3633873586235,-49.370926855283656 12.863387358623692,-48.70105387419598" stroke="#ffa500" stroke-linecap="round" stroke-linejoin="round"/><polyline fill="none" points="-54.07619346775788,109.5192710892883 -51.57619346775278,108.84939810821894 -49.74606644882194,107.01927108930151 -49.076193467734264,104.51927108930131 -49.74606644880362,102.01927108929621 -51.57619346772104,100.18914407036537 -54.07619346772123,99.5192710892777 -56.576193467726334,100.18914407034706 -58.40632048665717,102.01927108926448 -59.07619346774485,104.51927108926468 -58.4063204866755,107.01927108926978 -56.576193467758074,108.84939810820062 -54.07619346775788,109.5192710892883" stroke="#ffa500" stroke-linecap="round" stroke-linejoin="round"/><polyline fill="none" points="41.1626905258784,32.04786734159815 43.662690525883505,31.377994360528795 45.49281754481434,29.547867341611372 46.16269052590202,27.04786734161118 45.49281754483267,24.54786734160608 43.662690525915245,22.717740322675237 41.16269052591505,22.047867341587555 38.66269052590995,22.717740322656905 36.83256350697911,24.547867341574328 36.16269052589143,27.04786734157452 36.83256350696078,29.547867341579625 38.662690525878205,31.377994360510467 41.162690525878396,32.04786734159815" stroke="#ffa500" stroke-linecap="round" stroke-linejoin="round"/><polyline fill="none" points="-82.11014551486117,36.78691132085401 -79.61014551485607,36.11703833978466 -77.78001849592523,34.28691132086724 -77.11014551483755,31.78691132086705 -77.7800184959069,29.286911320861943 -79.61014551482432,27.456784301931098 -82.11014551482452,26.786911320843412 -84.61014551482963,27.45678430191276 -86.44027253376046,29.28691132083018 -87.11014551484816,31.78691132083037 -86.44027253377881,34.28691132083548 -84.61014551486139,36.117038339766324 -82.11014551486119,36.78691132085401" stroke="#008000" stroke-linecap="round" stroke-linejoin="round"/><polyline fill="none" points="-79.36060320206646,68.99317158096159 -76.86060320206136,68.32329859989224 -75.0304761831305,66.49317158097482 -74.36060320204281,63.993171580974625 -75.03047618311216,61.493171580969516 -76.86060320202958,59.66304456203867 -79.36060320202978,58.993171580950985 -81.86060320203488,59.66304456202033 -83.69073022096573,61.49317158093775 -84.36060320205343,63.99317158093794 -83.69073022098408,66.49317158094304 -81.86060320206666,68.3232985998739 -79.36060320206646,68.99317158096159" stroke="#00f" stroke-linecap="round" stroke-linejoin="round"/><polyline fill="none" points="-105.89853772919588,90.12440608167344 -103.39853772919078,89.4545331006041 -101.56841071025993,87.62440608168667 -100.89853772917223,85.12440608168647 -101.56841071024158,82.62440608168137 -103.398537729159,80.79427906275052 -105.8985377291592,80.12440608166283 -108.3985377291643,80.79427906273217 -110.22866474809516,82.6244060816496 -110.89853772918285,85.1244060816498 -110.2286647481135,87.62440608165491 -108.39853772919608,89.45453310058576 -105.89853772919588,90.12440608167346" stroke="#ffa500" stroke-linecap="round" stroke-linejoin="round"/><polyline fill="none" points="99.81368486611606,98.41066742496625 102.31368486612118,97.7407944438969 104.14381188505203,95.91066742497948 104.81368486613972,93.41066742497928 104.14381188507038,90.91066742497416 102.31368486615295,89.08054040604331 99.81368486615276,88.41066742495562 97.31368486614764,89.08054040602497 95.48355784721679,90.91066742494239 94.8136848661291,93.41066742494259 95.48355784719844,95.9106674249477 97.31368486611586,97.74079444387856 99.81368486611606,98.41066742496625" stroke="#00f" stroke-linecap="round" stroke-linejoin="round"/><polyline fill="none" points="-115.04159800613357,-44.169122017892356 -112.54159800612845,-44.838994998961695 -110.7114709871976,-46.66912201787911 -110.04159800610991,-49.1691220178793 -110.71147098717924,-51.66912201788441 -112.54159800609665,-53.499249036815264 -115.04159800609685,-54.16912201790296 -117.54159800610196,-53.49924903683362 -119.37172502503282,-51.6691220179162 -120.04159800612051,-49.16912201791601 -119.37172502505118,-46.6691220179109 -117.54159800613377,-44.83899499898005 -115.04159800613357,-44.16912201789235" stroke="#ffa500" stroke-linecap="round" stroke-linejoin="round"/><polyline fill="none" points="-76.76640912380219,87.19901370869903 -74.26640912379708,86.5291407276297 -72.43628210486622,84.69901370871229 -71.76640912377853,82.19901370871209 -72.43628210484786,79.69901370870697 -74.26640912376527,77.86888668977612 -76.76640912376547,77.19901370868843 -79.26640912377059,77.86888668975776 -81.09653614270144,79.69901370867517 -81.76640912378913,82.19901370867537 -81.0965361427198,84.69901370868048 -79.26640912380239,86.52914072761133 -76.76640912380219,87.19901370869904" stroke="#ffa500" stroke-linecap="round" stroke-linejoin="round"/><polyline fill="none" points="-153.4567809668435,34.140764588494505 -150.95678096683838,33.47089160742517 -149.12665394790753,31.64076458850776 -148.45678096681982,29.14076458850757 -149.12665394788917,26.640764588502456 -150.95678096680658,24.810637569571597 -153.45678096680678,24.140764588483894 -155.9567809668119,24.810637569553226 -157.78690798574274,26.64076458847064 -158.45678096683045,29.14076458847083 -157.7869079857611,31.640764588475946 -155.9567809668437,33.470891607406806 -153.4567809668435,34.140764588494505" stroke="#ffa500" stroke-linecap="round" stroke-linejoin="round"/><polyline fill="none" points="-77.59177702821906,36.853473174764844 -75.09177702821394,36.18360019369551 -73.26165000928307,34.3534731747781 -72.59177702819537,31.85347317477791 -73.2616500092647,29.353473174772795 -75.09177702818211,27.523346155841935 -77.5917770281823,26.85347317475423 -80.09177702818742,27.523346155823564 -81.92190404711829,29.353473174740977 -82.591777028206,31.85347317474117 -81.92190404713666,34.353473174746284 -80.09177702821925,36.183600193677144 -77.59177702821906,36.85347317476485" stroke="#008000" stroke-linecap="round" stroke-linejoin="round"/><polyline fill="none" points="-113.36727260655887,-30.148844599889152 -110.86727260655375,-30.818717580958484 -109.03714558762289,-32.64884459987589 -108.36727260653518,-35.148844599876085 -109.03714558760451,-37.6488445998812 -110.86727260652192,-39.47897161881206 -113.36727260652212,-40.14884459989977 -115.86727260652724,-39.478971618830435 -117.6973996254581,-37.648844599913026 -118.36727260654581,-35.148844599912834 -117.69739962547648,-32.64884459990772 -115.86727260655907,-30.818717580976855 -113.36727260655887,-30.14884459988915" stroke="#ffa500" stroke-linecap="round" stroke-linejoin="round"/><polyline fill="none" points="-93.33236994875213,-25.507667575751586 -90.83236994874702,-26.177540556820915 -89.00224292981615,-28.007667575738324 -88.33236994872844,-30.507667575738516 -89.00224292979777,-33.00766757574363 -90.83236994871518,-34.8377945946745 -93.33236994871538,-35.507667575762206 -95.8323699487205,-34.83779459469288 -97.66249696765136,-33.00766757577547 -98.33236994873907,-30.50766757577528 -97.66249696766974,-28.00766757577016 -95.83236994875233,-26.177540556839293 -93.33236994875213,-25.507667575751583" stroke="#00f" stroke-linecap="round" stroke-linejoin="round"/><polyline fill="none" points="37.521571244370016,-77.77410860257932 40.02157124437513,-78.44398158364865 41.851698263306,-80.27410860256606 42.52157124439371,-82.77410860256626 41.85169826332439,-85.27410860257137 40.02157124440698,-87.10423562150224 37.521571244406786,-87.77410860258995 35.02157124440167,-87.10423562152063 33.1914442254708,-85.27410860260322 32.52157124438309,-82.77410860260302 33.191444225452415,-80.2741086025979 35.021571244369824,-78.44398158366704 37.521571244370016,-77.77410860257933" stroke="#00f" stroke-linecap="round" stroke-linejoin="round"/><polyline fill="none" points="-99.7622414972288,17.906097474292896 -97.26224149722368,17.23622449322357 -95.43211447829282,15.406097474306163 -94.7622414972051,12.90609747430597 -95.43211447827441,10.40609747430085 -97.26224149719182,8.57597045536998 -99.76224149719202,7.906097474282265 -102.26224149719714,8.575970455351587 -104.092368516128,10.406097474268993 -104.76224149721573,12.906097474269185 -104.09236851614641,15.406097474274306 -102.262241497229,17.236224493205178 -99.7622414972288,17.906097474292896" stroke="#00f" stroke-linecap="round" stroke-linejoin="round"/><polyline fill="none" points="-30.032759852171335,60.34369973745257 -27.532759852166215,59.67382675638325 -25.702632833235345,57.84369973746585 -25.032759852147628,55.343699737465656 -25.70263283321695,52.84369973746053 -27.532759852134355,51.01357271852966 -30.032759852134546,50.34369973744194 -32.53275985213967,51.013572718511256 -34.36288687107054,52.84369973742866 -35.032759852158264,55.34369973742885 -34.362886871088946,57.84369973743397 -32.532759852171544,59.673826756364846 -30.032759852171353,60.34369973745257" stroke="#ffa500" stroke-linecap="round" stroke-linejoin="round"/><polyline fill="none" points="-43.94796672948476,52.785827608051434 -41.44796672947964,52.115954626982116 -39.617839710548765,50.285827608064714 -38.947966729461044,47.78582760806452 -39.61783971053036,45.2858276080594 -41.447966729447764,43.455700589128526 -43.947966729447955,42.785827608040805 -46.44796672945308,43.45570058911012 -48.27809374838395,45.285827608027525 -48.94796672947167,47.78582760802772 -48.278093748402355,50.28582760803284 -46.44796672948495,52.11595462696371 -43.94796672948476,52.785827608051434" stroke="#008000" stroke-linecap="round" stroke-linejoin="round"/><polyline fill="none" points="28.961133539347014,36.113820133341704 31.461133539352137,35.443947152272386 33.291260558283014,33.613820133354984 33.961133539370735,31.113820133354793 33.29126055830142,28.61382013334967 31.461133539384015,26.783693114418792 28.961133539383823,26.113820133331068 26.4611335393787,26.783693114400382 24.631006520447823,28.613820133317784 23.961133539360098,31.113820133317976 24.631006520429413,33.6138201333231 26.461133539346815,35.44394715225398 28.961133539347006,36.113820133341704" stroke="#ffa500" stroke-linecap="round" stroke-linejoin="round"/><polyline fill="none" points="-24.31010602451367,-114.4933933040189 -21.810106024508542,-115.16326628508821 -19.97997900557766,-116.99339330400561 -19.310106024489937,-119.4933933040058 -19.97997900555925,-121.99339330401094 -21.810106024476653,-123.82352032294182 -24.310106024476845,-124.49339330402954 -26.81010602448197,-123.82352032296022 -28.640233043412852,-121.99339330404283 -29.310106024500577,-119.49339330404263 -28.640233043431266,-116.9933933040375 -26.810106024513868,-115.16326628510662 -24.310106024513676,-114.4933933040189" stroke="#ffa500" stroke-linecap="round" stroke-linejoin="round"/><polyline fill="none" points="-59.458812606843374,82.79709703748229 -56.958812606838244,82.12722405641297 -55.12868558790736,80.29709703749558 -54.458812606819635,77.79709703749538 -55.128685587888945,75.29709703749025 -56.95881260680635,73.46697001855937 -59.45881260680654,72.79709703747163 -61.95881260681167,73.46697001854093 -63.78893962574255,75.29709703745833 -64.45881260683028,77.79709703745853 -63.78893962576097,80.29709703746366 -61.95881260684357,82.12722405639454 -59.45881260684338,82.79709703748227" stroke="#ffa500" stroke-linecap="round" stroke-linejoin="round"/><polyline fill="none" points="52.34661771632833,-54.91756542963031 54.84661771633346,-55.58743841069962 56.67674473526434,-57.417565429617014 57.34661771635207,-59.917565429617206 56.67674473528276,-62.417565429622336 54.846617716365365,-64.24769244855322 52.346617716365174,-64.91756542964096 49.84661771636004,-64.24769244857166 48.016490697429155,-62.41756542965426 47.34661771634142,-59.91756542965407 48.016490697410724,-57.41756542964894 49.84661771632812,-55.58743841071805 52.34661771632831,-54.917565429630315" stroke="#ffa500" stroke-linecap="round" stroke-linejoin="round"/><polyline fill="none" points="-60.55982692273516,-89.41443801804076 -58.05982692273003,-90.08431099911006 -56.229699903799144,-91.91443801802745 -55.55982692271141,-94.41443801802765 -56.22969990378071,-96.91443801803278 -58.05982692269811,-98.74456503696366 -60.5598269226983,-99.4144380180514 -63.05982692270343,-98.7445650369821 -64.88995394163432,-96.9144380180647 -65.55982692272205,-94.4144380180645 -64.88995394165275,-91.91443801805937 -63.059826922735354,-90.08431099912849 -60.55982692273516,-89.41443801804076" stroke="#ffa500" stroke-linecap="round" stroke-linejoin="round"/><polyline fill="none" points="71.0208569860734,-26.456458409366327 73.52085698607853,-27.12633139043563 75.35098400500941,-28.956458409353026 76.02085698609714,-31.456458409353218 75.35098400502784,-33.95645840935835 73.52085698611045,-35.786585428289236 71.02085698611025,-36.45645840937697 68.52085698610512,-35.78658542830767 66.69072996717422,-33.95645840939027 66.02085698608649,-31.45645840939008 66.69072996715579,-28.95645840938495 68.52085698607318,-27.126331390454062 71.02085698607338,-26.456458409366324" stroke="#00f" stroke-linecap="round" stroke-linejoin="round"/><polyline fill="none" points="98.13323820682439,-58.13053664044161 100.63323820682952,-58.800409621510916 102.46336522576041,-60.63053664042831 103.13323820684815,-63.1305366404285 102.46336522577884,-65.63053664043363 100.63323820686145,-67.46066365936453 98.13323820686125,-68.13053664045226 95.63323820685612,-67.46066365938296 93.80311118792523,-65.63053664046556 93.13323820683749,-63.13053664046537 93.8031111879068,-60.63053664046024 95.63323820682419,-58.80040962152935 98.13323820682439,-58.130536640441605" stroke="#00f" stroke-linecap="round" stroke-linejoin="round"/><polyline fill="none" points="-102.47977205335205,-13.895278965134604 -99.97977205334692,-14.565151946203905 -98.14964503441603,-16.395278965121296 -97.47977205332829,-18.895278965121488 -98.1496450343976,-21.39527896512662 -99.97977205331499,-23.225405984057517 -102.47977205331519,-23.89527896514526 -104.97977205332032,-23.225405984075962 -106.80989907225121,-21.39527896515857 -107.47977205333896,-18.89527896515838 -106.80989907226966,-16.395278965153246 -104.97977205335226,-14.56515194622235 -102.47977205335206,-13.895278965134606" stroke="#00f" stroke-linecap="round" stroke-linejoin="round"/><polyline fill="none" points="76.91081703852242,-47.05006768489587 79.41081703852755,-47.71994066596517 81.24094405745845,-49.55006768488256 81.9108170385462,-52.050067684882755 81.2409440574769,-54.55006768488789 79.4108170385595,-56.38019470381879 76.9108170385593,-57.05006768490653 74.41081703855417,-56.38019470383723 72.58069001962328,-54.550067684919846 71.91081703853553,-52.050067684919654 72.58069001960482,-49.55006768491452 74.41081703852221,-47.71994066598362 76.91081703852241,-47.05006768489587" stroke="#00f" stroke-linecap="round" stroke-linejoin="round"/><polyline fill="none" points="-88.56425200519237,-71.69787741698975 -86.06425200518723,-72.36775039805904 -84.23412498625633,-74.19787741697644 -83.56425200516858,-76.69787741697664 -84.23412498623787,-79.19787741698178 -86.06425200515527,-81.02800443591268 -88.56425200515547,-81.69787741700043 -91.06425200516061,-81.02800443593114 -92.8943790240915,-79.19787741701374 -93.56425200517926,-76.69787741701354 -92.89437902410997,-74.1978774170084 -91.06425200519257,-72.3677503980775 -88.56425200519237,-71.69787741698975" stroke="#ffa500" stroke-linecap="round" stroke-linejoin="round"/><polyline fill="none" points="-135.86304592130762,-4.209912485569186 -133.36304592130247,-4.879785466638479 -131.53291890237156,-6.7099124855558685 -130.86304592128383,-9.209912485556062 -131.53291890235312,-11.709912485561201 -133.3630459212705,-13.540039504492102 -135.8630459212707,-14.209912485579851 -138.36304592127584,-13.54003950451056 -140.19317294020675,-11.70991248559317 -140.8630459212945,-9.209912485592977 -140.19317294022522,-6.709912485587838 -138.36304592130784,-4.879785466656936 -135.86304592130764,-4.209912485569185" stroke="#ffa500" stroke-linecap="round" stroke-linejoin="round"/><polyline fill="none" points="31.056124667935737,31.96670279588306 33.55612466794088,31.29682981481377 35.38625168687178,29.46670279589638 36.05612466795953,26.96670279589619 35.38625168689024,24.46670279589105 33.55612466797285,22.636575776960147 31.05612466797266,21.966702795872393 28.55612466796752,22.636575776941683 26.725997649036618,24.46670279585907 26.056124667948865,26.966702795859263 26.725997649018154,29.466702795864403 28.556124667935542,31.296829814795306 31.056124667935734,31.96670279588306" stroke="#00f" stroke-linecap="round" stroke-linejoin="round"/><polyline fill="none" points="-78.29052698143217,38.972371770853535 -75.79052698142702,38.302498789784245 -73.96039996249611,36.47237177086686 -73.29052698140836,33.972371770866665 -73.96039996247765,31.472371770861525 -75.79052698139503,29.64224475193062 -78.29052698139523,28.972371770842862 -80.79052698140038,29.64224475191215 -82.62065400033129,31.472371770829533 -83.29052698141903,33.972371770829724 -82.62065400034975,36.47237177083487 -80.79052698143236,38.30249878976578 -78.29052698143217,38.972371770853535" stroke="#008000" stroke-linecap="round" stroke-linejoin="round"/><polyline fill="none" points="49.03877660108521,-25.008224761539513 51.538776601090355,-25.6780977426088 53.368903620021264,-27.508224761526183 54.03877660110902,-30.008224761526375 53.36890362003974,-32.508224761531515 51.53877660112235,-34.338351780462425 49.03877660112216,-35.00822476155018 46.538776601117014,-34.3383517804809 44.708649582186105,-32.50822476156351 44.03877660109835,-30.00822476156332 44.70864958216763,-27.508224761558175 46.53877660108502,-25.678097742627266 49.03877660108521,-25.008224761539505" stroke="#ffa500" stroke-linecap="round" stroke-linejoin="round"/><polyline fill="none" points="-0.5058801871976865,-113.73872424036836 1.9941198128074564,-114.40859722143765 3.824246831738365,-116.23872424035503 4.494119812826124,-118.73872424035522 3.8242468317568408,-121.23872424036037 1.9941198128394575,-123.06885125929128 -0.5058801871607348,-123.73872424037904 -3.0058801871658782,-123.06885125930975 -4.836007206096788,-121.23872424039237 -5.505880187184549,-118.73872424039217 -4.836007206115267,-116.23872424038703 -3.0058801871978837,-114.40859722145612 -0.505880187197691,-113.73872424036836" stroke="#ffa500" stroke-linecap="round" stroke-linejoin="round"/><polyline fill="none" points="-99.96365489037295,-7.356725164274163 -97.4636548903678,-8.026598145343446 -95.6335278714369,-9.856725164260828 -94.96365489034913,-12.356725164261022 -95.63352787141841,-14.856725164266166 -97.46365489033579,-16.68685218319708 -99.96365489033599,-17.356725164284843 -102.46365489034113,-16.686852183215564 -104.29378190927204,-14.856725164298183 -104.9636548903598,-12.356725164297991 -104.29378190929053,-9.856725164292847 -102.46365489037315,-8.026598145361934 -99.96365489037295,-7.356725164274169" stroke="#00f" stroke-linecap="round" stroke-linejoin="round"/><polyline fill="none" points="71.69830734098352,-65.20536513971747 74.19830734098866,-65.87523812078675 76.02843435991957,-67.70536513970413 76.69830734100734,-70.20536513970433 76.02843435993806,-72.70536513970947 74.19830734102068,-74.53549215864038 71.69830734102048,-75.20536513972814 69.19830734101534,-74.53549215865887 67.36818032208443,-72.70536513974149 66.69830734099666,-70.20536513974129 67.36818032206594,-67.70536513973614 69.19830734098332,-65.87523812080524 71.69830734098352,-65.20536513971747" stroke="#00f" stroke-linecap="round" stroke-linejoin="round"/><polyline fill="none" points="34.417069678983054,-56.27814142672641 36.9170696789882,-56.94801440779568 38.747196697919115,-58.77814142671306 39.417069679006886,-61.278141426713255 38.74719669793761,-63.778141426718406 36.91706967902023,-65.60826844564933 34.41706967902004,-66.2781414267371 31.91706967901489,-65.60826844566782 30.086942660083974,-63.77814142675044 29.417069678996203,-61.278141426750246 30.08694266006548,-58.778141426745094 31.917069678982855,-56.94801440781418 34.41706967898305,-56.27814142672641" stroke="#ffa500" stroke-linecap="round" stroke-linejoin="round"/><polyline fill="none" points="-132.18536628881114,-18.43505228381165 -129.685366288806,-19.104925264880926 -127.85523926987507,-20.935052283798303 -127.18536628878729,-23.435052283798495 -127.85523926985657,-25.935052283803643 -129.68536628877393,-27.765179302734563 -132.18536628877413,-28.435052283822333 -134.68536628877928,-27.76517930275306 -136.5154933077102,-25.935052283835685 -137.18536628879795,-23.435052283835493 -136.5154933077287,-20.935052283830345 -134.6853662888113,-19.104925264899425 -132.1853662888111,-18.43505228381165" stroke="#ffa500" stroke-linecap="round" stroke-linejoin="round"/><polyline fill="none" points="-81.83780287451634,39.048417546093695 -79.3378028745112,38.37854456502442 -77.50767585558027,36.548417546107046 -76.8378028744925,34.048417546106855 -77.50767585556177,31.548417546101703 -79.33780287447915,29.718290527170783 -81.83780287447935,29.04841754608301 -84.3378028744845,29.71829052715228 -86.16792989341542,31.548417546069658 -86.8378028745032,34.04841754606985 -86.16792989343392,36.548417546075 -84.33780287451654,38.378544565005924 -81.83780287451634,39.0484175460937" stroke="#008000" stroke-linecap="round" stroke-linejoin="round"/><polyline fill="none" points="-35.80283377088691,14.496576210709172 -33.30283377088176,13.826703229639902 -31.472706751950838,11.996576210722527 -30.80283377086306,9.496576210722335 -31.47270675193233,6.996576210717183 -33.3028337708497,5.16644919178626 -35.802833770849894,4.496576210698482 -38.302833770855045,5.16644919176775 -40.13296078978597,6.996576210685125 -40.80283377087375,9.496576210685317 -40.13296078980448,11.99657621069047 -38.302833770887105,13.826703229621396 -35.80283377088691,14.496576210709176" stroke="#ffa500" stroke-linecap="round" stroke-linejoin="round"/><polyline fill="none" points="-97.60558593610074,-68.43288445827504 -95.10558593609558,-69.1027574393443 -93.27545891716466,-70.93288445826168 -92.60558593607688,-73.43288445826188 -93.27545891714614,-75.93288445826704 -95.1055859360635,-77.76301147719796 -97.6055859360637,-78.43288445828574 -100.10558593606886,-77.76301147721648 -101.93571295499979,-75.93288445829911 -102.60558593608756,-73.43288445829891 -101.9357129550183,-70.93288445829376 -100.10558593610094,-69.10275743936283 -97.60558593610074,-68.43288445827505" stroke="#ffa500" stroke-linecap="round" stroke-linejoin="round"/><polyline fill="none" points="-74.78841984183542,33.18151616681537 -72.28841984183026,32.51164318574611 -70.45829282289934,30.681516166828736 -69.78841984181156,28.181516166828544 -70.45829282288082,25.68151616682339 -72.28841984179819,23.851389147892462 -74.78841984179839,23.18151616680468 -77.28841984180355,23.851389147873945 -79.11854686073447,25.68151616679132 -79.78841984182225,28.18151616679151 -79.11854686075299,30.681516166796666 -77.28841984183562,32.51164318572759 -74.78841984183542,33.18151616681538" stroke="#00f" stroke-linecap="round" stroke-linejoin="round"/><polyline fill="none" points="-7.209005426109482,30.85614592102993 -4.709005426104326,30.18627293996067 -2.8788784071733957,28.3561459210433 -2.2090054260856107,25.856145921043108 -2.8788784071548728,23.356145921037953 -4.709005426072244,21.526018902107023 -7.209005426072436,20.856145921019237 -9.709005426077592,21.5260189020885 -11.539132445008523,23.35614592100587 -12.209005426096308,25.85614592100606 -11.539132445027047,28.356145921011215 -9.709005426109677,30.186272939942146 -7.209005426109484,30.85614592102993" stroke="#ffa500" stroke-linecap="round" stroke-linejoin="round"/><polyline fill="none" points="-81.45977051671446,-13.843797088963601 -78.9597705167093,-14.513670070032862 -77.12964349777836,-16.343797088950232 -76.45977051669057,-18.843797088950424 -77.12964349775983,-21.343797088955583 -78.9597705166772,-23.173924107886517 -81.4597705166774,-23.843797088974306 -83.95977051668255,-23.173924107905044 -85.78989753561349,-21.343797088987674 -86.45977051670128,-18.843797088987483 -85.78989753563202,-16.343797088982324 -83.95977051671466,-14.51367007005139 -81.45977051671446,-13.843797088963601" stroke="#ffa500" stroke-linecap="round" stroke-linejoin="round"/></svg>