<?xml version="1.0" ?><!DOCTYPE svg  PUBLIC '-//W3C//DTD SVG 1.1//EN'  'http://www.w3.org/Graphics/SVG/1.1/DTD/svg11.dtd'><svg height="243.000" viewBox="-164.000 -122.000 359.000 243.000" width="359.000" xmlns="http://www.w3.org/2000/svg"><line fill="none" stroke="none" stroke-linecap="round" stroke-width="2.0" x1="0.0" x2="0.0" y1="0.0" y2="0.0"/><polygon fill="none" fill-rule="evenodd" points="0.0,0.0 0.0,0.0 0.0,0.0" stroke-linejoin="round"/><polyline fill="none" points="-58.91283527961484,6.996690120868215 -56.41283527960891,6.326817139800251 -54.58270826067667,4.496690120883618 -53.91283527958737,1.9966901208834056 -54.58270826065533,-0.5033098791225221 -56.412835279571965,-2.333436898054771 -58.91283527957218,-3.003309879144066 -61.412835279578104,-2.333436898076103 -63.242962298510356,-0.5033098791594706 -63.912835279599655,1.9966901208407417 -63.242962298531694,4.4966901208466705 -61.41283527961506,6.32681713977892 -58.912835279614846,6.996690120868217" stroke="#00f" stroke-linecap="round" stroke-linejoin="round"/><polyline fill="none" points="-74.23759483830416,-39.94501689554879 -71.73759483829824,-40.61488987661675 -69.90746781936599,-42.445016895533385 -69.23759483827669,-44.9450168955336 -69.90746781934466,-47.445016895539524 -71.73759483826129,-49.275143914471776 -74.2375948382615,-49.945016895561075 -76.73759483826743,-49.275143914493114 -78.56772185719967,-47.44501689557648 -79.23759483828897,-44.945016895576266 -78.56772185722102,-42.44501689557033 -76.73759483830439,-40.61488987663808 -74.23759483830418,-39.94501689554878" stroke="#008000" stroke-linecap="round" stroke-linejoin="round"/><polyline fill="none" points="-52.35733483994411,-91.14975648161439 -49.857334839938176,-91.81962946268234 -48.02720782100592,-93.64975648159897 -47.357334839916625,-96.14975648159918 -48.027207820984586,-98.64975648160511 -49.85733483990121,-100.47988350053737 -52.35733483990143,-101.14975648162667 -54.85733483990736,-100.47988350055871 -56.68746185883961,-98.64975648164209 -57.35733483992891,-96.14975648164187 -56.68746185886095,-93.64975648163595 -54.85733483994432,-91.81962946270369 -52.35733483994411,-91.14975648161439" stroke="#ffa500" stroke-linecap="round" stroke-linejoin="round"/><polyline fill="none" points="-60.55012817753535,-44.954804775474564 -58.050128177529416,-45.624677756542525 -56.220001158597164,-47.45480477545915 -55.55012817750786,-49.954804775459365 -56.22000115857581,-52.4548047754653 -58.05012817749244,-54.28493179439755 -60.55012817749265,-54.954804775486856 -63.050128177498586,-54.2849317944189 -64.88025519643084,-52.454804775502275 -65.55012817752014,-49.95480477550206 -64.88025519645218,-47.45480477549613 -63.050128177535555,-45.62467775656387 -60.55012817753534,-44.954804775474564" stroke="#008000" stroke-linecap="round" stroke-linejoin="round"/><polyline fill="none" points="-74.98086454303386,14.252502665592448 -72.48086454302793,13.582629684524493 -70.65073752409567,11.752502665607865 -69.98086454300638,9.252502665607654 -70.65073752407433,6.752502665601721 -72.48086454299096,4.9223756466694635 -74.98086454299117,4.252502665580158 -77.48086454299711,4.922375646648113 -79.31099156192937,6.75250266556474 -79.98086454301868,9.252502665564952 -79.31099156195073,11.752502665570885 -77.4808645430341,13.582629684503145 -74.98086454303389,14.252502665592452" stroke="#00f" stroke-linecap="round" stroke-linejoin="round"/><polyline fill="none" points="-77.21429986184154,-75.09421099645854 -74.7142998618356,-75.7640839775265 -72.88417284290334,-77.59421099644312 -72.21429986181403,-80.09421099644334 -72.88417284288198,-82.59421099644928 -74.71429986179861,-84.42433801538154 -77.21429986179882,-85.09421099647085 -79.71429986180476,-84.4243380154029 -81.54442688073702,-82.59421099648627 -82.21429986182633,-80.09421099648605 -81.54442688075838,-77.59421099648011 -79.71429986184175,-75.76408397754786 -77.21429986184154,-75.09421099645854" stroke="#00f" stroke-linecap="round" stroke-linejoin="round"/><polyline fill="none" points="157.26396325844675,-98.74994818698505 159.7639632584527,-99.419821168053 161.59409027738496,-101.24994818696963 162.26396325847426,-103.74994818696985 161.5940902774063,-106.24994818697579 159.7639632584897,-108.08007520590805 157.2639632584895,-108.74994818699736 154.76396325848356,-108.0800752059294 152.93383623955128,-106.24994818701278 152.26396325846198,-103.74994818701256 152.93383623952994,-101.24994818700662 154.76396325844655,-99.41982116807436 157.26396325844675,-98.74994818698505" stroke="#ffa500" stroke-linecap="round" stroke-linejoin="round"/><polyline fill="none" points="-117.09601962989738,-66.11360321612115 -114.59601962989144,-66.7834761971891 -112.76589261095918,-68.61360321610573 -112.09601962986987,-71.11360321610594 -112.76589261093783,-73.61360321611188 -114.59601962985445,-75.44373023504414 -117.09601962985467,-76.11360321613346 -119.5960196298606,-75.4437302350655 -121.42614664879287,-73.61360321614887 -122.09601962988218,-71.11360321614866 -121.42614664881424,-68.61360321614272 -119.59601962989761,-66.78347619721046 -117.0960196298974,-66.11360321612115" stroke="#00f" stroke-linecap="round" stroke-linejoin="round"/><polyline fill="none" points="64.39712474965216,-21.922516703603872 66.8971247496581,-22.59238968467182 68.72725176859038,-24.422516703588443 69.39712474967969,-26.922516703588656 68.72725176861175,-29.422516703594596 66.89712474969512,-31.252643722526862 64.39712474969491,-31.92251670361618 61.89712474968897,-31.252643722548235 60.066997730756704,-29.422516703631615 59.397124749667384,-26.922516703631402 60.06699773073533,-24.422516703625462 61.89712474965195,-22.59238968469319 64.39712474965216,-21.922516703603872" stroke="#ffa500" stroke-linecap="round" stroke-linejoin="round"/><polyline fill="none" points="177.00508242132352,-80.16139136912518 179.50508242132946,-80.83126435019312 181.33520944026174,-82.66139136910975 182.00508242135106,-85.16139136910996 181.3352094402831,-87.6613913691159 179.5050824213665,-89.49151838804818 177.0050824213663,-90.1613913691375 174.50508242136036,-89.49151838806957 172.67495540242808,-87.66139136915295 172.00508242133876,-85.16139136915274 172.6749554024067,-82.6613913691468 174.50508242132332,-80.83126435021452 177.00508242132352,-80.1613913691252" stroke="#00f" stroke-linecap="round" stroke-linejoin="round"/><polyline fill="none" points="-53.401618296952456,-57.61501636510715 -50.901618296946516,-58.28488934617509 -49.07149127801424,-60.11501636509171 -48.40161829692492,-62.615016365091925 -49.07149127799286,-65.11501636509787 -50.90161829690948,-66.94514338403015 -53.401618296909696,-67.61501636511947 -55.901618296915636,-66.94514338405153 -57.73174531584791,-65.11501636513492 -58.40161829693724,-62.61501636513471 -57.7317453158693,-60.11501636512877 -55.90161829695268,-58.28488934619649 -53.40161829695246,-57.61501636510717" stroke="#00f" stroke-linecap="round" stroke-linejoin="round"/><polyline fill="none" points="52.1601850357939,30.597210779123188 54.66018503579984,29.927337798055248 56.490312054732115,28.09721077913863 57.16018503582144,25.59721077913842 56.4903120547535,23.097210779132475 54.66018503583688,21.2670837602002 52.16018503583667,20.597210779110874 49.66018503583073,21.26708376017881 47.830058016898455,23.097210779095427 47.16018503580913,25.59721077909564 47.83005801687707,28.097210779101584 49.66018503579369,29.92733779803386 52.1601850357939,30.597210779123188" stroke="#00f" stroke-linecap="round" stroke-linejoin="round"/><polyline fill="none" points="0.05877951212933072,-66.55659416673373 2.5587795121352745,-67.22646714780167 4.38890653106755,-69.05659416671828 5.058779512156877,-71.5565941667185 4.388906531088942,-74.05659416672444 2.5587795121723262,-75.88672118565671 0.05877951217211441,-76.55659416674604 -2.4412204878338297,-75.8867211856781 -4.271347506766107,-74.05659416676149 -4.9412204878554356,-71.55659416676127 -4.271347506787501,-69.05659416675533 -2.441220487870886,-67.22646714782306 0.05877951212932642,-66.55659416673373" stroke="#ffa500" stroke-linecap="round" stroke-linejoin="round"/><polyline fill="none" points="47.78126006239625,-17.45411434939192 50.2812600624022,-18.12398733045985 52.11138708133448,-19.954114349376468 52.78126006242381,-22.45411434937668 52.11138708135588,-24.95411434938263 50.281260062439266,-26.78424136831491 47.78126006243905,-27.45411434940424 45.281260062433105,-26.784241368336307 43.451133043500825,-24.954114349419694 42.78126006241149,-22.45411434941948 43.45113304347942,-19.954114349413533 45.281260062396036,-18.123987330481253 47.78126006239625,-17.45411434939192" stroke="#ffa500" stroke-linecap="round" stroke-linejoin="round"/><polyline fill="none" points="12.402712292619439,-52.1995460260518 14.902712292625386,-52.86941900711973 16.73283931155767,-54.699546026036344 17.402712292647003,-57.19954602603656 16.732839311579074,-59.699546026042505 14.90271229266246,-61.529673044974786 12.402712292662248,-62.19954602606412 9.9027122926563,-61.52967304499619 8.072585273724018,-59.699546026079574 7.402712292634683,-57.19954602607936 8.072585273702613,-54.69954602607341 9.902712292619226,-52.86941900714113 12.402712292619439,-52.1995460260518" stroke="#ffa500" stroke-linecap="round" stroke-linejoin="round"/><polyline fill="none" points="-59.948683234577125,-73.13056985510423 -57.44868323457118,-73.80044283617215 -55.61855621563889,-75.63056985508877 -54.948683234549556,-78.13056985508898 -55.61855621561748,-80.63056985509493 -57.448683234534094,-82.46069687402722 -59.94868323453431,-83.13056985511656 -62.448683234540255,-82.46069687404864 -64.27881025347254,-80.63056985513202 -64.94868323456188,-78.13056985513181 -64.27881025349396,-75.63056985512586 -62.448683234577345,-73.80044283619357 -59.94868323457713,-73.13056985510423" stroke="#00f" stroke-linecap="round" stroke-linejoin="round"/><polyline fill="none" points="-62.55754928765572,-28.49818432177458 -60.05754928764977,-29.168057302842506 -58.22742226871748,-30.99818432175912 -57.55754928762814,-33.49818432175933 -58.22742226869607,-35.99818432176528 -60.05754928761268,-37.82831134069757 -62.55754928761289,-38.49818432178691 -65.05754928761884,-37.82831134071898 -66.88767630655113,-35.99818432180237 -67.55754928764047,-33.49818432180216 -66.88767630657254,-30.998184321796206 -65.05754928765593,-29.168057302863918 -62.55754928765572,-28.498184321774577" stroke="#00f" stroke-linecap="round" stroke-linejoin="round"/><polyline fill="none" points="-6.449260923877139,4.736120940982915 -3.9492609238711878,4.066247959914991 -2.1191339049388995,2.23612094099838 -1.4492609238495584,-0.2638790590018325 -2.1191339049174824,-2.763879059007784 -3.9492609238340926,-4.594006077940073 -6.449260923834306,-5.263879059029415 -8.949260923840257,-4.594006077961492 -10.779387942772546,-2.763879059044882 -11.449260923861889,-0.26387905904466935 -10.779387942793965,2.2361209409612828 -8.949260923877356,4.066247959893573 -6.449260923877143,4.736120940982916" stroke="#ffa500" stroke-linecap="round" stroke-linejoin="round"/><polyline fill="none" points="-76.34161390754406,-77.06035847001806 -73.8416139075381,-77.73023145108598 -72.01148688860582,-79.5603584700026 -71.34161390751648,-82.06035847000281 -72.0114868885844,-84.56035847000877 -73.84161390750101,-86.39048548894105 -76.34161390750123,-87.0603584700304 -78.84161390750718,-86.39048548896247 -80.67174092643947,-84.56035847004586 -81.34161390752881,-82.06035847004564 -80.67174092646088,-79.56035847003969 -78.84161390754427,-77.7302314511074 -76.34161390754406,-77.06035847001806" stroke="#00f" stroke-linecap="round" stroke-linejoin="round"/><polyline fill="none" points="41.036583359434296,14.419715160240841 43.53658335944025,13.749842179172921 45.366710378372545,11.919715160256313 46.03658335946189,9.4197151602561 45.366710378393975,6.919715160250145 43.53658335947737,5.08958814131785 41.036583359477156,4.419715160228502 38.5365833594712,5.08958814129642 36.70645634053891,6.919715160213027 36.03658335944956,9.41971516021324 36.70645634051748,11.919715160219196 38.53658335943408,13.749842179151493 41.036583359434296,14.419715160240843" stroke="#00f" stroke-linecap="round" stroke-linejoin="round"/><polyline fill="none" points="61.85244913292949,-9.159606984101067 64.35244913293545,-9.829479965168984 66.18257615186775,-11.65960698408559 66.8524491329571,-14.159606984085803 66.1825761518892,-16.65960698409176 64.3524491329726,-18.489734003024058 61.85244913297238,-19.15960698411341 59.35244913296643,-18.489734003045495 57.52232211403413,-16.65960698412889 56.852449132944784,-14.159606984128676 57.5223221140127,-11.65960698412272 59.35244913292931,-9.829479965190421 61.85244913292952,-9.15960698410107" stroke="#ffa500" stroke-linecap="round" stroke-linejoin="round"/><polyline fill="none" points="-97.45935560102139,-67.61955399599138 -94.95935560101543,-68.28942697705929 -93.12922858208313,-70.11955399597589 -92.45935560099377,-72.6195539959761 -93.12922858206169,-75.11955399598206 -94.95935560097828,-76.94968101491436 -97.4593556009785,-77.61955399600372 -99.95935560098445,-76.9496810149358 -101.78948261991675,-75.1195539960192 -102.45935560100611,-72.619553996019 -101.7894826199382,-70.11955399601304 -99.9593556010216,-68.28942697708074 -97.45935560102139,-67.61955399599138" stroke="#ffa500" stroke-linecap="round" stroke-linejoin="round"/><polyline fill="none" points="98.73249866508633,2.3066105275378477 101.23249866509228,1.6367375464699359 103.06262568402458,-0.1933894724466667 103.73249866511394,-2.6933894724468788 103.06262568404603,-5.193389472452837 101.23249866512943,-7.023516491385138 98.73249866512921,-7.693389472474494 96.23249866512326,-7.023516491406584 94.40237164619096,-5.193389472489982 93.7324986651016,-2.69338947248977 94.40237164616951,-0.193389472483811 96.23249866508611,1.6367375464484915 98.73249866508633,2.306610527537849" stroke="#ffa500" stroke-linecap="round" stroke-linejoin="round"/><polyline fill="none" points="-51.90716947791356,7.410959342616622 -49.4071694779076,6.741086361548713 -47.5770424589753,4.910959342632111 -46.907169477885944,2.410959342631899 -47.577042458953855,-0.0890406573740603 -49.407169477870454,-1.9191676763063639 -51.90716947787067,-2.5890406573957225 -54.40716947787663,-1.9191676763278143 -56.23729649680893,-0.0890406574112137 -56.90716947789829,2.4109593425889986 -56.23729649683038,4.910959342594959 -54.40716947791378,6.741086361527263 -51.90716947791357,7.410959342616624" stroke="#00f" stroke-linecap="round" stroke-linejoin="round"/><polyline fill="none" points="-23.19882459263892,69.23128090619433 -20.69882459263296,68.56140792512642 -18.868697573700654,66.73128090620982 -18.19882459261129,64.2312809062096 -18.8686975736792,61.731280906203644 -20.6988245925958,59.901153887271334 -23.19882459259601,59.23128090618197 -25.698824592601973,59.901153887249876 -27.52895161153428,61.731280906166475 -28.19882459262364,64.23128090616669 -27.528951611555737,66.73128090617266 -25.698824592639138,68.56140792510496 -23.198824592638925,69.23128090619433" stroke="#ffa500" stroke-linecap="round" stroke-linejoin="round"/><polyline fill="none" points="77.10347887971446,21.38974962955647 79.60347887972043,20.719876648488565 81.43360589865273,18.889749629571966 82.1034788797421,16.389749629571753 81.4336058986742,13.88974962956579 79.6034788797576,12.05962261063348 77.10347887975739,11.389749629544117 74.60347887975142,12.05962261061202 72.77335186081912,13.889749629528618 72.10347887972975,16.38974962952883 72.77335186079765,18.88974962953479 74.60347887971425,20.7198766484671 77.10347887971446,21.389749629556466" stroke="#ffa500" stroke-linecap="round" stroke-linejoin="round"/><polyline fill="none" points="177.56787920360694,-71.47705601118624 180.0678792036129,-72.14692899225413 181.8980062225452,-73.97705601117073 182.56787920363456,-76.47705601117094 181.89800622256666,-78.97705601117691 180.06787920365008,-80.80718303010923 177.56787920364988,-81.4770560111986 175.0678792036439,-80.8071830301307 173.2377521847116,-78.9770560112141 172.56787920362225,-76.47705601121389 173.23775218469015,-73.97705601120792 175.06787920360674,-72.1469289922756 177.56787920360694,-71.47705601118624" stroke="#ffa500" stroke-linecap="round" stroke-linejoin="round"/><polyline fill="none" points="-16.391020257613082,-22.522754679081984 -13.891020257607117,-23.192627660149885 -12.060893238674804,-25.02275467906648 -11.391020257585435,-27.522754679066693 -12.060893238653334,-30.02275467907266 -13.891020257569929,-31.85288169800497 -16.39102025757014,-32.52275467909434 -18.891020257576105,-31.852881698026444 -20.721147276508418,-30.02275467910985 -21.391020257597788,-27.522754679109635 -20.72114727652989,-25.02275467910367 -18.891020257613295,-23.192627660171354 -16.391020257613082,-22.52275467908198" stroke="#ffa500" stroke-linecap="round" stroke-linejoin="round"/><polyline fill="none" points="20.37053184111499,65.24663636981951 22.870531841120954,64.57676338875162 24.70065886005327,62.746636369835024 25.370531841142643,60.24663636983481 24.700658860074746,57.74663636982884 22.87053184115815,55.916509350896526 20.370531841157938,55.246636369807156 17.870531841151973,55.91650935087505 16.040404822219656,57.746636369791645 15.370531841130283,60.24663636979186 16.04040482219818,62.74663636979783 17.870531841114776,64.57676338873014 20.37053184111499,65.24663636981951" stroke="#ffa500" stroke-linecap="round" stroke-linejoin="round"/><polyline fill="none" points="10.106808970272674,20.041218764304254 12.60680897027864,19.37134578323636 14.436935989210959,17.54121876431977 15.106808970300333,15.041218764319558 14.436935989232438,12.54121876431359 12.606808970315846,10.711091745381273 10.106808970315633,10.041218764291898 7.606808970309665,10.711091745359791 5.776681951377347,12.541218764276383 5.106808970287971,15.041218764276596 5.776681951355864,17.541218764282565 7.606808970272456,19.371345783214885 10.106808970272668,20.04121876430426" stroke="#ffa500" stroke-linecap="round" stroke-linejoin="round"/><polyline fill="none" points="99.30225360018964,28.827755902859334 101.80225360019561,28.15788292179144 103.63238061912793,26.32775590287485 104.30225360021731,23.827755902874635 103.63238061914942,21.327755902868667 101.80225360023283,19.497628883936347 99.30225360023262,18.82775590284697 96.80225360022665,19.49762888391486 94.97212658129433,21.327755902831452 94.30225360020495,23.827755902831665 94.97212658127285,26.327755902837634 96.80225360018943,28.157882921769954 99.30225360018964,28.827755902859334" stroke="#ffa500" stroke-linecap="round" stroke-linejoin="round"/><polyline fill="none" points="77.78622297760211,23.015643943993418 80.28622297760808,22.345770962925528 82.1163499965404,20.515643944008936 82.78622297762978,18.015643944008723 82.1163499965619,15.515643944002752 80.28622297764531,13.685516925070429 77.7862229776451,13.015643943981047 75.28622297763913,13.685516925048935 73.4560959587068,15.515643943965525 72.78622297761741,18.01564394396574 73.4560959586853,20.51564394397171 75.28622297760188,22.345770962904034 77.7862229776021,23.015643943993418" stroke="#00f" stroke-linecap="round" stroke-linejoin="round"/><polyline fill="none" points="-61.23278260723155,21.63051092859131 -58.73278260722557,20.960637947523423 -56.90265558829325,19.130510928606835 -56.232782607203866,16.630510928606622 -56.902655588271756,14.13051092860065 -58.73278260718835,12.300383909668325 -61.23278260718856,11.630510928578941 -63.73278260719454,12.300383909646827 -65.56290962612687,14.130510928563416 -66.23278260721625,16.630510928563627 -65.56290962614837,19.1305109285696 -63.73278260723178,20.960637947501926 -61.23278260723157,21.630510928591313" stroke="#00f" stroke-linecap="round" stroke-linejoin="round"/><polyline fill="none" points="32.67134458832047,46.28561994851179 35.17134458832645,45.615746967443904 37.00147160725878,43.78561994852732 37.67134458834816,41.285619948527106 37.00147160728028,38.78561994852113 35.171344588363695,36.9554929295888 32.67134458836348,36.285619948499416 30.171344588357506,36.9554929295673 28.34121756942518,38.785619948483884 27.671344588335792,41.2856199484841 28.341217569403675,43.78561994849007 30.17134458832026,45.6157469674224 32.67134458832047,46.285619948511794" stroke="#ffa500" stroke-linecap="round" stroke-linejoin="round"/><polyline fill="none" points="30.148173420787963,52.636822101603244 32.64817342079394,51.96694912053536 34.47830043972627,50.136822101618776 35.14817342081566,47.63682210161856 34.47830043974778,45.13682210161259 32.64817342083119,43.30669508268026 30.14817342083098,42.636822101590866 27.648173420825003,43.30669508265875 25.818046401892673,45.13682210157533 25.148173420803282,47.63682210157555 25.81804640187116,50.13682210158152 27.648173420787746,51.96694912051385 30.14817342078796,52.636822101603244" stroke="#ffa500" stroke-linecap="round" stroke-linejoin="round"/><polyline fill="none" points="174.61258692247557,-53.79170491772769 177.11258692248154,-54.461577898795575 178.94271394141387,-56.29170491771216 179.61258692250325,-58.79170491771237 178.9427139414354,-61.29170491771835 177.1125869225188,-63.12183193665068 174.6125869225186,-63.79170491774007 172.11258692251263,-63.121831936672194 170.2824599035803,-61.29170491775561 169.61258692249092,-58.791704917755396 170.2824599035588,-56.29170491774942 172.11258692247537,-54.46157789881708 174.61258692247557,-53.79170491772769" stroke="#ffa500" stroke-linecap="round" stroke-linejoin="round"/><polyline fill="none" points="51.372669127565565,28.13927816536916 53.87266912757154,27.46940518430128 55.70279614650388,25.639278165384695 56.37266912759328,23.139278165384482 55.7027961465254,20.639278165378503 53.872669127608816,18.80915114644617 51.3726691276086,18.139278165356775 48.87266912760263,18.80915114642465 47.04254210867029,20.63927816534123 46.37266912758089,23.139278165341445 47.04254210864877,25.639278165347424 48.87266912756535,27.46940518427976 51.372669127565565,28.13927816536916" stroke="#ffa500" stroke-linecap="round" stroke-linejoin="round"/><polyline fill="none" points="75.98979404069155,27.218571092347613 78.48979404069753,26.548698111279737 80.31992105962986,24.718571092363156 80.98979404071926,22.218571092362943 80.31992105965139,19.718571092356964 78.48979404073481,17.888444073424626 75.9897940407346,17.218571092335228 73.48979404072861,17.888444073403104 71.65966702179627,19.718571092319685 70.98979404070687,22.2185710923199 71.65966702177474,24.718571092325877 73.48979404069132,26.548698111258215 75.98979404069154,27.218571092347613" stroke="#ffa500" stroke-linecap="round" stroke-linejoin="round"/><polyline fill="none" points="171.4984051939746,-47.67330625347733 173.99840519398057,-48.343179234545204 175.8285322129129,-50.17330625346178 176.49840519400232,-52.673306253461995 175.82853221293445,-55.17330625346798 173.99840519401786,-57.003433272400315 171.49840519401766,-57.67330625348971 168.9984051940117,-57.00343327242184 167.16827817507937,-55.17330625350526 166.49840519398995,-52.67330625350505 167.16827817505782,-50.173306253499064 168.9984051939744,-48.34317923456672 171.4984051939746,-47.673306253477314" stroke="#ffa500" stroke-linecap="round" stroke-linejoin="round"/><polyline fill="none" points="72.18376390828938,32.330956786772695 74.68376390829536,31.661083805704823 76.5138909272277,29.830956786788246 77.1837639083171,27.330956786788033 76.51389092724924,24.83095678678205 74.68376390833265,23.00082976784971 72.18376390833244,22.330956786760304 69.68376390832645,23.000829767828172 67.85363688939411,24.83095678674475 67.18376390830471,27.330956786744963 67.85363688937258,29.830956786750946 69.68376390828917,31.66108380568329 72.18376390828938,32.330956786772695" stroke="#ffa500" stroke-linecap="round" stroke-linejoin="round"/><polyline fill="none" points="106.6907632418046,49.44769524697717 109.19076324181059,48.7778222659093 111.02089026074293,46.94769524699272 111.69076324183234,44.44769524699251 111.02089026076447,41.94769524698653 109.1907632418479,40.11756822805418 106.69076324184769,39.44769524696478 104.19076324184171,40.117568228032646 102.36063622290936,41.94769524694922 101.69076324181995,44.447695246949436 102.36063622288782,46.94769524695542 104.19076324180439,48.777822265887764 106.6907632418046,49.44769524697717" stroke="#ffa500" stroke-linecap="round" stroke-linejoin="round"/><polyline fill="none" points="-54.289234346076135,-10.960939683406227 -51.78923434607015,-11.630812664474094 -49.95910732713781,-13.460939683390672 -49.289234346048396,-15.960939683390885 -49.959107327116264,-18.46093968339687 -51.78923434603284,-20.291066702329218 -54.289234346033055,-20.960939683418626 -56.78923434603904,-20.29106670235076 -58.61936136497139,-18.460939683434184 -59.2892343460608,-15.96093968343397 -58.61936136499294,-13.460939683427984 -56.78923434607636,-11.630812664495636 -54.28923434607615,-10.960939683406226" stroke="#ffa500" stroke-linecap="round" stroke-linejoin="round"/><polyline fill="none" points="102.05479879984948,53.8215021185986 104.55479879985546,53.15162913753074 106.3849258187878,51.32150211861416 107.05479879987722,48.82150211861395 106.38492581880935,46.32150211860796 104.55479879989278,44.49137509967561 102.05479879989257,43.821502118586196 99.55479879988658,44.49137509965406 97.72467178095424,46.321502118570635 97.05479879986483,48.82150211857085 97.7246717809327,51.32150211857684 99.55479879984927,53.15162913750919 102.05479879984948,53.8215021185986" stroke="#ffa500" stroke-linecap="round" stroke-linejoin="round"/><polyline fill="none" points="-68.79643925339985,-13.484373309001278 -66.29643925339387,-14.154246290069139 -64.46631223446151,-15.984373308985713 -63.7964392533721,-18.484373308985926 -64.46631223443995,-20.984373308991916 -66.29643925335652,-22.814500327924268 -68.79643925335674,-23.484373309013684 -71.29643925336272,-22.814500327945822 -73.12656627229508,-20.984373309029248 -73.79643925338449,-18.484373309029035 -73.12656627231664,-15.984373309023045 -71.29643925340007,-14.15424629009069 -68.79643925339985,-13.484373309001272" stroke="#008000" stroke-linecap="round" stroke-linejoin="round"/><polyline fill="none" points="-7.769110985416859,71.94844110717216 -5.269110985410868,71.2785681261043 -3.4389839664785127,69.44844110718773 -2.769110985389095,66.94844110718752 -3.4389839664569535,64.44844110718152 -5.269110985373526,62.618314088249164 -7.76911098537374,61.948441107159745 -10.269110985379731,62.6183140882276 -12.099238004312088,64.44844110714418 -12.769110985401507,66.94844110714439 -12.099238004333651,69.44844110715039 -10.269110985417079,71.27856812608275 -7.769110985416865,71.94844110717217" stroke="#ffa500" stroke-linecap="round" stroke-linejoin="round"/><polyline fill="none" points="61.843913066446596,55.2486424033166 64.34391306645259,54.57876942224875 66.17404008538495,52.74864240333218 66.84391306647437,50.248642403331964 66.17404008540652,47.748642403325974 64.34391306648995,45.918515384393615 61.84391306648973,45.248642403304196 59.34391306648374,45.91851538437205 57.513786047551385,47.74864240328862 56.843913066461965,50.248642403288834 57.51378604752982,52.748642403294824 59.34391306644639,54.57876942222718 61.8439130664466,55.24864240331661" stroke="#ffa500" stroke-linecap="round" stroke-linejoin="round"/><polyline fill="none" points="-43.19568752018708,35.74381217482072 -40.69568752018108,35.073939193752864 -38.86556050124872,33.24381217483629 -38.1956875201593,30.74381217483608 -38.86556050122715,28.243812174830087 -40.69568752014372,26.413685155897724 -43.195687520143935,25.743812174808298 -45.69568752014993,26.41368515587615 -47.52581453908229,28.24381217479272 -48.19568752017172,30.743812174792932 -47.52581453910386,33.243812174798926 -45.69568752018729,35.07393919373129 -43.19568752018708,35.74381217482072" stroke="#ffa500" stroke-linecap="round" stroke-linejoin="round"/><polyline fill="none" points="-122.7194565619167,-2.1099730800771566 -120.2194565619107,-2.7798460611450073 -118.38932954297834,-4.609973080061576 -117.71945656188892,-7.10997308006179 -118.38932954295677,-9.609973080067785 -120.21945656187334,-11.44010009900015 -122.71945656187356,-12.109973080089578 -125.21945656187955,-11.440100099021729 -127.04958358081191,-9.60997308010516 -127.71945656190134,-7.109973080104946 -127.04958358083348,-4.60997308009895 -125.21945656191691,-2.7798460611665847 -122.7194565619167,-2.1099730800771557" stroke="#00f" stroke-linecap="round" stroke-linejoin="round"/><polyline fill="none" points="-74.89404672837281,15.046665938913918 -72.39404672836682,14.376792957846071 -70.56391970943444,12.546665938929504 -69.89404672834502,10.04666593892929 -70.56391970941287,7.546665938923294 -72.39404672832944,5.716538919990927 -74.89404672832966,5.046665938901496 -77.39404672833565,5.716538919969343 -79.22417374726803,7.546665938885909 -79.89404672835745,10.046665938886123 -79.22417374728961,12.546665938892122 -77.39404672837304,14.37679295782449 -74.89404672837283,15.046665938913922" stroke="#00f" stroke-linecap="round" stroke-linejoin="round"/><polyline fill="none" points="-45.19474433913418,40.16563972709617 -42.694744339128185,39.49576674602832 -40.86461732019582,37.66563972711176 -40.194744339106386,35.16563972711155 -40.86461732017423,32.66563972710555 -42.694744339090796,30.83551270817318 -45.19474433909101,30.165639727083747 -47.69474433909701,30.83551270815159 -49.52487135802938,32.665639727068154 -50.19474433911881,35.16563972706837 -49.52487135805097,37.665639727074364 -47.69474433913441,39.49576674600674 -45.194744339134196,40.16563972709617" stroke="#ffa500" stroke-linecap="round" stroke-linejoin="round"/><polyline fill="none" points="-7.357992973588073,92.97855074225893 -4.857992973582072,92.30867776119109 -3.0278659546497,90.47855074227452 -2.3579929735602634,87.97855074227431 -3.0278659546281057,85.47855074226831 -4.85799297354467,83.64842372333594 -7.357992973544885,82.9785507422465 -9.857992973550887,83.64842372331434 -11.68811999248326,85.47855074223091 -12.3579929735727,87.97855074223112 -11.68811999250486,90.47855074223712 -9.857992973588296,92.30867776116949 -7.357992973588081,92.97855074225893" stroke="#ffa500" stroke-linecap="round" stroke-linejoin="round"/><polyline fill="none" points="7.113096890458749,70.85059911695072 9.613096890464751,70.18072613588288 11.443223909397126,68.35059911696632 12.113096890486565,65.85059911696611 11.443223909418725,63.350599116960105 9.613096890502163,61.52047209802773 7.113096890501948,60.85059911693829 4.613096890495946,61.52047209800613 2.7829698715635707,63.350599116922695 2.11309689047413,65.85059911692291 2.782969871541969,68.3505991169289 4.6130968904585306,70.18072613586128 7.1130968904587455,70.85059911695072" stroke="#ffa500" stroke-linecap="round" stroke-linejoin="round"/><polyline fill="none" points="27.64830864153751,22.64389674528024 30.148308641543515,21.974023764212404 31.978435660475892,20.143896745295844 32.648308641565336,17.64389674529563 31.9784356604975,15.143896745289627 30.14830864158094,13.31376972635725 27.648308641580726,12.643896745267808 25.148308641574722,13.313769726335645 23.318181622642346,15.143896745252206 22.6483086415529,17.64389674525242 23.318181622620738,20.143896745258424 25.148308641537298,21.9740237641908 27.64830864153751,22.643896745280244" stroke="#00f" stroke-linecap="round" stroke-linejoin="round"/><polyline fill="none" points="-71.94046056015749,-28.30381819771911 -69.44046056015148,-28.973691178786947 -67.6103335412191,-30.803818197703507 -66.94046056012967,-33.30381819770372 -67.6103335411975,-35.803818197709724 -69.44046056011406,-37.633945216642104 -71.94046056011427,-38.30381819773155 -74.44046056012029,-37.63394521666372 -76.27058757905266,-35.80381819774716 -76.9404605601421,-33.30381819774695 -76.27058757907426,-30.803818197740945 -74.4404605601577,-28.973691178808565 -71.94046056015749,-28.303818197719117" stroke="#00f" stroke-linecap="round" stroke-linejoin="round"/><polyline fill="none" points="-68.45472211404805,108.72512665705301 -65.95472211404204,108.05525367598517 -64.12459509510965,106.22512665706861 -63.45472211402021,103.7251266570684 -64.12459509508804,101.22512665706239 -65.9547221140046,99.39499963813 -68.45472211400481,98.72512665704055 -70.95472211401082,99.39499963810837 -72.78484913294321,101.22512665702493 -73.45472211403266,103.72512665702514 -72.78484913296484,106.22512665703115 -70.95472211404828,108.05525367596354 -68.45472211404807,108.725126657053" stroke="#ffa500" stroke-linecap="round" stroke-linejoin="round"/><polyline fill="none" points="-47.51039352510827,54.60508958154155 -45.010393525102266,53.935216600473716 -43.180266506169886,52.10508958155716 -42.51039352508044,49.605089581556946 -43.18026650614827,47.105089581550935 -45.01039352506483,45.27496256261855 -47.51039352506504,44.6050895815291 -50.01039352507105,45.27496256259693 -51.84052054400344,47.10508958151349 -52.510393525092894,49.6050895815137 -51.84052054402506,52.105089581519714 -50.010393525108505,53.9352166004521 -47.51039352510829,54.605089581541556" stroke="#ffa500" stroke-linecap="round" stroke-linejoin="round"/><polyline fill="none" points="-60.09644299970685,-31.483816135426075 -57.59644299970084,-32.1536891164939 -55.766315980768454,-33.98381613541046 -55.096442999679,-36.48381613541067 -55.766315980746825,-38.98381613541668 -57.59644299966338,-40.81394315434907 -60.096442999663594,-41.48381613543852 -62.596442999669605,-40.8139431543707 -64.42657001860199,-38.98381613545414 -65.09644299969145,-36.48381613545393 -64.42657001862362,-33.98381613544792 -62.596442999707065,-32.15368911651553 -60.09644299970685,-31.483816135426075" stroke="#f00" stroke-linecap="round" stroke-linejoin="round"/><polyline fill="none" points="36.67370605633651,6.888246221555443 39.173706056342525,6.218373240487616 41.00383307527491,4.388246221571061 41.67370605636437,1.8882462215708449 41.00383307529654,-0.6117537784351663 39.173706056379984,-2.441880797367556 36.67370605637977,-3.111753778457012 34.17370605637376,-2.441880797389186 32.34357903744137,-0.6117537784726308 31.673706056351914,1.888246221527585 32.34357903741974,4.388246221533597 34.17370605633629,6.218373240465988 36.673706056336506,6.888246221555446" stroke="#008000" stroke-linecap="round" stroke-linejoin="round"/><polyline fill="none" points="-48.237491094142165,77.50711932284331 -45.73749109413615,76.83724634177548 -43.90736407520376,75.00711932285893 -43.237491094114304,72.50711932285871 -43.90736407518213,70.0071193228527 -45.73749109409869,68.17699230392031 -48.2374910940989,67.50711932283086 -50.73749109410491,68.17699230389869 -52.567618113037305,70.00711932281524 -53.23749109412677,72.50711932281546 -52.56761811305894,75.00711932282147 -50.737491094142385,76.83724634175385 -48.23749109414217,77.50711932284331" stroke="#ffa500" stroke-linecap="round" stroke-linejoin="round"/><polyline fill="none" points="-54.83867098404143,75.73833850225218 -52.33867098403542,75.06846552118435 -50.50854396510302,73.2383385022678 -49.83867098401356,70.73833850226758 -50.50854396508138,68.23833850226157 -52.338670983997936,66.40821148332917 -54.838670983998156,65.73833850223971 -57.33867098400417,66.40821148330754 -59.16879800293656,68.2383385022241 -59.838670984026024,70.73833850222431 -59.168798002958205,73.23833850223032 -57.338670984041656,75.06846552116272 -54.83867098404144,75.73833850225219" stroke="#ffa500" stroke-linecap="round" stroke-linejoin="round"/><polyline fill="none" points="-70.1451603095771,82.7369922232659 -67.64516030957108,82.06711924219807 -65.81503329063868,80.23699222328152 -65.14516030954921,77.7369922232813 -65.81503329061704,75.2369922232753 -67.6451603095336,73.40686520434289 -70.14516030953381,72.73699222325342 -72.64516030953982,73.40686520432124 -74.47528732847222,75.23699222323779 -75.14516030956169,77.736992223238 -74.47528732849388,80.23699222324402 -72.64516030957732,82.06711924217642 -70.14516030957711,82.73699222326589" stroke="#00f" stroke-linecap="round" stroke-linejoin="round"/><polyline fill="none" points="-61.78654631284749,39.63864073489565 -59.28654631284147,38.968767753827834 -57.45641929390907,37.138640734911284 -56.7865463128196,34.63864073491107 -57.45641929388742,32.13864073490505 -59.28654631280397,30.30851371597265 -61.786546312804184,29.638640734883182 -64.2865463128102,30.308513715950998 -66.1166733317426,32.13864073486755 -66.78654631283207,34.638640734867764 -66.11667333176426,37.13864073487378 -64.2865463128477,38.96876775380618 -61.78654631284749,39.63864073489565" stroke="#00f" stroke-linecap="round" stroke-linejoin="round"/><polyline fill="none" points="-48.583213639398636,90.52173420527319 -46.08321363939262,89.85186122420538 -44.253086620460216,88.02173420528882 -43.58321363937075,85.52173420528861 -44.25308662043856,83.02173420528258 -46.08321363935511,81.19160718635018 -48.58321363935532,80.52173420526071 -51.08321363936134,81.19160718632853 -52.91334065829374,83.02173420524507 -53.58321363938321,85.52173420524528 -52.9133406583154,88.0217342052513 -51.08321363939885,89.85186122418371 -48.583213639398636,90.52173420527318" stroke="#ffa500" stroke-linecap="round" stroke-linejoin="round"/><polyline fill="none" points="61.976733419523704,14.952965721041597 64.47673341952972,14.283092739973785 66.30686043846212,12.452965721057238 66.97673341955159,9.952965721057021 66.30686043848378,7.452965721050999 64.47673341956724,5.622838702118594 61.97673341956702,4.952965721029121 59.476733419561,5.6228387020969315 57.64660640062859,7.452965721013479 56.976733419539116,9.952965721013696 57.64660640060693,12.452965721019718 59.47673341952348,14.283092739952124 61.9767334195237,14.952965721041599" stroke="#00f" stroke-linecap="round" stroke-linejoin="round"/><polyline fill="none" points="-85.28731837249384,15.20774699965773 -82.78731837248782,14.53787401858992 -80.95719135355542,12.707746999673372 -80.28731837246595,10.207746999673155 -80.95719135353376,7.707746999667132 -82.7873183724503,5.877619980734725 -85.28731837245051,5.207746999645248 -87.78731837245654,5.877619980713057 -89.61744539138894,7.707746999629602 -90.28731837247842,10.20774699962982 -89.61744539141061,12.707746999635843 -87.78731837249407,14.537874018568251 -85.28731837249386,15.20774699965773" stroke="#ffa500" stroke-linecap="round" stroke-linejoin="round"/><polyline fill="none" points="-117.97569913800893,40.32883452156024 -115.47569913800291,39.658961540492434 -113.6455721190705,37.828834521575885 -112.97569913798101,35.328834521575665 -113.64557211904882,32.82883452156964 -115.47569913796536,30.99870750263723 -117.97569913796558,30.32883452154775 -120.4756991379716,30.99870750261556 -122.30582615690402,32.8288345215321 -122.9756991379935,35.32883452153232 -122.30582615692569,37.82883452153835 -120.47569913800915,39.658961540470756 -117.97569913800893,40.32883452156024" stroke="#ffa500" stroke-linecap="round" stroke-linejoin="round"/><polyline fill="none" points="-107.8394915620807,-8.958210723430515 -105.33949156207467,-9.62808370449832 -103.50936454314225,-11.458210723414863 -102.83949156205277,-13.95821072341508 -103.50936454312058,-16.458210723421107 -105.33949156203713,-18.28833774235352 -107.83949156203734,-18.958210723443003 -110.33949156204336,-18.288337742375198 -112.16961858097578,-16.458210723458656 -112.83949156206526,-13.95821072345844 -112.16961858099747,-11.458210723452414 -110.33949156208092,-9.62808370452 -107.83949156208071,-8.958210723430517" stroke="#ffa500" stroke-linecap="round" stroke-linejoin="round"/><polyline fill="none" points="-73.61046296385058,-36.971681828749084 -71.11046296384455,-37.64155480981689 -69.28033594491214,-39.47168182873343 -68.61046296382266,-41.97168182873365 -69.28033594489045,-44.471681828739676 -71.110462963807,-46.30180884767209 -73.61046296380721,-46.971681828761575 -76.11046296381323,-46.30180884769377 -77.94058998274565,-44.47168182877723 -78.61046296383513,-41.97168182877701 -77.94058998276734,-39.47168182877098 -76.1104629638508,-37.64155480983857 -73.61046296385058,-36.971681828749084" stroke="#00f" stroke-linecap="round" stroke-linejoin="round"/><polyline fill="none" points="-76.2923452196691,43.946418125775295 -73.79234521966308,43.2765451447075 -71.96221820073066,41.446418125790956 -71.29234521964118,38.946418125790736 -71.96221820070897,36.4464181257847 -73.79234521962552,34.61629110685229 -76.29234521962573,33.9464181257628 -78.79234521963176,34.616291106830595 -80.62247223856417,36.44641812574714 -81.29234521965365,38.94641812574736 -80.62247223858586,41.44641812575339 -78.79234521966931,43.27654514468581 -76.2923452196691,43.9464181257753" stroke="#ffa500" stroke-linecap="round" stroke-linejoin="round"/><polyline fill="none" points="-81.85100299252814,-61.173553991017315 -79.35100299252211,-61.84342697208511 -77.5208759735897,-63.673553991001654 -76.85100299250021,-66.17355399100187 -77.52087597356801,-68.67355399100789 -79.35100299248455,-70.50368100994031 -81.85100299248477,-71.1735539910298 -84.35100299249079,-70.50368100996201 -86.1811300114232,-68.67355399104547 -86.8510029925127,-66.17355399104525 -86.1811300114449,-63.67355399103922 -84.35100299252836,-61.8434269721068 -81.85100299252815,-61.17355399101731" stroke="#ffa500" stroke-linecap="round" stroke-linejoin="round"/><polyline fill="none" points="-0.4610106816340246,30.919308661705063 2.038989318372007,30.249435680637266 3.8691163373044293,28.419308661720727 4.538989318393922,25.919308661720507 3.869116337326126,23.419308661714474 2.0389893184095866,21.58918164278205 -0.46101068159063185,20.919308661692558 -2.9610106815966644,21.58918164276035 -4.791137700529088,23.41930866167689 -5.461010681618582,25.919308661677107 -4.791137700550787,28.41930866168314 -2.9610106816342485,30.249435680615562 -0.46101068163403003,30.919308661705056" stroke="#ffa500" stroke-linecap="round" stroke-linejoin="round"/><polyline fill="none" points="-40.95347615552106,51.25617105583691 -38.45347615551503,50.58629807476912 -36.623349136582604,48.75617105585258 -35.95347615549311,46.25617105585236 -36.6233491365609,43.75617105584633 -38.45347615547743,41.92604403691391 -40.95347615547765,41.25617105582441 -43.453476155483685,41.9260440368922 -45.28360317441611,43.756171055808736 -45.953476155505605,46.256171055808956 -45.283603174437815,48.75617105581499 -43.45347615552128,50.58629807474742 -40.95347615552106,51.256171055836916" stroke="#00f" stroke-linecap="round" stroke-linejoin="round"/><polyline fill="none" points="-54.764864349061064,10.625187913917866 -52.26486434905503,9.955314932850076 -50.4347373301226,8.125187913933539 -49.764864349033104,5.6251879139333205 -50.434737330100894,3.1251879139272853 -52.26486434901743,1.2950608949948572 -54.76486434901765,0.625187913905358 -57.26486434902368,1.295060894973148 -59.09499136795611,3.1251879138896843 -59.76486434904561,5.625187913889903 -59.09499136797782,8.125187913895939 -57.264864349061284,9.955314932828369 -54.764864349061064,10.62518791391787" stroke="#00f" stroke-linecap="round" stroke-linejoin="round"/><polyline fill="none" points="-57.212954763990666,-14.350555479880768 -54.71295476398463,-15.020428460948557 -52.8828277450522,-16.850555479865093 -52.21295476396269,-19.350555479865314 -52.88282774503048,-21.85055547987135 -54.71295476394702,-23.68068249880378 -57.21295476394724,-24.35055547989328 -59.71295476395328,-23.680682498825494 -61.54308178288571,-21.85055547990896 -62.21295476397521,-19.350555479908742 -61.54308178290742,-16.850555479902706 -59.712954763990886,-15.020428460970274 -57.212954763990666,-14.350555479880772" stroke="#00f" stroke-linecap="round" stroke-linejoin="round"/><polyline fill="none" points="-98.12362305797092,88.81663022396863 -95.62362305796488,88.14675724290085 -93.79349603903245,86.31663022398432 -93.12362305794295,83.8166302239841 -93.79349603901073,81.31663022397807 -95.62362305792726,79.48650320504564 -98.12362305792747,78.81663022395612 -100.62362305793351,79.48650320502391 -102.45375007686594,81.31663022394044 -103.12362305795546,83.81663022394065 -102.45375007688767,86.31663022394669 -100.62362305797114,88.14675724287912 -98.12362305797093,88.81663022396863" stroke="#ffa500" stroke-linecap="round" stroke-linejoin="round"/><polyline fill="none" points="-147.06284844527855,-47.22764258177736 -144.5628484452725,-47.89751556284514 -142.73272142634005,-49.72764258176168 -142.06284844525055,-52.2276425817619 -142.73272142631834,-54.72764258176794 -144.56284844523486,-56.557769600700375 -147.0628484452351,-57.22764258178988 -149.56284844524114,-56.5577696007221 -151.3929754641736,-54.72764258180556 -152.06284844526309,-52.22764258180534 -151.3929754641953,-49.7276425817993 -149.56284844527877,-47.897515562866865 -147.06284844527855,-47.22764258177735" stroke="#ffa500" stroke-linecap="round" stroke-linejoin="round"/><polyline fill="none" points="-52.02652885157185,49.25607843884495 -49.52652885156581,48.58620545777717 -47.69640183263337,46.756078438860634 -47.02652885154386,44.25607843886041 -47.69640183261164,41.756078438854374 -49.52652885152817,39.92595141992194 -52.02652885152839,39.256078438832425 -54.52652885153443,39.92595141990021 -56.35665587046687,41.756078438816736 -57.02652885155638,44.25607843881696 -56.356655870488595,46.756078438822996 -54.52652885157207,48.58620545775543 -52.02652885157185,49.256078438844945" stroke="#ffa500" stroke-linecap="round" stroke-linejoin="round"/><polyline fill="none" points="-100.1761041133292,82.62259104585927 -97.67610411332316,81.95271806479148 -95.84597709439072,80.12259104587496 -95.17610411330121,77.62259104587474 -95.84597709436899,75.1225910458687 -97.67610411328552,73.29246402693626 -100.17610411328573,72.62259104584675 -102.67610411329177,73.29246402691453 -104.50623113222422,75.12259104583106 -105.17610411331373,77.62259104583127 -104.50623113224594,80.12259104583731 -102.67610411332942,81.95271806476975 -100.1761041133292,82.62259104585927" stroke="#ffa500" stroke-linecap="round" stroke-linejoin="round"/><polyline fill="none" points="-51.130941155346,-10.507866199449625 -48.630941155339954,-11.177739180517401 -46.80081413640751,-13.007866199433929 -46.13094115531799,-15.507866199434147 -46.80081413638577,-18.00786619944019 -48.630941155302295,-19.837993218372635 -51.130941155302516,-20.50786619946215 -53.63094115530856,-19.837993218394374 -55.46106817424101,-18.007866199477846 -56.130941155330525,-15.507866199477627 -55.46106817426275,-13.007866199471582 -53.63094115534622,-11.177739180539138 -51.130941155346,-10.507866199449621" stroke="#00f" stroke-linecap="round" stroke-linejoin="round"/><polyline fill="none" points="-109.60400376464035,-53.12642073993993 -107.10400376463431,-53.79629372100771 -105.27387674570187,-55.626420739924235 -104.60400376461236,-58.126420739924455 -105.27387674568013,-60.6264207399305 -107.10400376459665,-62.456547758862946 -109.60400376459687,-63.126420739952465 -112.10400376460291,-62.45654775888469 -113.93413078353535,-60.62642073996816 -114.60400376462488,-58.12642073996794 -113.93413078355711,-55.626420739961894 -112.10400376464058,-53.79629372102945 -109.60400376464037,-53.12642073993993" stroke="#00f" stroke-linecap="round" stroke-linejoin="round"/><polyline fill="none" points="-54.595896238965516,-63.01964346020806 -52.09589623895947,-63.68951644127583 -50.265769220027025,-65.51964346019236 -49.595896238937506,-68.01964346019257 -50.265769220005275,-70.51964346019861 -52.0958962389218,-72.34977047913105 -54.59589623892202,-73.01964346022058 -57.09589623892807,-72.34977047915281 -58.92602325786052,-70.51964346023628 -59.59589623895004,-68.01964346023607 -58.92602325788227,-65.51964346023001 -57.09589623896574,-63.68951644129756 -54.59589623896552,-63.01964346020804" stroke="#ffa500" stroke-linecap="round" stroke-linejoin="round"/><polyline fill="none" points="-84.7267254610861,22.715811721191137 -82.22672546108005,22.04593874012337 -80.3965984421476,20.215811721206844 -79.72672546105808,17.715811721206624 -80.39659844212585,15.215811721200575 -82.22672546104238,13.385684702268126 -84.72672546104259,12.715811721178602 -87.22672546104864,13.38568470224637 -89.05685247998109,15.215811721162895 -89.72672546107061,17.715811721163114 -89.05685248000285,20.21581172116916 -87.22672546108632,22.04593874010161 -84.7267254610861,22.715811721191137" stroke="#ffa500" stroke-linecap="round" stroke-linejoin="round"/><polyline fill="none" points="-100.95768728733862,73.48252762138009 -98.45768728733256,72.81265464031232 -96.62756026840012,70.98252762139579 -95.95768728731059,68.48252762139558 -96.62756026837836,65.98252762138952 -98.45768728729489,64.15240060245706 -100.9576872872951,63.48252762136754 -103.45768728730116,64.1524006024353 -105.28781430623361,65.98252762135184 -105.95768728732314,68.48252762135205 -105.28781430625537,70.9825276213581 -103.45768728733884,72.81265464029056 -100.95768728733863,73.48252762138009" stroke="#ffa500" stroke-linecap="round" stroke-linejoin="round"/><polyline fill="none" points="2.5178844362738935,20.111426614703547 5.017884436279943,19.44155363363578 6.848011455212397,17.61142661471926 7.517884436301926,15.111426614719042 6.848011455234161,12.611426614712991 5.01788443631764,10.781299595780537 2.5178844363174218,10.111426614691007 0.017884436311371044,10.781299595758771 -1.8122425826210835,12.611426614675292 -2.482115563710613,15.11142661467551 -1.8122425826428494,17.611426614681562 0.0178844362736712,19.441553633614017 2.5178844362738895,20.111426614703547" stroke="#00f" stroke-linecap="round" stroke-linejoin="round"/><polyline fill="none" points="-129.96859830452917,8.619725308729553 -127.46859830452311,7.94985232766179 -125.63847128559065,6.119725308745269 -124.96859830450113,3.6197253087450503 -125.6384712855689,1.1197253087389987 -127.46859830448541,-0.7104017101934579 -129.96859830448562,-1.3802746912829897 -132.46859830449168,-0.7104017102152279 -134.29872532342412,1.1197253087012924 -134.96859830451365,3.6197253087015113 -134.2987253234459,6.119725308707563 -132.46859830452937,7.949852327640021 -129.96859830452914,8.619725308729555" stroke="#ffa500" stroke-linecap="round" stroke-linejoin="round"/><polyline fill="none" points="-74.83675851102743,-32.39370401538785 -72.33675851102137,-33.06357699645561 -70.50663149208891,-34.89370401537213 -69.83675851099937,-37.39370401537235 -70.50663149206713,-39.893704015378404 -72.33675851098364,-41.72383103431086 -74.83675851098386,-42.393704015400395 -77.33675851098991,-41.72383103433263 -79.16688552992237,-39.89370401541611 -79.83675851101191,-37.39370401541589 -79.16688552994415,-34.89370401540984 -77.33675851102764,-33.06357699647738 -74.83675851102743,-32.39370401538785" stroke="#00f" stroke-linecap="round" stroke-linejoin="round"/><polyline fill="none" points="-147.6289086798314,-68.54791791178724 -145.12890867982534,-69.21779089285499 -143.29878166089287,-71.0479179117715 -142.62890867980335,-73.54791791177172 -143.2987816608711,-76.04791791177777 -145.12890867978763,-77.87804493071023 -147.62890867978786,-78.54791791179977 -150.1289086797939,-77.87804493073202 -151.95903569872638,-76.0479179118155 -152.6289086798159,-73.54791791181529 -151.95903569874815,-71.04791791180924 -150.12890867983162,-69.21779089287678 -147.6289086798314,-68.54791791178724" stroke="#ffa500" stroke-linecap="round" stroke-linejoin="round"/><polyline fill="none" points="-78.15332595697315,-34.68219868073485 -75.6533259569671,-35.352071661802604 -73.82319893803464,-37.18219868071912 -73.1533259569451,-39.68219868071934 -73.82319893801285,-42.18219868072539 -75.65332595692936,-44.01232569965786 -78.15332595692958,-44.6821986807474 -80.65332595693563,-44.01232569967964 -82.48345297586809,-42.18219868076313 -83.15332595695763,-39.68219868076291 -82.48345297588988,-37.182198680756855 -80.65332595697336,-35.35207166182439 -78.15332595697315,-34.68219868073485" stroke="#008000" stroke-linecap="round" stroke-linejoin="round"/><polyline fill="none" points="-52.47374919656183,24.690054568841756 -49.97374919655578,24.020181587774005 -48.143622177623314,22.19005456885749 -47.473749196533774,19.69005456885727 -48.14362217760153,17.190054568851213 -49.97374919651804,15.359927549918748 -52.47374919651826,14.690054568829204 -54.973749196524324,15.359927549896955 -56.80387621545679,17.19005456881347 -57.473749196546336,19.690054568813686 -56.80387621547858,22.190054568819743 -54.97374919656207,24.020181587752212 -52.47374919656185,24.690054568841756" stroke="#ffa500" stroke-linecap="round" stroke-linejoin="round"/><polyline fill="none" points="-6.49858689989747,-8.930000901699703 -3.9985868998914116,-9.599873882767454 -2.1684598809589435,-11.430000901683968 -1.498586899869398,-13.930000901684187 -2.168459880937148,-16.430000901690246 -3.998586899853661,-18.260127920622715 -6.49858689985388,-18.930000901712262 -8.998586899859939,-18.260127920644514 -10.828713918792408,-16.430000901728 -11.498586899881955,-13.930000901727782 -10.828713918814206,-11.430000901721723 -8.998586899897694,-9.599873882789254 -6.498586899897475,-8.930000901699707" stroke="#ffa500" stroke-linecap="round" stroke-linejoin="round"/><polyline fill="none" points="-109.90941343427903,-61.67764598502113 -107.40941343427298,-62.34751896608888 -105.5792864153405,-64.17764598500538 -104.90941343425095,-66.6776459850056 -105.57928641531869,-69.17764598501165 -107.4094134342352,-71.00777300394412 -109.90941343423542,-71.67764598503368 -112.40941343424147,-71.00777300396594 -114.23954045317394,-69.17764598504942 -114.9094134342635,-66.67764598504921 -114.23954045319576,-64.17764598504316 -112.40941343427924,-62.347518966110684 -109.90941343427903,-61.67764598502114" stroke="#ffa500" stroke-linecap="round" stroke-linejoin="round"/><polyline fill="none" points="-105.93408369257756,-36.126299972881 -103.43408369257149,-36.79617295394875 -101.60395667363902,-38.62629997286526 -100.93408369254946,-41.12629997286548 -101.6039566736172,-43.62629997287154 -103.43408369253372,-45.456426991804015 -105.93408369253393,-46.12629997289357 -108.43408369254,-45.45642699182582 -110.26421071147247,-43.626299972909315 -110.93408369256203,-41.126299972909095 -110.26421071149429,-38.626299972903034 -108.43408369257777,-36.79617295397056 -105.93408369257756,-36.12629997288101" stroke="#00f" stroke-linecap="round" stroke-linejoin="round"/><polyline fill="none" points="-74.04639057649517,-83.7490854850687 -71.5463905764891,-84.41895846613644 -69.71626355755663,-86.24908548505296 -69.04639057646708,-88.74908548505317 -69.71626355753482,-91.24908548505924 -71.54639057645133,-93.07921250399171 -74.04639057645154,-93.74908548508127 -76.54639057645761,-93.07921250401353 -78.37651759539008,-91.24908548509701 -79.04639057647964,-88.7490854850968 -78.3765175954119,-86.24908548509073 -76.54639057649538,-84.41895846615826 -74.04639057649517,-83.7490854850687" stroke="#ffa500" stroke-linecap="round" stroke-linejoin="round"/><polyline fill="none" points="-54.296926289525636,-45.514576243803226 -51.796926289519575,-46.18444922487097 -49.966799270587096,-48.014576243787474 -49.29692628949754,-50.514576243787694 -49.96679927056528,-53.014576243793755 -51.79692628948179,-54.844703262726235 -54.29692628948201,-55.51457624381579 -56.79692628948807,-54.84470326274805 -58.62705330842055,-53.01457624383154 -59.29692628951011,-50.51457624383132 -58.62705330844237,-48.01457624382525 -56.796926289525864,-46.184449224892774 -54.29692628952564,-45.51457624380321" stroke="#008000" stroke-linecap="round" stroke-linejoin="round"/><polyline fill="none" points="-74.87569127326925,-6.976538660973114 -72.37569127326319,-7.646411642040852 -70.5455642543307,-9.476538660957358 -69.87569127324115,-11.976538660957576 -70.54556425430889,-14.47653866096364 -72.37569127322539,-16.30666567989612 -74.8756912732256,-16.976538660985682 -77.37569127323167,-16.306665679917945 -79.20581829216415,-14.47653866100144 -79.87569127325372,-11.976538661001221 -79.20581829218598,-9.476538660995155 -77.37569127326948,-7.646411642062673 -74.87569127326927,-6.976538660973111" stroke="#ffa500" stroke-linecap="round" stroke-linejoin="round"/><polyline fill="none" points="-120.73170662298816,-18.759917289155446 -118.23170662298209,-19.42979027022318 -116.4015796040496,-21.259917289139683 -115.73170662296003,-23.759917289139903 -116.40157960402777,-26.25991728914597 -118.23170662294427,-28.090044308078454 -120.73170662294449,-28.75991728916802 -123.23170662295055,-28.090044308100286 -125.06183364188304,-26.259917289183782 -125.73170662297261,-23.759917289183562 -125.06183364190488,-21.259917289177494 -123.23170662298838,-19.429790270245007 -120.73170662298817,-18.759917289155442" stroke="#ffa500" stroke-linecap="round" stroke-linejoin="round"/><polyline fill="none" points="35.57805493859846,-27.30959006565098 38.07805493860453,-27.979463046718713 39.90818195753702,-29.809590065635216 40.578054938626586,-32.30959006563543 39.90818195755885,-34.8095900656415 38.07805493864235,-36.63971708457399 35.57805493864213,-37.309590065663556 33.078054938636065,-36.63971708459582 31.247927919703578,-34.80959006567932 30.57805493861401,-32.3095900656791 31.24792791968174,-29.80959006567303 33.07805493859824,-27.979463046740545 35.57805493859846,-27.309590065650976" stroke="#ffa500" stroke-linecap="round" stroke-linejoin="round"/><polyline fill="none" points="-136.3145355793596,-61.21996787802115 -133.81453557935353,-61.889840859088885 -131.98440856042103,-63.719967878005384 -131.31453557933145,-66.2199678780056 -131.98440856039917,-68.71996787801167 -133.81453557931567,-70.55009489694416 -136.3145355793159,-71.21996787803373 -138.81453557932198,-70.550094896966 -140.64466259825448,-68.7199678780495 -141.31453557934407,-66.21996787804929 -140.64466259827634,-63.719967878043214 -138.81453557935984,-61.88984085911072 -136.3145355793596,-61.21996787802115" stroke="#00f" stroke-linecap="round" stroke-linejoin="round"/><polyline fill="none" points="23.15645556568503,-24.878041646687173 25.6564555656911,-25.547914627754903 27.48658258462359,-27.378041646671406 28.156455565713163,-29.878041646671626 27.486582584645436,-32.3780416466777 25.656455565728937,-34.208168665610195 23.156455565728717,-34.87804164669977 20.65645556572264,-34.208168665632044 18.826328546790148,-32.378041646715545 18.156455565700576,-29.878041646715324 18.826328546768302,-27.37804164670925 20.6564555656848,-25.547914627776755 23.15645556568502,-24.87804164668718" stroke="#00f" stroke-linecap="round" stroke-linejoin="round"/><polyline fill="none" points="-63.74505680978608,-40.867521252143824 -61.24505680978,-41.53739423321155 -59.41492979084751,-43.36752125212805 -58.74505680975793,-45.86752125212827 -59.41492979082566,-48.367521252134345 -61.24505680974216,-50.19764827106684 -63.74505680974238,-50.867521252156415 -66.24505680974846,-50.19764827108869 -68.07518382868096,-48.36752125217219 -68.74505680977055,-45.86752125217197 -68.07518382870282,-43.36752125216589 -66.24505680978632,-41.5373942332334 -63.7450568097861,-40.867521252143824" stroke="#ffa500" stroke-linecap="round" stroke-linejoin="round"/><polyline fill="none" points="-75.40891933366868,-44.22083656608435 -72.9089193336626,-44.89070954715208 -71.0787923147301,-46.72083656606858 -70.40891933364051,-49.2208365660688 -71.07879231470824,-51.72083656607487 -72.90891933362474,-53.550963585007366 -75.40891933362497,-54.22083656609694 -77.90891933363105,-53.55096358502922 -79.73904635256355,-51.72083656611272 -80.40891933365313,-49.2208365661125 -79.7390463525854,-46.72083656610643 -77.9089193336689,-44.89070954717393 -75.40891933366868,-44.220836566084344" stroke="#ffa500" stroke-linecap="round" stroke-linejoin="round"/><polyline fill="none" points="-111.75482128918166,-24.664107653939464 -109.25482128917558,-25.333980635007187 -107.42469427024308,-27.164107653923686 -106.7548212891535,-29.664107653923907 -107.42469427022122,-32.16410765392998 -109.25482128913772,-33.99423467286248 -111.75482128913795,-34.664107653952065 -114.25482128914403,-33.994234672884346 -116.08494830807653,-32.16410765396785 -116.75482128916612,-29.664107653967626 -116.08494830809839,-27.164107653961548 -114.25482128918189,-25.333980635029047 -111.75482128918166,-24.664107653939464" stroke="#ffa500" stroke-linecap="round" stroke-linejoin="round"/><polyline fill="none" points="-74.85391182306577,-53.95333125365682 -72.35391182305969,-54.62320423472454 -70.52378480412719,-56.45333125364104 -69.8539118230376,-58.95333125364126 -70.52378480410532,-61.45333125364734 -72.35391182302182,-63.28345827257984 -74.85391182302205,-63.953331253669425 -77.35391182302813,-63.283458272601706 -79.18403884196063,-61.453331253685214 -79.85391182305021,-58.95333125368499 -79.1840388419825,-56.45333125367891 -77.353911823066,-54.62320423474641 -74.85391182306577,-53.95333125365683" stroke="#00f" stroke-linecap="round" stroke-linejoin="round"/><polyline fill="none" points="-13.721192303733542,50.68334449503274 -11.221192303727461,50.01347151396502 -9.391065284794957,48.18334449504853 -8.721192303705372,45.68334449504831 -9.391065284773088,43.18334449504223 -11.221192303689582,41.35321747610973 -13.721192303689802,40.683344495020144 -16.221192303695883,41.35321747608786 -18.051319322628387,43.183344495004356 -18.721192303717974,45.683344495004576 -18.051319322650258,48.18334449501066 -16.221192303733766,50.013471513943166 -13.721192303733545,50.683344495032756" stroke="#00f" stroke-linecap="round" stroke-linejoin="round"/><polyline fill="none" points="-53.100374003734224,4.227015428201234 -50.60037400372814,3.55714244713352 -48.770246984795634,1.727015428217026 -48.100374003706044,-0.7729845717831947 -48.770246984773756,-3.272984571789277 -50.60037400369025,-5.1031115907217846 -53.10037400369047,-5.7729845718113735 -55.60037400369655,-5.10311159074366 -57.43050102262906,-3.272984571827167 -58.10037400371865,-0.7729845718269464 -57.43050102265094,1.7270154281791363 -55.600374003734444,3.5571424471116444 -53.100374003734224,4.227015428201234" stroke="#ffa500" stroke-linecap="round" stroke-linejoin="round"/><polyline fill="none" points="-56.23460238686714,-7.145980219950356 -53.734602386861056,-7.815853201018069 -51.90447536792855,-9.645980219934561 -51.23460238683896,-12.145980219934781 -51.90447536790667,-14.645980219940864 -53.73460238682316,-16.47610723887337 -56.23460238682338,-17.14598021996296 -58.734602386829465,-16.47610723889525 -60.56472940576197,-14.645980219978759 -61.23460238685156,-12.145980219978538 -60.56472940578385,-9.645980219972454 -58.73460238686736,-7.8158532010399435 -56.23460238686714,-7.14598021995035" stroke="#008000" stroke-linecap="round" stroke-linejoin="round"/><polyline fill="none" points="-103.56939997884542,-68.26571370362676 -101.06939997883934,-68.93558668469447 -99.23927295990683,-70.76571370361096 -98.56939997881723,-73.26571370361117 -99.23927295988494,-75.76571370361725 -101.06939997880143,-77.59584072254977 -103.56939997880164,-78.26571370363936 -106.06939997880772,-77.59584072257165 -107.89952699774024,-75.76571370365517 -108.56939997882984,-73.26571370365494 -107.89952699776212,-70.76571370364886 -106.06939997884564,-68.93558668471634 -103.56939997884541,-68.26571370362674" stroke="#ffa500" stroke-linecap="round" stroke-linejoin="round"/><polyline fill="none" points="144.27716446012974,-100.56336686762602 146.77716446013582,-101.23323984869373 148.60729147906832,-103.06336686761021 149.27716446015793,-105.56336686761044 148.60729147909024,-108.06336686761652 146.77716446017374,-109.89349388654904 144.2771644601735,-110.56336686763863 141.77716446016743,-109.89349388657092 139.9470374412349,-108.06336686765444 139.2771644601453,-105.56336686765421 139.94703744121298,-103.06336686764813 141.77716446012948,-101.23323984871561 144.2771644601297,-100.56336686762602" stroke="#ffa500" stroke-linecap="round" stroke-linejoin="round"/></svg>