<?xml version="1.0" ?><!DOCTYPE svg  PUBLIC '-//W3C//DTD SVG 1.1//EN'  'http://www.w3.org/Graphics/SVG/1.1/DTD/svg11.dtd'><svg height="272.000" viewBox="-167.000 -132.000 317.000 272.000" width="317.000" xmlns="http://www.w3.org/2000/svg"><line fill="none" stroke="none" stroke-linecap="round" stroke-width="2.0" x1="0.0" x2="0.0" y1="0.0" y2="0.0"/><polygon fill="none" fill-rule="evenodd" points="0.0,0.0 0.0,0.0 0.0,0.0" stroke-linejoin="round"/><polyline fill="none" points="47.453929471686614,6.780113941666075 49.9539294716927,6.110240960598371 51.78405649062522,4.280113941681883 52.453929471714815,1.7801139416816625 51.78405649064711,-0.7198860583244251 49.953929471730625,-2.550013077256942 47.453929471730405,-3.2198860583465425 44.953929471724315,-2.5500130772788396 43.1238024527918,-0.7198860583623525 42.453929471702196,1.7801139416378682 43.1238024527699,4.280113941643957 44.953929471686386,6.110240960576475 47.45392947168661,6.780113941666078" stroke="#ffa500" stroke-linecap="round" stroke-linejoin="round"/><polyline fill="none" points="55.64818167918769,9.987910294840479 58.148181679193776,9.318037313772777 59.9783086981263,7.48791029485629 60.6481816792159,4.987910294856069 59.978308698148204,2.487910294849979 58.14818167923172,0.6577832759174591 55.6481816792315,-0.012089705172144471 53.14818167922541,0.6577832758955562 51.31805466029289,2.4879102948120417 50.64818167920328,4.987910294812262 51.31805466027098,7.487910294818352 53.148181679187466,9.318037313750873 55.64818167918769,9.987910294840479" stroke="#ffa500" stroke-linecap="round" stroke-linejoin="round"/><polyline fill="none" points="71.34300156799668,-86.87360675921643 73.84300156800278,-87.54347974028413 75.67312858693529,-89.37360675920061 76.3430015680249,-91.87360675920084 75.6731285869572,-94.37360675920694 73.84300156804072,-96.20373377813947 71.34300156804049,-96.87360675922908 68.8430015680344,-96.20373377816138 67.01287454910187,-94.3736067592449 66.34300156801226,-91.87360675924467 67.01287454907995,-89.37360675923857 68.84300156799644,-87.54347974030604 71.34300156799667,-86.87360675921643" stroke="#ffa500" stroke-linecap="round" stroke-linejoin="round"/><polyline fill="none" points="-20.54464812693354,-41.583592365842634 -18.04464812692745,-42.25346534691033 -16.214521107994923,-44.08359236582682 -15.544648126905313,-46.58359236582704 -16.21452110797301,-49.08359236583313 -18.04464812688949,-50.91371938476565 -20.54464812688971,-51.58359236585526 -23.044648126895805,-50.91371938478756 -24.87477514582833,-49.08359236587108 -25.54464812691794,-46.58359236587086 -24.874775145850247,-44.08359236586476 -23.044648126933765,-42.25346534693223 -20.544648126933545,-41.58359236584262" stroke="#ffa500" stroke-linecap="round" stroke-linejoin="round"/><polyline fill="none" points="-57.523577902246956,42.8914743382845 -55.02357790224086,42.22160135721681 -53.19345088330833,40.39147433830033 -52.52357790221872,37.89147433830011 -53.19345088328641,35.39147433829401 -55.02357790220289,33.56134731936148 -57.52357790220311,32.89147433827187 -60.023577902209205,33.56134731933956 -61.853704921141734,35.39147433825604 -62.523577902231345,37.89147433825626 -61.853704921163654,40.391474338262356 -60.023577902247176,42.221601357194885 -57.523577902246956,42.891474338284496" stroke="#00f" stroke-linecap="round" stroke-linejoin="round"/><polyline fill="none" points="-129.58408376955526,-15.315611659964905 -127.08408376954917,-15.985484641032595 -125.25395675061664,-17.815611659949077 -124.58408376952703,-20.315611659949298 -125.25395675059472,-22.815611659955394 -127.08408376951121,-24.645738678887923 -129.58408376951144,-25.315611659977538 -132.08408376951752,-24.645738678909847 -133.91421078845005,-22.81561165999337 -134.58408376953966,-20.31561165999315 -133.91421078847196,-17.815611659987052 -132.0840837695555,-15.985484641054521 -129.58408376955526,-15.315611659964905" stroke="#00f" stroke-linecap="round" stroke-linejoin="round"/><polyline fill="none" points="91.29610648937833,-67.8180142302042 93.79610648938443,-68.48788721127188 95.62623350831696,-70.31801423018837 96.29610648940657,-72.8180142301886 95.62623350833888,-75.31801423019469 93.7961064894224,-77.14814124912722 91.29610648942217,-77.81801423021683 88.79610648941608,-77.14814124914915 86.96597947048355,-75.31801423023266 86.29610648939392,-72.81801423023244 86.9659794704616,-70.31801423022634 88.79610648937808,-68.48788721129381 91.2961064893783,-67.81801423020418" stroke="#ffa500" stroke-linecap="round" stroke-linejoin="round"/><polyline fill="none" points="72.42165083168092,-111.45077680988527 74.92165083168702,-112.12064979095295 76.75177785061955,-113.95077680986944 77.42165083170917,-116.45077680986967 76.75177785064149,-118.95077680987576 74.92165083172502,-120.78090382880829 72.42165083172479,-121.45077680989792 69.9216508317187,-120.78090382883023 68.09152381278616,-118.95077680991376 67.42165083169654,-116.45077680991353 68.09152381276422,-113.95077680990744 69.9216508316807,-112.12064979097491 72.42165083168092,-111.45077680988528" stroke="#ffa500" stroke-linecap="round" stroke-linejoin="round"/><polyline fill="none" points="-132.68338921037872,-18.131739007118544 -130.1833892103726,-18.801611988186227 -128.35326219144008,-20.631739007102702 -127.68338921035046,-23.131739007102922 -128.35326219141814,-25.631739007109022 -130.1833892103346,-27.46186602604156 -132.68338921033484,-28.13173900713118 -135.18338921034095,-27.461866026063497 -137.01351622927348,-25.631739007147022 -137.6833892103631,-23.131739007146802 -137.01351622929542,-20.631739007140702 -135.18338921037895,-18.801611988208165 -132.68338921037872,-18.13173900711854" stroke="#00f" stroke-linecap="round" stroke-linejoin="round"/><polyline fill="none" points="-61.78447493636911,78.6403121898171 -59.28447493636301,77.97043920874941 -57.454347917430475,76.14031218983294 -56.78447493634085,73.64031218983271 -57.45434791740853,71.14031218982662 -59.28447493632501,69.31018517089407 -61.78447493632523,68.64031218980445 -64.28447493633134,69.31018517087213 -66.11460195526388,71.1403121897886 -66.7844749363535,73.64031218978883 -66.11460195528582,76.14031218979493 -64.28447493636935,77.97043920872747 -61.78447493636913,78.6403121898171" stroke="#00f" stroke-linecap="round" stroke-linejoin="round"/><polyline fill="none" points="133.30149100892976,70.62769567274721 135.80149100893587,69.95782269167952 137.6316180278684,68.12769567276305 138.30149100895804,65.62769567276283 137.63161802789037,63.12769567275672 135.8014910089739,61.29756865382418 133.30149100897367,60.62769567273455 130.80149100896756,61.29756865380223 128.97136399003503,63.1276956727187 128.3014910089454,65.62769567271893 128.97136399001306,68.12769567272503 130.80149100892953,69.95782269165757 133.30149100892976,70.6276956727472" stroke="#ffa500" stroke-linecap="round" stroke-linejoin="round"/><polyline fill="none" points="95.33242337048556,2.200036620328103 97.83242337049165,1.5301636392604252 99.6625503894242,-0.29996337965604747 100.33242337051382,-2.799963379656268 99.66255038944614,-5.299963379662371 97.83242337052967,-7.1300903985949144 95.33242337052944,-7.799963379684546 92.83242337052334,-7.130090398616869 91.0022963515908,-5.299963379700397 90.33242337050117,-2.7999633797001766 91.00229635156884,-0.2999633796940726 92.83242337048532,1.5301636392384723 95.33242337048554,2.2000366203281048" stroke="#ffa500" stroke-linecap="round" stroke-linejoin="round"/><polyline fill="none" points="98.3453543701543,-79.64687177438746 100.84535437016041,-80.31674475545513 102.67548138909295,-82.1468717743716 103.34535437018259,-84.64687177437183 102.67548138911492,-87.14687177437794 100.84535437019845,-88.97699879331049 98.34535437019822,-89.64687177440013 95.84535437019211,-88.97699879333246 94.01522735125957,-87.14687177441598 93.34535437016993,-84.64687177441576 94.0152273512376,-82.14687177440965 95.84535437015407,-80.3167447554771 98.3453543701543,-79.64687177438746" stroke="#ffa500" stroke-linecap="round" stroke-linejoin="round"/><polyline fill="none" points="-31.148613772000054,16.838467355674616 -28.648613771993947,16.168594374606943 -26.8184867530614,14.338467355690474 -26.148613771971764,11.838467355690252 -26.818486753039437,9.338467355684145 -28.648613771955908,7.508340336751596 -31.14861377195613,6.838467355661959 -33.64861377196223,7.508340336729631 -35.47874079089478,9.3384673556461 -36.14861377198442,11.838467355646323 -35.47874079091675,14.33846735565243 -33.64861377200028,16.16859437458498 -31.14861377200006,16.83846735567462" stroke="#00f" stroke-linecap="round" stroke-linejoin="round"/><polyline fill="none" points="-15.34028955142427,121.43292495959032 -12.840289551418163,120.76305197852265 -11.010162532485612,118.93292495960618 -10.340289551395973,116.43292495960596 -11.010162532463642,113.93292495959984 -12.840289551380112,112.10279794066729 -15.340289551380334,111.43292495957765 -17.84028955138644,112.10279794064532 -19.67041657031899,113.93292495956179 -20.34028955140863,116.43292495956202 -19.67041657034096,118.93292495956813 -17.840289551424494,120.76305197850068 -15.340289551424272,121.43292495959032" stroke="#ffa500" stroke-linecap="round" stroke-linejoin="round"/><polyline fill="none" points="64.14594831912791,-98.45762660394702 66.64594831913402,-99.12749958501469 68.47607533806658,-100.95762660393116 69.14594831915622,-103.45762660393139 68.47607533808855,-105.9576266039375 66.64594831917208,-107.78775362287006 64.14594831917185,-108.4576266039597 61.64594831916574,-107.78775362289203 59.81582130023318,-105.95762660397556 59.14594831914354,-103.45762660397533 59.81582130021121,-100.95762660396922 61.645948319127676,-99.12749958503666 64.1459483191279,-98.45762660394702" stroke="#ffa500" stroke-linecap="round" stroke-linejoin="round"/><polyline fill="none" points="-92.70073587394421,22.645212064473967 -90.2007358739381,21.9753390834063 -88.37060885500554,20.145212064489833 -87.7007358739159,17.645212064489613 -88.37060885498357,15.145212064483502 -90.20073587390004,13.315085045550946 -92.70073587390027,12.645212064461301 -95.20073587390638,13.315085045528967 -97.03086289283894,15.145212064445433 -97.70073587392858,17.645212064445655 -97.03086289286091,20.145212064451766 -95.20073587394444,21.975339083384323 -92.70073587394421,22.64521206447397" stroke="#008000" stroke-linecap="round" stroke-linejoin="round"/><polyline fill="none" points="77.06635932201603,-26.769810977749156 79.56635932202214,-27.43968395881682 81.3964863409547,-29.269810977733282 82.06635932204435,-31.769810977733506 81.39648634097668,-34.26981097773962 79.56635932206021,-36.099937996672175 77.06635932205998,-36.76981097776182 74.56635932205387,-36.09993799669416 72.73623230312131,-34.269810977777695 72.06635932203166,-31.769810977777475 72.73623230309931,-29.26981097777136 74.56635932201578,-27.4396839588388 77.06635932201601,-26.76981097774915" stroke="#ffa500" stroke-linecap="round" stroke-linejoin="round"/><polyline fill="none" points="-99.98958551867771,-11.643422668509341 -97.4895855186716,-12.313295649577004 -95.65945849973905,-14.143422668493468 -94.98958551864939,-16.64342266849369 -95.65945849971705,-19.143422668499806 -97.4895855186335,-20.973549687432367 -99.98958551863373,-21.643422668522017 -102.48958551863984,-20.97354968745436 -104.3197125375724,-19.143422668537895 -104.98958551866205,-16.643422668537674 -104.3197125375944,-14.14342266853156 -102.48958551867794,-12.313295649598997 -99.98958551867771,-11.643422668509345" stroke="#00f" stroke-linecap="round" stroke-linejoin="round"/><polyline fill="none" points="51.61820552121377,-92.67075748710097 54.118205521219885,-93.34063046816863 55.94833254015245,-95.17075748708508 56.6182055212421,-97.67075748708531 55.94833254017445,-100.17075748709142 54.118205521257984,-102.00088450602398 51.618205521257764,-102.67075748711363 49.118205521251646,-102.00088450604598 47.28807850231908,-100.17075748712952 46.61820552122943,-97.6707574871293 47.28807850229708,-95.17075748712318 49.11820552121355,-93.34063046819061 51.61820552121377,-92.67075748710096" stroke="#00f" stroke-linecap="round" stroke-linejoin="round"/><polyline fill="none" points="111.87768172769402,-28.741889398102437 114.37768172770014,-29.411762379170092 116.20780874663271,-31.241889398086553 116.87768172772236,-33.74188939808678 116.2078087466547,-36.241889398092894 114.37768172773825,-38.07201641702546 111.87768172773802,-38.74188939811511 109.3776817277319,-38.07201641704746 107.54755470879932,-36.24188939813099 106.87768172770967,-33.74188939813077 107.54755470877733,-31.241889398124655 109.37768172769378,-29.411762379192087 111.87768172769401,-28.74188939810243" stroke="#ffa500" stroke-linecap="round" stroke-linejoin="round"/><polyline fill="none" points="82.44321119327836,-7.336170215356788 84.94321119328448,-8.006043196424441 86.77333821221706,-9.836170215340902 87.44321119330671,-12.336170215341124 86.77333821223905,-14.836170215347243 84.9432111933226,-16.666297234279813 82.44321119332237,-17.336170215369474 79.94321119331624,-16.666297234301823 78.11308417438367,-14.836170215385362 77.44321119329402,-12.336170215385138 78.11308417436167,-9.836170215379019 79.94321119327813,-8.006043196446448 82.44321119327836,-7.336170215356788" stroke="#ffa500" stroke-linecap="round" stroke-linejoin="round"/><polyline fill="none" points="74.30722285128408,-79.22577488861302 76.8072228512902,-79.89564786968067 78.63734987022278,-81.72577488859713 79.30722285131245,-84.22577488859736 78.63734987024479,-86.72577488860348 76.80722285132833,-88.55590190753605 74.3072228513281,-89.22577488862572 71.80722285132198,-88.55590190755807 69.97709583238941,-86.72577488864161 69.30722285129974,-84.22577488864138 69.9770958323674,-81.72577488863526 71.80722285128385,-79.89564786970269 74.30722285128408,-79.22577488861302" stroke="#ffa500" stroke-linecap="round" stroke-linejoin="round"/><polyline fill="none" points="25.402573310513965,74.07159741933317 27.902573310520086,73.40172443826552 29.732700329452662,71.57159741934906 30.402573310542326,69.07159741934883 29.732700329474678,66.57159741934271 27.90257331055822,64.74147040041014 25.402573310557997,64.07159741932047 22.902573310551873,64.74147040038812 21.072446291619297,66.57159741930458 20.402573310529633,69.07159741930481 21.07244629159728,71.57159741931093 22.902573310513738,73.4017244382435 25.40257331051396,74.07159741933317" stroke="#00f" stroke-linecap="round" stroke-linejoin="round"/><polyline fill="none" points="79.18852500895619,-39.948688991093974 81.68852500896232,-40.61856197216162 83.51865202789489,-42.44868899107808 84.18852500898456,-44.9486889910783 83.51865202791691,-47.448688991084424 81.68852500900046,-49.278816010017 79.18852500900023,-49.94868899110667 76.6885250089941,-49.27881601003902 74.85839799006153,-47.448688991122566 74.18852500897187,-44.94868899112234 74.8583979900395,-42.448688991116214 76.68852500895596,-40.618561972183635 79.18852500895619,-39.94868899109397" stroke="#00f" stroke-linecap="round" stroke-linejoin="round"/><polyline fill="none" points="106.61036379793028,-50.2657391443753 109.1103637979364,-50.93561212544295 110.94049081686899,-52.76573914435941 111.61036379795866,-55.265739144359635 110.94049081689101,-57.76573914436576 109.11036379797456,-59.59586616329834 106.61036379797433,-60.26573914438801 104.1103637979682,-59.595866163320366 102.28023677903562,-57.76573914440391 101.61036379794595,-55.26573914440368 102.28023677901359,-52.76573914439756 104.11036379793005,-50.93561212546498 106.61036379793028,-50.2657391443753" stroke="#00f" stroke-linecap="round" stroke-linejoin="round"/><polyline fill="none" points="75.34590767720235,41.90423841873067 77.84590767720847,41.23436543766303 79.67603469614106,39.40423841874657 80.34590767723073,36.904238418746345 79.67603469616309,34.40423841874022 77.84590767724663,32.574111399807634 75.3459076772464,31.90423841871796 72.84590767724028,32.5741113997856 71.01578065830769,34.40423841870206 70.34590767721802,36.904238418702285 71.01578065828566,39.40423841870842 72.84590767720212,41.234365437641 75.34590767720235,41.90423841873068" stroke="#ffa500" stroke-linecap="round" stroke-linejoin="round"/><polyline fill="none" points="99.27314761060097,22.42295662990153 101.7731476106071,21.75308364883389 103.60327462953968,19.922956629917437 104.27314761062937,17.422956629917213 103.60327462956172,14.922956629911084 101.77314761064527,13.0928296109785 99.27314761064504,12.422956629888823 96.77314761063892,13.092829610956462 94.94302059170633,14.922956629872916 94.27314761061665,17.42295662987314 94.94302059168429,19.922956629879273 96.77314761060074,21.75308364881186 99.27314761060097,22.422956629901538" stroke="#ffa500" stroke-linecap="round" stroke-linejoin="round"/><polyline fill="none" points="19.907535754641874,-29.443584995800883 22.407535754648006,-30.11345797686852 24.237662773580592,-31.943584995784974 24.90753575467027,-34.4435849957852 24.237662773602633,-36.94358499579133 22.40753575468618,-38.77371201472392 19.907535754685956,-39.4435849958136 17.407535754679824,-38.77371201474597 15.577408735747236,-36.94358499582952 14.907535754657555,-34.44358499582929 15.577408735725191,-31.94358499582316 17.407535754641643,-30.11345797689057 19.907535754641867,-29.443584995800887" stroke="#ffa500" stroke-linecap="round" stroke-linejoin="round"/><polyline fill="none" points="80.79691995469625,0.6785686793194259 83.29691995470239,0.008695698251790063 85.12704697363498,-1.8214313206646608 85.79691995472466,-4.321431320664885 85.12704697365702,-6.821431320671017 83.29691995474056,-8.651558339603607 80.79691995474033,-9.32143132069329 78.2969199547342,-8.651558339625653 76.4667929358016,-6.821431320709204 75.79691995471192,-4.321431320708979 76.46679293577957,-1.8214313207028465 78.29691995469602,0.008695698229743698 80.79691995469625,0.6785686793194265" stroke="#ffa500" stroke-linecap="round" stroke-linejoin="round"/><polyline fill="none" points="-76.92828293620673,55.0344524879171 -74.42828293620059,54.364579506849466 -72.598155917268,52.53445248793302 -71.92828293617832,50.03445248793279 -72.59815591724595,47.53445248792666 -74.42828293616239,45.704325468994064 -76.92828293616262,45.03445248790438 -79.42828293616876,45.704325468972016 -81.25840995510134,47.534452487888466 -81.92828293619102,50.03445248788869 -81.2584099551234,52.534452487894825 -79.42828293620695,54.36457950682742 -76.92828293620673,55.03445248791711" stroke="#ffa500" stroke-linecap="round" stroke-linejoin="round"/><polyline fill="none" points="31.519581144747153,-37.185377801740934 34.01958114475329,-37.85525078280857 35.84970816368588,-39.68537780172502 36.51958114477557,-42.185377801725245 35.84970816370794,-44.68537780173138 34.01958114479149,-46.51550482066397 31.519581144791264,-47.18537780175366 29.01958114478513,-46.51550482068603 27.189454125852535,-44.68537780176958 26.519581144762846,-42.185377801769356 27.189454125830476,-39.685377801763224 29.019581144746923,-37.85525078283063 31.519581144747146,-37.18537780174094" stroke="#00f" stroke-linecap="round" stroke-linejoin="round"/><polyline fill="none" points="-118.54937429219785,11.859011469932046 -116.04937429219171,11.189138488864417 -114.21924727325911,9.359011469947971 -113.54937429216942,6.859011469947747 -114.21924727323704,4.359011469941612 -116.04937429215349,2.5288844510090147 -118.54937429215371,1.859011469919324 -121.04937429215985,2.528884450986951 -122.87950131109245,4.359011469903397 -123.54937429218215,6.8590114699036215 -122.87950131111452,9.359011469909758 -121.04937429219808,11.189138488842357 -118.54937429219785,11.85901146993205" stroke="#ffa500" stroke-linecap="round" stroke-linejoin="round"/><polyline fill="none" points="-96.59412622393255,61.22083132913784 -94.09412622392641,60.55095834807021 -92.26399920499381,58.72083132915377 -91.59412622390411,56.22083132915354 -92.26399920497174,53.7208313291474 -94.09412622388818,51.8907043102148 -96.59412622388841,51.220831329125105 -99.09412622389455,51.89070431019273 -100.92425324282715,53.720831329109174 -101.59412622391685,56.2208313291094 -100.92425324284922,58.72083132911554 -99.09412622393278,60.55095834804814 -96.59412622393255,61.22083132913784" stroke="#ffa500" stroke-linecap="round" stroke-linejoin="round"/><polyline fill="none" points="118.22620307457143,93.68653368735296 120.72620307457757,93.01666070628534 122.55633009351017,91.1865336873689 123.22620307459987,88.68653368736867 122.55633009353224,86.18653368736253 120.7262030746158,84.35640666842993 118.22620307461557,83.68653368734023 115.72620307460943,84.35640666840786 113.89607605567683,86.1865336873243 113.22620307458713,88.68653368732453 113.89607605565476,91.18653368733067 115.7262030745712,93.01666070626327 118.22620307457143,93.68653368735296" stroke="#ffa500" stroke-linecap="round" stroke-linejoin="round"/><polyline fill="none" points="-97.81428243074622,44.72082156377006 -95.31428243074008,44.05094858270244 -93.48415541180748,42.220821563786 -92.81428243071778,39.72082156378577 -93.48415541178541,37.22082156377963 -95.31428243070185,35.39069454484703 -97.81428243070208,34.72082156375733 -100.31428243070822,35.39069454482495 -102.14440944964082,37.220821563741396 -102.81428243073051,39.72082156374162 -102.14440944966289,42.22082156374776 -100.31428243074645,44.05094858268037 -97.81428243074622,44.720821563770066" stroke="#f00" stroke-linecap="round" stroke-linejoin="round"/><polyline fill="none" points="39.37991628603697,-68.46781254111406 41.87991628604311,-69.13768552218168 43.71004330497572,-70.96781254109813 44.379916286065416,-73.46781254109835 43.7100433049978,-75.9678125411045 41.879916286081354,-77.7979395600371 39.37991628608113,-78.46781254112679 36.87991628607499,-77.79793956005918 35.04978926714238,-75.96781254114273 34.379916286052676,-73.46781254114251 35.049789267120296,-70.96781254113637 36.87991628603674,-69.13768552220377 39.379916286036966,-68.46781254111407" stroke="#ffa500" stroke-linecap="round" stroke-linejoin="round"/><polyline fill="none" points="103.53966264701658,-51.44697451442265 106.03966264702272,-52.11684749549027 107.86978966595532,-53.94697451440671 108.53966264704502,-56.44697451440694 107.86978966597741,-58.946974514413085 106.03966264706096,-60.77710153334569 103.53966264706074,-61.4469745144354 101.0396626470546,-60.777101533367784 99.20953562812198,-58.94697451445134 98.53966264703227,-56.446974514451114 99.20953562809989,-53.94697451444497 101.03966264701633,-52.11684749551236 103.53966264701656,-51.44697451442266" stroke="#ffa500" stroke-linecap="round" stroke-linejoin="round"/><polyline fill="none" points="132.0253549175809,-18.343172537530357 134.52535491758704,-19.013045518597973 136.35548193651965,-20.843172537514413 137.02535491760935,-23.343172537514636 136.35548193654174,-25.84317253752078 134.5253549176253,-27.67329955645339 132.02535491762507,-28.343172537543097 129.52535491761893,-27.673299556475484 127.69522789868631,-25.843172537559045 127.0253549175966,-23.34317253755882 127.69522789866421,-20.843172537552675 129.52535491758064,-19.013045518620064 132.02535491758087,-18.343172537530357" stroke="#ffa500" stroke-linecap="round" stroke-linejoin="round"/><polyline fill="none" points="-76.96746932211322,50.23730468696305 -74.46746932210708,49.56743170589544 -72.63734230317446,47.737304686979 -71.96746932208475,45.237304686978774 -72.63734230315237,42.73730468697263 -74.46746932206881,40.90717766804001 -76.96746932206904,40.2373046869503 -79.46746932207517,40.907177668017916 -81.29759634100779,42.73730468693435 -81.9674693220975,45.23730468693458 -81.29759634102989,47.737304686940725 -79.46746932211344,49.56743170587334 -76.96746932211322,50.23730468696305" stroke="#00f" stroke-linecap="round" stroke-linejoin="round"/><polyline fill="none" points="79.60695471750161,-53.99655507749785 82.10695471750776,-54.666428058565465 83.93708173644038,-56.4965550774819 84.60695471753009,-58.99655507748213 83.93708173646247,-61.496555077488274 82.10695471754605,-63.32668209642089 79.60695471754582,-63.9965550775106 77.10695471753967,-63.326682096442994 75.27682769860705,-61.49655507752656 74.60695471751734,-58.99655507752633 75.27682769858495,-56.496555077520185 77.10695471750138,-54.66642805858757 79.60695471750161,-53.99655507749786" stroke="#ffa500" stroke-linecap="round" stroke-linejoin="round"/><polyline fill="none" points="105.11865736944256,13.567087963949085 107.61865736944871,12.897214982881477 109.44878438838133,11.067087963965044 110.11865736947104,8.56708796396482 109.44878438840342,6.067087963958672 107.618657369487,4.236960945026054 105.11865736948677,3.567087963936339 102.61865736948062,4.236960945003945 100.788530350548,6.067087963920379 100.11865736945829,8.567087963920603 100.7885303505259,11.067087963926753 102.61865736944233,12.89721498285937 105.11865736944256,13.567087963949087" stroke="#ffa500" stroke-linecap="round" stroke-linejoin="round"/><polyline fill="none" points="116.97514366373,103.75313021206746 119.47514366373615,103.08325723099986 121.30527068266876,101.25313021208343 121.97514366375847,98.7531302120832 121.30527068269087,96.25313021207705 119.47514366377445,94.42300319314444 116.97514366377422,93.75313021205473 114.47514366376807,94.42300319312233 112.64501664483545,96.25313021203876 111.97514366374574,98.75313021203898 112.64501664481334,101.25313021204514 114.47514366372977,103.08325723097775 116.97514366373,103.75313021206748" stroke="#ffa500" stroke-linecap="round" stroke-linejoin="round"/><polyline fill="none" points="30.492660724755478,127.54223749368529 32.99266072476163,126.8723645126177 34.82278774369425,125.04223749370126 35.49266072478397,122.54223749370104 34.82278774371636,120.04223749369488 32.99266072479993,118.21211047476226 30.49266072479971,117.54223749367253 27.99266072479356,118.21211047474013 26.162533705860938,120.04223749365656 25.492660724771216,122.54223749365678 26.16253370583882,125.04223749366294 27.99266072475525,126.87236451259557 30.492660724755474,127.54223749368529" stroke="#ffa500" stroke-linecap="round" stroke-linejoin="round"/><polyline fill="none" points="-77.79249410967145,-11.650686923891314 -75.2924941096653,-12.320559904958914 -73.46236709073267,-14.150686923875345 -72.79249410964294,-16.65068692387557 -73.46236709071054,-19.15068692388172 -75.29249410962697,-20.980813942814347 -77.7924941096272,-21.65068692390407 -80.29249410963335,-20.98081394283647 -82.12262112856598,-19.15068692392004 -82.7924941096557,-16.650686923919817 -82.12262112858811,-14.150686923913664 -80.29249410967168,-12.320559904981039 -77.79249410967145,-11.650686923891314" stroke="#00f" stroke-linecap="round" stroke-linejoin="round"/><polyline fill="none" points="-132.4349631923025,40.44263609293704 -129.93496319229632,39.772763111869445 -128.1048361733637,37.942636092953016 -127.43496319227398,35.44263609295279 -128.10483617334157,32.942636092946636 -129.934963192258,31.11250907401401 -132.43496319225824,30.442636092924285 -134.9349631922644,31.112509073991884 -136.76509021119702,32.942636092908316 -137.43496319228674,35.44263609290854 -136.76509021121916,37.9426360929147 -134.93496319230275,39.772763111847325 -132.43496319230252,40.44263609293705" stroke="#00f" stroke-linecap="round" stroke-linejoin="round"/><polyline fill="none" points="107.16086603376854,118.17975621199668 109.6608660337747,117.50988323092908 111.49099305270732,115.67975621201265 112.16086603379705,113.17975621201242 111.49099305272945,110.67975621200627 109.66086603381302,108.84962919307364 107.1608660338128,108.17975621198391 104.66086603380664,108.84962919305151 102.83073901487401,110.67975621196794 102.16086603378429,113.17975621196817 102.83073901485189,115.67975621197432 104.66086603376831,117.50988323090695 107.16086603376854,118.17975621199668" stroke="#ffa500" stroke-linecap="round" stroke-linejoin="round"/><polyline fill="none" points="-19.43080258846454,81.73568338342258 -16.930802588458384,81.06581040235498 -15.100675569525752,79.23568338343856 -14.430802588436022,76.73568338343833 -15.100675569503615,74.23568338343217 -16.93080258842004,72.40555636449955 -19.430802588420264,71.73568338340982 -21.93080258842642,72.40555636447742 -23.760929607359053,74.23568338339385 -24.430802588448785,76.73568338339408 -23.760929607381193,79.23568338340023 -21.93080258846477,81.06581040233286 -19.430802588464545,81.7356833834226" stroke="#ffa500" stroke-linecap="round" stroke-linejoin="round"/><polyline fill="none" points="-67.16838865355882,-15.304437256846949 -64.66838865355267,-15.97431023791454 -62.83826163462003,-17.804437256830965 -62.1683886535303,-20.30443725683119 -62.83826163459789,-22.804437256837346 -64.66838865351431,-24.634564275769982 -67.16838865351454,-25.304437256859714 -69.6683886535207,-24.634564275792123 -71.49851567245332,-22.804437256875698 -72.16838865354306,-20.304437256875474 -71.49851567247548,-17.804437256869313 -69.66838865355905,-15.974310237936677 -67.16838865355882,-15.304437256846942" stroke="#00f" stroke-linecap="round" stroke-linejoin="round"/><polyline fill="none" points="87.09216727357285,1.252689537707076 89.59216727357901,0.5828165566394871 91.42229429251165,-1.2473104622769364 92.09216727360139,-3.747310462277161 91.4222942925338,-6.24731046228332 89.59216727361738,-8.077437481215956 87.09216727361715,-8.747310462305693 84.592167273611,-8.077437481238105 82.76204025467835,-6.247310462321682 82.09216727358861,-3.7473104623214573 82.7620402546562,-1.2473104623152973 84.59216727357263,0.5828165566173407 87.09216727357285,1.2526895377070784" stroke="#ffa500" stroke-linecap="round" stroke-linejoin="round"/><polyline fill="none" points="55.03843659086575,35.60452502833121 57.53843659087191,34.934652047263626 59.368563609804546,33.104525028347204 60.038436590894285,30.604525028346977 59.3685636098267,28.104525028340817 57.53843659091028,26.274398009408177 55.03843659091005,25.604525028318438 52.53843659090389,26.274398009386022 50.70830957197125,28.104525028302444 50.03843659088151,30.604525028302668 50.708309571949094,33.10452502830883 52.538436590865516,34.93465204724147 55.03843659086574,35.60452502833121" stroke="#00f" stroke-linecap="round" stroke-linejoin="round"/><polyline fill="none" points="42.07324948045308,91.92203541065238 44.57324948045924,91.2521624295848 46.40337649939188,89.42203541066837 47.07324948048162,86.92203541066814 46.40337649941404,84.42203541066198 44.573249480497616,82.59190839172933 42.07324948049739,81.9220354106396 39.57324948049123,82.59190839170718 37.743122461558585,84.4220354106236 37.073249480468846,86.92203541062382 37.74312246153643,89.42203541062999 39.57324948045285,91.25216242956263 42.07324948045308,91.92203541065237" stroke="#ffa500" stroke-linecap="round" stroke-linejoin="round"/><polyline fill="none" points="-55.659598669282346,8.606004234201695 -53.159598669276185,7.936131253134112 -51.32947165034354,6.106004234217693 -50.659598669253796,3.606004234217468 -51.32947165032138,1.106004234211305 -53.1595986692378,-0.7241227847213381 -55.65959866923803,-1.393995765811082 -58.15959866924419,-0.7241227847435007 -59.98972568817683,1.1060042341729184 -60.65959866926658,3.606004234173143 -59.989725688199,6.106004234179307 -58.15959866928258,7.936131253111951 -55.65959866928235,8.606004234201695" stroke="#ffa500" stroke-linecap="round" stroke-linejoin="round"/><polyline fill="none" points="7.17882221437911,66.18721365529667 9.678822214385274,65.51734067422909 11.508949233317919,63.68721365531267 12.178822214407665,61.18721365531244 11.508949233340086,58.68721365530628 9.678822214423668,56.85708663637364 7.178822214423444,56.18721365528389 4.678822214417279,56.85708663635147 2.848695195484633,58.68721365526789 2.1788222143948865,61.18721365526812 2.8486951954624655,63.687213655274284 4.678822214378883,65.51734067420693 7.178822214379108,66.18721365529669" stroke="#ffa500" stroke-linecap="round" stroke-linejoin="round"/><polyline fill="none" points="19.26729012731991,65.42555599984365 21.767290127326074,64.75568301877607 23.59741714625872,62.925555999859654 24.267290127348467,60.42555599985943 23.59741714628089,57.92555599985326 21.767290127364472,56.09542898092061 19.267290127364248,55.42555599983086 16.767290127358084,56.09542898089844 14.937163108425436,57.925555999814854 14.267290127335686,60.42555599981508 14.937163108403261,62.92555599982125 16.767290127319676,64.7556830187539 19.2672901273199,65.42555599984365" stroke="#ffa500" stroke-linecap="round" stroke-linejoin="round"/><polyline fill="none" points="41.91266347807194,50.88741623902232 44.41266347807811,50.217543257954745 46.24279049701076,48.38741623903833 46.91266347810051,45.8874162390381 46.242790497032935,43.387416239031936 44.41266347811652,41.557289220099285 41.91266347811629,40.88741623900953 39.412663478110126,41.55728922007711 37.582536459177476,43.387416238993524 36.91266347808772,45.88741623899375 37.58253645915529,48.38741623899992 39.41266347807171,50.21754325793257 41.912663478071934,50.88741623902232" stroke="#00f" stroke-linecap="round" stroke-linejoin="round"/><polyline fill="none" points="-15.752278251729017,110.05917346917272 -13.25227825172285,109.38930048810515 -11.422151232790197,107.55917346918874 -10.752278251700444,105.05917346918851 -11.422151232768016,102.55917346918234 -13.25227825168443,100.72904645024968 -15.752278251684654,100.05917346915993 -18.25227825169082,100.7290464502275 -20.082405270623475,102.55917346914391 -20.752278251713232,105.05917346914414 -20.082405270645662,107.55917346915031 -18.252278251729248,109.38930048808297 -15.752278251729024,110.05917346917272" stroke="#ffa500" stroke-linecap="round" stroke-linejoin="round"/><polyline fill="none" points="-75.37914406229955,46.90767430407887 -72.87914406229338,46.2378013230113 -71.04901704336072,44.40767430409488 -70.37914406227097,41.907674304094655 -71.04901704333854,39.40767430408849 -72.87914406225495,37.57754728515583 -75.37914406225518,36.90767430406607 -77.87914406226135,37.57754728513364 -79.709271081194,39.407674304050055 -80.37914406228376,41.90767430405028 -79.70927108121619,44.40767430405645 -77.87914406229977,46.23780132298911 -75.37914406229955,46.90767430407887" stroke="#00f" stroke-linecap="round" stroke-linejoin="round"/><polyline fill="none" points="-79.99586107152933,107.66021119561557 -77.49586107152317,106.990338214548 -75.66573405259051,105.16021119563159 -74.99586107150076,102.66021119563136 -75.66573405256833,100.1602111956252 -77.49586107148474,98.33008417669254 -79.99586107148497,97.66021119560278 -82.49586107149113,98.33008417667035 -84.32598809042379,100.16021119558677 -84.99586107151354,102.660211195587 -84.32598809044597,105.16021119559316 -82.49586107152956,106.99033821452582 -79.99586107152933,107.66021119561559" stroke="#ffa500" stroke-linecap="round" stroke-linejoin="round"/><polyline fill="none" points="27.96476518137255,93.72105241262099 30.46476518137872,93.05117943155342 32.29489220031138,91.22105241263701 32.96476518140114,88.72105241263678 32.29489220033358,86.22105241263061 30.464765181417167,84.39092539369796 27.964765181416944,83.72105241260819 25.464765181410772,84.39092539367576 23.63463816247811,86.22105241259217 22.964765181388348,88.7210524125924 23.634638162455914,91.22105241259857 25.464765181372325,93.05117943153122 27.96476518137255,93.72105241262099" stroke="#ffa500" stroke-linecap="round" stroke-linejoin="round"/><polyline fill="none" points="-83.50136003877601,34.30039015738875 -81.00136003876985,33.630517176321185 -79.17123301983719,31.800390157404774 -78.50136003874742,29.30039015740455 -79.17123301981499,26.800390157398375 -81.0013600387314,24.970263138465715 -83.50136003873163,24.30039015737595 -86.0013600387378,24.970263138443514 -87.83148705767046,26.80039015735992 -88.50136003876023,29.300390157360145 -87.83148705769267,31.80039015736632 -86.00136003877626,33.63051717629898 -83.50136003877603,34.30039015738875" stroke="#008000" stroke-linecap="round" stroke-linejoin="round"/><polyline fill="none" points="-83.19477828574087,18.963060188868592 -80.6947782857347,18.29318720780103 -78.86465126680204,16.463060188884622 -78.19477828571227,13.963060188884398 -78.86465126677983,11.463060188878224 -80.69477828569624,9.632933169945561 -83.19477828569647,8.963060188855794 -85.69477828570265,9.632933169923355 -87.52490530463531,11.463060188839762 -88.19477828572508,13.963060188839986 -87.52490530465752,16.46306018884616 -85.69477828574111,18.293187207778825 -83.19477828574088,18.963060188868592" stroke="#00f" stroke-linecap="round" stroke-linejoin="round"/><polyline fill="none" points="2.2264473481879756,107.08322808385539 4.726447348194151,106.41335510278783 6.556574367126816,104.58322808387143 7.226447348216586,102.0832280838712 6.556574367149026,99.58322808386502 4.72644734823262,97.75310106493235 2.2264473482323957,97.08322808384258 -0.2735526517737803,97.75310106491014 -2.1036796707064465,99.58322808382654 -2.773552651796217,102.08322808382677 -2.103679670728659,104.58322808383295 -0.2735526518122535,106.41335510276562 2.226447348187971,107.08322808385539" stroke="#00f" stroke-linecap="round" stroke-linejoin="round"/><polyline fill="none" points="-107.76280872011593,42.30251392939288 -105.26280872010975,41.632640948325324 -103.43268170117707,39.80251392940892 -102.7628087200873,37.30251392940869 -103.43268170115486,34.802513929402515 -105.26280872007126,32.97238691046985 -107.76280872007149,32.302513929380076 -110.26280872007767,32.97238691044763 -112.09293573901034,34.80251392936404 -112.76280872010011,37.30251392936427 -112.09293573903255,39.80251392937044 -110.26280872011615,41.63264094830311 -107.76280872011593,42.30251392939289" stroke="#00f" stroke-linecap="round" stroke-linejoin="round"/><polyline fill="none" points="44.923999207283266,114.67962635661651 47.42399920728944,114.00975337554895 49.25412622622211,112.17962635663255 49.92399920731189,109.67962635663233 49.25412622624433,107.17962635662614 47.42399920732793,105.34949933769347 44.923999207327704,104.67962635660369 42.42399920732152,105.34949933767125 40.59387218838885,107.17962635658765 39.923999207299076,109.67962635658787 40.59387218836663,112.17962635659406 42.42399920728303,114.00975337552673 44.92399920728326,114.67962635661651" stroke="#ffa500" stroke-linecap="round" stroke-linejoin="round"/><polyline fill="none" points="-70.06713831872996,82.33378719649899 -67.56713831872378,81.66391421543143 -65.7370112997911,79.83378719651503 -65.06713831870132,77.3337871965148 -65.73701129976888,74.83378719650862 -67.56713831868528,73.00366017757595 -70.06713831868551,72.33378719648617 -72.56713831869169,73.00366017755373 -74.39726533762436,74.83378719647013 -75.06713831871414,77.33378719647035 -74.39726533764659,79.83378719647654 -72.56713831873019,81.6639142154092 -70.06713831872996,82.33378719649899" stroke="#ffa500" stroke-linecap="round" stroke-linejoin="round"/><polyline fill="none" points="34.80304042299613,-56.43175954511525 37.303040423002315,-57.1016325261828 39.13316744193499,-58.9317595450992 39.80304042302477,-61.431759545099425 39.13316744195722,-63.931759545105606 37.30304042304082,-65.76188656403828 34.80304042304059,-66.43175954512806 32.30304042303441,-65.7618865640605 30.472913404101735,-63.931759545144104 29.803040423011954,-61.431759545143876 30.472913404079502,-58.931759545137695 32.303040422995906,-57.101632526205016 34.80304042299613,-56.431759545115234" stroke="#ffa500" stroke-linecap="round" stroke-linejoin="round"/><polyline fill="none" points="-58.65892428689663,102.88223949340188 -56.158924286890446,102.21236651233434 -54.32879726795777,100.38223949341794 -53.658924286867986,97.88223949341771 -54.328797267935535,95.38223949341153 -56.158924286851935,93.55211247447886 -58.65892428685216,92.88223949338908 -61.158924286858344,93.55211247445662 -62.98905130579102,95.38223949337302 -63.658924286880804,97.88223949337325 -62.989051305813256,100.38223949337943 -61.158924286896855,102.2123665123121 -58.65892428689663,102.88223949340188" stroke="#ffa500" stroke-linecap="round" stroke-linejoin="round"/><polyline fill="none" points="54.434653452424975,16.24765050755643 56.93465345243116,15.577777526488884 58.764780471363835,13.747650507572486 59.434653452453624,11.24765050757226 58.76478047138608,8.747650507566075 56.93465345246968,6.917523488633394 54.434653452469455,6.247650507543607 51.93465345246327,6.917523488611152 50.104526433530594,8.747650507527549 49.434653452440806,11.247650507527773 50.10452643350835,13.747650507533958 51.93465345242475,15.577777526466638 54.434653452424975,16.247650507556425" stroke="#ffa500" stroke-linecap="round" stroke-linejoin="round"/><polyline fill="none" points="-104.01172608756639,34.9407515959852 -101.5117260875602,34.270878614917656 -99.68159906862752,32.440751596001256 -99.01172608753774,29.940751596001032 -99.68159906860528,27.440751595994847 -101.51172608752168,25.610624577062165 -104.01172608752191,24.940751595972376 -106.51172608752809,25.610624577039918 -108.34185310646077,27.440751595956314 -109.01172608755057,29.940751595956538 -108.34185310648303,32.44075159596272 -106.51172608756663,34.27087861489541 -104.0117260875664,34.9407515959852" stroke="#008000" stroke-linecap="round" stroke-linejoin="round"/><polyline fill="none" points="-86.72301013199393,66.98097552922162 -84.22301013198775,66.31110254815408 -82.39288311305506,64.48097552923768 -81.72301013196527,61.980975529237455 -82.39288311303281,59.480975529231266 -84.22301013194921,57.65084851029858 -86.72301013194944,56.98097552920879 -89.22301013195562,57.65084851027633 -91.0531371508883,59.480975529192726 -91.7230101319781,61.98097552919295 -91.05313715091056,64.48097552919914 -89.22301013199416,66.31110254813183 -86.72301013199393,66.98097552922162" stroke="#00f" stroke-linecap="round" stroke-linejoin="round"/><polyline fill="none" points="-101.32951729945181,80.32483094248086 -98.82951729944563,79.65495796141332 -96.99939028051294,77.82483094249692 -96.32951729942315,75.32483094249669 -96.99939028049069,72.82483094249051 -98.82951729940709,70.99470392355782 -101.32951729940731,70.32483094246803 -103.82951729941351,70.99470392353557 -105.6596443183462,72.82483094245197 -106.32951729943599,75.3248309424522 -105.65964431836845,77.82483094245839 -103.82951729945205,79.65495796139108 -101.32951729945182,80.32483094248087" stroke="#ffa500" stroke-linecap="round" stroke-linejoin="round"/><polyline fill="none" points="105.2473603913298,102.70077288242332 107.747360391336,102.03089990135578 109.57748741026869,100.2007728824394 110.24736039135848,97.70077288243917 109.57748741029094,95.20077288243297 107.74736039137456,93.37064586350029 105.24736039137433,92.70077288241049 102.74736039136813,93.37064586347802 100.91723337243545,95.2007728823944 100.24736039134565,97.70077288239463 100.91723337241318,100.20077288240083 102.74736039132956,102.03089990133351 105.24736039132979,102.70077288242331" stroke="#00f" stroke-linecap="round" stroke-linejoin="round"/><polyline fill="none" points="-130.0982450329175,-31.359963949804552 -127.59824503291131,-32.02983693087209 -125.76811801397862,-33.85996394978848 -125.09824503288883,-36.35996394978871 -125.76811801395635,-38.859963949794896 -127.59824503287274,-40.69009096872759 -130.09824503287297,-41.35996394981739 -132.59824503287916,-40.69009096874986 -134.42837205181186,-38.859963949833464 -135.09824503290167,-36.35996394983324 -134.42837205183415,-33.85996394982705 -132.59824503291776,-32.029836930894355 -130.09824503291753,-31.359963949804552" stroke="#ffa500" stroke-linecap="round" stroke-linejoin="round"/><polyline fill="none" points="-74.73355088759266,87.0697056478354 -72.23355088758646,86.39983266676788 -70.40342386865376,84.56970564785149 -69.73355088756396,82.06970564785126 -70.40342386863149,79.56970564784507 -72.23355088754788,77.73957862891237 -74.7335508875481,77.06970564782256 -77.2335508875543,77.73957862889009 -79.063677906487,79.56970564780647 -79.73355088757681,82.0697056478067 -79.06367790650928,84.5697056478129 -77.2335508875929,86.3998326667456 -74.73355088759267,87.0697056478354" stroke="#ffa500" stroke-linecap="round" stroke-linejoin="round"/><polyline fill="none" points="-151.22868289173724,37.54084539180095 -148.72868289173104,36.87097241073342 -146.89855587279834,35.04084539181704 -146.22868289170853,32.54084539181681 -146.89855587277606,30.040845391810617 -148.72868289169244,28.21071837287792 -151.22868289169267,27.540845391788114 -153.72868289169887,28.21071837285564 -155.55880991063157,30.04084539177203 -156.22868289172138,32.54084539177226 -155.55880991065385,35.040845391778454 -153.72868289173746,36.870972410711154 -151.22868289173724,37.540845391800964" stroke="#ffa500" stroke-linecap="round" stroke-linejoin="round"/><polyline fill="none" points="-89.31525572824195,33.894106334163716 -86.81525572823575,33.22423335309619 -84.98512870930305,31.3941063341798 -84.31525572821324,28.894106334179575 -84.98512870928077,26.39410633417338 -86.81525572819716,24.56397931524068 -89.31525572819739,23.89410633415087 -91.81525572820358,24.563979315218393 -93.64538274713628,26.39410633413478 -94.31525572822609,28.894106334135003 -93.64538274715856,31.3941063341412 -91.81525572824218,33.2242333530739 -89.31525572824195,33.89410633416371" stroke="#008000" stroke-linecap="round" stroke-linejoin="round"/><polyline fill="none" points="-124.7593305006356,-23.444917250093784 -122.2593305006294,-24.114790231161308 -120.4292034816967,-25.944917250077694 -119.7593305006069,-28.444917250077918 -120.42920348167442,-30.944917250084114 -122.2593305005908,-32.77504426901682 -124.75933050059103,-33.44491725010663 -127.25933050059723,-32.77504426903911 -129.08945751952993,-30.94491725012272 -129.75933050061974,-28.444917250122497 -129.0894575195522,-25.9449172501163 -127.25933050063583,-24.114790231183598 -124.7593305006356,-23.444917250093784" stroke="#ffa500" stroke-linecap="round" stroke-linejoin="round"/><polyline fill="none" points="-101.12644270274947,-19.99303183678017 -98.62644270274328,-20.66290481784769 -96.79631568381058,-22.493031836764075 -96.12644270272077,-24.9930318367643 -96.7963156837883,-27.4930318367705 -98.62644270270468,-29.323158855703202 -101.1264427027049,-29.993031836793016 -103.6264427027111,-29.323158855725495 -105.4565697216438,-27.493031836809113 -106.12644270273361,-24.99303183680889 -105.4565697216661,-22.49303183680269 -103.62644270274971,-20.662904817869986 -101.12644270274949,-19.99303183678017" stroke="#00f" stroke-linecap="round" stroke-linejoin="round"/><polyline fill="none" points="38.66326446052821,-78.14099139365317 41.16326446053441,-78.81086437472068 42.993391479467114,-80.64099139363707 43.66326446055693,-83.1409913936373 42.99339147948941,-85.64099139364349 41.163264460573025,-87.4711184125762 38.6632644605728,-88.14099139366601 36.163264460566594,-87.4711184125985 34.33313744163389,-85.64099139368211 33.66326446054407,-83.14099139368189 34.33313744161159,-80.64099139367569 36.16326446052798,-78.81086437474298 38.663264460528204,-78.14099139365315" stroke="#00f" stroke-linecap="round" stroke-linejoin="round"/><polyline fill="none" points="-114.01464552789638,22.08431536087413 -111.51464552789018,21.414442379806612 -109.68451850895747,19.58431536089023 -109.01464552786764,17.084315360890006 -109.68451850893516,14.584315360883805 -111.51464552785154,12.754188341951096 -114.01464552785177,12.084315360861277 -116.51464552785797,12.754188341928792 -118.34477254679068,14.584315360845174 -119.0146455278805,17.084315360845398 -118.34477254681299,19.5843153608516 -116.5146455278966,21.41444237978431 -114.01464552789638,22.084315360874132" stroke="#00f" stroke-linecap="round" stroke-linejoin="round"/><polyline fill="none" points="-12.938905440961586,59.375798588316634 -10.438905440955384,58.70592560724912 -8.608778422022674,56.87579858833274 -7.938905440932852,54.375798588332515 -8.608778422000366,51.87579858832631 -10.438905440916747,50.0456715693936 -12.938905440916972,49.37579858830377 -15.438905440923175,50.04567156937129 -17.269032459855886,51.875798588287665 -17.93890544094571,54.37579858828789 -17.269032459878197,56.875798588294096 -15.438905440961818,58.70592560722681 -12.938905440961594,59.375798588316634" stroke="#ffa500" stroke-linecap="round" stroke-linejoin="round"/><polyline fill="none" points="-57.35617414119759,55.15123641113694 -54.85617414119139,54.48136343006943 -53.026047122258674,52.65123641115305 -52.35617414116885,50.15123641115282 -53.02604712223636,47.65123641114662 -54.85617414115274,45.821109392213906 -57.35617414115297,45.15123641112408 -59.85617414115917,45.821109392191595 -61.68630116009189,47.65123641110797 -62.35617414118171,50.1512364111082 -61.6863011601142,52.651236411114404 -59.85617414119782,54.48136343004712 -57.35617414119759,55.15123641113694" stroke="#008000" stroke-linecap="round" stroke-linejoin="round"/><polyline fill="none" points="40.85572536035382,37.668148233292044 43.355725360360026,36.99827525222453 45.18585237929274,35.16814823330815 45.855725360382564,32.668148233307924 45.18585237931506,30.16814823330172 43.35572536039868,28.338021214369007 40.85572536039845,27.66814823327918 38.35572536039225,28.33802121434669 36.525598341459535,30.168148233263068 35.8557253603697,32.668148233263295 36.52559834143721,35.1681482332695 38.35572536035359,36.99827525220221 40.855725360353816,37.668148233292044" stroke="#ffa500" stroke-linecap="round" stroke-linejoin="round"/><polyline fill="none" points="-6.641832002039039,-110.56339372099835 -4.141832002032833,-111.23326670206586 -2.3117049831001157,-113.06339372098223 -1.6418320020102863,-115.56339372098246 -2.3117049830777936,-118.06339372098867 -4.14183200199417,-119.89352073992139 -6.641832001994395,-120.56339372101121 -9.141832002000601,-119.8935207399437 -10.97195902093332,-118.06339372102732 -11.641832002023152,-115.5633937210271 -10.971959020955646,-113.06339372102089 -9.141832002039271,-111.23326670208817 -6.641832002039046,-110.56339372099833" stroke="#ffa500" stroke-linecap="round" stroke-linejoin="round"/><polyline fill="none" points="-45.802229487710704,91.77840938404219 -43.302229487704494,91.10853640297469 -41.47210246877177,89.27840938405832 -40.80222948768194,86.7784093840581 -41.47210246874945,84.27840938405188 -43.30222948766583,82.44828236511917 -45.802229487666054,81.77840938402933 -48.302229487672264,82.44828236509683 -50.132356506604985,84.2784093840132 -50.80222948769482,86.77840938401343 -50.13235650662731,89.27840938401964 -48.30222948771094,91.10853640295235 -45.80222948771071,91.77840938404219" stroke="#ffa500" stroke-linecap="round" stroke-linejoin="round"/><polyline fill="none" points="72.10252392956045,-55.64399410273909 74.60252392956666,-56.3138670838066 76.43265094849939,-58.14399410272297 77.10252392958922,-60.6439941027232 76.43265094852173,-63.14399410272941 74.60252392960535,-64.97412112166214 72.10252392960513,-65.64399410275198 69.60252392959892,-64.97412112168448 67.77239691066619,-63.143994102768104 67.10252392957635,-60.64399410276788 67.77239691064385,-58.14399410276167 69.60252392956022,-56.313867083828946 72.10252392956045,-55.64399410273911" stroke="#ffa500" stroke-linecap="round" stroke-linejoin="round"/><polyline fill="none" points="-35.744885892927485,-88.67410266071896 -33.244885892921275,-89.34397564178646 -31.41475887398855,-91.17410266070283 -30.74488589289871,-93.67410266070306 -31.41475887396621,-96.17410266070927 -33.244885892882586,-98.004229679642 -35.74488589288281,-98.67410266073183 -38.24488589288902,-98.00422967966433 -40.07501291182175,-96.17410266074796 -40.74488589291159,-93.67410266074774 -40.07501291184409,-91.17410266074153 -38.24488589292772,-89.3439756418088 -35.74488589292749,-88.67410266071896" stroke="#ffa500" stroke-linecap="round" stroke-linejoin="round"/><polyline fill="none" points="70.72789885944457,-30.348915670171486 73.22789885945078,-31.018788651238985 75.0580258783835,-32.84891567015536 75.72789885947334,-35.348915670155584 75.05802587840584,-37.848915670161794 73.22789885948947,-39.67904268909452 70.72789885948924,-40.34891567018436 68.22789885948303,-39.67904268911686 66.3977718405503,-37.84891567020049 65.72789885946047,-35.34891567020026 66.39777184052797,-32.84891567019405 68.22789885944434,-31.018788651261325 70.72789885944457,-30.348915670171483" stroke="#00f" stroke-linecap="round" stroke-linejoin="round"/><polyline fill="none" points="104.82962561203523,-59.06343134597191 107.32962561204144,-59.733304327039406 109.15975263097417,-61.56343134595578 109.829625612064,-64.063431345956 109.15975263099651,-66.56343134596221 107.32962561208014,-68.39355836489494 104.82962561207991,-69.06343134598478 102.3296256120737,-68.39355836491728 100.49949859314097,-66.56343134600091 99.82962561205113,-64.06343134600068 100.49949859311863,-61.56343134599447 102.329625612035,-59.733304327061745 104.82962561203523,-59.0634313459719" stroke="#00f" stroke-linecap="round" stroke-linejoin="round"/><polyline fill="none" points="-123.4998105254805,-10.551247815023673 -120.99981052547429,-11.221120796091167 -119.16968350654156,-13.051247815007535 -118.49981052545171,-15.551247815007759 -119.1696835065192,-18.051247815013973 -120.99981052543558,-19.881374833946705 -123.4998105254358,-20.55124781503655 -125.99981052544202,-19.88137483396906 -127.82993754437474,-18.05124781505269 -128.4998105254646,-15.551247815052466 -127.82993754439711,-13.051247815046251 -125.99981052548074,-11.221120796113517 -123.49981052548051,-10.55124781502367" stroke="#00f" stroke-linecap="round" stroke-linejoin="round"/><polyline fill="none" points="81.70594075921015,-46.19422012497381 84.20594075921636,-46.8640931060413 86.03606777814909,-48.69422012495767 86.70594075923894,-51.194220124957894 86.03606777817146,-53.69422012496411 84.20594075925509,-55.52434714389685 81.70594075925486,-56.1942201249867 79.20594075924865,-55.52434714391921 77.37581374031592,-53.69422012500284 76.70594075922607,-51.194220125002616 77.37581374029355,-48.6942201249964 79.20594075920992,-46.86409310606366 81.70594075921015,-46.19422012497381" stroke="#00f" stroke-linecap="round" stroke-linejoin="round"/><polyline fill="none" points="-93.74863022475786,-56.7217129640834 -91.24863022475165,-57.391585945150894 -89.41850320581891,-59.22171296406726 -88.74863022472906,-61.721712964067486 -89.41850320579654,-64.2217129640737 -91.24863022471291,-66.05183998300645 -93.74863022471314,-66.7217129640963 -96.24863022471936,-66.05183998302881 -98.0787572436521,-64.22171296411244 -98.74863022474196,-61.721712964112214 -98.07875724367447,-59.221712964106 -96.24863022475812,-57.39158594517326 -93.74863022475789,-56.72171296408341" stroke="#ffa500" stroke-linecap="round" stroke-linejoin="round"/><polyline fill="none" points="-138.76460032612127,6.750251960140333 -136.26460032611504,6.080378979072847 -134.43447330718232,4.250251960156483 -133.76460032609245,1.750251960156258 -134.43447330715995,-0.7497480398499605 -136.2646003260763,-2.5798750587827 -138.76460032607653,-3.2497480398725553 -141.26460032608276,-2.5798750588050705 -143.09472734501549,-0.7497480398887071 -143.76460032610535,1.7502519601115176 -143.09472734503788,4.250251960117737 -141.26460032612152,6.080378979050478 -138.7646003261213,6.750251960140334" stroke="#ffa500" stroke-linecap="round" stroke-linejoin="round"/><polyline fill="none" points="17.84910011560706,38.53285116637332 20.349100115613282,37.862978185305835 22.179227134546025,36.03285116638947 22.84910011563588,33.53285116638924 22.179227134568396,31.032851166383022 20.349100115652035,29.20272414745028 17.84910011565181,28.532851166360423 15.34910011564559,29.202724147427904 13.518973096712848,31.032851166344265 12.84910011562299,33.53285116634449 13.518973096690473,36.03285116635071 15.349100115606836,37.86297818528345 17.84910011560706,38.53285116637331" stroke="#00f" stroke-linecap="round" stroke-linejoin="round"/><polyline fill="none" points="-92.65044657670106,37.61839019445834 -90.15044657669483,36.94851721339086 -88.32031955776209,35.11839019447449 -87.65044657667224,32.618390194474266 -88.32031955773972,30.118390194468045 -90.15044657665608,28.288263175535302 -92.65044657665631,27.618390194445443 -95.15044657666253,28.288263175512924 -96.98057359559527,30.118390194429285 -97.65044657668514,32.61839019442951 -96.98057359561766,35.11839019443573 -95.1504465767013,36.948517213368476 -92.65044657670107,37.618390194458335" stroke="#008000" stroke-linecap="round" stroke-linejoin="round"/><polyline fill="none" points="61.70258779216468,-31.416599610502878 64.2025877921709,-32.086472591570356 66.03271481110365,-33.91659961048671 66.70258779219351,-36.41659961048694 66.03271481112603,-38.916599610493165 64.20258779220967,-40.74672662942591 61.70258779220944,-41.41659961051577 59.20258779220322,-40.74672662944829 57.37246077327047,-38.91659961053193 56.70258779218061,-36.416599610531705 57.372460773248086,-33.91659961052548 59.202587792164444,-32.08647259159273 61.70258779216467,-31.416599610502868" stroke="#ffa500" stroke-linecap="round" stroke-linejoin="round"/><polyline fill="none" points="18.14969104092904,-110.02875695997454 20.649691040935263,-110.69862994104201 22.47981805986801,-112.52875695995837 23.149691040957872,-115.0287569599586 22.479818059890395,-117.52875695996482 20.649691040974037,-119.35888397889757 18.149691040973813,-120.02875695998743 15.64969104096759,-119.35888397891996 13.81956402203484,-117.5287569600036 13.149691040944973,-115.02875696000338 13.819564022012448,-112.52875695999715 15.649691040928806,-110.69862994106441 18.14969104092903,-110.02875695997454" stroke="#ffa500" stroke-linecap="round" stroke-linejoin="round"/><polyline fill="none" points="-109.82133462136197,-2.343428783189168 -107.32133462135575,-3.013301764256643 -105.49120760242299,-4.843428783173001 -104.82133462133312,-7.343428783173227 -105.49120760240059,-9.843428783179451 -107.32133462131695,-11.673555802112201 -109.82133462131718,-12.343428783202068 -112.3213346213234,-11.673555802134594 -114.15146164025616,-9.843428783218236 -114.82133462134603,-7.343428783218011 -114.15146164027855,-4.843428783211785 -112.3213346213622,-3.013301764279033 -109.82133462136197,-2.3434287831891645" stroke="#00f" stroke-linecap="round" stroke-linejoin="round"/><polyline fill="none" points="72.89986055091516,-67.63871861320055 75.39986055092139,-68.30859159426802 77.22998756985415,-70.13871861318438 77.89986055094401,-72.63871861318461 77.22998756987654,-75.13871861319083 75.39986055096018,-76.96884563212359 72.89986055095996,-77.63871861321346 70.39986055095373,-76.96884563214599 68.56973353202098,-75.13871861322963 67.89986055093111,-72.6387186132294 68.56973353199858,-70.13871861322318 70.39986055091494,-68.30859159429042 72.89986055091516,-67.63871861320055" stroke="#00f" stroke-linecap="round" stroke-linejoin="round"/><polyline fill="none" points="49.65579467261307,-50.499458548793605 52.155794672619294,-51.169331529861076 53.98592169155205,-52.99945854877743 54.655794672641925,-55.49945854877766 53.985921691574454,-57.999458548783885 52.1557946726581,-59.82958556771664 49.65579467265787,-60.499458548806516 47.15579467265164,-59.829585567739045 45.32566765371888,-57.99945854882269 44.65579467262901,-55.49945854882246 45.32566765369648,-52.999458548816236 47.155794672612835,-51.16933152988348 49.65579467261306,-50.499458548793605" stroke="#ffa500" stroke-linecap="round" stroke-linejoin="round"/><polyline fill="none" points="-136.15918979386743,-3.879444636337565 -133.6591897938612,-4.549317617405034 -131.82906277492845,-6.379444636321388 -131.15918979383858,-8.879444636321612 -131.82906277490605,-11.37944463632784 -133.6591897938224,-13.209571655260596 -136.15918979382263,-13.87944463635047 -138.65918979382886,-13.209571655283003 -140.48931681276161,-11.37944463636665 -141.15918979385148,-8.879444636366426 -140.489316812784,-6.379444636360197 -138.65918979386765,-4.549317617427439 -136.15918979386743,-3.879444636337563" stroke="#ffa500" stroke-linecap="round" stroke-linejoin="round"/><polyline fill="none" points="-97.33214543736857,38.428608091972826 -94.83214543736234,37.75873511090536 -93.00201841842959,35.92860809198901 -92.3321454373397,33.428608091988785 -93.00201841840718,30.928608091982554 -94.83214543732353,29.098481073049793 -97.33214543732376,28.428608091959916 -99.83214543732998,29.09848107302738 -101.66227245626274,30.92860809194373 -102.33214543735262,33.42860809194396 -101.66227245628515,35.92860809195019 -99.8321454373688,37.75873511088295 -97.33214543736857,38.42860809197283" stroke="#008000" stroke-linecap="round" stroke-linejoin="round"/><polyline fill="none" points="-45.14172994485707,24.670013102483523 -42.64172994485084,24.00014012141606 -40.81160292591807,22.17001310249971 -40.14172994482819,19.670013102499485 -40.811602925895656,17.170013102493254 -42.641729944812006,15.339886083560492 -45.141729944812234,14.67001310247061 -47.641729944818465,15.339886083538072 -49.47185696375123,17.170013102454423 -50.14172994484111,19.670013102454647 -49.47185696377365,22.170013102460878 -47.641729944857296,24.000140121393642 -45.14172994485707,24.670013102483523" stroke="#ffa500" stroke-linecap="round" stroke-linejoin="round"/><polyline fill="none" points="-102.12171855013374,-57.33164689078057 -99.6217185501275,-58.00151987184803 -97.79159153119474,-59.83164689076438 -97.12171855010486,-62.33164689076461 -97.79159153117232,-64.83164689077084 -99.62171855008866,-66.66177390970361 -102.12171855008889,-67.3316468907935 -104.62171855009512,-66.66177390972604 -106.4518455690279,-64.8316468908097 -107.12171855011778,-62.331646890809466 -106.45184556905032,-59.831646890803235 -104.62171855013398,-58.00151987187047 -102.12171855013375,-57.33164689078058" stroke="#ffa500" stroke-linecap="round" stroke-linejoin="round"/><polyline fill="none" points="-87.51435711790047,32.85865941186516 -85.01435711789424,32.188786430797705 -83.18423009896146,30.35865941188136 -82.51435711787158,27.858659411881135 -83.18423009893904,25.3586594118749 -85.01435711785538,23.528532392942132 -87.51435711785561,22.858659411852244 -90.01435711786185,23.5285323929197 -91.84448413679462,25.358659411836047 -92.51435711788451,27.85865941183627 -91.84448413681706,30.358659411842506 -90.01435711790072,32.188786430775274 -87.51435711790049,32.85865941186516" stroke="#00f" stroke-linecap="round" stroke-linejoin="round"/><polyline fill="none" points="-8.786444661314395,54.98143014248237 -6.286444661308158,54.31155716141491 -4.456317642375388,52.48143014249857 -3.786444661285498,49.98143014249834 -4.4563176423529525,47.4814301424921 -6.286444661269298,45.65130312355933 -8.786444661269524,44.98143014246944 -11.28644466127576,45.6513031235369 -13.116571680208532,47.48143014245324 -13.786444661298423,49.98143014245347 -13.11657168023097,52.48143014245971 -11.286444661314626,54.31155716139248 -8.786444661314402,54.98143014248237" stroke="#ffa500" stroke-linecap="round" stroke-linejoin="round"/><polyline fill="none" points="-92.37738126264765,0.4929583739889587 -89.8773812626414,-0.17691460707849438 -88.04725424370864,-2.00704162599484 -87.37738126261874,-4.507041625995065 -88.0472542436862,-7.0070416260013015 -89.87738126260254,-8.837168644934074 -92.37738126260277,-9.507041626023968 -94.877381262609,-8.837168644956517 -96.70750828154178,-7.007041626040172 -97.37738126263167,-4.507041626039947 -96.70750828156422,-2.007041626033709 -94.87738126264787,-0.17691460710093532 -92.37738126264765,0.49295837398895903" stroke="#ffa500" stroke-linecap="round" stroke-linejoin="round"/></svg>