<?xml version="1.0" ?><!DOCTYPE svg  PUBLIC '-//W3C//DTD SVG 1.1//EN'  'http://www.w3.org/Graphics/SVG/1.1/DTD/svg11.dtd'><svg height="238.000" viewBox="-167.000 -120.000 366.000 238.000" width="366.000" xmlns="http://www.w3.org/2000/svg"><line fill="none" stroke="none" stroke-linecap="round" stroke-width="2.0" x1="0.0" x2="0.0" y1="0.0" y2="0.0"/><polygon fill="none" fill-rule="evenodd" points="0.0,0.0 0.0,0.0 0.0,0.0" stroke-linejoin="round"/><polyline fill="none" points="-70.68659546613227,3.5001234135028305 -68.1865954661259,2.8302504324356352 -66.35646844719287,1.000123413519439 -65.68659546610267,-1.4998765864807857 -66.35646844716987,-3.999876586487172 -68.18659546608608,-5.8300036054202025 -70.6865954660863,-6.499876586510394 -73.18659546609268,-5.830003605443199 -75.01672248502571,-3.999876586527004 -75.6865954661159,-1.4998765865267791 -75.01672248504872,1.0001234134796082 -73.18659546613252,2.83025043241264 -70.68659546613229,3.5001234135028323" stroke="#00f" stroke-linecap="round" stroke-linejoin="round"/><polyline fill="none" points="-92.73130401454921,-46.4290268701608 -90.23130401454281,-47.09889985122799 -88.40117699560979,-48.929026870144185 -87.7313040145196,-51.42902687014441 -88.40117699558678,-53.9290268701508 -90.23130401450298,-55.759153889083834 -92.73130401450321,-56.42902687017403 -95.2313040145096,-55.759153889106834 -97.06143103344263,-53.92902687019064 -97.73130401453282,-51.42902687019041 -97.06143103346564,-48.929026870184025 -95.23130401454944,-47.09889985125099 -92.73130401454921,-46.4290268701608" stroke="#008000" stroke-linecap="round" stroke-linejoin="round"/><polyline fill="none" points="-57.9002745559569,-87.15721159680143 -55.40027455595051,-87.82708457786862 -53.570147537017476,-89.6572115967848 -52.90027455592728,-92.15721159678503 -53.57014753699447,-94.65721159679143 -55.40027455591066,-96.48733861572447 -57.90027455591089,-97.15721159681466 -60.40027455591728,-96.48733861574748 -62.23040157485031,-94.65721159683129 -62.900274555940506,-92.15721159683106 -62.23040157487332,-89.65721159682467 -60.400274555957125,-87.82708457789163 -57.9002745559569,-87.15721159680143" stroke="#ffa500" stroke-linecap="round" stroke-linejoin="round"/><polyline fill="none" points="-66.91341485660288,-51.33439872160431 -64.41341485659649,-52.004271702671495 -62.583287837663455,-53.83439872158769 -61.913414856573254,-56.33439872158792 -62.58328783764044,-58.834398721594305 -64.41341485655663,-60.664525740527345 -66.91341485655686,-61.334398721617546 -69.41341485656325,-60.66452574055036 -71.24354187549629,-58.834398721634166 -71.91341485658648,-56.33439872163394 -71.2435418755193,-53.83439872162755 -69.41341485660311,-52.00427170269451 -66.91341485660288,-51.33439872160431" stroke="#008000" stroke-linecap="round" stroke-linejoin="round"/><polyline fill="none" points="-95.6149484776467,18.024338038387945 -93.11494847764031,17.35446505732076 -91.28482145870727,15.524338038404569 -90.61494847761708,13.024338038404345 -91.28482145868426,10.524338038397953 -93.11494847760045,8.694211019464914 -95.61494847760068,8.024338038374713 -98.11494847760707,8.694211019441898 -99.94507549654011,10.524338038358088 -100.61494847763032,13.024338038358312 -99.94507549656313,15.524338038364705 -98.11494847764695,17.354465057297745 -95.61494847764672,18.02433803838795" stroke="#00f" stroke-linecap="round" stroke-linejoin="round"/><polyline fill="none" points="-91.3444582983038,-70.16940483976072 -88.84445829829741,-70.8392778208279 -87.01433127936437,-72.66940483974409 -86.34445829827416,-75.16940483974432 -87.01433127934135,-77.66940483975071 -88.84445829825754,-79.49953185868375 -91.34445829825776,-80.16940483977396 -93.84445829826416,-79.49953185870677 -95.6745853171972,-77.66940483979059 -96.3444582982874,-75.16940483979036 -95.67458531722022,-72.66940483978397 -93.84445829830403,-70.83927782085092 -91.3444582983038,-70.16940483976072" stroke="#00f" stroke-linecap="round" stroke-linejoin="round"/><polyline fill="none" points="166.5578199277377,-97.32084170937574 169.0578199277441,-97.99071469044293 170.88794694667715,-99.82084170935912 171.55781992776735,-102.32084170935934 170.88794694670017,-104.82084170936574 169.05781992778398,-106.65096872829878 166.55781992778375,-107.32084170938899 164.05781992777736,-106.6509687283218 162.22769290884432,-104.82084170940561 161.5578199277541,-102.32084170940539 162.2276929088213,-99.82084170939899 164.05781992773748,-97.99071469046595 166.5578199277377,-97.32084170937574" stroke="#ffa500" stroke-linecap="round" stroke-linejoin="round"/><polyline fill="none" points="-126.57375010457478,-67.69930006100422 -124.07375010456839,-68.3691730420714 -122.24362308563535,-70.19930006098758 -121.57375010454514,-72.69930006098781 -122.24362308561231,-75.1993000609942 -124.0737501045285,-77.02942707992725 -126.57375010452873,-77.69930006101745 -129.07375010453512,-77.02942707995028 -130.90387712346816,-75.1993000610341 -131.57375010455837,-72.69930006103387 -130.90387712349118,-70.19930006102747 -129.073750104575,-68.36917304209442 -126.57375010457477,-67.69930006100421" stroke="#00f" stroke-linecap="round" stroke-linejoin="round"/><polyline fill="none" points="64.64219258064104,-21.137870602541348 67.14219258064743,-21.807743583608524 68.97231959958049,-23.637870602524707 69.6421925806707,-26.13787060252493 68.97231959960352,-28.63787060253133 67.14219258068734,-30.467997621464377 64.64219258068711,-31.13787060255459 62.142192580680714,-30.467997621487413 60.312065561747666,-28.63787060257123 59.64219258065745,-26.137870602571006 60.31206556172462,-23.637870602564607 62.14219258064081,-21.807743583631556 64.64219258064104,-21.13787060254134" stroke="#ffa500" stroke-linecap="round" stroke-linejoin="round"/><polyline fill="none" points="182.49196487506265,-89.263389758146 184.99196487506904,-89.93326273921318 186.82209189400209,-91.76338975812936 187.4919648750923,-94.26338975812959 186.8220918940251,-96.76338975813599 184.99196487510892,-98.59351677706904 182.4919648751087,-99.26338975815926 179.9919648751023,-98.59351677709209 178.16183785616926,-96.7633897581759 177.49196487507905,-94.26338975817568 178.16183785614624,-91.76338975816928 179.99196487506242,-89.93326273923623 182.49196487506265,-89.263389758146" stroke="#00f" stroke-linecap="round" stroke-linejoin="round"/><polyline fill="none" points="-46.38836849593858,-55.01664848421247 -43.88836849593218,-55.68652146527964 -42.05824147699912,-57.51664848419582 -41.38836849590891,-60.01664848419605 -42.05824147697608,-62.51664848420245 -43.88836849589226,-64.3467755031355 -46.388368495892486,-65.01664848422573 -48.88836849589889,-64.34677550315855 -50.71849551483194,-62.516648484242374 -51.388368495922165,-60.01664848424215 -50.71849551485499,-57.516648484235745 -48.88836849593881,-55.68652146530269 -46.388368495938586,-55.01664848421247" stroke="#00f" stroke-linecap="round" stroke-linejoin="round"/><polyline fill="none" points="54.35723103071828,39.159961036797625 56.857231030724684,38.49008805573045 58.68735804965774,36.65996103681427 59.35723103074796,34.159961036814046 58.68735804968079,31.659961036807644 56.85723103076461,29.82983401787459 54.35723103076438,29.159961036784367 51.85723103075798,29.829834017851535 50.027104011824925,31.659961036767715 49.3572310307347,34.15996103676794 50.02710401180187,36.65996103677434 51.85723103071805,38.490088055707396 54.357231030718275,39.15996103679762" stroke="#00f" stroke-linecap="round" stroke-linejoin="round"/><polyline fill="none" points="-9.439357417816135,-64.9849400173726 -6.939357417809733,-65.65481299843977 -5.109230398876676,-67.48494001735594 -4.439357417786454,-69.98494001735617 -5.1092303988536205,-72.48494001736258 -6.9393574177698,-74.31506703629563 -9.439357417770024,-74.98494001738585 -11.939357417776428,-74.31506703631868 -13.769484436709487,-72.48494001740251 -14.43935741779971,-69.98494001740228 -13.769484436732546,-67.48494001739587 -11.939357417816368,-65.65481299846282 -9.439357417816144,-64.9849400173726" stroke="#ffa500" stroke-linecap="round" stroke-linejoin="round"/><polyline fill="none" points="42.95930944035742,-13.098263315954554 45.459309440363825,-13.76813629702172 47.28943645929689,-15.598263315937897 47.95930944038711,-18.098263315938123 47.289436459319944,-20.59826331594453 45.459309440403764,-22.42839033487759 42.95930944040354,-23.098263315967817 40.459309440397135,-22.42839033490065 38.62918242146407,-20.59826331598447 37.95930944037384,-18.098263315984248 38.62918242144101,-15.598263315977842 40.45930944035719,-13.76813629704478 42.959309440357416,-13.098263315954553" stroke="#ffa500" stroke-linecap="round" stroke-linejoin="round"/><polyline fill="none" points="4.211893842860454,-50.137219204888176 6.711893842866859,-50.80709218595534 8.542020861799921,-52.63721920487152 9.211893842890149,-55.13721920487175 8.542020861822987,-57.63721920487815 6.71189384290681,-59.46734622381121 4.211893842906585,-60.13721920490144 1.7118938429001798,-59.467346223834284 -0.11823317603288408,-57.637219204918104 -0.7881061571231136,-55.137219204917876 -0.11823317605595296,-52.63721920491147 1.7118938428602233,-50.807092185978405 4.211893842860448,-50.137219204888176" stroke="#ffa500" stroke-linecap="round" stroke-linejoin="round"/><polyline fill="none" points="-64.92396782973069,-77.23489360030014 -62.423967829724276,-77.9047665813673 -60.593840810791214,-79.73489360028347 -59.923967829700985,-82.2348936002837 -60.59384081076814,-84.7348936002901 -62.423967829684315,-86.56502061922318 -64.92396782968454,-87.23489360031341 -67.42396782969095,-86.56502061924625 -69.25409484862402,-84.73489360033008 -69.92396782971426,-82.23489360032985 -69.2540948486471,-79.73489360032345 -67.42396782973093,-77.90476658139038 -64.9239678297307,-77.23489360030014" stroke="#00f" stroke-linecap="round" stroke-linejoin="round"/><polyline fill="none" points="-55.04431265242643,-31.187980432022087 -52.54431265242002,-31.857853413089245 -50.71418563348695,-33.68798043200542 -50.04431265239671,-36.187980432005645 -50.71418563346387,-38.687980432012054 -52.54431265238004,-40.518107450945124 -55.04431265238027,-41.18798043203536 -57.54431265238668,-40.5181074509682 -59.37443967131975,-38.68798043205203 -60.044312652409985,-36.1879804320518 -59.37443967134283,-33.68798043204539 -57.544312652426655,-31.857853413112323 -55.04431265242643,-31.187980432022087" stroke="#00f" stroke-linecap="round" stroke-linejoin="round"/><polyline fill="none" points="-17.59147253558237,9.101299181192802 -15.09147253557596,8.431426200125648 -13.261345516642889,6.601299181209474 -12.591472535552652,4.101299181209249 -13.261345516619807,1.6012991812028394 -15.09147253553598,-0.22882783773023152 -17.591472535536205,-0.8987008188204694 -20.091472535542614,-0.22882783775331605 -21.921599554475687,1.6012991811628559 -22.591472535565927,4.10129918116308 -21.921599554498776,6.601299181169491 -20.091472535582604,8.431426200102564 -17.59147253558238,9.101299181192804" stroke="#ffa500" stroke-linecap="round" stroke-linejoin="round"/><polyline fill="none" points="-82.60535510996786,-70.34040727961535 -80.10535510996145,-71.0102802606825 -78.27522809102838,-72.84040727959868 -77.60535510993815,-75.3404072795989 -78.2752280910053,-77.84040727960532 -80.10535510992148,-79.67053429853839 -82.6053551099217,-80.34040727962862 -85.10535510992811,-79.67053429856146 -86.93548212886118,-77.84040727964529 -87.60535510995142,-75.34040727964506 -86.93548212888426,-72.84040727963865 -85.10535510996809,-71.01028026070558 -82.60535510996786,-70.34040727961535" stroke="#00f" stroke-linecap="round" stroke-linejoin="round"/><polyline fill="none" points="44.48254889814084,16.727139399692042 46.98254889814725,16.05726641862489 48.81267591708033,14.22713939970872 49.48254889817057,11.727139399708495 48.81267591710342,9.227139399702082 46.98254889818725,7.397012380769007 44.48254889818702,6.727139399678764 41.98254889818061,7.397012380745913 40.152421879247534,9.227139399662082 39.48254889815729,11.727139399662306 40.15242187922444,14.227139399668719 41.982548898140614,16.057266418601795 44.48254889814084,16.72713939969204" stroke="#00f" stroke-linecap="round" stroke-linejoin="round"/><polyline fill="none" points="59.445643319969676,-7.528105308883946 61.94564331997609,-8.197978289951095 63.77577033890917,-10.028105308867264 64.44564331999942,-12.528105308867488 63.77577033893227,-15.0281053088739 61.9456433200161,-16.858232327806977 59.445643320015876,-17.52810530889722 56.94564332000946,-16.858232327830073 55.11551630107638,-15.028105308913906 54.44564331998614,-12.528105308913682 55.11551630105328,-10.028105308907268 56.94564331996945,-8.19797828997419 59.445643319969676,-7.5281053088839425" stroke="#ffa500" stroke-linecap="round" stroke-linejoin="round"/><polyline fill="none" points="-100.8502833811086,-76.97884403261116 -98.35028338110219,-77.64871701367831 -96.5201563621691,-79.47884403259448 -95.85028338107885,-81.97884403259471 -96.520156362146,-84.47884403260112 -98.35028338106217,-86.3089710515342 -100.8502833810624,-86.97884403262445 -103.3502833810688,-86.30897105155731 -105.18041040000189,-84.47884403264113 -105.85028338109214,-81.97884403264091 -105.180410400025,-79.4788440326345 -103.35028338110882,-77.64871701370141 -100.8502833811086,-76.97884403261116" stroke="#ffa500" stroke-linecap="round" stroke-linejoin="round"/><polyline fill="none" points="95.66298480832398,3.077980318291434 98.1629848083304,2.4081073372242905 99.99311182726349,0.577980318308124 100.66298480835374,-1.9220196816921007 99.9931118272866,-4.422019681698517 98.16298480837042,-6.252146700631599 95.6629848083702,-6.922019681721849 93.16298480836377,-6.252146700654707 91.33285778943069,-4.422019681738542 90.66298480834044,-1.922019681738317 91.33285778940758,0.5779803182681 93.16298480832374,2.4081073372011836 95.66298480832397,3.077980318291436" stroke="#ffa500" stroke-linecap="round" stroke-linejoin="round"/><polyline fill="none" points="-46.57557009920762,-2.2353954294036544 -44.0755700992012,-2.9052684104707955 -42.24544308026812,-4.73539542938696 -41.57557009917787,-7.235395429387185 -42.24544308024501,-9.735395429393602 -44.075570099161176,-11.565522448326686 -46.5755700991614,-12.235395429416938 -49.07557009916782,-11.565522448349798 -50.9056971181009,-9.735395429433634 -51.575570099191154,-7.235395429433409 -50.90569711812402,-4.73539542942699 -49.07557009920785,-2.905268410493905 -46.575570099207624,-2.23539542940365" stroke="#00f" stroke-linecap="round" stroke-linejoin="round"/><polyline fill="none" points="-31.976328537410318,71.16003957447911 -29.476328537403898,70.49016659341197 -27.64620151847081,68.66003957449581 -26.976328537380557,66.16003957449558 -27.646201518447693,63.66003957448917 -29.476328537363855,61.829912555556085 -31.97632853736408,61.16003957446583 -34.4763285373705,61.829912555532964 -36.30645555630359,63.66003957444913 -36.97632853739385,66.16003957444936 -36.30645555632671,68.66003957445578 -34.476328537410545,70.49016659338886 -31.97632853741032,71.16003957447911" stroke="#ffa500" stroke-linecap="round" stroke-linejoin="round"/><polyline fill="none" points="57.052682191160194,30.858836851476386 59.55268219116661,30.18896387040925 61.3828092100997,28.358836851493088 62.05268219118996,25.858836851492864 61.38280921012282,23.358836851486444 59.552682191206664,21.528709832553357 57.052682191206436,20.8588368514631 54.55268219120001,21.528709832530236 52.72255517226692,23.358836851446398 52.052682191176665,25.858836851446622 52.7225551722438,28.35883685145304 54.55268219115996,30.188963870386132 57.05268219116019,30.858836851476394" stroke="#ffa500" stroke-linecap="round" stroke-linejoin="round"/><polyline fill="none" points="179.56117596425273,-77.48776263646164 182.06117596425915,-78.15763561752877 183.89130298319225,-79.98776263644493 184.5611759642825,-82.48776263644515 183.89130298321538,-84.98776263645158 182.06117596429922,-86.81788965538468 179.561175964299,-87.48776263647494 177.06117596429257,-86.81788965540781 175.23104894535948,-84.98776263649165 174.5611759642692,-82.48776263649142 175.23104894533634,-79.987762636485 177.0611759642525,-78.1576356175519 179.56117596425273,-77.48776263646164" stroke="#ffa500" stroke-linecap="round" stroke-linejoin="round"/><polyline fill="none" points="-26.758817283658168,-24.886346807130305 -24.258817283651744,-25.55621978819744 -22.42869026471865,-27.386346807113597 -21.758817283628385,-29.88634680711382 -22.428690264695515,-32.38634680712024 -24.258817283611673,-34.21647382605333 -26.758817283611897,-34.886346807143596 -29.25881728361832,-34.21647382607647 -31.088944302551415,-32.38634680716031 -31.75881728364168,-29.886346807160084 -31.08894430257455,-27.38634680715366 -29.25881728365839,-25.556219788220567 -26.758817283658168,-24.886346807130302" stroke="#ffa500" stroke-linecap="round" stroke-linejoin="round"/><polyline fill="none" points="17.935903396330982,62.01832506356183 20.435903396337405,61.3484520824947 22.2660304152705,59.518325063578544 22.935903396360764,57.01832506357832 22.266030415293635,54.51832506357189 20.435903396377476,52.688198044638796 17.935903396377253,52.01832506354853 15.435903396370827,52.68819804461566 13.605776377437731,54.51832506353182 12.935903396347463,57.018325063532046 13.60577637741459,59.51832506353847 15.435903396330747,61.34845208247157 17.93590339633097,62.01832506356183" stroke="#ffa500" stroke-linecap="round" stroke-linejoin="round"/><polyline fill="none" points="4.592458124420132,12.08537514179331 7.092458124426557,11.415502160726184 8.922585143359655,9.585375141810028 9.592458124449923,7.085375141809803 8.922585143382797,4.585375141803377 7.09245812446664,2.7552481228702783 4.5924581244664155,2.085375141780008 2.092458124459989,2.7552481228471333 0.26233110552688976,4.585375141763289 -0.40754187556338084,7.085375141763514 0.2623311055037443,9.58537514176994 2.0924581244199,11.41550216070304 4.592458124420125,12.085375141793312" stroke="#ffa500" stroke-linecap="round" stroke-linejoin="round"/><polyline fill="none" points="96.1544943187218,27.821989272348954 98.65449431872823,27.15211629128183 100.48462133766132,25.321989272365673 101.1544943187516,22.82198927236545 100.48462133768447,20.321989272359023 98.65449431876831,18.49186225342592 96.15449431876809,17.82198927233565 93.65449431876166,18.491862253402772 91.82436729982857,20.321989272318927 91.15449431873829,22.82198927231915 91.8243672998054,25.321989272325578 93.65449431872156,27.15211629125868 96.15449431872179,27.821989272348954" stroke="#ffa500" stroke-linecap="round" stroke-linejoin="round"/><polyline fill="none" points="80.02974991840293,10.673058973147793 82.52974991840935,10.00318599208067 84.35987693734245,8.173058973164515 85.02974991843273,5.673058973164291 84.35987693736561,3.173058973157862 82.52974991844945,1.3429319542247582 80.02974991844923,0.6730589731344826 77.5297499184428,1.3429319542016032 75.6996228995097,3.1730589731177563 75.02974991841943,5.673058973117981 75.69962289948654,8.17305897312441 77.5297499184027,10.003185992057515 80.02974991840293,10.673058973147793" stroke="#00f" stroke-linecap="round" stroke-linejoin="round"/><polyline fill="none" points="-64.86665266413966,19.178606220091616 -62.366652664133234,18.508733239024497 -60.53652564520013,16.678606220108346 -59.86665266410985,14.178606220108122 -60.536525645176965,11.678606220101692 -62.36665266409312,9.848479201168585 -64.86665266409334,9.178606220078306 -67.36665266409977,9.848479201145425 -69.19677968303289,11.678606220061576 -69.86665266412317,14.178606220061802 -69.19677968305605,16.678606220068232 -67.3666526641399,18.50873323900134 -64.86665266413968,19.17860622009162" stroke="#00f" stroke-linecap="round" stroke-linejoin="round"/><polyline fill="none" points="31.703437509175625,39.25670864735114 34.20343750918206,38.586835666284024 36.033564528115164,36.75670864736787 36.70343750920544,34.256708647367645 36.03356452813833,31.756708647361215 34.20343750922218,29.926581628428107 31.703437509221953,29.256708647337828 29.203437509215522,29.926581628404943 27.373310490282414,31.756708647321094 26.70343750919213,34.25670864732132 27.373310490259247,36.75670864732775 29.203437509175398,38.58683566626086 31.70343750917562,39.25670864735114" stroke="#ffa500" stroke-linecap="round" stroke-linejoin="round"/><polyline fill="none" points="27.420279996597706,54.41000716629571 29.92027999660414,53.7401341852286 31.750407015537252,51.91000716631245 32.420279996627535,49.41000716631222 31.75040701556042,46.91000716630579 29.920279996644272,45.07988014737268 27.420279996644048,44.41000716628239 24.920279996637614,45.079880147349506 23.090152977704502,46.91000716626566 22.420279996614216,49.410007166265885 23.090152977681328,51.910007166272315 24.920279996597476,53.74013418520543 27.4202799965977,54.41000716629571" stroke="#ffa500" stroke-linecap="round" stroke-linejoin="round"/><polyline fill="none" points="182.09723354036663,-67.46660995842164 184.59723354037305,-68.13648293948876 186.42736055930618,-69.9666099584049 187.09723354039647,-72.46660995840513 186.42736055932937,-74.96660995841157 184.5972335404132,-76.79673697734468 182.097233540413,-77.46660995843497 179.59723354040656,-76.79673697736786 177.76710652147344,-74.96660995845171 177.09723354038314,-72.46660995845149 177.76710652145024,-69.96660995844505 179.5972335403664,-68.13648293951194 182.09723354036663,-67.46660995842164" stroke="#ffa500" stroke-linecap="round" stroke-linejoin="round"/><polyline fill="none" points="45.59279458555261,30.12316823713745 48.09279458555905,29.453295256070337 49.92292160449216,27.62316823715419 50.592794585582446,25.123168237153962 49.92292160451534,22.623168237147524 48.092794585599194,20.79304121821441 45.592794585598966,20.12316823712412 43.09279458559253,20.793041218191227 41.26266756665941,22.623168237107375 40.59279458556912,25.1231682371076 41.26266756663623,27.623168237114037 43.092794585552376,29.453295256047152 45.5927945855526,30.123168237137442" stroke="#ffa500" stroke-linecap="round" stroke-linejoin="round"/><polyline fill="none" points="79.56500444415256,18.345563433939045 82.065004444159,17.675690452871937 83.89513146309211,15.84556343395579 84.5650044441824,13.345563433955565 83.8951314631153,10.845563433949128 82.06500444419916,9.01543641501601 79.56500444419893,8.345563433925719 77.0650044441925,9.015436414992825 75.23487742525938,10.845563433908971 74.56500444416909,13.345563433909195 75.23487742523619,15.845563433915633 77.06500444415234,17.67569045284875 79.56500444415256,18.345563433939045" stroke="#ffa500" stroke-linecap="round" stroke-linejoin="round"/><polyline fill="none" points="175.1291293824661,-53.776452193422486 177.6291293824725,-54.446325174489594 179.45925640140564,-56.27645219340574 180.12912938249593,-58.776452193405966 179.45925640142883,-61.2764521934124 177.62912938251267,-63.10657921234552 175.12912938251245,-63.776452193435816 172.629129382506,-63.10657921236871 170.79900236357287,-61.27645219345256 170.12912938248257,-58.776452193452336 170.79900236354968,-56.2764521934459 172.6291293824658,-54.44632517451278 175.12912938246603,-53.776452193422486" stroke="#ffa500" stroke-linecap="round" stroke-linejoin="round"/><polyline fill="none" points="72.11137704556968,32.245711040914436 74.61137704557612,31.57583805984733 76.44150406450925,29.745711040931187 77.11137704559954,27.245711040930964 76.44150406453244,24.745711040924522 74.6113770456163,22.9155840219914 72.11137704561607,22.245711040901103 69.61137704560963,22.915584021968204 67.7812500266765,24.74571104088435 67.11137704558621,27.245711040884572 67.78125002665331,29.745711040891013 69.61137704556945,31.575838059824136 72.11137704556968,32.245711040914436" stroke="#ffa500" stroke-linecap="round" stroke-linejoin="round"/><polyline fill="none" points="112.4317904620235,39.18529067009272 114.93179046202994,38.51541768902562 116.76191748096306,36.685290670109474 117.43179046205336,34.18529067010925 116.76191748098626,31.685290670102805 114.93179046207011,29.855163651169683 112.43179046206988,29.185290670079382 109.93179046206345,29.855163651146484 108.10166344313032,31.685290670062624 107.43179046204001,34.18529067006285 108.10166344310711,36.68529067006929 109.93179046202326,38.51541768900242 112.43179046202349,39.18529067009272" stroke="#ffa500" stroke-linecap="round" stroke-linejoin="round"/><polyline fill="none" points="-47.12488899840423,-24.423907219158668 -44.624888998397786,-25.093780200225765 -42.79476197946466,-26.923907219141906 -42.12488899837436,-29.42390721914213 -42.79476197944146,-31.92390721914857 -44.6248889983576,-33.7540342380817 -47.124888998357825,-34.423907219172 -49.62488899836427,-33.75403423810491 -51.455016017297396,-31.923907219188767 -52.124888998387696,-29.423907219188543 -51.4550160173206,-26.923907219182098 -49.624888998404465,-25.09378020024897 -47.12488899840424,-24.423907219158664" stroke="#ffa500" stroke-linecap="round" stroke-linejoin="round"/><polyline fill="none" points="101.02132231591516,49.95051214897431 103.5213223159216,49.28063916790722 105.35144933485472,47.45051214899108 106.02132231594503,44.95051214899085 105.35144933487793,42.45051214898441 103.52132231596178,40.620385130051275 101.02132231596156,39.95051214896097 98.5213223159551,40.62038513002806 96.69119529702198,42.4505121489442 96.02132231593167,44.950512148944426 96.69119529699877,47.45051214895087 98.52132231591492,49.280639167884004 101.02132231591514,49.95051214897431" stroke="#ffa500" stroke-linecap="round" stroke-linejoin="round"/><polyline fill="none" points="-79.63493584128511,-17.331395969704666 -77.13493584127866,-18.00126895077176 -75.30480882234554,-19.831395969687897 -74.63493584125523,-22.33139596968812 -75.30480882232231,-24.831395969694565 -77.13493584123846,-26.661522988627695 -79.63493584123869,-27.331395969718002 -82.13493584124514,-26.66152298865091 -83.96506286017826,-24.83139596973477 -84.63493584126857,-22.331395969734547 -83.96506286020148,-19.831395969728103 -82.13493584128535,-18.00126895079497 -79.63493584128513,-17.331395969704662" stroke="#008000" stroke-linecap="round" stroke-linejoin="round"/><polyline fill="none" points="-17.559174002069067,68.34895837197698 -15.059174002062623,67.67908539090989 -13.22904698312949,65.84895837199376 -12.55917400203918,63.34895837199353 -13.22904698310627,60.84895837198709 -15.059174002022406,59.018831353053955 -17.55917400202263,58.34895837196365 -20.059174002029074,59.018831353030734 -21.889301020962208,60.84895837194687 -22.55917400205252,63.3489583719471 -21.889301020985428,65.84895837195354 -20.059174002069295,67.67908539088668 -17.55917400206907,68.34895837197699" stroke="#ffa500" stroke-linecap="round" stroke-linejoin="round"/><polyline fill="none" points="58.974203319040704,51.66215287214978 61.47420331904715,50.992279891082696 63.30433033798028,49.16215287216656 63.9742033190706,46.66215287216633 63.30433033800351,44.162152872159886 61.47420331908737,42.33202585322675 58.974203319087145,41.66215287213644 56.4742033190807,42.332025853203525 54.64407630014756,44.16215287211966 53.974203319057246,46.66215287211989 54.64407630012433,49.16215287212634 56.47420331904046,50.99227989105948 58.97420331904069,51.6621528721498" stroke="#ffa500" stroke-linecap="round" stroke-linejoin="round"/><polyline fill="none" points="-36.2751330112434,26.98915456520263 -33.775133011236946,26.319281584135542 -31.945005992303805,24.48915456521941 -31.27513301121349,21.989154565219184 -31.945005992280578,19.489154565212736 -33.77513301119671,17.659027546279596 -36.275133011196935,16.989154565189278 -38.77513301120339,17.65902754625636 -40.60526003013653,19.489154565172495 -41.27513301122684,21.98915456517272 -40.605260030159755,24.48915456517917 -38.775133011243625,26.31928158411231 -36.2751330112434,26.98915456520263" stroke="#ffa500" stroke-linecap="round" stroke-linejoin="round"/><polyline fill="none" points="-124.38436501522546,-1.8252304468828742 -121.884365015219,-2.4951034279499575 -120.05423799628586,-4.325230446866089 -119.38436501519554,-6.825230446866314 -120.05423799626263,-9.325230446872766 -121.88436501517876,-11.155357465805908 -124.38436501517899,-11.825230446896228 -126.88436501518544,-11.155357465829145 -128.7144920341186,-9.325230446913015 -129.3843650152089,-6.82523044691279 -128.71449203414184,-4.325230446906338 -126.88436501522571,-2.495103427973195 -124.38436501522548,-1.825230446882874" stroke="#00f" stroke-linecap="round" stroke-linejoin="round"/><polyline fill="none" points="-73.3456079489765,23.86600077948449 -70.84560794897004,23.19612779841741 -69.0154809300369,21.36600077950128 -68.34560794894658,18.866000779501057 -69.01548093001367,16.366000779494605 -70.8456079489298,14.535873760561461 -73.34560794893002,13.86600077947114 -75.84560794893648,14.53587376053822 -77.67573496786962,16.36600077945435 -78.34560794895994,18.866000779454573 -77.67573496789286,21.366000779461025 -75.84560794897673,23.19612779839417 -73.34560794897651,23.866000779484494" stroke="#00f" stroke-linecap="round" stroke-linejoin="round"/><polyline fill="none" points="-56.34611548450138,41.93040142761388 -53.84611548449493,41.2605284465468 -52.01598846556178,39.43040142763067 -51.34611548447146,36.93040142763044 -52.01598846553854,34.43040142762399 -53.84611548445467,32.600274408690844 -56.3461154844549,31.93040142760052 -58.84611548446135,32.600274408667595 -60.6762425033945,34.430401427583725 -61.34611548448483,36.93040142758395 -60.67624250341775,39.430401427590404 -58.84611548450162,41.26052844652355 -56.34611548450139,41.93040142761388" stroke="#ffa500" stroke-linecap="round" stroke-linejoin="round"/><polyline fill="none" points="-13.882503648103391,88.21588585668545 -11.382503648096936,87.54601287561837 -9.552376629163788,85.71588585670224 -8.882503648073461,83.21588585670202 -9.552376629140538,80.71588585669556 -11.382503648056664,78.88575883776241 -13.882503648056888,78.21588585667209 -16.38250364806334,78.88575883773916 -18.212630666996493,80.71588585665529 -18.88250364808682,83.21588585665552 -18.21263066701975,85.71588585666197 -16.382503648103622,87.54601287559512 -13.882503648103398,88.21588585668546" stroke="#ffa500" stroke-linecap="round" stroke-linejoin="round"/><polyline fill="none" points="6.186112866467051,69.18022108570797 8.686112866473508,68.5103481046409 10.516239885406659,66.68022108572477 11.18611286649699,64.18022108572454 10.516239885429917,61.68022108571808 8.686112866513792,59.850094066784926 6.186112866513568,59.1802210856946 3.6861128665071115,59.85009406676167 1.8559858475739588,61.68022108567779 1.1861128664836267,64.18022108567801 1.8559858475506983,66.68022108568447 3.6861128664668232,68.51034810461762 6.186112866467048,69.18022108570796" stroke="#ffa500" stroke-linecap="round" stroke-linejoin="round"/><polyline fill="none" points="23.37823788346887,22.094358983504282 25.87823788347533,21.42448600243721 27.708364902408483,19.594358983521083 28.378237883498816,17.09435898352086 27.708364902431747,14.5943589835144 25.878237883515624,12.764231964581246 23.3782378835154,12.094358983490912 20.87823788350894,12.764231964557982 19.048110864575786,14.594358983474107 18.37823788348545,17.094358983474333 19.04811086455252,19.59435898348079 20.878237883468643,21.424486002413946 23.378237883468866,22.094358983504282" stroke="#00f" stroke-linecap="round" stroke-linejoin="round"/><polyline fill="none" points="-92.26279063717402,-27.82014813765958 -89.76279063716756,-28.49002111872665 -87.9326636182344,-30.32014813764277 -87.26279063714406,-32.820148137642995 -87.93266361821114,-35.320148137649454 -89.76279063712727,-37.15027515658261 -92.2627906371275,-37.820148137672945 -94.76279063713396,-37.15027515660588 -96.59291765606712,-35.320148137689756 -97.26279063715745,-32.82014813768953 -96.59291765609038,-30.32014813768307 -94.76279063717426,-28.49002111874991 -92.26279063717404,-27.820148137659572" stroke="#00f" stroke-linecap="round" stroke-linejoin="round"/><polyline fill="none" points="-70.83727660659711,106.3464819947142 -68.33727660659065,105.67660901364712 -66.5071495876575,103.84648199473101 -65.83727660656716,101.34648199473078 -66.50714958763423,98.84648199472431 -68.33727660655035,97.01635497579116 -70.83727660655057,96.34648199470082 -73.33727660655704,97.01635497576788 -75.1674036254902,98.846481994684 -75.83727660658053,101.34648199468423 -75.16740362551347,103.84648199469069 -73.33727660659736,105.67660901362385 -70.83727660659713,106.34648199471418" stroke="#ffa500" stroke-linecap="round" stroke-linejoin="round"/><polyline fill="none" points="-55.84456604523886,64.15432493845726 -53.3445660452324,63.4844519573902 -51.514439026299236,61.654324938474076 -50.84456604520889,59.15432493847385 -51.51443902627596,56.65432493846739 -53.34456604519208,54.82419791953423 -55.84456604519231,54.154324938443885 -58.344566045198775,54.82419791951095 -60.17469306413194,56.654324938427074 -60.84456604522228,59.1543249384273 -60.174693064155214,61.65432493843376 -58.34456604523909,63.48445195736692 -55.844566045238864,64.15432493845726" stroke="#ffa500" stroke-linecap="round" stroke-linejoin="round"/><polyline fill="none" points="-61.39272562841676,-30.198936396801862 -58.8927256284103,-30.868809377868924 -57.062598609477135,-32.698936396785044 -56.39272562838679,-35.19893639678527 -57.06259860945385,-37.69893639679174 -58.892725628369966,-39.5290634157249 -61.392725628370194,-40.19893639681524 -63.89272562837666,-39.52906341574818 -65.72285264730982,-37.69893639683207 -66.39272562840017,-35.19893639683184 -65.72285264733311,-32.698936396825374 -63.892725628417,-30.86880937789221 -61.39272562841677,-30.198936396801862" stroke="#f00" stroke-linecap="round" stroke-linejoin="round"/><polyline fill="none" points="33.89203651768421,5.9841926576130415 36.39203651769068,5.314319676545983 38.222163536623846,3.4841926576298654 38.892036517714196,0.9841926576296407 38.22216353664714,-1.5158073423768244 36.39203651773102,-3.345934361309991 33.892036517730794,-4.01580734240034 31.39203651772433,-3.345934361333282 29.56190949879116,-1.5158073424171652 28.89203651770081,0.9841926575830595 29.561909498767868,3.4841926575895252 31.392036517683984,5.314319676522693 33.89203651768421,5.984192657613043" stroke="#008000" stroke-linecap="round" stroke-linejoin="round"/><polyline fill="none" points="-38.75309988945027,76.92934238796516 -36.2530998894438,76.2594694068981 -34.422972870510634,74.42934238798199 -33.753099889420284,71.92934238798176 -34.42297287048734,69.4293423879753 -36.25309988940346,67.59921536904213 -38.753099889403686,66.92934238795178 -41.25309988941015,67.59921536901884 -43.08322690834332,69.42934238793495 -43.75309988943367,71.92934238793518 -43.08322690836661,74.42934238794165 -41.253099889450496,76.25946940687481 -38.75309988945027,76.92934238796516" stroke="#ffa500" stroke-linecap="round" stroke-linejoin="round"/><polyline fill="none" points="-59.27671070296283,73.29209119333136 -56.776710702956365,72.6222182122643 -54.946583684023196,70.79209119334818 -54.276710702932846,68.29209119334796 -54.9465836839999,65.79209119334149 -56.77671070291601,63.96196417440832 -59.27671070291624,63.29209119331797 -61.776710702922706,63.961964174385024 -63.606837721855875,65.79209119330113 -64.27671070294623,68.29209119330136 -63.60683772187918,70.79209119330783 -61.776710702963065,72.622218212241 -59.27671070296284,73.29209119333134" stroke="#ffa500" stroke-linecap="round" stroke-linejoin="round"/><polyline fill="none" points="-70.91590543121053,84.51181701195458 -68.41590543120407,83.84194403088752 -66.5857784122709,82.0118170119714 -65.91590543118055,79.51181701197117 -66.5857784122476,77.01181701196471 -68.41590543116372,75.18168999303154 -70.91590543116395,74.51181701194119 -73.41590543117042,75.18168999300825 -75.24603245010358,77.01181701192436 -75.91590543119393,79.51181701192459 -75.24603245012688,82.01181701193106 -73.41590543121076,83.84194403086423 -70.91590543121053,84.51181701195458" stroke="#00f" stroke-linecap="round" stroke-linejoin="round"/><polyline fill="none" points="-66.19479791124265,37.48803678357231 -63.69479791123618,36.81816380250526 -61.864670892303,34.988036783589145 -61.194797911212646,32.48803678358892 -61.8646708922797,29.988036783582448 -63.69479791119581,28.157909764649276 -66.19479791119603,27.48803678355892 -68.6947979112025,28.15790976462597 -70.52492493013567,29.988036783542082 -71.19479791122603,32.488036783542306 -70.52492493015899,34.98803678354878 -68.69479791124287,36.818163802481955 -66.19479791124265,37.48803678357231" stroke="#00f" stroke-linecap="round" stroke-linejoin="round"/><polyline fill="none" points="-49.44619388944838,86.09646815824634 -46.94619388944191,85.4265951771793 -45.11606687050873,83.59646815826318 -44.446193889418375,81.09646815826295 -45.116066870485426,78.59646815825649 -46.946193889401535,76.7663411393233 -49.44619388940176,76.09646815823294 -51.946193889408235,76.76634113929998 -53.77632090834141,78.5964681582161 -54.44619388943177,81.09646815821633 -53.776320908364724,83.59646815822279 -51.946193889448615,85.42659517715597 -49.44619388944839,86.09646815824634" stroke="#ffa500" stroke-linecap="round" stroke-linejoin="round"/><polyline fill="none" points="58.604355856069446,14.566561769894811 61.10435585607592,13.896688788827763 62.934482875009095,12.066561769911653 63.60435585609946,9.566561769911427 62.934482875032415,7.066561769904955 61.10435585611631,5.236434750971776 58.60435585611608,4.566561769881414 56.104355856109606,5.23643475094846 54.27422883717643,7.06656176986457 53.604355856086066,9.566561769864794 54.27422883715311,12.066561769871267 56.10435585606922,13.896688788804447 58.604355856069446,14.56656176989481" stroke="#00f" stroke-linecap="round" stroke-linejoin="round"/><polyline fill="none" points="-86.6047584318895,6.997364259676105 -84.10475843188303,6.3274912786090605 -82.27463141294984,4.497364259692951 -81.60475843185948,1.9973642596927261 -82.27463141292652,-0.5026357403137474 -84.10475843184264,-2.332762759246928 -86.60475843184287,-3.002635740337293 -89.10475843184935,-2.3327627592702496 -90.93488545078253,-0.502635740354141 -91.6047584318729,1.9973642596460837 -90.93488545080585,4.497364259652557 -89.10475843188975,6.32749127858574 -86.60475843188952,6.997364259676106" stroke="#ffa500" stroke-linecap="round" stroke-linejoin="round"/><polyline fill="none" points="-121.00455870804319,35.367444983597906 -118.50455870803671,34.69757200253086 -116.67443168910353,32.86744498361475 -116.00455870801316,30.36744498361453 -116.67443168908021,27.867444983608053 -118.50455870799631,26.03731796467487 -121.00455870799654,25.3674449835845 -123.50455870800302,26.037317964651542 -125.3346857269362,27.86744498356765 -126.00455870802656,30.367444983567875 -125.33468572695952,32.86744498357435 -123.50455870804342,34.697572002507535 -121.00455870804319,35.367444983597906" stroke="#ffa500" stroke-linecap="round" stroke-linejoin="round"/><polyline fill="none" points="-105.95799026271814,-12.20892133207521 -103.45799026271166,-12.878794313142249 -101.62786324377848,-14.708921332058356 -100.95799026268811,-17.20892133205858 -101.62786324375516,-19.708921332065056 -103.45799026267126,-21.539048350998243 -105.95799026267149,-22.208921332088615 -108.45799026267797,-21.539048351021577 -110.28811728161115,-19.708921332105472 -110.95799026270151,-17.20892133210525 -110.28811728163447,-14.708921332098772 -108.45799026271837,-12.878794313165585 -105.95799026271814,-12.208921332075214" stroke="#ffa500" stroke-linecap="round" stroke-linejoin="round"/><polyline fill="none" points="-70.58696363515158,-57.04961060130189 -68.0869636351451,-57.71948358236893 -66.25683661621191,-59.54961060128504 -65.58696363512153,-62.049610601285266 -66.25683661618856,-64.54961060129175 -68.08696363510467,-66.37973762022493 -70.5869636351049,-67.04961060131531 -73.08696363511137,-66.37973762024828 -74.91709065404456,-64.54961060133218 -75.58696363513494,-62.04961060133195 -74.9170906540679,-59.54961060132547 -73.0869636351518,-57.71948358239228 -70.58696363515158,-57.04961060130191" stroke="#00f" stroke-linecap="round" stroke-linejoin="round"/><polyline fill="none" points="-77.70757814133508,42.33005301105286 -75.2075781413286,41.660180029985824 -73.37745112239541,39.83005301106972 -72.70757814130504,37.330053011069495 -73.37745112237207,34.830053011063015 -75.20757814128817,32.999925992129825 -77.7075781412884,32.33005301103945 -80.20757814129487,32.99992599210649 -82.03770516022806,34.83005301102259 -82.70757814131844,37.33005301102282 -82.0377051602514,39.8300530110293 -80.2075781413353,41.66018002996249 -77.70757814133508,42.33005301105287" stroke="#ffa500" stroke-linecap="round" stroke-linejoin="round"/><polyline fill="none" points="-93.78792213359668,-58.2272143917954 -91.2879221335902,-58.89708737286243 -89.457795114657,-60.72721439177853 -88.78792213356662,-63.22721439177876 -89.45779511463365,-65.72721439178524 -91.28792213354976,-67.55734141071844 -93.78792213354998,-68.22721439180881 -96.28792213355646,-67.55734141074178 -98.11804915248966,-65.72721439182568 -98.78792213358004,-63.227214391825456 -98.11804915251301,-60.727214391818976 -96.28792213359691,-58.89708737288578 -93.78792213359668,-58.2272143917954" stroke="#ffa500" stroke-linecap="round" stroke-linejoin="round"/><polyline fill="none" points="8.085049915803648,30.537701793478725 10.585049915810128,29.867828812411695 12.415176934743322,28.037701793495593 13.085049915833702,25.53770179349537 12.415176934766672,23.03770179348889 10.585049915850572,21.207574774555695 8.085049915850348,20.537701793465313 5.585049915843866,21.207574774532343 3.7549228969106703,23.037701793448445 3.085049915820288,25.53770179344867 3.7549228968873165,28.037701793455152 5.585049915803417,29.86782881238835 8.08504991580364,30.537701793478732" stroke="#ffa500" stroke-linecap="round" stroke-linejoin="round"/><polyline fill="none" points="-35.78275649638014,50.72320628171095 -33.28275649637366,50.05333330064392 -31.45262947744046,48.22320628172782 -30.78275649635008,45.72320628172759 -31.452629477417105,43.22320628172111 -33.28275649633321,41.393079262787914 -35.782756496333434,40.72320628169753 -38.282756496339914,41.39307926276456 -40.11288351527311,43.22320628168066 -40.7827564963635,45.72320628168089 -40.112883515296474,48.22320628168737 -38.28275649638037,50.053333300620565 -35.782756496380145,50.72320628171095" stroke="#00f" stroke-linecap="round" stroke-linejoin="round"/><polyline fill="none" points="-58.2146335840061,20.489022026607906 -55.714633583999614,19.81914904554088 -53.88450656506642,17.98902202662478 -53.21463358397603,15.489022026624557 -53.884506565043054,12.989022026618073 -55.714633583959156,11.158895007684873 -58.21463358395938,10.489022026594485 -60.71463358396587,11.15889500766151 -62.54476060289907,12.989022026577608 -63.21463358398945,15.489022026577832 -62.54476060292243,17.989022026584315 -60.714633584006336,19.819149045517516 -58.21463358400611,20.489022026607906" stroke="#00f" stroke-linecap="round" stroke-linejoin="round"/><polyline fill="none" points="-67.06499522288216,-21.459285049324 -64.56499522287568,-22.12915803039102 -62.734868203942476,-23.95928504930712 -62.06499522285209,-26.459285049307343 -62.73486820391911,-28.95928504931383 -64.56499522283521,-30.78941206824703 -67.06499522283544,-31.45928504933742 -69.56499522284192,-30.789412068270398 -71.39512224177511,-28.9592850493543 -72.0649952228655,-26.459285049354072 -71.39512224179849,-23.959285049347585 -69.56499522288239,-22.12915803041438 -67.06499522288216,-21.459285049323988" stroke="#00f" stroke-linecap="round" stroke-linejoin="round"/><polyline fill="none" points="-92.30141036163671,99.79948177846049 -89.80141036163023,99.12960879739347 -87.97128334269703,97.29948177847737 -87.30141036160664,94.79948177847714 -87.97128334267366,92.29948177847066 -89.80141036158976,90.46935475953745 -92.30141036158999,89.79948177844706 -94.80141036159648,90.46935475951408 -96.63153738052969,92.29948177843018 -97.30141036162009,94.7994817784304 -96.63153738055307,97.2994817784369 -94.80141036163697,99.12960879737011 -92.30141036163674,99.7994817784605" stroke="#ffa500" stroke-linecap="round" stroke-linejoin="round"/><polyline fill="none" points="-148.95184306796676,-49.166858804804214 -146.45184306796028,-49.83673178587123 -144.62171604902707,-51.666858804787324 -143.95184306793666,-54.16685880478755 -144.62171604900368,-56.66685880479404 -146.45184306791978,-58.49698582372724 -148.95184306792,-59.166858804817636 -151.4518430679265,-58.49698582375062 -153.2819700868597,-56.666858804834526 -153.9518430679501,-54.1668588048343 -153.2819700868831,-51.66685880482781 -151.451843067967,-49.8367317858946 -148.95184306796676,-49.16685880480421" stroke="#ffa500" stroke-linecap="round" stroke-linejoin="round"/><polyline fill="none" points="-48.67991633068962,54.29516629712535 -46.179916330683135,53.62529331605833 -44.34978931174992,51.79516629714224 -43.67991633065952,49.29516629714201 -44.34978931172654,46.79516629713552 -46.179916330642634,44.96503927820231 -48.67991633064286,44.29516629711191 -51.17991633064935,44.96503927817893 -53.01004334958256,46.79516629709502 -53.67991633067296,49.29516629709525 -53.010043349605944,51.795166297101744 -51.17991633068985,53.625293316034956 -48.67991633068962,54.295166297125355" stroke="#ffa500" stroke-linecap="round" stroke-linejoin="round"/><polyline fill="none" points="-97.56263701261948,91.30913766873589 -95.06263701261298,90.63926468766887 -93.23250999367977,88.80913766875278 -92.56263701258936,86.30913766875256 -93.23250999365638,83.80913766874606 -95.06263701257247,81.97901064981285 -97.5626370125727,81.30913766872244 -100.06263701257919,81.97901064978946 -101.8927640315124,83.80913766870555 -102.5626370126028,86.30913766870577 -101.89276403153579,88.80913766871227 -100.0626370126197,90.63926468764548 -97.56263701261948,91.30913766873589" stroke="#ffa500" stroke-linecap="round" stroke-linejoin="round"/><polyline fill="none" points="-46.82766349258135,-12.68136382840656 -44.32766349257486,-13.351236809473571 -42.497536473641645,-15.18136382838966 -41.82766349255124,-17.681363828389884 -42.49753647361825,-20.18136382839638 -44.327663492534334,-22.011490847329593 -46.82766349253456,-22.681363828419997 -49.327663492541056,-22.011490847352988 -51.157790511474275,-20.1813638284369 -51.82766349256468,-17.681363828436677 -51.15779051149767,-15.181363828430182 -49.327663492581586,-13.351236809496966 -46.82766349258136,-12.68136382840656" stroke="#00f" stroke-linecap="round" stroke-linejoin="round"/><polyline fill="none" points="-120.5204721053983,-46.78029546142466 -118.0204721053918,-47.450168442491666 -116.19034508645859,-49.28029546140775 -115.52047210536819,-51.78029546140798 -116.19034508643519,-54.280295461414475 -118.02047210535127,-56.110422480347694 -120.5204721053515,-56.7802954614381 -123.020472105358,-56.11042248037109 -124.85059912429121,-54.280295461455005 -125.52047210538161,-51.78029546145478 -124.85059912431461,-49.28029546144828 -123.02047210539853,-47.450168442515064 -120.5204721053983,-46.78029546142466" stroke="#00f" stroke-linecap="round" stroke-linejoin="round"/><polyline fill="none" points="-52.78158135812134,-65.7658519709306 -50.28158135811485,-66.4357249519976 -48.45145433918163,-68.26585197091369 -47.78158135809122,-70.76585197091391 -48.451454339158225,-73.26585197092041 -50.28158135807431,-75.09597898985363 -52.78158135807454,-75.76585197094404 -55.281581358081034,-75.09597898987704 -57.11170837701425,-73.26585197096095 -57.78158135810466,-70.76585197096072 -57.11170837703766,-68.26585197095423 -55.28158135812157,-66.435724952021 -52.78158135812134,-65.7658519709306" stroke="#ffa500" stroke-linecap="round" stroke-linejoin="round"/><polyline fill="none" points="-83.76391601471748,23.410187256122253 -81.26391601471099,22.74031427505525 -79.43378899577776,20.910187256139167 -78.76391601468735,18.410187256138943 -79.43378899575436,15.910187256132446 -81.26391601467044,14.080060237199223 -83.76391601467067,13.410187256108811 -86.26391601467716,14.080060237175813 -88.09404303361039,15.910187256091898 -88.7639160147008,18.410187256092122 -88.0940430336338,20.91018725609862 -86.26391601471771,22.740314275031842 -83.76391601471748,23.410187256122256" stroke="#ffa500" stroke-linecap="round" stroke-linejoin="round"/><polyline fill="none" points="-98.87655369667164,75.94380967029302 -96.37655369666514,75.27393668922602 -94.54642667773192,73.44380967030993 -93.8765536966415,70.9438096703097 -94.5464266777085,68.44380967030321 -96.37655369662458,66.61368265136998 -98.87655369662481,65.94380967027956 -101.3765536966313,66.61368265134656 -103.20668071556453,68.44380967026265 -103.87655369665495,70.94380967026288 -103.20668071558795,73.44380967026937 -101.37655369667186,75.2739366892026 -98.87655369667164,75.94380967029302" stroke="#ffa500" stroke-linecap="round" stroke-linejoin="round"/><polyline fill="none" points="-12.235793062190474,21.96195025927189 -9.735793062183975,21.292077278204893 -7.905666043250749,19.46195025928881 -7.235793062160332,16.961950259288585 -7.905666043227331,14.461950259282085 -9.735793062143413,12.63182324034886 -12.235793062143639,11.961950259258442 -14.735793062150139,12.63182324032544 -16.565920081083366,14.461950259241522 -17.235793062173784,16.961950259241746 -16.565920081106785,19.461950259248248 -14.735793062190703,21.292077278181477 -12.235793062190478,21.961950259271894" stroke="#00f" stroke-linecap="round" stroke-linejoin="round"/><polyline fill="none" points="-132.9135206228714,10.104756447208137 -130.4135206228649,9.434883466141141 -128.58339360393165,7.604756447225059 -127.91352062284123,5.104756447224834 -128.58339360390823,2.6047564472183335 -130.4135206228243,0.7746294282851056 -132.91352062282454,0.10475644719468669 -135.41352062283104,0.7746294282616834 -137.24364764176428,2.604756447177765 -137.9135206228547,5.10475644717799 -137.2436476417877,7.60475644718449 -135.41352062287163,9.43488346611772 -132.9135206228714,10.104756447208139" stroke="#ffa500" stroke-linecap="round" stroke-linejoin="round"/><polyline fill="none" points="-78.30048016096626,-29.770322734747772 -75.80048016095975,-30.440195715814767 -73.97035314202653,-32.27032273473085 -73.3004801609361,-34.770322734731074 -73.9703531420031,-37.270322734737576 -75.8004801609192,-39.10044975367081 -78.30048016091942,-39.77032273476123 -80.80048016092593,-39.100449753694235 -82.63060717985915,-37.270322734778155 -83.30048016094958,-34.77032273477793 -82.63060717988259,-32.270322734771426 -80.80048016096652,-30.440195715838193 -78.30048016096629,-29.770322734747772" stroke="#00f" stroke-linecap="round" stroke-linejoin="round"/><polyline fill="none" points="-151.49062338355188,-70.90478109247437 -148.99062338354537,-71.57465407354135 -147.16049636461213,-73.40478109245743 -146.4906233835217,-75.90478109245765 -147.16049636458868,-78.40478109246416 -148.99062338350475,-80.23490811139739 -151.49062338350498,-80.90478109248781 -153.9906233835115,-80.23490811142082 -155.82075040244473,-78.40478109250475 -156.49062338353517,-75.90478109250452 -155.82075040246818,-73.40478109249801 -153.9906233835521,-71.57465407356477 -151.49062338355188,-70.90478109247435" stroke="#ffa500" stroke-linecap="round" stroke-linejoin="round"/><polyline fill="none" points="-89.68558626475992,-37.7969053331429 -87.18558626475341,-38.4667783142099 -85.35545924582017,-40.29690533312598 -84.68558626472975,-42.796905333126205 -85.35545924579674,-45.296905333132706 -87.18558626471281,-47.12703235206594 -89.68558626471304,-47.79690533315637 -92.18558626471955,-47.12703235208938 -94.01571328365279,-45.2969053331733 -94.68558626474321,-42.79690533317307 -94.01571328367622,-40.29690533316656 -92.18558626476015,-38.46677831423333 -89.68558626475992,-37.7969053331429" stroke="#008000" stroke-linecap="round" stroke-linejoin="round"/><polyline fill="none" points="-42.312842481133245,35.33918485892939 -39.81284248112674,34.669311877862405 -37.982715462193504,32.839184858946325 -37.312842481103075,30.3391848589461 -37.98271546217006,27.839184858939596 -39.812842481086136,26.00905784000636 -42.31284248108636,25.33918485891593 -44.81284248109287,26.00905783998292 -46.64296950002611,27.839184858898996 -47.31284248111654,30.33918485889922 -46.64296950004955,32.839184858905725 -44.81284248113348,34.669311877838965 -42.31284248113325,35.33918485892939" stroke="#ffa500" stroke-linecap="round" stroke-linejoin="round"/><polyline fill="none" points="-1.6032836711856602,-6.53093349384384 0.8967163288208462,-7.200806474910826 2.7268433477540848,-9.030933493826902 3.396716328844516,-11.530933493827128 2.72684334777753,-14.030933493833635 0.8967163288614548,-15.861060512766873 -1.60328367113877,-16.530933493857304 -4.103283671145277,-15.861060512790319 -5.933410690078517,-14.030933493874244 -6.60328367116895,-11.53093349387402 -5.933410690101965,-9.030933493867511 -4.10328367118589,-7.2008064749342715 -1.6032836711856655,-6.530933493843838" stroke="#ffa500" stroke-linecap="round" stroke-linejoin="round"/><polyline fill="none" points="-118.21159280794106,-53.241689817749304 -115.71159280793455,-53.91156279881629 -113.88146578900131,-55.741689817732365 -113.21159280791088,-58.24168981773259 -113.88146578897786,-60.7416898177391 -115.71159280789394,-62.57181683667234 -118.21159280789416,-63.241689817762776 -120.71159280790067,-62.571816836695795 -122.54171982683391,-60.74168981777972 -123.21159280792435,-58.241689817779495 -122.54171982685736,-55.741689817772986 -120.71159280794129,-53.911562798839746 -118.21159280794106,-53.24168981774931" stroke="#ffa500" stroke-linecap="round" stroke-linejoin="round"/><polyline fill="none" points="-112.5612475313037,-37.114246857845586 -110.0612475312972,-37.78411983891257 -108.23112051236396,-39.61424685782864 -107.56124753127352,-42.11424685782887 -108.23112051234051,-44.614246857835376 -110.06124753125658,-46.44437387676862 -112.56124753125681,-47.11424685785906 -115.06124753126332,-46.44437387679208 -116.89137455019656,-44.614246857876005 -117.561247531287,-42.11424685787578 -116.89137455022002,-39.61424685786927 -115.06124753130395,-37.78411983893602 -112.56124753130372,-37.114246857845586" stroke="#00f" stroke-linecap="round" stroke-linejoin="round"/><polyline fill="none" points="-79.86746460919116,-83.43319607659699 -77.36746460918465,-84.10306905766396 -75.53733759025141,-85.93319607658003 -74.86746460916098,-88.43319607658026 -75.53733759022795,-90.93319607658677 -77.36746460914402,-92.76332309552001 -79.86746460914425,-93.43319607661044 -82.36746460915076,-92.76332309554347 -84.197591628084,-90.9331960766274 -84.86746460917443,-88.43319607662717 -84.19759162810746,-85.93319607662066 -82.36746460919139,-84.1030690576874 -79.86746460919116,-83.43319607659697" stroke="#ffa500" stroke-linecap="round" stroke-linejoin="round"/><polyline fill="none" points="-57.047755776871874,-50.34167289629852 -54.547755776865365,-51.0115458773655 -52.71762875793212,-52.84167289628157 -52.047755776841676,-55.3416728962818 -52.717628757908656,-57.841672896288316 -54.54775577682473,-59.67179991522156 -57.04775577682496,-60.341672896312005 -59.54775577683147,-59.67179991524503 -61.37788279576472,-57.84167289632896 -62.04775577685516,-55.34167289632873 -61.37788279578819,-52.841672896322216 -59.54775577687212,-51.01154587738897 -57.047755776871895,-50.341672896298526" stroke="#008000" stroke-linecap="round" stroke-linejoin="round"/><polyline fill="none" points="-75.95784438071742,-3.5972909897776653 -73.45784438071091,-4.26716397084464 -71.62771736177766,-6.097290989760709 -70.9578443806872,-8.597290989760934 -71.62771736175418,-11.097290989767448 -73.45784438067025,-12.927418008700698 -75.95784438067048,-13.597290989791142 -78.45784438067699,-12.927418008724167 -80.28797139961024,-11.097290989808098 -80.95784438070069,-8.597290989807874 -80.28797139963372,-6.09729098980136 -78.45784438071765,-4.267163970868109 -75.95784438071742,-3.5972909897776626" stroke="#ffa500" stroke-linecap="round" stroke-linejoin="round"/><polyline fill="none" points="-128.10991371072723,-14.3620591857702 -125.60991371072072,-15.031932166837173 -123.77978669178746,-16.86205918575324 -123.10991371069701,-19.362059185753463 -123.77978669176399,-21.86205918575998 -125.60991371068006,-23.69218620469323 -128.10991371068027,-24.362059185783675 -130.60991371068678,-23.692186204716702 -132.44004072962002,-21.862059185800636 -133.10991371071046,-19.362059185800412 -132.4400407296435,-16.862059185793896 -130.60991371072743,-15.031932166860642 -128.1099137107272,-14.362059185770194" stroke="#ffa500" stroke-linecap="round" stroke-linejoin="round"/><polyline fill="none" points="35.15731277916471,-27.997835506680303 37.65731277917123,-28.667708487747273 39.48743979810448,-30.49783550666334 40.15731277919493,-32.99783550666356 39.48743979812796,-35.49783550667008 37.65731277921189,-37.32796252560333 35.157312779211665,-37.99783550669378 32.65731277920515,-37.327962525626816 30.827185760271895,-35.49783550671075 30.157312779181446,-32.99783550671052 30.827185760248415,-30.497835506704007 32.65731277916448,-28.66770848777075 35.157312779164705,-27.997835506680296" stroke="#ffa500" stroke-linecap="round" stroke-linejoin="round"/><polyline fill="none" points="-140.8824387336711,-61.934670612554626 -138.3824387336646,-62.60454359362159 -136.55231171473133,-64.43467061253766 -135.88243873364087,-66.93467061253789 -136.55231171470783,-69.43467061254441 -138.3824387336239,-71.26479763147766 -140.88243873362413,-71.93467061256811 -143.38243873363064,-71.26479763150114 -145.2125657525639,-69.43467061258508 -145.88243873365437,-66.93467061258485 -145.2125657525874,-64.43467061257833 -143.38243873367134,-62.60454359364507 -140.8824387336711,-61.93467061255461" stroke="#00f" stroke-linecap="round" stroke-linejoin="round"/><polyline fill="none" points="19.436638820089215,-26.261854694873104 21.936638820095734,-26.93172767594007 23.76676583902899,-28.761854694856133 24.436638820119445,-31.261854694856357 23.76676583905248,-33.761854694862876 21.936638820136416,-35.59198171379614 19.436638820136192,-36.261854694886594 16.936638820129673,-35.59198171381963 15.106511801196413,-33.76185469490356 14.436638820105957,-31.261854694903338 15.106511801172921,-28.76185469489682 16.936638820088984,-26.931727675963558 19.436638820089208,-26.2618546948731" stroke="#00f" stroke-linecap="round" stroke-linejoin="round"/><polyline fill="none" points="-61.54519933621814,-36.906665902378755 -59.04519933621162,-37.57653888344572 -57.215072317278356,-39.40666590236179 -56.5451993361879,-41.906665902362015 -57.215072317254865,-44.40666590236854 -59.045199336170924,-46.2367929213018 -61.54519933617115,-46.906665902392255 -64.04519933617767,-46.236792921325296 -65.87532635511094,-44.40666590240924 -66.5451993362014,-41.90666590240901 -65.87532635513445,-39.40666590240249 -64.04519933621839,-37.576538883469226 -61.54519933621816,-36.90666590237877" stroke="#ffa500" stroke-linecap="round" stroke-linejoin="round"/><polyline fill="none" points="-77.11090287359862,-38.4160153682907 -74.6109028735921,-39.08588834935766 -72.78077585465883,-40.91601536827372 -72.11090287356836,-43.416015368273946 -72.78077585463532,-45.91601536828047 -74.61090287355138,-47.74614238721373 -77.11090287355161,-48.416015368304194 -79.61090287355813,-47.746142387237235 -81.4410298924914,-45.916015368321176 -82.11090287358186,-43.41601536832095 -81.4410298925149,-40.916015368314426 -79.61090287359885,-39.08588834938116 -77.11090287359862,-38.416015368290694" stroke="#ffa500" stroke-linecap="round" stroke-linejoin="round"/><polyline fill="none" points="-115.63800470852958,-22.564962779060725 -113.13800470852306,-23.234835760127684 -111.30787768958979,-25.064962779043743 -110.63800470849932,-27.564962779043967 -111.30787768956628,-30.06496277905049 -113.13800470848234,-31.895089797983758 -115.63800470848257,-32.56496277907422 -118.13800470848909,-31.895089798007263 -119.96813172742236,-30.064962779091204 -120.63800470851282,-27.56496277909098 -119.96813172744586,-25.064962779084457 -118.1380047085298,-23.23483576015119 -115.63800470852958,-22.564962779060725" stroke="#ffa500" stroke-linecap="round" stroke-linejoin="round"/><polyline fill="none" points="-79.69087454197499,-53.826807379195365 -77.19087454196847,-54.496680360262324 -75.3607475230352,-56.32680737917838 -74.69087454194474,-58.82680737917861 -75.3607475230117,-61.326807379185134 -77.19087454192776,-63.1569343981184 -79.69087454192798,-63.826807379208866 -82.1908745419345,-63.156934398141914 -84.02100156086777,-61.326807379225855 -84.69087454195824,-58.82680737922563 -84.02100156089128,-56.326807379219105 -82.19087454197522,-54.496680360285836 -79.69087454197499,-53.826807379195365" stroke="#00f" stroke-linecap="round" stroke-linejoin="round"/><polyline fill="none" points="-14.377423132813991,51.737604748939084 -11.877423132807467,51.06773176787213 -10.047296113874197,49.23760474895607 -9.377423132783727,46.737604748955846 -10.047296113850681,44.23760474894932 -11.877423132766737,42.407477730016055 -14.37742313276696,41.737604748925584 -16.877423132773487,42.407477729992536 -18.70755015170676,44.237604748908595 -19.37742313279723,46.73760474890882 -18.707550151730278,49.237604748915345 -16.877423132814222,51.06773176784862 -14.377423132813998,51.73760474893909" stroke="#00f" stroke-linecap="round" stroke-linejoin="round"/><polyline fill="none" points="-56.665016740938434,9.575751545988972 -54.165016740931904,8.90587856492202 -52.33488972199863,7.0757515460059635 -51.66501674090816,4.575751546005738 -52.33488972197511,2.07575154599921 -54.16501674089117,0.24562452706593607 -56.665016740891396,-0.42424845402453615 -59.165016740897926,0.24562452704241455 -60.9951437598312,2.07575154595847 -61.66501674092167,4.5757515459586955 -60.99514375985472,7.075751545965224 -59.16501674093867,8.905878564898499 -56.66501674093844,9.575751545988972" stroke="#ffa500" stroke-linecap="round" stroke-linejoin="round"/><polyline fill="none" points="-63.51839231893602,-9.186488266517964 -61.01839231892949,-9.856361247584914 -59.18826529999622,-11.68648826650097 -58.51839231890575,-14.186488266501195 -59.1882652999727,-16.686488266507723 -61.01839231888875,-18.516615285441 -63.51839231888898,-19.186488266531473 -66.01839231889551,-18.516615285464525 -67.84851933782879,-16.68648826654847 -68.51839231891927,-14.186488266548245 -67.84851933785232,-11.686488266541717 -66.01839231893626,-9.85636124760844 -63.51839231893604,-9.186488266517964" stroke="#008000" stroke-linecap="round" stroke-linejoin="round"/><polyline fill="none" points="-110.68168813289626,-66.0579990274469 -108.18168813288973,-66.72787200851384 -106.35156111395645,-68.5579990274299 -105.68168813286597,-71.05799902743013 -106.35156111393292,-73.55799902743665 -108.18168813284898,-75.38812604636993 -110.6816881328492,-76.05799902746041 -113.18168813285573,-75.38812604639347 -115.01181515178901,-73.55799902747741 -115.68168813287949,-71.05799902747718 -115.01181515181254,-68.55799902747066 -113.18168813289648,-66.72787200853737 -110.68168813289626,-66.0579990274469" stroke="#ffa500" stroke-linecap="round" stroke-linejoin="round"/><polyline fill="none" points="151.64622843473606,-99.40302985993068 154.1462284347426,-100.07290284099763 155.97635545367586,-101.90302985991369 156.64622843476636,-104.40302985991391 155.97635545369943,-106.90302985992045 154.14622843478338,-108.73315687885373 151.64622843478315,-109.40302985994421 149.14622843477662,-108.73315687887727 147.31610141584335,-106.90302985996122 146.64622843475286,-104.403029859961 147.3161014158198,-101.90302985995446 149.14622843473583,-100.07290284102118 151.64622843473606,-99.4030298599307" stroke="#ffa500" stroke-linecap="round" stroke-linejoin="round"/></svg>