<?xml version="1.0" ?><!DOCTYPE svg  PUBLIC '-//W3C//DTD SVG 1.1//EN'  'http://www.w3.org/Graphics/SVG/1.1/DTD/svg11.dtd'><svg height="365.000" viewBox="-199.000 -170.000 394.000 365.000" width="394.000" xmlns="http://www.w3.org/2000/svg"><line fill="none" stroke="none" stroke-linecap="round" stroke-width="2.0" x1="0.0" x2="0.0" y1="0.0" y2="0.0"/><polygon fill="none" fill-rule="evenodd" points="0.0,0.0 0.0,0.0 0.0,0.0" stroke-linejoin="round"/><polyline fill="none" points="13.573949333237074,-30.26563319090068 16.073949333243604,-30.935506171967624 17.904076352176887,-32.765633190883676 18.573949333267368,-35.265633190883904 17.904076352200427,-37.76563319089043 16.073949333284375,-39.595760209823716 13.573949333284151,-40.2656331909142 11.07394933327762,-39.595760209847256 9.243822314344337,-37.765633190931204 8.573949333253854,-35.26563319093098 9.243822314320795,-32.76563319092445 11.073949333236845,-30.935506171991165 13.57394933323707,-30.265633190900683" stroke="#ffa500" stroke-linecap="round" stroke-linejoin="round"/><polyline fill="none" points="23.946761355125204,15.774639334637369 26.446761355131738,15.104766353570428 28.27688837406502,13.274639334654378 28.946761355155505,10.774639334654154 28.276888374088564,8.27463933464762 26.446761355172516,6.444512315714336 23.946761355172292,5.774639334623852 21.44676135516576,6.444512315690792 19.616634336232472,8.27463933460684 18.946761355141987,10.774639334607064 19.616634336208925,13.274639334613598 21.446761355124973,15.104766353546882 23.946761355125197,15.774639334637367" stroke="#ffa500" stroke-linecap="round" stroke-linejoin="round"/><polyline fill="none" points="-13.173036313977363,-38.29975585761674 -10.67303631397083,-38.969628838683676 -8.842909295037543,-40.79975585759972 -8.173036313947057,-43.29975585759995 -8.842909295013994,-45.799755857606485 -10.673036313930043,-47.629882876539774 -13.173036313930268,-48.29975585763026 -15.673036313936803,-47.62988287656332 -17.50316333287009,-45.79975585764728 -18.17303631396058,-43.29975585764705 -17.503163332893642,-40.79975585764051 -15.673036313977596,-38.96962883870722 -13.17303631397737,-38.29975585761674" stroke="#ffa500" stroke-linecap="round" stroke-linejoin="round"/><polyline fill="none" points="-60.41284891952039,-48.71924563850807 -57.912848919513856,-49.38911861957501 -56.082721900580566,-51.21924563849105 -55.412848919490074,-53.71924563849128 -56.08272190055701,-56.21924563849782 -57.912848919473056,-58.04937265743111 -60.412848919473284,-58.7192456385216 -62.91284891947982,-58.04937265745466 -64.74297593841311,-56.21924563853862 -65.4128489195036,-53.71924563853839 -64.74297593843667,-51.21924563853185 -62.91284891952063,-49.38911861959856 -60.4128489195204,-48.71924563850807" stroke="#ffa500" stroke-linecap="round" stroke-linejoin="round"/><polyline fill="none" points="-43.53682405245078,14.989344932231612 -41.036824052444246,14.319471951164678 -39.206697033510956,12.489344932248631 -38.536824052420464,9.989344932248406 -39.2066970334874,7.489344932241868 -41.036824052403446,5.659217913308576 -43.536824052403674,4.989344932218084 -46.03682405241021,5.659217913285017 -47.8669510713435,7.489344932201063 -48.53682405243399,9.989344932201288 -47.86695107136706,12.489344932207826 -46.03682405245102,14.31947195114112 -43.53682405245079,14.989344932231614" stroke="#00f" stroke-linecap="round" stroke-linejoin="round"/><polyline fill="none" points="-89.09702122929855,-70.76727535246597 -86.59702122929201,-71.4371483335329 -84.76689421035871,-73.26727535244895 -84.09702122926822,-75.76727535244918 -84.76689421033515,-78.26727535245571 -86.5970212292512,-80.09740237138901 -89.09702122925142,-80.7672753524795 -91.59702122925796,-80.09740237141257 -93.42714824819126,-78.26727535249653 -94.09702122928175,-75.7672753524963 -93.42714824821482,-73.26727535248976 -91.59702122929878,-71.43714833355646 -89.09702122929855,-70.76727535246597" stroke="#00f" stroke-linecap="round" stroke-linejoin="round"/><polyline fill="none" points="156.45022545757362,-93.16494204293366 158.95022545758016,-93.83481502400059 160.78035247651346,-95.66494204291664 161.45022545760395,-98.16494204291686 160.78035247653702,-100.6649420429234 158.95022545762097,-102.4950690618567 156.45022545762075,-103.16494204294719 153.9502254576142,-102.49506906188026 152.1200984386809,-100.66494204296421 151.45022545759042,-98.16494204296399 152.12009843865735,-95.66494204295745 153.9502254575734,-93.83481502402415 156.45022545757362,-93.16494204293366" stroke="#ffa500" stroke-linecap="round" stroke-linejoin="round"/><polyline fill="none" points="61.61842690729329,-149.27866427739426 64.11842690729983,-149.9485372584612 65.94855392623313,-151.77866427737723 66.61842690732364,-154.27866427737746 65.94855392625671,-156.778664277384 64.11842690734066,-158.6087912963173 61.618426907340435,-159.27866427740778 59.11842690733389,-158.60879129634085 57.288299888400594,-156.7786642774248 56.618426907310095,-154.27866427742458 57.28829988837702,-151.77866427741805 59.118426907293056,-149.94853725848475 61.61842690729328,-149.27866427739426" stroke="#ffa500" stroke-linecap="round" stroke-linejoin="round"/><polyline fill="none" points="-178.07736244791317,-40.97907982018473 -175.57736244790664,-41.64895280125165 -173.74723542897334,-43.47907982016769 -173.07736244788285,-45.97907982016792 -173.74723542894978,-48.47907982017446 -175.57736244786582,-50.309206839107766 -178.07736244786605,-50.979079820198265 -180.5773624478726,-50.30920683913134 -182.40748946680588,-48.479079820215304 -183.07736244789638,-45.97907982021508 -182.40748946682945,-43.47907982020853 -180.5773624479134,-41.64895280127523 -178.07736244791317,-40.97907982018472" stroke="#00f" stroke-linecap="round" stroke-linejoin="round"/><polyline fill="none" points="-51.29804750691189,119.49324046442216 -48.79804750690535,118.82336748335524 -46.967920487972044,116.9932404644392 -46.29804750688154,114.49324046443897 -46.96792048794846,111.99324046443243 -48.7980475068645,110.16311344549914 -51.29804750686473,109.49324046440863 -53.79804750687127,110.16311344547555 -55.628174525804575,111.99324046439159 -56.29804750689508,114.49324046439182 -55.62817452582816,116.99324046439837 -53.79804750691212,118.82336748333168 -51.29804750691189,119.49324046442219" stroke="#00f" stroke-linecap="round" stroke-linejoin="round"/><polyline fill="none" points="146.52836262319317,96.45601926677273 149.0283626231997,95.78614628570581 150.858489642133,93.95601926678978 151.52836262322353,91.45601926678955 150.8584896421566,88.956019266783 149.02836262324055,87.12589224784969 146.52836262324033,86.45601926675918 144.0283626232338,87.1258922478261 142.1982356043005,88.95601926674213 141.52836262320997,91.45601926674236 142.1982356042769,93.95601926674891 144.02836262319295,95.78614628568222 146.52836262319317,96.45601926677273" stroke="#ffa500" stroke-linecap="round" stroke-linejoin="round"/><polyline fill="none" points="152.85554129887564,35.13694560326151 155.35554129888217,34.46707262219459 157.18566831781547,32.636945603278555 157.855541298906,30.13694560327833 157.18566831783906,27.636945603271784 155.35554129892301,25.806818584338476 152.8555412989228,25.136945603247966 150.35554129891625,25.806818584314883 148.52541427998295,27.636945603230917 147.85554129889243,30.13694560323114 148.52541427995934,32.636945603237685 150.35554129887538,34.467072622170996 152.8555412988756,35.13694560326151" stroke="#ffa500" stroke-linecap="round" stroke-linejoin="round"/><polyline fill="none" points="131.2697702821497,-103.43672973870883 133.76977028215623,-104.10660271977575 135.59989730108953,-105.93672973869178 136.26977028218005,-108.43672973869201 135.59989730111315,-110.93672973869856 133.7697702821971,-112.76685675763187 131.26977028219687,-113.43672973872239 128.76977028219034,-112.76685675765548 126.93964326325703,-110.93672973873944 126.2697702821665,-108.43672973873922 126.93964326323342,-105.93672973873267 128.76977028214947,-104.10660271979935 131.2697702821497,-103.43672973870883" stroke="#ffa500" stroke-linecap="round" stroke-linejoin="round"/><polyline fill="none" points="0.7601635006414251,8.540188296715527 3.2601635006479746,7.870315315648615 5.090290519581288,6.040188296732582 5.760163500671805,3.5401882967323575 5.090290519604893,1.0401882967258076 3.26016350068886,-0.7899387222075056 0.7601635006886354,-1.4598117032980231 -1.7398364993179145,-0.7899387222311121 -3.569963518251228,1.04018829668492 -4.239836499341746,3.5401882966851446 -3.5699635182748355,6.040188296691695 -1.7398364993588036,7.8703153156250085 0.7601635006414211,8.540188296715527" stroke="#00f" stroke-linecap="round" stroke-linejoin="round"/><polyline fill="none" points="-9.977324017168945,158.65925610598495 -7.4773240171623945,157.98938312491805 -5.64719699822908,156.159256106002 -4.97732401713856,153.65925610600178 -5.6471969982054695,151.1592561059952 -7.477324017121501,149.3291290870619 -9.977324017121726,148.65925610597137 -12.477324017128277,149.32912908703827 -14.307451036061593,151.1592561059543 -14.977324017152114,153.65925610595454 -14.307451036085205,156.1592561059611 -12.477324017169174,157.98938312489443 -9.97732401716895,158.65925610598495" stroke="#ffa500" stroke-linecap="round" stroke-linejoin="round"/><polyline fill="none" points="108.31041743506285,-122.53199094612731 110.8104174350694,-123.20186392719421 112.64054445400271,-125.03199094611024 113.31041743509323,-127.53199094611047 112.64054445402633,-130.03199094611702 110.8104174351103,-131.86211796505034 108.31041743511007,-132.53199094614087 105.81041743510352,-131.86211796507396 103.98029041617019,-130.03199094615795 103.31041743507967,-127.53199094615772 103.98029041614657,-125.03199094615117 105.8104174350626,-123.20186392721784 108.31041743506283,-122.53199094612732" stroke="#ffa500" stroke-linecap="round" stroke-linejoin="round"/><polyline fill="none" points="-56.522459132093715,15.883444850265992 -54.022459132087164,15.213571869199086 -52.192332113153846,13.383444850283057 -51.52245913206332,10.883444850282832 -52.19233211313022,8.383444850276277 -54.02245913204625,6.553317831342957 -56.52245913204648,5.883444850252432 -59.02245913205303,6.553317831319337 -60.85258615098635,8.383444850235366 -61.522459132076875,10.883444850235591 -60.85258615100997,13.383444850242146 -59.02245913209394,15.213571869175468 -56.522459132093715,15.883444850265994" stroke="#008000" stroke-linecap="round" stroke-linejoin="round"/><polyline fill="none" points="107.01364290793256,-92.68465621024775 109.51364290793911,-93.35452919131465 111.34376992687244,-95.18465621023068 112.01364290796296,-97.68465621023091 111.34376992689606,-100.18465621023746 109.51364290798003,-102.01478322917079 107.0136429079798,-102.68465621026132 104.51364290797325,-102.01478322919442 102.68351588903992,-100.18465621027839 102.01364290794939,-97.68465621027816 102.68351588901629,-95.18465621027161 104.51364290793232,-93.35452919133829 107.01364290793255,-92.68465621024775" stroke="#ffa500" stroke-linecap="round" stroke-linejoin="round"/><polyline fill="none" points="-97.41880643751134,-74.43809433702702 -94.91880643750478,-75.10796731809393 -93.08867941857146,-76.93809433700996 -92.41880643748092,-79.43809433701018 -93.08867941854783,-81.93809433701674 -94.91880643746386,-83.76822135595006 -97.41880643746408,-84.4380943370406 -99.91880643747064,-83.7682213559737 -101.74893345640396,-81.93809433705766 -102.4188064374945,-79.43809433705744 -101.7489334564276,-76.93809433705088 -99.91880643751156,-75.10796731811756 -97.41880643751134,-74.43809433702702" stroke="#00f" stroke-linecap="round" stroke-linejoin="round"/><polyline fill="none" points="33.72966568735555,-140.99619076867893 36.22966568736211,-141.66606374974583 38.05979270629543,-143.49619076866185 38.72966568738597,-145.99619076866207 38.05979270631907,-148.49619076866864 36.22966568740305,-150.32631778760197 33.72966568740282,-150.9961907686925 31.229665687396263,-150.32631778762558 29.399538668462935,-148.49619076870957 28.7296656873724,-145.99619076870934 29.399538668439295,-143.49619076870277 31.22966568735532,-141.66606374976945 33.72966568735554,-140.9961907686789" stroke="#00f" stroke-linecap="round" stroke-linejoin="round"/><polyline fill="none" points="177.9798042436207,-25.497678226773683 180.47980424362726,-26.167551207840578 182.30993126256058,-27.9976782267566 182.97980424365113,-30.497678226756825 182.30993126258423,-32.997678226763384 180.4798042436682,-34.827805245696716 177.97980424366799,-35.49767822678725 175.47980424366142,-34.827805245720356 173.6496772247281,-32.99767822680433 172.97980424363755,-30.49767822680411 173.64967722470445,-27.997678226797547 175.47980424362046,-26.167551207864214 177.9798042436207,-25.497678226773676" stroke="#ffa500" stroke-linecap="round" stroke-linejoin="round"/><polyline fill="none" points="35.92769544425934,1.2188986397442751 38.4276954442659,0.5490256586773821 40.25782246319923,-1.2811013602386399 40.927695444289775,-3.7811013602388646 40.25782246322288,-6.281101360245426 38.427695444306856,-8.111228379178758 35.92769544430663,-8.781101360269298 33.42769544430007,-8.111228379202407 31.597568425366738,-6.281101360286385 30.9276954442762,-3.7811013602861605 31.59756842534309,-1.281101360279599 33.427695444259115,0.5490256586537343 35.92769544425934,1.218898639744275" stroke="#ffa500" stroke-linecap="round" stroke-linejoin="round"/><polyline fill="none" points="98.83343623945598,-107.4789813947321 101.33343623946254,-108.14885437579899 103.16356325839588,-109.978981394715 103.83343623948642,-112.47898139471523 103.16356325841953,-114.9789813947218 101.33343623950351,-116.80910841365514 98.83343623950329,-117.47898139474567 96.33343623949672,-116.80910841367879 94.50330922056338,-114.97898139476277 93.83343623947283,-112.47898139476254 94.50330922053972,-109.97898139475598 96.33343623945574,-108.14885437582264 98.83343623945596,-107.47898139473209" stroke="#ffa500" stroke-linecap="round" stroke-linejoin="round"/><polyline fill="none" points="-24.92064909226002,20.684795634049664 -22.42064909225346,20.014922652982776 -20.590522073320123,18.184795634066756 -19.920649092229578,15.684795634066532 -20.590522073296466,13.184795634059968 -22.420649092212486,11.354668615126633 -24.92064909221271,10.684795634036089 -27.42064909221927,11.354668615102977 -29.250776111152607,13.184795634018995 -29.920649092243153,15.68479563401922 -29.250776111176265,18.184795634025786 -27.420649092260245,20.014922652959125 -24.92064909226002,20.68479563404967" stroke="#00f" stroke-linecap="round" stroke-linejoin="round"/><polyline fill="none" points="37.18371026307228,4.44675475979549 39.683710263078844,3.7768817787286038 41.51383728201218,1.9467547598125858 42.18371026310273,-0.5532452401876389 41.513837282035844,-3.0532452401942036 39.68371026311983,-4.883372259127543 37.1837102631196,-5.55324524021809 34.683710263113035,-4.883372259151205 32.853583244179696,-3.0532452402351877 32.18371026308915,-0.553245240234963 32.853583244156034,1.9467547597716024 34.68371026307205,3.7768817787049427 37.18371026307228,4.446754759795491" stroke="#00f" stroke-linecap="round" stroke-linejoin="round"/><polyline fill="none" points="157.0451680818461,-51.30783021180264 159.54516808185267,-51.97770319286952 161.37529510078602,-53.807830211785536 162.04516808187657,-56.30783021178576 161.3752951008097,-58.80783021179233 159.54516808189368,-60.63795723072567 157.04516808189345,-61.30783021181622 154.54516808188689,-60.637957230749336 152.71504106295353,-58.80783021183332 152.04516808186298,-56.30783021183309 152.71504106292986,-53.80783021182653 154.54516808184587,-51.97770319289319 157.0451680818461,-51.30783021180264" stroke="#00f" stroke-linecap="round" stroke-linejoin="round"/><polyline fill="none" points="89.62127702024739,63.30613562540391 92.12127702025396,62.63626264433703 93.9514040391873,60.806135625421014 94.62127702027784,58.30613562542079 93.95140403921096,55.80613562541422 92.12127702029494,53.976008606480875 89.62127702029471,53.306135625390326 87.12127702028815,53.976008606457206 85.29115000135481,55.80613562537322 84.62127702026426,58.30613562537345 85.29115000133113,60.806135625380016 87.12127702024715,62.63626264431336 89.62127702024738,63.30613562540392" stroke="#ffa500" stroke-linecap="round" stroke-linejoin="round"/><polyline fill="none" points="142.33169544544864,41.43999947512795 144.8316954454552,40.77012649406107 146.66182246438856,38.93999947514505 147.3316954454791,36.43999947514482 146.66182246441224,33.93999947513826 144.83169544549622,32.10987245620491 142.331695445496,31.439999475114355 139.83169544548943,32.109872456181236 138.00156842655608,33.93999947509725 137.33169544546553,36.43999947509748 138.0015684265324,38.93999947510405 139.83169544544842,40.7701264940374 142.33169544544864,41.439999475127955" stroke="#ffa500" stroke-linecap="round" stroke-linejoin="round"/><polyline fill="none" points="76.21385390478939,-108.15282924789706 78.71385390479595,-108.82270222896393 80.54398092372931,-110.65282924787995 81.21385390481987,-113.15282924788018 80.543980923753,-115.65282924788674 78.71385390483698,-117.4829562668201 76.21385390483675,-118.15282924791066 73.71385390483019,-117.48295626684379 71.88372688589683,-115.65282924792777 71.21385390480627,-113.15282924792754 71.88372688587314,-110.65282924792098 73.71385390478916,-108.82270222898762 76.21385390478939,-108.15282924789706" stroke="#ffa500" stroke-linecap="round" stroke-linejoin="round"/><polyline fill="none" points="37.97595036757724,-25.213625623954382 40.47595036758381,-25.883498605021256 42.30607738651717,-27.71362562393727 42.97595036760773,-30.213625623937496 42.306077386540856,-32.71362562394407 40.47595036762485,-34.54375264287742 37.97595036762462,-35.213625623967985 35.47595036761805,-34.54375264290111 33.645823348684694,-32.7136256239851 32.97595036759413,-30.213625623984875 33.645823348661004,-27.713625623978302 35.47595036757701,-25.88349860504495 37.97595036757724,-25.213625623954385" stroke="#ffa500" stroke-linecap="round" stroke-linejoin="round"/><polyline fill="none" points="-48.66032106413449,23.54629461774521 -46.16032106412792,22.876421636678337 -44.33019404519457,21.046294617762328 -43.660321064104004,18.5462946177621 -44.33019404517088,16.046294617755528 -46.16032106408689,14.216167598822175 -48.660321064087114,13.546294617731611 -51.16032106409369,14.216167598798483 -52.99044808302704,16.046294617714494 -53.6603210641176,18.54629461771472 -52.99044808305073,21.046294617721298 -51.16032106413472,22.876421636654655 -48.66032106413449,23.54629461774522" stroke="#ffa500" stroke-linecap="round" stroke-linejoin="round"/><polyline fill="none" points="40.48496090200964,-27.046951252897458 42.98496090201621,-27.716824233964328 44.815087920949566,-29.546951252880337 45.48496090204013,-32.04695125288056 44.81508792097326,-34.54695125288713 42.98496090205725,-36.37707827182049 40.484960902057026,-37.04695125291106 37.984960902050446,-36.37707827184419 36.154833883117085,-34.54695125292818 35.484960902026515,-32.046951252927954 36.15483388309338,-29.546951252921378 37.98496090200939,-27.71682423398802 40.48496090200962,-27.04695125289745" stroke="#00f" stroke-linecap="round" stroke-linejoin="round"/><polyline fill="none" points="-84.80501079181057,5.0557089005315 -82.305010791804,4.385835919464633 -80.47488377287064,2.555708900548624 -79.80501079178008,0.05570890054839772 -80.47488377284695,-2.4442910994581797 -82.30501079176295,-4.274418118391539 -84.80501079176318,-4.944291099482109 -87.30501079176976,-4.274418118415243 -89.13513781070311,-2.4442910994992353 -89.80501079179369,0.0557089005009912 -89.13513781072683,2.55570890050757 -87.30501079181083,4.385835919440931 -84.8050107918106,5.055708900531503" stroke="#ffa500" stroke-linecap="round" stroke-linejoin="round"/><polyline fill="none" points="-165.04641810892437,64.54601729952299 -162.5464181089178,63.87614431845612 -160.71629108998445,62.04601729954011 -160.04641810889387,59.54601729953988 -160.71629108996075,57.046017299533304 -162.54641810887676,55.21589028059994 -165.046418108877,54.54601729950937 -167.54641810888359,55.21589028057624 -169.37654512781694,57.04601729949225 -170.04641810890752,59.546017299492476 -169.37654512784064,62.046017299499056 -167.54641810892463,63.876144318432424 -165.0464181089244,64.546017299523" stroke="#ffa500" stroke-linecap="round" stroke-linejoin="round"/><polyline fill="none" points="169.6507723523378,88.20295032330198 172.1507723523444,87.53307734223512 173.98089937127776,85.70295032331912 174.65077235236834,83.20295032331889 173.98089937130146,80.70295032331231 172.15077235238545,78.87282330437894 169.65077235238522,78.20295032328836 167.15077235237862,78.87282330435522 165.32064533344527,80.70295032327122 164.6507723523547,83.20295032327145 165.32064533342157,85.70295032327803 167.15077235233758,87.5330773422114 169.6507723523378,88.20295032330198" stroke="#ffa500" stroke-linecap="round" stroke-linejoin="round"/><polyline fill="none" points="-91.31430047337895,-2.618303969688758 -88.81430047337237,-3.288176950755618 -86.984173454439,-5.118303969671623 -86.31430047334842,-7.618303969671851 -86.98417345441528,-10.118303969678434 -88.81430047333129,-11.948430988611802 -91.31430047333151,-12.618303969702382 -93.8143004733381,-11.948430988635522 -95.64442749227146,-10.118303969719518 -96.31430047336204,-7.61830396971929 -95.64442749229518,-5.118303969712706 -93.81430047337918,-3.288176950779336 -91.31430047337895,-2.6183039696887556" stroke="#f00" stroke-linecap="round" stroke-linejoin="round"/><polyline fill="none" points="41.739673720723765,-101.76712576581372 44.23967372073035,-102.43699874688058 46.06980073966372,-104.26712576579658 46.739673720754304,-106.7671257657968 46.069800739687444,-109.26712576580339 44.23967372077144,-111.09725278473675 41.739673720771215,-111.76712576582733 39.23967372076463,-111.09725278476047 37.40954670183125,-109.26712576584447 36.73967372074067,-106.76712576584424 37.40954670180753,-104.26712576583766 39.23967372072353,-102.4369987469043 41.73967372072376,-101.76712576581372" stroke="#ffa500" stroke-linecap="round" stroke-linejoin="round"/><polyline fill="none" points="144.1472036218459,-75.3539199293402 146.6472036218525,-76.02379291040705 148.47733064078588,-77.85391992932306 149.14720362187646,-80.35391992932328 148.4773306408096,-82.85391992932988 146.6472036218936,-84.68404694826324 144.14720362189337,-85.35391992935384 141.64720362188677,-84.68404694828698 139.8170766029534,-82.85391992937097 139.14720362186281,-80.35391992937075 139.81707660292966,-77.85391992936415 141.64720362184565,-76.02379291043079 144.14720362184588,-75.3539199293402" stroke="#ffa500" stroke-linecap="round" stroke-linejoin="round"/><polyline fill="none" points="147.52424248174378,-23.78322533538745 150.02424248175038,-24.4530983164543 151.85436950068376,-26.283225335370304 152.52424248177434,-28.78322533537053 151.8543695007075,-31.283225335377118 150.0242424817915,-33.11335235431049 147.52424248179128,-33.78322533540108 145.02424248178468,-33.113352354334225 143.1941154628513,-31.283225335418223 142.52424248176072,-28.783225335417995 143.19411546282757,-26.283225335411405 145.02424248174356,-24.453098316478027 147.52424248174378,-23.78322533538744" stroke="#ffa500" stroke-linecap="round" stroke-linejoin="round"/><polyline fill="none" points="-121.57595559024941,53.14667066410409 -119.07595559024281,52.47679768303724 -117.24582857130943,50.64667066412124 -116.57595559021884,48.14667066412101 -117.24582857128568,45.646670664114424 -119.07595559020169,43.81654364518104 -121.57595559020191,43.14667066409045 -124.07595559020851,43.8165436451573 -125.90608260914189,45.646670664073305 -126.57595559023248,48.14667066407353 -125.90608260916564,50.64667066408012 -124.07595559024963,52.4767976830135 -121.57595559024941,53.14667066410409" stroke="#00f" stroke-linecap="round" stroke-linejoin="round"/><polyline fill="none" points="146.86270643157678,-65.18623638661317 149.36270643158338,-65.85610936768002 151.19283345051676,-67.68623638659602 151.86270643160736,-70.18623638659625 151.19283345054052,-72.68623638660284 149.36270643162453,-74.51636340553623 146.8627064316243,-75.18623638662682 144.3627064316177,-74.51636340555997 142.53257941268433,-72.68623638664397 141.86270643159372,-70.18623638664374 142.53257941266057,-67.68623638663715 144.36270643157656,-65.85610936770377 146.86270643157678,-65.18623638661317" stroke="#ffa500" stroke-linecap="round" stroke-linejoin="round"/><polyline fill="none" points="120.32386000949776,26.67469879922297 122.82386000950436,26.004825818156124 124.65398702843774,24.174698799240126 125.32386000952833,21.6746987992399 124.65398702846149,19.174698799233305 122.82386000954548,17.344571780299923 120.32386000954526,16.674698799209327 117.82386000953866,17.344571780276173 115.99373299060528,19.174698799192168 115.32386000951469,21.674698799192395 115.99373299058153,24.17469879919899 117.82386000949754,26.004825818132375 120.32386000949776,26.674698799222973" stroke="#ffa500" stroke-linecap="round" stroke-linejoin="round"/><polyline fill="none" points="141.93269107695477,72.65337222133176 144.43269107696136,71.98349924026492 146.26281809589474,70.15337222134892 146.93269107698535,67.65337222134869 146.2628180959185,65.1533722213421 144.43269107700252,63.32324520240871 141.9326910770023,62.65337222131811 139.4326910769957,63.32324520238495 137.6025640580623,65.15337222130094 136.9326910769717,67.65337222130117 137.60256405803855,70.15337222130776 139.43269107695454,71.98349924024114 141.93269107695477,72.65337222133175" stroke="#ffa500" stroke-linecap="round" stroke-linejoin="round"/><polyline fill="none" points="27.608148841333474,161.8191333403941 30.10814884134007,161.14926035932726 31.93827586027346,159.31913334041127 32.60814884136406,156.81913334041104 31.93827586029722,154.31913334040445 30.108148841381226,152.48900632147107 27.608148841381,151.81913334038046 25.1081488413744,152.4890063214473 23.278021822441012,154.3191333403633 22.60814884135041,156.81913334036352 23.278021822417248,159.31913334037012 25.108148841333243,161.1492603593035 27.608148841333474,161.8191333403941" stroke="#ffa500" stroke-linecap="round" stroke-linejoin="round"/><polyline fill="none" points="-130.6739421889888,-15.16450537143663 -128.1739421889822,-15.834378352503467 -126.34381517004881,-17.66450537141946 -125.67394218895821,-20.164505371419686 -126.34381517002504,-22.664505371426284 -128.17394218894103,-24.494632390359676 -130.67394218894125,-25.164505371450282 -133.17394218894785,-24.494632390383444 -135.00406920788123,-22.664505371467452 -135.67394218897184,-20.164505371467225 -135.004069207905,-17.664505371460628 -133.173942188989,-15.834378352527235 -130.67394218898878,-15.16450537143663" stroke="#00f" stroke-linecap="round" stroke-linejoin="round"/><polyline fill="none" points="-182.9793272072975,51.58681622502205 -180.4793272072909,50.91694324395521 -178.64920018835753,49.086816225039215 -177.97932720726692,46.58681622503899 -178.64920018833377,44.086816225032386 -180.47932720724975,42.25668920609899 -182.97932720724998,41.586816225008384 -185.47932720725657,42.25668920607522 -187.30945422618996,44.08681622499121 -187.97932720728056,46.58681622499144 -187.30945422621372,49.08681622499804 -185.47932720729773,50.916943243931435 -182.9793272072975,51.58681622502204" stroke="#00f" stroke-linecap="round" stroke-linejoin="round"/><polyline fill="none" points="114.03310179023897,149.52049582317986 116.53310179024557,148.850622842113 118.36322880917896,147.02049582319702 119.03310179026957,144.5204958231968 118.36322880920274,142.0204958231902 116.53310179028675,140.19036880425682 114.03310179028652,139.52049582316621 111.53310179027993,140.19036880423306 109.70297477134653,142.02049582314905 109.03310179025593,144.52049582314928 109.70297477132276,147.02049582315587 111.53310179023875,148.85062284208928 114.03310179023897,149.52049582317989" stroke="#ffa500" stroke-linecap="round" stroke-linejoin="round"/><polyline fill="none" points="-19.42139690999708,128.1158241953575 -16.921396909990477,127.44595121429067 -15.09126989105708,125.61582419537469 -14.421396909966466,123.11582419537446 -15.091269891033297,120.61582419536785 -16.921396909949287,118.78569717643445 -19.421396909949515,118.11582419534383 -21.921396909956115,118.78569717641066 -23.751523928889515,120.61582419532665 -24.42139690998013,123.11582419532688 -23.7515239289133,125.61582419533349 -21.921396909997313,127.44595121426688 -19.421396909997085,128.1158241953575" stroke="#ffa500" stroke-linecap="round" stroke-linejoin="round"/><polyline fill="none" points="-81.50932145425028,44.88314338751968 -79.00932145424368,44.21327040645285 -77.17919443531028,42.38314338753686 -76.50932145421966,39.883143387536634 -77.17919443528649,37.38314338753003 -79.00932145420248,35.55301636859663 -81.5093214542027,34.88314338750601 -84.00932145420931,35.553016368572834 -85.83944847314271,37.38314338748882 -86.50932145423333,39.88314338748905 -85.8394484731665,42.38314338749565 -84.00932145425051,44.213270406429054 -81.50932145425028,44.883143387519674" stroke="#00f" stroke-linecap="round" stroke-linejoin="round"/><polyline fill="none" points="109.35598348385155,-2.231867639239325 111.85598348385815,-2.901740620306151 113.68611050279155,-4.731867639222137 114.35598348388217,-7.231867639222366 113.68611050281534,-9.73186763922897 111.85598348389935,-11.561994658162373 109.35598348389912,-12.231867639252993 106.85598348389252,-11.561994658186167 105.0258564649591,-9.731867639270183 104.35598348386848,-7.231867639269954 105.02585646493532,-4.731867639263349 106.8559834838513,-2.901740620329944 109.35598348385153,-2.231867639239323" stroke="#ffa500" stroke-linecap="round" stroke-linejoin="round"/><polyline fill="none" points="78.26599861014849,16.57383987031857 80.7659986101551,15.903966889251745 82.5961256290885,14.07383987033576 83.26599861017912,11.573839870335531 82.59612562911231,9.073839870328925 80.76599861019632,7.243712851395519 78.26599861019609,6.573839870304896 75.76599861018948,7.243712851371718 73.93587159125607,9.073839870287701 73.26599861016545,11.57383987028793 73.93587159123227,14.073839870294536 75.76599861014826,15.903966889227945 78.26599861014849,16.57383987031857" stroke="#00f" stroke-linecap="round" stroke-linejoin="round"/><polyline fill="none" points="56.64420515996346,120.51600523952933 59.14420515997007,119.84613225846252 60.97433217890348,118.01600523954653 61.64420515999411,115.5160052395463 60.974332178927284,113.0160052395397 59.1442051600113,111.18587822060628 56.644205160011076,110.51600523951566 54.14420516000447,111.18587822058248 52.31407814107106,113.01600523949847 51.64420515998043,115.5160052394987 52.31407814104725,118.0160052395053 54.14420515996323,119.84613225843871 56.644205159963455,120.51600523952933" stroke="#ffa500" stroke-linecap="round" stroke-linejoin="round"/><polyline fill="none" points="-30.978804919786747,-19.189683095084572 -28.47880491978014,-19.85955607615139 -26.648677900846728,-21.68968309506737 -25.9788049197561,-24.189683095067597 -26.648677900822918,-26.689683095074205 -28.4788049197389,-28.519810114007615 -30.978804919739126,-29.189683095098243 -33.478804919745734,-28.519810114031426 -35.308931938679144,-26.689683095115445 -35.97880491976977,-24.189683095115218 -35.308931938702955,-21.689683095108606 -33.478804919786974,-19.859556076175192 -30.978804919786747,-19.18968309508456" stroke="#ffa500" stroke-linecap="round" stroke-linejoin="round"/><polyline fill="none" points="-32.20671275209854,-50.573611863030216 -29.706712752091928,-51.24348484409703 -27.876585733158514,-53.073611863013014 -27.206712752067883,-55.57361186301324 -27.876585733134696,-58.07361186301985 -29.706712752050677,-59.90373888195327 -32.206712752050905,-60.5736118630439 -34.70671275205751,-59.903738881977084 -36.53683977099093,-58.0736118630611 -37.206712752081565,-55.573611863060876 -36.53683977101475,-53.07361186305427 -34.70671275209877,-51.24348484412085 -32.20671275209854,-50.573611863030216" stroke="#ffa500" stroke-linecap="round" stroke-linejoin="round"/><polyline fill="none" points="7.887446011796073,-26.444378593100577 10.387446011802684,-27.11425157416739 12.217573030736101,-28.944378593083368 12.887446011826736,-31.444378593083595 12.217573030759924,-33.94437859309021 10.387446011843947,-35.774505612023624 7.887446011843718,-36.44437859311426 5.387446011837105,-35.77450561204745 3.5573189929036877,-33.944378593131475 2.8874460118130516,-31.444378593131248 3.5573189928798623,-28.944378593124636 5.38744601179584,-27.11425157419122 7.887446011796069,-26.44437859310058" stroke="#ffa500" stroke-linecap="round" stroke-linejoin="round"/><polyline fill="none" points="63.118241279193185,79.81427383221539 65.6182412791998,79.14440085114857 67.44836829813322,77.3142738322326 68.11824127922385,74.81427383223237 67.44836829815705,72.31427383222577 65.61824127924108,70.48414681329234 63.11824127924085,69.8142738322017 60.61824127923423,70.48414681326851 58.788114260300816,72.31427383218448 58.118241279210174,74.81427383218471 58.788114260276984,77.31427383219132 60.61824127919296,79.14440085112474 63.118241279193185,79.81427383221538" stroke="#00f" stroke-linecap="round" stroke-linejoin="round"/><polyline fill="none" points="-62.90550585351575,119.53407830847023 -60.40550585350913,118.86420532740343 -58.57537883457571,117.03407830848745 -57.90550585348507,114.53407830848722 -58.57537883455188,112.0340783084806 -60.40550585346785,110.20395128954718 -62.90550585346808,109.53407830845653 -65.4055058534747,110.20395128952333 -67.23563287240812,112.0340783084393 -67.90550585349877,114.53407830843953 -67.23563287243196,117.03407830844615 -65.40550585351599,118.86420532737958 -62.90550585351576,119.53407830847023" stroke="#ffa500" stroke-linecap="round" stroke-linejoin="round"/><polyline fill="none" points="-72.19959624173697,105.92284094873526 -69.69959624173035,105.25296796766845 -67.86946922279692,103.42284094875248 -67.19959624170627,100.92284094875225 -67.86946922277308,98.42284094874563 -69.69959624168905,96.5927139298122 -72.19959624168928,95.92284094872156 -74.6995962416959,96.59271392978836 -76.52972326062932,98.42284094870433 -77.19959624171997,100.92284094870456 -76.52972326065317,103.42284094871118 -74.6995962417372,105.25296796764461 -72.19959624173697,105.92284094873526" stroke="#00f" stroke-linecap="round" stroke-linejoin="round"/><polyline fill="none" points="-167.52399993827206,88.51530620985334 -165.02399993826543,87.84543322878653 -163.193872919332,86.01530620987056 -162.52399993824136,83.51530620987033 -163.19387291930815,81.01530620986371 -165.0239999382241,79.18517919093028 -167.52399993822434,78.51530620983964 -170.02399993823096,79.18517919090644 -171.8541269571644,81.01530620982241 -172.52399993825503,83.51530620982264 -171.85412695718824,86.01530620982926 -170.02399993827228,87.84543322876269 -167.52399993827206,88.51530620985334" stroke="#ffa500" stroke-linecap="round" stroke-linejoin="round"/><polyline fill="none" points="-3.9454477900841565,0.5957955902860848 -1.4454477900775369,-0.07407739078071462 0.3846792288558931,-1.904204409696685 1.0545522099465428,-4.404204409696915 0.3846792288797438,-6.904204409703535 -1.4454477900362264,-8.734331428636965 -3.945447790036456,-9.404204409727615 -6.445447790043076,-8.734331428660816 -8.275574808976508,-6.904204409744846 -8.945447790067158,-4.404204409744617 -8.27557480900036,-1.904204409737996 -6.445447790084391,-0.07407739080456444 -3.945447790084162,0.5957955902860871" stroke="#ffa500" stroke-linecap="round" stroke-linejoin="round"/><polyline fill="none" points="-114.93743895648042,73.17375985944149 -112.4374389564738,72.50388687837469 -110.60731193754036,70.67375985945871 -109.93743895644971,68.17375985945849 -110.60731193751651,65.67375985945186 -112.43743895643249,63.84363284051843 -114.93743895643271,63.173759859427776 -117.43743895643934,63.84363284049457 -119.26756597537278,65.67375985941054 -119.93743895646342,68.17375985941077 -119.26756597539662,70.67375985941739 -117.43743895648065,72.50388687835083 -114.93743895648042,73.17375985944147" stroke="#008000" stroke-linecap="round" stroke-linejoin="round"/><polyline fill="none" points="-76.98769530029818,-44.5466268719015 -74.48769530029156,-45.2164998529683 -72.65756828135812,-47.046626871884264 -71.98769530026748,-49.54662687188449 -72.65756828133426,-52.046626871891114 -74.48769530025024,-53.876753890824546 -76.98769530025046,-54.5466268719152 -79.48769530025709,-53.876753890848406 -81.31782231919053,-52.04662687193244 -81.98769530028119,-49.54662687193221 -81.3178223192144,-47.04662687192559 -79.48769530029844,-45.21649985299215 -76.98769530029821,-44.546626871901495" stroke="#00f" stroke-linecap="round" stroke-linejoin="round"/><polyline fill="none" points="2.9135116086137476,119.8484999804305 5.413511608620371,119.17862699936371 7.243638627553807,117.34849998044776 7.913511608644464,114.84849998044753 7.243638627577672,112.3484999804409 5.4135116086617066,110.51837296150747 2.913511608661478,109.8484999804168 0.41351160865485337,110.51837296148359 -1.4166154102785848,112.34849998039955 -2.0864883913692442,114.84849998039978 -1.4166154103024535,117.3484999804064 0.41351160861351177,119.17862699933984 2.913511608613741,119.8484999804305" stroke="#00f" stroke-linecap="round" stroke-linejoin="round"/><polyline fill="none" points="-128.10018395168277,72.15731174794132 -125.60018395167614,71.48743876687453 -123.7700569327427,69.65731174795857 -123.10018395165204,67.15731174795835 -123.77005693271883,64.65731174795172 -125.60018395163479,62.827184729018285 -128.10018395163502,62.15731174792762 -130.60018395164164,62.82718472899441 -132.43031097057508,64.65731174791037 -133.10018395166574,67.1573117479106 -132.43031097059895,69.65731174791722 -130.600183951683,71.48743876685066 -128.10018395168277,72.15731174794132" stroke="#00f" stroke-linecap="round" stroke-linejoin="round"/><polyline fill="none" points="23.27225574321842,93.12450221641409 25.772255743225045,92.4546292353473 27.602382762158488,90.62450221643134 28.27225574324915,88.12450221643111 27.602382762182362,85.62450221642449 25.7722557432664,83.79437519749105 23.27225574326617,83.12450221640039 20.772255743259546,83.79437519746718 18.942128724326103,85.62450221638314 18.272255743235437,88.12450221638336 18.942128724302222,90.62450221638998 20.772255743218185,92.45462923532342 23.272255743218413,93.12450221641409" stroke="#ffa500" stroke-linecap="round" stroke-linejoin="round"/><polyline fill="none" points="-92.89756209292153,122.8752928668031 -90.39756209291491,122.2054198857363 -88.56743507398147,120.37529286682035 -87.89756209289081,117.87529286682012 -88.5674350739576,115.3752928668135 -90.39756209287356,113.54516584788006 -92.89756209287378,112.8752928667894 -95.3975620928804,113.54516584785618 -97.22768911181385,115.37529286677214 -97.89756209290451,117.87529286677237 -97.22768911183772,120.37529286677899 -95.39756209292176,122.20541988571244 -92.89756209292153,122.87529286680311" stroke="#ffa500" stroke-linecap="round" stroke-linejoin="round"/><polyline fill="none" points="20.04768695391989,-21.01602539989029 22.54768695392652,-21.68589838095707 24.377813972859965,-23.51602539987303 25.047686953950635,-26.016025399873257 24.377813972883853,-28.516025399879886 22.547686953967894,-30.346152418813332 20.047686953967666,-31.016025399904002 17.547686953961037,-30.34615241883722 15.71755993502759,-28.51602539992126 15.04768695393692,-26.016025399921034 15.7175599350037,-23.516025399914405 17.54768695391966,-21.685898380980955 20.047686953919886,-21.016025399890285" stroke="#ffa500" stroke-linecap="round" stroke-linejoin="round"/><polyline fill="none" points="-53.69676961390634,183.36219220304028 -51.19676961389971,182.6923192219735 -49.366642594966265,180.86219220305753 -48.696769613875595,178.3621922030573 -49.36664259494238,175.86219220305068 -51.196769613858336,174.03206518411724 -53.696769613858564,173.36219220302658 -56.19676961386519,174.03206518409337 -58.026896632798646,175.86219220300933 -58.69676961388932,178.36219220300956 -58.02689663282254,180.86219220301618 -56.19676961390658,182.69231922194962 -53.696769613906355,183.36219220304028" stroke="#ffa500" stroke-linecap="round" stroke-linejoin="round"/><polyline fill="none" points="59.05917477288464,23.966606912132875 61.55917477289127,23.296733931066097 63.38930179182472,21.46660691215014 64.0591747729154,18.966606912149913 63.389301791848624,16.46660691214328 61.559174772932664,14.636479893209827 59.05917477293244,13.96660691211915 56.5591747729258,14.636479893185927 54.72904775399235,16.466606912101884 54.05917477290167,18.96660691210211 54.729047753968445,21.466606912108745 56.559174772884404,23.296733931042198 59.05917477288463,23.966606912132875" stroke="#ffa500" stroke-linecap="round" stroke-linejoin="round"/><polyline fill="none" points="-104.28530943961911,58.27980855587333 -101.78530943961248,57.609935574806556 -99.95518242067902,55.7798085558906 -99.28530943958835,53.27980855589037 -99.95518242065512,50.77980855588373 -101.78530943957108,48.94968153695028 -104.28530943957131,48.2798085558596 -106.78530943957794,48.94968153692638 -108.6154364585114,50.77980855584233 -109.28530943960207,53.27980855584256 -108.6154364585353,55.77980855584919 -106.78530943961934,57.609935574782654 -104.28530943961911,58.27980855587334" stroke="#008000" stroke-linecap="round" stroke-linejoin="round"/><polyline fill="none" points="-64.0877560687033,14.68189751553784 -61.58775606869666,14.012024534471067 -59.7576290497632,12.181897515555113 -59.08775606867252,9.681897515554883 -59.75762904973929,7.181897515548248 -61.587756068655246,5.35177049661479 -64.08775606865548,4.681897515524108 -66.58775606866212,5.351770496590879 -68.41788308759557,7.181897515506833 -69.08775606868625,9.681897515507062 -68.41788308761947,12.181897515513699 -66.58775606870351,14.012024534447157 -64.08775606870329,14.681897515537841" stroke="#00f" stroke-linecap="round" stroke-linejoin="round"/><polyline fill="none" points="-61.29151161601508,2.15846780056859 -58.79151161600844,1.4885948195018204 -56.96138459707498,-0.34153219941413315 -56.2915116159843,-2.8415321994143627 -56.961384597051065,-5.3415321994210005 -58.79151161596702,-7.171659218354462 -61.291511615967245,-7.841532199445147 -63.79151161597388,-7.1716592183783785 -65.62163863490734,-5.341532199462426 -66.29151161599803,-2.8415321994621965 -65.62163863493126,-0.34153219945555824 -63.791511616015306,1.4885948194779035 -61.29151161601508,2.15846780056859" stroke="#ffa500" stroke-linecap="round" stroke-linejoin="round"/><polyline fill="none" points="108.31626667917082,98.85936626720719 110.81626667917746,98.18949328614042 112.64639369811093,96.35936626722447 113.31626667920162,93.85936626722425 112.64639369813486,91.35936626721761 110.81626667921891,89.52923924828414 108.31626667921869,88.85936626719345 105.81626667921205,89.52923924826021 103.98613966027858,91.35936626717616 103.31626667918789,93.85936626717638 103.98613966025465,96.35936626718302 105.8162666791706,98.18949328611649 108.31626667917082,98.85936626720718" stroke="#00f" stroke-linecap="round" stroke-linejoin="round"/><polyline fill="none" points="-173.760405883086,-73.06155259613048 -171.26040588307936,-73.73142557719724 -169.4302788641459,-75.56155259611319 -168.7604058830552,-78.06155259611342 -169.43027886412196,-80.56155259612005 -171.26040588303792,-82.39167961505352 -173.76040588303815,-83.06155259614421 -176.2604058830448,-82.39167961507745 -178.09053290197826,-80.5615525961615 -178.76040588306896,-78.06155259616128 -178.0905329020022,-75.56155259615464 -176.26040588308624,-73.73142557722117 -173.760405883086,-73.06155259613048" stroke="#ffa500" stroke-linecap="round" stroke-linejoin="round"/><polyline fill="none" points="-89.75457780964348,110.89263588772795 -87.25457780963684,110.22276290666119 -85.42445079070337,108.39263588774524 -84.75457780961268,105.89263588774502 -85.42445079067944,103.39263588773838 -87.25457780959539,101.56250886880491 -89.75457780959562,100.89263588771422 -92.25457780960225,101.56250886878098 -94.08470482853572,103.39263588769693 -94.75457780962641,105.89263588769715 -94.08470482855965,108.39263588770379 -92.2545778096437,110.22276290663726 -89.75457780964348,110.89263588772795" stroke="#ffa500" stroke-linecap="round" stroke-linejoin="round"/><polyline fill="none" points="-174.18383246563383,56.63166609386061 -171.68383246562718,55.96179311279385 -169.8537054466937,54.131666093877904 -169.18383246560302,51.631666093877676 -169.85370544666978,49.13166609387103 -171.68383246558574,47.301539074937565 -174.18383246558597,46.63166609384687 -176.68383246559262,47.30153907491363 -178.51395948452608,49.13166609382957 -179.18383246561677,51.6316660938298 -178.51395948455,54.131666093836444 -176.68383246563405,55.96179311276992 -174.18383246563383,56.631666093860616" stroke="#ffa500" stroke-linecap="round" stroke-linejoin="round"/><polyline fill="none" points="-61.08052806106255,1.4474131816110334 -58.58052806105591,0.7775402005442764 -56.750401042122434,-1.0525868183716696 -56.080528061031735,-3.552586818371899 -56.75040104209849,-6.052586818378543 -58.580528061014434,-7.882713837312016 -61.08052806101466,-8.552586818402716 -63.580528061021305,-7.88271383733596 -65.41065507995478,-6.052586818420015 -66.08052806104548,-3.5525868184197855 -65.41065507997872,-1.0525868184131402 -63.58052806106278,0.777540200520334 -61.08052806106255,1.447413181611035" stroke="#008000" stroke-linecap="round" stroke-linejoin="round"/><polyline fill="none" points="-160.11762735235303,-49.24957122303177 -157.61762735234637,-49.919444204098525 -155.7875003334129,-51.74957122301447 -155.11762735232222,-54.2495712230147 -155.78750033338898,-56.74957122302134 -157.6176273523049,-58.579698241954816 -160.11762735230513,-59.24957122304552 -162.61762735231179,-58.57969824197877 -164.44775437124525,-56.74957122306282 -165.11762735233594,-54.249571223062595 -164.44775437126918,-51.74957122305595 -162.61762735235325,-49.91944420412248 -160.11762735235303,-49.24957122303177" stroke="#ffa500" stroke-linecap="round" stroke-linejoin="round"/><polyline fill="none" points="-77.34986002224639,-15.09295141146238 -74.84986002223974,-15.762824392529133 -73.01973300330626,-17.59295141144508 -72.34986002221555,-20.09295141144531 -73.0197330032823,-22.592951411451956 -74.84986002219824,-24.423078430385434 -77.34986002219847,-25.09295141147614 -79.84986002220512,-24.423078430409387 -81.6799870411386,-22.592951411493445 -82.34986002222931,-20.092951411493214 -81.67998704116256,-17.592951411486567 -79.84986002224662,-15.762824392553087 -77.34986002224639,-15.09295141146238" stroke="#00f" stroke-linecap="round" stroke-linejoin="round"/><polyline fill="none" points="23.65191020764029,-71.92502435200838 26.151910207646942,-72.59489733307512 27.982037226580424,-74.42502435199107 28.65191020767113,-76.9250243519913 27.98203722660438,-79.42502435199795 26.151910207688438,-81.25515137093143 23.651910207688207,-81.92502435202213 21.151910207681556,-81.25515137095539 19.321783188748075,-79.42502435203944 18.651910207657366,-76.92502435203922 19.321783188724115,-74.42502435203257 21.151910207640057,-72.59489733309908 23.651910207640288,-71.92502435200838" stroke="#00f" stroke-linecap="round" stroke-linejoin="round"/><polyline fill="none" points="-126.23426050455949,55.11407260248365 -123.73426050455284,54.44419962141691 -121.90413348561935,52.61407260250097 -121.23426050452865,50.11407260250074 -121.9041334855954,47.61407260249409 -123.73426050451134,45.78394558356061 -126.23426050451157,45.114072602469896 -128.73426050451823,45.78394558353664 -130.56438752345173,47.61407260245258 -131.23426050454245,50.11407260245281 -130.5643875234757,52.61407260245946 -128.73426050455976,54.44419962139294 -126.23426050455953,55.11407260248365" stroke="#00f" stroke-linecap="round" stroke-linejoin="round"/><polyline fill="none" points="-2.622168844892779,104.33088909765266 -0.12216884488612711,103.66101611658591 1.7079581740473577,101.83088909766997 2.3778311551380704,99.33088909766974 1.7079581740713254,96.83088909766309 -0.12216884484461432,95.00076207872961 -2.622168844844845,94.33088909763889 -5.1221688448514975,95.00076207870563 -6.952295863784983,96.83088909762158 -7.622168844875698,99.3308890976218 -6.952295863808954,101.83088909762846 -5.1221688448930145,103.66101611656194 -2.622168844892784,104.33088909765266" stroke="#ffa500" stroke-linecap="round" stroke-linejoin="round"/><polyline fill="none" points="-50.887441336672914,71.99509893603239 -48.38744133666626,71.32522595496565 -46.55731431773277,69.4950989360497 -45.887441336642055,66.99509893604947 -46.5573143177088,64.49509893604282 -48.38744133662474,62.664971917109334 -50.887441336624974,61.995098936018614 -53.38744133663163,62.66497191708535 -55.21756835556512,64.4950989360013 -55.88744133665584,66.99509893600153 -55.2175683555891,69.49509893600818 -53.38744133667316,71.32522595494167 -50.88744133667293,71.99509893603239" stroke="#008000" stroke-linecap="round" stroke-linejoin="round"/><polyline fill="none" points="45.60581820869599,82.67205055613461 48.10581820870265,82.00217757506786 49.93594522763614,80.17205055615193 50.60581820872686,77.6720505561517 49.93594522766012,75.17205055614505 48.10581820874418,73.34192353721156 45.60581820874395,72.67205055612084 43.10581820873729,73.34192353718758 41.275691189803794,75.17205055610351 40.605818208713075,77.67205055610374 41.27569118977981,80.17205055611039 43.10581820869575,82.00217757504389 45.605818208695986,82.67205055613461" stroke="#ffa500" stroke-linecap="round" stroke-linejoin="round"/><polyline fill="none" points="-15.253098089930619,-146.68946945274018 -12.753098089923961,-147.35934243380692 -10.922971070990467,-149.18946945272285 -10.253098089899746,-151.68946945272307 -10.922971070966483,-154.18946945272972 -12.75309808988242,-156.01959647166322 -15.253098089882652,-156.68946945275394 -17.75309808988931,-156.0195964716872 -19.583225108822806,-154.18946945277128 -20.25309808991353,-151.68946945277105 -19.583225108846793,-149.1894694527644 -17.75309808993086,-147.3593424338309 -15.253098089930628,-146.68946945274018" stroke="#ffa500" stroke-linecap="round" stroke-linejoin="round"/><polyline fill="none" points="-22.10919544282438,111.0098879816056 -19.60919544281772,110.34001500053887 -17.779068423884226,108.50988798162294 -17.109195442793503,106.00988798162271 -17.779068423860238,103.50988798161605 -19.609195442776173,101.67976096268255 -22.109195442776404,101.00988798159183 -24.60919544278306,101.67976096265856 -26.439322461716557,103.5098879815745 -27.109195442807284,106.00988798157472 -26.43932246174055,108.50988798158139 -24.609195442824614,110.34001500051488 -22.109195442824383,111.0098879816056" stroke="#ffa500" stroke-linecap="round" stroke-linejoin="round"/><polyline fill="none" points="81.99829690918601,-114.27188352273542 84.49829690919267,-114.94175650380215 86.32842392812617,-116.77188352271808 86.9982969092169,-119.27188352271831 86.32842392815017,-121.77188352272498 84.49829690923424,-123.60201054165847 81.99829690923401,-124.2718835227492 79.49829690922735,-123.60201054168247 77.66816989029385,-121.77188352276654 76.99829690920312,-119.27188352276632 77.66816989026985,-116.77188352275965 79.49829690918578,-114.94175650382616 81.99829690918601,-114.27188352273542" stroke="#ffa500" stroke-linecap="round" stroke-linejoin="round"/><polyline fill="none" points="-20.695151043074425,-80.72565536943178 -18.195151043067764,-81.39552835049851 -16.365024024134264,-83.22565536941444 -15.695151043043534,-85.72565536941467 -16.365024024110266,-88.22565536942133 -18.195151043026197,-90.05578238835483 -20.695151043026428,-90.72565536944556 -23.19515104303309,-90.05578238837883 -25.02527806196659,-88.2256553694629 -25.69515104305732,-85.72565536946267 -25.02527806199059,-83.225655369456 -23.19515104307466,-81.39552835052251 -20.69515104307443,-80.72565536943178" stroke="#ffa500" stroke-linecap="round" stroke-linejoin="round"/><polyline fill="none" points="71.38394827531692,-14.195731345427564 73.88394827532359,-14.865604326494292 75.71407529425709,-16.695731345410223 76.38394827534782,-19.195731345410454 75.71407529428109,-21.695731345417116 73.88394827536516,-23.52585836435062 71.38394827536493,-24.195731345441352 68.88394827535826,-23.525858364374624 67.05382125642475,-21.695731345458693 66.38394827533402,-19.195731345458462 67.05382125640075,-16.695731345451797 68.88394827531668,-14.865604326518293 71.38394827531691,-14.195731345427559" stroke="#00f" stroke-linecap="round" stroke-linejoin="round"/><polyline fill="none" points="135.03095246835747,-74.45974305314311 137.53095246836412,-75.12961603420985 139.36107948729762,-76.95974305312578 140.03095246838836,-79.459743053126 139.36107948732163,-81.95974305313267 137.5309524684057,-83.78987007206618 135.03095246840547,-84.45974305315691 132.5309524683988,-83.78987007209018 130.7008254494653,-81.95974305317425 130.03095246837455,-79.45974305317402 130.70082544944128,-76.95974305316736 132.5309524683572,-75.12961603423385 135.03095246835744,-74.45974305314311" stroke="#00f" stroke-linecap="round" stroke-linejoin="round"/><polyline fill="none" points="-152.24991097623294,-51.67648826851492 -149.74991097622626,-52.34636124958165 -147.91978395729276,-54.17648826849758 -147.24991097620202,-56.67648826849781 -147.91978395726875,-59.17648826850448 -149.74991097618468,-61.00661528743799 -152.2499109761849,-61.67648826852873 -154.7499109761916,-61.006615287462004 -156.58003799512508,-59.17648826854608 -157.24991097621583,-56.676488268545846 -156.5800379951491,-54.17648826853918 -154.74991097623317,-52.34636124960567 -152.24991097623294,-51.67648826851493" stroke="#00f" stroke-linecap="round" stroke-linejoin="round"/><polyline fill="none" points="121.82262055528076,-55.33772821076702 124.32262055528743,-56.00760119183374 126.15274757422094,-57.83772821074967 126.82262055531169,-60.3377282107499 126.15274757424497,-62.837728210756566 124.32262055532904,-64.66785522969008 121.82262055532881,-65.33772821078082 119.32262055532215,-64.6678552297141 117.49249353638864,-62.83772821079818 116.82262055529789,-60.33772821079795 117.4924935363646,-57.83772821079128 119.32262055528054,-56.00760119185777 121.82262055528076,-55.33772821076703" stroke="#00f" stroke-linecap="round" stroke-linejoin="round"/><polyline fill="none" points="-55.16661809578888,-80.72816377897718 -52.666618095782205,-81.3980367600439 -50.836491076848695,-83.22816377895982 -50.166618095757954,-85.72816377896005 -50.83649107682467,-88.22816377896672 -52.666618095740596,-90.05829079790023 -55.16661809574083,-90.72816377899098 -57.6666180957475,-90.05829079792426 -59.49674511468102,-88.22816377900833 -60.16661809577177,-85.7281637790081 -59.49674511470505,-83.22816377900143 -57.666618095789126,-81.39803676006792 -55.16661809578889,-80.72816377897718" stroke="#ffa500" stroke-linecap="round" stroke-linejoin="round"/><polyline fill="none" points="-181.4625681495725,34.695149045924154 -178.9625681495658,34.02527606485744 -177.1324411306323,32.19514904594151 -176.46256814954154,29.69514904594128 -177.13244113060824,27.19514904593461 -178.96256814952417,25.365022027001093 -181.4625681495244,24.695149045910345 -183.96256814953108,25.365022026977062 -185.7926951684646,27.195149045892986 -186.46256814955535,29.695149045893217 -185.79269516848865,32.19514904589989 -183.96256814957272,34.025276064833406 -181.4625681495725,34.695149045924154" stroke="#ffa500" stroke-linecap="round" stroke-linejoin="round"/><polyline fill="none" points="20.0450493869693,35.92007647891029 22.545049386975972,35.25020349784357 24.37517640590949,33.42007647892765 25.04504938700024,30.920076478927417 24.375176405933527,28.420076478920745 22.545049387017603,26.589949459987224 20.04504938701737,25.920076478896473 17.5450493870107,26.589949459963186 15.71492236807718,28.42007647887911 15.04504938698643,30.92007647887934 15.714922368053141,33.42007647888602 17.545049386969062,35.250203497819534 20.045049386969293,35.92007647891029" stroke="#00f" stroke-linecap="round" stroke-linejoin="round"/><polyline fill="none" points="-71.96133219891776,57.61585143482429 -69.46133219891108,56.94597845375758 -67.63120517997756,55.11585143484166 -66.96133219888681,52.615851434841424 -67.63120517995353,50.11585143483475 -69.46133219886944,48.28572441590123 -71.96133219886967,47.61585143481047 -74.46133219887635,48.28572441587718 -76.29145921780987,50.11585143479311 -76.96133219890062,52.61585143479334 -76.29145921783392,55.115851434800014 -74.461332198918,56.94597845373354 -71.96133219891777,57.61585143482429" stroke="#008000" stroke-linecap="round" stroke-linejoin="round"/><polyline fill="none" points="59.757132852964496,0.31199543934822405 62.25713285297117,-0.3578775417184854 64.08725987190469,-2.188004560634406 64.75713285299545,-4.6880045606346386 64.08725987192875,-7.188004560641314 62.257132853012834,-9.018131579574838 59.7571328530126,-9.688004560665595 57.25713285300592,-9.018131579598887 55.427005834072396,-7.188004560682967 54.75713285298164,-4.688004560682735 55.42700583404835,-2.1880045606760588 57.25713285296427,-0.35787754174253394 59.7571328529645,0.3119954393482236" stroke="#ffa500" stroke-linecap="round" stroke-linejoin="round"/><polyline fill="none" points="21.524001371716654,-117.80791860010868 24.02400137172333,-118.47779158117538 25.854128390656854,-120.3079186000913 26.524001371747612,-122.80791860009153 25.854128390680906,-125.3079186000982 24.024001371764985,-127.13804561903173 21.524001371764754,-127.80791860012249 19.024001371758075,-127.13804561905579 17.193874352824547,-125.30791860013987 16.52400137173379,-122.80791860013964 17.193874352800496,-120.30791860013296 19.024001371716412,-118.47779158119944 21.524001371716647,-117.80791860010868" stroke="#ffa500" stroke-linecap="round" stroke-linejoin="round"/><polyline fill="none" points="-91.72083491577406,-25.207248651861665 -89.22083491576738,-25.87712163292837 -87.39070789683386,-27.70724865184429 -86.7208349157431,-30.207248651844523 -87.3907078968098,-32.7072486518512 -89.22083491572572,-34.53737567078473 -91.72083491572594,-35.207248651875496 -94.22083491573262,-34.53737567080879 -96.05096193466615,-32.707248651892876 -96.72083491575691,-30.20724865189264 -96.0509619346902,-27.707248651885962 -94.22083491577429,-25.87712163295243 -91.72083491577406,-25.20724865186167" stroke="#00f" stroke-linecap="round" stroke-linejoin="round"/><polyline fill="none" points="85.92118099143904,-75.58070368357717 88.42118099144572,-76.25057666464387 90.25130801037925,-78.08070368355979 90.92118099147001,-80.58070368356002 90.2513080104033,-83.0807036835667 88.42118099148739,-84.91083070250022 85.92118099148716,-85.58070368359098 83.42118099148048,-84.91083070252428 81.59105397254694,-83.08070368360836 80.92118099145618,-80.58070368360814 81.59105397252289,-78.08070368360146 83.4211809914388,-76.25057666466792 85.92118099143903,-75.58070368357716" stroke="#00f" stroke-linecap="round" stroke-linejoin="round"/><polyline fill="none" points="53.26700822198513,-46.17867325077203 55.76700822199181,-46.84854623183873 57.59713524092534,-48.67867325075465 58.26700822201611,-51.17867325075488 57.597135240949406,-53.67867325076156 55.76700822203349,-55.508800269695094 53.267008222033255,-56.17867325078586 50.767008222026575,-55.50880026971916 48.936881203093044,-53.67867325080324 48.267008222002275,-51.17867325080301 48.93688120306897,-48.67867325079632 50.76700822198489,-46.848546231862784 53.26700822198512,-46.178673250772015" stroke="#ffa500" stroke-linecap="round" stroke-linejoin="round"/><polyline fill="none" points="-151.31886841019838,1.6325729559547337 -148.8188684101917,0.9626999748880356 -146.98874139125817,-0.8674270440278788 -146.3188684101674,-3.3674270440281124 -146.9887413912341,-5.8674270440347955 -148.81886841015,-7.697554062968331 -151.31886841015023,-8.3674270440591 -153.8188684101569,-7.6975540629924035 -155.64899542909043,-5.867427044076489 -156.3188684101812,-3.3674270440762557 -155.6489954291145,-0.8674270440695717 -153.8188684101986,0.9626999748639651 -151.31886841019838,1.6325729559547355" stroke="#ffa500" stroke-linecap="round" stroke-linejoin="round"/><polyline fill="none" points="-118.47228177901087,51.43735439054191 -115.97228177900419,50.76748140947522 -114.14215476007065,48.93735439055931 -113.47228177897988,46.43735439055907 -114.14215476004657,43.937354390552386 -115.97228177896248,42.10722737161885 -118.47228177896271,41.43735439052808 -120.97228177896939,42.107227371594774 -122.80240879790293,43.937354390510684 -123.4722817789937,46.43735439051092 -122.80240879792701,48.937354390517605 -120.9722817790111,50.76748140945114 -118.47228177901087,51.43735439054192" stroke="#008000" stroke-linecap="round" stroke-linejoin="round"/><polyline fill="none" points="-43.64963303250801,16.277306643951317 -41.14963303250132,15.607433662884622 -39.31950601356778,13.77730664396871 -38.649633032477006,11.277306643968478 -39.3195060135437,8.777306643961792 -41.14963303245961,6.947179625028252 -43.649633032459846,6.277306643937477 -46.14963303246653,6.9471796250041695 -47.97976005140007,8.777306643920081 -48.64963303249085,11.277306643920316 -47.97976005142416,13.777306643927002 -46.14963303250825,15.607433662860544 -43.649633032508014,16.27730664395132" stroke="#ffa500" stroke-linecap="round" stroke-linejoin="round"/><polyline fill="none" points="-108.81558639831677,-55.68588722628624 -106.31558639831007,-56.35576020735293 -104.48545937937654,-58.18588722626884 -103.81558639828576,-60.685887226269074 -104.48545937935245,-63.18588722627576 -106.31558639826837,-65.0160142452093 -108.8155863982686,-65.68588722630008 -111.31558639827529,-65.0160142452334 -113.14571341720882,-63.18588722631748 -113.8155863982996,-60.68588722631725 -113.14571341723291,-58.18588722631056 -111.31558639831701,-56.35576020737702 -108.81558639831678,-55.68588722628624" stroke="#ffa500" stroke-linecap="round" stroke-linejoin="round"/><polyline fill="none" points="-101.91599452583655,41.71811220083877 -99.41599452582986,41.04823921977208 -97.58586750689632,39.21811220085617 -96.91599452580554,36.718112200855934 -97.58586750687223,34.21811220084925 -99.41599452578814,32.3879851819157 -101.91599452578836,31.718112200824923 -104.41599452579506,32.38798518189161 -106.2461215447286,34.21811220080752 -106.91599452581937,36.71811220080775 -106.24612154475268,39.21811220081444 -104.41599452583678,41.048239219747984 -101.91599452583655,41.71811220083877" stroke="#00f" stroke-linecap="round" stroke-linejoin="round"/><polyline fill="none" points="-9.033069297028955,64.19572151295334 -6.533069297022266,63.52584853188665 -4.702942278088719,61.69572151297074 -4.033069296997938,59.19572151297051 -4.702942278064624,56.695721512963814 -6.533069296980532,54.86559449403027 -9.033069296980766,54.195721512939485 -11.533069296987456,54.865594494006174 -13.363196315921003,56.695721512922084 -14.033069297011787,59.19572151292232 -13.363196315945101,61.69572151292901 -11.533069297029195,63.52584853186256 -9.033069297028963,64.19572151295334" stroke="#ffa500" stroke-linecap="round" stroke-linejoin="round"/><polyline fill="none" points="-99.5113282891061,9.846842045810302 -97.01132828909941,9.176969064743616 -95.18120127016586,7.34684204582771 -94.51132828907507,4.846842045827477 -95.18120127014176,2.3468420458207855 -97.01132828905766,0.516715026887236 -99.51132828905789,-0.15315795420354916 -102.01132828906458,0.5167150268631344 -103.84145530799813,2.34684204577904 -104.51132828908892,4.846842045779274 -103.84145530802223,7.346842045785966 -102.01132828910633,9.176969064719517 -99.5113282891061,9.846842045810304" stroke="#ffa500" stroke-linecap="round" stroke-linejoin="round"/></svg>