<?xml version="1.0" ?><!DOCTYPE svg  PUBLIC '-//W3C//DTD SVG 1.1//EN'  'http://www.w3.org/Graphics/SVG/1.1/DTD/svg11.dtd'><svg height="363.000" viewBox="-198.000 -170.000 389.000 363.000" width="389.000" xmlns="http://www.w3.org/2000/svg"><line fill="none" stroke="none" stroke-linecap="round" stroke-width="2.0" x1="0.0" x2="0.0" y1="0.0" y2="0.0"/><polygon fill="none" fill-rule="evenodd" points="0.0,0.0 0.0,0.0 0.0,0.0" stroke-linejoin="round"/><polyline fill="none" points="16.668325075820032,-25.356605577938783 19.168325075826726,-26.026478559005465 20.998452094760275,-27.85660557792137 21.66832507585106,-30.356605577921606 20.99845209478438,-32.8566055779283 19.168325075868474,-34.68673259686185 16.66832507586824,-35.35660557795264 14.168325075861546,-34.68673259688596 12.338198056927993,-32.85660557797006 11.668325075837204,-30.356605577969823 12.338198056903884,-27.85660557796313 14.168325075819789,-26.026478559029577 16.66832507582002,-25.356605577938787" stroke="#ffa500" stroke-linecap="round" stroke-linejoin="round"/><polyline fill="none" points="27.227961583230012,16.170427345184937 29.727961583236706,15.500554364118257 31.55808860217026,13.670427345202352 32.22796158326105,11.170427345202118 31.55808860219437,8.670427345195424 29.727961583278468,6.84030032626187 27.227961583278233,6.170427345171079 24.72796158327154,6.840300326237759 22.897834564337984,8.670427345153662 22.227961583247193,11.170427345153897 22.89783456431387,13.67042734516059 24.727961583229774,15.500554364094144 27.22796158323001,16.170427345184937" stroke="#ffa500" stroke-linecap="round" stroke-linejoin="round"/><polyline fill="none" points="-11.063493220822748,-36.79398407276249 -8.563493220816053,-37.463857053829166 -6.733366201882497,-39.29398407274507 -6.063493220791704,-41.7939840727453 -6.733366201858382,-44.293984072752 -8.563493220774284,-46.124111091685556 -11.063493220774518,-46.79398407277635 -13.563493220781213,-46.12411109170967 -15.393620239714771,-44.29398407279377 -16.063493220805565,-41.793984072793535 -15.393620239738889,-39.29398407278684 -13.563493220822988,-37.46385705385328 -11.063493220822753,-36.793984072762484" stroke="#ffa500" stroke-linecap="round" stroke-linejoin="round"/><polyline fill="none" points="-64.25039389992463,-47.492540090743994 -61.75039389991794,-48.16241307181067 -59.92026688098438,-49.99254009072657 -59.25039389989358,-52.492540090726806 -59.920266880960256,-54.9925400907335 -61.75039389987616,-56.82266710966706 -64.25039389987639,-57.492540090757856 -66.75039389988308,-56.82266710969118 -68.58052091881663,-54.99254009077528 -69.25039389990742,-52.492540090775044 -68.58052091884075,-49.992540090768344 -66.75039389992484,-48.162413071834784 -64.25039389992462,-47.49254009074399" stroke="#ffa500" stroke-linecap="round" stroke-linejoin="round"/><polyline fill="none" points="-52.92782826823385,27.65738166740816 -50.42782826822715,26.987508686341485 -48.59770124929359,25.157381667425586 -47.927828268202795,22.65738166742535 -48.59770124926947,20.157381667418655 -50.42782826818537,18.327254648485095 -52.92782826818561,17.657381667394297 -55.42782826819231,18.32725464846097 -57.25795528712587,20.157381667376868 -57.927828268216665,22.657381667377102 -57.25795528714999,25.157381667383802 -55.427828268234094,26.987508686317366 -52.92782826823386,27.657381667408167" stroke="#00f" stroke-linecap="round" stroke-linejoin="round"/><polyline fill="none" points="-106.01618801772241,-61.05920948387927 -103.51618801771572,-61.72908246494594 -101.68606099878215,-63.559209483861835 -101.01618801769135,-66.05920948386206 -101.68606099875802,-68.55920948386876 -103.51618801767393,-70.38933650280232 -106.01618801767415,-71.05920948389313 -108.51618801768085,-70.38933650282645 -110.34631503661441,-68.55920948391055 -111.01618801770522,-66.05920948391032 -110.34631503663854,-63.55920948390362 -108.51618801772264,-61.729082464970055 -106.01618801772241,-61.05920948387925" stroke="#00f" stroke-linecap="round" stroke-linejoin="round"/><polyline fill="none" points="155.43384732475891,-91.25315932048363 157.93384732476562,-91.92303230155031 159.76397434369918,-93.75315932046621 160.43384732478998,-96.25315932046644 159.7639743437233,-98.75315932047315 157.9338473248074,-100.58328633940671 155.43384732480718,-101.25315932049752 152.93384732480047,-100.58328633943084 151.10372030586691,-98.75315932051494 150.4338473247761,-96.25315932051471 151.10372030584278,-93.75315932050802 152.9338473247587,-91.92303230157445 155.43384732475891,-91.25315932048365" stroke="#ffa500" stroke-linecap="round" stroke-linejoin="round"/><polyline fill="none" points="61.15498961143647,-149.23129181206895 63.65498961144317,-149.90116479313562 65.48511663037674,-151.73129181205152 66.15498961146754,-154.23129181205175 65.48511663040088,-156.73129181205846 63.654989611484986,-158.56141883099204 61.15498961148475,-159.23129181208284 58.65498961147805,-158.56141883101617 56.824862592544484,-156.73129181210027 56.15498961145368,-154.23129181210004 56.82486259252035,-151.73129181209333 58.65498961143624,-149.90116479315975 61.15498961143648,-149.23129181206895" stroke="#ffa500" stroke-linecap="round" stroke-linejoin="round"/><polyline fill="none" points="-170.55643914390748,-40.37181667468503 -168.05643914390077,-41.04168965575169 -166.2263121249672,-42.871816674667585 -165.5564391438764,-45.37181667466782 -166.22631212494306,-47.87181667467452 -168.05643914385897,-49.701943693608094 -170.5564391438592,-50.371816674698906 -173.0564391438659,-49.701943693632245 -174.88656616279948,-47.87181667471635 -175.5564391438903,-45.371816674716115 -174.8865661628236,-42.87181667470941 -173.0564391439077,-41.04168965577583 -170.55643914390748,-40.37181667468502" stroke="#00f" stroke-linecap="round" stroke-linejoin="round"/><polyline fill="none" points="-58.87049922438637,110.7161859023288 -56.370499224379664,110.04631292126214 -54.54037220544609,108.21618590234625 -53.87049922435528,105.71618590234603 -54.54037220542194,103.21618590233932 -56.370499224337834,101.38605888340575 -58.87049922433807,100.71618590231493 -61.370499224344776,101.3860588833816 -63.20062624327835,103.21618590229748 -63.87049922436916,105.71618590229771 -63.2006262433025,108.21618590230442 -61.370499224386606,110.046312921238 -58.87049922438637,110.71618590232882" stroke="#00f" stroke-linecap="round" stroke-linejoin="round"/><polyline fill="none" points="145.50920377253323,96.98454345854817 148.00920377253993,96.31467047748151 149.83933079147351,94.48454345856562 150.50920377256432,91.9845434585654 149.83933079149767,89.48454345855869 148.00920377258177,87.65441643962511 145.50920377258154,86.98454345853429 143.00920377257484,87.65441643960095 141.17907675364125,89.48454345851684 140.50920377255045,91.98454345851707 141.1790767536171,94.48454345852377 143.009203772533,96.31467047745735 145.50920377253323,96.98454345854817" stroke="#ffa500" stroke-linecap="round" stroke-linejoin="round"/><polyline fill="none" points="149.2575805797204,37.586356801623594 151.75758057972712,36.91648382055694 153.5877075986607,35.08635680164105 154.2575805797515,32.58635680164082 153.58770759868486,30.08635680163411 151.75758057976896,28.256229782700533 149.25758057976873,27.586356801609714 146.75758057976202,28.256229782676368 144.92745356082844,30.086356801592256 144.2575805797376,32.58635680159249 144.92745356080425,35.086356801599194 146.75758057972016,36.916483820532775 149.25758057972038,37.586356801623594" stroke="#ffa500" stroke-linecap="round" stroke-linejoin="round"/><polyline fill="none" points="129.83891778840672,-102.4740259514278 132.33891778841343,-103.14389893249447 134.169044807347,-104.97402595141035 134.83891778843784,-107.47402595141058 134.1690448073712,-109.97402595141729 132.33891778845532,-111.80415297035087 129.8389177884551,-112.47402595144169 127.33891778844838,-111.80415297037504 125.5087907695148,-109.97402595145915 124.83891778842398,-107.47402595145893 125.50879076949063,-104.97402595145222 127.33891778840652,-103.14389893251864 129.83891778840675,-102.47402595142782" stroke="#ffa500" stroke-linecap="round" stroke-linejoin="round"/><polyline fill="none" points="-7.351995472775125,4.5047467371378 -4.851995472768415,3.834873756071148 -3.0218684538348333,2.0047467371552603 -2.35199547274401,-0.4952532628449733 -3.021868453810661,-2.9952532628516835 -4.851995472726548,-4.825380281785266 -7.351995472726782,-5.49525326287609 -9.851995472733492,-4.82538028180944 -11.682122491667075,-2.995253262893553 -12.351995472757899,-0.4952532628933195 -11.68212249169125,2.0047467371133916 -9.851995472775362,3.8348737560469752 -7.351995472775129,4.5047467371378005" stroke="#00f" stroke-linecap="round" stroke-linejoin="round"/><polyline fill="none" points="-10.053879229802785,157.30279486875932 -7.553879229796074,156.63292188769267 -5.723752210862489,154.8027948687768 -5.053879229771664,152.30279486877657 -5.723752210838313,149.80279486876987 -7.5538792297542,147.97266784983628 -10.053879229754434,147.30279486874545 -12.553879229761147,147.9726678498121 -14.384006248694734,149.80279486872797 -15.05387922978556,152.3027948687282 -14.384006248718912,154.8027948687349 -12.553879229803027,156.6329218876685 -10.053879229802792,157.30279486875932" stroke="#ffa500" stroke-linecap="round" stroke-linejoin="round"/><polyline fill="none" points="105.12392060364618,-120.58156614122412 107.62392060365289,-121.25143912229076 109.45404762258647,-123.08156614120665 110.1239206036773,-125.58156614120688 109.45404762261066,-128.08156614121359 107.62392060369477,-129.91169316014717 105.12392060369454,-130.581566141238 102.62392060368784,-129.91169316017135 100.79379358475425,-128.08156614125548 100.12392060366342,-125.58156614125525 100.79379358473007,-123.08156614124854 102.62392060364596,-121.25143912231496 105.12392060364618,-120.58156614122413" stroke="#ffa500" stroke-linecap="round" stroke-linejoin="round"/><polyline fill="none" points="-67.80632803447885,15.793745207457194 -65.30632803447214,15.12387222639055 -63.47620101553856,13.293745207474664 -62.80632803444772,10.79374520747443 -63.47620101551437,8.293745207467715 -65.30632803443025,6.4636181885341255 -67.80632803443048,5.793745207443294 -70.3063280344372,6.463618188509938 -72.1364550533708,8.293745207425822 -72.80632803446163,10.793745207426056 -72.13645505339498,13.29374520743277 -70.3063280344791,15.123872226366363 -67.80632803447887,15.793745207457196" stroke="#008000" stroke-linecap="round" stroke-linejoin="round"/><polyline fill="none" points="106.30356537755304,-87.76042107052405 108.80356537755976,-88.43029405159069 110.63369239649336,-90.26042107050658 111.30356537758419,-92.76042107050681 110.63369239651755,-95.26042107051353 108.80356537760166,-97.09054808944713 106.30356537760143,-97.76042107053796 103.80356537759471,-97.09054808947131 101.97343835866111,-95.26042107055542 101.30356537757028,-92.7604210705552 101.97343835863693,-90.26042107054847 103.80356537755281,-88.43029405161488 106.30356537755304,-87.76042107052405" stroke="#ffa500" stroke-linecap="round" stroke-linejoin="round"/><polyline fill="none" points="-97.63949433340727,-63.184267811647786 -95.13949433340055,-63.854140792714425 -93.30936731446695,-65.6842678116303 -92.63949433337612,-68.18426781163053 -93.30936731444277,-70.68426781163726 -95.13949433335864,-72.51439483057085 -97.63949433335887,-73.18426781166168 -100.13949433336559,-72.51439483059504 -101.96962135229919,-70.68426781167916 -102.63949433339002,-68.18426781167894 -101.96962135232339,-65.68426781167221 -100.13949433340751,-63.85414079273862 -97.63949433340728,-63.18426781164778" stroke="#00f" stroke-linecap="round" stroke-linejoin="round"/><polyline fill="none" points="40.97840947641446,-134.4471773345179 43.47840947642118,-135.11705031558455 45.30853649535477,-136.94717733450042 45.97840947644561,-139.44717733450065 45.30853649537897,-141.94717733450736 43.47840947646309,-143.77730435344097 40.97840947646286,-144.4471773345318 38.478409476456136,-143.77730435346515 36.64828245752254,-141.94717733454928 35.9784094764317,-139.44717733454905 36.64828245749834,-136.94717733454235 38.47840947641422,-135.11705031560874 40.978409476414456,-134.4471773345179" stroke="#00f" stroke-linecap="round" stroke-linejoin="round"/><polyline fill="none" points="173.82881462962365,-25.51668173200956 176.32881462963036,-26.186554713076195 178.15894164856397,-28.016681731992072 178.8288146296548,-30.516681731992307 178.15894164858815,-33.01668173199903 176.32881462967228,-34.846808750932624 173.82881462967205,-35.516681732023464 171.32881462966535,-34.84680875095683 169.49868761073174,-33.01668173204096 168.8288146296409,-30.516681732040723 169.49868761070755,-28.016681732034 171.32881462962342,-26.186554713100403 173.82881462962365,-25.51668173200956" stroke="#ffa500" stroke-linecap="round" stroke-linejoin="round"/><polyline fill="none" points="35.73314293181768,2.546156814954127 38.2331429318244,1.8762838338874932 40.063269950758006,0.046156814971615834 40.733142931848846,-2.4538431850286178 40.063269950782214,-4.953843185035338 38.23314293186634,-6.783970203968939 35.733142931866105,-7.4538431850597835 33.23314293185938,-6.783970203993151 31.40301591292578,-4.953843185077275 30.733142931834937,-2.4538431850770417 31.40301591290157,0.0461568149296796 33.23314293181745,1.8762838338632812 35.73314293181768,2.546156814954127" stroke="#ffa500" stroke-linecap="round" stroke-linejoin="round"/><polyline fill="none" points="96.28180579665592,-105.14130135677964 98.78180579666264,-105.81117433784627 100.61193281559625,-107.64130135676214 101.2818057966871,-110.14130135676237 100.61193281562046,-112.64130135676909 98.78180579670459,-114.4714283757027 96.28180579670436,-115.14130135679355 93.78180579669764,-114.47142837572692 91.95167877776403,-112.64130135681104 91.28180579667318,-110.14130135681081 91.95167877773982,-107.64130135680409 93.78180579665569,-105.81117433787048 96.28180579665592,-105.14130135677964" stroke="#ffa500" stroke-linecap="round" stroke-linejoin="round"/><polyline fill="none" points="-21.441791364386905,30.94189840421984 -18.941791364380183,30.272025423153213 -17.111664345446577,28.44189840423734 -16.44179136435573,25.941898404237104 -17.11166434542236,23.441898404230383 -18.941791364338233,21.611771385296777 -21.441791364338467,20.941898404205926 -23.941791364345193,21.611771385272554 -25.7719183832788,23.44189840418843 -26.44179136436965,25.941898404188663 -25.77191838330302,28.44189840419539 -23.941791364387147,30.272025423128994 -21.441791364386912,30.941898404219845" stroke="#00f" stroke-linecap="round" stroke-linejoin="round"/><polyline fill="none" points="52.82406260814769,-5.180027637161711 55.324062608154414,-5.849900618228338 57.15418962708802,-7.68002763714421 57.82406260817888,-10.180027637144443 57.15418962711225,-12.680027637151168 55.32406260819638,-14.510154656084776 52.824062608196144,-15.180027637175629 50.32406260818942,-14.510154656109004 48.49393558925581,-12.680027637193131 47.82406260816496,-10.180027637192897 48.49393558923158,-7.680027637186171 50.32406260814746,-5.849900618252563 52.82406260814769,-5.180027637161709" stroke="#00f" stroke-linecap="round" stroke-linejoin="round"/><polyline fill="none" points="149.54284390329354,-53.59157433868389 152.04284390330028,-54.261447319750516 153.8729709222339,-56.09157433866639 154.54284390332475,-58.591574338666625 153.87297092225813,-61.091574338673354 152.04284390334226,-62.92170135760696 149.54284390334203,-63.59157433869782 147.0428439033353,-62.92170135763119 145.2127168844017,-61.09157433871532 144.54284390331082,-58.591574338715084 145.21271688437744,-56.091574338708355 147.04284390329332,-54.261447319774746 149.54284390329354,-53.59157433868389" stroke="#00f" stroke-linecap="round" stroke-linejoin="round"/><polyline fill="none" points="89.06165730862065,64.40204637318725 91.56165730862737,63.73217339212062 93.39178432756098,61.902046373204755 94.06165730865185,59.40204637320452 93.39178432758523,56.90204637319779 91.56165730866935,55.07191935426418 89.06165730866913,54.40204637317333 86.5616573086624,55.071919354239945 84.7315302897288,56.90204637315581 84.06165730863793,59.40204637315605 84.73153028970455,61.902046373162776 86.56165730862043,63.73217339209639 89.06165730862065,64.40204637318725" stroke="#ffa500" stroke-linecap="round" stroke-linejoin="round"/><polyline fill="none" points="139.92462201332273,40.60259347167959 142.42462201332947,39.93272049061297 144.25474903226308,38.102593471697105 144.92462201335394,35.60259347169687 144.25474903228732,33.10259347169014 142.42462201337145,31.27246645275653 139.92462201337122,30.602593471665667 137.42462201336448,31.272466452732285 135.59449499443087,33.102593471648156 134.92462201334,35.60259347164839 135.59449499440663,38.10259347165512 137.4246220133225,39.932720490588736 139.92462201332273,40.6025934716796" stroke="#ffa500" stroke-linecap="round" stroke-linejoin="round"/><polyline fill="none" points="68.08911835092155,-100.27585753701554 70.58911835092829,-100.94573051808216 72.4192453698619,-102.77585753699803 73.08911835095276,-105.27585753699826 72.41924536988614,-107.775857537005 70.58911835097027,-109.60598455593862 68.08911835097004,-110.27585753702948 65.5891183509633,-109.60598455596286 63.75899133202969,-107.775857537047 63.089118350938826,-105.27585753704678 63.758991332005444,-102.77585753704004 65.58911835092131,-100.94573051810642 68.08911835092154,-100.27585753701555" stroke="#ffa500" stroke-linecap="round" stroke-linejoin="round"/><polyline fill="none" points="37.68298132418698,-22.616311991959037 40.18298132419371,-23.28618497302565 42.01310834312733,-25.11631199194152 42.68298132421819,-27.616311991941753 42.01310834315157,-30.116311991948486 40.182981324235705,-31.946439010882106 37.68298132423547,-32.61631199197297 35.18298132422874,-31.946439010906357 33.352854305295125,-30.11631199199049 32.682981324204256,-27.616311991990255 33.35285430527087,-25.116311991983522 35.182981324186734,-23.286184973049902 37.68298132418697,-22.616311991959037" stroke="#ffa500" stroke-linecap="round" stroke-linejoin="round"/><polyline fill="none" points="-57.91246226952624,31.466428509700922 -55.41246226951951,30.796555528634308 -53.582335250585885,28.966428509718444 -52.912462269495016,26.46642850971821 -53.58233525056163,23.966428509711477 -55.412462269477494,22.136301490777857 -57.91246226947773,21.46642850968699 -60.412462269484465,22.1363014907536 -62.24258928841809,23.966428509669463 -62.91246226950896,26.466428509669697 -62.242589288442346,28.96642850967643 -60.41246226952648,30.79655552861005 -57.912462269526245,31.46642850970092" stroke="#ffa500" stroke-linecap="round" stroke-linejoin="round"/><polyline fill="none" points="40.811602172957684,-32.10687978295228 43.31160217296442,-32.77675276401889 45.141729191898044,-34.60687978293475 45.81160217298891,-37.10687978293498 45.1417291919223,-39.60687978294172 43.31160217300644,-41.43700680187534 40.81160217300621,-42.10687978296621 38.31160217299947,-41.4370068018996 36.48147515406585,-39.60687978298374 35.81160217297498,-37.106879782983505 36.48147515404159,-34.60687978297677 38.31160217295745,-32.776752764043145 40.811602172957684,-32.10687978295227" stroke="#00f" stroke-linecap="round" stroke-linejoin="round"/><polyline fill="none" points="-96.35593767375215,1.1630346995064444 -93.85593767374542,0.4931617184398367 -92.02581065481179,-1.3369653004760254 -91.35593767372092,-3.8369653004762583 -92.02581065478752,-6.336965300482994 -93.85593767370338,-8.167092319416621 -96.35593767370361,-8.836965300507496 -98.85593767371034,-8.16709231944089 -100.68606469264397,-6.336965300525029 -101.35593767373484,-3.8369653005247955 -100.68606469266824,-1.3369653005180595 -98.85593767375238,0.4931617184155681 -96.35593767375215,1.1630346995064436" stroke="#ffa500" stroke-linecap="round" stroke-linejoin="round"/><polyline fill="none" points="-162.91875324354737,62.66472566102054 -160.41875324354064,61.99485267995394 -158.588626224607,60.16472566103808 -157.9187532435161,57.66472566103784 -158.58862622458273,55.164725661031106 -160.4187532434986,53.334598642097475 -162.91875324349883,52.6647256610066 -165.41875324350556,53.3345986420732 -167.2488802624392,55.16472566098906 -167.9187532435301,57.6647256609893 -167.2488802624635,60.164725660996034 -165.41875324354766,61.994852679929664 -162.91875324354743,62.66472566102054" stroke="#ffa500" stroke-linecap="round" stroke-linejoin="round"/><polyline fill="none" points="167.52060562526168,89.12802594324646 170.02060562526842,88.45815296217985 171.85073264420205,86.62802594326399 172.52060562529294,84.12802594326376 171.85073264422635,81.62802594325703 170.0206056253105,79.79789892432339 167.52060562531028,79.12802594323252 165.02060562530355,79.79789892429912 163.1904786063699,81.62802594321498 162.52060562527902,84.1280259432152 163.1904786063456,86.62802594322194 165.02060562526145,88.45815296215558 167.52060562526168,89.12802594324646" stroke="#ffa500" stroke-linecap="round" stroke-linejoin="round"/><polyline fill="none" points="-93.81111993239531,11.605978887399626 -91.31111993238858,10.936105906333026 -89.48099291345494,9.105978887417168 -88.81111993236406,6.605978887416934 -89.48099291343067,4.105978887410194 -91.31111993234653,2.2758518684765603 -93.81111993234676,1.6059788873856782 -96.31111993235349,2.275851868452278 -98.14124695128713,4.105978887368136 -98.811119932378,6.605978887368369 -98.1412469513114,9.105978887375109 -96.31111993239554,10.936105906308743 -93.81111993239531,11.605978887399626" stroke="#f00" stroke-linecap="round" stroke-linejoin="round"/><polyline fill="none" points="41.751832283441395,-100.81443125971103 44.25183228344814,-101.48430424077763 46.081959302381776,-103.31443125969349 46.75183228347266,-105.81443125969372 46.08195930240606,-108.31443125970046 44.25183228349021,-110.1445582786341 41.751832283489975,-110.81443125972498 39.25183228348323,-110.14455827865838 37.421705264549594,-108.31443125974252 36.75183228345871,-105.81443125974229 37.42170526452531,-103.31443125973556 39.25183228344116,-101.48430424080192 41.751832283441395,-100.81443125971103" stroke="#ffa500" stroke-linecap="round" stroke-linejoin="round"/><polyline fill="none" points="140.5567175475373,-72.45369785056384 143.05671754754403,-73.12357083163043 144.88684456647766,-74.95369785054629 145.55671754756855,-77.45369785054652 144.88684456650196,-79.95369785055325 143.05671754758612,-81.78382486948689 140.5567175475859,-82.45369785057778 138.05671754757915,-81.7838248695112 136.22659052864552,-79.95369785059533 135.55671754755463,-77.4536978505951 136.22659052862122,-74.95369785058837 138.05671754753706,-73.12357083165473 140.5567175475373,-72.45369785056384" stroke="#ffa500" stroke-linecap="round" stroke-linejoin="round"/><polyline fill="none" points="148.6676152773943,-25.553005993615923 151.16761527740104,-26.222878974682516 152.99774229633468,-28.05300599359837 153.66761527742557,-30.553005993598603 152.99774229635898,-33.053005993605346 151.16761527744313,-34.883133012538984 148.6676152774429,-35.553005993629874 146.16761527743617,-34.883133012563285 144.33748825850253,-33.05300599364743 143.66761527741164,-30.553005993647197 144.33748825847823,-28.053005993640454 146.16761527739408,-26.222878974706813 148.6676152773943,-25.553005993615923" stroke="#ffa500" stroke-linecap="round" stroke-linejoin="round"/><polyline fill="none" points="-112.1410780523418,47.1471162029633 -109.64107805233505,46.477243221896714 -107.81095103340141,44.64711620298086 -107.14107805231052,42.14711620298063 -107.81095103337711,39.64711620297388 -109.64107805229295,37.81698918404024 -112.14107805229318,37.14711620294935 -114.64107805229993,37.81698918401594 -116.47120507123357,39.64711620293179 -117.14107805232446,42.147116202932025 -116.47120507125787,44.64711620293877 -114.64107805234202,46.47724322187241 -112.1410780523418,47.14711620296331" stroke="#00f" stroke-linecap="round" stroke-linejoin="round"/><polyline fill="none" points="142.3033696563709,-69.17941812078615 144.80336965637764,-69.84929110185274 146.63349667531128,-71.67941812076859 147.30336965640217,-74.17941812076882 146.63349667533558,-76.67941812077557 144.80336965641973,-78.5095451397092 142.3033696564195,-79.1794181208001 139.80336965641277,-78.5095451397335 137.97324263747913,-76.67941812081766 137.30336965638824,-74.17941812081743 137.97324263745483,-71.67941812081068 139.80336965637068,-69.84929110187703 142.3033696563709,-69.17941812078614" stroke="#ffa500" stroke-linecap="round" stroke-linejoin="round"/><polyline fill="none" points="118.94317889347626,24.831776392889935 121.44317889348301,24.16190341182335 123.27330591241666,22.3317763929075 123.94317889350756,19.831776392907265 123.27330591244097,17.33177639290052 121.44317889352513,15.501649373966872 118.9431788935249,14.831776392875975 116.44317889351815,15.501649373942561 114.6130518745845,17.331776392858412 113.9431788934936,19.831776392858647 114.61305187456018,22.331776392865393 116.44317889347603,24.16190341179904 118.94317889347626,24.83177639288994" stroke="#ffa500" stroke-linecap="round" stroke-linejoin="round"/><polyline fill="none" points="141.1343494916708,74.32558898913257 143.63434949167754,73.65571600806598 145.46447651061118,71.82558898915013 146.13434949170207,69.3255889891499 145.46447651063548,66.82558898914316 143.63434949171963,64.9954619702095 141.1343494917194,64.3255889891186 138.63434949171267,64.99546197018519 136.80422247277903,66.82558898910104 136.13434949168814,69.32558898910126 136.80422247275473,71.82558898910801 138.63434949167058,73.65571600804167 141.1343494916708,74.32558898913257" stroke="#ffa500" stroke-linecap="round" stroke-linejoin="round"/><polyline fill="none" points="27.098478122201186,160.31084326970955 29.598478122207936,159.64097028864296 31.42860514114159,157.81084326972712 32.09847812223249,155.3108432697269 31.42860514116591,152.81084326972015 29.598478122250064,150.98071625078651 27.09847812224983,150.31084326969562 24.59847812224308,150.9807162507622 22.768351103309428,152.81084326967806 22.098478122218523,155.3108432696783 22.768351103285106,157.81084326968505 24.59847812220095,159.64097028861872 27.098478122201186,160.3108432697096" stroke="#ffa500" stroke-linecap="round" stroke-linejoin="round"/><polyline fill="none" points="-114.71924660470083,-16.161851095443076 -112.21924660469408,-16.83172407650966 -110.38911958576043,-18.661851095425504 -109.71924660466952,-21.16185109542574 -110.3891195857361,-23.66185109543249 -112.21924660465194,-25.49197811436614 -114.71924660465217,-26.161851095457045 -117.21924660465892,-25.491978114390466 -119.04937362359257,-23.66185109547462 -119.71924660468348,-21.161851095474386 -119.0493736236169,-18.661851095467632 -117.21924660470106,-16.831724076533977 -114.71924660470083,-16.16185109544307" stroke="#00f" stroke-linecap="round" stroke-linejoin="round"/><polyline fill="none" points="-177.50820936345383,50.994589684076985 -175.00820936344707,50.32471670301041 -173.1780823445134,48.494589684094564 -172.50820936342248,45.99458968409433 -173.17808234448907,43.49458968408758 -175.00820936340492,41.66446266515392 -177.50820936340514,40.99458968406301 -180.0082093634119,41.664462665129584 -181.83833638234557,43.49458968404543 -182.5082093634365,45.994589684045664 -181.8383363823699,48.494589684052414 -180.00820936345406,50.32471670298607 -177.50820936345383,50.994589684076985" stroke="#00f" stroke-linecap="round" stroke-linejoin="round"/><polyline fill="none" points="114.57530661899276,147.4993267908205 117.0753066189995,146.82945380975391 118.90543363793316,144.99932679083807 119.57530661902406,142.49932679083784 118.90543363795749,139.99932679083108 117.07530661904164,138.1691997718974 114.57530661904141,137.4993267908065 112.07530661903466,138.16919977187305 110.24517960010101,139.9993267907889 109.57530661901009,142.49932679078913 110.24517960007667,144.9993267907959 112.07530661899251,146.82945380972956 114.57530661899274,147.49932679082048" stroke="#ffa500" stroke-linecap="round" stroke-linejoin="round"/><polyline fill="none" points="-24.87526196211891,124.76037695484905 -22.375261962112155,124.09050397378248 -20.545134943178496,122.26037695486663 -19.87526196208758,119.7603769548664 -20.545134943154153,117.26037695485965 -22.375261962069995,115.43024993592599 -24.87526196207023,114.76037695483507 -27.375261962076983,115.43024993590164 -29.205388981010646,117.26037695481749 -29.87526196210156,119.76037695481772 -29.20538898103499,122.26037695482447 -27.375261962119147,124.09050397375813 -24.875261962118913,124.76037695484905" stroke="#ffa500" stroke-linecap="round" stroke-linejoin="round"/><polyline fill="none" points="-79.76449003038736,32.95672629071926 -77.26449003038061,32.28685330965269 -75.43436301144695,30.45672629073685 -74.76449003035603,27.956726290736615 -75.4343630114226,25.456726290729858 -77.26449003033845,23.626599271796195 -79.76449003033868,22.95672629070528 -82.26449003034543,23.62659927177185 -84.0946170492791,25.456726290687687 -84.76449003037001,27.95672629068792 -84.09461704930344,30.45672629069468 -82.26449003038759,32.28685330962834 -79.76449003038736,32.95672629071926" stroke="#00f" stroke-linecap="round" stroke-linejoin="round"/><polyline fill="none" points="106.95096148087586,-2.459120585185783 109.45096148088263,-3.1289935662523516 111.28108849981629,-4.959120585168191 111.95096148090721,-7.459120585168424 111.28108849984065,-9.959120585175182 109.4509614809248,-11.789247604108848 106.95096148092458,-12.459120585199766 104.45096148091781,-11.789247604133198 102.62083446198415,-9.95912058521736 101.95096148089323,-7.459120585217126 102.62083446195979,-4.959120585210367 104.45096148087562,-3.1289935662767 106.95096148087585,-2.4591205851857794" stroke="#ffa500" stroke-linecap="round" stroke-linejoin="round"/><polyline fill="none" points="73.55958097852904,17.146828858623124 76.0595809785358,16.47695587755656 77.88970799746947,14.64682885864072 78.55958097856039,12.146828858640486 77.88970799749383,9.646828858633727 76.059580978578,7.816701839700059 73.55958097857777,7.146828858609137 71.059580978571,7.8167018396757015 69.22945395963734,9.646828858591538 68.55958097854642,12.146828858591771 69.22945395961298,14.646828858598532 71.05958097852881,16.476955877532202 73.55958097852904,17.146828858623124" stroke="#00f" stroke-linecap="round" stroke-linejoin="round"/><polyline fill="none" points="57.669099649369016,118.8630409135387 60.16909964937578,118.19316793247214 61.99922666830945,116.3630409135563 62.66909964940037,113.86304091355608 61.99922666833381,111.36304091354931 60.16909964941797,109.53291389461565 57.66909964941774,108.86304091352473 55.169099649410974,109.53291389459129 53.3389726304773,111.36304091350712 52.669099649386375,113.86304091350735 53.338972630452936,116.36304091351411 55.169099649368775,118.19316793244778 57.66909964936901,118.86304091353871" stroke="#ffa500" stroke-linecap="round" stroke-linejoin="round"/><polyline fill="none" points="-34.948888613241685,-22.03134608221727 -32.44888861323492,-22.70121906328383 -30.618761594301247,-24.531346082199665 -29.948888613210322,-27.0313460821999 -30.618761594276883,-29.53134608220666 -32.44888861319272,-31.361473101140334 -34.948888613192956,-32.03134608223126 -37.44888861319972,-31.361473101164698 -39.279015632133394,-29.531346082248863 -39.94888861322432,-27.03134608224863 -39.27901563215776,-24.531346082241864 -37.44888861324193,-22.70121906330819 -34.94888861324169,-22.03134608221726" stroke="#ffa500" stroke-linecap="round" stroke-linejoin="round"/><polyline fill="none" points="-31.409107478353775,-48.159170660906284 -28.90910747834701,-48.829043641972845 -27.078980459413337,-50.65917066088868 -26.409107478322408,-53.15917066088891 -27.078980459388966,-55.659170660895676 -28.9091074783048,-57.48929767982935 -31.409107478305035,-58.15917066092028 -33.909107478311796,-57.48929767985372 -35.73923449724547,-55.65917066093789 -36.4091074783364,-53.159170660937654 -35.73923449726984,-50.65917066093089 -33.90910747835401,-48.82904364199722 -31.409107478353775,-48.159170660906284" stroke="#ffa500" stroke-linecap="round" stroke-linejoin="round"/><polyline fill="none" points="1.7388913805470976,-21.00544121782395 4.238891380553862,-21.675314198890508 6.069018399487538,-23.505441217806343 6.73889138057847,-26.005441217806577 6.069018399511913,-28.505441217813342 4.23889138059608,-30.33556823674702 1.7388913805958457,-31.00544121783795 -0.7611086194109196,-30.335568236771394 -2.591235638344597,-28.505441217855562 -3.26110861943553,-26.005441217855328 -2.5912356383689743,-23.505441217848563 -0.7611086194531418,-21.675314198914887 1.7388913805470922,-21.005441217823954" stroke="#ffa500" stroke-linecap="round" stroke-linejoin="round"/><polyline fill="none" points="61.055253523110366,74.91795984883977 63.55525352311713,74.24808686777321 65.38538054205081,72.41795984885738 66.05525352314174,69.91795984885715 65.38538054207518,67.41795984885039 63.55525352315935,65.5878328299167 61.05525352315912,64.91795984882577 58.55525352315235,65.58783282989233 56.72512650421867,67.41795984880817 56.05525352312774,69.9179598488084 56.72512650419429,72.41795984881516 58.555253523110125,74.24808686774884 61.05525352311036,74.91795984883977" stroke="#00f" stroke-linecap="round" stroke-linejoin="round"/><polyline fill="none" points="-60.438916662370225,120.05754140475523 -57.938916662363454,119.38766842368868 -56.10878964342977,117.55754140477285 -55.43891666233883,115.05754140477262 -56.10878964340539,112.55754140476586 -57.93891666232122,110.72741438583218 -60.43891666232145,110.05754140474124 -62.938916662328225,110.72741438580779 -64.7690436812619,112.55754140472362 -65.43891666235284,115.05754140472385 -64.76904368128629,117.55754140473061 -62.93891666237046,119.3876684236643 -60.438916662370225,120.05754140475523" stroke="#ffa500" stroke-linecap="round" stroke-linejoin="round"/><polyline fill="none" points="-72.38836462136405,90.73350660610885 -69.88836462135728,90.0636336250423 -68.0582376024236,88.23350660612647 -67.38836462133266,85.73350660612624 -68.0582376023992,83.23350660611948 -69.88836462131503,81.4033795871858 -72.38836462131528,80.73350660609485 -74.88836462132204,81.4033795871614 -76.71849164025572,83.23350660607723 -77.38836462134667,85.73350660607747 -76.71849164028012,88.23350660608423 -74.88836462136429,90.06363362501791 -72.38836462136405,90.73350660610886" stroke="#00f" stroke-linecap="round" stroke-linejoin="round"/><polyline fill="none" points="-163.62912410511078,85.69622318370676 -161.129124105104,85.02635020264022 -159.29899708617032,83.19622318372438 -158.62912410507937,80.69622318372414 -159.29899708614593,78.19622318371736 -161.12912410506175,76.36609616478368 -163.62912410506198,75.69622318369274 -166.12912410506874,76.36609616475928 -167.95925112400244,78.19622318367512 -168.62912410509338,80.69622318367536 -167.95925112402685,83.19622318368214 -166.12912410511103,85.02635020261583 -163.6291241051108,85.69622318370678" stroke="#ffa500" stroke-linecap="round" stroke-linejoin="round"/><polyline fill="none" points="-0.6968833530229304,1.0380014830570605 1.8031166469838429,0.36812850199051395 3.633243665917532,-1.461998516925314 4.303116647008477,-3.96199851692555 3.6332436659419307,-6.461998516932324 1.8031166470261026,-8.292125535866013 -0.6968833529741332,-8.961998516956958 -3.196883352980907,-8.292125535890413 -5.027010371914597,-6.461998516974585 -5.696883353005543,-3.96199851697435 -5.027010371938998,-1.4619985169675758 -3.1968833530231704,0.36812850196611513 -0.6968833530229346,1.0380014830570623" stroke="#ffa500" stroke-linecap="round" stroke-linejoin="round"/><polyline fill="none" points="-107.85029250267975,58.528982176111015 -105.35029250267297,57.85910919504447 -103.52016548373928,56.02898217612864 -102.85029250264833,53.52898217612841 -103.52016548371488,51.02898217612164 -105.35029250263071,49.19885515718794 -107.85029250263095,48.528982176096996 -110.35029250263773,49.198855157163536 -112.18041952157142,51.02898217607936 -112.85029250266237,53.528982176079595 -112.18041952159582,56.02898217608637 -110.35029250267999,57.85910919502007 -107.85029250267975,58.528982176111015" stroke="#008000" stroke-linecap="round" stroke-linejoin="round"/><polyline fill="none" points="-79.84249040584157,-34.96813191562462 -77.3424904058348,-35.63800489669116 -75.5123633869011,-37.46813191560698 -74.84249040581015,-39.968131915607216 -75.5123633868767,-42.468131915613995 -77.34249040579253,-44.29825893454769 -79.84249040579277,-44.968131915638644 -82.34249040579955,-44.298258934572104 -84.17261742473325,-42.46813191565628 -84.8424904058242,-39.968131915656045 -84.17261742475765,-37.468131915649266 -82.34249040584183,-35.63800489671557 -79.84249040584159,-34.96813191562462" stroke="#00f" stroke-linecap="round" stroke-linejoin="round"/><polyline fill="none" points="2.0479486751433296,122.68334596148783 4.547948675150107,122.0134729804213 6.378075694083804,120.18334596150548 7.047948675174758,117.68334596150524 6.378075694108219,115.18334596149846 4.547948675192395,113.35321894256477 2.04794867519216,112.6833459614738 -0.4520513248146183,113.35321894254034 -2.282178343748316,115.18334596145615 -2.952051324839271,117.6833459614564 -2.282178343772733,120.18334596146317 -0.45205132485691,122.01347298039687 2.047948675143326,122.68334596148783" stroke="#00f" stroke-linecap="round" stroke-linejoin="round"/><polyline fill="none" points="-122.63861878257094,63.9915425916919 -120.13861878256417,63.321669610625364 -118.30849176363047,61.49154259170954 -117.63861878253951,58.991542591709305 -118.30849176360604,56.491542591702526 -120.13861878252186,54.661415572768824 -122.6386187825221,53.99154259167787 -125.13861878252888,54.6614155727444 -126.96874580146257,56.49154259166023 -127.63861878255354,58.99154259166046 -126.968745801487,61.49154259166724 -125.13861878257119,63.32166961060094 -122.63861878257094,63.9915425916919" stroke="#00f" stroke-linecap="round" stroke-linejoin="round"/><polyline fill="none" points="28.175425368013105,93.81310235731077 30.675425368019887,93.14322937624424 32.50555238695359,91.31310235732842 33.17542536804455,88.81310235732818 32.50555238697802,86.3131023573214 30.675425368062196,84.48297533838769 28.175425368061962,83.81310235729673 25.67542536805518,84.48297533836326 23.845298349121478,86.31310235727908 23.175425368030517,88.81310235727932 23.84529834909705,91.3131023572861 25.67542536801287,93.14322937621981 28.175425368013105,93.81310235731077" stroke="#ffa500" stroke-linecap="round" stroke-linejoin="round"/><polyline fill="none" points="-91.4522064374805,118.31985575515844 -88.95220643747372,117.64998277409191 -87.12207941854001,115.81985575517609 -86.45220643744905,113.31985575517585 -87.12207941851558,110.81985575516907 -88.9522064374314,108.98972873623536 -91.45220643743164,108.3198557551444 -93.95220643743842,108.98972873621094 -95.78233345637213,110.81985575512675 -96.45220643746309,113.319855755127 -95.78233345639656,115.81985575513377 -93.95220643748074,117.64998277406748 -91.4522064374805,118.31985575515844" stroke="#ffa500" stroke-linecap="round" stroke-linejoin="round"/><polyline fill="none" points="23.960940548450445,-24.01355122417844 26.460940548457227,-24.683424205244968 28.291067567390932,-26.513551224160786 28.960940548481897,-29.01355122416102 28.291067567415368,-31.513551224167802 26.46094054849955,-33.34367824310151 23.960940548499316,-34.013551224192476 21.46094054849253,-33.34367824312595 19.63081352955882,-31.513551224210133 18.960940548467853,-29.0135512242099 19.630813529534382,-26.513551224203113 21.4609405484502,-24.683424205269404 23.960940548450434,-24.013551224178435" stroke="#ffa500" stroke-linecap="round" stroke-linejoin="round"/><polyline fill="none" points="-54.47138489671765,180.55803837984638 -51.971384896710866,179.88816539877985 -50.14125787777716,178.05803837986403 -49.47138489668619,175.5580383798638 -50.141257877752714,173.058038379857 -51.97138489666853,171.2279113609233 -54.471384896668766,170.5580383798323 -56.97138489667555,171.22791136089884 -58.80151191560926,173.05803837981466 -59.47138489670023,175.5580383798149 -58.801511915633704,178.05803837982168 -56.971384896717886,179.8881653987554 -54.47138489671765,180.55803837984638" stroke="#ffa500" stroke-linecap="round" stroke-linejoin="round"/><polyline fill="none" points="60.622198428180276,22.253805520514987 63.12219842818706,21.583932539448462 64.95232544712077,19.753805520532644 65.62219842821175,17.25380552053241 64.95232544714523,14.753805520525624 63.12219842822941,12.923678501591912 60.622198428229176,12.25380552050094 58.12219842822239,12.923678501567464 56.292071409288674,14.75380552048328 55.6221984281977,17.253805520483514 56.292071409264224,19.7538055204903 58.12219842818004,21.583932539424012 60.622198428180276,22.253805520514984" stroke="#ffa500" stroke-linecap="round" stroke-linejoin="round"/><polyline fill="none" points="-104.72034415455725,50.16712258480173 -102.22034415455046,49.497249603735206 -100.39021713561675,47.66712258481939 -99.72034415452578,45.167122584819154 -100.3902171355923,42.66712258481237 -102.22034415450811,40.83699556587865 -104.72034415450835,40.16712258478768 -107.22034415451515,40.836995565854195 -109.05047117344886,42.667122584770006 -109.72034415453983,45.16712258477024 -109.05047117347331,47.667122584777026 -107.2203441545575,49.49724960371074 -104.72034415455725,50.16712258480172" stroke="#008000" stroke-linecap="round" stroke-linejoin="round"/><polyline fill="none" points="-79.74787197535488,32.53555436615278 -77.24787197534809,31.865681385086262 -75.41774495641437,30.035554366170448 -74.74787197532339,27.53555436617021 -75.41774495638991,25.03555436616342 -77.24787197530573,23.205427347229705 -79.74787197530597,22.535554366138726 -82.24787197531276,23.205427347205244 -84.07799899424649,25.035554366121055 -84.74787197533746,27.53555436612129 -84.07799899427094,30.03555436612808 -82.24787197535512,31.865681385061798 -79.74787197535488,32.53555436615277" stroke="#00f" stroke-linecap="round" stroke-linejoin="round"/><polyline fill="none" points="-62.5704639511266,6.721288814886954 -60.070463951119805,6.051415833820436 -58.24033693218609,4.221288814904625 -57.57046395109511,1.7212888149043888 -58.240336932161625,-0.7787111851024018 -60.070463951077436,-2.608838204036121 -62.57046395107767,-3.2787111851271007 -65.07046395108446,-2.6088382040605844 -66.90059097001819,-0.7787111851447737 -67.57046395110916,1.7212888148554621 -66.90059097004264,4.221288814862254 -65.07046395112684,6.051415833795974 -62.570463951126605,6.721288814886955" stroke="#ffa500" stroke-linecap="round" stroke-linejoin="round"/><polyline fill="none" points="109.23256048676029,98.21060162291549 111.73256048676708,97.54072864184897 113.56268750570081,95.71060162293317 114.23256048679178,93.21060162293293 113.56268750572526,90.71060162292613 111.73256048680946,88.88047460399241 109.23256048680922,88.21060162290144 106.73256048680243,88.88047460396795 104.9024334678687,90.71060162288376 104.23256048677771,93.210601622884 104.90243346784423,95.71060162289079 106.73256048676004,97.54072864182451 109.23256048676028,98.2106016229155" stroke="#00f" stroke-linecap="round" stroke-linejoin="round"/><polyline fill="none" points="-171.57640079155294,-71.35289596238349 -169.07640079154615,-72.02276894345 -167.24627377261243,-73.8528959623658 -166.57640079152145,-76.35289596236605 -167.24627377258795,-78.85289596237284 -169.07640079150377,-80.68302298130656 -171.576400791504,-81.35289596239755 -174.0764007915108,-80.68302298133105 -175.90652781044452,-78.85289596241525 -176.5764007915355,-76.352895962415 -175.906527810469,-73.85289596240821 -174.07640079155317,-72.02276894347449 -171.57640079155294,-71.3528959623835" stroke="#ffa500" stroke-linecap="round" stroke-linejoin="round"/><polyline fill="none" points="-88.7966526963181,111.57056930413569 -86.29665269631131,110.90069632306918 -84.46652567737759,109.07056930415338 -83.7966526962866,106.57056930415314 -84.4665256773531,104.07056930414635 -86.29665269626891,102.24044228521262 -88.79665269626915,101.57056930412163 -91.29665269627594,102.24044228518814 -93.12677971520966,104.07056930410394 -93.79665269630065,106.57056930410418 -93.12677971523415,109.07056930411098 -91.29665269631835,110.9006963230447 -88.7966526963181,111.57056930413569" stroke="#ffa500" stroke-linecap="round" stroke-linejoin="round"/><polyline fill="none" points="-175.34880583775444,56.75732448446007 -172.84880583774765,56.08745150339357 -171.01867881881392,54.25732448447776 -170.34880583772292,51.75732448447753 -171.01867881878943,49.25732448447073 -172.84880583770524,47.427197465537 -175.34880583770547,46.75732448444601 -177.84880583771226,47.42719746551251 -179.678932856646,49.25732448442832 -180.348805837737,51.75732448442855 -179.67893285667049,54.257324484435344 -177.84880583775467,56.087451503369074 -175.34880583775444,56.757324484460064" stroke="#ffa500" stroke-linecap="round" stroke-linejoin="round"/><polyline fill="none" points="-71.66704092323168,10.740143792769732 -69.16704092322489,10.070270811703226 -67.33691390429115,8.240143792787421 -66.66704092320016,5.740143792787185 -67.33691390426667,3.2401437927803878 -69.16704092318247,1.4100167738466571 -71.66704092318271,0.7401437927556637 -74.1670409231895,1.410016773822168 -75.99716794212324,3.240143792737972 -76.66704092321423,5.740143792738207 -75.99716794214773,8.240143792745005 -74.16704092323192,10.070270811678737 -71.66704092323168,10.740143792769732" stroke="#008000" stroke-linecap="round" stroke-linejoin="round"/><polyline fill="none" points="-155.1426731980582,-50.87110661508949 -152.6426731980514,-51.54097959615599 -150.81254617911767,-53.371106615071795 -150.14267319802667,-55.87110661507203 -150.81254617909318,-58.37110661507883 -152.64267319800896,-60.20123363401256 -155.1426731980092,-60.87110661510356 -157.64267319801598,-60.20123363403705 -159.4728002169497,-58.37110661512125 -160.1426731980407,-55.871106615121015 -159.4728002169742,-53.371106615114215 -157.64267319805842,-51.54097959618048 -155.1426731980582,-50.87110661508948" stroke="#ffa500" stroke-linecap="round" stroke-linejoin="round"/><polyline fill="none" points="-87.1041507484372,-13.525013141386353 -84.60415074843041,-14.194886122452854 -82.77402372949668,-16.025013141368657 -82.10415074840567,-18.52501314136889 -82.77402372947218,-21.02501314137569 -84.60415074838798,-22.855140160309425 -87.10415074838822,-23.525013141400425 -89.60415074839503,-22.855140160333924 -91.43427776732877,-21.025013141418125 -92.10415074841977,-18.52501314141789 -91.43427776735327,-16.02501314141109 -89.60415074843746,-14.194886122477353 -87.10415074843722,-13.525013141386353" stroke="#00f" stroke-linecap="round" stroke-linejoin="round"/><polyline fill="none" points="31.50163933075854,-74.8267020752357 34.00163933076534,-75.4965750563022 35.83176634969908,-77.32670207521801 36.501639330790084,-79.82670207521825 35.83176634972359,-82.32670207522506 34.001639330807784,-84.1568290941588 31.50163933080755,-84.8267020752498 29.00163933080075,-84.1568290941833 27.171512311867012,-82.32670207526749 26.50163933077601,-79.82670207526725 27.171512311842505,-77.32670207526044 29.001639330758305,-75.4965750563267 31.50163933075854,-74.8267020752357" stroke="#00f" stroke-linecap="round" stroke-linejoin="round"/><polyline fill="none" points="-125.3373889087863,45.197798407650126 -122.83738890877949,44.52792542658363 -121.00726188984575,42.69779840766783 -120.33738890875475,40.1977984076676 -121.00726188982124,37.6977984076608 -122.83738890873704,35.86767138872706 -125.33738890873728,35.19779840763606 -127.83738890874409,35.867671388702554 -129.66751592767784,37.69779840761835 -130.33738890876884,40.197798407618585 -129.66751592770234,42.697798407625385 -127.83738890878654,44.52792542655913 -125.3373889087863,45.19779840765013" stroke="#00f" stroke-linecap="round" stroke-linejoin="round"/><polyline fill="none" points="-0.12241396930015014,103.45560286512088 2.3775860307066536,102.78572988405439 4.207713049640397,100.95560286513859 4.877586030731403,98.45560286513835 4.20771304966491,95.95560286513154 2.3775860307491135,94.1254758461978 -0.12241396925112236,93.4556028651068 -2.6224139692579267,94.12547584617329 -4.452540988191671,95.95560286508909 -5.122413969282679,98.45560286508933 -4.452540988216187,100.95560286509614 -2.622413969300391,102.78572988402988 -0.12241396930015513,103.45560286512088" stroke="#ffa500" stroke-linecap="round" stroke-linejoin="round"/><polyline fill="none" points="-54.22985081300213,64.06049131229173 -51.72985081299532,63.39061833122524 -49.89972379406158,61.560491312309445 -49.22985081297057,59.06049131230921 -49.89972379403706,56.5604913123024 -51.729850812952854,54.73036429336866 -54.22985081295309,54.06049131227765 -56.729850812959896,54.73036429334414 -58.55997783189364,56.560491312259934 -59.22985081298465,59.06049131226017 -58.55997783191816,61.560491312266976 -56.729850813002365,63.39061833120072 -54.22985081300213,64.06049131229173" stroke="#008000" stroke-linecap="round" stroke-linejoin="round"/><polyline fill="none" points="47.84632315279104,79.85348713663844 50.346323152797844,79.18361415557195 52.17645017173159,77.35348713665616 52.8463231528226,74.85348713665591 52.17645017175611,72.35348713664911 50.34632315284031,70.52336011771536 47.84632315284008,69.85348713662434 45.34632315283327,70.52336011769083 43.51619613389952,72.35348713660662 42.84632315280851,74.85348713660686 43.516196133875,77.35348713661367 45.346323152790795,79.18361415554742 47.84632315279103,79.85348713663844" stroke="#ffa500" stroke-linecap="round" stroke-linejoin="round"/><polyline fill="none" points="-13.395765700044864,-146.76650512123237 -10.895765700038055,-147.43637810229885 -9.065638681104305,-149.26650512121464 -8.39576570001329,-151.76650512121486 -9.065638681079777,-154.26650512122168 -10.89576569999557,-156.09663214015544 -13.395765699995806,-156.76650512124644 -15.895765700002615,-156.09663214017996 -17.725892718936365,-154.26650512126417 -18.395765700027383,-151.76650512126395 -17.7258927189609,-149.26650512125713 -15.895765700045107,-147.43637810232337 -13.39576570004487,-146.76650512123237" stroke="#ffa500" stroke-linecap="round" stroke-linejoin="round"/><polyline fill="none" points="-21.602826779120974,111.94292960816288 -19.102826779114164,111.2730566270964 -17.272699760180412,109.4429296081806 -16.602826779089394,106.94292960818036 -17.272699760155877,104.44292960817356 -19.10282677907167,102.6128025892398 -21.602826779071904,101.94292960814879 -24.102826779078715,102.61280258921528 -25.932953798012466,104.44292960813107 -26.602826779103484,106.94292960813131 -25.932953798037,109.44292960813812 -24.10282677912121,111.27305662707187 -21.602826779120974,111.94292960816288" stroke="#ffa500" stroke-linecap="round" stroke-linejoin="round"/><polyline fill="none" points="86.29012362869234,-111.69377773010861 88.79012362869915,-112.36365071117508 90.6202506476329,-114.19377773009087 91.29012362872392,-116.69377773009111 90.62025064765744,-119.19377773009792 88.79012362874165,-121.02390474903167 86.29012362874141,-121.69377773012269 83.7901236287346,-121.02390474905621 81.95999660980085,-119.19377773014043 81.29012362870984,-116.69377773014018 81.95999660977631,-114.19377773013338 83.7901236286921,-112.36365071119963 86.29012362869234,-111.69377773010861" stroke="#ffa500" stroke-linecap="round" stroke-linejoin="round"/><polyline fill="none" points="-19.05589131172288,-80.78398175672203 -16.555891311716067,-81.4538547377885 -14.72576429278231,-83.28398175670429 -14.055891311691287,-85.78398175670453 -14.725764292757766,-88.28398175671134 -16.555891311673555,-90.1141087756451 -19.055891311673793,-90.78398175673611 -21.555891311680607,-90.11410877566964 -23.386018330614366,-88.28398175675385 -24.05589131170539,-85.7839817567536 -23.386018330638912,-83.28398175674678 -21.555891311723123,-81.45385473781302 -19.055891311722885,-80.78398175672199" stroke="#ffa500" stroke-linecap="round" stroke-linejoin="round"/><polyline fill="none" points="80.83797175029761,-23.339787745466385 83.33797175030443,-24.009660726532864 85.1680987692382,-25.839787745448653 85.83797175032923,-28.33978774544889 85.16809876926276,-30.839787745455705 83.33797175034697,-32.66991476438947 80.83797175034672,-33.33978774548049 78.3379717503399,-32.66991476441402 76.50784473140614,-30.839787745498228 75.8379717503151,-28.33978774549799 76.50784473138158,-25.839787745491172 78.33797175029737,-24.00966072655741 80.83797175029761,-23.33978774546638" stroke="#00f" stroke-linecap="round" stroke-linejoin="round"/><polyline fill="none" points="136.26058340652244,-71.95013404413815 138.76058340652926,-72.62000702520463 140.59071042546302,-74.45013404412042 141.26058340655405,-76.95013404412066 140.59071042548757,-79.45013404412748 138.76058340657178,-81.28026106306125 136.26058340657156,-81.95013404415228 133.76058340656473,-81.2802610630858 131.93045638763098,-79.45013404417001 131.26058340653995,-76.95013404416977 131.93045638760643,-74.45013404416295 133.76058340652222,-72.62000702522919 136.26058340652244,-71.95013404413815" stroke="#00f" stroke-linecap="round" stroke-linejoin="round"/><polyline fill="none" points="-151.09285270602462,-47.50752549914073 -148.5928527060178,-48.17739848020721 -146.76272568708404,-50.007525499123 -146.092852705993,-52.50752549912323 -146.7627256870595,-55.007525499130054 -148.59285270597528,-56.83765251806382 -151.0928527059755,-57.50752549915485 -153.59285270598232,-56.83765251808838 -155.4229797249161,-55.007525499172594 -156.09285270600714,-52.50752549917236 -155.42297972494066,-50.00752549916554 -153.59285270602487,-48.17739848023177 -151.09285270602464,-47.50752549914074" stroke="#00f" stroke-linecap="round" stroke-linejoin="round"/><polyline fill="none" points="121.51242570154783,-55.074222234427204 124.01242570155465,-55.74409521549367 125.84255272048841,-57.574222234409454 126.51242570157945,-60.07422223440969 125.84255272051297,-62.57422223441651 124.01242570159718,-64.40434925335028 121.51242570159694,-65.07422223444131 119.01242570159012,-64.40434925337485 117.18229868265635,-62.574222234459064 116.51242570156532,-60.07422223445883 117.18229868263178,-57.57422223445201 119.01242570154757,-55.744095215518236 121.51242570154781,-55.0742222344272" stroke="#00f" stroke-linecap="round" stroke-linejoin="round"/><polyline fill="none" points="-57.9745023789484,-80.612966406685 -55.47450237894158,-81.28283938775147 -53.64437536000781,-83.11296640666725 -52.97450237891677,-85.6129664066675 -53.644375359983236,-88.11296640667432 -55.47450237889902,-89.94309342560808 -57.97450237889926,-90.61296640669912 -60.47450237890608,-89.94309342563265 -62.304629397839854,-88.11296640671686 -62.97450237893089,-85.61296640671662 -62.304629397864424,-83.1129664067098 -60.47450237894864,-81.28283938777604 -57.9745023789484,-80.61296640668499" stroke="#ffa500" stroke-linecap="round" stroke-linejoin="round"/><polyline fill="none" points="-182.2778057990787,35.87483439594884 -179.77780579907187,35.204961414882376 -177.9476787801381,33.374834395966595 -177.27780579904706,30.874834395966356 -177.94767878011353,28.37483439595953 -179.77780579902932,26.54470737702576 -182.27780579902955,25.874834395934716 -184.77780579903637,26.54470737700118 -186.60793281797015,28.374834395916963 -187.27780579906118,30.8748343959172 -186.6079328179947,33.374834395924026 -184.77780579907892,35.2049614148578 -182.2778057990787,35.874834395948845" stroke="#ffa500" stroke-linecap="round" stroke-linejoin="round"/><polyline fill="none" points="13.058713160458286,34.86805152056782 15.55871316046511,34.198178539501356 17.388840179398887,32.368051520585574 18.05871316048993,29.868051520585336 17.388840179423468,27.36805152057851 15.558713160507688,25.537924501644735 13.05871316050745,24.868051520553692 10.558713160500625,25.537924501620154 8.728586141566849,27.368051520535932 8.058713160475804,29.86805152053617 8.728586141542264,32.368051520543 10.558713160458044,34.19817853947678 13.058713160458282,34.868051520567825" stroke="#00f" stroke-linecap="round" stroke-linejoin="round"/><polyline fill="none" points="-77.64080343731315,50.83439331597246 -75.14080343730633,50.164520334906 -73.31067641837255,48.33439331599022 -72.6408034372815,45.834393315989985 -73.31067641834797,43.33439331598316 -75.14080343726374,41.50426629704938 -77.64080343726398,40.83439331595833 -80.1408034372708,41.50426629702479 -81.97093045620458,43.334393315940574 -82.64080343729563,45.83439331594081 -81.97093045622917,48.334393315947636 -80.1408034373134,50.164520334881416 -77.64080343731315,50.83439331597246" stroke="#008000" stroke-linecap="round" stroke-linejoin="round"/><polyline fill="none" points="59.73528433223392,-0.03748749689516462 62.235284332240745,-0.7073604779616219 64.06541135117453,-2.5374874968773997 64.73528433226558,-5.037487496877637 64.06541135119912,-7.537487496884465 62.23528433228334,-9.367614515818246 59.73528433228311,-10.037487496909296 57.23528433227628,-9.36761451584284 55.4051573133425,-7.5374874969270635 54.735284332251446,-5.0374874969268255 55.4051573133179,-2.5374874969199976 57.235284332233675,-0.7073604779862153 59.73528433223391,-0.037487496895163175" stroke="#ffa500" stroke-linecap="round" stroke-linejoin="round"/><polyline fill="none" points="22.987059760877443,-119.27268292042656 25.48705976088427,-119.94255590149302 27.317186779818055,-121.7726829204088 27.98705976090911,-124.27268292040904 27.317186779842654,-126.77268292041587 25.48705976092688,-128.60280993934967 22.98705976092664,-129.27268292044073 20.487059760919813,-128.60280993937428 18.65693274198603,-126.77268292045851 17.987059760894976,-124.27268292045827 18.65693274196143,-121.77268292045143 20.487059760877205,-119.94255590151765 22.987059760877443,-119.27268292042659" stroke="#ffa500" stroke-linecap="round" stroke-linejoin="round"/><polyline fill="none" points="-100.9899664997461,-20.00741079051432 -98.48996649973927,-20.677283771580775 -96.65983948080549,-22.50741079049655 -95.98996649971443,-25.007410790496788 -96.65983948078087,-27.50741079050362 -98.48996649969665,-29.337537809437407 -100.98996649969689,-30.007410790528464 -103.48996649970373,-29.337537809462013 -105.3200935186375,-27.50741079054624 -105.98996649972857,-25.007410790546 -105.32009351866212,-22.50741079053917 -103.48996649974634,-20.67728377160538 -100.9899664997461,-20.007410790514324" stroke="#00f" stroke-linecap="round" stroke-linejoin="round"/><polyline fill="none" points="84.73389893704494,-73.41178621262917 87.23389893705178,-74.08165919369561 89.06402595598557,-75.91178621261139 89.73389893707663,-78.41178621261163 89.06402595601018,-80.91178621261847 87.23389893709441,-82.74191323155226 84.73389893709417,-83.41178621264332 82.23389893708733,-82.74191323157687 80.40377191815354,-80.9117862126611 79.73389893706248,-78.41178621266086 80.40377191812892,-75.91178621265402 82.2338989370447,-74.08165919372023 84.73389893704494,-73.41178621262917" stroke="#00f" stroke-linecap="round" stroke-linejoin="round"/><polyline fill="none" points="55.108339490325626,-45.20397633148751 57.60833949033246,-45.87384931255396 59.438466509266256,-47.70397633146973 60.10833949035732,-50.203976331469974 59.43846650929087,-52.70397633147681 57.608339490375094,-54.534103350410604 55.10833949037485,-55.203976331501664 52.60833949036802,-54.53410335043522 50.77821247143422,-52.70397633151944 50.10833949034316,-50.2039763315192 50.77821247140961,-47.703976331512365 52.608339490325385,-45.87384931257857 55.108339490325626,-45.20397633148751" stroke="#ffa500" stroke-linecap="round" stroke-linejoin="round"/><polyline fill="none" points="-153.58247966034003,3.7179710336988085 -151.08247966033318,3.0480980526323624 -149.2523526413994,1.2179710337165897 -148.58247966030834,-1.2820289662836506 -149.25235264137478,-3.782028966290487 -151.08247966029055,-5.612155985224282 -153.58247966029077,-6.282028966315346 -156.08247966029762,-5.612155985248902 -157.91260667923143,-3.7820289663331295 -158.5824796603225,-1.2820289663328892 -157.91260667925604,1.217971033673948 -156.08247966034028,3.0480980526077435 -153.58247966034006,3.7179710336988094" stroke="#ffa500" stroke-linecap="round" stroke-linejoin="round"/><polyline fill="none" points="-113.9303334123551,48.819006065804544 -111.43033341234826,48.1491330847381 -109.60020639341447,46.31900606582232 -108.9303334123234,43.81900606582208 -109.60020639338985,41.319006065815245 -111.43033341230563,39.48887904688145 -113.93033341230587,38.81900606579038 -116.4303334123127,39.48887904685682 -118.2604604312465,41.31900606577259 -118.93033341233757,43.81900606577283 -118.26046043127113,46.31900606577967 -116.43033341235535,48.14913308471347 -113.93033341235511,48.81900606580454" stroke="#008000" stroke-linecap="round" stroke-linejoin="round"/><polyline fill="none" points="-44.57058944074162,16.84379253648268 -42.07058944073478,16.17391955541624 -40.24046242180098,14.343792536500471 -39.57058944070991,11.843792536500231 -40.24046242177635,9.343792536493392 -42.07058944069212,7.513665517559593 -44.57058944069236,6.843792536468523 -47.0705894406992,7.513665517534962 -48.900716459633,9.343792536450731 -49.57058944072408,11.843792536450971 -48.90071645965764,14.343792536457812 -47.07058944074187,16.173919555391613 -44.57058944074163,16.843792536482685" stroke="#ffa500" stroke-linecap="round" stroke-linejoin="round"/><polyline fill="none" points="-108.26559665874052,-54.066516160328156 -105.76559665873368,-54.736389141394596 -103.93546963979988,-56.566516160310364 -103.2655966587088,-59.066516160310606 -103.93546963977523,-61.56651616031745 -105.76559665869101,-63.39664317925125 -108.26559665869125,-64.06651616034232 -110.76559665869809,-63.39664317927588 -112.5957236776319,-61.56651616036011 -113.26559665872297,-59.06651616035987 -112.59572367765654,-56.566516160353025 -110.76559665874078,-54.736389141419224 -108.26559665874053,-54.06651616032815" stroke="#ffa500" stroke-linecap="round" stroke-linejoin="round"/><polyline fill="none" points="-102.43832301196586,36.67812575146949 -99.93832301195903,36.008252770403054 -98.10819599302522,34.178125751487286 -97.43832301193414,31.678125751487045 -98.10819599300058,29.178125751480202 -99.93832301191634,27.347998732546397 -102.43832301191658,26.678125751455323 -104.93832301192342,27.34799873252176 -106.76845003085722,29.178125751437527 -107.4383230119483,31.67812575143777 -106.76845003088187,34.17812575144461 -104.9383230119661,36.00825277037842 -102.43832301196586,36.678125751469494" stroke="#00f" stroke-linecap="round" stroke-linejoin="round"/><polyline fill="none" points="-9.154994972504149,67.37813542742457 -6.654994972497306,66.70826244635813 -4.8248679535634995,64.87813542744237 -4.154994972472421,62.37813542744213 -4.824867953538854,59.87813542743529 -6.654994972454619,58.04800840850148 -9.154994972454858,57.3781354274104 -11.654994972461703,58.04800840847683 -13.48512199139551,59.8781354273926 -14.154994972486588,62.37813542739284 -13.485121991420156,64.87813542739968 -11.654994972504392,66.70826244633349 -9.154994972504152,67.37813542742457" stroke="#ffa500" stroke-linecap="round" stroke-linejoin="round"/><polyline fill="none" points="-101.56790946533773,13.069432956060696 -99.06790946533089,12.399559974994265 -97.23778244639708,10.5694329560785 -96.567909465306,8.069432956078261 -97.23778244637244,5.569432956071416 -99.0679094652882,3.739305937137606 -101.56790946528844,3.069432956046524 -104.06790946529529,3.7393059371129542 -105.8980364842291,5.569432956028718 -106.56790946532018,8.069432956028958 -105.89803648425375,10.569432956035804 -104.06790946533799,12.399559974969614 -101.56790946533775,13.069432956060698" stroke="#ffa500" stroke-linecap="round" stroke-linejoin="round"/></svg>