<?xml version="1.0" ?><!DOCTYPE svg  PUBLIC '-//W3C//DTD SVG 1.1//EN'  'http://www.w3.org/Graphics/SVG/1.1/DTD/svg11.dtd'><svg height="400.000" viewBox="-194.000 -202.000 394.000 400.000" width="394.000" xmlns="http://www.w3.org/2000/svg"><line fill="none" stroke="none" stroke-linecap="round" stroke-width="2.0" x1="0.0" x2="0.0" y1="0.0" y2="0.0"/><polygon fill="none" fill-rule="evenodd" points="0.0,0.0 0.0,0.0 0.0,0.0" stroke-linejoin="round"/><polyline fill="none" points="-4.67605587370088,22.686674367705777 -2.176055873700105,22.01680138662925 -0.3459288547765993,20.18667436770778 0.3239441263027054,17.68667436770775 -0.3459288547738194,15.186674367706972 -2.17605587369529,13.356547348783465 -4.676055873695321,12.686674367704159 -7.176055873696098,13.356547348780683 -9.006182892619606,15.186674367702153 -9.676055873698912,17.686674367702185 -9.00618289262239,20.186674367702963 -7.1760558737009195,22.016801386626472 -4.676055873700888,22.68667436770578" stroke="#00f" stroke-linecap="round" stroke-linejoin="round"/><polyline fill="none" points="-28.070507853704477,-76.94867180909681 -25.5705078537037,-77.61854479017333 -23.74038083478019,-79.4486718090948 -23.07050785370088,-81.94867180909483 -23.740380834777405,-84.44867180909561 -25.570507853698874,-86.27879882801912 -28.070507853698906,-86.94867180909843 -30.570507853699684,-86.2787988280219 -32.40063487262319,-84.44867180910043 -33.0705078537025,-81.9486718091004 -32.40063487262598,-79.44867180909962 -30.57050785370451,-77.61854479017612 -28.070507853704477,-76.94867180909681" stroke="#008000" stroke-linecap="round" stroke-linejoin="round"/><polyline fill="none" points="9.935274597096939,-181.2783634723943 12.435274597097717,-181.9482364534708 14.265401616021228,-183.77836347239227 14.935274597100538,-186.2783634723923 14.265401616024018,-188.77836347239307 12.43527459710255,-190.6084904913166 9.93527459710252,-191.2783634723959 7.43527459710174,-190.6084904913194 5.605147578178228,-188.77836347239793 4.935274597098916,-186.2783634723979 5.605147578175434,-183.77836347239713 7.435274597096901,-181.9482364534736 9.935274597096933,-181.2783634723943" stroke="#ffa500" stroke-linecap="round" stroke-linejoin="round"/><polyline fill="none" points="-23.353289106268733,-63.390401113560074 -20.85328910626795,-64.0602740946366 -19.02316208734444,-65.89040111355807 -18.353289106265123,-68.3904011135581 -19.02316208734164,-70.89040111355888 -20.853289106263105,-72.7205281324824 -23.353289106263137,-73.39040111356171 -25.85328910626392,-72.72052813248519 -27.683416125187435,-70.89040111356371 -28.35328910626675,-68.39040111356368 -27.683416125190234,-65.8904011135629 -25.853289106268768,-64.06027409463938 -23.353289106268736,-63.39040111356007" stroke="#008000" stroke-linecap="round" stroke-linejoin="round"/><polyline fill="none" points="9.81982234695254,7.6762802604619935 12.319822346953323,7.006407279385479 14.14994936587684,5.176280260464013 14.819822346956157,2.6762802604639817 14.149949365879642,0.17628026046319878 12.319822346958176,-1.6538467584603187 9.819822346958144,-2.3237197395396367 7.319822346957361,-1.6538467584631231 5.489695328033843,0.176280260458342 4.819822346954524,2.676280260458374 5.489695328031037,5.1762802604591585 7.319822346952502,7.006407279382677 9.819822346952535,7.676280260461997" stroke="#00f" stroke-linecap="round" stroke-linejoin="round"/><polyline fill="none" points="2.343545009557075,-84.57773438078898 4.843545009557859,-85.24760736186549 6.673672028481379,-87.07773438078695 7.3435450095606996,-89.57773438078698 6.673672028484187,-92.07773438078776 4.843545009562723,-93.90786139971128 2.3435450095626904,-94.5777343807906 -0.15645499043809474,-93.9078613997141 -1.9865820093616158,-92.07773438079263 -2.6564549904409374,-89.5777343807926 -1.9865820093644264,-87.07773438079182 -0.15645499044296285,-85.2476073618683 2.343545009557069,-84.57773438078898" stroke="#00f" stroke-linecap="round" stroke-linejoin="round"/><polyline fill="none" points="80.202668926475,-168.64025918805817 82.70266892647578,-169.31013216913468 84.5327959453993,-171.14025918805615 85.20266892647862,-173.64025918805618 84.53279594540211,-176.14025918805697 82.70266892648065,-177.9703862069805 80.20266892648063,-178.64025918805982 77.70266892647984,-177.9703862069833 75.87254190755633,-176.14025918806183 75.202668926477,-173.6402591880618 75.87254190755351,-171.140259188061 77.70266892647497,-169.3101321691375 80.202668926475,-168.64025918805817" stroke="#ffa500" stroke-linecap="round" stroke-linejoin="round"/><polyline fill="none" points="5.380105849089796,-118.70256178691243 7.880105849090583,-119.37243476798893 9.710232868014108,-121.2025617869104 10.380105849093434,-123.70256178691042 9.710232868016927,-126.2025617869112 7.880105849095466,-128.03268880583474 5.380105849095434,-128.70256178691406 2.880105849094647,-128.03268880583755 1.0499788301711213,-126.20256178691609 0.3801058490917941,-123.70256178691606 1.0499788301683,-121.20256178691528 2.8801058490897606,-119.37243476799176 5.380105849089793,-118.70256178691244" stroke="#00f" stroke-linecap="round" stroke-linejoin="round"/><polyline fill="none" points="91.78415816008672,-144.84320933055878 94.2841581600875,-145.5130823116353 96.11428517901103,-147.34320933055676 96.78415816009036,-149.8432093305568 96.11428517901385,-152.34320933055758 94.28415816009239,-154.1733363494811 91.78415816009236,-154.84320933056043 89.28415816009156,-154.17333634948392 87.45403114116803,-152.34320933056244 86.7841581600887,-149.84320933056242 87.4540311411652,-147.34320933056162 89.28415816008666,-145.5130823116381 91.78415816008669,-144.84320933055878" stroke="#ffa500" stroke-linecap="round" stroke-linejoin="round"/><polyline fill="none" points="121.79382791307498,-82.37461358148268 124.29382791307577,-83.04448656255919 126.12395493199931,-84.87461358148065 126.79382791307864,-87.37461358148067 126.12395493200214,-89.87461358148147 124.29382791308068,-91.704740600405 121.79382791308065,-92.37461358148434 119.29382791307985,-91.70474060040785 117.46370089415632,-89.87461358148639 116.79382791307698,-87.37461358148636 117.46370089415348,-84.87461358148556 119.29382791307494,-83.04448656256203 121.79382791307496,-82.37461358148269" stroke="#00f" stroke-linecap="round" stroke-linejoin="round"/><polyline fill="none" points="12.62799037592875,-78.33993268072318 15.127990375929542,-79.00980566179967 16.958117394853076,-80.83993268072113 17.627990375932413,-83.33993268072116 16.958117394855915,-85.83993268072196 15.127990375934457,-87.67005969964549 12.627990375934424,-88.33993268072483 10.127990375933631,-87.67005969964833 8.297863357010097,-85.83993268072687 7.627990375930761,-83.33993268072685 8.297863357007259,-80.83993268072605 10.127990375928716,-79.00980566180252 12.62799037592875,-78.33993268072318" stroke="#00f" stroke-linecap="round" stroke-linejoin="round"/><polyline fill="none" points="66.98161183788756,-14.981357299957232 69.48161183788835,-15.65123028103373 71.31173885681189,-17.481357299955185 71.98161183789122,-19.981357299955217 71.31173885681473,-22.48135729995601 69.48161183789327,-24.311484318879547 66.98161183789324,-24.981357299958884 64.48161183789244,-24.311484318882385 62.65148481896891,-22.48135729996093 61.981611837889574,-19.981357299960898 62.65148481896607,-17.481357299960102 64.48161183788753,-15.651230281036565 66.98161183788756,-14.981357299957224" stroke="#00f" stroke-linecap="round" stroke-linejoin="round"/><polyline fill="none" points="95.01162083485768,-126.04200580777606 97.51162083485848,-126.71187878885256 99.34174785378201,-128.54200580777402 100.01162083486135,-131.04200580777405 99.34174785378485,-133.54200580777484 97.5116208348634,-135.3721328266984 95.01162083486336,-136.04200580777774 92.51162083486257,-135.37213282670126 90.68149381593904,-133.54200580777982 90.0116208348597,-131.0420058077798 90.6814938159362,-128.542005807779 92.51162083485765,-126.71187878885546 95.01162083485768,-126.04200580777612" stroke="#ffa500" stroke-linecap="round" stroke-linejoin="round"/><polyline fill="none" points="99.49086440749545,-112.84975838902656 101.99086440749625,-113.51963137010306 103.82099142641978,-115.34975838902452 104.49086440749913,-117.84975838902454 103.82099142642264,-120.34975838902534 101.99086440750118,-122.17988540794889 99.49086440750115,-122.84975838902824 96.99086440750035,-122.17988540795174 95.1607373885768,-120.34975838903028 94.49086440749745,-117.84975838903026 95.16073738857395,-115.34975838902946 96.9908644074954,-113.51963137010591 99.49086440749542,-112.84975838902656" stroke="#ffa500" stroke-linecap="round" stroke-linejoin="round"/><polyline fill="none" points="128.0608729121874,-117.94866971109444 130.5608729121882,-118.61854269217093 132.39099993111174,-120.44866971109238 133.0608729121911,-122.9486697110924 132.3909999311146,-125.4486697110932 130.56087291219316,-127.27879673001675 128.06087291219313,-127.9486697110961 125.56087291219234,-127.27879673001961 123.73074589326879,-125.44866971109816 123.06087291218944,-122.94866971109813 123.73074589326593,-120.44866971109734 125.56087291218738,-118.61854269217379 128.06087291218742,-117.94866971109444" stroke="#ffa500" stroke-linecap="round" stroke-linejoin="round"/><polyline fill="none" points="34.66644191645907,-93.75955558101599 37.166441916459874,-94.42942856209248 38.99656893538342,-96.25955558101393 39.66644191646277,-98.75955558101396 38.996568935386286,-101.25955558101475 37.166441916464834,-103.0896825999383 34.6664419164648,-103.75955558101765 32.166441916463995,-103.08968259994117 30.336314897540447,-101.25955558101973 29.666441916461096,-98.7595555810197 30.336314897537584,-96.2595555810189 32.166441916459036,-94.42942856209535 34.66644191645907,-93.759555581016" stroke="#00f" stroke-linecap="round" stroke-linejoin="round"/><polyline fill="none" points="19.715709553233555,-45.51678885052212 22.21570955323436,-46.186661831598606 24.045836572157906,-48.01678885052006 24.715709553237257,-50.51678885052009 24.045836572160773,-53.016788850520896 22.215709553239325,-54.846915869444445 19.71570955323929,-55.516788850523795 17.215709553238487,-54.84691586944731 15.385582534314937,-53.016788850525856 14.715709553235582,-50.51678885052582 15.385582534312066,-48.01678885052502 17.215709553233516,-46.18666183160147 19.71570955323355,-45.51678885052212" stroke="#00f" stroke-linecap="round" stroke-linejoin="round"/><polyline fill="none" points="107.86854304497703,-61.66349423938371 110.36854304497784,-62.33336722046019 112.19867006390139,-64.16349423938163 112.86854304498074,-66.66349423938166 112.19867006390426,-69.16349423938247 110.36854304498281,-70.99362125830602 107.86854304498279,-71.66349423938537 105.36854304498198,-70.99362125830889 103.53841602605843,-69.16349423938745 102.86854304497908,-66.66349423938742 103.53841602605556,-64.16349423938661 105.368543044977,-62.33336722046305 107.86854304497703,-61.663494239383695" stroke="#ffa500" stroke-linecap="round" stroke-linejoin="round"/><polyline fill="none" points="24.89006667969315,-72.67800370809589 27.390066679693952,-73.34787668917237 29.220193698617503,-75.17800370809381 29.89006667969686,-77.67800370809384 29.22019369862038,-80.17800370809465 27.390066679698933,-82.0081307270182 24.890066679698897,-82.67800370809756 22.39006667969809,-82.00813072702108 20.559939660774535,-80.17800370809964 19.890066679695177,-77.67800370809961 20.559939660771658,-75.1780037080988 22.390066679693103,-73.34787668917525 24.89006667969314,-72.67800370809589" stroke="#00f" stroke-linecap="round" stroke-linejoin="round"/><polyline fill="none" points="51.24845678261475,-11.453775658648986 53.748456782615555,-12.123648639725465 55.57858380153911,-13.953775658646911 56.24845678261847,-16.453775658646947 55.57858380154199,-18.953775658647753 53.74845678262054,-20.78390267757131 51.24845678262051,-21.45377565865067 48.7484567826197,-20.783902677574194 46.91832976369614,-18.95377565865275 46.24845678261678,-16.453775658652713 46.91832976369326,-13.953775658651907 48.7484567826147,-12.12364863972835 51.24845678261474,-11.453775658648988" stroke="#00f" stroke-linecap="round" stroke-linejoin="round"/><polyline fill="none" points="128.0743262963121,-74.03167852463827 130.5743262963129,-74.70155150571475 132.40445331523645,-76.53167852463619 133.0743262963158,-79.03167852463622 132.40445331523932,-81.53167852463703 130.57432629631788,-83.36180554356059 128.07432629631785,-84.03167852463996 125.57432629631704,-83.36180554356348 123.74419927739348,-81.53167852464203 123.07432629631411,-79.031678524642 123.74419927739059,-76.5316785246412 125.57432629631204,-74.70155150571763 128.07432629631208,-74.03167852463827" stroke="#ffa500" stroke-linecap="round" stroke-linejoin="round"/><polyline fill="none" points="110.08100141877561,-70.10714550499414 112.58100141877642,-70.77701848607062 114.41112843769999,-72.60714550499206 115.08100141877935,-75.10714550499209 114.41112843770287,-77.6071455049929 112.58100141878143,-79.43727252391646 110.0810014187814,-80.10714550499583 107.58100141878059,-79.43727252391936 105.75087439985703,-77.60714550499792 105.08100141877766,-75.10714550499789 105.75087439985413,-72.60714550499708 107.58100141877557,-70.77701848607352 110.0810014187756,-70.10714550499415" stroke="#ffa500" stroke-linecap="round" stroke-linejoin="round"/><polyline fill="none" points="150.70971611461687,-25.66282066995166 153.2097161146177,-26.33269365102813 155.03984313354127,-28.16282066994957 155.70971611462065,-30.662820669949607 155.03984313354417,-33.16282066995042 153.20971611462272,-34.99294768887398 150.7097161146227,-35.662820669953355 148.20971611462187,-34.99294768887688 146.3795890956983,-33.162820669955444 145.7097161146189,-30.66282066995541 146.3795890956954,-28.1628206699546 148.20971611461684,-26.332693651031033 150.70971611461687,-25.66282066995166" stroke="#ffa500" stroke-linecap="round" stroke-linejoin="round"/><polyline fill="none" points="51.56804003166119,-7.892399712663966 54.068040031662,-8.562272693740436 55.89816705058556,-10.392399712661875 56.568040031664935,-12.89239971266191 55.89816705058847,-15.392399712662721 54.06804003166703,-17.222526731586285 51.568040031666996,-17.892399712665657 49.068040031666186,-17.22252673158919 47.23791301274262,-15.392399712667752 46.568040031663244,-12.892399712667718 47.23791301273971,-10.392399712666904 49.06804003166115,-8.562272693743337 51.568040031661184,-7.892399712663963" stroke="#00f" stroke-linecap="round" stroke-linejoin="round"/><polyline fill="none" points="144.9000872802629,-1.5015604590788483 147.40008728026373,-2.1714334401553144 149.2302142991873,-4.001560459076753 149.9000872802667,-6.501560459076787 149.2302142991902,-9.0015604590776 147.40008728026876,-10.831687478001168 144.90008728026874,-11.501560459080544 142.4000872802679,-10.831687478004078 140.56996026134433,-9.00156045908264 139.90008728026496,-6.501560459082606 140.5699602613414,-4.001560459081793 142.40008728026285,-2.171433440158223 144.90008728026288,-1.5015604590788467" stroke="#ffa500" stroke-linecap="round" stroke-linejoin="round"/><polyline fill="none" points="163.00242752496055,-11.9485780738143 165.50242752496138,-12.618451054890764 167.33255454388495,-14.448578073812202 168.00242752496433,-16.948578073812236 167.33255454388788,-19.44857807381305 165.50242752496644,-21.27870509273662 163.0024275249664,-21.948578073815998 160.50242752496558,-21.278705092739536 158.672300506042,-19.448578073818098 158.00242752496263,-16.948578073818062 158.67230050603908,-14.448578073817247 160.50242752496052,-12.618451054893676 163.00242752496055,-11.948578073814296" stroke="#ffa500" stroke-linecap="round" stroke-linejoin="round"/><polyline fill="none" points="183.31193072969464,-30.140484707080276 185.81193072969546,-30.81035768815674 187.64205774861904,-32.64048470707817 188.31193072969842,-35.14048470707821 187.64205774862197,-37.640484707079025 185.81193072970052,-39.4706117260026 183.3119307297005,-40.14048470708198 180.81193072969967,-39.47061172600552 178.9818037107761,-37.640484707084084 178.3119307296967,-35.14048470708405 178.98180371077316,-32.64048470708323 180.8119307296946,-30.81035768815966 183.31193072969464,-30.140484707080276" stroke="#ffa500" stroke-linecap="round" stroke-linejoin="round"/><polyline fill="none" points="133.90686338552416,-1.3735923251268325 136.40686338552499,-2.0434653062032924 138.23699040444856,-3.8735923251247275 138.90686338552794,-6.373592325124762 138.2369904044515,-8.87359232512558 136.40686338553004,-10.703719344049155 133.90686338553002,-11.373592325128538 131.4068633855292,-10.703719344052079 129.57673636660562,-8.873592325130645 128.90686338552624,-6.37359232513061 129.5767363666027,-3.8735923251297915 131.40686338552413,-2.0434653062062145 133.90686338552416,-1.3735923251268298" stroke="#ffa500" stroke-linecap="round" stroke-linejoin="round"/><polyline fill="none" points="144.97577515990554,34.94914848664499 147.47577515990636,34.27927550556853 149.30590217882994,32.44914848664709 149.97577515990932,29.949148486647054 149.30590217883287,27.449148486646234 147.47577515991142,25.619021467722654 144.9757751599114,24.949148486643267 142.47577515991057,25.619021467719723 140.645648140987,27.449148486641157 139.9757751599076,29.949148486641192 140.64564814098406,32.44914848664202 142.4757751599055,34.27927550556559 144.97577515990554,34.94914848664498" stroke="#ffa500" stroke-linecap="round" stroke-linejoin="round"/><polyline fill="none" points="158.31227172166564,20.689639015712075 160.81227172166646,20.01976603463562 162.64239874059004,18.189639015714185 163.31227172166942,15.68963901571415 162.64239874059297,13.189639015713329 160.81227172167152,11.359511996789747 158.3122717216715,10.689639015710357 155.81227172167067,11.35951199678681 153.9821447027471,13.189639015708243 153.3122717216677,15.689639015708279 153.98214470274416,18.1896390157091 155.8122717216656,20.019766034632685 158.31227172166564,20.689639015712075" stroke="#ffa500" stroke-linecap="round" stroke-linejoin="round"/><polyline fill="none" points="154.92312385348743,49.69218391164282 157.42312385348825,49.02231093056637 159.25325087241183,47.19218391164494 159.9231238534912,44.692183911644904 159.25325087241475,42.19218391164408 157.4231238534933,40.362056892720496 154.92312385349328,39.6921839116411 152.42312385349246,40.362056892717554 150.59299683456888,42.192183911638985 149.9231238534895,44.69218391163902 150.59299683456595,47.192183911639844 152.42312385348737,49.02231093056343 154.9231238534874,49.69218391164282" stroke="#ffa500" stroke-linecap="round" stroke-linejoin="round"/><polyline fill="none" points="79.92617797355578,32.01458707200255 82.4261779735566,31.3447140909261 84.2563049924802,29.51458707200467 84.92617797355959,27.014587072004634 84.25630499248314,24.51458707200381 82.4261779735617,22.684460053080223 79.92617797356166,22.014587072000825 77.42617797356084,22.684460053077274 75.59605095463725,24.514587071998704 74.92617797355786,27.01458707199874 75.59605095463431,29.514587071999564 77.42617797355574,31.34471409092315 79.92617797355578,32.01458707200255" stroke="#00f" stroke-linecap="round" stroke-linejoin="round"/><polyline fill="none" points="-3.943365637066595,20.938460475716862 -1.4433656370657677,20.268587494640414 0.38676138185782194,18.438460475718983 1.0566343629372204,15.938460475718948 0.386761381860774,13.43846047571812 -1.4433656370606545,11.60833345679453 -3.943365637060691,10.93846047571513 -6.443365637061518,11.608333456791577 -8.273492655985109,13.438460475713006 -8.94336563706451,15.938460475713043 -8.273492655988065,18.43846047571387 -6.443365637066637,20.268587494637462 -3.9433656370666004,20.938460475716862" stroke="#00f" stroke-linecap="round" stroke-linejoin="round"/><polyline fill="none" points="144.26866479469774,46.07293187134711 146.76866479469857,45.403058890270664 148.59879181362217,43.57293187134923 149.26866479470158,41.0729318713492 148.59879181362513,38.572931871348366 146.7686647947037,36.742804852424776 144.26866479470368,36.072931871345375 141.76866479470286,36.74280485242182 139.93853777577925,38.57293187134324 139.26866479469984,41.07293187134328 139.9385377757763,43.57293187134411 141.7686647946977,45.4030588902677 144.26866479469774,46.0729318713471" stroke="#ffa500" stroke-linecap="round" stroke-linejoin="round"/><polyline fill="none" points="140.89449454552744,54.56622698631332 143.39449454552826,53.89635400523687 145.22462156445187,52.06622698631545 145.89449454553127,49.566226986315414 145.22462156445482,47.06622698631458 143.3944945455334,45.236099967390984 140.89449454553338,44.56622698631158 138.39449454553255,45.23609996738802 136.56436752660895,47.066226986309445 135.89449454552954,49.56622698630948 136.564367526606,52.06622698631031 138.3944945455274,53.89635400523391 140.89449454552744,54.56622698631332" stroke="#ffa500" stroke-linecap="round" stroke-linejoin="round"/><polyline fill="none" points="166.86638374622933,52.518961560931075 169.36638374623016,51.84908857985464 171.19651076515376,50.018961560933214 171.86638374623317,47.51896156093318 171.19651076515672,45.01896156093235 169.3663837462353,43.18883454200875 166.86638374623527,42.51896156092934 164.36638374623445,43.18883454200578 162.53625672731084,45.0189615609272 161.86638374623143,47.51896156092724 162.5362567273079,50.01896156092807 164.3663837462293,51.84908857985167 166.86638374622933,52.518961560931075" stroke="#ffa500" stroke-linecap="round" stroke-linejoin="round"/><polyline fill="none" points="127.73665126573594,82.99622472362074 130.23665126573678,82.3263517425443 132.0667782846604,80.49622472362287 132.7366512657398,77.99622472362283 132.06677828466337,75.49622472362199 130.23665126574195,73.66609770469839 127.73665126574191,72.99622472361898 125.23665126574107,73.66609770469542 123.40652424681747,75.49622472361683 122.73665126573806,77.99622472361688 123.4065242468145,80.49622472361771 125.23665126573592,82.32635174254132 127.73665126573596,82.99622472362073" stroke="#ffa500" stroke-linecap="round" stroke-linejoin="round"/><polyline fill="none" points="152.53672167493414,84.90203188853006 155.03672167493497,84.23215890745362 156.86684869385857,82.4020318885322 157.53672167493798,79.90203188853216 156.86684869386156,77.40203188853133 155.03672167494014,75.57190486960772 152.5367216749401,74.90203188852831 150.0367216749393,75.57190486960475 148.20659465601568,77.40203188852617 147.53672167493627,79.90203188852621 148.2065946560127,82.40203188852705 150.0367216749341,84.23215890745065 152.53672167493414,84.90203188853006" stroke="#ffa500" stroke-linecap="round" stroke-linejoin="round"/><polyline fill="none" points="152.48935510648334,75.82767519458281 154.98935510648417,75.15780221350637 156.81948212540777,73.32767519458496 157.48935510648718,70.82767519458491 156.81948212541076,68.32767519458407 154.98935510648934,66.49754817566047 152.4893551064893,65.82767519458105 149.9893551064885,66.49754817565749 148.15922808756488,68.3276751945789 147.48935510648548,70.82767519457894 148.1592280875619,73.32767519457978 149.98935510648332,75.15780221350339 152.48935510648334,75.82767519458281" stroke="#ffa500" stroke-linecap="round" stroke-linejoin="round"/><polyline fill="none" points="141.62648976629166,99.55701663438124 144.12648976629248,98.88714365330482 145.95661678521608,97.0570166343834 146.6264897662955,94.55701663438336 145.95661678521907,92.05701663438252 144.12648976629765,90.22688961545892 141.62648976629762,89.5570166343795 139.1264897662968,90.22688961545592 137.2963627473732,92.05701663437733 136.6264897662938,94.55701663437738 137.2963627473702,97.05701663437821 139.12648976629163,98.88714365330182 141.62648976629166,99.55701663438124" stroke="#ffa500" stroke-linecap="round" stroke-linejoin="round"/><polyline fill="none" points="140.66966776746162,120.80226238061014 143.16966776746244,120.13238939953372 144.99979478638605,118.3022623806123 145.66966776746546,115.80226238061226 144.99979478638903,113.30226238061142 143.16966776746762,111.47213536168782 140.6696677674676,110.8022623806084 138.16966776746676,111.47213536168482 136.33954074854316,113.30226238060624 135.66966776746375,115.80226238060628 136.33954074854017,118.30226238060712 138.1696677674616,120.13238939953072 140.66966776746162,120.80226238061014" stroke="#ffa500" stroke-linecap="round" stroke-linejoin="round"/><polyline fill="none" points="92.48423192274109,117.32302731707728 94.98423192274193,116.65315433600085 96.81435894166553,114.82302731707944 97.48423192274495,112.3230273170794 96.81435894166853,109.82302731707856 94.98423192274711,107.99290029815495 92.48423192274707,107.32302731707553 89.98423192274623,107.99290029815195 88.15410490382261,109.82302731707337 87.48423192274319,112.32302731707341 88.15410490381961,114.82302731707425 89.98423192274103,116.65315433599787 92.48423192274107,117.32302731707729" stroke="#ffa500" stroke-linecap="round" stroke-linejoin="round"/><polyline fill="none" points="127.3803754018156,133.34006308974062 129.88037540181645,132.6701901086642 131.71050242074006,130.84006308974278 132.3803754018195,128.34006308974276 131.71050242074307,125.84006308974192 129.88037540182165,124.0099360708183 127.38037540182161,123.34006308973888 124.88037540182077,124.0099360708153 123.05024838289715,125.84006308973672 122.38037540181773,128.34006308973676 123.05024838289415,130.8400630897376 124.88037540181557,132.67019010866122 127.38037540181561,133.34006308974065" stroke="#ffa500" stroke-linecap="round" stroke-linejoin="round"/><polyline fill="none" points="18.32113544548815,38.07324105790732 20.82113544548899,37.403368076830894 22.651262464412607,35.57324105790948 23.321135445492036,33.07324105790944 22.651262464415616,30.5732410579086 20.821135445494203,28.743114038984984 18.321135445494168,28.073241057905555 15.821135445493324,28.743114038981975 13.991008426569707,30.573241057903388 13.321135445490276,33.073241057903424 13.991008426566694,35.57324105790427 15.821135445488107,37.40336807682789 18.321135445488142,38.07324105790732" stroke="#008000" stroke-linecap="round" stroke-linejoin="round"/><polyline fill="none" points="85.58211259046007,145.60434134894197 88.08211259046091,144.93446836786555 89.91223960938453,143.10434134894413 90.58211259046396,140.6043413489441 89.91223960938754,138.10434134894325 88.08211259046612,136.27421433001962 85.58211259046608,135.60434134894018 83.08211259046524,136.2742143300166 81.25198557154162,138.10434134893802 80.58211259046219,140.60434134893805 81.2519855715386,143.1043413489389 83.08211259046001,144.93446836786254 85.58211259046006,145.60434134894197" stroke="#ffa500" stroke-linecap="round" stroke-linejoin="round"/><polyline fill="none" points="85.50986053968698,145.36539652982958 88.00986053968782,144.69552354875316 89.83998755861144,142.86539652983174 90.50986053969088,140.3653965298317 89.83998755861447,137.86539652983086 88.00986053969305,136.03526951090723 85.50986053969301,135.3653965298278 83.00986053969217,136.03526951090421 81.17973352076855,137.86539652982563 80.50986053968911,140.36539652982566 81.17973352076552,142.8653965298265 83.00986053968694,144.69552354875015 85.50986053968698,145.36539652982958" stroke="#ffa500" stroke-linecap="round" stroke-linejoin="round"/><polyline fill="none" points="29.53529674984165,135.1729964372556 32.035296749842495,134.50312345617917 33.86542376876612,132.67299643725775 34.53529674984556,130.17299643725772 33.86542376876915,127.67299643725687 32.03529674984774,125.84286941833325 29.535296749847703,125.17299643725381 27.035296749846857,125.84286941833022 25.20516973092323,127.67299643725163 24.53529674984379,130.17299643725167 25.2051697309202,132.67299643725252 27.03529674984161,134.50312345617616 29.535296749841645,135.1729964372556" stroke="#ffa500" stroke-linecap="round" stroke-linejoin="round"/><polyline fill="none" points="-41.45695597989651,57.214022694448296 -38.95695597989567,56.54414971337189 -37.12682896097204,54.71402269445048 -36.4569559798926,52.21402269445044 -37.12682896096901,49.714022694449596 -38.95695597989042,47.88389567552597 -41.45695597989045,47.21402269444653 -43.956955979891305,47.883895675522936 -45.78708299881493,49.714022694444346 -46.456955979894374,52.21402269444438 -45.787082998817965,54.714022694445234 -43.956955979896556,56.54414971336886 -41.45695597989652,57.2140226944483" stroke="#00f" stroke-linecap="round" stroke-linejoin="round"/><polyline fill="none" points="11.463072021209259,70.96687315544446 13.963072021210108,70.29700017436805 15.793199040133736,68.46687315544665 16.46307202121318,65.9668731554466 15.793199040136772,63.466873155445754 13.963072021215366,61.63674613652213 11.463072021215329,60.966873155442684 8.963072021214478,61.63674613651909 7.132945002290848,63.466873155440496 6.463072021211403,65.96687315544054 7.1329450022878085,68.46687315544139 8.963072021209214,70.29700017436502 11.46307202120925,70.96687315544447" stroke="#00f" stroke-linecap="round" stroke-linejoin="round"/><polyline fill="none" points="36.413303096152845,129.00883984810937 38.9133030961537,128.33896686703298 40.74343011507733,126.50883984811158 41.41330309615678,124.00883984811153 40.74343011508038,121.50883984811068 38.91330309615898,119.67871282918705 36.41330309615894,119.0088398481076 33.91330309615809,119.67871282918401 32.083176077234455,121.50883984810541 31.41330309615501,124.00883984810545 32.083176077231414,126.5088398481063 33.913303096152816,128.33896686702994 36.41330309615285,129.00883984810937" stroke="#ffa500" stroke-linecap="round" stroke-linejoin="round"/><polyline fill="none" points="24.363813252169162,178.6888874000258 26.863813252170015,178.0190144189494 28.69394027109365,176.188887400028 29.3638132521731,173.68888740002797 28.693940271096697,171.1888874000271 26.863813252175294,169.35876038110348 24.36381325217526,168.68888740002404 21.863813252174406,169.35876038110044 20.033686233250773,171.18888740002186 19.363813252171322,173.68888740002188 20.033686233247725,176.18888740002274 21.863813252169127,178.01901441894637 24.363813252169162,178.68888740002583" stroke="#ffa500" stroke-linecap="round" stroke-linejoin="round"/><polyline fill="none" points="23.91559535002168,147.06114805342835 26.41559535002253,146.39127507235196 28.24572236894617,144.56114805343057 28.91559535002562,142.06114805343054 28.24572236894922,139.5611480534297 26.415595350027818,137.73102103450606 23.915595350027782,137.0611480534266 21.415595350026926,137.731021034503 19.58546833110329,139.56114805342438 18.915595350023835,142.0611480534244 19.585468331100234,144.56114805342526 21.415595350021636,146.3912750723489 23.915595350021672,147.06114805342835" stroke="#ffa500" stroke-linecap="round" stroke-linejoin="round"/><polyline fill="none" points="32.464616925770336,25.547460085395592 34.96461692577119,24.877587104319193 36.79474394469483,23.047460085397795 37.46461692577429,20.54746008539776 36.79474394469789,18.047460085396903 34.96461692577649,16.217333066473262 32.464616925776454,15.547460085393807 29.964616925775598,16.217333066470204 28.134489906851957,18.047460085391602 27.4646169257725,20.547460085391638 28.134489906848895,23.047460085392494 29.964616925770294,24.877587104316135 32.46461692577033,25.547460085395592" stroke="#00f" stroke-linecap="round" stroke-linejoin="round"/><polyline fill="none" points="-42.62879798312742,52.88098149531821 -40.12879798312656,52.211108514241815 -38.29867096420292,50.38098149532041 -37.62879798312346,47.88098149532038 -38.29867096419986,45.38098149531952 -40.12879798312126,43.55085447639588 -42.628797983121295,42.88098149531642 -45.128797983122155,43.550854476392814 -46.958925002045795,45.38098149531421 -47.62879798312525,47.880981495314245 -46.95892500204886,50.380981495315105 -45.12879798312746,52.211108514238745 -42.62879798312743,52.8809814953182" stroke="#00f" stroke-linecap="round" stroke-linejoin="round"/><polyline fill="none" points="-15.613979504688972,185.9036271533573 -13.113979504688114,185.2337541722809 -11.28385248576447,183.4036271533595 -10.613979504685009,180.90362715335948 -11.283852485761402,178.40362715335863 -13.1139795046828,176.573500134435 -15.613979504682835,175.90362715335553 -18.113979504683694,176.57350013443192 -19.94410652360734,178.4036271533533 -20.6139795046868,180.90362715335334 -19.944106523610408,183.4036271533542 -18.113979504689013,185.23375417227783 -15.613979504688977,185.9036271533573" stroke="#ffa500" stroke-linecap="round" stroke-linejoin="round"/><polyline fill="none" points="-8.885691504836876,157.40912115422606 -6.385691504836016,156.73924817314966 -4.55556448591237,154.90912115422827 -3.8856915048329066,152.40912115422825 -4.555564485909296,149.9091211542274 -6.385691504830692,148.07899413530376 -8.885691504830728,147.4091211542243 -11.385691504831588,148.0789941353007 -13.215818523755235,149.90912115422208 -13.8856915048347,152.4091211542221 -13.215818523758312,154.90912115422296 -11.385691504836917,156.73924817314662 -8.885691504836881,157.40912115422609" stroke="#ffa500" stroke-linecap="round" stroke-linejoin="round"/><polyline fill="none" points="-30.05252155710968,13.261970830553109 -27.552521557108822,12.59209784947672 -25.722394538185174,10.761970830555326 -25.052521557105706,8.261970830555288 -25.722394538182094,5.761970830554427 -27.55252155710349,3.9318438116307775 -30.052521557103525,3.26197083055131 -32.552521557104384,3.9318438116276972 -34.38264857602803,5.761970830549092 -35.0525215571075,8.26197083054913 -34.38264857603111,10.761970830549993 -32.55252155710971,12.592097849473644 -30.052521557109678,13.261970830553112" stroke="#f00" stroke-linecap="round" stroke-linejoin="round"/><polyline fill="none" points="-5.153597087344874,57.60211562563891 -2.6535970873440107,56.93224264456252 -0.8234700684203589,55.102115625641126 -0.15359708734088917,52.60211562564109 -0.8234700684172743,50.102115625640224 -2.6535970873386683,48.27198860671657 -5.153597087338706,47.6021156256371 -7.65359708733957,48.271988606713485 -9.483724106263223,50.10211562563488 -10.153597087342694,52.602115625634916 -9.48372410626631,55.10211562563578 -7.653597087344917,56.93224264455944 -5.153597087344879,57.60211562563891" stroke="#008000" stroke-linecap="round" stroke-linejoin="round"/><polyline fill="none" points="-42.9975161414364,167.2158998469213 -40.49751614143553,166.5460268658449 -38.66738912251188,164.71589984692352 -37.997516141432406,162.2158998469235 -38.66738912250879,159.71589984692264 -40.49751614143018,157.88577282799898 -42.99751614143022,157.2158998469195 -45.497516141431085,157.8857728279959 -47.32764316035474,159.7158998469173 -47.99751614143421,162.21589984691732 -47.32764316035783,164.71589984691818 -45.497516141436435,166.54602686584184 -42.9975161414364,167.2158998469213" stroke="#ffa500" stroke-linecap="round" stroke-linejoin="round"/><polyline fill="none" points="-51.82509989022399,164.85055591031565 -49.32509989022312,164.18068292923925 -47.49497287129947,162.35055591031787 -46.825099890219995,159.85055591031784 -47.494972871296376,157.35055591031696 -49.32509989021777,155.5204288913933 -51.82509989021781,154.85055591031383 -54.325099890218674,155.5204288913902 -56.155226909142336,157.35055591031158 -56.825099890221814,159.8505559103116 -56.15522690914543,162.3505559103125 -54.325099890224045,164.18068292923616 -51.82509989022401,164.85055591031562" stroke="#ffa500" stroke-linecap="round" stroke-linejoin="round"/><polyline fill="none" points="-62.602964226328034,81.58801028086394 -60.10296422632717,80.91813729978756 -58.272837207403505,79.08801028086617 -57.602964226324026,76.58801028086613 -58.27283720740041,74.08801028086526 -60.102964226321795,72.2578832619416 -62.60296422632183,71.58801028086212 -65.1029642263227,72.2578832619385 -66.93309124524636,74.08801028085989 -67.60296422632584,76.58801028085993 -66.93309124524946,79.0880102808608 -65.10296422632807,80.91813729978446 -62.602964226328034,81.58801028086394" stroke="#00f" stroke-linecap="round" stroke-linejoin="round"/><polyline fill="none" points="-21.75931353015909,55.812173126773736 -19.25931353015822,55.14230014569736 -17.42918651123456,53.312173126775974 -16.759313530155076,50.81217312677594 -17.42918651123145,48.31217312677507 -19.259313530152838,46.48204610785141 -21.759313530152873,45.81217312677193 -24.259313530153744,46.482046107848305 -26.089440549077406,48.31217312676969 -26.759313530156888,50.81217312676973 -26.089440549080514,53.3121731267706 -24.259313530159126,55.142300145694264 -21.759313530159087,55.81217312677375" stroke="#00f" stroke-linecap="round" stroke-linejoin="round"/><polyline fill="none" points="-88.3933218819684,166.21244983996365 -85.89332188196754,165.5425768588873 -84.06319486304388,163.7124498399659 -83.3933218819644,161.21244983996587 -84.06319486304076,158.712449839965 -85.89332188196215,156.88232282104133 -88.3933218819622,156.21244983996183 -90.89332188196306,156.8823228210382 -92.72344890088672,158.7124498399596 -93.39332188196622,161.21244983995962 -92.72344890088985,163.7124498399605 -90.89332188196846,165.54257685888416 -88.39332188196842,166.21244983996365" stroke="#ffa500" stroke-linecap="round" stroke-linejoin="round"/><polyline fill="none" points="35.239825829169014,39.5579695750318 37.73982582916989,38.888096593955424 39.56995284809356,37.057969575034036 40.23982582917304,34.557969575034 39.569952848096676,32.05796957503313 37.73982582917529,30.227842556109458 35.23982582917525,29.55796957502997 32.73982582917438,30.22784255610634 30.90969881025071,32.05796957502773 30.23982582917122,34.55796957502776 30.90969881024759,37.057969575028636 32.73982582916898,38.888096593952305 35.239825829169014,39.5579695750318" stroke="#00f" stroke-linecap="round" stroke-linejoin="round"/><polyline fill="none" points="-115.55053212600149,132.90329651981475 -113.0505321260006,132.23342353873838 -111.22040510707693,130.403296519817 -110.55053212599744,127.90329651981695 -111.2204051070738,125.40329651981607 -113.05053212599519,123.57316950089239 -115.55053212599523,122.9032965198129 -118.05053212599611,123.57316950088926 -119.88065914491979,125.40329651981065 -120.55053212599928,127.9032965198107 -119.88065914492292,130.40329651981156 -118.05053212600153,132.23342353873522 -115.55053212600149,132.90329651981472" stroke="#ffa500" stroke-linecap="round" stroke-linejoin="round"/><polyline fill="none" points="-95.23823409312466,153.619175174244 -92.73823409312378,152.94930219316763 -90.9081070742001,151.11917517424624 -90.23823409312061,148.6191751742462 -90.90810707419698,146.11917517424533 -92.73823409311836,144.28904815532167 -95.23823409311841,143.61917517424217 -97.73823409311929,144.28904815531854 -99.56836111204296,146.11917517423993 -100.23823409312246,148.61917517423996 -99.56836111204609,151.11917517424084 -97.7382340931247,152.9493021931645 -95.23823409312466,153.619175174244" stroke="#ffa500" stroke-linecap="round" stroke-linejoin="round"/><polyline fill="none" points="-122.33364292358723,123.39858821402598 -119.83364292358635,122.72871523294961 -118.00351590466268,120.89858821402822 -117.33364292358318,118.39858821402818 -118.00351590465955,115.8985882140273 -119.83364292358094,114.06846119510362 -122.33364292358098,113.39858821402413 -124.83364292358186,114.0684611951005 -126.66376994250554,115.89858821402188 -127.33364292358503,118.39858821402193 -126.66376994250867,120.89858821402281 -124.83364292358729,122.72871523294648 -122.33364292358725,123.39858821402598" stroke="#ffa500" stroke-linecap="round" stroke-linejoin="round"/><polyline fill="none" points="-43.59541002808321,21.60319707905471 -41.09541002808233,20.93332409797835 -39.26528300915865,19.10319707905697 -38.59541002807915,16.60319707905693 -39.26528300915551,14.10319707905605 -41.09541002807689,12.273070060132373 -43.59541002807693,11.603197079052872 -46.09541002807781,12.273070060129232 -47.925537047001484,14.103197079050611 -48.595410028080984,16.60319707905065 -47.925537047004624,19.10319707905153 -46.09541002808324,20.93332409797521 -43.59541002808321,21.60319707905471" stroke="#00f" stroke-linecap="round" stroke-linejoin="round"/><polyline fill="none" points="-105.86542978220332,120.19911596668598 -103.36542978220244,119.52924298560963 -101.53530276327876,117.69911596668825 -100.86542978219926,115.19911596668821 -101.53530276327561,112.69911596668733 -103.36542978219698,110.86898894776365 -105.86542978219703,110.19911596668415 -108.36542978219791,110.8689889477605 -110.19555680112158,112.69911596668187 -110.86542978220109,115.19911596668192 -110.19555680112474,117.6991159666828 -108.36542978220336,119.52924298560647 -105.86542978220332,120.19911596668598" stroke="#ffa500" stroke-linecap="round" stroke-linejoin="round"/><polyline fill="none" points="-79.62820239497044,29.646683032411044 -77.12820239496956,28.976810051334688 -75.29807537604589,27.14668303241331 -74.62820239496638,24.64668303241327 -75.29807537604273,22.14668303241239 -77.1282023949641,20.316556013488707 -79.62820239496415,19.646683032409204 -82.12820239496503,20.31655601348556 -83.95832941388872,22.146683032406937 -84.62820239496823,24.646683032406976 -83.95832941389187,27.146683032407857 -82.1282023949705,28.97681005133154 -79.62820239497046,29.646683032411048" stroke="#ffa500" stroke-linecap="round" stroke-linejoin="round"/><polyline fill="none" points="-110.7623632585758,92.38825192442295 -108.26236325857492,91.7183789433466 -106.43223623965123,89.88825192442522 -105.76236325857172,87.38825192442518 -106.43223623964808,84.8882519244243 -108.26236325856945,83.0581249055006 -110.7623632585695,82.3882519244211 -113.26236325857037,83.05812490549745 -115.09249027749406,84.88825192441882 -115.76236325857357,87.38825192441887 -115.09249027749722,89.88825192441975 -113.26236325857585,91.71837894334344 -110.7623632585758,92.38825192442295" stroke="#ffa500" stroke-linecap="round" stroke-linejoin="round"/><polyline fill="none" points="-29.345144000296397,91.77988865456702 -26.845144000295512,91.11001567349066 -25.015016981371826,89.27988865456929 -24.345144000292315,86.77988865456925 -25.015016981368667,84.27988865456837 -26.84514400029004,82.44976163564468 -29.34514400029008,81.77988865456517 -31.845144000290965,82.44976163564152 -33.675271019214655,84.2798886545629 -34.34514400029417,86.77988865456294 -33.67527101921782,89.27988865456382 -31.845144000296443,91.11001567348751 -29.345144000296404,91.77988865456702" stroke="#00f" stroke-linecap="round" stroke-linejoin="round"/><polyline fill="none" points="-46.86641381716019,63.353035607831636 -44.366413817159305,62.68316262675529 -42.536286798235615,60.85303560783392 -41.8664138171561,58.35303560783388 -42.536286798232446,55.85303560783299 -44.36641381715382,54.0229085889093 -46.866413817153855,53.35303560782979 -49.36641381715474,54.022908588906134 -51.196540836078434,55.85303560782751 -51.86641381715795,58.35303560782754 -51.1965408360816,60.85303560782843 -49.36641381716023,62.68316262675212 -46.86641381716019,63.353035607831636" stroke="#00f" stroke-linecap="round" stroke-linejoin="round"/><polyline fill="none" points="-28.156076809437213,-3.3289621365310627 -25.656076809436325,-3.998835117607409 -23.82594979051263,-5.828962136528781 -23.156076809433117,-8.32896213652882 -23.825949790509462,-10.828962136529707 -25.656076809430836,-12.659089155453401 -28.156076809430875,-13.328962136532917 -30.656076809431763,-12.659089155456572 -32.48620382835546,-10.8289621365352 -33.15607680943497,-8.32896213653516 -32.486203828358626,-5.8289621365342725 -30.656076809437256,-3.998835117610579 -28.156076809437216,-3.3289621365310618" stroke="#00f" stroke-linecap="round" stroke-linejoin="round"/><polyline fill="none" points="-160.0979514717261,91.02185559321094 -157.59795147172522,90.3519826121346 -155.76782445280153,88.52185559321323 -155.097951471722,86.02185559321319 -155.76782445279835,83.5218555932123 -157.5979514717197,81.6917285742886 -160.09795147171974,81.02185559320908 -162.59795147172062,81.69172857428542 -164.4280784906443,83.5218555932068 -165.09795147172383,86.02185559320684 -164.4280784906475,88.52185559320773 -162.59795147172613,90.35198261213142 -160.0979514717261,91.02185559321094" stroke="#ffa500" stroke-linecap="round" stroke-linejoin="round"/><polyline fill="none" points="-175.39842404989298,36.429122633391486 -172.8984240498921,35.75924965231515 -171.0682970309684,33.92912263339378 -170.3984240498889,31.429122633393742 -171.06829703096523,28.92912263339285 -172.8984240498866,27.098995614469153 -175.39842404988661,26.429122633389632 -177.8984240498875,27.098995614465974 -179.72855106881119,28.929122633387344 -180.3984240498907,31.429122633387383 -179.72855106881437,33.929122633388275 -177.898424049893,35.75924965231197 -175.39842404989298,36.42912263339149" stroke="#ffa500" stroke-linecap="round" stroke-linejoin="round"/><polyline fill="none" points="-159.8901364675912,37.3978155156181 -157.3901364675903,36.72794253454176 -155.56000944866662,34.897815515620394 -154.8901364675871,32.39781551562035 -155.56000944866344,29.89781551561946 -157.3901364675848,28.06768849669576 -159.89013646758482,27.397815515616234 -162.3901364675857,28.067688496692572 -164.2202634865094,29.89781551561394 -164.89013646758892,32.39781551561398 -164.22026348651258,34.89781551561487 -162.39013646759122,36.72794253453858 -159.8901364675912,37.397815515618106" stroke="#ffa500" stroke-linecap="round" stroke-linejoin="round"/><polyline fill="none" points="-168.71208615329942,65.02586037372812 -166.21208615329854,64.35598739265178 -164.38195913437485,62.52586037373042 -163.71208615329533,60.025860373730374 -164.38195913437167,57.52586037372948 -166.21208615329303,55.695733354805775 -168.71208615329306,55.025860373726246 -171.21208615329394,55.695733354802584 -173.04221317221763,57.52586037372395 -173.71208615329715,60.02586037372399 -173.0422131722208,62.52586037372488 -171.21208615329945,64.35598739264859 -168.71208615329942,65.02586037372811" stroke="#ffa500" stroke-linecap="round" stroke-linejoin="round"/><polyline fill="none" points="-55.3837197000081,-6.038241582569256 -52.883719700007205,-6.708114563645592 -51.0535926810835,-8.538241582566958 -50.38371970000397,-11.038241582566997 -51.05359268108031,-13.538241582567892 -52.88371970000168,-15.368368601491596 -55.38371970000172,-16.038241582571125 -57.883719700002615,-15.36836860149479 -59.71384671892632,-13.538241582573423 -60.38371970000585,-11.038241582573384 -59.71384671892952,-8.538241582572487 -57.88371970000815,-6.708114563648781 -55.38371970000811,-6.03824158256925" stroke="#00f" stroke-linecap="round" stroke-linejoin="round"/><polyline fill="none" points="-59.413163983918054,-29.245184746116244 -56.91316398391716,-29.91505772719258 -55.083036964993454,-31.745184746113946 -54.413163983913925,-34.245184746113985 -55.08303696499026,-36.74518474611488 -56.91316398391162,-38.57531176503859 -59.413163983911666,-39.24518474611813 -61.91316398391256,-38.575311765041796 -63.74329100283627,-36.74518474612043 -64.41316398391581,-34.24518474612039 -63.74329100283948,-31.745184746119488 -61.91316398391811,-29.91505772719578 -59.41316398391807,-29.245184746116244" stroke="#00f" stroke-linecap="round" stroke-linejoin="round"/><polyline fill="none" points="-40.87072507721757,-40.22308414421261 -38.37072507721667,-40.892957125288945 -36.54059805829296,-42.72308414421031 -35.87072507721342,-45.223084144210354 -36.54059805828975,-47.723084144211256 -38.37072507721112,-49.55321116313497 -40.87072507721116,-50.2230841442145 -43.370725077212064,-49.55321116313817 -45.200852096135776,-47.723084144216806 -45.87072507721531,-45.22308414421676 -45.20085209613898,-42.72308414421586 -43.370725077217614,-40.89295712529215 -40.87072507721757,-40.22308414421261" stroke="#ffa500" stroke-linecap="round" stroke-linejoin="round"/><polyline fill="none" points="-148.69769538106996,12.383847231140411 -146.19769538106905,11.713974250064082 -144.36756836214533,9.883847231142719 -143.69769538106578,7.383847231142678 -144.36756836214212,4.883847231141777 -146.19769538106348,3.053720212218064 -148.6976953810635,2.383847231138525 -151.19769538106442,3.053720212214852 -153.02782239998814,4.883847231136214 -153.6976953810677,7.383847231136255 -153.02782239999135,9.883847231137157 -151.19769538107,11.713974250060872 -148.69769538106996,12.383847231140411" stroke="#ffa500" stroke-linecap="round" stroke-linejoin="round"/><polyline fill="none" points="-172.6811955767026,18.609927847308285 -170.1811955767017,17.940054866231957 -168.35106855777798,16.109927847310594 -167.68119557669843,13.609927847310553 -168.35106855777477,11.10992784730965 -170.18119557669613,9.279800828385936 -172.68119557669615,8.609927847306395 -175.18119557669706,9.27980082838272 -177.01132259562078,11.109927847304082 -177.68119557670033,13.609927847304123 -177.011322595624,16.109927847305027 -175.18119557670263,17.940054866228742 -172.6811955767026,18.609927847308285" stroke="#ffa500" stroke-linecap="round" stroke-linejoin="round"/><polyline fill="none" points="9.274043687459736,0.08958680775361572 11.77404368746064,-0.5802861733227086 13.604170706384357,-2.41041319224407 14.2740436874639,-4.910413192244111 13.604170706387576,-7.410413192245016 11.774043687466214,-9.240540211168733 9.274043687466174,-9.910413192248278 6.774043687465269,-9.240540211171954 4.943916668541551,-7.410413192250593 4.274043687462006,-4.910413192250552 4.9439166685383285,-2.4104131922496466 6.774043687459688,-0.580286173325927 9.27404368745973,0.08958680775361849" stroke="#00f" stroke-linecap="round" stroke-linejoin="round"/><polyline fill="none" points="-156.14170627456454,-2.697631943087851 -153.64170627456363,-3.3675049241641726 -151.8115792556399,-5.197631943085533 -151.14170627456036,-7.697631943085575 -151.81157925563667,-10.197631943086481 -153.64170627455803,-12.027758962010203 -156.14170627455806,-12.69763194308975 -158.64170627455897,-12.02775896201343 -160.4718332934827,-10.19763194309207 -161.14170627456224,-7.697631943092027 -160.47183329348593,-5.197631943091119 -158.64170627456457,-3.3675049241673967 -156.1417062745645,-2.697631943087848" stroke="#ffa500" stroke-linecap="round" stroke-linejoin="round"/><polyline fill="none" points="-83.86643039759674,-5.45194868608414 -81.36643039759583,-6.12182166716046 -79.53630337867212,-7.95194868608182 -78.86643039759257,-10.451948686081863 -79.53630337866889,-12.951948686082773 -81.36643039759025,-14.782075705006497 -83.86643039759029,-15.451948686086046 -86.3664303975912,-14.782075705009728 -88.19655741651492,-12.95194868608837 -88.86643039759447,-10.451948686088327 -88.19655741651815,-7.951948686087419 -86.36643039759679,-6.121821667163694 -83.86643039759674,-5.451948686084142" stroke="#00f" stroke-linecap="round" stroke-linejoin="round"/><polyline fill="none" points="-178.27304454569014,-65.37876344546547 -175.77304454568923,-66.04863642654179 -173.9429175267655,-67.87876344546315 -173.27304454568596,-70.37876344546319 -173.94291752676227,-72.8787634454641 -175.77304454568363,-74.70889046438784 -178.27304454568366,-75.37876344546738 -180.77304454568457,-74.70889046439108 -182.6031715646083,-72.87876344546972 -183.27304454568784,-70.37876344546967 -182.60317156461153,-67.87876344546876 -180.77304454569017,-66.04863642654503 -178.27304454569014,-65.37876344546548" stroke="#ffa500" stroke-linecap="round" stroke-linejoin="round"/><polyline fill="none" points="-53.4218447415344,-21.777074778699372 -50.92184474153349,-22.446947759775686 -49.091717722609765,-24.277074778697042 -48.42184474153021,-26.777074778697084 -49.091717722606525,-29.277074778697994 -50.92184474152788,-31.107201797621723 -53.42184474152792,-31.777074778701277 -55.92184474152883,-31.107201797624963 -57.751971760452555,-29.277074778703607 -58.42184474153211,-26.777074778703565 -57.7519717604558,-24.27707477870265 -55.92184474153445,-22.446947759778922 -53.42184474153441,-21.777074778699365" stroke="#008000" stroke-linecap="round" stroke-linejoin="round"/><polyline fill="none" points="-153.64134572262358,-72.90336567820508 -151.14134572262267,-73.57323865928139 -149.31121870369896,-75.40336567820275 -148.6413457226194,-77.90336567820279 -149.31121870369572,-80.4033656782037 -151.14134572261707,-82.23349269712743 -153.64134572261713,-82.903365678207 -156.14134572261804,-82.23349269713069 -157.97147274154176,-80.40336567820933 -158.6413457226213,-77.90336567820928 -157.971472741545,-75.40336567820837 -156.14134572262364,-73.57323865928464 -153.6413457226236,-72.90336567820508" stroke="#ffa500" stroke-linecap="round" stroke-linejoin="round"/><polyline fill="none" points="-125.13939189832176,-74.95552487779415 -122.63939189832085,-75.62539785887046 -120.80926487939712,-77.45552487779182 -120.13939189831756,-79.95552487779186 -120.80926487939387,-82.45552487779277 -122.63939189831522,-84.2856518967165 -125.13939189831527,-84.95552487779607 -127.63939189831618,-84.28565189671976 -129.46951891723992,-82.4555248777984 -130.13939189831947,-79.95552487779835 -129.46951891724316,-77.45552487779744 -127.6393918983218,-75.62539785887371 -125.13939189832176,-74.95552487779415" stroke="#ffa500" stroke-linecap="round" stroke-linejoin="round"/><polyline fill="none" points="-157.40648233529197,-78.52295579557016 -154.90648233529106,-79.19282877664646 -153.0763553163673,-81.02295579556781 -152.40648233528776,-83.52295579556785 -153.07635531636407,-86.02295579556876 -154.90648233528543,-87.8530828144925 -157.40648233528546,-88.52295579557206 -159.90648233528637,-87.85308281449575 -161.73660935421012,-86.0229557955744 -162.4064823352897,-83.52295579557436 -161.73660935421339,-81.02295579557345 -159.90648233529203,-79.19282877664972 -157.406482335292,-78.52295579557016" stroke="#ffa500" stroke-linecap="round" stroke-linejoin="round"/><polyline fill="none" points="-73.24139352544232,-88.27845241355286 -70.74139352544141,-88.94832539462917 -68.91126650651768,-90.77845241355051 -68.24139352543811,-93.27845241355055 -68.91126650651442,-95.77845241355146 -70.74139352543577,-97.6085794324752 -73.24139352543581,-98.27845241355476 -75.74139352543673,-97.60857943247845 -77.57152054436047,-95.7784524135571 -78.24139352544003,-93.27845241355706 -77.57152054436372,-90.77845241355614 -75.74139352544238,-88.9483253946324 -73.24139352544233,-88.27845241355284" stroke="#00f" stroke-linecap="round" stroke-linejoin="round"/><polyline fill="none" points="-57.273130487295354,-107.53860621634092 -54.77313048729444,-108.20847919741723 -52.9430034683707,-110.03860621633858 -52.27313048729113,-112.53860621633862 -52.94300346836743,-115.03860621633955 -54.77313048728878,-116.86873323526329 -57.273130487288824,-117.53860621634286 -59.77313048728974,-116.86873323526656 -61.60325750621348,-115.03860621634522 -62.27313048729305,-112.53860621634517 -61.60325750621675,-110.03860621634425 -59.773130487295404,-108.2084791974205 -57.27313048729536,-107.53860621634094" stroke="#ffa500" stroke-linecap="round" stroke-linejoin="round"/><polyline fill="none" points="-27.9296389806413,-35.188489526481916 -25.42963898064038,-35.85836250755822 -23.599511961716637,-37.688489526479565 -22.929638980637066,-40.18848952647961 -23.599511961713365,-42.688489526480524 -25.429638980634714,-44.518616545404264 -27.929638980634756,-45.188489526483835 -30.429638980635676,-44.51861654540753 -32.25976599955942,-42.68848952648619 -32.92963898063899,-40.188489526486144 -32.259765999562696,-37.68848952648523 -30.42963898064135,-35.85836250756148 -27.929638980641307,-35.18848952648191" stroke="#008000" stroke-linecap="round" stroke-linejoin="round"/><polyline fill="none" points="-105.86542978220332,-98.44500899602814 -103.3654297822024,-99.11488197710443 -101.53530276327865,-100.94500899602578 -100.86542978219907,-103.44500899602582 -101.53530276327537,-105.94500899602674 -103.36542978219671,-107.77513601495049 -105.86542978219676,-108.44500899603007 -108.36542978219768,-107.77513601495377 -110.19555680112143,-105.94500899603243 -110.865429782201,-103.44500899603239 -110.19555680112471,-100.94500899603146 -108.36542978220336,-99.11488197710771 -105.86542978220332,-98.44500899602814" stroke="#ffa500" stroke-linecap="round" stroke-linejoin="round"/><polyline fill="none" points="-109.2340513565472,-89.69331451659623 -106.73405135654627,-90.36318749767253 -104.90392433762253,-92.19331451659387 -104.23405135654295,-94.69331451659392 -104.90392433761924,-97.19331451659484 -106.73405135654059,-99.02344153551859 -109.23405135654063,-99.69331451659816 -111.73405135654156,-99.02344153552187 -113.5641783754653,-97.19331451660052 -114.23405135654488,-94.69331451660048 -113.56417837546859,-92.19331451659956 -111.73405135654724,-90.36318749767581 -109.2340513565472,-89.69331451659623" stroke="#ffa500" stroke-linecap="round" stroke-linejoin="round"/><polyline fill="none" points="-48.03911389313734,-99.10268693320388 -45.53911389313642,-99.77255991428018 -43.70898687421267,-101.60268693320153 -43.03911389313309,-104.10268693320157 -43.70898687420939,-106.60268693320249 -45.53911389313073,-108.43281395212624 -48.039113893130775,-109.10268693320582 -50.5391138931317,-108.43281395212952 -52.36924091205545,-106.60268693320818 -53.03911389313503,-104.10268693320813 -52.36924091205874,-101.60268693320721 -50.5391138931374,-99.77255991428346 -48.039113893137355,-99.10268693320388" stroke="#ffa500" stroke-linecap="round" stroke-linejoin="round"/><polyline fill="none" points="-116.00635154043422,-83.70409924836707 -113.5063515404333,-84.37397222944337 -111.67622452150955,-86.20409924836471 -111.00635154042997,-88.70409924836476 -111.67622452150627,-91.20409924836568 -113.50635154042762,-93.03422626728943 -116.00635154042766,-93.704099248369 -118.50635154042858,-93.03422626729271 -120.33647855935233,-91.20409924837136 -121.00635154043191,-88.70409924837132 -120.33647855935561,-86.2040992483704 -118.50635154043427,-84.37397222944665 -116.00635154043422,-83.70409924836707" stroke="#00f" stroke-linecap="round" stroke-linejoin="round"/><polyline fill="none" points="-5.254045935311776,-57.50234470803486 -2.7540459353108497,-58.17221768911115 -0.9239189163870951,-60.00234470803249 -0.25404593530750996,-62.50234470803253 -0.9239189163837976,-65.00234470803346 -2.7540459353051383,-66.83247172695722 -5.2540459353051805,-67.50234470803682 -7.754045935306107,-66.83247172696053 -9.584172954229862,-65.00234470803919 -10.254045935309449,-62.502344708039146 -9.584172954233162,-60.00234470803822 -7.754045935311822,-58.17221768911447 -5.25404593531178,-57.50234470803488" stroke="#00f" stroke-linecap="round" stroke-linejoin="round"/><polyline fill="none" points="-101.91936661523688,-131.66519022977135 -99.41936661523596,-132.33506321084764 -97.5892395963122,-134.16519022976897 -96.9193666152326,-136.665190229769 -97.58923959630889,-139.16519022976993 -99.41936661523023,-140.99531724869368 -101.91936661523027,-141.66519022977326 -104.4193666152312,-140.99531724869698 -106.24949363415496,-139.16519022977565 -106.91936661523455,-136.6651902297756 -106.24949363415827,-134.16519022977465 -104.41936661523692,-132.3350632108509 -101.91936661523688,-131.66519022977133" stroke="#ffa500" stroke-linecap="round" stroke-linejoin="round"/><polyline fill="none" points="-78.59299168909696,-115.25699948340693 -76.09299168909604,-115.92687246448321 -74.26286467017228,-117.75699948340456 -73.59299168909268,-120.2569994834046 -74.26286467016897,-122.75699948340552 -76.09299168909031,-124.58712650232928 -78.59299168909035,-125.25699948340888 -81.09299168909128,-124.5871265023326 -82.92311870801504,-122.75699948341125 -83.59299168909463,-120.2569994834112 -82.92311870801835,-117.75699948341028 -81.09299168909702,-115.92687246448652 -78.59299168909698,-115.25699948340693" stroke="#ffa500" stroke-linecap="round" stroke-linejoin="round"/><polyline fill="none" points="-63.646785207449476,-119.67653113859355 -61.146785207448545,-120.34640411966983 -59.316658188524784,-122.17653113859116 -58.64678520744519,-124.6765311385912 -59.31665818852147,-127.17653113859213 -61.14678520744281,-129.0066581575159 -63.64678520744285,-129.6765311385955 -66.14678520744378,-129.0066581575192 -67.97691222636755,-127.17653113859788 -68.64678520744714,-124.67653113859784 -67.97691222637086,-122.1765311385969 -66.14678520744953,-120.34640411967314 -63.64678520744948,-119.67653113859355" stroke="#ffa500" stroke-linecap="round" stroke-linejoin="round"/><polyline fill="none" points="-45.08244443729586,-102.7850623522097 -42.58244443729493,-103.45493533328599 -40.75231741837117,-105.28506235220732 -40.08244443729158,-107.78506235220736 -40.75231741836786,-110.2850623522083 -42.5824444372892,-112.11518937113206 -45.08244443728924,-112.78506235221165 -47.58244443729017,-112.11518937113537 -49.41257145621393,-110.28506235221404 -50.08244443729353,-107.785062352214 -49.41257145621725,-105.28506235221306 -47.58244443729591,-103.4549353332893 -45.08244443729587,-102.7850623522097" stroke="#00f" stroke-linecap="round" stroke-linejoin="round"/><polyline fill="none" points="-18.45653133896367,-6.371779189497282 -15.956531338962739,-7.04165217057356 -14.126404320038972,-8.871779189494895 -13.456531338959374,-11.371779189494937 -14.12640432003565,-13.871779189495872 -15.956531338956985,-15.701906208419638 -18.456531338957028,-16.371779189499236 -20.956531338957962,-15.70190620842296 -22.78665835788173,-13.871779189501625 -23.45653133896133,-11.371779189501583 -22.786658357885056,-8.871779189500648 -20.95653133896372,-7.041652170576881 -18.45653133896368,-6.371779189497281" stroke="#00f" stroke-linecap="round" stroke-linejoin="round"/><polyline fill="none" points="-42.99751614143646,-141.5474073472977 -40.497516141435526,-142.217280328374 -38.66738912251176,-144.04740734729532 -37.99751614143216,-146.54740734729538 -38.66738912250843,-149.0474073472963 -40.49751614142976,-150.8775343662201 -42.997516141429806,-151.5474073472997 -45.497516141430744,-150.87753436622341 -47.32764316035451,-149.04740734730208 -47.99751614143411,-146.54740734730203 -47.32764316035784,-144.0474073473011 -45.497516141436506,-142.2172803283773 -42.99751614143646,-141.5474073472977" stroke="#ffa500" stroke-linecap="round" stroke-linejoin="round"/><polyline fill="none" points="-18.574359699231234,-25.9420322516702 -16.0743596992303,-26.611905232746473 -14.24423268030653,-28.442032251667804 -13.574359699226926,-30.942032251667847 -14.244232680303199,-33.442032251668785 -16.07435969922453,-35.27215927059255 -18.574359699224573,-35.94203225167216 -21.07435969922551,-35.272159270595886 -22.904486718149283,-33.442032251674554 -23.57435969922889,-30.94203225167451 -22.90448671815262,-28.442032251673574 -21.074359699231287,-26.611905232749802 -18.574359699231245,-25.942032251670195" stroke="#008000" stroke-linecap="round" stroke-linejoin="round"/><polyline fill="none" points="-33.43643525138628,-166.02042629648918 -30.93643525138534,-166.69029927756546 -29.106308232461565,-168.5204262964868 -28.43643525138196,-171.02042629648685 -29.10630823245823,-173.52042629648778 -30.93643525137956,-175.35055331541156 -33.436435251379606,-176.02042629649117 -35.936435251380544,-175.35055331541488 -37.76656227030432,-173.52042629649355 -38.43643525138393,-171.0204262964935 -37.76656227030766,-168.52042629649256 -35.93643525138633,-166.69029927756878 -33.436435251386285,-166.02042629648918" stroke="#ffa500" stroke-linecap="round" stroke-linejoin="round"/><polyline fill="none" points="14.251881851797638,-177.84933304386428 16.75188185179858,-178.51920602494056 18.582008870722355,-180.3493330438619 19.251881851801965,-182.84933304386195 18.582008870725698,-185.34933304386288 16.751881851804367,-187.17946006278666 14.251881851804322,-187.84933304386627 11.75188185180338,-187.17946006279 9.921754832879602,-185.34933304386868 9.25188185179999,-182.84933304386863 9.921754832876255,-180.3493330438677 11.751881851797584,-178.5192060249439 14.251881851797629,-177.8493330438643" stroke="#ffa500" stroke-linecap="round" stroke-linejoin="round"/></svg>