<?xml version="1.0" ?><!DOCTYPE svg  PUBLIC '-//W3C//DTD SVG 1.1//EN'  'http://www.w3.org/Graphics/SVG/1.1/DTD/svg11.dtd'><svg height="333.000" viewBox="-200.000 -165.000 372.000 333.000" width="372.000" xmlns="http://www.w3.org/2000/svg"><line fill="none" stroke="none" stroke-linecap="round" stroke-width="2.0" x1="0.0" x2="0.0" y1="0.0" y2="0.0"/><polygon fill="none" fill-rule="evenodd" points="0.0,0.0 0.0,0.0 0.0,0.0" stroke-linejoin="round"/><polyline fill="none" points="34.20404141913705,4.1554663670459195 36.704041419144964,3.485593385981288 38.5341684380806,1.6554663670665477 39.20404141917377,-0.8445336329337183 38.53416843810914,-3.3445336329416326 36.704041419194404,-5.174660651877268 34.20404141919414,-5.8445336329704425 31.704041419186225,-5.174660651905812 29.87391440025059,-3.344533632991073 29.204041419157416,-0.8445336329908075 29.873914400222045,1.6554663670171066 31.704041419136782,3.4855933859527424 34.20404141913705,4.155466367045919" stroke="#ffa500" stroke-linecap="round" stroke-linejoin="round"/><polyline fill="none" points="44.65427025117661,20.084945825034865 47.15427025118453,19.415072843970236 48.98439727012016,17.5849458250555 49.65427025121334,15.084945825055232 48.98439727014871,12.584945825047317 47.154270251233974,10.754818806111679 44.65427025123371,10.084945825018501 42.154270251225796,10.75481880608313 40.324143232290155,12.584945824997867 39.65427025119698,15.084945824998133 40.324143232261605,17.58494582500605 42.15427025117634,19.415072843941687 44.654270251176605,20.084945825034865" stroke="#ffa500" stroke-linecap="round" stroke-linejoin="round"/><polyline fill="none" points="18.922128501353306,-35.20978582821289 21.42212850136122,-35.879658809277515 23.25225552029686,-37.70978582819225 23.92212850139004,-40.209785828192516 23.252255520325416,-42.70978582820043 21.42212850141068,-44.53991284713607 18.922128501410413,-45.20978582822925 16.422128501402497,-44.53991284716462 14.592001482466856,-42.709785828249885 13.922128501373674,-40.20978582824962 14.592001482438299,-37.709785828241706 16.422128501353036,-35.879658809306065 18.922128501353303,-35.20978582821288" stroke="#ffa500" stroke-linecap="round" stroke-linejoin="round"/><polyline fill="none" points="-80.51418748057156,-40.41438208134121 -78.01418748056365,-41.08425506240583 -76.18406046162801,-42.91438208132057 -75.51418748053483,-45.41438208132083 -76.18406046159946,-47.914382081328746 -78.0141874805142,-49.74450910026439 -80.51418748051447,-50.41438208135757 -83.01418748052238,-49.74450910029295 -84.84431449945802,-47.914382081378214 -85.5141874805512,-45.41438208137795 -84.84431449948657,-42.914382081370036 -83.01418748057183,-41.084255062434394 -80.51418748057156,-40.41438208134121" stroke="#ffa500" stroke-linecap="round" stroke-linejoin="round"/><polyline fill="none" points="-77.56313206126879,40.137161705697366 -75.06313206126087,39.467288724632745 -73.23300504232523,37.63716170571801 -72.56313206123204,35.137161705717745 -73.23300504229665,32.63716170570982 -75.06313206121139,30.807034686774177 -77.56313206121166,30.13716170568099 -80.06313206121958,30.807034686745613 -81.89325908015522,32.63716170566035 -82.56313206124841,35.13716170566061 -81.8932590801838,37.63716170566853 -80.06313206126906,39.46728872460418 -77.56313206126879,40.137161705697366" stroke="#00f" stroke-linecap="round" stroke-linejoin="round"/><polyline fill="none" points="-157.08204860178066,-35.90707063109037 -154.58204860177273,-36.57694361215499 -152.75192158283707,-38.40707063106972 -152.08204860174388,-40.907070631069985 -152.7519215828085,-43.40707063107791 -154.58204860172324,-45.237197650013556 -157.0820486017235,-45.90707063110675 -159.58204860173143,-45.23719765004213 -161.41217562066709,-43.4070706311274 -162.08204860176028,-40.907070631127134 -161.41217562069565,-38.40707063111921 -159.5820486017809,-36.57694361218356 -157.08204860178066,-35.90707063109037" stroke="#00f" stroke-linecap="round" stroke-linejoin="round"/><polyline fill="none" points="150.16259912407816,-80.80938642629437 152.66259912408609,-81.47925940735898 154.49272614302174,-83.30938642627372 155.16259912411493,-85.80938642627399 154.4927261430503,-88.30938642628192 152.66259912413557,-90.13951344521757 150.1625991241353,-90.80938642631077 147.66259912412738,-90.13951344524615 145.83247210519173,-88.30938642633141 145.16259912409853,-85.80938642633114 145.83247210516316,-83.30938642632321 147.6625991240779,-81.47925940738756 150.16259912407816,-80.80938642629437" stroke="#ffa500" stroke-linecap="round" stroke-linejoin="round"/><polyline fill="none" points="64.56900651638938,-144.21170137686386 67.06900651639731,-144.88157435792849 68.89913353533296,-146.71170137684322 69.56900651642616,-149.21170137684348 68.89913353536154,-151.7117013768514 67.06900651644682,-153.54182839578706 64.56900651644655,-154.21170137688026 62.06900651643863,-153.54182839581566 60.23887949750298,-151.71170137690092 59.569006516409786,-149.21170137690066 60.2388794974744,-146.71170137689273 62.06900651638913,-144.88157435795708 64.5690065163894,-144.21170137686389" stroke="#ffa500" stroke-linecap="round" stroke-linejoin="round"/><polyline fill="none" points="-164.94650796301218,-36.6996335908922 -162.44650796300425,-37.36950657195681 -160.6163809440686,-39.19963359087154 -159.9465079629754,-41.699633590871805 -160.61638094404,-44.19963359087973 -162.44650796295474,-46.02976060981538 -164.946507962955,-46.69963359090858 -167.44650796296293,-46.02976060984397 -169.27663498189858,-44.19963359092924 -169.94650796299177,-41.699633590928975 -169.27663498192717,-39.19963359092105 -167.44650796301244,-37.3695065719854 -164.94650796301218,-36.6996335908922" stroke="#00f" stroke-linecap="round" stroke-linejoin="round"/><polyline fill="none" points="-87.35114547368957,88.55271620424719 -84.85114547368164,87.88284322318258 -83.02101845474598,86.05271620426785 -82.35114547365279,83.55271620426758 -83.0210184547174,81.05271620425965 -84.85114547363213,79.222589185324 -87.3511454736324,78.55271620423079 -89.85114547364033,79.2225891852954 -91.68127249257599,81.05271620421013 -92.35114547366919,83.5527162042104 -91.68127249260458,86.05271620421833 -89.85114547368985,87.88284322315398 -87.35114547368958,88.55271620424719" stroke="#00f" stroke-linecap="round" stroke-linejoin="round"/><polyline fill="none" points="139.99661269540172,100.86818833620703 142.49661269540965,100.19831535514241 144.3267397143453,98.36818833622769 144.9966126954385,95.86818833622742 144.3267397143739,93.36818833621949 142.49661269545916,91.53806131728383 139.9966126954589,90.86818833619063 137.49661269545098,91.53806131725523 135.66648567651532,93.36818833616995 134.99661269542213,95.86818833617022 135.66648567648673,98.36818833617815 137.49661269540147,100.1983153551138 139.99661269540172,100.86818833620701" stroke="#ffa500" stroke-linecap="round" stroke-linejoin="round"/><polyline fill="none" points="123.6220949536264,51.211911301064085 126.12209495363433,50.54203831999948 127.95222197256999,48.711911301084754 128.62209495366318,46.21191130108449 127.95222197259858,43.71191130107656 126.12209495368386,41.8817842821409 123.62209495368359,41.21191130104769 121.12209495367566,41.8817842821123 119.29196793474,43.71191130102702 118.6220949536468,46.211911301027286 119.2919679347114,48.711911301035215 121.12209495362612,50.54203831997088 123.62209495362639,51.211911301064085" stroke="#ffa500" stroke-linecap="round" stroke-linejoin="round"/><polyline fill="none" points="120.81262593753225,-95.88925874362793 123.31262593754018,-96.55913172469253 125.14275295647585,-98.38925874360726 125.81262593756905,-100.88925874360753 125.14275295650445,-103.38925874361546 123.31262593758973,-105.21938576255113 120.81262593758946,-105.88925874364433 118.31262593758153,-105.21938576257973 116.48249891864586,-103.38925874366501 115.81262593755265,-100.88925874366474 116.48249891861725,-98.38925874365681 118.31262593753198,-96.55913172472114 120.81262593753225,-95.88925874362793" stroke="#ffa500" stroke-linecap="round" stroke-linejoin="round"/><polyline fill="none" points="-36.45027407441023,-21.637222847128147 -33.9502740744023,-22.307095828192747 -32.12014705546664,-24.13722284710747 -31.45027407437343,-26.637222847107736 -32.120147055438025,-29.13722284711567 -33.95027407435275,-30.967349866051336 -36.45027407435301,-31.637222847144546 -38.95027407436094,-30.967349866079946 -40.78040109329661,-29.137222847165226 -41.450274074389824,-26.63722284716496 -40.780401093325224,-24.137222847157027 -38.9502740744105,-22.30709582822136 -36.45027407441024,-21.637222847128147" stroke="#00f" stroke-linecap="round" stroke-linejoin="round"/><polyline fill="none" points="-11.00936070696287,151.37838011142844 -8.509360706954936,150.70850713036384 -6.679233688019268,148.87838011144913 -6.0093607069260555,146.37838011144888 -6.679233687990653,143.87838011144095 -8.509360706905372,142.0482530925053 -11.009360706905639,141.37838011141207 -13.509360706913572,142.04825309247667 -15.33948772584924,143.87838011139138 -16.009360706942456,146.37838011139164 -15.33948772587786,148.87838011139957 -13.50936070696314,150.70850713033522 -11.009360706962873,151.37838011142844" stroke="#ffa500" stroke-linecap="round" stroke-linejoin="round"/><polyline fill="none" points="90.70750764042843,-110.6408927401387 93.20750764043636,-111.3107657212033 95.03763465937203,-113.14089274011802 95.70750764046525,-115.64089274011829 95.03763465940065,-118.14089274012622 93.20750764048593,-119.97101975906189 90.70750764048566,-120.64089274015511 88.20750764047773,-119.97101975909051 86.37738062154206,-118.14089274017579 85.70750764044884,-115.64089274017552 86.37738062151344,-113.14089274016759 88.20750764042816,-111.31076572123192 90.70750764042843,-110.6408927401387" stroke="#ffa500" stroke-linecap="round" stroke-linejoin="round"/><polyline fill="none" points="-105.0548054032158,15.56515763585713 -102.55480540320787,14.895284654792537 -100.7246783842722,13.065157635877819 -100.05480540317897,10.565157635877554 -100.72467838424356,8.06515763586962 -102.55480540315828,6.235030616933947 -105.05480540315855,5.565157635840728 -107.55480540316648,6.23503061690532 -109.38493242210215,8.065157635820036 -110.05480540319537,10.565157635820302 -109.38493242213079,13.065157635828239 -107.55480540321606,14.895284654763913 -105.0548054032158,15.565157635857133" stroke="#008000" stroke-linecap="round" stroke-linejoin="round"/><polyline fill="none" points="97.98277372968694,-54.613686056310165 100.48277372969488,-55.28355903737476 102.31290074863055,-57.113686056289474 102.98277372972377,-59.61368605628974 102.31290074865919,-62.113686056297674 100.48277372974448,-63.94381307523335 97.98277372974421,-64.61368605632657 95.48277372973627,-63.94381307526198 93.6526467108006,-62.11368605634726 92.98277372970738,-59.613686056347 93.65264671077196,-57.11368605633906 95.48277372968667,-55.283559037403386 97.98277372968694,-54.613686056310165" stroke="#ffa500" stroke-linecap="round" stroke-linejoin="round"/><polyline fill="none" points="-110.63686246993585,-32.53198976083947 -108.1368624699279,-33.20186274190406 -106.30673545099222,-35.031989760818774 -105.636862469899,-37.53198976081904 -106.30673545096359,-40.031989760826974 -108.1368624698783,-41.86211677976265 -110.63686246987857,-42.53198976085587 -113.13686246988651,-41.862116779791286 -114.9669894888222,-40.03198976087657 -115.63686246991541,-37.53198976087631 -114.96698948885083,-35.03198976086837 -113.13686246993612,-33.20186274193269 -110.63686246993585,-32.531989760839465" stroke="#00f" stroke-linecap="round" stroke-linejoin="round"/><polyline fill="none" points="63.94354532270047,-120.54120989346005 66.44354532270842,-121.21108287452464 68.2736723416441,-123.04120989343934 68.94354532273732,-125.54120989343961 68.27367234167274,-128.04120989344756 66.44354532275803,-129.87133691238324 63.943545322757764,-130.54120989347646 61.44354532274983,-129.8713369124119 59.61341830381415,-128.04120989349718 58.94354532272092,-125.54120989349691 59.61341830378551,-123.04120989348897 61.443545322700224,-121.21108287455328 63.94354532270049,-120.54120989346005" stroke="#00f" stroke-linecap="round" stroke-linejoin="round"/><polyline fill="none" points="151.5009308388846,-32.0295025665797 154.00093083889254,-32.69937554764429 155.83105785782823,-34.529502566558996 156.50093083892145,-37.02950256655926 155.83105785785688,-39.5295025665672 154.00093083894217,-41.35962958550289 151.5009308389419,-42.029502566596115 149.00093083893398,-41.35962958553153 147.1708038199983,-39.52950256661682 146.50093083890508,-37.02950256661656 147.17080381996965,-34.52950256660861 149.00093083888436,-32.69937554767293 151.5009308388846,-32.0295025665797" stroke="#ffa500" stroke-linecap="round" stroke-linejoin="round"/><polyline fill="none" points="23.512428563553406,14.705961212190651 26.01242856356135,14.036088231126069 27.842555582497035,12.205961212211358 28.512428563590266,9.705961212211093 27.842555582525684,7.205961212203151 26.012428563610975,5.375834193267467 23.512428563610708,4.705961212174235 21.012428563602764,5.375834193238815 19.18230154466708,7.205961212153525 18.51242856357385,9.705961212153792 19.182301544638428,12.205961212161736 21.012428563553136,14.036088231097422 23.512428563553403,14.705961212190655" stroke="#ffa500" stroke-linecap="round" stroke-linejoin="round"/><polyline fill="none" points="88.38463697643901,-94.86311853989598 90.88463697644696,-95.53299152096056 92.71476399538264,-97.36311853987527 93.38463697647587,-99.86311853987554 92.7147639954113,-102.36311853988349 90.8846369764966,-104.19324555881917 88.38463697649632,-104.8631185399124 85.88463697648838,-104.19324555884783 84.0545099575527,-102.36311853993313 83.38463697645946,-99.86311853993286 84.05450995752403,-97.36311853992491 85.88463697643874,-95.53299152098923 88.38463697643901,-94.86311853989599" stroke="#ffa500" stroke-linecap="round" stroke-linejoin="round"/><polyline fill="none" points="-31.5993141847913,60.30377994810564 -29.099314184783356,59.633906967041064 -27.26918716584767,57.803779948126355 -26.59931418475443,55.30377994812609 -27.269187165819005,52.80377994811815 -29.099314184733714,50.97365292918246 -31.59931418473398,50.30377994808922 -34.09931418474193,50.9736529291538 -35.92944120367762,52.80377994806851 -36.59931418477086,55.30377994806877 -35.92944120370629,57.803779948076716 -34.09931418479158,59.63390696701241 -31.599314184791314,60.30377994810565" stroke="#00f" stroke-linecap="round" stroke-linejoin="round"/><polyline fill="none" points="87.20114039903255,-33.828692132005116 89.7011403990405,-34.49856511306969 91.53126741797618,-36.3286921319844 92.20114039906942,-38.82869213198466 91.53126741800484,-41.328692131992604 89.70114039909014,-43.158819150928295 87.20114039908987,-43.82869213202154 84.70114039908192,-43.158819150956965 82.87101338014622,-41.328692132042256 82.20114039905299,-38.82869213204199 82.87101338011756,-36.32869213203405 84.70114039903227,-34.49856511309836 87.20114039903254,-33.828692132005116" stroke="#00f" stroke-linecap="round" stroke-linejoin="round"/><polyline fill="none" points="136.9825182383449,-65.02783848600161 139.48251823835287,-65.69771146706618 141.31264525728855,-67.5278384859809 141.9825182383818,-70.02783848598116 141.31264525731723,-72.52783848598911 139.48251823840252,-74.3579655049248 136.98251823840226,-75.02783848601806 134.4825182383943,-74.35796550495348 132.65239121945862,-72.52783848603877 131.98251823836537,-70.0278384860385 132.65239121942994,-67.52783848603056 134.48251823834465,-65.69771146709486 136.9825182383449,-65.02783848600161" stroke="#00f" stroke-linecap="round" stroke-linejoin="round"/><polyline fill="none" points="83.0260280313344,69.29638395732536 85.52602803134235,68.62651097626079 87.35615505027805,66.79638395734608 88.0260280313713,64.29638395734581 87.35615505030673,61.79638395733786 85.52602803139202,59.96625693840216 83.02602803139175,59.29638395730891 80.5260280313838,59.96625693837348 78.6959010124481,61.796383957288185 78.02602803135485,64.29638395728846 78.69590101241943,66.7963839572964 80.52602803133414,68.6265109762321 83.0260280313344,69.29638395732535" stroke="#ffa500" stroke-linecap="round" stroke-linejoin="round"/><polyline fill="none" points="120.65677872894501,36.5619727934695 123.15677872895296,35.892099812404936 124.98690574788866,34.061972793490234 125.6567787289819,31.561972793489968 124.98690574791733,29.061972793482017 123.15677872900262,27.23184577454632 120.65677872900235,26.56197279345307 118.1567787289944,27.231845774517637 116.3266517100587,29.06197279343234 115.65677872896545,31.561972793432606 116.32665171003002,34.06197279344056 118.15677872894472,35.89209981237626 120.65677872894499,36.56197279346951" stroke="#ffa500" stroke-linecap="round" stroke-linejoin="round"/><polyline fill="none" points="36.37568662975994,-65.10440412559242 38.87568662976789,-65.774277106657 40.70581364870359,-67.60440412557169 41.37568662979684,-70.10440412557196 40.705813648732274,-72.60440412557992 38.87568662981757,-74.43453114451562 36.37568662981731,-75.10440412560887 33.87568662980936,-74.43453114454431 32.04555961087366,-72.60440412562961 31.375686629780407,-70.10440412562934 32.04555961084497,-67.60440412562139 33.87568662975967,-65.77427710668569 36.37568662975993,-65.10440412559244" stroke="#ffa500" stroke-linecap="round" stroke-linejoin="round"/><polyline fill="none" points="24.827397510998395,-5.7761619368703325 27.32739751100635,-6.446034917934895 29.15752452994205,-8.276161936849595 29.827397511035304,-10.77616193684986 29.157524529970743,-13.276161936857813 27.32739751105604,-15.106288955793516 24.827397511055775,-15.776161936886771 22.32739751104782,-15.106288955822208 20.497270492112115,-13.276161936907508 19.827397511018862,-10.776161936907243 20.497270492083423,-8.276161936899289 22.32739751099812,-6.446034917963584 24.827397510998388,-5.776161936870329" stroke="#ffa500" stroke-linecap="round" stroke-linejoin="round"/><polyline fill="none" points="-101.81352154004831,51.742072154509565 -99.31352154004036,51.07219917344501 -97.48339452110466,49.242072154530305 -96.81352154001141,46.74207215453004 -97.48339452107597,44.24207215452209 -99.31352153999066,42.411945135586386 -101.81352153999093,41.74207215449313 -104.31352153999889,42.41194513555769 -106.1436485589346,44.24207215447238 -106.81352154002786,46.742072154472645 -106.1436485589633,49.2420721544806 -104.31352154004861,51.07219917341631 -101.81352154004834,51.742072154509565" stroke="#ffa500" stroke-linecap="round" stroke-linejoin="round"/><polyline fill="none" points="37.19958314107469,-52.47116305116395 39.69958314108265,-53.141036032228506 41.529710160018354,-54.9711630511432 42.19958314111161,-57.47116305114346 41.52971016004705,-59.97116305115142 39.69958314113236,-61.80129007008713 37.199583141132095,-62.47116305118038 34.69958314112414,-61.801290070115826 32.86945612218843,-59.97116305120113 32.19958314109517,-57.47116305120087 32.869456122159725,-54.97116305119291 34.69958314107442,-53.1410360322572 37.19958314107468,-52.471163051163934" stroke="#00f" stroke-linecap="round" stroke-linejoin="round"/><polyline fill="none" points="-143.406214691294,-13.244191913585436 -140.90621469128604,-13.914064894649991 -139.07608767235033,-15.744191913564688 -138.40621469125708,-18.244191913564954 -139.07608767232162,-20.744191913572912 -140.90621469123633,-22.57431893250862 -143.40621469123658,-23.244191913601885 -145.90621469124454,-22.57431893253733 -147.73634171018026,-20.744191913622636 -148.4062146912735,-18.24419191362237 -147.73634171020896,-15.744191913614412 -145.90621469129425,-13.914064894678699 -143.406214691294,-13.244191913585436" stroke="#ffa500" stroke-linecap="round" stroke-linejoin="round"/><polyline fill="none" points="-159.14143155107425,63.39803586867181 -156.6414315510663,62.72816288760726 -154.81130453213058,60.89803586869257 -154.1414315510373,58.398035868692304 -154.81130453210184,55.898035868684346 -156.64143155101652,54.06790884974863 -159.14143155101678,53.39803586865537 -161.64143155102474,54.06790884971992 -163.47155856996045,55.898035868634615 -164.14143155105373,58.39803586863488 -163.47155856998918,60.898035868642836 -161.6414315510745,62.72816288757855 -159.14143155107425,63.39803586867181" stroke="#ffa500" stroke-linecap="round" stroke-linejoin="round"/><polyline fill="none" points="154.84107880056462,95.5697612418846 157.34107880057257,94.89988826082005 159.1712058195083,93.06976124190535 159.84107880060157,90.56976124190508 159.17120581953702,88.06976124189713 157.34107880062234,86.23963422296141 154.84107880062209,85.56976124186815 152.34107880061413,86.2396342229327 150.51095178167841,88.06976124184739 149.84107880058514,90.56976124184766 150.51095178164968,93.06976124185562 152.34107880056436,94.89988826079133 154.84107880056462,95.56976124188459" stroke="#ffa500" stroke-linecap="round" stroke-linejoin="round"/><polyline fill="none" points="-115.5246898248968,39.50639026260437 -113.02468982488884,38.83651728153982 -111.19456280595313,37.006390262625125 -110.52468982485986,34.50639026262486 -111.1945628059244,32.0063902626169 -113.0246898248391,30.176263243681177 -115.52468982483937,29.506390262587907 -118.02468982484733,30.176263243652453 -119.85481684378304,32.006390262567145 -120.52468982487632,34.50639026256741 -119.85481684381178,37.00639026257537 -118.02468982489708,38.83651728151109 -115.52468982489681,39.50639026260436" stroke="#f00" stroke-linecap="round" stroke-linejoin="round"/><polyline fill="none" points="47.969438371748,-97.30995790427178 50.46943837175596,-97.97983088533633 52.29956539069168,-99.80995790425102 52.96943837178495,-102.30995790425129 52.29956539072041,-104.80995790425925 50.46943837180572,-106.64008492319496 47.96943837180546,-107.30995790428824 45.469438371797494,-106.6400849232237 43.639311352861775,-104.809957904309 42.9694383717685,-102.30995790430873 43.63931135283304,-99.80995790430077 45.46943837174773,-97.97983088536505 47.96943837174799,-97.30995790427177" stroke="#ffa500" stroke-linecap="round" stroke-linejoin="round"/><polyline fill="none" points="132.29585065340663,-62.965496940961174 134.7958506534146,-63.63536992202572 136.6259776723503,-65.46549694094041 137.29585065344358,-67.96549694094068 136.62597767237904,-70.46549694094864 134.79585065346436,-72.29562395988437 132.2958506534641,-72.96549694097764 129.79585065345614,-72.2956239599131 127.96572363452042,-70.4654969409984 127.29585065342714,-67.96549694099814 127.96572363449168,-65.46549694099016 129.79585065340638,-63.63536992205444 132.29585065340663,-62.96549694096116" stroke="#ffa500" stroke-linecap="round" stroke-linejoin="round"/><polyline fill="none" points="151.30520499824823,-39.66114864368065 153.8052049982562,-40.33102162474519 155.6353320171919,-42.16114864365988 156.30520499828518,-44.66114864366014 155.63533201722063,-47.161148643668106 153.80520499830595,-48.99127566260383 151.3052049983057,-49.66114864369711 148.80520499829774,-48.99127566263257 146.97507797936203,-47.16114864371788 146.30520499826875,-44.66114864371762 146.9750779793333,-42.16114864370965 148.80520499824797,-40.331021624773925 151.30520499824823,-39.66114864368065" stroke="#ffa500" stroke-linecap="round" stroke-linejoin="round"/><polyline fill="none" points="-109.03737383605994,38.4624946640412 -106.53737383605197,37.792621682976666 -104.70724681711624,35.96249466406198 -104.03737383602297,33.462494664061715 -104.70724681708751,30.962494664053747 -106.53737383600219,29.13236764511802 -109.03737383600246,28.46249466402474 -111.53737383601043,29.132367645089275 -113.36750085494616,30.96249466400396 -114.03737383603944,33.462494664004225 -113.36750085497489,35.96249466401219 -111.53737383606021,37.79262168294792 -109.03737383605994,38.4624946640412" stroke="#00f" stroke-linecap="round" stroke-linejoin="round"/><polyline fill="none" points="119.29538810378416,-90.22480251345847 121.79538810379213,-90.89467549452301 123.62551512272786,-92.7248025134377 124.29538810382114,-95.22480251343796 123.62551512275661,-97.72480251344594 121.79538810384193,-99.55492953238166 119.29538810384166,-100.22480251347496 116.79538810383369,-99.55492953241043 114.96526108489796,-97.72480251349575 114.29538810380467,-95.22480251349548 114.9652610848692,-92.7248025134875 116.79538810378388,-90.89467549455178 119.29538810378415,-90.22480251345849" stroke="#ffa500" stroke-linecap="round" stroke-linejoin="round"/><polyline fill="none" points="114.48611620795899,6.53322203237955 116.98611620796696,5.863349051315016 118.81624322690269,4.0332220324003325 119.48611620799598,1.533222032400067 118.81624322693145,-0.9667779676079031 116.98611620801677,-2.7969049865436353 114.4861162080165,-3.4667779676369226 111.98611620800853,-2.7969049865723896 110.1559891890728,-0.9667779676577068 109.4861162079795,1.5332220323425587 110.15598918904404,4.03322203235053 111.98611620795872,5.863349051286263 114.48611620795899,6.533222032379551" stroke="#ffa500" stroke-linecap="round" stroke-linejoin="round"/><polyline fill="none" points="137.04621560021454,85.58701343193916 139.5462156002225,84.91714045087463 141.37634261915824,83.08701343195995 142.04621560025151,80.58701343195968 141.37634261918697,78.0870134319517 139.5462156002723,76.25688641301596 137.04621560027203,75.58701343192267 134.54621560026408,76.2568864129872 132.71608858132834,78.08701343190188 132.04621560023506,80.58701343190215 132.7160885812996,83.08701343191012 134.54621560021428,84.91714045084586 137.04621560021454,85.58701343193916" stroke="#ffa500" stroke-linecap="round" stroke-linejoin="round"/><polyline fill="none" points="23.349037149126623,153.4070047682929 25.849037149134595,152.73713178722835 27.679164168070333,150.90700476831367 28.349037149163625,148.4070047683134 27.679164168099096,145.90700476830546 25.849037149184415,144.07687774936971 23.34903714918415,143.4070047682764 20.849037149176176,144.07687774934092 19.01891013024044,145.9070047682556 18.349037149147147,148.40700476825586 19.018910130211676,150.90700476826385 20.849037149126357,152.7371317871996 23.349037149126623,153.4070047682929" stroke="#ffa500" stroke-linecap="round" stroke-linejoin="round"/><polyline fill="none" points="-97.01964076425647,-18.723940636171225 -94.51964076424849,-19.39381361723575 -92.68951374531275,-21.22394063615043 -92.01964076421946,-23.723940636150697 -92.68951374528399,-26.223940636158673 -94.51964076419867,-28.054067655094414 -97.01964076419894,-28.72394063618771 -99.51964076420691,-28.054067655123184 -101.34976778314265,-26.223940636208507 -102.01964076423594,-23.72394063620824 -101.34976778317142,-21.223940636200265 -99.51964076425674,-19.393813617264524 -97.01964076425647,-18.72394063617123" stroke="#00f" stroke-linecap="round" stroke-linejoin="round"/><polyline fill="none" points="-170.8062493494772,55.5589378044519 -168.30624934946923,54.88906482338738 -166.47612233053349,53.0589378044727 -165.80624934944018,50.558937804472436 -166.4761223305047,48.05893780446446 -168.30624934941937,46.22881078552872 -170.80624934941963,45.55893780443542 -173.30624934942762,46.228810785499945 -175.13637636836336,48.058937804414626 -175.80624934945666,50.55893780441489 -175.13637636839215,53.05893780442287 -173.30624934947747,54.88906482335861 -170.8062493494772,55.55893780445191" stroke="#00f" stroke-linecap="round" stroke-linejoin="round"/><polyline fill="none" points="119.13482520595996,134.93530473354878 121.63482520596793,134.26543175248426 123.46495222490367,132.43530473356958 124.13482520599698,129.93530473356932 123.46495222493246,127.43530473356135 121.63482520601778,125.60517771462561 119.13482520601751,124.9353047335323 116.63482520600954,125.60517771459682 114.8046981870738,127.4353047335115 114.13482520598049,129.93530473351177 114.804698187045,132.43530473351976 116.63482520595969,134.2654317524555 119.13482520595996,134.9353047335488" stroke="#ffa500" stroke-linecap="round" stroke-linejoin="round"/><polyline fill="none" points="-59.45162393359264,100.43398044971605 -56.95162393358466,99.76410746865153 -55.121496914648915,97.93398044973685 -54.45162393355561,95.43398044973658 -55.12149691462013,92.93398044972861 -56.951623933534805,91.10385343079287 -59.45162393353507,90.43398044969956 -61.95162393354305,91.10385343076408 -63.781750952478795,92.93398044967876 -64.4516239335721,95.43398044967903 -63.78175095250758,97.933980449687 -61.951623933592906,99.76410746862274 -59.45162393359264,100.43398044971605" stroke="#ffa500" stroke-linecap="round" stroke-linejoin="round"/><polyline fill="none" points="-80.37214698295551,-3.032218920074518 -77.87214698294754,-3.7020919011390356 -76.0420199640118,-5.532218920053709 -75.3721469829185,-8.032218920053975 -76.04201996398301,-10.532218920061954 -77.87214698289768,-12.362345938997702 -80.37214698289795,-13.032218920091008 -82.87214698290592,-12.362345939026492 -84.70227400184167,-10.532218920111818 -85.37214698293498,-8.032218920111553 -84.70227400187046,-5.532218920103574 -82.8721469829558,-3.702091901167824 -80.37214698295553,-3.0322189200745164" stroke="#00f" stroke-linecap="round" stroke-linejoin="round"/><polyline fill="none" points="102.47583994292094,-12.054390243830824 104.97583994292893,-12.724263224895338 106.80596696186468,-14.554390243810012 107.47583994295799,-17.05439024381028 106.80596696189347,-19.554390243818258 104.97583994297881,-21.38451726275401 102.47583994297854,-22.05439024384732 99.97583994297055,-21.384517262782804 98.1457129240348,-19.55439024386813 97.47583994294149,-17.054390243867864 98.145712924006,-14.554390243859883 99.97583994292067,-12.724263224924131 102.47583994292094,-12.054390243830822" stroke="#ffa500" stroke-linecap="round" stroke-linejoin="round"/><polyline fill="none" points="61.46799594429189,23.720226870779705 63.96799594429987,23.050353889715193 65.79812296323563,21.220226870800523 66.46799594432893,18.720226870800257 65.79812296326442,16.220226870792274 63.967995944349745,14.39009985185652 61.46799594434948,13.72022687076321 58.9679959443415,14.39009985182772 57.13786892540575,16.22022687074239 56.467995944312435,18.720226870742657 57.13786892537694,21.22022687075064 58.967995944291616,23.050353889686395 61.46799594429188,23.720226870779708" stroke="#00f" stroke-linecap="round" stroke-linejoin="round"/><polyline fill="none" points="61.85492038244251,106.02482101539016 64.35492038245049,105.35494803432564 66.18504740138624,103.52482101541098 66.85492038247956,101.02482101541071 66.18504740141505,98.52482101540272 64.35492038250038,96.69469399646697 61.85492038250012,96.02482101537365 59.35492038249213,96.69469399643816 57.52479336355638,98.52482101535283 56.854920382463064,101.0248210153531 57.52479336352757,103.52482101536108 59.35492038244224,105.35494803429684 61.8549203824425,106.02482101539016" stroke="#ffa500" stroke-linecap="round" stroke-linejoin="round"/><polyline fill="none" points="-62.51458208005177,-31.290718573055003 -60.01458208004378,-31.96059155411951 -58.184455061108025,-33.79071857303418 -57.514582080014705,-36.29071857303444 -58.18445506107921,-38.790718573042426 -60.01458207999388,-40.62084559197818 -62.51458207999414,-41.2907185730715 -65.01458208000213,-40.620845592006994 -66.84470909893788,-38.79071857309233 -67.5145820800312,-36.290718573092065 -66.8447090989667,-33.79071857308408 -65.01458208005204,-31.96059155414832 -62.514582080051774,-31.290718573055" stroke="#ffa500" stroke-linecap="round" stroke-linejoin="round"/><polyline fill="none" points="-34.89494195475245,-39.46389387926757 -32.39494195474446,-40.13376686033208 -30.564814935808702,-41.96389387924675 -29.89494195471538,-44.46389387924701 -30.564814935779886,-46.963893879255 -32.39494195469455,-48.79402089819076 -34.894941954694815,-49.46389387928408 -37.3949419547028,-48.79402089821957 -39.225068973638564,-46.963893879304905 -39.894941954731884,-44.46389387930464 -39.22506897366738,-41.963893879296656 -37.39494195475272,-40.13376686036089 -34.894941954752454,-39.46389387926757" stroke="#ffa500" stroke-linecap="round" stroke-linejoin="round"/><polyline fill="none" points="-42.36932219231583,14.417416044472223 -39.86932219230784,13.74754306340772 -38.03919517337208,11.917416044493054 -37.36932219227876,9.41741604449279 -38.03919517334326,6.917416044484801 -39.869322192257926,5.087289025549038 -42.36932219225819,4.417416044455715 -44.869322192266175,5.087289025520217 -46.69944921120194,6.917416044434882 -47.36932219229526,9.417416044435146 -46.69944921123076,11.917416044443135 -44.86932219231609,13.747543063378899 -42.36932219231583,14.417416044472223" stroke="#ffa500" stroke-linecap="round" stroke-linejoin="round"/><polyline fill="none" points="51.485722396856616,71.80668068684128 53.9857223968646,71.13680770577677 55.815849415800365,69.30668068686211 56.48572239689369,66.80668068686184 55.81584941582919,64.30668068685385 53.985722396914525,62.47655366791809 51.48572239691426,61.80668068682476 48.985722396906276,62.47655366788926 47.15559537797051,64.30668068680393 46.485722396877186,66.8066806868042 47.15559537794169,69.30668068681219 48.98572239685635,71.13680770574796 51.485722396856616,71.80668068684128" stroke="#00f" stroke-linecap="round" stroke-linejoin="round"/><polyline fill="none" points="-44.988976606910605,126.26022060828547 -42.48897660690262,125.59034762722096 -40.65884958796685,123.7602206083063 -39.98897660687352,121.26022060830603 -40.65884958793802,118.76022060829804 -42.48897660685268,116.93009358936227 -44.988976606852944,116.26022060826894 -47.48897660686094,116.93009358933344 -49.31910362579671,118.7602206082481 -49.988976606890034,121.26022060824837 -49.31910362582554,123.76022060825636 -47.48897660691088,125.59034762719213 -44.98897660691062,126.26022060828547" stroke="#ffa500" stroke-linecap="round" stroke-linejoin="round"/><polyline fill="none" points="-78.82837989185742,43.26150260442171 -76.32837989184944,42.591629623357214 -74.49825287291367,40.761502604442555 -73.82837989182033,38.26150260444229 -74.49825287288483,35.7615026044343 -76.3283798917995,33.93137558549853 -78.82837989179977,33.261502604405194 -81.32837989180776,33.93137558546969 -83.15850691074353,35.76150260438435 -83.82837989183686,38.26150260438461 -83.15850691077236,40.761502604392604 -81.3283798918577,42.59162962332837 -78.82837989185742,43.26150260442171" stroke="#00f" stroke-linecap="round" stroke-linejoin="round"/><polyline fill="none" points="-150.18063398466794,79.30538574348407 -147.68063398465995,78.63551276241958 -145.85050696572418,76.80538574350491 -145.18063398463084,74.30538574350464 -145.85050696569533,71.80538574349666 -147.68063398460998,69.97525872456089 -150.18063398461024,69.30538574346755 -152.68063398461823,69.97525872453204 -154.510761003554,71.80538574344669 -155.18063398464733,74.30538574344696 -154.51076100358284,76.80538574345496 -152.6806339846682,78.63551276239073 -150.18063398466794,79.30538574348407" stroke="#ffa500" stroke-linecap="round" stroke-linejoin="round"/><polyline fill="none" points="25.43849589129049,5.546941598139744 27.938495891298484,4.877068617075253 29.768622910234257,3.0469415981605943 30.43849589132759,0.5469415981603287 29.7686229102631,-1.9530584018476658 27.938495891348442,-3.783185420783441 25.438495891348175,-4.453058401876778 22.93849589134018,-3.7831854208122877 21.108368872404405,-1.9530584018976298 20.438495891311067,0.5469415981026358 21.108368872375557,3.046941598110631 22.938495891290216,4.877068617046407 25.438495891290483,5.546941598139745" stroke="#ffa500" stroke-linecap="round" stroke-linejoin="round"/><polyline fill="none" points="-101.25990156808943,25.71104171131959 -98.75990156808143,25.0411687302551 -96.92977454914565,23.211041711340442 -96.25990156805231,20.711041711340176 -96.9297745491168,18.21104171133218 -98.75990156803145,16.380914692396402 -101.25990156803172,15.711041711303062 -103.75990156803972,16.38091469236755 -105.5900285869755,18.211041711282206 -106.25990156806884,20.711041711282473 -105.59002858700435,23.21104171129047 -103.7599015680897,25.04116873022625 -101.25990156808943,25.71104171131959" stroke="#008000" stroke-linecap="round" stroke-linejoin="round"/><polyline fill="none" points="-97.79461223137278,-7.838778603050416 -95.29461223136478,-8.508651584114903 -93.464485212429,-10.338778603029558 -92.79461223133566,-12.838778603029823 -93.46448521240015,-15.33877860303782 -95.2946122313148,-17.1689056219736 -97.79461223131507,-17.83877860306694 -100.29461223132307,-17.168905622002455 -102.12473925025886,-15.3387786030878 -102.7946122313522,-12.838778603087533 -102.12473925028772,-10.338778603079536 -100.29461223137307,-8.508651584143756 -97.7946122313728,-7.838778603050413" stroke="#00f" stroke-linecap="round" stroke-linejoin="round"/><polyline fill="none" points="1.201332184441437,134.15445381426068 3.7013321844494356,133.4845808331962 5.531459203385217,131.65445381428154 6.201332184478561,129.15445381428128 5.5314592034140775,126.65445381427328 3.701332184499423,124.8243267953375 1.2013321844991576,124.15445381424415 -1.2986678155088414,124.82432679530864 -3.128794834444624,126.65445381422329 -3.7986678155379696,129.15445381422356 -3.128794834473487,131.65445381423154 -1.2986678155588331,133.4845808331673 1.2013321844414324,134.15445381426065" stroke="#00f" stroke-linecap="round" stroke-linejoin="round"/><polyline fill="none" points="-127.17740676111434,47.08026807705811 -124.67740676110634,46.41039509599363 -122.84727974217056,44.580268077078976 -122.17740676107721,42.08026807707871 -122.8472797421417,39.58026807707071 -124.67740676105635,37.75014105813493 -127.17740676105662,37.08026807704158 -129.67740676106462,37.75014105810606 -131.50753378000041,39.58026807702071 -132.17740676109375,42.080268077020975 -131.50753378002926,44.580268077028975 -129.6774067611146,46.41039509596476 -127.17740676111434,47.08026807705811" stroke="#00f" stroke-linecap="round" stroke-linejoin="round"/><polyline fill="none" points="60.86683676517451,98.72937181525916 63.36683676518251,98.05949883419467 65.1969637841183,96.22937181528002 65.86683676521164,93.72937181527975 65.19696378414717,91.22937181527175 63.36683676523252,89.39924479633596 60.86683676523226,88.72937181524262 58.36683676522426,89.39924479630709 56.536709746288466,91.22937181522174 55.86683676519512,93.72937181522201 56.536709746259596,96.22937181523001 58.36683676517425,98.0594988341658 60.86683676517451,98.72937181525914" stroke="#ffa500" stroke-linecap="round" stroke-linejoin="round"/><polyline fill="none" points="-88.91389057032212,94.89759704500132 -86.41389057031412,94.22772406393685 -84.58376355137834,92.3975970450222 -83.91389057028499,89.89759704502193 -84.58376355134946,87.39759704501392 -86.41389057026412,85.56747002607814 -88.91389057026439,84.89759704498479 -91.41389057027239,85.56747002604926 -93.24401758920817,87.39759704496392 -93.91389057030152,89.89759704496419 -93.24401758923705,92.39759704497219 -91.4138905703224,94.22772406390797 -88.91389057032212,94.89759704500132" stroke="#ffa500" stroke-linecap="round" stroke-linejoin="round"/><polyline fill="none" points="49.4086301839898,-42.97559765669136 51.9086301839978,-43.645470637755835 53.73875720293359,-45.47559765667049 54.40863018402695,-47.97559765667075 53.738757202962475,-50.47559765667876 51.90863018404782,-52.30572467561455 49.40863018404756,-52.975597656707905 46.90863018403955,-52.30572467564343 45.07850316510376,-50.47559765672878 44.408630184010406,-47.97559765672852 45.07850316507488,-45.47559765672051 46.90863018398952,-43.64547063778472 49.408630183989786,-42.97559765669136" stroke="#ffa500" stroke-linecap="round" stroke-linejoin="round"/><polyline fill="none" points="-66.47741502069348,155.63522116239974 -63.97741502068548,154.96534818133526 -62.147288001749686,153.1352211624206 -61.47741502065633,150.63522116242035 -62.1472880017208,148.13522116241234 -63.97741502063545,146.30509414347654 -66.47741502063572,145.63522116238317 -68.97741502064372,146.30509414344763 -70.80754203957952,148.13522116236228 -71.47741502067288,150.63522116236254 -70.8075420396084,153.13522116237056 -68.97741502069375,154.96534818130635 -66.47741502069348,155.63522116239972" stroke="#ffa500" stroke-linecap="round" stroke-linejoin="round"/><polyline fill="none" points="75.15450872882711,4.794641205446738 77.65450872883511,4.124768224382268 79.48463574777091,2.2946412054676215 80.15450872886427,-0.20535879453264405 79.4846357477998,-2.705358794540651 77.65450872888515,-4.535485813476447 75.15450872888488,-5.205358794569808 72.65450872887688,-4.535485813505339 70.82438170994108,-2.705358794590693 70.15450872884772,-0.2053587945904276 70.82438170991219,2.29464120541758 72.65450872882684,4.124768224353378 75.15450872882711,4.794641205446741" stroke="#ffa500" stroke-linecap="round" stroke-linejoin="round"/><polyline fill="none" points="-120.35133044360788,30.405227093624564 -117.85133044359986,29.735354112560096 -116.02120342466407,27.90522709364545 -115.3513304435707,25.405227093645184 -116.02120342463517,22.905227093637176 -117.85133044354981,21.07510007470138 -120.35133044355008,20.405227093608016 -122.8513304435581,21.07510007467248 -124.6814574624939,22.905227093587126 -125.35133044358726,25.405227093587392 -124.68145746252279,27.9052270935954 -122.85133044360815,29.7353541125312 -120.35133044360788,30.405227093624568" stroke="#008000" stroke-linecap="round" stroke-linejoin="round"/><polyline fill="none" points="-117.3950435186406,66.41372062267965 -114.89504351863259,65.74384764161518 -113.06491649969679,63.91372062270053 -112.39504351860343,61.41372062270027 -113.06491649966789,58.91372062269226 -114.89504351858253,57.08359360375646 -117.3950435185828,56.41372062266309 -119.89504351859081,57.08359360372756 -121.72517053752661,58.9137206226422 -122.39504351861997,61.413720622642465 -121.72517053755551,63.91372062265047 -119.89504351864088,65.74384764158627 -117.3950435186406,66.41372062267963" stroke="#00f" stroke-linecap="round" stroke-linejoin="round"/><polyline fill="none" points="-71.71910165224088,26.355629896386027 -69.21910165223287,25.685756915321566 -67.38897463329707,23.855629896406924 -66.7191016522037,21.355629896406658 -67.38897463326816,18.855629896398646 -69.2191016521828,17.02550287746284 -71.71910165218307,16.35562989636947 -74.21910165219109,17.025502877433933 -76.04922867112688,18.855629896348574 -76.71910165222025,21.35562989634884 -76.04922867115579,23.855629896356852 -74.21910165224115,25.685756915292657 -71.71910165224088,26.355629896386027" stroke="#ffa500" stroke-linecap="round" stroke-linejoin="round"/><polyline fill="none" points="113.035146101544,102.50830138708126 115.53514610155202,101.8384284060168 117.36527312048783,100.00830138710216 118.0351461015812,97.5083013871019 117.36527312051675,95.00830138709388 115.53514610160211,93.17817436815807 113.03514610160184,92.50830138706469 110.53514610159382,93.17817436812915 108.70501908265801,95.00830138704379 108.03514610156464,97.50830138704406 108.7050190826291,100.00830138705207 110.53514610154373,101.83842840598788 113.035146101544,102.50830138708126" stroke="#00f" stroke-linecap="round" stroke-linejoin="round"/><polyline fill="none" points="-170.6622481765361,-54.64490712897939 -168.1622481765281,-55.31478011004385 -166.3321211575923,-57.14490712895849 -165.66224817649893,-59.64490712895875 -166.3321211575634,-62.144907128966764 -168.16224817647804,-63.97503414790257 -170.6622481764783,-64.64490712899594 -173.16224817648632,-63.97503414793148 -174.9923751954221,-62.14490712901684 -175.66224817651548,-59.64490712901658 -174.99237519545102,-57.144907129008566 -173.16224817653637,-55.31478011007275 -170.6622481765361,-54.644907128979376" stroke="#ffa500" stroke-linecap="round" stroke-linejoin="round"/><polyline fill="none" points="-89.62633928326366,109.11014505742556 -87.12633928325565,108.4402720763611 -85.29621226431983,106.61014505744646 -84.62633928322646,104.11014505744619 -85.29621226429092,101.61014505743817 -87.12633928320555,99.78001803850236 -89.62633928320582,99.11014505740899 -92.12633928321384,99.78001803847344 -93.95646630214965,101.61014505738808 -94.62633928324303,104.11014505738835 -93.95646630217857,106.61014505739637 -92.12633928326393,108.44027207633218 -89.62633928326366,109.11014505742556" stroke="#ffa500" stroke-linecap="round" stroke-linejoin="round"/><polyline fill="none" points="-179.7158031630332,58.08606804431009 -177.21580316302519,57.41619506324564 -175.38567614408936,55.586068044331 -174.71580316299597,53.08606804433074 -175.38567614406043,50.58606804432272 -177.21580316297505,48.75594102538691 -179.7158031629753,48.08606804429353 -182.21580316298332,48.755941025357984 -184.04593018191915,50.58606804427262 -184.71580316301254,53.086068044272885 -184.04593018194808,55.5860680442809 -182.21580316303346,57.41619506321671 -179.7158031630332,58.086068044310096" stroke="#ffa500" stroke-linecap="round" stroke-linejoin="round"/><polyline fill="none" points="-103.85590377446046,27.568661564542076 -101.35590377445244,26.898788583477625 -99.52577675551663,25.06866156456299 -98.85590377442325,22.568661564562724 -99.5257767554877,20.068661564554706 -101.35590377440234,18.23853454561889 -103.8559037744026,17.568661564525506 -106.35590377441062,18.238534545589957 -108.18603079334643,20.06866156450459 -108.85590377443981,22.568661564504858 -108.18603079337537,25.068661564512876 -106.35590377446073,26.89878858344869 -103.85590377446046,27.568661564542076" stroke="#008000" stroke-linecap="round" stroke-linejoin="round"/><polyline fill="none" points="-150.86999743468695,-42.80641200744697 -148.36999743467894,-43.47628498851142 -146.5398704157431,-45.306412007426054 -145.86999743464972,-47.80641200742632 -146.53987041571418,-50.30641200743434 -148.3699974346288,-52.13653902637016 -150.86999743462906,-52.80641200746354 -153.36999743463707,-52.13653902639909 -155.2001244535729,-50.30641200748446 -155.8699974346663,-47.8064120074842 -155.20012445360183,-45.306412007476176 -153.3699974346872,-43.47628498854036 -150.86999743468695,-42.80641200744697" stroke="#ffa500" stroke-linecap="round" stroke-linejoin="round"/><polyline fill="none" points="-116.34109443778465,-13.014194181328463 -113.84109443777663,-13.68406716239291 -112.0109674188408,-15.514194181307543 -111.34109443774742,-18.014194181307808 -112.01096741881186,-20.51419418131583 -113.8410944377265,-22.34432120025165 -116.34109443772677,-23.014194181345037 -118.84109443773478,-22.34432120028059 -120.67122145667061,-20.51419418136596 -121.341094437764,-18.014194181365692 -120.67122145669956,-15.514194181357672 -118.84109443778492,-13.68406716242185 -116.34109443778465,-13.014194181328461" stroke="#00f" stroke-linecap="round" stroke-linejoin="round"/><polyline fill="none" points="51.595034839785335,-84.38730426855217 54.09503483979336,-85.05717724961661 55.925161858729176,-86.88730426853125 56.59503483982257,-89.38730426853152 55.92516185875812,-91.88730426853954 54.09503483984349,-93.71743128747536 51.59503483984323,-94.38730426856876 49.09503483983521,-93.71743128750431 47.26490782089939,-91.88730426858969 46.595034839806,-89.38730426858942 47.26490782087044,-86.88730426858139 49.09503483978507,-85.05717724964556 51.595034839785335,-84.38730426855217" stroke="#00f" stroke-linecap="round" stroke-linejoin="round"/><polyline fill="none" points="-138.46530013945022,17.15440136053597 -135.9653001394422,16.48452837947153 -134.13517312050638,14.654401360556902 -133.465300139413,12.154401360556637 -134.13517312047742,9.654401360548615 -135.96530013939204,7.8242743416127905 -138.4653001393923,7.154401360519397 -140.9653001394003,7.824274341583837 -142.79542715833614,9.654401360498467 -143.46530013942953,12.154401360498731 -142.7954271583651,14.654401360506755 -140.96530013945048,16.48452837944258 -138.46530013945022,17.154401360535974" stroke="#00f" stroke-linecap="round" stroke-linejoin="round"/><polyline fill="none" points="22.689684214978072,95.63406110798404 25.189684214986094,94.9641881269196 27.01981123392192,93.13406110800497 27.689684215015316,90.6340611080047 27.019811233950875,88.13406110799667 25.189684215036248,86.30393408906085 22.68968421503598,85.63406110796745 20.189684215027956,86.3039340890319 18.35955719609213,88.13406110794652 17.68968421499873,90.63406110794679 18.359557196063168,93.13406110795482 20.189684214977795,94.96418812689065 22.68968421497806,95.63406110798404" stroke="#ffa500" stroke-linecap="round" stroke-linejoin="round"/><polyline fill="none" points="-86.06853214095057,50.499341361305575 -83.56853214094254,49.82946838024114 -81.73840512200671,47.99934136132651 -81.0685321409133,45.499341361326245 -81.73840512197773,42.999341361318216 -83.56853214089236,41.16921434238239 -86.06853214089263,40.49934136128899 -88.56853214090066,41.16921434235343 -90.39865915983648,42.99934136126805 -91.06853214092989,45.499341361268314 -90.39865915986546,47.99934136127634 -88.56853214095084,49.82946838021218 -86.06853214095057,50.499341361305575" stroke="#008000" stroke-linecap="round" stroke-linejoin="round"/><polyline fill="none" points="58.55927146423665,63.03273392468797 61.05927146424468,62.36286094362353 62.889398483180514,60.53273392470891 63.55927146427391,58.032733924708644 62.889398483209476,55.532733924700615 61.05927146429485,53.70260690576478 58.55927146429459,53.032733924671376 56.05927146428656,53.70260690573581 54.22914444535073,55.53273392465044 53.55927146425732,58.0327339246507 54.22914444532175,60.53273392465873 56.059271464236375,62.36286094359456 58.55927146423664,63.03273392468797" stroke="#ffa500" stroke-linecap="round" stroke-linejoin="round"/><polyline fill="none" points="7.668860918997681,-142.5494518421283 10.16886091900571,-143.21932482319272 11.998987937941543,-145.04945184210735 12.668860919034946,-147.5494518421076 11.998987937970515,-150.04945184211562 10.168860919055891,-151.87957886105144 7.668860919055626,-152.54945184214483 5.168860919047598,-151.8795788610804 3.3387339001117633,-150.04945184216578 2.6688609190183583,-147.54945184216552 3.338733900082789,-145.0494518421575 5.168860918997413,-143.21932482322168 7.668860918997678,-142.54945184212826" stroke="#ffa500" stroke-linecap="round" stroke-linejoin="round"/><polyline fill="none" points="-18.797958706908382,120.78773500391497 -16.297958706900353,120.11786202285055 -14.467831687964518,118.28773500393592 -13.79795870687111,115.78773500393565 -14.46783168793554,113.28773500392762 -16.297958706850164,111.45760798499178 -18.79795870685043,110.78773500389838 -21.29795870685846,111.4576079849628 -23.128085725794296,113.28773500387743 -23.797958706887705,115.7877350038777 -23.128085725823276,118.28773500388573 -21.297958706908652,120.11786202282157 -18.797958706908386,120.78773500391497" stroke="#ffa500" stroke-linecap="round" stroke-linejoin="round"/><polyline fill="none" points="109.2378906718116,-97.75439390222532 111.73789067181963,-98.42426688328975 113.56801769075547,-100.25439390220437 114.23789067184887,-102.75439390220464 113.56801769078444,-105.25439390221267 111.73789067186982,-107.08452092114851 109.23789067186955,-107.75439390224192 106.73789067186152,-107.08452092117749 104.90776365292568,-105.25439390226286 104.23789067183228,-102.75439390226259 104.9077636528967,-100.25439390225456 106.73789067181133,-98.42426688331872 109.2378906718116,-97.75439390222532" stroke="#ffa500" stroke-linecap="round" stroke-linejoin="round"/><polyline fill="none" points="-2.3421134338833194,-83.80144396646283 0.15788656612471286,-84.47131694752726 1.988013585060553,-86.30144396644188 2.6578865661539646,-88.80144396644215 1.9880135850895395,-91.30144396645018 0.1578865661749187,-93.13157098538602 -2.3421134338253466,-93.80144396647943 -4.842113433833379,-93.131570985415 -6.67224045276922,-91.30144396650037 -7.342113433862632,-88.8014439665001 -6.672240452798208,-86.30144396649207 -4.842113433883588,-84.47131694755623 -2.3421134338833225,-83.80144396646281" stroke="#ffa500" stroke-linecap="round" stroke-linejoin="round"/><polyline fill="none" points="89.45160623450805,-43.92215714997122 91.95160623451608,-44.59203013103564 93.78173325345192,-46.42215714995026 94.45160623454534,-48.92215714995052 93.78173325348091,-51.42215714995856 91.95160623456628,-53.2522841688944 89.45160623456601,-53.92215714998781 86.95160623455799,-53.25228416892339 85.12147921562214,-51.42215715000877 84.45160623452873,-48.92215715000851 85.12147921559314,-46.42215715000047 86.95160623450776,-44.592030131064625 89.45160623450803,-43.922157149971206" stroke="#00f" stroke-linecap="round" stroke-linejoin="round"/><polyline fill="none" points="140.71563262546312,-68.43208638144698 143.21563262547116,-69.1019593625114 145.045759644407,-70.93208638142602 145.71563262550043,-73.43208638142629 145.045759644436,-75.93208638143432 143.21563262552138,-77.76221340037016 140.71563262552112,-78.43208638146358 138.21563262551308,-77.76221340039916 136.38550560657723,-75.93208638148454 135.7156326254838,-73.43208638148427 136.38550560654824,-70.93208638147624 138.21563262546286,-69.1019593625404 140.71563262546312,-68.43208638144698" stroke="#00f" stroke-linecap="round" stroke-linejoin="round"/><polyline fill="none" points="-158.48005604450577,-32.25656722452625 -155.98005604449773,-32.926440205590666 -154.14992902556187,-34.75656722450528 -153.48005604446845,-37.256567224505545 -154.14992902553288,-39.75656722451358 -155.9800560444475,-41.58669424344943 -158.48005604444776,-42.25656722454285 -160.9800560444558,-41.58669424347843 -162.81018306339166,-39.75656722456382 -163.48005604448508,-37.256567224563554 -162.81018306342065,-34.75656722455552 -160.98005604450603,-32.92644020561967 -158.48005604450577,-32.25656722452625" stroke="#00f" stroke-linecap="round" stroke-linejoin="round"/><polyline fill="none" points="115.23170677954995,-61.45173727591151 117.731706779558,-62.12161025697593 119.56183379849385,-63.951737275890544 120.23170677958727,-66.4517372758908 119.56183379852285,-68.95173727589885 117.73170677960825,-70.7818642948347 115.23170677960798,-71.45173727592812 112.73170677959993,-70.78186429486371 110.90157976066408,-68.9517372759491 110.23170677957066,-66.45173727594883 110.90157976063507,-63.95173727594079 112.73170677954968,-62.121610257004946 115.23170677954995,-61.45173727591152" stroke="#00f" stroke-linecap="round" stroke-linejoin="round"/><polyline fill="none" points="-78.04303162554207,-70.79810129726297 -75.54303162553403,-71.46797427832739 -73.71290460659817,-73.298101297242 -73.04303162550475,-75.79810129724227 -73.71290460656917,-78.29810129725031 -75.54303162548378,-80.12822831618617 -78.04303162548405,-80.79810129727959 -80.54303162549209,-80.12822831621517 -82.37315864442795,-78.29810129730056 -83.04303162552137,-75.79810129730029 -82.37315864445695,-73.29810129729225 -80.54303162554234,-71.4679742783564 -78.04303162554207,-70.79810129726296" stroke="#ffa500" stroke-linecap="round" stroke-linejoin="round"/><polyline fill="none" points="-184.3887134009517,44.002938837713025 -181.88871340094366,43.333065856648616 -180.0585863820078,41.50293883773401 -179.38871340091438,39.002938837733744 -180.05858638197878,36.5029388377257 -181.8887134008934,34.672811818789846 -184.38871340089366,34.00293883769642 -186.8887134009017,34.67281181876083 -188.71884041983756,36.50293883767544 -189.38871340093098,39.0029388376757 -188.71884041986658,41.50293883768374 -186.88871340095196,43.3330658566196 -184.3887134009517,44.00293883771303" stroke="#ffa500" stroke-linecap="round" stroke-linejoin="round"/><polyline fill="none" points="-41.96730560408939,37.62340150700605 -39.467305604081346,36.95352852594164 -37.63717858514549,35.12340150702703 -36.96730560405206,32.62340150702677 -37.637178585116466,30.123401507018727 -39.467305604031075,28.29327448808287 -41.96730560403134,27.62340150698944 -44.46730560403938,28.293274488053846 -46.297432622975236,30.123401506968456 -46.96730560406867,32.62340150696872 -46.29743262300426,35.12340150697676 -44.46730560408965,36.953528525912624 -41.96730560408939,37.62340150700606" stroke="#00f" stroke-linecap="round" stroke-linejoin="round"/><polyline fill="none" points="-112.12423672847909,33.40854759500867 -109.62423672847105,32.73867461394426 -107.79410970953519,30.908547595029653 -107.12423672844176,28.408547595029386 -107.79410970950616,25.908547595021343 -109.62423672842077,24.078420576085485 -112.12423672842104,23.40854759499205 -114.62423672842908,24.078420576056455 -116.45436374736494,25.908547594971065 -117.12423672845837,28.40854759497133 -116.45436374739397,30.908547594979375 -114.62423672847936,32.73867461391524 -112.12423672847909,33.40854759500867" stroke="#008000" stroke-linecap="round" stroke-linejoin="round"/><polyline fill="none" points="70.63363726292899,-10.421243452963655 73.13363726293703,-11.09111643402806 74.96376428187288,-12.921243452942667 75.63363726296632,-15.421243452942932 74.96376428190192,-17.921243452950975 73.1336372629873,-19.751370471886837 70.63363726298704,-20.421243452980274 68.133637262979,-19.75137047191587 66.30351024404312,-17.92124345300126 65.63363726294969,-15.421243453000994 66.30351024401409,-12.921243452992949 68.1336372629287,-11.091116434057085 70.63363726292897,-10.421243452963648" stroke="#ffa500" stroke-linecap="round" stroke-linejoin="round"/><polyline fill="none" points="38.828595035026716,-124.00764725867108 41.32859503503476,-124.67752023973549 43.15872205397062,-126.5076472586501 43.82859503506406,-129.00764725865037 43.15872205399966,-131.5076472586584 41.32859503508505,-133.33777427759426 38.82859503508479,-134.0076472586877 36.328595035076745,-133.3377742776233 34.49846801614088,-131.50764725870872 33.82859503504744,-129.00764725870846 34.49846801611184,-126.50764725870042 36.32859503502645,-124.67752023976455 38.828595035026716,-124.0076472586711" stroke="#ffa500" stroke-linecap="round" stroke-linejoin="round"/><polyline fill="none" points="-128.40669998604145,-9.488902380498493 -125.9066999860334,-10.158775361562892 -124.07657296709753,-11.988902380477498 -123.40669998600409,-14.488902380477763 -124.07657296706849,-16.98890238048581 -125.9066999859831,-18.819029399421677 -128.40669998598335,-19.488902380515118 -130.9066999859914,-18.81902939945072 -132.73682700492725,-16.988902380536114 -133.4066999860207,-14.48890238053585 -132.7368270049563,-11.9889023805278 -130.9066999860417,-10.158775361591934 -128.40669998604145,-9.48890238049849" stroke="#00f" stroke-linecap="round" stroke-linejoin="round"/><polyline fill="none" points="87.57354769543913,-75.53469535505327 90.07354769544717,-76.20456833611767 91.90367471438304,-78.03469535503228 92.57354769547649,-80.53469535503255 91.90367471441209,-83.0346953550406 90.07354769549748,-84.86482237397647 87.57354769549721,-85.53469535506991 85.07354769548917,-84.86482237400551 83.2434206765533,-83.0346953550909 82.57354769545985,-80.53469535509063 83.24342067652425,-78.03469535508259 85.07354769543886,-76.20456833614672 87.57354769543913,-75.53469535505327" stroke="#00f" stroke-linecap="round" stroke-linejoin="round"/><polyline fill="none" points="71.43596809887225,-45.30659320077214 73.9359680988803,-45.976466181836535 75.76609511781616,-47.80659320075114 76.43596809890961,-50.3065932007514 75.76609511784521,-52.80659320075945 73.9359680989306,-54.63672021969532 71.43596809893033,-55.30659320078877 68.93596809892227,-54.636720219724374 67.1058410799864,-52.80659320080977 66.43596809889296,-50.30659320080951 67.10584107995734,-47.80659320080146 68.93596809887194,-45.97646618186559 71.43596809887221,-45.30659320077214" stroke="#ffa500" stroke-linecap="round" stroke-linejoin="round"/><polyline fill="none" points="-165.03661583383115,21.931547816973286 -162.5366158338231,21.26167483590889 -160.70648881488722,19.43154781699429 -160.03661583379377,16.931547816994023 -160.70648881485818,14.43154781698597 -162.53661583377277,12.601420798050096 -165.03661583377303,11.931547816956646 -167.53661583378107,12.601420798021039 -169.36674285271695,14.43154781693564 -170.0366158338104,16.931547816935904 -169.366742852746,19.431547816943954 -167.5366158338314,21.26167483587983 -165.03661583383115,21.931547816973282" stroke="#ffa500" stroke-linecap="round" stroke-linejoin="round"/><polyline fill="none" points="-121.1299079888486,37.991944283414675 -118.62990798884054,37.32207130235028 -116.79978096990467,35.49194428343568 -116.12990798881123,32.991944283435416 -116.79978096987561,30.49194428342736 -118.62990798879021,28.661817264491486 -121.12990798879048,27.991944283398034 -123.62990798879854,28.661817264462425 -125.46003500773442,30.491944283377023 -126.12990798882787,32.991944283377286 -125.46003500776348,35.49194428338534 -123.62990798884888,37.32207130232121 -121.12990798884861,37.99194428341467" stroke="#008000" stroke-linecap="round" stroke-linejoin="round"/><polyline fill="none" points="-57.29697770309126,26.46224744693492 -54.7969777030832,25.792374465870534 -52.966850684147325,23.962247446955935 -52.29697770305387,21.46224744695567 -52.966850684118256,18.962247446947615 -54.79697770303285,17.13212042801174 -57.296977703033114,16.462247446918283 -59.79697770304117,17.13212042798267 -61.62710472197705,18.96224744689727 -62.2969777030705,21.462247446897535 -61.627104722006116,23.96224744690559 -59.79697770309152,25.79237446584147 -57.29697770309126,26.462247446934924" stroke="#ffa500" stroke-linecap="round" stroke-linejoin="round"/><polyline fill="none" points="-112.79126691015368,-42.97618896301879 -110.29126691014562,-43.64606194408318 -108.46113989120974,-45.476188962997774 -107.79126691011628,-47.97618896299804 -108.46113989118066,-50.476188963006095 -110.29126691009526,-52.30631598194198 -112.79126691009553,-52.97618896303543 -115.29126691010359,-52.306315981971046 -117.12139392903947,-50.47618896305645 -117.79126691013293,-47.97618896305619 -117.12139392906855,-45.47618896304813 -115.29126691015395,-43.64606194411225 -112.79126691015368,-42.976188963018785" stroke="#ffa500" stroke-linecap="round" stroke-linejoin="round"/><polyline fill="none" points="-107.1568320131871,20.844579995075165 -104.65683201317904,20.17470701401078 -102.82670499424316,18.344579995096186 -102.1568320131497,15.84457999509592 -102.82670499421408,13.344579995087862 -104.65683201312868,11.51445297615198 -107.15683201312895,10.844579995058519 -109.656832013137,11.5144529761229 -111.48695903207289,13.344579995037495 -112.15683201316635,15.844579995037762 -111.48695903210196,18.34457999504582 -109.65683201318737,20.174707013981703 -107.1568320131871,20.844579995075165" stroke="#00f" stroke-linecap="round" stroke-linejoin="round"/><polyline fill="none" points="-10.403154115523984,90.73328499088561 -7.903154115515926,90.06341200982122 -6.0730270965800415,88.23328499090663 -5.403154115486578,85.73328499090636 -6.073027096550959,83.2332849908983 -7.903154115465554,81.40315797196241 -10.40315411546582,80.73328499086895 -12.903154115473878,81.40315797193334 -14.733281134409763,83.23328499084793 -15.403154115503227,85.7332849908482 -14.733281134438847,88.23328499085626 -12.903154115524252,90.06341200979215 -10.403154115523986,90.73328499088561" stroke="#ffa500" stroke-linecap="round" stroke-linejoin="round"/><polyline fill="none" points="-113.69429523192305,28.24702002310582 -111.19429523191499,27.57714704204144 -109.36416821297911,25.747020023126844 -108.69429523188565,23.247020023126577 -109.36416821295002,20.747020023118516 -111.19429523186461,18.91689300418263 -113.69429523186488,18.247020023089163 -116.19429523187294,18.91689300415354 -118.02442225080883,20.74702002306813 -118.69429523190229,23.247020023068398 -118.02442225083792,25.74702002307646 -116.19429523192332,27.57714704201235 -113.69429523192305,28.247020023105815" stroke="#ffa500" stroke-linecap="round" stroke-linejoin="round"/></svg>