<?xml version="1.0" ?><!DOCTYPE svg  PUBLIC '-//W3C//DTD SVG 1.1//EN'  'http://www.w3.org/Graphics/SVG/1.1/DTD/svg11.dtd'><svg height="326.000" viewBox="-202.000 -162.000 371.000 326.000" width="371.000" xmlns="http://www.w3.org/2000/svg"><line fill="none" stroke="none" stroke-linecap="round" stroke-width="2.0" x1="0.0" x2="0.0" y1="0.0" y2="0.0"/><polygon fill="none" fill-rule="evenodd" points="0.0,0.0 0.0,0.0 0.0,0.0" stroke-linejoin="round"/><polyline fill="none" points="42.365593242173944,23.797898093953407 44.86559324218277,23.128025112890302 46.69572026111996,21.29789809397643 47.36559324221491,18.797898093976134 46.69572026115181,16.297898093967305 44.86559324223794,14.467771075030116 42.36559324223765,13.797898093935164 39.865593242228826,14.467771074998268 38.035466223291635,16.297898093912142 37.36559324219668,18.797898093912437 38.03546622325978,21.297898093921265 39.86559324217365,23.128025112858456 42.365593242173944,23.79789809395341" stroke="#ffa500" stroke-linecap="round" stroke-linejoin="round"/><polyline fill="none" points="52.847978105424296,23.28782301507029 55.34797810543313,22.617950034007187 57.17810512437032,20.787823015093313 57.84797810546527,18.287823015093018 57.17810512440217,15.78782301508419 55.3479781054883,13.957695996146997 52.84797810548801,13.28782301505204 50.34797810547918,13.957695996115142 48.51785108654199,15.787823015029014 47.847978105447034,18.287823015029307 48.517851086510134,20.787823015038136 50.347978105424005,22.61795003397533 52.847978105424296,23.287823015070288" stroke="#ffa500" stroke-linecap="round" stroke-linejoin="round"/><polyline fill="none" points="41.38202593362808,-37.8449366165895 43.88202593363691,-38.5148095976526 45.7121529525741,-40.34493661656647 46.38202593366906,-42.84493661656676 45.71215295260596,-45.344936616575595 43.88202593369209,-47.175063635512785 41.3820259336918,-47.84493661660775 38.88202593368297,-47.175063635544646 37.05189891474577,-45.344936616630775 36.38202593365081,-42.844936616630484 37.05189891471391,-40.34493661662165 38.88202593362778,-38.514809597684454 41.38202593362807,-37.84493661658949" stroke="#ffa500" stroke-linecap="round" stroke-linejoin="round"/><polyline fill="none" points="-89.9835140791229,-36.966800645522035 -87.48351407911407,-37.636673626585136 -85.65338706017688,-39.466800645499006 -84.98351407908193,-41.9668006454993 -85.65338706014502,-44.46680064550813 -87.48351407905889,-46.29692766444533 -89.98351407905919,-46.96680064554029 -92.48351407906802,-46.296927664477195 -94.3136410980052,-44.466800645563325 -94.98351407910017,-41.96680064556303 -94.31364109803708,-39.4668006455542 -92.48351407912321,-37.636673626617004 -89.98351407912291,-36.96680064552204" stroke="#ffa500" stroke-linecap="round" stroke-linejoin="round"/><polyline fill="none" points="-89.02995042620311,38.016778317642654 -86.52995042619428,37.34690533657956 -84.69982340725707,35.51677831766569 -84.0299504261621,33.0167783176654 -84.6998234072252,30.516778317656566 -86.52995042613907,28.686651298719365 -89.02995042613937,28.0167783176244 -91.5299504261482,28.686651298687494 -93.36007744508541,30.51677831760136 -94.02995042618038,33.016778317601656 -93.36007744511728,35.51677831761049 -91.52995042620341,37.346905336547685 -89.02995042620311,38.016778317642654" stroke="#00f" stroke-linecap="round" stroke-linejoin="round"/><polyline fill="none" points="-172.4069903273659,-31.010216039300587 -169.90699032735705,-31.68008902036368 -168.07686330841986,-33.51021603927755 -167.4069903273249,-36.01021603927784 -168.076863308388,-38.510216039286675 -169.90699032730186,-40.34034305822388 -172.40699032730214,-41.01021603931885 -174.90699032731098,-40.340343058255755 -176.73711734624817,-38.51021603934189 -177.40699032734315,-36.0102160393416 -176.73711734628006,-33.51021603933276 -174.9069903273662,-31.680089020395556 -172.40699032736592,-31.010216039300587" stroke="#00f" stroke-linecap="round" stroke-linejoin="round"/><polyline fill="none" points="147.65389566389035,-78.24679853439615 150.1538956638992,-78.91667151545924 151.98402268283638,-80.74679853437311 152.65389566393137,-83.24679853437341 151.98402268286827,-85.74679853438225 150.15389566395442,-87.57692555331946 147.65389566395413,-88.24679853441442 145.1538956639453,-87.57692555335133 143.32376864500807,-85.74679853443746 142.6538956639131,-83.24679853443716 143.32376864497618,-80.74679853442832 145.15389566389004,-78.91667151549112 147.65389566389032,-78.24679853439615" stroke="#ffa500" stroke-linecap="round" stroke-linejoin="round"/><polyline fill="none" points="69.35595994606828,-140.73331447716598 71.85595994607712,-141.40318745822907 73.68608696501433,-143.23331447714293 74.3559599461093,-145.7333144771432 73.6860869650462,-148.23331447715205 71.85595994613233,-150.06344149608927 69.35595994613203,-150.73331447718425 66.85595994612319,-150.06344149612116 65.02583292718599,-148.2333144772073 64.35595994609102,-145.73331447720702 65.0258329271541,-143.23331447719818 66.85595994606796,-141.40318745826096 69.35595994606825,-140.73331447716598" stroke="#ffa500" stroke-linecap="round" stroke-linejoin="round"/><polyline fill="none" points="-176.4959137812134,-33.255991679980376 -173.99591378120456,-33.92586466104346 -172.16578676226735,-35.755991679957326 -171.49591378117236,-38.25599167995762 -172.16578676223546,-40.755991679966456 -173.9959137811493,-42.58611869890367 -176.4959137811496,-43.255991679998644 -178.99591378115844,-42.58611869893556 -180.82604080009565,-40.755991680021694 -181.49591378119064,-38.2559916800214 -180.82604080012754,-35.75599168001256 -178.9959137812137,-33.92586466107535 -176.4959137812134,-33.255991679980376" stroke="#00f" stroke-linecap="round" stroke-linejoin="round"/><polyline fill="none" points="-102.93830944175969,85.61702536684865 -100.43830944175085,84.94715238578557 -98.60818242281364,83.11702536687172 -97.93830944171866,80.61702536687142 -98.60818242278174,78.11702536686258 -100.4383094416956,76.28689834792537 -102.93830944169589,75.61702536683039 -105.43830944170473,76.28689834789347 -107.26843646064195,78.11702536680733 -107.93830944173693,80.61702536680762 -107.26843646067385,83.11702536681646 -105.43830944176,84.94715238575368 -102.9383094417597,85.61702536684867" stroke="#00f" stroke-linecap="round" stroke-linejoin="round"/><polyline fill="none" points="137.38873325156564,104.04429482870525 139.88873325157448,103.37442184764217 141.7188602705117,101.54429482872831 142.38873325160668,99.04429482872801 141.71886027054362,96.54429482871917 139.88873325162976,94.71416780978196 137.38873325162947,94.04429482868697 134.88873325162064,94.71416780975005 133.05860623268342,96.54429482866391 132.38873325158843,99.0442948286642 133.0586062326515,101.54429482867305 134.88873325156536,103.37442184761026 137.38873325156564,104.04429482870525" stroke="#ffa500" stroke-linecap="round" stroke-linejoin="round"/><polyline fill="none" points="108.91020134058007,59.025834386660335 111.41020134058891,58.355961405597256 113.24032835952613,56.5258343866834 113.91020134062111,54.02583438668311 113.24032835955803,51.52583438667426 111.41020134064418,49.69570736773704 108.91020134064388,49.02583438664206 106.41020134063504,49.69570736770514 104.58007432169782,51.525834386618996 103.91020134060284,54.02583438661929 104.58007432166592,56.525834386628134 106.41020134057977,58.35596140556535 108.91020134058007,59.02583438666034" stroke="#ffa500" stroke-linecap="round" stroke-linejoin="round"/><polyline fill="none" points="116.74389547084492,-93.45930131648453 119.24389547085376,-94.1291742975476 121.07402248979098,-95.95930131646146 121.74389547088596,-98.45930131646176 121.07402248982288,-100.9593013164706 119.24389547090902,-102.78942833540782 116.74389547090873,-103.4593013165028 114.24389547089989,-102.78942833543972 112.41376845196267,-100.95930131652587 111.74389547086768,-98.45930131652557 112.41376845193075,-95.95930131651673 114.2438954708446,-94.12917429757951 116.7438954708449,-93.45930131648451" stroke="#ffa500" stroke-linecap="round" stroke-linejoin="round"/><polyline fill="none" points="-43.7873858048562,-25.771428396295782 -41.287385804847354,-26.441301377358855 -39.457258785910135,-28.27142839627271 -38.787385804815145,-30.771428396273006 -39.45725878587822,-33.271428396281856 -41.28738580479207,-35.10155541521908 -43.787385804792365,-35.77142839631407 -46.28738580480121,-35.101555415251 -48.11751282373844,-33.27142839633714 -48.78738580483343,-30.771428396336848 -48.117512823770355,-28.271428396328 -46.2873858048565,-26.44130137739078 -43.78738580485621,-25.771428396295786" stroke="#00f" stroke-linecap="round" stroke-linejoin="round"/><polyline fill="none" points="-11.28974308338052,150.0846105846741 -8.789743083371672,149.41473760361103 -6.959616064434448,147.58461058469717 -6.289743083339454,145.0846105846969 -6.959616064402523,142.58461058468805 -8.789743083316376,140.75448356575083 -11.289743083316669,140.08461058465585 -13.789743083325517,140.7544835657189 -15.619870102262743,142.58461058463277 -16.289743083357738,145.08461058463305 -15.619870102294671,147.5846105846419 -13.789743083380818,149.4147376035791 -11.289743083380525,150.0846105846741" stroke="#ffa500" stroke-linecap="round" stroke-linejoin="round"/><polyline fill="none" points="85.13432380442156,-106.65665219408237 87.63432380443041,-107.32652517514543 89.46445082336764,-109.15665219405929 90.13432380446264,-111.65665219405959 89.46445082339957,-114.15665219406844 87.63432380448572,-115.98677921300568 85.13432380448542,-116.65665219410067 82.63432380447657,-115.98677921303761 80.80419678553933,-114.15665219412375 80.13432380444434,-111.65665219412345 80.8041967855074,-109.1566521941146 82.63432380442126,-107.32652517517737 85.13432380442156,-106.65665219408237" stroke="#ffa500" stroke-linecap="round" stroke-linejoin="round"/><polyline fill="none" points="-119.05096916695459,14.116175006001573 -116.55096916694573,13.446302024938507 -114.7208421480085,11.616175006024656 -114.0509691669135,9.116175006024363 -114.72084214797657,6.616175006015513 -116.55096916689043,4.786047987078282 -119.05096916689072,4.116175005983282 -121.55096916689958,4.786047987046344 -123.38109618583681,6.616175005960194 -124.05096916693181,9.116175005960487 -123.38109618586874,11.616175005969339 -121.55096916695489,13.44630202490657 -119.05096916695459,14.116175006001573" stroke="#008000" stroke-linecap="round" stroke-linejoin="round"/><polyline fill="none" points="92.53486709684236,-35.89821293437343 95.03486709685122,-36.5680859154365 96.86499411578845,-38.39821293435035 97.53486709688345,-40.89821293435064 96.86499411582038,-43.39821293435949 95.03486709690652,-45.228339953296725 92.53486709690623,-45.89821293439173 90.03486709689737,-45.22833995332867 88.20474007796014,-43.39821293441482 87.53486709686514,-40.89821293441453 88.20474007792821,-38.39821293440568 90.03486709684205,-36.568085915468444 92.53486709684235,-35.89821293437344" stroke="#ffa500" stroke-linecap="round" stroke-linejoin="round"/><polyline fill="none" points="-124.33381667270848,-27.76604425168749 -121.83381667269963,-28.435917232750548 -120.0036896537624,-30.266044251664397 -119.33381667266738,-32.76604425166469 -120.00368965373045,-35.26604425167354 -121.83381667264429,-37.096171270610775 -124.33381667264459,-37.76604425170578 -126.83381667265344,-37.09617127064272 -128.66394369159067,-35.26604425172887 -129.33381667268569,-32.76604425172858 -128.66394369162262,-30.266044251719727 -126.83381667270878,-28.43591723278249 -124.33381667270848,-27.766044251687482" stroke="#00f" stroke-linecap="round" stroke-linejoin="round"/><polyline fill="none" points="70.23773049341588,-121.4272081344998 72.73773049342473,-122.09708111556286 74.56785751236197,-123.9272081344767 75.23773049345698,-126.427208134477 74.56785751239393,-128.92720813448585 72.73773049348009,-130.7573351534231 70.23773049347979,-131.4272081345181 67.73773049347093,-130.75733515345505 65.9076034745337,-128.9272081345412 65.23773049343869,-126.42720813454089 65.90760347450174,-123.92720813453204 67.73773049341558,-122.0970811155948 70.23773049341588,-121.42720813449979" stroke="#00f" stroke-linecap="round" stroke-linejoin="round"/><polyline fill="none" points="139.48944289142818,-37.89742886337127 141.98944289143705,-38.567301844434326 143.8195699103743,-40.39742886334817 144.4894428914693,-42.89742886334846 143.81956991040624,-45.39742886335731 141.9894428914924,-47.22755588229455 139.4894428914921,-47.897428863389564 136.98944289148324,-47.22755588232651 135.159315872546,-45.39742886341267 134.48944289145098,-42.89742886341238 135.15931587251404,-40.39742886340352 136.9894428914279,-38.56730184446628 139.48944289142818,-37.89742886337127" stroke="#ffa500" stroke-linecap="round" stroke-linejoin="round"/><polyline fill="none" points="7.09444225926194,22.956861578688333 9.594442259270798,22.286988597625278 11.42456927820804,20.456861578711433 12.094442259303053,17.956861578711138 11.42456927824,15.456861578702279 9.594442259326156,13.626734559765037 7.094442259325861,12.956861578670024 4.5944422593170025,13.626734559733077 2.76431524037976,15.45686157864692 2.0944422592847456,17.956861578647214 2.764315240347797,20.456861578656074 4.594442259261641,22.286988597593318 7.094442259261935,22.956861578688333" stroke="#ffa500" stroke-linecap="round" stroke-linejoin="round"/><polyline fill="none" points="87.75307055044566,-93.0490317161844 90.25307055045451,-93.71890469724745 92.08319756939176,-95.5490317161613 92.75307055048677,-98.0490317161616 92.08319756942372,-100.54903171617045 90.25307055050988,-102.3791587351077 87.75307055050958,-103.0490317162027 85.25307055050072,-102.37915873513965 83.42294353156348,-100.54903171622581 82.75307055046846,-98.04903171622551 83.42294353153152,-95.54903171621666 85.25307055044536,-93.71890469727941 87.75307055044566,-93.0490317161844" stroke="#ffa500" stroke-linecap="round" stroke-linejoin="round"/><polyline fill="none" points="-48.92102816407959,67.64303595924234 -46.42102816407073,66.97316297817929 -44.59090114513348,65.14303595926545 -43.92102816403846,62.643035959265156 -44.59090114510151,60.143035959256295 -46.421028164015354,58.31290894031905 -48.921028164015645,57.64303595922403 -51.421028164024506,58.31290894028707 -53.25115518296175,60.143035959200915 -53.92102816405677,62.64303595920121 -53.25115518299373,65.14303595921007 -51.421028164079885,66.97316297814731 -48.921028164079594,67.64303595924234" stroke="#00f" stroke-linecap="round" stroke-linejoin="round"/><polyline fill="none" points="92.86054350150968,-40.34679400984154 95.36054350151855,-41.01666699090458 97.1906705204558,-42.846794009818424 97.86054350155082,-45.346794009818716 97.19067052048777,-47.846794009827576 95.36054350157393,-49.67692102876482 92.86054350157363,-50.34679400985984 90.36054350156476,-49.6769210287968 88.53041648262752,-47.846794009882956 87.86054350153249,-45.346794009882665 88.53041648259554,-42.846794009873804 90.36054350150938,-41.01666699093656 92.86054350150968,-40.34679400984153" stroke="#00f" stroke-linecap="round" stroke-linejoin="round"/><polyline fill="none" points="139.24319477506307,-69.48715410730166 141.74319477507194,-70.15702708836471 143.5733217940092,-71.98715410727856 144.2431947751042,-74.48715410727885 143.57332179404116,-76.98715410728772 141.74319477512734,-78.81728112622497 139.24319477512705,-79.48715410732 136.74319477511818,-78.81728112625696 134.91306775618094,-76.98715410734312 134.24319477508593,-74.48715410734282 134.91306775614896,-71.98715410733395 136.7431947750628,-70.1570270883967 139.24319477506307,-69.48715410730168" stroke="#00f" stroke-linecap="round" stroke-linejoin="round"/><polyline fill="none" points="78.69874787119075,72.48423677866809 81.19874787119961,71.81436379760505 83.02887489013686,69.98423677869121 83.69874787123189,67.48423677869091 83.02887489016885,64.98423677868205 81.19874787125501,63.15410975974479 78.69874787125471,62.484236778649766 76.19874787124584,63.15410975971281 74.3686208523086,64.98423677862665 73.69874787121357,67.48423677862695 74.3686208522766,69.98423677863582 76.19874787119045,71.81436379757307 78.69874787119075,72.48423677866809" stroke="#ffa500" stroke-linecap="round" stroke-linejoin="round"/><polyline fill="none" points="109.40878368366407,35.54996985120597 111.90878368367294,34.880096870142935 113.73891070261018,33.0499698512291 114.40878368370521,30.54996985122881 113.73891070264217,28.049969851219945 111.90878368372833,26.21984283228269 109.40878368372803,25.54996985118766 106.90878368371916,26.2198428322507 105.0786566647819,28.049969851164533 104.40878368368688,30.549969851164825 105.07865666474991,33.04996985117369 106.90878368366376,34.88009687011095 109.40878368366405,35.54996985120598" stroke="#ffa500" stroke-linecap="round" stroke-linejoin="round"/><polyline fill="none" points="23.51066718110509,-54.325306990375985 26.01066718111396,-54.99517997143902 27.840794200051217,-56.82530699035286 28.51066718114625,-59.32530699035315 27.840794200083213,-61.825306990362016 26.010667181169378,-63.65543400929927 23.510667181169083,-64.32530699039431 21.010667181160215,-63.65543400933127 19.180540162222957,-61.82530699041744 18.510667181127925,-59.32530699041715 19.180540162190958,-56.82530699040828 21.010667181104793,-54.99517997147102 23.510667181105088,-54.325306990375985" stroke="#ffa500" stroke-linecap="round" stroke-linejoin="round"/><polyline fill="none" points="8.07303763022412,4.1185650783267835 10.573037630232987,3.44869209726375 12.403164649170247,1.6185650783499166 13.073037630265281,-0.8814349216503765 12.403164649202248,-3.3814349216592445 10.573037630288415,-5.211561940596505 8.073037630288121,-5.881434921691541 5.573037630279252,-5.211561940628509 3.742910611341991,-3.3814349217146766 3.0730376302469544,-0.8814349217143835 3.7429106113099864,1.6185650782944854 5.573037630223819,3.448692097231747 8.073037630224112,4.118565078326784" stroke="#ffa500" stroke-linecap="round" stroke-linejoin="round"/><polyline fill="none" points="-122.32161203693522,53.50355691526537 -119.82161203692635,52.83368393420234 -117.99148501798909,51.003556915288506 -117.32161203689405,48.503556915288215 -117.99148501795709,46.00355691527935 -119.82161203687092,44.173429896342085 -122.32161203687122,43.503556915247046 -124.82161203688008,44.173429896310076 -126.65173905581734,46.00355691522391 -127.32161203691238,48.5035569152242 -126.65173905584936,51.00355691523308 -124.82161203693553,52.83368393417034 -122.32161203693524,53.50355691526538" stroke="#ffa500" stroke-linecap="round" stroke-linejoin="round"/><polyline fill="none" points="33.86778469907528,-57.929126468917424 36.367784699084154,-58.598999449980454 38.197911718021416,-60.42912646889428 38.867784699116456,-62.92912646889457 38.197911718053426,-65.42912646890345 36.3677846991396,-67.25925348784071 33.86778469913931,-67.92912646893575 31.367784699130436,-67.25925348787273 29.53765768019317,-65.4291264689589 28.867784699098127,-62.92912646895861 29.537657680161153,-60.42912646894973 31.36778469907498,-58.598999450012464 33.86778469907527,-57.929126468917424" stroke="#00f" stroke-linecap="round" stroke-linejoin="round"/><polyline fill="none" points="-161.83571023670314,-13.633444737431482 -159.33571023669427,-14.303317718494508 -157.505583217757,-16.13344473740834 -156.83571023666195,-18.633444737408634 -157.505583217725,-21.133444737417506 -159.33571023663882,-22.963571756354774 -161.8357102366391,-23.633444737449818 -164.33571023664797,-22.96357175638679 -166.16583725558525,-21.133444737472963 -166.83571023668028,-18.63344473747267 -166.16583725561725,-16.133444737463794 -164.33571023670342,-14.303317718526525 -161.83571023670314,-13.63344473743148" stroke="#ffa500" stroke-linecap="round" stroke-linejoin="round"/><polyline fill="none" points="-161.21581012864468,66.57966779547161 -158.7158101286358,65.90979481440858 -156.88568310969853,64.07966779549476 -156.2158101286035,61.579667795494466 -156.88568310966653,59.07966779548559 -158.71581012858036,57.24954077654832 -161.21581012858064,56.579667795453275 -163.7158101285895,57.2495407765163 -165.5459371475268,59.079667795430126 -166.21581012862183,61.57966779543042 -165.54593714755882,64.07966779543929 -163.715810128645,65.90979481437657 -161.2158101286447,66.57966779547162" stroke="#ffa500" stroke-linecap="round" stroke-linejoin="round"/><polyline fill="none" points="148.4359339045873,100.10122359652206 150.93593390459617,99.43135061545904 152.76606092353344,97.60122359654521 153.43593390462848,95.10122359654491 152.76606092356548,92.60122359653603 150.93593390465165,90.77109657759875 148.43593390465136,90.1012235965037 145.9359339046425,90.77109657756672 144.10580688570522,92.60122359648055 143.43593390461018,95.10122359648085 144.1058068856732,97.60122359648973 145.93593390458702,99.43135061542701 148.4359339045873,100.10122359652206" stroke="#ffa500" stroke-linecap="round" stroke-linejoin="round"/><polyline fill="none" points="-130.8352788534819,37.1638620572455 -128.33527885347303,36.49398907618249 -126.50515183453575,34.66386205726866 -125.8352788534407,32.16386205726837 -126.50515183450372,29.66386205725949 -128.33527885341755,27.833735038322214 -130.83527885341783,27.16386205722716 -133.3352788534267,27.83373503829018 -135.16540587236398,29.663862057204003 -135.83527885345902,32.1638620572043 -135.165405872396,34.66386205721317 -133.33527885348218,36.49398907615045 -130.8352788534819,37.1638620572455" stroke="#f00" stroke-linecap="round" stroke-linejoin="round"/><polyline fill="none" points="53.328799551202124,-96.73581630945876 55.828799551211,-97.40568929052178 57.658926570148274,-99.2358163094356 58.32879955124333,-101.7358163094359 57.65892657018031,-104.23581630944479 55.82879955126649,-106.06594332838206 53.3287995512662,-106.73581630947712 50.82879955125732,-106.06594332841411 48.99867253232004,-104.23581630950028 48.32879955122499,-101.73581630949998 48.998672532288005,-99.2358163094911 50.828799551201826,-97.40568929055382 53.32879955120212,-96.73581630945877" stroke="#ffa500" stroke-linecap="round" stroke-linejoin="round"/><polyline fill="none" points="132.50283302948702,-62.47968708778538 135.0028330294959,-63.149560068848395 136.83296004843316,-64.97968708776222 137.50283302952823,-67.47968708776251 136.83296004846522,-69.9796870877714 135.0028330295514,-71.80981410670867 132.5028330295511,-72.47968708780373 130.00283302954224,-71.80981410674072 128.17270601060497,-69.97968708782689 127.50283302950992,-67.47968708782659 128.17270601057294,-64.97968708781771 130.00283302948677,-63.149560068880426 132.50283302948705,-62.479687087785365" stroke="#ffa500" stroke-linecap="round" stroke-linejoin="round"/><polyline fill="none" points="152.35107844493652,-48.99164258417771 154.8510784449454,-49.66151556524072 156.68120546388266,-51.49164258415454 157.35107844497773,-53.99164258415483 156.68120546391472,-56.49164258416371 154.8510784450009,-58.321769603101 152.3510784450006,-58.99164258419606 149.8510784449917,-58.32176960313305 148.02095142605444,-56.49164258421923 147.35107844495937,-53.99164258421894 148.02095142602238,-51.491642584210055 149.8510784449362,-49.66151556527277 152.3510784449365,-48.99164258417771" stroke="#ffa500" stroke-linecap="round" stroke-linejoin="round"/><polyline fill="none" points="-123.69226971356464,40.20851244085646 -121.19226971355576,39.53863945979345 -119.36214269461847,37.70851244087963 -118.6922697135234,35.20851244087934 -119.36214269458641,32.70851244087046 -121.19226971350022,30.87838542193317 -123.69226971350052,30.208512440838106 -126.1922697135094,30.878385421901115 -128.02239673244668,32.708512440814935 -128.69226971354175,35.20851244081523 -128.02239673247874,37.70851244082411 -126.19226971356493,39.5386394597614 -123.69226971356463,40.20851244085647" stroke="#00f" stroke-linecap="round" stroke-linejoin="round"/><polyline fill="none" points="110.0831450214217,-100.55644990330308 112.58314502143058,-101.22632288436608 114.41327204036787,-103.0564499032799 115.08314502146294,-105.5564499032802 114.41327204039993,-108.05644990328908 112.58314502148612,-109.88657692222637 110.08314502148582,-110.55644990332144 107.58314502147694,-109.88657692225843 105.75301800253965,-108.05644990334461 105.08314502144458,-105.55644990334432 105.75301800250759,-103.05644990333543 107.5831450214214,-101.22632288439814 110.0831450214217,-100.55644990330308" stroke="#ffa500" stroke-linecap="round" stroke-linejoin="round"/><polyline fill="none" points="111.94314506802436,-8.777732285261466 114.44314506803325,-9.44760526632447 116.27327208697054,-11.277732285238285 116.9431450680656,-13.777732285238578 116.2732720870026,-16.277732285247463 114.44314506808878,-18.107859304184753 111.94314506808848,-18.777732285279825 109.4431450680796,-18.107859304216824 107.61301804914231,-16.277732285303006 106.94314506804724,-13.777732285302713 107.61301804911025,-11.277732285293826 109.44314506802407,-9.447605266356534 111.94314506802436,-8.777732285261463" stroke="#ffa500" stroke-linecap="round" stroke-linejoin="round"/><polyline fill="none" points="135.19305787424165,92.67209698841695 137.69305787425054,92.00222400735395 139.52318489318785,90.17209698844013 140.1930578742829,87.67209698843983 139.5231848932199,85.17209698843095 137.69305787430608,83.34196996949366 135.1930578743058,82.6720969883986 132.6930578742969,83.34196996946159 130.8629308553596,85.1720969883754 130.19305787426453,87.6720969883757 130.86293085532753,90.17209698838458 132.69305787424133,92.00222400732187 135.19305787424162,92.67209698841694" stroke="#ffa500" stroke-linecap="round" stroke-linejoin="round"/><polyline fill="none" points="21.588328139095474,151.5943060816549 24.088328139104362,150.9244331005919 25.918455158041656,149.0943060816781 26.58832813913673,146.59430608167781 25.918455158073733,144.09430608166892 24.08832813915992,142.2641790627316 21.58832813915963,141.59430608163655 19.08832813915074,142.26417906269955 17.258201120213442,144.09430608161335 16.588328139118364,146.59430608161364 17.25820112018136,149.09430608162253 19.088328139095175,150.92443310055984 21.588328139095466,151.5943060816549" stroke="#ffa500" stroke-linecap="round" stroke-linejoin="round"/><polyline fill="none" points="-106.20291481960787,-19.72364504611824 -103.70291481959897,-20.393518027181237 -101.87278780066167,-22.223645046095047 -101.20291481956659,-24.723645046095342 -101.87278780062958,-27.22364504610423 -103.7029148195434,-29.053772065041528 -106.2029148195437,-29.723645046136607 -108.70291481955259,-29.053772065073613 -110.5330418384899,-27.223645046159803 -111.20291481958498,-24.72364504615951 -110.53304183852198,-22.223645046150622 -108.70291481960817,-20.39351802721332 -106.20291481960787,-19.72364504611824" stroke="#00f" stroke-linecap="round" stroke-linejoin="round"/><polyline fill="none" points="-174.87405359036654,59.466685570992844 -172.37405359035765,58.79681258992985 -170.54392657142034,56.96668557101604 -169.87405359032527,54.46668557101575 -170.54392657138825,51.96668557100686 -172.37405359030205,50.13655855206956 -174.87405359030234,49.46668557097448 -177.37405359031123,50.13655855203747 -179.20418060924854,51.96668557095128 -179.87405359034364,54.46668557095157 -179.20418060928066,56.966685570960465 -177.37405359036686,58.79681258989777 -174.87405359036657,59.46668557099285" stroke="#00f" stroke-linecap="round" stroke-linejoin="round"/><polyline fill="none" points="121.86346270671207,129.39692575831384 124.36346270672097,128.72705277725086 126.19358972565827,126.89692575833705 126.86346270675335,124.39692575833675 126.19358972569036,121.89692575832785 124.36346270677655,120.06679873939055 121.86346270677625,119.39692575829547 119.36346270676735,120.06679873935846 117.53333568783005,121.89692575827227 116.86346270673496,124.39692575827257 117.53333568779796,126.89692575828147 119.36346270671177,128.72705277721877 121.86346270671207,129.39692575831387" stroke="#ffa500" stroke-linecap="round" stroke-linejoin="round"/><polyline fill="none" points="-81.36428822357206,85.7776064589496 -78.86428822356316,85.10773347788661 -77.03416120462586,83.2776064589728 -76.36428822353078,80.7776064589725 -77.03416120459377,78.2776064589636 -78.86428822350759,76.4474794400263 -81.36428822350788,75.77760645893122 -83.86428822351678,76.44747943999421 -85.69441524245408,78.27760645890802 -86.36428822354917,80.77760645890832 -85.69441524248617,83.27760645891722 -83.86428822357237,85.10773347785452 -81.36428822357207,85.7776064589496" stroke="#ffa500" stroke-linecap="round" stroke-linejoin="round"/><polyline fill="none" points="-86.9631276469275,-15.394120060567733 -84.46312764691861,-16.06399304163072 -82.6330006279813,-17.894120060544527 -81.9631276468862,-20.39412006054482 -82.63300062794919,-22.894120060553718 -84.46312764686299,-24.724247079491025 -86.96312764686328,-25.394120060586115 -89.46312764687218,-24.724247079523128 -91.29325466580949,-22.89412006060932 -91.96312764690458,-20.394120060609026 -91.2932546658416,-17.89412006060013 -89.4631276469278,-16.063993041662822 -86.9631276469275,-15.394120060567731" stroke="#00f" stroke-linecap="round" stroke-linejoin="round"/><polyline fill="none" points="103.5624108030199,-20.612770810923177 106.0624108030288,-21.28264379198616 107.8925378219661,-23.112770810899967 108.5624108030612,-25.612770810900262 107.89253782199822,-28.112770810909158 106.06241080308442,-29.942897829846466 103.56241080308412,-30.61277081094156 101.06241080307522,-29.942897829878575 99.23228378413792,-28.112770810964772 98.56241080304282,-25.612770810964477 99.2322837841058,-23.11277081095558 101.0624108030196,-21.28264379201827 103.5624108030199,-20.612770810923177" stroke="#ffa500" stroke-linecap="round" stroke-linejoin="round"/><polyline fill="none" points="60.46359752383412,26.87011506540752 62.96359752384301,26.200242084344538 64.79372454278032,24.370115065430735 65.46359752387542,21.87011506543044 64.79372454281244,19.37011506542154 62.96359752389864,17.53998804648423 60.46359752389835,16.870115065389133 57.963597523889455,17.539988046452113 56.13347050495214,19.370115065365916 55.46359752385705,21.870115065366207 56.13347050492003,24.370115065375106 57.963597523833826,26.20024208431242 60.46359752383412,26.870115065407518" stroke="#00f" stroke-linecap="round" stroke-linejoin="round"/><polyline fill="none" points="62.9432823268498,99.81741339666719 65.4432823268587,99.14754041560421 67.27340934579601,97.31741339669041 67.94328232689111,94.81741339669011 67.27340934582813,92.31741339668122 65.44328232691433,90.4872863777439 62.94328232691404,89.8174133966488 60.443282326905134,90.48728637771178 58.613155307967816,92.31741339662558 57.94328232687272,94.81741339662588 58.6131553079357,97.31741339663478 60.4432823268495,99.1475404155721 62.94328232684979,99.81741339666719" stroke="#ffa500" stroke-linecap="round" stroke-linejoin="round"/><polyline fill="none" points="-80.77270396633664,-32.924902968254095 -78.27270396632774,-33.594775949317075 -76.44257694739042,-35.424902968230874 -75.77270396629532,-37.924902968231166 -76.4425769473583,-40.42490296824007 -78.2727039662721,-42.25502998717739 -80.7727039662724,-42.92490296827249 -83.2727039662813,-42.25502998720952 -85.10283098521862,-40.42490296829572 -85.77270396631371,-37.92490296829543 -85.10283098525073,-35.424902968286524 -83.27270396633693,-33.594775949349206 -80.77270396633664,-32.9249029682541" stroke="#ffa500" stroke-linecap="round" stroke-linejoin="round"/><polyline fill="none" points="-40.05753617176749,-37.484609730962745 -37.557536171758585,-38.15448271202572 -35.72740915282127,-39.98460973093952 -35.05753617172616,-42.48460973093981 -35.727409152789136,-44.98460973094871 -37.557536171702935,-46.81473674988603 -40.05753617170323,-47.484609730981134 -42.55753617171213,-46.81473674991816 -44.38766319064945,-44.98460973100436 -45.05753617174455,-42.48460973100407 -44.38766319068158,-39.98460973099517 -42.55753617176778,-38.15448271205785 -40.05753617176749,-37.484609730962745" stroke="#ffa500" stroke-linecap="round" stroke-linejoin="round"/><polyline fill="none" points="-65.6694024567316,34.70994974940378 -63.1694024567227,34.04007676834081 -61.33927543778538,32.20994974942701 -60.66940245669028,29.70994974942672 -61.33927543775325,27.209949749417817 -63.16940245666705,25.379822730480495 -65.66940245666734,24.709949749385387 -68.16940245667625,25.37982273044836 -69.99952947561357,27.209949749362156 -70.66940245670868,29.70994974936245 -69.99952947564572,32.209949749371354 -68.16940245673192,34.04007676830868 -65.66940245673162,34.70994974940379" stroke="#ffa500" stroke-linecap="round" stroke-linejoin="round"/><polyline fill="none" points="49.82048468833501,75.24782318615392 52.32048468834391,74.57795020509096 54.150611707281236,72.74782318617716 54.82048468837635,70.24782318617686 54.15061170731338,67.74782318616795 52.32048468839958,65.91769616723063 49.82048468839929,65.24782318613552 47.32048468839039,65.91769616719849 45.49035766945306,67.74782318611229 44.82048468835795,70.24782318611258 45.490357669420916,72.7478231861215 47.32048468833471,74.57795020505881 49.820484688335,75.24782318615392" stroke="#00f" stroke-linecap="round" stroke-linejoin="round"/><polyline fill="none" points="-36.577256443579536,131.39176261695133 -34.07725644357063,130.72188963588835 -32.24712942463331,128.89176261697455 -31.577256443538197,126.39176261697425 -32.24712942460116,123.89176261696534 -34.077256443514955,122.061635598028 -36.577256443515246,121.3917626169329 -39.077256443524156,122.06163559799586 -40.90738346246148,123.89176261690966 -41.57725644355659,126.39176261690996 -40.90738346249363,128.89176261691887 -39.077256443579834,130.7218896358562 -36.57725644357954,131.39176261695133" stroke="#ffa500" stroke-linecap="round" stroke-linejoin="round"/><polyline fill="none" points="-85.89368299673207,36.52986175740236 -83.39368299672316,35.85998877633939 -81.56355597778582,34.0298617574256 -80.89368299669071,31.52986175742531 -81.56355597775368,29.029861757416402 -83.39368299666748,27.199734738479073 -85.89368299666778,26.52986175738396 -88.39368299667669,27.19973473844692 -90.22381001561402,29.029861757360713 -90.89368299670913,31.529861757361008 -90.22381001564617,34.029861757369915 -88.39368299673237,35.85998877630725 -85.89368299673207,36.529861757402365" stroke="#00f" stroke-linecap="round" stroke-linejoin="round"/><polyline fill="none" points="-146.81274041488442,78.2987662235765 -144.31274041487552,77.62889324251353 -142.4826133959382,75.79876622359974 -141.81274041484306,73.29876622359944 -142.48261339590601,70.79876622359053 -144.3127404148198,68.9686392046532 -146.8127404148201,68.29876622355808 -149.312740414829,68.96863920462104 -151.14286743376633,70.79876622353483 -151.81274041486145,73.29876622353513 -151.1428674337985,75.79876622354404 -149.3127404148847,77.62889324248137 -146.81274041488442,78.2987662235765" stroke="#ffa500" stroke-linecap="round" stroke-linejoin="round"/><polyline fill="none" points="38.54766487401612,12.468690238504507 41.04766487402503,11.798817257441547 42.877791892962364,9.968690238527756 43.54766487405748,7.468690238527463 42.87779189299452,4.968690238518553 41.04766487408073,3.1385632195812194 38.54766487408044,2.4686902384860985 36.04766487407153,3.1385632195490567 34.217537855134196,4.968690238462846 33.54766487403907,7.4686902384631395 34.21753785510203,9.96869023847205 36.04766487401582,11.798817257409386 38.547664874016114,12.468690238504509" stroke="#ffa500" stroke-linecap="round" stroke-linejoin="round"/><polyline fill="none" points="-110.44079704251828,20.675565203542334 -107.94079704250937,20.00569222247938 -106.11067002357204,18.17556520356559 -105.44079704247692,15.675565203565297 -106.11067002353987,13.175565203556385 -107.94079704245365,11.345438184619049 -110.44079704245395,10.675565203523924 -112.94079704246286,11.345438184586879 -114.7709240614002,13.175565203500666 -115.44079704249532,15.675565203500959 -114.77092406143237,18.175565203509873 -112.94079704251858,20.005692222447212 -110.44079704251828,20.675565203542337" stroke="#008000" stroke-linecap="round" stroke-linejoin="round"/><polyline fill="none" points="-108.28234306784574,-6.729692236681869 -105.78234306783683,-7.399565217744823 -103.9522160488995,-9.229692236658611 -103.28234306780438,-11.729692236658904 -103.95221604886733,-14.229692236667818 -105.78234306778111,-16.059819255605156 -108.28234306778141,-16.729692236700284 -110.78234306779032,-16.05981925563733 -112.61247008672765,-14.229692236723542 -113.28234306782278,-11.729692236723249 -112.61247008675983,-9.229692236714335 -110.78234306784604,-7.399565217776995 -108.28234306784574,-6.729692236681867" stroke="#00f" stroke-linecap="round" stroke-linejoin="round"/><polyline fill="none" points="2.537038783896438,139.2220666676914 5.037038783905354,138.55219368662844 6.867165802842695,136.72206666771464 7.537038783937824,134.22206666771436 6.867165802874871,131.72206666770543 5.037038783961084,129.8919396487681 2.53703878396079,129.22206666767298 0.037038783951873544,129.89193964873593 -1.7930882349854695,131.72206666764973 -2.4629612160806,134.22206666765 -1.793088235017649,136.72206666765894 0.03703878389613702,138.55219368659627 2.5370387838964312,139.2220666676914" stroke="#00f" stroke-linecap="round" stroke-linejoin="round"/><polyline fill="none" points="-136.98595742202298,45.465637294978926 -134.48595742201405,44.795764313915974 -132.65583040307672,42.96563729500219 -131.9859574219816,40.4656372950019 -132.65583040304455,37.96563729499298 -134.48595742195835,36.13551027605563 -136.98595742195863,35.4656372949605 -139.48595742196756,36.13551027602345 -141.3160844409049,37.96563729493724 -141.985957422,40.46563729493753 -141.31608444093706,42.96563729494645 -139.4859574220233,44.795764313883794 -136.985957422023,45.465637294978926" stroke="#00f" stroke-linecap="round" stroke-linejoin="round"/><polyline fill="none" points="78.50062598404772,102.45259492521792 81.00062598405664,101.78272194415497 82.83075300299399,99.95259492524119 83.50062598408913,97.45259492524089 82.83075300302617,94.95259492523196 81.00062598411239,93.12246790629462 78.50062598411209,92.45259492519948 76.00062598410317,93.12246790626243 74.17049896516582,94.95259492517621 73.50062598407068,97.45259492517651 74.17049896513363,99.95259492518544 76.00062598404742,101.78272194412278 78.50062598404772,102.45259492521792" stroke="#ffa500" stroke-linecap="round" stroke-linejoin="round"/><polyline fill="none" points="-91.54256464779066,82.52318299871547 -89.04256464778173,81.85331001765252 -87.21243762884438,80.02318299873873 -86.54256464774924,77.52318299873843 -87.2124376288122,75.02318299872951 -89.04256464772598,73.19305597979216 -91.54256464772628,72.52318299869702 -94.0425646477352,73.19305597975998 -95.87269166667255,75.02318299867376 -96.54256464776769,77.52318299867406 -95.87269166670475,80.02318299868298 -94.04256464779097,81.85331001762033 -91.54256464779067,82.52318299871547" stroke="#ffa500" stroke-linecap="round" stroke-linejoin="round"/><polyline fill="none" points="63.60528725626302,-54.08113660700617 66.10528725627194,-54.75100958806912 67.93541427520928,-56.581136606982895 68.60528725630442,-59.081136606983186 67.93541427524148,-61.581136606992104 66.1052872563277,-63.41126362592945 63.60528725632741,-64.08113660702459 61.10528725631849,-63.411263625961645 59.27516023738114,-61.58113660704787 58.605287256286,-59.081136607047576 59.27516023734894,-56.58113660703865 61.10528725626272,-54.7510095881013 63.60528725626301,-54.08113660700616" stroke="#ffa500" stroke-linecap="round" stroke-linejoin="round"/><polyline fill="none" points="-77.93617399933812,140.22061509084378 -75.4361739993292,139.55074210978083 -73.60604698039185,137.72061509086706 -72.93617399929671,135.22061509086677 -73.60604698035965,132.72061509085785 -75.43617399927344,130.8904880719205 -77.93617399927373,130.22061509082533 -80.43617399928266,130.89048807188829 -82.26630101822,132.72061509080206 -82.93617399931514,135.22061509080234 -82.26630101825221,137.72061509081126 -80.43617399933842,139.55074210974863 -77.93617399933812,140.22061509084378" stroke="#ffa500" stroke-linecap="round" stroke-linejoin="round"/><polyline fill="none" points="82.67269797011647,-10.49302763779885 85.1726979701254,-11.162900618861789 87.00282498906276,-12.993027637775567 87.6726979701579,-15.49302763777586 87.00282498909496,-17.993027637784785 85.17269797018118,-19.82315465672214 82.67269797018088,-20.493027637817285 80.17269797017195,-19.823154656754348 78.34257095123459,-17.99302763784057 77.67269797013944,-15.493027637840274 78.34257095120238,-12.99302763783135 80.17269797011615,-11.162900618893993 82.67269797011645,-10.493027637798846" stroke="#ffa500" stroke-linecap="round" stroke-linejoin="round"/><polyline fill="none" points="-135.03773109692605,28.03854103499671 -132.53773109691713,27.368668053933774 -130.70760407797977,25.538541035019996 -130.0377310968846,23.0385410350197 -130.70760407794754,20.538541035010777 -132.5377310968613,18.70841401607342 -135.0377310968616,18.038541034978273 -137.53773109687052,18.70841401604121 -139.36785811580788,20.53854103495499 -140.03773109690303,23.03854103495528 -139.3678581158401,25.538541034964204 -137.53773109692634,27.368668053901562 -135.03773109692605,28.03854103499671" stroke="#008000" stroke-linecap="round" stroke-linejoin="round"/><polyline fill="none" points="-123.05314716947585,67.75149838953857 -120.55314716946692,67.08162540847563 -118.72302015052956,65.25149838956186 -118.05314716943441,62.75149838956157 -118.72302015049735,60.251498389552644 -120.55314716941112,58.42137137061528 -123.05314716941142,57.75149838952013 -125.55314716942034,58.42137137058306 -127.3832741883577,60.25149838949684 -128.05314716945284,62.75149838949713 -127.3832741883899,65.25149838950605 -125.55314716947613,67.08162540844341 -123.05314716947584,67.75149838953857" stroke="#00f" stroke-linecap="round" stroke-linejoin="round"/><polyline fill="none" points="-78.47179787240667,31.556100710490963 -75.97179787239774,30.886227729428033 -74.14167085346038,29.056100710514258 -73.47179787236523,26.556100710513967 -74.14167085342817,24.05610071050504 -75.97179787234194,22.225973691567674 -78.47179787234224,21.55610071047252 -80.97179787235116,22.22597369153545 -82.80192489128852,24.056100710449225 -83.47179787238368,26.55610071044952 -82.80192489132075,29.05610071045845 -80.97179787240698,30.886227729395813 -78.47179787240668,31.55610071049097" stroke="#ffa500" stroke-linecap="round" stroke-linejoin="round"/><polyline fill="none" points="112.56936250658642,106.17163949228842 115.06936250659534,105.5017665112255 116.8994895255327,103.67163949231173 117.56936250662785,101.17163949231143 116.89948952556493,98.6716394923025 115.06936250665116,96.84151247336514 112.56936250665086,96.17163949226999 110.06936250664194,96.84151247333291 108.23923548770458,98.67163949224668 107.56936250660942,101.17163949224698 108.23923548767235,103.6716394922559 110.06936250658612,105.50176651119327 112.56936250658642,106.17163949228842" stroke="#00f" stroke-linecap="round" stroke-linejoin="round"/><polyline fill="none" points="-179.0339274000411,-46.18184945148608 -176.53392740003218,-46.85172243254901 -174.70380038109482,-48.68184945146278 -174.03392739999967,-51.18184945146307 -174.7038003810626,-53.681849451472004 -176.53392739997636,-55.51197647040937 -179.03392739997665,-56.18184945150453 -181.53392739998557,-55.51197647044161 -183.36405441892293,-53.68184945152784 -184.0339274000181,-51.18184945152755 -183.36405441895516,-48.681849451518616 -181.5339274000414,-46.85172243258125 -179.0339274000411,-46.18184945148609" stroke="#ffa500" stroke-linecap="round" stroke-linejoin="round"/><polyline fill="none" points="-95.16352386955482,105.59681336650995 -92.66352386954588,104.92694038544703 -90.83339685060851,103.09681336653325 -90.16352386951334,100.59681336653296 -90.83339685057626,98.09681336652402 -92.66352386949004,96.26668634758664 -95.16352386949033,95.59681336649147 -97.66352386949927,96.2666863475544 -99.49365088843665,98.09681336646817 -100.16352386953182,100.59681336646847 -99.49365088846889,103.0968133664774 -97.66352386955512,104.92694038541478 -95.16352386955482,105.59681336650995" stroke="#ffa500" stroke-linecap="round" stroke-linejoin="round"/><polyline fill="none" points="-182.42205762222187,59.98556123757618 -179.92205762221295,59.315688256513255 -178.09193060327559,57.485561237599484 -177.42205762218043,54.98556123759919 -178.09193060324336,52.48556123759026 -179.92205762215713,50.655434218652886 -182.4220576221574,49.98556123755772 -184.92205762216634,50.65543421862064 -186.7521846411037,52.48556123753441 -187.42205762219885,54.985561237534704 -186.75218464113593,57.485561237543635 -184.92205762222216,59.31568825648101 -182.42205762222187,59.98556123757618" stroke="#ffa500" stroke-linecap="round" stroke-linejoin="round"/><polyline fill="none" points="-114.62086792099971,22.746595325369277 -112.12086792099078,22.076722344306358 -110.2907409020534,20.24659532539259 -109.62086792095823,17.7465953253923 -110.29074090202116,15.246595325383364 -112.12086792093493,13.416468306445989 -114.62086792093523,12.746595325350821 -117.12086792094416,13.416468306413739 -118.95099493988154,15.246595325327506 -119.6208679209767,17.7465953253278 -118.95099493991378,20.246595325336735 -117.12086792100001,22.07672234427411 -114.62086792099971,22.746595325369277" stroke="#008000" stroke-linecap="round" stroke-linejoin="round"/><polyline fill="none" points="-160.70037156740662,-36.96678583145737 -158.2003715673977,-37.63665881252029 -156.3702445484603,-39.46678583143405 -155.70037156736512,-41.96678583143434 -156.37024454842805,-44.46678583144328 -158.20037156734182,-46.29691285038066 -160.7003715673421,-46.966785831475825 -163.20037156735103,-46.29691285041291 -165.03049858628842,-44.466785831499145 -165.7003715673836,-41.966785831498854 -165.03049858632068,-39.466785831489915 -163.2003715674069,-37.63665881255254 -160.70037156740662,-36.966785831457365" stroke="#ffa500" stroke-linecap="round" stroke-linejoin="round"/><polyline fill="none" points="-127.05420470646824,-15.664829520417165 -124.5542047064593,-16.33470250148008 -122.72407768752193,-18.164829520393845 -122.05420470642676,-20.66482952039414 -122.72407768748967,-23.164829520403075 -124.55420470640344,-24.994956539340453 -127.05420470640374,-25.664829520435628 -129.55420470641266,-24.994956539372716 -131.38433172535005,-23.16482952045895 -132.05420470644523,-20.66482952045866 -131.3843317253823,-18.16482952044972 -129.55420470646854,-16.33470250151234 -127.05420470646824,-15.664829520417165" stroke="#00f" stroke-linecap="round" stroke-linejoin="round"/><polyline fill="none" points="54.60418590068756,-87.31628456414141 57.1041859006965,-87.98615754520432 58.93431291963388,-89.81628456411808 59.60418590072906,-92.31628456411838 58.93431291966615,-94.81628456412732 57.104185900752384,-96.6464115830647 54.60418590075209,-97.31628456415989 52.104185900743154,-96.64641158309698 50.27405888180577,-94.81628456418322 49.6041859007106,-92.31628456418292 50.274058881773506,-89.81628456417398 52.10418590068727,-87.9861575452366 54.60418590068756,-87.31628456414141" stroke="#00f" stroke-linecap="round" stroke-linejoin="round"/><polyline fill="none" points="-153.86988174019632,13.890156133737463 -151.36988174018737,13.220283152674554 -149.53975472124998,11.390156133760792 -148.8698817401548,8.890156133760499 -149.5397547212177,6.390156133751558 -151.36988174013146,4.560029114814173 -153.86988174013175,3.8901561337189943 -156.3698817401407,4.560029114781902 -158.2000087590781,6.390156133695664 -158.86988174017327,8.890156133695957 -158.20000875911037,11.390156133704899 -156.3698817401966,13.220283152642285 -153.86988174019632,13.890156133737465" stroke="#00f" stroke-linecap="round" stroke-linejoin="round"/><polyline fill="none" points="33.79664818724407,92.08464558802466 36.296648187253005,91.41477260696175 38.126775206190395,89.58464558804799 38.79664818728558,87.08464558804769 38.12677520622267,84.58464558803875 36.29664818730891,82.75451856910136 33.79664818730862,82.08464558800618 31.296648187299677,82.75451856906909 29.46652116836229,84.58464558798285 28.79664818726711,87.08464558798315 29.466521168330015,89.58464558799209 31.296648187243775,91.41477260692947 33.79664818724407,92.08464558802466" stroke="#ffa500" stroke-linecap="round" stroke-linejoin="round"/><polyline fill="none" points="-105.73859480484154,50.11570520607193 -103.2385948048326,49.44583222500903 -101.40846778589521,47.61570520609527 -100.73859480480003,45.11570520609498 -101.40846778586294,42.615705206086034 -103.2385948047767,40.785578187148644 -105.738594804777,40.11570520605346 -108.23859480478593,40.785578187116364 -110.06872182372332,42.61570520603012 -110.7385948048185,45.11570520603041 -110.0687218237556,47.61570520603936 -108.23859480484184,49.44583222497675 -105.73859480484154,50.11570520607194" stroke="#008000" stroke-linecap="round" stroke-linejoin="round"/><polyline fill="none" points="63.196032214811105,55.249419301467555 65.69603221482005,54.57954632040465 67.52615923375744,52.749419301490896 68.19603221485262,50.249419301490605 67.52615923378971,47.74941930148166 65.69603221487596,45.91929228254427 63.196032214875665,45.24941930144908 60.69603221486672,45.91929228251198 58.86590519592933,47.74941930142574 58.19603221483414,50.24941930142603 58.86590519589704,52.749419301434976 60.6960322148108,54.57954632037237 63.19603221481109,55.24941930146756" stroke="#ffa500" stroke-linecap="round" stroke-linejoin="round"/><polyline fill="none" points="27.011067165996415,-139.49627408679254 29.51106716600536,-140.16614706785543 31.341194184942754,-141.9962740867692 32.01106716603795,-144.4962740867695 31.341194184975045,-146.99627408677844 29.511067166061288,-148.82640110571583 27.011067166060993,-149.496274086811 24.511067166052047,-148.82640110574812 22.680940147114654,-146.99627408683438 22.011067166019465,-144.4962740868341 22.680940147082364,-141.99627408682514 24.51106716599612,-140.16614706788775 27.011067165996415,-139.49627408679257" stroke="#ffa500" stroke-linecap="round" stroke-linejoin="round"/><polyline fill="none" points="-17.085990944473753,127.31915763985296 -14.585990944464806,126.64928465879007 -12.755863925527409,124.81915763987631 -12.085990944432217,122.31915763987601 -12.755863925495115,119.81915763986706 -14.58599094440887,117.98903062092965 -17.085990944409165,117.31915763983446 -19.585990944418114,117.98903062089735 -21.41611796335551,119.81915763981111 -22.085990944450703,122.31915763981141 -21.416117963387805,124.81915763982036 -19.585990944474048,126.64928465875776 -17.085990944473753,127.31915763985296" stroke="#ffa500" stroke-linecap="round" stroke-linejoin="round"/><polyline fill="none" points="121.04472771425934,-92.22443603123448 123.54472771426829,-92.89430901229737 125.3748547332057,-94.72443603121113 126.04472771430089,-97.22443603121143 125.374854733238,-99.72443603122038 123.54472771432424,-101.55456305015778 121.04472771432394,-102.22443603125298 118.54472771431499,-101.55456305019008 116.71460069537758,-99.72443603127633 116.04472771428239,-97.22443603127603 116.71460069534528,-94.72443603126708 118.54472771425904,-92.89430901232967 121.04472771425934,-92.22443603123448" stroke="#ffa500" stroke-linecap="round" stroke-linejoin="round"/><polyline fill="none" points="14.592835921329431,-86.68282666753336 17.092835921338384,-87.35269964859626 18.922962940275784,-89.18282666751001 19.59283592137098,-91.68282666751031 18.922962940308086,-94.18282666751927 17.092835921394332,-96.01295368645667 14.592835921394038,-96.68282666755186 12.092835921385085,-96.01295368648897 10.262708902447681,-94.18282666757521 9.592835921352481,-91.68282666757491 10.262708902415374,-89.18282666756596 12.092835921329128,-87.35269964862856 14.592835921329423,-86.68282666753336" stroke="#ffa500" stroke-linecap="round" stroke-linejoin="round"/><polyline fill="none" points="86.91218420872484,-49.297134450659186 89.41218420873379,-49.96700743172208 91.2423112276712,-51.79713445063583 91.91218420876639,-54.29713445063613 91.2423112277035,-56.79713445064508 89.41218420878974,-58.627261469582486 86.91218420878944,-59.29713445067769 84.41218420878049,-58.6272614696148 82.58205718984308,-56.79713445070105 81.91218420874789,-54.29713445070075 82.58205718981078,-51.7971344506918 84.41218420872454,-49.967007431754396 86.91218420872484,-49.29713445065919" stroke="#00f" stroke-linecap="round" stroke-linejoin="round"/><polyline fill="none" points="141.5511267002089,-70.27972812555495 144.05112670021785,-70.94960110661785 145.88125371915527,-72.7797281255316 146.55112670025048,-75.2797281255319 145.88125371918758,-77.77972812554086 144.05112670027384,-79.60985514447826 141.55112670027356,-80.27972812557347 139.0511267002646,-79.60985514451058 137.22099968132719,-77.77972812559682 136.55112670023198,-75.27972812559652 137.22099968129487,-72.77972812558757 139.0511267002086,-70.94960110665016 141.5511267002089,-70.27972812555495" stroke="#00f" stroke-linecap="round" stroke-linejoin="round"/><polyline fill="none" points="-170.91559000867153,-27.278044468886037 -168.41559000866258,-27.947917449948925 -166.58546298972516,-29.778044468862674 -165.91559000862995,-32.27804446886297 -166.58546298969284,-34.778044468871926 -168.41559000860659,-36.60817148780934 -170.91559000860687,-37.27804446890454 -173.41559000861582,-36.60817148784165 -175.24571702755324,-34.7780444689279 -175.91559000864845,-32.278044468927604 -175.24571702758556,-29.778044468918647 -173.4155900086718,-27.947917449981237 -170.91559000867153,-27.27804446888603" stroke="#00f" stroke-linecap="round" stroke-linejoin="round"/><polyline fill="none" points="112.3482834839769,-65.04712884928605 114.84828348398585,-65.71700183034893 116.67841050292327,-67.54712884926268 117.34828348401848,-70.04712884926298 116.6784105029556,-72.54712884927193 114.84828348404186,-74.37725586820935 112.34828348404156,-75.04712884930456 109.8482834840326,-74.37725586824168 108.01815646509519,-72.54712884932793 107.34828348399998,-70.04712884932763 108.01815646506286,-67.54712884931868 109.8482834839766,-65.71700183038126 112.3482834839769,-65.04712884928605" stroke="#00f" stroke-linecap="round" stroke-linejoin="round"/><polyline fill="none" points="-92.32892274470619,-62.32616139938436 -89.82892274469724,-62.99603438044724 -87.99879572575982,-64.82616139936098 -87.32892274466461,-67.32616139936128 -87.99879572572749,-69.82616139937024 -89.82892274464123,-71.65628841830765 -92.32892274464153,-72.32616139940286 -94.82892274465048,-71.65628841833998 -96.6590497635879,-69.82616139942624 -97.32892274468311,-67.32616139942594 -96.65904976362023,-64.82616139941699 -94.82892274470649,-62.99603438047957 -92.32892274470619,-62.32616139938436" stroke="#ffa500" stroke-linecap="round" stroke-linejoin="round"/><polyline fill="none" points="-185.8996213598554,49.50494488764915 -183.39962135984644,48.83507190658627 -181.56949434090902,47.00494488767253 -180.8996213598138,44.50494488767223 -181.56949434087667,42.00494488766327 -183.39962135979042,40.17481786872585 -185.8996213597907,39.504944887630636 -188.39962135979965,40.174817868693516 -190.22974837873707,42.00494488760726 -190.89962135983228,44.50494488760756 -190.22974837876941,47.00494488761652 -188.39962135985567,48.835071906553935 -185.8996213598554,49.50494488764915" stroke="#ffa500" stroke-linecap="round" stroke-linejoin="round"/><polyline fill="none" points="-64.3608305266684,41.114337339699475 -61.860830526659434,40.444464358636594 -60.030703507722016,38.61433733972285 -59.3608305266268,36.11433733972255 -60.03070350768968,33.61433733971359 -61.86083052660342,31.784210320776175 -64.36083052660372,31.114337339680958 -66.86083052661269,31.784210320743835 -68.6909575455501,33.61433733965758 -69.36083052664533,36.11433733965788 -68.69095754558245,38.61433733966684 -66.8608305266687,40.44446435860426 -64.36083052666841,41.114337339699475" stroke="#00f" stroke-linecap="round" stroke-linejoin="round"/><polyline fill="none" points="-129.4850909469484,30.722716328190792 -126.98509094693942,30.052843347127915 -125.154963928002,28.222716328214172 -124.48509094690678,25.722716328213878 -125.15496392796966,23.222716328204914 -126.9850909468834,21.392589309267493 -129.4850909468837,20.72271632817227 -131.98509094689265,21.392589309235145 -133.81521796583007,23.222716328148888 -134.48509094692528,25.722716328149183 -133.81521796586242,28.222716328158146 -131.98509094694867,30.052843347095568 -129.4850909469484,30.72271632819079" stroke="#008000" stroke-linecap="round" stroke-linejoin="round"/><polyline fill="none" points="79.86555301453322,-19.397388582506547 82.36555301454219,-20.06726156356942 84.1956800334796,-21.897388582483163 84.86555301457483,-24.397388582483458 84.19568003351196,-26.89738858249242 82.36555301459822,-28.727515601429847 79.86555301459792,-29.397388582525068 77.36555301458895,-28.727515601462194 75.53542599565154,-26.89738858254845 74.86555301455631,-24.397388582548157 75.53542599561918,-21.897388582539193 77.36555301453292,-20.067261563601768 79.86555301453322,-19.397388582506544" stroke="#ffa500" stroke-linecap="round" stroke-linejoin="round"/><polyline fill="none" points="50.200034194918786,-125.69752684647733 52.70003419492775,-126.3673998275402 54.53016121386518,-128.19752684645394 55.2000341949604,-130.69752684645422 54.53016121389753,-133.19752684646318 52.700034194983786,-135.0276538654006 50.20003419498349,-135.69752684649583 47.70003419497452,-135.02765386543297 45.869907176037096,-133.19752684651922 45.20003419494187,-130.69752684651894 45.86990717600474,-128.19752684651 47.70003419491848,-126.36739982757256 50.20003419491878,-125.69752684647733" stroke="#ffa500" stroke-linecap="round" stroke-linejoin="round"/><polyline fill="none" points="-140.7479720124804,-9.539318731868118 -138.24797201247145,-10.209191712930986 -136.41784499353403,-12.039318731844725 -135.7479720124388,-14.539318731845022 -136.41784499350166,-17.03931873185399 -138.2479720124154,-18.869445750791417 -140.7479720124157,-19.539318731886645 -143.24797201242464,-18.86944575082378 -145.07809903136206,-17.03931873191004 -145.7479720124573,-14.539318731909745 -145.07809903139443,-12.039318731900778 -143.2479720124807,-10.209191712963348 -140.7479720124804,-9.539318731868118" stroke="#00f" stroke-linecap="round" stroke-linejoin="round"/><polyline fill="none" points="89.28435233811122,-79.31141160474668 91.78435233812019,-79.98128458580955 93.61447935705762,-81.81141160472329 94.28435233815284,-84.31141160472359 93.61447935708998,-86.81141160473256 91.78435233817623,-88.64153862366999 89.28435233817594,-89.31141160476523 86.78435233816697,-88.64153862370236 84.95422531922954,-86.81141160478862 84.2843523381343,-84.31141160478832 84.95422531919716,-81.81141160477935 86.7843523381109,-79.98128458584192 89.2843523381112,-79.31141160474668" stroke="#00f" stroke-linecap="round" stroke-linejoin="round"/><polyline fill="none" points="79.90537281443184,-47.77819407817852 82.40537281444081,-48.44806705924139 84.23549983337824,-50.278194078155124 84.90537281447348,-52.77819407815542 84.23549983341061,-55.27819407816439 82.40537281449687,-57.10832109710182 79.90537281449657,-57.77819407819705 77.4053728144876,-57.108321097134194 75.57524579555017,-55.27819407822046 74.90537281445494,-52.77819407822016 75.5752457955178,-50.278194078211186 77.40537281443153,-48.448067059273754 79.90537281443183,-47.778194078178515" stroke="#ffa500" stroke-linecap="round" stroke-linejoin="round"/><polyline fill="none" points="-171.49785686618472,33.07949155237495 -168.99785686617574,32.40961857131209 -167.1677298472383,30.579491552398352 -166.49785686614305,28.079491552398057 -167.16772984720592,25.579491552389086 -168.99785686611966,23.74936453345165 -171.49785686611995,23.079491552356412 -173.99785686612893,23.74936453341927 -175.82798388506637,25.579491552333007 -176.4978568661616,28.0794915523333 -175.82798388509875,30.579491552342272 -173.997856866185,32.40961857127971 -171.49785686618472,33.07949155237495" stroke="#ffa500" stroke-linecap="round" stroke-linejoin="round"/><polyline fill="none" points="-135.74917113161072,33.69922893426856 -133.24917113160174,33.0293559532057 -131.4190441126643,31.199228934291966 -130.74917113156906,28.69922893429167 -131.41904411263192,26.1992289342827 -133.24917113154567,24.36910191534526 -135.74917113154595,23.699228934250023 -138.24917113155493,24.369101915312882 -140.07929815049238,26.199228934226614 -140.74917113158762,28.69922893422691 -140.07929815052475,31.199228934235883 -138.249171131611,33.02935595317332 -135.74917113161072,33.69922893426856" stroke="#008000" stroke-linecap="round" stroke-linejoin="round"/><polyline fill="none" points="-68.01336676360927,31.59383104939994 -65.5133667636003,30.923958068337086 -63.68323974466286,29.093831049423354 -63.013366763567625,26.59383104942306 -63.68323974463048,24.093831049414085 -65.51336676354421,22.263704030476646 -68.01336676354451,21.593831049381404 -70.51336676355348,22.26370403044426 -72.34349378249092,24.09383104935799 -73.01336676358616,26.593831049358286 -72.34349378252331,29.09383104936726 -70.51336676360958,30.923958068304703 -68.01336676360928,31.593831049399945" stroke="#ffa500" stroke-linecap="round" stroke-linejoin="round"/><polyline fill="none" points="-119.32630361750502,-37.609193765921816 -116.82630361749604,-38.27906674698467 -114.99617659855859,-40.1091937658984 -114.32630361746335,-42.609193765898695 -114.9961765985262,-45.10919376590767 -116.82630361743993,-46.939320784845115 -119.32630361744023,-47.60919376594036 -121.82630361744921,-46.93932078487751 -123.65643063638666,-45.10919376596378 -124.32630361748191,-42.60919376596348 -123.65643063641906,-40.10919376595451 -121.82630361750533,-38.27906674701706 -119.32630361750503,-37.609193765921816" stroke="#ffa500" stroke-linecap="round" stroke-linejoin="round"/><polyline fill="none" points="-116.97495756519096,17.479004114146313 -114.47495756518198,16.80913113308346 -112.64483054624453,14.979004114169733 -111.97495756514928,12.479004114169436 -112.64483054621213,9.97900411416046 -114.47495756512586,8.148877095223014 -116.97495756512616,7.479004114127766 -119.47495756513514,8.148877095190615 -121.30508458407259,9.979004114104344 -121.97495756516784,12.47900411410464 -121.30508458410499,14.979004114113618 -119.47495756519126,16.809131133051064 -116.97495756519096,17.479004114146313" stroke="#00f" stroke-linecap="round" stroke-linejoin="round"/><polyline fill="none" points="-10.838606221645861,104.95273924137184 -8.338606221636883,104.28286626030899 -6.508479202699435,102.45273924139526 -5.838606221604185,99.95273924139497 -6.508479202667033,97.45273924138598 -8.338606221580761,95.62261222244854 -10.838606221581058,94.95273924135329 -13.338606221590037,95.62261222241614 -15.168733240527486,97.45273924132987 -15.838606221622737,99.95273924133016 -15.16873324055989,102.45273924133915 -13.338606221646163,104.28286626027659 -10.838606221645867,104.95273924137184" stroke="#ffa500" stroke-linecap="round" stroke-linejoin="round"/><polyline fill="none" points="-122.70365513662232,34.776936505349354 -120.20365513661334,34.10706352428651 -118.37352811767589,32.27693650537278 -117.70365513658064,29.776936505372483 -118.37352811764349,27.2769365053635 -120.20365513655722,25.44680948642605 -122.70365513655751,24.7769365053308 -125.2036551365665,25.446809486393644 -127.03378215550394,27.27693650530737 -127.7036551365992,29.776936505307667 -127.03378215553634,32.27693650531665 -125.20365513662261,34.1070635242541 -122.70365513662232,34.776936505349354" stroke="#ffa500" stroke-linecap="round" stroke-linejoin="round"/></svg>