<?xml version="1.0" ?><!DOCTYPE svg  PUBLIC '-//W3C//DTD SVG 1.1//EN'  'http://www.w3.org/Graphics/SVG/1.1/DTD/svg11.dtd'><svg height="234.000" viewBox="-183.000 -122.000 411.000 234.000" width="411.000" xmlns="http://www.w3.org/2000/svg"><line fill="none" stroke="none" stroke-linecap="round" stroke-width="2.0" x1="0.0" x2="0.0" y1="0.0" y2="0.0"/><polygon fill="none" fill-rule="evenodd" points="0.0,0.0 0.0,0.0 0.0,0.0" stroke-linejoin="round"/><polyline fill="none" points="-105.96114336997697,-29.370233710929092 -103.46114336996783,-30.040106691991678 -101.63101635103011,-31.870233710905257 -100.96114336993455,-34.37023371090556 -101.63101635099713,-36.8702337109147 -103.4611433699107,-38.70036072985241 -105.961143369911,-39.37023371094797 -108.46114336992014,-38.70036072988539 -110.29127038885785,-36.87023371097181 -110.96114336995342,-34.370233710971505 -110.29127038889084,-31.870233710962367 -108.46114336997726,-30.040106692024647 -105.96114336997697,-29.370233710929085" stroke="#00f" stroke-linecap="round" stroke-linejoin="round"/><polyline fill="none" points="-114.78240447516592,-52.66647564448596 -112.28240447515678,-53.336348625548545 -110.45227745621906,-55.166475644462125 -109.7824044751235,-57.66647564446243 -110.45227745618608,-60.16647564447157 -112.28240447509965,-61.99660266340929 -114.78240447509995,-62.66647564450486 -117.28240447510909,-61.996602663442275 -119.1125314940468,-60.166475644528695 -119.78240447514237,-57.66647564452839 -119.11253149407979,-55.16647564451925 -117.28240447516622,-53.33634862558153 -114.78240447516592,-52.66647564448596" stroke="#008000" stroke-linecap="round" stroke-linejoin="round"/><polyline fill="none" points="-89.82886905269079,-72.9709913858439 -87.32886905268165,-73.64086436690648 -85.49874203374394,-75.47099138582006 -84.82886905264837,-77.97099138582035 -85.49874203371095,-80.47099138582949 -87.32886905262453,-82.30111840476721 -89.82886905262482,-82.97099138586277 -92.32886905263396,-82.30111840480019 -94.15899607157169,-80.47099138588662 -94.82886905266726,-77.97099138588632 -94.15899607160468,-75.47099138587718 -92.3288690526911,-73.64086436693945 -89.8288690526908,-72.97099138584389" stroke="#ffa500" stroke-linecap="round" stroke-linejoin="round"/><polyline fill="none" points="-97.9107800475339,-54.02439543371723 -95.41078004752477,-54.694268414779806 -93.58065302858704,-56.52439543369338 -92.91078004749147,-59.024395433693684 -93.58065302855405,-61.52439543370283 -95.41078004746763,-63.35452245264055 -97.91078004746792,-64.02439543373612 -100.41078004747706,-63.35452245267354 -102.24090706641479,-61.52439543375997 -102.91078004751036,-59.024395433759665 -102.24090706644779,-56.52439543375052 -100.41078004753422,-54.69426841481279 -97.91078004753392,-54.02439543371722" stroke="#008000" stroke-linecap="round" stroke-linejoin="round"/><polyline fill="none" points="-120.28470096782726,-17.354057546790568 -117.78470096781813,-18.023930527853143 -115.9545739488804,-19.854057546766715 -115.28470096778483,-22.354057546767017 -115.9545739488474,-24.85405754677616 -117.78470096776097,-26.684184565713892 -120.28470096776127,-27.354057546809464 -122.7847009677704,-26.684184565746893 -124.61482798670814,-24.85405754683332 -125.28470096780372,-22.35405754683302 -124.61482798674115,-19.854057546823874 -122.78470096782758,-18.023930527886144 -120.28470096782728,-17.35405754679057" stroke="#00f" stroke-linecap="round" stroke-linejoin="round"/><polyline fill="none" points="-113.22919253305561,-80.67993312495769 -110.72919253304646,-81.34980610602025 -108.89906551410873,-83.17993312493383 -108.22919253301315,-85.67993312493412 -108.89906551407572,-88.17993312494328 -110.72919253298929,-90.010060143881 -113.22919253298959,-90.67993312497659 -115.72919253299874,-90.01006014391402 -117.55931955193647,-88.17993312500045 -118.22919253303205,-85.67993312500015 -117.55931955196948,-83.179933124991 -115.72919253305591,-81.34980610605326 -113.22919253305561,-80.67993312495769" stroke="#00f" stroke-linecap="round" stroke-linejoin="round"/><polyline fill="none" points="196.8753801468059,-100.32932624703092 199.37538014681505,-100.99919922809349 201.20550716575278,-102.82932624700706 201.87538014684836,-105.32932624700736 201.2055071657858,-107.82932624701651 199.37538014687223,-109.65945326595424 196.87538014687192,-110.32932624704982 194.37538014686277,-109.65945326598725 192.54525312792504,-107.82932624707368 191.87538014682946,-105.32932624707338 192.545253127892,-102.82932624706423 194.37538014680558,-100.9991992281265 196.8753801468059,-100.32932624703092" stroke="#ffa500" stroke-linecap="round" stroke-linejoin="round"/><polyline fill="none" points="-161.28772399986397,-70.0961161259008 -158.78772399985482,-70.76598910696337 -156.9575969809171,-72.59611612587695 -156.2877239998215,-75.09611612587724 -156.95759698088406,-77.5961161258864 -158.78772399979763,-79.42624314482413 -161.28772399979795,-80.0961161259197 -163.7877239998071,-79.42624314485714 -165.61785101874483,-77.59611612594357 -166.2877239998404,-75.09611612594327 -165.61785101877786,-72.59611612593412 -163.78772399986428,-70.76598910699637 -161.28772399986397,-70.09611612590079" stroke="#00f" stroke-linecap="round" stroke-linejoin="round"/><polyline fill="none" points="63.699528834584655,-3.8907171095304136 66.1995288345938,-4.560590090592976 68.02965585353155,-6.390717109506543 68.69952883462713,-8.890717109506845 68.02965585356456,-11.390717109515995 66.19952883465099,-13.220844128453734 63.699528834650685,-13.89071710954932 61.199528834641534,-13.220844128486757 59.369401815703796,-11.390717109573192 58.69952883460821,-8.89071710957289 59.36940181567077,-6.390717109563739 61.199528834584335,-4.560590090625998 63.69952883458464,-3.890717109530412" stroke="#ffa500" stroke-linecap="round" stroke-linejoin="round"/><polyline fill="none" points="211.45753361462212,-98.69391500116699 213.95753361463127,-99.36378798222954 215.787660633569,-101.19391500114311 216.45753361466458,-103.69391500114341 215.78766063360203,-106.19391500115256 213.95753361468846,-108.0240420200903 211.45753361468815,-108.6939150011859 208.957533614679,-108.02404202012335 207.12740659574126,-106.19391500120979 206.45753361464568,-103.69391500120949 207.12740659570824,-101.19391500120034 208.9575336146218,-99.3637879822626 211.45753361462212,-98.693915001167" stroke="#00f" stroke-linecap="round" stroke-linejoin="round"/><polyline fill="none" points="-86.36705464260741,-65.53263096164113 -83.86705464259826,-66.20250394270369 -82.03692762366052,-68.03263096161724 -81.36705464256492,-70.53263096161754 -82.03692762362748,-73.0326309616267 -83.86705464254104,-74.86275798056444 -86.36705464254133,-75.53263096166003 -88.86705464255049,-74.86275798059748 -90.69718166148823,-73.03263096168392 -91.36705464258382,-70.53263096168362 -90.69718166152127,-68.03263096167447 -88.86705464260771,-66.20250394273673 -86.36705464260741,-65.53263096164113" stroke="#00f" stroke-linecap="round" stroke-linejoin="round"/><polyline fill="none" points="33.70034375390354,23.86963632518918 36.20034375391269,23.199763344126627 38.030470772850435,21.369636325213065 38.70034375394603,18.869636325212763 38.030470772883476,16.369636325203608 36.20034375396991,14.53950930626586 33.700343753969605,13.869636325170266 31.20034375396045,14.53950930623282 29.3702167350227,16.36963632514638 28.700343753927108,18.869636325146683 29.37021673498966,21.369636325155838 31.200343753903223,23.199763344093586 33.700343753903525,23.86963632518918" stroke="#00f" stroke-linecap="round" stroke-linejoin="round"/><polyline fill="none" points="-59.26057377498539,-62.15595262662387 -56.76057377497623,-62.825825607686426 -54.93044675603848,-64.65595262659998 -54.260573774942884,-67.15595262660028 -54.93044675600544,-69.65595262660943 -56.760573774918996,-71.48607964554718 -59.260573774919294,-72.15595262664277 -61.76057377492845,-71.48607964558022 -63.590700793866205,-69.65595262666666 -64.2605737749618,-67.15595262666636 -63.590700793899245,-64.65595262665721 -61.76057377498569,-62.82582560771946 -59.26057377498539,-62.15595262662386" stroke="#ffa500" stroke-linecap="round" stroke-linejoin="round"/><polyline fill="none" points="-6.927105567622519,7.267468383645925 -4.427105567613362,6.597595402583375 -2.59697854867561,4.767468383669816 -1.927105567580012,2.267468383669514 -2.5969785486425616,-0.23253161633964314 -4.42710556755612,-2.062658635277396 -6.927105567556422,-2.732531616372995 -9.42710556756558,-2.062658635310446 -11.257232586503333,-0.23253161639688757 -11.927105567598932,2.2674683836034144 -11.257232586536384,4.767468383612572 -9.427105567622826,6.597595402550326 -6.927105567622524,7.267468383645927" stroke="#ffa500" stroke-linecap="round" stroke-linejoin="round"/><polyline fill="none" points="-56.86899449222877,-45.09664048926576 -54.36899449221961,-45.766513470328306 -52.53886747328186,-47.596640489241864 -51.86899449218626,-50.09664048924216 -52.53886747324881,-52.59664048925132 -54.368994492162365,-54.42676750818907 -56.86899449216267,-55.096640489284674 -59.36899449217183,-54.42676750822213 -61.19912151110959,-52.59664048930857 -61.86899449220519,-50.09664048930827 -61.19912151114264,-47.59664048929911 -59.368994492229085,-45.76651347036135 -56.86899449222878,-45.09664048926575" stroke="#ffa500" stroke-linecap="round" stroke-linejoin="round"/><polyline fill="none" points="-95.74716229171652,-77.39889513547662 -93.24716229170735,-78.06876811653916 -91.4170352727696,-79.89889513545272 -90.74716229167399,-82.39889513545302 -91.41703527273653,-84.89889513546218 -93.24716229165008,-86.72902215439994 -95.74716229165038,-87.39889513549555 -98.24716229165955,-86.72902215443301 -100.07728931059731,-84.89889513551945 -100.74716229169292,-82.39889513551915 -100.07728931063038,-79.89889513550999 -98.24716229171682,-78.06876811657223 -95.74716229171652,-77.39889513547662" stroke="#00f" stroke-linecap="round" stroke-linejoin="round"/><polyline fill="none" points="-103.30215653951389,-37.04989351402067 -100.80215653950472,-37.719766495083206 -98.97202952056696,-39.549893513996764 -98.30215653947135,-42.04989351399706 -98.9720295205339,-44.54989351400622 -100.80215653944745,-46.38002053294398 -103.30215653944775,-47.04989351403959 -105.80215653945692,-46.38002053297705 -107.63228355839468,-44.5498935140635 -108.30215653949028,-42.0498935140632 -107.63228355842774,-39.549893514054034 -105.80215653951419,-37.719766495116275 -103.30215653951389,-37.04989351402067" stroke="#00f" stroke-linecap="round" stroke-linejoin="round"/><polyline fill="none" points="-73.3310685101783,28.665050221050492 -70.83106851016913,27.995177239987953 -69.00094149123137,26.1650502210744 -68.33106851013576,23.665050221074097 -69.0009414911983,21.165050221064934 -70.83106851011186,19.33492320212717 -73.33106851011216,18.66505022103156 -75.83106851012133,19.3349232020941 -77.66119552905909,21.165050221007654 -78.3310685101547,23.665050221007956 -77.66119552909215,26.165050221017122 -75.8310685101786,27.995177239954884 -73.3310685101783,28.665050221050496" stroke="#ffa500" stroke-linecap="round" stroke-linejoin="round"/><polyline fill="none" points="-111.49763840456957,-82.35180909063331 -108.9976384045604,-83.02168207169585 -107.16751138562265,-84.85180909060941 -106.49763840452704,-87.3518090906097 -107.16751138558958,-89.85180909061887 -108.99763840450314,-91.68193610955663 -111.49763840450343,-92.35180909065224 -113.9976384045126,-91.6819361095897 -115.82776542345036,-89.85180909067614 -116.49763840454597,-87.35180909067584 -115.82776542348343,-84.85180909066668 -113.99763840456987,-83.0216820717289 -111.49763840456957,-82.3518090906333" stroke="#00f" stroke-linecap="round" stroke-linejoin="round"/><polyline fill="none" points="49.092638716807635,15.106199810716806 51.5926387168168,14.43632682965427 53.42276573575457,12.60619981074072 54.09263871685018,10.106199810740417 53.42276573578765,7.60619981073125 51.5926387168741,5.776072791793482 49.09263871687379,5.106199810697866 46.59263871686463,5.7760727917604004 44.76251169792686,7.60619981067395 44.092638716831246,10.106199810674253 44.76251169789378,12.606199810683421 46.59263871680733,14.43632682962119 49.092638716807635,15.106199810716808" stroke="#00f" stroke-linecap="round" stroke-linejoin="round"/><polyline fill="none" points="39.50431626512131,-8.231280642374792 42.00431626513048,-8.901153623437326 43.83444328406824,-10.731280642350875 44.50431626516386,-13.231280642351177 43.834443284101326,-15.731280642360344 42.004316265187775,-17.561407661298116 39.50431626518747,-18.231280642393735 37.0043162651783,-17.561407661331202 35.17418924624053,-15.731280642417653 34.50431626514491,-13.231280642417351 35.17418924620744,-10.731280642408183 37.00431626512099,-8.901153623470412 39.5043162651213,-8.231280642374792" stroke="#ffa500" stroke-linecap="round" stroke-linejoin="round"/><polyline fill="none" points="-148.86495304968417,-74.33096912182842 -146.364953049675,-75.00084210289094 -144.53482603073724,-76.83096912180449 -143.86495304964163,-79.33096912180478 -144.53482603070415,-81.83096912181395 -146.3649530496177,-83.66109614075172 -148.864953049618,-84.33096912184735 -151.3649530496272,-83.66109614078482 -153.19508006856495,-81.83096912187128 -153.86495304966056,-79.33096912187098 -153.19508006859803,-76.83096912186181 -151.3649530496845,-75.00084210292404 -148.86495304968417,-74.33096912182842" stroke="#ffa500" stroke-linecap="round" stroke-linejoin="round"/><polyline fill="none" points="75.90383927911749,3.1902082612981966 78.40383927912666,2.5203352802356678 80.23396629806443,0.6902082613221212 80.90383927916005,-1.8097917386781812 80.23396629809753,-4.309791738687352 78.40383927918398,-6.139918757625127 75.90383927918369,-6.809791738720751 73.40383927917452,-6.139918757658224 71.57371226023675,-4.309791738744678 70.90383927914112,-1.8097917387443752 71.57371226020365,0.6902082612647957 73.4038392791172,2.5203352802025716 75.90383927911749,3.1902082612981975" stroke="#ffa500" stroke-linecap="round" stroke-linejoin="round"/><polyline fill="none" points="-96.94695634273678,-28.637573221012957 -94.44695634272762,-29.307446202075482 -92.61682932378984,-31.137573220989026 -91.94695634269422,-33.63757322098933 -92.61682932375675,-36.137573220998505 -94.44695634267029,-37.967700239936285 -96.94695634267059,-38.637573221031914 -99.44695634267975,-37.96770023996939 -101.27708336161753,-36.137573221055845 -101.94695634271315,-33.63757322105555 -101.27708336165063,-31.137573221046374 -99.44695634273708,-29.307446202108597 -96.94695634273678,-28.637573221012968" stroke="#00f" stroke-linecap="round" stroke-linejoin="round"/><polyline fill="none" points="-65.79644424678874,85.84221178053443 -63.296444246779565,85.1723387994719 -61.466317227841785,83.34221178055836 -60.796444246746155,80.84221178055806 -61.46631722780868,78.3422117805489 -63.296444246722224,76.51208476161112 -65.79644424672253,75.84221178051548 -68.2964442467317,76.51208476157801 -70.12657126566947,78.34221178049155 -70.7964442467651,80.84221178049185 -70.12657126570258,83.34221178050103 -68.29644424678904,85.17233879943882 -65.79644424678874,85.84221178053446" stroke="#ffa500" stroke-linecap="round" stroke-linejoin="round"/><polyline fill="none" points="35.875465279971124,24.91235729937937 38.3754652799803,24.242484318316848 40.20559229891808,22.412357299403304 40.87546528001371,19.912357299403002 40.20559229895119,17.41235729939383 38.375465280037645,15.582230280456047 35.875465280037346,14.912357299360414 33.37546528002817,15.582230280422934 31.54533826109039,17.412357299336474 30.875465279994756,19.912357299336776 31.545338261057275,22.412357299345953 33.37546527997082,24.242484318283736 35.875465279971124,24.912357299379373" stroke="#ffa500" stroke-linecap="round" stroke-linejoin="round"/><polyline fill="none" points="202.23480805514,-92.15497824078622 204.7348080551492,-92.82485122184873 206.56493507408697,-94.65497824076228 207.2348080551826,-97.15497824076257 206.5649350741201,-99.65497824077175 204.73480805520654,-101.48510525970954 202.23480805520623,-102.15497824080518 199.73480805519705,-101.48510525974267 197.90468103625926,-99.65497824082912 197.23480805516363,-97.15497824082883 197.90468103622615,-94.65497824081964 199.7348080551397,-92.82485122188186 202.23480805514,-92.15497824078622" stroke="#ffa500" stroke-linecap="round" stroke-linejoin="round"/><polyline fill="none" points="-79.22370189936717,-40.78727880417558 -76.72370189935799,-41.457151785238096 -74.8935748804202,-43.28727880415163 -74.22370189932457,-45.78727880415194 -74.89357488038708,-48.28727880416112 -76.72370189930062,-50.117405823098906 -79.22370189930092,-50.78727880419454 -81.7237018993101,-50.11740582313203 -83.55382891824789,-48.287278804218495 -84.22370189934352,-45.78727880421819 -83.55382891828101,-43.28727880420901 -81.72370189936747,-41.45715178527122 -79.22370189936717,-40.78727880417558" stroke="#ffa500" stroke-linecap="round" stroke-linejoin="round"/><polyline fill="none" points="-28.43792046233175,53.09147019833778 -25.93792046232257,52.42159721727527 -24.10779344338478,50.59147019836173 -23.437920462289135,48.091470198361435 -24.107793443351646,45.591470198352255 -25.937920462265183,43.76134317941447 -28.437920462265485,43.091470198318824 -30.937920462274665,43.761343179381335 -32.768047481212456,45.59147019829487 -33.4379204623081,48.09147019829517 -32.76804748124559,50.59147019830435 -30.937920462332052,52.421597217242144 -28.43792046233175,53.09147019833779" stroke="#ffa500" stroke-linecap="round" stroke-linejoin="round"/><polyline fill="none" points="-58.61164034198645,-6.862957988939435 -56.11164034197727,-7.532830970001945 -54.281513323039476,-9.36295798891548 -53.61164034194383,-11.862957988915783 -54.281513323006344,-14.362957988924963 -56.11164034191988,-16.193085007862756 -58.61164034192018,-16.862957988958403 -61.11164034192936,-16.193085007895895 -62.94176736086715,-14.36295798898236 -63.6116403419628,-11.862957988982059 -62.941767360900286,-9.362957988972877 -61.11164034198675,-7.532830970035082 -58.611640341986444,-6.862957988939435" stroke="#ffa500" stroke-linecap="round" stroke-linejoin="round"/><polyline fill="none" points="76.10641850403768,21.1520343176645 78.60641850404686,20.482161336601994 80.43654552298466,18.65203431768846 81.10641850408031,16.15203431768816 80.4365455230178,13.652034317678977 78.60641850410427,11.82190729874118 76.10641850410397,11.152034317645532 73.60641850409479,11.821907298708037 71.77629148515699,13.65203431762157 71.10641850406134,16.152034317621872 71.77629148512385,18.652034317631056 73.60641850403738,20.482161336568854 76.10641850403768,21.152034317664505" stroke="#ffa500" stroke-linecap="round" stroke-linejoin="round"/><polyline fill="none" points="58.334604836494265,7.847808541741574 60.834604836503445,7.177935560679069 62.66473185544124,5.347808541765536 63.33460483653689,2.847808541765234 62.664731855474386,0.3478085417560499 60.83460483656086,-1.4823184771817488 58.33460483656056,-2.152191458277401 55.83460483655137,-1.4823184772148983 54.00447781761357,0.3478085416986334 53.33460483651792,2.847808541698935 54.00447781758042,5.347808541708121 55.83460483649395,7.1779355606459205 58.33460483649425,7.847808541741575" stroke="#00f" stroke-linecap="round" stroke-linejoin="round"/><polyline fill="none" points="-94.19029472762517,25.721852661761123 -91.69029472761599,25.051979680698622 -89.86016770867819,23.221852661785093 -89.19029472758254,20.72185266178479 -89.86016770864504,18.221852661775607 -91.69029472755857,16.391725642837805 -94.19029472755886,15.72185266174215 -96.69029472756804,16.391725642804648 -98.52042174650585,18.221852661718177 -99.1902947276015,20.72185266171848 -98.520421746539,23.221852661727667 -96.69029472762547,25.051979680665468 -94.19029472762517,25.721852661761126" stroke="#00f" stroke-linecap="round" stroke-linejoin="round"/><polyline fill="none" points="11.37733444177464,52.397608929739405 13.877334441783827,51.72773594867691 15.70746146072163,49.89760892976338 16.377334441817286,47.39760892976308 15.707461460754788,44.89760892975389 13.877334441841258,43.06748191081609 11.377334441840956,42.397608929720434 8.877334441831769,43.06748191078293 7.0472074228939645,44.89760892969646 6.377334441798306,47.39760892969676 7.047207422860803,49.897608929705946 8.87733444177433,51.727735948643755 11.377334441774632,52.39760892973941" stroke="#ffa500" stroke-linecap="round" stroke-linejoin="round"/><polyline fill="none" points="9.611999873972277,58.64315129262599 12.111999873981464,57.97327831156349 13.94212689291927,56.14315129264996 14.61199987401493,53.64315129264966 13.942126892952434,51.143151292640475 12.111999874038906,49.313024273702666 9.611999874038604,48.64315129260701 7.111999874029415,49.313024273669505 5.281872855091608,51.143151292583035 4.611999873995947,53.64315129258334 5.281872855058442,56.14315129259253 7.1119998739719685,57.973278311530336 9.61199987397227,58.643151292626" stroke="#ffa500" stroke-linecap="round" stroke-linejoin="round"/><polyline fill="none" points="203.28006265805945,-88.02468716934689 205.78006265806863,-88.69456015040939 207.61018967700645,-90.52468716932292 208.2800626581021,-93.02468716932322 207.6101896770396,-95.52468716933241 205.7800626581261,-97.35481418827021 203.2800626581258,-98.02468716936588 200.7800626581166,-97.35481418830338 198.9499356391788,-95.52468716938985 198.28006265808312,-93.02468716938955 198.94993563914562,-90.52468716938036 200.78006265805914,-88.69456015044254 203.28006265805945,-88.02468716934688" stroke="#ffa500" stroke-linecap="round" stroke-linejoin="round"/><polyline fill="none" points="-5.316413765139712,31.863059805376967 -2.8164137651305214,31.193186824314473 -0.9862867461927112,29.363059805400948 -0.31641376509704566,26.863059805400646 -0.986286746159537,24.363059805391455 -2.816413765073062,22.532932786453642 -5.316413765073364,21.863059805357977 -7.8164137650825545,22.532932786420467 -9.646540784020367,24.363059805333993 -10.316413765116033,26.863059805334295 -9.646540784053544,29.363059805343486 -7.81641376514002,31.193186824281298 -5.316413765139718,31.863059805376967" stroke="#ffa500" stroke-linecap="round" stroke-linejoin="round"/><polyline fill="none" points="69.85007444354414,20.146070358160117 72.35007444355334,19.476197377097627 74.18020146249115,17.646070358184105 74.85007444358682,15.146070358183803 74.18020146252434,12.64607035817461 72.35007444361081,10.815943339236796 69.85007444361051,10.146070358141127 67.35007444360132,10.815943339203615 65.5199474246635,12.64607035811714 64.85007444356783,15.146070358117441 65.51994742463032,17.646070358126636 67.35007444354385,19.47619737706445 69.85007444354414,20.146070358160124" stroke="#ffa500" stroke-linecap="round" stroke-linejoin="round"/><polyline fill="none" points="200.40810777293876,-82.38218892587808 202.90810777294794,-83.05206190694057 204.73823479188576,-84.8821889258541 205.40810777298142,-87.3821889258544 204.73823479191893,-89.88218892586359 202.9081077730054,-91.7123159448014 200.4081077730051,-92.38218892589708 197.9081077729959,-91.7123159448346 196.07798075405807,-89.88218892592108 195.4081077729624,-87.38218892592079 196.0779807540249,-84.88218892591159 197.90810777293842,-83.05206190697378 200.40810777293873,-82.3821889258781" stroke="#ffa500" stroke-linecap="round" stroke-linejoin="round"/><polyline fill="none" points="66.77800761817127,25.875117444588646 69.27800761818047,25.205244463526164 71.10813463711828,23.37511744461264 71.77800761821396,20.87511744461234 71.10813463715148,18.375117444603145 69.27800761823796,16.544990425665326 66.77800761823767,15.87511744456965 64.27800761822847,16.544990425632133 62.44788059929065,18.37511744454565 61.77800761819497,20.875117444545953 62.44788059925745,23.37511744455515 64.27800761817097,25.20524446349297 66.77800761817127,25.875117444588646" stroke="#ffa500" stroke-linecap="round" stroke-linejoin="round"/><polyline fill="none" points="96.39242781858509,27.172939822766775 98.89242781859429,26.503066841704293 100.7225548375321,24.672939822790774 101.39242781862778,22.17293982279047 100.7225548375653,19.672939822781274 98.89242781865178,17.84281280384345 96.39242781865148,17.17293982274777 93.89242781864229,17.84281280381025 92.06230079970447,19.67293982272377 91.3924278186088,22.17293982272407 92.06230079967128,24.67293982273327 93.89242781858479,26.503066841671092 96.39242781858509,27.17293982276677" stroke="#ffa500" stroke-linecap="round" stroke-linejoin="round"/><polyline fill="none" points="-107.75311273067317,-51.041488886005865 -105.25311273066397,-51.71136186706835 -103.42298571172614,-53.54148888598187 -102.75311273063046,-56.041488885982176 -103.42298571169295,-58.54148888599138 -105.25311273060646,-60.3716159049292 -107.75311273060676,-61.04148888602488 -110.25311273061595,-60.371615904962404 -112.08323974955378,-58.54148888604889 -112.75311273064946,-56.04148888604858 -112.08323974958698,-53.54148888603938 -110.25311273067346,-51.71136186710156 -107.75311273067317,-51.04148888600588" stroke="#ffa500" stroke-linecap="round" stroke-linejoin="round"/><polyline fill="none" points="91.68952025705379,31.609904270352555 94.18952025706298,30.940031289290076 96.01964727600081,29.109904270376557 96.68952025709649,26.609904270376255 96.01964727603401,24.109904270367053 94.18952025712049,22.279777251429227 91.6895202571202,21.609904270333544 89.18952025711098,22.27977725139602 87.35939323817315,24.10990427030954 86.68952025707748,26.60990427030984 87.35939323813996,29.109904270319042 89.18952025705347,30.940031289256872 91.68952025705377,31.60990427035256" stroke="#ffa500" stroke-linecap="round" stroke-linejoin="round"/><polyline fill="none" points="-111.15768986691242,-34.362929558118935 -108.65768986690321,-35.03280253918141 -106.82756284796538,-36.862929558094926 -106.1576898668697,-39.36292955809523 -106.82756284793217,-41.86292955810443 -108.65768986684569,-43.69305657704226 -111.15768986684598,-44.36292955813795 -113.6576898668552,-43.693056577075474 -115.48781688579302,-41.86292955816196 -116.15768986688872,-39.36292955816165 -115.48781688582625,-36.86292955815245 -113.65768986691273,-35.03280253921462 -111.15768986691243,-34.362929558118935" stroke="#008000" stroke-linecap="round" stroke-linejoin="round"/><polyline fill="none" points="-69.78616744559059,52.22360909393628 -67.28616744558138,51.55373611287381 -65.45604042664355,49.72360909396029 -64.78616744554786,47.223609093959986 -65.45604042661033,44.723609093950785 -67.28616744552384,42.893482075012955 -69.78616744552414,42.22360909391726 -72.28616744553335,42.89348207497973 -74.11629446447118,44.723609093893245 -74.78616744556687,47.22360909389355 -74.1162944645044,49.72360909390276 -72.28616744559089,51.553736112840596 -69.78616744559059,52.22360909393629" stroke="#ffa500" stroke-linecap="round" stroke-linejoin="round"/><polyline fill="none" points="36.66743420939963,33.48659553095628 39.16743420940884,32.81672254989381 40.997561228346676,30.986595530980296 41.66743420944237,28.48659553097999 40.9975612283799,25.986595530970785 39.167434209466386,24.15646851203295 36.66743420946608,23.486595530937258 34.16743420945687,24.156468511999726 32.337307190519034,25.98659553091324 31.66743420942334,28.486595530913547 32.33730719048581,30.986595530922756 34.167434209399325,32.81672254986059 36.66743420939963,33.486595530956286" stroke="#ffa500" stroke-linecap="round" stroke-linejoin="round"/><polyline fill="none" points="-69.7873651747867,20.31631722216941 -67.28736517477749,19.64644424110694 -65.45723815583966,17.81631722219343 -64.78736517474397,15.316317222193124 -65.45723815580644,12.816317222183915 -67.28736517471995,10.986190203246078 -69.78736517472025,10.316317222150383 -72.28736517472946,10.98619020321285 -74.1174921936673,12.816317222126361 -74.787365174763,15.316317222126665 -74.11749219370053,17.816317222135872 -72.28736517478701,19.64644424107371 -69.78736517478671,20.316317222169406" stroke="#ffa500" stroke-linecap="round" stroke-linejoin="round"/><polyline fill="none" points="-148.81980152103498,-5.44762451765528 -146.31980152102577,-6.117497498717745 -144.48967450208792,-7.947624517631256 -143.81980152099223,-10.44762451763156 -144.4896745020547,-12.947624517640769 -146.3198015209682,-14.77775153657861 -148.81980152096853,-15.447624517674308 -151.31980152097773,-14.777751536611843 -153.14992853991558,-12.947624517698333 -153.81980152101127,-10.44762451769803 -153.1499285399488,-7.947624517688819 -151.3198015210353,-6.1174974987509785 -148.81980152103498,-5.447624517655279" stroke="#00f" stroke-linecap="round" stroke-linejoin="round"/><polyline fill="none" points="-121.35790591053384,6.248978983159892 -118.85790591052464,5.579106002097429 -117.02777889158679,3.7489789831839193 -116.35790591049108,1.248978983183615 -117.02777889155355,-1.2510210168255957 -118.85790591046707,-3.081148035763438 -121.35790591046737,-3.75102101685914 -123.85790591047657,-3.0811480357966787 -125.68803292941442,-1.2510210168831697 -126.35790591051013,1.2489789831171345 -125.68803292944767,3.748978983126346 -123.85790591053416,5.57910600206419 -121.35790591053386,6.248978983159893" stroke="#00f" stroke-linecap="round" stroke-linejoin="round"/><polyline fill="none" points="-99.47942996250484,17.5219881349701 -96.97942996249563,16.85211515390764 -95.14930294355779,15.021988134994132 -94.47942996246208,12.521988134993826 -95.14930294352453,10.021988134984614 -96.97942996243805,8.191861116046768 -99.47942996243835,7.521988134951063 -101.97942996244755,8.191861116013522 -103.8095569813854,10.02198813492703 -104.4794299624811,12.521988134927334 -103.80955698141865,15.021988134936546 -101.97942996250515,16.852115153874394 -99.47942996250485,17.5219881349701" stroke="#ffa500" stroke-linecap="round" stroke-linejoin="round"/><polyline fill="none" points="-48.11889399234014,63.888985705155996 -45.618893992330925,63.219112724093534 -43.78876697339308,61.388985705180026 -43.11889399229737,58.88898570517972 -43.78876697335983,56.388985705170505 -45.618893992273335,54.558858686232654 -48.11889399227364,53.888985705136946 -50.61889399228286,54.5588586861994 -52.44902101122071,56.38898570511291 -53.118893992316416,58.888985705113214 -52.44902101125396,61.38898570512243 -50.61889399234045,63.21911272406028 -48.11889399234015,63.88898570515599" stroke="#ffa500" stroke-linecap="round" stroke-linejoin="round"/><polyline fill="none" points="0.8601832192653969,64.73080254738466 3.360183219274612,64.0609295663222 5.1903102382124615,62.23080254740869 5.860183219308171,59.73080254740839 5.190310238245717,57.23080254739917 3.360183219332211,55.40067552846132 0.8601832193319066,54.73080254736561 -1.6398167806773092,55.40067552842807 -3.4699437996151605,57.230802547341575 -4.139816780710872,59.73080254734188 -3.4699437996484184,62.2308025473511 -1.6398167807349138,64.06092956628895 0.8601832192653909,64.73080254738466" stroke="#ffa500" stroke-linecap="round" stroke-linejoin="round"/><polyline fill="none" points="-24.142821469455882,7.1143685111727155 -21.642821469446666,6.444495530110263 -19.812694450508815,4.6143685111967585 -19.142821469413104,2.114368511196454 -19.812694450475554,-0.38563148881276277 -21.64282146938906,-2.2157585077506154 -24.142821469389364,-2.885631488846329 -26.64282146939858,-2.2157585077838773 -28.472948488336435,-0.38563148887037335 -29.14282146943215,2.114368511129931 -28.4729484883697,4.614368511139149 -26.642821469456194,6.444495530077003 -24.14282146945589,7.114368511172717" stroke="#00f" stroke-linecap="round" stroke-linejoin="round"/><polyline fill="none" points="-109.13159893149131,-43.828614346751365 -106.63159893148209,-44.49848732781381 -104.80147191254423,-46.32861434672731 -104.13159893144851,-48.82861434672762 -104.80147191251096,-51.328614346736835 -106.63159893142446,-53.15874136567469 -109.13159893142476,-53.82861434677041 -111.63159893143398,-53.15874136570796 -113.46172595037184,-51.32861434679446 -114.13159893146756,-48.828614346794154 -113.46172595040511,-46.32861434678494 -111.63159893149161,-44.49848732784708 -109.13159893149131,-43.828614346751365" stroke="#00f" stroke-linecap="round" stroke-linejoin="round"/><polyline fill="none" points="-81.81326706095088,100.34456032597525 -79.31326706094166,99.6746873449128 -77.4831400420038,97.8445603259993 -76.81326706090807,95.344560325999 -77.48314004197053,92.84456032598978 -79.31326706088403,91.01443330705192 -81.81326706088433,90.3445603259562 -84.31326706089355,91.01443330701863 -86.14339407983141,92.84456032593214 -86.81326706092713,95.34456032593243 -86.14339407986469,97.84456032594166 -84.31326706095119,99.67468734487952 -81.81326706095089,100.34456032597524" stroke="#ffa500" stroke-linecap="round" stroke-linejoin="round"/><polyline fill="none" points="-93.958282171452,29.314972359903788 -91.45828217144278,28.64509937884134 -89.62815515250492,26.81497235992784 -88.9582821714092,24.314972359927534 -89.62815515247163,21.814972359918315 -91.45828217138514,19.984845340980456 -93.95828217138543,19.314972359884734 -96.45828217139466,19.984845340947178 -98.28840919033252,21.814972359860676 -98.95828217142824,24.31497235986098 -98.2884091903658,26.814972359870204 -96.4582821714523,28.645099378808066 -93.958282171452,29.314972359903788" stroke="#ffa500" stroke-linecap="round" stroke-linejoin="round"/><polyline fill="none" points="-99.29069523170637,-46.90026911443892 -96.79069523169714,-47.57014209550136 -94.96056821275928,-49.40026911441486 -94.29069523166356,-51.90026911441517 -94.960568212726,-54.40026911442439 -96.7906952316395,-56.230396133362255 -99.2906952316398,-56.90026911445798 -101.79069523164902,-56.23039613339554 -103.62082225058688,-54.400269114482036 -104.2906952316826,-51.90026911448173 -103.62082225062017,-49.40026911447251 -101.79069523170666,-47.57014209553464 -99.29069523170637,-46.90026911443891" stroke="#f00" stroke-linecap="round" stroke-linejoin="round"/><polyline fill="none" points="8.768833727309278,-16.949274706909122 11.268833727318501,-17.619147687971562 13.098960746256365,-19.44927470688506 13.76883372735209,-21.949274706885365 13.09896074628965,-24.449274706894588 11.268833727376153,-26.279401725832454 8.76883372737585,-26.94927470692818 6.268833727366625,-26.27940172586574 4.438706708428759,-24.44927470695224 3.768833727333032,-21.949274706951936 4.438706708395471,-19.449274706942713 6.268833727308968,-17.619147688004848 8.768833727309271,-16.94927470690912" stroke="#008000" stroke-linecap="round" stroke-linejoin="round"/><polyline fill="none" points="-78.5213983789766,55.76007686659266 -76.02139837896738,55.09020388553022 -74.1912713600295,53.26007686661673 -73.52139837893378,50.76007686661642 -74.19127135999622,48.2600768666072 -76.02139837890972,46.429949847669334 -78.52139837891002,45.760076866573606 -81.02139837891924,46.429949847636045 -82.85152539785712,48.26007686654954 -83.52139837895285,50.760076866549845 -82.85152539789041,53.26007686655907 -81.02139837897691,55.09020388549693 -78.52139837897661,55.76007686659266" stroke="#ffa500" stroke-linecap="round" stroke-linejoin="round"/><polyline fill="none" points="-86.98035407201841,54.26095729258406 -84.48035407200919,53.59108431152162 -82.65022705307132,51.760957292608126 -81.98035407197558,49.26095729260782 -82.65022705303802,46.76095729259859 -84.48035407195152,44.93083027366072 -86.98035407195182,44.26095729256499 -89.48035407196105,44.93083027362742 -91.31048109089892,46.760957292540915 -91.98035407199465,49.26095729254122 -91.31048109093221,51.76095729255045 -89.48035407201871,53.59108431148832 -86.98035407201841,54.26095729258406" stroke="#ffa500" stroke-linecap="round" stroke-linejoin="round"/><polyline fill="none" points="-78.0304302841317,89.06880287732804 -75.53043028412247,88.3989298962656 -73.7003032651846,86.56880287735211 -73.03043028408887,84.06880287735181 -73.7003032651513,81.56880287734259 -75.53043028406479,79.73867585840472 -78.03043028406509,79.06880287730898 -80.53043028407431,79.73867585837142 -82.36055730301219,81.56880287728491 -83.03043028410792,84.06880287728521 -82.3605573030455,86.56880287729443 -80.53043028413201,88.3989298962323 -78.03043028413171,89.06880287732804" stroke="#00f" stroke-linecap="round" stroke-linejoin="round"/><polyline fill="none" points="-108.71723037394464,28.32520533681598 -106.21723037393542,27.655332355753547 -104.38710335499755,25.825205336840053 -103.71723037390181,23.325205336839748 -104.38710335496424,20.825205336830518 -106.21723037387773,18.995078317892645 -108.71723037387802,18.32520533679691 -111.21723037388725,18.99507831785934 -113.04735739282512,20.82520533677283 -113.71723037392086,23.325205336773134 -113.04735739285843,25.825205336782364 -111.21723037394494,27.65533235572024 -108.71723037394464,28.32520533681598" stroke="#00f" stroke-linecap="round" stroke-linejoin="round"/><polyline fill="none" points="-62.776727975166324,63.01545226267129 -60.276727975157094,62.34557928160886 -58.44660095621922,60.51545226269537 -57.77672797512348,58.015452262695064 -58.446600956185904,55.515452262685834 -60.27672797509939,53.685325243747954 -62.776727975099696,53.01545226265221 -65.27672797510893,53.68532524371464 -67.1068549940468,55.51545226262813 -67.77672797514253,58.015452262628436 -67.10685499408011,60.515452262637666 -65.27672797516662,62.345579281575546 -62.77672797516632,63.01545226267129" stroke="#ffa500" stroke-linecap="round" stroke-linejoin="round"/><polyline fill="none" points="34.82836926448977,5.396031275044572 37.328369264499,4.726158293982145 39.15849628343688,2.8960312750686557 39.828369264532625,0.39603127506835145 39.1584962834702,-2.10396872494088 37.32836926455671,-3.934095743878758 34.82836926455641,-4.603968724974501 32.32836926454718,-3.934095743912075 30.498242245609298,-2.1039687249985866 29.828369264513555,0.3960312750017181 30.49824224557598,2.8960312750109503 32.32836926448947,4.72615829394883 34.82836926448977,5.396031275044574" stroke="#00f" stroke-linecap="round" stroke-linejoin="round"/><polyline fill="none" points="-103.88964246806975,-27.248224920652618 -101.38964246806052,-27.918097901715043 -99.55951544912263,-29.74822492062853 -98.88964246802688,-32.248224920628836 -99.5595154490893,-34.748224920638066 -101.38964246800279,-36.578351939575946 -103.88964246800309,-37.24822492067169 -106.38964246801233,-36.57835193960926 -108.21976948695021,-34.748224920695776 -108.88964246804596,-32.24822492069547 -108.21976948698354,-29.748224920686237 -106.38964246807005,-27.918097901748354 -103.88964246806975,-27.248224920652607" stroke="#ffa500" stroke-linecap="round" stroke-linejoin="round"/><polyline fill="none" points="-140.8601140187153,16.235434629832746 -138.36011401870607,15.565561648770323 -136.5299869997682,13.735434629856837 -135.86011401867245,11.235434629856531 -136.52998699973486,8.735434629847298 -138.36011401864835,6.905307610909414 -140.86011401864866,6.235434629813666 -143.3601140186579,6.905307610876087 -145.19024103759577,8.735434629789573 -145.86011401869152,11.235434629789879 -145.1902410376291,13.735434629799114 -143.36011401871562,15.565561648736999 -140.8601140187153,16.23543462983275" stroke="#ffa500" stroke-linecap="round" stroke-linejoin="round"/><polyline fill="none" points="-132.00160396358137,-46.00699347733525 -129.50160396357214,-46.67686645839767 -127.67147694463425,-48.506993477311156 -127.0016039635385,-51.00699347731146 -127.67147694460093,-53.5069934773207 -129.5016039635144,-55.337120496258585 -132.00160396351473,-56.006993477354335 -134.50160396352396,-55.33712049629192 -136.33173098246183,-53.50699347737843 -137.00160396355759,-51.006993477378124 -136.33173098249517,-48.50699347736889 -134.5016039635817,-46.676866458431 -132.00160396358137,-46.00699347733525" stroke="#ffa500" stroke-linecap="round" stroke-linejoin="round"/><polyline fill="none" points="-114.2463988687788,-54.45643248952692 -111.74639886876956,-55.12630547058934 -109.91627184983167,-56.956432489502824 -109.24639886873592,-59.45643248950313 -109.91627184979833,-61.956432489512366 -111.74639886871182,-63.78655950845025 -114.24639886871212,-64.456432489546 -116.74639886872136,-63.786559508483585 -118.57652588765924,-61.956432489570105 -119.246398868755,-59.4564324895698 -118.57652588769258,-56.95643248956056 -116.7463988687791,-55.126305470622675 -114.2463988687788,-54.45643248952692" stroke="#00f" stroke-linecap="round" stroke-linejoin="round"/><polyline fill="none" points="-88.79588651002963,36.03832368156985 -86.2958865100204,35.36845070050744 -84.46575949108251,33.53832368159396 -83.79588650998676,31.038323681593653 -84.46575949104917,28.538323681584416 -86.29588650996266,26.708196662646525 -88.79588650996295,26.038323681550768 -91.29588650997219,26.708196662613183 -93.12601352891008,28.538323681526666 -93.79588651000583,31.038323681526972 -93.12601352894342,33.53832368153621 -91.29588651002993,35.368450700474106 -88.79588651002963,36.038323681569864" stroke="#ffa500" stroke-linecap="round" stroke-linejoin="round"/><polyline fill="none" points="-120.0760010385001,-72.29210707540348 -117.57600103849086,-72.96198005646589 -115.74587401955297,-74.79210707537938 -115.0760010384572,-77.29210707537968 -115.74587401951962,-79.79210707538891 -117.5760010384331,-81.6222340943268 -120.0760010384334,-82.29210707542256 -122.57600103844264,-81.62223409436015 -124.40612805738053,-79.79210707544667 -125.07600103847629,-77.29210707544637 -124.40612805741388,-74.79210707543713 -122.5760010385004,-72.96198005649924 -120.0760010385001,-72.29210707540348" stroke="#ffa500" stroke-linecap="round" stroke-linejoin="round"/><polyline fill="none" points="40.389090516785075,25.171148991929623 42.88909051679432,24.501276010867212 44.71921753573221,22.671148991953732 45.38909051682798,20.171148991953427 44.719217535765566,17.671148991944186 42.889090516852086,15.84102197300629 40.38909051685178,15.171148991910528 37.889090516842536,15.841021972972937 36.05896349790464,17.671148991886415 35.38909051680888,20.17114899188672 36.05896349787129,22.67114899189596 37.88909051678477,24.50127601083386 40.389090516785075,25.171148991929623" stroke="#ffa500" stroke-linecap="round" stroke-linejoin="round"/><polyline fill="none" points="-72.40743102196295,33.695429723809255 -69.90743102195371,33.02555674274685 -68.07730400301581,31.19542972383337 -67.40743102192005,28.695429723833065 -68.07730400298246,26.19542972382382 -69.90743102189593,24.365302704885924 -72.40743102189623,23.69542972379016 -74.90743102190547,24.365302704852567 -76.73755804084337,26.195429723766043 -77.40743102193913,28.69542972376635 -76.73755804087672,31.195429723775593 -74.90743102196325,33.02555674271349 -72.40743102196295,33.695429723809255" stroke="#00f" stroke-linecap="round" stroke-linejoin="round"/><polyline fill="none" points="-93.56441282907937,-17.51049649252096 -91.06441282907014,-18.180369473583365 -89.23428581013223,-20.01049649249684 -88.56441282903647,-22.510496492497147 -89.23428581009888,-25.01049649250639 -91.06441282901235,-26.840623511444292 -93.56441282901265,-27.51049649254006 -96.0644128290219,-26.840623511477656 -97.8945398479598,-25.01049649256418 -98.56441282905557,-22.510496492563874 -97.89453984799317,-20.01049649255463 -96.0644128290797,-18.18036947361673 -93.5644128290794,-17.51049649252096" stroke="#00f" stroke-linecap="round" stroke-linejoin="round"/><polyline fill="none" points="-101.40866944904964,-36.93634548899577 -98.90866944904039,-37.606218470058174 -97.07854243010249,-39.43634548897165 -96.40866944900672,-41.93634548897195 -97.07854243006912,-44.436345488981196 -98.9086694489826,-46.2664725079191 -101.40866944898289,-46.93634548901487 -103.90866944899214,-46.266472507952464 -105.73879646793004,-44.43634548903899 -106.40866944902581,-41.936345489038686 -105.73879646796341,-39.43634548902944 -103.90866944904994,-37.60621847009154 -101.40866944904964,-36.93634548899577" stroke="#00f" stroke-linecap="round" stroke-linejoin="round"/><polyline fill="none" points="-90.65986613521629,97.6461664977721 -88.15986613520704,96.9762935167097 -86.32973911626914,95.14616649779623 -85.65986613517336,92.64616649779593 -86.32973911623576,90.14616649778668 -88.15986613514923,88.31603947884878 -90.65986613514953,87.646166497753 -93.15986613515878,88.3160394788154 -94.98999315409668,90.14616649772887 -95.65986613519246,92.64616649772917 -94.98999315413006,95.14616649773842 -93.15986613521659,96.97629351667632 -90.65986613521629,97.6461664977721" stroke="#ffa500" stroke-linecap="round" stroke-linejoin="round"/><polyline fill="none" points="-162.82235972291406,-64.0009539247055 -160.32235972290482,-64.6708269057679 -158.49223270396692,-66.50095392468137 -157.82235972287114,-69.00095392468167 -158.49223270393355,-71.50095392469092 -160.322359722847,-73.33108094362882 -162.82235972284732,-74.0009539247246 -165.32235972285656,-73.3310809436622 -167.15248674179446,-71.50095392474873 -167.82235972289024,-69.00095392474843 -167.15248674182786,-66.50095392473918 -165.3223597229144,-64.67082690580126 -162.8223597229141,-64.00095392470548" stroke="#ffa500" stroke-linecap="round" stroke-linejoin="round"/><polyline fill="none" points="-38.54875653283822,58.59581879188378 -36.04875653282897,57.92594581082138 -34.21862951389106,56.09581879190791 -33.54875653279528,53.595818791907604 -34.21862951385768,51.09581879189835 -36.04875653277115,49.265691772960444 -38.548756532771456,48.595818791864666 -41.04875653278071,49.26569177292706 -42.878883551718616,51.095818791840536 -43.548756532814394,53.59581879184084 -42.878883551752,56.09581879185009 -41.048756532838524,57.925945810788 -38.54875653283822,58.59581879188378" stroke="#ffa500" stroke-linecap="round" stroke-linejoin="round"/><polyline fill="none" points="-92.82831902277611,94.14680932834293 -90.32831902276686,93.47693634728053 -88.49819200382895,91.64680932836706 -87.82831902273317,89.14680932836676 -88.49819200379557,86.6468093283575 -90.32831902270904,84.81668230941959 -92.82831902270934,84.14680932832381 -95.32831902271859,84.81668230938621 -97.1584460416565,86.64680932829968 -97.82831902275228,89.14680932829998 -97.15844604168988,91.64680932830923 -95.32831902277641,93.47693634724715 -92.8283190227761,94.14680932834293" stroke="#ffa500" stroke-linecap="round" stroke-linejoin="round"/><polyline fill="none" points="-72.91188947295483,-14.911148747374106 -70.41188947294557,-15.581021728436498 -68.58176245400766,-17.41114874734997 -67.91188947291188,-19.911148747350275 -68.58176245397428,-22.411148747359526 -70.41188947288775,-24.24127576629744 -72.91188947288805,-24.911148747393227 -75.4118894728973,-24.241275766330837 -77.24201649183522,-22.411148747417368 -77.911889472931,-19.911148747417062 -77.24201649186861,-17.411148747407807 -75.41188947295514,-15.581021728469892 -72.91188947295483,-14.911148747374106" stroke="#00f" stroke-linecap="round" stroke-linejoin="round"/><polyline fill="none" points="-148.33606632315642,-67.66500471393297 -145.83606632314715,-68.33487769499536 -144.00593930420922,-70.16500471390883 -143.33606632311344,-72.66500471390914 -144.00593930417583,-75.16500471391839 -145.83606632308928,-76.99513173285631 -148.3360663230896,-77.6650047139521 -150.83606632309886,-76.99513173288972 -152.6661933420368,-75.16500471397624 -153.33606632313257,-72.66500471397593 -152.6661933420702,-70.16500471396668 -150.83606632315673,-68.33487769502877 -148.33606632315642,-67.66500471393297" stroke="#00f" stroke-linecap="round" stroke-linejoin="round"/><polyline fill="none" points="-87.20354333095712,-70.71727766339718 -84.70354333094787,-71.38715064445957 -82.87341631200995,-73.21727766337304 -82.20354333091416,-75.71727766337335 -82.87341631197654,-78.2172776633826 -84.70354333089001,-80.04740468232052 -87.20354333089033,-80.71727766341631 -89.70354333089958,-80.04740468235393 -91.5336703498375,-78.21727766344046 -92.20354333093329,-75.71727766344014 -91.5336703498709,-73.21727766343089 -89.70354333095743,-71.38715064449298 -87.20354333095712,-70.71727766339718" stroke="#ffa500" stroke-linecap="round" stroke-linejoin="round"/><polyline fill="none" points="-91.29205027957946,28.240363196279016 -88.7920502795702,27.57049021521663 -86.96192326063229,25.740363196303164 -86.2920502795365,23.24036319630286 -86.96192326059888,20.7403631962936 -88.79205027951235,18.910236177355678 -91.29205027951267,18.240363196259885 -93.79205027952192,18.91023617732227 -95.62217729845985,20.740363196235734 -96.29205027955564,23.24036319623604 -95.62217729849326,25.740363196245298 -93.7920502795798,27.57049021518322 -91.29205027957948,28.240363196279013" stroke="#ffa500" stroke-linecap="round" stroke-linejoin="round"/><polyline fill="none" points="-93.3698593548227,87.81387747103501 -90.86985935481343,87.14400448997263 -89.0397323358755,85.31387747105917 -88.3698593547797,82.81387747105886 -89.03973233584209,80.3138774710496 -90.86985935475555,78.48375045211166 -93.36985935475586,77.81387747101587 -95.86985935476513,78.48375045207825 -97.69998637370306,80.31387747099171 -98.36985935479885,82.81387747099203 -97.69998637373646,85.31387747100129 -95.869859354823,87.14400448993922 -93.3698593548227,87.81387747103501" stroke="#ffa500" stroke-linecap="round" stroke-linejoin="round"/><polyline fill="none" points="-74.1498043236765,27.680071245606772 -71.64980432366724,27.010198264544393 -69.81967730472931,25.18007124563093 -69.14980432363352,22.680071245630625 -69.8196773046959,20.180071245621363 -71.64980432360936,18.349944226683434 -74.14980432360967,17.680071245587634 -76.64980432361894,18.349944226650013 -78.47993134255687,20.180071245563475 -79.14980432365266,22.68007124556378 -78.47993134259028,25.180071245573043 -76.64980432367682,27.010198264510972 -74.1498043236765,27.680071245606772" stroke="#00f" stroke-linecap="round" stroke-linejoin="round"/><polyline fill="none" points="-145.76847941810834,5.823233533340371 -143.26847941809908,5.153360552277993 -141.43835239916115,3.323233533364531 -140.76847941806534,0.8232335333642236 -141.43835239912772,-1.6767664666450397 -143.26847941804118,-3.50689348558297 -145.7684794180415,-4.176766466678772 -148.26847941805076,-3.506893485616396 -150.0986064369887,-1.6767664667029343 -150.7684794180845,0.8232335332973726 -150.0986064370221,3.3232335333066363 -148.26847941810865,5.153360552244568 -145.76847941810834,5.82323353334037" stroke="#ffa500" stroke-linecap="round" stroke-linejoin="round"/><polyline fill="none" points="-115.22084236160316,-52.12200339032843 -112.7208423615939,-52.791876371390806 -110.89071534265597,-54.622003390304265 -110.22084236156016,-57.12200339030457 -110.89071534262253,-59.622003390313836 -112.72084236153599,-61.452130409251765 -115.2208423615363,-62.12200339034757 -117.72084236154556,-61.452130409285196 -119.5509693804835,-59.62200339037174 -120.2208423615793,-57.12200339037143 -119.55096938051693,-54.62200339036217 -117.72084236160347,-52.79187637142423 -115.22084236160316,-52.12200339032842" stroke="#00f" stroke-linecap="round" stroke-linejoin="round"/><polyline fill="none" points="-163.86873652273937,-72.96039693700072 -161.3687365227301,-73.63026991806309 -159.53860950379217,-75.46039693697655 -158.86873652269637,-77.96039693697686 -159.53860950375875,-80.46039693698613 -161.3687365226722,-82.29052395592406 -163.86873652267252,-82.96039693701987 -166.3687365226818,-82.2905239559575 -168.19886354161972,-80.46039693704404 -168.86873652271552,-77.96039693704373 -168.19886354165314,-75.46039693703446 -166.36873652273968,-73.63026991809653 -163.86873652273937,-72.96039693700072" stroke="#ffa500" stroke-linecap="round" stroke-linejoin="round"/><polyline fill="none" points="-119.27833736351582,-47.277447370784216 -116.77833736350655,-47.947320351846585 -114.94821034456861,-49.777447370760044 -114.2783373634728,-52.27744737076035 -114.94821034453517,-54.777447370769615 -116.77833736344863,-56.60757438970755 -119.27833736344894,-57.27744737080336 -121.7783373634582,-56.60757438974099 -123.60846438239615,-54.77744737082753 -124.27833736349196,-52.277447370827225 -123.60846438242959,-49.77744737081796 -121.77833736351613,-47.94732035188002 -119.27833736351582,-47.27744737078421" stroke="#008000" stroke-linecap="round" stroke-linejoin="round"/><polyline fill="none" points="-35.92452066727293,50.78297296466454 -33.424520667263664,50.11309998360217 -31.594393648325724,48.28297296468871 -30.924520667229913,45.782972964688405 -31.59439364829228,43.28297296467914 -33.424520667205734,41.4528459457412 -35.92452066720604,40.78297296464539 -38.424520667215305,41.45284594570776 -40.25464768615325,43.282972964621216 -40.92452066724906,45.78297296462152 -40.2546476861867,48.28297296463079 -38.42452066727325,50.11309998356873 -35.924520667272944,50.782972964664545" stroke="#ffa500" stroke-linecap="round" stroke-linejoin="round"/><polyline fill="none" points="35.67916423981578,2.129638418365845 38.179164239825056,1.4597654373034805 40.009291258763,-0.3703615816099737 40.679164239858814,-2.87036158161028 40.00929125879645,-5.37036158161955 38.179164239883,-7.200488600557493 35.679164239882695,-7.870361581653309 33.17916423987342,-7.200488600590946 31.34903722093548,-5.370361581677493 30.67916423983966,-2.870361581677187 31.349037220902023,-0.37036158166791644 33.17916423981548,1.4597654372700277 35.67916423981578,2.1296384183658454" stroke="#ffa500" stroke-linecap="round" stroke-linejoin="round"/><polyline fill="none" points="-137.05201550919222,-62.91894789593293 -134.55201550918295,-63.58882087699529 -132.721888490245,-65.41894789590874 -132.0520155091492,-67.91894789590906 -132.72188849021154,-70.41894789591832 -134.552015509125,-72.24907491485627 -137.0520155091253,-72.91894789595209 -139.55201550913458,-72.24907491488973 -141.38214252807254,-70.41894789597627 -142.05201550916834,-67.91894789597596 -141.382142528106,-65.4189478959667 -139.55201550919253,-63.58882087702875 -137.05201550919222,-62.91894789593293" stroke="#ffa500" stroke-linecap="round" stroke-linejoin="round"/><polyline fill="none" points="-149.66147959636407,-43.1498566366385 -147.1614795963548,-43.819729617700865 -145.33135257741685,-45.64985663661432 -144.66147959632102,-48.14985663661462 -145.33135257738337,-50.649856636623895 -147.16147959629683,-52.479983655561846 -149.66147959629714,-53.14985663665767 -152.1614795963064,-52.47998365559531 -153.99160661524436,-50.64985663668186 -154.6614795963402,-48.149856636681555 -153.99160661527785,-45.64985663667228 -152.1614795963644,-43.81972961773433 -149.66147959636407,-43.14985663663851" stroke="#00f" stroke-linecap="round" stroke-linejoin="round"/><polyline fill="none" points="-110.54026641228647,-86.25209894797455 -108.04026641227719,-86.9219719290369 -106.21013939333925,-88.75209894795034 -105.54026641224343,-91.25209894795066 -106.21013939330578,-93.75209894795994 -108.04026641221922,-95.58222596689788 -110.54026641221954,-96.2520989479937 -113.04026641222882,-95.58222596693135 -114.87039343116678,-93.7520989480179 -115.5402664122626,-91.25209894801759 -114.87039343120024,-88.75209894800831 -113.0402664122868,-86.92197192907035 -110.54026641228648,-86.25209894797453" stroke="#ffa500" stroke-linecap="round" stroke-linejoin="round"/><polyline fill="none" points="-95.66082909787065,-55.95285955039893 -93.16082909786137,-56.62273253146128 -91.33070207892341,-58.45285955037473 -90.66082909782759,-60.95285955037504 -91.33070207888994,-63.45285955038431 -93.16082909780339,-65.28298656932226 -95.6608290978037,-65.95285955041808 -98.16082909781298,-65.28298656935573 -99.99095611675094,-63.452859550442284 -100.66082909784677,-60.95285955044198 -99.99095611678442,-58.452859550432706 -98.16082909787097,-56.622732531494755 -95.66082909787066,-55.95285955039893" stroke="#008000" stroke-linecap="round" stroke-linejoin="round"/><polyline fill="none" points="-88.07472099533665,13.243352224219873 -85.57472099532737,12.57347924315752 -83.74459397638941,10.743352224244072 -83.07472099529357,8.243352224243765 -83.74459397635593,5.743352224234488 -85.57472099526937,3.9132252052965324 -88.07472099526969,3.2433522242007022 -90.57472099527897,3.9132252052630534 -92.40484801421692,5.7433522241765 -93.07472099531276,8.243352224176807 -92.4048480142504,10.743352224186085 -90.57472099533696,12.57347924312404 -88.07472099533665,13.243352224219873" stroke="#ffa500" stroke-linecap="round" stroke-linejoin="round"/><polyline fill="none" points="-143.7886378392638,-12.024345276636314 -141.28863783925453,-12.694218257698664 -139.45851082031658,-14.52434527661211 -138.78863783922074,-17.024345276612415 -139.4585108202831,-19.524345276621695 -141.28863783919655,-21.354472295559653 -143.78863783919687,-22.024345276655485 -146.28863783920613,-21.354472295593137 -148.1187648581441,-19.524345276679693 -148.78863783923993,-17.024345276679387 -148.11876485817757,-14.52434527667011 -146.2886378392641,-12.694218257732151 -143.7886378392638,-12.024345276636318" stroke="#ffa500" stroke-linecap="round" stroke-linejoin="round"/><polyline fill="none" points="12.121742102482182,-34.615545461886946 14.621742102491462,-35.28541844294929 16.45186912142942,-37.11554546186274 17.121742102525257,-39.61554546186304 16.45186912146291,-42.11554546187232 14.621742102549465,-43.94567248081028 12.12174210254916,-44.615545461906116 9.62174210253988,-43.94567248084377 7.79161508360192,-42.115545461930324 7.121742102506084,-39.61554546193002 7.79161508356843,-37.11554546192074 9.621742102481873,-35.28541844298278 12.12174210248218,-34.615545461886946" stroke="#ffa500" stroke-linecap="round" stroke-linejoin="round"/><polyline fill="none" points="-167.363789093303,-69.69199467670298 -164.86378909329372,-70.36186765776532 -163.03366207435576,-72.19199467667876 -162.36378909325992,-74.69199467667907 -163.03366207432228,-77.19199467668835 -164.8637890932357,-79.02212169562631 -167.36378909323602,-79.69199467672215 -169.86378909324532,-79.0221216956598 -171.69391611218327,-77.19199467674636 -172.3637890932791,-74.69199467674605 -171.69391611221675,-72.19199467673677 -169.86378909330332,-70.36186765779881 -167.363789093303,-69.69199467670298" stroke="#00f" stroke-linecap="round" stroke-linejoin="round"/><polyline fill="none" points="-28.548138711309054,-33.94439671634912 -26.04813871129977,-34.61426969741146 -24.218011692361806,-36.4443967163249 -23.548138711265967,-38.94439671632521 -24.218011692328307,-41.44439671633449 -26.048138711241748,-43.27452373527245 -28.548138711242053,-43.944396716368296 -31.048138711251337,-43.274523735305955 -32.8782657301893,-41.44439671639251 -33.54813871128514,-38.944396716392205 -32.8782657302228,-36.444396716382926 -31.04813871130936,-34.61426969744496 -28.548138711309054,-33.94439671634912" stroke="#00f" stroke-linecap="round" stroke-linejoin="round"/><polyline fill="none" points="-70.5390337269539,-27.43494171585254 -68.03903372694462,-28.10481469691488 -66.20890670800665,-29.93494171582832 -65.5390337269108,-32.43494171582863 -66.20890670797314,-34.934941715837915 -68.03903372688659,-36.76506873477588 -70.5390337268869,-37.43494171587172 -73.03903372689618,-36.76506873480938 -74.86916074583415,-34.934941715895945 -75.53903372693,-32.43494171589564 -74.86916074586766,-29.934941715886357 -73.03903372695422,-28.104814696948388 -70.5390337269539,-27.434941715852542" stroke="#ffa500" stroke-linecap="round" stroke-linejoin="round"/><polyline fill="none" points="-98.07792560422928,-41.97228964171658 -95.57792560422,-42.64216262277892 -93.74779858528203,-44.472289641692356 -93.07792560418618,-46.97228964169266 -93.74779858524852,-49.47228964170195 -95.57792560416196,-51.30241666063992 -98.07792560416227,-51.97228964173577 -100.57792560417155,-51.30241666067344 -102.40805262310953,-49.47228964176 -103.07792560420538,-46.972289641759694 -102.40805262314304,-44.47228964175041 -100.57792560422959,-42.642162622812435 -98.07792560422928,-41.972289641716586" stroke="#ffa500" stroke-linecap="round" stroke-linejoin="round"/><polyline fill="none" points="-138.64824969724233,-15.405231743468661 -136.14824969723304,-16.075104724530995 -134.31812267829508,-17.905231743444432 -133.64824969719925,-20.405231743444737 -134.31812267826157,-22.905231743454024 -136.148249697175,-24.735358762391996 -138.64824969717532,-25.405231743487846 -141.1482496971846,-24.735358762425513 -142.9783767161226,-22.905231743512076 -143.64824969721846,-20.40523174351177 -142.97837671615613,-17.905231743502483 -141.1482496972427,-16.07510472456451 -138.6482496972424,-15.40523174346866" stroke="#ffa500" stroke-linecap="round" stroke-linejoin="round"/><polyline fill="none" points="-110.55090783510359,-56.242540435171335 -108.05090783509429,-56.91241341623367 -106.22078081615632,-58.742540435147106 -105.55090783506047,-61.24254043514741 -106.2207808161228,-63.7425404351567 -108.05090783503623,-65.57266745409467 -110.55090783503654,-66.24254043519052 -113.05090783504583,-65.5726674541282 -114.8810348539838,-63.74254043521476 -115.55090783507966,-61.24254043521445 -114.88103485401733,-58.742540435205164 -113.0509078351039,-56.912413416267185 -110.55090783510359,-56.24254043517133" stroke="#00f" stroke-linecap="round" stroke-linejoin="round"/><polyline fill="none" points="-22.143264005709923,55.420825590071715 -19.643264005700633,54.75095260900939 -17.813136986762657,52.92082559009595 -17.1432640056668,50.420825590095646 -17.81313698672913,47.92082559008636 -19.643264005642564,46.09069857114838 -22.14326400564287,45.42082559005252 -24.64326400565216,46.09069857111485 -26.47339102459014,47.92082559002829 -27.143264005685996,50.42082559002859 -26.47339102462367,52.92082559003788 -24.643264005710236,54.75095260897586 -22.14326400570993,55.420825590071715" stroke="#00f" stroke-linecap="round" stroke-linejoin="round"/><polyline fill="none" points="-85.90392538170227,27.99980379006188 -83.40392538169297,27.329930808999553 -81.57379836275499,25.49980379008612 -80.90392538165912,22.999803790085814 -81.57379836272145,20.499803790076523 -83.40392538163488,18.669676771138544 -85.90392538163519,17.999803790042687 -88.40392538164448,18.669676771105014 -90.23405240058247,20.499803790018447 -90.90392538167833,22.999803790018753 -90.23405240061601,25.499803790028043 -88.40392538170258,27.329930808966022 -85.90392538170227,27.999803790061883" stroke="#ffa500" stroke-linecap="round" stroke-linejoin="round"/><polyline fill="none" points="-99.69373023418483,-29.577161304764907 -97.19373023417553,-30.247034285827233 -95.36360321523755,-32.07716130474066 -94.69373023414168,-34.57716130474097 -95.36360321520401,-37.07716130475026 -97.19373023411744,-38.90728832368824 -99.69373023411775,-39.577161304784106 -102.19373023412705,-38.90728832372178 -104.02385725306503,-37.07716130480835 -104.6937302341609,-34.577161304808044 -104.02385725309857,-32.07716130479875 -102.19373023418514,-30.247034285860767 -99.69373023418483,-29.577161304764907" stroke="#008000" stroke-linecap="round" stroke-linejoin="round"/><polyline fill="none" points="-150.66508842251721,-62.64014550259792 -148.16508842250792,-63.310018483660244 -146.33496140356993,-65.14014550257367 -145.66508842247407,-67.64014550257399 -146.3349614035364,-70.14014550258328 -148.16508842244983,-71.97027252152127 -150.66508842245014,-72.64014550261713 -153.16508842245943,-71.9702725215548 -154.99521544139742,-70.14014550264137 -155.66508842249328,-67.64014550264106 -154.99521544143096,-65.14014550263177 -153.16508842251753,-63.31001848369378 -150.66508842251721,-62.64014550259792" stroke="#ffa500" stroke-linecap="round" stroke-linejoin="round"/><polyline fill="none" points="190.72945909528235,-101.18751526017101 193.22945909529165,-101.85738824123334 195.05958611422963,-103.68751526014677 195.7294590953255,-106.18751526014708 195.05958611426317,-108.68751526015637 193.22945909534974,-110.51764227909436 190.72945909534943,-111.18751526019022 188.22945909534013,-110.5176422791279 186.39933207640215,-108.68751526021447 185.72945909530628,-106.18751526021416 186.3993320763686,-103.68751526020486 188.22945909528204,-101.85738824126688 190.72945909528235,-101.18751526017101" stroke="#ffa500" stroke-linecap="round" stroke-linejoin="round"/></svg>