<?xml version="1.0" ?><!DOCTYPE svg  PUBLIC '-//W3C//DTD SVG 1.1//EN'  'http://www.w3.org/Graphics/SVG/1.1/DTD/svg11.dtd'><svg height="393.000" viewBox="-252.000 -198.000 450.000 393.000" width="450.000" xmlns="http://www.w3.org/2000/svg"><line fill="none" stroke="none" stroke-linecap="round" stroke-width="2.0" x1="0.0" x2="0.0" y1="0.0" y2="0.0"/><polygon fill="none" fill-rule="evenodd" points="0.0,0.0 0.0,0.0 0.0,0.0" stroke-linejoin="round"/><polyline fill="none" points="1.9538792465637966,64.42617830058481 4.453879246573859,63.756305319523776 6.284006265513155,61.92617830061108 6.953879246610523,59.42617830061075 6.284006265549493,56.92617830060069 4.453879246636799,55.096051281661396 1.9538792466364732,54.426178300564025 -0.5461207533735899,55.09605128162505 -2.3762477723128876,56.92617830053774 -3.046120753410257,59.42617830053807 -2.3762477723492292,61.92617830054813 -0.5461207534365358,63.75630531948743 1.9538792465637898,64.4261783005848" stroke="#ffa500" stroke-linecap="round" stroke-linejoin="round"/><polyline fill="none" points="28.263351382081467,23.348209726125372 30.763351382091532,22.678336745064346 32.59347840103083,20.84820972615165 33.2633513821282,18.348209726151325 32.59347840106717,15.84820972614126 30.76335138215448,14.01808270720196 28.263351382154152,13.348209726104589 25.763351382144087,14.018082707165615 23.933224363204786,15.848209726078307 23.263351382107412,18.348209726078633 23.93322436316844,20.848209726088697 25.76335138208113,22.678336745028 28.263351382081456,23.348209726125372" stroke="#ffa500" stroke-linecap="round" stroke-linejoin="round"/><polyline fill="none" points="50.59224096168277,-26.38131822790932 53.09224096169284,-27.051191208970344 54.92236798063214,-28.881318227883035 55.59224096172951,-31.38131822788336 54.92236798066848,-33.88131822789342 53.09224096175579,-35.711445246832724 50.592240961755465,-36.3813182279301 48.0922409617454,-35.711445246869076 46.262113942806096,-33.881318227956385 45.59224096170872,-31.38131822795606 46.26211394276974,-28.881318227945997 48.09224096168243,-27.051191209006696 50.592240961682755,-26.38131822790932" stroke="#ffa500" stroke-linecap="round" stroke-linejoin="round"/><polyline fill="none" points="-67.52307150400382,-85.82399272731519 -65.02307150399376,-86.4938657083762 -63.19294448505446,-88.3239927272889 -62.523071503957084,-90.82399272728922 -63.1929444850181,-93.32399272729928 -65.0230715039308,-95.15411974623859 -67.52307150393112,-95.82399272733596 -70.02307150394118,-95.15411974627494 -71.85319852288049,-93.32399272736225 -72.52307150397787,-90.82399272736193 -71.85319852291686,-88.32399272735186 -70.02307150400416,-86.49386570841256 -67.52307150400384,-85.82399272731517" stroke="#ffa500" stroke-linecap="round" stroke-linejoin="round"/><polyline fill="none" points="-88.05113089460397,14.890486064347186 -85.55113089459391,14.220613083286167 -83.7210038756546,12.390486064373478 -83.05113089455722,9.890486064373153 -83.72100387561824,7.390486064363085 -85.55113089453093,5.560359045423778 -88.05113089453125,4.890486064326398 -90.55113089454133,5.560359045387416 -92.38125791348064,7.390486064300104 -93.05113089457802,9.890486064300429 -92.381257913517,12.390486064310497 -90.55113089460431,14.220613083249805 -88.05113089460399,14.890486064347186" stroke="#00f" stroke-linecap="round" stroke-linejoin="round"/><polyline fill="none" points="-227.69963561458516,-38.70964651937268 -225.1996356145751,-39.3795195004337 -223.36950859563578,-41.20964651934639 -222.6996356145384,-43.70964651934672 -223.36950859559943,-46.20964651935679 -225.19963561451212,-48.039773538296096 -227.69963561451243,-48.70964651939348 -230.1996356145225,-48.03977353833246 -232.02976263346181,-46.20964651941978 -232.69963561455918,-43.70964651941945 -232.02976263349817,-41.20964651940938 -230.19963561458547,-39.379519500470074 -227.69963561458516,-38.70964651937269" stroke="#00f" stroke-linecap="round" stroke-linejoin="round"/><polyline fill="none" points="181.23216840815172,-86.42078159940628 183.73216840816178,-87.0906545804673 185.5622954271011,-88.92078159937999 186.2321684081985,-91.42078159938032 185.56229542713749,-93.9207815993904 183.7321684082248,-95.7509086183297 181.23216840822448,-96.42078159942709 178.73216840821442,-95.75090861836607 176.9020413892751,-93.92078159945338 176.2321684081777,-91.42078159945305 176.90204138923872,-88.92078159944298 178.7321684081514,-87.09065458050367 181.23216840815172,-86.42078159940628" stroke="#ffa500" stroke-linecap="round" stroke-linejoin="round"/><polyline fill="none" points="67.17672281106654,-177.00821295118442 69.67672281107662,-177.67808593224544 71.50684983001592,-179.50821295115813 72.17672281111331,-182.00821295115844 71.5068498300523,-184.5082129511685 69.67672281113963,-186.33833997010782 67.1767228111393,-187.00821295120522 64.67672281112922,-186.3383399701442 62.84659579218991,-184.5082129512315 62.17672281109252,-182.0082129512312 62.84659579215353,-179.50821295122114 64.67672281106621,-177.67808593228182 67.17672281106654,-177.00821295118442" stroke="#ffa500" stroke-linecap="round" stroke-linejoin="round"/><polyline fill="none" points="-230.85395233715928,-53.194060626998734 -228.35395233714922,-53.863933608059746 -226.5238253182099,-55.69406062697243 -225.8539523371125,-58.19406062697276 -226.52382531817352,-60.69406062698283 -228.3539523370862,-62.52418764592215 -230.85395233708653,-63.19406062701954 -233.3539523370966,-62.524187645958534 -235.1840793560359,-60.69406062704585 -235.8539523371333,-58.19406062704552 -235.1840793560723,-55.69406062703545 -233.3539523371596,-53.86393360809613 -230.85395233715928,-53.19406062699874" stroke="#00f" stroke-linecap="round" stroke-linejoin="round"/><polyline fill="none" points="-120.09594069804888,90.6646355621216 -117.5959406980388,89.9947625810606 -115.76581367909948,88.16463556214792 -115.09594069800208,85.6646355621476 -115.76581367906309,83.16463556213752 -117.59594069797576,81.3345085431982 -120.09594069797609,80.6646355621008 -122.59594069798617,81.3345085431618 -124.42606771692549,83.16463556207448 -125.09594069802289,85.6646355620748 -124.42606771696188,88.16463556208488 -122.5959406980492,89.9947625810242 -120.09594069804888,90.6646355621216" stroke="#00f" stroke-linecap="round" stroke-linejoin="round"/><polyline fill="none" points="103.01107841294758,152.78206404136927 105.51107841295766,152.11219106030828 107.34120543189698,150.28206404139559 108.01107841299438,147.78206404139527 107.34120543193337,145.28206404138518 105.5110784130207,143.45193702244586 103.01107841302037,142.78206404134846 100.5110784130103,143.45193702240945 98.68095139407097,145.28206404132214 98.01107841297357,147.78206404132246 98.68095139403458,150.28206404133255 100.51107841294726,152.11219106027187 103.01107841294758,152.78206404136927" stroke="#ffa500" stroke-linecap="round" stroke-linejoin="round"/><polyline fill="none" points="125.04519329200669,43.82114647298156 127.54519329201676,43.15127349192056 129.37532031095608,41.321146473007886 130.04519329205348,38.82114647300756 129.3753203109925,36.321146472997484 127.54519329207982,34.49101945405816 125.04519329207949,33.82114647296076 122.54519329206941,34.49101945402176 120.71506627313009,36.32114647293444 120.04519329203269,38.821146472934764 120.7150662730937,41.32114647294485 122.54519329200637,43.151273491884176 125.0451932920067,43.82114647298158" stroke="#ffa500" stroke-linecap="round" stroke-linejoin="round"/><polyline fill="none" points="143.7667042136134,-129.27206723511594 146.26670421362348,-129.94194021617693 148.0968312325628,-131.7720672350896 148.7667042136602,-134.2720672350899 148.09683123259921,-136.7720672351 146.26670421368655,-138.60219425403932 143.76670421368624,-139.27206723513672 141.26670421367615,-138.60219425407573 139.43657719473683,-136.77206723516306 138.76670421363943,-134.27206723516275 139.43657719470042,-131.77206723515266 141.26670421361308,-129.94194021621334 143.7667042136134,-129.27206723511594" stroke="#ffa500" stroke-linecap="round" stroke-linejoin="round"/><polyline fill="none" points="-43.11891075232859,-43.86738489741136 -40.618910752318506,-44.53725787847236 -38.78878373337918,-46.36738489738504 -38.11891075228177,-48.867384897385364 -38.78878373334277,-51.367384897395446 -40.618910752255445,-53.197511916334776 -43.11891075225577,-53.86738489743218 -45.618910752265855,-53.197511916371184 -47.449037771205184,-51.36738489745851 -48.11891075230259,-48.86738489745818 -47.4490377712416,-46.3673848974481 -45.61891075232892,-44.53725787850877 -43.118910752328595,-43.86738489741136" stroke="#00f" stroke-linecap="round" stroke-linejoin="round"/><polyline fill="none" points="-19.827706402245774,182.80240636527373 -17.32770640223569,182.13253338421273 -15.497579383296358,180.30240636530007 -14.827706402198949,177.80240636529976 -15.497579383259941,175.30240636528967 -17.327706402172616,173.47227934635035 -19.827706402172943,172.80240636525295 -22.327706402183026,173.47227934631394 -24.15783342112236,175.3024063652266 -24.827706402219768,177.80240636522691 -24.157833421158777,180.302406365237 -22.327706402246104,182.13253338417633 -19.827706402245777,182.80240636527373" stroke="#ffa500" stroke-linecap="round" stroke-linejoin="round"/><polyline fill="none" points="167.26499636383585,-34.07764751440332 169.76499636384594,-34.74752049546431 171.59512338278526,-36.57764751437698 172.26499636388266,-39.077647514377304 171.59512338282167,-41.57764751438739 169.764996363909,-43.40777453332672 167.2649963639087,-44.077647514424136 164.7649963638986,-43.407774533363146 162.93486934495928,-41.577647514450476 162.26499636386185,-39.07764751445015 162.93486934492284,-36.577647514440066 164.7649963638355,-34.74752049550073 167.26499636383582,-34.07764751440332" stroke="#ffa500" stroke-linecap="round" stroke-linejoin="round"/><polyline fill="none" points="-172.14803247144928,11.817413798103836 -169.6480324714392,11.147540817042847 -167.81790545249984,9.317413798130175 -167.14803247140242,6.81741379812985 -167.8179054524634,4.317413798119764 -169.64803247137607,2.487286779180427 -172.14803247137638,1.8174137980830114 -174.64803247138647,2.4872867791439988 -176.47815949032582,4.31741379805667 -177.14803247142325,6.817413798056995 -176.47815949036226,9.317413798067083 -174.6480324714496,11.147540817006421 -172.14803247144928,11.817413798103837" stroke="#008000" stroke-linecap="round" stroke-linejoin="round"/><polyline fill="none" points="41.54725468103941,-7.268774251127411 44.0472546810495,-7.938647232188397 45.87738169998884,-9.768774251101068 46.54725468108626,-12.268774251101393 45.877381700025275,-14.76877425111148 44.047254681112605,-16.59890127005082 41.54725468111228,-17.26877425114824 39.04725468110219,-16.598901270087257 37.217127662162845,-14.768774251174587 36.547254681065425,-12.268774251174262 37.21712766212641,-9.768774251164174 39.04725468103908,-7.938647232224833 41.547254681039405,-7.268774251127413" stroke="#ffa500" stroke-linecap="round" stroke-linejoin="round"/><polyline fill="none" points="-175.65635129784312,-56.023613012966315 -173.15635129783303,-56.6934859940273 -171.32622427889368,-58.52361301293997 -170.65635129779625,-61.023613012940295 -171.32622427885724,-63.523613012950385 -173.1563512977699,-65.35374003188973 -175.65635129777021,-66.02361301298716 -178.1563512977803,-65.35374003192618 -179.98647831671965,-63.52361301301351 -180.65635129781708,-61.02361301301318 -179.9864783167561,-58.52361301300309 -178.15635129784343,-56.69348599406375 -175.65635129784312,-56.02361301296633" stroke="#00f" stroke-linecap="round" stroke-linejoin="round"/><polyline fill="none" points="58.71478581917828,-147.9716047136379 61.21478581918837,-148.6414776946989 63.044912838127715,-150.47160471361155 63.71478581922514,-152.97160471361187 63.04491283816416,-155.47160471362196 61.21478581925149,-157.3017317325613 58.71478581925116,-157.97160471365873 56.21478581924107,-157.30173173259774 54.38465880030173,-155.47160471368508 53.7147858192043,-152.97160471368477 54.38465880026528,-150.47160471367468 56.21478581917795,-148.64147769473533 58.714785819178275,-147.9716047136379" stroke="#00f" stroke-linecap="round" stroke-linejoin="round"/><polyline fill="none" points="143.19258083673088,-9.744648022467453 145.69258083674097,-10.414521003528433 147.52270785568032,-12.2446480224411 148.19258083677775,-14.744648022441424 147.52270785571676,-17.244648022451518 145.6925808368041,-19.074775041390865 143.19258083680378,-19.744648022488292 140.6925808367937,-19.074775041427316 138.86245381785434,-17.24464802251465 138.19258083675692,-14.744648022514324 138.8624538178179,-12.244648022504231 140.69258083673057,-10.414521003564882 143.19258083673088,-9.744648022467453" stroke="#ffa500" stroke-linecap="round" stroke-linejoin="round"/><polyline fill="none" points="-18.940719036981463,54.68517095463166 -16.44071903697137,54.01529797357068 -14.61059201803202,52.18517095465802 -13.940719036934592,49.68517095465769 -14.610592017995568,47.1851709546476 -16.44071903690823,45.35504393570825 -18.940719036908558,44.685170954610825 -21.44071903691865,45.3550439356718 -23.270846055858,47.185170954584464 -23.940719036955432,49.68517095458479 -23.270846055894456,52.18517095459489 -21.440719036981793,54.01529797353424 -18.940719036981466,54.68517095463167" stroke="#ffa500" stroke-linecap="round" stroke-linejoin="round"/><polyline fill="none" points="95.27151503334103,-147.32710541907704 97.77151503335112,-147.996978400138 99.60164205229047,-149.82710541905067 100.2715150333879,-152.32710541905098 99.60164205232692,-154.82710541906107 97.77151503341426,-156.65723243800042 95.27151503341393,-157.32710541909785 92.77151503340384,-156.65723243803689 90.9413880144645,-154.82710541912422 90.27151503336707,-152.3271054191239 90.94138801442804,-149.82710541911382 92.7715150333407,-147.99697840017447 95.27151503334103,-147.32710541907704" stroke="#ffa500" stroke-linecap="round" stroke-linejoin="round"/><polyline fill="none" points="-55.246615195974684,88.91002773273836 -52.74661519596459,88.24015475167738 -50.916488177025236,86.41002773276472 -50.2466151959278,83.91002773276439 -50.91648817698877,81.4100277327543 -52.746615195901434,79.57990071381495 -55.24661519590176,78.91002773271751 -57.74661519591186,79.57990071377849 -59.576742214851215,81.41002773269115 -60.24661519594865,83.91002773269147 -59.57674221488768,86.41002773270156 -57.74661519597502,88.24015475164092 -55.24661519597469,88.91002773273836" stroke="#00f" stroke-linecap="round" stroke-linejoin="round"/><polyline fill="none" points="92.9516402079802,-53.10187519435926 95.4516402079903,-53.77174817542023 97.28176722692965,-55.60187519433289 97.95164020802709,-58.10187519433322 97.28176722696611,-60.601875194343314 95.45164020805345,-62.43200221328267 92.95164020805312,-63.101875194380106 90.45164020804302,-62.43200221331914 88.62151318910367,-60.601875194406475 87.95164020800622,-58.10187519440615 88.62151318906719,-55.60187519439605 90.45164020797985,-53.77174817545669 92.95164020798018,-53.10187519435925" stroke="#00f" stroke-linecap="round" stroke-linejoin="round"/><polyline fill="none" points="158.29501597155624,-91.0078137200159 160.79501597156633,-91.67768670107687 162.62514299050568,-93.50781371998953 163.2950159716031,-96.00781371998985 162.62514299054214,-98.50781371999996 160.79501597162948,-100.33794073893932 158.29501597162917,-101.00781372003676 155.79501597161908,-100.3379407389758 153.96488895267973,-98.50781372006314 153.2950159715823,-96.00781372006281 153.96488895264326,-93.50781372005271 155.79501597155593,-91.67768670111334 158.29501597155624,-91.0078137200159" stroke="#00f" stroke-linecap="round" stroke-linejoin="round"/><polyline fill="none" points="107.98714917915017,54.41844821386032 110.48714917916027,53.74857523279936 112.31727619809963,51.918448213886705 112.98714917919708,49.41844821388638 112.31727619813611,46.918448213876275 110.48714917922345,45.08832119493691 107.98714917922312,44.41844821383947 105.48714917921302,45.08832119490043 103.65702216027366,46.918448213813086 102.98714917917621,49.41844821381341 103.65702216023718,51.91844821382352 105.48714917914984,53.74857523276288 107.98714917915017,54.41844821386033" stroke="#ffa500" stroke-linecap="round" stroke-linejoin="round"/><polyline fill="none" points="121.33307290953822,15.810734568330037 123.83307290954832,15.140861587269075 125.66319992848769,13.31073456835642 126.33307290958513,10.810734568356095 125.66319992852416,8.310734568345993 123.83307290961152,6.480607549406628 121.33307290961119,5.810734568309181 118.83307290960109,6.480607549370141 117.00294589066172,8.310734568282797 116.33307290956428,10.810734568283122 117.00294589062524,13.310734568293224 118.83307290953789,15.14086158723259 121.33307290953822,15.810734568330039" stroke="#ffa500" stroke-linecap="round" stroke-linejoin="round"/><polyline fill="none" points="-26.778356799649966,-80.01116386029763 -24.278356799639862,-80.68103684135859 -22.448229780700494,-82.51116386027124 -21.778356799603046,-85.01116386027157 -22.448229780664004,-87.51116386028167 -24.27835679957666,-89.34129087922103 -26.778356799576986,-90.01116386031849 -29.27835679958709,-89.34129087925753 -31.10848381852646,-87.51116386034488 -31.77835679962391,-85.01116386034455 -31.108483818562952,-82.51116386033445 -29.2783567996503,-80.68103684139508 -26.778356799649973,-80.01116386029763" stroke="#ffa500" stroke-linecap="round" stroke-linejoin="round"/><polyline fill="none" points="-26.44106329958635,21.980549443457967 -23.941063299576246,21.310676462397012 -22.110936280636878,19.48054944348436 -21.441063299539426,16.980549443484037 -22.11093628060038,14.480549443473933 -23.941063299513033,12.650422424534565 -26.44106329951336,11.980549443437113 -28.941063299523464,12.65042242449807 -30.771190318462832,14.480549443410721 -31.441063299560284,16.980549443411046 -30.77119031849933,19.48054944342115 -28.941063299586677,21.310676462360522 -26.44106329958635,21.980549443457978" stroke="#ffa500" stroke-linecap="round" stroke-linejoin="round"/><polyline fill="none" points="-107.50484548379511,10.265307263159379 -105.004845483785,9.595434282098424 -103.17471846484564,7.765307263185772 -102.50484548374818,5.265307263185446 -103.17471846480913,2.7653072631753393 -105.00484548372178,0.9351802442359671 -107.50484548372211,0.2653072631385116 -110.00484548373221,0.9351802441994648 -111.83497250267159,2.765307263112115 -112.50484548376905,5.26530726311244 -111.8349725027081,7.765307263122547 -110.00484548379545,9.59543428206192 -107.50484548379512,10.265307263159377" stroke="#ffa500" stroke-linecap="round" stroke-linejoin="round"/><polyline fill="none" points="-9.177192366967663,-66.59731492715538 -6.677192366957556,-67.26718790821633 -4.847065348018181,-69.09731492712898 -4.177192366920723,-71.5973149271293 -4.847065347981673,-74.09731492713941 -6.677192366894323,-75.92744194607879 -9.177192366894648,-76.59731492717624 -11.677192366904755,-75.9274419461153 -13.50731938584413,-74.09731492720265 -14.17719236694159,-71.59731492720232 -13.50731938588064,-69.09731492719222 -11.677192366967992,-67.26718790825284 -9.177192366967667,-66.59731492715538" stroke="#00f" stroke-linecap="round" stroke-linejoin="round"/><polyline fill="none" points="-223.3655491195982,-4.905175103570455 -220.86554911958808,-5.575048084631405 -219.0354221006487,-7.405175103544053 -218.36554911955125,-9.905175103544378 -219.0354221006122,-12.405175103554487 -220.86554911952484,-14.235302122493865 -223.36554911952516,-14.905175103591326 -225.86554911953527,-14.235302122530378 -227.69567613847465,-12.40517510361773 -228.3655491195721,-9.905175103617404 -227.69567613851117,-7.405175103607295 -225.86554911959854,-5.575048084667916 -223.36554911959823,-4.9051751035704525" stroke="#ffa500" stroke-linecap="round" stroke-linejoin="round"/><polyline fill="none" points="-185.54358689809976,114.50938868795407 -183.04358689808964,113.83951570689312 -181.21345987915026,112.00938868798048 -180.5435868980528,109.50938868798015 -181.21345987911374,107.00938868797004 -183.04358689802638,105.17926166903067 -185.5435868980267,104.5093886879332 -188.0435868980368,105.17926166899414 -189.8737139169762,107.00938868790679 -190.54358689807364,109.50938868790712 -189.8737139170127,112.00938868791724 -188.04358689810007,113.83951570685662 -185.54358689809976,114.50938868795409" stroke="#ffa500" stroke-linecap="round" stroke-linejoin="round"/><polyline fill="none" points="174.56221701093594,122.56104751262247 177.06221701094606,121.89117453156152 178.89234402988544,120.06104751264887 179.5622170109829,117.56104751264854 178.89234402992196,115.06104751263842 177.06221701100932,113.23092049369905 174.562217011009,112.56104751260158 172.0622170109989,113.23092049366252 170.2320899920595,115.06104751257517 169.56221701096206,117.5610475125755 170.232089992023,120.06104751258562 172.06221701093563,121.891174531525 174.56221701093594,122.56104751262247" stroke="#ffa500" stroke-linecap="round" stroke-linejoin="round"/><polyline fill="none" points="-180.84529295032272,26.0589670719469 -178.3452929503126,25.38909409088596 -176.51516593137322,23.558967071973314 -175.84529295027576,21.058967071972987 -176.5151659313367,18.558967071962872 -178.34529295024933,16.72884005302349 -180.84529295024964,16.05896707192602 -183.34529295025976,16.72884005298696 -185.17541996919914,18.558967071899605 -185.84529295029662,21.058967071899932 -185.1754199692357,23.558967071910047 -183.34529295032306,25.389094090849433 -180.84529295032274,26.058967071946903" stroke="#f00" stroke-linecap="round" stroke-linejoin="round"/><polyline fill="none" points="102.53319275631442,-153.25909507993487 105.03319275632454,-153.9289680609958 106.86331977526393,-155.75909507990843 107.5331927563614,-158.25909507990875 106.86331977530047,-160.75909507991886 105.03319275638782,-162.58922209885824 102.53319275638749,-163.25909507995573 100.03319275637737,-162.5892220988948 98.20306573743798,-160.75909507998216 97.53319275634051,-158.25909507998185 98.20306573740145,-155.75909507997173 100.0331927563141,-153.92896806103235 102.53319275631442,-153.25909507993487" stroke="#ffa500" stroke-linecap="round" stroke-linejoin="round"/><polyline fill="none" points="122.82561100577942,-124.49027670883672 125.32561100578954,-125.16014968989765 127.15573802472893,-126.9902767088103 127.8256110058264,-129.49027670881063 127.15573802476547,-131.99027670882074 125.32561100585282,-133.82040372776012 122.8256110058525,-134.4902767088576 120.32561100584238,-133.82040372779667 118.49548398690298,-131.99027670888404 117.82561100580551,-129.49027670888373 118.49548398686645,-126.99027670887361 120.3256110057791,-125.16014968993422 122.82561100577942,-124.49027670883675" stroke="#ffa500" stroke-linecap="round" stroke-linejoin="round"/><polyline fill="none" points="178.60542282594386,-49.00757828236681 181.10542282595398,-49.67745126342774 182.93554984489336,-51.50757828234038 183.60542282599084,-54.00757828234071 182.9355498449299,-56.50757828235083 181.10542282601727,-58.33770530129022 178.60542282601693,-59.0075782823877 176.10542282600682,-58.337705301326764 174.27529580706744,-56.50757828241412 173.60542282596995,-54.007578282413796 174.2752958070309,-51.50757828240368 176.10542282594352,-49.677451263464285 178.60542282594386,-49.00757828236681" stroke="#ffa500" stroke-linecap="round" stroke-linejoin="round"/><polyline fill="none" points="-150.15078682314675,24.454079857000714 -147.65078682313663,23.78420687593978 -145.82065980419722,21.95407985702714 -145.15078682309974,19.454079857026812 -145.82065980416067,16.95407985701669 -147.6507868230733,15.123952838077296 -150.15078682307364,14.454079856979815 -152.65078682308376,15.123952838040747 -154.48091384202317,16.95407985695339 -155.15078682312065,19.454079856953715 -154.48091384205972,21.954079856963837 -152.6507868231471,23.784206875903234 -150.15078682314675,24.454079857000714" stroke="#00f" stroke-linecap="round" stroke-linejoin="round"/><polyline fill="none" points="46.22301461882748,-106.63731815653465 48.7230146188376,-107.30719113759558 50.553141637777,-109.13731815650821 51.22301461887449,-111.63731815650854 50.55314163781355,-114.13731815651866 48.72301461890091,-115.96744517545805 46.223014618900585,-116.63731815655554 43.72301461889046,-115.9674451754946 41.89288759995106,-114.13731815658197 41.223014618853576,-111.63731815658164 41.8928875999145,-109.13731815657152 43.72301461882714,-107.30719113763213 46.22301461882747,-106.63731815653465" stroke="#ffa500" stroke-linecap="round" stroke-linejoin="round"/><polyline fill="none" points="146.3060894844364,-30.552920348235446 148.80608948444652,-31.222793329296376 150.63621650338592,-33.052920348209014 151.3060894844834,-35.55292034820934 150.63621650342247,-38.052920348219466 148.80608948450984,-39.883047367158866 146.3060894845095,-40.55292034825635 143.80608948449938,-39.883047367195424 141.97596246555997,-38.05292034828279 141.3060894844625,-35.55292034828246 141.97596246552342,-33.05292034827234 143.80608948443606,-31.222793329332937 146.3060894844364,-30.55292034823545" stroke="#ffa500" stroke-linecap="round" stroke-linejoin="round"/><polyline fill="none" points="147.60565205750177,81.36461894297646 150.1056520575119,80.69474596191553 151.9357790764513,78.8646189430029 152.60565205754878,76.36461894300257 151.93577907648785,73.86461894299245 150.1056520575752,72.03449192405304 147.60565205757487,71.36461894295556 145.10565205756475,72.03449192401648 143.27552503862535,73.86461894292911 142.60565205752786,76.36461894292944 143.2755250385888,78.86461894293956 145.10565205750143,80.69474596187897 147.60565205750177,81.36461894297645" stroke="#ffa500" stroke-linecap="round" stroke-linejoin="round"/><polyline fill="none" points="47.19333659731513,170.21684116940693 49.693336597325256,169.546968188346 51.523463616264664,167.71684116943337 52.193336597362155,165.21684116943302 51.52346361630123,162.7168411694229 49.693336597388594,160.8867141504835 47.19333659738827,160.21684116938602 44.69333659737814,160.88671415044695 42.863209578438735,162.71684116935958 42.19333659734124,165.21684116935992 42.86320957840216,167.71684116937004 44.6933365973148,169.54696818830945 47.193336597315124,170.21684116940693" stroke="#ffa500" stroke-linecap="round" stroke-linejoin="round"/><polyline fill="none" points="-103.73617030781352,-38.724806388396495 -101.23617030780339,-39.394679369457414 -99.40604328886398,-41.22480638837005 -98.73617030776649,-43.724806388370375 -99.4060432888274,-46.2248063883805 -101.23617030774004,-48.05493340731991 -103.73617030774037,-48.7248063884174 -106.2361703077505,-48.05493340735648 -108.0662973266899,-46.224806388443845 -108.7361703077874,-43.72480638844352 -108.06629732672648,-41.22480638843339 -106.23617030781385,-39.394679369493986 -103.73617030781352,-38.72480638839649" stroke="#00f" stroke-linecap="round" stroke-linejoin="round"/><polyline fill="none" points="-216.72235062036938,78.88952027699169 -214.22235062035926,78.21964729593077 -212.39222360141986,76.38952027701814 -211.72235062032237,73.88952027701781 -212.39222360138328,71.38952027700768 -214.2223506202959,69.55939325806827 -216.72235062029625,68.88952027697077 -219.22235062030637,69.55939325803169 -221.05247763924578,71.38952027694432 -221.72235062034326,73.88952027694465 -221.05247763928236,76.38952027695478 -219.22235062036972,78.21964729589419 -216.72235062036938,78.88952027699169" stroke="#00f" stroke-linecap="round" stroke-linejoin="round"/><polyline fill="none" points="145.83920336594014,145.02493789077664 148.33920336595025,144.35506490971574 150.16933038488966,142.5249378908031 150.83920336598717,140.02493789080276 150.16933038492627,137.52493789079264 148.33920336601363,135.69481087185324 145.8392033660133,135.02493789075572 143.33920336600318,135.69481087181663 141.50907634706377,137.52493789072926 140.83920336596626,140.0249378907296 141.50907634702716,142.52493789073972 143.3392033659398,144.35506490967913 145.83920336594014,145.02493789077664" stroke="#ffa500" stroke-linecap="round" stroke-linejoin="round"/><polyline fill="none" points="-153.03848295441355,110.68060924169403 -150.53848295440343,110.01073626063311 -148.70835593546403,108.18060924172048 -148.03848295436651,105.68060924172015 -148.70835593542742,103.18060924171002 -150.53848295434005,101.35048222277061 -153.0384829543404,100.68060924167311 -155.5384829543505,101.35048222273403 -157.36860997328992,103.18060924164666 -158.03848295438743,105.68060924164699 -157.36860997332653,108.18060924165712 -155.5384829544139,110.01073626059654 -153.03848295441355,110.68060924169404" stroke="#ffa500" stroke-linecap="round" stroke-linejoin="round"/><polyline fill="none" points="-83.63551505923014,-40.78840842512321 -81.13551505922001,-41.45828140618412 -79.30538804028059,-43.28840842509675 -78.63551505918309,-45.788408425097074 -79.305388040244,-48.28840842510721 -81.13551505915663,-50.11853544404662 -83.63551505915696,-50.78840842514413 -86.13551505916709,-50.118535444083214 -87.96564207810651,-48.28840842517059 -88.63551505920402,-45.78840842517026 -87.96564207814312,-43.28840842516013 -86.13551505923049,-41.458281406220706 -83.63551505923016,-40.7884084251232" stroke="#00f" stroke-linecap="round" stroke-linejoin="round"/><polyline fill="none" points="136.30660827402062,-36.06864500353372 138.80660827403076,-36.73851798459463 140.63673529297017,-38.56864500350726 141.30660827406768,-41.068645003507584 140.63673529300678,-43.568645003517716 138.80660827409415,-45.39877202245714 136.3066082740938,-46.06864500355464 133.80660827408366,-45.39877202249373 131.97648125514425,-43.5686450035811 131.30660827404674,-41.06864500358078 131.97648125510764,-38.56864500357064 133.80660827402028,-36.738517984631216 136.30660827402062,-36.0686450035337" stroke="#ffa500" stroke-linecap="round" stroke-linejoin="round"/><polyline fill="none" points="70.25940458030234,25.862217660199267 72.75940458031248,25.19234467913836 74.5895315992519,23.36221766022573 75.25940458034941,20.8622176602254 74.5895315992885,18.362217660215265 72.75940458037589,16.532090641275843 70.25940458037556,15.862217660178333 67.75940458036543,16.53209064123924 65.929277561426,18.362217660151867 65.25940458032849,20.862217660152197 65.9292775613894,23.362217660162337 67.75940458030202,25.192344679101762 70.25940458030234,25.862217660199274" stroke="#00f" stroke-linecap="round" stroke-linejoin="round"/><polyline fill="none" points="65.21923027230035,128.96988910941388 67.71923027231048,128.30001612835298 69.5493572912499,126.46988910944036 70.21923027234742,123.96988910944003 69.54935729128651,121.4698891094299 67.71923027237389,119.63976209049048 65.21923027237357,118.96988910939297 62.719230272363426,119.63976209045387 60.889103253424,121.46988910936649 60.219230272326485,123.96988910936682 60.88910325338739,126.46988910937696 62.71923027230002,128.3000161283164 65.21923027230035,128.9698891094139" stroke="#ffa500" stroke-linecap="round" stroke-linejoin="round"/><polyline fill="none" points="-152.66029725136104,-90.89821195266683 -150.1602972513509,-91.56808493372773 -148.33017023241146,-93.39821195264035 -147.66029725131395,-95.89821195264068 -148.33017023237485,-98.39821195265083 -150.1602972512875,-100.22833897159025 -152.66029725128783,-100.89821195268776 -155.16029725129798,-100.22833897162685 -156.9904242702374,-98.39821195271423 -157.66029725133492,-95.89821195271391 -156.99042427027402,-93.39821195270376 -155.16029725136138,-91.56808493376434 -152.66029725136104,-90.89821195266683" stroke="#ffa500" stroke-linecap="round" stroke-linejoin="round"/><polyline fill="none" points="-50.54793367833285,-67.97125300077221 -48.047933678322714,-68.64112598183311 -46.217806659383285,-70.47125300074573 -45.547933678285766,-72.97125300074606 -46.217806659346664,-75.4712530007562 -48.047933678259284,-77.30138001969564 -50.54793367825961,-77.97125300079315 -53.04793367826975,-77.30138001973225 -54.87806069720918,-75.47125300081963 -55.5479336783067,-72.9712530008193 -54.8780606972458,-70.47125300080916 -53.04793367833318,-68.64112598186972 -50.54793367833285,-67.9712530007722" stroke="#ffa500" stroke-linecap="round" stroke-linejoin="round"/><polyline fill="none" points="-67.10362333685102,61.93148587799949 -64.60362333684087,61.261612896938594 -62.77349631790144,59.431485878025974 -62.10362333680392,56.93148587802564 -62.77349631786482,54.43148587801549 -64.60362333677745,52.60135885907606 -67.10362333677777,51.93148587797854 -69.60362333678792,52.601358859039436 -71.43375035572735,54.431485877952056 -72.10362333682488,56.93148587795238 -71.43375035576399,59.43148587796253 -69.60362333685137,61.261612896901966 -67.10362333685104,61.93148587799949" stroke="#ffa500" stroke-linecap="round" stroke-linejoin="round"/><polyline fill="none" points="44.61768443511526,67.21266563243788 47.117684435125405,66.54279265137698 48.94781145406484,64.71266563246436 49.61768443516237,62.21266563246404 48.94781145410147,59.71266563245389 47.11768443518885,57.882538613514456 44.61768443518852,57.21266563241693 42.117684435178376,57.88253861347782 40.28755741623894,59.71266563239044 39.61768443514141,62.21266563239077 40.287557416202304,64.71266563240091 42.117684435114924,66.54279265134035 44.61768443511525,67.21266563243788" stroke="#00f" stroke-linecap="round" stroke-linejoin="round"/><polyline fill="none" points="-54.70763169945566,135.21556942868673 -52.207631699445514,134.54569644762583 -50.37750468050608,132.71556942871322 -49.70763169940855,130.21556942871288 -50.37750468046944,127.71556942870274 -52.20763169938206,125.8854424097633 -54.70763169938239,125.21556942866577 -57.207631699392536,125.88544240972666 -59.03775871833197,127.71556942863928 -59.7076316994295,130.2155694286396 -59.03775871836861,132.71556942864976 -57.20763169945599,134.5456964475892 -54.70763169945566,135.21556942868673" stroke="#ffa500" stroke-linecap="round" stroke-linejoin="round"/><polyline fill="none" points="-76.59969013806383,40.766205006946244 -74.09969013805369,40.09633202588535 -72.26956311911425,38.26620500697273 -71.59969013801673,35.7662050069724 -72.26956311907762,33.26620500696225 -74.09969013799024,31.436077988022813 -76.59969013799056,30.766205006925283 -79.09969013800071,31.436077987986174 -80.92981715694015,33.26620500689879 -81.59969013803767,35.76620500689911 -80.92981715697678,38.26620500690926 -79.09969013806416,40.0963320258487 -76.59969013806383,40.76620500694624" stroke="#00f" stroke-linecap="round" stroke-linejoin="round"/><polyline fill="none" points="-139.52326820697454,105.41458066560841 -137.0232682069644,104.74470768454752 -135.19314118802495,102.9145806656349 -134.5232682069274,100.41458066563457 -135.1931411879883,97.91458066562443 -137.0232682069009,96.08445364668499 -139.52326820690124,95.41458066558745 -142.02326820691138,96.08445364664834 -143.85339522585082,97.91458066556096 -144.52326820694836,100.41458066556129 -143.85339522588748,102.91458066557144 -142.02326820697488,104.74470768451089 -139.52326820697454,105.41458066560843" stroke="#ffa500" stroke-linecap="round" stroke-linejoin="round"/><polyline fill="none" points="61.96159848889456,19.38917697760136 64.46159848890471,18.719303996540475 66.29172550784416,16.889176977627862 66.9615984889417,14.389176977627532 66.29172550788081,11.889176977617382 64.46159848896819,10.059049958677937 61.961598488967866,9.3891769775804 59.46159848895771,10.059049958641284 57.63147147001827,11.889176977553896 56.96159848892073,14.389176977554225 57.63147146998161,16.889176977564375 59.461598488894225,18.71930399650382 61.96159848889455,19.38917697760136" stroke="#ffa500" stroke-linecap="round" stroke-linejoin="round"/><polyline fill="none" points="-113.4556759124432,-19.559602958885385 -110.95567591243305,-20.22947593994627 -109.1255488934936,-22.059602958858882 -108.45567591239606,-24.559602958859212 -109.12554889345694,-27.059602958869363 -110.95567591236954,-28.88972997780881 -113.45567591236987,-29.55960295890635 -115.95567591238002,-28.889729977845466 -117.78580293131947,-27.059602958932853 -118.45567591241701,-24.559602958932523 -117.78580293135613,-22.05960295892237 -115.95567591244352,-20.22947593998292 -113.4556759124432,-19.559602958885378" stroke="#008000" stroke-linecap="round" stroke-linejoin="round"/><polyline fill="none" points="-94.62562280203095,-25.486181506637656 -92.1256228020208,-26.156054487698537 -90.29549578308135,-27.98618150661115 -89.62562280198381,-30.48618150661148 -90.29549578304469,-32.986181506621634 -92.12562280195729,-34.816308525561084 -94.62562280195762,-35.486181506658625 -97.12562280196778,-34.81630852559775 -98.95574982090723,-32.986181506685135 -99.62562280200477,-30.486181506684805 -98.9557498209439,-27.98618150667465 -97.12562280203129,-26.1560544877352 -94.62562280203096,-25.486181506637656" stroke="#00f" stroke-linecap="round" stroke-linejoin="round"/><polyline fill="none" points="10.307472528249143,161.17968911056778 12.807472528259296,160.5098161295069 14.637599547198748,158.6796891105943 15.307472528296293,156.17968911059396 14.637599547235416,153.6796891105838 12.807472528322807,151.84956209164434 10.307472528322478,151.1796891105468 7.8074725283123225,151.84956209160768 5.97734550937287,153.6796891105203 5.307472528275323,156.17968911052063 5.9773455093362,158.67968911053077 7.807472528248808,160.50981612947024 10.307472528249138,161.17968911056778" stroke="#00f" stroke-linecap="round" stroke-linejoin="round"/><polyline fill="none" points="-167.42378294207217,57.358830540136616 -164.92378294206202,56.68895755907574 -163.09365592312255,54.85883054016313 -162.423782942025,52.358830540162806 -163.0936559230859,49.85883054015265 -164.9237829419985,48.028703521213195 -167.42378294199884,47.35883054011565 -169.92378294200898,48.028703521176524 -171.75390996094845,49.85883054008913 -172.423782942046,52.35883054008946 -171.7539099609851,54.85883054009962 -169.9237829420725,56.688957559039075 -167.42378294207217,57.35883054013662" stroke="#00f" stroke-linecap="round" stroke-linejoin="round"/><polyline fill="none" points="100.09076755828072,114.69124546748849 102.59076755829088,114.02137248642761 104.42089457723034,112.191245467515 105.0907675583279,109.69124546751468 104.42089457726702,107.19124546750452 102.59076755835441,105.36111844856505 100.09076755835409,104.6912454674675 97.59076755834393,105.36111844852837 95.76064053940446,107.19124546744098 95.09076755830691,109.6912454674413 95.76064053936778,112.19124546745147 97.59076755828039,114.02137248639093 100.09076755828072,114.69124546748849" stroke="#ffa500" stroke-linecap="round" stroke-linejoin="round"/><polyline fill="none" points="-63.16500602702605,64.9558289481898 -60.66500602701589,64.28595596712893 -58.834879008076435,62.45582894821632 -58.16500602697888,59.955828948215995 -58.83487900803975,57.455828948205834 -60.665006026952355,55.62570192926638 -63.16500602695268,54.95582894816882 -65.66500602696284,55.62570192922969 -67.4951330459023,57.4558289481423 -68.16500602699986,59.955828948142624 -67.495133045939,62.455828948152785 -65.6650060270264,64.28595596709225 -63.16500602702607,64.9558289481898" stroke="#ffa500" stroke-linecap="round" stroke-linejoin="round"/><polyline fill="none" points="127.75767482370448,-31.681455404910345 130.25767482371464,-32.351328385971215 132.0878018426541,-34.18145540488382 132.75767482375167,-36.68145540488415 132.0878018426908,-39.18145540489431 130.2576748237782,-41.01158242383377 127.75767482377786,-41.68145540493133 125.2576748237677,-41.01158242387046 123.42754780482824,-39.18145540495785 122.75767482373068,-36.681455404957525 123.42754780479154,-34.181455404947364 125.25767482370415,-32.3513283860079 127.75767482370448,-31.68145540491034" stroke="#ffa500" stroke-linecap="round" stroke-linejoin="round"/><polyline fill="none" points="-122.14464857200657,142.83472323479964 -119.64464857199641,142.16485025373876 -117.81452155305695,140.33472323482616 -117.1446485719594,137.83472323482582 -117.81452155302026,135.33472323481564 -119.64464857193286,133.50459621587618 -122.14464857193319,132.8347232347786 -124.64464857194335,133.50459621583948 -126.47477559088281,135.3347232347521 -127.14464857198037,137.83472323475243 -126.4747755909195,140.3347232347626 -124.6446485720069,142.16485025370207 -122.14464857200657,142.83472323479964" stroke="#ffa500" stroke-linecap="round" stroke-linejoin="round"/><polyline fill="none" points="81.98663357195717,13.62106065769985 84.48663357196733,12.951187676638986 86.3167605909068,11.121060657726385 86.98663357200435,8.621060657726055 86.31676059094349,6.121060657715892 84.48663357203088,4.290933638776425 81.98663357203056,3.6210606576788624 79.4866335720204,4.290933638739725 77.65650655308093,6.121060657652325 76.98663357198336,8.621060657652656 77.65650655304422,11.12106065766282 79.48663357195683,12.951187676602288 81.98663357195716,13.621060657699852" stroke="#ffa500" stroke-linecap="round" stroke-linejoin="round"/><polyline fill="none" points="-202.46913295460212,24.102314249599175 -199.96913295459194,23.432441268538316 -198.13900593565248,21.602314249625717 -197.4691329545549,19.102314249625387 -198.13900593561576,16.602314249615223 -199.96913295452836,14.772187230675753 -202.4691329545287,14.102314249578187 -204.96913295453888,14.772187230639046 -206.79925997347834,16.602314249551647 -207.4691329545759,19.102314249551977 -206.79925997351506,21.60231424956214 -204.96913295460246,23.432441268501613 -202.46913295460212,24.10231424959918" stroke="#008000" stroke-linecap="round" stroke-linejoin="round"/><polyline fill="none" points="-140.98420997567015,85.08231745245 -138.48420997565998,84.41244447138914 -136.65408295672052,82.58231745247653 -135.98420997562295,80.0823174524762 -136.6540829566838,77.58231745246604 -138.4842099755964,75.75219043352656 -140.98420997559674,75.082317452429 -143.48420997560692,75.75219043348986 -145.31433699454638,77.58231745240245 -145.98420997564395,80.08231745240278 -145.3143369945831,82.58231745241294 -143.4842099756705,84.41244447135242 -140.98420997567015,85.08231745244998" stroke="#00f" stroke-linecap="round" stroke-linejoin="round"/><polyline fill="none" points="-38.26469809307447,17.774378899949767 -35.764698093064304,17.10450591888891 -33.93457107412483,15.274378899976313 -33.26469809302726,12.774378899975982 -33.93457107408812,10.274378899965814 -35.76469809300072,8.44425188102634 -38.264698093001044,7.774378899928768 -40.76469809301121,8.444251880989624 -42.59482511195069,10.27437889990222 -43.26469809304826,12.774378899902551 -42.594825111987404,15.274378899912719 -40.764698093074806,17.104505918852194 -38.26469809307448,17.774378899949767" stroke="#ffa500" stroke-linecap="round" stroke-linejoin="round"/><polyline fill="none" points="124.77951343870151,120.66669628450586 127.27951343871169,119.99682330344501 129.10964045765115,118.16669628453242 129.77951343874872,115.6666962845321 129.10964045768787,113.16669628452192 127.27951343877528,111.33656926558244 124.77951343877496,110.66669628448487 122.27951343876478,111.33656926554572 120.4493864198253,113.16669628445831 119.77951343872773,115.66669628445864 120.44938641978858,118.16669628446881 122.27951343870117,119.99682330340829 124.7795134387015,120.66669628450586" stroke="#00f" stroke-linecap="round" stroke-linejoin="round"/><polyline fill="none" points="-227.40051787019087,-58.89688024162528 -224.9005178701807,-59.56675322268614 -223.0703908512412,-61.39688024159874 -222.40051787014363,-63.896880241599064 -223.07039085120448,-66.39688024160924 -224.90051787011708,-68.22700726054872 -227.40051787011743,-68.89688024164629 -229.9005178701276,-68.22700726058544 -231.7306448890671,-66.39688024167285 -232.40051787016466,-63.89688024167252 -231.73064488910381,-61.39688024166235 -229.9005178701912,-59.56675322272287 -227.40051787019087,-58.8968802416253" stroke="#ffa500" stroke-linecap="round" stroke-linejoin="round"/><polyline fill="none" points="-100.97899218277645,108.63319700994577 -98.47899218276628,107.96332402888493 -96.6488651638268,106.13319700997233 -95.97899218272921,103.63319700997201 -96.64886516379006,101.13319700996183 -98.47899218270265,99.30306999102235 -100.97899218270298,98.63319700992477 -103.47899218271316,99.30306999098562 -105.30911920165263,101.13319700989821 -105.97899218275022,103.63319700989854 -105.30911920168937,106.13319700990871 -103.47899218277678,107.96332402884819 -100.97899218277645,108.63319700994577" stroke="#ffa500" stroke-linecap="round" stroke-linejoin="round"/><polyline fill="none" points="-235.84978703033647,86.54876506561733 -233.3497870303263,85.87889208455648 -231.5196600113868,84.04876506564389 -230.84978703028924,81.54876506564356 -231.51966001135008,79.04876506563339 -233.3497870302627,77.21863804669391 -235.84978703026303,76.54876506559633 -238.3497870302732,77.21863804665718 -240.1799140492127,79.04876506556977 -240.84978703031027,81.5487650655701 -240.17991404924942,84.04876506558027 -238.34978703033684,85.87889208451975 -235.8497870303365,86.54876506561733" stroke="#ffa500" stroke-linecap="round" stroke-linejoin="round"/><polyline fill="none" points="-120.02427685220121,-9.506603115309458 -117.52427685219104,-10.176476096370303 -115.69414983325156,-12.006603115282894 -115.02427685215397,-14.506603115283223 -115.69414983321482,-17.006603115293395 -117.52427685212741,-18.83673013423288 -120.02427685212774,-19.506603115330464 -122.52427685213792,-18.83673013426962 -124.35440387107741,-17.006603115357027 -125.02427685217499,-14.506603115356697 -124.35440387111414,-12.006603115346522 -122.52427685220155,-10.176476096407036 -120.02427685220123,-9.506603115309451" stroke="#008000" stroke-linecap="round" stroke-linejoin="round"/><polyline fill="none" points="-206.63867219818454,-61.1574850470638 -204.13867219817436,-61.82735802812464 -202.30854517923487,-63.657485047037234 -201.63867219813727,-66.15748504703757 -202.30854517919812,-68.65748504704774 -204.1386721981107,-70.48761206598724 -206.63867219811104,-71.15748504708482 -209.1386721981212,-70.48761206602397 -210.9687992170607,-68.65748504711138 -211.6386721981583,-66.15748504711105 -210.96879921709746,-63.65748504710088 -209.13867219818488,-61.82735802816139 -206.63867219818454,-61.1574850470638" stroke="#ffa500" stroke-linecap="round" stroke-linejoin="round"/><polyline fill="none" points="-122.9612493469372,-29.235023784906588 -120.46124934692702,-29.90489676596743 -118.63112232798753,-31.735023784880017 -117.96124934688994,-34.23502378488035 -118.63112232795078,-36.73502378489052 -120.46124934686337,-38.56515080383001 -122.9612493468637,-39.2350237849276 -125.46124934687387,-38.56515080386676 -127.29137636581336,-36.73502378495417 -127.96124934691095,-34.235023784953846 -127.29137636585011,-31.73502378494367 -125.46124934693752,-29.904896766004182 -122.9612493469372,-29.23502378490659" stroke="#00f" stroke-linecap="round" stroke-linejoin="round"/><polyline fill="none" points="83.81384930214386,-112.91825398757413 86.31384930215404,-113.58812696863497 88.14397632109353,-115.41825398754756 88.81384930219113,-117.91825398754789 88.1439763211303,-120.41825398755806 86.3138493022177,-122.24838100649755 83.81384930221738,-122.91825398759515 81.3138493022072,-122.24838100653432 79.48372228326771,-120.41825398762172 78.81384930217011,-117.9182539876214 79.48372228323095,-115.41825398761122 81.31384930214354,-113.58812696867173 83.81384930214386,-112.91825398757413" stroke="#00f" stroke-linecap="round" stroke-linejoin="round"/><polyline fill="none" points="-195.65379735313357,-10.914812391087722 -193.1537973531234,-11.584685372148558 -191.3236703341839,-13.414812391061144 -190.6537973530863,-15.914812391061474 -191.32367033414715,-18.414812391071653 -193.15379735305973,-20.244939410011145 -195.65379735306007,-20.91481239110874 -198.15379735307025,-20.244939410047905 -199.98392437200974,-18.41481239113532 -200.65379735310734,-15.91481239113499 -199.9839243720465,-13.41481239112481 -198.1537973531339,-11.584685372185314 -195.65379735313357,-10.914812391087718" stroke="#00f" stroke-linecap="round" stroke-linejoin="round"/><polyline fill="none" points="43.12712802899968,84.39013311392975 45.62712802900986,83.72026013286892 47.45725504794936,81.89013311395634 48.12712802904696,79.39013311395601 47.45725504798612,76.89013311394584 45.62712802907354,75.06000609500634 43.12712802907321,74.39013311390875 40.62712802906303,75.06000609496958 38.79700101012353,76.89013311388216 38.12712802902593,79.39013311388248 38.79700101008677,81.89013311389266 40.62712802899935,83.72026013283215 43.12712802899968,84.39013311392975" stroke="#ffa500" stroke-linecap="round" stroke-linejoin="round"/><polyline fill="none" points="-128.41685313891497,61.88743614656427 -125.9168531389048,61.217563165503435 -124.0867261199653,59.38743614659085 -123.41685313886771,56.887436146590524 -124.08672611992854,54.38743614658034 -125.91685313884112,52.55730912764084 -128.41685313884145,51.887436146543244 -130.91685313885162,52.55730912760407 -132.7469801577911,54.387436146516656 -133.4168531388887,56.88743614651698 -132.7469801578279,59.387436146527165 -130.91685313891531,61.217563165466665 -128.41685313891497,61.88743614656426" stroke="#008000" stroke-linecap="round" stroke-linejoin="round"/><polyline fill="none" points="88.39856188513134,58.076749016469904 90.89856188514153,57.40687603540908 92.72868890408104,55.57674901649649 93.39856188517864,53.076749016496166 92.7286889041178,50.576749016485984 90.89856188520523,48.746621997546484 88.3985618852049,48.07674901644888 85.89856188519471,48.746621997509706 84.0684348662552,50.57674901642228 83.3985618851576,53.07674901642261 84.06843486621844,55.57674901643279 85.89856188513102,57.40687603537229 88.39856188513134,58.0767490164699" stroke="#ffa500" stroke-linecap="round" stroke-linejoin="round"/><polyline fill="none" points="24.40729712451785,-157.8450334279039 26.907297124528036,-158.51490640896472 28.73742414346754,-160.3450334278773 29.407297124565144,-162.84503342787764 28.737424143504317,-165.3450334278878 26.907297124591736,-167.1751604468273 24.407297124591405,-167.8450334279249 21.90729712458122,-167.17516044686408 20.077170105641716,-165.3450334279515 19.40729712454411,-162.84503342795117 20.077170105604935,-160.345033427941 21.907297124517513,-158.5149064090015 24.407297124517843,-157.8450334279039" stroke="#ffa500" stroke-linecap="round" stroke-linejoin="round"/><polyline fill="none" points="-18.608520970810584,162.72071348314105 -16.1085209708004,162.05084050208023 -14.278393951860894,160.22071348316766 -13.608520970763287,157.72071348316732 -14.27839395182411,155.22071348315714 -16.108520970736688,153.39058646421765 -18.60852097073702,152.72071348312005 -21.108520970747204,153.39058646418087 -22.93864798968671,155.22071348309345 -23.60852097078432,157.7207134830938 -22.938647989723496,160.22071348310396 -21.10852097081092,162.05084050204349 -18.608520970810588,162.72071348314108" stroke="#ffa500" stroke-linecap="round" stroke-linejoin="round"/><polyline fill="none" points="129.72026491525568,-123.03079844781215 132.22026491526586,-123.70067142887297 134.05039193420538,-125.53079844778554 134.72026491530298,-128.03079844778588 134.05039193424216,-130.53079844779606 132.22026491532958,-132.36092546673558 129.72026491532924,-133.03079844783318 127.22026491531905,-132.36092546677236 125.39013789637954,-130.53079844785978 124.72026491528193,-128.03079844785944 125.39013789634275,-125.53079844784925 127.22026491525533,-123.70067142890974 129.72026491525565,-123.03079844781213" stroke="#ffa500" stroke-linecap="round" stroke-linejoin="round"/><polyline fill="none" points="22.45759906766378,-110.20364220667264 24.957599067673968,-110.87351518773346 26.78772608661348,-112.70364220664604 27.45759906771109,-115.20364220664636 26.78772608665027,-117.70364220665655 24.957599067737693,-119.53376922559606 22.457599067737362,-120.20364220669367 19.957599067727173,-119.53376922563285 18.127472048787663,-117.70364220672027 17.457599067690047,-115.20364220671995 18.127472048750867,-112.70364220670976 19.95759906766344,-110.87351518777025 22.45759906766377,-110.20364220667264" stroke="#ffa500" stroke-linecap="round" stroke-linejoin="round"/><polyline fill="none" points="79.3124593297288,-55.53557164947123 81.81245932973899,-56.20544463053205 83.64258634867849,-58.03557164944463 84.3124593297761,-60.535571649444954 83.64258634871528,-63.03557164945514 81.8124593298027,-64.86569866839466 79.31245932980238,-65.53557164949227 76.81245932979219,-64.86569866843145 74.98233231085268,-63.03557164951887 74.31245932975507,-60.535571649518545 74.98233231081589,-58.035571649508356 76.81245932972847,-56.20544463056884 79.3124593297288,-55.53557164947122" stroke="#00f" stroke-linecap="round" stroke-linejoin="round"/><polyline fill="none" points="154.79254175567962,-89.41653414294007 157.29254175568983,-90.08640712400089 159.12266877462935,-91.91653414291346 159.79254175572697,-94.41653414291379 159.12266877466615,-96.91653414292398 157.29254175575358,-98.7466611618635 154.79254175575323,-99.41653414296113 152.29254175574303,-98.7466611619003 150.4624147368035,-96.91653414298773 149.79254175570588,-94.4165341429874 150.4624147367667,-91.91653414297721 152.29254175567928,-90.08640712403769 154.79254175567962,-89.41653414294007" stroke="#00f" stroke-linecap="round" stroke-linejoin="round"/><polyline fill="none" points="-214.33182667422267,-42.23552496529637 -211.83182667421246,-42.90539794635718 -210.00169965527294,-44.735524965269754 -209.33182667417532,-47.23552496527008 -210.00169965523614,-49.73552496528028 -211.83182667414872,-51.5656519842198 -214.33182667414906,-52.23552496531742 -216.83182667415926,-51.565651984256604 -218.66195369309878,-49.735524965344034 -219.3318266741964,-47.23552496534371 -218.6619536931356,-44.73552496533351 -216.831826674223,-42.90539794639399 -214.33182667422267,-42.235524965296364" stroke="#00f" stroke-linecap="round" stroke-linejoin="round"/><polyline fill="none" points="128.52561995960681,-72.50764998003581 131.02561995961702,-73.17752296109661 132.85574697855654,-75.00764998000919 133.52561995965416,-77.50764998000952 132.85574697859334,-80.0076499800197 131.02561995968077,-81.83777699895923 128.52561995968043,-82.50764998005685 126.02561995967024,-81.83777699899605 124.19549294073072,-80.00764998008349 123.52561995963309,-77.50764998008316 124.1954929406939,-75.00764998007297 126.02561995960646,-73.17752296113345 128.5256199596068,-72.50764998003582" stroke="#00f" stroke-linecap="round" stroke-linejoin="round"/><polyline fill="none" points="-126.27336700340946,-83.7071775871623 -123.77336700339927,-84.37705056822311 -121.94323998445975,-86.20717758713567 -121.27336700336213,-88.707177587136 -121.94323998442293,-91.20717758714619 -123.7733670033355,-93.03730460608571 -126.27336700333582,-93.70717758718334 -128.773367003346,-93.03730460612253 -130.60349402228553,-91.20717758720997 -131.27336700338316,-88.70717758720964 -130.60349402232234,-86.20717758719945 -128.77336700340976,-84.37705056825993 -126.27336700340943,-83.7071775871623" stroke="#ffa500" stroke-linecap="round" stroke-linejoin="round"/><polyline fill="none" points="-217.29034061851561,77.28330265855638 -214.7903406185054,76.61342967749557 -212.9602135995659,74.78330265858301 -212.29034061846826,72.28330265858268 -212.96021359952906,69.78330265857248 -214.79034061844163,67.95317563963296 -217.29034061844197,67.28330265853533 -219.79034061845218,67.95317563959614 -221.6204676373917,69.7833026585087 -222.29034061848932,72.28330265850903 -221.62046763742853,74.78330265851923 -219.79034061851596,76.61342967745875 -217.29034061851561,77.28330265855638" stroke="#ffa500" stroke-linecap="round" stroke-linejoin="round"/><polyline fill="none" points="-94.16857693588601,62.15975275487393 -91.6685769358758,61.48987977381312 -89.83844991693628,59.65975275490055 -89.16857693583866,57.159752754900225 -89.83844991689946,54.65975275489003 -91.66857693581203,52.8296257359505 -94.16857693581235,52.15975275485287 -96.66857693582256,52.82962573591367 -98.49870395476209,54.659752754826236 -99.16857693585973,57.15975275482657 -98.49870395479893,59.65975275483677 -96.66857693588636,61.489879773776295 -94.16857693588604,62.15975275487393" stroke="#00f" stroke-linecap="round" stroke-linejoin="round"/><polyline fill="none" points="-166.51415486566128,40.588707202316215 -164.01415486565108,39.918834221255416 -162.18402784671156,38.08870720234285 -161.51415486561393,35.58870720234252 -162.18402784667472,33.088707202332316 -164.0141548655873,31.258580183392784 -166.51415486558764,30.588707202295147 -169.01415486559785,31.258580183355946 -170.84428188453737,33.08870720226851 -171.514154865635,35.588707202268836 -170.8442818845742,38.08870720227904 -169.01415486566162,39.91883422121857 -166.51415486566128,40.5887072023162" stroke="#008000" stroke-linecap="round" stroke-linejoin="round"/><polyline fill="none" points="85.22719682668898,-7.4795848469169925 87.72719682669918,-8.149457827977791 89.55732384563872,-9.979584846890356 90.22719682673636,-12.479584846890686 89.55732384567557,-14.979584846900888 87.727196826763,-16.80971186584042 85.22719682676268,-17.47958484693806 82.72719682675248,-16.80971186587726 80.89706980781294,-14.979584846964698 80.2271968267153,-12.479584846964368 80.89706980777609,-9.979584846954165 82.72719682668865,-8.149457828014631 85.22719682668898,-7.479584846916992" stroke="#ffa500" stroke-linecap="round" stroke-linejoin="round"/><polyline fill="none" points="57.006582781878826,-128.35551216470245 59.50658278188903,-129.02538514576324 61.336709800828565,-130.85551216467582 62.006582781926205,-133.35551216467616 61.33670980086541,-135.85551216468636 59.506582781952844,-137.6856391836259 57.00658278195251,-138.35551216472356 54.506582781942306,-137.68563918366277 52.67645576300277,-135.85551216475022 52.00658278190513,-133.35551216474988 52.67645576296592,-130.85551216473968 54.506582781878485,-129.02538514580013 57.00658278187882,-128.35551216470247" stroke="#ffa500" stroke-linecap="round" stroke-linejoin="round"/><polyline fill="none" points="-165.11868012266598,-19.743453239564804 -162.61868012265577,-20.4133262206256 -160.78855310371623,-22.243453239538162 -160.11868012261857,-24.743453239538493 -160.78855310367936,-27.2434532395487 -162.6186801225919,-29.07358025848824 -165.11868012259225,-29.743453239585882 -167.61868012260246,-29.07358025852509 -169.448807141542,-27.243453239612528 -170.11868012263966,-24.743453239612194 -169.44880714157887,-22.243453239601987 -167.61868012266632,-20.413326220662448 -165.11868012266598,-19.743453239564804" stroke="#00f" stroke-linecap="round" stroke-linejoin="round"/><polyline fill="none" points="100.13749806348335,-99.94847236024793 102.63749806349355,-100.61834534130872 104.46762508243309,-102.44847236022129 105.13749806353073,-104.94847236022161 104.46762508246994,-107.44847236023182 102.63749806355737,-109.27859937917135 100.13749806355705,-109.948472360269 97.63749806354684,-109.2785993792082 95.80737104460731,-107.44847236029564 95.13749806350965,-104.94847236029531 95.80737104457044,-102.44847236028511 97.63749806348301,-100.61834534134556 100.13749806348333,-99.9484723602479" stroke="#00f" stroke-linecap="round" stroke-linejoin="round"/><polyline fill="none" points="82.72448855082393,-52.677757418728426 85.22448855083414,-53.34763039978922 87.05461556977369,-55.17775741870177 87.72448855087134,-57.67775741870211 87.05461556981055,-60.17775741871232 85.22448855089799,-62.00788443765186 82.72448855089766,-62.67775741874951 80.22448855088746,-62.00788443768872 78.39436153194791,-60.17775741877617 77.72448855085025,-57.67775741877583 78.39436153191104,-55.17775741876562 80.22448855082361,-53.34763039982608 82.72448855082393,-52.677757418728426" stroke="#ffa500" stroke-linecap="round" stroke-linejoin="round"/><polyline fill="none" points="-204.9847139461428,54.53970028132044 -202.4847139461326,53.86982730025966 -200.65458692719304,52.0397002813471 -199.98471394609538,49.53970028134677 -200.65458692715617,47.03970028133656 -202.48471394606872,45.20957326239701 -204.98471394606906,44.53970028129935 -207.48471394607927,45.20957326236014 -209.31484096501882,47.039700281272694 -209.98471394611647,49.53970028127303 -209.31484096505568,52.03970028128324 -207.48471394614313,53.86982730022279 -204.9847139461428,54.53970028132044" stroke="#ffa500" stroke-linecap="round" stroke-linejoin="round"/><polyline fill="none" points="-173.03729823370725,30.12521785014612 -170.53729823369704,29.455344869085337 -168.7071712147575,27.62521785017278 -168.03729823365984,25.125217850172447 -168.70717121472063,22.625217850162237 -170.53729823363318,20.795090831222687 -173.03729823363352,20.125217850125033 -175.53729823364372,20.795090831185817 -177.36742525258327,22.625217850098373 -178.03729823368093,25.125217850098707 -177.36742525262014,27.625217850108918 -175.5372982337076,29.455344869048467 -173.03729823370725,30.125217850146125" stroke="#008000" stroke-linecap="round" stroke-linejoin="round"/><polyline fill="none" points="-78.23602754810035,28.866647679602142 -75.73602754809014,28.19677469854136 -73.90590052915059,26.366647679628805 -73.23602754805293,23.86664767962847 -73.90590052911371,21.366647679618257 -75.73602754802626,19.536520660678704 -78.23602754802658,18.866647679581046 -80.7360275480368,19.536520660641827 -82.56615456697635,21.366647679554383 -83.236027548074,23.866647679554717 -82.56615456701323,26.36664767956493 -80.73602754810068,28.196774698504484 -78.23602754810035,28.866647679602142" stroke="#ffa500" stroke-linecap="round" stroke-linejoin="round"/><polyline fill="none" points="-122.83972419891556,-38.60657042766488 -120.33972419890534,-39.276443408725655 -118.5095971799658,-41.10657042763821 -117.83972419886814,-43.606570427638545 -118.50959717992892,-46.10657042764876 -120.33972419884147,-47.93669744658832 -122.8397241988418,-48.60657042768598 -125.33972419885201,-47.9366974466252 -127.16985121779156,-46.10657042771265 -127.83972419888923,-43.60657042771231 -127.16985121782845,-41.106570427702096 -125.3397241989159,-39.27644340876254 -122.83972419891558,-38.60657042766488" stroke="#ffa500" stroke-linecap="round" stroke-linejoin="round"/><polyline fill="none" points="-122.7446435530409,-15.001697555327109 -120.24464355303068,-15.671570536387886 -118.41451653409113,-17.50169755530044 -117.74464355299347,-20.001697555300773 -118.41451653405424,-22.50169755531099 -120.24464355296679,-24.331824574250547 -122.74464355296712,-25.001697555348212 -125.24464355297734,-24.331824574287435 -127.0747705719169,-22.501697555374882 -127.74464355301457,-20.001697555374548 -127.07477057195379,-17.50169755536433 -125.24464355304124,-15.671570536424774 -122.74464355304092,-15.001697555327109" stroke="#00f" stroke-linecap="round" stroke-linejoin="round"/><polyline fill="none" points="-7.680488352312951,123.59699041155645 -5.180488352302733,122.92711743049567 -3.3503613333631757,121.09699041158312 -2.68048835226551,118.5969904115828 -3.3503613333262847,116.09699041157258 -5.180488352238837,114.26686339263301 -7.68048835223917,113.59699041153534 -10.180488352249387,114.26686339259612 -12.010615371188946,116.09699041150867 -12.680488352286613,118.596990411509 -12.010615371225839,121.09699041151922 -10.180488352313288,122.92711743045878 -7.680488352312955,123.59699041155645" stroke="#ffa500" stroke-linecap="round" stroke-linejoin="round"/><polyline fill="none" points="-139.26804199025216,47.09716306986051 -136.76804199024193,46.42729008879974 -134.93791497130238,44.59716306988719 -134.26804199020472,42.097163069886854 -134.93791497126549,39.597163069876636 -136.76804199017803,37.76703605093707 -139.26804199017838,37.097163069839404 -141.7680419901886,37.767036050900174 -143.59816900912816,39.59716306981272 -144.26804199022584,42.09716306981306 -143.59816900916508,44.597163069823274 -141.76804199025253,46.42729008876284 -139.2680419902522,47.09716306986051" stroke="#ffa500" stroke-linecap="round" stroke-linejoin="round"/></svg>