<?xml version="1.0" ?><!DOCTYPE svg  PUBLIC '-//W3C//DTD SVG 1.1//EN'  'http://www.w3.org/Graphics/SVG/1.1/DTD/svg11.dtd'><svg height="256.000" viewBox="-197.000 -138.000 441.000 256.000" width="441.000" xmlns="http://www.w3.org/2000/svg"><line fill="none" stroke="none" stroke-linecap="round" stroke-width="2.0" x1="0.0" x2="0.0" y1="0.0" y2="0.0"/><polygon fill="none" fill-rule="evenodd" points="0.0,0.0 0.0,0.0 0.0,0.0" stroke-linejoin="round"/><polyline fill="none" points="-126.65910445054621,-34.66973452867153 -124.15910445053582,-35.33960750973205 -122.32897743159599,-37.169734528644454 -121.659104450498,-39.669734528644796 -122.32897743155851,-42.16973452865518 -124.15910445047092,-43.99986154759501 -126.65910445047126,-44.669734528692985 -129.15910445048164,-43.99986154763248 -130.98923146942147,-42.16973452872007 -131.65910445051944,-39.66973452871973 -130.98923146945893,-37.16973452870935 -129.15910445054652,-35.339607509769515 -126.65910445054618,-34.66973452867153" stroke="#00f" stroke-linecap="round" stroke-linejoin="round"/><polyline fill="none" points="-132.393776699523,-62.96411355039254 -129.8937766995126,-63.63398653145305 -128.06364968057278,-65.46411355036545 -127.3937766994748,-67.9641135503658 -128.06364968053532,-70.46411355037618 -129.89377669944773,-72.29424056931602 -132.39377669944807,-72.964113550414 -134.89377669945844,-72.29424056935349 -136.72390371839828,-70.46411355044108 -137.39377669949624,-67.96411355044074 -136.72390371843574,-65.46411355043035 -134.89377669952333,-63.63398653149052 -132.393776699523,-62.96411355039254" stroke="#008000" stroke-linecap="round" stroke-linejoin="round"/><polyline fill="none" points="-98.76377430015297,-80.64015989247095 -96.26377430014259,-81.31003287353145 -94.43364728120275,-83.14015989244386 -93.76377430010477,-85.6401598924442 -94.43364728116528,-88.14015989245459 -96.26377430007769,-89.97028691139442 -98.76377430007803,-90.6401598924924 -101.26377430008841,-89.9702869114319 -103.09390131902825,-88.14015989251949 -103.76377430012623,-85.64015989251915 -103.09390131906572,-83.14015989250876 -101.26377430015332,-81.31003287356893 -98.76377430015297,-80.64015989247095" stroke="#ffa500" stroke-linecap="round" stroke-linejoin="round"/><polyline fill="none" points="-114.87933089647304,-60.82276039301654 -112.37933089646265,-61.492633374077045 -110.54920387752281,-63.322760392989444 -109.87933089642483,-65.82276039298979 -110.54920387748534,-68.32276039300018 -112.37933089639775,-70.15288741194001 -114.87933089639809,-70.822760393038 -117.37933089640848,-70.15288741197749 -119.20945791534832,-68.32276039306508 -119.8793308964463,-65.82276039306474 -119.2094579153858,-63.32276039305435 -117.37933089647339,-61.49263337411451 -114.87933089647305,-60.82276039301652" stroke="#008000" stroke-linecap="round" stroke-linejoin="round"/><polyline fill="none" points="-140.81151806696764,-26.69901602421152 -138.31151806695723,-27.368889005272024 -136.4813910480174,-29.199016024184424 -135.8115180669194,-31.69901602418477 -136.4813910479799,-34.19901602419516 -138.31151806689232,-36.029143043135 -140.81151806689266,-36.69901602423299 -143.31151806690306,-36.02914304317249 -145.1416450858429,-34.19901602426009 -145.8115180669409,-31.699016024259745 -145.14164508588038,-29.199016024249353 -143.31151806696798,-27.36888900530951 -140.81151806696764,-26.69901602421152" stroke="#00f" stroke-linecap="round" stroke-linejoin="round"/><polyline fill="none" points="-130.78088094826603,-84.24234994149448 -128.28088094825563,-84.91222292255499 -126.45075392931578,-86.7423499414674 -125.78088094821778,-89.24234994146774 -126.45075392927828,-91.74234994147812 -128.28088094819068,-93.57247696041797 -130.78088094819103,-94.24234994151597 -133.28088094820143,-93.57247696045548 -135.11100796714126,-91.74234994154307 -135.78088094823926,-89.24234994154273 -135.11100796717875,-86.74234994153234 -133.28088094826634,-84.91222292259249 -130.780880948266,-84.2423499414945" stroke="#00f" stroke-linecap="round" stroke-linejoin="round"/><polyline fill="none" points="208.17923507038142,-116.7668581667908 210.67923507039183,-117.43673114785129 212.50936208933166,-119.26685816676368 213.17923507042966,-121.76685816676402 212.50936208936915,-124.26685816677441 210.67923507045674,-126.09698518571426 208.1792350704564,-126.76685816681226 205.679235070446,-126.09698518575176 203.84910805150616,-124.26685816683937 203.17923507040817,-121.76685816683903 203.84910805146868,-119.26685816682864 205.67923507038108,-117.43673114788879 208.17923507038142,-116.7668581667908" stroke="#ffa500" stroke-linecap="round" stroke-linejoin="round"/><polyline fill="none" points="-179.991331707317,-80.65577613811176 -177.49133170730659,-81.32564911917225 -175.66120468836672,-83.15577613808465 -174.99133170726873,-85.65577613808499 -175.66120468832924,-88.15577613809538 -177.49133170724164,-89.98590315703522 -179.99133170724198,-90.65577613813322 -182.49133170725239,-89.98590315707273 -184.32145872619225,-88.15577613816033 -184.99133170729024,-85.65577613816 -184.32145872622974,-83.1557761381496 -182.49133170731733,-81.32564911920976 -179.991331707317,-80.65577613811176" stroke="#00f" stroke-linecap="round" stroke-linejoin="round"/><polyline fill="none" points="62.92122948130518,-5.587632999266873 65.42122948131558,-6.257505980327366 67.25135650025543,-8.087632999239762 67.92122948135342,-10.587632999240107 67.25135650029293,-13.087632999250502 65.42122948138054,-14.917760018190355 62.921229481380195,-15.587632999288354 60.4212294813698,-14.917760018227863 58.591102462429944,-13.087632999315469 57.92122948133194,-10.587632999315124 58.591102462392435,-8.087632999304729 60.42122948130483,-6.257505980364875 62.921229481305176,-5.587632999266874" stroke="#ffa500" stroke-linecap="round" stroke-linejoin="round"/><polyline fill="none" points="226.93686389111411,-110.8463601223349 229.43686389112452,-111.5162331033954 231.26699091006438,-113.34636012230779 231.93686389116237,-115.84636012230813 231.2669909101019,-118.34636012231853 229.4368638911895,-120.17648714125839 226.93686389118915,-120.84636012235639 224.43686389117875,-120.1764871412959 222.60673687223888,-118.3463601223835 221.9368638911409,-115.84636012238316 222.60673687220137,-113.34636012237276 224.43686389111377,-111.5162331034329 226.93686389111411,-110.84636012233489" stroke="#00f" stroke-linecap="round" stroke-linejoin="round"/><polyline fill="none" points="-102.62119013305826,-67.7656970224742 -100.12119013304786,-68.43557000353469 -98.291063114108,-70.26569702244709 -97.62119013300999,-72.76569702244743 -98.29106311407048,-75.26569702245783 -100.12119013298287,-77.09582404139769 -102.62119013298322,-77.7656970224957 -105.12119013299362,-77.09582404143521 -106.95131715193348,-75.26569702252282 -107.62119013303149,-72.76569702252247 -106.951317151971,-70.26569702251207 -105.1211901330586,-68.43557000357221 -102.62119013305826,-67.7656970224742" stroke="#00f" stroke-linecap="round" stroke-linejoin="round"/><polyline fill="none" points="14.757869403062589,12.8342991155796 17.257869403072988,12.164426134519115 19.087996422012846,10.334299115606722 19.757869403110853,7.8342991156063775 19.087996422050367,5.334299115595979 17.257869403137974,3.5041720966561183 14.75786940313763,2.8342991155581103 12.25786940312723,3.504172096618595 10.42774238418737,5.334299115530986 9.757869403089362,7.834299115531332 10.427742384149846,10.334299115541732 12.257869403062237,12.164426134481594 14.757869403062582,12.834299115579604" stroke="#00f" stroke-linecap="round" stroke-linejoin="round"/><polyline fill="none" points="-79.32799689143724,-63.12736465336326 -76.82799689142684,-63.797237634423745 -74.99786987248697,-65.62736465333613 -74.32799689138896,-68.12736465333647 -74.99786987244944,-70.62736465334687 -76.82799689136183,-72.45749167228674 -79.32799689136218,-73.12736465338475 -81.82799689137258,-72.45749167232427 -83.65812391031244,-70.62736465341187 -84.32799689141045,-68.12736465341153 -83.65812391034997,-65.62736465340113 -81.82799689143758,-63.79723763446127 -79.32799689143724,-63.12736465336326" stroke="#ffa500" stroke-linecap="round" stroke-linejoin="round"/><polyline fill="none" points="-35.93427006531902,16.04889329431981 -33.43427006530862,15.37902031325933 -31.60414304636875,13.548893294346941 -30.934270065270738,11.048893294346597 -31.604143046331217,8.548893294336196 -33.4342700652436,6.718766275396331 -35.93427006524395,6.048893294298317 -38.43427006525435,6.718766275358796 -40.264397084194215,8.548893294271185 -40.93427006529223,11.04889329427153 -40.26439708423175,13.548893294281932 -38.43427006531937,15.379020313221798 -35.93427006531902,16.048893294319814" stroke="#ffa500" stroke-linecap="round" stroke-linejoin="round"/><polyline fill="none" points="-77.92005846899387,-46.02518972048269 -75.42005846898347,-46.69506270154317 -73.58993145004361,-48.52518972045556 -72.9200584689456,-51.025189720455906 -73.58993145000608,-53.52518972046631 -75.42005846891847,-55.35531673940618 -77.92005846891881,-56.025189720504194 -80.42005846892921,-55.355316739443715 -82.25018548786908,-53.52518972053133 -82.9200584689671,-51.02518972053099 -82.25018548790662,-48.525189720520586 -80.42005846899423,-46.69506270158072 -77.92005846899389,-46.0251897204827" stroke="#ffa500" stroke-linecap="round" stroke-linejoin="round"/><polyline fill="none" points="-116.30163715892472,-80.74648575048249 -113.80163715891432,-81.41635873154297 -111.97151013997444,-83.24648575045536 -111.30163715887642,-85.7464857504557 -111.9715101399369,-88.2464857504661 -113.80163715884927,-90.07661276940598 -116.30163715884962,-90.74648575050401 -118.80163715886002,-90.07661276944353 -120.6317641777999,-88.24648575053115 -121.30163715889792,-85.74648575053081 -120.63176417783744,-83.2464857505204 -118.80163715892506,-81.41635873158053 -116.30163715892472,-80.7464857504825" stroke="#00f" stroke-linecap="round" stroke-linejoin="round"/><polyline fill="none" points="-117.82292673461498,-42.35143906036599 -115.32292673460458,-43.02131204142646 -113.4927997156647,-44.85143906033885 -112.82292673456668,-47.35143906033919 -113.49279971562716,-49.85143906034959 -115.32292673453954,-51.68156607928947 -117.82292673453988,-52.35143906038749 -120.32292673455028,-51.68156607932702 -122.15305375349016,-49.851439060414634 -122.82292673458818,-47.35143906041429 -122.15305375352771,-44.851439060403884 -120.32292673461534,-43.02131204146401 -117.822926734615,-42.35143906036598" stroke="#00f" stroke-linecap="round" stroke-linejoin="round"/><polyline fill="none" points="-81.55992506794874,31.86475504759449 -79.05992506793834,31.194882066534017 -77.22979804899846,29.364755047621635 -76.55992506790044,26.86475504762129 -77.2297980489609,24.36475504761088 -79.05992506787328,22.534628028671005 -81.55992506787362,21.864755047572977 -84.05992506788402,22.534628028633445 -85.8900520868239,24.364755047545827 -86.55992506792192,26.864755047546172 -85.89005208686146,29.36475504755658 -84.05992506794908,31.194882066496458 -81.55992506794874,31.864755047594485" stroke="#ffa500" stroke-linecap="round" stroke-linejoin="round"/><polyline fill="none" points="-128.52021183290722,-85.30659100643973 -126.02021183289682,-85.9764639875002 -124.19008481395694,-87.80659100641257 -123.52021183285892,-90.30659100641292 -124.19008481391938,-92.80659100642332 -126.02021183283176,-94.6367180253632 -128.5202118328321,-95.30659100646122 -131.0202118328425,-94.63671802540075 -132.8503388517824,-92.80659100648838 -133.52021183288042,-90.30659100648803 -132.85033885181994,-87.80659100647762 -131.02021183290756,-85.97646398753774 -128.52021183290722,-85.30659100643972" stroke="#00f" stroke-linecap="round" stroke-linejoin="round"/><polyline fill="none" points="49.5975654875076,12.740810100254308 52.09756548751801,12.070937119193843 53.92769250645789,10.240810100281463 54.59756548755592,7.740810100281118 53.927692506495454,5.240810100270707 52.097565487583076,3.410683081330826 49.59756548758273,2.7408101002327943 47.09756548757232,3.410683081293258 45.267438468632434,5.240810100205637 44.5975654875344,7.740810100205982 45.26743846859487,10.240810100216393 47.09756548750725,12.070937119156275 49.597565487507595,12.740810100254308" stroke="#00f" stroke-linecap="round" stroke-linejoin="round"/><polyline fill="none" points="19.748413376290905,-15.687816545131383 22.24841337630132,-16.357689526191844 24.078540395241202,-18.187816545104223 24.748413376339236,-20.687816545104567 24.078540395278775,-23.18781654511498 22.248413376366397,-25.017943564054864 19.748413376366052,-25.6878165451529 17.24841337635564,-25.017943564092437 15.418286357415756,-23.18781654518006 14.748413376317721,-20.687816545179714 15.418286357378182,-18.1878165451693 17.24841337629056,-16.357689526229418 19.748413376290905,-15.687816545131382" stroke="#ffa500" stroke-linecap="round" stroke-linejoin="round"/><polyline fill="none" points="-167.7461222131741,-88.8501740373789 -165.2461222131637,-89.52004701843937 -163.4159951942238,-91.35017403735175 -162.74612221312577,-93.85017403735209 -163.41599519418622,-96.3501740373625 -165.2461222130986,-98.1803010563024 -167.74612221309894,-98.85017403740044 -170.24612221310935,-98.18030105633997 -172.07624923204924,-96.35017403742759 -172.74612221314726,-93.85017403742725 -172.0762492320868,-91.35017403741683 -170.24612221317443,-89.52004701847694 -167.7461222131741,-88.8501740373789" stroke="#ffa500" stroke-linecap="round" stroke-linejoin="round"/><polyline fill="none" points="63.22386298587708,-2.293232522137151 65.7238629858875,-2.963105503197609 67.55399000482738,-4.793232522109985 68.22386298592542,-7.29323252211033 67.55399000486497,-9.793232522120745 65.7238629859526,-11.623359541060632 63.22386298595225,-12.293232522158672 60.723862985941835,-11.623359541098214 58.893735967001945,-9.79323252218584 58.22386298590391,-7.293232522185495 58.893735966964364,-4.79323252217508 60.723862985876735,-2.9631055032351914 63.223862985877076,-2.293232522137151" stroke="#ffa500" stroke-linecap="round" stroke-linejoin="round"/><polyline fill="none" points="-117.30786579017949,-36.57968426640213 -114.80786579016907,-37.24955724746259 -112.97773877122918,-39.07968426637496 -112.30786579013115,-41.57968426637531 -112.9777387711916,-44.079684266385726 -114.80786579010397,-45.90981128532562 -117.30786579010432,-46.57968426642366 -119.80786579011473,-45.909811285363205 -121.63799280905462,-44.07968426645083 -122.30786579015266,-41.57968426645049 -121.63799280909221,-39.079684266440076 -119.80786579017983,-37.249557247500185 -117.30786579017949,-36.57968426640214" stroke="#00f" stroke-linecap="round" stroke-linejoin="round"/><polyline fill="none" points="-72.16073337614075,89.19386690935244 -69.66073337613034,88.52399392829199 -67.83060635719045,86.69386690937961 -67.16073337609241,84.19386690937927 -67.83060635715286,81.69386690936885 -69.66073337606524,79.86373989042896 -72.16073337606558,79.19386690933091 -74.660733376076,79.86373989039136 -76.49086039501589,81.69386690930374 -77.16073337611394,84.19386690930408 -76.49086039505349,86.6938669093145 -74.66073337614111,88.52399392825438 -72.16073337614077,89.19386690935244" stroke="#ffa500" stroke-linecap="round" stroke-linejoin="round"/><polyline fill="none" points="11.510007036122762,12.365634235131228 14.01000703613318,11.695761254070778 15.840134055073074,9.865634235158407 16.51000703617112,7.365634235158062 15.84013405511067,4.865634235147643 14.0100070361983,3.0355072162077477 11.510007036197955,2.3656342351096993 9.010007036187535,3.0355072161701484 7.179880017247639,4.865634235082519 6.51000703614959,7.365634235082863 7.1798800172100385,9.865634235093284 9.01000703612241,11.69576125403318 11.510007036122754,12.365634235131228" stroke="#ffa500" stroke-linecap="round" stroke-linejoin="round"/><polyline fill="none" points="218.39547086622025,-110.25733944959728 220.89547086623068,-110.92721243065773 222.72559788517057,-112.7573394495701 223.39547086626862,-115.25733944957044 222.72559788520817,-117.75733944958085 220.8954708662958,-119.58746646852074 218.39547086629545,-120.2573394496188 215.89547086628502,-119.58746646855835 214.06534384734513,-117.75733944964598 213.39547086624708,-115.25733944964564 214.06534384730753,-112.75733944963523 215.8954708662199,-110.92721243069532 218.39547086622025,-110.25733944959727" stroke="#ffa500" stroke-linecap="round" stroke-linejoin="round"/><polyline fill="none" points="-94.14665095173505,-53.582501571417076 -91.64665095172464,-54.25237455247752 -89.81652393278473,-56.08250157138989 -89.14665095168668,-58.58250157139024 -89.81652393274713,-61.08250157140066 -91.6466509516595,-62.91262859034056 -94.14665095165984,-63.58250157143861 -96.64665095167025,-62.91262859037817 -98.47677797061016,-61.0825015714658 -99.14665095170821,-58.58250157146545 -98.47677797064776,-56.082501571455026 -96.6466509517354,-54.25237455251513 -94.14665095173505,-53.582501571417076" stroke="#ffa500" stroke-linecap="round" stroke-linejoin="round"/><polyline fill="none" points="-40.67159368664977,39.732557231020714 -38.17159368663935,39.06268424996027 -36.34146666769944,37.232557231047906 -35.67159368660139,34.73255723104756 -36.341466667661834,32.232557231037134 -38.1715936865742,30.402430212097233 -40.671593686574546,29.732557230999177 -43.17159368658497,30.40243021205962 -45.001720705524875,32.232557230971985 -45.671593686622934,34.73255723097233 -45.00172070556249,37.232557230982756 -43.17159368665013,39.06268424992266 -40.671593686649786,39.73255723102072" stroke="#ffa500" stroke-linecap="round" stroke-linejoin="round"/><polyline fill="none" points="-82.41348151034344,-15.217185028171066 -79.91348151033301,-15.887058009231508 -78.08335449139311,-17.717185028143874 -77.41348151029506,-20.21718502814422 -78.0833544913555,-22.717185028154642 -79.91348151026786,-24.547312047094547 -82.4134815102682,-25.217185028192606 -84.91348151027863,-24.547312047132166 -86.74360852921853,-22.717185028219802 -87.4134815103166,-20.217185028219458 -86.74360852925616,-17.717185028209034 -84.9134815103438,-15.88705800926913 -82.41348151034346,-15.21718502817107" stroke="#ffa500" stroke-linecap="round" stroke-linejoin="round"/><polyline fill="none" points="67.73406082040778,12.82184181768893 70.23406082041821,12.151968836628493 72.06418783935811,10.321841817716129 72.73406082045618,7.821841817715784 72.06418783939574,5.321841817705359 70.23406082048338,3.491714798765452 67.73406082048304,2.8218418176673903 65.2340608204726,3.4917147987278283 63.4039338015327,5.321841817640193 62.73406082043464,7.8218418176405375 63.40393380149508,10.321841817650963 65.23406082040744,12.151968836590871 67.73406082040778,12.821841817688934" stroke="#ffa500" stroke-linecap="round" stroke-linejoin="round"/><polyline fill="none" points="39.72079470213435,-13.045482605047972 42.22079470214477,-13.715355586108409 44.050921721084684,-15.545482605020773 44.72079470218275,-18.045482605021117 44.050921721122315,-20.545482605031545 42.22079470220995,-22.375609623971453 39.7207947022096,-23.045482605069516 37.22079470219917,-22.37560962400908 35.39066768325926,-20.545482605096716 34.72079470216119,-18.04548260509637 35.39066768322163,-15.545482605085944 37.22079470213399,-13.715355586146034 39.72079470213434,-13.045482605047969" stroke="#00f" stroke-linecap="round" stroke-linejoin="round"/><polyline fill="none" points="-103.76719523176128,30.41608856449488 -101.26719523175085,29.74621558343445 -99.43706821281094,27.916088564522088 -98.76719523171288,25.416088564521743 -99.43706821277331,22.916088564511316 -101.26719523168568,21.085961545571404 -103.76719523168602,20.416088564473338 -106.26719523169645,21.08596154553377 -108.09732225063635,22.91608856444613 -108.76719523173442,25.416088564446476 -108.09732225067398,27.916088564456906 -106.26719523176162,29.74621558339682 -103.76719523176128,30.416088564494885" stroke="#00f" stroke-linecap="round" stroke-linejoin="round"/><polyline fill="none" points="5.6119971078760305,48.679195904953495 8.11199710788646,48.009322923893066 9.942124126826373,46.1791959049807 10.611997107924442,43.679195904980354 9.94212412686401,41.17919590496992 8.11199710795165,39.34906888603001 5.611997107951305,38.679195904931944 3.111997107940875,39.349068885992374 1.2818700890009609,41.17919590490473 0.6119971079028906,43.67919590490508 1.2818700889633212,46.17919590491551 3.1119971078756814,48.00932292385542 5.611997107876026,48.679195904953495" stroke="#ffa500" stroke-linecap="round" stroke-linejoin="round"/><polyline fill="none" points="6.127405393445098,57.09755363577706 8.627405393455529,56.42768065471663 10.457532412395445,54.597553635804275 11.127405393493516,52.09755363580393 10.457532412433087,49.5975536357935 8.627405393520728,47.767426616853584 6.127405393520384,47.09755363575551 3.6274053935099526,47.76742661681594 1.7972783745700358,49.597553635728296 1.1274053934719623,52.097553635728644 1.7972783745323897,54.597553635739075 3.627405393444748,56.427680654678994 6.127405393445093,57.09755363577707" stroke="#ffa500" stroke-linecap="round" stroke-linejoin="round"/><polyline fill="none" points="218.72622898405848,-102.84402018437788 221.2262289840689,-103.5138931654383 223.05635600300883,-105.34402018435067 223.7262289841069,-107.84402018435101 223.0563560030465,-110.34402018436144 221.22622898413414,-112.17414720330136 218.7262289841338,-112.84402018439944 216.22622898412337,-112.17414720333902 214.39610196518345,-110.34402018442665 213.72622898408537,-107.84402018442631 214.3961019651458,-105.34402018441588 216.22622898405814,-103.51389316547596 218.72622898405848,-102.84402018437788" stroke="#ffa500" stroke-linecap="round" stroke-linejoin="round"/><polyline fill="none" points="-33.363234602623756,31.455442634451842 -30.86323460261332,30.785569653391416 -29.033107583673402,28.95544263447906 -28.363234602575325,26.455442634478715 -29.03310758363575,23.95544263446828 -30.863234602548108,22.125315615528358 -33.36323460254845,21.45544263443028 -35.86323460255889,22.125315615490702 -37.69336162149881,23.95544263440306 -38.36323460259689,26.455442634403404 -37.69336162153647,28.95544263441384 -35.86323460262411,30.78556965335376 -33.36323460262376,31.455442634451842" stroke="#ffa500" stroke-linecap="round" stroke-linejoin="round"/><polyline fill="none" points="61.846852467933566,13.808612221608197 64.346852467944,13.138739240547775 66.17697948688392,11.30861222163542 66.846852467982,8.808612221635075 66.17697948692158,6.30861222162464 64.34685246800923,4.478485202684716 61.84685246800888,3.8086122215866354 59.346852467998445,4.4784852026470565 57.51672544905852,6.308612221559411 56.84685246796044,8.808612221559756 57.51672544902086,11.308612221570192 59.34685246793322,13.138739240510116 61.846852467933566,13.808612221608199" stroke="#ffa500" stroke-linecap="round" stroke-linejoin="round"/><polyline fill="none" points="213.70255619042166,-92.97406538086896 216.2025561904321,-93.64393836192939 218.032683209372,-95.47406538084174 218.7025561904701,-97.97406538084208 218.03268320940967,-100.47406538085251 216.20255619049732,-102.30419239979243 213.70255619049698,-102.97406538089051 211.20255619048655,-102.30419239983009 209.37242917154663,-100.47406538091774 208.70255619044855,-97.9740653809174 209.37242917150897,-95.47406538090696 211.20255619042132,-93.64393836196703 213.70255619042166,-92.97406538086895" stroke="#ffa500" stroke-linecap="round" stroke-linejoin="round"/><polyline fill="none" points="66.45595941316815,23.65219811084889 68.95595941317859,22.98232512978847 70.78608643211852,21.152198110876117 71.4559594132166,18.652198110875773 70.78608643215618,16.152198110865335 68.95595941324383,14.322071091925407 66.45595941324349,13.652198110827321 63.95595941323305,14.322071091887738 62.12583239429313,16.15219811080009 61.45595941319504,18.652198110800434 62.125832394255454,21.152198110810872 63.955959413167804,22.9823251297508 66.45595941316815,23.65219811084889" stroke="#ffa500" stroke-linecap="round" stroke-linejoin="round"/><polyline fill="none" points="91.82452871481877,13.51509204819429 94.32452871482921,12.845219067133876 96.15465573376915,11.015092048221524 96.82452871486724,8.51509204822118 96.15465573380683,6.0150920482107395 94.32452871489448,4.184965029270809 91.82452871489414,3.51509204817272 89.3245287148837,4.184965029233134 87.49440169594376,6.015092048145485 86.82452871484567,8.51509204814583 87.49440169590608,11.01509204815627 89.32452871481843,12.8452190670962 91.82452871481877,13.51509204819429" stroke="#ffa500" stroke-linecap="round" stroke-linejoin="round"/><polyline fill="none" points="-119.78799789993538,-75.09951266599589 -117.28799789992493,-75.7693856470563 -115.457870880985,-77.59951266596865 -114.7879978998869,-80.09951266596899 -115.45787088094731,-82.59951266597943 -117.28799789985966,-84.42963968491937 -119.78799789986,-85.09951266601746 -122.28799789987045,-84.42963968495705 -124.11812491881038,-82.5995126660447 -124.78799789990848,-80.09951266604436 -124.11812491884807,-77.59951266603392 -122.28799789993572,-75.76938564709398 -119.78799789993538,-75.09951266599589" stroke="#ffa500" stroke-linecap="round" stroke-linejoin="round"/><polyline fill="none" points="83.59812206398422,21.27630643813884 86.09812206399467,20.606433457078428 87.9282490829346,18.776306438166078 88.5981220640327,16.276306438165733 87.92824908297229,13.776306438155292 86.09812206405994,11.946179419215357 83.5981220640596,11.276306438117262 81.09812206404915,11.946179419177671 79.26799504510922,13.77630643809002 78.59812206401112,16.276306438090362 79.26799504507153,18.776306438100804 81.09812206398388,20.60643345704074 83.59812206398422,21.276306438138835" stroke="#ffa500" stroke-linecap="round" stroke-linejoin="round"/><polyline fill="none" points="-131.65305429526796,-38.713058749104825 -129.15305429525753,-39.38293173016523 -127.3229272763176,-41.21305874907758 -126.6530542952195,-43.71305874907793 -127.32292727627991,-46.213058749088376 -129.15305429519225,-48.043185768028316 -131.6530542951926,-48.71305874912641 -134.15305429520302,-48.043185768066 -135.98318131414297,-46.21305874915366 -136.65305429524108,-43.71305874915331 -135.98318131418068,-41.21305874914287 -134.15305429526833,-39.38293173020293 -131.653054295268,-38.713058749104825" stroke="#008000" stroke-linecap="round" stroke-linejoin="round"/><polyline fill="none" points="-93.05878678298377,45.360037126774664 -90.55878678297333,44.690164145714256 -88.7286597640334,42.86003712680191 -88.0587867829353,40.360037126801565 -88.72865976399571,37.86003712679112 -90.55878678290806,36.02991010785118 -93.0587867829084,35.36003712675308 -95.55878678291884,36.029910107813485 -97.38891380185878,37.86003712672583 -98.05878678295687,40.360037126726176 -97.38891380189646,42.86003712673662 -95.55878678298411,44.69016414567656 -93.05878678298377,45.360037126774664" stroke="#ffa500" stroke-linecap="round" stroke-linejoin="round"/><polyline fill="none" points="13.003694818382522,25.925740616720553 15.503694818392969,25.25586763566015 17.33382183733291,23.425740616747802 18.00369481843101,20.925740616747458 17.333821837370607,18.425740616737013 15.503694818458262,16.59561359779707 13.003694818457918,15.925740616698967 10.503694818447471,16.59561359775937 8.673567799507529,18.425740616671714 8.003694818409425,20.92574061667206 8.673567799469827,23.425740616682504 10.50369481838217,25.255867635622447 13.003694818382515,25.92574061672055" stroke="#ffa500" stroke-linecap="round" stroke-linejoin="round"/><polyline fill="none" points="-82.88686158629687,13.8805059870802 -80.38686158628643,13.2106330060198 -78.55673456734648,11.380505987107457 -77.88686158624837,8.880505987107112 -78.55673456730878,6.380505987096664 -80.38686158622113,4.5503789681567195 -82.88686158622147,3.8805059870586147 -85.38686158623192,4.550378968119015 -87.21698860517186,6.380505987031358 -87.88686158626997,8.880505987031704 -87.21698860520958,11.380505987042152 -85.38686158629724,13.210633005982098 -82.8868615862969,13.880505987080204" stroke="#ffa500" stroke-linecap="round" stroke-linejoin="round"/><polyline fill="none" points="-163.57659969039932,-8.278445520013294 -161.07659969038886,-8.948318501073693 -159.2464726714489,-10.778445519986034 -158.5765996903508,-13.278445519986379 -159.2464726714112,-15.778445519996827 -161.07659969032355,-17.608572538936773 -163.5765996903239,-18.278445520034882 -166.07659969033435,-17.608572538974485 -167.9067267092743,-15.778445520062144 -168.5765996903724,-13.2784455200618 -167.906726709312,-10.77844552005135 -166.07659969039966,-8.948318501111402 -163.57659969039932,-8.278445520013292" stroke="#00f" stroke-linecap="round" stroke-linejoin="round"/><polyline fill="none" points="-139.39097908677408,-10.148079985241342 -136.89097908676362,-10.817952966301739 -135.06085206782367,-12.64807998521408 -134.39097908672557,-15.148079985214425 -135.06085206778596,-17.648079985224875 -136.8909790866983,-19.478207004164823 -139.39097908669865,-20.14807998526293 -141.8909790867091,-19.478207004202538 -143.72110610564906,-17.6480799852902 -144.39097908674717,-15.148079985289854 -143.72110610568677,-12.648079985279404 -141.89097908677442,-10.817952966339453 -139.39097908677408,-10.14807998524134" stroke="#00f" stroke-linecap="round" stroke-linejoin="round"/><polyline fill="none" points="-121.30106772720197,5.569329648884404 -118.80106772719152,4.899456667824009 -116.97094070825158,3.0693296489116704 -116.30106772715347,0.5693296489113258 -116.97094070821386,-1.9306703510991259 -118.8010677271262,-3.760797370039077 -121.30106772712654,-4.4306703511371905 -123.801067727137,-3.760797370076798 -125.63119474607694,-1.9306703511644594 -126.30106772717505,0.5693296488358857 -125.63119474611466,3.069329648846338 -123.80106772720232,4.899456667786291 -121.30106772720198,5.5693296488844055" stroke="#ffa500" stroke-linecap="round" stroke-linejoin="round"/><polyline fill="none" points="-64.91016602854317,57.25711252175726 -62.41016602853272,56.587239540696864 -60.58003900959277,54.75711252178453 -59.91016602849465,52.25711252178418 -60.580039009555044,49.75711252177373 -62.41016602846738,47.92698550283377 -64.91016602846773,47.25711252173566 -67.41016602847819,47.92698550279605 -69.24029304741813,49.757112521708386 -69.91016602851626,52.257112521708734 -69.24029304745586,54.757112521719186 -67.41016602854353,56.58723954065914 -64.91016602854319,57.25711252175726" stroke="#ffa500" stroke-linecap="round" stroke-linejoin="round"/><polyline fill="none" points="-10.686841945637868,63.709511396789146 -8.186841945627414,63.03963841572876 -6.3567149266874585,61.209511396816424 -5.68684194558934,58.70951139681608 -6.35671492664973,56.20951139680563 -8.186841945562065,54.37938437786568 -10.68684194556241,53.70951139676756 -13.186841945572866,54.37938437782795 -15.016968964512822,56.20951139674028 -15.686841945610942,58.70951139674063 -15.016968964550554,61.20951139675108 -13.186841945638218,63.03963841569104 -10.686841945637873,63.70951139678916" stroke="#ffa500" stroke-linecap="round" stroke-linejoin="round"/><polyline fill="none" points="-56.016855648864805,-12.928072151502572 -53.516855648854346,-13.597945132562959 -51.686728629914384,-15.428072151475295 -51.01685564881626,-17.92807215147564 -51.68672862987665,-20.428072151486095 -53.51685564878898,-22.258199170426053 -56.01685564878933,-22.928072151524173 -58.51685564879979,-22.258199170463786 -60.34698266773975,-20.42807215155145 -61.016855648837875,-17.928072151551106 -60.34698266777749,-15.428072151540649 -58.51685564886515,-13.597945132600689 -56.016855648864805,-12.928072151502565" stroke="#00f" stroke-linecap="round" stroke-linejoin="round"/><polyline fill="none" points="-127.21598427466265,-46.58863074264347 -124.71598427465219,-47.25850372370385 -122.88585725571222,-49.08863074261619 -122.2159842746141,-51.58863074261654 -122.88585725567448,-54.088630742627 -124.71598427458682,-55.91875776156696 -127.21598427458716,-56.58863074266508 -129.71598427459762,-55.918757761604695 -131.5461112935376,-54.08863074269236 -132.21598427463573,-51.58863074269201 -131.54611129357534,-49.08863074268155 -129.71598427466301,-47.25850372374159 -127.21598427466267,-46.58863074264347" stroke="#00f" stroke-linecap="round" stroke-linejoin="round"/><polyline fill="none" points="-79.45054084340676,104.49590068905233 -76.9505408433963,103.82602770799195 -75.12041382445634,101.99590068907962 -74.45054084335821,99.49590068907928 -75.12041382441859,96.99590068906882 -76.95054084333093,95.16577367012886 -79.45054084333127,94.49590068903073 -81.95054084334173,95.16577367009111 -83.78066786228169,96.99590068900345 -84.45054084337981,99.49590068900379 -83.78066786231943,101.99590068901425 -81.9505408434071,103.82602770795421 -79.45054084340676,104.49590068905233" stroke="#ffa500" stroke-linecap="round" stroke-linejoin="round"/><polyline fill="none" points="-117.6684449868477,6.7323642411429185 -115.16844498683724,6.062491260082538 -113.33831796789728,4.232364241170206 -112.66844498679916,1.73236424116986 -113.33831796785954,-0.7676357588406013 -115.16844498677187,-2.5977627777805683 -117.66844498677222,-3.2676357588786984 -120.16844498678267,-2.5977627778183194 -121.99857200572264,-0.7676357589059883 -122.66844498682077,1.7323642410943576 -121.9985720057604,4.232364241104819 -120.16844498684806,6.062491260044787 -117.66844498684772,6.7323642411429185" stroke="#ffa500" stroke-linecap="round" stroke-linejoin="round"/><polyline fill="none" points="-121.44065315487883,-53.286251737638906 -118.94065315486837,-53.956124718699286 -117.1105261359284,-55.786251737611614 -116.44065315483026,-58.28625173761196 -117.11052613589064,-60.78625173762243 -118.94065315480297,-62.6163787565624 -121.44065315480331,-63.28625173766053 -123.94065315481377,-62.61637875660015 -125.77078017375375,-60.78625173768782 -126.44065315485189,-58.28625173768747 -125.77078017379151,-55.786251737677006 -123.94065315487917,-53.95612471873704 -121.44065315487883,-53.2862517376389" stroke="#f00" stroke-linecap="round" stroke-linejoin="round"/><polyline fill="none" points="-35.006028761002355,-28.198563121381667 -32.50602876099189,-28.868436102442043 -30.675901742051916,-30.698563121354372 -30.006028760953782,-33.19856312135472 -30.675901742014158,-35.69856312136518 -32.50602876092649,-37.52869014030515 -35.00602876092684,-38.19856312140329 -37.506028760937305,-37.52869014034292 -39.336155779877274,-35.69856312143059 -40.00602876097541,-33.19856312143024 -39.33615577991504,-30.698563121419774 -37.50602876100271,-28.8684361024798 -35.00602876100236,-28.198563121381664" stroke="#008000" stroke-linecap="round" stroke-linejoin="round"/><polyline fill="none" points="-98.9902483626199,58.20600946695087 -96.49024836260944,57.536136485890495 -94.66012134366946,55.706009466978166 -93.99024836257132,53.20600946697782 -94.6601213436317,50.70600946696735 -96.49024836254402,48.875882448027376 -98.99024836254436,48.20600946692924 -101.49024836255484,48.87588244798961 -103.32037538149481,50.70600946690194 -103.99024836259295,53.20600946690229 -103.32037538153259,55.706009466912754 -101.49024836262026,57.53613648585273 -98.99024836261992,58.20600946695087" stroke="#ffa500" stroke-linecap="round" stroke-linejoin="round"/><polyline fill="none" points="-103.80391199244949,48.00059118723048 -101.30391199243901,47.330718206170104 -99.47378497349904,45.500591187257776 -98.8039119924009,43.00059118725743 -99.47378497346126,40.50059118724696 -101.30391199237359,38.670464168306985 -103.80391199237393,38.00059118720885 -106.3039119923844,38.67046416826922 -108.13403901132438,40.50059118718155 -108.80391199242251,43.0005911871819 -108.13403901136215,45.50059118719236 -106.30391199244983,47.33071820613234 -103.80391199244949,48.000591187230484" stroke="#ffa500" stroke-linecap="round" stroke-linejoin="round"/><polyline fill="none" points="-80.48680681463411,91.53526248131449 -77.98680681462363,90.86538950025412 -76.15667979568366,89.0352624813418 -75.48680681458552,86.53526248134146 -76.15667979564589,84.03526248133099 -77.98680681455821,82.20513546239101 -80.48680681455855,81.53526248129288 -82.98680681456902,82.20513546235324 -84.816933833509,84.03526248126556 -85.48680681460714,86.5352624812659 -84.81693383354677,89.03526248127638 -82.98680681463445,90.86538950021635 -80.48680681463411,91.5352624813145" stroke="#00f" stroke-linecap="round" stroke-linejoin="round"/><polyline fill="none" points="-127.96167819894477,22.158410330282532 -125.4616781989343,21.488537349222167 -123.63155117999432,19.65841033030984 -122.96167819889617,17.158410330309493 -123.63155117995653,14.658410330299024 -125.46167819886885,12.828283311359042 -127.9616781988692,12.158410330260896 -130.46167819887967,12.828283311321261 -132.29180521781964,14.658410330233584 -132.96167819891778,17.15841033023393 -132.29180521785742,19.6584103302444 -130.4616781989451,21.488537349184384 -127.96167819894475,22.158410330282532" stroke="#00f" stroke-linecap="round" stroke-linejoin="round"/><polyline fill="none" points="-75.67677758615902,54.472716231829516 -73.17677758614855,53.80284325076915 -71.34665056720856,51.97271623185683 -70.6767775861104,49.47271623185648 -71.34665056717077,46.97271623184601 -73.17677758608309,45.142589212906024 -75.67677758608343,44.47271623180787 -78.1767775860939,45.14258921286824 -80.0069046050339,46.97271623178056 -80.67677758613205,49.47271623178091 -80.00690460507168,51.97271623179138 -78.17677758615936,53.802843250731364 -75.67677758615902,54.472716231829516" stroke="#ffa500" stroke-linecap="round" stroke-linejoin="round"/><polyline fill="none" points="13.352867789260264,-14.798416419704377 15.852867789270737,-15.46828940076474 17.682994808210722,-17.29841641967706 18.352867789308874,-19.79841641967741 17.682994808248512,-22.298416419687882 15.852867789336191,-24.12854343862787 13.352867789335843,-24.79841641972602 10.85286778932537,-24.12854343866566 9.022740770385381,-22.298416419753337 8.352867789287227,-19.79841641975299 9.022740770347587,-17.298416419742516 10.852867789259909,-15.468289400802528 13.352867789260257,-14.798416419704374" stroke="#00f" stroke-linecap="round" stroke-linejoin="round"/><polyline fill="none" points="-121.47187682181762,-35.84683638701599 -118.97187682180714,-36.51670936807635 -117.14174980286715,-38.34683638698867 -116.471876821769,-40.84683638698902 -117.14174980282937,-43.34683638699949 -118.97187682174169,-45.17696340593948 -121.47187682174203,-45.84683638703764 -123.9718768217525,-45.17696340597728 -125.80200384069249,-43.34683638706496 -126.47187682179064,-40.84683638706461 -125.8020038407303,-38.34683638705414 -123.97187682181797,-36.51670936811415 -121.47187682181763,-35.84683638701599" stroke="#ffa500" stroke-linecap="round" stroke-linejoin="round"/><polyline fill="none" points="-150.99420500124427,13.925836027593473 -148.49420500123378,13.255963046533116 -146.66407798229378,11.425836027620797 -145.9942050011956,8.925836027620448 -146.66407798225598,6.4258360276099715 -148.4942050011683,4.59570900866998 -150.99420500116864,3.925836027571821 -153.49420500117913,4.595709008632177 -155.32433202011913,6.425836027544496 -155.9942050012173,8.925836027544845 -155.32433202015693,11.425836027555324 -153.4942050012446,13.255963046495317 -150.99420500124427,13.925836027593476" stroke="#ffa500" stroke-linecap="round" stroke-linejoin="round"/><polyline fill="none" points="-146.41198262075036,-56.049885982725726 -143.91198262073988,-56.719758963786084 -142.08185560179987,-58.549885982698406 -141.4119826207017,-61.049885982698754 -142.08185560176207,-63.549885982709235 -143.9119826206744,-65.38001300164923 -146.41198262067473,-66.0498859827474 -148.91198262068522,-65.38001300168705 -150.74210963962523,-63.549885982774725 -151.4119826207234,-61.04988598277438 -150.74210963966303,-58.5498859827639 -148.9119826207507,-56.7197589638239 -146.41198262075036,-56.04988598272573" stroke="#ffa500" stroke-linecap="round" stroke-linejoin="round"/><polyline fill="none" points="-130.48564218825308,-60.53345866148486 -127.9856421882426,-61.20333164254521 -126.15551516930259,-63.03345866145752 -125.48564218820442,-65.53345866145787 -126.15551516926477,-68.03345866146836 -127.9856421881771,-69.86358568040836 -130.48564218817745,-70.53345866150653 -132.98564218818794,-69.86358568044618 -134.81576920712794,-68.03345866153386 -135.4856421882261,-65.5334586615335 -134.81576920716577,-63.03345866152302 -132.98564218825345,-61.203331642583024 -130.4856421882531,-60.53345866148486" stroke="#00f" stroke-linecap="round" stroke-linejoin="round"/><polyline fill="none" points="-94.33403390334645,43.31261864453357 -91.83403390333596,42.64274566347322 -90.00390688439596,40.81261864456091 -89.3340339032978,38.31261864456056 -90.00390688435814,35.81261864455008 -91.83403390327047,33.98249162561008 -94.33403390327082,33.312618644511915 -96.83403390328131,33.982491625572266 -98.66416092222131,35.81261864448458 -99.33403390331948,38.31261864448493 -98.66416092225913,40.81261864449541 -96.8340339033468,42.64274566343541 -94.33403390334645,43.31261864453358" stroke="#ffa500" stroke-linecap="round" stroke-linejoin="round"/><polyline fill="none" points="-132.37409810156424,-80.27430632574665 -129.87409810155376,-80.944179306807 -128.04397108261375,-82.77430632571932 -127.37409810151559,-85.27430632571968 -128.04397108257592,-87.77430632573017 -129.87409810148824,-89.60443334467017 -132.37409810148858,-90.27430632576834 -134.87409810149907,-89.60443334470799 -136.70422512043908,-87.77430632579568 -137.37409810153724,-85.27430632579532 -136.7042251204769,-82.77430632578483 -134.87409810156458,-80.94417930684483 -132.37409810156424,-80.27430632574666" stroke="#ffa500" stroke-linecap="round" stroke-linejoin="round"/><polyline fill="none" points="48.659301658954114,23.17744253169411 51.1593016589646,22.507569550633765 52.989428677904606,20.677442531721454 53.65930165900278,18.177442531721105 52.989428677942435,15.67744253171062 51.15930165903012,13.847315512770614 48.65930165902977,13.17744253167244 46.159301659019285,13.847315512732782 44.32917464007928,15.677442531645095 43.65930165898111,18.177442531645443 44.32917464004145,20.67744253165593 46.159301658953765,22.50756955059594 48.659301658954114,23.177442531694116" stroke="#ffa500" stroke-linecap="round" stroke-linejoin="round"/><polyline fill="none" points="-85.0224742119606,27.397033394251363 -82.52247421195011,26.727160413191022 -80.69234719301011,24.89703339427871 -80.02247421191193,22.397033394278363 -80.69234719297226,19.897033394267876 -82.52247421188457,18.066906375327868 -85.02247421188493,17.39703339422969 -87.52247421189541,18.06690637529003 -89.35260123083542,19.897033394202342 -90.0224742119336,22.39703339420269 -89.35260123087326,24.897033394213178 -87.52247421196095,26.727160413153186 -85.0224742119606,27.397033394251363" stroke="#00f" stroke-linecap="round" stroke-linejoin="round"/><polyline fill="none" points="-113.73169447940577,-21.79729426138068 -111.23169447939529,-22.467167242441022 -109.40156746045528,-24.297294261353333 -108.7316944793571,-26.79729426135368 -109.40156746041744,-29.29729426136417 -111.23169447932975,-31.12742128030418 -113.7316944793301,-31.79729426140236 -116.23169447934059,-31.127421280342023 -118.06182149828061,-29.297294261429712 -118.73169447937879,-26.797294261429364 -118.06182149831845,-24.297294261418877 -116.23169447940614,-22.467167242478865 -113.73169447940579,-21.797294261380685" stroke="#00f" stroke-linecap="round" stroke-linejoin="round"/><polyline fill="none" points="-123.53012166943364,-40.929675288373836 -121.03012166942315,-41.59954826943417 -119.19999465048313,-43.42967528834648 -118.53012166938495,-45.92967528834683 -119.19999465044529,-48.429675288357316 -121.0301216693576,-50.25980230729733 -123.53012166935795,-50.92967528839551 -126.03012166936844,-50.25980230733517 -127.86024868830846,-48.429675288422864 -128.53012166940664,-45.929675288422516 -127.8602486883463,-43.42967528841203 -126.030121669434,-41.59954826947202 -123.53012166943364,-40.929675288373836" stroke="#00f" stroke-linecap="round" stroke-linejoin="round"/><polyline fill="none" points="-85.7876954020754,105.9222945877774 -83.28769540206491,105.25242160671706 -81.4575683831249,103.42229458780476 -80.78769540202671,100.9222945878044 -81.45756838308705,98.42229458779391 -83.28769540199936,96.5921675688539 -85.78769540199971,95.92229458775572 -88.2876954020102,96.59216756881605 -90.11782242095022,98.42229458772836 -90.7876954020484,100.92229458772871 -90.11782242098806,103.4222945877392 -88.28769540207576,105.25242160667922 -85.7876954020754,105.9222945877774" stroke="#ffa500" stroke-linecap="round" stroke-linejoin="round"/><polyline fill="none" points="-173.4774987292088,-62.24745995356675 -170.97749872919832,-62.917332934627076 -169.1473717102583,-64.74745995353938 -168.47749872916012,-67.24745995353973 -169.14737171022045,-69.74745995355022 -170.97749872913275,-71.57758697249024 -173.4774987291331,-72.24745995358843 -175.97749872914358,-71.5775869725281 -177.8076257480836,-69.74745995361579 -178.4774987291818,-67.24745995361543 -177.80762574812147,-64.74745995360495 -175.97749872920917,-62.91733293466493 -173.47749872920883,-62.24745995356674" stroke="#ffa500" stroke-linecap="round" stroke-linejoin="round"/><polyline fill="none" points="-40.937429292486996,64.57085148586448 -38.4374292924765,63.90097850480415 -36.60730227353648,62.07085148589184 -35.937429292438296,59.570851485891495 -36.607302273498625,57.070851485881 -38.437429292410926,55.24072446694098 -40.937429292411274,54.570851485842795 -43.43742929242177,55.240724466903124 -45.26755631136179,57.070851485815425 -45.93742929245998,59.57085148581577 -45.26755631139965,62.07085148582627 -43.43742929248735,63.900978504766286 -40.937429292487,64.57085148586448" stroke="#ffa500" stroke-linecap="round" stroke-linejoin="round"/><polyline fill="none" points="-92.47507505345457,102.23010111255691 -89.97507505344407,101.56022813149659 -88.14494803450405,99.73010111258428 -87.47507505340586,97.23010111258392 -88.14494803446618,94.73010111257342 -89.97507505337849,92.8999740936334 -92.47507505337884,92.23010111253521 -94.97507505338935,92.89997409359553 -96.80520207232937,94.73010111250784 -97.47507505342756,97.2301011125082 -96.80520207236724,99.7301011125187 -94.97507505345493,101.56022813145871 -92.47507505345457,102.23010111255691" stroke="#ffa500" stroke-linecap="round" stroke-linejoin="round"/><polyline fill="none" points="-82.39078737661337,-17.67540407805145 -79.89078737660287,-18.345277059111776 -78.06066035766285,-20.175404078024076 -77.39078737656466,-22.675404078024425 -78.06066035762498,-25.175404078034923 -79.89078737653729,-27.00553109697495 -82.39078737653765,-27.675404078073147 -84.89078737654815,-27.005531097012824 -86.72091439548818,-25.175404078100524 -87.39078737658637,-22.675404078100176 -86.72091439552605,-20.175404078089677 -84.89078737661374,-18.34527705914965 -82.39078737661339,-17.675404078051454" stroke="#00f" stroke-linecap="round" stroke-linejoin="round"/><polyline fill="none" points="-162.79775165368218,-79.72979707198436 -160.2977516536717,-80.39967005304469 -158.46762463473166,-82.229797071957 -157.79775165363347,-84.72979707195735 -158.46762463469378,-87.22979707196785 -160.29775165360607,-89.05992409090788 -162.7977516536064,-89.72979707200608 -165.2977516536169,-89.05992409094576 -167.12787867255693,-87.22979707203346 -167.79775165365513,-84.72979707203311 -167.12787867259482,-82.2297970720226 -165.29775165368252,-80.39967005308257 -162.79775165368218,-79.72979707198438" stroke="#00f" stroke-linecap="round" stroke-linejoin="round"/><polyline fill="none" points="-106.35820650396556,-73.84038706997734 -103.85820650395506,-74.51026005103766 -102.02807948501503,-76.34038706994995 -101.35820650391683,-78.84038706995031 -102.02807948497716,-81.34038706996081 -103.85820650388945,-83.17051408890084 -106.3582065038898,-83.84038706999905 -108.8582065039003,-83.17051408893873 -110.68833352284034,-81.34038707002644 -111.35820650393855,-78.84038707002608 -110.68833352287822,-76.34038707001558 -108.85820650396593,-74.51026005107555 -106.35820650396558,-73.84038706997734" stroke="#ffa500" stroke-linecap="round" stroke-linejoin="round"/><polyline fill="none" points="-105.18393107689137,35.359785173523555 -102.68393107688087,34.68991219246324 -100.85380405794083,32.85978517355094 -100.18393107684263,30.35978517355059 -100.85380405790295,27.85978517354009 -102.68393107681524,26.029658154600057 -105.1839310768156,25.35978517350185 -107.6839310768261,26.029658154562167 -109.51405809576613,27.859785173474464 -110.18393107686434,30.359785173474812 -109.51405809580402,32.859785173485314 -107.68393107689172,34.689912192425346 -105.18393107689137,35.359785173523555" stroke="#ffa500" stroke-linecap="round" stroke-linejoin="round"/><polyline fill="none" points="-93.42234669997451,91.1524279776684 -90.92234669996401,90.48255499660809 -89.09221968102398,88.6524279776958 -88.42234669992577,86.15242797769544 -89.09221968098608,83.65242797768494 -90.92234669989837,81.8223009587449 -93.42234669989872,81.1524279776467 -95.92234669990923,81.822300958707 -97.75247371884926,83.6524279776193 -98.42234669994747,86.15242797761965 -97.75247371888716,88.65242797763015 -95.92234669997487,90.48255499657019 -93.42234669997451,91.1524279776684" stroke="#ffa500" stroke-linecap="round" stroke-linejoin="round"/><polyline fill="none" points="-91.81604890429406,27.307642810648236 -89.31604890428356,26.637769829587924 -87.48592188534353,24.80764281067563 -86.81604890424532,22.307642810675283 -87.48592188530563,19.80764281066478 -89.31604890421792,17.977515791724745 -91.81604890421828,17.307642810626536 -94.31604890422878,17.977515791686848 -96.14617592316881,19.80764281059914 -96.81604890426702,22.30764281059949 -96.14617592320671,24.807642810609995 -94.31604890429442,26.637769829550034 -91.81604890429406,27.307642810648247" stroke="#00f" stroke-linecap="round" stroke-linejoin="round"/><polyline fill="none" points="-155.84066359246825,0.9789397026859046 -153.34066359245773,0.30906672162559434 -151.5105365735177,-1.5210602972866991 -150.84066359241947,-4.021060297287049 -151.51053657347978,-6.521060297297554 -153.34066359239208,-8.351187316237594 -155.84066359239242,-9.021060297335806 -158.34066359240293,-8.351187316275496 -160.17079061134297,-6.521060297363204 -160.8406635924412,-4.021060297362855 -160.17079061138088,-1.5210602973523493 -158.3406635924686,0.30906672158769144 -155.84066359246825,0.9789397026859054" stroke="#ffa500" stroke-linecap="round" stroke-linejoin="round"/><polyline fill="none" points="-130.94242492025325,-65.82536554064338 -128.44242492024273,-66.49523852170368 -126.61229790130268,-68.32536554061598 -125.94242492020447,-70.82536554061633 -126.61229790126478,-73.32536554062683 -128.44242492017707,-75.15549255956688 -130.94242492017742,-75.82536554066509 -133.44242492018793,-75.15549255960478 -135.27255193912796,-73.32536554069249 -135.9424249202262,-70.82536554069213 -135.27255193916588,-68.32536554068163 -133.4424249202536,-66.49523852174158 -130.94242492025325,-65.82536554064336" stroke="#00f" stroke-linecap="round" stroke-linejoin="round"/><polyline fill="none" points="-168.56025969297366,-81.90611628990192 -166.06025969296314,-82.57598927096222 -164.2301326740231,-84.40611628987452 -163.5602596929249,-86.90611628987487 -164.2301326739852,-89.40611628988538 -166.0602596928975,-91.23624330882542 -168.56025969289783,-91.90611628992365 -171.06025969290835,-91.23624330886334 -172.89038671184838,-89.40611628995104 -173.5602596929466,-86.90611628995069 -172.8903867118863,-84.40611628994017 -171.060259692974,-82.57598927100013 -168.56025969297366,-81.9061162899019" stroke="#ffa500" stroke-linecap="round" stroke-linejoin="round"/><polyline fill="none" points="-136.3955172588228,-57.127672638386315 -133.89551725881228,-57.797545619446616 -132.06539023987222,-59.62767263835891 -131.395517258774,-62.12767263835926 -132.0653902398343,-64.62767263836977 -133.8955172587466,-66.45779965730982 -136.39551725874693,-67.12767263840804 -138.89551725875745,-66.45779965734773 -140.7256442776975,-64.62767263843544 -141.39551725879573,-62.127672638435094 -140.72564427773543,-59.627672638424585 -138.89551725882313,-57.79754561948454 -136.3955172588228,-57.127672638386315" stroke="#008000" stroke-linecap="round" stroke-linejoin="round"/><polyline fill="none" points="-39.34139441946382,53.69452769038863 -36.84139441945331,53.02465470932833 -35.01126740051326,51.194527690416045 -34.34139441941504,48.6945276904157 -35.01126740047534,46.19452769040518 -36.841394419387626,44.36440067146513 -39.341394419387974,43.694527690366904 -41.84139441939849,44.364400671427205 -43.671521438338544,46.19452769033949 -44.34139441943677,48.69452769033984 -43.671521438376466,51.194527690350355 -41.84139441946418,53.02465470929041 -39.34139441946383,53.69452769038863" stroke="#ffa500" stroke-linecap="round" stroke-linejoin="round"/><polyline fill="none" points="45.482932364345984,3.4931272521293337 47.9829323643565,2.8232542710690347 49.813059383296554,0.9931272521567467 50.48293236439478,-1.5068727478436046 49.813059383334476,-4.006872747854119 47.98293236442219,-5.836999766794172 45.48293236442184,-6.506872747892399 42.982932364411326,-5.836999766832101 41.15280534547127,-4.0068727479198145 40.48293236437304,-1.5068727479194628 41.152805345433336,0.9931272520910523 42.98293236434562,2.8232542710311073 45.48293236434597,3.493127252129336" stroke="#ffa500" stroke-linecap="round" stroke-linejoin="round"/><polyline fill="none" points="-147.34483096491317,-72.3764150424724 -144.84483096490266,-73.0462880235327 -143.0147039459626,-74.87641504244499 -142.34483096486437,-77.37641504244534 -143.01470394592468,-79.87641504245586 -144.84483096483697,-81.70654206139592 -147.3448309648373,-82.37641504249416 -149.84483096484783,-81.70654206143386 -151.6749579837879,-79.87641504252159 -152.3448309648861,-77.37641504252123 -151.6749579838258,-74.87641504251071 -149.8448309649135,-73.04628802357065 -147.34483096491317,-72.37641504247242" stroke="#ffa500" stroke-linecap="round" stroke-linejoin="round"/><polyline fill="none" points="-167.66678252118592,-50.5194673172181 -165.1667825211754,-51.189340298278395 -163.33665550223535,-53.01946731719068 -162.66678252113712,-55.51946731719103 -163.3366555021974,-58.019467317201546 -165.1667825211097,-59.84959433614161 -167.66678252111004,-60.51946731723984 -170.16678252112055,-59.84959433617954 -171.9969095400606,-58.01946731726726 -172.66678252115884,-55.5194673172669 -171.99690954009856,-53.019467317256385 -170.16678252118626,-51.189340298316324 -167.66678252118592,-50.51946731721809" stroke="#00f" stroke-linecap="round" stroke-linejoin="round"/><polyline fill="none" points="-127.93643490521174,-89.3030095926612 -125.43643490520122,-89.97288257372149 -123.60630788626116,-91.80300959263377 -122.93643490516293,-94.30300959263413 -123.60630788622322,-96.80300959264464 -125.4364349051355,-98.6331366115847 -127.93643490513585,-99.30300959268294 -130.43643490514637,-98.63313661162265 -132.26656192408643,-96.80300959271037 -132.93643490518465,-94.30300959271001 -132.26656192412437,-91.8030095926995 -130.43643490521208,-89.97288257375943 -127.93643490521173,-89.3030095926612" stroke="#ffa500" stroke-linecap="round" stroke-linejoin="round"/><polyline fill="none" points="-115.69201256248444,-59.519951832061906 -113.19201256247392,-60.18982481312219 -111.36188554353386,-62.01995183203447 -110.69201256243562,-64.51995183203482 -111.36188554349592,-67.01995183204534 -113.1920125624082,-68.8500788509854 -115.69201256240855,-69.51995183208363 -118.19201256241907,-68.85007885102334 -120.02213958135913,-67.01995183211106 -120.69201256245736,-64.5199518321107 -120.02213958139708,-62.01995183210018 -118.1920125624848,-60.189824813160115 -115.69201256248445,-59.51995183206187" stroke="#008000" stroke-linecap="round" stroke-linejoin="round"/><polyline fill="none" points="-94.95837044128238,20.577591977408453 -92.45837044127187,19.907718996348166 -90.6282434223318,18.077591977435887 -89.95837044123357,15.577591977435535 -90.62824342229385,13.077591977425012 -92.45837044120613,11.247464958484946 -94.95837044120648,10.577591977386703 -97.458370441217,11.247464958446987 -99.28849746015706,13.077591977359265 -99.9583704412553,15.577591977359617 -99.28849746019502,18.07759197737014 -97.45837044128274,19.90771899631021 -94.95837044128238,20.577591977408453" stroke="#ffa500" stroke-linecap="round" stroke-linejoin="round"/><polyline fill="none" points="-160.0304434005075,-8.902735874179859 -157.53044340049698,-9.572608855240142 -155.70031638155692,-11.402735874152421 -155.03044340045867,-13.902735874152773 -155.70031638151895,-16.402735874163298 -157.5304434004312,-18.232862893103366 -160.03044340043155,-18.90273587420161 -162.53044340044207,-18.232862893141327 -164.36057041938213,-16.402735874229048 -165.03044340048038,-13.902735874228696 -164.3605704194201,-11.402735874218171 -162.53044340050783,-9.572608855278101 -160.0304434005075,-8.902735874179855" stroke="#ffa500" stroke-linecap="round" stroke-linejoin="round"/><polyline fill="none" points="-16.321299369621116,-41.06948592192242 -13.82129936961059,-41.7393589029827 -11.99117235067052,-43.56948592189498 -11.321299369572273,-46.06948592189533 -11.991172350632553,-48.56948592190585 -13.82129936954483,-50.39961294084592 -16.32129936954518,-51.069485921944164 -18.821299369555703,-50.399612940883884 -20.651426388495775,-48.569485921971605 -21.321299369594023,-46.06948592197125 -20.651426388533743,-43.56948592196073 -18.821299369621467,-41.73935890302065 -16.321299369621116,-41.0694859219224" stroke="#ffa500" stroke-linecap="round" stroke-linejoin="round"/><polyline fill="none" points="-180.56289420244144,-76.68435751944783 -178.06289420243093,-77.35423050050811 -176.23276718349086,-79.18435751942039 -175.5628942023926,-81.68435751942074 -176.2327671834529,-84.18435751943127 -178.06289420236516,-86.01448453837135 -180.5628942023655,-86.6843575194696 -183.06289420237601,-86.01448453840932 -184.89302122131608,-84.18435751949704 -185.56289420241433,-81.68435751949669 -184.89302122135405,-79.18435751948616 -183.06289420244178,-77.35423050054608 -180.56289420244144,-76.68435751944783" stroke="#00f" stroke-linecap="round" stroke-linejoin="round"/><polyline fill="none" points="-57.36769012768192,-41.61098709143312 -54.867690127671395,-42.2808600724934 -53.03756310873132,-44.11098709140567 -52.36769012763307,-46.61098709140602 -53.03756310869334,-49.11098709141655 -54.86769012760561,-50.94111411035662 -57.36769012760596,-51.610987091454874 -59.86769012761649,-50.9411141103946 -61.69781714655657,-49.11098709148233 -62.36769012765482,-46.610987091481974 -61.697817146594545,-44.11098709147144 -59.86769012768227,-42.28086007253137 -57.367690127681925,-41.61098709143312" stroke="#00f" stroke-linecap="round" stroke-linejoin="round"/><polyline fill="none" points="-77.64792503088741,-25.745623957933933 -75.14792503087688,-26.415496938994206 -73.3177980119368,-28.24562395790648 -72.64792503083855,-30.745623957906833 -73.31779801189883,-33.24562395791736 -75.14792503081111,-35.075750976857435 -77.64792503081146,-35.745623957955694 -80.147925030822,-35.07575097689542 -81.97805204976207,-33.24562395798315 -82.64792503086032,-30.745623957982797 -81.97805204980006,-28.245623957972267 -80.14792503088778,-26.415496939032188 -77.64792503088742,-25.74562395793393" stroke="#ffa500" stroke-linecap="round" stroke-linejoin="round"/><polyline fill="none" points="-109.90190774054884,-46.87896900786306 -107.4019077405383,-47.548841988923336 -105.57178072159823,-49.37896900783561 -104.90190774049998,-51.87896900783596 -105.57178072156024,-54.37896900784649 -107.40190774047251,-56.209096026786575 -109.90190774047286,-56.878969007884834 -112.4019077404834,-56.20909602682456 -114.23203475942347,-54.37896900791229 -114.90190774052174,-51.87896900791194 -114.23203475946147,-49.37896900790141 -112.4019077405492,-47.54884198896133 -109.90190774054885,-46.87896900786307" stroke="#ffa500" stroke-linecap="round" stroke-linejoin="round"/><polyline fill="none" points="-151.03878820717694,-14.816640528391268 -148.5387882071664,-15.486513509451537 -146.7086611882263,-17.31664052836381 -146.03878820712805,-19.81664052836416 -146.70866118818833,-22.31664052837469 -148.5387882071006,-24.146767547314774 -151.03878820710094,-24.816640528413036 -153.53878820711148,-24.146767547352766 -155.36891522605157,-22.316640528440495 -156.03878820714982,-19.816640528440143 -155.36891522608954,-17.31664052842961 -153.53878820717728,-15.486513509489525 -151.03878820717694,-14.816640528391261" stroke="#ffa500" stroke-linecap="round" stroke-linejoin="round"/><polyline fill="none" points="-122.62281015730345,-61.68389271915045 -120.12281015729292,-62.353765700210715 -118.29268313835283,-64.18389271912298 -117.62281015725456,-66.68389271912334 -118.29268313831483,-69.18389271913387 -120.1228101572271,-71.01401973807396 -122.62281015722745,-71.68389271917222 -125.12281015723798,-71.01401973811195 -126.95293717617807,-69.18389271919969 -127.62281015727633,-66.68389271919933 -126.95293717621607,-64.1838927191888 -125.1228101573038,-62.353765700248715 -122.62281015730345,-61.68389271915045" stroke="#00f" stroke-linecap="round" stroke-linejoin="round"/><polyline fill="none" points="-31.7473625942963,53.44453695549656 -29.247362594285764,52.774663974436294 -27.41723557534568,50.94453695552402 -26.747362594247413,48.44453695552367 -27.41723557530768,45.94453695551313 -29.247362594219947,44.11440993657304 -31.7473625942203,43.444536955474774 -34.247362594230836,44.11440993653504 -36.077489613170926,45.944536955447305 -36.74736259426919,48.44453695544766 -36.077489613208925,50.9445369554582 -34.24736259429666,52.77466397439829 -31.74736259429631,53.44453695549655" stroke="#00f" stroke-linecap="round" stroke-linejoin="round"/><polyline fill="none" points="-101.86411675232614,29.333649500971728 -99.36411675231561,28.663776519911465 -97.53398973337552,26.833649500999197 -96.86411675227725,24.333649500998845 -97.53398973333752,21.833649500988308 -99.36411675224979,20.00352248204822 -101.86411675225014,19.33364950094995 -104.36411675226068,20.00352248201021 -106.19424377120077,21.83364950092248 -106.86411675229904,24.33364950092283 -106.19424377123877,26.83364950093337 -104.36411675232651,28.663776519873462 -101.86411675232615,29.333649500971735" stroke="#ffa500" stroke-linecap="round" stroke-linejoin="round"/><polyline fill="none" points="-123.47121063436165,-36.36618155127392 -120.97121063435111,-37.03605453233418 -119.14108361541102,-38.86618155124644 -118.47121063431275,-41.3661815512468 -119.14108361537302,-43.866181551257334 -120.97121063428528,-45.69630857019743 -123.47121063428564,-46.3661815512957 -125.97121063429618,-45.696308570235445 -127.80133765323627,-43.86618155132318 -128.47121063433454,-41.366181551322825 -127.80133765327427,-38.86618155131229 -125.97121063436201,-37.03605453237219 -123.47121063436165,-36.36618155127392" stroke="#008000" stroke-linecap="round" stroke-linejoin="round"/><polyline fill="none" points="-168.95691099590135,-67.80875595209373 -166.4569109958908,-68.47862893315398 -164.62678397695072,-70.30875595206625 -163.95691099585244,-72.8087559520666 -164.6267839769127,-75.30875595207715 -166.45691099582496,-77.13888297101724 -168.9569109958253,-77.80875595211552 -171.45691099583584,-77.13888297105527 -173.28703801477593,-75.308755952143 -173.9569109958742,-72.80875595214265 -173.28703801481396,-70.3087559521321 -171.4569109959017,-68.478628933192 -168.95691099590135,-67.80875595209372" stroke="#ffa500" stroke-linecap="round" stroke-linejoin="round"/><polyline fill="none" points="207.17528576936758,-105.65635755079435 209.67528576937812,-106.3262305318546 211.5054127883182,-108.15635755076687 212.1752857694165,-110.65635755076723 211.50541278835624,-113.15635755077777 209.67528576944397,-114.98648456971787 207.17528576944363,-115.65635755081615 204.6752857694331,-114.9864845697559 202.845158750493,-113.15635755084364 202.17528576939472,-110.65635755084328 202.84515875045497,-108.15635755083274 204.67528576936724,-106.32623053189263 207.17528576936758,-105.65635755079435" stroke="#ffa500" stroke-linecap="round" stroke-linejoin="round"/></svg>