<?xml version="1.0" ?><!DOCTYPE svg  PUBLIC '-//W3C//DTD SVG 1.1//EN'  'http://www.w3.org/Graphics/SVG/1.1/DTD/svg11.dtd'><svg height="255.000" viewBox="-204.000 -139.000 456.000 255.000" width="456.000" xmlns="http://www.w3.org/2000/svg"><line fill="none" stroke="none" stroke-linecap="round" stroke-width="2.0" x1="0.0" x2="0.0" y1="0.0" y2="0.0"/><polygon fill="none" fill-rule="evenodd" points="0.0,0.0 0.0,0.0 0.0,0.0" stroke-linejoin="round"/><polyline fill="none" points="-139.15471760396002,-42.44193177623528 -136.65471760394885,-43.1118047572945 -134.82459058500768,-44.94193177620618 -134.1547176039082,-47.44193177620656 -134.82459058496744,-49.94193177621773 -136.6547176038791,-51.772058795158884 -139.15471760387948,-52.44193177625837 -141.65471760389065,-51.77205879519915 -143.48484462283182,-49.94193177628747 -144.15471760393132,-47.44193177628709 -143.4848446228721,-44.94193177627592 -141.65471760396042,-43.11180475733477 -139.15471760396005,-42.44193177623528" stroke="#00f" stroke-linecap="round" stroke-linejoin="round"/><polyline fill="none" points="-142.2988031196744,-65.21322897245126 -139.79880311966323,-65.88310195351048 -137.96867610072206,-67.71322897242216 -137.29880311962256,-70.21322897242254 -137.9686761006818,-72.71322897243371 -139.79880311959346,-74.54335599137487 -142.29880311959383,-75.21322897247435 -144.798803119605,-74.54335599141514 -146.62893013854617,-72.71322897250346 -147.29880311964567,-70.21322897250307 -146.62893013858644,-67.7132289724919 -144.79880311967477,-65.88310195355075 -142.2988031196744,-65.21322897245126" stroke="#008000" stroke-linecap="round" stroke-linejoin="round"/><polyline fill="none" points="-108.42409274478689,-78.58499561537758 -105.92409274477572,-79.2548685964368 -104.09396572583456,-81.08499561534848 -103.42409274473508,-83.58499561534886 -104.09396572579429,-86.08499561536003 -105.92409274470597,-87.91512263430118 -108.42409274470636,-88.58499561540067 -110.92409274471753,-87.91512263434146 -112.7542197636587,-86.08499561542978 -113.42409274475818,-83.58499561542939 -112.75421976369897,-81.08499561541822 -110.92409274478729,-79.25486859647705 -108.4240927447869,-78.58499561537757" stroke="#ffa500" stroke-linecap="round" stroke-linejoin="round"/><polyline fill="none" points="-126.20290340005786,-65.8914782433377 -123.7029034000467,-66.56135122439692 -121.87277638110552,-68.3914782433086 -121.20290340000602,-70.89147824330898 -121.87277638106524,-73.39147824332015 -123.70290339997692,-75.22160526226132 -126.2029033999773,-75.89147824336082 -128.7029033999885,-75.22160526230161 -130.53303041892966,-73.39147824338993 -131.20290340002916,-70.89147824338954 -130.53303041896996,-68.39147824337837 -128.7029034000583,-66.5613512244372 -126.2029034000579,-65.8914782433377" stroke="#008000" stroke-linecap="round" stroke-linejoin="round"/><polyline fill="none" points="-152.53447773911716,-33.76613886301695 -150.034477739106,-34.43601184407616 -148.20435072016483,-36.26613886298784 -147.53447773906532,-38.766138862988214 -148.20435072012452,-41.266138862999384 -150.0344777390362,-43.09626588194055 -152.53447773903656,-43.76613886304005 -155.03447773904773,-43.09626588198084 -156.8646047579889,-41.266138863069166 -157.5344777390884,-38.76613886306879 -156.8646047580292,-36.26613886305762 -155.03447773911753,-34.43601184411645 -152.53447773911716,-33.76613886301695" stroke="#00f" stroke-linecap="round" stroke-linejoin="round"/><polyline fill="none" points="-140.63216069559596,-87.92239745000917 -138.1321606955848,-88.59227043106839 -136.30203367664362,-90.42239744998005 -135.63216069554412,-92.92239744998044 -136.30203367660332,-95.4223974499916 -138.13216069551498,-97.25252446893278 -140.63216069551535,-97.92239745003228 -143.13216069552652,-97.25252446897306 -144.9622877144677,-95.4223974500614 -145.6321606955672,-92.92239745006101 -144.962287714508,-90.42239745004984 -143.13216069559633,-88.59227043110867 -140.63216069559596,-87.92239745000917" stroke="#00f" stroke-linecap="round" stroke-linejoin="round"/><polyline fill="none" points="217.594716180675,-117.93877194205187 220.09471618068616,-118.60864492311107 221.92484319962733,-120.43877194202274 222.59471618072683,-122.93877194202312 221.92484319966763,-125.4387719420343 220.09471618075597,-127.26889896097546 217.5947161807556,-127.93877194207496 215.09471618074443,-127.26889896101576 213.26458916180326,-125.4387719421041 212.59471618070376,-122.93877194210371 213.26458916176296,-120.43877194209254 215.09471618067462,-118.60864492315137 217.594716180675,-117.93877194205187" stroke="#ffa500" stroke-linecap="round" stroke-linejoin="round"/><polyline fill="none" points="-188.19010021558705,-81.99673878854689 -185.69010021557588,-82.66661176960609 -183.8599731966347,-84.49673878851776 -183.1901002155352,-86.99673878851814 -183.8599731965944,-89.49673878852931 -185.69010021550608,-91.32686580747048 -188.19010021550645,-91.99673878856998 -190.69010021551762,-91.32686580751079 -192.5202272344588,-89.49673878859912 -193.1901002155583,-86.99673878859873 -192.5202272344991,-84.49673878858756 -190.69010021558742,-82.6666117696464 -188.19010021558705,-81.99673878854689" stroke="#00f" stroke-linecap="round" stroke-linejoin="round"/><polyline fill="none" points="63.74640909172622,-3.0322258613242266 66.2464090917374,-3.7020988423834282 68.07653611067857,-5.532225861295098 68.74640909177808,-8.032225861295474 68.07653611071888,-10.532225861306651 66.24640909180721,-12.362352880247828 63.74640909180683,-13.032225861347337 61.246409091795655,-12.362352880288137 59.41628207285448,-10.53222586137647 58.74640909175497,-8.032225861376093 59.41628207281417,-5.532225861364915 61.24640909172584,-3.7020988424237373 63.746409091726214,-3.032225861324227" stroke="#ffa500" stroke-linecap="round" stroke-linejoin="round"/><polyline fill="none" points="235.00994354959943,-115.0811103522592 237.5099435496106,-115.7509833333184 239.34007056855177,-117.58111035223007 240.00994354965127,-120.08111035223045 239.34007056859207,-122.58111035224164 237.5099435496804,-124.41123737118282 235.00994354968003,-125.08111035228234 232.50994354966886,-124.41123737122314 230.6798165307277,-122.58111035231147 230.0099435496282,-120.08111035231109 230.6798165306874,-117.5811103522999 232.50994354959906,-115.75098333335872 235.00994354959943,-115.0811103522592" stroke="#00f" stroke-linecap="round" stroke-linejoin="round"/><polyline fill="none" points="-117.36265370387807,-72.90312081070208 -114.86265370386688,-73.57299379176128 -113.0325266849257,-75.40312081067295 -112.36265370382618,-77.90312081067333 -113.03252668488538,-80.40312081068451 -114.86265370379705,-82.2332478296257 -117.36265370379743,-82.90312081072521 -119.86265370380862,-82.23324782966601 -121.6927807227498,-80.40312081075434 -122.36265370384932,-77.90312081075396 -121.69278072279012,-75.40312081074278 -119.86265370387845,-73.5729937918016 -117.36265370387807,-72.90312081070208" stroke="#00f" stroke-linecap="round" stroke-linejoin="round"/><polyline fill="none" points="3.9988848056908246,8.549179387660889 6.498884805702006,7.879306406601694 8.329011824643189,6.049179387690029 8.998884805742705,3.549179387689652 8.32901182468351,1.0491793876784707 6.498884805771846,-0.7809476312627124 3.998884805771469,-1.4508206123622291 1.4988848057602873,-0.7809476313030354 -0.3312422131808963,1.0491793876086293 -1.001115194280414,3.5491793876090063 -0.33124221322122094,6.049179387620189 1.4988848056904434,7.879306406561373 3.99888480569082,8.54917938766089" stroke="#00f" stroke-linecap="round" stroke-linejoin="round"/><polyline fill="none" points="-92.02688785471236,-64.69944324110915 -89.52688785470117,-65.36931622216834 -87.69676083575999,-67.19944324108 -87.02688785466047,-69.69944324108039 -87.69676083571966,-72.19944324109157 -89.52688785463133,-74.02957026003276 -92.02688785463171,-74.69944324113227 -94.5268878546429,-74.02957026007309 -96.35701487358408,-72.19944324116142 -97.0268878546836,-69.69944324116103 -96.35701487362441,-67.19944324114985 -94.52688785471274,-65.36931622220867 -92.02688785471236,-64.69944324110915" stroke="#ffa500" stroke-linecap="round" stroke-linejoin="round"/><polyline fill="none" points="-52.94995645651648,19.71269423885068 -50.4499564565053,19.04282125779149 -48.619829437564114,17.21269423887983 -47.94995645646459,14.712694238879454 -48.619829437523784,12.21269423886827 -50.449956456435444,10.382567219927083 -52.94995645643582,9.71269423882756 -55.449956456447005,10.382567219886749 -57.280083475388196,12.21269423879841 -57.94995645648772,14.712694238798786 -57.28008347542853,17.21269423880997 -55.44995645651687,19.042821257751157 -52.949956456516496,19.71269423885068" stroke="#ffa500" stroke-linecap="round" stroke-linejoin="round"/><polyline fill="none" points="-91.2463672115751,-47.2730133956127 -88.74636721156392,-47.942886376671886 -86.91624019262274,-49.77301339558355 -86.24636721152321,-52.273013395583924 -86.91624019258239,-54.77301339559511 -88.74636721149405,-56.6031404145363 -91.24636721149443,-57.27301339563582 -93.74636721150561,-56.603140414576636 -95.5764942304468,-54.773013395664975 -96.24636721154633,-52.2730133956646 -95.57649423048714,-49.773013395653415 -93.74636721157549,-47.942886376712224 -91.24636721157512,-47.2730133956127" stroke="#ffa500" stroke-linecap="round" stroke-linejoin="round"/><polyline fill="none" points="-127.71569332846389,-84.21221443957799 -125.2156933284527,-84.88208742063718 -123.3855663095115,-86.71221443954883 -122.71569332841197,-89.2122144395492 -123.38556630947116,-91.71221443956038 -125.21569332838281,-93.54234145850158 -127.7156933283832,-94.21221443960111 -130.2156933283944,-93.54234145854193 -132.0458203473356,-91.71221443963027 -132.71569332843512,-89.21221443962989 -132.04582034737595,-86.7122144396187 -130.21569332846428,-84.88208742067751 -127.7156933284639,-84.21221443957798" stroke="#00f" stroke-linecap="round" stroke-linejoin="round"/><polyline fill="none" points="-129.07245211748113,-45.766993649063124 -126.57245211746995,-46.43686663012231 -124.74232509852875,-48.26699364903397 -124.07245211742922,-50.76699364903435 -124.74232509848841,-53.26699364904554 -126.57245211740006,-55.09712066798674 -129.07245211740045,-55.76699364908627 -131.57245211741164,-55.09712066802709 -133.40257913635284,-53.26699364911543 -134.07245211745237,-50.76699364911505 -133.4025791363932,-48.26699364910386 -131.57245211748153,-46.43686663016266 -129.07245211748116,-45.76699364906313" stroke="#00f" stroke-linecap="round" stroke-linejoin="round"/><polyline fill="none" points="-96.34990996073233,32.804029645173415 -93.84990996072115,32.134156664114236 -92.01978294177995,30.30402964520258 -91.34990996068042,27.804029645202203 -92.0197829417396,25.30402964519101 -93.84990996065126,23.473902626249814 -96.34990996065164,22.80402964515028 -98.84990996066283,23.47390262620946 -100.68003697960403,25.304029645121116 -101.34990996070356,27.804029645121492 -100.68003697964437,30.304029645132683 -98.84990996073272,32.134156664073885 -96.34990996073233,32.80402964517342" stroke="#ffa500" stroke-linecap="round" stroke-linejoin="round"/><polyline fill="none" points="-139.02173419380406,-88.93879854279027 -136.52173419379287,-89.60867152384944 -134.69160717485167,-91.43879854276109 -134.02173419375214,-93.93879854276148 -134.6916071748113,-96.43879854277267 -136.52173419372298,-98.26892556171387 -139.02173419372335,-98.9387985428134 -141.52173419373455,-98.26892556175423 -143.35186121267574,-96.43879854284258 -144.02173419377527,-93.93879854284219 -143.3518612127161,-91.438798542831 -141.52173419380443,-89.6086715238898 -139.02173419380406,-88.93879854279027" stroke="#00f" stroke-linecap="round" stroke-linejoin="round"/><polyline fill="none" points="50.376647257349475,12.56331099679183 52.876647257360666,11.893438015732654 54.706774276301864,10.063310996820999 55.3766472574014,7.563310996820621 54.70677427634222,5.063310996809429 52.87664725743057,3.2331839778682276 50.37664725743019,2.5633109967686893 47.876647257419,3.2331839778278644 46.0465202384778,5.063310996739518 45.37664725737826,7.5633109967398955 46.04652023843743,10.063310996751088 47.876647257349084,11.893438015692292 50.37664725734946,12.56331099679183" stroke="#00f" stroke-linecap="round" stroke-linejoin="round"/><polyline fill="none" points="6.964894343799348,-19.01924580925645 9.464894343810542,-19.689118790315625 11.295021362751745,-21.51924580922728 11.964894343851286,-24.019245809227655 11.295021362792113,-26.51924580923885 9.46489434388046,-28.349372828180055 6.964894343880083,-29.019245809279596 4.464894343868889,-28.349372828220424 2.634767324927685,-26.51924580930877 1.9648943438281434,-24.019245809308394 2.634767324887316,-21.5192458092972 4.464894343798968,-19.689118790355995 6.964894343799346,-19.019245809256454" stroke="#ffa500" stroke-linecap="round" stroke-linejoin="round"/><polyline fill="none" points="-177.34705847571192,-89.18172669369605 -174.84705847570072,-89.85159967475522 -173.01693145675952,-91.68172669366687 -172.34705847566,-94.18172669366726 -173.01693145671916,-96.68172669367846 -174.8470584756308,-98.51185371261967 -177.34705847563117,-99.18172669371921 -179.84705847564237,-98.51185371266004 -181.67718549458357,-96.68172669374839 -182.3470584756831,-94.181726693748 -181.67718549462393,-91.6817266937368 -179.8470584757123,-89.8515996747956 -177.34705847571192,-89.18172669369605" stroke="#ffa500" stroke-linecap="round" stroke-linejoin="round"/><polyline fill="none" points="54.491848777025204,-7.37733812616443 56.9918487770364,-8.0472111072236 58.82197579597761,-9.87733812613525 59.49184877707715,-12.377338126135626 58.82197579601798,-14.877338126146823 56.99184877710633,-16.70746514508803 54.49184877710595,-17.377338126187574 51.99184877709475,-16.707465145128406 50.16172175815354,-14.877338126216756 49.491848777053995,-12.37733812621638 50.16172175811316,-9.877338126205183 51.991848777024806,-8.047211107263973 54.49184877702518,-7.3773381261644255" stroke="#ffa500" stroke-linecap="round" stroke-linejoin="round"/><polyline fill="none" points="-132.41651368784025,-43.97405734582583 -129.91651368782905,-44.64393032688499 -128.08638666888785,-46.47405734579664 -127.41651368778831,-48.974057345797014 -128.08638666884747,-51.47405734580821 -129.9165136877591,-53.304184364749425 -132.41651368775948,-53.974057345848976 -134.91651368777067,-53.30418436478981 -136.74664070671187,-51.474057345878165 -137.41651368781143,-48.97405734587779 -136.74664070675226,-46.47405734586659 -134.91651368784062,-44.64393032692538 -132.41651368784025,-43.97405734582583" stroke="#00f" stroke-linecap="round" stroke-linejoin="round"/><polyline fill="none" points="-77.50247779806462,91.33631070482879 -75.00247779805342,90.66643772376962 -73.17235077911221,88.83631070485796 -72.50247779801266,86.3363107048576 -73.17235077907183,83.8363107048464 -75.00247779798349,82.00618368590519 -77.50247779798386,81.33631070480564 -80.00247779799506,82.0061836858648 -81.83260481693627,83.83631070477645 -82.50247779803583,86.33631070477682 -81.83260481697667,88.83631070478802 -80.00247779806502,90.66643772372923 -77.50247779806463,91.33631070482879" stroke="#ffa500" stroke-linecap="round" stroke-linejoin="round"/><polyline fill="none" points="-2.4971578896393583,7.172273312677284 0.0028421103718416774,6.502400331618121 1.8329691293130563,4.672273312706475 2.50284211041261,2.1722733127060976 1.8329691293534482,-0.32772668730510235 0.002842110441802159,-2.1578537062463172 -2.497157889558575,-2.827726687345871 -4.997157889569775,-2.1578537062867094 -6.827284908510991,-0.3277266873750635 -7.497157889610545,2.1722733126253138 -6.827284908551384,4.672273312636515 -4.997157889639738,6.50240033157773 -2.4971578896393614,7.1722733126772855" stroke="#ffa500" stroke-linecap="round" stroke-linejoin="round"/><polyline fill="none" points="225.58135340493214,-112.84989522290726 228.08135340494334,-113.51976820396642 229.91148042388457,-115.34989522287806 230.58135340498413,-117.84989522287844 229.91148042392496,-120.34989522288964 228.08135340501332,-122.18002224183086 225.58135340501295,-122.84989522293041 223.08135340500175,-122.18002224187126 221.25122638606052,-120.34989522295962 220.58135340496096,-117.84989522295923 221.25122638602014,-115.34989522294804 223.08135340493178,-113.51976820400682 225.58135340493214,-112.84989522290726" stroke="#ffa500" stroke-linecap="round" stroke-linejoin="round"/><polyline fill="none" points="-106.67266419954645,-58.18365001598267 -104.17266419953525,-58.85352299704183 -102.34253718059404,-60.683650015953475 -101.67266419949448,-63.18365001595385 -102.34253718055363,-65.68365001596506 -104.17266419946527,-67.51377703490628 -106.67266419946566,-68.18365001600584 -109.17266419947686,-67.51377703494668 -111.00279121841808,-65.68365001603505 -111.67266419951764,-63.18365001603467 -111.00279121845848,-60.68365001602346 -109.17266419954684,-58.853522997082244 -106.67266419954646,-58.183650015982685" stroke="#ffa500" stroke-linecap="round" stroke-linejoin="round"/><polyline fill="none" points="-54.638692863294196,37.84647899765972 -52.13869286328299,37.176606016600566 -50.30856584434177,35.346478997688926 -49.63869286324221,32.84647899768855 -50.30856584430137,30.346478997677345 -52.13869286321301,28.51635197873612 -54.638692863213386,27.84647899763656 -57.13869286322459,28.516351978695713 -58.96881988216581,30.346478997607356 -59.638692863265376,32.84647899760773 -58.96881988220622,35.34647899761894 -57.13869286329458,37.176606016560164 -54.6386928632942,37.84647899765973" stroke="#ffa500" stroke-linecap="round" stroke-linejoin="round"/><polyline fill="none" points="-96.82553721633337,-21.986402402913114 -94.32553721632218,-22.656275383972268 -92.49541019738095,-24.48640240288391 -91.82553721628139,-26.986402402884288 -92.49541019734055,-29.486402402895493 -94.32553721625219,-31.316529421836716 -96.82553721625257,-31.98640240293628 -99.32553721626378,-31.316529421877128 -101.15566423520501,-29.48640240296549 -101.82553721630457,-26.986402402965112 -101.15566423524541,-24.486402402953907 -99.32553721633377,-22.65627538401268 -96.82553721633339,-21.986402402913114" stroke="#ffa500" stroke-linecap="round" stroke-linejoin="round"/><polyline fill="none" points="58.01773782597401,7.152928798397098 60.517737825985215,6.483055817337947 62.34786484492644,4.652928798426307 63.01773782602601,2.1529287984259295 62.34786484496686,-0.34707120158527704 60.51773782605522,-2.1771982205265035 58.01773782605484,-2.84707120162607 55.517737826043636,-2.17719822056692 53.68761080710241,-0.3470712016552806 53.01773782600284,2.1529287983450964 53.68761080706199,4.652928798356303 55.51773782597363,6.48305581729753 58.01773782597401,7.152928798397099" stroke="#ffa500" stroke-linecap="round" stroke-linejoin="round"/><polyline fill="none" points="24.915359567861795,-19.363460133453287 27.415359567873004,-20.033333114512438 29.24548658681423,-21.863460133424077 29.9153595679138,-24.363460133424454 29.24548658685465,-26.863460133435662 27.41535956794301,-28.693587152376892 24.915359567942634,-29.363460133476462 22.415359567931425,-28.693587152417315 20.585232548990195,-26.863460133505676 19.915359567890626,-24.3634601335053 20.585232548949772,-21.86346013349409 22.41535956786141,-20.03333311455286 24.91535956786179,-19.36346013345329" stroke="#00f" stroke-linecap="round" stroke-linejoin="round"/><polyline fill="none" points="-114.68647833878552,28.780095560088107 -112.18647833877431,28.11022257902896 -110.35635131983308,26.280095560117324 -109.68647833873351,23.780095560116948 -110.35635131979265,21.28009556010574 -112.18647833870429,19.44996854116451 -114.68647833870467,18.780095560064936 -117.18647833871589,19.449968541124083 -119.01660535765711,21.28009556003572 -119.68647833875669,23.780095560036095 -119.01660535769754,26.280095560047304 -117.1864783387859,28.110222578988537 -114.68647833878552,28.78009556008811" stroke="#00f" stroke-linecap="round" stroke-linejoin="round"/><polyline fill="none" points="0.05160997261608846,51.04171211720001 2.5516099726272987,50.37183913614086 4.381736991568531,48.541712117229224 5.051609972668105,46.04171211722885 4.381736991608961,43.541712117217635 2.5516099726973254,41.7115850982764 0.051609972696948336,41.04171211717683 -2.4483900273142623,41.71158509823597 -4.278517046255496,43.541712117147604 -4.948390027355072,46.04171211714798 -4.278517046295929,48.54171211715919 -2.448390027384294,50.37183913610043 0.051609972616083244,51.0417121172" stroke="#ffa500" stroke-linecap="round" stroke-linejoin="round"/><polyline fill="none" points="0.4545351870960738,57.62284146500669 2.954535187107285,56.952968483947544 4.7846622060485196,55.12284146503591 5.454535187148096,52.622841465035535 4.784662206088954,50.12284146502432 2.9545351871773193,48.29271444608309 0.4545351871769423,47.62284146498351 -2.0454648128342696,48.29271444604265 -3.8755918317755054,50.122841464954284 -4.545464812875084,52.62284146495466 -3.8755918318159432,55.12284146496587 -2.045464812904309,56.95296848390711 0.4545351870960679,57.62284146500669" stroke="#ffa500" stroke-linecap="round" stroke-linejoin="round"/><polyline fill="none" points="225.83992663571328,-107.05446403062604 228.3399266357245,-107.72433701168518 230.17005365466574,-109.55446403059682 230.83992663576532,-112.0544640305972 230.17005365470618,-114.55446403060841 228.33992663579454,-116.38459104954966 225.83992663579417,-117.05446403064923 223.33992663578294,-116.38459104959009 221.50979961684172,-114.55446403067845 220.83992663574213,-112.05446403067806 221.50979961680127,-109.55446403066685 223.3399266357129,-107.72433701172561 225.83992663571328,-107.05446403062602" stroke="#ffa500" stroke-linecap="round" stroke-linejoin="round"/><polyline fill="none" points="-50.94002560315744,31.75690728524202 -48.440025603146225,31.08703430418288 -46.609898584204984,29.256907285271247 -45.940025603105404,26.75690728527087 -46.60989858416454,24.256907285259658 -48.44002560307617,22.426780266318417 -50.94002560307655,21.756907285218833 -53.44002560308776,22.42678026627797 -55.270152622029,24.2569072851896 -55.94002560312858,26.75690728518998 -55.270152622069446,29.256907285201194 -53.440025603157814,31.087034304142435 -50.94002560315744,31.75690728524202" stroke="#ffa500" stroke-linecap="round" stroke-linejoin="round"/><polyline fill="none" points="62.90650488245031,14.844886164044219 65.40650488246152,14.175013182985083 67.23663190140276,12.344886164073452 67.90650488250235,9.844886164073076 67.23663190144322,7.34488616406186 65.40650488253159,5.5147591451206175 62.906504882531216,4.844886164021032 60.40650488252,5.514759145080166 58.576377863578756,7.344886163991797 57.90650488247917,9.844886163992173 58.576377863538305,12.34488616400339 60.40650488244994,14.175013182944634 62.906504882450314,14.84488616404422" stroke="#ffa500" stroke-linecap="round" stroke-linejoin="round"/><polyline fill="none" points="221.91262376820404,-99.3385351884642 224.41262376821527,-100.00840816952334 226.24275078715652,-101.83853518843496 226.9126237682561,-104.33853518843534 226.24275078719697,-106.83853518844656 224.41262376828533,-108.6686622073878 221.91262376828496,-109.33853518848738 219.41262376827373,-108.66866220742826 217.58249674933248,-106.83853518851663 216.9126237682329,-104.33853518851625 217.58249674929203,-101.83853518850503 219.41262376820367,-100.0084081695638 221.91262376820404,-99.3385351884642" stroke="#ffa500" stroke-linecap="round" stroke-linejoin="round"/><polyline fill="none" points="66.5097170473835,22.5402008625561 69.00971704739472,21.87032788149697 70.83984406633596,20.04020086258534 71.50971704743554,17.540200862584964 70.83984406637641,15.040200862573746 69.00971704746479,13.2100738436325 66.50971704746442,12.54020086253291 64.00971704745321,13.210073843592038 62.17959002851196,15.040200862503665 61.509717047412366,17.540200862504044 62.179590028471495,20.040200862515263 64.00971704738312,21.87032788145651 66.5097170473835,22.540200862556105" stroke="#ffa500" stroke-linecap="round" stroke-linejoin="round"/><polyline fill="none" points="82.38935341909993,8.174925757085076 84.88935341911115,7.505052776025948 86.7194804380524,5.6749257571143215 87.38935341915199,3.174925757113945 86.71948043809286,0.6749257571027254 84.88935341918123,-1.1552012618385237 82.38935341918085,-1.825074242938117 79.88935341916962,-1.15520126187899 78.05922640022837,0.6749257570326361 77.38935341912878,3.1749257570330127 78.05922640018791,5.674925757044233 79.88935341909954,7.505052775985483 82.3893534190999,8.174925757085077" stroke="#ffa500" stroke-linecap="round" stroke-linejoin="round"/><polyline fill="none" points="-133.73983452845422,-78.27603638526033 -131.239834528443,-78.94590936631946 -129.40970750950174,-80.77603638523108 -128.73983452840216,-83.27603638523146 -129.40970750946127,-85.77603638524269 -131.23983452837288,-87.60616340418395 -133.73983452837325,-88.27603638528355 -136.23983452838448,-87.60616340422442 -138.06996154732573,-85.77603638531279 -138.73983452842532,-83.27603638531241 -138.0699615473662,-80.77603638530118 -136.2398345284546,-78.94590936635993 -133.73983452845422,-78.27603638526033" stroke="#ffa500" stroke-linecap="round" stroke-linejoin="round"/><polyline fill="none" points="75.95828361096257,14.242327194453868 78.4582836109738,13.572454213394744 80.28841062991505,11.74232719448312 80.95828361101465,9.242327194482744 80.28841062995552,6.742327194471521 78.4582836110439,4.912200175530266 75.95828361104351,4.242327194430667 73.45828361103229,4.912200175489788 71.62815659209103,6.742327194401412 70.95828361099143,9.242327194401788 71.62815659205054,11.742327194413011 73.45828361096217,13.572454213354266 75.95828361096255,14.242327194453868" stroke="#ffa500" stroke-linecap="round" stroke-linejoin="round"/><polyline fill="none" points="-143.14510719713175,-46.43265500926846 -140.64510719712052,-47.10252799032758 -138.81498017817927,-48.932655009239205 -138.14510719707965,-51.43265500923958 -138.81498017813877,-53.93265500925081 -140.64510719705038,-55.76278202819206 -143.14510719705075,-56.432655009291665 -145.64510719706198,-55.76278202823254 -147.47523421600323,-53.93265500932092 -148.14510719710285,-51.43265500932054 -147.47523421604373,-48.932655009309315 -145.64510719713212,-47.10252799036806 -143.14510719713175,-46.43265500926846" stroke="#008000" stroke-linecap="round" stroke-linejoin="round"/><polyline fill="none" points="-105.30073545703368,41.09643382437899 -102.80073545702245,40.42656084331987 -100.9706084380812,38.59643382440825 -100.3007354569816,36.096433824407875 -100.97060843804071,33.59643382439665 -102.80073545695234,31.76630680545539 -105.30073545695271,31.096433824355785 -107.80073545696393,31.766306805414903 -109.63086247590519,33.596433824326525 -110.30073545700479,36.0964338243269 -109.63086247594568,38.59643382433813 -107.80073545703405,40.42656084327939 -105.30073545703367,41.096433824379" stroke="#ffa500" stroke-linecap="round" stroke-linejoin="round"/><polyline fill="none" points="-0.49765870092570286,17.773012426020703 2.002341299085524,17.103139444961588 3.8324683180267853,15.273012426049968 4.5023412991263925,12.773012426049592 3.8324683180672774,10.273012426038365 2.002341299155658,8.442885407097103 -0.49765870084471864,7.773012425997495 -2.997658700855945,8.44288540705661 -4.827785719797207,10.273012425968227 -5.497658700896816,12.773012425968604 -4.827785719837702,15.273012425979832 -2.9976587009260838,17.103139444921094 -0.49765870092570674,17.773012426020703" stroke="#ffa500" stroke-linecap="round" stroke-linejoin="round"/><polyline fill="none" points="-90.65782073259868,11.80739084208821 -88.15782073258745,11.137517861029098 -86.32769371364618,9.30739084211748 -85.65782073254657,6.807390842117103 -86.32769371360568,4.307390842105875 -88.1578207325173,2.47726382316461 -90.65782073251768,1.807390842064999 -93.1578207325289,2.477263823124111 -94.98794775147017,4.307390842035728 -95.65782073256979,6.807390842036105 -94.98794775151067,9.307390842047333 -93.15782073259906,11.137517860988599 -90.65782073259868,11.80739084208821" stroke="#ffa500" stroke-linecap="round" stroke-linejoin="round"/><polyline fill="none" points="-169.2952208895667,-11.315559625150353 -166.79522088955548,-11.985432606209464 -164.96509387061423,-13.81555962512108 -164.2952208895146,-16.31555962512146 -164.96509387057372,-18.81555962513269 -166.79522088948534,-20.645686644073955 -169.2952208894857,-21.31555962517357 -171.79522088949693,-20.64568664411446 -173.6253479084382,-18.815559625202845 -174.2952208895378,-16.315559625202468 -173.6253479084787,-13.815559625191238 -171.79522088956708,-11.98543260624997 -169.2952208895667,-11.315559625150355" stroke="#00f" stroke-linecap="round" stroke-linejoin="round"/><polyline fill="none" points="-149.838805905001,-15.622316736557504 -147.33880590498978,-16.292189717616612 -145.50867888604853,-18.122316736528226 -144.8388059049489,-20.622316736528603 -145.50867888600803,-23.122316736539833 -147.33880590491964,-24.952443755481102 -149.83880590492,-25.622316736580718 -152.33880590493123,-24.95244375552161 -154.16893292387252,-23.122316736609996 -154.83880590497213,-20.62231673660962 -154.16893292391302,-18.122316736598385 -152.3388059050014,-16.292189717657116 -149.83880590500104,-15.622316736557499" stroke="#00f" stroke-linecap="round" stroke-linejoin="round"/><polyline fill="none" points="-132.1314832687651,-2.271241102981241 -129.63148326875387,-2.9411140840403474 -127.8013562498126,-4.7712411029519615 -127.13148326871298,-7.271241102952338 -127.80135624977208,-9.77124110296357 -129.6314832686837,-11.60136812190484 -132.13148326868406,-12.27124110300446 -134.6314832686953,-11.601368121945354 -136.46161028763657,-9.771241103033741 -137.1314832687362,-7.271241103033365 -136.46161028767708,-4.771241103022131 -134.63148326876546,-2.9411140840808585 -132.1314832687651,-2.271241102981238" stroke="#ffa500" stroke-linecap="round" stroke-linejoin="round"/><polyline fill="none" points="-73.58742192527053,51.54646286848584 -71.0874219252593,50.87658988742673 -69.25729490631804,49.04646286851512 -68.58742192521842,46.546462868514745 -69.25729490627752,44.04646286850351 -71.08742192518913,42.216335849562235 -73.58742192518952,41.54646286846261 -76.08742192520076,42.21633584952171 -77.91754894414203,44.04646286843332 -78.58742192524164,46.5464628684337 -77.91754894418254,49.046462868444934 -76.08742192527093,50.87658988738621 -73.58742192527055,51.54646286848583" stroke="#ffa500" stroke-linecap="round" stroke-linejoin="round"/><polyline fill="none" points="-18.92560775241365,62.79180085813501 -16.425607752402417,62.12192787707591 -14.595480733461141,60.2918008581643 -13.925607752361518,57.791800858163924 -14.595480733420619,55.29180085815269 -16.42560775233223,53.461673839211414 -18.925607752332606,52.79180085811179 -21.425607752343844,53.46167383917089 -23.25573477128512,55.2918008580825 -23.925607752384746,57.79180085808288 -23.255734771325645,60.29180085809411 -21.425607752414034,62.12192787703539 -18.925607752413658,62.79180085813501" stroke="#ffa500" stroke-linecap="round" stroke-linejoin="round"/><polyline fill="none" points="-70.16103245274519,-20.192863991316923 -67.66103245273395,-20.862736972376023 -65.83090543379267,-22.692863991287634 -65.16103245269304,-25.19286399128801 -65.83090543375214,-27.692863991299248 -67.66103245266375,-29.522991010240528 -70.16103245266413,-30.192863991340154 -72.66103245267537,-29.522991010281057 -74.49115947161665,-27.692863991369446 -75.16103245271628,-25.19286399136907 -74.49115947165718,-22.692863991357832 -72.66103245274557,-20.862736972416553 -70.16103245274519,-20.192863991316926" stroke="#00f" stroke-linecap="round" stroke-linejoin="round"/><polyline fill="none" points="-137.5032521633125,-53.0278302266703 -135.00325216330128,-53.6977032077294 -133.17312514436,-55.52783022664101 -132.50325216326038,-58.027830226641385 -133.17312514431947,-60.527830226652625 -135.00325216323108,-62.35795724559391 -137.50325216323145,-63.02783022669354 -140.00325216324268,-62.357957245634445 -141.83337918218396,-60.527830226722834 -142.5032521632836,-58.02783022672246 -141.83337918222452,-55.52783022671122 -140.0032521633129,-53.69770320776993 -137.50325216331254,-53.027830226670304" stroke="#00f" stroke-linecap="round" stroke-linejoin="round"/><polyline fill="none" points="-83.20135249508841,103.29881774108665 -80.70135249507717,102.62894476002755 -78.87122547613589,100.79881774111594 -78.20135249503626,98.29881774111556 -78.87122547609536,95.79881774110432 -80.70135249500697,93.96869072216303 -83.20135249500736,93.2988177410634 -85.7013524950186,93.9686907221225 -87.53147951395988,95.79881774103411 -88.20135249505951,98.2988177410345 -87.53147951400042,100.79881774104574 -85.70135249508881,102.62894475998702 -83.20135249508843,103.29881774108665" stroke="#ffa500" stroke-linecap="round" stroke-linejoin="round"/><polyline fill="none" points="-127.46066295477992,-2.259330288753322 -124.96066295476868,-2.9292032698124144 -123.1305359358274,-4.759330288724021 -122.46066295472777,-7.259330288724398 -123.13053593578685,-9.759330288735638 -124.96066295469846,-11.589457307676923 -127.46066295469885,-12.259330288776559 -129.96066295471007,-11.589457307717467 -131.79078997365136,-9.759330288805861 -132.460662954751,-7.259330288805485 -131.79078997369191,-4.759330288794244 -129.9606629547803,-2.929203269852957 -127.46066295477992,-2.259330288753321" stroke="#ffa500" stroke-linecap="round" stroke-linejoin="round"/><polyline fill="none" points="-133.37434437788716,-59.20652550526866 -130.8743443778759,-59.87639848632775 -129.04421735893462,-61.706525505239355 -128.37434437783497,-64.20652550523974 -129.04421735889406,-66.70652550525098 -130.87434437780567,-68.53665252419226 -133.37434437780604,-69.2065255052919 -135.8743443778173,-68.53665252423282 -137.70447139675858,-66.70652550532122 -138.37434437785822,-64.20652550532085 -137.70447139679914,-61.706525505309614 -135.87434437788752,-59.87639848636832 -133.37434437788716,-59.20652550526869" stroke="#f00" stroke-linecap="round" stroke-linejoin="round"/><polyline fill="none" points="-52.55465204877642,-34.928445736967724 -50.05465204876518,-35.59831871802681 -48.22452502982389,-37.428445736938414 -47.55465204872425,-39.92844573693879 -48.22452502978334,-42.42844573695003 -50.05465204869494,-44.25857275589132 -52.55465204869532,-44.928445736990966 -55.05465204870656,-44.25857275593188 -56.88477906764785,-42.428445737020276 -57.55465204874749,-39.9284457370199 -56.884779067688406,-37.42844573700866 -55.0546520487768,-35.59831871806737 -52.554652048776425,-34.928445736967724" stroke="#008000" stroke-linecap="round" stroke-linejoin="round"/><polyline fill="none" points="-109.9377106397588,51.13889201779861 -107.43771063974756,50.469019036739525 -105.60758362080627,48.63889201782792 -104.93771063970662,46.138892017827544 -105.60758362076571,43.638892017816296 -107.4377106396773,41.808764998875006 -109.93771063967769,41.13889201777536 -112.43771063968893,41.80876499883445 -114.26783765863023,43.63889201774605 -114.93771063972987,46.13889201774643 -114.26783765867079,48.63889201775768 -112.43771063975919,50.46901903669897 -109.9377106397588,51.13889201779861" stroke="#ffa500" stroke-linecap="round" stroke-linejoin="round"/><polyline fill="none" points="-113.70083689284594,43.16071148724279 -111.2008368928347,42.490838506183714 -109.3707098738934,40.66071148727212 -108.70083689279376,38.16071148727174 -109.37070987385285,35.66071148726049 -111.20083689276444,33.830584468319195 -113.70083689276481,33.16071148721955 -116.20083689277605,33.83058446827863 -118.03096391171735,35.66071148719023 -118.700836892817,38.1607114871906 -118.03096391175791,40.66071148720185 -116.20083689284631,42.49083850614315 -113.70083689284593,43.1607114872428" stroke="#ffa500" stroke-linecap="round" stroke-linejoin="round"/><polyline fill="none" points="-83.81084225469964,91.32947839642871 -81.3108422546884,90.65960541536963 -79.4807152357471,88.82947839645803 -78.81084225464745,86.32947839645765 -79.48071523570654,83.8294783964464 -81.31084225461814,81.9993513775051 -83.81084225461852,81.32947839640546 -86.31084225462976,81.99935137746454 -88.14096927357106,83.82947839637613 -88.8108422546707,86.32947839637652 -88.14096927361163,88.82947839638777 -86.31084225470003,90.65960541532907 -83.81084225469965,91.32947839642871" stroke="#00f" stroke-linecap="round" stroke-linejoin="round"/><polyline fill="none" points="-139.14154036084918,17.3334550889167 -136.64154036083792,16.66358210785762 -134.8114133418966,14.833455088946025 -134.14154036079697,12.333455088945648 -134.81141334185605,9.833455088934398 -136.64154036076766,8.003328069993097 -139.14154036076803,7.333455088893444 -141.6415403607793,8.00332806995252 -143.4716673797206,9.833455088864117 -144.14154036082024,12.333455088864493 -143.47166737976116,14.833455088875743 -141.64154036084958,16.663582107817046 -139.1415403608492,17.3334550889167" stroke="#00f" stroke-linecap="round" stroke-linejoin="round"/><polyline fill="none" points="-82.0043205133196,49.369735206691075 -79.50432051330834,48.699862225632 -77.67419349436705,46.86973520672041 -77.00432051326739,44.36973520672003 -77.67419349432646,41.86973520670878 -79.50432051323806,40.03960818776748 -82.00432051323844,39.36973520666782 -84.5043205132497,40.03960818772689 -86.33444753219099,41.86973520663849 -87.00432051329065,44.369735206638865 -86.33444753223158,46.86973520665011 -84.50432051331998,48.69986222559142 -82.0043205133196,49.369735206691075" stroke="#ffa500" stroke-linecap="round" stroke-linejoin="round"/><polyline fill="none" points="1.3775601656588816,-21.72919829766382 3.8775601656701326,-22.399071278722893 5.707687184611437,-24.229198297634486 6.3775601657110945,-26.729198297634863 5.7076871846520225,-29.229198297646114 3.8775601657404284,-31.05932531658742 1.3775601657400518,-31.729198297687077 -1.1224398342712,-31.059325316628005 -2.9525668532125056,-29.22919829771641 -3.6224398343121638,-26.729198297716035 -2.952566853253093,-24.229198297704784 -1.1224398343414999,-22.39907127876348 1.3775601656588767,-21.72919829766382" stroke="#00f" stroke-linecap="round" stroke-linejoin="round"/><polyline fill="none" points="-128.03441332676655,-44.318629024944734 -125.5344133267553,-44.988502006003806 -123.70428630781399,-46.818629024915396 -123.03441332671433,-49.31862902491577 -123.7042863077734,-51.81862902492703 -125.534413326685,-53.64875604386833 -128.03441332668538,-54.31862902496799 -130.53441332669664,-53.64875604390892 -132.36454034563795,-51.81862902499733 -133.03441332673762,-49.31862902499695 -132.36454034567856,-46.8186290249857 -130.53441332676698,-44.988502006044385 -128.0344133267666,-44.31862902494472" stroke="#ffa500" stroke-linecap="round" stroke-linejoin="round"/><polyline fill="none" points="-157.88896970246614,9.935682816445592 -155.3889697024549,9.265809835386523 -153.55884268351357,7.435682816474932 -152.8889697024139,4.935682816474555 -153.55884268347296,2.435682816463301 -155.38896970238454,0.6055557975219907 -157.8889697023849,-0.0643171835776728 -160.38896970239617,0.6055557974813938 -162.21909672133748,2.435682816392985 -162.88896970243715,4.935682816393362 -162.2190967213781,7.435682816404617 -160.3889697024665,9.265809835345928 -157.88896970246614,9.935682816445594" stroke="#ffa500" stroke-linecap="round" stroke-linejoin="round"/><polyline fill="none" points="-154.55338187393767,-63.383813788090436 -152.0533818739264,-64.05368676914951 -150.2232548549851,-65.8838137880611 -149.55338187388543,-68.38381378806149 -150.22325485494449,-70.88381378807274 -152.05338187385607,-72.71394080701405 -154.55338187385644,-73.38381378811373 -157.0533818738677,-72.71394080705467 -158.883508892809,-70.88381378814307 -159.55338187390868,-68.38381378814269 -158.88350889284962,-65.88381378813143 -157.05338187393804,-64.05368676919012 -154.55338187393767,-63.38381378809046" stroke="#ffa500" stroke-linecap="round" stroke-linejoin="round"/><polyline fill="none" points="-143.357457682649,-65.08039094790703 -140.85745768263774,-65.75026392896609 -139.02733066369643,-67.58039094787769 -138.35745768259676,-70.08039094787807 -139.02733066365582,-72.58039094788933 -140.8574576825674,-74.41051796683064 -143.35745768256777,-75.08039094793031 -145.85745768257902,-74.41051796687125 -147.68758470152034,-72.58039094795967 -148.35745768262,-70.08039094795929 -147.68758470156095,-67.58039094794803 -145.85745768264937,-65.75026392900672 -143.357457682649,-65.08039094790705" stroke="#00f" stroke-linecap="round" stroke-linejoin="round"/><polyline fill="none" points="-100.91243923322861,41.667260721223116 -98.41243923321736,40.99738774016406 -96.58231221427604,39.16726072125247 -95.91243923317637,36.66726072125209 -96.58231221423543,34.16726072124083 -98.41243923314701,32.33713370229951 -100.9124392331474,31.66726072119984 -103.41243923315865,32.337133702258896 -105.24256625209996,34.167260721170486 -105.91243923319963,36.66726072117086 -105.24256625214058,39.167260721182124 -103.412439233229,40.99738774012344 -100.91243923322861,41.667260721223116" stroke="#ffa500" stroke-linecap="round" stroke-linejoin="round"/><polyline fill="none" points="-144.65081132822613,-82.72759553392777 -142.15081132821487,-83.39746851498683 -140.32068430927356,-85.22759553389841 -139.6508113281739,-87.72759553389879 -140.32068430923294,-90.22759553391005 -142.15081132814453,-92.05772255285137 -144.6508113281449,-92.72759553395105 -147.15081132815615,-92.05772255289199 -148.98093834709746,-90.2275955339804 -149.65081132819714,-87.72759553398002 -148.98093834713808,-85.22759553396877 -147.1508113282265,-83.39746851502744 -144.65081132822613,-82.72759553392777" stroke="#ffa500" stroke-linecap="round" stroke-linejoin="round"/><polyline fill="none" points="52.59701454838063,22.169056278907615 55.09701454839189,21.49918329784856 56.92714156733321,19.669056278936974 57.59701454843289,17.169056278936598 56.92714156737383,14.669056278925336 55.09701454846225,12.838929259984013 52.59701454846187,12.169056278884335 50.09701454845061,12.83892925994339 48.26688752950928,14.669056278854974 47.597014548409604,17.16905627885535 48.266887529468654,19.669056278866613 50.09701454838024,21.499183297807935 52.59701454838061,22.169056278907615" stroke="#ffa500" stroke-linecap="round" stroke-linejoin="round"/><polyline fill="none" points="-94.7466321801032,22.72919537567577 -92.24663218009194,22.059322394616714 -90.41650516115061,20.22919537570513 -89.74663218005094,17.729195375704755 -90.41650516111,15.229195375693493 -92.24663218002158,13.399068356752169 -94.74663218002196,12.72919537565249 -97.24663218003323,13.399068356711542 -99.07675919897456,15.229195375623124 -99.74663218007424,17.7291953756235 -99.07675919901519,20.229195375634763 -97.2466321801036,22.05932239457609 -94.74663218010322,22.729195375675772" stroke="#00f" stroke-linecap="round" stroke-linejoin="round"/><polyline fill="none" points="-126.22394622169027,-28.719274682390626 -123.723946221679,-29.389147663449677 -121.89381920273767,-31.21927468236126 -121.22394622163799,-33.719274682361636 -121.89381920269703,-36.2192746823729 -123.72394622160861,-38.049401701314224 -126.223946221609,-38.719274682413904 -128.72394622162025,-38.04940170135485 -130.5540732405616,-36.21927468244327 -131.22394622166127,-33.719274682442894 -130.5540732406022,-31.219274682431628 -128.72394622169062,-29.3891476634903 -126.22394622169024,-28.719274682390616" stroke="#00f" stroke-linecap="round" stroke-linejoin="round"/><polyline fill="none" points="-136.95788023812463,-49.538430863183926 -134.45788023811338,-50.20830384424298 -132.62775321917204,-52.03843086315456 -131.95788023807236,-54.538430863154936 -132.62775321913142,-57.0384308631662 -134.457880238043,-58.868557882107524 -136.95788023804337,-59.53843086320721 -139.45788023805463,-58.86855788214816 -141.28800725699597,-57.03843086323658 -141.95788023809564,-54.5384308632362 -141.28800725703658,-52.03843086322493 -139.457880238125,-50.2083038442836 -136.95788023812463,-49.53843086318391" stroke="#00f" stroke-linecap="round" stroke-linejoin="round"/><polyline fill="none" points="-88.15548193234635,104.41391442010524 -85.65548193233508,103.7440414390462 -83.82535491339375,101.91391442013462 -83.15548193229407,99.41391442013423 -83.82535491335311,96.91391442012296 -85.65548193226469,95.08378740118164 -88.15548193226508,94.41391442008195 -90.65548193227634,95.083787401141 -92.48560895121767,96.91391442005258 -93.15548193231736,99.41391442005296 -92.48560895125831,101.91391442006423 -90.65548193234673,103.74404143900556 -88.15548193234635,104.41391442010524" stroke="#ffa500" stroke-linecap="round" stroke-linejoin="round"/><polyline fill="none" points="-179.51641122635576,-67.56713210952438 -177.0164112263445,-68.23700509058342 -175.18628420740316,-70.067132109495 -174.51641122630346,-72.56713210949539 -175.18628420736252,-75.06713210950666 -177.0164112262741,-76.897259128448 -179.51641122627447,-77.56713210954769 -182.01641122628573,-76.89725912848864 -183.84653824522707,-75.06713210957706 -184.51641122632677,-72.56713210957668 -183.84653824526774,-70.0671321095654 -182.01641122635615,-68.23700509062407 -179.51641122635579,-67.56713210952438" stroke="#ffa500" stroke-linecap="round" stroke-linejoin="round"/><polyline fill="none" points="-42.5742853855584,63.465161473103954 -40.07428538554713,62.79528849204491 -38.244158366605795,60.965161473133335 -37.5742853855061,58.46516147313296 -38.244158366565145,55.96516147312169 -40.07428538547672,54.13503445418036 -42.5742853854771,53.46516147308066 -45.074285385488366,54.135034454139706 -46.904412404429706,55.96516147305128 -47.5742853855294,58.46516147305166 -46.904412404470364,60.96516147306293 -45.07428538555879,62.79528849200427 -42.57428538555841,63.46516147310396" stroke="#ffa500" stroke-linecap="round" stroke-linejoin="round"/><polyline fill="none" points="-93.38340308880585,101.52750787686887 -90.88340308879458,100.85763489580982 -89.05327606985324,99.02750787689826 -88.38340308875354,96.52750787689787 -89.05327606981258,94.0275078768866 -90.88340308872415,92.19738085794526 -93.38340308872453,91.52750787684556 -95.8834030887358,92.1973808579046 -97.71353010767714,94.02750787681617 -98.38340308877684,96.52750787681656 -97.7135301077178,99.02750787682783 -95.88340308880623,100.85763489576917 -93.38340308880585,101.52750787686887" stroke="#ffa500" stroke-linecap="round" stroke-linejoin="round"/><polyline fill="none" points="-89.48161635185886,-20.295699380762038 -86.98161635184759,-20.965572361821074 -85.15148933290625,-22.79569938073265 -84.48161635180655,-25.295699380733026 -85.15148933286558,-27.7956993807443 -86.98161635177715,-29.62582639968564 -89.48161635177753,-30.29569938078534 -91.9816163517888,-29.625826399726304 -93.81174337073014,-27.79569938081473 -94.48161635182984,-25.295699380814355 -93.81174337077081,-22.795699380803082 -91.98161635185924,-20.96557236186174 -89.48161635185886,-20.295699380762038" stroke="#00f" stroke-linecap="round" stroke-linejoin="round"/><polyline fill="none" points="-172.06636659326117,-82.70299488868098 -169.56636659324988,-83.37286786974 -167.73623957430854,-85.20299488865157 -167.06636659320884,-87.70299488865196 -167.73623957426787,-90.20299488866323 -169.56636659317945,-92.03312190760457 -172.06636659317982,-92.70299488870427 -174.5663665931911,-92.03312190764524 -176.39649361213245,-90.20299488873367 -177.06636659323215,-87.70299488873329 -176.39649361217312,-85.20299488872202 -174.56636659326153,-83.37286786978068 -172.06636659326117,-82.70299488868098" stroke="#00f" stroke-linecap="round" stroke-linejoin="round"/><polyline fill="none" points="-119.86010545513325,-78.36351185304432 -117.36010545512198,-79.03338483410334 -115.52997843618064,-80.86351185301491 -114.86010545508094,-83.3635118530153 -115.52997843613997,-85.86351185302657 -117.36010545505154,-87.6936388719679 -119.86010545505192,-88.3635118530676 -122.3601054550632,-87.69363887200858 -124.19023247400455,-85.86351185309701 -124.86010545510425,-83.36351185309663 -124.19023247404522,-80.86351185308534 -122.36010545513365,-79.03338483414399 -119.86010545513327,-78.36351185304429" stroke="#ffa500" stroke-linecap="round" stroke-linejoin="round"/><polyline fill="none" points="-109.39444712510702,35.450059287427194 -106.89444712509574,34.780186306368165 -105.06432010615438,32.9500592874566 -104.39444712505468,30.45005928745622 -105.06432010611371,27.950059287444944 -106.89444712502528,26.119932268503597 -109.39444712502566,25.45005928740389 -111.89444712503695,26.119932268462918 -113.7245741439783,27.950059287374486 -114.39444712507802,30.450059287374863 -113.72457414401899,32.95005928738614 -111.89444712510742,34.78018630632749 -109.39444712510704,35.450059287427194" stroke="#ffa500" stroke-linecap="round" stroke-linejoin="round"/><polyline fill="none" points="-94.12394149696016,92.86743401157202 -91.62394149694887,92.19756103051299 -89.79381447800752,90.36743401160142 -89.1239414969078,87.86743401160103 -89.79381447796683,85.36743401158975 -91.6239414968784,83.5373069926484 -94.12394149687879,82.86743401154868 -96.62394149689007,83.53730699260771 -98.45406851583142,85.36743401151928 -99.12394149693114,87.86743401151966 -98.45406851587211,90.36743401153095 -96.62394149696054,92.1975610304723 -94.12394149696016,92.86743401157202" stroke="#ffa500" stroke-linecap="round" stroke-linejoin="round"/><polyline fill="none" points="-106.0539773561228,25.995859717657428 -103.55397735611152,25.325986736598402 -101.72385033717016,23.495859717686834 -101.05397735607045,20.995859717686457 -101.72385033712948,18.495859717675177 -103.55397735604105,16.665732698733823 -106.05397735604143,15.99585971763411 -108.55397735605271,16.665732698693134 -110.38410437499407,18.4958597176047 -111.05397735609378,20.995859717605075 -110.38410437503475,23.495859717616355 -108.55397735612318,25.32598673655771 -106.0539773561228,25.995859717657424" stroke="#00f" stroke-linecap="round" stroke-linejoin="round"/><polyline fill="none" points="-161.67773372123077,-2.8995908063934754 -159.17773372121948,-3.5694637874524977 -157.3476067022781,-5.3995908063640625 -156.67773372117838,-7.899590806364439 -157.3476067022374,-10.39959080637572 -159.17773372114897,-12.229717825317076 -161.67773372114934,-12.899590806416793 -164.17773372116062,-12.229717825357772 -166.007860740102,-10.399590806446207 -166.67773372120172,-7.899590806445831 -166.0078607401427,-5.399590806434549 -164.17773372123114,-3.5694637874931923 -161.67773372123077,-2.8995908063934746" stroke="#ffa500" stroke-linecap="round" stroke-linejoin="round"/><polyline fill="none" points="-140.91706132302892,-67.67958739900249 -138.41706132301763,-68.3494603800615 -136.58693430407627,-70.17958739897307 -135.91706132297654,-72.67958739897345 -136.58693430403557,-75.17958739898474 -138.41706132294712,-77.00971441792609 -140.9170613229475,-77.6795873990258 -143.41706132295877,-77.00971441796679 -145.24718834190014,-75.17958739905522 -145.91706132299987,-72.67958739905484 -145.24718834194084,-70.17958739904356 -143.4170613230293,-68.3494603801022 -140.91706132302892,-67.67958739900249" stroke="#00f" stroke-linecap="round" stroke-linejoin="round"/><polyline fill="none" points="-175.67231393727778,-82.93546929479201 -173.1723139372665,-83.60534227585103 -171.34218691832513,-85.4354692947626 -170.6723139372254,-87.93546929476298 -171.34218691828443,-90.43546929477426 -173.17231393719598,-92.26559631371562 -175.67231393719635,-92.93546929481533 -178.17231393720763,-92.26559631375632 -180.002440956149,-90.43546929484475 -180.67231393724873,-87.93546929484437 -180.0024409561897,-85.43546929483308 -178.17231393727815,-83.60534227589172 -175.67231393727778,-82.93546929479199" stroke="#ffa500" stroke-linecap="round" stroke-linejoin="round"/><polyline fill="none" points="-147.05790486467976,-60.52790862838742 -144.55790486466847,-61.19778160944644 -142.7277778457271,-63.027908628358 -142.05790486462737,-65.52790862835838 -142.72777784568638,-68.02790862836966 -144.55790486459793,-69.85803564731103 -147.0579048645983,-70.52790862841076 -149.55790486460958,-69.85803564735174 -151.38803188355095,-68.02790862844019 -152.05790486465068,-65.5279086284398 -151.38803188359168,-63.02790862842852 -149.55790486468013,-61.19778160948716 -147.05790486467976,-60.52790862838743" stroke="#008000" stroke-linecap="round" stroke-linejoin="round"/><polyline fill="none" points="-41.32657029921598,54.962494324074214 -38.8265702992047,54.2926213430152 -36.99644328026333,52.46249432410364 -36.3265702991636,49.96249432410326 -36.99644328022261,47.46249432409198 -38.82657029913417,45.63236730515061 -41.326570299134545,44.96249432405088 -43.82657029914583,45.63236730510989 -45.6566973180872,47.46249432402145 -46.326570299186926,49.962494324021826 -45.65669731812792,52.462494324033116 -43.82657029921636,54.292621342974485 -41.32657029921598,54.962494324074214" stroke="#ffa500" stroke-linecap="round" stroke-linejoin="round"/><polyline fill="none" points="50.11385834943724,4.066742809494361 52.61385834944853,3.396869828435351 54.443985368389896,1.566742809523793 55.113858349489625,-0.9332571904765841 54.44398536843062,-3.433257190487872 52.613858349519056,-5.26338420942924 50.11385834951868,-5.93325719052897 47.61385834950739,-5.263384209469961 45.78373133056602,-3.433257190558403 45.11385834946629,-0.933257190558026 45.7837313305253,1.5667428094532627 47.61385834943685,3.3968698283946317 50.11385834943723,4.066742809494364" stroke="#ffa500" stroke-linecap="round" stroke-linejoin="round"/><polyline fill="none" points="-155.28264473150713,-76.1472295252839 -152.78264473149585,-76.8171025063429 -150.95251771255448,-78.64722952525446 -150.28264473145475,-81.14722952525484 -150.95251771251375,-83.64722952526613 -152.7826447314253,-85.4773565442075 -155.28264473142568,-86.14722952530722 -157.78264473143696,-85.47735654424822 -159.61277175037833,-83.64722952533667 -160.28264473147806,-81.14722952533629 -159.61277175041906,-78.647229525325 -157.7826447315075,-76.81710250638363 -155.28264473150713,-76.1472295252839" stroke="#ffa500" stroke-linecap="round" stroke-linejoin="round"/><polyline fill="none" points="-177.63099134924386,-54.377343272384 -175.13099134923257,-55.04721625344301 -173.3008643302912,-56.877343272354565 -172.63099134919148,-59.37734327235494 -173.30086433025048,-61.87734327236623 -175.13099134916203,-63.70747029130761 -177.6309913491624,-64.37734327240734 -180.13099134917368,-63.70747029134834 -181.96111836811505,-61.87734327243679 -182.63099134921478,-59.37734327243641 -181.96111836815578,-56.87734327242512 -180.13099134924423,-55.04721625348375 -177.63099134924386,-54.37734327238401" stroke="#00f" stroke-linecap="round" stroke-linejoin="round"/><polyline fill="none" points="-137.60985464080215,-91.71922511133818 -135.10985464079087,-92.38909809239718 -133.2797276218495,-94.21922511130873 -132.60985464074977,-96.71922511130911 -133.27972762180877,-99.21922511132041 -135.10985464072033,-101.04935213026178 -137.6098546407207,-101.71922511136152 -140.10985464073198,-101.04935213030252 -141.93998165967335,-99.21922511139097 -142.60985464077308,-96.71922511139059 -141.93998165971408,-94.21922511137929 -140.10985464080252,-92.38909809243792 -137.60985464080215,-91.71922511133818" stroke="#ffa500" stroke-linecap="round" stroke-linejoin="round"/><polyline fill="none" points="-128.59558426221454,-64.98876309539688 -126.09558426220325,-65.65863607645588 -124.26545724326186,-67.48876309536743 -123.59558426216212,-69.98876309536782 -124.26545724322112,-72.48876309537911 -126.09558426213268,-74.3188901143205 -128.59558426213306,-74.98876309542024 -131.09558426214434,-74.31889011436124 -132.9257112810857,-72.48876309544968 -133.59558426218544,-69.9887630954493 -132.92571128112644,-67.488763095438 -131.09558426221489,-65.65863607649662 -128.59558426221452,-64.98876309539688" stroke="#008000" stroke-linecap="round" stroke-linejoin="round"/><polyline fill="none" points="-101.40052012074823,23.893942455791404 -98.90052012073693,23.224069474732406 -97.07039310179555,21.393942455820856 -96.4005201206958,18.89394245582048 -97.0703931017548,16.393942455809185 -98.90052012066636,14.563815436867806 -101.40052012066674,13.893942455768062 -103.90052012067804,14.56381543682706 -105.73064713961942,16.39394245573861 -106.40052012071916,18.893942455738987 -105.73064713966016,21.39394245575028 -103.90052012074861,23.22406947469166 -101.40052012074823,23.893942455791404" stroke="#ffa500" stroke-linecap="round" stroke-linejoin="round"/><polyline fill="none" points="-164.95313300185006,-10.624682471992456 -162.45313300183878,-11.294555453051451 -160.6230059828974,-13.124682471963002 -159.95313300179765,-15.624682471963379 -160.62300598285665,-18.124682471974673 -162.4531330017682,-19.954809490916055 -164.95313300176858,-20.624682472015802 -167.45313300177986,-19.95480949095681 -169.28326002072123,-18.124682472045258 -169.953133001821,-15.624682472044881 -169.283260020762,-13.124682472033584 -167.45313300185043,-11.294555453092201 -164.95313300185006,-10.624682471992454" stroke="#ffa500" stroke-linecap="round" stroke-linejoin="round"/><polyline fill="none" points="-40.40405851837543,-46.663636531149905 -37.90405851836413,-47.3335095122089 -36.07393149942275,-49.163636531120446 -35.404058518323,-51.66363653112082 -36.07393149938199,-54.16363653113212 -37.90405851829354,-55.9937635500735 -40.404058518293915,-56.66363653117325 -42.90405851830521,-55.99376355011426 -44.734185537246596,-54.16363653120271 -45.404058518346346,-51.663636531202336 -44.73418553728735,-49.16363653119104 -42.904058518375805,-47.333509512249655 -40.40405851837543,-46.663636531149905" stroke="#ffa500" stroke-linecap="round" stroke-linejoin="round"/><polyline fill="none" points="-188.47633854797203,-79.73619916455857 -185.97633854796072,-80.40607214561756 -184.14621152901933,-82.23619916452911 -183.47633854791957,-84.7361991645295 -184.14621152897857,-87.23619916454079 -185.97633854789012,-89.06632618348218 -188.4763385478905,-89.73619916458193 -190.9763385479018,-89.06632618352295 -192.8064655668432,-87.2361991646114 -193.47633854794296,-84.73619916461102 -192.80646556688396,-82.23619916459973 -190.9763385479724,-80.40607214565834 -188.47633854797203,-79.73619916455858" stroke="#00f" stroke-linecap="round" stroke-linejoin="round"/><polyline fill="none" points="-72.87534710650347,-47.68684116760279 -70.37534710649217,-48.35671414866178 -68.54522008755079,-50.18684116757333 -67.87534710645103,-52.686841167573704 -68.54522008751002,-55.186841167585 -70.37534710642156,-57.01696818652639 -72.87534710642194,-57.68684116762615 -75.37534710643324,-57.01696818656716 -77.20547412537462,-55.186841167655615 -77.87534710647438,-52.68684116765524 -77.20547412541539,-50.18684116764394 -75.37534710650385,-48.35671414870255 -72.87534710650347,-47.68684116760279" stroke="#00f" stroke-linecap="round" stroke-linejoin="round"/><polyline fill="none" points="-82.65125731443969,-25.850851675165444 -80.15125731442839,-26.52072465622443 -78.321130295487,-28.350851675135974 -77.65125731438724,-30.85085167513635 -78.32113029544622,-33.35085167514765 -80.15125731435776,-35.18097869408904 -82.65125731435813,-35.8508516751888 -85.15125731436943,-35.18097869412981 -86.98138433331083,-33.350851675218266 -87.65125731441059,-30.85085167521789 -86.9813843333516,-28.350851675206588 -85.15125731444006,-26.520724656265195 -82.65125731443968,-25.850851675165437" stroke="#ffa500" stroke-linecap="round" stroke-linejoin="round"/><polyline fill="none" points="-118.1687508183378,-49.246651247474134 -115.6687508183265,-49.91652422853312 -113.8386237993851,-51.74665124744466 -113.16875081828535,-54.24665124744504 -113.83862379934433,-56.74665124745634 -115.66875081825587,-58.57677826639774 -118.16875081825626,-59.246651247497496 -120.66875081826755,-58.57677826643852 -122.49887783720895,-56.74665124752698 -123.16875081830871,-54.2466512475266 -122.49887783724972,-51.746651247515295 -120.66875081833818,-49.9165242285739 -118.1687508183378,-49.246651247474134" stroke="#ffa500" stroke-linecap="round" stroke-linejoin="round"/><polyline fill="none" points="-157.92382303780352,-15.247932365193858 -155.4238230377922,-15.91780534625284 -153.5936960188508,-17.74793236516438 -152.92382303775105,-20.247932365164758 -153.59369601881002,-22.747932365176062 -155.42382303772158,-24.57805938411746 -157.92382303772195,-25.247932365217224 -160.42382303773326,-24.578059384158244 -162.25395005667465,-22.747932365246704 -162.9238230377744,-20.247932365246328 -162.25395005671544,-17.747932365235023 -160.42382303780388,-15.917805346293624 -157.92382303780352,-15.24793236519386" stroke="#ffa500" stroke-linecap="round" stroke-linejoin="round"/><polyline fill="none" points="-132.4395619826951,-64.49607253722934 -129.93956198268378,-65.16594551828831 -128.1094349637424,-66.99607253719985 -127.43956198264262,-69.49607253720023 -128.1094349637016,-71.99607253721155 -129.93956198261316,-73.82619955615294 -132.43956198261353,-74.49607253725272 -134.93956198262484,-73.82619955619374 -136.76968900156623,-71.9960725372822 -137.439561982666,-69.49607253728182 -136.76968900160702,-66.9960725372705 -134.9395619826955,-65.16594551832911 -132.43956198269512,-64.49607253722934" stroke="#00f" stroke-linecap="round" stroke-linejoin="round"/><polyline fill="none" points="-37.93193959482417,52.191328371371036 -35.43193959481287,51.521455390312056 -33.60181257587146,49.691328371400516 -32.93193959477169,47.19132837140014 -33.601812575830664,44.691328371388835 -35.431939594742204,42.86120135244743 -37.93193959474258,42.19132837134766 -40.431939594753885,42.86120135240663 -42.26206661369529,44.69132837131817 -42.93193959479506,47.19132837131855 -42.26206661373609,49.69132837132986 -40.43193959482455,51.521455390271264 -37.93193959482417,52.191328371371036" stroke="#00f" stroke-linecap="round" stroke-linejoin="round"/><polyline fill="none" points="-112.18438394659384,28.56765644095704 -109.68438394658253,27.89778345989807 -107.85425692764113,26.067656440986532 -107.18438394654136,23.567656440986156 -107.85425692760033,21.067656440974847 -109.68438394651187,19.237529422033443 -112.18438394651226,18.56765644093367 -114.68438394652357,19.237529421992644 -116.51451096546498,21.06765644090418 -117.18438394656475,23.567656440904557 -116.51451096550578,26.067656440915865 -114.68438394659424,27.89778345985727 -112.18438394659385,28.56765644095704" stroke="#ffa500" stroke-linecap="round" stroke-linejoin="round"/><polyline fill="none" points="-136.06917591826152,-44.41085769654521 -133.5691759182502,-45.08073067760418 -131.7390488993088,-46.91085769651572 -131.06917591820903,-49.410857696516096 -131.739048899268,-51.91085769652741 -133.56917591817952,-53.74098471546881 -136.0691759181799,-54.410857696568584 -138.5691759181912,-53.74098471550961 -140.3993029371326,-51.91085769659808 -141.0691759182324,-49.4108576965977 -140.39930293717342,-46.91085769658639 -138.5691759182619,-45.080730677644986 -136.06917591826152,-44.41085769654521" stroke="#008000" stroke-linecap="round" stroke-linejoin="round"/><polyline fill="none" points="-179.1322585177449,-70.63238202376083 -176.6322585177336,-71.3022550048198 -174.8021314987922,-73.13238202373134 -174.1322585176924,-75.63238202373172 -174.80213149875138,-78.13238202374303 -176.6322585176629,-79.96250904268445 -179.13225851766327,-80.63238202378422 -181.6322585176746,-79.96250904272524 -183.46238553661598,-78.1323820238137 -184.13225851771577,-75.63238202381332 -183.4623855366568,-73.13238202380201 -181.63225851774527,-71.3022550048606 -179.1322585177449,-70.63238202376083" stroke="#ffa500" stroke-linecap="round" stroke-linejoin="round"/><polyline fill="none" points="216.80986948968444,-109.25303488848941 219.30986948969576,-109.92290786954838 221.13999650863715,-111.75303488845992 221.80986948973694,-114.25303488846029 221.13999650867797,-116.7530348884716 219.30986948976644,-118.58316190741301 216.80986948976607,-119.2530348885128 214.30986948975476,-118.58316190745383 212.47974247081336,-116.75303488854229 211.80986948971358,-114.2530348885419 212.47974247077255,-111.75303488853059 214.30986948968408,-109.92290786958918 216.80986948968444,-109.2530348884894" stroke="#ffa500" stroke-linecap="round" stroke-linejoin="round"/></svg>