<?xml version="1.0" ?><!DOCTYPE svg  PUBLIC '-//W3C//DTD SVG 1.1//EN'  'http://www.w3.org/Graphics/SVG/1.1/DTD/svg11.dtd'><svg height="255.000" viewBox="-211.000 -140.000 470.000 255.000" width="470.000" xmlns="http://www.w3.org/2000/svg"><line fill="none" stroke="none" stroke-linecap="round" stroke-width="2.0" x1="0.0" x2="0.0" y1="0.0" y2="0.0"/><polygon fill="none" fill-rule="evenodd" points="0.0,0.0 0.0,0.0 0.0,0.0" stroke-linejoin="round"/><polyline fill="none" points="-149.32917048827713,-48.1030944330181 -146.82917048826536,-48.7729674140763 -144.99904346932317,-50.6030944329874 -144.3291704882225,-53.10309443298779 -144.9990434692807,-55.603094432999555 -146.8291704881918,-57.43322145194174 -149.3291704881922,-58.103094433042415 -151.82917048820397,-57.43322145198422 -153.65929750714616,-55.60309443307312 -154.32917048824683,-53.10309443307273 -153.65929750718863,-50.60309443306096 -151.82917048827753,-48.77296741411877 -149.32917048827713,-48.10309443301809" stroke="#00f" stroke-linecap="round" stroke-linejoin="round"/><polyline fill="none" points="-150.96054389847222,-68.0542186194525 -148.46054389846046,-68.72409160051069 -146.63041687951826,-70.55421861942179 -145.9605438984176,-73.05421861942217 -146.6304168794758,-75.55421861943394 -148.4605438983869,-77.38434563837613 -150.9605438983873,-78.05421861947681 -153.46054389839907,-77.38434563841862 -155.29067091734126,-75.55421861950752 -155.96054389844193,-73.05421861950714 -155.29067091738372,-70.55421861949537 -153.46054389847262,-68.72409160055318 -150.96054389847222,-68.0542186194525" stroke="#008000" stroke-linecap="round" stroke-linejoin="round"/><polyline fill="none" points="-116.1752420453458,-77.68896273547466 -113.67524204533403,-78.35883571653285 -111.84511502639184,-80.18896273544395 -111.17524204529116,-82.68896273544433 -111.84511502634935,-85.1889627354561 -113.67524204526045,-87.0190897543983 -116.17524204526083,-87.68896273549898 -118.6752420452726,-87.01908975444078 -120.50536906421479,-85.18896273552969 -121.17524204531547,-82.6889627355293 -120.50536906425728,-80.18896273551753 -118.67524204534618,-78.35883571657534 -116.1752420453458,-77.68896273547466" stroke="#ffa500" stroke-linecap="round" stroke-linejoin="round"/><polyline fill="none" points="-136.54040349764372,-69.50856845442932 -134.04040349763196,-70.17844143548751 -132.21027647868976,-72.00856845439861 -131.5404034975891,-74.508568454399 -132.2102764786473,-77.00856845441076 -134.0404034975584,-78.83869547335296 -136.5404034975588,-79.50856845445364 -139.04040349757057,-78.83869547339545 -140.87053051651276,-77.00856845448435 -141.54040349761343,-74.50856845448396 -140.87053051655522,-72.0085684544722 -139.04040349764412,-70.17844143553 -136.54040349764372,-69.50856845442932" stroke="#008000" stroke-linecap="round" stroke-linejoin="round"/><polyline fill="none" points="-161.95480578128345,-39.11537142728131 -159.4548057812717,-39.7852444083395 -157.6246787623295,-41.615371427250594 -156.9548057812288,-44.115371427250984 -157.62467876228698,-46.61537142726276 -159.45480578119808,-48.44549844620496 -161.95480578119847,-49.11537142730564 -164.45480578121024,-48.44549844624745 -166.28493280015243,-46.615371427336356 -166.95480578125313,-44.115371427335965 -166.28493280019495,-41.61537142732419 -164.45480578128385,-39.78524440838199 -161.95480578128345,-39.11537142728131" stroke="#00f" stroke-linecap="round" stroke-linejoin="round"/><polyline fill="none" points="-149.65058341525184,-90.90129017361437 -147.15058341524008,-91.57116315467256 -145.32045639629789,-93.40129017358365 -144.6505834151972,-95.90129017358403 -145.32045639625537,-98.40129017359581 -147.15058341516647,-100.23141719253802 -149.65058341516686,-100.9012901736387 -152.15058341517863,-100.23141719258051 -153.98071043412082,-98.40129017366942 -154.65058341522152,-95.90129017366904 -153.98071043416334,-93.40129017365726 -152.15058341525224,-91.57116315471505 -149.65058341525184,-90.90129017361437" stroke="#00f" stroke-linecap="round" stroke-linejoin="round"/><polyline fill="none" points="225.00502965196148,-119.32931284189267 227.50502965197325,-119.99918582295086 229.33515667091544,-121.82931284186195 230.00502965201613,-124.32931284186233 229.33515667095796,-126.82931284187411 227.50502965204686,-128.65943986081632 225.00502965204646,-129.32931284191702 222.5050296520347,-128.65943986085884 220.6749026330925,-126.82931284194775 220.0050296519918,-124.32931284194737 220.67490263304998,-121.82931284193559 222.50502965196108,-119.99918582299338 225.00502965196148,-119.32931284189269" stroke="#ffa500" stroke-linecap="round" stroke-linejoin="round"/><polyline fill="none" points="-195.39258308201644,-83.81047039810477 -192.89258308200468,-84.48034337916295 -191.06245606306248,-86.31047039807403 -190.3925830819618,-88.81047039807441 -191.06245606301997,-91.3104703980862 -192.89258308193106,-93.1405974170284 -195.39258308193146,-93.8104703981291 -197.89258308194323,-93.14059741707092 -199.72271010088542,-91.31047039815984 -200.39258308198612,-88.81047039815945 -199.72271010092794,-86.31047039814767 -197.89258308201684,-84.48034337920546 -195.39258308201644,-83.81047039810477" stroke="#00f" stroke-linecap="round" stroke-linejoin="round"/><polyline fill="none" points="64.42309458920207,-1.4215243392347956 66.92309458921385,-2.0913973202929768 68.75322160815605,-3.921524339204063 69.42309458925675,-6.421524339204451 68.75322160819857,-8.92152433921623 66.92309458928749,-10.751651358158439 64.4230945892871,-11.421524339259133 61.92309458927532,-10.751651358200952 60.092967570333116,-8.921524339289867 59.42309458923242,-6.421524339289479 60.0929675702906,-3.921524339277699 61.92309458920168,-2.0913973203354903 64.42309458920207,-1.4215243392347952" stroke="#ffa500" stroke-linecap="round" stroke-linejoin="round"/><polyline fill="none" points="241.80540028055643,-118.14834485569693 244.3054002805682,-118.81821783675511 246.13552729951041,-120.6483448556662 246.8054002806111,-123.14834485566658 246.13552729955293,-125.64834485567836 244.30540028064186,-127.47847187462057 241.80540028064146,-128.14834485572126 239.30540028062967,-127.47847187466309 237.47527326168745,-125.648344855752 236.80540028058675,-123.14834485575162 237.47527326164493,-120.64834485573984 239.305400280556,-118.81821783679763 241.8054002805564,-118.14834485569693" stroke="#00f" stroke-linecap="round" stroke-linejoin="round"/><polyline fill="none" points="-128.9879536879728,-76.87561812772633 -126.48795368796102,-77.5454911087845 -124.65782666901882,-79.37561812769559 -123.98795368791812,-81.87561812769597 -124.6578266689763,-84.37561812770775 -126.48795368788738,-86.20574514664996 -128.98795368788777,-86.87561812775066 -131.48795368789956,-86.20574514669248 -133.31808070684178,-84.3756181277814 -133.98795368794248,-81.87561812778101 -133.3180807068843,-79.37561812776923 -131.48795368797323,-77.54549110882702 -128.98795368797283,-76.87561812772633" stroke="#00f" stroke-linecap="round" stroke-linejoin="round"/><polyline fill="none" points="-18.83618700341472,4.812192523638219 -16.33618700340294,4.142319542580044 -14.506059984460727,2.312192523668961 -13.836187003360026,-0.18780747633142658 -14.5060599844182,-2.687807476343209 -16.336187003329282,-4.517934495285424 -18.83618700332967,-5.187807476386125 -21.336187003341454,-4.517934495327951 -23.166314022283668,-2.68780747641687 -23.83618700338437,-0.18780747641648166 -23.166314022326198,2.312192523595302 -21.336187003415116,4.142319542537517 -18.83618700341473,4.8121925236382195" stroke="#00f" stroke-linecap="round" stroke-linejoin="round"/><polyline fill="none" points="-102.23981156019957,-66.57543246615093 -99.73981156018779,-67.2453054472091 -97.90968454124557,-69.07543246612019 -97.23981156014486,-71.57543246612057 -97.90968454120303,-74.07543246613236 -99.73981156011412,-75.90555948507458 -102.2398115601145,-76.57543246617529 -104.73981156012628,-75.90555948511711 -106.5699385790685,-74.07543246620602 -107.23981156016922,-71.57543246620564 -106.56993857911104,-69.07543246619386 -104.73981156019995,-67.24530544725164 -102.23981156019957,-66.57543246615093" stroke="#ffa500" stroke-linecap="round" stroke-linejoin="round"/><polyline fill="none" points="-66.0918549376589,21.809488931329355 -63.591854937647106,21.139615950271185 -61.761727918704885,19.309488931360107 -61.091854937604175,16.80948893135972 -61.761727918662345,14.309488931347934 -63.59185493757342,12.479361912405714 -66.09185493757381,11.809488931305008 -68.5918549375856,12.479361912363176 -70.42198195652782,14.309488931274256 -71.09185493762853,16.809488931274643 -70.42198195657036,19.30948893128643 -68.59185493765928,21.139615950228652 -66.0918549376589,21.809488931329362" stroke="#ffa500" stroke-linecap="round" stroke-linejoin="round"/><polyline fill="none" points="-101.51570351346795,-48.627008766490675 -99.01570351345617,-49.296881747548845 -97.18557649451395,-51.12700876645992 -96.51570351341324,-53.627008766460314 -97.1855764944714,-56.1270087664721 -99.01570351338248,-57.95713578541432 -101.51570351338286,-58.62700876651503 -104.01570351339464,-57.95713578545687 -105.84583053233686,-56.12700876654579 -106.51570351343757,-53.6270087665454 -105.84583053237941,-51.12700876653361 -104.01570351346834,-49.29688174759139 -101.51570351346795,-48.62700876649068" stroke="#ffa500" stroke-linecap="round" stroke-linejoin="round"/><polyline fill="none" points="-137.24869872297188,-87.34169590680476 -134.74869872296009,-88.01156888786292 -132.91857170401786,-89.84169590677399 -132.24869872291714,-92.34169590677438 -132.91857170397532,-94.84169590678617 -134.7486987228864,-96.67182292572839 -137.2486987228868,-97.3416959068291 -139.74869872289858,-96.67182292577094 -141.5788257418408,-94.84169590685987 -142.24869872294153,-92.34169590685948 -141.57882574188335,-89.84169590684769 -139.74869872297228,-88.01156888790547 -137.24869872297188,-87.34169590680476" stroke="#00f" stroke-linecap="round" stroke-linejoin="round"/><polyline fill="none" points="-137.53618509322294,-48.58031866323959 -135.03618509321115,-49.25019164429775 -133.20605807426892,-51.08031866320883 -132.5361850931682,-53.58031866320922 -133.20605807422635,-56.08031866322101 -135.03618509313742,-57.910445682163235 -137.53618509313782,-58.58031866326395 -140.0361850931496,-57.91044568220579 -141.86631211209183,-56.08031866329471 -142.53618509319256,-53.58031866329432 -141.8663121121344,-51.08031866328253 -140.03618509322334,-49.250191644340305 -137.53618509322294,-48.58031866323959" stroke="#00f" stroke-linecap="round" stroke-linejoin="round"/><polyline fill="none" points="-107.45206615732693,32.81888000454113 -104.95206615731513,32.149007023482966 -103.1219391383729,30.31888000457189 -102.45206615727217,27.818880004571504 -103.12193913833033,25.318880004559713 -104.9520661572414,23.488752985617484 -107.45206615724179,22.818880004516767 -109.95206615725358,23.488752985574926 -111.78219317619582,25.318880004486 -112.45206615729654,27.818880004486388 -111.78219317623838,30.31888000449818 -109.95206615732731,32.14900702344041 -107.45206615732693,32.81888000454113" stroke="#ffa500" stroke-linecap="round" stroke-linejoin="round"/><polyline fill="none" points="-148.3994619864548,-91.94207655374991 -145.89946198644301,-92.61194953480808 -144.0693349675008,-94.44207655371915 -143.39946198640007,-96.94207655371953 -144.06933496745822,-99.44207655373133 -145.8994619863693,-101.27220357267356 -148.3994619863697,-101.94207655377429 -150.89946198638148,-101.27220357271612 -152.7295890053237,-99.44207655380505 -153.39946198642443,-96.94207655380467 -152.72958900536628,-94.44207655379287 -150.8994619864552,-92.61194953485064 -148.3994619864548,-91.94207655374991" stroke="#00f" stroke-linecap="round" stroke-linejoin="round"/><polyline fill="none" points="50.91903297885466,12.34348842452184 53.419032978866454,11.673615443463685 55.24915999780869,9.843488424552614 55.919032978909414,7.343488424552226 55.24915999785126,4.843488424540432 53.41903297894019,3.0133614055981983 50.919032978939796,2.3434884244974747 48.419032978928,3.013361405555629 46.588905959985766,4.843488424466699 45.91903297888504,7.343488424467087 46.5889059599432,9.843488424478881 48.41903297885427,11.673615443421117 50.91903297885466,12.343488424521842" stroke="#00f" stroke-linecap="round" stroke-linejoin="round"/><polyline fill="none" points="-7.299050744642383,-22.235218661118896 -4.799050744630588,-22.905091642177048 -2.9689237256883523,-24.73521866108812 -2.2990507445876265,-27.235218661088506 -2.9689237256457783,-29.7352186611003 -4.7990507445568475,-31.565345680042537 -7.299050744557236,-32.235218661143264 -9.799050744569032,-31.565345680085112 -11.629177763511269,-29.735218661174045 -12.299050744611996,-27.235218661173658 -11.629177763553844,-24.735218661161863 -9.799050744642775,-22.905091642219624 -7.299050744642387,-22.235218661118896" stroke="#ffa500" stroke-linecap="round" stroke-linejoin="round"/><polyline fill="none" points="-184.85907195239113,-90.05823467636581 -182.35907195237934,-90.72810765742396 -180.5289449334371,-92.55823467633503 -179.85907195233636,-95.05823467633542 -180.5289449333945,-97.55823467634721 -182.35907195230558,-99.38836169528945 -184.85907195230598,-100.05823467639017 -187.35907195231778,-99.38836169533202 -189.18919897126003,-97.55823467642095 -189.85907195236075,-95.05823467642057 -189.1891989713026,-92.55823467640877 -187.35907195239153,-90.72810765746654 -184.85907195239113,-90.05823467636581" stroke="#ffa500" stroke-linecap="round" stroke-linejoin="round"/><polyline fill="none" points="45.304097296892955,-11.657586655115264 47.80409729690475,-12.327459636173412 49.63422431584699,-14.15758665508448 50.304097296947724,-16.657586655084867 49.634224315889576,-19.157586655096665 47.80409729697851,-20.987713674038908 45.30409729697812,-21.65758665513964 42.80409729696632,-20.98771367408149 40.973970278024076,-19.157586655170423 40.304097296923345,-16.657586655170036 40.97397027798149,-14.157586655158237 42.80409729689256,-12.327459636215995 45.30409729689295,-11.657586655115262" stroke="#ffa500" stroke-linecap="round" stroke-linejoin="round"/><polyline fill="none" points="-143.3721725218271,-49.5524762669422 -140.87217252181532,-50.22234924800035 -139.04204550287307,-52.05247626691141 -138.37217252177234,-54.5524762669118 -139.0420455028305,-57.052476266923605 -140.87217252174156,-58.88260328586585 -143.37217252174196,-59.55247626696658 -145.87217252175375,-58.88260328590844 -147.702299540696,-57.052476266997374 -148.37217252179673,-54.55247626699698 -147.70229954073858,-52.05247626698518 -145.8721725218275,-50.22234924804294 -143.3721725218271,-49.5524762669422" stroke="#00f" stroke-linecap="round" stroke-linejoin="round"/><polyline fill="none" points="-81.50533143124427,92.59735289861032 -79.00533143123248,91.92747991755218 -77.17520441229023,90.0973528986411 -76.50533143118949,87.59735289864072 -77.17520441224764,85.09735289862893 -79.00533143115871,83.26722587968668 -81.50533143115909,82.59735289858594 -84.00533143117089,83.26722587964409 -85.83545845011314,85.09735289855516 -86.50533143121388,87.59735289855554 -85.83545845015573,90.09735289856734 -84.00533143124467,91.92747991750959 -81.50533143124429,92.59735289861032" stroke="#ffa500" stroke-linecap="round" stroke-linejoin="round"/><polyline fill="none" points="-18.178607944487027,1.593287391414194 -15.678607944475225,0.9234144103560533 -13.848480925532979,-0.9067126085550092 -13.178607944432239,-3.406712608555397 -13.848480925490378,-5.906712608567199 -15.67860794440144,-7.736839627509447 -18.17860794440183,-8.406712608610187 -20.67860794441363,-7.7368396275520475 -22.50873496335588,-5.906712608640985 -23.178607944456623,-3.4067126086405977 -22.508734963398485,-0.9067126086287947 -20.678607944487425,0.9234144103134545 -18.178607944487037,1.5932873914141963" stroke="#ffa500" stroke-linecap="round" stroke-linejoin="round"/><polyline fill="none" points="231.5637995972292,-115.15023587326239 234.063799597241,-115.82010885432052 235.89392661618325,-117.65023587323158 236.563799597284,-120.15023587323196 235.89392661622585,-122.65023587324377 234.06379959731478,-124.48036289218602 231.5637995973144,-125.15023587328676 229.0637995973026,-124.48036289222863 227.23367257836034,-122.65023587331757 226.5637995972596,-120.15023587331719 227.23367257831774,-117.65023587330538 229.0637995972288,-115.82010885436313 231.5637995972292,-115.15023587326239" stroke="#ffa500" stroke-linecap="round" stroke-linejoin="round"/><polyline fill="none" points="-116.32394789730205,-61.580920846958406 -113.82394789729024,-62.25079382801654 -111.99382087834799,-64.0809208469276 -111.32394789724724,-66.58092084692798 -111.99382087830537,-69.08092084693979 -113.82394789721643,-70.91104786588204 -116.32394789721681,-71.58092084698279 -118.82394789722862,-70.91104786592466 -120.65407491617087,-69.0809208470136 -121.32394789727162,-66.58092084701322 -120.65407491621349,-64.08092084700141 -118.82394789730243,-62.25079382805915 -116.32394789730205,-61.580920846958406" stroke="#ffa500" stroke-linecap="round" stroke-linejoin="round"/><polyline fill="none" points="-65.09750297655083,35.917392707885284 -62.59750297653902,35.24751972682715 -60.76737595759676,33.41739270791609 -60.09750297649602,30.917392707915706 -60.76737595755415,28.4173927079039 -62.59750297646521,26.587265688961644 -65.09750297646559,25.917392707860895 -67.5975029764774,26.587265688919025 -69.42762999541965,28.417392707830082 -70.0975029765204,30.91739270783047 -69.42762999546227,33.417392707842275 -67.59750297655121,35.24751972678453 -65.09750297655083,35.917392707885284" stroke="#ffa500" stroke-linecap="round" stroke-linejoin="round"/><polyline fill="none" points="-108.08779954099093,-27.516752483528883 -105.58779954097912,-28.186625464587014 -103.75767252203686,-30.01675248349807 -103.0877995409361,-32.51675248349846 -103.75767252199424,-35.01675248351027 -105.5877995409053,-36.84687950245252 -108.08779954090568,-37.516752483553276 -110.58779954091749,-36.84687950249515 -112.41792655985975,-35.01675248358409 -113.0877995409605,-32.5167524835837 -112.41792655990237,-30.016752483571892 -110.58779954099131,-28.186625464629632 -108.08779954099093,-27.51675248352888" stroke="#ffa500" stroke-linecap="round" stroke-linejoin="round"/><polyline fill="none" points="48.199620716231095,1.3179700836192572 50.699620716242904,0.6480971025611291 52.52974773518516,-1.1820299163499266 53.199620716285914,-3.6820299163503147 52.52974773522779,-6.182029916362124 50.69962071631673,-8.012156935304384 48.19962071631634,-8.682029916405138 45.69962071630453,-8.012156935347011 43.869493697362266,-6.1820299164359565 43.199620716261514,-3.6820299164355683 43.86949369731964,-1.1820299164237578 45.6996207162307,0.648097102518504 48.19962071623109,1.3179700836192603" stroke="#ffa500" stroke-linecap="round" stroke-linejoin="round"/><polyline fill="none" points="13.066680817519256,-24.137065810236976 15.566680817531067,-24.806938791295103 17.39680783647333,-26.637065810206156 18.066680817574085,-29.137065810206543 17.396807836515958,-31.637065810218353 15.566680817604905,-33.467192829160616 13.066680817604517,-34.137065810261376 10.566680817592706,-33.46719282920325 8.736553798650442,-31.637065810292196 8.066680817549685,-29.13706581029181 8.736553798607808,-26.637065810279996 10.566680817518861,-24.806938791337732 13.066680817519249,-24.137065810236972" stroke="#00f" stroke-linecap="round" stroke-linejoin="round"/><polyline fill="none" points="-122.82325039667391,27.68501973583867 -120.3232503966621,27.015146754780545 -118.49312337771984,25.185019735869492 -117.82325039661909,22.685019735869105 -118.49312337767721,20.185019735857292 -120.32325039658826,18.354892716915028 -122.82325039658865,17.68501973581427 -125.32325039660046,18.354892716872392 -127.15337741554272,20.185019735783445 -127.82325039664349,22.685019735783833 -127.15337741558537,25.185019735795645 -125.32325039667431,27.015146754737913 -122.82325039667393,27.685019735838676" stroke="#00f" stroke-linecap="round" stroke-linejoin="round"/><polyline fill="none" points="-9.404784963349803,52.3357716209903 -6.904784963337989,51.66589863993218 -5.074657944395722,49.83577162102113 -4.40478496329496,47.33577162102074 -5.07465794435308,44.835771621008924 -6.904784963264132,43.00564460206665 -9.40478496326452,42.335771620965886 -11.904784963276335,43.005644602024006 -13.734911982218604,44.835771620935056 -14.404784963319367,47.335771620935446 -13.734911982261247,49.83577162094726 -11.904784963350195,51.665898639889534 -9.404784963349808,52.3357716209903" stroke="#ffa500" stroke-linecap="round" stroke-linejoin="round"/><polyline fill="none" points="-8.83938053926307,57.74031325225604 -6.339380539251255,57.07044027119792 -4.509253520308986,55.24031325228687 -3.8393805392082214,52.74031325228648 -4.5092535202663395,50.24031325227466 -6.339380539177389,48.41018623333239 -8.839380539177778,47.74031325223162 -11.339380539189595,48.41018623328974 -13.169507558131865,50.24031325220079 -13.839380539232632,52.74031325220118 -13.169507558174514,55.240313252213 -11.339380539263464,57.07044027115527 -8.839380539263075,57.74031325225604" stroke="#ffa500" stroke-linecap="round" stroke-linejoin="round"/><polyline fill="none" points="231.77614457886273,-110.39092368009624 234.27614457887455,-111.06079666115436 236.10627159781683,-112.89092368006541 236.7761445789176,-115.3909236800658 236.1062715978595,-117.89092368007762 234.27614457894845,-119.7210506990199 231.77614457894805,-120.39092368012066 229.27614457893623,-119.72105069906254 227.44601755999395,-117.8909236801515 226.77614457889317,-115.39092368015112 227.4460175599513,-112.8909236801393 229.27614457886233,-111.06079666119702 231.77614457886273,-110.39092368009625" stroke="#ffa500" stroke-linecap="round" stroke-linejoin="round"/><polyline fill="none" points="-64.44126361831876,31.700413024281584 -61.94126361830694,31.03054004322347 -60.11113659936467,29.200413024312425 -59.4412636182639,26.700413024312038 -60.111136599322016,24.20041302430022 -61.941263618233066,22.370286005357947 -64.44126361823345,21.700413024257177 -66.94126361824527,22.37028600531529 -68.77139063718755,24.200413024226336 -69.44126361828832,26.700413024226723 -68.77139063723021,29.200413024238543 -66.94126361831917,31.030540043180817 -64.44126361831879,31.70041302428159" stroke="#ffa500" stroke-linecap="round" stroke-linejoin="round"/><polyline fill="none" points="63.733350166108515,15.44393583874713 66.23335016612033,14.774062857689017 68.06347718506261,12.943935838777971 68.73335016616338,10.443935838777584 68.06347718510527,7.943935838765765 66.23335016619423,6.113808819823488 63.73335016619384,5.443935838722714 61.23335016618202,6.113808819780825 59.40322314723974,7.943935838691871 58.73335016613897,10.443935838692258 59.40322314719708,12.943935838704078 61.233350166108124,14.774062857646356 63.733350166108515,15.443935838747132" stroke="#ffa500" stroke-linecap="round" stroke-linejoin="round"/><polyline fill="none" points="228.55097292149102,-104.0544643206938 231.05097292150285,-104.7243373017519 232.88109994044513,-106.55446432066294 233.5509729215459,-109.05446432066333 232.8810999404878,-111.55446432067515 231.05097292157674,-113.38459133961743 228.55097292157635,-114.05446432071821 226.05097292156452,-113.3845913396601 224.22084590262224,-111.55446432074906 223.55097292152146,-109.05446432074868 224.22084590257958,-106.55446432073686 226.05097292149063,-104.72433730179458 228.55097292149102,-104.0544643206938" stroke="#ffa500" stroke-linecap="round" stroke-linejoin="round"/><polyline fill="none" points="66.69237271717796,21.763466493111103 69.19237271718978,21.093593512052998 71.02249973613206,19.263466493141955 71.69237271723284,16.763466493141568 71.02249973617474,14.263466493129746 69.1923727172637,12.433339474187465 66.69237271726331,11.763466493086685 64.19237271725149,12.433339474144791 62.3622456983092,14.263466493055834 61.69237271720842,16.76346649305622 62.36224569826653,19.263466493068044 64.19237271717758,21.093593512010326 66.69237271717796,21.763466493111107" stroke="#ffa500" stroke-linecap="round" stroke-linejoin="round"/><polyline fill="none" points="74.00642040768768,3.1475747083490524 76.50642040769951,2.477701727290947 78.33654742664179,0.6475747083799044 79.00642040774257,-1.8524252916204842 78.33654742668446,-4.352425291632308 76.50642040777342,-6.182552310574592 74.00642040777304,-6.852425291675374 71.50642040776121,-6.18255231061727 69.67629338881893,-4.352425291706227 69.00642040771815,-1.8524252917058388 69.67629338877626,0.6475747083059855 71.5064204076873,2.477701727248271 74.00642040768768,3.147574708349054" stroke="#ffa500" stroke-linecap="round" stroke-linejoin="round"/><polyline fill="none" points="-144.16738852020603,-80.79612777892656 -141.6673885201942,-81.46600075998467 -139.83726150125193,-83.29612777889571 -139.16738852015115,-85.79612777889609 -139.83726150120924,-88.29612777890792 -141.66738852012028,-90.12625479785021 -144.16738852012068,-90.79612777895099 -146.6673885201325,-90.12625479789288 -148.49751553907478,-88.29612777898184 -149.16738852017556,-85.79612777898146 -148.49751553911747,-83.29612777896963 -146.66738852020643,-81.46600076002734 -144.16738852020603,-80.79612777892656" stroke="#ffa500" stroke-linecap="round" stroke-linejoin="round"/><polyline fill="none" points="68.72511036578157,8.713765843923943 71.2251103657934,8.043892862865842 73.05523738473569,6.213765843954802 73.72511036583647,3.713765843954413 73.05523738477837,1.213765843942587 71.22511036586732,-0.6163611749997016 68.72511036586694,-1.2862341561004884 66.22511036585512,-0.6163611750423889 64.39498334691282,1.2137658438686505 63.725110365812036,3.7137658438690386 64.39498334687013,6.213765843880864 66.22511036578118,8.043892862823153 68.72511036578156,8.713765843923941" stroke="#ffa500" stroke-linecap="round" stroke-linejoin="round"/><polyline fill="none" points="-152.77927105443396,-51.78204969251771 -150.27927105442214,-52.45192267357581 -148.44914403547986,-54.282049692486844 -147.77927105437908,-56.782049692487234 -148.44914403543717,-59.28204969249906 -150.27927105434821,-61.11217671144135 -152.7792710543486,-61.78204969254214 -155.27927105436044,-61.11217671148404 -157.1093980733027,-59.282049692573004 -157.7792710544035,-56.78204969257261 -157.1093980733454,-54.28204969256078 -155.27927105443436,-52.45192267361849 -152.77927105443396,-51.7820496925177" stroke="#008000" stroke-linecap="round" stroke-linejoin="round"/><polyline fill="none" points="-114.94050681950127,37.53247921500854 -112.44050681948944,36.862606233950444 -110.61037980054715,35.03247921503941 -109.94050681944636,32.53247921503902 -110.61037980050445,30.03247921502719 -112.44050681941549,28.2023521960849 -114.94050681941587,27.532479214984107 -117.4405068194277,28.202352196042202 -119.27063383836999,30.032479214953238 -119.94050681947078,32.532479214953625 -119.27063383841269,35.032479214965456 -117.44050681950165,36.86260623390775 -114.94050681950127,37.53247921500854" stroke="#ffa500" stroke-linecap="round" stroke-linejoin="round"/><polyline fill="none" points="-16.53658329552818,11.440218888863878 -14.036583295516353,10.770345907805785 -12.206456276574059,8.94021888889475 -11.536583295473266,6.440218888894362 -12.206456276531359,3.940218888882533 -14.036583295442394,2.1100918699402382 -16.53658329544278,1.4402188888394436 -19.036583295454612,2.110091869897536 -20.866710314396908,3.940218888808571 -21.536583295497703,6.440218888808959 -20.86671031443961,8.94021888882079 -19.036583295528576,10.770345907763085 -16.53658329552819,11.440218888863882" stroke="#ffa500" stroke-linecap="round" stroke-linejoin="round"/><polyline fill="none" points="-97.0162817520601,9.71372937330821 -94.51628175204826,9.043856392250119 -92.68615473310597,7.213729373339084 -92.01628175200517,4.713729373338696 -92.68615473306326,2.213729373326865 -94.51628175197429,0.38360235438456747 -97.01628175197467,-0.28627062671622994 -99.51628175198651,0.3836023543418601 -101.3464087709288,2.2137293732528933 -102.0162817520296,4.7137293732532815 -101.34640877097151,7.213729373265113 -99.51628175206048,9.043856392207411 -97.0162817520601,9.71372937330821" stroke="#ffa500" stroke-linecap="round" stroke-linejoin="round"/><polyline fill="none" points="-174.56592780042664,-13.73391754714477 -172.0659278004148,-14.403790528202858 -170.2358007814725,-16.23391754711389 -169.5659278003717,-18.733917547114277 -170.2358007814298,-21.23391754712611 -172.06592780034083,-23.06404456606841 -174.56592780034123,-23.733917547169213 -177.06592780035305,-23.064044566111125 -178.89605481929536,-21.233917547200093 -179.56592780039617,-18.733917547199706 -178.89605481933808,-16.233917547187872 -177.06592780042703,-14.40379052824557 -174.56592780042664,-13.733917547144769" stroke="#00f" stroke-linecap="round" stroke-linejoin="round"/><polyline fill="none" points="-158.43339090655073,-19.213259272397632 -155.9333909065389,-19.88313225345572 -154.1032638875966,-21.713259272366752 -153.4333909064958,-24.21325927236714 -154.10326388755388,-26.713259272378973 -155.93339090646492,-28.543386291321276 -158.43339090646532,-29.21325927242208 -160.93339090647714,-28.543386291363994 -162.76351792541945,-26.713259272452962 -163.43339090652026,-24.213259272452575 -162.76351792546217,-21.71325927244074 -160.93339090655112,-19.883132253498438 -158.43339090655073,-19.213259272397632" stroke="#00f" stroke-linecap="round" stroke-linejoin="round"/><polyline fill="none" points="-141.1371916718965,-8.74339936631563 -138.63719167188466,-9.413272347373715 -136.80706465294236,-11.243399366284745 -136.13719167184155,-13.743399366285132 -136.80706465289964,-16.243399366296966 -138.63719167181068,-18.073526385239273 -141.13719167181108,-18.74339936634008 -143.6371916718229,-18.073526385281994 -145.4673186907652,-16.243399366370966 -146.13719167186602,-13.743399366370578 -145.46731869080793,-11.243399366358743 -143.6371916718969,-9.413272347416436 -141.1371916718965,-8.743399366315629" stroke="#ffa500" stroke-linecap="round" stroke-linejoin="round"/><polyline fill="none" points="-80.65853964104925,47.16806554297024 -78.15853964103741,46.498192561912155 -76.3284126220951,44.66806554300113 -75.65853964099429,42.168065543000736 -76.32841262205237,39.6680655429889 -78.1585396409634,37.83793852404659 -80.65853964096378,37.16806554294578 -83.15853964097562,37.83793852400386 -84.98866665991793,39.66806554291489 -85.65853964101873,42.16806554291528 -84.98866665996066,44.66806554292712 -83.15853964104963,46.49819256186942 -80.65853964104925,47.16806554297023" stroke="#ffa500" stroke-linecap="round" stroke-linejoin="round"/><polyline fill="none" points="-25.221433783234232,61.98515555121413 -22.721433783222395,61.31528257015605 -20.891306764280085,59.48515555124502 -20.221433783179275,56.98515555124463 -20.891306764237353,54.48515555123279 -22.72143378314838,52.65502853229049 -25.22143378314877,51.98515555118968 -27.721433783160606,52.655028532247755 -29.551560802102916,54.48515555115878 -30.22143378320373,56.985155551159174 -29.55156080214565,59.48515555117101 -27.721433783234623,61.315282570113325 -25.221433783234236,61.98515555121414" stroke="#ffa500" stroke-linecap="round" stroke-linejoin="round"/><polyline fill="none" points="-82.42087845848606,-25.18138758718376 -79.92087845847422,-25.851260568241837 -78.09075143953191,-27.681387587152862 -77.4208784584311,-30.18138758715325 -78.09075143948918,-32.68138758716509 -79.92087845840021,-34.511514606107404 -82.4208784584006,-35.18138758720822 -84.92087845841243,-34.51151460615014 -86.75100547735474,-32.681387587239115 -87.42087845845555,-30.181387587238728 -86.75100547739747,-27.681387587226887 -84.92087845848644,-25.851260568284573 -82.42087845848606,-25.181387587183757" stroke="#00f" stroke-linecap="round" stroke-linejoin="round"/><polyline fill="none" points="-146.62392308739584,-57.640600260345444 -144.123923087384,-58.31047324140352 -142.29379606844168,-60.14060026031455 -141.62392308734087,-62.64060026031494 -142.29379606839893,-65.14060026032678 -144.12392308730995,-66.9707272792691 -146.62392308731035,-67.64060026036992 -149.1239230873222,-66.97072727931184 -150.9540501062645,-65.14060026040082 -151.6239230873653,-62.640600260400426 -150.95405010630725,-60.14060026038858 -149.12392308739624,-58.31047324144627 -146.62392308739584,-57.64060026034545" stroke="#00f" stroke-linecap="round" stroke-linejoin="round"/><polyline fill="none" points="-86.18534969614844,102.42117854843016 -83.6853496961366,101.75130556737209 -81.85522267719428,99.92117854846106 -81.18534969609345,97.42117854846067 -81.85522267715153,94.92117854844884 -83.68534969606256,93.09105152950652 -86.18534969606294,92.42117854840569 -88.68534969607478,93.09105152946377 -90.5154767150171,94.9211785483748 -91.18534969611792,97.42117854837518 -90.51547671505985,99.92117854838702 -88.68534969614882,101.75130556732934 -86.18534969614844,102.42117854843016" stroke="#ffa500" stroke-linecap="round" stroke-linejoin="round"/><polyline fill="none" points="-135.61938648176934,-9.705114703102007 -133.1193864817575,-10.374987684160077 -131.28925946281518,-12.2051147030711 -130.61938648171437,-14.705114703071487 -131.28925946277243,-17.205114703083332 -133.11938648168345,-19.03524172202565 -135.61938648168385,-19.70511470312647 -138.1193864816957,-19.0352417220684 -139.949513500638,-17.205114703157378 -140.61938648173881,-14.70511470315699 -139.94951350068075,-12.205114703145146 -138.11938648176974,-10.374987684202827 -135.61938648176934,-9.705114703102003" stroke="#ffa500" stroke-linecap="round" stroke-linejoin="round"/><polyline fill="none" points="-143.27623411161667,-63.6397951078593 -140.77623411160482,-64.30966808891736 -138.94610709266252,-66.13979510782838 -138.2762341115617,-68.63979510782876 -138.94610709261977,-71.1397951078406 -140.77623411153078,-72.96992212678292 -143.27623411153118,-73.63979510788374 -145.77623411154303,-72.96992212682568 -147.60636113048537,-71.13979510791467 -148.2762341115862,-68.63979510791428 -147.60636113052814,-66.13979510790243 -145.77623411161713,-64.30966808896011 -143.27623411161673,-63.639795107859285" stroke="#f00" stroke-linecap="round" stroke-linejoin="round"/><polyline fill="none" points="-65.78982472085036,-39.66573134664987 -63.28982472083852,-40.335604327707934 -61.4596977018962,-42.165731346618955 -60.78982472079537,-44.665731346619346 -61.459697701853436,-47.16573134663119 -63.28982472076446,-48.99585836557351 -65.78982472076484,-49.665731346674335 -68.28982472077669,-48.99585836561627 -70.11995173971901,-47.16573134670525 -70.78982472081984,-44.66573134670486 -70.11995173976177,-42.165731346693015 -68.28982472085076,-40.33560432775069 -65.78982472085038,-39.66573134664986" stroke="#008000" stroke-linecap="round" stroke-linejoin="round"/><polyline fill="none" points="-118.74847412932716,45.77952626699675 -116.24847412931531,45.109653285938684 -114.41834711037299,43.27952626702766 -113.74847412927217,40.77952626702727 -114.41834711033023,38.27952626701543 -116.24847412924125,36.4493992480731 -118.74847412924163,35.77952626697227 -121.24847412925348,36.44939924803033 -123.0786011481958,38.27952626694135 -123.74847412929662,40.779526266941744 -123.07860114823856,43.27952626695359 -121.24847412932755,45.10965328589592 -118.74847412932716,45.77952626699675" stroke="#ffa500" stroke-linecap="round" stroke-linejoin="round"/><polyline fill="none" points="-121.83882100198005,39.227701110496376 -119.3388210019682,38.55782812943831 -117.50869398302588,36.72770111052729 -116.83882100192504,34.2277011105269 -117.5086939829831,31.727701110515053 -119.33882100189412,29.897574091572725 -121.8388210018945,29.227701110471894 -124.33882100190635,29.897574091529954 -126.16894802084869,31.72770111044097 -126.83882100194953,34.22770111044136 -126.16894802089146,36.72770111045321 -124.33882100198045,38.55782812939554 -121.83882100198007,39.22770111049637" stroke="#ffa500" stroke-linecap="round" stroke-linejoin="round"/><polyline fill="none" points="-87.5309261550688,90.71996432527033 -85.03092615505695,90.05009134421226 -83.20079913611461,88.21996432530125 -82.53092615501377,85.71996432530086 -83.20079913607184,83.21996432528901 -85.03092615498285,81.38983730634668 -87.53092615498323,80.71996432524584 -90.03092615499509,81.3898373063039 -91.86105317393742,83.21996432521492 -92.53092615503826,85.7199643252153 -91.8610531739802,88.21996432522715 -90.03092615506918,90.05009134416949 -87.5309261550688,90.71996432527033" stroke="#00f" stroke-linecap="round" stroke-linejoin="round"/><polyline fill="none" points="-148.1498886063891,13.336423446204636 -145.64988860637726,12.666550465146578 -143.81976158743493,10.836423446235562 -143.1498886063341,8.336423446235171 -143.81976158739215,5.836423446223318 -145.64988860630316,4.006296427280985 -148.14988860630356,3.336423446180147 -150.64988860631541,4.006296427238203 -152.48001562525775,5.836423446149219 -153.1498886063586,8.33642344614961 -152.48001562530052,10.836423446161463 -150.6498886063895,12.666550465103798 -148.1498886063891,13.336423446204638" stroke="#00f" stroke-linecap="round" stroke-linejoin="round"/><polyline fill="none" points="-87.57064794665696,45.380497688523164 -85.07064794664511,44.71062470746511 -83.24052092770278,42.880497688554094 -82.57064794660194,40.3804976885537 -83.24052092765999,37.88049768854185 -85.070647946571,36.050370669599516 -87.57064794657138,35.38049768849868 -90.07064794658324,36.050370669556735 -91.90077496552557,37.88049768846775 -92.57064794662641,40.38049768846814 -91.90077496556836,42.88049768847999 -90.07064794665735,44.710624707422326 -87.57064794665696,45.38049768852317" stroke="#ffa500" stroke-linecap="round" stroke-linejoin="round"/><polyline fill="none" points="-27.45990247774584,-26.492091996539948 -24.959902477733984,-27.161964977598 -23.129775458791645,-28.992091996509014 -22.459902477690804,-31.492091996509405 -23.129775458748856,-33.99209199652126 -24.95990247765987,-35.8222190154636 -27.45990247766026,-36.49209199656445 -29.959902477672117,-35.8222190155064 -31.790029496614455,-33.992091996595384 -32.459902477715296,-31.492091996594993 -31.790029496657244,-28.992091996583138 -29.95990247774623,-27.1619649776408 -27.45990247774584,-26.492091996539955" stroke="#00f" stroke-linecap="round" stroke-linejoin="round"/><polyline fill="none" points="-133.86659998226563,-50.19471656434371 -131.36659998225377,-50.864589545401756 -129.53647296331144,-52.69471656431277 -128.8665999822106,-55.19471656431316 -129.53647296326866,-57.69471656432502 -131.36659998217968,-59.52484358326736 -133.86659998218008,-60.19471656436821 -136.36659998219193,-59.52484358331016 -138.19672700113426,-57.694716564399144 -138.8665999822351,-55.19471656439875 -138.19672700117707,-52.694716564386894 -136.36659998226605,-50.86458954544455 -133.86659998226565,-50.19471656434371" stroke="#ffa500" stroke-linecap="round" stroke-linejoin="round"/><polyline fill="none" points="-163.28818291615596,6.857564142947796 -160.7881829161441,6.187691161889748 -158.95805589720177,4.357564142978736 -158.28818291610094,1.857564142978346 -158.95805589715897,-0.6424358570335125 -160.78818291606999,-2.4725628759758553 -163.28818291607038,-3.1424358570767037 -165.78818291608223,-2.4725628760186567 -167.61830993502457,-0.6424358571076467 -168.2881829161254,1.8575641428927432 -167.61830993506737,4.357564142904602 -165.78818291615636,6.187691161846946 -163.28818291615596,6.857564142947795" stroke="#ffa500" stroke-linecap="round" stroke-linejoin="round"/><polyline fill="none" points="-161.2598474551569,-68.56636708666704 -158.75984745514504,-69.23624006772509 -156.9297204362027,-71.0663670866361 -156.25984745510186,-73.56636708663649 -156.9297204361599,-76.06636708664836 -158.7598474550709,-77.8964941055907 -161.2598474550713,-78.56636708669156 -163.75984745508316,-77.89649410563351 -165.5899744740255,-76.0663670867225 -166.25984745512636,-73.56636708672211 -165.58997447406833,-71.06636708671024 -163.7598474551573,-69.2362400677679 -161.25984745515692,-68.56636708666704" stroke="#ffa500" stroke-linecap="round" stroke-linejoin="round"/><polyline fill="none" points="-153.54113915749036,-69.28607165615269 -151.0411391574785,-69.95594463721073 -149.21101213853618,-71.78607165612175 -148.5411391574353,-74.28607165612213 -149.21101213849334,-76.786071656134 -151.04113915740436,-78.61619867507635 -153.54113915740476,-79.2860716561772 -156.0411391574166,-78.61619867511915 -157.87126617635894,-76.78607165620815 -158.5411391574598,-74.28607165620777 -157.87126617640178,-71.7860716561959 -156.04113915749076,-69.95594463725355 -153.54113915749036,-69.2860716561527" stroke="#00f" stroke-linecap="round" stroke-linejoin="round"/><polyline fill="none" points="-106.80035144404646,40.35022136128228 -104.30035144403459,39.68034838022424 -102.47022442509224,37.85022136131323 -101.80035144399139,35.35022136131284 -102.47022442504942,32.85022136130098 -104.30035144396042,31.020094342358632 -106.8003514439608,30.350221361257777 -109.30035144397267,31.020094342315815 -111.13047846291502,32.85022136122682 -111.80035144401587,35.35022136122721 -111.13047846295784,37.85022136123908 -109.30035144404684,39.68034838018143 -106.80035144404646,40.35022136128229" stroke="#ffa500" stroke-linecap="round" stroke-linejoin="round"/><polyline fill="none" points="-154.00146707750176,-85.35538342109113 -151.5014670774899,-86.02525640214917 -149.67134005854754,-87.85538342106017 -149.00146707744668,-90.35538342106057 -149.6713400585047,-92.85538342107243 -151.50146707741573,-94.68551044001478 -154.00146707741612,-95.35538342111565 -156.50146707742798,-94.68551044005761 -158.33159409637034,-92.85538342114661 -159.0014670774712,-90.35538342114623 -158.33159409641317,-87.85538342113436 -156.50146707750216,-86.02525640219201 -154.00146707750176,-85.35538342109115" stroke="#ffa500" stroke-linecap="round" stroke-linejoin="round"/><polyline fill="none" points="55.26701152376276,21.458675894486042 57.76701152377463,20.788802913428007 59.59713854271698,18.958675894517004 60.26701152381784,16.458675894516613 59.59713854275981,13.958675894504747 57.76701152384881,12.128548875562393 55.26701152384842,11.45867589446153 52.76701152383655,12.128548875519565 50.936884504894195,13.958675894430568 50.26701152379333,16.458675894430957 50.93688450485136,18.958675894442823 52.76701152376236,20.78880291338518 55.267011523762754,21.458675894486042" stroke="#ffa500" stroke-linecap="round" stroke-linejoin="round"/><polyline fill="none" points="-102.16214319033135,19.534107895432037 -99.66214319031948,18.864234914374002 -97.83201617137712,17.034107895463 -97.16214319027625,14.534107895462608 -97.83201617133429,12.034107895450742 -99.66214319024529,10.203980876508384 -102.16214319024567,9.534107895407518 -104.66214319025754,10.203980876465549 -106.4922702091999,12.03410789537655 -107.16214319030077,14.534107895376941 -106.49227020924273,17.034107895388807 -104.66214319033173,18.864234914331167 -102.16214319033135,19.534107895432033" stroke="#00f" stroke-linecap="round" stroke-linejoin="round"/><polyline fill="none" points="-136.01162408307096,-33.610439048301785 -133.51162408305908,-34.28031202935981 -131.6814970641167,-36.11043904827081 -131.01162408301585,-38.6104390482712 -131.68149706407388,-41.11043904828307 -133.5116240829849,-42.94056606722543 -136.0116240829853,-43.6104390483263 -138.51162408299717,-42.94056606726827 -140.34175110193954,-41.11043904835727 -141.0116240830404,-38.61043904835688 -140.34175110198237,-36.110439048345015 -138.51162408307138,-34.28031202940265 -136.01162408307098,-33.61043904830178" stroke="#00f" stroke-linecap="round" stroke-linejoin="round"/><polyline fill="none" points="-147.4875913063899,-55.26435999896505 -144.98759130637802,-55.934232980023076 -143.15746428743566,-57.764359998934076 -142.4875913063348,-60.26435999893447 -143.15746428739283,-62.76435999894634 -144.9875913063038,-64.5944870178887 -147.4875913063042,-65.26435999898956 -149.9875913063161,-64.59448701793154 -151.81771832525845,-62.76435999902054 -152.48759130635932,-60.26435999902015 -151.81771832530129,-57.76435999900828 -149.9875913063903,-55.934232980065914 -147.4875913063899,-55.26435999896504" stroke="#00f" stroke-linecap="round" stroke-linejoin="round"/><polyline fill="none" points="-90.25376977655047,103.33691597070869 -87.7537697765386,102.66704298965067 -85.92364275759624,100.83691597073967 -85.25376977649536,98.33691597073928 -85.92364275755338,95.83691597072742 -87.75376977646438,94.00678895178505 -90.25376977646476,93.33691597068417 -92.75376977647663,94.0067889517422 -94.583896795419,95.8369159706532 -95.25376977651987,98.33691597065358 -94.58389679546185,100.83691597066544 -92.75376977655085,102.66704298960781 -90.25376977655047,103.33691597070869" stroke="#ffa500" stroke-linecap="round" stroke-linejoin="round"/><polyline fill="none" points="-184.66427854507415,-71.45522694554184 -182.16427854506227,-72.12509992659986 -180.3341515261199,-73.95522694551086 -179.66427854501904,-76.45522694551124 -180.33415152607708,-78.95522694552312 -182.16427854498806,-80.78535396446549 -184.66427854498846,-81.45522694556637 -187.16427854500034,-80.78535396450835 -188.9944055639427,-78.95522694559735 -189.66427854504357,-76.45522694559696 -188.99440556398554,-73.95522694558508 -187.16427854507455,-72.12509992664272 -184.66427854507415,-71.45522694554184" stroke="#ffa500" stroke-linecap="round" stroke-linejoin="round"/><polyline fill="none" points="-44.642152635281995,62.538131383191526 -42.14215263527012,61.868258402133506 -40.31202561632775,60.03813138322251 -39.64215263522687,57.53813138322212 -40.31202561628489,55.03813138321025 -42.142152635195885,53.20800436426788 -44.642152635196275,52.538131383167 -47.14215263520815,53.20800436422502 -48.97227965415052,55.03813138313601 -49.6421526352514,57.5381313831364 -48.97227965419338,60.038131383148276 -47.142152635282386,61.868258402090646 -44.642152635281995,62.538131383191526" stroke="#ffa500" stroke-linecap="round" stroke-linejoin="round"/><polyline fill="none" points="-94.54703253463266,100.96654707150479 -92.04703253462078,100.29667409044677 -90.2169055156784,98.46654707153577 -89.54703253457753,95.96654707153537 -90.21690551563555,93.4665470715235 -92.04703253454655,91.63642005258112 -94.54703253454694,90.96654707148024 -97.04703253455882,91.63642005253826 -98.8771595535012,93.46654707144926 -99.54703253460208,95.96654707144965 -98.87715955354406,98.46654707146153 -97.04703253463306,100.29667409040391 -94.54703253463266,100.96654707150479" stroke="#ffa500" stroke-linecap="round" stroke-linejoin="round"/><polyline fill="none" points="-95.1172908384334,-22.139033478702 -92.61729083842152,-22.808906459760017 -90.78716381947915,-24.63903347867101 -90.11729083837827,-27.1390334786714 -90.78716381943629,-29.63903347868328 -92.61729083834729,-31.46916049762566 -95.11729083834769,-32.139033478726546 -97.61729083835957,-31.46916049766853 -99.44741785730194,-29.639033478757536 -100.11729083840282,-27.139033478757145 -99.4474178573448,-24.639033478745265 -97.61729083843382,-22.808906459802888 -95.11729083843342,-22.139033478702" stroke="#00f" stroke-linecap="round" stroke-linejoin="round"/><polyline fill="none" points="-179.5783774736287,-85.19136516535592 -177.07837747361683,-85.86123814641394 -175.24825045467443,-87.69136516532492 -174.57837747357354,-90.19136516532532 -175.24825045463155,-92.6913651653372 -177.07837747354253,-94.52149218427958 -179.57837747354293,-95.19136516538047 -182.0783774735548,-94.52149218432247 -183.9085044924972,-92.69136516541148 -184.5783774735981,-90.19136516541109 -183.9085044925401,-87.6913651653992 -182.0783774736291,-85.86123814645683 -179.5783774736287,-85.19136516535593" stroke="#00f" stroke-linecap="round" stroke-linejoin="round"/><polyline fill="none" points="-130.3675548042583,-81.96631410090087 -127.86755480424642,-82.63618708195888 -126.03742778530405,-84.46631410086987 -125.36755480420315,-86.96631410087026 -126.03742778526116,-89.46631410088214 -127.86755480417214,-91.29644111982452 -130.36755480417253,-91.96631410092542 -132.8675548041844,-91.29644111986741 -134.6976818231268,-89.46631410095642 -135.3675548042277,-86.96631410095603 -134.6976818231697,-84.46631410094415 -132.8675548042587,-82.63618708200177 -130.3675548042583,-81.96631410090087" stroke="#ffa500" stroke-linecap="round" stroke-linejoin="round"/><polyline fill="none" points="-113.76592867945804,35.24454386990865 -111.26592867944616,34.57467088885064 -109.43580166050378,32.74454386993965 -108.76592867940289,30.244543869939257 -109.4358016604609,27.744543869927373 -111.26592867937188,25.91441685098499 -113.76592867937228,25.244543869884094 -116.26592867938416,25.9144168509421 -118.09605569832654,27.74454386985309 -118.76592867942743,30.24454386985348 -118.09605569836943,32.74454386986537 -116.26592867945844,34.57467088880775 -113.76592867945804,35.24454386990865" stroke="#ffa500" stroke-linecap="round" stroke-linejoin="round"/><polyline fill="none" points="-95.15517597702758,93.85473886028464 -92.6551759770157,93.18486587922663 -90.82504895807331,91.35473886031565 -90.15517597697242,88.85473886031525 -90.82504895803042,86.35473886030337 -92.65517597694141,84.52461184136098 -95.1551759769418,83.85473886026008 -97.65517597695369,84.52461184131809 -99.48530299589608,86.35473886022908 -100.15517597699697,88.85473886022947 -99.48530299593897,91.35473886024135 -97.65517597702798,93.18486587918375 -95.15517597702758,93.85473886028464" stroke="#ffa500" stroke-linecap="round" stroke-linejoin="round"/><polyline fill="none" points="-116.99405497103994,24.843456247347596 -114.49405497102806,24.173583266289594 -112.66392795208567,22.343456247378608 -111.99405497098478,19.843456247378214 -112.66392795204278,17.343456247366326 -114.49405497095377,15.513329228423938 -116.99405497095417,14.843456247323038 -119.49405497096605,15.513329228381043 -121.32418198990844,17.34345624729203 -121.99405497100933,19.843456247292423 -121.32418198995133,22.34345624730431 -119.49405497104034,24.1735832662467 -116.99405497103994,24.8434562473476" stroke="#00f" stroke-linecap="round" stroke-linejoin="round"/><polyline fill="none" points="-166.39958398249107,-5.867447776914762 -163.8995839824792,-6.537320757972765 -162.0694569635368,-8.36744777688375 -161.3995839824359,-10.867447776884143 -162.0694569634939,-13.36744777689603 -163.8995839824049,-15.197574795838422 -166.3995839824053,-15.867447776939326 -168.89958398241717,-15.197574795881325 -170.72971100135956,-13.367447776970339 -171.39958398246046,-10.867447776969946 -170.72971100140245,-8.367447776958059 -168.89958398249146,-6.537320758015667 -166.39958398249107,-5.867447776914763" stroke="#ffa500" stroke-linecap="round" stroke-linejoin="round"/><polyline fill="none" points="-149.20795576327882,-70.56829853385105 -146.70795576326694,-71.23817151490906 -144.87782874432455,-73.06829853382004 -144.20795576322365,-75.56829853382044 -144.87782874428166,-78.06829853383233 -146.70795576319264,-79.89842555277473 -149.20795576319304,-80.56829853387563 -151.70795576320492,-79.89842555281764 -153.5380827821473,-78.06829853390666 -154.2079557632482,-75.56829853390626 -153.5380827821902,-73.06829853389436 -151.70795576327922,-71.23817151495197 -149.20795576327882,-70.56829853385106" stroke="#00f" stroke-linecap="round" stroke-linejoin="round"/><polyline fill="none" points="-181.50743680325635,-84.07598148956095 -179.00743680324447,-84.74585447061894 -177.17730978430208,-86.57598148952992 -176.5074368032012,-89.07598148953032 -177.1773097842592,-91.57598148954222 -179.00743680317018,-93.4061085084846 -181.50743680317058,-94.07598148958552 -184.00743680318246,-93.40610850852752 -185.83756382212485,-91.57598148961654 -186.50743680322577,-89.07598148961614 -185.83756382216777,-86.57598148960425 -184.00743680325678,-84.74585447066185 -181.50743680325638,-84.07598148956095" stroke="#ffa500" stroke-linecap="round" stroke-linejoin="round"/><polyline fill="none" points="-156.02370353537555,-63.81593338479823 -153.52370353536367,-64.48580636585622 -151.69357651642127,-66.3159333847672 -151.02370353532035,-68.8159333847676 -151.69357651637836,-71.3159333847795 -153.52370353528934,-73.14606040372189 -156.02370353528974,-73.8159333848228 -158.52370353530162,-73.1460604037648 -160.353830554244,-71.31593338485382 -161.02370353534494,-68.81593338485342 -160.35383055428693,-66.31593338484153 -158.52370353537594,-64.48580636589912 -156.02370353537555,-63.81593338479821" stroke="#008000" stroke-linecap="round" stroke-linejoin="round"/><polyline fill="none" points="-43.617506594805185,55.5555883947238 -41.11750659479329,54.88571541366581 -39.28737957585089,53.05558839475483 -38.617506594749976,50.55558839475444 -39.28737957580797,48.05558839474254 -41.11750659471895,46.225461375800144 -43.61750659471934,45.55558839469923 -46.11750659473123,46.22546137575722 -47.94763361367363,48.0555883946682 -48.61750659477455,50.55558839466859 -47.947633613716555,53.055588394680484 -46.117506594805576,54.88571541362288 -43.617506594805185,55.5555883947238" stroke="#ffa500" stroke-linecap="round" stroke-linejoin="round"/><polyline fill="none" points="53.22779905051183,4.4082762455655855 55.72779905052372,3.7384032645075953 57.55792606946613,1.9082762455966165 58.22779905056704,-0.5917237544037761 57.55792606950905,-3.0917237544156704 55.72779905059807,-4.921850773358074 53.22779905059768,-5.59172375445899 50.72779905058579,-4.921850773401001 48.89767203164338,-3.0917237544900225 48.227799050542465,-0.5917237544896299 48.89767203160046,1.908276245522265 50.727799050511436,3.7384032644646688 53.22779905051183,4.408276245565586" stroke="#ffa500" stroke-linecap="round" stroke-linejoin="round"/><polyline fill="none" points="-161.85873121287904,-79.04791334769045 -159.35873121286713,-79.71778632874845 -157.52860419392474,-81.54791334765942 -156.8587312128238,-84.04791334765982 -157.5286041938818,-86.54791334767171 -159.35873121279278,-88.37804036661412 -161.85873121279317,-89.04791334771504 -164.35873121280508,-88.37804036665705 -166.18885823174747,-86.54791334774607 -166.8587312128484,-84.04791334774568 -166.18885823179042,-81.54791334773378 -164.35873121287943,-79.71778632879138 -161.85873121287904,-79.04791334769045" stroke="#ffa500" stroke-linecap="round" stroke-linejoin="round"/><polyline fill="none" points="-185.6099613694312,-57.50439050401305 -183.1099613694193,-58.17426348507104 -181.27983435047688,-60.004390503982016 -180.60996136937595,-62.50439050398241 -181.27983435043393,-65.0043905039943 -183.10996136934492,-66.83451752293671 -185.6099613693453,-67.50439050403763 -188.10996136935722,-66.83451752297965 -189.94008838829964,-65.00439050406868 -190.60996136940057,-62.50439050406829 -189.9400883883426,-60.00439050405639 -188.1099613694316,-58.17426348511398 -185.6099613694312,-57.50439050401306" stroke="#00f" stroke-linecap="round" stroke-linejoin="round"/><polyline fill="none" points="-145.97336122260194,-94.15955554209748 -143.47336122259003,-94.82942852315546 -141.6432342036476,-96.65955554206643 -140.97336122254669,-99.15955554206683 -141.64323420360466,-101.65955554207872 -143.47336122251565,-103.48968256102113 -145.97336122251605,-104.15955554212205 -148.47336122252796,-103.48968256106407 -150.30348824147038,-101.6595555421531 -150.9733612225713,-99.1595555421527 -150.30348824151332,-96.65955554214081 -148.47336122260234,-94.8294285231984 -145.97336122260194,-94.15955554209748" stroke="#ffa500" stroke-linecap="round" stroke-linejoin="round"/><polyline fill="none" points="-139.01265809856332,-69.23071736561145 -136.5126580985514,-69.90059034666943 -134.682531079609,-71.7307173655804 -134.01265809850807,-74.2307173655808 -134.68253107956605,-76.7307173655927 -136.51265809847703,-78.56084438453512 -139.01265809847743,-79.23071736563604 -141.51265809848934,-78.56084438457806 -143.34278511743176,-76.73071736566709 -144.01265809853268,-74.23071736566669 -143.3427851174747,-71.73071736565478 -141.51265809856372,-69.90059034671236 -139.01265809856332,-69.23071736561144" stroke="#008000" stroke-linecap="round" stroke-linejoin="round"/><polyline fill="none" points="-107.2011722358311,25.754453155742492 -104.70117223581919,25.084580174684515 -102.87104521687677,23.254453155773543 -102.20117223577583,20.75445315577315 -102.8710452168338,18.254453155761247 -104.70117223574478,16.42432613681883 -107.20117223574518,15.754453155717899 -109.70117223575708,16.424326136775875 -111.5312992546995,18.254453155686846 -112.20117223580044,20.75445315568724 -111.53129925474246,23.254453155699146 -109.70117223583149,25.084580174641562 -107.2011722358311,25.754453155742496" stroke="#ffa500" stroke-linecap="round" stroke-linejoin="round"/><polyline fill="none" points="-169.08940070475694,-12.211431811507271 -166.58940070474503,-12.881304792565247 -164.7592736858026,-14.711431811476217 -164.0894007047017,-17.21143181147661 -164.75927368575967,-19.711431811488517 -166.58940070467062,-21.541558830430933 -169.08940070467102,-22.211431811531867 -171.58940070468293,-21.541558830473893 -173.41952772362535,-19.711431811562925 -174.08940070472627,-17.211431811562534 -173.4195277236683,-14.71143181155063 -171.58940070475734,-12.881304792608212 -169.08940070475694,-12.211431811507277" stroke="#ffa500" stroke-linecap="round" stroke-linejoin="round"/><polyline fill="none" points="-56.04208581368264,-51.183396263926014 -53.54208581367074,-51.853269244983984 -51.71195879472832,-53.683396263894956 -51.04208581362738,-56.18339626389535 -51.71195879468535,-58.68339626390725 -53.54208581359632,-60.51352328284967 -56.042085813596714,-61.183396263950605 -58.542085813608615,-60.513523282892635 -60.372212832551035,-58.68339626398166 -61.04208581365197,-56.18339626398127 -60.372212832594,-53.68339626396937 -58.54208581368303,-51.85326924502695 -56.04208581368264,-51.183396263926014" stroke="#ffa500" stroke-linecap="round" stroke-linejoin="round"/><polyline fill="none" points="-195.01493430930836,-82.16488710330617 -192.51493430929645,-82.83476008436415 -190.68480729035403,-84.66488710327512 -190.01493430925308,-87.16488710327552 -190.68480729031106,-89.66488710328743 -192.514934309222,-91.49501412222985 -195.0149343092224,-92.16488710333078 -197.51493430923432,-91.49501412227282 -199.34506132817674,-89.66488710336185 -200.0149343092777,-87.16488710336145 -199.3450613282197,-84.66488710334954 -197.51493430930876,-82.83476008440712 -195.01493430930836,-82.16488710330619" stroke="#00f" stroke-linecap="round" stroke-linejoin="round"/><polyline fill="none" points="-84.74101265930884,-52.233589777298235 -82.24101265929693,-52.903462758356206 -80.41088564035451,-54.73358977726717 -79.74101265925357,-57.23358977726756 -80.41088564031153,-59.73358977727947 -82.2410126592225,-61.5637167962219 -84.7410126592229,-62.23358977732284 -87.24101265923481,-61.56371679626487 -89.07113967817723,-59.733589777353906 -89.74101265927817,-57.233589777353515 -89.0711396782202,-54.73358977734161 -87.24101265930923,-52.90346275839918 -84.74101265930884,-52.233589777298235" stroke="#00f" stroke-linecap="round" stroke-linejoin="round"/><polyline fill="none" points="-86.97958974810905,-26.30283422136672 -84.47958974809714,-26.972707202424687 -82.64946272915472,-28.80283422133565 -81.97958974805378,-31.302834221336045 -82.64946272911175,-33.80283422134796 -84.47958974802272,-35.632961240290385 -86.97958974802312,-36.30283422139133 -89.47958974803502,-35.632961240333366 -91.30971676697746,-33.8028342214224 -91.97958974807841,-31.302834221422007 -91.30971676702045,-28.802834221410098 -89.47958974810948,-26.97270720246767 -86.97958974810908,-26.302834221366727" stroke="#ffa500" stroke-linecap="round" stroke-linejoin="round"/><polyline fill="none" points="-125.21303709523941,-51.738574374172536 -122.7130370952275,-52.4084473552305 -120.88291007628507,-54.238574374141464 -120.21303709518412,-56.738574374141855 -120.88291007624208,-59.238574374153764 -122.71303709515306,-61.06870139309619 -125.21303709515345,-61.738574374197135 -127.71303709516536,-61.06870139313917 -129.54316411410778,-59.23857437422821 -130.21303709520873,-56.73857437422782 -129.54316411415078,-54.23857437421591 -127.71303709523983,-52.40844735527347 -125.21303709523943,-51.73857437417252" stroke="#ffa500" stroke-linecap="round" stroke-linejoin="round"/><polyline fill="none" points="-163.31680510117383,-16.008127667041446 -160.81680510116192,-16.67800064809941 -158.9866780822195,-18.508127667010374 -158.31680510111855,-21.00812766701077 -158.9866780821765,-23.50812766702268 -160.81680510108745,-25.33825468596511 -163.31680510108785,-26.00812766706606 -165.81680510109976,-25.3382546860081 -167.64693212004218,-23.508127667097135 -168.31680510114313,-21.00812766709674 -167.64693212008518,-18.50812766708483 -165.81680510117423,-16.678000648142394 -163.31680510117383,-16.008127667041443" stroke="#ffa500" stroke-linecap="round" stroke-linejoin="round"/><polyline fill="none" points="-140.26529329357027,-66.52313390613932 -137.76529329355836,-67.19300688719728 -135.93516627461594,-69.02313390610824 -135.265293293515,-71.52313390610864 -135.93516627457294,-74.02313390612055 -137.7652932934839,-75.85326092506298 -140.2652932934843,-76.52313390616393 -142.7652932934962,-75.85326092510597 -144.59542031243865,-74.02313390619501 -145.2652932935396,-71.52313390619462 -144.59542031248165,-69.02313390618271 -142.7652932935707,-67.19300688724027 -140.2652932935703,-66.52313390613932" stroke="#00f" stroke-linecap="round" stroke-linejoin="round"/><polyline fill="none" points="-43.610570294544445,51.27437597595683 -41.11057029453253,50.60450299489887 -39.280443275590095,48.77437597598791 -38.61057029448914,46.27437597598752 -39.2804432755471,43.7743759759756 -41.11057029445806,41.94424895703317 -43.61057029445845,41.274375975932216 -46.110570294470364,41.94424895699017 -47.9406973134128,43.77437597590113 -48.61057029451376,46.27437597590152 -47.9406973134558,48.774375975913436 -46.11057029454484,50.60450299485588 -43.610570294544445,51.274375975956836" stroke="#00f" stroke-linecap="round" stroke-linejoin="round"/><polyline fill="none" points="-120.59348260385143,27.243622184697863 -118.0934826038395,26.573749203639906 -116.26335558489707,24.743622184728945 -115.59348260379612,22.24362218472855 -116.26335558485407,19.743622184716635 -118.09348260376503,17.913495165774197 -120.59348260376542,17.24362218467324 -123.09348260377735,17.91349516573119 -124.92360962271978,19.74362218464215 -125.59348260382073,22.243622184642543 -124.92360962276278,24.74362218465446 -123.09348260385183,26.5737492035969 -120.59348260385143,27.24362218469786" stroke="#ffa500" stroke-linecap="round" stroke-linejoin="round"/><polyline fill="none" points="-146.2475592769697,-50.1810363510323 -143.7475592769578,-50.850909332090254 -141.91743225801534,-52.68103635100121 -141.2475592769144,-55.18103635100161 -141.91743225797234,-57.681036351013525 -143.7475592768833,-59.511163369955966 -146.2475592768837,-60.181036351056925 -148.7475592768956,-59.511163369998975 -150.57768629583805,-57.68103635108802 -151.247559276939,-55.18103635108763 -150.57768629588105,-52.68103635107571 -148.7475592769701,-50.85090933213327 -146.2475592769697,-50.18103635103231" stroke="#008000" stroke-linecap="round" stroke-linejoin="round"/><polyline fill="none" points="-187.02833041893695,-72.90262274154941 -184.52833041892504,-73.57249572260736 -182.6982033999826,-75.40262274151831 -182.02833041888164,-77.90262274151871 -182.6982033999396,-80.40262274153064 -184.52833041885054,-82.23274976047308 -187.02833041885094,-82.90262274157405 -189.52833041886285,-82.2327497605161 -191.3584574378053,-80.40262274160514 -192.02833041890625,-77.90262274160474 -191.3584574378483,-75.40262274159282 -189.52833041893734,-73.57249572265037 -187.02833041893695,-72.90262274154941" stroke="#ffa500" stroke-linecap="round" stroke-linejoin="round"/><polyline fill="none" points="224.3604994518319,-112.19642955950432 226.86049945184382,-112.86630254056227 228.69062647078627,-114.69642955947323 229.36049945188722,-117.19642955947363 228.69062647082927,-119.69642955948555 226.86049945191832,-121.526556578428 224.36049945191792,-122.19642955952897 221.860499451906,-121.52655657847102 220.03037243296356,-119.69642955956006 219.36049945186258,-117.19642955955966 220.03037243292053,-114.69642955954774 221.8604994518315,-112.86630254060529 224.36049945183188,-112.19642955950432" stroke="#ffa500" stroke-linecap="round" stroke-linejoin="round"/></svg>