<?xml version="1.0" ?><!DOCTYPE svg  PUBLIC '-//W3C//DTD SVG 1.1//EN'  'http://www.w3.org/Graphics/SVG/1.1/DTD/svg11.dtd'><svg height="256.000" viewBox="-215.000 -141.000 477.000 256.000" width="477.000" xmlns="http://www.w3.org/2000/svg"><line fill="none" stroke="none" stroke-linecap="round" stroke-width="2.0" x1="0.0" x2="0.0" y1="0.0" y2="0.0"/><polygon fill="none" fill-rule="evenodd" points="0.0,0.0 0.0,0.0 0.0,0.0" stroke-linejoin="round"/><polyline fill="none" points="-154.4298686223134,-50.79089433280632 -151.9298686223013,-51.460767313864004 -150.0997416033586,-53.29089433277481 -149.42986862225735,-55.79089433277522 -150.09974160331504,-58.290894332787296 -151.92986862222585,-60.121021351730015 -154.42986862222625,-60.790894332831286 -156.92986862223833,-60.1210213517736 -158.75999564118104,-58.29089433286279 -159.4298686222823,-55.790894332862386 -158.7599956412246,-53.29089433285031 -156.9298686223138,-51.46076731390759 -154.4298686223134,-50.79089433280631" stroke="#00f" stroke-linecap="round" stroke-linejoin="round"/><polyline fill="none" points="-155.50797062103223,-69.64565533230517 -153.00797062102015,-70.31552831336285 -151.17784360207742,-72.14565533227365 -150.50797062097615,-74.64565533227405 -151.17784360203385,-77.14565533228613 -153.00797062094466,-78.97578235122884 -155.50797062094506,-79.64565533233012 -158.00797062095714,-78.97578235127244 -159.83809763989987,-77.14565533236164 -160.50797062100114,-74.64565533236124 -159.83809763994344,-72.14565533234916 -158.00797062103263,-70.31552831340645 -155.50797062103223,-69.64565533230517" stroke="#008000" stroke-linecap="round" stroke-linejoin="round"/><polyline fill="none" points="-120.0603951503696,-77.44111479950195 -117.56039515035752,-78.11098778055963 -115.7302681314148,-79.94111479947043 -115.06039515031352,-82.44111479947082 -115.7302681313712,-84.9411147994829 -117.560395150282,-86.77124181842562 -120.0603951502824,-87.4411147995269 -122.56039515029448,-86.77124181846922 -124.3905221692372,-84.94111479955842 -125.06039515033848,-82.44111479955802 -124.3905221692808,-79.94111479954594 -122.56039515037,-78.11098778060322 -120.0603951503696,-77.44111479950195" stroke="#ffa500" stroke-linecap="round" stroke-linejoin="round"/><polyline fill="none" points="-142.23394262299746,-71.29903724249303 -139.73394262298538,-71.96891022355071 -137.90381560404265,-73.79903724246151 -137.23394262294136,-76.2990372424619 -137.90381560399902,-78.79903724247399 -139.73394262290984,-80.6291642614167 -142.23394262291023,-81.29903724251798 -144.7339426229223,-80.6291642614603 -146.56406964186505,-78.7990372425495 -147.23394262296634,-76.2990372425491 -146.56406964190867,-73.79903724253701 -144.73394262299786,-71.96891022359428 -142.23394262299746,-71.299037242493" stroke="#008000" stroke-linecap="round" stroke-linejoin="round"/><polyline fill="none" points="-166.67539904052734,-41.65883658928788 -164.17539904051526,-42.32870957034555 -162.34527202157253,-44.15883658925635 -161.67539904047123,-46.65883658925676 -162.3452720215289,-49.158836589268844 -164.17539904043971,-50.98896360821157 -166.6753990404401,-51.658836589312855 -169.1753990404522,-50.98896360825518 -171.00552605939492,-49.15883658934438 -171.67539904049622,-46.65883658934398 -171.00552605943855,-44.15883658933189 -169.17539904052774,-42.328709570389165 -166.67539904052734,-41.65883658928788" stroke="#00f" stroke-linecap="round" stroke-linejoin="round"/><polyline fill="none" points="-154.414061764821,-92.44092444755789 -151.91406176480893,-93.11079742861557 -150.0839347458662,-94.94092444752637 -149.4140617647649,-97.44092444752677 -150.08393474582257,-99.94092444753886 -151.9140617647334,-101.7710514664816 -154.4140617647338,-102.44092444758289 -156.91406176474587,-101.77105146652522 -158.7441887836886,-99.94092444761442 -159.4140617647899,-97.44092444761402 -158.74418878373223,-94.94092444760193 -156.91406176482144,-93.1107974286592 -154.41406176482104,-92.4409244475579" stroke="#00f" stroke-linecap="round" stroke-linejoin="round"/><polyline fill="none" points="228.6916910638273,-120.13868026059154 231.1916910638394,-120.80855324164921 233.02181808278212,-122.63868026056001 233.6916910638834,-125.1386802605604 233.02181808282575,-127.6386802605725 231.19169106391496,-129.46880727951523 228.69169106391456,-130.13868026061652 226.19169106390248,-129.46880727955886 224.36156404495975,-127.63868026064806 223.69169106385846,-125.13868026064766 224.36156404491612,-122.63868026063557 226.1916910638269,-120.80855324169283 228.6916910638273,-120.13868026059154" stroke="#ffa500" stroke-linecap="round" stroke-linejoin="round"/><polyline fill="none" points="-199.07395376648958,-84.84414793033015 -196.5739537664775,-85.51402091138782 -194.74382674753477,-87.34414793029862 -194.07395376643348,-89.84414793029902 -194.74382674749114,-92.34414793031111 -196.57395376640193,-94.17427494925384 -199.07395376640233,-94.84414793035513 -201.5739537664144,-94.17427494929747 -203.40408078535714,-92.34414793038667 -204.07395376645843,-89.84414793038627 -203.40408078540077,-87.34414793037418 -201.57395376648998,-85.51402091143144 -199.07395376648958,-84.84414793033015" stroke="#00f" stroke-linecap="round" stroke-linejoin="round"/><polyline fill="none" points="64.76119382925154,-0.7408653903949558 67.26119382926363,-1.410738371452623 69.09132084820637,-3.240865390363421 69.76119382930766,-5.740865390363824 69.09132084824999,-8.240865390375918 67.26119382933919,-10.070992409318654 64.7611938293388,-10.74086539041995 62.2611938293267,-10.070992409362283 60.43106681038396,-8.240865390451486 59.76119382928266,-5.7408653904510825 60.431066810340326,-3.2408653904389886 62.26119382925112,-1.4107383714962507 64.76119382925152,-0.7408653903949536" stroke="#ffa500" stroke-linecap="round" stroke-linejoin="round"/><polyline fill="none" points="245.26452882570578,-119.6496170685272 247.7645288257179,-120.31949004958487 249.59465584466062,-122.14961706849567 250.26452882576191,-124.64961706849607 249.59465584470425,-127.14961706850816 247.76452882579346,-128.9797440874509 245.26452882579306,-129.6496170685522 242.76452882578096,-128.97974408749454 240.93440180683822,-127.14961706858374 240.26452882573693,-124.64961706858334 240.9344018067946,-122.14961706857125 242.76452882570538,-120.31949004962851 245.26452882570578,-119.64961706852722" stroke="#00f" stroke-linecap="round" stroke-linejoin="round"/><polyline fill="none" points="-134.69182023096462,-78.85414181837139 -132.19182023095252,-79.52401479942905 -130.36169321200978,-81.35414181833985 -129.6918202309085,-83.85414181834025 -130.36169321196616,-86.35414181835235 -132.19182023087694,-88.1842688372951 -134.69182023087734,-88.8541418183964 -137.19182023088945,-88.18426883733873 -139.02194724983218,-86.35414181842793 -139.69182023093347,-83.85414181842754 -139.0219472498758,-81.35414181841544 -137.19182023096502,-79.5240147994727 -134.69182023096462,-78.85414181837139" stroke="#00f" stroke-linecap="round" stroke-linejoin="round"/><polyline fill="none" points="-32.07370714369325,-1.8797383955510414 -29.57370714368115,-2.549611376608702 -27.743580124738408,-4.379738395519497 -27.073707143637105,-6.879738395519899 -27.743580124694766,-9.379738395531996 -29.57370714360556,-11.20986541447474 -32.073707143605965,-11.879738395576043 -34.573707143618066,-11.209865414518383 -36.40383416256081,-9.379738395607589 -37.07370714366212,-6.879738395607186 -36.40383416260446,-4.379738395595088 -34.57370714369367,-2.5496113766523436 -32.07370714369326,-1.8797383955510387" stroke="#00f" stroke-linecap="round" stroke-linejoin="round"/><polyline fill="none" points="-107.37001189889591,-67.67620183114116 -104.87001189888382,-68.34607481219881 -103.03988487994107,-70.1762018311096 -102.37001189883976,-72.67620183110999 -103.03988487989741,-75.17620183112209 -104.8700118988082,-77.00632885006483 -107.3700118988086,-77.67620183116614 -109.87001189882069,-77.00632885010849 -111.70013891776344,-75.1762018311977 -112.37001189886475,-72.6762018311973 -111.7001389178071,-70.17620183118521 -109.87001189889631,-68.34607481224246 -107.37001189889591,-67.67620183114116" stroke="#ffa500" stroke-linecap="round" stroke-linejoin="round"/><polyline fill="none" points="-72.50801373793708,22.6174678182691 -70.00801373792498,21.947594837211444 -68.17788671898224,20.117467818300653 -67.50801373788093,17.617467818300252 -68.17788671893858,15.117467818288151 -70.00801373784937,13.287340799345404 -72.50801373784977,12.617467818244096 -75.00801373786186,13.28734079930175 -76.8381407568046,15.11746781821254 -77.50801373790591,17.617467818212944 -76.83814075684826,20.117467818225045 -75.00801373793747,21.947594837167795 -72.50801373793708,22.617467818269105" stroke="#ffa500" stroke-linecap="round" stroke-linejoin="round"/><polyline fill="none" points="-106.52484550773958,-49.40595564802687 -104.02484550772748,-50.07582862908452 -102.19471848878473,-51.90595564799531 -101.52484550768342,-54.40595564799572 -102.19471848874107,-56.90595564800782 -104.02484550765186,-58.736082666950566 -106.52484550765226,-59.40595564805188 -109.02484550766437,-58.73608266699423 -110.85497252660711,-56.90595564808344 -111.52484550770842,-54.40595564808304 -110.85497252665077,-51.905955648070936 -109.02484550773998,-50.07582862912818 -106.52484550773958,-49.40595564802687" stroke="#ffa500" stroke-linecap="round" stroke-linejoin="round"/><polyline fill="none" points="-142.16339313401477,-88.96851785481817 -139.66339313400266,-89.63839083587582 -137.8332661150599,-91.46851785478661 -137.16339313395858,-93.96851785478701 -137.83326611501622,-96.46851785479912 -139.663393133927,-98.29864487374186 -142.1633931339274,-98.96851785484318 -144.6633931339395,-98.29864487378553 -146.49352015288227,-96.46851785487475 -147.1633931339836,-93.96851785487435 -146.49352015292595,-91.46851785486224 -144.66339313401517,-89.63839083591948 -142.16339313401477,-88.96851785481816" stroke="#00f" stroke-linecap="round" stroke-linejoin="round"/><polyline fill="none" points="-141.74845685853668,-50.00250916027131 -139.24845685852458,-50.67238214132896 -137.41832983958182,-52.50250916023975 -136.7484568584805,-55.00250916024015 -137.41832983953813,-57.50250916025226 -139.24845685844892,-59.33263617919501 -141.74845685844932,-60.00250916029633 -144.24845685846142,-59.332636179238676 -146.07858387740418,-57.50250916032789 -146.7484568585055,-55.002509160327484 -146.07858387744787,-52.50250916031538 -144.24845685853708,-50.67238214137262 -141.74845685853668,-50.0025091602713" stroke="#00f" stroke-linecap="round" stroke-linejoin="round"/><polyline fill="none" points="-112.79534794475795,32.650726439250676 -110.29534794474584,31.980853458193028 -108.46522092580308,30.15072643928224 -107.79534794470176,27.65072643928184 -108.46522092575941,25.150726439269736 -110.2953479446702,23.320599420326978 -112.7953479446706,22.650726439225657 -115.2953479446827,23.3205994202833 -117.12547496362546,25.150726439194088 -117.79534794472679,27.65072643919449 -117.12547496366913,30.150726439206593 -115.29534794475835,31.98085345814935 -112.79534794475795,32.650726439250676" stroke="#ffa500" stroke-linecap="round" stroke-linejoin="round"/><polyline fill="none" points="-153.24194172937996,-93.504207016959 -150.74194172936785,-94.17407999801664 -148.9118147104251,-96.00420701692742 -148.24194172932377,-98.50420701692782 -148.9118147103814,-101.00420701693993 -150.7419417292922,-102.83433403588269 -153.2419417292926,-103.50420701698401 -155.7419417293047,-102.83433403592637 -157.57206874824746,-101.00420701701559 -158.24194172934878,-98.50420701701519 -157.57206874829114,-96.00420701700308 -155.74194172938036,-94.17407999806032 -153.24194172937996,-93.504207016959" stroke="#00f" stroke-linecap="round" stroke-linejoin="round"/><polyline fill="none" points="51.15183247955573,12.205040986716206 53.65183247956784,11.535168005658564 55.4819594985106,9.70504098674778 56.151832479611926,7.2050409867473775 55.48195949855428,4.70504098673527 53.6518324796435,2.8749139677925077 51.1518324796431,2.2050409866911824 48.65183247963099,2.8749139677488227 46.82170546068823,4.705040986659605 46.1518324795869,7.205040986660007 46.82170546064454,9.705040986672117 48.65183247955532,11.53516800561488 51.15183247955572,12.205040986716206" stroke="#00f" stroke-linecap="round" stroke-linejoin="round"/><polyline fill="none" points="-18.597737590530006,-24.188417694578483 -16.097737590517898,-24.858290675636123 -14.267610571575133,-26.688417694546906 -13.597737590473805,-29.188417694547308 -14.267610571531444,-31.68841769455942 -16.097737590442225,-33.51854471350218 -18.597737590442627,-34.18841769460351 -21.097737590454734,-33.51854471354587 -22.9278646093975,-31.688417694635092 -23.597737590498827,-29.18841769463469 -22.92786460944119,-26.68841769462258 -21.09773759053041,-24.858290675679815 -18.59773759053001,-24.188417694578487" stroke="#ffa500" stroke-linecap="round" stroke-linejoin="round"/><polyline fill="none" points="-188.60097673523416,-90.67004207614283 -186.10097673522205,-91.33991505720047 -184.2708497162793,-93.17004207611126 -183.60097673517797,-95.67004207611166 -184.2708497162356,-98.17004207612376 -186.1009767351464,-100.00016909506652 -188.6009767351468,-100.67004207616786 -191.1009767351589,-100.00016909511022 -192.93110375410166,-98.17004207619944 -193.60097673520298,-95.67004207619904 -192.93110375414534,-93.17004207618693 -191.10097673523455,-91.33991505724417 -188.60097673523416,-90.67004207614283" stroke="#ffa500" stroke-linecap="round" stroke-linejoin="round"/><polyline fill="none" points="39.41330027337695,-13.836847181259586 41.91330027338906,-14.50672016231722 43.74342729233183,-16.336847181228 44.413300273433165,-18.8368471812284 43.74342729237553,-21.33684718124051 41.91330027346475,-23.16697420018328 39.413300273464344,-23.836847181284615 36.91330027345223,-23.16697420022698 35.08317325450946,-21.3368471813162 34.413300273408126,-18.8368471813158 35.083173254465756,-16.33684718130369 36.913300273376535,-14.506720162360919 39.41330027337694,-13.836847181259584" stroke="#ffa500" stroke-linecap="round" stroke-linejoin="round"/><polyline fill="none" points="-148.78669348521046,-52.2203473103729 -146.28669348519836,-52.89022029143053 -144.4565664662556,-54.72034731034131 -143.78669348515425,-57.220347310341715 -144.45656646621188,-59.72034731035383 -146.28669348512267,-61.550474329296605 -148.78669348512307,-62.22034731039794 -151.28669348513517,-61.55047432934031 -153.11682050407794,-59.72034731042953 -153.78669348517928,-57.220347310429126 -153.11682050412165,-54.72034731041701 -151.28669348521086,-52.890220291474236 -148.78669348521046,-52.2203473103729" stroke="#00f" stroke-linecap="round" stroke-linejoin="round"/><polyline fill="none" points="-83.54030559334734,93.0758844767456 -81.04030559333523,92.40601149568796 -79.21017857439246,90.57588447677719 -78.54030559329112,88.07588447677679 -79.21017857434875,85.57588447676468 -81.04030559325952,83.74575745782191 -83.54030559325992,83.07588447672057 -86.04030559327202,83.7457574577782 -87.8704326122148,85.57588447668897 -88.54030559331613,88.07588447668937 -87.87043261225851,90.57588447670149 -86.04030559334774,92.40601149564426 -83.54030559334734,93.0758844767456" stroke="#ffa500" stroke-linecap="round" stroke-linejoin="round"/><polyline fill="none" points="-25.837162991064528,-1.7013991187220965 -23.337162991052413,-2.371272099779724 -21.507035972109637,-4.2013991186904995 -20.837162991008295,-6.701399118690903 -21.50703597206592,-9.20139911870302 -23.337162990976697,-11.031526137645795 -25.8371629909771,-11.701399118747137 -28.337162990989214,-11.03152613768951 -30.16729000993199,-9.201399118778737 -30.83716299103333,-6.701399118778333 -30.167290009975705,-4.201399118766217 -28.33716299106493,-2.3712720998234396 -25.837162991064528,-1.701399118722097" stroke="#ffa500" stroke-linecap="round" stroke-linejoin="round"/><polyline fill="none" points="234.6353190349655,-116.35155569736273 237.1353190349776,-117.02142867842035 238.9654460539204,-118.85155569733112 239.63531903502175,-121.35155569733152 238.96544605396411,-123.85155569734364 237.13531903505333,-125.68168271628642 234.63531903505293,-126.35155569738777 232.13531903504082,-125.68168271633014 230.30519201609803,-123.85155569741937 229.63531903499668,-121.35155569741897 230.30519201605432,-118.85155569740685 232.1353190349651,-117.02142867846408 234.6353190349655,-116.35155569736273" stroke="#ffa500" stroke-linecap="round" stroke-linejoin="round"/><polyline fill="none" points="-121.06163424968793,-63.258814105458654 -118.5616342496758,-63.92868708651628 -116.73150723073303,-65.75881410542705 -116.06163424963168,-68.25881410542745 -116.7315072306893,-70.75881410543957 -118.56163424960008,-72.58894112438234 -121.06163424960047,-73.2588141054837 -123.5616342496126,-72.58894112442607 -125.39176126855537,-70.7588141055153 -126.06163424965672,-68.2588141055149 -125.3917612685991,-65.75881410550278 -123.56163424968832,-63.92868708656 -121.06163424968793,-63.25881410545865" stroke="#ffa500" stroke-linecap="round" stroke-linejoin="round"/><polyline fill="none" points="-70.11264771957057,34.85330239547835 -67.61264771955845,34.18342941442073 -65.78252070061568,32.35330239550996 -65.11264771951433,29.853302395509555 -65.78252070057195,27.353302395497437 -67.61264771948272,25.523175376554654 -70.11264771948312,24.853302395453305 -72.61264771949524,25.523175376510924 -74.44277473843803,27.353302395421693 -75.11264771953938,29.853302395422094 -74.44277473848176,32.35330239543421 -72.61264771957099,34.183429414376995 -70.11264771957059,34.853302395478345" stroke="#ffa500" stroke-linecap="round" stroke-linejoin="round"/><polyline fill="none" points="-113.64805356110972,-30.286196243203236 -111.1480535610976,-30.956069224260855 -109.31792654215481,-32.786196243171624 -108.64805356105346,-35.28619624317203 -109.31792654211108,-37.78619624318415 -111.14805356102185,-39.61632326212693 -113.64805356102225,-40.28619624322828 -116.14805356103437,-39.61632326217067 -117.97818057997716,-37.786196243259894 -118.64805356107851,-35.28619624325949 -117.97818058002089,-32.78619624324737 -116.14805356111012,-30.95606922430458 -113.64805356110972,-30.28619624320323" stroke="#ffa500" stroke-linecap="round" stroke-linejoin="round"/><polyline fill="none" points="42.03725478464641,-2.0782579004938526 44.53725478465853,-2.748130881551468 46.36738180360132,-4.578257900462236 47.037254784702675,-7.0782579004626385 46.36738180364506,-9.57825790047476 44.537254784734294,-11.408384919417548 42.03725478473389,-12.078257900518903 39.53725478472177,-11.40838491946129 37.70712776577898,-9.578257900550522 37.03725478467762,-7.07825790055012 37.70712776573524,-4.578257900537997 39.537254784646,-2.7481308815952077 42.03725478464641,-2.078257900493851" stroke="#ffa500" stroke-linecap="round" stroke-linejoin="round"/><polyline fill="none" points="6.3170771560740295,-26.755394318445976 8.817077156086153,-27.425267299503588 10.647204175028943,-29.255394318414353 11.3170771561303,-31.755394318414755 10.647204175072687,-34.25539431842688 8.817077156161922,-36.08552133736967 6.3170771561615195,-36.755394318471026 3.817077156149395,-36.08552133741342 1.9869501372066039,-34.25539431850265 1.3170771561052448,-31.75539431850225 1.9869501371628557,-29.255394318490126 3.817077156073621,-27.425267299547333 6.317077156074023,-26.755394318445973" stroke="#00f" stroke-linecap="round" stroke-linejoin="round"/><polyline fill="none" points="-126.86412925724132,27.111258166577006 -124.3641292572292,26.441385185519394 -122.5340022382864,24.61125816660863 -121.86412925718504,22.111258166608227 -122.53400223824265,19.6112581665961 -124.36412925715341,17.78113114765331 -126.8641292571538,17.11125816655195 -129.36412925716593,17.781131147609557 -131.19425627610872,19.611258166520322 -131.86412925721007,22.111258166520724 -131.19425627615246,24.61125816653285 -129.3641292572417,26.441385185475642 -126.8641292572413,27.111258166577006" stroke="#00f" stroke-linecap="round" stroke-linejoin="round"/><polyline fill="none" points="-14.022645983350941,52.81667496765957 -11.522645983338814,52.146801986601965 -9.692518964396019,50.3166749676912 -9.022645983294655,47.816674967690794 -9.692518964352264,45.316674967678665 -11.522645983263027,43.48654794873587 -14.02264598326343,42.816674967634505 -16.52264598327556,43.48654794869211 -18.352773002218356,45.31667496760288 -19.02264598331972,47.816674967603284 -18.352773002262115,50.31667496761541 -16.522645983351353,52.14680198655821 -14.02264598335095,52.81667496765957" stroke="#ffa500" stroke-linecap="round" stroke-linejoin="round"/><polyline fill="none" points="-13.510270404080636,57.714328808064366 -11.010270404068507,57.04445582700676 -9.18014338512571,55.21432880809599 -8.510270404024343,52.71432880809559 -9.180143385081948,50.21432880808346 -11.01027040399271,48.38420178914066 -13.510270403993113,47.7143288080393 -16.01027040400524,48.384201789096906 -17.840397422948037,50.21432880800767 -18.510270404049404,52.71432880800808 -17.8403974229918,55.214328808020205 -16.010270404081037,57.044455826963 -13.510270404080634,57.71432880806437" stroke="#ffa500" stroke-linecap="round" stroke-linejoin="round"/><polyline fill="none" points="234.82774834456163,-112.03861572374896 237.32774834457376,-112.70848870480657 239.15787536351655,-114.53861572371733 239.82774834461793,-117.03861572371773 239.15787536356032,-119.53861572372986 237.32774834464956,-121.36874274267267 234.82774834464917,-122.03861572377403 232.32774834463703,-121.36874274271642 230.49762132569424,-119.53861572380566 229.82774834459286,-117.03861572380526 230.49762132565047,-114.53861572379313 232.32774834456123,-112.70848870485032 234.82774834456163,-112.03861572374895" stroke="#ffa500" stroke-linecap="round" stroke-linejoin="round"/><polyline fill="none" points="-71.01223010527183,31.580729769802016 -68.51223010525969,30.910856788744415 -66.68210308631689,29.080729769833656 -66.01223010521551,26.580729769833255 -66.6821030862731,24.080729769821122 -68.51223010518386,22.25060275087832 -71.01223010518426,21.580729769776948 -73.5122301051964,22.25060275083455 -75.3423571241392,24.080729769745307 -76.01223010524058,26.58072976974571 -75.34235712418298,29.08072976975784 -73.51223010527222,30.910856788700645 -71.01223010527183,31.58072976980202" stroke="#ffa500" stroke-linecap="round" stroke-linejoin="round"/><polyline fill="none" points="64.1361400035729,15.674315903234595 66.63614000358504,15.004442922176995 68.46626702252784,13.174315903266237 69.13614000362922,10.674315903265834 68.46626702257163,8.174315903253701 66.63614000366087,6.344188884310896 64.13614000366047,5.6743159032095205 61.636140003648336,6.344188884267118 59.80601298470553,8.174315903177876 59.136140003604154,10.674315903178279 59.80601298466175,13.174315903190413 61.63614000357251,15.004442922133219 64.1361400035729,15.674315903234595" stroke="#ffa500" stroke-linecap="round" stroke-linejoin="round"/><polyline fill="none" points="231.9050630492331,-106.29644800010463 234.40506304924523,-106.96632098116223 236.23519006818805,-108.79644800007298 236.90506304928942,-111.29644800007338 236.23519006823182,-113.79644800008552 234.40506304932106,-115.62657501902832 231.90506304932066,-116.2964480001297 229.40506304930852,-115.6265750190721 227.5749360303657,-113.79644800016135 226.90506304926433,-111.29644800016095 227.57493603032194,-108.79644800014881 229.4050630492327,-106.96632098120601 231.9050630492331,-106.29644800010463" stroke="#ffa500" stroke-linecap="round" stroke-linejoin="round"/><polyline fill="none" points="66.817638111988,21.40114265202826 69.31763811200014,20.731269670970665 71.14776513094294,18.90114265205991 71.81763811204432,16.401142652059505 71.14776513098673,13.901142652047369 69.31763811207597,12.07101563310456 66.81763811207557,11.40114265200318 64.31763811206343,12.071015633060773 62.487511093120624,13.90114265197153 61.817638112019246,16.40114265197193 62.48751109307684,18.901142651984067 64.31763811198759,20.731269670926878 66.81763811198799,21.40114265202826" stroke="#ffa500" stroke-linecap="round" stroke-linejoin="round"/><polyline fill="none" points="69.51918657909702,-0.19707345297527556 72.01918657910916,-0.8669464340328673 73.84931359805198,-2.697073452943622 74.51918657915336,-5.197073452944025 73.84931359809576,-7.697073452956161 72.019186579185,-9.527200471898972 69.5191865791846,-10.197073453000355 67.01918657917247,-9.527200471942765 65.18905956022965,-7.697073453032011 64.51918657912827,-5.197073453031608 65.18905956018587,-2.697073453019471 67.01918657909663,-0.866946434076658 69.51918657909702,-0.197073452975274" stroke="#ffa500" stroke-linecap="round" stroke-linejoin="round"/><polyline fill="none" points="-149.18054817767305,-82.05478814313915 -146.6805481776609,-82.72466112419674 -144.8504211587181,-84.5547881431075 -144.1805481776167,-87.0547881431079 -144.8504211586743,-89.55478814312004 -146.68054817758505,-91.38491516206285 -149.18054817758545,-92.05478814316425 -151.6805481775976,-91.38491516210665 -153.5106751965404,-89.55478814319589 -154.18054817764178,-87.0547881431955 -153.5106751965842,-84.55478814318336 -151.68054817767344,-82.72466112424054 -149.18054817767305,-82.05478814313915" stroke="#ffa500" stroke-linecap="round" stroke-linejoin="round"/><polyline fill="none" points="64.73320653233917,5.978588526164089 67.2332065323513,5.308715545106502 69.06333355129412,3.4785885261957494 69.73320653239551,0.9785885261953466 69.06333355133793,-1.5214114738167925 67.23320653242718,-3.351538492759609 64.73320653242678,-4.021411473860997 62.23320653241464,-3.351538492803411 60.40307951347182,-1.5214114738926598 59.73320653237043,0.9785885261077429 60.40307951342802,3.478588526119883 62.23320653233877,5.3087155450627 64.73320653233917,5.978588526164089" stroke="#ffa500" stroke-linecap="round" stroke-linejoin="round"/><polyline fill="none" points="-157.6537670418076,-54.2701929530649 -155.15376704179548,-54.94006593412249 -153.32364002285266,-56.77019295303324 -152.65376704175128,-59.27019295303364 -153.32364002280886,-61.770192953045786 -155.15376704171962,-63.600319971988604 -157.65376704172002,-64.27019295308999 -160.15376704173215,-63.6003199720324 -161.98389406067497,-61.77019295312165 -162.65376704177635,-59.270192953121246 -161.98389406071877,-56.7701929531091 -160.153767041808,-54.940065934166284 -157.6537670418076,-54.27019295306489" stroke="#008000" stroke-linecap="round" stroke-linejoin="round"/><polyline fill="none" points="-119.719645435572,35.70490008430899 -117.21964543555987,35.03502710325141 -115.38951841661705,33.20490008434066 -114.71964543551566,30.704900084340252 -115.38951841657324,28.20490008432811 -117.21964543548398,26.374773065385288 -119.71964543548438,25.704900084283896 -122.21964543549652,26.374773065341476 -124.04977245443933,28.204900084252223 -124.71964543554073,30.704900084252625 -124.04977245448315,33.204900084264764 -122.2196454355724,35.03502710320759 -119.719645435572,35.70490008430898" stroke="#ffa500" stroke-linecap="round" stroke-linejoin="round"/><polyline fill="none" points="-24.34914256737335,8.353515885655188 -21.849142567361206,7.683642904597608 -20.01901554841838,5.8535158856868605 -19.349142567316985,3.3535158856864578 -20.019015548374565,0.8535158856743141 -21.849142567285313,-0.9766111332685095 -24.349142567285714,-1.6464841143699056 -26.849142567297857,-0.9766111333123267 -28.679269586240682,0.8535158855984203 -29.349142567342078,3.353515885598823 -28.679269586284498,5.8535158856109675 -26.84914256737375,7.683642904553793 -24.34914256737335,8.35351588565519" stroke="#ffa500" stroke-linecap="round" stroke-linejoin="round"/><polyline fill="none" points="-100.21082016138087,8.589014353249313 -97.71082016136872,7.919141372191736 -95.88069314242588,6.089014353280989 -95.21082016132449,3.5890143532805863 -95.88069314238207,1.0890143532684413 -97.71082016129282,-0.7411126656743847 -100.21082016129321,-1.4109856467757838 -102.71082016130536,-0.7411126657182072 -104.5409471802482,1.0890143531925387 -105.2108201613496,3.5890143531929413 -104.54094718029202,6.089014353205087 -102.71082016138128,7.919141372147914 -100.21082016138088,8.589014353249315" stroke="#ffa500" stroke-linecap="round" stroke-linejoin="round"/><polyline fill="none" points="-177.30248692726715,-14.934822190367676 -174.80248692725502,-15.60469517142525 -172.9723599083122,-17.434822190335996 -172.3024869272108,-19.934822190336398 -172.97235990826837,-22.434822190348545 -174.80248692717913,-24.264949209291373 -177.30248692717953,-24.934822190392776 -179.80248692719167,-24.264949209335203 -181.63261394613448,-22.43482219042446 -182.3024869272359,-19.934822190424057 -181.6326139461783,-17.43482219041191 -179.80248692726758,-15.604695171469082 -177.30248692726718,-14.93482219036768" stroke="#00f" stroke-linecap="round" stroke-linejoin="round"/><polyline fill="none" points="-162.78060964292075,-20.91614421543229 -160.28060964290862,-21.586017196489863 -158.4504826239658,-23.416144215400607 -157.7806096428644,-25.916144215401008 -158.45048262392197,-28.416144215413155 -160.2806096428327,-30.246271234355987 -162.7806096428331,-30.916144215457393 -165.28060964284523,-30.24627123439982 -167.11073666178805,-28.416144215489076 -167.78060964288946,-25.916144215488675 -167.11073666183188,-23.41614421547653 -165.28060964292115,-21.586017196533696 -162.78060964292075,-20.91614421543229" stroke="#00f" stroke-linecap="round" stroke-linejoin="round"/><polyline fill="none" points="-145.72326391836935,-11.761794518050436 -143.22326391835722,-12.431667499108007 -141.39313689941437,-14.26179451801875 -140.72326391831297,-16.76179451801915 -141.39313689937055,-19.2617945180313 -143.22326391828128,-21.091921536974134 -145.72326391828167,-21.76179451807554 -148.2232639182938,-21.09192153701797 -150.05339093723666,-19.26179451810723 -150.72326391833806,-16.76179451810683 -150.05339093728048,-14.261794518094678 -148.22326391836975,-12.431667499151844 -145.72326391836935,-11.761794518050436" stroke="#ffa500" stroke-linecap="round" stroke-linejoin="round"/><polyline fill="none" points="-84.21422675814519,45.048783303447046 -81.71422675813304,44.37891032238948 -79.8840997391902,42.548783303478736 -79.2142267580888,40.04878330347833 -79.88409973914636,37.54878330346618 -81.71422675805711,35.71865628452335 -84.2142267580575,35.048783303421935 -86.71422675806966,35.7186562844795 -88.54435377701249,37.54878330339024 -89.2142267581139,40.04878330339064 -88.54435377705633,42.54878330340279 -86.71422675814559,44.37891032234563 -84.21422675814519,45.048783303447046" stroke="#ffa500" stroke-linecap="round" stroke-linejoin="round"/><polyline fill="none" points="-28.355863510421567,61.56105062201697 -25.855863510409417,60.891177640959405 -24.02573649146658,59.06105062204867 -23.355863510365168,56.56105062204826 -24.025736491422734,54.06105062203611 -25.855863510333474,52.230923603093274 -28.355863510333876,51.56105062199186 -30.855863510346026,52.230923603049426 -32.685990529288866,54.06105062196016 -33.35586351039028,56.56105062196057 -32.68599052933271,59.06105062197272 -30.855863510421976,60.89117764091556 -28.355863510421575,61.56105062201697" stroke="#ffa500" stroke-linecap="round" stroke-linejoin="round"/><polyline fill="none" points="-89.09974734648029,-27.626505106541167 -86.59974734646813,-28.296378087598733 -84.76962032752529,-30.12650510650947 -84.09974734642387,-32.626505106509875 -84.76962032748143,-35.126505106522025 -86.59974734639218,-36.956632125464864 -89.09974734639258,-37.62650510656628 -91.59974734640473,-36.95663212550871 -93.42987436534757,-35.126505106597975 -94.09974734644899,-32.62650510659757 -93.42987436539143,-30.126505106585416 -91.59974734648068,-28.296378087642573 -89.09974734648029,-27.626505106541156" stroke="#00f" stroke-linecap="round" stroke-linejoin="round"/><polyline fill="none" points="-151.32154339492197,-59.86005099507031 -148.8215433949098,-60.52992397612787 -146.99141637596696,-62.360050995038605 -146.32154339486556,-64.860050995039 -146.9914163759231,-67.36005099505115 -148.82154339483384,-69.190178013994 -151.32154339483424,-69.86005099509542 -153.8215433948464,-69.19017801403785 -155.65167041378925,-67.36005099512712 -156.32154339489065,-64.86005099512673 -155.6516704138331,-62.36005099511457 -153.82154339492237,-60.52992397617172 -151.32154339492197,-59.8600509950703" stroke="#00f" stroke-linecap="round" stroke-linejoin="round"/><polyline fill="none" points="-87.78138855506823,101.97834109637176 -85.28138855505608,101.3084681153142 -83.45126153611324,99.47834109640347 -82.78138855501182,96.97834109640307 -83.45126153606937,94.47834109639092 -85.2813885549801,92.64821407744807 -87.7813885549805,91.97834109634665 -90.28138855499265,92.6482140774042 -92.11151557393549,94.47834109631494 -92.78138855503691,96.97834109631533 -92.11151557397936,99.47834109632748 -90.28138855506863,101.30846811527033 -87.78138855506823,101.97834109637175" stroke="#ffa500" stroke-linecap="round" stroke-linejoin="round"/><polyline fill="none" points="-139.78913413258337,-13.278578316363955 -137.2891341325712,-13.948451297421512 -135.45900711362836,-15.778578316332245 -134.78913413252693,-18.27857831633265 -135.45900711358448,-20.778578316344806 -137.2891341324952,-22.608705335287652 -139.7891341324956,-23.278578316389076 -142.28913413250777,-22.60870533533152 -144.11926115145062,-20.778578316420788 -144.78913413255205,-18.278578316420386 -144.1192611514945,-15.778578316408229 -142.28913413258377,-13.94845129746538 -139.78913413258337,-13.278578316363955" stroke="#ffa500" stroke-linecap="round" stroke-linejoin="round"/><polyline fill="none" points="-148.48732112349606,-65.79896591520024 -145.9873211234839,-66.4688388962578 -144.15719410454105,-68.29896591516852 -143.4873211234396,-70.79896591516892 -144.15719410449717,-73.29896591518109 -145.9873211234079,-75.12909293412393 -148.4873211234083,-75.79896591522535 -150.98732112342046,-75.1290929341678 -152.8174481423633,-73.29896591525707 -153.48732112346474,-70.79896591525667 -152.8174481424072,-68.29896591524451 -150.98732112349646,-66.46883889630166 -148.48732112349606,-65.79896591520023" stroke="#f00" stroke-linecap="round" stroke-linejoin="round"/><polyline fill="none" points="-73.61015733620206,-42.13894449203681 -71.1101573361899,-42.808817473094365 -69.28003031724705,-44.638944492005095 -68.61015733614562,-47.1389444920055 -69.28003031720317,-49.63894449201766 -71.1101573361139,-51.46907151096051 -73.6101573361143,-52.13894449206194 -76.11015733612646,-51.46907151100439 -77.94028435506931,-49.63894449209366 -78.61015733617074,-47.13894449209325 -77.94028435511319,-44.63894449208109 -76.11015733620246,-42.808817473138234 -73.61015733620206,-42.138944492036806" stroke="#008000" stroke-linecap="round" stroke-linejoin="round"/><polyline fill="none" points="-123.17046642864425,43.17846295456288 -120.67046642863208,42.50858997350533 -118.84033940968922,40.6784629545946 -118.17046642858779,38.178462954594195 -118.84033940964534,35.67846295458203 -120.67046642855607,33.84833593563918 -123.17046642855647,33.17846295453774 -125.67046642856863,33.848335935595294 -127.50059344751149,35.678462954506024 -128.1704664286129,38.17846295450643 -127.50059344755536,40.678462954518594 -125.67046642864463,42.50858997346145 -123.17046642864423,43.17846295456288" stroke="#ffa500" stroke-linecap="round" stroke-linejoin="round"/><polyline fill="none" points="-125.9709720518171,37.24112842581034 -123.47097205180494,36.57125544475279 -121.64084503286207,34.741128425842064 -120.97097205176064,32.24112842584166 -121.64084503281819,29.741128425829494 -123.47097205172892,27.911001406886637 -125.97097205172932,27.241128425785202 -128.47097205174148,27.911001406842747 -130.30109907068433,29.741128425753477 -130.97097205178576,32.24112842575388 -130.3010990707282,34.74112842576604 -128.47097205181748,36.5712554447089 -125.97097205181709,37.24112842581034" stroke="#ffa500" stroke-linecap="round" stroke-linejoin="round"/><polyline fill="none" points="-90.3072425184844,90.1299074388041 -87.80724251847224,89.46003445774656 -85.97711549952938,87.62990743883583 -85.30724251842794,85.12990743883543 -85.97711549948548,82.62990743882327 -87.80724251839621,80.7997804198804 -90.3072425183966,80.12990743877897 -92.80724251840877,80.79978041983651 -94.63736953735163,82.62990743874724 -95.30724251845307,85.12990743874764 -94.63736953739553,87.6299074387598 -92.8072425184848,89.46003445770266 -90.3072425184844,90.1299074388041" stroke="#00f" stroke-linecap="round" stroke-linejoin="round"/><polyline fill="none" points="-152.66607973814595,11.348563973274597 -150.1660797381338,10.678690992217057 -148.3359527191909,8.84856397330633 -147.66607973808948,6.348563973305926 -148.33595271914703,3.848563973293759 -150.16607973805776,2.0184369543508955 -152.66607973805816,1.3485639732494543 -155.16607973807032,2.018436954306995 -156.9962067570132,3.848563973217721 -157.66607973811463,6.348563973218125 -156.99620675705708,8.848563973230293 -155.16607973814635,10.678690992173157 -152.66607973814595,11.3485639732746" stroke="#00f" stroke-linecap="round" stroke-linejoin="round"/><polyline fill="none" points="-90.47805375735086,43.42887005924718 -87.9780537573387,42.758997078189644 -86.14792673839584,40.92887005927892 -85.47805375729439,38.428870059278516 -86.14792673835193,35.928870059266345 -87.97805375726266,34.09874304032348 -90.47805375726307,33.428870059222035 -92.97805375727523,34.09874304027957 -94.8081807762181,35.928870059190295 -95.47805375731954,38.4288700591907 -94.808180776262,40.92887005920287 -92.97805375735128,42.75899707814574 -90.47805375735088,43.42887005924719" stroke="#ffa500" stroke-linecap="round" stroke-linejoin="round"/><polyline fill="none" points="-38.713116909976904,-29.052534778535097 -36.21311690996473,-29.722407759592635 -34.382989891021865,-31.552534778503357 -33.713116909920416,-34.05253477850376 -34.38298989097795,-36.552534778515934 -36.213116909888676,-38.3826617974588 -38.71311690988908,-39.05253477856025 -41.21311690990125,-38.38266179750271 -43.04324392884412,-36.55253477859199 -43.71311690994557,-34.052534778591586 -43.04324392888803,-31.552534778579414 -41.21311690997731,-29.722407759636546 -38.713116909976904,-29.052534778535097" stroke="#00f" stroke-linecap="round" stroke-linejoin="round"/><polyline fill="none" points="-136.95897452694012,-52.94051313988334 -134.45897452692796,-53.61038612094088 -132.62884750798509,-55.4405131398516 -131.95897452688365,-57.94051313985201 -132.62884750794117,-60.44051313986418 -134.4589745268519,-62.27064015880705 -136.9589745268523,-62.9405131399085 -139.45897452686447,-62.27064015885096 -141.28910154580734,-60.440513139940236 -141.9589745269088,-57.94051313993983 -141.28910154585128,-55.44051313992766 -139.45897452694055,-53.610386120984785 -136.95897452694015,-52.940513139883336" stroke="#ffa500" stroke-linecap="round" stroke-linejoin="round"/><polyline fill="none" points="-165.98257321633062,5.350793778300907 -163.48257321631846,4.680920797243374 -161.65244619737558,2.850793778332652 -160.98257321627412,0.350793778332247 -161.65244619733164,-2.149206221679926 -163.48257321624237,-3.9793332406227986 -165.98257321624277,-4.649206221724251 -168.48257321625493,-3.9793332406667195 -170.3127002351978,-2.149206221755999 -170.98257321629927,0.3507937782444057 -170.31270023524175,2.8507937782565795 -168.48257321633102,4.6809207971994535 -165.98257321633062,5.350793778300907" stroke="#ffa500" stroke-linecap="round" stroke-linejoin="round"/><polyline fill="none" points="-164.66991857320053,-70.97204727291134 -162.16991857318837,-71.64192025396888 -160.3397915542455,-73.47204727287959 -159.66991857314403,-75.97204727288 -160.33979155420155,-78.47204727289218 -162.16991857311228,-80.30217429183506 -164.66991857311268,-80.9720472729365 -167.16991857312485,-80.30217429187898 -169.00004559206772,-78.47204727296827 -169.66991857316918,-75.97204727296786 -169.00004559211166,-73.47204727295568 -167.16991857320093,-71.6419202540128 -164.66991857320053,-70.97204727291134" stroke="#ffa500" stroke-linecap="round" stroke-linejoin="round"/><polyline fill="none" points="-158.62794105899198,-71.41794350223795 -156.12794105897981,-72.08781648329547 -154.29781404003694,-73.91794350220619 -153.62794105893548,-76.4179435022066 -154.297814039993,-78.91794350221878 -156.12794105890373,-80.74807052116165 -158.62794105890413,-81.41794350226311 -161.1279410589163,-80.74807052120559 -162.95806807785917,-78.91794350229488 -163.62794105896063,-76.41794350229446 -162.9580680779031,-73.91794350228228 -161.12794105899238,-72.08781648333941 -158.62794105899198,-71.41794350223795" stroke="#00f" stroke-linecap="round" stroke-linejoin="round"/><polyline fill="none" points="-109.89828905779557,39.693874189770455 -107.39828905778339,39.02400120871293 -105.56816203884051,37.193874189802216 -104.89828905773905,34.69387418980181 -105.56816203879657,32.19387418978963 -107.39828905770729,30.36374717084675 -109.8982890577077,29.69387418974529 -112.39828905771988,30.363747170802814 -114.22841607666275,32.19387418971353 -114.89828905776422,34.69387418971394 -114.2284160767067,37.19387418972612 -112.39828905779598,39.024001208669 -109.89828905779557,39.69387418977046" stroke="#ffa500" stroke-linecap="round" stroke-linejoin="round"/><polyline fill="none" points="-158.68154225469863,-86.84066014192484 -156.18154225468643,-87.51053312298237 -154.35141523574356,-89.34066014189308 -153.6815422546421,-91.8406601418935 -154.35141523569962,-94.34066014190567 -156.18154225461035,-96.17078716084856 -158.68154225461075,-96.84066014195002 -161.18154225462294,-96.1707871608925 -163.01166927356581,-94.34066014198179 -163.68154225466728,-91.84066014198137 -163.01166927360975,-89.3406601419692 -161.18154225469902,-87.5105331230263 -158.68154225469863,-86.84066014192484" stroke="#ffa500" stroke-linecap="round" stroke-linejoin="round"/><polyline fill="none" points="56.46385273207287,21.124938128551264 58.96385273208505,20.45506514749374 60.79397975102794,18.624938128583025 61.4638527321294,16.124938128582617 60.79397975107188,13.624938128570435 58.963852732161165,11.794811109627549 56.46385273216076,11.124938128526082 53.963852732148574,11.794811109583602 52.133725713205685,13.624938128494318 51.463852732104215,16.124938128494726 52.13372571316174,18.62493812850691 53.96385273207245,20.455065147449798 56.46385273207286,21.124938128551264" stroke="#ffa500" stroke-linecap="round" stroke-linejoin="round"/><polyline fill="none" points="-105.81592124900845,17.97705699285618 -103.31592124899628,17.30718401179866 -101.48579423005339,15.477056992887945 -100.81592124895192,12.977056992887539 -101.48579423000945,10.477056992875355 -103.31592124892016,8.646929973932465 -105.81592124892057,7.977056992830996 -108.31592124893275,8.646929973888515 -110.14604826787564,10.477056992799229 -110.81592124897712,12.977056992799636 -110.1460482679196,15.47705699281182 -108.31592124900888,17.30718401175471 -105.81592124900847,17.97705699285618" stroke="#00f" stroke-linecap="round" stroke-linejoin="round"/><polyline fill="none" points="-140.99016780775918,-35.88923823555725 -138.49016780774699,-36.55911121661477 -136.66004078880408,-38.38923823552548 -135.99016780770262,-40.88923823552589 -136.66004078876014,-43.38923823553807 -138.49016780767084,-45.21936525448096 -140.99016780767124,-45.88923823558243 -143.49016780768343,-45.21936525452492 -145.32029482662634,-43.3892382356142 -145.9901678077278,-40.889238235613796 -145.32029482667028,-38.38923823560161 -143.49016780775958,-36.559111216658714 -140.99016780775918,-35.88923823555724" stroke="#00f" stroke-linecap="round" stroke-linejoin="round"/><polyline fill="none" points="-152.74593394265307,-57.925548676524464 -150.24593394264087,-58.59542165758198 -148.41580692369797,-60.42554867649269 -147.7459339425965,-62.925548676493094 -148.41580692365403,-65.42554867650529 -150.24593394256473,-67.25567569544818 -152.74593394256513,-67.92554867654965 -155.24593394257732,-67.25567569549214 -157.07606096152023,-65.42554867658143 -157.7459339426217,-62.92554867658102 -157.07606096156417,-60.42554867656884 -155.24593394265347,-58.59542165762594 -152.74593394265307,-57.925548676524464" stroke="#00f" stroke-linecap="round" stroke-linejoin="round"/><polyline fill="none" points="-91.46823465426176,102.80819221215908 -88.96823465424957,102.13831923110158 -87.13810763530667,100.30819221219086 -86.46823465420519,97.80819221219045 -87.1381076352627,95.30819221217826 -88.96823465417341,93.47806519323535 -91.46823465417383,92.80819221213387 -93.96823465418602,93.47806519319138 -95.79836167312892,95.3081922121021 -96.4682346542304,97.80819221210251 -95.79836167317289,100.3081922121147 -93.96823465426218,102.13831923105761 -91.46823465426176,102.80819221215908" stroke="#ffa500" stroke-linecap="round" stroke-linejoin="round"/><polyline fill="none" points="-187.33711791358695,-73.2991775536057 -184.83711791357476,-73.96905053466321 -183.00699089463185,-75.79917755357393 -182.33711791353036,-78.29917755357434 -183.00699089458786,-80.79917755358653 -184.83711791349856,-82.62930457252943 -187.33711791349896,-83.29917755363091 -189.83711791351115,-82.6293045725734 -191.66724493245405,-80.7991775536627 -192.33711791355555,-78.29917755366229 -191.66724493249805,-75.7991775536501 -189.83711791358735,-73.9690505347072 -187.33711791358695,-73.29917755360572" stroke="#ffa500" stroke-linecap="round" stroke-linejoin="round"/><polyline fill="none" points="-45.95512812129986,62.06216327724521 -43.455128121287665,61.3922902961877 -41.62500110234476,59.562163277276994 -40.95512812124328,57.06216327727659 -41.625001102300786,54.562163277264396 -43.455128121211494,52.73203625832149 -45.9551281212119,52.06216327722001 -48.45512812122409,52.73203625827751 -50.285255140166996,54.56216327718822 -50.95512812126848,57.062163277188624 -50.28525514021098,59.56216327720082 -48.45512812130027,61.39229029614372 -45.955128121299865,62.062163277245205" stroke="#ffa500" stroke-linecap="round" stroke-linejoin="round"/><polyline fill="none" points="-95.35883560982582,100.6601383836528 -92.85883560981362,99.99026540259528 -91.02870859087072,98.16013838368458 -90.35883560976923,95.66013838368417 -91.02870859082674,93.16013838367198 -92.85883560973744,91.33001136472907 -95.35883560973785,90.66013838362758 -97.85883560975005,91.33001136468509 -99.68896262869295,93.1601383835958 -100.35883560979444,95.6601383835962 -99.68896262873693,98.1601383836084 -97.85883560982623,99.9902654025513 -95.35883560982582,100.6601383836528" stroke="#ffa500" stroke-linecap="round" stroke-linejoin="round"/><polyline fill="none" points="-97.93161656789962,-23.049298851840973 -95.43161656788743,-23.719171832898475 -93.60148954894453,-25.54929885180918 -92.93161656784304,-28.04929885180959 -93.60148954890053,-30.54929885182178 -95.43161656781123,-32.37942587076469 -97.93161656781164,-33.04929885186618 -100.43161656782384,-32.37942587080868 -102.26174358676674,-30.549298851897976 -102.93161656786823,-28.049298851897568 -102.26174358681074,-25.549298851885375 -100.43161656790004,-23.719171832942465 -97.93161656789962,-23.049298851840973" stroke="#00f" stroke-linecap="round" stroke-linejoin="round"/><polyline fill="none" points="-183.3509927975529,-86.45475579509916 -180.8509927975407,-87.12462877615665 -179.0208657785978,-88.95475579506736 -178.3509927974963,-91.45475579506777 -179.0208657785538,-93.95475579507996 -180.8509927974645,-95.78488281402286 -183.3509927974649,-96.45475579512436 -185.8509927974771,-95.78488281406686 -187.68111981642,-93.95475579515616 -188.35099279752149,-91.45475579515575 -187.681119816464,-88.95475579514356 -185.8509927975533,-87.12462877620064 -183.3509927975529,-86.45475579509915" stroke="#00f" stroke-linecap="round" stroke-linejoin="round"/><polyline fill="none" points="-135.7513918568043,-83.7692477780278 -133.2513918567921,-84.4391207590853 -131.4212648378492,-86.269247777996 -130.75139185674772,-88.76924777799641 -131.4212648378052,-91.2692477780086 -133.2513918567159,-93.09937479695152 -135.7513918567163,-93.76924777805301 -138.2513918567285,-93.09937479699552 -140.0815188756714,-91.26924777808482 -140.7513918567729,-88.7692477780844 -140.0815188757154,-86.26924777807221 -138.2513918568047,-84.4391207591293 -135.7513918568043,-83.7692477780278" stroke="#ffa500" stroke-linecap="round" stroke-linejoin="round"/><polyline fill="none" points="-116.21057017712151,35.06705425210294 -113.71057017710932,34.39718127104545 -111.8804431581664,32.567054252134746 -111.21057017706491,30.067054252134337 -111.8804431581224,27.56705425212214 -113.7105701770331,25.736927233179227 -116.21057017703352,25.067054252077728 -118.71057017704571,25.73692723313522 -120.54069719598863,27.56705425204592 -121.21057017709013,30.06705425204633 -120.54069719603264,32.567054252058526 -118.71057017712194,34.39718127100144 -116.21057017712153,35.06705425210294" stroke="#ffa500" stroke-linecap="round" stroke-linejoin="round"/><polyline fill="none" points="-95.9099417478435,94.21534117894569 -93.40994174783131,93.5454681978882 -91.5798147288884,91.7153411789775 -90.90994174778689,89.21534117897708 -91.57981472884438,86.71534117896489 -93.40994174775508,84.88521416002197 -95.9099417477555,84.21534117892047 -98.4099417477677,84.88521415997796 -100.24006876671062,86.71534117888866 -100.90994174781213,89.21534117888908 -100.24006876675463,91.71534117890128 -98.40994174784393,93.5454681978442 -95.90994174784352,94.2153411789457" stroke="#ffa500" stroke-linecap="round" stroke-linejoin="round"/><polyline fill="none" points="-122.34598643129243,24.206263180109882 -119.84598643128022,23.536390199052395 -118.0158594123373,21.706263180141697 -117.3459864312358,19.20626318014129 -118.0158594122933,16.70626318012909 -119.845986431204,14.876136161186169 -122.34598643120441,14.206263180084665 -124.84598643121662,14.876136161142153 -126.67611345015953,16.70626318005285 -127.34598643126104,19.20626318005326 -126.67611345020356,21.706263180065463 -124.84598643129286,23.536390199008384 -122.34598643129245,24.20626318010989" stroke="#00f" stroke-linecap="round" stroke-linejoin="round"/><polyline fill="none" points="-168.80215837660015,-7.312268705647741 -166.30215837658795,-7.982141686705226 -164.47203135764502,-9.812268705615923 -163.8021583765435,-12.31226870561633 -164.472031357601,-14.812268705628533 -166.3021583765117,-16.642395724571454 -168.8021583765121,-17.31226870567296 -171.3021583765243,-16.642395724615476 -173.13228539546722,-14.812268705704781 -173.80215837656874,-12.312268705704374 -173.13228539551125,-9.812268705692171 -171.30215837660054,-7.982141686749248 -168.80215837660015,-7.31226870564774" stroke="#ffa500" stroke-linecap="round" stroke-linejoin="round"/><polyline fill="none" points="-153.437724341027,-72.22457853493778 -150.9377243410148,-72.89445151599526 -149.10759732207188,-74.72457853490596 -148.43772434097036,-77.22457853490637 -149.10759732202786,-79.72457853491858 -150.93772434093856,-81.5547055538615 -153.43772434093896,-82.224578534963 -155.93772434095115,-81.55470555390552 -157.76785135989408,-79.72457853499483 -158.4377243409956,-77.22457853499442 -157.7678513599381,-74.72457853498221 -155.9377243410274,-72.89445151603928 -153.437724341027,-72.22457853493778" stroke="#00f" stroke-linecap="round" stroke-linejoin="round"/><polyline fill="none" points="-184.47635392373806,-84.73624126382548 -181.97635392372587,-85.40611424488296 -180.14622690478294,-87.23624126379364 -179.47635392368142,-89.73624126379406 -180.1462269047389,-92.23624126380626 -181.9763539236496,-94.0663682827492 -184.47635392365,-94.7362412638507 -186.9763539236622,-94.06636828279322 -188.80648094260513,-92.23624126388253 -189.47635392370665,-89.73624126388212 -188.8064809426492,-87.23624126386991 -186.9763539237385,-85.40611424492698 -184.4763539237381,-84.73624126382546" stroke="#ffa500" stroke-linecap="round" stroke-linejoin="round"/><polyline fill="none" points="-160.6632834007726,-65.54494015031408 -158.1632834007604,-66.21481313137156 -156.33315638181747,-68.04494015028224 -155.66328340071595,-70.54494015028266 -156.33315638177342,-73.04494015029486 -158.16328340068412,-74.8750671692378 -160.66328340068452,-75.54494015033931 -163.16328340069674,-74.87506716928183 -164.99341041963967,-73.04494015037115 -165.6632834007412,-70.54494015037073 -164.99341041968373,-68.04494015035853 -163.16328340077303,-66.2148131314156 -160.66328340077263,-65.54494015031408" stroke="#008000" stroke-linecap="round" stroke-linejoin="round"/><polyline fill="none" points="-45.0265828426096,55.73450760975591 -42.52658284259739,55.06463462869843 -40.69645582365446,53.234507609787734 -40.02658284255294,50.73450760978733 -40.696455823610414,48.23450760977512 -42.52658284252111,46.40438059083219 -45.02658284252151,45.73450760973067 -47.52658284253372,46.40438059078814 -49.35670986147665,48.23450760969883 -50.02658284257817,50.734507609699236 -49.3567098615207,53.23450760971144 -47.52658284261001,55.064634628654375 -45.026582842609606,55.734507609755894" stroke="#ffa500" stroke-linecap="round" stroke-linejoin="round"/><polyline fill="none" points="54.615896423763374,4.542162694311419 57.11589642377558,3.872289713253945 58.94602344271851,2.042162694343255 59.61589642382003,-0.45783730565715297 58.94602344276256,-2.9578373056693636 57.11589642385187,-4.7879643246122985 54.61589642385147,-5.45783730571382 52.11589642383925,-4.787964324656347 50.285769404896314,-2.9578373057456577 49.615896423794794,-0.4578373057452496 50.28576940485227,2.0421626942669615 52.115896423762955,3.8722897132098977 54.61589642376336,4.54216269431142" stroke="#ffa500" stroke-linecap="round" stroke-linejoin="round"/><polyline fill="none" points="-165.2126334852285,-80.47053739494213 -162.7126334852163,-81.1404103759996 -160.88250646627336,-82.97053739491028 -160.21263348517184,-85.47053739491069 -160.8825064662293,-87.9705373949229 -162.71263348514,-89.80066441386583 -165.2126334851404,-90.47053739496735 -167.71263348515262,-89.80066441390989 -169.54276050409555,-87.9705373949992 -170.21263348519707,-85.47053739499879 -169.5427605041396,-82.97053739498658 -167.7126334852289,-81.14041037604365 -165.2126334852285,-80.47053739494213" stroke="#ffa500" stroke-linecap="round" stroke-linejoin="round"/><polyline fill="none" points="-189.61907819845493,-59.08484801964077 -187.1190781984427,-59.75472100069824 -185.28895117949978,-61.58484801960893 -184.61907819839826,-64.08484801960934 -185.28895117945572,-66.58484801962155 -187.1190781983664,-68.41497503856449 -189.6190781983668,-69.08484801966603 -192.11907819837901,-68.41497503860856 -193.94920521732195,-66.58484801969787 -194.61907819842347,-64.08484801969746 -193.949205217366,-61.584848019685246 -192.11907819845533,-59.75472100074231 -189.61907819845493,-59.08484801964078" stroke="#00f" stroke-linecap="round" stroke-linejoin="round"/><polyline fill="none" points="-150.36779578427956,-95.5001923281318 -147.86779578426734,-96.17006530918927 -146.0376687653244,-98.00019232809996 -145.3677957842229,-100.50019232810037 -146.03766876528036,-103.00019232811258 -147.86779578419103,-104.83031934705552 -150.36779578419143,-105.50019232815706 -152.86779578420365,-104.83031934709959 -154.69792280314658,-103.0001923281889 -155.3677957842481,-100.50019232818849 -154.69792280319064,-98.00019232817627 -152.86779578427996,-96.17006530923332 -150.36779578427956,-95.50019232813179" stroke="#ffa500" stroke-linecap="round" stroke-linejoin="round"/><polyline fill="none" points="-144.32640740053068,-71.30552437126754 -141.82640740051846,-71.975397352325 -139.99628038157553,-73.80552437123569 -139.326407400474,-76.3055243712361 -139.99628038153148,-78.80552437124832 -141.82640740044215,-80.63565139019127 -144.32640740044255,-81.3055243712928 -146.82640740045477,-80.63565139023534 -148.6565344193977,-78.80552437132465 -149.32640740049922,-76.30552437132424 -148.65653441944175,-73.80552437131202 -146.82640740053108,-71.97539735236907 -144.32640740053068,-71.30552437126754" stroke="#008000" stroke-linecap="round" stroke-linejoin="round"/><polyline fill="none" points="-110.26151717668756,26.46703182593831 -107.76151717667534,25.797158844880848 -105.9313901577324,23.967031825970167 -105.26151717663086,21.467031825969762 -105.93139015768833,18.967031825957548 -107.76151717659901,17.136904807014602 -110.26151717659943,16.467031825913068 -112.76151717661165,17.136904806970527 -114.5916441955546,18.967031825881207 -115.26151717665613,21.467031825881612 -114.59164419559866,23.96703182589383 -112.76151717668797,25.797158844836776 -110.26151717668756,26.467031825938314" stroke="#ffa500" stroke-linecap="round" stroke-linejoin="round"/><polyline fill="none" points="-171.23969926324602,-13.061255371000161 -168.7396992632338,-13.73112835205762 -166.90957224429084,-15.5612553709683 -166.2396992631893,-18.06125537096871 -166.90957224424676,-20.561255370980927 -168.73969926315743,-22.391382389923876 -171.23969926315783,-23.061255371025414 -173.73969926317005,-22.391382389967955 -175.569826282113,-20.561255371057275 -176.23969926321456,-18.061255371056866 -175.5698262821571,-15.561255371044648 -173.73969926324642,-13.731128352101699 -171.23969926324602,-13.06125537100016" stroke="#ffa500" stroke-linecap="round" stroke-linejoin="round"/><polyline fill="none" points="-63.225185249645364,-53.434839537419606 -60.72518524963314,-54.104712518477065 -58.89505823069019,-55.934839537387745 -58.22518524958865,-58.43483953738815 -58.89505823064611,-60.93483953740037 -60.72518524955679,-62.764966556343325 -63.22518524955719,-63.434839537444866 -65.7251852495694,-62.76496655638741 -67.55531226851235,-60.934839537476726 -68.2251852496139,-58.43483953747632 -67.55531226855645,-55.9348395374641 -65.72518524964578,-54.10471251852115 -63.22518524964537,-53.434839537419606" stroke="#ffa500" stroke-linecap="round" stroke-linejoin="round"/><polyline fill="none" points="-198.3484324983307,-83.40336820771344 -195.8484324983185,-84.0732411887709 -194.01830547937553,-85.90336820768157 -193.34843249827398,-88.40336820768198 -194.01830547933145,-90.9033682076942 -195.84843249824212,-92.73349522663716 -198.34843249824252,-93.40336820773871 -200.84843249825474,-92.73349522668126 -202.6785595171977,-90.90336820777058 -203.34843249829925,-88.40336820777017 -202.67855951724178,-85.90336820775795 -200.8484324983311,-84.07324118881499 -198.3484324983307,-83.40336820771344" stroke="#00f" stroke-linecap="round" stroke-linejoin="round"/><polyline fill="none" points="-91.09567498753664,-54.461878631466725 -88.59567498752442,-55.13175161252418 -86.76554796858146,-56.96187863143486 -86.09567498747991,-59.46187863143526 -86.76554796853736,-61.96187863144748 -88.59567498744804,-63.792005650390436 -91.09567498744845,-64.46187863149198 -93.59567498746067,-63.79200565043453 -95.42580200640363,-61.96187863152386 -96.09567498750518,-59.461878631523454 -95.42580200644773,-56.96187863151123 -93.59567498753705,-55.13175161256827 -91.09567498753664,-54.461878631466725" stroke="#00f" stroke-linecap="round" stroke-linejoin="round"/><polyline fill="none" points="-89.23117006706615,-26.622635570493124 -86.73117006705392,-27.292508551550572 -84.90104304811096,-29.12263557046125 -84.23117006700942,-31.622635570461657 -84.90104304806687,-34.12263557047388 -86.73117006697754,-35.95276258941684 -89.23117006697795,-36.62263557051839 -91.73117006699017,-35.952762589460946 -93.56129708593313,-34.12263557055027 -94.23117006703468,-31.622635570549864 -93.56129708597723,-29.12263557053764 -91.73117006706656,-27.29250855159468 -89.23117006706615,-26.622635570493127" stroke="#ffa500" stroke-linecap="round" stroke-linejoin="round"/><polyline fill="none" points="-128.89009848302365,-53.12818953661791 -126.39009848301143,-53.798062517675355 -124.55997146406847,-55.62818953658603 -123.89009848296692,-58.12818953658643 -124.55997146402437,-60.62818953659866 -126.39009848293504,-62.45831655554162 -128.89009848293546,-63.12818953664318 -131.39009848294768,-62.45831655558573 -133.22022550189064,-60.62818953667506 -133.8900984829922,-58.128189536674654 -133.22022550193475,-55.628189536662425 -131.39009848302408,-53.798062517719465 -128.89009848302368,-53.12818953661791" stroke="#ffa500" stroke-linecap="round" stroke-linejoin="round"/><polyline fill="none" points="-166.00851094869304,-16.50186205078458 -163.50851094868082,-17.171735031842026 -161.67838392973786,-19.0018620507527 -161.0085109486363,-21.501862050753108 -161.67838392969375,-24.001862050765332 -163.50851094860442,-25.831989069708296 -166.00851094860482,-26.50186205080985 -168.50851094861704,-25.83198906975241 -170.33863796756,-24.00186205084174 -171.00851094866155,-21.501862050841332 -170.33863796760411,-19.001862050829104 -168.50851094869344,-17.17173503188614 -166.00851094869304,-16.501862050784585" stroke="#ffa500" stroke-linecap="round" stroke-linejoin="round"/><polyline fill="none" points="-144.25043704784463,-67.52769561983386 -141.7504370478324,-68.1975686008913 -139.92031002888945,-70.02769561980197 -139.2504370477879,-72.52769561980239 -139.92031002884534,-75.02769561981461 -141.750437047756,-76.85782263875757 -144.2504370477564,-77.52769561985913 -146.75043704776863,-76.8578226388017 -148.5805640667116,-75.02769561989102 -149.25043704781314,-72.52769561989061 -148.5805640667557,-70.02769561987837 -146.75043704784503,-68.1975686009354 -144.25043704784463,-67.52769561983384" stroke="#00f" stroke-linecap="round" stroke-linejoin="round"/><polyline fill="none" points="-46.91497865507825,50.78677188719773 -44.41497865506602,50.11689890614029 -42.584851636123055,48.28677188722963 -41.91497865502149,45.78677188722922 -42.58485163607893,43.28677188721699 -44.414978654989596,41.456644868274026 -46.91497865499,40.78677188717246 -49.41497865500223,41.4566448682299 -51.2451056739452,43.28677188714057 -51.91497865504676,45.78677188714097 -51.24510567398932,48.2867718871532 -49.414978655078656,50.11689890609617 -46.91497865507825,50.78677188719773" stroke="#00f" stroke-linecap="round" stroke-linejoin="round"/><polyline fill="none" points="-124.84243298147048,26.38102701867116 -122.34243298145824,25.71115403761372 -120.51230596251527,23.88102701870305 -119.84243298141371,21.381027018702643 -120.51230596247115,18.88102701869041 -122.34243298138182,17.05089999974744 -124.84243298138223,16.381027018645877 -127.34243298139447,17.05089999970331 -129.17256000033743,18.881027018613977 -129.842432981439,21.381027018614386 -129.17256000038157,23.881027018626618 -127.34243298147089,25.71115403756959 -124.84243298147048,26.381027018671155" stroke="#ffa500" stroke-linecap="round" stroke-linejoin="round"/><polyline fill="none" points="-151.4523977405403,-52.87940664724882 -148.95239774052808,-53.54927962830626 -147.12227072158512,-55.379406647216925 -146.45239774048355,-57.87940664721733 -147.12227072154099,-60.379406647229565 -148.95239774045166,-62.20953366617254 -151.45239774045206,-62.87940664727411 -153.95239774046428,-62.20953366621668 -155.78252475940724,-60.37940664730601 -156.45239774050881,-57.87940664730561 -155.78252475945138,-55.37940664729337 -153.9523977405407,-53.5492796283504 -151.4523977405403,-52.87940664724883" stroke="#008000" stroke-linecap="round" stroke-linejoin="round"/><polyline fill="none" points="-190.94339390284378,-74.07206840397345 -188.44339390283156,-74.74194138503088 -186.61326688388857,-76.57206840394156 -185.943393902787,-79.07206840394197 -186.61326688384443,-81.5720684039542 -188.4433939027551,-83.40219542289718 -190.9433939027555,-84.07206840399874 -193.44339390276775,-83.4021954229413 -195.27352092171074,-81.57206840403063 -195.94339390281232,-79.07206840403022 -195.27352092175488,-76.57206840401798 -193.4433939028442,-74.74194138507501 -190.9433939028438,-74.07206840397343" stroke="#ffa500" stroke-linecap="round" stroke-linejoin="round"/><polyline fill="none" points="228.10761085401637,-113.674784599385 230.60761085402862,-114.34465758044244 232.4377378729716,-116.1747845993531 233.1076108540732,-118.67478459935352 232.43773787301575,-121.17478459936575 230.60761085410508,-123.00491161830872 228.10761085410468,-123.6747845994103 225.60761085409243,-123.00491161835288 223.77748383514944,-121.17478459944222 223.10761085404786,-118.67478459944181 223.7774838351053,-116.17478459942957 225.60761085401597,-114.3446575804866 228.10761085401637,-113.67478459938502" stroke="#ffa500" stroke-linecap="round" stroke-linejoin="round"/></svg>