<?xml version="1.0" ?><!DOCTYPE svg  PUBLIC '-//W3C//DTD SVG 1.1//EN'  'http://www.w3.org/Graphics/SVG/1.1/DTD/svg11.dtd'><svg height="377.000" viewBox="-272.000 -185.000 466.000 377.000" width="466.000" xmlns="http://www.w3.org/2000/svg"><line fill="none" stroke="none" stroke-linecap="round" stroke-width="2.0" x1="0.0" x2="0.0" y1="0.0" y2="0.0"/><polygon fill="none" fill-rule="evenodd" points="0.0,0.0 0.0,0.0 0.0,0.0" stroke-linejoin="round"/><polyline fill="none" points="33.819481870838814,78.80987918171941 36.3194818708512,78.14000620066224 38.149608889794436,76.30987918175173 38.81948187089631,73.80987918175131 38.14960888983914,71.30987918173892 36.31948187092863,69.47975216279568 33.819481870928215,68.8098791816938 31.319481870915826,69.47975216275097 29.489354851972585,71.30987918166149 28.81948187087071,73.8098791816619 29.489354851927878,76.30987918167429 31.31948187083839,78.14000620061753 33.8194818708388,78.80987918171941" stroke="#ffa500" stroke-linecap="round" stroke-linejoin="round"/><polyline fill="none" points="53.003046678660205,30.73870288917664 55.5030466786726,30.068829908119472 57.33317369761584,28.23870288920896 58.003046678717716,25.73870288920855 57.33317369766055,23.238702889196162 55.50304667875004,21.408575870252918 53.00304667874963,20.73870288915104 50.503046678737235,21.408575870208203 48.67291965979399,23.238702889118716 48.003046678692115,25.738702889119125 48.67291965974928,28.238702889131517 50.50304667865979,30.06882990807476 53.003046678660205,30.73870288917664" stroke="#ffa500" stroke-linecap="round" stroke-linejoin="round"/><polyline fill="none" points="88.84075214512859,-47.53327053327564 91.34075214514098,-48.20314351433281 93.17087916408423,-50.03327053324332 93.8407521451861,-52.53327053324373 93.17087916412893,-55.03327053325612 91.34075214521842,-56.863397552199366 88.840752145218,-57.53327053330125 86.34075214520561,-56.86339755224409 84.51062512626237,-55.03327053333358 83.8407521451605,-52.533270533333166 84.51062512621766,-50.033270533320774 86.34075214512818,-48.20314351437753 88.84075214512859,-47.53327053327565" stroke="#ffa500" stroke-linecap="round" stroke-linejoin="round"/><polyline fill="none" points="-108.39243109211098,-70.14587021292331 -105.89243109209859,-70.81574319398048 -104.06230407315535,-72.645870212891 -103.39243109205347,-75.14587021289141 -104.06230407311064,-77.6458702129038 -105.89243109202116,-79.47599723184705 -108.39243109202157,-80.14587021294894 -110.89243109203396,-79.47599723189177 -112.7225581109772,-77.64587021298127 -113.3924310920791,-75.14587021298085 -112.72255811102194,-72.64587021296846 -110.89243109211144,-70.81574319402522 -108.39243109211102,-70.14587021292333" stroke="#ffa500" stroke-linecap="round" stroke-linejoin="round"/><polyline fill="none" points="-125.61099575262618,21.68680172115994 -123.11099575261379,21.01692874010278 -121.28086873367054,19.18680172119227 -120.61099575256866,16.686801721191863 -121.28086873362581,14.18680172117947 -123.11099575253631,12.356674702236221 -125.61099575253672,11.686801721134335 -128.11099575254912,12.356674702191494 -129.94112277149236,14.186801721102002 -130.61099575259425,16.686801721102412 -129.9411227715371,19.186801721114804 -128.1109957526266,21.016928740058056 -125.61099575262618,21.68680172115994" stroke="#00f" stroke-linecap="round" stroke-linejoin="round"/><polyline fill="none" points="-249.09063583903156,-37.64332821343483 -246.59063583901917,-38.31320119449199 -244.76050882007593,-40.1433282134025 -244.09063583897404,-42.64332821340291 -244.7605088200312,-45.1433282134153 -246.5906358389417,-46.97345523235855 -249.0906358389421,-47.64332821346044 -251.59063583895448,-46.97345523240329 -253.42076285789773,-45.14332821349278 -254.09063583899962,-42.64332821349237 -253.42076285794246,-40.143328213479975 -251.59063583903196,-38.313201194536724 -249.09063583903156,-37.643328213434835" stroke="#00f" stroke-linecap="round" stroke-linejoin="round"/><polyline fill="none" points="160.96513995114208,-95.29945137835783 163.46513995115447,-95.96932435941498 165.2952669700977,-97.79945137832549 165.9651399511996,-100.2994513783259 165.29526697014245,-102.79945137833829 163.46513995123195,-104.62957839728155 160.96513995123155,-105.29945137838344 158.46513995121916,-104.62957839732628 156.6350129322759,-102.79945137841578 155.96513995117402,-100.29945137841537 156.63501293223118,-97.79945137840298 158.46513995114168,-95.96932435945972 160.96513995114208,-95.29945137835783" stroke="#ffa500" stroke-linecap="round" stroke-linejoin="round"/><polyline fill="none" points="70.7448733880018,-164.42578752932343 73.2448733880142,-165.09566051038058 75.07500040695746,-166.92578752929109 75.74487338805935,-169.42578752929148 75.0750004070022,-171.92578752930388 73.24487338809169,-173.75591454824712 70.74487338809128,-174.425787529349 68.24487338807889,-173.75591454829186 66.41474636913563,-171.92578752938135 65.74487338803374,-169.42578752938095 66.41474636909089,-166.92578752936856 68.2448733880014,-165.0956605104253 70.7448733880018,-164.4257875293234" stroke="#ffa500" stroke-linecap="round" stroke-linejoin="round"/><polyline fill="none" points="-253.21200446377512,-43.059576068924194 -250.71200446376272,-43.72944904998134 -248.88187744481945,-45.55957606889184 -248.21200446371756,-48.059576068892255 -248.88187744477472,-50.559576068904654 -250.71200446368522,-52.38970308784791 -253.21200446368562,-53.05957606894981 -255.712004463698,-52.38970308789266 -257.54213148264125,-50.55957606898216 -258.21200446374314,-48.05957606898175 -257.542131482686,-45.55957606896935 -255.7120044637755,-43.72944905002609 -253.2120044637751,-43.059576068924194" stroke="#00f" stroke-linecap="round" stroke-linejoin="round"/><polyline fill="none" points="-158.07340878636322,76.95320137332872 -155.57340878635083,76.28332839227157 -153.74328176740755,74.45320137336107 -153.07340878630566,71.95320137336066 -153.74328176736282,69.45320137334825 -155.57340878627332,67.62307435440499 -158.07340878627372,66.95320137330309 -160.5734087862861,67.62307435436023 -162.40353580522938,69.45320137327073 -163.07340878633127,71.95320137327114 -162.40353580527412,74.45320137328355 -160.57340878636361,76.2833283922268 -158.07340878636322,76.95320137332871" stroke="#00f" stroke-linecap="round" stroke-linejoin="round"/><polyline fill="none" points="120.01416333468583,143.96552042126282 122.51416333469824,143.29564744020567 124.3442903536415,141.46552042129517 125.0141633347434,138.96552042129477 124.34429035368626,136.46552042128238 122.51416333477576,134.6353934023391 120.01416333477535,133.96552042123722 117.51416333476294,134.63539340229437 115.68403631581967,136.46552042120487 115.01416333471776,138.96552042120527 115.6840363157749,141.46552042121766 117.5141633346854,143.29564744016093 120.01416333468582,143.96552042126285" stroke="#ffa500" stroke-linecap="round" stroke-linejoin="round"/><polyline fill="none" points="92.628856016222,68.96540692610853 95.12885601623441,68.29553394505139 96.95898303517768,66.46540692614089 97.62885601627958,63.965406926140474 96.95898303522245,61.46540692612807 95.12885601631194,59.6352799071848 92.62885601631153,58.9654069260829 90.12885601629912,59.63527990714004 88.29872899735585,61.465406926050534 87.62885601625395,63.965406926050946 88.29872899731109,66.46540692606335 90.12885601622159,68.29553394500662 92.628856016222,68.96540692610853" stroke="#ffa500" stroke-linecap="round" stroke-linejoin="round"/><polyline fill="none" points="130.96855492446034,-119.65854476230834 133.46855492447273,-120.32841774336548 135.298681943416,-122.15854476227598 135.96855492451792,-124.65854476227639 135.2986819434608,-127.1585447622888 133.4685549245503,-128.98867178123206 130.9685549245499,-129.65854476233397 128.4685549245375,-128.98867178127685 126.63842790559423,-127.15854476236635 125.96855492449232,-124.65854476236593 126.63842790554946,-122.15854476235353 128.46855492445997,-120.32841774341026 130.96855492446036,-119.65854476230835" stroke="#ffa500" stroke-linecap="round" stroke-linejoin="round"/><polyline fill="none" points="-74.17587952380822,-59.597338273187844 -71.67587952379581,-60.267211254244984 -69.84575250485254,-62.09733827315548 -69.17587952375064,-64.59733827315588 -69.84575250480778,-67.09733827316829 -71.67587952371828,-68.92746529211156 -74.17587952371869,-69.59733827321348 -76.6758795237311,-68.92746529215634 -78.50600654267437,-67.09733827324585 -79.17587952377629,-64.59733827324544 -78.50600654271915,-62.097338273233035 -76.67587952380866,-60.26721125428976 -74.17587952380825,-59.59733827318785" stroke="#00f" stroke-linecap="round" stroke-linejoin="round"/><polyline fill="none" points="-12.56837731213367,180.15558826747917 -10.068377312121262,179.48571528642205 -8.238250293177988,177.65558826751155 -7.568377312076074,175.15558826751115 -8.23825029313321,172.65558826749873 -10.068377312043703,170.82546124855546 -12.568377312044111,170.15558826745354 -15.06837731205652,170.82546124851066 -16.898504330999796,172.65558826742117 -17.56837731210171,175.15558826742156 -16.898504331044577,177.65558826743398 -15.068377312134084,179.48571528637726 -12.568377312133673,180.15558826747917" stroke="#ffa500" stroke-linecap="round" stroke-linejoin="round"/><polyline fill="none" points="132.2888503040035,-77.87475561359136 134.7888503040159,-78.5446285946485 136.61897732295918,-80.37475561355899 137.2888503040611,-82.8747556135594 136.61897732300397,-85.3747556135718 134.78885030409347,-87.20488263251508 132.28885030409307,-87.874755613617 129.78885030408065,-87.20488263255987 127.95872328513738,-85.37475561364938 127.28885030403546,-82.87475561364897 127.95872328509259,-80.37475561363657 129.7888503040031,-78.5446285946933 132.2888503040035,-77.87475561359138" stroke="#ffa500" stroke-linecap="round" stroke-linejoin="round"/><polyline fill="none" points="-182.11709079274905,-17.131284388128563 -179.61709079273663,-17.80115736918569 -177.78696377379336,-19.631284388096184 -177.11709079269144,-22.131284388096592 -177.78696377374857,-24.631284388109002 -179.61709079265907,-26.46141140705228 -182.11709079265947,-27.131284388154203 -184.6170907926719,-26.461411407097074 -186.44721781161516,-24.631284388186582 -187.11709079271708,-22.131284388186174 -186.44721781165995,-19.63128438817376 -184.61709079274945,-17.80115736923048 -182.11709079274905,-17.13128438812856" stroke="#008000" stroke-linecap="round" stroke-linejoin="round"/><polyline fill="none" points="59.34970115446747,11.525546286991279 61.84970115447988,10.855673305934152 63.67982817342316,9.025546287023662 64.34970115452508,6.525546287023253 63.67982817346795,4.02554628701084 61.849701154557465,2.1954192680675573 59.34970115455705,1.5255462869656342 56.84970115454464,2.19541926802276 55.01957413560136,4.025546286933249 54.349701154499435,6.525546286933658 55.01957413555656,9.02554628694607 56.84970115446705,10.855673305889354 59.34970115446746,11.525546286991279" stroke="#ffa500" stroke-linecap="round" stroke-linejoin="round"/><polyline fill="none" points="-204.81165804976868,-47.580969931589514 -202.31165804975626,-48.25084291264664 -200.481531030813,-50.08096993155713 -199.81165804971107,-52.58096993155754 -200.4815310307682,-55.08096993156995 -202.31165804967867,-56.91109695051324 -204.81165804967907,-57.580969931615165 -207.3116580496915,-56.91109695055804 -209.14178506863476,-55.08096993164755 -209.81165804973668,-52.58096993164714 -209.14178506867955,-50.080969931634726 -207.31165804976908,-48.25084291269144 -204.81165804976868,-47.580969931589514" stroke="#00f" stroke-linecap="round" stroke-linejoin="round"/><polyline fill="none" points="60.48301964811772,-143.70256824028107 62.98301964813013,-144.3724412213382 64.81314666707343,-146.20256824024867 65.48301964817536,-148.70256824024906 64.81314666711823,-151.20256824026148 62.983019648207744,-153.0326952592048 60.48301964820733,-153.7025682403067 57.98301964819492,-153.03269525924958 56.15289262925163,-151.2025682403391 55.4830196481497,-148.7025682403387 56.15289262920682,-146.2025682403263 57.983019648117306,-144.37244122138299 60.48301964811772,-143.70256824028107" stroke="#00f" stroke-linecap="round" stroke-linejoin="round"/><polyline fill="none" points="117.86371805218185,-42.943619827653094 120.36371805219427,-43.61349280871021 122.19384507113756,-45.4436198276207 122.86371805223949,-47.94361982762111 122.19384507118237,-50.443619827633526 120.36371805227188,-52.27374684657681 117.86371805227147,-52.943619827678745 115.36371805225905,-52.27374684662163 113.53359103331576,-50.44361982771114 112.86371805221383,-47.94361982771073 113.53359103327095,-45.44361982769831 115.36371805218144,-43.613492808755026 117.86371805218185,-42.943619827653094" stroke="#ffa500" stroke-linecap="round" stroke-linejoin="round"/><polyline fill="none" points="-76.36276402299222,58.99143942954994 -73.8627640229798,58.321566448492824 -72.03263700403652,56.491439429582336 -71.36276402293458,53.99143942958192 -72.03263700399171,51.4914394295695 -73.8627640229022,49.66131241062621 -76.36276402290261,48.99143942952428 -78.86276402291503,49.661312410581395 -80.69289104185832,51.49143942949188 -81.36276402296025,53.99143942949229 -80.69289104190314,56.49143942950471 -78.86276402299265,58.321566448448 -76.36276402299224,58.991439429549935" stroke="#ffa500" stroke-linecap="round" stroke-linejoin="round"/><polyline fill="none" points="106.4816982822812,-121.90923920223717 108.98169828229362,-122.57911218329428 110.81182530123691,-124.40923920220477 111.48169828233884,-126.90923920220519 110.81182530128173,-129.4092392022176 108.98169828237124,-131.2393662211609 106.48169828237083,-131.90923920226285 103.98169828235841,-131.23936622120573 102.15157126341511,-129.40923920229525 101.48169828231318,-126.90923920229484 102.15157126337029,-124.40923920228242 103.98169828228077,-122.57911218333912 106.48169828228119,-121.90923920223719" stroke="#ffa500" stroke-linecap="round" stroke-linejoin="round"/><polyline fill="none" points="-98.66578805076408,82.7313593077955 -96.16578805075166,82.06148632673839 -94.33566103180836,80.2313593078279 -93.66578805070642,77.73135930782749 -94.33566103176354,75.23135930781507 -96.16578805067402,73.40123228887177 -98.66578805067444,72.73135930776984 -101.16578805068686,73.40123228882695 -102.99591506963016,75.23135930773743 -103.66578805073209,77.73135930773785 -102.99591506967498,80.23135930775027 -101.16578805076449,82.06148632669357 -98.66578805076408,82.73135930779551" stroke="#00f" stroke-linecap="round" stroke-linejoin="round"/><polyline fill="none" points="111.74138837982696,-62.37264678498531 114.24138837983938,-63.04251976604242 116.07151539878268,-64.87264678495289 116.74138837988463,-67.3726467849533 116.07151539882751,-69.87264678496572 114.24138837991704,-71.70277380390903 111.74138837991663,-72.37264678501097 109.24138837990421,-71.70277380395386 107.4112613609609,-69.87264678504339 106.74138837985896,-67.37264678504297 107.41126136091607,-64.87264678503055 109.24138837982655,-63.04251976608725 111.74138837982696,-62.372646784985314" stroke="#00f" stroke-linecap="round" stroke-linejoin="round"/><polyline fill="none" points="159.6069667842847,-93.6408179569753 162.10696678429713,-94.31069093803241 163.93709380324043,-96.14081795694288 164.60696678434238,-98.6408179569433 163.93709380328528,-101.14081795695571 162.1069667843748,-102.97094497589902 159.6069667843744,-103.64081795700096 157.106966784362,-102.97094497594385 155.27683976541869,-101.14081795703338 154.60696678431674,-98.64081795703297 155.27683976537384,-96.14081795702054 157.1069667842843,-94.31069093807724 159.6069667842847,-93.6408179569753" stroke="#00f" stroke-linecap="round" stroke-linejoin="round"/><polyline fill="none" points="84.47902914825077,74.0284829672074 86.9790291482632,73.35860998615028 88.8091561672065,71.52848296723981 89.47902914830844,69.0284829672394 88.80915616725133,66.52848296722698 86.97902914834086,64.69835594828368 84.47902914834044,64.02848296718173 81.97902914832802,64.69835594823884 80.14890212938472,66.52848296714932 79.47902914828278,69.02848296714973 80.14890212933989,71.52848296716215 81.97902914825036,73.35860998610545 84.47902914825077,74.0284829672074" stroke="#ffa500" stroke-linecap="round" stroke-linejoin="round"/><polyline fill="none" points="97.46899553427286,27.137521115272833 99.96899553428528,26.46764813421573 101.79912255322859,24.63752111530525 102.46899553433053,22.137521115304843 101.79912255327342,19.63752111529242 99.96899553436295,17.807394096349114 97.46899553436253,17.137521115247164 94.96899553435011,17.807394096304268 93.13886851540681,19.637521115214746 92.46899553430487,22.137521115215154 93.13886851536196,24.637521115227578 94.96899553427244,26.467648134170883 97.46899553427285,27.137521115272833" stroke="#ffa500" stroke-linecap="round" stroke-linejoin="round"/><polyline fill="none" points="-37.96518521789989,-68.64781489516537 -35.46518521788746,-69.31768787622246 -33.63505819894415,-71.14781489513294 -32.965185217842205,-73.64781489513335 -33.63505819889931,-76.14781489514577 -35.46518521780978,-77.97794191408907 -37.96518521781019,-78.64781489519102 -40.465185217822615,-77.97794191413392 -42.29531223676592,-76.14781489522345 -42.96518521786788,-73.64781489522304 -42.29531223681077,-71.14781489521062 -40.4651852179003,-69.31768787626731 -37.96518521789989,-68.64781489516537" stroke="#ffa500" stroke-linecap="round" stroke-linejoin="round"/><polyline fill="none" points="-79.9462057579295,43.36614257047422 -77.44620575791708,42.69626958941711 -75.61607873897377,40.86614257050664 -74.94620575787182,38.36614257050623 -75.61607873892892,35.8661425704938 -77.4462057578394,34.03601555155049 -79.9462057578398,33.36614257044854 -82.44620575785224,34.036015551505635 -84.27633277679556,35.86614257041611 -84.94620575789752,38.366142570416514 -84.27633277684042,40.86614257042894 -82.44620575792995,42.69626958937225 -79.94620575792953,43.3661425704742" stroke="#ffa500" stroke-linecap="round" stroke-linejoin="round"/><polyline fill="none" points="-183.09196984061643,34.88128343809635 -180.591969840604,34.21141045703925 -178.7618428216607,32.381283438128776 -178.09196984055876,29.881283438128367 -178.76184282161586,27.381283438115936 -180.59196984052633,25.551156419172624 -183.09196984052673,24.881283438070668 -185.59196984053915,25.551156419127764 -187.42209685948245,27.38128343803824 -188.0919698405844,29.881283438038647 -187.4220968595273,32.38128343805108 -185.59196984061683,34.21141045699439 -183.09196984061643,34.881283438096354" stroke="#ffa500" stroke-linecap="round" stroke-linejoin="round"/><polyline fill="none" points="-15.126670343767366,-84.63750366423663 -12.626670343754935,-85.30737664529373 -10.796543324811621,-87.1375036642042 -10.126670343709662,-89.63750366420462 -10.796543324766757,-92.13750366421705 -12.626670343677228,-93.96763068316037 -15.126670343677638,-94.63750366426233 -17.62667034369007,-93.96763068320523 -19.456797362633385,-92.13750366429475 -20.126670343735345,-89.63750366429434 -19.45679736267825,-87.13750366428191 -17.62667034376778,-85.30737664533859 -15.126670343767373,-84.63750366423663" stroke="#00f" stroke-linecap="round" stroke-linejoin="round"/><polyline fill="none" points="-237.91224261846793,-23.81095103736275 -235.4122426184555,-24.480824018419842 -233.58211559951218,-26.310951037330312 -232.9122426184102,-28.81095103733072 -233.5821155994673,-31.310951037343152 -235.41224261837777,-33.14107805628647 -237.91224261837817,-33.81095103738843 -240.4122426183906,-33.14107805633134 -242.24236963733392,-31.310951037420867 -242.9122426184359,-28.81095103742046 -242.2423696373788,-26.310951037408028 -240.41224261846833,-24.48082401846471 -237.91224261846793,-23.810951037362745" stroke="#ffa500" stroke-linecap="round" stroke-linejoin="round"/><polyline fill="none" points="-194.0782397178337,97.64476041317388 -191.57823971782128,96.97488743211679 -189.74811269887795,95.14476041320631 -189.07823971777597,92.6447604132059 -189.74811269883307,90.14476041319347 -191.57823971774354,88.31463339425015 -194.07823971774394,87.64476041314819 -196.57823971775636,88.31463339420529 -198.4083667366997,90.14476041311576 -199.07823971780167,92.64476041311617 -198.40836673674457,95.14476041312861 -196.5782397178341,96.97488743207192 -194.0782397178337,97.64476041317388" stroke="#ffa500" stroke-linecap="round" stroke-linejoin="round"/><polyline fill="none" points="154.19917234989384,129.5268162618715 156.6991723499063,128.8569432808144 158.52929936884962,127.02681626190392 159.1991723499516,124.5268162619035 158.5292993688945,122.02681626189107 156.69917234998402,120.19668924294776 154.19917234998363,119.52681626184578 151.69917234997118,120.19668924290286 149.86904533102785,122.02681626181332 149.19917234992587,124.52681626181374 149.86904533098297,127.02681626182617 151.69917234989344,128.85694328076949 154.19917234989384,129.52681626187146" stroke="#ffa500" stroke-linecap="round" stroke-linejoin="round"/><polyline fill="none" points="-190.4225848608536,11.42542083971181 -187.92258486084114,10.755547858654724 -186.0924578418978,8.925420839744257 -185.42258486079584,6.425420839743848 -186.09245784185293,3.925420839731412 -187.9225848607634,2.095293820788088 -190.4225848607638,1.4254208396861179 -192.92258486077625,2.095293820743203 -194.75271187971958,3.9254208396536687 -195.42258486082156,6.425420839654079 -194.75271187976446,8.925420839666515 -192.922584860854,10.75554785860984 -190.4225848608536,11.42542083971181" stroke="#f00" stroke-linecap="round" stroke-linejoin="round"/><polyline fill="none" points="101.36191701889145,-134.81611167452454 103.86191701890388,-135.48598465558163 105.69204403784721,-137.3161116744921 106.36191701894919,-139.8161116744925 105.6920440378921,-142.31611167450495 103.86191701898164,-144.14623869344828 101.36191701898123,-144.81611167455026 98.8619170189688,-144.14623869349316 97.03179000002547,-142.3161116745827 96.36191701892349,-139.8161116745823 97.03178999998057,-137.31611167456984 98.86191701889103,-135.4859846556265 101.36191701889145,-134.81611167452454" stroke="#ffa500" stroke-linecap="round" stroke-linejoin="round"/><polyline fill="none" points="143.11560049696604,-93.92003334214498 145.6156004969785,-94.58990632320206 147.44572751592182,-96.42003334211252 148.1156004970238,-98.92003334211293 147.44572751596672,-101.42003334212536 145.61560049705625,-103.2501603610687 143.11560049705585,-103.92003334217067 140.6156004970434,-103.25016036111359 138.78547347810007,-101.42003334220313 138.1156004969981,-98.92003334220271 138.78547347805517,-96.42003334219028 140.61560049696564,-94.58990632324695 143.11560049696604,-93.92003334214498" stroke="#ffa500" stroke-linecap="round" stroke-linejoin="round"/><polyline fill="none" points="177.38227998968082,-75.7122744580745 179.88227998969327,-76.38214743913159 181.7124070086366,-78.21227445804205 182.38227998973858,-80.71227445804246 181.7124070086815,-83.21227445805489 179.88227998977104,-85.04240147699822 177.38227998977064,-85.7122744581002 174.8822799897582,-85.04240147704311 173.05215297081486,-83.21227445813265 172.38227998971288,-80.71227445813224 173.05215297076995,-78.21227445811981 174.88227998968043,-76.38214743917648 177.38227998968082,-75.7122744580745" stroke="#ffa500" stroke-linecap="round" stroke-linejoin="round"/><polyline fill="none" points="-180.3335403934986,28.223516916029084 -177.83354039348615,27.55364393497201 -176.00341337454282,25.72351691606155 -175.33354039344084,23.22351691606114 -176.0034133744979,20.7235169160487 -177.83354039340838,18.893389897105365 -180.33354039340878,18.223516916003383 -182.83354039342123,18.89338989706046 -184.66366741236456,20.72351691597092 -185.33354039346654,23.223516915971327 -184.66366741240947,25.72351691598377 -182.83354039349902,27.553643934927102 -180.33354039349862,28.223516916029084" stroke="#00f" stroke-linecap="round" stroke-linejoin="round"/><polyline fill="none" points="60.733813920754294,-130.80466395113086 63.233813920766735,-131.47453693218793 65.06394093971006,-133.30466395109838 65.73381392081205,-135.80466395109877 65.06394093975499,-138.30466395111122 63.233813920844526,-140.13479097005455 60.73381392084411,-140.80466395115653 58.23381392083167,-140.13479097009946 56.403686901888335,-138.304663951189 55.73381392078635,-135.80466395118862 56.40368690184343,-133.30466395117617 58.23381392075389,-131.47453693223284 60.7338139207543,-130.80466395113086" stroke="#ffa500" stroke-linecap="round" stroke-linejoin="round"/><polyline fill="none" points="119.35126001554265,-52.885194357220136 121.8512600155551,-53.555067338277205 123.68138703449844,-55.385194357187665 124.35126001560043,-57.88519435718808 123.68138703454336,-60.38519435720052 121.8512600156329,-62.215321376143855 119.35126001563249,-62.885194357245844 116.85126001562004,-62.215321376188776 115.0211329966767,-60.385194357278316 114.35126001557471,-57.8851943572779 115.02113299663178,-55.38519435726546 116.85126001554224,-53.555067338322125 119.35126001554265,-52.885194357220136" stroke="#ffa500" stroke-linecap="round" stroke-linejoin="round"/><polyline fill="none" points="141.32012620179958,109.8443861895803 143.82012620181203,109.17451320852324 145.65025322075536,107.34438618961278 146.32012620185736,104.84438618961237 145.6502532208003,102.34438618959992 143.82012620188985,100.51425917065657 141.32012620188945,99.84438618955458 138.820126201877,100.51425917061165 136.98999918293367,102.34438618952211 136.32012620183167,104.84438618952252 136.98999918288874,107.34438618953497 138.82012620179918,109.17451320847832 141.32012620179958,109.8443861895803" stroke="#ffa500" stroke-linecap="round" stroke-linejoin="round"/><polyline fill="none" points="34.37313511277432,174.1425789972914 36.87313511278677,173.47270601623433 38.70326213173011,171.64257899732388 39.3731351128321,169.14257899732348 38.703262131775034,166.64257899731103 36.87313511286458,164.8124519783677 34.37313511286417,164.1425789972657 31.87313511285172,164.81245197832277 30.043008093908377,166.64257899723322 29.373135112806384,169.1425789972336 30.04300809386345,171.64257899724606 31.8731351127739,173.47270601618942 34.373135112774314,174.14257899729142" stroke="#ffa500" stroke-linecap="round" stroke-linejoin="round"/><polyline fill="none" points="-145.9164593589318,-50.627034882793566 -143.41645935891935,-51.296907863850635 -141.586332339976,-53.12703488276109 -140.916459358874,-55.6270348827615 -141.58633233993106,-58.12703488277395 -143.4164593588415,-59.95716190171729 -145.9164593588419,-60.62703488281929 -148.41645935885435,-59.95716190176223 -150.2465863777977,-58.127034882851774 -150.91645935889971,-55.62703488285136 -150.24658637784265,-53.12703488283891 -148.4164593589322,-51.29690786389557 -145.9164593589318,-50.62703488279357" stroke="#00f" stroke-linecap="round" stroke-linejoin="round"/><polyline fill="none" points="-216.12650920663336,86.1640762001777 -213.6265092066209,85.49420321912064 -211.79638218767755,83.66407620021018 -211.12650920657555,81.16407620020976 -211.79638218763262,78.66407620019731 -213.62650920654306,76.83394918125397 -216.12650920654346,76.16407620015197 -218.6265092065559,76.83394918120904 -220.45663622549927,78.66407620011948 -221.12650920660127,81.1640762001199 -220.4566362255442,83.66407620013234 -218.62650920663376,85.49420321907569 -216.12650920663336,86.16407620017769" stroke="#00f" stroke-linecap="round" stroke-linejoin="round"/><polyline fill="none" points="140.47616947896915,140.2593959264449 142.9761694789816,139.58952294538784 144.80629649792496,137.7593959264774 145.47616947902696,135.259395926477 144.8062964979699,132.75939592646455 142.97616947905945,130.9292689075212 140.47616947905905,130.2593959264192 137.9761694790466,130.92926890747626 136.14604246010325,132.7593959263867 135.47616947900124,135.2593959263871 136.1460424600583,137.75939592639955 137.97616947896876,139.5895229453429 140.47616947896915,140.2593959264449" stroke="#ffa500" stroke-linecap="round" stroke-linejoin="round"/><polyline fill="none" points="-178.9936260955155,65.1049728791929 -176.49362609550306,64.43509989813585 -174.6634990765597,62.60497287922539 -173.9936260954577,60.10497287922498 -174.66349907651477,57.60497287921253 -176.4936260954252,55.77484586026918 -178.9936260954256,55.10497287916718 -181.49362609543806,55.77484586022423 -183.32375311438142,57.60497287913468 -183.99362609548342,60.10497287913509 -183.32375311442635,62.604972879147546 -181.4936260955159,64.4350998980909 -178.9936260955155,65.1049728791929" stroke="#ffa500" stroke-linecap="round" stroke-linejoin="round"/><polyline fill="none" points="-110.53627058062256,-45.95174558320192 -108.03627058061011,-46.62161856425897 -106.20614356166675,-48.45174558316942 -105.53627058056475,-50.95174558316983 -106.2061435616218,-53.45174558318229 -108.03627058053225,-55.28187260212564 -110.53627058053266,-55.95174558322764 -113.03627058054511,-55.28187260217059 -114.86639759948847,-53.45174558326014 -115.53627058059047,-50.95174558325973 -114.86639759953341,-48.45174558324727 -113.03627058062297,-46.621618564303915 -110.53627058062256,-45.951745583201905" stroke="#00f" stroke-linecap="round" stroke-linejoin="round"/><polyline fill="none" points="129.7925312044138,-52.16158756144515 132.29253120442624,-52.83146054250221 134.1226582233696,-54.66158756141265 134.7925312044716,-57.161587561413064 134.12265822341456,-59.66158756142552 132.29253120450412,-61.49171458036888 129.79253120450372,-62.16158756147089 127.29253120449127,-61.491714580413834 125.46240418554791,-59.66158756150339 124.79253120444591,-57.16158756150298 125.46240418550296,-54.66158756149052 127.29253120441341,-52.83146054254716 129.79253120441382,-52.16158756144515" stroke="#ffa500" stroke-linecap="round" stroke-linejoin="round"/><polyline fill="none" points="56.12336081466918,33.388581698162135 58.62336081468163,32.71870871710508 60.45348783362499,30.888581698194635 61.123360814727,28.388581698194226 60.453487833669946,25.88858169818177 58.6233608147595,24.058454679238412 56.12336081475909,23.388581698136402 53.62336081474663,24.058454679193453 51.793233795803275,25.8885816981039 51.123360814701265,28.388581698104307 51.79323379575831,30.888581698116763 53.62336081466876,32.718708717060125 56.12336081466917,33.388581698162135" stroke="#00f" stroke-linecap="round" stroke-linejoin="round"/><polyline fill="none" points="64.04578766474694,109.64694731380962 66.5457876647594,108.97707433275257 68.37591468370276,107.14694731384212 69.04578766480478,104.64694731384171 68.37591468374772,102.14694731382924 66.54578766483728,100.31682029488589 64.04578766483687,99.64694731378387 61.54578766482441,100.31682029484092 59.71566064588105,102.14694731375137 59.045787664779034,104.64694731375178 59.71566064583608,107.14694731376424 61.54578766474653,108.9770743327076 64.04578766474694,109.64694731380962" stroke="#ffa500" stroke-linecap="round" stroke-linejoin="round"/><polyline fill="none" points="-182.91991112240206,-73.28880206252023 -180.4199111223896,-73.95867504357727 -178.58978410344625,-75.78880206248772 -177.91991112234425,-78.28880206248813 -178.58978410340129,-80.7888020625006 -180.41991112231173,-82.61892908144395 -182.91991112231213,-83.28880206254597 -185.41991112232458,-82.61892908148893 -187.25003814126794,-80.78880206257848 -187.91991112236997,-78.28880206257807 -187.25003814131293,-75.78880206256561 -185.41991112240248,-73.95867504362224 -182.91991112240208,-73.28880206252022" stroke="#ffa500" stroke-linecap="round" stroke-linejoin="round"/><polyline fill="none" points="-64.52559432876461,-65.00001860194584 -62.02559432875215,-65.66989158300288 -60.195467309808784,-67.50001860191333 -59.52559432870677,-70.00001860191374 -60.195467309763806,-72.5000186019262 -62.025594328674245,-74.33014562086957 -64.52559432867466,-75.00001860197159 -67.02559432868712,-74.33014562091455 -68.85572134763049,-72.5000186020041 -69.52559432873251,-70.00001860200369 -68.85572134767547,-67.50001860199123 -67.02559432876502,-65.66989158304786 -64.52559432876461,-65.00001860194584" stroke="#ffa500" stroke-linecap="round" stroke-linejoin="round"/><polyline fill="none" points="-124.06739023541242,63.690791993244744 -121.56739023539996,63.020919012187704 -119.73726321645658,61.190791993277266 -119.06739023535457,58.690791993276854 -119.7372632164116,56.19079199326439 -121.56739023532205,54.36066497432102 -124.06739023532246,53.690791993218994 -126.56739023533493,54.360664974276034 -128.39751725427828,56.19079199318647 -129.06739023538032,58.690791993186885 -128.39751725432328,61.19079199319935 -126.56739023541283,63.02091901214272 -124.06739023541242,63.690791993244744" stroke="#ffa500" stroke-linecap="round" stroke-linejoin="round"/><polyline fill="none" points="46.45206875472594,89.76319085005161 48.952068754738406,89.09331786899457 50.78219577368178,87.26319085008413 51.4520687547838,84.76319085008372 50.78219577372676,82.26319085007125 48.952068754816324,80.43306383112788 46.45206875481591,79.76319085002585 43.95206875480345,80.43306383108289 42.12194173586008,82.26319084999332 41.45206875475805,84.76319084999373 42.12194173581509,87.2631908500062 43.95206875472553,89.09331786894957 46.45206875472594,89.7631908500516" stroke="#00f" stroke-linecap="round" stroke-linejoin="round"/><polyline fill="none" points="-29.232969715537088,157.4200108670632 -26.732969715524625,156.75013788600617 -24.902842696581253,154.92001086709573 -24.232969715479225,152.42001086709533 -24.90284269653626,149.92001086708285 -26.732969715446696,148.08988384813946 -29.232969715447105,147.42001086703743 -31.73296971545957,148.08988384809447 -33.56309673440295,149.92001086700492 -34.23296971550498,152.42001086700532 -33.563096734447946,154.9200108670178 -31.73296971553751,156.75013788596118 -29.232969715537102,157.4200108670632" stroke="#ffa500" stroke-linecap="round" stroke-linejoin="round"/><polyline fill="none" points="-108.70426382539428,30.11689913077688 -106.20426382538182,29.447026149719846 -104.37413680643844,27.61689913080941 -103.70426382533641,25.116899130809003 -104.37413680639344,22.616899130796536 -106.20426382530387,20.78677211185316 -108.70426382530428,20.11689913075113 -111.20426382531674,20.786772111808162 -113.03439084426012,22.616899130718597 -113.70426382536215,25.116899130719005 -113.03439084430512,27.616899130731472 -111.20426382539469,29.44702614967485 -108.70426382539428,30.116899130776886" stroke="#00f" stroke-linecap="round" stroke-linejoin="round"/><polyline fill="none" points="-150.52601547624374,98.52512716574483 -148.02601547623127,97.85525418468781 -146.19588845728788,96.02512716577738 -145.52601547618585,93.52512716577696 -146.1958884572429,91.0251271657645 -148.02601547615333,89.19500014682112 -150.52601547615373,88.52512716571908 -153.0260154761662,89.19500014677611 -154.8561424951096,91.02512716568654 -155.52601547621163,93.52512716568695 -154.8561424951546,96.02512716569942 -153.02601547624414,97.8552541846428 -150.52601547624374,98.52512716574483" stroke="#ffa500" stroke-linecap="round" stroke-linejoin="round"/><polyline fill="none" points="69.10306833751191,28.847194621779156 71.60306833752438,28.177321640722127 73.43319535646776,26.347194621811695 74.1030683375698,23.847194621811287 73.43319535651277,21.347194621798817 71.60306833760234,19.517067602855434 69.10306833760193,18.847194621753395 66.60306833758946,19.51706760281042 64.77294131864608,21.347194621720853 64.10306833754404,23.84719462172126 64.77294131860107,26.34719462173373 66.6030683375115,28.177321640677114 69.10306833751191,28.847194621779153" stroke="#ffa500" stroke-linecap="round" stroke-linejoin="round"/><polyline fill="none" points="-151.47328726801365,-26.77978225510433 -148.97328726800117,-27.449655236161355 -147.1431602490578,-29.279782255071787 -146.47328726795575,-31.779782255072195 -147.14316024901277,-34.27978225508467 -148.97328726792318,-36.109909274028055 -151.47328726792358,-36.779782255130094 -153.97328726793606,-36.10990927407307 -155.80341428687944,-34.27978225516264 -156.47328726798148,-31.779782255162228 -155.80341428692446,-29.279782255149758 -153.97328726801405,-27.44965523620637 -151.47328726801365,-26.77978225510433" stroke="#008000" stroke-linecap="round" stroke-linejoin="round"/><polyline fill="none" points="-147.72032417707806,-35.636110775657116 -145.22032417706558,-36.30598375671414 -143.3901971581222,-38.13611077562457 -142.72032417702016,-40.636110775624985 -143.39019715807717,-43.136110775637455 -145.2203241769876,-44.96623779458084 -147.720324176988,-45.63611077568289 -150.22032417700046,-44.96623779462587 -152.05045119594385,-43.13611077571544 -152.72032417704588,-40.636110775715025 -152.05045119598887,-38.136110775702555 -150.22032417707845,-36.30598375675917 -147.72032417707806,-35.63611077565712" stroke="#00f" stroke-linecap="round" stroke-linejoin="round"/><polyline fill="none" points="8.520022020592071,173.25799766323308 11.020022020604545,172.58812468217607 12.850149039547933,170.75799766326566 13.520022020649979,168.25799766326526 12.850149039592958,165.75799766325278 11.02002202068253,163.9278706443094 8.52002202068212,163.25799766320733 6.020022020669646,163.92787064426435 4.189895001726256,165.75799766317476 3.52002202062421,168.25799766317516 4.189895001681229,170.75799766318764 6.020022020591657,172.58812468213102 8.520022020592066,173.25799766323308" stroke="#00f" stroke-linecap="round" stroke-linejoin="round"/><polyline fill="none" points="-182.03745459639205,40.01905979967599 -179.53745459637958,39.349186818618975 -177.7073275774362,37.51905979970855 -177.03745459633413,35.01905979970814 -177.70732757739114,32.51905979969566 -179.53745459630156,30.68893278075227 -182.03745459630196,30.019059799650222 -184.53745459631443,30.68893278070724 -186.36758161525782,32.519059799617665 -187.03745459635988,35.01905979961808 -186.36758161530287,37.519059799630554 -184.53745459639245,39.34918681857395 -182.03745459639205,40.019059799676" stroke="#00f" stroke-linecap="round" stroke-linejoin="round"/><polyline fill="none" points="118.61892553903176,125.76685857101835 121.11892553904424,125.09698558996133 122.94905255798764,123.2668585710509 123.61892553908969,120.76685857105049 122.94905255803268,118.26685857103801 121.11892553912224,116.43673155209461 118.61892553912183,115.76685857099257 116.11892553910936,116.43673155204958 114.28879852016595,118.26685857096001 113.61892553906391,120.76685857096042 114.28879852012092,123.2668585709729 116.11892553903135,125.0969855899163 118.61892553903176,125.76685857101835" stroke="#ffa500" stroke-linecap="round" stroke-linejoin="round"/><polyline fill="none" points="-96.20131697947278,46.60171181137602 -93.7013169794603,45.93183883031901 -91.8711899605169,44.101711811408585 -91.20131697941484,41.60171181140817 -91.87118996047185,39.101711811395695 -93.70131697938227,37.2715847924523 -96.20131697938268,36.60171181135025 -98.70131697939516,37.27158479240726 -100.53144399833856,39.101711811317685 -101.20131697944062,41.6017118113181 -100.53144399838361,44.101711811330574 -98.70131697947319,45.931838830273975 -96.20131697947278,46.60171181137603" stroke="#ffa500" stroke-linecap="round" stroke-linejoin="round"/><polyline fill="none" points="123.31991613628387,-73.03264878657276 125.81991613629634,-73.70252176762978 127.65004315523974,-75.5326487865402 128.3199161363418,-78.0326487865406 127.65004315528478,-80.53264878655308 125.81991613637436,-82.36277580549648 123.31991613637395,-83.03264878659854 120.81991613636147,-82.36277580554153 118.98978911741807,-80.53264878663111 118.31991613631601,-78.0326487866307 118.98978911737302,-75.53264878661822 120.81991613628344,-73.70252176767482 123.31991613628385,-73.03264878657276" stroke="#ffa500" stroke-linecap="round" stroke-linejoin="round"/><polyline fill="none" points="-140.59343790698753,114.8093111068466 -138.09343790697505,114.13943812578958 -136.26331088803167,112.30931110687916 -135.5934379069296,109.80931110687875 -136.26331088798662,107.30931110686628 -138.09343790689704,105.47918408792287 -140.59343790689744,104.80931110682081 -143.0934379069099,105.47918408787783 -144.92356492585333,107.30931110678824 -145.5934379069554,109.80931110678866 -144.92356492589838,112.30931110680113 -143.09343790698796,114.13943812574453 -140.59343790698756,114.8093111068466" stroke="#ffa500" stroke-linecap="round" stroke-linejoin="round"/><polyline fill="none" points="88.62133421275188,-30.733405034310792 91.12133421276435,-31.4032780153678 92.95146123170775,-33.23340503427822 93.62133421280981,-35.73340503427863 92.9514612317528,-38.23340503429112 91.12133421284238,-40.06353205323452 88.62133421284197,-40.73340503433658 86.1213342128295,-40.06353205327957 84.2912071938861,-38.233405034369156 83.62133421278403,-35.733405034368744 84.29120719384105,-33.23340503435626 86.12133421275146,-31.403278015412855 88.62133421275188,-30.733405034310792" stroke="#ffa500" stroke-linecap="round" stroke-linejoin="round"/><polyline fill="none" points="-202.46327516840032,10.783631684526036 -199.96327516838784,10.113758703469031 -198.13314814944442,8.283631684558612 -197.46327516834236,5.783631684558203 -198.13314814939937,3.28363168454572 -199.9632751683098,1.4535046656023145 -202.4632751683102,0.7836316845002502 -204.96327516832267,1.4535046655572539 -206.79340218726608,3.2836316844676725 -207.46327516836814,5.783631684468082 -206.79340218731113,8.283631684480566 -204.9632751684007,10.113758703423972 -202.46327516840032,10.783631684526037" stroke="#008000" stroke-linecap="round" stroke-linejoin="round"/><polyline fill="none" points="-148.0924355587072,82.43880304047472 -145.59243555869472,81.76893005941773 -143.7623085397513,79.93880304050731 -143.09243555864924,77.4388030405069 -143.76230853970625,74.9388030404944 -145.59243555861667,73.10867602155099 -148.09243555861707,72.43880304044892 -150.59243555862955,73.10867602150591 -152.42256257757296,74.93880304041633 -153.09243555867502,77.43880304041674 -152.422562577618,79.93880304042924 -150.5924355587076,81.76893005937265 -148.0924355587072,82.43880304047472" stroke="#00f" stroke-linecap="round" stroke-linejoin="round"/><polyline fill="none" points="-77.99881274523965,29.978610357001823 -75.49881274522716,29.308737375944823 -73.66868572628374,27.478610357034405 -72.99881274518167,24.978610357033997 -73.66868572623866,22.478610357021513 -75.49881274514908,20.6484833380781 -77.9988127451495,19.97861035697603 -80.49881274516198,20.648483338033028 -82.3289397641054,22.478610356943445 -82.99881274520747,24.978610356943854 -82.32893976415048,27.478610356956338 -80.49881274524006,29.30873737589975 -77.99881274523965,29.97861035700182" stroke="#ffa500" stroke-linecap="round" stroke-linejoin="round"/><polyline fill="none" points="114.65625339716483,129.69037296297142 117.15625339717732,129.0204999819144 118.98638041612074,127.190372963004 119.65625339722281,124.69037296300358 118.98638041616582,122.19037296299109 117.1562533972554,120.36024594404768 114.65625339725499,119.6903729629456 112.1562533972425,120.3602459440026 110.32612637829908,122.19037296291302 109.656253397197,124.69037296291343 110.326126378254,127.19037296292592 112.15625339716442,129.02049998186934 114.65625339716483,129.6903729629714" stroke="#00f" stroke-linecap="round" stroke-linejoin="round"/><polyline fill="none" points="-255.81541798352353,-48.14319703668349 -253.31541798351105,-48.813070017740486 -251.48529096456764,-50.6431970366509 -250.81541798346558,-53.143197036651316 -251.48529096452256,-55.64319703666381 -253.31541798343298,-57.47332405560722 -255.81541798343338,-58.143197036709296 -258.31541798344585,-57.4733240556523 -260.14554500238927,-55.64319703674189 -260.81541798349133,-53.143197036741476 -260.14554500243435,-50.643197036728985 -258.31541798352396,-48.81307001778557 -255.81541798352356,-48.143197036683496" stroke="#ffa500" stroke-linecap="round" stroke-linejoin="round"/><polyline fill="none" points="-130.48111588589592,98.4688376323494 -127.98111588588343,97.79896465129241 -126.15098886694001,95.96883763238199 -125.48111588583794,93.46883763238158 -126.15098886689493,90.96883763236909 -127.98111588580535,89.13871061342567 -130.48111588580576,88.4688376323236 -132.98111588581824,89.1387106133806 -134.81124290476166,90.96883763229101 -135.48111588586374,93.46883763229143 -134.81124290480676,95.96883763230392 -132.98111588589634,97.79896465124733 -130.48111588589595,98.4688376323494" stroke="#ffa500" stroke-linecap="round" stroke-linejoin="round"/><polyline fill="none" points="-233.82948682051804,89.98453527251593 -231.32948682050556,89.31466229145893 -229.49935980156215,87.48453527254851 -228.82948682046006,84.9845352725481 -229.49935980151704,82.48453527253561 -231.32948682042746,80.6544082535922 -233.82948682042786,79.98453527249012 -236.32948682044037,80.65440825354712 -238.15961383938378,82.48453527245753 -238.82948682048587,84.98453527245795 -238.15961383942889,87.48453527247044 -236.32948682051847,89.31466229141385 -233.82948682051807,89.98453527251593" stroke="#ffa500" stroke-linecap="round" stroke-linejoin="round"/><polyline fill="none" points="-155.14317225271736,-23.242382647065465 -152.64317225270486,-23.912255628122455 -150.81304523376144,-25.742382647032866 -150.14317225265935,-28.242382647033274 -150.81304523371634,-30.742382647045766 -152.64317225262675,-32.57250966598919 -155.14317225262715,-33.24238264709127 -157.64317225263966,-32.57250966603428 -159.47329927158307,-30.74238264712387 -160.14317225268516,-28.24238264712346 -159.47329927162818,-25.74238264711097 -157.64317225271776,-23.912255628167546 -155.14317225271736,-23.24238264706546" stroke="#008000" stroke-linecap="round" stroke-linejoin="round"/><polyline fill="none" points="-234.78429965419005,-48.95221727880766 -232.28429965417754,-49.62209025986465 -230.45417263523413,-51.45221727877506 -229.78429965413204,-53.95221727877547 -230.45417263518902,-56.45221727878796 -232.28429965409944,-58.282344297731385 -234.78429965409984,-58.952217278833466 -237.28429965411235,-58.28234429777648 -239.11442667305576,-56.45221727886607 -239.78429965415785,-53.95221727886566 -239.11442667310087,-51.45221727885317 -237.28429965419045,-49.62209025990975 -234.78429965419005,-48.95221727880766" stroke="#ffa500" stroke-linecap="round" stroke-linejoin="round"/><polyline fill="none" points="-167.64386232167848,-37.98559287873371 -165.14386232166598,-38.655465859790695 -163.31373530272256,-40.485592878701105 -162.64386232162047,-42.98559287870152 -163.31373530267746,-45.48559287871401 -165.14386232158787,-47.31571989765743 -167.64386232158827,-47.98559287875952 -170.14386232160078,-47.315719897702536 -171.9739893405442,-45.485592878792126 -172.64386232164628,-42.985592878791714 -171.9739893405893,-40.485592878779215 -170.14386232167888,-38.655465859835786 -167.64386232167848,-37.9855928787337" stroke="#00f" stroke-linecap="round" stroke-linejoin="round"/><polyline fill="none" points="82.84837570803407,-108.39179685761478 85.34837570804656,-109.06166983867176 87.17850272698999,-110.89179685758216 87.84837570809208,-113.39179685758258 87.1785027270351,-115.89179685759507 85.34837570812469,-117.7219238765385 82.84837570812428,-118.39179685764059 80.34837570811179,-117.7219238765836 78.51824868916836,-115.8917968576732 77.84837570806627,-113.39179685767279 78.51824868912325,-110.8917968576603 80.34837570803366,-109.06166983871687 82.84837570803407,-108.39179685761478" stroke="#00f" stroke-linecap="round" stroke-linejoin="round"/><polyline fill="none" points="-222.68462491802927,-17.711765973035746 -220.18462491801677,-18.381638954092725 -218.35449789907332,-20.211765973003132 -217.68462491797123,-22.71176597300354 -218.35449789902822,-25.21176597301604 -220.18462491793863,-27.041892991959468 -222.68462491793903,-27.71176597306156 -225.18462491795154,-27.04189299200458 -227.01475193689498,-25.211765973094177 -227.68462491799707,-22.71176597309377 -227.0147519369401,-20.21176597308127 -225.18462491802967,-18.381638954137838 -222.68462491802927,-17.711765973035742" stroke="#00f" stroke-linecap="round" stroke-linejoin="round"/><polyline fill="none" points="53.49083732922067,88.34806387935033 55.990837329233166,87.67819089829335 57.820964348176595,85.84806387938295 58.49083732927869,83.34806387938254 57.820964348221715,80.84806387937003 55.99083732931131,79.0179368604266 53.4908373293109,78.3480638793245 50.9908373292984,79.01793686038148 49.160710310354965,80.84806387929189 48.49083732925287,83.3480638792923 49.160710310309845,85.8480638793048 50.99083732922025,87.67819089824823 53.49083732922066,88.34806387935033" stroke="#ffa500" stroke-linecap="round" stroke-linejoin="round"/><polyline fill="none" points="-166.04174161151855,45.88525446815853 -163.54174161150604,45.21538148710155 -161.7116145925626,43.38525446819115 -161.0417416114605,40.88525446819074 -161.7116145925175,38.38525446817824 -163.54174161142788,36.5551274492348 -166.04174161142828,35.8852544681327 -168.54174161144078,36.555127449189676 -170.37186863038423,38.38525446810008 -171.04174161148632,40.88525446810049 -170.37186863042933,43.38525446811299 -168.54174161151894,45.215381487056426 -166.04174161151855,45.88525446815853" stroke="#008000" stroke-linecap="round" stroke-linejoin="round"/><polyline fill="none" points="81.733864293294,47.33096755453318 84.23386429330651,46.661094573476205 86.06399131224995,44.8309675545658 86.73386429335206,42.33096755456539 86.06399131229509,39.83096755455289 84.23386429338468,38.000840535609456 81.73386429338427,37.33096755450735 79.23386429337177,38.00084053556432 77.40373727442832,39.830967554474725 76.73386429332622,42.33096755447514 77.40373727438319,44.83096755448764 79.23386429329359,46.66109457343108 81.733864293294,47.33096755453318" stroke="#ffa500" stroke-linecap="round" stroke-linejoin="round"/><polyline fill="none" points="50.310912009907945,-155.27018948295208 52.81091200992045,-155.94006246400906 54.64103902886389,-157.77018948291945 55.31091200996599,-160.27018948291985 54.64103902890902,-162.77018948293235 52.810912009998624,-164.6003165018758 50.31091200999822,-165.2701894829779 47.810912009985714,-164.60031650192096 45.98078499104227,-162.77018948301057 45.31091200994017,-160.27018948301017 45.98078499099714,-157.77018948299767 47.81091200990753,-155.94006246405422 50.310912009907945,-155.2701894829521" stroke="#ffa500" stroke-linecap="round" stroke-linejoin="round"/><polyline fill="none" points="-11.985886721746432,170.5611518173002 -9.485886721733928,169.89127883624326 -7.655759702790486,168.06115181733287 -6.985886721688379,165.56115181733247 -7.655759702745346,163.06115181731997 -9.485886721655744,161.23102479837652 -11.985886721656152,160.5611518172744 -14.485886721668658,161.23102479833136 -16.3160137406121,163.06115181724175 -16.98588672171421,165.56115181724215 -16.316013740657244,168.06115181725465 -14.485886721746848,169.8912788361981 -11.98588672174644,170.5611518173002" stroke="#ffa500" stroke-linecap="round" stroke-linejoin="round"/><polyline fill="none" points="154.0264033868488,-111.07837062752954 156.52640338686132,-111.7482436085865 158.35653040580476,-113.57837062749691 159.02640338690688,-116.07837062749732 158.35653040584992,-118.57837062750983 156.52640338693953,-120.40849764645327 154.02640338693914,-121.07837062755539 151.52640338692663,-120.40849764649842 149.6962763679832,-118.57837062758803 149.02640338688107,-116.07837062758762 149.69627636793803,-113.57837062757511 151.52640338684841,-111.74824360863167 154.0264033868488,-111.07837062752955" stroke="#ffa500" stroke-linecap="round" stroke-linejoin="round"/><polyline fill="none" points="63.10417653030597,-114.24549500137884 65.60417653031848,-114.91536798243581 67.43430354926193,-116.7454950013462 68.10417653036404,-119.24549500134661 67.43430354930707,-121.74549500135912 65.60417653039669,-123.57562202030256 63.10417653039627,-124.24549500140468 60.60417653038377,-123.57562202034772 58.77404951144032,-121.74549500143733 58.1041765303382,-119.24549500143692 58.77404951139516,-116.74549500142442 60.60417653030556,-114.91536798248097 63.10417653030597,-114.24549500137886" stroke="#ffa500" stroke-linecap="round" stroke-linejoin="round"/><polyline fill="none" points="73.87560520357893,-72.32682851052986 76.37560520359143,-72.99670149158682 78.20573222253488,-74.82682851049721 78.875605203637,-77.32682851049762 78.20573222258004,-79.82682851051013 76.37560520366965,-81.65695552945357 73.87560520366924,-82.32682851055569 71.37560520365673,-81.65695552949873 69.54547818471329,-79.82682851058834 68.87560520361117,-77.32682851058793 69.54547818466813,-74.82682851057542 71.37560520357852,-72.99670149163197 73.87560520357893,-72.32682851052985" stroke="#00f" stroke-linecap="round" stroke-linejoin="round"/><polyline fill="none" points="155.67024486203476,-94.78149503713061 158.17024486204727,-95.45136801818757 160.0003718809907,-97.28149503709795 160.67024486209283,-99.78149503709837 160.00037188103587,-102.28149503711087 158.1702448621255,-104.11162205605433 155.6702448621251,-104.78149503715645 153.17024486211258,-104.11162205609949 151.34011784316914,-102.2814950371891 150.67024486206702,-99.78149503718869 151.34011784312398,-97.28149503717619 153.17024486203437,-95.45136801823273 155.67024486203476,-94.78149503713061" stroke="#00f" stroke-linecap="round" stroke-linejoin="round"/><polyline fill="none" points="-245.77372951646214,-32.97429840628898 -243.27372951644963,-33.644171387345935 -241.4436024975062,-35.474298406256324 -240.77372951640407,-37.974298406256736 -241.44360249746103,-40.47429840626925 -243.27372951637142,-42.304425425212706 -245.77372951637182,-42.97429840631483 -248.27372951638432,-42.304425425257875 -250.10385653532776,-40.474298406347486 -250.77372951642988,-37.974298406347074 -250.10385653537293,-35.47429840633456 -248.27372951646254,-33.644171387391104 -245.77372951646214,-32.97429840628898" stroke="#00f" stroke-linecap="round" stroke-linejoin="round"/><polyline fill="none" points="114.75562806473633,-89.22918682839568 117.25562806474883,-89.89905980945264 119.08575508369229,-91.72918682836303 119.75562806479441,-94.22918682836344 119.08575508373745,-96.72918682837596 117.25562806482706,-98.55931384731942 114.75562806482665,-99.22918682842155 112.25562806481413,-98.55931384736459 110.42550104587067,-96.7291868284542 109.75562806476854,-94.22918682845379 110.4255010458255,-91.72918682844127 112.25562806473589,-89.89905980949781 114.7556280647363,-89.22918682839568" stroke="#00f" stroke-linecap="round" stroke-linejoin="round"/><polyline fill="none" points="-170.31301951892937,-69.85313941018117 -167.81301951891686,-70.52301239123813 -165.9828924999734,-72.35313941014851 -165.31301951887127,-74.85313941014893 -165.98289249992823,-77.35313941016145 -167.81301951883862,-79.1832664291049 -170.313019518839,-79.85313941020704 -172.81301951885152,-79.18326642915008 -174.643146537795,-77.35313941023969 -175.3130195188971,-74.85313941023928 -174.64314653784015,-72.35313941022676 -172.81301951892976,-70.5230123912833 -170.31301951892937,-69.85313941018117" stroke="#ffa500" stroke-linecap="round" stroke-linejoin="round"/><polyline fill="none" points="-224.96233452445102,85.5577725106392 -222.46233452443852,84.88789952958224 -220.63220750549505,83.05777251067185 -219.96233452439293,80.55777251067144 -220.63220750544988,78.05777251065892 -222.46233452436027,76.22764549171546 -224.96233452436067,75.55777251061333 -227.46233452437318,76.22764549167027 -229.29246154331665,78.05777251058066 -229.96233452441876,80.55777251058107 -229.2924615433618,83.0577725105936 -227.46233452445142,84.88789952953705 -224.96233452445102,85.55777251063918" stroke="#ffa500" stroke-linecap="round" stroke-linejoin="round"/><polyline fill="none" points="-130.41929229346792,52.98874924444377 -127.9192922934554,52.31887626338682 -126.08916527451194,50.48874924447644 -125.41929229340981,47.988749244476026 -126.08916527446675,45.488749244463506 -127.91929229337714,43.65862222552004 -130.41929229337754,42.98874924441791 -132.91929229339004,43.65862222547486 -134.74941931233352,45.48874924438524 -135.41929229343566,47.98874924438565 -134.7494193123787,50.48874924439817 -132.91929229346832,52.318876263341636 -130.41929229346792,52.98874924444377" stroke="#00f" stroke-linecap="round" stroke-linejoin="round"/><polyline fill="none" points="-192.5935553697104,17.3308794191519 -190.0935553696979,16.661006438094955 -188.26342835075442,14.830879419184571 -187.59355536965228,12.330879419184162 -188.26342835070923,9.830879419171644 -190.09355536961962,8.000752400228178 -192.59355536962002,7.330879419126043 -195.09355536963253,8.000752400182984 -196.923682388576,9.830879419093367 -197.59355536967814,12.330879419093776 -196.9236823886212,14.830879419106296 -195.0935553697108,16.661006438049764 -192.5935553697104,17.330879419151902" stroke="#008000" stroke-linecap="round" stroke-linejoin="round"/><polyline fill="none" points="105.38830542920529,-38.502583688965295 107.88830542921781,-39.172456670022235 109.71843244816128,-41.00258368893262 110.38830542926343,-43.50258368893303 109.71843244820649,-46.00258368894555 107.88830542929611,-47.83271070788902 105.3883054292957,-48.50258368899116 102.88830542928318,-47.83271070793422 101.0581784103397,-46.00258368902384 100.38830542923756,-43.502583689023425 101.0581784102945,-41.002583689010905 102.88830542920488,-39.17245667006743 105.38830542920529,-38.502583688965295" stroke="#ffa500" stroke-linecap="round" stroke-linejoin="round"/><polyline fill="none" points="65.88588252641557,-141.1809720366617 68.38588252642809,-141.85084501771863 70.21600954537156,-143.68097203662902 70.88588252647371,-146.1809720366294 70.21600954541677,-148.68097203664195 68.38588252650639,-150.51109905558542 65.88588252650598,-151.18097203668756 63.38588252649346,-150.51109905563064 61.55575550754999,-148.68097203672025 60.885882526447844,-146.18097203671985 61.55575550750478,-143.68097203670732 63.38588252641516,-141.85084501776385 65.88588252641557,-141.1809720366617" stroke="#ffa500" stroke-linecap="round" stroke-linejoin="round"/><polyline fill="none" points="-196.8411747294395,-34.43202988924178 -194.34117472942697,-35.101902870298716 -192.5110477104835,-36.9320298892091 -191.84117472938135,-39.43202988920951 -192.51104771043828,-41.93202988922203 -194.34117472934867,-43.7621569081655 -196.84117472934906,-44.432029889267646 -199.3411747293616,-43.76215690821071 -201.17130174830507,-41.93202988930033 -201.84117472940721,-39.43202988929992 -201.1713017483503,-36.93202988928739 -199.3411747294399,-35.10190287034391 -196.8411747294395,-34.43202988924177" stroke="#00f" stroke-linecap="round" stroke-linejoin="round"/><polyline fill="none" points="101.4772735578166,-104.13241479411798 103.97727355782912,-104.80228777517492 105.8074005767726,-106.63241479408529 106.47727355787474,-109.1324147940857 105.80740057681781,-111.63241479409822 103.97727355790744,-113.4625418130417 101.47727355790703,-114.13241479414384 98.9772735578945,-113.46254181308691 97.14714653895103,-111.63241479417654 96.47727355784889,-109.13241479417613 97.14714653890582,-106.63241479416361 98.97727355781619,-104.80228777522014 101.4772735578166,-104.13241479411799" stroke="#00f" stroke-linecap="round" stroke-linejoin="round"/><polyline fill="none" points="88.97385940799991,-63.45578442098291 91.47385940801243,-64.12565740203983 93.3039864269559,-65.95578442095021 93.97385940805805,-68.45578442095062 93.30398642700112,-70.95578442096314 91.47385940809075,-72.78591143990663 88.97385940809033,-73.45578442100877 86.47385940807781,-72.78591143995185 84.64373238913433,-70.95578442104147 83.97385940803218,-68.45578442104106 84.64373238908911,-65.95578442102854 86.47385940799948,-64.12565740208505 88.9738594079999,-63.4557844209829" stroke="#ffa500" stroke-linecap="round" stroke-linejoin="round"/><polyline fill="none" points="-219.0830715668567,74.69155476010896 -216.58307156684415,74.02168177905203 -214.75294454790068,72.19155476014166 -214.08307156679854,69.69155476014124 -214.75294454785546,67.19155476012872 -216.58307156676585,65.36142774118524 -219.08307156676625,64.69155476008308 -221.58307156677878,65.36142774114 -223.41319858572226,67.19155476005038 -224.0830715668244,69.69155476005079 -223.41319858576747,72.19155476006333 -221.58307156685711,74.02168177900681 -219.08307156685672,74.69155476010897" stroke="#ffa500" stroke-linecap="round" stroke-linejoin="round"/><polyline fill="none" points="-198.2939077894831,9.098372389100158 -195.79390778947055,8.428499408043232 -193.96378077052708,6.598372389132858 -193.29390778942494,4.098372389132448 -193.96378077048186,1.5983723891199197 -195.79390778939222,-0.23175462982356443 -198.29390778939262,-0.9016276109257197 -200.79390778940515,-0.23175462986879491 -202.62403480834863,1.5983723890415782 -203.29390778945077,4.098372389041987 -202.62403480839384,6.598372389054516 -200.79390778948348,8.428499407998002 -198.2939077894831,9.09837238910016" stroke="#008000" stroke-linecap="round" stroke-linejoin="round"/><polyline fill="none" points="-103.40180346594215,29.359372818704447 -100.90180346592962,28.689499837647524 -99.07167644698613,26.859372818737153 -98.40180346588397,24.359372818736745 -99.0716764469409,21.859372818724214 -100.90180346585127,20.02924579978073 -103.40180346585169,19.35937281867857 -105.90180346586422,20.02924579973549 -107.7319304848077,21.859372818645863 -108.40180346590986,24.35937281864627 -107.73193048485294,26.8593728186588 -105.90180346594256,28.689499837602288 -103.40180346594215,29.359372818704447" stroke="#ffa500" stroke-linecap="round" stroke-linejoin="round"/><polyline fill="none" points="-146.3369840914918,-40.28438853474233 -143.83698409147925,-40.954261515799246 -142.00685707253575,-42.78438853470962 -141.33698409143358,-45.28438853471003 -142.0068570724905,-47.78438853472257 -143.83698409140086,-49.61451555366605 -146.33698409140126,-50.28438853476821 -148.8369840914138,-49.61451555371129 -150.6671111103573,-47.784388534800925 -151.33698409145947,-45.28438853480051 -150.66711111040254,-42.78438853478798 -148.83698409149218,-40.954261515844486 -146.3369840914918,-40.28438853474233" stroke="#ffa500" stroke-linecap="round" stroke-linejoin="round"/><polyline fill="none" points="-160.610274820096,-28.41335322948497 -158.11027482008348,-29.083226210541888 -156.28014780113998,-30.91335322945226 -155.6102748200378,-33.41335322945267 -156.28014780109473,-35.9133532294652 -158.1102748200051,-37.743480248408694 -160.6102748200055,-38.41335322951086 -163.11027482001802,-37.74348024845394 -164.94040183896152,-35.913353229543574 -165.6102748200637,-33.41335322954316 -164.94040183900677,-30.913353229530628 -163.1102748200964,-29.083226210587135 -160.610274820096,-28.41335322948497" stroke="#00f" stroke-linecap="round" stroke-linejoin="round"/><polyline fill="none" points="-6.764797289742173,151.86899887442277 -4.264797289729639,151.19912589336585 -2.434670270786146,149.36899887445549 -1.7647972896839805,146.8689988744551 -2.4346702707408965,144.36899887444255 -4.2647972896512645,142.53887185549905 -6.764797289651674,141.86899887439688 -9.264797289664209,142.5388718554538 -11.094924308607702,144.36899887436417 -11.764797289709868,146.86899887436456 -11.094924308652953,149.3689988743771 -9.264797289742585,151.1991258933206 -6.764797289742176,151.86899887442277" stroke="#ffa500" stroke-linecap="round" stroke-linejoin="round"/><polyline fill="none" points="-166.87810152581326,50.124417719429175 -164.37810152580073,49.45454473837226 -162.54797450685723,47.624417719461896 -161.87810152575506,45.12441771946149 -162.54797450681198,42.62441771944896 -164.37810152572234,40.794290700505464 -166.87810152572274,40.1244177194033 -169.37810152573527,40.79429070046021 -171.20822854467878,42.62441771937058 -171.87810152578095,45.12441771937099 -171.20822854472402,47.62441771938352 -169.37810152581366,49.45454473832702 -166.87810152581326,50.124417719429196" stroke="#ffa500" stroke-linecap="round" stroke-linejoin="round"/></svg>