<?xml version="1.0" ?><!DOCTYPE svg  PUBLIC '-//W3C//DTD SVG 1.1//EN'  'http://www.w3.org/Graphics/SVG/1.1/DTD/svg11.dtd'><svg height="442.000" viewBox="-317.000 -211.000 532.000 442.000" width="532.000" xmlns="http://www.w3.org/2000/svg"><line fill="none" stroke="none" stroke-linecap="round" stroke-width="2.0" x1="0.0" x2="0.0" y1="0.0" y2="0.0"/><polygon fill="none" fill-rule="evenodd" points="0.0,0.0 0.0,0.0 0.0,0.0" stroke-linejoin="round"/><polyline fill="none" points="22.06322507771163,47.81813915993299 24.563225077725246,47.14826617887788 26.393352096670583,45.31813915996854 27.063225077774856,42.81813915996809 26.39335209671975,40.31813915995447 24.563225077810404,38.488012141009136 22.06322507780996,37.81813915990486 19.563225077796343,38.48801214095997 17.733098058851006,40.31813915986931 17.063225077746733,42.81813915986976 17.73309805880184,45.31813915988338 19.563225077711184,47.14826617882872 22.06322507771163,47.818139159933" stroke="#ffa500" stroke-linecap="round" stroke-linejoin="round"/><polyline fill="none" points="15.9272457706446,56.73319016080324 18.427245770658217,56.06331717974813 20.257372789603554,54.23319016083879 20.92724577070783,51.73319016083834 20.257372789652724,49.23319016082472 18.42724577074338,47.40306314187938 15.927245770742935,46.7331901607751 13.427245770729314,47.40306314183021 11.597118751783974,49.233190160739554 10.927245770679697,51.73319016074 11.597118751734802,54.23319016075362 13.427245770644145,56.06331717969896 15.92724577064459,56.73319016080324" stroke="#ffa500" stroke-linecap="round" stroke-linejoin="round"/><polyline fill="none" points="38.18277306841283,-76.20568666330685 40.68277306842645,-76.87555964436196 42.51290008737179,-78.7056866632713 43.18277306847607,-81.20568666327173 42.51290008742097,-83.70568666328536 40.68277306851162,-85.53581368223071 38.182773068511175,-86.20568666333499 35.68277306849755,-85.53581368227988 33.85264604955221,-83.70568666337054 33.182773068447936,-81.2056866633701 33.852646049503036,-78.70568666335647 35.68277306841238,-76.87555964441113 38.18277306841283,-76.20568666330685" stroke="#ffa500" stroke-linecap="round" stroke-linejoin="round"/><polyline fill="none" points="-126.39185471271085,-96.70784139703771 -123.89185471269722,-97.37771437809282 -122.06172769375188,-99.20784139700216 -121.3918547126476,-101.7078413970026 -122.06172769370271,-104.20784139701622 -123.89185471261204,-106.03796841596157 -126.39185471261248,-106.70784139706585 -128.8918547126261,-106.03796841601074 -130.72198173157145,-104.2078413971014 -131.39185471267572,-101.70784139710096 -130.72198173162062,-99.20784139708734 -128.89185471271128,-97.37771437814199 -126.39185471271084,-96.7078413970377" stroke="#ffa500" stroke-linecap="round" stroke-linejoin="round"/><polyline fill="none" points="-140.12269315029388,-9.647384643355556 -137.62269315028027,-10.317257624410656 -135.79256613133492,-12.147384643319997 -135.12269315023065,-14.647384643320443 -135.79256613128575,-17.147384643334068 -137.6226931501951,-18.977511662279415 -140.12269315019554,-19.6473846433837 -142.62269315020916,-18.977511662328602 -144.4528201691545,-17.14738464341926 -145.12269315025878,-14.647384643418816 -144.45282016920368,-12.14738464340519 -142.62269315029434,-10.317257624459842 -140.12269315029388,-9.647384643355554" stroke="#00f" stroke-linecap="round" stroke-linejoin="round"/><polyline fill="none" points="-285.2351837769724,-29.22048843592414 -282.73518377695876,-29.890361416979236 -280.9050567580134,-31.720488435888573 -280.23518377690914,-34.22048843588902 -280.90505675796425,-36.720488435902645 -282.7351837768736,-38.55061545484799 -285.23518377687407,-39.220488435952284 -287.7351837768877,-38.55061545489719 -289.56531079583306,-36.72048843598785 -290.23518377693733,-34.220488435987406 -289.5653107958822,-31.720488435973778 -287.73518377697286,-29.890361417028426 -285.2351837769724,-29.220488435924135" stroke="#00f" stroke-linecap="round" stroke-linejoin="round"/><polyline fill="none" points="193.36067400130094,-98.26939084164498 195.86067400131458,-98.93926382270007 197.69080102025993,-100.76939084160941 198.3606740013642,-103.26939084160985 197.6908010203091,-105.76939084162348 195.86067400139976,-107.59951786056882 193.3606740013993,-108.26939084167311 190.8606740013857,-107.59951786061802 189.03054698244034,-105.76939084170868 188.36067400133604,-103.26939084170824 189.03054698239112,-100.76939084169462 190.86067400130045,-98.93926382274927 193.3606740013009,-98.26939084164498" stroke="#ffa500" stroke-linecap="round" stroke-linejoin="round"/><polyline fill="none" points="73.88942285180507,-190.20829280263655 76.3894228518187,-190.87816578369163 78.21954987076404,-192.70829280260097 78.88942285186833,-195.20829280260142 78.21954987081324,-197.70829280261506 76.3894228519039,-199.5384198215604 73.88942285190346,-200.20829280266472 71.38942285188983,-199.53841982160964 69.55929583294447,-197.7082928027003 68.88942285184018,-195.20829280269984 69.55929583289527,-192.7082928026862 71.38942285180461,-190.87816578374085 73.88942285180505,-190.20829280263655" stroke="#ffa500" stroke-linecap="round" stroke-linejoin="round"/><polyline fill="none" points="-286.41647009210476,-38.783431541605374 -283.9164700920911,-39.45330452266046 -282.08634307314577,-41.2834315415698 -281.4164700920415,-43.783431541570245 -282.0863430730966,-46.28343154158387 -283.9164700920059,-48.11355856052923 -286.41647009200636,-48.783431541633526 -288.91647009202,-48.11355856057844 -290.74659711096535,-46.28343154166911 -291.41647009206963,-43.78343154166866 -290.7465971110145,-41.283431541655034 -288.9164700921052,-39.45330452270967 -286.41647009210476,-38.783431541605374" stroke="#00f" stroke-linecap="round" stroke-linejoin="round"/><polyline fill="none" points="-153.95275450142367,93.62109263957015 -151.45275450141003,92.95121965851506 -149.62262748246468,91.12109263960572 -148.95275450136037,88.62109263960528 -149.62262748241545,86.12109263959165 -151.4527545013248,84.29096562064629 -153.95275450132524,83.62109263954198 -156.4527545013389,84.29096562059706 -158.28288152028423,86.1210926395064 -158.95275450138854,88.62109263950684 -158.28288152033346,91.12109263952047 -156.45275450142412,92.95121965846583 -153.95275450142367,93.62109263957014" stroke="#00f" stroke-linecap="round" stroke-linejoin="round"/><polyline fill="none" points="98.19665917163897,159.53525586780594 100.6966591716526,158.86538288675087 102.52678619059796,157.03525586784153 103.19665917170227,154.53525586784107 102.52678619064719,152.03525586782743 100.69665917173785,150.20512884888205 98.19665917173741,149.53525586777775 95.69665917172378,150.20512884883283 93.86653215277842,152.03525586774217 93.19665917167411,154.53525586774262 93.86653215272919,157.03525586775626 95.69665917163852,158.86538288670164 98.19665917163896,159.53525586780594" stroke="#ffa500" stroke-linecap="round" stroke-linejoin="round"/><polyline fill="none" points="115.20899327488281,69.2614301698246 117.70899327489646,68.59155718876953 119.53912029384182,66.7614301698602 120.20899327494612,64.26143016985976 119.53912029389105,61.76143016984613 117.70899327498172,59.93130315090076 115.20899327498128,59.261430169796455 112.70899327496764,59.931303150851534 110.87886625602228,61.761430169760864 110.20899327491797,64.26143016976131 110.87886625597305,66.76143016977495 112.70899327488237,68.59155718872032 115.20899327488281,69.26143016982462" stroke="#ffa500" stroke-linecap="round" stroke-linejoin="round"/><polyline fill="none" points="147.2583504038402,-148.86340595506715 149.75835040385385,-149.53327893612223 151.58847742279923,-151.36340595503157 152.25835040390353,-153.86340595503202 151.58847742284846,-156.36340595504566 149.75835040393912,-158.19353297399104 147.25835040393866,-158.86340595509535 144.75835040392502,-158.19353297404027 142.92822338497965,-156.36340595513093 142.25835040387534,-153.86340595513047 142.92822338493042,-151.36340595511683 144.75835040383976,-149.53327893617146 147.2583504038402,-148.86340595506715" stroke="#ffa500" stroke-linecap="round" stroke-linejoin="round"/><polyline fill="none" points="-88.03153658830468,-79.36966880266883 -85.53153658829103,-80.0395417837239 -83.70140956934566,-81.86966880263323 -83.03153658824135,-84.36966880263367 -83.70140956929643,-86.86966880264731 -85.53153658820575,-88.69979582159269 -88.0315365882062,-89.36966880269699 -90.53153658821984,-88.69979582164191 -92.36166360716521,-86.86966880273259 -93.03153658826953,-84.36966880273215 -92.36166360721445,-81.86966880271851 -90.53153658830513,-80.03954178377313 -88.03153658830469,-79.36966880266881" stroke="#00f" stroke-linecap="round" stroke-linejoin="round"/><polyline fill="none" points="-5.7360080381051,219.47738786747243 -3.2360080380914606,218.80751488641735 -1.4058810191460884,216.977387867508 -0.7360080380417742,214.47738786750756 -1.4058810190968478,211.97738786749392 -3.2360080380061733,210.14726084854854 -5.73600803800662,209.47738786744424 -8.23600803802026,210.14726084849931 -10.066135056965635,211.97738786740865 -10.73600803806995,214.4773878674091 -10.066135057014879,216.97738786742275 -8.236008038105554,218.80751488636812 -5.736008038105108,219.47738786747243" stroke="#ffa500" stroke-linecap="round" stroke-linejoin="round"/><polyline fill="none" points="66.14706944763158,-52.26117915652523 68.64706944764522,-52.9310521375803 70.4771964665906,-54.761179156489625 71.14706944769492,-57.26117915649007 70.47719646663985,-59.761179156503715 68.64706944773053,-61.59130617544909 66.14706944773009,-62.26117915655341 63.64706944771645,-61.59130617549834 61.81694242877107,-59.761179156589016 61.14706944766675,-57.26117915658857 61.81694242872182,-54.761179156574926 63.64706944763115,-52.93105213762955 66.1470694476316,-52.26117915652523" stroke="#ffa500" stroke-linecap="round" stroke-linejoin="round"/><polyline fill="none" points="-209.19905468028617,-43.31449390350212 -206.69905468027252,-43.98436688455719 -204.86892766132715,-45.81449390346651 -204.19905468022282,-48.31449390346696 -204.8689276612779,-50.8144939034806 -206.6990546801872,-52.64462092242598 -209.19905468018766,-53.3144939035303 -211.6990546802013,-52.64462092247523 -213.52918169914668,-50.814493903565904 -214.199054680251,-48.314493903565456 -213.52918169919593,-45.81449390355181 -211.69905468028662,-43.98436688460644 -209.19905468028617,-43.31449390350212" stroke="#008000" stroke-linecap="round" stroke-linejoin="round"/><polyline fill="none" points="33.036814506799494,11.020322194104082 35.53681450681314,10.350449213049016 37.36694152575851,8.520322194139695 38.03681450686283,6.020322194139249 37.36694152580777,3.520322194125605 35.536814506898445,1.6901951751802256 33.036814506898,1.0203221940759026 30.53681450688435,1.6901951751309685 28.70668748793897,3.52032219404029 28.03681450683465,6.020322194040736 28.706687487889713,8.52032219405438 30.536814506799036,10.350449212999761 33.03681450679948,11.020322194104086" stroke="#ffa500" stroke-linecap="round" stroke-linejoin="round"/><polyline fill="none" points="-234.03292464104808,-76.75301312513484 -231.53292464103444,-77.4228861061899 -229.70279762208907,-79.25301312509923 -229.03292464098473,-81.75301312509967 -229.7027976220398,-84.25301312511331 -231.53292464094912,-86.08314014405869 -234.03292464094957,-86.75301312516301 -236.53292464096322,-86.08314014410794 -238.3630516599086,-84.25301312519862 -239.03292464101293,-81.75301312519818 -238.36305165995788,-79.25301312518454 -236.53292464104857,-77.42288610623915 -234.0329246410481,-76.75301312513481" stroke="#00f" stroke-linecap="round" stroke-linejoin="round"/><polyline fill="none" points="44.588808965073774,-165.4550713684837 47.08880896508742,-166.12494434953874 48.91893598403281,-167.95507136844805 49.58880896513713,-170.4550713684485 48.91893598408207,-172.95507136846214 47.088808965172746,-174.78519838740752 44.5888089651723,-175.45507136851185 42.08880896515865,-174.7851983874568 40.258681946213265,-172.9550713685475 39.58880896510894,-170.45507136854704 40.258681946164,-167.9550713685334 42.088808965073326,-166.12494434958802 44.588808965073774,-165.4550713684837" stroke="#00f" stroke-linecap="round" stroke-linejoin="round"/><polyline fill="none" points="115.83885342083366,-22.4670894580255 118.3388534208473,-23.136962439080563 120.16898043979269,-24.967089457989882 120.83885342089702,-27.46708945799033 120.16898043984196,-29.96708945800398 118.33885342093264,-31.797216476949366 115.83885342093218,-32.4670894580537 113.33885342091853,-31.797216476998642 111.50872640197314,-29.967089458089323 110.8388534208688,-27.467089458088875 111.50872640192387,-24.967089458075225 113.33885342083319,-23.136962439129835 115.83885342083363,-22.4670894580255" stroke="#ffa500" stroke-linecap="round" stroke-linejoin="round"/><polyline fill="none" points="-55.22903981960674,45.978416134633434 -52.72903981959309,45.30854315357838 -50.8989128006477,43.47841613466906 -50.22903981954337,40.97841613466861 -50.898912800598424,38.478416134654964 -52.72903981950774,36.648289115709574 -55.22903981950819,35.97841613460524 -57.72903981952184,36.6482891156603 -59.55916683846723,38.47841613456961 -60.22903981957156,40.97841613457006 -59.559166838516504,43.47841613458371 -57.72903981960719,45.3085431535291 -55.22903981960674,45.978416134633434" stroke="#ffa500" stroke-linecap="round" stroke-linejoin="round"/><polyline fill="none" points="88.66882072960779,-81.98620878949238 91.16882072962144,-82.65608177054743 92.99894774856683,-84.48620878945675 93.66882072967117,-86.98620878945721 92.99894774861612,-89.48620878947087 91.1688207297068,-91.31633580841626 88.66882072970634,-91.98620878952059 86.16882072969268,-91.31633580846554 84.3386937107473,-89.48620878955622 83.66882072964296,-86.98620878955576 84.33869371069801,-84.4862087895421 86.16882072960732,-82.65608177059671 88.66882072960777,-81.98620878949238" stroke="#ffa500" stroke-linecap="round" stroke-linejoin="round"/><polyline fill="none" points="-99.43980409777154,82.27650636783027 -96.93980409775789,81.60663338677521 -95.1096770788125,79.7765063678659 -94.43980409770816,77.27650636786545 -95.10967707876321,74.7765063678518 -96.93980409767252,72.9463793489064 -99.43980409767298,72.27650636780207 -101.93980409768663,72.94637934885712 -103.76993111663202,74.77650636776643 -104.43980409773636,77.27650636776688 -103.7699311166813,79.77650636778054 -101.939804097772,81.60663338672593 -99.43980409777154,82.27650636783028" stroke="#00f" stroke-linecap="round" stroke-linejoin="round"/><polyline fill="none" points="99.56723101100795,-71.7203925541197 102.0672310110216,-72.39026553517475 103.897358029967,-74.22039255408406 104.56723101107134,-76.72039255408451 103.89735803001629,-79.22039255409817 102.06723101110698,-81.05051957304357 99.56723101110653,-81.72039255414792 97.06723101109287,-81.05051957309287 95.23710399214747,-79.22039255418356 94.56723101104312,-76.7203925541831 95.23710399209817,-74.22039255416945 97.06723101100748,-72.39026553522405 99.56723101100792,-71.7203925541197" stroke="#00f" stroke-linecap="round" stroke-linejoin="round"/><polyline fill="none" points="176.07514506969864,-103.91364967843683 178.5751450697123,-104.58352265949188 180.4052720886577,-106.41364967840119 181.07514506976204,-108.91364967840164 180.405272088707,-111.4136496784153 178.57514506979768,-113.2437766973607 176.07514506979723,-113.91364967846505 173.57514506978356,-113.24377669741 171.74501805083815,-111.41364967850069 171.07514506973382,-108.91364967850024 171.74501805078887,-106.41364967848658 173.57514506969818,-104.58352265954117 176.07514506969864,-103.91364967843683" stroke="#00f" stroke-linecap="round" stroke-linejoin="round"/><polyline fill="none" points="95.89373908475214,92.06875753671368 98.3937390847658,91.39888455565863 100.2238661037112,89.56875753674932 100.89373908481555,87.06875753674888 100.2238661037605,84.56875753673522 98.39373908485119,82.73863051778982 95.89373908485074,82.06875753668547 93.39373908483708,82.73863051774052 91.56361206589168,84.56875753664983 90.89373908478733,87.06875753665028 91.56361206584238,89.56875753666394 93.39373908475169,91.39888455560934 95.89373908475214,92.06875753671369" stroke="#ffa500" stroke-linecap="round" stroke-linejoin="round"/><polyline fill="none" points="101.64747840763707,31.55552790425212 104.14747840765072,30.885654923197077 105.97760542659613,29.055527904287768 106.64747840770048,26.55552790428732 105.97760542664543,24.05552790427366 104.14747840773612,22.225400885328256 101.64747840773566,21.555527904223904 99.147478407722,22.225400885278948 97.3173513887766,24.055527904188256 96.64747840767225,26.555527904188704 97.31735138872729,29.055527904202364 99.1474784076366,30.88565492314777 101.64747840763705,31.55552790425212" stroke="#ffa500" stroke-linecap="round" stroke-linejoin="round"/><polyline fill="none" points="-53.88037426709403,-48.180838082803966 -51.38037426708036,-48.85071106385901 -49.55024724813496,-50.68083808276832 -48.880374267030604,-53.180838082768766 -49.55024724808565,-55.68083808278243 -51.380374266994956,-57.510965101727834 -53.8803742669954,-58.18083808283219 -56.38037426700907,-57.510965101777145 -58.21050128595448,-55.68083808286784 -58.88037426705883,-53.18083808286739 -58.2105012860038,-50.680838082853725 -56.38037426709449,-48.850711063908314 -53.88037426709404,-48.18083808280396" stroke="#ffa500" stroke-linecap="round" stroke-linejoin="round"/><polyline fill="none" points="-68.14196830239246,58.692273382990585 -65.6419683023788,58.02240040193555 -63.81184128343339,56.19227338302624 -63.14196830232903,53.69227338302579 -63.81184128338407,51.19227338301213 -65.64196830229338,49.36214636406672 -68.14196830229383,48.69227338296236 -70.64196830230749,49.3621463640174 -72.4720953212529,51.19227338292671 -73.14196830235726,53.692273382927155 -72.47209532130222,56.19227338294082 -70.64196830239291,58.02240040188623 -68.14196830239246,58.692273382990585" stroke="#ffa500" stroke-linecap="round" stroke-linejoin="round"/><polyline fill="none" points="-168.4838316583019,80.32751466722435 -165.98383165828824,79.65764168616931 -164.15370463934283,77.82751466726 -163.48383165823847,75.32751466725955 -164.1537046392935,72.82751466724588 -165.9838316582028,70.99738764830046 -168.48383165820326,70.3275146671961 -170.98383165821693,70.99738764825113 -172.81395867716233,72.82751466716044 -173.4838316582667,75.3275146671609 -172.81395867721167,77.82751466717457 -170.98383165830236,79.65764168611999 -168.4838316583019,80.32751466722435" stroke="#ffa500" stroke-linecap="round" stroke-linejoin="round"/><polyline fill="none" points="-30.483031857085475,-101.84365660145136 -27.983031857071808,-102.5135295825064 -26.152904838126393,-104.3436566014157 -25.48303185702203,-106.84365660141616 -26.152904838077063,-109.34365660142983 -27.98303185698637,-111.17378362037525 -30.483031856986816,-111.84365660147961 -32.98303185700048,-111.17378362042457 -34.8131588759459,-109.34365660151526 -35.483031857050264,-106.84365660151481 -34.813158875995235,-104.34365660150114 -32.98303185708593,-102.51352958255572 -30.483031857085486,-101.84365660145136" stroke="#00f" stroke-linecap="round" stroke-linejoin="round"/><polyline fill="none" points="-265.1116070126802,-5.302687462443762 -262.6116070126666,-5.972560443498794 -260.7814799937212,-7.802687462408096 -260.1116070126168,-10.302687462408546 -260.78147999367184,-12.802687462422213 -262.61160701258115,-14.632814481367632 -265.1116070125816,-15.302687462471997 -267.61160701259524,-14.632814481416967 -269.44173403154065,-12.802687462507665 -270.11160701264504,-10.302687462507215 -269.44173403159,-7.802687462493546 -267.6116070126807,-5.972560443548128 -265.1116070126802,-5.302687462443761" stroke="#ffa500" stroke-linecap="round" stroke-linejoin="round"/><polyline fill="none" points="-182.01076192685548,110.4516595514337 -179.5107619268418,109.78178657037867 -177.68063490789638,107.95165955146936 -177.01076192679201,105.45165955146891 -177.68063490784704,102.95165955145524 -179.51076192675635,101.12153253250982 -182.0107619267568,100.45165955140546 -184.51076192677047,101.12153253246048 -186.3408889457159,102.95165955136977 -187.01076192682027,105.45165955137023 -186.34088894576524,107.9516595513839 -184.51076192685593,109.78178657032932 -182.01076192685548,110.45165955143369" stroke="#ffa500" stroke-linecap="round" stroke-linejoin="round"/><polyline fill="none" points="170.4062282346611,159.87585802671572 172.90622823467478,159.2059850456607 174.73635525362022,157.3758580267514 175.40622823472458,154.87585802675093 174.73635525366956,152.37585802673726 172.90622823476025,150.54573100779183 170.4062282347598,149.87585802668747 167.90622823474612,150.5457310077425 166.0761012158007,152.3758580266518 165.40622823469633,154.87585802665225 166.07610121575135,157.37585802666592 167.90622823466066,159.20598504561136 170.4062282346611,159.87585802671572" stroke="#ffa500" stroke-linecap="round" stroke-linejoin="round"/><polyline fill="none" points="-219.78768949966314,-19.811424506566805 -217.28768949964947,-20.48129748762183 -215.45756248070404,-22.31142450653113 -214.78768949959968,-24.811424506531576 -215.4575624806547,-27.311424506545247 -217.287689499564,-29.141551525490673 -219.78768949956446,-29.811424506595046 -222.28768949957814,-29.141551525540024 -224.11781651852357,-27.311424506630726 -224.78768949962793,-24.811424506630278 -224.1178165185729,-22.311424506616603 -222.2876894996636,-20.481297487671178 -219.78768949966314,-19.8114245065668" stroke="#f00" stroke-linecap="round" stroke-linejoin="round"/><polyline fill="none" points="130.26507262018796,-123.96467335924171 132.76507262020164,-124.63454634029674 134.59519963914707,-126.46467335920603 135.26507262025143,-128.96467335920647 134.5951996391964,-131.46467335922014 132.7650726202871,-133.29480037816558 130.26507262028665,-133.96467335926994 127.76507262027297,-133.29480037821492 125.93494560132754,-131.4646733593056 125.26507262022317,-128.96467335930515 125.93494560127819,-126.46467335929148 127.76507262018748,-124.63454634034605 130.26507262018794,-123.96467335924167" stroke="#ffa500" stroke-linecap="round" stroke-linejoin="round"/><polyline fill="none" points="123.75373472228476,-125.88506570334474 126.25373472229843,-126.55493868439976 128.08386174124385,-128.38506570330907 128.75373472234824,-130.88506570330952 128.08386174129322,-133.3850657033232 126.25373472238392,-135.21519272226863 123.75373472238347,-135.88506570337302 121.2537347223698,-135.215192722318 119.42360770342437,-133.38506570340869 118.75373472231999,-130.88506570340823 119.42360770337501,-128.38506570339456 121.2537347222843,-126.55493868444913 123.75373472228476,-125.88506570334475" stroke="#ffa500" stroke-linecap="round" stroke-linejoin="round"/><polyline fill="none" points="198.07274845704552,-75.07883913581723 200.5727484570592,-75.74871211687226 202.40287547600462,-77.57883913578155 203.07274845710901,-80.078839135782 202.402875476054,-82.57883913579568 200.57274845714468,-84.40896615474111 198.07274845714423,-85.07883913584548 195.57274845713056,-84.40896615479046 193.74262143818513,-82.57883913588117 193.07274845708073,-80.07883913588071 193.74262143813576,-77.57883913586704 195.57274845704507,-75.74871211692161 198.07274845704552,-75.07883913581723" stroke="#ffa500" stroke-linecap="round" stroke-linejoin="round"/><polyline fill="none" points="-194.39974830243733,-3.267167797218127 -191.89974830242366,-3.937040778273143 -190.06962128347823,-5.767167797182438 -189.39974830237384,-8.26716779718289 -190.06962128342886,-10.767167797196567 -191.89974830233817,-12.597294816142002 -194.39974830233862,-13.267167797246387 -196.8997483023523,-12.597294816191372 -198.72987532129773,-10.767167797282077 -199.39974830240212,-8.267167797281626 -198.7298753213471,-5.767167797267947 -196.8997483024378,-3.937040778322511 -194.39974830243736,-3.267167797218125" stroke="#00f" stroke-linecap="round" stroke-linejoin="round"/><polyline fill="none" points="25.48421772180691,-128.84970335279257 27.984217721820592,-129.5195763338476 29.81434474076603,-131.34970335275688 30.484217721870415,-133.84970335275733 29.814344740815404,-136.349703352771 27.984217721906113,-138.17983037171643 25.48421772190566,-138.84970335282082 22.98421772189198,-138.1798303717658 21.15409070294654,-136.34970335285652 20.484217721842153,-133.84970335285607 21.154090702897165,-131.3497033528424 22.984217721806456,-129.51957633389696 25.484217721806907,-128.84970335279257" stroke="#ffa500" stroke-linecap="round" stroke-linejoin="round"/><polyline fill="none" points="43.75902063741149,-48.06563869429479 46.25902063742517,-48.7355116753498 48.089147656370606,-50.56563869425909 48.759020637475,-53.06563869425954 48.08914765641999,-55.56563869427322 46.259020637510694,-57.39576571321866 43.75902063751025,-58.06563869432305 41.25902063749656,-57.39576571326804 39.42889361855112,-55.56563869435875 38.75902063744673,-53.065638694358306 39.42889361850174,-50.56563869434462 41.25902063741103,-48.73551167539918 43.759020637411474,-48.06563869429479" stroke="#ffa500" stroke-linecap="round" stroke-linejoin="round"/><polyline fill="none" points="159.47085368002038,113.29031585561631 161.97085368003405,112.6204428745613 163.8009806989795,110.79031585565201 164.47085368008388,108.29031585565156 163.80098069902886,105.79031585563787 161.97085368011957,103.96018883669242 159.47085368011912,103.29031585558803 156.97085368010545,103.96018883664304 155.14072666116002,105.79031585555234 154.47085368005563,108.29031585555279 155.14072666111062,110.79031585556648 156.9708536800199,112.62044287451192 159.47085368002035,113.29031585561631" stroke="#ffa500" stroke-linecap="round" stroke-linejoin="round"/><polyline fill="none" points="58.26801069747107,188.04304493334732 60.768010697484755,187.37317195229232 62.5981377164302,185.54304493338304 63.2680106975346,183.0430449333826 62.59813771647959,180.54304493336892 60.768010697570304,178.71291791442349 58.268010697569856,178.0430449333191 55.76801069755617,178.7129179143741 53.937883678610724,180.54304493328337 53.26801069750633,183.04304493328382 53.937883678561334,185.5430449332975 55.76801069747062,187.37317195224293 58.26801069747107,188.04304493334732" stroke="#ffa500" stroke-linecap="round" stroke-linejoin="round"/><polyline fill="none" points="-159.10586585093486,-65.13365943309792 -156.6058658509212,-65.80353241415293 -154.77573883197576,-67.6336594330622 -154.10586585087137,-70.13365943306266 -154.77573883192636,-72.63365943307635 -156.60586585083564,-74.4637864520218 -159.1058658508361,-75.1336594331262 -161.6058658508498,-74.46378645207119 -163.43599286979526,-72.63365943316191 -164.10586585089965,-70.13365943316145 -163.43599286984465,-67.63365943314777 -161.60586585093537,-65.80353241420232 -159.10586585093492,-65.13365943309792" stroke="#00f" stroke-linecap="round" stroke-linejoin="round"/><polyline fill="none" points="-218.72839719686525,99.3500677486367 -216.22839719685155,98.6801947675817 -214.39827017790608,96.85006774867242 -213.7283971968017,94.35006774867196 -214.3982701778567,91.85006774865828 -216.22839719676597,90.01994072971283 -218.72839719676642,89.35006774860842 -221.22839719678012,90.01994072966342 -223.05852421572558,91.8500677485727 -223.72839719682997,94.35006774857315 -223.05852421577498,96.85006774858684 -221.2283971968657,98.68019476753229 -218.72839719686525,99.35006774863669" stroke="#00f" stroke-linecap="round" stroke-linejoin="round"/><polyline fill="none" points="153.57238345444517,153.35499148018096 156.07238345445887,152.68511849912596 157.90251047340433,150.85499148021668 158.57238345450872,148.35499148021623 157.90251047345373,145.85499148020253 156.07238345454445,144.02486446125707 153.572383454544,143.35499148015268 151.0723834545303,144.02486446120767 149.24225643558484,145.85499148011695 148.57238345448042,148.3549914801174 149.2422564355354,150.8549914801311 151.0723834544447,152.68511849907657 153.57238345444514,153.35499148018098" stroke="#ffa500" stroke-linecap="round" stroke-linejoin="round"/><polyline fill="none" points="-176.35102333214556,58.5919846429685 -173.85102333213186,57.922111661913505 -172.0208963131864,56.091984643004224 -171.35102333208198,53.59198464300378 -172.02089631313697,51.091984642990084 -173.85102333204625,49.26185762404463 -176.3510233320467,48.591984642940226 -178.8510233320604,49.26185762399522 -180.68115035100587,51.0919846429045 -181.3510233321103,53.59198464290495 -180.6811503510553,56.09198464291864 -178.851023332146,57.92211166186409 -176.35102333214556,58.591984642968505" stroke="#ffa500" stroke-linecap="round" stroke-linejoin="round"/><polyline fill="none" points="-114.9812293456339,-57.18782003637052 -112.48122934562022,-57.85769301742551 -110.65110232667476,-59.68782003633479 -109.98122934557036,-62.18782003633524 -110.65110232662535,-64.68782003634892 -112.48122934553463,-66.51794705529439 -114.98122934553508,-67.18782003639879 -117.48122934554877,-66.5179470553438 -119.31135636449423,-64.68782003643452 -119.98122934559863,-62.18782003643407 -119.31135636454364,-59.687820036420376 -117.48122934563436,-57.857693017474915 -114.9812293456339,-57.1878200363705" stroke="#00f" stroke-linecap="round" stroke-linejoin="round"/><polyline fill="none" points="133.81804029170445,-34.05346739408179 136.31804029171815,-34.723340375136786 138.1481673106636,-36.553467394046066 138.81804029176803,-39.053467394046514 138.14816731071303,-41.553467394060206 136.31804029180375,-43.38359441300567 133.8180402918033,-44.05346739411008 131.3180402917896,-43.38359441305509 129.48791327284414,-41.55346739414581 128.81804029173972,-39.053467394145365 129.4879132727947,-36.55346739413167 131.318040291704,-34.72334037518621 133.81804029170445,-34.05346739408179" stroke="#ffa500" stroke-linecap="round" stroke-linejoin="round"/><polyline fill="none" points="37.79516114082235,33.97191552141416 40.29516114083604,33.302042540359174 42.125288159781505,31.471915521449898 42.795161140885924,28.971915521449446 42.12528815983094,26.47191552143575 40.29516114092166,24.64178850249029 37.79516114092121,23.971915521385874 35.29516114090752,24.64178850244086 33.465034121962056,26.471915521350137 32.79516114085764,28.97191552135059 33.46503412191262,31.471915521364284 35.295161140821904,33.30204254030975 37.79516114082235,33.97191552141417" stroke="#00f" stroke-linecap="round" stroke-linejoin="round"/><polyline fill="none" points="61.865639068766846,125.16321222752676 64.36563906878054,124.49333924647178 66.195766087726,122.6632122275625 66.86563906883042,120.16321222756204 66.19576608777544,117.66321222754834 64.36563906886616,115.83308520860288 61.86563906886571,115.16321222749846 59.36563906885201,115.83308520855344 57.53551204990654,117.66321222746272 56.865639068802125,120.16321222746318 57.53551204985711,122.66321222747688 59.365639068766384,124.49333924642234 61.86563906876683,125.16321222752676" stroke="#ffa500" stroke-linecap="round" stroke-linejoin="round"/><polyline fill="none" points="-203.99097120697138,-110.60956802892258 -201.49097120695768,-111.27944100997756 -199.66084418801222,-113.10956802888684 -198.9909712069078,-115.6095680288873 -199.6608441879628,-118.109568028901 -201.49097120687208,-119.93969504784646 -203.99097120687253,-120.60956802895087 -206.49097120688623,-119.9396950478959 -208.3210982258317,-118.10956802898662 -208.9909712069361,-115.60956802898616 -208.32109822588112,-113.10956802897246 -206.49097120697184,-111.27944101002699 -203.99097120697138,-110.60956802892257" stroke="#ffa500" stroke-linecap="round" stroke-linejoin="round"/><polyline fill="none" points="-70.4390759841772,-79.28480890747876 -67.9390759841635,-79.95468188853374 -66.10894896521802,-81.78480890744302 -65.4390759841136,-84.28480890744348 -66.10894896516858,-86.78480890745718 -67.93907598407786,-88.61493592640265 -70.43907598407831,-89.28480890750707 -72.93907598409201,-88.61493592645209 -74.76920300303749,-86.78480890754281 -75.43907598414191,-84.28480890754236 -74.76920300308693,-81.78480890752866 -72.93907598417766,-79.95468188858318 -70.43907598417721,-79.28480890747875" stroke="#ffa500" stroke-linecap="round" stroke-linejoin="round"/><polyline fill="none" points="-128.03306275087377,-6.468316085841474 -125.53306275086007,-7.1381890668964525 -123.7029357319146,-8.968316085805725 -123.03306275081016,-11.468316085806174 -123.70293573186514,-13.968316085819874 -125.5330627507744,-15.798443104765346 -128.03306275077486,-16.468316085869773 -130.53306275078856,-15.798443104814798 -132.36318976973402,-13.968316085905526 -133.03306275083844,-11.468316085905077 -132.36318976978347,-8.968316085891376 -130.5330627508742,-7.138189066945902 -128.03306275087374,-6.468316085841472" stroke="#ffa500" stroke-linecap="round" stroke-linejoin="round"/><polyline fill="none" points="49.95934122658557,90.38802525166597 52.45934122659927,89.71815227061099 54.28946824554475,87.88802525170172 54.95934122664918,85.38802525170127 54.28946824559421,82.88802525168757 52.459341226684934,81.05789823274209 49.95934122668449,80.38802525163766 47.45934122667079,81.05789823269264 45.62921420772531,82.8880252516019 44.95934122662088,85.38802525160236 45.62921420767585,87.88802525161606 47.459341226585124,89.71815227056153 49.95934122658557,90.38802525166597" stroke="#00f" stroke-linecap="round" stroke-linejoin="round"/><polyline fill="none" points="-37.19957819242694,160.42091520545387 -34.69957819241324,159.7510422243989 -32.869451173467766,157.92091520548962 -32.19957819236333,155.42091520548917 -32.869451173418305,152.92091520547547 -34.69957819232758,151.09078818652998 -37.199578192328026,150.42091520542553 -39.69957819234173,151.0907881864805 -41.52970521128721,152.92091520538978 -42.19957819239164,155.42091520539023 -41.52970521133667,157.92091520540393 -39.6995781924274,159.75104222434942 -37.199578192426955,160.42091520545387" stroke="#ffa500" stroke-linecap="round" stroke-linejoin="round"/><polyline fill="none" points="-114.58828130346546,20.85187900577654 -112.08828130345177,20.182006024721566 -110.25815428450629,18.351879005812297 -109.58828130340186,15.851879005811846 -110.25815428445682,13.351879005798141 -112.08828130336609,11.521751986852662 -114.58828130336654,10.851879005748225 -117.08828130338024,11.521751986803196 -118.91840832232572,13.351879005712464 -119.58828130343015,15.851879005712913 -118.91840832237519,18.35187900572662 -117.08828130346592,20.1820060246721 -114.58828130346546,20.851879005776535" stroke="#00f" stroke-linecap="round" stroke-linejoin="round"/><polyline fill="none" points="-94.84896967681881,75.19212958430275 -92.34896967680511,74.52225660324778 -90.51884265785964,72.69212958433852 -89.8489696767552,70.19212958433806 -90.51884265781017,67.69212958432436 -92.34896967671943,65.86200256537889 -94.84896967671989,65.19212958427445 -97.34896967673359,65.86200256532942 -99.17909669567906,67.69212958423869 -99.8489696767835,70.19212958423914 -99.17909669572853,72.69212958425284 -97.34896967681927,74.52225660319833 -94.84896967681881,75.19212958430276" stroke="#ffa500" stroke-linecap="round" stroke-linejoin="round"/><polyline fill="none" points="51.17577769716083,16.629752256257703 53.67577769717454,15.959879275202736 55.50590471612002,14.12975225629347 56.17577769722446,11.62975225629302 55.505904716169496,9.129752256279314 53.67577769726023,7.29962523733383 51.17577769725978,6.629752256229389 48.675777697246076,7.299625237284355 46.84565067830059,9.12975225619362 46.17577769719615,11.62975225619407 46.84565067825112,14.129752256207777 48.675777697160385,15.959879275153263 51.17577769716083,16.629752256257706" stroke="#ffa500" stroke-linecap="round" stroke-linejoin="round"/><polyline fill="none" points="-181.043845456578,-54.14768743776779 -178.5438454565643,-54.81756041882276 -176.7137184376188,-56.647687437732024 -176.04384545651436,-59.14768743773247 -176.71371843756933,-61.64768743774618 -178.54384545647858,-63.47781445669167 -181.04384545647903,-64.14768743779611 -183.54384545649273,-63.47781445674114 -185.37397247543822,-61.64768743783188 -186.04384545654267,-59.14768743783143 -185.3739724754877,-56.64768743781772 -183.54384545657845,-54.81756041887223 -181.043845456578,-54.147687437767786" stroke="#008000" stroke-linecap="round" stroke-linejoin="round"/><polyline fill="none" points="-157.483131494369,-63.32591454622684 -154.9831314943553,-63.995787527281806 -153.1530044754098,-65.82591454619107 -152.48313149430535,-68.32591454619153 -153.15300447536032,-70.82591454620524 -154.98313149426957,-72.65604156515073 -157.48313149427003,-73.32591454625518 -159.98313149428373,-72.65604156520021 -161.81325851322921,-70.82591454629095 -162.48313149433366,-68.32591454629049 -161.8132585132787,-65.82591454627678 -159.98313149436945,-63.99578752733129 -157.483131494369,-63.32591454622684" stroke="#00f" stroke-linecap="round" stroke-linejoin="round"/><polyline fill="none" points="17.739910092350538,192.92966437857268 20.239910092364248,192.25979139751772 22.070037111309738,190.42966437860846 22.73991009241419,187.929664378608 22.07003711135923,185.4296643785943 20.239910092449968,183.59953735964882 17.739910092449517,182.92966437854437 15.239910092435805,183.59953735959934 13.409783073490313,185.4296643785086 12.739910092385863,187.92966437850905 13.40978307344082,190.42966437852274 15.239910092350081,192.25979139746823 17.73991009235053,192.92966437857268" stroke="#00f" stroke-linecap="round" stroke-linejoin="round"/><polyline fill="none" points="-197.7007813642776,25.402300162616758 -195.2007813642639,24.7324271815618 -193.3706543453184,22.90230016265254 -192.70078136421395,20.40230016265209 -193.37065434526892,17.902300162638376 -195.20078136417817,16.072173143692883 -197.70078136417862,15.40230016258843 -200.20078136419232,16.072173143643386 -202.0309083831378,17.902300162552645 -202.70078136424226,20.402300162553097 -202.0309083831873,22.90230016256681 -200.20078136427804,24.732427181512307 -197.7007813642776,25.40230016261676" stroke="#00f" stroke-linecap="round" stroke-linejoin="round"/><polyline fill="none" points="127.37512574051196,172.85997803523432 129.87512574052568,172.19010505417936 131.70525275947116,170.3599780352701 132.3751257405756,167.85997803526965 131.70525275952065,165.35997803525592 129.8751257406114,163.52985101631043 127.37512574061094,162.85997803520598 124.87512574059723,163.52985101626095 123.04499872165172,165.3599780351702 122.37512574054726,167.85997803517066 123.04499872160221,170.35997803518438 124.87512574051146,172.19010505412987 127.37512574051192,172.85997803523432" stroke="#ffa500" stroke-linecap="round" stroke-linejoin="round"/><polyline fill="none" points="-121.99641561203877,-19.472970746300174 -119.49641561202506,-20.142843727355125 -117.66628859307956,-21.97297074626438 -116.9964156119751,-24.47297074626483 -117.66628859303005,-26.97297074627855 -119.4964156119393,-28.80309776522405 -121.99641561193975,-29.472970746328507 -124.49641561195347,-28.803097765273556 -126.32654263089897,-26.9729707463643 -126.99641561200343,-24.47297074636385 -126.32654263094848,-21.972970746350132 -124.49641561203923,-20.14284372740463 -121.99641561203877,-19.47297074630017" stroke="#ffa500" stroke-linecap="round" stroke-linejoin="round"/><polyline fill="none" points="147.55528201180095,-63.87733374277066 150.05528201181468,-64.54720672382561 151.88540903076017,-66.37733374273486 152.55528201186462,-68.87733374273532 151.88540903080968,-71.37733374274903 150.05528201190043,-73.20746076169453 147.55528201189998,-73.877333742799 145.05528201188625,-73.20746076174404 143.22515499294076,-71.3773337428348 142.55528201183628,-68.87733374283434 143.22515499289122,-66.37733374282062 145.05528201180047,-64.54720672387512 147.55528201180093,-63.87733374277066" stroke="#ffa500" stroke-linecap="round" stroke-linejoin="round"/><polyline fill="none" points="-122.40895002307532,136.5420207891047 -119.9089500230616,135.87214780804976 -118.0788230041161,134.0420207891405 -117.40895002301164,131.54202078914005 -118.07882300406659,129.04202078912633 -119.90895002297584,127.21189377018082 -122.4089500229763,126.54202078907636 -124.90895002299001,127.21189377013131 -126.73907704193552,129.04202078904058 -127.40895002303998,131.54202078904103 -126.73907704198503,134.04202078905476 -124.90895002307577,135.87214780800028 -122.40895002307532,136.54202078910475" stroke="#ffa500" stroke-linecap="round" stroke-linejoin="round"/><polyline fill="none" points="78.86606669383691,-15.61749460664663 81.36606669385063,-16.287367587701574 83.19619371279613,-18.117494606610826 83.86606669390059,-20.617494606611277 83.19619371284566,-23.117494606624998 81.3660666939364,-24.947621625570505 78.86606669393595,-25.617494606674974 76.36606669392224,-24.94762162562003 74.53593967497673,-23.11749460671078 73.86606669387227,-20.617494606710327 74.5359396749272,-18.117494606696606 76.36606669383646,-16.2873675877511 78.86606669383691,-15.61749460664663" stroke="#ffa500" stroke-linecap="round" stroke-linejoin="round"/><polyline fill="none" points="-236.66553235546039,-26.316898606524003 -234.16553235544666,-26.986771587578946 -232.33540533650114,-28.8168986064882 -231.66553235539666,-31.31689860648865 -232.3354053364516,-33.81689860650237 -234.16553235536085,-35.64702562544788 -236.6655323553613,-36.31689860655235 -239.16553235537503,-35.647025625497406 -240.99565937432055,-33.816898606588154 -241.66553235542503,-31.316898606587706 -240.9956593743701,-28.816898606573986 -239.16553235546084,-26.986771587628475 -236.66553235546039,-26.316898606524003" stroke="#008000" stroke-linecap="round" stroke-linejoin="round"/><polyline fill="none" points="-131.84637477175477,75.6401095463054 -129.34637477174104,74.97023656525046 -127.51624775279554,73.14010954634121 -126.84637477169106,70.64010954634075 -127.516247752746,68.14010954632703 -129.34637477165523,66.30998252738152 -131.8463747716557,65.64010954627705 -134.34637477166942,66.30998252733198 -136.17650179061494,68.14010954624123 -136.8463747717194,70.64010954624169 -136.17650179066447,73.14010954625542 -134.34637477175522,74.97023656520093 -131.84637477175477,75.64010954630541" stroke="#00f" stroke-linecap="round" stroke-linejoin="round"/><polyline fill="none" points="-93.15357056201097,-2.431840825535912 -90.65357056199724,-3.1017138065908494 -88.82344354305172,-4.931840825500099 -88.15357056194725,-7.431840825500548 -88.82344354300218,-9.931840825514271 -90.65357056191144,-11.761967844459784 -93.15357056191189,-12.43184082556426 -95.65357056192562,-11.761967844509323 -97.48369758087114,-9.931840825600075 -98.15357056197561,-7.431840825599625 -97.48369758092068,-4.931840825585901 -95.65357056201142,-3.1017138066403867 -93.15357056201097,-2.4318408255359096" stroke="#ffa500" stroke-linecap="round" stroke-linejoin="round"/><polyline fill="none" points="120.20237526947041,147.95320834897103 122.70237526948414,147.2833353679161 124.53250228842965,145.45320834900684 125.20237526953413,142.9532083490064 124.5325022884792,140.45320834899266 122.70237526956994,138.62308133004714 120.20237526956949,137.95320834894267 117.70237526955576,138.6230813299976 115.87224825061024,140.45320834890686 115.20237526950577,142.9532083489073 115.8722482505607,145.45320834892104 117.70237526946995,147.28333536786656 120.20237526947041,147.95320834897103" stroke="#00f" stroke-linecap="round" stroke-linejoin="round"/><polyline fill="none" points="-300.7573150583596,-45.82273551379728 -298.2573150583459,-46.492608494852206 -296.4271880394004,-48.32273551376145 -295.7573150582959,-50.8227355137619 -296.4271880393508,-53.322735513775626 -298.2573150582601,-55.152862532721144 -300.75731505826053,-55.82273551382563 -303.25731505827423,-55.1528625327707 -305.08744207721975,-53.32273551386145 -305.75731505832425,-50.822735513861005 -305.0874420772693,-48.32273551384728 -303.25731505836006,-46.49260849490176 -300.7573150583596,-45.82273551379728" stroke="#ffa500" stroke-linecap="round" stroke-linejoin="round"/><polyline fill="none" points="-137.2257650006113,109.6863425166899 -134.72576500059756,109.01646953563497 -132.89563798165204,107.18634251672572 -132.22576500054757,104.68634251672526 -132.8956379816025,102.18634251671153 -134.72576500051176,100.35621549776602 -137.2257650005122,99.68634251666153 -139.72576500052594,100.35621549771645 -141.55589201947146,102.18634251662569 -142.22576500057593,104.68634251662614 -141.555892019521,107.18634251663987 -139.72576500061174,109.01646953558539 -137.2257650006113,109.68634251668988" stroke="#ffa500" stroke-linecap="round" stroke-linejoin="round"/><polyline fill="none" points="-259.5092004851688,108.99145845079134 -257.009200485155,108.32158546973642 -255.1790734662095,106.49145845082718 -254.50920048510503,103.99145845082673 -255.17907346615996,101.491458450813 -257.0092004850692,99.66133143186748 -259.50920048506964,98.99145845076299 -262.0092004850834,99.66133143181791 -263.8393275040289,101.49145845072715 -264.5092004851334,103.9914584507276 -263.8393275040785,106.49145845074133 -262.00920048516923,108.32158546968685 -259.5092004851688,108.99145845079134" stroke="#ffa500" stroke-linecap="round" stroke-linejoin="round"/><polyline fill="none" points="-176.01059283266915,-44.3813290904805 -173.51059283265542,-45.05120207153542 -171.6804658137099,-46.881329090444666 -171.01059283260543,-49.381329090445114 -171.68046581366036,-51.88132909045884 -173.5105928325696,-53.71145610940437 -176.01059283257007,-54.381329090508856 -178.5105928325838,-53.711456109453934 -180.34071985152931,-51.881329090544696 -181.01059283263382,-49.38132909054425 -180.34071985157888,-46.881329090530514 -178.51059283266963,-45.05120207158499 -176.01059283266918,-44.3813290904805" stroke="#008000" stroke-linecap="round" stroke-linejoin="round"/><polyline fill="none" points="-261.5104968004386,-60.4320572458238 -259.01049680042485,-61.10193022687872 -257.1803697814793,-62.93205724578796 -256.5104968003748,-65.43205724578841 -257.18036978142976,-67.93205724580214 -259.010496800339,-69.76218426474767 -261.51049680033947,-70.43205724585216 -264.0104968003532,-69.76218426479724 -265.84062381929874,-67.932057245888 -266.51049680040325,-65.43205724588755 -265.8406238193483,-62.932057245873814 -264.01049680043906,-61.10193022692828 -261.5104968004386,-60.432057245823785" stroke="#ffa500" stroke-linecap="round" stroke-linejoin="round"/><polyline fill="none" points="-166.4229216367861,-39.71155910976932 -163.92292163677237,-40.38143209082424 -162.09279461782685,-42.21155910973348 -161.42292163672235,-44.711559109733926 -162.09279461777726,-47.21155910974766 -163.9229216366865,-49.04168612869319 -166.42292163668697,-49.71155910979769 -168.9229216367007,-49.041686128742775 -170.7530486556462,-47.21155910983354 -171.42292163675071,-44.71155910983309 -170.7530486556958,-42.211559109819355 -168.92292163678655,-40.38143209087382 -166.4229216367861,-39.711559109769325" stroke="#00f" stroke-linecap="round" stroke-linejoin="round"/><polyline fill="none" points="77.68593074573282,-98.14000297150594 80.18593074574656,-98.80987595256086 82.01605776469209,-100.6400029714701 82.6859307457966,-103.14000297147055 82.01605776474167,-105.6400029714843 80.18593074583244,-107.47012999042983 77.68593074583198,-108.14000297153433 75.18593074581824,-107.4701299904794 73.35580372687271,-105.64000297157017 72.6859307457682,-103.14000297156971 73.35580372682313,-100.64000297155597 75.18593074573236,-98.80987595261044 77.68593074573282,-98.14000297150594" stroke="#00f" stroke-linecap="round" stroke-linejoin="round"/><polyline fill="none" points="-224.45089384769716,9.059350661390937 -221.95089384768343,8.389477680336022 -220.12076682873789,6.559350661426785 -219.45089384763338,4.059350661426334 -220.1207668286883,1.5593506614125983 -221.9508938475975,-0.27077635753293694 -224.45089384759797,-0.9406493386374372 -226.9508938476117,-0.2707763575825226 -228.78102086655724,1.5593506613267136 -229.45089384766175,4.059350661327164 -228.78102086660684,6.5593506613409005 -226.9508938476976,8.389477680286436 -224.45089384769716,9.059350661390939" stroke="#00f" stroke-linecap="round" stroke-linejoin="round"/><polyline fill="none" points="51.75471539397624,94.66383620697088 54.254715393989976,93.99396322591598 56.084842412935515,92.16383620700674 56.75471539404002,89.66383620700628 56.084842412985104,87.16383620699254 54.254715394075866,85.33370918804701 51.75471539407542,84.6638362069425 49.25471539406168,85.33370918799741 47.42458837511614,87.16383620690665 46.75471539401163,89.6638362069071 47.42458837506654,92.16383620692085 49.25471539397578,93.99396322586638 51.75471539397623,94.66383620697088" stroke="#ffa500" stroke-linecap="round" stroke-linejoin="round"/><polyline fill="none" points="-179.4095930935335,50.91045405555202 -176.90959309351976,50.240581074497115 -175.0794660745742,48.41045405558788 -174.4095930934697,45.91045405558742 -175.07946607452462,43.41045405557368 -176.90959309343384,41.58032703662814 -179.4095930934343,40.91045405552364 -181.90959309344802,41.580327036578545 -183.73972011239357,43.410454055487776 -184.40959309349807,45.91045405548822 -183.73972011244317,48.410454055501965 -181.90959309353394,50.240581074447505 -179.4095930935335,50.91045405555201" stroke="#008000" stroke-linecap="round" stroke-linejoin="round"/><polyline fill="none" points="75.36810240390726,53.95002116109909 77.868102403921,53.28014818004418 79.69822942286655,51.45002116113495 80.36810240397105,48.9500211611345 79.69822942291614,46.45002116112076 77.8681024040069,44.61989414217521 75.36810240400645,43.9500211610707 72.86810240399271,44.61989414212561 71.03797538504716,46.45002116103484 70.36810240394266,48.950021161035295 71.03797538499757,51.45002116104904 72.8681024039068,53.28014817999458 75.36810240390726,53.950021161099095" stroke="#ffa500" stroke-linecap="round" stroke-linejoin="round"/><polyline fill="none" points="39.284848752086894,-182.74623391969286 41.784848752100636,-183.41610690074776 43.61497577104618,-185.246233919657 44.284848752150694,-187.74623391965744 43.614975771095786,-190.2462339196712 41.784848752186555,-192.07636093861674 39.28484875218611,-192.74623391972125 36.784848752172365,-192.07636093866634 34.95472173322682,-190.24623391975712 34.28484875212231,-187.74623391975666 34.95472173317721,-185.2462339197429 36.78484875208644,-183.41610690079736 39.284848752086894,-182.74623391969286" stroke="#ffa500" stroke-linecap="round" stroke-linejoin="round"/><polyline fill="none" points="-10.998713637713118,202.51028201548584 -8.498713637699375,201.84040903443093 -6.668586618753826,200.0102820155217 -5.998713637649312,197.51028201552126 -6.668586618704216,195.0102820155075 -8.498713637613447,193.18015499656195 -10.9987136376139,192.51028201545745 -13.498713637627645,193.18015499651236 -15.328840656573195,195.01028201542158 -15.99871363767771,197.51028201542204 -15.328840656622807,200.0102820154358 -13.498713637713577,201.84040903438134 -10.998713637713124,202.51028201548584" stroke="#ffa500" stroke-linecap="round" stroke-linejoin="round"/><polyline fill="none" points="185.35680254552818,-132.4055212706418 187.85680254554194,-133.0753942516967 189.68692956448749,-134.90552127060593 190.356802545592,-137.40552127060639 189.68692956453708,-139.90552127062014 187.85680254562786,-141.7356482895657 185.3568025456274,-142.4055212706702 182.85680254561365,-141.73564828961528 181.0266755266681,-139.90552127070606 180.3568025455636,-137.4055212707056 181.0266755266185,-134.90552127069185 182.85680254552773,-133.0753942517463 185.35680254552818,-132.40552127064177" stroke="#ffa500" stroke-linecap="round" stroke-linejoin="round"/><polyline fill="none" points="65.72098928142907,-103.01420262227266 68.22098928144281,-103.68407560332756 70.05111630038836,-105.51420262223678 70.72098928149288,-108.01420262223724 70.05111630043798,-110.51420262225098 68.22098928152876,-112.34432964119654 65.7209892815283,-113.01420262230106 63.220989281514555,-112.34432964124616 61.390862262569,-110.51420262233694 60.72098928146448,-108.01420262233648 61.390862262519384,-105.51420262232273 63.220989281428615,-103.68407560337717 65.72098928142907,-103.01420262227265" stroke="#ffa500" stroke-linecap="round" stroke-linejoin="round"/><polyline fill="none" points="58.64262868736776,-69.92161894206022 61.14262868738151,-70.59149192311511 62.972755706327064,-72.42161894202434 63.64262868743159,-74.92161894202479 62.972755706376695,-77.42161894203855 61.142628687467464,-79.25174596098411 58.64262868746701,-79.92161894208863 56.14262868745326,-79.25174596103373 54.31250166850771,-77.42161894212451 53.64262868740318,-74.92161894212406 54.312501668458076,-72.4216189421103 56.1426286873673,-70.59149192316474 58.642628687367754,-69.92161894206022" stroke="#00f" stroke-linecap="round" stroke-linejoin="round"/><polyline fill="none" points="161.97905314904742,-106.24944604449108 164.47905314906117,-106.91931902554597 166.30918016800672,-108.7494460444552 166.97905314911125,-111.24944604445565 166.30918016805634,-113.74944604446941 164.47905314914712,-115.57957306341497 161.97905314914667,-116.2494460445195 159.4790531491329,-115.57957306346461 157.64892613018736,-113.74944604455538 156.97905314908283,-111.24944604455493 157.6489261301377,-108.74944604454117 159.47905314904693,-106.91931902559561 161.9790531490474,-106.24944604449108" stroke="#00f" stroke-linecap="round" stroke-linejoin="round"/><polyline fill="none" points="-285.21550105224054,-38.5094173967029 -282.7155010522268,-39.179290377757795 -280.8853740332812,-41.00941739666702 -280.2155010521767,-43.50941739666747 -280.8853740332316,-46.00941739668123 -282.71550105214084,-47.83954441562679 -285.2155010521413,-48.509417396731315 -287.71550105215505,-47.83954441567642 -289.5456280711006,-46.0094173967672 -290.2155010522051,-43.50941739676674 -289.54562807115025,-41.00941739675299 -287.715501052241,-39.179290377807426 -285.21550105224054,-38.509417396702894" stroke="#00f" stroke-linecap="round" stroke-linejoin="round"/><polyline fill="none" points="124.47576143447331,-95.06604817635404 126.97576143448707,-95.73592115740894 128.80588845343263,-97.56604817631816 129.47576143453716,-100.06604817631862 128.80588845348228,-102.56604817633237 126.97576143457306,-104.39617519527793 124.4757614345726,-105.06604817638247 121.97576143455885,-104.39617519532757 120.14563441561329,-102.56604817641835 119.47576143450875,-100.0660481764179 120.14563441556365,-97.56604817640414 121.97576143447287,-95.73592115745858 124.47576143447333,-95.06604817635404" stroke="#00f" stroke-linecap="round" stroke-linejoin="round"/><polyline fill="none" points="-195.52856208213123,-88.3218541979216 -193.02856208211747,-88.99172717897649 -191.1984350631719,-90.82185419788571 -190.52856208206737,-93.32185419788617 -191.19843506312225,-95.82185419789992 -193.02856208203147,-97.65198121684548 -195.52856208203193,-98.32185419795002 -198.02856208204568,-97.65198121689514 -199.85868910099126,-95.82185419798591 -200.5285620820958,-93.32185419798546 -199.8586891010409,-90.8218541979717 -198.02856208213169,-88.99172717902613 -195.52856208213123,-88.3218541979216" stroke="#ffa500" stroke-linecap="round" stroke-linejoin="round"/><polyline fill="none" points="-238.85859498884872,115.67625960036384 -236.35859498883497,115.00638661930896 -234.5284679698894,113.17625960039973 -233.85859498878486,110.67625960039928 -234.52846796983974,108.17625960038552 -236.35859498874896,106.34613258143995 -238.85859498874942,105.67625960033541 -241.35859498876317,106.3461325813903 -243.18872200770875,108.17625960029952 -243.85859498881328,110.67625960029997 -243.1887220077584,113.17625960031373 -241.35859498884918,115.0063866192593 -238.85859498884872,115.67625960036384" stroke="#ffa500" stroke-linecap="round" stroke-linejoin="round"/><polyline fill="none" points="-134.3389648483009,53.32669042694252 -131.83896484828713,52.65681744588764 -130.00883782934156,50.826690426978416 -129.33896484823703,48.32669042697796 -130.0088378292919,45.8266904269642 -131.83896484820113,43.99656340801862 -134.33896484820158,43.326690426914084 -136.83896484821534,43.996563407968964 -138.66909186716092,45.82669042687818 -139.33896484826545,48.326690426878635 -138.66909186721057,50.8266904268924 -136.83896484830134,52.65681744583797 -134.3389648483009,53.32669042694251" stroke="#00f" stroke-linecap="round" stroke-linejoin="round"/><polyline fill="none" points="-217.13090676547824,6.675312822315593 -214.6309067654645,6.0054398412607135 -212.8007797465189,4.175312822351494 -212.13090676541438,1.67531282235104 -212.80077974646926,-0.8246871776627214 -214.63090676537848,-2.6548141966082963 -217.13090676537894,-3.32468717771284 -219.6309067653927,-2.654814196657961 -221.46103378433827,-0.824687177748743 -222.1309067654428,1.6753128222517113 -221.46103378438792,4.175312822265473 -219.6309067654787,6.00543984121105 -217.13090676547824,6.675312822315595" stroke="#008000" stroke-linecap="round" stroke-linejoin="round"/><polyline fill="none" points="100.26188127553532,-34.168312262008875 102.76188127554907,-34.838185243063755 104.59200829449465,-36.66831226197297 105.2618812755992,-39.168312261973426 104.59200829454431,-41.66831226198719 102.76188127563509,-43.498439280932764 100.26188127563464,-44.16831226203731 97.76188127562087,-43.49843928098244 95.93175425667529,-41.66831226207322 95.26188127557074,-39.16831226207277 95.93175425662562,-36.668312262059004 97.76188127553483,-34.83818524311342 100.26188127553529,-34.168312262008875" stroke="#ffa500" stroke-linecap="round" stroke-linejoin="round"/><polyline fill="none" points="61.159308430592716,-155.53093113495328 63.65930843060648,-156.20080411600816 65.48943544955206,-158.03093113491738 66.15930843065661,-160.53093113491784 65.48943544960173,-163.0309311349316 63.65930843069251,-164.86105815387717 61.15930843069206,-165.53093113498173 58.659308430678294,-164.86105815392685 56.82918141173271,-163.03093113501762 56.15930843062816,-160.53093113501717 56.82918141168303,-158.0309311350034 58.65930843059225,-156.20080411605784 61.1593084305927,-155.53093113495328" stroke="#ffa500" stroke-linecap="round" stroke-linejoin="round"/><polyline fill="none" points="-207.74214282040788,-46.12729278391323 -205.24214282039412,-46.7971657649681 -203.41201580144855,-48.627292783877316 -202.742142820344,-51.12729278387777 -203.41201580139887,-53.627292783891534 -205.2421428203081,-55.457419802837116 -207.74214282030854,-56.12729278394167 -210.2421428203223,-55.4574198028868 -212.07226983926788,-53.62729278397758 -212.74214282037244,-51.127292783977126 -212.07226983931756,-48.62729278396336 -210.24214282040833,-46.79716576501778 -207.74214282040788,-46.12729278391323" stroke="#00f" stroke-linecap="round" stroke-linejoin="round"/><polyline fill="none" points="100.61818248768726,-102.79620376120968 103.11818248770103,-103.46607674226455 104.94830950664662,-105.29620376117376 105.61818248775118,-107.79620376117421 104.94830950669632,-110.29620376118798 103.11818248778711,-112.12633078013357 100.61818248778665,-112.79620376123813 98.11818248777288,-112.12633078018327 96.2880554688273,-110.29620376127406 95.61818248772273,-107.7962037612736 96.2880554687776,-105.29620376125983 98.11818248768681,-103.46607674231424 100.61818248768726,-102.79620376120968" stroke="#00f" stroke-linecap="round" stroke-linejoin="round"/><polyline fill="none" points="83.32074975871004,-66.82833039153351 85.8207497587238,-67.49820337258838 87.6508767776694,-69.32833039149759 88.32074975877396,-71.82833039149804 87.65087677771909,-74.32833039151181 85.82074975880988,-76.1584574104574 83.32074975880943,-76.82833039156196 80.82074975879566,-76.1584574105071 78.99062273985007,-74.32833039159789 78.3207497587455,-71.82833039159743 78.99062273980037,-69.32833039158366 80.82074975870958,-67.49820337263807 83.32074975871004,-66.82833039153351" stroke="#ffa500" stroke-linecap="round" stroke-linejoin="round"/><polyline fill="none" points="-220.56753339379594,111.10867631358225 -218.06753339378218,110.43880333252739 -216.23740637483658,108.60867631361818 -215.56753339373202,106.10867631361772 -216.23740637478687,103.60867631360395 -218.0675333936961,101.77854929465836 -220.56753339369655,101.1086763135538 -223.06753339371033,101.77854929460867 -224.89766041265594,103.60867631351788 -225.5675333937605,106.10867631351833 -224.89766041270565,108.6086763135321 -223.06753339379642,110.43880333247769 -220.56753339379597,111.10867631358225" stroke="#ffa500" stroke-linecap="round" stroke-linejoin="round"/><polyline fill="none" points="-210.43368756212442,-12.153371975652629 -207.93368756211063,-12.82324495670749 -206.10356054316503,-14.6533719756167 -205.43368756206047,-17.153371975617155 -206.10356054311532,-19.65337197563093 -207.93368756202452,-21.48349899457652 -210.43368756202497,-22.153371975681086 -212.93368756203876,-21.483498994626224 -214.76381458098436,-19.653371975717015 -215.43368756208892,-17.15337197571656 -214.76381458103407,-14.653371975702786 -212.93368756212487,-12.823244956757192 -210.43368756212442,-12.153371975652625" stroke="#008000" stroke-linecap="round" stroke-linejoin="round"/><polyline fill="none" points="-102.89835962269213,29.119653576847597 -100.39835962267836,28.449780595792735 -98.56823260373277,26.619653576883525 -97.8983596226282,24.11965357688307 -98.56823260368307,21.619653576869297 -100.39835962259228,19.7895265579237 -102.89835962259274,19.119653576819132 -105.3983596226065,19.78952655787399 -107.22848664155211,21.619653576783197 -107.89835962265667,24.11965357678365 -107.2284866416018,26.619653576797425 -105.3983596226926,28.44978059574302 -102.89835962269214,29.11965357684759" stroke="#ffa500" stroke-linecap="round" stroke-linejoin="round"/><polyline fill="none" points="-133.82595212893466,-49.27978290461106 -131.32595212892087,-49.94965588566592 -129.49582510997527,-51.77978290457513 -128.8259521288707,-54.27978290457558 -129.49582510992556,-56.77978290458936 -131.32595212883476,-58.60990992353496 -133.8259521288352,-59.279782904639525 -136.325952128849,-58.60990992358467 -138.1560791477946,-56.77978290467546 -138.82595212889916,-54.279782904675 -138.1560791478443,-51.779782904661225 -136.3259521289351,-49.94965588571562 -133.82595212893466,-49.27978290461105" stroke="#ffa500" stroke-linecap="round" stroke-linejoin="round"/><polyline fill="none" points="-179.45519843690113,-54.08771743229449 -176.95519843688734,-54.75759041334935 -175.12507141794174,-56.58771743225856 -174.45519843683718,-59.08771743225901 -175.12507141789203,-61.58771743227279 -176.95519843680123,-63.41784445121839 -179.45519843680168,-64.08771743232296 -181.95519843681546,-63.41784445126811 -183.78532545576107,-61.58771743235891 -184.45519843686563,-59.08771743235845 -183.78532545581078,-56.587717432344675 -181.95519843690158,-54.75759041339907 -179.45519843690113,-54.0877174322945" stroke="#00f" stroke-linecap="round" stroke-linejoin="round"/><polyline fill="none" points="-0.9526124348516779,166.54398367697524 1.5473875651621016,165.8741106959204 3.3775145841077054,164.0439836770112 4.047387565212281,161.54398367701074 3.377514584157428,159.04398367699696 1.547387565248223,157.21385665805136 -0.9526124347522344,156.54398367694677 -3.452612434766015,157.21385665800162 -5.282739453711621,159.0439836769108 -5.9526124348161975,161.54398367691127 -5.282739453761346,164.04398367692505 -3.4526124348521425,165.87411069587066 -0.9526124348516856,166.54398367697524" stroke="#ffa500" stroke-linecap="round" stroke-linejoin="round"/><polyline fill="none" points="-185.49308398497823,44.68033234875073 -182.99308398496444,44.01045936769588 -181.16295696601884,42.18033234878668 -180.49308398491425,39.68033234878622 -181.1629569659691,37.18033234877244 -182.9930839848783,35.35020532982683 -185.49308398487875,34.680332348722246 -187.99308398489254,35.3502053297771 -189.82321100383814,37.1803323486863 -190.49308398494273,39.680332348686754 -189.82321100388788,42.18033234870054 -187.99308398497868,44.01045936764615 -185.49308398497823,44.68033234875073" stroke="#ffa500" stroke-linecap="round" stroke-linejoin="round"/></svg>