<?xml version="1.0" ?><!DOCTYPE svg  PUBLIC '-//W3C//DTD SVG 1.1//EN'  'http://www.w3.org/Graphics/SVG/1.1/DTD/svg11.dtd'><svg height="438.000" viewBox="-319.000 -209.000 533.000 438.000" width="533.000" xmlns="http://www.w3.org/2000/svg"><line fill="none" stroke="none" stroke-linecap="round" stroke-width="2.0" x1="0.0" x2="0.0" y1="0.0" y2="0.0"/><polygon fill="none" fill-rule="evenodd" points="0.0,0.0 0.0,0.0 0.0,0.0" stroke-linejoin="round"/><polyline fill="none" points="28.18421778124515,54.85230733265359 30.684217781259235,54.18243435159925 32.51434480020536,52.35230733269034 33.18421778131053,49.852307332689875 32.51434480025619,47.35230733267579 30.684217781347275,45.52218031372967 28.18421778134681,44.8523073326245 25.684217781332723,45.52218031367884 23.854090762386598,47.35230733258775 23.184217781281426,49.85230733258821 23.854090762335765,52.352307332602294 25.684217781244676,54.18243435154842 28.18421778124514,54.852307332653595" stroke="#ffa500" stroke-linecap="round" stroke-linejoin="round"/><polyline fill="none" points="21.147146866767333,54.519902457237336 23.64714686678142,53.850029476182996 25.477273885727545,52.019902457274085 26.14714686683272,49.51990245727362 25.477273885778384,47.01990245725953 23.647146866869473,45.189775438313404 21.147146866869008,44.51990245720823 18.64714686685492,45.18977543826257 16.817019847908792,47.01990245717148 16.147146866803617,49.519902457171945 16.817019847857953,52.019902457186035 18.647146866766864,53.850029476132164 21.14714686676733,54.51990245723734" stroke="#ffa500" stroke-linecap="round" stroke-linejoin="round"/><polyline fill="none" points="49.3170292741877,-76.93211643268091 51.81702927420179,-77.60198941373525 53.64715629314792,-79.43211643264416 54.3170292742531,-81.93211643264463 53.64715629319877,-84.43211643265872 51.81702927428986,-86.26224345160485 49.317029274289396,-86.93211643271002 46.817029274275306,-86.26224345165568 44.98690225532918,-84.43211643274677 44.317029274224,-81.9321164327463 44.98690225527833,-79.43211643273222 46.81702927418724,-77.60198941378609 49.3170292741877,-76.9321164326809" stroke="#ffa500" stroke-linecap="round" stroke-linejoin="round"/><polyline fill="none" points="-133.60733520894658,-93.60508531077157 -131.10733520893248,-94.27495829182591 -129.27720818998634,-96.10508531073482 -128.60733520888115,-98.60508531073529 -129.2772081899355,-101.10508531074939 -131.1073352088444,-102.93521232969552 -133.60733520884486,-103.6050853108007 -136.10733520885896,-102.93521232974638 -137.9374622278051,-101.10508531083747 -138.60733520891029,-98.605085310837 -137.93746222785595,-96.10508531082291 -136.10733520894703,-94.27495829187679 -133.60733520894658,-93.6050853107716" stroke="#ffa500" stroke-linecap="round" stroke-linejoin="round"/><polyline fill="none" points="-145.00972020648683,-11.175506998046167 -142.50972020647274,-11.845379979100498 -140.6795931875266,-13.675506998009405 -140.0097202064214,-16.17550699800987 -140.67959318747575,-18.67550699802396 -142.50972020638466,-20.505634016970095 -145.0097202063851,-21.175506998075278 -147.5097202063992,-20.50563401702095 -149.33984722534535,-18.67550699811204 -150.00972020645054,-16.175506998111576 -149.3398472253962,-13.675506998097484 -147.5097202064873,-11.845379979151348 -145.00972020648683,-11.175506998046162" stroke="#00f" stroke-linecap="round" stroke-linejoin="round"/><polyline fill="none" points="-287.97858839883656,-35.35139416429402 -285.47858839882247,-36.02126714534835 -283.6484613798763,-37.85139416425725 -282.97858839877114,-40.35139416425771 -283.64846137982545,-42.8513941642718 -285.47858839873436,-44.68152118321794 -287.9785883987348,-45.351394164323125 -290.4785883987489,-44.6815211832688 -292.30871541769505,-42.851394164359895 -292.97858839880024,-40.351394164359434 -292.30871541774593,-37.85139416434534 -290.478588398837,-36.02126714539921 -287.97858839883656,-35.35139416429402" stroke="#00f" stroke-linecap="round" stroke-linejoin="round"/><polyline fill="none" points="184.8172594968315,-101.56019274301529 187.3172594968456,-102.23006572406962 189.14738651579174,-104.06019274297853 189.81725949689692,-106.560192742979 189.14738651584258,-109.0601927429931 187.31725949693367,-110.89031976193924 184.81725949693322,-111.56019274304442 182.31725949691912,-110.8903197619901 180.48713247797298,-109.06019274308119 179.8172594968678,-106.56019274308072 180.4871324779221,-104.06019274306662 182.317259496831,-102.23006572412048 184.81725949683147,-101.56019274301529" stroke="#ffa500" stroke-linecap="round" stroke-linejoin="round"/><polyline fill="none" points="72.30365257101589,-188.133601773261 74.80365257102999,-188.80347475431532 76.63377958997613,-190.63360177322423 77.30365257108132,-193.13360177322468 76.63377959002699,-195.63360177323878 74.80365257111809,-197.46372879218492 72.30365257111762,-198.1336017732901 69.80365257110353,-197.4637287922358 67.97352555215738,-195.6336017733269 67.3036525710522,-193.13360177332643 67.97352555210652,-190.63360177331234 69.80365257101542,-188.8034747543662 72.30365257101589,-188.133601773261" stroke="#ffa500" stroke-linecap="round" stroke-linejoin="round"/><polyline fill="none" points="-289.7112563025012,-37.94131076032469 -287.21125630248713,-38.61118374137901 -285.381129283541,-40.44131076028791 -284.7112563024358,-42.941310760288374 -285.3811292834901,-45.44131076030247 -287.211256302399,-47.271437779248615 -289.7112563023995,-47.94131076035381 -292.2112563024136,-47.27143777929949 -294.0413833213597,-45.441310760390586 -294.7112563024649,-42.941310760390124 -294.0413833214106,-40.44131076037603 -292.2112563025017,-38.61118374142988 -289.7112563025012,-37.94131076032469" stroke="#00f" stroke-linecap="round" stroke-linejoin="round"/><polyline fill="none" points="-164.10600360302902,85.81882675118833 -161.60600360301493,85.148953770134 -159.77587658406878,83.3188267512251 -159.1060036029636,80.81882675122463 -159.7758765840179,78.31882675121054 -161.60600360292682,76.4886997322644 -164.10600360292727,75.8188267511592 -166.60600360294137,76.4886997322135 -168.43613062188751,78.3188267511224 -169.1060036029927,80.81882675112287 -168.4361306219384,83.31882675113697 -166.60600360302948,85.14895377008311 -164.10600360302902,85.81882675118831" stroke="#00f" stroke-linecap="round" stroke-linejoin="round"/><polyline fill="none" points="103.55927821044997,159.2507918275463 106.05927821046407,158.58091884649198 107.88940522941022,156.75079182758307 108.55927821051542,154.25079182758262 107.8894052294611,151.75079182756852 106.05927821055221,149.92066480862238 103.55927821055174,149.2507918275172 101.05927821053764,149.9206648085715 99.2291511915915,151.7507918274804 98.5592782104863,154.25079182748087 99.22915119154061,156.75079182749496 101.0592782104495,158.5809188464411 103.55927821044997,159.25079182754632" stroke="#ffa500" stroke-linecap="round" stroke-linejoin="round"/><polyline fill="none" points="108.53811750466303,73.35075432491567 111.03811750467713,72.68088134386136 112.86824452362329,70.85075432495246 113.53811750472849,68.35075432495199 112.86824452367418,65.8507543249379 111.03811750476528,64.02062730599174 108.53811750476481,63.35075432488654 106.03811750475072,64.02062730594085 104.20799048580456,65.85075432484975 103.53811750469936,68.35075432485021 104.20799048575367,70.85075432486431 106.03811750466257,72.68088134381047 108.53811750466303,73.35075432491567" stroke="#ffa500" stroke-linecap="round" stroke-linejoin="round"/><polyline fill="none" points="143.09933625514282,-143.85233720214433 145.5993362551569,-144.52221018319864 147.42946327410306,-146.35233720210752 148.09933625520827,-148.85233720210798 147.42946327415396,-151.35233720212207 145.59933625524508,-153.18246422106822 143.09933625524462,-153.85233720217343 140.59933625523053,-153.18246422111912 138.76920923628438,-151.35233720221024 138.09933625517917,-148.85233720220978 138.76920923623348,-146.35233720219568 140.59933625514236,-144.52221018324954 143.09933625514282,-143.85233720214433" stroke="#ffa500" stroke-linecap="round" stroke-linejoin="round"/><polyline fill="none" points="-91.79123010570176,-79.44507095771918 -89.29123010568766,-80.1149439387735 -87.4611030867415,-81.94507095768239 -86.79123010563629,-84.44507095768286 -87.4611030866906,-86.94507095769696 -89.2912301055995,-88.77519797664311 -91.79123010559996,-89.44507095774833 -94.29123010561406,-88.77519797669402 -96.12135712456022,-86.94507095778512 -96.79123010566543,-84.44507095778465 -96.12135712461112,-81.94507095777055 -94.29123010570223,-80.1149439388244 -91.79123010570176,-79.44507095771918" stroke="#00f" stroke-linecap="round" stroke-linejoin="round"/><polyline fill="none" points="-4.350567237204867,217.41572245283663 -1.8505672371907629,216.74584947178232 -0.020440218244604846,214.91572245287344 0.6494327628606059,212.41572245287298 -0.020440218193700455,209.9157224528589 -1.850567237102594,208.08559543391272 -4.350567237103059,207.4157224528075 -6.850567237117164,208.0855954338618 -8.680694256063322,209.9157224527707 -9.350567237168535,212.41572245277115 -8.68069425611423,214.91572245278525 -6.850567237205336,216.74584947173142 -4.350567237204871,217.41572245283663" stroke="#ffa500" stroke-linecap="round" stroke-linejoin="round"/><polyline fill="none" points="69.78808367402381,-59.74889341364867 72.28808367403792,-60.41876639470298 74.11821069298408,-62.24889341361187 74.7880836740893,-64.74889341361234 74.118210693035,-67.24889341362645 72.2880836741261,-69.0790204325726 69.78808367412563,-69.74889341367782 67.28808367411152,-69.07902043262352 65.45795665516536,-67.24889341371463 64.78808367406015,-64.74889341371416 65.45795665511444,-62.24889341370005 67.28808367402334,-60.41876639475389 69.78808367402381,-59.74889341364867" stroke="#ffa500" stroke-linecap="round" stroke-linejoin="round"/><polyline fill="none" points="-210.008140817327,-43.66093684138599 -207.5081408173129,-44.330809822440294 -205.67801379836672,-46.160936841349184 -205.0081408172615,-48.66093684134965 -205.67801379831582,-51.160936841363764 -207.5081408172247,-52.99106386030993 -210.00814081722515,-53.66093684141514 -212.50814081723925,-52.99106386036084 -214.33826783618542,-51.16093684145195 -215.00814081729064,-48.66093684145149 -214.33826783623633,-46.160936841437376 -212.50814081732744,-44.33080982249121 -210.008140817327,-43.66093684138599" stroke="#008000" stroke-linecap="round" stroke-linejoin="round"/><polyline fill="none" points="35.90702911526296,15.084861233565917 38.40702911527707,14.414988252511616 40.237156134223234,12.584861233602727 40.907029115328456,10.084861233602261 40.23715613427416,7.5848612335881525 38.40702911536527,5.754734214641987 35.90702911536481,5.084861233536767 33.407029115350696,5.754734214591066 31.57690209640453,7.5848612334999554 30.90702911529931,10.08486123350042 31.576902096353606,12.58486123351453 33.407029115262496,14.414988252460697 35.90702911526296,15.084861233565919" stroke="#ffa500" stroke-linecap="round" stroke-linejoin="round"/><polyline fill="none" points="-237.91739274364178,-75.22053191765343 -235.4173927436277,-75.89040489870773 -233.58726572468152,-77.72053191761661 -232.9173927435763,-80.22053191761708 -233.5872657246306,-82.72053191763119 -235.4173927435395,-84.55065893657736 -237.91739274353995,-85.22053191768259 -240.41739274355405,-84.5506589366283 -242.24751976250022,-82.72053191771941 -242.91739274360543,-80.22053191771894 -242.24751976255115,-77.72053191770483 -240.41739274364227,-75.89040489875866 -237.9173927436418,-75.22053191765343" stroke="#00f" stroke-linecap="round" stroke-linejoin="round"/><polyline fill="none" points="47.648370478354565,-164.00275627295545 50.148370478368676,-164.67262925400973 51.97849749731485,-166.50275627291862 52.64837047842007,-169.00275627291907 51.97849749736577,-171.5027562729332 50.14837047845688,-173.33288329187937 47.64837047845642,-174.00275627298458 45.14837047844231,-173.3328832919303 43.31824345949614,-171.50275627302142 42.64837047839091,-169.00275627302096 43.3182434594452,-166.50275627300684 45.14837047835408,-164.67262925406067 47.64837047835454,-164.00275627295545" stroke="#00f" stroke-linecap="round" stroke-linejoin="round"/><polyline fill="none" points="110.13806359150621,-30.4282007567274 112.63806359152032,-31.098073737781693 114.4681906104665,-32.92820075669058 115.13806359157172,-35.42820075669104 114.46819061051742,-37.92820075670515 112.63806359160854,-39.758327775651324 110.13806359160807,-40.42820075675655 107.63806359159396,-39.75832777570226 105.80793657264779,-37.92820075679338 105.13806359154256,-35.42820075679292 105.80793657259686,-32.92820075677881 107.63806359150574,-31.09807373783263 110.13806359150621,-30.428200756727403" stroke="#ffa500" stroke-linecap="round" stroke-linejoin="round"/><polyline fill="none" points="-68.79490379332482,47.568100291608005 -66.29490379331071,46.898227310553715 -64.46477677436454,45.06810029164483 -63.79490379325931,42.56810029164437 -64.46477677431359,40.06810029163026 -66.29490379322247,38.23797327268409 -68.79490379322294,37.56810029157886 -71.29490379323705,38.23797327263315 -73.12503081218323,40.06810029154203 -73.79490379328846,42.56810029154249 -73.12503081223417,45.06810029155661 -71.29490379332529,46.89822731050279 -68.79490379332482,47.56810029160802" stroke="#ffa500" stroke-linecap="round" stroke-linejoin="round"/><polyline fill="none" points="92.8088410791414,-89.07514809136624 95.30884107915551,-89.74502107242053 97.13896809810169,-91.57514809132941 97.80884107920691,-94.07514809132988 97.13896809815263,-96.57514809134399 95.30884107924375,-98.40527511029016 92.80884107924328,-99.07514809139539 90.30884107922917,-98.40527511034111 88.47871406028298,-96.57514809143223 87.80884107917775,-94.07514809143176 88.47871406023204,-91.57514809141765 90.30884107914092,-89.74502107247146 92.80884107914139,-89.07514809136623" stroke="#ffa500" stroke-linecap="round" stroke-linejoin="round"/><polyline fill="none" points="-107.21464174263332,77.92125912447784 -104.71464174261921,77.25138614342356 -102.88451472367302,75.42125912451468 -102.21464174256779,72.92125912451421 -102.88451472362208,70.4212591245001 -104.71464174253096,68.59113210555391 -107.21464174253143,67.92125912444867 -109.71464174254554,68.59113210550295 -111.54476876149172,70.42125912441183 -112.21464174259697,72.9212591244123 -111.54476876154268,75.42125912442641 -109.7146417426338,77.2513861433726 -107.21464174263333,77.92125912447784" stroke="#00f" stroke-linecap="round" stroke-linejoin="round"/><polyline fill="none" points="104.02062942281334,-74.05861688038384 106.52062942282745,-74.72848986143812 108.35075644177364,-76.558616880347 109.02062942287888,-79.05861688034747 108.3507564418246,-81.5586168803616 106.52062942291572,-83.38874389930778 104.02062942291525,-84.05861688041303 101.52062942290112,-83.38874389935874 99.69050240395494,-81.55861688044986 99.0206294228497,-79.05861688044939 99.69050240390398,-76.55861688043527 101.52062942281286,-74.72848986148908 104.02062942281333,-74.05861688038384" stroke="#00f" stroke-linecap="round" stroke-linejoin="round"/><polyline fill="none" points="174.08689116032744,-105.16968532582285 176.58689116034157,-105.83955830687714 178.41701817928774,-107.66968532578602 179.08689116039298,-110.16968532578649 178.4170181793387,-112.66968532580061 176.58689116042981,-114.4998123447468 174.08689116042936,-115.16968532585204 171.58689116041523,-114.49981234479776 169.75676414146906,-112.66968532588888 169.08689116036382,-110.16968532588841 169.7567641414181,-107.66968532587428 171.58689116032699,-105.8395583069281 174.08689116032744,-105.16968532582285" stroke="#00f" stroke-linecap="round" stroke-linejoin="round"/><polyline fill="none" points="91.87546037738815,93.02591221634876 94.37546037740228,92.35603923529447 96.20558739634846,90.52591221638559 96.8754603774537,88.02591221638512 96.20558739639942,85.525912216371 94.37546037749054,83.69578519742481 91.87546037749007,83.02591221631957 89.37546037747595,83.69578519737385 87.54533335852976,85.52591221628273 86.87546037742452,88.0259122162832 87.5453333584788,90.52591221629733 89.37546037738768,92.35603923524351 91.87546037738815,93.02591221634876" stroke="#ffa500" stroke-linecap="round" stroke-linejoin="round"/><polyline fill="none" points="95.0952725937516,32.79993184139099 97.59527259376573,32.13005886033672 99.42539961271191,30.299931841427842 100.09527259381716,27.799931841427377 99.42539961276287,25.299931841413255 97.59527259385399,23.469804822467065 95.09527259385352,22.79993184136182 92.5952725938394,23.469804822416094 90.76514557489321,25.29993184132497 90.09527259378797,27.799931841325435 90.76514557484224,30.299931841339557 92.5952725937511,32.13005886028575 95.09527259375157,32.799931841391" stroke="#ffa500" stroke-linecap="round" stroke-linejoin="round"/><polyline fill="none" points="-57.15798797596452,-55.663467962031866 -54.65798797595039,-56.33334094308614 -52.8278609570042,-58.16346796199502 -52.15798797589895,-60.66346796199548 -52.827860956953224,-63.163467962009605 -54.6579879758621,-64.99359498095579 -57.15798797586257,-65.66346796206103 -59.657987975876694,-64.99359498100677 -61.48811499482289,-63.16346796209789 -62.15798797592814,-60.66346796209743 -61.48811499487387,-58.1634679620833 -59.65798797596499,-56.33334094313711 -57.15798797596453,-55.66346796203186" stroke="#ffa500" stroke-linecap="round" stroke-linejoin="round"/><polyline fill="none" points="-79.93447760890625,58.53594166760909 -77.43447760889212,57.86606868655482 -75.60435058994592,56.03594166764594 -74.93447760884067,53.53594166764548 -75.60435058989493,51.035941667631356 -77.4344776088038,49.20581464868516 -79.93447760880427,48.53594166757991 -82.4344776088184,49.20581464863418 -84.2646046277646,51.03594166754306 -84.93447760886986,53.53594166754352 -84.26460462781559,56.035941667557644 -82.43447760890672,57.86606868650384 -79.93447760890625,58.535941667609094" stroke="#ffa500" stroke-linecap="round" stroke-linejoin="round"/><polyline fill="none" points="-184.6094094196372,64.99789450279366 -182.10940941962306,64.32802152173939 -180.27928240067686,62.49789450283051 -179.60940941957162,59.99789450283005 -180.27928240062587,57.497894502815925 -182.10940941953476,55.667767483869724 -184.6094094195352,54.99789450276447 -187.10940941954934,55.667767483818736 -188.93953643849554,57.497894502727604 -189.60940941960078,59.997894502728066 -188.93953643854653,62.49789450274219 -187.10940941963764,64.32802152168838 -184.6094094196372,64.99789450279364" stroke="#ffa500" stroke-linecap="round" stroke-linejoin="round"/><polyline fill="none" points="-31.75352275645705,-101.64829543049046 -29.25352275644292,-102.31816841154473 -27.423395737496723,-104.1482954304536 -26.753522756391465,-106.64829543045407 -27.42339573744573,-109.1482954304682 -29.253522756354602,-110.9784224494144 -31.753522756355068,-111.64829543051965 -34.25352275636919,-110.97842244946538 -36.08364977531539,-109.14829543055652 -36.75352275642065,-106.64829543055605 -36.08364977536638,-104.14829543054192 -34.253522756457514,-102.31816841159572 -31.75352275645705,-101.64829543049046" stroke="#00f" stroke-linecap="round" stroke-linejoin="round"/><polyline fill="none" points="-269.51662525412104,-12.299647562328872 -267.0166252541069,-12.969520543383137 -265.1864982351607,-14.799647562292005 -264.51662525405544,-17.29964756229247 -265.1864982351097,-19.7996475623066 -267.01662525401855,-21.6297745812528 -269.516625254019,-22.29964756235806 -272.01662525403316,-21.6297745813038 -273.84675227297936,-19.79964756239493 -274.5166252540846,-17.299647562394465 -273.84675227303035,-14.799647562380336 -272.0166252541215,-12.969520543434134 -269.51662525412104,-12.299647562328872" stroke="#ffa500" stroke-linecap="round" stroke-linejoin="round"/><polyline fill="none" points="-185.34203434935722,106.63442164908754 -182.8420343493431,105.96454866803327 -181.0119073303969,104.1344216491244 -180.34203434929162,101.63442164912394 -181.01190733034588,99.13442164910981 -182.84203434925473,97.30429463016361 -185.3420343492552,96.63442164905835 -187.8420343492693,97.30429463011261 -189.6721613682155,99.13442164902148 -190.34203434932078,101.63442164902195 -189.67216136826653,104.13442164903607 -187.84203434935768,105.96454866798227 -185.34203434935722,106.63442164908754" stroke="#ffa500" stroke-linecap="round" stroke-linejoin="round"/><polyline fill="none" points="165.8521830183092,159.54461850644248 168.35218301832333,158.87474552538822 170.18231003726953,157.04461850647937 170.8521830183748,154.5446185064789 170.18231003732055,152.0446185064648 168.3521830184117,150.2144914875186 165.85218301841124,149.54461850641331 163.3521830183971,150.21449148746757 161.5220559994509,152.04461850637642 160.85218301834564,154.54461850637688 161.5220559993999,157.044618506391 163.35218301830875,158.8747455253372 165.8521830183092,159.54461850644248" stroke="#ffa500" stroke-linecap="round" stroke-linejoin="round"/><polyline fill="none" points="-219.94570517408113,-25.142156903085535 -217.445705174067,-25.812029884139793 -215.6155781551208,-27.642156903048658 -214.94570517401553,-30.142156903049123 -215.61557815506978,-32.64215690306326 -217.44570517397864,-34.47228392200947 -219.9457051739791,-35.14215690311474 -222.44570517399322,-34.472283922060484 -224.27583219293942,-32.64215690315162 -224.9457051740447,-30.142156903151157 -224.27583219299044,-27.642156903137025 -222.44570517408158,-25.812029884190814 -219.94570517408113,-25.142156903085542" stroke="#f00" stroke-linecap="round" stroke-linejoin="round"/><polyline fill="none" points="125.10065124539584,-121.60522349176316 127.60065124540998,-122.27509647281741 129.43077826435618,-124.10522349172628 130.10065124546145,-126.60522349172675 129.4307782644072,-129.10522349174087 127.60065124549833,-130.93535051068707 125.10065124549786,-131.60522349179234 122.60065124548372,-130.9353505107381 120.7705242265375,-129.10522349182924 120.10065124543223,-126.60522349182877 120.77052422648649,-124.10522349181463 122.60065124539535,-122.27509647286841 125.10065124539582,-121.60522349176314" stroke="#ffa500" stroke-linecap="round" stroke-linejoin="round"/><polyline fill="none" points="130.45009527679028,-118.94092168816968 132.9500952768044,-119.61079466922394 134.7802222957506,-121.4409216881328 135.45009527685588,-123.94092168813327 134.78022229580162,-126.44092168814741 132.95009527689277,-128.27104870709363 130.4500952768923,-128.9409216881989 127.95009527687817,-128.27104870714464 126.11996825793196,-126.44092168823578 125.45009527682669,-123.9409216882353 126.11996825788094,-121.44092168822117 127.9500952767898,-119.61079466927495 130.45009527679025,-118.94092168816968" stroke="#ffa500" stroke-linecap="round" stroke-linejoin="round"/><polyline fill="none" points="197.4854939770625,-80.38921264555877 199.98549397707663,-81.05908562661303 201.81562099602286,-82.88921264552188 202.48549397712813,-85.38921264552235 201.81562099607387,-87.88921264553649 199.98549397716502,-89.7193396644827 197.48549397716457,-90.38921264558797 194.98549397715044,-89.71933966453372 193.1553669582042,-87.88921264562487 192.48549397709894,-85.3892126456244 193.1553669581532,-82.88921264561026 194.98549397706205,-81.05908562666404 197.4854939770625,-80.38921264555876" stroke="#ffa500" stroke-linecap="round" stroke-linejoin="round"/><polyline fill="none" points="-199.4528489015727,-1.7197617710684039 -196.95284890155858,-2.3896347521226513 -195.12272188261235,-4.219761771031511 -194.45284890150708,-6.719761771031976 -195.12272188256134,-9.219761771046116 -196.9528489014702,-11.049888789992334 -199.45284890147065,-11.719761771097614 -201.9528489014848,-11.049888790043369 -203.78297592043103,-9.219761771134511 -204.4528489015363,-6.7197617711340465 -203.78297592048204,-4.219761771119907 -201.9528489015732,-2.389634752173687 -199.45284890157274,-1.7197617710684048" stroke="#00f" stroke-linecap="round" stroke-linejoin="round"/><polyline fill="none" points="30.546017475088135,-135.20149289434298 33.046017475102275,-135.87136587539723 34.876144494048496,-137.70149289430609 35.54601747515378,-140.20149289430654 34.87614449409954,-142.7014928943207 33.04601747519069,-144.53161991326692 30.546017475190222,-145.2014928943722 28.046017475176082,-144.53161991331794 26.21589045622986,-142.70149289440909 25.546017475124575,-140.20149289440863 26.21589045617882,-137.70149289439448 28.046017475087677,-135.87136587544825 30.546017475088142,-135.20149289434298" stroke="#ffa500" stroke-linecap="round" stroke-linejoin="round"/><polyline fill="none" points="47.95707815693941,-52.51125721981887 50.45707815695355,-53.18113020087311 52.28720517589977,-55.01125721978197 52.95707815700506,-57.51125721978243 52.28720517595082,-60.01125721979657 50.45707815704196,-61.84138423874279 47.9570781570415,-62.511257219848076 45.45707815702736,-61.841384238793836 43.62695113808114,-60.01125721988498 42.957078156975854,-57.51125721988452 43.626951138030094,-55.01125721987038 45.45707815693895,-53.18113020092416 47.95707815693941,-52.51125721981887" stroke="#ffa500" stroke-linecap="round" stroke-linejoin="round"/><polyline fill="none" points="156.4185822503002,119.35674892707863 158.91858225031436,118.68687594602439 160.7487092692606,116.85674892711553 161.4185822503659,114.35674892711506 160.74870926931166,111.85674892710092 158.9185822504028,110.0266219081547 156.41858225040235,109.35674892704941 153.9185822503882,110.02662190810365 152.08845523144197,111.8567489270125 151.41858225033667,114.35674892701297 152.0884552313909,116.85674892702711 153.91858225029975,118.68687594597334 156.4185822503002,119.35674892707863" stroke="#ffa500" stroke-linecap="round" stroke-linejoin="round"/><polyline fill="none" points="54.787432978831674,190.29831187275047 57.28743297884582,189.62843889169625 59.11755999779205,187.7983118727874 59.78743297889734,185.29831187278694 59.1175599978431,182.79831187277279 57.28743297893425,180.96818485382656 54.787432978933786,180.29831187272126 52.28743297891964,180.96818485377548 50.45730595997341,182.79831187268434 49.78743297886812,185.2983118726848 50.45730595992235,187.79831187269895 52.287432978831205,189.62843889164517 54.78743297883167,190.29831187275047" stroke="#ffa500" stroke-linecap="round" stroke-linejoin="round"/><polyline fill="none" points="-165.67519621151698,-66.31313323892299 -163.17519621150282,-66.98300621997723 -161.3450691925566,-68.81313323888608 -160.6751962114513,-71.31313323888655 -161.34506919250552,-73.81313323890069 -163.17519621141437,-75.64326025784692 -165.67519621141483,-76.31313323895222 -168.17519621142898,-75.64326025789798 -170.0053232303752,-73.81313323898912 -170.6751962114805,-71.31313323898866 -170.00532323042628,-68.8131332389745 -168.17519621151743,-66.98300622002827 -165.67519621151698,-66.31313323892297" stroke="#00f" stroke-linecap="round" stroke-linejoin="round"/><polyline fill="none" points="-221.70441241525162,98.92153730513378 -219.20441241523747,98.25166432407956 -217.37428539629124,96.4215373051707 -216.70441241518594,93.92153730517023 -217.37428539624017,91.42153730515608 -219.20441241514902,89.59141028620985 -221.70441241514948,88.92153730510455 -224.20441241516363,89.59141028615878 -226.03453943410986,91.42153730506763 -226.70441241521516,93.9215373050681 -226.03453943416093,96.42153730508225 -224.20441241525208,98.25166432402848 -221.70441241525162,98.92153730513378" stroke="#00f" stroke-linecap="round" stroke-linejoin="round"/><polyline fill="none" points="151.33015908088535,153.91927377278924 153.8301590808995,153.249400791735 155.66028609984573,151.41927377282616 156.33015908095103,148.9192737728257 155.6602860998968,146.41927377281155 153.83015908098795,144.58914675386532 151.3301590809875,143.91927377276002 148.83015908097335,144.58914675381425 147.00003206202712,146.4192737727231 146.33015908092182,148.91927377272356 147.00003206197604,151.4192737727377 148.8301590808849,153.24940079168394 151.33015908088535,153.91927377278924" stroke="#ffa500" stroke-linecap="round" stroke-linejoin="round"/><polyline fill="none" points="-183.87087330344474,49.21784436982518 -181.37087330343059,48.547971388770954 -179.54074628448436,46.71784436986211 -178.87087330337906,44.217844369861645 -179.54074628443328,41.71784436984749 -181.37087330334214,39.887717350901255 -183.8708733033426,39.21784436979595 -186.37087330335675,39.887717350850174 -188.20100032230297,41.71784436975902 -188.87087330340827,44.21784436975948 -188.20100032235405,46.71784436977364 -186.3708733034452,48.54797138871988 -183.87087330344474,49.21784436982519" stroke="#ffa500" stroke-linecap="round" stroke-linejoin="round"/><polyline fill="none" points="-123.7772419113209,-59.20900049492687 -121.27724191130675,-59.878873475981095 -119.4471148923605,-61.70900049488994 -118.7772419112552,-64.2090004948904 -119.44711489230943,-66.70900049490456 -121.27724191121827,-68.5391275138508 -123.77724191121874,-69.2090004949561 -126.27724191123289,-68.53912751390187 -128.10736893017912,-66.70900049499303 -128.77724191128442,-64.20900049499257 -128.1073689302302,-61.70900049497841 -126.27724191132135,-59.87887347603217 -123.77724191132089,-59.20900049492686" stroke="#00f" stroke-linecap="round" stroke-linejoin="round"/><polyline fill="none" points="131.81854084276193,-40.56873389973506 134.3185408427761,-41.23860688078928 136.14866786172234,-43.068733899698124 136.81854084282764,-45.568733899698586 136.14866786177342,-48.06873389971274 134.31854084286456,-49.89886091865898 131.8185408428641,-50.56873389976429 129.31854084284996,-49.89886091871007 127.48841382390371,-48.068733899801224 126.8185408427984,-45.56873389980076 127.48841382385262,-43.06873389978661 129.31854084276148,-41.238606880840365 131.81854084276193,-40.56873389973505" stroke="#ffa500" stroke-linecap="round" stroke-linejoin="round"/><polyline fill="none" points="37.91616215818506,33.7770475752985 40.416162158199214,33.107174594244285 42.24628917714546,31.27704757533544 42.91616215825077,28.777047575334976 42.24628917719655,26.27704757532082 40.416162158287705,24.446920556374575 37.91616215828724,23.77704757526926 35.41616215827309,24.44692055632348 33.58603513932684,26.277047575232324 32.916162158221525,28.77704757523279 33.586035139275744,31.277047575246947 35.416162158184584,33.1071745941932 37.916162158185045,33.77704757529851" stroke="#00f" stroke-linecap="round" stroke-linejoin="round"/><polyline fill="none" points="62.52049783443117,121.57544855167261 65.02049783444532,120.9055755706184 66.85062485339157,119.07544855170956 67.52049783449688,116.57544855170909 66.85062485344267,114.07544855169493 65.02049783453383,112.24532153274869 62.520497834533366,111.57544855164338 60.02049783451921,112.24532153269759 58.19037081557296,114.07544855160643 57.52049783446765,116.5754485516069 58.19037081552186,119.07544855162105 60.0204978344307,120.9055755705673 62.52049783443116,121.57544855167261" stroke="#ffa500" stroke-linecap="round" stroke-linejoin="round"/><polyline fill="none" points="-210.86411980022217,-107.04535863793917 -208.36411980020802,-107.71523161899339 -206.53399278126176,-109.54535863790223 -205.86411980015643,-112.0453586379027 -206.53399278121066,-114.54535863791685 -208.3641198001195,-116.3754856568631 -210.86411980011997,-117.04535863796842 -213.36411980013412,-116.37548565691421 -215.19424681908038,-114.54535863800537 -215.8641198001857,-112.0453586380049 -215.19424681913148,-109.54535863799074 -213.36411980022265,-107.71523161904449 -210.8641198002222,-107.04535863793917" stroke="#ffa500" stroke-linecap="round" stroke-linejoin="round"/><polyline fill="none" points="-75.19035296291287,-80.48989980009168 -72.69035296289871,-81.15977278114589 -70.86022594395246,-82.98989980005473 -70.19035296284714,-85.4898998000552 -70.86022594390136,-87.98989980006935 -72.6903529628102,-89.82002681901561 -75.19035296281066,-90.48989980012092 -77.69035296282482,-89.82002681906671 -79.52047998177108,-87.98989980015787 -80.1903529628764,-85.4898998001574 -79.52047998182219,-82.98989980014325 -77.69035296291335,-81.15977278119699 -75.19035296291288,-80.48989980009166" stroke="#ffa500" stroke-linecap="round" stroke-linejoin="round"/><polyline fill="none" points="-137.8861654773773,3.5663622082708883 -135.38616547736314,2.8964892272166782 -133.55603845841688,1.0663622083078401 -132.88616547731155,-1.4336377916926248 -133.55603845836575,-3.9336377917067855 -135.38616547727457,-5.763764810653041 -137.88616547727503,-6.433637791758365 -140.38616547728918,-5.7637648107041555 -142.21629249623544,-3.9336377917953183 -142.88616547734077,-1.4336377917948533 -142.21629249628657,1.0663622082193083 -140.38616547737774,2.8964892271655653 -137.8861654773773,3.5663622082708906" stroke="#ffa500" stroke-linecap="round" stroke-linejoin="round"/><polyline fill="none" points="50.50903585147916,91.86368249325982 53.00903585149332,91.1938095122056 54.83916287043958,89.36368249329676 55.50903585154491,86.8636824932963 54.8391628704907,84.36368249328213 53.009035851581864,82.53355547433587 50.5090358515814,81.86368249323054 48.00903585156724,82.53355547428475 46.178908832620984,84.3636824931936 45.509035851515655,86.86368249319406 46.17890883256986,89.36368249320823 48.00903585147869,91.19380951215449 50.509035851479155,91.86368249325982" stroke="#00f" stroke-linecap="round" stroke-linejoin="round"/><polyline fill="none" points="-31.49319121309348,166.46957670569444 -28.993191213079314,165.79970372464024 -27.163064194133053,163.9695767057314 -26.493191213027725,161.46957670573096 -27.16306419408193,158.9695767057168 -28.993191212990766,157.13944968677055 -31.49319121299123,156.46957670566522 -33.993191213005396,157.13944968671942 -35.82331823195166,158.96957670562824 -36.49319121305699,161.4695767056287 -35.823318232002784,163.96957670564285 -33.99319121309395,165.7997037245891 -31.493191213093485,166.46957670569444" stroke="#ffa500" stroke-linecap="round" stroke-linejoin="round"/><polyline fill="none" points="-120.0631486359621,15.795142316351075 -117.56314863594793,15.125269335296872 -115.73302161700167,13.295142316388038 -115.06314863589634,10.795142316387572 -115.73302161695054,8.295142316373408 -117.56314863585938,6.465015297427144 -120.06314863585985,5.7951423163218125 -122.56314863587401,6.465015297376014 -124.39327565482027,8.295142316284847 -125.0631486359256,10.795142316285311 -124.3932756548714,13.295142316299476 -122.56314863596258,15.12526933524574 -120.06314863596211,15.795142316351074" stroke="#00f" stroke-linecap="round" stroke-linejoin="round"/><polyline fill="none" points="-102.66514894511911,76.38338487826961 -100.16514894510495,75.71351189721541 -98.33502192615867,73.88338487830659 -97.66514894505335,71.38338487830612 -98.33502192610754,68.88338487829195 -100.16514894501637,67.05325785934568 -102.66514894501684,66.38338487824035 -105.165148945031,67.05325785929455 -106.99527596397728,68.88338487820337 -107.66514894508262,71.38338487820384 -106.99527596402842,73.88338487821801 -105.1651489451196,75.71351189716428 -102.66514894511913,76.38338487826962" stroke="#ffa500" stroke-linecap="round" stroke-linejoin="round"/><polyline fill="none" points="51.55493730793307,19.923938622091946 54.05493730794724,19.254065641037748 55.885064326893506,17.423938622128915 56.55493730799884,14.92393862212845 55.885064326944644,12.423938622114282 54.05493730803581,10.593811603168014 51.55493730803535,9.923938622062677 49.05493730802118,10.593811603116873 47.22481028907491,12.423938622025702 46.554937307969574,14.923938622026167 47.22481028902377,17.423938622040335 49.054937307932605,19.254065640986603 51.554937307933066,19.923938622091942" stroke="#ffa500" stroke-linecap="round" stroke-linejoin="round"/><polyline fill="none" points="-179.89696533106238,-54.32119020162977 -177.3969653310482,-54.991063182683966 -175.56683831210194,-56.8211902015928 -174.8969653309966,-59.32119020159326 -175.5668383120508,-61.82119020160743 -177.39696533095963,-63.6513172205537 -179.8969653309601,-64.32119020165904 -182.39696533097427,-63.65131722060484 -184.22709234992053,-61.82119020169601 -184.89696533102585,-59.32119020169555 -184.22709234997166,-56.82119020168138 -182.39696533106283,-54.99106318273511 -179.89696533106238,-54.32119020162977" stroke="#008000" stroke-linecap="round" stroke-linejoin="round"/><polyline fill="none" points="-166.4216005051718,-61.29397454941149 -163.9216005051576,-61.96384753046568 -162.09147348621133,-63.793974549374504 -161.42160050510597,-66.29397454937497 -162.09147348616017,-68.79397454938913 -163.921600505069,-70.6241015683354 -166.42160050506945,-71.29397454944075 -168.92160050508363,-70.62410156838655 -170.75172752402992,-68.79397454947772 -171.42160050513527,-66.29397454947726 -170.75172752408108,-63.79397454946309 -168.92160050517225,-61.963847530516816 -166.4216005051718,-61.29397454941147" stroke="#00f" stroke-linecap="round" stroke-linejoin="round"/><polyline fill="none" points="17.15840059134286,195.9171868690977 19.658400591357033,195.2473138880435 21.488527610303308,193.41718686913467 22.158400591408654,190.9171868691342 21.488527610354463,188.41718686912003 19.658400591445638,186.58705985017374 17.158400591445172,185.9171868690684 14.658400591431,186.58705985012259 12.828273572484726,188.4171868690314 12.15840059137938,190.91718686903187 12.828273572433568,193.41718686904605 14.658400591342394,195.24731388799233 17.158400591342858,195.9171868690977" stroke="#00f" stroke-linecap="round" stroke-linejoin="round"/><polyline fill="none" points="-199.68355186262437,24.244897642614013 -197.1835518626102,23.575024661559826 -195.3534248436639,21.744897642651 -194.68355186255855,19.244897642650535 -195.35342484361274,16.744897642636364 -197.18355186252157,14.914770623690087 -199.68355186252202,14.24489764258474 -202.1835518625362,14.914770623638926 -204.0136788814825,16.744897642547752 -204.68355186258785,19.244897642548217 -204.01367888153365,21.744897642562393 -202.18355186262482,23.57502466150867 -199.68355186262437,24.24489764261402" stroke="#00f" stroke-linecap="round" stroke-linejoin="round"/><polyline fill="none" points="128.7306158046095,170.74560699314245 131.23061580462368,170.07573401208825 133.06074282356997,168.24560699317942 133.73061580467532,165.74560699317897 133.06074282362113,163.24560699316478 131.2306158047123,161.4154799742185 128.73061580471185,160.74560699311314 126.23061580469768,161.41547997416734 124.40048878575139,163.24560699307617 123.73061580464604,165.74560699307662 124.40048878570022,168.2456069930908 126.23061580460904,170.0757340120371 128.7306158046095,170.74560699314245" stroke="#ffa500" stroke-linecap="round" stroke-linejoin="round"/><polyline fill="none" points="-127.03219014863934,-19.22672733961572 -124.53219014862516,-19.896600320669904 -122.70206312967888,-21.726727339578726 -122.03219014857352,-24.226727339579192 -122.7020631296277,-26.726727339593367 -124.53219014853653,-28.55685435853965 -127.032190148537,-29.226727339645002 -129.53219014855117,-28.55685435859082 -131.36231716749745,-26.726727339681997 -132.0321901486028,-24.22672733968153 -131.36231716754864,-21.726727339667356 -129.5321901486398,-19.896600320721074 -127.03219014863934,-19.22672733961572" stroke="#ffa500" stroke-linecap="round" stroke-linejoin="round"/><polyline fill="none" points="143.3554897349261,-70.53754838663455 145.85548973494028,-71.20742136768874 147.68561675388656,-73.03754838659756 148.35548973499192,-75.53754838659803 147.68561675393775,-78.03754838661222 145.85548973502893,-79.8676754055585 143.35548973502847,-80.53754838666386 140.8554897350143,-79.86767540560967 139.025362716068,-78.03754838670085 138.35548973496265,-75.53754838670038 139.02536271601682,-73.0375483866862 140.85548973492564,-71.20742136773991 143.3554897349261,-70.53754838663455" stroke="#ffa500" stroke-linecap="round" stroke-linejoin="round"/><polyline fill="none" points="-129.7089431757437,131.20308093363087 -127.20894317572953,130.5332079525767 -125.37881615678324,128.70308093366788 -124.70894317567789,126.20308093366741 -125.37881615673207,123.70308093365323 -127.2089431756409,121.87295391470694 -129.70894317564137,121.20308093360158 -132.20894317565555,121.87295391465577 -134.03907019460183,123.70308093356459 -134.7089431757072,126.20308093356506 -134.03907019465302,128.70308093357923 -132.2089431757442,130.53320795252552 -129.70894317574374,131.20308093363087" stroke="#ffa500" stroke-linecap="round" stroke-linejoin="round"/><polyline fill="none" points="78.24281322578278,-24.519272541452324 80.74281322579697,-25.1891455225065 82.57294024474325,-27.01927254141532 83.24281322584861,-29.519272541415784 82.57294024479444,-32.01927254142996 80.74281322588563,-33.849399560376256 78.24281322588516,-34.51927254148162 75.74281322587098,-33.84939956042744 73.91268620692469,-32.019272541518625 73.24281322581933,-29.51927254151816 73.9126862068735,-27.01927254150398 75.74281322578231,-25.18914552255769 78.24281322578278,-24.519272541452327" stroke="#ffa500" stroke-linecap="round" stroke-linejoin="round"/><polyline fill="none" points="-235.3534362883616,-28.93103198719058 -232.8534362883474,-29.600904968244752 -231.02330926940112,-31.43103198715357 -230.35343628829577,-33.931031987154036 -231.02330926934994,-36.43103198716822 -232.85343628825876,-38.26115900611451 -235.35343628825922,-38.931031987219875 -237.8534362882734,-38.2611590061657 -239.68356330721969,-36.43103198725688 -240.35343628832504,-33.93103198725642 -239.68356330727087,-31.431031987242235 -237.85343628836205,-29.600904968295943 -235.3534362883616,-28.931031987190575" stroke="#008000" stroke-linecap="round" stroke-linejoin="round"/><polyline fill="none" points="-139.19999968435764,76.49194189311493 -136.69999968434345,75.82206891206076 -134.86987266539717,73.99194189315195 -134.1999996842918,71.49194189315148 -134.86987266534598,68.9919418931373 -136.6999996842548,67.161814874191 -139.19999968425526,66.49194189308562 -141.69999968426944,67.1618148741398 -143.53012670321573,68.9919418930486 -144.19999968432109,71.49194189304907 -143.53012670326692,73.99194189306326 -141.6999996843581,75.82206891200956 -139.19999968435764,76.49194189311493" stroke="#00f" stroke-linecap="round" stroke-linejoin="round"/><polyline fill="none" points="-98.64371565778143,-0.5093810890516082 -96.14371565776725,-1.1792540701057777 -94.31358863882095,-3.0093810890145924 -93.64371565771557,-5.509381089015058 -94.31358863876974,-8.009381089029242 -96.14371565767856,-9.839508107975538 -98.64371565767902,-10.509381089080907 -101.1437156576932,-9.839508108026738 -102.9738426766395,-8.009381089117923 -103.64371565774488,-5.509381089117458 -102.97384267669071,-3.009381089103273 -101.1437156577819,-1.1792540701569758 -98.64371565778143,-0.5093810890516043" stroke="#ffa500" stroke-linecap="round" stroke-linejoin="round"/><polyline fill="none" points="118.82708548128426,148.63375526600018 121.32708548129844,147.963882284946 123.15721250024474,146.13375526603718 123.82708548135011,143.63375526603673 123.15721250029594,141.13375526602255 121.32708548138713,139.30362824707626 118.82708548138666,138.63375526597088 116.32708548137248,139.30362824702505 114.49695846242618,141.13375526593387 113.82708548132081,143.63375526593433 114.49695846237498,146.1337552659485 116.32708548128379,147.9638822848948 118.82708548128426,148.63375526600018" stroke="#00f" stroke-linecap="round" stroke-linejoin="round"/><polyline fill="none" points="-302.6056349364826,-45.052002175037295 -300.1056349364684,-45.72187515609146 -298.2755079175221,-47.55200217500027 -297.6056349364167,-50.05200217500073 -298.27550791747086,-52.55200217501492 -300.10563493637966,-54.38212919396122 -302.6056349363801,-55.0520021750666 -305.1056349363943,-54.382129194012435 -306.93576195534064,-52.552002175103624 -307.605634936446,-50.05200217510316 -306.93576195539185,-47.55200217508897 -305.10563493648306,-45.72187515614267 -302.6056349364826,-45.052002175037295" stroke="#ffa500" stroke-linecap="round" stroke-linejoin="round"/><polyline fill="none" points="-142.49093948077305,108.03553912606301 -139.99093948075887,107.36566614500884 -138.16081246181255,105.53553912610003 -137.49093948070717,103.03553912609956 -138.16081246176134,100.53553912608538 -139.99093948067014,98.70541210713908 -142.4909394806706,98.03553912603371 -144.99093948068477,98.70541210708787 -146.8210664996311,100.53553912599668 -147.49093948073647,103.03553912599715 -146.8210664996823,105.53553912601133 -144.9909394807735,107.36566614495763 -142.49093948077305,108.03553912606301" stroke="#ffa500" stroke-linecap="round" stroke-linejoin="round"/><polyline fill="none" points="-256.56401199584985,108.76114838193759 -254.06401199583567,108.09127540088343 -252.23388497688936,106.26114838197462 -251.56401199578397,103.76114838197415 -252.23388497683814,101.26114838195997 -254.06401199574694,99.43102136301367 -256.5640119957474,98.76114838190828 -259.06401199576163,99.43102136296244 -260.89413901470795,101.26114838187125 -261.5640119958133,103.76114838187172 -260.89413901475916,106.26114838188592 -259.06401199585036,108.09127540083222 -256.5640119958499,108.7611483819376" stroke="#ffa500" stroke-linecap="round" stroke-linejoin="round"/><polyline fill="none" points="-179.42675822630036,-46.892048093180954 -176.92675822628618,-47.56192107423511 -175.09663120733987,-49.39204809314391 -174.42675822623448,-51.892048093144375 -175.09663120728865,-54.392048093158564 -176.92675822619745,-56.22217511210487 -179.4267582261979,-56.892048093210256 -181.9267582262121,-56.2221751121561 -183.7568852451584,-54.3920480932473 -184.4267582262638,-51.892048093246835 -183.75688524520962,-49.392048093232646 -181.92675822630082,-47.56192107428634 -179.42675822630036,-46.892048093180954" stroke="#008000" stroke-linecap="round" stroke-linejoin="round"/><polyline fill="none" points="-267.23882938668066,-58.66451835865519 -264.73882938666645,-59.33439133970934 -262.90870236772014,-61.164518358618146 -262.2388293866147,-63.66451835861861 -262.90870236766887,-66.1645183586328 -264.73882938657766,-67.99464537757912 -267.2388293865781,-68.6645183586845 -269.73882938659233,-67.99464537763035 -271.56895640553864,-66.16451835872154 -272.23882938664406,-63.664518358721075 -271.5689564055899,-61.164518358706886 -269.7388293866811,-59.33439133976057 -267.23882938668066,-58.66451835865519" stroke="#ffa500" stroke-linecap="round" stroke-linejoin="round"/><polyline fill="none" points="-176.7766612718207,-47.96578686802144 -174.27666127180652,-48.635659849075594 -172.4465342528602,-50.4657868679844 -171.77666127175482,-52.96578686798486 -172.44653425280896,-55.46578686799906 -174.27666127171776,-57.29591388694537 -176.7766612717182,-57.965786868050756 -179.2766612717324,-57.2959138869966 -181.1067882906787,-55.4657868680878 -181.7766612717841,-52.965786868087335 -181.10678829072995,-50.46578686807314 -179.27666127182115,-48.635659849126824 -176.7766612718207,-47.96578686802143" stroke="#00f" stroke-linecap="round" stroke-linejoin="round"/><polyline fill="none" points="74.33314205224144,-97.60529116452764 76.83314205225564,-98.2751641455818 78.66326907120195,-100.10529116449061 79.33314205230734,-102.60529116449108 78.66326907125318,-105.10529116450527 76.83314205234439,-106.93541818345159 74.33314205234392,-107.60529116455697 71.83314205232972,-106.93541818350282 70.0030150333834,-105.10529116459402 69.33314205227802,-102.60529116459355 70.00301503333218,-100.10529116457936 71.83314205224097,-98.27516414563304 74.33314205224144,-97.60529116452766" stroke="#00f" stroke-linecap="round" stroke-linejoin="round"/><polyline fill="none" points="-237.84729110085541,0.9607077944693714 -235.34729110084123,0.29083481341522166 -233.51716408189492,-1.5392922054935814 -232.84729110078953,-4.039292205494046 -233.51716408184367,-6.539292205508242 -235.34729110075247,-8.369419224454559 -237.84729110075293,-9.039292205559953 -240.3472911007671,-8.369419224505805 -242.17741811971342,-6.539292205597002 -242.8472911008188,-4.039292205596537 -242.17741811976467,-1.5392922055823401 -240.34729110085587,0.2908348133639773 -237.84729110085541,0.960707794469372" stroke="#00f" stroke-linecap="round" stroke-linejoin="round"/><polyline fill="none" points="53.79812468962596,95.26460427161018 56.298124689640154,94.59473129055604 58.128251708586475,92.76460427164724 58.79812468969187,90.26460427164677 58.12825170863772,87.76460427163258 56.298124689728915,85.93447725268626 53.79812468972845,85.26460427158086 51.29812468971426,85.934477252635 49.467997670767936,87.7646042715438 48.79812468966254,90.26460427154427 49.467997670716684,92.76460427155847 51.29812468962548,94.59473129050478 53.79812468962594,95.26460427161018" stroke="#ffa500" stroke-linecap="round" stroke-linejoin="round"/><polyline fill="none" points="-184.99205424515438,42.09564383040566 -182.49205424514017,41.425770849351515 -180.66192722619385,39.59564383044272 -179.99205424508847,37.095643830442256 -180.6619272261426,34.59564383042806 -182.4920542450514,32.76551681148174 -184.99205424505186,32.09564383037634 -187.49205424506607,32.76551681143048 -189.32218126401239,34.59564383033928 -189.9920542451178,37.09564383033974 -189.32218126406366,39.595643830353936 -187.49205424515486,41.42577084930026 -184.9920542451544,42.095643830405656" stroke="#008000" stroke-linecap="round" stroke-linejoin="round"/><polyline fill="none" points="72.42488847358686,52.11895084081869 74.92488847360106,51.44907785976455 76.75501549254739,49.61895084085575 77.42488847365279,47.11895084085529 76.75501549259864,44.618950840841094 74.92488847368985,42.78882382189477 72.42488847368938,42.118950840789374 69.92488847367518,42.788823821843515 68.09476145472885,44.61895084075231 67.42488847362345,47.118950840752774 68.0947614546776,49.61895084076698 69.92488847358639,51.449077859713306 72.42488847358686,52.11895084081871" stroke="#ffa500" stroke-linecap="round" stroke-linejoin="round"/><polyline fill="none" points="42.45138412126375,-181.69632026476503 44.951384121277954,-182.36619324581918 46.78151114022428,-184.19632026472797 47.45138412132969,-186.69632026472843 46.78151114027555,-189.19632026474264 44.95138412136675,-191.02644728368895 42.45138412136629,-191.69632026479437 39.951384121352085,-191.02644728374023 38.12125710240576,-189.19632026483143 37.45138412130035,-186.69632026483097 38.12125710235449,-184.19632026481676 39.95138412126329,-182.36619324587045 42.45138412126375,-181.69632026476503" stroke="#ffa500" stroke-linecap="round" stroke-linejoin="round"/><polyline fill="none" points="-8.890536429681994,202.77873841571795 -6.390536429667791,202.1088654346638 -4.560409410721463,200.27873841575502 -3.8905364296160565,197.77873841575456 -4.560409410670194,195.27873841574035 -6.39053642957899,193.448611396794 -8.890536429579456,192.7787384156886 -11.39053642959366,193.44861139674273 -13.22066344853999,195.27873841565153 -13.890536429645397,197.778738415652 -13.220663448591262,200.2787384156662 -11.390536429682466,202.10886543461254 -8.890536429682001,202.77873841571795" stroke="#ffa500" stroke-linecap="round" stroke-linejoin="round"/><polyline fill="none" points="186.5158507776037,-129.8431229722959 189.0158507776179,-130.51299595335004 190.84597779656426,-132.34312297225884 191.51585077766967,-134.8431229722593 190.84597779661553,-137.3431229722735 189.01585077770673,-139.17324999121985 186.51585077770628,-139.84312297232526 184.01585077769207,-139.17324999127112 182.18572375874572,-137.34312297236232 181.5158507776403,-134.84312297236187 182.18572375869445,-132.34312297234766 184.01585077760325,-130.51299595340132 186.5158507776037,-129.8431229722959" stroke="#ffa500" stroke-linecap="round" stroke-linejoin="round"/><polyline fill="none" points="69.42051782952188,-103.53191691713403 71.9205178295361,-104.20178989818815 73.75064484848242,-106.03191691709695 74.42051782958784,-108.53191691709742 73.75064484853371,-111.03191691711163 71.92051782962491,-112.86204393605796 69.42051782962444,-113.53191691716337 66.92051782961023,-112.86204393610925 65.0903908106639,-111.03191691720045 64.42051782955849,-108.53191691719998 65.09039081061262,-106.03191691718577 66.92051782952142,-104.20178989823944 69.42051782952188,-103.53191691713403" stroke="#ffa500" stroke-linecap="round" stroke-linejoin="round"/><polyline fill="none" points="57.03553128037172,-73.89135800455024 59.535531280385925,-74.56123098560437 61.36565829933226,-76.39135800451317 62.035531280437674,-78.89135800451363 61.36565829938355,-81.39135800452785 59.53553128047476,-83.22148502347417 57.035531280474295,-83.89135800457959 54.53553128046009,-83.22148502352546 52.705404261513756,-81.39135800461666 52.03553128040834,-78.8913580046162 52.70540426146247,-76.39135800460198 54.53553128037126,-74.56123098565564 57.03553128037172,-73.89135800455023" stroke="#00f" stroke-linecap="round" stroke-linejoin="round"/><polyline fill="none" points="161.5576627899547,-107.42718925242222 164.0576627899689,-108.09706223347635 165.88778980891524,-109.92718925238515 166.55766279002066,-112.42718925238562 165.88778980896652,-114.92718925239983 164.05766279005772,-116.75731627134617 161.55766279005726,-117.42718925245158 159.05766279004305,-116.75731627139746 157.2275357710967,-114.92718925248867 156.5576627899913,-112.4271892524882 157.2275357710454,-109.927189252474 159.0576627899542,-108.09706223352765 161.55766278995466,-107.42718925242224" stroke="#00f" stroke-linecap="round" stroke-linejoin="round"/><polyline fill="none" points="-286.1294828568761,-35.67172318663006 -283.6294828568619,-36.34159616768419 -281.7993558379156,-38.17172318659298 -281.12948285681017,-40.67172318659344 -281.7993558378643,-43.17172318660765 -283.6294828567731,-45.00185020555399 -286.12948285677356,-45.67172318665941 -288.6294828567878,-45.00185020560529 -290.4596098757341,-43.1717231866965 -291.1294828568395,-40.671723186696035 -290.45960987578536,-38.171723186681824 -288.62948285687656,-36.34159616773548 -286.1294828568761,-35.67172318663006" stroke="#00f" stroke-linecap="round" stroke-linejoin="round"/><polyline fill="none" points="119.92389052590578,-98.51961592618994 122.42389052591999,-99.18948890724407 124.25401754486633,-101.01961592615285 124.92389052597176,-103.51961592615332 124.25401754491763,-106.01961592616753 122.42389052600885,-107.84974294511387 119.92389052600838,-108.5196159262193 117.42389052599417,-107.84974294516518 115.59376350704783,-106.01961592625639 114.9238905259424,-103.51961592625592 115.59376350699652,-101.01961592624171 117.4238905259053,-99.18948890729537 119.92389052590578,-98.51961592618994" stroke="#00f" stroke-linecap="round" stroke-linejoin="round"/><polyline fill="none" points="-203.56386786825513,-87.81845486224111 -201.06386786824092,-88.48832784329524 -199.23374084929458,-90.31845486220402 -198.56386786818916,-92.81845486220449 -199.23374084924328,-95.3184548622187 -201.06386786815207,-97.14858188116504 -203.56386786815253,-97.81845486227047 -206.06386786816674,-97.14858188121636 -207.89399488711308,-95.31845486230758 -208.5638678682185,-92.8184548623071 -207.89399488716438,-90.3184548622929 -206.06386786825558,-88.48832784334655 -203.56386786825513,-87.81845486224113" stroke="#ffa500" stroke-linecap="round" stroke-linejoin="round"/><polyline fill="none" points="-238.74938965287208,114.52791429777285 -236.24938965285787,113.85804131671874 -234.41926263391153,112.02791429780996 -233.7493896528061,109.52791429780949 -234.4192626338602,107.02791429779528 -236.249389652769,105.19778727884893 -238.74938965276945,104.52791429774351 -241.24938965278366,105.19778727879762 -243.07951667173,107.0279142977064 -243.74938965283545,109.52791429770687 -243.07951667178133,112.02791429772108 -241.24938965287254,113.85804131666742 -238.74938965287208,114.52791429777285" stroke="#ffa500" stroke-linecap="round" stroke-linejoin="round"/><polyline fill="none" points="-141.73645414399508,47.403107323828344 -139.23645414398086,46.73323434277423 -137.40632712503452,44.90310732386545 -136.73645414392908,42.40310732386499 -137.4063271249832,39.90310732385077 -139.23645414389196,38.07298030490442 -141.73645414389242,37.403107323798984 -144.23645414390663,38.0729803048531 -146.06658116285297,39.90310732376188 -146.7364541439584,42.40310732376234 -146.0665811629043,44.90310732377656 -144.23645414399553,46.73323434272291 -141.73645414399508,47.403107323828344" stroke="#00f" stroke-linecap="round" stroke-linejoin="round"/><polyline fill="none" points="-219.40010327442656,-8.414715446790337 -216.90010327441234,-9.08458842784445 -215.069976255466,-10.914715446753231 -214.40010327436056,-13.414715446753696 -215.06997625541467,-15.914715446767914 -216.90010327432344,-17.744842465714267 -219.4001032743239,-18.414715446819702 -221.9001032743381,-17.74484246576559 -223.73023029328445,-15.914715446856809 -224.4001032743899,-13.414715446856343 -223.73023029333578,-10.914715446842125 -221.900103274427,-9.08458842789577 -219.40010327442656,-8.414715446790334" stroke="#008000" stroke-linecap="round" stroke-linejoin="round"/><polyline fill="none" points="102.87070683080074,-40.667806924519475 105.37070683081497,-41.33767990557359 107.20083384976132,-43.16780692448237 107.87070683086677,-45.66780692448284 107.20083384981265,-48.16780692449706 105.37070683090387,-49.997933943443414 102.8707068309034,-50.66780692454885 100.37070683088918,-49.997933943494736 98.54057981194282,-48.16780692458595 97.87070683083738,-45.667806924585484 98.54057981189149,-43.167806924571266 100.37070683080027,-41.33767990562491 102.87070683080074,-40.66780692451947" stroke="#ffa500" stroke-linecap="round" stroke-linejoin="round"/><polyline fill="none" points="61.32178664765558,-158.21854179738185 63.821786647669796,-158.88841477843596 65.65191366661615,-160.71854179734473 66.3217866477216,-163.21854179734518 65.65191366666748,-165.7185417973594 63.8217866477587,-167.54866881630576 61.32178664775823,-168.2185417974112 58.82178664774401,-167.5486688163571 56.991659628797656,-165.71854179744832 56.321786647692214,-163.21854179744787 56.99165962874632,-160.71854179743366 58.821786647655095,-158.8884147784873 61.321786647655564,-158.21854179738185" stroke="#ffa500" stroke-linecap="round" stroke-linejoin="round"/><polyline fill="none" points="-215.81507318423456,-47.83205346176424 -213.31507318422035,-48.501926442818345 -211.48494616527398,-50.33205346172712 -210.81507318416854,-52.83205346172759 -211.48494616522265,-55.33205346174181 -213.31507318413142,-57.162180480688164 -215.81507318413188,-57.832053461793606 -218.3150731841461,-57.1621804807395 -220.14520020309246,-55.332053461830725 -220.8150731841979,-52.832053461830256 -220.1452002031438,-50.33205346181603 -218.31507318423502,-48.50192644286967 -215.81507318423456,-47.832053461764225" stroke="#00f" stroke-linecap="round" stroke-linejoin="round"/><polyline fill="none" points="98.74431285315785,-103.66382399696445 101.24431285317208,-104.33369697801855 103.07443987211843,-106.16382399692733 103.74431285322387,-108.6638239969278 103.07443987216978,-111.16382399694203 101.244312853261,-112.99395101588838 98.74431285326052,-113.66382399699383 96.2443128532463,-112.99395101593973 94.41418583429994,-111.16382399703095 93.7443128531945,-108.66382399703048 94.4141858342486,-106.16382399701625 96.24431285315738,-104.3336969780699 98.74431285315785,-103.66382399696445" stroke="#00f" stroke-linecap="round" stroke-linejoin="round"/><polyline fill="none" points="82.08572700729466,-68.69723621126285 84.58572700730889,-69.36710919231695 86.41585402625525,-71.19723621122571 87.08572700736069,-73.69723621122618 86.41585402630659,-76.19723621124041 84.58572700739782,-78.02736323018677 82.08572700739735,-78.6972362112922 79.58572700738313,-78.02736323023811 77.75559998843676,-76.19723621132934 77.08572700733131,-73.69723621132887 77.75559998838541,-71.19723621131465 79.58572700729418,-69.36710919236828 82.08572700729465,-68.69723621126283" stroke="#ffa500" stroke-linecap="round" stroke-linejoin="round"/><polyline fill="none" points="-222.9702709908997,110.58760507591431 -220.4702709908855,109.91773209486021 -218.64014397193912,108.08760507595144 -217.97027099083368,105.58760507595098 -218.6401439718878,103.08760507593675 -220.47027099079656,101.25747805699038 -222.97027099079702,100.58760507588492 -225.47027099081123,101.25747805693902 -227.3003980097576,103.08760507584779 -227.97027099086304,105.58760507584826 -227.30039800980893,108.08760507586248 -225.47027099090016,109.91773209480885 -222.9702709908997,110.58760507591431" stroke="#ffa500" stroke-linecap="round" stroke-linejoin="round"/><polyline fill="none" points="-216.69285659100575,-18.875344542202164 -214.19285659099154,-19.545217523256262 -212.36272957204517,-21.375344542165035 -211.69285659093973,-23.8753445421655 -212.3627295719938,-26.375344542179725 -214.19285659090258,-28.205471561126092 -216.69285659090303,-28.875344542231545 -219.19285659091727,-28.205471561177447 -221.02298360986364,-26.375344542268675 -221.6928565909691,-23.87534454226821 -221.022983609915,-21.375344542253984 -219.19285659100623,-19.545217523307617 -216.69285659100578,-18.875344542202164" stroke="#008000" stroke-linecap="round" stroke-linejoin="round"/><polyline fill="none" points="-110.55690301984859,24.51084952744709 -108.05690301983437,23.840976546392994 -106.226776000888,22.010849527484222 -105.55690301978254,19.510849527483757 -106.22677600083664,17.01084952746953 -108.0569030197454,15.180722508523163 -110.55690301974587,14.510849527417708 -113.0569030197601,15.180722508471803 -114.88703003870647,17.010849527380575 -115.55690301981193,19.51084952738104 -114.88703003875783,22.01084952739527 -113.05690301984906,23.84097654634164 -110.55690301984859,24.510849527447096" stroke="#ffa500" stroke-linecap="round" stroke-linejoin="round"/><polyline fill="none" points="-141.3205282482392,-49.66289565909115 -138.82052824822497,-50.33276864014524 -136.9904012292786,-52.16289565905401 -136.32052824817313,-54.66289565905448 -136.99040122922722,-57.16289565906871 -138.820528248136,-58.99302267801508 -141.32052824813644,-59.66289565912054 -143.82052824815068,-58.993022678066446 -145.65065526709705,-57.16289565915768 -146.32052824820252,-54.662895659157215 -145.65065526714844,-52.16289565914299 -143.82052824823967,-50.33276864019662 -141.3205282482392,-49.66289565909116" stroke="#ffa500" stroke-linecap="round" stroke-linejoin="round"/><polyline fill="none" points="-183.73727119766352,-54.36889150296854 -181.23727119764928,-55.03876448402263 -179.4071441787029,-56.8688915029314 -178.73727119759744,-59.36889150293186 -179.40714417865152,-61.86889150294609 -181.2372711975603,-63.69901852189247 -183.73727119756074,-64.36889150299793 -186.23727119757498,-63.699018521943835 -188.06739821652135,-61.868891503035066 -188.73727119762682,-59.368891503034604 -188.06739821657274,-56.86889150302037 -186.23727119766397,-55.038764484073994 -183.73727119766352,-54.36889150296853" stroke="#00f" stroke-linecap="round" stroke-linejoin="round"/><polyline fill="none" points="-0.22408357529937126,171.7517536578319 2.2759164247148598,171.0818806767778 4.106043443661236,169.25175365786905 4.7759164247667,166.7517536578686 4.106043443712611,164.25175365785435 2.2759164248038437,162.42162663890798 -0.22408357519662125,161.7517536578025 -2.7240835752108525,162.4216266388566 -4.55421059415723,164.25175365776536 -5.224083575262695,166.75175365776582 -4.554210594208608,169.25175365778006 -2.724083575299841,171.08188067672643 -0.22408357529937595,171.7517536578319" stroke="#ffa500" stroke-linecap="round" stroke-linejoin="round"/><polyline fill="none" points="-189.67324494521873,42.87134478332657 -187.1732449452045,42.201471802272486 -185.34311792625812,40.37134478336372 -184.67324494515265,37.871344783363256 -185.34311792620673,35.37134478334902 -187.1732449451155,33.541217764402646 -189.67324494511595,32.87134478329718 -192.1732449451302,33.541217764351266 -194.00337196407656,35.371344783260035 -194.67324494518203,37.8713447832605 -194.00337196412795,40.37134478327473 -192.17324494521918,42.20147180222111 -189.67324494521873,42.87134478332658" stroke="#ffa500" stroke-linecap="round" stroke-linejoin="round"/></svg>