<?xml version="1.0" ?><!DOCTYPE svg  PUBLIC '-//W3C//DTD SVG 1.1//EN'  'http://www.w3.org/Graphics/SVG/1.1/DTD/svg11.dtd'><svg height="433.000" viewBox="-323.000 -206.000 536.000 433.000" width="536.000" xmlns="http://www.w3.org/2000/svg"><line fill="none" stroke="none" stroke-linecap="round" stroke-width="2.0" x1="0.0" x2="0.0" y1="0.0" y2="0.0"/><polygon fill="none" fill-rule="evenodd" points="0.0,0.0 0.0,0.0 0.0,0.0" stroke-linejoin="round"/><polyline fill="none" points="36.52329642384418,64.92609985062293 39.023296423859,64.25622686956987 40.8534234428064,62.42609985066169 41.523296423913045,59.92609985066123 40.85342344285998,57.42609985064641 39.0232964239518,55.59597283169901 36.52329642395134,54.926099850592365 34.023296423936515,55.59597283164543 32.19316940498911,57.42609985055361 31.523296423882467,59.926099850554074 32.19316940493553,62.426099850568896 34.02329642384371,64.2562268695163 36.52329642384417,64.92609985062295" stroke="#ffa500" stroke-linecap="round" stroke-linejoin="round"/><polyline fill="none" points="28.21305135952599,51.48119258532081 30.713051359540813,50.81131960426775 32.543178378488214,48.98119258535957 33.213051359594864,46.48119258535911 32.5431783785418,43.98119258534429 30.713051359633628,42.15106556639689 28.213051359633162,41.48119258529024 25.71305135961834,42.1510655663433 23.882924340670936,43.98119258525147 23.213051359564286,46.48119258525193 23.882924340617347,48.981192585266754 25.713051359525522,50.811319604214155 28.213051359525988,51.481192585320805" stroke="#ffa500" stroke-linecap="round" stroke-linejoin="round"/><polyline fill="none" points="65.54521744996214,-78.58752557250291 68.04521744997696,-79.25739855355597 69.87534446892437,-81.08752557246414 70.54521745003102,-83.58752557246461 69.87534446897796,-86.08752557247944 68.04521745006979,-87.91765259142684 65.54521745006932,-88.5875255725335 63.045217450054494,-87.91765259148043 61.215090431107086,-86.08752557257226 60.545217450000436,-83.58752557257179 61.2150904310535,-81.08752557255697 63.04521744996167,-79.25739855360956 65.54521744996214,-78.58752557250291" stroke="#ffa500" stroke-linecap="round" stroke-linejoin="round"/><polyline fill="none" points="-145.39899402417822,-89.82093354647583 -142.8989940241634,-90.49080652752889 -141.068867005216,-92.32093354643706 -140.39899402410933,-94.82093354643753 -141.0688670051624,-97.32093354645235 -142.89899402407056,-99.15106056539976 -145.39899402407102,-99.82093354650641 -147.89899402408585,-99.15106056545335 -149.72912104303325,-97.32093354654518 -150.3989940241399,-94.82093354654471 -149.72912104308685,-92.32093354652989 -147.89899402417868,-90.49080652758248 -145.39899402417822,-89.82093354647583" stroke="#ffa500" stroke-linecap="round" stroke-linejoin="round"/><polyline fill="none" points="-153.94652637245358,-14.671703095851953 -151.44652637243874,-15.34157607690501 -149.61639935349132,-17.171703095813182 -148.94652637238465,-19.671703095813648 -149.6163993534377,-22.171703095828473 -151.4465263723459,-24.00183011477588 -153.94652637234634,-24.671703095882535 -156.44652637236118,-24.00183011482948 -158.2766533913086,-22.17170309592131 -158.94652637241526,-19.671703095920844 -158.2766533913622,-17.171703095906018 -156.44652637245403,-15.341576076958608 -153.94652637245358,-14.671703095851951" stroke="#00f" stroke-linecap="round" stroke-linejoin="round"/><polyline fill="none" points="-293.49570875954294,-41.77012926283558 -290.9957087595281,-42.440002243888635 -289.1655817405807,-44.27012926279681 -288.49570875947404,-46.77012926279727 -289.1655817405271,-49.2701292628121 -290.9957087594353,-51.10025628175951 -293.49570875943573,-51.77012926286617 -295.99570875945057,-51.10025628181312 -297.82583577839796,-49.270129262904945 -298.4957087595046,-46.77012926290448 -297.82583577845156,-44.270129262889654 -295.9957087595434,-42.44000224394224 -293.49570875954294,-41.77012926283558" stroke="#00f" stroke-linecap="round" stroke-linejoin="round"/><polyline fill="none" points="173.9675406577555,-106.33923086910778 176.46754065777034,-107.00910385016083 178.29766767671777,-108.839230869069 178.96754065782443,-111.33923086906947 178.29766767677137,-113.8392308690843 176.4675406578632,-115.66935788803171 173.96754065786274,-116.33923086913838 171.4675406578479,-115.66935788808533 169.63741363890048,-113.83923086917716 168.96754065779382,-111.33923086917669 169.63741363884688,-108.83923086916185 171.46754065775505,-107.00910385021443 173.9675406577555,-106.33923086910777" stroke="#ffa500" stroke-linecap="round" stroke-linejoin="round"/><polyline fill="none" points="70.86300112494325,-185.13160382828448 73.36300112495809,-185.80147680933754 75.19312814390551,-187.63160382824572 75.86300112501218,-190.13160382824617 75.19312814395913,-192.631603828261 73.36300112505096,-194.46173084720843 70.86300112505049,-195.1316038283151 68.36300112503565,-194.46173084726203 66.53287410608823,-192.63160382835386 65.86300112498157,-190.1316038283534 66.53287410603461,-187.63160382833857 68.36300112494278,-185.80147680939115 70.86300112494325,-185.13160382828448" stroke="#ffa500" stroke-linecap="round" stroke-linejoin="round"/><polyline fill="none" points="-296.8935222669929,-41.36333967172641 -294.39352226697804,-42.033212652779454 -292.56339524803064,-43.86333967168762 -291.893522266924,-46.36333967168808 -292.56339524797704,-48.86333967170292 -294.3935222668852,-50.69346669065034 -296.89352226688567,-51.363339671757004 -299.3935222669005,-50.69346669070396 -301.2236492858479,-48.86333967179579 -301.89352226695456,-46.36333967179533 -301.2236492859015,-43.863339671780494 -299.39352226699333,-42.03321265283307 -296.8935222669929,-41.3633396717264" stroke="#00f" stroke-linecap="round" stroke-linejoin="round"/><polyline fill="none" points="-178.46207156747343,75.5298510014569 -175.9620715674586,74.85997802040386 -174.13194454851117,73.02985100149569 -173.4620715674045,70.52985100149522 -174.13194454845754,68.02985100148038 -175.9620715673657,66.19972398253296 -178.46207156736617,65.5298510014263 -180.962071567381,66.19972398247934 -182.79219858632842,68.0298510013875 -183.4620715674351,70.52985100138797 -182.79219858638206,73.0298510014028 -180.96207156747388,74.85997802035023 -178.46207156747343,75.52985100145689" stroke="#00f" stroke-linecap="round" stroke-linejoin="round"/><polyline fill="none" points="110.45693422209497,158.95582198878498 112.95693422210981,158.28594900773194 114.78706124105723,156.45582198882377 115.45693422216391,153.95582198882332 114.78706124111086,151.45582198880848 112.9569342222027,149.62569496986106 110.45693422220224,148.9558219887544 107.9569342221874,149.62569496980743 106.12680720323998,151.4558219887156 105.4569342221333,153.95582198871605 106.12680720318635,156.4558219887309 107.9569342220945,158.2859490076783 110.45693422209497,158.95582198878498" stroke="#ffa500" stroke-linecap="round" stroke-linejoin="round"/><polyline fill="none" points="99.34070387901141,79.38743260485747 101.84070387902625,78.71755962380442 103.67083089797367,76.88743260489626 104.34070387908035,74.38743260489579 103.67083089802732,71.88743260488096 101.84070387911916,70.05730558593353 99.34070387911869,69.38743260482686 96.84070387910386,70.05730558587989 95.01057686015643,71.88743260478805 94.34070387904976,74.38743260478851 95.01057686010279,76.88743260480335 96.84070387901095,78.71755962375077 99.34070387901141,79.38743260485745" stroke="#ffa500" stroke-linecap="round" stroke-linejoin="round"/><polyline fill="none" points="136.8730695024026,-137.39626743033736 139.37306950241742,-138.0661404113904 141.20319652136484,-139.89626743029856 141.8730695024715,-142.39626743029902 141.20319652141848,-144.89626743031386 139.3730695025103,-146.72639444926128 136.87306950250985,-147.39626743036794 134.373069502495,-146.7263944493149 132.5429424835476,-144.89626743040674 131.8730695024409,-142.39626743040628 132.54294248349393,-139.89626743039145 134.3730695024021,-138.06614041144402 136.87306950240256,-137.39626743033733" stroke="#ffa500" stroke-linecap="round" stroke-linejoin="round"/><polyline fill="none" points="-97.82896775714276,-81.4563261554385 -95.32896775712793,-82.12619913649154 -93.49884073818049,-83.9563261553997 -92.82896775707381,-86.45632615540016 -93.49884073812684,-88.956326155415 -95.328967757035,-90.78645317436244 -97.82896775703547,-91.45632615546911 -100.32896775705031,-90.78645317441608 -102.15909477599774,-88.95632615550792 -102.82896775710442,-86.45632615550745 -102.15909477605139,-83.95632615549262 -100.32896775714323,-82.12619913654518 -97.82896775714276,-81.4563261554385" stroke="#00f" stroke-linecap="round" stroke-linejoin="round"/><polyline fill="none" points="-2.37789030398261,215.40432111356228 0.12210969603223054,214.73444813250924 1.9522367149796633,212.90432111360107 2.622109696086346,210.40432111360062 1.952236715033314,207.90432111358578 0.12210969612515621,206.07419409463836 -2.3778903038753088,205.40432111353167 -4.877890303890149,206.0741940945847 -6.708017322837583,207.90432111349284 -7.377890303944268,210.4043211134933 -6.708017322891237,212.90432111350813 -4.87789030398308,214.73444813245555 -2.3778903039826154,215.40432111356225" stroke="#ffa500" stroke-linecap="round" stroke-linejoin="round"/><polyline fill="none" points="74.11692533414794,-70.2383162334614 76.61692533416277,-70.90818921451444 78.44705235311021,-72.7383162334226 79.11692533421689,-75.23831623342306 78.44705235316385,-77.7383162334379 76.6169253342557,-79.56844325238534 74.11692533425523,-80.23831623349203 71.61692533424039,-79.568443252439 69.78679831529296,-77.73831623353084 69.11692533418626,-75.23831623353037 69.7867983152393,-72.73831623351553 71.61692533414745,-70.9081892145681 74.11692533414792,-70.2383162334614" stroke="#ffa500" stroke-linecap="round" stroke-linejoin="round"/><polyline fill="none" points="-213.9191116274908,-47.89532298826478 -211.41911162747596,-48.565195969317806 -209.5889846085285,-50.39532298822596 -208.9191116274218,-52.895322988226425 -209.58898460847485,-55.39532298824127 -211.419111627383,-57.225450007188705 -213.91911162738344,-57.89532298829539 -216.41911162739828,-57.225450007242365 -218.24923864634573,-55.39532298833421 -218.91911162745242,-52.895322988333746 -218.2492386463994,-50.3953229883189 -216.41911162749125,-48.565195969371466 -213.9191116274908,-47.89532298826477" stroke="#008000" stroke-linecap="round" stroke-linejoin="round"/><polyline fill="none" points="39.75172640063079,20.652482826549253 42.25172640064563,19.982609845496228 44.08185341959307,18.152482826588074 44.75172640069976,15.652482826587608 44.081853419646734,13.152482826572763 42.25172640073858,11.322355807625323 39.75172640073812,10.652482826518632 37.25172640072328,11.322355807571657 35.421599381775835,13.152482826479812 34.75172640066914,15.652482826480277 35.42159938172217,18.152482826495124 37.25172640063032,19.982609845442564 39.75172640063078,20.652482826549257" stroke="#ffa500" stroke-linecap="round" stroke-linejoin="round"/><polyline fill="none" points="-244.85824566575937,-74.36031564828828 -242.35824566574453,-75.0301886293413 -240.52811864679708,-76.86031564824945 -239.8582456656904,-79.36031564824992 -240.52811864674342,-81.86031564826477 -242.35824566565157,-83.69044266721221 -244.85824566565202,-84.3603156483189 -247.35824566566686,-83.69044266726588 -249.1883726846143,-81.86031564835773 -249.858245665721,-79.36031564835726 -249.18837268466797,-76.86031564834241 -247.35824566575982,-75.03018862939496 -244.85824566575937,-74.36031564828826" stroke="#00f" stroke-linecap="round" stroke-linejoin="round"/><polyline fill="none" points="50.90438839768104,-164.18244179765637 53.40438839769588,-164.8523147787094 55.234515416643326,-166.68244179761754 55.90438839775002,-169.182441797618 55.234515416697,-171.68244179763283 53.40438839778885,-173.51256881658028 50.90438839778839,-174.18244179768698 48.40438839777354,-173.51256881663394 46.574261378826094,-171.6824417977258 45.904388397719394,-169.18244179772535 46.57426137877241,-166.6824417977105 48.40438839768056,-164.85231477876306 50.904388397681025,-164.18244179765637" stroke="#00f" stroke-linecap="round" stroke-linejoin="round"/><polyline fill="none" points="101.79479866680461,-42.51850188076183 104.29479866681946,-43.18837486181485 106.12492568576691,-45.018501880723 106.7947986668736,-47.51850188072346 106.12492568582059,-50.01850188073831 104.29479866691244,-51.848628899685764 101.79479866691197,-52.51850188079246 99.29479866689712,-51.848628899739445 97.46467164794967,-50.018501880831295 96.79479866684296,-47.51850188083083 97.46467164789598,-45.01850188081598 99.29479866680413,-43.18837486186853 101.7947986668046,-42.51850188076183" stroke="#ffa500" stroke-linecap="round" stroke-linejoin="round"/><polyline fill="none" points="-89.64773510425884,48.148500934119035 -87.14773510424399,47.47862795306602 -85.31760808529654,45.648500934157866 -84.64773510418983,43.1485009341574 -85.31760808524285,40.64850093414255 -87.147735104151,38.818373915195096 -89.64773510415147,38.148500934088396 -92.14773510416632,38.818373915141414 -93.97786212311377,40.648500934049565 -94.64773510422047,43.14850093405003 -93.97786212316745,45.64850093406488 -92.14773510425931,47.47862795301233 -89.64773510425884,48.14850093411903" stroke="#ffa500" stroke-linecap="round" stroke-linejoin="round"/><polyline fill="none" points="96.41227434024294,-97.67165094921825 98.9122743402578,-98.34152393027126 100.74240135920525,-100.17165094917941 101.41227434031195,-102.67165094917988 100.74240135925893,-105.17165094919473 98.91227434035079,-107.00177796814218 96.41227434035032,-107.67165094924889 93.91227434033547,-107.00177796819587 92.08214732138802,-105.17165094928772 91.41227434028131,-102.67165094928725 92.08214732133433,-100.1716509492724 93.91227434024248,-98.34152393032495 96.41227434024294,-97.67165094921825" stroke="#ffa500" stroke-linecap="round" stroke-linejoin="round"/><polyline fill="none" points="-119.089739227201,73.16578760085858 -116.58973922718614,72.49591461980556 -114.75961220823869,70.66578760089742 -114.08973922713199,68.16578760089695 -114.75961220818499,65.6657876008821 -116.58973922709313,63.83566058193465 -119.0897392270936,63.16578760082794 -121.58973922710845,63.83566058188095 -123.4198662460559,65.6657876007891 -124.08973922716261,68.16578760078957 -123.4198662461096,70.66578760080442 -121.58973922720146,72.49591461975187 -119.089739227201,73.16578760085858" stroke="#00f" stroke-linecap="round" stroke-linejoin="round"/><polyline fill="none" points="108.04286614650339,-77.6451588176683 110.54286614651824,-78.31503179872131 112.37299316546569,-80.14515881762945 113.0428661465724,-82.64515881762992 112.37299316551939,-85.14515881764477 110.54286614661125,-86.97528583659222 108.04286614661078,-87.64515881769893 105.54286614659593,-86.97528583664592 103.71273912764848,-85.14515881773778 103.04286614654177,-82.64515881773731 103.71273912759477,-80.14515881772246 105.54286614650292,-78.31503179877501 108.04286614650339,-77.6451588176683" stroke="#00f" stroke-linecap="round" stroke-linejoin="round"/><polyline fill="none" points="172.6210897257376,-107.79996705717475 175.12108972575246,-108.46984003822776 176.9512167446999,-110.2999670571359 177.62108972580663,-112.79996705713637 176.95121674475362,-115.29996705715122 175.12108972584548,-117.13009407609869 172.62108972584502,-117.7999670572054 170.12108972583016,-117.13009407615239 168.2909627068827,-115.29996705724425 167.621089725776,-112.79996705724378 168.290962706829,-110.29996705722893 170.12108972573714,-108.46984003828146 172.6210897257376,-107.79996705717474" stroke="#00f" stroke-linecap="round" stroke-linejoin="round"/><polyline fill="none" points="86.31451690298931,94.76867003409335 88.81451690300416,94.09879705304034 90.64464392195163,92.2686700341322 91.31451690305835,89.76867003413173 90.64464392200534,87.26867003411688 88.8145169030972,85.43854301516942 86.31451690309673,84.7686700340627 83.81451690308188,85.4385430151157 81.98438988413442,87.26867003402384 81.3145169030277,89.76867003402431 81.9843898840807,92.26867003403918 83.81451690298884,94.09879705298664 86.31451690298931,94.76867003409336" stroke="#ffa500" stroke-linecap="round" stroke-linejoin="round"/><polyline fill="none" points="86.02268549460862,34.50140381606151 88.52268549462349,33.83153083500851 90.35281251357095,32.001403816100364 91.02268549467767,29.5014038160999 90.35281251362467,27.00140381608504 88.52268549471653,25.171276797137576 86.02268549471606,24.50140381603086 83.5226854947012,25.17127679708386 81.69255847575373,27.001403815992 81.022685494647,29.501403815992465 81.69255847570001,32.001403816007326 83.52268549460815,33.83153083495479 86.02268549460862,34.50140381606151" stroke="#ffa500" stroke-linecap="round" stroke-linejoin="round"/><polyline fill="none" points="-63.06451492492127,-65.61047385741033 -60.56451492490641,-66.28034683846333 -58.73438790595895,-68.11047385737147 -58.064514924852226,-70.61047385737194 -58.73438790590522,-73.11047385738681 -60.56451492481336,-74.94060087633427 -63.06451492481382,-75.610473857441 -65.56451492482869,-74.94060087638799 -67.39464194377615,-73.11047385747985 -68.06451492488287,-70.61047385747938 -67.39464194382987,-68.11047385746451 -65.56451492492172,-66.28034683851705 -63.06451492492126,-65.61047385741033" stroke="#ffa500" stroke-linecap="round" stroke-linejoin="round"/><polyline fill="none" points="-98.35620040163576,56.722712801761766 -95.8562004016209,56.05283982070877 -94.02607338267343,54.22271280180063 -93.35620040156671,51.72271280180017 -94.0260733826197,49.222712801785306 -95.85620040152784,47.392585782837834 -98.35620040152831,46.722712801731106 -100.85620040154318,47.3925857827841 -102.68632742049064,49.22271280169224 -103.35620040159736,51.7227128016927 -102.68632742054437,54.222712801707566 -100.85620040163624,56.05283982065504 -98.35620040163577,56.722712801761766" stroke="#ffa500" stroke-linecap="round" stroke-linejoin="round"/><polyline fill="none" points="-206.20220976479524,46.13421304743589 -203.70220976478038,45.464340066382896 -201.8720827458329,43.63421304747476 -201.20220976472618,41.1342130474743 -201.87208274577918,38.63421304745943 -203.70220976468732,36.80408602851196 -206.20220976468778,36.13421304740523 -208.70220976470264,36.80408602845822 -210.53233678365012,38.63421304736636 -211.20220976475684,41.13421304736682 -210.53233678370384,43.634213047381685 -208.7022097647957,45.46434006632916 -206.20220976479524,46.134213047435885" stroke="#ffa500" stroke-linecap="round" stroke-linejoin="round"/><polyline fill="none" points="-33.92201563870478,-103.1179851005902 -31.422015638689913,-103.7878580816432 -29.59188861974244,-105.61798510055132 -28.922015638635713,-108.11798510055179 -29.591888619688703,-110.61798510056666 -31.422015638596836,-112.44811211951414 -33.9220156385973,-113.11798510062087 -36.422015638612166,-112.44811211956788 -38.25214265755964,-110.61798510065975 -38.922015638666366,-108.11798510065928 -38.252142657613376,-105.61798510064442 -36.42201563870524,-103.78785808169694 -33.92201563870478,-103.1179851005902" stroke="#00f" stroke-linecap="round" stroke-linejoin="round"/><polyline fill="none" points="-277.71907944632363,-21.533446056794872 -275.21907944630874,-22.203319037847862 -273.3889524273613,-24.033446056755995 -272.71907944625457,-26.53344605675646 -273.3889524273076,-29.033446056771325 -275.2190794462157,-30.8635730757188 -277.71907944621614,-31.533446056825532 -280.21907944623104,-30.863573075772543 -282.0492064651785,-29.03344605686441 -282.7190794462852,-26.533446056863944 -282.0492064652322,-24.03344605684908 -280.2190794463241,-22.203319037901604 -277.71907944632363,-21.533446056794872" stroke="#ffa500" stroke-linecap="round" stroke-linejoin="round"/><polyline fill="none" points="-191.3237286584698,102.05976379930067 -188.82372865845494,101.38989081824768 -186.99360163950746,99.55976379933955 -186.32372865840074,97.05976379933908 -186.99360163945371,94.55976379932422 -188.82372865836186,92.72963678037674 -191.3237286583623,92.05976379927 -193.82372865837718,92.72963678032299 -195.65385567732466,94.55976379923112 -196.32372865843138,97.05976379923159 -195.6538556773784,99.55976379924645 -193.82372865847026,101.38989081819393 -191.3237286584698,102.05976379930067" stroke="#ffa500" stroke-linecap="round" stroke-linejoin="round"/><polyline fill="none" points="159.1549911471509,159.18552372414507 161.65499114716576,158.5156507430921 163.48511816611324,156.68552372418395 164.15499114722,154.1855237241835 163.485118166167,151.68552372416863 161.65499114725887,149.85539670522115 159.15499114725841,149.1855237241144 156.65499114724355,149.85539670516738 154.82486412829607,151.68552372407552 154.15499114718932,154.18552372407598 154.8248641282423,156.68552372409084 156.65499114715044,158.51565074303832 159.1549911471509,159.18552372414507" stroke="#ffa500" stroke-linecap="round" stroke-linejoin="round"/><polyline fill="none" points="-223.8812381509296,-33.250199596965274 -221.38123815091473,-33.92007257801826 -219.55111113196725,-35.750199596926386 -218.8812381508605,-38.25019959692685 -219.55111113191347,-40.75019959694172 -221.38123815082162,-42.5803266158892 -223.88123815082207,-43.25019959699594 -226.38123815083694,-42.58032661594296 -228.21136516978441,-40.75019959703483 -228.88123815089116,-38.25019959703437 -228.2113651698382,-35.750199597019495 -226.38123815093007,-33.92007257807201 -223.88123815092962,-33.25019959696527" stroke="#f00" stroke-linecap="round" stroke-linejoin="round"/><polyline fill="none" points="117.35803878952548,-118.59507680852808 119.85803878954034,-119.26494978958105 121.68816580848782,-121.09507680848918 122.35803878959456,-123.59507680848965 121.68816580854158,-126.09507680850452 119.85803878963345,-127.925203827452 117.35803878963299,-128.59507680855873 114.85803878961812,-127.92520382750575 113.02791177067064,-126.09507680859763 112.35803878956389,-123.59507680859716 113.02791177061687,-121.09507680858229 114.858038789525,-119.26494978963481 117.35803878952547,-118.59507680852806" stroke="#ffa500" stroke-linecap="round" stroke-linejoin="round"/><polyline fill="none" points="138.74583750203317,-111.97342812626194 141.24583750204803,-112.64330110731491 143.0759645209955,-114.47342812622304 143.74583750210226,-116.97342812622351 143.0759645210493,-119.47342812623839 141.24583750214117,-121.30355514518588 138.74583750214072,-121.97342812629263 136.24583750212585,-121.30355514523966 134.41571048317837,-119.47342812633153 133.74583750207162,-116.97342812633106 134.4157104831246,-114.47342812631618 136.2458375020327,-112.64330110736869 138.74583750203317,-111.97342812626194" stroke="#ffa500" stroke-linecap="round" stroke-linejoin="round"/><polyline fill="none" points="196.3091655212354,-88.10411501364504 198.80916552125026,-88.77398799469802 200.63929254019774,-90.60411501360615 201.3091655213045,-93.10411501360662 200.63929254025152,-95.6041150136215 198.8091655213434,-97.43424203256899 196.30916552134295,-98.10411501367574 193.80916552132808,-97.43424203262276 191.9790385023806,-95.60411501371463 191.30916552127385,-93.10411501371416 191.97903850232683,-90.60411501369929 193.80916552123495,-88.77398799475179 196.3091655212354,-88.10411501364504" stroke="#ffa500" stroke-linecap="round" stroke-linejoin="round"/><polyline fill="none" points="-210.69153527761245,-4.3210919993740475 -208.19153527759758,-4.990964980427021 -206.3614082586501,-6.821091999335145 -205.69153527754335,-9.32109199933561 -206.36140825859633,-11.821091999350484 -208.19153527750444,-13.651219018297976 -210.6915352775049,-14.321091999404725 -213.19153527751976,-13.651219018351751 -215.02166229646724,-11.821091999443627 -215.691535277574,-9.321091999443162 -215.02166229652101,-6.821091999428288 -213.1915352776129,-4.990964980480795 -210.69153527761245,-4.321091999374044" stroke="#00f" stroke-linecap="round" stroke-linejoin="round"/><polyline fill="none" points="38.218582033723756,-143.75143606600685 40.71858203373863,-144.42130904705982 42.54870905268612,-146.25143606596794 43.21858203379287,-148.7514360659684 42.5487090527399,-151.25143606598326 40.71858203383178,-153.08156308493074 38.21858203383132,-153.75143606603748 35.71858203381644,-153.0815630849845 33.888455014868946,-151.2514360660764 33.21858203376219,-148.75143606607594 33.88845501481516,-146.25143606606107 35.71858203372328,-144.42130904711357 38.21858203372374,-143.75143606600682" stroke="#ffa500" stroke-linecap="round" stroke-linejoin="round"/><polyline fill="none" points="53.18423575135416,-59.782136383533896 55.68423575136904,-60.452009364586864 57.51436277031653,-62.282136383494986 58.18423575142329,-64.78213638349546 57.51436277037032,-67.28213638351033 55.6842357514622,-69.11226340245783 53.184235751461735,-69.78213638356458 50.684235751446856,-69.1122634025116 48.85410873249936,-67.28213638360349 48.184235751392606,-64.78213638360302 48.854108732445575,-62.28213638358814 50.6842357513537,-60.45200936464064 53.18423575135416,-59.78213638353388" stroke="#ffa500" stroke-linecap="round" stroke-linejoin="round"/><polyline fill="none" points="151.7801861252024,127.76828340585983 154.28018612521726,127.09841042480687 156.11031314416476,125.26828340589876 156.7801861252715,122.76828340589829 156.11031314421854,120.26828340588341 154.28018612531042,118.43815638693592 151.78018612530997,117.76828340582915 149.2801861252951,118.43815638688211 147.4500591063476,120.26828340579023 146.78018612524085,122.7682834057907 147.45005910629382,125.26828340580558 149.28018612520194,127.09841042475307 151.7801861252024,127.76828340585983" stroke="#ffa500" stroke-linecap="round" stroke-linejoin="round"/><polyline fill="none" points="50.089239560301976,194.20503351953528 52.589239560316855,193.5351605384823 54.419366579264356,191.7050335195742 55.08923956037111,189.20503351957373 54.419366579318144,186.70503351955884 52.58923956041002,184.87490650061133 50.08923956040956,184.20503351950458 47.58923956039468,184.87490650055756 45.75911254144718,186.70503351946567 45.08923956034042,189.20503351946613 45.75911254139338,191.70503351948102 47.58923956030149,193.53516053842853 50.089239560301955,194.20503351953528" stroke="#ffa500" stroke-linecap="round" stroke-linejoin="round"/><polyline fill="none" points="-175.95219097947637,-69.41183208611922 -173.45219097946148,-70.08170506717218 -171.62206396051397,-71.9118320860803 -170.95219097940722,-74.41183208608076 -171.6220639604602,-76.91183208609564 -173.4521909793683,-78.74195910504315 -175.95219097936877,-79.41183208614991 -178.45219097938366,-78.74195910509695 -180.28231799833117,-76.91183208618884 -180.95219097943794,-74.41183208618837 -180.28231799838497,-71.91183208617349 -178.45219097947685,-70.08170506722598 -175.9521909794764,-69.41183208611922" stroke="#00f" stroke-linecap="round" stroke-linejoin="round"/><polyline fill="none" points="-225.52577550959705,97.3037297397389 -223.02577550958216,96.63385675868594 -221.19564849063465,94.80372973977782 -220.52577550952788,92.30372973977735 -221.19564849058082,89.80372973976247 -223.02577550948894,87.97360272081497 -225.5257755094894,87.3037297397082 -228.02577550950429,87.97360272076116 -229.8559025284518,89.80372973966928 -230.52577550955857,92.30372973966975 -229.85590252850562,94.80372973968463 -228.0257755095975,96.63385675863213 -225.52577550959705,97.3037297397389" stroke="#00f" stroke-linecap="round" stroke-linejoin="round"/><polyline fill="none" points="147.8022640500117,154.78785822905414 150.3022640500266,154.1179852480012 152.1323910689741,152.28785822909308 152.80226405008088,149.78785822909262 152.13239106902793,147.28785822907773 150.30226405011982,145.45773121013022 147.80226405011936,144.78785822902344 145.30226405010447,145.4577312100764 143.47213703115696,147.2878582289845 142.80226405005018,149.78785822898496 143.47213703110313,152.28785822899985 145.30226405001125,154.11798524794736 147.8022640500117,154.78785822905414" stroke="#ffa500" stroke-linecap="round" stroke-linejoin="round"/><polyline fill="none" points="-196.07343479330075,34.43238385418253 -193.57343479328586,33.76251087312958 -191.74330777433835,31.932383854221463 -191.07343479323157,29.432383854220998 -191.74330777428452,26.932383854206112 -193.57343479319263,25.1022568352586 -196.0734347931931,24.43238385415183 -198.57343479320798,25.102256835204784 -200.4035618121555,26.9323838541129 -201.07343479326227,29.432383854113365 -200.40356181220932,31.93238385412825 -198.5734347933012,33.76251087307576 -196.07343479330075,34.43238385418253" stroke="#ffa500" stroke-linecap="round" stroke-linejoin="round"/><polyline fill="none" points="-134.81655654201703,-63.11028317188419 -132.31655654200213,-63.780156152937145 -130.48642952305462,-65.61028317184525 -129.81655654194785,-68.11028317184572 -130.4864295230008,-70.61028317186062 -132.3165565419089,-72.44041019080812 -134.81655654190936,-73.1102831719149 -137.31655654192426,-72.44041019086195 -139.14668356087176,-70.61028317195384 -139.81655654197854,-68.11028317195337 -139.1466835609256,-65.61028317193848 -137.31655654201748,-63.78015615299096 -134.81655654201703,-63.110283171884184" stroke="#00f" stroke-linecap="round" stroke-linejoin="round"/><polyline fill="none" points="130.0415404126167,-50.16011352551226 132.5415404126316,-50.82998650656521 134.3716674315791,-52.66011352547332 135.0415404126859,-55.16011352547378 134.37166743163294,-57.66011352548867 132.54154041272483,-59.49024054443618 130.04154041272437,-60.16011352554296 127.54154041270948,-59.490240544490014 125.71141339376197,-57.660113525581906 125.0415404126552,-55.160113525581444 125.71141339370814,-52.66011352556656 127.54154041261626,-50.82998650661904 130.0415404126167,-50.160113525512266" stroke="#ffa500" stroke-linecap="round" stroke-linejoin="round"/><polyline fill="none" points="36.83319064820044,34.018819069546595 39.33319064821533,33.34894608849365 41.16331766716284,31.518819069585536 41.83319064826962,29.01881906958507 41.163317667216674,26.51881906957018 39.333190648308566,24.688692050622667 36.833190648308104,24.01881906951589 34.33319064829322,24.688692050568836 32.503063629345704,26.518819069476944 31.833190648238922,29.01881906947741 32.50306362929187,31.5188190694923 34.33319064819998,33.34894608843982 36.83319064820044,34.018819069546595" stroke="#00f" stroke-linecap="round" stroke-linejoin="round"/><polyline fill="none" points="63.36600227906628,117.08753523920649 65.86600227908117,116.41766225815354 67.6961292980287,114.58753523924543 68.36600227913547,112.08753523924496 67.69612929808252,109.58753523923006 65.86600227917441,107.75740822028254 63.36600227917395,107.08753523917576 60.866002279159055,107.75740822022871 59.03587526021153,109.58753523913683 58.36600227910475,112.0875352391373 59.035875260157695,114.58753523915219 60.8660022790658,116.41766225809971 63.366002279066265,117.08753523920649" stroke="#ffa500" stroke-linecap="round" stroke-linejoin="round"/><polyline fill="none" points="-221.48392891153856,-101.85180997960737 -218.98392891152366,-102.52168296066031 -217.15380189257615,-104.35180997956842 -216.48392891146938,-106.85180997956888 -217.15380189252232,-109.35180997958378 -218.98392891143044,-111.1819369985313 -221.4839289114309,-111.85180997963808 -223.9839289114458,-111.18193699858513 -225.8140559303933,-109.35180997967703 -226.48392891150007,-106.85180997967656 -225.81405593044713,-104.35180997966167 -223.983928911539,-102.52168296071414 -221.48392891153856,-101.85180997960735" stroke="#ffa500" stroke-linecap="round" stroke-linejoin="round"/><polyline fill="none" points="-82.78926272837376,-82.35858666835179 -80.28926272835886,-83.02845964940474 -78.45913570941134,-84.85858666831284 -77.78926272830455,-87.35858666831331 -78.4591357093575,-89.8585866683282 -80.2892627282656,-91.68871368727572 -82.78926272826607,-92.35858666838251 -85.28926272828096,-91.68871368732957 -87.11938974722848,-89.85858666842147 -87.78926272833527,-87.358586668421 -87.11938974728233,-84.8585866684061 -85.28926272837423,-83.02845964945858 -82.78926272837376,-82.35858666835179" stroke="#ffa500" stroke-linecap="round" stroke-linejoin="round"/><polyline fill="none" points="-152.7101130682665,18.45137063582527 -150.21011306825162,17.78149765477233 -148.37998604930408,15.951370635864226 -147.7101130681973,13.45137063586376 -148.37998604925025,10.951370635848868 -150.21011306815836,9.121243616901342 -152.71011306815882,8.451370635794552 -155.2101130681737,9.12124361684749 -157.04024008712125,10.951370635755595 -157.71011306822803,13.45137063575606 -157.04024008717508,15.951370635770955 -155.21011306826696,17.781497654718482 -152.7101130682665,18.451370635825274" stroke="#ffa500" stroke-linecap="round" stroke-linejoin="round"/><polyline fill="none" points="49.467056552450735,94.26772961047082 51.96705655246563,93.59785662941789 53.79718357141316,91.76772961050979 54.46705655251995,89.26772961050932 53.79718357146701,86.76772961049443 51.96705655255891,84.9376025915469 49.46705655255845,84.26772961044011 46.96705655254355,84.93760259149305 45.136929533596025,86.76772961040115 44.46705655248923,89.26772961040162 45.136929533542165,91.76772961041651 46.967056552450266,93.59785662936403 49.46705655245073,94.26772961047082" stroke="#00f" stroke-linecap="round" stroke-linejoin="round"/><polyline fill="none" points="-23.596888704366183,175.57669847565452 -21.096888704351286,174.90682549460158 -19.266761685403758,173.07669847569346 -18.596888704296962,170.576698475693 -19.2667616853499,168.0766984756781 -21.096888704258,166.24657145673058 -23.596888704258465,165.57669847562377 -26.09688870427336,166.24657145667672 -27.927015723220894,168.07669847558483 -28.59688870432769,170.5766984755853 -27.927015723274756,173.07669847560018 -26.096888704366656,174.90682549454772 -23.59688870436619,175.57669847565452" stroke="#ffa500" stroke-linecap="round" stroke-linejoin="round"/><polyline fill="none" points="-126.30252976063804,9.635246596221108 -123.80252976062314,8.965373615168176 -121.97240274167561,7.135246596260075 -121.30252976056882,4.635246596259609 -121.97240274162175,2.1352465962447114 -123.80252976052985,0.30511957729717887 -126.30252976053032,-0.3647534038096192 -128.8025297605452,0.3051195772433125 -130.63265677949275,2.1352465961514127 -131.30252976059955,4.635246596151878 -130.63265677954664,7.135246596166777 -128.80252976063855,8.965373615114311 -126.30252976063808,9.63524659622111" stroke="#00f" stroke-linecap="round" stroke-linejoin="round"/><polyline fill="none" points="-115.08621142835598,77.97749578318097 -112.58621142834109,77.30762280212804 -110.75608440939355,75.47749578321994 -110.08621142828675,72.97749578321947 -110.75608440933968,70.47749578320457 -112.58621142824778,68.64736876425704 -115.08621142824825,67.97749578315023 -117.58621142826314,68.64736876420316 -119.41633844721068,70.47749578311127 -120.08621142831748,72.97749578311173 -119.41633844726455,75.47749578312664 -117.58621142835645,77.30762280207418 -115.08621142835598,77.97749578318098" stroke="#ffa500" stroke-linecap="round" stroke-linejoin="round"/><polyline fill="none" points="51.98462397179297,24.43547652154643 54.48462397180787,23.7656035404935 56.31475099075541,21.935476521585404 56.984623971862206,19.43547652158494 56.31475099080928,16.93547652157004 54.48462397190118,15.1053495026225 51.98462397190072,14.435476521515696 49.48462397188582,15.105349502568624 47.65449695293828,16.93547652147672 46.984623971831475,19.435476521477185 47.6544969528844,21.935476521492085 49.484623971792495,23.765603540439624 51.984623971792956,24.43547652154643" stroke="#ffa500" stroke-linecap="round" stroke-linejoin="round"/><polyline fill="none" points="-184.04397992692566,-56.83110247617296 -181.54397992691077,-57.500975457225884 -179.71385290796323,-59.33110247613398 -179.04397992685642,-61.83110247613445 -179.71385290790934,-64.33110247614935 -181.54397992681743,-66.16122949509689 -184.04397992681788,-66.8311024762037 -186.54397992683278,-66.16122949515078 -188.3741069457803,-64.33110247624268 -189.04397992688712,-61.831102476242215 -188.3741069458342,-59.331102476227315 -186.5439799269261,-57.50097545727977 -184.04397992692566,-56.831102476172966" stroke="#008000" stroke-linecap="round" stroke-linejoin="round"/><polyline fill="none" points="-177.79838151179658,-61.64761495403822 -175.29838151178168,-62.317487935091144 -173.46825449283415,-64.14761495399924 -172.79838151172734,-66.6476149539997 -173.46825449278026,-69.14761495401461 -175.29838151168835,-70.97774197296215 -177.7983815116888,-71.64761495406896 -180.2983815117037,-70.97774197301604 -182.12850853065123,-69.14761495410794 -182.79838151175804,-66.64761495410747 -182.12850853070512,-64.14761495409256 -180.29838151179703,-62.31748793514502 -177.79838151179658,-61.647614954038204" stroke="#00f" stroke-linecap="round" stroke-linejoin="round"/><polyline fill="none" points="18.40843572318408,200.2778475471534 20.908435723198984,199.6079745661005 22.738562742146527,197.7778475471924 23.408435723253337,195.27784754719195 22.73856274220042,192.77784754717706 20.908435723292325,190.94772052822952 18.40843572329186,190.27784754712272 15.908435723276954,190.94772052817564 14.078308704329409,192.77784754708372 13.408435723222595,195.27784754708418 14.078308704275514,197.77784754709907 15.908435723183606,199.6079745660466 18.40843572318407,200.2778475471534" stroke="#00f" stroke-linecap="round" stroke-linejoin="round"/><polyline fill="none" points="-204.38030347171556,21.09955164135737 -201.88030347170067,20.42967866030445 -200.05017645275313,18.59955164139636 -199.38030347164633,16.099551641395895 -200.05017645269925,13.59955164138099 -201.88030347160733,11.769424622433442 -204.3803034716078,11.099551641326627 -206.88030347162268,11.769424622379544 -208.71043049057022,13.599551641287636 -209.38030347167702,16.0995516412881 -208.7104304906241,18.59955164130301 -206.88030347171602,20.429678660250556 -204.38030347171556,21.099551641357372" stroke="#00f" stroke-linecap="round" stroke-linejoin="round"/><polyline fill="none" points="130.13486118377898,167.94200051110326 132.63486118379387,167.27212753005034 134.4649882027414,165.44200051114225 135.13486118384822,162.9420005111418 134.4649882027953,160.44200051112688 132.6348611838872,158.61187349217934 130.13486118388676,157.94200051107254 127.63486118387185,158.61187349212545 125.8047341649243,160.44200051103354 125.13486118381748,162.942000511034 125.8047341648704,165.44200051104892 127.63486118377848,167.27212752999648 130.13486118377895,167.9420005111033" stroke="#ffa500" stroke-linecap="round" stroke-linejoin="round"/><polyline fill="none" points="-135.4827817452984,-19.446072639375462 -132.9827817452835,-20.115945620428377 -131.15265472633592,-21.946072639336467 -130.48278174522912,-24.446072639336933 -131.15265472628204,-26.94607263935184 -132.98278174519012,-28.77619965829939 -135.48278174519058,-29.44607263940621 -137.9827817452055,-28.7761996583533 -139.81290876415306,-26.94607263944521 -140.4827817452599,-24.446072639444743 -139.81290876420698,-21.946072639429833 -137.9827817452989,-20.11594562048228 -135.48278174529844,-19.44607263937546" stroke="#ffa500" stroke-linecap="round" stroke-linejoin="round"/><polyline fill="none" points="137.07331986443856,-80.08175030838582 139.57331986445348,-80.75162328943874 141.40344688340105,-82.58175030834683 142.07331986450788,-85.0817503083473 141.40344688345496,-87.5817503083622 139.57331986454687,-89.41187732730975 137.07331986454642,-90.08175030841657 134.5733198645315,-89.41187732736367 132.74319284558393,-87.58175030845558 132.0733198644771,-85.08175030845511 132.74319284553002,-82.5817503084402 134.5733198644381,-80.75162328949266 137.07331986443856,-80.08175030838584" stroke="#ffa500" stroke-linecap="round" stroke-linejoin="round"/><polyline fill="none" points="-142.4774634788764,121.80251142396823 -139.97746347886147,121.13263844291532 -138.1473364599139,119.30251142400724 -137.47746347880707,116.80251142400677 -138.14733645985999,114.30251142399186 -139.97746347876807,112.47238440504431 -142.47746347876853,111.80251142393749 -144.97746347878345,112.4723844049904 -146.807590497731,114.30251142389848 -147.47746347883785,116.80251142389895 -146.80759049778493,119.30251142391386 -144.97746347887684,121.1326384428614 -142.4774634788764,121.80251142396823" stroke="#ffa500" stroke-linecap="round" stroke-linejoin="round"/><polyline fill="none" points="76.8603904426284,-37.89914236492129 79.36039044264331,-38.569015345974194 81.19051746159087,-40.39914236488228 81.86039044269769,-42.89914236488274 81.19051746164479,-45.399142364897656 79.3603904427367,-47.229269383845214 76.86039044273623,-47.89914236495204 74.36039044272133,-47.22926938389914 72.53026342377376,-45.39914236499105 71.86039044266693,-42.89914236499059 72.53026342371983,-40.399142364975674 74.36039044262792,-38.56901534602812 76.86039044262839,-37.89914236492129" stroke="#ffa500" stroke-linecap="round" stroke-linejoin="round"/><polyline fill="none" points="-237.16797991593782,-34.49769530137896 -234.6679799159229,-35.167568282431866 -232.83785289697533,-36.99769530133995 -232.1679799158685,-39.497695301340414 -232.83785289692142,-41.99769530135533 -234.6679799158295,-43.827822320302886 -237.16797991582996,-44.49769530140971 -239.66797991584488,-43.82782232035681 -241.49810693479245,-41.99769530144872 -242.16797991589928,-39.49769530144826 -241.4981069348464,-36.997695301433346 -239.6679799159383,-35.16756828248578 -237.16797991593785,-34.49769530137895" stroke="#008000" stroke-linecap="round" stroke-linejoin="round"/><polyline fill="none" points="-147.05076312165275,75.4838009035798 -144.55076312163783,74.8139279225269 -142.72063610269026,72.98380090361881 -142.05076312158343,70.48380090361835 -142.72063610263632,67.98380090360342 -144.5507631215444,66.15367388465586 -147.05076312154486,65.48380090354902 -149.55076312155978,66.15367388460193 -151.38089014050735,67.98380090351002 -152.05076312161418,70.48380090351048 -151.3808901405613,72.9838009035254 -149.5507631216532,74.81392792247297 -147.05076312165275,75.4838009035798" stroke="#00f" stroke-linecap="round" stroke-linejoin="round"/><polyline fill="none" points="-107.4818029021052,0.8357831600065921 -104.98180290209028,0.16591017895369176 -103.15167588314272,-1.6642168399543902 -102.48180290203588,-4.164216839954856 -103.15167588308879,-6.6642168399697725 -104.98180290199687,-8.494343858917338 -107.48180290199734,-9.164216840024174 -109.98180290201226,-8.494343858971275 -111.81192992095983,-6.664216840063194 -112.48180290206666,-4.164216840062728 -111.81192992101376,-1.664216840047811 -109.98180290210567,0.16591017889975523 -107.4818029021052,0.8357831600065918" stroke="#ffa500" stroke-linecap="round" stroke-linejoin="round"/><polyline fill="none" points="116.03947012176339,148.98513638543884 118.53947012177831,148.31526340438595 120.36959714072587,146.48513638547786 121.03947012183271,143.9851363854774 120.3695971407798,141.48513638546248 118.53947012187172,139.65500936651492 116.03947012187125,138.98513638540808 113.53947012185633,139.65500936646097 111.70934310290876,141.48513638536906 111.03947012180193,143.98513638536951 111.70934310285482,146.48513638538444 113.53947012176289,148.315263404332 116.03947012176336,148.98513638543884" stroke="#00f" stroke-linecap="round" stroke-linejoin="round"/><polyline fill="none" points="-306.56831439226,-45.525853597932006 -304.0683143922451,-46.1957265789849 -302.23818737329754,-48.02585359789298 -301.5683143921907,-50.52585359789345 -302.2381873732436,-53.02585359790837 -304.06831439215165,-54.855980616855945 -306.5683143921521,-55.52585359796279 -309.068314392167,-54.85598061690989 -310.89844141111456,-53.02585359800181 -311.5683143922214,-50.52585359800134 -310.8984414111685,-48.02585359798642 -309.06831439226045,-46.19572657903885 -306.56831439226,-45.525853597932006" stroke="#ffa500" stroke-linecap="round" stroke-linejoin="round"/><polyline fill="none" points="-152.46990781259504,103.69107043019048 -149.96990781258012,103.02119744913759 -148.13978079363255,101.19107043022952 -147.46990781252572,98.69107043022905 -148.1397807935786,96.19107043021413 -149.9699078124867,94.36094341126655 -152.46990781248715,93.6910704301597 -154.96990781250207,94.36094341121259 -156.80003483144964,96.19107043012066 -157.46990781255647,98.69107043012113 -156.80003483150358,101.19107043013605 -154.9699078125955,103.02119744908363 -152.46990781259504,103.69107043019048" stroke="#ffa500" stroke-linecap="round" stroke-linejoin="round"/><polyline fill="none" points="-253.27922227097673,108.20259277131012 -250.7792222709618,107.53271979025723 -248.94909525201425,105.70259277134916 -248.2792222709074,103.20259277134869 -248.9490952519603,100.70259277133377 -250.7792222708684,98.87246575238619 -253.27922227086884,98.20259277127934 -255.77922227088376,98.87246575233223 -257.60934928983136,100.7025927712403 -258.2792222709382,103.20259277124077 -257.6093492898853,105.7025927712557 -255.77922227097721,107.53271979020327 -253.27922227097676,108.20259277131012" stroke="#ffa500" stroke-linecap="round" stroke-linejoin="round"/><polyline fill="none" points="-185.26961135476395,-50.47664495940437 -182.76961135474903,-51.14651794045726 -180.93948433580147,-52.97664495936533 -180.26961135469463,-55.47664495936579 -180.93948433574752,-57.976644959380714 -182.7696113546556,-59.80677197832829 -185.26961135465606,-60.47664495943514 -187.76961135467099,-59.80677197838225 -189.59973837361855,-57.97664495947418 -190.2696113547254,-55.47664495947372 -189.59973837367252,-52.976644959458795 -187.76961135476444,-51.14651794051122 -185.26961135476398,-50.47664495940437" stroke="#008000" stroke-linecap="round" stroke-linejoin="round"/><polyline fill="none" points="-275.8577018858784,-58.966577581507394 -273.35770188586343,-59.63645056256028 -271.52757486691587,-61.46657758146835 -270.85770188580904,-63.96657758146881 -271.5275748668619,-66.46657758148373 -273.35770188577,-68.29670460043131 -275.85770188577044,-68.96657758153816 -278.3577018857854,-68.29670460048527 -280.18782890473295,-66.4665775815772 -280.8577018858398,-63.966577581576736 -280.1878289047869,-61.46657758156181 -278.35770188587884,-59.63645056261423 -275.8577018858784,-58.96657758150737" stroke="#ffa500" stroke-linecap="round" stroke-linejoin="round"/><polyline fill="none" points="-190.727614018722,-56.11472287344855 -188.22761401870707,-56.78459585450143 -186.39748699975948,-58.614722873409505 -185.72761401865262,-61.11472287340997 -186.3974869997055,-63.614722873424896 -188.22761401861356,-65.44484989237247 -190.72761401861402,-66.11472287347932 -193.22761401862894,-65.44484989242645 -195.05774103757653,-63.614722873518375 -195.7276140186834,-61.11472287351791 -195.0577410376305,-58.614722873502984 -193.22761401872245,-56.7845958545554 -190.727614018722,-56.11472287344854" stroke="#00f" stroke-linecap="round" stroke-linejoin="round"/><polyline fill="none" points="71.62572142345158,-100.13885642961493 74.1257214234665,-100.80872941066781 75.95584844241408,-102.63885642957588 76.62572142352094,-105.13885642957635 75.95584844246807,-107.63885642959127 74.12572142356,-109.46898344853885 71.62572142355953,-110.13885642964571 69.1257214235446,-109.46898344859284 67.29559440459703,-107.63885642968476 66.62572142349016,-105.1388564296843 67.29559440454304,-102.63885642966937 69.12572142345111,-100.80872941072178 71.62572142345158,-100.13885642961492" stroke="#00f" stroke-linecap="round" stroke-linejoin="round"/><polyline fill="none" points="-254.03886121821807,-16.429007372876885 -251.53886121820315,-17.098880353929765 -249.70873419925556,-18.929007372837834 -249.0388612181487,-21.4290073728383 -249.7087341992016,-23.929007372853228 -251.53886121810964,-25.759134391800814 -254.0388612181101,-26.429007372907673 -256.538861218125,-25.759134391854797 -258.3689882370726,-23.929007372946728 -259.0388612181794,-21.429007372946263 -258.36898823712653,-18.929007372931334 -256.53886121821847,-17.098880353983745 -254.03886121821802,-16.42900737287688" stroke="#00f" stroke-linecap="round" stroke-linejoin="round"/><polyline fill="none" points="56.547206057611,96.51878834180526 59.04720605762593,95.84891536075239 60.877333076573514,94.01878834184431 61.54720605768038,91.51878834184384 60.8773330766275,89.01878834182891 59.047206057719436,87.18866132288132 56.547206057718974,86.51878834177445 54.047206057704045,87.18866132282733 52.21707903875645,89.0187883417354 51.54720605764959,91.51878834173587 52.217079038702465,94.0187883417508 54.04720605761053,95.8489153606984 56.54720605761099,96.51878834180526" stroke="#ffa500" stroke-linecap="round" stroke-linejoin="round"/><polyline fill="none" points="-194.76297030528607,31.915428583346376 -192.26297030527115,31.2455556022935 -190.43284328632356,29.415428583385435 -189.7629703052167,26.91542858338497 -190.43284328626956,24.415428583370037 -192.26297030517762,22.585301564422444 -194.76297030517807,21.915428583315578 -197.262970305193,22.58530156436845 -199.0930973241406,24.415428583276515 -199.76297030524745,26.91542858327698 -199.0930973241946,29.415428583291913 -197.26297030528653,31.245555602239506 -194.76297030528607,31.915428583346372" stroke="#008000" stroke-linecap="round" stroke-linejoin="round"/><polyline fill="none" points="68.29990214067874,49.60422635856829 70.79990214069367,48.93435337751542 72.63002915964127,47.104226358607356 73.29990214074813,44.604226358606894 72.63002915969525,42.10422635859196 70.7999021407872,40.274099339644366 68.29990214078673,39.604226358537495 65.79990214077179,40.274099339590364 63.9697751218242,42.10422635849843 63.29990214071733,44.60422635849889 63.9697751217702,47.10422635851383 65.79990214067826,48.93435337746142 68.29990214067873,49.60422635856829" stroke="#ffa500" stroke-linecap="round" stroke-linejoin="round"/><polyline fill="none" points="47.525712989286035,-180.09919921799582 50.02571298930097,-180.76907219904868 51.85584000824856,-182.59919921795674 52.52571298935543,-185.0991992179572 51.855840008302565,-187.5991992179721 50.0257129893945,-189.4293262369197 47.52571298939404,-190.09919921802657 45.0257129893791,-189.4293262369737 43.1955859704315,-187.59919921806565 42.52571298932463,-185.0991992180652 43.1955859703775,-182.59919921805027 45.025712989285566,-180.76907219910268 47.52571298928603,-180.09919921799582" stroke="#ffa500" stroke-linecap="round" stroke-linejoin="round"/><polyline fill="none" points="-5.927053388529566,203.9617228907096 -3.4270533885146297,203.29184990965675 -1.5969263695670313,201.4617228907487 -0.9270533884601575,198.96172289074823 -1.596926369513024,196.46172289073328 -3.4270533884210863,194.6315958717857 -5.927053388421552,193.96172289067883 -8.427053388436487,194.6315958717317 -10.257180407384086,196.46172289063975 -10.927053388490961,198.9617228906402 -10.257180407438096,201.46172289065515 -8.427053388530034,203.29184990960275 -5.927053388529568,203.9617228907096" stroke="#ffa500" stroke-linecap="round" stroke-linejoin="round"/><polyline fill="none" points="187.73354506136894,-126.76516875140891 190.2335450613839,-127.43504173246177 192.0636720803315,-129.26516875136983 192.73354506143835,-131.76516875137028 192.0636720803855,-134.26516875138523 190.23354506147743,-136.09529577033283 187.73354506147697,-136.7651687514397 185.23354506146202,-136.09529577038683 183.40341804251443,-134.26516875147877 182.73354506140754,-131.7651687514783 183.4034180424604,-129.26516875146336 185.23354506136846,-127.43504173251576 187.73354506136891,-126.76516875140888" stroke="#ffa500" stroke-linecap="round" stroke-linejoin="round"/><polyline fill="none" points="73.8295773211684,-104.46610152458477 76.32957732118334,-105.13597450563763 78.15970434013094,-106.96610152454569 78.82957732123782,-109.46610152454616 78.15970434018496,-111.9661015245611 76.3295773212769,-113.7962285435087 73.82957732127643,-114.46610152461558 71.3295773212615,-113.79622854356272 69.49945030231389,-111.96610152465466 68.82957732120701,-109.46610152465419 69.49945030225987,-106.96610152463926 71.32957732116793,-105.13597450569165 73.8295773211684,-104.46610152458477" stroke="#ffa500" stroke-linecap="round" stroke-linejoin="round"/><polyline fill="none" points="53.87400257397777,-80.38173409166657 56.37400257399271,-81.05160707271943 58.20412959294032,-82.8817340916275 58.8740025740472,-85.38173409162796 58.20412959299434,-87.8817340916429 56.37400257408628,-89.7118611105905 53.87400257408582,-90.38173409169738 51.37400257407088,-89.71186111064452 49.54387555512327,-87.88173409173646 48.87400257401639,-85.38173409173599 49.54387555506925,-82.88173409172106 51.37400257397731,-81.05160707277345 53.87400257397777,-80.38173409166657" stroke="#00f" stroke-linecap="round" stroke-linejoin="round"/><polyline fill="none" points="160.56078367090169,-109.06982679481031 163.06078367091663,-109.73969977586317 164.89091068986426,-111.56982679477123 165.56078367097115,-114.0698267947717 164.8909106899183,-116.56982679478664 163.06078367101023,-118.39995381373424 160.56078367100977,-119.06982679484113 158.06078367099482,-118.39995381378827 156.2306566520472,-116.56982679488021 155.5607836709403,-114.06982679487975 156.23065665199317,-111.56982679486481 158.06078367090123,-109.7396997759172 160.56078367090169,-109.06982679481031" stroke="#00f" stroke-linecap="round" stroke-linejoin="round"/><polyline fill="none" points="-290.90704156263075,-36.386022239583795 -288.4070415626158,-37.05589522063665 -286.5769145436682,-38.88602223954471 -285.9070415625613,-41.38602223954517 -286.5769145436141,-43.88602223956011 -288.4070415625222,-45.71614925850772 -290.90704156252264,-46.386022239614604 -293.4070415625376,-45.71614925856175 -295.2371685814852,-43.88602223965369 -295.9070415625921,-41.38602223965323 -295.23716858153927,-38.88602223963829 -293.4070415626312,-37.05589522069067 -290.90704156263075,-36.38602223958378" stroke="#00f" stroke-linecap="round" stroke-linejoin="round"/><polyline fill="none" points="114.03393928916914,-102.84927979472184 116.53393928918409,-103.51915277577469 118.3640663081317,-105.34927979468274 119.03393928923859,-107.84927979468321 118.36406630818574,-110.34927979469816 116.53393928927768,-112.17940681364577 114.03393928927721,-112.84927979475266 111.53393928926226,-112.17940681369981 109.70381227031466,-110.34927979479176 109.03393928920777,-107.84927979479129 109.70381227026061,-105.34927979477634 111.53393928916867,-103.51915277582873 114.03393928916914,-102.84927979472184" stroke="#00f" stroke-linecap="round" stroke-linejoin="round"/><polyline fill="none" points="-215.77688915722413,-86.82099936883965 -213.27688915720918,-87.4908723498925 -211.44676213826156,-89.32099936880056 -210.77688915715467,-91.82099936880103 -211.44676213820753,-94.32099936881598 -213.2768891571156,-96.15112638776358 -215.77688915711605,-96.82099936887047 -218.276889157131,-96.15112638781763 -220.10701617607862,-94.32099936890957 -220.7768891571855,-91.8209993689091 -220.10701617613265,-89.32099936889415 -218.2768891572246,-87.49087234994653 -215.77688915722413,-86.82099936883964" stroke="#ffa500" stroke-linecap="round" stroke-linejoin="round"/><polyline fill="none" points="-239.35247578784833,112.71081558912593 -236.85247578783338,112.04094260807308 -235.02234876888576,110.21081558916502 -234.35247578777887,107.71081558916455 -235.02234876883173,105.2108155891496 -236.8524757877398,103.38068857020198 -239.35247578774025,102.71081558909509 -241.8524757877552,103.38068857014794 -243.68260280670282,105.210815589056 -244.3524757878097,107.71081558905647 -243.68260280675688,110.21081558907142 -241.85247578784882,112.04094260801904 -239.35247578784836,112.71081558912593" stroke="#ffa500" stroke-linecap="round" stroke-linejoin="round"/><polyline fill="none" points="-154.3799724150968,39.73864032649067 -151.87997241508185,39.06876734543782 -150.04984539613423,37.23864032652977 -149.37997241502734,34.73864032652931 -150.04984539608017,32.23864032651436 -151.87997241498823,30.40851330756674 -154.37997241498869,29.73864032645984 -156.87997241500364,30.408513307512685 -158.71009943395126,32.238640326420736 -159.37997241505815,34.7386403264212 -158.71009943400531,37.23864032643615 -156.87997241509726,39.06876734538377 -154.3799724150968,39.73864032649067" stroke="#00f" stroke-linecap="round" stroke-linejoin="round"/><polyline fill="none" points="-224.80058988967184,-21.790181969966593 -222.3005898896569,-22.460054951019437 -220.47046287070927,-24.290181969927488 -219.80058988960238,-26.790181969927954 -220.4704628706552,-29.290181969942903 -222.30058988956327,-31.120308988890525 -224.80058988956372,-31.790181969997427 -227.30058988957867,-31.120308988944583 -229.1307169085263,-29.290181970036535 -229.8005898896332,-26.79018197003607 -229.13071690858035,-24.29018197002112 -227.3005898896723,-22.4600549510735 -224.80058988967184,-21.790181969966596" stroke="#008000" stroke-linecap="round" stroke-linejoin="round"/><polyline fill="none" points="107.41130229930756,-50.23756478285162 109.91130229932251,-50.90743776390446 111.74142931827014,-52.73756478281251 112.41130229937704,-55.237564782812974 111.7414293183242,-57.737564782827924 109.91130229941615,-59.567691801775545 107.41130229941568,-60.23756478288245 104.91130229940073,-59.56769180182961 103.08117528045311,-57.73756478292157 102.4113022993462,-55.237564782921105 103.08117528039904,-52.737564782906155 104.91130229930708,-50.90743776395853 107.41130229930755,-50.23756478285162" stroke="#ffa500" stroke-linecap="round" stroke-linejoin="round"/><polyline fill="none" points="62.277825437139114,-161.7452278338546 64.77782543715406,-162.41510081490745 66.60795245610169,-164.2452278338155 67.27782543720859,-166.74522783381596 66.60795245615576,-169.2452278338309 64.77782543724771,-171.07535485277853 62.277825437247245,-171.74522783388545 59.777825437232295,-171.07535485283262 57.947698418284666,-169.24522783392456 57.27782543717776,-166.7452278339241 57.9476984182306,-164.24522783390915 59.777825437138645,-162.41510081496153 62.277825437139114,-161.7452278338546" stroke="#ffa500" stroke-linecap="round" stroke-linejoin="round"/><polyline fill="none" points="-227.72881426124206,-53.144917674171715 -225.22881426122711,-53.814790655224556 -223.3986872422795,-55.6449176741326 -222.72881426117257,-58.14491767413306 -223.3986872422254,-60.64491767414801 -225.22881426113346,-62.47504469309564 -227.72881426113392,-63.144917674202546 -230.22881426114887,-62.47504469314971 -232.0589412800965,-60.64491767424167 -232.7288142612034,-58.144917674241206 -232.05894128015058,-55.64491767422625 -230.22881426124252,-53.81479065527862 -227.72881426124206,-53.14491767417171" stroke="#00f" stroke-linecap="round" stroke-linejoin="round"/><polyline fill="none" points="95.84532596653405,-106.58009138244913 98.345325966549,-107.24996436350196 100.17545298549663,-109.08009138241 100.84532596660354,-111.58009138241047 100.1754529855507,-114.08009138242542 98.34532596664266,-115.91021840137306 95.84532596664219,-116.58009138247996 93.34532596662724,-115.91021840142713 91.51519894767961,-114.08009138251909 90.8453259665727,-111.58009138251862 91.51519894762554,-109.08009138250367 93.34532596653358,-107.24996436355603 95.84532596653405,-106.58009138244913" stroke="#00f" stroke-linecap="round" stroke-linejoin="round"/><polyline fill="none" points="79.86462398523464,-72.43567579936877 82.3646239852496,-73.1055487804216 84.19475100419723,-74.93567579932964 84.86462398530415,-77.43567579933011 84.19475100425132,-79.93567579934506 82.36462398534327,-81.7658028182927 79.8646239853428,-82.43567579939962 77.36462398532785,-81.76580281834678 75.53449696638022,-79.93567579943874 74.8646239852733,-77.43567579943827 75.53449696632613,-74.93567579942331 77.36462398523418,-73.10554878047567 79.86462398523464,-72.43567579936875" stroke="#ffa500" stroke-linecap="round" stroke-linejoin="round"/><polyline fill="none" points="-227.01700321359468,109.63044225639645 -224.51700321357973,108.96056927534362 -222.6868761946321,107.13044225643557 -222.0170032135252,104.6304422564351 -222.68687619457802,102.13044225642014 -224.51700321348605,100.3003152374725 -227.0170032134865,99.63044225636558 -229.51700321350145,100.30031523741842 -231.3471302324491,102.13044225632646 -232.01700321355602,104.63044225632693 -231.3471302325032,107.1304422563419 -229.51700321359516,108.96056927528953 -227.0170032135947,109.63044225639645" stroke="#ffa500" stroke-linecap="round" stroke-linejoin="round"/><polyline fill="none" points="-227.2466317120326,-28.920148262985144 -224.74663171201766,-29.59002124403797 -222.91650469307,-31.42014826294601 -222.2466317119631,-33.920148262946476 -222.91650469301592,-36.42014826296143 -224.74663171192395,-38.25027528190907 -227.2466317119244,-38.92014826301599 -229.74663171193936,-38.25027528196316 -231.576758730887,-36.420148263055125 -232.24663171199393,-33.920148263054664 -231.5767587309411,-31.420148263039703 -229.74663171203306,-29.590021244092064 -227.2466317120326,-28.920148262985144" stroke="#008000" stroke-linecap="round" stroke-linejoin="round"/><polyline fill="none" points="-122.60307300592892,17.61024367195369 -120.10307300591396,16.940370690900863 -118.27294598696632,15.110243671992825 -117.6030730058594,12.61024367199236 -118.27294598691222,10.110243671977399 -120.10307300582026,8.280116653029758 -122.60307300582073,7.610243671922835 -125.1030730058357,8.280116652975659 -126.93320002478333,10.110243671883696 -127.60307300589025,12.610243671884161 -126.93320002483743,15.110243671899122 -125.10307300592939,16.940370690846763 -122.60307300592892,17.610243671953686" stroke="#ffa500" stroke-linecap="round" stroke-linejoin="round"/><polyline fill="none" points="-154.35176824948329,-52.03502248781118 -151.85176824946834,-52.704895468864 -150.0216412305207,-54.53502248777204 -149.35176824941377,-57.0350224877725 -150.0216412304666,-59.535022487787465 -151.85176824937463,-61.36514950673511 -154.35176824937508,-62.035022487842035 -156.85176824939003,-61.365149506789216 -158.68189526833768,-59.53502248788118 -159.3517682494446,-57.03502248788072 -158.68189526839177,-54.53502248786575 -156.85176824948374,-52.70489546891811 -154.35176824948329,-52.03502248781118" stroke="#ffa500" stroke-linecap="round" stroke-linejoin="round"/><polyline fill="none" points="-191.79404234507288,-56.650046199063944 -189.29404234505793,-57.31991918011676 -187.46391532611028,-59.1500461990248 -186.79404234500336,-61.65004619902526 -187.4639153260562,-64.15004619904022 -189.29404234496423,-65.98017321798787 -191.79404234496468,-66.6500461990948 -194.29404234497963,-65.98017321804198 -196.12416936392728,-64.15004619913395 -196.7940423450342,-61.65004619913349 -196.1241693639814,-59.15004619911853 -194.29404234507336,-57.31991918017088 -191.7940423450729,-56.65004619906395" stroke="#00f" stroke-linecap="round" stroke-linejoin="round"/><polyline fill="none" points="5.7238680988759265,179.70608937012045 8.223868098890891,179.03621638906765 10.05399511783854,177.20608937015962 10.72386809894547,174.70608937015916 10.053995117892653,172.20608937014418 8.22386809898462,170.37596235119653 5.723868098984154,169.70608937008961 3.2238680989691884,170.37596235114242 1.3937410800215393,172.20608937005045 0.7238680989146067,174.7060893700509 1.393741079967422,177.20608937006588 3.2238680988754544,179.03621638901353 5.7238680988759185,179.70608937012045" stroke="#ffa500" stroke-linecap="round" stroke-linejoin="round"/><polyline fill="none" points="-196.15216207381556,39.897593106468285 -193.65216207380058,39.22772012541547 -191.82203505485293,37.39759310650744 -191.152162073746,34.89759310650698 -191.82203505479882,32.39759310649202 -193.65216207370685,30.567466087544368 -196.1521620737073,29.897593106437434 -198.65216207372228,30.567466087490246 -200.48228909266993,32.397593106398276 -201.15216207377688,34.89759310639874 -200.48228909272407,37.3975931064137 -198.65216207381604,39.22772012536135 -196.1521620738156,39.897593106468285" stroke="#ffa500" stroke-linecap="round" stroke-linejoin="round"/></svg>