<?xml version="1.0" ?><!DOCTYPE svg  PUBLIC '-//W3C//DTD SVG 1.1//EN'  'http://www.w3.org/Graphics/SVG/1.1/DTD/svg11.dtd'><svg height="432.000" viewBox="-325.000 -205.000 538.000 432.000" width="538.000" xmlns="http://www.w3.org/2000/svg"><line fill="none" stroke="none" stroke-linecap="round" stroke-width="2.0" x1="0.0" x2="0.0" y1="0.0" y2="0.0"/><polygon fill="none" fill-rule="evenodd" points="0.0,0.0 0.0,0.0 0.0,0.0" stroke-linejoin="round"/><polyline fill="none" points="39.24848569632174,68.45634126650606 41.74848569633686,67.7864682854535 43.57861271528477,65.9563412665456 44.248485696392,63.45634126654514 43.578612715339446,60.95634126653002 41.74848569643156,59.126214247582105 39.24848569643109,58.45634126647487 36.74848569641597,59.12621424752743 34.918358677468056,60.95634126643532 34.248485696360824,63.456341266435786 34.91835867741338,65.9563412664509 36.74848569632127,67.78646828539881 39.24848569632174,68.45634126650604" stroke="#ffa500" stroke-linecap="round" stroke-linejoin="round"/><polyline fill="none" points="30.506132726509733,50.47206814281844 33.006132726524854,49.80219516176589 34.836259745472766,47.972068142858 35.50613272658,45.47206814285753 34.83625974552744,42.97206814284241 33.006132726619555,41.1419411238945 30.506132726619086,40.472068142787265 28.006132726603965,41.14194112383982 26.176005707656053,42.97206814274771 25.506132726548817,45.47206814274818 26.176005707601373,47.9720681427633 28.006132726509257,49.80219516171121 30.506132726509726,50.47206814281844" stroke="#ffa500" stroke-linecap="round" stroke-linejoin="round"/><polyline fill="none" points="71.23336292682518,-79.37219585325828 73.7333629268403,-80.04206883431083 75.56348994578822,-81.87219585321871 76.23336292689545,-84.37219585321918 75.5634899458429,-86.8721958532343 73.73336292693502,-88.70232287218222 71.23336292693455,-89.37219585328945 68.73336292691943,-88.7023228722369 66.9032359079715,-86.87219585332902 66.23336292686427,-84.37219585332855 66.90323590791682,-81.87219585331343 68.73336292682471,-80.04206883436551 71.23336292682518,-79.37219585325828" stroke="#ffa500" stroke-linecap="round" stroke-linejoin="round"/><polyline fill="none" points="-150.01193045672517,-88.76591072452113 -147.51193045671005,-89.43578370557368 -145.68180343776214,-91.26591072448157 -145.0119304566549,-93.76591072448204 -145.68180343770746,-96.26591072449716 -147.51193045661535,-98.09603774344508 -150.01193045661583,-98.76591072455231 -152.51193045663095,-98.09603774349976 -154.34205747557886,-96.26591072459188 -155.0119304566861,-93.76591072459141 -154.34205747563354,-91.26591072457629 -152.51193045672565,-89.43578370562837 -150.01193045672517,-88.76591072452112" stroke="#ffa500" stroke-linecap="round" stroke-linejoin="round"/><polyline fill="none" points="-157.6068180271143,-16.19556492236313 -155.10681802709917,-16.86543790341568 -153.27669100815126,-18.695564922323562 -152.60681802704403,-21.19556492232403 -153.27669100809658,-23.695564922339155 -155.10681802700446,-25.525691941287075 -157.60681802700492,-26.19556492239432 -160.10681802702004,-25.52569194134177 -161.93694504596797,-23.69556492243389 -162.6068180270752,-21.19556492243342 -161.93694504602266,-18.695564922418296 -160.10681802711477,-16.865437903470376 -157.6068180271143,-16.195564922363133" stroke="#00f" stroke-linecap="round" stroke-linejoin="round"/><polyline fill="none" points="-296.05148002292185,-43.870535102292294 -293.55148002290673,-44.54040808334484 -291.7213530039588,-46.370535102252724 -291.0514800228516,-48.87053510225319 -291.72135300390414,-51.37053510226832 -293.55148002281203,-53.20066212121624 -296.0514800228125,-53.87053510232349 -298.5514800228276,-53.20066212127094 -300.3816070417755,-51.37053510236306 -301.05148002288274,-48.87053510236259 -300.3816070418302,-46.37053510234746 -298.5514800229223,-44.540408083399534 -296.05148002292185,-43.87053510229229" stroke="#00f" stroke-linecap="round" stroke-linejoin="round"/><polyline fill="none" points="170.54293907464393,-108.02487618032397 173.04293907465905,-108.69474916137652 174.87306609360698,-110.5248761802844 175.54293907471424,-113.02487618028486 174.8730660936617,-115.52487618029998 173.0429390747538,-117.3550031992479 170.54293907475335,-118.02487618035515 168.04293907473823,-117.3550031993026 166.2128120557903,-115.52487618039473 165.54293907468303,-113.02487618039426 166.21281205573558,-110.52487618037912 168.04293907464347,-108.6947491614312 170.54293907464395,-108.02487618032396" stroke="#ffa500" stroke-linecap="round" stroke-linejoin="round"/><polyline fill="none" points="70.57574262563111,-184.1632513601906 73.07574262564624,-184.83312434124315 74.90586964459418,-186.66325136015104 75.57574262570142,-189.16325136015152 74.90586964464887,-191.66325136016664 73.075742625741,-193.49337837911457 70.57574262574053,-194.16325136022184 68.0757426257254,-193.4933783791693 66.24561560677746,-191.6632513602614 65.57574262567022,-189.16325136026092 66.24561560672275,-186.6632513602458 68.07574262563062,-184.83312434129786 70.5757426256311,-184.1632513601906" stroke="#ffa500" stroke-linecap="round" stroke-linejoin="round"/><polyline fill="none" points="-299.9925288538656,-43.33666495162395 -297.4925288538505,-44.006537932676494 -295.6624018349026,-45.83666495158437 -294.99252885379536,-48.33666495158484 -295.6624018348479,-50.836664951599964 -297.4925288537558,-52.66679197054789 -299.99252885375626,-53.336664951655145 -302.4925288537714,-52.6667919706026 -304.3226558727193,-50.83666495169473 -304.9925288538265,-48.33666495169426 -304.32265587277396,-45.83666495167913 -302.4925288538661,-44.0065379327312 -299.9925288538656,-43.336664951623945" stroke="#00f" stroke-linecap="round" stroke-linejoin="round"/><polyline fill="none" points="-183.792339521339,71.98927912259805 -181.29233952132387,71.31940614154551 -179.46221250237593,69.48927912263764 -178.79233952126867,66.98927912263717 -179.46221250232122,64.48927912262204 -181.2923395212291,62.6591521036741 -183.79233952122956,61.98927912256685 -186.29233952124468,62.659152103619384 -188.12246654019262,64.48927912252726 -188.79233952129988,66.98927912252773 -188.12246654024733,69.48927912254287 -186.29233952133944,71.3194061414908 -183.792339521339,71.98927912259806" stroke="#00f" stroke-linecap="round" stroke-linejoin="round"/><polyline fill="none" points="112.59172674794397,158.8685873826256 115.0917267479591,158.19871440157306 116.92185376690703,156.36858738266517 117.5917267480143,153.86858738266469 116.92185376696176,151.36858738264957 115.09172674805389,149.53846036370163 112.59172674805342,148.86858738259437 110.09172674803828,149.5384603636469 108.26159972909035,151.36858738255475 107.59172674798309,153.86858738255523 108.26159972903562,156.36858738257035 110.0917267479435,158.1987144015183 112.59172674794397,158.86858738262555" stroke="#ffa500" stroke-linecap="round" stroke-linejoin="round"/><polyline fill="none" points="96.17429695980523,81.56135677631553 98.67429695982037,80.891483795263 100.5044239787683,79.06135677635513 101.17429695987556,76.56135677635466 100.50442397882303,74.06135677633952 98.67429695991515,72.23122975739159 96.17429695991468,71.56135677628433 93.67429695989955,72.23122975733686 91.84416994095162,74.06135677624474 91.17429695984436,76.5613567762452 91.84416994089689,79.06135677626034 93.67429695980476,80.89148379520827 96.17429695980523,81.56135677631553" stroke="#ffa500" stroke-linecap="round" stroke-linejoin="round"/><polyline fill="none" points="134.60001150006073,-135.43401934262815 137.10001150007588,-136.10389232368067 138.9301385190238,-137.93401934258853 139.60001150013107,-140.43401934258898 138.93013851907855,-142.93401934260413 137.1000115001707,-144.76414636155206 134.60001150017024,-145.43401934265933 132.1000115001551,-144.7641463616068 130.26988448120716,-142.93401934269895 129.6000115000999,-140.4340193426985 130.26988448115242,-137.93401934268334 132.10001150006028,-136.1038923237354 134.60001150006076,-135.43401934262815" stroke="#ffa500" stroke-linecap="round" stroke-linejoin="round"/><polyline fill="none" points="-100.27865666004965,-82.65406168451807 -97.77865666003451,-83.32393466557059 -95.94852964108657,-85.15406168447846 -95.2786566599793,-87.65406168447893 -95.94852964103183,-90.15406168449407 -97.7786566599397,-91.98418870344202 -100.27865665994017,-92.65406168454929 -102.7786566599553,-91.98418870349677 -104.60878367890325,-90.1540616845889 -105.27865666001053,-87.65406168458843 -104.608783678958,-85.15406168457329 -102.77865666005013,-83.32393466562534 -100.27865666004966,-82.65406168451807" stroke="#00f" stroke-linecap="round" stroke-linejoin="round"/><polyline fill="none" points="-1.5904273036729846,215.00108432491382 0.9095726963421535,214.3312113438613 2.739699715290098,212.50108432495344 3.409572696397369,210.00108432495296 2.7396997153448446,207.5010843249378 0.9095726964369772,205.67095730598987 -1.5904273035634922,205.0010843248826 -4.090427303578631,205.67095730593513 -5.920554322526576,207.501084324843 -6.590427303633849,210.00108432484348 -5.920554322581325,212.50108432485862 -4.090427303673459,214.33121134380656 -1.5904273036729895,215.00108432491382" stroke="#ffa500" stroke-linecap="round" stroke-linejoin="round"/><polyline fill="none" points="75.42685023900601,-73.95739977562259 77.92685023902115,-74.62727275667511 79.7569772579691,-76.45739977558297 80.42685023907637,-78.95739977558344 79.75697725802385,-81.45739977559857 77.92685023911599,-83.28752679454652 75.42685023911552,-83.9573997756538 72.92685023910039,-83.28752679460128 71.09672322015244,-81.45739977569342 70.42685023904517,-78.95739977569295 71.09672322009769,-76.45739977567781 72.92685023900555,-74.62727275672987 75.42685023900601,-73.95739977562259" stroke="#ffa500" stroke-linecap="round" stroke-linejoin="round"/><polyline fill="none" points="-216.01901254995101,-49.80376254529179 -213.51901254993587,-50.47363552634431 -211.6888855309879,-52.30376254525218 -211.0190125498806,-54.803762545252646 -211.68888553093313,-57.30376254526779 -213.519012549841,-59.133889564215735 -216.01901254984145,-59.80376254532301 -218.5190125498566,-59.13388956427049 -220.34913956880456,-57.30376254536262 -221.01901254991185,-54.803762545362154 -220.34913956885933,-52.30376254534701 -218.51901254995147,-50.473635526399065 -216.01901254995101,-49.80376254529178" stroke="#008000" stroke-linecap="round" stroke-linejoin="round"/><polyline fill="none" points="40.96260433574307,22.534759292926008 43.462604335758215,21.86488631187349 45.29273135470617,20.034759292965628 45.96260433581345,17.53475929296516 45.29273135476094,15.034759292950016 43.46260433585308,13.204632274002062 40.96260433585261,12.534759292894782 38.46260433583747,13.204632273947297 36.63247731688951,15.03475929285516 35.96260433578223,17.53475929285563 36.632477316834745,20.034759292870774 38.462604335742604,21.86488631181873 40.96260433574307,22.53475929292601" stroke="#ffa500" stroke-linecap="round" stroke-linejoin="round"/><polyline fill="none" points="-247.82063033975263,-74.49099335346133 -245.32063033973748,-75.16086633451386 -243.49050332078951,-76.99099335342171 -242.82063033968222,-79.49099335342218 -243.49050332073475,-81.99099335343733 -245.3206303396426,-83.8211203723853 -247.8206303396431,-84.49099335349258 -250.32063033965824,-83.82112037244008 -252.1507573586062,-81.99099335353222 -252.8206303397135,-79.49099335353175 -252.15075735866097,-76.9909933535166 -250.3206303397531,-75.16086633456864 -247.82063033975263,-74.49099335346135" stroke="#00f" stroke-linecap="round" stroke-linejoin="round"/><polyline fill="none" points="51.933343648039724,-164.6508365343754 54.43334364805487,-165.32070951542792 56.26347066700283,-167.15083653433578 56.93334364811012,-169.65083653433626 56.263470667057604,-172.1508365343514 54.433343648149744,-173.98096355329938 51.933343648149275,-174.65083653440666 49.43334364813413,-173.98096355335414 47.60321662918617,-172.15083653444628 46.93334364807888,-169.65083653444583 47.603216629131396,-167.15083653443068 49.433343648039255,-165.32070951548272 51.933343648039724,-164.65083653437543" stroke="#00f" stroke-linecap="round" stroke-linejoin="round"/><polyline fill="none" points="98.78752277539837,-46.99869755640297 101.28752277541352,-47.66857053745548 103.11764979436148,-49.49869755636334 103.78752277546877,-51.99869755636381 103.11764979441627,-54.49869755637896 101.2875227755084,-56.32882457532692 98.78752277550794,-56.99869755643421 96.28752277549279,-56.3288245753817 94.45739575654483,-54.49869755647384 93.78752277543754,-51.998697556473374 94.45739575649004,-49.498697556458225 96.2875227753979,-47.66857053751026 98.78752277539837,-46.99869755640297" stroke="#ffa500" stroke-linecap="round" stroke-linejoin="round"/><polyline fill="none" points="-97.47428783129253,47.88873658909622 -94.97428783127738,47.21886360804371 -93.14416081232942,45.38873658913585 -92.47428783122213,42.888736589135384 -93.14416081227463,40.388736589120235 -94.9742878311825,38.55860957017227 -97.47428783118296,37.88873658906498 -99.97428783119811,38.55860957011749 -101.80441485014607,40.38873658902535 -102.47428783125336,42.88873658902582 -101.80441485020086,45.38873658904097 -99.974287831293,47.21886360798893 -97.47428783129253,47.888736589096226" stroke="#ffa500" stroke-linecap="round" stroke-linejoin="round"/><polyline fill="none" points="97.11991883333688,-100.45937289969619 99.61991883335203,-101.1292458807487 101.4500458523,-102.95937289965656 102.11991883340728,-105.45937289965703 101.45004585235478,-107.95937289967218 99.61991883344692,-109.78949991862014 97.11991883344645,-110.45937289972743 94.6199188334313,-109.78949991867492 92.78979181448334,-107.95937289976706 92.11991883337605,-105.45937289976659 92.78979181442855,-102.95937289975144 94.61991883333641,-101.12924588080348 97.11991883333688,-100.45937289969619" stroke="#ffa500" stroke-linecap="round" stroke-linejoin="round"/><polyline fill="none" points="-123.59073397373582,71.78179917717114 -121.09073397372067,71.11192619611863 -119.26060695477271,69.28179917721077 -118.59073397366542,66.7817991772103 -119.26060695471793,64.28179917719515 -121.09073397362579,62.451672158247185 -123.59073397362626,61.78179917713989 -126.0907339736414,62.45167215819239 -127.92086099258937,64.28179917710024 -128.59073397369667,66.78179917710071 -127.92086099264417,69.28179917711586 -126.0907339737363,71.11192619606382 -123.59073397373584,71.78179917717112" stroke="#00f" stroke-linecap="round" stroke-linejoin="round"/><polyline fill="none" points="109.25444038404977,-79.05063719994949 111.75444038406492,-79.720510181002 113.58456740301288,-81.55063719990986 114.25444038412019,-84.05063719991033 113.5845674030677,-86.55063719992548 111.75444038415984,-88.38076421887344 109.25444038415937,-89.05063719998074 106.75444038414422,-88.38076421892825 104.92431336519624,-86.55063720002039 104.25444038408894,-84.05063720001992 104.92431336514143,-81.55063720000477 106.75444038404927,-79.7205101810568 109.25444038404974,-79.05063719994949" stroke="#00f" stroke-linecap="round" stroke-linejoin="round"/><polyline fill="none" points="172.25984665658254,-108.89357752020015 174.7598466565977,-109.56345050125265 176.58997367554565,-111.39357752016049 177.25984665665294,-113.89357752016096 176.58997367560045,-116.39357752017611 174.7598466566926,-118.22370453912409 172.2598466566921,-118.89357752023139 169.75984665667696,-118.2237045391789 167.929719637729,-116.39357752027105 167.25984665662168,-113.89357752027058 167.92971963767417,-111.39357752025543 169.75984665658203,-109.56345050130746 172.2598466565825,-108.89357752020015" stroke="#00f" stroke-linecap="round" stroke-linejoin="round"/><polyline fill="none" points="84.36982601265402,95.49999981121663 86.86982601266917,94.83012683016413 88.69995303161714,92.99999981125629 89.36982601272445,90.49999981125582 88.69995303167195,87.99999981124066 86.86982601276411,86.16987279229268 84.36982601276364,85.49999981118538 81.86982601274848,86.16987279223787 80.0396989938005,87.99999981114571 79.3698260126932,90.49999981114618 80.03969899374569,92.99999981116135 81.86982601265353,94.83012683010932 84.369826012654,95.49999981121663" stroke="#ffa500" stroke-linecap="round" stroke-linejoin="round"/><polyline fill="none" points="82.89384586690687,35.084800665049215 85.39384586692204,34.41492768399672 87.22397288587001,32.58480066508888 87.89384586697732,30.08480066508841 87.22397288592482,27.584800665073253 85.39384586701698,25.754673646125276 82.89384586701651,25.084800665017966 80.39384586700135,25.754673646070458 78.56371884805337,27.584800664978307 77.89384586694607,30.084800664978776 78.56371884799856,32.584800664993935 80.3938458669064,34.41492768394191 82.89384586690687,35.08480066504922" stroke="#ffa500" stroke-linecap="round" stroke-linejoin="round"/><polyline fill="none" points="-65.5192716866807,-68.99312902358766 -63.01927168666554,-69.66300200464015 -61.189144667717564,-71.493129023548 -60.51927168661025,-73.99312902354846 -61.189144667662745,-76.49312902356363 -63.01927168657059,-78.3232560425116 -65.51927168657106,-78.99312902361892 -68.01927168658622,-78.32325604256643 -69.8493987055342,-76.49312902365858 -70.51927168664152,-73.99312902365811 -69.84939870558902,-71.49312902364295 -68.01927168668118,-69.66300200469497 -65.51927168668071,-68.99312902358766" stroke="#ffa500" stroke-linecap="round" stroke-linejoin="round"/><polyline fill="none" points="-105.36599288561014,55.65877973929948 -102.86599288559498,54.988906758247 -101.035865866647,53.15877973933915 -100.36599288553968,50.658779739338684 -101.03586586659218,48.15877973932352 -102.86599288550002,46.32865272037554 -105.36599288550049,45.65877973926822 -107.86599288551565,46.328652720320704 -109.69611990446363,48.15877973922855 -110.36599288557095,50.65877973922902 -109.69611990451845,53.15877973924418 -107.86599288561061,54.988906758192165 -105.36599288561014,55.65877973929948" stroke="#ffa500" stroke-linecap="round" stroke-linejoin="round"/><polyline fill="none" points="-213.49627868977518,40.14850884303509 -210.99627868976003,39.4786358619826 -209.16615167081204,37.64850884307476 -208.49627868970472,35.14850884307429 -209.16615167075722,32.648508843059126 -210.99627868966505,30.818381824111142 -213.49627868966553,30.148508843003825 -215.99627868968068,30.81838182405631 -217.82640570862867,32.648508842964155 -218.496278689736,35.148508842964624 -217.8264057086835,37.64850884297979 -215.99627868977566,39.47863586192777 -213.49627868977518,40.14850884303509" stroke="#ffa500" stroke-linecap="round" stroke-linejoin="round"/><polyline fill="none" points="-34.92947200158026,-104.20733731062758 -32.429472001565095,-104.87721029168006 -30.599344982617108,-106.7073373105879 -29.929472001509787,-109.20733731058837 -30.59934498256227,-111.70733731060353 -32.42947200147011,-113.53746432955153 -34.92947200147058,-114.20733731065884 -37.42947200148574,-113.53746432960637 -39.25959902043373,-111.70733731069852 -39.92947200154105,-109.20733731069805 -39.25959902048857,-106.70733731068289 -37.42947200158073,-104.8772102917349 -34.92947200158026,-104.20733731062758" stroke="#00f" stroke-linecap="round" stroke-linejoin="round"/><polyline fill="none" points="-281.154779618481,-24.74243739081156 -278.6547796184658,-25.41231037186404 -276.82465259951783,-27.242437390771883 -276.1547796184105,-29.742437390772352 -276.824652599463,-32.242437390787515 -278.6547796183708,-34.072564409735506 -281.15477961837126,-34.74243739084283 -283.65477961838644,-34.07256440979035 -285.4849066373344,-32.242437390882515 -286.15477961844175,-29.742437390882046 -285.48490663738926,-27.242437390866883 -283.6547796184814,-25.412310371918892 -281.154779618481,-24.742437390811567" stroke="#ffa500" stroke-linecap="round" stroke-linejoin="round"/><polyline fill="none" points="-193.64231450689817,100.57087569226024 -191.142314506883,99.90100271120777 -189.312187487935,98.07087569229992 -188.6423145068277,95.57087569229945 -189.31218748788015,93.07087569228429 -191.14231450678798,91.2407486733363 -193.64231450678847,90.57087569222897 -196.14231450680364,91.24074867328144 -197.97244152575163,93.07087569218929 -198.64231450685895,95.57087569218976 -197.9724415258065,98.07087569220492 -196.14231450689866,99.90100271115291 -193.64231450689817,100.57087569226024" stroke="#ffa500" stroke-linecap="round" stroke-linejoin="round"/><polyline fill="none" points="156.72243047672504,159.07674556940424 159.22243047674021,158.40687258835177 161.0525574956882,156.57674556944394 161.72243047679552,154.07674556944346 161.05255749574306,151.57674556942828 159.22243047683523,149.7466185504803 156.72243047683475,149.07674556937297 154.22243047681957,149.74661855042544 152.39230345787158,151.57674556933327 151.72243047676426,154.07674556933375 152.39230345781672,156.57674556934893 154.22243047672455,158.40687258829692 156.72243047672504,159.07674556940424" stroke="#ffa500" stroke-linecap="round" stroke-linejoin="round"/><polyline fill="none" points="-226.2409556532093,-36.03632580153263 -223.74095565319413,-36.7061987825851 -221.91082863424614,-38.536325801492936 -221.24095565313883,-41.036325801493405 -221.9108286341913,-43.536325801508575 -223.74095565309912,-45.36645282045657 -226.24095565309958,-46.036325801563905 -228.74095565311475,-45.366452820511434 -230.57108267206274,-43.536325801603596 -231.24095565317006,-41.03632580160313 -230.5710826721176,-38.53632580158796 -228.74095565320977,-36.70619878263996 -226.2409556532093,-36.03632580153263" stroke="#f00" stroke-linecap="round" stroke-linejoin="round"/><polyline fill="none" points="114.61241301697478,-117.77881707582465 117.11241301698995,-118.44869005687713 118.94254003593795,-120.27881707578496 119.61241301704528,-122.77881707578543 118.94254003599282,-125.27881707580059 117.11241301708499,-127.1089440947486 114.61241301708452,-127.77881707585593 112.11241301706936,-127.10894409480346 110.28228599812135,-125.27881707589563 109.61241301701402,-122.77881707589516 110.28228599806648,-120.27881707588 112.11241301697432,-118.448690056932 114.61241301697478,-117.77881707582466" stroke="#ffa500" stroke-linecap="round" stroke-linejoin="round"/><polyline fill="none" points="141.2351876721182,-110.3313291076455 143.73518767213338,-111.00120208869797 145.56531469108137,-112.8313291076058 146.23518767218872,-115.33132910760627 145.56531469113625,-117.83132910762144 143.73518767222842,-119.66145612656945 141.23518767222794,-120.33132910767678 138.73518767221276,-119.66145612662432 136.90506065326477,-117.83132910771648 136.23518767215742,-115.33132910771602 136.9050606532099,-112.83132910770084 138.73518767211772,-111.00120208875283 141.2351876721182,-110.3313291076455" stroke="#ffa500" stroke-linecap="round" stroke-linejoin="round"/><polyline fill="none" points="195.84282524540603,-90.86833574078976 198.3428252454212,-91.53820872184222 200.1729522643692,-93.36833574075006 200.84282524547655,-95.86833574075052 200.17295226442408,-98.3683357407657 198.34282524551625,-100.1984627597137 195.84282524551577,-100.86833574082105 193.3428252455006,-100.19846275976859 191.51269822655257,-98.36833574086076 190.84282524544523,-95.86833574086029 191.5126982264977,-93.36833574084511 193.34282524540552,-91.5382087218971 195.842825245406,-90.86833574078976" stroke="#ffa500" stroke-linecap="round" stroke-linejoin="round"/><polyline fill="none" points="-215.34918389955436,-5.954621397009429 -212.84918389953918,-6.624494378061893 -211.01905688059117,-8.454621396969726 -210.34918389948382,-10.954621396970197 -211.01905688053628,-13.45462139698537 -212.8491838994441,-15.284748415933377 -215.3491838994446,-15.95462139704072 -217.84918389945977,-15.284748415988256 -219.6793109184078,-13.454621397080423 -220.34918389951514,-10.954621397079952 -219.67931091846268,-8.454621397064777 -217.84918389955484,-6.624494378116769 -215.34918389955436,-5.954621397009426" stroke="#00f" stroke-linecap="round" stroke-linejoin="round"/><polyline fill="none" points="40.99301842105302,-146.66409761418657 43.4930184210682,-147.33397059523904 45.323145440016205,-149.16409761414687 45.99301842112355,-151.66409761414735 45.32314544007109,-154.16409761416253 43.49301842116326,-155.99422463311055 40.99301842116279,-156.6640976142179 38.49301842114761,-155.99422463316543 36.6628914021996,-154.1640976142576 35.99301842109225,-151.66409761425712 36.66289140214471,-149.16409761424194 38.49301842105254,-147.33397059529392 40.99301842105301,-146.66409761418657" stroke="#ffa500" stroke-linecap="round" stroke-linejoin="round"/><polyline fill="none" points="54.73610706054942,-62.64318909528015 57.2361070605646,-63.313062076332606 59.06623407951261,-65.14318909524043 59.73610706061996,-67.6431890952409 59.0662340795675,-70.14318909525608 57.23610706065967,-71.97331611420408 54.7361070606592,-72.64318909531143 52.236107060644024,-71.97331611425896 50.40598004169601,-70.14318909535113 49.736107060588665,-67.64318909535066 50.40598004164112,-65.14318909533549 52.23610706054895,-63.313062076387475 54.73610706054942,-62.64318909528013" stroke="#ffa500" stroke-linecap="round" stroke-linejoin="round"/><polyline fill="none" points="150.0393027293079,130.6061039872182 152.53930272932308,129.93623100616574 154.3694297482711,128.1061039872579 155.03930272937845,125.60610398725744 154.36942974832598,123.10610398724226 152.53930272941815,121.27597696829424 150.03930272941767,120.6061039871869 147.5393027294025,121.27597696823935 145.70917571045447,123.10610398714718 145.03930272934713,125.60610398714765 145.7091757103996,128.10610398716284 147.53930272930742,129.93623100611086 150.0393027293079,130.6061039872182" stroke="#ffa500" stroke-linecap="round" stroke-linejoin="round"/><polyline fill="none" points="48.63554316804864,195.79006156248656 51.13554316806382,195.1201885814341 52.96567018701183,193.29006156252626 53.635543168119185,190.79006156252578 52.96567018706673,188.2900615625106 51.1355431681589,186.45993454356258 48.63554316815843,185.79006156245524 46.13554316814324,186.4599345435077 44.305416149195224,188.29006156241553 43.63554316808787,190.790061562416 44.30541614914033,193.2900615624312 46.13554316804816,195.1201885813792 48.63554316804863,195.79006156248656" stroke="#ffa500" stroke-linecap="round" stroke-linejoin="round"/><polyline fill="none" points="-179.86232149131226,-70.87723571698612 -177.36232149129708,-71.54710869803857 -175.53219447234906,-73.3772357169464 -174.86232149124172,-75.87723571694687 -175.53219447229418,-78.37723571696205 -177.362321491202,-80.20736273591007 -179.8623214912025,-80.87723571701743 -182.36232149121767,-80.20736273596498 -184.1924485101657,-78.37723571705715 -184.86232149127304,-75.87723571705668 -184.19244851022057,-73.3772357170415 -182.36232149131274,-71.54710869809348 -179.86232149131226,-70.87723571698612" stroke="#00f" stroke-linecap="round" stroke-linejoin="round"/><polyline fill="none" points="-226.91283724048984,96.4942335277586 -224.41283724047466,95.82436054670615 -222.58271022152664,93.99423352779831 -221.9128372404193,91.49423352779785 -222.58271022147176,88.99423352778265 -224.4128372403796,87.16410650883464 -226.91283724038007,86.49423352772727 -229.41283724039525,87.16410650877972 -231.24296425934327,88.99423352768756 -231.9128372404506,91.49423352768802 -231.24296425939818,93.99423352770322 -229.41283724049035,95.82436054665123 -226.91283724048986,96.4942335277586" stroke="#00f" stroke-linecap="round" stroke-linejoin="round"/><polyline fill="none" points="146.43446689722165,155.09153372900553 148.93446689723683,154.4216607479531 150.76459391618485,152.59153372904527 151.43446689729222,150.09153372904478 150.7645939162398,147.5915337290296 148.93446689733196,145.7614067100816 146.43446689733148,145.0915337289742 143.9344668973163,145.76140671002665 142.10433987836828,147.59153372893448 141.4344668972609,150.09153372893496 142.10433987831334,152.59153372895014 143.93446689722117,154.42166074789816 146.43446689722165,155.09153372900553" stroke="#ffa500" stroke-linecap="round" stroke-linejoin="round"/><polyline fill="none" points="-200.85305485008269,28.83978495216156 -198.3530548500675,28.169911971109112 -196.5229278311195,26.33978495220129 -195.85305485001211,23.839784952200816 -196.52292783106455,21.339784952185628 -198.35305484997238,19.5096579332376 -200.85305484997286,18.839784952130238 -203.35305484998804,19.50965793318268 -205.18318186893606,21.339784952090504 -205.85305485004343,23.839784952090977 -205.183181868991,26.339784952106164 -203.35305485008317,28.169911971054194 -200.85305485008269,28.839784952161562" stroke="#ffa500" stroke-linecap="round" stroke-linejoin="round"/><polyline fill="none" points="-138.5368608877694,-64.74929523458148 -136.03686088775422,-65.41916821563393 -134.2067338688062,-67.24929523454175 -133.53686088769882,-69.74929523454222 -134.20673386875126,-72.24929523455741 -136.0368608876591,-74.07942225350544 -138.53686088765957,-74.74929523461282 -141.03686088767475,-74.07942225356038 -142.86698790662277,-72.24929523465256 -143.53686088773014,-69.7492952346521 -142.8669879066777,-67.2492952346369 -141.03686088776988,-65.41916821568887 -138.5368608877694,-64.7492952345815" stroke="#00f" stroke-linecap="round" stroke-linejoin="round"/><polyline fill="none" points="129.68062550736235,-53.610968854974175 132.18062550737753,-54.28084183602662 134.01075252632555,-56.11096885493444 134.68062550743292,-58.61096885493491 134.0107525263805,-61.1109688549501 132.18062550747266,-62.941095873898135 129.68062550747217,-63.6109688550055 127.18062550745698,-62.94109587395306 125.35049848850895,-61.11096885504524 124.68062550740157,-58.610968855044774 125.35049848845401,-56.11096885502958 127.18062550736182,-54.28084183608155 129.6806255073623,-53.610968854974175" stroke="#ffa500" stroke-linecap="round" stroke-linejoin="round"/><polyline fill="none" points="36.19879835639507,34.12181165579524 38.698798356410265,33.451938674742806 40.5289253753583,31.621811655834986 41.19879835646567,29.121811655834513 40.52892537541324,26.62181165581932 38.69879835650542,24.791684636871288 36.19879835650495,24.121811655763914 33.69879835648976,24.79168463681635 31.868671337541727,26.621811655724166 31.198798356434352,29.12181165572464 31.868671337486788,31.62181165573983 33.698798356394605,33.45193867468787 36.19879835639507,34.12181165579524" stroke="#00f" stroke-linecap="round" stroke-linejoin="round"/><polyline fill="none" points="63.573634874217056,115.72559586416054 66.07363487423225,115.0557228831081 67.90376189318029,113.22559586420029 68.57363487428766,110.72559586419982 67.90376189323523,108.22559586418463 66.07363487432741,106.39546884523659 63.57363487432694,105.72559586412922 61.07363487431175,106.39546884518165 59.24350785536371,108.22559586408947 58.573634874256335,110.72559586408994 59.24350785530877,113.22559586410513 61.07363487421659,115.05572288305316 63.573634874217056,115.72559586416054" stroke="#ffa500" stroke-linecap="round" stroke-linejoin="round"/><polyline fill="none" points="-225.51234981099583,-100.08258338959422 -223.01234981098062,-100.75245637064666 -221.18222279203258,-102.58258338955447 -220.5123498109252,-105.08258338955494 -221.18222279197764,-107.58258338957013 -223.01234981088544,-109.41271040851817 -225.51234981088592,-110.08258338962554 -228.01234981090113,-109.4127104085731 -229.84247682984918,-107.58258338966529 -230.51234981095655,-105.08258338966482 -229.84247682990411,-102.58258338964963 -228.0123498109963,-100.7524563707016 -225.51234981099583,-100.08258338959422" stroke="#ffa500" stroke-linecap="round" stroke-linejoin="round"/><polyline fill="none" points="-85.73264565316278,-83.1437781158891 -83.23264565314759,-83.81365109694154 -81.40251863419954,-85.64377811584936 -80.73264565309216,-88.14377811584983 -81.4025186341446,-90.64377811586502 -83.23264565305242,-92.47390513481307 -85.73264565305288,-93.14377811592044 -88.23264565306808,-92.473905134868 -90.06277267201612,-90.64377811596019 -90.73264565312351,-88.14377811595972 -90.06277267207108,-85.64377811594453 -88.23264565316326,-83.81365109699648 -85.73264565316279,-83.14377811588909" stroke="#ffa500" stroke-linecap="round" stroke-linejoin="round"/><polyline fill="none" points="-158.26533384158543,22.387098036217274 -155.76533384157023,21.717225055164846 -153.93520682262218,19.88709803625703 -153.2653338415148,17.387098036256557 -153.93520682256724,14.887098036241358 -155.76533384147504,13.056971017293314 -158.26533384147552,12.38709803618593 -160.76533384149073,13.056971017238359 -162.59546086043878,14.887098036146174 -163.26533384154615,17.387098036146647 -162.59546086049372,19.887098036161845 -160.7653338415859,21.71722505510989 -158.26533384158543,22.387098036217274" stroke="#ffa500" stroke-linecap="round" stroke-linejoin="round"/><polyline fill="none" points="48.89612204866383,95.1494895144575 51.396122048679025,94.47961653340508 53.22624906762707,92.64948951449726 53.89612204873446,90.14948951449679 53.22624906768203,87.64948951448159 51.39612204877422,85.81936249553354 48.89612204877374,85.14948951442615 46.39612204875854,85.81936249547857 44.565995029810495,87.64948951438639 43.896122048703106,90.14948951438686 44.565995029755534,92.64948951440206 46.396122048663344,94.47961653335011 48.89612204866382,95.1494895144575" stroke="#00f" stroke-linecap="round" stroke-linejoin="round"/><polyline fill="none" points="-20.819312211132406,178.90886369360405 -18.319312211117204,178.2389907125516 -16.489185192169156,176.4088636936438 -15.819312211061767,173.90886369364333 -16.489185192114192,171.40886369362812 -18.319312211022005,169.57873667468007 -20.819312211022478,168.90886369357267 -23.31931221103768,169.5787366746251 -25.14943922998573,171.4088636935329 -25.81931221109312,173.9088636935334 -25.1494392300407,176.4088636935486 -23.31931221113289,178.23899071249664 -20.819312211132416,178.90886369360405" stroke="#ffa500" stroke-linecap="round" stroke-linejoin="round"/><polyline fill="none" points="-128.40040212807008,7.751618534091568 -125.90040212805488,7.081745553039145 -124.07027510910683,5.2516185341313335 -123.40040212799944,2.7516185341308597 -124.07027510905186,0.25161853411565716 -125.90040212795968,-1.5785084848323945 -128.40040212796015,-2.248381465939787 -130.90040212797535,-1.5785084848873656 -132.7305291469234,0.25161853402044465 -133.4004021280308,2.7516185340209187 -132.7305291469784,5.2516185340361226 -130.9004021280706,7.0817455529841755 -128.4004021280701,7.75161853409157" stroke="#00f" stroke-linecap="round" stroke-linejoin="round"/><polyline fill="none" points="-119.71630319365268,78.41819644556949 -117.21630319363747,77.74832346451707 -115.38617617468942,75.91819644560925 -114.71630319358204,73.41819644560879 -115.38617617463446,70.91819644559358 -117.21630319354226,69.08806942664553 -119.71630319354273,68.41819644553814 -122.21630319355793,69.08806942659056 -124.04643021250598,70.91819644549837 -124.71630319361337,73.41819644549884 -124.04643021256095,75.91819644551404 -122.21630319365315,77.7483234644621 -119.71630319365268,78.4181964455695" stroke="#ffa500" stroke-linecap="round" stroke-linejoin="round"/><polyline fill="none" points="52.048187879420865,25.962948927241175 54.54818787943607,25.293075946188758 56.378314898384126,23.462948927280948 57.04818787949152,20.962948927280475 56.37831489843911,18.46294892726527 54.5481878795313,16.63282190831721 52.04818787953082,15.962948927209814 49.548187879515616,16.63282190826223 47.71806086056756,18.462948927170036 47.048187879460166,20.96294892717051 47.71806086051258,23.462948927185714 49.54818787942039,25.293075946133772 52.048187879420865,25.96294892724117" stroke="#ffa500" stroke-linecap="round" stroke-linejoin="round"/><polyline fill="none" points="-186.61462137671086,-58.23886695691453 -184.11462137669565,-58.90873993796694 -182.2844943577476,-60.73886695687475 -181.6146213766402,-63.23886695687523 -182.2844943576926,-65.73886695689043 -184.1146213766004,-67.5689939758385 -186.6146213766009,-68.2388669569459 -189.1146213766161,-67.56899397589348 -190.94474839556415,-65.73886695698567 -191.61462137667155,-63.2388669569852 -190.94474839561914,-60.73886695696999 -189.11462137671134,-58.90873993802193 -186.61462137671086,-58.23886695691453" stroke="#008000" stroke-linecap="round" stroke-linejoin="round"/><polyline fill="none" points="-181.7849743997551,-62.59316071297751 -179.2849743997399,-63.26303369402992 -177.45484738079185,-65.09316071293773 -176.78497439968444,-67.5931607129382 -177.45484738073685,-70.0931607129534 -179.28497439964465,-71.92328773190147 -181.78497439964514,-72.59316071300887 -184.28497439966034,-71.92328773195646 -186.1151014186084,-70.09316071304866 -186.7849743997158,-67.59316071304819 -186.1151014186634,-65.09316071303299 -184.28497439975558,-63.263033694084925 -181.7849743997551,-62.59316071297752" stroke="#00f" stroke-linecap="round" stroke-linejoin="round"/><polyline fill="none" points="19.37096954770954,201.94434758104788 21.870969547724748,201.27447459999547 23.70109656667281,199.44434758108767 24.370969547780216,196.9443475810872 23.701096566727806,194.44434758107198 21.870969547820003,192.6142205621239 19.37096954781953,191.9443475810165 16.87096954780432,192.6142205620689 15.040842528856258,194.4443475809767 14.370969547748851,196.9443475809772 15.04084252880126,199.4443475809924 16.870969547709063,201.27447459994048 19.370969547709535,201.94434758104788" stroke="#00f" stroke-linecap="round" stroke-linejoin="round"/><polyline fill="none" points="-206.41173637448085,19.645883856575814 -203.91173637446565,18.976010875523407 -202.08160935551757,17.145883856615605 -201.41173637441017,14.64588385661513 -202.08160935546258,12.14588385659992 -203.91173637437038,10.315756837651854 -206.41173637437086,9.645883856544446 -208.91173637438607,10.315756837596853 -210.74186339333414,12.145883856504655 -211.41173637444155,14.64588385650513 -210.74186339338914,17.145883856520342 -208.91173637448134,18.976010875468408 -206.41173637448085,19.645883856575818" stroke="#00f" stroke-linecap="round" stroke-linejoin="round"/><polyline fill="none" points="130.4240761182504,167.01195915272848 132.92407611826562,166.34208617167607 134.7542031372137,164.51195915276827 135.4240761183211,162.0119591527678 134.7542031372687,159.51195915275258 132.9240761183609,157.6818321338045 130.4240761183604,157.0119591526971 127.9240761183452,157.6818321337495 126.09394909939714,159.5119591526573 125.42407611828972,162.0119591526578 126.09394909934213,164.511959152673 127.92407611824993,166.34208617162108 130.4240761182504,167.01195915272848" stroke="#ffa500" stroke-linecap="round" stroke-linejoin="round"/><polyline fill="none" points="-138.90791889966653,-19.75568873167473 -136.40791889965132,-20.425561712727134 -134.57779188070324,-22.255688731634933 -133.90791889959584,-24.755688731635406 -134.57779188064825,-27.25568873165062 -136.40791889955605,-29.085815750598687 -138.90791889955653,-29.7556887317061 -141.40791889957174,-29.085815750653698 -143.23804591851982,-27.2556887317459 -143.90791889962722,-24.755688731745426 -143.2380459185748,-22.255688731730213 -141.407918899667,-20.42556171278214 -138.90791889966653,-19.755688731674727" stroke="#ffa500" stroke-linecap="round" stroke-linejoin="round"/><polyline fill="none" points="134.78148053510233,-83.49498657260372 137.28148053511754,-84.16485955365613 139.1116075540656,-85.99498657256393 139.78148053517302,-88.4949865725644 139.1116075541206,-90.99498657257962 137.2814805352128,-92.8251135915277 134.78148053521232,-93.49498657263511 132.28148053519712,-92.8251135915827 130.45135351624904,-90.9949865726749 129.78148053514164,-88.49498657267443 130.45135351619405,-85.99498657265922 132.28148053510185,-84.16485955371114 134.78148053510233,-83.49498657260372" stroke="#ffa500" stroke-linecap="round" stroke-linejoin="round"/><polyline fill="none" points="-147.66740343955996,118.00882057380545 -145.16740343954476,117.33894759275306 -143.33727642059668,115.50882057384526 -142.66740343948925,113.00882057384479 -143.33727642054166,110.50882057382957 -145.16740343944946,108.67869355488149 -147.66740343944994,108.00882057377407 -150.16740343946515,108.67869355482647 -151.99753045841322,110.50882057373427 -152.66740343952065,113.00882057373474 -151.99753045846825,115.50882057374996 -150.16740343956045,117.33894759269803 -147.66740343955996,118.00882057380545" stroke="#ffa500" stroke-linecap="round" stroke-linejoin="round"/><polyline fill="none" points="76.19169346567816,-42.81258420645949 78.69169346569338,-43.48245718751189 80.52182048464145,-45.312584206419686 81.19169346574887,-47.81258420642016 80.52182048469648,-50.31258420643538 78.69169346578867,-52.14271122538346 76.1916934657882,-52.81258420649088 73.69169346577299,-52.14271122543849 71.86156644682491,-50.312584206530694 71.19169346571749,-47.81258420653022 71.86156644676988,-45.312584206515 73.69169346567767,-43.48245718756692 76.19169346567814,-42.8125842064595" stroke="#ffa500" stroke-linecap="round" stroke-linejoin="round"/><polyline fill="none" points="-238.79991440568435,-36.63654967270477 -236.29991440566914,-37.30642265375716 -234.46978738672107,-39.136549672664955 -233.79991440561363,-41.63654967266543 -234.46978738666604,-44.13654967268065 -236.29991440557384,-45.96667669162873 -238.79991440557433,-46.63654967273615 -241.29991440558953,-45.96667669168376 -243.1300414245376,-44.13654967277596 -243.79991440564504,-41.63654967277549 -243.13004142459263,-39.13654967276027 -241.29991440568483,-37.306422653812184 -238.79991440568435,-36.63654967270476" stroke="#008000" stroke-linecap="round" stroke-linejoin="round"/><polyline fill="none" points="-149.57545339996977,74.81624176359996 -147.07545339995454,74.14636878254757 -145.24532638100646,72.31624176363978 -144.57545339989903,69.81624176363931 -145.2453263809514,67.31624176362409 -147.0754533998592,65.48611474467602 -149.5754533998597,64.81624176356858 -152.07545339987493,65.48611474462098 -153.905580418823,67.31624176352877 -154.57545339993044,69.81624176352923 -153.90558041887806,72.31624176354445 -152.07545339997026,74.14636878249253 -149.57545339996977,74.81624176359996" stroke="#00f" stroke-linecap="round" stroke-linejoin="round"/><polyline fill="none" points="-110.82004979866115,0.9323050953130219 -108.32004979864593,0.26243211426063195 -106.48992277969784,-1.5676949046471602 -105.8200497985904,-4.0676949046476345 -106.4899227796428,-6.567694904662856 -108.32004979855058,-8.397821923610941 -110.82004979855105,-9.06769490471837 -113.32004979856627,-8.397821923665981 -115.15017681751436,-6.56769490475819 -115.8200497986218,-4.067694904757715 -115.1501768175694,-1.5676949047424928 -113.32004979866161,0.262432114205593 -110.82004979866115,0.9323050953130246" stroke="#ffa500" stroke-linecap="round" stroke-linejoin="round"/><polyline fill="none" points="114.84190457240847,149.0715928125474 117.34190457242369,148.40171983149503 119.17203159137178,146.57159281258723 119.84190457247921,144.07159281258674 119.17203159142682,141.5715928125715 117.34190457251903,139.74146579362343 114.84190457251856,139.071592812516 112.34190457250334,139.74146579356838 110.51177755355525,141.57159281247618 109.84190457244782,144.07159281247667 110.5117775535002,146.5715928124919 112.34190457240798,148.40171983143998 114.84190457240845,149.0715928125474" stroke="#00f" stroke-linecap="round" stroke-linejoin="round"/><polyline fill="none" points="-308.5582516899202,-46.31084676680846 -306.058251689905,-46.980719747860846 -304.2281246709569,-48.810846766768634 -303.55825168984944,-51.31084676676911 -304.2281246709018,-53.81084676678434 -306.0582516898096,-55.64097378573243 -308.55825168981005,-56.310846766839866 -311.0582516898253,-55.64097378578748 -312.88837870877336,-53.81084676687969 -313.5582516898808,-51.310846766879216 -312.88837870882844,-48.81084676686399 -311.05825168992067,-46.9807197479159 -308.5582516899202,-46.31084676680846" stroke="#ffa500" stroke-linecap="round" stroke-linejoin="round"/><polyline fill="none" points="-156.7226641267844,101.59603766076756 -154.22266412676916,100.92616467971519 -152.39253710782106,99.0960376608074 -151.72266412671362,96.59603766080693 -152.392537107766,94.09603766079171 -154.22266412667378,92.26591064184362 -156.72266412667426,91.59603766073619 -159.2226641266895,92.26591064178857 -161.0527911456376,94.09603766069635 -161.72266412674503,96.59603766069682 -161.05279114569265,99.09603766071204 -159.22266412678488,100.92616467966013 -156.7226641267844,101.59603766076758" stroke="#ffa500" stroke-linecap="round" stroke-linejoin="round"/><polyline fill="none" points="-252.40738492701868,107.89047986500377 -249.90738492700345,107.22060688395139 -248.07725790805534,105.3904798650436 -247.4073849269479,102.89047986504313 -248.0772579080003,100.39047986502791 -249.90738492690807,98.56035284607982 -252.40738492690855,97.89047986497238 -254.90738492692378,98.56035284602476 -256.73751194587186,100.39047986493254 -257.4073849269793,102.89047986493301 -256.73751194592694,105.39047986494825 -254.90738492701917,107.22060688389634 -252.40738492701868,107.89047986500378" stroke="#ffa500" stroke-linecap="round" stroke-linejoin="round"/><polyline fill="none" points="-187.8366086872073,-52.010546459247095 -185.33660868719207,-52.680419440299474 -183.50648166824396,-54.51054645920726 -182.83660868713653,-57.01054645920774 -183.5064816681889,-59.510546459222965 -185.33660868709669,-61.34067347817106 -187.83660868709717,-62.01054645927851 -190.3366086871124,-61.34067347822613 -192.1667357060605,-59.51054645931835 -192.83660868716794,-57.01054645931787 -192.16673570611556,-54.510546459302645 -190.3366086872078,-52.68041944035455 -187.8366086872073,-52.0105464592471" stroke="#008000" stroke-linecap="round" stroke-linejoin="round"/><polyline fill="none" points="-279.1870906189291,-59.83492679552471 -276.6870906189139,-60.50479977657709 -274.8569635999658,-62.33492679548487 -274.18709061885835,-64.83492679548534 -274.8569635999107,-67.33492679550058 -276.6870906188185,-69.16505381444868 -279.18709061881896,-69.83492679555613 -281.6870906188342,-69.16505381450375 -283.51721763778227,-67.33492679559596 -284.1870906188897,-64.83492679559549 -283.51721763783735,-62.33492679558026 -281.6870906189296,-60.50479977663216 -279.1870906189291,-59.834926795524716" stroke="#ffa500" stroke-linecap="round" stroke-linejoin="round"/><polyline fill="none" points="-195.6241653974525,-58.63619866447273 -193.12416539743725,-59.3060716455251 -191.29403837848915,-61.13619866443288 -190.6241653973817,-63.63619866443336 -191.29403837843407,-66.13619866444859 -193.12416539734184,-67.96632568339669 -195.62416539734232,-68.63619866450414 -198.12416539735756,-67.96632568345176 -199.95429241630566,-66.13619866454397 -200.62416539741312,-63.63619866454349 -199.95429241636074,-61.13619866452826 -198.12416539745297,-59.306071645580154 -195.6241653974525,-58.6361986644727" stroke="#00f" stroke-linecap="round" stroke-linejoin="round"/><polyline fill="none" points="70.84181559055004,-101.53162646662246 73.34181559056528,-102.20149944767482 75.17194260951338,-104.03162646658261 75.84181559062083,-106.53162646658308 75.17194260956846,-109.03162646659831 73.34181559066069,-110.86175348554642 70.84181559066022,-111.53162646665386 68.34181559064498,-110.8617534856015 66.51168857169688,-109.03162646669372 65.84181559058943,-106.53162646669325 66.5116885716418,-104.03162646667802 68.34181559054957,-102.20149944772992 70.84181559055004,-101.53162646662246" stroke="#00f" stroke-linecap="round" stroke-linejoin="round"/><polyline fill="none" points="-259.4150596831415,-21.376219797750927 -256.9150596831263,-22.046092778803295 -255.08493266417818,-23.876219797711077 -254.41505968307072,-26.37621979771155 -255.0849326641231,-28.876219797726783 -256.9150596830309,-30.706346816674888 -259.41505968303136,-31.376219797782344 -261.9150596830466,-30.706346816729976 -263.7451867019947,-28.8762197978222 -264.4150596831022,-26.376219797821726 -263.7451867020498,-23.876219797806492 -261.91505968314203,-22.046092778858384 -259.4150596831416,-21.376219797750927" stroke="#00f" stroke-linecap="round" stroke-linejoin="round"/><polyline fill="none" points="57.39436829076641,97.08597587278331 59.89436829078164,96.41610289173094 61.72449530972975,94.58597587282317 62.39436829083721,92.0859758728227 61.72449530978484,89.58597587280747 59.89436829087706,87.75584885385936 57.394368290876585,87.0859758727519 54.89436829086135,87.75584885380427 53.06424127191324,89.58597587271204 52.39436829080578,92.08597587271251 53.064241271858144,94.58597587272774 54.894368290765925,96.41610289167585 57.3943682907664,97.08597587278331" stroke="#ffa500" stroke-linecap="round" stroke-linejoin="round"/><polyline fill="none" points="-198.78616823962003,28.734893965828245 -196.2861682396048,28.06502098477588 -194.4560412206567,26.234893965868103 -193.78616823954923,23.73489396586763 -194.45604122060158,21.234893965852393 -196.28616823950935,19.40476694690428 -198.78616823950983,18.73489396579682 -201.28616823952507,19.404766946849186 -203.11629525847317,21.234893965756964 -203.78616823958063,23.734893965757436 -203.11629525852828,26.234893965772674 -201.2861682396205,28.065020984720785 -198.78616823962003,28.734893965828245" stroke="#008000" stroke-linecap="round" stroke-linejoin="round"/><polyline fill="none" points="66.83326869346241,48.77114113069517 69.33326869347765,48.101268149642806 71.16339571242577,46.27114113073503 71.83326869353323,43.771141130734556 71.16339571248086,41.271141130719315 69.33326869357309,39.4410141117712 66.83326869357262,38.77114113066374 64.33326869355739,39.4410141117161 62.503141674609275,41.271141130623874 61.83326869350181,43.77114113062435 62.503141674554165,46.27114113063959 64.33326869346195,48.1012681495877 66.83326869346241,48.77114113069517" stroke="#ffa500" stroke-linecap="round" stroke-linejoin="round"/><polyline fill="none" points="49.42724074324918,-179.6028320966094 51.92724074326442,-180.27270507766175 53.75736776221253,-182.10283209656953 54.42724074332,-184.60283209657 53.75736776226764,-187.10283209658525 51.92724074335987,-188.93295911553335 49.42724074335939,-189.6028320966408 46.92724074334415,-188.93295911558846 45.09711372439603,-187.1028320966807 44.427240743288564,-184.6028320966802 45.09711372434092,-182.10283209666497 46.927240743248696,-180.27270507771686 49.42724074324917,-179.6028320966094" stroke="#ffa500" stroke-linecap="round" stroke-linejoin="round"/><polyline fill="none" points="-4.806717120129324,204.63167856325654 -2.306717120114084,203.9618055822042 -0.47659010116596723,202.13167856329642 0.19328287994150017,199.63167856329594 -0.4765901011108563,197.1316785632807 -2.306717120018629,195.3015515443326 -4.806717120019103,194.63167856322514 -7.306717120034344,195.3015515442775 -9.136844138982463,197.13167856318526 -9.806717120089932,199.63167856318574 -9.136844139037576,202.13167856320098 -7.306717120129804,203.96180558214908 -4.80671712012933,204.63167856325654" stroke="#ffa500" stroke-linecap="round" stroke-linejoin="round"/><polyline fill="none" points="188.07150561375718,-125.90339906927969 190.57150561377242,-126.57327205033204 192.40163263272052,-128.4033990692398 193.07150561382798,-130.9033990692403 192.40163263277563,-133.40339906925553 190.57150561386786,-135.23352608820366 188.07150561386737,-135.90339906931112 185.57150561385214,-135.23352608825877 183.741378594904,-133.403399069351 183.07150561379655,-130.9033990693505 183.7413785948489,-128.40339906933528 185.57150561375667,-126.57327205038716 188.07150561375715,-125.90339906927969" stroke="#ffa500" stroke-linecap="round" stroke-linejoin="round"/><polyline fill="none" points="75.166452374521,-104.97498748552813 77.66645237453625,-105.64486046658048 79.49657939348437,-107.47498748548826 80.16645237459184,-109.97498748548873 79.49657939353949,-112.47498748550397 77.66645237463172,-114.30511450445209 75.16645237463125,-114.97498748555957 72.666452374616,-114.30511450450722 70.83632535566788,-112.47498748559944 70.16645237456041,-109.97498748559897 70.83632535561276,-107.47498748558372 72.66645237452053,-105.6448604666356 75.166452374521,-104.97498748552813" stroke="#ffa500" stroke-linecap="round" stroke-linejoin="round"/><polyline fill="none" points="52.56433335730736,-82.94205200910228 55.0643333573226,-83.61192499015463 56.89446037627073,-85.44205200906241 57.5643333573782,-87.94205200906288 56.89446037632585,-90.44205200907813 55.064333357418086,-92.27217902802624 52.56433335741761,-92.94205200913372 50.06433335740236,-92.27217902808137 48.234206338454236,-90.4420520091736 47.56433335734676,-87.94205200917312 48.23420633839911,-85.44205200915788 50.06433335730688,-83.61192499020974 52.564333357307355,-82.94205200910227" stroke="#00f" stroke-linecap="round" stroke-linejoin="round"/><polyline fill="none" points="160.1543697268305,-109.77643463809694 162.65436972684574,-110.4463076191493 164.48449674579388,-112.27643463805707 165.15436972690136,-114.77643463805754 164.48449674584901,-117.27643463807279 162.65436972694124,-119.10656165702092 160.15436972694076,-119.77643463812839 157.65436972692552,-119.10656165707604 155.8242427079774,-117.27643463816828 155.1543697268699,-114.77643463816781 155.82424270792225,-112.27643463815257 157.65436972683003,-110.44630761920443 160.1543697268305,-109.77643463809696" stroke="#00f" stroke-linecap="round" stroke-linejoin="round"/><polyline fill="none" points="-293.51051194548376,-37.64227263012833 -291.0105119454685,-38.312145611180675 -289.1803849265204,-40.14227263008844 -288.51051194541293,-42.64227263008892 -289.18038492646525,-45.142272630104166 -291.010511945373,-46.9723996490523 -293.5105119453735,-47.64227263015978 -296.0105119453887,-46.97239964910744 -297.84063896433685,-45.14227263019967 -298.5105119454443,-42.642272630199194 -297.840638964392,-40.142272630183946 -296.0105119454842,-38.31214561123581 -293.51051194548376,-37.64227263012833" stroke="#00f" stroke-linecap="round" stroke-linejoin="round"/><polyline fill="none" points="112.08255961886873,-104.401426821703 114.58255961888398,-105.07129980275533 116.41268663783211,-106.9014268216631 117.0825596189396,-109.40142682166356 116.41268663788726,-111.90142682167881 114.5825596189795,-113.73155384062694 112.08255961897903,-114.40142682173443 109.58255961896378,-113.7315538406821 107.75243260001565,-111.90142682177434 107.08255961890816,-109.40142682177387 107.7524325999605,-106.90142682175862 109.58255961886826,-105.07129980281049 112.08255961886873,-104.401426821703" stroke="#00f" stroke-linecap="round" stroke-linejoin="round"/><polyline fill="none" points="-220.34056891317434,-86.46150091215517 -217.84056891315907,-87.13137389320751 -216.01044189421094,-88.96150091211527 -215.34056891310345,-91.46150091211574 -216.0104418941558,-93.96150091213099 -217.84056891306358,-95.79162793107912 -220.34056891306406,-96.46150091218661 -222.84056891307932,-95.79162793113427 -224.67069593202746,-93.96150091222651 -225.34056891313494,-91.46150091222604 -224.6706959320826,-88.9615009122108 -222.84056891317482,-87.13137389326266 -220.34056891317434,-86.46150091215517" stroke="#ffa500" stroke-linecap="round" stroke-linejoin="round"/><polyline fill="none" points="-239.78681725429576,111.97587994210616 -237.2868172542805,111.30600696105382 -235.45669023533236,109.47587994214607 -234.78681725422487,106.9758799421456 -235.45669023527722,104.47587994213035 -237.286817254185,102.64575292318221 -239.78681725418548,101.97587994207473 -242.28681725420074,102.64575292312706 -244.11694427314887,104.47587994203482 -244.78681725425636,106.97587994203529 -244.116944273204,109.47587994205054 -242.28681725429624,111.30600696099867 -239.78681725429576,111.97587994210616" stroke="#ffa500" stroke-linecap="round" stroke-linejoin="round"/><polyline fill="none" points="-159.42699812299088,37.376520716342775 -156.92699812297562,36.70664773529044 -155.09687110402749,34.87652071638268 -154.42699812292,32.3765207163822 -155.09687110397232,29.87652071636695 -156.9269981228801,28.04639369741881 -159.42699812288058,27.37652071631132 -161.92699812289584,28.046393697363655 -163.75712514184397,29.876520716271415 -164.42699812295146,32.37652071627189 -163.75712514189914,34.876520716287146 -161.92699812299136,36.706647735235286 -159.42699812299088,37.37652071634278" stroke="#00f" stroke-linecap="round" stroke-linejoin="round"/><polyline fill="none" points="-227.38733313804897,-25.091013667844205 -224.8873331380337,-25.760886648896538 -223.05720611908558,-27.591013667804297 -222.3873331379781,-30.09101366780477 -223.0572061190304,-32.59101366782002 -224.88733313793816,-34.42114068676816 -227.38733313793864,-35.09101366787566 -229.8873331379539,-34.42114068682332 -231.71746015690204,-32.59101366791556 -232.38733313800952,-30.09101366791509 -231.7174601569572,-27.591013667899833 -229.88733313804946,-25.760886648951693 -227.38733313804897,-25.091013667844198" stroke="#008000" stroke-linecap="round" stroke-linejoin="round"/><polyline fill="none" points="109.17285997110797,-53.68115601862889 111.67285997112322,-54.35102899968122 113.50298699007136,-56.18115601858898 114.17285997117887,-58.681156018589455 113.50298699012653,-61.18115601860471 111.67285997121877,-63.01128303755285 109.1728599712183,-63.681156018660346 106.67285997120305,-63.01128303760802 104.8427329522549,-61.18115601870026 104.1728599711474,-58.68115601869978 104.84273295219974,-56.181156018684526 106.6728599711075,-54.351028999736386 109.17285997110797,-53.68115601862889" stroke="#ffa500" stroke-linecap="round" stroke-linejoin="round"/><polyline fill="none" points="62.79576394350253,-162.97026553144698 65.29576394351778,-163.6401385124993 67.12589096246593,-165.47026553140705 67.79576394357343,-167.97026553140753 67.1258909625211,-170.4702655314228 65.29576394361334,-172.30039255037093 62.79576394361286,-172.97026553147842 60.295763943597606,-172.3003925504261 58.46563692464946,-170.47026553151835 57.79576394354196,-167.97026553151787 58.465636924594286,-165.4702655315026 60.295763943502045,-163.64013851255447 62.79576394350252,-162.97026553144698" stroke="#ffa500" stroke-linecap="round" stroke-linejoin="round"/><polyline fill="none" points="-232.03424629822075,-55.48212992707995 -229.5342462982055,-56.15200290813228 -227.70411927925736,-57.982129927040035 -227.03424629814987,-60.48212992704051 -227.7041192792022,-62.982129927055766 -229.53424629810993,-64.81225694600391 -232.03424629811042,-65.48212992711142 -234.53424629812568,-64.8122569460591 -236.36437331707384,-62.98212992715134 -237.03424629818136,-60.482129927150865 -236.36437331712904,-57.98212992713561 -234.5342462982213,-56.15200290818746 -232.0342462982208,-55.48212992707996" stroke="#00f" stroke-linecap="round" stroke-linejoin="round"/><polyline fill="none" points="94.7069895939599,-107.9920424982889 97.20698959397517,-108.66191547934122 99.03711661292331,-110.49204249824898 99.70698959403082,-112.99204249824945 99.0371166129785,-115.49204249826471 97.20698959407073,-117.32216951721286 94.70698959407027,-117.99204249832036 92.206989594055,-117.32216951726804 90.37686257510686,-115.49204249836028 89.70698959399935,-112.99204249835981 90.37686257505167,-110.49204249834455 92.20698959395943,-108.6619154793964 94.7069895939599,-107.9920424982889" stroke="#00f" stroke-linecap="round" stroke-linejoin="round"/><polyline fill="none" points="78.9141622616068,-74.10996280947636 81.41416226162207,-74.77983579052868 83.24428928057021,-76.60996280943644 83.91416226167772,-79.10996280943691 83.2442892806254,-81.60996280945217 81.41416226171764,-83.44008982840032 78.91416226171717,-84.10996280950782 76.4141622617019,-83.4400898284555 74.58403524275376,-81.60996280954774 73.91416226164625,-79.10996280954727 74.58403524269858,-76.609962809532 76.41416226160632,-74.77983579058386 78.91416226160679,-74.10996280947636" stroke="#ffa500" stroke-linecap="round" stroke-linejoin="round"/><polyline fill="none" points="-228.6082791379464,109.1844124482403 -226.10827913793113,108.51453946718797 -224.27815211898297,106.68441244828023 -223.60827913787546,104.18441244827976 -224.27815211892778,101.6844124482645 -226.10827913783552,99.85428542931635 -228.608279137836,99.18441244820883 -231.10827913785127,99.85428542926115 -232.93840615679943,101.6844124481689 -233.60827913790695,104.18441244816937 -232.93840615685463,106.68441244818463 -231.10827913794688,108.51453946713279 -228.6082791379464,109.18441244824031" stroke="#ffa500" stroke-linecap="round" stroke-linejoin="round"/><polyline fill="none" points="-231.40195714079115,-32.3882792297455 -228.9019571407759,-33.058152210797815 -227.07183012182773,-34.88827922970557 -226.4019571407202,-37.38827922970604 -227.07183012177254,-39.888279229721306 -228.90195714068028,-41.71840624866946 -231.40195714068076,-42.38827922977698 -233.90195714069603,-41.71840624872466 -235.7320841596442,-39.88827922981691 -236.4019571407517,-37.38827922981643 -235.73208415969938,-34.88827922980117 -233.90195714079164,-33.05815221085301 -231.40195714079115,-32.38827922974549" stroke="#008000" stroke-linecap="round" stroke-linejoin="round"/><polyline fill="none" points="-127.2361881083367,15.046782107788308 -124.73618810832144,14.376909126735994 -122.90606108937328,12.546782107828244 -122.23618810826576,10.04678210782777 -122.90606108931807,7.546782107812506 -124.73618810822582,5.716655088864346 -127.23618810822629,5.04678210775683 -129.73618810824155,5.716655088809143 -131.5663151271897,7.546782107716892 -132.23618810829723,10.046782107717366 -131.5663151272449,12.546782107732632 -129.73618810833716,14.376909126680793 -127.23618810833669,15.046782107788312" stroke="#ffa500" stroke-linecap="round" stroke-linejoin="round"/><polyline fill="none" points="-159.58383723094502,-53.30021982566156 -157.08383723092976,-53.97009280671387 -155.2537102119816,-55.80021982562162 -154.58383723087408,-58.300219825622094 -155.2537102119264,-60.800219825637356 -157.08383723083415,-62.63034684458552 -159.58383723083463,-63.300219825693034 -162.0838372308499,-62.63034684464072 -163.91396424979806,-60.800219825732974 -164.58383723090557,-58.3002198257325 -163.91396424985325,-55.80021982571723 -162.0838372309455,-53.97009280676907 -159.58383723094502,-53.30021982566154" stroke="#ffa500" stroke-linecap="round" stroke-linejoin="round"/><polyline fill="none" points="-195.20709117283891,-58.04221269491388 -192.70709117282365,-58.712085675966186 -190.8769641538755,-60.54221269487393 -190.20709117276797,-63.04221269487441 -190.8769641538203,-65.54221269488967 -192.70709117272804,-67.37233971383783 -195.20709117272852,-68.04221269494535 -197.7070911727438,-67.37233971389304 -199.53721819169195,-65.5422126949853 -200.20709117279947,-63.04221269498482 -199.53721819174714,-60.54221269496955 -197.7070911728394,-58.71208567602138 -195.20709117283891,-58.04221269491386" stroke="#00f" stroke-linecap="round" stroke-linejoin="round"/><polyline fill="none" points="8.431165675234249,182.6509622012396 10.931165675249517,181.98108922018727 12.761292694197683,180.15096220127953 13.431165675305207,177.65096220127904 12.7612926942529,175.15096220126378 10.931165675345156,173.32083518231562 8.431165675344683,172.6509622012081 5.931165675329414,173.3208351822604 4.101038656381247,175.15096220116814 3.4311656752737214,177.65096220116862 4.101038656326027,180.1509622011839 5.931165675233771,181.98108922013205 8.431165675234245,182.65096220123957" stroke="#ffa500" stroke-linecap="round" stroke-linejoin="round"/><polyline fill="none" points="-198.64201954713795,38.670436888275624 -196.1420195471227,38.00056390722332 -194.31189252817452,36.17043688831557 -193.642019547067,33.670436888315095 -194.3118925281193,31.170436888299825 -196.14201954702705,29.340309869351657 -198.64201954702753,28.67043688824413 -201.1420195470428,29.340309869296433 -202.97214656599095,31.170436888204176 -203.64201954709847,33.67043688820465 -202.97214656604618,36.17043688821992 -201.14201954713843,38.000563907168086 -198.64201954713795,38.67043688827562" stroke="#ffa500" stroke-linecap="round" stroke-linejoin="round"/></svg>