<?xml version="1.0" ?><!DOCTYPE svg  PUBLIC '-//W3C//DTD SVG 1.1//EN'  'http://www.w3.org/Graphics/SVG/1.1/DTD/svg11.dtd'><svg height="270.000" viewBox="-257.000 -160.000 558.000 270.000" width="558.000" xmlns="http://www.w3.org/2000/svg"><line fill="none" stroke="none" stroke-linecap="round" stroke-width="2.0" x1="0.0" x2="0.0" y1="0.0" y2="0.0"/><polygon fill="none" fill-rule="evenodd" points="0.0,0.0 0.0,0.0 0.0,0.0" stroke-linejoin="round"/><polyline fill="none" points="-209.84624828148887,-75.70600593937138 -207.3462482814736,-76.37587892042369 -205.51612126252544,-78.20600593933143 -204.84624828141793,-80.7060059393319 -205.51612126247022,-83.20600593934718 -207.34624828137797,-85.03613295829535 -209.84624828137845,-85.70600593940289 -212.3462482813937,-85.03613295835058 -214.17637530034187,-83.20600593944283 -214.84624828144942,-80.70600593944236 -214.17637530039713,-78.20600593942709 -212.34624828148938,-76.37587892047891 -209.8462482814889,-75.70600593937138" stroke="#00f" stroke-linecap="round" stroke-linejoin="round"/><polyline fill="none" points="-204.37335179678107,-91.71438992288948 -201.8733517967658,-92.38426290394177 -200.04322477781764,-94.21438992284952 -199.3733517967101,-96.71438992284999 -200.0432247777624,-99.21438992286527 -201.87335179667014,-101.04451694181344 -204.37335179667062,-101.71438992292097 -206.87335179668588,-101.04451694186868 -208.70347881563404,-99.21438992296093 -209.3733517967416,-96.71438992296046 -208.7034788156893,-94.21438992294519 -206.87335179678155,-92.38426290399701 -204.37335179678107,-91.71438992288948" stroke="#008000" stroke-linecap="round" stroke-linejoin="round"/><polyline fill="none" points="-160.91827519547104,-83.61621078896248 -158.41827519545578,-84.28608377001477 -156.5881481765076,-86.11621078892252 -155.91827519540004,-88.61621078892298 -156.58814817645234,-91.11621078893826 -158.41827519536008,-92.94633780788644 -160.91827519536056,-93.61621078899397 -163.41827519537583,-92.94633780794167 -165.24840221432402,-91.11621078903394 -165.91827519543156,-88.61621078903347 -165.24840221437927,-86.1162107890182 -163.41827519547152,-84.28608377007002 -160.91827519547104,-83.61621078896249" stroke="#ffa500" stroke-linecap="round" stroke-linejoin="round"/><polyline fill="none" points="-198.53884894250723,-93.87525290348496 -196.03884894249197,-94.54512588453726 -194.20872192354378,-96.37525290344499 -193.53884894243623,-98.87525290344546 -194.20872192348853,-101.37525290346073 -196.03884894239627,-103.20537992240891 -198.53884894239675,-103.87525290351645 -201.03884894241202,-103.20537992246416 -202.8689759613602,-101.37525290355643 -203.53884894246775,-98.87525290355596 -202.86897596141546,-96.37525290354068 -201.0388489425077,-94.54512588459251 -198.53884894250723,-93.87525290348496" stroke="#008000" stroke-linecap="round" stroke-linejoin="round"/><polyline fill="none" points="-217.27590881738323,-68.76818866571023 -214.77590881736793,-69.43806164676252 -212.94578179841974,-71.26818866567025 -212.2759088173122,-73.76818866567072 -212.9457817983645,-76.268188665686 -214.77590881727224,-78.09831568463417 -217.27590881727272,-78.76818866574172 -219.775908817288,-78.09831568468942 -221.6060358362362,-76.2681886657817 -222.27590881734375,-73.76818866578122 -221.60603583629145,-71.26818866576595 -219.7759088173837,-69.43806164681776 -217.27590881738323,-68.76818866571021" stroke="#00f" stroke-linecap="round" stroke-linejoin="round"/><polyline fill="none" points="-209.37701470315088,-115.43792500551491 -206.8770147031356,-116.1077979865672 -205.0468876841874,-117.93792500547494 -204.37701470307985,-120.4379250054754 -205.04688768413214,-122.93792500549068 -206.8770147030399,-124.76805202443887 -209.37701470304037,-125.43792500554642 -211.87701470305566,-124.76805202449412 -213.70714172200385,-122.9379250055864 -214.3770147031114,-120.43792500558592 -213.7071417220591,-117.93792500557065 -211.87701470315136,-116.10779798662246 -209.37701470315088,-115.43792500551491" stroke="#00f" stroke-linecap="round" stroke-linejoin="round"/><polyline fill="none" points="264.935215744854,-136.24767169432343 267.4352157448693,-136.91754467537572 269.2653427638175,-138.74767169428347 269.9352157449251,-141.24767169428395 269.2653427638728,-143.74767169429924 267.4352157449651,-145.57779871324743 264.93521574496464,-146.24767169435498 262.43521574494935,-145.57779871330268 260.60508872600116,-143.74767169439494 259.9352157448936,-141.24767169439446 260.60508872594585,-138.74767169437916 262.43521574485356,-136.91754467543097 264.935215744854,-136.24767169432343" stroke="#ffa500" stroke-linecap="round" stroke-linejoin="round"/><polyline fill="none" points="-241.33915597997955,-100.29004485576328 -238.83915597996426,-100.95991783681556 -237.00902896101607,-102.7900448557233 -236.33915597990853,-105.29004485572376 -237.00902896096082,-107.79004485573904 -238.83915597986856,-109.62017187468723 -241.33915597986905,-110.29004485579478 -243.83915597988434,-109.6201718747425 -245.66928299883253,-107.79004485583476 -246.33915597994007,-105.2900448558343 -245.66928299888778,-102.79004485581902 -243.83915597998006,-100.95991783687083 -241.33915597997958,-100.29004485576328" stroke="#00f" stroke-linecap="round" stroke-linejoin="round"/><polyline fill="none" points="68.22319401321472,8.426088277679355 70.72319401323,7.756215296627071 72.55332103217819,5.92608827771934 73.22319401328575,3.4260882777188653 72.55332103223347,0.926088277703581 70.72319401332574,-0.9040387412446107 68.22319401332527,-1.5739117223521641 65.72319401330998,-0.9040387412998819 63.89306699436179,0.9260882776078482 63.223194013254236,3.4260882776083226 63.893066994306515,5.926088277623607 65.72319401321424,7.756215296571799 68.22319401321471,8.426088277679353" stroke="#ffa500" stroke-linecap="round" stroke-linejoin="round"/><polyline fill="none" points="284.37956030519274,-139.17993402578577 286.87956030520803,-139.84980700683806 288.7096873241562,-141.67993402574578 289.3795603052638,-144.17993402574626 288.70968732421153,-146.67993402576155 286.8795603053038,-148.51006104470974 284.37956030530336,-149.1799340258173 281.87956030528807,-148.510061044765 280.0494332863399,-146.67993402585728 279.3795603052323,-144.1799340258568 280.04943328628457,-141.6799340258415 281.8795603051923,-139.84980700689331 284.37956030519274,-139.17993402578577" stroke="#00f" stroke-linecap="round" stroke-linejoin="round"/><polyline fill="none" points="-196.1897287015055,-102.65365667003918 -193.6897287014902,-103.32352965109146 -191.859601682542,-105.1536566699992 -191.18972870143446,-107.65365666999966 -191.85960168248673,-110.15365667001495 -193.68972870139444,-111.98378368896314 -196.18972870139493,-112.6536566700707 -198.68972870141022,-111.98378368901842 -200.5198557203584,-110.15365667011069 -201.18972870146595,-107.65365667011022 -200.5198557204137,-105.15365667009493 -198.68972870150597,-103.32352965114673 -196.1897287015055,-102.65365667003917" stroke="#00f" stroke-linecap="round" stroke-linejoin="round"/><polyline fill="none" points="-121.33140838076275,-34.31977779420749 -118.83140838074746,-34.98965077525977 -117.00128136179926,-36.81977779416749 -116.3314083806917,-39.31977779416797 -117.00128136174398,-41.81977779418326 -118.83140838065171,-43.64990481313146 -121.33140838065218,-44.319777794239016 -123.83140838066747,-43.64990481318674 -125.66153539961567,-41.81977779427901 -126.33140838072323,-39.31977779427854 -125.66153539967095,-36.819777794263246 -123.83140838076322,-34.98965077531504 -121.33140838076275,-34.31977779420748" stroke="#00f" stroke-linecap="round" stroke-linejoin="round"/><polyline fill="none" points="-162.26103743219116,-84.06814948702859 -159.76103743217587,-84.73802246808087 -157.93091041322768,-86.5681494869886 -157.2610374321201,-89.06814948698907 -157.93091041317237,-91.56814948700436 -159.7610374320801,-93.39827650595257 -162.26103743208057,-94.06814948706013 -164.76103743209586,-93.39827650600785 -166.59116445104405,-91.56814948710011 -167.26103743215162,-89.06814948709965 -166.59116445109936,-86.56814948708436 -164.76103743219164,-84.73802246813615 -162.26103743219116,-84.06814948702859" stroke="#ffa500" stroke-linecap="round" stroke-linejoin="round"/><polyline fill="none" points="-134.8809556851292,16.85475579087558 -132.38095568511392,16.184882809823307 -130.55082866616573,14.354755790915581 -129.88095568505815,11.854755790915105 -130.55082866611042,9.354755790899812 -132.38095568501814,7.524628771951608 -134.88095568501862,6.854755790844042 -137.3809556850339,7.524628771896313 -139.21108270398213,9.354755790804038 -139.8809556850897,11.854755790804514 -139.21108270403744,14.354755790819807 -137.38095568512972,16.184882809768013 -134.88095568512924,16.85475579087558" stroke="#ffa500" stroke-linecap="round" stroke-linejoin="round"/><polyline fill="none" points="-153.225230110912,-60.81448842162021 -150.72523011089672,-61.484361402672484 -148.8951030919485,-63.31448842158021 -148.22523011084093,-65.81448842158068 -148.8951030918932,-68.31448842159597 -150.7252301108009,-70.14461544054417 -153.2252301108014,-70.81448842165175 -155.72523011081668,-70.14461544059948 -157.5553571297649,-68.31448842169176 -158.22523011087247,-65.8144884216913 -157.5553571298202,-63.314488421676 -155.7252301109125,-61.4843614027278 -153.225230110912,-60.814488421620226" stroke="#ffa500" stroke-linecap="round" stroke-linejoin="round"/><polyline fill="none" points="-200.42757086034865,-112.62126705785089 -197.92757086033336,-113.29114003890315 -196.09744384138514,-115.12126705781087 -195.42757086027757,-117.62126705781134 -196.09744384132983,-120.12126705782663 -197.92757086023755,-121.95139407677483 -200.42757086023803,-122.6212670578824 -202.92757086025333,-121.95139407683014 -204.75769787920154,-120.12126705792242 -205.42757086030912,-117.62126705792195 -204.75769787925685,-115.12126705790666 -202.92757086034914,-113.29114003895846 -200.42757086034865,-112.62126705785089" stroke="#00f" stroke-linecap="round" stroke-linejoin="round"/><polyline fill="none" points="-184.39733273632214,-68.35463257862844 -181.89733273630685,-69.0245055596807 -180.06720571735863,-70.85463257858842 -179.39733273625106,-73.3546325785889 -180.06720571730332,-75.8546325786042 -181.89733273621104,-77.68475959755241 -184.39733273621152,-78.35463257865999 -186.89733273622682,-77.68475959760772 -188.72745975517503,-75.8546325787 -189.3973327362826,-73.35463257869952 -188.72745975523034,-70.85463257868423 -186.89733273632262,-69.02450555973601 -184.39733273632214,-68.35463257862844" stroke="#00f" stroke-linecap="round" stroke-linejoin="round"/><polyline fill="none" points="-160.6857984687742,23.132110605746565 -158.18579846875892,22.4622376246943 -156.3556714498107,20.63211060578658 -155.68579846870313,18.132110605786103 -156.3556714497554,15.632110605770805 -158.1857984686631,13.80198358682259 -160.6857984686636,13.132110605715011 -163.18579846867888,13.801983586767275 -165.0159254876271,15.632110605674995 -165.68579846873467,18.13211060567547 -165.0159254876824,20.63211060569077 -163.1857984687747,22.462237624638984 -160.6857984687742,23.132110605746565" stroke="#ffa500" stroke-linecap="round" stroke-linejoin="round"/><polyline fill="none" points="-208.90650097105703,-116.66367352419158 -206.40650097104174,-117.33354650524385 -204.57637395209352,-119.16367352415156 -203.90650097098595,-121.66367352415205 -204.5763739520382,-124.16367352416735 -206.40650097094593,-125.99380054311557 -208.9065009709464,-126.66367352422316 -211.4065009709617,-125.99380054317089 -213.23662798990992,-124.16367352426317 -213.9065009710175,-121.66367352426269 -213.23662798996523,-119.16367352424739 -211.4065009710575,-117.33354650529917 -208.90650097105703,-116.66367352419158" stroke="#00f" stroke-linecap="round" stroke-linejoin="round"/><polyline fill="none" points="49.15463848097828,-4.154749286292203 51.65463848099358,-4.824622267344462 53.4847654999418,-6.654749286252181 54.15463848104938,-9.15474928625266 53.484765499997124,-11.654749286267963 51.65463848108941,-13.484876305216183 49.15463848108893,-14.154749286323767 46.654638481073626,-13.48487630527151 44.82451146212541,-11.65474928636379 44.15463848101782,-9.154749286363312 44.82451146207008,-6.654749286348009 46.654638480977795,-4.824622267399787 49.15463848097827,-4.154749286292201" stroke="#00f" stroke-linecap="round" stroke-linejoin="round"/><polyline fill="none" points="-117.74054402299411,-52.06931189140993 -115.24054402297881,-52.73918487246219 -113.41041700403059,-54.56931189136991 -112.740544022923,-57.06931189137038 -113.41041700397525,-59.56931189138569 -115.24054402288297,-61.39943891033391 -117.74054402288345,-62.0693118914415 -120.24054402289876,-61.39943891038924 -122.07067104184698,-59.569311891481526 -122.74054402295457,-57.06931189148105 -122.07067104190232,-54.569311891465745 -120.2405440229946,-52.73918487251752 -117.74054402299411,-52.06931189140993" stroke="#ffa500" stroke-linecap="round" stroke-linejoin="round"/><polyline fill="none" points="-232.3155530949788,-104.66966175597696 -229.8155530949635,-105.33953473702921 -227.98542607601527,-107.16966175593693 -227.31555309490767,-109.66966175593741 -227.98542607595994,-112.16966175595272 -229.81555309486765,-113.99978877490094 -232.31555309486814,-114.66966175600852 -234.81555309488346,-113.99978877495627 -236.64568011383167,-112.16966175604855 -237.31555309493928,-109.66966175604807 -236.645680113887,-107.16966175603277 -234.8155530949793,-105.33953473708453 -232.3155530949788,-104.66966175597695" stroke="#ffa500" stroke-linecap="round" stroke-linejoin="round"/><polyline fill="none" points="-43.56298866502654,-41.74240536717897 -41.06298866501123,-42.41227834823122 -39.23286164606301,-44.242405367138936 -38.56298866495541,-46.74240536713941 -39.23286164600766,-49.24240536715472 -41.06298866491538,-51.07253238610294 -43.562988664915856,-51.74240536721054 -46.06298866493116,-51.07253238615829 -47.89311568387939,-49.24240536725057 -48.56298866498698,-46.74240536725009 -47.89311568393473,-44.24240536723479 -46.062988665027014,-42.41227834828656 -43.56298866502654,-41.74240536717897" stroke="#ffa500" stroke-linecap="round" stroke-linejoin="round"/><polyline fill="none" points="-206.18013261855782,-77.66815993777135 -203.6801326185425,-78.3380329188236 -201.85000559959428,-80.16815993773132 -201.18013261848668,-82.6681599377318 -201.85000559953892,-85.1681599377471 -203.68013261844663,-86.99828695669534 -206.18013261844712,-87.66815993780294 -208.68013261846244,-86.99828695675069 -210.51025963741066,-85.16815993784297 -211.18013261851826,-82.66815993784249 -210.51025963746602,-80.16815993782718 -208.6801326185583,-78.33803291887895 -206.18013261855782,-77.66815993777135" stroke="#00f" stroke-linecap="round" stroke-linejoin="round"/><polyline fill="none" points="-102.77135187433252,88.83891502197137 -100.27135187431722,88.16904204091912 -98.44122485536899,86.3389150220114 -97.77135187426138,83.83891502201092 -98.44122485531364,81.33891502199562 -100.27135187422135,79.50878800304739 -102.77135187422184,78.83891502193978 -105.27135187423714,79.50878800299203 -107.10147889318537,81.33891502189975 -107.77135187429298,83.83891502190023 -107.10147889324072,86.33891502191554 -105.271351874333,88.16904204086377 -102.77135187433252,88.83891502197137" stroke="#ffa500" stroke-linecap="round" stroke-linejoin="round"/><polyline fill="none" points="-101.27361586958851,-35.43496662160722 -98.7736158695732,-36.10483960265946 -96.94348885062497,-37.93496662156717 -96.27361586951737,-40.434966621567646 -96.94348885056962,-42.93496662158296 -98.77361586947734,-44.76509364053119 -101.27361586947782,-45.43496662163879 -103.77361586949313,-44.76509364058655 -105.60374288844136,-42.93496662167884 -106.27361586954896,-40.43496662167836 -105.60374288849673,-37.93496662166305 -103.77361586958902,-36.10483960271482 -101.27361586958854,-35.43496662160722" stroke="#ffa500" stroke-linecap="round" stroke-linejoin="round"/><polyline fill="none" points="270.20342003934115,-137.3779551461376 272.70342003935644,-138.04782812718983 274.5335470583047,-139.87795514609755 275.2034200394123,-142.37795514609803 274.53354705836006,-144.87795514611335 272.70342003945234,-146.7080821650616 270.2034200394519,-147.3779551461692 267.7034200394366,-146.70808216511696 265.87329302048835,-144.87795514620925 265.2034200393807,-142.37795514620876 265.873293020433,-139.87795514619344 267.7034200393407,-138.0478281272452 270.20342003934115,-137.3779551461376" stroke="#ffa500" stroke-linecap="round" stroke-linejoin="round"/><polyline fill="none" points="-165.76592377059035,-84.85673128955155 -163.26592377057503,-85.52660427060378 -161.43579675162678,-87.35673128951149 -160.76592377051918,-89.85673128951197 -161.43579675157142,-92.35673128952729 -163.26592377047913,-94.18685830847552 -165.76592377047962,-94.85673128958312 -168.26592377049494,-94.18685830853089 -170.09605078944318,-92.35673128962318 -170.76592377055078,-89.8567312896227 -170.09605078949855,-87.35673128960738 -168.26592377059083,-85.52660427065913 -165.76592377059035,-84.85673128955153" stroke="#ffa500" stroke-linecap="round" stroke-linejoin="round"/><polyline fill="none" points="-109.56799701480776,24.046265178311586 -107.06799701479244,23.37639219725935 -105.23786999584419,21.546265178351643 -104.56799701473659,19.046265178351163 -105.23786999578883,16.546265178335847 -107.06799701469653,14.716138159387606 -109.56799701469701,14.046265178279997 -112.06799701471233,14.716138159332234 -113.89812403366058,16.54626517823994 -114.5679970147682,19.046265178240418 -113.89812403371596,21.546265178255734 -112.06799701480826,23.376392197203977 -109.56799701480777,24.046265178311586" stroke="#ffa500" stroke-linecap="round" stroke-linejoin="round"/><polyline fill="none" points="-171.42530538892606,-55.96279476483999 -168.92530538891074,-56.63266774589223 -167.0951783699625,-58.46279476479993 -166.4253053888549,-60.96279476480041 -167.09517836990713,-63.462794764815726 -168.92530538881485,-65.29292178376397 -171.42530538881533,-65.96279476487159 -173.92530538883065,-65.29292178381935 -175.7554324077789,-63.46279476491165 -176.4253053888865,-60.96279476491117 -175.75543240783426,-58.462794764895854 -173.92530538892655,-56.63266774594761 -171.42530538892606,-55.96279476484" stroke="#ffa500" stroke-linecap="round" stroke-linejoin="round"/><polyline fill="none" points="-41.474414333203015,-35.62125890367445 -38.974414333187696,-36.29113188472668 -37.14428731423945,-38.121258903634384 -36.47441433313183,-40.62125890363486 -37.14428731418406,-43.12125890365018 -38.974414333091765,-44.951385922598426 -41.47441433309224,-45.62125890370604 -43.97441433310756,-44.95138592265381 -45.80454135205581,-43.12125890374611 -46.47441433316342,-40.621258903745634 -45.804541352111194,-38.121258903730315 -43.97441433320349,-36.29113188478207 -41.474414333203015,-35.62125890367445" stroke="#ffa500" stroke-linecap="round" stroke-linejoin="round"/><polyline fill="none" points="-98.88947967258969,-59.81123808410071 -96.38947967257437,-60.48111106515294 -94.55935265362612,-62.31123808406064 -93.8894796725185,-64.81123808406112 -94.55935265357074,-67.31123808407644 -96.38947967247844,-69.14136510302468 -98.88947967247893,-69.8112380841323 -101.38947967249425,-69.14136510308006 -103.2196066914425,-67.31123808417236 -103.88947967255011,-64.81123808417188 -103.21960669149789,-62.31123808415656 -101.38947967259018,-60.48111106520831 -98.8894796725897,-59.811238084100694" stroke="#00f" stroke-linecap="round" stroke-linejoin="round"/><polyline fill="none" points="-169.41628399397624,17.836290266998482 -166.91628399396092,17.166417285946252 -165.08615697501267,15.336290267038551 -164.41628399390504,12.836290267038073 -165.08615697495728,10.336290267022754 -166.91628399386497,8.506163248074504 -169.41628399386545,7.836290266966885 -171.91628399388077,8.506163248019112 -173.74641101282901,10.336290266926811 -174.41628399393664,12.83629026692729 -173.7464110128844,15.336290266942608 -171.91628399397672,17.16641728589086 -169.41628399397624,17.83629026699848" stroke="#00f" stroke-linecap="round" stroke-linejoin="round"/><polyline fill="none" points="-58.21442911481354,48.7665414071767 -55.71442911479822,48.09666842612448 -53.88430209584997,46.266541407216785 -53.214429114742344,43.76654140721631 -53.88430209579457,41.26654140720099 -55.71442911470226,39.436414388252736 -58.21442911470274,38.76654140714511 -60.71442911471806,39.436414388197335 -62.54455613366631,41.26654140710503 -63.214429114773935,43.76654140710551 -62.54455613372171,46.266541407120826 -60.71442911481402,48.09666842606908 -58.21442911481354,48.7665414071767" stroke="#ffa500" stroke-linecap="round" stroke-linejoin="round"/><polyline fill="none" points="-57.05765975143968,54.64150393295147 -54.55765975142436,53.97163095189925 -52.72753273247611,52.141503932991554 -52.05765975136848,49.64150393299108 -52.727532732420705,47.14150393297575 -54.5576597513284,45.3113769140275 -57.05765975132888,44.641503932919875 -59.557659751344204,45.3113769139721 -61.38778677029246,47.14150393287979 -62.05765975140008,49.64150393288027 -61.38778677034786,52.141503932895596 -59.55765975144016,53.97163095184385 -57.05765975143969,54.64150393295148" stroke="#ffa500" stroke-linecap="round" stroke-linejoin="round"/><polyline fill="none" points="273.6328753328422,-135.23298043065225 276.13287533285757,-135.90285341170446 277.9630023518058,-137.73298043061214 278.63287533291344,-140.23298043061263 277.96300235186123,-142.73298043062795 276.1328753329535,-144.5631074495762 273.63287533295306,-145.23298043068382 271.1328753329377,-144.56310744963162 269.30274831398947,-142.73298043072393 268.63287533288184,-140.23298043072344 269.30274831393405,-137.73298043070812 271.13287533284176,-135.90285341175988 273.6328753328422,-135.23298043065225" stroke="#ffa500" stroke-linecap="round" stroke-linejoin="round"/><polyline fill="none" points="-133.35409701267804,22.998420686309434 -130.85409701266272,22.328547705257215 -129.02396999371445,20.49842068634952 -128.35409701260681,17.998420686349043 -129.02396999365902,15.498420686333716 -130.8540970125667,13.668293667385456 -133.3540970125672,12.998420686277823 -135.8540970125825,13.66829366733004 -137.6842240315308,15.498420686237735 -138.35409701263842,17.998420686238212 -137.6842240315862,20.49842068625354 -135.85409701267852,22.3285477052018 -133.35409701267804,22.998420686309434" stroke="#ffa500" stroke-linecap="round" stroke-linejoin="round"/><polyline fill="none" points="56.39210775537491,7.6051069559969 58.892107755390235,6.935233974944685 60.722234774338496,5.105106956036992 61.39210775544613,2.605106956036514 60.72223477439392,0.10510695602118636 58.89210775548622,-1.7250200629270778 56.392107755485746,-2.394893044034713 53.89210775547042,-1.7250200629824997 52.06198073652215,0.10510695592519292 51.392107755414514,2.6051069559256708 52.06198073646673,5.1051069559409985 53.89210775537442,6.935233974889264 56.392107755374894,7.6051069559969005" stroke="#ffa500" stroke-linecap="round" stroke-linejoin="round"/><polyline fill="none" points="271.30589453227526,-125.73544717856868 273.8058945322906,-126.40532015962089 275.63602155123885,-128.23544717852857 276.3058945323465,-130.73544717852906 275.6360215512943,-133.23544717854438 273.80589453238656,-135.06557419749265 271.3058945323861,-135.73544717860028 268.80589453237076,-135.06557419754807 266.9757675134225,-133.23544717864038 266.3058945323149,-130.7354471786399 266.9757675133671,-128.23544717862458 268.8058945322748,-126.40532015967631 271.30589453227526,-125.73544717856866" stroke="#ffa500" stroke-linecap="round" stroke-linejoin="round"/><polyline fill="none" points="66.62018170154047,15.973876173658258 69.12018170155581,15.304003192606048 70.95030872050408,13.473876173698358 71.62018170161173,10.973876173697878 70.95030872055952,8.473876173682546 69.12018170165183,6.643749154734277 66.62018170165135,5.9738761736266355 64.12018170163601,6.6437491546788445 62.290054682687746,8.473876173586536 61.6201817015801,10.973876173587016 62.29005468263231,13.473876173602347 64.12018170154,15.304003192550619 66.62018170154049,15.973876173658262" stroke="#ffa500" stroke-linecap="round" stroke-linejoin="round"/><polyline fill="none" points="-3.3533686374774607,-39.41543157289741 -0.8533686374621281,-40.08530455394962 0.9767583814861438,-41.91543157285731 1.6466313625937874,-44.415431572857784 0.9767583815415808,-46.91543157287312 -0.8533686373661087,-48.74555859182139 -3.3533686373665876,-49.41543157292904 -5.853368637381921,-48.74555859187683 -7.683495656330194,-46.91543157296914 -8.353368637437839,-44.415431572968664 -7.683495656385634,-41.91543157295333 -5.853368637477945,-40.085304554005056 -3.353368637477466,-39.41543157289741" stroke="#ffa500" stroke-linecap="round" stroke-linejoin="round"/><polyline fill="none" points="-194.8388491126675,-100.77344861533912 -192.33884911265216,-101.44332159639133 -190.50872209370388,-103.27344861529902 -189.83884911259622,-105.7734486152995 -190.50872209364843,-108.27344861531483 -192.33884911255612,-110.10357563426311 -194.8388491125566,-110.77344861537075 -197.33884911257195,-110.10357563431855 -199.16897613152022,-108.27344861541086 -199.83884911262788,-105.77344861541037 -199.16897613157568,-103.27344861539504 -197.338849112668,-101.44332159644676 -194.8388491126675,-100.77344861533912" stroke="#ffa500" stroke-linecap="round" stroke-linejoin="round"/><polyline fill="none" points="-2.6917112646601544,-35.16389062009152 -0.1917112646448187,-35.83376360114372 1.6384157543034579,-37.66389062005141 2.308288735411107,-40.16389062005189 1.6384157543589049,-42.66389062006722 -0.19171126454878196,-44.494017639015496 -2.6917112645492605,-45.16389062012315 -5.191711264564597,-44.49401763907095 -7.021838283512874,-42.66389062016326 -7.691711264620524,-40.16389062016278 -7.021838283568323,-37.66389062014745 -5.191711264660637,-35.83376360119917 -2.6917112646601584,-35.16389062009152" stroke="#ffa500" stroke-linecap="round" stroke-linejoin="round"/><polyline fill="none" points="-210.1897144765744,-78.08142492563775 -207.68971447655906,-78.75129790668994 -205.8595874576108,-80.58142492559763 -205.18971447650313,-83.08142492559811 -205.85958745755534,-85.58142492561345 -207.68971447646302,-87.41155194456172 -210.1897144764635,-88.08142492566938 -212.68971447647885,-87.41155194461719 -214.51984149542713,-85.5814249257095 -215.1897144765348,-83.08142492570902 -214.51984149548258,-80.58142492569368 -212.6897144765749,-78.7512979067454 -210.1897144765744,-78.08142492563775" stroke="#008000" stroke-linecap="round" stroke-linejoin="round"/><polyline fill="none" points="-164.53180061836986,-4.206773148006343 -162.0318006183545,-4.876646129058542 -160.20167359940623,-6.706773147966226 -159.53180061829858,-9.206773147966704 -160.20167359935078,-11.706773147982043 -162.03180061825847,-13.536900166930325 -164.53180061825896,-14.20677314803798 -167.0318006182743,-13.536900166985784 -168.86192763722258,-11.706773148078101 -169.53180061833024,-9.206773148077623 -168.86192763727803,-6.706773148062284 -167.03180061837034,-4.876646129114001 -164.53180061836986,-4.206773148006345" stroke="#ffa500" stroke-linecap="round" stroke-linejoin="round"/><polyline fill="none" points="-100.49899990702575,-29.44214327561854 -97.99899990701041,-30.112016256670735 -96.16887288806213,-31.942143275578417 -95.49899990695447,-34.44214327557889 -96.16887288800666,-36.94214327559423 -97.99899990691435,-38.772270294542516 -100.49899990691483,-39.442143275650174 -102.99899990693018,-38.77227029459798 -104.82912692587847,-36.9421432756903 -105.49899990698613,-34.44214327568982 -104.82912692593393,-31.942143275674482 -102.99899990702625,-30.112016256726196 -100.49899990702576,-29.442143275618538" stroke="#ffa500" stroke-linecap="round" stroke-linejoin="round"/><polyline fill="none" points="-130.33443231391976,-16.24556972687617 -127.83443231390441,-16.915442707928364 -126.00430529495613,-18.745569726836045 -125.33443231384847,-21.245569726836525 -126.00430529490066,-23.745569726851866 -127.83443231380835,-25.57569674580015 -130.33443231380883,-26.24556972690781 -132.83443231382418,-25.575696745855616 -134.66455933277246,-23.745569726947934 -135.33443231388011,-21.245569726947455 -134.66455933282793,-18.74556972693211 -132.83443231392025,-16.91544270798382 -130.33443231391976,-16.24556972687616" stroke="#ffa500" stroke-linecap="round" stroke-linejoin="round"/><polyline fill="none" points="-209.49362339666473,-26.72440353726853 -206.99362339664938,-27.39427651832072 -205.16349637770108,-29.2244035372284 -204.49362339659342,-31.72440353722888 -205.1634963776456,-34.22440353724423 -206.9936233965533,-36.05453055619252 -209.49362339655377,-36.724403537300184 -211.99362339656912,-36.054530556248 -213.82375041551742,-34.224403537340315 -214.49362339662508,-31.724403537339835 -213.8237504155729,-29.22440353732449 -211.9936233966652,-27.3942765183762 -209.49362339666473,-26.724403537268532" stroke="#00f" stroke-linecap="round" stroke-linejoin="round"/><polyline fill="none" points="-208.80422233688648,-43.36362076310171 -206.30422233687113,-44.033493744153894 -204.47409531792283,-45.863620763061576 -203.80422233681517,-48.36362076306206 -204.47409531786735,-50.86362076307741 -206.30422233677504,-52.6937477820257 -208.80422233677552,-53.36362076313337 -211.30422233679087,-52.69374778208118 -213.13434935573918,-50.8636207631735 -213.80422233684683,-48.36362076317302 -213.13434935579465,-45.86362076315767 -211.30422233688697,-44.03349374420937 -208.80422233688648,-43.36362076310171" stroke="#00f" stroke-linecap="round" stroke-linejoin="round"/><polyline fill="none" points="-197.01116853912575,-42.6467748887328 -194.5111685391104,-43.31664786978499 -192.6810415201621,-45.14677488869266 -192.01116853905444,-47.646774888693145 -192.68104152010662,-50.14677488870849 -194.5111685390143,-51.97690190765679 -197.0111685390148,-52.646774888764455 -199.51116853903014,-51.97690190771227 -201.34129555797844,-50.14677488880459 -202.0111685390861,-47.64677488880411 -201.34129555803392,-45.14677488878876 -199.51116853912623,-43.316647869840466 -197.01116853912575,-42.64677488873279" stroke="#ffa500" stroke-linecap="round" stroke-linejoin="round"/><polyline fill="none" points="-114.77540125708573,25.40235112977788 -112.27540125707038,24.732478148725697 -110.44527423812208,22.90235112981802 -109.77540125701441,20.40235112981754 -110.44527423806659,17.90235112980219 -112.27540125697426,16.072224110853895 -114.77540125697475,15.402351129746222 -117.2754012569901,16.072224110798405 -119.1055282759384,17.90235112970608 -119.77540125704607,20.40235112970656 -119.10552827599389,22.902351129721907 -117.27540125708622,24.732478148670207 -114.77540125708573,25.40235112977788" stroke="#ffa500" stroke-linecap="round" stroke-linejoin="round"/><polyline fill="none" points="-62.48304281275851,56.04991386009912 -59.983042812743165,55.38004087904694 -58.15291579379487,53.54991386013926 -57.483042812687195,51.04991386013879 -58.152915793739375,48.54991386012344 -59.98304281264705,46.71978684117514 -62.483042812647525,46.04991386006747 -64.98304281266287,46.71978684111965 -66.81316983161118,48.549913860027324 -67.48304281271885,51.0499138600278 -66.81316983166667,53.54991386004315 -64.983042812759,55.38004087899145 -62.48304281275851,56.04991386009913" stroke="#ffa500" stroke-linecap="round" stroke-linejoin="round"/><polyline fill="none" points="-156.0888272270759,-53.94296801924543 -153.58882722706056,-54.61284100029761 -151.75870020811226,-56.44296801920528 -151.08882722700457,-58.942968019205765 -151.75870020805675,-61.44296801922111 -153.5888272269644,-63.273095038169416 -156.0888272269649,-63.942968019277096 -158.58882722698024,-63.273095038224916 -160.41895424592855,-61.44296801931724 -161.08882722703623,-58.942968019316766 -160.41895424598405,-56.44296801930141 -158.5888272270764,-54.61284100035311 -156.0888272270759,-53.94296801924543" stroke="#00f" stroke-linecap="round" stroke-linejoin="round"/><polyline fill="none" points="-204.11691974149844,-80.99810672853911 -201.6169197414831,-81.6679797095913 -199.78679272253478,-83.49810672849897 -199.1169197414271,-85.99810672849945 -199.78679272247928,-88.4981067285148 -201.61691974138694,-90.3282337474631 -204.11691974138742,-90.99810672857079 -206.61691974140277,-90.32823374751861 -208.44704676035107,-88.49810672861094 -209.11691974145876,-85.99810672861045 -208.44704676040658,-83.4981067285951 -206.61691974149892,-81.6679797096468 -204.11691974149844,-80.99810672853911" stroke="#00f" stroke-linecap="round" stroke-linejoin="round"/><polyline fill="none" points="-100.66814718467921,98.08796002910556 -98.16814718466387,97.41808704805338 -96.33802016571556,95.5879600291457 -95.66814718460788,93.08796002914522 -96.33802016566004,90.58796002912987 -98.16814718456772,88.75783301018157 -100.6681471845682,88.08796002907388 -103.16814718458355,88.75783301012605 -104.99827420353185,90.58796002903372 -105.66814718463954,93.0879600290342 -104.99827420358737,95.58796002904957 -103.1681471846797,97.41808704799787 -100.66814718467921,98.08796002910556" stroke="#ffa500" stroke-linecap="round" stroke-linejoin="round"/><polyline fill="none" points="-184.58708305785777,-47.20135039364944 -182.08708305784242,-47.871223374701614 -180.25695603889412,-49.70135039360928 -179.58708305778643,-52.201350393609765 -180.2569560388386,-54.70135039362512 -182.08708305774627,-56.53147741257343 -184.58708305774675,-57.20135039368112 -187.0870830577621,-56.53147741262895 -188.9172100767104,-54.701350393721285 -189.5870830578181,-52.2013503937208 -188.9172100767659,-49.70135039370545 -187.08708305785825,-47.871223374757136 -184.58708305785777,-47.20135039364945" stroke="#ffa500" stroke-linecap="round" stroke-linejoin="round"/><polyline fill="none" points="-205.4200810435133,-89.96899564393394 -202.92008104349796,-90.6388686249861 -201.08995402454966,-92.46899564389378 -200.42008104344197,-94.96899564389426 -201.08995402449415,-97.46899564390962 -202.9200810434018,-99.29912266285794 -205.4200810434023,-99.96899564396563 -207.92008104341764,-99.29912266291346 -209.75020806236594,-97.4689956440058 -210.42008104347363,-94.96899564400532 -209.75020806242145,-92.46899564398996 -207.9200810435138,-90.63886862504164 -205.4200810435133,-89.96899564393395" stroke="#f00" stroke-linecap="round" stroke-linejoin="round"/><polyline fill="none" points="-152.74615836238226,-71.0538813445069 -150.2461583623669,-71.72375432555907 -148.4160313434186,-73.55388134446673 -147.74615836231092,-76.05388134446721 -148.41603134336307,-78.55388134448258 -150.24615836227073,-80.3840083634309 -152.74615836227122,-81.05388134453858 -155.24615836228656,-80.38400836348642 -157.07628538123487,-78.55388134457876 -157.74615836234256,-76.05388134457827 -157.0762853812904,-73.55388134456291 -155.24615836238274,-71.72375432561459 -152.74615836238226,-71.0538813445069" stroke="#008000" stroke-linecap="round" stroke-linejoin="round"/><polyline fill="none" points="-168.63799439478004,14.494028042210656 -166.1379943947647,13.824155061158493 -164.3078673758164,11.994028042250827 -163.6379943947087,9.494028042250346 -164.30786737576085,6.994028042234985 -166.1379943946685,5.163901023286668 -168.637994394669,4.494028042178972 -171.13799439468434,5.1639010232311335 -172.96812141363267,6.994028042138798 -173.63799439474036,9.494028042139279 -172.9681214136882,11.994028042154639 -171.13799439478055,13.824155061102958 -168.63799439478007,14.494028042210655" stroke="#ffa500" stroke-linecap="round" stroke-linejoin="round"/><polyline fill="none" points="-172.89654269853065,9.776564852094777 -170.3965426985153,9.106691871042615 -168.56641567956697,7.2765648521349515 -167.89654269845929,4.776564852134471 -168.56641567951144,2.27656485211911 -170.3965426984191,0.44643783317079033 -172.89654269841958,-0.22343514793690766 -175.39654269843493,0.4464378331152524 -177.22666971738326,2.276564852022916 -177.89654269849095,4.776564852023396 -177.2266697174388,7.276564852038758 -175.39654269853114,9.10669187098708 -172.89654269853065,9.77656485209478" stroke="#ffa500" stroke-linecap="round" stroke-linejoin="round"/><polyline fill="none" points="-116.86904108656758,81.08236719816038 -114.36904108655222,80.41249421710822 -112.5389140676039,78.58236719820056 -111.8690410864962,76.08236719820007 -112.53891406754835,73.58236719818471 -114.36904108645601,71.7522401792364 -116.86904108645649,71.0823671981287 -119.36904108647185,71.75224017918084 -121.19916810542017,73.5823671980885 -121.86904108652787,76.08236719808899 -121.19916810547572,78.58236719810435 -119.36904108656806,80.41249421705267 -116.86904108656758,81.08236719816037" stroke="#00f" stroke-linecap="round" stroke-linejoin="round"/><polyline fill="none" points="-200.06257409818969,-26.259018227934856 -197.5625740981743,-26.92889120898701 -195.73244707922598,-28.75901822789467 -195.06257409811826,-31.25901822789515 -195.7324470791704,-33.759018227910516 -197.56257409807807,-35.58914524685884 -200.06257409807856,-36.25901822796654 -202.56257409809393,-35.58914524691439 -204.39270111704226,-33.75901822800673 -205.06257409814998,-31.25901822800625 -204.39270111709783,-28.759018227990886 -202.56257409819017,-26.92889120904256 -200.06257409818969,-26.259018227934856" stroke="#00f" stroke-linecap="round" stroke-linejoin="round"/><polyline fill="none" points="-121.0328271414858,25.62135190220611 -118.53282714147043,24.951478921153956 -116.7027001225221,23.121351902246296 -116.0328271414144,20.621351902245816 -116.70270012246655,18.12135190223045 -118.53282714137421,16.291224883282123 -121.0328271413747,15.621351902174416 -123.53282714139006,16.29122488322657 -125.36295416033839,18.12135190213423 -126.03282714144609,20.62135190213471 -125.36295416039394,23.121351902150074 -123.53282714148628,24.951478921098403 -121.0328271414858,25.62135190220611" stroke="#ffa500" stroke-linecap="round" stroke-linejoin="round"/><polyline fill="none" points="-120.34246641669169,-58.36367285133857 -117.84246641667633,-59.03354583239072 -116.012339397728,-60.86367285129838 -115.34246641662028,-63.363672851298865 -116.01233939767243,-65.86367285131423 -117.8424664165801,-67.69379987026257 -120.34246641658058,-68.36367285137028 -122.84246641659594,-67.69379987031813 -124.67259343554427,-65.86367285141047 -125.34246641665199,-63.36367285140999 -124.67259343559984,-60.86367285139462 -122.84246641669218,-59.033545832446286 -120.34246641669169,-58.36367285133858" stroke="#00f" stroke-linecap="round" stroke-linejoin="round"/><polyline fill="none" points="-174.42306798513678,-81.29730239394922 -171.9230679851214,-81.96717537500137 -170.09294096617307,-83.79730239390904 -169.42306798506536,-86.29730239390952 -170.0929409661175,-88.79730239392488 -171.92306798502517,-90.62742941287321 -174.42306798502565,-91.29730239398093 -176.92306798504103,-90.62742941292878 -178.75319500398936,-88.79730239402112 -179.42306798509708,-86.29730239402063 -178.75319500404493,-83.79730239400527 -176.92306798513727,-81.96717537505694 -174.42306798513678,-81.29730239394922" stroke="#ffa500" stroke-linecap="round" stroke-linejoin="round"/><polyline fill="none" points="-196.32931373864142,-11.003808191995482 -193.82931373862604,-11.673681173047628 -191.9991867196777,-13.503808191955283 -191.32931373857,-16.003808191955763 -191.99918671962214,-18.50380819197113 -193.8293137385298,-20.333935210919467 -196.3293137385303,-21.003808192027183 -198.82931373854566,-20.33393521097504 -200.659440757494,-18.503808192067385 -201.3293137386017,-16.003808192066906 -200.65944075754956,-13.503808192051535 -198.8293137386419,-11.6736811731032 -196.32931373864142,-11.003808191995484" stroke="#ffa500" stroke-linecap="round" stroke-linejoin="round"/><polyline fill="none" points="-207.4490613090288,-92.624211467862 -204.94906130901342,-93.29408444891415 -203.11893429006508,-95.12421146782181 -202.44906130895737,-97.62421146782229 -203.11893429000952,-100.12421146783767 -204.94906130891718,-101.954338486786 -207.44906130891766,-102.62421146789372 -209.94906130893304,-101.95433848684158 -211.77918832788137,-100.12421146793392 -212.4490613089891,-97.62421146793343 -211.77918832793694,-95.12421146791806 -209.94906130902928,-93.29408444896973 -207.4490613090288,-92.62421146786201" stroke="#ffa500" stroke-linecap="round" stroke-linejoin="round"/><polyline fill="none" points="-213.8059283779242,-94.57391713681798 -211.30592837790883,-95.24379011787012 -209.4758013589605,-97.07391713677778 -208.80592837785278,-99.57391713677826 -209.47580135890493,-102.07391713679364 -211.3059283778126,-103.90404415574199 -213.80592837781307,-104.5739171368497 -216.30592837782845,-103.90404415579756 -218.13605539677678,-102.07391713688992 -218.8059283778845,-99.57391713688943 -218.13605539683235,-97.07391713687406 -216.3059283779247,-95.24379011792571 -213.8059283779242,-94.573917136818" stroke="#00f" stroke-linecap="round" stroke-linejoin="round"/><polyline fill="none" points="-144.1793535429825,33.13724698628171 -141.67935354296714,32.46737400522957 -139.8492265240188,30.63724698632192 -139.1793535429111,28.137246986321436 -139.84922652396324,25.63724698630606 -141.6793535428709,23.807119967357718 -144.17935354287138,23.137246986249995 -146.67935354288676,23.807119967302135 -148.5094805618351,25.63724698620979 -149.1793535429428,28.137246986210272 -148.50948056189065,30.637246986225648 -146.679353542983,32.467374005173994 -144.1793535429825,33.13724698628172" stroke="#ffa500" stroke-linecap="round" stroke-linejoin="round"/><polyline fill="none" points="-210.6766267479693,-109.60057352038456 -208.17662674795392,-110.2704465014367 -206.3464997290056,-112.10057352034434 -205.67662674789787,-114.60057352034482 -206.34649972895,-117.1005735203602 -208.17662674785765,-118.93070053930855 -210.67662674785814,-119.60057352041628 -213.1766267478735,-118.93070053936414 -215.00675376682184,-117.10057352045649 -215.67662674792956,-114.60057352045601 -215.00675376687744,-112.10057352044063 -213.17662674796978,-110.27044650149229 -210.6766267479693,-109.60057352038456" stroke="#ffa500" stroke-linecap="round" stroke-linejoin="round"/><polyline fill="none" points="62.75317200213505,10.944656937809938 65.25317200215044,10.274783956757803 67.08329902109878,8.444656937850153 67.75317200220651,5.944656937849672 67.08329902115437,3.4446569378342935 65.25317200224673,1.6145299188859459 62.753172002246245,0.9446569377782168 60.25317200223087,1.614529918830351 58.42304498328252,3.4446569377380003 57.75317200217479,5.944656937738483 58.42304498322693,8.444656937753862 60.253172002134576,10.274783956702212 62.75317200213506,10.944656937809942" stroke="#ffa500" stroke-linecap="round" stroke-linejoin="round"/><polyline fill="none" points="-139.2051788427573,-7.570839371454259 -136.70517884274193,-8.240712352506392 -134.87505182379357,-10.070839371414042 -134.20517884268583,-12.570839371414525 -134.87505182373795,-15.070839371429905 -136.7051788426456,-16.900966390378255 -139.2051788426461,-17.570839371485988 -141.70517884266147,-16.900966390433858 -143.53530586160983,-15.07083937152621 -144.20517884271757,-12.570839371525729 -143.53530586166545,-10.070839371510349 -141.7051788427578,-8.240712352561998 -139.2051788427573,-7.570839371454264" stroke="#00f" stroke-linecap="round" stroke-linejoin="round"/><polyline fill="none" points="-194.9106970389148,-56.96793588703732 -192.41069703889943,-57.63780886808945 -190.58057001995107,-59.4679358869971 -189.91069703884332,-61.96793588699758 -190.58057001989545,-64.46793588701296 -192.4106970388031,-66.2980629059613 -194.9106970388036,-66.96793588706903 -197.41069703881897,-66.29806290601691 -199.24082405776733,-64.46793588710926 -199.91069703887507,-61.96793588710878 -199.24082405782295,-59.4679358870934 -197.41069703891532,-57.637808868145044 -194.91069703891483,-56.96793588703731" stroke="#00f" stroke-linecap="round" stroke-linejoin="round"/><polyline fill="none" points="-210.5816855253343,-83.26368761195322 -208.08168552531893,-83.93356059300534 -206.25155850637057,-85.76368761191299 -205.58168552526283,-88.26368761191347 -206.25155850631495,-90.76368761192884 -208.08168552522258,-92.5938146308772 -210.58168552522307,-93.26368761198495 -213.08168552523844,-92.59381463093283 -214.9118125441868,-90.76368761202518 -215.58168552529455,-88.2636876120247 -214.91181254424242,-85.7636876120093 -213.0816855253348,-83.93356059306095 -210.5816855253343,-83.2636876119532" stroke="#00f" stroke-linecap="round" stroke-linejoin="round"/><polyline fill="none" points="-104.83516621124055,97.22699421425214 -102.33516621122516,96.55712123320002 -100.5050391922768,94.72699421429238 -99.83516621116905,92.22699421429189 -100.50503919222118,89.7269942142765 -102.33516621112882,87.89686719532814 -104.8351662111293,87.2269942142204 -107.3351662111447,87.89686719527252 -109.16529323009306,89.72699421418017 -109.8351662112008,92.22699421418065 -109.16529323014868,94.72699421419604 -107.33516621124103,96.5571212331444 -104.83516621124055,97.22699421425214" stroke="#ffa500" stroke-linecap="round" stroke-linejoin="round"/><polyline fill="none" points="-223.57164396506982,-84.54335456631696 -221.07164396505445,-85.21322754736909 -219.2415169461061,-87.04335456627673 -218.57164396499834,-89.54335456627722 -219.24151694605047,-92.0433545662926 -221.0716439649581,-93.87348158524097 -223.57164396495858,-94.54335456634871 -226.07164396497396,-93.87348158529659 -227.90177098392232,-92.04335456638894 -228.57164396503006,-89.54335456638846 -227.90177098397794,-87.04335456637307 -226.0716439650703,-85.21322754742471 -223.57164396506982,-84.54335456631696" stroke="#ffa500" stroke-linecap="round" stroke-linejoin="round"/><polyline fill="none" points="-69.73323865679531,60.493367431970405 -67.23323865677992,59.82349445091828 -65.40311163783156,57.99336743201064 -64.73323865672381,55.49336743201016 -65.40311163777594,52.99336743199477 -67.23323865668358,51.16324041304641 -69.73323865668407,50.493367431938665 -72.23323865669946,51.16324041299078 -74.06336567564782,52.99336743189842 -74.73323865675556,55.4933674318989 -74.06336567570344,57.993367431914294 -72.23323865679579,59.823494450862654 -69.73323865679531,60.493367431970405" stroke="#ffa500" stroke-linecap="round" stroke-linejoin="round"/><polyline fill="none" points="-109.77604027501853,97.97867880203614 -107.27604027500314,97.30880582098402 -105.44591325605478,95.47867880207637 -104.77604027494704,92.97867880207589 -105.44591325599916,90.4786788020605 -107.2760402749068,88.64855178311214 -109.77604027490729,87.9786788020044 -112.27604027492268,88.64855178305652 -114.10616729387104,90.47867880196416 -114.77604027497878,92.97867880196465 -114.10616729392666,95.47867880198004 -112.27604027501901,97.3088058209284 -109.77604027501853,97.97867880203614" stroke="#ffa500" stroke-linecap="round" stroke-linejoin="round"/><polyline fill="none" points="-126.56477317616596,-38.9612032842914 -124.06477317615057,-39.631076265343516 -122.2346461572022,-41.461203284251155 -121.56477317609446,-43.96120328425164 -122.23464615714657,-46.46120328426703 -124.0647731760542,-48.291330303215396 -126.56477317605469,-48.96120328432315 -129.06477317607008,-48.29133030327103 -130.89490019501844,-46.46120328436339 -131.56477317612618,-43.96120328436291 -130.89490019507406,-41.46120328434752 -129.06477317616643,-39.63107626539915 -126.56477317616594,-38.9612032842914" stroke="#00f" stroke-linecap="round" stroke-linejoin="round"/><polyline fill="none" points="-225.03363196887105,-102.8170744671566 -222.53363196885564,-103.48694744820871 -220.70350494990728,-105.31707446711634 -220.03363196879954,-107.81707446711683 -220.70350494985166,-110.31707446713222 -222.5336319687593,-112.14720148608059 -225.03363196875978,-112.81707446718835 -227.53363196877518,-112.14720148613624 -229.36375898772354,-110.31707446722861 -230.0336319688313,-107.81707446722812 -229.36375898777916,-105.31707446721273 -227.53363196887153,-103.48694744826436 -225.03363196887105,-102.8170744671566" stroke="#00f" stroke-linecap="round" stroke-linejoin="round"/><polyline fill="none" points="-196.5944165527386,-108.10700915986942 -194.0944165527232,-108.77688214092153 -192.26428953377484,-110.60700915982916 -191.5944165526671,-113.10700915982964 -192.26428953371922,-115.60700915984503 -194.09441655262685,-117.43713617879341 -196.59441655262734,-118.10700915990117 -199.09441655264274,-117.43713617884906 -200.9245435715911,-115.60700915994143 -201.59441655269885,-113.10700915994094 -200.92454357164672,-110.60700915992555 -199.0944165527391,-108.77688214097718 -196.5944165527386,-108.10700915986942" stroke="#ffa500" stroke-linecap="round" stroke-linejoin="round"/><polyline fill="none" points="-149.70187708766002,32.20295675350731 -147.20187708764462,31.5330837724552 -145.37175006869626,29.702956753547564 -144.70187708758849,27.20295675354708 -145.37175006864058,24.702956753531687 -147.2018770875482,22.872829734583313 -149.7018770875487,22.20295675347555 -152.2018770875641,22.872829734527656 -154.0320041065125,24.702956753435288 -154.70187708762026,27.20295675343577 -154.03200410656817,29.702956753451165 -152.20187708766053,31.533083772399543 -149.70187708766005,32.20295675350731" stroke="#ffa500" stroke-linecap="round" stroke-linejoin="round"/><polyline fill="none" points="-110.28428035324332,92.03516990328616 -107.78428035322793,91.36529692223405 -105.95415333427955,89.53516990332642 -105.2842803531718,87.03516990332594 -105.9541533342239,84.53516990331055 -107.78428035313154,82.70504288436217 -110.28428035313202,82.03516990325441 -112.78428035314741,82.70504288430652 -114.61440737209578,84.53516990321415 -115.28428035320354,87.03516990321464 -114.61440737215143,89.53516990323003 -112.7842803532438,91.3652969221784 -110.28428035324332,92.03516990328616" stroke="#ffa500" stroke-linecap="round" stroke-linejoin="round"/><polyline fill="none" points="-174.50445094658517,8.678148236551195 -172.00445094656976,8.008275255499091 -170.17432392762137,6.1781482365914595 -169.5044509465136,3.6781482365909772 -170.1743239275657,1.1781482365755802 -172.00445094647333,-0.6519787823727998 -174.5044509464738,-1.3218517634805662 -177.00445094648921,-0.6519787824284643 -178.8345779654376,1.1781482364791667 -179.50445094654538,3.6781482364796485 -178.83457796549328,6.178148236495046 -177.00445094658565,8.008275255443428 -174.50445094658517,8.678148236551195" stroke="#00f" stroke-linecap="round" stroke-linejoin="round"/><polyline fill="none" points="-195.84796645482766,-16.868966296086132 -193.34796645481225,-17.538839277138234 -191.51783943586386,-19.368966296045862 -190.8479664547561,-21.868966296046345 -191.51783943580818,-24.368966296061743 -193.34796645471582,-26.199093315010124 -195.8479664547163,-26.868966296117893 -198.3479664547317,-26.199093315065795 -200.1780934736801,-24.368966296158167 -200.84796645478787,-21.868966296157684 -200.17809347373577,-19.368966296142283 -198.34796645482814,-17.5388392771939 -195.84796645482766,-16.868966296086132" stroke="#ffa500" stroke-linecap="round" stroke-linejoin="round"/><polyline fill="none" points="-198.91471334488637,-95.67333708669481 -196.41471334487096,-96.34321006774691 -194.58458632592257,-98.17333708665454 -193.9147133448148,-100.67333708665502 -194.5845863258669,-103.17333708667043 -196.41471334477453,-105.00346410561882 -198.914713344775,-105.67333708672659 -201.4147133447904,-105.0034641056745 -203.2448403637388,-103.17333708676686 -203.91471334484658,-100.67333708676638 -203.24484036379448,-98.17333708675098 -201.41471334488685,-96.34321006780259 -198.91471334488637,-95.67333708669481" stroke="#00f" stroke-linecap="round" stroke-linejoin="round"/><polyline fill="none" points="-217.7351387115286,-94.72577636370829 -215.2351387115132,-95.39564934476039 -213.4050116925648,-97.22577636366802 -212.73513871145704,-99.7257763636685 -213.40501169250913,-102.2257763636839 -215.23513871141677,-104.0559033826323 -217.73513871141725,-104.72577636374007 -220.23513871143265,-104.05590338268797 -222.06526573038104,-102.22577636378034 -222.73513871148882,-99.72577636377986 -222.06526573043672,-97.22577636376445 -220.2351387115291,-95.39564934481606 -217.7351387115286,-94.72577636370829" stroke="#ffa500" stroke-linecap="round" stroke-linejoin="round"/><polyline fill="none" points="-210.27958647651255,-87.75263401963932 -207.77958647649714,-88.42250700069141 -205.94945945754876,-90.25263401959904 -205.27958647644098,-92.75263401959953 -205.94945945749308,-95.25263401961493 -207.7795864764007,-97.08276103856332 -210.2795864764012,-97.75263401967109 -212.7795864764166,-97.082761038619 -214.60971349536499,-95.25263401971137 -215.27958647647276,-92.75263401971088 -214.60971349542066,-90.25263401969548 -212.77958647651303,-88.42250700074709 -210.27958647651255,-87.75263401963932" stroke="#008000" stroke-linecap="round" stroke-linejoin="round"/><polyline fill="none" points="-66.67277273492132,57.10683160639693 -64.17277273490592,56.436958625344836 -62.34264571595753,54.60683160643721 -61.67277273484975,52.10683160643673 -62.342645715901845,49.60683160642132 -64.17277273480947,47.776704587472935 -66.67277273480995,47.106831606365155 -69.17277273482536,47.77670458741725 -71.00289975377375,49.606831606324874 -71.67277273488153,52.10683160632536 -71.00289975382944,54.60683160634076 -69.17277273492181,56.43695862528916 -66.67277273492132,57.10683160639694" stroke="#ffa500" stroke-linecap="round" stroke-linejoin="round"/><polyline fill="none" points="62.09612186784237,-2.2478489196033618 64.59612186785778,-2.917721900655452 66.42624888680616,-4.747848919563077 67.09612186791395,-7.247848919563561 66.42624888686186,-9.747848919578967 64.59612186795424,-11.577975938527363 62.096121867953755,-12.247848919635146 59.59612186793835,-11.577975938583057 57.765994848989955,-9.747848919675432 57.09612186788217,-7.247848919674947 57.765994848934255,-4.747848919659539 59.59612186784188,-2.9177219007111423 62.09612186784236,-2.247848919603358" stroke="#ffa500" stroke-linecap="round" stroke-linejoin="round"/><polyline fill="none" points="-201.7606680346975,-97.29492736023353 -199.26066803468208,-97.96480034128562 -197.4305410157337,-99.79492736019324 -196.76066803462592,-102.29492736019373 -197.43054101567802,-104.79492736020913 -199.26066803458565,-106.62505437915753 -201.76066803458613,-107.29492736026532 -204.26066803460154,-106.62505437921324 -206.09079505354993,-104.79492736030562 -206.76066803465773,-102.29492736030514 -206.09079505360563,-99.79492736028973 -204.260668034698,-97.96480034134133 -201.76066803469752,-97.29492736023354" stroke="#ffa500" stroke-linecap="round" stroke-linejoin="round"/><polyline fill="none" points="-233.71031639833043,-80.3422592083849 -231.21031639831503,-81.01213218943698 -229.38018937936664,-82.8422592083446 -228.71031639825884,-85.34225920834508 -229.38018937931093,-87.84225920836049 -231.21031639821857,-89.67238622730889 -233.71031639821905,-90.34225920841668 -236.21031639823445,-89.6723862273646 -238.04044341718284,-87.84225920845698 -238.71031639829064,-85.3422592084565 -238.04044341723855,-82.84225920844109 -236.21031639833092,-81.01213218949269 -233.71031639833043,-80.3422592083849" stroke="#00f" stroke-linecap="round" stroke-linejoin="round"/><polyline fill="none" points="-203.358662585574,-118.13418696158878 -200.8586625855586,-118.80405994264086 -199.0285355666102,-120.63418696154848 -198.3586625855024,-123.13418696154896 -199.0285355665545,-125.63418696156438 -200.85866258546213,-127.46431398051278 -203.3586625854626,-128.13418696162057 -205.85866258547802,-127.46431398056849 -207.68878960442643,-125.63418696166087 -208.35866258553423,-123.13418696166039 -207.68878960448214,-120.63418696164497 -205.8586625855745,-118.80405994269657 -203.35866258557402,-118.13418696158878" stroke="#ffa500" stroke-linecap="round" stroke-linejoin="round"/><polyline fill="none" points="-202.9458460686865,-94.05344225968787 -200.4458460686711,-94.72331524073995 -198.61571904972268,-96.55344225964757 -197.94584606861488,-99.05344225964805 -198.61571904966695,-101.55344225966347 -200.44584606857458,-103.38356927861187 -202.94584606857507,-104.05344225971967 -205.44584606859047,-103.3835692786676 -207.2759730875389,-101.55344225975998 -207.9458460686467,-99.05344225975949 -207.27597308759462,-96.55344225974407 -205.445846068687,-94.72331524079567 -202.9458460686865,-94.05344225968787" stroke="#008000" stroke-linecap="round" stroke-linejoin="round"/><polyline fill="none" points="-146.87512977819426,26.553071428617102 -144.37512977817886,25.883198447565025 -142.54500275923044,24.053071428657407 -141.87512977812264,21.553071428656924 -142.5450027591747,19.05307142864151 -144.37512977808234,17.222944409693103 -146.87512977808282,16.553071428585305 -149.37512977809823,17.222944409637382 -151.20525679704664,19.053071428545 -151.87512977815445,21.553071428545483 -151.20525679710238,24.053071428560898 -149.37512977819478,25.883198447509308 -146.8751297781943,26.553071428617105" stroke="#ffa500" stroke-linecap="round" stroke-linejoin="round"/><polyline fill="none" points="-201.76745651979957,-20.434004147786645 -199.26745651978416,-21.10387712883872 -197.43732950083574,-22.93400414774634 -196.76745651972794,-25.434004147746826 -197.43732950078,-27.93400414776224 -199.2674565196876,-29.76413116671065 -201.7674565196881,-30.434004147818452 -204.2674565197035,-29.76413116676638 -206.09758353865192,-27.93400414785876 -206.76745651975972,-25.434004147858275 -206.09758353870765,-22.934004147842856 -204.26745651980005,-21.103877128894446 -201.76745651979957,-20.434004147786645" stroke="#ffa500" stroke-linecap="round" stroke-linejoin="round"/><polyline fill="none" points="-143.54318931773747,-80.45888338217858 -141.04318931772207,-81.12875636323066 -139.21306229877365,-82.95888338213828 -138.54318931766585,-85.45888338213877 -139.21306229871792,-87.95888338215418 -141.04318931762552,-89.7890104011026 -143.543189317626,-90.4588833822104 -146.0431893176414,-89.78901040115834 -147.87331633658982,-87.95888338225072 -148.54318931769762,-85.45888338225024 -147.87331633664556,-82.95888338223482 -146.04318931773795,-81.1287563632864 -143.54318931773747,-80.4588833821786" stroke="#ffa500" stroke-linecap="round" stroke-linejoin="round"/><polyline fill="none" points="-237.3540342810457,-97.54780322482198 -234.8540342810303,-98.21767620587404 -233.02390726208188,-100.04780322478166 -232.35403428097408,-102.54780322478214 -233.02390726202614,-105.04780322479756 -234.85403428093375,-106.87793024374598 -237.35403428093423,-107.54780322485378 -239.85403428094963,-106.87793024380171 -241.68416129989805,-105.0478032248941 -242.35403428100585,-102.54780322489361 -241.6841612999538,-100.0478032248782 -239.85403428104618,-98.21767620592978 -237.3540342810457,-97.54780322482198" stroke="#00f" stroke-linecap="round" stroke-linejoin="round"/><polyline fill="none" points="-166.47887498137132,-80.89949988237889 -163.9788749813559,-81.56937286343096 -162.14874796240747,-83.39949988233857 -161.47887498129967,-85.89949988233906 -162.14874796235173,-88.39949988235448 -163.97887498125934,-90.2296269013029 -166.47887498125982,-90.8994998824107 -168.97887498127525,-90.22962690135863 -170.80900200022367,-88.39949988245101 -171.47887498133147,-85.89949988245053 -170.8090020002794,-83.39949988243511 -168.9788749813718,-81.56937286348669 -166.47887498137132,-80.89949988237888" stroke="#00f" stroke-linecap="round" stroke-linejoin="round"/><polyline fill="none" points="-114.6847775963418,-34.15663517859016 -112.18477759632638,-34.82650815964222 -110.35465057737797,-36.656635178549834 -109.68477759627015,-39.15663517855032 -110.35465057732222,-41.656635178565736 -112.18477759622984,-43.48676219751415 -114.68477759623032,-44.15663517862196 -117.18477759624574,-43.486762197569895 -119.01490461519415,-41.656635178662285 -119.68477759630197,-39.1566351786618 -119.0149046152499,-36.65663517864638 -117.1847775963423,-34.826508159697966 -114.68477759634182,-34.15663517859015" stroke="#ffa500" stroke-linecap="round" stroke-linejoin="round"/><polyline fill="none" points="-172.49129757842107,-68.68693574643954 -169.99129757840564,-69.35680872749161 -168.16117055945722,-71.18693574639921 -167.49129757834942,-73.6869357463997 -168.16117055940148,-76.18693574641512 -169.9912975783091,-78.01706276536353 -172.49129757830957,-78.68693574647135 -174.991297578325,-78.01706276541928 -176.82142459727342,-76.18693574651168 -177.49129757838122,-73.6869357465112 -176.82142459732916,-71.18693574649578 -174.99129757842155,-69.35680872754736 -172.49129757842107,-68.68693574643954" stroke="#ffa500" stroke-linecap="round" stroke-linejoin="round"/><polyline fill="none" points="-196.46073007952293,-23.92429303442657 -193.9607300795075,-24.59416601547863 -192.13060306055908,-26.424293034386242 -191.46073007945125,-28.92429303438673 -192.13060306050332,-31.424293034402154 -193.96073007941092,-33.25442005335058 -196.4607300794114,-33.924293034458394 -198.96073007942684,-33.254420053406335 -200.79085709837526,-31.424293034498728 -201.46073007948308,-28.92429303449824 -200.79085709843102,-26.424293034482815 -198.96073007952342,-24.59416601553439 -196.46073007952293,-23.924293034426572" stroke="#ffa500" stroke-linecap="round" stroke-linejoin="round"/><polyline fill="none" points="-185.9178553685081,-82.36344179488322 -183.41785536849267,-83.03331477593527 -181.58772834954425,-84.86344179484287 -180.91785536843642,-87.36344179484335 -181.5877283494885,-89.86344179485879 -183.4178553683961,-91.69356881380722 -185.91785536839657,-92.36344179491503 -188.417855368412,-91.69356881386298 -190.24798238736042,-89.86344179495538 -190.91785536846825,-87.3634417949549 -190.2479823874162,-84.86344179493946 -188.41785536850858,-83.03331477599103 -185.9178553685081,-82.36344179488322" stroke="#00f" stroke-linecap="round" stroke-linejoin="round"/><polyline fill="none" points="-85.0763500473007,44.02688889574373 -82.57635004728527,43.35701591469167 -80.74622302833684,41.52688889578407 -80.07635004722903,39.026888895783586 -80.74622302828108,36.52688889576816 -82.57635004718868,34.69676187681973 -85.07635004718917,34.026888895711906 -87.5763500472046,34.69676187676396 -89.40647706615303,36.52688889567156 -90.07635004726086,39.026888895672045 -89.40647706620881,41.52688889568747 -87.5763500473012,43.3570159146359 -85.07635004730072,44.026888895743724" stroke="#00f" stroke-linecap="round" stroke-linejoin="round"/><polyline fill="none" points="-170.23024338853315,4.21755936280593 -167.73024338851772,3.5476863817538757 -165.90011636956928,1.7175593628462702 -165.23024338846145,-0.7824406371542161 -165.9001163695135,-3.282440637169646 -167.73024338842112,-5.112567656118079 -170.2302433884216,-5.782440637225904 -172.73024338843703,-5.112567656173852 -174.56037040738548,-3.2824406372662462 -175.2302433884933,-0.7824406372657595 -174.56037040744124,1.7175593627496712 -172.73024338853364,3.5476863816981057 -170.23024338853315,4.2175593628059325" stroke="#ffa500" stroke-linecap="round" stroke-linejoin="round"/><polyline fill="none" points="-207.88186037455446,-78.51899327086531 -205.38186037453903,-79.18886625191736 -203.55173335559059,-81.01899327082496 -202.88186037448276,-83.51899327082545 -203.5517333555348,-86.01899327084088 -205.3818603744424,-87.84912028978931 -207.88186037444288,-88.51899327089714 -210.3818603744583,-87.84912028984509 -212.21198739340676,-86.01899327093749 -212.8818603745146,-83.518993270937 -212.21198739346255,-81.01899327092157 -210.38186037455495,-79.18886625197314 -207.88186037455446,-78.51899327086531" stroke="#008000" stroke-linecap="round" stroke-linejoin="round"/><polyline fill="none" points="-233.7711478012547,-89.84621122558707 -231.27114780123927,-90.51608420663912 -229.44102078229082,-92.34621122554672 -228.771147801183,-94.84621122554721 -229.44102078223503,-97.34621122556264 -231.27114780114263,-99.17633824451107 -233.77114780114312,-99.8462112256189 -236.27114780115855,-99.17633824456685 -238.101274820107,-97.34621122565925 -238.77114780121482,-94.84621122565876 -238.10127482016279,-92.34621122564333 -236.27114780125518,-90.51608420669488 -233.7711478012547,-89.84621122558706" stroke="#ffa500" stroke-linecap="round" stroke-linejoin="round"/><polyline fill="none" points="268.4116141150066,-131.3589478926029 270.9116141150221,-132.02882087365495 272.7417411339705,-133.85894789256255 273.41161411507835,-136.35894789256304 272.7417411340263,-138.85894789257847 270.9116141151187,-140.68907491152692 268.4116141151182,-141.35894789263475 265.91161411510274,-140.6890749115827 264.0814870961543,-138.8589478926751 263.41161411504646,-136.35894789267462 264.0814870960985,-133.8589478926592 265.9116141150061,-132.02882087371074 268.4116141150066,-131.3589478926029" stroke="#ffa500" stroke-linecap="round" stroke-linejoin="round"/></svg>