<?xml version="1.0" ?><!DOCTYPE svg  PUBLIC '-//W3C//DTD SVG 1.1//EN'  'http://www.w3.org/Graphics/SVG/1.1/DTD/svg11.dtd'><svg height="379.000" viewBox="-716.000 -366.000 729.000 379.000" width="729.000" xmlns="http://www.w3.org/2000/svg"><line fill="none" stroke="none" stroke-linecap="round" stroke-width="2.0" x1="0.0" x2="0.0" y1="0.0" y2="0.0"/><polygon fill="none" fill-rule="evenodd" points="0.0,0.0 0.0,0.0 0.0,0.0" stroke-linejoin="round"/><polyline fill="none" points="-670.5669357918263,-344.99418517367593 -668.0669357918263,-345.6640581547537 -666.236808772904,-347.49418517367593 -665.5669357918263,-349.99418517367593 -666.236808772904,-352.49418517367593 -668.0669357918263,-354.32431219259814 -670.5669357918263,-354.99418517367593 -673.0669357918263,-354.32431219259814 -674.8970628107485,-352.49418517367593 -675.5669357918263,-349.99418517367593 -674.8970628107485,-347.49418517367593 -673.0669357918263,-345.6640581547537 -670.5669357918263,-344.99418517367593" stroke="#ffa500" stroke-linecap="round" stroke-linejoin="round"/><polyline fill="none" points="-629.3256097483905,-241.09965442149607 -626.8256097483905,-241.76952740257389 -624.9954827294683,-243.59965442149607 -624.3256097483905,-246.09965442149607 -624.9954827294683,-248.59965442149607 -626.8256097483905,-250.42978144041825 -629.3256097483905,-251.09965442149607 -631.8256097483905,-250.42978144041825 -633.6557367673128,-248.59965442149607 -634.3256097483905,-246.09965442149607 -633.6557367673128,-243.59965442149607 -631.8256097483905,-241.76952740257389 -629.3256097483905,-241.09965442149607" stroke="#ffa500" stroke-linecap="round" stroke-linejoin="round"/><polyline fill="none" points="-690.1505140350249,-344.34114221307317 -687.6505140350249,-345.01101519415096 -685.8203870161027,-346.84114221307317 -685.1505140350249,-349.34114221307317 -685.8203870161027,-351.84114221307317 -687.6505140350249,-353.6712692319954 -690.1505140350249,-354.34114221307317 -692.6505140350249,-353.6712692319954 -694.4806410539471,-351.84114221307317 -695.1505140350249,-349.34114221307317 -694.4806410539471,-346.84114221307317 -692.6505140350249,-345.01101519415096 -690.1505140350249,-344.34114221307317" stroke="#00f" stroke-linecap="round" stroke-linejoin="round"/><polyline fill="none" points="-699.7738752463953,-261.6672838295592 -697.2738752463953,-262.337156810637 -695.4437482274731,-264.1672838295592 -694.7738752463953,-266.6672838295592 -695.4437482274731,-269.1672838295592 -697.2738752463953,-270.9974108484814 -699.7738752463953,-271.66728382955927 -702.2738752463953,-270.9974108484815 -704.1040022653175,-269.16728382955927 -704.7738752463953,-266.66728382955927 -704.1040022653175,-264.16728382955927 -702.2738752463953,-262.33715681063705 -699.7738752463953,-261.6672838295592" stroke="#ffa500" stroke-linecap="round" stroke-linejoin="round"/><polyline fill="none" points="-699.6324425458836,-321.3114543884978 -697.1324425458836,-321.9813273695756 -695.3023155269614,-323.8114543884978 -694.6324425458836,-326.3114543884978 -695.3023155269614,-328.8114543884978 -697.1324425458836,-330.64158140742 -699.6324425458836,-331.31145438849785 -702.1324425458836,-330.64158140742006 -703.9625695648058,-328.81145438849785 -704.6324425458836,-326.31145438849785 -703.9625695648058,-323.81145438849785 -702.1324425458836,-321.98132736957564 -699.6324425458836,-321.3114543884978" stroke="#008000" stroke-linecap="round" stroke-linejoin="round"/><polyline fill="none" points="-664.8935271139164,-281.6677774090928 -662.3935271139164,-282.3376503901706 -660.5634000949942,-284.1677774090928 -659.8935271139164,-286.6677774090928 -660.5634000949942,-289.1677774090928 -662.3935271139164,-290.99790442801503 -664.8935271139164,-291.6677774090929 -667.3935271139164,-290.9979044280151 -669.2236541328386,-289.1677774090929 -669.8935271139164,-286.6677774090929 -669.2236541328386,-284.1677774090929 -667.3935271139164,-282.33765039017067 -664.8935271139164,-281.6677774090928" stroke="#ffa500" stroke-linecap="round" stroke-linejoin="round"/><polyline fill="none" points="-699.7172676212089,-299.07067403346144 -697.2172676212089,-299.74054701453923 -695.3871406022866,-301.57067403346144 -694.7172676212089,-304.07067403346144 -695.3871406022866,-306.57067403346144 -697.2172676212089,-308.40080105238366 -699.7172676212089,-309.0706740334615 -702.2172676212089,-308.4008010523837 -704.0473946401311,-306.57067403346156 -704.7172676212089,-304.07067403346156 -704.0473946401311,-301.57067403346156 -702.2172676212089,-299.74054701453935 -699.7172676212089,-299.0706740334615" stroke="#008000" stroke-linecap="round" stroke-linejoin="round"/><polyline fill="none" points="-619.5515584175821,-255.45926350357166 -617.0515584175821,-256.12913648464945 -615.2214313986599,-257.9592635035716 -614.5515584175821,-260.4592635035716 -615.2214313986599,-262.9592635035716 -617.0515584175821,-264.7893905224938 -619.5515584175821,-265.45926350357166 -622.0515584175821,-264.7893905224939 -623.8816854365043,-262.9592635035717 -624.5515584175821,-260.4592635035717 -623.8816854365043,-257.9592635035717 -622.0515584175821,-256.1291364846495 -619.5515584175821,-255.4592635035717" stroke="#ffa500" stroke-linecap="round" stroke-linejoin="round"/><polyline fill="none" points="-643.4295419719629,-268.5062492148351 -640.9295419719629,-269.1761221959129 -639.0994149530407,-271.00624921483507 -638.4295419719629,-273.50624921483507 -639.0994149530407,-276.00624921483507 -640.9295419719629,-277.8363762337573 -643.4295419719629,-278.5062492148351 -645.9295419719629,-277.83637623375733 -647.7596689908851,-276.0062492148352 -648.4295419719629,-273.5062492148352 -647.7596689908851,-271.0062492148352 -645.9295419719629,-269.17612219591297 -643.4295419719629,-268.5062492148351" stroke="#ffa500" stroke-linecap="round" stroke-linejoin="round"/><polyline fill="none" points="-699.7841006935835,-327.5047267590683 -697.2841006935835,-328.1745997401461 -695.4539736746613,-330.00472675906826 -694.7841006935835,-332.50472675906826 -695.4539736746613,-335.00472675906826 -697.2841006935835,-336.8348537779905 -699.7841006935835,-337.5047267590683 -702.2841006935835,-336.83485377799053 -704.1142277125057,-335.0047267590684 -704.7841006935835,-332.5047267590684 -704.1142277125057,-330.0047267590684 -702.2841006935835,-328.17459974014616 -699.7841006935835,-327.5047267590683" stroke="#00f" stroke-linecap="round" stroke-linejoin="round"/><polyline fill="none" points="-697.0879664778054,-266.9430637086545 -694.5879664778054,-267.6129366897323 -692.7578394588832,-269.44306370865445 -692.0879664778054,-271.94306370865445 -692.7578394588832,-274.44306370865445 -694.5879664778054,-276.27319072757666 -697.0879664778054,-276.9430637086545 -699.5879664778054,-276.2731907275767 -701.4180934967276,-274.44306370865456 -702.0879664778054,-271.94306370865456 -701.4180934967276,-269.44306370865456 -699.5879664778054,-267.61293668973235 -697.0879664778054,-266.9430637086545" stroke="#00f" stroke-linecap="round" stroke-linejoin="round"/><polyline fill="none" points="-699.9223026043769,-270.5008209263755 -697.4223026043769,-271.1706939074533 -695.5921755854547,-273.00082092637547 -694.9223026043769,-275.50082092637547 -695.5921755854547,-278.00082092637547 -697.4223026043769,-279.8309479452977 -699.9223026043769,-280.5008209263755 -702.4223026043769,-279.83094794529774 -704.2524296232991,-278.0008209263756 -704.9223026043769,-275.5008209263756 -704.2524296232991,-273.0008209263756 -702.4223026043769,-271.17069390745337 -699.9223026043769,-270.5008209263755" stroke="#00f" stroke-linecap="round" stroke-linejoin="round"/><polyline fill="none" points="-604.8068648330434,-302.3516481109365 -602.3068648330434,-303.02152109201427 -600.4767378141212,-304.8516481109364 -599.8068648330434,-307.3516481109364 -600.4767378141212,-309.8516481109364 -602.3068648330434,-311.68177512985864 -604.8068648330434,-312.3516481109365 -607.3068648330434,-311.6817751298587 -609.1369918519656,-309.85164811093654 -609.8068648330434,-307.35164811093654 -609.1369918519656,-304.85164811093654 -607.3068648330434,-303.0215210920143 -604.8068648330434,-302.3516481109365" stroke="#ffa500" stroke-linecap="round" stroke-linejoin="round"/><polyline fill="none" points="-679.8812314469824,-334.92957859606634 -677.3812314469824,-335.5994515771441 -675.5511044280602,-337.4295785960663 -674.8812314469824,-339.9295785960663 -675.5511044280602,-342.4295785960663 -677.3812314469824,-344.2597056149885 -679.8812314469824,-344.92957859606634 -682.3812314469824,-344.25970561498855 -684.2113584659046,-342.4295785960664 -684.8812314469824,-339.9295785960664 -684.2113584659046,-337.4295785960664 -682.3812314469824,-335.5994515771442 -679.8812314469824,-334.92957859606634" stroke="#ffa500" stroke-linecap="round" stroke-linejoin="round"/><polyline fill="none" points="-666.7652111338604,-277.56856245975604 -664.2652111338604,-278.2384354408338 -662.4350841149381,-280.068562459756 -661.7652111338602,-282.568562459756 -662.435084114938,-285.068562459756 -664.2652111338602,-286.8986894786782 -666.7652111338602,-287.56856245975604 -669.2652111338602,-286.89868947867825 -671.0953381527825,-285.0685624597561 -671.7652111338604,-282.5685624597561 -671.0953381527826,-280.0685624597561 -669.2652111338604,-278.2384354408339 -666.7652111338604,-277.56856245975604" stroke="#ffa500" stroke-linecap="round" stroke-linejoin="round"/><polyline fill="none" points="-699.4883964728068,-303.96405985257627 -696.9883964728068,-304.63393283365406 -695.1582694538846,-306.4640598525762 -694.4883964728067,-308.9640598525762 -695.1582694538845,-311.4640598525762 -696.9883964728067,-313.2941868714984 -699.4883964728067,-313.96405985257627 -701.9883964728067,-313.2941868714985 -703.8185234917289,-311.4640598525763 -704.4883964728068,-308.9640598525763 -703.818523491729,-306.4640598525763 -701.9883964728068,-304.6339328336541 -699.4883964728068,-303.96405985257627" stroke="#00f" stroke-linecap="round" stroke-linejoin="round"/><polyline fill="none" points="-602.8842982399386,-324.7129493833482 -600.3842982399386,-325.382822364426 -598.5541712210164,-327.21294938334813 -597.8842982399385,-329.71294938334813 -598.5541712210163,-332.21294938334813 -600.3842982399385,-334.04307640227034 -602.8842982399385,-334.7129493833482 -605.3842982399385,-334.0430764022704 -607.2144252588607,-332.21294938334825 -607.8842982399386,-329.71294938334825 -607.2144252588608,-327.21294938334825 -605.3842982399386,-325.38282236442603 -602.8842982399386,-324.7129493833482" stroke="#ffa500" stroke-linecap="round" stroke-linejoin="round"/><polyline fill="none" points="-699.5852807001833,-344.59717213948164 -697.0852807001833,-345.26704512055943 -695.255153681261,-347.0971721394816 -694.5852807001831,-349.5971721394816 -695.2551536812609,-352.0971721394816 -697.0852807001831,-353.9272991584038 -699.5852807001831,-354.59717213948164 -702.0852807001831,-353.92729915840386 -703.9154077191054,-352.0971721394817 -704.5852807001833,-349.5971721394817 -703.9154077191055,-347.0971721394817 -702.0852807001833,-345.2670451205595 -699.5852807001833,-344.59717213948164" stroke="#00f" stroke-linecap="round" stroke-linejoin="round"/><polyline fill="none" points="-659.927056914799,-258.1643485801309 -657.427056914799,-258.83422156120866 -655.5969298958768,-260.6643485801308 -654.9270569147989,-263.1643485801308 -655.5969298958767,-265.6643485801308 -657.4270569147989,-267.49447559905303 -659.9270569147989,-268.1643485801309 -662.4270569147989,-267.4944755990531 -664.2571839337211,-265.66434858013093 -664.927056914799,-263.16434858013093 -664.2571839337212,-260.66434858013093 -662.427056914799,-258.8342215612087 -659.927056914799,-258.1643485801309" stroke="#00f" stroke-linecap="round" stroke-linejoin="round"/><polyline fill="none" points="-681.0385579389971,-344.52300308617595 -678.5385579389971,-345.19287606725374 -676.7084309200749,-347.0230030861759 -676.038557938997,-349.5230030861759 -676.7084309200748,-352.0230030861759 -678.538557938997,-353.8531301050981 -681.038557938997,-354.52300308617595 -683.538557938997,-353.85313010509816 -685.3686849579192,-352.023003086176 -686.0385579389971,-349.523003086176 -685.3686849579193,-347.023003086176 -683.5385579389971,-345.1928760672538 -681.0385579389971,-344.52300308617595" stroke="#00f" stroke-linecap="round" stroke-linejoin="round"/><polyline fill="none" points="-662.152375053789,-344.16484692031486 -659.652375053789,-344.83471990139265 -657.8222480348668,-346.6648469203148 -657.1523750537889,-349.1648469203148 -657.8222480348667,-351.66484692031486 -659.6523750537889,-353.4949739392371 -662.1523750537889,-354.164846920315 -664.6523750537889,-353.4949739392372 -666.4825020727111,-351.66484692031503 -667.152375053789,-349.16484692031503 -666.4825020727112,-346.664846920315 -664.652375053789,-344.8347199013927 -662.152375053789,-344.16484692031486" stroke="#ffa500" stroke-linecap="round" stroke-linejoin="round"/><polyline fill="none" points="-682.6556855789553,-315.9871926057887 -680.1556855789553,-316.65706558686645 -678.3255585600331,-318.4871926057886 -677.6556855789552,-320.9871926057886 -678.325558560033,-323.48719260578866 -680.1556855789552,-325.31731962471093 -682.6556855789552,-325.9871926057888 -685.1556855789552,-325.31731962471105 -686.9858125978774,-323.4871926057889 -687.6556855789553,-320.9871926057889 -686.9858125978775,-318.48719260578883 -685.1556855789553,-316.65706558686657 -682.6556855789553,-315.9871926057887" stroke="#00f" stroke-linecap="round" stroke-linejoin="round"/><polyline fill="none" points="-699.1038353209926,-340.18496548667616 -696.6038353209926,-340.8548384677539 -694.7737083020704,-342.68496548667605 -694.1038353209925,-345.18496548667605 -694.7737083020703,-347.6849654866761 -696.6038353209925,-349.5150925055984 -699.1038353209925,-350.1849654866762 -701.6038353209925,-349.5150925055985 -703.4339623399147,-347.68496548667633 -704.1038353209926,-345.18496548667633 -703.4339623399148,-342.6849654866763 -701.6038353209926,-340.854838467754 -699.1038353209926,-340.18496548667616" stroke="#00f" stroke-linecap="round" stroke-linejoin="round"/><polyline fill="none" points="-689.8217622098153,-344.3653729004717 -687.3217622098153,-345.03524588154943 -685.4916351908931,-346.8653729004716 -684.8217622098152,-349.3653729004716 -685.491635190893,-351.86537290047164 -687.3217622098152,-353.6954999193939 -689.8217622098152,-354.36537290047175 -692.3217622098152,-353.695499919394 -694.1518892287374,-351.86537290047187 -694.8217622098153,-349.36537290047187 -694.1518892287376,-346.8653729004718 -692.3217622098153,-345.03524588154954 -689.8217622098153,-344.3653729004717" stroke="#ffa500" stroke-linecap="round" stroke-linejoin="round"/><polyline fill="none" points="-665.6088220629963,-344.4044453699084 -663.1088220629963,-345.0743183509861 -661.2786950440741,-346.9044453699083 -660.6088220629962,-349.4044453699083 -661.278695044074,-351.90444536990833 -663.1088220629962,-353.7345723888306 -665.6088220629962,-354.40444536990844 -668.1088220629962,-353.7345723888307 -669.9389490819184,-351.90444536990856 -670.6088220629963,-349.40444536990856 -669.9389490819185,-346.9044453699085 -668.1088220629963,-345.07431835098623 -665.6088220629963,-344.40444536990833" stroke="#ffa500" stroke-linecap="round" stroke-linejoin="round"/><polyline fill="none" points="-645.5430298951896,-236.91176480919023 -643.0430298951896,-237.581637790268 -641.2129028762674,-239.41176480919015 -640.5430298951895,-241.91176480919015 -641.2129028762673,-244.41176480919017 -643.0430298951895,-246.24189182811241 -645.5430298951895,-246.9117648091903 -648.0430298951895,-246.24189182811253 -649.8731569141117,-244.41176480919037 -650.5430298951896,-241.91176480919037 -649.8731569141119,-239.41176480919034 -648.0430298951896,-237.5816377902681 -645.5430298951896,-236.91176480919023" stroke="#ffa500" stroke-linecap="round" stroke-linejoin="round"/><polyline fill="none" points="-657.1637833943186,-260.2194671531865 -654.6637833943186,-260.8893401342642 -652.8336563753963,-262.7194671531864 -652.1637833943184,-265.2194671531864 -652.8336563753962,-267.71946715318643 -654.6637833943184,-269.5495941721087 -657.1637833943184,-270.2194671531866 -659.6637833943184,-269.54959417210887 -661.4939104132407,-267.7194671531867 -662.1637833943186,-265.2194671531867 -661.4939104132408,-262.71946715318666 -659.6637833943186,-260.8893401342644 -657.1637833943186,-260.2194671531865" stroke="#ffa500" stroke-linecap="round" stroke-linejoin="round"/><polyline fill="none" points="-693.6799274699309,-279.165602189303 -691.1799274699309,-279.83547517038073 -689.3498004510087,-281.6656021893029 -688.6799274699308,-284.1656021893029 -689.3498004510086,-286.66560218930294 -691.1799274699308,-288.4957292082252 -693.6799274699308,-289.1656021893031 -696.1799274699308,-288.4957292082254 -698.010054488853,-286.66560218930323 -698.6799274699309,-284.16560218930323 -698.0100544888531,-281.6656021893032 -696.1799274699309,-279.8354751703809 -693.6799274699309,-279.165602189303" stroke="#00f" stroke-linecap="round" stroke-linejoin="round"/><polyline fill="none" points="-619.1761063013249,-266.8788952359221 -616.6761063013249,-267.5487682169998 -614.8459792824027,-269.37889523592196 -614.1761063013248,-271.87889523592196 -614.8459792824026,-274.378895235922 -616.6761063013248,-276.2090222548443 -619.1761063013248,-276.8788952359222 -621.6761063013248,-276.20902225484446 -623.506233320247,-274.3788952359223 -624.1761063013249,-271.8788952359223 -623.5062333202471,-269.37889523592224 -621.676106301325,-267.548768217 -619.176106301325,-266.8788952359221" stroke="#ffa500" stroke-linecap="round" stroke-linejoin="round"/><polyline fill="none" points="-603.0037034759919,-343.67957715381516 -600.5037034759919,-344.3494501348929 -598.6735764570697,-346.17957715381505 -598.0037034759918,-348.67957715381505 -598.6735764570695,-351.1795771538151 -600.5037034759916,-353.0097041727374 -603.0037034759916,-353.6795771538153 -605.5037034759916,-353.00970417273754 -607.3338304949139,-351.1795771538154 -608.0037034759918,-348.6795771538154 -607.333830494914,-346.17957715381533 -605.5037034759919,-344.34945013489306 -603.0037034759919,-343.67957715381516" stroke="#ffa500" stroke-linecap="round" stroke-linejoin="round"/><polyline fill="none" points="-676.5186286624463,-295.4656813147842 -674.0186286624463,-296.13555429586194 -672.1885016435241,-297.9656813147841 -671.5186286624462,-300.4656813147841 -672.188501643524,-302.96568131478415 -674.0186286624461,-304.7958083337064 -676.5186286624461,-305.4656813147843 -679.0186286624461,-304.7958083337066 -680.8487556813683,-302.96568131478443 -681.5186286624462,-300.46568131478443 -680.8487556813684,-297.9656813147844 -679.0186286624463,-296.1355542958621 -676.5186286624463,-295.4656813147842" stroke="#ffa500" stroke-linecap="round" stroke-linejoin="round"/><polyline fill="none" points="-660.5637354046171,-344.8404411532853 -658.0637354046171,-345.51031413436306 -656.2336083856949,-347.3404411532852 -655.563735404617,-349.8404411532852 -656.2336083856948,-352.34044115328527 -658.0637354046169,-354.17056817220754 -660.5637354046169,-354.84044115328544 -663.0637354046169,-354.1705681722077 -664.8938624235391,-352.34044115328555 -665.563735404617,-349.84044115328555 -664.8938624235392,-347.3404411532855 -663.0637354046171,-345.5103141343632 -660.5637354046171,-344.8404411532853" stroke="#ffa500" stroke-linecap="round" stroke-linejoin="round"/><polyline fill="none" points="-699.3087073659541,-328.56915955056314 -696.8087073659541,-329.2390325316409 -694.9785803470318,-331.06915955056303 -694.3087073659539,-333.56915955056303 -694.9785803470317,-336.0691595505631 -696.8087073659538,-337.89928656948535 -699.3087073659538,-338.56915955056326 -701.8087073659538,-337.8992865694855 -703.6388343848761,-336.06915955056337 -704.308707365954,-333.56915955056337 -703.6388343848763,-331.0691595505633 -701.8087073659542,-329.23903253164104 -699.3087073659542,-328.56915955056314" stroke="#008000" stroke-linecap="round" stroke-linejoin="round"/><polyline fill="none" points="-699.6432951109454,-300.44090026569177 -697.1432951109454,-301.1107732467695 -695.313168092023,-302.94090026569165 -694.6432951109451,-305.44090026569165 -695.3131680920228,-307.9409002656917 -697.1432951109449,-309.771027284614 -699.6432951109449,-310.4409002656919 -702.1432951109449,-309.77102728461415 -703.9734221298672,-307.940900265692 -704.6432951109451,-305.440900265692 -703.9734221298675,-302.94090026569194 -702.1432951109454,-301.11077324676967 -699.6432951109454,-300.44090026569177" stroke="#00f" stroke-linecap="round" stroke-linejoin="round"/><polyline fill="none" points="-699.7052508117144,-170.09353237965 -697.2052508117144,-170.76340536072772 -695.3751237927921,-172.59353237964987 -694.7052508117142,-175.09353237964987 -695.3751237927919,-177.59353237964993 -697.205250811714,-179.4236593985722 -699.705250811714,-180.0935323796501 -702.205250811714,-179.42365939857237 -704.0353778306363,-177.5935323796502 -704.7052508117142,-175.0935323796502 -704.0353778306365,-172.59353237965016 -702.2052508117144,-170.7634053607279 -699.7052508117144,-170.09353237965" stroke="#ffa500" stroke-linecap="round" stroke-linejoin="round"/><polyline fill="none" points="-685.9873506525051,-303.92805992192996 -683.4873506525051,-304.5979329030077 -681.6572236335828,-306.42805992192984 -680.9873506525049,-308.92805992192984 -681.6572236335826,-311.4280599219299 -683.4873506525047,-313.25818694085217 -685.9873506525047,-313.92805992193007 -688.4873506525047,-313.25818694085234 -690.317477671427,-311.4280599219302 -690.9873506525049,-308.9280599219302 -690.3174776714272,-306.4280599219301 -688.4873506525051,-304.59793290300786 -685.9873506525051,-303.92805992192996" stroke="#00f" stroke-linecap="round" stroke-linejoin="round"/><polyline fill="none" points="-638.436098292468,-275.69201256448633 -635.936098292468,-276.36188554556406 -634.1059712735457,-278.1920125644862 -633.4360982924678,-280.6920125644862 -634.1059712735455,-283.1920125644863 -635.9360982924676,-285.02213958340855 -638.4360982924676,-285.69201256448645 -640.9360982924676,-285.0221395834087 -642.7662253113899,-283.19201256448656 -643.4360982924678,-280.69201256448656 -642.7662253113901,-278.1920125644865 -640.936098292468,-276.36188554556423 -638.436098292468,-275.69201256448633" stroke="#ffa500" stroke-linecap="round" stroke-linejoin="round"/><polyline fill="none" points="-699.7388271884535,-276.5170196970981 -697.2388271884535,-277.1868926781758 -695.4087001695311,-279.01701969709796 -694.7388271884532,-281.51701969709796 -695.4087001695309,-284.017019697098 -697.238827188453,-285.8471467160203 -699.738827188453,-286.5170196970982 -702.238827188453,-285.84714671602046 -704.0689542073753,-284.0170196970983 -704.7388271884532,-281.5170196970983 -704.0689542073756,-279.01701969709825 -702.2388271884535,-277.186892678176 -699.7388271884535,-276.5170196970981" stroke="#ffa500" stroke-linecap="round" stroke-linejoin="round"/><polyline fill="none" points="-699.4904333486826,-292.2062788874362 -696.9904333486826,-292.87615186851394 -695.1603063297603,-294.7062788874361 -694.4904333486824,-297.2062788874361 -695.16030632976,-299.70627888743616 -696.9904333486821,-301.5364059063584 -699.4904333486821,-302.2062788874363 -701.9904333486821,-301.5364059063586 -703.8205603676045,-299.70627888743644 -704.4904333486824,-297.20627888743644 -703.8205603676047,-294.7062788874364 -701.9904333486826,-292.8761518685141 -699.4904333486826,-292.2062788874362" stroke="#ffa500" stroke-linecap="round" stroke-linejoin="round"/><polyline fill="none" points="-675.1442997521867,-228.9341649711573 -672.6442997521867,-229.604037952235 -670.8141727332644,-231.43416497115714 -670.1442997521865,-233.93416497115714 -670.8141727332642,-236.4341649711572 -672.6442997521863,-238.2642919900795 -675.1442997521863,-238.9341649711574 -677.6442997521863,-238.2642919900797 -679.4744267711086,-236.43416497115757 -680.1442997521865,-233.93416497115757 -679.4744267711088,-231.43416497115751 -677.6442997521867,-229.60403795223522 -675.1442997521867,-228.93416497115732" stroke="#ffa500" stroke-linecap="round" stroke-linejoin="round"/><polyline fill="none" points="-699.6597070257758,-290.5764938661382 -697.1597070257758,-291.24636684721594 -695.3295800068535,-293.0764938661381 -694.6597070257756,-295.5764938661381 -695.3295800068532,-298.07649386613815 -697.1597070257753,-299.9066208850604 -699.6597070257753,-300.5764938661383 -702.1597070257753,-299.9066208850606 -703.9898340446977,-298.07649386613843 -704.6597070257756,-295.57649386613843 -703.9898340446979,-293.0764938661384 -702.1597070257758,-291.2463668472161 -699.6597070257758,-290.5764938661382" stroke="#ffa500" stroke-linecap="round" stroke-linejoin="round"/><polyline fill="none" points="-680.6044966865019,-335.3233258581823 -678.1044966865018,-335.99319883926 -676.2743696675794,-337.82332585818216 -675.6044966865015,-340.32332585818216 -676.2743696675792,-342.8233258581822 -678.1044966865013,-344.6534528771045 -680.6044966865013,-345.3233258581824 -683.1044966865014,-344.65345287710466 -684.9346237054237,-342.8233258581825 -685.6044966865016,-340.3233258581825 -684.934623705424,-337.82332585818244 -683.1044966865019,-335.9931988392602 -680.6044966865019,-335.3233258581823" stroke="#ffa500" stroke-linecap="round" stroke-linejoin="round"/><polyline fill="none" points="-663.5244049859839,-241.52032472472126 -661.0244049859838,-242.19019770579897 -659.1942779670615,-244.0203247247211 -658.5244049859836,-246.5203247247211 -659.1942779670612,-249.02032472472115 -661.0244049859833,-250.85045174364345 -663.5244049859833,-251.52032472472138 -666.0244049859834,-250.85045174364367 -667.8545320049058,-249.02032472472155 -668.5244049859837,-246.52032472472155 -667.854532004906,-244.0203247247215 -666.0244049859839,-242.1901977057992 -663.5244049859839,-241.52032472472126" stroke="#ffa500" stroke-linecap="round" stroke-linejoin="round"/><polyline fill="none" points="-611.873628468891,-292.41907886157856 -609.3736284688908,-293.0889518426563 -607.5435014499685,-294.91907886157844 -606.8736284688906,-297.41907886157844 -607.5435014499683,-299.9190788615785 -609.3736284688904,-301.74920588050077 -611.8736284688904,-302.41907886157867 -614.3736284688905,-301.74920588050094 -616.2037554878128,-299.9190788615788 -616.8736284688907,-297.4190788615788 -616.203755487813,-294.9190788615787 -614.373628468891,-293.08895184265646 -611.873628468891,-292.41907886157856" stroke="#ffa500" stroke-linecap="round" stroke-linejoin="round"/><polyline fill="none" points="-672.9925589335683,-330.28360896050805 -670.4925589335681,-330.9534819415858 -668.6624319146458,-332.78360896050793 -667.9925589335679,-335.28360896050793 -668.6624319146456,-337.783608960508 -670.4925589335677,-339.6137359794303 -672.9925589335677,-340.2836089605082 -675.4925589335678,-339.6137359794305 -677.3226859524901,-337.78360896050833 -677.992558933568,-335.28360896050833 -677.3226859524904,-332.7836089605083 -675.4925589335683,-330.95348194158595 -672.9925589335683,-330.28360896050805" stroke="#ffa500" stroke-linecap="round" stroke-linejoin="round"/><polyline fill="none" points="-655.9973424170823,-298.87779847948605 -653.4973424170822,-299.5476714605637 -651.6672153981599,-301.3777984794859 -650.997342417082,-303.8777984794859 -651.6672153981597,-306.37779847948593 -653.4973424170818,-308.20792549840826 -655.9973424170818,-308.87779847948616 -658.4973424170819,-308.2079254984085 -660.3274694360042,-306.37779847948633 -660.9973424170821,-303.87779847948633 -660.3274694360044,-301.3777984794863 -658.4973424170823,-299.54767146056395 -655.9973424170823,-298.877798479486" stroke="#ffa500" stroke-linecap="round" stroke-linejoin="round"/><polyline fill="none" points="-646.405288000791,-241.11896565760543 -643.9052880007908,-241.78883863868313 -642.0751609818685,-243.61896565760526 -641.4052880007906,-246.11896565760526 -642.0751609818683,-248.61896565760532 -643.9052880007904,-250.4490926765276 -646.4052880007904,-251.11896565760554 -648.9052880007905,-250.44909267652784 -650.7354150197128,-248.6189656576057 -651.4052880007907,-246.1189656576057 -650.7354150197131,-243.61896565760566 -648.905288000791,-241.78883863868336 -646.405288000791,-241.11896565760543" stroke="#ffa500" stroke-linecap="round" stroke-linejoin="round"/><polyline fill="none" points="-677.7989494220136,-274.9740165521142 -675.2989494220135,-275.6438895331919 -673.4688224030912,-277.47401655211405 -672.7989494220133,-279.97401655211405 -673.4688224030909,-282.4740165521141 -675.298949422013,-284.30414357103643 -677.798949422013,-284.9740165521144 -680.2989494220132,-284.3041435710367 -682.1290764409355,-282.47401655211456 -682.7989494220134,-279.97401655211456 -682.1290764409357,-277.4740165521145 -680.2989494220136,-275.6438895331922 -677.7989494220136,-274.9740165521142" stroke="#00f" stroke-linecap="round" stroke-linejoin="round"/><polyline fill="none" points="-630.2499613941604,-256.5945964527367 -627.7499613941603,-257.2644694338144 -625.919834375238,-259.09459645273654 -625.2499613941601,-261.59459645273654 -625.9198343752378,-264.0945964527366 -627.7499613941599,-265.9247234716589 -630.2499613941599,-266.5945964527369 -632.74996139416,-265.9247234716592 -634.5800884130823,-264.09459645273705 -635.2499613941602,-261.59459645273705 -634.5800884130825,-259.094596452737 -632.7499613941604,-257.26446943381467 -630.2499613941604,-256.5945964527367" stroke="#ffa500" stroke-linecap="round" stroke-linejoin="round"/><polyline fill="none" points="-699.3872902724771,-203.30571351343897 -696.887290272477,-203.97558649451668 -695.0571632535547,-205.8057135134388 -694.3872902724768,-208.3057135134388 -695.0571632535544,-210.80571351343886 -696.8872902724765,-212.63584053236116 -699.3872902724765,-213.3057135134391 -701.8872902724767,-212.63584053236139 -703.717417291399,-210.80571351343926 -704.3872902724769,-208.30571351343926 -703.7174172913992,-205.8057135134392 -701.8872902724771,-203.9755864945169 -699.3872902724771,-203.30571351343897" stroke="#00f" stroke-linecap="round" stroke-linejoin="round"/><polyline fill="none" points="-675.1171452387514,-318.81668443497614 -672.6171452387513,-319.4865574160538 -670.787018219829,-321.3166844349759 -670.117145238751,-323.8166844349759 -670.7870182198287,-326.31668443497597 -672.6171452387508,-328.1468114538983 -675.1171452387508,-328.81668443497625 -677.6171452387509,-328.1468114538986 -679.4472722576733,-326.3166844349765 -680.1171452387512,-323.8166844349765 -679.4472722576735,-321.3166844349764 -677.6171452387514,-319.4865574160541 -675.1171452387514,-318.81668443497614" stroke="#ffa500" stroke-linecap="round" stroke-linejoin="round"/><polyline fill="none" points="-699.1670504632419,-255.7417888092366 -696.6670504632418,-256.41166179031427 -694.8369234443195,-258.24178880923637 -694.1670504632416,-260.74178880923637 -694.8369234443193,-263.2417888092364 -696.6670504632414,-265.07191582815875 -699.1670504632414,-265.7417888092367 -701.6670504632415,-265.07191582815904 -703.4971774821638,-263.24178880923694 -704.1670504632417,-260.74178880923694 -703.497177482164,-258.2417888092369 -701.6670504632419,-256.41166179031455 -699.1670504632419,-255.7417888092366" stroke="#ffa500" stroke-linecap="round" stroke-linejoin="round"/><polyline fill="none" points="-636.1799435434094,-318.88305302091584 -633.6799435434093,-319.5529260019935 -631.849816524487,-321.3830530209156 -631.1799435434091,-323.8830530209156 -631.8498165244868,-326.38305302091567 -633.6799435434089,-328.213180039838 -636.1799435434089,-328.88305302091595 -638.679943543409,-328.2131800398383 -640.5100705623313,-326.3830530209162 -641.1799435434092,-323.8830530209162 -640.5100705623315,-321.3830530209161 -638.6799435434094,-319.5529260019938 -636.1799435434094,-318.88305302091584" stroke="#ffa500" stroke-linecap="round" stroke-linejoin="round"/><polyline fill="none" points="-699.1574013398023,-223.737728225322 -696.6574013398022,-224.40760120639968 -694.8272743208798,-226.2377282253218 -694.1574013398019,-228.7377282253218 -694.8272743208796,-231.2377282253219 -696.6574013398017,-233.0678552442442 -699.1574013398017,-233.73772822532217 -701.6574013398018,-233.0678552442445 -703.4875283587241,-231.23772822532237 -704.157401339802,-228.73772822532237 -703.4875283587244,-226.2377282253223 -701.6574013398023,-224.40760120639996 -699.1574013398023,-223.737728225322" stroke="#ffa500" stroke-linecap="round" stroke-linejoin="round"/><polyline fill="none" points="-699.9883315025675,-302.12808798901165 -697.4883315025673,-302.7979609700893 -695.658204483645,-304.6280879890114 -694.9883315025671,-307.1280879890114 -695.6582044836448,-309.6280879890115 -697.4883315025669,-311.4582150079338 -699.9883315025669,-312.12808798901176 -702.488331502567,-311.4582150079341 -704.3184585214893,-309.628087989012 -704.9883315025672,-307.128087989012 -704.3184585214896,-304.62808798901193 -702.4883315025675,-302.7979609700896 -699.9883315025675,-302.12808798901165" stroke="#ffa500" stroke-linecap="round" stroke-linejoin="round"/><polyline fill="none" points="-632.7137521661418,-286.4916967731724 -630.2137521661417,-287.1615697542501 -628.3836251472194,-288.9916967731722 -627.7137521661415,-291.4916967731722 -628.3836251472192,-293.99169677317224 -630.2137521661413,-295.82182379209456 -632.7137521661413,-296.4916967731725 -635.2137521661414,-295.82182379209485 -637.0438791850637,-293.99169677317275 -637.7137521661416,-291.49169677317275 -637.0438791850639,-288.9916967731727 -635.2137521661418,-287.16156975425037 -632.7137521661418,-286.4916967731724" stroke="#ffa500" stroke-linecap="round" stroke-linejoin="round"/><polyline fill="none" points="-683.8133413167693,-344.8759768695553 -681.3133413167692,-345.545849850633 -679.4832142978469,-347.3759768695551 -678.8133413167689,-349.8759768695551 -679.4832142978465,-352.37597686955513 -681.3133413167686,-354.20610388847746 -683.8133413167686,-354.8759768695554 -686.3133413167687,-354.20610388847774 -688.1434683356911,-352.37597686955564 -688.8133413167691,-349.87597686955564 -688.1434683356914,-347.3759768695556 -686.3133413167693,-345.54584985063326 -683.8133413167693,-344.8759768695553" stroke="#00f" stroke-linecap="round" stroke-linejoin="round"/><polyline fill="none" points="-652.9368464740307,-219.64000406218955 -650.4368464740306,-220.30987704326722 -648.6067194551083,-222.14000406218935 -647.9368464740303,-224.64000406218935 -648.606719455108,-227.14000406218943 -650.4368464740301,-228.97013108111176 -652.9368464740301,-229.64000406218972 -655.4368464740302,-228.97013108111204 -657.2669734929525,-227.14000406218992 -657.9368464740305,-224.64000406218992 -657.2669734929528,-222.14000406218983 -655.4368464740307,-220.3098770432675 -652.9368464740307,-219.64000406218955" stroke="#ffa500" stroke-linecap="round" stroke-linejoin="round"/><polyline fill="none" points="-618.7905042770687,-321.3573405031392 -616.2905042770686,-322.0272134842169 -614.4603772581463,-323.85734050313897 -613.7905042770683,-326.35734050313897 -614.460377258146,-328.857340503139 -616.2905042770681,-330.68746752206135 -618.7905042770681,-331.3573405031393 -621.2905042770682,-330.68746752206164 -623.1206312959905,-328.85734050313954 -623.7905042770685,-326.35734050313954 -623.1206312959908,-323.8573405031395 -621.2905042770687,-322.02721348421716 -618.7905042770687,-321.3573405031392" stroke="#ffa500" stroke-linecap="round" stroke-linejoin="round"/><polyline fill="none" points="-622.7212845549196,-302.92422226922275 -620.2212845549195,-303.5940952503004 -618.3911575359972,-305.4242222692225 -617.7212845549192,-307.9242222692225 -618.3911575359969,-310.4242222692226 -620.221284554919,-312.2543492881449 -622.721284554919,-312.92422226922287 -625.2212845549191,-312.2543492881452 -627.0514115738414,-310.4242222692231 -627.7212845549194,-307.9242222692231 -627.0514115738417,-305.42422226922304 -625.2212845549196,-303.5940952503007 -622.7212845549196,-302.92422226922275" stroke="#ffa500" stroke-linecap="round" stroke-linejoin="round"/><polyline fill="none" points="-689.4411966176245,-344.9401457430069 -686.9411966176244,-345.61001872408457 -685.1110695987021,-347.44014574300667 -684.4411966176241,-349.94014574300667 -685.1110695987018,-352.4401457430067 -686.9411966176239,-354.27027276192905 -689.4411966176239,-354.940145743007 -691.941196617624,-354.27027276192933 -693.7713236365463,-352.44014574300724 -694.4411966176243,-349.94014574300724 -693.7713236365466,-347.4401457430072 -691.9411966176245,-345.61001872408485 -689.4411966176245,-344.9401457430069" stroke="#00f" stroke-linecap="round" stroke-linejoin="round"/><polyline fill="none" points="-699.4825295924197,-344.0947198010725 -696.9825295924196,-344.76459278215015 -695.1524025734973,-346.59471980107224 -694.4825295924193,-349.09471980107224 -695.1524025734969,-351.5947198010723 -696.982529592419,-353.4248468199946 -699.482529592419,-354.0947198010726 -701.9825295924192,-353.4248468199949 -703.8126566113415,-351.5947198010728 -704.4825295924195,-349.0947198010728 -703.8126566113418,-346.59471980107276 -701.9825295924197,-344.76459278215043 -699.4825295924197,-344.0947198010725" stroke="#00f" stroke-linecap="round" stroke-linejoin="round"/><polyline fill="none" points="-671.4779495811891,-300.77525493165933 -668.977949581189,-301.445127912737 -667.1478225622667,-303.2752549316591 -666.4779495811887,-305.7752549316591 -667.1478225622664,-308.2752549316592 -668.9779495811885,-310.10538195058155 -671.4779495811885,-310.7752549316595 -673.9779495811886,-310.10538195058183 -675.8080766001109,-308.27525493165973 -676.4779495811889,-305.77525493165973 -675.8080766001112,-303.2752549316596 -673.9779495811891,-301.4451279127373 -671.4779495811891,-300.77525493165933" stroke="#ffa500" stroke-linecap="round" stroke-linejoin="round"/><polyline fill="none" points="-689.2947751351488,-278.1251815563219 -686.7947751351487,-278.79505453739955 -684.9646481162264,-280.62518155632165 -684.2947751351484,-283.12518155632165 -684.964648116226,-285.62518155632176 -686.7947751351481,-287.4553085752441 -689.2947751351481,-288.12518155632205 -691.7947751351483,-287.4553085752444 -693.6249021540706,-285.6251815563223 -694.2947751351486,-283.1251815563223 -693.6249021540709,-280.62518155632216 -691.7947751351488,-278.79505453739984 -689.2947751351488,-278.1251815563219" stroke="#00f" stroke-linecap="round" stroke-linejoin="round"/><polyline fill="none" points="-661.7766516476482,-248.82567165887383 -659.2766516476481,-249.49554463995148 -657.4465246287258,-251.32567165887357 -656.7766516476478,-253.82567165887357 -657.4465246287255,-256.32567165887366 -659.2766516476476,-258.155798677796 -661.7766516476476,-258.82567165887394 -664.2766516476477,-258.15579867779627 -666.10677866657,-256.32567165887417 -666.776651647648,-253.82567165887417 -666.1067786665703,-251.32567165887409 -664.2766516476482,-249.49554463995173 -661.7766516476482,-248.82567165887374" stroke="#ffa500" stroke-linecap="round" stroke-linejoin="round"/><polyline fill="none" points="-699.095403902372,-336.5675245010609 -696.5954039023719,-337.2373974821386 -694.7652768834496,-339.0675245010607 -694.0954039023716,-341.5675245010607 -694.7652768834492,-344.0675245010608 -696.5954039023713,-345.8976515199831 -699.0954039023713,-346.5675245010611 -701.5954039023715,-345.8976515199834 -703.4255309212938,-344.0675245010613 -704.0954039023718,-341.5675245010613 -703.4255309212941,-339.0675245010612 -701.595403902372,-337.2373974821389 -699.095403902372,-336.5675245010609" stroke="#008000" stroke-linecap="round" stroke-linejoin="round"/><polyline fill="none" points="-665.1905686710265,-344.51881745805844 -662.6905686710264,-345.1886904391361 -660.8604416521041,-347.0188174580582 -660.1905686710261,-349.5188174580582 -660.8604416521038,-352.0188174580583 -662.6905686710259,-353.84894447698065 -665.1905686710259,-354.51881745805866 -667.690568671026,-353.848944476981 -669.5206956899483,-352.0188174580589 -670.1905686710263,-349.5188174580589 -669.5206956899486,-347.0188174580588 -667.6905686710265,-345.18869043913645 -665.1905686710265,-344.51881745805844" stroke="#ffa500" stroke-linecap="round" stroke-linejoin="round"/><polyline fill="none" points="-688.5963308285401,-344.4442143236907 -686.09633082854,-345.11408730476836 -684.2662038096177,-346.94421432369046 -683.5963308285396,-349.44421432369046 -684.2662038096173,-351.9442143236906 -686.0963308285394,-353.7743413426129 -688.5963308285394,-354.4442143236909 -691.0963308285395,-353.77434134261324 -692.9264578474618,-351.94421432369114 -693.5963308285399,-349.44421432369114 -692.9264578474622,-346.944214323691 -691.0963308285401,-345.1140873047687 -688.5963308285401,-344.4442143236907" stroke="#ffa500" stroke-linecap="round" stroke-linejoin="round"/><polyline fill="none" points="-677.6458499600394,-308.6340605691462 -675.1458499600393,-309.30393355022386 -673.315722941117,-311.13406056914596 -672.645849960039,-313.63406056914596 -673.3157229411166,-316.1340605691461 -675.1458499600387,-317.9641875880684 -677.6458499600387,-318.6340605691464 -680.1458499600388,-317.96418758806874 -681.9759769789612,-316.13406056914664 -682.6458499600392,-313.63406056914664 -681.9759769789615,-311.1340605691465 -680.1458499600394,-309.30393355022414 -677.6458499600394,-308.63406056914613" stroke="#ffa500" stroke-linecap="round" stroke-linejoin="round"/><polyline fill="none" points="-693.5310829185875,-287.1257826192135 -691.0310829185873,-287.7956556002912 -689.200955899665,-289.6257826192133 -688.531082918587,-292.1257826192133 -689.2009558996647,-294.6257826192134 -691.0310829185868,-296.4559096381358 -693.5310829185868,-297.1257826192138 -696.0310829185869,-296.4559096381362 -697.8612099375092,-294.6257826192141 -698.5310829185872,-292.1257826192141 -697.8612099375096,-289.62578261921396 -696.0310829185875,-287.7956556002916 -693.5310829185875,-287.12578261921357" stroke="#ffa500" stroke-linecap="round" stroke-linejoin="round"/><polyline fill="none" points="-699.5941783741895,-344.0090627809917 -697.0941783741894,-344.67893576206933 -695.264051355267,-346.5090627809914 -694.594178374189,-349.0090627809914 -695.2640513552667,-351.50906278099154 -697.0941783741888,-353.3391897999139 -699.5941783741888,-354.00906278099194 -702.0941783741889,-353.3391897999143 -703.9243053931112,-351.5090627809922 -704.5941783741893,-349.0090627809922 -703.9243053931116,-346.5090627809921 -702.0941783741895,-344.6789357620697 -699.5941783741895,-344.0090627809917" stroke="#00f" stroke-linecap="round" stroke-linejoin="round"/><polyline fill="none" points="-615.5412509175455,-344.1277465970141 -613.0412509175454,-344.7976195780917 -611.2111238986231,-346.6277465970138 -610.5412509175451,-349.1277465970138 -611.2111238986228,-351.6277465970139 -613.0412509175449,-353.4578736159363 -615.5412509175449,-354.1277465970143 -618.041250917545,-353.4578736159367 -619.8713779364673,-351.6277465970146 -620.5412509175453,-349.1277465970146 -619.8713779364676,-346.6277465970145 -618.0412509175455,-344.7976195780921 -615.5412509175455,-344.1277465970141" stroke="#ffa500" stroke-linecap="round" stroke-linejoin="round"/><polyline fill="none" points="-699.7183608825609,-344.75754454256617 -697.2183608825608,-345.4274175236438 -695.3882338636384,-347.2575445425659 -694.7183608825604,-349.7575445425659 -695.3882338636381,-352.257544542566 -697.2183608825602,-354.0876715614884 -699.7183608825602,-354.7575445425664 -702.2183608825603,-354.0876715614888 -704.0484879014826,-352.2575445425667 -704.7183608825607,-349.7575445425667 -704.048487901483,-347.25754454256656 -702.2183608825609,-345.4274175236442 -699.7183608825609,-344.75754454256617" stroke="#00f" stroke-linecap="round" stroke-linejoin="round"/><polyline fill="none" points="-675.3776609181771,-344.71128258932305 -672.877660918177,-345.38115557040067 -671.0475338992546,-347.21128258932276 -670.3776609181766,-349.71128258932276 -671.0475338992543,-352.2112825893229 -672.8776609181764,-354.04140960824526 -675.3776609181764,-354.7112825893233 -677.8776609181765,-354.04140960824566 -679.7077879370988,-352.21128258932356 -680.3776609181768,-349.71128258932356 -679.7077879370992,-347.21128258932345 -677.8776609181771,-345.38115557040106 -675.3776609181771,-344.71128258932305" stroke="#00f" stroke-linecap="round" stroke-linejoin="round"/><polyline fill="none" points="-687.1689734051657,-224.53602468666017 -684.6689734051656,-225.20589766773782 -682.8388463862433,-227.0360246866599 -682.1689734051653,-229.5360246866599 -682.838846386243,-232.03602468666003 -684.668973405165,-233.86615170558238 -687.168973405165,-234.5360246866604 -689.6689734051652,-233.86615170558275 -691.4991004240875,-232.03602468666065 -692.1689734051655,-229.53602468666065 -691.4991004240878,-227.03602468666054 -689.6689734051657,-225.20589766773816 -687.1689734051657,-224.53602468666014" stroke="#ffa500" stroke-linecap="round" stroke-linejoin="round"/><polyline fill="none" points="-684.6355077720542,-199.98288407609 -682.1355077720541,-200.65275705716763 -680.3053807531318,-202.48288407608973 -679.6355077720538,-204.98288407608973 -680.3053807531314,-207.48288407608985 -682.1355077720535,-209.31301109501223 -684.6355077720535,-209.98288407609024 -687.1355077720536,-209.3130110950126 -688.965634790976,-207.4828840760905 -689.635507772054,-204.9828840760905 -688.9656347909763,-202.4828840760904 -687.1355077720542,-200.652757057168 -684.6355077720542,-199.98288407609" stroke="#ffa500" stroke-linecap="round" stroke-linejoin="round"/><polyline fill="none" points="-643.5510057766157,-303.0419265077708 -641.0510057766156,-303.71179948884844 -639.2208787576933,-305.54192650777054 -638.5510057766153,-308.04192650777054 -639.220878757693,-310.54192650777065 -641.051005776615,-312.37205352669304 -643.551005776615,-313.04192650777105 -646.0510057766152,-312.37205352669343 -647.8811327955375,-310.54192650777134 -648.5510057766155,-308.04192650777134 -647.8811327955378,-305.5419265077712 -646.0510057766157,-303.71179948884884 -643.5510057766157,-303.0419265077708" stroke="#00f" stroke-linecap="round" stroke-linejoin="round"/><polyline fill="none" points="-699.3522516979561,-323.3943846992841 -696.852251697956,-324.0642576803617 -695.0221246790337,-325.8943846992838 -694.3522516979557,-328.3943846992838 -695.0221246790334,-330.89438469928393 -696.8522516979555,-332.7245117182063 -699.3522516979555,-333.39438469928433 -701.8522516979556,-332.7245117182067 -703.6823787168779,-330.8943846992846 -704.3522516979559,-328.3943846992846 -703.6823787168782,-325.8943846992845 -701.8522516979561,-324.0642576803621 -699.3522516979561,-323.3943846992841" stroke="#ffa500" stroke-linecap="round" stroke-linejoin="round"/><polyline fill="none" points="-699.578243124706,-315.780453577946 -697.0782431247059,-316.4503265590236 -695.2481161057835,-318.2804535779457 -694.5782431247055,-320.7804535779457 -695.2481161057832,-323.2804535779458 -697.0782431247053,-325.1105805968682 -699.5782431247053,-325.7804535779462 -702.0782431247054,-325.1105805968686 -703.9083701436277,-323.2804535779465 -704.5782431247058,-320.7804535779465 -703.9083701436281,-318.2804535779464 -702.078243124706,-316.450326559024 -699.578243124706,-315.780453577946" stroke="#008000" stroke-linecap="round" stroke-linejoin="round"/><polyline fill="none" points="-699.6877244698729,-186.77438866648035 -697.1877244698728,-187.44426164755797 -695.3575974509505,-189.27438866648006 -694.6877244698725,-191.77438866648006 -695.3575974509502,-194.27438866648018 -697.1877244698723,-196.10451568540256 -699.6877244698723,-196.77438866648058 -702.1877244698724,-196.10451568540296 -704.0178514887947,-194.27438866648086 -704.6877244698727,-191.77438866648086 -704.017851488795,-189.27438866648075 -702.1877244698729,-187.44426164755836 -699.6877244698729,-186.77438866648035" stroke="#ffa500" stroke-linecap="round" stroke-linejoin="round"/><polyline fill="none" points="-694.7130027270376,-338.4756617050297 -692.2130027270375,-339.14553468610734 -690.3828757081152,-340.97566170502944 -689.7130027270372,-343.47566170502944 -690.3828757081149,-345.97566170502955 -692.213002727037,-347.80578872395193 -694.713002727037,-348.47566170502995 -697.2130027270371,-347.80578872395233 -699.0431297459594,-345.97566170503023 -699.7130027270374,-343.47566170503023 -699.0431297459597,-340.9756617050301 -697.2130027270376,-339.14553468610774 -694.7130027270376,-338.4756617050297" stroke="#008000" stroke-linecap="round" stroke-linejoin="round"/><polyline fill="none" points="-664.8684586248817,-252.51549319409185 -662.3684586248816,-253.18536617516946 -660.5383316059591,-255.01549319409156 -659.8684586248811,-257.51549319409156 -660.5383316059587,-260.0154931940917 -662.3684586248808,-261.84562021301406 -664.8684586248808,-262.5154931940921 -667.3684586248809,-261.84562021301446 -669.1985856438033,-260.01549319409236 -669.8684586248813,-257.51549319409236 -669.1985856438038,-255.01549319409224 -667.3684586248817,-253.18536617516986 -664.8684586248817,-252.51549319409185" stroke="#ffa500" stroke-linecap="round" stroke-linejoin="round"/><polyline fill="none" points="-699.2890359132109,-295.261460464259 -696.7890359132108,-295.93133344533663 -694.9589088942884,-297.76146046425873 -694.2890359132103,-300.26146046425873 -694.9589088942879,-302.76146046425885 -696.78903591321,-304.59158748318123 -699.28903591321,-305.26146046425924 -701.7890359132101,-304.5915874831816 -703.6191629321326,-302.7614604642595 -704.2890359132106,-300.2614604642595 -703.619162932133,-297.7614604642594 -701.7890359132109,-295.93133344533703 -699.2890359132109,-295.261460464259" stroke="#00f" stroke-linecap="round" stroke-linejoin="round"/><polyline fill="none" points="-696.0549939774447,-278.1317204735185 -693.5549939774446,-278.8015934545961 -691.7248669585222,-280.6317204735182 -691.0549939774442,-283.1317204735182 -691.7248669585217,-285.6317204735183 -693.5549939774438,-287.4618474924407 -696.0549939774438,-288.1317204735187 -698.5549939774439,-287.4618474924411 -700.3851209963664,-285.631720473519 -701.0549939774444,-283.131720473519 -700.3851209963668,-280.6317204735189 -698.5549939774447,-278.8015934545965 -696.0549939774447,-278.1317204735185" stroke="#ffa500" stroke-linecap="round" stroke-linejoin="round"/><polyline fill="none" points="-699.3674129948625,-289.5844979776755 -696.8674129948624,-290.2543709587531 -695.03728597594,-292.0844979776752 -694.367412994862,-294.5844979776752 -695.0372859759395,-297.0844979776753 -696.8674129948616,-298.9146249965977 -699.3674129948616,-299.5844979776757 -701.8674129948618,-298.9146249965981 -703.6975400137842,-297.084497977676 -704.3674129948622,-294.584497977676 -703.6975400137846,-292.0844979776759 -701.8674129948625,-290.2543709587535 -699.3674129948625,-289.5844979776755" stroke="#ffa500" stroke-linecap="round" stroke-linejoin="round"/><polyline fill="none" points="-697.1993982916699,-277.77972026988215 -694.6993982916698,-278.44959325095977 -692.8692712727474,-280.27972026988186 -692.1993982916694,-282.77972026988186 -692.8692712727469,-285.279720269882 -694.699398291669,-287.10984728880436 -697.199398291669,-287.7797202698824 -699.6993982916691,-287.10984728880476 -701.5295253105916,-285.27972026988266 -702.1993982916696,-282.77972026988266 -701.529525310592,-280.27972026988255 -699.6993982916699,-278.44959325096016 -697.1993982916699,-277.77972026988215" stroke="#00f" stroke-linecap="round" stroke-linejoin="round"/><polyline fill="none" points="-699.1785703187463,-340.0925488840634 -696.6785703187462,-340.762421865141 -694.8484432998238,-342.5925488840631 -694.1785703187458,-345.0925488840631 -694.8484432998233,-347.5925488840632 -696.6785703187454,-349.4226759029856 -699.1785703187454,-350.0925488840636 -701.6785703187455,-349.422675902986 -703.508697337668,-347.5925488840639 -704.178570318746,-345.0925488840639 -703.5086973376684,-342.5925488840638 -701.6785703187463,-340.7624218651414 -699.1785703187463,-340.0925488840634" stroke="#00f" stroke-linecap="round" stroke-linejoin="round"/><polyline fill="none" points="-699.8059445158798,-336.6659036480061 -697.3059445158797,-337.33577662908374 -695.4758174969572,-339.16590364800584 -694.8059445158792,-341.66590364800584 -695.4758174969568,-344.16590364800595 -697.3059445158789,-345.99603066692833 -699.8059445158789,-346.6659036480064 -702.305944515879,-345.9960306669288 -704.1360715348014,-344.1659036480067 -704.8059445158794,-341.6659036480067 -704.1360715348019,-339.1659036480066 -702.3059445158798,-337.3357766290842 -699.8059445158798,-336.6659036480061" stroke="#00f" stroke-linecap="round" stroke-linejoin="round"/><polyline fill="none" points="-672.3992471735463,-261.9497042816902 -669.8992471735462,-262.6195772627678 -668.0691201546238,-264.4497042816899 -667.3992471735457,-266.9497042816899 -668.0691201546233,-269.44970428169 -669.8992471735454,-271.2798313006124 -672.3992471735454,-271.94970428169046 -674.8992471735455,-271.27983130061284 -676.729374192468,-269.44970428169074 -677.399247173546,-266.94970428169074 -676.7293741924684,-264.44970428169063 -674.8992471735463,-262.61957726276825 -672.3992471735463,-261.9497042816902" stroke="#ffa500" stroke-linecap="round" stroke-linejoin="round"/><polyline fill="none" points="-699.6192211055146,-323.8912092360332 -697.1192211055145,-324.5610822171108 -695.2890940865921,-326.3912092360329 -694.619221105514,-328.8912092360329 -695.2890940865916,-331.39120923603303 -697.1192211055137,-333.2213362549554 -699.6192211055137,-333.8912092360335 -702.1192211055138,-333.2213362549559 -703.9493481244363,-331.3912092360338 -704.6192211055143,-328.8912092360338 -703.9493481244367,-326.39120923603366 -702.1192211055146,-324.5610822171113 -699.6192211055146,-323.8912092360332" stroke="#008000" stroke-linecap="round" stroke-linejoin="round"/><polyline fill="none" points="-684.7058826825413,-344.1400323780183 -682.2058826825412,-344.8099053590959 -680.3757556636187,-346.640032378018 -679.7058826825407,-349.140032378018 -680.3757556636183,-351.64003237801813 -682.2058826825404,-353.4701593969405 -684.7058826825404,-354.1400323780186 -687.2058826825405,-353.47015939694097 -689.036009701463,-351.6400323780189 -689.705882682541,-349.1400323780189 -689.0360097014634,-346.64003237801876 -687.2058826825413,-344.8099053590964 -684.7058826825413,-344.1400323780183" stroke="#00f" stroke-linecap="round" stroke-linejoin="round"/><polyline fill="none" points="-699.0473101997324,-344.3168599608978 -696.5473101997322,-344.9867329419754 -694.7171831808098,-346.8168599608975 -694.0473101997318,-349.3168599608975 -694.7171831808093,-351.8168599608976 -696.5473101997314,-353.64698697982 -699.0473101997314,-354.31685996089806 -701.5473101997316,-353.64698697982044 -703.377437218654,-351.81685996089834 -704.047310199732,-349.31685996089834 -703.3774372186544,-346.8168599608982 -701.5473101997324,-344.98673294197584 -699.0473101997324,-344.3168599608978" stroke="#ffa500" stroke-linecap="round" stroke-linejoin="round"/><polyline fill="none" points="-694.3024779002174,-262.56607531787523 -691.8024779002172,-263.23594829895285 -689.9723508812948,-265.0660753178749 -689.3024779002168,-267.5660753178749 -689.9723508812943,-270.066075317875 -691.8024779002164,-271.8962023367974 -694.3024779002164,-272.56607531787546 -696.8024779002166,-271.89620233679784 -698.632604919139,-270.0660753178758 -699.302477900217,-267.5660753178758 -698.6326049191395,-265.0660753178757 -696.8024779002174,-263.23594829895325 -694.3024779002174,-262.5660753178752" stroke="#00f" stroke-linecap="round" stroke-linejoin="round"/><polyline fill="none" points="-699.1879826140904,-242.10219028765846 -696.6879826140903,-242.77206326873605 -694.8578555951678,-244.60219028765812 -694.1879826140898,-247.10219028765812 -694.8578555951674,-249.60219028765823 -696.6879826140895,-251.43231730658064 -699.1879826140895,-252.10219028765871 -701.6879826140896,-251.43231730658113 -703.518109633012,-249.60219028765906 -704.1879826140901,-247.10219028765906 -703.5181096330125,-244.6021902876589 -701.6879826140904,-242.7720632687365 -699.1879826140904,-242.10219028765843" stroke="#ffa500" stroke-linecap="round" stroke-linejoin="round"/><polyline fill="none" points="-689.1781076409181,-302.69339396931576 -686.678107640918,-303.3632669503933 -684.8479806219956,-305.19339396931537 -684.1781076409176,-307.69339396931537 -684.8479806219951,-310.1933939693155 -686.6781076409172,-312.0235209882379 -689.1781076409172,-312.693393969316 -691.6781076409173,-312.02352098823843 -693.5082346598398,-310.1933939693164 -694.1781076409178,-307.6933939693164 -693.5082346598402,-305.1933939693163 -691.6781076409181,-303.36326695039384 -689.1781076409181,-302.69339396931576" stroke="#00f" stroke-linecap="round" stroke-linejoin="round"/><polyline fill="none" points="-699.6545132105254,-344.81715975331855 -697.1545132105252,-345.4870327343961 -695.3243861916028,-347.31715975331815 -694.6545132105248,-349.81715975331815 -695.3243861916023,-352.31715975331826 -697.1545132105244,-354.1472867722407 -699.6545132105244,-354.8171597533188 -702.1545132105246,-354.1472867722412 -703.984640229447,-352.3171597533192 -704.654513210525,-349.8171597533192 -703.9846402294475,-347.31715975331906 -702.1545132105254,-345.4870327343966 -699.6545132105254,-344.81715975331855" stroke="#00f" stroke-linecap="round" stroke-linejoin="round"/><polyline fill="none" points="-632.6836078786419,-344.99255598113245 -630.1836078786417,-345.66242896221 -628.3534808597193,-347.49255598113206 -627.6836078786413,-349.99255598113206 -628.3534808597188,-352.49255598113217 -630.1836078786409,-354.3226830000546 -632.6836078786409,-354.9925559811327 -635.183607878641,-354.3226830000551 -637.0137348975635,-352.4925559811331 -637.6836078786415,-349.9925559811331 -637.013734897564,-347.49255598113297 -635.1836078786419,-345.6624289622105 -632.6836078786419,-344.99255598113245" stroke="#ffa500" stroke-linecap="round" stroke-linejoin="round"/><polyline fill="none" points="-699.6850661074325,-255.7250155126996 -697.1850661074324,-256.39488849377716 -695.3549390885099,-258.2250155126992 -694.6850661074319,-260.7250155126992 -695.3549390885095,-263.2250155126993 -697.1850661074316,-265.05514253162175 -699.6850661074316,-265.7250155126998 -702.1850661074317,-265.05514253162227 -704.0151931263541,-263.2250155127002 -704.6850661074321,-260.7250155127002 -704.0151931263546,-258.2250155127001 -702.1850661074325,-256.39488849377767 -699.6850661074325,-255.7250155126996" stroke="#ffa500" stroke-linecap="round" stroke-linejoin="round"/><polyline fill="none" points="-677.4331651876086,-342.34989882946996 -674.9331651876084,-343.0197718105475 -673.103038168686,-344.84989882946957 -672.4331651876079,-347.34989882946957 -673.1030381686854,-349.8498988294697 -674.9331651876075,-351.6800258483921 -677.4331651876075,-352.3498988294702 -679.9331651876076,-351.68002584839263 -681.7632922065301,-349.8498988294706 -682.4331651876082,-347.3498988294706 -681.7632922065307,-344.8498988294705 -679.9331651876086,-343.01977181054804 -677.4331651876086,-342.34989882946996" stroke="#ffa500" stroke-linecap="round" stroke-linejoin="round"/><polyline fill="none" points="-659.2066099165519,-293.3021255222776 -656.7066099165518,-293.97199850335517 -654.8764828976293,-295.8021255222772 -654.2066099165512,-298.3021255222772 -654.8764828976288,-300.8021255222773 -656.7066099165509,-302.63225254119976 -659.2066099165509,-303.30212552227783 -661.706609916551,-302.6322525412003 -663.5367369354734,-300.80212552227823 -664.2066099165515,-298.30212552227823 -663.536736935474,-295.8021255222781 -661.7066099165519,-293.9719985033557 -659.2066099165519,-293.3021255222776" stroke="#ffa500" stroke-linecap="round" stroke-linejoin="round"/><polyline fill="none" points="-675.3626329697853,-271.22290556575405 -672.8626329697852,-271.8927785468316 -671.0325059508627,-273.72290556575365 -670.3626329697846,-276.22290556575365 -671.0325059508622,-278.72290556575376 -672.8626329697843,-280.5530325846762 -675.3626329697843,-281.2229055657543 -677.8626329697844,-280.5530325846767 -679.6927599887068,-278.7229055657547 -680.362632969785,-276.2229055657547 -679.6927599887074,-273.72290556575456 -677.8626329697853,-271.8927785468321 -675.3626329697853,-271.22290556575405" stroke="#00f" stroke-linecap="round" stroke-linejoin="round"/><polyline fill="none" points="-677.6367695381807,-245.6472782600616 -675.1367695381806,-246.31715124113916 -673.3066425192582,-248.14727826006123 -672.63676953818,-250.64727826006123 -673.3066425192576,-253.14727826006137 -675.1367695381797,-254.9774052789838 -677.6367695381797,-255.64727826006188 -680.1367695381798,-254.97740527898432 -681.9668965571022,-253.14727826006225 -682.6367695381804,-250.64727826006225 -681.9668965571028,-248.1472782600621 -680.1367695381807,-246.31715124113967 -677.6367695381807,-245.6472782600616" stroke="#ffa500" stroke-linecap="round" stroke-linejoin="round"/><polyline fill="none" points="-644.8561744820205,-335.1459378053325 -642.3561744820204,-335.81581078641005 -640.5260474630979,-337.6459378053321 -639.8561744820198,-340.1459378053321 -640.5260474630974,-342.6459378053322 -642.3561744820195,-344.47606482425465 -644.8561744820195,-345.1459378053327 -647.3561744820196,-344.47606482425516 -649.186301500942,-342.6459378053331 -649.8561744820202,-340.1459378053331 -649.1863015009426,-337.645937805333 -647.3561744820205,-335.81581078641057 -644.8561744820205,-335.1459378053325" stroke="#00f" stroke-linecap="round" stroke-linejoin="round"/><polyline fill="none" points="-699.201948271021,-317.47728988767864 -696.7019482710209,-318.1471628687562 -694.8718212520985,-319.97728988767824 -694.2019482710203,-322.47728988767824 -694.8718212520979,-324.97728988767835 -696.70194827102,-326.8074169066008 -699.20194827102,-327.47728988767886 -701.7019482710201,-326.8074169066013 -703.5320752899426,-324.97728988767926 -704.2019482710207,-322.47728988767926 -703.5320752899431,-319.9772898876791 -701.701948271021,-318.14716286875665 -699.201948271021,-317.4772898876786" stroke="#f00" stroke-linecap="round" stroke-linejoin="round"/><polyline fill="none" points="-687.1179834092723,-328.16164573565317 -684.6179834092721,-328.8315187167307 -682.7878563903497,-330.66164573565277 -682.1179834092716,-333.16164573565277 -682.7878563903491,-335.66164573565294 -684.6179834092712,-337.4917727545754 -687.1179834092712,-338.16164573565345 -689.6179834092713,-337.4917727545759 -691.4481104281938,-335.66164573565385 -692.1179834092719,-333.16164573565385 -691.4481104281944,-330.6616457356537 -689.6179834092723,-328.83151871673124 -687.1179834092723,-328.16164573565317" stroke="#ffa500" stroke-linecap="round" stroke-linejoin="round"/><polyline fill="none" points="-699.2761867306995,-205.2085028996551 -696.7761867306994,-205.87837588073265 -694.9460597117769,-207.7085028996547 -694.2761867306988,-210.2085028996547 -694.9460597117763,-212.70850289965483 -696.7761867306984,-214.53862991857727 -699.2761867306984,-215.20850289965537 -701.7761867306986,-214.5386299185778 -703.606313749621,-212.70850289965577 -704.2761867306991,-210.20850289965577 -703.6063137496216,-207.70850289965563 -701.7761867306995,-205.8783758807332 -699.2761867306995,-205.2085028996551" stroke="#ffa500" stroke-linecap="round" stroke-linejoin="round"/><polyline fill="none" points="-699.9066164672575,-300.91999874277656 -697.4066164672574,-301.5898717238541 -695.576489448335,-303.41999874277616 -694.9066164672569,-305.91999874277616 -695.5764894483344,-308.41999874277633 -697.4066164672565,-310.25012576169877 -699.9066164672565,-310.91999874277684 -702.4066164672566,-310.2501257616993 -704.2367434861791,-308.41999874277724 -704.9066164672572,-305.91999874277724 -704.2367434861796,-303.41999874277707 -702.4066164672575,-301.5898717238546 -699.9066164672575,-300.91999874277656" stroke="#ffa500" stroke-linecap="round" stroke-linejoin="round"/><polyline fill="none" points="-657.2635616110709,-318.3656906707137 -654.7635616110708,-319.0355636517913 -652.9334345921484,-320.8656906707133 -652.2635616110703,-323.3656906707133 -652.9334345921478,-325.8656906707135 -654.7635616110699,-327.69581768963593 -657.2635616110699,-328.365690670714 -659.76356161107,-327.69581768963644 -661.5936886299925,-325.8656906707144 -662.2635616110706,-323.3656906707144 -661.593688629993,-320.86569067071423 -659.7635616110709,-319.0355636517918 -657.2635616110709,-318.36569067071366" stroke="#00f" stroke-linecap="round" stroke-linejoin="round"/><line fill="none" stroke="#000" stroke-linecap="round" x1="-690.1505140350249" x2="-681.0385579389971" y1="-349.34114221307317" y2="-349.52300308617595"/><line fill="none" stroke="#000" stroke-linecap="round" x1="-690.1505140350249" x2="-688.5963308285401" y1="-349.34114221307317" y2="-349.4442143236907"/><line fill="none" stroke="#000" stroke-linecap="round" x1="-690.1505140350249" x2="-680.6044966865019" y1="-349.34114221307317" y2="-340.3233258581823"/><line fill="none" stroke="#000" stroke-linecap="round" x1="-690.1505140350249" x2="-679.8812314469824" y1="-349.34114221307317" y2="-339.92957859606634"/><line fill="none" stroke="#000" stroke-linecap="round" x1="-690.1505140350249" x2="-699.6324425458836" y1="-349.34114221307317" y2="-326.3114543884978"/><line fill="none" stroke="#000" stroke-linecap="round" x1="-699.6324425458836" x2="-699.201948271021" y1="-326.3114543884978" y2="-322.47728988767864"/><line fill="none" stroke="#000" stroke-linecap="round" x1="-699.6324425458836" x2="-699.7172676212089" y1="-326.3114543884978" y2="-304.07067403346144"/><line fill="none" stroke="#000" stroke-linecap="round" x1="-699.6324425458836" x2="-699.578243124706" y1="-326.3114543884978" y2="-320.780453577946"/><line fill="none" stroke="#000" stroke-linecap="round" x1="-699.6324425458836" x2="-699.6545132105254" y1="-326.3114543884978" y2="-349.81715975331855"/><line fill="none" stroke="#000" stroke-linecap="round" x1="-699.6324425458836" x2="-694.7130027270376" y1="-326.3114543884978" y2="-343.4756617050297"/><line fill="none" stroke="#000" stroke-linecap="round" x1="-699.7172676212089" x2="-699.6432951109454" y1="-304.07067403346144" y2="-305.44090026569177"/><line fill="none" stroke="#000" stroke-linecap="round" x1="-699.7172676212089" x2="-699.578243124706" y1="-304.07067403346144" y2="-320.780453577946"/><line fill="none" stroke="#000" stroke-linecap="round" x1="-699.7172676212089" x2="-682.6556855789553" y1="-304.07067403346144" y2="-320.9871926057887"/><line fill="none" stroke="#000" stroke-linecap="round" x1="-699.7172676212089" x2="-699.6324425458836" y1="-304.07067403346144" y2="-326.3114543884978"/><line fill="none" stroke="#000" stroke-linecap="round" x1="-699.7172676212089" x2="-699.201948271021" y1="-304.07067403346144" y2="-322.47728988767864"/><line fill="none" stroke="#000" stroke-linecap="round" x1="-699.7841006935835" x2="-699.6545132105254" y1="-332.5047267590683" y2="-349.81715975331855"/><line fill="none" stroke="#000" stroke-linecap="round" x1="-699.7841006935835" x2="-699.095403902372" y1="-332.5047267590683" y2="-341.5675245010609"/><line fill="none" stroke="#000" stroke-linecap="round" x1="-699.7841006935835" x2="-699.1038353209926" y1="-332.5047267590683" y2="-345.18496548667616"/><line fill="none" stroke="#000" stroke-linecap="round" x1="-699.7841006935835" x2="-643.5510057766157" y1="-332.5047267590683" y2="-308.0419265077708"/><line fill="none" stroke="#000" stroke-linecap="round" x1="-699.7841006935835" x2="-670.5669357918263" y1="-332.5047267590683" y2="-349.99418517367593"/><line fill="none" stroke="#000" stroke-linecap="round" x1="-697.0879664778054" x2="-699.4904333486826" y1="-271.9430637086545" y2="-297.2062788874362"/><line fill="none" stroke="#000" stroke-linecap="round" x1="-697.0879664778054" x2="-699.6850661074325" y1="-271.9430637086545" y2="-260.7250155126996"/><line fill="none" stroke="#000" stroke-linecap="round" x1="-697.0879664778054" x2="-672.3992471735463" y1="-271.9430637086545" y2="-266.9497042816902"/><line fill="none" stroke="#000" stroke-linecap="round" x1="-697.0879664778054" x2="-664.8684586248817" y1="-271.9430637086545" y2="-257.51549319409185"/><line fill="none" stroke="#000" stroke-linecap="round" x1="-697.0879664778054" x2="-687.1689734051657" y1="-271.9430637086545" y2="-229.53602468666017"/><line fill="none" stroke="#000" stroke-linecap="round" x1="-699.9223026043769" x2="-689.2947751351488" y1="-275.5008209263755" y2="-283.1251815563219"/><line fill="none" stroke="#000" stroke-linecap="round" x1="-699.9223026043769" x2="-675.3626329697853" y1="-275.5008209263755" y2="-276.22290556575405"/><line fill="none" stroke="#000" stroke-linecap="round" x1="-699.9223026043769" x2="-699.1670504632419" y1="-275.5008209263755" y2="-260.7417888092366"/><line fill="none" stroke="#000" stroke-linecap="round" x1="-699.9223026043769" x2="-696.0549939774447" y1="-275.5008209263755" y2="-283.1317204735185"/><line fill="none" stroke="#000" stroke-linecap="round" x1="-699.9223026043769" x2="-677.7989494220136" y1="-275.5008209263755" y2="-279.9740165521142"/><line fill="none" stroke="#000" stroke-linecap="round" x1="-699.4883964728068" x2="-697.0879664778054" y1="-308.96405985257627" y2="-271.9430637086545"/><line fill="none" stroke="#000" stroke-linecap="round" x1="-699.4883964728068" x2="-689.2947751351488" y1="-308.96405985257627" y2="-283.1251815563219"/><line fill="none" stroke="#000" stroke-linecap="round" x1="-699.4883964728068" x2="-699.6192211055146" y1="-308.96405985257627" y2="-328.8912092360332"/><line fill="none" stroke="#000" stroke-linecap="round" x1="-699.4883964728068" x2="-699.7738752463953" y1="-308.96405985257627" y2="-266.6672838295592"/><line fill="none" stroke="#000" stroke-linecap="round" x1="-699.4883964728068" x2="-699.5941783741895" y1="-308.96405985257627" y2="-349.0090627809917"/><line fill="none" stroke="#000" stroke-linecap="round" x1="-699.5852807001833" x2="-699.0473101997324" y1="-349.59717213948164" y2="-349.3168599608978"/><line fill="none" stroke="#000" stroke-linecap="round" x1="-699.5852807001833" x2="-699.1785703187463" y1="-349.59717213948164" y2="-345.0925488840634"/><line fill="none" stroke="#000" stroke-linecap="round" x1="-699.5852807001833" x2="-699.1038353209926" y1="-349.59717213948164" y2="-345.18496548667616"/><line fill="none" stroke="#000" stroke-linecap="round" x1="-699.5852807001833" x2="-670.5669357918263" y1="-349.59717213948164" y2="-349.99418517367593"/><line fill="none" stroke="#000" stroke-linecap="round" x1="-699.5852807001833" x2="-699.5941783741895" y1="-349.59717213948164" y2="-349.0090627809917"/><line fill="none" stroke="#000" stroke-linecap="round" x1="-659.927056914799" x2="-697.1993982916699" y1="-263.1643485801309" y2="-282.77972026988215"/><line fill="none" stroke="#000" stroke-linecap="round" x1="-659.927056914799" x2="-677.6367695381807" y1="-263.1643485801309" y2="-250.6472782600616"/><line fill="none" stroke="#000" stroke-linecap="round" x1="-659.927056914799" x2="-643.4295419719629" y1="-263.1643485801309" y2="-273.5062492148351"/><line fill="none" stroke="#000" stroke-linecap="round" x1="-659.927056914799" x2="-630.2499613941604" y1="-263.1643485801309" y2="-261.5945964527367"/><line fill="none" stroke="#000" stroke-linecap="round" x1="-659.927056914799" x2="-652.9368464740307" y1="-263.1643485801309" y2="-224.64000406218955"/><line fill="none" stroke="#000" stroke-linecap="round" x1="-681.0385579389971" x2="-688.5963308285401" y1="-349.52300308617595" y2="-349.4442143236907"/><line fill="none" stroke="#000" stroke-linecap="round" x1="-681.0385579389971" x2="-690.1505140350249" y1="-349.52300308617595" y2="-349.34114221307317"/><line fill="none" stroke="#000" stroke-linecap="round" x1="-681.0385579389971" x2="-680.6044966865019" y1="-349.52300308617595" y2="-340.3233258581823"/><line fill="none" stroke="#000" stroke-linecap="round" x1="-681.0385579389971" x2="-679.8812314469824" y1="-349.52300308617595" y2="-339.92957859606634"/><line fill="none" stroke="#000" stroke-linecap="round" x1="-681.0385579389971" x2="-675.3776609181771" y1="-349.52300308617595" y2="-349.71128258932305"/><line fill="none" stroke="#000" stroke-linecap="round" x1="-682.6556855789553" x2="-679.8812314469824" y1="-320.9871926057887" y2="-339.92957859606634"/><line fill="none" stroke="#000" stroke-linecap="round" x1="-682.6556855789553" x2="-672.9925589335683" y1="-320.9871926057887" y2="-335.28360896050805"/><line fill="none" stroke="#000" stroke-linecap="round" x1="-682.6556855789553" x2="-671.4779495811891" y1="-320.9871926057887" y2="-305.77525493165933"/><line fill="none" stroke="#000" stroke-linecap="round" x1="-682.6556855789553" x2="-699.578243124706" y1="-320.9871926057887" y2="-320.780453577946"/><line fill="none" stroke="#000" stroke-linecap="round" x1="-682.6556855789553" x2="-699.7172676212089" y1="-320.9871926057887" y2="-304.07067403346144"/><line fill="none" stroke="#000" stroke-linecap="round" x1="-699.1038353209926" x2="-699.0473101997324" y1="-345.18496548667616" y2="-349.3168599608978"/><line fill="none" stroke="#000" stroke-linecap="round" x1="-699.1038353209926" x2="-699.7841006935835" y1="-345.18496548667616" y2="-332.5047267590683"/><line fill="none" stroke="#000" stroke-linecap="round" x1="-699.1038353209926" x2="-699.095403902372" y1="-345.18496548667616" y2="-341.5675245010609"/><line fill="none" stroke="#000" stroke-linecap="round" x1="-699.1038353209926" x2="-699.3522516979561" y1="-345.18496548667616" y2="-328.3943846992841"/><line fill="none" stroke="#000" stroke-linecap="round" x1="-699.1038353209926" x2="-662.152375053789" y1="-345.18496548667616" y2="-349.16484692031486"/><line fill="none" stroke="#000" stroke-linecap="round" x1="-693.6799274699309" x2="-699.7388271884535" y1="-284.165602189303" y2="-281.5170196970981"/><line fill="none" stroke="#000" stroke-linecap="round" x1="-693.6799274699309" x2="-676.5186286624463" y1="-284.165602189303" y2="-300.4656813147842"/><line fill="none" stroke="#000" stroke-linecap="round" x1="-693.6799274699309" x2="-694.3024779002174" y1="-284.165602189303" y2="-267.56607531787523"/><line fill="none" stroke="#000" stroke-linecap="round" x1="-693.6799274699309" x2="-645.5430298951896" y1="-284.165602189303" y2="-241.91176480919023"/><line fill="none" stroke="#000" stroke-linecap="round" x1="-693.6799274699309" x2="-657.1637833943186" y1="-284.165602189303" y2="-265.2194671531865"/><line fill="none" stroke="#000" stroke-linecap="round" x1="-699.3087073659541" x2="-699.4883964728068" y1="-333.56915955056314" y2="-308.96405985257627"/><line fill="none" stroke="#000" stroke-linecap="round" x1="-699.3087073659541" x2="-699.1785703187463" y1="-333.56915955056314" y2="-345.0925488840634"/><line fill="none" stroke="#000" stroke-linecap="round" x1="-699.3087073659541" x2="-699.201948271021" y1="-333.56915955056314" y2="-322.47728988767864"/><line fill="none" stroke="#000" stroke-linecap="round" x1="-699.3087073659541" x2="-699.5941783741895" y1="-333.56915955056314" y2="-349.0090627809917"/><line fill="none" stroke="#000" stroke-linecap="round" x1="-699.3087073659541" x2="-699.6192211055146" y1="-333.56915955056314" y2="-328.8912092360332"/><line fill="none" stroke="#000" stroke-linecap="round" x1="-699.6432951109454" x2="-685.9873506525051" y1="-305.44090026569177" y2="-308.92805992192996"/><line fill="none" stroke="#000" stroke-linecap="round" x1="-699.6432951109454" x2="-699.7172676212089" y1="-305.44090026569177" y2="-304.07067403346144"/><line fill="none" stroke="#000" stroke-linecap="round" x1="-699.6432951109454" x2="-699.578243124706" y1="-305.44090026569177" y2="-320.780453577946"/><line fill="none" stroke="#000" stroke-linecap="round" x1="-699.6432951109454" x2="-699.1879826140904" y1="-305.44090026569177" y2="-247.10219028765846"/><line fill="none" stroke="#000" stroke-linecap="round" x1="-699.6432951109454" x2="-699.2890359132109" y1="-305.44090026569177" y2="-300.261460464259"/><line fill="none" stroke="#000" stroke-linecap="round" x1="-685.9873506525051" x2="-699.6432951109454" y1="-308.92805992192996" y2="-305.44090026569177"/><line fill="none" stroke="#000" stroke-linecap="round" x1="-685.9873506525051" x2="-699.2890359132109" y1="-308.92805992192996" y2="-300.261460464259"/><line fill="none" stroke="#000" stroke-linecap="round" x1="-685.9873506525051" x2="-693.5310829185875" y1="-308.92805992192996" y2="-292.1257826192135"/><line fill="none" stroke="#000" stroke-linecap="round" x1="-685.9873506525051" x2="-644.8561744820205" y1="-308.92805992192996" y2="-340.1459378053325"/><line fill="none" stroke="#000" stroke-linecap="round" x1="-685.9873506525051" x2="-663.5244049859839" y1="-308.92805992192996" y2="-246.52032472472126"/><line fill="none" stroke="#000" stroke-linecap="round" x1="-677.7989494220136" x2="-664.8935271139164" y1="-279.9740165521142" y2="-286.6677774090928"/><line fill="none" stroke="#000" stroke-linecap="round" x1="-677.7989494220136" x2="-696.0549939774447" y1="-279.9740165521142" y2="-283.1317204735185"/><line fill="none" stroke="#000" stroke-linecap="round" x1="-677.7989494220136" x2="-675.1442997521867" y1="-279.9740165521142" y2="-233.9341649711573"/><line fill="none" stroke="#000" stroke-linecap="round" x1="-677.7989494220136" x2="-699.9223026043769" y1="-279.9740165521142" y2="-275.5008209263755"/><line fill="none" stroke="#000" stroke-linecap="round" x1="-677.7989494220136" x2="-619.1761063013249" y1="-279.9740165521142" y2="-271.8788952359221"/><line fill="none" stroke="#000" stroke-linecap="round" x1="-699.3872902724771" x2="-699.6877244698729" y1="-208.30571351343897" y2="-191.77438866648035"/><line fill="none" stroke="#000" stroke-linecap="round" x1="-699.3872902724771" x2="-699.2761867306995" y1="-208.30571351343897" y2="-210.2085028996551"/><line fill="none" stroke="#000" stroke-linecap="round" x1="-699.3872902724771" x2="-684.6355077720542" y1="-208.30571351343897" y2="-204.98288407609"/><line fill="none" stroke="#000" stroke-linecap="round" x1="-699.3872902724771" x2="-699.1574013398023" y1="-208.30571351343897" y2="-228.737728225322"/><line fill="none" stroke="#000" stroke-linecap="round" x1="-699.3872902724771" x2="-699.7052508117144" y1="-208.30571351343897" y2="-175.09353237965"/><line fill="none" stroke="#000" stroke-linecap="round" x1="-683.8133413167693" x2="-694.7130027270376" y1="-349.8759768695553" y2="-343.4756617050297"/><line fill="none" stroke="#000" stroke-linecap="round" x1="-683.8133413167693" x2="-679.8812314469824" y1="-349.8759768695553" y2="-339.92957859606634"/><line fill="none" stroke="#000" stroke-linecap="round" x1="-683.8133413167693" x2="-675.3776609181771" y1="-349.8759768695553" y2="-349.71128258932305"/><line fill="none" stroke="#000" stroke-linecap="round" x1="-683.8133413167693" x2="-684.7058826825413" y1="-349.8759768695553" y2="-349.1400323780183"/><line fill="none" stroke="#000" stroke-linecap="round" x1="-683.8133413167693" x2="-699.4825295924197" y1="-349.8759768695553" y2="-349.0947198010725"/><line fill="none" stroke="#000" stroke-linecap="round" x1="-689.4411966176245" x2="-688.5963308285401" y1="-349.9401457430069" y2="-349.4442143236907"/><line fill="none" stroke="#000" stroke-linecap="round" x1="-689.4411966176245" x2="-681.0385579389971" y1="-349.9401457430069" y2="-349.52300308617595"/><line fill="none" stroke="#000" stroke-linecap="round" x1="-689.4411966176245" x2="-680.6044966865019" y1="-349.9401457430069" y2="-340.3233258581823"/><line fill="none" stroke="#000" stroke-linecap="round" x1="-689.4411966176245" x2="-690.1505140350249" y1="-349.9401457430069" y2="-349.34114221307317"/><line fill="none" stroke="#000" stroke-linecap="round" x1="-689.4411966176245" x2="-699.5852807001833" y1="-349.9401457430069" y2="-349.59717213948164"/><line fill="none" stroke="#000" stroke-linecap="round" x1="-699.4825295924197" x2="-699.1785703187463" y1="-349.0947198010725" y2="-345.0925488840634"/><line fill="none" stroke="#000" stroke-linecap="round" x1="-699.4825295924197" x2="-683.8133413167693" y1="-349.0947198010725" y2="-349.8759768695553"/><line fill="none" stroke="#000" stroke-linecap="round" x1="-699.4825295924197" x2="-699.7183608825609" y1="-349.0947198010725" y2="-349.75754454256617"/><line fill="none" stroke="#000" stroke-linecap="round" x1="-699.4825295924197" x2="-699.5941783741895" y1="-349.0947198010725" y2="-349.0090627809917"/><line fill="none" stroke="#000" stroke-linecap="round" x1="-699.4825295924197" x2="-699.4883964728068" y1="-349.0947198010725" y2="-308.96405985257627"/><line fill="none" stroke="#000" stroke-linecap="round" x1="-689.2947751351488" x2="-675.3626329697853" y1="-283.1251815563219" y2="-276.22290556575405"/><line fill="none" stroke="#000" stroke-linecap="round" x1="-689.2947751351488" x2="-699.9223026043769" y1="-283.1251815563219" y2="-275.5008209263755"/><line fill="none" stroke="#000" stroke-linecap="round" x1="-689.2947751351488" x2="-699.4883964728068" y1="-283.1251815563219" y2="-308.96405985257627"/><line fill="none" stroke="#000" stroke-linecap="round" x1="-689.2947751351488" x2="-697.0879664778054" y1="-283.1251815563219" y2="-271.9430637086545"/><line fill="none" stroke="#000" stroke-linecap="round" x1="-689.2947751351488" x2="-699.1670504632419" y1="-283.1251815563219" y2="-260.7417888092366"/><line fill="none" stroke="#000" stroke-linecap="round" x1="-699.095403902372" x2="-699.7841006935835" y1="-341.5675245010609" y2="-332.5047267590683"/><line fill="none" stroke="#000" stroke-linecap="round" x1="-699.095403902372" x2="-699.6545132105254" y1="-341.5675245010609" y2="-349.81715975331855"/><line fill="none" stroke="#000" stroke-linecap="round" x1="-699.095403902372" x2="-688.5963308285401" y1="-341.5675245010609" y2="-349.4442143236907"/><line fill="none" stroke="#000" stroke-linecap="round" x1="-699.095403902372" x2="-699.1785703187463" y1="-341.5675245010609" y2="-345.0925488840634"/><line fill="none" stroke="#000" stroke-linecap="round" x1="-699.095403902372" x2="-699.201948271021" y1="-341.5675245010609" y2="-322.47728988767864"/><line fill="none" stroke="#000" stroke-linecap="round" x1="-699.5941783741895" x2="-699.7183608825609" y1="-349.0090627809917" y2="-349.75754454256617"/><line fill="none" stroke="#000" stroke-linecap="round" x1="-699.5941783741895" x2="-699.4883964728068" y1="-349.0090627809917" y2="-308.96405985257627"/><line fill="none" stroke="#000" stroke-linecap="round" x1="-699.5941783741895" x2="-699.3087073659541" y1="-349.0090627809917" y2="-333.56915955056314"/><line fill="none" stroke="#000" stroke-linecap="round" x1="-699.5941783741895" x2="-699.6192211055146" y1="-349.0090627809917" y2="-328.8912092360332"/><line fill="none" stroke="#000" stroke-linecap="round" x1="-699.5941783741895" x2="-694.7130027270376" y1="-349.0090627809917" y2="-343.4756617050297"/><line fill="none" stroke="#000" stroke-linecap="round" x1="-699.7183608825609" x2="-699.5941783741895" y1="-349.75754454256617" y2="-349.0090627809917"/><line fill="none" stroke="#000" stroke-linecap="round" x1="-699.7183608825609" x2="-699.4904333486826" y1="-349.75754454256617" y2="-297.2062788874362"/><line fill="none" stroke="#000" stroke-linecap="round" x1="-699.7183608825609" x2="-683.8133413167693" y1="-349.75754454256617" y2="-349.8759768695553"/><line fill="none" stroke="#000" stroke-linecap="round" x1="-699.7183608825609" x2="-699.3087073659541" y1="-349.75754454256617" y2="-333.56915955056314"/><line fill="none" stroke="#000" stroke-linecap="round" x1="-699.7183608825609" x2="-665.6088220629963" y1="-349.75754454256617" y2="-349.4044453699084"/><line fill="none" stroke="#000" stroke-linecap="round" x1="-675.3776609181771" x2="-694.7130027270376" y1="-349.71128258932305" y2="-343.4756617050297"/><line fill="none" stroke="#000" stroke-linecap="round" x1="-675.3776609181771" x2="-688.5963308285401" y1="-349.71128258932305" y2="-349.4442143236907"/><line fill="none" stroke="#000" stroke-linecap="round" x1="-675.3776609181771" x2="-699.0473101997324" y1="-349.71128258932305" y2="-349.3168599608978"/><line fill="none" stroke="#000" stroke-linecap="round" x1="-675.3776609181771" x2="-681.0385579389971" y1="-349.71128258932305" y2="-349.52300308617595"/><line fill="none" stroke="#000" stroke-linecap="round" x1="-675.3776609181771" x2="-683.8133413167693" y1="-349.71128258932305" y2="-349.8759768695553"/><line fill="none" stroke="#000" stroke-linecap="round" x1="-643.5510057766157" x2="-604.8068648330434" y1="-308.0419265077708" y2="-307.3516481109365"/><line fill="none" stroke="#000" stroke-linecap="round" x1="-643.5510057766157" x2="-622.7212845549196" y1="-308.0419265077708" y2="-307.92422226922275"/><line fill="none" stroke="#000" stroke-linecap="round" x1="-643.5510057766157" x2="-618.7905042770687" y1="-308.0419265077708" y2="-326.3573405031392"/><line fill="none" stroke="#000" stroke-linecap="round" x1="-643.5510057766157" x2="-632.7137521661418" y1="-308.0419265077708" y2="-291.4916967731724"/><line fill="none" stroke="#000" stroke-linecap="round" x1="-643.5510057766157" x2="-638.436098292468" y1="-308.0419265077708" y2="-280.69201256448633"/><line fill="none" stroke="#000" stroke-linecap="round" x1="-699.578243124706" x2="-699.7172676212089" y1="-320.780453577946" y2="-304.07067403346144"/><line fill="none" stroke="#000" stroke-linecap="round" x1="-699.578243124706" x2="-699.6324425458836" y1="-320.780453577946" y2="-326.3114543884978"/><line fill="none" stroke="#000" stroke-linecap="round" x1="-699.578243124706" x2="-699.201948271021" y1="-320.780453577946" y2="-322.47728988767864"/><line fill="none" stroke="#000" stroke-linecap="round" x1="-699.578243124706" x2="-683.8133413167693" y1="-320.780453577946" y2="-349.8759768695553"/><line fill="none" stroke="#000" stroke-linecap="round" x1="-699.578243124706" x2="-697.1993982916699" y1="-320.780453577946" y2="-282.77972026988215"/><line fill="none" stroke="#000" stroke-linecap="round" x1="-694.7130027270376" x2="-699.201948271021" y1="-343.4756617050297" y2="-322.47728988767864"/><line fill="none" stroke="#000" stroke-linecap="round" x1="-694.7130027270376" x2="-683.8133413167693" y1="-343.4756617050297" y2="-349.8759768695553"/><line fill="none" stroke="#000" stroke-linecap="round" x1="-694.7130027270376" x2="-675.3776609181771" y1="-343.4756617050297" y2="-349.71128258932305"/><line fill="none" stroke="#000" stroke-linecap="round" x1="-694.7130027270376" x2="-699.5852807001833" y1="-343.4756617050297" y2="-349.59717213948164"/><line fill="none" stroke="#000" stroke-linecap="round" x1="-694.7130027270376" x2="-699.3674129948625" y1="-343.4756617050297" y2="-294.5844979776755"/><line fill="none" stroke="#000" stroke-linecap="round" x1="-699.2890359132109" x2="-699.9066164672575" y1="-300.261460464259" y2="-305.91999874277656"/><line fill="none" stroke="#000" stroke-linecap="round" x1="-699.2890359132109" x2="-693.5310829185875" y1="-300.261460464259" y2="-292.1257826192135"/><line fill="none" stroke="#000" stroke-linecap="round" x1="-699.2890359132109" x2="-699.6597070257758" y1="-300.261460464259" y2="-295.5764938661382"/><line fill="none" stroke="#000" stroke-linecap="round" x1="-699.2890359132109" x2="-685.9873506525051" y1="-300.261460464259" y2="-308.92805992192996"/><line fill="none" stroke="#000" stroke-linecap="round" x1="-699.2890359132109" x2="-666.7652111338604" y1="-300.261460464259" y2="-282.56856245975604"/><line fill="none" stroke="#000" stroke-linecap="round" x1="-697.1993982916699" x2="-699.578243124706" y1="-282.77972026988215" y2="-320.780453577946"/><line fill="none" stroke="#000" stroke-linecap="round" x1="-697.1993982916699" x2="-699.4883964728068" y1="-282.77972026988215" y2="-308.96405985257627"/><line fill="none" stroke="#000" stroke-linecap="round" x1="-697.1993982916699" x2="-694.3024779002174" y1="-282.77972026988215" y2="-267.56607531787523"/><line fill="none" stroke="#000" stroke-linecap="round" x1="-697.1993982916699" x2="-659.927056914799" y1="-282.77972026988215" y2="-263.1643485801309"/><line fill="none" stroke="#000" stroke-linecap="round" x1="-697.1993982916699" x2="-697.0879664778054" y1="-282.77972026988215" y2="-271.9430637086545"/><line fill="none" stroke="#000" stroke-linecap="round" x1="-699.1785703187463" x2="-699.9883315025675" y1="-345.0925488840634" y2="-307.12808798901165"/><line fill="none" stroke="#000" stroke-linecap="round" x1="-699.1785703187463" x2="-699.095403902372" y1="-345.0925488840634" y2="-341.5675245010609"/><line fill="none" stroke="#000" stroke-linecap="round" x1="-699.1785703187463" x2="-665.1905686710265" y1="-345.0925488840634" y2="-349.51881745805844"/><line fill="none" stroke="#000" stroke-linecap="round" x1="-699.1785703187463" x2="-657.2635616110709" y1="-345.0925488840634" y2="-323.3656906707137"/><line fill="none" stroke="#000" stroke-linecap="round" x1="-699.1785703187463" x2="-699.4825295924197" y1="-345.0925488840634" y2="-349.0947198010725"/><line fill="none" stroke="#000" stroke-linecap="round" x1="-699.8059445158798" x2="-684.7058826825413" y1="-341.6659036480061" y2="-349.1400323780183"/><line fill="none" stroke="#000" stroke-linecap="round" x1="-699.8059445158798" x2="-699.7183608825609" y1="-341.6659036480061" y2="-349.75754454256617"/><line fill="none" stroke="#000" stroke-linecap="round" x1="-699.8059445158798" x2="-699.1785703187463" y1="-341.6659036480061" y2="-345.0925488840634"/><line fill="none" stroke="#000" stroke-linecap="round" x1="-699.8059445158798" x2="-699.6192211055146" y1="-341.6659036480061" y2="-328.8912092360332"/><line fill="none" stroke="#000" stroke-linecap="round" x1="-699.8059445158798" x2="-693.6799274699309" y1="-341.6659036480061" y2="-284.165602189303"/><line fill="none" stroke="#000" stroke-linecap="round" x1="-699.6192211055146" x2="-699.201948271021" y1="-328.8912092360332" y2="-322.47728988767864"/><line fill="none" stroke="#000" stroke-linecap="round" x1="-699.6192211055146" x2="-699.4883964728068" y1="-328.8912092360332" y2="-308.96405985257627"/><line fill="none" stroke="#000" stroke-linecap="round" x1="-699.6192211055146" x2="-699.3087073659541" y1="-328.8912092360332" y2="-333.56915955056314"/><line fill="none" stroke="#000" stroke-linecap="round" x1="-699.6192211055146" x2="-699.6432951109454" y1="-328.8912092360332" y2="-305.44090026569177"/><line fill="none" stroke="#000" stroke-linecap="round" x1="-699.6192211055146" x2="-699.8059445158798" y1="-328.8912092360332" y2="-341.6659036480061"/><line fill="none" stroke="#000" stroke-linecap="round" x1="-684.7058826825413" x2="-677.4331651876086" y1="-349.1400323780183" y2="-347.34989882946996"/><line fill="none" stroke="#000" stroke-linecap="round" x1="-684.7058826825413" x2="-699.8059445158798" y1="-349.1400323780183" y2="-341.6659036480061"/><line fill="none" stroke="#000" stroke-linecap="round" x1="-684.7058826825413" x2="-683.8133413167693" y1="-349.1400323780183" y2="-349.8759768695553"/><line fill="none" stroke="#000" stroke-linecap="round" x1="-684.7058826825413" x2="-694.7130027270376" y1="-349.1400323780183" y2="-343.4756617050297"/><line fill="none" stroke="#000" stroke-linecap="round" x1="-684.7058826825413" x2="-699.7183608825609" y1="-349.1400323780183" y2="-349.75754454256617"/><line fill="none" stroke="#000" stroke-linecap="round" x1="-694.3024779002174" x2="-699.7388271884535" y1="-267.56607531787523" y2="-281.5170196970981"/><line fill="none" stroke="#000" stroke-linecap="round" x1="-694.3024779002174" x2="-693.6799274699309" y1="-267.56607531787523" y2="-284.165602189303"/><line fill="none" stroke="#000" stroke-linecap="round" x1="-694.3024779002174" x2="-661.7766516476482" y1="-267.56607531787523" y2="-253.82567165887383"/><line fill="none" stroke="#000" stroke-linecap="round" x1="-694.3024779002174" x2="-697.0879664778054" y1="-267.56607531787523" y2="-271.9430637086545"/><line fill="none" stroke="#000" stroke-linecap="round" x1="-694.3024779002174" x2="-646.405288000791" y1="-267.56607531787523" y2="-246.11896565760543"/><line fill="none" stroke="#000" stroke-linecap="round" x1="-689.1781076409181" x2="-699.6432951109454" y1="-307.69339396931576" y2="-305.44090026569177"/><line fill="none" stroke="#000" stroke-linecap="round" x1="-689.1781076409181" x2="-685.9873506525051" y1="-307.69339396931576" y2="-308.92805992192996"/><line fill="none" stroke="#000" stroke-linecap="round" x1="-689.1781076409181" x2="-677.6458499600394" y1="-307.69339396931576" y2="-313.6340605691462"/><line fill="none" stroke="#000" stroke-linecap="round" x1="-689.1781076409181" x2="-677.7989494220136" y1="-307.69339396931576" y2="-279.9740165521142"/><line fill="none" stroke="#000" stroke-linecap="round" x1="-689.1781076409181" x2="-699.6324425458836" y1="-307.69339396931576" y2="-326.3114543884978"/><line fill="none" stroke="#000" stroke-linecap="round" x1="-699.6545132105254" x2="-699.095403902372" y1="-349.81715975331855" y2="-341.5675245010609"/><line fill="none" stroke="#000" stroke-linecap="round" x1="-699.6545132105254" x2="-699.7841006935835" y1="-349.81715975331855" y2="-332.5047267590683"/><line fill="none" stroke="#000" stroke-linecap="round" x1="-699.6545132105254" x2="-699.1785703187463" y1="-349.81715975331855" y2="-345.0925488840634"/><line fill="none" stroke="#000" stroke-linecap="round" x1="-699.6545132105254" x2="-660.5637354046171" y1="-349.81715975331855" y2="-349.8404411532853"/><line fill="none" stroke="#000" stroke-linecap="round" x1="-699.6545132105254" x2="-689.8217622098153" y1="-349.81715975331855" y2="-349.3653729004717"/><line fill="none" stroke="#000" stroke-linecap="round" x1="-675.3626329697853" x2="-677.7989494220136" y1="-276.22290556575405" y2="-279.9740165521142"/><line fill="none" stroke="#000" stroke-linecap="round" x1="-675.3626329697853" x2="-689.2947751351488" y1="-276.22290556575405" y2="-283.1251815563219"/><line fill="none" stroke="#000" stroke-linecap="round" x1="-675.3626329697853" x2="-699.9223026043769" y1="-276.22290556575405" y2="-275.5008209263755"/><line fill="none" stroke="#000" stroke-linecap="round" x1="-675.3626329697853" x2="-619.5515584175821" y1="-276.22290556575405" y2="-260.45926350357166"/><line fill="none" stroke="#000" stroke-linecap="round" x1="-675.3626329697853" x2="-629.3256097483905" y1="-276.22290556575405" y2="-246.09965442149607"/><line fill="none" stroke="#000" stroke-linecap="round" x1="-644.8561744820205" x2="-632.6836078786419" y1="-340.1459378053325" y2="-349.99255598113245"/><line fill="none" stroke="#000" stroke-linecap="round" x1="-644.8561744820205" x2="-615.5412509175455" y1="-340.1459378053325" y2="-349.1277465970141"/><line fill="none" stroke="#000" stroke-linecap="round" x1="-644.8561744820205" x2="-675.1171452387514" y1="-340.1459378053325" y2="-323.81668443497614"/><line fill="none" stroke="#000" stroke-linecap="round" x1="-644.8561744820205" x2="-603.0037034759919" y1="-340.1459378053325" y2="-348.67957715381516"/><line fill="none" stroke="#000" stroke-linecap="round" x1="-644.8561744820205" x2="-636.1799435434094" y1="-340.1459378053325" y2="-323.88305302091584"/><line fill="none" stroke="#000" stroke-linecap="round" x1="-699.201948271021" x2="-699.6192211055146" y1="-322.47728988767864" y2="-328.8912092360332"/><line fill="none" stroke="#000" stroke-linecap="round" x1="-699.201948271021" x2="-694.7130027270376" y1="-322.47728988767864" y2="-343.4756617050297"/><line fill="none" stroke="#000" stroke-linecap="round" x1="-699.201948271021" x2="-699.095403902372" y1="-322.47728988767864" y2="-341.5675245010609"/><line fill="none" stroke="#000" stroke-linecap="round" x1="-699.201948271021" x2="-699.7172676212089" y1="-322.47728988767864" y2="-304.07067403346144"/><line fill="none" stroke="#000" stroke-linecap="round" x1="-699.201948271021" x2="-699.6324425458836" y1="-322.47728988767864" y2="-326.3114543884978"/><line fill="none" stroke="#000" stroke-linecap="round" x1="-657.2635616110709" x2="-655.9973424170823" y1="-323.3656906707137" y2="-303.87779847948605"/><line fill="none" stroke="#000" stroke-linecap="round" x1="-657.2635616110709" x2="-602.8842982399386" y1="-323.3656906707137" y2="-329.7129493833482"/><line fill="none" stroke="#000" stroke-linecap="round" x1="-657.2635616110709" x2="-687.1179834092723" y1="-323.3656906707137" y2="-333.16164573565317"/><line fill="none" stroke="#000" stroke-linecap="round" x1="-657.2635616110709" x2="-659.2066099165519" y1="-323.3656906707137" y2="-298.3021255222776"/><line fill="none" stroke="#000" stroke-linecap="round" x1="-657.2635616110709" x2="-611.873628468891" y1="-323.3656906707137" y2="-297.41907886157856"/></svg>