<?xml version="1.0" ?><!DOCTYPE svg  PUBLIC '-//W3C//DTD SVG 1.1//EN'  'http://www.w3.org/Graphics/SVG/1.1/DTD/svg11.dtd'><svg height="379.000" viewBox="-716.000 -366.000 729.000 379.000" width="729.000" xmlns="http://www.w3.org/2000/svg"><line fill="none" stroke="none" stroke-linecap="round" stroke-width="2.0" x1="0.0" x2="0.0" y1="0.0" y2="0.0"/><polygon fill="none" fill-rule="evenodd" points="0.0,0.0 0.0,0.0 0.0,0.0" stroke-linejoin="round"/><line fill="none" stroke="none" stroke-linecap="round" stroke-width="2.0" x1="0.0" x2="0.0" y1="0.0" y2="0.0"/><line fill="none" stroke="none" stroke-linecap="round" stroke-width="2.0" x1="0.0" x2="0.0" y1="0.0" y2="0.0"/><polygon fill="none" fill-rule="evenodd" points="0.0,0.0 0.0,0.0 0.0,0.0" stroke-linejoin="round"/><line fill="none" stroke="none" stroke-linecap="round" stroke-width="2.0" x1="0.0" x2="0.0" y1="0.0" y2="0.0"/><line fill="none" stroke="none" stroke-linecap="round" stroke-width="2.0" x1="0.0" x2="0.0" y1="0.0" y2="0.0"/><polygon fill="none" fill-rule="evenodd" points="0.0,0.0 0.0,0.0 0.0,0.0" stroke-linejoin="round"/><line fill="none" stroke="none" stroke-linecap="round" stroke-width="2.0" x1="0.0" x2="0.0" y1="0.0" y2="0.0"/><line fill="none" stroke="none" stroke-linecap="round" stroke-width="2.0" x1="0.0" x2="0.0" y1="0.0" y2="0.0"/><polygon fill="none" fill-rule="evenodd" points="0.0,0.0 0.0,0.0 0.0,0.0" stroke-linejoin="round"/><polyline fill="none" points="-609.1199553454551,-264.42061236115484 -606.6199553454551,-265.0904853422326 -604.7898283265329,-266.92061236115484 -604.1199553454551,-269.42061236115484 -604.7898283265329,-271.92061236115484 -606.6199553454551,-273.75073938007705 -609.1199553454551,-274.42061236115484 -611.6199553454551,-273.75073938007705 -613.4500823643773,-271.92061236115484 -614.1199553454551,-269.42061236115484 -613.4500823643773,-266.92061236115484 -611.6199553454551,-265.0904853422326 -609.1199553454551,-264.42061236115484" stroke="#00f" stroke-linecap="round" stroke-linejoin="round"/><polyline fill="none" points="-676.7848905774986,-321.20842681279487 -674.2848905774986,-321.87829979387266 -672.4547635585764,-323.70842681279487 -671.7848905774986,-326.20842681279487 -672.4547635585764,-328.70842681279487 -674.2848905774986,-330.5385538317171 -676.7848905774986,-331.20842681279487 -679.2848905774986,-330.5385538317171 -681.1150175964208,-328.70842681279487 -681.7848905774986,-326.20842681279487 -681.1150175964208,-323.70842681279487 -679.2848905774986,-321.87829979387266 -676.7848905774986,-321.20842681279487" stroke="#ffa500" stroke-linecap="round" stroke-linejoin="round"/><polyline fill="none" points="-613.5836086905003,-278.153795718628 -611.0836086905003,-278.82366869970576 -609.2534816715781,-280.653795718628 -608.5836086905003,-283.153795718628 -609.2534816715781,-285.653795718628 -611.0836086905003,-287.4839227375502 -613.5836086905003,-288.153795718628 -616.0836086905003,-287.4839227375502 -617.9137357094226,-285.653795718628 -618.5836086905003,-283.153795718628 -617.9137357094226,-280.653795718628 -616.0836086905003,-278.82366869970576 -613.5836086905003,-278.153795718628" stroke="#00f" stroke-linecap="round" stroke-linejoin="round"/><polyline fill="none" points="-600.712314480111,-171.87320666276113 -598.212314480111,-172.54307964383892 -596.3821874611888,-174.3732066627611 -595.712314480111,-176.8732066627611 -596.3821874611888,-179.3732066627611 -598.212314480111,-181.20333368168332 -600.712314480111,-181.87320666276113 -603.212314480111,-181.20333368168335 -605.0424414990332,-179.37320666276116 -605.712314480111,-176.87320666276116 -605.0424414990332,-174.37320666276116 -603.212314480111,-172.54307964383895 -600.712314480111,-171.87320666276113" stroke="#ffa500" stroke-linecap="round" stroke-linejoin="round"/><polyline fill="none" points="-699.5514387576501,-244.62635187195772 -697.0514387576501,-245.2962248530355 -695.2213117387279,-247.1263518719577 -694.5514387576501,-249.6263518719577 -695.2213117387279,-252.1263518719577 -697.0514387576501,-253.9564788908799 -699.5514387576501,-254.62635187195772 -702.0514387576501,-253.95647889087994 -703.8815657765723,-252.12635187195775 -704.5514387576501,-249.62635187195775 -703.8815657765723,-247.12635187195775 -702.0514387576501,-245.29622485303554 -699.5514387576501,-244.62635187195772" stroke="#ffa500" stroke-linecap="round" stroke-linejoin="round"/><polyline fill="none" points="-672.9027115134177,-280.27451194124467 -670.4027115134177,-280.94438492232246 -668.5725844944955,-282.77451194124467 -667.9027115134177,-285.27451194124467 -668.5725844944955,-287.77451194124467 -670.4027115134177,-289.6046389601669 -672.9027115134177,-290.2745119412447 -675.4027115134177,-289.60463896016694 -677.2328385323399,-287.7745119412447 -677.9027115134177,-285.2745119412447 -677.2328385323399,-282.7745119412447 -675.4027115134177,-280.9443849223225 -672.9027115134177,-280.27451194124467" stroke="#ffa500" stroke-linecap="round" stroke-linejoin="round"/><polyline fill="none" points="-690.8842175779503,-344.58208764664 -688.3842175779503,-345.2519606277178 -686.554090559028,-347.08208764664 -685.8842175779503,-349.58208764664 -686.554090559028,-352.08208764664 -688.3842175779503,-353.9122146655622 -690.8842175779503,-354.58208764664005 -693.3842175779503,-353.91221466556226 -695.2143445968725,-352.0820876466401 -695.8842175779503,-349.5820876466401 -695.2143445968725,-347.0820876466401 -693.3842175779503,-345.2519606277179 -690.8842175779503,-344.58208764664005" stroke="#ffa500" stroke-linecap="round" stroke-linejoin="round"/><polyline fill="none" points="-646.5822673654022,-226.1378175247334 -644.0822673654022,-226.8076905058112 -642.25214034648,-228.63781752473338 -641.5822673654022,-231.13781752473338 -642.25214034648,-233.63781752473338 -644.0822673654022,-235.4679445436556 -646.5822673654022,-236.1378175247334 -649.0822673654022,-235.46794454365562 -650.9123943843244,-233.63781752473344 -651.5822673654022,-231.13781752473344 -650.9123943843244,-228.63781752473344 -649.0822673654022,-226.80769050581122 -646.5822673654022,-226.1378175247334" stroke="#00f" stroke-linecap="round" stroke-linejoin="round"/><polyline fill="none" points="-648.4457414302115,-344.6084867085467 -645.9457414302115,-345.2783596896245 -644.1156144112892,-347.10848670854665 -643.4457414302115,-349.60848670854665 -644.1156144112892,-352.10848670854665 -645.9457414302115,-353.93861372746886 -648.4457414302115,-354.6084867085467 -650.9457414302115,-353.9386137274689 -652.7758684491337,-352.10848670854676 -653.4457414302115,-349.60848670854676 -652.7758684491337,-347.10848670854676 -650.9457414302115,-345.27835968962455 -648.4457414302115,-344.6084867085467" stroke="#ffa500" stroke-linecap="round" stroke-linejoin="round"/><polyline fill="none" points="-636.191018343649,-304.8242628814305 -633.691018343649,-305.4941358625083 -631.8608913247268,-307.32426288143046 -631.191018343649,-309.82426288143046 -631.8608913247268,-312.32426288143046 -633.691018343649,-314.15438990035267 -636.191018343649,-314.8242628814305 -638.691018343649,-314.1543899003527 -640.5211453625712,-312.32426288143057 -641.191018343649,-309.82426288143057 -640.5211453625712,-307.32426288143057 -638.691018343649,-305.49413586250836 -636.191018343649,-304.8242628814305" stroke="#ffa500" stroke-linecap="round" stroke-linejoin="round"/><polyline fill="none" points="-668.8013895636989,-274.727813551509 -666.3013895636989,-275.39768653258676 -664.4712625447767,-277.2278135515089 -663.8013895636989,-279.7278135515089 -664.4712625447767,-282.2278135515089 -666.3013895636989,-284.05794057043113 -668.8013895636989,-284.727813551509 -671.3013895636989,-284.0579405704312 -673.1315165826211,-282.22781355150903 -673.8013895636989,-279.72781355150903 -673.1315165826211,-277.22781355150903 -671.3013895636989,-275.3976865325868 -668.8013895636989,-274.727813551509" stroke="#008000" stroke-linecap="round" stroke-linejoin="round"/><polyline fill="none" points="-547.8395116918913,-276.69064198125807 -545.3395116918913,-277.36051496233586 -543.5093846729691,-279.190641981258 -542.8395116918913,-281.690641981258 -543.5093846729691,-284.190641981258 -545.3395116918913,-286.0207690001802 -547.8395116918913,-286.69064198125807 -550.3395116918913,-286.0207690001803 -552.1696387108135,-284.1906419812581 -552.8395116918913,-281.6906419812581 -552.1696387108135,-279.1906419812581 -550.3395116918913,-277.3605149623359 -547.8395116918913,-276.69064198125807" stroke="#ffa500" stroke-linecap="round" stroke-linejoin="round"/><polyline fill="none" points="-657.6824540374841,-243.5930367923695 -655.1824540374841,-244.2629097734473 -653.3523270185619,-246.09303679236947 -652.6824540374841,-248.59303679236947 -653.3523270185619,-251.0930367923695 -655.1824540374841,-252.92316381129172 -657.6824540374841,-253.59303679236956 -660.1824540374841,-252.92316381129177 -662.0125810564064,-251.0930367923696 -662.6824540374841,-248.5930367923696 -662.0125810564064,-246.09303679236956 -660.1824540374841,-244.26290977344735 -657.6824540374841,-243.5930367923695" stroke="#008000" stroke-linecap="round" stroke-linejoin="round"/><polyline fill="none" points="-608.1777517955213,-330.0942321378268 -605.6777517955213,-330.7641051189046 -603.8476247765991,-332.59423213782674 -603.1777517955213,-335.09423213782674 -603.8476247765991,-337.59423213782674 -605.6777517955213,-339.42435915674895 -608.1777517955213,-340.0942321378268 -610.6777517955213,-339.424359156749 -612.5078788144435,-337.59423213782685 -613.1777517955213,-335.09423213782685 -612.5078788144435,-332.59423213782685 -610.6777517955213,-330.76410511890464 -608.1777517955213,-330.0942321378268" stroke="#00f" stroke-linecap="round" stroke-linejoin="round"/><polyline fill="none" points="-557.6581624248279,-230.3693981241766 -555.1581624248279,-231.0392711052544 -553.3280354059057,-232.86939812417657 -552.6581624248278,-235.36939812417657 -553.3280354059056,-237.8693981241766 -555.1581624248278,-239.69952514309884 -557.6581624248278,-240.36939812417668 -560.1581624248278,-239.6995251430989 -561.98828944375,-237.8693981241767 -562.6581624248279,-235.3693981241767 -561.9882894437501,-232.86939812417668 -560.1581624248279,-231.03927110525444 -557.6581624248279,-230.3693981241766" stroke="#ffa500" stroke-linecap="round" stroke-linejoin="round"/><polyline fill="none" points="-613.6674856469376,-274.96985392454087 -611.1674856469376,-275.63972690561866 -609.3373586280154,-277.4698539245408 -608.6674856469375,-279.9698539245408 -609.3373586280153,-282.4698539245408 -611.1674856469375,-284.299980943463 -613.6674856469375,-284.96985392454087 -616.1674856469375,-284.2999809434631 -617.9976126658597,-282.4698539245409 -618.6674856469376,-279.9698539245409 -617.9976126658598,-277.4698539245409 -616.1674856469376,-275.6397269056187 -613.6674856469376,-274.96985392454087" stroke="#ffa500" stroke-linecap="round" stroke-linejoin="round"/><polyline fill="none" points="-543.4289003663026,-333.3677393037413 -540.9289003663026,-334.0376122848191 -539.0987733473804,-335.86773930374125 -538.4289003663025,-338.36773930374125 -539.0987733473803,-340.86773930374125 -540.9289003663025,-342.69786632266346 -543.4289003663025,-343.3677393037413 -545.9289003663025,-342.6978663226635 -547.7590273852247,-340.86773930374136 -548.4289003663026,-338.36773930374136 -547.7590273852248,-335.86773930374136 -545.9289003663026,-334.03761228481915 -543.4289003663026,-333.3677393037413" stroke="#ffa500" stroke-linecap="round" stroke-linejoin="round"/><polyline fill="none" points="-619.980408515346,-217.4148668486737 -617.480408515346,-218.08473982975147 -615.6502814964238,-219.91486684867365 -614.9804085153459,-222.41486684867365 -615.6502814964236,-224.91486684867368 -617.4804085153459,-226.74499386759592 -619.9804085153459,-227.41486684867377 -622.4804085153459,-226.744993867596 -624.3105355342681,-224.91486684867382 -624.980408515346,-222.41486684867382 -624.3105355342682,-219.9148668486738 -622.480408515346,-218.08473982975156 -619.980408515346,-217.4148668486737" stroke="#ffa500" stroke-linecap="round" stroke-linejoin="round"/><polyline fill="none" points="-565.520701220859,-275.02771639395394 -563.020701220859,-275.6975893750317 -561.1905742019368,-277.5277163939539 -560.5207012208589,-280.0277163939539 -561.1905742019367,-282.5277163939539 -563.0207012208589,-284.3578434128761 -565.5207012208589,-285.02771639395394 -568.0207012208589,-284.35784341287615 -569.8508282397811,-282.527716393954 -570.520701220859,-280.027716393954 -569.8508282397812,-277.527716393954 -568.020701220859,-275.6975893750318 -565.520701220859,-275.02771639395394" stroke="#ffa500" stroke-linecap="round" stroke-linejoin="round"/><polyline fill="none" points="-572.1940563164165,-252.59166128488994 -569.6940563164165,-253.2615342659677 -567.8639292974943,-255.09166128488985 -567.1940563164164,-257.5916612848899 -567.8639292974942,-260.0916612848899 -569.6940563164164,-261.9217883038121 -572.1940563164164,-262.59166128488994 -574.6940563164164,-261.92178830381215 -576.5241833353386,-260.09166128489 -577.1940563164165,-257.59166128489 -576.5241833353388,-255.09166128488997 -574.6940563164165,-253.26153426596773 -572.1940563164165,-252.59166128488985" stroke="#ffa500" stroke-linecap="round" stroke-linejoin="round"/><polyline fill="none" points="-699.5788818002314,-308.1035191091034 -697.0788818002314,-308.7733920901812 -695.2487547813092,-310.60351910910333 -694.5788818002313,-313.10351910910333 -695.2487547813091,-315.60351910910333 -697.0788818002313,-317.4336461280256 -699.5788818002313,-318.10351910910344 -702.0788818002313,-317.43364612802566 -703.9090088191535,-315.6035191091035 -704.5788818002314,-313.1035191091035 -703.9090088191537,-310.60351910910344 -702.0788818002314,-308.7733920901812 -699.5788818002314,-308.10351910910333" stroke="#ffa500" stroke-linecap="round" stroke-linejoin="round"/><polyline fill="none" points="-572.7347033435661,-320.35494487342265 -570.2347033435661,-321.0248178545004 -568.4045763246439,-322.85494487342254 -567.734703343566,-325.35494487342254 -568.4045763246438,-327.8549448734226 -570.234703343566,-329.68507189234487 -572.734703343566,-330.3549448734227 -575.234703343566,-329.685071892345 -577.0648303624882,-327.8549448734228 -577.7347033435661,-325.3549448734228 -577.0648303624884,-322.85494487342277 -575.2347033435661,-321.0248178545005 -572.7347033435661,-320.35494487342265" stroke="#00f" stroke-linecap="round" stroke-linejoin="round"/><polyline fill="none" points="-587.1343206364595,-185.9675205114265 -584.6343206364595,-186.63739349250426 -582.8041936175373,-188.46752051142641 -582.1343206364594,-190.96752051142641 -582.8041936175372,-193.46752051142644 -584.6343206364594,-195.29764753034868 -587.1343206364594,-195.96752051142656 -589.6343206364594,-195.2976475303488 -591.4644476553816,-193.46752051142664 -592.1343206364595,-190.96752051142664 -591.4644476553817,-188.4675205114266 -589.6343206364595,-186.63739349250437 -587.1343206364595,-185.9675205114265" stroke="#ffa500" stroke-linecap="round" stroke-linejoin="round"/><polyline fill="none" points="-573.4528739497147,-302.98838050048835 -570.9528739497147,-303.6582534815661 -569.1227469307925,-305.48838050048823 -568.4528739497146,-307.98838050048823 -569.1227469307923,-310.4883805004883 -570.9528739497146,-312.31850751941056 -573.4528739497146,-312.9883805004884 -575.9528739497146,-312.3185075194107 -577.7830009686368,-310.4883805004885 -578.4528739497147,-307.9883805004885 -577.7830009686369,-305.48838050048846 -575.9528739497147,-303.6582534815662 -573.4528739497147,-302.98838050048835" stroke="#ffa500" stroke-linecap="round" stroke-linejoin="round"/><polyline fill="none" points="-597.6214634120073,-295.9735704969346 -595.1214634120073,-296.64344347801233 -593.2913363930851,-298.4735704969345 -592.6214634120072,-300.9735704969345 -593.291336393085,-303.47357049693454 -595.1214634120072,-305.3036975158568 -597.6214634120072,-305.97357049693466 -600.1214634120072,-305.3036975158569 -601.9515904309294,-303.47357049693477 -602.6214634120073,-300.97357049693477 -601.9515904309295,-298.4735704969347 -600.1214634120073,-296.64344347801244 -597.6214634120073,-295.97357049693454" stroke="#00f" stroke-linecap="round" stroke-linejoin="round"/><polyline fill="none" points="-577.7794751740381,-344.49030608929115 -575.2794751740381,-345.1601790703689 -573.4493481551159,-346.99030608929104 -572.779475174038,-349.49030608929104 -573.4493481551158,-351.9903060892911 -575.279475174038,-353.82043310821336 -577.779475174038,-354.49030608929127 -580.279475174038,-353.82043310821354 -582.1096021929602,-351.9903060892914 -582.7794751740381,-349.4903060892914 -582.1096021929603,-346.9903060892913 -580.2794751740381,-345.16017907036905 -577.7794751740381,-344.49030608929115" stroke="#ffa500" stroke-linecap="round" stroke-linejoin="round"/><polyline fill="none" points="-699.8296874387343,-204.90611240569953 -697.3296874387343,-205.5759853867773 -695.499560419812,-207.40611240569945 -694.8296874387341,-209.90611240569945 -695.4995604198119,-212.40611240569947 -697.3296874387341,-214.23623942462174 -699.8296874387341,-214.90611240569962 -702.3296874387341,-214.23623942462186 -704.1598144576564,-212.4061124056997 -704.8296874387343,-209.9061124056997 -704.1598144576565,-207.40611240569967 -702.3296874387343,-205.5759853867774 -699.8296874387343,-204.90611240569953" stroke="#ffa500" stroke-linecap="round" stroke-linejoin="round"/><polyline fill="none" points="-574.4445577322446,-295.80578055899974 -571.9445577322446,-296.4756535400775 -570.1144307133223,-298.30578055899963 -569.4445577322444,-300.80578055899963 -570.1144307133222,-303.3057805589997 -571.9445577322444,-305.13590757792196 -574.4445577322444,-305.80578055899986 -576.9445577322444,-305.1359075779221 -578.7746847511667,-303.30578055899997 -579.4445577322446,-300.80578055899997 -578.7746847511668,-298.3057805589999 -576.9445577322446,-296.47565354007764 -574.4445577322446,-295.80578055899974" stroke="#ffa500" stroke-linecap="round" stroke-linejoin="round"/><polyline fill="none" points="-651.3458548366006,-174.41968118475637 -648.8458548366006,-175.0895541658341 -647.0157278176783,-176.91968118475626 -646.3458548366004,-179.41968118475626 -647.0157278176782,-181.91968118475629 -648.8458548366004,-183.74980820367855 -651.3458548366004,-184.41968118475643 -653.8458548366004,-183.7498082036787 -655.6759818555227,-181.91968118475654 -656.3458548366006,-179.41968118475654 -655.6759818555228,-176.9196811847565 -653.8458548366007,-175.08955416583424 -651.3458548366007,-174.41968118475637" stroke="#ffa500" stroke-linecap="round" stroke-linejoin="round"/><polyline fill="none" points="-677.4556834404807,-243.0373474449699 -674.9556834404807,-243.70722042604763 -673.1255564215585,-245.53734744496978 -672.4556834404806,-248.03734744496978 -673.1255564215584,-250.5373474449698 -674.9556834404805,-252.36747446389208 -677.4556834404805,-253.03734744496995 -679.9556834404805,-252.36747446389222 -681.7858104594027,-250.53734744497007 -682.4556834404806,-248.03734744497007 -681.7858104594028,-245.53734744497004 -679.9556834404807,-243.70722042604777 -677.4556834404807,-243.03734744496987" stroke="#00f" stroke-linecap="round" stroke-linejoin="round"/><polyline fill="none" points="-643.8124971286676,-261.75116120425463 -641.3124971286676,-262.42103418533236 -639.4823701097454,-264.2511612042545 -638.8124971286675,-266.7511612042545 -639.4823701097453,-269.2511612042546 -641.3124971286674,-271.08128822317684 -643.8124971286674,-271.75116120425474 -646.3124971286674,-271.081288223177 -648.1426241475896,-269.25116120425486 -648.8124971286675,-266.75116120425486 -648.1426241475897,-264.2511612042548 -646.3124971286676,-262.42103418533253 -643.8124971286676,-261.75116120425463" stroke="#00f" stroke-linecap="round" stroke-linejoin="round"/><polyline fill="none" points="-610.0932751074955,-199.74837895469048 -607.5932751074955,-200.4182519357682 -605.7631480885733,-202.24837895469037 -605.0932751074954,-204.74837895469037 -605.7631480885732,-207.24837895469042 -607.5932751074953,-209.0785059736127 -610.0932751074953,-209.7483789546906 -612.5932751074953,-209.07850597361286 -614.4234021264176,-207.2483789546907 -615.0932751074955,-204.7483789546907 -614.4234021264177,-202.24837895469065 -612.5932751074956,-200.41825193576838 -610.0932751074956,-199.74837895469048" stroke="#00f" stroke-linecap="round" stroke-linejoin="round"/><polyline fill="none" points="-626.1682222142483,-306.50030164333833 -623.6682222142483,-307.17017462441606 -621.838095195326,-309.0003016433382 -621.1682222142481,-311.5003016433382 -621.8380951953259,-314.0003016433383 -623.668222214248,-315.83042866226054 -626.168222214248,-316.50030164333845 -628.668222214248,-315.8304286622607 -630.4983492331703,-314.00030164333856 -631.1682222142482,-311.50030164333856 -630.4983492331705,-309.0003016433385 -628.6682222142484,-307.17017462441623 -626.1682222142484,-306.50030164333833" stroke="#ffa500" stroke-linecap="round" stroke-linejoin="round"/><polyline fill="none" points="-667.5233200538981,-183.78227693847273 -665.0233200538981,-184.45214991955046 -663.1931930349758,-186.28227693847262 -662.5233200538979,-188.78227693847262 -663.1931930349756,-191.28227693847268 -665.0233200538977,-193.11240395739495 -667.5233200538977,-193.78227693847285 -670.0233200538977,-193.11240395739512 -671.85344707282,-191.28227693847296 -672.5233200538979,-188.78227693847296 -671.8534470728202,-186.2822769384729 -670.0233200538981,-184.45214991955064 -667.5233200538981,-183.78227693847273" stroke="#ffa500" stroke-linecap="round" stroke-linejoin="round"/><polyline fill="none" points="-656.3972497394466,-295.004564091064 -653.8972497394466,-295.67443707214176 -652.0671227205243,-297.5045640910639 -651.3972497394464,-300.0045640910639 -652.067122720524,-302.50456409106397 -653.8972497394461,-304.33469110998624 -656.3972497394461,-305.00456409106414 -658.8972497394461,-304.3346911099864 -660.7273767583685,-302.50456409106425 -661.3972497394464,-300.00456409106425 -660.7273767583687,-297.5045640910642 -658.8972497394466,-295.6744370721419 -656.3972497394466,-295.004564091064" stroke="#00f" stroke-linecap="round" stroke-linejoin="round"/><polyline fill="none" points="-649.8569999726524,-257.1759874211377 -647.3569999726524,-257.8458604022154 -645.52687295373,-259.67598742113756 -644.8569999726521,-262.17598742113756 -645.5268729537298,-264.6759874211376 -647.3569999726519,-266.5061144400599 -649.8569999726519,-267.1759874211378 -652.3569999726519,-266.50611444006006 -654.1871269915742,-264.6759874211379 -654.8569999726521,-262.1759874211379 -654.1871269915745,-259.67598742113785 -652.3569999726524,-257.8458604022156 -649.8569999726524,-257.1759874211377" stroke="#00f" stroke-linecap="round" stroke-linejoin="round"/><polyline fill="none" points="-673.1333567960594,-200.22118910105266 -670.6333567960594,-200.8910620821304 -668.8032297771371,-202.72118910105254 -668.1333567960592,-205.22118910105254 -668.8032297771368,-207.7211891010526 -670.6333567960589,-209.55131611997487 -673.1333567960589,-210.22118910105277 -675.6333567960589,-209.55131611997504 -677.4634838149813,-207.7211891010529 -678.1333567960592,-205.2211891010529 -677.4634838149815,-202.72118910105283 -675.6333567960594,-200.89106208213056 -673.1333567960594,-200.22118910105266" stroke="#ffa500" stroke-linecap="round" stroke-linejoin="round"/><polyline fill="none" points="-580.8015398333098,-272.7222330628255 -578.3015398333098,-273.39210604390325 -576.4714128143875,-275.2222330628254 -575.8015398333096,-277.7222330628254 -576.4714128143872,-280.22223306282547 -578.3015398333093,-282.05236008174774 -580.8015398333093,-282.72223306282564 -583.3015398333093,-282.0523600817479 -585.1316668522317,-280.22223306282575 -585.8015398333096,-277.72223306282575 -585.1316668522319,-275.2222330628257 -583.3015398333098,-273.3921060439034 -580.8015398333098,-272.7222330628255" stroke="#ffa500" stroke-linecap="round" stroke-linejoin="round"/><polyline fill="none" points="-550.8943932742967,-311.48883907171023 -548.3943932742967,-312.15871205278796 -546.5642662553744,-313.9888390717101 -545.8943932742965,-316.4888390717101 -546.5642662553742,-318.9888390717102 -548.3943932742962,-320.81896609063244 -550.8943932742962,-321.48883907171034 -553.3943932742962,-320.8189660906326 -555.2245202932186,-318.98883907171046 -555.8943932742965,-316.48883907171046 -555.2245202932188,-313.9888390717104 -553.3943932742967,-312.15871205278813 -550.8943932742967,-311.48883907171023" stroke="#ffa500" stroke-linecap="round" stroke-linejoin="round"/><polyline fill="none" points="-603.6231653296834,-271.93230564844805 -601.1231653296834,-272.6021786295258 -599.2930383107611,-274.43230564844794 -598.6231653296832,-276.93230564844794 -599.2930383107608,-279.432305648448 -601.1231653296829,-281.26243266737026 -603.6231653296829,-281.93230564844816 -606.1231653296829,-281.26243266737043 -607.9532923486053,-279.4323056484483 -608.6231653296832,-276.9323056484483 -607.9532923486055,-274.4323056484482 -606.1231653296834,-272.60217862952595 -603.6231653296834,-271.93230564844805" stroke="#ffa500" stroke-linecap="round" stroke-linejoin="round"/><polyline fill="none" points="-679.6801576441568,-266.8756808137162 -677.1801576441568,-267.54555379479393 -675.3500306252345,-269.3756808137161 -674.6801576441566,-271.8756808137161 -675.3500306252342,-274.37568081371614 -677.1801576441563,-276.2058078326384 -679.6801576441563,-276.8756808137163 -682.1801576441563,-276.2058078326386 -684.0102846630787,-274.37568081371643 -684.6801576441566,-271.87568081371643 -684.0102846630789,-269.3756808137164 -682.1801576441568,-267.5455537947941 -679.6801576441568,-266.8756808137162" stroke="#ffa500" stroke-linecap="round" stroke-linejoin="round"/><polyline fill="none" points="-689.0423497537208,-269.5623598523794 -686.5423497537207,-270.23223283345715 -684.7122227347984,-272.0623598523793 -684.0423497537205,-274.5623598523793 -684.7122227347982,-277.06235985237936 -686.5423497537203,-278.8924868713016 -689.0423497537203,-279.56235985237953 -691.5423497537204,-278.8924868713018 -693.3724767726427,-277.06235985237964 -694.0423497537206,-274.56235985237964 -693.3724767726429,-272.0623598523796 -691.5423497537208,-270.2322328334573 -689.0423497537208,-269.5623598523794" stroke="#00f" stroke-linecap="round" stroke-linejoin="round"/><polyline fill="none" points="-598.5991168891,-219.91531105845004 -596.0991168890998,-220.58518403952775 -594.2689898701775,-222.41531105844987 -593.5991168890996,-224.91531105844987 -594.2689898701773,-227.41531105844993 -596.0991168890994,-229.24543807737223 -598.5991168890994,-229.91531105845016 -601.0991168890995,-229.24543807737246 -602.9292439080218,-227.41531105845033 -603.5991168890997,-224.91531105845033 -602.929243908022,-222.41531105845027 -601.0991168891,-220.58518403952797 -598.5991168891,-219.91531105845004" stroke="#ffa500" stroke-linecap="round" stroke-linejoin="round"/><polyline fill="none" points="-672.6841308139526,-35.23749332000405 -670.1841308139525,-35.90736630108176 -668.3540037950302,-37.73749332000389 -667.6841308139523,-40.23749332000389 -668.3540037950299,-42.73749332000395 -670.184130813952,-44.56762033892625 -672.684130813952,-45.23749332000417 -675.1841308139522,-44.56762033892647 -677.0142578328745,-42.73749332000433 -677.6841308139524,-40.23749332000433 -677.0142578328747,-37.73749332000427 -675.1841308139526,-35.90736630108197 -672.6841308139526,-35.23749332000405" stroke="#ffa500" stroke-linecap="round" stroke-linejoin="round"/><polyline fill="none" points="-681.2379223844783,-70.86431693148123 -678.7379223844782,-71.53418991255893 -676.9077953655559,-73.36431693148107 -676.237922384478,-75.86431693148107 -676.9077953655557,-78.36431693148113 -678.7379223844778,-80.19444395040342 -681.2379223844778,-80.86431693148135 -683.7379223844779,-80.19444395040365 -685.5680494034002,-78.36431693148151 -686.2379223844781,-75.86431693148151 -685.5680494034004,-73.36431693148145 -683.7379223844783,-71.53418991255916 -681.2379223844783,-70.86431693148123" stroke="#ffa500" stroke-linecap="round" stroke-linejoin="round"/><polyline fill="none" points="-618.8840303583148,-180.84728060194348 -616.3840303583147,-181.51715358302118 -614.5539033393924,-183.3472806019433 -613.8840303583145,-185.8472806019433 -614.5539033393921,-188.34728060194337 -616.3840303583142,-190.17740762086567 -618.8840303583142,-190.8472806019436 -621.3840303583144,-190.1774076208659 -623.2141573772367,-188.34728060194377 -623.8840303583146,-185.84728060194377 -623.2141573772369,-183.3472806019437 -621.3840303583148,-181.5171535830214 -618.8840303583148,-180.84728060194348" stroke="#ffa500" stroke-linecap="round" stroke-linejoin="round"/><polyline fill="none" points="-589.9790504147169,-340.4335884731524 -587.4790504147168,-341.10346145423006 -585.6489233957944,-342.9335884731522 -584.9790504147165,-345.4335884731522 -585.6489233957942,-347.93358847315227 -587.4790504147163,-349.7637154920746 -589.9790504147163,-350.43358847315255 -592.4790504147164,-349.7637154920749 -594.3091774336388,-347.9335884731527 -594.9790504147167,-345.4335884731527 -594.309177433639,-342.93358847315267 -592.4790504147169,-341.10346145423034 -589.9790504147169,-340.4335884731524" stroke="#ffa500" stroke-linecap="round" stroke-linejoin="round"/><polyline fill="none" points="-605.2739276582768,-236.71518140213692 -602.7739276582766,-237.38505438321462 -600.9438006393543,-239.21518140213675 -600.2739276582764,-241.71518140213675 -600.9438006393541,-244.2151814021368 -602.7739276582762,-246.0453084210591 -605.2739276582762,-246.71518140213703 -607.7739276582763,-246.04530842105933 -609.6040546771986,-244.2151814021372 -610.2739276582765,-241.7151814021372 -609.6040546771989,-239.21518140213715 -607.7739276582768,-237.38505438321485 -605.2739276582768,-236.71518140213692" stroke="#ffa500" stroke-linecap="round" stroke-linejoin="round"/><polyline fill="none" points="-699.7435716137853,-341.94857299900366 -697.2435716137852,-342.61844598008133 -695.4134445948629,-344.4485729990035 -694.743571613785,-346.9485729990035 -695.4134445948627,-349.44857299900355 -697.2435716137848,-351.27870001792587 -699.7435716137848,-351.94857299900383 -702.2435716137849,-351.27870001792616 -704.0736986327072,-349.448572999004 -704.7435716137851,-346.948572999004 -704.0736986327074,-344.44857299900394 -702.2435716137853,-342.6184459800816 -699.7435716137853,-341.94857299900366" stroke="#ffa500" stroke-linecap="round" stroke-linejoin="round"/><polyline fill="none" points="-563.6333268415635,-210.67949310444052 -561.1333268415634,-211.34936608551823 -559.3031998226411,-213.17949310444035 -558.6333268415632,-215.67949310444035 -559.3031998226409,-218.1794931044404 -561.133326841563,-220.0096201233627 -563.633326841563,-220.67949310444064 -566.1333268415631,-220.00962012336294 -567.9634538604854,-218.1794931044408 -568.6333268415633,-215.6794931044408 -567.9634538604856,-213.17949310444075 -566.1333268415635,-211.34936608551845 -563.6333268415635,-210.67949310444052" stroke="#ffa500" stroke-linecap="round" stroke-linejoin="round"/><polyline fill="none" points="-616.4353964120103,-330.1123094123328 -613.9353964120102,-330.7821823934105 -612.1052693930878,-332.6123094123326 -611.4353964120099,-335.1123094123326 -612.1052693930876,-337.61230941233265 -613.9353964120097,-339.442436431255 -616.4353964120097,-340.11230941233293 -618.9353964120098,-339.44243643125526 -620.7655234309321,-337.61230941233316 -621.43539641201,-335.11230941233316 -620.7655234309324,-332.6123094123331 -618.9353964120103,-330.7821823934108 -616.4353964120103,-330.1123094123328" stroke="#ffa500" stroke-linecap="round" stroke-linejoin="round"/><polyline fill="none" points="-636.7325493084397,-265.8595754873295 -634.2325493084396,-266.52944846840717 -632.4024222895173,-268.35957548732927 -631.7325493084394,-270.85957548732927 -632.4024222895171,-273.3595754873293 -634.2325493084392,-275.18970250625165 -636.7325493084392,-275.8595754873296 -639.2325493084393,-275.18970250625193 -641.0626763273616,-273.35957548732983 -641.7325493084395,-270.85957548732983 -641.0626763273618,-268.3595754873298 -639.2325493084397,-266.52944846840745 -636.7325493084397,-265.8595754873295" stroke="#00f" stroke-linecap="round" stroke-linejoin="round"/><polyline fill="none" points="-675.0038782186538,-312.4416923883954 -672.5038782186537,-313.11156536947306 -670.6737511997313,-314.94169238839515 -670.0038782186534,-317.44169238839515 -670.6737511997311,-319.9416923883952 -672.5038782186532,-321.77181940731754 -675.0038782186532,-322.4416923883955 -677.5038782186533,-321.7718194073178 -679.3340052375756,-319.9416923883957 -680.0038782186535,-317.4416923883957 -679.3340052375759,-314.94169238839567 -677.5038782186538,-313.11156536947334 -675.0038782186538,-312.4416923883954" stroke="#00f" stroke-linecap="round" stroke-linejoin="round"/><polyline fill="none" points="-636.9087148368272,-286.5391329323128 -634.4087148368271,-287.20900591339046 -632.5785878179048,-289.03913293231255 -631.9087148368269,-291.53913293231255 -632.5785878179046,-294.0391329323126 -634.4087148368267,-295.86925995123494 -636.9087148368267,-296.5391329323129 -639.4087148368268,-295.8692599512352 -641.2388418557491,-294.0391329323131 -641.908714836827,-291.5391329323131 -641.2388418557493,-289.03913293231307 -639.4087148368272,-287.20900591339074 -636.9087148368272,-286.5391329323128" stroke="#008000" stroke-linecap="round" stroke-linejoin="round"/><polyline fill="none" points="-627.0584143313998,-273.65491475961693 -624.5584143313997,-274.3247877406946 -622.7282873124774,-276.1549147596167 -622.0584143313995,-278.6549147596167 -622.7282873124772,-281.15491475961676 -624.5584143313993,-282.9850417785391 -627.0584143313993,-283.65491475961704 -629.5584143313994,-282.98504177853937 -631.3885413503217,-281.15491475961727 -632.0584143313996,-278.65491475961727 -631.3885413503219,-276.1549147596172 -629.5584143313998,-274.3247877406949 -627.0584143313998,-273.65491475961693" stroke="#00f" stroke-linecap="round" stroke-linejoin="round"/><polyline fill="none" points="-662.7785610605479,-228.06721815571169 -660.2785610605478,-228.73709113678936 -658.4484340416254,-230.5672181557115 -657.7785610605475,-233.0672181557115 -658.4484340416252,-235.56721815571157 -660.2785610605473,-237.3973451746339 -662.7785610605473,-238.06721815571186 -665.2785610605474,-237.39734517463418 -667.1086880794697,-235.56721815571206 -667.7785610605476,-233.06721815571206 -667.10868807947,-230.56721815571197 -665.2785610605479,-228.73709113678964 -662.7785610605479,-228.06721815571169" stroke="#ffa500" stroke-linecap="round" stroke-linejoin="round"/><polyline fill="none" points="-653.2626706369026,-192.89299390187963 -650.7626706369025,-193.5628668829573 -648.9325436179802,-195.39299390187944 -648.2626706369022,-197.89299390187944 -648.9325436179798,-200.39299390187952 -650.7626706369019,-202.22312092080185 -653.2626706369019,-202.8929939018798 -655.762670636902,-202.22312092080213 -657.5927976558244,-200.39299390188 -658.2626706369024,-197.89299390188 -657.5927976558247,-195.39299390187992 -655.7626706369026,-193.5628668829576 -653.2626706369026,-192.89299390187963" stroke="#ffa500" stroke-linecap="round" stroke-linejoin="round"/><polyline fill="none" points="-649.8971800156543,-234.65764756640093 -647.3971800156542,-235.3275205474786 -645.5670529967318,-237.15764756640073 -644.8971800156538,-239.65764756640073 -645.5670529967315,-242.1576475664008 -647.3971800156536,-243.98777458532314 -649.8971800156536,-244.6576475664011 -652.3971800156537,-243.98777458532342 -654.227307034576,-242.1576475664013 -654.897180015654,-239.6576475664013 -654.2273070345764,-237.1576475664012 -652.3971800156543,-235.32752054747888 -649.8971800156543,-234.65764756640093" stroke="#00f" stroke-linecap="round" stroke-linejoin="round"/><polyline fill="none" points="-635.3219314173243,-332.0030661058668 -632.8219314173242,-332.6729390869445 -630.9918043984019,-334.5030661058666 -630.3219314173239,-337.0030661058666 -630.9918043984015,-339.50306610586665 -632.8219314173236,-341.333193124789 -635.3219314173236,-342.00306610586694 -637.8219314173238,-341.33319312478926 -639.6520584362461,-339.50306610586716 -640.3219314173241,-337.00306610586716 -639.6520584362464,-334.5030661058671 -637.8219314173243,-332.6729390869448 -635.3219314173243,-332.0030661058668" stroke="#00f" stroke-linecap="round" stroke-linejoin="round"/><polyline fill="none" points="-641.9366844621782,-262.11082271186916 -639.436684462178,-262.78069569294684 -637.6065574432557,-264.61082271186893 -636.9366844621777,-267.11082271186893 -637.6065574432554,-269.610822711869 -639.4366844621775,-271.4409497307913 -641.9366844621775,-272.1108227118693 -644.4366844621776,-271.4409497307916 -646.2668114810999,-269.6108227118695 -646.9366844621779,-267.1108227118695 -646.2668114811003,-264.61082271186945 -644.4366844621782,-262.7806956929471 -641.9366844621782,-262.11082271186916" stroke="#00f" stroke-linecap="round" stroke-linejoin="round"/><polyline fill="none" points="-584.2400493862367,-207.09939742997167 -581.7400493862366,-207.76927041104935 -579.9099223673143,-209.59939742997148 -579.2400493862363,-212.09939742997148 -579.9099223673139,-214.59939742997156 -581.740049386236,-216.4295244488939 -584.240049386236,-217.09939742997184 -586.7400493862361,-216.42952444889417 -588.5701764051585,-214.59939742997204 -589.2400493862365,-212.09939742997204 -588.5701764051588,-209.59939742997196 -586.7400493862367,-207.76927041104963 -584.2400493862367,-207.09939742997167" stroke="#ffa500" stroke-linecap="round" stroke-linejoin="round"/><polyline fill="none" points="-563.0527931631709,-334.1072397811455 -560.5527931631708,-334.77711276222317 -558.7226661442485,-336.60723978114527 -558.0527931631705,-339.10723978114527 -558.7226661442481,-341.6072397811453 -560.5527931631702,-343.43736680006765 -563.0527931631702,-344.1072397811456 -565.5527931631703,-343.43736680006793 -567.3829201820927,-341.60723978114584 -568.0527931631707,-339.10723978114584 -567.382920182093,-336.6072397811458 -565.5527931631709,-334.77711276222345 -563.0527931631709,-334.1072397811455" stroke="#ffa500" stroke-linecap="round" stroke-linejoin="round"/><polyline fill="none" points="-692.106151890441,-37.32534625112275 -689.6061518904409,-37.99521923220041 -687.7760248715185,-39.825346251122525 -687.1061518904405,-42.325346251122525 -687.7760248715182,-44.82534625112261 -689.6061518904403,-46.65547327004495 -692.1061518904403,-47.32534625112292 -694.6061518904404,-46.65547327004526 -696.4362789093627,-44.82534625112315 -697.1061518904407,-42.32534625112315 -696.4362789093631,-39.825346251123065 -694.606151890441,-37.995219232200725 -692.106151890441,-37.325346251122745" stroke="#ffa500" stroke-linecap="round" stroke-linejoin="round"/><polyline fill="none" points="-639.241803173593,-264.4759518716901 -636.7418031735929,-265.14582485276776 -634.9116761546705,-266.97595187168986 -634.2418031735925,-269.47595187168986 -634.9116761546702,-271.97595187169 -636.7418031735923,-273.8060788906123 -639.2418031735923,-274.47595187169026 -641.7418031735924,-273.8060788906126 -643.5719301925147,-271.9759518716905 -644.2418031735928,-269.4759518716905 -643.5719301925151,-266.97595187169037 -641.741803173593,-265.14582485276804 -639.241803173593,-264.4759518716901" stroke="#00f" stroke-linecap="round" stroke-linejoin="round"/><polyline fill="none" points="-636.5871154279631,-202.1451857104898 -634.087115427963,-202.81505869156746 -632.2569884090407,-204.64518571048956 -631.5871154279627,-207.14518571048956 -632.2569884090403,-209.64518571048964 -634.0871154279624,-211.475312729412 -636.5871154279624,-212.14518571048998 -639.0871154279625,-211.47531272941234 -640.9172424468849,-209.64518571049024 -641.5871154279629,-207.14518571049024 -640.9172424468852,-204.64518571049015 -639.0871154279631,-202.8150586915678 -636.5871154279631,-202.1451857104898" stroke="#ffa500" stroke-linecap="round" stroke-linejoin="round"/><polyline fill="none" points="-699.7801500027425,-252.51827049686824 -697.2801500027424,-253.18814347794589 -695.4500229838201,-255.01827049686798 -694.7801500027421,-257.518270496868 -695.4500229838197,-260.0182704968681 -697.2801500027418,-261.84839751579045 -699.7801500027418,-262.5182704968684 -702.280150002742,-261.84839751579074 -704.1102770216643,-260.01827049686864 -704.7801500027423,-257.51827049686864 -704.1102770216646,-255.01827049686855 -702.2801500027425,-253.1881434779462 -699.7801500027425,-252.5182704968682" stroke="#ffa500" stroke-linecap="round" stroke-linejoin="round"/><polyline fill="none" points="-603.8106591397222,-193.24237032405537 -601.3106591397221,-193.91224330513302 -599.4805321207998,-195.74237032405512 -598.8106591397218,-198.24237032405512 -599.4805321207995,-200.7423703240552 -601.3106591397216,-202.57249734297756 -603.8106591397216,-203.24237032405554 -606.3106591397217,-202.5724973429779 -608.140786158644,-200.7423703240558 -608.810659139722,-198.2423703240558 -608.1407861586443,-195.7423703240557 -606.3106591397222,-193.91224330513336 -603.8106591397222,-193.24237032405537" stroke="#ffa500" stroke-linecap="round" stroke-linejoin="round"/><polyline fill="none" points="-699.40200857907,-280.4528500490264 -696.9020085790698,-281.12272303010405 -695.0718815601475,-282.95285004902615 -694.4020085790695,-285.45285004902615 -695.0718815601472,-287.95285004902627 -696.9020085790693,-289.7829770679486 -699.4020085790693,-290.4528500490266 -701.9020085790694,-289.78297706794893 -703.7321355979917,-287.95285004902684 -704.4020085790697,-285.45285004902684 -703.732135597992,-282.9528500490267 -701.90200857907,-281.1227230301044 -699.40200857907,-280.4528500490264" stroke="#ffa500" stroke-linecap="round" stroke-linejoin="round"/><polyline fill="none" points="-588.0756581220932,-258.7594765640132 -585.575658122093,-259.4293495450909 -583.7455311031707,-261.25947656401297 -583.0756581220927,-263.75947656401297 -583.7455311031704,-266.2594765640131 -585.5756581220925,-268.0896035829354 -588.0756581220925,-268.7594765640134 -590.5756581220926,-268.08960358293575 -592.4057851410149,-266.25947656401365 -593.0756581220929,-263.75947656401365 -592.4057851410153,-261.25947656401354 -590.5756581220932,-259.42934954509116 -588.0756581220932,-258.75947656401314" stroke="#ffa500" stroke-linecap="round" stroke-linejoin="round"/><polyline fill="none" points="-600.7320132869164,-257.36483824179584 -598.2320132869163,-258.0347112228735 -596.401886267994,-259.8648382417956 -595.732013286916,-262.3648382417956 -596.4018862679936,-264.8648382417957 -598.2320132869157,-266.6949652607181 -600.7320132869157,-267.3648382417961 -603.2320132869158,-266.6949652607185 -605.0621403058382,-264.8648382417964 -605.7320132869162,-262.3648382417964 -605.0621403058385,-259.8648382417963 -603.2320132869164,-258.0347112228739 -600.7320132869164,-257.3648382417959" stroke="#00f" stroke-linecap="round" stroke-linejoin="round"/><polyline fill="none" points="-699.1833569750979,-328.8701477772872 -696.6833569750978,-329.5400207583648 -694.8532299561755,-331.3701477772869 -694.1833569750975,-333.8701477772869 -694.8532299561751,-336.370147777287 -696.6833569750972,-338.2002747962094 -699.1833569750972,-338.8701477772874 -701.6833569750974,-338.2002747962098 -703.5134839940197,-336.3701477772877 -704.1833569750977,-333.8701477772877 -703.51348399402,-331.37014777728757 -701.6833569750979,-329.5400207583652 -699.1833569750979,-328.8701477772872" stroke="#ffa500" stroke-linecap="round" stroke-linejoin="round"/><polyline fill="none" points="-618.7158395211173,-237.59382482353516 -616.2158395211172,-238.2636978046128 -614.3857125021949,-240.0938248235349 -613.7158395211169,-242.5938248235349 -614.3857125021946,-245.093824823535 -616.2158395211167,-246.92395184245734 -618.7158395211167,-247.59382482353533 -621.2158395211168,-246.92395184245768 -623.0459665400391,-245.09382482353558 -623.7158395211171,-242.59382482353558 -623.0459665400394,-240.0938248235355 -621.2158395211173,-238.26369780461314 -618.7158395211173,-237.59382482353516" stroke="#ffa500" stroke-linecap="round" stroke-linejoin="round"/><polyline fill="none" points="-664.1958873794167,-212.44496212389996 -661.6958873794166,-213.1148351049776 -659.8657603604943,-214.9449621238997 -659.1958873794163,-217.4449621238997 -659.8657603604939,-219.94496212389978 -661.695887379416,-221.77508914282214 -664.195887379416,-222.44496212390015 -666.6958873794161,-221.7750891428225 -668.5260143983385,-219.9449621239004 -669.1958873794165,-217.4449621239004 -668.5260143983388,-214.94496212390032 -666.6958873794167,-213.11483510497797 -664.1958873794167,-212.44496212389996" stroke="#00f" stroke-linecap="round" stroke-linejoin="round"/><polyline fill="none" points="-697.6166695419537,-219.5789915177222 -695.1166695419536,-220.24886449879983 -693.2865425230312,-222.07899151772193 -692.6166695419532,-224.57899151772193 -693.2865425230309,-227.07899151772205 -695.116669541953,-228.9091185366444 -697.616669541953,-229.57899151772241 -700.1166695419531,-228.90911853664477 -701.9467965608754,-227.07899151772267 -702.6166695419535,-224.57899151772267 -701.9467965608758,-222.07899151772256 -700.1166695419537,-220.2488644988002 -697.6166695419537,-219.5789915177222" stroke="#ffa500" stroke-linecap="round" stroke-linejoin="round"/><polyline fill="none" points="-653.3273142541551,-48.48659968936565 -650.827314254155,-49.156472670443286 -648.9971872352327,-50.986599689365384 -648.3273142541547,-53.486599689365384 -648.9971872352323,-55.986599689365484 -650.8273142541544,-57.81672670828785 -653.3273142541544,-58.48659968936586 -655.8273142541545,-57.81672670828823 -657.6574412730769,-55.98659968936614 -658.3273142541549,-53.48659968936614 -657.6574412730772,-50.98659968936603 -655.8273142541551,-49.15647267044366 -653.3273142541551,-48.486599689365654" stroke="#ffa500" stroke-linecap="round" stroke-linejoin="round"/><polyline fill="none" points="-669.6536890908055,-52.55053180565986 -667.1536890908054,-53.22040478673749 -665.3235620718831,-55.05053180565958 -664.6536890908051,-57.55053180565958 -665.3235620718827,-60.05053180565969 -667.1536890908048,-61.880658824582056 -669.6536890908048,-62.550531805660064 -672.153689090805,-61.88065882458243 -673.9838161097273,-60.05053180566034 -674.6536890908053,-57.55053180566034 -673.9838161097276,-55.050531805660235 -672.1536890908055,-53.220404786737866 -669.6536890908055,-52.55053180565986" stroke="#00f" stroke-linecap="round" stroke-linejoin="round"/><polyline fill="none" points="-634.3103985665051,-344.8530081495664 -631.810398566505,-345.522881130644 -629.9802715475827,-347.3530081495661 -629.3103985665047,-349.8530081495661 -629.9802715475823,-352.3530081495662 -631.8103985665044,-354.1831351684886 -634.3103985665044,-354.8530081495666 -636.8103985665045,-354.183135168489 -638.6405255854269,-352.3530081495669 -639.3103985665049,-349.8530081495669 -638.6405255854272,-347.3530081495668 -636.8103985665051,-345.5228811306444 -634.3103985665051,-344.8530081495664" stroke="#ffa500" stroke-linecap="round" stroke-linejoin="round"/><polyline fill="none" points="-658.4998013678227,-255.9959989592677 -655.9998013678226,-256.6658719403453 -654.1696743489002,-258.4959989592674 -653.4998013678222,-260.9959989592674 -654.1696743488999,-263.4959989592675 -655.999801367822,-265.3261259781899 -658.499801367822,-265.9959989592679 -660.9998013678221,-265.3261259781903 -662.8299283867444,-263.4959989592682 -663.4998013678224,-260.9959989592682 -662.8299283867448,-258.4959989592681 -660.9998013678227,-256.6658719403457 -658.4998013678227,-255.9959989592677" stroke="#008000" stroke-linecap="round" stroke-linejoin="round"/><polyline fill="none" points="-667.17630505031,-275.38468287232234 -664.6763050503099,-276.05455585339996 -662.8461780313876,-277.88468287232206 -662.1763050503096,-280.38468287232206 -662.8461780313872,-282.8846828723222 -664.6763050503093,-284.71480989124456 -667.1763050503093,-285.38468287232257 -669.6763050503095,-284.71480989124495 -671.5064320692318,-282.88468287232286 -672.1763050503098,-280.38468287232286 -671.5064320692321,-277.88468287232274 -669.67630505031,-276.05455585340036 -667.17630505031,-275.38468287232234" stroke="#008000" stroke-linecap="round" stroke-linejoin="round"/><polyline fill="none" points="-667.7847595012859,-344.18281388265893 -665.2847595012857,-344.85268686373655 -663.4546324823634,-346.68281388265865 -662.7847595012854,-349.18281388265865 -663.4546324823631,-351.68281388265876 -665.2847595012852,-353.51294090158115 -667.7847595012852,-354.18281388265916 -670.2847595012853,-353.51294090158154 -672.1148865202076,-351.68281388265945 -672.7847595012856,-349.18281388265945 -672.114886520208,-346.68281388265933 -670.2847595012859,-344.85268686373695 -667.7847595012859,-344.18281388265893" stroke="#ffa500" stroke-linecap="round" stroke-linejoin="round"/><polyline fill="none" points="-691.9894851381282,-293.85530886236063 -689.4894851381281,-294.52518184343825 -687.6593581192058,-296.35530886236035 -686.9894851381277,-298.85530886236035 -687.6593581192054,-301.35530886236046 -689.4894851381275,-303.18543588128284 -691.9894851381275,-303.85530886236086 -694.4894851381276,-303.18543588128324 -696.31961215705,-301.35530886236114 -696.989485138128,-298.85530886236114 -696.3196121570503,-296.355308862361 -694.4894851381282,-294.52518184343865 -691.9894851381282,-293.85530886236063" stroke="#00f" stroke-linecap="round" stroke-linejoin="round"/><polyline fill="none" points="-575.7261732505084,-234.4526003234212 -573.2261732505083,-235.1224733044988 -571.3960462315858,-236.95260032342088 -570.7261732505078,-239.45260032342088 -571.3960462315854,-241.952600323421 -573.2261732505075,-243.78272734234338 -575.7261732505075,-244.4526003234214 -578.2261732505076,-243.78272734234378 -580.05630026943,-241.9526003234217 -580.726173250508,-239.4526003234217 -580.0563002694305,-236.9526003234216 -578.2261732505084,-235.1224733044992 -575.7261732505084,-234.4526003234212" stroke="#00f" stroke-linecap="round" stroke-linejoin="round"/><polyline fill="none" points="-687.3961133650639,-281.1518165278197 -684.8961133650638,-281.8216895088973 -683.0659863461414,-283.6518165278194 -682.3961133650633,-286.1518165278194 -683.0659863461409,-288.6518165278195 -684.896113365063,-290.4819435467419 -687.396113365063,-291.1518165278199 -689.8961133650631,-290.4819435467423 -691.7262403839856,-288.6518165278202 -692.3961133650636,-286.1518165278202 -691.726240383986,-283.6518165278201 -689.8961133650639,-281.8216895088977 -687.3961133650639,-281.1518165278197" stroke="#00f" stroke-linecap="round" stroke-linejoin="round"/><polyline fill="none" points="-657.1124348062456,-329.402406860711 -654.6124348062455,-330.0722798417886 -652.782307787323,-331.9024068607107 -652.112434806245,-334.4024068607107 -652.7823077873226,-336.9024068607108 -654.6124348062447,-338.7325338796332 -657.1124348062447,-339.4024068607112 -659.6124348062448,-338.7325338796336 -661.4425618251672,-336.9024068607115 -662.1124348062452,-334.4024068607115 -661.4425618251677,-331.9024068607114 -659.6124348062456,-330.072279841789 -657.1124348062456,-329.402406860711" stroke="#ffa500" stroke-linecap="round" stroke-linejoin="round"/><polyline fill="none" points="-623.4063854101632,-252.99936442515678 -620.9063854101631,-253.6692374062344 -619.0762583912407,-255.49936442515647 -618.4063854101627,-257.9993644251565 -619.0762583912402,-260.4993644251566 -620.9063854101623,-262.329491444079 -623.4063854101623,-262.999364425157 -625.9063854101624,-262.3294914440794 -627.7365124290849,-260.4993644251573 -628.4063854101629,-257.9993644251573 -627.7365124290853,-255.49936442515718 -625.9063854101632,-253.6692374062348 -623.4063854101632,-252.99936442515676" stroke="#00f" stroke-linecap="round" stroke-linejoin="round"/><polyline fill="none" points="-685.0145629731942,-336.6292681493863 -682.5145629731941,-337.2991411304639 -680.6844359542716,-339.129268149386 -680.0145629731936,-341.629268149386 -680.6844359542712,-344.1292681493861 -682.5145629731933,-345.9593951683085 -685.0145629731933,-346.6292681493865 -687.5145629731934,-345.9593951683089 -689.3446899921158,-344.1292681493868 -690.0145629731938,-341.6292681493868 -689.3446899921163,-339.1292681493867 -687.5145629731942,-337.2991411304643 -685.0145629731942,-336.6292681493863" stroke="#00f" stroke-linecap="round" stroke-linejoin="round"/><polyline fill="none" points="-584.244711775768,-324.6927839960662 -581.7447117757679,-325.36265697714384 -579.9145847568454,-327.19278399606594 -579.2447117757674,-329.69278399606594 -579.914584756845,-332.19278399606605 -581.7447117757671,-334.02291101498844 -584.2447117757671,-334.69278399606645 -586.7447117757672,-334.02291101498884 -588.5748387946896,-332.19278399606674 -589.2447117757677,-329.69278399606674 -588.5748387946901,-327.1927839960666 -586.744711775768,-325.36265697714424 -584.244711775768,-324.6927839960662" stroke="#00f" stroke-linecap="round" stroke-linejoin="round"/><polyline fill="none" points="-605.5609650640621,-317.28572896587866 -603.060965064062,-317.9556019469563 -601.2308380451395,-319.7857289658784 -600.5609650640615,-322.2857289658784 -601.2308380451391,-324.7857289658785 -603.0609650640612,-326.6158559848009 -605.5609650640612,-327.28572896587895 -608.0609650640613,-326.6158559848013 -609.8910920829837,-324.78572896587923 -610.5609650640617,-322.28572896587923 -609.8910920829842,-319.7857289658791 -608.0609650640621,-317.95560194695673 -605.5609650640621,-317.28572896587866" stroke="#ffa500" stroke-linecap="round" stroke-linejoin="round"/><polyline fill="none" points="-642.7586706064814,-245.45742379158997 -640.2586706064812,-246.12729677266756 -638.4285435875588,-247.95742379158963 -637.7586706064808,-250.45742379158963 -638.4285435875584,-252.95742379158975 -640.2586706064805,-254.78755081051216 -642.7586706064805,-255.4574237915902 -645.2586706064806,-254.7875508105126 -647.088797625403,-252.95742379159054 -647.758670606481,-250.45742379159054 -647.0887976254035,-247.95742379159043 -645.2586706064814,-246.12729677266802 -642.7586706064814,-245.45742379158997" stroke="#008000" stroke-linecap="round" stroke-linejoin="round"/><polyline fill="none" points="-615.8209338578848,-283.70961404177865 -613.3209338578847,-284.37948702285627 -611.4908068389623,-286.20961404177837 -610.8209338578843,-288.70961404177837 -611.4908068389618,-291.2096140417785 -613.3209338578839,-293.03974106070086 -615.8209338578839,-293.70961404177893 -618.320933857884,-293.0397410607013 -620.1510608768065,-291.2096140417792 -620.8209338578845,-288.7096140417792 -620.1510608768069,-286.2096140417791 -618.3209338578848,-284.3794870228567 -615.8209338578848,-283.70961404177865" stroke="#00f" stroke-linecap="round" stroke-linejoin="round"/><polyline fill="none" points="-642.6007302380057,-217.10240140713807 -640.1007302380056,-217.77227438821566 -638.2706032190831,-219.60240140713773 -637.6007302380051,-222.10240140713773 -638.2706032190827,-224.60240140713785 -640.1007302380048,-226.43252842606026 -642.6007302380048,-227.1024014071383 -645.1007302380049,-226.4325284260607 -646.9308572569273,-224.60240140713864 -647.6007302380053,-222.10240140713864 -646.9308572569278,-219.60240140713853 -645.1007302380057,-217.77227438821612 -642.6007302380057,-217.10240140713807" stroke="#00f" stroke-linecap="round" stroke-linejoin="round"/><polyline fill="none" points="-584.782997740877,-307.642963375919 -582.2829977408769,-308.3128363569966 -580.4528707219545,-310.1429633759187 -579.7829977408765,-312.6429633759187 -580.452870721954,-315.14296337591884 -582.2829977408761,-316.9730903948412 -584.7829977408761,-317.6429633759193 -587.2829977408762,-316.9730903948417 -589.1131247597987,-315.1429633759196 -589.7829977408767,-312.6429633759196 -589.1131247597991,-310.14296337591946 -587.282997740877,-308.3128363569971 -584.782997740877,-307.642963375919" stroke="#00f" stroke-linecap="round" stroke-linejoin="round"/><polyline fill="none" points="-605.3333209499497,-299.0296592416014 -602.8333209499496,-299.699532222679 -601.0031939310271,-301.52965924160105 -600.3333209499491,-304.02965924160105 -601.0031939310267,-306.52965924160117 -602.8333209499488,-308.35978626052355 -605.3333209499488,-309.0296592416016 -607.8333209499489,-308.359786260524 -609.6634479688713,-306.52965924160196 -610.3333209499493,-304.02965924160196 -609.6634479688718,-301.52965924160185 -607.8333209499497,-299.6995322226794 -605.3333209499497,-299.02965924160134" stroke="#ffa500" stroke-linecap="round" stroke-linejoin="round"/><polyline fill="none" points="-638.9779289620334,-283.6585004619928 -636.4779289620333,-284.3283734430704 -634.6478019431108,-286.15850046199245 -633.9779289620328,-288.65850046199245 -634.6478019431104,-291.15850046199256 -636.4779289620325,-292.988627480915 -638.9779289620325,-293.65850046199307 -641.4779289620326,-292.9886274809155 -643.308055980955,-291.15850046199347 -643.977928962033,-288.65850046199347 -643.3080559809555,-286.15850046199336 -641.4779289620334,-284.3283734430709 -638.9779289620334,-283.65850046199284" stroke="#008000" stroke-linecap="round" stroke-linejoin="round"/><polyline fill="none" points="-652.9891681901977,-246.8830865391527 -650.4891681901976,-247.5529595202303 -648.6590411712751,-249.38308653915237 -647.9891681901971,-251.88308653915237 -648.6590411712747,-254.38308653915252 -650.4891681901968,-256.2132135580749 -652.9891681901968,-256.883086539153 -655.4891681901969,-256.21321355807544 -657.3192952091193,-254.38308653915337 -657.9891681901973,-251.88308653915337 -657.3192952091198,-249.38308653915323 -655.4891681901977,-247.55295952023081 -652.9891681901977,-246.88308653915274" stroke="#00f" stroke-linecap="round" stroke-linejoin="round"/><polyline fill="none" points="-658.6801523446788,-306.94979268192725 -656.1801523446787,-307.6196656630048 -654.3500253257563,-309.44979268192685 -653.6801523446783,-311.94979268192685 -654.3500253257558,-314.44979268192697 -656.1801523446779,-316.2799197008494 -658.6801523446779,-316.9497926819275 -661.180152344678,-316.2799197008499 -663.0102793636005,-314.4497926819279 -663.6801523446785,-311.9497926819279 -663.010279363601,-309.44979268192776 -661.1801523446788,-307.6196656630053 -658.6801523446788,-306.94979268192725" stroke="#00f" stroke-linecap="round" stroke-linejoin="round"/><polyline fill="none" points="-661.6476393549516,-208.13081925694766 -659.1476393549515,-208.80069223802525 -657.317512336029,-210.63081925694732 -656.647639354951,-213.13081925694732 -657.3175123360286,-215.63081925694746 -659.1476393549507,-217.46094627586987 -661.6476393549507,-218.13081925694794 -664.1476393549508,-217.46094627587036 -665.9777663738732,-215.63081925694829 -666.6476393549513,-213.13081925694829 -665.9777663738737,-210.63081925694814 -664.1476393549516,-208.80069223802573 -661.6476393549516,-208.13081925694766" stroke="#ffa500" stroke-linecap="round" stroke-linejoin="round"/><polyline fill="none" points="-682.1288394162374,-269.30920824834993 -679.6288394162373,-269.9790812294275 -677.7987123973148,-271.80920824834953 -677.1288394162368,-274.30920824834953 -677.7987123973144,-276.80920824834965 -679.6288394162365,-278.6393352672721 -682.1288394162365,-279.30920824835016 -684.6288394162366,-278.6393352672726 -686.458966435159,-276.80920824835056 -687.128839416237,-274.30920824835056 -686.4589664351595,-271.80920824835044 -684.6288394162374,-269.979081229428 -682.1288394162374,-269.30920824834993" stroke="#00f" stroke-linecap="round" stroke-linejoin="round"/><polyline fill="none" points="-685.5219452386347,-281.5636632120621 -683.0219452386345,-282.2335361931397 -681.1918182197121,-284.0636632120617 -680.521945238634,-286.5636632120617 -681.1918182197115,-289.06366321206184 -683.0219452386336,-290.8937902309843 -685.5219452386336,-291.56366321206235 -688.0219452386337,-290.8937902309848 -689.8520722575562,-289.06366321206275 -690.5219452386343,-286.56366321206275 -689.8520722575568,-284.06366321206264 -688.0219452386347,-282.2335361931402 -685.5219452386347,-281.5636632120621" stroke="#ffa500" stroke-linecap="round" stroke-linejoin="round"/><polyline fill="none" points="-656.3946851508349,-309.00704737458244 -653.8946851508348,-309.67692035566 -652.0645581319123,-311.50704737458204 -651.3946851508342,-314.00704737458204 -652.0645581319118,-316.50704737458216 -653.8946851508339,-318.3371743935046 -656.3946851508339,-319.00704737458267 -658.894685150834,-318.3371743935051 -660.7248121697564,-316.50704737458307 -661.3946851508346,-314.00704737458307 -660.724812169757,-311.50704737458295 -658.8946851508349,-309.6769203556605 -656.3946851508349,-309.00704737458244" stroke="#ffa500" stroke-linecap="round" stroke-linejoin="round"/><polyline fill="none" points="-576.2743132633638,-224.66504858460956 -573.7743132633636,-225.33492156568713 -571.9441862444412,-227.1650485846092 -571.2743132633631,-229.6650485846092 -571.9441862444406,-232.16504858460934 -573.7743132633627,-233.99517560353178 -576.2743132633627,-234.66504858460985 -578.7743132633628,-233.9951756035323 -580.6044402822853,-232.16504858461022 -581.2743132633634,-229.66504858461022 -580.6044402822859,-227.16504858461008 -578.7743132633638,-225.33492156568764 -576.2743132633638,-224.66504858460956" stroke="#ffa500" stroke-linecap="round" stroke-linejoin="round"/><polyline fill="none" points="-653.6670796918229,-268.1078093088558 -651.1670796918228,-268.77768228993335 -649.3369526729003,-270.6078093088554 -648.6670796918222,-273.1078093088554 -649.3369526728998,-275.6078093088555 -651.1670796918219,-277.43793632777795 -653.6670796918219,-278.107809308856 -656.167079691822,-277.43793632777846 -657.9972067107444,-275.6078093088564 -658.6670796918226,-273.1078093088564 -657.997206710745,-270.6078093088563 -656.1670796918229,-268.77768228993386 -653.6670796918229,-268.1078093088558" stroke="#f00" stroke-linecap="round" stroke-linejoin="round"/><polyline fill="none" points="-684.9047942733044,-231.9968172175492 -682.4047942733043,-232.66669019862675 -680.5746672543819,-234.49681721754882 -679.9047942733038,-236.99681721754882 -680.5746672543813,-239.49681721754897 -682.4047942733034,-241.3269442364714 -684.9047942733034,-241.99681721754948 -687.4047942733035,-241.32694423647192 -689.234921292226,-239.49681721754988 -689.9047942733041,-236.99681721754988 -689.2349212922265,-234.49681721754973 -687.4047942733044,-232.6666901986273 -684.9047942733044,-231.9968172175492" stroke="#ffa500" stroke-linecap="round" stroke-linejoin="round"/><polyline fill="none" points="-652.9672193810056,-256.43274544430403 -650.4672193810055,-257.1026184253816 -648.6370923620831,-258.93274544430363 -647.967219381005,-261.43274544430363 -648.6370923620825,-263.93274544430375 -650.4672193810046,-265.7628724632262 -652.9672193810046,-266.43274544430426 -655.4672193810047,-265.7628724632267 -657.2973463999272,-263.93274544430466 -657.9672193810053,-261.43274544430466 -657.2973463999277,-258.9327454443045 -655.4672193810056,-257.10261842538205 -652.9672193810056,-256.432745444304" stroke="#ffa500" stroke-linecap="round" stroke-linejoin="round"/><polyline fill="none" points="-673.7213896429948,-300.77624240491633 -671.2213896429947,-301.4461153859939 -669.3912626240723,-303.27624240491593 -668.7213896429942,-305.77624240491593 -669.3912626240717,-308.2762424049161 -671.2213896429938,-310.10636942383854 -673.7213896429938,-310.7762424049166 -676.2213896429939,-310.10636942383906 -678.0515166619164,-308.276242404917 -678.7213896429945,-305.776242404917 -678.0515166619169,-303.27624240491684 -676.2213896429948,-301.4461153859944 -673.7213896429948,-300.77624240491633" stroke="#ffa500" stroke-linecap="round" stroke-linejoin="round"/><polyline fill="none" points="-600.719618292728,-253.6365515707792 -598.2196182927279,-254.30642455185676 -596.3894912738054,-256.1365515707788 -595.7196182927273,-258.6365515707788 -596.3894912738049,-261.136551570779 -598.219618292727,-262.9666785897014 -600.719618292727,-263.6365515707795 -603.2196182927271,-262.9666785897019 -605.0497453116495,-261.1365515707799 -605.7196182927277,-258.6365515707799 -605.0497453116501,-256.1365515707797 -603.219618292728,-254.30642455185728 -600.719618292728,-253.63655157077918" stroke="#ffa500" stroke-linecap="round" stroke-linejoin="round"/><polyline fill="none" points="-680.2846468895726,-52.081912625455494 -677.7846468895725,-52.751785606533055 -675.9545198706501,-54.581912625455104 -675.284646889572,-57.081912625455104 -675.9545198706495,-59.58191262545525 -677.7846468895716,-61.4120396443777 -680.2846468895716,-62.0819126254558 -682.7846468895717,-61.41203964437825 -684.6147739084942,-59.5819126254562 -685.2846468895723,-57.0819126254562 -684.6147739084947,-54.58191262545605 -682.7846468895726,-52.7517856065336 -680.2846468895726,-52.0819126254555" stroke="#ffa500" stroke-linecap="round" stroke-linejoin="round"/><polyline fill="none" points="-682.6024520486033,-250.4497607787139 -680.1024520486031,-251.11963375979147 -678.2723250296807,-252.9497607787135 -677.6024520486026,-255.4497607787135 -678.2723250296801,-257.94976077871365 -680.1024520486022,-259.7798877976361 -682.6024520486022,-260.44976077871416 -685.1024520486023,-259.7798877976366 -686.9325790675248,-257.94976077871456 -687.6024520486029,-255.44976077871456 -686.9325790675254,-252.94976077871442 -685.1024520486033,-251.11963375979198 -682.6024520486033,-250.44976077871388" stroke="#ffa500" stroke-linecap="round" stroke-linejoin="round"/><line fill="none" stroke="#000" stroke-linecap="round" x1="-609.1199553454551" x2="-603.6231653296834" y1="-269.42061236115484" y2="-276.93230564844805"/><line fill="none" stroke="#000" stroke-linecap="round" x1="-609.1199553454551" x2="-588.0756581220932" y1="-269.42061236115484" y2="-263.7594765640132"/><line fill="none" stroke="#000" stroke-linecap="round" x1="-609.1199553454551" x2="-565.520701220859" y1="-269.42061236115484" y2="-280.02771639395394"/><line fill="none" stroke="#000" stroke-linecap="round" x1="-609.1199553454551" x2="-600.7320132869164" y1="-269.42061236115484" y2="-262.36483824179584"/><line fill="none" stroke="#000" stroke-linecap="round" x1="-609.1199553454551" x2="-580.8015398333098" y1="-269.42061236115484" y2="-277.7222330628255"/><line fill="none" stroke="#000" stroke-linecap="round" x1="-613.5836086905003" x2="-605.5609650640621" y1="-283.153795718628" y2="-322.28572896587866"/><line fill="none" stroke="#000" stroke-linecap="round" x1="-613.5836086905003" x2="-615.8209338578848" y1="-283.153795718628" y2="-288.70961404177865"/><line fill="none" stroke="#000" stroke-linecap="round" x1="-613.5836086905003" x2="-641.9366844621782" y1="-283.153795718628" y2="-267.11082271186916"/><line fill="none" stroke="#000" stroke-linecap="round" x1="-613.5836086905003" x2="-642.7586706064814" y1="-283.153795718628" y2="-250.45742379158997"/><line fill="none" stroke="#000" stroke-linecap="round" x1="-613.5836086905003" x2="-627.0584143313998" y1="-283.153795718628" y2="-278.65491475961693"/><line fill="none" stroke="#000" stroke-linecap="round" x1="-646.5822673654022" x2="-657.6824540374841" y1="-231.1378175247334" y2="-248.5930367923695"/><line fill="none" stroke="#000" stroke-linecap="round" x1="-646.5822673654022" x2="-642.6007302380057" y1="-231.1378175247334" y2="-222.10240140713807"/><line fill="none" stroke="#000" stroke-linecap="round" x1="-646.5822673654022" x2="-643.8124971286676" y1="-231.1378175247334" y2="-266.75116120425463"/><line fill="none" stroke="#000" stroke-linecap="round" x1="-646.5822673654022" x2="-667.5233200538981" y1="-231.1378175247334" y2="-188.78227693847273"/><line fill="none" stroke="#000" stroke-linecap="round" x1="-646.5822673654022" x2="-653.2626706369026" y1="-231.1378175247334" y2="-197.89299390187963"/><line fill="none" stroke="#000" stroke-linecap="round" x1="-668.8013895636989" x2="-636.7325493084397" y1="-279.727813551509" y2="-270.8595754873295"/><line fill="none" stroke="#000" stroke-linecap="round" x1="-668.8013895636989" x2="-667.17630505031" y1="-279.727813551509" y2="-280.38468287232234"/><line fill="none" stroke="#000" stroke-linecap="round" x1="-668.8013895636989" x2="-691.9894851381282" y1="-279.727813551509" y2="-298.85530886236063"/><line fill="none" stroke="#000" stroke-linecap="round" x1="-668.8013895636989" x2="-658.4998013678227" y1="-279.727813551509" y2="-260.9959989592677"/><line fill="none" stroke="#000" stroke-linecap="round" x1="-668.8013895636989" x2="-653.6670796918229" y1="-279.727813551509" y2="-273.1078093088558"/><line fill="none" stroke="#000" stroke-linecap="round" x1="-657.6824540374841" x2="-642.6007302380057" y1="-248.5930367923695" y2="-222.10240140713807"/><line fill="none" stroke="#000" stroke-linecap="round" x1="-657.6824540374841" x2="-646.5822673654022" y1="-248.5930367923695" y2="-231.1378175247334"/><line fill="none" stroke="#000" stroke-linecap="round" x1="-657.6824540374841" x2="-679.6801576441568" y1="-248.5930367923695" y2="-271.8756808137162"/><line fill="none" stroke="#000" stroke-linecap="round" x1="-657.6824540374841" x2="-643.8124971286676" y1="-248.5930367923695" y2="-266.75116120425463"/><line fill="none" stroke="#000" stroke-linecap="round" x1="-657.6824540374841" x2="-653.6670796918229" y1="-248.5930367923695" y2="-273.1078093088558"/><line fill="none" stroke="#000" stroke-linecap="round" x1="-608.1777517955213" x2="-572.7347033435661" y1="-335.0942321378268" y2="-325.35494487342265"/><line fill="none" stroke="#000" stroke-linecap="round" x1="-608.1777517955213" x2="-584.244711775768" y1="-335.0942321378268" y2="-329.6927839960662"/><line fill="none" stroke="#000" stroke-linecap="round" x1="-608.1777517955213" x2="-656.3972497394466" y1="-335.0942321378268" y2="-300.004564091064"/><line fill="none" stroke="#000" stroke-linecap="round" x1="-608.1777517955213" x2="-658.6801523446788" y1="-335.0942321378268" y2="-311.94979268192725"/><line fill="none" stroke="#000" stroke-linecap="round" x1="-608.1777517955213" x2="-577.7794751740381" y1="-335.0942321378268" y2="-349.49030608929115"/><line fill="none" stroke="#000" stroke-linecap="round" x1="-572.7347033435661" x2="-597.6214634120073" y1="-325.35494487342265" y2="-300.9735704969346"/><line fill="none" stroke="#000" stroke-linecap="round" x1="-572.7347033435661" x2="-608.1777517955213" y1="-325.35494487342265" y2="-335.0942321378268"/><line fill="none" stroke="#000" stroke-linecap="round" x1="-572.7347033435661" x2="-584.244711775768" y1="-325.35494487342265" y2="-329.6927839960662"/><line fill="none" stroke="#000" stroke-linecap="round" x1="-572.7347033435661" x2="-563.0527931631709" y1="-325.35494487342265" y2="-339.1072397811455"/><line fill="none" stroke="#000" stroke-linecap="round" x1="-572.7347033435661" x2="-543.4289003663026" y1="-325.35494487342265" y2="-338.3677393037413"/><line fill="none" stroke="#000" stroke-linecap="round" x1="-597.6214634120073" x2="-616.4353964120103" y1="-300.9735704969346" y2="-335.1123094123328"/><line fill="none" stroke="#000" stroke-linecap="round" x1="-597.6214634120073" x2="-573.4528739497147" y1="-300.9735704969346" y2="-307.98838050048835"/><line fill="none" stroke="#000" stroke-linecap="round" x1="-597.6214634120073" x2="-613.6674856469376" y1="-300.9735704969346" y2="-279.96985392454087"/><line fill="none" stroke="#000" stroke-linecap="round" x1="-597.6214634120073" x2="-584.244711775768" y1="-300.9735704969346" y2="-329.6927839960662"/><line fill="none" stroke="#000" stroke-linecap="round" x1="-597.6214634120073" x2="-605.3333209499497" y1="-300.9735704969346" y2="-304.0296592416014"/><line fill="none" stroke="#000" stroke-linecap="round" x1="-677.4556834404807" x2="-699.8296874387343" y1="-248.0373474449699" y2="-209.90611240569953"/><line fill="none" stroke="#000" stroke-linecap="round" x1="-677.4556834404807" x2="-684.9047942733044" y1="-248.0373474449699" y2="-236.9968172175492"/><line fill="none" stroke="#000" stroke-linecap="round" x1="-677.4556834404807" x2="-697.6166695419537" y1="-248.0373474449699" y2="-224.5789915177222"/><line fill="none" stroke="#000" stroke-linecap="round" x1="-677.4556834404807" x2="-699.7801500027425" y1="-248.0373474449699" y2="-257.51827049686824"/><line fill="none" stroke="#000" stroke-linecap="round" x1="-677.4556834404807" x2="-682.6024520486033" y1="-248.0373474449699" y2="-255.4497607787139"/><line fill="none" stroke="#000" stroke-linecap="round" x1="-643.8124971286676" x2="-626.1682222142483" y1="-266.75116120425463" y2="-311.50030164333833"/><line fill="none" stroke="#000" stroke-linecap="round" x1="-643.8124971286676" x2="-657.6824540374841" y1="-266.75116120425463" y2="-248.5930367923695"/><line fill="none" stroke="#000" stroke-linecap="round" x1="-643.8124971286676" x2="-652.9672193810056" y1="-266.75116120425463" y2="-261.43274544430403"/><line fill="none" stroke="#000" stroke-linecap="round" x1="-643.8124971286676" x2="-677.4556834404807" y1="-266.75116120425463" y2="-248.0373474449699"/><line fill="none" stroke="#000" stroke-linecap="round" x1="-643.8124971286676" x2="-649.8569999726524" y1="-266.75116120425463" y2="-262.1759874211377"/><line fill="none" stroke="#000" stroke-linecap="round" x1="-610.0932751074955" x2="-618.8840303583148" y1="-204.74837895469048" y2="-185.84728060194348"/><line fill="none" stroke="#000" stroke-linecap="round" x1="-610.0932751074955" x2="-598.5991168891" y1="-204.74837895469048" y2="-224.91531105845004"/><line fill="none" stroke="#000" stroke-linecap="round" x1="-610.0932751074955" x2="-603.8106591397222" y1="-204.74837895469048" y2="-198.24237032405537"/><line fill="none" stroke="#000" stroke-linecap="round" x1="-610.0932751074955" x2="-600.712314480111" y1="-204.74837895469048" y2="-176.87320666276113"/><line fill="none" stroke="#000" stroke-linecap="round" x1="-610.0932751074955" x2="-587.1343206364595" y1="-204.74837895469048" y2="-190.9675205114265"/><line fill="none" stroke="#000" stroke-linecap="round" x1="-656.3972497394466" x2="-658.6801523446788" y1="-300.004564091064" y2="-311.94979268192725"/><line fill="none" stroke="#000" stroke-linecap="round" x1="-656.3972497394466" x2="-608.1777517955213" y1="-300.004564091064" y2="-335.0942321378268"/><line fill="none" stroke="#000" stroke-linecap="round" x1="-656.3972497394466" x2="-638.9779289620334" y1="-300.004564091064" y2="-288.6585004619928"/><line fill="none" stroke="#000" stroke-linecap="round" x1="-656.3972497394466" x2="-699.5788818002314" y1="-300.004564091064" y2="-313.1035191091034"/><line fill="none" stroke="#000" stroke-linecap="round" x1="-656.3972497394466" x2="-639.241803173593" y1="-300.004564091064" y2="-269.4759518716901"/><line fill="none" stroke="#000" stroke-linecap="round" x1="-649.8569999726524" x2="-643.8124971286676" y1="-262.1759874211377" y2="-266.75116120425463"/><line fill="none" stroke="#000" stroke-linecap="round" x1="-649.8569999726524" x2="-641.9366844621782" y1="-262.1759874211377" y2="-267.11082271186916"/><line fill="none" stroke="#000" stroke-linecap="round" x1="-649.8569999726524" x2="-627.0584143313998" y1="-262.1759874211377" y2="-278.65491475961693"/><line fill="none" stroke="#000" stroke-linecap="round" x1="-649.8569999726524" x2="-639.241803173593" y1="-262.1759874211377" y2="-269.4759518716901"/><line fill="none" stroke="#000" stroke-linecap="round" x1="-649.8569999726524" x2="-656.3972497394466" y1="-262.1759874211377" y2="-300.004564091064"/><line fill="none" stroke="#000" stroke-linecap="round" x1="-689.0423497537208" x2="-679.6801576441568" y1="-274.5623598523794" y2="-271.8756808137162"/><line fill="none" stroke="#000" stroke-linecap="round" x1="-689.0423497537208" x2="-687.3961133650639" y1="-274.5623598523794" y2="-286.1518165278197"/><line fill="none" stroke="#000" stroke-linecap="round" x1="-689.0423497537208" x2="-672.9027115134177" y1="-274.5623598523794" y2="-285.27451194124467"/><line fill="none" stroke="#000" stroke-linecap="round" x1="-689.0423497537208" x2="-685.5219452386347" y1="-274.5623598523794" y2="-286.5636632120621"/><line fill="none" stroke="#000" stroke-linecap="round" x1="-689.0423497537208" x2="-652.9891681901977" y1="-274.5623598523794" y2="-251.8830865391527"/><line fill="none" stroke="#000" stroke-linecap="round" x1="-636.7325493084397" x2="-600.7320132869164" y1="-270.8595754873295" y2="-262.36483824179584"/><line fill="none" stroke="#000" stroke-linecap="round" x1="-636.7325493084397" x2="-668.8013895636989" y1="-270.8595754873295" y2="-279.727813551509"/><line fill="none" stroke="#000" stroke-linecap="round" x1="-636.7325493084397" x2="-667.17630505031" y1="-270.8595754873295" y2="-280.38468287232234"/><line fill="none" stroke="#000" stroke-linecap="round" x1="-636.7325493084397" x2="-605.2739276582768" y1="-270.8595754873295" y2="-241.71518140213692"/><line fill="none" stroke="#000" stroke-linecap="round" x1="-636.7325493084397" x2="-609.1199553454551" y1="-270.8595754873295" y2="-269.42061236115484"/><line fill="none" stroke="#000" stroke-linecap="round" x1="-675.0038782186538" x2="-667.17630505031" y1="-317.4416923883954" y2="-280.38468287232234"/><line fill="none" stroke="#000" stroke-linecap="round" x1="-675.0038782186538" x2="-656.3972497394466" y1="-317.4416923883954" y2="-300.004564091064"/><line fill="none" stroke="#000" stroke-linecap="round" x1="-675.0038782186538" x2="-635.3219314173243" y1="-317.4416923883954" y2="-337.0030661058668"/><line fill="none" stroke="#000" stroke-linecap="round" x1="-675.0038782186538" x2="-685.0145629731942" y1="-317.4416923883954" y2="-341.6292681493863"/><line fill="none" stroke="#000" stroke-linecap="round" x1="-675.0038782186538" x2="-658.6801523446788" y1="-317.4416923883954" y2="-311.94979268192725"/><line fill="none" stroke="#000" stroke-linecap="round" x1="-636.9087148368272" x2="-656.3972497394466" y1="-291.5391329323128" y2="-300.004564091064"/><line fill="none" stroke="#000" stroke-linecap="round" x1="-636.9087148368272" x2="-643.8124971286676" y1="-291.5391329323128" y2="-266.75116120425463"/><line fill="none" stroke="#000" stroke-linecap="round" x1="-636.9087148368272" x2="-653.6670796918229" y1="-291.5391329323128" y2="-273.1078093088558"/><line fill="none" stroke="#000" stroke-linecap="round" x1="-636.9087148368272" x2="-639.241803173593" y1="-291.5391329323128" y2="-269.4759518716901"/><line fill="none" stroke="#000" stroke-linecap="round" x1="-636.9087148368272" x2="-638.9779289620334" y1="-291.5391329323128" y2="-288.6585004619928"/><line fill="none" stroke="#000" stroke-linecap="round" x1="-627.0584143313998" x2="-639.241803173593" y1="-278.65491475961693" y2="-269.4759518716901"/><line fill="none" stroke="#000" stroke-linecap="round" x1="-627.0584143313998" x2="-636.191018343649" y1="-278.65491475961693" y2="-309.8242628814305"/><line fill="none" stroke="#000" stroke-linecap="round" x1="-627.0584143313998" x2="-641.9366844621782" y1="-278.65491475961693" y2="-267.11082271186916"/><line fill="none" stroke="#000" stroke-linecap="round" x1="-627.0584143313998" x2="-636.9087148368272" y1="-278.65491475961693" y2="-291.5391329323128"/><line fill="none" stroke="#000" stroke-linecap="round" x1="-627.0584143313998" x2="-618.7158395211173" y1="-278.65491475961693" y2="-242.59382482353516"/><line fill="none" stroke="#000" stroke-linecap="round" x1="-649.8971800156543" x2="-662.7785610605479" y1="-239.65764756640093" y2="-233.06721815571169"/><line fill="none" stroke="#000" stroke-linecap="round" x1="-649.8971800156543" x2="-643.8124971286676" y1="-239.65764756640093" y2="-266.75116120425463"/><line fill="none" stroke="#000" stroke-linecap="round" x1="-649.8971800156543" x2="-664.1958873794167" y1="-239.65764756640093" y2="-217.44496212389996"/><line fill="none" stroke="#000" stroke-linecap="round" x1="-649.8971800156543" x2="-636.5871154279631" y1="-239.65764756640093" y2="-207.1451857104898"/><line fill="none" stroke="#000" stroke-linecap="round" x1="-649.8971800156543" x2="-639.241803173593" y1="-239.65764756640093" y2="-269.4759518716901"/><line fill="none" stroke="#000" stroke-linecap="round" x1="-635.3219314173243" x2="-589.9790504147169" y1="-337.0030661058668" y2="-345.4335884731524"/><line fill="none" stroke="#000" stroke-linecap="round" x1="-635.3219314173243" x2="-584.782997740877" y1="-337.0030661058668" y2="-312.642963375919"/><line fill="none" stroke="#000" stroke-linecap="round" x1="-635.3219314173243" x2="-634.3103985665051" y1="-337.0030661058668" y2="-349.8530081495664"/><line fill="none" stroke="#000" stroke-linecap="round" x1="-635.3219314173243" x2="-658.6801523446788" y1="-337.0030661058668" y2="-311.94979268192725"/><line fill="none" stroke="#000" stroke-linecap="round" x1="-635.3219314173243" x2="-648.4457414302115" y1="-337.0030661058668" y2="-349.6084867085467"/><line fill="none" stroke="#000" stroke-linecap="round" x1="-641.9366844621782" x2="-642.7586706064814" y1="-267.11082271186916" y2="-250.45742379158997"/><line fill="none" stroke="#000" stroke-linecap="round" x1="-641.9366844621782" x2="-685.5219452386347" y1="-267.11082271186916" y2="-286.5636632120621"/><line fill="none" stroke="#000" stroke-linecap="round" x1="-641.9366844621782" x2="-652.9891681901977" y1="-267.11082271186916" y2="-251.8830865391527"/><line fill="none" stroke="#000" stroke-linecap="round" x1="-641.9366844621782" x2="-613.5836086905003" y1="-267.11082271186916" y2="-283.153795718628"/><line fill="none" stroke="#000" stroke-linecap="round" x1="-641.9366844621782" x2="-649.8569999726524" y1="-267.11082271186916" y2="-262.1759874211377"/><line fill="none" stroke="#000" stroke-linecap="round" x1="-639.241803173593" x2="-627.0584143313998" y1="-269.4759518716901" y2="-278.65491475961693"/><line fill="none" stroke="#000" stroke-linecap="round" x1="-639.241803173593" x2="-656.3972497394466" y1="-269.4759518716901" y2="-300.004564091064"/><line fill="none" stroke="#000" stroke-linecap="round" x1="-639.241803173593" x2="-636.9087148368272" y1="-269.4759518716901" y2="-291.5391329323128"/><line fill="none" stroke="#000" stroke-linecap="round" x1="-639.241803173593" x2="-638.9779289620334" y1="-269.4759518716901" y2="-288.6585004619928"/><line fill="none" stroke="#000" stroke-linecap="round" x1="-639.241803173593" x2="-642.7586706064814" y1="-269.4759518716901" y2="-250.45742379158997"/><line fill="none" stroke="#000" stroke-linecap="round" x1="-600.7320132869164" x2="-636.7325493084397" y1="-262.36483824179584" y2="-270.8595754873295"/><line fill="none" stroke="#000" stroke-linecap="round" x1="-600.7320132869164" x2="-609.1199553454551" y1="-262.36483824179584" y2="-269.42061236115484"/><line fill="none" stroke="#000" stroke-linecap="round" x1="-600.7320132869164" x2="-588.0756581220932" y1="-262.36483824179584" y2="-263.7594765640132"/><line fill="none" stroke="#000" stroke-linecap="round" x1="-600.7320132869164" x2="-575.7261732505084" y1="-262.36483824179584" y2="-239.4526003234212"/><line fill="none" stroke="#000" stroke-linecap="round" x1="-600.7320132869164" x2="-600.719618292728" y1="-262.36483824179584" y2="-258.6365515707792"/><line fill="none" stroke="#000" stroke-linecap="round" x1="-664.1958873794167" x2="-662.7785610605479" y1="-217.44496212389996" y2="-233.06721815571169"/><line fill="none" stroke="#000" stroke-linecap="round" x1="-664.1958873794167" x2="-642.6007302380057" y1="-217.44496212389996" y2="-222.10240140713807"/><line fill="none" stroke="#000" stroke-linecap="round" x1="-664.1958873794167" x2="-657.6824540374841" y1="-217.44496212389996" y2="-248.5930367923695"/><line fill="none" stroke="#000" stroke-linecap="round" x1="-664.1958873794167" x2="-661.6476393549516" y1="-217.44496212389996" y2="-213.13081925694766"/><line fill="none" stroke="#000" stroke-linecap="round" x1="-664.1958873794167" x2="-651.3458548366006" y1="-217.44496212389996" y2="-179.41968118475637"/><line fill="none" stroke="#000" stroke-linecap="round" x1="-669.6536890908055" x2="-692.106151890441" y1="-57.55053180565986" y2="-42.32534625112275"/><line fill="none" stroke="#000" stroke-linecap="round" x1="-669.6536890908055" x2="-653.3273142541551" y1="-57.55053180565986" y2="-53.48659968936565"/><line fill="none" stroke="#000" stroke-linecap="round" x1="-669.6536890908055" x2="-680.2846468895726" y1="-57.55053180565986" y2="-57.081912625455494"/><line fill="none" stroke="#000" stroke-linecap="round" x1="-669.6536890908055" x2="-672.6841308139526" y1="-57.55053180565986" y2="-40.23749332000405"/><line fill="none" stroke="#000" stroke-linecap="round" x1="-669.6536890908055" x2="-681.2379223844783" y1="-57.55053180565986" y2="-75.86431693148123"/><line fill="none" stroke="#000" stroke-linecap="round" x1="-658.4998013678227" x2="-653.6670796918229" y1="-260.9959989592677" y2="-273.1078093088558"/><line fill="none" stroke="#000" stroke-linecap="round" x1="-658.4998013678227" x2="-668.8013895636989" y1="-260.9959989592677" y2="-279.727813551509"/><line fill="none" stroke="#000" stroke-linecap="round" x1="-658.4998013678227" x2="-667.17630505031" y1="-260.9959989592677" y2="-280.38468287232234"/><line fill="none" stroke="#000" stroke-linecap="round" x1="-658.4998013678227" x2="-646.5822673654022" y1="-260.9959989592677" y2="-231.1378175247334"/><line fill="none" stroke="#000" stroke-linecap="round" x1="-658.4998013678227" x2="-642.7586706064814" y1="-260.9959989592677" y2="-250.45742379158997"/><line fill="none" stroke="#000" stroke-linecap="round" x1="-667.17630505031" x2="-668.8013895636989" y1="-280.38468287232234" y2="-279.727813551509"/><line fill="none" stroke="#000" stroke-linecap="round" x1="-667.17630505031" x2="-658.4998013678227" y1="-280.38468287232234" y2="-260.9959989592677"/><line fill="none" stroke="#000" stroke-linecap="round" x1="-667.17630505031" x2="-653.6670796918229" y1="-280.38468287232234" y2="-273.1078093088558"/><line fill="none" stroke="#000" stroke-linecap="round" x1="-667.17630505031" x2="-641.9366844621782" y1="-280.38468287232234" y2="-267.11082271186916"/><line fill="none" stroke="#000" stroke-linecap="round" x1="-667.17630505031" x2="-675.0038782186538" y1="-280.38468287232234" y2="-317.4416923883954"/><line fill="none" stroke="#000" stroke-linecap="round" x1="-691.9894851381282" x2="-685.5219452386347" y1="-298.85530886236063" y2="-286.5636632120621"/><line fill="none" stroke="#000" stroke-linecap="round" x1="-691.9894851381282" x2="-699.1833569750979" y1="-298.85530886236063" y2="-333.8701477772872"/><line fill="none" stroke="#000" stroke-linecap="round" x1="-691.9894851381282" x2="-699.40200857907" y1="-298.85530886236063" y2="-285.4528500490264"/><line fill="none" stroke="#000" stroke-linecap="round" x1="-691.9894851381282" x2="-667.17630505031" y1="-298.85530886236063" y2="-280.38468287232234"/><line fill="none" stroke="#000" stroke-linecap="round" x1="-691.9894851381282" x2="-668.8013895636989" y1="-298.85530886236063" y2="-279.727813551509"/><line fill="none" stroke="#000" stroke-linecap="round" x1="-575.7261732505084" x2="-572.1940563164165" y1="-239.4526003234212" y2="-257.59166128488994"/><line fill="none" stroke="#000" stroke-linecap="round" x1="-575.7261732505084" x2="-584.2400493862367" y1="-239.4526003234212" y2="-212.09939742997167"/><line fill="none" stroke="#000" stroke-linecap="round" x1="-575.7261732505084" x2="-557.6581624248279" y1="-239.4526003234212" y2="-235.3693981241766"/><line fill="none" stroke="#000" stroke-linecap="round" x1="-575.7261732505084" x2="-563.6333268415635" y1="-239.4526003234212" y2="-215.67949310444052"/><line fill="none" stroke="#000" stroke-linecap="round" x1="-575.7261732505084" x2="-576.2743132633638" y1="-239.4526003234212" y2="-229.66504858460956"/><line fill="none" stroke="#000" stroke-linecap="round" x1="-687.3961133650639" x2="-689.0423497537208" y1="-286.1518165278197" y2="-274.5623598523794"/><line fill="none" stroke="#000" stroke-linecap="round" x1="-687.3961133650639" x2="-679.6801576441568" y1="-286.1518165278197" y2="-271.8756808137162"/><line fill="none" stroke="#000" stroke-linecap="round" x1="-687.3961133650639" x2="-672.9027115134177" y1="-286.1518165278197" y2="-285.27451194124467"/><line fill="none" stroke="#000" stroke-linecap="round" x1="-687.3961133650639" x2="-685.5219452386347" y1="-286.1518165278197" y2="-286.5636632120621"/><line fill="none" stroke="#000" stroke-linecap="round" x1="-687.3961133650639" x2="-658.4998013678227" y1="-286.1518165278197" y2="-260.9959989592677"/><line fill="none" stroke="#000" stroke-linecap="round" x1="-623.4063854101632" x2="-636.7325493084397" y1="-257.9993644251568" y2="-270.8595754873295"/><line fill="none" stroke="#000" stroke-linecap="round" x1="-623.4063854101632" x2="-600.7320132869164" y1="-257.9993644251568" y2="-262.36483824179584"/><line fill="none" stroke="#000" stroke-linecap="round" x1="-623.4063854101632" x2="-619.980408515346" y1="-257.9993644251568" y2="-222.4148668486737"/><line fill="none" stroke="#000" stroke-linecap="round" x1="-623.4063854101632" x2="-597.6214634120073" y1="-257.9993644251568" y2="-300.9735704969346"/><line fill="none" stroke="#000" stroke-linecap="round" x1="-623.4063854101632" x2="-658.4998013678227" y1="-257.9993644251568" y2="-260.9959989592677"/><line fill="none" stroke="#000" stroke-linecap="round" x1="-685.0145629731942" x2="-675.0038782186538" y1="-341.6292681493863" y2="-317.4416923883954"/><line fill="none" stroke="#000" stroke-linecap="round" x1="-685.0145629731942" x2="-699.7435716137853" y1="-341.6292681493863" y2="-346.94857299900366"/><line fill="none" stroke="#000" stroke-linecap="round" x1="-685.0145629731942" x2="-676.7848905774986" y1="-341.6292681493863" y2="-326.20842681279487"/><line fill="none" stroke="#000" stroke-linecap="round" x1="-685.0145629731942" x2="-690.8842175779503" y1="-341.6292681493863" y2="-349.58208764664"/><line fill="none" stroke="#000" stroke-linecap="round" x1="-685.0145629731942" x2="-667.7847595012859" y1="-341.6292681493863" y2="-349.18281388265893"/><line fill="none" stroke="#000" stroke-linecap="round" x1="-584.244711775768" x2="-608.1777517955213" y1="-329.6927839960662" y2="-335.0942321378268"/><line fill="none" stroke="#000" stroke-linecap="round" x1="-584.244711775768" x2="-572.7347033435661" y1="-329.6927839960662" y2="-325.35494487342265"/><line fill="none" stroke="#000" stroke-linecap="round" x1="-584.244711775768" x2="-577.7794751740381" y1="-329.6927839960662" y2="-349.49030608929115"/><line fill="none" stroke="#000" stroke-linecap="round" x1="-584.244711775768" x2="-573.4528739497147" y1="-329.6927839960662" y2="-307.98838050048835"/><line fill="none" stroke="#000" stroke-linecap="round" x1="-584.244711775768" x2="-597.6214634120073" y1="-329.6927839960662" y2="-300.9735704969346"/><line fill="none" stroke="#000" stroke-linecap="round" x1="-642.7586706064814" x2="-653.6670796918229" y1="-250.45742379158997" y2="-273.1078093088558"/><line fill="none" stroke="#000" stroke-linecap="round" x1="-642.7586706064814" x2="-641.9366844621782" y1="-250.45742379158997" y2="-267.11082271186916"/><line fill="none" stroke="#000" stroke-linecap="round" x1="-642.7586706064814" x2="-652.9891681901977" y1="-250.45742379158997" y2="-251.8830865391527"/><line fill="none" stroke="#000" stroke-linecap="round" x1="-642.7586706064814" x2="-649.8971800156543" y1="-250.45742379158997" y2="-239.65764756640093"/><line fill="none" stroke="#000" stroke-linecap="round" x1="-642.7586706064814" x2="-673.1333567960594" y1="-250.45742379158997" y2="-205.22118910105266"/><line fill="none" stroke="#000" stroke-linecap="round" x1="-615.8209338578848" x2="-613.5836086905003" y1="-288.70961404177865" y2="-283.153795718628"/><line fill="none" stroke="#000" stroke-linecap="round" x1="-615.8209338578848" x2="-627.0584143313998" y1="-288.70961404177865" y2="-278.65491475961693"/><line fill="none" stroke="#000" stroke-linecap="round" x1="-615.8209338578848" x2="-643.8124971286676" y1="-288.70961404177865" y2="-266.75116120425463"/><line fill="none" stroke="#000" stroke-linecap="round" x1="-615.8209338578848" x2="-638.9779289620334" y1="-288.70961404177865" y2="-288.6585004619928"/><line fill="none" stroke="#000" stroke-linecap="round" x1="-615.8209338578848" x2="-584.782997740877" y1="-288.70961404177865" y2="-312.642963375919"/><line fill="none" stroke="#000" stroke-linecap="round" x1="-642.6007302380057" x2="-646.5822673654022" y1="-222.10240140713807" y2="-231.1378175247334"/><line fill="none" stroke="#000" stroke-linecap="round" x1="-642.6007302380057" x2="-657.6824540374841" y1="-222.10240140713807" y2="-248.5930367923695"/><line fill="none" stroke="#000" stroke-linecap="round" x1="-642.6007302380057" x2="-664.1958873794167" y1="-222.10240140713807" y2="-217.44496212389996"/><line fill="none" stroke="#000" stroke-linecap="round" x1="-642.6007302380057" x2="-610.0932751074955" y1="-222.10240140713807" y2="-204.74837895469048"/><line fill="none" stroke="#000" stroke-linecap="round" x1="-642.6007302380057" x2="-636.5871154279631" y1="-222.10240140713807" y2="-207.1451857104898"/><line fill="none" stroke="#000" stroke-linecap="round" x1="-584.782997740877" x2="-589.9790504147169" y1="-312.642963375919" y2="-345.4335884731524"/><line fill="none" stroke="#000" stroke-linecap="round" x1="-584.782997740877" x2="-547.8395116918913" y1="-312.642963375919" y2="-281.69064198125807"/><line fill="none" stroke="#000" stroke-linecap="round" x1="-584.782997740877" x2="-635.3219314173243" y1="-312.642963375919" y2="-337.0030661058668"/><line fill="none" stroke="#000" stroke-linecap="round" x1="-584.782997740877" x2="-574.4445577322446" y1="-312.642963375919" y2="-300.80578055899974"/><line fill="none" stroke="#000" stroke-linecap="round" x1="-584.782997740877" x2="-550.8943932742967" y1="-312.642963375919" y2="-316.48883907171023"/><line fill="none" stroke="#000" stroke-linecap="round" x1="-638.9779289620334" x2="-653.6670796918229" y1="-288.6585004619928" y2="-273.1078093088558"/><line fill="none" stroke="#000" stroke-linecap="round" x1="-638.9779289620334" x2="-656.3972497394466" y1="-288.6585004619928" y2="-300.004564091064"/><line fill="none" stroke="#000" stroke-linecap="round" x1="-638.9779289620334" x2="-636.9087148368272" y1="-288.6585004619928" y2="-291.5391329323128"/><line fill="none" stroke="#000" stroke-linecap="round" x1="-638.9779289620334" x2="-636.7325493084397" y1="-288.6585004619928" y2="-270.8595754873295"/><line fill="none" stroke="#000" stroke-linecap="round" x1="-638.9779289620334" x2="-615.8209338578848" y1="-288.6585004619928" y2="-288.70961404177865"/><line fill="none" stroke="#000" stroke-linecap="round" x1="-652.9891681901977" x2="-642.7586706064814" y1="-251.8830865391527" y2="-250.45742379158997"/><line fill="none" stroke="#000" stroke-linecap="round" x1="-652.9891681901977" x2="-679.6801576441568" y1="-251.8830865391527" y2="-271.8756808137162"/><line fill="none" stroke="#000" stroke-linecap="round" x1="-652.9891681901977" x2="-662.7785610605479" y1="-251.8830865391527" y2="-233.06721815571169"/><line fill="none" stroke="#000" stroke-linecap="round" x1="-652.9891681901977" x2="-689.0423497537208" y1="-251.8830865391527" y2="-274.5623598523794"/><line fill="none" stroke="#000" stroke-linecap="round" x1="-652.9891681901977" x2="-641.9366844621782" y1="-251.8830865391527" y2="-267.11082271186916"/><line fill="none" stroke="#000" stroke-linecap="round" x1="-658.6801523446788" x2="-636.191018343649" y1="-311.94979268192725" y2="-309.8242628814305"/><line fill="none" stroke="#000" stroke-linecap="round" x1="-658.6801523446788" x2="-657.1124348062456" y1="-311.94979268192725" y2="-334.402406860711"/><line fill="none" stroke="#000" stroke-linecap="round" x1="-658.6801523446788" x2="-673.7213896429948" y1="-311.94979268192725" y2="-305.77624240491633"/><line fill="none" stroke="#000" stroke-linecap="round" x1="-658.6801523446788" x2="-699.5514387576501" y1="-311.94979268192725" y2="-249.62635187195772"/><line fill="none" stroke="#000" stroke-linecap="round" x1="-658.6801523446788" x2="-656.3946851508349" y1="-311.94979268192725" y2="-314.00704737458244"/><line fill="none" stroke="#000" stroke-linecap="round" x1="-682.1288394162374" x2="-679.6801576441568" y1="-274.30920824834993" y2="-271.8756808137162"/><line fill="none" stroke="#000" stroke-linecap="round" x1="-682.1288394162374" x2="-689.0423497537208" y1="-274.30920824834993" y2="-274.5623598523794"/><line fill="none" stroke="#000" stroke-linecap="round" x1="-682.1288394162374" x2="-672.9027115134177" y1="-274.30920824834993" y2="-285.27451194124467"/><line fill="none" stroke="#000" stroke-linecap="round" x1="-682.1288394162374" x2="-687.3961133650639" y1="-274.30920824834993" y2="-286.1518165278197"/><line fill="none" stroke="#000" stroke-linecap="round" x1="-682.1288394162374" x2="-649.8971800156543" y1="-274.30920824834993" y2="-239.65764756640093"/><line fill="none" stroke="#000" stroke-linecap="round" x1="-653.6670796918229" x2="-638.9779289620334" y1="-273.1078093088558" y2="-288.6585004619928"/><line fill="none" stroke="#000" stroke-linecap="round" x1="-653.6670796918229" x2="-642.7586706064814" y1="-273.1078093088558" y2="-250.45742379158997"/><line fill="none" stroke="#000" stroke-linecap="round" x1="-653.6670796918229" x2="-657.6824540374841" y1="-273.1078093088558" y2="-248.5930367923695"/><line fill="none" stroke="#000" stroke-linecap="round" x1="-653.6670796918229" x2="-668.8013895636989" y1="-273.1078093088558" y2="-279.727813551509"/><line fill="none" stroke="#000" stroke-linecap="round" x1="-653.6670796918229" x2="-658.4998013678227" y1="-273.1078093088558" y2="-260.9959989592677"/></svg>