<?xml version="1.0" ?><!DOCTYPE svg  PUBLIC '-//W3C//DTD SVG 1.1//EN'  'http://www.w3.org/Graphics/SVG/1.1/DTD/svg11.dtd'><svg height="330.000" viewBox="-153.000 -154.000 307.000 330.000" width="307.000" xmlns="http://www.w3.org/2000/svg"><line fill="none" stroke="none" stroke-linecap="round" stroke-width="2.0" x1="0.0" x2="0.0" y1="0.0" y2="0.0"/><polygon fill="none" fill-rule="evenodd" points="0.0,0.0 0.0,0.0 0.0,0.0" stroke-linejoin="round"/><polyline fill="none" points="-8.234939672359227,-91.61360607886768 -5.734939672357505,-92.28347905994262 -3.904812653432392,-94.1136060788632 -3.234939672351251,-96.61360607886326 -3.9048126534262018,-99.11360607886498 -5.734939672346783,-100.94373309779009 -8.234939672346847,-101.61360607887123 -10.73493967234857,-100.94373309779628 -12.565066691273685,-99.1136060788757 -13.234939672354828,-96.61360607887563 -12.56506669127988,-94.11360607887391 -10.7349396723593,-92.2834790599488 -8.234939672359236,-91.61360607886766" stroke="#ffa500" stroke-linecap="round" stroke-linejoin="round"/><polyline fill="none" points="26.858991716978743,-95.02491678272756 29.358991716980466,-95.6947897638025 31.18911873590558,-97.52491678272308 31.858991716986726,-100.02491678272315 31.189118735911777,-102.52491678272487 29.3589917169912,-104.35504380164998 26.858991716991135,-105.02491678273113 24.358991716989408,-104.35504380165618 22.52886469806429,-102.5249167827356 21.858991716983144,-100.02491678273553 22.528864698058094,-97.52491678273381 24.35899171697867,-95.6947897638087 26.858991716978736,-95.02491678272756" stroke="#ffa500" stroke-linecap="round" stroke-linejoin="round"/><polyline fill="none" points="42.18068255899828,-122.02934111108995 44.680682559000005,-122.6992140921649 46.51080957792512,-124.52934111108547 47.18068255900627,-127.02934111108554 46.510809577931326,-129.52934111108726 44.68068255901075,-131.35946813001237 42.180682559010684,-132.02934111109352 39.68068255900896,-131.35946813001857 37.85055554008384,-129.529341111098 37.18068255900269,-127.02934111109795 37.850555540077636,-124.52934111109622 39.680682558998214,-122.69921409217109 42.18068255899828,-122.02934111108993" stroke="#ffa500" stroke-linecap="round" stroke-linejoin="round"/><polyline fill="none" points="30.38317032532447,-102.86045199172148 32.8831703253262,-103.53032497279642 34.713297344251316,-105.360451991717 35.383170325332465,-107.86045199171707 34.71329734425752,-110.3604519917188 32.88317032533694,-112.19057901064393 30.383170325336877,-112.86045199172509 27.88317032533515,-112.19057901065014 26.05304330641003,-110.36045199172956 25.383170325328877,-107.86045199172949 26.05304330640382,-105.36045199172776 27.883170325324397,-103.53032497280263 30.38317032532446,-102.86045199172148" stroke="#ffa500" stroke-linecap="round" stroke-linejoin="round"/><polyline fill="none" points="-37.009457570687395,27.047581564869837 -34.50945757068567,26.377708583794895 -32.67933055176054,24.54758156487432 -32.00945757067939,22.047581564874257 -32.679330551754326,19.547581564872527 -34.509457570674904,17.717454545947405 -37.00945757067497,17.047581564866253 -39.509457570676695,17.717454545941195 -41.33958458960182,19.54758156486177 -42.009457570682976,22.047581564861833 -41.33958458960804,24.547581564863563 -39.50945757068746,26.37770858378869 -37.009457570687395,27.047581564869844" stroke="#00f" stroke-linecap="round" stroke-linejoin="round"/><polyline fill="none" points="-60.2261244609791,-38.288993953216185 -57.726124460977374,-38.95886693429112 -55.89599744205225,-40.7889939532117 -55.22612446097109,-43.288993953211765 -55.89599744204603,-45.78899395321349 -57.7261244609666,-47.61912097213862 -60.226124460966666,-48.28899395321977 -62.7261244609684,-47.619120972144835 -64.55625147989353,-45.788993953224264 -65.22612446097469,-43.2889939532242 -64.55625147989976,-40.788993953222466 -62.726124460979186,-38.95886693429734 -60.22612446097912,-38.288993953216185" stroke="#00f" stroke-linecap="round" stroke-linejoin="round"/><polyline fill="none" points="13.146735702513634,-106.84325746601567 15.646735702515365,-107.5131304470906 17.47686272144049,-109.34325746601118 18.146735702521646,-111.84325746601125 17.476862721446707,-114.34325746601299 15.646735702526135,-116.17338448493811 13.14673570252607,-116.84325746601927 10.646735702524339,-116.17338448494434 8.816608683599211,-114.34325746602376 8.146735702518052,-111.84325746602369 8.816608683592989,-109.34325746602195 10.646735702513562,-107.51313044709683 13.146735702513626,-106.84325746601567" stroke="#ffa500" stroke-linecap="round" stroke-linejoin="round"/><polyline fill="none" points="84.22408728784173,-133.48305148823826 86.72408728784346,-134.1529244693132 88.55421430676859,-135.98305148823377 89.22408728784974,-138.48305148823383 88.55421430677481,-140.98305148823556 86.72408728785423,-142.8131785071607 84.22408728785416,-143.48305148824187 81.72408728785243,-142.81317850716692 79.8939602689273,-140.98305148824636 79.22408728784615,-138.4830514882463 79.89396026892108,-135.98305148824457 81.72408728784166,-134.15292446931943 84.22408728784173,-133.48305148823826" stroke="#ffa500" stroke-linecap="round" stroke-linejoin="round"/><polyline fill="none" points="-58.94825112946243,-39.30530550662682 -56.448251129460694,-39.975178487701754 -54.61812411053556,-41.805305506622325 -53.9482511294544,-44.30530550662239 -54.61812411052933,-46.80530550662412 -56.4482511294499,-48.635432525549255 -58.948251129449964,-49.30530550663042 -61.4482511294517,-48.63543252555549 -63.27837814837683,-46.805305506634916 -63.948251129457994,-44.30530550663485 -63.27837814838306,-41.80530550663312 -61.44825112946249,-39.975178487707986 -58.94825112946243,-39.30530550662682" stroke="#00f" stroke-linecap="round" stroke-linejoin="round"/><polyline fill="none" points="2.509211417750972,33.04170458087684 5.009211417752708,32.37183159980191 6.839338436677842,30.541704580881337 7.509211417759008,28.041704580881273 6.839338436684079,25.54170458087954 5.00921141776351,23.711577561954403 2.5092114177634453,23.041704580873237 0.00921141776170975,23.711577561948165 -1.8209156011634255,25.541704580868732 -2.4907885822445923,28.041704580868796 -1.8209156011696637,30.541704580870533 0.00921141775090506,32.37183159979567 2.5092114177509695,33.04170458087684" stroke="#00f" stroke-linecap="round" stroke-linejoin="round"/><polyline fill="none" points="73.46133078890432,-62.96216116502188 75.96133078890605,-63.632034146096814 77.7914578078312,-65.46216116501738 78.46133078891236,-67.96216116501745 77.79145780783743,-70.46216116501918 75.96133078891687,-72.29228818394432 73.4613307889168,-72.96216116502549 70.96133078891506,-72.29228818395056 69.13120376998992,-70.46216116503 68.46133078890875,-67.96216116502993 69.13120376998368,-65.46216116502819 70.96133078890425,-63.63203414610305 73.46133078890432,-62.96216116502188" stroke="#ffa500" stroke-linecap="round" stroke-linejoin="round"/><polyline fill="none" points="73.36973158814102,-68.47774016938547 75.86973158814276,-69.1476131504604 77.6998586070679,-70.97774016938097 78.36973158814907,-73.47774016938104 77.69985860707413,-75.97774016938277 75.86973158815357,-77.80786718830791 73.3697315881535,-78.47774016938908 70.86973158815177,-77.80786718831415 69.03960456922663,-75.97774016939358 68.36973158814546,-73.47774016939351 69.03960456922037,-70.97774016939178 70.86973158814094,-69.14761315046664 73.36973158814101,-68.47774016938547" stroke="#ffa500" stroke-linecap="round" stroke-linejoin="round"/><polyline fill="none" points="80.64151720786157,-111.92947042062075 83.1415172078633,-112.59934340169566 84.97164422678844,-114.42947042061623 85.64151720786961,-116.9294704206163 84.9716442267947,-119.42947042061803 83.14151720787413,-121.25959743954317 80.64151720787407,-121.92947042062434 78.14151720787234,-121.25959743954942 76.3113901889472,-119.42947042062886 75.64151720786603,-116.92947042062879 76.31139018894095,-114.42947042062706 78.14151720786151,-112.59934340170192 80.64151720786158,-111.92947042062075" stroke="#ffa500" stroke-linecap="round" stroke-linejoin="round"/><polyline fill="none" points="8.87374939269988,33.74202420125586 11.37374939270162,33.07215122018094 13.203876411626764,31.242024201260378 13.873749392707941,28.742024201260314 13.20387641163302,26.242024201258573 11.373749392712456,24.41189718233343 8.873749392712392,23.742024201252253 6.373749392710652,24.411897182327174 4.543622373785507,26.242024201247737 3.8737493927043283,28.7420242012478 4.543622373779248,31.242024201249542 6.373749392699811,33.07215122017469 8.873749392699875,33.742024201255866" stroke="#00f" stroke-linecap="round" stroke-linejoin="round"/><polyline fill="none" points="74.05881356150196,-50.42078210885083 76.55881356150371,-51.09065508992575 78.38894058042885,-52.92078210884631 79.05881356151004,-55.420782108846375 78.38894058043512,-57.920782108848115 76.55881356151455,-59.75090912777326 74.05881356151448,-60.42078210885444 71.55881356151274,-59.75090912777952 69.72868654258758,-57.92078210885896 69.0588135615064,-55.420782108858894 69.72868654258131,-52.92078210885715 71.55881356150188,-51.09065508993201 74.05881356150195,-50.42078210885082" stroke="#ffa500" stroke-linecap="round" stroke-linejoin="round"/><polyline fill="none" points="81.43886821156056,-77.33440978099414 83.93886821156231,-78.00428276206905 85.76899523048746,-79.83440978098962 86.43886821156865,-82.33440978098969 85.76899523049373,-84.83440978099144 83.93886821157317,-86.66453679991659 81.4388682115731,-87.33440978099777 78.93886821157135,-86.66453679992286 77.10874119264619,-84.8344097810023 76.43886821156501,-82.33440978100222 77.10874119263993,-79.83440978100047 78.93886821156049,-78.00428276207532 81.43886821156056,-77.33440978099414" stroke="#ffa500" stroke-linecap="round" stroke-linejoin="round"/><polyline fill="none" points="-16.55756678230626,-0.4360970032619491 -14.057566782304516,-1.105969984336863 -12.227439763379365,-2.9360970032574234 -11.557566782298181,-5.436097003257488 -12.227439763373095,-7.936097003259233 -14.057566782293655,-9.766224022184385 -16.55756678229372,-10.436097003265571 -19.057566782295464,-9.766224022190658 -20.887693801220614,-7.936097003270098 -21.5575667823018,-5.436097003270033 -20.887693801226888,-2.936097003268288 -19.057566782306328,-1.1059699843431356 -16.557566782306264,-0.4360970032619488" stroke="#008000" stroke-linecap="round" stroke-linejoin="round"/><polyline fill="none" points="117.7463638110232,-42.55106803829333 120.24636381102495,-43.22094101936824 122.0764908299501,-45.0510680382888 122.74636381103129,-47.55106803828886 122.07649082995637,-50.05106803829061 120.2463638110358,-51.88119505721576 117.74636381103574,-52.551068038296954 115.24636381103399,-51.881195057222044 113.41623679210883,-50.05106803830149 112.74636381102765,-47.55106803830142 113.41623679210255,-45.051068038299675 115.24636381102312,-43.22094101937452 117.74636381102319,-42.55106803829333" stroke="#ffa500" stroke-linecap="round" stroke-linejoin="round"/><polyline fill="none" points="-22.910685096560535,-3.736605669371677 -20.410685096558787,-4.406478650446586 -18.580558077633633,-6.236605669367143 -17.91068509655244,-8.736605669367208 -18.58055807762735,-11.236605669368956 -20.41068509654791,-13.066732688294111 -22.910685096547972,-13.736605669375303 -25.41068509654972,-13.066732688300394 -27.240812115474878,-11.236605669379838 -27.91068509655607,-8.736605669379774 -27.240812115481162,-6.236605669378026 -25.410685096560606,-4.406478650452869 -22.91068509656054,-3.736605669371677" stroke="#00f" stroke-linecap="round" stroke-linejoin="round"/><polyline fill="none" points="46.40193868927033,-59.861637342907315 48.90193868927208,-60.531510323982225 50.73206570819724,-62.36163734290278 51.40193868927843,-64.86163734290285 50.73206570820353,-67.3616373429046 48.90193868928297,-69.19176436182975 46.40193868928291,-69.86163734291095 43.90193868928116,-69.19176436183605 42.071811670356,-67.3616373429155 41.40193868927481,-64.86163734291543 42.07181167034971,-62.36163734291368 43.90193868927027,-60.53151032398852 46.40193868927033,-59.86163734290732" stroke="#00f" stroke-linecap="round" stroke-linejoin="round"/><polyline fill="none" points="128.8187604370566,-51.66009503499567 131.31876043705836,-52.32996801607057 133.14888745598353,-54.16009503499113 133.81876043706473,-56.660095034991194 133.1488874559898,-59.16009503499294 131.31876043706924,-60.9902220539181 128.8187604370692,-61.6600950349993 126.31876043706744,-60.9902220539244 124.48863341814227,-59.16009503500384 123.81876043706107,-56.66009503500378 124.48863341813598,-54.16009503500203 126.31876043705653,-52.32996801607687 128.8187604370566,-51.66009503499567" stroke="#ffa500" stroke-linecap="round" stroke-linejoin="round"/><polyline fill="none" points="113.63323137086172,-58.03895053925565 116.13323137086347,-58.708823520330554 117.96335838978864,-60.53895053925111 118.63323137086984,-63.038950539251175 117.96335838979493,-65.53895053925292 116.13323137087438,-67.36907755817809 113.63323137087431,-68.03895053925929 111.13323137087256,-67.36907755818439 109.3031043519474,-65.53895053926384 108.6332313708662,-63.03895053926377 109.3031043519411,-60.53895053926202 111.13323137086165,-58.70882352033686 113.63323137086172,-58.03895053925566" stroke="#ffa500" stroke-linecap="round" stroke-linejoin="round"/><polyline fill="none" points="66.02526996426238,-41.33584522327099 68.52526996426413,-42.00571820434589 70.3553969831893,-43.83584522326644 71.02526996427049,-46.3358452232665 70.35539698319559,-48.83584522326826 68.52526996427504,-50.665972242193426 66.02526996427497,-51.335845223274625 63.525269964273214,-50.66597224219973 61.695142945348046,-48.83584522327918 61.02526996426684,-46.335845223279115 61.695142945341736,-43.83584522327736 63.525269964262286,-42.00571820435219 66.02526996426235,-41.33584522327099" stroke="#ffa500" stroke-linecap="round" stroke-linejoin="round"/><polyline fill="none" points="38.68600330601485,33.15884145061071 41.1860033060166,32.48896846953581 43.01613032494177,30.658841450615263 43.686003306022975,28.1588414506152 43.01613032494808,25.658841450613444 41.18600330602753,23.828714431688276 38.686003306027466,23.15884145060707 36.18600330602571,23.828714431681966 34.35587628710054,25.658841450602516 33.68600330601934,28.15884145060258 34.35587628709423,30.658841450604335 36.18600330601478,32.4889684695295 38.68600330601485,33.15884145061071" stroke="#00f" stroke-linecap="round" stroke-linejoin="round"/><polyline fill="none" points="32.40742709376336,-18.041006009401674 34.907427093765115,-18.71087899047657 36.73755411269028,-20.54100600939712 37.40742709377149,-23.041006009397183 36.73755411269659,-25.541006009398938 34.90742709377604,-27.37113302832411 32.40742709377598,-28.04100600940532 29.907427093774224,-27.371133028330426 28.077300074849052,-25.541006009409877 27.407427093767843,-23.041006009409813 28.077300074842736,-20.541006009408058 29.907427093763285,-18.710878990482886 32.40742709376335,-18.041006009401677" stroke="#00f" stroke-linecap="round" stroke-linejoin="round"/><polyline fill="none" points="32.76522333860452,-25.21751083297979 35.265223338606276,-25.887383814054683 37.09535035753145,-27.71751083297523 37.765223338612664,-30.217510832975293 37.095350357537775,-32.71751083297705 35.265223338617226,-34.54763785190222 32.76522333861716,-35.217510832983436 30.265223338615403,-34.54763785190855 28.43509631969023,-32.717510832988 27.76522333860902,-30.217510832987934 28.43509631968391,-27.717510832986175 30.265223338604457,-25.887383814061 32.76522333860452,-25.217510832979787" stroke="#00f" stroke-linecap="round" stroke-linejoin="round"/><polyline fill="none" points="120.27236111301596,23.641261298869676 122.77236111301772,22.971388317794787 124.60248813194289,21.14126129887424 125.2723611130241,18.641261298874177 124.60248813194922,16.14126129887242 122.77236111302867,14.311134279947243 120.2723611130286,13.64126129886603 117.77236111302683,14.31113427994092 115.94223409410165,16.141261298861465 115.27236111302044,18.64126129886153 115.94223409409533,21.141261298863288 117.77236111301588,22.971388317788463 120.27236111301593,23.641261298869676" stroke="#ffa500" stroke-linecap="round" stroke-linejoin="round"/><polyline fill="none" points="136.9812200259512,27.529413760883067 139.48122002595295,26.859540779808178 141.31134704487812,25.029413760887632 141.98122002595935,22.529413760887568 141.31134704488446,20.02941376088581 139.48122002596392,18.19928674196063 136.98122002596386,17.529413760879414 134.4812200259621,18.199286741954303 132.65109300703693,20.02941376087485 131.9812200259557,22.529413760874913 132.6510930070306,25.029413760876672 134.48122002595113,26.85954077980185 136.9812200259512,27.529413760883067" stroke="#ffa500" stroke-linecap="round" stroke-linejoin="round"/><polyline fill="none" points="92.6158038589059,15.067190883365239 95.11580385890767,14.397317902290354 96.94593087783285,12.56719088336981 97.61580385891406,10.067190883369745 96.94593087783917,7.567190883367985 95.11580385891862,5.737063864442806 92.61580385891855,5.067190883361588 90.11580385891679,5.737063864436473 88.28567683999161,7.567190883357016 87.6158038589104,10.06719088335708 88.28567683998529,12.567190883358842 90.11580385890583,14.397317902284023 92.6158038589059,15.067190883365242" stroke="#ffa500" stroke-linecap="round" stroke-linejoin="round"/><polyline fill="none" points="119.89382859540467,-1.0049599648725636 122.39382859540643,-1.674832945947447 124.22395561433162,-3.5049599648679894 124.89382859541284,-6.004959964868053 124.22395561433795,-8.504959964869816 122.39382859541742,-10.335086983794998 119.89382859541735,-11.00495996487622 117.39382859541558,-10.335086983801338 115.5637015764904,-8.504959964880797 114.89382859540918,-6.004959964880733 115.56370157648405,-3.50495996487897 117.39382859540459,-1.674832945953787 119.89382859540464,-1.004959964872565" stroke="#ffa500" stroke-linecap="round" stroke-linejoin="round"/><polyline fill="none" points="48.919242706588136,19.221747248458072 51.4192427065899,18.55187426738319 53.24936972551508,16.72174724846265 53.91924270659631,14.221747248462584 53.249369725521426,11.72174724846082 51.41924270660088,9.891620229535636 48.91924270660082,9.221747248454413 46.41924270659906,9.891620229529293 44.589115687673875,11.721747248449834 43.91924270659265,14.221747248449898 44.58911568766753,16.721747248451663 46.41924270658807,18.55187426737685 48.919242706588136,19.221747248458076" stroke="#ffa500" stroke-linecap="round" stroke-linejoin="round"/><polyline fill="none" points="51.82455732771734,-21.122992885348335 54.324557327719106,-21.792865866423213 56.154684346644295,-23.622992885343752 56.82455732772552,-26.122992885343816 56.15468434665065,-28.62299288534558 54.324557327730105,-30.453119904270768 51.82455732773004,-31.122992885351994 49.32455732772827,-30.453119904277116 47.49443030880308,-28.622992885356577 46.824557327721855,-26.122992885356513 47.49443030879673,-23.622992885354748 49.324557327717265,-21.79286586642956 51.82455732771733,-21.12299288534833" stroke="#00f" stroke-linecap="round" stroke-linejoin="round"/><polyline fill="none" points="-29.625186260240184,-32.84048090751039 -27.12518626023842,-33.510353888585264 -25.29505924131323,-35.3404809075058 -24.625186260232,-37.840480907505864 -25.295059241306873,-40.34048090750763 -27.125186260227412,-42.17060792643282 -29.625186260227476,-42.84048090751405 -32.12518626022924,-42.170607926439175 -33.95531327915443,-40.34048090751864 -34.62518626023566,-37.840480907518575 -33.955313279160784,-35.340480907516806 -32.12518626024025,-33.51035388859162 -29.625186260240184,-32.84048090751038" stroke="#ffa500" stroke-linecap="round" stroke-linejoin="round"/><polyline fill="none" points="46.630056379137464,83.68928572817816 49.13005637913923,83.01941274710329 50.96018339806442,81.18928572818275 51.63005637914566,78.68928572818268 50.96018339807078,76.18928572818092 49.13005637915025,74.35915870925572 46.63005637915018,73.6892857281745 44.130056379148414,74.35915870924937 42.299929360223224,76.1892857281699 41.63005637914199,78.68928572816998 42.299929360216865,81.18928572817174 44.1300563791374,83.01941274709694 46.630056379137464,83.68928572817816" stroke="#ffa500" stroke-linecap="round" stroke-linejoin="round"/><polyline fill="none" points="116.57077252072926,86.9485633604565 119.07077252073103,86.27869037938163 120.90089953965622,84.4485633604611 121.57077252073746,81.94856336046102 120.90089953966259,79.44856336045925 119.07077252074205,77.61843634153405 116.57077252074198,76.94856336045281 114.0707725207402,77.61843634152768 112.24064550181501,79.44856336044822 111.57077252073377,81.94856336044829 112.24064550180864,84.44856336045007 114.07077252072918,86.27869037937526 116.57077252072924,86.9485633604565" stroke="#ffa500" stroke-linecap="round" stroke-linejoin="round"/><polyline fill="none" points="-40.96971258755661,26.50762394461205 -38.46971258755484,25.837750963537182 -36.63958556862964,24.007623944616647 -35.96971258754841,21.507623944616583 -36.639585568623275,19.007623944614814 -38.46971258754381,17.177496925689617 -40.969712587543874,16.50762394460838 -43.469712587545644,17.177496925683247 -45.29983960647084,19.00762394460378 -45.96971258755208,21.507623944603843 -45.299839606477214,24.007623944605612 -43.46971258755668,25.83775096353081 -40.969712587556614,26.507623944612046" stroke="#f00" stroke-linecap="round" stroke-linejoin="round"/><polyline fill="none" points="93.12869751325235,62.196111737017574 95.62869751325412,61.52623875594271 97.45882453217932,59.69611173702217 98.12869751326056,57.19611173702211 97.4588245321857,54.69611173702034 95.62869751326517,52.86598471809514 93.1286975132651,52.1961117370139 90.62869751326332,52.86598471808877 88.79857049433812,54.6961117370093 88.12869751325688,57.19611173700937 88.79857049433174,59.69611173701114 90.62869751325228,61.52623875593633 93.12869751325235,62.196111737017574" stroke="#ffa500" stroke-linecap="round" stroke-linejoin="round"/><polyline fill="none" points="75.92932479819473,20.48326671990809 78.4293247981965,19.813393738833227 80.2594518171217,17.983266719912695 80.92932479820294,15.483266719912631 80.25945181712808,12.983266719910858 78.42932479820755,11.153139700985657 75.92932479820747,10.483266719904414 73.4293247982057,11.153139700979276 71.5991977792805,12.983266719899806 70.92932479819926,15.48326671989987 71.59919777927412,17.983266719901643 73.42932479819466,19.813393738826846 75.92932479819473,20.48326671990809" stroke="#ffa500" stroke-linecap="round" stroke-linejoin="round"/><polyline fill="none" points="126.14377960593913,65.82323249437012 128.6437796059409,65.15335951329526 130.4739066248661,63.32323249437473 131.14377960594734,60.823232494374665 130.47390662487248,58.32323249437289 128.64377960595195,56.493105475447685 126.14377960595189,55.82323249436644 123.64377960595012,56.4931054754413 121.8136525870249,58.323232494361825 121.14377960594366,60.82323249436189 121.81365258701852,63.323232494363666 123.64377960593905,65.15335951328888 126.1437796059391,65.82323249437012" stroke="#ffa500" stroke-linecap="round" stroke-linejoin="round"/><polyline fill="none" points="10.453865298998952,33.94829024088136 12.953865299000729,33.2784172598065 14.783992317925934,31.448290240885974 15.453865299007182,28.94829024088591 14.783992317932324,26.448290240884134 12.953865299011795,24.618163221958927 10.453865299011731,23.94829024087768 7.953865299009955,24.618163221952535 6.123738280084748,26.448290240873064 5.453865299003498,28.948290240873128 6.123738280078355,31.448290240874904 7.953865298998881,33.278417259800115 10.453865298998945,33.94829024088136" stroke="#00f" stroke-linecap="round" stroke-linejoin="round"/><polyline fill="none" points="122.95915072302449,60.02619794605395 125.45915072302627,59.356324964979095 127.28927774195148,57.526197946058566 127.95915072303274,55.0261979460585 127.28927774195787,52.526197946056726 125.45915072303735,50.696070927131515 122.95915072303728,50.02619794605026 120.4591507230355,50.69607092712511 118.6290237041103,52.52619794604564 117.95915072302904,55.026197946045706 118.6290237041039,57.52619794604748 120.45915072302442,59.35632496497269 122.95915072302449,60.02619794605395" stroke="#ffa500" stroke-linecap="round" stroke-linejoin="round"/><polyline fill="none" points="101.69617702671039,85.60986086703221 104.19617702671216,84.93998788595735 106.02630404563737,83.10986086703683 106.69617702671863,80.60986086703676 106.02630404564377,78.10986086703498 104.19617702672325,76.27973384810977 101.69617702672318,75.60986086702852 99.1961770267214,76.27973384810336 97.36605000779619,78.10986086702388 96.69617702671493,80.60986086702395 97.36605000778978,83.10986086702573 99.1961770267103,84.93998788595094 101.69617702671037,85.6098608670322" stroke="#ffa500" stroke-linecap="round" stroke-linejoin="round"/><polyline fill="none" points="84.36752006559936,130.2050383326226 86.86752006560114,129.53516535154773 88.69764708452635,127.70503833262721 89.36752006560761,125.20503833262714 88.69764708453276,122.70503833262536 86.86752006561224,120.87491131370015 84.36752006561217,120.2050383326189 81.86752006561039,120.87491131369374 80.03739304668518,122.70503833261427 79.36752006560393,125.20503833261434 80.03739304667877,127.70503833261611 81.8675200655993,129.53516535154134 84.36752006559936,130.2050383326226" stroke="#ffa500" stroke-linecap="round" stroke-linejoin="round"/><polyline fill="none" points="58.83399780295022,129.51481950062382 61.333997802952005,128.84494651954896 63.16412482187722,127.01481950062843 63.833997802958486,124.51481950062836 63.16412482188364,122.01481950062657 61.33399780296312,120.18469248170135 58.833997802963054,119.51481950062009 56.33399780296127,120.18469248169494 54.50387078403605,122.01481950061546 53.83399780295479,124.51481950061553 54.50387078402964,127.01481950061732 56.33399780295016,128.84494651954253 58.83399780295022,129.5148195006238" stroke="#ffa500" stroke-linecap="round" stroke-linejoin="round"/><polyline fill="none" points="-8.891625331595176,14.266148584346995 -6.39162533159339,13.596275603272149 -4.561498312668171,11.766148584351626 -3.8916253315869076,9.26614858435156 -4.561498312661754,6.766148584349775 -6.391625331582276,4.9360215654245545 -8.891625331582341,4.2661485843432905 -11.391625331584127,4.936021565418136 -13.221752350509348,6.766148584338657 -13.891625331590614,9.266148584338723 -13.22175235051577,11.76614858434051 -11.391625331595248,13.596275603265731 -8.891625331595183,14.266148584346997" stroke="#00f" stroke-linecap="round" stroke-linejoin="round"/><polyline fill="none" points="-62.14918440166736,35.56524484845126 -59.64918440166558,34.89537186737641 -57.819057382740354,33.06524484845589 -57.149184401659085,30.565244848455823 -57.81905738273393,28.065244848454036 -59.64918440165445,26.235117829528814 -62.149184401654516,25.56524484844755 -64.6491844016563,26.23511782952239 -66.47931142058152,28.065244848442912 -67.1491844016628,30.56524484844298 -66.47931142058795,33.06524484844477 -64.64918440166743,34.895371867369995 -62.14918440166736,35.565244848451265" stroke="#00f" stroke-linecap="round" stroke-linejoin="round"/><polyline fill="none" points="61.68628543750564,145.12272102243978 64.18628543750742,144.45284804136494 66.01641245643265,142.62272102244444 66.68628543751392,140.12272102244438 66.01641245643907,137.6227210224426 64.18628543751855,135.79259400351737 61.686285437518485,135.12272102243608 59.186285437516695,135.7925940035109 57.35615841859147,137.62272102243142 56.6862854375102,140.12272102243148 57.35615841858504,142.62272102243327 59.18628543750556,144.4528480413585 61.686285437505624,145.12272102243978" stroke="#ffa500" stroke-linecap="round" stroke-linejoin="round"/><polyline fill="none" points="36.22524471977833,111.87856805923451 38.72524471978012,111.20869507815966 40.55537173870535,109.37856805923914 41.225244719786616,106.87856805923907 40.55537173871178,104.37856805923728 38.72524471979126,102.54844104031206 36.2252447197912,101.87856805923079 33.72524471978941,102.54844104030562 31.89511770086418,104.37856805922614 31.225244719782907,106.87856805922621 31.895117700857746,109.378568059228 33.72524471977826,111.20869507815323 36.225244719778324,111.8785680592345" stroke="#ffa500" stroke-linecap="round" stroke-linejoin="round"/><polyline fill="none" points="-40.371231490680806,35.11910703592841 -37.871231490679016,34.44923405485357 -36.04110447175378,32.619107035933055 -35.37123149067251,30.119107035932988 -36.041104471747346,27.619107035931197 -37.87123149066786,25.78898001700597 -40.371231490667924,25.119107035924692 -42.871231490669715,25.788980016999528 -44.70135850959495,27.619107035920045 -45.37123149067622,30.119107035920113 -44.70135850960139,32.61910703592191 -42.87123149068088,34.44923405484714 -40.37123149068081,35.119107035928415" stroke="#00f" stroke-linecap="round" stroke-linejoin="round"/><polyline fill="none" points="62.140227566606065,112.02446345450882 64.64022756660786,111.35459047343399 66.47035458553309,109.52446345451347 67.14022756661437,107.0244634545134 66.47035458553954,104.5244634545116 64.64022756661902,102.69433643558637 62.140227566618954,102.02446345450508 59.64022756661716,102.69433643557991 57.81010054769193,104.52446345450043 57.140227566610655,107.0244634545005 57.81010054768549,109.5244634545023 59.640227566606,111.35459047342754 62.140227566606065,112.02446345450882" stroke="#ffa500" stroke-linecap="round" stroke-linejoin="round"/><polyline fill="none" points="32.62802914035607,21.588921111548363 35.12802914035787,20.91904813047353 36.9581561592831,19.088921111553017 37.62802914036438,16.58892111155295 36.95815615928955,14.088921111551155 35.12802914036904,12.25879409262592 32.62802914036897,11.588921111544638 30.12802914036718,12.258794092619468 28.297902121441943,14.08892111153998 27.62802914036066,16.588921111540046 28.297902121435488,19.08892111154184 30.128029140356002,20.919048130467075 32.62802914035607,21.58892111154836" stroke="#00f" stroke-linecap="round" stroke-linejoin="round"/><polyline fill="none" points="23.852659391431708,146.36637700211452 26.3526593914335,145.6965040210397 28.182786410358737,143.86637700211918 28.85265939144002,141.36637700211912 28.182786410365193,138.86637700211733 26.352659391444682,137.0362499831921 23.852659391444618,136.36637700211082 21.35265939144282,137.03624998318566 19.52253237251758,138.86637700210616 18.852659391436298,141.36637700210622 19.522532372511126,143.866377002108 21.352659391431636,145.69650402103323 23.852659391431704,146.36637700211452" stroke="#ffa500" stroke-linecap="round" stroke-linejoin="round"/><polyline fill="none" points="31.574352856804182,113.0915567576154 34.07435285680598,112.42168377654056 35.90447987573122,110.59155675762005 36.5743528568125,108.09155675761998 35.90447987573768,105.59155675761819 34.07435285681717,103.76142973869295 31.574352856817104,103.09155675761167 29.074352856815306,103.7614297386865 27.244225837890067,105.59155675760701 26.57435285680878,108.09155675760708 27.244225837883604,110.59155675760888 29.074352856804115,112.42168377653412 31.574352856804182,113.09155675761541" stroke="#ffa500" stroke-linecap="round" stroke-linejoin="round"/><polyline fill="none" points="18.77068728369586,129.83471104404362 21.270687283697658,129.16483806296878 23.1008143026229,127.33471104404828 23.770687283704188,124.8347110440482 23.100814302629363,122.3347110440464 21.270687283708853,120.50458402512116 18.770687283708785,119.83471104403988 16.270687283706987,120.5045840251147 14.440560264781745,122.3347110440352 13.770687283700454,124.83471104403527 14.440560264775277,127.33471104403708 16.270687283695786,129.16483806296233 18.770687283695853,129.83471104404362" stroke="#ffa500" stroke-linecap="round" stroke-linejoin="round"/><polyline fill="none" points="39.661713013470255,89.22034388699804 42.16171301347205,88.55047090592322 43.9918400323973,86.72034388700271 44.66171301347859,84.22034388700264 43.991840032403765,81.72034388700084 42.16171301348326,79.8902168680756 39.661713013483194,79.2203438869943 37.161713013481396,79.89021686806912 35.33158599455615,81.72034388698962 34.66171301347486,84.2203438869897 35.33158599454968,86.7203438869915 37.161713013470184,88.55047090591674 39.66171301347025,89.22034388699804" stroke="#ffa500" stroke-linecap="round" stroke-linejoin="round"/><polyline fill="none" points="-4.896986869395249,31.760386145788306 -2.3969868693934484,31.090513164713485 -0.5668598504682021,29.260386145792978 0.10301313061309225,26.76038614579291 -0.5668598504617272,24.26038614579111 -2.396986869382234,22.430259126865863 -4.8969868693823,21.76038614578457 -7.3969868693841025,22.430259126859386 -9.22711388830935,24.260386145779893 -9.896986869390647,26.76038614577996 -9.227113888315827,29.260386145781762 -7.39698686939532,31.090513164707012 -4.896986869395254,31.76038614578831" stroke="#00f" stroke-linecap="round" stroke-linejoin="round"/><polyline fill="none" points="-36.344321282367595,151.860110451937 -33.84432128236579,151.19023747086217 -32.014194263440544,149.36011045194167 -31.344321282359246,146.8601104519416 -32.014194263434064,144.36011045193982 -33.84432128235457,142.52998343301456 -36.344321282354635,141.86011045193328 -38.84432128235644,142.52998343300808 -40.67444830128169,144.3601104519286 -41.34432128236299,146.86011045192865 -40.67444830128817,149.36011045193044 -38.844321282367666,151.1902374708557 -36.3443212823676,151.860110451937" stroke="#ffa500" stroke-linecap="round" stroke-linejoin="round"/><polyline fill="none" points="-60.26530265085197,64.46534199202738 -57.76530265085017,63.79546901095256 -55.93517563192491,61.96534199203205 -55.265302650843616,59.46534199203199 -55.93517563191843,56.96534199203018 -57.76530265083894,55.13521497310493 -60.265302650839004,54.46534199202363 -62.76530265084081,55.13521497309845 -64.59542966976606,56.965341992018956 -65.26530265084736,59.46534199201902 -64.59542966977254,61.965341992020825 -62.765302650852036,63.79546901094608 -60.26530265085197,64.46534199202738" stroke="#00f" stroke-linecap="round" stroke-linejoin="round"/><polyline fill="none" points="-55.315153506334795,164.38182239234823 -52.81515350633299,163.71194941127342 -50.98502648740774,161.88182239235292 -50.31515350632643,159.38182239235286 -50.98502648740124,156.88182239235104 -52.81515350632174,155.0516953734258 -55.315153506321806,154.38182239234447 -57.81515350632361,155.05169537341928 -59.645280525248864,156.88182239233979 -60.31515350633017,159.38182239233984 -59.64528052525536,161.88182239234166 -57.81515350633486,163.71194941126691 -55.315153506334795,164.38182239234823" stroke="#ffa500" stroke-linecap="round" stroke-linejoin="round"/><polyline fill="none" points="-25.257084663904767,139.621651668985 -22.75708466390296,138.9517786879102 -20.9269576449777,137.1216516689897 -20.257084663896396,134.62165166898964 -20.926957644971207,132.12165166898782 -22.75708466389171,130.29152465006257 -25.257084663891778,129.62165166898126 -27.757084663893586,130.29152465005606 -29.587211682818843,132.12165166897657 -30.25708466390015,134.62165166897663 -29.58721168282534,137.12165166897844 -27.75708466390484,138.9517786879037 -25.257084663904774,139.621651668985" stroke="#ffa500" stroke-linecap="round" stroke-linejoin="round"/><polyline fill="none" points="-37.323506564583624,42.46152979492008 -34.82350656458181,41.79165681384527 -32.99337954565655,39.96152979492477 -32.32350656457525,37.4615297949247 -32.99337954565006,34.96152979492289 -34.82350656457056,33.13140277599763 -37.32350656457062,32.461529794916316 -39.82350656457243,33.13140277599113 -41.653633583497694,34.96152979491163 -42.323506564579006,37.4615297949117 -41.6536335835042,39.96152979491351 -39.8235065645837,41.79165681383877 -37.32350656458364,42.46152979492008" stroke="#008000" stroke-linecap="round" stroke-linejoin="round"/><polyline fill="none" points="-39.06421534553032,34.037747563296136 -36.56421534552851,33.36787458222133 -34.73408832660325,31.537747563300833 -34.06421534552194,29.037747563300766 -34.73408832659674,26.537747563298954 -36.56421534551724,24.70762054437369 -39.06421534551731,24.037747563292378 -41.56421534551912,24.70762054436718 -43.394342364444384,26.53774756328768 -44.064215345525696,29.03774756328775 -43.39434236445089,31.53774756328956 -41.56421534553039,33.367874582214824 -39.06421534553032,34.037747563296136" stroke="#00f" stroke-linecap="round" stroke-linejoin="round"/><polyline fill="none" points="-29.60776433327988,41.9662108071862 -27.10776433327807,41.2963378261114 -25.277637314352805,39.4662108071909 -24.60776433327149,36.966210807190826 -25.277637314346293,34.466210807189015 -27.107764333266793,32.63608378826375 -29.60776433326686,31.96621080718243 -32.107764333268676,32.63608378825723 -33.937891352193944,34.46621080717773 -34.60776433327526,36.9662108071778 -33.93789135220046,39.466210807179614 -32.10776433327996,41.29633782610488 -29.607764333279892,41.9662108071862" stroke="#00f" stroke-linecap="round" stroke-linejoin="round"/><polyline fill="none" points="-53.50099710018006,36.22152787616057 -51.000997100178246,35.55165489508577 -49.17087008125298,33.72152787616527 -48.50099710017166,31.2215278761652 -49.17087008124646,28.721527876163385 -51.00099710016696,26.891400857238118 -53.500997100167034,26.2215278761568 -56.000997100168846,26.8914008572316 -57.83112411909411,28.721527876152095 -58.50099710017543,31.221527876152162 -57.831124119100636,33.72152787615398 -56.00099710018014,35.551654895079245 -53.50099710018007,36.221527876160565" stroke="#00f" stroke-linecap="round" stroke-linejoin="round"/><polyline fill="none" points="-66.82101534786963,138.32439541908983 -64.32101534786781,137.65452243801502 -62.490888328942546,135.82439541909451 -61.82101534786123,133.32439541909446 -62.49088832893602,130.82439541909264 -64.32101534785652,128.99426840016736 -66.82101534785659,128.32439541908604 -69.3210153478584,128.99426840016085 -71.15114236678367,130.82439541908136 -71.821015347865,133.3243954190814 -71.1511423667902,135.82439541908323 -69.3210153478697,137.6545224380085 -66.82101534786963,138.32439541908983" stroke="#ffa500" stroke-linecap="round" stroke-linejoin="round"/><polyline fill="none" points="-89.87803614101524,112.88011177967614 -87.37803614101342,112.21023879860135 -85.54790912208816,110.38011177968086 -84.87803614100683,107.88011177968079 -85.54790912208162,105.38011177967897 -87.37803614100211,103.5499847607537 -89.87803614100218,102.88011177967238 -92.378036141004,103.54998476074717 -94.20816315992927,105.38011177966766 -94.8780361410106,107.88011177966773 -94.20816315993581,110.38011177966955 -92.37803614101531,112.21023879859482 -89.87803614101524,112.88011177967614" stroke="#ffa500" stroke-linecap="round" stroke-linejoin="round"/><polyline fill="none" points="-81.45320748230237,73.1183719905569 -78.95320748230056,72.4484990094821 -77.12308046337527,70.61837199056161 -76.45320748229395,68.11837199056154 -77.12308046336874,65.61837199055972 -78.95320748228923,63.78824497163445 -81.4532074822893,63.11837199055312 -83.95320748229112,63.78824497162791 -85.7833345012164,65.6183719905484 -86.45320748229773,68.11837199054847 -85.78333450122294,70.61837199055029 -83.95320748230245,72.44849900947557 -81.45320748230237,73.1183719905569" stroke="#ffa500" stroke-linecap="round" stroke-linejoin="round"/><polyline fill="none" points="-75.89523688614224,86.12058636693997 -73.39523688614042,85.45071338586519 -71.56510986721514,83.62058636694469 -70.89523688613382,81.12058636694462 -71.5651098672086,78.6205863669428 -73.3952368861291,76.79045934801752 -75.89523688612917,76.1205863669362 -78.39523688613099,76.79045934801098 -80.22536390505627,78.62058636693148 -80.8952368861376,81.12058636693155 -80.2253639050628,83.62058636693337 -78.39523688614231,85.45071338585865 -75.89523688614224,86.12058636693997" stroke="#ffa500" stroke-linecap="round" stroke-linejoin="round"/><polyline fill="none" points="-75.36906240965334,80.80068421039996 -72.86906240965152,80.13081122932518 -71.03893539072624,78.30068421040468 -70.36906240964491,75.80068421040461 -71.0389353907197,73.30068421040279 -72.8690624096402,71.47055719147751 -75.36906240964026,70.80068421039618 -77.86906240964208,71.47055719147097 -79.69918942856737,73.30068421039147 -80.3690624096487,75.80068421039154 -79.69918942857392,78.30068421039336 -77.86906240965342,80.13081122931864 -75.36906240965335,80.80068421039998" stroke="#ffa500" stroke-linecap="round" stroke-linejoin="round"/><polyline fill="none" points="-41.34813299627894,23.611777996410495 -38.848132996277116,22.94190501533571 -37.018005977351834,21.11177799641522 -36.3481329962705,18.61177799641515 -37.01800597734528,16.111777996413323 -38.84813299626577,14.28165097748804 -41.34813299626584,13.611777996406703 -43.848132996267665,14.281650977481487 -45.67826001519295,16.111777996401976 -46.34813299627429,18.611777996402047 -45.678260015199506,21.111777996403873 -43.84813299627902,22.94190501532916 -41.34813299627895,23.611777996410495" stroke="#008000" stroke-linecap="round" stroke-linejoin="round"/><polyline fill="none" points="-41.27662049854512,88.4741186042741 -38.776620498543295,87.80424562319931 -36.946493479618006,85.97411860427881 -36.276620498536666,83.47411860427874 -36.94649347961145,80.97411860427692 -38.77662049853193,79.14399158535164 -41.276620498532004,78.4741186042703 -43.77662049853383,79.14399158534508 -45.60674751745912,80.97411860426557 -46.27662049854046,83.47411860426564 -45.60674751746568,85.97411860426747 -43.77662049854519,87.80424562319276 -41.27662049854512,88.4741186042741" stroke="#00f" stroke-linecap="round" stroke-linejoin="round"/><polyline fill="none" points="-126.72485268130414,111.48103061238997 -124.22485268130231,110.8111576313152 -122.39472566237703,108.9810306123947 -121.72485268129569,106.48103061239463 -122.39472566237046,103.9810306123928 -124.22485268129095,102.1509035934675 -126.72485268129103,101.48103061238616 -129.22485268129284,102.15090359346094 -131.05497970021813,103.98103061238143 -131.72485268129947,106.4810306123815 -131.0549797002247,108.98103061238334 -129.2248526813042,110.81115763130863 -126.72485268130414,111.48103061238997" stroke="#ffa500" stroke-linecap="round" stroke-linejoin="round"/><polyline fill="none" points="57.30447556496292,84.54941279053067 59.80447556496475,83.87953980945589 61.634602583890036,82.04941279053541 62.30447556497138,79.54941279053534 61.63460258389661,77.04941279053351 59.80447556497612,75.21928577160821 57.30447556497605,74.54941279052687 54.80447556497422,75.21928577160165 52.97434854604892,77.04941279052213 52.304475564967575,79.5494127905222 52.97434854604235,82.04941279052403 54.804475564962836,83.87953980944933 57.30447556496291,84.54941279053067" stroke="#00f" stroke-linecap="round" stroke-linejoin="round"/><polyline fill="none" points="-81.76868673736647,-25.1959359504093 -79.26868673736463,-25.865808931484075 -77.43855971843934,-27.69593595040456 -76.768686737358,-30.195935950404632 -77.43855971843277,-32.695935950406465 -79.26868673735325,-34.52606296933176 -81.76868673735332,-35.19593595041311 -84.26868673735515,-34.526062969338334 -86.09881375628045,-32.69593595041785 -86.7686867373618,-30.195935950417777 -86.09881375628703,-27.695935950415944 -84.26868673736655,-25.865808931490648 -81.76868673736648,-25.1959359504093" stroke="#ffa500" stroke-linecap="round" stroke-linejoin="round"/><polyline fill="none" points="-103.0178202964884,47.38552293175734 -100.51782029648656,46.71564995068257 -98.68769327756127,44.88552293176208 -98.01782029647991,42.38552293176201 -98.68769327755469,39.88552293176018 -100.51782029647516,38.05539591283488 -103.01782029647524,37.38552293175353 -105.51782029647707,38.0553959128283 -107.34794731540237,39.88552293174878 -108.01782029648372,42.38552293174885 -107.34794731540894,44.885522931750685 -105.51782029648847,46.71564995067598 -103.0178202964884,47.385522931757336" stroke="#ffa500" stroke-linecap="round" stroke-linejoin="round"/><polyline fill="none" points="-125.24548080542934,71.39689865852442 -122.7454808054275,70.72702567744965 -120.91535378650221,68.89689865852917 -120.24548080542085,66.3968986585291 -120.91535378649563,63.89689865852726 -122.74548080541611,62.06677163960196 -125.24548080541618,61.396898658520605 -127.74548080541801,62.06677163959537 -129.5756078243433,63.89689865851585 -130.24548080542468,66.39689865851592 -129.5756078243499,68.89689865851776 -127.74548080542942,70.72702567744305 -125.24548080542935,71.3968986585244" stroke="#ffa500" stroke-linecap="round" stroke-linejoin="round"/><polyline fill="none" points="-46.579714517065874,47.14124587931362 -44.07971451706404,46.471372898238855 -42.24958749813874,44.641245879318376 -41.57971451705738,42.141245879318305 -42.24958749813215,39.64124587931647 -44.07971451705263,37.81111886039117 -46.5797145170527,37.141245879309814 -49.07971451705453,37.81111886038458 -50.90984153597984,39.64124587930506 -51.57971451706119,42.14124587930513 -50.90984153598642,44.641245879306965 -49.079714517065945,46.47137289823227 -46.579714517065874,47.14124587931363" stroke="#008000" stroke-linecap="round" stroke-linejoin="round"/><polyline fill="none" points="-61.88536548032993,-30.526000627481295 -59.38536548032809,-31.19587360855606 -57.55523846140279,-33.026000627476535 -56.885365480321425,-35.526000627476606 -57.55523846139619,-38.026000627478446 -59.38536548031667,-39.85612764640375 -61.88536548031674,-40.52600062748511 -64.38536548031858,-39.85612764641034 -66.2154924992439,-38.026000627489864 -66.88536548032525,-35.52600062748979 -66.21549249925049,-33.02600062748795 -64.38536548033001,-31.195873608562646 -61.88536548032994,-30.526000627481285" stroke="#ffa500" stroke-linecap="round" stroke-linejoin="round"/><polyline fill="none" points="-60.83383652815659,-12.357694502611622 -58.33383652815475,-13.027567483686385 -56.50370950922944,-14.857694502606861 -55.833836528148076,-17.357694502606932 -56.50370950922284,-19.857694502608773 -58.333836528143316,-21.68782152153408 -60.83383652814339,-22.35769450261544 -63.33383652814523,-21.68782152154068 -65.16396354707054,-19.857694502620205 -65.8338365281519,-17.357694502620134 -65.16396354707715,-14.857694502618294 -63.33383652815667,-13.027567483692984 -60.833836528156596,-12.357694502611619" stroke="#00f" stroke-linecap="round" stroke-linejoin="round"/><polyline fill="none" points="2.036915858227448,-19.27610083062258 4.536915858229289,-19.94597381169734 6.367042877154599,-21.776100830617814 7.0369158582359645,-24.276100830617885 6.367042877161204,-26.776100830619725 4.536915858240729,-28.606227849545036 2.036915858240658,-29.2761008306264 -0.4630841417611822,-28.60622784955164 -2.293211160686493,-26.776100830631165 -2.963084141767859,-24.276100830631094 -2.2932111606931,-21.776100830629254 -0.4630841417726257,-19.945973811703944 2.036915858227445,-19.27610083062258" stroke="#00f" stroke-linecap="round" stroke-linejoin="round"/><polyline fill="none" points="-35.12865770767446,-16.56679797130814 -32.62865770767262,-17.236670952382898 -30.798530688747313,-19.066797971303373 -30.128657707665944,-21.566797971303444 -30.7985306887407,-24.066797971305284 -32.628657707661176,-25.8969249902306 -35.12865770766125,-26.566797971311967 -37.62865770766309,-25.89692499023721 -39.4587847265884,-24.06679797131674 -40.12865770766977,-21.566797971316667 -39.45878472659501,-19.066797971314823 -37.62865770767454,-17.23667095238951 -35.12865770767447,-16.56679797130814" stroke="#00f" stroke-linecap="round" stroke-linejoin="round"/><polyline fill="none" points="-125.15549358468157,31.222109022777417 -122.65549358467972,30.55223604170266 -120.82536656575441,28.72210902278219 -120.15549358467304,26.222109022782117 -120.8253665657478,23.722109022780273 -122.65549358466828,21.891982003854956 -125.15549358466835,21.222109022773584 -127.6554935846702,21.891982003848337 -129.48562060359552,23.72210902276881 -130.1554935846769,26.22210902276888 -129.48562060360214,28.722109022770724 -127.65549358468166,30.55223604169604 -125.1554935846816,31.222109022777413" stroke="#ffa500" stroke-linecap="round" stroke-linejoin="round"/><polyline fill="none" points="-17.045926003323178,-1.3933830586563882 -14.545926003321334,-2.063256039731142 -12.715798984396017,-3.893383058651613 -12.045926003314642,-6.3933830586516835 -12.715798984389396,-8.893383058653528 -14.545926003309866,-10.723510077578846 -17.045926003309937,-11.39338305866022 -19.54592600331178,-10.723510077585468 -21.376053022237098,-8.893383058664998 -22.045926003318474,-6.393383058664927 -21.376053022243724,-3.893383058663082 -19.545926003323252,-2.0632560397377633 -17.04592600332318,-1.3933830586563878" stroke="#008000" stroke-linecap="round" stroke-linejoin="round"/><polyline fill="none" points="-107.85387078563285,11.139408943119196 -105.353870785631,10.469535962044445 -103.52374376670568,8.639408943123975 -102.8538707856243,6.139408943123904 -103.52374376669904,3.639408943122058 -105.3538707856195,1.8092819241967382 -107.85387078561958,1.1394089431153613 -110.35387078562142,1.8092819241901112 -112.18399780454675,3.6394089431105803 -112.85387078562813,6.13940894311065 -112.18399780455339,8.639408943112496 -110.35387078563292,10.469535962037817 -107.85387078563285,11.139408943119195" stroke="#ffa500" stroke-linecap="round" stroke-linejoin="round"/><polyline fill="none" points="-89.01460427536459,-46.42775677926323 -86.51460427536274,-47.09762976033797 -84.68447725643742,-48.927756779258445 -84.01460427535604,-51.427756779258516 -84.68447725643078,-53.92775677926036 -86.51460427535125,-55.75788379818569 -89.01460427535132,-56.42775677926707 -91.51460427535316,-55.757883798192324 -93.34473129427849,-53.92775677927186 -94.01460427535987,-51.42775677927179 -93.34473129428513,-48.92775677926994 -91.51460427536466,-47.09762976034462 -89.01460427536459,-46.427756779263234" stroke="#ffa500" stroke-linecap="round" stroke-linejoin="round"/><polyline fill="none" points="-136.53961870728716,2.8512349602822615 -134.0396187072853,2.181361979207515 -132.20949168836,0.3512349602870479 -131.53961870727863,-2.1487650397130227 -132.20949168835338,-4.648765039714871 -134.03961870727386,-6.478892058640197 -136.53961870727392,-7.148765039721579 -139.03961870727576,-6.478892058646833 -140.8697457262011,-4.648765039726367 -141.53961870728247,-2.1487650397262965 -140.86974572620773,0.35123496027555223 -139.03961870728725,2.1813619792008776 -136.5396187072872,2.851234960282261" stroke="#ffa500" stroke-linecap="round" stroke-linejoin="round"/><polyline fill="none" points="-91.43413076413194,-43.445234842770006 -88.93413076413009,-44.11510782384475 -87.10400374520476,-45.94523484276522 -86.43413076412338,-48.44523484276529 -87.10400374519813,-50.945234842767135 -88.93413076411859,-52.77536186169246 -91.43413076411866,-53.44523484277384 -93.93413076412051,-52.775361861699096 -95.76425778304584,-50.94523484277863 -96.43413076412722,-48.44523484277856 -95.76425778305247,-45.94523484277671 -93.93413076413201,-44.11510782385138 -91.43413076413194,-43.44523484277" stroke="#ffa500" stroke-linecap="round" stroke-linejoin="round"/><polyline fill="none" points="-129.7814120740854,-42.16851101527537 -127.28141207408356,-42.83838399635011 -125.45128505515824,-44.668511015270575 -124.78141207407685,-47.168511015270646 -125.4512850551516,-49.6685110152725 -127.28141207407207,-51.49863803419783 -129.78141207407214,-52.16851101527922 -132.28141207407398,-51.49863803420448 -134.11153909299932,-49.66851101528402 -134.78141207408072,-47.16851101528395 -134.11153909300597,-44.66851101528209 -132.28141207408552,-42.83838399635676 -129.78141207408547,-42.16851101527537" stroke="#ffa500" stroke-linecap="round" stroke-linejoin="round"/><polyline fill="none" points="47.09390125089498,-12.948070513972329 49.593901250896835,-13.617943495047069 51.424028269822166,-15.448070513967531 52.093901250903556,-17.9480705139676 51.42402826982882,-20.448070513969455 49.59390125090835,-22.278197532894787 47.09390125090828,-22.948070513976177 44.59390125090643,-22.278197532901437 42.763774231981095,-20.448070513980976 42.093901250899705,-17.948070513980905 42.763774231974445,-15.44807051397905 44.59390125089491,-13.617943495053717 47.09390125089498,-12.948070513972326" stroke="#00f" stroke-linecap="round" stroke-linejoin="round"/><polyline fill="none" points="24.197749329914668,-47.075605963337345 26.697749329916522,-47.745478944412085 28.527876348841858,-49.57560596333255 29.19774932992325,-52.07560596333262 28.527876348848515,-54.575605963334475 26.697749329928055,-56.405732982259806 24.197749329927984,-57.075605963341204 21.69774932992613,-56.40573298226647 19.867622311000794,-54.575605963346014 19.1977493299194,-52.07560596334594 19.867622310994136,-49.57560596334409 21.697749329914597,-47.74547894441875 24.197749329914668,-47.07560596333735" stroke="#00f" stroke-linecap="round" stroke-linejoin="round"/><polyline fill="none" points="-52.146770863747804,-31.101032604602864 -49.64677086374595,-31.770905585677596 -47.81664384482061,-33.60103260459805 -47.146770863739214,-36.101032604598124 -47.816643844813946,-38.60103260459998 -49.6467708637344,-40.43115962352532 -52.146770863734474,-41.101032604606715 -54.64677086373633,-40.43115962353198 -56.47689788266167,-38.601032604611525 -57.146770863743065,-36.101032604611454 -56.47689788266833,-33.6010326046096 -54.646770863747875,-31.77090558568426 -52.146770863747804,-31.101032604602864" stroke="#00f" stroke-linecap="round" stroke-linejoin="round"/><polyline fill="none" points="-2.41462738645076,-49.119452462273784 0.0853726135510966,-49.78932544334852 1.9154996324764357,-51.619452462268974 2.5853726135578343,-54.119452462269045 1.9154996324831033,-56.6194524622709 0.08537261356264536,-58.44957948119624 -2.4146273864374246,-59.119452462277636 -4.914627386439282,-58.4495794812029 -6.744754405364622,-56.619452462282446 -7.414627386446022,-54.119452462282375 -6.7447544053712924,-51.61945246228052 -4.914627386450835,-49.78932544335518 -2.4146273864507646,-49.11945246227378" stroke="#00f" stroke-linecap="round" stroke-linejoin="round"/><polyline fill="none" points="-87.56854091596192,-78.77369670125296 -85.06854091596006,-79.44356968232769 -83.23841389703472,-81.27369670124814 -82.56854091595332,-83.77369670124821 -83.23841389702805,-86.27369670125007 -85.0685409159485,-88.10382372017541 -87.56854091594857,-88.77369670125681 -90.06854091595044,-88.10382372018208 -91.89866793487577,-86.27369670126163 -92.56854091595717,-83.77369670126156 -91.89866793488244,-81.2736967012597 -90.06854091596199,-79.44356968233436 -87.56854091596192,-78.77369670125296" stroke="#ffa500" stroke-linecap="round" stroke-linejoin="round"/><polyline fill="none" points="-104.94243968674648,-49.6625305101351 -102.44243968674462,-50.332403491209824 -100.61231266781928,-52.16253051013028 -99.94243968673788,-54.66253051013035 -100.61231266781262,-57.162530510132214 -102.44243968673307,-58.99265752905756 -104.94243968673314,-59.662530510138964 -107.442439686735,-58.99265752906424 -109.27256670566034,-57.16253051014378 -109.94243968674175,-54.66253051014371 -109.27256670566703,-52.16253051014185 -107.44243968674658,-50.3324034912165 -104.94243968674651,-49.6625305101351" stroke="#ffa500" stroke-linecap="round" stroke-linejoin="round"/><polyline fill="none" points="37.4388322167357,-15.32336334566325 39.93883221673756,-15.993236326737973 41.768959235662905,-17.82336334565843 42.43883221674431,-20.3233633456585 41.768959235669584,-22.82336334566036 39.938832216749134,-24.653490364585707 37.43883221674906,-25.323363345667115 34.9388322167472,-24.653490364592393 33.108705197821855,-22.82336334567194 32.438832216740444,-20.32336334567187 33.10870519781517,-17.823363345670007 34.93883221673562,-15.993236326744658 37.43883221673569,-15.323363345663248" stroke="#00f" stroke-linecap="round" stroke-linejoin="round"/><polyline fill="none" points="-42.72786946837372,1.125427869666371 -40.22786946837186,0.4555548885916497 -38.397742449446504,-1.374572130328803 -37.72786946836509,-3.8745721303288736 -38.39774244943981,-6.374572130330737 -40.22786946836026,-8.204699149256086 -42.72786946836033,-8.874572130337498 -45.227869468362194,-8.204699149262778 -47.05799648728755,-6.374572130342326 -47.72786946836896,-3.8745721303422553 -47.05799648729424,-1.3745721303403915 -45.22786946837379,0.4555548885849596 -42.72786946837372,1.1254278696663724" stroke="#008000" stroke-linecap="round" stroke-linejoin="round"/><polyline fill="none" points="-58.33260658345534,-95.46570276786392 -55.832606583453476,-96.13557574893863 -54.00247956452812,-97.96570276785909 -53.33260658344671,-100.46570276785916 -54.00247956452143,-102.96570276786102 -55.83260658344188,-104.79582978678637 -58.33260658344195,-105.46570276786778 -60.83260658344381,-104.79582978679306 -62.662733602369165,-102.96570276787261 -63.33260658345058,-100.46570276787254 -62.66273360237586,-97.96570276787068 -60.83260658345541,-96.13557574894533 -58.33260658345534,-95.46570276786392" stroke="#ffa500" stroke-linecap="round" stroke-linejoin="round"/><polyline fill="none" points="-43.690449611419815,-119.90940366342072 -41.19044961141795,-120.57927664449544 -39.360322592492594,-122.40940366341589 -38.690449611411175,-124.90940366341596 -39.36032259248589,-127.40940366341782 -41.19044961140634,-129.23953068234317 -43.690449611406414,-129.9094036634246 -46.19044961140828,-129.23953068234988 -48.020576630333636,-127.40940366342943 -48.690449611415055,-124.90940366342936 -48.020576630340344,-122.4094036634275 -46.19044961141989,-120.57927664450214 -43.69044961141982,-119.90940366342073" stroke="#ffa500" stroke-linecap="round" stroke-linejoin="round"/><polyline fill="none" points="-51.367744076876086,-6.41441579574969 -48.86774407687422,-7.084288776824404 -47.03761705794886,-8.914415795744851 -46.36774407686744,-11.414415795744922 -47.03761705794215,-13.91441579574679 -48.8677440768626,-15.744542814672148 -51.36774407686267,-16.414415795753566 -53.86774407686454,-15.744542814678853 -55.6978710957899,-13.914415795758405 -56.36774407687132,-11.414415795758334 -55.69787109579661,-8.914415795756465 -53.86774407687616,-7.084288776831107 -51.367744076876086,-6.414415795749686" stroke="#00f" stroke-linecap="round" stroke-linejoin="round"/><polyline fill="none" points="34.40712467507588,-31.844492995215163 36.907124675077746,-32.514365976289874 38.737251694003106,-34.344492995210324 39.40712467508453,-36.844492995210395 38.73725169400982,-39.34449299521226 36.90712467508938,-41.17462001413762 34.40712467508931,-41.84449299521905 31.907124675087438,-41.17462001414434 30.076997656162078,-39.344492995223895 29.407124675080656,-36.844492995223824 30.076997656155367,-34.344492995221955 31.907124675075814,-32.514365976296595 34.407124675075885,-31.84449299521517" stroke="#00f" stroke-linecap="round" stroke-linejoin="round"/><polyline fill="none" points="-42.79798208014366,-109.83425269697894 -40.29798208014179,-110.50412567805364 -38.46785506121643,-112.33425269697409 -37.79798208013501,-114.83425269697416 -38.46785506120972,-117.33425269697604 -40.29798208013016,-119.1643797159014 -42.79798208013023,-119.83425269698283 -45.2979820801321,-119.16437971590813 -47.12810909905746,-117.33425269698768 -47.79798208013889,-114.8342526969876 -47.12810909906418,-112.33425269698573 -45.29798208014374,-110.50412567806036 -42.79798208014367,-109.83425269697894" stroke="#ffa500" stroke-linecap="round" stroke-linejoin="round"/><polyline fill="none" points="-61.68596471458017,-81.86578296526511 -59.185964714578304,-82.53565594633982 -57.35583769565294,-84.36578296526027 -56.68596471457151,-86.86578296526034 -57.355837695646215,-89.36578296526221 -59.18596471456666,-91.19590998418758 -61.68596471456673,-91.865782965269 -64.1859647145686,-91.1959099841943 -66.01609173349397,-89.36578296527385 -66.68596471457539,-86.86578296527378 -66.01609173350069,-84.3657829652719 -64.18596471458025,-82.53565594634654 -61.68596471458018,-81.86578296526511" stroke="#ffa500" stroke-linecap="round" stroke-linejoin="round"/><polyline fill="none" points="-39.89355915609999,25.250968095976322 -37.393559156098114,24.58109511490162 -35.56343213717275,22.750968095981175 -34.893559156091314,20.250968095981104 -35.56343213716602,17.750968095979232 -37.39355915608646,15.920841077053865 -39.89355915608653,15.250968095972434 -42.39355915608841,15.920841077047136 -44.223686175013775,17.75096809596758 -44.89355915609521,20.25096809596765 -44.223686175020504,22.750968095969526 -42.39355915610006,24.581095114894893 -39.89355915609999,25.250968095976326" stroke="#008000" stroke-linecap="round" stroke-linejoin="round"/><polyline fill="none" points="-53.59111565804855,-98.82840183460937 -51.091115658046675,-99.49827481568407 -49.26098863912131,-101.3284018346045 -48.591115658039875,-103.82840183460458 -49.26098863911458,-106.32840183460645 -51.09111565803502,-108.15852885353182 -53.59111565803509,-108.82840183461326 -56.09111565803697,-108.15852885353856 -57.921242676962336,-106.32840183461812 -58.59111565804377,-103.82840183461805 -57.92124267696907,-101.32840183461617 -56.09111565804863,-99.4982748156908 -53.59111565804856,-98.82840183460937" stroke="#ffa500" stroke-linecap="round" stroke-linejoin="round"/><polyline fill="none" points="-69.98987964915248,-112.74299986329375 -67.48987964915061,-113.41287284436845 -65.65975263022524,-115.24299986328889 -64.9898796491438,-117.74299986328896 -65.6597526302185,-120.24299986329083 -67.48987964913894,-122.0731268822162 -69.98987964913901,-122.74299986329764 -72.48987964914089,-122.07312688222294 -74.32000666806626,-120.2429998633025 -74.9898796491477,-117.74299986330243 -74.32000666807299,-115.24299986330055 -72.48987964915256,-113.41287284437519 -69.98987964915248,-112.74299986329375" stroke="#ffa500" stroke-linecap="round" stroke-linejoin="round"/><polyline fill="none" points="-33.650485812118895,36.930518299213716 -31.15048581211702,36.26064531813902 -29.320358793191645,34.43051829921858 -28.650485812110205,31.930518299218512 -29.3203587931849,29.430518299216637 -31.15048581210534,27.600391280291262 -33.65048581210541,26.930518299209822 -36.150485812107284,27.60039128028452 -37.98061283103266,29.430518299204955 -38.6504858121141,31.930518299205026 -37.9806128310394,34.4305182992069 -36.150485812118966,36.260645318132276 -33.650485812118895,36.930518299213716" stroke="#00f" stroke-linecap="round" stroke-linejoin="round"/><polyline fill="none" points="-36.34432128236759,-86.31500864569266 -33.84432128236571,-86.98488162676735 -32.01419426344034,-88.81500864568778 -31.344321282358898,-91.31500864568785 -32.014194263433595,-93.81500864568973 -33.84432128235403,-95.64513566461511 -36.3443212823541,-96.31500864569655 -38.84432128235598,-95.64513566462186 -40.67444830128135,-93.81500864570143 -41.34432128236279,-91.31500864570135 -40.6744483012881,-88.81500864569948 -38.844321282367666,-86.9848816267741 -36.344321282367595,-86.31500864569266" stroke="#ffa500" stroke-linecap="round" stroke-linejoin="round"/><polyline fill="none" points="-35.46732598917499,-91.40468115929416 -32.967325989173105,-92.07455414036885 -31.137198970247727,-93.90468115928928 -30.467325989166284,-96.40468115928935 -31.137198970240973,-98.90468115929123 -32.96732598916141,-100.73480817821661 -35.46732598916148,-101.40468115929805 -37.96732598916336,-100.73480817822336 -39.797453008088745,-98.90468115930292 -40.46732598917019,-96.40468115930285 -39.7974530080955,-93.90468115930098 -37.967325989175066,-92.0745541403756 -35.467325989174995,-91.40468115929416" stroke="#ffa500" stroke-linecap="round" stroke-linejoin="round"/></svg>