<?xml version="1.0" ?><!DOCTYPE svg  PUBLIC '-//W3C//DTD SVG 1.1//EN'  'http://www.w3.org/Graphics/SVG/1.1/DTD/svg11.dtd'><svg height="280.000" viewBox="-291.000 -173.000 621.000 280.000" width="621.000" xmlns="http://www.w3.org/2000/svg"><line fill="none" stroke="none" stroke-linecap="round" stroke-width="2.0" x1="0.0" x2="0.0" y1="0.0" y2="0.0"/><polygon fill="none" fill-rule="evenodd" points="0.0,0.0 0.0,0.0 0.0,0.0" stroke-linejoin="round"/><polyline fill="none" points="-248.7476378623935,-94.51204399260531 -246.2476378623757,-95.18191697365349 -244.4175108434233,-97.0120439925589 -243.7476378623109,-99.51204399255948 -244.41751084335908,-102.01204399257728 -246.2476378622645,-103.8421710115297 -248.7476378622651,-104.51204399264208 -251.2476378622829,-103.8421710115939 -253.0777648812353,-102.01204399268849 -253.7476378623477,-99.51204399268791 -253.07776488129952,-97.01204399267012 -251.2476378623941,-95.18191697371769 -248.7476378623935,-94.51204399260531" stroke="#00f" stroke-linecap="round" stroke-linejoin="round"/><polyline fill="none" points="-245.73039238915268,-106.9689991693047 -243.2303923891349,-107.63887215035285 -241.40026537018247,-109.46899916925827 -240.7303923890701,-111.96899916925886 -241.40026537011826,-114.46899916927666 -243.23039238902368,-116.29912618822908 -245.73039238902427,-116.96899916934146 -248.23039238904207,-116.2991261882933 -250.0605194079945,-114.46899916938789 -250.73039238910687,-111.9689991693873 -250.0605194080587,-109.46899916936951 -248.23039238915328,-107.63887215041709 -245.73039238915268,-106.96899916930471" stroke="#008000" stroke-linecap="round" stroke-linejoin="round"/><polyline fill="none" points="-178.42881883678209,-97.17194807678817 -175.9288188367643,-97.84182105783633 -174.09869181781187,-99.67194807674174 -173.4288188366995,-102.17194807674232 -174.09869181774766,-104.67194807676012 -175.92881883665308,-106.50207509571254 -178.42881883665368,-107.17194807682492 -180.92881883667147,-106.50207509577676 -182.7589458556239,-104.67194807687135 -183.42881883673627,-102.17194807687076 -182.7589458556881,-99.67194807685297 -180.92881883678268,-97.84182105790055 -178.42881883678209,-97.17194807678817" stroke="#ffa500" stroke-linecap="round" stroke-linejoin="round"/><polyline fill="none" points="-241.87183366835103,-110.56365628495767 -239.37183366833324,-111.23352926600583 -237.5417066493808,-113.06365628491125 -236.87183366826844,-115.56365628491183 -237.5417066493166,-118.06365628492962 -239.37183366822202,-119.89378330388205 -241.87183366822262,-120.56365628499442 -244.3718336682404,-119.89378330394626 -246.20196068719284,-118.06365628504085 -246.87183366830521,-115.56365628504027 -246.20196068725704,-113.06365628502247 -244.37183366835163,-111.23352926607005 -241.87183366835103,-110.56365628495767" stroke="#008000" stroke-linecap="round" stroke-linejoin="round"/><polyline fill="none" points="-255.70893283267333,-86.84084429195873 -253.20893283265553,-87.51071727300689 -251.3788058137031,-89.3408442919123 -250.70893283259073,-91.8408442919129 -251.37880581363888,-94.3408442919307 -253.2089328325443,-96.17097131088313 -255.7089328325449,-96.84084429199552 -258.2089328325627,-96.17097131094737 -260.03905985151516,-94.34084429204195 -260.70893283262757,-91.84084429204137 -260.0390598515794,-89.34084429202356 -258.208932832674,-87.51071727307112 -255.7089328326734,-86.84084429195873" stroke="#00f" stroke-linecap="round" stroke-linejoin="round"/><polyline fill="none" points="-254.44219493807998,-134.75382075030794 -251.9421949380622,-135.42369373135608 -250.11206791910976,-137.2538207502615 -249.44219493799739,-139.7538207502621 -250.11206791904553,-142.25382075027989 -251.94219493795094,-144.0839477692323 -254.44219493795154,-144.7538207503447 -256.94219493796936,-144.08394776929654 -258.7723219569218,-142.25382075039113 -259.4421949380342,-139.75382075039053 -258.77232195698605,-137.25382075037274 -256.94219493808066,-135.42369373142031 -254.44219493808006,-134.75382075030794" stroke="#00f" stroke-linecap="round" stroke-linejoin="round"/><polyline fill="none" points="291.29270872690466,-146.07312726565777 293.79270872692246,-146.74300024670592 295.6228357458749,-148.57312726561133 296.2927087269873,-151.07312726561193 295.62283574593914,-153.57312726562972 293.79270872703376,-155.40325428458215 291.2927087270332,-156.07312726569452 288.7927087270154,-155.40325428464638 286.96258170806294,-153.57312726574096 286.29270872695054,-151.07312726574037 286.9625817079987,-148.57312726572258 288.7927087269041,-146.74300024677015 291.29270872690466,-146.07312726565777" stroke="#ffa500" stroke-linecap="round" stroke-linejoin="round"/><polyline fill="none" points="-275.2016162689746,-114.15465214304601 -272.7016162689568,-114.82452512409415 -270.87148925000434,-116.65465214299957 -270.20161626889194,-119.15465214300015 -270.8714892499401,-121.65465214301796 -272.7016162688455,-123.4847791619704 -275.20161626884607,-124.15465214308279 -277.70161626886386,-123.48477916203464 -279.5317432878163,-121.65465214312923 -280.2016162689287,-119.15465214312864 -279.53174328788054,-116.65465214311084 -277.70161626897516,-114.8245251241584 -275.2016162689746,-114.15465214304601" stroke="#00f" stroke-linecap="round" stroke-linejoin="round"/><polyline fill="none" points="71.88931013092642,-6.7596221049858 74.38931013094422,-7.429495086033947 76.21943714989666,-9.259622104939357 76.88931013100905,-11.759622104939947 76.21943714996091,-14.259622104957751 74.3893101310555,-16.089749123910195 71.88931013105491,-16.75962210502259 69.3893101310371,-16.089749123974443 67.55918311208467,-14.259622105069035 66.88931013097228,-11.759622105068445 67.55918311202042,-9.259622105050639 69.38931013092584,-7.4294950860981945 71.88931013092642,-6.759622104985797" stroke="#ffa500" stroke-linecap="round" stroke-linejoin="round"/><polyline fill="none" points="313.2736220674746,-152.24545375460582 315.7736220674924,-152.91532673565396 317.60374908644485,-154.74545375455938 318.27362206755726,-157.24545375455997 317.6037490865091,-159.7454537545778 315.7736220676037,-161.57558077353025 313.2736220676031,-162.24545375464265 310.77362206758534,-161.5755807735945 308.9434950486329,-159.7454537546891 308.2736220675205,-157.2454537546885 308.9434950485686,-154.74545375467068 310.773622067474,-152.91532673571822 313.27362206747455,-152.24545375460582" stroke="#00f" stroke-linecap="round" stroke-linejoin="round"/><polyline fill="none" points="-242.66713782374416,-122.32006959284769 -240.16713782372634,-122.98994257389583 -238.33701080477388,-124.82006959280123 -237.66713782366148,-127.32006959280181 -238.33701080470962,-129.82006959281964 -240.16713782361504,-131.6501966117721 -242.66713782361563,-132.3200695928845 -245.16713782363345,-131.65019661183635 -246.9972648425859,-129.82006959293093 -247.6671378236983,-127.32006959293034 -246.99726484265017,-124.82006959291253 -245.16713782374475,-122.98994257396008 -242.66713782374416,-122.32006959284767" stroke="#00f" stroke-linecap="round" stroke-linejoin="round"/><polyline fill="none" points="-172.24712072724884,-51.16660478046274 -169.74712072723102,-51.83647776151088 -167.91699370827857,-53.666604780416286 -167.24712072716616,-56.166604780416876 -167.9169937082143,-58.66660478043468 -169.74712072711972,-60.496731799387135 -172.24712072712032,-61.16660478049954 -174.74712072713814,-60.4967317994514 -176.5772477460906,-58.666604780545995 -177.247120727203,-56.166604780545406 -176.57724774615485,-53.66660478052759 -174.74712072724944,-51.83647776157514 -172.24712072724884,-51.166604780462734" stroke="#00f" stroke-linecap="round" stroke-linejoin="round"/><polyline fill="none" points="-198.32880844644262,-108.647925215056 -195.8288084464248,-109.31779819610415 -193.99868142747235,-111.14792521500955 -193.32880844635994,-113.64792521501013 -193.9986814274081,-116.14792521502794 -195.8288084463135,-117.97805223398039 -198.3288084463141,-118.6479252150928 -200.82880844633192,-117.97805223404467 -202.65893546528437,-116.14792521513927 -203.32880844639678,-113.64792521513868 -202.65893546534863,-111.14792521512088 -200.82880844644322,-109.31779819616843 -198.32880844644262,-108.64792521505602" stroke="#ffa500" stroke-linecap="round" stroke-linejoin="round"/><polyline fill="none" points="-179.3756374538395,4.49930782721307 -176.87563745382167,3.8294348461649346 -175.04551043486921,1.9993078272595317 -174.3756374537568,-0.500692172741058 -175.04551043480495,-3.0006921727588702 -176.87563745371037,-4.830819191711326 -179.37563745371097,-5.500692172823736 -181.87563745372879,-4.830819191775602 -183.70576447268124,-3.0006921728701994 -184.37563745379364,-0.5006921728696101 -183.7057644727455,1.9993078271482019 -181.87563745384008,3.8294348461006575 -179.3756374538395,4.499307827213069" stroke="#ffa500" stroke-linecap="round" stroke-linejoin="round"/><polyline fill="none" points="-183.73759445027812,-74.85271677849312 -181.2375944502603,-75.52258975954125 -179.40746743130785,-77.35271677844665 -178.73759445019545,-79.85271677844723 -179.4074674312436,-82.35271677846504 -181.237594450149,-84.18284379741749 -183.7375944501496,-84.8527167785299 -186.23759445016742,-84.18284379748177 -188.06772146911987,-82.35271677857637 -188.73759445023228,-79.85271677857578 -188.06772146918414,-77.35271677855796 -186.23759445027875,-75.52258975960551 -183.73759445027815,-74.85271677849309" stroke="#ffa500" stroke-linecap="round" stroke-linejoin="round"/><polyline fill="none" points="-247.2002354306298,-132.3793255740019 -244.70023543061197,-133.04919855505005 -242.87010841165952,-134.87932557395544 -242.2002354305471,-137.37932557395604 -242.87010841159525,-139.87932557397386 -244.70023543050064,-141.7094525929263 -247.20023543050124,-142.37932557403872 -249.70023543051906,-141.7094525929906 -251.5303624494715,-139.87932557408521 -252.20023543058392,-137.37932557408462 -251.5303624495358,-134.8793255740668 -249.7002354306304,-133.04919855511434 -247.20023543062982,-132.37932557400194" stroke="#00f" stroke-linecap="round" stroke-linejoin="round"/><polyline fill="none" points="-217.8414746725215,-85.14623837255016 -215.3414746725037,-85.81611135359829 -213.51134765355124,-87.64623837250369 -212.84147467243884,-90.14623837250427 -213.51134765348695,-92.64623837252209 -215.34147467239234,-94.47636539147456 -217.84147467239293,-95.14623837258698 -220.34147467241075,-94.47636539153885 -222.1716016913632,-92.64623837263345 -222.8414746724756,-90.14623837263287 -222.1716016914275,-87.64623837261504 -220.3414746725221,-85.81611135366258 -217.8414746725215,-85.14623837255016" stroke="#00f" stroke-linecap="round" stroke-linejoin="round"/><polyline fill="none" points="-202.29149184668296,13.957506585051961 -199.79149184666514,13.287633604003835 -197.96136482771269,11.457506585098438 -197.29149184660025,8.957506585097848 -197.96136482764837,6.45750658508003 -199.79149184655375,4.627379566127566 -202.29149184655435,3.9575065850151443 -204.79149184657217,4.627379566063269 -206.62161886552462,6.457506584968665 -207.29149184663706,8.957506584969256 -206.62161886558894,11.457506584987074 -204.79149184668356,13.28763360393954 -202.29149184668296,13.957506585051963" stroke="#ffa500" stroke-linecap="round" stroke-linejoin="round"/><polyline fill="none" points="-254.40632701479987,-136.52443648615386 -251.90632701478205,-137.19430946720198 -250.0761999958296,-139.02443648610736 -249.40632701471716,-141.52443648610796 -250.07619999576528,-144.02443648612578 -251.90632701467067,-145.85456350507826 -254.40632701467126,-146.5244364861907 -256.90632701468905,-145.85456350514258 -258.7364540336415,-144.0244364862372 -259.4063270147539,-141.5244364862366 -258.7364540337058,-139.02443648621878 -256.9063270148004,-137.1943094672663 -254.4063270147998,-136.52443648615386" stroke="#00f" stroke-linecap="round" stroke-linejoin="round"/><polyline fill="none" points="48.35350457142353,-15.34217655326799 50.85350457144135,-16.012049534316112 52.683631590393816,-17.842176553221506 53.35350457150624,-20.342176553222096 52.68363159045812,-22.842176553239916 50.853504571552726,-24.672303572192387 48.353504571552136,-25.342176553304814 45.853504571534316,-24.672303572256695 44.02337755258185,-22.8421765533513 43.35350457146942,-20.34217655335071 44.023377552517545,-17.84217655333289 45.85350457142294,-16.01204953438042 48.35350457142353,-15.342176553267992" stroke="#00f" stroke-linecap="round" stroke-linejoin="round"/><polyline fill="none" points="-172.8740995128063,-70.01785984837511 -170.3740995127885,-70.68773282942323 -168.543972493836,-72.51785984832861 -167.87409951272357,-75.01785984832921 -168.5439724937717,-77.51785984834703 -170.37409951267708,-79.3479868672995 -172.87409951267767,-80.01785984841193 -175.3740995126955,-79.34798686736382 -177.20422653164798,-77.51785984845843 -177.8740995127604,-75.01785984845783 -177.2042265317123,-72.51785984844001 -175.3740995128069,-70.68773282948754 -172.8740995128063,-70.01785984837511" stroke="#ffa500" stroke-linecap="round" stroke-linejoin="round"/><polyline fill="none" points="-265.92329374575934,-118.18706053175445 -263.4232937457415,-118.85693351280257 -261.59316672678904,-120.68706053170796 -260.92329374567663,-123.18706053170855 -261.59316672672475,-125.68706053172637 -263.42329374563013,-127.51718755067886 -265.9232937456307,-128.18706053179127 -268.42329374564855,-127.51718755074316 -270.253420764601,-125.68706053183777 -270.9232937457134,-123.18706053183718 -270.2534207646653,-120.68706053181936 -268.4232937457599,-118.85693351286687 -265.92329374575934,-118.18706053175444" stroke="#ffa500" stroke-linecap="round" stroke-linejoin="round"/><polyline fill="none" points="-112.06214827278941,-65.30854524231566 -109.5621482727716,-65.97841822336378 -107.73202125381911,-67.80854524226916 -107.06214827270668,-70.30854524226976 -107.7320212537548,-72.80854524228758 -109.56214827266018,-74.63867226124006 -112.06214827266078,-75.3085452423525 -114.5621482726786,-74.63867226130438 -116.39227529163108,-72.80854524239899 -117.06214827274351,-70.3085452423984 -116.3922752916954,-67.80854524238057 -114.56214827279001,-65.9784182234281 -112.06214827278941,-65.30854524231566" stroke="#ffa500" stroke-linecap="round" stroke-linejoin="round"/><polyline fill="none" points="-246.02478798808022,-96.59125956408467 -243.5247879880624,-97.26113254513278 -241.69466096910992,-99.09125956403817 -241.02478798799748,-101.59125956403877 -241.6946609690456,-104.0912595640566 -243.524787987951,-105.92138658300908 -246.02478798795158,-106.59125956412151 -248.5247879879694,-105.9213865830734 -250.35491500692189,-104.09125956416801 -251.02478798803432,-101.59125956416742 -250.3549150069862,-99.09125956414958 -248.52478798808082,-97.2611325451971 -246.02478798808022,-96.59125956408467" stroke="#00f" stroke-linecap="round" stroke-linejoin="round"/><polyline fill="none" points="-123.18525253704213,81.14381657848001 -120.6852525370243,80.4739435974319 -118.85512551807182,78.64381657852651 -118.18525253695937,76.14381657852591 -118.85512551800747,73.64381657850808 -120.68525253691286,71.8136895595556 -123.18525253691345,71.14381657844315 -125.68525253693129,71.81368955949125 -127.51537955588377,73.64381657839664 -128.18525253699622,76.14381657839724 -127.51537955594812,78.64381657841507 -125.68525253704273,80.47394359736755 -123.18525253704213,81.14381657848" stroke="#ffa500" stroke-linecap="round" stroke-linejoin="round"/><polyline fill="none" points="-153.50336117692947,-60.377198785016574 -151.00336117691165,-61.04707176606468 -149.17323415795917,-62.87719878497007 -148.50336117684674,-65.37719878497066 -149.17323415789485,-67.8771987849885 -151.00336117680024,-69.70732580394098 -153.50336117680084,-70.37719878505342 -156.00336117681866,-69.70732580400532 -157.83348819577114,-67.87719878509994 -158.50336117688357,-65.37719878509934 -157.83348819583546,-62.87719878508151 -156.00336117693007,-61.04707176612902 -153.50336117692947,-60.377198785016574" stroke="#ffa500" stroke-linecap="round" stroke-linejoin="round"/><polyline fill="none" points="294.11319931665133,-151.25740287583832 296.6131993166692,-151.92727585688644 298.4433263356217,-153.75740287579183 299.11319931673415,-156.25740287579242 298.44332633568604,-158.75740287581024 296.61319931678065,-160.58752989476272 294.1131993167801,-161.25740287587516 291.61319931676223,-160.58752989482704 289.7830722978097,-158.75740287592166 289.11319931669726,-156.25740287592106 289.7830722977454,-153.75740287590324 291.61319931665076,-151.92727585695076 294.11319931665133,-151.2574028758383" stroke="#ffa500" stroke-linecap="round" stroke-linejoin="round"/><polyline fill="none" points="-195.41411111679437,-106.86998630370866 -192.91411111677655,-107.53985928475676 -191.08398409782407,-109.36998630366215 -190.4141111167116,-111.86998630366274 -191.0839840977597,-114.36998630368058 -192.91411111666508,-116.20011332263307 -195.41411111666568,-116.86998630374552 -197.9141111166835,-116.20011332269742 -199.74423813563598,-114.36998630379203 -200.41411111674844,-111.86998630379144 -199.74423813570036,-109.3699863037736 -197.91411111679497,-107.5398592848211 -195.41411111679437,-106.86998630370866" stroke="#ffa500" stroke-linecap="round" stroke-linejoin="round"/><polyline fill="none" points="-134.9613120283249,-3.3100786833762132 -132.46131202830708,-3.979951664424312 -130.6311850093546,-5.810078683329694 -129.96131202824213,-8.310078683330284 -130.63118500929022,-10.810078683348118 -132.4613120281956,-12.64020570230061 -134.9613120281962,-13.310078683413064 -137.46131202821402,-12.640205702364966 -139.2914390471665,-10.810078683459585 -139.96131202827897,-8.310078683458995 -139.29143904723088,-5.81007868344116 -137.4613120283255,-3.9799516644886666 -134.9613120283249,-3.3100786833762124" stroke="#ffa500" stroke-linecap="round" stroke-linejoin="round"/><polyline fill="none" points="-209.17647109153862,-75.84933661020943 -206.67647109152077,-76.51920959125754 -204.8463440725683,-78.34933661016292 -204.17647109145582,-80.84933661016352 -204.8463440725039,-83.34933661018135 -206.6764710914093,-85.17946362913385 -209.1764710914099,-85.84933661024631 -211.67647109142774,-85.17946362919821 -213.50659811038022,-83.34933661029282 -214.1764710914927,-80.84933661029223 -213.5065981104446,-78.34933661027439 -211.6764710915392,-76.5192095913219 -209.17647109153862,-75.84933661020943" stroke="#ffa500" stroke-linecap="round" stroke-linejoin="round"/><polyline fill="none" points="-109.59831935883356,-58.08761112781204 -107.09831935881573,-58.75748410886013 -105.26819233986323,-60.58761112776551 -104.59831935875077,-63.0876111277661 -105.26819233979886,-65.58761112778394 -107.09831935870425,-67.41773814673644 -109.59831935870484,-68.0876111278489 -112.09831935872268,-67.41773814680082 -113.92844637767517,-65.58761112789544 -114.59831935878763,-63.08761112789485 -113.92844637773955,-60.58761112787701 -112.09831935883417,-58.757484108924515 -109.59831935883358,-58.08761112781205" stroke="#ffa500" stroke-linecap="round" stroke-linejoin="round"/><polyline fill="none" points="-160.60791044853576,-81.35948878313675 -158.1079104485179,-82.02936176418484 -156.2777834295654,-83.85948878309021 -155.60791044845294,-86.35948878309081 -156.27778342950103,-88.85948878310865 -158.10791044840641,-90.68961580206114 -160.607910448407,-91.3594887831736 -163.10791044842486,-90.68961580212552 -164.93803746737737,-88.85948878322014 -165.60791044848983,-86.35948878321955 -164.93803746744175,-83.85948878320171 -163.10791044853636,-82.02936176424922 -160.60791044853576,-81.35948878313675" stroke="#00f" stroke-linecap="round" stroke-linejoin="round"/><polyline fill="none" points="-206.1493204396641,8.47466740401591 -203.64932043964626,7.804794422967821 -201.81919342069375,5.974667404062443 -201.1493204395813,3.4746674040618513 -201.81919342062938,0.9746674040440104 -203.64932043953476,-0.8554596149084923 -206.14932043953536,-1.525332596020956 -208.6493204395532,-0.8554596149728673 -210.47944745850572,0.9746674039325101 -211.14932043961818,3.4746674039331022 -210.4794474585701,5.974667403950944 -208.6493204396647,7.8047944229034485 -206.1493204396641,8.474667404015914" stroke="#00f" stroke-linecap="round" stroke-linejoin="round"/><polyline fill="none" points="-89.74511297269837,40.99168535639872 -87.24511297268052,40.32181237535063 -85.414985953728,38.49168535644525 -84.74511297261554,35.99168535644466 -85.41498595366363,33.49168535642682 -87.245112972569,31.661558337474315 -89.7451129725696,30.99168535636185 -92.24511297258745,31.661558337409936 -94.07523999153996,33.491685356315315 -94.74511297265242,35.991685356315905 -94.07523999160433,38.49168535633375 -92.24511297269896,40.32181237528625 -89.74511297269837,40.99168535639872" stroke="#ffa500" stroke-linecap="round" stroke-linejoin="round"/><polyline fill="none" points="-81.10340710454378,48.4385061492044 -78.60340710452593,47.76863316815631 -76.77328008557342,45.93850614925094 -76.10340710446096,43.43850614925035 -76.77328008550904,40.93850614923251 -78.60340710441442,39.10837913028 -81.10340710441501,38.43850614916753 -83.60340710443286,39.10837913021562 -85.43353412338537,40.93850614912099 -86.10340710449783,43.43850614912158 -85.43353412344975,45.93850614913942 -83.60340710454437,47.76863316809193 -81.10340710454378,48.4385061492044" stroke="#ffa500" stroke-linecap="round" stroke-linejoin="round"/><polyline fill="none" points="302.5295476839865,-151.00126689281805 305.02954768400434,-151.67113987386614 306.85967470295685,-153.50126689277153 307.5295476840693,-156.00126689277212 306.85967470302126,-158.50126689278997 305.02954768411587,-160.33139391174248 302.5295476841153,-161.00126689285494 300.02954768409745,-160.33139391180686 298.19942066514494,-158.50126689290147 297.5295476840325,-156.00126689290087 298.19942066508054,-153.50126689288302 300.0295476839859,-151.6711398739305 302.5295476839865,-151.00126689281805" stroke="#ffa500" stroke-linecap="round" stroke-linejoin="round"/><polyline fill="none" points="-176.7510859518167,10.531276346494625 -174.25108595179884,9.861403365446543 -172.42095893284633,8.03127634654117 -171.75108595173387,5.531276346540575 -172.42095893278196,3.031276346522727 -174.25108595168734,1.201149327570214 -176.75108595168794,0.5312763464577399 -179.2510859517058,1.2011493275058207 -181.0812129706583,3.031276346411194 -181.75108595177076,5.531276346411788 -181.08121297072267,8.031276346429637 -179.2510859518173,9.861403365382152 -176.7510859518167,10.531276346494629" stroke="#ffa500" stroke-linecap="round" stroke-linejoin="round"/><polyline fill="none" points="57.45567550416673,-6.992254049263938 59.955675504184576,-7.662127030312017 61.78580252313709,-9.49225404921739 62.45567550424957,-11.992254049217983 61.78580252320149,-14.492254049235832 59.95567550429612,-16.32238106818835 57.45567550429553,-16.992254049300826 54.95567550427768,-16.32238106825275 53.12554848532516,-14.492254049347377 52.455675504212685,-11.992254049346784 53.125548485260765,-9.492254049328935 54.95567550416614,-7.662127030376418 57.455675504166734,-6.99225404926394" stroke="#ffa500" stroke-linecap="round" stroke-linejoin="round"/><polyline fill="none" points="302.08239677533953,-138.2026742647013 304.5823967753574,-138.8725472457494 306.4125237943099,-140.70267426465475 307.08239677542235,-143.20267426465534 306.4125237943743,-145.7026742646732 304.5823967754689,-147.5328012836257 302.08239677546834,-148.2026742647382 299.5823967754505,-147.5328012836901 297.752269756498,-145.70267426478475 297.0823967753855,-143.20267426478415 297.7522697564336,-140.7026742647663 299.58239677533896,-138.8725472458138 302.08239677533953,-138.2026742647013" stroke="#ffa500" stroke-linecap="round" stroke-linejoin="round"/><polyline fill="none" points="69.49623858717912,7.4456874918548674 71.99623858719697,6.775814510806793 73.8263656061495,4.945687491901423 74.49623858726197,2.44568749190083 73.8263656062139,-0.05431250811702215 71.99623858730853,-1.8844395270695422 69.49623858730793,-2.554312508182025 66.99623858729008,-1.8844395271339514 65.16611156833756,-0.054312508228582024 64.49623858722508,2.445687491772012 65.16611156827315,4.945687491789864 66.99623858717852,6.775814510742386 69.49623858717912,7.445687491854869" stroke="#ffa500" stroke-linecap="round" stroke-linejoin="round"/><polyline fill="none" points="-82.63468036076186,-66.84136192894503 -80.13468036074401,-67.5112349099931 -78.30455334179149,-69.34136192889848 -77.634680360679,-71.84136192889908 -78.30455334172707,-74.34136192891692 -80.13468036063244,-76.17148894786945 -82.63468036063304,-76.84136192898194 -85.13468036065089,-76.17148894793387 -86.96480737960341,-74.3413619290285 -87.6346803607159,-71.8413619290279 -86.96480737966783,-69.34136192901005 -85.13468036076246,-67.51123491005752 -82.63468036076186,-66.84136192894503" stroke="#ffa500" stroke-linecap="round" stroke-linejoin="round"/><polyline fill="none" points="-222.1618298524674,-110.16866999944644 -219.66182985244956,-110.83854298049451 -217.83170283349705,-112.66866999939988 -217.16182985238456,-115.16866999940048 -217.83170283343262,-117.66866999941833 -219.66182985233797,-119.49879701837085 -222.16182985233857,-120.16866999948334 -224.66182985235642,-119.49879701843527 -226.49195687130896,-117.6686699995299 -227.16182985242145,-115.1686699995293 -226.4919568713734,-112.66866999951145 -224.66182985246803,-110.83854298055893 -222.16182985246743,-110.16866999944644" stroke="#ffa500" stroke-linecap="round" stroke-linejoin="round"/><polyline fill="none" points="-81.49189542190571,-59.49829107777437 -78.99189542188785,-60.168164058822434 -77.16176840293532,-61.9982910777278 -76.49189542182283,-64.4982910777284 -77.1617684028709,-66.99829107774625 -78.99189542177626,-68.82841809669877 -81.49189542177686,-69.49829107781126 -83.99189542179472,-68.82841809676319 -85.82202244074725,-66.99829107785783 -86.49189542185974,-64.49829107785723 -85.82202244081168,-61.998291077839376 -83.99189542190632,-60.168164058886845 -81.49189542190572,-59.498291077774354" stroke="#ffa500" stroke-linecap="round" stroke-linejoin="round"/><polyline fill="none" points="-250.22233411387063,-94.6614056402147 -247.72233411385278,-95.33127862126275 -245.89220709490024,-97.16140564016811 -245.22233411378775,-99.66140564016871 -245.8922070948358,-102.16140564018657 -247.72233411374117,-103.9915326591391 -250.22233411374177,-104.66140564025159 -252.72233411375962,-103.99153265920353 -254.55246113271215,-102.16140564029817 -255.22233411382464,-99.66140564029757 -254.55246113277659,-97.16140564027971 -252.72233411387123,-95.33127862132719 -250.22233411387063,-94.6614056402147" stroke="#008000" stroke-linecap="round" stroke-linejoin="round"/><polyline fill="none" points="-201.79364908497442,-29.281126202407513 -199.29364908495657,-29.950999183455576 -197.46352206600403,-31.781126202360937 -196.79364908489154,-34.281126202361534 -197.4635220659396,-36.78112620237939 -199.29364908484496,-38.61125322133192 -201.79364908484555,-39.28112620244442 -204.2936490848634,-38.61125322139636 -206.12377610381594,-36.781126202490995 -206.79364908492843,-34.2811262024904 -206.12377610388037,-31.78112620247254 -204.29364908497502,-29.950999183520008 -201.79364908497442,-29.28112620240751" stroke="#ffa500" stroke-linecap="round" stroke-linejoin="round"/><polyline fill="none" points="-150.64624375879058,-52.03181419322749 -148.14624375877273,-52.70168717427555 -146.3161167398202,-54.531814193180914 -145.6462437587077,-57.03181419318151 -146.31611673975576,-59.531814193199374 -148.14624375866111,-61.361941212151905 -150.6462437586617,-62.0318141932644 -153.14624375867956,-61.361941212216344 -154.9763707776321,-59.531814193310986 -155.6462437587446,-57.03181419331039 -154.97637077769653,-54.531814193292526 -153.14624375879117,-52.70168717433999 -150.64624375879058,-52.03181419322749" stroke="#ffa500" stroke-linecap="round" stroke-linejoin="round"/><polyline fill="none" points="-155.98978791035324,-39.37524519776289 -153.4897879103354,-40.045118178810945 -151.65966089138286,-41.8752451977163 -150.98978791027037,-44.3752451977169 -151.65966089131842,-46.87524519773476 -153.48978791022378,-48.7053722166873 -155.98978791022438,-49.375245197799806 -158.48978791024223,-48.70537221675175 -160.31991492919477,-46.87524519784639 -160.98978791030726,-44.37524519784579 -160.3199149292592,-41.87524519782793 -158.48978791035384,-40.04511817887539 -155.98978791035324,-39.37524519776289" stroke="#ffa500" stroke-linecap="round" stroke-linejoin="round"/><polyline fill="none" points="-236.09746755067167,-36.01367818209999 -233.59746755065382,-36.683551163148046 -231.76734053170128,-38.513678182053404 -231.0974675505888,-41.013678182054 -231.76734053163685,-43.513678182071864 -233.5974675505422,-45.3438052010244 -236.0974675505428,-46.01367818213691 -238.59746755056065,-45.343805201088855 -240.4275945695132,-43.5136781821835 -241.0974675506257,-41.0136781821829 -240.42759456957765,-38.51367818216504 -238.5974675506723,-36.6835511632125 -236.0974675506717,-36.013678182099994" stroke="#00f" stroke-linecap="round" stroke-linejoin="round"/><polyline fill="none" points="-245.6674368355643,-59.73572153719972 -243.16743683554643,-60.405594518247774 -241.3373098165939,-62.23572153715313 -240.66743683548137,-64.73572153715372 -241.33730981652943,-67.23572153717159 -243.16743683543478,-69.06584855612412 -245.66743683543538,-69.73572153723663 -248.16743683545326,-69.06584855618857 -249.9975638544058,-67.23572153728321 -250.66743683551832,-64.73572153728261 -249.99756385447026,-62.23572153726475 -248.1674368355649,-60.40559451831221 -245.6674368355643,-59.73572153719971" stroke="#00f" stroke-linecap="round" stroke-linejoin="round"/><polyline fill="none" points="-232.0248393503919,-65.75678197642688 -229.524839350374,-66.42665495747494 -227.69471233142147,-68.2567819763803 -227.02483935030895,-70.75678197638089 -227.694712331357,-73.25678197639876 -229.52483935026237,-75.0869089953513 -232.02483935026297,-75.7567819764638 -234.52483935028084,-75.08690899541575 -236.35496636923338,-73.2567819765104 -237.0248393503459,-70.7567819765098 -236.35496636929784,-68.25678197649194 -234.52483935039248,-66.4266549575394 -232.0248393503919,-65.7567819764269" stroke="#ffa500" stroke-linecap="round" stroke-linejoin="round"/><polyline fill="none" points="-139.2032772843961,0.2107222484338136 -136.70327728437823,-0.45915073261423567 -134.8731502654257,-2.2892777515195912 -134.20327728431317,-4.789277751520185 -134.87315026536123,-7.289277751538052 -136.7032772842666,-9.119404770490597 -139.2032772842672,-9.789277751603109 -141.70327728428506,-9.119404770555061 -143.5334043032376,-7.289277751649706 -144.20327728435012,-4.789277751649113 -143.53340430330206,-2.2892777516312455 -141.7032772843967,-0.4591507326786983 -139.2032772843961,0.21072224843381548" stroke="#ffa500" stroke-linecap="round" stroke-linejoin="round"/><polyline fill="none" points="-85.91696881504257,46.54477534953578 -83.4169688150247,45.87490236848774 -81.58684179607215,44.04477534958239 -80.91696881495963,41.54477534958179 -81.58684179600768,39.04477534956392 -83.41696881491303,37.214648330611375 -85.91696881491363,36.54477534949886 -88.4169688149315,37.21464833054691 -90.24709583388405,39.04477534945226 -90.91696881499657,41.54477534945285 -90.24709583394852,44.04477534947072 -88.41696881504316,45.87490236842327 -85.91696881504257,46.54477534953579" stroke="#ffa500" stroke-linecap="round" stroke-linejoin="round"/><polyline fill="none" points="-202.2459707282875,-72.63666979000593 -199.7459707282696,-73.30654277105397 -197.91584370931707,-75.13666978995933 -197.24597072820455,-77.63666978995992 -197.91584370925258,-80.13666978997779 -199.74597072815794,-81.96679680893034 -202.24597072815854,-82.63666979004286 -204.74597072817642,-81.96679680899481 -206.57609774712896,-80.13666979008946 -207.24597072824147,-77.63666979008886 -206.57609774719344,-75.13666979007098 -204.74597072828809,-73.30654277111843 -202.2459707282875,-72.63666979000591" stroke="#00f" stroke-linecap="round" stroke-linejoin="round"/><polyline fill="none" points="-243.33950088172864,-97.57251549350644 -240.83950088171076,-98.24238847455449 -239.0093738627582,-100.07251549345985 -238.33950088164568,-102.57251549346044 -239.0093738626937,-105.07251549347832 -240.83950088159906,-106.90264251243087 -243.33950088159966,-107.57251549354339 -245.83950088161754,-106.90264251249535 -247.6696279005701,-105.07251549359 -248.33950088168262,-102.5725154935894 -247.6696279006346,-100.07251549357153 -245.83950088172924,-98.24238847461898 -243.33950088172864,-97.57251549350646" stroke="#00f" stroke-linecap="round" stroke-linejoin="round"/><polyline fill="none" points="-116.746864338412,92.54174610702991 -114.24686433839412,91.87187312598186 -112.41673731944157,90.04174610707652 -111.74686433832905,87.54174610707592 -112.41673731937709,85.04174610705805 -114.24686433828244,83.2116190881055 -116.74686433828303,82.54174610699297 -119.24686433830091,83.21161908804102 -121.07699135725346,85.04174610694636 -121.74686433836598,87.54174610694696 -121.07699135731794,90.04174610696484 -119.24686433841259,91.87187312591739 -116.746864338412,92.54174610702991" stroke="#ffa500" stroke-linecap="round" stroke-linejoin="round"/><polyline fill="none" points="-222.04432058587906,-66.95169327156334 -219.5443205858612,-67.62156625261137 -217.71419356690862,-69.45169327151672 -217.0443205857961,-71.95169327151731 -217.71419356684413,-74.45169327153519 -219.5443205857495,-76.28182029048774 -222.04432058575009,-76.95169327160026 -224.54432058576796,-76.28182029055223 -226.37444760472053,-74.45169327164689 -227.04432058583305,-71.95169327164629 -226.37444760478502,-69.45169327162841 -224.54432058587966,-67.62156625267586 -222.04432058587906,-66.95169327156333" stroke="#ffa500" stroke-linecap="round" stroke-linejoin="round"/><polyline fill="none" points="-249.1832904798602,-106.39106437882246 -246.68329047984233,-107.0609373598705 -244.85316346088976,-108.89106437877584 -244.18329047977724,-111.39106437877643 -244.85316346082527,-113.89106437879431 -246.68329047973063,-115.72119139774686 -249.18329047973123,-116.3910643788594 -251.6832904797491,-115.72119139781137 -253.51341749870167,-113.89106437890602 -254.1832904798142,-111.39106437890543 -253.51341749876616,-108.89106437888755 -251.6832904798608,-107.06093735993498 -249.1832904798602,-106.39106437882245" stroke="#f00" stroke-linecap="round" stroke-linejoin="round"/><polyline fill="none" points="-204.9116580954243,-89.68789231413042 -202.4116580954064,-90.35776529517845 -200.58153107645384,-92.1878923140838 -199.91165809534132,-94.6878923140844 -200.58153107638935,-97.18789231410227 -202.4116580952947,-99.01801933305484 -204.9116580952953,-99.68789231416737 -207.4116580953132,-99.01801933311934 -209.24178511426575,-97.187892314214 -209.91165809537827,-94.6878923142134 -209.24178511433024,-92.18789231419552 -207.41165809542488,-90.35776529524296 -204.9116580954243,-89.68789231413042" stroke="#008000" stroke-linecap="round" stroke-linejoin="round"/><polyline fill="none" points="-201.83720502085973,-12.956952892149307 -199.33720502084185,-13.626825873197337 -197.50707800188928,-15.45695289210268 -196.83720502077676,-17.956952892103274 -197.5070780018248,-20.45695289212115 -199.33720502073015,-22.287079911073715 -201.83720502073075,-22.956952892186248 -204.33720502074863,-22.287079911138218 -206.1673320397012,-20.456952892232874 -206.83720502081374,-17.95695289223228 -206.1673320397657,-15.456952892214403 -204.33720502086038,-13.626825873261838 -201.83720502085978,-12.956952892149303" stroke="#ffa500" stroke-linecap="round" stroke-linejoin="round"/><polyline fill="none" points="-199.03274098930368,-18.462973560035458 -196.5327409892858,-19.132846541083484 -194.70261397033323,-20.96297355998883 -194.03274098922068,-23.462973559989422 -194.70261397026871,-25.9629735600073 -196.53274098917404,-27.793100578959866 -199.03274098917464,-28.462973560072403 -201.53274098919252,-27.793100579024376 -203.36286800814509,-25.962973560119035 -204.03274098925763,-23.462973560118442 -203.3628680082096,-20.96297356010056 -201.53274098930427,-19.132846541147995 -199.03274098930368,-18.462973560035458" stroke="#ffa500" stroke-linecap="round" stroke-linejoin="round"/><polyline fill="none" points="-139.06296820551356,72.88629501858841 -136.56296820549568,72.21642203754038 -134.7328411865431,70.38629501863504 -134.06296820543056,67.88629501863444 -134.7328411864786,65.38629501861656 -136.56296820538392,63.556167999664 -139.06296820538452,62.88629501855146 -141.5629682054024,63.55616799959948 -143.39309522435497,65.38629501850482 -144.0629682054675,67.88629501850542 -143.39309522441948,70.3862950185233 -141.56296820551415,72.21642203747587 -139.06296820551356,72.88629501858841" stroke="#00f" stroke-linecap="round" stroke-linejoin="round"/><polyline fill="none" points="-235.481014956413,-48.657629643305725 -232.98101495639511,-49.32750262435375 -231.15088793744255,-51.157629643259085 -230.48101495633,-53.65762964325968 -231.15088793737803,-56.157629643277566 -232.98101495628336,-57.98775666223014 -235.48101495628396,-58.65762964334268 -237.98101495630183,-57.98775666229466 -239.8111419752544,-56.15762964338932 -240.48101495636695,-53.657629643388724 -239.81114197531892,-51.15762964337084 -237.9810149564136,-49.327502624418265 -235.481014956413,-48.657629643305725" stroke="#00f" stroke-linecap="round" stroke-linejoin="round"/><polyline fill="none" points="-146.66466233139343,1.3289878928313459 -144.16466233137555,0.6591149117833256 -142.334535312423,-1.1710121071220132 -141.66466233131044,-3.6710121071226074 -142.33453531235847,-6.171012107140491 -144.1646623312638,-8.001139126093065 -146.6646623312644,-8.67101210720561 -149.16466233128227,-8.001139126157591 -150.99478935023484,-6.171012107252253 -151.6646623313474,-3.6710121072516584 -150.99478935029936,-1.171012107233774 -149.16466233139403,0.6591149117188018 -146.66466233139343,1.3289878928313483" stroke="#ffa500" stroke-linecap="round" stroke-linejoin="round"/><polyline fill="none" points="-176.74990433631731,-77.94039537743147 -174.24990433629944,-78.61026835847949 -172.41977731734687,-80.44039537738483 -171.74990433623432,-82.94039537738543 -172.41977731728235,-85.44039537740332 -174.24990433618768,-87.2705223963559 -176.74990433618828,-87.94039537746845 -179.24990433620616,-87.27052239642043 -181.08003135515872,-85.44039537751509 -181.74990433627127,-82.94039537751449 -181.08003135522324,-80.4403953774966 -179.2499043363179,-78.61026835854402 -176.74990433631731,-77.94039537743147" stroke="#00f" stroke-linecap="round" stroke-linejoin="round"/><polyline fill="none" points="-203.90672430253767,-97.96016161073715 -201.4067243025198,-98.63003459178516 -199.57659728356722,-100.46016161069049 -198.90672430245468,-102.96016161069109 -199.57659728350268,-105.46016161070898 -201.406724302408,-107.29028862966156 -203.9067243024086,-107.96016161077411 -206.40672430242648,-107.29028862972609 -208.23685132137905,-105.46016161082076 -208.9067243024916,-102.96016161082017 -208.2368513214436,-100.46016161080227 -206.40672430253827,-98.6300345918497 -203.90672430253767,-97.96016161073715" stroke="#ffa500" stroke-linecap="round" stroke-linejoin="round"/><polyline fill="none" points="-221.70564153606438,-20.590969111147135 -219.2056415360465,-21.260842092195148 -217.3755145170939,-23.090969111100485 -216.70564153598136,-25.590969111101078 -217.37551451702936,-28.090969111118966 -219.2056415359347,-29.921096130071547 -221.70564153593529,-30.5909691111841 -224.20564153595316,-29.92109613013609 -226.03576855490576,-28.090969111230756 -226.7056415360183,-25.590969111230162 -226.0357685549703,-23.090969111212274 -224.20564153606497,-21.26084209225969 -221.70564153606438,-20.590969111147135" stroke="#ffa500" stroke-linecap="round" stroke-linejoin="round"/><polyline fill="none" points="-229.67298193309273,-103.36339115173291 -227.17298193307485,-104.03326413278093 -225.34285491412226,-105.86339115168626 -224.6729819330097,-108.36339115168686 -225.3428549140577,-110.86339115170475 -227.17298193296304,-112.69351817065733 -229.67298193296364,-113.36339115176989 -232.17298193298151,-112.69351817072187 -234.0031089519341,-110.86339115181654 -234.67298193304666,-108.36339115181595 -234.00310895199866,-105.86339115179806 -232.17298193309333,-104.03326413284547 -229.67298193309273,-103.36339115173291" stroke="#ffa500" stroke-linecap="round" stroke-linejoin="round"/><polyline fill="none" points="-254.59183527629855,-113.18531927829977 -252.09183527628068,-113.85519225934777 -250.26170825732808,-115.6853192782531 -249.59183527621553,-118.1853192782537 -250.26170825726354,-120.68531927827159 -252.09183527616887,-122.51544629722417 -254.59183527616946,-123.18531927833673 -257.09183527618734,-122.51544629728873 -258.9219622951399,-120.6853192783834 -259.5918352762525,-118.1853192783828 -258.9219622952045,-115.68531927836491 -257.09183527629915,-113.85519225941233 -254.59183527629855,-113.18531927829977" stroke="#00f" stroke-linecap="round" stroke-linejoin="round"/><polyline fill="none" points="-173.98820372848326,26.80216418524829 -171.48820372846538,26.132291204200286 -169.65807670951278,24.302164185294956 -168.9882037284002,21.802164185294362 -169.6580767094482,19.30216418527647 -171.48820372835354,17.472037166323883 -173.98820372835414,16.80216418521132 -176.48820372837204,17.472037166259327 -178.31833074732464,19.302164185164656 -178.9882037284372,21.80216418516525 -178.3183307473892,24.30216418518314 -176.48820372848388,26.132291204135733 -173.98820372848328,26.802164185248294" stroke="#ffa500" stroke-linecap="round" stroke-linejoin="round"/><polyline fill="none" points="-251.93107531978387,-129.4359749817759 -249.43107531976597,-130.1058479628239 -247.60094830081337,-131.93597498172923 -246.9310753197008,-134.43597498172983 -247.6009483007488,-136.93597498174773 -249.43107531965413,-138.76610200070033 -251.93107531965472,-139.4359749818129 -254.43107531967263,-138.7661020007649 -256.2612023386252,-136.93597498185957 -256.9310753197378,-134.43597498185898 -256.26120233868977,-131.93597498184107 -254.43107531978444,-130.10584796288848 -251.93107531978384,-129.4359749817759" stroke="#ffa500" stroke-linecap="round" stroke-linejoin="round"/><polyline fill="none" points="64.99719792192076,1.4689537793057648 67.49719792193865,0.799080798257764 69.32732494089124,-1.0310462206475632 69.9971979220038,-3.531046220648157 69.3273249409558,-6.031046220666052 67.49719792205047,-7.861173239618645 64.99719792204988,-8.531046220731213 62.49719792203199,-7.861173239683213 60.66707090307939,-6.0310462207778865 59.99719792196682,-3.531046220777293 60.667070903014825,-1.0310462207593978 62.49719792192015,0.7990807981931971 64.99719792192074,1.468953779305766" stroke="#ffa500" stroke-linecap="round" stroke-linejoin="round"/><polyline fill="none" points="-165.53584243096486,-32.17645133096976 -163.03584243094696,-32.84632431201776 -161.20571541199436,-34.67645133092308 -160.5358424308818,-37.17645133092367 -161.2057154119298,-39.67645133094157 -163.03584243083512,-41.50657834989416 -165.53584243083571,-42.17645133100673 -168.03584243085362,-41.50657834995874 -169.86596944980622,-39.676451331053414 -170.5358424309188,-37.17645133105282 -169.8659694498708,-34.67645133103492 -168.03584243096546,-32.846324312082324 -165.53584243096486,-32.17645133096975" stroke="#00f" stroke-linecap="round" stroke-linejoin="round"/><polyline fill="none" points="-234.9951751590985,-72.52586263546108 -232.4951751590806,-73.19573561650908 -230.665048140128,-75.02586263541441 -229.99517515901542,-77.52586263541501 -230.66504814006342,-80.0258626354329 -232.49517515896875,-81.8559896543855 -234.99517515896935,-82.52586263549807 -237.49517515898725,-81.85598965445008 -239.32530217793985,-80.02586263554475 -239.99517515905242,-77.52586263554416 -239.32530217800442,-75.02586263552627 -237.4951751590991,-73.19573561657367 -234.9951751590985,-72.5258626354611" stroke="#00f" stroke-linecap="round" stroke-linejoin="round"/><polyline fill="none" points="-251.8694046123773,-101.58912215623734 -249.3694046123594,-102.25899513728532 -247.5392775934068,-104.08912215619065 -246.86940461229423,-106.58912215619125 -247.53927759334223,-109.08912215620916 -249.36940461224756,-110.91924917516175 -251.86940461224816,-111.58912215627433 -254.36940461226607,-110.91924917522634 -256.1995316312187,-109.08912215632103 -256.86940461233127,-106.58912215632043 -256.19953163128326,-104.08912215630252 -254.36940461237793,-102.25899513734991 -251.86940461237734,-101.58912215623734" stroke="#00f" stroke-linecap="round" stroke-linejoin="round"/><polyline fill="none" points="-119.73442049385899,88.4221657003874 -117.23442049384109,87.75229271933941 -115.40429347488848,85.92216570043409 -114.7344204937759,83.4221657004335 -115.40429347482389,80.92216570041559 -117.2344204937292,79.09203868146298 -119.7344204937298,78.4221657003504 -122.2344204937477,79.09203868139839 -124.06454751270032,80.92216570030371 -124.73442049381289,83.4221657003043 -124.0645475127649,85.92216570032221 -122.23442049385959,87.75229271927482 -119.73442049385899,88.4221657003874" stroke="#ffa500" stroke-linecap="round" stroke-linejoin="round"/><polyline fill="none" points="-251.1345455941054,-97.46483272680693 -248.63454559408748,-98.13470570785492 -246.8044185751349,-99.96483272676024 -246.1345455940223,-102.46483272676083 -246.80441857507032,-104.96483272677874 -248.63454559397564,-106.79495974573135 -251.13454559397624,-107.46483272684392 -253.63454559399415,-106.79495974579594 -255.46467261294674,-104.96483272689062 -256.1345455940593,-102.46483272689002 -255.46467261301134,-99.96483272687212 -253.63454559410602,-98.13470570791951 -251.13454559410542,-97.46483272680692" stroke="#ffa500" stroke-linecap="round" stroke-linejoin="round"/><polyline fill="none" points="-97.90303280327805,55.58559360378929 -95.40303280326015,54.915720622741304 -93.57290578430754,53.08559360383599 -92.90303280319495,50.58559360383539 -93.57290578424293,48.085593603817486 -95.40303280314825,46.25546658486488 -97.90303280314885,45.585593603752294 -100.40303280316675,46.25546658480028 -102.23315982211936,48.0855936037056 -102.90303280323195,50.585593603706194 -102.23315982218396,53.0855936037241 -100.40303280327865,54.91572062267671 -97.90303280327805,55.5855936037893" stroke="#ffa500" stroke-linecap="round" stroke-linejoin="round"/><polyline fill="none" points="-127.063933083222,94.61174428171809 -124.56393308320409,93.9418713006701 -122.73380606425148,92.11174428176479 -122.06393308313889,89.61174428176419 -122.73380606418688,87.11174428174628 -124.5639330830922,85.28161726279367 -127.06393308309279,84.61174428168108 -129.5639330831107,85.28161726272907 -131.39406010206332,87.11174428163439 -132.0639330831759,89.61174428163498 -131.39406010212792,92.11174428165289 -129.5639330832226,93.9418713006055 -127.063933083222,94.61174428171809" stroke="#ffa500" stroke-linecap="round" stroke-linejoin="round"/><polyline fill="none" points="-149.36369935572682,-56.18988241132173 -146.86369935570892,-56.85975539236971 -145.0335723367563,-58.68988241127503 -144.36369935564372,-61.189882411275626 -145.0335723366917,-63.68988241129353 -146.86369935559702,-65.52000943024615 -149.36369935559762,-66.18988241135874 -151.86369935561552,-65.52000943031076 -153.69382637456815,-63.68988241140545 -154.36369935568075,-61.18988241140485 -153.69382637463278,-58.68988241138695 -151.86369935572748,-56.85975539243433 -149.36369935572688,-56.18988241132174" stroke="#00f" stroke-linecap="round" stroke-linejoin="round"/><polyline fill="none" points="-256.1879672316511,-115.23943006068457 -253.6879672316332,-115.90930304173254 -251.85784021268057,-117.73943006063786 -251.18796723156797,-120.23943006063845 -251.85784021261594,-122.73943006065636 -253.68796723152124,-124.56955707960897 -256.18796723152184,-125.23943006072156 -258.68796723153974,-124.56955707967359 -260.51809425049237,-122.73943006076827 -261.18796723160494,-120.23943006076767 -260.51809425055694,-117.73943006074977 -258.6879672316516,-115.90930304179716 -256.18796723165104,-115.23943006068457" stroke="#00f" stroke-linecap="round" stroke-linejoin="round"/><polyline fill="none" points="-244.21442231701192,-127.70046774987324 -241.71442231699402,-128.3703407309212 -239.8842952980414,-130.20046774982652 -239.2144223169288,-132.7004677498271 -239.88429529797676,-135.20046774984502 -241.71442231688206,-137.03059476879764 -244.21442231688266,-137.70046774991025 -246.71442231690057,-137.03059476886227 -248.5445493358532,-135.20046774995697 -249.2144223169658,-132.70046774995637 -248.54454933591782,-130.20046774993847 -246.71442231701252,-128.37034073098584 -244.21442231701192,-127.70046774987325" stroke="#ffa500" stroke-linecap="round" stroke-linejoin="round"/><polyline fill="none" points="-183.79148020264745,29.306947593040842 -181.29148020262954,28.63707461199287 -179.46135318367692,26.806947593087557 -178.79148020256432,24.306947593086964 -179.4613531836123,21.806947593069054 -181.2914802025176,19.976820574116434 -183.7914802025182,19.306947593003837 -186.2914802025361,19.97682057405181 -188.12160722148872,21.806947592957123 -188.79148020260132,24.306947592957716 -188.12160722155335,26.806947592975625 -186.29148020264805,28.637074611928245 -183.79148020264745,29.306947593040846" stroke="#ffa500" stroke-linecap="round" stroke-linejoin="round"/><polyline fill="none" points="-127.72344432922829,86.89922587279004 -125.22344432921038,86.22935289174207 -123.39331731025776,84.39922587283675 -122.72344432914515,81.89922587283615 -123.39331731019313,79.39922587281825 -125.22344432909844,77.56909885386563 -127.72344432909904,76.89922587275302 -130.22344432911694,77.569098853801 -132.05357134806957,79.39922587270631 -132.72344432918217,81.89922587270691 -132.0535713481342,84.39922587272481 -130.2234443292289,86.22935289167744 -127.7234443292283,86.89922587279004" stroke="#ffa500" stroke-linecap="round" stroke-linejoin="round"/><polyline fill="none" points="-215.02689020354137,-13.654092875265434 -212.52689020352346,-14.323965856313404 -210.69676318457084,-16.154092875218712 -210.02689020345824,-18.654092875219305 -210.6967631845062,-21.154092875237218 -212.5268902034115,-22.98421989418984 -215.0268902034121,-23.654092875302446 -217.52689020343,-22.984219894254476 -219.35701722238264,-21.154092875349168 -220.02689020349524,-18.654092875348574 -219.35701722244727,-16.15409287533066 -217.52689020354197,-14.323965856378035 -215.02689020354137,-13.654092875265428" stroke="#00f" stroke-linecap="round" stroke-linejoin="round"/><polyline fill="none" points="-217.03160517565126,-25.458933354073075 -214.53160517563336,-26.12880633512104 -212.70147815668074,-27.95893335402635 -212.03160517556813,-30.458933354026943 -212.7014781566161,-32.95893335404486 -214.5316051755214,-34.78906037299749 -217.031605175522,-35.458933354110094 -219.5316051755399,-34.78906037306213 -221.36173219449253,-32.95893335415682 -222.03160517560514,-30.458933354156226 -221.36173219455716,-27.95893335413831 -219.53160517565186,-26.128806335185683 -217.03160517565126,-25.458933354073075" stroke="#ffa500" stroke-linecap="round" stroke-linejoin="round"/><polyline fill="none" points="-235.32455959092508,-113.23194820437514 -232.82455959090717,-113.9018211854231 -230.99443257195455,-115.7319482043284 -230.32455959084194,-118.231948204329 -230.99443257188992,-120.73194820434692 -232.82455959079522,-122.56207522329954 -235.32455959079581,-123.23194820441215 -237.82455959081372,-122.56207522336419 -239.65468660976634,-120.73194820445889 -240.32455959087895,-118.23194820445829 -239.65468660983097,-115.73194820444037 -237.82455959092567,-113.90182118548773 -235.32455959092508,-113.23194820437513" stroke="#00f" stroke-linecap="round" stroke-linejoin="round"/><polyline fill="none" points="-251.07062653894664,-111.45114043219606 -248.57062653892874,-112.12101341324401 -246.7404995199761,-113.95114043214932 -246.0706265388635,-116.45114043214991 -246.74049951991148,-118.95114043216783 -248.57062653881678,-120.78126745112047 -251.07062653881738,-121.45114043223309 -253.57062653883528,-120.78126745118513 -255.4007535577879,-118.95114043227983 -256.0706265389005,-116.45114043227923 -255.40075355785254,-113.95114043226131 -253.57062653894724,-112.12101341330867 -251.07062653894664,-111.45114043219606" stroke="#ffa500" stroke-linecap="round" stroke-linejoin="round"/><polyline fill="none" points="-250.433802365084,-103.8745296178796 -247.9338023650661,-104.54440259892756 -246.10367534611348,-106.37452961783286 -245.43380236500087,-108.87452961783346 -246.10367534604885,-111.37452961785138 -247.93380236495415,-113.20465663680402 -250.43380236495474,-113.87452961791664 -252.93380236497265,-113.20465663686868 -254.76392938392527,-111.37452961796338 -255.43380236503788,-108.87452961796278 -254.76392938398993,-106.37452961794486 -252.93380236508463,-104.54440259899222 -250.43380236508403,-103.8745296178796" stroke="#008000" stroke-linecap="round" stroke-linejoin="round"/><polyline fill="none" points="-92.61713332556457,49.73652081271061 -90.11713332554665,49.06664783166265 -88.28700630659401,47.23652081275735 -87.61713332548139,44.73652081275675 -88.28700630652935,42.23652081273883 -90.11713332543465,40.406393793786194 -92.61713332543525,39.736520812673575 -95.11713332545317,40.406393793721534 -96.9472603444058,42.236520812626836 -97.61713332551842,44.73652081262743 -96.94726034447046,47.23652081264535 -95.11713332556516,49.06664783159799 -92.61713332556457,49.73652081271061" stroke="#ffa500" stroke-linecap="round" stroke-linejoin="round"/><polyline fill="none" points="64.63560690027141,-10.09590641373406 67.13560690028933,-10.765779394782015 68.96573391924197,-12.595906413687317 69.63560690035459,-15.095906413687914 68.96573391930663,-17.595906413705837 67.13560690040133,-19.42603343265848 64.63560690040073,-20.0959064137711 62.13560690038281,-19.426033432723145 60.305479881430166,-17.595906413817843 59.63560690031754,-15.095906413817247 60.30547988136549,-12.595906413799323 62.135606900270794,-10.76577939484668 64.63560690027138,-10.095906413734058" stroke="#ffa500" stroke-linecap="round" stroke-linejoin="round"/><polyline fill="none" points="-241.52430792266463,-108.83926405603384 -239.0243079226467,-109.5091370370818 -237.19418090369405,-111.3392640559871 -236.52430792258141,-113.8392640559877 -237.19418090362936,-116.33926405600562 -239.02430792253466,-118.16939107495826 -241.52430792253526,-118.83926405607087 -244.0243079225532,-118.16939107502292 -245.85443494150584,-116.33926405611761 -246.52430792261848,-113.83926405611702 -245.85443494157053,-111.3392640560991 -244.02430792266523,-109.50913703714644 -241.52430792266463,-108.83926405603383" stroke="#ffa500" stroke-linecap="round" stroke-linejoin="round"/><polyline fill="none" points="-269.08750881747807,-96.49072799207919 -266.58750881746016,-97.16060097312713 -264.75738179850754,-98.99072799203243 -264.0875088173949,-101.49072799203303 -264.75738179844285,-103.99072799205095 -266.5875088173481,-105.8208550110036 -269.0875088173487,-106.49072799211623 -271.5875088173666,-105.82085501106829 -273.4176358363192,-103.99072799216299 -274.08750881743185,-101.49072799216239 -273.4176358363839,-98.99072799214447 -271.58750881747864,-97.16060097319182 -269.08750881747807,-96.49072799207919" stroke="#00f" stroke-linecap="round" stroke-linejoin="round"/><polyline fill="none" points="-248.6417645081248,-137.3994027020912 -246.14176450810686,-138.06927568313915 -244.3116374891542,-139.89940270204445 -243.64176450804158,-142.39940270204505 -244.31163748908952,-144.89940270206299 -246.14176450799482,-146.72952972101564 -248.64176450799542,-147.39940270212827 -251.14176450801335,-146.72952972108033 -252.971891526966,-144.89940270217502 -253.64176450807864,-142.39940270217443 -252.9718915270307,-139.8994027021565 -251.1417645081254,-138.06927568320384 -248.6417645081248,-137.3994027020912" stroke="#ffa500" stroke-linecap="round" stroke-linejoin="round"/><polyline fill="none" points="-245.55851301371004,-112.86093238716309 -243.0585130136921,-113.53080536821103 -241.22838599473945,-115.36093238711634 -240.55851301362682,-117.86093238711693 -241.22838599467477,-120.36093238713487 -243.05851301358007,-122.19105940608752 -245.55851301358067,-122.86093238720015 -248.0585130135986,-122.1910594061522 -249.88864003255125,-120.3609323872469 -250.55851301366388,-117.86093238724631 -249.88864003261594,-115.36093238722837 -248.05851301371064,-113.53080536827572 -245.55851301371004,-112.86093238716309" stroke="#008000" stroke-linecap="round" stroke-linejoin="round"/><polyline fill="none" points="-180.4568506194964,22.641946203386958 -177.95685061947847,21.972073222339013 -176.12672360052582,20.14194620343372 -175.4568506194132,17.641946203433122 -176.12672360046113,15.141946203415191 -177.95685061936643,13.311819184462538 -180.45685061936703,12.641946203349903 -182.95685061938497,13.311819184397844 -184.78697763833762,15.141946203303139 -185.45685061945025,17.641946203303736 -184.7869776384023,20.141946203321666 -182.956850619497,21.97207322227432 -180.4568506194964,22.641946203386958" stroke="#ffa500" stroke-linecap="round" stroke-linejoin="round"/><polyline fill="none" points="-227.61990789202974,-27.293287694631168 -225.1199078920118,-27.96316067567911 -223.28978087305916,-29.793287694584404 -222.61990789194653,-32.293287694585 -223.28978087299447,-34.79328769460293 -225.11990789189977,-36.62341471355559 -227.61990789190037,-37.29328769466823 -230.1199078919183,-36.62341471362029 -231.95003491087095,-34.793287694715 -232.6199078919836,-32.2932876947144 -231.95003491093564,-29.793287694696467 -230.11990789203034,-27.96316067574381 -227.61990789202974,-27.29328769463117" stroke="#ffa500" stroke-linecap="round" stroke-linejoin="round"/><polyline fill="none" points="-198.04736485070157,-101.04279017076952 -195.54736485068364,-101.71266315181747 -193.71723783173098,-103.54279017072275 -193.04736485061835,-106.04279017072335 -193.7172378316663,-108.54279017074128 -195.5473648505716,-110.37291718969394 -198.0473648505722,-111.04279017080658 -200.54736485059013,-110.37291718975865 -202.37749186954278,-108.54279017085337 -203.0473648506554,-106.04279017085277 -202.37749186960747,-103.54279017083483 -200.54736485070217,-101.71266315188217 -198.04736485070157,-101.04279017076952" stroke="#ffa500" stroke-linecap="round" stroke-linejoin="round"/><polyline fill="none" points="-269.6577944685167,-111.91121084511599 -267.15779446849876,-112.58108382616392 -265.3276674495461,-114.4112108450692 -264.65779446843345,-116.9112108450698 -265.3276674494814,-119.41121084508774 -267.15779446838667,-121.2413378640404 -269.65779446838724,-121.91121084515305 -272.1577944684052,-121.24133786410512 -273.9879214873579,-119.41121084519983 -274.6577944684705,-116.91121084519924 -273.98792148742257,-114.4112108451813 -272.1577944685173,-112.58108382622864 -269.6577944685167,-111.91121084511599" stroke="#00f" stroke-linecap="round" stroke-linejoin="round"/><polyline fill="none" points="-216.712850686924,-100.44928805317053 -214.21285068690608,-101.11916103421846 -212.38272366795343,-102.94928805312375 -211.7128506868408,-105.44928805312435 -212.38272366788874,-107.94928805314228 -214.21285068679404,-109.77941507209495 -216.71285068679464,-110.4492880532076 -219.21285068681257,-109.77941507215967 -221.04297770576522,-107.94928805325438 -221.71285068687789,-105.44928805325378 -221.04297770582994,-102.94928805323585 -219.21285068692464,-101.11916103428318 -216.71285068692404,-100.44928805317053" stroke="#00f" stroke-linecap="round" stroke-linejoin="round"/><polyline fill="none" points="-136.05917256456036,-46.16035149475183 -133.55917256454242,-46.83022447579976 -131.72904554558977,-48.66035149470505 -131.0591725644771,-51.160351494705644 -131.72904554552505,-53.660351494723585 -133.55917256443036,-55.49047851367625 -136.05917256443095,-56.1603514947889 -138.5591725644489,-55.49047851374097 -140.38929958340157,-53.66035149483568 -141.05917256451423,-51.16035149483508 -140.3892995834663,-48.66035149481714 -138.559172564561,-46.830224475864476 -136.0591725645604,-46.16035149475182" stroke="#ffa500" stroke-linecap="round" stroke-linejoin="round"/><polyline fill="none" points="-210.0358382122569,-80.84572865470352 -207.53583821223896,-81.51560163575145 -205.70571119328628,-83.34572865465674 -205.03583821217362,-85.84572865465734 -205.70571119322153,-88.34572865467527 -207.53583821212683,-90.17585567362794 -210.03583821212743,-90.84572865474058 -212.53583821214536,-90.17585567369265 -214.36596523109804,-88.34572865478737 -215.0358382122107,-85.84572865478677 -214.3659652311628,-83.34572865476883 -212.5358382122575,-81.51560163581617 -210.0358382122569,-80.84572865470352" stroke="#ffa500" stroke-linecap="round" stroke-linejoin="round"/><polyline fill="none" points="-221.35972081475586,-31.410677507352837 -218.85972081473793,-32.08055048840076 -217.02959379578525,-33.91067750730605 -216.35972081467258,-36.410677507306644 -217.0295937957205,-38.910677507324586 -218.85972081462577,-40.74080452627726 -221.35972081462637,-41.41067750738991 -223.8597208146443,-40.74080452634199 -225.68984783359699,-38.9106775074367 -226.35972081470965,-36.410677507436105 -225.68984783366173,-33.910677507418164 -223.85972081475646,-32.08055048846549 -221.35972081475586,-31.410677507352833" stroke="#ffa500" stroke-linecap="round" stroke-linejoin="round"/><polyline fill="none" points="-215.21541872789163,-97.26567007639912 -212.7154187278737,-97.93554305744705 -210.88529170892102,-99.76567007635234 -210.21541872780836,-102.26567007635293 -210.88529170885627,-104.76567007637088 -212.71541872776154,-106.59579709532356 -215.21541872776214,-107.26567007643622 -217.71541872778008,-106.5957970953883 -219.54554574673276,-104.76567007648302 -220.21541872784542,-102.26567007648242 -219.5455457467975,-99.76567007646447 -217.71541872789223,-97.9355430575118 -215.21541872789163,-97.26567007639913" stroke="#00f" stroke-linecap="round" stroke-linejoin="round"/><polyline fill="none" points="-114.56929592986516,34.56799518744407 -112.06929592984721,33.898122206396145 -110.23916891089453,32.06799518749086 -109.56929592978187,29.56799518749026 -110.23916891082979,27.067995187472317 -112.06929592973508,25.23786816851964 -114.56929592973567,24.56799518740698 -117.06929592975362,25.2378681684549 -118.8994229487063,27.067995187360182 -119.56929592981896,29.56799518736078 -118.89942294877105,32.06799518737873 -117.06929592986576,33.89812220633141 -114.56929592986516,34.56799518744407" stroke="#00f" stroke-linecap="round" stroke-linejoin="round"/><polyline fill="none" points="-205.96765803938098,-23.11045102792981 -203.46765803936304,-23.78032400897773 -201.63753102041036,-25.610451027883013 -200.9676580392977,-28.110451027883613 -201.63753102034562,-30.61045102790156 -203.4676580392509,-32.44057804685424 -205.9676580392515,-33.1104510279669 -208.46765803926942,-32.440578046918986 -210.2977850582221,-30.610451028013703 -210.96765803933476,-28.110451028013102 -210.29778505828685,-25.610451027995154 -208.46765803938158,-23.780324009042474 -205.96765803938098,-23.11045102792981" stroke="#ffa500" stroke-linecap="round" stroke-linejoin="round"/><polyline fill="none" points="-249.23462230754862,-96.1250328180181 -246.73462230753069,-96.79490579906602 -244.904495288578,-98.6250328179713 -244.23462230746534,-101.1250328179719 -244.90449528851326,-103.62503281798985 -246.73462230741853,-105.45515983694253 -249.23462230741913,-106.12503281805519 -251.73462230743706,-105.45515983700727 -253.56474932638974,-103.62503281810199 -254.2346223075024,-101.12503281810139 -253.5647493264545,-98.62503281808344 -251.73462230754922,-96.79490579913076 -249.23462230754862,-96.12503281801808" stroke="#008000" stroke-linecap="round" stroke-linejoin="round"/><polyline fill="none" points="-268.8239998960185,-103.81284936850955 -266.32399989600054,-104.48272234955746 -264.49387287704786,-106.31284936846275 -263.8239998959352,-108.81284936846335 -264.49387287698306,-111.3128493684813 -266.32399989588833,-113.14297638743398 -268.82399989588896,-113.81284936854665 -271.3239998959069,-113.14297638749873 -273.1541269148596,-111.31284936859346 -273.8239998959723,-108.81284936859286 -273.1541269149244,-106.31284936857492 -271.32399989601913,-104.48272234962224 -268.8239998960185,-103.81284936850956" stroke="#ffa500" stroke-linecap="round" stroke-linejoin="round"/><polyline fill="none" points="298.6681003969402,-144.83655051501012 301.16810039695815,-145.50642349605803 302.99822741591083,-147.3365505149633 303.6681003970235,-149.8365505149639 302.99822741597563,-152.33655051498187 301.16810039707036,-154.16667753393455 298.66810039706974,-154.8365505150472 296.1681003970518,-154.1666775339993 294.3379733780991,-152.33655051509402 293.6681003969864,-149.83655051509342 294.3379733780343,-147.33655051507546 296.16810039693956,-145.50642349612278 298.6681003969402,-144.83655051501012" stroke="#ffa500" stroke-linecap="round" stroke-linejoin="round"/></svg>