<?xml version="1.0" ?><!DOCTYPE svg  PUBLIC '-//W3C//DTD SVG 1.1//EN'  'http://www.w3.org/Graphics/SVG/1.1/DTD/svg11.dtd'><svg height="478.000" viewBox="-369.000 -221.000 594.000 478.000" width="594.000" xmlns="http://www.w3.org/2000/svg"><line fill="none" stroke="none" stroke-linecap="round" stroke-width="2.0" x1="0.0" x2="0.0" y1="0.0" y2="0.0"/><polygon fill="none" fill-rule="evenodd" points="0.0,0.0 0.0,0.0 0.0,0.0" stroke-linejoin="round"/><polyline fill="none" points="27.28602647725699,112.36112463489158 29.78602647727558,111.6912516538447 31.616153496229337,109.86112463494 32.28602647734323,107.36112463493936 31.61615349629635,104.86112463492077 29.786026477391644,103.03099761596701 27.286026477391008,102.36112463485313 24.786026477372417,103.0309976159 22.955899458418656,104.86112463480471 22.286026477304766,107.36112463480535 22.95589945835164,109.86112463482394 24.786026477256346,111.6912516537777 27.286026477256982,112.3611246348916" stroke="#ffa500" stroke-linecap="round" stroke-linejoin="round"/><polyline fill="none" points="-1.6933881544506009,50.79448981098914 0.8066118455679931,50.12461682994226 2.636738864521755,48.29448981103756 3.306611845635646,45.79448981103692 2.636738864588771,43.29448981101832 0.8066118456840683,41.46436279206456 -1.693388154316569,40.79448981095067 -4.193388154335164,41.464362791997544 -6.023515173288927,43.29448981090225 -6.69338815440282,45.79448981090289 -6.023515173355946,48.29448981092148 -4.193388154451244,50.124616829875244 -1.693388154450607,50.794489810989134" stroke="#ffa500" stroke-linecap="round" stroke-linejoin="round"/><polyline fill="none" points="146.73495327063793,-113.03043959615444 149.23495327065652,-113.70031257720132 151.06508028961028,-115.53043959610602 151.73495327072416,-118.03043959610666 151.0650802896773,-120.53043959612526 149.2349532707726,-122.36056661507902 146.73495327077197,-123.03043959619292 144.23495327075338,-122.36056661514604 142.40482625179962,-120.53043959624134 141.73495327068574,-118.0304395962407 142.4048262517326,-115.5304395962221 144.2349532706373,-113.70031257726833 146.73495327063793,-113.03043959615444" stroke="#ffa500" stroke-linecap="round" stroke-linejoin="round"/><polyline fill="none" points="-183.66963890477646,-104.21901183434608 -181.16963890475787,-104.88888481539294 -179.33951188580411,-106.71901183429765 -178.66963890469023,-109.21901183429829 -179.3395118857371,-111.71901183431689 -181.1696389046418,-113.54913885327065 -183.66963890464243,-114.21901183438455 -186.169638904661,-113.54913885333768 -187.99976592361477,-111.71901183443298 -188.66963890472869,-109.21901183443234 -187.99976592368182,-106.71901183441373 -186.16963890477712,-104.88888481545996 -183.6696389047765,-104.21901183434606" stroke="#ffa500" stroke-linecap="round" stroke-linejoin="round"/><polyline fill="none" points="-198.35554629606534,-37.89133980726112 -195.85554629604675,-38.56121278830799 -194.025419277093,-40.39133980721269 -193.35554629597908,-42.89133980721333 -194.02541927702595,-45.39133980723192 -195.85554629593065,-47.22146682618569 -198.35554629593128,-47.89133980729959 -200.85554629594986,-47.22146682625272 -202.68567331490362,-45.391339807348025 -203.35554629601754,-42.891339807347386 -202.68567331497067,-40.39133980732879 -200.85554629606597,-38.56121278837502 -198.35554629606534,-37.89133980726112" stroke="#00f" stroke-linecap="round" stroke-linejoin="round"/><polyline fill="none" points="-340.71434387927656,-67.28769292832536 -338.21434387925797,-67.95756590937222 -336.3842168603042,-69.78769292827691 -335.7143438791903,-72.28769292827755 -336.3842168602372,-74.78769292829615 -338.2143438791419,-76.61781994724993 -340.7143438791425,-77.28769292836382 -343.2143438791611,-76.61781994731696 -345.04447089811487,-74.78769292841227 -345.71434387922875,-72.28769292841163 -345.0444708981819,-69.78769292839303 -343.2143438792772,-67.95756590943925 -340.71434387927656,-67.28769292832536" stroke="#00f" stroke-linecap="round" stroke-linejoin="round"/><polyline fill="none" points="168.2018356143724,-115.17458467329804 170.701835614391,-115.84445765434491 172.53196263334476,-117.6745846732496 173.20183561445867,-120.17458467325024 172.5319626334118,-122.67458467326884 170.7018356145071,-124.50471169222261 168.20183561450648,-125.17458467333653 165.7018356144879,-124.50471169228966 163.87170859553413,-122.67458467338497 163.20183561442022,-120.17458467338433 163.87170859546708,-117.67458467336573 165.7018356143718,-115.84445765441195 168.2018356143724,-115.17458467329804" stroke="#ffa500" stroke-linecap="round" stroke-linejoin="round"/><polyline fill="none" points="88.97401067781203,-195.88937870132827 91.47401067783063,-196.55925168237513 93.30413769678441,-198.38937870127984 93.97401067789832,-200.88937870128046 93.30413769685146,-203.38937870129908 91.47401067794677,-205.21950572025287 88.97401067794613,-205.88937870136678 86.47401067792752,-205.21950572031992 84.64388365897375,-203.3893787014152 83.97401067785984,-200.88937870141459 84.6438836589067,-198.38937870139597 86.47401067781139,-196.55925168244218 88.97401067781203,-195.88937870132827" stroke="#ffa500" stroke-linecap="round" stroke-linejoin="round"/><polyline fill="none" points="-348.28606697293,-66.37290132715174 -345.7860669729114,-67.0427743081986 -343.9559399539576,-68.87290132710329 -343.28606697284374,-71.37290132710393 -343.9559399538906,-73.87290132712253 -345.7860669727953,-75.70302834607631 -348.28606697279594,-76.37290132719022 -350.7860669728145,-75.70302834614336 -352.6161939917683,-73.87290132723867 -353.2860669728822,-71.37290132723803 -352.61619399183536,-68.87290132721942 -350.78606697293066,-67.04277430826565 -348.28606697293003,-66.37290132715174" stroke="#00f" stroke-linecap="round" stroke-linejoin="round"/><polyline fill="none" points="-237.10896179941966,58.390000189514296 -234.60896179940104,57.72012720846744 -232.77883478044726,55.89000018956275 -232.10896179933334,53.39000018956211 -232.7788347803802,50.8900001895435 -234.6089617992849,49.05987317058972 -237.10896179928554,48.390000189475806 -239.60896179930415,49.059873170522664 -241.43908881825794,50.890000189427354 -242.10896179937185,53.390000189427994 -241.439088818325,55.8900001894466 -239.60896179942029,57.720127208400385 -237.10896179941966,58.3900001895143" stroke="#00f" stroke-linecap="round" stroke-linejoin="round"/><polyline fill="none" points="102.67629204532835,160.23180135893122 105.17629204534695,159.56192837788436 107.00641906430074,157.73180135897965 107.67629204541466,155.23180135897903 107.0064190643678,152.7318013589604 105.17629204546311,150.90167434000662 102.67629204546247,150.2318013588927 100.17629204544387,150.90167433993958 98.34616502649008,152.73180135884428 97.67629204537617,155.2318013588449 98.34616502642302,157.73180135886352 100.17629204532771,159.5619283778173 102.67629204532835,160.23180135893122" stroke="#ffa500" stroke-linecap="round" stroke-linejoin="round"/><polyline fill="none" points="84.67093753851569,96.56783128232014 87.1709375385343,95.89795830127329 89.00106455748809,94.0678312823686 89.670937538602,91.56783128236796 89.00106455755515,89.06783128234935 87.17093753865046,87.23770426339556 84.67093753864982,86.56783128228163 82.17093753863121,87.23770426332848 80.34081051967742,89.06783128223317 79.67093753856349,91.56783128223381 80.34081051961034,94.06783128225243 82.17093753851503,95.89795830120622 84.67093753851567,96.56783128232014" stroke="#ffa500" stroke-linecap="round" stroke-linejoin="round"/><polyline fill="none" points="121.63346085075703,-146.7367372673288 124.13346085077565,-147.40661024837564 125.96358786972944,-149.23673726728032 126.63346085084336,-151.73673726728094 125.96358786979651,-154.23673726729956 124.13346085089182,-156.06686428625335 121.63346085089118,-156.73673726736726 119.13346085087257,-156.06686428632042 117.30333383191878,-154.23673726741575 116.63346085080485,-151.73673726741512 117.3033338318517,-149.2367372673965 119.13346085075639,-147.40661024844272 121.63346085075703,-146.7367372673288" stroke="#ffa500" stroke-linecap="round" stroke-linejoin="round"/><polyline fill="none" points="-126.6774255053352,-106.49303156128371 -124.17742550531658,-107.16290454233057 -122.34729848636279,-108.99303156123526 -121.67742550524886,-111.4930315612359 -122.34729848629571,-113.99303156125451 -124.1774255052004,-115.8231585802083 -126.67742550520104,-116.49303156132223 -129.17742550521965,-115.82315858027538 -131.00755252417343,-113.99303156137069 -131.67742550528737,-111.49303156137005 -131.00755252424054,-108.99303156135143 -129.17742550533586,-107.16290454239764 -126.67742550533522,-106.49303156128371" stroke="#00f" stroke-linecap="round" stroke-linejoin="round"/><polyline fill="none" points="32.9372431471952,244.81153771974056 35.43724314721381,244.14166473869372 37.26737016616761,242.31153771978904 37.937243147281535,239.81153771978842 37.26737016623469,237.3115377197698 35.43724314733001,235.481410700816 32.93724314732937,234.81153771970207 30.437243147310756,235.4814107007489 28.60711612835696,237.3115377196536 27.93724314724303,239.8115377196542 28.607116128289874,242.31153771967283 30.437243147194557,244.14166473862662 32.9372431471952,244.81153771974056" stroke="#ffa500" stroke-linecap="round" stroke-linejoin="round"/><polyline fill="none" points="36.15050006273583,-130.4861141537914 38.650500062754446,-131.15598713483823 40.48062708170824,-132.9861141537429 41.150500062822175,-135.48611415374353 40.48062708177533,-137.98611415376214 38.65050006287065,-139.81624117271593 36.15050006287001,-140.48611415382987 33.65050006285139,-139.81624117278304 31.820373043897593,-137.98611415387836 31.15050006278366,-135.48611415387774 31.8203730438305,-132.98611415385912 33.65050006273518,-131.15598713490533 36.15050006273582,-130.4861141537914" stroke="#ffa500" stroke-linecap="round" stroke-linejoin="round"/><polyline fill="none" points="-247.33291586644364,-79.18219496965233 -244.83291586642503,-79.85206795069917 -243.00278884747124,-81.68219496960386 -242.3329158663573,-84.1821949696045 -243.00278884740413,-86.68219496962311 -244.8329158663088,-88.51232198857691 -247.33291586630943,-89.18219496969085 -249.83291586632805,-88.51232198864402 -251.66304288528184,-86.68219496973934 -252.33291586639578,-84.1821949697387 -251.66304288534894,-81.68219496972009 -249.83291586644427,-79.85206795076628 -247.33291586644364,-79.18219496965234" stroke="#008000" stroke-linecap="round" stroke-linejoin="round"/><polyline fill="none" points="25.49360442995251,16.121001930437373 27.99360442997113,15.451128949390535 29.82373144892493,13.621001930485852 30.493604430038868,11.121001930485212 29.82373144899203,8.621001930466594 27.99360443008735,6.790874911512792 25.49360443008671,6.121001930398855 22.99360443006809,6.790874911445693 21.163477411114286,8.621001930350374 20.49360443000035,11.121001930351014 21.163477411047186,13.621001930369633 22.99360442995187,15.451128949323437 25.49360442995251,16.121001930437373" stroke="#ffa500" stroke-linecap="round" stroke-linejoin="round"/><polyline fill="none" points="-286.03942499335403,-100.36385712673057 -283.5394249933354,-101.0337301077774 -281.70929797438157,-102.86385712668208 -281.03942499326763,-105.36385712668272 -281.70929797431444,-107.86385712670133 -283.53942499321914,-109.69398414565514 -286.03942499321977,-110.36385712676908 -288.5394249932384,-109.69398414572224 -290.36955201219223,-107.86385712681756 -291.03942499330617,-105.36385712681692 -290.36955201225936,-102.86385712679831 -288.53942499335466,-101.0337301078445 -286.03942499335403,-100.36385712673057" stroke="#00f" stroke-linecap="round" stroke-linejoin="round"/><polyline fill="none" points="63.13139577272751,-185.1703266803962 65.63139577274613,-185.84019966144302 67.46152279169993,-187.6703266803477 68.13139577281387,-190.17032668034835 67.46152279176704,-192.67032668036697 65.63139577286236,-194.5004536993208 63.13139577286172,-195.17032668043473 60.6313957728431,-194.5004536993879 58.80126875388929,-192.6703266804832 58.13139577277535,-190.17032668048256 58.80126875382218,-187.67032668046394 60.63139577272686,-185.84019966151013 63.1313957727275,-185.1703266803962" stroke="#00f" stroke-linecap="round" stroke-linejoin="round"/><polyline fill="none" points="73.96815469736867,-63.81115212561953 76.46815469738729,-64.48102510666637 78.2982817163411,-66.31115212557104 78.96815469745503,-68.81115212557168 78.2982817164082,-71.31115212559031 76.46815469750352,-73.14127914454411 73.96815469750288,-73.81115212565805 71.46815469748425,-73.14127914461122 69.63802767853043,-71.31115212570654 68.9681546974165,-68.8111521257059 69.63802767846333,-66.31115212568727 71.468154697368,-64.48102510673345 73.96815469736865,-63.81115212561951" stroke="#ffa500" stroke-linecap="round" stroke-linejoin="round"/><polyline fill="none" points="-148.31780084905077,25.93508963448259 -145.81780084903215,25.26521665343576 -143.98767383007834,23.43508963453108 -143.3178008489644,20.935089634530442 -143.98767383001123,18.43508963451182 -145.8178008489159,16.604962615558005 -148.31780084891656,15.935089634444058 -150.81780084893518,16.604962615490887 -152.647927867889,18.435089634395563 -153.31780084900294,20.935089634396203 -152.6479278679561,23.43508963441483 -150.81780084905142,25.265216653368643 -148.31780084905077,25.93508963448259" stroke="#ffa500" stroke-linecap="round" stroke-linejoin="round"/><polyline fill="none" points="83.22554575350333,-144.99384001909112 85.72554575352196,-145.66371300013796 87.55567277247577,-147.49384001904264 88.22554575358973,-149.9938400190433 87.5556727725429,-152.4938400190619 85.72554575363823,-154.32396703801572 83.22554575363759,-154.99384001912966 80.72554575361896,-154.32396703808283 78.89541873466514,-152.49384001917815 78.22554575355119,-149.9938400191775 78.89541873459801,-147.49384001915888 80.72554575350269,-145.66371300020506 83.22554575350333,-144.99384001909112" stroke="#ffa500" stroke-linecap="round" stroke-linejoin="round"/><polyline fill="none" points="-165.8891962535051,64.46776491532711 -163.3891962534865,63.79789193428029 -161.55906923453267,61.96776491537561 -160.88919625341873,59.46776491537497 -161.55906923446557,56.96776491535634 -163.38919625337024,55.13763789640252 -165.8891962533709,54.46776491528857 -168.3891962533895,55.13763789633539 -170.21932327234333,56.96776491524007 -170.88919625345727,59.46776491524071 -170.21932327241043,61.96776491525934 -168.38919625350576,63.797891934213155 -165.8891962535051,64.46776491532711" stroke="#00f" stroke-linecap="round" stroke-linejoin="round"/><polyline fill="none" points="138.8551058860354,-101.72268320832096 141.35510588605402,-102.39255618936778 143.18523290500784,-104.22268320827246 143.8551058861218,-106.7226832082731 143.185232905075,-109.22268320829173 141.35510588617032,-111.05281022724554 138.85510588616967,-111.7226832083595 136.35510588615105,-111.05281022731268 134.52497886719723,-109.222683208408 133.85510588608327,-106.72268320840736 134.52497886713007,-104.22268320838873 136.35510588603475,-102.39255618943491 138.8551058860354,-101.72268320832096" stroke="#00f" stroke-linecap="round" stroke-linejoin="round"/><polyline fill="none" points="187.457058259332,-126.76790745076553 189.95705825935062,-127.43778043181236 191.78718527830443,-129.26790745071702 192.4570582594184,-131.76790745071767 191.7871852783716,-134.2679074507363 189.95705825946692,-136.0980344696901 187.45705825946627,-136.76790745080407 184.95705825944762,-136.09803446975727 183.1269312404938,-134.2679074508526 182.45705825937983,-131.76790745085194 183.12693124042664,-129.2679074508333 184.95705825933132,-127.43778043187947 187.45705825933197,-126.76790745076552" stroke="#00f" stroke-linecap="round" stroke-linejoin="round"/><polyline fill="none" points="76.11082363609563,100.7431729576793 78.61082363611426,100.07329997663248 80.44095065506808,98.24317295772781 81.11082363618203,95.74317295772717 80.44095065513521,93.24317295770854 78.61082363623053,91.41304593875472 76.1108236362299,90.74317295764077 73.61082363621126,91.41304593868759 71.78069661725743,93.24317295759226 71.11082363614346,95.7431729575929 71.78069661719029,98.24317295761153 73.61082363609496,100.07329997656537 76.1108236360956,100.74317295767933" stroke="#ffa500" stroke-linecap="round" stroke-linejoin="round"/><polyline fill="none" points="63.65603802890247,42.215072668010336 66.1560380289211,41.54519968696352 67.98616504787493,39.71507266805885 68.6560380289889,37.21507266805821 67.9861650479421,34.71507266803958 66.15603802903743,32.88494564908576 63.65603802903679,32.215072667971796 61.15603802901816,32.88494564901861 59.32591101006434,34.71507266792328 58.65603802895037,37.21507266792392 59.325911009997185,39.71507266794256 61.156038028901854,41.54519968689639 63.65603802890249,42.21507266801036" stroke="#ffa500" stroke-linecap="round" stroke-linejoin="round"/><polyline fill="none" points="-90.23753788574832,-96.18426695194601 -87.7375378857297,-96.85413993299282 -85.90741086677586,-98.68426695189748 -85.2375378856619,-101.18426695189812 -85.9074108667087,-103.68426695191675 -87.73753788561336,-105.51439397087059 -90.237537885614,-106.18426695198455 -92.73753788563263,-105.51439397093775 -94.56766490458647,-103.68426695203308 -95.23753788570043,-101.18426695203244 -94.56766490465363,-98.68426695201381 -92.73753788574896,-96.85413993305998 -90.23753788574832,-96.18426695194601" stroke="#ffa500" stroke-linecap="round" stroke-linejoin="round"/><polyline fill="none" points="-162.48925103327952,36.54139025251697 -159.98925103326087,35.87151727147016 -158.15912401430705,34.04139025256549 -157.48925103319309,31.54139025256485 -158.1591240142399,29.04139025254621 -159.98925103314457,27.21126323359238 -162.48925103314522,26.541390252478408 -164.98925103316387,27.211263233525216 -166.8193780521177,29.04139025242988 -167.48925103323168,31.541390252430524 -166.81937805218487,34.04139025244916 -164.9892510332802,35.87151727140299 -162.48925103327954,36.54139025251696" stroke="#ffa500" stroke-linecap="round" stroke-linejoin="round"/><polyline fill="none" points="-277.878150206397,16.1566067963158 -275.37815020637834,15.486733815268991 -273.5480231874245,13.656606796364324 -272.8781502063105,11.156606796363683 -273.54802318735733,8.656606796345045 -275.378150206262,6.82647977739121 -277.8781502062626,6.156606796277237 -280.37815020628125,6.826479777324043 -282.20827722523507,8.656606796228708 -282.87815020634906,11.15660679622935 -282.20827722530225,13.656606796247988 -280.3781502063976,15.486733815201823 -277.878150206397,16.1566067963158" stroke="#ffa500" stroke-linecap="round" stroke-linejoin="round"/><polyline fill="none" points="-49.61504360705821,-127.95298829960436 -47.115043607039574,-128.62286128065116 -45.284916588085736,-130.45298829955584 -44.61504360697176,-132.9529882995565 -45.28491658801857,-135.45298829957514 -47.11504360692323,-137.28311531852898 -49.61504360692387,-137.95298829964295 -52.11504360694251,-137.28311531859615 -53.945170625896345,-135.45298829969147 -54.61504360701032,-132.95298829969082 -53.94517062596352,-130.45298829967217 -52.11504360705886,-128.62286128071833 -49.61504360705822,-127.95298829960434" stroke="#00f" stroke-linecap="round" stroke-linejoin="round"/><polyline fill="none" points="-330.79598782266623,-48.751521353681845 -328.2959878226476,-49.421394334728646 -326.4658608036938,-51.25152135363331 -325.7959878225798,-53.75152135363395 -326.4658608036266,-56.25152135365259 -328.29598782253123,-58.08164837260643 -330.79598782253186,-58.751521353720406 -333.2959878225505,-58.081648372673605 -335.1261148415043,-56.25152135376894 -335.7959878226183,-53.751521353768304 -335.1261148415715,-51.25152135374966 -333.29598782266686,-49.42139433479582 -330.79598782266623,-48.75152135368184" stroke="#ffa500" stroke-linecap="round" stroke-linejoin="round"/><polyline fill="none" points="-212.0652705237119,102.84246745640735 -209.56527052369324,102.17259447536054 -207.7351435047394,100.34246745645588 -207.06527052362543,97.84246745645524 -207.73514350467224,95.3424674564366 -209.5652705235769,93.51234043748275 -212.06527052357757,92.84246745636877 -214.5652705235962,93.51234043741556 -216.39539754255006,95.34246745632022 -217.06527052366403,97.84246745632086 -216.39539754261722,100.3424674563395 -214.56527052371254,102.17259447529335 -212.0652705237119,102.84246745640733" stroke="#ffa500" stroke-linecap="round" stroke-linejoin="round"/><polyline fill="none" points="143.7181160937021,175.02774177230143 146.21811609372074,174.35786879125462 148.04824311267458,172.52774177234994 148.71811609378858,170.0277417723493 148.04824311274177,167.52774177233064 146.21811609383712,165.6976147533768 143.71811609383647,165.0277417722628 141.21811609381783,165.6976147533096 139.38798907486398,167.52774177221426 138.71811609374998,170.0277417722149 139.3879890747968,172.52774177223355 141.21811609370144,174.3578687911874 143.7181160937021,175.0277417723014" stroke="#ffa500" stroke-linecap="round" stroke-linejoin="round"/><polyline fill="none" points="-263.5591118579069,-65.09501220957979 -261.05911185788824,-65.76488519062659 -259.22898483893437,-67.59501220953125 -258.55911185782037,-70.09501220953189 -259.2289848388672,-72.59501220955053 -261.0591118577718,-74.42513922850438 -263.55911185777245,-75.09501220961836 -266.0591118577911,-74.42513922857157 -267.88923887674497,-72.5950122096669 -268.55911185785897,-70.09501220966627 -267.88923887681216,-67.59501220964762 -266.0591118579075,-65.76488519069378 -263.5591118579069,-65.09501220957979" stroke="#f00" stroke-linecap="round" stroke-linejoin="round"/><polyline fill="none" points="72.8490575720031,-144.47544224429333 75.34905757202175,-145.1453152253401 77.1791845909756,-146.97544224424476 77.84905757208958,-149.47544224424541 77.17918459104278,-151.97544224426406 75.34905757213812,-153.8055692632179 72.84905757213748,-154.4754422443319 70.34905757211884,-153.80556926328512 68.51893055316499,-151.97544224438047 67.849057572051,-149.47544224437982 68.51893055309779,-146.97544224436118 70.34905757200245,-145.14531522540733 72.84905757200309,-144.47544224429333" stroke="#ffa500" stroke-linecap="round" stroke-linejoin="round"/><polyline fill="none" points="169.32256299042183,-122.22511869356094 171.82256299044047,-122.89499167460774 173.65269000939432,-124.7251186935124 174.32256299050832,-127.22511869351304 173.65269000946154,-129.7251186935317 171.8225629905569,-131.55524571248554 169.32256299055624,-132.22511869359954 166.8225629905376,-131.55524571255276 164.99243597158375,-129.7251186936481 164.32256299046975,-127.22511869364747 164.99243597151653,-124.72511869362883 166.82256299042118,-122.89499167467497 169.32256299042183,-122.22511869356097" stroke="#ffa500" stroke-linecap="round" stroke-linejoin="round"/><polyline fill="none" points="208.28414222980808,-115.30011747461306 210.78414222982673,-115.96999045565985 212.61426924878057,-117.80011747456452 213.28414222989457,-120.30011747456516 212.6142692488478,-122.8001174745838 210.78414222994314,-124.63024449353766 208.2841422299425,-125.30011747465166 205.78414222992384,-124.63024449360486 203.95401521097,-122.8001174747002 203.284142229856,-120.30011747469956 203.95401521090278,-117.8001174746809 205.78414222980743,-115.96999045572704 208.28414222980808,-115.30011747461305" stroke="#ffa500" stroke-linecap="round" stroke-linejoin="round"/><polyline fill="none" points="-265.27352638838425,-20.99802490430377 -262.7735263883656,-21.667897885350555 -260.94339936941174,-23.49802490425521 -260.27352638829774,-25.998024904255853 -260.94339936934455,-28.49802490427451 -262.7735263882492,-30.32815192322837 -265.2735263882498,-30.99802490434237 -267.77352638826846,-30.328151923295582 -269.60365340722234,-28.498024904390928 -270.27352638833634,-25.998024904390284 -269.6036534072895,-23.49802490437163 -267.7735263883849,-21.66789788541777 -265.27352638838425,-20.99802490430377" stroke="#00f" stroke-linecap="round" stroke-linejoin="round"/><polyline fill="none" points="59.43257902568083,-173.37467744167432 61.93257902569948,-174.0445504227211 63.76270604465334,-175.87467744162575 64.43257902576734,-178.3746774416264 63.76270604472055,-180.87467744164505 61.9325790258159,-182.70480446059892 59.43257902581525,-183.37467744171292 56.9325790257966,-182.70480446066614 55.10245200684274,-180.8746774417615 54.432579025728735,-178.37467744176084 55.10245200677552,-175.8746774417422 56.93257902568018,-174.04455042278832 59.43257902568082,-173.37467744167432" stroke="#ffa500" stroke-linecap="round" stroke-linejoin="round"/><polyline fill="none" points="37.163690899988296,-87.20970762468947 39.663690900006955,-87.87958060573625 41.493817918960815,-89.7097076246409 42.16369090007482,-92.20970762464154 41.49381791902804,-94.7097076246602 39.663690900123385,-96.53983464361406 37.16369090012274,-97.20970762472805 34.66369090010408,-96.53983464368127 32.83356388115022,-94.70970762477663 32.163690900036215,-92.20970762477599 32.833563881082995,-89.70970762475733 34.66369089998765,-87.87958060580347 37.163690899988296,-87.20970762468946" stroke="#ffa500" stroke-linecap="round" stroke-linejoin="round"/><polyline fill="none" points="136.81994837482208,138.03433968170205 139.31994837484072,137.36446670065527 141.1500753937946,135.53433968175062 141.8199483749086,133.03433968174997 141.1500753938618,130.53433968173132 139.31994837495716,128.70421266277745 136.8199483749565,128.03433968166345 134.31994837493787,128.70421266271023 132.489821355984,130.53433968161488 131.81994837487,133.03433968161553 132.48982135591677,135.53433968163418 134.31994837482142,137.36446670058805 136.81994837482208,138.03433968170205" stroke="#ffa500" stroke-linecap="round" stroke-linejoin="round"/><polyline fill="none" points="64.36304922536405,232.19285895337765 66.86304922538271,231.52298597233087 68.69317624433657,229.69285895342622 69.36304922545058,227.19285895342557 68.6931762444038,224.69285895340693 66.86304922549915,222.86273193445305 64.36304922549851,222.19285895333906 61.863049225479855,222.86273193438583 60.03292220652599,224.69285895329048 59.36304922541198,227.19285895329114 60.03292220645875,229.6928589533098 61.8630492253634,231.52298597226368 64.36304922536404,232.19285895337768" stroke="#ffa500" stroke-linecap="round" stroke-linejoin="round"/><polyline fill="none" points="-218.9022900366415,-96.44851746844842 -216.40229003662282,-97.1183904494952 -214.57216301766894,-98.94851746839984 -213.90229003655492,-101.44851746840048 -214.5721630176017,-103.94851746841914 -216.40229003650634,-105.77864448737301 -218.902290036507,-106.44851746848703 -221.40229003652567,-105.77864448744025 -223.23241705547954,-103.9485174685356 -223.90229003659357,-101.44851746853496 -223.2324170555468,-98.9485174685163 -221.40229003664214,-97.11839044956243 -218.9022900366415,-96.44851746844842" stroke="#00f" stroke-linecap="round" stroke-linejoin="round"/><polyline fill="none" points="-245.79447721114934,95.01114097286484 -243.29447721113067,94.34126799181806 -241.4643501921768,92.51114097291341 -240.79447721106277,90.01114097291277 -241.46435019210955,87.51114097289411 -243.2944772110142,85.68101395394024 -245.79447721101485,85.01114097282623 -248.29447721103352,85.68101395387299 -250.1246042299874,87.51114097277764 -250.79447721110142,90.01114097277828 -250.12460423005464,92.51114097279694 -248.29447721115,94.34126799175081 -245.79447721114934,95.01114097286482" stroke="#00f" stroke-linecap="round" stroke-linejoin="round"/><polyline fill="none" points="143.9850768866258,150.09928040829138 146.48507688664446,149.4294074272446 148.31520390559834,147.59928040833995 148.98507688671236,145.0992804083393 148.31520390566558,142.59928040832062 146.48507688676094,140.76915338936675 143.98507688676028,140.09928040825272 141.4850768867416,140.7691533892995 139.65494986778774,142.59928040820415 138.9850768866737,145.0992804082048 139.6549498677205,147.59928040822348 141.48507688662514,149.42940742717735 143.9850768866258,150.09928040829138" stroke="#ffa500" stroke-linecap="round" stroke-linejoin="round"/><polyline fill="none" points="-271.09176632434196,0.2405656471824562 -268.5917663243233,-0.42930733386431197 -266.76163930536944,-2.2594343527689564 -266.09176632425545,-4.759434352769599 -266.7616393053022,-7.259434352788261 -268.59176632420684,-9.089561371742137 -271.09176632420747,-9.759434352856157 -273.5917663242261,-9.08956137180939 -275.42189334318,-7.259434352904747 -276.091766324294,-4.759434352904104 -275.42189334324723,-2.25943435288544 -273.5917663243426,-0.4293073339315632 -271.09176632434196,0.24056564718245776" stroke="#ffa500" stroke-linecap="round" stroke-linejoin="round"/><polyline fill="none" points="-178.23746936315888,-93.16904920514592 -175.7374693631402,-93.83892218619269 -173.90734234418633,-95.66904920509734 -173.2374693630723,-98.16904920509798 -173.90734234411906,-100.66904920511664 -175.7374693630237,-102.49917622407051 -178.23746936302436,-103.16904920518454 -180.73746936304303,-102.49917622413777 -182.5675963819969,-100.66904920523312 -183.23746936311093,-98.16904920523248 -182.56759638206418,-95.66904920521382 -180.73746936315953,-93.83892218625995 -178.23746936315888,-93.16904920514592" stroke="#00f" stroke-linecap="round" stroke-linejoin="round"/><polyline fill="none" points="163.77935340585032,-72.10446301818436 166.279353405869,-72.77433599923113 168.10948042482286,-74.60446301813577 168.7793534059369,-77.10446301813641 168.10948042489014,-79.60446301815509 166.2793534059855,-81.43459003710896 163.77935340598484,-82.10446301822299 161.27935340596616,-81.43459003717622 159.4492263870123,-79.60446301827157 158.77935340589826,-77.10446301827093 159.449226386945,-74.60446301825226 161.27935340584966,-72.77433599929837 163.77935340585032,-72.10446301818435" stroke="#ffa500" stroke-linecap="round" stroke-linejoin="round"/><polyline fill="none" points="12.423829854405327,29.68662106117975 14.923829854423994,29.016748080132988 16.753956873377877,27.186621061228347 17.423829854491906,24.686621061227704 16.753956873445144,22.18662106120904 14.923829854540504,20.356494042255154 12.42382985453986,19.686621061141125 9.923829854521193,20.356494042187883 8.09370283556731,22.186621061092524 7.423829854453281,24.686621061093167 8.093702835500041,27.186621061111836 9.92382985440468,29.01674808006572 12.423829854405323,29.68662106117975" stroke="#00f" stroke-linecap="round" stroke-linejoin="round"/><polyline fill="none" points="66.77682016537,125.62903287728734 69.27682016538867,124.95915989624058 71.10694718434256,123.12903287733594 71.77682016545658,120.6290328773353 71.10694718440982,118.12903287731663 69.27682016550519,116.29890585836274 66.77682016550455,115.62903287724872 64.27682016548587,116.29890585829547 62.446693146531985,118.1290328772001 61.77682016541795,120.62903287720074 62.44669314646471,123.12903287721942 64.27682016536934,124.9591598961733 66.77682016536998,125.62903287728733" stroke="#ffa500" stroke-linecap="round" stroke-linejoin="round"/><polyline fill="none" points="-269.9327882372012,-121.22788733256091 -267.43278823718254,-121.89776031360766 -265.60266121822866,-123.7278873325123 -264.9327882371146,-126.22788733251294 -265.60266121816136,-128.7278873325316 -267.432788237066,-130.5580143514855 -269.93278823706663,-131.22788733259952 -272.4327882370853,-130.55801435155277 -274.26291525603915,-128.72788733264812 -274.9327882371532,-126.22788733264748 -274.26291525610645,-123.72788733262881 -272.4327882372018,-121.89776031367492 -269.9327882372012,-121.22788733256088" stroke="#ffa500" stroke-linecap="round" stroke-linejoin="round"/><polyline fill="none" points="-109.83178922047908,-104.74180746688351 -107.33178922046041,-105.41168044793027 -105.50166220150652,-107.2418074668349 -104.83178922039248,-109.74180746683554 -105.50166220143923,-112.24180746685421 -107.33178922034386,-114.0719344858081 -109.8317892203445,-114.74180746692214 -112.33178922036318,-114.07193448587539 -114.16191623931707,-112.24180746697076 -114.8317892204311,-109.74180746697012 -114.16191623938435,-107.24180746695144 -112.33178922047972,-105.41168044799755 -109.83178922047908,-104.74180746688351" stroke="#ffa500" stroke-linecap="round" stroke-linejoin="round"/><polyline fill="none" points="-202.02886024544307,36.054610158628236 -199.5288602454244,35.384737177581485 -197.6987332264705,33.55461015867685 -197.02886024535647,31.05461015867621 -197.69873322640322,28.554610158657535 -199.52886024530787,26.724483139703644 -202.02886024530852,26.054610158589604 -204.5288602453272,26.724483139636355 -206.3589872642811,28.55461015854099 -207.02886024539512,31.05461015854163 -206.35898726434837,33.55461015856031 -204.52886024544375,35.384737177514204 -202.0288602454431,36.05461015862824" stroke="#ffa500" stroke-linecap="round" stroke-linejoin="round"/><polyline fill="none" points="41.44250869004919,108.65057805312382 43.94250869006786,107.98070507207707 45.772635709021756,106.15057805317244 46.442508690135796,103.6505780531718 45.772635709089045,101.15057805315313 43.94250869018441,99.32045103419924 41.44250869018377,98.6505780530852 38.9425086901651,99.32045103413195 37.1123816712112,101.15057805303658 36.44250869009716,103.65057805303722 37.11238167114391,106.1505780530559 38.94250869004854,107.9807050720098 41.44250869004918,108.65057805312384" stroke="#00f" stroke-linecap="round" stroke-linejoin="round"/><polyline fill="none" points="6.135492029763488,209.30556841410686 8.635492029782164,208.6356954330601 10.46561904873606,206.8055684141555 11.135492029850104,204.30556841415483 10.465619048803358,201.80556841413616 8.635492029898726,199.97544139518226 6.135492029898083,199.3055684140682 3.635492029879407,199.97544139511496 1.8053650109255088,201.80556841401958 1.1354920298114635,204.30556841402023 1.8053650108582082,206.8055684140389 3.6354920297628386,208.6356954329928 6.135492029763482,209.30556841410686" stroke="#ffa500" stroke-linecap="round" stroke-linejoin="round"/><polyline fill="none" points="-140.88016347510177,-26.599198077645042 -138.3801634750831,-27.269071058691786 -136.5500364561292,-29.099198077596416 -135.88016347501514,-31.59919807759706 -136.5500364560619,-34.09919807761574 -138.3801634749665,-35.92932509656964 -140.88016347496716,-36.59919807768369 -143.38016347498584,-35.929325096636944 -145.21029049393974,-34.09919807773232 -145.8801634750538,-31.599198077731675 -145.21029049400704,-29.099198077712998 -143.38016347510242,-27.269071058759096 -140.88016347510177,-26.599198077645045" stroke="#00f" stroke-linecap="round" stroke-linejoin="round"/><polyline fill="none" points="-147.09213065757203,78.63828888076564 -144.59213065755335,77.9684158997189 -142.76200363859945,76.13828888081427 -142.0921306574854,73.63828888081363 -142.76200363853215,71.13828888079496 -144.59213065743677,69.30816186184106 -147.09213065743742,68.638288880727 -149.5921306574561,69.30816186177374 -151.42225767641,71.13828888067837 -152.09213065752405,73.63828888067901 -151.4222576764773,76.13828888069769 -149.59213065757268,77.96841589965159 -147.09213065757203,78.63828888076564" stroke="#ffa500" stroke-linecap="round" stroke-linejoin="round"/><polyline fill="none" points="33.57281856642149,25.685910871666138 36.07281856644017,25.016037890619398 37.90294558539407,23.18591087171477 38.572818566508126,20.68591087171413 37.90294558546139,18.185910871695448 36.07281856655676,16.355783852741542 33.572818566556116,15.685910871627488 31.072818566537435,16.355783852674225 29.24269154758353,18.18591087157885 28.572818566469476,20.685910871579495 29.242691547516213,23.185910871598175 31.07281856642084,25.01603789055208 33.57281856642148,25.685910871666135" stroke="#ffa500" stroke-linecap="round" stroke-linejoin="round"/><polyline fill="none" points="-222.83845121680744,-84.66877242046682 -220.33845121678877,-85.33864540151356 -218.50832419783487,-87.16877242041818 -217.8384512167208,-89.66877242041882 -218.50832419776754,-92.1687724204375 -220.33845121667215,-93.99889943939141 -222.8384512166728,-94.66877242050546 -225.33845121669148,-93.99889943945873 -227.16857823564538,-92.1687724205541 -227.83845121675944,-89.66877242055347 -227.16857823571272,-87.16877242053478 -225.3384512168081,-85.33864540158088 -222.83845121680744,-84.66877242046682" stroke="#008000" stroke-linecap="round" stroke-linejoin="round"/><polyline fill="none" points="-221.7630605769641,-87.41223068750733 -219.26306057694543,-88.08210366855407 -217.43293355799153,-89.91223068745869 -216.76306057687748,-92.41223068745933 -217.4329335579242,-94.91223068747802 -219.26306057682882,-96.74235770643193 -221.76306057682947,-97.41223068754599 -224.26306057684815,-96.74235770649925 -226.09318759580205,-94.91223068759463 -226.7630605769161,-92.41223068759399 -226.09318759586938,-89.9122306875753 -224.26306057696476,-88.08210366862139 -221.7630605769641,-87.41223068750733" stroke="#00f" stroke-linecap="round" stroke-linejoin="round"/><polyline fill="none" points="43.71921044983404,234.0241639485813 46.219210449852724,233.35429096753458 48.049337468806634,231.52416394862996 48.719210449920695,229.0241639486293 48.049337468873965,226.52416394861064 46.21921044996934,224.69403692965673 43.71921044996869,224.02416394854268 41.219210449950005,224.6940369295894 39.38908343099609,226.52416394849402 38.71921044988203,229.02416394849467 39.38908343092876,231.52416394851335 41.21921044983338,233.35429096746725 43.71921044983403,234.0241639485813" stroke="#00f" stroke-linecap="round" stroke-linejoin="round"/><polyline fill="none" points="-229.69780425843837,-15.126675118007178 -227.1978042584197,-15.796548099053908 -225.3676772394658,-17.62667511795853 -224.69780425835174,-20.126675117959174 -225.36767723939846,-22.62667511797786 -227.19780425830308,-24.456802136931778 -229.69780425830373,-25.126675118045842 -232.19780425832244,-24.456802136999116 -234.02793127727634,-22.626675118094493 -234.6978042583904,-20.12667511809385 -234.02793127734367,-17.626675118075163 -232.19780425843905,-15.796548099121246 -229.6978042584384,-15.12667511800718" stroke="#00f" stroke-linecap="round" stroke-linejoin="round"/><polyline fill="none" points="135.89848787842402,168.917103239956 138.39848787844272,168.24723025890927 140.22861489739665,166.41710324000465 140.8984878785107,163.917103240004 140.22861489746398,161.4171032399853 138.39848787855937,159.58697622103136 135.8984878785587,158.91710323991728 133.39848787854,159.586976220964 131.56836085958608,161.41710323986862 130.898487878472,163.91710323986928 131.56836085951872,166.41710323988798 133.39848787842334,168.2472302588419 135.898487878424,168.917103239956" stroke="#ffa500" stroke-linecap="round" stroke-linejoin="round"/><polyline fill="none" points="-168.54646295797346,-38.084092929080796 -166.04646295795476,-38.75396591012752 -164.21633593900083,-40.58409292903214 -163.54646295788675,-43.084092929032785 -164.21633593893347,-45.58409292905147 -166.0464629578381,-47.414219948005396 -168.54646295783874,-48.084092929119464 -171.04646295785744,-47.41421994807274 -172.87658997681137,-45.58409292916812 -173.54646295792546,-43.084092929167475 -172.87658997687873,-40.58409292914878 -171.04646295797411,-38.75396591019486 -168.54646295797346,-38.08409292908078" stroke="#ffa500" stroke-linecap="round" stroke-linejoin="round"/><polyline fill="none" points="119.07263677670284,-91.80063746006086 121.57263677672152,-92.47051044110758 123.40276379567544,-94.3006374600122 124.07263677678951,-96.80063746001284 123.40276379574279,-99.30063746003152 121.57263677683817,-101.13076447898544 119.07263677683753,-101.80063746009951 116.57263677681884,-101.13076447905279 114.74250975786491,-99.30063746014817 114.07263677675084,-96.80063746014753 114.74250975779756,-94.30063746012884 116.57263677670218,-92.47051044117491 119.07263677670282,-91.80063746006083" stroke="#ffa500" stroke-linecap="round" stroke-linejoin="round"/><polyline fill="none" points="-198.1299660011235,105.35370587051366 -195.6299660011048,104.68383288946694 -193.79983898215087,102.85370587056232 -193.1299660010368,100.35370587056168 -193.79983898208351,97.853705870543 -195.62996600098813,96.02357885158906 -198.1299660009888,95.35370587047498 -200.6299660010075,96.0235788515217 -202.46009301996142,97.85370587042632 -203.1299660010755,100.35370587042696 -202.46009302002878,102.85370587044565 -200.62996600112416,104.68383288939958 -198.1299660011235,105.35370587051366" stroke="#ffa500" stroke-linecap="round" stroke-linejoin="round"/><polyline fill="none" points="59.80697833072411,-73.41453610446838 62.3069783307428,-74.0844090855151 64.13710534969672,-75.91453610441972 64.80697833081081,-78.41453610442036 64.13710534976408,-80.91453610443905 62.30697833085947,-82.74466312339298 59.806978330858826,-83.41453610450706 57.30697833084013,-82.74466312346036 55.4768513118862,-80.91453610455574 54.80697833077212,-78.4145361045551 55.476851311818834,-75.91453610453641 57.306978330723446,-74.08440908558248 59.80697833072409,-73.4145361044684" stroke="#ffa500" stroke-linecap="round" stroke-linejoin="round"/><polyline fill="none" points="-269.58975689978735,-67.33114355902354 -267.08975689976864,-68.00101654007025 -265.2596298808147,-69.83114355897487 -264.58975689970066,-72.33114355897551 -265.25962988074735,-74.83114355899421 -267.08975689965195,-76.66127057794814 -269.58975689965257,-77.33114355906223 -272.0897568996713,-76.66127057801552 -273.9198839186252,-74.8311435591109 -274.5897568997393,-72.33114355911026 -273.9198839186926,-69.83114355909156 -272.08975689978803,-68.00101654013763 -269.5897568997874,-67.33114355902354" stroke="#008000" stroke-linecap="round" stroke-linejoin="round"/><polyline fill="none" points="-167.82727874919917,67.07826176343943 -165.32727874918046,66.40838878239272 -163.49715173022653,64.5782617634881 -162.82727874911245,62.078261763487454 -163.49715173015917,59.57826176346876 -165.3272787490638,57.74813474451483 -167.82727874906445,57.07826176340075 -170.32727874908315,57.748134744447455 -172.15740576803708,59.57826176335207 -172.82727874915116,62.078261763352714 -172.15740576810444,64.57826176337142 -170.32727874919982,66.40838878232535 -167.82727874919917,67.07826176343943" stroke="#00f" stroke-linecap="round" stroke-linejoin="round"/><polyline fill="none" points="-127.87975458079956,-16.397114610564543 -125.37975458078085,-17.06698759161125 -123.54962756182692,-18.897114610515864 -122.87975458071284,-21.39711461051651 -123.54962756175955,-23.897114610535212 -125.37975458066416,-25.72724162948915 -127.8797545806648,-26.39711461060324 -130.37975458068348,-25.72724162955653 -132.2098815996374,-23.89711461065192 -132.8797545807515,-21.397114610651272 -132.2098815997048,-18.89711461063257 -130.37975458080018,-17.066987591678632 -127.87975458079954,-16.397114610564543" stroke="#ffa500" stroke-linecap="round" stroke-linejoin="round"/><polyline fill="none" points="102.89074997073651,151.51552959591066 105.39074997075521,150.84565661486397 107.22087698970915,149.01552959595935 107.89074997082325,146.5155295959587 107.22087698977654,144.01552959594 105.39074997087194,142.18540257698606 102.8907499708713,141.51552959587198 100.3907499708526,142.18540257691868 98.56062295189865,144.0155295958233 97.89074997078455,146.51552959582395 98.56062295183126,149.01552959584265 100.39074997073587,150.84565661479658 102.89074997073651,151.51552959591066" stroke="#00f" stroke-linecap="round" stroke-linejoin="round"/><polyline fill="none" points="-353.1095853978808,-64.77670002986578 -350.6095853978621,-65.44657301091249 -348.77945837890815,-67.27670002981709 -348.10958539779404,-69.77670002981773 -348.77945837884073,-72.27670002983643 -350.6095853977453,-74.10682704879038 -353.10958539774595,-74.77670002990448 -355.60958539776465,-74.10682704885777 -357.4397124167186,-72.27670002995316 -358.1095853978327,-69.77670002995252 -357.439712416786,-67.27670002993382 -355.6095853978814,-65.44657301097988 -353.1095853978808,-64.77670002986578" stroke="#ffa500" stroke-linecap="round" stroke-linejoin="round"/><polyline fill="none" points="-207.72017817936486,102.65018792597628 -205.22017817934616,101.98031494492957 -203.39005116039223,100.15018792602497 -202.72017817927815,97.65018792602433 -203.39005116032484,95.15018792600563 -205.22017817922946,93.32006090705168 -207.72017817923012,92.65018792593759 -210.22017817924882,93.32006090698428 -212.05030519820275,95.15018792588889 -212.72017817931686,97.65018792588953 -212.05030519827017,100.15018792590823 -210.22017817936555,101.98031494486217 -207.7201781793649,102.65018792597627" stroke="#ffa500" stroke-linecap="round" stroke-linejoin="round"/><polyline fill="none" points="-269.7910307608388,115.39221599235532 -267.2910307608201,114.72234301130862 -265.46090374186616,112.89221599240402 -264.79103076075205,110.39221599240338 -265.46090374179875,107.89221599238468 -267.29103076070334,106.06208897343073 -269.79103076070396,105.39221599231664 -272.29103076072266,106.06208897336333 -274.1211577796766,107.89221599226794 -274.7910307607907,110.39221599226858 -274.121157779744,112.89221599228728 -272.2910307608394,114.72234301124122 -269.7910307608388,115.39221599235532" stroke="#ffa500" stroke-linecap="round" stroke-linejoin="round"/><polyline fill="none" points="-221.61032513812515,-80.70840661980992 -219.11032513810645,-81.37827960085662 -217.2801981191525,-83.20840661976122 -216.61032513803838,-85.70840661976186 -217.28019811908507,-88.20840661978056 -219.11032513798966,-90.0385336387345 -221.61032513799032,-90.7084066198486 -224.11032513800902,-90.03853363880191 -225.94045215696298,-88.2084066198973 -226.6103251380771,-85.70840661989666 -225.9404521570304,-83.20840661987796 -224.1103251381258,-81.37827960092402 -221.61032513812515,-80.7084066198099" stroke="#008000" stroke-linecap="round" stroke-linejoin="round"/><polyline fill="none" points="-323.90268129419877,-84.89899408291342 -321.40268129418007,-85.56886706396011 -319.57255427522614,-87.39899408286472 -318.902681294112,-89.89899408286536 -319.5725542751587,-92.39899408288406 -321.4026812940633,-94.229121101838 -323.90268129406394,-94.89899408295211 -326.40268129408264,-94.22912110190542 -328.23280831303657,-92.39899408300082 -328.9026812941507,-89.89899408300018 -328.232808313104,-87.39899408298147 -326.4026812941994,-85.56886706402753 -323.90268129419877,-84.89899408291342" stroke="#ffa500" stroke-linecap="round" stroke-linejoin="round"/><polyline fill="none" points="-242.22515955876912,-85.0057643593115 -239.72515955875042,-85.6756373403582 -237.89503253979646,-87.5057643592628 -237.22515955868235,-90.00576435926344 -237.89503253972904,-92.50576435928215 -239.72515955863364,-94.33589137823611 -242.2251595586343,-95.00576435935022 -244.725159558653,-94.33589137830353 -246.55528657760695,-92.50576435939892 -247.22515955872106,-90.00576435939828 -246.55528657767437,-87.50576435937957 -244.72515955876978,-85.67563734042561 -242.22515955876912,-85.0057643593115" stroke="#00f" stroke-linecap="round" stroke-linejoin="round"/><polyline fill="none" points="40.91069782927588,-136.9506721593476 43.41069782929459,-137.62054514039428 45.24082484824854,-139.45067215929888 45.910697829362654,-141.95067215929953 45.24082484831597,-144.45067215931823 43.41069782941137,-146.2807991782722 40.91069782941072,-146.9506721593863 38.410697829392014,-146.2807991783396 36.580570810438054,-144.45067215943502 35.910697829323944,-141.95067215943436 36.58057081037063,-139.45067215941566 38.41069782927523,-137.6205451404617 40.910697829275875,-136.9506721593476" stroke="#00f" stroke-linecap="round" stroke-linejoin="round"/><polyline fill="none" points="-315.1105236876393,-49.82542582407406 -312.61052368762057,-50.49529880512075 -310.78039666866664,-52.325425824025345 -310.11052368755253,-54.82542582402599 -310.7803966685992,-57.3254258240447 -312.6105236875038,-59.15555284299866 -315.11052368750444,-59.82542582411277 -317.61052368752314,-59.15555284306608 -319.4406507064771,-57.325425824161485 -320.1105236875912,-54.82542582416084 -319.4406507065445,-52.32542582414213 -317.6105236876399,-50.49529880518817 -315.1105236876393,-49.82542582407405" stroke="#00f" stroke-linecap="round" stroke-linejoin="round"/><polyline fill="none" points="57.25182862681452,107.37328371323692 59.75182862683324,106.70341073219024 61.5819556457872,104.87328371328564 62.251828626901315,102.373283713285 61.58195564585463,99.87328371326629 59.75182862695003,98.04315669431233 57.25182862694938,97.37328371319822 54.75182862693067,98.0431566942449 52.92170160797671,99.87328371314949 52.25182862686259,102.37328371315013 52.92170160790928,104.87328371316885 54.751828626813875,106.7034107321228 57.25182862681452,107.37328371323692" stroke="#ffa500" stroke-linecap="round" stroke-linejoin="round"/><polyline fill="none" points="-245.40774481281616,7.475406789814674 -242.90774481279746,6.80553380876799 -241.0776177938435,4.975406789863393 -240.4077448127294,2.475406789862747 -241.07761779377608,-0.02459321015596716 -242.90774481268068,-1.8547202291099296 -245.40774481268133,-2.5245932102240483 -247.90774481270003,-1.854720229177366 -249.737871831654,-0.024593210272769728 -250.4077448127681,2.475406789727876 -249.7378718317214,4.975406789746591 -247.90774481281682,6.805533808700555 -245.40774481281616,7.4754067898146745" stroke="#008000" stroke-linecap="round" stroke-linejoin="round"/><polyline fill="none" points="44.30002414091168,42.380463962979675 46.8000241409304,41.710590981932995 48.63015115988436,39.8804639630284 49.30002414099848,37.38046396302775 48.6301511599518,34.880463963009035 46.8000241410472,33.05033694405507 44.300024141046556,32.38046396294095 41.80002414102784,33.05033694398763 39.969897122073874,34.88046396289223 39.30002414095975,37.380463962892875 39.96989712200643,39.88046396291159 41.80002414091102,41.71059098186556 44.30002414091167,42.38046396297968" stroke="#ffa500" stroke-linecap="round" stroke-linejoin="round"/><polyline fill="none" points="62.041488305139765,-200.38136462095767 64.54148830515848,-201.05123760200433 66.37161532411244,-202.88136462090893 67.04148830522657,-205.38136462090958 66.37161532417988,-207.8813646209283 64.5414883052753,-209.71149163988227 62.04148830527465,-210.38136462099638 59.54148830525593,-209.7114916399497 57.711361286301965,-207.88136462104512 57.04148830518784,-205.38136462104447 57.71136128623452,-202.88136462102574 59.54148830513911,-201.05123760207178 62.04148830513976,-200.38136462095764" stroke="#ffa500" stroke-linecap="round" stroke-linejoin="round"/><polyline fill="none" points="18.704852943616064,233.03855671275025 21.204852943634783,232.36868373170358 23.034979962588753,230.538556712799 23.70485294370288,228.03855671279834 23.0349799626562,225.5385567127796 21.20485294375161,223.70842969382565 18.704852943750964,223.0385567127115 16.204852943732245,223.70842969375818 14.374725924778275,225.53855671266277 13.704852943664147,228.03855671266342 14.374725924710821,230.53855671268215 16.204852943615414,232.3686837316361 18.70485294361606,233.03855671275025" stroke="#ffa500" stroke-linecap="round" stroke-linejoin="round"/><polyline fill="none" points="208.0844220851928,-137.3841902245914 210.58442208521154,-138.05406320563807 212.4145491041655,-139.88419022454266 213.08442208527964,-142.38419022454332 212.41454910423298,-144.88419022456205 210.58442208532838,-146.714317243516 208.08442208532773,-147.38419022463015 205.584422085309,-146.71431724358348 203.75429506635504,-144.8841902246789 203.0844220852409,-142.38419022467824 203.75429506628757,-139.8841902246595 205.58442208519216,-138.05406320570555 208.0844220851928,-137.3841902245914" stroke="#ffa500" stroke-linecap="round" stroke-linejoin="round"/><polyline fill="none" points="49.15976552012324,-129.6031752013324 51.65976552014196,-130.27304818237906 53.48989253909593,-132.10317520128365 54.159765520210065,-134.6031752012843 53.48989253916339,-137.10317520130303 51.6597655202588,-138.93330222025702 49.159765520258155,-139.60317520137116 46.65976552023943,-138.9333022203245 44.82963850128546,-137.1031752014199 44.15976552017133,-134.60317520141925 44.829638501218,-132.10317520140052 46.65976552012259,-130.27304818244653 49.15976552012324,-129.6031752013324" stroke="#ffa500" stroke-linecap="round" stroke-linejoin="round"/><polyline fill="none" points="35.05694584327647,-105.87799080754716 37.556945843295196,-106.54786378859383 39.38707286224917,-108.37799080749842 40.0569458433633,-110.87799080749906 39.387072862316636,-113.37799080751778 37.556945843412045,-115.20811782647175 35.0569458434114,-115.87799080758589 32.556945843392675,-115.20811782653922 30.7268188244387,-113.37799080763463 30.056945843324563,-110.87799080763399 30.72681882437123,-108.37799080761526 32.55694584327581,-106.54786378866129 35.05694584327646,-105.87799080754715" stroke="#00f" stroke-linecap="round" stroke-linejoin="round"/><polyline fill="none" points="174.09799193475394,-123.68154330810682 176.59799193477266,-124.35141628915349 178.42811895372665,-126.18154330805808 179.0979919348408,-128.68154330805874 178.42811895379413,-131.18154330807747 176.59799193488954,-133.01167032703145 174.09799193488888,-133.6815433081456 171.59799193487015,-133.01167032709893 169.76786491591616,-131.18154330819434 169.09799193480202,-128.68154330819368 169.7678649158487,-126.18154330817495 171.59799193475328,-124.35141628922098 174.09799193475394,-123.68154330810684" stroke="#00f" stroke-linecap="round" stroke-linejoin="round"/><polyline fill="none" points="-340.47331692881824,-56.48029867306469 -337.97331692879953,-57.150171654111354 -336.14318990984555,-58.98029867301594 -335.4733169287314,-61.480298673016584 -336.143189909778,-63.98029867303531 -337.9733169286826,-65.8104256919893 -340.47331692868323,-66.48029867310343 -342.97331692870193,-65.81042569205677 -344.8034439476559,-63.980298673152184 -345.4733169287701,-61.48029867315154 -344.80344394772345,-58.980298673132815 -342.97331692881886,-57.150171654178834 -340.47331692881824,-56.48029867306469" stroke="#00f" stroke-linecap="round" stroke-linejoin="round"/><polyline fill="none" points="108.04233852659675,-120.95295743176781 110.54233852661548,-121.62283041281448 112.37246554556947,-123.45295743171906 113.04233852668361,-125.9529574317197 112.37246554563694,-128.4529574317384 110.54233852673237,-130.2830844506924 108.04233852673173,-130.95295743180654 105.542338526713,-130.28308445075987 103.71221150775901,-128.45295743185528 103.04233852664487,-125.95295743185464 103.71221150769153,-123.45295743183591 105.54233852659611,-121.62283041288192 108.04233852659675,-120.95295743176779" stroke="#00f" stroke-linecap="round" stroke-linejoin="round"/><polyline fill="none" points="-262.8685737313016,-110.32815026322052 -260.3685737312829,-110.99802324426717 -258.5384467123289,-112.82815026317175 -257.8685737312147,-115.32815026317239 -258.53844671226136,-117.82815026319112 -260.36857373116595,-119.65827728214511 -262.8685737311666,-120.32815026325926 -265.3685737311853,-119.65827728221261 -267.19870075013927,-117.82815026330803 -267.86857373125343,-115.32815026330739 -267.1987007502068,-112.82815026328866 -265.3685737313022,-110.99802324433468 -262.8685737313016,-110.32815026322052" stroke="#ffa500" stroke-linecap="round" stroke-linejoin="round"/><polyline fill="none" points="-260.3110831853532,124.61178156080425 -257.8110831853345,123.9419085797576 -255.9809561663805,122.11178156085302 -255.31108318526637,119.61178156085238 -255.98095616631304,117.11178156083365 -257.8110831852176,115.28165454187966 -260.31108318521825,114.61178156076551 -262.81108318523695,115.28165454181216 -264.64121020419094,117.11178156071674 -265.3110831853051,119.61178156071738 -264.64121020425847,122.1117815607361 -262.8110831853539,123.9419085796901 -260.31108318535325,124.61178156080425" stroke="#ffa500" stroke-linecap="round" stroke-linejoin="round"/><polyline fill="none" points="-206.39090709490048,15.683415806894555 -203.89090709488175,15.013542825847901 -202.06078007592777,13.183415806943323 -201.39090709481363,10.683415806942678 -202.0607800758603,8.183415806923946 -203.89090709476488,6.353288787969955 -206.39090709476554,5.683415806855803 -208.89090709478427,6.353288787902455 -210.72103411373826,8.183415806807034 -211.39090709485242,10.683415806807679 -210.72103411380576,13.18341580682641 -208.89090709490117,15.013542825780403 -206.3909070949005,15.683415806894558" stroke="#00f" stroke-linecap="round" stroke-linejoin="round"/><polyline fill="none" points="-263.111701852744,-54.574996812152776 -260.6117018527252,-55.24486979319943 -258.78157483377123,-57.074996812104004 -258.11170185265706,-59.57499681210465 -258.7815748337037,-62.07499681212338 -260.6117018526083,-63.905123831077375 -263.1117018526089,-64.57499681219153 -265.6117018526277,-63.90512383114488 -267.44182887158166,-62.0749968122403 -268.11170185269583,-59.574996812239654 -267.4418288716492,-57.07499681222092 -265.6117018527446,-55.24486979326692 -263.111701852744,-54.57499681215276" stroke="#008000" stroke-linecap="round" stroke-linejoin="round"/><polyline fill="none" points="144.7299022129138,-82.64534768351191 147.22990221293253,-83.31522066455857 149.06002923188652,-85.14534768346314 149.72990221300068,-87.64534768346378 149.06002923195405,-90.14534768348251 147.22990221304948,-91.97547470243651 144.72990221304883,-92.64534768355067 142.2299022130301,-91.97547470250402 140.3997751940761,-90.14534768359944 139.72990221296195,-87.6453476835988 140.39977519400858,-85.14534768358007 142.22990221291315,-83.31522066462607 144.7299022129138,-82.64534768351191" stroke="#ffa500" stroke-linecap="round" stroke-linejoin="round"/><polyline fill="none" points="74.95143325374028,-184.31934224992182 77.451433253759,-184.98921523096845 79.28156027271301,-186.81934224987302 79.95143325382718,-189.31934224987367 79.28156027278052,-191.8193422498924 77.45143325387595,-193.6494692688464 74.95143325387531,-194.31934224996056 72.45143325385658,-193.64946926891392 70.62130623490258,-191.81934225000936 69.95143325378841,-189.3193422500087 70.62130623483505,-186.81934224998997 72.45143325373962,-184.98921523103598 74.95143325374026,-184.31934224992182" stroke="#ffa500" stroke-linecap="round" stroke-linejoin="round"/><polyline fill="none" points="-277.4327285179751,-83.17290405230541 -274.9327285179563,-83.84277703335205 -273.10260149900233,-85.67290405225663 -272.43272851788817,-88.17290405225727 -273.1026014989348,-90.67290405227601 -274.9327285178394,-92.50303107123001 -277.43272851784,-93.17290405234418 -279.9327285178588,-92.50303107129754 -281.76285553681276,-90.67290405239297 -282.43272851792693,-88.17290405239233 -281.7628555368803,-85.67290405237358 -279.9327285179757,-83.84277703341958 -277.4327285179751,-83.17290405230541" stroke="#00f" stroke-linecap="round" stroke-linejoin="round"/><polyline fill="none" points="78.23405959640753,-132.44800642113543 80.73405959642628,-133.11787940218207 82.56418661538028,-134.94800642108663 83.23405959649445,-137.44800642108729 82.56418661544781,-139.94800642110602 80.73405959654323,-141.77813344006003 78.2340595965426,-142.4480064211742 75.73405959652385,-141.77813344012756 73.90393257756985,-139.948006421223 73.23405959645568,-137.44800642122235 73.90393257750232,-134.94800642120362 75.7340595964069,-133.1178794022496 78.23405959640753,-132.44800642113543" stroke="#00f" stroke-linecap="round" stroke-linejoin="round"/><polyline fill="none" points="64.58995274333604,-91.67304745050342 67.08995274335479,-92.34292043155006 68.92007976230879,-94.17304745045463 69.58995274342296,-96.67304745045527 68.92007976237632,-99.17304745047402 67.08995274347174,-101.00317446942802 64.5899527434711,-101.67304745054219 62.08995274345236,-101.00317446949555 60.25982572449835,-99.17304745059097 59.58995274338418,-96.67304745059033 60.25982572443082,-94.17304745057159 62.08995274333539,-92.34292043161759 64.58995274333603,-91.67304745050342" stroke="#ffa500" stroke-linecap="round" stroke-linejoin="round"/><polyline fill="none" points="-245.00235322563748,111.11810863664368 -242.50235322561875,110.44823565559705 -240.67222620666473,108.61810863669248 -240.00235322555056,106.11810863669184 -240.6722262065972,103.6181086366731 -242.50235322550176,101.78798161771908 -245.00235322550242,101.11810863660492 -247.50235322552115,101.78798161765155 -249.33248024447516,103.61810863655612 -250.00235322558933,106.11810863655676 -249.3324802445427,108.6181086365755 -247.50235322563813,110.44823565552952 -245.00235322563748,111.11810863664368" stroke="#ffa500" stroke-linecap="round" stroke-linejoin="round"/><polyline fill="none" points="-280.61413197397206,-59.48520743515313 -278.1141319739533,-60.15508041619976 -276.2840049549993,-61.98520743510433 -275.61413197388515,-64.48520743510497 -276.2840049549318,-66.98520743512371 -278.1141319738364,-68.81533445407773 -280.614131973837,-69.48520743519191 -283.11413197385576,-68.81533445414527 -284.94425899280975,-66.98520743524071 -285.6141319739239,-64.48520743524007 -284.9442589928773,-61.98520743522133 -283.1141319739727,-60.15508041626731 -280.61413197397206,-59.485207435153136" stroke="#008000" stroke-linecap="round" stroke-linejoin="round"/><polyline fill="none" points="-174.93017179408798,-18.879883542689264 -172.43017179406922,-19.549756523735894 -170.6000447751152,-21.37988354264046 -169.93017179400104,-23.879883542641107 -170.60004477504768,-26.37988354265985 -172.43017179395224,-28.210010561613867 -174.9301717939529,-28.879883542728045 -177.43017179397165,-28.210010561681415 -179.26029881292567,-26.37988354277685 -179.93017179403984,-23.879883542776202 -179.2602988129932,-21.379883542757455 -177.43017179408864,-19.54975652380344 -174.93017179408798,-18.879883542689257" stroke="#ffa500" stroke-linecap="round" stroke-linejoin="round"/><polyline fill="none" points="-207.25063379686426,-70.88932304360524 -204.7506337968455,-71.55919602465187 -202.9205067778915,-73.38932304355643 -202.25063379677732,-75.88932304355707 -202.92050677782396,-78.38932304357581 -204.75063379672852,-80.21945006252983 -207.25063379672918,-80.88932304364401 -209.75063379674793,-80.21945006259739 -211.58076081570195,-78.38932304369283 -212.25063379681615,-75.88932304369219 -211.5807608157695,-73.38932304367344 -209.75063379686495,-71.55919602471943 -207.2506337968643,-70.88932304360524" stroke="#ffa500" stroke-linecap="round" stroke-linejoin="round"/><polyline fill="none" points="-235.23212416817574,-82.7240499759466 -232.732124168157,-83.39392295699322 -230.90199714920297,-85.22404997589778 -230.23212416808877,-87.72404997589842 -230.9019971491354,-90.22404997591717 -232.73212416803997,-92.05417699487118 -235.23212416804063,-92.72404997598537 -237.73212416805939,-92.05417699493874 -239.5622511870134,-90.22404997603418 -240.2321241681276,-87.72404997603354 -239.56225118708096,-85.2240499760148 -237.7321241681764,-83.39392295706078 -235.23212416817574,-82.7240499759466" stroke="#00f" stroke-linecap="round" stroke-linejoin="round"/><polyline fill="none" points="38.983973846935775,217.0906112090653 41.48397384695453,216.42073822801865 43.31410086590855,214.5906112091141 43.98397384702274,212.09061120911343 43.314100865976116,209.59061120909467 41.48397384707155,207.76048419014066 38.98397384707091,207.09061120902646 36.483973847052155,207.76048419007307 34.65384682809813,209.59061120897763 33.98397384698394,212.0906112089783 34.65384682803057,214.59061120899705 36.48397384693513,216.42073822795106 38.983973846935775,217.09061120906526" stroke="#ffa500" stroke-linecap="round" stroke-linejoin="round"/><polyline fill="none" points="-220.88207875109168,14.004836231643958 -218.38207875107292,13.334963250597337 -216.5519517321189,11.504836231692776 -215.8820787510047,9.004836231692131 -216.55195173205132,6.504836231673382 -218.38207875095588,4.674709212719357 -220.88207875095654,4.004836231605166 -223.3820787509753,4.674709212651786 -225.2122057699293,6.504836231556346 -225.8820787510435,9.004836231556991 -225.2122057699969,11.504836231575743 -223.38207875109234,13.334963250529768 -220.88207875109168,14.00483623164396" stroke="#ffa500" stroke-linecap="round" stroke-linejoin="round"/></svg>