<?xml version="1.0" ?><!DOCTYPE svg  PUBLIC '-//W3C//DTD SVG 1.1//EN'  'http://www.w3.org/Graphics/SVG/1.1/DTD/svg11.dtd'><svg height="536.000" viewBox="-407.000 -249.000 652.000 536.000" width="652.000" xmlns="http://www.w3.org/2000/svg"><line fill="none" stroke="none" stroke-linecap="round" stroke-width="2.0" x1="0.0" x2="0.0" y1="0.0" y2="0.0"/><polygon fill="none" fill-rule="evenodd" points="0.0,0.0 0.0,0.0 0.0,0.0" stroke-linejoin="round"/><polyline fill="none" points="-12.354755870666683,120.04655559488474 -9.854755870647008,119.37668261383966 -8.024628851691409,117.54655559493598 -7.354755870575416,115.04655559493531 -8.02462885162049,112.54655559491563 -9.854755870524173,110.71642857596004 -12.354755870524846,110.04655559484405 -14.854755870544523,110.71642857588913 -16.684882889500123,112.5465555947928 -17.354755870616117,115.04655559479347 -16.684882889571046,117.54655559481316 -14.854755870667363,119.37668261376876 -12.35475587066669,120.04655559488477" stroke="#ffa500" stroke-linecap="round" stroke-linejoin="round"/><polyline fill="none" points="-21.730908991475836,59.89121380146625 -19.23090899145616,59.221340820421176 -17.40078197250056,57.391213801517495 -16.730908991384567,54.89121380151682 -17.400781972429638,52.391213801497145 -19.23090899133332,50.561086782541544 -21.73090899133399,49.89121380142555 -24.23090899135367,50.56108678247062 -26.061036010309273,52.3912138013743 -26.73090899142527,54.891213801374974 -26.0610360103802,57.39121380139465 -24.230908991476518,59.22134082035025 -21.730908991475847,59.89121380146624" stroke="#ffa500" stroke-linecap="round" stroke-linejoin="round"/><polyline fill="none" points="116.990025380454,-90.95884631048558 119.49002538047368,-91.62871929153066 121.32015239942929,-93.45884631043434 121.99002538054529,-95.958846310435 121.32015239950022,-98.45884631045469 119.49002538059653,-100.2889733294103 116.99002538059587,-100.9588463105263 114.49002538057618,-100.28897332948122 112.65989836162058,-98.45884631057754 111.99002538050458,-95.95884631057687 112.65989836154965,-93.45884631055719 114.49002538045333,-91.62871929160158 116.990025380454,-90.95884631048558" stroke="#ffa500" stroke-linecap="round" stroke-linejoin="round"/><polyline fill="none" points="-179.7278864819394,-139.8357890382856 -177.22788648191974,-140.50566201933069 -175.39775946296413,-142.33578903823437 -174.72788648184815,-144.83578903823505 -175.39775946289322,-147.33578903825472 -177.2278864817969,-149.16591605721032 -179.72788648179758,-149.83578903832634 -182.22788648181725,-149.16591605728127 -184.05801350077286,-147.33578903837758 -184.72788648188887,-144.8357890383769 -184.0580135008438,-142.33578903835723 -182.22788648194012,-140.50566201940163 -179.72788648193944,-139.8357890382856" stroke="#ffa500" stroke-linecap="round" stroke-linejoin="round"/><polyline fill="none" points="-221.76228120284978,-50.48121424142918 -219.2622812028301,-51.151087222474246 -217.4321541838745,-52.98121424137793 -216.7622812027585,-55.4812142413786 -217.43215418380356,-57.981214241398284 -219.26228120270724,-59.81134126035389 -221.76228120270792,-60.48121424146989 -224.2622812027276,-59.811341260424825 -226.0924082216832,-57.981214241521144 -226.76228120279922,-55.48121424152047 -226.09240822175414,-52.98121424150079 -224.26228120285046,-51.15108722254518 -221.76228120284978,-50.48121424142918" stroke="#00f" stroke-linecap="round" stroke-linejoin="round"/><polyline fill="none" points="-362.46201309568977,-43.265663436514835 -359.9620130956701,-43.935536417559895 -358.13188607671447,-45.76566343646357 -357.4620130955985,-48.265663436464244 -358.1318860766435,-50.765663436483926 -359.9620130955472,-52.595790455439534 -362.4620130955479,-53.26566343655554 -364.96201309556756,-52.59579045551048 -366.7921401145232,-50.76566343660681 -367.4620130956392,-48.26566343660613 -366.79214011459413,-45.76566343658645 -364.96201309569045,-43.935536417630836 -362.46201309568977,-43.26566343651483" stroke="#00f" stroke-linecap="round" stroke-linejoin="round"/><polyline fill="none" points="145.3245309579962,-76.0432778154691 147.82453095801588,-76.71315079651416 149.6546579769715,-78.54327781541784 150.3245309580875,-81.0432778154185 149.65465797704243,-83.54327781543819 147.82453095813875,-85.3734048343938 145.32453095813807,-86.04327781550981 142.82453095811837,-85.37340483446475 140.99440393916277,-83.54327781556107 140.32453095804675,-81.0432778155604 140.9944039390918,-78.54327781554072 142.82453095799548,-76.71315079658511 145.32453095799616,-76.0432778154691" stroke="#ffa500" stroke-linecap="round" stroke-linejoin="round"/><polyline fill="none" points="110.06391681703845,-217.33976889487502 112.56391681705813,-218.00964187592007 114.39404383601374,-219.83976889482375 115.06391681712975,-222.33976889482443 114.39404383608469,-224.83976889484413 112.56391681718102,-226.66989591379973 110.06391681718036,-227.33976889491575 107.56391681716067,-226.6698959138707 105.73378979820505,-224.83976889496702 105.06391681708904,-222.33976889496634 105.7337897981341,-219.83976889494664 107.56391681703776,-218.00964187599104 110.06391681703843,-217.33976889487502" stroke="#ffa500" stroke-linecap="round" stroke-linejoin="round"/><polyline fill="none" points="-372.67044137701157,-52.47461815669295 -370.1704413769919,-53.14449113773801 -368.34031435803627,-54.97461815664168 -367.6704413769203,-57.47461815664236 -368.3403143579653,-59.97461815666204 -370.170441376869,-61.804745175617654 -372.6704413768697,-62.47461815673367 -375.17044137688936,-61.804745175688616 -377.000568395845,-59.97461815678494 -377.670441376961,-57.47461815678427 -377.00056839591593,-54.97461815676458 -375.17044137701225,-53.14449113780896 -372.67044137701157,-52.47461815669295" stroke="#00f" stroke-linecap="round" stroke-linejoin="round"/><polyline fill="none" points="-248.2030141732952,63.796503473576514 -245.7030141732755,63.12663049253146 -243.8728871543199,61.29650347362779 -243.20301417320388,58.79650347362711 -243.87288715424893,56.29650347360742 -245.7030141731526,54.4663764546518 -248.2030141731533,53.796503473535786 -250.703014173173,54.46637645458084 -252.5331411921286,56.29650347348451 -253.2030141732446,58.79650347348519 -252.53314119219957,61.29650347350488 -250.70301417329588,63.1266304924605 -248.2030141732952,63.796503473576514" stroke="#00f" stroke-linecap="round" stroke-linejoin="round"/><polyline fill="none" points="93.05559698456454,177.99408426455938 95.55559698458423,177.32421128351433 97.38572400353985,175.49408426461065 98.05559698465586,172.99408426460997 97.38572400361082,170.49408426459027 95.55559698470715,168.66395724563466 93.05559698470648,167.99408426451865 90.5555969846868,168.6639572455637 88.72546996573118,170.49408426446738 88.05559698461516,172.99408426446806 88.72546996566021,175.49408426448775 90.55559698456388,177.3242112834434 93.05559698456454,177.9940842645594" stroke="#ffa500" stroke-linecap="round" stroke-linejoin="round"/><polyline fill="none" points="100.0858591447963,87.78296226914532 102.585859144816,87.11308928810027 104.41598616377162,85.2829622691966 105.08585914488764,82.78296226919593 104.41598616384259,80.28296226917624 102.58585914493892,78.45283525022062 100.08585914493825,77.7829622691046 97.58585914491856,78.45283525014965 95.75573212596294,80.28296226905331 95.0858591448469,82.78296226905398 95.75573212589195,85.28296226907368 97.58585914479562,87.1130892880293 100.08585914479629,87.78296226914533" stroke="#ffa500" stroke-linecap="round" stroke-linejoin="round"/><polyline fill="none" points="130.8990250260267,-180.94556245309752 133.3990250260464,-181.61543543414257 135.22915204500202,-183.44556245304625 135.89902502611804,-185.94556245304693 135.229152045073,-188.44556245306663 133.3990250261693,-190.27568947202226 130.89902502616863,-190.94556245313828 128.39902502614893,-190.27568947209323 126.56889800719331,-188.44556245318955 125.89902502607728,-185.94556245318887 126.56889800712233,-183.44556245316917 128.39902502602598,-181.61543543421354 130.89902502602666,-180.94556245309752" stroke="#ffa500" stroke-linecap="round" stroke-linejoin="round"/><polyline fill="none" points="-143.03217436353404,-115.90504817632292 -140.53217436351434,-116.57492115736797 -138.7020473445587,-118.40504817627163 -138.0321743634427,-120.9050481762723 -138.70204734448774,-123.405048176292 -140.5321743633914,-125.23517519524762 -143.03217436339207,-125.90504817636365 -145.53217436341177,-125.2351751953186 -147.3623013823674,-123.40504817641494 -148.03217436348342,-120.90504817641427 -147.36230138243837,-118.40504817639457 -145.53217436353472,-116.57492115743894 -143.03217436353404,-115.90504817632291" stroke="#00f" stroke-linecap="round" stroke-linejoin="round"/><polyline fill="none" points="25.020431365615398,274.62461933582813 27.52043136563509,273.9547463547831 29.35055838459072,272.1246193358794 30.02043136570675,269.6246193358787 29.350558384661706,267.12461933585905 27.520431365758043,265.2944923169034 25.02043136575737,264.6246193357874 22.52043136573768,265.2944923168324 20.690304346782046,267.1246193357361 20.020431365666017,269.6246193357368 20.690304346711056,272.12461933575645 22.52043136561472,273.9547463547121 25.02043136561539,274.62461933582813" stroke="#ffa500" stroke-linecap="round" stroke-linejoin="round"/><polyline fill="none" points="14.432071980859844,-146.09640473824314 16.932071980879538,-146.76627771928818 18.76219899983517,-148.59640473819184 19.432071980951203,-151.09640473819252 18.762198999906165,-153.59640473821221 16.9320719810025,-155.42653175716785 14.432071981001828,-156.0964047382839 11.932071980982132,-155.42653175723885 10.101944962026497,-153.5964047383352 9.432071980910465,-151.0964047383345 10.101944961955503,-148.59640473831482 11.932071980859167,-146.76627771935918 14.43207198085984,-146.09640473824314" stroke="#ffa500" stroke-linecap="round" stroke-linejoin="round"/><polyline fill="none" points="-270.2886200255451,-77.99282811095 -267.78862002552535,-78.66270109199503 -265.9584930065697,-80.4928281108987 -265.28862002545367,-82.99282811089937 -265.9584930064987,-85.49282811091906 -267.7886200254024,-87.3229551298747 -270.2886200254031,-87.99282811099073 -272.7886200254228,-87.3229551299457 -274.61874704437844,-85.49282811104203 -275.2886200254945,-82.99282811104136 -274.61874704444944,-80.49282811102167 -272.78862002554575,-78.66270109206603 -270.2886200255451,-77.99282811094999" stroke="#008000" stroke-linecap="round" stroke-linejoin="round"/><polyline fill="none" points="27.172344072287544,-11.893754489587689 29.67234407230724,-12.563627470632724 31.502471091262876,-14.393754489536386 32.17234407237891,-16.89375448953706 31.502471091333877,-19.39375448955676 29.672344072430217,-21.2238815085124 27.172344072429546,-21.893754489628435 24.672344072409846,-21.2238815085834 22.842217053454206,-19.39375448967974 22.172344072338166,-16.89375448967907 22.8422170533832,-14.39375448965937 24.67234407228686,-12.56362747070373 27.172344072287537,-11.893754489587693" stroke="#ffa500" stroke-linecap="round" stroke-linejoin="round"/><polyline fill="none" points="-319.5633676694034,-104.33584662823036 -317.0633676693837,-105.00571960927539 -315.23324065042806,-106.83584662817904 -314.563367669312,-109.33584662817971 -315.23324065035706,-111.8358466281994 -317.06336766926074,-113.66597364715504 -319.5633676692614,-114.33584662827109 -322.06336766928115,-113.66597364722605 -323.8934946882368,-111.8358466283224 -324.56336766935283,-109.33584662832173 -323.8934946883078,-106.83584662830204 -322.0633676694041,-105.0057196093464 -319.5633676694034,-104.33584662823036" stroke="#00f" stroke-linecap="round" stroke-linejoin="round"/><polyline fill="none" points="70.25595663786802,-210.3608030523375 72.75595663788772,-211.03067603338252 74.58608365684336,-212.86080305228617 75.2559566379594,-215.36080305228685 74.58608365691437,-217.86080305230655 72.75595663801072,-219.6909300712622 70.25595663801005,-220.36080305237823 67.75595663799035,-219.6909300713332 65.92582961903472,-217.86080305242956 65.25595663791867,-215.36080305242888 65.9258296189637,-212.86080305240918 67.75595663786736,-211.03067603345355 70.25595663786802,-210.3608030523375" stroke="#00f" stroke-linecap="round" stroke-linejoin="round"/><polyline fill="none" points="86.02427794145225,-47.98844432190826 88.52427794147195,-48.65831730295329 90.3544049604276,-50.48844432185695 91.02427794154364,-52.98844432185763 90.35440496049861,-55.48844432187733 88.52427794159496,-57.318571340832975 86.02427794159429,-57.98844432194902 83.5242779415746,-57.31857134090399 81.69415092261895,-55.48844432200034 81.0242779415029,-52.988444321999665 81.69415092254793,-50.48844432197996 83.52427794145159,-48.65831730302432 86.02427794145225,-47.988444321908275" stroke="#ffa500" stroke-linecap="round" stroke-linejoin="round"/><polyline fill="none" points="-138.07447144345022,30.086463413199883 -135.57447144343053,29.41659043215486 -133.7443444244749,27.586463413251202 -133.07447144335885,25.08646341325053 -133.74434442440386,22.586463413230828 -135.57447144330752,20.75633639427518 -138.0744714433082,20.086463413159134 -140.5744714433279,20.75633639420416 -142.40459846228353,22.586463413107815 -143.07447144339957,25.086463413108486 -142.40459846235456,27.58646341312819 -140.5744714434509,29.416590432083837 -138.07447144345022,30.086463413199887" stroke="#ffa500" stroke-linecap="round" stroke-linejoin="round"/><polyline fill="none" points="124.11233427078479,-168.16150042172492 126.6123342708045,-168.83137340276994 128.44246128976013,-170.6615004216736 129.11233427087618,-173.16150042167428 128.44246128983116,-175.66150042169397 126.6123342709275,-177.4916274406496 124.11233427092684,-178.16150042176565 121.61233427090713,-177.49162744072063 119.78220725195148,-175.66150042181698 119.11233427083542,-173.1615004218163 119.78220725188044,-170.6615004217966 121.61233427078409,-168.83137340284094 124.11233427078476,-168.1615004217249" stroke="#ffa500" stroke-linecap="round" stroke-linejoin="round"/><polyline fill="none" points="-170.8175642459008,76.7132585021817 -168.3175642458811,76.04338552113668 -166.48743722692544,74.21325850223303 -165.8175642458094,71.71325850223236 -166.4874372268544,69.21325850221265 -168.31756424575806,67.383131483257 -170.81756424575875,66.71325850214095 -173.31756424577844,67.38313148318596 -175.1476912647341,69.21325850208962 -175.81756424585015,71.71325850209028 -175.14769126480513,74.21325850211 -173.31756424590148,76.04338552106564 -170.8175642459008,76.7132585021817" stroke="#00f" stroke-linecap="round" stroke-linejoin="round"/><polyline fill="none" points="143.3418017381655,-115.50538174173515 145.84180173818518,-116.17525472278017 147.67192875714085,-118.00538174168382 148.3418017382569,-120.50538174168449 147.67192875721187,-123.0053817417042 145.84180173830822,-124.83550876065985 143.34180173830754,-125.5053817417759 140.84180173828784,-124.83550876073089 139.01167471933218,-123.00538174182724 138.34180173821613,-120.50538174182657 139.01167471926115,-118.00538174180686 140.8418017381648,-116.17525472285121 143.3418017381655,-115.50538174173515" stroke="#00f" stroke-linecap="round" stroke-linejoin="round"/><polyline fill="none" points="202.30522897089398,-137.50754805259763 204.80522897091367,-138.17742103364264 206.63535598986934,-140.0075480525463 207.3052289709854,-142.50754805254698 206.6353559899404,-145.00754805256668 204.80522897103674,-146.83767507152234 202.30522897103606,-147.5075480526384 199.80522897101636,-146.8376750715934 197.9751019520607,-145.00754805268974 197.30522897094463,-142.50754805268906 197.97510195198964,-140.00754805266936 199.8052289708933,-138.1774210337137 202.30522897089398,-137.50754805259763" stroke="#00f" stroke-linecap="round" stroke-linejoin="round"/><polyline fill="none" points="78.79483010750388,82.00418170641909 81.2948301075236,81.33430872537407 83.12495712647926,79.50418170647042 83.79483010759532,77.00418170646975 83.1249571265503,74.50418170645004 81.29483010764665,72.67405468749438 78.79483010764598,72.00418170637832 76.29483010762627,72.67405468742334 74.4647030886706,74.50418170632699 73.79483010755455,77.00418170632766 74.46470308859956,79.50418170634737 76.29483010750322,81.33430872530303 78.79483010750388,82.00418170641909" stroke="#ffa500" stroke-linecap="round" stroke-linejoin="round"/><polyline fill="none" points="66.04692608233567,36.616534584104684 68.54692608235538,35.946661603059674 70.37705310131105,34.11653458415603 71.0469260824271,31.616534584155353 70.37705310138209,29.116534584135643 68.54692608247844,27.28640756517998 66.04692608247777,26.616534584063917 63.54692608245806,27.286407565108927 61.71679906350239,29.116534584012577 61.04692608238633,31.61653458401325 61.71679906343134,34.11653458403296 63.546926082334984,35.94666160298863 66.04692608233566,36.61653458410469" stroke="#ffa500" stroke-linecap="round" stroke-linejoin="round"/><polyline fill="none" points="-89.98405141982693,-103.05918750061454 -87.48405141980722,-103.72906048165956 -85.65392440085155,-105.55918750056321 -84.98405141973548,-108.05918750056388 -85.65392440078048,-110.55918750058359 -87.48405141968414,-112.38931451953925 -89.9840514196848,-113.05918750065533 -92.48405141970451,-112.38931451961032 -94.31417843866018,-110.55918750070667 -94.98405141977625,-108.059187500706 -94.31417843873125,-105.55918750068629 -92.4840514198276,-103.72906048173063 -89.98405141982693,-103.05918750061456" stroke="#ffa500" stroke-linecap="round" stroke-linejoin="round"/><polyline fill="none" points="-174.1261592032711,21.817927402548623 -171.62615920325138,21.148054421503613 -169.7960321842957,19.317927402599967 -169.12615920317964,16.81792740259929 -169.79603218422466,14.317927402579578 -171.6261592031283,12.487800383623911 -174.126159203129,11.817927402507843 -176.62615920314872,12.487800383552852 -178.45628622210438,14.317927402456498 -179.12615920322045,16.817927402457173 -178.45628622217544,19.317927402476887 -176.62615920327178,21.148054421432555 -174.1261592032711,21.817927402548623" stroke="#ffa500" stroke-linecap="round" stroke-linejoin="round"/><polyline fill="none" points="-289.3052368001608,28.26292618719094 -286.8052368001411,27.59305320614593 -284.9751097811854,25.762926187242286 -284.30523680006934,23.26292618724161 -284.9751097811143,20.762926187221893 -286.80523680001795,18.932799168266225 -289.30523680001863,18.262926187150153 -291.80523680003836,18.93279916819516 -293.63536381899405,20.762926187098806 -294.30523680011015,23.26292618709948 -293.63536381906516,25.7629261871192 -291.80523680016154,27.593053206074867 -289.30523680016086,28.26292618719094" stroke="#ffa500" stroke-linecap="round" stroke-linejoin="round"/><polyline fill="none" points="-60.038084259102526,-135.22796393711158 -57.53808425908281,-135.8978369181566 -55.707957240127136,-137.72796393706025 -55.038084259011065,-140.22796393706093 -55.70795724005607,-142.72796393708066 -57.538084258959714,-144.55809095603632 -60.03808425896039,-145.2279639371524 -62.538084258980106,-144.5580909561074 -64.36821127793577,-142.72796393720375 -65.03808425905184,-140.22796393720307 -64.36821127800684,-137.72796393718335 -62.538084259103194,-135.89783691822768 -60.03808425910252,-135.2279639371116" stroke="#00f" stroke-linecap="round" stroke-linejoin="round"/><polyline fill="none" points="-348.71306626610476,-27.38137959416099 -346.21306626608504,-28.051252575205993 -344.38293924712934,-29.881379594109635 -343.71306626601324,-32.38137959411031 -344.38293924705823,-34.881379594130024 -346.21306626596186,-36.711506613085696 -348.71306626596254,-37.381379594201775 -351.21306626598226,-36.71150661315677 -353.04319328493796,-34.88137959425313 -353.71306626605406,-32.38137959425246 -353.04319328500907,-29.881379594232737 -351.21306626610544,-28.05125257527706 -348.71306626610476,-27.381379594160983" stroke="#ffa500" stroke-linecap="round" stroke-linejoin="round"/><polyline fill="none" points="-176.310398960712,116.43569322643967 -173.81039896069228,115.76582024539466 -171.98027194173662,113.93569322649103 -171.31039896062055,111.43569322649034 -171.98027194166553,108.93569322647062 -173.8103989605692,107.10556620751494 -176.31039896056987,106.43569322639885 -178.8103989605896,107.10556620744386 -180.64052597954526,108.9356932263475 -181.31039896066133,111.43569322634818 -180.64052597961634,113.9356932263679 -178.8103989607127,115.76582024532358 -176.310398960712,116.43569322643967" stroke="#ffa500" stroke-linecap="round" stroke-linejoin="round"/><polyline fill="none" points="145.44511014729244,202.75957790872434 147.94511014731216,202.08970492767935 149.77523716626783,200.2595779087757 150.4451101473839,197.75957790877501 149.7752371663389,195.2595779087553 147.94511014743526,193.42945088979963 145.44511014743458,192.75957790868355 142.94511014741485,193.42945088972854 141.1149831284592,195.2595779086322 140.44511014734312,197.75957790863288 141.1149831283881,200.2595779086526 142.94511014729176,202.0897049276083 145.44511014729244,202.75957790872437" stroke="#ffa500" stroke-linecap="round" stroke-linejoin="round"/><polyline fill="none" points="-295.73546573212917,-76.36090186546652 -293.23546573210945,-77.0307748465115 -291.40533871315375,-78.86090186541514 -290.73546573203765,-81.36090186541583 -291.40533871308264,-83.86090186543555 -293.23546573198627,-85.69102888439123 -295.73546573198695,-86.36090186550732 -298.2354657320067,-85.69102888446233 -300.06559275096237,-83.86090186555869 -300.73546573207847,-81.360901865558 -300.0655927510335,-78.86090186553828 -298.23546573212985,-77.0307748465826 -295.73546573212917,-76.36090186546652" stroke="#f00" stroke-linecap="round" stroke-linejoin="round"/><polyline fill="none" points="38.13921551918206,-124.71535159560821 40.639215519201784,-125.3852245766532 42.46934253815747,-127.21535159555684 43.139215519273556,-129.7153515955575 42.46934253822857,-132.21535159557723 40.63921551932493,-134.04547861453293 38.13921551932425,-134.71535159564903 35.63921551930453,-134.04547861460404 33.80908850034884,-132.2153515957004 33.139215519232756,-129.71535159569973 33.809088500277745,-127.21535159568 35.639215519181384,-125.38522457672433 38.13921551918206,-124.71535159560824" stroke="#ffa500" stroke-linecap="round" stroke-linejoin="round"/><polyline fill="none" points="165.02100234377346,-148.21825944306545 167.52100234379319,-148.88813242411044 169.35112936274888,-150.71825944301406 170.02100234386498,-153.21825944301474 169.35112936282,-155.71825944303447 167.52100234391636,-157.54838646199016 165.02100234391568,-158.21825944310626 162.52100234389596,-157.54838646206127 160.69087532494027,-155.71825944315765 160.02100234382416,-153.21825944315697 160.69087532486915,-150.71825944313724 162.52100234377278,-148.88813242418155 165.02100234377346,-148.21825944306545" stroke="#ffa500" stroke-linecap="round" stroke-linejoin="round"/><polyline fill="none" points="216.9731503611621,-106.47720541436411 219.47315036118184,-107.1470783954091 221.30327738013753,-108.97720541431273 221.97315036125363,-111.47720541431342 221.30327738020864,-113.97720541433314 219.47315036130502,-115.80733243328883 216.97315036130433,-116.47720541440493 214.4731503612846,-115.80733243335995 212.64302334232892,-113.97720541445631 211.97315036121282,-111.47720541445563 212.6430233422578,-108.9772054144359 214.47315036116143,-107.14707839548021 216.9731503611621,-106.47720541436411" stroke="#ffa500" stroke-linecap="round" stroke-linejoin="round"/><polyline fill="none" points="-287.03409758133205,-17.165069059549147 -284.5340975813123,-17.834942040594132 -282.70397056235663,-19.665069059497768 -282.03409758124053,-22.165069059498443 -282.7039705622855,-24.66506905951817 -284.53409758118914,-26.49519607847386 -287.0340975811898,-27.165069059589957 -289.53409758120955,-26.49519607854497 -291.36422460016524,-24.66506905964134 -292.03409758128134,-22.165069059640665 -291.36422460023635,-19.665069059620933 -289.53409758133273,-17.83494204066524 -287.03409758133205,-17.165069059549143" stroke="#00f" stroke-linecap="round" stroke-linejoin="round"/><polyline fill="none" points="104.09874782911956,-187.81927790630797 106.59874782913928,-188.48915088735296 108.42887484809498,-190.3192779062566 109.09874782921108,-192.81927790625727 108.42887484816609,-195.319277906277 106.59874782926245,-197.1494049252327 104.09874782926178,-197.8192779063488 101.59874782924206,-197.1494049253038 99.76862081028636,-195.31927790640017 99.09874782917026,-192.8192779063995 99.76862081021524,-190.31927790637977 101.59874782911886,-188.48915088742407 104.09874782911955,-187.81927790630797" stroke="#ffa500" stroke-linecap="round" stroke-linejoin="round"/><polyline fill="none" points="-0.625493238704648,-75.46423877780754 1.874506761315084,-76.13411175885251 3.704633780270779,-77.96423877775614 4.37450676138688,-80.46423877775682 3.7046337803419,-82.96423877777656 1.8745067614382689,-84.79436579673225 -0.625493238562407,-85.46423877784835 -3.1254932385821395,-84.79436579680338 -4.955620257537836,-82.96423877789975 -5.625493238653939,-80.46423877789907 -4.95562025760896,-77.96423877787933 -3.12549323870533,-76.13411175892364 -0.6254932387046548,-75.46423877780754" stroke="#ffa500" stroke-linecap="round" stroke-linejoin="round"/><polyline fill="none" points="119.62699645922639,116.9842074348513 122.12699645924613,116.31433445380632 123.95712347820182,114.4842074349027 124.62699645931792,111.98420743490203 123.95712347827295,109.4842074348823 122.12699645936932,107.6540804159266 119.62699645936866,106.9842074348105 117.12699645934892,107.65408041585547 115.29686944039322,109.4842074347591 114.62699645927712,111.98420743475978 115.2968694403221,114.48420743477952 117.12699645922572,116.31433445373521 119.6269964592264,116.98420743485131" stroke="#ffa500" stroke-linecap="round" stroke-linejoin="round"/><polyline fill="none" points="97.08050917741326,232.3794848028328 99.580509177433,231.7096118217878 101.4106361963887,229.87948480288418 102.08050917750481,227.3794848028835 101.41063619645983,224.87948480286377 99.58050917755621,223.04935778390808 97.08050917755553,222.37948480279198 94.58050917753579,223.04935778383694 92.75038215858008,224.87948480274056 92.08050917746397,227.37948480274125 92.75038215850894,229.87948480276097 94.58050917741257,231.70961182171666 97.08050917741325,232.37948480283276" stroke="#ffa500" stroke-linecap="round" stroke-linejoin="round"/><polyline fill="none" points="-233.916935481076,-124.01056849462782 -231.41693548105627,-124.6804414756728 -229.58680846210058,-126.51056849457642 -228.91693548098448,-129.0105684945771 -229.58680846202944,-131.5105684945968 -231.41693548093306,-133.3406955135525 -233.91693548093374,-134.0105684946686 -236.41693548095347,-133.34069551362364 -238.24706249990916,-131.51056849472002 -238.91693548102526,-129.01056849471934 -238.2470624999803,-126.5105684946996 -236.41693548107668,-124.68044147574389 -233.916935481076,-124.01056849462778" stroke="#00f" stroke-linecap="round" stroke-linejoin="round"/><polyline fill="none" points="-236.89428703271426,91.47478398108352 -234.39428703269454,90.80491100003854 -232.56416001373884,88.97478398113492 -231.89428703262274,86.47478398113424 -232.5641600136677,83.9747839811145 -234.39428703257133,82.14465696215879 -236.894287032572,81.47478398104268 -239.39428703259173,82.14465696208765 -241.22441405154743,83.97478398099128 -241.89428703266353,86.47478398099196 -241.22441405161857,88.9747839810117 -239.39428703271494,90.8049109999674 -236.89428703271426,91.47478398108352" stroke="#00f" stroke-linecap="round" stroke-linejoin="round"/><polyline fill="none" points="147.0267191401982,131.53483022814518 149.52671914021795,130.86495724710022 151.35684615917364,129.0348302281966 152.02671914028977,126.53483022819591 151.3568461592448,124.03483022817618 149.52671914034119,122.20470320922047 147.0267191403405,121.53483022810435 144.52671914032075,122.20470320914933 142.69659212136503,124.03483022805295 142.0267191402489,126.53483022805364 142.69659212129386,129.0348302280734 144.52671914019749,130.8649572470291 147.02671914019817,131.53483022814524" stroke="#ffa500" stroke-linecap="round" stroke-linejoin="round"/><polyline fill="none" points="-292.5836840583355,16.849137015363652 -290.0836840583158,16.179264034318685 -288.2535570393601,14.349137015415062 -287.583684058244,11.849137015414387 -288.253557039289,9.349137015394646 -290.0836840581926,7.519009996438937 -292.5836840581933,6.849137015322819 -295.083684058213,7.519009996367785 -296.9138110771687,9.349137015271408 -297.5836840582848,11.849137015272083 -296.9138110772398,14.349137015291824 -295.0836840583362,16.179264034247534 -292.5836840583355,16.849137015363652" stroke="#ffa500" stroke-linecap="round" stroke-linejoin="round"/><polyline fill="none" points="-187.54293944003987,-119.10896636549819 -185.04293944002012,-119.77883934654315 -183.2128124210644,-121.60896636544678 -182.54293943994827,-124.10896636544746 -183.21281242099323,-126.6089663654672 -185.04293943989686,-128.4390933844229 -187.54293943989754,-129.10896636553903 -190.0429394399173,-128.43909338449407 -191.873066458873,-126.60896636559045 -192.54293943998914,-124.10896636558977 -191.87306645894418,-121.60896636557003 -190.04293944004056,-119.77883934661432 -187.54293944003987,-119.10896636549819" stroke="#00f" stroke-linecap="round" stroke-linejoin="round"/><polyline fill="none" points="179.47397408573877,-77.06466233141639 181.97397408575853,-77.73453531246135 183.80410110471425,-79.56466233136497 184.47397408583038,-82.06466233136565 183.80410110478542,-84.56466233138539 181.9739740858818,-86.39478935034111 179.4739740858811,-87.06466233145724 176.97397408586136,-86.39478935041228 175.14384706690564,-84.56466233150866 174.4739740857895,-82.06466233150798 175.14384706683447,-79.56466233148824 176.9739740857381,-77.73453531253251 179.47397408573877,-77.06466233141639" stroke="#ffa500" stroke-linecap="round" stroke-linejoin="round"/><polyline fill="none" points="-26.32519716916747,21.382136787369824 -23.825197169147724,20.712263806324863 -21.995070150192007,18.882136787421246 -21.32519716907588,16.38213678742057 -21.99507015012084,13.882136787400826 -23.825197169024456,12.05200976844511 -26.32519716902513,11.382136787328983 -28.825197169044877,12.052009768373942 -30.655324188000595,13.88213678727756 -31.325197169116723,16.382136787278235 -30.655324188071766,18.88213678729798 -28.82519716916815,20.7122638062537 -26.325197169167474,21.382136787369827" stroke="#00f" stroke-linecap="round" stroke-linejoin="round"/><polyline fill="none" points="62.20548728264608,148.23089190344066 64.70548728266583,147.5610189223957 66.53561430162155,145.73089190349208 67.20548728273768,143.2308919034914 66.53561430169272,140.73089190347164 64.70548728278911,138.90076488451592 62.20548728278843,138.2308919033998 59.705487282768686,138.90076488444475 57.875360263812965,140.73089190334838 57.205487282696836,143.23089190334906 57.87536026374179,145.7308919033688 59.70548728264541,147.56101892232454 62.20548728264608,148.23089190344066" stroke="#ffa500" stroke-linecap="round" stroke-linejoin="round"/><polyline fill="none" points="-305.3564344342159,-148.0304606488345 -302.85643443419616,-148.70033362987945 -301.02630741524047,-150.53046064878308 -300.3564344341243,-153.03046064878376 -301.02630741516924,-155.5304606488035 -302.85643443407287,-157.36058766775923 -305.35643443407355,-158.03046064887536 -307.8564344340933,-157.3605876678304 -309.686561453049,-155.53046064892678 -310.3564344341652,-153.0304606489261 -309.68656145312025,-150.53046064890634 -307.8564344342166,-148.70033362995062 -305.35643443421594,-148.0304606488345" stroke="#ffa500" stroke-linecap="round" stroke-linejoin="round"/><polyline fill="none" points="-123.50131794303968,-110.90488533280738 -121.00131794301993,-111.57475831385233 -119.1711909240642,-113.40488533275594 -118.50131794294808,-115.90488533275662 -119.17119092399302,-118.40488533277637 -121.00131794289663,-120.2350123517321 -123.50131794289732,-120.90488533284822 -126.00131794291707,-120.23501235180328 -127.83144496187279,-118.40488533289967 -128.50131794298892,-115.90488533289898 -127.83144496194397,-113.40488533287923 -126.00131794304036,-111.57475831392351 -123.50131794303968,-110.90488533280738" stroke="#ffa500" stroke-linecap="round" stroke-linejoin="round"/><polyline fill="none" points="-198.1760783605594,49.17165269161713 -195.67607836053963,48.50177971057218 -193.8459513415839,46.67165269166856 -193.17607836046778,44.17165269166789 -193.84595134151274,41.671652691648134 -195.67607836041637,39.841525672692406 -198.17607836041705,39.17165269157627 -200.6760783604368,39.841525672621216 -202.50620537939253,41.67165269152483 -203.17607836050865,44.1716526915255 -202.5062053794637,46.671652691545255 -200.67607836056007,48.50177971050098 -198.1760783605594,49.17165269161712" stroke="#ffa500" stroke-linecap="round" stroke-linejoin="round"/><polyline fill="none" points="34.45345363911102,110.47017958819629 36.95345363913077,109.80030660715134 38.7835806580865,107.97017958824773 39.453453639202635,105.47017958824705 38.78358065815769,102.9701795882273 36.95345363925408,101.14005256927157 34.453453639253404,100.47017958815543 31.95345363923365,101.14005256920038 30.123326620277922,102.97017958810399 29.453453639161783,105.47017958810467 30.12332662020673,107.97017958812442 31.95345363911034,109.80030660708016 34.45345363911102,110.4701795881963" stroke="#00f" stroke-linecap="round" stroke-linejoin="round"/><polyline fill="none" points="12.095496561873142,209.1055388498146 14.595496561892896,208.43566586876966 16.425623580848626,206.60553884986604 17.09549656196477,204.10553884986535 16.425623580919822,201.6055388498456 14.595496562016212,199.77541183088988 12.095496562015537,199.10553884977375 9.595496561995784,199.77541183081868 7.765369543040053,201.6055388497223 7.09549656192391,204.105538849723 7.765369542968854,206.60553884974274 9.595496561872464,208.43566586869846 12.09549656187314,209.10553884981462" stroke="#ffa500" stroke-linecap="round" stroke-linejoin="round"/><polyline fill="none" points="-129.13858980446687,-31.039791500893998 -126.63858980444712,-31.70966448193894 -124.80846278549139,-33.53979150084255 -124.13858980437524,-36.03979150084322 -124.80846278542019,-38.539791500862975 -126.6385898043238,-40.36991851981871 -129.13858980432448,-41.039791500934854 -131.63858980434424,-40.369918519889914 -133.46871682329996,-38.539791500986304 -134.1385898044161,-36.03979150098563 -133.46871682337118,-33.539791500965876 -131.63858980446759,-31.70966448201014 -129.1385898044669,-31.039791500893994" stroke="#00f" stroke-linecap="round" stroke-linejoin="round"/><polyline fill="none" points="-142.3905294564108,95.94583739394365 -139.89052945639105,95.2759644128987 -138.06040243743533,93.44583739399509 -137.39052945631917,90.94583739399441 -138.0604024373641,88.44583739397466 -139.8905294562677,86.61571037501892 -142.39052945626838,85.94583739390278 -144.89052945628814,86.61571037494772 -146.72065647524389,88.44583739385133 -147.39052945636004,90.94583739385202 -146.7206564753151,93.44583739387177 -144.8905294564115,95.2759644128275 -142.39052945641083,95.94583739394365" stroke="#ffa500" stroke-linecap="round" stroke-linejoin="round"/><polyline fill="none" points="10.093299039127945,5.484521781480701 12.593299039147702,4.814648800435762 14.42342605810344,2.9845217815321554 15.09329903921959,0.48452178153147996 14.423426058174652,-2.0154782184882767 12.593299039271045,-3.8456052374440146 10.09329903927037,-4.515478218560165 7.5932990392506134,-3.8456052375152283 5.763172020294875,-2.015478218611623 5.093299039178723,0.48452178138905255 5.76317202022366,2.98452178140881 7.593299039127265,4.814648800364549 10.09329903912794,5.4845217814807015" stroke="#ffa500" stroke-linecap="round" stroke-linejoin="round"/><polyline fill="none" points="-255.1724568800261,-107.8820827068577 -252.67245688000634,-108.55195568790263 -250.8423298610506,-110.38208270680624 -250.17245687993443,-112.88208270680693 -250.84232986097936,-115.38208270682668 -252.67245687988296,-117.21220972578242 -255.17245687988364,-117.88208270689857 -257.6724568799034,-117.21220972585364 -259.50258389885914,-115.38208270695003 -260.1724568799753,-112.88208270694935 -259.50258389893037,-110.3820827069296 -257.67245688002674,-108.55195568797386 -255.17245688002606,-107.8820827068577" stroke="#008000" stroke-linecap="round" stroke-linejoin="round"/><polyline fill="none" points="-240.01865752674112,-111.56825983367511 -237.51865752672137,-112.23813281472005 -235.68853050776562,-114.06825983362364 -235.01865752664946,-116.56825983362432 -235.6885305076944,-119.06825983364408 -237.518657526598,-120.89838685259983 -240.01865752659867,-121.56825983371598 -242.51865752661843,-120.89838685267105 -244.34878454557418,-119.06825983376746 -245.01865752669033,-116.56825983376677 -244.3487845456454,-114.06825983374702 -242.5186575267418,-112.23813281479127 -240.01865752674112,-111.56825983367511" stroke="#00f" stroke-linecap="round" stroke-linejoin="round"/><polyline fill="none" points="58.17144765000531,246.19162765965092 60.67144765002507,245.521754678606 62.501574668980815,243.6916276597024 63.17144765009697,241.1916276597017 62.50157466905204,238.69162765968196 60.67144765014844,236.8615006407262 58.17144765014776,236.19162765961005 55.671447650128,236.86150064065498 53.84132063117226,238.69162765955858 53.1714476500561,241.19162765955926 53.841320631101034,243.691627659579 55.67144765000464,245.52175467853476 58.17144765000531,246.19162765965092" stroke="#00f" stroke-linecap="round" stroke-linejoin="round"/><polyline fill="none" points="-224.4389126675823,-13.324427486257544 -221.93891266756253,-13.994300467302473 -220.10878564860678,-15.824427486206075 -219.43891266749063,-18.32442748620675 -220.10878564853556,-20.82442748622651 -221.93891266743915,-22.654554505182258 -224.43891266743984,-23.32442748629842 -226.9389126674596,-22.65455450525349 -228.76903968641534,-20.82442748634989 -229.4389126675315,-18.324427486349215 -228.76903968648656,-15.824427486329451 -226.93891266758297,-13.994300467373703 -224.4389126675823,-13.32442748625754" stroke="#00f" stroke-linecap="round" stroke-linejoin="round"/><polyline fill="none" points="143.1279494560211,171.86736975276253 145.62794945604085,171.1974967717176 147.4580764749966,169.367369752814 148.12794945611276,166.86736975281332 147.45807647506783,164.36736975279356 145.62794945616423,162.53724273383781 143.12794945616355,161.86736975272166 140.6279494561438,162.5372427337666 138.79782243718805,164.3673697526702 138.1279494560719,166.86736975267087 138.79782243711682,169.36736975269062 140.62794945602042,171.19749677164637 143.1279494560211,171.86736975276253" stroke="#ffa500" stroke-linecap="round" stroke-linejoin="round"/><polyline fill="none" points="-182.59897648167353,-62.98133106144441 -180.09897648165378,-63.65120404248933 -178.26884946269803,-65.48133106139294 -177.59897648158187,-67.98133106139362 -178.2688494626268,-70.48133106141339 -180.0989764815304,-72.31145808036914 -182.59897648153108,-72.9813310614853 -185.09897648155084,-72.31145808044039 -186.92910350050659,-70.48133106153679 -187.59897648162274,-67.98133106153611 -186.9291035005778,-65.48133106151634 -185.0989764816742,-63.651204042560586 -182.59897648167353,-62.981331061444415" stroke="#ffa500" stroke-linecap="round" stroke-linejoin="round"/><polyline fill="none" points="105.28240149053565,-82.05644784961702 107.78240149055542,-82.72632083066193 109.61252850951116,-84.55644784956553 110.28240149062734,-87.05644784956621 109.61252850958242,-89.55644784958598 107.78240149067882,-91.38657486854173 105.28240149067814,-92.0564478496579 102.78240149065837,-91.38657486861298 100.95227447170262,-89.55644784970939 100.28240149058645,-87.0564478497087 100.95227447163137,-84.55644784968894 102.78240149053497,-82.72632083073319 105.28240149053565,-82.05644784961702" stroke="#ffa500" stroke-linecap="round" stroke-linejoin="round"/><polyline fill="none" points="-196.75909157791423,117.69500281829444 -194.25909157789445,117.02512983724952 -192.4289645589387,115.19500281834593 -191.75909157782252,112.69500281834524 -192.42896455886745,110.19500281832548 -194.25909157777104,108.36487579936971 -196.75909157777173,107.69500281825354 -199.2590915777915,108.36487579929846 -201.08921859674726,110.19500281820206 -201.75909157786344,112.69500281820274 -201.08921859681854,115.1950028182225 -199.25909157791494,117.02512983717827 -196.75909157791426,117.69500281829444" stroke="#ffa500" stroke-linecap="round" stroke-linejoin="round"/><polyline fill="none" points="58.75346692023673,-55.23937832692484 61.2534669202565,-55.90925130796976 63.08359393921226,-57.73937832687336 63.753466920328435,-60.23937832687403 63.08359393928352,-62.7393783268938 61.25346692037992,-64.56950534584956 58.753466920379246,-65.23937832696573 56.25346692035948,-64.56950534592082 54.42333990140372,-62.73937832701722 53.75346692028754,-60.239378327016546 54.42333990133246,-57.73937832699678 56.25346692023606,-55.909251308041014 58.75346692023673,-55.239378326924836" stroke="#ffa500" stroke-linecap="round" stroke-linejoin="round"/><polyline fill="none" points="-301.7487678511842,-70.08864936042006 -299.2487678511644,-70.75852234146498 -297.41864083220867,-72.58864936036858 -296.7487678510925,-75.08864936036926 -297.41864083213744,-77.58864936038903 -299.248767851041,-79.41877637934479 -301.7487678510417,-80.08864936046098 -304.2487678510615,-79.41877637941606 -306.0788948700172,-77.58864936051246 -306.7487678511334,-75.08864936051178 -306.07889487008845,-72.58864936049201 -304.2487678511849,-70.75852234153625 -301.7487678511842,-70.08864936042006" stroke="#008000" stroke-linecap="round" stroke-linejoin="round"/><polyline fill="none" points="-155.49399165148367,71.8078352028901 -152.9939916514639,71.13796222184519 -151.1638646325081,69.30783520294159 -150.49399165139192,66.80783520294091 -151.16386463243683,64.30783520292114 -152.99399165134042,62.477708183965376 -155.4939916513411,61.80783520284919 -157.9939916513609,62.4777081838941 -159.82411867031666,64.30783520279769 -160.49399165143285,66.80783520279837 -159.82411867038795,69.30783520281814 -157.99399165148435,71.1379622217739 -155.49399165148367,71.80783520289009" stroke="#00f" stroke-linecap="round" stroke-linejoin="round"/><polyline fill="none" points="-124.87348836993829,-28.017202434220238 -122.37348836991852,-28.68707541526515 -120.54336135096275,-30.517202434168738 -119.87348836984657,-33.01720243416941 -120.54336135089147,-35.51720243418919 -122.37348836979507,-37.34732945314495 -124.87348836979575,-38.01720243426114 -127.37348836981553,-37.347329453216226 -129.2036153887713,-35.51720243431264 -129.8734883698875,-33.01720243431196 -129.2036153888426,-30.517202434292187 -127.373488369939,-28.68707541533642 -124.87348836993831,-28.017202434220234" stroke="#ffa500" stroke-linecap="round" stroke-linejoin="round"/><polyline fill="none" points="100.73966378613845,154.2116849430084 103.23966378615823,153.5418119619635 105.069790805114,151.7116849430599 105.73966378623018,149.21168494305923 105.06979080518528,146.71168494303944 103.23966378628168,144.88155792408367 100.739663786281,144.21168494296748 98.23966378626122,144.88155792401238 96.40953676730544,146.71168494291598 95.73966378618925,149.21168494291666 96.40953676723416,151.71168494293644 98.23966378613774,153.54181196189222 100.73966378613842,154.2116849430084" stroke="#00f" stroke-linecap="round" stroke-linejoin="round"/><polyline fill="none" points="-391.02665888873014,-48.75312070674169 -388.52665888871036,-49.422993687786594 -386.6965318697546,-51.25312070669018 -386.0266588886384,-53.75312070669086 -386.69653186968327,-56.25312070671064 -388.52665888858684,-58.08324772566641 -391.0266588885875,-58.7531207067826 -393.5266588886073,-58.0832477257377 -395.35678590756305,-56.25312070683411 -396.02665888867926,-53.753120706833435 -395.3567859076344,-51.253120706813654 -393.5266588887308,-49.42299368785788 -391.02665888873014,-48.75312070674169" stroke="#ffa500" stroke-linecap="round" stroke-linejoin="round"/><polyline fill="none" points="-212.94931706196644,98.45597728428737 -210.44931706194666,97.78610430324247 -208.61919004299088,95.95597728433889 -207.9493170618747,93.4559772843382 -208.6191900429196,90.95597728431842 -210.4493170618232,89.12585026536264 -212.94931706182388,88.45597728424644 -215.44931706184366,89.12585026529135 -217.27944408079944,90.95597728419493 -217.94931706191562,93.45597728419561 -217.27944408087072,95.9559772842154 -215.44931706196712,97.78610430317117 -212.94931706196644,98.45597728428737" stroke="#ffa500" stroke-linecap="round" stroke-linejoin="round"/><polyline fill="none" points="-284.19416257568435,88.34674124966794 -281.69416257566456,87.67686826862304 -279.8640355567088,85.84674124971946 -279.1941625755926,83.34674124971878 -279.8640355566375,80.846741249699 -281.69416257554104,79.01661423074322 -284.1941625755417,78.34674124962702 -286.6941625755615,79.01661423067192 -288.5242895945173,80.8467412495755 -289.1941625756335,83.34674124957618 -288.52428959458865,85.84674124959596 -286.6941625756851,87.67686826855174 -284.1941625756844,88.34674124966794" stroke="#ffa500" stroke-linecap="round" stroke-linejoin="round"/><polyline fill="none" points="-233.18369833976493,-97.92305128105274 -230.68369833974515,-98.59292426209764 -228.85357132078937,-100.42305128100122 -228.18369833967319,-102.9230512810019 -228.8535713207181,-105.42305128102169 -230.68369833962169,-107.25317829997746 -233.18369833962237,-107.92305128109366 -235.68369833964215,-107.25317830004877 -237.51382535859793,-105.42305128114519 -238.18369833971414,-102.92305128114451 -237.51382535866924,-100.42305128112473 -235.68369833976564,-98.59292426216895 -233.18369833976496,-97.92305128105275" stroke="#008000" stroke-linecap="round" stroke-linejoin="round"/><polyline fill="none" points="-334.61807329236,-62.49203295627795 -332.1180732923402,-63.16190593732285 -330.2879462733844,-64.99203295622644 -329.6180732922682,-67.49203295622712 -330.2879462733131,-69.9920329562469 -332.11807329221665,-71.82215997520268 -334.61807329221733,-72.49203295631888 -337.1180732922371,-71.82215997527399 -338.9482003111929,-69.99203295637041 -339.61807329230913,-67.49203295636973 -338.94820031126426,-64.99203295634995 -337.1180732923607,-63.16190593739416 -334.61807329236,-62.49203295627795" stroke="#ffa500" stroke-linecap="round" stroke-linejoin="round"/><polyline fill="none" points="-256.19590181338305,-112.01275463628885 -253.69590181336326,-112.68262761733374 -251.86577479440749,-114.51275463623732 -251.19590181329127,-117.012754636238 -251.86577479433618,-119.51275463625778 -253.69590181323974,-121.34288165521356 -256.1959018132404,-122.01275463632976 -258.6959018132602,-121.34288165528487 -260.526028832216,-119.51275463638129 -261.1959018133322,-117.0127546363806 -260.52602883228735,-114.51275463636082 -258.6959018133838,-112.68262761740503 -256.1959018133831,-112.01275463628883" stroke="#00f" stroke-linecap="round" stroke-linejoin="round"/><polyline fill="none" points="47.823086119978875,-149.32161678841038 50.32308611999866,-149.99148976945528 52.15321313895445,-151.82161678835885 52.823086120070656,-154.32161678835953 52.153213139025766,-156.82161678837932 50.323086120122184,-158.6517438073351 47.82308612012151,-159.3216167884513 45.32308612010172,-158.65174380740643 43.492959101145935,-156.82161678850287 42.82308612002973,-154.32161678850218 43.49295910107462,-151.8216167884824 45.3230861199782,-149.99148976952662 47.823086119978875,-149.3216167884104" stroke="#00f" stroke-linecap="round" stroke-linejoin="round"/><polyline fill="none" points="-333.5017476553792,-44.17331996632903 -331.0017476553594,-44.84319294737392 -329.1716206364036,-46.673319966277504 -328.5017476552874,-49.17331996627818 -329.17162063633225,-51.67331996629797 -331.0017476552358,-53.50344698525376 -333.5017476552365,-54.173319966369974 -336.0017476552563,-53.503446985325084 -337.8318746742121,-51.67331996642151 -338.5017476553283,-49.173319966420834 -337.8318746742834,-46.673319966401046 -336.00174765537986,-44.84319294744525 -333.5017476553792,-44.17331996632904" stroke="#00f" stroke-linecap="round" stroke-linejoin="round"/><polyline fill="none" points="52.662110379828626,110.5182079412658 55.162110379848414,109.84833496022091 56.99223739880421,108.01820794131733 57.66211037992042,105.51820794131665 56.99223739887554,103.01820794129685 55.16211037997196,101.18808092234106 52.66211037997129,100.51820794122484 50.1621103799515,101.18808092226973 48.33198336099571,103.01820794117332 47.66211037987949,105.518207941174 48.331983360924376,108.0182079411938 50.16211037982795,109.84833496014959 52.662110379828626,110.5182079412658" stroke="#ffa500" stroke-linecap="round" stroke-linejoin="round"/><polyline fill="none" points="-265.3445349479247,10.987198020967156 -262.84453494790495,10.317325039922274 -261.01440792894914,8.487198021018697 -260.3445349478329,5.98719802101802 -261.0144079288778,3.4871980209982283 -262.84453494778137,1.6570710020424324 -265.34453494778205,0.9871980209262158 -267.84453494780183,1.6570710019710972 -269.67466196675764,3.487198020874672 -270.34453494787385,5.987198020875349 -269.674661966829,8.487198020895141 -267.8445349479254,10.317325039850937 -265.3445349479247,10.987198020967154" stroke="#008000" stroke-linecap="round" stroke-linejoin="round"/><polyline fill="none" points="29.804619783515292,39.40905645091736 32.30461978353509,38.73918346987248 34.13474680249089,36.909056450968905 34.80461978360711,34.40905645096823 34.134746802562226,31.909056450948437 32.30461978365865,30.07892943199264 29.804619783657973,29.409056450876424 27.30461978363818,30.078929431921303 25.47449276468238,31.909056450824878 24.80461978356616,34.40905645082555 25.47449276461104,36.90905645084535 27.304619783514614,38.73918346980115 29.804619783515292,39.40905645091737" stroke="#ffa500" stroke-linecap="round" stroke-linejoin="round"/><polyline fill="none" points="53.198675685509045,-228.19802348275522 55.69867568552884,-228.8678964638001 57.52880270448464,-230.69802348270366 58.19867568560086,-233.19802348270434 57.528802704555986,-235.69802348272412 55.69867568565241,-237.52815050167993 53.198675685651736,-238.19802348279615 50.69867568563194,-237.52815050175127 48.86854866667614,-235.6980234828477 48.19867568555992,-233.19802348284702 48.868548666604795,-230.69802348282724 50.69867568550837,-228.86789646387143 53.198675685509045,-228.19802348275522" stroke="#ffa500" stroke-linecap="round" stroke-linejoin="round"/><polyline fill="none" points="19.388363962663657,252.0414260534071 21.888363962683453,251.37155307236222 23.718490981639256,249.54142605345865 24.38836396275548,247.04142605345797 23.718490981710605,244.5414260534382 21.888363962807034,242.71129903448238 19.388363962806356,242.04142605336617 16.88836396278656,242.71129903441104 15.058236943830757,244.5414260533146 14.38836396271453,247.0414260533153 15.058236943759404,249.5414260533351 16.888363962662975,251.3715530722909 19.388363962663654,252.04142605340712" stroke="#ffa500" stroke-linecap="round" stroke-linejoin="round"/><polyline fill="none" points="227.9338756008172,-147.8668765592497 230.433875600837,-148.53674954029458 232.26400261979282,-150.36687655919815 232.93387560090903,-152.86687655919883 232.26400261986416,-155.36687655921864 230.4338756009606,-157.19700357817445 227.9338756009599,-157.86687655929066 225.4338756009401,-157.19700357824578 223.6037485819843,-155.36687655934222 222.93387560086805,-152.86687655934153 223.60374858191292,-150.36687655932172 225.4338756008165,-148.53674954036592 227.93387560081717,-147.86687655924968" stroke="#ffa500" stroke-linecap="round" stroke-linejoin="round"/><polyline fill="none" points="45.788135582579805,-140.99612955841775 48.2881355825996,-141.66600253946262 50.11826260155541,-143.4961295583662 50.788135582671636,-145.99612955836687 50.11826260162677,-148.49612955838668 48.2881355827232,-150.3262565773425 45.788135582722525,-150.99612955845873 43.28813558270273,-150.32625657741386 41.45800856374692,-148.4961295585103 40.788135582630694,-145.9961295585096 41.45800856367556,-143.4961295584898 43.28813558257913,-141.666002539534 45.788135582579805,-140.99612955841775" stroke="#ffa500" stroke-linecap="round" stroke-linejoin="round"/><polyline fill="none" points="28.34361505439773,-101.51967566042156 30.84361505441753,-102.18954864146642 32.67374207337334,-104.01967566036998 33.343615054489575,-106.51967566037067 32.67374207344471,-109.01967566039046 30.84361505454114,-110.84980267934627 28.34361505454046,-111.5196756604625 25.84361505452066,-110.84980267941764 24.01348803556485,-109.01967566051407 23.343615054448616,-106.51967566051339 24.01348803549348,-104.01967566049359 25.843615054397045,-102.18954864153778 28.343615054397723,-101.51967566042154" stroke="#00f" stroke-linecap="round" stroke-linejoin="round"/><polyline fill="none" points="172.54987985902815,-127.20500732726373 175.04987985904796,-127.87488030830859 176.88000687800377,-129.70500732721214 177.54987985912,-132.20500732721283 176.88000687807514,-134.70500732723264 175.04987985917157,-136.53513434618844 172.5498798591709,-137.20500732730468 170.04987985915108,-136.5351343462598 168.21975284019527,-134.70500732735624 167.54987985907903,-132.20500732735556 168.2197528401239,-129.70500732733575 170.04987985902747,-127.87488030837993 172.54987985902815,-127.20500732726369" stroke="#00f" stroke-linecap="round" stroke-linejoin="round"/><polyline fill="none" points="-370.7510193350565,-39.46351531152394 -368.25101933503674,-40.1333882925688 -366.42089231608094,-41.963515311472364 -365.7510193349647,-44.46351531147304 -366.4208923160096,-46.96351531149284 -368.25101933491317,-48.793642330448655 -370.75101933491385,-49.4635153115649 -373.25101933493363,-48.793642330520036 -375.08114635388944,-46.963515311616476 -375.75101933500565,-44.4635153116158 -375.0811463539608,-41.963515311596 -373.2510193350572,-40.133388292640184 -370.7510193350565,-39.46351531152394" stroke="#00f" stroke-linecap="round" stroke-linejoin="round"/><polyline fill="none" points="103.47305601341202,-111.18123078048458 105.97305601343183,-111.85110376152944 107.80318303238765,-113.68123078043301 108.47305601350389,-116.1812307804337 107.80318303245903,-118.6812307804535 105.97305601355546,-120.51135779940932 103.47305601355478,-121.18123078052557 100.97305601353497,-120.5113577994807 99.14292899457915,-118.68123078057714 98.47305601346291,-116.18123078057646 99.14292899450777,-113.68123078055665 100.97305601341134,-111.85110376160083 103.47305601341202,-111.18123078048458" stroke="#00f" stroke-linecap="round" stroke-linejoin="round"/><polyline fill="none" points="-305.3624035252034,-130.23411611819458 -302.8624035251836,-130.90398909923942 -301.0322765062278,-132.734116118143 -300.3624035251115,-135.23411611814367 -301.0322765061564,-137.73411611816348 -302.86240352505996,-139.5642431371193 -305.36240352506064,-140.23411611823553 -307.8624035250804,-139.5642431371907 -309.69253054403623,-137.73411611828712 -310.3624035251525,-135.23411611828644 -309.6925305441076,-132.73411611826663 -307.86240352520406,-130.90398909931082 -305.3624035252034,-130.23411611819458" stroke="#ffa500" stroke-linecap="round" stroke-linejoin="round"/><polyline fill="none" points="-273.4245338197294,130.8657101733034 -270.9245338197096,130.19583719225855 -269.0944068007538,128.36571017335498 -268.42453381963753,125.8657101733543 -269.0944068006824,123.36571017333449 -270.924533819586,121.53558315437867 -273.42453381958666,120.86571017326243 -275.92453381960644,121.53558315430729 -277.75466083856224,123.36571017321084 -278.4245338196785,125.86571017321153 -277.75466083863364,128.36571017323132 -275.9245338197301,130.19583719218716 -273.4245338197294,130.8657101733034" stroke="#ffa500" stroke-linecap="round" stroke-linejoin="round"/><polyline fill="none" points="-216.55904845152722,18.4407950289312 -214.0590484515074,17.770922047886344 -212.22892143255157,15.940795028982786 -211.55904845143533,13.440795028982109 -212.22892143248018,10.9407950289623 -214.05904845138375,9.110668010006476 -216.55904845138443,8.440795028890225 -219.05904845140424,9.110668009935077 -220.88917547036007,10.940795028838636 -221.55904845147631,13.440795028839315 -220.88917547043147,15.940795028859124 -219.0590484515279,17.77092204781495 -216.55904845152722,18.440795028931202" stroke="#00f" stroke-linecap="round" stroke-linejoin="round"/><polyline fill="none" points="-285.75980352059145,-50.336463186820936 -283.2598035205716,-51.00633616786579 -281.4296765016158,-52.83646318676935 -280.75980352049953,-55.336463186770025 -281.4296765015444,-57.836463186789835 -283.259803520448,-59.66659020574566 -285.75980352044866,-60.33646318686192 -288.2598035204685,-59.66659020581707 -290.0899305394243,-57.83646318691352 -290.7598035205406,-55.336463186912844 -290.0899305394957,-52.836463186893035 -288.25980352059213,-51.00633616793721 -285.75980352059145,-50.33646318682095" stroke="#008000" stroke-linecap="round" stroke-linejoin="round"/><polyline fill="none" points="165.14316810400888,-96.03228841981901 167.6431681040287,-96.70216140086386 169.47329512298452,-98.53228841976741 170.14316810410077,-101.0322884197681 169.47329512305592,-103.5322884197879 167.64316810415235,-105.36241543874374 165.14316810415167,-106.03228841986 162.64316810413186,-105.36241543881515 160.81304108517602,-103.5322884199116 160.14316810405975,-101.03228841991091 160.8130410851046,-98.5322884198911 162.64316810400817,-96.70216140093527 165.14316810400885,-96.03228841981901" stroke="#ffa500" stroke-linecap="round" stroke-linejoin="round"/><polyline fill="none" points="76.92079640997753,-198.68393684010596 79.42079640999734,-199.3538098211508 81.25092342895317,-201.18393684005434 81.92079641006943,-203.68393684005503 81.25092342902458,-206.18393684007484 79.42079641012103,-208.01406385903067 76.92079641012035,-208.68393684014694 74.42079641010054,-208.0140638591021 72.5906693911447,-206.18393684019856 71.92079641002844,-203.68393684019787 72.59066939107329,-201.18393684017806 74.42079640997684,-199.35380982122223 76.92079640997753,-198.68393684010596" stroke="#ffa500" stroke-linecap="round" stroke-linejoin="round"/><polyline fill="none" points="-293.976765939173,-94.09203819008816 -291.47676593915315,-94.76191117113301 -289.64663892019735,-96.59203819003656 -288.9767659390811,-99.09203819003724 -289.6466389201259,-101.59203819005705 -291.47676593902946,-103.42216520901289 -293.97676593903014,-104.09203819012914 -296.47676593905,-103.4221652090843 -298.30689295800585,-101.59203819018074 -298.9767659391221,-99.09203819018006 -298.3068929580773,-96.59203819016025 -296.47676593917373,-94.76191117120442 -293.97676593917305,-94.09203819008815" stroke="#00f" stroke-linecap="round" stroke-linejoin="round"/><polyline fill="none" points="84.35031672176362,-143.45935453528415 86.85031672178343,-144.129227516329 88.68044374073926,-145.95935453523253 89.35031672185553,-148.45935453523322 88.6804437408107,-150.95935453525303 86.85031672190715,-152.78948155420886 84.35031672190647,-153.45935453532513 81.85031672188666,-152.7894815542803 80.02018970293082,-150.95935453537675 79.35031672181455,-148.45935453537606 80.02018970285938,-145.95935453535625 81.85031672176294,-144.12922751640042 84.35031672176362,-143.45935453528415" stroke="#00f" stroke-linecap="round" stroke-linejoin="round"/><polyline fill="none" points="58.524593411861055,-93.67576914727863 61.02459341188087,-94.34564212832346 62.854720430836714,-96.17576914722702 63.524593411952985,-98.6757691472277 62.854720430908145,-101.17576914724751 61.0245934120046,-103.00589616620334 58.524593412003924,-103.67576914731961 56.02459341198411,-103.00589616627478 54.194466393028264,-101.17576914737123 53.524593411911994,-98.67576914737054 54.194466392956826,-96.17576914735072 56.02459341186037,-94.34564212839489 58.52459341186105,-93.67576914727861" stroke="#ffa500" stroke-linecap="round" stroke-linejoin="round"/><polyline fill="none" points="-245.29462763589027,106.07098491321396 -242.79462763587046,105.40111193216913 -240.96450061691462,103.57098491326558 -240.29462763579835,101.0709849132649 -240.9645006168432,98.57098491324507 -242.79462763574674,96.74085789428922 -245.29462763574742,96.07098491317295 -247.79462763576723,96.74085789421778 -249.62475465472306,98.57098491312132 -250.29462763583933,101.070984913122 -249.62475465479451,103.57098491314183 -247.79462763589098,105.40111193209768 -245.2946276358903,106.07098491321395" stroke="#ffa500" stroke-linecap="round" stroke-linejoin="round"/><polyline fill="none" points="-304.04938330193414,-65.58759433359545 -301.5493833019143,-66.25746731464028 -299.71925628295844,-68.08759433354382 -299.04938330184217,-70.5875943335445 -299.719256282887,-73.08759433356433 -301.54938330179056,-74.91772135252018 -304.04938330179124,-75.58759433363645 -306.5493833018111,-74.91772135259161 -308.37951032076694,-73.08759433368807 -309.0493833018832,-70.58759433368739 -308.3795103208384,-68.08759433366757 -306.5493833019348,-66.25746731471172 -304.04938330193414,-65.58759433359545" stroke="#008000" stroke-linecap="round" stroke-linejoin="round"/><polyline fill="none" points="-194.4660281820874,-29.147845982285254 -191.9660281820676,-29.817718963330083 -190.13590116311175,-31.647845982233626 -189.46602818199548,-34.1478459822343 -190.1359011630403,-36.647845982254125 -191.96602818194384,-38.477973001209975 -194.46602818194452,-39.14784598232625 -196.96602818196433,-38.47797300128143 -198.7961552009202,-36.64784598237788 -199.46602818203647,-34.147845982377206 -198.79615520099165,-31.64784598235738 -196.9660281820881,-29.817718963401532 -194.46602818208743,-29.14784598228525" stroke="#ffa500" stroke-linecap="round" stroke-linejoin="round"/><polyline fill="none" points="-210.5338440065659,-83.76481545134814 -208.03384400654608,-84.43468843239297 -206.2037169875902,-86.26481545129651 -205.53384400647394,-88.7648154512972 -206.20371698751876,-91.26481545131702 -208.0338440064223,-93.09494247027287 -210.53384400642298,-93.76481545138915 -213.0338440064428,-93.09494247034434 -214.86397102539866,-91.2648154514408 -215.53384400651493,-88.76481545144011 -214.8639710254701,-86.26481545142029 -213.03384400656657,-84.43468843246444 -210.5338440065659,-83.76481545134816" stroke="#ffa500" stroke-linecap="round" stroke-linejoin="round"/><polyline fill="none" points="-256.85449724626125,-99.54359774001645 -254.3544972462414,-100.21347072106127 -252.52437022728554,-102.04359773996481 -251.85449724616927,-104.54359773996549 -252.5243702272141,-107.04359773998532 -254.35449724611763,-108.87372475894117 -256.8544972461183,-109.54359774005745 -259.3544972461381,-108.87372475901263 -261.184624265094,-107.04359774010909 -261.85449724621026,-104.54359774010841 -261.18462426516544,-102.04359774008859 -259.3544972462619,-100.21347072113274 -256.8544972462612,-99.54359774001645" stroke="#00f" stroke-linecap="round" stroke-linejoin="round"/><polyline fill="none" points="51.4285470739895,227.82285618331355 53.92854707400932,227.15298320226873 55.75867409296518,225.3228561833652 56.428547074081465,222.8228561833645 55.758674093036646,220.32285618334467 53.92854707413311,218.4927291643888 51.42854707413243,217.8228561832725 48.92854707411261,218.49272916431732 47.09842005515675,220.32285618322086 46.428547074040466,222.82285618322155 47.098420055085285,225.32285618324138 48.928547073988824,227.15298320219725 51.4285470739895,227.82285618331355" stroke="#ffa500" stroke-linecap="round" stroke-linejoin="round"/><polyline fill="none" points="-218.01824352054882,12.235810241351686 -215.51824352052898,11.565937260306866 -213.68811650157312,9.735810241403327 -213.01824352045682,7.23581024140265 -213.68811650150164,4.735810241382822 -215.51824352040518,2.9056832224269633 -218.01824352040586,2.2358102413106735 -220.5182435204257,2.9056832223554916 -222.34837053938156,4.7358102412590295 -223.01824352049786,7.235810241259706 -222.34837053945304,9.735810241279534 -220.5182435205495,11.565937260235394 -218.01824352054882,12.235810241351684" stroke="#ffa500" stroke-linecap="round" stroke-linejoin="round"/></svg>