<?xml version="1.0" ?><!DOCTYPE svg  PUBLIC '-//W3C//DTD SVG 1.1//EN'  'http://www.w3.org/Graphics/SVG/1.1/DTD/svg11.dtd'><svg height="318.000" viewBox="-144.000 -148.000 290.000 318.000" width="290.000" xmlns="http://www.w3.org/2000/svg"><line fill="none" stroke="none" stroke-linecap="round" stroke-width="2.0" x1="0.0" x2="0.0" y1="0.0" y2="0.0"/><polygon fill="none" fill-rule="evenodd" points="0.0,0.0 0.0,0.0 0.0,0.0" stroke-linejoin="round"/><polyline fill="none" points="-9.32401713083725,-80.72189187986038 -6.824017130835207,-81.39176486093481 -4.993890111909556,-83.22189187985511 -4.3240171308278015,-85.72189187985519 -4.993890111902229,-88.22189187985724 -6.824017130822518,-90.05201889878289 -9.324017130822597,-90.72189187986464 -11.82401713082464,-90.05201889879021 -13.654144149750293,-88.22189187986991 -14.324017130832049,-85.72189187986983 -13.654144149757622,-83.22189187986778 -11.824017130837333,-81.39176486094213 -9.324017130837253,-80.72189187986038" stroke="#ffa500" stroke-linecap="round" stroke-linejoin="round"/><polyline fill="none" points="28.826484228288813,-84.79437733406351 31.326484228290855,-85.46425031513793 33.15661124721651,-87.29437733405823 33.82648422829827,-89.79437733405831 33.15661124722384,-92.29437733406036 31.326484228303556,-94.12450435298601 28.826484228303478,-94.79437733406776 26.32648422830143,-94.12450435299334 24.496357209375777,-92.29437733407305 23.826484228294017,-89.79437733407296 24.49635720936844,-87.29437733407092 26.326484228288727,-85.46425031514526 28.826484228288805,-84.79437733406351" stroke="#ffa500" stroke-linecap="round" stroke-linejoin="round"/><polyline fill="none" points="42.6620970096683,-113.07790826691527 45.16209700967035,-113.74778124798969 46.992224028596006,-115.57790826690997 47.662097009677765,-118.07790826691006 46.992224028603346,-120.5779082669121 45.16209700968306,-122.40803528583776 42.66209700968298,-123.07790826691952 40.162097009680934,-122.4080352858451 38.331969990755276,-120.57790826692482 37.662097009673516,-118.07790826692474 38.331969990747936,-115.57790826692269 40.16209700966822,-113.74778124799704 42.6620970096683,-113.07790826691527" stroke="#ffa500" stroke-linecap="round" stroke-linejoin="round"/><polyline fill="none" points="27.357238529670276,-92.59026883780722 29.857238529672323,-93.26014181888164 31.68736554859798,-95.09026883780191 32.35723852967974,-97.590268837802 31.68736554860532,-100.09026883780405 29.857238529685038,-101.92039585672971 27.357238529684956,-102.59026883781148 24.85723852968291,-101.92039585673706 23.02711151075725,-100.09026883781678 22.357238529675488,-97.5902688378167 23.027111510749908,-95.09026883781465 24.85723852967019,-93.26014181888898 27.35723852967027,-92.59026883780722" stroke="#ffa500" stroke-linecap="round" stroke-linejoin="round"/><polyline fill="none" points="-36.85570931377752,26.19277090409313 -34.35570931377547,25.52289792301871 -32.52558229484981,23.692770904098428 -31.85570931376805,21.192770904098346 -32.525582294842465,18.6927709040963 -34.355709313762745,16.862643885170638 -36.85570931376282,16.19277090408887 -39.35570931376487,16.86264388516329 -41.18583633269053,18.692770904083574 -41.855709313772294,21.192770904083652 -41.185836332697875,23.6927709040857 -39.355709313777595,25.522897923011364 -36.85570931377752,26.19277090409313" stroke="#00f" stroke-linecap="round" stroke-linejoin="round"/><polyline fill="none" points="-65.5600955329324,-36.40205532873869 -63.06009553293035,-37.07192830981311 -61.22996851400468,-38.90205532873339 -60.560095532922915,-41.40205532873347 -61.229968513997335,-43.90205532873552 -63.060095532917614,-45.73218234766119 -65.5600955329177,-46.402055328742954 -68.06009553291975,-45.732182347668534 -69.89022255184541,-43.902055328748254 -70.56009553292718,-41.402055328748176 -69.89022255185276,-38.90205532874612 -68.06009553293248,-37.07192830982046 -65.5600955329324,-36.40205532873869" stroke="#00f" stroke-linecap="round" stroke-linejoin="round"/><polyline fill="none" points="16.213483630704406,-97.53483869612188 18.713483630706456,-98.2047116771963 20.54361064963212,-100.03483869611658 21.213483630713892,-102.53483869611667 20.543610649639476,-105.03483869611871 18.713483630719196,-106.86496571504438 16.213483630719114,-107.53483869612614 13.713483630717061,-106.86496571505172 11.883356611791394,-105.03483869613144 11.213483630709622,-102.53483869613136 11.883356611784034,-100.03483869612931 13.713483630704316,-98.20471167720365 16.213483630704395,-97.53483869612188" stroke="#ffa500" stroke-linecap="round" stroke-linejoin="round"/><polyline fill="none" points="81.9975992519965,-127.39475419690666 84.49759925199855,-128.06462717798107 86.32772627092422,-129.89475419690135 86.99759925200598,-132.39475419690143 86.32772627093158,-134.89475419690348 84.4975992520113,-136.72488121582916 81.99759925201121,-137.39475419691092 79.49759925200917,-136.72488121583652 77.6674722330835,-134.89475419691624 76.99759925200172,-132.39475419691615 77.66747223307613,-129.8947541969141 79.4975992519964,-128.06462717798843 81.99759925199649,-127.39475419690665" stroke="#ffa500" stroke-linecap="round" stroke-linejoin="round"/><polyline fill="none" points="-64.38570189062774,-38.257657711335156 -61.88570189062569,-38.92753069240957 -60.05557487170002,-40.75765771132985 -59.38570189061824,-43.25765771132993 -60.055574871692656,-45.75765771133198 -61.885701890612935,-47.58778473025765 -64.38570189061302,-48.25765771133943 -66.88570189061508,-47.587784730265014 -68.71582890954075,-45.757657711344734 -69.38570189062253,-43.257657711344656 -68.71582890954812,-40.7576577113426 -66.88570189062784,-38.92753069241693 -64.38570189062776,-38.25765771133515" stroke="#00f" stroke-linecap="round" stroke-linejoin="round"/><polyline fill="none" points="0.22048824548335066,38.364145683143164 2.7204882454854062,37.69427270206876 4.550615264411079,35.86414568314848 5.220488245492858,33.3641456831484 4.55061526441845,30.864145683146344 2.7204882454981734,29.03401866422067 0.2204882454980921,28.364145683138894 -2.2795117545039645,29.0340186642133 -4.109638773429639,30.864145683133575 -4.779511754511419,33.36414568313366 -4.109638773437013,35.86414568313572 -2.2795117545167356,37.69427270206139 0.22048824548334567,38.36414568314317" stroke="#00f" stroke-linecap="round" stroke-linejoin="round"/><polyline fill="none" points="73.6164675860521,-49.588579822017564 76.11646758605416,-50.25845280309197 77.94659460497984,-52.08857982201225 78.61646758606162,-54.58857982201233 77.94659460498721,-57.08857982201439 76.11646758606693,-58.91870684094006 73.61646758606685,-59.58857982202184 71.11646758606479,-58.918706840947436 69.2863405671391,-57.08857982202716 68.61646758605733,-54.58857982202708 69.28634056713173,-52.08857982202502 71.11646758605201,-50.25845280309934 73.6164675860521,-49.58857982201756" stroke="#ffa500" stroke-linecap="round" stroke-linejoin="round"/><polyline fill="none" points="67.30670720448038,-59.755920988425416 69.80670720448244,-60.42579396949982 71.63683422340812,-62.255920988420094 72.3067072044899,-64.75592098842017 71.63683422341549,-67.25592098842223 69.80670720449521,-69.08604800734791 67.30670720449513,-69.7559209884297 64.80670720449307,-69.08604800735529 62.976580185567386,-67.25592098843501 62.306707204485605,-64.75592098843492 62.97658018556001,-62.25592098843286 64.80670720448029,-60.42579396950718 67.30670720448038,-59.755920988425395" stroke="#ffa500" stroke-linecap="round" stroke-linejoin="round"/><polyline fill="none" points="77.91008596423315,-105.12921768760584 80.41008596423521,-105.79909066868025 82.24021298316089,-107.62921768760053 82.91008596424267,-110.12921768760062 82.24021298316826,-112.62921768760268 80.41008596424798,-114.45934470652836 77.9100859642479,-115.12921768761014 75.41008596424584,-114.45934470653573 73.57995894532016,-112.62921768761545 72.91008596423838,-110.12921768761537 73.57995894531278,-107.6292176876133 75.41008596423306,-105.79909066868763 77.91008596423315,-105.12921768760584" stroke="#ffa500" stroke-linecap="round" stroke-linejoin="round"/><polyline fill="none" points="8.99026882791993,33.22048074705383 11.490268827921991,32.55060776597943 13.320395846847672,30.720480747059156 13.99026882792946,28.220480747059074 13.320395846855062,25.720480747057014 11.49026882793479,23.89035372813133 8.990268827934708,23.220480747049542 6.490268827932646,23.89035372812394 4.660141809006963,25.720480747044213 3.9902688279251732,28.220480747044295 4.660141808999571,30.720480747046356 6.490268827919842,32.55060776597204 8.990268827919923,33.22048074705383" stroke="#00f" stroke-linecap="round" stroke-linejoin="round"/><polyline fill="none" points="65.61170892843748,-42.44813605687187 68.11170892843954,-43.118009037946265 69.94183594736522,-44.94813605686654 70.61170892844702,-47.448136056866616 69.94183594737262,-49.94813605686868 68.11170892845236,-51.778263075794364 65.61170892845227,-52.44813605687616 63.11170892845021,-51.77826307580176 61.281581909524526,-49.94813605688149 60.61170892844273,-47.44813605688141 61.28158190951713,-44.94813605687935 63.1117089284374,-43.11800903795366 65.61170892843748,-42.44813605687187" stroke="#ffa500" stroke-linecap="round" stroke-linejoin="round"/><polyline fill="none" points="76.00180225138973,-72.71315191103231 78.5018022513918,-73.3830248921067 80.33192927031747,-75.21315191102697 81.00180225139927,-77.71315191102705 80.33192927032488,-80.21315191102912 78.50180225140461,-82.04327892995481 76.00180225140453,-82.7131519110366 73.50180225140247,-82.04327892996221 71.67167523247677,-80.21315191104195 71.00180225139498,-77.71315191104186 71.67167523246937,-75.2131519110398 73.50180225138963,-73.38302489211411 76.00180225138972,-72.71315191103231" stroke="#ffa500" stroke-linecap="round" stroke-linejoin="round"/><polyline fill="none" points="-31.665859423550852,0.1933077714282163 -29.16585942354879,-0.4765652096461761 -27.335732404623098,-2.306692228566445 -26.665859423541303,-4.806692228566526 -27.335732404615694,-7.306692228568591 -29.165859423535963,-9.13681924749428 -31.665859423536045,-9.806692228576077 -34.16585942353811,-9.136819247501686 -35.995986442463796,-7.306692228581418 -36.66585942354559,-4.806692228581337 -35.9959864424712,-2.3066922285792715 -34.165859423550934,-0.4765652096535813 -31.665859423550852,0.1933077714282171" stroke="#008000" stroke-linecap="round" stroke-linejoin="round"/><polyline fill="none" points="111.1895997986367,-37.2420103882269 113.68959979863877,-37.91188336930129 115.51972681756446,-39.74201038822156 116.18959979864626,-42.24201038822164 115.51972681757186,-44.742010388223704 113.6895997986516,-46.5721374071494 111.18959979865151,-47.2420103882312 108.68959979864945,-46.57213740715681 106.85947277972376,-44.742010388236544 106.18959979864196,-42.242010388236466 106.85947277971636,-39.7420103882344 108.68959979863662,-37.911883369308704 111.1895997986367,-37.2420103882269" stroke="#ffa500" stroke-linecap="round" stroke-linejoin="round"/><polyline fill="none" points="-34.528426014182735,-3.1643051462289034 -32.02842601418067,-3.834178127303291 -30.198298995254973,-5.6643051462235565 -29.52842601417317,-8.164305146223638 -30.19829899524756,-10.664305146225706 -32.02842601416783,-12.4944321651514 -34.528426014167906,-13.164305146233202 -37.02842601416997,-12.494432165158816 -38.85855303309567,-10.66430514623855 -39.52842601417747,-8.164305146238469 -38.858553033103085,-5.6643051462364005 -37.02842601418282,-3.8341781273107056 -34.52842601418274,-3.1643051462289016" stroke="#00f" stroke-linecap="round" stroke-linejoin="round"/><polyline fill="none" points="44.11049082038924,-60.22683841164569 46.610490820391306,-60.89671139272007 48.440617839317,-62.72683841164034 49.1104908203988,-65.22683841164041 48.44061783932442,-67.72683841164249 46.61049082040415,-69.55696543056818 44.110490820404074,-70.22683841165 41.610490820402006,-69.55696543057562 39.78036380147631,-67.72683841165535 39.1104908203945,-65.22683841165527 39.78036380146889,-62.7268384116532 41.61049082038915,-60.8967113927275 44.11049082038923,-60.22683841164569" stroke="#00f" stroke-linecap="round" stroke-linejoin="round"/><polyline fill="none" points="122.62400143869252,-48.73831445387346 125.12400143869459,-49.40818743494784 126.95412845762029,-51.23831445386811 127.6240014387021,-53.738314453868185 126.95412845762772,-56.23831445387025 125.12400143870745,-58.06844147279595 122.62400143870737,-58.73831445387776 120.12400143870529,-58.06844147280338 118.2938744197796,-56.23831445388311 117.62400143869779,-53.738314453883035 118.29387441977217,-51.23831445388096 120.12400143869243,-49.40818743495526 122.62400143869252,-48.73831445387345" stroke="#ffa500" stroke-linecap="round" stroke-linejoin="round"/><polyline fill="none" points="108.03582998354933,-54.555040594554605 110.53582998355141,-55.22491357562898 112.3659570024771,-57.05504059454924 113.03582998355891,-59.55504059454932 112.36595700248454,-62.05504059455139 110.53582998356427,-63.885167613477094 108.03582998356418,-64.5550405945589 105.53582998356211,-63.885167613484526 103.7057029646364,-62.05504059456427 103.03582998355459,-59.55504059456419 103.70570296462897,-57.055040594562115 105.53582998354923,-55.224913575636414 108.03582998354932,-54.555040594554605" stroke="#ffa500" stroke-linecap="round" stroke-linejoin="round"/><polyline fill="none" points="60.91486586696248,-39.973338123806315 63.414865866964554,-40.64321110488069 65.24499288589026,-42.47333812380095 65.91486586697206,-44.97333812380103 65.24499288589769,-47.4733381238031 63.41486586697743,-49.303465142728804 60.91486586697735,-49.97333812381062 58.414865866975276,-49.30346514273624 56.58473884804957,-47.473338123815985 55.91486586696775,-44.97333812381591 56.58473884804213,-42.47333812381383 58.41486586696239,-40.643211104888124 60.91486586696247,-39.97333812380631" stroke="#ffa500" stroke-linecap="round" stroke-linejoin="round"/><polyline fill="none" points="38.88115555475324,38.39437670137497 41.38115555475532,37.724503720300596 43.211282573681025,35.89437670138034 43.88115555476284,33.39437670138025 43.211282573688464,30.894376701378178 41.381155554768206,29.06424968245247 38.88115555476812,28.394376701370653 36.381155554766046,29.064249682445027 34.55102853584034,30.894376701365285 33.88115555475852,33.39437670136537 34.5510285358329,35.89437670136744 36.38115555475316,37.72450372029315 38.88115555475324,38.394376701374966" stroke="#00f" stroke-linecap="round" stroke-linejoin="round"/><polyline fill="none" points="32.375292772831216,-19.826581971719122 34.87529277283329,-20.496454952793496 36.705419791759,-22.326581971713754 37.375292772840815,-24.826581971713836 36.705419791766445,-27.326581971715914 34.87529277284619,-29.156708990641622 32.3752927728461,-29.826581971723442 29.875292772844023,-29.15670899064907 28.04516575391831,-27.32658197172881 27.37529277283649,-24.82658197172873 28.04516575391086,-22.32658197172665 29.87529277283112,-20.49645495280094 32.3752927728312,-19.82658197171912" stroke="#00f" stroke-linecap="round" stroke-linejoin="round"/><polyline fill="none" points="33.56816691301369,-25.67547647049777 36.06816691301577,-26.34534945157214 37.89829393194148,-28.1754764704924 38.568166913023305,-30.67547647049248 37.898293931948935,-33.17547647049456 36.068166913028676,-35.00560348942027 33.56816691302859,-35.67547647050209 31.068166913026513,-35.00560348942772 29.2380398941008,-33.17547647050746 28.568166913018977,-30.67547647050738 29.238039894093347,-28.175476470505302 31.068166913013602,-26.34534945157959 33.568166913013684,-25.675476470497767" stroke="#00f" stroke-linecap="round" stroke-linejoin="round"/><polyline fill="none" points="109.81037528405967,25.064394079685318 112.31037528406175,24.394521098610948 114.14050230298746,22.564394079690693 114.81037528406928,20.06439407969061 114.14050230299492,17.56439407968853 112.31037528407467,15.734267060762814 109.81037528407458,15.064394079680989 107.3103752840725,15.734267060755357 105.4802482651468,17.564394079675612 104.81037528406497,20.064394079675694 105.48024826513934,22.564394079677776 107.31037528405959,24.39452109860349 109.81037528405967,25.064394079685318" stroke="#ffa500" stroke-linecap="round" stroke-linejoin="round"/><polyline fill="none" points="128.62043368576755,27.606760771391176 131.12043368576963,26.93688779031681 132.95056070469533,25.106760771396555 133.62043368577716,22.606760771396473 132.95056070470278,20.10676077139439 131.12043368578253,18.276633752468673 128.62043368578244,17.606760771386845 126.12043368578036,18.27663375246121 124.29030666685463,20.106760771381463 123.62043368577281,22.606760771381545 124.29030666684717,25.106760771383627 126.12043368576742,26.936887790309346 128.6204336857675,27.606760771391176" stroke="#ffa500" stroke-linecap="round" stroke-linejoin="round"/><polyline fill="none" points="81.44081146441155,13.683329256377741 83.94081146441364,13.013456275303378 85.77093848333936,11.183329256383125 86.4408114644212,8.683329256383042 85.77093848334684,6.183329256380957 83.94081146442659,4.353202237455236 81.4408114644265,3.683329256373404 78.94081146442441,4.353202237447766 77.11068444549869,6.183329256368019 76.44081146441685,8.683329256368102 77.11068444549122,11.183329256370188 78.94081146441147,13.01345627529591 81.44081146441155,13.683329256377744" stroke="#ffa500" stroke-linecap="round" stroke-linejoin="round"/><polyline fill="none" points="113.70925062344722,-2.870224003583334 116.20925062344931,-3.540096984657695 118.03937764237503,-5.370224003577947 118.70925062345687,-7.870224003578031 118.0393776423825,-10.370224003580116 116.20925062346225,-12.200351022505838 113.70925062346217,-12.870224003587673 111.20925062346008,-12.200351022513313 109.37912360453436,-10.370224003593062 108.70925062345252,-7.870224003592979 109.37912360452688,-5.3702240035908915 111.20925062344713,-3.5400969846651673 113.70925062344722,-2.8702240035833313" stroke="#ffa500" stroke-linecap="round" stroke-linejoin="round"/><polyline fill="none" points="37.63194895795974,20.830460737111466 40.13194895796183,20.160587756037106 41.962075976887554,18.330460737116855 42.63194895796939,15.830460737116772 41.962075976895036,13.330460737114684 40.131948957974785,11.500333718188958 37.6319489579747,10.83046073710712 35.13194895797261,11.500333718181478 33.30182193904688,13.330460737101728 32.631948957965044,15.830460737101811 33.3018219390394,18.3304607371039 35.13194895795965,20.160587756029624 37.631948957959736,20.830460737111462" stroke="#ffa500" stroke-linecap="round" stroke-linejoin="round"/><polyline fill="none" points="46.17493990379572,-21.389688666203583 48.67493990379781,-22.05956164727794 50.505066922723536,-23.889688666198186 51.174939903805374,-26.38968866619827 50.50506692273102,-28.88968866620036 48.67493990381077,-30.71981568512609 46.17493990381068,-31.38968866620793 43.67493990380859,-30.719815685133575 41.84481288488286,-28.889688666213328 41.174939903801025,-26.389688666213242 41.84481288487538,-23.889688666211153 43.67493990379563,-22.059561647285424 46.17493990379572,-21.389688666203583" stroke="#00f" stroke-linecap="round" stroke-linejoin="round"/><polyline fill="none" points="-42.33265422695927,-32.60536505945403 -39.83265422695718,-33.275238040528386 -38.00252720803145,-35.10536505944864 -37.33265422694961,-37.60536505944872 -38.00252720802396,-40.10536505945081 -39.832654226944214,-41.93549207837654 -42.3326542269443,-42.605365059458386 -44.83265422694639,-41.93549207838403 -46.66278124587212,-40.10536505946378 -47.33265422695396,-37.60536505946369 -46.662781245879614,-35.105365059461604 -44.83265422695937,-33.275238040535875 -42.332654226959285,-32.60536505945403" stroke="#ffa500" stroke-linecap="round" stroke-linejoin="round"/><polyline fill="none" points="30.983952085425226,80.95724307630164 33.48395208542732,80.28737009522729 35.31407910435305,78.45724307630704 35.98395208543489,75.95724307630695 35.314079104360545,73.45724307630486 33.4839520854403,71.62711605737913 30.983952085440215,70.95724307629727 28.483952085438123,71.62711605737162 26.65382506651239,73.45724307629187 25.983952085430545,75.95724307629196 26.653825066504893,78.45724307629405 28.483952085425138,80.28737009521979 30.983952085425223,80.95724307630164" stroke="#ffa500" stroke-linecap="round" stroke-linejoin="round"/><polyline fill="none" points="112.6827080298567,87.6032171748079 115.18270802985879,86.93334419373355 117.01283504878452,85.1032171748133 117.68270802986638,82.60321717481321 117.01283504879203,80.10321717481112 115.18270802987178,78.27309015588538 112.68270802987169,77.60321717480353 110.1827080298696,78.27309015587788 108.35258101094387,80.10321717479812 107.68270802986201,82.6032171747982 108.35258101093636,85.10321717480029 110.1827080298566,86.93334419372603 112.68270802985668,87.60321717480788" stroke="#ffa500" stroke-linecap="round" stroke-linejoin="round"/><polyline fill="none" points="-46.44371227269987,26.89781187225125 -43.94371227269777,26.227938891176905 -42.11358525377204,24.39781187225666 -41.443712272690185,21.897811872256575 -42.11358525376453,19.39781187225448 -43.94371227268478,17.567684853328743 -46.44371227268486,16.89781187224689 -48.94371227268696,17.567684853321236 -50.773839291612695,19.39781187224148 -51.44371227269455,21.89781187224156 -50.773839291620206,24.397811872243658 -48.94371227269996,26.227938891169398 -46.44371227269988,26.89781187225125" stroke="#f00" stroke-linecap="round" stroke-linejoin="round"/><polyline fill="none" points="86.59525147970088,55.07199331173799 89.09525147970297,54.40212033066365 90.9253784986287,52.571993311743405 91.59525147971056,50.07199331174332 90.9253784986362,47.571993311741224 89.09525147971597,45.74186629281549 86.59525147971588,45.071993311733635 84.0952514797138,45.74186629280798 82.26512446078806,47.57199331172822 81.5952514797062,50.071993311728306 82.26512446078056,52.5719933117304 84.09525147970079,54.402120330656146 86.59525147970088,55.071993311738" stroke="#ffa500" stroke-linecap="round" stroke-linejoin="round"/><polyline fill="none" points="70.44124803448905,12.076949404103518 72.94124803449115,11.407076423029176 74.77137505341689,9.576949404108936 75.44124803449874,7.076949404108852 74.7713750534244,4.576949404106755 72.94124803450417,2.746822385181013 70.44124803450408,2.076949404099156 67.94124803450198,2.7468223851734965 66.11112101557624,4.576949404093737 65.4412480344944,7.076949404093821 66.11112101556873,9.576949404095918 67.94124803448896,11.407076423021662 70.44124803448905,12.07694940410352" stroke="#ffa500" stroke-linecap="round" stroke-linejoin="round"/><polyline fill="none" points="118.81172096117056,57.87179420472323 121.31172096117267,57.20192122364889 123.14184798009842,55.37179420472865 123.81172096118027,52.871794204728566 123.14184798010594,50.37179420472647 121.3117209611857,48.541667185800726 118.81172096118561,47.87179420471887 116.31172096118351,48.54166718579321 114.48159394225776,50.371794204713446 113.8117209611759,52.87179420471353 114.48159394225023,55.37179420471563 116.31172096117047,57.20192122364137 118.81172096117055,57.87179420472323" stroke="#ffa500" stroke-linecap="round" stroke-linejoin="round"/><polyline fill="none" points="6.296500944943429,35.16031591188157 8.796500944945528,34.490442930807234 10.626627963871275,32.660315911887 11.296500944953138,30.16031591188691 10.626627963878802,27.660315911884812 8.796500944958563,25.830188892959065 6.2965009449584795,25.160315911877202 3.7965009449563794,25.830188892951536 1.9663739260306317,27.660315911871773 1.2965009449487686,30.160315911871855 1.966373926023104,32.66031591187396 3.796500944943341,34.49044293079971 6.296500944943425,35.160315911881575" stroke="#00f" stroke-linecap="round" stroke-linejoin="round"/><polyline fill="none" points="117.09973096547101,49.3064956867915 119.59973096547311,48.636622705717166 121.42985798439886,46.80649568679693 122.09973096548073,44.30649568679684 121.4298579844064,41.80649568679474 119.59973096548616,39.97636866786899 117.09973096548607,39.30649568678712 114.59973096548397,39.97636866786146 112.76960394655822,41.806495686781695 112.09973096547635,44.30649568678178 112.76960394655069,46.80649568678388 114.59973096547093,48.636622705709634 117.09973096547101,49.3064956867915" stroke="#ffa500" stroke-linecap="round" stroke-linejoin="round"/><polyline fill="none" points="98.04522420568757,76.99828185837302 100.54522420568968,76.32840887729868 102.37535122461543,74.49828185837845 103.0452242056973,71.99828185837836 102.37535122462296,69.49828185837626 100.54522420570272,67.66815483945051 98.04522420570264,66.99828185836864 95.54522420570053,67.66815483944298 93.71509718677478,69.49828185836321 93.04522420569292,71.9982818583633 93.71509718676725,74.4982818583654 95.54522420568749,76.32840887729115 98.04522420568757,76.99828185837302" stroke="#ffa500" stroke-linecap="round" stroke-linejoin="round"/><polyline fill="none" points="83.4997737828586,126.80270072475453 85.9997737828607,126.1328277436802 87.82990080178645,124.30270072475996 88.49977378286832,121.80270072475987 87.82990080179398,119.30270072475777 85.99977378287375,117.47257370583202 83.49977378287366,116.80270072475015 80.99977378287156,117.47257370582449 79.1696467639458,119.30270072474472 78.49977378286394,121.80270072474481 79.16964676393826,124.30270072474691 80.9997737828585,126.13282774367266 83.49977378285858,126.80270072475454" stroke="#ffa500" stroke-linecap="round" stroke-linejoin="round"/><polyline fill="none" points="51.814816896381274,121.9525279616101 54.31481689638338,121.28265498053578 56.144943915309135,119.45252796161554 56.81481689639101,116.95252796161546 56.14494391531668,114.45252796161336 54.31481689639645,112.6224009426876 51.814816896396366,111.95252796160572 49.31481689639426,112.62240094268004 47.484689877468504,114.45252796160028 46.81481689638663,116.95252796160037 47.48468987746096,119.45252796160247 49.31481689638119,121.28265498052824 51.814816896381274,121.95252796161012" stroke="#ffa500" stroke-linecap="round" stroke-linejoin="round"/><polyline fill="none" points="-22.6163675352179,13.127083103165868 -20.116367535215794,12.457210122091544 -18.286240516290036,10.627083103171312 -17.61636753520816,8.127083103171229 -18.286240516282483,5.627083103169122 -20.116367535202713,3.7969560842433623 -22.616367535202794,3.1270831031614854 -25.1163675352049,3.7969560842358088 -26.946494554130663,5.627083103156038 -27.61636753521254,8.12708310315612 -26.946494554138216,10.627083103158228 -25.116367535217986,12.457210122083989 -22.616367535217904,13.127083103165868" stroke="#00f" stroke-linecap="round" stroke-linejoin="round"/><polyline fill="none" points="-67.33987683192932,34.177558542651845 -64.83987683192721,33.507685561577524 -63.00974981300145,31.677558542657295 -62.33987683191957,29.177558542657213 -63.00974981299389,26.677558542655106 -64.83987683191411,24.847431523729345 -67.3398768319142,24.177558542647464 -69.8398768319163,24.847431523721784 -71.67000385084206,26.677558542642014 -72.33987683192395,29.177558542642096 -71.67000385084962,31.677558542644206 -69.8398768319294,33.50768556156997 -67.33987683192932,34.17755854265185" stroke="#00f" stroke-linecap="round" stroke-linejoin="round"/><polyline fill="none" points="62.945794655605624,140.32126546168897 65.44579465560773,139.65139248061465 67.27592167453349,137.82126546169442 67.94579465561537,135.32126546169434 67.27592167454105,132.82126546169224 65.44579465562083,130.99113844276647 62.945794655620745,130.3212654616846 60.445794655618634,130.9911384427589 58.61566763669287,132.82126546167913 57.94579465561099,135.32126546167922 58.61566763668531,137.82126546168132 60.44579465560554,139.6513924806071 62.945794655605624,140.32126546168897" stroke="#ffa500" stroke-linecap="round" stroke-linejoin="round"/><polyline fill="none" points="30.270028601562213,104.56966236358545 32.77002860156432,103.89978938251113 34.600155620490085,102.06966236359091 35.27002860157197,99.56966236359082 34.60015562049766,97.0696623635887 32.77002860157744,95.23953534466294 30.270028601577355,94.56966236358106 27.770028601575245,95.23953534465538 25.939901582649476,97.0696623635756 25.27002860156759,99.56966236357569 25.9399015826419,102.0696623635778 27.770028601562128,103.89978938250357 30.27002860156221,104.56966236358545" stroke="#ffa500" stroke-linecap="round" stroke-linejoin="round"/><polyline fill="none" points="-42.23608524674048,28.24520221465437 -39.73608524673837,27.575329233580057 -37.905958227812604,25.74520221465983 -37.23608524673072,23.24520221465975 -37.90595822780503,20.745202214657635 -39.73608524672525,18.915075195731866 -42.23608524672534,18.24520221464998 -44.73608524672745,18.91507519572429 -46.56621226565322,20.745202214644515 -47.23608524673511,23.245202214644596 -46.566212265660795,25.74520221464671 -44.73608524674057,27.575329233572482 -42.23608524674049,28.24520221465437" stroke="#00f" stroke-linecap="round" stroke-linejoin="round"/><polyline fill="none" points="60.74965168659444,100.3652541959339 63.24965168659655,99.6953812148596 65.07977870552232,97.86525419593937 65.74965168660421,95.36525419593929 65.0797787055299,92.86525419593717 63.24965168660968,91.0351271770114 60.749651686609596,90.36525419592951 58.24965168660748,91.03512717700382 56.419524667681706,92.86525419592404 55.74965168659981,95.36525419592412 56.419524667674125,97.86525419592624 58.24965168659435,99.69538121485202 60.74965168659443,100.36525419593391" stroke="#ffa500" stroke-linecap="round" stroke-linejoin="round"/><polyline fill="none" points="33.06653138862646,20.41981640442396 35.566531388628576,19.74994342334965 37.39665840755435,17.919816404429426 38.06653138863624,15.419816404429342 37.39665840756193,12.919816404427227 35.56653138864171,11.089689385501453 33.06653138864162,10.41981640441956 30.566531388639504,11.08968938549387 28.73640436971373,12.919816404414092 28.066531388631834,15.419816404414176 28.736404369706143,17.91981640441629 30.566531388626366,19.749943423342067 33.06653138862645,20.419816404423962" stroke="#00f" stroke-linecap="round" stroke-linejoin="round"/><polyline fill="none" points="22.433803014635576,136.2792158438302 24.933803014637693,135.60934286275588 26.76393003356347,133.77921584383566 27.433803014645363,131.27921584383557 26.763930033571057,128.77921584383347 24.933803014650834,126.94908882490769 22.43380301465075,126.2792158438258 19.933803014648632,126.9490888249001 18.103675995722856,128.7792158438203 17.433803014640958,131.2792158438204 18.103675995715264,133.7792158438225 19.933803014635483,135.60934286274826 22.433803014635565,136.27921584383017" stroke="#ffa500" stroke-linecap="round" stroke-linejoin="round"/><polyline fill="none" points="27.228152737921633,102.81300529477235 29.72815273792375,102.14313231369805 31.55827975684953,100.31300529477782 32.22815273793143,97.81300529477774 31.558279756857125,95.31300529477562 29.728152737936906,93.48287827584984 27.228152737936824,92.81300529476795 24.728152737934707,93.48287827584225 22.898025719008928,95.31300529476248 22.22815273792703,97.81300529476256 22.898025719001332,100.31300529476468 24.72815273792155,102.14313231369046 27.228152737921636,102.81300529477235" stroke="#ffa500" stroke-linecap="round" stroke-linejoin="round"/><polyline fill="none" points="19.20855827954492,121.5229656684938 21.70855827954704,120.85309268741949 23.53868529847282,119.02296566849927 24.208558279554723,116.52296566849918 23.53868529848042,114.02296566849706 21.7085582795602,112.19283864957129 19.208558279560116,111.52296566848938 16.708558279557995,112.19283864956368 14.878431260632212,114.0229656684839 14.20855827955031,116.52296566848399 14.87843126062461,119.02296566848611 16.708558279544828,120.85309268741189 19.208558279544913,121.5229656684938" stroke="#ffa500" stroke-linecap="round" stroke-linejoin="round"/><polyline fill="none" points="39.44158373229895,80.89513187019877 41.941583732301076,80.22525888912446 43.77171075122686,78.39513187020424 44.441583732308764,75.89513187020415 43.771710751234465,73.39513187020204 41.94158373231425,71.56500485127626 39.441583732314164,70.89513187019435 36.94158373231204,71.56500485126865 35.111456713386254,73.39513187018888 34.441583732304345,75.89513187018896 35.111456713378644,78.39513187019108 36.94158373229886,80.22525888911686 39.441583732298945,80.89513187019877" stroke="#ffa500" stroke-linecap="round" stroke-linejoin="round"/><polyline fill="none" points="-6.308285860195636,30.749746526794738 -3.8082858601935135,30.07987354572044 -1.9781588412677273,28.249746526800223 -1.30828586018582,25.749746526800138 -1.9781588412601177,23.249746526798013 -3.8082858601803333,21.419619507872227 -6.308285860180417,20.749746526790318 -8.80828586018254,21.419619507864617 -10.638412879108326,23.249746526784833 -11.308285860190235,25.749746526784918 -10.638412879115938,28.249746526787042 -8.808285860195724,30.07987354571283 -6.308285860195641,30.749746526794738" stroke="#00f" stroke-linecap="round" stroke-linejoin="round"/><polyline fill="none" points="-37.11649330415257,142.20207131040124 -34.616493304150445,141.53219832932695 -32.78636628522466,139.70207131040672 -32.11649330414275,137.20207131040664 -32.78636628521705,134.7020713104045 -34.616493304137265,132.8719442914787 -37.11649330413735,132.2020713103968 -39.616493304139475,132.8719442914711 -41.44662032306526,134.70207131039132 -42.11649330414717,137.2020713103914 -41.44662032307288,139.70207131039353 -39.61649330415266,141.53219832931933 -37.11649330415258,142.20207131040124" stroke="#ffa500" stroke-linecap="round" stroke-linejoin="round"/><polyline fill="none" points="-60.97871364230602,58.9552219097219 -58.478713642303894,58.28534892864761 -56.6485866233781,56.45522190972739 -55.978713642296185,53.95522190972731 -56.64858662337048,51.45522190972518 -58.47871364229069,49.62509489079939 -60.97871364229078,48.95522190971747 -63.4787136422929,49.625094890791765 -65.3088406612187,51.45522190971198 -65.9787136423006,53.955221909712066 -65.30884066122631,56.45522190971419 -63.4787136423061,58.28534892863998 -60.97871364230601,58.9552219097219" stroke="#00f" stroke-linecap="round" stroke-linejoin="round"/><polyline fill="none" points="-55.555553890486436,157.82691290860055 -53.05555389048431,157.15703992752626 -51.22542687155852,155.32691290860603 -50.5555538904766,152.82691290860595 -51.225426871550894,150.32691290860382 -53.0555538904711,148.49678588967802 -55.55555389047119,147.8269129085961 -58.05555389047331,148.4967858896704 -59.885680909399106,150.32691290859063 -60.55555389048102,152.8269129085907 -59.88568090940673,155.32691290859285 -58.05555389048652,157.15703992751864 -55.555553890486436,157.82691290860055" stroke="#ffa500" stroke-linecap="round" stroke-linejoin="round"/><polyline fill="none" points="-21.08135779545857,129.18595414724288 -18.58135779545644,128.5160811661686 -16.751230776530644,126.68595414724838 -16.081357795448724,124.1859541472483 -16.751230776523013,121.68595414724616 -18.58135779544322,119.85582712832037 -21.081357795443306,119.18595414723845 -23.581357795445435,119.85582712831274 -25.41148481437123,121.68595414723295 -26.08135779545315,124.18595414723303 -25.411484814378863,126.68595414723517 -23.581357795458654,128.51608116616097 -21.08135779545857,129.18595414724288" stroke="#ffa500" stroke-linecap="round" stroke-linejoin="round"/><polyline fill="none" points="-39.969068266856944,40.5797356635916 -37.46906826685481,39.909862682517314 -35.63894124792901,38.079735663597106 -34.96906826684709,35.57973566359702 -35.63894124792137,33.07973566359489 -37.46906826684158,31.24960864466909 -39.96906826684167,30.57973566358717 -42.4690682668438,31.249608644661453 -44.2991952857696,33.07973566358166 -44.96906826685152,35.579735663581744 -44.29919528577724,38.079735663583875 -42.46906826685703,39.909862682509676 -39.969068266856944,40.5797356635916" stroke="#008000" stroke-linecap="round" stroke-linejoin="round"/><polyline fill="none" points="-39.83073281722969,31.857503335509683 -37.330732817227556,31.1876303544354 -35.500605798301756,29.35750333551519 -34.83073281721983,26.85750333551511 -35.50060579829412,24.357503335512977 -37.330732817214326,22.527376316587176 -39.83073281721441,21.857503335505253 -42.33073281721654,22.527376316579534 -44.16085983614234,24.35750333549974 -44.830732817224266,26.85750333549982 -44.16085983614999,29.357503335501953 -42.33073281722978,31.187630354427753 -39.830732817229695,31.85750333550968" stroke="#00f" stroke-linecap="round" stroke-linejoin="round"/><polyline fill="none" points="-30.02169639146843,40.24826075305835 -27.5216963914663,39.57838777198407 -25.691569372540496,37.74826075306386 -25.02169639145857,35.248260753063775 -25.69156937253285,32.74826075306164 -27.521696391453055,30.91813373413584 -30.02169639145314,30.248260753053913 -32.52169639145527,30.91813373412819 -34.35182341038108,32.74826075304839 -35.02169639146301,35.24826075304848 -34.35182341038873,37.74826075305061 -32.52169639146853,39.578387771976416 -30.021696391468446,40.24826075305835" stroke="#00f" stroke-linecap="round" stroke-linejoin="round"/><polyline fill="none" points="-57.34832010804991,33.559639092339 -54.84832010804778,32.88976611126472 -53.01819308912197,31.059639092344515 -52.34832010804004,28.559639092344433 -53.01819308911432,26.059639092342298 -54.84832010803452,24.22951207341649 -57.348320108034606,23.55963909233456 -59.84832010803674,24.229512073408838 -61.678447126962546,26.059639092329043 -62.348320108044476,28.559639092329128 -61.6784471269702,31.059639092331263 -59.84832010805,32.88976611125707 -57.34832010804991,33.559639092339" stroke="#00f" stroke-linecap="round" stroke-linejoin="round"/><polyline fill="none" points="-56.1885977592914,134.16054957286138 -53.688597759289266,133.49067659178712 -51.85847074036346,131.66054957286693 -51.18859775928153,129.16054957286684 -51.858470740355806,126.66054957286471 -53.68859775927601,124.8304225539389 -56.18859775927609,124.16054957285697 -58.68859775927823,124.83042255393124 -60.51872477820404,126.66054957285145 -61.188597759285976,129.16054957285152 -60.5187247782117,131.66054957285365 -58.6885977592915,133.49067659177948 -56.18859775929141,134.1605495728614" stroke="#ffa500" stroke-linecap="round" stroke-linejoin="round"/><polyline fill="none" points="-86.31332349369603,105.49264968991561 -83.8133234936939,104.82277670884133 -81.98319647476809,102.99264968992112 -81.31332349368616,100.49264968992104 -81.98319647476043,97.9926496899189 -83.81332349368064,96.1625226709931 -86.31332349368073,95.49264968991116 -88.81332349368286,96.16252267098544 -90.64345051260867,97.99264968990565 -91.3133234936906,100.49264968990573 -90.64345051261633,102.99264968990786 -88.81332349369612,104.82277670883367 -86.31332349369603,105.49264968991561" stroke="#ffa500" stroke-linecap="round" stroke-linejoin="round"/><polyline fill="none" points="-71.66159177472316,63.904214011059764 -69.16159177472102,63.234341029985494 -67.33146475579521,61.40421401106529 -66.66159177471327,58.90421401106521 -67.33146475578755,56.40421401106307 -69.16159177470774,54.574086992137254 -71.66159177470783,53.904214011055316 -74.16159177470998,54.57408699212959 -75.9917187936358,56.40421401104979 -76.66159177471773,58.90421401104987 -75.99171879364347,61.40421401105201 -74.16159177472328,63.23434102997783 -71.66159177472319,63.904214011059764" stroke="#ffa500" stroke-linecap="round" stroke-linejoin="round"/><polyline fill="none" points="-69.9804913502235,82.11340438069122 -67.48049135022136,81.44353139961696 -65.65036433129553,79.61340438069676 -64.9804913502136,77.11340438069668 -65.65036433128786,74.61340438069453 -67.48049135020806,72.78327736176871 -69.98049135020814,72.11340438068677 -72.48049135021029,72.78327736176104 -74.31061836913611,74.61340438068123 -74.98049135021805,77.11340438068132 -74.31061836914378,79.61340438068346 -72.48049135022359,81.44353139960928 -69.9804913502235,82.11340438069122" stroke="#ffa500" stroke-linecap="round" stroke-linejoin="round"/><polyline fill="none" points="-65.0928952487691,72.64015417085925 -62.59289524876695,71.97028118978498 -60.76276822984113,70.14015417086479 -60.092895248759184,67.6401541708647 -60.76276822983345,65.14015417086256 -62.59289524875365,63.31002715193674 -65.09289524875373,62.64015417085479 -67.59289524875588,63.310027151929056 -69.4230222676817,65.14015417084926 -70.09289524876365,67.64015417084934 -69.42302226768939,70.14015417085149 -67.5928952487692,71.97028118977731 -65.09289524876911,72.64015417085926" stroke="#ffa500" stroke-linecap="round" stroke-linejoin="round"/><polyline fill="none" points="-46.49077659808238,21.905573921095325 -43.99077659808023,21.23570094002106 -42.16064957915441,19.405573921100864 -41.490776598072465,16.90557392110078 -42.16064957914673,14.405573921098634 -43.99077659806692,12.575446902172812 -46.49077659806701,11.905573921090864 -48.990776598069154,12.575446902165126 -50.820903616994975,14.405573921085322 -51.49077659807693,16.905573921085406 -50.820903617002664,19.40557392108755 -48.99077659808247,21.235700940013373 -46.490776598082384,21.905573921095325" stroke="#008000" stroke-linecap="round" stroke-linejoin="round"/><polyline fill="none" points="-44.68539105812813,82.79641490409871 -42.18539105812599,82.12654192302445 -40.355264039200165,80.29641490410425 -39.68539105811821,77.79641490410417 -40.35526403919248,75.29641490410202 -42.18539105811267,73.4662878851762 -44.68539105811276,72.79641490409425 -47.1853910581149,73.46628788516851 -49.015518077040724,75.2964149040887 -49.685391058122676,77.79641490408879 -49.01551807704842,80.29641490409094 -47.185391058128225,82.12654192301676 -44.68539105812814,82.79641490409871" stroke="#00f" stroke-linecap="round" stroke-linejoin="round"/><polyline fill="none" points="-121.97089176859967,107.59589598435882 -119.47089176859753,106.92602300328456 -117.6407647496717,105.09589598436436 -116.97089176858975,102.59589598436428 -117.64076474966402,100.09589598436213 -119.47089176858421,98.26576896543631 -121.9708917685843,97.59589598435436 -124.47089176858644,98.26576896542862 -126.30101878751226,100.09589598434881 -126.97089176859421,102.5958959843489 -126.30101878751995,105.09589598435105 -124.47089176859976,106.92602300327687 -121.97089176859967,107.59589598435882" stroke="#ffa500" stroke-linecap="round" stroke-linejoin="round"/><polyline fill="none" points="61.860201382063586,85.960844472593 64.36020138206574,85.29097149151873 66.19032840099158,83.46084447259854 66.86020138207353,80.96084447259845 66.19032840099928,78.4608444725963 64.36020138207908,76.63071745367047 61.860201382079,75.96084447258852 59.36020138207685,76.63071745366277 57.53007436315102,78.46084447258296 56.860201382069064,80.96084447258305 57.53007436314332,83.4608444725852 59.360201382063515,85.29097149151103 61.8602013820636,85.960844472593" stroke="#00f" stroke-linecap="round" stroke-linejoin="round"/><polyline fill="none" points="-79.98920755804212,-29.933354067080693 -77.48920755803998,-30.603227048154945 -75.65908053911414,-32.433354067075136 -74.98920755803218,-34.93335406707522 -75.65908053910643,-37.433354067077374 -77.48920755802662,-39.26348108600321 -79.9892075580267,-39.93335406708517 -82.48920755802885,-39.26348108601092 -84.31933457695469,-37.43335406709073 -84.98920755803665,-34.93335406709065 -84.3193345769624,-32.433354067088494 -82.48920755804221,-30.603227048162662 -79.98920755804212,-29.9333540670807" stroke="#ffa500" stroke-linecap="round" stroke-linejoin="round"/><polyline fill="none" points="-94.55926858322833,47.01127266721683 -92.05926858322619,46.34139968614258 -90.22914156430035,44.51127266722239 -89.55926858321838,42.01127266722231 -90.22914156429263,39.511272667220155 -92.05926858321283,37.68114564829432 -94.55926858321291,37.01127266721235 -97.05926858321506,37.6811456482866 -98.8893956021409,39.51127266720679 -99.55926858322286,42.011272667206875 -98.88939560214861,44.51127266720903 -97.05926858322842,46.341399686134864 -94.55926858322833,47.01127266721683" stroke="#ffa500" stroke-linecap="round" stroke-linejoin="round"/><polyline fill="none" points="-121.01872020019015,68.68862915179889 -118.51872020018799,68.01875617072464 -116.68859318126215,66.18862915180445 -116.01872020018018,63.68862915180436 -116.68859318125443,61.18862915180221 -118.51872020017463,59.358502132876374 -121.01872020017471,58.68862915179441 -123.51872020017687,59.35850213286866 -125.34884721910271,61.188629151788845 -126.01872020018467,63.68862915178893 -125.34884721911043,66.18862915179109 -123.51872020019024,68.01875617071693 -121.01872020019016,68.68862915179889" stroke="#ffa500" stroke-linecap="round" stroke-linejoin="round"/><polyline fill="none" points="-47.715436590069864,44.79968250694391 -45.21543659006771,44.12980952586966 -43.385309571141875,42.29968250694947 -42.71543659005991,39.79968250694939 -43.38530957113416,37.299682506947235 -45.215436590054345,35.46955548802139 -47.71543659005443,34.799682506939426 -50.215436590056584,35.46955548801367 -52.04556360898243,37.299682506933856 -52.71543659006439,39.79968250693394 -52.04556360899015,42.299682506936094 -50.21543659006996,44.12980952586194 -47.71543659006988,44.79968250694391" stroke="#008000" stroke-linecap="round" stroke-linejoin="round"/><polyline fill="none" points="-63.44985177667846,-30.069794363275015 -60.949851776676304,-30.73966734434926 -59.11972475775046,-32.569794363269445 -58.44985177666849,-35.06979436326953 -59.11972475774273,-37.56979436327168 -60.94985177666292,-39.399921382197526 -63.449851776663,-40.0697943632795 -65.94985177666516,-39.39992138220526 -67.779978795591,-37.56979436328507 -68.44985177667297,-35.069794363284984 -67.77997879559872,-32.569794363282824 -65.94985177667854,-30.73966734435698 -63.44985177667846,-30.069794363275008" stroke="#ffa500" stroke-linecap="round" stroke-linejoin="round"/><polyline fill="none" points="-60.23776248248016,-13.821981303359394 -57.737762482478,-14.491854284433636 -55.907635463552154,-16.32198130335382 -55.23776248247018,-18.821981303353905 -55.90763546354442,-21.32198130335606 -57.7377624824646,-23.152108322281904 -60.23776248246469,-23.821981303363877 -62.73776248246685,-23.15210832228964 -64.5678895013927,-21.321981303369455 -65.23776248247468,-18.82198130336937 -64.56788950140044,-16.32198130336721 -62.737762482480264,-14.491854284441363 -60.23776248248018,-13.821981303359387" stroke="#00f" stroke-linecap="round" stroke-linejoin="round"/><polyline fill="none" points="15.57296622554934,-21.449822806607436 18.0729662255515,-22.119695787681675 19.903093244477347,-23.94982280660186 20.572966225559323,-26.449822806601944 19.903093244485085,-28.949822806604104 18.0729662255649,-30.77994982552995 15.572966225564816,-31.449822806611927 13.072966225562656,-30.779949825537688 11.242839206636807,-28.949822806617505 10.57296622555483,-26.44982280661742 11.242839206629066,-23.94982280661526 13.072966225549248,-22.11969578768941 15.572966225549333,-21.44982280660743" stroke="#00f" stroke-linecap="round" stroke-linejoin="round"/><polyline fill="none" points="-38.779594124004305,-15.424989622986718 -36.279594124002145,-16.094862604060957 -34.449467105076295,-17.924989622981137 -33.779594123994315,-20.424989622981222 -34.44946710506855,-22.924989622983382 -36.27959412398873,-24.755116641909233 -38.779594123988815,-25.424989622991212 -41.279594123990975,-24.755116641916977 -43.109721142916825,-22.924989622996797 -43.779594123998805,-20.424989622996712 -43.10972114292457,-17.924989622994552 -41.27959412400439,-16.0948626040687 -38.779594124004305,-15.424989622986722" stroke="#00f" stroke-linecap="round" stroke-linejoin="round"/><polyline fill="none" points="-115.27868247714353,31.93423994297369 -112.77868247714137,31.264366961899455 -110.94855545821552,29.434239942979275 -110.27868247713354,26.93423994297919 -110.94855545820778,24.43423994297703 -112.77868247712796,22.60411292405118 -115.27868247712804,21.934239942969196 -117.7786824771302,22.60411292404343 -119.60880949605605,24.43423994296361 -120.27868247713803,26.934239942963696 -119.6088094960638,29.43423994296586 -117.77868247714362,31.264366961891714 -115.27868247714353,31.934239942973697" stroke="#ffa500" stroke-linecap="round" stroke-linejoin="round"/><polyline fill="none" points="-18.703411651807286,2.035205653436835 -16.203411651805123,1.3653326723626025 -14.373284632879269,-0.46479434655757634 -13.703411651797285,-2.9647943465576616 -14.373284632871517,-5.464794346559824 -16.203411651791697,-7.294921365485678 -18.703411651791782,-7.964794346567662 -21.203411651793946,-7.294921365493431 -23.0335386707198,-5.464794346573253 -23.703411651801787,-2.964794346573168 -23.033538670727555,-0.4647943465710047 -21.20341165180738,1.3653326723548505 -18.703411651807293,2.0352056534368366" stroke="#008000" stroke-linecap="round" stroke-linejoin="round"/><polyline fill="none" points="-95.93145505697869,12.753961863230195 -93.43145505697653,12.084088882155966 -91.60132803805068,10.253961863235789 -90.9314550569687,7.753961863235704 -91.60132803804294,5.25396186323354 -93.43145505696312,3.4238348443076836 -95.9314550569632,2.7539618632256957 -98.43145505696536,3.423834844299924 -100.26158207589121,5.2539618632201 -100.9314550569732,7.753961863220185 -100.26158207589899,10.25396186322235 -98.4314550569788,12.084088882148208 -95.93145505697872,12.753961863230197" stroke="#ffa500" stroke-linecap="round" stroke-linejoin="round"/><polyline fill="none" points="-77.67286130275937,-48.504308429514516 -75.17286130275721,-49.174181410588744 -73.34273428383135,-51.00430842950892 -72.67286130274935,-53.504308429509 -73.34273428382357,-56.00430842951117 -75.17286130274375,-57.83443544843703 -77.67286130274384,-58.50430842951902 -80.172861302746,-57.83443544844479 -82.00298832167186,-56.00430842952462 -82.67286130275386,-53.504308429524535 -82.00298832167964,-51.00430842952237 -80.17286130275946,-49.17418141059651 -77.67286130275937,-48.504308429514516" stroke="#ffa500" stroke-linecap="round" stroke-linejoin="round"/><polyline fill="none" points="-127.91455106816156,6.10630843230209 -125.4145510681594,5.436435451227865 -123.58442404923353,3.6063084323076904 -122.91455106815154,1.1063084323076047 -123.58442404922576,-1.3936915676945625 -125.41455106814594,-3.2238185866204243 -127.91455106814603,-3.893691567702418 -130.4145510681482,-3.2238185866281945 -132.24467808707405,-1.3936915677080208 -132.91455106815604,1.1063084322920649 -132.2446780870818,3.6063084322942327 -130.41455106816164,5.436435451220095 -127.91455106816156,6.10630843230209" stroke="#ffa500" stroke-linecap="round" stroke-linejoin="round"/><polyline fill="none" points="-81.03941726913715,-42.48955155648712 -78.53941726913497,-43.15942453756134 -76.70929025020911,-44.989551556481516 -76.03941726912711,-47.4895515564816 -76.70929025020133,-49.98955155648377 -78.5394172691215,-51.81967857540963 -81.03941726912159,-52.48955155649163 -83.53941726912376,-51.819678575417406 -85.36954428804962,-49.98955155649723 -86.03941726913162,-47.48955155649715 -85.3695442880574,-44.98955155649498 -83.53941726913723,-43.159424537569116 -81.03941726913715,-42.489551556487115" stroke="#ffa500" stroke-linecap="round" stroke-linejoin="round"/><polyline fill="none" points="-118.08798311622098,-40.84543566570984 -115.58798311621881,-41.515308646784064 -113.75785609729294,-43.34543566570424 -113.08798311621095,-45.84543566570432 -113.75785609728517,-48.34543566570649 -115.58798311620534,-50.175562684632354 -118.08798311620542,-50.845435665714355 -120.5879831162076,-50.175562684640134 -122.41811013513346,-48.34543566571996 -123.08798311621545,-45.845435665719876 -122.41811013514123,-43.34543566571771 -120.58798311622107,-41.515308646791844 -118.08798311622098,-40.84543566570984" stroke="#ffa500" stroke-linecap="round" stroke-linejoin="round"/><polyline fill="none" points="47.91663584185274,-12.951336298488243 50.41663584185491,-13.62120927956246 52.24676286078078,-15.45133629848263 52.91663584186278,-17.951336298482715 52.246762860788564,-20.451336298484886 50.41663584186839,-22.281463317410754 47.916635841868306,-22.951336298492755 45.41663584186613,-22.281463317418538 43.58650882294026,-20.45133629849837 42.91663584185826,-17.951336298498283 43.58650882293247,-15.451336298496111 45.41663584185264,-13.621209279570241 47.916635841852724,-12.951336298488238" stroke="#00f" stroke-linecap="round" stroke-linejoin="round"/><polyline fill="none" points="32.86633136026634,-45.66521291763567 35.36633136026851,-46.335085898709885 37.19645837919438,-48.16521291763005 37.866331360276384,-50.665212917630136 37.19645837920217,-53.16521291763231 35.366331360282004,-54.99533993655818 32.86633136028192,-55.66521291764018 30.366331360279744,-54.99533993656597 28.536204341353873,-53.1652129176458 27.866331360271868,-50.66521291764572 28.53620434134608,-48.165212917643544 30.36633136026625,-46.33508589871767 32.86633136026634,-45.665212917635664" stroke="#00f" stroke-linecap="round" stroke-linejoin="round"/><polyline fill="none" points="-55.96477304748974,-29.919990847796612 -53.46477304748757,-30.589863828870826 -51.6346460285617,-32.41999084779099 -50.96477304747969,-34.91999084779108 -51.6346460285539,-37.41999084779325 -53.46477304747407,-39.25011786671912 -55.964773047474154,-39.91999084780113 -58.46477304747633,-39.25011786672692 -60.2949000664022,-37.41999084780675 -60.96477304748421,-34.919990847806666 -60.294900066409994,-32.41999084780449 -58.46477304748983,-30.589863828878617 -55.96477304748974,-29.91999084779661" stroke="#00f" stroke-linecap="round" stroke-linejoin="round"/><polyline fill="none" points="11.04391418524644,-44.96959693880082 13.543914185248616,-45.639469919875026 15.374041204174492,-47.46959693879519 16.043914185256504,-49.96959693879528 15.374041204182294,-52.46959693879745 13.543914185262128,-54.29972395772333 11.043914185262043,-54.96959693880534 8.543914185259867,-54.29972395773113 6.71378716633399,-52.469596938810966 6.043914185251978,-49.96959693881088 6.7137871663261866,-47.46959693880871 8.54391418524635,-45.63946991988283 11.043914185246436,-44.96959693880081" stroke="#00f" stroke-linecap="round" stroke-linejoin="round"/><polyline fill="none" points="-83.42011317494348,-72.3984377279583 -80.9201131749413,-73.0683107090325 -79.08998615601543,-74.89843772795267 -78.42011317493342,-77.39843772795275 -79.08998615600763,-79.89843772795493 -80.92011317492779,-81.7285647468808 -83.42011317492788,-82.39843772796281 -85.92011317493005,-81.72856474688861 -87.75024019385593,-79.89843772796844 -88.42011317493794,-77.39843772796836 -87.75024019386373,-74.89843772796618 -85.92011317494357,-73.0683107090403 -83.42011317494348,-72.3984377279583" stroke="#ffa500" stroke-linecap="round" stroke-linejoin="round"/><polyline fill="none" points="-102.61988564749464,-42.35781322558513 -100.11988564749247,-43.02768620665934 -98.28975862856659,-44.857813225579505 -97.61988564748458,-47.35781322557959 -98.28975862855879,-49.85781322558177 -100.11988564747895,-51.68794024450765 -102.61988564747904,-52.357813225589666 -105.11988564748121,-51.68794024451546 -106.95001266640709,-49.857813225595294 -107.61988564748911,-47.35781322559521 -106.9500126664149,-44.85781322559303 -105.11988564749474,-43.02768620666715 -102.61988564749466,-42.35781322558513" stroke="#ffa500" stroke-linecap="round" stroke-linejoin="round"/><polyline fill="none" points="39.87892951888926,-11.152835399814528 42.37892951889144,-11.82270838088873 44.209056537817325,-13.652835399808893 44.87892951889934,-16.15283539980898 44.209056537825134,-18.65283539981116 42.378929518904975,-20.482962418737042 39.87892951890489,-21.15283539981906 37.37892951890271,-20.482962418744858 35.54880249997682,-18.652835399824696 34.87892951889481,-16.15283539982461 35.54880249996901,-13.65283539982243 37.378929518889166,-11.822708380896547 39.87892951888925,-11.152835399814528" stroke="#00f" stroke-linecap="round" stroke-linejoin="round"/><polyline fill="none" points="-45.877997748800695,3.285426653499538 -43.377997748798514,2.615553672425337 -41.54787072987263,0.7854266535051759 -40.877997748790605,-1.7145733464949102 -41.547870729864805,-4.214573346497092 -43.37799774878496,-6.044700365422978 -45.87799774878505,-6.714573346504999 -48.37799774878723,-6.044700365430799 -50.208124767713116,-4.2145733465106385 -50.87799774879514,-1.7145733465105528 -50.20812476772094,0.785426653491629 -48.37799774880078,2.6155536724175157 -45.877997748800695,3.2854266534995378" stroke="#008000" stroke-linecap="round" stroke-linejoin="round"/><polyline fill="none" points="-51.10382052141476,-89.00565307432163 -48.60382052141258,-89.67552605539582 -46.773693502486694,-91.50565307431599 -46.10382052140467,-94.00565307431607 -46.77369350247887,-96.50565307431826 -48.60382052139903,-98.33578009324415 -51.103820521399115,-99.00565307432618 -53.603820521401296,-98.33578009325198 -55.43394754032718,-96.50565307433183 -56.103820521409205,-94.00565307433175 -55.433947540335005,-91.50565307432956 -53.603820521414846,-89.67552605540367 -51.10382052141476,-89.00565307432164" stroke="#ffa500" stroke-linecap="round" stroke-linejoin="round"/><polyline fill="none" points="-36.599624144443275,-115.09416833169045 -34.099624144441094,-115.76404131276465 -32.2694971255152,-117.5941683316848 -31.599624144433175,-120.09416833168488 -32.26949712550737,-122.59416833168707 -34.09962414442753,-124.42429535061297 -36.599624144427615,-125.09416833169499 -39.0996241444298,-124.4242953506208 -40.92975116335569,-122.59416833170064 -41.59962414443772,-120.09416833170056 -40.92975116336353,-117.59416833169837 -39.09962414444337,-115.76404131277248 -36.59962414444328,-115.09416833169045" stroke="#ffa500" stroke-linecap="round" stroke-linejoin="round"/><polyline fill="none" points="-53.33546330287252,-5.877200155516942 -50.83546330287034,-6.547073136591135 -49.005336283944445,-8.377200155511291 -48.335463302862415,-10.877200155511376 -49.00533628393661,-13.377200155513561 -50.835463302856766,-15.207327174439454 -53.33546330285685,-15.877200155521484 -55.83546330285904,-15.207327174447292 -57.66559032178493,-13.377200155527136 -58.33546330286696,-10.877200155527051 -57.66559032179277,-8.377200155524864 -55.83546330287262,-6.54707313659897 -53.33546330287253,-5.877200155516938" stroke="#00f" stroke-linecap="round" stroke-linejoin="round"/><polyline fill="none" points="38.569050523034946,-31.15422647482942 41.069050523037134,-31.824099455903614 42.89917754196303,-33.654226474823766 43.56905052304506,-36.15422647482385 42.899177541970865,-38.65422647482604 41.06905052305071,-40.48435349375193 38.56905052305063,-41.15422647483396 36.06905052304844,-40.48435349375977 34.238923504122546,-38.65422647483962 33.56905052304051,-36.15422647483953 34.238923504114695,-33.654226474837344 36.069050523034846,-31.824099455911448 38.56905052303493,-31.154226474829414" stroke="#00f" stroke-linecap="round" stroke-linejoin="round"/><polyline fill="none" points="-35.57663142000918,-101.4563627407546 -33.07663142000699,-102.12623572182879 -31.246504401081094,-103.95636274074894 -30.57663141999906,-106.45636274074903 -31.24650440107325,-108.95636274075122 -33.076631419993404,-110.78648975967711 -35.57663141999349,-111.45636274075915 -38.07663141999568,-110.78648975968495 -39.90675843892158,-108.9563627407648 -40.576631420003615,-106.45636274076472 -39.90675843892943,-103.95636274076253 -38.07663142000928,-102.12623572183664 -35.57663142000919,-101.4563627407546" stroke="#ffa500" stroke-linecap="round" stroke-linejoin="round"/><polyline fill="none" points="-63.42040209754777,-71.54074747258338 -60.92040209754558,-72.21062045365757 -59.09027507861968,-74.04074747257772 -58.42040209753765,-76.5407474725778 -59.09027507861183,-79.04074747258 -60.92040209753198,-80.8708744915059 -63.42040209753207,-81.54074747258794 -65.92040209753426,-80.87087449151376 -67.75052911646017,-79.04074747259361 -68.42040209754221,-76.54074747259352 -67.75052911646803,-74.04074747259133 -65.92040209754788,-72.21062045366543 -63.42040209754779,-71.54074747258339" stroke="#ffa500" stroke-linecap="round" stroke-linejoin="round"/><polyline fill="none" points="-42.00901820359586,27.467010899466022 -39.50901820359367,26.79713791839184 -37.67889118466777,24.96701089947169 -37.009018203585725,22.467010899471603 -37.67889118465991,19.96701089946941 -39.50901820358006,18.136883880543508 -42.00901820358015,17.467010899461467 -44.50901820358234,18.13688388053565 -46.33914522250825,19.967010899455797 -47.009018203590294,22.467010899455882 -46.339145222516116,24.967010899458074 -44.509018203595964,26.797137918383978 -42.00901820359588,27.467010899466022" stroke="#008000" stroke-linecap="round" stroke-linejoin="round"/><polyline fill="none" points="-53.42972529329818,-87.70096942414234 -50.92972529329599,-88.37084240521652 -49.09959827437008,-90.20096942413667 -48.42972529328804,-92.70096942413676 -49.099598274362215,-95.20096942413895 -50.92972529328237,-97.03109644306485 -53.42972529328245,-97.7009694241469 -55.92972529328465,-97.03109644307273 -57.759852312210555,-95.20096942415258 -58.4297252932926,-92.70096942415249 -57.75985231221842,-90.2009694241503 -55.929725293298276,-88.3708424052244 -53.42972529329819,-87.70096942414234" stroke="#ffa500" stroke-linecap="round" stroke-linejoin="round"/><polyline fill="none" points="-70.53692308709633,-104.11063045683524 -68.03692308709414,-104.78050343790942 -66.20679606816823,-106.61063045682957 -65.53692308708618,-109.11063045682965 -66.20679606816036,-111.61063045683184 -68.03692308708051,-113.44075747575775 -70.5369230870806,-114.1106304568398 -73.03692308708278,-113.44075747576562 -74.86705010600869,-111.61063045684547 -75.53692308709074,-109.11063045684539 -74.86705010601656,-106.6106304568432 -73.03692308709641,-104.78050343791729 -70.53692308709633,-104.11063045683524" stroke="#ffa500" stroke-linecap="round" stroke-linejoin="round"/><polyline fill="none" points="-36.026636908974254,38.63862047450406 -33.52663690897206,37.96874749342988 -31.696509890046148,36.138620474509736 -31.0266369089641,33.63862047450965 -31.696509890038275,31.138620474507455 -33.52663690895842,29.308493455581544 -36.02663690895851,28.638620474499493 -38.526636908960704,29.308493455573668 -40.35676392788662,31.138620474493813 -41.02663690896867,33.6386204744939 -40.3567639278945,36.13862047449609 -38.52663690897435,37.96874749342201 -36.02663690897427,38.63862047450406" stroke="#00f" stroke-linecap="round" stroke-linejoin="round"/><polyline fill="none" points="-37.11649330415256,-74.97587077345162 -34.61649330415037,-75.6457437545258 -32.78636628522445,-77.47587077344593 -32.1164933041424,-79.97587077344602 -32.78636628521657,-82.47587077344822 -34.61649330413672,-84.30599779237413 -37.1164933041368,-84.97587077345618 -39.616493304139,-84.305997792382 -41.44662032306491,-82.47587077346186 -42.116493304146964,-79.97587077346178 -41.44662032307279,-77.47587077345958 -39.61649330415265,-75.64574375453367 -37.11649330415256,-74.97587077345162" stroke="#ffa500" stroke-linecap="round" stroke-linejoin="round"/><polyline fill="none" points="-38.75784894716915,-80.17920951623584 -36.257848947166956,-80.84908249731001 -34.42772192824104,-82.67920951623015 -33.75784894715898,-85.17920951623023 -34.427721928233154,-87.67920951623243 -36.2578489471533,-89.50933653515835 -38.757848947153384,-90.1792095162404 -41.25784894715558,-89.50933653516624 -43.087975966081494,-87.6792095162461 -43.75784894716355,-85.17920951624602 -43.08797596608938,-82.67920951624382 -41.25784894716924,-80.8490824973179 -38.75784894716915,-80.17920951623584" stroke="#ffa500" stroke-linecap="round" stroke-linejoin="round"/></svg>