<?xml version="1.0" ?><!DOCTYPE svg  PUBLIC '-//W3C//DTD SVG 1.1//EN'  'http://www.w3.org/Graphics/SVG/1.1/DTD/svg11.dtd'><svg height="582.000" viewBox="-459.000 -268.000 710.000 582.000" width="710.000" xmlns="http://www.w3.org/2000/svg"><line fill="none" stroke="none" stroke-linecap="round" stroke-width="2.0" x1="0.0" x2="0.0" y1="0.0" y2="0.0"/><polygon fill="none" fill-rule="evenodd" points="0.0,0.0 0.0,0.0 0.0,0.0" stroke-linejoin="round"/><polyline fill="none" points="-18.947909694676117,122.25953306915402 -16.447909694654086,121.58966008811285 -14.617782675694498,119.75953306921137 -13.94790969457395,117.2595330692106 -14.617782675615121,114.75953306918858 -16.447909694516603,112.92940605022899 -18.947909694517364,112.25953306910844 -21.447909694539394,112.92940605014961 -23.278036713498985,114.75953306905109 -23.947909694619533,117.25953306905186 -23.278036713578363,119.75953306907388 -21.44790969467688,121.58966008803347 -18.94790969467612,122.25953306915402" stroke="#ffa500" stroke-linecap="round" stroke-linejoin="round"/><polyline fill="none" points="-35.59154571300936,65.31553317871564 -33.091545712987326,64.64566019767447 -31.261418694027736,62.815533178772995 -30.591545712907184,60.315533178772235 -31.261418693948354,57.8155331787502 -33.091545712849836,55.98540615979061 -35.591545712850596,55.31553317867006 -38.09154571287263,55.985406159711225 -39.921672731832224,57.815533178612704 -40.59154571295277,60.315533178613464 -39.921672731911606,62.8155331786355 -38.09154571301013,64.64566019759509 -35.59154571300937,65.31553317871564" stroke="#ffa500" stroke-linecap="round" stroke-linejoin="round"/><polyline fill="none" points="91.797540770148,-88.07645655965729 94.29754077017003,-88.74632954069845 96.12766778912962,-90.57645655959993 96.79754077025017,-93.0764565596007 96.127667789209,-95.57645655962273 94.29754077030752,-97.40658357858231 91.79754077030675,-98.07645655970286 89.29754077028473,-97.4065835786617 87.46741375132513,-95.57645655976022 86.79754077020458,-93.07645655975946 87.46741375124574,-90.57645655973744 89.29754077014722,-88.74632954077784 91.79754077014798,-88.07645655965729" stroke="#ffa500" stroke-linecap="round" stroke-linejoin="round"/><polyline fill="none" points="-210.06998180544562,-167.02796230217555 -207.5699818054236,-167.6978352832167 -205.739854786464,-169.52796230211817 -205.06998180534345,-172.02796230211894 -205.7398547863846,-174.52796230214096 -207.56998180528606,-176.35808932110055 -210.06998180528683,-177.0279623022211 -212.56998180530886,-176.35808932117996 -214.40010882426844,-174.5279623022785 -215.069981805389,-172.02796230227773 -214.40010882434785,-169.5279623022557 -212.5699818054464,-167.69783528329611 -210.06998180544562,-167.02796230217555" stroke="#ffa500" stroke-linecap="round" stroke-linejoin="round"/><polyline fill="none" points="-233.31655944925168,-88.9981165630592 -230.81655944922966,-89.66798954410037 -228.98643243027007,-91.49811656300184 -228.3165594491495,-93.99811656300261 -228.98643243019066,-96.49811656302465 -230.81655944909213,-98.32824358198425 -233.3165594490929,-98.99811656310482 -235.81655944911492,-98.32824358206365 -237.6466864680745,-96.49811656316217 -238.31655944919507,-93.9981165631614 -237.64668646815392,-91.49811656313936 -235.81655944925245,-89.66798954417976 -233.31655944925168,-88.9981165630592" stroke="#00f" stroke-linecap="round" stroke-linejoin="round"/><polyline fill="none" points="-361.52957453849183,-41.914410348939505 -359.0295745384698,-42.584283329980664 -357.19944751951016,-44.414410348882136 -356.5295745383896,-46.914410348882896 -357.1994475194308,-49.41441034890493 -359.02957453833227,-51.24453736786453 -361.529574538333,-51.91441034898509 -364.02957453835506,-51.244537367943934 -365.8597015573147,-49.41441034904246 -366.52957453843527,-46.9144103490417 -365.8597015573941,-44.41441034901967 -364.0295745384926,-42.58428333006007 -361.5295745384919,-41.914410348939505" stroke="#00f" stroke-linecap="round" stroke-linejoin="round"/><polyline fill="none" points="177.19051461798563,-61.73070543073487 179.69051461800765,-62.40057841177603 181.52064163696727,-64.2307054306775 182.19051461808783,-66.73070543067827 181.52064163704668,-69.23070543070031 179.69051461814522,-71.06083244965991 177.19051461814445,-71.73070543078047 174.69051461812242,-71.06083244973932 172.8603875991628,-69.23070543083784 172.19051461804224,-66.73070543083708 172.8603875990834,-64.23070543081504 174.69051461798486,-62.400578411855435 177.19051461798563,-61.730705430734865" stroke="#ffa500" stroke-linecap="round" stroke-linejoin="round"/><polyline fill="none" points="122.07020190667042,-246.79345784511332 124.57020190669246,-247.46333082615448 126.40032892565206,-249.29345784505594 127.07020190677262,-251.7934578450567 126.40032892573147,-254.29345784507873 124.57020190683,-256.1235848640383 122.07020190682923,-256.7934578451589 119.57020190680718,-256.12358486411773 117.74007488784758,-254.29345784521627 117.07020190672702,-251.7934578452155 117.74007488776817,-249.29345784519347 119.57020190666964,-247.46333082623386 122.0702019066704,-246.7934578451133" stroke="#ffa500" stroke-linecap="round" stroke-linejoin="round"/><polyline fill="none" points="-422.29715211868154,-92.3948089379792 -419.7971521186595,-93.06468191902036 -417.96702509969987,-94.89480893792182 -417.2971521185793,-97.39480893792259 -417.96702509962046,-99.89480893794463 -419.7971521185219,-101.72493595690423 -422.29715211852266,-102.39480893802481 -424.7971521185447,-101.72493595698366 -426.62727913750433,-99.89480893808219 -427.2971521186249,-97.39480893808143 -426.6272791375838,-94.89480893805938 -424.79715211868233,-93.06468191909977 -422.2971521186816,-92.39480893797919" stroke="#00f" stroke-linecap="round" stroke-linejoin="round"/><polyline fill="none" points="-272.27921506509017,41.605003364824874 -269.7792150650681,40.93513038378372 -267.9490880461085,39.10500336488225 -267.2792150649879,36.60500336488149 -267.94908804602903,34.10500336485945 -269.7792150649305,32.27487634589984 -272.27921506493124,31.605003364779268 -274.7792150649533,32.27487634582042 -276.6093420839129,34.10500336472189 -277.2792150650335,36.60500336472265 -276.6093420839924,39.10500336474469 -274.7792150650909,40.935130383704305 -272.27921506509017,41.60500336482488" stroke="#00f" stroke-linecap="round" stroke-linejoin="round"/><polyline fill="none" points="70.77394789834264,190.0945443803282 73.27394789836468,189.42467139928704 75.1040749173243,187.59454438038557 75.77394789844487,185.0945443803848 75.10407491740372,182.59454438036275 73.27394789850226,180.76441736140313 70.77394789850149,180.09454438028257 68.27394789847945,180.76441736132372 66.44382087951983,182.5945443802252 65.77394789839926,185.09454438022595 66.44382087944041,187.594544380248 68.27394789834187,189.42467139920763 70.77394789834264,190.09454438032822" stroke="#ffa500" stroke-linecap="round" stroke-linejoin="round"/><polyline fill="none" points="111.75479404298238,81.42710654913668 114.25479404300442,80.75723356809553 116.08492106196404,78.92710654919406 116.75479404308462,76.4271065491933 116.08492106204346,73.92710654917126 114.254794043142,72.09697953021164 111.75479404314123,71.42710654909106 109.25479404311919,72.09697953013222 107.42466702415958,73.92710654903368 106.754794043039,76.42710654903445 107.42466702408014,78.92710654905649 109.2547940429816,80.7572335680161 111.75479404298237,81.42710654913668" stroke="#ffa500" stroke-linecap="round" stroke-linejoin="round"/><polyline fill="none" points="117.1615948972319,-166.0435013426619 119.66159489725393,-166.71337432370305 121.49172191621355,-168.54350134260451 122.16159489733413,-171.04350134260528 121.49172191629299,-173.54350134262734 119.66159489739152,-175.37362836158695 117.16159489739076,-176.04350134270754 114.66159489736872,-175.3736283616664 112.8314678784091,-173.54350134276493 112.16159489728852,-171.04350134276416 112.83146787832966,-168.5435013427421 114.66159489723113,-166.7133743237825 117.1615948972319,-166.0435013426619" stroke="#ffa500" stroke-linecap="round" stroke-linejoin="round"/><polyline fill="none" points="-169.16788605849388,-140.03541273184888 -166.66788605847182,-140.70528571289003 -164.8377590395122,-142.5354127317915 -164.16788605839162,-145.03541273179226 -164.83775903943277,-147.53541273181432 -166.66788605833423,-149.36553975077393 -169.167886058335,-150.03541273189452 -171.66788605835706,-149.36553975085337 -173.49801307731667,-147.5354127319519 -174.16788605843726,-145.03541273195114 -173.4980130773961,-142.53541273192909 -171.66788605849464,-140.70528571296947 -169.16788605849388,-140.03541273184888" stroke="#00f" stroke-linecap="round" stroke-linejoin="round"/><polyline fill="none" points="39.474108985669346,301.51048966802136 41.974108985691394,300.84061668698024 43.80423600465102,299.0104896680788 44.4741089857716,296.51048966807804 43.80423600473046,294.010489668056 41.974108985829,292.18036264909637 39.47410898582824,291.5104896679758 36.97410898580619,292.1803626490169 35.14398196684657,294.01048966791836 34.47410898572598,296.5104896679191 35.143981966767114,299.01048966794116 36.97410898566858,300.8406166869008 39.47410898566934,301.51048966802136" stroke="#ffa500" stroke-linecap="round" stroke-linejoin="round"/><polyline fill="none" points="-9.450951463827447,-192.25004403757058 -6.9509514638053975,-192.9199170186117 -5.120824444845773,-194.75004403751316 -4.450951463725184,-197.25004403751393 -5.120824444766321,-199.750044037536 -6.950951463667782,-201.5801710564956 -9.450951463668543,-202.2500440376162 -11.950951463690593,-201.58017105657507 -13.78107848265022,-199.7500440376736 -14.45095146377081,-197.25004403767284 -13.781078482729674,-194.75004403765078 -11.950951463828213,-192.91991701869117 -9.450951463827451,-192.25004403757058" stroke="#ffa500" stroke-linecap="round" stroke-linejoin="round"/><polyline fill="none" points="-288.8709136232416,-73.13153649490843 -286.37091362321956,-73.80140947594957 -284.54078660425995,-75.63153649485103 -283.87091362313936,-78.1315364948518 -284.5407866041805,-80.63153649487386 -286.37091362308195,-82.46166351383349 -288.8709136230827,-83.13153649495408 -291.37091362310474,-82.46166351391294 -293.20104064206436,-80.63153649501147 -293.87091362318495,-78.1315364950107 -293.2010406421438,-75.63153649498865 -291.37091362324236,-73.80140947602902 -288.8709136232416,-73.13153649490843" stroke="#008000" stroke-linecap="round" stroke-linejoin="round"/><polyline fill="none" points="-8.53994887844941,-33.45295060954261 -6.039948878427357,-34.12282359058374 -4.209821859467729,-35.9529506094852 -3.539948878347135,-38.45295060948596 -4.209821859388267,-40.952950609508015 -6.039948878289725,-42.783077628467645 -8.539948878290486,-43.45295060958824 -11.03994887831254,-42.78307762854711 -12.87007589727217,-40.952950609645654 -13.539948878392764,-38.452950609644894 -12.870075897351633,-35.95295060962284 -11.039948878450176,-34.12282359066321 -8.539948878449415,-33.45295060954261" stroke="#ffa500" stroke-linecap="round" stroke-linejoin="round"/><polyline fill="none" points="-355.6388969186496,-162.60950626967167 -353.13889691862755,-163.2793792507128 -351.30876989966794,-165.10950626961426 -350.63889691854735,-167.60950626961503 -351.30876989958847,-170.10950626963708 -353.13889691848993,-171.93963328859672 -355.6388969184907,-172.60950626971731 -358.1388969185127,-171.9396332886762 -359.96902393747234,-170.10950626977473 -360.63889691859293,-167.60950626977396 -359.9690239375518,-165.1095062697519 -358.13889691865035,-163.27937925079226 -355.6388969186496,-162.60950626967167" stroke="#00f" stroke-linecap="round" stroke-linejoin="round"/><polyline fill="none" points="40.74786965610041,-223.88470516126122 43.24786965612247,-224.55457814230235 45.0779966750821,-226.3847051612038 45.747869656202695,-228.88470516120458 45.077996675161565,-231.38470516122663 43.24786965626011,-233.21483218018628 40.74786965625935,-233.88470516130687 38.24786965623729,-233.21483218026574 36.417742637277655,-231.38470516136428 35.74786965615706,-228.8847051613635 36.41774263719818,-226.38470516134146 38.24786965609964,-224.5545781423818 40.7478696561004,-223.88470516126122" stroke="#00f" stroke-linecap="round" stroke-linejoin="round"/><polyline fill="none" points="99.714953600427,-61.10295880158796 102.21495360044905,-61.77283178262908 104.04508061940868,-63.60295880153054 104.71495360052928,-66.1029588015313 104.04508061948816,-68.60295880155336 102.21495360058671,-70.43308582051299 99.71495360058594,-71.10295880163359 97.21495360056389,-70.43308582059247 95.38482658160426,-68.60295880169102 94.71495360048365,-66.10295880169025 95.38482658152478,-63.602958801668194 97.21495360042623,-61.77283178270856 99.714953600427,-61.10295880158795" stroke="#ffa500" stroke-linecap="round" stroke-linejoin="round"/><polyline fill="none" points="-171.87703255819608,6.5556991756904335 -169.37703255817402,5.88582619464931 -167.54690553921438,4.055699175747856 -166.8770325580938,1.5556991757470957 -167.5469055391349,-0.9443008242749618 -169.37703255803638,-2.7744278432345992 -171.87703255803714,-3.444300824355204 -174.3770325580592,-2.774427843314081 -176.20715957701884,-0.9443008244126283 -176.87703255813946,1.555699175588132 -176.20715957709834,4.05569917561019 -174.37703255819687,5.8858261945698285 -171.8770325581961,6.555699175690434" stroke="#ffa500" stroke-linecap="round" stroke-linejoin="round"/><polyline fill="none" points="87.49294354530113,-174.61782674235147 89.99294354532319,-175.2876997233926 91.82307056428283,-177.11782674229406 92.49294354540343,-179.61782674229482 91.82307056436231,-182.11782674231688 89.99294354546086,-183.94795376127652 87.4929435454601,-184.61782674239714 84.99294354543804,-183.94795376135602 83.1628165264784,-182.11782674245455 82.49294354535779,-179.6178267424538 83.16281652639891,-177.11782674243173 84.99294354530036,-175.2876997234721 87.49294354530113,-174.61782674235147" stroke="#ffa500" stroke-linecap="round" stroke-linejoin="round"/><polyline fill="none" points="-203.94689123867127,39.08541916761775 -201.44689123864921,38.415546186576634 -199.61676421968957,36.585419167675184 -198.94689123856895,34.085419167674424 -199.61676421961008,31.585419167652365 -201.44689123851154,29.755292148692725 -203.9468912385123,29.085419167572116 -206.44689123853436,29.755292148613236 -208.277018257494,31.585419167514686 -208.94689123861463,34.08541916751545 -208.2770182575735,36.58541916753751 -206.44689123867204,38.41554618649715 -203.94689123867127,39.085419167617765" stroke="#00f" stroke-linecap="round" stroke-linejoin="round"/><polyline fill="none" points="135.5394330964253,-95.04452511750196 138.03943309644737,-95.71439809854309 139.869560115407,-97.54452511744454 140.53943309652763,-100.0445251174453 139.8695601154865,-102.54452511746736 138.03943309658507,-104.374652136427 135.5394330965843,-105.04452511754761 133.03943309656225,-104.37465213650648 131.2093060776026,-102.54452511760503 130.53943309648199,-100.04452511760428 131.2093060775231,-97.54452511758222 133.03943309642455,-95.71439809862258 135.5394330964253,-95.04452511750196" stroke="#00f" stroke-linecap="round" stroke-linejoin="round"/><polyline fill="none" points="233.8701017860023,-162.8131902226729 236.37010178602435,-163.483063203714 238.200228804984,-165.31319022261545 238.8701017861046,-167.8131902226162 238.2002288050635,-170.31319022263827 236.37010178616205,-172.1433172415979 233.87010178616129,-172.81319022271853 231.37010178613923,-172.1433172416774 229.5399747671796,-170.31319022277597 228.87010178605897,-167.8131902227752 229.5399747671001,-165.31319022275315 231.37010178600153,-163.4830632037935 233.8701017860023,-162.8131902226729" stroke="#00f" stroke-linecap="round" stroke-linejoin="round"/><polyline fill="none" points="75.33383118913196,72.5680363746317 77.83383118915403,71.8981633935906 79.66395820811367,70.06803637468914 80.33383118923429,67.56803637468838 79.66395820819318,65.0680363746663 77.83383118929173,63.237909355706655 75.33383118929096,62.568036374586036 72.83383118926889,63.237909355627146 71.00370417030925,65.06803637452859 70.33383118918863,67.56803637452936 71.00370417022974,70.06803637455143 72.83383118913119,71.89816339351107 75.33383118913196,72.56803637463169" stroke="#ffa500" stroke-linecap="round" stroke-linejoin="round"/><polyline fill="none" points="49.56246763841752,37.34666943803763 52.062467638439585,36.67679645699652 53.892594657399236,34.84666943809508 54.562467638519855,32.34666943809432 53.892594657478746,29.84666943807225 52.0624676385773,28.0165424191126 49.56246763857654,27.34666943799198 47.06246763855448,28.01654241903309 45.23234061959483,29.846669437934537 44.56246763847421,32.3466694379353 45.23234061951532,34.84666943795737 47.06246763841676,36.67679645691702 49.56246763841752,37.34666943803764" stroke="#ffa500" stroke-linecap="round" stroke-linejoin="round"/><polyline fill="none" points="-100.27378667853685,-126.04603795460281 -97.77378667851478,-126.71591093564392 -95.94365965955512,-128.54603795454537 -95.2737866784345,-131.04603795454614 -95.94365965947561,-133.5460379545682 -97.77378667837706,-135.37616497352784 -100.27378667837783,-136.04603795464845 -102.7737866783999,-135.37616497360736 -104.60391369735956,-133.54603795470592 -105.27378667848018,-131.04603795470516 -104.60391369743907,-128.5460379546831 -102.77378667853762,-126.71591093572344 -100.27378667853685,-126.04603795460282" stroke="#ffa500" stroke-linecap="round" stroke-linejoin="round"/><polyline fill="none" points="-195.5352119406505,6.949486834443745 -193.03521194062844,6.279613853402639 -191.2050849216688,4.4494868345011955 -190.53521194054818,1.9494868345004344 -191.20508492158928,-0.5505131655216342 -193.0352119404907,-2.3806401844812903 -195.53521194049148,-3.050513165601916 -198.03521194051353,-2.3806401845608116 -199.86533895947318,-0.5505131656593691 -200.5352119405938,1.949486834341392 -199.8653389595527,4.449486834363461 -198.03521194065127,6.279613853323118 -195.5352119406505,6.9494868344437455" stroke="#ffa500" stroke-linecap="round" stroke-linejoin="round"/><polyline fill="none" points="-309.7466755390903,14.366612701449894 -307.24667553906824,13.69673972040879 -305.41654852010856,11.866612701507348 -304.7466755389879,9.366612701506586 -305.41654852002904,6.866612701484517 -307.2466755389305,5.036485682524859 -309.74667553893124,4.366612701404231 -312.2466755389533,5.036485682445333 -314.07680255791297,6.866612701346774 -314.7466755390336,9.366612701347535 -314.0768025579925,11.866612701369604 -312.24667553909103,13.696739720329264 -309.7466755390903,14.366612701449894" stroke="#ffa500" stroke-linecap="round" stroke-linejoin="round"/><polyline fill="none" points="-66.22315625529606,-156.13767798563526 -63.72315625527399,-156.80755096667636 -61.893029236314334,-158.6376779855778 -61.2231562551937,-161.13767798557856 -61.8930292362348,-163.63767798560065 -63.723156255136246,-165.46780500456032 -66.22315625513701,-166.13767798568094 -68.72315625515908,-165.46780500463984 -70.55328327411874,-163.6376779857384 -71.22315625523937,-161.13767798573764 -70.55328327419828,-158.63767798571556 -68.72315625529684,-156.80755096675588 -66.22315625529608,-156.13767798563526" stroke="#00f" stroke-linecap="round" stroke-linejoin="round"/><polyline fill="none" points="-371.8452258581158,-29.114853294264393 -369.3452258580937,-29.78472627530549 -367.51509883913405,-31.61485329420693 -366.8452258580134,-34.11485329420769 -367.51509883905453,-36.61485329422976 -369.345225857956,-38.444980313189426 -371.84522585795673,-39.11485329431006 -374.3452258579788,-38.444980313268964 -376.17535287693846,-36.61485329436753 -376.8452258580591,-34.11485329436677 -376.175352877018,-31.614853294344694 -374.3452258581165,-29.78472627538503 -371.8452258581158,-29.114853294264393" stroke="#ffa500" stroke-linecap="round" stroke-linejoin="round"/><polyline fill="none" points="-192.19716562174187,106.4450781716494 -189.6971656217198,105.7752051906083 -187.86703860276012,103.94507817170687 -187.19716562163947,101.4450781717061 -187.86703860268057,98.94507817168403 -189.697165621582,97.11495115272436 -192.19716562158277,96.44507817160373 -194.69716562160485,97.11495115264482 -196.52729264056453,98.94507817154626 -197.19716562168517,101.44507817154702 -196.52729264064408,103.9450781715691 -194.69716562174264,105.77520519052877 -192.19716562174187,106.4450781716494" stroke="#ffa500" stroke-linecap="round" stroke-linejoin="round"/><polyline fill="none" points="131.75710980206006,212.2284583683326 134.25710980208214,211.55858538729152 136.0872368210418,209.72845836839008 136.75710980216246,207.2284583683893 136.08723682112137,204.72845836836723 134.25710980221993,202.89833134940756 131.75710980221916,202.2284583682869 129.25710980219708,202.898331349328 127.4269827832374,204.72845836822944 126.75710980211676,207.2284583682302 127.42698278315785,209.7284583682523 129.2571098020593,211.55858538721196 131.75710980206006,212.2284583683326" stroke="#ffa500" stroke-linecap="round" stroke-linejoin="round"/><polyline fill="none" points="-347.120732900069,-101.8419501154358 -344.62073290004696,-102.51182309647689 -342.7906058810873,-104.34195011537832 -342.12073289996664,-106.84195011537909 -342.7906058810077,-109.34195011540118 -344.6207328999091,-111.17207713436085 -347.12073289990985,-111.8419501154815 -349.6207328999319,-111.1720771344404 -351.4508599188916,-109.34195011553896 -352.12073290001223,-106.8419501155382 -351.45085991897116,-104.34195011551611 -349.62073290006975,-102.51182309655644 -347.120732900069,-101.8419501154358" stroke="#f00" stroke-linecap="round" stroke-linejoin="round"/><polyline fill="none" points="75.95416131478748,-73.42099153987206 78.45416131480957,-74.09086452091316 80.28428833376924,-75.9209915398146 80.95416131488989,-78.42099153981536 80.28428833384879,-80.92099153983744 78.45416131494736,-82.75111855879712 75.95416131494659,-83.42099153991776 73.4541613149245,-82.75111855887668 71.62403429596483,-80.92099153997525 70.95416131484419,-78.42099153997448 71.62403429588527,-75.9209915399524 73.4541613147867,-74.09086452099272 75.95416131478747,-73.42099153987208" stroke="#ffa500" stroke-linecap="round" stroke-linejoin="round"/><polyline fill="none" points="157.9513899190167,-169.61385637350153 160.45138991903877,-170.28372935454263 162.28151693799845,-172.11385637344407 162.9513899191191,-174.61385637344483 162.281516938078,-177.11385637346692 160.45138991917656,-178.9439833924266 157.9513899191758,-179.61385637354724 155.4513899191537,-178.94398339250614 153.62126290019404,-177.1138563736047 152.9513899190734,-174.61385637360394 153.6212629001145,-172.11385637358185 155.45138991901592,-170.28372935462218 157.9513899190167,-169.61385637350153" stroke="#ffa500" stroke-linecap="round" stroke-linejoin="round"/><polyline fill="none" points="216.66339571118579,-101.48968457668377 219.16339571120787,-102.15955755772485 220.99352273016754,-103.98968457662629 221.6633957112882,-106.48968457662706 220.9935227302471,-108.98968457664914 219.16339571134566,-110.81981159560881 216.6633957113449,-111.48968457672946 214.1633957113228,-110.81981159568838 212.33326869236313,-108.98968457678694 211.6633957112425,-106.48968457678617 212.33326869228358,-103.98968457676409 214.16339571118502,-102.15955755780442 216.66339571118579,-101.48968457668377" stroke="#ffa500" stroke-linecap="round" stroke-linejoin="round"/><polyline fill="none" points="-336.4631569685781,-42.35388886865439 -333.96315696855606,-43.02376184969547 -332.1330299495964,-44.8538888685969 -331.46315696847574,-47.35388886859766 -332.1330299495168,-49.85388886861974 -333.9631569684182,-51.68401588757942 -336.46315696841896,-52.353888868700075 -338.963156968441,-51.684015887658994 -340.7932839874007,-49.853888868757565 -341.46315696852133,-47.353888868756805 -340.79328398748027,-44.85388886873472 -338.96315696857886,-43.02376184977504 -336.4631569685781,-42.35388886865439" stroke="#00f" stroke-linecap="round" stroke-linejoin="round"/><polyline fill="none" points="124.20271514767686,-194.11433975536633 126.70271514769894,-194.7842127364074 128.5328421666586,-196.61433975530883 129.20271514777926,-199.1143397553096 128.5328421667382,-201.61433975533168 126.70271514783677,-203.44446677429136 124.202715147836,-204.114339755412 121.70271514781392,-203.44446677437094 119.87258812885423,-201.6143397554695 119.20271514773357,-199.11433975546873 119.87258812877465,-196.61433975544665 121.70271514767607,-194.78421273648698 124.20271514767684,-194.11433975536633" stroke="#ffa500" stroke-linecap="round" stroke-linejoin="round"/><polyline fill="none" points="-19.655117276046997,-91.08167241053407 -17.155117276024914,-91.75154539157515 -15.324990257065231,-93.58167241047657 -14.655117275944574,-96.08167241047734 -15.324990256985652,-98.58167241049942 -17.15511727588708,-100.41179942945911 -19.65511727588784,-101.08167241057977 -22.155117275909923,-100.41179942953869 -23.985244294869606,-98.58167241063727 -24.655117275990264,-96.0816724106365 -23.985244294949187,-93.58167241061442 -22.15511727604776,-91.75154539165473 -19.655117276047,-91.08167241053407" stroke="#ffa500" stroke-linecap="round" stroke-linejoin="round"/><polyline fill="none" points="107.41598973774747,107.26716275188883 109.91598973776955,106.59728977084775 111.74611675672924,104.76716275194633 112.4159897378499,102.26716275194556 111.74611675680882,99.76716275192348 109.9159897379074,97.93703573296379 107.41598973790663,97.26716275184313 104.91598973788454,97.93703573288421 103.08586271892486,99.76716275178563 102.4159897378042,102.2671627517864 103.08586271884528,104.76716275180848 104.9159897377467,106.59728977076817 107.41598973774747,107.26716275188883" stroke="#ffa500" stroke-linecap="round" stroke-linejoin="round"/><polyline fill="none" points="120.44413939916149,238.33448998770322 122.94413939918357,237.66461700666216 124.77426641814326,235.83448998776072 125.44413939926392,233.33448998775995 124.77426641822285,230.83448998773787 122.94413939932143,229.00436296877817 120.44413939932066,228.3344899876575 117.94413939929858,229.00436296869856 116.11401238033889,230.8344899876 115.44413939921823,233.33448998760076 116.1140123802593,235.83448998762285 117.94413939916072,237.66461700658255 120.44413939916149,238.33448998770322" stroke="#ffa500" stroke-linecap="round" stroke-linejoin="round"/><polyline fill="none" points="-259.1795159696772,-158.97947684740294 -256.6795159696551,-159.649349828444 -254.84938895069538,-161.47947684734544 -254.1795159695747,-163.9794768473462 -254.84938895061578,-166.4794768473683 -256.6795159695172,-168.309603866328 -259.1795159695179,-168.97947684744867 -261.67951596954003,-168.3096038664076 -263.5096429884997,-166.47947684750616 -264.17951596962035,-163.9794768475054 -263.5096429885793,-161.4794768474833 -261.6795159696779,-159.6493498285236 -259.17951596967714,-158.97947684740294" stroke="#00f" stroke-linecap="round" stroke-linejoin="round"/><polyline fill="none" points="-284.7397272196247,61.08504675498287 -282.23972721960257,60.4151737739418 -280.4096002006429,58.58504675504038 -279.73972721952225,56.08504675503962 -280.4096002005633,53.58504675501753 -282.2397272194647,51.754919736057836 -284.73972721946546,51.08504675493717 -287.2397272194876,51.754919735978234 -289.06985423844725,53.585046754879656 -289.7397272195679,56.085046754880416 -289.06985423852683,58.58504675490251 -287.2397272196254,60.4151737738622 -284.7397272196247,61.08504675498287" stroke="#00f" stroke-linecap="round" stroke-linejoin="round"/><polyline fill="none" points="138.54044461069583,118.34855612201294 141.0404446107179,117.67868314097187 142.8705716296776,115.84855612207045 143.5404446107983,113.34855612206968 142.87057162975722,110.84855612204758 141.04044461085581,109.01842910308788 138.54044461085505,108.3485561219672 136.04044461083296,109.01842910300827 134.21031759187326,110.8485561219097 133.5404446107526,113.34855612191046 134.21031759179365,115.84855612193256 136.04044461069506,117.67868314089226 138.54044461069583,118.34855612201294" stroke="#ffa500" stroke-linecap="round" stroke-linejoin="round"/><polyline fill="none" points="-335.6158278821715,-35.61384354073537 -333.1158278821494,-36.283716521776434 -331.28570086318973,-38.113843540677856 -330.6158278820691,-40.613843540678616 -331.28570086311015,-43.11384354070071 -333.11582788201156,-44.94397055966041 -335.6158278820123,-45.61384354078108 -338.1158278820344,-44.94397055974002 -339.9459549009941,-43.1138435408386 -340.61582788211473,-40.61384354083784 -339.94595490107366,-38.11384354081575 -338.11582788217225,-36.28371652185605 -335.6158278821715,-35.613843540735374" stroke="#ffa500" stroke-linecap="round" stroke-linejoin="round"/><polyline fill="none" points="-218.45376829139784,-144.64978047693666 -215.95376829137575,-145.31965345797772 -214.12364127241605,-147.14978047687913 -213.45376829129538,-149.6497804768799 -214.12364127233644,-152.14978047690198 -215.95376829123785,-153.97990749586168 -218.45376829123862,-154.64978047698236 -220.9537682912607,-153.9799074959413 -222.7838953102204,-152.14978047703988 -223.45376829134108,-149.64978047703912 -222.7838953103,-147.14978047701703 -220.9537682913986,-145.31965345805733 -218.45376829139784,-144.64978047693666" stroke="#00f" stroke-linecap="round" stroke-linejoin="round"/><polyline fill="none" points="156.06202098141588,-55.92486141278467 158.56202098143797,-56.59473439382573 160.39214800039767,-58.42486141272715 161.06202098151834,-60.92486141272791 160.39214800047728,-63.424861412750005 158.56202098157587,-65.2549884317097 156.0620209815751,-65.92486141283038 153.56202098155302,-65.25498843178933 151.73189396259332,-63.424861412887914 151.06202098147264,-60.924861412887154 151.7318939625137,-58.424861412865056 153.56202098141512,-56.594734393905355 156.06202098141588,-55.92486141278467" stroke="#ffa500" stroke-linecap="round" stroke-linejoin="round"/><polyline fill="none" points="-57.73818333149423,11.795448221846115 -55.23818333147213,11.125575240805059 -53.40805631251243,9.295448221903644 -52.738183331391745,6.795448221902884 -53.408056312432805,4.295448221880788 -55.23818333133422,2.465321202921083 -57.73818333133498,1.7954482218004004 -60.23818333135708,2.465321202841456 -62.068310350316786,4.29544822174287 -62.73818333143747,6.79544822174363 -62.068310350396416,9.295448221765728 -60.238183331495,11.125575240725434 -57.73818333149424,11.795448221846117" stroke="#00f" stroke-linecap="round" stroke-linejoin="round"/><polyline fill="none" points="26.331673580626635,153.94008410852368 28.831673580648733,153.2702111274826 30.66180059960844,151.4400841085812 31.331673580729124,148.94008410858044 30.66180059968807,146.44008410855832 28.83167358078666,144.60995708959862 26.3316735807859,143.94008410847795 23.831673580763802,144.609957089519 22.001546561804094,146.44008410842042 21.331673580683407,148.9400841084212 22.00154656172446,151.4400841084433 23.83167358062587,153.270211127403 26.33167358062663,153.94008410852368" stroke="#ffa500" stroke-linecap="round" stroke-linejoin="round"/><polyline fill="none" points="-328.22590524048024,-177.2488953338356 -325.72590524045813,-177.91876831487664 -323.8957782214984,-179.74889533377805 -323.2259052403777,-182.24889533377882 -323.89577822141877,-184.74889533380093 -325.7259052403202,-186.57902235276063 -328.2259052403209,-187.2488953338813 -330.725905240343,-186.57902235284027 -332.55603225930275,-184.74889533393886 -333.22590524042346,-182.2488953339381 -332.5560322593824,-179.74889533391598 -330.725905240481,-177.91876831495628 -328.22590524048024,-177.2488953338356" stroke="#ffa500" stroke-linecap="round" stroke-linejoin="round"/><polyline fill="none" points="-147.4351512468662,-122.89975614815442 -144.9351512468441,-123.56962912919548 -143.1050242278844,-125.39975614809688 -142.4351512467637,-127.89975614809765 -143.10502422780473,-130.39975614811976 -144.93515124670614,-132.22988316707946 -147.4351512467069,-132.89975614820017 -149.93515124672902,-132.22988316715913 -151.76527826568872,-130.39975614825772 -152.43515124680943,-127.89975614825696 -151.7652782657684,-125.39975614823486 -149.93515124686698,-123.56962912927514 -147.4351512468662,-122.89975614815445" stroke="#ffa500" stroke-linecap="round" stroke-linejoin="round"/><polyline fill="none" points="-247.30142627336704,37.27726910225955 -244.80142627334493,36.60739612121851 -242.9712992543852,34.7772691023171 -242.3014262732645,32.27726910231634 -242.97129925430553,29.777269102294238 -244.80142627320694,27.947142083334523 -247.3014262732077,27.27726910221383 -249.80142627322982,27.947142083254874 -251.63155329218955,29.777269102156282 -252.30142627331026,32.27726910215704 -251.63155329226922,34.77726910217915 -249.8014262733678,36.60739612113886 -247.30142627336704,37.27726910225956" stroke="#ffa500" stroke-linecap="round" stroke-linejoin="round"/><polyline fill="none" points="12.204621298893578,100.48867463999869 14.704621298915683,99.81880165895765 16.5347483178754,97.98867464005625 17.2046212989961,95.48867464005548 16.534748317955053,92.98867464003338 14.704621299053645,91.15854762107367 12.204621299052883,90.48867463995298 9.704621299030778,91.15854762099401 7.87449428007106,92.98867463989542 7.204621298950363,95.48867463989619 7.8744942799914055,97.98867463991829 9.704621298892812,99.818801658878 12.204621298893574,100.4886746399987" stroke="#00f" stroke-linecap="round" stroke-linejoin="round"/><polyline fill="none" points="27.089001501140732,218.95574285922467 29.589001501162837,218.28586987818363 31.419128520122555,216.45574285928222 32.08900150124325,213.95574285928146 31.41912852020221,211.45574285925935 29.589001501300803,209.62561584029962 27.089001501300043,208.9557428591789 24.589001501277938,209.62561584021995 22.758874482318216,211.45574285912136 22.089001501197515,213.95574285912213 22.758874482238557,216.45574285914424 24.589001501139965,218.28586987810397 27.089001501140725,218.95574285922467" stroke="#ffa500" stroke-linecap="round" stroke-linejoin="round"/><polyline fill="none" points="-165.18107600423212,-54.657905427778125 -162.68107600421,-55.327778408819164 -160.85094898525028,-57.15790542772057 -160.18107600412958,-59.65790542772133 -160.85094898517062,-62.15790542774344 -162.68107600407203,-63.98803244670316 -165.1810760040728,-64.65790542782386 -167.6810760040949,-63.988032446782825 -169.51120302305463,-62.15790542788142 -170.18107600417534,-59.65790542788066 -169.5112030231343,-57.15790542785855 -167.6810760042329,-55.32777840889883 -165.18107600423212,-54.657905427778125" stroke="#00f" stroke-linecap="round" stroke-linejoin="round"/><polyline fill="none" points="-136.8105620235473,80.15221839675314 -134.3105620235252,79.4823454157121 -132.48043500456546,77.6522183968107 -131.81056202344476,75.15221839680993 -132.4804350044858,72.65221839678782 -134.3105620233872,70.82209137782809 -136.81056202338797,70.15221839670738 -139.31056202341009,70.82209137774842 -141.14068904236981,72.65221839664983 -141.81056202349052,75.1522183966506 -141.14068904244948,77.65221839667271 -139.31056202354807,79.48234541563244 -136.8105620235473,80.15221839675314" stroke="#ffa500" stroke-linecap="round" stroke-linejoin="round"/><polyline fill="none" points="-32.73606332438003,-4.736867957236585 -30.236063324357918,-5.406740938277622 -28.405936305398193,-7.236867957179025 -27.736063324277488,-9.736867957179786 -28.405936305318523,-12.236867957201895 -30.236063324219927,-14.06699497616162 -32.73606332422069,-14.736867957282326 -35.23606332424279,-14.066994976241292 -37.06619034320252,-12.23686795733989 -37.736063324323226,-9.736867957339129 -37.06619034328219,-7.2368679573170205 -35.23606332438079,-5.406740938357294 -32.73606332438003,-4.736867957236587" stroke="#ffa500" stroke-linecap="round" stroke-linejoin="round"/><polyline fill="none" points="-268.8476934423435,-90.29368954460111 -266.3476934423214,-90.96356252564215 -264.51756642336164,-92.79368954454355 -263.84769344224094,-95.29368954454432 -264.51756642328195,-97.79368954456643 -266.34769344218336,-99.62381656352616 -268.8476934421841,-100.29368954464687 -271.3476934422062,-99.62381656360583 -273.17782046116594,-97.79368954470442 -273.84769344228664,-95.29368954470365 -273.17782046124563,-92.79368954468154 -271.3476934423442,-90.96356252572181 -268.8476934423435,-90.29368954460111" stroke="#008000" stroke-linecap="round" stroke-linejoin="round"/><polyline fill="none" points="-269.8234867020126,-158.55490570176235 -267.3234867019905,-159.2247786828034 -265.49335968303075,-161.0549057017048 -264.82348670191004,-163.55490570170556 -265.49335968295105,-166.05490570172768 -267.32348670185246,-167.8850327206874 -269.8234867018532,-168.5549057018081 -272.3234867018753,-167.88503272076707 -274.15361372083504,-166.05490570186566 -274.82348670195574,-163.5549057018649 -274.15361372091473,-161.05490570184278 -272.3234867020133,-159.22477868288306 -269.8234867020126,-158.55490570176235" stroke="#00f" stroke-linecap="round" stroke-linejoin="round"/><polyline fill="none" points="99.6882498202629,263.19891525806634 102.18824982028501,262.5290422770253 104.01837683924474,260.6989152581239 104.68824982036546,258.1989152581232 104.01837683932443,255.69891525810107 102.18824982042304,253.86878823914134 99.68824982042227,253.19891525802063 97.18824982040016,253.86878823906167 95.35812280144043,255.69891525796308 94.68824982031971,258.19891525796385 95.35812280136074,260.69891525798596 97.18824982026213,262.5290422769457 99.6882498202629,263.1989152580664" stroke="#00f" stroke-linecap="round" stroke-linejoin="round"/><polyline fill="none" points="-217.4784404966271,-28.991682753373745 -214.97844049660497,-29.661555734414772 -213.14831347764525,-31.49168275331617 -212.47844049652454,-33.99168275331693 -213.14831347756558,-36.49168275333904 -214.978440496467,-38.32180977229878 -217.47844049646775,-38.9916827534195 -219.97844049648987,-38.32180977237847 -221.8085675154496,-36.49168275347708 -222.4784404965703,-33.99168275347632 -221.80856751552926,-31.491682753454203 -219.97844049662785,-29.661555734494467 -217.4784404966271,-28.99168275337375" stroke="#00f" stroke-linecap="round" stroke-linejoin="round"/><polyline fill="none" points="133.88638365039384,169.2530273201132 136.38638365041595,168.58315433907217 138.21651066937568,166.75302732017076 138.8863836504964,164.25302732017 138.2165106694554,161.75302732014788 136.386383650554,159.92290030118815 133.88638365055323,159.25302732006742 131.38638365053112,159.92290030110843 129.5562566315714,161.75302732000983 128.88638365045065,164.2530273200106 129.55625663149166,166.75302732003271 131.38638365039307,168.58315433899244 133.88638365039384,169.25302732011318" stroke="#ffa500" stroke-linecap="round" stroke-linejoin="round"/><polyline fill="none" points="-220.74476979174756,-72.97441573665868 -218.24476979172545,-73.64428871769971 -216.41464277276572,-75.4744157366011 -215.74476979164498,-77.97441573660187 -216.414642772686,-80.47441573662398 -218.2447697915874,-82.30454275558373 -220.74476979158817,-82.97441573670444 -223.24476979161028,-82.30454275566342 -225.07489681057,-80.47441573676203 -225.74476979169074,-77.97441573676126 -225.07489681064973,-75.47441573673915 -223.24476979174833,-73.6442887177794 -220.74476979174756,-72.97441573665868" stroke="#ffa500" stroke-linecap="round" stroke-linejoin="round"/><polyline fill="none" points="110.73664952332382,-88.15640806837467 113.23664952334593,-88.8262810494157 115.06677654230567,-90.65640806831709 115.7366495234264,-93.15640806831786 115.06677654238537,-95.65640806833997 113.23664952348398,-97.48653508729971 110.73664952348321,-98.15640806842043 108.2366495234611,-97.48653508737941 106.40652250450135,-95.65640806847802 105.73664952338063,-93.15640806847725 106.40652250442166,-90.65640806845514 108.23664952332305,-88.82628104949539 110.73664952332382,-88.15640806837466" stroke="#ffa500" stroke-linecap="round" stroke-linejoin="round"/><polyline fill="none" points="-217.6558742844869,123.8764716845928 -215.1558742844648,123.20659870355178 -213.32574726550504,121.37647168465038 -212.6558742843843,118.87647168464962 -213.32574726542532,116.37647168462749 -215.1558742843267,114.54634466566775 -217.65587428432747,113.87647168454701 -220.15587428434958,114.54634466558802 -221.98600130330934,116.37647168448942 -222.65587428443007,118.87647168449018 -221.98600130338906,121.37647168451231 -220.15587428448768,123.20659870347205 -217.6558742844869,123.87647168459279" stroke="#ffa500" stroke-linecap="round" stroke-linejoin="round"/><polyline fill="none" points="46.55194568787231,-62.617574929195854 49.05194568789443,-63.28744791023687 50.882072706854174,-65.11757492913826 51.55194568797491,-67.61757492913902 50.88207270693389,-70.11757492916115 49.0519456880325,-71.9477019481209 46.551945688031736,-72.61757492924163 44.05194568800962,-71.94770194820062 42.22181866904987,-70.11757492929922 41.551945687929134,-67.61757492929846 42.221818668970144,-65.11757492927633 44.05194568787153,-63.28744791031658 46.55194568787229,-62.61757492919585" stroke="#ffa500" stroke-linecap="round" stroke-linejoin="round"/><polyline fill="none" points="-352.35572097368635,-92.71425663781908 -349.85572097366423,-93.38412961886009 -348.0255939547045,-95.21425663776148 -347.3557209735838,-97.71425663776225 -348.0255939546248,-100.21425663778437 -349.8557209735262,-102.04438365674412 -352.35572097352696,-102.71425663786485 -354.85572097354907,-102.04438365682384 -356.6858479925088,-100.21425663792245 -357.35572097362956,-97.7142566379217 -356.68584799258855,-95.21425663789957 -354.85572097368714,-93.38412961893982 -352.3557209736864,-92.71425663781909" stroke="#008000" stroke-linecap="round" stroke-linejoin="round"/><polyline fill="none" points="-177.58018207201079,55.4142275093266 -175.08018207198867,54.74435452828559 -173.25005505302892,52.914227509384204 -172.58018207190818,50.414227509383444 -173.2500550529492,47.914227509361325 -175.08018207185057,46.084100490401575 -177.58018207185134,45.41422750928084 -180.08018207187345,46.08410049032185 -181.9103090908332,47.91422750922324 -182.58018207195394,50.414227509224 -181.91030909091293,52.91422750924612 -180.08018207201155,54.74435452820587 -177.58018207201079,55.41422750932661" stroke="#00f" stroke-linecap="round" stroke-linejoin="round"/><polyline fill="none" points="-128.59323731498148,-34.56980308231279 -126.09323731495935,-35.2396760633538 -124.2631102959996,-37.069803082255184 -123.59323731487886,-39.569803082255945 -124.26311029591987,-42.06980308227807 -126.09323731482125,-43.89993010123782 -128.593237314822,-44.56980308235856 -131.09323731484412,-43.89993010131756 -132.92336433380387,-42.06980308241617 -133.5932373149246,-39.56980308241541 -132.9233643338836,-37.069803082393285 -131.09323731498222,-35.239676063433535 -128.59323731498145,-34.569803082312795" stroke="#ffa500" stroke-linecap="round" stroke-linejoin="round"/><polyline fill="none" points="85.71910055630863,149.9747095656566 88.21910055633076,149.3048365846156 90.04922757529052,147.47470956571422 90.71910055641126,144.97470956571345 90.04922757537025,142.47470956569134 88.21910055646887,140.64458254673158 85.71910055646812,139.97470956561085 83.219100556446,140.64458254665186 81.38897353748624,142.47470956555324 80.71910055636549,144.974709565554 81.3889735374065,147.47470956557612 83.21910055630788,149.30483658453588 85.71910055630863,149.9747095656566" stroke="#00f" stroke-linecap="round" stroke-linejoin="round"/><polyline fill="none" points="-442.8622636221364,-66.10660918644105 -440.3622636221143,-66.77648216748204 -438.5321366031546,-68.60660918638342 -437.8622636220338,-71.10660918638418 -438.53213660307483,-73.6066091864063 -440.36226362197624,-75.43673620536606 -442.862263621977,-76.1066091864868 -445.3622636219991,-75.43673620544581 -447.1923906409588,-73.60660918654443 -447.8622636220796,-71.10660918654368 -447.19239064103857,-68.60660918652155 -445.36226362213716,-66.7764821675618 -442.8622636221364,-66.10660918644105" stroke="#ffa500" stroke-linecap="round" stroke-linejoin="round"/><polyline fill="none" points="-207.9631870760104,93.79408542143184 -205.46318707598826,93.12421244039085 -203.6330600570285,91.29408542148947 -202.96318707590777,88.79408542148872 -203.63306005694878,86.29408542146659 -205.46318707585016,84.46395840250683 -207.96318707585093,83.79408542138609 -210.46318707587307,84.46395840242708 -212.29331409483282,86.29408542132846 -212.96318707595356,88.79408542132921 -212.29331409491255,91.29408542135134 -210.46318707601117,93.1242124403111 -207.9631870760104,93.79408542143184" stroke="#ffa500" stroke-linecap="round" stroke-linejoin="round"/><polyline fill="none" points="-287.97602944527614,56.72902138216322 -285.476029445254,56.05914840112222 -283.64590242629424,54.22902138222084 -282.9760294451735,51.72902138222008 -283.6459024262145,49.229021382197956 -285.4760294451159,47.39889436323819 -287.97602944511664,46.729021382117445 -290.47602944513875,47.39889436315844 -292.30615646409854,49.22902138205982 -292.9760294452193,51.72902138206058 -292.3061564641783,54.229021382082706 -290.47602944527694,56.05914840104247 -287.9760294452762,56.72902138216322" stroke="#ffa500" stroke-linecap="round" stroke-linejoin="round"/><polyline fill="none" points="-224.69341379555462,-97.80883586491278 -222.19341379553248,-98.47870884595378 -220.36328677657272,-100.30883586485515 -219.69341379545196,-102.80883586485591 -220.36328677649294,-105.30883586487803 -222.19341379539432,-107.13896288383779 -224.6934137953951,-107.80883586495854 -227.19341379541723,-107.13896288391754 -229.023540814377,-105.30883586501616 -229.69341379549775,-102.80883586501541 -229.02354081445677,-100.30883586499328 -227.1934137955554,-98.47870884603351 -224.69341379555462,-97.80883586491277" stroke="#008000" stroke-linecap="round" stroke-linejoin="round"/><polyline fill="none" points="-373.9635229326589,-147.11365116175816 -371.4635229326368,-147.78352414279914 -369.633395913677,-149.61365116170052 -368.96352293255626,-152.11365116170128 -369.63339591359727,-154.61365116172342 -371.4635229324986,-156.44377818068318 -373.96352293249936,-157.11365116180394 -376.46352293252147,-156.44377818076296 -378.29364995148126,-154.61365116186158 -378.963522932602,-152.11365116186082 -378.293649951561,-149.61365116183867 -376.46352293265966,-147.78352414287892 -373.9635229326589,-147.11365116175816" stroke="#ffa500" stroke-linecap="round" stroke-linejoin="round"/><polyline fill="none" points="-289.27440886473306,-144.46410301482987 -286.77440886471095,-145.13397599587086 -284.94428184575116,-146.96410301477223 -284.2744088646304,-149.464103014773 -284.9442818456714,-151.96410301479514 -286.77440886457276,-153.7942300337549 -289.2744088645735,-154.46410301487566 -291.7744088645956,-153.79423003383468 -293.6045358835554,-151.9641030149333 -294.27440886467616,-149.46410301493253 -293.60453588363515,-146.9641030149104 -291.7744088647338,-145.13397599595064 -289.27440886473306,-144.46410301482987" stroke="#00f" stroke-linecap="round" stroke-linejoin="round"/><polyline fill="none" points="-8.452962732456914,-165.38948262220566 -5.952962732434781,-166.05935560324664 -4.122835713475009,-167.88948262214802 -3.4529627323542487,-170.3894826221488 -4.122835713395236,-172.88948262217093 -5.9529627322966086,-174.71960964113072 -8.452962732297367,-175.38948262225148 -10.952962732319502,-174.7196096412105 -12.783089751279276,-172.88948262230912 -13.452962732400037,-170.38948262230835 -12.783089751359052,-167.8894826222862 -10.95296273245768,-166.05935560332642 -8.452962732456921,-165.38948262220566" stroke="#00f" stroke-linecap="round" stroke-linejoin="round"/><polyline fill="none" points="-370.30805377975327,-69.3509649696367 -367.80805377973115,-70.02083795067769 -365.97792676077137,-71.85096496957907 -365.3080537796506,-74.35096496957982 -365.9779267606916,-76.85096496960196 -367.80805377959297,-78.68109198856173 -370.3080537795937,-79.3509649696825 -372.8080537796158,-78.68109198864151 -374.6381807985756,-76.85096496974015 -375.30805377969637,-74.3509649697394 -374.63818079865536,-71.85096496971725 -372.808053779754,-70.02083795075748 -370.30805377975327,-69.35096496963672" stroke="#00f" stroke-linecap="round" stroke-linejoin="round"/><polyline fill="none" points="49.195537878199715,113.68732035051214 51.695537878221856,113.01744736947116 53.525664897181635,111.18732035056979 54.1955378783024,108.68732035056904 53.52566489726142,106.1873203505469 51.69553787836005,104.35719333158713 49.19553787835929,103.68732035046636 46.69553787833715,104.35719333150735 44.86541085937737,106.18732035040871 44.1955378782566,108.68732035040946 44.86541085929758,111.1873203504316 46.695537878198955,113.01744736939138 49.195537878199715,113.68732035051214" stroke="#ffa500" stroke-linecap="round" stroke-linejoin="round"/><polyline fill="none" points="-310.30297288685176,-14.799023595594601 -307.80297288682965,-15.468896576635581 -305.97284586786986,-17.29902359553695 -305.3029728867491,-19.79902359553771 -305.97284586779006,-22.29902359555985 -307.8029728866914,-24.129150614519627 -310.30297288669215,-24.799023595640396 -312.80297288671426,-24.129150614599418 -314.63309990567404,-22.29902359569805 -315.3029728867948,-19.79902359569729 -314.63309990575385,-17.29902359567515 -312.8029728868525,-15.468896576715368 -310.30297288685176,-14.799023595594598" stroke="#008000" stroke-linecap="round" stroke-linejoin="round"/><polyline fill="none" points="0.3465105414342963,30.988370820112667 2.8465105414564356,30.31849783907169 4.676637560416216,28.48837082017032 5.346510541536987,25.98837082016956 4.676637560496009,23.48837082014742 2.846510541594641,21.658243801187638 0.34651054159388206,20.988370820066866 -2.153489458428258,21.658243801107844 -3.9836164773880403,23.488370820009212 -4.653489458508814,25.988370820009973 -3.9836164774678378,28.488370820032113 -2.1534894585664706,30.318497838991895 0.3465105414342884,30.98837082011267" stroke="#ffa500" stroke-linecap="round" stroke-linejoin="round"/><polyline fill="none" points="50.99791752778805,-247.2177172090028 53.49791752781019,-247.8875901900438 55.32804454676997,-249.71771720894517 55.99791752789075,-252.21771720894594 55.328044546849775,-254.71771720896808 53.49791752794841,-256.54784422792784 50.99791752794765,-257.2177172090486 48.49791752792551,-256.54784422800765 46.66779050896572,-254.71771720910627 45.99791752784495,-252.2177172091055 46.66779050888592,-249.71771720908336 48.49791752778729,-247.88759019012357 50.99791752778805,-247.21771720900279" stroke="#ffa500" stroke-linecap="round" stroke-linejoin="round"/><polyline fill="none" points="31.33011994281188,276.84156261084627 33.830119942834024,276.1716896298053 35.66024696179381,274.34156261090396 36.330119942914585,271.8415626109032 35.66024696187361,269.34156261088106 33.830119942972246,267.51143559192127 31.330119942971486,266.8415626108005 28.83011994294934,267.51143559184146 26.999992923989556,269.3415626107428 26.330119942868777,271.84156261074355 26.999992923909748,274.3415626107657 28.830119942811113,276.1716896297255 31.330119942811873,276.84156261084627" stroke="#ffa500" stroke-linecap="round" stroke-linejoin="round"/><polyline fill="none" points="224.93122970432913,-149.3359260268609 227.43122970435127,-150.00579900790189 229.26135672331105,-151.83592602680324 229.93122970443184,-154.335926026804 229.26135672339086,-156.83592602682614 227.4312297044895,-158.66605304578593 224.93122970448874,-159.33592602690672 222.4312297044666,-158.66605304586574 220.60110268550682,-156.8359260269644 219.93122970438603,-154.33592602696362 220.601102685427,-151.83592602694148 222.43122970432836,-150.0057990079817 224.93122970432913,-149.3359260268609" stroke="#ffa500" stroke-linecap="round" stroke-linejoin="round"/><polyline fill="none" points="16.866989959579325,-172.73919041052304 19.36698995960147,-173.40906339156402 21.197116978561258,-175.23919041046537 21.86698995968204,-177.73919041046614 21.197116978641073,-180.23919041048828 19.366989959739712,-182.06931742944806 16.86698995973895,-182.73919041056885 14.366989959716806,-182.06931742952787 12.536862940757015,-180.23919041062652 11.86698995963623,-177.73919041062575 12.536862940677198,-175.2391904106036 14.366989959578559,-173.40906339164383 16.866989959579318,-172.73919041052304" stroke="#ffa500" stroke-linecap="round" stroke-linejoin="round"/><polyline fill="none" points="-6.010373940659791,-122.67375273460449 -3.5103739406376446,-123.34362571564546 -1.6802469216778513,-125.17375273454682 -1.0103739405570658,-127.67375273454758 -1.6802469215980314,-130.17375273456972 -3.5103739404993926,-132.0038797535295 -6.010373940500152,-132.6737527346503 -8.5103739405223,-132.00387975360934 -10.340500959482094,-130.173752734708 -11.01037394060288,-127.67375273470724 -10.340500959561917,-125.1737527346851 -8.510373940660557,-123.3436257157253 -6.0103739406597985,-122.6737527346045" stroke="#00f" stroke-linecap="round" stroke-linejoin="round"/><polyline fill="none" points="178.2155057773702,-147.23538501762974 180.71550577739234,-147.9052579986707 182.54563279635212,-149.73538501757204 183.2155057774729,-152.2353850175728 182.54563279643196,-154.73538501759495 180.7155057775306,-156.56551203655474 178.21550577752984,-157.23538501767553 175.7155057775077,-156.56551203663457 173.88537875854792,-154.73538501773322 173.21550577742713,-152.23538501773245 173.88537875846808,-149.7353850177103 175.71550577736943,-147.90525799875053 178.2155057773702,-147.23538501762974" stroke="#00f" stroke-linecap="round" stroke-linejoin="round"/><polyline fill="none" points="-418.6177355330746,-59.4023381038178 -416.11773553305244,-60.07221108485876 -414.28760851409265,-61.902338103760115 -413.61773553297184,-64.40233810376087 -414.2876085140128,-66.90233810378302 -416.11773553291414,-68.73246512274282 -418.6177355329149,-69.40233810386361 -421.11773553293705,-68.73246512282266 -422.94786255189683,-66.9023381039213 -423.61773553301765,-64.40233810392054 -422.9478625519767,-61.902338103898394 -421.11773553307535,-60.072211084938594 -418.6177355330746,-59.402338103817804" stroke="#00f" stroke-linecap="round" stroke-linejoin="round"/><polyline fill="none" points="102.01211270581337,-120.56820263621466 104.51211270583552,-121.23807561725562 106.34223972479532,-123.06820263615697 107.01211270591611,-125.56820263615772 106.34223972487516,-128.06820263617988 104.5121127059738,-129.8983296551397 102.01211270597305,-130.56820263626048 99.5121127059509,-129.89832965521953 97.6819856869911,-128.06820263631818 97.01211270587031,-125.56820263631742 97.68198568691126,-123.06820263629527 99.51211270581261,-121.23807561733547 102.01211270581337,-120.56820263621468" stroke="#00f" stroke-linecap="round" stroke-linejoin="round"/><polyline fill="none" points="-354.6505282300215,-145.29820745845055 -352.15052822999934,-145.9680804394915 -350.32040121103955,-147.79820745839285 -349.65052822991873,-150.29820745839362 -350.3204012109597,-152.79820745841576 -352.15052822986104,-154.62833447737557 -354.6505282298618,-155.29820745849636 -357.15052822988395,-154.6283344774554 -358.98065524884373,-152.79820745855406 -359.65052822996455,-150.2982074585533 -358.9806552489236,-147.79820745853115 -357.15052823002225,-145.96808043957134 -354.6505282300215,-145.29820745845055" stroke="#ffa500" stroke-linecap="round" stroke-linejoin="round"/><polyline fill="none" points="-294.7055158082902,127.11423238720914 -292.20551580826805,126.44435940616819 -290.37538878930826,124.61423238726684 -289.70551580818744,122.11423238726609 -290.3753887892284,119.61423238724393 -292.20551580812975,117.78410536828413 -294.7055158081305,117.11423238716333 -297.20551580815265,117.78410536820428 -299.03564282711244,119.61423238710563 -299.70551580823326,122.11423238710638 -299.0356428271923,124.61423238712854 -297.20551580829095,126.44435940608835 -294.7055158082902,127.11423238720916" stroke="#ffa500" stroke-linecap="round" stroke-linejoin="round"/><polyline fill="none" points="-273.896588403166,-10.243978433046264 -271.3965884031438,-10.913851414087215 -269.56646138418404,-12.743978432988568 -268.8965884030632,-15.243978432989326 -269.5664613841042,-17.74397843301148 -271.3965884030055,-19.57410545197129 -273.89658840300626,-20.243978433092092 -276.39658840302843,-19.574105452051143 -278.2267154219882,-17.743978433149792 -278.89658840310904,-15.243978433149033 -278.2267154220681,-12.743978433126877 -276.39658840316673,-10.913851414167066 -273.896588403166,-10.24397843304626" stroke="#00f" stroke-linecap="round" stroke-linejoin="round"/><polyline fill="none" points="-314.0932660742417,-50.20543602442389 -311.5932660742195,-50.875309005464835 -309.7631390552597,-52.705436024366186 -309.0932660741389,-55.205436024366946 -309.76313905517986,-57.7054360243891 -311.5932660740812,-59.535563043348915 -314.09326607408195,-60.20543602446972 -316.5932660741041,-59.53556304342877 -318.4233930930639,-57.70543602452742 -319.0932660741847,-55.20543602452666 -318.4233930931438,-52.70543602450451 -316.5932660742424,-50.87530900554469 -314.0932660742417,-50.20543602442388" stroke="#008000" stroke-linecap="round" stroke-linejoin="round"/><polyline fill="none" points="162.18238453569955,-107.09544148437128 164.68238453572172,-107.76531446541222 166.51251155468154,-109.59544148431357 167.18238453580236,-112.09544148431432 166.5125115547614,-114.59544148433648 164.68238453586005,-116.42556850329629 162.18238453585928,-117.0954414844171 159.68238453583712,-116.42556850337616 157.8522575168773,-114.5954414844748 157.18238453575648,-112.09544148447405 157.85225751679744,-109.5954414844519 159.6823845356988,-107.76531446549208 162.18238453569955,-107.09544148437128" stroke="#ffa500" stroke-linecap="round" stroke-linejoin="round"/><polyline fill="none" points="80.39468065770681,-210.64347394857842 82.89468065772897,-211.31334692961937 84.72480767668878,-213.14347394852072 85.3946806578096,-215.6434739485215 84.72480767676866,-218.14347394854366 82.89468065786731,-219.97360096750347 80.39468065786656,-220.6434739486243 77.8946806578444,-219.97360096758334 76.06455363888459,-218.143473948682 75.39468065776377,-215.64347394868122 76.06455363880471,-213.14347394865905 77.89468065770606,-211.31334692969924 80.39468065770681,-210.64347394857842" stroke="#ffa500" stroke-linecap="round" stroke-linejoin="round"/><polyline fill="none" points="-322.69950504381967,-131.4928008956257 -320.1995050437975,-132.16267387666664 -318.36937802483766,-133.992800895568 -317.69950504371684,-136.49280089556876 -318.3693780247578,-138.99280089559093 -320.19950504365914,-140.82292791455075 -322.6995050436599,-141.49280089567156 -325.19950504368205,-140.8229279146306 -327.0296320626419,-138.99280089572926 -327.6995050437627,-136.4928008957285 -327.02963206272176,-133.99280089570632 -325.1995050438204,-132.1626738767465 -322.69950504381967,-131.4928008956257" stroke="#00f" stroke-linecap="round" stroke-linejoin="round"/><polyline fill="none" points="64.92342986234166,-156.31102976511073 67.42342986236383,-156.98090274615168 69.25355688132365,-158.81102976505304 69.92342986244446,-161.3110297650538 69.25355688140353,-163.81102976507597 67.42342986250218,-165.6411567840358 64.92342986250142,-166.3110297651566 62.42342986247926,-165.64115678411568 60.59330284351944,-163.81102976521433 59.92342986239862,-161.31102976521356 60.59330284343956,-158.8110297651914 62.4234298623409,-156.98090274623158 64.92342986234166,-156.31102976511076" stroke="#00f" stroke-linecap="round" stroke-linejoin="round"/><polyline fill="none" points="46.37195482572888,-109.75927595475116 48.87195482575104,-110.4291489357921 50.70208184471086,-112.25927595469345 51.37195482583168,-114.7592759546942 50.70208184479074,-117.25927595471637 48.8719548258894,-119.0894029736762 46.371954825888636,-119.75927595479702 43.871954825866474,-119.08940297375608 42.04182780690665,-117.25927595485473 41.371954825785835,-114.75927595485398 42.04182780682677,-112.2592759548318 43.87195482572811,-110.42914893587198 46.37195482572887,-109.75927595475116" stroke="#ffa500" stroke-linecap="round" stroke-linejoin="round"/><polyline fill="none" points="-259.84656712668243,96.38828364897289 -257.34656712666026,95.71841066793195 -255.51644010770045,93.88828364903061 -254.84656712657963,91.38828364902986 -255.51644010762055,88.88828364900769 -257.3465671265219,87.05815663004786 -259.84656712652264,86.38828364892704 -262.3465671265448,87.05815662996798 -264.17669414550465,88.88828364886932 -264.8465671266255,91.38828364887007 -264.1766941455845,93.88828364889224 -262.34656712668317,95.71841066785207 -259.84656712668243,96.38828364897289" stroke="#ffa500" stroke-linecap="round" stroke-linejoin="round"/><polyline fill="none" points="-333.22918626639114,-87.10286089752147 -330.72918626636897,-87.77273387856239 -328.8990592474091,-89.60286089746373 -328.2291862662883,-92.10286089746448 -328.89905924732926,-94.60286089748665 -330.7291862662306,-96.43298791644648 -333.22918626623135,-97.10286089756731 -335.7291862662535,-96.43298791652639 -337.55931328521336,-94.60286089762505 -338.2291862663342,-92.1028608976243 -337.55931328529323,-89.60286089760213 -335.7291862663919,-87.7727338786423 -333.22918626639114,-87.10286089752147" stroke="#008000" stroke-linecap="round" stroke-linejoin="round"/><polyline fill="none" points="-217.70508711263994,-49.89262195687702 -215.20508711261778,-50.562494937917954 -213.37496009365793,-52.39262195681929 -212.70508711253711,-54.89262195682005 -213.37496009357804,-57.39262195684222 -215.2050871124794,-59.22274897580205 -217.70508711248016,-59.89262195692288 -220.20508711250233,-59.222748975881956 -222.03521413146217,-57.39262195698062 -222.705087112583,-54.89262195697986 -222.03521413154206,-52.39262195695769 -220.2050871126407,-50.562494937997855 -217.70508711263994,-49.89262195687702" stroke="#ffa500" stroke-linecap="round" stroke-linejoin="round"/><polyline fill="none" points="-226.09532341798456,-101.30952434181569 -223.5953234179624,-101.97939732285661 -221.76519639900255,-103.80952434175795 -221.09532341788173,-106.3095243417587 -221.76519639892265,-108.80952434178087 -223.595323417824,-110.6396513607407 -226.09532341782477,-111.30952434186153 -228.59532341784694,-110.63965136082061 -230.42545043680678,-108.80952434191927 -231.09532341792763,-106.30952434191852 -230.4254504368867,-103.80952434189635 -228.59532341798536,-101.9793973229365 -226.0953234179846,-101.30952434181567" stroke="#ffa500" stroke-linecap="round" stroke-linejoin="round"/><polyline fill="none" points="-277.5032917822137,-110.81427508792167 -275.0032917821915,-111.4841480689626 -273.1731647632317,-113.31427508786393 -272.50329178211086,-115.81427508786469 -273.17316476315176,-118.31427508788686 -275.0032917820531,-120.1444021068467 -277.50329178205385,-120.81427508796753 -280.003291782076,-120.1444021069266 -281.83341880103586,-118.31427508802527 -282.5032917821567,-115.81427508802452 -281.8334188011158,-113.31427508800235 -280.00329178221443,-111.4841480690425 -277.5032917822137,-110.81427508792167" stroke="#00f" stroke-linecap="round" stroke-linejoin="round"/><polyline fill="none" points="71.03473507831127,246.82959318847566 73.53473507833344,246.15972020743473 75.36486209729328,244.3295931885334 76.03473507841412,241.82959318853264 75.36486209737319,239.32959318851047 73.53473507847185,237.49946616955063 71.0347350784711,236.82959318842978 68.53473507844893,237.4994661694707 66.70460805948909,239.32959318837203 66.03473507836826,241.8295931883728 66.70460805940918,244.32959318839497 68.53473507831052,246.1597202073548 71.03473507831129,246.82959318847566" stroke="#ffa500" stroke-linecap="round" stroke-linejoin="round"/><polyline fill="none" points="-235.9523666446036,-8.703684183257618 -233.45236664458142,-9.373557164298537 -231.62223962562157,-11.203684183199872 -230.95236664450073,-13.703684183200632 -231.62223962554165,-16.20368418322281 -233.45236664444298,-18.03381120218265 -235.95236664444374,-18.703684183303494 -238.4523666444659,-18.033811202262577 -240.28249366342575,-16.203684183361243 -240.9523666445466,-13.703684183360483 -240.28249366350568,-11.203684183338307 -238.45236664460435,-9.373557164378463 -235.9523666446036,-8.70368418325762" stroke="#ffa500" stroke-linecap="round" stroke-linejoin="round"/></svg>