<?xml version="1.0" ?><!DOCTYPE svg  PUBLIC '-//W3C//DTD SVG 1.1//EN'  'http://www.w3.org/Graphics/SVG/1.1/DTD/svg11.dtd'><svg height="576.000" viewBox="-452.000 -266.000 696.000 576.000" width="696.000" xmlns="http://www.w3.org/2000/svg"><line fill="none" stroke="none" stroke-linecap="round" stroke-width="2.0" x1="0.0" x2="0.0" y1="0.0" y2="0.0"/><polygon fill="none" fill-rule="evenodd" points="0.0,0.0 0.0,0.0 0.0,0.0" stroke-linejoin="round"/><polyline fill="none" points="-15.656126514839556,120.52956298580479 -13.156126514817057,119.85969000476439 -11.325999495856674,118.02956298586335 -10.656126514735218,115.52956298586257 -11.325999495775612,113.02956298584007 -13.156126514676654,111.19943596687969 -15.656126514677432,110.52956298575823 -18.15612651469993,111.19943596679863 -19.986253533660314,113.02956298569967 -20.65612651478177,115.52956298570045 -19.98625353374138,118.02956298572295 -18.156126514840338,119.85969000468333 -15.65612651483956,120.52956298580479" stroke="#ffa500" stroke-linecap="round" stroke-linejoin="round"/><polyline fill="none" points="-40.59098044625321,58.453587724886624 -38.090980446230716,57.78371474384623 -36.260853427270334,55.953587724945194 -35.590980446148876,53.45358772494441 -36.26085342718927,50.95358772492191 -38.090980446090306,49.12346070596153 -40.59098044609109,48.45358772484007 -43.09098044611359,49.12346070588046 -44.92110746507398,50.9535877247815 -45.59098044619544,53.45358772478228 -44.921107465155046,55.953587724804784 -43.09098044625401,57.783714743765174 -40.590980446253226,58.45358772488663" stroke="#ffa500" stroke-linecap="round" stroke-linejoin="round"/><polyline fill="none" points="100.37976919260048,-91.44324811904056 102.87976919262297,-92.11312110008095 104.70989621158336,-93.94324811898198 105.37976919270481,-96.44324811898277 104.70989621166443,-98.94324811900526 102.87976919276339,-100.77337513796564 100.37976919276261,-101.4432481190871 97.87976919274011,-100.77337513804672 96.04964217377973,-98.94324811914568 95.37976919265827,-96.4432481191449 96.04964217369866,-93.9432481191224 97.8797691925997,-92.11312110016202 100.37976919260048,-91.44324811904056" stroke="#ffa500" stroke-linecap="round" stroke-linejoin="round"/><polyline fill="none" points="-219.4796819136351,-166.38259755394935 -216.97968191361258,-167.05247053498974 -215.1495548946522,-168.88259755389078 -214.47968191353073,-171.38259755389154 -215.1495548945711,-173.88259755391405 -216.97968191347215,-175.71272457287444 -219.47968191347292,-176.3825975539959 -221.97968191349543,-175.71272457295552 -223.8098089324558,-173.88259755405448 -224.47968191357728,-171.38259755405372 -223.8098089325369,-168.8825975540312 -221.97968191363586,-167.05247053507082 -219.4796819136351,-166.38259755394935" stroke="#ffa500" stroke-linecap="round" stroke-linejoin="round"/><polyline fill="none" points="-252.01716760588025,-77.60373807909771 -249.51716760585774,-78.2736110601381 -247.68704058689735,-80.10373807903913 -247.01716760577588,-82.60373807903991 -247.68704058681627,-85.10373807906242 -249.5171676057173,-86.93386509802282 -252.01716760571807,-87.60373807914429 -254.51716760574058,-86.93386509810391 -256.34729462470096,-85.10373807920287 -257.0171676058224,-82.60373807920209 -256.347294624782,-80.10373807917958 -254.51716760588099,-78.27361106021918 -252.01716760588022,-77.60373807909771" stroke="#00f" stroke-linecap="round" stroke-linejoin="round"/><polyline fill="none" points="-391.43885164908494,-67.19013234412505 -388.9388516490624,-67.86000532516543 -387.108724630102,-69.69013234406647 -386.4388516489806,-72.19013234406725 -387.10872463002096,-74.69013234408976 -388.93885164892197,-76.52025936305016 -391.43885164892276,-77.19013234417163 -393.9388516489453,-76.52025936313125 -395.7689786679057,-74.69013234423021 -396.43885164902713,-72.19013234422943 -395.76897866798674,-69.69013234420692 -393.93885164908573,-67.86000532524652 -391.43885164908494,-67.19013234412505" stroke="#00f" stroke-linecap="round" stroke-linejoin="round"/><polyline fill="none" points="172.4979201688422,-82.62285448070779 174.9979201688647,-83.29272746174817 176.82804718782512,-85.12285448064921 177.4979201689466,-87.62285448064999 176.8280471879062,-90.1228544806725 174.99792016900517,-91.9529814996329 172.4979201690044,-92.62285448075437 169.9979201689819,-91.95298149971399 168.16779315002148,-90.12285448081295 167.4979201689,-87.62285448081217 168.1677931499404,-85.12285448078966 169.99792016884143,-83.29272746182926 172.4979201688422,-82.62285448070779" stroke="#ffa500" stroke-linecap="round" stroke-linejoin="round"/><polyline fill="none" points="114.74980054999395,-245.08639782503178 117.24980055001646,-245.75627080607217 119.07992756897686,-247.5863978249732 119.74980055009833,-250.08639782497397 119.07992756905794,-252.58639782499648 117.2498005501569,-254.4165248439569 114.74980055015612,-255.08639782507836 112.24980055013361,-254.41652484403798 110.41967353117322,-252.58639782513694 109.74980055005175,-250.08639782513617 110.41967353109212,-247.58639782511366 112.24980054999315,-245.75627080615325 114.74980054999394,-245.08639782503178" stroke="#ffa500" stroke-linecap="round" stroke-linejoin="round"/><polyline fill="none" points="-417.48455675118834,-85.46622606018342 -414.9845567511658,-86.13609904122379 -413.1544297322054,-87.96622606012482 -412.4845567510839,-90.4662260601256 -413.1544297321243,-92.96622606014812 -414.9845567510253,-94.79635307910851 -417.4845567510261,-95.46622606022999 -419.9845567510486,-94.79635307918961 -421.814683770009,-92.96622606028858 -422.4845567511305,-90.4662260602878 -421.81468377009014,-87.96622606026529 -419.98455675118913,-86.13609904130487 -417.48455675118834,-85.46622606018339" stroke="#00f" stroke-linecap="round" stroke-linejoin="round"/><polyline fill="none" points="-279.6604341358299,39.23042169322176 -277.1604341358074,38.56054871218138 -275.330307116847,36.73042169328035 -274.6604341357255,34.23042169327957 -275.3303071167659,31.730421693257057 -277.1604341356669,29.900294674296653 -279.6604341356677,29.23042169317517 -282.1604341356902,29.900294674215544 -283.9905611546506,31.730421693116575 -284.6604341357721,34.23042169311736 -283.9905611547317,36.73042169313987 -282.1604341358307,38.56054871210027 -279.6604341358299,39.23042169322175" stroke="#00f" stroke-linecap="round" stroke-linejoin="round"/><polyline fill="none" points="75.02218979067709,185.57414491222468 77.5221897906996,184.9042719311843 79.35231680966001,183.07414491228326 80.0221897907815,180.5741449122825 79.35231680974113,178.07414491225998 77.5221897908401,176.24401789329957 75.02218979083932,175.5741449121781 72.52218979081681,176.24401789321848 70.6920627718564,178.07414491211952 70.02218979073491,180.5741449121203 70.69206277177528,183.0741449121428 72.52218979067631,184.9042719311032 75.02218979067709,185.57414491222468" stroke="#ffa500" stroke-linecap="round" stroke-linejoin="round"/><polyline fill="none" points="101.02071362998647,85.3047237949574 103.52071363000898,84.63485081391703 105.3508406489694,82.804723795016 106.02071363009088,80.30472379501522 105.35084064905051,77.80472379499271 103.52071363014949,75.9745967760323 101.0207136301487,75.30472379491081 98.5207136301262,75.97459677595118 96.69058661116578,77.80472379485221 96.0207136300443,80.30472379485299 96.69058661108467,82.8047237948755 98.52071362998569,84.63485081383591 101.02071362998647,85.3047237949574" stroke="#ffa500" stroke-linecap="round" stroke-linejoin="round"/><polyline fill="none" points="111.90121201393862,-165.9845232052133 114.40121201396113,-166.65439618625365 116.23133903292154,-168.4845232051547 116.90121201404303,-170.98452320515545 116.23133903300266,-173.48452320517796 114.40121201410163,-175.31465022413838 111.90121201410085,-175.98452320525988 109.40121201407834,-175.31465022421952 107.57108499511793,-173.48452320531848 106.90121201399644,-170.9845232053177 107.57108499503681,-168.4845232052952 109.40121201393784,-166.6543961863348 111.90121201393862,-165.9845232052133" stroke="#ffa500" stroke-linecap="round" stroke-linejoin="round"/><polyline fill="none" points="-165.9345095124888,-135.7667134018693 -163.4345095124663,-136.43658638290967 -161.60438249350588,-138.2667134018107 -160.93450951238438,-140.76671340181147 -161.60438249342474,-143.26671340183398 -163.43450951232577,-145.0968404207944 -165.93450951232654,-145.7667134019159 -168.43450951234905,-145.09684042087554 -170.26463653130946,-143.2667134019745 -170.93450951243096,-140.76671340197373 -170.2646365313906,-138.26671340195122 -168.43450951248957,-136.4365863829908 -165.9345095124888,-135.7667134018693" stroke="#00f" stroke-linecap="round" stroke-linejoin="round"/><polyline fill="none" points="49.389567429109306,297.8507085072366 51.88956742913182,297.18083552619623 53.71969444809224,295.3507085072952 54.389567429213734,292.8507085072944 53.71969444817337,290.3507085072719 51.88956742927235,288.5205814883115 49.389567429271565,287.85070850719 46.88956742924905,288.5205814882304 45.05944041028863,290.3507085071314 44.38956742916714,292.8507085071322 45.0594404102075,295.3507085071547 46.889567429108524,297.1808355261151 49.389567429109306,297.8507085072366" stroke="#ffa500" stroke-linecap="round" stroke-linejoin="round"/><polyline fill="none" points="-11.14863850629738,-189.76605597233166 -8.64863850627486,-190.435928953372 -6.818511487314442,-192.26605597227302 -6.148638506192945,-194.7660559722738 -6.818511487233304,-197.2660559722963 -8.648638506134326,-199.0961829912567 -11.148638506135104,-199.7660559723782 -13.648638506157623,-199.09618299133786 -15.478765525118042,-197.26605597243685 -16.14863850623954,-194.76605597243608 -15.478765525199181,-192.26605597241357 -13.648638506298159,-190.43592895345316 -11.148638506297381,-189.76605597233166" stroke="#ffa500" stroke-linecap="round" stroke-linejoin="round"/><polyline fill="none" points="-297.64954634076935,-98.45850904622621 -295.14954634074684,-99.12838202726657 -293.3194193217864,-100.95850904616759 -292.6495463406649,-103.45850904616837 -293.3194193217053,-105.9585090461909 -295.1495463406063,-107.78863606515132 -297.6495463406071,-108.45850904627282 -300.1495463406296,-107.78863606523247 -301.97967335959004,-105.95850904633144 -302.64954634071154,-103.45850904633066 -301.9796733596712,-100.95850904630814 -300.1495463407702,-99.12838202734771 -297.6495463407694,-98.45850904622621" stroke="#008000" stroke-linecap="round" stroke-linejoin="round"/><polyline fill="none" points="-17.254425909483892,-28.32641275381536 -14.754425909461371,-28.996285734855718 -12.924298890500948,-30.82641275375674 -12.254425909379446,-33.326412753757516 -12.9242988904198,-35.82641275378004 -14.754425909320819,-37.656539772740466 -17.254425909321597,-38.326412753861966 -19.754425909344118,-37.65653977282161 -21.584552928304543,-35.82641275392059 -22.254425909426047,-33.32641275391981 -21.584552928385694,-30.826412753897287 -19.754425909484674,-28.996285734936862 -17.254425909483896,-28.326412753815358" stroke="#ffa500" stroke-linecap="round" stroke-linejoin="round"/><polyline fill="none" points="-357.9174322124165,-149.5274045928522 -355.417432212394,-150.19727757389256 -353.58730519343356,-152.02740459279357 -352.91743221231206,-154.52740459279434 -353.5873051933524,-157.02740459281685 -355.4174322122534,-158.8575316117773 -357.9174322122542,-159.5274045928988 -360.4174322122767,-158.85753161185843 -362.2475592312371,-157.02740459295742 -362.9174322123586,-154.52740459295666 -362.2475592313183,-152.02740459293415 -360.4174322124173,-150.1972775739737 -357.9174322124165,-149.5274045928522" stroke="#00f" stroke-linecap="round" stroke-linejoin="round"/><polyline fill="none" points="59.89315088393226,-223.00037170738565 62.39315088395478,-223.670244688426 64.22327790291521,-225.50037170732702 64.89315088403671,-228.0003717073278 64.22327790299636,-230.50037170735033 62.39315088409534,-232.33049872631076 59.89315088409456,-233.00037170743227 57.393150884072035,-232.3304987263919 55.5630238651116,-230.5003717074909 54.893150883990096,-228.00037170749013 55.563023865030445,-225.5003717074676 57.39315088393146,-223.67024468850715 59.89315088393224,-223.00037170738565" stroke="#00f" stroke-linecap="round" stroke-linejoin="round"/><polyline fill="none" points="86.94110343318577,-70.86039612799952 89.4411034332083,-71.53026910903986 91.27123045216872,-73.36039612794087 91.94110343329024,-75.86039612794166 91.2712304522499,-78.36039612796418 89.44110343334889,-80.1905231469246 86.9411034333481,-80.86039612804612 84.44110343332558,-80.19052314700578 82.61097641436515,-78.36039612810477 81.94110343324364,-75.86039612810399 82.61097641428398,-73.36039612808146 84.44110343318499,-71.53026910912104 86.94110343318577,-70.86039612799952" stroke="#ffa500" stroke-linecap="round" stroke-linejoin="round"/><polyline fill="none" points="-187.64335531739601,3.8006159878533587 -185.14335531737348,3.130743006813013 -183.31322829841304,1.3006159879119992 -182.64335531729154,-1.1993840120887784 -183.3132282983319,-3.699384012111305 -185.1433553172329,-5.529511031071738 -187.64335531723367,-6.199384012193252 -190.1433553172562,-5.529511031152907 -191.97348233621665,-3.699384012251894 -192.64335531733815,-1.1993840122511163 -191.9734823362978,1.3006159877714114 -190.14335531739678,3.130743006731846 -187.64335531739601,3.800615987853361" stroke="#ffa500" stroke-linecap="round" stroke-linejoin="round"/><polyline fill="none" points="75.99777977114559,-173.39908581020316 78.49777977116811,-174.06895879124352 80.32790679012855,-175.89908581014453 80.99777977125007,-178.3990858101453 80.32790679020972,-180.89908581016783 78.49777977130871,-182.72921282912827 75.99777977130793,-183.3990858102498 73.49777977128541,-182.72921282920947 71.66765275232497,-180.89908581030846 70.99777977120345,-178.3990858103077 71.6676527522438,-175.89908581028516 73.4977797711448,-174.06895879132472 75.99777977114559,-173.3990858102032" stroke="#ffa500" stroke-linecap="round" stroke-linejoin="round"/><polyline fill="none" points="-212.89821646689097,41.12680868615871 -210.39821646686843,40.45693570511837 -208.568089447908,38.62680868621736 -207.89821646678647,36.12680868621658 -208.5680894478268,33.626808686194046 -210.3982164667278,31.796681667233607 -212.89821646672857,31.12680868611209 -215.3982164667511,31.796681667152427 -217.22834348571155,33.62680868605344 -217.89821646683308,36.12680868605422 -217.22834348579275,38.62680868607675 -215.39821646689174,40.45693570503719 -212.89821646689097,41.12680868615871" stroke="#00f" stroke-linecap="round" stroke-linejoin="round"/><polyline fill="none" points="134.80113228385062,-110.31555286703684 137.30113228387316,-110.98542584807718 139.1312593028336,-112.8155528669782 139.80113228395513,-115.31555286697898 139.1312593029148,-117.81555286700151 137.3011322840138,-119.64567988596195 134.80113228401302,-120.31555286708348 132.30113228399048,-119.64567988604314 130.47100526503004,-117.81555286714213 129.80113228390852,-115.31555286714135 130.47100526494884,-112.81555286711881 132.30113228384985,-110.98542584815837 134.80113228385062,-110.31555286703684" stroke="#00f" stroke-linecap="round" stroke-linejoin="round"/><polyline fill="none" points="211.6147614087657,-148.04586613495385 214.11476140878824,-148.71573911599418 215.94488842774868,-150.5458661348952 216.6147614088702,-153.04586613489596 215.94488842782988,-155.5458661349185 214.11476140892887,-157.37599315387894 211.6147614089281,-158.04586613500047 209.11476140890557,-157.37599315396014 207.28463438994513,-155.54586613505913 206.6147614088236,-153.04586613505836 207.28463438986392,-150.54586613503582 209.11476140876493,-148.71573911607538 211.6147614087657,-148.04586613495385" stroke="#00f" stroke-linecap="round" stroke-linejoin="round"/><polyline fill="none" points="69.60150421626773,77.66228495717758 72.10150421629027,76.99241197613725 73.9316312352507,75.16228495723624 74.60150421637223,72.66228495723546 73.9316312353319,70.16228495721292 72.1015042164309,68.33215793825248 69.60150421643011,67.66228495713095 67.10150421640758,68.33215793817128 65.27137719744712,70.16228495707229 64.6015042163256,72.66228495707307 65.27137719736592,75.16228495709561 67.10150421626693,76.99241197605606 69.60150421626771,77.66228495717759" stroke="#ffa500" stroke-linecap="round" stroke-linejoin="round"/><polyline fill="none" points="36.79244926600505,34.32573612309335 39.29244926602759,33.655863142053015 41.122576284988035,31.82573612315201 41.792449266109564,29.32573612315123 41.122576285069236,26.825736123128692 39.29244926616823,24.995609104168242 36.792449266167445,24.32573612304671 34.29244926614491,24.99560910408704 32.46232224718446,26.825736122988047 31.792449266062928,29.32573612298883 32.46232224710326,31.825736123011367 34.29244926600427,33.655863141971814 36.79244926600505,34.32573612309334" stroke="#ffa500" stroke-linecap="round" stroke-linejoin="round"/><polyline fill="none" points="-113.12474484985475,-131.47598829421972 -110.62474484983221,-132.14586127526005 -108.79461783087176,-133.97598829416106 -108.12474484975023,-136.47598829416182 -108.79461783079056,-138.97598829418436 -110.62474484969157,-140.8061153131448 -113.12474484969235,-141.47598829426633 -115.62474484971489,-140.806115313226 -117.45487186867534,-138.975988294325 -118.12474484979687,-136.47598829432422 -117.45487186875654,-133.9759882943017 -115.62474484985553,-132.14586127534125 -113.12474484985475,-131.47598829421972" stroke="#ffa500" stroke-linecap="round" stroke-linejoin="round"/><polyline fill="none" points="-208.052516254394,4.359033683404761 -205.55251625437145,3.6891607023644335 -203.722389235411,1.8590336834634278 -203.05251625428946,-0.6409663165373538 -203.72238923532979,-3.1409663165598953 -205.5525162542308,-4.97109333552035 -208.0525162542316,-5.640966316641887 -210.55251625425413,-4.9710933356015605 -212.3826432732146,-3.1409663167005553 -213.05251625433613,-0.6409663166997737 -212.3826432732958,1.8590336833227683 -210.5525162543948,3.689160702283224 -208.05251625439402,4.359033683404761" stroke="#ffa500" stroke-linecap="round" stroke-linejoin="round"/><polyline fill="none" points="-322.4126073591441,0.6893674821789801 -319.9126073591215,0.01949450113865503 -318.08248034016106,-1.810632517762349 -317.4126073590395,-4.31063251776313 -318.0824803400798,-6.810632517785672 -319.91260735898084,-8.64075953674613 -322.41260735898163,-9.310632517867669 -324.9126073590042,-8.640759536827344 -326.74273437796467,-6.810632517926341 -327.4126073590862,-4.31063251792556 -326.7427343780459,-1.8106325179030174 -324.9126073591449,0.019494501057440328 -322.4126073591441,0.6893674821789806" stroke="#ffa500" stroke-linecap="round" stroke-linejoin="round"/><polyline fill="none" points="-76.20686188420352,-155.56897176296684 -73.70686188418098,-156.23884474400717 -71.87673486522053,-158.06897176290818 -71.20686188409898,-160.56897176290894 -71.87673486513931,-163.06897176293148 -73.70686188404031,-164.89909878189195 -76.20686188404109,-165.56897176301348 -78.70686188406363,-164.89909878197315 -80.53698890302408,-163.06897176307214 -81.20686188414562,-160.56897176307137 -80.53698890310531,-158.06897176304884 -78.70686188420432,-156.23884474408837 -76.20686188420353,-155.5689717629668" stroke="#00f" stroke-linecap="round" stroke-linejoin="round"/><polyline fill="none" points="-386.0019230422693,-49.286353959220214 -383.50192304224674,-49.956226940260535 -381.6717960232863,-51.78635395916154 -381.0019230421647,-54.28635395916232 -381.67179602320505,-56.786353959184865 -383.50192304210606,-58.616480978145326 -386.00192304210685,-59.28635395926687 -388.5019230421294,-58.61648097822655 -390.3320500610899,-56.786353959325545 -391.00192304221144,-54.286353959324764 -390.3320500611711,-51.78635395930222 -388.5019230422701,-49.95622694034176 -386.0019230422693,-49.28635395922021" stroke="#ffa500" stroke-linecap="round" stroke-linejoin="round"/><polyline fill="none" points="-205.58202951172638,95.97034887997535 -203.08202951170384,95.30047589893503 -201.25190249274337,93.47034888003404 -200.5820295116218,90.97034888003326 -201.25190249266214,88.4703488800107 -203.08202951156315,86.64022186105024 -205.58202951156392,85.9703488799287 -208.08202951158646,86.640221860969 -209.91215653054692,88.47034887987 -210.58202951166848,90.97034887987078 -209.91215653062815,93.47034887989334 -208.08202951172714,95.3004758988538 -205.58202951172638,95.97034887997535" stroke="#ffa500" stroke-linecap="round" stroke-linejoin="round"/><polyline fill="none" points="127.6304292337771,204.66837044176285 130.13042923379965,203.99849746072252 131.9605562527601,202.1683704418215 132.63042923388167,199.66837044182074 131.96055625284134,197.1683704417982 130.13042923394033,195.33824342283773 127.63042923393955,194.66837044171618 125.130429233917,195.3382434227565 123.30030221495653,197.16837044165752 122.63042923383497,199.66837044165828 123.30030221487529,202.16837044168082 125.13042923377628,203.9984974606413 127.63042923377706,204.66837044176285" stroke="#ffa500" stroke-linecap="round" stroke-linejoin="round"/><polyline fill="none" points="-329.3203782835004,-92.94263012438597 -326.82037828347785,-93.61250310542628 -324.9902512645174,-95.44263012432728 -324.3203782833958,-97.94263012432806 -324.99025126443615,-100.44263012435061 -326.82037828333716,-102.27275714331108 -329.32037828333796,-102.94263012443264 -331.8203782833605,-102.27275714339233 -333.650505302321,-100.44263012449133 -334.32037828344255,-97.94263012449055 -333.6505053024022,-95.442630124468 -331.8203782835012,-93.61250310550753 -329.3203782835004,-92.94263012438597" stroke="#f00" stroke-linecap="round" stroke-linejoin="round"/><polyline fill="none" points="66.45140671714721,-87.25600153360723 68.95140671716976,-87.92587451464755 70.78153373613023,-89.75600153354854 71.45140671725179,-92.25600153354932 70.78153373621147,-94.75600153357188 68.95140671731048,-96.58612855253234 66.4514067173097,-97.2560015336539 63.95140671728714,-96.58612855261359 62.12127969832667,-94.75600153371259 61.45140671720511,-92.25600153371181 62.12127969824542,-89.75600153368926 63.95140671714641,-87.92587451472879 66.4514067171472,-87.25600153360723" stroke="#ffa500" stroke-linecap="round" stroke-linejoin="round"/><polyline fill="none" points="162.67679814622528,-160.08524171396496 165.17679814624785,-160.75511469500526 167.00692516520832,-162.58524171390624 167.67679814632987,-165.085241713907 167.00692516528957,-167.58524171392958 165.1767981463886,-169.41536873289004 162.6767981463878,-170.0852417140116 160.17679814636523,-169.4153687329713 158.34667112740476,-167.58524171407032 157.6767981462832,-165.08524171406953 158.3466711273235,-162.58524171404696 160.17679814622448,-160.7551146950865 162.67679814622528,-160.08524171396493" stroke="#ffa500" stroke-linecap="round" stroke-linejoin="round"/><polyline fill="none" points="220.22892357000768,-110.0889440929755 222.72892357003025,-110.7588170740158 224.55905058899071,-112.58894409291679 225.22892357011227,-115.08894409291757 224.55905058907197,-117.58894409294012 222.728923570171,-119.4190711119006 220.2289235701702,-120.08894409302216 217.72892357014763,-119.41907111198186 215.89879655118716,-117.58894409308087 215.2289235700656,-115.08894409308009 215.8987965511059,-112.58894409305753 217.72892357000688,-110.75881707409705 220.22892357000768,-110.0889440929755" stroke="#ffa500" stroke-linecap="round" stroke-linejoin="round"/><polyline fill="none" points="-327.11065418890973,-44.39671391741664 -324.61065418888717,-45.06658689845695 -322.7805271699267,-46.89671391735794 -322.11065418880514,-49.396713917358724 -322.78052716984547,-51.89671391738128 -324.6106541887465,-53.72684093634176 -327.1106541887473,-54.39671391746332 -329.61065418876984,-53.726840936423024 -331.4407812077303,-51.896713917522035 -332.11065418885187,-49.396713917521254 -331.44078120781154,-46.896713917498694 -329.61065418891053,-45.06658689853821 -327.11065418890973,-44.39671391741665" stroke="#00f" stroke-linecap="round" stroke-linejoin="round"/><polyline fill="none" points="116.58945208160162,-199.64179358341718 119.08945208162417,-200.31166656445748 120.91957910058466,-202.14179358335846 121.58945208170623,-204.64179358335926 120.91957910066593,-207.14179358338183 119.08945208176493,-208.97192060234232 116.58945208176415,-209.64179358346388 114.0894520817416,-208.97192060242358 112.25932506278112,-207.1417935835226 111.58945208165954,-204.6417935835218 112.25932506269984,-202.14179358349924 114.08945208160084,-200.31166656453874 116.58945208160162,-199.64179358341718" stroke="#ffa500" stroke-linecap="round" stroke-linejoin="round"/><polyline fill="none" points="-19.959433803253397,-96.72208146051122 -17.459433803230837,-97.39195444155152 -15.629306784270353,-99.22208146045251 -14.959433803148784,-101.7220814604533 -15.629306784189081,-104.22208146047585 -17.45943380309007,-106.05220847943633 -19.959433803090853,-106.7220814605579 -22.459433803113413,-106.0522084795176 -24.2895608220739,-104.22208146061661 -24.95943380319547,-101.72208146061583 -24.289560822155174,-99.22208146059326 -22.459433803254186,-97.39195444163278 -19.959433803253404,-96.7220814605112" stroke="#ffa500" stroke-linecap="round" stroke-linejoin="round"/><polyline fill="none" points="106.6321170328064,114.12158999167806 109.13211703282897,113.45171701063776 110.96224405178945,111.62158999173677 111.63211703291103,109.12158999173599 110.96224405187073,106.62158999171342 109.13211703296973,104.79146297275294 106.63211703296895,104.12158999163137 104.13211703294638,104.79146297267167 102.3019900139859,106.62158999157265 101.63211703286433,109.12158999157343 102.30199001390463,111.621589991596 104.13211703280561,113.45171701055648 106.63211703280639,114.12158999167805" stroke="#ffa500" stroke-linecap="round" stroke-linejoin="round"/><polyline fill="none" points="119.2398443700368,243.3507774691121 121.73984437005937,242.6809044880718 123.56997138901987,240.85077746917082 124.23984437014144,238.35077746917003 123.56997138910114,235.85077746914746 121.73984437020016,234.02065045018696 119.23984437019938,233.35077746906538 116.73984437017681,234.02065045010568 114.90971735121632,235.85077746900666 114.23984437009474,238.35077746900745 114.90971735113504,240.85077746903002 116.73984437003602,242.68090448799052 119.2398443700368,243.3507774691121" stroke="#ffa500" stroke-linecap="round" stroke-linejoin="round"/><polyline fill="none" points="-263.3008199847422,-148.2777775927223 -260.8008199847196,-148.9476505737626 -258.97069296575916,-150.77777759266357 -258.3008199846376,-153.27777759266436 -258.97069296567787,-155.77777759268693 -260.8008199845789,-157.60790461164743 -263.3008199845797,-158.277777592769 -265.80081998460224,-157.6079046117287 -267.6309470035627,-155.77777759282773 -268.30081998468427,-153.27777759282694 -267.630947003644,-150.77777759280437 -265.800819984743,-148.94765057384387 -263.3008199847422,-148.2777775927223" stroke="#00f" stroke-linecap="round" stroke-linejoin="round"/><polyline fill="none" points="-270.48249750822123,67.80653474619189 -267.98249750819866,67.1366617651516 -266.1523704892382,65.30653474625062 -265.48249750811664,62.80653474624984 -266.1523704891569,60.30653474622727 -267.9824975080579,58.476407727266775 -270.4824975080587,57.806534746145196 -272.9824975080813,58.47640772718548 -274.81262452704175,60.30653474608646 -275.4824975081633,62.806534746087245 -274.81262452712303,65.30653474610982 -272.982497508222,67.13666176507031 -270.48249750822123,67.8065347461919" stroke="#00f" stroke-linecap="round" stroke-linejoin="round"/><polyline fill="none" points="133.48219701188688,123.68115656021857 135.98219701190945,123.01128357917828 137.81232403086995,121.1811565602773 138.48219701199153,118.68115656027652 137.81232403095123,116.18115656025395 135.98219701205025,114.35102954129346 133.48219701204945,113.68115656017187 130.9821970120269,114.35102954121216 129.1520699930664,116.18115656011314 128.4821970119448,118.68115656011392 129.1520699929851,121.18115656013649 130.9821970118861,123.01128357909698 133.48219701188688,123.68115656021857" stroke="#ffa500" stroke-linecap="round" stroke-linejoin="round"/><polyline fill="none" points="-338.4366630314524,-44.2503204094169 -335.9366630314298,-44.920193390457186 -334.1065360124693,-46.75032040935817 -333.4366630313477,-49.25032040935895 -334.10653601238795,-51.750320409381516 -335.93666303128896,-53.58044742834202 -338.43666303128975,-54.250320409463605 -340.9366630313123,-53.58044742842332 -342.76679005027285,-51.75032040952234 -343.43666303139446,-49.25032040952156 -342.7667900503542,-46.75032040949898 -340.9366630314532,-44.92019339053848 -338.4366630314524,-44.25032040941689" stroke="#ffa500" stroke-linecap="round" stroke-linejoin="round"/><polyline fill="none" points="-222.35047519234226,-140.82284325897004 -219.8504751923197,-141.4927162400103 -218.0203481733592,-143.3228432589113 -217.3504751922376,-145.8228432589121 -218.02034817327788,-148.32284325893465 -219.85047519217886,-150.15297027789515 -222.35047519217966,-150.82284325901674 -224.85047519220223,-150.15297027797646 -226.68060221116272,-148.32284325907548 -227.3504751922843,-145.8228432590747 -226.68060221124404,-143.32284325905212 -224.85047519234305,-141.49271624009162 -222.35047519234226,-140.82284325897004" stroke="#00f" stroke-linecap="round" stroke-linejoin="round"/><polyline fill="none" points="155.81869785914856,-63.70708680561451 158.31869785917112,-64.3769597866548 160.14882487813162,-66.20708680555578 160.8186978592532,-68.70708680555656 160.14882487821293,-71.20708680557912 158.31869785931195,-73.03721382453963 155.81869785931116,-73.70708680566123 153.3186978592886,-73.03721382462095 151.4885708403281,-71.20708680571997 150.8186978592065,-68.70708680571919 151.48857084024678,-66.20708680569662 153.31869785914776,-64.37695978673611 155.81869785914856,-63.707086805614516" stroke="#ffa500" stroke-linecap="round" stroke-linejoin="round"/><polyline fill="none" points="-60.552603625351196,8.893427667984916 -58.05260362532862,8.223554686944638 -56.22247660636811,6.3934276680436595 -55.55260362524652,3.8934276680428748 -56.2224766062868,1.3934276680203008 -58.05260362518778,-0.4366993509402073 -60.55260362518856,-1.1065723320618033 -63.052603625211134,-0.4366993510215269 -64.88273064417164,1.3934276678794513 -65.55260362529324,3.893427667880236 -64.88273064425297,6.393427667902811 -63.052603625352,8.22355468686332 -60.55260362535122,8.893427667984918" stroke="#00f" stroke-linecap="round" stroke-linejoin="round"/><polyline fill="none" points="27.328897151929404,147.85936948878492 29.828897151951978,147.18949650774465 31.659024170912488,145.35936948884367 32.32889715203409,142.85936948884287 31.659024170993813,140.3593694888203 29.828897152092836,138.52924246985978 27.32889715209205,137.8593694887382 24.828897152069473,138.52924246977847 22.998770133108962,140.35936948867945 22.328897151987363,142.85936948868024 22.998770133027634,145.3593694887028 24.82889715192861,147.18949650766334 27.328897151929397,147.85936948878495" stroke="#ffa500" stroke-linecap="round" stroke-linejoin="round"/><polyline fill="none" points="-334.8232554738703,-175.56593050892397 -332.3232554738477,-176.23580348996424 -330.4931284548872,-178.06593050886522 -329.8232554737656,-180.56593050886602 -330.49312845480586,-183.06593050888858 -332.3232554737068,-184.8960575278491 -334.8232554737076,-185.56593050897072 -337.32325547373017,-184.89605752793045 -339.1533824926907,-183.06593050902947 -339.8232554738123,-180.56593050902868 -339.15338249277204,-178.0659305090061 -337.3232554738711,-176.23580349004558 -334.8232554738703,-175.56593050892397" stroke="#ffa500" stroke-linecap="round" stroke-linejoin="round"/><polyline fill="none" points="-152.21071742232502,-126.13083954263655 -149.71071742230245,-126.80071252367682 -147.88059040334193,-128.6308395425778 -147.2107174222203,-131.1308395425786 -147.88059040326058,-133.63083954260117 -149.71071742216157,-135.4609665615617 -152.21071742216236,-136.1308395426833 -154.71071742218493,-135.46096656164303 -156.54084444114545,-133.63083954274205 -157.21071742226707,-131.13083954274126 -156.5408444412268,-128.6308395427187 -154.7107174223258,-126.80071252375818 -152.21071742232502,-126.13083954263658" stroke="#ffa500" stroke-linecap="round" stroke-linejoin="round"/><polyline fill="none" points="-257.58402375271714,28.655278784860908 -255.08402375269458,27.98540580382064 -253.25389673373405,26.155278784919666 -252.58402375261244,23.65527878491888 -253.2538967336527,21.1552787848963 -255.0840237525537,19.325151765935782 -257.58402375255446,18.655278784814175 -260.084023752577,19.325151765854443 -261.91415077153755,21.155278784755417 -262.58402375265916,23.655278784756202 -261.9141507716189,26.155278784778783 -260.08402375271794,27.9854058037393 -257.58402375271714,28.655278784860908" stroke="#ffa500" stroke-linecap="round" stroke-linejoin="round"/><polyline fill="none" points="20.375371424607803,104.14811774912575 22.875371424630384,103.47824476808547 24.705498443590905,101.64811774918451 25.375371424712515,99.14811774918373 24.70549844367225,96.64811774916114 22.87537142477128,94.81799073020062 20.375371424770496,94.148117749079 17.875371424747915,94.81799073011928 16.045244405787393,96.64811774902024 15.375371424665783,99.14811774902103 16.045244405706047,101.6481177490436 17.875371424607017,103.47824476800413 20.375371424607803,104.14811774912575" stroke="#00f" stroke-linecap="round" stroke-linejoin="round"/><polyline fill="none" points="38.70532804671523,226.6333469978636 41.20532804673781,225.96347401682334 43.035455065698336,224.13334699792236 43.70532804681995,221.63334699792156 43.035455065779686,219.13334699789897 41.20532804687872,217.30321997893844 38.70532804687794,216.63334699781683 36.20532804685536,217.3032199788571 34.37520102789483,219.13334699775808 33.70532804677322,221.63334699775888 34.37520102781348,224.13334699778147 36.20532804671445,225.963474016742 38.70532804671523,226.6333469978636" stroke="#ffa500" stroke-linecap="round" stroke-linejoin="round"/><polyline fill="none" points="-163.05585450250038,-48.74135395002176 -160.55585450247779,-49.41122693106202 -158.72572748351726,-51.241353949962985 -158.05585450239565,-53.74135394996377 -158.72572748343592,-56.24135394998635 -160.5558545023369,-58.07148096894687 -163.0558545023377,-58.741353950068486 -165.5558545023603,-58.07148096902823 -167.38598152132082,-56.24135395012726 -168.05585450244243,-53.74135395012648 -167.38598152140216,-51.24135395010389 -165.55585450250118,-49.41122693114337 -163.05585450250038,-48.741353950021754" stroke="#00f" stroke-linecap="round" stroke-linejoin="round"/><polyline fill="none" points="-144.75526067702302,77.35226902881742 -142.25526067700042,76.68239604777716 -140.4251336580399,74.8522690288762 -139.75526067691828,72.35226902887541 -140.42513365795855,69.85226902885283 -142.2552606768595,68.0221420098923 -144.7552606768603,67.35226902877069 -147.2552606768829,68.02214200981095 -149.08538769584342,69.85226902871192 -149.75526067696504,72.3522690287127 -149.0853876959248,74.85226902873528 -147.25526067702384,76.6823960476958 -144.75526067702305,77.35226902881742" stroke="#ffa500" stroke-linecap="round" stroke-linejoin="round"/><polyline fill="none" points="-38.12764636292472,-3.5539590980747704 -35.627646362902134,-4.2238320791150255 -33.7975193439416,-6.053959098015991 -33.12764636281998,-8.553959098016776 -33.79751934386024,-11.053959098039362 -35.627646362761205,-12.884086116999892 -38.127646362761986,-13.553959098121513 -40.627646362784574,-12.88408611708126 -42.457773381745106,-11.053959098180295 -43.12764636286673,-8.55395909817951 -42.45777338182647,-6.053959098156922 -40.6276463629255,-4.22383207919639 -38.12764636292472,-3.5539590980747664" stroke="#ffa500" stroke-linecap="round" stroke-linejoin="round"/><polyline fill="none" points="-270.99215883479746,-109.5794976854955 -268.4921588347749,-110.24937066653575 -266.6620318158144,-112.07949768543672 -265.99215883469276,-114.5794976854375 -266.66203181573303,-117.0794976854601 -268.492158834634,-118.90962470442064 -270.9921588346348,-119.57949768554226 -273.49215883465735,-118.90962470450201 -275.32228585361787,-117.07949768560104 -275.9921588347395,-114.57949768560026 -275.3222858536992,-112.07949768557766 -273.49215883479826,-110.24937066661712 -270.99215883479746,-109.5794976854955" stroke="#008000" stroke-linecap="round" stroke-linejoin="round"/><polyline fill="none" points="-271.7538541695824,-144.48760610947625 -269.2538541695598,-145.1574790905165 -267.4237271505993,-146.98760610941744 -266.7538541694777,-149.48760610941824 -267.42372715051795,-151.98760610944083 -269.2538541694189,-153.81773312840136 -271.7538541694197,-154.48760610952297 -274.25385416944226,-153.81773312848273 -276.0839811884028,-151.98760610958178 -276.7538541695244,-149.48760610958098 -276.08398118848413,-146.98760610955839 -274.2538541695832,-145.15747909059786 -271.7538541695824,-144.48760610947625" stroke="#00f" stroke-linecap="round" stroke-linejoin="round"/><polyline fill="none" points="89.04715774338845,265.7940309949566 91.54715774341105,265.1241580139163 93.37728476237159,263.29403099501536 94.04715774349322,260.79403099501457 93.37728476245297,258.294030994992 91.547157743552,256.4639039760315 89.04715774355122,255.79403099490983 86.54715774352863,256.4639039759501 84.71703072456809,258.294030994851 84.04715774344646,260.7940309948518 84.7170307244867,263.2940309948744 86.54715774338767,265.1241580138349 89.04715774338845,265.79403099495653" stroke="#00f" stroke-linecap="round" stroke-linejoin="round"/><polyline fill="none" points="-248.55490947134226,-35.99220649304296 -246.05490947131966,-36.66207947408321 -244.2247824523591,-38.49220649298417 -243.55490947123747,-40.992206492984955 -244.2247824522777,-43.49220649300755 -246.05490947117866,-45.32233351196809 -248.55490947117946,-45.992206493089725 -251.05490947120205,-45.32233351204948 -252.8850364901626,-43.49220649314852 -253.55490947128425,-40.992206493147734 -252.885036490244,-38.49220649312514 -251.05490947134305,-36.6620794741646 -248.55490947134226,-35.992206493042964" stroke="#00f" stroke-linecap="round" stroke-linejoin="round"/><polyline fill="none" points="129.46728624407663,167.59482921861843 131.96728624409923,166.9249562375782 133.79741326305978,165.09482921867723 134.46728624418142,162.59482921867644 133.79741326314118,160.09482921865384 131.96728624424023,158.2647021996933 129.46728624423943,157.59482921857165 126.96728624421684,158.2647021996119 125.1371592252563,160.09482921851284 124.46728624413467,162.59482921851364 125.13715922517491,165.09482921853623 126.96728624407588,166.9249562374968 129.46728624407666,167.59482921861843" stroke="#ffa500" stroke-linecap="round" stroke-linejoin="round"/><polyline fill="none" points="-226.35305534981327,-75.31094808924806 -223.85305534979068,-75.9808210702883 -222.02292833083013,-77.81094808918927 -221.35305534970848,-80.31094808919005 -222.02292833074873,-82.81094808921264 -223.85305534964968,-84.64107510817318 -226.35305534965048,-85.31094808929483 -228.85305534967307,-84.64107510825458 -230.68318236863362,-82.81094808935363 -231.35305534975527,-80.31094808935285 -230.68318236871502,-77.81094808933025 -228.85305534981407,-75.98082107036971 -226.35305534981327,-75.31094808924807" stroke="#ffa500" stroke-linecap="round" stroke-linejoin="round"/><polyline fill="none" points="106.35861543337678,-98.79379834627504 108.85861543339938,-99.46367132731528 110.68874245235993,-101.29379834621624 111.35861543348157,-103.79379834621702 110.68874245244133,-106.29379834623961 108.85861543354038,-108.12392536520017 106.3586154335396,-108.79379834632181 103.858615433517,-108.12392536528156 102.02848841455645,-106.29379834638061 101.3586154334348,-103.79379834637983 102.02848841447505,-101.29379834635724 103.858615433376,-99.46367132739668 106.35861543337678,-98.79379834627504" stroke="#ffa500" stroke-linecap="round" stroke-linejoin="round"/><polyline fill="none" points="-228.12283606075076,113.27213085950157 -225.62283606072816,112.60225787846133 -223.7927090417676,110.77213085956038 -223.12283606064597,108.2721308595596 -223.7927090416862,105.772130859537 -225.62283606058716,103.94200384057645 -228.12283606058796,103.2721308594548 -230.62283606061055,103.94200384049505 -232.4529630795711,105.772130859396 -233.12283606069275,108.27213085939678 -232.4529630796525,110.77213085941938 -230.62283606075155,112.60225787837993 -228.12283606075076,113.27213085950157" stroke="#ffa500" stroke-linecap="round" stroke-linejoin="round"/><polyline fill="none" points="41.07906278998639,-72.16700741902079 43.57906279000899,-72.83688040006103 45.40918980896954,-74.66700741896199 46.079062790091186,-77.16700741896277 45.40918980905095,-79.66700741898536 43.57906279015,-81.49713443794592 41.07906279014921,-82.16700741906756 38.579062790126606,-81.49713443802733 36.74893577116605,-79.66700741912638 36.07906279004441,-77.1670074191256 36.748935771084646,-74.667007419103 38.5790627899856,-72.83688040014245 41.07906278998639,-72.1670074190208" stroke="#ffa500" stroke-linecap="round" stroke-linejoin="round"/><polyline fill="none" points="-338.7109400920924,-93.76632122271 -336.2109400920698,-94.43619420375023 -334.38081307310927,-96.26632122265119 -333.7109400919876,-98.76632122265197 -334.3808130730278,-101.26632122267456 -336.21094009192876,-103.09644824163512 -338.71094009192956,-103.76632122275676 -341.2109400919522,-103.09644824171653 -343.04106711091276,-101.26632122281558 -343.71094009203443,-98.7663212228148 -343.0410671109942,-96.2663212227922 -341.21094009209327,-94.43619420383165 -338.71094009209247,-93.76632122271" stroke="#008000" stroke-linecap="round" stroke-linejoin="round"/><polyline fill="none" points="-180.32569898738163,52.126787408492824 -177.82569898735903,51.456914427452595 -175.99557196839848,49.62678740855164 -175.32569898727684,47.126787408550854 -175.99557196831708,44.62678740852825 -177.82569898721803,42.7966603895677 -180.32569898721883,42.12678740844605 -182.82569898724142,42.79666038948628 -184.65582600620198,44.62678740838723 -185.32569898732362,47.12678740838802 -184.65582600628338,49.62678740841062 -182.82569898738242,51.45691442737118 -180.32569898738163,52.12678740849283" stroke="#00f" stroke-linecap="round" stroke-linejoin="round"/><polyline fill="none" points="-135.52195602979168,-37.8366398800425 -133.0219560297691,-38.506512861082726 -131.19182901080853,-40.33663987998368 -130.5219560296869,-42.83663987998447 -131.19182901072713,-45.33663988000707 -133.0219560296281,-47.16676689896763 -135.52195602962888,-47.83663988008928 -138.02195602965148,-47.16676689904905 -139.85208304861203,-45.3366398801481 -140.52195602973367,-42.83663988014731 -139.85208304869346,-40.33663988012471 -138.0219560297925,-38.50651286116415 -135.5219560297917,-37.83663988004249" stroke="#ffa500" stroke-linecap="round" stroke-linejoin="round"/><polyline fill="none" points="81.62709829214546,148.42888761197963 84.12709829216807,147.75901463093942 85.95722531112864,145.92888761203847 86.6270982922503,143.42888761203767 85.95722531121007,140.92888761201507 84.12709829230911,139.09876059305452 81.62709829230833,138.42888761193288 79.12709829228572,139.0987605929731 77.29697127332516,140.92888761187405 76.6270982922035,143.42888761187484 77.29697127324373,145.92888761189744 79.12709829214468,147.759014630858 81.62709829214546,148.42888761197966" stroke="#00f" stroke-linecap="round" stroke-linejoin="round"/><polyline fill="none" points="-436.39925579047247,-69.76228501025949 -433.89925579044984,-70.43215799129972 -432.06912877148926,-72.26228501020067 -431.3992557903676,-74.76228501020145 -432.0691287714078,-77.26228501022406 -433.89925579030876,-79.09241202918463 -436.39925579030955,-79.76228501030629 -438.8992557903322,-79.09241202926606 -440.72938280929276,-77.2622850103651 -441.39925579041443,-74.76228501036432 -440.7293828093742,-72.26228501034171 -438.89925579047326,-70.43215799138115 -436.39925579047247,-69.76228501025949" stroke="#ffa500" stroke-linecap="round" stroke-linejoin="round"/><polyline fill="none" points="-219.76126224934876,87.32101041660235 -217.26126224932617,86.65113743556212 -215.4311352303656,84.82101041666117 -214.76126224924394,82.32101041666039 -215.43113523028416,79.82101041663778 -217.2612622491851,77.99088339767721 -219.7612622491859,77.32101041655555 -222.2612622492085,77.99088339759577 -224.09138926816905,79.82101041649672 -224.76126224929072,82.3210104164975 -224.0913892682505,84.82101041652011 -222.26126224934956,86.65113743548068 -219.76126224934876,87.32101041660233" stroke="#ffa500" stroke-linecap="round" stroke-linejoin="round"/><polyline fill="none" points="-288.8152032896645,58.76236090662425 -286.3152032896419,58.09248792558403 -284.4850762706813,56.262360906683085 -283.81520328955963,53.7623609066823 -284.48507627059985,51.26236090665969 -286.3152032895008,49.43223388769912 -288.8152032895016,48.762360906577456 -291.3152032895242,49.43223388761768 -293.1453303084848,51.26236090651862 -293.8152032896065,53.76236090651941 -293.14533030856626,56.26236090654202 -291.3152032896653,58.09248792550259 -288.8152032896645,58.76236090662425" stroke="#ffa500" stroke-linecap="round" stroke-linejoin="round"/><polyline fill="none" points="-251.1028812973497,-106.68586026349884 -248.6028812973271,-107.35573324453905 -246.7727542783665,-109.18586026343999 -246.10288129724483,-111.68586026344077 -246.77275427828505,-114.18586026346338 -248.602881297186,-116.01598728242395 -251.1028812971868,-116.68586026354562 -253.60288129720942,-116.0159872825054 -255.43300831617,-114.18586026360447 -256.1028812972917,-111.68586026360369 -255.43300831625146,-109.18586026358108 -253.6028812973505,-107.35573324462051 -251.1028812973497,-106.68586026349884" stroke="#008000" stroke-linecap="round" stroke-linejoin="round"/><polyline fill="none" points="-381.2642307171557,-133.0713759107905 -378.7642307171331,-133.7412488918307 -376.9341036981725,-135.57137591073166 -376.26423071705085,-138.07137591073246 -376.93410369809106,-140.57137591075508 -378.764230716992,-142.40150292971566 -381.2642307169928,-143.07137591083733 -383.76423071701544,-142.40150292979712 -385.594357735976,-140.57137591089617 -386.2642307170977,-138.07137591089537 -385.5943577360575,-135.57137591087275 -383.7642307171565,-133.74124889191216 -381.2642307171557,-133.0713759107905" stroke="#ffa500" stroke-linecap="round" stroke-linejoin="round"/><polyline fill="none" points="-291.4376604183738,-138.44938813507457 -288.9376604183512,-139.11926111611479 -287.1075333993906,-140.94938813501574 -286.43766041826893,-143.44938813501653 -287.10753339930915,-145.94938813503916 -288.9376604182101,-147.77951515399974 -291.4376604182109,-148.4493881351214 -293.9376604182335,-147.7795151540812 -295.7677874371941,-145.94938813518024 -296.4376604183158,-143.44938813517945 -295.76778743727556,-140.94938813515682 -293.9376604183746,-139.11926111619624 -291.4376604183738,-138.44938813507457" stroke="#00f" stroke-linecap="round" stroke-linejoin="round"/><polyline fill="none" points="-10.89656303522485,-163.6460916004272 -8.396563035202234,-164.31596458146743 -6.566436016241658,-166.14609160036838 -5.896563035119984,-168.64609160036918 -6.566436016160194,-171.1460916003918 -8.396563035061135,-172.97621861935238 -10.896563035061922,-173.64609160047405 -13.396563035084537,-172.97621861943384 -15.226690054045115,-171.14609160053288 -15.89656303516679,-168.6460916005321 -15.226690054126582,-166.14609160050946 -13.396563035225642,-164.31596458154888 -10.896563035224855,-163.6460916004272" stroke="#00f" stroke-linecap="round" stroke-linejoin="round"/><polyline fill="none" points="-373.0340270207774,-72.96174548710023 -370.53402702075476,-73.63161846814045 -368.7039000017942,-75.46174548704138 -368.0340270206725,-77.96174548704217 -368.7039000017127,-80.46174548706477 -370.5340270206137,-82.29187250602536 -373.0340270206145,-82.96174548714703 -375.5340270206371,-82.29187250610683 -377.3641540395977,-80.46174548720589 -378.03402702071935,-77.9617454872051 -377.36415403967914,-75.46174548718248 -375.5340270207782,-73.6316184682219 -373.0340270207774,-72.96174548710022" stroke="#00f" stroke-linecap="round" stroke-linejoin="round"/><polyline fill="none" points="47.052827660162826,113.13458697633672 49.55282766018544,112.46471399529652 51.382954679146025,110.63458697639558 52.0528276602677,108.1345869763948 51.382954679227495,105.63458697637218 49.55282766032656,103.8044599574116 47.05282766032577,103.13458697628991 44.55282766030315,103.80445995733011 42.72270064134257,105.63458697623105 42.05282766022089,108.13458697623183 42.7227006412611,110.63458697625445 44.55282766016204,112.46471399521504 47.052827660162826,113.13458697633672" stroke="#ffa500" stroke-linecap="round" stroke-linejoin="round"/><polyline fill="none" points="-306.52357058881546,-25.181358904657827 -304.02357058879284,-25.85123188569803 -302.19344356983225,-27.681358904598966 -301.5235705887106,-30.18135890459975 -302.1934435697508,-32.68135890462237 -304.02357058865175,-34.51148592358295 -306.52357058865255,-35.18135890470464 -309.02357058867517,-34.51148592366444 -310.85369760763575,-32.6813589047635 -311.5235705887574,-30.181358904762714 -310.8536976077172,-27.681358904740094 -309.02357058881626,-25.85123188577951 -306.52357058881546,-25.181358904657824" stroke="#008000" stroke-linecap="round" stroke-linejoin="round"/><polyline fill="none" points="-9.344421530286944,28.84063358494276 -6.844421530264324,28.17076060390256 -5.014294511303738,26.340633585001626 -4.344421530182053,23.84063358500084 -5.014294511222253,21.34063358497822 -6.844421530123188,19.510506566017632 -9.344421530123974,18.840633584895947 -11.844421530146594,19.510506565936147 -13.67454854910718,21.340633584837082 -14.344421530228868,23.840633584837867 -13.67454854918867,26.340633584860488 -11.844421530287734,28.170760603821076 -9.344421530286947,28.840633584942765" stroke="#ffa500" stroke-linecap="round" stroke-linejoin="round"/><polyline fill="none" points="53.437995165491294,-245.45239292113257 55.93799516551392,-246.12226590217276 57.76812218447451,-247.95239292107368 58.43799516559619,-250.45239292107448 57.76812218455599,-252.9523929210971 55.93799516565506,-254.78251994005768 53.43799516565427,-255.45239292117938 50.93799516563165,-254.7825199401392 49.10786814667106,-252.95239292123827 48.43799516554937,-250.45239292123748 49.10786814658957,-247.95239292121485 50.9379951654905,-246.12226590225427 53.43799516549129,-245.45239292113257" stroke="#ffa500" stroke-linecap="round" stroke-linejoin="round"/><polyline fill="none" points="42.36400640186923,276.56960761126743 44.86400640189186,275.8997346302272 46.694133420852445,274.06960761132626 47.36400640197414,271.56960761132547 46.694133420933944,269.06960761130284 44.86400640203301,267.23948059234226 42.364006402032224,266.5696076112206 39.8640064020096,267.2394805922608 38.03387938304901,269.06960761116176 37.36400640192732,271.56960761116255 38.03387938296751,274.0696076111852 39.864006401868444,275.89973463014576 42.36400640186923,276.56960761126743" stroke="#ffa500" stroke-linecap="round" stroke-linejoin="round"/><polyline fill="none" points="227.36132170760862,-151.36437895214857 229.86132170763125,-152.03425193318876 231.69144872659183,-153.86437895208968 232.36132170771353,-156.36437895209048 231.69144872667334,-158.8643789521131 229.86132170777242,-160.69450597107368 227.36132170777162,-161.36437895219538 224.861321707749,-160.6945059711552 223.03119468878842,-158.86437895225427 222.36132170766672,-156.36437895225347 223.0311946887069,-153.86437895223085 224.86132170760783,-152.03425193327027 227.36132170760862,-151.36437895214857" stroke="#ffa500" stroke-linecap="round" stroke-linejoin="round"/><polyline fill="none" points="15.47877818112534,-172.93466141506752 17.978778181147966,-173.6045343961077 19.808905200108562,-175.43466141500863 20.478778181230258,-177.93466141500943 19.80890520019007,-180.43466141503205 17.978778181289137,-182.26478843399266 15.47877818128835,-182.93466141511436 12.978778181265723,-182.26478843407418 11.148651162305125,-180.43466141517325 10.478778181183428,-177.93466141517246 11.148651162223617,-175.43466141514983 12.978778181124547,-173.60453439618922 15.478778181125334,-172.93466141506752" stroke="#ffa500" stroke-linecap="round" stroke-linejoin="round"/><polyline fill="none" points="-12.91492818311165,-124.29607785189805 -10.414928183089023,-124.96595083293823 -8.584801164128425,-126.79607785183916 -7.914928183006726,-129.29607785183995 -8.584801164046914,-131.79607785186258 -10.414928182947842,-133.6262048708232 -12.914928182948628,-134.2960778519449 -15.414928182971256,-133.6262048709047 -17.245055201931855,-131.79607785200378 -17.914928183053554,-129.29607785200298 -17.24505520201337,-126.79607785198036 -15.41492818311244,-124.96595083301976 -12.914928183111654,-124.29607785189806" stroke="#00f" stroke-linecap="round" stroke-linejoin="round"/><polyline fill="none" points="178.07747511559725,-139.82112200337463 180.57747511561988,-140.4909949844148 182.4076021345805,-142.32112200331574 183.07747511570219,-144.82112200331653 182.407602134662,-147.32112200333916 180.57747511576108,-149.15124902229977 178.07747511576028,-149.82112200342146 175.57747511573766,-149.15124902238128 173.74734809677705,-147.32112200348035 173.07747511565535,-144.82112200347956 173.74734809669553,-142.32112200345694 175.57747511559646,-140.49099498449633 178.07747511559725,-139.82112200337463" stroke="#00f" stroke-linecap="round" stroke-linejoin="round"/><polyline fill="none" points="-413.8719974781331,-63.37736019986953 -411.3719974781105,-64.04723318090971 -409.5418704591499,-65.87736019981064 -408.87199747802816,-68.37736019981142 -409.5418704590683,-70.87736019983404 -411.3719974779693,-72.70748721879465 -413.87199747797007,-73.37736019991635 -416.3719974779927,-72.70748721887617 -418.2021244969533,-70.87736019997524 -418.871997478075,-68.37736019997446 -418.20212449703484,-65.87736019995182 -416.3719974781339,-64.04723318099121 -413.8719974781331,-63.37736019986951" stroke="#00f" stroke-linecap="round" stroke-linejoin="round"/><polyline fill="none" points="99.60119746956863,-128.20955208811662 102.10119746959127,-128.8794250691568 103.93132448855188,-130.70955208805773 104.6011974696736,-133.20955208805853 103.93132448863341,-135.70955208808115 102.10119746973248,-137.53967910704176 99.6011974697317,-138.20955208816346 97.10119746970906,-137.53967910712328 95.27107045074845,-135.70955208822235 94.60119746962674,-133.20955208822156 95.27107045066693,-130.70955208819893 97.10119746956785,-128.87942506923832 99.60119746956863,-128.20955208811662" stroke="#00f" stroke-linecap="round" stroke-linejoin="round"/><polyline fill="none" points="-357.61893956159054,-148.00308552601163 -355.1189395615679,-148.67295850705182 -353.28881254260733,-150.50308552595274 -352.6189395614856,-153.00308552595354 -353.28881254252576,-155.50308552597616 -355.11893956142666,-157.33321254493677 -357.61893956142745,-158.00308552605847 -360.1189395614501,-157.33321254501828 -361.94906658041066,-155.50308552611736 -362.6189395615324,-153.00308552611656 -361.94906658049223,-150.50308552609394 -360.11893956159133,-148.67295850713333 -357.61893956159054,-148.00308552601163" stroke="#ffa500" stroke-linecap="round" stroke-linejoin="round"/><polyline fill="none" points="-294.6205177217609,119.48144988486982 -292.1205177217383,118.81157690382965 -290.2903907027777,116.98144988492872 -289.620517721656,114.48144988492794 -290.29039070269613,111.9814498849053 -292.120517721597,110.15132286594469 -294.6205177215978,109.48144988482298 -297.12051772162044,110.15132286586315 -298.9506447405811,111.98144988476407 -299.6205177217028,114.48144988476486 -298.95064474066265,116.9814498847875 -297.12051772176176,118.8115769037481 -294.62051772176096,119.48144988486982" stroke="#ffa500" stroke-linecap="round" stroke-linejoin="round"/><polyline fill="none" points="-266.21531085457815,-19.30067068141944 -263.7153108545555,-19.970543662459615 -261.8851838355949,-21.800670681360536 -261.21531085447316,-24.300670681361325 -261.8851838355133,-26.80067068138396 -263.7153108544142,-28.630797700344573 -266.215310854415,-29.30067068146629 -268.71531085443763,-28.630797700426115 -270.54543787339827,-26.800670681525194 -271.21531085452,-24.30067068152441 -270.54543787347984,-21.80067068150177 -268.71531085457895,-19.970543662541157 -266.21531085457815,-19.30067068141944" stroke="#00f" stroke-linecap="round" stroke-linejoin="round"/><polyline fill="none" points="-319.0500262513799,-68.50044311526733 -316.5500262513573,-69.1703160963075 -314.71989923239664,-71.00044311520843 -314.0500262512749,-73.50044311520921 -314.7198992323151,-76.00044311523185 -316.55002625121597,-77.83057013419246 -319.05002625121676,-78.50044311531417 -321.5500262512394,-77.830570134274 -323.3801532702,-76.00044311537307 -324.05002625132175,-73.50044311537229 -323.3801532702816,-71.00044311534965 -321.5500262513807,-69.17031609638904 -319.0500262513799,-68.50044311526733" stroke="#008000" stroke-linecap="round" stroke-linejoin="round"/><polyline fill="none" points="161.09854136498274,-107.850323148436 163.5985413650054,-108.52019612947618 165.428668383966,-110.3503231483771 166.09854136508773,-112.85032314837788 165.42866838404757,-115.35032314840052 163.59854136514664,-117.18045016736114 161.09854136514585,-117.85032314848287 158.5985413651232,-117.1804501674427 156.7684143461626,-115.35032314854179 156.09854136504086,-112.85032314854101 156.76841434608102,-110.35032314851837 158.59854136498194,-108.52019612955775 161.09854136498274,-107.85032314843602" stroke="#ffa500" stroke-linecap="round" stroke-linejoin="round"/><polyline fill="none" points="78.79765027869375,-213.9009533625795 81.29765027871639,-214.57082634361964 83.12777729767701,-216.40095336252057 83.79765027879874,-218.90095336252136 83.12777729775857,-221.40095336254402 81.29765027885766,-223.23108038150463 78.79765027885688,-223.90095336262635 76.29765027883424,-223.2310803815862 74.46752325987362,-221.40095336268527 73.79765027875189,-218.90095336268448 74.46752325979206,-216.40095336266182 76.29765027869297,-214.5708263437012 78.79765027869375,-213.9009533625795" stroke="#ffa500" stroke-linecap="round" stroke-linejoin="round"/><polyline fill="none" points="-329.7375073578334,-129.09829741219664 -327.2375073578108,-129.7681703932368 -325.40738033885015,-131.59829741213773 -324.7375073577284,-134.09829741213852 -325.4073803387686,-136.59829741216117 -327.2375073576695,-138.42842443112178 -329.73750735767027,-139.0982974122435 -332.2375073576929,-138.42842443120335 -334.06763437665353,-136.59829741230243 -334.73750735777526,-134.09829741230163 -334.0676343767351,-131.59829741227898 -332.2375073578342,-129.76817039331837 -329.7375073578334,-129.09829741219664" stroke="#00f" stroke-linecap="round" stroke-linejoin="round"/><polyline fill="none" points="57.45503531574547,-155.89636735046648 59.955035315768114,-156.56624033150663 61.78516233472874,-158.39636735040756 62.455035315850466,-160.89636735040835 61.7851623348103,-163.396367350431 59.95503531590939,-165.22649436939165 57.4550353159086,-165.89636735051337 54.95503531588596,-165.22649436947322 53.124908296925334,-163.3963673505723 52.455035315803606,-160.8963673505715 53.12490829684377,-158.39636735054884 54.95503531574468,-156.5662403315882 57.45503531574547,-155.89636735046648" stroke="#00f" stroke-linecap="round" stroke-linejoin="round"/><polyline fill="none" points="40.923790382364096,-112.83465760126343 43.42379038238674,-113.50453058230359 45.253917401347366,-115.3346576012045 45.9237903824691,-117.83465760120528 45.25391740142894,-120.33465760122792 43.42379038252803,-122.16478462018854 40.923790382527244,-122.83465760131027 38.4237903825046,-122.16478462027011 36.59366336354397,-120.3346576013692 35.92379038242223,-117.83465760136842 36.59366336346239,-115.33465760134577 38.4237903823633,-113.50453058238514 40.92379038236409,-112.83465760126342" stroke="#ffa500" stroke-linecap="round" stroke-linejoin="round"/><polyline fill="none" points="-264.54880838874647,92.97514850794802 -262.04880838872384,92.30527552690786 -260.2186813697632,90.47514850800695 -259.5488083886415,87.97514850800617 -260.21868136968163,85.47514850798352 -262.04880838858253,83.6450214890229 -264.5488083885833,82.97514850790115 -267.04880838860595,83.64502148894131 -268.8789354075666,85.47514850784222 -269.5488083886883,87.975148507843 -268.87893540764816,90.47514850786565 -267.04880838874726,92.30527552682629 -264.54880838874647,92.97514850794803" stroke="#ffa500" stroke-linecap="round" stroke-linejoin="round"/><polyline fill="none" points="-339.7295508385882,-92.92989936504709 -337.22955083856556,-93.59977234608725 -335.3994238196049,-95.42989936498816 -334.7295508384832,-97.92989936498894 -335.39942381952335,-100.4298993650116 -337.22955083842425,-102.26002638397223 -339.72955083842504,-102.92989936509397 -342.22955083844766,-102.26002638405382 -344.0596778574083,-100.4298993651529 -344.72955083853003,-97.92989936515212 -344.0596778574899,-95.42989936512947 -342.229550838589,-93.59977234616883 -339.7295508385882,-92.92989936504709" stroke="#008000" stroke-linecap="round" stroke-linejoin="round"/><polyline fill="none" points="-223.7308175185573,-55.399016729241126 -221.23081751853465,-56.068889710281276 -219.400690499574,-57.899016729182186 -218.73081751845228,-60.399016729182975 -219.40069049949244,-62.89901672920563 -221.23081751839334,-64.72914374816627 -223.73081751839413,-65.39901672928801 -226.23081751841679,-64.72914374824785 -228.06094453737742,-62.89901672934694 -228.73081751849918,-60.39901672934615 -228.06094453745902,-57.8990167293235 -226.23081751855813,-56.06888971036286 -223.73081751855733,-55.39901672924112" stroke="#ffa500" stroke-linecap="round" stroke-linejoin="round"/><polyline fill="none" points="-237.37290012575104,-108.07971992888172 -234.8729001257284,-108.74959290992187 -233.04277310676775,-110.57971992882278 -232.372900125646,-113.07971992882356 -233.04277310668616,-115.57971992884622 -234.87290012558705,-117.40984694780686 -237.37290012558785,-118.0797199289286 -239.8729001256105,-117.40984694788845 -241.70302714457114,-115.57971992898754 -242.3729001256929,-113.07971992898676 -241.70302714465274,-110.57971992896411 -239.87290012575184,-108.74959291000347 -237.37290012575104,-108.07971992888173" stroke="#ffa500" stroke-linecap="round" stroke-linejoin="round"/><polyline fill="none" points="-282.92259003707585,-116.82137467017725 -280.42259003705317,-117.49124765121739 -278.59246301809253,-119.3213746701183 -277.9225900369708,-121.8213746701191 -278.59246301801096,-124.32137467014175 -280.42259003691186,-126.15150168910239 -282.92259003691265,-126.82137467022413 -285.42259003693533,-126.15150168918399 -287.25271705589597,-124.32137467028308 -287.9225900370177,-121.8213746702823 -287.25271705597754,-119.32137467025964 -285.42259003707665,-117.491247651299 -282.92259003707585,-116.82137467017726" stroke="#00f" stroke-linecap="round" stroke-linejoin="round"/><polyline fill="none" points="76.61591848445926,250.67923354335898 79.11591848448191,250.00936056231882 80.94604550344255,248.17923354341792 81.6159184845643,245.67923354341713 80.94604550352416,243.17923354339447 79.11591848462325,241.34910652443384 76.61591848462245,240.67923354331208 74.1159184845998,241.34910652435224 72.28579146563916,243.17923354325313 71.61591848451741,245.67923354325393 72.28579146555755,248.17923354327658 74.11591848445846,250.00936056223722 76.61591848445926,250.67923354335898" stroke="#ffa500" stroke-linecap="round" stroke-linejoin="round"/><polyline fill="none" points="-238.1556970424662,-12.960089627568301 -235.65569704244353,-13.629962608608444 -233.8255700234829,-15.46008962750935 -233.15569704236114,-17.96008962751014 -233.8255700234013,-20.460089627532795 -235.6556970423022,-22.29021664649344 -238.155697042303,-22.960089627615194 -240.65569704232564,-22.29021664657505 -242.48582406128628,-20.460089627674147 -243.15569704240804,-17.96008962767336 -242.4858240613679,-15.460089627650701 -240.655697042467,-13.629962608690054 -238.15569704246622,-12.9600896275683" stroke="#ffa500" stroke-linecap="round" stroke-linejoin="round"/></svg>