<?xml version="1.0" ?><!DOCTYPE svg  PUBLIC '-//W3C//DTD SVG 1.1//EN'  'http://www.w3.org/Graphics/SVG/1.1/DTD/svg11.dtd'><svg height="292.000" viewBox="-378.000 -200.000 775.000 292.000" width="775.000" xmlns="http://www.w3.org/2000/svg"><line fill="none" stroke="none" stroke-linecap="round" stroke-width="2.0" x1="0.0" x2="0.0" y1="0.0" y2="0.0"/><polygon fill="none" fill-rule="evenodd" points="0.0,0.0 0.0,0.0 0.0,0.0" stroke-linejoin="round"/><polyline fill="none" points="-347.46381119147196,-137.4537651312841 -344.963811191449,-138.1236381123237 -343.1336841724878,-139.95376513122432 -342.46381119136544,-142.4537651312251 -343.1336841724051,-144.95376513124808 -344.9638111913057,-146.78389215020925 -347.4638111913065,-147.4537651313316 -349.96381119132946,-146.783892150292 -351.79393821029066,-144.95376513139138 -352.463811191413,-142.45376513139058 -351.79393821037337,-139.95376513136762 -349.96381119147276,-138.12363811240644 -347.46381119147196,-137.4537651312841" stroke="#00f" stroke-linecap="round" stroke-linejoin="round"/><polyline fill="none" points="-330.27544378057473,-150.18866063066037 -327.77544378055177,-150.85853361169998 -325.94531676159056,-152.6886606306006 -325.2754437804682,-155.1886606306014 -325.94531676150785,-157.68866063062436 -327.77544378040847,-159.51878764958553 -330.27544378040926,-160.1886606307079 -332.7754437804322,-159.51878764966827 -334.60557079939343,-157.68866063076766 -335.2754437805158,-155.18866063076686 -334.6055707994762,-152.6886606307439 -332.7754437805756,-150.85853361178272 -330.2754437805748,-150.18866063066034" stroke="#008000" stroke-linecap="round" stroke-linejoin="round"/><polyline fill="none" points="-255.13631040154775,-121.4841259447578 -252.63631040152478,-122.15399892579742 -250.8061833825636,-123.98412594469804 -250.13631040144122,-126.48412594469883 -250.80618338248084,-128.9841259447218 -252.63631040138145,-130.81425296368297 -255.13631040138225,-131.48412594480536 -257.63631040140524,-130.81425296376574 -259.46643742036645,-128.98412594486513 -260.1363104014888,-126.48412594486433 -259.4664374204492,-123.98412594484135 -257.6363104015486,-122.15399892588016 -255.1363104015478,-121.48412594475779" stroke="#ffa500" stroke-linecap="round" stroke-linejoin="round"/><polyline fill="none" points="-334.71193346569055,-152.88438690469215 -332.2119334656676,-153.55425988573177 -330.3818064467064,-155.38438690463238 -329.711933465584,-157.88438690463317 -330.3818064466236,-160.38438690465614 -332.2119334655242,-162.21451392361732 -334.711933465525,-162.8843869047397 -337.211933465548,-162.21451392370008 -339.0420604845092,-160.38438690479947 -339.71193346563155,-157.88438690479867 -339.04206048459196,-155.3843869047757 -337.21193346569135,-153.55425988581453 -334.71193346569055,-152.88438690469215" stroke="#008000" stroke-linecap="round" stroke-linejoin="round"/><polyline fill="none" points="-346.5624901538135,-125.55155981244934 -344.0624901537905,-126.22143279348896 -342.2323631348293,-128.05155981238957 -341.56249015370696,-130.55155981239037 -342.23236313474655,-133.05155981241333 -344.06249015364716,-134.8816868313745 -346.56249015364796,-135.5515598124969 -349.0624901536709,-134.88168683145727 -350.89261717263213,-133.05155981255666 -351.5624901537545,-130.55155981255587 -350.8926171727149,-128.0515598125329 -349.0624901538143,-126.22143279357171 -346.5624901538135,-125.55155981244933" stroke="#00f" stroke-linecap="round" stroke-linejoin="round"/><polyline fill="none" points="-359.44558230735043,-176.06168685447008 -356.94558230732747,-176.7315598355097 -355.11545528836626,-178.5616868544103 -354.4455823072439,-181.0616868544111 -355.1154552882835,-183.5616868544341 -356.9455823071841,-185.39181387339528 -359.4455823071849,-186.06168685451766 -361.94558230720787,-185.39181387347804 -363.7757093261691,-183.56168685457743 -364.44558230729143,-181.06168685457664 -363.77570932625184,-178.56168685455364 -361.94558230735123,-176.73155983559244 -359.44558230735043,-176.06168685447005" stroke="#00f" stroke-linecap="round" stroke-linejoin="round"/><polyline fill="none" points="359.7865464395157,-156.8661661050999 362.28654643953865,-157.5360390861395 364.11667345849986,-159.36616610504012 364.7865464396222,-161.86616610504092 364.1166734585826,-164.3661661050639 362.286546439682,-166.19629312402512 359.7865464396812,-166.8661661051475 357.28654643965825,-166.19629312410788 355.45641942069705,-164.36616610520727 354.7865464395747,-161.86616610520647 355.4564194206143,-159.36616610518348 357.2865464395149,-157.53603908622227 359.7865464395157,-156.8661661050999" stroke="#ffa500" stroke-linecap="round" stroke-linejoin="round"/><polyline fill="none" points="-342.9014435793132,-138.20529414006015 -340.40144357929023,-138.87516712109976 -338.571316560329,-140.70529414000038 -337.90144357920667,-143.20529414000117 -338.57131656024626,-145.70529414002417 -340.40144357914687,-147.53542115898537 -342.90144357914767,-148.20529414010775 -345.40144357917063,-147.53542115906814 -347.23157059813184,-145.70529414016752 -347.90144357925425,-143.20529414016673 -347.23157059821466,-140.70529414014374 -345.40144357931405,-138.87516712118253 -342.90144357931325,-138.20529414006015" stroke="#00f" stroke-linecap="round" stroke-linejoin="round"/><polyline fill="none" points="73.4040673406398,-37.128265747981466 75.90406734066278,-37.79813872902107 77.73419435962397,-39.62826574792167 78.40406734074635,-42.12826574792247 77.73419435970675,-44.628265747945456 75.90406734080615,-46.458392766906655 73.40406734080536,-47.128265748029044 70.90406734078238,-46.45839276698944 69.07394032182117,-44.62826574808884 68.40406734069879,-42.12826574808804 69.07394032173839,-39.628265748065054 70.90406734063899,-37.798138729103854 73.40406734063978,-37.128265747981466" stroke="#ffa500" stroke-linecap="round" stroke-linejoin="round"/><polyline fill="none" points="380.1541221993041,-172.35660575828402 382.65412219932705,-173.0264787393236 384.48424921828826,-174.8566057582242 385.15412219941066,-177.356605758225 384.4842492183711,-179.85660575824798 382.65412219947046,-181.6867327772092 380.15412219946967,-182.35660575833157 377.6541221994467,-181.68673277729198 375.8239951804855,-179.8566057583914 375.1541221993631,-177.3566057583906 375.8239951804027,-174.8566057583676 377.6541221993033,-173.0264787394064 380.1541221993041,-172.35660575828402" stroke="#00f" stroke-linecap="round" stroke-linejoin="round"/><polyline fill="none" points="-351.97310043841185,-167.93595516486585 -349.4731004383889,-168.60582814590543 -347.6429734194277,-170.43595516480602 -346.97310043830527,-172.9359551648068 -347.64297341934486,-175.4359551648298 -349.47310043824547,-177.266082183791 -351.97310043824626,-177.9359551649134 -354.4731004382692,-177.2660821838738 -356.30322745723043,-175.43595516497322 -356.97310043835284,-172.93595516497243 -356.30322745731326,-170.43595516494943 -354.47310043841264,-168.60582814598823 -351.97310043841185,-167.93595516486585" stroke="#00f" stroke-linecap="round" stroke-linejoin="round"/><polyline fill="none" points="-274.1878139128033,-87.82791644190652 -271.6878139127803,-88.49778942294611 -269.8576868938191,-90.32791644184671 -269.1878139126967,-92.8279164418475 -269.8576868937363,-95.3279164418705 -271.6878139126369,-97.1580434608317 -274.1878139126377,-97.8279164419541 -276.68781391266066,-97.15804346091451 -278.51794093162187,-95.32791644201392 -279.1878139127443,-92.82791644201312 -278.5179409317047,-90.32791644199013 -276.6878139128041,-88.49778942302892 -274.1878139128033,-87.82791644190652" stroke="#00f" stroke-linecap="round" stroke-linejoin="round"/><polyline fill="none" points="-303.2944547320009,-152.88437382603863 -300.7944547319779,-153.55424680707821 -298.9643277130167,-155.3843738259788 -298.2944547318943,-157.8843738259796 -298.9643277129339,-160.3843738260026 -300.7944547318345,-162.2145008449638 -303.2944547318353,-162.8843738260862 -305.79445473185825,-162.21450084504662 -307.62458175081946,-160.38437382614603 -308.29445473194187,-157.88437382614524 -307.6245817509023,-155.38437382612224 -305.79445473200167,-153.55424680716104 -303.2944547320009,-152.88437382603863" stroke="#ffa500" stroke-linecap="round" stroke-linejoin="round"/><polyline fill="none" points="-260.1648947202944,-47.21822421814021 -257.66489472027143,-47.888097199179796 -255.83476770131023,-49.71822421808039 -255.16489472018782,-52.21822421808119 -255.8347677012274,-54.71822421810418 -257.664894720128,-56.5483512370654 -260.1648947201288,-57.21822421818779 -262.6648947201518,-56.5483512371482 -264.495021739113,-54.71822421824761 -265.1648947202354,-52.21822421824681 -264.4950217391958,-49.71822421822382 -262.6648947202952,-47.8880971992626 -260.1648947202944,-47.2182242181402" stroke="#ffa500" stroke-linecap="round" stroke-linejoin="round"/><polyline fill="none" points="-260.32839527239054,-113.3884726889658 -257.8283952723676,-114.0583456700054 -255.99826825340637,-115.88847268890598 -255.32839527228396,-118.38847268890677 -255.99826825332354,-120.88847268892977 -257.82839527222416,-122.71859970789097 -260.32839527222495,-123.38847268901337 -262.8283952722479,-122.71859970797378 -264.6585222912091,-120.8884726890732 -265.32839527233153,-118.3884726890724 -264.65852229129194,-115.88847268904941 -262.82839527239133,-114.05834567008819 -260.32839527239054,-113.38847268896578" stroke="#ffa500" stroke-linecap="round" stroke-linejoin="round"/><polyline fill="none" points="-351.4176091360315,-172.64976747962314 -348.91760913600854,-173.31964046066273 -347.08748211704733,-175.1497674795633 -346.4176091359249,-177.6497674795641 -347.0874821169645,-180.1497674795871 -348.9176091358651,-181.9798944985483 -351.4176091358659,-182.64976747967071 -353.91760913588894,-181.97989449863113 -355.74773615485014,-180.14976747973054 -356.41760913597255,-177.64976747972975 -355.74773615493297,-175.14976747970675 -353.91760913603235,-173.31964046074555 -351.41760913603156,-172.64976747962314" stroke="#00f" stroke-linecap="round" stroke-linejoin="round"/><polyline fill="none" points="-292.4755362985219,-127.45666143123498 -289.9755362984989,-128.12653441227457 -288.1454092795377,-129.95666143117515 -287.4755362984153,-132.45666143117595 -288.1454092794549,-134.95666143119894 -289.9755362983555,-136.78678845016015 -292.4755362983563,-137.45666143128255 -294.9755362983793,-136.78678845024297 -296.80566331734053,-134.95666143134238 -297.47553629846294,-132.4566614313416 -296.80566331742335,-129.9566614313186 -294.97553629852274,-128.1265344123574 -292.47553629852194,-127.45666143123498" stroke="#00f" stroke-linecap="round" stroke-linejoin="round"/><polyline fill="none" points="-277.14076234050253,-37.258147066363314 -274.6407623404795,-37.928020047402896 -272.8106353215183,-39.75814706630348 -272.1407623403959,-42.25814706630428 -272.8106353214355,-44.758147066327275 -274.6407623403361,-46.5882740852885 -277.1407623403369,-47.258147066410906 -279.6407623403599,-46.588274085371324 -281.4708893593211,-44.75814706647074 -282.14076234044353,-42.25814706646994 -281.47088935940394,-39.758147066446945 -279.64076234050333,-37.928020047485724 -277.14076234050253,-37.258147066363314" stroke="#ffa500" stroke-linecap="round" stroke-linejoin="round"/><polyline fill="none" points="-361.70676774393763,-177.25009850170514 -359.2067677439146,-177.91997148274473 -357.3766407249534,-179.7500985016453 -356.706767743831,-182.2500985016461 -357.3766407248706,-184.7500985016691 -359.2067677437712,-186.58022552063034 -361.706767743772,-187.25009850175275 -364.206767743795,-186.58022552071316 -366.0368947627562,-184.75009850181257 -366.70676774387863,-182.25009850181178 -366.03689476283904,-179.75009850178878 -364.2067677439384,-177.91997148282755 -361.70676774393763,-177.25009850170514" stroke="#00f" stroke-linecap="round" stroke-linejoin="round"/><polyline fill="none" points="41.200647968931186,-44.892247209331906 43.700647968954186,-45.56212019037148 45.530774987915414,-47.392247209272064 46.20064796903783,-49.89224720927287 45.53077498799826,-52.39224720929587 43.70064796909767,-54.222374228257095 41.20064796909687,-54.89224720937951 38.70064796907387,-54.22237422833994 36.87052095011264,-52.392247209439354 36.200647968990225,-49.89224720943855 36.8705209500298,-47.39224720941555 38.70064796893038,-45.56212019045432 41.200647968931186,-44.892247209331906" stroke="#00f" stroke-linecap="round" stroke-linejoin="round"/><polyline fill="none" points="-282.0257558888966,-107.87286753265758 -279.52575588887356,-108.54274051369715 -277.69562886991235,-110.37286753259774 -277.02575588878994,-112.87286753259853 -277.69562886982953,-115.37286753262153 -279.5257558887301,-117.20299455158275 -282.0257558887309,-117.87286753270517 -284.5257558887539,-117.2029945516656 -286.3558829077151,-115.37286753276501 -287.0257558888375,-112.87286753276422 -286.35588290779793,-110.37286753274122 -284.5257558888974,-108.54274051377999 -282.0257558888966,-107.87286753265757" stroke="#ffa500" stroke-linecap="round" stroke-linejoin="round"/><polyline fill="none" points="-326.7268082748577,-147.52939620655349 -324.2268082748347,-148.19926918759305 -322.3966812558735,-150.02939620649363 -321.7268082747511,-152.52939620649443 -322.39668125579067,-155.02939620651742 -324.2268082746912,-156.85952322547865 -326.726808274692,-157.52939620660106 -329.22680827471504,-156.8595232255615 -331.05693529367625,-155.02939620666092 -331.72680827479866,-152.52939620666012 -331.05693529375907,-150.02939620663713 -329.2268082748585,-148.1992691876759 -326.7268082748577,-147.52939620655349" stroke="#ffa500" stroke-linecap="round" stroke-linejoin="round"/><polyline fill="none" points="-235.17748550718653,-111.50754952025405 -232.67748550716354,-112.17742250129362 -230.8473584882023,-114.0075495201942 -230.1774855070799,-116.507549520195 -230.84735848811945,-119.007549520218 -232.67748550702004,-120.83767653917924 -235.17748550702083,-121.50754952030167 -237.67748550704383,-120.83767653926209 -239.50761252600506,-119.00754952036151 -240.17748550712747,-116.50754952036071 -239.5076125260879,-114.0075495203377 -237.67748550718733,-112.17742250137647 -235.17748550718653,-111.50754952025405" stroke="#ffa500" stroke-linecap="round" stroke-linejoin="round"/><polyline fill="none" points="-349.7872402186594,-140.1218421925617 -347.2872402186364,-140.79171517360126 -345.4571131996752,-142.62184219250184 -344.78724021855277,-145.12184219250264 -345.45711319959236,-147.62184219252563 -347.2872402184929,-149.45196921148687 -349.7872402184937,-150.1218421926093 -352.28724021851673,-149.45196921156975 -354.117367237478,-147.62184219266916 -354.7872402186004,-145.12184219266837 -354.1173672375608,-142.62184219264537 -352.28724021866026,-140.79171517368414 -349.78724021865946,-140.1218421925617" stroke="#00f" stroke-linecap="round" stroke-linejoin="round"/><polyline fill="none" points="-182.3000013726678,57.60147079006759 -179.8000013726448,56.93159780902802 -177.96987435368357,55.10147079012744 -177.30000137256113,52.60147079012664 -177.9698743536007,50.10147079010363 -179.80000137250127,48.2713437711424 -182.30000137250207,47.60147079001997 -184.80000137252506,48.27134377105953 -186.6301283914863,50.1014707899601 -187.30000137260873,52.601470789960906 -186.63012839156917,55.101470789983914 -184.8000013726686,56.931597808945156 -182.3000013726678,57.60147079006759" stroke="#ffa500" stroke-linecap="round" stroke-linejoin="round"/><polyline fill="none" points="-254.53075301001408,-105.86514515242992 -252.0307530099911,-106.53501813346948 -250.20062599102985,-108.36514515237005 -249.53075300990741,-110.86514515237084 -250.20062599094697,-113.36514515239385 -252.03075300984756,-115.19527217135509 -254.53075300984835,-115.86514515247752 -257.0307530098714,-115.19527217143796 -258.86088002883264,-113.3651451525374 -259.53075300995505,-110.8651451525366 -258.86088002891546,-108.36514515251359 -257.0307530100149,-106.53501813355236 -254.5307530100141,-105.86514515242992" stroke="#ffa500" stroke-linecap="round" stroke-linejoin="round"/><polyline fill="none" points="354.17087461104865,-168.16610404491476 356.67087461107167,-168.83597702595432 358.50100163003293,-170.6661040448549 359.17087461115534,-173.1661040448557 358.5010016301158,-175.66610404487872 356.67087461121525,-177.49623106383996 354.17087461121446,-178.1661040449624 351.67087461119144,-177.49623106392283 349.8407475922302,-175.66610404502225 349.17087461110776,-173.16610404502146 349.8407475921473,-170.66610404499843 351.67087461104785,-168.8359770260372 354.17087461104865,-168.16610404491476" stroke="#ffa500" stroke-linecap="round" stroke-linejoin="round"/><polyline fill="none" points="-277.2808901597663,-147.05421887988473 -274.78089015974325,-147.7240918609243 -272.950763140782,-149.55421887982487 -272.2808901596596,-152.05421887982567 -272.9507631406991,-154.5542188798487 -274.78089015959966,-156.38434589880993 -277.28089015960046,-157.05421887993236 -279.7808901596235,-156.3843458988928 -281.61101717858475,-154.55421887999222 -282.28089015970716,-152.05421887999142 -281.6110171786676,-149.5542188799684 -279.78089015976707,-147.72409186100717 -277.2808901597663,-147.05421887988473" stroke="#ffa500" stroke-linecap="round" stroke-linejoin="round"/><polyline fill="none" points="-195.68632475200252,-65.36012124993096 -193.1863247519795,-66.02999423097052 -191.35619773301826,-67.86012124987109 -190.68632475189582,-70.36012124987188 -191.35619773293539,-72.86012124989489 -193.18632475183597,-74.69024826885614 -195.68632475183676,-75.36012124997858 -198.1863247518598,-74.69024826893902 -200.01645177082102,-72.86012125003845 -200.68632475194346,-70.36012125003765 -200.0164517709039,-67.86012125001464 -198.18632475200332,-66.0299942310534 -195.68632475200252,-65.36012124993096" stroke="#ffa500" stroke-linecap="round" stroke-linejoin="round"/><polyline fill="none" points="-309.6301213323898,-115.59766230610221 -307.1301213323668,-116.26753528714177 -305.29999431340553,-118.09766230604234 -304.63012133228307,-120.59766230604313 -305.2999943133226,-123.09766230606614 -307.13012133222315,-124.92778932502739 -309.63012133222395,-125.59766230614983 -312.130121332247,-124.92778932511028 -313.96024835120824,-123.09766230620971 -314.6301213323307,-120.59766230620892 -313.96024835129117,-118.09766230618591 -312.1301213323906,-116.26753528722466 -309.6301213323898,-115.59766230610222" stroke="#ffa500" stroke-linecap="round" stroke-linejoin="round"/><polyline fill="none" points="-231.58711667556622,-100.98497766753839 -229.0871166755432,-101.65485064857793 -227.25698965658194,-103.4849776674785 -226.5871166754595,-105.9849776674793 -227.25698965649906,-108.4849776675023 -229.0871166753996,-110.31510468646356 -231.5871166754004,-110.984977667586 -234.08711667542343,-110.31510468654645 -235.9172436943847,-108.48497766764588 -236.58711667550713,-105.98497766764508 -235.91724369446757,-103.48497766762208 -234.08711667556702,-101.65485064866083 -231.58711667556622,-100.98497766753837" stroke="#ffa500" stroke-linecap="round" stroke-linejoin="round"/><polyline fill="none" points="-279.32013323054116,-124.61154663745455 -276.82013323051814,-125.2814196184941 -274.9900062115569,-127.11154663739467 -274.3201332304344,-129.61154663739546 -274.99000621147394,-132.11154663741848 -276.8201332303745,-133.94167365637975 -279.3201332303753,-134.6115466375022 -281.8201332303983,-133.94167365646263 -283.6502602493596,-132.11154663756207 -284.32013323048204,-129.61154663756128 -283.6502602494425,-127.11154663753825 -281.82013323054196,-125.281419618577 -279.32013323054116,-124.61154663745455" stroke="#00f" stroke-linecap="round" stroke-linejoin="round"/><polyline fill="none" points="-281.14955304759707,-42.37505413274634 -278.64955304757405,-43.04492711378589 -276.8194260286128,-44.87505413268646 -276.1495530474903,-47.37505413268726 -276.81942602852985,-49.875054132710275 -278.6495530474304,-51.70518115167153 -281.1495530474312,-52.375054132793984 -283.6495530474542,-51.70518115175444 -285.4796800664155,-49.87505413285387 -286.14955304753795,-47.375054132853066 -285.4796800664984,-44.87505413283005 -283.64955304759786,-43.044927113868795 -281.14955304759707,-42.37505413274634" stroke="#00f" stroke-linecap="round" stroke-linejoin="round"/><polyline fill="none" points="-163.7763611525522,21.55991887376641 -161.27636115252918,20.890045892726867 -159.4462341335679,19.0599188738263 -158.77636115244545,16.5599188738255 -159.44623413348498,14.05991887380248 -161.27636115238553,12.22979185484122 -163.77636115238633,11.559918873718768 -166.27636115240935,12.22979185475831 -168.10648817137061,14.059918873658876 -168.77636115249308,16.55991887365968 -168.10648817145355,19.059918873682697 -166.276361152553,20.890045892643958 -163.7763611525522,21.559918873766414" stroke="#ffa500" stroke-linecap="round" stroke-linejoin="round"/><polyline fill="none" points="-147.67331112820432,36.20228326037996 -145.1733111281813,35.53241027934042 -143.34318410922003,33.702283260439856 -142.67331112809757,31.202283260439053 -143.3431841091371,28.70228326041603 -145.17331112803765,26.872156241454768 -147.67331112803845,26.20228326033231 -150.17331112806147,26.872156241371854 -152.00343814702273,28.70228326027242 -152.6733111281452,31.202283260273223 -152.00343814710567,33.70228326029624 -150.1733111282051,35.532410279257505 -147.67331112820432,36.202283260379964" stroke="#ffa500" stroke-linecap="round" stroke-linejoin="round"/><polyline fill="none" points="365.4143693471831,-178.954927648239 367.9143693472061,-179.62480062927852 369.74449636616737,-181.45492764817908 370.41436934728983,-183.95492764817988 369.7444963662503,-186.4549276482029 367.91436934734975,-188.28505466716416 365.41436934734895,-188.95492764828663 362.91436934732593,-188.2850546672471 361.08424232836467,-186.45492764834654 360.4143693472422,-183.95492764834574 361.08424232828173,-181.45492764832272 362.9143693471823,-179.62480062936146 365.4143693471831,-178.954927648239" stroke="#ffa500" stroke-linecap="round" stroke-linejoin="round"/><polyline fill="none" points="-260.645383841517,-36.18458023142665 -258.145383841494,-36.85445321246619 -256.3152568225327,-38.68458023136675 -255.64538384141025,-41.184580231367555 -256.3152568224498,-43.684580231390576 -258.14538384135034,-45.51470725035185 -260.64538384135113,-46.18458023147431 -263.14538384137416,-45.51470725043477 -264.9755108603354,-43.684580231534206 -265.6453838414579,-41.1845802315334 -264.97551086041835,-38.68458023151038 -263.1453838415178,-36.85445321254911 -260.645383841517,-36.18458023142665" stroke="#ffa500" stroke-linecap="round" stroke-linejoin="round"/><polyline fill="none" points="54.38133241183092,-40.36664688613774 56.88133241185394,-41.03651986717727 58.71145943081521,-42.86664688607783 59.38133241193768,-45.366646886078634 58.711459430898145,-47.866646886101655 56.88133241199758,-49.696773905062926 54.38133241199678,-50.36664688618539 51.88133241197376,-49.69677390514586 50.05120539301249,-47.8666468862453 49.38133241189002,-45.366646886244496 50.05120539292955,-42.86664688622147 51.881332411830115,-41.036519867260196 54.38133241183092,-40.36664688613773" stroke="#ffa500" stroke-linecap="round" stroke-linejoin="round"/><polyline fill="none" points="369.3703781147068,-158.90190674562922 371.8703781147298,-159.57177972666875 373.7005051336911,-161.4019067455693 374.37037811481355,-163.9019067455701 373.700505133774,-166.40190674559312 371.87037811487346,-168.2320337645544 369.37037811487266,-168.90190674567685 366.87037811484964,-168.23203376463732 365.0402510958884,-166.40190674573677 364.3703781147659,-163.90190674573597 365.04025109580544,-161.40190674571295 366.870378114706,-159.57177972675169 369.3703781147068,-158.90190674562922" stroke="#ffa500" stroke-linecap="round" stroke-linejoin="round"/><polyline fill="none" points="71.1242959494369,-22.19333339975873 73.62429594945992,-22.863206380798257 75.4544229684212,-24.693333399698815 76.12429594954367,-27.19333339969962 75.45442296850413,-29.693333399722647 73.62429594960358,-31.52346041868392 71.12429594960277,-32.19333339980639 68.62429594957975,-31.523460418766863 66.79416893061847,-29.693333399866304 66.124295949496,-27.1933333998655 66.79416893053553,-24.693333399842473 68.62429594943609,-22.863206380881195 71.1242959494369,-22.193333399758725" stroke="#ffa500" stroke-linecap="round" stroke-linejoin="round"/><polyline fill="none" points="-219.16515851334205,-116.11890224399748 -216.66515851331903,-116.78877522503701 -214.83503149435776,-118.61890224393757 -214.1651585132353,-121.11890224393838 -214.83503149427483,-123.61890224396141 -216.66515851317538,-125.44902926292269 -219.16515851317618,-126.11890224404516 -221.6651585131992,-125.44902926300563 -223.4952855321605,-123.61890224410507 -224.16515851328296,-121.11890224410426 -223.49528553224343,-118.61890224408123 -221.66515851334287,-116.78877522511995 -219.16515851334208,-116.11890224399747" stroke="#ffa500" stroke-linecap="round" stroke-linejoin="round"/><polyline fill="none" points="-296.0358734274634,-125.90479230778664 -293.5358734274404,-126.57466528882615 -291.7057464084791,-128.40479230772672 -291.03587342735665,-130.90479230772752 -291.7057464083962,-133.40479230775054 -293.53587342729674,-135.23491932671183 -296.03587342729753,-135.9047923078343 -298.53587342732055,-135.23491932679477 -300.3660004462818,-133.4047923078942 -301.0358734274043,-130.90479230789342 -300.36600044636475,-128.4047923078704 -298.5358734274642,-126.57466528890912 -296.0358734274634,-125.90479230778664" stroke="#ffa500" stroke-linecap="round" stroke-linejoin="round"/><polyline fill="none" points="-217.52842442987867,-108.71459230707393 -215.02842442985565,-109.38446528811345 -213.19829741089436,-111.214592307014 -212.5284244297719,-113.71459230701481 -213.19829741081142,-116.21459230703785 -215.02842442971198,-118.04471932599913 -217.52842442971277,-118.7145923071216 -220.0284244297358,-118.04471932608209 -221.85855144869709,-116.21459230718153 -222.52842442981955,-113.71459230718072 -221.85855144878002,-111.21459230715769 -220.02842442987946,-109.38446528819641 -217.52842442987867,-108.71459230707393" stroke="#ffa500" stroke-linecap="round" stroke-linejoin="round"/><polyline fill="none" points="-345.14698192072433,-135.56407709904298 -342.6469819207013,-136.2339500800825 -340.81685490174004,-138.06407709898306 -340.1469819206176,-140.56407709898386 -340.8168549016571,-143.06407709900688 -342.64698192055766,-144.89420411796817 -345.14698192055846,-145.56407709909067 -347.6469819205815,-144.89420411805114 -349.47710893954275,-143.06407709915058 -350.1469819206652,-140.56407709914978 -349.4771089396257,-138.06407709912676 -347.6469819207251,-136.23395008016547 -345.14698192072433,-135.56407709904298" stroke="#008000" stroke-linecap="round" stroke-linejoin="round"/><polyline fill="none" points="-284.2389688837169,-81.1089588791655 -281.7389688836939,-81.77883186020502 -279.9088418647326,-83.60895887910557 -279.23896888361014,-86.10895887910638 -279.9088418646497,-88.60895887912942 -281.7389688835502,-90.43908589809071 -284.238968883551,-91.10895887921319 -286.73896888357405,-90.43908589817367 -288.5690959025353,-88.60895887927312 -289.2389688836578,-86.10895887927231 -288.56909590261824,-83.60895887924927 -286.7389688837177,-81.77883186028798 -284.2389688837169,-81.1089588791655" stroke="#ffa500" stroke-linecap="round" stroke-linejoin="round"/><polyline fill="none" points="-256.76178026201177,-94.9331027221313 -254.26178026198872,-95.60297570317081 -252.43165324302743,-97.43310272207137 -251.76178026190493,-99.93310272207218 -252.43165324294444,-102.43310272209521 -254.261780261845,-104.2632297410565 -256.7617802618458,-104.93310272217899 -259.2617802618688,-104.26322974113947 -261.09190728083007,-102.43310272223891 -261.76178026195254,-99.9331027222381 -261.091907280913,-97.43310272221507 -259.26178026201245,-95.60297570325378 -256.76178026201165,-94.93310272213128" stroke="#ffa500" stroke-linecap="round" stroke-linejoin="round"/><polyline fill="none" points="-208.41283767569013,-81.34032106317926 -205.91283767566708,-82.01019404421878 -204.08271065670579,-83.84032106311933 -203.4128376755833,-86.34032106312014 -204.0827106566228,-88.84032106314318 -205.91283767552335,-90.67044808210447 -208.41283767552414,-91.34032106322697 -210.9128376755472,-90.67044808218745 -212.7429646945085,-88.8403210632869 -213.41283767563098,-86.34032106328608 -212.74296469459148,-83.84032106326305 -210.91283767569092,-82.01019404430176 -208.41283767569013,-81.34032106317926" stroke="#ffa500" stroke-linecap="round" stroke-linejoin="round"/><polyline fill="none" points="-293.24168732669744,-67.261927748252 -290.7416873266744,-67.93180072929152 -288.9115603077131,-69.76192774819206 -288.24168732659064,-72.26192774819287 -288.91156030763017,-74.76192774821591 -290.7416873265307,-76.5920547671772 -293.2416873265315,-77.2619277482997 -295.74168732655454,-76.5920547672602 -297.57181434551586,-74.76192774835965 -298.2416873266383,-72.26192774835884 -297.5718143455988,-69.76192774833581 -295.74168732669824,-67.93180072937452 -293.24168732669744,-67.26192774825202" stroke="#00f" stroke-linecap="round" stroke-linejoin="round"/><polyline fill="none" points="-325.3420205089568,-100.16954732497707 -322.8420205089338,-100.83942030601658 -321.01189348997246,-102.66954732491712 -320.34202050885,-105.16954732491793 -321.01189348988953,-107.66954732494096 -322.8420205087901,-109.49967434390226 -325.3420205087909,-110.16954732502475 -327.8420205088139,-109.49967434398525 -329.6721475277752,-107.66954732508471 -330.34202050889775,-105.1695473250839 -329.6721475278582,-102.66954732506086 -327.84202050895766,-100.83942030609957 -325.34202050895686,-100.16954732497707" stroke="#00f" stroke-linecap="round" stroke-linejoin="round"/><polyline fill="none" points="-319.77974939378197,-106.44440565368502 -317.27974939375895,-107.11427863472453 -315.4496223747976,-108.94440565362507 -314.7797493936751,-111.44440565362588 -315.44962237471464,-113.94440565364891 -317.2797493936152,-115.7745326726102 -319.779749393616,-116.4444056537327 -322.279749393639,-115.7745326726932 -324.10987641260033,-113.94440565379266 -324.77974939372285,-111.44440565379185 -324.1098764126833,-108.94440565376881 -322.27974939378277,-107.1142786348075 -319.77974939378197,-106.44440565368501" stroke="#ffa500" stroke-linecap="round" stroke-linejoin="round"/><polyline fill="none" points="-191.81531458719985,-53.01763678740059 -189.3153145871768,-53.687509768440094 -187.4851875682155,-55.517636787340635 -186.815314587093,-58.01763678734144 -187.48518756813252,-60.51763678736448 -189.31531458703307,-62.34776380632578 -191.81531458703387,-63.01763678744828 -194.31531458705692,-62.34776380640878 -196.1454416060182,-60.51763678750824 -196.8153145871407,-58.017636787507435 -196.1454416061012,-55.51763678748439 -194.31531458720065,-53.687509768523086 -191.81531458719985,-53.01763678740058" stroke="#ffa500" stroke-linecap="round" stroke-linejoin="round"/><polyline fill="none" points="-147.6674258325513,22.87709303031709 -145.16742583252824,22.20722004927759 -143.33729881356695,20.37709303037705 -142.66742583244445,17.877093030376244 -143.33729881348395,15.377093030353198 -145.1674258323845,13.546966011391893 -147.6674258323853,12.87709303026939 -150.16742583240836,13.54696601130889 -151.99755285136965,15.37709303020943 -152.66742583249214,17.877093030210233 -151.99755285145264,20.37709303023328 -150.1674258325521,22.207220049194586 -147.66742583255132,22.87709303031709" stroke="#ffa500" stroke-linecap="round" stroke-linejoin="round"/><polyline fill="none" points="-302.75806560059004,-112.52823731907259 -300.258065600567,-113.19811030011209 -298.4279385816057,-115.02823731901263 -297.7580656004832,-117.52823731901344 -298.42793858152265,-120.02823731903649 -300.2580656004232,-121.8583643379978 -302.758065600424,-122.52823731912031 -305.258065600447,-121.8583643380808 -307.08819261940835,-120.02823731918026 -307.75806560053087,-117.52823731917945 -307.0881926194914,-115.0282373191564 -305.25806560059084,-113.1981103001951 -302.75806560059004,-112.52823731907259" stroke="#00f" stroke-linecap="round" stroke-linejoin="round"/><polyline fill="none" points="-339.59151205983125,-137.492888850397 -337.0915120598082,-138.1627618314365 -335.2613850408469,-139.99288885033704 -334.5915120597244,-142.49288885033783 -335.26138504076386,-144.99288885036088 -337.0915120596644,-146.8230158693222 -339.5915120596652,-147.49288885044473 -342.0915120596882,-146.82301586940522 -343.92163907864955,-144.9928888505047 -344.59151205977207,-142.4928888505039 -343.9216390787326,-139.99288885048085 -342.09151205983204,-138.16276183151953 -339.59151205983125,-137.492888850397" stroke="#00f" stroke-linecap="round" stroke-linejoin="round"/><polyline fill="none" points="-170.56112991709534,79.9292898026781 -168.0611299170723,79.25941682163861 -166.23100289811097,77.42928980273807 -165.56112991698845,74.92928980273726 -166.23100289802795,72.42928980271421 -168.06112991692848,70.5991627837529 -170.56112991692927,69.9292898026304 -173.06112991695232,70.59916278366988 -174.89125693591365,72.42928980257042 -175.56112991703617,74.92928980257123 -174.89125693599667,77.42928980259428 -173.06112991709614,79.2594168215556 -170.56112991709534,79.92928980267811" stroke="#ffa500" stroke-linecap="round" stroke-linejoin="round"/><polyline fill="none" points="-304.7529783369095,-96.67813129401532 -302.25297833688643,-97.3480042750548 -300.4228513179251,-99.17813129395535 -299.7529783368026,-101.67813129395616 -300.42285131784206,-104.1781312939792 -302.2529783367426,-106.00825831294053 -304.7529783367434,-106.67813129406304 -307.2529783367665,-106.00825831302355 -309.0831053557278,-104.178131294123 -309.75297833685033,-101.6781312941222 -309.08310535581086,-99.17813129409915 -307.2529783369103,-97.34800427513782 -304.7529783369095,-96.6781312940153" stroke="#ffa500" stroke-linecap="round" stroke-linejoin="round"/><polyline fill="none" points="-344.96319554804523,-148.1806204031659 -342.46319554802216,-148.8504933842054 -340.63306852906084,-150.68062040310593 -339.9631955479383,-153.18062040310673 -340.6330685289778,-155.68062040312978 -342.46319554787834,-157.5107474220911 -344.96319554787914,-158.18062040321362 -347.4631955479022,-157.51074742217415 -349.29332256686354,-155.68062040327362 -349.96319554798606,-153.18062040327283 -349.2933225669466,-150.68062040324978 -347.46319554804603,-148.85049338428846 -344.96319554804523,-148.18062040316593" stroke="#f00" stroke-linecap="round" stroke-linejoin="round"/><polyline fill="none" points="-311.215778499763,-128.1964891621428 -308.71577849973994,-128.86636214318227 -306.8856514807786,-130.6964891620828 -306.2157784996561,-133.1964891620836 -306.88565148069557,-135.69648916210664 -308.7157784995961,-137.52661618106796 -311.2157784995969,-138.1964891621905 -313.71577849962,-137.526616181151 -315.5459055185813,-135.6964891622505 -316.21577849970384,-133.1964891622497 -315.54590551866437,-130.69648916222664 -313.7157784997638,-128.86636214326532 -311.215778499763,-128.1964891621428" stroke="#008000" stroke-linecap="round" stroke-linejoin="round"/><polyline fill="none" points="-287.5239271053836,-48.21525789130712 -285.02392710536054,-48.8851308723466 -283.1938000863992,-50.715257891247134 -282.5239271052767,-53.21525789124794 -283.1938000863162,-55.715257891270994 -285.0239271052167,-57.545384910232315 -287.5239271052175,-58.21525789135484 -290.0239271052406,-57.545384910315356 -291.8540541242019,-55.71525789141482 -292.52392710532445,-53.21525789141402 -291.85405412428497,-50.71525789139096 -290.0239271053844,-48.88513087242964 -287.5239271053836,-48.21525789130712" stroke="#ffa500" stroke-linecap="round" stroke-linejoin="round"/><polyline fill="none" points="-271.99908776462007,-68.40740179564393 -269.499087764597,-69.07727477668341 -267.6689607456357,-70.90740179558394 -266.99908776451315,-73.40740179558475 -267.6689607455526,-75.90740179560781 -269.4990877644532,-77.73752881456913 -271.999087764454,-78.40740179569165 -274.49908776447705,-77.73752881465218 -276.3292147834384,-75.90740179575165 -276.9990877645609,-73.40740179575084 -276.3292147835214,-70.90740179572778 -274.49908776462087,-69.07727477676646 -271.99908776462007,-68.40740179564393" stroke="#ffa500" stroke-linecap="round" stroke-linejoin="round"/><polyline fill="none" points="-198.804680150972,48.54340325064264 -196.30468015094894,47.87353026960316 -194.47455313198762,46.043403250702625 -193.8046801508651,43.54340325070182 -194.47455313190457,41.043403250678764 -196.3046801508051,39.21327623171744 -198.8046801508059,38.543403250594906 -201.30468015082894,39.21327623163438 -203.13480716979026,41.04340325053491 -203.8046801509128,43.54340325053571 -203.1348071698733,46.04340325055877 -201.30468015097279,47.873530269520096 -198.804680150972,48.543403250642626" stroke="#00f" stroke-linecap="round" stroke-linejoin="round"/><polyline fill="none" points="-316.9475042791793,-90.96413639329127 -314.44750427915625,-91.63400937433074 -312.6173772601949,-93.46413639323127 -311.9475042790724,-95.96413639323208 -312.6173772601119,-98.46413639325515 -314.44750427901243,-100.29426341221648 -316.94750427901323,-100.96413639333902 -319.4475042790363,-100.29426341229954 -321.27763129799763,-98.46413639339902 -321.94750427912015,-95.9641363933982 -321.2776312980807,-93.46413639337514 -319.4475042791801,-91.63400937441381 -316.9475042791793,-90.96413639329127" stroke="#00f" stroke-linecap="round" stroke-linejoin="round"/><polyline fill="none" points="-202.0759923638877,-56.61338670328572 -199.57599236386466,-57.283259684325195 -197.74586534490334,-59.11338670322572 -197.0759923637808,-61.613386703226524 -197.7458653448203,-64.11338670324959 -199.57599236372081,-65.94351372221092 -202.0759923637216,-66.61338670333346 -204.57599236374466,-65.94351372229399 -206.40611938270598,-64.11338670339346 -207.0759923638285,-61.613386703392656 -206.40611938278903,-59.11338670336959 -204.5759923638885,-57.28325968440826 -202.0759923638877,-56.61338670328572" stroke="#ffa500" stroke-linecap="round" stroke-linejoin="round"/><polyline fill="none" points="-285.7828334899536,-118.8703239471231 -283.2828334899305,-119.54019692816257 -281.4527064709692,-121.3703239470631 -280.78283348984667,-123.87032394706391 -281.45270647088614,-126.37032394708697 -283.28283348978664,-128.20045096604832 -285.78283348978744,-128.87032394717087 -288.2828334898105,-128.2004509661314 -290.11296050877183,-126.37032394723087 -290.78283348989436,-123.87032394723006 -290.1129605088549,-121.370323947207 -288.2828334899544,-119.54019692824566 -285.7828334899536,-118.87032394712313" stroke="#00f" stroke-linecap="round" stroke-linejoin="round"/><polyline fill="none" points="-277.97067826124277,-136.76163740476844 -275.4706782612197,-137.4315103858079 -273.64055124225837,-139.26163740470844 -272.97067826113584,-141.76163740470923 -273.6405512421753,-144.2616374047323 -275.4706782610758,-146.09176442369366 -277.9706782610766,-146.7616374048162 -280.4706782610997,-146.09176442377674 -282.300805280061,-144.2616374048762 -282.97067826118354,-141.76163740487542 -282.30080528014406,-139.26163740485234 -280.47067826124356,-137.431510385891 -277.97067826124277,-136.76163740476844" stroke="#ffa500" stroke-linecap="round" stroke-linejoin="round"/><polyline fill="none" points="-267.34021396727644,-68.7152756190635 -264.84021396725336,-69.38514860010297 -263.01008694829204,-71.21527561900349 -262.3402139671695,-73.7152756190043 -263.010086948209,-76.21527561902737 -264.8402139671095,-78.0454026379887 -267.3402139671103,-78.71527561911125 -269.84021396713337,-78.04540263807179 -271.6703409860947,-76.21527561917127 -272.3402139672172,-73.71527561917046 -271.67034098617773,-71.21527561914739 -269.84021396727724,-69.38514860018606 -267.34021396727644,-68.7152756190635" stroke="#ffa500" stroke-linecap="round" stroke-linejoin="round"/><polyline fill="none" points="-283.6365197258104,-136.00050188447534 -281.1365197257873,-136.67037486551482 -279.306392706826,-138.50050188441534 -278.63651972570347,-141.00050188441614 -279.30639270674294,-143.50050188443922 -281.13651972564344,-145.33062890340057 -283.63651972564423,-146.00050188452312 -286.1365197256673,-145.33062890348364 -287.96664674462863,-143.50050188458312 -288.63651972575116,-141.00050188458232 -287.9666467447117,-138.50050188455924 -286.1365197258112,-136.6703748655979 -283.6365197258104,-136.00050188447534" stroke="#ffa500" stroke-linecap="round" stroke-linejoin="round"/><polyline fill="none" points="-356.4484144749417,-157.06255804691122 -353.94841447491865,-157.7324310279507 -352.11828745595733,-159.56255804685122 -351.4484144748348,-162.06255804685202 -352.1182874558743,-164.5625580468751 -353.9484144747748,-166.39268506583645 -356.4484144747756,-167.062558046959 -358.94841447479865,-166.39268506591955 -360.77854149376,-164.56255804701902 -361.4484144748825,-162.06255804701823 -360.778541493843,-159.56255804699515 -358.9484144749425,-157.7324310280338 -356.4484144749417,-157.06255804691125" stroke="#00f" stroke-linecap="round" stroke-linejoin="round"/><polyline fill="none" points="-240.4963937443943,-18.907554207976652 -237.99639374437123,-19.577427189016113 -236.16626672540988,-21.407554207916633 -235.49639374428733,-23.90755420791744 -236.16626672532678,-26.40755420794051 -237.9963937442273,-28.23768122690186 -240.4963937442281,-28.90755420802441 -242.99639374425118,-28.237681226984954 -244.82652076321253,-26.407554208084434 -245.49639374433508,-23.907554208083628 -244.82652076329563,-21.407554208060557 -242.9963937443951,-19.577427189099208 -240.4963937443943,-18.907554207976652" stroke="#ffa500" stroke-linecap="round" stroke-linejoin="round"/><polyline fill="none" points="-355.81849553819205,-170.99831853582145 -353.318495538169,-171.6681915168609 -351.4883685192076,-173.49831853576143 -350.818495538085,-175.99831853576222 -351.4883685191245,-178.4983185357853 -353.318495538025,-180.32844555474665 -355.8184955380258,-180.9983185358692 -358.31849553804886,-180.32844555482976 -360.14862255701024,-178.49831853592923 -360.8184955381328,-175.99831853592843 -360.14862255709335,-173.49831853590536 -358.31849553819285,-171.668191516944 -355.81849553819205,-170.99831853582145" stroke="#ffa500" stroke-linecap="round" stroke-linejoin="round"/><polyline fill="none" points="63.60102428120313,-23.727471512277923 66.1010242812262,-24.397344493317377 67.93115130018755,-26.227471512217893 68.6010242813101,-28.7274715122187 67.93115130027066,-31.227471512241774 66.10102428137014,-33.057598531203126 63.60102428136934,-33.727471512325685 61.10102428134627,-33.05759853128623 59.27089726238491,-31.227471512385716 58.601024281262355,-28.72747151238491 59.27089726230181,-26.227471512361834 61.10102428120232,-24.39734449340048 63.601024281203124,-23.727471512277923" stroke="#ffa500" stroke-linecap="round" stroke-linejoin="round"/><polyline fill="none" points="-223.08075868176076,-82.20241160149172 -220.58075868173768,-82.87228458253117 -218.75063166277633,-84.70241160143168 -218.08075868165378,-87.20241160143249 -218.75063166269322,-89.70241160145557 -220.58075868159375,-91.53253862041691 -223.08075868159455,-92.20241160153948 -225.58075868161762,-91.53253862050003 -227.41088570057897,-89.70241160159952 -228.08075868170152,-87.20241160159871 -227.41088570066208,-84.70241160157563 -225.58075868176155,-82.87228458261427 -223.08075868176076,-82.2024116014917" stroke="#00f" stroke-linecap="round" stroke-linejoin="round"/><polyline fill="none" points="-328.0681892518444,-113.61326410413128 -325.5681892518213,-114.28313708517072 -323.73806223285993,-116.11326410407123 -323.06818925173735,-118.61326410407204 -323.7380622327768,-121.11326410409512 -325.5681892516773,-122.94339112305649 -328.0681892516781,-123.61326410417905 -330.5681892517012,-122.9433911231396 -332.3983162706626,-121.1132641042391 -333.06818925178516,-118.61326410423828 -332.3983162707457,-116.1132641042152 -330.5681892518452,-114.28313708525384 -328.0681892518444,-113.61326410413128" stroke="#00f" stroke-linecap="round" stroke-linejoin="round"/><polyline fill="none" points="-353.54165096097825,-144.57136381900756 -351.04165096095517,-145.241236800047 -349.2115239419938,-147.0713638189475 -348.5416509608712,-149.5713638189483 -349.2115239419106,-152.07136381897138 -351.0416509608111,-153.90149083793273 -353.5416509608119,-154.5713638190553 -356.041650960835,-153.90149083801586 -357.8717779797964,-152.07136381911536 -358.54165096091896,-149.57136381911457 -357.87177797987954,-147.0713638190915 -356.04165096097904,-145.24123680013014 -353.54165096097825,-144.57136381900756" stroke="#00f" stroke-linecap="round" stroke-linejoin="round"/><polyline fill="none" points="-168.75479628184027,60.26534000476262 -166.2547962818172,59.595467023723174 -164.42466926285584,57.76534000482266 -163.75479628173326,55.26534000482186 -164.4246692627727,52.76534000479878 -166.2547962816732,50.93521298583742 -168.754796281674,50.265340004714844 -171.25479628169708,50.93521298575428 -173.08492330065843,52.76534000465479 -173.754796281781,55.26534000465559 -173.08492330074156,57.76534000467867 -171.25479628184107,59.59546702364003 -168.75479628184027,60.265340004762606" stroke="#ffa500" stroke-linecap="round" stroke-linejoin="round"/><polyline fill="none" points="-312.82691247923674,-115.00525830582029 -310.32691247921366,-115.67513128685974 -308.4967854602523,-117.50525830576025 -307.8269124791297,-120.00525830576106 -308.4967854601691,-122.50525830578414 -310.3269124790696,-124.3353853247455 -312.8269124790704,-125.00525830586808 -315.3269124790935,-124.33538532482864 -317.15703949805487,-122.50525830592812 -317.82691247917745,-120.00525830592731 -317.15703949813803,-117.50525830590423 -315.32691247923754,-115.67513128694287 -312.82691247923674,-115.00525830582029" stroke="#ffa500" stroke-linecap="round" stroke-linejoin="round"/><polyline fill="none" points="-163.36104549611431,36.42232978547993 -160.86104549609124,35.75245680444049 -159.03091847712986,33.922329785539986 -158.36104549600728,31.42232978553918 -159.03091847704673,28.922329785516098 -160.86104549594722,27.09220276655473 -163.36104549594802,26.422329785432154 -165.8610454959711,27.092202766471594 -167.69117251493248,28.922329785372103 -168.36104549605506,31.42232978537291 -167.6911725150156,33.922329785395995 -165.8610454961151,35.752456804357365 -163.36104549611431,36.422329785479945" stroke="#ffa500" stroke-linecap="round" stroke-linejoin="round"/><polyline fill="none" points="-176.77765045418872,77.12472840204528 -174.27765045416564,76.45485542100585 -172.44752343520426,74.62472840210533 -171.77765045408168,72.12472840210452 -172.44752343512113,69.62472840208144 -174.27765045402163,67.79460138312007 -176.77765045402242,67.12472840199749 -179.2776504540455,67.79460138303692 -181.10777747300688,69.62472840193743 -181.77765045412946,72.12472840193824 -181.10777747309,74.62472840196132 -179.2776504541895,76.4548554209227 -176.77765045418872,77.12472840204528" stroke="#ffa500" stroke-linecap="round" stroke-linejoin="round"/><polyline fill="none" points="-200.48148243178457,-94.47738043589897 -197.9814824317615,-95.1472534169384 -196.15135541280011,-96.97738043583891 -195.48148243167753,-99.47738043583972 -196.15135541271698,-101.97738043586281 -197.98148243161748,-103.80750745482419 -200.48148243161828,-104.47738043594677 -202.98148243164135,-103.80750745490734 -204.81160945060273,-101.97738043600684 -205.4814824317253,-99.47738043600603 -204.81160945068586,-96.97738043598294 -202.98148243178537,-95.14725341702156 -200.48148243178457,-94.47738043589898" stroke="#00f" stroke-linecap="round" stroke-linejoin="round"/><polyline fill="none" points="-320.1943306498297,-138.24475842208878 -317.6943306498066,-138.91463140312823 -315.8642036308452,-140.74475842202872 -315.19433064972264,-143.24475842202952 -315.86420363076206,-145.7447584220526 -317.69433064966256,-147.57488544101398 -320.19433064966336,-148.24475842213656 -322.69433064968644,-147.57488544109714 -324.5244576686478,-145.74475842219664 -325.1943306497704,-143.24475842219584 -324.524457668731,-140.74475842217277 -322.6943306498305,-138.9146314032114 -320.1943306498297,-138.2447584220888" stroke="#00f" stroke-linecap="round" stroke-linejoin="round"/><polyline fill="none" points="-350.8820709802973,-168.63679142036918 -348.38207098027425,-169.3066644014086 -346.5519439613129,-171.1367914203091 -345.8820709801903,-173.6367914203099 -346.5519439612297,-176.13679142033297 -348.3820709801302,-177.96691843929435 -350.882070980131,-178.63679142041693 -353.3820709801541,-177.9669184393775 -355.21219799911546,-176.136791420477 -355.88207098023804,-173.63679142047621 -355.2121979991986,-171.13679142045314 -353.3820709802981,-169.30666440149176 -350.8820709802973,-168.63679142036918" stroke="#ffa500" stroke-linecap="round" stroke-linejoin="round"/><polyline fill="none" points="-254.64490922741126,-5.6277403613500265 -252.14490922738818,-6.297613342389455 -250.3147822084268,-8.127740361289955 -249.64490922730423,-10.627740361290762 -250.31478220834364,-13.127740361313851 -252.14490922724414,-14.957867380275228 -254.64490922724494,-15.627740361397818 -257.14490922726804,-14.95786738035839 -258.9750362462294,-13.12774036145789 -259.644909227352,-10.627740361457084 -258.9750362463126,-8.127740361433995 -257.1449092274121,-6.297613342472615 -254.6449092274113,-5.627740361350025" stroke="#ffa500" stroke-linecap="round" stroke-linejoin="round"/><polyline fill="none" points="-177.65134180815946,66.9075248410401 -175.15134180813638,66.23765186000067 -173.321214789175,64.40752484110017 -172.65134180805242,61.90752484109937 -173.32121478909184,59.407524841076274 -175.15134180799234,57.57739782211489 -177.65134180799313,56.907524840992295 -180.1513418080162,57.57739782203172 -181.9814688269776,59.40752484093222 -182.65134180810017,61.90752484093302 -181.98146882706075,64.40752484095611 -180.15134180816025,66.23765185991749 -177.65134180815946,66.90752484104009" stroke="#ffa500" stroke-linecap="round" stroke-linejoin="round"/><polyline fill="none" points="-294.72957008417364,-60.589842633712436 -292.22957008415057,-61.25971561475186 -290.3994430651892,-63.08984263365236 -289.7295700840666,-65.58984263365316 -290.399443065106,-68.08984263367626 -292.2295700840065,-69.91996965263763 -294.7295700840073,-70.58984263376023 -297.2295700840304,-69.91996965272081 -299.0596971029918,-68.08984263382031 -299.72957008411436,-65.5898426338195 -299.05969710307494,-63.08984263379641 -297.22957008417444,-61.259715614835024 -294.72957008417364,-60.58984263371243" stroke="#00f" stroke-linecap="round" stroke-linejoin="round"/><polyline fill="none" points="-267.5987310687834,-50.29834245965303 -265.09873106876034,-50.96821544069245 -263.26860404979897,-52.798342459592945 -262.5987310686764,-55.298342459593755 -263.2686040497158,-57.79834245961685 -265.0987310686163,-59.62846947857823 -267.5987310686171,-60.298342459700834 -270.0987310686402,-59.628469478661415 -271.92885808760155,-57.79834245976092 -272.59873106872413,-55.29834245976011 -271.9288580876847,-52.798342459737015 -270.0987310687842,-50.96821544077563 -267.5987310687834,-50.29834245965303" stroke="#ffa500" stroke-linecap="round" stroke-linejoin="round"/><polyline fill="none" points="-320.34168837303594,-155.11784959661895 -317.84168837301286,-155.78772257765837 -316.0115613540515,-157.61784959655887 -315.3416883729289,-160.11784959655967 -316.0115613539683,-162.61784959658277 -317.8416883728688,-164.44797661554415 -320.3416883728696,-165.11784959666676 -322.8416883728927,-164.44797661562734 -324.67181539185407,-162.61784959672684 -325.34168837297665,-160.11784959672605 -324.67181539193723,-157.61784959670294 -322.84168837303673,-155.78772257774156 -320.34168837303594,-155.11784959661895" stroke="#00f" stroke-linecap="round" stroke-linejoin="round"/><polyline fill="none" points="-305.74763546215297,-116.61073205919959 -303.2476354621299,-117.28060504023901 -301.4175084431685,-119.11073205913951 -300.74763546204593,-121.61073205914032 -301.41750844308535,-124.11073205916341 -303.24763546198585,-125.9408590781248 -305.74763546198665,-126.61073205924741 -308.2476354620097,-125.94085907820799 -310.0777624809711,-124.1107320593075 -310.7476354620937,-121.61073205930668 -310.07776248105426,-119.11073205928359 -308.24763546215377,-117.2806050403222 -305.74763546215297,-116.61073205919959" stroke="#ffa500" stroke-linecap="round" stroke-linejoin="round"/><polyline fill="none" points="-337.29013184682157,-147.26458964371594 -334.7901318467985,-147.93446262475535 -332.9600048278371,-149.76458964365585 -332.29013184671453,-152.26458964365665 -332.96000482775395,-154.76458964367976 -334.79013184665445,-156.59471666264116 -337.29013184665524,-157.26458964376377 -339.7901318466783,-156.59471666272435 -341.6202588656397,-154.76458964382385 -342.2901318467623,-152.26458964382306 -341.62025886572286,-149.76458964379995 -339.79013184682236,-147.93446262483855 -337.29013184682157,-147.26458964371594" stroke="#008000" stroke-linecap="round" stroke-linejoin="round"/><polyline fill="none" points="-156.3585194594455,28.673736630693277 -153.85851945942238,28.003863649653866 -152.02839244046098,26.173736630753375 -151.35851945933837,23.67373663075257 -152.0283924403778,21.17373663072947 -153.85851945927828,19.343609611768073 -156.35851945927908,18.673736630645465 -158.8585194593022,19.343609611684876 -160.6886464782636,21.173736630585367 -161.3585194593862,23.673736630586173 -160.68864647834678,26.173736630609273 -158.85851945944628,28.003863649570672 -156.3585194594455,28.673736630693284" stroke="#ffa500" stroke-linecap="round" stroke-linejoin="round"/><polyline fill="none" points="63.27384730814111,-34.19165819087991 65.7738473081642,-34.861531171919324 67.6039743271256,-36.691658190819815 68.27384730824821,-39.191658190820625 67.6039743272088,-41.691658190843725 65.77384730830832,-43.521785209805124 63.27384730830751,-44.19165819092773 60.77384730828441,-43.52178520988833 58.94372028932301,-41.69165819098784 58.273847308200395,-39.19165819098703 58.9437202892398,-36.69165819096393 60.77384730814029,-34.86153117200253 63.2738473081411,-34.19165819087991" stroke="#ffa500" stroke-linecap="round" stroke-linejoin="round"/><polyline fill="none" points="-302.8595794576106,-125.19091104242366 -300.35957945758753,-125.86078402346307 -298.52945243862615,-127.69091104236355 -297.8595794575035,-130.19091104236435 -298.52945243854293,-132.69091104238746 -300.35957945744343,-134.52103806134886 -302.8595794574442,-135.19091104247147 -305.3595794574673,-134.52103806143205 -307.1897064764287,-132.69091104253155 -307.8595794575513,-130.19091104253076 -307.1897064765119,-127.69091104250765 -305.3595794576114,-125.86078402354624 -302.8595794576106,-125.19091104242362" stroke="#ffa500" stroke-linecap="round" stroke-linejoin="round"/><polyline fill="none" points="-344.2292658613371,-125.56644387402812 -341.72926586131405,-126.23631685506753 -339.89913884235267,-128.066443873968 -339.22926586123003,-130.5664438739688 -339.89913884226945,-133.06644387399191 -341.72926586116995,-134.89657089295332 -344.22926586117075,-135.56644387407593 -346.7292658611938,-134.89657089303654 -348.5593928801552,-133.06644387413604 -349.22926586127784,-130.56644387413525 -348.5593928802384,-128.06644387411214 -346.7292658613379,-126.23631685515073 -344.2292658613371,-125.56644387402811" stroke="#00f" stroke-linecap="round" stroke-linejoin="round"/><polyline fill="none" points="-354.94209184099094,-177.2597808591549 -352.44209184096786,-177.92965384019428 -350.6119648220065,-179.75978085909477 -349.94209184088385,-182.25978085909557 -350.61196482192327,-184.75978085911868 -352.44209184082376,-186.58990787808008 -354.94209184082456,-187.2597808592027 -357.44209184084764,-186.5899078781633 -359.2722188598091,-184.7597808592628 -359.9420918409317,-182.259780859262 -359.2722188598923,-179.7597808592389 -357.4420918409918,-177.9296538402775 -354.942091840991,-177.2597808591549" stroke="#ffa500" stroke-linecap="round" stroke-linejoin="round"/><polyline fill="none" points="-347.8463152448298,-156.44394752165286 -345.3463152448067,-157.11382050269225 -343.51618822584527,-158.94394752159275 -342.84631524472263,-161.44394752159354 -343.51618822576205,-163.94394752161665 -345.34631524466255,-165.77407454057806 -347.84631524466334,-166.4439475217007 -350.3463152446865,-165.7740745406613 -352.1764422636479,-163.94394752176083 -352.84631524477055,-161.44394752176004 -352.17644226373113,-158.94394752173693 -350.34631524483063,-157.11382050277552 -347.84631524482984,-156.4439475216529" stroke="#008000" stroke-linecap="round" stroke-linejoin="round"/><polyline fill="none" points="-250.628936582192,-16.96701768686167 -248.1289365821689,-17.636890667901067 -246.2988095632075,-19.46701768680155 -245.62893658208486,-21.967017686802357 -246.29880956312425,-24.467017686825464 -248.12893658202472,-26.297144705786874 -250.62893658202552,-26.9670176869095 -253.12893658204862,-26.297144705870103 -254.95906360101003,-24.46701768696962 -255.62893658213267,-21.967017686968813 -254.95906360109328,-19.467017686945702 -253.1289365821928,-17.63689066798429 -250.628936582192,-16.967017686861663" stroke="#ffa500" stroke-linecap="round" stroke-linejoin="round"/><polyline fill="none" points="-284.24901230948586,-48.03542865868 -281.7490123094627,-48.705301639719394 -279.9188852905013,-50.53542865861988 -279.24901230937866,-53.03542865862069 -279.9188852904181,-55.535428658643795 -281.7490123093186,-57.36555567760521 -284.24901230931937,-58.03542865872784 -286.7490123093425,-57.36555567768845 -288.57913932830394,-55.535428658787964 -289.2490123094266,-53.035428658787154 -288.57913932838716,-50.53542865876405 -286.74901230948666,-48.705301639802634 -284.24901230948586,-48.035428658680004" stroke="#ffa500" stroke-linecap="round" stroke-linejoin="round"/><polyline fill="none" points="-311.8642261750119,-144.52227577138007 -309.36422617498874,-145.19214875241946 -307.5340991560273,-147.02227577131993 -306.8642261749047,-149.52227577132072 -307.5340991559441,-152.02227577134383 -309.3642261748446,-153.85240279030523 -311.8642261748454,-154.52227577142787 -314.3642261748685,-153.85240279038848 -316.19435319382995,-152.022275771488 -316.8642261749526,-149.52227577148722 -316.1943531939132,-147.0222757714641 -314.3642261750127,-145.1921487525027 -311.8642261750119,-144.52227577138007" stroke="#ffa500" stroke-linecap="round" stroke-linejoin="round"/><polyline fill="none" points="-332.4226875894892,-130.21834741262347 -329.9226875894661,-130.88822039366286 -328.09256057050465,-132.71834741256333 -327.422687589382,-135.21834741256413 -328.09256057042137,-137.71834741258724 -329.92268758932187,-139.54847443154864 -332.42268758932266,-140.21834741267128 -334.9226875893458,-139.5484744316319 -336.75281460830723,-137.71834741273142 -337.42268758942987,-135.21834741273062 -336.7528146083905,-132.71834741270752 -334.92268758949,-130.8882203937461 -332.4226875894892,-130.21834741262347" stroke="#00f" stroke-linecap="round" stroke-linejoin="round"/><polyline fill="none" points="-324.5049502798764,-142.31138797406956 -322.0049502798533,-142.98126095510895 -320.17482326089186,-144.81138797400942 -319.5049502797692,-147.31138797401022 -320.1748232608086,-149.81138797403332 -322.0049502797091,-151.64151499299473 -324.5049502797099,-152.31138797411737 -327.004950279733,-151.64151499307798 -328.83507729869444,-149.8113879741775 -329.5049502798171,-147.3113879741767 -328.8350772987777,-144.8113879741536 -327.0049502798772,-142.98126095519217 -324.5049502798764,-142.31138797406953" stroke="#00f" stroke-linecap="round" stroke-linejoin="round"/><polyline fill="none" points="-183.5127138324158,-78.93619319027738 -181.0127138323927,-79.60606617131677 -179.18258681343127,-81.43619319021724 -178.51271383230863,-83.93619319021805 -179.18258681334802,-86.43619319024117 -181.0127138322485,-88.26632020920259 -183.5127138322493,-88.93619319032523 -186.0127138322724,-88.26632020928584 -187.84284085123383,-86.43619319038537 -188.51271383235647,-83.93619319038456 -187.84284085131708,-81.43619319036144 -186.0127138324166,-79.60606617140002 -183.5127138324158,-78.93619319027738" stroke="#ffa500" stroke-linecap="round" stroke-linejoin="round"/><polyline fill="none" points="-297.9079832861017,-116.39979645380616 -295.40798328607855,-117.06966943484554 -293.5778562671171,-118.899796453746 -292.9079832859945,-121.39979645374682 -293.57785626703384,-123.89979645376994 -295.40798328593434,-125.72992347273136 -297.90798328593513,-126.399796453854 -300.40798328595827,-125.72992347281462 -302.2381103049197,-123.89979645391415 -302.90798328604234,-121.39979645391334 -302.238110305003,-118.89979645389022 -300.4079832861025,-117.0696694349288 -297.9079832861017,-116.39979645380616" stroke="#ffa500" stroke-linecap="round" stroke-linejoin="round"/><polyline fill="none" points="-276.40514053377035,-53.5808887461205 -273.9051405337472,-54.25076172715988 -272.0750135147858,-56.08088874606036 -271.40514053366314,-58.58088874606117 -272.0750135147025,-61.080888746084284 -273.905140533603,-62.91101576504571 -276.4051405336038,-63.580888746168355 -278.90514053362693,-62.91101576512898 -280.73526755258837,-61.08088874622851 -281.405140533711,-58.5808887462277 -280.73526755267164,-56.08088874620458 -278.90514053377115,-54.25076172724315 -276.40514053377035,-53.58088874612051" stroke="#ffa500" stroke-linecap="round" stroke-linejoin="round"/><polyline fill="none" points="-286.76968621008604,-130.98619802089578 -284.2696862100629,-131.65607100193517 -282.43955919110147,-133.48619802083564 -281.76968620997883,-135.98619802083644 -282.4395591910182,-138.48619802085955 -284.2696862099187,-140.31632503982098 -286.7696862099195,-140.98619802094362 -289.2696862099426,-140.31632503990423 -291.09981322890405,-138.48619802100376 -291.7696862100267,-135.98619802100296 -291.09981322898733,-133.48619802097986 -289.26968621008683,-131.65607100201842 -286.76968621008604,-130.98619802089578" stroke="#00f" stroke-linecap="round" stroke-linejoin="round"/><polyline fill="none" points="-185.87422030425353,11.070479631717145 -183.37422030423042,10.40060665067777 -181.54409328526899,8.5704796317773 -180.87422030414635,6.070479631776493 -181.5440932851857,3.570479631753374 -183.37422030408618,1.7403526127919422 -185.87422030408698,1.0704796316692922 -188.37422030411008,1.7403526127086666 -190.20434732307152,3.5704796316091363 -190.87422030419415,6.070479631609942 -190.2043473231548,8.570479631633063 -188.37422030425432,10.400606650594495 -185.87422030425353,11.070479631717147" stroke="#00f" stroke-linecap="round" stroke-linejoin="round"/><polyline fill="none" points="-283.45175150574033,-70.59085578465059 -280.9517515057172,-71.26072876568996 -279.12162448675576,-73.09085578459043 -278.4517515056331,-75.59085578459124 -279.1216244866725,-78.09085578461436 -280.95175150557293,-79.9209828035758 -283.4517515055737,-80.59085578469845 -285.95175150559686,-79.92098280365907 -287.7818785245583,-78.0908557847586 -288.45175150568093,-75.59085578475779 -287.78187852464157,-73.09085578473467 -285.95175150574113,-71.26072876577324 -283.45175150574033,-70.59085578465059" stroke="#ffa500" stroke-linecap="round" stroke-linejoin="round"/><polyline fill="none" points="-347.5522120881514,-138.73411048689823 -345.0522120881283,-139.4039834679376 -343.22208506916684,-141.23411048683806 -342.5522120880442,-143.73411048683886 -343.22208506908356,-146.234110486862 -345.052212087984,-148.06423750582343 -347.5522120879848,-148.7341104869461 -350.05221208800793,-148.06423750590673 -351.88233910696937,-146.23411048700626 -352.552212088092,-143.73411048700547 -351.88233910705264,-141.23411048698233 -350.0522120881522,-139.4039834680209 -347.5522120881514,-138.73411048689823" stroke="#008000" stroke-linecap="round" stroke-linejoin="round"/><polyline fill="none" points="-340.07724716122533,-131.06949130468257 -337.5772471612022,-131.73936428572193 -335.74712014224076,-133.5694913046224 -335.0772471611181,-136.0694913046232 -335.7471201421575,-138.56949130464633 -337.5772471610579,-140.39961832360777 -340.0772471610587,-141.06949130473043 -342.57724716108186,-140.39961832369107 -344.4073741800433,-138.5694913047906 -345.07724716116593,-136.0694913047898 -344.40737418012657,-133.56949130476667 -342.5772471612261,-131.73936428580524 -340.07724716122533,-131.06949130468257" stroke="#ffa500" stroke-linecap="round" stroke-linejoin="round"/><polyline fill="none" points="364.3949582592595,-168.5689994512241 366.89495825928265,-169.23887243226346 368.7250852782441,-171.06899945116393 369.3949582593667,-173.56899945116473 368.72508527832736,-176.06899945118786 366.8949582594269,-177.8991264701493 364.3949582594261,-178.56899945127196 361.894958259403,-177.8991264702326 360.06483124044155,-176.06899945133213 359.3949582593189,-173.56899945133134 360.0648312403583,-171.0689994513082 361.8949582592587,-169.23887243234677 364.3949582592595,-168.5689994512241" stroke="#ffa500" stroke-linecap="round" stroke-linejoin="round"/></svg>