<?xml version="1.0" ?><!DOCTYPE svg  PUBLIC '-//W3C//DTD SVG 1.1//EN'  'http://www.w3.org/Graphics/SVG/1.1/DTD/svg11.dtd'><svg height="289.000" viewBox="-383.000 -200.000 784.000 289.000" width="784.000" xmlns="http://www.w3.org/2000/svg"><line fill="none" stroke="none" stroke-linecap="round" stroke-width="2.0" x1="0.0" x2="0.0" y1="0.0" y2="0.0"/><polygon fill="none" fill-rule="evenodd" points="0.0,0.0 0.0,0.0 0.0,0.0" stroke-linejoin="round"/><polyline fill="none" points="-353.00784242606676,-139.40280035432502 -350.50784242604345,-140.07267333536413 -348.67771540708173,-141.90280035426446 -348.00784242595876,-144.40280035426528 -348.6777154069979,-146.90280035428856 -350.5078424258982,-148.73292737325028 -353.007842425899,-149.40280035437323 -355.5078424259223,-148.73292737333412 -357.33796944488404,-146.9028003544338 -358.007842426007,-144.40280035443297 -357.3379694449679,-141.9028003544097 -355.50784242606755,-140.07267333544797 -353.00784242606676,-139.402800354325" stroke="#00f" stroke-linecap="round" stroke-linejoin="round"/><polyline fill="none" points="-336.0931028449418,-152.23781526060532 -333.5931028449185,-152.90768824164442 -331.7629758259568,-154.73781526054475 -331.0931028448338,-157.23781526054557 -331.76297582587296,-159.73781526056885 -333.5931028447733,-161.56794227953057 -336.0931028447741,-162.23781526065355 -338.5931028447974,-161.56794227961444 -340.4232298637591,-159.73781526071411 -341.0931028448821,-157.2378152607133 -340.42322986384295,-154.73781526069 -338.5931028449426,-152.9076882417283 -336.0931028449418,-152.23781526060532" stroke="#008000" stroke-linecap="round" stroke-linejoin="round"/><polyline fill="none" points="-259.7570788336612,-123.19907322561465 -257.2570788336379,-123.86894620665376 -255.42695181467616,-125.69907322555409 -254.75707883355318,-128.1990732255549 -255.4269518145923,-130.69907322557822 -257.2570788334926,-132.52920024453994 -259.7570788334934,-133.19907322566291 -262.2570788335167,-132.5292002446238 -264.0872058524784,-130.69907322572348 -264.7570788336014,-128.19907322572266 -264.0872058525623,-125.69907322569937 -262.257078833662,-123.86894620673765 -259.7570788336612,-123.19907322561468" stroke="#ffa500" stroke-linecap="round" stroke-linejoin="round"/><polyline fill="none" points="-340.8270727279745,-154.55409868673723 -338.3270727279512,-155.22397166777634 -336.4969457089895,-157.05409868667667 -335.8270727278665,-159.5540986866775 -336.49694570890557,-162.0540986867008 -338.3270727278059,-163.88422570566252 -340.8270727278067,-164.5540986867855 -343.32707272783,-163.8842257057464 -345.1571997467917,-162.05409868684606 -345.8270727279147,-159.55409868684524 -345.1571997468756,-157.05409868682193 -343.3270727279753,-155.2239716678602 -340.8270727279745,-154.55409868673723" stroke="#008000" stroke-linecap="round" stroke-linejoin="round"/><polyline fill="none" points="-351.2167791014581,-128.38954238992872 -348.7167791014348,-129.05941537096783 -346.88665208247306,-130.88954238986815 -346.2167791013501,-133.38954238986898 -346.88665208238916,-135.88954238989228 -348.7167791012895,-137.719669408854 -351.2167791012903,-138.38954238997698 -353.7167791013136,-137.71966940893788 -355.5469061202753,-135.88954239003755 -356.2167791013983,-133.38954239003672 -355.5469061203592,-130.88954239001342 -353.7167791014589,-129.0594153710517 -351.2167791014581,-128.38954238992872" stroke="#00f" stroke-linecap="round" stroke-linejoin="round"/><polyline fill="none" points="-364.89568510607745,-177.6924530026919 -362.39568510605415,-178.362325983731 -360.5655580870924,-180.19245300263134 -359.89568510596945,-182.69245300263216 -360.5655580870085,-185.19245300265547 -362.39568510590885,-187.0225800216172 -364.89568510590965,-187.69245300274017 -367.39568510593296,-187.02258002170106 -369.2258121248947,-185.19245300280073 -369.89568510601765,-182.6924530027999 -369.2258121249786,-180.1924530027766 -367.39568510607825,-178.36232598381488 -364.89568510607745,-177.6924530026919" stroke="#00f" stroke-linecap="round" stroke-linejoin="round"/><polyline fill="none" points="364.3868613398236,-159.19747266535148 366.8868613398469,-159.8673456463906 368.71698835880863,-161.69747266529092 369.3868613399316,-164.19747266529174 368.71698835889254,-166.69747266531505 366.8868613399922,-168.52759968427677 364.3868613399914,-169.19747266539974 361.8868613399681,-168.52759968436064 360.0567343210064,-166.6974726654603 359.3868613398834,-164.1974726654595 360.0567343209225,-161.69747266543618 361.8868613398228,-159.86734564647446 364.3868613398236,-159.19747266535148" stroke="#ffa500" stroke-linecap="round" stroke-linejoin="round"/><polyline fill="none" points="-346.1966002629747,-140.24320366600995 -343.6966002629514,-140.91307664704905 -341.8664732439897,-142.74320366594938 -341.1966002628667,-145.2432036659502 -341.8664732439058,-147.7432036659735 -343.6966002628061,-149.57333068493523 -346.1966002628069,-150.2432036660582 -348.6966002628302,-149.5733306850191 -350.5267272817919,-147.74320366611877 -351.1966002629149,-145.24320366611795 -350.5267272818758,-142.74320366609464 -348.6966002629755,-140.91307664713293 -346.1966002629747,-140.24320366600995" stroke="#00f" stroke-linecap="round" stroke-linejoin="round"/><polyline fill="none" points="72.20840712967494,-38.518220912238725 74.70840712969824,-39.18809389327782 76.53853414865998,-41.01822091217813 77.20840712978297,-43.51822091217895 76.53853414874388,-46.018220912202246 74.70840712984356,-47.84834793116398 72.20840712984274,-48.518220912286964 69.70840712981943,-47.84834793124787 67.8782801108577,-46.01822091234756 67.20840712973471,-43.518220912346735 67.8782801107738,-41.018220912323436 69.70840712967411,-39.1880938933617 72.20840712967494,-38.51822091223872" stroke="#ffa500" stroke-linecap="round" stroke-linejoin="round"/><polyline fill="none" points="384.48113434141425,-173.65966385869774 386.98113434143755,-174.32953683973682 388.81126136039927,-176.15966385863712 389.48113434152225,-178.65966385863794 388.8112613604832,-181.15966385866125 386.98113434158284,-182.989790877623 384.48113434158205,-183.65966385874597 381.98113434155874,-182.9897908777069 380.151007322597,-181.1596638588066 379.48113434147405,-178.65966385880577 380.1510073225131,-176.15966385878247 381.98113434141345,-174.32953683982072 384.48113434141425,-173.65966385869774" stroke="#00f" stroke-linecap="round" stroke-linejoin="round"/><polyline fill="none" points="-357.28616112499594,-168.88548453843174 -354.78616112497264,-169.55535751947082 -352.9560341060109,-171.38548453837112 -352.28616112488794,-173.88548453837194 -352.956034105927,-176.38548453839525 -354.78616112482734,-178.215611557357 -357.28616112482814,-178.88548453847997 -359.78616112485145,-178.2156115574409 -361.61628814381316,-176.3854845385406 -362.28616112493614,-173.88548453853977 -361.61628814389707,-171.38548453851647 -359.78616112499674,-169.55535751955472 -357.28616112499594,-168.8854845384317" stroke="#00f" stroke-linecap="round" stroke-linejoin="round"/><polyline fill="none" points="-280.31623331151235,-90.48036075639186 -277.81623331148904,-91.15023373743094 -275.9861062925273,-92.98036075633125 -275.31623331140435,-95.48036075633208 -275.9861062924434,-97.98036075635538 -277.81623331134375,-99.81048777531711 -280.31623331134455,-100.4803607564401 -282.81623331136785,-99.81048777540103 -284.64636033032957,-97.98036075650072 -285.31623331145255,-95.48036075649989 -284.6463603304135,-92.98036075647659 -282.81623331151314,-91.15023373751485 -280.31623331151235,-90.48036075639186" stroke="#00f" stroke-linecap="round" stroke-linejoin="round"/><polyline fill="none" points="-309.2990937447619,-154.09009124541748 -306.79909374473857,-154.75996422645656 -304.96896672577685,-156.59009124535686 -304.2990937446539,-159.09009124535768 -304.96896672569295,-161.590091245381 -306.7990937445933,-163.42021826434274 -309.2990937445941,-164.09009124546574 -311.7990937446174,-163.42021826442667 -313.6292207635791,-161.59009124552637 -314.2990937447021,-159.09009124552554 -313.629220763663,-156.59009124550224 -311.7990937447627,-154.7599642265405 -309.2990937447619,-154.09009124541748" stroke="#ffa500" stroke-linecap="round" stroke-linejoin="round"/><polyline fill="none" points="-265.0781229382983,-49.207803051437295 -262.578122938275,-49.87767603247637 -260.74799591931327,-51.70780305137668 -260.0781229381903,-54.2078030513775 -260.74799591922937,-56.70780305140081 -262.5781229381297,-58.53793007036255 -265.0781229381305,-59.20780305148555 -267.5781229381538,-58.53793007044647 -269.4082499571155,-56.707803051546165 -270.0781229382385,-54.20780305154534 -269.4082499571994,-51.707803051522035 -267.5781229382991,-49.877676032560295 -265.0781229382983,-49.207803051437295" stroke="#ffa500" stroke-linecap="round" stroke-linejoin="round"/><polyline fill="none" points="-265.0017919696798,-115.51795690991243 -262.5017919696565,-116.1878298909515 -260.6716649506948,-118.01795690985182 -260.0017919695718,-120.51795690985264 -260.6716649506109,-123.01795690987595 -262.5017919695112,-124.8480839288377 -265.001791969512,-125.5179569099607 -267.5017919695353,-124.84808392892162 -269.331918988497,-123.01795691002131 -270.00179196962,-120.51795691002049 -269.3319189885809,-118.01795690999718 -267.5017919696806,-116.18782989103543 -265.0017919696798,-115.51795690991243" stroke="#ffa500" stroke-linecap="round" stroke-linejoin="round"/><polyline fill="none" points="-358.7971296023684,-174.76621242727188 -356.2971296023451,-175.43608540831096 -354.46700258338336,-177.26621242721126 -353.7971296022604,-179.76621242721208 -354.46700258329946,-182.2662124272354 -356.2971296021998,-184.09633944619713 -358.7971296022006,-184.76621242732014 -361.2971296022239,-184.09633944628106 -363.1272566211856,-182.26621242738076 -363.7971296023086,-179.76621242737994 -363.1272566212695,-177.26621242735663 -361.2971296023692,-175.4360854083949 -358.7971296023684,-174.76621242727188" stroke="#00f" stroke-linecap="round" stroke-linejoin="round"/><polyline fill="none" points="-296.87845284936793,-129.2077990667879 -294.3784528493446,-129.877672047827 -292.54832583038285,-131.7077990667273 -291.8784528492598,-134.20779906672811 -292.5483258302989,-136.70779906675142 -294.3784528491992,-138.53792608571317 -296.8784528492,-139.20779906683617 -299.3784528492233,-138.5379260857971 -301.2085798681851,-136.7077990668968 -301.87845284930813,-134.20779906689597 -301.20857986826906,-131.70779906687267 -299.3784528493687,-129.87767204791092 -296.87845284936793,-129.2077990667879" stroke="#00f" stroke-linecap="round" stroke-linejoin="round"/><polyline fill="none" points="-282.27818081319634,-41.215841128529945 -279.77818081317304,-41.885714109569015 -277.94805379421126,-43.71584112846932 -277.2781808130882,-46.215841128470146 -277.9480537941273,-48.71584112849346 -279.77818081302763,-50.54596814745521 -282.2781808130284,-51.21584112857823 -284.77818081305173,-50.545968147539156 -286.6083078320135,-48.71584112863886 -287.27818081313654,-46.21584112863803 -286.60830783209747,-43.71584112861472 -284.77818081319714,-41.885714109652966 -282.27818081319634,-41.21584112852995" stroke="#ffa500" stroke-linecap="round" stroke-linejoin="round"/><polyline fill="none" points="-367.2488722910316,-179.36141463092574 -364.7488722910083,-180.0312876119648 -362.9187452720465,-181.8614146308651 -362.2488722909235,-184.36141463086594 -362.91874527196256,-186.86141463088924 -364.7488722908629,-188.691541649851 -367.2488722908637,-189.361414630974 -369.748872290887,-188.69154164993492 -371.57899930984877,-186.86141463103462 -372.2488722909718,-184.3614146310338 -371.5789993099327,-181.8614146310105 -369.7488722910324,-180.03128761204874 -367.2488722910316,-179.36141463092574" stroke="#00f" stroke-linecap="round" stroke-linejoin="round"/><polyline fill="none" points="40.55343009170791,-46.8091484746402 43.05343009173122,-47.479021455679266 44.883557110692976,-49.309148474579565 45.55343009181599,-51.80914847458038 44.88355711077693,-54.309148474603695 43.05343009187663,-56.13927549356545 40.5534300918758,-56.80914847468846 38.05343009185249,-56.1392754936494 36.22330307289074,-54.3091484747491 35.55343009176772,-51.809148474748284 36.223303072806786,-49.30914847472497 38.053430091707085,-47.47902145576322 40.55343009170791,-46.809148474640196" stroke="#00f" stroke-linecap="round" stroke-linejoin="round"/><polyline fill="none" points="-288.5227218050598,-110.74122796602481 -286.0227218050365,-111.41110094706387 -284.1925947860747,-113.24122796596417 -283.5227218049517,-115.741227965965 -284.19259478599076,-118.24122796598832 -286.02272180489103,-120.07135498495008 -288.52272180489183,-120.7412279660731 -291.02272180491514,-120.07135498503403 -292.8528488238769,-118.24122796613374 -293.52272180499995,-115.74122796613291 -292.85284882396087,-113.24122796610959 -291.0227218050606,-111.41110094714783 -288.5227218050598,-110.74122796602481" stroke="#ffa500" stroke-linecap="round" stroke-linejoin="round"/><polyline fill="none" points="-330.85713358646876,-147.48416122803636 -328.35713358644546,-148.1540342090754 -326.5270065674837,-149.9841612279757 -325.85713358636065,-152.48416122797653 -326.5270065673997,-154.98416122799983 -328.3571335863,-156.8142882469616 -330.8571335863008,-157.48416122808464 -333.3571335863241,-156.8142882470456 -335.18726060528587,-154.9841612281453 -335.8571335864089,-152.48416122814447 -335.18726060536983,-149.98416122812117 -333.35713358646956,-148.1540342091594 -330.85713358646876,-147.48416122803636" stroke="#ffa500" stroke-linecap="round" stroke-linejoin="round"/><polyline fill="none" points="-241.66608837347604,-113.0301330743606 -239.16608837345274,-113.70000605539967 -237.33596135449096,-115.53013307429997 -236.66608837336793,-118.03013307430079 -237.33596135440698,-120.53013307432411 -239.16608837330728,-122.36026009328587 -241.6660883733081,-123.0301330744089 -244.16608837333143,-122.36026009336983 -245.9962153922932,-120.53013307446953 -246.66608837341624,-118.03013307446871 -245.9962153923772,-115.53013307444539 -244.1660883734769,-113.70000605548363 -241.66608837347607,-113.0301330743606" stroke="#ffa500" stroke-linecap="round" stroke-linejoin="round"/><polyline fill="none" points="-354.0651905882577,-141.86868301749067 -351.5651905882344,-142.53855599852972 -349.7350635692726,-144.36868301743002 -349.06519058814956,-146.86868301743084 -349.73506356918864,-149.36868301745417 -351.5651905880889,-151.19881003641595 -354.0651905880897,-151.86868301753898 -356.565190588113,-151.19881003649994 -358.3953176070748,-149.36868301759964 -359.0651905881978,-146.8686830175988 -358.39531760715874,-144.36868301757548 -356.5651905882585,-142.5385559986137 -354.0651905882577,-141.86868301749067" stroke="#00f" stroke-linecap="round" stroke-linejoin="round"/><polyline fill="none" points="-185.30423416377604,56.99585576247138 -182.8042341637527,56.32598278143232 -180.97410714479093,54.49585576253203 -180.3042341636679,51.99585576253121 -180.97410714470695,49.49585576250789 -182.80423416360725,47.66572874354612 -185.30423416360807,46.99585576242309 -187.8042341636314,47.66572874346215 -189.63436118259318,49.49585576236244 -190.30423416371622,51.99585576236326 -189.63436118267717,54.49585576238658 -187.80423416377687,56.32598278134835 -185.30423416377604,56.99585576247138" stroke="#ffa500" stroke-linecap="round" stroke-linejoin="round"/><polyline fill="none" points="-260.79869504884266,-107.30760708647976 -258.29869504881935,-107.97748006751881 -256.4685680298576,-109.8076070864191 -255.79869504873454,-112.30760708641992 -256.4685680297736,-114.80760708644324 -258.2986950486739,-116.63773410540502 -260.7986950486747,-117.30760708652805 -263.298695048698,-116.637734105489 -265.12882206765977,-114.80760708658872 -265.7986950487828,-112.3076070865879 -265.1288220677437,-109.80760708656457 -263.29869504884346,-107.9774800676028 -260.79869504884266,-107.30760708647976" stroke="#ffa500" stroke-linecap="round" stroke-linejoin="round"/><polyline fill="none" points="359.29787904055996,-169.4375981418776 361.79787904058327,-170.10747112291665 363.62800605954504,-171.93759814181695 364.2978790406681,-174.43759814181777 363.62800605962906,-176.9375981418411 361.7978790407288,-178.76772516080288 359.297879040728,-179.43759814192592 356.7978790407047,-178.76772516088687 354.9677520217429,-176.93759814198657 354.2978790406199,-174.43759814198575 354.9677520216589,-171.9375981419624 356.79787904055917,-170.10747112300064 359.29787904055996,-169.4375981418776" stroke="#ffa500" stroke-linecap="round" stroke-linejoin="round"/><polyline fill="none" points="-283.08581477270764,-148.67888068666474 -280.58581477268433,-149.3487536677038 -278.75568775372255,-151.1788806866041 -278.0858147725995,-153.6788806866049 -278.75568775363854,-156.17888068662825 -280.5858147725388,-158.00900770559002 -283.0858147725396,-158.67888068671306 -285.5858147725629,-158.009007705674 -287.4159417915247,-156.1788806867737 -288.0858147726477,-153.67888068677289 -287.4159417916087,-151.17888068674955 -285.58581477270843,-149.34875366778778 -283.08581477270764,-148.67888068666474" stroke="#ffa500" stroke-linecap="round" stroke-linejoin="round"/><polyline fill="none" points="-199.74909874822285,-67.70259318598622 -197.24909874819951,-68.37246616702527 -195.41897172923774,-70.20259318592555 -194.7490987481147,-72.70259318592637 -195.41897172915375,-75.20259318594971 -197.24909874805405,-77.03272020491148 -199.74909874805488,-77.70259318603452 -202.2490987480782,-77.03272020499547 -204.07922576704,-75.20259318609519 -204.74909874816302,-72.70259318609436 -204.07922576712397,-70.20259318607103 -202.24909874822367,-68.37246616710925 -199.74909874822285,-67.7025931859862" stroke="#ffa500" stroke-linecap="round" stroke-linejoin="round"/><polyline fill="none" points="-314.99433479265224,-118.48455530786568 -312.49433479262893,-119.15442828890471 -310.66420777366716,-120.984555307805 -309.9943347925441,-123.48455530780582 -310.66420777358314,-125.98455530782915 -312.4943347924834,-127.81468232679093 -314.9943347924842,-128.48455530791398 -317.4943347925075,-127.81468232687494 -319.3244618114693,-125.98455530797466 -319.9943347925923,-123.48455530797384 -319.3244618115533,-120.9845553079505 -317.49433479265304,-119.15442828898873 -314.99433479265224,-118.48455530786568" stroke="#ffa500" stroke-linecap="round" stroke-linejoin="round"/><polyline fill="none" points="-238.41245746518075,-103.49446511923772 -235.91245746515742,-104.16433810027675 -234.08233044619564,-105.99446511917704 -233.4124574650726,-108.49446511917786 -234.08233044611165,-110.9944651192012 -235.91245746501193,-112.82459213816298 -238.41245746501275,-113.49446511928603 -240.91245746503608,-112.824592138247 -242.74258448399786,-110.99446511934671 -243.4124574651209,-108.49446511934589 -242.74258448408185,-105.99446511932256 -240.91245746518157,-104.16433810036077 -238.41245746518075,-103.49446511923772" stroke="#ffa500" stroke-linecap="round" stroke-linejoin="round"/><polyline fill="none" points="-286.54000688159556,-127.18617690485553 -284.04000688157225,-127.85604988589456 -282.2098798626105,-129.68617690479485 -281.54000688148744,-132.18617690479567 -282.20987986252646,-134.686176904819 -284.04000688142673,-136.51630392378078 -286.54000688142753,-137.18617690490385 -289.04000688145084,-136.5163039238648 -290.8701339004126,-134.68617690496453 -291.54000688153565,-132.1861769049637 -290.8701339004966,-129.68617690494037 -289.04000688159636,-127.85604988597858 -286.54000688159556,-127.18617690485553" stroke="#00f" stroke-linecap="round" stroke-linejoin="round"/><polyline fill="none" points="-286.10097864126584,-45.84214339971021 -283.60097864124253,-46.512016380749245 -281.77085162228076,-48.34214339964953 -281.1009786411577,-50.842143399650354 -281.77085162219674,-53.34214339967369 -283.600978641097,-55.17227041863548 -286.1009786410978,-55.84214339975853 -288.6009786411211,-55.17227041871949 -290.4311056600829,-53.342143399819214 -291.1009786412059,-50.8421433998184 -290.4311056601669,-48.34214339979506 -288.60097864126664,-46.51201638083327 -286.10097864126584,-45.84214339971022" stroke="#00f" stroke-linecap="round" stroke-linejoin="round"/><polyline fill="none" points="-167.31125750944358,20.747264034710277 -164.81125750942024,20.077391053671246 -162.98113049045844,18.247264034770964 -162.31125750933538,15.747264034770144 -162.9811304903744,13.24726403474681 -164.81125750927467,11.41713701578502 -167.3112575092755,10.747264034661965 -169.81125750929883,11.417137015700996 -171.64138452826063,13.247264034601276 -172.3112575093837,15.747264034602097 -171.64138452834467,18.24726403462543 -169.8112575094444,20.07739105358722 -167.31125750944358,20.747264034710277" stroke="#ffa500" stroke-linecap="round" stroke-linejoin="round"/><polyline fill="none" points="-152.71850012596357,34.01633235973473 -150.21850012594024,33.346459378695705 -148.38837310697843,31.516332359795427 -147.71850012585537,29.016332359794607 -148.3883731068944,26.51633235977127 -150.21850012579466,24.686205340809476 -152.7185001257955,24.016332359686416 -155.21850012581882,24.686205340725444 -157.04862714478062,26.51633235962572 -157.7185001259037,29.016332359626542 -157.04862714486467,31.51633235964988 -155.2185001259644,33.34645937861168 -152.71850012596357,34.01633235973473" stroke="#ffa500" stroke-linecap="round" stroke-linejoin="round"/><polyline fill="none" points="369.4868550779419,-179.21454630128994 371.9868550779653,-179.88441928232896 373.81698209692706,-181.71454630122923 374.4868550780501,-184.21454630123006 373.8169820970111,-186.7145463012534 371.9868550781108,-188.5446733202152 369.48685507811,-189.21454630133826 366.98685507808665,-188.54467332029924 365.1567280591249,-186.71454630139897 364.48685507800184,-184.21454630139814 365.15672805904086,-181.7145463013748 366.98685507794113,-179.884419282413 369.4868550779419,-179.21454630128994" stroke="#ffa500" stroke-linecap="round" stroke-linejoin="round"/><polyline fill="none" points="-265.51354735546136,-39.208996023554164 -263.013547355438,-39.87886900459319 -261.1834203364762,-41.70899602349347 -260.5135473553532,-44.208996023494294 -261.1834203363922,-46.708996023517635 -263.0135473552925,-48.53912304247943 -265.51354735529327,-49.208996023602495 -268.01354735531663,-48.539123042563475 -269.8436743742784,-46.7089960236632 -270.5135473554015,-44.20899602366238 -269.8436743743625,-41.70899602363904 -268.0135473554622,-39.87886900467724 -265.5135473554614,-39.20899602355418" stroke="#ffa500" stroke-linecap="round" stroke-linejoin="round"/><polyline fill="none" points="54.96979983685563,-41.45287678133802 57.46979983687897,-42.12274976237704 59.299926855840766,-43.95287678127732 59.96979983696383,-46.45287678127814 59.29992685592481,-48.952876781301484 57.46979983702453,-50.78300380026328 54.96979983702371,-51.452876781386344 52.469799837000366,-50.78300380034732 50.63967281803856,-48.952876781447046 49.96979983691549,-46.45287678144622 50.63967281795451,-43.95287678142288 52.46979983685478,-42.122749762461076 54.96979983685561,-41.452876781338006" stroke="#ffa500" stroke-linecap="round" stroke-linejoin="round"/><polyline fill="none" points="373.0718328345847,-161.04228276145236 375.5718328346081,-161.71215574249138 377.40195985356985,-163.54228276139165 378.07183283469294,-166.04228276139247 377.4019598536539,-168.5422827614158 375.57183283475365,-170.3724097803776 373.07183283475285,-171.04228276150067 370.5718328347295,-170.37240978046165 368.7417058157677,-168.54228276156138 368.0718328346446,-166.04228276156056 368.74170581568364,-163.54228276153722 370.5718328345839,-161.71215574257542 373.0718328345847,-161.04228276145236" stroke="#ffa500" stroke-linecap="round" stroke-linejoin="round"/><polyline fill="none" points="70.14245373877569,-24.984024349055204 72.64245373879903,-25.65389733009422 74.47258075776084,-27.484024348994495 75.14245373888392,-29.984024348995316 74.4725807578449,-32.48402434901866 72.64245373894462,-34.314151367980465 70.1424537389438,-34.984024349103535 67.64245373892045,-34.314151368064515 65.81232671995865,-32.484024349164244 65.14245373883557,-29.984024349163423 65.81232671987459,-27.48402434914008 67.64245373877486,-25.653897330178275 70.14245373877569,-24.9840243490552" stroke="#ffa500" stroke-linecap="round" stroke-linejoin="round"/><polyline fill="none" points="-226.566038575832,-117.7591461639008 -224.06603857580868,-118.42901914493982 -222.23591155684687,-120.25914616384009 -221.5660385757238,-122.75914616384091 -222.23591155676283,-125.25914616386426 -224.0660385756631,-127.08927318282606 -226.56603857566392,-127.75914616394914 -229.06603857568726,-127.08927318291012 -230.89616559464906,-125.25914616400985 -231.56603857577213,-122.75914616400902 -230.8961655947331,-120.25914616398568 -229.06603857583283,-118.42901914502387 -226.566038575832,-117.7591461639008" stroke="#ffa500" stroke-linecap="round" stroke-linejoin="round"/><polyline fill="none" points="-300.00194556414317,-127.9098546486087 -297.5019455641198,-128.57972762964772 -295.671818545158,-130.409854648548 -295.0019455640349,-132.90985464854882 -295.6718185450739,-135.40985464857215 -297.5019455639742,-137.23998166753395 -300.00194556397497,-137.90985464865702 -302.50194556399833,-137.239981667618 -304.33207258296017,-135.40985464871773 -305.00194556408326,-132.9098546487169 -304.33207258304424,-130.40985464869357 -302.50194556414397,-128.57972762973176 -300.00194556414317,-127.90985464860869" stroke="#ffa500" stroke-linecap="round" stroke-linejoin="round"/><polyline fill="none" points="-225.08281251957928,-111.04928074472592 -222.58281251955594,-111.71915372576493 -220.75268550059414,-113.5492807446652 -220.08281251947105,-116.04928074466602 -220.75268550051007,-118.54928074468937 -222.58281251941034,-120.37940776365119 -225.08281251941116,-121.04928074477426 -227.58281251943453,-120.37940776373526 -229.41293953839633,-118.54928074483499 -230.08281251951942,-116.04928074483416 -229.4129395384804,-113.54928074481082 -227.58281251958013,-111.719153725849 -225.0828125195793,-111.04928074472592" stroke="#ffa500" stroke-linecap="round" stroke-linejoin="round"/><polyline fill="none" points="-349.45399266487783,-138.59567684350586 -346.95399266485447,-139.26554982454488 -345.12386564589264,-141.09567684344515 -344.45399266476954,-143.59567684344597 -345.12386564580856,-146.09567684346933 -346.95399266470884,-147.92580386243114 -349.45399266470963,-148.59567684355423 -351.953992664733,-147.9258038625152 -353.7841196836948,-146.09567684361494 -354.4539926648179,-143.59567684361411 -353.7841196837789,-141.09567684359075 -351.9539926648786,-139.26554982462895 -349.45399266487783,-138.59567684350586" stroke="#008000" stroke-linecap="round" stroke-linejoin="round"/><polyline fill="none" points="-289.0300038480294,-82.83295208373845 -286.53000384800606,-83.50282506477745 -284.69987682904423,-85.33295208367772 -284.03000384792114,-87.83295208367855 -284.69987682896016,-90.3329520837019 -286.5300038478604,-92.16307910266372 -289.0300038478612,-92.83295208378681 -291.5300038478846,-92.1630791027478 -293.3601308668464,-90.33295208384753 -294.0300038479695,-87.8329520838467 -293.3601308669305,-85.33295208382336 -291.5300038480302,-83.50282506486154 -289.0300038480294,-82.83295208373845" stroke="#ffa500" stroke-linecap="round" stroke-linejoin="round"/><polyline fill="none" points="-262.8204759757546,-97.4008724834046 -260.32047597573126,-98.0707454644436 -258.4903489567694,-99.90087248334387 -257.82047597564633,-102.4008724833447 -258.49034895668535,-104.90087248336805 -260.3204759755856,-106.73099950232987 -262.8204759755864,-107.40087248345296 -265.3204759756098,-106.73099950241395 -267.1506029945716,-104.90087248351368 -267.8204759756947,-102.40087248351286 -267.1506029946557,-99.90087248348951 -265.3204759757554,-98.07074546452769 -262.8204759757546,-97.4008724834046" stroke="#ffa500" stroke-linecap="round" stroke-linejoin="round"/><polyline fill="none" points="-211.81958910823604,-84.06471761493614 -209.31958910821268,-84.73459059597515 -207.48946208925085,-86.56471761487542 -206.81958910812776,-89.06471761487624 -207.48946208916675,-91.56471761489959 -209.31958910806702,-93.39484463386141 -211.81958910806785,-94.0647176149845 -214.3195891080912,-93.3948446339455 -216.14971612705304,-91.56471761504523 -216.81958910817613,-89.0647176150444 -216.14971612713714,-86.56471761502104 -214.31958910823687,-84.73459059605922 -211.81958910823604,-84.06471761493613" stroke="#ffa500" stroke-linecap="round" stroke-linejoin="round"/><polyline fill="none" points="-296.48257671654835,-69.01969191235347 -293.982576716525,-69.68956489339246 -292.15244969756316,-71.51969191229271 -291.48257671644006,-74.01969191229354 -292.1524496974791,-76.5196919123169 -293.98257671637936,-78.34981893127873 -296.48257671638015,-79.01969191240183 -298.9825767164035,-78.34981893136283 -300.81270373536535,-76.51969191246258 -301.48257671648844,-74.01969191246175 -300.8127037354494,-71.51969191243839 -298.98257671654915,-69.68956489347656 -296.48257671654835,-69.01969191235347" stroke="#00f" stroke-linecap="round" stroke-linejoin="round"/><polyline fill="none" points="-329.62810786060726,-102.79276487119876 -327.1281078605839,-103.46263785223775 -325.29798084162206,-105.292764871138 -324.628107860499,-107.79276487113883 -325.297980841538,-110.29276487116219 -327.12810786043826,-112.12289189012402 -329.62810786043906,-112.79276487124712 -332.1281078604624,-112.12289189020812 -333.95823487942425,-110.29276487130787 -334.62810786054735,-107.79276487130704 -333.9582348795083,-105.29276487128368 -332.12810786060805,-103.46263785232185 -329.62810786060726,-102.79276487119876" stroke="#00f" stroke-linecap="round" stroke-linejoin="round"/><polyline fill="none" points="-325.40726748776046,-109.40944766963442 -322.9072674877371,-110.07932065067341 -321.07714046877527,-111.90944766957367 -320.4072674876522,-114.40944766957449 -321.0771404686912,-116.90944766959785 -322.90726748759147,-118.73957468855969 -325.40726748759226,-119.40944766968279 -327.9072674876156,-118.7395746886438 -329.73739450657746,-116.90944766974354 -330.40726748770055,-114.40944766974272 -329.73739450666153,-111.90944766971936 -327.90726748776126,-110.07932065075752 -325.40726748776046,-109.40944766963442" stroke="#ffa500" stroke-linecap="round" stroke-linejoin="round"/><polyline fill="none" points="-196.24114764091473,-56.51770082095298 -193.74114764089137,-57.187573801991974 -191.91102062192954,-59.01770082089223 -191.24114764080645,-61.517700820893054 -191.91102062184544,-64.01770082091642 -193.7411476407457,-65.84782783987825 -196.24114764074653,-66.51770082100136 -198.7411476407699,-65.84782783996236 -200.57127465973173,-64.0177008210621 -201.24114764085482,-61.51770082106128 -200.57127465981583,-59.01770082103792 -198.74114764091556,-57.18757380207609 -196.24114764091473,-56.51770082095298" stroke="#ffa500" stroke-linecap="round" stroke-linejoin="round"/><polyline fill="none" points="-152.7131668076503,21.940901443106284 -150.21316680762695,21.271028462067296 -148.38303978866512,19.44090144316704 -147.71316680754202,16.940901443166215 -148.38303978858102,14.440901443142852 -150.2131668074813,12.610774424181017 -152.7131668074821,11.94090144305791 -155.21316680750547,12.610774424096899 -157.0432938264673,14.440901442997156 -157.71316680759043,16.94090144299798 -157.04329382655143,19.440901443021342 -155.2131668076512,21.271028461983178 -152.71316680765037,21.940901443106284" stroke="#ffa500" stroke-linecap="round" stroke-linejoin="round"/><polyline fill="none" points="-308.6495047359759,-115.01951188803297 -306.1495047359525,-115.68938486907196 -304.3193777169907,-117.51951188797221 -303.6495047358676,-120.01951188797304 -304.31937771690656,-122.5195118879964 -306.14950473580683,-124.34963890695823 -308.6495047358076,-125.01951188808134 -311.149504735831,-124.34963890704235 -312.9796317547928,-122.51951188814209 -313.6495047359159,-120.01951188814127 -312.97963175487695,-117.5195118881179 -311.1495047359767,-115.68938486915607 -308.6495047359759,-115.01951188803297" stroke="#00f" stroke-linecap="round" stroke-linejoin="round"/><polyline fill="none" points="-345.6149389430811,-140.60899448198634 -343.1149389430577,-141.27886746302534 -341.2848119240959,-143.10899448192558 -340.6149389429728,-145.6089944819264 -341.28481192401176,-148.10899448194976 -343.11493894291203,-149.9391215009116 -345.61493894291283,-150.60899448203472 -348.1149389429362,-149.93912150099573 -349.945065961898,-148.10899448209548 -350.6149389430211,-145.60899448209466 -349.94506596198215,-143.1089944820713 -348.1149389430819,-141.27886746310946 -345.6149389430811,-140.60899448198634" stroke="#00f" stroke-linecap="round" stroke-linejoin="round"/><polyline fill="none" points="-174.66634240736866,77.2295658522139 -172.1663424073453,76.55969287117492 -170.33621538838347,74.72956585227466 -169.66634240726034,72.22956585227384 -170.33621538829934,69.72956585225047 -172.16634240719958,67.89943883328863 -174.6663424072004,67.2295658521655 -177.16634240722377,67.89943883320448 -178.9964694261856,69.72956585210474 -179.66634240730872,72.22956585210557 -178.99646942626973,74.72956585212893 -177.16634240736948,76.55969287109077 -174.66634240736866,77.2295658522139" stroke="#ffa500" stroke-linecap="round" stroke-linejoin="round"/><polyline fill="none" points="-310.44745007655706,-100.24434713766233 -307.9474500765337,-100.91422011870131 -306.11732305757187,-102.74434713760157 -305.4474500764488,-105.24434713760239 -306.11732305748774,-107.74434713762575 -307.947450076388,-109.5744741565876 -310.4474500763888,-110.24434713771072 -312.94745007641217,-109.57447415667174 -314.777577095374,-107.74434713777148 -315.4474500764971,-105.24434713777066 -314.7775770954581,-102.7443471377473 -312.94745007655786,-100.91422011878545 -310.44745007655706,-100.24434713766233" stroke="#ffa500" stroke-linecap="round" stroke-linejoin="round"/><polyline fill="none" points="-350.44538452618787,-150.91195655680318 -347.9453845261645,-151.58182953784214 -346.11525750720267,-153.41195655674238 -345.4453845260796,-155.9119565567432 -346.11525750711854,-158.41195655676657 -347.9453845260188,-160.24208357572843 -350.4453845260196,-160.91195655685155 -352.945384526043,-160.2420835758126 -354.7755115450048,-158.41195655691234 -355.44538452612795,-155.91195655691152 -354.775511545089,-153.41195655688816 -352.9453845261887,-151.5818295379263 -350.4453845261879,-150.91195655680318" stroke="#f00" stroke-linecap="round" stroke-linejoin="round"/><polyline fill="none" points="-317.67544241487775,-131.69840287599757 -315.1754424148544,-132.36827585703654 -313.34531539589256,-134.19840287593678 -312.6754424147694,-136.6984028759376 -313.34531539580837,-139.19840287596097 -315.17544241470864,-141.02852989492283 -317.67544241470944,-141.69840287604595 -320.1754424147328,-141.02852989500698 -322.00556943369463,-139.19840287610674 -322.6754424148178,-136.69840287610592 -322.0055694337788,-134.19840287608255 -320.17544241487855,-132.3682758571207 -317.67544241487775,-131.69840287599757" stroke="#008000" stroke-linecap="round" stroke-linejoin="round"/><polyline fill="none" points="-292.0068683719035,-53.02432593932635 -289.50686837188016,-53.694198920365324 -287.6767413529183,-55.52432593926557 -287.0068683717952,-58.0243259392664 -287.67674135283414,-60.52432593928977 -289.5068683717344,-62.35445295825162 -292.0068683717352,-63.02432593937475 -294.50686837175857,-62.35445295833578 -296.3369953907204,-60.52432593943553 -297.00686837184355,-58.0243259394347 -296.3369953908046,-55.52432593941133 -294.5068683719043,-53.69419892044947 -292.0068683719035,-53.024325939326346" stroke="#ffa500" stroke-linecap="round" stroke-linejoin="round"/><polyline fill="none" points="-277.93809173799116,-71.32266424187002 -275.4380917379678,-71.99253722290898 -273.60796471900596,-73.82266424180922 -272.9380917378828,-76.32266424181005 -273.6079647189218,-78.82266424183342 -275.43809173782205,-80.65279126079528 -277.93809173782284,-81.32266424191842 -280.4380917378462,-80.65279126087945 -282.26821875680804,-78.82266424197921 -282.9380917379312,-76.32266424197839 -282.2682187568922,-73.82266424195501 -280.43809173799195,-71.99253722299315 -277.93809173799116,-71.32266424187002" stroke="#ffa500" stroke-linecap="round" stroke-linejoin="round"/><polyline fill="none" points="-202.6906915112367,46.797578968336374 -200.19069151121334,46.127705987297404 -198.36056449225148,44.29757896839716 -197.69069151112836,41.79757896839634 -198.36056449216733,39.29757896837296 -200.19069151106757,37.4674519494111 -202.6906915110684,36.797578968287965 -205.19069151109176,37.46745194932693 -207.02081853005362,39.29757896822717 -207.69069151117674,41.797578968227995 -207.02081853013777,44.29757896825137 -205.19069151123753,46.12770598721323 -202.6906915112367,46.79757896833637" stroke="#00f" stroke-linecap="round" stroke-linejoin="round"/><polyline fill="none" points="-321.7491641386718,-93.99328501450044 -319.24916413864844,-94.66315799553941 -317.4190371196866,-96.49328501443965 -316.74916413856346,-98.99328501444047 -317.4190371196024,-101.49328501446385 -319.2491641385027,-103.32341203342571 -321.7491641385035,-103.99328501454885 -324.24916413852685,-103.32341203350988 -326.0792911574887,-101.49328501460964 -326.74916413861183,-98.99328501460882 -326.07929115757287,-96.49328501458544 -324.24916413867265,-94.66315799562358 -321.74916413867186,-93.99328501450044" stroke="#00f" stroke-linecap="round" stroke-linejoin="round"/><polyline fill="none" points="-205.5394843633912,-59.77620812577052 -203.03948436336782,-60.44608110680949 -201.20935734440596,-62.27620812570973 -200.5394843632828,-64.77620812571055 -201.20935734432177,-67.27620812573393 -203.03948436322202,-69.10633514469579 -205.53948436322284,-69.77620812581893 -208.03948436324623,-69.10633514477996 -209.8696113822081,-67.27620812587972 -210.53948436333124,-64.7762081258789 -209.86961138229228,-62.27620812585552 -208.03948436339203,-60.44608110689366 -205.5394843633912,-59.77620812577052" stroke="#ffa500" stroke-linecap="round" stroke-linejoin="round"/><polyline fill="none" points="-292.35378366442643,-121.42087436675375 -289.85378366440307,-122.09074734779271 -288.0236566454412,-123.92087436669296 -287.35378366431803,-126.42087436669378 -288.023656645357,-128.92087436671716 -289.8537836642572,-130.75100138567902 -292.353783664258,-131.42087436680217 -294.85378366428137,-130.7510013857632 -296.68391068324325,-128.92087436686296 -297.3537836643664,-126.42087436686214 -296.68391068332744,-123.92087436683876 -294.8537836644272,-122.0907473478769 -292.35378366442643,-121.42087436675376" stroke="#00f" stroke-linecap="round" stroke-linejoin="round"/><polyline fill="none" points="-283.7109081802073,-139.35163248902688 -281.21090818018394,-140.02150547006585 -279.38078116122205,-141.8516324889661 -278.7109081800989,-144.3516324889669 -279.38078116113786,-146.8516324889903 -281.2109081800381,-148.68175950795217 -283.71090818003887,-149.3516324890753 -286.21090818006223,-148.68175950803635 -288.0410351990241,-146.8516324891361 -288.71090818014727,-144.35163248913528 -288.0410351991083,-141.8516324891119 -286.2109081802081,-140.02150547015003 -283.7109081802073,-139.35163248902688" stroke="#ffa500" stroke-linecap="round" stroke-linejoin="round"/><polyline fill="none" points="-271.37779182461384,-69.2758208915603 -268.8777918245905,-69.94569387259925 -267.0476648056286,-71.77582089149949 -266.37779182450544,-74.27582089150032 -267.0476648055444,-76.7758208915237 -268.8777918244446,-78.60594791048557 -271.3777918244454,-79.27582089160872 -273.8777918244688,-78.60594791056977 -275.70791884343066,-76.77582089166953 -276.3777918245538,-74.2758208916687 -275.70791884351485,-71.77582089164532 -273.87779182461463,-69.94569387268345 -271.37779182461384,-69.2758208915603" stroke="#ffa500" stroke-linecap="round" stroke-linejoin="round"/><polyline fill="none" points="-288.7655176820592,-137.0586954113175 -286.26551768203586,-137.72856839235646 -284.435390663074,-139.5586954112567 -283.7655176819508,-142.05869541125753 -284.4353906629898,-144.55869541128092 -286.26551768189,-146.38882243024278 -288.7655176818908,-147.05869541136593 -291.26551768191416,-146.38882243032697 -293.09564470087605,-144.55869541142673 -293.7655176819992,-142.0586954114259 -293.09564470096024,-139.5586954114025 -291.26551768206,-137.72856839244065 -288.7655176820592,-137.0586954113175" stroke="#ffa500" stroke-linecap="round" stroke-linejoin="round"/><polyline fill="none" points="-361.60107258262934,-158.74897133579407 -359.101072582606,-159.41884431683303 -357.2709455636441,-161.24897133573327 -356.60107258252094,-163.7489713357341 -357.2709455635599,-166.2489713357575 -359.1010725824601,-168.07909835471935 -361.6010725824609,-168.7489713358425 -364.1010725824843,-168.07909835480356 -365.93119960144617,-166.24897133590332 -366.6010725825693,-163.7489713359025 -365.93119960153035,-161.2489713358791 -364.10107258263014,-159.41884431691722 -361.60107258262934,-158.74897133579407" stroke="#00f" stroke-linecap="round" stroke-linejoin="round"/><polyline fill="none" points="-245.97085714414638,-21.83380244000455 -243.470857144123,-22.503675421043496 -241.6407301251611,-24.333802439943728 -240.97085714403795,-26.833802439944552 -241.64073012507689,-29.33380243996794 -243.47085714397713,-31.163929458929815 -245.97085714397795,-31.833802440052967 -248.47085714400134,-31.16392945901402 -250.30098416296323,-29.33380244011379 -250.97085714408638,-26.833802440112965 -250.30098416304745,-24.333802440089578 -248.4708571441472,-22.5036754211277 -245.97085714414638,-21.833802440004543" stroke="#ffa500" stroke-linecap="round" stroke-linejoin="round"/><polyline fill="none" points="-360.1464979782708,-172.61501683322143 -357.64649797824745,-173.28488981426037 -355.81637095928556,-175.1150168331606 -355.1464979781624,-177.61501683316143 -355.8163709592014,-180.11501683318482 -357.6464979781016,-181.9451438521467 -360.1464979781024,-182.61501683326986 -362.64649797812575,-181.94514385223093 -364.47662499708764,-180.11501683333069 -365.1464979782108,-177.61501683332986 -364.4766249971718,-175.11501683330647 -362.6464979782716,-173.28488981434458 -360.1464979782708,-172.61501683322143" stroke="#ffa500" stroke-linecap="round" stroke-linejoin="round"/><polyline fill="none" points="63.324783917310285,-26.374276831342268 65.82478391733368,-27.04414981238121 67.65491093629555,-28.874276831281442 68.32478391741871,-31.374276831282266 67.65491093637978,-33.87427683130566 65.82478391747955,-35.70440385026754 63.324783917478726,-36.3742768313907 60.824783917455335,-35.70440385035176 58.99465689849345,-33.87427683145153 58.32478391737029,-31.374276831450707 58.99465689840923,-28.874276831427316 60.82478391730946,-27.044149812465434 63.324783917310285,-26.37427683134227" stroke="#ffa500" stroke-linecap="round" stroke-linejoin="round"/><polyline fill="none" points="-226.7502008106938,-84.79440375556425 -224.2502008106704,-85.46427673660318 -222.42007379170852,-87.29440375550341 -221.75020081058537,-89.79440375550423 -222.4200737916243,-92.29440375552763 -224.25020081052455,-94.12453077448951 -226.75020081052537,-94.79440375561268 -229.25020081054876,-94.12453077457374 -231.08032782951065,-92.29440375567351 -231.75020081063383,-89.79440375567269 -231.0803278295949,-87.2944037556493 -229.25020081069468,-85.46427673668741 -226.75020081069385,-84.79440375556425" stroke="#00f" stroke-linecap="round" stroke-linejoin="round"/><polyline fill="none" points="-333.6324461461882,-116.94557832679655 -331.1324461461648,-117.61545130783549 -329.3023191272029,-119.44557832673571 -328.63244614607976,-121.94557832673654 -329.3023191271187,-124.44557832675993 -331.13244614601894,-126.27570534572182 -333.63244614601973,-126.94557832684498 -336.13244614604315,-126.27570534580605 -337.96257316500504,-124.44557832690582 -338.6324461461282,-121.945578326905 -337.9625731650892,-119.4455783268816 -336.132446146189,-117.61545130791971 -333.6324461461882,-116.94557832679655" stroke="#00f" stroke-linecap="round" stroke-linejoin="round"/><polyline fill="none" points="-358.6164852462612,-146.67468096536157 -356.1164852462378,-147.3445539464005 -354.2863582272759,-149.17468096530072 -353.61648524615276,-151.67468096530155 -354.28635822719167,-154.17468096532494 -356.1164852460919,-156.00480798428683 -358.6164852460927,-156.67468096541 -361.1164852461161,-156.00480798437107 -362.946612265078,-154.17468096547086 -363.61648524620114,-151.67468096547003 -362.94661226516223,-149.17468096544664 -361.116485246262,-147.34455394648475 -358.6164852462612,-146.67468096536157" stroke="#00f" stroke-linecap="round" stroke-linejoin="round"/><polyline fill="none" points="-173.0294234104679,59.40988273826724 -170.5294234104445,58.74000975722831 -168.69929639148262,56.90988273832808 -168.02942341035944,54.409882738327255 -168.69929639139838,51.90988273830386 -170.5294234102986,50.07975571934197 -173.02942341029942,49.4098827382188 -175.5294234103228,50.07975571925773 -177.3595504292847,51.909882738157954 -178.02942341040787,54.40988273815878 -177.35955042936894,56.909882738182176 -175.52942341046872,58.74000975714407 -173.0294234104679,59.40988273826724" stroke="#ffa500" stroke-linecap="round" stroke-linejoin="round"/><polyline fill="none" points="-316.3993159727174,-117.26750967529244 -313.89931597269396,-117.93738265633138 -312.06918895373207,-119.76750967523161 -311.3993159726089,-122.26750967523243 -312.0691889536478,-124.76750967525582 -313.89931597254804,-126.59763669421771 -316.39931597254883,-127.26750967534089 -318.89931597257225,-126.59763669430195 -320.72944299153414,-124.76750967540173 -321.3993159726573,-122.2675096754009 -320.7294429916184,-119.76750967537751 -318.89931597271817,-117.93738265641562 -316.3993159727173,-117.26750967529244" stroke="#ffa500" stroke-linecap="round" stroke-linejoin="round"/><polyline fill="none" points="-166.93489398807364,34.215740890976136 -164.43489398805025,33.54586790993721 -162.60476696908836,31.715740891036987 -161.93489398796518,29.215740891036162 -162.60476696900412,26.715740891012764 -164.43489398790433,24.885613872050868 -166.93489398790516,24.21574089092769 -169.43489398792855,24.88561387196662 -171.26502100689044,26.71574089086684 -171.9348939880136,29.215740890867664 -171.26502100697468,31.715740890891063 -169.43489398807446,33.54586790985296 -166.93489398807364,34.215740890976136" stroke="#ffa500" stroke-linecap="round" stroke-linejoin="round"/><polyline fill="none" points="-180.29982027833472,74.68804210207796 -177.79982027831133,74.01816912103904 -175.96969325934944,72.18804210213881 -175.29982027822626,69.68804210213798 -175.9696932592652,67.18804210211458 -177.7998202781654,65.35791508315268 -180.29982027816624,64.6880421020295 -182.79982027818963,65.35791508306842 -184.62994729715152,67.18804210196863 -185.2998202782747,69.68804210196946 -184.62994729723576,72.18804210199286 -182.79982027833555,74.01816912095477 -180.29982027833472,74.68804210207794" stroke="#ffa500" stroke-linecap="round" stroke-linejoin="round"/><polyline fill="none" points="-203.636889032889,-96.61210413312097 -201.1368890328656,-97.28197711415989 -199.30676201390372,-99.1121041330601 -198.63688903278054,-101.61210413306092 -199.30676201381948,-104.11210413308433 -201.1368890327197,-105.94223115204623 -203.63688903272052,-106.61210413316941 -206.1368890327439,-105.94223115213049 -207.9670160517058,-104.11210413323028 -208.63688903282898,-101.61210413322945 -207.96701605179004,-99.11210413320605 -206.13688903288983,-97.28197711424414 -203.636889032889,-96.61210413312097" stroke="#00f" stroke-linecap="round" stroke-linejoin="round"/><polyline fill="none" points="-324.3217823852497,-140.26687925552565 -321.8217823852263,-140.93675223656456 -319.9916553662644,-142.76687925546477 -319.3217823851412,-145.2668792554656 -319.9916553661801,-147.766879255489 -321.8217823850803,-149.5970062744509 -324.3217823850812,-150.26687925557408 -326.8217823851046,-149.59700627453518 -328.6519094040665,-147.76687925563496 -329.3217823851897,-145.26687925563414 -328.6519094041508,-142.76687925561075 -326.8217823852506,-140.93675223664883 -324.3217823852497,-140.26687925552565" stroke="#00f" stroke-linecap="round" stroke-linejoin="round"/><polyline fill="none" points="-357.2154428194628,-170.77608586425305 -354.7154428194394,-171.44595884529195 -352.8853158004775,-173.27608586419217 -352.2154428193543,-175.776085864193 -352.8853158003932,-178.27608586421638 -354.7154428192934,-180.1062128831783 -357.21544281929425,-180.77608586430148 -359.7154428193177,-180.10621288326257 -361.54556983827956,-178.27608586436236 -362.21544281940277,-175.77608586436153 -361.54556983836386,-173.2760858643381 -359.71544281946365,-171.4459588453762 -357.2154428194628,-170.77608586425302" stroke="#ffa500" stroke-linecap="round" stroke-linejoin="round"/><polyline fill="none" points="-258.79239427331754,-9.799492090810444 -256.2923942732941,-10.469365071849362 -254.4622672543322,-12.299492090749577 -253.79239427320903,-14.799492090750404 -254.46226725424793,-17.29949209077381 -256.29239427314815,-19.12961910973572 -258.792394273149,-19.799492090858912 -261.2923942731724,-19.12961910982 -263.1225212921343,-17.299492090919784 -263.7923942732575,-14.799492090918958 -263.1225212922186,-12.299492090895551 -261.2923942733184,-10.469365071933641 -258.79239427331754,-9.79949209081045" stroke="#ffa500" stroke-linecap="round" stroke-linejoin="round"/><polyline fill="none" points="-181.09156879412905,65.42910218212857 -178.59156879410563,64.75922920108965 -176.7614417751437,62.92910218218944 -176.0915687940205,60.429102182188615 -176.7614417750594,57.92910218216521 -178.59156879395962,56.0989751632033 -181.09156879396045,55.42910218208011 -183.59156879398387,56.09897516311902 -185.42169581294579,57.929102182019236 -186.091568794069,60.42910218202006 -185.42169581303008,62.929102182043465 -183.59156879412987,64.75922920100538 -181.09156879412905,65.42910218212857" stroke="#ffa500" stroke-linecap="round" stroke-linejoin="round"/><polyline fill="none" points="-299.33955667834374,-63.511043602573224 -296.8395566783203,-64.18091658361213 -295.00942965935843,-66.01104360251234 -294.3395566782352,-68.51104360251317 -295.00942965927413,-71.01104360253657 -296.83955667817435,-72.84117062149849 -299.3395566781752,-73.51104360262168 -301.8395566781986,-72.84117062158278 -303.6696836971605,-71.01104360268256 -304.3395566782837,-68.51104360268174 -303.6696836972448,-66.01104360265833 -301.8395566783446,-64.18091658369642 -299.33955667834374,-63.51104360257322" stroke="#00f" stroke-linecap="round" stroke-linejoin="round"/><polyline fill="none" points="-271.61206280657507,-52.58619768746619 -269.11206280655165,-53.256070668505096 -267.28193578758976,-55.08619768740531 -266.61206280646655,-57.586197687406134 -267.28193578750546,-60.08619768742955 -269.1120628064057,-61.916324706391464 -271.6120628064065,-62.58619768751466 -274.11206280642995,-61.916324706475756 -275.9421898253919,-60.08619768757554 -276.6120628065151,-57.58619768757472 -275.9421898254762,-55.086197687551305 -274.112062806576,-53.25607066858939 -271.6120628065751,-52.58619768746619" stroke="#ffa500" stroke-linecap="round" stroke-linejoin="round"/><polyline fill="none" points="-325.9601139884931,-156.9409655923233 -323.4601139884697,-157.6108385733622 -321.62998696950774,-159.44096559226242 -320.96011398838453,-161.94096559226324 -321.62998696942344,-164.44096559228666 -323.46011398832366,-166.27109261124858 -325.9601139883245,-166.94096559237178 -328.4601139883479,-166.27109261133288 -330.2902410073099,-164.44096559243266 -330.9601139884331,-161.94096559243184 -330.2902410073942,-159.44096559240842 -328.46011398849396,-157.6108385734465 -325.9601139884931,-156.9409655923233" stroke="#00f" stroke-linecap="round" stroke-linejoin="round"/><polyline fill="none" points="-309.9839988865412,-118.72240728370735 -307.4839988865178,-119.39228026474626 -305.65387186755584,-121.22240728364648 -304.98399888643263,-123.7224072836473 -305.65387186747154,-126.22240728367072 -307.48399888637175,-128.05253430263264 -309.9839988863726,-128.72240728375584 -312.483998886396,-128.05253430271694 -314.31412590535797,-126.22240728381672 -314.9839988864812,-123.7224072838159 -314.31412590544227,-121.22240728379248 -312.48399888654205,-119.39228026483056 -309.9839988865412,-118.72240728370735" stroke="#ffa500" stroke-linecap="round" stroke-linejoin="round"/><polyline fill="none" points="-342.90726493615955,-149.0478399841867 -340.40726493613613,-149.71771296522562 -338.5771379171742,-151.54783998412583 -337.907264936051,-154.04783998412665 -338.5771379170899,-156.54783998415007 -340.4072649359901,-158.377967003112 -342.90726493599095,-159.0478399842352 -345.40726493601437,-158.3779670031963 -347.2373919549763,-156.54783998429608 -347.9072649360995,-154.04783998429525 -347.2373919550606,-151.54783998427183 -345.4072649361604,-149.71771296530991 -342.90726493615955,-149.0478399841867" stroke="#008000" stroke-linecap="round" stroke-linejoin="round"/><polyline fill="none" points="-160.58912946706036,27.193882311382335 -158.08912946703694,26.524009330343436 -156.25900244807502,24.69388231144323 -155.58912946695182,22.193882311442405 -156.25900244799072,19.69388231141899 -158.08912946689094,17.863755292457064 -160.58912946689176,17.193882311333855 -163.08912946691518,17.863755292372755 -164.9192564858771,19.69388231127296 -165.5891294670003,22.193882311273786 -164.9192564859614,24.6938823112972 -163.08912946706118,26.52400933025913 -160.58912946706036,27.193882311382342" stroke="#ffa500" stroke-linecap="round" stroke-linejoin="round"/><polyline fill="none" points="63.028292620187315,-35.85703551279683 65.52829262021073,-36.52690849383573 67.35841963917267,-38.35703551273593 68.02829262029587,-40.85703551273676 67.35841963925698,-43.35703551276018 65.52829262035678,-45.18716253172211 63.028292620355955,-45.85703551284532 60.528292620332536,-45.18716253180642 58.698165601370604,-43.357035512906215 58.02829262024739,-40.85703551290539 58.698165601286284,-38.35703551288197 60.52829262018649,-36.52690849392004 63.028292620187315,-35.85703551279683" stroke="#ffa500" stroke-linecap="round" stroke-linejoin="round"/><polyline fill="none" points="-306.18566146911576,-127.26292775647937 -303.68566146909234,-127.93280073751826 -301.8555344501304,-129.76292775641846 -301.1856614690072,-132.2629277564193 -301.8555344500461,-134.7629277564427 -303.6856614689463,-136.59305477540462 -306.18566146894716,-137.26292775652783 -308.6856614689706,-136.59305477548892 -310.5157884879325,-134.7629277565887 -311.18566146905573,-132.26292775658789 -310.5157884880168,-129.76292775656447 -308.6856614691166,-127.93280073760253 -306.18566146911576,-127.26292775647931" stroke="#ffa500" stroke-linecap="round" stroke-linejoin="round"/><polyline fill="none" points="-348.24555077191485,-128.1671869252464 -345.74555077189143,-128.83705990628528 -343.9154237529295,-130.6671869251855 -343.2455507718063,-133.16718692518631 -343.9154237528452,-135.66718692520973 -345.7455507717454,-137.49731394417168 -348.24555077174625,-138.16718692529489 -350.7455507717697,-137.497313944256 -352.5756777907316,-135.6671869253558 -353.2455507718548,-133.16718692535497 -352.5756777908159,-130.66718692533155 -350.7455507719157,-128.8370599063696 -348.24555077191485,-128.16718692524637" stroke="#00f" stroke-linecap="round" stroke-linejoin="round"/><polyline fill="none" points="-360.7499683825917,-179.28023860758788 -358.2499683825683,-179.95011158862675 -356.41984136360634,-181.78023860752697 -355.74996838248313,-184.2802386075278 -356.41984136352204,-186.7802386075512 -358.24996838242225,-188.61036562651316 -360.7499683824231,-189.2802386076364 -363.2499683824465,-188.6103656265975 -365.08009540140847,-186.7802386076973 -365.7499683825317,-184.28023860769648 -365.08009540149277,-181.78023860767306 -363.24996838259256,-179.9501115887111 -360.7499683825917,-179.28023860758788" stroke="#ffa500" stroke-linecap="round" stroke-linejoin="round"/><polyline fill="none" points="-353.6391580372827,-158.2961021444809 -351.1391580372593,-158.96597512551978 -349.30903101829733,-160.79610214441996 -348.6391580371741,-163.2961021444208 -349.30903101821303,-165.7961021444442 -351.13915803711325,-167.62622916340615 -353.6391580371141,-168.29610214452939 -356.1391580371375,-167.6262291634905 -357.96928505609947,-165.79610214459032 -358.63915803722267,-163.2961021445895 -357.96928505618376,-160.79610214456608 -356.13915803728355,-158.96597512560413 -353.6391580372827,-158.2961021444809" stroke="#008000" stroke-linecap="round" stroke-linejoin="round"/><polyline fill="none" points="-255.1530766048157,-20.07526734239282 -252.6530766047923,-20.745140323431706 -250.82294958583034,-22.575267342331905 -250.1530766047071,-25.07526734233273 -250.822949585746,-27.575267342356156 -252.65307660464617,-29.4053943613181 -255.153076604647,-30.075267342441325 -257.65307660467045,-29.40539436140244 -259.4832036236324,-27.575267342502244 -260.1530766047556,-25.07526734250142 -259.4832036237167,-22.575267342477993 -257.6530766048165,-20.74514032351605 -255.15307660481565,-20.075267342392824" stroke="#ffa500" stroke-linecap="round" stroke-linejoin="round"/><polyline fill="none" points="-286.7007270127285,-50.535520826412025 -284.2007270127051,-51.20539380745091 -282.37059999374316,-53.03552082635111 -281.70072701261995,-55.535520826351934 -282.37059999365886,-58.03552082637536 -284.20072701255907,-59.86564784533731 -286.7007270125599,-60.535520826460534 -289.20072701258334,-59.865647845421655 -291.0308540315453,-58.03552082652146 -291.7007270126685,-55.53552082652064 -291.0308540316296,-53.03552082649721 -289.2007270127294,-51.205393807535266 -286.7007270127285,-50.53552082641203" stroke="#ffa500" stroke-linecap="round" stroke-linejoin="round"/><polyline fill="none" points="-318.5782078890222,-146.98930036131264 -316.0782078889988,-147.65917334235152 -314.24808087003686,-149.4893003612517 -313.57820788891365,-151.98930036125253 -314.24808086995256,-154.48930036127595 -316.0782078888528,-156.3194273802379 -318.5782078888536,-156.98930036136113 -321.07820788887705,-156.31942738032225 -322.908334907839,-154.48930036142207 -323.5782078889622,-151.98930036142124 -322.9083349079233,-149.48930036139782 -321.0782078890231,-147.65917334243588 -318.5782078890222,-146.98930036131264" stroke="#ffa500" stroke-linecap="round" stroke-linejoin="round"/><polyline fill="none" points="-336.75654423249745,-132.37268400457287 -334.256544232474,-133.04255698561175 -332.4264172135121,-134.87268400451194 -331.7565442323889,-137.37268400451276 -332.4264172134277,-139.87268400453618 -334.25654423232794,-141.70281102349813 -336.7565442323288,-142.37268400462136 -339.2565442323522,-141.70281102358248 -341.08667125131416,-139.8726840046823 -341.7565442324374,-137.37268400468147 -341.08667125139857,-134.87268400465805 -339.25654423249836,-133.0425569856961 -336.7565442324975,-132.37268400457287" stroke="#00f" stroke-linecap="round" stroke-linejoin="round"/><polyline fill="none" points="-331.30106719228417,-144.63250366056724 -328.80106719226075,-145.30237664160612 -326.9709401732988,-147.1325036605063 -326.30106719217554,-149.63250366050713 -326.9709401732144,-152.13250366053055 -328.8010671921146,-153.9626306794925 -331.30106719211545,-154.63250366061573 -333.8010671921389,-153.96263067957685 -335.6311942111008,-152.13250366067666 -336.3010671922241,-149.63250366067584 -335.63119421118523,-147.13250366065242 -333.801067192285,-145.30237664169047 -331.30106719228417,-144.63250366056724" stroke="#00f" stroke-linecap="round" stroke-linejoin="round"/><polyline fill="none" points="-186.53206226655712,-81.1599798837141 -184.0320622665337,-81.82985286475298 -182.20193524757175,-83.65997988365316 -181.53206226644852,-86.15997988365399 -182.2019352474874,-88.65997988367742 -184.03206226638758,-90.49010690263937 -186.5320622663884,-91.1599798837626 -189.03206226641183,-90.49010690272372 -190.86218928537377,-88.65997988382354 -191.532062266497,-86.15997988382271 -190.86218928545813,-83.65997988379928 -189.03206226655794,-81.82985286483732 -186.53206226655712,-81.15997988371407" stroke="#ffa500" stroke-linecap="round" stroke-linejoin="round"/><polyline fill="none" points="-303.6395525196561,-119.27292607867416 -301.1395525196327,-119.94279905971304 -299.3094255006707,-121.77292607861322 -298.63955251954746,-124.27292607861405 -299.3094255005863,-126.77292607863748 -301.13955251948653,-128.60305309759943 -303.6395525194874,-129.27292607872266 -306.1395525195108,-128.60305309768378 -307.96967953847275,-126.7729260787836 -308.639552519596,-124.27292607878277 -307.96967953855716,-121.77292607875934 -306.13955251965695,-119.94279905979738 -303.6395525196561,-119.27292607867413" stroke="#ffa500" stroke-linecap="round" stroke-linejoin="round"/><polyline fill="none" points="-279.59252592057067,-55.56087648968289 -277.09252592054725,-56.23074947072176 -275.2623989015853,-58.06087648962195 -274.59252592046204,-60.56087648962277 -275.2623989015009,-63.060876489646205 -277.0925259204011,-64.89100350860816 -279.59252592040195,-65.56087648973141 -282.0925259204254,-64.89100350869255 -283.9226529393873,-63.06087648979236 -284.5925259205106,-60.56087648979154 -283.92265293947173,-58.060876489768106 -282.0925259205715,-56.230749470806145 -279.59252592057067,-55.5608764896829" stroke="#ffa500" stroke-linecap="round" stroke-linejoin="round"/><polyline fill="none" points="-291.29885772473114,-132.8356790907511 -288.7988577247077,-133.50555207179 -286.96873070574577,-135.33567909069018 -286.2988577246225,-137.835679090691 -286.96873070566136,-140.33567909071445 -288.79885772456157,-142.1658061096764 -291.2988577245624,-142.83567909079963 -293.79885772458584,-142.16580610976075 -295.6289847435478,-140.33567909086057 -296.29885772467105,-137.83567909085974 -295.6289847436322,-135.3356790908363 -293.798857724732,-133.50555207187432 -291.29885772473114,-132.83567909075106" stroke="#00f" stroke-linecap="round" stroke-linejoin="round"/><polyline fill="none" points="-190.44200279406815,9.31297768423411 -187.9420027940447,8.643104703195245 -186.11187577508272,6.812977684295058 -185.44200279395946,4.312977684294232 -186.11187577499834,1.8129776842707948 -187.94200279389852,-0.017149334691167306 -190.44200279389935,-0.6870223158144183 -192.9420027939228,-0.01714933477555436 -194.77212981288477,1.8129776841246326 -195.44200279400803,4.312977684125459 -194.77212981296918,6.812977684148898 -192.942002794069,8.643104703110861 -190.44200279406817,9.312977684234113" stroke="#00f" stroke-linecap="round" stroke-linejoin="round"/><polyline fill="none" points="-288.31661898072167,-73.30133376543164 -285.81661898069825,-73.9712067464705 -283.9864919617363,-75.80133376537069 -283.31661898061304,-78.30133376537151 -283.9864919616519,-80.80133376539494 -285.8166189805521,-82.6314607843569 -288.31661898055296,-83.30133376548015 -290.8166189805764,-82.63146078444129 -292.6467459995383,-80.8013337655411 -293.3166189806616,-78.30133376554028 -292.64674599962274,-75.80133376551684 -290.8166189807226,-73.97120674655488 -288.3166189807217,-73.30133376543162" stroke="#ffa500" stroke-linecap="round" stroke-linejoin="round"/><polyline fill="none" points="-352.88895756432487,-140.78443439972 -350.38895756430145,-141.45430738075885 -348.5588305453395,-143.28443439965903 -347.88895756421624,-145.78443439965986 -348.5588305452551,-148.2844343996833 -350.38895756415525,-150.11456141864528 -352.8889575641561,-150.78443439976854 -355.3889575641795,-150.1145614187297 -357.21908458314147,-148.2844343998295 -357.88895756426473,-145.78443439982868 -357.2190845832259,-143.28443439980524 -355.3889575643257,-141.45430738084326 -352.88895756432487,-140.78443439972" stroke="#008000" stroke-linecap="round" stroke-linejoin="round"/><polyline fill="none" points="-344.0066283288719,-132.84177345436595 -341.5066283288485,-133.5116464354048 -339.67650130988653,-135.34177345430498 -339.00662832876327,-137.8417734543058 -339.6765013098021,-140.34177345432926 -341.5066283287023,-142.17190047329123 -344.00662832870313,-142.8417734544145 -346.50662832872655,-142.17190047337564 -348.3367553476885,-140.34177345447546 -349.00662832881176,-137.84177345447463 -348.3367553477729,-135.3417734544512 -346.50662832887275,-133.5116464354892 -344.0066283288719,-132.84177345436595" stroke="#ffa500" stroke-linecap="round" stroke-linejoin="round"/><polyline fill="none" points="368.56305376964275,-169.80270629879826 371.06305376966617,-170.4725792798371 372.8931807886281,-172.3027062987373 373.5630537697514,-174.80270629873812 372.8931807887125,-177.30270629876156 371.06305376981237,-179.13283331772354 368.5630537698115,-179.8027062988468 366.0630537697881,-179.13283331780795 364.23292675082615,-177.30270629890776 363.5630537697029,-174.80270629890694 364.23292675074174,-172.3027062988835 366.0630537696419,-170.47257927992152 368.56305376964275,-169.80270629879826" stroke="#ffa500" stroke-linecap="round" stroke-linejoin="round"/></svg>