<?xml version="1.0" ?><!DOCTYPE svg  PUBLIC '-//W3C//DTD SVG 1.1//EN'  'http://www.w3.org/Graphics/SVG/1.1/DTD/svg11.dtd'><svg height="288.000" viewBox="-392.000 -203.000 800.000 288.000" width="800.000" xmlns="http://www.w3.org/2000/svg"><line fill="none" stroke="none" stroke-linecap="round" stroke-width="2.0" x1="0.0" x2="0.0" y1="0.0" y2="0.0"/><polygon fill="none" fill-rule="evenodd" points="0.0,0.0 0.0,0.0 0.0,0.0" stroke-linejoin="round"/><polyline fill="none" points="-361.1387304190772,-142.83388486990532 -358.63873041905345,-143.50375785094366 -356.80860340009093,-145.33388486984356 -356.13873041896704,-147.83388486984438 -356.8086034000054,-150.33388486986814 -358.63873041890525,-152.16401188883063 -361.1387304189061,-152.8338848699545 -363.63873041892987,-152.16401188891615 -365.4688574378924,-150.33388487001625 -366.13873041901627,-147.83388487001542 -365.46885743797793,-145.33388486999166 -363.63873041907806,-143.50375785102918 -361.1387304190772,-142.83388486990532" stroke="#00f" stroke-linecap="round" stroke-linejoin="round"/><polyline fill="none" points="-344.5519311788789,-155.27968355270153 -342.0519311788551,-155.94955653373987 -340.2218041598926,-157.77968355263977 -339.5519311787687,-160.27968355264062 -340.22180415980705,-162.77968355266438 -342.0519311787069,-164.6098105716269 -344.5519311787078,-165.27968355275075 -347.05193117873154,-164.60981057171242 -348.88205819769405,-162.77968355281251 -349.55193117881794,-160.27968355281166 -348.8820581977796,-157.7796835527879 -347.0519311788797,-155.9495565338254 -344.5519311788789,-155.27968355270153" stroke="#008000" stroke-linecap="round" stroke-linejoin="round"/><polyline fill="none" points="-266.67130023797245,-125.7948349239208 -264.1713002379487,-126.46470790495914 -262.34117321898617,-128.29483492385904 -261.6713002378623,-130.7948349238599 -262.3411732189006,-133.29483492388366 -264.1713002378005,-135.12496194284617 -266.67130023780135,-135.79483492397003 -269.1713002378251,-135.1249619429317 -271.0014272567876,-133.2948349240318 -271.6713002379115,-130.79483492403097 -271.00142725687317,-128.2948349240072 -269.1713002379733,-126.4647079050447 -266.67130023797245,-125.79483492392083" stroke="#ffa500" stroke-linecap="round" stroke-linejoin="round"/><polyline fill="none" points="-349.5712112269237,-157.40148765551746 -347.07121122689995,-158.0713606365558 -345.24108420793743,-159.9014876554557 -344.57121122681355,-162.40148765545655 -345.2410842078519,-164.9014876554803 -347.07121122675176,-166.73161467444282 -349.5712112267526,-167.40148765556668 -352.07121122677637,-166.73161467452834 -353.9013382457389,-164.90148765562844 -354.5712112268628,-162.4014876556276 -353.90133824582443,-159.90148765560383 -352.07121122692456,-158.07136063664132 -349.5712112269237,-157.40148765551746" stroke="#008000" stroke-linecap="round" stroke-linejoin="round"/><polyline fill="none" points="-358.3592163437374,-132.41863643596832 -355.8592163437136,-133.08850941700666 -354.0290893247511,-134.91863643590654 -353.3592163436272,-137.4186364359074 -354.02908932466556,-139.91863643593115 -355.85921634356544,-141.74876345489366 -358.3592163435663,-142.41863643601755 -360.85921634359005,-141.7487634549792 -362.68934336255256,-139.91863643607934 -363.35921634367645,-137.4186364360785 -362.6893433626381,-134.91863643605473 -360.85921634373824,-133.0885094170922 -358.3592163437374,-132.41863643596832" stroke="#00f" stroke-linecap="round" stroke-linejoin="round"/><polyline fill="none" points="-373.4382994802971,-180.38464277846305 -370.9382994802733,-181.05451575950138 -369.1081724613108,-182.88464277840126 -368.4382994801869,-185.38464277840208 -369.10817246122525,-187.88464277842584 -370.9382994801251,-189.71476979738836 -373.438299480126,-190.38464277851224 -375.93829948014974,-189.7147697974739 -377.76842649911225,-187.88464277857403 -378.43829948023614,-185.3846427785732 -377.7684264991978,-182.88464277854945 -375.9382994802979,-181.05451575958693 -373.4382994802971,-180.38464277846305" stroke="#00f" stroke-linecap="round" stroke-linejoin="round"/><polyline fill="none" points="371.2785395392594,-162.51891687565086 373.77853953928314,-163.1887898566892 375.60866655824566,-165.01891687558907 376.27853953936955,-167.51891687558992 375.6086665583312,-170.01891687561368 373.77853953943134,-171.8490438945762 371.2785395394305,-172.51891687570009 368.7785395394067,-171.84904389466175 366.9484125204442,-170.01891687576187 366.2785395393203,-167.51891687576105 366.94841252035866,-165.0189168757373 368.77853953925853,-163.18878985677478 371.2785395392594,-162.5189168756509" stroke="#ffa500" stroke-linecap="round" stroke-linejoin="round"/><polyline fill="none" points="-351.6781185255777,-143.07330286513542 -349.17811852555394,-143.74317584617376 -347.3479915065914,-145.57330286507363 -346.67811852546754,-148.07330286507448 -347.3479915065059,-150.57330286509824 -349.17811852540575,-152.40342988406076 -351.6781185254066,-153.07330286518464 -354.17811852543036,-152.40342988414633 -356.0082455443929,-150.57330286524646 -356.67811852551677,-148.07330286524564 -356.0082455444784,-145.57330286522188 -354.17811852557855,-143.74317584625936 -351.6781185255777,-143.07330286513547" stroke="#00f" stroke-linecap="round" stroke-linejoin="round"/><polyline fill="none" points="70.51323868763515,-40.69512983655734 73.01323868765891,-41.365002817595666 74.84336570662143,-43.195129836495546 75.51323868774531,-45.695129836496385 74.84336570670699,-48.19512983652015 73.0132386878071,-50.02525685548267 70.51323868780626,-50.695129836606554 68.0132386877825,-50.02525685556823 66.18311166881999,-48.19512983666835 65.5132386876961,-45.69512983666751 66.18311166873443,-43.195129836643744 68.0132386876343,-41.36500281768122 70.51323868763514,-40.695129836557335" stroke="#ffa500" stroke-linecap="round" stroke-linejoin="round"/><polyline fill="none" points="391.1050702618657,-175.69707606304723 393.60507026188947,-176.36694904408554 395.435197280852,-178.19707606298542 396.10507026197587,-180.69707606298624 395.43519728093753,-183.19707606301 393.60507026203766,-185.02720308197252 391.1050702620368,-185.6970760630964 388.60507026201304,-185.0272030820581 386.77494324305053,-183.19707606315822 386.10507026192664,-180.6970760631574 386.774943242965,-178.19707606313364 388.60507026186485,-176.36694904417112 391.1050702618657,-175.69707606304723" stroke="#00f" stroke-linecap="round" stroke-linejoin="round"/><polyline fill="none" points="-365.69322570488043,-171.05696190157337 -363.1932257048567,-171.72683488261168 -361.36309868589416,-173.55696190151156 -360.69322570477027,-176.0569619015124 -361.3630986858086,-178.55696190153617 -363.1932257047085,-180.38708892049868 -365.69322570470933,-181.05696190162257 -368.1932257047331,-180.38708892058426 -370.0233527236956,-178.5569619016844 -370.6932257048195,-176.05696190168356 -370.02335272378116,-173.5569619016598 -368.1932257048813,-171.7268348826973 -365.69322570488043,-171.0569619015734" stroke="#00f" stroke-linecap="round" stroke-linejoin="round"/><polyline fill="none" points="-289.5090949557398,-94.40561246121777 -287.009094955716,-95.07548544225608 -285.1789679367535,-96.90561246115595 -284.5090949556296,-99.40561246115679 -285.17896793666796,-101.90561246118057 -287.00909495556783,-103.7357394801431 -289.5090949555687,-104.40561246126698 -292.00909495559245,-103.73573948022867 -293.83922197455496,-101.9056124613288 -294.50909495567885,-99.40561246132796 -293.8392219746405,-96.90561246130419 -292.00909495574064,-95.07548544234166 -289.5090949557398,-94.40561246121777" stroke="#00f" stroke-linecap="round" stroke-linejoin="round"/><polyline fill="none" points="-318.2735983768066,-156.01840364923248 -315.77359837678284,-156.6882766302708 -313.94347135782033,-158.51840364917066 -313.27359837669644,-161.0184036491715 -313.9434713577348,-163.51840364919525 -315.77359837663465,-165.34853066815776 -318.2735983766355,-166.01840364928165 -320.77359837665927,-165.34853066824334 -322.6037253956218,-163.51840364934347 -323.27359837674567,-161.01840364934264 -322.60372539570733,-158.51840364931888 -320.77359837680746,-156.68827663035637 -318.2735983768066,-156.01840364923248" stroke="#ffa500" stroke-linecap="round" stroke-linejoin="round"/><polyline fill="none" points="-272.4091253036513,-52.360929383839064 -269.90912530362755,-53.030802364877374 -268.07899828466503,-54.86092938377725 -267.40912530354115,-57.360929383778085 -268.0789982845794,-59.86092938380186 -269.9091253034793,-61.69105640276439 -272.40912530348015,-62.36092938388829 -274.9091253035039,-61.69105640284998 -276.7392523224664,-59.86092938395011 -277.4091253035903,-57.36092938394927 -276.73925232255203,-54.860929383925495 -274.90912530365216,-53.030802364962966 -272.4091253036513,-52.360929383839064" stroke="#ffa500" stroke-linecap="round" stroke-linejoin="round"/><polyline fill="none" points="-271.9748169173615,-118.67248082295734 -269.47481691733776,-119.34235380399565 -267.64468989837525,-121.17248082289552 -266.97481691725136,-123.67248082289636 -267.64468989828964,-126.17248082292014 -269.4748169171895,-128.00260784188268 -271.97481691719037,-128.67248082300657 -274.4748169172141,-128.00260784196826 -276.30494393617664,-126.17248082306838 -276.97481691730053,-123.67248082306754 -276.30494393626225,-121.17248082304377 -274.4748169173624,-119.34235380408124 -271.9748169173615,-118.67248082295734" stroke="#ffa500" stroke-linecap="round" stroke-linejoin="round"/><polyline fill="none" points="-368.9416427621476,-177.88452599228702 -366.4416427621238,-178.55439897332533 -364.6115157431613,-180.3845259922252 -363.9416427620374,-182.88452599222603 -364.6115157430757,-185.3845259922498 -366.4416427619756,-187.21465301121233 -368.9416427619764,-187.88452599233625 -371.4416427620002,-187.21465301129794 -373.2717697809627,-185.38452599239807 -373.9416427620866,-182.88452599239724 -373.2717697810483,-180.38452599237348 -371.44164276214843,-178.55439897341094 -368.9416427621476,-177.88452599228702" stroke="#00f" stroke-linecap="round" stroke-linejoin="round"/><polyline fill="none" points="-303.6189616008469,-132.23542781615325 -301.1189616008231,-132.90530079719156 -299.2888345818606,-134.73542781609143 -298.6189616007367,-137.23542781609225 -299.288834581775,-139.73542781611604 -301.1189616006749,-141.5655548350786 -303.61896160067573,-142.2354278162025 -306.1189616006995,-141.5655548351642 -307.949088619662,-139.73542781626432 -308.6189616007859,-137.2354278162635 -307.9490886197476,-134.7354278162397 -306.11896160084774,-132.90530079727716 -303.6189616008469,-132.23542781615325" stroke="#00f" stroke-linecap="round" stroke-linejoin="round"/><polyline fill="none" points="-289.8823517227348,-46.91155999991472 -287.38235172271106,-47.581432980953025 -285.55222470374855,-49.41155999985289 -284.88235172262466,-51.91155999985373 -285.55222470366294,-54.411559999877504 -287.3823517225628,-56.24168701884004 -289.88235172256367,-56.91155999996395 -292.38235172258743,-56.241687018925646 -294.21247874154994,-54.41156000002578 -294.88235172267383,-51.91156000002494 -294.21247874163555,-49.41156000000117 -292.3823517227357,-47.581432981038624 -289.8823517227348,-46.911559999914715" stroke="#ffa500" stroke-linecap="round" stroke-linejoin="round"/><polyline fill="none" points="-375.7934907998954,-182.28677028999755 -373.2934907998716,-182.95664327103586 -371.4633637809091,-184.78677028993573 -370.7934907997852,-187.28677028993656 -371.4633637808235,-189.78677028996034 -373.2934907997234,-191.6168973089229 -375.7934907997242,-192.2867702900468 -378.293490799748,-191.6168973090085 -380.1236178187105,-189.78677029010862 -380.7934907998344,-187.28677029010777 -380.1236178187961,-184.78677029008398 -378.29349079989623,-182.95664327112144 -375.7934907998954,-182.28677028999752" stroke="#00f" stroke-linecap="round" stroke-linejoin="round"/><polyline fill="none" points="39.441198398663495,-49.71122653530436 41.94119839868728,-50.38109951634266 43.77132541764982,-52.211226535242524 44.441198398773736,-54.71122653524336 43.77132541773544,-57.211226535267144 41.941198398835574,-59.04135355422969 39.441198398834736,-59.7112265353536 36.941198398810954,-59.04135355431531 35.11107137984841,-57.21122653541544 34.441198398724495,-54.7112265354146 35.11107137976279,-52.21122653539082 36.94119839866266,-50.38109951642828 39.441198398663495,-49.71122653530436" stroke="#00f" stroke-linecap="round" stroke-linejoin="round"/><polyline fill="none" points="-298.2482466059053,-114.92038727541542 -295.74824660588155,-115.59026025645372 -293.918119586919,-117.42038727535358 -293.24824660579503,-119.92038727535441 -293.9181195868333,-122.42038727537819 -295.7482466057332,-124.25051429434073 -298.24824660573404,-124.92038727546465 -300.7482466057578,-124.25051429442635 -302.57837362472037,-122.4203872755265 -303.2482466058443,-119.92038727552566 -302.57837362480603,-117.42038727550188 -300.74824660590616,-115.59026025653934 -298.2482466059053,-114.92038727541542" stroke="#ffa500" stroke-linecap="round" stroke-linejoin="round"/><polyline fill="none" points="-336.94552989529467,-148.0543356653774 -334.4455298952709,-148.7242086464157 -332.61540287630834,-150.55433566531556 -331.9455298951844,-153.05433566531642 -332.6154028762227,-155.5543356653402 -334.44552989512255,-157.38446268430275 -336.9455298951234,-158.05433566542666 -339.44552989514716,-157.38446268438838 -341.27565691410973,-155.5543356654885 -341.9455298952337,-153.05433566548766 -341.2756569141954,-150.55433566546387 -339.4455298952955,-148.72420864650132 -336.94552989529467,-148.0543356653774" stroke="#ffa500" stroke-linecap="round" stroke-linejoin="round"/><polyline fill="none" points="-251.40917651200354,-115.48403813162602 -248.90917651197975,-116.15391111266432 -247.0790494930172,-117.98403813156418 -246.4091765118933,-120.48403813156501 -247.07904949293157,-122.9840381315888 -248.90917651183145,-124.81416515055136 -251.4091765118323,-125.48403813167528 -253.9091765118561,-124.814165150637 -255.73930353081863,-122.98403813173714 -256.4091765119426,-120.4840381317363 -255.7393035309043,-117.98403813171251 -253.90917651200442,-116.15391111274995 -251.40917651200357,-115.48403813162602" stroke="#ffa500" stroke-linecap="round" stroke-linejoin="round"/><polyline fill="none" points="-361.18693712740287,-144.83947092673014 -358.6869371273791,-145.50934390776843 -356.85681010841654,-147.3394709266683 -356.1869371272926,-149.83947092666915 -356.8568101083309,-152.33947092669294 -358.68693712723075,-154.16959794565548 -361.1869371272316,-154.8394709267794 -363.68693712725536,-154.16959794574112 -365.51706414621793,-152.33947092684124 -366.1869371273419,-149.83947092684042 -365.5170641463036,-147.33947092681663 -363.6869371274037,-145.5093439078541 -361.18693712740287,-144.83947092673017" stroke="#00f" stroke-linecap="round" stroke-linejoin="round"/><polyline fill="none" points="-189.97261127557866,55.860198616881824 -187.47261127555487,55.19032563584354 -185.64248425659233,53.360198616943684 -184.9726112754684,50.860198616942846 -185.6424842565067,48.36019861691906 -187.47261127540654,46.5300715979565 -189.97261127540736,45.86019861683257 -192.47261127543115,46.53007159787085 -194.3027382943937,48.36019861677071 -194.9726112755176,50.86019861677155 -194.30273829447933,53.36019861679534 -192.47261127557948,55.190325635757894 -189.97261127557866,55.860198616881824" stroke="#ffa500" stroke-linecap="round" stroke-linejoin="round"/><polyline fill="none" points="-270.1342977511972,-109.6435539661977 -267.63429775117345,-110.31342694723598 -265.8041707322109,-112.14355396613584 -265.13429775108693,-114.64355396613668 -265.8041707321252,-117.14355396616047 -267.6342977510251,-118.97368098512302 -270.13429775102594,-119.64355396624696 -272.6342977510497,-118.97368098520867 -274.4644247700123,-117.14355396630882 -275.1342977511362,-114.64355396630798 -274.46442477009793,-112.14355396628419 -272.63429775119806,-110.31342694732163 -270.1342977511972,-109.6435539661977" stroke="#ffa500" stroke-linecap="round" stroke-linejoin="round"/><polyline fill="none" points="366.888435927642,-171.35274831664802 369.3884359276658,-172.0226212976863 371.21856294662837,-173.85274831658614 371.8884359277523,-176.352748316587 371.21856294671403,-178.85274831661079 369.38843592781416,-180.68287533557336 366.8884359278133,-181.3527483166973 364.3884359277895,-180.68287533565902 362.5583089088269,-178.85274831675918 361.888435927703,-176.35274831675832 362.55830890874125,-173.85274831673453 364.3884359276411,-172.02262129777196 366.888435927642,-171.35274831664802" stroke="#ffa500" stroke-linecap="round" stroke-linejoin="round"/><polyline fill="none" points="-291.7603134210365,-151.15422430914717 -289.2603134210127,-151.82409729018545 -287.43018640205014,-153.6542243090853 -286.7603134209262,-156.15422430908615 -287.4301864019645,-158.65422430910994 -289.26031342086435,-160.4843513280725 -291.7603134208652,-161.15422430919645 -294.260313420889,-160.48435132815817 -296.0904404398516,-158.65422430925832 -296.76031342097554,-156.15422430925747 -296.09044043993725,-153.65422430923368 -294.2603134210374,-151.8240972902711 -291.7603134210365,-151.15422430914717" stroke="#ffa500" stroke-linecap="round" stroke-linejoin="round"/><polyline fill="none" points="-205.78106938701757,-71.26236960779354 -203.28106938699378,-71.93224258883183 -201.4509423680312,-73.76236960773169 -200.78106938690726,-76.26236960773252 -201.45094236794554,-78.76236960775631 -203.2810693868454,-80.59249662671888 -205.7810693868462,-81.26236960784283 -208.28106938687,-80.59249662680456 -210.11119640583257,-78.7623696079047 -210.78106938695652,-76.26236960790386 -210.11119640591824,-73.76236960788007 -208.2810693870184,-71.9322425889175 -205.78106938701757,-71.26236960779356" stroke="#ffa500" stroke-linecap="round" stroke-linejoin="round"/><polyline fill="none" points="-323.0633618579251,-122.68673103835798 -320.56336185790127,-123.35660401939624 -318.7332348389387,-125.1867310382961 -318.06336185781475,-127.68673103829694 -318.73323483885304,-130.18673103832074 -320.5633618577529,-132.01685805728332 -323.06336185775376,-132.68673103840726 -325.5633618577776,-132.01685805736898 -327.39348887674015,-130.18673103846913 -328.0633618578641,-127.6867310384683 -327.3934888768258,-125.1867310384445 -325.56336185792594,-123.35660401948194 -323.0633618579251,-122.68673103835799" stroke="#ffa500" stroke-linecap="round" stroke-linejoin="round"/><polyline fill="none" points="-248.60237232967347,-107.2579198495823 -246.10237232964968,-107.92779283062056 -244.2722453106871,-109.7579198495204 -243.60237232956317,-112.25791984952124 -244.27224531060145,-114.75791984954503 -246.1023723295013,-116.5880468685076 -248.60237232950212,-117.25791984963155 -251.1023723295259,-116.58804686859328 -252.93249934848848,-114.75791984969344 -253.60237232961242,-112.2579198496926 -252.93249934857414,-109.75791984966881 -251.1023723296743,-107.92779283070624 -248.60237232967347,-107.2579198495823" stroke="#ffa500" stroke-linecap="round" stroke-linejoin="round"/><polyline fill="none" points="-297.07809944877323,-130.9384343840654 -294.5780994487494,-131.60830736510366 -292.74797242978684,-133.4384343840035 -292.0780994486629,-135.93843438400432 -292.7479724297012,-138.4384343840281 -294.57809944860105,-140.26856140299068 -297.0780994486019,-140.93843438411463 -299.5780994486257,-140.26856140307638 -301.4082264675883,-138.43843438417653 -302.07809944871224,-135.9384343841757 -301.40822646767396,-133.43843438415192 -299.5780994487741,-131.60830736518935 -297.07809944877323,-130.9384343840654" stroke="#00f" stroke-linecap="round" stroke-linejoin="round"/><polyline fill="none" points="-293.5108579292747,-50.98567324698184 -291.0108579292509,-51.65554622802011 -289.18073091028833,-53.48567324691995 -288.5108579291644,-55.98567324692079 -289.18073091020267,-58.485673246944586 -291.01085792910254,-60.31580026590716 -293.5108579291034,-60.98567324703111 -296.0108579291272,-60.31580026599285 -297.8409849480898,-58.485673247093004 -298.5108579292137,-55.985673247092166 -297.84098494817545,-53.48567324706837 -296.0108579292756,-51.65554622810579 -293.5108579292747,-50.98567324698184" stroke="#00f" stroke-linecap="round" stroke-linejoin="round"/><polyline fill="none" points="-172.79368970919847,19.34104786140583 -170.29368970917469,18.671174880367566 -168.46356269021211,16.841047861467718 -167.79368970908817,14.34104786146688 -168.46356269012642,11.84104786144308 -170.29368970902627,10.010920842480504 -172.7936897090271,9.34104786135655 -175.29368970905088,10.01092084239481 -177.12381672801345,11.841047861294657 -177.7936897091374,14.341047861295495 -177.12381672809914,16.841047861319296 -175.2936897091993,18.671174880281875 -172.79368970919847,19.34104786140583" stroke="#ffa500" stroke-linecap="round" stroke-linejoin="round"/><polyline fill="none" points="-160.2049807836552,30.787852222450088 -157.7049807836314,30.117979241411827 -155.87485376466884,28.287852222511983 -155.2049807835449,25.787852222511145 -155.87485376458315,23.287852222487345 -157.704980783483,21.457725203524767 -160.20498078348382,20.78785222240081 -162.7049807835076,21.45772520343907 -164.53510780247018,23.287852222338916 -165.20498078359412,25.787852222339755 -164.53510780255587,28.287852222363554 -162.70498078365603,30.117979241326136 -160.20498078365517,30.787852222450095" stroke="#ffa500" stroke-linecap="round" stroke-linejoin="round"/><polyline fill="none" points="375.67814236990375,-179.7870113777404 378.17814236992757,-180.45688435877867 380.00826938889014,-182.2870113776785 380.6781423700141,-184.78701137767933 380.0082693889758,-187.28701137770312 378.178142370076,-189.1171383966657 375.67814237007514,-189.78701137778967 373.1781423700513,-189.11713839675141 371.34801535108875,-187.28701137785157 370.6781423699648,-184.78701137785072 371.3480153510031,-182.2870113778269 373.1781423699029,-180.45688435886433 375.67814236990375,-179.78701137774036" stroke="#ffa500" stroke-linecap="round" stroke-linejoin="round"/><polyline fill="none" points="-272.78475213706554,-43.73527571408139 -270.2847521370417,-44.40514869511964 -268.45462511807915,-46.23527571401949 -267.7847521369552,-48.735275714020325 -268.4546251179935,-51.23527571404413 -270.2847521368933,-53.065402733006714 -272.78475213689416,-53.73527571413067 -275.284752136918,-53.06540273309242 -277.11487915588054,-51.235275714192575 -277.7847521370045,-48.73527571419174 -277.1148791559662,-46.23527571416793 -275.2847521370664,-44.40514869520535 -272.78475213706554,-43.73527571408138" stroke="#ffa500" stroke-linecap="round" stroke-linejoin="round"/><polyline fill="none" points="55.64203896929247,-43.226764370175424 58.142038969316275,-43.89663735121368 59.97216598827886,-45.726764370113514 60.642038969402826,-48.22676437011435 59.97216598836457,-50.726764370138156 58.142038969464735,-52.55689138910074 55.6420389694639,-53.22676437022471 53.142038969440094,-52.556891389186454 51.31191195047751,-50.72676437028662 50.64203896935354,-48.22676437028578 51.311911950391796,-45.726764370261975 53.14203896929163,-43.89663735129939 55.64203896929247,-43.226764370175424" stroke="#ffa500" stroke-linecap="round" stroke-linejoin="round"/><polyline fill="none" points="378.77078896827805,-164.11037602983438 381.2707889683019,-164.78024901087264 383.10091598726444,-166.61037602977248 383.7707889683884,-169.1103760297733 383.10091598735016,-171.61037602979712 381.27078896845035,-173.44050304875972 378.7707889684495,-174.1103760298837 376.2707889684257,-173.44050304884544 374.4406619494631,-171.6103760299456 373.77078896833916,-169.11037602994475 374.4406619493774,-166.61037602992093 376.2707889682772,-164.78024901095833 378.77078896827805,-164.11037602983436" stroke="#ffa500" stroke-linecap="round" stroke-linejoin="round"/><polyline fill="none" points="68.73100622749622,-29.019607754083367 71.23100622752003,-29.689480735121617 73.06113324648261,-31.519607754021454 73.73100622760658,-34.01960775402229 73.06113324656833,-36.5196077540461 71.23100622766849,-38.34973477300869 68.73100622766765,-39.019607754132664 66.23100622764385,-38.34973477309442 64.40087920868126,-36.51960775419458 63.73100622755729,-34.01960775419374 64.40087920859554,-31.519607754169936 66.23100622749537,-29.689480735207344 68.73100622749621,-29.01960775408337" stroke="#ffa500" stroke-linecap="round" stroke-linejoin="round"/><polyline fill="none" points="-237.62833580290706,-120.37636469146027 -235.12833580288324,-121.0462376724985 -233.29820878392064,-122.87636469139834 -232.62833580279667,-125.37636469139917 -233.29820878383492,-127.87636469142298 -235.12833580273477,-129.70649171038556 -237.6283358027356,-130.37636469150954 -240.1283358027594,-129.70649171047128 -241.958462821722,-127.87636469157145 -242.62833580284598,-125.37636469157061 -241.95846282180773,-122.87636469154681 -240.12833580290788,-121.04623767258421 -237.62833580290706,-120.37636469146024" stroke="#ffa500" stroke-linecap="round" stroke-linejoin="round"/><polyline fill="none" points="-305.9773811047125,-130.8949745337332 -303.4773811046887,-131.56484751477146 -301.6472540857261,-133.3949745336713 -300.9773811046021,-135.89497453367213 -301.6472540856403,-138.39497453369594 -303.47738110454014,-140.22510155265854 -305.977381104541,-140.89497453378252 -308.4773811045648,-140.22510155274426 -310.3075081235274,-138.39497453384442 -310.9773811046514,-135.8949745338436 -310.30750812361316,-133.39497453381978 -308.47738110471334,-131.56484751485718 -305.9773811047125,-130.8949745337332" stroke="#ffa500" stroke-linecap="round" stroke-linejoin="round"/><polyline fill="none" points="-236.34880373077894,-114.58797662525522 -233.84880373075512,-115.25784960629346 -232.01867671179252,-117.08797662519329 -231.34880373066855,-119.58797662519413 -232.0186767117068,-122.08797662521795 -233.84880373060665,-123.91810364418055 -236.34880373060747,-124.58797662530452 -238.8488037306313,-123.91810364426628 -240.6789307495939,-122.08797662536645 -241.34880373071786,-119.58797662536561 -240.67893074967964,-117.0879766253418 -238.8488037307798,-115.2578496063792 -236.34880373077897,-114.58797662525521" stroke="#ffa500" stroke-linecap="round" stroke-linejoin="round"/><polyline fill="none" points="-356.55993265541144,-142.7016335638566 -354.0599326553876,-143.37150654489483 -352.229805636425,-145.20163356379467 -351.559932655301,-147.7016335637955 -352.2298056363392,-150.2016335638193 -354.05993265523904,-152.0317605827819 -356.5599326552399,-152.7016335639059 -359.0599326552637,-152.03176058286766 -360.89005967422634,-150.20163356396782 -361.55993265535034,-147.701633563967 -360.8900596743121,-145.20163356394318 -359.0599326554123,-143.37150654498058 -356.55993265541144,-142.7016335638566" stroke="#008000" stroke-linecap="round" stroke-linejoin="round"/><polyline fill="none" points="-296.2228689575316,-85.63856579457571 -293.7228689575078,-86.30843877561395 -291.89274193854516,-88.13856579451378 -291.22286895742116,-90.63856579451462 -291.8927419384594,-93.13856579453844 -293.7228689573592,-94.96869281350104 -296.22286895736005,-95.63856579462502 -298.72286895738387,-94.96869281358678 -300.5529959763465,-93.13856579468695 -301.2228689574705,-90.63856579468612 -300.55299597643227,-88.1385657946623 -298.72286895753246,-86.3084387756997 -296.2228689575316,-85.63856579457571" stroke="#ffa500" stroke-linecap="round" stroke-linejoin="round"/><polyline fill="none" points="-271.87842402776533,-101.0973282568671 -269.3784240277415,-101.76720123790534 -267.5482970087789,-103.59732825680517 -266.8784240276549,-106.09732825680601 -267.5482970086931,-108.59732825682983 -269.3784240275929,-110.42745527579243 -271.8784240275938,-111.09732825691641 -274.3784240276176,-110.42745527587817 -276.2085510465802,-108.59732825697834 -276.8784240277042,-106.0973282569775 -276.208551046666,-103.59732825695369 -274.3784240277662,-101.76720123799107 -271.87842402776533,-101.09732825686709" stroke="#ffa500" stroke-linecap="round" stroke-linejoin="round"/><polyline fill="none" points="-216.94000718866548,-88.03898470979613 -214.44000718864166,-88.70885769083435 -212.60988016967906,-90.53898470973418 -211.94000718855506,-93.03898470973502 -212.60988016959328,-95.53898470975884 -214.4400071884931,-97.36911172872145 -216.94000718849392,-98.03898470984544 -219.44000718851774,-97.36911172880721 -221.27013420748034,-95.53898470990738 -221.94000718860434,-93.03898470990654 -221.27013420756612,-90.53898470988273 -219.4400071886663,-88.70885769092011 -216.94000718866545,-88.03898470979613" stroke="#ffa500" stroke-linecap="round" stroke-linejoin="round"/><polyline fill="none" points="-301.58742536075226,-71.80681744749876 -299.08742536072845,-72.47669042853698 -297.2572983417658,-74.30681744743681 -296.5874253606418,-76.80681744743765 -297.25729834168004,-79.30681744746147 -299.08742536057986,-81.13694446642408 -301.5874253605807,-81.80681744754807 -304.0874253606045,-81.13694446650985 -305.91755237956716,-79.30681744761002 -306.58742536069116,-76.80681744760918 -305.91755237965293,-74.30681744758536 -304.0874253607531,-72.47669042862275 -301.58742536075226,-71.80681744749874" stroke="#00f" stroke-linecap="round" stroke-linejoin="round"/><polyline fill="none" points="-336.28576590416344,-106.6288018347467 -333.7857659041396,-107.29867481578492 -331.955638885177,-109.12880183468475 -331.285765904053,-111.62880183468559 -331.9556388850912,-114.1288018347094 -333.78576590399103,-115.95892885367202 -336.2857659039919,-116.62880183479602 -338.7857659040157,-115.9589288537578 -340.61589292297833,-114.12880183485797 -341.28576590410233,-111.62880183485713 -340.6158929230641,-109.12880183483331 -338.7857659041643,-107.2986748158707 -336.28576590416344,-106.6288018347467" stroke="#00f" stroke-linecap="round" stroke-linejoin="round"/><polyline fill="none" points="-333.69626159160055,-113.72836181079855 -331.19626159157673,-114.39823479183677 -329.3661345726141,-116.2283618107366 -328.6962615914901,-118.72836181073744 -329.3661345725283,-121.22836181076126 -331.19626159142814,-123.05848882972387 -333.696261591429,-123.72836181084787 -336.1962615914528,-123.05848882980965 -338.02638861041544,-121.22836181090983 -338.69626159153944,-118.72836181090899 -338.0263886105012,-116.22836181088518 -336.1962615916014,-114.39823479192256 -333.69626159160055,-113.72836181079856" stroke="#ffa500" stroke-linecap="round" stroke-linejoin="round"/><polyline fill="none" points="-202.7548712358079,-61.61351773924025 -200.2548712357841,-62.28339072027847 -198.42474421682147,-64.11351773917829 -197.75487123569746,-66.61351773917913 -198.4247442167357,-69.11351773920295 -200.2548712356355,-70.94364475816556 -202.75487123563636,-71.61351773928956 -205.25487123566018,-70.94364475825134 -207.0849982546228,-69.11351773935152 -207.7548712357468,-66.61351773935068 -207.08499825470858,-64.11351773932687 -205.25487123580876,-62.283390720364245 -202.75487123580794,-61.613517739240244" stroke="#ffa500" stroke-linecap="round" stroke-linejoin="round"/><polyline fill="none" points="-160.20037989911432,20.370760992520324 -157.7003798990905,19.700888011482107 -155.87025288012788,17.870760992582287 -155.20037989900388,15.370760992581449 -155.8702528800421,12.870760992557624 -157.70037989894192,11.040633973595003 -160.20037989894274,10.370760992470998 -162.70037989896656,11.040633973509216 -164.5305069179292,12.870760992409036 -165.2003798990532,15.370760992409874 -164.53050691801496,17.8707609924337 -162.70037989911515,19.70088801139632 -160.20037989911432,20.370760992520324" stroke="#ffa500" stroke-linecap="round" stroke-linejoin="round"/><polyline fill="none" points="-317.3774499822571,-118.60095353824069 -314.87744998223326,-119.2708265192789 -313.04732296327063,-121.10095353817871 -312.37744998214663,-123.60095353817955 -313.04732296318485,-126.10095353820338 -314.87744998208467,-127.93108055716601 -317.3774499820855,-128.60095353829 -319.87744998210934,-127.9310805572518 -321.70757700107197,-126.10095353835199 -322.37744998219597,-123.60095353835115 -321.70757700115774,-121.10095353832732 -319.87744998225793,-119.27082651936469 -317.3774499822571,-118.60095353824067" stroke="#00f" stroke-linecap="round" stroke-linejoin="round"/><polyline fill="none" points="-354.3393039338546,-144.7789489520173 -351.83930393383076,-145.4488219330555 -350.00917691486814,-147.27894895195533 -349.33930393374413,-149.77894895195618 -350.00917691478236,-152.27894895198 -351.8393039336822,-154.10907597094263 -354.339303933683,-154.77894895206663 -356.83930393370684,-154.1090759710284 -358.6694309526695,-152.2789489521286 -359.3393039337935,-149.77894895212773 -358.66943095275525,-147.27894895210392 -356.83930393385543,-145.4488219331413 -354.3393039338546,-144.7789489520173" stroke="#00f" stroke-linecap="round" stroke-linejoin="round"/><polyline fill="none" points="-180.79563948171779,73.3151785161539 -178.29563948169397,72.6453055351157 -176.46551246273134,70.81517851621588 -175.79563948160734,68.31517851621504 -176.46551246264556,65.81517851619121 -178.29563948154538,63.98505149722858 -180.79563948154623,63.31517851610457 -183.29563948157005,63.98505149714278 -185.12576650053268,65.8151785160426 -185.79563948165668,68.31517851604343 -185.12576650061848,70.81517851606726 -183.29563948171867,72.64530553502989 -180.79563948171784,73.3151785161539" stroke="#ffa500" stroke-linecap="round" stroke-linejoin="round"/><polyline fill="none" points="-318.81984390136864,-105.45444922312214 -316.3198439013448,-106.12432220416035 -314.4897168823822,-107.95444922306017 -313.8198439012582,-110.454449223061 -314.4897168822964,-112.95444922308484 -316.31984390119624,-114.78457624204746 -318.8198439011971,-115.45444922317148 -321.3198439012209,-114.78457624213327 -323.14997092018353,-112.95444922323345 -323.81984390130754,-110.45444922323261 -323.1499709202693,-107.95444922320878 -321.3198439013695,-106.12432220424616 -318.81984390136864,-105.45444922312214" stroke="#ffa500" stroke-linecap="round" stroke-linejoin="round"/><polyline fill="none" points="-358.7960239620809,-154.60677620673536 -356.29602396205706,-155.27664918777356 -354.46589694309444,-157.10677620667337 -353.79602396197043,-159.60677620667423 -354.46589694300866,-162.10677620669807 -356.2960239619085,-163.9369032256607 -358.7960239619093,-164.60677620678473 -361.29602396193314,-163.93690322574653 -363.1261509808958,-162.10677620684672 -363.7960239620198,-159.60677620684586 -363.12615098098155,-157.10677620682202 -361.29602396208173,-155.2766491878594 -358.7960239620809,-154.60677620673536" stroke="#f00" stroke-linecap="round" stroke-linejoin="round"/><polyline fill="none" points="-327.21735004274757,-136.14158775748828 -324.71735004272375,-136.81146073852648 -322.8872230237611,-138.6415877574263 -322.2173500426371,-141.14158775742715 -322.88722302367535,-143.641587757451 -324.71735004257516,-145.47171477641362 -327.217350042576,-146.14158775753765 -329.71735004259983,-145.47171477649945 -331.54747706156246,-143.64158775759964 -332.21735004268646,-141.14158775759878 -331.54747706164824,-138.64158775757494 -329.7173500427484,-136.8114607386123 -327.21735004274757,-136.14158775748828" stroke="#008000" stroke-linecap="round" stroke-linejoin="round"/><polyline fill="none" points="-298.79091555880325,-59.92360952269556 -296.29091555877943,-60.59348250373376 -294.4607885398168,-62.423609522633576 -293.7909155586928,-64.92360952263442 -294.460788539731,-67.42360952265825 -296.29091555863084,-69.2537365416209 -298.7909155586317,-69.92360952274493 -301.2909155586555,-69.25373654170673 -303.12104257761814,-67.42360952280691 -303.79091555874214,-64.92360952280607 -303.1210425777039,-62.423609522782236 -301.2909155588041,-60.593482503819594 -298.79091555880325,-59.92360952269557" stroke="#ffa500" stroke-linecap="round" stroke-linejoin="round"/><polyline fill="none" points="-286.65422820571223,-75.70900556940963 -284.1542282056884,-76.37887855044782 -282.3241011867258,-78.20900556934764 -281.6542282056018,-80.70900556934848 -282.32410118664,-83.20900556937231 -284.1542282055398,-85.03913258833495 -286.6542282055407,-85.70900556945898 -289.1542282055645,-85.03913258842078 -290.9843552245271,-83.20900556952097 -291.6542282056511,-80.70900556952013 -290.9843552246129,-78.2090055694963 -289.1542282057131,-76.37887855053366 -286.65422820571223,-75.70900556940963" stroke="#ffa500" stroke-linecap="round" stroke-linejoin="round"/><polyline fill="none" points="-208.68097097545362,44.03984151408875 -206.18097097542977,43.36996853305055 -204.35084395646712,41.539841514150744 -203.6809709753431,39.039841514149906 -204.35084395638128,36.53984151412607 -206.1809709752811,34.709714495163425 -208.68097097528195,34.039841514039395 -211.1809709753058,34.70971449507759 -213.01109799426845,36.5398415139774 -213.68097097539248,39.03984151397824 -213.0110979943543,41.53984151400208 -211.18097097545447,43.36996853296472 -208.68097097545362,44.03984151408875" stroke="#00f" stroke-linecap="round" stroke-linejoin="round"/><polyline fill="none" points="-328.99136440317267,-98.39427563013255 -326.49136440314885,-99.06414861117075 -324.6612373841862,-100.89427563007057 -323.99136440306216,-103.3942756300714 -324.66123738410033,-105.89427563009525 -326.49136440300015,-107.7244026490579 -328.991364403001,-108.39427563018192 -331.4913644030248,-107.72440264914373 -333.32149142198745,-105.89427563024392 -333.9913644031115,-103.39427563024309 -333.32149142207334,-100.89427563021924 -331.4913644031735,-99.0641486112566 -328.99136440317267,-98.39427563013257" stroke="#00f" stroke-linecap="round" stroke-linejoin="round"/><polyline fill="none" points="-210.7762513913815,-64.42452863417523 -208.27625139135765,-65.09440161521343 -206.446124372395,-66.92452863411323 -205.77625139127096,-69.42452863411407 -206.44612437230916,-71.92452863413791 -208.27625139120897,-73.75465565310056 -210.77625139120983,-74.42452863422459 -213.27625139123367,-73.75465565318639 -215.10637841019633,-71.92452863428659 -215.77625139132036,-69.42452863428575 -215.10637841028216,-66.9245286342619 -213.27625139138235,-65.09440161529925 -210.7762513913815,-64.42452863417522" stroke="#ffa500" stroke-linecap="round" stroke-linejoin="round"/><polyline fill="none" points="-302.008531307973,-125.09917323153877 -299.50853130794917,-125.76904621257697 -297.67840428898654,-127.59917323147677 -297.0085313078625,-130.0991732314776 -297.67840428890065,-132.59917323150145 -299.50853130780047,-134.4293002504641 -302.0085313078013,-135.09917323158814 -304.50853130782514,-134.42930025054994 -306.33865832678777,-132.59917323165013 -307.0085313079118,-130.09917323164927 -306.33865832687366,-127.59917323162543 -304.50853130797384,-125.76904621266277 -302.008531307973,-125.09917323153873" stroke="#00f" stroke-linecap="round" stroke-linejoin="round"/><polyline fill="none" points="-292.2995616762837,-143.10790314099793 -289.7995616762599,-143.77777612203613 -287.96943465729726,-145.60790314093595 -287.2995616761732,-148.1079031409368 -287.96943465721137,-150.60790314096064 -289.7995616761112,-152.4380301599233 -292.29956167611203,-153.10790314104733 -294.79956167613585,-152.43803016000913 -296.6296886950985,-150.60790314110932 -297.29956167622254,-148.10790314110847 -296.62968869518437,-145.60790314108462 -294.79956167628455,-143.77777612212196 -292.2995616762837,-143.10790314099793" stroke="#ffa500" stroke-linecap="round" stroke-linejoin="round"/><polyline fill="none" points="-277.30869128191875,-70.33231651553864 -274.8086912818949,-71.00218949657682 -272.97856426293225,-72.83231651547662 -272.3086912818082,-75.33231651547746 -272.97856426284636,-77.8323165155013 -274.8086912817462,-79.66244353446396 -277.30869128174703,-80.332316515588 -279.8086912817709,-79.66244353454982 -281.63881830073353,-77.83231651565002 -282.3086912818576,-75.33231651564918 -281.6388183008194,-72.83231651562534 -279.8086912819196,-71.00218949666268 -277.30869128191875,-70.33231651553864" stroke="#ffa500" stroke-linecap="round" stroke-linejoin="round"/><polyline fill="none" points="-296.28407118026024,-138.78738926669317 -293.78407118023637,-139.45726224773136 -291.9539441612737,-141.28738926663118 -291.2840711801496,-143.78738926663203 -291.9539441611878,-146.28738926665588 -293.7840711800876,-148.11751628561854 -296.28407118008846,-148.7873892667426 -298.78407118011233,-148.11751628570443 -300.614198199075,-146.28738926680464 -301.2840711801991,-143.78738926680379 -300.6141981991609,-141.28738926677994 -298.7840711802611,-139.45726224781728 -296.28407118026024,-138.78738926669322" stroke="#ffa500" stroke-linecap="round" stroke-linejoin="round"/><polyline fill="none" points="-369.50305088159854,-161.50642572949502 -367.00305088157467,-162.1762987105332 -365.172923862612,-164.00642572943298 -364.5030508814879,-166.50642572943383 -365.1729238625261,-169.00642572945767 -367.0030508814259,-170.83655274842033 -369.50305088142676,-171.5064257295444 -372.00305088145063,-170.83655274850622 -373.8331779004133,-169.00642572960643 -374.5030508815374,-166.50642572960558 -373.8331779004992,-164.00642572958174 -372.0030508815994,-162.17629871061908 -369.50305088159854,-161.50642572949502" stroke="#00f" stroke-linecap="round" stroke-linejoin="round"/><polyline fill="none" points="-254.09353926458985,-26.318164895297727 -251.593539264566,-26.988037876335905 -249.76341224560335,-28.818164895235704 -249.0935392644793,-31.318164895236546 -249.76341224551746,-33.818164895260395 -251.59353926441725,-35.64829191422306 -254.0935392644181,-36.31816489534711 -256.593539264442,-35.648291914308935 -258.42366628340466,-33.81816489540913 -259.0935392645287,-31.31816489540829 -258.42366628349055,-28.81816489538444 -256.59353926459073,-26.988037876421778 -254.09353926458988,-26.318164895297723" stroke="#ffa500" stroke-linecap="round" stroke-linejoin="round"/><polyline fill="none" points="-367.3412260103945,-175.1659370392846 -364.84122601037063,-175.83581002032275 -363.01109899140795,-177.66593703922254 -362.3412260102839,-180.1659370392234 -363.01109899132206,-182.66593703924724 -364.8412260102219,-184.4960640582099 -367.3412260102227,-185.16593703933395 -369.8412260102466,-184.4960640582958 -371.6713530292093,-182.665937039396 -372.34122601033334,-180.16593703939515 -371.6713530292952,-177.6659370393713 -369.84122601039536,-175.83581002040864 -367.3412260103945,-175.1659370392846" stroke="#ffa500" stroke-linecap="round" stroke-linejoin="round"/><polyline fill="none" points="62.84961872289416,-30.218934472989737 65.34961872291801,-30.888807454027912 67.17974574188068,-32.71893447292771 67.84961872300474,-35.218934472928545 67.17974574196657,-37.7189344729524 65.34961872306677,-39.54906149191507 62.84961872306593,-40.21893447303913 60.34961872304208,-39.54906149200095 58.51949170407941,-37.71893447310116 57.84961872295535,-35.21893447310032 58.51949170399352,-32.718934473076466 60.34961872289332,-30.8888074541138 62.84961872289416,-30.21893447298974" stroke="#ffa500" stroke-linecap="round" stroke-linejoin="round"/><polyline fill="none" points="-232.37159228286544,-88.70621997293304 -229.8715922828416,-89.37609295397121 -228.04146526387893,-91.20621997287101 -227.37159228275488,-93.70621997287185 -228.04146526379304,-96.20621997289571 -229.87159228269283,-98.03634699185838 -232.37159228269368,-98.70621997298244 -234.87159228271753,-98.03634699194427 -236.70171930168019,-96.20621997304448 -237.37159228280424,-93.70621997304364 -236.70171930176608,-91.20621997301978 -234.8715922828663,-89.37609295405711 -232.37159228286544,-88.70621997293306" stroke="#00f" stroke-linecap="round" stroke-linejoin="round"/><polyline fill="none" points="-341.84369172090396,-121.55839086078318 -339.3436917208801,-122.22826384182135 -337.5135647019174,-124.05839086072113 -336.84369172079334,-126.55839086072197 -337.5135647018315,-129.05839086074582 -339.34369172073133,-130.8885178797085 -341.8436917207322,-131.55839086083256 -344.34369172075606,-130.8885178797944 -346.17381873971874,-129.0583908608946 -346.8436917208428,-126.55839086089377 -346.17381873980463,-124.0583908608699 -344.3436917209048,-122.22826384190724 -341.84369172090396,-121.55839086078318" stroke="#00f" stroke-linecap="round" stroke-linejoin="round"/><polyline fill="none" points="-366.4348113907034,-149.9997215302628 -363.9348113906795,-150.66959451130097 -362.1046843717168,-152.49972153020076 -361.43481139059276,-154.9997215302016 -362.1046843716309,-157.49972153022546 -363.93481139053074,-159.32984854918814 -366.4348113905316,-159.9997215303122 -368.93481139055547,-159.32984854927403 -370.76493840951815,-157.49972153037425 -371.4348113906422,-154.9997215303734 -370.76493840960404,-152.49972153034955 -368.9348113907042,-150.66959451138686 -366.4348113907034,-149.9997215302628" stroke="#00f" stroke-linecap="round" stroke-linejoin="round"/><polyline fill="none" points="-179.38352138469494,57.94270311812892 -176.8835213846711,57.27283013709075 -175.0533943657084,55.442703118190956 -174.38352138458436,52.94270311819011 -175.05339436562252,50.44270311816625 -176.8835213845223,48.61257609920357 -179.38352138452316,47.9427031180795 -181.88352138454704,48.61257609911766 -183.71364840350972,50.44270311801745 -184.38352138463378,52.94270311801829 -183.7136484035956,55.44270311804215 -181.88352138469583,57.272830137004824 -179.38352138469497,57.9427031181289" stroke="#ffa500" stroke-linecap="round" stroke-linejoin="round"/><polyline fill="none" points="-321.87007390504334,-120.64254850272974 -319.37007390501947,-121.3124214837679 -317.5399468860568,-123.1425485026677 -316.8700739049327,-125.64254850266853 -317.5399468859709,-128.1425485026924 -319.3700739048707,-129.97267552165508 -321.87007390487156,-130.64254850277914 -324.37007390489543,-129.97267552174097 -326.2002009238581,-128.14254850284118 -326.8700739049822,-125.64254850284034 -326.200200923944,-123.14254850281648 -324.3700739050442,-121.3124214838538 -321.87007390504334,-120.64254850272972" stroke="#ffa500" stroke-linecap="round" stroke-linejoin="round"/><polyline fill="none" points="-172.46901283722624,30.959875637292157 -169.96901283720237,30.290002656253996 -168.1388858182397,28.459875637354205 -167.4690128371156,25.959875637353363 -168.13888581815377,23.4598756373295 -169.96901283705355,21.629748618366815 -172.4690128370544,20.95987563724274 -174.96901283707828,21.629748618280896 -176.79913985604097,23.459875637180684 -177.46901283716505,25.959875637181526 -176.79913985612689,28.45987563720539 -174.9690128372271,30.290002656168074 -172.46901283722624,30.95987563729215" stroke="#ffa500" stroke-linecap="round" stroke-linejoin="round"/><polyline fill="none" points="-185.65546215213135,71.12268659176704 -183.15546215210748,70.45281361072888 -181.3253351331448,68.6226865918291 -180.6554621520207,66.12268659182826 -181.32533513305887,63.62268659180439 -183.15546215195866,61.792559572841704 -185.6554621519595,61.122686591717624 -188.1554621519834,61.79255957275578 -189.98558917094607,63.622686591655565 -190.65546215207016,66.1226865916564 -189.985589171032,68.62268659168026 -188.1554621521322,70.45281361064295 -185.65546215213135,71.12268659176702" stroke="#ffa500" stroke-linecap="round" stroke-linejoin="round"/><polyline fill="none" points="-208.47332812533207,-99.86619010525733 -205.9733281253082,-100.53606308629548 -204.14320110634551,-102.36619010519527 -203.47332812522143,-104.86619010519611 -204.1432011062596,-107.36619010521997 -205.97332812515938,-109.19631712418266 -208.47332812516024,-109.86619010530674 -210.9733281251841,-109.19631712426859 -212.8034551441468,-107.3661901053688 -213.47332812527088,-104.86619010536796 -212.80345514423274,-102.36619010534409 -210.97332812533296,-100.5360630863814 -208.4733281253321,-99.86619010525732" stroke="#00f" stroke-linecap="round" stroke-linejoin="round"/><polyline fill="none" points="-330.49320172474813,-142.94154447290137 -327.99320172472426,-143.6114174539395 -326.1630747057616,-145.4415444728393 -325.4932017246375,-147.94154447284015 -326.1630747056757,-150.44154447286402 -327.99320172457544,-152.2716714918267 -330.4932017245763,-152.9415444729508 -332.99320172460017,-152.27167149191266 -334.82332874356285,-150.44154447301287 -335.4932017246869,-147.94154447301202 -334.82332874364874,-145.44154447298814 -332.993201724749,-143.61141745402546 -330.49320172474813,-142.94154447290137" stroke="#00f" stroke-linecap="round" stroke-linejoin="round"/><polyline fill="none" points="-366.53052306258365,-173.9230767978301 -364.0305230625598,-174.59294977886825 -362.2003960435971,-176.42307679776803 -361.53052306247304,-178.92307679776889 -362.2003960435112,-181.42307679779276 -364.03052306241096,-183.25320381675544 -366.5305230624118,-183.92307679787953 -369.0305230624357,-183.2532038168414 -370.8606500813984,-181.4230767979416 -371.53052306252243,-178.92307679794075 -370.86065008148427,-176.42307679791688 -369.0305230625845,-174.5929497789542 -366.53052306258365,-173.9230767978301" stroke="#ffa500" stroke-linecap="round" stroke-linejoin="round"/><polyline fill="none" points="-265.15427265825997,-15.936547074586016 -262.6542726582361,-16.606420055624163 -260.8241456392734,-18.436547074523947 -260.1542726581493,-20.93654707452479 -260.82414563918746,-23.43654707454866 -262.6542726580872,-25.266674093511355 -265.1542726580881,-25.936547074635445 -267.65427265811195,-25.2666740935973 -269.48439967707463,-23.436547074697515 -270.15427265819875,-20.936547074696673 -269.4843996771606,-18.436547074672802 -267.6542726582608,-16.606420055710107 -265.15427265825997,-15.936547074586016" stroke="#ffa500" stroke-linecap="round" stroke-linejoin="round"/><polyline fill="none" points="-186.3384784831539,63.135292808102285 -183.83847848313002,62.46541982706414 -182.00835146416733,60.63529280816436 -181.33847848304325,58.13529280816351 -182.0083514640814,55.63529280813964 -183.83847848298117,53.80516578917694 -186.33847848298203,53.135292808052846 -188.8384784830059,53.80516578909099 -190.66860550196859,55.63529280799077 -191.33847848309267,58.13529280799162 -190.66860550205453,60.63529280801549 -188.83847848315474,62.46541982697819 -186.3384784831539,63.135292808102285" stroke="#ffa500" stroke-linecap="round" stroke-linejoin="round"/><polyline fill="none" points="-306.4380706642893,-67.95968050777218 -303.9380706642654,-68.62955348881032 -302.1079436453027,-70.45968050771009 -301.4380706641786,-72.95968050771093 -302.1079436452168,-75.4596805077348 -303.93807066411654,-77.2898075266975 -306.4380706641174,-77.9596805078216 -308.93807066414126,-77.28980752678346 -310.76819768310395,-75.45968050788369 -311.43807066422806,-72.95968050788285 -310.7681976831899,-70.45968050785898 -308.93807066429014,-68.62955348889628 -306.4380706642893,-67.95968050777218" stroke="#00f" stroke-linecap="round" stroke-linejoin="round"/><polyline fill="none" points="-277.5107894271911,-55.93470795725598 -275.01078942716725,-56.60458093829412 -273.18066240820457,-58.4347079571939 -272.51078942708045,-60.934707957194746 -273.1806624081186,-63.43470795721862 -275.0107894270184,-65.26483497618132 -277.51078942701923,-65.93470795730542 -280.0107894270431,-65.26483497626728 -281.8409164460058,-63.4347079573675 -282.5107894271299,-60.934707957366655 -281.8409164460918,-58.43470795734278 -280.01078942719204,-56.604580938380074 -277.5107894271912,-55.934707957255974" stroke="#ffa500" stroke-linecap="round" stroke-linejoin="round"/><polyline fill="none" points="-334.30201390753626,-159.76107663322944 -331.8020139075124,-160.43094961426758 -329.9718868885497,-162.26107663316736 -329.3020139074256,-164.76107663316822 -329.9718868884637,-167.2610766331921 -331.80201390736346,-169.0912036521548 -334.3020139073643,-169.7610766332789 -336.8020139073882,-169.09120365224075 -338.63214092635087,-167.26107663334096 -339.302013907475,-164.7610766333401 -338.6321409264369,-162.26107663331624 -336.8020139075371,-160.43094961435352 -334.30201390753626,-159.7610766332294" stroke="#00f" stroke-linecap="round" stroke-linejoin="round"/><polyline fill="none" points="-316.33578334290706,-121.89764252146112 -313.8357833428832,-122.56751550249926 -312.0056563239205,-124.39764252139904 -311.3357833427964,-126.89764252139987 -312.0056563238345,-129.39764252142376 -313.83578334273426,-131.22776954038648 -316.3357833427351,-131.8976425215106 -318.835783342759,-131.22776954047245 -320.66591036172167,-129.39764252157266 -321.3357833428458,-126.89764252157183 -320.6659103618077,-124.39764252154795 -318.8357833429079,-122.56751550258524 -316.33578334290706,-121.89764252146114" stroke="#ffa500" stroke-linecap="round" stroke-linejoin="round"/><polyline fill="none" points="-351.0433372000379,-151.97564868320856 -348.54333720001404,-152.6455216642467 -346.71321018105135,-154.4756486831465 -346.04333719992724,-156.97564868314734 -346.71321018096535,-159.47564868317122 -348.5433371998651,-161.30577570213393 -351.04333719986596,-161.97564868325804 -353.54333719988983,-161.3057757022199 -355.3734642188525,-159.47564868332014 -356.04333719997663,-156.9756486833193 -355.3734642189385,-154.47564868329542 -353.54333720003876,-152.6455216643327 -351.0433372000379,-151.9756486832086" stroke="#008000" stroke-linecap="round" stroke-linejoin="round"/><polyline fill="none" points="-166.99472306691106,24.902340967737114 -164.4947230668872,24.232467986698985 -162.66459604792448,22.402340967799212 -161.99472306680036,19.90234096779837 -162.6645960478385,17.40234096777449 -164.49472306673826,15.572213948811775 -166.9947230667391,14.902340967687666 -169.494723066763,15.572213948725794 -171.3248500857257,17.402340967625566 -171.99472306684982,19.902340967626408 -171.32485008581168,22.40234096765029 -169.49472306691192,24.232467986613003 -166.99472306691106,24.902340967737114" stroke="#ffa500" stroke-linecap="round" stroke-linejoin="round"/><polyline fill="none" points="62.59384508530437,-38.399409602874485 65.09384508532825,-39.06928258391261 66.92397210429097,-40.89940960281238 67.59384508541508,-43.39940960281323 66.92397210437696,-45.89940960283711 65.09384508547718,-47.729536621799824 62.59384508547634,-48.39940960292394 60.09384508545246,-47.72953662188581 58.263718066489744,-45.89940960298604 57.59384508536563,-43.399409602985195 58.263718066403754,-40.89940960296131 60.09384508530353,-39.0692825839986 62.59384508530437,-38.399409602874485" stroke="#ffa500" stroke-linecap="round" stroke-linejoin="round"/><polyline fill="none" points="-311.31187667400656,-130.3368912238345 -308.8118766739827,-131.00676420487264 -306.98174965501994,-132.8368912237724 -306.3118766738958,-135.33689122377325 -306.98174965493394,-137.83689122379712 -308.8118766738337,-139.66701824275984 -311.31187667383455,-140.33689122388395 -313.8118766738584,-139.66701824284584 -315.64200369282116,-137.83689122394608 -316.3118766739453,-135.33689122394523 -315.64200369290717,-132.83689122392136 -313.8118766740074,-131.00676420495864 -311.31187667400656,-130.33689122383453" stroke="#ffa500" stroke-linecap="round" stroke-linejoin="round"/><polyline fill="none" points="-354.41856110795123,-131.88426624948232 -351.91856110792736,-132.55413923052043 -350.0884340889646,-134.3842662494202 -349.4185611078405,-136.88426624942105 -350.0884340888786,-139.38426624944492 -351.9185611077784,-141.21439326840763 -354.4185611077792,-141.88426624953175 -356.9185611078031,-141.21439326849364 -358.74868812676584,-139.38426624959388 -359.41856110788996,-136.88426624959303 -358.74868812685185,-134.38426624956915 -356.9185611079521,-132.55413923060644 -354.41856110795123,-131.88426624948232" stroke="#00f" stroke-linecap="round" stroke-linejoin="round"/><polyline fill="none" points="-369.60697536355724,-182.27338971675215 -367.10697536353337,-182.94326269779026 -365.2768483445706,-184.77338971669002 -364.6069753634465,-187.27338971669087 -365.2768483444846,-189.77338971671475 -367.1069753633844,-191.60351673567746 -369.60697536338523,-192.27338971680157 -372.1069753634091,-191.60351673576346 -373.93710238237185,-189.7733897168637 -374.60697536349596,-187.27338971686285 -373.93710238245785,-184.77338971683898 -372.1069753635581,-182.94326269787626 -369.60697536355724,-182.27338971675215" stroke="#ffa500" stroke-linecap="round" stroke-linejoin="round"/><polyline fill="none" points="-362.3024500561515,-161.21790412957878 -359.8024500561276,-161.8877771106169 -357.97232303716487,-163.71790412951665 -357.30245005604075,-166.2179041295175 -357.97232303707887,-168.71790412954138 -359.8024500559786,-170.5480311485041 -362.3024500559795,-171.2179041296282 -364.80245005600335,-170.5480311485901 -366.6325770749661,-168.71790412969034 -367.3024500560902,-166.2179041296895 -366.6325770750521,-163.7179041296656 -364.80245005615234,-161.8877771107029 -362.3024500561515,-161.21790412957878" stroke="#008000" stroke-linecap="round" stroke-linejoin="round"/><polyline fill="none" points="-262.0147487415379,-24.801132445745225 -259.51474874151404,-25.471005426783343 -257.6846217225513,-27.30113244568311 -257.0147487414272,-29.80113244568395 -257.6846217224653,-32.301132445707836 -259.51474874136505,-34.13125946467056 -262.0147487413659,-34.801132445794686 -264.5147487413898,-34.13125946475657 -266.3448757603525,-32.3011324458568 -267.01474874147664,-29.80113244585596 -266.3448757604385,-27.30113244583207 -264.51474874153877,-25.471005426869343 -262.0147487415379,-24.801132445745218" stroke="#ffa500" stroke-linecap="round" stroke-linejoin="round"/><polyline fill="none" points="-290.52730143893484,-54.16565407485657 -288.02730143891097,-54.83552705589469 -286.1971744199482,-56.66565407479445 -285.5273014388241,-59.1656540747953 -286.1971744198622,-61.66565407481919 -288.027301438762,-63.495781093781915 -290.52730143876283,-64.16565407490604 -293.0273014387867,-63.49578109386793 -294.85742845774945,-61.665654074968174 -295.52730143887356,-59.165654074967335 -294.85742845783545,-56.66565407494345 -293.0273014389357,-54.83552705598072 -290.52730143893484,-54.16565407485659" stroke="#ffa500" stroke-linecap="round" stroke-linejoin="round"/><polyline fill="none" points="-328.53107569938646,-150.48849711548849 -326.0310756993626,-151.1583700965266 -324.20094868039985,-152.98849711542636 -323.53107569927573,-155.4884971154272 -324.20094868031384,-157.9884971154511 -326.0310756992136,-159.81862413441385 -328.53107569921445,-160.488497115538 -331.03107569923833,-159.81862413449988 -332.86120271820107,-157.98849711560013 -333.5310756993252,-155.48849711559927 -332.8612027182871,-152.98849711557537 -331.0310756993873,-151.15837009661263 -328.53107569938646,-150.48849711548849" stroke="#ffa500" stroke-linecap="round" stroke-linejoin="round"/><polyline fill="none" points="-342.9623319319735,-135.59643270098698 -340.4623319319496,-136.2663056820251 -338.6322049129869,-138.09643270092485 -337.96233193186276,-140.5964327009257 -338.6322049129009,-143.0964327009496 -340.46233193180063,-144.92655971991235 -342.9623319318015,-145.5964327010365 -345.46233193182536,-144.92655971999838 -347.2924589507881,-143.09643270109862 -347.9623319319122,-140.59643270109777 -347.2924589508741,-138.09643270107387 -345.46233193197435,-136.26630568211112 -342.9623319319735,-135.59643270098698" stroke="#00f" stroke-linecap="round" stroke-linejoin="round"/><polyline fill="none" points="-341.0965233634183,-148.12807588920336 -338.59652336339445,-148.79794887024147 -336.7663963444317,-150.62807588914123 -336.0965233633076,-153.12807588914208 -336.7663963443457,-155.62807588916598 -338.59652336324547,-157.45820290812873 -341.0965233632463,-158.12807588925287 -343.5965233632702,-157.45820290821476 -345.42665038223294,-155.628075889315 -346.09652336335705,-153.12807588931415 -345.42665038231894,-150.62807588929024 -343.5965233634192,-148.7979488703275 -341.0965233634183,-148.12807588920336" stroke="#00f" stroke-linecap="round" stroke-linejoin="round"/><polyline fill="none" points="-191.08743337120856,-84.48312039856673 -188.58743337118466,-85.15299337960484 -186.75730635222192,-86.9831203985046 -186.08743337109777,-89.48312039850543 -186.75730635213588,-91.98312039852934 -188.58743337103564,-93.81324741749208 -191.0874333710365,-94.48312039861622 -193.5874333710604,-93.81324741757813 -195.41756039002314,-91.98312039867837 -196.08743337114728,-89.48312039867753 -195.41756039010917,-86.98312039865363 -193.5874333712094,-85.15299337969088 -191.08743337120856,-84.48312039856674" stroke="#ffa500" stroke-linecap="round" stroke-linejoin="round"/><polyline fill="none" points="-312.2738172461829,-123.5944526752534 -309.773817246159,-124.26432565629149 -307.94369022719627,-126.09445267519125 -307.27381724607216,-128.5944526751921 -307.94369022711027,-131.094452675216 -309.77381724601,-132.92457969417873 -312.2738172460109,-133.59445267530288 -314.77381724603475,-132.92457969426476 -316.6039442649975,-131.094452675365 -317.2738172461216,-128.59445267536415 -316.6039442650835,-126.09445267534025 -314.77381724618374,-124.26432565637751 -312.2738172461829,-123.59445267525336" stroke="#ffa500" stroke-linecap="round" stroke-linejoin="round"/><polyline fill="none" points="-284.3952818224979,-58.50086900578289 -281.89528182247403,-59.170741986820985 -280.0651548035113,-61.000869005720745 -279.3952818223871,-63.50086900572159 -280.06515480342523,-66.00086900574549 -281.895281822325,-67.83099602470823 -284.39528182232584,-68.50086900583237 -286.8952818223497,-67.83099602479427 -288.72540884131246,-66.00086900589451 -289.39528182243663,-63.50086900589367 -288.7254088413985,-61.00086900586977 -286.89528182249876,-59.17074198690702 -284.3952818224979,-58.500869005782874" stroke="#ffa500" stroke-linecap="round" stroke-linejoin="round"/><polyline fill="none" points="-298.05278283711124,-135.63716086301076 -295.55278283708736,-136.30703384404887 -293.7226558181246,-138.13716086294863 -293.05278283700045,-140.6371608629495 -293.72265581803856,-143.1371608629734 -295.5527828369383,-144.96728788193613 -298.0527828369392,-145.63716086306027 -300.55278283696305,-144.9672878820222 -302.3829098559258,-143.13716086312243 -303.05278283704996,-140.63716086312158 -302.38290985601185,-138.13716086309768 -300.5527828371121,-136.30703384413493 -298.05278283711124,-135.6371608630108" stroke="#00f" stroke-linecap="round" stroke-linejoin="round"/><polyline fill="none" points="-197.2952714785045,6.632158631691846 -194.7952714784806,5.962285650653751 -192.96514445951786,4.132158631753997 -192.29527147839372,1.632158631753152 -192.9651444594318,-0.8678413682707515 -194.79527147833156,-2.697968387233502 -197.2952714783324,-3.367841368357653 -199.7952714783563,-2.6979683873195595 -201.62539849731905,-0.867841368419807 -202.2952714784432,1.6321586315810381 -201.62539849740511,4.132158631604943 -199.79527147850536,5.962285650567695 -197.2952714785045,6.632158631691848" stroke="#00f" stroke-linecap="round" stroke-linejoin="round"/><polyline fill="none" points="-295.6074544604339,-77.41594100576243 -293.10745446041,-78.08581398680053 -291.27732744144726,-79.91594100570029 -290.6074544603231,-82.41594100570113 -291.2773274413612,-84.91594100572503 -293.10745446026095,-86.74606802468779 -295.6074544602618,-87.41594100581194 -298.10745446028574,-86.74606802477385 -299.9375814792485,-84.9159410058741 -300.60745446037265,-82.41594100587326 -299.93758147933454,-79.91594100584936 -298.1074544604348,-78.0858139868866 -295.6074544604339,-77.41594100576245" stroke="#ffa500" stroke-linecap="round" stroke-linejoin="round"/><polyline fill="none" points="-360.81449054740773,-144.2066222068835 -358.3144905473838,-144.8764951879216 -356.48436352842106,-146.70662220682135 -355.8144905472969,-149.2066222068222 -356.484363528335,-151.7066222068461 -358.31449054723475,-153.53674922580885 -360.8144905472356,-154.206622206933 -363.31449054725954,-153.5367492258949 -365.1446175662223,-151.70662220699515 -365.81449054734645,-149.2066222069943 -365.14461756630834,-146.7066222069704 -363.3144905474086,-144.87649518800762 -360.81449054740773,-144.20662220688345" stroke="#008000" stroke-linecap="round" stroke-linejoin="round"/><polyline fill="none" points="-349.8509197665437,-135.65415672962052 -347.3509197665198,-136.3240297106586 -345.52079274755704,-138.15415672955837 -344.85091976643287,-140.65415672955922 -345.520792747471,-143.15415672958312 -347.35091976637074,-144.9842837485459 -349.8509197663716,-145.65415672967006 -352.3509197663955,-144.98428374863198 -354.18104678535826,-143.15415672973222 -354.85091976648243,-140.65415672973137 -354.1810467854443,-138.15415672970747 -352.35091976654456,-136.3240297107447 -349.8509197665437,-135.65415672962052" stroke="#ffa500" stroke-linecap="round" stroke-linejoin="round"/><polyline fill="none" points="374.88120828338367,-171.66771554271995 377.3812082834076,-172.33758852375803 379.21133530237034,-174.1677155426578 379.8812082834945,-176.66771554265864 379.2113353024564,-179.16771554268254 377.38120828355665,-180.9978425616453 374.8812082835558,-181.66771554276949 372.38120828353186,-180.9978425617314 370.5510812645691,-179.16771554283164 369.88120828344495,-176.6677155428308 370.55108126448306,-174.1677155428069 372.3812082833828,-172.33758852384412 374.88120828338367,-171.66771554271995" stroke="#ffa500" stroke-linecap="round" stroke-linejoin="round"/></svg>