<?xml version="1.0" ?><!DOCTYPE svg  PUBLIC '-//W3C//DTD SVG 1.1//EN'  'http://www.w3.org/Graphics/SVG/1.1/DTD/svg11.dtd'><svg height="563.000" viewBox="-458.000 -261.000 696.000 563.000" width="696.000" xmlns="http://www.w3.org/2000/svg"><line fill="none" stroke="none" stroke-linecap="round" stroke-width="2.0" x1="0.0" x2="0.0" y1="0.0" y2="0.0"/><polygon fill="none" fill-rule="evenodd" points="0.0,0.0 0.0,0.0 0.0,0.0" stroke-linejoin="round"/><polyline fill="none" points="-3.3936488136753944,116.60493266841728 -0.8936488136507021,115.93505968738049 0.9364782053133816,114.10493266848147 1.6063511864390527,111.60493266848059 0.9364782054022589,109.10493266845589 -0.8936488134967624,107.27480564949181 -3.3936488134976406,106.60493266836613 -5.893648813522334,107.27480564940292 -7.723775832486419,109.10493266830194 -8.393648813612092,111.60493266830282 -7.723775832575299,114.10493266832752 -5.893648813676279,115.93505968729161 -3.3936488136754015,116.60493266841729" stroke="#ffa500" stroke-linecap="round" stroke-linejoin="round"/><polyline fill="none" points="-66.05268693829285,33.03964692535567 -63.55268693826816,32.36977394431888 -61.722559919304075,30.53964692541986 -61.052686938178404,28.03964692541898 -61.72255991921519,25.539646925394287 -63.55268693811421,23.709519906430202 -66.05268693811509,23.039646925304528 -68.55268693813979,23.709519906341317 -70.38281395710388,25.539646925240337 -71.05268693822956,28.039646925241215 -70.38281395719277,30.53964692526591 -68.55268693829375,32.36977394423 -66.05268693829287,33.039646925355676" stroke="#ffa500" stroke-linecap="round" stroke-linejoin="round"/><polyline fill="none" points="126.08781622405411,-108.96836117545814 128.5878162240788,-109.63823415649493 130.41794324304288,-111.46836117539395 131.08781622416856,-113.96836117539483 130.4179432431318,-116.46836117541953 128.58781622423277,-118.29848819438362 126.08781622423189,-118.9683611755093 123.58781622420719,-118.29848819447251 121.7576892052431,-116.46836117557349 121.08781622411742,-113.96836117557261 121.75768920515421,-111.46836117554791 123.58781622405323,-109.63823415658382 126.08781622405411,-108.96836117545814" stroke="#ffa500" stroke-linecap="round" stroke-linejoin="round"/><polyline fill="none" points="-257.567773667295,-160.21371562178098 -255.0677736672703,-160.88358860281775 -253.23764664830622,-162.71371562171677 -252.56777366718055,-165.21371562171765 -253.23764664821732,-167.71371562174235 -255.06777366711634,-169.54384264070643 -257.5677736671172,-170.2137156218321 -260.06777366714186,-169.54384264079533 -261.89790068610597,-167.7137156218963 -262.5677736672317,-165.21371562189543 -261.8979006861949,-162.71371562187073 -260.06777366729585,-160.88358860290663 -257.567773667295,-160.21371562178095" stroke="#ffa500" stroke-linecap="round" stroke-linejoin="round"/><polyline fill="none" points="-279.31324460026605,-85.6730745443923 -276.8132446002414,-86.3429475254291 -274.98311758127727,-88.17307454432812 -274.31324460015156,-90.673074544329 -274.98311758118837,-93.1730745443537 -276.8132446000874,-95.00320156331779 -279.31324460008824,-95.67307454444347 -281.8132446001129,-95.00320156340668 -283.643371619077,-93.17307454450766 -284.3132446002027,-90.67307454450678 -283.6433716191659,-88.17307454448208 -281.8132446002669,-86.34294752551799 -279.31324460026605,-85.6730745443923" stroke="#00f" stroke-linecap="round" stroke-linejoin="round"/><polyline fill="none" points="-425.5489389132237,-103.14159562837096 -423.048938913199,-103.81146860940775 -421.2188118942349,-105.64159562830677 -420.54893891310917,-108.14159562830766 -421.218811894146,-110.64159562833235 -423.048938913045,-112.47172264729645 -425.54893891304584,-113.14159562842212 -428.0489389130706,-112.47172264738535 -429.8790659320347,-110.64159562848633 -430.5489389131604,-108.14159562848545 -429.8790659321236,-105.64159562846075 -428.04893891322456,-103.81146860949666 -425.5489389132237,-103.14159562837096" stroke="#00f" stroke-linecap="round" stroke-linejoin="round"/><polyline fill="none" points="154.42755853240925,-132.28960030899648 156.92755853243395,-132.95947329003326 158.75768555139805,-134.78960030893228 159.42755853252373,-137.28960030893316 158.75768555148696,-139.78960030895786 156.92755853258794,-141.61972732792196 154.42755853258706,-142.28960030904764 151.92755853256236,-141.61972732801087 150.09743151359825,-139.78960030911185 149.42755853247257,-137.28960030911097 150.09743151350935,-134.78960030908627 151.92755853240837,-132.95947329012216 154.42755853240925,-132.28960030899648" stroke="#ffa500" stroke-linecap="round" stroke-linejoin="round"/><polyline fill="none" points="100.95034959730168,-240.308054448044 103.45034959732638,-240.97792742908078 105.28047661629049,-242.8080544479798 105.95034959741618,-245.30805444798068 105.2804766163794,-247.80805444800538 103.4503495974804,-249.63818146696948 100.95034959747952,-250.30805444809516 98.45034959745482,-249.6381814670584 96.62022257849071,-247.80805444815937 95.95034959736502,-245.3080544481585 96.6202225784018,-242.8080544481338 98.4503495973008,-240.97792742916968 100.95034959730168,-240.30805444804398" stroke="#ffa500" stroke-linecap="round" stroke-linejoin="round"/><polyline fill="none" points="-434.39114966227453,-102.95326825515647 -431.8911496622498,-103.62314123619325 -430.0610226432857,-105.45326825509225 -429.39114966216,-107.95326825509314 -430.0610226431968,-110.45326825511783 -431.8911496620958,-112.28339527408194 -434.39114966209667,-112.95326825520763 -436.8911496621214,-112.28339527417086 -438.7212766810855,-110.45326825527185 -439.3911496622112,-107.95326825527097 -438.72127668117446,-105.45326825524626 -436.89114966227544,-103.62314123628215 -434.3911496622746,-102.95326825515646" stroke="#00f" stroke-linecap="round" stroke-linejoin="round"/><polyline fill="none" points="-310.58774357659934,10.460392054696303 -308.0877435765746,9.79051907365953 -306.2576165576105,7.9603920547605185 -305.5877435764848,5.460392054759638 -306.25761655752154,2.960392054734931 -308.08774357642056,1.1302650357708233 -310.5877435764214,0.460392054645126 -313.08774357644614,1.1302650356818984 -314.91787059541025,2.960392054580909 -315.58774357653596,5.4603920545817894 -314.9178705954992,7.960392054606498 -313.0877435766002,9.790519073570607 -310.58774357659934,10.460392054696307" stroke="#00f" stroke-linecap="round" stroke-linejoin="round"/><polyline fill="none" points="83.2693803621196,169.60818247552484 85.76938036214432,168.93830949448807 87.59950738110842,167.10818247558905 88.26938036223413,164.60818247558817 87.59950738119736,162.10818247556347 85.76938036229835,160.27805545659936 83.26938036229747,159.60818247547365 80.76938036227276,160.27805545651043 78.93925334330865,162.10818247540945 78.26938036218294,164.60818247541033 78.93925334321972,167.10818247543503 80.76938036211872,168.93830949439914 83.2693803621196,169.60818247552484" stroke="#ffa500" stroke-linecap="round" stroke-linejoin="round"/><polyline fill="none" points="69.39659720429985,98.92610107398708 71.89659720432456,98.25622809295031 73.72672422328867,96.4261010740513 74.39659720441438,93.92610107405042 73.7267242233776,91.42610107402571 71.8965972044786,89.5959740550616 69.39659720447771,88.9261010739359 66.896597204453,89.59597405497266 65.06647018548888,91.42610107387166 64.39659720436318,93.92610107387254 65.06647018539994,96.42610107389726 66.89659720429894,98.25622809286138 69.39659720429982,98.92610107398708" stroke="#ffa500" stroke-linecap="round" stroke-linejoin="round"/><polyline fill="none" points="85.23755098926316,-167.8800099982749 87.73755098928787,-168.54988297931166 89.56767800825199,-170.38000999821068 90.2375509893777,-172.88000999821156 89.56767800834093,-175.3800099982363 87.73755098944193,-177.2101370172004 85.23755098944105,-177.8800099983261 82.73755098941633,-177.21013701728933 80.90742397045221,-175.3800099983903 80.23755098932651,-172.88000999838943 80.90742397036327,-170.3800099983647 82.73755098926227,-168.5498829794006 85.23755098926316,-167.8800099982749" stroke="#ffa500" stroke-linecap="round" stroke-linejoin="round"/><polyline fill="none" points="-187.92180858951386,-145.03103902188934 -185.42180858948913,-145.70091200292612 -183.59168157052503,-147.53103902182514 -182.92180858939932,-150.03103902182602 -183.5916815704361,-152.53103902185075 -185.42180858933511,-154.36116604081485 -187.921808589336,-155.03103902194056 -190.42180858936072,-154.36116604090378 -192.25193560832483,-152.5310390220048 -192.92180858945054,-150.0310390220039 -192.25193560841376,-147.53103902197918 -190.42180858951477,-145.70091200301508 -187.9218085895139,-145.03103902188937" stroke="#00f" stroke-linecap="round" stroke-linejoin="round"/><polyline fill="none" points="80.07187994569247,290.25238622723754 82.57187994571719,289.5825132462008 84.4020069646813,287.75238622730177 85.07187994580701,285.25238622730086 84.40200696477025,282.75238622727613 82.57187994587125,280.922259208312 80.07187994587036,280.2523862271863 77.57187994584565,280.92225920822307 75.74175292688153,282.7523862271221 75.07187994575582,285.252386227123 75.74175292679259,287.7523862271477 77.57187994569159,289.58251324611183 80.07187994569247,290.25238622723754" stroke="#ffa500" stroke-linecap="round" stroke-linejoin="round"/><polyline fill="none" points="-23.795083222226097,-182.38220816191142 -21.29508322220138,-183.05208114294817 -19.464956203237257,-184.88220816184716 -18.795083222111543,-187.38220816184804 -19.464956203148304,-189.88220816187277 -21.295083222047307,-191.7123351808369 -23.79508322204819,-192.3822081619626 -26.29508322207291,-191.71233518092586 -28.125210241037035,-189.88220816202687 -28.79508322216275,-187.382208162026 -28.12521024112599,-184.88220816200126 -26.29508322222699,-183.05208114303713 -23.795083222226104,-182.38220816191142" stroke="#ffa500" stroke-linecap="round" stroke-linejoin="round"/><polyline fill="none" points="-316.7166695128981,-121.89519279962305 -314.21666951287335,-122.56506578065981 -312.38654249390925,-124.39519279955881 -311.71666951278354,-126.8951927995597 -312.3865424938203,-129.3951927995844 -314.2166695127193,-131.22531981854854 -316.7166695127202,-131.89519279967425 -319.21666951274494,-131.2253198186375 -321.04679653170905,-129.3951927997385 -321.71666951283476,-126.89519279973763 -321.046796531798,-124.3951927997129 -319.216669512899,-122.56506578074877 -316.7166695128981,-121.89519279962305" stroke="#008000" stroke-linecap="round" stroke-linejoin="round"/><polyline fill="none" points="-54.34041153471977,-16.03273077934975 -51.84041153469505,-16.702603760386506 -50.01028451573092,-18.532730779285508 -49.3404115346052,-21.032730779286393 -50.010284515641956,-23.532730779311112 -51.840411534540955,-25.36285779827524 -54.340411534541836,-26.03273077940096 -56.840411534566556,-25.362857798364207 -58.67053855353068,-23.532730779465204 -59.340411534656404,-21.03273077946432 -58.67053855361965,-18.532730779439596 -56.84041153472065,-16.702603760475466 -54.34041153471977,-16.032730779349745" stroke="#ffa500" stroke-linecap="round" stroke-linejoin="round"/><polyline fill="none" points="-373.6478502120709,-141.89422031751917 -371.1478502120462,-142.56409329855592 -369.3177231930821,-144.3942203174549 -368.6478502119564,-146.8942203174558 -369.3177231929931,-149.39422031748052 -371.14785021189215,-151.22434733644465 -373.64785021189306,-151.8942203175704 -376.1478502119178,-151.22434733653364 -377.9779772308819,-149.39422031763465 -378.6478502120076,-146.89422031763377 -377.97797723097085,-144.39422031760904 -376.14785021207183,-142.5640932986449 -373.6478502120709,-141.89422031751917" stroke="#00f" stroke-linecap="round" stroke-linejoin="round"/><polyline fill="none" points="70.1938753137355,-226.79773022684338 72.69387531376023,-227.46760320788013 74.52400233272436,-229.29773022677912 75.19387531385009,-231.79773022678 74.52400233281334,-234.29773022680473 72.69387531391433,-236.12785724576887 70.19387531391345,-236.7977302268946 67.69387531388873,-236.12785724585785 65.86374829492459,-234.29773022695886 65.19387531379887,-231.79773022695798 65.86374829483562,-229.29773022693325 67.69387531373461,-227.46760320796912 70.19387531373549,-226.79773022684338" stroke="#00f" stroke-linecap="round" stroke-linejoin="round"/><polyline fill="none" points="37.221731561792474,-106.86737630741203 39.7217315618172,-107.53724928844878 41.551858580781335,-109.36737630734777 42.22173156190706,-111.86737630734865 41.55185858087032,-114.36737630737338 39.72173156197132,-116.19750332633751 37.22173156197044,-116.86737630746325 34.72173156194571,-116.1975033264265 32.891604542981575,-114.36737630752751 32.22173156185585,-111.86737630752663 32.891604542892594,-109.3673763075019 34.72173156179159,-107.53724928853777 37.221731561792474,-106.86737630741203" stroke="#ffa500" stroke-linecap="round" stroke-linejoin="round"/><polyline fill="none" points="-240.49973937391405,-18.106496859649663 -237.99973937388933,-18.77636984068641 -236.1696123549252,-20.606496859585405 -235.49973937379946,-23.10649685958629 -236.1696123548362,-25.606496859611017 -237.9997393737352,-27.436623878575155 -240.49973937373608,-28.106496859700886 -242.9997393737608,-27.436623878664143 -244.82986639272494,-25.606496859765148 -245.49973937385067,-23.106496859764263 -244.82986639281393,-20.606496859739536 -242.99973937391493,-18.7763698407754 -240.49973937391405,-18.106496859649667" stroke="#ffa500" stroke-linecap="round" stroke-linejoin="round"/><polyline fill="none" points="36.79034799351015,-172.92926723142085 39.29034799353488,-173.5991402124576 41.12047501249902,-175.4292672313566 41.790347993624756,-177.92926723135747 41.12047501258802,-180.4292672313822 39.290347993689025,-182.25939425034633 36.790347993688144,-182.92926723147207 34.29034799366342,-182.25939425043532 32.460220974699276,-180.42926723153633 31.79034799357354,-177.92926723153545 32.46022097461028,-175.42926723151072 34.29034799350927,-173.5991402125466 36.79034799351015,-172.92926723142085" stroke="#ffa500" stroke-linecap="round" stroke-linejoin="round"/><polyline fill="none" points="-238.07212189465452,23.17807739138498 -235.5721218946298,22.50820441034824 -233.74199487566565,20.678077391449246 -233.07212189453992,18.17807739144836 -233.74199487557667,15.678077391423631 -235.57212189447566,13.847950372459488 -238.07212189447654,13.178077391333751 -240.57212189450127,13.84795037237049 -242.4022489134654,15.678077391269484 -243.07212189459113,18.178077391270367 -242.4022489135544,20.678077391295098 -240.5721218946554,22.508204410259243 -238.07212189465452,23.17807739138498" stroke="#00f" stroke-linecap="round" stroke-linejoin="round"/><polyline fill="none" points="131.16769230825844,-122.57760189589429 133.66769230828316,-123.24747487693102 135.4978193272473,-125.07760189583001 136.16769230837303,-127.5776018958309 135.4978193273363,-130.07760189585562 133.6676923084373,-131.90772891481976 131.16769230843641,-132.5776018959455 128.6676923084117,-131.90772891490874 126.83756528944754,-130.07760189600975 126.1676923083218,-127.57760189600887 126.83756528935854,-125.07760189598415 128.66769230825753,-123.24747487702 131.1676923082584,-122.57760189589426" stroke="#00f" stroke-linecap="round" stroke-linejoin="round"/><polyline fill="none" points="186.44435030551688,-145.31486277307644 188.9443503055416,-145.9847357541132 190.77447732450574,-147.81486277301218 191.44435030563147,-150.31486277301306 190.77447732459473,-152.8148627730378 188.94435030569574,-154.64498979200192 186.44435030569485,-155.31486277312766 183.94435030567013,-154.6449897920909 182.11422328670596,-152.81486277319192 181.44435030558023,-150.31486277319104 182.11422328661698,-147.8148627731663 183.94435030551597,-145.98473575420215 186.44435030551685,-145.3148627730764" stroke="#00f" stroke-linecap="round" stroke-linejoin="round"/><polyline fill="none" points="53.62775553419816,95.09047279895591 56.12775553422289,94.42059981791918 57.95788255318704,92.59047279902019 58.62775553431278,90.09047279901931 57.95788255327605,87.59047279899457 56.12775553437706,85.76034578003042 53.62775553437618,85.09047279890467 51.127755534351444,85.7603457799414 49.297628515387295,87.5904727988404 48.62775553426155,90.09047279884128 49.297628515298285,92.59047279886602 51.12775553419728,94.42059981783017 53.62775553419816,95.09047279895591" stroke="#ffa500" stroke-linecap="round" stroke-linejoin="round"/><polyline fill="none" points="-17.859070386784683,20.930231098289624 -15.35907038675995,20.260358117252892 -13.528943367795797,18.430231098353904 -12.859070386670052,15.930231098353019 -13.528943367706784,13.430231098328283 -15.359070386605772,11.600104079364131 -17.859070386606657,10.930231098238384 -20.359070386631394,11.600104079275114 -22.189197405595547,13.430231098174103 -22.859070386721296,15.930231098174987 -22.189197405684567,18.430231098199723 -20.35907038678558,20.260358117163875 -17.859070386784694,20.930231098289624" stroke="#ffa500" stroke-linecap="round" stroke-linejoin="round"/><polyline fill="none" points="-155.96513324557037,-144.65755236398266 -153.46513324554564,-145.32742534501938 -151.63500622658148,-147.15755236391837 -150.96513324545575,-149.65755236391925 -151.63500622649246,-152.15755236394398 -153.46513324539146,-153.98767938290814 -155.96513324539234,-154.6575523640339 -158.46513324541706,-153.9876793829972 -160.29526026438123,-152.1575523640982 -160.965133245507,-149.6575523640973 -160.29526026447027,-147.1575523640726 -158.46513324557128,-145.32742534510842 -155.9651332455704,-144.65755236398266" stroke="#ffa500" stroke-linecap="round" stroke-linejoin="round"/><polyline fill="none" points="-250.74279874556805,-17.8262351856214 -248.24279874554333,-18.49610816665813 -246.41267172657916,-20.326235185557113 -245.7427987454534,-22.826235185557998 -246.41267172649012,-25.326235185582735 -248.2427987453891,-27.15636220454689 -250.74279874539,-27.826235185672644 -253.24279874541472,-27.15636220463592 -255.07292576437888,-25.326235185736934 -255.74279874550464,-22.82623518573605 -255.07292576446793,-20.32623518571131 -253.24279874556893,-18.496108166747153 -250.74279874556805,-17.8262351856214" stroke="#ffa500" stroke-linecap="round" stroke-linejoin="round"/><polyline fill="none" points="-356.00786369219367,-43.18151914429015 -353.50786369216894,-43.851392125326875 -351.6777366732048,-45.68151914422586 -351.007863692079,-48.18151914422674 -351.67773667311576,-50.68151914425148 -353.5078636920147,-52.511646163215644 -356.00786369201563,-53.1815191443414 -358.50786369204036,-52.511646163304675 -360.3379907110045,-50.68151914440569 -361.0078636921303,-48.18151914440481 -360.33799071109354,-45.68151914438007 -358.5078636921946,-43.851392125415906 -356.00786369219367,-43.18151914429015" stroke="#ffa500" stroke-linecap="round" stroke-linejoin="round"/><polyline fill="none" points="-97.48416274604597,-166.17999492309102 -94.98416274602123,-166.84986790412773 -93.15403572705706,-168.67999492302673 -92.4841627459313,-171.1799949230276 -93.15403572696802,-173.67999492305233 -94.984162745867,-175.5101219420165 -97.48416274586788,-176.17999492314226 -99.98416274589262,-175.51012194210554 -101.81428976485678,-173.67999492320655 -102.48416274598254,-171.17999492320567 -101.81428976494583,-168.6799949231809 -99.98416274604685,-166.84986790421675 -97.48416274604597,-166.179994923091" stroke="#00f" stroke-linecap="round" stroke-linejoin="round"/><polyline fill="none" points="-414.8203592635527,-89.4892207218768 -412.32035926352796,-90.15909370291352 -410.4902322445638,-91.9892207218125 -409.82035926343804,-94.48922072181338 -410.4902322444748,-96.98922072183812 -412.32035926337375,-98.81934774080229 -414.82035926337466,-99.48922072192805 -417.3203592633994,-98.81934774089133 -419.15048628236354,-96.98922072199235 -419.8203592634893,-94.48922072199147 -419.15048628245256,-91.98922072196673 -417.3203592635536,-90.15909370300257 -414.8203592635527,-89.4892207218768" stroke="#ffa500" stroke-linecap="round" stroke-linejoin="round"/><polyline fill="none" points="-238.0574216205034,68.77169683519888 -235.55742162047864,68.10182385416216 -233.72729460151447,66.27169683526319 -233.0574216203887,63.771696835262304 -233.72729460142543,61.27169683523756 -235.55742162032442,59.44156981627339 -238.0574216203253,58.77169683514763 -240.55742162035006,59.44156981618435 -242.38754863931422,61.271696835083326 -243.05742162043998,63.771696835084214 -242.38754863940326,66.27169683510895 -240.55742162050427,68.10182385407312 -238.0574216205034,68.77169683519888" stroke="#ffa500" stroke-linecap="round" stroke-linejoin="round"/><polyline fill="none" points="109.67268629504426,179.1912949983065 112.172686295069,178.52142201726977 114.00281331403316,176.69129499837078 114.67268629515893,174.1912949983699 114.0028133141222,171.69129499834514 112.17268629522323,169.86116797938098 109.67268629522235,169.19129499825522 107.17268629519761,169.86116797929193 105.34255927623343,171.69129499819093 104.67268629510767,174.1912949981918 105.34255927614439,176.69129499821656 107.17268629504336,178.52142201718073 109.67268629504424,179.1912949983065" stroke="#ffa500" stroke-linecap="round" stroke-linejoin="round"/><polyline fill="none" points="-336.4493436774748,-111.13418667251675 -333.9493436774501,-111.80405965355347 -332.1192166584859,-113.63418667245244 -331.44934367736016,-116.13418667245332 -332.11921665839685,-118.63418667247808 -333.9493436772958,-120.46431369144226 -336.4493436772967,-121.13418667256802 -338.94934367732145,-120.4643136915313 -340.7794706962856,-118.63418667263232 -341.4493436774114,-116.13418667263144 -340.7794706963747,-113.63418667260669 -338.9493436774757,-111.80405965364251 -336.4493436774748,-111.13418667251673" stroke="#f00" stroke-linecap="round" stroke-linejoin="round"/><polyline fill="none" points="29.38309095853593,-130.9339111423198 31.88309095856068,-131.60378412335652 33.713217977524856,-133.43391114225548 34.38309095865063,-135.93391114225636 33.713217977613915,-138.43391114228112 31.883090958714938,-140.26403816124528 29.383090958714053,-140.93391114237104 26.8830909586893,-140.26403816133433 25.052963939725124,-138.43391114243536 24.38309095859935,-135.93391114243448 25.052963939636058,-133.43391114240973 26.883090958535035,-131.60378412344556 29.38309095853592,-130.9339111423198" stroke="#ffa500" stroke-linecap="round" stroke-linejoin="round"/><polyline fill="none" points="169.35520249861085,-143.74651819442371 171.8552024986356,-144.41639117546043 173.6853295175998,-146.2465181943594 174.35520249872556,-148.74651819436028 173.68532951768884,-151.24651819438503 171.85520249878988,-153.07664521334922 169.355202498789,-153.746518194475 166.85520249876424,-153.07664521343827 165.02507547980005,-151.2465181945393 164.3552024986743,-148.74651819453842 165.025075479711,-146.24651819451367 166.85520249860997,-144.41639117554948 169.35520249861085,-143.74651819442371" stroke="#ffa500" stroke-linecap="round" stroke-linejoin="round"/><polyline fill="none" points="217.39641481975048,-131.25723933073488 219.89641481977523,-131.9271123117716 221.72654183873942,-133.75723933067056 222.39641481986519,-136.25723933067144 221.72654183882847,-138.7572393306962 219.8964148199295,-140.58736634966039 217.39641481992862,-141.25723933078618 214.89641481990387,-140.58736634974946 213.06628780093968,-138.7572393308505 212.39641481981388,-136.25723933084961 213.06628780085057,-133.75723933082486 214.89641481974954,-131.92711231186067 217.39641481975042,-131.25723933073488" stroke="#ffa500" stroke-linecap="round" stroke-linejoin="round"/><polyline fill="none" points="-345.6848801938344,-66.88023290726137 -343.18488019380965,-67.55010588829808 -341.3547531748455,-69.38023290719705 -340.6848801937197,-71.88023290719794 -341.3547531747564,-74.38023290722269 -343.1848801936554,-76.21035992618687 -345.6848801936563,-76.88023290731265 -348.184880193681,-76.21035992627594 -350.0150072126452,-74.38023290737696 -350.68488019377094,-71.88023290737608 -350.01500721273425,-69.38023290735133 -348.1848801938353,-67.55010588838715 -345.6848801938344,-66.88023290726137" stroke="#00f" stroke-linecap="round" stroke-linejoin="round"/><polyline fill="none" points="101.87364379443113,-217.5000722480349 104.37364379445589,-218.1699452290716 106.20377081342008,-220.00007224797056 106.87364379454586,-222.50007224797145 106.20377081350915,-225.0000722479962 104.37364379461017,-226.8301992669604 101.8736437946093,-227.50007224808618 99.37364379458454,-226.8301992670495 97.54351677562035,-225.00007224815053 96.87364379449457,-222.50007224814965 97.54351677553127,-220.0000722481249 99.37364379443025,-218.1699452291607 101.87364379443113,-217.5000722480349" stroke="#ffa500" stroke-linecap="round" stroke-linejoin="round"/><polyline fill="none" points="-30.661931013825537,-119.84697792502318 -28.161931013800782,-120.51685090605989 -26.331803994836594,-122.34697792495886 -25.66193101371081,-124.84697792495975 -26.33180399474751,-127.3469779249845 -28.16193101364648,-129.17710494394868 -30.661931013647365,-129.84697792507447 -33.161931013672124,-129.17710494403778 -34.99205803263631,-127.34697792513882 -35.66193101376209,-124.84697792513794 -34.992058032725396,-122.34697792511318 -33.161931013826425,-120.51685090614899 -30.66193101382554,-119.8469779250232" stroke="#ffa500" stroke-linecap="round" stroke-linejoin="round"/><polyline fill="none" points="99.13394052087804,133.74719021980061 101.6339405209028,133.07731723876392 103.46406753986699,131.24719021986496 104.13394052099278,128.74719021986408 103.46406753995609,126.24719021983933 101.63394052105713,124.41706320087513 99.13394052105625,123.74719021974934 96.63394052103149,124.41706320078603 94.8038135020673,126.247190219685 94.13394052094151,128.74719021968588 94.8038135019782,131.24719021971063 96.63394052087716,133.07731723867482 99.13394052087804,133.74719021980061" stroke="#ffa500" stroke-linecap="round" stroke-linejoin="round"/><polyline fill="none" points="115.12871231822521,262.89966795048815 117.62871231824997,262.22979496945146 119.45883933721416,260.3996679505525 120.12871231833995,257.8996679505516 119.45883933730326,255.39966795052683 117.6287123184043,253.56954093156264 115.12871231840342,252.89966795043685 112.62871231837866,253.56954093147354 110.79858529941447,255.3996679503725 110.12871231828868,257.8996679503734 110.79858529932537,260.39966795039817 112.62871231822433,262.2297949693624 115.12871231822521,262.8996679504882" stroke="#ffa500" stroke-linecap="round" stroke-linejoin="round"/><polyline fill="none" points="-290.98988744803074,-145.61132392105006 -288.48988744800596,-146.28119690208675 -286.65976042904174,-148.1113239209857 -285.9898874479159,-150.6113239209866 -286.6597604289526,-153.11132392101135 -288.4898874478516,-154.94145093997554 -290.9898874478525,-155.61132392110133 -293.48988744787727,-154.94145094006464 -295.3200144668415,-153.11132392116568 -295.9898874479673,-150.6113239211648 -295.3200144669306,-148.11132392114004 -293.48988744803165,-146.28119690217585 -290.98988744803074,-145.61132392105006" stroke="#00f" stroke-linecap="round" stroke-linejoin="round"/><polyline fill="none" points="-276.68396647513873,58.12321251798446 -274.18396647511395,57.45333953694777 -272.35383945614973,55.62321251804881 -271.6839664750239,53.12321251804792 -272.3538394560606,50.62321251802316 -274.18396647495956,48.79308549905896 -276.68396647496047,48.12321251793316 -279.18396647498525,48.79308549896985 -281.0140934939495,50.623212517868815 -281.6839664750753,53.1232125178697 -281.0140934940386,55.623212517894466 -279.18396647513964,57.453339536858664 -276.68396647513873,58.12321251798446" stroke="#00f" stroke-linecap="round" stroke-linejoin="round"/><polyline fill="none" points="112.6096029554274,138.54499686315606 115.10960295545217,137.87512388211937 116.93972997441638,136.0449968632204 117.60960295554219,133.54499686321952 116.9397299745055,131.04499686319477 115.10960295560653,129.21486984423058 112.60960295560565,128.54499686310479 110.10960295558088,129.21486984414148 108.27947593661668,131.04499686304044 107.60960295549087,133.54499686304132 108.27947593652756,136.04499686306607 110.10960295542652,137.87512388203027 112.6096029554274,138.54499686315606" stroke="#ffa500" stroke-linecap="round" stroke-linejoin="round"/><polyline fill="none" points="-353.1882128789215,-77.69909799642973 -350.6882128788967,-78.36897097746642 -348.8580858599325,-80.19909799636538 -348.18821287880667,-82.69909799636626 -348.85808585984336,-85.19909799639103 -350.6882128787423,-87.02922501535524 -353.18821287874323,-87.69909799648104 -355.688212878768,-87.02922501544435 -357.51833989773223,-85.19909799654539 -358.18821287885805,-82.69909799654451 -357.51833989782136,-80.19909799651974 -355.6882128789224,-78.36897097755553 -353.1882128789215,-77.69909799642973" stroke="#ffa500" stroke-linecap="round" stroke-linejoin="round"/><polyline fill="none" points="-250.85389544469916,-138.66819002851543 -248.3538954446744,-139.33806300955212 -246.52376842571022,-141.16819002845108 -245.85389544458442,-143.66819002845196 -246.5237684256211,-146.16819002847672 -248.35389544452008,-147.9983170474409 -250.85389544452096,-148.6681900285667 -253.3538954445457,-147.99831704753 -255.1840224635099,-146.16819002863105 -255.8538954446357,-143.66819002863016 -255.184022463599,-141.1681900286054 -253.35389544470004,-139.33806300964122 -250.85389544469916,-138.6681900285154" stroke="#00f" stroke-linecap="round" stroke-linejoin="round"/><polyline fill="none" points="153.91180367681122,-95.04798747894982 156.41180367683597,-95.7178604599865 158.2419306958002,-97.54798747888546 158.911803676926,-100.04798747888634 158.24193069588932,-102.54798747891111 156.41180367699036,-104.37811449787532 153.91180367698948,-105.04798747900112 151.41180367696472,-104.37811449796445 149.5816766580005,-102.54798747906548 148.91180367687468,-100.0479874790646 149.58167665791137,-97.54798747903983 151.41180367681034,-95.71786046007563 153.91180367681122,-95.04798747894982" stroke="#ffa500" stroke-linecap="round" stroke-linejoin="round"/><polyline fill="none" points="-93.60253690796097,-7.164897242385816 -91.1025369079362,-7.8347702234224945 -89.27240988897199,-9.664897242321453 -88.60253690784619,-12.164897242322338 -89.27240988888286,-14.664897242347106 -91.10253690778183,-16.495024261311315 -93.6025369077827,-17.164897242437124 -96.10253690780748,-16.49502426140045 -97.93266392677168,-14.66489724250149 -98.60253690789749,-12.164897242500604 -97.93266392686081,-9.664897242475835 -96.10253690796185,-7.834770223511626 -93.60253690796097,-7.164897242385814" stroke="#00f" stroke-linecap="round" stroke-linejoin="round"/><polyline fill="none" points="32.41175232410731,130.32136282887305 34.91175232413208,129.65148984783636 36.741879343096294,127.8213628289374 37.41175232422211,125.32136282893651 36.74187934318543,122.82136282891175 34.911752324286475,120.99123580994754 32.41175232428559,120.32136282882173 29.911752324260817,120.99123580985841 28.081625305296605,122.82136282875737 27.41175232417079,125.32136282875825 28.081625305207467,127.82136282878302 29.911752324106423,129.65148984774723 32.41175232410731,130.32136282887305" stroke="#ffa500" stroke-linecap="round" stroke-linejoin="round"/><polyline fill="none" points="-360.0621466605404,-163.72244401594997 -357.5621466605156,-164.39231699698664 -355.7320196415514,-166.2224440158856 -355.0621466604256,-168.72244401588648 -355.7320196414623,-171.22244401591126 -357.56214666036124,-173.05257103487548 -360.06214666036215,-173.7224440160013 -362.56214666038693,-173.05257103496464 -364.39227367935115,-171.22244401606568 -365.06214666047697,-168.7224440160648 -364.3922736794403,-166.22244401604001 -362.5621466605413,-164.3923169970758 -360.0621466605404,-163.72244401594997" stroke="#ffa500" stroke-linecap="round" stroke-linejoin="round"/><polyline fill="none" points="-172.5689110769092,-137.63595313706787 -170.0689110768844,-138.30582611810453 -168.23878405792018,-140.1359531370035 -167.56891107679436,-142.63595313700438 -168.23878405783103,-145.13595313702916 -170.06891107673,-146.96608015599338 -172.56891107673087,-147.6359531371192 -175.06891107675565,-146.96608015608254 -176.89903809571987,-145.13595313718358 -177.5689110768457,-142.6359531371827 -176.89903809580903,-140.1359531371579 -175.06891107691007,-138.3058261181937 -172.5689110769092,-137.63595313706787" stroke="#ffa500" stroke-linecap="round" stroke-linejoin="round"/><polyline fill="none" points="-289.50092806241827,-1.3886017419617058 -287.0009280623935,-2.0584747229983735 -285.17080104342926,-3.888601741897326 -284.50092806230344,-6.388601741898212 -285.17080104334013,-8.888601741922987 -287.0009280622391,-10.718728760887204 -289.50092806224,-11.388601742013027 -292.0009280622648,-10.71872876097636 -293.831055081229,-8.888601742077407 -294.50092806235483,-6.388601742076522 -293.83105508131814,-3.8886017420517476 -292.0009280624192,-2.058474723087528 -289.50092806241827,-1.3886017419617045" stroke="#ffa500" stroke-linecap="round" stroke-linejoin="round"/><polyline fill="none" points="17.78091077543864,105.72577140209424 20.28091077546342,105.05589842105758 22.111037794427638,103.22577140215863 22.780910775553462,100.72577140215775 22.111037794516797,98.22577140213298 20.280910775617844,96.39564438316876 17.78091077561696,95.72577140204294 15.280910775592183,96.3956443830796 13.450783756627962,98.22577140197855 12.780910775502136,100.72577140197943 13.450783756538799,103.22577140200421 15.28091077543775,105.05589842096843 17.780910775438635,105.72577140209425" stroke="#00f" stroke-linecap="round" stroke-linejoin="round"/><polyline fill="none" points="74.7096164664314,254.50943410466286 77.20961646645618,253.8395611236262 79.0397434854204,252.00943410472723 79.70961646654622,249.50943410472635 79.03974348550956,247.00943410470157 77.20961646661061,245.17930708573735 74.70961646660973,244.50943410461153 72.20961646658495,245.1793070856482 70.37948944762073,247.00943410454715 69.7096164664949,249.50943410454803 70.37948944753155,252.00943410457282 72.2096164664305,253.83956112353704 74.70961646643138,254.50943410466286" stroke="#ffa500" stroke-linecap="round" stroke-linejoin="round"/><polyline fill="none" points="-179.2200301801585,-60.36141890028098 -176.7200301801337,-61.03129188131764 -174.88990316116949,-62.86141890021659 -174.22003018004366,-65.36141890021747 -174.88990316108033,-67.86141890024226 -176.72003017997926,-69.69154591920648 -179.22003017998014,-70.36141890033231 -181.72003018000493,-69.69154591929565 -183.55015719896915,-67.8614189003967 -184.22003018009497,-65.36141890039582 -183.5501571990583,-62.86141890037104 -181.72003018015937,-61.031291881406815 -179.2200301801585,-60.36141890028098" stroke="#00f" stroke-linecap="round" stroke-linejoin="round"/><polyline fill="none" points="-175.69396733640423,64.14175124613911 -173.19396733637944,63.47187826510245 -171.36384031741522,61.6417512462035 -170.6939673362894,59.14175124620261 -171.36384031732607,56.64175124617783 -173.193967336225,54.811624227213606 -175.69396733622588,54.14175124608777 -178.19396733625067,54.811624227124426 -180.02409435521488,56.641751246023375 -180.6939673363407,59.14175124602426 -180.02409435530404,61.64175124604905 -178.1939673364051,63.471878265013274 -175.69396733640423,64.14175124613911" stroke="#ffa500" stroke-linecap="round" stroke-linejoin="round"/><polyline fill="none" points="-64.81637559038184,-3.599798609301514 -62.316375590357055,-4.26967159033817 -60.48624857139283,-6.099798609237117 -59.81637559026699,-8.599798609238002 -60.48624857130365,-11.099798609262784 -62.3163755902026,-12.929925628227014 -64.81637559020348,-13.599798609352849 -67.31637559022826,-12.929925628316195 -69.1465026091925,-11.099798609417249 -69.81637559031833,-8.599798609416364 -69.14650260928167,-6.099798609391582 -67.31637559038272,-4.269671590427351 -64.81637559038184,-3.5997986093015144" stroke="#ffa500" stroke-linecap="round" stroke-linejoin="round"/><polyline fill="none" points="-293.1330045152149,-128.81320766210146 -290.6330045151901,-129.48308064313812 -288.8028774962259,-131.31320766203706 -288.1330045151001,-133.81320766203794 -288.8028774961367,-136.31320766206272 -290.6330045150357,-138.14333468102694 -293.1330045150366,-138.8132076621528 -295.6330045150614,-138.14333468111613 -297.4631315340256,-136.3132076622172 -298.1330045151514,-133.8132076622163 -297.4631315341148,-131.31320766219153 -295.6330045152158,-129.4830806432273 -293.1330045152149,-128.81320766210146" stroke="#008000" stroke-linecap="round" stroke-linejoin="round"/><polyline fill="none" points="-294.0757575225209,-133.77116838419084 -291.57575752249613,-134.4410413652275 -289.7456305035319,-136.27116838412644 -289.0757575224061,-138.77116838412732 -289.7456305034427,-141.2711683841521 -291.5757575223417,-143.10129540311635 -294.0757575223426,-143.7711683842422 -296.5757575223674,-143.10129540320554 -298.4058845413316,-141.2711683843066 -299.0757575224574,-138.77116838430572 -298.4058845414208,-136.27116838428094 -296.5757575225218,-134.4410413653167 -294.0757575225209,-133.77116838419084" stroke="#00f" stroke-linecap="round" stroke-linejoin="round"/><polyline fill="none" points="100.38124513167132,277.51630556718567 102.8812451316961,276.84643258614904 104.71137215066034,275.0163055672501 105.38124513178619,272.51630556724916 104.71137215074954,270.0163055672244 102.8812451318506,268.18617854826016 100.38124513184972,267.51630556713434 97.88124513182494,268.186178548171 96.0511181128607,270.01630556706994 95.38124513173486,272.51630556707084 96.0511181127715,275.0163055670956 97.88124513167044,276.84643258605985 100.38124513167132,277.51630556718567" stroke="#00f" stroke-linecap="round" stroke-linejoin="round"/><polyline fill="none" points="-279.62556876704076,-54.278049954959435 -277.125568767016,-54.94792293599608 -275.29544174805176,-56.778049954895025 -274.62556876692594,-59.27804995489591 -275.29544174796257,-61.7780499549207 -277.12556876686153,-63.60817697388494 -279.62556876686244,-64.27804995501079 -282.1255687668872,-63.60817697397414 -283.95569578585145,-61.7780499550752 -284.62556876697727,-59.27804995507431 -283.95569578594063,-56.778049955049525 -282.12556876704167,-54.947922936085284 -279.62556876704076,-54.278049954959435" stroke="#00f" stroke-linecap="round" stroke-linejoin="round"/><polyline fill="none" points="110.59457796280161,160.58462689282268 113.09457796282639,159.91475391178605 114.92470498179063,158.08462689288712 115.59457796291647,155.58462689288623 114.92470498187983,153.08462689286145 113.09457796298089,151.2544998738972 110.59457796298001,150.58462689277135 108.09457796295523,151.254499873808 106.26445094399098,153.08462689270692 105.59457796286513,155.5846268927078 106.26445094390178,158.0846268927326 108.09457796280071,159.91475391169683 110.5945779628016,160.58462689282268" stroke="#ffa500" stroke-linecap="round" stroke-linejoin="round"/><polyline fill="none" points="-255.47826682809503,-81.67721184001405 -252.97826682807025,-82.3470848210507 -251.148139809106,-84.17721183994963 -250.47826682798015,-86.67721183995052 -251.14813980901678,-89.1772118399753 -252.97826682791572,-91.00733885893955 -255.4782668279166,-91.6772118400654 -257.9782668279414,-91.00733885902875 -259.80839384690563,-89.17721184012981 -260.4782668280315,-86.67721184012893 -259.8083938469949,-84.17721184010415 -257.9782668280959,-82.3470848211399 -255.47826682809503,-81.67721184001405" stroke="#ffa500" stroke-linecap="round" stroke-linejoin="round"/><polyline fill="none" points="82.45580283101812,-134.15796791731344 84.9558028310429,-134.82784089835008 86.78592985000715,-136.657967917249 87.455802831133,-139.1579679172499 86.78592985009637,-141.65796791727468 84.95580283119743,-143.48809493623892 82.45580283119655,-144.15796791736477 79.95580283117175,-143.48809493632814 78.1256758122075,-141.6579679174292 77.45580283108164,-139.15796791742832 78.12567581211827,-136.65796791740354 79.95580283101721,-134.8278408984393 82.45580283101809,-134.15796791731344" stroke="#ffa500" stroke-linecap="round" stroke-linejoin="round"/><polyline fill="none" points="-271.214843849068,71.39104362620745 -268.71484384904323,70.72117064517082 -266.88471683007896,68.89104362627188 -266.2148438489531,66.391043626271 -266.8847168299897,63.89104362624621 -268.7148438488886,62.06091660728196 -271.21484384888953,61.391043626156105 -273.7148438489143,62.06091660719274 -275.5449708678786,63.89104362609167 -276.21484384900447,66.39104362609255 -275.54497086796783,68.89104362611735 -273.7148438490689,70.7211706450816 -271.214843849068,71.39104362620746" stroke="#ffa500" stroke-linecap="round" stroke-linejoin="round"/><polyline fill="none" points="14.20424413721686,-107.52314540399169 16.704244137241652,-108.19301838502832 18.534371156205903,-110.02314540392726 19.204244137331763,-112.52314540392814 18.53437115629513,-115.02314540395294 16.7042441373962,-116.85327242291719 14.204244137395314,-117.52314540404305 11.70424413737052,-116.85327242300642 9.874117118406266,-115.02314540410748 9.204244137280405,-112.5231454041066 9.874117118317038,-110.0231454040818 11.70424413721597,-108.19301838511755 14.204244137216854,-107.52314540399169" stroke="#ffa500" stroke-linecap="round" stroke-linejoin="round"/><polyline fill="none" points="-341.9740488680485,-109.68309700523116 -339.4740488680237,-110.3529699862678 -337.64392184905944,-112.18309700516673 -336.97404886793356,-114.68309700516761 -337.6439218489702,-117.18309700519241 -339.4740488678691,-119.01322402415666 -341.97404886787,-119.68309700528252 -344.4740488678948,-119.01322402424589 -346.30417588685907,-117.18309700534695 -346.97404886798495,-114.68309700534607 -346.3041758869483,-112.18309700532127 -344.4740488680494,-110.35296998635701 -341.9740488680485,-109.68309700523115" stroke="#008000" stroke-linecap="round" stroke-linejoin="round"/><polyline fill="none" points="-199.7396379251588,38.971315741137005 -197.23963792513402,38.30144276010038 -195.40951090616977,36.47131574120145 -194.7396379250439,33.97131574120056 -195.40951090608053,31.471315741175765 -197.23963792497946,29.641188722211506 -199.73963792498034,28.97131574108564 -202.23963792500513,29.64118872212227 -204.06976494396937,31.4713157410212 -204.73963792509525,33.97131574102209 -204.06976494405862,36.47131574104689 -202.23963792515968,38.30144276001114 -199.7396379251588,38.97131574113701" stroke="#00f" stroke-linecap="round" stroke-linejoin="round"/><polyline fill="none" points="-161.17095526770038,-49.63357485039863 -158.6709552676756,-50.30344783143526 -156.84082824871135,-52.133574850334185 -156.17095526758547,-54.63357485033507 -156.8408282486221,-57.13357485035987 -158.67095526752104,-58.96370186932413 -161.17095526752192,-59.63357485045 -163.67095526754673,-58.96370186941338 -165.50108228651098,-57.13357485051445 -166.17095526763686,-54.63357485051356 -165.50108228660022,-52.13357485048876 -163.6709552677013,-50.3034478315245 -161.1709552677004,-49.63357485039863" stroke="#ffa500" stroke-linecap="round" stroke-linejoin="round"/><polyline fill="none" points="67.25395228824429,143.15176809102388 69.75395228826909,142.48189510998725 71.58407930723335,140.65176809108831 72.25395228835923,138.15176809108743 71.58407930732261,135.65176809106262 69.75395228842368,133.82164107209837 67.2539522884228,133.1517680909725 64.753952288398,133.82164107200913 62.923825269433735,135.65176809090806 62.253952288307865,138.15176809090894 62.92382526934449,140.65176809093376 64.75395228824341,142.48189510989803 67.25395228824429,143.1517680910239" stroke="#00f" stroke-linecap="round" stroke-linejoin="round"/><polyline fill="none" points="-441.75261067754946,-95.10951859450671 -439.2526106775247,-95.77939157554333 -437.4224836585604,-97.60951859444225 -436.7526106774345,-100.10951859444313 -437.42248365847115,-102.60951859446793 -439.25261067737006,-104.43964561343219 -441.75261067737097,-105.10951859455807 -444.25261067739575,-104.43964561352145 -446.08273769636,-102.60951859462253 -446.7526106774859,-100.10951859462165 -446.08273769644927,-97.60951859459685 -444.25261067755036,-95.77939157563259 -441.75261067754946,-95.10951859450671" stroke="#ffa500" stroke-linecap="round" stroke-linejoin="round"/><polyline fill="none" points="-267.0182922487816,58.36655583476295 -264.51829224875684,57.69668285372633 -262.68816522979256,55.8665558348274 -262.0182922486667,53.366555834826514 -262.6881652297033,50.866555834801716 -264.5182922486022,49.036428815837446 -267.01829224860313,48.36655583471157 -269.5182922486279,49.03642881574819 -271.3484192675922,50.866555834647116 -272.01829224871807,53.366555834648004 -271.34841926768144,55.86655583467281 -269.51829224878253,57.69668285363708 -267.0182922487816,58.366555834762956" stroke="#ffa500" stroke-linecap="round" stroke-linejoin="round"/><polyline fill="none" points="-289.0815615040381,64.35654651791296 -286.58156150401334,63.68667353687634 -284.75143448504906,61.85654651797742 -284.0815615039232,59.35654651797653 -284.7514344849598,56.85654651795173 -286.5815615038587,55.02641949898746 -289.08156150385963,54.35654651786158 -291.5815615038844,55.0264194988982 -293.4116885228487,56.85654651779712 -294.08156150397457,59.35654651779801 -293.41168852293794,61.856546517822814 -291.58156150403903,63.68667353678708 -289.0815615040381,64.35654651791296" stroke="#ffa500" stroke-linecap="round" stroke-linejoin="round"/><polyline fill="none" points="-287.4637818911241,-123.19474237932724 -284.9637818910993,-123.86461536036386 -283.133654872135,-125.69474237926278 -282.46378189100915,-128.19474237926366 -283.1336548720458,-130.69474237928847 -284.9637818909447,-132.52486939825275 -287.4637818909456,-133.19474237937862 -289.9637818909704,-132.52486939834202 -291.79390890993466,-130.69474237944308 -292.46378189106053,-128.1947423794422 -291.7939089100239,-125.69474237941739 -289.963781891125,-123.86461536045312 -287.4637818911241,-123.19474237932722" stroke="#008000" stroke-linecap="round" stroke-linejoin="round"/><polyline fill="none" points="-408.7319919427824,-124.79276795882043 -406.2319919427576,-125.46264093985705 -404.4018649237933,-127.29276795875597 -403.73199194266743,-129.79276795875685 -404.40186492370407,-132.29276795878167 -406.231991942603,-134.12289497774594 -408.7319919426039,-134.79276795887182 -411.23199194262867,-134.12289497783522 -413.06211896159294,-132.2927679589363 -413.7319919427188,-129.79276795893543 -413.0621189616822,-127.29276795891062 -411.2319919427833,-125.46264093994634 -408.7319919427824,-124.79276795882045" stroke="#ffa500" stroke-linecap="round" stroke-linejoin="round"/><polyline fill="none" points="-316.6861736681569,-136.9610976872603 -314.18617366813214,-137.6309706682969 -312.35604664916787,-139.4610976871958 -311.686173668042,-141.96109768719668 -312.3560466490786,-144.4610976872215 -314.1861736679775,-146.29122470618577 -316.68617366797844,-146.96109768731165 -319.1861736680032,-146.29122470627505 -321.0163006869675,-144.46109768737614 -321.6861736680934,-141.96109768737526 -321.01630068705674,-139.46109768735045 -319.18617366815783,-137.63097066838617 -316.6861736681569,-136.9610976872603" stroke="#00f" stroke-linecap="round" stroke-linejoin="round"/><polyline fill="none" points="-35.565155824777214,-168.11981434226817 -33.0651558247524,-168.78968732330478 -31.235028805788122,-170.61981434220368 -30.56515582466223,-173.11981434220456 -31.235028805698835,-175.61981434222938 -33.06515582459775,-177.44994136119365 -35.56515582459864,-178.11981434231956 -38.06515582462345,-177.44994136128295 -39.89528284358774,-175.61981434238405 -40.56515582471363,-173.11981434238317 -39.89528284367702,-170.61981434235835 -38.06515582477811,-168.78968732339408 -35.56515582477722,-168.11981434226817" stroke="#00f" stroke-linecap="round" stroke-linejoin="round"/><polyline fill="none" points="-396.1919660357456,-96.99964737551039 -393.69196603572084,-97.669520356547 -391.86183901675656,-99.49964737544592 -391.1919660356307,-101.9996473754468 -391.86183901666726,-104.49964737547161 -393.69196603556617,-106.32977439443589 -396.1919660355671,-106.99964737556178 -398.69196603559186,-106.32977439452517 -400.52209305455614,-104.49964737562625 -401.191966035682,-101.99964737562537 -400.52209305464544,-99.49964737560056 -398.69196603574653,-97.66952035663627 -396.1919660357456,-96.99964737551038" stroke="#00f" stroke-linecap="round" stroke-linejoin="round"/><polyline fill="none" points="42.310904565685256,112.8935023675457 44.81090456571007,112.22362938650909 46.64103158467435,110.39350236761017 47.31090456580025,107.89350236760929 46.64103158476365,105.39350236758447 44.81090456586474,103.56337534862018 42.31090456586385,102.89350236749428 39.81090456583904,103.56337534853088 37.980777546874755,105.39350236742979 37.31090456574886,107.89350236743067 37.980777546785454,110.39350236745548 39.81090456568437,112.22362938641977 42.310904565685256,112.89350236754568" stroke="#ffa500" stroke-linecap="round" stroke-linejoin="round"/><polyline fill="none" points="-323.3663606703487,-50.93899543234764 -320.86636067032384,-51.608868413384236 -319.03623365135957,-53.43899543228315 -318.3663606702337,-55.93899543228404 -319.03623365127027,-58.43899543230885 -320.8663606701692,-60.26912245127314 -323.3663606701701,-60.93899543239905 -325.8663606701949,-60.26912245136245 -327.6964876891592,-58.438995432463535 -328.3663606702851,-55.93899543246265 -327.6964876892485,-53.438995432437835 -325.8663606703496,-51.608868413473544 -323.3663606703487,-50.93899543234764" stroke="#008000" stroke-linecap="round" stroke-linejoin="round"/><polyline fill="none" points="-50.37049602784183,18.177338359027896 -47.87049602781702,17.5074653779913 -46.04036900885273,15.677338359092387 -45.37049602772682,13.177338359091502 -46.04036900876342,10.677338359066686 -47.870496027662334,8.847211340102398 -50.37049602766322,8.177338358976494 -52.870496027688034,8.84721134001309 -54.700623046652325,10.677338358912 -55.37049602777823,13.177338358912884 -54.70062304674163,15.6773383589377 -52.87049602784272,17.50746537790199 -50.37049602784183,18.177338359027896" stroke="#ffa500" stroke-linecap="round" stroke-linejoin="round"/><polyline fill="none" points="70.17885121599086,-240.49174203376424 72.67885121601567,-241.16161501480084 74.50897823497996,-242.99174203369975 75.17885121610587,-245.49174203370063 74.50897823506928,-247.99174203372544 72.67885121617037,-249.82186905268975 70.17885121616949,-250.49174203381565 67.67885121614468,-249.82186905277905 65.84872419718039,-247.99174203388014 65.17885121605448,-245.49174203387926 65.84872419709107,-242.99174203385445 67.67885121598998,-241.16161501489015 70.17885121599086,-240.49174203376424" stroke="#ffa500" stroke-linecap="round" stroke-linejoin="round"/><polyline fill="none" points="76.54585362136956,279.5717129430947 79.04585362139437,278.90183996205815 80.87598064035866,277.07171294315924 81.54585362148457,274.57171294315833 80.87598064044798,272.0717129431335 79.04585362154907,270.2415859241692 76.54585362154819,269.5717129430433 74.04585362152338,270.24158592407986 72.21572660255909,272.07171294297876 71.54585362143318,274.5717129429797 72.21572660246977,277.0717129430045 74.04585362136868,278.9018399619688 76.54585362136956,279.5717129430947" stroke="#ffa500" stroke-linecap="round" stroke-linejoin="round"/><polyline fill="none" points="220.9760611271731,-151.9727763956079 223.4760611271979,-152.64264937664447 225.3061881461622,-154.47277639554338 225.97606112728812,-156.97277639554426 225.30618814625154,-159.47277639556907 223.47606112735264,-161.30290341453338 220.97606112735176,-161.97277639565928 218.47606112732694,-161.3029034146227 216.64593410836264,-159.4727763957238 215.97606112723673,-156.97277639572292 216.6459341082733,-154.4727763956981 218.47606112717222,-152.6426493767338 220.9760611271731,-151.9727763956079" stroke="#ffa500" stroke-linecap="round" stroke-linejoin="round"/><polyline fill="none" points="3.80067421756988,-173.9347774081439 6.3006742175947,-174.60465038918048 8.130801236559,-176.43477740807938 8.800674217684916,-178.93477740808027 8.130801236648331,-181.43477740810508 6.300674217749426,-183.26490442706938 3.8006742177485417,-183.9347774081953 1.3006742177237207,-183.2649044271587 -0.5294528012405797,-181.4347774082598 -1.1993257823664971,-178.93477740825892 -0.5294528013299132,-176.4347774082341 1.3006742175689907,-174.6046503892698 3.800674217569876,-173.9347774081439" stroke="#ffa500" stroke-linecap="round" stroke-linejoin="round"/><polyline fill="none" points="-41.395993773756686,-142.53662584804027 -38.89599377373186,-143.20649882907685 -37.065866754767555,-145.03662584797576 -36.395993773641635,-147.53662584797664 -37.06586675467822,-150.03662584800145 -38.895993773577125,-151.86675286696575 -41.39599377357801,-152.53662584809166 -43.89599377360284,-151.86675286705508 -45.726120792567144,-150.03662584815618 -46.395993773693064,-147.5366258481553 -45.72612079265648,-145.03662584813048 -43.89599377375758,-143.20649882916618 -41.39599377375669,-142.53662584804025" stroke="#00f" stroke-linecap="round" stroke-linejoin="round"/><polyline fill="none" points="166.84650151928722,-143.59793385394732 169.34650151931203,-144.2678068349839 171.17662853827633,-146.0979338538828 171.84650151940227,-148.5979338538837 171.1766285383657,-151.0979338539085 169.34650151946678,-152.9280608728728 166.8465015194659,-153.59793385399874 164.3465015194411,-152.92806087296216 162.5163745004768,-151.09793385406326 161.84650151935085,-148.59793385406238 162.51637450038743,-146.09793385403756 164.34650151928633,-144.26780683507326 166.84650151928722,-143.59793385394732" stroke="#00f" stroke-linecap="round" stroke-linejoin="round"/><polyline fill="none" points="-426.90315866153725,-91.94598980692972 -424.4031586615124,-92.6158627879663 -422.5730316425481,-94.4459898068652 -421.90315866142214,-96.94598980686608 -422.5730316424587,-99.4459898068909 -424.4031586613576,-101.27611682585521 -426.90315866135853,-101.94598980698113 -429.4031586613834,-101.27611682594456 -431.2332856803477,-99.44598980704565 -431.90315866147364,-96.94598980704477 -431.23328568043706,-94.44598980701994 -429.40315866153816,-92.61586278805564 -426.90315866153725,-91.9459898069297" stroke="#00f" stroke-linecap="round" stroke-linejoin="round"/><polyline fill="none" points="79.07187788650774,-145.94403661981 81.57187788653256,-146.61390960084657 83.40200490549687,-148.44403661974548 84.0718778866228,-150.94403661974636 83.40200490558622,-153.4440366197712 81.57187788668733,-155.2741636387355 79.07187788668645,-155.94403661986144 76.57187788666162,-155.27416363882486 74.74175086769732,-153.44403661992595 74.07187788657139,-150.94403661992507 74.74175086760796,-148.44403661990023 76.57187788650685,-146.61390960093593 79.07187788650774,-145.94403661981" stroke="#00f" stroke-linecap="round" stroke-linejoin="round"/><polyline fill="none" points="-371.5029670964605,-149.8890552508168 -369.00296709643567,-150.55892823185337 -367.17284007747134,-152.38905525075228 -366.5029670963454,-154.88905525075316 -367.172840077382,-157.389055250778 -369.0029670962809,-159.2191822697423 -371.5029670962818,-159.88905525086824 -374.00296709630663,-159.21918226983166 -375.83309411527097,-157.38905525093276 -376.5029670963969,-154.88905525093188 -375.8330941153603,-152.38905525090703 -374.0029670964614,-150.55892823194273 -371.5029670964605,-149.8890552508168" stroke="#ffa500" stroke-linecap="round" stroke-linejoin="round"/><polyline fill="none" points="-291.99516390947997,94.83056920394229 -289.49516390945513,94.16069622290571 -287.6650368904908,92.33056920400682 -286.99516390936486,89.83056920400594 -287.66503689040144,87.33056920398111 -289.49516390930035,85.5004421850168 -291.99516390930125,84.83056920389086 -294.4951639093261,85.50044218492744 -296.3252909282904,87.33056920382633 -296.99516390941636,89.83056920382721 -296.3252909283798,92.33056920385204 -294.4951639094809,94.16069622281636 -291.99516390947997,94.83056920394229" stroke="#ffa500" stroke-linecap="round" stroke-linejoin="round"/><polyline fill="none" points="-288.15927510454094,-43.22459519691829 -285.6592751045161,-43.894468177954856 -283.82914808555176,-45.724595196853755 -283.15927510442583,-48.224595196854644 -283.8291480854624,-50.72459519687948 -285.6592751043613,-52.554722215843796 -288.1592751043622,-53.22459519696973 -290.65927510438706,-52.55472221593316 -292.4894021233514,-50.72459519703427 -293.15927510447733,-48.22459519703338 -292.48940212344075,-45.72459519700855 -290.65927510454185,-43.89446817804423 -288.15927510454094,-43.22459519691829" stroke="#00f" stroke-linecap="round" stroke-linejoin="round"/><polyline fill="none" points="-335.1302631461312,-98.59636907038808 -332.63026314610636,-99.26624205142464 -330.800136127142,-101.09636907032353 -330.1302631460161,-103.59636907032441 -330.80013612705267,-106.09636907034924 -332.6302631459516,-107.92649608931356 -335.1302631459525,-108.5963690704395 -337.6302631459773,-107.92649608940293 -339.46039016494166,-106.09636907050404 -340.1302631460676,-103.59636907050316 -339.460390165031,-101.09636907047833 -337.6302631461321,-99.26624205151401 -335.1302631461312,-98.59636907038808" stroke="#008000" stroke-linecap="round" stroke-linejoin="round"/><polyline fill="none" points="156.56167990985418,-117.20283216424902 159.06167990987902,-117.87270514528558 160.89180692884335,-119.70283216418447 161.56167990996929,-122.20283216418535 160.8918069289327,-124.7028321642102 159.06167991003383,-126.53295918317451 156.56167991003295,-127.20283216430046 154.0616799100081,-126.5329591832639 152.23155289104378,-124.702832164365 151.56167990991784,-122.20283216436412 152.2315528909544,-119.70283216433928 154.06167990985327,-117.87270514537497 156.56167990985415,-117.20283216424902" stroke="#ffa500" stroke-linecap="round" stroke-linejoin="round"/><polyline fill="none" points="82.90649120918143,-224.65653598795686 85.40649120920627,-225.3264089689934 87.23661822817058,-227.15653598789228 87.90649120929653,-229.65653598789316 87.23661822825997,-232.156535987918 85.40649120936108,-233.98666300688234 82.9064912093602,-234.65653598800827 80.40649120933536,-233.98666300697172 78.57636419037104,-232.15653598807285 77.90649120924509,-229.65653598807197 78.57636419028165,-227.15653598804712 80.40649120918054,-225.3264089690828 82.90649120918143,-224.65653598795686" stroke="#ffa500" stroke-linecap="round" stroke-linejoin="round"/><polyline fill="none" points="-353.98007796255115,-131.02406771557472 -351.4800779625263,-131.69394069661126 -349.649950943562,-133.52406771551014 -348.98007796243604,-136.02406771551102 -349.6499509434726,-138.52406771553586 -351.4800779623715,-140.3541947345002 -353.98007796237243,-141.02406771562613 -356.4800779623973,-140.35419473458958 -358.3102049813616,-138.5240677156907 -358.98007796248754,-136.02406771568982 -358.31020498145097,-133.52406771566498 -356.48007796255206,-131.69394069670065 -353.98007796255115,-131.0240677155747" stroke="#00f" stroke-linecap="round" stroke-linejoin="round"/><polyline fill="none" points="28.36527989162157,-165.10013801501663 30.865279891646406,-165.77001099605317 32.695406910610735,-167.60013801495205 33.365279891736684,-170.10013801495293 32.69540691070013,-172.60013801497777 30.86527989180124,-174.4302650339421 28.365279891800355,-175.10013801506807 25.865279891775515,-174.43026503403152 24.035152872811185,-172.60013801513264 23.365279891685233,-170.10013801513176 24.03515287272179,-167.60013801510692 25.865279891620677,-165.7700109961426 28.36527989162156,-165.10013801501663" stroke="#00f" stroke-linecap="round" stroke-linejoin="round"/><polyline fill="none" points="14.126315186832056,-127.93364422891943 16.626315186856896,-128.60351720995598 18.456442205821226,-130.43364422885486 19.126315186947178,-132.93364422885574 18.456442205910623,-135.43364422888058 16.626315187011734,-137.26377124784491 14.12631518701085,-137.93364422897088 11.626315186986009,-137.26377124793433 9.796188168021677,-135.43364422903545 9.126315186895724,-132.93364422903457 9.796188167932277,-130.43364422900973 11.626315186831164,-128.6035172100454 14.126315186832048,-127.93364422891945" stroke="#ffa500" stroke-linecap="round" stroke-linejoin="round"/><polyline fill="none" points="-276.9026128214639,81.52744422174027 -274.40261282143905,80.85757124070372 -272.5724858024747,79.02744422180483 -271.9026128213488,76.52744422180395 -272.57248580238536,74.0274442217791 -274.40261282128427,72.19731720281477 -276.9026128212852,71.52744422168881 -279.40261282131,72.19731720272536 -281.23273984027435,74.02744422162424 -281.9026128214003,76.52744422162512 -281.2327398403637,79.02744422164996 -279.4026128214648,80.85757124061429 -276.9026128214639,81.52744422174025" stroke="#ffa500" stroke-linecap="round" stroke-linejoin="round"/><polyline fill="none" points="-357.8154325908652,-111.04048210552673 -355.3154325908404,-111.71035508656328 -353.48530557187604,-113.54048210546216 -352.8154325907501,-116.04048210546304 -353.4853055717867,-118.54048210548788 -355.3154325906856,-120.37060912445222 -357.8154325906865,-121.04048210557818 -360.31543259071134,-120.37060912454163 -362.1455596096757,-118.54048210564275 -362.8154325908016,-116.04048210564187 -362.1455596097651,-113.54048210561703 -360.3154325908662,-111.7103550866527 -357.81543259086527,-111.04048210552673" stroke="#008000" stroke-linecap="round" stroke-linejoin="round"/><polyline fill="none" points="-254.16220401321172,-71.68370472061522 -251.66220401318688,-72.35357770165177 -249.83207699422255,-74.18370472055065 -249.16220401309658,-76.68370472055153 -249.83207699413313,-79.18370472057637 -251.662204013032,-81.0138317395407 -254.1622040130329,-81.68370472066667 -256.66220401305776,-81.01383173963012 -258.4923310320221,-79.18370472073124 -259.1622040131481,-76.68370472073036 -258.49233103211157,-74.18370472070552 -256.66220401321266,-72.35357770174119 -254.16220401321178,-71.68370472061522" stroke="#ffa500" stroke-linecap="round" stroke-linejoin="round"/><polyline fill="none" points="-279.9339651408399,-126.2572379584945 -277.4339651408151,-126.92711093953105 -275.60383812185074,-128.75723795842993 -274.93396514072475,-131.2572379584308 -275.60383812176127,-133.75723795845565 -277.4339651406602,-135.58736497741998 -279.9339651406611,-136.25723795854594 -282.4339651406859,-135.5873649775094 -284.26409215965026,-133.75723795861052 -284.93396514077625,-131.25723795860964 -284.26409215973973,-128.7572379585848 -282.4339651408408,-126.92711093962045 -279.9339651408399,-126.25723795849449" stroke="#ffa500" stroke-linecap="round" stroke-linejoin="round"/><polyline fill="none" points="-306.6044435855813,-128.16436754051577 -304.10444358555645,-128.83424052155232 -302.2743165665921,-130.6643675404512 -301.60444358546613,-133.16436754045208 -302.27431656650265,-135.66436754047692 -304.10444358540155,-137.49449455944125 -306.60444358540246,-138.1643675405672 -309.1044435854273,-137.49449455953066 -310.93457060439164,-135.6643675406318 -311.60444358551763,-133.1643675406309 -310.9345706044811,-130.66436754060607 -309.1044435855822,-128.83424052164173 -306.6044435855813,-128.16436754051577" stroke="#00f" stroke-linecap="round" stroke-linejoin="round"/><polyline fill="none" points="93.73638733011315,266.5777128687868 96.23638733013799,265.9078398877503 98.06651434910233,264.0777128688514 98.7363873302283,261.5777128688505 98.06651434919176,259.07771286882564 96.23638733029289,257.2475858498613 93.736387330292,256.5777128687353 91.23638733026715,257.24758584977184 89.4062603113028,259.0777128686707 88.73638733017683,261.5777128686716 89.40626031121336,264.07771286869644 91.23638733011224,265.90783988766077 93.73638733011312,266.57771286878676" stroke="#ffa500" stroke-linecap="round" stroke-linejoin="round"/><polyline fill="none" points="-262.4153805583302,-33.444393969703924 -259.91538055830534,-34.114266950740465 -258.085253539341,-35.94439396963934 -257.415380558215,-38.44439396964023 -258.08525353925154,-40.94439396966508 -259.9153805581504,-42.774520988629426 -262.4153805581513,-43.444393969755396 -264.91538055817614,-42.77452098871886 -266.7455075771405,-40.944393969819984 -267.41538055826646,-38.444393969819096 -266.74550757722994,-35.94439396979425 -264.9153805583311,-34.1142669508299 -262.4153805583302,-33.444393969703924" stroke="#ffa500" stroke-linecap="round" stroke-linejoin="round"/></svg>