<?xml version="1.0" ?><!DOCTYPE svg  PUBLIC '-//W3C//DTD SVG 1.1//EN'  'http://www.w3.org/Graphics/SVG/1.1/DTD/svg11.dtd'><svg height="314.000" viewBox="-422.000 -224.000 848.000 314.000" width="848.000" xmlns="http://www.w3.org/2000/svg"><line fill="none" stroke="none" stroke-linecap="round" stroke-width="2.0" x1="0.0" x2="0.0" y1="0.0" y2="0.0"/><polygon fill="none" fill-rule="evenodd" points="0.0,0.0 0.0,0.0 0.0,0.0" stroke-linejoin="round"/><polyline fill="none" points="-405.15060906955034,-158.59953857957828 -402.65060906952533,-159.26941156061454 -400.8204820505607,-161.09953857951328 -400.15060906943444,-163.59953857951416 -400.82048205047073,-166.09953857953917 -402.65060906936947,-167.9296655985038 -405.1506090693704,-168.59953857963006 -407.6506090693954,-167.9296655985938 -409.48073608836,-166.09953857969506 -410.1506090694863,-163.59953857969418 -409.48073608845,-161.09953857966917 -407.65060906955125,-159.26941156070455 -405.15060906955034,-158.59953857957828" stroke="#00f" stroke-linecap="round" stroke-linejoin="round"/><polyline fill="none" points="-363.0872098060661,-182.23951210776085 -360.5872098060411,-182.9093850887971 -358.75708278707646,-184.73951210769584 -358.0872098059502,-187.23951210769673 -358.7570827869865,-189.73951210772174 -360.5872098058852,-191.56963912668635 -363.0872098058861,-192.23951210781263 -365.58720980591113,-191.56963912677637 -367.41733682487575,-189.73951210787763 -368.087209806002,-187.23951210787675 -367.41733682496573,-184.73951210785174 -365.587209806067,-182.90938508888712 -363.0872098060661,-182.23951210776085" stroke="#008000" stroke-linecap="round" stroke-linejoin="round"/><polyline fill="none" points="-279.2587120679848,-141.8829499866271 -276.7587120679598,-142.55282296766336 -274.92858504899516,-144.3829499865621 -274.2587120678689,-146.88294998656298 -274.9285850489052,-149.382949986588 -276.7587120678039,-151.2130770055526 -279.2587120678048,-151.88294998667888 -281.75871206782983,-151.21307700564262 -283.58883908679445,-149.38294998674388 -284.2587120679207,-146.882949986743 -283.58883908688443,-144.382949986718 -281.7587120679857,-142.55282296775337 -279.2587120679848,-141.8829499866271" stroke="#ffa500" stroke-linecap="round" stroke-linejoin="round"/><polyline fill="none" points="-370.0258548535061,-170.8790153554017 -367.52585485348106,-171.54888833643795 -365.69572783451645,-173.3790153553367 -365.0258548533902,-175.87901535533757 -365.69572783442646,-178.37901535536258 -367.5258548533252,-180.2091423743272 -370.0258548533261,-180.87901535545348 -372.5258548533511,-180.2091423744172 -374.35598187231574,-178.37901535551848 -375.025854853442,-175.8790153555176 -374.3559818724057,-173.37901535549258 -372.525854853507,-171.54888833652797 -370.0258548535061,-170.8790153554017" stroke="#008000" stroke-linecap="round" stroke-linejoin="round"/><polyline fill="none" points="-387.8442621266788,-131.27840832024324 -385.3442621266538,-131.9482813012795 -383.5141351076892,-133.77840832017824 -382.8442621265629,-136.27840832017912 -383.5141351075992,-138.77840832020414 -385.34426212649794,-140.60853533916875 -387.84426212649885,-141.27840832029503 -390.34426212652386,-140.60853533925876 -392.1743891454885,-138.77840832036003 -392.84426212661475,-136.27840832035915 -392.17438914557846,-133.77840832033414 -390.3442621266797,-131.94828130136952 -387.8442621266788,-131.27840832024322" stroke="#00f" stroke-linecap="round" stroke-linejoin="round"/><polyline fill="none" points="-406.0830315598584,-202.5458583190246 -403.5830315598334,-203.21573130006087 -401.75290454086877,-205.0458583189596 -401.0830315597425,-207.54585831896048 -401.7529045407788,-210.0458583189855 -403.5830315596775,-211.8759853379501 -406.08303155967843,-212.54585831907642 -408.58303155970344,-211.87598533804015 -410.41315857866806,-210.04585831914142 -411.08303155979434,-207.54585831914054 -410.41315857875804,-205.04585831911552 -408.5830315598593,-203.2157313001509 -406.0830315598584,-202.5458583190246" stroke="#00f" stroke-linecap="round" stroke-linejoin="round"/><polyline fill="none" points="392.5276001646472,-156.22687464178577 395.0276001646722,-156.89674762282203 396.8577271836368,-158.72687464172077 397.5276001647631,-161.22687464172165 396.85772718372687,-163.72687464174666 395.02760016482813,-165.55700166071128 392.5276001648272,-166.22687464183758 390.0276001648022,-165.55700166080132 388.1974731458376,-163.72687464190258 387.5276001647113,-161.2268746419017 388.19747314574755,-158.7268746418767 390.0276001646463,-156.89674762291205 392.5276001646472,-156.22687464178574" stroke="#ffa500" stroke-linecap="round" stroke-linejoin="round"/><polyline fill="none" points="-371.58126431111253,-135.9423735990632 -369.0812643110875,-136.61224658009945 -367.2511372921229,-138.4423735989982 -366.58126431099663,-140.94237359899907 -367.25113729203287,-143.44237359902408 -369.0812643109316,-145.27250061798873 -371.5812643109325,-145.94237359911503 -374.0812643109575,-145.27250061807877 -375.91139132992214,-143.44237359918003 -376.5812643110484,-140.94237359917915 -375.9113913300122,-138.44237359915414 -374.08126431111344,-136.6122465801895 -371.58126431111253,-135.9423735990632" stroke="#00f" stroke-linecap="round" stroke-linejoin="round"/><polyline fill="none" points="74.59010723313965,-50.48840490723141 77.09010723316467,-51.15827788826767 78.9202342521293,-52.98840490716639 79.59010723325561,-55.488404907167286 78.92023425221934,-57.988404907192304 77.09010723332062,-59.81853192615694 74.59010723331973,-60.48840490728324 72.0901072332947,-59.81853192624698 70.25998021433007,-57.98840490734826 69.59010723320377,-55.488404907347366 70.25998021424003,-52.98840490732235 72.09010723313875,-51.15827788835771 74.59010723313965,-50.488404907231406" stroke="#ffa500" stroke-linecap="round" stroke-linejoin="round"/><polyline fill="none" points="409.139927952525,-180.59644906383687 411.63992795255,-181.26632204487314 413.4700549715146,-183.09644906377184 414.1399279526409,-185.59644906377272 413.47005497160467,-188.09644906379773 411.63992795270593,-189.92657608276238 409.139927952705,-190.59644906388868 406.63992795268,-189.92657608285242 404.8098009337154,-188.0964490639537 404.1399279525891,-185.59644906395283 404.80980093362535,-183.09644906392782 406.6399279525241,-181.26632204496318 409.139927952525,-180.59644906383687" stroke="#00f" stroke-linecap="round" stroke-linejoin="round"/><polyline fill="none" points="-382.19631099609626,-195.10256667158143 -379.69631099607125,-195.7724396526177 -377.86618397710663,-197.6025666715164 -377.1963109959803,-200.10256667151728 -377.86618397701653,-202.6025666715423 -379.69631099591527,-204.43269369050694 -382.1963109959162,-205.10256667163324 -384.6963109959412,-204.43269369059698 -386.5264380149058,-202.60256667169827 -387.19631099603214,-200.1025666716974 -386.5264380149959,-197.60256667167238 -384.69631099609717,-195.77243965270773 -382.19631099609626,-195.10256667158143" stroke="#00f" stroke-linecap="round" stroke-linejoin="round"/><polyline fill="none" points="-311.98986143219696,-110.22611482428303 -309.48986143217195,-110.89598780531928 -307.65973441320733,-112.726114824218 -306.989861432081,-115.2261148242189 -307.65973441311723,-117.72611482424392 -309.48986143201597,-119.55624184320857 -311.9898614320169,-120.22611482433487 -314.4898614320419,-119.55624184329862 -316.3199884510065,-117.7261148243999 -316.98986143213284,-115.226114824399 -316.3199884510966,-112.72611482437398 -314.48986143219787,-110.89598780540933 -311.98986143219696,-110.22611482428303" stroke="#00f" stroke-linecap="round" stroke-linejoin="round"/><polyline fill="none" points="-340.52029096350003,-166.39920886544192 -338.020290963475,-167.06908184647818 -336.1901639445104,-168.8992088653769 -335.52029096338407,-171.39920886537777 -336.1901639444203,-173.8992088654028 -338.02029096331904,-175.72933588436746 -340.52029096331995,-176.39920886549376 -343.02029096334496,-175.72933588445753 -344.85041798230964,-173.89920886555882 -345.52029096343597,-171.39920886555794 -344.85041798239973,-168.8992088655329 -343.020290963501,-167.06908184656825 -340.5202909635001,-166.39920886544195" stroke="#ffa500" stroke-linecap="round" stroke-linejoin="round"/><polyline fill="none" points="-281.1290381889654,-55.670959934024914 -278.6290381889404,-56.34083291506116 -276.7989111699757,-58.17095993395988 -276.1290381888494,-60.67095993396077 -276.7989111698856,-63.1709599339858 -278.62903818878436,-65.00108695295044 -281.1290381887853,-65.67095993407676 -283.6290381888103,-65.00108695304051 -285.45916520777496,-63.1709599341418 -286.1290381889013,-60.6709599341409 -285.45916520786506,-58.17095993411588 -283.6290381889663,-56.34083291515123 -281.1290381889654,-55.67095993402492" stroke="#ffa500" stroke-linecap="round" stroke-linejoin="round"/><polyline fill="none" points="-290.91674845893164,-135.9854743295166 -288.4167484589066,-136.65534731055283 -286.58662143994195,-138.48547432945153 -285.9167484588156,-140.98547432945242 -286.58662143985185,-143.48547432947746 -288.4167484587506,-145.3156013484421 -290.9167484587515,-145.9854743295684 -293.4167484587765,-145.31560134853217 -295.2468754777412,-143.48547432963346 -295.9167484588675,-140.98547432963255 -295.2468754778313,-138.4854743296075 -293.41674845893255,-136.65534731064287 -290.91674845893164,-135.98547432951656" stroke="#ffa500" stroke-linecap="round" stroke-linejoin="round"/><polyline fill="none" points="-376.9593087088704,-195.3544265151589 -374.4593087088454,-196.02429949619514 -372.62918168988074,-197.85442651509385 -371.9593087087544,-200.35442651509476 -372.62918168979064,-202.8544265151198 -374.4593087086894,-204.68455353408444 -376.9593087086903,-205.35442651521078 -379.4593087087153,-204.68455353417454 -381.28943572768,-202.85442651527583 -381.9593087088063,-200.35442651527492 -381.28943572777007,-197.85442651524988 -379.45930870887133,-196.02429949628524 -376.9593087088704,-195.3544265151589" stroke="#00f" stroke-linecap="round" stroke-linejoin="round"/><polyline fill="none" points="-307.6006747764964,-140.80452939784462 -305.1006747764714,-141.47440237888085 -303.27054775750673,-143.30452939777956 -302.6006747763804,-145.80452939778047 -303.27054775741664,-148.3045293978055 -305.1006747763154,-150.13465641677016 -307.6006747763163,-150.8045293978965 -310.1006747763413,-150.13465641686025 -311.93080179530597,-148.30452939796155 -312.6006747764323,-145.80452939796064 -311.93080179539606,-143.3045293979356 -310.1006747764973,-141.47440237897095 -307.6006747764964,-140.80452939784462" stroke="#00f" stroke-linecap="round" stroke-linejoin="round"/><polyline fill="none" points="-308.32353893921805,-48.72319578241837 -305.82353893919304,-49.39306876345461 -303.99341192022837,-51.223195782353315 -303.32353893910204,-53.72319578235421 -303.99341192013827,-56.22319578237924 -305.823538939037,-58.0533228013439 -308.3235389390379,-58.72319578247023 -310.8235389390629,-58.05332280143399 -312.6536659580276,-56.223195782535285 -313.32353893915393,-53.72319578253439 -312.6536659581177,-51.22319578250936 -310.82353893921896,-49.3930687635447 -308.32353893921805,-48.72319578241837" stroke="#ffa500" stroke-linecap="round" stroke-linejoin="round"/><polyline fill="none" points="-406.2219774004255,-195.49451521830397 -403.7219774004005,-196.1643881993402 -401.8918503814358,-197.99451521823892 -401.22197740030947,-200.49451521823983 -401.8918503813457,-202.99451521826487 -403.72197740024444,-204.82464223722954 -406.22197740024535,-205.49451521835587 -408.72197740027036,-204.82464223731964 -410.55210441923504,-202.99451521842093 -411.22197740036137,-200.49451521842002 -410.55210441932513,-197.99451521839498 -408.7219774004264,-196.1643881994303 -406.2219774004255,-195.49451521830397" stroke="#00f" stroke-linecap="round" stroke-linejoin="round"/><polyline fill="none" points="36.53439487490217,-57.45580921903667 39.03439487492721,-58.1256822000729 40.86452189389187,-59.95580921897161 41.5343948750182,-62.455809218972504 40.864521893981966,-64.95580921899754 39.03439487508326,-66.7859362379622 36.53439487508236,-67.45580921908854 34.03439487505732,-66.7859362380523 32.204267856092656,-64.9558092191536 31.534394874966324,-62.4558092191527 32.20426785600256,-59.95580921912766 34.03439487490127,-58.12568220016299 36.53439487490216,-57.45580921903666" stroke="#00f" stroke-linecap="round" stroke-linejoin="round"/><polyline fill="none" points="-322.9670407808985,-119.52587991860592 -320.4670407808735,-120.19575289964216 -318.63691376190883,-122.02587991854087 -317.9670407807825,-124.52587991854176 -318.63691376181873,-127.0258799185668 -320.4670407807174,-128.85600693753148 -322.9670407807183,-129.5258799186578 -325.46704078074333,-128.85600693762157 -327.297167799708,-127.02587991872286 -327.96704078083434,-124.52587991872197 -327.2971677997981,-122.02587991869693 -325.4670407808994,-120.19575289973227 -322.9670407808985,-119.52587991860594" stroke="#ffa500" stroke-linecap="round" stroke-linejoin="round"/><polyline fill="none" points="-374.52257202691027,-143.30320672922684 -372.0225720268852,-143.97307971026308 -370.1924450079205,-145.8032067291618 -369.5225720267942,-148.3032067291627 -370.19244500783043,-150.80320672918774 -372.0225720267291,-152.6333337481524 -374.52257202673,-153.30320672927874 -377.0225720267551,-152.6333337482425 -378.85269904571976,-150.8032067293438 -379.5225720268461,-148.3032067293429 -378.85269904580986,-145.80320672931785 -377.0225720269112,-143.97307971035318 -374.52257202691027,-143.30320672922684" stroke="#ffa500" stroke-linecap="round" stroke-linejoin="round"/><polyline fill="none" points="-281.1015942606588,-132.83946317440447 -278.60159426063376,-133.5093361554407 -276.7714672416691,-135.33946317433941 -276.10159426054275,-137.83946317434032 -276.771467241579,-140.33946317436536 -278.60159426047767,-142.16959019333004 -281.1015942604786,-142.83946317445637 -283.60159426050365,-142.16959019342013 -285.4317212794683,-140.33946317452143 -286.10159426059465,-137.83946317452052 -285.4317212795584,-135.33946317449548 -283.60159426065974,-133.5093361555308 -281.1015942606588,-132.83946317440447" stroke="#ffa500" stroke-linecap="round" stroke-linejoin="round"/><polyline fill="none" points="-405.2351693428328,-152.38427865747948 -402.73516934280775,-153.05415163851572 -400.9050423238431,-154.88427865741443 -400.23516934271674,-157.38427865741534 -400.905042323753,-159.88427865744038 -402.73516934265166,-161.71440567640505 -405.23516934265257,-162.38427865753138 -407.73516934267764,-161.71440567649515 -409.5652963616423,-159.88427865759644 -410.23516934276864,-157.38427865759553 -409.5652963617324,-154.8842786575705 -407.73516934283373,-153.05415163860582 -405.2351693428328,-152.38427865747948" stroke="#00f" stroke-linecap="round" stroke-linejoin="round"/><polyline fill="none" points="-211.81438209840033,46.787079251721146 -209.3143820983753,46.117206270684925 -207.48425507941062,44.287079251786224 -206.81438209828428,41.78707925178533 -207.4842550793205,39.28707925176028 -209.3143820982192,37.45695223279561 -211.8143820982201,36.78707925166926 -214.31438209824515,37.45695223270548 -216.14450911720982,39.28707925160418 -216.81438209833618,41.78707925160508 -216.14450911729998,44.287079251630125 -214.31438209840127,46.11720627059481 -211.81438209840036,46.78707925172115" stroke="#ffa500" stroke-linecap="round" stroke-linejoin="round"/><polyline fill="none" points="-293.0940596077003,-125.72049708529079 -290.5940596076752,-126.39037006632701 -288.76393258871053,-128.2204970852257 -288.0940596075842,-130.7204970852266 -288.76393258862043,-133.22049708525165 -290.5940596075191,-135.05062410421633 -293.09405960752,-135.72049708534269 -295.5940596075451,-135.05062410430648 -297.42418662650977,-133.22049708540777 -298.0940596076361,-130.72049708540686 -297.42418662659986,-128.22049708538182 -295.5940596077012,-126.39037006641715 -293.0940596077003,-125.7204970852908" stroke="#ffa500" stroke-linecap="round" stroke-linejoin="round"/><polyline fill="none" points="378.28337557892246,-171.79785141979832 380.7833755789475,-172.46772440083453 382.6135025979122,-174.29785141973323 383.28337557903853,-176.79785141973414 382.6135025980023,-179.29785141975918 380.7833755791036,-181.12797843872386 378.2833755791027,-181.79785141985022 375.78337557907764,-181.127978438814 373.95324856011297,-179.2978514199153 373.28337557898664,-176.7978514199144 373.95324856002287,-174.29785141988935 375.78337557892155,-172.46772440092468 378.28337557892246,-171.79785141979832" stroke="#ffa500" stroke-linecap="round" stroke-linejoin="round"/><polyline fill="none" points="-314.2719216617416,-169.2578627095033 -311.77192166171653,-169.92773569053952 -309.94179464275186,-171.75786270943823 -309.2719216616255,-174.25786270943914 -309.94179464266176,-176.75786270946418 -311.77192166156044,-178.58798972842885 -314.27192166156135,-179.2578627095552 -316.7719216615864,-178.587989728519 -318.6020486805511,-176.7578627096203 -319.2719216616774,-174.2578627096194 -318.6020486806412,-171.75786270959435 -316.7719216617425,-169.92773569062967 -314.2719216617416,-169.2578627095033" stroke="#ffa500" stroke-linecap="round" stroke-linejoin="round"/><polyline fill="none" points="-223.88672556766227,-90.94004433281778 -221.38672556763723,-91.60991731385398 -219.55659854867255,-93.44004433275268 -218.8867255675462,-95.94004433275357 -219.5565985485824,-98.44004433277863 -221.3867255674811,-100.27017135174331 -223.88672556748202,-100.94004433286968 -226.38672556750706,-100.27017135183347 -228.21685258647173,-98.44004433293478 -228.8867255675981,-95.94004433293388 -228.21685258656188,-93.44004433290883 -226.38672556766318,-91.60991731394414 -223.88672556766227,-90.94004433281778" stroke="#ffa500" stroke-linecap="round" stroke-linejoin="round"/><polyline fill="none" points="-351.381924457485,-149.4651739551994 -348.88192445745995,-150.1350469362356 -347.05179743849527,-151.9651739551343 -346.38192445736894,-154.4651739551352 -347.0517974384052,-156.96517395516025 -348.88192445730385,-158.79530097412496 -351.38192445730476,-159.46517395525132 -353.88192445732983,-158.7953009742151 -355.7120514762945,-156.96517395531643 -356.3819244574209,-154.46517395531552 -355.7120514763847,-151.96517395529048 -353.88192445748604,-150.13504693632578 -351.3819244574851,-149.46517395519942" stroke="#ffa500" stroke-linecap="round" stroke-linejoin="round"/><polyline fill="none" points="-277.8578481409503,-115.38748873922738 -275.3578481409252,-116.05736172026359 -273.52772112196055,-117.88748873916228 -272.85784814083416,-120.38748873916317 -273.52772112187034,-122.88748873918823 -275.357848140769,-124.71761575815292 -277.85784814076993,-125.38748873927928 -280.357848140795,-124.71761575824307 -282.1879751597597,-122.88748873934438 -282.85784814088606,-120.38748873934348 -282.1879751598499,-117.88748873931843 -280.3578481409512,-116.05736172035374 -277.8578481409503,-115.38748873922738" stroke="#ffa500" stroke-linecap="round" stroke-linejoin="round"/><polyline fill="none" points="-335.09204378453916,-158.34099191019507 -332.5920437845141,-159.01086489123128 -330.7619167655494,-160.84099191012996 -330.092043784423,-163.34099191013087 -330.7619167654592,-165.84099191015594 -332.5920437843579,-167.67111892912064 -335.0920437843588,-168.340991910247 -337.59204378438386,-167.6711189292108 -339.42217080334854,-165.8409919103121 -340.0920437844749,-163.3409919103112 -339.42217080343875,-160.84099191028614 -337.59204378454007,-159.01086489132143 -335.09204378453916,-158.34099191019507" stroke="#00f" stroke-linecap="round" stroke-linejoin="round"/><polyline fill="none" points="-318.600064504726,-61.02555778186695 -316.1000645047009,-61.69543076290315 -314.26993748573625,-63.52555778180184 -313.60006450460986,-66.02555778180273 -314.26993748564604,-68.52555778182779 -316.1000645045447,-70.35568480079249 -318.6000645045456,-71.02555778191886 -321.1000645045707,-70.35568480088267 -322.93019152353537,-68.52555778198398 -323.60006450466176,-66.02555778198308 -322.9301915236256,-63.52555778195803 -321.1000645047269,-61.69543076299333 -318.600064504726,-61.025557781866965" stroke="#00f" stroke-linecap="round" stroke-linejoin="round"/><polyline fill="none" points="-196.6366786334489,7.980909649974728 -194.13667863342383,7.31103666893853 -192.30655161445912,5.480909650039842 -191.63667863333276,2.9809096500389454 -192.30655161436897,0.48090965001388675 -194.13667863326765,-1.349217368950813 -196.63667863326856,-2.0190903500771844 -199.13667863329363,-1.3492173690409879 -200.96680565225833,0.48090964985769924 -201.6366786333847,2.980909649858596 -200.96680565234848,5.480909649883655 -199.1366786334498,7.311036668848356 -196.6366786334489,7.980909649974729" stroke="#ffa500" stroke-linecap="round" stroke-linejoin="round"/><polyline fill="none" points="-177.0715344490421,31.985838386523017 -174.57153444901704,31.31596540548682 -172.74140743005233,29.485838386588135 -172.07153444892597,26.98583838658724 -172.74140742996218,24.48583838656218 -174.57153444886086,22.655711367597476 -177.07153444886177,21.9858383864711 -179.57153444888684,22.655711367507298 -181.40166146785154,24.485838386405984 -182.0715344489779,26.98583838640688 -181.4016614679417,29.48583838643194 -179.571534449043,31.315965405396643 -177.0715344490421,31.985838386523017" stroke="#ffa500" stroke-linecap="round" stroke-linejoin="round"/><polyline fill="none" points="391.52102717343405,-191.94523806367891 394.0210271734591,-192.61511104471512 395.85115419242385,-194.4452380636138 396.52102717355024,-196.9452380636147 395.85115419251406,-199.44523806363978 394.0210271736154,-201.27536508260448 391.52102717361447,-201.94523806373087 389.0210271735894,-201.2753650826947 387.19090015462467,-199.445238063796 386.5210271734983,-196.9452380637951 387.19090015453446,-194.44523806377003 389.02102717343314,-192.61511104480533 391.52102717343405,-191.94523806367894" stroke="#ffa500" stroke-linecap="round" stroke-linejoin="round"/><polyline fill="none" points="-295.7682622341952,-49.75338236032733 -293.26826223417015,-50.42325534136352 -291.4381352152054,-52.25338236026221 -290.76826223407903,-54.7533823602631 -291.4381352151152,-57.253382360288164 -293.2682622340139,-59.083509379252874 -295.7682622340148,-59.753382360379256 -298.26826223403987,-59.08350937934306 -300.0983892530046,-57.25338236044438 -300.768262234131,-54.75338236044348 -300.0983892530948,-52.25338236041842 -298.26826223419613,-50.42325534145371 -295.7682622341952,-49.75338236032733" stroke="#ffa500" stroke-linecap="round" stroke-linejoin="round"/><polyline fill="none" points="50.435169972804275,-55.434773703340404 52.935169972829335,-56.10464668437659 54.765296991794045,-57.93477370327527 55.43516997292043,-60.434773703276164 54.76529699188424,-62.93477370330123 52.93516997298556,-64.76490072226593 50.43516997298467,-65.43477370339232 47.9351699729596,-64.76490072235613 46.10504295399489,-62.93477370345745 45.43516997286851,-60.43477370345656 46.10504295390469,-57.93477370343149 47.93516997280337,-56.10464668446678 50.43516997280427,-55.4347737033404" stroke="#ffa500" stroke-linecap="round" stroke-linejoin="round"/><polyline fill="none" points="398.95506032513043,-163.52515508754945 401.4550603251555,-164.19502806858563 403.28518734412023,-166.0251550874843 403.9550603252466,-168.52515508748522 403.28518734421044,-171.02515508751029 401.45506032531176,-172.855282106475 398.95506032531085,-173.52515508760138 396.4550603252858,-172.8552821065652 394.62493330632105,-171.02515508766652 393.95506032519467,-168.5251550876656 394.62493330623084,-166.02515508764054 396.4550603251295,-164.19502806867584 398.95506032513043,-163.52515508754945" stroke="#ffa500" stroke-linecap="round" stroke-linejoin="round"/><polyline fill="none" points="76.25423610624472,-36.820752379516 78.75423610626979,-37.49062536055219 80.5843631252345,-39.320752379450866 81.25423610636089,-41.82075237945176 80.58436312532471,-44.32075237947683 78.75423610642603,-46.150879398441546 76.25423610642514,-46.820752379567935 73.75423610640007,-46.15087939853175 71.92410908743535,-44.32075237963307 71.25423610630897,-41.820752379632175 71.92410908734514,-39.32075237960711 73.75423610624382,-37.49062536064239 76.25423610624472,-36.820752379516" stroke="#ffa500" stroke-linecap="round" stroke-linejoin="round"/><polyline fill="none" points="-269.62888087601823,-139.692820640712 -267.12888087599316,-140.36269362174818 -265.29875385702843,-142.19282064064686 -264.62888087590204,-144.69282064064777 -265.2987538569382,-147.19282064067283 -267.1288808758369,-149.02294765963754 -269.6288808758378,-149.69282064076393 -272.1288808758629,-149.02294765972775 -273.9590078948276,-147.19282064082907 -274.628880875954,-144.69282064082816 -273.9590078949178,-142.1928206408031 -272.12888087601914,-140.3626936218384 -269.62888087601823,-139.692820640712" stroke="#ffa500" stroke-linecap="round" stroke-linejoin="round"/><polyline fill="none" points="-315.62260886961855,-125.96260968293032 -313.1226088695935,-126.6324826639665 -311.29248185062875,-128.46260968286518 -310.62260886950236,-130.9626096828661 -311.29248185053854,-133.46260968289116 -313.1226088694372,-135.2927367018559 -315.6226088694381,-135.96260968298228 -318.1226088694632,-135.2927367019461 -319.9527358884279,-133.46260968304742 -320.6226088695543,-130.9626096830465 -319.95273588851813,-128.46260968302144 -318.12260886961946,-126.63248266405672 -315.62260886961855,-125.96260968293033" stroke="#ffa500" stroke-linecap="round" stroke-linejoin="round"/><polyline fill="none" points="-266.35196231567744,-124.8685917669057 -263.8519623156524,-125.53846474794187 -262.02183529668764,-127.36859176684055 -261.35196231556125,-129.86859176684146 -262.02183529659743,-132.36859176686653 -263.8519623154961,-134.19871878583126 -266.351962315497,-134.86859176695765 -268.8519623155221,-134.19871878592147 -270.6820893344868,-132.3685917670228 -271.3519623156132,-129.86859176702188 -270.68208933457703,-127.36859176699681 -268.85196231567835,-125.5384647480321 -266.35196231567744,-124.8685917669057" stroke="#ffa500" stroke-linecap="round" stroke-linejoin="round"/><polyline fill="none" points="-390.27461955265966,-135.25030950853318 -387.7746195526346,-135.92018248956936 -385.94449253366986,-137.75030950846804 -385.27461955254347,-140.25030950846894 -385.94449253357965,-142.750309508494 -387.7746195524783,-144.58043652745874 -390.27461955247924,-145.25030950858513 -392.7746195525043,-144.58043652754895 -394.60474657146904,-142.75030950865028 -395.2746195525954,-140.25030950864937 -394.60474657155925,-137.7503095086243 -392.77461955266057,-135.92018248965957 -390.27461955265966,-135.25030950853318" stroke="#008000" stroke-linecap="round" stroke-linejoin="round"/><polyline fill="none" points="-313.5365449656247,-103.81133539716413 -311.03654496559966,-104.48120837820031 -309.20641794663493,-106.31133539709899 -308.53654496550854,-108.81133539709988 -309.2064179465447,-111.31133539712495 -311.0365449654434,-113.14146241608968 -313.5365449654443,-113.81133539721608 -316.0365449654694,-113.14146241617992 -317.8666719844341,-111.31133539728124 -318.5365449655605,-108.81133539728035 -317.8666719845243,-106.31133539725528 -316.03654496562564,-104.48120837829055 -313.5365449656247,-103.81133539716414" stroke="#ffa500" stroke-linecap="round" stroke-linejoin="round"/><polyline fill="none" points="-296.1449152355712,-110.77129234440946 -293.64491523554614,-111.44116532544562 -291.8147882165814,-113.27129234434429 -291.144915235455,-115.77129234434518 -291.8147882164912,-118.27129234437025 -293.6449152353899,-120.10141936333498 -296.1449152353908,-120.77129234446139 -298.64491523541585,-120.10141936342522 -300.4750422543806,-118.27129234452656 -301.14491523550697,-115.77129234452566 -300.4750422544708,-113.27129234450058 -298.6449152355721,-111.44116532553585 -296.1449152355712,-110.77129234440945" stroke="#ffa500" stroke-linecap="round" stroke-linejoin="round"/><polyline fill="none" points="-235.78189396087507,-101.00798820095662 -233.28189396085,-101.67786118199278 -231.45176694188527,-103.50798820089145 -230.78189396075885,-106.00798820089234 -231.45176694179503,-108.50798820091742 -233.2818939606937,-110.33811521988216 -235.78189396069462,-111.00798820100856 -238.28189396071969,-110.3381152199724 -240.11202097968442,-108.50798820107373 -240.78189396081083,-106.00798820107283 -240.11202097977466,-103.50798820104775 -238.28189396087598,-101.67786118208302 -235.78189396087507,-101.00798820095662" stroke="#ffa500" stroke-linecap="round" stroke-linejoin="round"/><polyline fill="none" points="-321.81999310988743,-97.80365221008962 -319.31999310986237,-98.47352519112579 -317.48986609089764,-100.30365221002445 -316.81999310977125,-102.80365221002535 -317.4898660908074,-105.30365221005043 -319.3199931097061,-107.13377922901516 -321.819993109707,-107.80365221014156 -324.3199931097321,-107.1337792291054 -326.1501201286968,-105.30365221020674 -326.8199931098232,-102.80365221020584 -326.150120128787,-100.30365221018076 -324.31999310988834,-98.47352519121603 -321.81999310988743,-97.80365221008961" stroke="#00f" stroke-linecap="round" stroke-linejoin="round"/><polyline fill="none" points="-363.64611839830746,-109.9791977645306 -361.1461183982824,-110.64907074556676 -359.31599137931767,-112.47919776446543 -358.6461183981913,-114.97919776446632 -359.31599137922746,-117.4791977644914 -361.14611839812613,-119.30932478345613 -363.64611839812704,-119.97919776458255 -366.1461183981521,-119.30932478354639 -367.97624541711684,-117.47919776464772 -368.64611839824323,-114.97919776464683 -367.97624541720705,-112.47919776462174 -366.1461183983084,-110.64907074565701 -363.64611839830746,-109.9791977645306" stroke="#00f" stroke-linecap="round" stroke-linejoin="round"/><polyline fill="none" points="-356.3468653877887,-120.43191027662547 -353.8468653877636,-121.10178325766164 -352.0167383687989,-122.9319102765603 -351.3468653876725,-125.4319102765612 -352.0167383687087,-127.93191027658628 -353.84686538760735,-129.762037295551 -356.34686538760826,-130.43191027667743 -358.84686538763333,-129.76203729564128 -360.67699240659806,-127.93191027674261 -361.34686538772445,-125.43191027674172 -360.67699240668827,-122.93191027671664 -358.8468653877896,-121.10178325775189 -356.3468653877887,-120.43191027662547" stroke="#ffa500" stroke-linecap="round" stroke-linejoin="round"/><polyline fill="none" points="-211.10774036169667,-71.43888721699953 -208.6077403616716,-72.1087601980357 -206.77761334270687,-73.93888721693436 -206.10774036158045,-76.43888721693526 -206.7776133426166,-78.93888721696034 -208.60774036151525,-80.76901423592508 -211.10774036151616,-81.4388872170515 -213.60774036154123,-80.76901423601535 -215.43786738050596,-78.93888721711669 -216.10774036163238,-76.43888721711579 -215.43786738059623,-73.93888721709071 -213.60774036169758,-72.10876019812596 -211.10774036169667,-71.43888721699955" stroke="#ffa500" stroke-linecap="round" stroke-linejoin="round"/><polyline fill="none" points="-172.59327456733527,8.633029974536813 -170.09327456731017,7.963156993500657 -168.26314754834544,6.133029974601994 -167.59327456721903,3.633029974601098 -168.26314754825518,1.1330299745760155 -170.09327456715383,-0.6970970443887263 -172.59327456715474,-1.3669700255151467 -175.09327456717983,-0.6970970444789927 -176.92340158614456,1.13302997441967 -177.59327456727098,3.633029974420566 -176.92340158623483,6.13302997444565 -175.09327456733618,7.963156993410393 -172.59327456733527,8.633029974536814" stroke="#ffa500" stroke-linecap="round" stroke-linejoin="round"/><polyline fill="none" points="-347.1336489015014,-126.64168515731916 -344.6336489014763,-127.31155813835531 -342.8035218825116,-129.14168515725396 -342.13364890138513,-131.64168515725487 -342.8035218824213,-134.14168515727997 -344.63364890132,-135.9718121762447 -347.1336489013209,-136.6416851573711 -349.63364890134596,-135.97181217633496 -351.4637759203107,-134.1416851574363 -352.13364890143714,-131.6416851574354 -351.46377592040096,-129.1416851574103 -349.6336489015023,-127.31155813844556 -347.1336489015014,-126.64168515731913" stroke="#00f" stroke-linecap="round" stroke-linejoin="round"/><polyline fill="none" points="-390.59197744108286,-143.50173980464626 -388.0919774410578,-144.1716127856824 -386.26185042209306,-146.00173980458106 -385.5919774409666,-148.50173980458197 -386.26185042200274,-151.00173980460707 -388.0919774409014,-152.83186682357183 -390.5919774409023,-153.50173980469825 -393.0919774409274,-152.8318668236621 -394.9221044598921,-151.00173980476345 -395.59197744101857,-148.50173980476254 -394.92210445998245,-146.00173980473744 -393.09197744108377,-144.17161278577268 -390.59197744108286,-143.50173980464626" stroke="#00f" stroke-linecap="round" stroke-linejoin="round"/><polyline fill="none" points="-191.12682913944562,77.56558469937772 -188.62682913942052,76.89571171834157 -186.79670212045576,75.06558469944291 -186.12682913932935,72.56558469944201 -186.7967021203655,70.06558469941693 -188.62682913926415,68.23545768045219 -191.12682913926506,67.56558469932575 -193.62682913929015,68.2354576803619 -195.4569561582549,70.06558469926057 -196.12682913938133,72.56558469926146 -195.45695615834518,75.06558469928655 -193.62682913944653,76.89571171825129 -191.12682913944562,77.56558469937772" stroke="#ffa500" stroke-linecap="round" stroke-linejoin="round"/><polyline fill="none" points="-333.578359768835,-110.51775680154249 -331.07835976880995,-111.18762978257864 -329.2482327498452,-113.01775680147729 -328.57835976871877,-115.51775680147819 -329.2482327497549,-118.01775680150327 -331.07835976865357,-119.84788382046801 -333.5783597686545,-120.51775680159444 -336.07835976867955,-119.8478838205583 -337.9084867876443,-118.01775680165964 -338.5783597687707,-115.51775680165875 -337.9084867877346,-113.01775680163365 -336.0783597688359,-111.18762978266889 -333.578359768835,-110.51775680154246" stroke="#ffa500" stroke-linecap="round" stroke-linejoin="round"/><polyline fill="none" points="-373.55077298041033,-174.25351074071838 -371.05077298038526,-174.92338372175453 -369.22064596142053,-176.75351074065318 -368.5507729802941,-179.2535107406541 -369.2206459613302,-181.7535107406792 -371.0507729802289,-183.58363775964395 -373.5507729802298,-184.2535107407704 -376.05077298025486,-183.58363775973424 -377.8808999992196,-181.7535107408356 -378.55077298034604,-179.25351074083468 -377.8808999993099,-176.7535107408096 -376.05077298041124,-174.92338372184483 -373.55077298041033,-174.25351074071838" stroke="#f00" stroke-linecap="round" stroke-linejoin="round"/><polyline fill="none" points="-347.095556923188,-154.7229977684236 -344.5955569231629,-155.39287074945975 -342.7654299041982,-157.2229977683584 -342.09555692307174,-159.7229977683593 -342.76542990410786,-162.2229977683844 -344.59555692300654,-164.05312478734916 -347.09555692300745,-164.7229977684756 -349.5955569230325,-164.05312478743946 -351.42568394199725,-162.2229977685408 -352.0955569231237,-159.7229977685399 -351.4256839420876,-157.2229977685148 -349.5955569231889,-155.39287074955004 -347.095556923188,-154.7229977684236" stroke="#008000" stroke-linecap="round" stroke-linejoin="round"/><polyline fill="none" points="-314.36285675173696,-73.69497733907811 -311.8628567517119,-74.36485032011424 -310.03272973274716,-76.1949773390129 -309.3628567516207,-78.69497733901379 -310.03272973265683,-81.19497733903889 -311.8628567515555,-83.02510435800365 -314.3628567515564,-83.69497733913009 -316.8628567515815,-83.02510435809396 -318.6929837705463,-81.1949773391953 -319.3628567516727,-78.69497733919441 -318.6929837706366,-76.19497733916931 -316.8628567517379,-74.36485032020455 -314.362856751737,-73.69497733907811" stroke="#ffa500" stroke-linecap="round" stroke-linejoin="round"/><polyline fill="none" points="-300.8289561745648,-85.61824054254203 -298.3289561745397,-86.28811352357816 -296.4988291555749,-88.11824054247681 -295.8289561744485,-90.61824054247771 -296.4988291554846,-93.1182405425028 -298.3289561743833,-94.94836756146756 -300.8289561743842,-95.61824054259401 -303.32895617440926,-94.94836756155787 -305.15908319337404,-93.11824054265922 -305.8289561745005,-90.61824054265833 -305.15908319346437,-88.11824054263323 -303.3289561745657,-86.28811352366847 -300.8289561745648,-85.61824054254203" stroke="#ffa500" stroke-linecap="round" stroke-linejoin="round"/><polyline fill="none" points="-224.9242869644948,36.49228691841243 -222.4242869644697,35.8224139373763 -220.59415994550494,33.992286918477646 -219.9242869643785,31.492286918476747 -220.59415994541462,28.99228691845165 -222.42428696431327,27.162159899486888 -224.92428696431418,26.492286918360442 -227.42428696433927,27.162159899396574 -229.25441398330403,28.992286918295225 -229.92428696443048,31.492286918296124 -229.25441398339436,33.99228691832122 -227.4242869644957,35.82241393728599 -224.9242869644948,36.49228691841243" stroke="#00f" stroke-linecap="round" stroke-linejoin="round"/><polyline fill="none" points="-349.050504895452,-105.39548832114136 -346.55050489542685,-106.0653613021775 -344.72037787646207,-107.89548832107614 -344.0505048953356,-110.39548832107704 -344.72037787637174,-112.89548832110214 -346.55050489527036,-114.72561534006691 -349.0505048952713,-115.39548832119335 -351.5505048952964,-114.72561534015722 -353.3806319142612,-112.89548832125857 -354.05050489538763,-110.39548832125767 -353.3806319143515,-107.89548832123258 -351.5505048954529,-106.0653613022678 -349.050504895452,-105.39548832114136" stroke="#00f" stroke-linecap="round" stroke-linejoin="round"/><polyline fill="none" points="-225.13887624887474,-76.35595573665624 -222.63887624884964,-77.02582871769238 -220.80874922988488,-78.85595573659103 -220.13887624875844,-81.35595573659192 -220.80874922979456,-83.85595573661702 -222.6388762486932,-85.6860827555818 -225.13887624869412,-86.35595573670824 -227.6388762487192,-85.68608275567212 -229.46900326768397,-83.85595573677347 -230.13887624881042,-81.35595573677257 -229.4690032677743,-78.85595573674748 -227.63887624887565,-77.0258287177827 -225.13887624887474,-76.35595573665624" stroke="#ffa500" stroke-linecap="round" stroke-linejoin="round"/><polyline fill="none" points="-315.6067857954859,-154.5515497903652 -313.1067857954608,-155.2214227714013 -311.276658776496,-157.05154979029996 -310.60678579536955,-159.55154979030087 -311.27665877640567,-162.05154979032596 -313.1067857953043,-163.88167680929072 -315.6067857953052,-164.55154979041717 -318.1067857953303,-163.88167680938105 -319.9369128142951,-162.0515497904824 -320.60678579542156,-159.5515497904815 -319.93691281438544,-157.0515497904564 -318.1067857954868,-155.22142277149163 -315.6067857954859,-154.5515497903652" stroke="#00f" stroke-linecap="round" stroke-linejoin="round"/><polyline fill="none" points="-331.3500223803794,-153.37604346459037 -328.8500223803543,-154.0459164456265 -327.0198953613895,-155.87604346452514 -326.35002238026306,-158.37604346452605 -327.0198953612992,-160.87604346455115 -328.8500223801978,-162.70617048351593 -331.3500223801987,-163.37604346464238 -333.85002238022383,-162.70617048360626 -335.6801493991886,-160.8760434647076 -336.35002238031507,-158.3760434647067 -335.68014939927895,-155.8760434646816 -333.8500223803803,-154.0459164457168 -331.3500223803794,-153.37604346459037" stroke="#ffa500" stroke-linecap="round" stroke-linejoin="round"/><polyline fill="none" points="-290.0289737377493,-80.06677848907958 -287.5289737377242,-80.7366514701157 -285.6988467187594,-82.56677848901435 -285.02897373763295,-85.06677848901525 -285.6988467186691,-87.56677848904036 -287.5289737375677,-89.39690550800513 -290.0289737375686,-90.0667784891316 -292.52897373759373,-89.39690550809547 -294.3591007565585,-87.56677848919682 -295.02897373768496,-85.06677848919593 -294.35910075664884,-82.56677848917082 -292.5289737377502,-80.73665147020604 -290.0289737377493,-80.06677848907958" stroke="#ffa500" stroke-linecap="round" stroke-linejoin="round"/><polyline fill="none" points="-304.07211134550056,-150.66918191004777 -301.57211134547543,-151.3390548910839 -299.74198432651065,-153.16918190998254 -299.0721113453842,-155.66918190998345 -299.7419843264203,-158.16918191000855 -301.57211134531894,-159.99930892897333 -304.07211134531985,-160.6691819100998 -306.572111345345,-159.9993089290637 -308.40223836430977,-158.16918191016504 -309.0721113454362,-155.66918191016413 -308.4022383644001,-153.16918191013903 -306.57211134550147,-151.33905489117424 -304.07211134550056,-150.66918191004777" stroke="#ffa500" stroke-linecap="round" stroke-linejoin="round"/><polyline fill="none" points="-402.7082976492831,-167.65017237420517 -400.208297649258,-168.3200453552413 -398.3781706302932,-170.15017237413994 -397.70829764916675,-172.65017237414085 -398.3781706302029,-175.15017237416595 -400.2082976491015,-176.98029939313074 -402.7082976491024,-177.6501723742572 -405.20829764912753,-176.9802993932211 -407.0384246680923,-175.15017237432244 -407.70829764921876,-172.65017237432153 -407.03842466818264,-170.15017237429643 -405.208297649284,-168.32004535533164 -402.7082976492831,-167.65017237420517" stroke="#00f" stroke-linecap="round" stroke-linejoin="round"/><polyline fill="none" points="-266.73690441205935,-44.382222717502785 -264.2369044120342,-45.0520956985389 -262.40677739306943,-46.88222271743754 -261.736904411943,-49.38222271743844 -262.4067773929791,-51.88222271746355 -264.23690441187773,-53.71234973642833 -266.73690441187864,-54.3822227175548 -269.23690441190377,-53.71234973651868 -271.06703143086855,-51.88222271762004 -271.736904411995,-49.38222271761914 -271.0670314309589,-46.88222271759403 -269.23690441206026,-45.052095698629245 -266.73690441205935,-44.38222271750278" stroke="#ffa500" stroke-linecap="round" stroke-linejoin="round"/><polyline fill="none" points="-378.0646194578838,-186.17368983643914 -375.56461945785867,-186.84356281747526 -373.7344924388939,-188.6736898363739 -373.06461945776744,-191.17368983637482 -373.73449243880356,-193.67368983639992 -375.5646194577022,-195.5038168553647 -378.0646194577031,-196.17368983649118 -380.5646194577282,-195.50381685545506 -382.394746476693,-193.6736898365564 -383.06461945781945,-191.1736898365555 -382.3947464767833,-188.6736898365304 -380.5646194578847,-186.8435628175656 -378.0646194578838,-186.17368983643914" stroke="#ffa500" stroke-linecap="round" stroke-linejoin="round"/><polyline fill="none" points="61.511483518687804,-29.668796179852116 64.01148351871292,-30.338669160888227 65.84161053767771,-32.16879617978687 66.51148351880418,-34.66879617978776 65.84161053776808,-37.16879617981287 64.01148351886944,-38.99892319877766 61.511483518868545,-39.668796179904135 59.011483518843434,-38.99892319886803 57.181356499878646,-37.16879617996939 56.51148351875217,-34.668796179968496 57.18135649978828,-32.168796179943385 59.011483518686916,-30.338669160978593 61.51148351868781,-29.66879617985212" stroke="#ffa500" stroke-linecap="round" stroke-linejoin="round"/><polyline fill="none" points="-249.89712983668826,-98.94590674207329 -247.39712983666314,-99.6157797231094 -245.56700281769835,-101.44590674200803 -244.89712983657188,-103.94590674200893 -245.567002817608,-106.44590674203404 -247.39712983650665,-108.27603376099883 -249.89712983650756,-108.9459067421253 -252.39712983653268,-108.2760337610892 -254.22725685549747,-106.44590674219056 -254.89712983662395,-103.94590674218966 -254.22725685558785,-101.44590674216455 -252.39712983668923,-99.61577972319976 -249.89712983668832,-98.94590674207329" stroke="#00f" stroke-linecap="round" stroke-linejoin="round"/><polyline fill="none" points="-366.10658701425155,-128.05313968008113 -363.6065870142264,-128.72301266111722 -361.77645999526163,-130.55313968001585 -361.10658701413513,-133.05313968001676 -361.77645999517125,-135.55313968004188 -363.6065870140699,-137.38326669900667 -366.1065870140708,-138.05313968013314 -368.6065870140959,-137.38326669909705 -370.4367140330607,-135.55313968019843 -371.1065870141872,-133.05313968019752 -370.4367140331511,-130.5531396801724 -368.60658701425245,-128.7230126612076 -366.10658701425155,-128.05313968008113" stroke="#00f" stroke-linecap="round" stroke-linejoin="round"/><polyline fill="none" points="-398.11701884373235,-155.5638948118679 -395.6170188437072,-156.233767792904 -393.78689182474244,-158.0638948118026 -393.11701884361594,-160.56389481180352 -393.78689182465206,-163.06389481182865 -395.6170188435507,-164.89402183079343 -398.1170188435516,-165.5638948119199 -400.6170188435767,-164.89402183088382 -402.4471458625415,-163.0638948119852 -403.117018843668,-160.56389481198428 -402.4471458626319,-158.06389481195916 -400.61701884373326,-156.23376779299437 -398.11701884373235,-155.5638948118679" stroke="#00f" stroke-linecap="round" stroke-linejoin="round"/><polyline fill="none" points="-191.17515870705242,44.67449278081859 -188.6751587070273,44.00461979978249 -186.8450316880625,42.17449278088385 -186.17515870693603,39.67449278088295 -186.84503168797212,37.17449278085783 -188.67515870687075,35.34436576189303 -191.17515870687166,34.67449278076654 -193.67515870689678,35.34436576180264 -195.50528572586157,37.17449278070128 -196.17515870698804,39.67449278070218 -195.50528572595195,42.1744927807273 -193.67515870705333,44.0046197996921 -191.17515870705242,44.67449278081859" stroke="#ffa500" stroke-linecap="round" stroke-linejoin="round"/><polyline fill="none" points="-347.76866301268393,-117.02835465689463 -345.2686630126588,-117.69822763793073 -343.438535993694,-119.52835465682936 -342.7686630125675,-122.02835465683026 -343.43853599360364,-124.52835465685538 -345.26866301250226,-126.35848167582019 -347.76866301250317,-127.02835465694668 -350.2686630125283,-126.35848167591058 -352.0987900314931,-124.52835465701195 -352.7686630126196,-122.02835465701105 -352.09879003158346,-119.52835465698593 -350.26866301268484,-117.69822763802112 -347.76866301268393,-117.02835465689463" stroke="#ffa500" stroke-linecap="round" stroke-linejoin="round"/><polyline fill="none" points="-194.91675183109191,29.01730505143487 -192.4167518310668,28.347432070398774 -190.58662481210197,26.51730505150014 -189.91675183097547,24.01730505149924 -190.58662481201156,21.517305051474118 -192.4167518309102,19.687178032509312 -194.9167518309111,19.01730505138282 -197.41675183093622,19.687178032418917 -199.24687884990104,21.517305051317546 -199.91675183102754,24.017305051318445 -199.24687884999145,26.517305051343566 -197.41675183109282,28.347432070308372 -194.91675183109191,29.017305051434864" stroke="#ffa500" stroke-linecap="round" stroke-linejoin="round"/><polyline fill="none" points="-199.54096392238688,71.92709602997945 -197.04096392236175,71.25722304894336 -195.21083690339694,69.42709603004472 -194.54096392227044,66.92709603004383 -195.21083690330653,64.4270960300187 -197.04096392220515,62.59696901105389 -199.54096392220606,61.9270960299274 -202.04096392223119,62.59696901096349 -203.871090941196,64.42709602986213 -204.5409639223225,66.92709602986302 -203.8710909412864,69.42709602988815 -202.0409639223878,71.25722304885295 -199.54096392238688,71.92709602997944" stroke="#ffa500" stroke-linecap="round" stroke-linejoin="round"/><polyline fill="none" points="-221.37252214405646,-108.8078327242441 -218.87252214403134,-109.47770570528019 -217.04239512506652,-111.30783272417881 -216.37252214394002,-113.8078327241797 -217.0423951249761,-116.30783272420483 -218.87252214387473,-118.13795974316963 -221.37252214387564,-118.80783272429613 -223.87252214390077,-118.13795974326004 -225.70264916286558,-116.30783272436142 -226.3725221439921,-113.80783272436052 -225.702649162956,-111.3078327243354 -223.87252214405737,-109.47770570537058 -221.37252214405646,-108.80783272424408" stroke="#00f" stroke-linecap="round" stroke-linejoin="round"/><polyline fill="none" points="-350.06359069868006,-132.4926943675863 -347.56359069865493,-133.1625673486224 -345.73346367969015,-134.992694367521 -345.06359069856364,-137.49269436752192 -345.7334636795997,-139.99269436754705 -347.56359069849833,-141.82282138651186 -350.06359069849924,-142.49269436763836 -352.56359069852437,-141.82282138660227 -354.39371771748915,-139.99269436770365 -355.06359069861566,-137.49269436770274 -354.3937177175796,-134.99269436767761 -352.56359069868097,-133.1625673487128 -350.06359069868006,-132.4926943675863" stroke="#00f" stroke-linecap="round" stroke-linejoin="round"/><polyline fill="none" points="-392.22754821621515,-184.6839624852181 -389.72754821619003,-185.3538354662542 -387.89742119722524,-187.18396248515282 -387.22754821609874,-189.68396248515373 -387.8974211971348,-192.18396248517885 -389.7275482160334,-194.01408950414367 -392.22754821603434,-194.68396248527017 -394.72754821605946,-194.01408950423408 -396.55767523502425,-192.18396248533546 -397.22754821615075,-189.68396248533455 -396.5576752351147,-187.18396248530942 -394.72754821621606,-185.3538354663446 -392.22754821621515,-184.6839624852181" stroke="#ffa500" stroke-linecap="round" stroke-linejoin="round"/><polyline fill="none" points="-285.9081977371242,-23.405018703084266 -283.4081977370991,-24.074891684120352 -281.5780707181343,-25.90501870301898 -280.9081977370078,-28.405018703019877 -281.5780707180439,-30.905018703045005 -283.4081977369425,-32.735145722009825 -285.9081977369434,-33.40501870313633 -288.40819773696853,-32.73514572210024 -290.2383247559334,-30.90501870320162 -290.9081977370599,-28.405018703200717 -290.2383247560238,-25.90501870317559 -288.4081977371252,-24.074891684210773 -285.9081977371243,-23.405018703084266" stroke="#ffa500" stroke-linecap="round" stroke-linejoin="round"/><polyline fill="none" points="-200.85518220460938,56.55824105386398 -198.35518220458425,55.8883680728279 -196.52505518561944,54.05824105392928 -195.85518220449293,51.55824105392838 -196.52505518552903,49.058241053903245 -198.35518220442765,47.22811403493843 -200.85518220442856,46.55824105381192 -203.35518220445368,47.228114034848 -205.1853092234185,49.05824105374662 -205.855182204545,51.55824105374752 -205.1853092235089,54.058241053772655 -203.3551822046103,55.88836807273748 -200.85518220460938,56.55824105386399" stroke="#ffa500" stroke-linecap="round" stroke-linejoin="round"/><polyline fill="none" points="-327.8962540252092,-79.33456104414041 -325.3962540251841,-80.0044340251765 -323.56612700621923,-81.83456104407512 -322.89625402509273,-84.33456104407601 -323.5661270061288,-86.83456104410114 -325.3962540250274,-88.66468806306595 -327.8962540250283,-89.33456104419247 -330.39625402505345,-88.66468806315639 -332.2263810440183,-86.83456104425777 -332.8962540251448,-84.33456104425687 -332.22638104410873,-81.83456104423175 -330.3962540252101,-80.00443402526693 -327.8962540252092,-79.33456104414041" stroke="#00f" stroke-linecap="round" stroke-linejoin="round"/><polyline fill="none" points="-282.5462184595156,-66.03480305756536 -280.0462184594905,-66.70467603860143 -278.21609144052564,-68.53480305750006 -277.54621845939914,-71.03480305750095 -278.2160914404352,-73.53480305752609 -280.04621845933383,-75.36493007649092 -282.54621845933474,-76.03480305761744 -285.04621845935986,-75.36493007658136 -286.8763454783247,-73.53480305768274 -287.5462184594512,-71.03480305768184 -286.87634547841515,-68.5348030576567 -285.0462184595165,-66.70467603869187 -282.5462184595156,-66.03480305756536" stroke="#ffa500" stroke-linecap="round" stroke-linejoin="round"/><polyline fill="none" points="-358.1176198623298,-174.46204025779173 -355.61761986230465,-175.1319132388278 -353.7874928433398,-176.96204025772641 -353.1176198622133,-179.46204025772732 -353.78749284324937,-181.96204025775245 -355.617619862148,-183.79216727671727 -358.1176198621489,-184.46204025784377 -360.617619862174,-183.7921672768077 -362.44774688113887,-181.96204025790908 -363.11761986226537,-179.46204025790817 -362.4477468812293,-176.96204025788305 -360.6176198623307,-175.13191323891823 -358.1176198623298,-174.4620402577917" stroke="#00f" stroke-linecap="round" stroke-linejoin="round"/><polyline fill="none" points="-337.4766136237482,-116.77572867270756 -334.9766136237231,-117.44560165374364 -333.14648660475825,-119.27572867264226 -332.47661362363175,-121.77572867264315 -333.1464866046678,-124.2757286726683 -334.97661362356644,-126.10585569163312 -337.47661362356735,-126.77572867275964 -339.97661362359247,-126.10585569172358 -341.8067406425573,-124.27572867282495 -342.4766136236838,-121.77572867282406 -341.80674064264775,-119.27572867279892 -339.97661362374913,-117.44560165383409 -337.4766136237482,-116.77572867270757" stroke="#ffa500" stroke-linecap="round" stroke-linejoin="round"/><polyline fill="none" points="-377.3601369761542,-167.7577113673973 -374.86013697612907,-168.42758434843336 -373.0300099571642,-170.25771136733198 -372.3601369760377,-172.7577113673329 -373.0300099570738,-175.257711367358 -374.8601369759724,-177.08783838632286 -377.3601369759733,-177.7577113674494 -379.86013697599844,-177.08783838641332 -381.6902639949633,-175.2577113675147 -382.3601369760898,-172.7577113675138 -381.6902639950537,-170.25771136748867 -379.8601369761551,-168.42758434852382 -377.3601369761542,-167.7577113673973" stroke="#008000" stroke-linecap="round" stroke-linejoin="round"/><polyline fill="none" points="-184.38345801136416,17.36176704107922 -181.88345801133903,16.69189406004315 -180.05333099237419,14.861767041144535 -179.38345801124765,12.361767041143635 -180.05333099228372,9.861767041118497 -181.88345801118234,8.031640022153663 -184.38345801118325,7.361767041027139 -186.88345801120838,8.031640022063206 -188.71358503017322,9.86176704096182 -189.38345801129975,12.36176704096272 -188.7135850302637,14.861767040987859 -186.88345801136506,16.691894059952695 -184.38345801136416,17.36176704107922" stroke="#ffa500" stroke-linecap="round" stroke-linejoin="round"/><polyline fill="none" points="61.019339516614096,-45.40916648237062 63.519339516639235,-46.07903946340669 65.34946653560407,-47.9091664823053 66.0193395167306,-50.409166482306205 65.34946653569453,-52.909166482331344 63.51933951679592,-54.73929350129618 61.019339516795014,-55.409166482422705 58.519339516769875,-54.73929350138664 56.68921249780504,-52.909166482488025 56.019339516678514,-50.40916648248712 56.68921249771458,-47.909166482461984 58.51933951661319,-46.079039463497146 61.019339516614096,-45.409166482370615" stroke="#ffa500" stroke-linecap="round" stroke-linejoin="round"/><polyline fill="none" points="-328.89191125185783,-134.42804174618888 -326.3919112518327,-135.09791472722495 -324.56178423286786,-136.92804174612357 -323.89191125174136,-139.42804174612448 -324.5617842327774,-141.92804174614963 -326.39191125167605,-143.75816876511448 -328.89191125167696,-144.428041746241 -331.3919112517021,-143.75816876520494 -333.2220382706669,-141.92804174630632 -333.89191125179343,-139.4280417463054 -333.22203827075737,-136.92804174628026 -331.39191125185874,-135.0979147273154 -328.89191125185783,-134.42804174618888" stroke="#ffa500" stroke-linecap="round" stroke-linejoin="round"/><polyline fill="none" points="-380.5136193216232,-135.19820313031275 -378.01361932159807,-135.8680761113488 -376.1834923026332,-137.69820313024744 -375.51361932150667,-140.19820313024834 -376.18349230254273,-142.6982031302735 -378.01361932144135,-144.52833014923834 -380.51361932144226,-145.19820313036487 -383.0136193214674,-144.5283301493288 -384.84374634043223,-142.6982031304302 -385.5136193215588,-140.19820313042928 -384.8437463405227,-137.69820313040412 -383.0136193216241,-135.86807611143928 -380.5136193216232,-135.19820313031275" stroke="#00f" stroke-linecap="round" stroke-linejoin="round"/><polyline fill="none" points="-393.9316778815305,-198.98267635958535 -391.4316778815054,-199.65254934062142 -389.60155086254053,-201.48267635952004 -388.931677881414,-203.98267635952095 -389.60155086245004,-206.4826763595461 -391.43167788134866,-208.31280337851095 -393.9316778813496,-208.98267635963748 -396.4316778813747,-208.31280337860142 -398.26180490033954,-206.4826763597028 -398.9316778814661,-203.98267635970188 -398.26180490043004,-201.48267635967673 -396.4316778815314,-199.6525493407119 -393.9316778815305,-198.98267635958535" stroke="#ffa500" stroke-linecap="round" stroke-linejoin="round"/><polyline fill="none" points="-392.2231441674884,-171.05181093767823 -389.72314416746326,-171.7216839187143 -387.8930171484984,-173.5518109376129 -387.22314416737186,-176.05181093761382 -387.8930171484079,-178.55181093763898 -389.72314416730654,-180.38193795660382 -392.22314416730745,-181.05181093773035 -394.7231441673326,-180.3819379566943 -396.5532711862974,-178.5518109377957 -397.223144167424,-176.05181093779478 -396.5532711863879,-173.55181093776963 -394.7231441674893,-171.72168391880479 -392.2231441674884,-171.05181093767825" stroke="#008000" stroke-linecap="round" stroke-linejoin="round"/><polyline fill="none" points="-280.9157348847559,-37.50145954605498 -278.4157348847308,-38.17133252709104 -276.58560786576595,-40.00145954598965 -275.9157348846394,-42.50145954599055 -276.58560786567546,-45.001459546015695 -278.4157348845741,-46.83158656498054 -280.915734884575,-47.50145954610708 -283.4157348846001,-46.83158656507103 -285.24586190356496,-45.00145954617242 -285.9157348846915,-42.50145954617152 -285.24586190365545,-40.00145954614637 -283.41573488475683,-38.17133252718152 -280.9157348847559,-37.50145954605498" stroke="#ffa500" stroke-linecap="round" stroke-linejoin="round"/><polyline fill="none" points="-309.5396457019402,-58.77149976193894 -307.03964570191505,-59.44137274297499 -305.2095186829502,-61.2714997618736 -304.53964570182364,-63.7714997618745 -305.2095186828597,-66.27149976189965 -307.03964570175833,-68.10162678086449 -309.53964570175924,-68.77149976199104 -312.03964570178437,-68.10162678095499 -313.8697727207492,-66.27149976205638 -314.53964570187577,-63.77149976205548 -313.8697727208397,-61.27149976203033 -312.0396457019411,-59.44137274306548 -309.5396457019402,-58.771499761938934" stroke="#ffa500" stroke-linecap="round" stroke-linejoin="round"/><polyline fill="none" points="-352.0361378478624,-164.63631690065353 -349.53613784783727,-165.30618988168956 -347.7060108288724,-167.13631690058816 -347.03613784774586,-169.63631690058907 -347.7060108287819,-172.13631690061422 -349.53613784768055,-173.96644391957906 -352.03613784768146,-174.6363169007056 -354.5361378477066,-173.96644391966956 -356.36626486667143,-172.13631690077096 -357.036137847798,-169.63631690077005 -356.3662648667619,-167.1363169007449 -354.5361378478633,-165.30618988178006 -352.0361378478624,-164.6363169006535" stroke="#ffa500" stroke-linecap="round" stroke-linejoin="round"/><polyline fill="none" points="-352.9513710220251,-137.5129565198625 -350.451371022,-138.18282950089855 -348.62124400303514,-140.01295651979714 -347.9513710219086,-142.51295651979805 -348.62124400294465,-145.0129565198232 -350.4513710218433,-146.84308353878805 -352.9513710218442,-147.5129565199146 -355.4513710218693,-146.84308353887857 -357.28149804083415,-145.01295651997998 -357.9513710219607,-142.51295651997907 -357.28149804092465,-140.01295651995392 -355.451371022026,-138.18282950098907 -352.9513710220251,-137.5129565198625" stroke="#00f" stroke-linecap="round" stroke-linejoin="round"/><polyline fill="none" points="-366.62133921816076,-159.20810652323416 -364.12133921813563,-159.8779795042702 -362.2912121991708,-161.7081065231688 -361.6213392180442,-164.2081065231697 -362.2912121990803,-166.70810652319486 -364.1213392179789,-168.5382335421597 -366.6213392179798,-169.20810652328626 -369.12133921800495,-168.53823354225023 -370.9514662369698,-166.70810652335163 -371.62133921809635,-164.20810652335072 -370.9514662370603,-161.70810652332557 -369.12133921816167,-159.87797950436072 -366.62133921816076,-159.20810652323416" stroke="#00f" stroke-linecap="round" stroke-linejoin="round"/><polyline fill="none" points="-203.4402798171933,-93.33400696594327 -200.94027981716815,-94.00387994697931 -199.1101527982033,-95.8340069658779 -198.44027981707674,-98.3340069658788 -199.11015279811278,-100.83400696590395 -200.94027981701137,-102.66413398486881 -203.44027981701228,-103.33400696599537 -205.94027981703744,-102.66413398495934 -207.7704068360023,-100.83400696606074 -208.44027981712887,-98.33400696605985 -207.77040683609283,-95.83400696603469 -205.94027981719424,-94.00387994706983 -203.44027981719333,-93.33400696594327" stroke="#ffa500" stroke-linecap="round" stroke-linejoin="round"/><polyline fill="none" points="-340.13234550132864,-127.2991072418354 -337.63234550130346,-127.96898022287144 -335.8022184823386,-129.79910724177003 -335.13234550121206,-132.29910724177094 -335.8022184822481,-134.7991072417961 -337.63234550114674,-136.62923426076097 -340.13234550114765,-137.29910724188753 -342.63234550117284,-136.6292342608515 -344.4624725201377,-134.7991072419529 -345.13234550126424,-132.299107241952 -344.4624725202282,-129.79910724192683 -342.63234550132955,-127.96898022296197 -340.13234550132864,-127.29910724183542" stroke="#ffa500" stroke-linecap="round" stroke-linejoin="round"/><polyline fill="none" points="-297.74078830887436,-67.11305538925247 -295.2407883088492,-67.7829283702885 -293.41066128988433,-69.6130553891871 -292.74078830875777,-72.11305538918799 -293.41066128979384,-74.61305538921314 -295.24078830869246,-76.443182408178 -297.74078830869337,-77.11305538930456 -300.24078830871855,-76.44318240826853 -302.0709153276834,-74.61305538936993 -302.74078830880995,-72.11305538936904 -302.07091532777395,-69.61305538934388 -300.2407883088753,-67.78292837037903 -297.7407883088744,-67.11305538925247" stroke="#ffa500" stroke-linecap="round" stroke-linejoin="round"/><polyline fill="none" points="-315.0702923488601,-143.12049225954777 -312.5702923488349,-143.7903652405838 -310.7401653298701,-145.6204922594824 -310.0702923487435,-148.1204922594833 -310.74016532977953,-150.62049225950847 -312.57029234867815,-152.45061927847334 -315.07029234867906,-153.1204922595999 -317.57029234870424,-152.45061927856386 -319.4004193676691,-150.62049225966527 -320.07029234879565,-148.12049225966436 -319.40041936775964,-145.6204922596392 -317.570292348861,-143.79036524067433 -315.0702923488601,-143.12049225954777" stroke="#00f" stroke-linecap="round" stroke-linejoin="round"/><polyline fill="none" points="-216.18039682363184,-6.68934314907289 -213.68039682360669,-7.359216130108923 -211.8502698046418,-9.189343149007517 -211.18039682351525,-11.689343149008417 -211.8502698045513,-14.189343149033576 -213.68039682344988,-16.019470167998445 -216.1803968234508,-16.689343149125012 -218.68039682347595,-16.01947016808898 -220.51052384244082,-14.189343149190385 -221.18039682356738,-11.689343149189485 -220.51052384253134,-9.189343149164326 -218.68039682363275,-7.3592161301994565 -216.18039682363184,-6.68934314907289" stroke="#00f" stroke-linecap="round" stroke-linejoin="round"/><polyline fill="none" points="-315.06635352244723,-88.33260488039383 -312.56635352242205,-89.00247786142987 -310.7362265034572,-90.83260488032846 -310.06635352233064,-93.33260488032936 -310.73622650336665,-95.83260488035452 -312.5663535222652,-97.6627318993194 -315.0663535222661,-98.33260488044597 -317.5663535222913,-97.66273189940995 -319.39648054125615,-95.83260488051135 -320.0663535223827,-93.33260488051046 -319.3964805413467,-90.83260488048529 -317.56635352244814,-89.00247786152042 -315.06635352244723,-88.33260488039384" stroke="#ffa500" stroke-linecap="round" stroke-linejoin="round"/><polyline fill="none" points="-384.7477733848665,-153.1659951325591 -382.2477733848413,-153.83586811359513 -380.4176463658764,-155.66599513249372 -379.74777338474985,-158.16599513249463 -380.41764636578586,-160.66599513251978 -382.2477733846844,-162.49612215148466 -384.74777338468533,-163.16599513261122 -387.2477733847105,-162.49612215157518 -389.0779004036754,-160.66599513267658 -389.747773384802,-158.16599513267568 -389.07790040376597,-155.66599513265052 -387.2477733848674,-153.83586811368565 -384.7477733848665,-153.1659951325591" stroke="#008000" stroke-linecap="round" stroke-linejoin="round"/><polyline fill="none" points="-366.19848746392944,-142.7011343931081 -363.69848746390426,-143.37100737414414 -361.86836044493936,-145.20113439304274 -361.1984874638128,-147.70113439304365 -361.8683604448488,-150.2011343930688 -363.69848746374737,-152.03126141203367 -366.1984874637483,-152.70113439316026 -368.69848746377346,-152.03126141212422 -370.52861448273836,-150.20113439322563 -371.1984874638649,-147.70113439322472 -370.5286144828289,-145.20113439319957 -368.69848746393035,-143.3710073742347 -366.19848746392944,-142.7011343931081" stroke="#ffa500" stroke-linecap="round" stroke-linejoin="round"/><polyline fill="none" points="392.1513390109154,-176.74458311542497 394.6513390109406,-177.41445609646098 396.4814660299055,-179.24458311535957 397.15133901103206,-181.74458311536048 396.48146602999606,-184.24458311538564 394.6513390110975,-186.0747101343505 392.1513390110966,-186.7445831154771 389.6513390110714,-186.0747101344411 387.8212119921065,-184.2445831155425 387.15133901097994,-181.7445831155416 387.82121199201595,-179.24458311551643 389.6513390109145,-177.41445609655156 392.1513390109154,-176.74458311542497" stroke="#ffa500" stroke-linecap="round" stroke-linejoin="round"/></svg>