<?xml version="1.0" ?><!DOCTYPE svg  PUBLIC '-//W3C//DTD SVG 1.1//EN'  'http://www.w3.org/Graphics/SVG/1.1/DTD/svg11.dtd'><svg height="633.000" viewBox="-492.000 -293.000 731.000 633.000" width="731.000" xmlns="http://www.w3.org/2000/svg"><line fill="none" stroke="none" stroke-linecap="round" stroke-width="2.0" x1="0.0" x2="0.0" y1="0.0" y2="0.0"/><polygon fill="none" fill-rule="evenodd" points="0.0,0.0 0.0,0.0 0.0,0.0" stroke-linejoin="round"/><polyline fill="none" points="-32.652783282764844,115.20944574070943 -30.152783282739676,114.5395727596734 -28.322656263774796,112.70944574077481 -27.65278328264822,110.20944574077392 -28.322656263684237,107.70944574074875 -30.152783282582824,105.87931872178386 -32.65278328258373,105.20944574065729 -35.152783282608894,105.87931872169331 -36.982910301573774,107.70944574059189 -37.652783282700355,110.20944574059278 -36.98291030166434,112.70944574061795 -35.15278328276575,114.53957275958284 -32.65278328276485,115.20944574070943" stroke="#ffa500" stroke-linecap="round" stroke-linejoin="round"/><polyline fill="none" points="-89.55654113203924,53.577701493268854 -87.05654113201408,52.90782851223284 -85.22641411304919,51.07770149333425 -84.5565411319226,48.57770149333335 -85.22641411295862,46.07770149330818 -87.0565411318572,44.2475744743433 -89.5565411318581,43.57770149321672 -92.05654113188326,44.24757447425274 -93.88666815084815,46.077701493151324 -94.55654113197474,48.577701493152226 -93.88666815093872,51.07770149317739 -92.05654113204014,52.90782851214228 -89.55654113203924,53.57770149326886" stroke="#ffa500" stroke-linecap="round" stroke-linejoin="round"/><polyline fill="none" points="106.12148609767975,-83.79925005403231 108.62148609770492,-84.46912303506834 110.4516131166698,-86.29925005396692 111.12148609779639,-88.79925005396781 110.45161311676038,-91.29925005399298 108.6214860978618,-93.12937707295787 106.12148609786091,-93.79925005408445 103.62148609783574,-93.12937707304845 101.79135907887085,-91.29925005414987 101.12148609774427,-88.79925005414897 101.79135907878027,-86.2992500541238 103.62148609767885,-84.46912303515892 106.12148609767975,-83.79925005403233" stroke="#ffa500" stroke-linecap="round" stroke-linejoin="round"/><polyline fill="none" points="-247.83488326192605,-192.2261273544893 -245.33488326190087,-192.89600033552531 -243.50475624293597,-194.7261273544239 -242.83488326180938,-197.22612735442482 -243.5047562428454,-199.72612735445 -245.33488326174398,-201.5562543734149 -247.8348832617449,-202.2261273545415 -250.33488326177007,-201.55625437350548 -252.16501028073498,-199.7261273546069 -252.83488326186156,-197.22612735460598 -252.16501028082556,-194.7261273545808 -250.33488326192696,-192.8960003356159 -247.83488326192605,-192.2261273544893" stroke="#ffa500" stroke-linecap="round" stroke-linejoin="round"/><polyline fill="none" points="-260.7734227054838,-99.78533626958463 -258.27342270545864,-100.45520925062064 -256.44329568649374,-102.28533626951922 -255.77342270536715,-104.78533626952012 -256.4432956864032,-107.28533626954528 -258.27342270530175,-109.11546328851017 -260.77342270530266,-109.78533626963676 -263.27342270532785,-109.11546328860075 -265.10354972429275,-107.28533626970217 -265.77342270541936,-104.78533626970128 -265.10354972438336,-102.28533626967611 -263.2734227054848,-100.45520925071122 -260.7734227054839,-99.78533626958463" stroke="#00f" stroke-linecap="round" stroke-linejoin="round"/><polyline fill="none" points="-420.7095970596319,-70.12161112412286 -418.2095970596067,-70.79148410515887 -416.3794700406418,-72.62161112405745 -415.7095970595152,-75.12161112405835 -416.3794700405512,-77.62161112408351 -418.2095970594498,-79.4517381430484 -420.7095970594507,-80.12161112417499 -423.20959705947587,-79.45173814313898 -425.03972407844077,-77.6216111242404 -425.7095970595674,-75.12161112423951 -425.0397240785314,-72.62161112421434 -423.2095970596328,-70.79148410524944 -420.7095970596319,-70.12161112412284" stroke="#00f" stroke-linecap="round" stroke-linejoin="round"/><polyline fill="none" points="132.4796176215414,-165.12153655243176 134.97961762156658,-165.79140953346777 136.80974464053148,-167.62153655236634 137.47961762165806,-170.12153655236725 136.80974464062206,-172.62153655239243 134.9796176217235,-174.45166357135733 132.47961762172258,-175.12153655248392 129.9796176216974,-174.4516635714479 128.1494906027325,-172.62153655254934 127.4796176216059,-170.12153655254843 128.1494906026419,-167.62153655252325 129.97961762154046,-165.79140953355835 132.47961762154137,-165.12153655243176" stroke="#ffa500" stroke-linecap="round" stroke-linejoin="round"/><polyline fill="none" points="120.50552299765732,-259.5432925737215 123.0055229976825,-260.2131655547575 124.8356500166474,-262.04329257365606 125.50552299777401,-264.54329257365697 124.835650016738,-267.04329257368215 123.00552299783942,-268.87341959264705 120.50552299783853,-269.54329257377367 118.00552299781334,-268.87341959273766 116.17539597884844,-267.0432925738391 115.50552299772184,-264.5432925738382 116.17539597875785,-262.043292573813 118.00552299765643,-260.2131655548481 120.50552299765732,-259.5432925737215" stroke="#ffa500" stroke-linecap="round" stroke-linejoin="round"/><polyline fill="none" points="-459.37023308864093,-119.5432736336901 -456.87023308861575,-120.2131466147261 -455.04010606965085,-122.04327363362468 -454.37023308852423,-124.54327363362557 -455.04010606956024,-127.04327363365076 -456.8702330884588,-128.87340065261566 -459.3702330884597,-129.54327363374227 -461.8702330884849,-128.87340065270627 -463.7003601074498,-127.04327363380769 -464.3702330885764,-124.54327363380679 -463.7003601075404,-122.04327363378161 -461.87023308864184,-120.21314661481671 -459.37023308864093,-119.5432736336901" stroke="#00f" stroke-linecap="round" stroke-linejoin="round"/><polyline fill="none" points="-328.95277251777657,19.62391921622993 -326.4527725177514,18.954046235193932 -324.6226454987865,17.123919216295356 -323.95277251765987,14.623919216294455 -324.6226454986959,12.123919216269277 -326.45277251759444,10.293792197304374 -328.95277251759535,9.623919216177768 -331.45277251762053,10.293792197213765 -333.28289953658543,12.12391921611234 -333.95277251771205,14.62391921611324 -333.28289953667604,17.123919216138418 -331.4527725177775,18.954046235103323 -328.95277251777657,19.62391921622993" stroke="#00f" stroke-linecap="round" stroke-linejoin="round"/><polyline fill="none" points="57.719187215253655,191.3172710810456 60.219187215278836,190.64739810000958 62.049314234243745,188.81727108111102 62.719187215370354,186.3172710811101 62.04931423433436,183.81727108108493 60.21918721543579,181.98714406212002 57.719187215434886,181.3172710809934 55.219187215409704,181.98714406202942 53.389060196444795,183.81727108092798 52.719187215318186,186.3172710809289 53.38906019635418,188.81727108095407 55.21918721525275,190.64739809991897 57.719187215253655,191.3172710810456" stroke="#ffa500" stroke-linecap="round" stroke-linejoin="round"/><polyline fill="none" points="103.7341164214193,82.8699300555942 106.23411642144448,82.2000570745582 108.06424344040938,80.36993005565964 108.734116421536,77.86993005565874 108.06424344050001,75.36993005563356 106.23411642160144,73.53980303666864 103.73411642160055,72.86993005554203 101.23411642157537,73.53980303657802 99.40398940261045,75.36993005547659 98.73411642148383,77.86993005547748 99.40398940251983,80.36993005550266 101.23411642141839,82.20005707446758 103.73411642141929,82.8699300555942" stroke="#ffa500" stroke-linecap="round" stroke-linejoin="round"/><polyline fill="none" points="101.92430812922444,-177.5016770689005 104.42430812924962,-178.17155004993649 106.25443514821454,-180.00167706883505 106.92430812934116,-182.50167706883596 106.25443514830516,-185.00167706886114 104.4243081294066,-186.83180408782604 101.9243081294057,-187.50167706895266 99.42430812938052,-186.83180408791668 97.5941811104156,-185.00167706901811 96.92430812928899,-182.5016770690172 97.59418111032498,-180.00167706899202 99.42430812922355,-178.17155005002712 101.92430812922444,-177.5016770689005" stroke="#ffa500" stroke-linecap="round" stroke-linejoin="round"/><polyline fill="none" points="-203.903675205569,-159.16084253569966 -201.4036752055438,-159.83071551673564 -199.5735481865789,-161.6608425356342 -198.9036752054523,-164.1608425356351 -199.57354818648827,-166.6608425356603 -201.40367520538683,-168.4909695546252 -203.90367520538774,-169.1608425357518 -206.40367520541292,-168.49096955471583 -208.23380222437783,-166.66084253581727 -208.90367520550444,-164.16084253581636 -208.23380222446846,-161.66084253579118 -206.4036752055699,-159.83071551682627 -203.903675205569,-159.16084253569966" stroke="#00f" stroke-linecap="round" stroke-linejoin="round"/><polyline fill="none" points="69.54147046218304,327.7070569989709 72.04147046220822,327.0371840179349 73.87159748117314,325.20705699903635 74.54147046229976,322.70705699903544 73.87159748126378,320.20705699901026 72.04147046236521,318.37692998004536 69.54147046236432,317.70705699891874 67.04147046233913,318.37692997995475 65.21134344337422,320.2070569988533 64.5414704622476,322.7070569988542 65.21134344328358,325.2070569988794 67.04147046218215,327.0371840178443 69.54147046218304,327.7070569989709" stroke="#ffa500" stroke-linecap="round" stroke-linejoin="round"/><polyline fill="none" points="-10.170041196163643,-224.5296922493756 -7.670041196138456,-225.1995652304116 -5.839914177173538,-227.02969224931016 -5.170041196046918,-229.52969224931107 -5.8399141770829015,-232.02969224933625 -7.670041195981469,-233.85981926830118 -10.170041195982371,-234.5296922494278 -12.67004119600756,-233.85981926839182 -14.50016821497248,-232.02969224949325 -15.1700411960991,-229.52969224949234 -14.500168215063118,-227.02969224946716 -12.67004119616455,-225.19956523050223 -10.170041196163648,-224.5296922493756" stroke="#ffa500" stroke-linecap="round" stroke-linejoin="round"/><polyline fill="none" points="-277.8899242168897,-149.76473800842223 -275.38992421686453,-150.4346109894582 -273.5597971978996,-152.26473800835677 -272.889924216773,-154.76473800835768 -273.559797197809,-157.26473800838286 -275.3899242167076,-159.0948650273478 -277.8899242167085,-159.7647380084744 -280.3899242167337,-159.09486502743843 -282.2200512356986,-157.26473800853987 -282.8899242168252,-154.76473800853896 -282.2200512357892,-152.26473800851377 -280.3899242168906,-150.43461098954884 -277.8899242168897,-149.76473800842223" stroke="#008000" stroke-linecap="round" stroke-linejoin="round"/><polyline fill="none" points="-35.147177596303145,-38.386598912120505 -32.647177596277956,-39.056471893156484 -30.817050577313033,-40.88659891205505 -30.147177596186406,-43.38659891205595 -30.817050577222385,-45.88659891208114 -32.64717759612095,-47.716725931046064 -35.14717759612185,-48.38659891217269 -37.64717759614704,-47.71672593113671 -39.47730461511196,-45.88659891223814 -40.14717759623859,-43.38659891223724 -39.47730461520261,-40.88659891221205 -37.64717759630405,-39.05647189324713 -35.147177596303145,-38.3865989121205" stroke="#ffa500" stroke-linecap="round" stroke-linejoin="round"/><polyline fill="none" points="-340.30208179853656,-162.89052748679094 -337.8020817985114,-163.56040046782692 -335.9719547795465,-165.3905274867255 -335.30208179841986,-167.8905274867264 -335.9719547794558,-170.39052748675158 -337.8020817983544,-172.2206545057165 -340.3020817983553,-172.89052748684313 -342.80208179838047,-172.22065450580715 -344.6322088173454,-170.39052748690858 -345.302081798472,-167.89052748690767 -344.63220881743604,-165.3905274868825 -342.8020817985375,-163.56040046791756 -340.30208179853656,-162.89052748679094" stroke="#00f" stroke-linecap="round" stroke-linejoin="round"/><polyline fill="none" points="45.562468716987134,-230.3297901563068 48.06246871701233,-230.9996631373428 49.89259573597726,-232.82979015624136 50.56246871710389,-235.32979015624227 49.89259573606792,-237.82979015626745 48.06246871716935,-239.65991717523238 45.56246871716845,-240.32979015635902 43.062468717143254,-239.65991717532305 41.232341698178324,-237.82979015642448 40.56246871705169,-235.32979015642357 41.232341698087666,-232.8297901563984 43.06246871698623,-230.99966313743346 45.562468716987134,-230.3297901563068" stroke="#00f" stroke-linecap="round" stroke-linejoin="round"/><polyline fill="none" points="45.92581910709395,-71.53690971682826 48.425819107119146,-72.20678269786424 50.255946126084076,-74.0369097167628 50.925819107210714,-76.53690971676372 50.25594612617474,-79.03690971678891 48.42581910727618,-80.86703673575384 45.92581910727528,-81.53690971688047 43.425819107250085,-80.86703673584451 41.595692088285155,-79.03690971694594 40.92581910715852,-76.53690971694503 41.59569208819449,-74.03690971691984 43.42581910709305,-72.2067826979549 45.92581910709395,-71.53690971682828" stroke="#ffa500" stroke-linecap="round" stroke-linejoin="round"/><polyline fill="none" points="-242.82026440393543,-45.866720196324444 -240.32026440391022,-46.536593177360416 -238.49013738494529,-48.366720196258974 -237.82026440381864,-50.86672019625988 -238.49013738485462,-53.36672019628507 -240.32026440375319,-55.19684721525 -242.8202644037541,-55.86672019637664 -245.3202644037793,-55.19684721534067 -247.15039142274424,-53.36672019644211 -247.82026440387088,-50.86672019644121 -247.1503914228349,-48.36672019641601 -245.32026440393633,-46.53659317745108 -242.82026440393543,-45.866720196324444" stroke="#ffa500" stroke-linecap="round" stroke-linejoin="round"/><polyline fill="none" points="50.467531961603925,-204.39389587295526 52.96753196162912,-205.06376885399123 54.79765898059406,-206.8938958728898 55.467531961720695,-209.3938958728907 54.79765898068473,-211.89389587291592 52.96753196178617,-213.72402289188085 50.46753196178527,-214.3938958730075 47.96753196176007,-213.72402289197152 46.137404942795136,-211.89389587307295 45.4675319616685,-209.39389587307204 46.137404942704464,-206.89389587304683 47.96753196160302,-205.0637688540819 50.467531961603925,-204.39389587295526" stroke="#ffa500" stroke-linecap="round" stroke-linejoin="round"/><polyline fill="none" points="-254.82669200855685,19.216229516600976 -252.32669200853164,18.54635653556501 -250.4965649895667,16.716229516666452 -249.82669200844006,14.21622951666555 -250.49656498947604,11.71622951664035 -252.3266920083746,9.886102497675413 -254.82669200837552,9.21622951654877 -257.3266920084007,9.886102497584735 -259.15681902736566,11.716229516483292 -259.8266920084923,14.216229516484194 -259.1568190274563,16.716229516509394 -257.32669200855776,18.54635653547433 -254.82669200855685,19.216229516600976" stroke="#00f" stroke-linecap="round" stroke-linejoin="round"/><polyline fill="none" points="117.50601258723341,-124.02698867336252 120.00601258725861,-124.69686165439849 121.83613960622355,-126.52698867329704 122.5060125873502,-129.02698867329795 121.83613960631423,-131.52698867332316 120.00601258741568,-133.3571156922881 117.50601258741477,-134.02698867341473 115.00601258738958,-133.35711569237878 113.17588556842463,-131.52698867348022 112.50601258729799,-129.0269886734793 113.17588556833395,-126.52698867345411 115.0060125872325,-124.69686165448917 117.50601258723341,-124.02698867336252" stroke="#00f" stroke-linecap="round" stroke-linejoin="round"/><polyline fill="none" points="211.4559946055819,-184.17425527719348 213.95599460560712,-184.84412825822943 215.78612162457205,-186.674255277128 216.4559946056987,-189.1742552771289 215.78612162466274,-191.67425527715412 213.95599460576418,-193.50438229611905 211.45599460576327,-194.1742552772457 208.95599460573806,-193.50438229620974 207.12586758677313,-191.67425527731118 206.45599460564648,-189.17425527731027 207.12586758668243,-186.67425527728506 208.955994605581,-184.84412825832013 211.4559946055819,-184.17425527719348" stroke="#00f" stroke-linecap="round" stroke-linejoin="round"/><polyline fill="none" points="67.90247026005778,72.34427499351845 70.40247026008299,71.67440201248249 72.23259727904794,69.84427499358394 72.90247026017458,67.34427499358303 72.23259727913862,64.84427499355782 70.40247026024007,63.01414797459287 67.90247026023916,62.34427499346622 65.40247026021395,63.01414797450218 63.572343241249,64.84427499340073 62.90247026012235,67.34427499340163 63.57234324115831,69.84427499342684 65.40247026005686,71.67440201239178 67.90247026005777,72.34427499351843" stroke="#ffa500" stroke-linecap="round" stroke-linejoin="round"/><polyline fill="none" points="-10.14227118054775,18.9104918690142 -7.642271180522545,18.240618887978243 -5.812144161557599,16.410491869079692 -5.142271180430947,13.91049186907879 -5.812144161466903,11.410491869053585 -7.642271180365455,9.580364850088639 -10.142271180366357,8.910491868961985 -12.642271180391562,9.580364849997942 -14.47239819935651,11.410491868896493 -15.142271180483164,13.910491868897395 -14.472398199447209,16.410491868922602 -12.642271180548658,18.24061888788755 -10.142271180547755,18.910491869014205" stroke="#ffa500" stroke-linecap="round" stroke-linejoin="round"/><polyline fill="none" points="-139.26925189449454,-162.4861099463091 -136.76925189446933,-163.15598292734506 -134.93912487550438,-164.98610994624363 -134.26925189437773,-167.48610994624454 -134.93912487541368,-169.98610994626975 -136.76925189431222,-171.8162369652347 -139.26925189431313,-172.48610994636135 -141.76925189433834,-171.8162369653254 -143.5993789133033,-169.98610994642686 -144.26925189442994,-167.48610994642596 -143.599378913394,-164.98610994640075 -141.76925189449545,-163.1559829274358 -139.26925189449454,-162.48610994630914" stroke="#ffa500" stroke-linecap="round" stroke-linejoin="round"/><polyline fill="none" points="-224.46625675304034,-23.144613278864508 -221.96625675301513,-23.814486259900463 -220.13612973405017,-25.644613278799014 -219.46625675292353,-28.144613278799916 -220.13612973395948,-30.644613278825123 -221.96625675285802,-32.47474029779007 -224.46625675285892,-33.14461327891673 -226.96625675288414,-32.47474029788078 -228.7963837718491,-30.64461327898223 -229.46625675297574,-28.14461327898133 -228.7963837719398,-25.644613278956122 -226.96625675304125,-23.81448625999117 -224.46625675304034,-23.14461327886451" stroke="#ffa500" stroke-linecap="round" stroke-linejoin="round"/><polyline fill="none" points="-352.91958468106765,-15.333177323417353 -350.41958468104247,-16.003050304453303 -348.5894576620775,-17.83317732335185 -347.91958468095083,-20.333177323352754 -348.5894576619868,-22.83317732337796 -350.41958468088535,-24.66330434234291 -352.91958468088626,-25.33317732346957 -355.41958468091144,-24.663304342433623 -357.2497116998764,-22.833177323535075 -357.9195846810031,-20.333177323534173 -357.2497116999671,-17.833177323508963 -355.41958468106856,-16.003050304544008 -352.91958468106765,-15.333177323417345" stroke="#ffa500" stroke-linecap="round" stroke-linejoin="round"/><polyline fill="none" points="-95.75429875905874,-177.45269564956664 -93.25429875903353,-178.1225686306026 -91.42417174006857,-179.95269564950112 -90.75429875894191,-182.45269564950203 -91.42417173997787,-184.95269564952724 -93.25429875887642,-186.7828226684922 -95.75429875887733,-187.45269564961887 -98.25429875890254,-186.78282266858292 -100.0844257778675,-184.9526956496844 -100.75429875899415,-182.45269564968348 -100.0844257779582,-179.95269564965827 -98.25429875905965,-178.1225686306933 -95.75429875905874,-177.45269564956664" stroke="#00f" stroke-linecap="round" stroke-linejoin="round"/><polyline fill="none" points="-392.9379900534055,-47.93193812214185 -390.43799005338025,-48.601811103177795 -388.6078630344153,-50.43193812207634 -387.9379900532886,-52.93193812207724 -388.60786303432457,-55.43193812210245 -390.43799005322313,-57.26206514106741 -392.93799005322404,-57.931938122194076 -395.4379900532493,-57.26206514115813 -397.26811707221424,-55.43193812225959 -397.9379900533409,-52.931938122258686 -397.26811707230496,-50.431938122233475 -395.4379900534064,-48.60181110326852 -392.9379900534055,-47.93193812214185" stroke="#ffa500" stroke-linecap="round" stroke-linejoin="round"/><polyline fill="none" points="-230.32951831624425,76.08609899019231 -227.82951831621904,75.41622600915638 -225.99939129725408,73.58609899025782 -225.3295183161274,71.08609899025691 -225.99939129716336,68.5860989902317 -227.8295183160619,66.75597197126675 -230.3295183160628,66.08609899014007 -232.829518316088,66.75597197117601 -234.65964533505297,68.58609899007455 -235.32951831617964,71.08609899007546 -234.6596453351437,73.58609899010067 -232.82951831624516,75.41622600906562 -230.32951831624425,76.0860989901923" stroke="#ffa500" stroke-linecap="round" stroke-linejoin="round"/><polyline fill="none" points="109.1133745021429,205.8679119985512 111.61337450216811,205.19803901751524 113.44350152113307,203.3679119986167 114.11337450225975,200.8679119986158 113.44350152122381,198.36791199859059 111.61337450232527,196.53778497962563 109.11337450232436,195.86791199849895 106.61337450229915,196.5377849795349 104.7832474833342,198.36791199843344 104.11337450220752,200.86791199843435 104.78324748324346,203.36791199845956 106.613374502142,205.19803901742452 109.1133745021429,205.8679119985512" stroke="#ffa500" stroke-linecap="round" stroke-linejoin="round"/><polyline fill="none" points="-351.61275200276543,-177.37298441973206 -349.1127520027402,-178.042857400768 -347.28262498377524,-179.87298441966655 -346.61275200264856,-182.37298441966746 -347.2826249836845,-184.87298441969267 -349.1127520025831,-186.70311143865763 -351.612752002584,-187.3729844197843 -354.1127520026092,-186.70311143874835 -355.9428790215742,-184.87298441984981 -356.61275200270086,-182.3729844198489 -355.9428790216649,-179.8729844198237 -354.11275200276634,-178.04285740085874 -351.61275200276543,-177.37298441973206" stroke="#f00" stroke-linecap="round" stroke-linejoin="round"/><polyline fill="none" points="27.738776549796896,-86.82706748923253 30.238776549822113,-87.49694047026847 32.06890356878708,-89.327067489167 32.73877654991375,-91.82706748916792 32.068903568877815,-94.32706748919314 30.238776549979274,-96.15719450815811 27.73877654997837,-96.82706748928479 25.23877654995315,-96.15719450824885 23.408649530988182,-94.32706748935031 22.738776549861505,-91.8270674893494 23.40864953089744,-89.32706748932418 25.23877654979598,-87.4969404703592 27.73877654979688,-86.82706748923253" stroke="#ffa500" stroke-linecap="round" stroke-linejoin="round"/><polyline fill="none" points="162.54785258031706,-189.5971901775165 165.04785258034227,-190.26706315855242 166.87797959930722,-192.09719017745095 167.5478525804339,-194.59719017745186 166.87797959939797,-197.09719017747707 165.04785258049944,-198.92731719644203 162.54785258049853,-199.5971901775687 160.04785258047332,-198.92731719653278 158.21772556150836,-197.09719017763425 157.5478525803817,-194.59719017763334 158.2177255614176,-192.09719017760813 160.04785258031615,-190.26706315864317 162.54785258031706,-189.5971901775165" stroke="#ffa500" stroke-linecap="round" stroke-linejoin="round"/><polyline fill="none" points="213.993890691901,-110.22829541206382 216.4938906919262,-110.89816839309975 218.32401771089118,-112.72829541199829 218.99389069201786,-115.2282954119992 218.32401771098193,-117.72829541202442 216.4938906920834,-119.5584224309894 213.9938906920825,-120.22829541211608 211.49389069205728,-119.55842243108015 209.6637636730923,-117.72829541218161 208.99389069196562,-115.2282954121807 209.66376367300154,-112.72829541215548 211.49389069190008,-110.8981683931905 213.993890691901,-110.22829541206382" stroke="#ffa500" stroke-linecap="round" stroke-linejoin="round"/><polyline fill="none" points="-328.89947274759487,-72.74226358721239 -326.39947274756963,-73.41213656824831 -324.5693457286047,-75.24226358714685 -323.899472747478,-77.74226358714776 -324.56934572851395,-80.24226358717299 -326.39947274741246,-82.07239060613796 -328.89947274741337,-82.74226358726465 -331.3994727474386,-82.07239060622872 -333.22959976640357,-80.24226358733019 -333.89947274753024,-77.74226358732928 -333.2295997664943,-75.24226358730405 -331.3994727475958,-73.41213656833908 -328.89947274759487,-72.74226358721239" stroke="#00f" stroke-linecap="round" stroke-linejoin="round"/><polyline fill="none" points="130.50543132273896,-231.39073381138147 133.0054313227642,-232.0606067924174 134.83555834172918,-233.89073381131593 135.50543132285588,-236.39073381131684 134.83555834181996,-238.89073381134207 133.00543132292142,-240.72086083030706 130.50543132292051,-241.39073381143376 128.00543132289528,-240.72086083039784 126.17530430393029,-238.8907338114993 125.5054313228036,-236.3907338114984 126.17530430383952,-233.89073381147315 128.00543132273805,-232.06060679250817 130.50543132273896,-231.39073381138147" stroke="#ffa500" stroke-linecap="round" stroke-linejoin="round"/><polyline fill="none" points="-42.44131766293552,-96.73190243082834 -39.94131766291029,-97.40177541186426 -38.111190643945314,-99.2319024307628 -37.44131766281862,-101.73190243076371 -38.11119064385454,-104.23190243078894 -39.94131766275308,-106.06202944975392 -42.44131766275398,-106.73190243088061 -44.941317662779205,-106.06202944984469 -46.771444681744185,-104.23190243094615 -47.44131766287088,-101.73190243094524 -46.77144468183496,-99.23190243092002 -44.94131766293643,-97.40177541195503 -42.441317662935525,-96.73190243082834" stroke="#ffa500" stroke-linecap="round" stroke-linejoin="round"/><polyline fill="none" points="92.63502395627286,103.40695388901963 95.13502395629808,102.73708090798371 96.96515097526307,100.90695388908517 97.63502395638977,98.40695388908426 96.96515097535385,95.90695388905904 95.13502395645531,94.07682687009405 92.6350239564544,93.40695388896735 90.13502395642918,94.07682687000327 88.30489693746419,95.90695388890181 87.63502395633749,98.40695388890272 88.30489693737341,100.90695388892794 90.13502395627195,102.73708090789293 92.63502395627286,103.40695388901963" stroke="#ffa500" stroke-linecap="round" stroke-linejoin="round"/><polyline fill="none" points="149.10470602602777,256.78712728863013 151.604706026053,256.11725430759424 153.434833045018,254.2871272886957 154.1047060261447,251.7871272886948 153.43483304510877,249.28712728866955 151.60470602621024,247.45700026970457 149.10470602620933,246.78712728857786 146.6047060261841,247.4570002696138 144.7745790072191,249.28712728851232 144.1047060260924,251.78712728851323 144.77457900712832,254.28712728853847 146.60470602602686,256.11725430750346 149.10470602602777,256.78712728863013" stroke="#ffa500" stroke-linecap="round" stroke-linejoin="round"/><polyline fill="none" points="-323.02134987537164,-180.92706375809087 -320.5213498753464,-181.5969367391268 -318.6912228563814,-183.42706375802533 -318.0213498752547,-185.92706375802624 -318.6912228562906,-188.42706375805147 -320.5213498751891,-190.25719077701646 -323.02134987519,-190.92706375814316 -325.52134987521526,-190.25719077710724 -327.3514768941803,-188.4270637582087 -328.021349875307,-185.9270637582078 -327.3514768942711,-183.42706375818256 -325.5213498753726,-181.59693673921757 -323.0213498753717,-180.92706375809087" stroke="#00f" stroke-linecap="round" stroke-linejoin="round"/><polyline fill="none" points="-277.75615868591797,28.571967194974814 -275.25615868589273,27.9020942139389 -273.4260316669277,26.07196719504037 -272.756158685801,23.571967195039463 -273.4260316668369,21.071967195014228 -275.2561586857354,19.241840176049234 -277.7561586857363,18.57196719492253 -280.25615868576153,19.24184017595844 -282.08628570472655,21.07196719485697 -282.7561586858533,23.571967194857876 -282.0862857048174,26.07196719488311 -280.2561586859189,27.902094213848105 -277.75615868591797,28.57196719497481" stroke="#00f" stroke-linecap="round" stroke-linejoin="round"/><polyline fill="none" points="127.19800277622745,117.3816857095069 129.69800277625268,116.71181272847099 131.52812979521767,114.88168570957247 132.19800277634437,112.38168570957156 131.52812979530844,109.88168570954632 129.6980027764099,108.05155869058132 127.198002776409,107.38168570945462 124.69800277638376,108.05155869049052 122.86787575741876,109.88168570938905 122.19800277629206,112.38168570938996 122.86787575732797,114.8816857094152 124.69800277622649,116.7118127283802 127.1980027762274,117.3816857095069" stroke="#ffa500" stroke-linecap="round" stroke-linejoin="round"/><polyline fill="none" points="-373.0738553161789,-51.39853945422834 -370.57385531615364,-52.06841243526425 -368.7437282971886,-53.89853945416278 -368.0738553160619,-56.39853945416369 -368.7437282970978,-58.89853945418893 -370.5738553159963,-60.72866647315392 -373.0738553159972,-61.39853945428063 -375.57385531602245,-60.72866647324472 -377.40398233498746,-58.89853945434619 -378.0738553161142,-56.39853945434528 -377.4039823350783,-53.898539454320044 -375.5738553161798,-52.06841243535504 -373.0738553161789,-51.398539454228334" stroke="#ffa500" stroke-linecap="round" stroke-linejoin="round"/><polyline fill="none" points="-263.0780926346203,-173.7245512506523 -260.57809263459507,-174.39442423168822 -258.74796561563005,-176.22455125058676 -258.0780926345033,-178.72455125058767 -258.7479656155392,-181.2245512506129 -260.5780926344377,-183.0546782695779 -263.07809263443863,-183.7245512507046 -265.57809263446387,-183.0546782696687 -267.4082196534289,-181.22455125077016 -268.0780926345556,-178.72455125076925 -267.4082196535197,-176.224551250744 -265.5780926346212,-174.39442423177903 -263.0780926346203,-173.72455125065233" stroke="#00f" stroke-linecap="round" stroke-linejoin="round"/><polyline fill="none" points="147.3493814500486,-72.99840481318222 149.84938145007385,-73.66827779421813 151.67950846903886,-75.49840481311665 152.34938145016557,-77.99840481311756 151.67950846912967,-80.4984048131428 149.84938145023114,-82.3285318321078 147.34938145023023,-82.99840481323452 144.849381450205,-82.3285318321986 143.01925443123997,-80.49840481330008 142.34938145011327,-77.99840481329917 143.01925443114916,-75.49840481327394 144.8493814500477,-73.66827779430893 147.3493814500486,-72.99840481318222" stroke="#ffa500" stroke-linecap="round" stroke-linejoin="round"/><polyline fill="none" points="-110.79310143146382,-15.237562754845218 -108.29310143143859,-15.907435735881121 -106.46297441247359,-17.737562754779646 -105.79310143134687,-20.23756275478055 -106.46297441238278,-22.737562754805793 -108.2931014312813,-24.567689773770798 -110.79310143128221,-25.237562754897517 -113.29310143130745,-24.567689773861616 -115.12322845027245,-22.737562754963093 -115.79310143139917,-20.237562754962187 -115.12322845036326,-17.737562754936945 -113.29310143146473,-15.90743573597194 -110.79310143146382,-15.237562754845221" stroke="#00f" stroke-linecap="round" stroke-linejoin="round"/><polyline fill="none" points="12.197888938858343,154.08855025070824 14.697888938883583,153.41867726967234 16.528015957848588,151.58855025077384 17.197888938975307,149.08855025077293 16.528015957939406,146.5885502507477 14.697888939040883,144.75842323178267 12.197888939039977,144.08855025065594 9.697888939014735,144.75842323169184 7.867761920049728,146.58855025059034 7.197888938923007,149.08855025059125 7.867761919958905,151.5885502506165 9.697888938857426,153.4186772695815 12.197888938858334,154.08855025070824" stroke="#ffa500" stroke-linecap="round" stroke-linejoin="round"/><polyline fill="none" points="-359.6144263293775,-212.9600251927958 -357.1144263293523,-213.6298981738317 -355.28429931038727,-215.4600251927302 -354.61442632926054,-217.9600251927311 -355.28429931029643,-220.46002519275635 -357.11442632919494,-222.29015221172136 -359.61442632919585,-222.9600251928481 -362.1144263292211,-222.2901522118122 -363.9445533481861,-220.4600251929137 -364.61442632931283,-217.96002519291278 -363.94455334827694,-215.46002519288754 -362.11442632937843,-213.62989817392253 -359.6144263293775,-212.9600251927958" stroke="#ffa500" stroke-linecap="round" stroke-linejoin="round"/><polyline fill="none" points="-178.8575020987224,-141.330607661516 -176.35750209869715,-142.0004806425519 -174.52737507973214,-143.83060766145041 -173.8575020986054,-146.33060766145132 -174.5273750796413,-148.83060766147656 -176.3575020985398,-150.66073468044158 -178.85750209854072,-151.3306076615683 -181.35750209856596,-150.6607346805324 -183.18762911753097,-148.8306076616339 -183.8575020986577,-146.330607661633 -183.1876291176218,-143.83060766160776 -181.3575020987233,-142.00048064264274 -178.8575020987224,-141.330607661516" stroke="#ffa500" stroke-linecap="round" stroke-linejoin="round"/><polyline fill="none" points="-306.7825263000884,-2.4747022972239314 -304.2825263000632,-3.144575278259825 -302.45239928109817,-4.974702297158343 -301.78252629997144,-7.474702297159251 -302.45239928100733,-9.974702297184496 -304.28252629990584,-11.80482931614951 -306.78252629990675,-12.474702297276238 -309.282526299932,-11.804829316240346 -311.112653318897,-9.974702297341828 -311.78252630002373,-7.4747022973409205 -311.11265331898784,-4.974702297315673 -309.28252630008933,-3.1445752783506578 -306.7825263000884,-2.474702297223928" stroke="#ffa500" stroke-linecap="round" stroke-linejoin="round"/><polyline fill="none" points="-8.471327386636862,100.49960878651974 -5.971327386611614,99.82973580548385 -4.141200367646598,97.99960878658533 -3.4713273865198673,95.49960878658442 -4.141200367555758,92.99960878655916 -5.971327386454275,91.16948176759415 -8.471327386455183,90.49960878646742 -10.971327386480432,91.16948176750331 -12.80145440544545,92.99960878640184 -13.471327386572181,95.49960878640275 -12.80145440553629,97.999608786428 -10.971327386637775,99.82973580539301 -8.471327386636867,100.49960878651974" stroke="#00f" stroke-linecap="round" stroke-linejoin="round"/><polyline fill="none" points="65.131256701578,235.80391477659373 67.63125670160325,235.13404179555783 69.46138372056826,233.30391477665933 70.131256701695,230.80391477665842 69.4613837206591,228.30391477663318 67.63125670176059,226.47378775766816 65.13125670175968,225.80391477654143 62.63125670173443,226.47378775757733 60.80112968276941,228.30391477647584 60.13125670164267,230.80391477647674 60.80112968267856,233.30391477650198 62.63125670157707,235.134041795467 65.13125670157798,235.80391477659373" stroke="#ffa500" stroke-linecap="round" stroke-linejoin="round"/><polyline fill="none" points="-174.34628040092622,-82.86529130179512 -171.84628040090098,-83.535164282831 -170.01615338193596,-85.36529130172951 -169.34628040080923,-87.86529130173042 -170.01615338184513,-90.36529130175568 -171.84628040074364,-92.19541832072069 -174.34628040074455,-92.86529130184744 -176.84628040076979,-92.19541832081156 -178.6764074197348,-90.36529130191305 -179.34628040086153,-87.86529130191214 -178.67640741982564,-85.36529130188688 -176.84628040092713,-83.53516428292187 -174.34628040092622,-82.86529130179512" stroke="#00f" stroke-linecap="round" stroke-linejoin="round"/><polyline fill="none" points="-170.91079103576374,72.31239030994809 -168.4107910357385,71.6425173289122 -166.58066401677348,69.8123903100137 -165.91079103564675,67.31239031001279 -166.58066401668265,64.81239030998753 -168.41079103558116,62.98226329102251 -170.91079103558206,62.312390309895775 -173.4107910356073,62.982263290931655 -175.24091805457232,64.81239030983016 -175.91079103569905,67.31239030983107 -175.24091805466315,69.81239030985633 -173.41079103576465,71.64251732882136 -170.91079103576374,72.3123903099481" stroke="#ffa500" stroke-linecap="round" stroke-linejoin="round"/><polyline fill="none" points="-86.8006854178667,-27.689300012978954 -84.30068541784145,-28.359172994014838 -82.47055839887642,-30.18930001291335 -81.80068541774968,-32.68930001291426 -82.47055839878556,-35.18930001293951 -84.30068541768406,-37.01942703190454 -86.80068541768497,-37.689300013031286 -89.30068541771023,-37.019427031995406 -91.13081243667526,-35.1893000130969 -91.800685417802,-32.68930001309599 -91.13081243676612,-30.189300013070735 -89.30068541786761,-28.359172994105705 -86.8006854178667,-27.68930001297896" stroke="#ffa500" stroke-linecap="round" stroke-linejoin="round"/><polyline fill="none" points="-290.5895960481878,-116.32653036253969 -288.08959604816255,-116.99640334357557 -286.25946902919753,-118.82653036247407 -285.5895960480708,-121.32653036247498 -286.2594690291067,-123.82653036250024 -288.0895960480052,-125.65665738146527 -290.5895960480061,-126.32653036259201 -293.08959604803135,-125.65665738155613 -294.91972306699637,-123.82653036265762 -295.5895960481231,-121.32653036265671 -294.9197230670872,-118.82653036263146 -293.0895960481887,-116.99640334366643 -290.5895960481878,-116.32653036253969" stroke="#008000" stroke-linecap="round" stroke-linejoin="round"/><polyline fill="none" points="-310.56647994198755,-180.51915003534003 -308.0664799419623,-181.1890230163759 -306.2363529229973,-183.0191500352744 -305.56647994187057,-185.51915003527532 -306.23635292290646,-188.01915003530058 -308.06647994180497,-189.84927705426563 -310.5664799418059,-190.51915003539239 -313.0664799418311,-189.84927705435652 -314.89660696079613,-188.019150035458 -315.56647994192286,-185.5191500354571 -314.89660696088697,-183.01915003543184 -313.06647994198846,-181.1890230164668 -310.56647994198755,-180.51915003534003" stroke="#00f" stroke-linecap="round" stroke-linejoin="round"/><polyline fill="none" points="131.20098832758538,282.20157200174884 133.70098832761065,281.53169902071295 135.5311153465757,279.70157200181444 136.20098832770245,277.20157200181353 135.53111534666658,274.7015720017883 133.70098832776807,272.8714449828233 131.20098832776716,272.20157200169655 128.7009883277419,272.87144498273244 126.87086130877687,274.70157200163095 126.20098832765011,277.20157200163186 126.87086130868597,279.7015720016571 128.70098832758447,281.5316990206221 131.20098832758538,282.20157200174884" stroke="#00f" stroke-linecap="round" stroke-linejoin="round"/><polyline fill="none" points="-250.6478662264787,-32.096443644455775 -248.14786622645343,-32.76631662549165 -246.3177392074884,-34.59644364439015 -245.64786622636163,-37.09644364439106 -246.3177392073975,-39.59644364441632 -248.147866226296,-41.426570663381355 -250.6478662262969,-42.096443644508106 -253.14786622632218,-41.42657066347223 -254.97799324528722,-39.59644364457373 -255.64786622641398,-37.09644364457282 -254.97799324537812,-34.59644364454756 -253.1478662264796,-32.766316625582526 -250.6478662264787,-32.09644364445577" stroke="#00f" stroke-linecap="round" stroke-linejoin="round"/><polyline fill="none" points="111.36104249929039,161.38171663363593 113.86104249931566,160.71184365260007 115.6911695182807,158.88171663370156 116.36104249940746,156.38171663370065 115.6911695183716,153.88171663367538 113.86104249947309,152.05158961471034 111.36104249947218,151.38171663358358 108.86104249944691,152.05158961461945 107.03091548048187,153.88171663351795 106.36104249935511,156.38171663351886 107.03091548039097,158.88171663354413 108.86104249928948,160.71184365250917 111.36104249929039,161.38171663363593" stroke="#ffa500" stroke-linecap="round" stroke-linejoin="round"/><polyline fill="none" points="-213.58998498502322,-53.63739572529116 -211.08998498499795,-54.30726870632702 -209.2598579660329,-56.137395725225524 -208.58998498490615,-58.63739572522643 -209.25985796594202,-61.13739572525169 -211.08998498484053,-62.96752274421674 -213.58998498484144,-63.637395725343495 -216.0899849848667,-62.96752274430763 -217.92011200383175,-61.13739572540913 -218.5899849849585,-58.63739572540822 -217.92011200392264,-56.13739572538296 -216.08998498502413,-54.307268706417915 -213.58998498502322,-53.63739572529116" stroke="#ffa500" stroke-linecap="round" stroke-linejoin="round"/><polyline fill="none" points="52.132677444563896,-102.1849158958437 54.632677444589156,-102.85478887687957 56.4628044635542,-104.68491589577806 57.132677444680965,-107.18491589577897 56.4628044636451,-109.68491589580424 54.6326774447466,-111.51504291476928 52.13267744474569,-112.18491589589604 49.63267744472043,-111.51504291486017 47.802550425755385,-109.68491589596168 47.13267744462862,-107.18491589596077 47.802550425664485,-104.6849158959355 49.63267744456299,-102.85478887697046 52.132677444563896,-102.1849158958437" stroke="#ffa500" stroke-linecap="round" stroke-linejoin="round"/><polyline fill="none" points="-286.4743485735853,132.62869761420026 -283.97434857356006,131.9588246331644 -282.144221554595,130.1286976142659 -281.4743485734682,127.62869761426498 -282.14422155450404,125.12869761423971 -283.97434857340255,123.29857059527467 -286.47434857340346,122.6286976141479 -288.9743485734287,123.29857059518376 -290.80447559239377,125.12869761408226 -291.47434857352056,127.62869761408317 -290.8044755924847,130.12869761410843 -288.9743485735862,131.95882463307348 -286.4743485735853,132.62869761420023" stroke="#ffa500" stroke-linecap="round" stroke-linejoin="round"/><polyline fill="none" points="-15.828688659139155,-87.93162203750262 -13.32868865911389,-88.60149501853849 -11.498561640148843,-90.43162203743698 -10.828688659022076,-92.93162203743789 -11.498561640057934,-95.43162203746316 -13.328688658956432,-97.2617490564282 -15.82868865895734,-97.93162203755497 -18.328688658982607,-97.26174905651912 -20.158815677947654,-95.43162203762063 -20.828688659074423,-92.93162203761972 -20.158815678038565,-90.43162203759445 -18.328688659140067,-88.60149501862941 -15.82868865913916,-87.93162203750263" stroke="#ffa500" stroke-linecap="round" stroke-linejoin="round"/><polyline fill="none" points="-380.4965303818773,-120.12665312950305 -377.99653038185204,-120.7965261105389 -376.16640336288697,-122.6266531294374 -375.4965303817602,-125.12665312943831 -376.166403362796,-127.62665312946358 -377.9965303816945,-129.45678014842863 -380.49653038169544,-130.1266531295554 -382.99653038172073,-129.45678014851953 -384.8266574006858,-127.62665312962103 -385.4965303818126,-125.12665312962012 -384.82665740077675,-122.62665312959486 -382.99653038187824,-120.7965261106298 -380.49653038187734,-120.12665312950303" stroke="#008000" stroke-linecap="round" stroke-linejoin="round"/><polyline fill="none" points="-196.06435425787421,39.08661545259694 -193.56435425784895,38.416742471561086 -191.7342272388839,36.58661545266259 -191.06435425775712,34.08661545266168 -191.73422723879298,31.586615452636416 -193.5643542576915,29.75648843367136 -196.0643542576924,29.086615452544585 -198.56435425771767,29.756488433580436 -200.3944812766827,31.58661545247893 -201.0643542578095,34.08661545247984 -200.39448127677363,36.58661545250511 -198.56435425787515,38.416742471470165 -196.06435425787424,39.08661545259694" stroke="#00f" stroke-linecap="round" stroke-linejoin="round"/><polyline fill="none" points="-160.81704352953335,-55.47032502785976 -158.31704352950808,-56.14019800889561 -156.48691651054304,-57.970325027794104 -155.81704352941625,-60.47032502779501 -156.4869165104521,-62.97032502782028 -158.31704352935057,-64.80045204678534 -160.81704352935148,-65.47032502791211 -163.31704352937675,-64.80045204687626 -165.1471705483418,-62.970325027977765 -165.81704352946858,-60.470325027976855 -165.14717054843274,-57.97032502795158 -163.31704352953426,-56.14019800898652 -160.81704352953335,-55.470325027859744" stroke="#ffa500" stroke-linecap="round" stroke-linejoin="round"/><polyline fill="none" points="67.64192119257721,147.24627152111475 70.14192119260248,146.5763985400789 71.97204821156754,144.74627152118043 72.64192119269433,142.24627152117952 71.97204821165847,139.74627152115426 70.14192119275998,137.91614450218918 67.64192119275907,137.2462715210624 65.1419211927338,137.91614450209823 63.311794173768746,139.74627152099671 62.641921192641966,142.24627152099762 63.31179417367781,144.7462715210229 65.1419211925763,146.57639853998796 67.64192119257721,147.24627152111475" stroke="#00f" stroke-linecap="round" stroke-linejoin="round"/><polyline fill="none" points="-476.1396176356952,-85.36767557070898 -473.6396176356699,-86.03754855174483 -471.8094906167048,-87.86767557064333 -471.139617635578,-90.36767557064424 -471.80949061661386,-92.8676755706695 -473.63961763551237,-94.69780258963456 -476.1396176355133,-95.36767557076135 -478.63961763553857,-94.6978025897255 -480.46974465450364,-92.867675570827 -481.13961763563043,-90.3676755708261 -480.4697446545946,-87.86767557080083 -478.6396176356961,-86.03754855183577 -476.1396176356952,-85.36767557070898" stroke="#ffa500" stroke-linecap="round" stroke-linejoin="round"/><polyline fill="none" points="-250.12457878351393,40.95574829947685 -247.62457878348866,40.28587531844101 -245.7944517645236,38.45574829954252 -245.1245787833968,35.95574829954161 -245.79445176443264,33.45574829951634 -247.62457878333112,31.62562128055127 -250.12457878333203,30.955748299424485 -252.6245787833573,31.62562128046033 -254.45470580232237,33.45574829935882 -255.12457878344915,35.955748299359726 -254.45470580241332,38.455748299385 -252.62457878351483,40.285875318350065 -250.12457878351393,40.95574829947685" stroke="#ffa500" stroke-linecap="round" stroke-linejoin="round"/><polyline fill="none" points="-290.8477847138528,28.861686574016474 -288.3477847138275,28.191813592980633 -286.5176576948624,26.361686574082146 -285.8477847137356,23.86168657408124 -286.51765769477146,21.361686574055962 -288.34778471366997,19.531559555090897 -290.8477847136709,18.861686573964107 -293.34778471369617,19.531559554999948 -295.17791173266124,21.361686573898435 -295.84778471378803,23.86168657389934 -295.1779117327522,26.36168657392462 -293.3477847138537,28.191813592889684 -290.8477847138528,28.861686574016474" stroke="#ffa500" stroke-linecap="round" stroke-linejoin="round"/><polyline fill="none" points="-256.9624454176497,-137.51135675575838 -254.46244541762442,-138.18122973679422 -252.63231839865935,-140.0113567556927 -251.96244541753256,-142.5113567556936 -252.6323183985684,-145.01135675571888 -254.46244541746688,-146.84148377468395 -256.9624454174678,-147.51135675581074 -259.4624454174931,-146.8414837747749 -261.29257243645816,-145.01135675587642 -261.96244541758495,-142.5113567558755 -261.2925724365491,-140.01135675585024 -259.4624454176506,-138.18122973688517 -256.9624454176497,-137.51135675575838" stroke="#008000" stroke-linecap="round" stroke-linejoin="round"/><polyline fill="none" points="-418.0841558023576,-160.8312314884463 -415.5841558023323,-161.50110446948213 -413.75402878336723,-163.3312314883806 -413.08415580224045,-165.83123148838152 -413.7540287832763,-168.3312314884068 -415.5841558021748,-170.16135850737186 -418.0841558021757,-170.83123148849864 -420.584155802201,-170.1613585074628 -422.41428282116607,-168.33123148856433 -423.08415580229286,-165.83123148856342 -422.414282821257,-163.33123148853815 -420.5841558023585,-161.50110446957308 -418.0841558023576,-160.8312314884463" stroke="#ffa500" stroke-linecap="round" stroke-linejoin="round"/><polyline fill="none" points="-331.1883397004384,-173.23187802026533 -328.6883397004131,-173.90175100130116 -326.85821268144804,-175.73187802019964 -326.18833970032125,-178.23187802020055 -326.8582126813571,-180.73187802022585 -328.6883397002556,-182.56200503919092 -331.1883397002565,-183.2318780203177 -333.6883397002818,-182.56200503928187 -335.5184667192469,-180.7318780203834 -336.18833970037366,-178.23187802038248 -335.5184667193378,-175.73187802035721 -333.6883397004393,-173.90175100139214 -331.1883397004384,-173.23187802026536" stroke="#00f" stroke-linecap="round" stroke-linejoin="round"/><polyline fill="none" points="-52.608805401837245,-189.65295795175615 -50.10880540181196,-190.322830932792 -48.27867838284689,-192.15295795169047 -47.60880540172009,-194.65295795169138 -48.27867838275592,-197.15295795171667 -50.10880540165441,-198.98308497068174 -52.60880540165532,-199.65295795180853 -55.1088054016806,-198.9830849707727 -56.93893242064568,-197.1529579518742 -57.60880540177248,-194.6529579518733 -56.93893242073665,-192.152957951848 -55.10880540183817,-190.32283093288294 -52.60880540183726,-189.65295795175615" stroke="#00f" stroke-linecap="round" stroke-linejoin="round"/><polyline fill="none" points="-393.05087460761223,-78.09922948404258 -390.55087460758693,-78.76910246507842 -388.72074758862186,-80.5992294839769 -388.0508746074951,-83.09922948397781 -388.7207475885309,-85.59922948400309 -390.5508746074294,-87.42935650296816 -393.05087460743033,-88.09922948409496 -395.5508746074556,-87.42935650305913 -397.3810016264207,-85.59922948416065 -398.0508746075475,-83.09922948415974 -397.38100162651165,-80.59922948413445 -395.55087460761314,-78.76910246516937 -393.05087460761223,-78.09922948404257" stroke="#00f" stroke-linecap="round" stroke-linejoin="round"/><polyline fill="none" points="39.101493697898356,112.30849064945757 41.601493697923644,111.63861766842174 43.43162071688872,109.80849064952326 44.101493698015524,107.30849064952235 43.431620716979694,104.80849064949707 41.601493698081214,102.97836363053199 39.101493698080304,102.30849064940519 36.601493698055016,102.97836363044101 34.77136667908994,104.80849064933949 34.10149369796313,107.3084906493404 34.77136667899896,109.80849064936568 36.60149369789744,111.63861766833077 39.10149369789835,112.30849064945757" stroke="#ffa500" stroke-linecap="round" stroke-linejoin="round"/><polyline fill="none" points="-339.25661784211707,-48.506349527319074 -336.75661784209177,-49.176222508354904 -334.9264908231267,-51.006349527253384 -334.2566178419999,-53.506349527254294 -334.92649082303575,-56.00634952727958 -336.75661784193426,-57.83647654624467 -339.25661784193517,-58.506349527371476 -341.75661784196046,-57.83647654633565 -343.58674486092553,-56.00634952743717 -344.2566178420523,-53.506349527436264 -343.5867448610165,-51.006349527410975 -341.75661784211803,-49.17622250844589 -339.2566178421171,-48.50634952731908" stroke="#008000" stroke-linecap="round" stroke-linejoin="round"/><polyline fill="none" points="-60.08727719129469,14.70332990735453 -57.5872771912694,14.033456926318705 -55.757150172304314,12.203329907420226 -55.087277191177506,9.703329907419317 -55.75715017221333,7.203329907394028 -57.58727719111181,5.373202888428942 -60.08727719111272,4.703329907302132 -62.58727719113801,5.373202888337955 -64.41740421010309,7.203329907236434 -65.0872771912299,9.703329907237343 -64.41740421019408,12.203329907262633 -62.5872771912956,14.03345692622772 -60.08727719129469,14.703329907354531" stroke="#ffa500" stroke-linecap="round" stroke-linejoin="round"/><polyline fill="none" points="70.7036549959811,-271.6165206190983 73.20365499600639,-272.28639360013415 75.03378201497148,-274.1165206190326 75.7036549960983,-276.6165206190335 75.03378201506247,-279.1165206190588 73.20365499616399,-280.9466476380239 70.70365499616308,-281.61652061915066 68.20365499613779,-280.9466476381148 66.3735279771727,-279.1165206192164 65.70365499604588,-276.61652061921546 66.37352797708171,-274.11652061919017 68.20365499598019,-272.2863936002251 70.7036549959811,-271.6165206190983" stroke="#ffa500" stroke-linecap="round" stroke-linejoin="round"/><polyline fill="none" points="62.1222145710019,298.8564106481465 64.62221457102719,298.18653766711066 66.45234158999227,296.3564106482122 67.12221457111909,293.8564106482113 66.45234159008326,291.356410648186 64.62221457118478,289.5262836292209 62.122214571183875,288.8564106480941 59.62221457115858,289.5262836291299 57.792087552193486,291.3564106480284 57.12221457106667,293.8564106480293 57.79208755210249,296.3564106480546 59.62221457100096,298.18653766701965 62.12221457100187,298.8564106481465" stroke="#ffa500" stroke-linecap="round" stroke-linejoin="round"/><polyline fill="none" points="222.00349016077053,-156.58012473333042 224.50349016079582,-157.24999771436623 226.33361717976092,-159.0801247332647 227.00349016088774,-161.58012473326562 226.33361717985193,-164.08012473329092 224.50349016095345,-165.91025175225602 222.00349016095254,-166.58012473338283 219.50349016092724,-165.91025175234702 217.67336314196214,-164.08012473344854 217.00349016083533,-161.58012473344763 217.67336314187114,-159.08012473342234 219.50349016076962,-157.24999771445724 222.00349016077053,-156.58012473333042" stroke="#ffa500" stroke-linecap="round" stroke-linejoin="round"/><polyline fill="none" points="-28.40030331371434,-184.88019352460103 -25.900303313689044,-185.55006650563683 -24.07017629472395,-187.38019352453531 -23.400303313597128,-189.88019352453622 -24.07017629463294,-192.38019352456152 -25.900303313531413,-194.21032054352662 -28.400303313532323,-194.88019352465344 -30.900303313557618,-194.21032054361763 -32.730430332522715,-192.38019352471915 -33.40030331364954,-189.88019352471824 -32.73043033261373,-187.38019352469294 -30.900303313715256,-185.55006650572784 -28.400303313714346,-184.88019352460103" stroke="#ffa500" stroke-linecap="round" stroke-linejoin="round"/><polyline fill="none" points="-48.69822803976391,-139.7287300562562 -46.198228039738616,-140.39860303729202 -44.368101020773516,-142.2287300561905 -43.69822803964669,-144.7287300561914 -44.3681010206825,-147.2287300562167 -46.198228039580975,-149.0588570751818 -48.698228039581885,-149.72873005630862 -51.19822803960718,-149.0588570752728 -53.02835505857228,-147.22873005637433 -53.6982280396991,-144.72873005637342 -53.028355058663294,-142.22873005634813 -51.19822803976482,-140.39860303738303 -48.69822803976391,-139.7287300562562" stroke="#00f" stroke-linecap="round" stroke-linejoin="round"/><polyline fill="none" points="174.4902192626542,-168.25176259204542 176.9902192626795,-168.92163557308123 178.8203462816446,-170.7517625919797 179.4902192627714,-173.25176259198062 178.8203462817356,-175.75176259200592 176.99021926283712,-177.58188961097102 174.4902192628362,-178.25176259209783 171.9902192628109,-177.58188961106202 170.1600922438458,-175.75176259216354 169.490219262719,-173.25176259216263 170.1600922437548,-170.75176259213734 171.99021926265328,-168.92163557317224 174.4902192626542,-168.25176259204542" stroke="#00f" stroke-linecap="round" stroke-linejoin="round"/><polyline fill="none" points="-436.1149151778409,-73.04410332056628 -433.6149151778156,-73.71397630160209 -431.78478815885046,-75.54410332050055 -431.1149151777236,-78.04410332050146 -431.7847881587594,-80.54410332052676 -433.61491517765785,-82.37423033949186 -436.11491517765876,-83.04410332061869 -438.61491517768405,-82.37423033958288 -440.4450421966492,-80.54410332068441 -441.114915177776,-78.0441033206835 -440.44504219674025,-75.54410332065821 -438.6149151778418,-73.71397630169311 -436.1149151778409,-73.04410332056628" stroke="#00f" stroke-linecap="round" stroke-linejoin="round"/><polyline fill="none" points="72.34315924076073,-154.96800262387032 74.84315924078602,-155.63787560490613 76.67328625975112,-157.4680026238046 77.34315924087795,-159.96800262380552 76.67328625984214,-162.4680026238308 74.84315924094368,-164.2981296427959 72.34315924094277,-164.96800262392276 69.84315924091747,-164.29812964288695 68.01303222195237,-162.46800262398847 67.34315924082554,-159.96800262398756 68.01303222186135,-157.46800262396226 69.84315924075982,-155.63787560499716 72.34315924076073,-154.96800262387032" stroke="#00f" stroke-linecap="round" stroke-linejoin="round"/><polyline fill="none" points="-392.3370463625436,-162.50684383873252 -389.8370463625183,-163.17671681976833 -388.0069193435532,-165.0068438386668 -387.33704636242635,-167.50684383866772 -388.00691934346213,-170.00684383869302 -389.8370463623606,-171.83697085765812 -392.3370463623615,-172.50684383878496 -394.8370463623868,-171.83697085774915 -396.6671733813519,-170.0068438388507 -397.33704636247876,-167.5068438388498 -396.667173381443,-165.0068438388245 -394.8370463625445,-163.1767168198594 -392.3370463625436,-162.50684383873255" stroke="#ffa500" stroke-linecap="round" stroke-linejoin="round"/><polyline fill="none" points="-316.592175286897,108.31780052453787 -314.0921752868717,107.64792754350208 -312.26204826790655,105.81780052460361 -311.5921752867797,103.3178005246027 -312.2620482678155,100.8178005245774 -314.09217528671394,98.98767350561228 -316.59217528671485,98.31780052448543 -319.09217528674014,98.98767350552123 -320.9223023057053,100.8178005244197 -321.5921752868321,103.3178005244206 -320.92230230579634,105.81780052444591 -319.0921752868979,107.64792754341103 -316.592175286897,108.31780052453787" stroke="#ffa500" stroke-linecap="round" stroke-linejoin="round"/><polyline fill="none" points="-304.255634149458,-34.31965280054224 -301.7556341494327,-34.98952578157803 -299.92550713046757,-36.8196528004765 -299.2556341493407,-39.31965280047741 -299.9255071303765,-41.81965280050271 -301.75563414927495,-43.649779819467824 -304.25563414927586,-44.31965280059467 -306.75563414930116,-43.64977981955887 -308.5857611682663,-41.81965280066041 -309.25563414939313,-39.3196528006595 -308.58576116835735,-36.819652800634195 -306.7556341494589,-34.98952578166908 -304.255634149458,-34.31965280054224" stroke="#00f" stroke-linecap="round" stroke-linejoin="round"/><polyline fill="none" points="-339.39776517079594,-90.49536366774821 -336.89776517077064,-91.165236648784 -335.0676381518055,-92.99536366768247 -334.39776517067867,-95.49536366768338 -335.06763815171445,-97.99536366770869 -336.8977651706129,-99.8254906866738 -339.3977651706138,-100.49536366780065 -341.8977651706391,-99.82549068676485 -343.72789218960423,-97.99536366786639 -344.3977651707311,-95.49536366786548 -343.7278921896953,-92.99536366784017 -341.89776517079684,-91.16523664887505 -339.39776517079594,-90.49536366774821" stroke="#008000" stroke-linecap="round" stroke-linejoin="round"/><polyline fill="none" points="153.98491211975735,-118.70662386239816 156.48491211978265,-119.37649684343396 158.31503913874778,-121.20662386233242 158.98491211987462,-123.70662386233333 158.31503913883884,-126.20662386235864 156.4849121199404,-128.03675088132377 153.98491211993948,-128.7066238624506 151.48491211991418,-128.03675088141483 149.65478510094906,-126.20662386251637 148.9849121198222,-123.70662386251546 149.654785100858,-121.20662386249015 151.48491211975644,-119.37649684352503 153.98491211975735,-118.70662386239819" stroke="#ffa500" stroke-linecap="round" stroke-linejoin="round"/><polyline fill="none" points="93.18290874705535,-229.16013473865715 95.68290874708066,-229.83000771969293 97.51303576604577,-231.66013473859138 98.18290874717262,-234.1601347385923 97.51303576613682,-236.6601347386176 95.68290874723836,-238.49026175758272 93.18290874723745,-239.16013473870956 90.68290874721214,-238.49026175767378 88.85278172824702,-236.66013473877533 88.18290874712018,-234.16013473877442 88.85278172815597,-231.6601347387491 90.68290874705443,-229.83000771978396 93.18290874705534,-229.16013473865712" stroke="#ffa500" stroke-linecap="round" stroke-linejoin="round"/><polyline fill="none" points="-356.2658762041154,-161.54728459616868 -353.7658762040901,-162.21715757720446 -351.93574918512496,-164.0472845961029 -351.2658762039981,-166.54728459610382 -351.9357491850339,-169.04728459612915 -353.76587620393235,-170.87741161509427 -356.26587620393326,-171.54728459622112 -358.76587620395856,-170.87741161518534 -360.5960032229237,-169.0472845962869 -361.2658762040505,-166.54728459628598 -360.59600322301475,-164.04728459626065 -358.7658762041163,-162.21715757729552 -356.2658762041154,-161.54728459616868" stroke="#00f" stroke-linecap="round" stroke-linejoin="round"/><polyline fill="none" points="25.96378178178132,-176.46316429278832 28.46378178180663,-177.1330372738241 30.293908800771757,-178.96316429272255 30.96378178189861,-181.46316429272346 30.293908800862827,-183.9631642927488 28.46378178196437,-185.79329131171392 25.963781781963462,-186.46316429284076 23.46378178193815,-185.79329131180498 21.633654762973023,-183.96316429290653 20.96378178184617,-181.46316429290562 21.633654762881953,-178.9631642928803 23.46378178178041,-177.13303727391516 25.963781781781318,-176.46316429278832" stroke="#00f" stroke-linecap="round" stroke-linejoin="round"/><polyline fill="none" points="8.056970078885549,-130.7980640479831 10.556970078910862,-131.46793702901888 12.387097097875989,-133.29806404791734 13.056970079002847,-135.79806404791825 12.387097097967064,-138.29806404794357 10.55697007906861,-140.1281910669087 8.0569700790677,-140.79806404803554 5.556970079042387,-140.12819106699976 3.726843060077259,-138.2980640481013 3.0569700789504006,-135.7980640481004 3.726843059986182,-133.29806404807508 5.556970078884636,-131.46793702910995 8.056970078885545,-130.79806404798308" stroke="#ffa500" stroke-linecap="round" stroke-linejoin="round"/><polyline fill="none" points="-279.44498065468525,75.57490834888115 -276.94498065465996,74.90503536784537 -275.11485363569483,73.07490834894692 -274.444980654568,70.57490834894601 -275.11485363560377,68.0749083489207 -276.9449806545022,66.24478132995557 -279.4449806545031,65.57490834882871 -281.9449806545284,66.2447813298645 -283.77510767349355,68.07490834876295 -284.4449806546204,70.57490834876386 -283.7751076735846,73.07490834878917 -281.94498065468616,74.9050353677543 -279.44498065468525,75.57490834888115" stroke="#ffa500" stroke-linecap="round" stroke-linejoin="round"/><polyline fill="none" points="-362.6349994965472,-120.1119561295885 -360.1349994965219,-120.78182911062429 -358.3048724775568,-122.61195612952274 -357.63499949642994,-125.11195612952365 -358.3048724774657,-127.61195612954896 -360.1349994963642,-129.4420831485141 -362.6349994963651,-130.11195612964096 -365.1349994963904,-129.44208314860518 -366.9651265153555,-127.61195612970673 -367.63499949648235,-125.11195612970582 -366.96512651544657,-122.61195612968051 -365.1349994965481,-120.78182911071538 -362.6349994965472,-120.11195612958852" stroke="#008000" stroke-linecap="round" stroke-linejoin="round"/><polyline fill="none" points="-256.37401729134785,-89.02768104861154 -253.87401729132253,-89.69755402964732 -252.0438902723574,-91.52768104854577 -251.37401729123053,-94.02768104854668 -252.0438902722663,-96.527681048572 -253.87401729116476,-98.35780806753714 -256.37401729116567,-99.02768104866401 -258.87401729119097,-98.35780806762823 -260.7041443101561,-96.52768104872978 -261.37401729128294,-94.02768104872887 -260.70414431024716,-91.52768104870354 -258.8740172913487,-89.69755402973841 -256.3740172913478,-89.02768104861154" stroke="#ffa500" stroke-linecap="round" stroke-linejoin="round"/><polyline fill="none" points="-265.34039339583467,-138.69239451135874 -262.8403933958094,-139.36226749239452 -261.01026637684424,-141.19239451129297 -260.3403933957174,-143.69239451129388 -261.0102663767532,-146.1923945113192 -262.84039339565163,-148.02252153028434 -265.34039339565254,-148.6923945114112 -267.84039339567784,-148.02252153037543 -269.67052041464297,-146.19239451147698 -270.3403933957698,-143.69239451147607 -269.670520414734,-141.19239451145074 -267.8403933958356,-139.3622674924856 -265.34039339583467,-138.69239451135874" stroke="#ffa500" stroke-linecap="round" stroke-linejoin="round"/><polyline fill="none" points="-310.84248934830737,-137.4044424433871 -308.3424893482821,-138.07431542442288 -306.51236232931694,-139.90444244332133 -305.8424893481901,-142.40444244332224 -306.5123623292259,-144.90444244334756 -308.34248934812433,-146.7345694623127 -310.84248934812524,-147.40444244343956 -313.34248934815054,-146.73456946240378 -315.17261636711567,-144.90444244350533 -315.8424893482425,-142.40444244350442 -315.17261636720673,-139.9044424434791 -313.3424893483083,-138.07431542451397 -310.84248934830737,-137.4044424433871" stroke="#00f" stroke-linecap="round" stroke-linejoin="round"/><polyline fill="none" points="100.58671017707066,269.7818241791257 103.08671017709598,269.1119511980899 104.91683719606112,267.28182417919146 105.586710177188,264.78182417919055 104.91683719615223,262.28182417916526 103.08671017725378,260.4516971602001 100.58671017725287,259.7818241790732 98.08671017722754,260.451697160109 96.2565831582624,262.28182417900746 95.58671017713553,264.78182417900837 96.2565831581713,267.28182417903366 98.08671017706975,269.1119511979988 100.58671017707066,269.7818241791257" stroke="#ffa500" stroke-linecap="round" stroke-linejoin="round"/><polyline fill="none" points="-263.72830494983725,-33.79676361305626 -261.22830494981196,-34.46663659409202 -259.3981779308468,-36.29676361299047 -258.7283049497199,-38.79676361299138 -259.3981779307557,-41.2967636130167 -261.22830494965416,-43.126890631981844 -263.72830494965507,-43.79676361310872 -266.22830494968036,-43.12689063207296 -268.0584319686455,-41.29676361317451 -268.7283049497724,-38.7967636131736 -268.0584319687366,-36.29676361314828 -266.22830494983816,-34.466636594183136 -263.72830494983725,-33.79676361305626" stroke="#ffa500" stroke-linecap="round" stroke-linejoin="round"/></svg>