<?xml version="1.0" ?><!DOCTYPE svg  PUBLIC '-//W3C//DTD SVG 1.1//EN'  'http://www.w3.org/Graphics/SVG/1.1/DTD/svg11.dtd'><svg height="310.000" viewBox="-422.000 -222.000 850.000 310.000" width="850.000" xmlns="http://www.w3.org/2000/svg"><line fill="none" stroke="none" stroke-linecap="round" stroke-width="2.0" x1="0.0" x2="0.0" y1="0.0" y2="0.0"/><polygon fill="none" fill-rule="evenodd" points="0.0,0.0 0.0,0.0 0.0,0.0" stroke-linejoin="round"/><polyline fill="none" points="-403.4474190363698,-157.3729798846046 -400.9474190363446,-158.0428528656406 -399.1172920173797,-159.8729798845392 -398.44741903625317,-162.37297988454011 -399.1172920172892,-164.87297988456527 -400.94741903618774,-166.70310690353014 -403.44741903618865,-167.37297988465673 -405.94741903621383,-166.70310690362072 -407.77754605517873,-164.87297988472213 -408.4474190363053,-162.37297988472122 -407.7775460552693,-159.87297988469606 -405.9474190363707,-158.0428528657312 -403.4474190363698,-157.3729798846046" stroke="#00f" stroke-linecap="round" stroke-linejoin="round"/><polyline fill="none" points="-365.8398497304401,-180.49848341704416 -363.3398497304149,-181.16835639808016 -361.50972271145,-182.99848341697876 -360.83984973032346,-185.49848341697967 -361.5097227113595,-187.99848341700482 -363.33984973025804,-189.8286104359697 -365.83984973025895,-190.49848341709628 -368.33984973028413,-189.82861043606027 -370.16997674924903,-187.99848341716168 -370.8398497303756,-185.49848341716077 -370.1699767493396,-182.9984834171356 -368.339849730441,-181.16835639817072 -365.8398497304401,-180.49848341704413" stroke="#008000" stroke-linecap="round" stroke-linejoin="round"/><polyline fill="none" points="-281.75666603358786,-142.33989555121337 -279.2566660335627,-143.00976853224938 -277.4265390145978,-144.83989555114798 -276.7566660334712,-147.33989555114889 -277.4265390145072,-149.83989555117407 -279.2566660334058,-151.67002257013894 -281.7566660334067,-152.33989555126553 -284.2566660334319,-151.67002257022952 -286.0867930523968,-149.83989555133093 -286.75666603352335,-147.33989555133002 -286.08679305248734,-144.83989555130483 -284.2566660335888,-143.00976853233993 -281.75666603358786,-142.33989555121335" stroke="#ffa500" stroke-linecap="round" stroke-linejoin="round"/><polyline fill="none" points="-373.28928953399674,-173.28838500145505 -370.78928953397156,-173.95825798249106 -368.95916251500665,-175.78838500138966 -368.2892895338801,-178.28838500139057 -368.9591625149161,-180.78838500141575 -370.78928953381467,-182.61851202038065 -373.2892895338156,-183.28838500150724 -375.78928953384076,-182.61851202047123 -377.61941655280566,-180.78838500157264 -378.2892895339323,-178.28838500157173 -377.61941655289627,-175.78838500154654 -375.7892895339977,-173.95825798258164 -373.2892895339968,-173.28838500145505" stroke="#008000" stroke-linecap="round" stroke-linejoin="round"/><polyline fill="none" points="-389.65730084716193,-134.44088072694754 -387.15730084713675,-135.11075370798355 -385.32717382817185,-136.94088072688214 -384.65730084704524,-139.44088072688305 -385.32717382808124,-141.94088072690823 -387.1573008469798,-143.77100774587313 -389.6573008469807,-144.44088072699972 -392.1573008470059,-143.77100774596371 -393.9874278659708,-141.94088072706512 -394.6573008470974,-139.4408807270642 -393.9874278660614,-136.94088072703903 -392.15730084716284,-135.11075370807413 -389.65730084716193,-134.44088072694754" stroke="#00f" stroke-linecap="round" stroke-linejoin="round"/><polyline fill="none" points="-405.7563914769174,-201.40176525827997 -403.2563914768922,-202.07163823931597 -401.4262644579273,-203.90176525821457 -400.7563914768007,-206.40176525821548 -401.4262644578367,-208.90176525824066 -403.25639147673525,-210.73189227720556 -405.75639147673616,-211.40176525833215 -408.25639147676134,-210.73189227729614 -410.08651849572624,-208.90176525839757 -410.75639147685285,-206.40176525839667 -410.08651849581685,-203.90176525837148 -408.2563914769183,-202.07163823940658 -405.7563914769174,-201.40176525828" stroke="#00f" stroke-linecap="round" stroke-linejoin="round"/><polyline fill="none" points="394.7058345283032,-157.81349723075283 397.2058345283284,-158.48337021178884 399.0359615472933,-160.3134972306874 399.7058345284199,-162.8134972306883 399.0359615473839,-165.3134972307135 397.20583452848535,-167.1436242496784 394.70583452848444,-167.81349723080498 392.20583452845926,-167.14362424976898 390.37570750949436,-165.3134972308704 389.70583452836775,-162.8134972308695 390.37570750940375,-160.31349723084432 392.2058345283023,-158.48337021187942 394.7058345283032,-157.81349723075283" stroke="#ffa500" stroke-linecap="round" stroke-linejoin="round"/><polyline fill="none" points="-373.94661978452217,-138.27289675524753 -371.446619784497,-138.94276973628354 -369.6164927655321,-140.7728967551821 -368.94661978440547,-143.272896755183 -369.6164927654415,-145.7728967552082 -371.44661978434004,-147.6030237741731 -373.94661978434095,-148.27289675529968 -376.44661978436613,-147.60302377426368 -378.27674680333104,-145.7728967553651 -378.94661978445765,-143.2728967553642 -378.27674680342164,-140.77289675533902 -376.4466197845231,-138.94276973637412 -373.94661978452217,-138.27289675524753" stroke="#00f" stroke-linecap="round" stroke-linejoin="round"/><polyline fill="none" points="73.73379532107342,-51.135604422534435 76.2337953210986,-51.805477403570436 78.0639223400635,-53.635604422469015 78.7337953211901,-56.13560442246992 78.06392234015411,-58.63560442249509 76.23379532125553,-60.465731441459994 73.73379532125463,-61.135604422586596 71.23379532122945,-60.465731441550595 69.40366830226455,-58.63560442265202 68.73379532113795,-56.13560442265112 69.40366830217394,-53.635604422625946 71.23379532107252,-51.805477403661044 73.73379532107342,-51.13560442253444" stroke="#ffa500" stroke-linecap="round" stroke-linejoin="round"/><polyline fill="none" points="411.35153783770033,-180.65776565235103 413.8515378377255,-181.32763863338704 415.6816648566904,-183.1577656522856 416.35153783781703,-185.6577656522865 415.681664856781,-188.1577656523117 413.85153783788246,-189.9878926712766 411.35153783788155,-190.6577656524032 408.85153783785637,-189.9878926713672 407.02141081889147,-188.15776565246864 406.35153783776485,-185.65776565246773 407.02141081880086,-183.15776565244255 408.8515378376994,-181.32763863347765 411.35153783770033,-180.65776565235103" stroke="#00f" stroke-linecap="round" stroke-linejoin="round"/><polyline fill="none" points="-387.67888036136486,-193.13309610356944 -385.1788803613397,-193.80296908460545 -383.3487533423748,-195.63309610350402 -382.67888036124816,-198.13309610350493 -383.34875334228417,-200.6330961035301 -385.17888036118273,-202.463223122495 -387.67888036118364,-203.13309610362163 -390.1788803612088,-202.46322312258562 -392.0090073801737,-200.63309610368705 -392.67888036130034,-198.13309610368614 -392.00900738026434,-195.63309610366096 -390.17888036136577,-193.80296908469606 -387.67888036136486,-193.13309610356944" stroke="#00f" stroke-linecap="round" stroke-linejoin="round"/><polyline fill="none" points="-315.08411187980903,-111.78782436108158 -312.58411187978385,-112.45769734211757 -310.75398486081895,-114.28782436101613 -310.08411187969233,-116.78782436101703 -310.75398486072834,-119.28782436104221 -312.5841118796269,-121.11795138000713 -315.0841118796278,-121.78782436113374 -317.584111879653,-121.11795138009775 -319.4142388986179,-119.28782436119918 -320.0841118797445,-116.78782436119829 -319.4142388987085,-114.28782436117311 -317.58411187980994,-112.45769734220819 -315.08411187980903,-111.78782436108158" stroke="#00f" stroke-linecap="round" stroke-linejoin="round"/><polyline fill="none" points="-343.8513262672438,-167.05825519862609 -341.3513262672186,-167.72812817966206 -339.5211992482537,-169.55825519856063 -338.8513262671271,-172.05825519856154 -339.5211992481631,-174.55825519858672 -341.35132626706167,-176.38838221755162 -343.8513262670626,-177.05825519867824 -346.35132626708776,-176.38838221764226 -348.18145328605266,-174.5582551987437 -348.8513262671793,-172.05825519874278 -348.18145328614327,-169.5582551987176 -346.3513262672447,-167.7281281797527 -343.8513262672438,-167.05825519862609" stroke="#ffa500" stroke-linecap="round" stroke-linejoin="round"/><polyline fill="none" points="-284.1772794206285,-57.12007154781063 -281.6772794206033,-57.78994452884662 -279.8471524016384,-59.62007154774519 -279.1772794205118,-62.12007154774609 -279.8471524015478,-64.62007154777127 -281.6772794204464,-66.45019856673619 -284.1772794204473,-67.1200715478628 -286.6772794204725,-66.45019856682681 -288.5074064394374,-64.62007154792825 -289.177279420564,-62.120071547927346 -288.507406439528,-59.62007154790216 -286.6772794206294,-57.78994452893724 -284.1772794206285,-57.120071547810625" stroke="#ffa500" stroke-linecap="round" stroke-linejoin="round"/><polyline fill="none" points="-292.6073488944353,-136.63205561166856 -290.1073488944101,-137.30192859270454 -288.2772218754452,-139.1320556116031 -287.6073488943186,-141.63205561160402 -288.2772218753546,-144.1320556116292 -290.10734889425316,-145.9621826305941 -292.6073488942541,-146.63205561172072 -295.10734889427926,-145.96218263068474 -296.93747591324416,-144.13205561178617 -297.6073488943708,-141.63205561178526 -296.93747591333477,-139.13205561176008 -295.1073488944362,-137.30192859279515 -292.6073488944353,-136.63205561166853" stroke="#ffa500" stroke-linecap="round" stroke-linejoin="round"/><polyline fill="none" points="-384.48340647994576,-195.8379574145167 -381.9834064799206,-196.50783039555267 -380.1532794609557,-198.33795741445124 -379.48340647982906,-200.83795741445215 -380.15327946086506,-203.33795741447733 -381.98340647976363,-205.16808443344226 -384.48340647976454,-205.83795741456888 -386.9834064797897,-205.1680844335329 -388.8135334987546,-203.33795741463433 -389.48340647988124,-200.83795741463342 -388.81353349884523,-198.33795741460824 -386.98340647994667,-196.5078303956433 -384.48340647994576,-195.8379574145167" stroke="#00f" stroke-linecap="round" stroke-linejoin="round"/><polyline fill="none" points="-314.7373104480479,-142.7163424448288 -312.2373104480227,-143.38621542586478 -310.4071834290578,-145.21634244476334 -309.7373104479312,-147.71634244476425 -310.4071834289672,-150.21634244478943 -312.23731044786575,-152.04646946375436 -314.73731044786666,-152.71634244488098 -317.23731044789184,-152.046469463845 -319.06743746685675,-150.21634244494643 -319.73731044798336,-147.71634244494552 -319.06743746694735,-145.21634244492034 -317.2373104480488,-143.3862154259554 -314.7373104480479,-142.7163424448288" stroke="#00f" stroke-linecap="round" stroke-linejoin="round"/><polyline fill="none" points="-311.26984395972147,-51.37427166139996 -308.7698439596963,-52.04414464243594 -306.9397169407314,-53.874271661334504 -306.26984395960477,-56.374271661335406 -306.9397169406407,-58.874271661360595 -308.7698439595393,-60.70439868032552 -311.2698439595402,-61.37427166145214 -313.7698439595654,-60.70439868041616 -315.5999709785303,-58.8742716615176 -316.2698439596569,-56.374271661516694 -315.59997097862095,-53.874271661491505 -313.7698439597224,-52.04414464252658 -311.26984395972147,-51.37427166139995" stroke="#ffa500" stroke-linecap="round" stroke-linejoin="round"/><polyline fill="none" points="-406.4279969184238,-197.43065067028763 -403.9279969183986,-198.1005236513236 -402.0978698994337,-199.93065067022218 -401.4279969183071,-202.4306506702231 -402.09786989934304,-204.93065067024827 -403.9279969182416,-206.7607776892132 -406.4279969182425,-207.43065067033982 -408.9279969182677,-206.76077768930384 -410.7581239372326,-204.93065067040527 -411.4279969183592,-202.43065067040436 -410.75812393732326,-199.93065067037918 -408.9279969184247,-198.10052365141425 -406.4279969184238,-197.43065067028763" stroke="#00f" stroke-linecap="round" stroke-linejoin="round"/><polyline fill="none" points="36.562930638322236,-58.368119810290466 39.06293063834743,-59.03799279132644 40.89305765731236,-60.868119810225004 41.56293063843899,-63.368119810225906 40.89305765740302,-65.8681198102511 39.062930638504454,-67.69824682921603 36.56293063850355,-68.36811981034266 34.062930638478356,-67.69824682930668 32.232803619513426,-65.86811981040812 31.562930638386792,-63.368119810407215 32.23280361942277,-60.86811981038202 34.06293063832133,-59.03799279141709 36.562930638322236,-58.36811981029046" stroke="#00f" stroke-linecap="round" stroke-linejoin="round"/><polyline fill="none" points="-326.14778967721526,-121.74766527705007 -323.6477896771901,-122.41753825808605 -321.8176626582251,-124.24766527698462 -321.1477896770985,-126.74766527698553 -321.81766265813445,-129.24766527701073 -323.647789677033,-131.07779229597566 -326.1477896770339,-131.7476652771023 -328.6477896770591,-131.07779229606632 -330.47791669602407,-129.24766527716775 -331.1477896771507,-126.74766527716685 -330.47791669611473,-124.24766527714165 -328.64778967721617,-122.41753825817672 -326.14778967721526,-121.74766527705009" stroke="#ffa500" stroke-linecap="round" stroke-linejoin="round"/><polyline fill="none" points="-374.855563065569,-143.30774140489964 -372.35556306554383,-143.97761438593562 -370.5254360465789,-145.8077414048342 -369.85556306545226,-148.3077414048351 -370.5254360464882,-150.8077414048603 -372.3555630653868,-152.63786842382524 -374.8555630653877,-153.30774140495188 -377.35556306541287,-152.6378684239159 -379.1856900843778,-150.80774140501734 -379.85556306550444,-148.30774140501643 -379.1856900844685,-145.80774140499122 -377.3555630655699,-143.9776143860263 -374.855563065569,-143.30774140489964" stroke="#ffa500" stroke-linecap="round" stroke-linejoin="round"/><polyline fill="none" points="-283.6340530757427,-134.2105962992532 -281.13405307571753,-134.8804692802892 -279.3039260567526,-136.71059629918776 -278.63405307562596,-139.21059629918867 -279.3039260566619,-141.71059629921388 -281.1340530755605,-143.5407233181788 -283.6340530755614,-144.21059629930545 -286.13405307558656,-143.54072331826947 -287.9641800945515,-141.7105962993709 -288.63405307567814,-139.21059629937 -287.9641800946422,-136.7105962993448 -286.1340530757436,-134.88046928037986 -283.6340530757427,-134.2105962992532" stroke="#ffa500" stroke-linecap="round" stroke-linejoin="round"/><polyline fill="none" points="-405.3294039625593,-153.34762220654451 -402.8294039625341,-154.0174951875805 -400.99927694356916,-155.84762220647906 -400.32940396244254,-158.34762220647997 -400.9992769434785,-160.84762220650518 -402.82940396237706,-162.6777492254701 -405.32940396237797,-163.34762220659675 -407.82940396240315,-162.6777492255608 -409.6595309813681,-160.84762220666224 -410.3294039624947,-158.34762220666133 -409.6595309814588,-155.84762220663612 -407.8294039625602,-154.0174951876712 -405.3294039625593,-153.34762220654454" stroke="#00f" stroke-linecap="round" stroke-linejoin="round"/><polyline fill="none" points="-213.14004693848338,46.40126674988907 -210.64004693845817,45.7313937688531 -208.80991991949324,43.901266749954544 -208.1400469383666,41.40126674995364 -208.80991991940255,38.90126674992844 -210.6400469383011,37.0711397309635 -213.14004693830202,36.40126674983686 -215.64004693832723,37.07113973087282 -217.47017395729216,38.90126674977138 -218.1400469384188,41.40126674977228 -217.47017395738285,43.901266749797486 -215.6400469384843,45.73139376876242 -213.14004693848338,46.40126674988907" stroke="#ffa500" stroke-linecap="round" stroke-linejoin="round"/><polyline fill="none" points="-296.48367297393486,-126.1933212111438 -293.9836729739097,-126.86319419217976 -292.1535459549447,-128.6933212110783 -291.48367297381805,-131.19332121107922 -292.153545954854,-133.69332121110443 -293.98367297375256,-135.52344823006936 -296.48367297375347,-136.193321211196 -298.98367297377865,-135.52344823016006 -300.8137999927436,-133.6933212112615 -301.4836729738703,-131.19332121126058 -300.81379999283433,-128.69332121123537 -298.98367297393577,-126.86319419227043 -296.48367297393486,-126.19332121114378" stroke="#ffa500" stroke-linecap="round" stroke-linejoin="round"/><polyline fill="none" points="381.14603020385573,-172.63630467665374 383.6460302038809,-173.3061776576897 385.47615722284587,-175.13630467658825 386.14603020397254,-177.63630467658916 385.4761572229366,-180.13630467661437 383.646030204038,-181.9664316955793 381.1460302040371,-182.63630467670595 378.64603020401194,-181.96643169567 376.815903185047,-180.13630467677143 376.1460302039203,-177.63630467677052 376.81590318495626,-175.1363046767453 378.6460302038548,-173.30617765778035 381.14603020385573,-172.6363046766537" stroke="#ffa500" stroke-linecap="round" stroke-linejoin="round"/><polyline fill="none" points="-317.22127235789134,-169.94412607576515 -314.72127235786616,-170.6139990568011 -312.8911453389012,-172.44412607569967 -312.2212723577745,-174.94412607570058 -312.8911453388105,-177.4441260757258 -314.72127235770904,-179.27425309469075 -317.22127235770995,-179.9441260758174 -319.72127235773513,-179.27425309478144 -321.5513993767001,-177.44412607588288 -322.22127235782676,-174.94412607588197 -321.5513993767908,-172.44412607585676 -319.72127235789225,-170.6139990568918 -317.22127235789134,-169.94412607576515" stroke="#ffa500" stroke-linecap="round" stroke-linejoin="round"/><polyline fill="none" points="-225.8309747411219,-91.69571584614026 -223.3309747410967,-92.36558882717621 -221.50084772213174,-94.19571584607476 -220.8309747410051,-96.69571584607567 -221.50084772204104,-99.19571584610088 -223.33097474093958,-101.02584286506583 -225.8309747409405,-101.69571584619248 -228.3309747409657,-101.02584286515653 -230.16110175993066,-99.19571584625798 -230.8309747410573,-96.69571584625707 -230.16110176002135,-94.19571584623186 -228.33097474112282,-92.36558882726692 -225.8309747411219,-91.69571584614026" stroke="#ffa500" stroke-linecap="round" stroke-linejoin="round"/><polyline fill="none" points="-354.75937904843806,-150.2688419211014 -352.2593790484129,-150.93871490213735 -350.4292520294479,-152.7688419210359 -349.75937904832125,-155.2688419210368 -350.4292520293572,-157.768841921062 -352.25937904825577,-159.59896894002696 -354.7593790482567,-160.2688419211536 -357.25937904828186,-159.59896894011766 -359.0895060672468,-157.76884192121912 -359.7593790483735,-155.2688419212182 -359.08950606733754,-152.768841921193 -357.259379048439,-150.93871490222804 -354.75937904843806,-150.26884192110137" stroke="#ffa500" stroke-linecap="round" stroke-linejoin="round"/><polyline fill="none" points="-280.54616560270233,-117.59717118845975 -278.04616560267715,-118.2670441694957 -276.2160385837122,-120.09717118839426 -275.5461656025855,-122.59717118839515 -276.21603858362147,-125.09717118842036 -278.04616560252003,-126.92729820738532 -280.54616560252094,-127.59717118851198 -283.0461656025461,-126.92729820747603 -284.8762926215111,-125.09717118857748 -285.54616560263776,-122.59717118857657 -284.8762926216018,-120.09717118855136 -283.04616560270324,-118.2670441695864 -280.54616560270233,-117.59717118845974" stroke="#ffa500" stroke-linecap="round" stroke-linejoin="round"/><polyline fill="none" points="-335.385904092323,-156.37023775008626 -332.88590409229784,-157.0401107311222 -331.0557770733329,-158.87023775002075 -330.3859040922062,-161.37023775002166 -331.05577707324215,-163.87023775004687 -332.8859040921407,-165.70036476901183 -335.38590409214163,-166.3702377501385 -337.8859040921668,-165.70036476910255 -339.71603111113177,-163.870237750204 -340.38590409225844,-161.3702377502031 -339.7160311112225,-158.8702377501779 -337.8859040923239,-157.04011073121293 -335.385904092323,-156.37023775008626" stroke="#00f" stroke-linecap="round" stroke-linejoin="round"/><polyline fill="none" points="-319.65766435581844,-62.59344005275747 -317.1576643557932,-63.263313033793416 -315.32753733682824,-65.09344005269196 -314.65766435570157,-67.59344005269287 -315.3275373367375,-70.09344005271808 -317.1576643556361,-71.92356707168304 -319.657664355637,-72.59344005280971 -322.15766435566223,-71.92356707177376 -323.9877913746272,-70.09344005287521 -324.65766435575387,-67.59344005287431 -323.9877913747179,-65.0934400528491 -322.15766435581935,-63.263313033884145 -319.65766435581844,-62.59344005275748" stroke="#00f" stroke-linecap="round" stroke-linejoin="round"/><polyline fill="none" points="-198.27913780450197,7.337135095656042 -195.77913780447676,6.667262114620099 -193.9490107855118,4.837135095721555 -193.27913780438513,2.3371350957206523 -193.94901078542108,-0.16286490430456046 -195.77913780431962,-1.992991923269521 -198.27913780432053,-2.66286490439619 -200.77913780434574,-1.9929919233602478 -202.6092648233107,-0.16286490446170387 -203.27913780443737,2.3371350955391987 -202.60926482340142,4.8371350955644115 -200.77913780450288,6.667262114529374 -198.27913780450197,7.337135095656044" stroke="#ffa500" stroke-linecap="round" stroke-linejoin="round"/><polyline fill="none" points="-179.65407856568345,30.18865183010242 -177.15407856565824,29.51877884906648 -175.32395154669328,27.688651830167935 -174.6540785655666,25.188651830167032 -175.32395154660256,22.68865183014182 -177.1540785655011,20.858524811176856 -179.654078565502,20.188651830050183 -182.15407856552721,20.858524811086124 -183.98420558449217,22.688651829984668 -184.65407856561885,25.18865182998557 -183.9842055845829,27.688651830010784 -182.15407856568436,29.51877884897575 -179.65407856568345,30.188651830102422" stroke="#ffa500" stroke-linecap="round" stroke-linejoin="round"/><polyline fill="none" points="393.74762632841265,-191.81563022686996 396.2476263284379,-192.4855032079059 398.07775334740285,-194.31563022680444 398.7476263285295,-196.81563022680535 398.07775334749357,-199.31563022683056 396.247626328595,-201.14575724579552 393.7476263285941,-201.8156302269222 391.24762632856886,-201.14575724588624 389.4174993096039,-199.3156302269877 388.7476263284772,-196.8156302269868 389.4174993095132,-194.3156302269616 391.24762632841174,-192.48550320799663 393.74762632841265,-191.81563022686996" stroke="#ffa500" stroke-linecap="round" stroke-linejoin="round"/><polyline fill="none" points="-298.113103889024,-51.48682745711481 -295.61310388899875,-52.15670043815075 -293.7829768700338,-53.986827457049294 -293.1131038889071,-56.4868274570502 -293.78297686994307,-58.986827457075414 -295.61310388884164,-60.81695447604038 -298.11310388884255,-61.48682745716706 -300.6131038888678,-60.81695447613112 -302.44323090783274,-58.98682745723258 -303.1131038889594,-56.486827457231676 -302.44323090792346,-53.98682745720646 -300.6131038890249,-52.15670043824149 -298.113103889024,-51.486827457114806" stroke="#ffa500" stroke-linecap="round" stroke-linejoin="round"/><polyline fill="none" points="50.739477817282896,-55.84430531307001 53.239477817308114,-56.514178294105946 55.069604836273086,-58.34430531300448 55.73947781739977,-60.844305313005385 55.06960483636383,-63.3443053130306 53.23947781746529,-65.17443233199558 50.73947781746439,-65.84430531312226 48.239477817439166,-65.17443233208633 46.40935079847419,-63.34430531318779 45.73947781734751,-60.84430531318689 46.40935079838344,-58.34430531316166 48.23947781728198,-56.51417829419669 50.73947781728288,-55.84430531307001" stroke="#ffa500" stroke-linecap="round" stroke-linejoin="round"/><polyline fill="none" points="400.82446187476336,-164.76110284830787 403.3244618747886,-165.4309758293438 405.15458889375356,-167.26110284824233 405.8244618748802,-169.76110284824324 405.1545888938443,-172.26110284826845 403.3244618749457,-174.09122986723344 400.8244618749448,-174.7611028483601 398.32446187491956,-174.0912298673242 396.4943348559546,-172.26110284842565 395.82446187482793,-169.76110284842474 396.4943348558639,-167.26110284839953 398.32446187476245,-165.43097582943454 400.82446187476336,-164.76110284830787" stroke="#ffa500" stroke-linecap="round" stroke-linejoin="round"/><polyline fill="none" points="75.31796452271479,-38.12466846494671 77.81796452274001,-38.79454144598264 79.64809154170499,-40.624668464881175 80.31796452283167,-43.12466846488208 79.64809154179575,-45.6246684649073 77.81796452289721,-47.45479548387228 75.3179645228963,-48.12466846499897 72.81796452287108,-47.45479548396304 70.9878375039061,-45.6246684650645 70.31796452277942,-43.1246684650636 70.98783750381534,-40.624668465038376 72.81796452271388,-38.794541446073396 75.31796452271479,-38.12466846494671" stroke="#ffa500" stroke-linecap="round" stroke-linejoin="round"/><polyline fill="none" points="-273.54218130928285,-140.93891771637544 -271.0421813092576,-141.60879069741137 -269.21205429029266,-143.4389177163099 -268.542181309166,-145.9389177163108 -269.21205429020193,-148.43891771633605 -271.04218130910044,-150.26904473530104 -273.54218130910135,-150.93891771642774 -276.0421813091266,-150.26904473539182 -277.87230832809155,-148.43891771649328 -278.5421813092182,-145.93891771649237 -277.87230832818227,-143.43891771646713 -276.04218130928376,-141.60879069750214 -273.54218130928285,-140.93891771637544" stroke="#ffa500" stroke-linecap="round" stroke-linejoin="round"/><polyline fill="none" points="-318.0835908103163,-126.73385715569461 -315.58359081029107,-127.40373013673053 -313.7534637913261,-129.23385715562907 -313.08359081019944,-131.73385715562998 -313.7534637912354,-134.23385715565522 -315.5835908101339,-136.0639841746202 -318.0835908101348,-136.7338571557469 -320.58359081016005,-136.06398417471098 -322.413717829125,-134.23385715581244 -323.0835908102517,-131.73385715581153 -322.4137178292158,-129.2338571557863 -320.5835908103173,-127.40373013682131 -318.08359081031637,-126.73385715569462" stroke="#ffa500" stroke-linecap="round" stroke-linejoin="round"/><polyline fill="none" points="-270.4227152970787,-126.82697771010163 -267.92271529705346,-127.49685069113755 -266.0925882780885,-129.3269777100361 -265.4227152969618,-131.826977710037 -266.0925882779977,-134.32697771006224 -267.92271529689623,-136.15710472902722 -270.42271529689714,-136.82697771015393 -272.9227152969224,-136.157104729118 -274.75284231588734,-134.32697771021947 -275.422715297014,-131.82697771021856 -274.7528423159781,-129.32697771019332 -272.9227152970796,-127.49685069122833 -270.4227152970787,-126.82697771010163" stroke="#ffa500" stroke-linecap="round" stroke-linejoin="round"/><polyline fill="none" points="-389.76170476462863,-140.58798088882304 -387.2617047646034,-141.25785386985896 -385.4315777456384,-143.0879808887575 -384.7617047645117,-145.5879808887584 -385.4315777455476,-148.08798088878365 -387.2617047644461,-149.91810790774863 -389.761704764447,-150.58798088887534 -392.26170476447226,-149.9181079078394 -394.09183178343727,-148.08798088894088 -394.76170476456394,-145.58798088893997 -394.09183178352805,-143.08798088891473 -392.26170476462954,-141.25785386994974 -389.76170476462863,-140.58798088882304" stroke="#008000" stroke-linecap="round" stroke-linejoin="round"/><polyline fill="none" points="-316.08273255054075,-104.26948800410969 -313.5827325505155,-104.93936098514561 -311.7526055315505,-106.76948800404415 -311.0827325504238,-109.26948800404506 -311.7526055314597,-111.7694880040703 -313.58273255035823,-113.59961502303528 -316.08273255035914,-114.26948800416199 -318.5827325503844,-113.59961502312606 -320.4128595693494,-111.76948800422753 -321.0827325504761,-109.26948800422662 -320.41285956944023,-106.76948800420138 -318.5827325505417,-104.93936098523639 -316.0827325505408,-104.26948800410969" stroke="#ffa500" stroke-linecap="round" stroke-linejoin="round"/><polyline fill="none" points="-299.3879381438008,-111.96241029896939 -296.88793814377556,-112.6322832800053 -295.05781112481054,-114.46241029890383 -294.3879381436838,-116.96241029890474 -295.0578111247197,-119.46241029892998 -296.8879381436182,-121.29253731789497 -299.3879381436191,-121.96241029902167 -301.88793814364436,-121.29253731798576 -303.7180651626094,-119.46241029908724 -304.3879381437361,-116.96241029908633 -303.7180651627002,-114.46241029906109 -301.8879381438017,-112.63228328009609 -299.3879381438008,-111.96241029896939" stroke="#ffa500" stroke-linecap="round" stroke-linejoin="round"/><polyline fill="none" points="-237.11872544794488,-102.00431440307146 -234.61872544791964,-102.67418738410737 -232.78859842895466,-104.50431440300589 -232.11872544782796,-107.0043144030068 -232.78859842886388,-109.50431440303204 -234.61872544776242,-111.33444142199704 -237.11872544776332,-112.00431440312374 -239.61872544778856,-111.33444142208783 -241.44885246675355,-109.50431440318931 -242.11872544788025,-107.0043144031884 -241.44885246684433,-104.50431440316316 -239.6187254479458,-102.67418738419816 -237.11872544794488,-102.00431440307146" stroke="#ffa500" stroke-linecap="round" stroke-linejoin="round"/><polyline fill="none" points="-322.5117875480054,-94.68887159954527 -320.01178754798013,-95.35874458058117 -318.1816605290151,-97.1888715994797 -317.5117875478884,-99.6888715994806 -318.1816605289243,-102.18887159950584 -320.0117875478228,-104.01899861847085 -322.5117875478237,-104.68887159959756 -325.01178754784894,-104.01899861856165 -326.84191456681395,-102.18887159966313 -327.5117875479407,-99.68887159966222 -326.8419145669048,-97.18887159963698 -325.0117875480063,-95.35874458067198 -322.5117875480054,-94.68887159954527" stroke="#00f" stroke-linecap="round" stroke-linejoin="round"/><polyline fill="none" points="-365.01832566863817,-113.05258601435641 -362.51832566861293,-113.72245899539232 -360.6881986496479,-115.55258601429084 -360.0183256685212,-118.05258601429175 -360.6881986495571,-120.55258601431699 -362.5183256684556,-122.38271303328199 -365.0183256684565,-123.0525860144087 -367.51832566848174,-122.3827130333728 -369.34845268744675,-120.55258601447427 -370.0183256685735,-118.05258601447336 -369.3484526875376,-115.55258601444812 -367.5183256686391,-113.72245899548312 -365.01832566863817,-113.05258601435641" stroke="#00f" stroke-linecap="round" stroke-linejoin="round"/><polyline fill="none" points="-359.9047424312746,-122.25420842833324 -357.40474243124936,-122.92408140936915 -355.57461541228434,-124.75420842826767 -354.9047424311576,-127.25420842826858 -355.5746154121935,-129.75420842829382 -357.404742431092,-131.58433544725884 -359.9047424310929,-132.25420842838554 -362.40474243111817,-131.58433544734964 -364.2348694500832,-129.7542084284511 -364.9047424312099,-127.2542084284502 -364.234869450174,-124.75420842842496 -362.4047424312755,-122.92408140945996 -359.9047424312746,-122.25420842833324" stroke="#ffa500" stroke-linecap="round" stroke-linejoin="round"/><polyline fill="none" points="-213.66600655945186,-73.13156916343415 -211.16600655942662,-73.80144214447006 -209.3358795404616,-75.63156916336858 -208.66600655933487,-78.13156916336949 -209.33587954037077,-80.63156916339473 -211.1660065592693,-82.46169618235973 -213.66600655927022,-83.13156916348645 -216.16600655929545,-82.46169618245054 -217.99613357826047,-80.63156916355202 -218.6660065593872,-78.1315691635511 -217.9961335783513,-75.63156916352587 -216.1660065594528,-73.80144214456087 -213.6660065594519,-73.13156916343415" stroke="#ffa500" stroke-linecap="round" stroke-linejoin="round"/><polyline fill="none" points="-175.3909944402882,7.957921712985774 -172.89099444026297,7.288048731949873 -171.06086742129796,5.457921713051351 -170.39099444017123,2.9579217130504443 -171.06086742120712,0.45792171302520224 -172.89099444010563,-1.3722053059398045 -175.39099444010654,-2.042078287066525 -177.89099444013178,-1.3722053060306254 -179.7211214590968,0.45792171286789607 -180.39099444022352,2.957921712868803 -179.72112145918763,5.457921712894045 -177.89099444028912,7.288048731859053 -175.3909944402882,7.957921712985775" stroke="#ffa500" stroke-linecap="round" stroke-linejoin="round"/><polyline fill="none" points="-348.13546931494113,-129.75620486162714 -345.6354693149159,-130.42607784266303 -343.8053422959509,-132.25620486156154 -343.13546931482415,-134.75620486156245 -343.80534229586004,-137.2562048615877 -345.63546931475855,-139.0863318805527 -348.13546931475946,-139.75620486167944 -350.6354693147847,-139.08633188064354 -352.4655963337497,-137.25620486174503 -353.13546931487645,-134.75620486174412 -352.46559633384055,-132.25620486171889 -350.63546931494204,-130.42607784275387 -348.13546931494113,-129.75620486162714" stroke="#00f" stroke-linecap="round" stroke-linejoin="round"/><polyline fill="none" points="-392.44136175225293,-146.94509666245133 -389.9413617522277,-147.61496964348723 -388.1112347332627,-149.44509666238574 -387.44136175213595,-151.94509666238665 -388.11123473317184,-154.44509666241188 -389.94136175207035,-156.2752236813769 -392.44136175207126,-156.94509666250363 -394.9413617520965,-156.27522368146774 -396.7714887710615,-154.44509666256923 -397.44136175218824,-151.94509666256832 -396.77148877115235,-149.44509666254308 -394.94136175225384,-147.61496964357806 -392.44136175225293,-146.94509666245133" stroke="#00f" stroke-linecap="round" stroke-linejoin="round"/><polyline fill="none" points="-193.44650950604208,75.70089683908493 -190.94650950601684,75.03102385804904 -189.11638248705182,73.20089683915052 -188.4465095059251,70.7008968391496 -189.116382486961,68.20089683912435 -190.9465095058595,66.37076982015934 -193.4465095058604,65.70089683903261 -195.94650950588564,66.3707698200685 -197.77663652485066,68.20089683896703 -198.4465095059774,70.70089683896794 -197.7766365249415,73.20089683899319 -195.946509506043,75.0310238579582 -193.44650950604208,75.70089683908493" stroke="#ffa500" stroke-linecap="round" stroke-linejoin="round"/><polyline fill="none" points="-337.03953059009234,-111.94666109572428 -334.5395305900671,-112.61653407676017 -332.7094035711021,-114.4466610956587 -332.03953058997536,-116.9466610956596 -332.70940357101125,-119.44666109568486 -334.53953058990976,-121.27678811464988 -337.03953058991067,-121.9466610957766 -339.5395305899359,-121.27678811474071 -341.3696576089009,-119.44666109584219 -342.03953059002765,-116.94666109584128 -341.36965760899176,-114.44666109581603 -339.53953059009325,-112.61653407685101 -337.03953059009234,-111.94666109572428" stroke="#ffa500" stroke-linecap="round" stroke-linejoin="round"/><polyline fill="none" points="-379.2888874143652,-173.29287842055498 -376.78888741433997,-173.96275140159088 -374.95876039537495,-175.7928784204894 -374.2888874142482,-178.2928784204903 -374.9587603952841,-180.79287842051554 -376.7888874141826,-182.62300543948055 -379.28888741418353,-183.29287842060728 -381.7888874142088,-182.6230054395714 -383.6190144331738,-180.79287842067288 -384.2888874143005,-178.29287842067197 -383.6190144332646,-175.79287842064673 -381.7888874143661,-173.96275140168171 -379.2888874143652,-173.29287842055498" stroke="#f00" stroke-linecap="round" stroke-linejoin="round"/><polyline fill="none" points="-351.3664046131381,-155.99976501757234 -348.8664046131129,-156.66963799860824 -347.03627759414786,-158.49976501750675 -346.36640461302113,-160.99976501750766 -347.036277594057,-163.4997650175329 -348.86640461295553,-165.3298920364979 -351.36640461295644,-165.99976501762464 -353.8664046129817,-165.32989203658875 -355.6965316319467,-163.49976501769024 -356.3664046130734,-160.99976501768933 -355.69653163203753,-158.4997650176641 -353.866404613139,-156.66963799869907 -351.3664046131381,-155.99976501757234" stroke="#008000" stroke-linecap="round" stroke-linejoin="round"/><polyline fill="none" points="-316.86934090982595,-75.60018980714743 -314.3693409098007,-76.27006278818331 -312.5392138908357,-78.10018980708182 -311.86934090970897,-80.60018980708273 -312.53921389074486,-83.10018980710798 -314.36934090964337,-84.93031682607301 -316.8693409096443,-85.60018980719975 -319.3693409096695,-84.93031682616387 -321.19946792863453,-83.10018980726537 -321.86934090976126,-80.60018980726446 -321.19946792872537,-78.1001898072392 -319.36934090982686,-76.27006278827417 -316.86934090982595,-75.60018980714743" stroke="#ffa500" stroke-linecap="round" stroke-linejoin="round"/><polyline fill="none" points="-303.98573025987173,-86.95055254362697 -301.4857302598465,-87.62042552466285 -299.6556032408815,-89.45055254356136 -298.98573025975475,-91.95055254356227 -299.65560324079064,-94.45055254358752 -301.48573025968915,-96.28067956255255 -303.98573025969006,-96.9505525436793 -306.4857302597153,-96.28067956264341 -308.3158572786803,-94.4505525437449 -308.98573025980704,-91.950552543744 -308.31585727877115,-89.45055254371874 -306.48573025987264,-87.62042552475371 -303.98573025987173,-86.95055254362697" stroke="#ffa500" stroke-linecap="round" stroke-linejoin="round"/><polyline fill="none" points="-226.83319742264538,35.64099935983637 -224.33319742262012,34.97112637880049 -222.5030704036551,33.14099935990198 -221.83319742252834,30.640999359901077 -222.5030704035642,28.14099935987582 -224.33319742246272,26.31087234091079 -226.83319742246363,25.640999359784047 -229.3331974224889,26.310872340819923 -231.1633244414539,28.140999359718432 -231.83319742258067,30.640999359719338 -231.1633244415448,33.14099935974459 -229.3331974226463,34.97112637870962 -226.83319742264538,35.640999359836364" stroke="#00f" stroke-linecap="round" stroke-linejoin="round"/><polyline fill="none" points="-352.00680862799237,-107.39971159400652 -349.50680862796713,-108.0695845750424 -347.6766816090021,-109.8997115939409 -347.0068086278754,-112.39971159394182 -347.6766816089113,-114.89971159396707 -349.5068086278098,-116.7298386129321 -352.0068086278107,-117.39971159405884 -354.50680862783594,-116.72983861302296 -356.33693564680095,-114.89971159412445 -357.0068086279277,-112.39971159412354 -356.3369356468918,-109.89971159409829 -354.5068086279933,-108.06958457513326 -352.00680862799237,-107.39971159400652" stroke="#00f" stroke-linecap="round" stroke-linejoin="round"/><polyline fill="none" points="-227.02296087696115,-77.81237762550137 -224.52296087693588,-78.48225060653725 -222.69283385797084,-80.31237762543576 -222.02296087684408,-82.81237762543667 -222.69283385787995,-85.31237762546192 -224.52296087677846,-87.14250464442695 -227.02296087677936,-87.8123776255537 -229.52296087680463,-87.14250464451781 -231.35308789576968,-85.3123776256193 -232.02296087689643,-82.8123776256184 -231.35308789586057,-80.31237762559314 -229.52296087696206,-78.48225060662811 -227.02296087696115,-77.81237762550136" stroke="#ffa500" stroke-linecap="round" stroke-linejoin="round"/><polyline fill="none" points="-321.83288455550326,-151.72519876062736 -319.332884555478,-152.39507174166323 -317.502757536513,-154.22519876056174 -316.8328845553863,-156.72519876056265 -317.50275753642217,-159.22519876058792 -319.3328845553207,-161.05532577955296 -321.8328845553216,-161.72519876067972 -324.3328845553468,-161.05532577964385 -326.16301157431184,-159.22519876074534 -326.83288455543857,-156.72519876074443 -326.1630115744027,-154.22519876071917 -324.33288455550417,-152.39507174175412 -321.83288455550326,-151.72519876062736" stroke="#00f" stroke-linecap="round" stroke-linejoin="round"/><polyline fill="none" points="-333.47878799759945,-154.82541182205367 -330.9787879975742,-155.49528480308953 -329.1486609786092,-157.32541182198804 -328.47878799748247,-159.82541182198895 -329.14866097851836,-162.32541182201422 -330.9787879974169,-164.15553884097926 -333.4787879974178,-164.82541182210602 -335.978787997443,-164.15553884107015 -337.80891501640804,-162.32541182217165 -338.4787879975348,-159.82541182217074 -337.80891501649893,-157.32541182214547 -335.9787879976004,-155.49528480318043 -333.4787879975995,-154.82541182205367" stroke="#ffa500" stroke-linecap="round" stroke-linejoin="round"/><polyline fill="none" points="-292.3222161993866,-81.18629257410383 -289.8222161993614,-81.8561655551397 -287.99208918039636,-83.6862925740382 -287.3222161992696,-86.18629257403911 -287.99208918030547,-88.68629257406438 -289.822216199204,-90.51641959302943 -292.3222161992049,-91.18629257415618 -294.8222161992301,-90.51641959312032 -296.65234321819514,-88.68629257422181 -297.32221619932193,-86.1862925742209 -296.6523432182861,-83.68629257419563 -294.8222161993876,-81.85616555523059 -292.3222161993867,-81.18629257410383" stroke="#ffa500" stroke-linecap="round" stroke-linejoin="round"/><polyline fill="none" points="-307.0880827477701,-150.2533041365635 -304.58808274774486,-150.92317711759935 -302.75795572877985,-152.75330413649786 -302.08808274765306,-155.25330413649877 -302.7579557286889,-157.75330413652404 -304.5880827475874,-159.58343115548908 -307.0880827475883,-160.25330413661584 -309.58808274761356,-159.58343115557997 -311.4182097665786,-157.75330413668146 -312.0880827477054,-155.25330413668055 -311.4182097666696,-152.7533041366553 -309.58808274777107,-150.92317711769024 -307.08808274777016,-150.2533041365635" stroke="#ffa500" stroke-linecap="round" stroke-linejoin="round"/><polyline fill="none" points="-404.3035608192555,-170.27612336207545 -401.80356081923026,-170.94599634311132 -399.9734338002652,-172.77612336200983 -399.3035608191384,-175.27612336201074 -399.97343380017423,-177.776123362036 -401.80356081907274,-179.60625038100105 -404.30356081907365,-180.2761233621278 -406.8035608190989,-179.60625038109194 -408.63368783806396,-177.77612336219343 -409.30356081919075,-175.27612336219252 -408.6336878381549,-172.77612336216725 -406.8035608192564,-170.9459963432022 -404.3035608192555,-170.27612336207545" stroke="#00f" stroke-linecap="round" stroke-linejoin="round"/><polyline fill="none" points="-269.9975480432619,-45.51112727053126 -267.49754804323663,-46.18100025156712 -265.66742102427156,-48.01112727046562 -264.9975480431448,-50.51112727046653 -265.6674210241806,-53.0111272704918 -267.4975480430791,-54.84125428945685 -269.99754804308003,-55.511127270583614 -272.49754804310527,-54.841254289547756 -274.32767506207034,-53.01112727064926 -274.9975480431971,-50.51112727064835 -274.3276750621613,-48.011127270623085 -272.4975480432628,-46.181000251658034 -269.9975480432619,-45.51112727053126" stroke="#ffa500" stroke-linecap="round" stroke-linejoin="round"/><polyline fill="none" points="-383.9987659406886,-187.64342818355135 -381.49876594066336,-188.31330116458722 -379.6686389216983,-190.14342818348572 -378.9987659405715,-192.64342818348663 -379.66863892160734,-195.1434281835119 -381.49876594050585,-196.97355520247694 -383.99876594050676,-197.6434281836037 -386.49876594053205,-196.97355520256784 -388.3288929594971,-195.14342818366933 -388.9987659406239,-192.64342818366842 -388.3288929595881,-190.14342818364315 -386.49876594068957,-188.3133011646781 -383.99876594068866,-187.64342818355132" stroke="#ffa500" stroke-linecap="round" stroke-linejoin="round"/><polyline fill="none" points="61.28358595139136,-31.316356364781434 63.783585951416626,-31.98622934581729 65.61371297038168,-33.81635636471579 66.28358595150846,-36.3163563647167 65.6137129704726,-38.816356364741964 63.78358595157411,-40.646483383707015 61.2835859515732,-41.31635636483379 58.783585951547934,-40.646483383797936 56.95345893258288,-38.81635636489944 56.28358595145611,-36.31635636489853 56.95345893249196,-33.816356364873265 58.78358595139046,-31.98622934590821 61.283585951391366,-31.316356364781434" stroke="#ffa500" stroke-linecap="round" stroke-linejoin="round"/><polyline fill="none" points="-250.61468093367768,-100.72881643037792 -248.1146809336524,-101.39868941141377 -246.28455391468736,-103.22881643031226 -245.61468093356058,-105.72881643031317 -246.28455391459642,-108.22881643033844 -248.1146809334949,-110.0589434493035 -250.6146809334958,-110.72881643043027 -253.11468093352107,-110.05894344939442 -254.94480795248612,-108.22881643049593 -255.6146809336129,-105.72881643049502 -254.94480795257707,-103.22881643046975 -253.11468093367859,-101.39868941150469 -250.61468093367768,-100.72881643037792" stroke="#00f" stroke-linecap="round" stroke-linejoin="round"/><polyline fill="none" points="-370.76437160574494,-129.28332782452034 -368.26437160571965,-129.95320080555618 -366.4342445867546,-131.78332782445466 -365.7643716056278,-134.28332782445557 -366.4342445866636,-136.78332782448084 -368.26437160556213,-138.6134548434459 -370.76437160556304,-139.2833278245727 -373.26437160558834,-138.61345484353686 -375.0944986245534,-136.78332782463838 -375.7643716056802,-134.28332782463747 -375.09449862464436,-131.7833278246122 -373.26437160574585,-129.95320080564713 -370.76437160574494,-129.28332782452034" stroke="#00f" stroke-linecap="round" stroke-linejoin="round"/><polyline fill="none" points="-401.0391361545913,-156.99856861140992 -398.539136154566,-157.66844159244576 -396.7090091356009,-159.49856861134424 -396.03913615447414,-161.99856861134515 -396.70900913551,-164.49856861137042 -398.5391361544085,-166.3286956303355 -401.0391361544094,-166.99856861146228 -403.5391361544347,-166.32869563042644 -405.36926317339976,-164.49856861152796 -406.03913615452655,-161.99856861152705 -405.3692631734907,-159.49856861150178 -403.5391361545922,-157.6684415925367 -401.0391361545913,-156.99856861140992" stroke="#00f" stroke-linecap="round" stroke-linejoin="round"/><polyline fill="none" points="-193.49251688790338,44.39018787427078 -190.9925168878781,43.720314893234935 -189.16238986891304,41.89018787433645 -188.49251688778625,39.39018787433554 -189.1623898688221,36.890187874310264 -190.99251688772057,35.0600608553452 -193.49251688772148,34.39018787421841 -195.99251688774675,35.06006085525426 -197.82264390671182,36.890187874152744 -198.4925168878386,39.39018787415365 -197.82264390680277,41.89018787417893 -195.9925168879043,43.72031489314399 -193.49251688790338,44.39018787427078" stroke="#ffa500" stroke-linecap="round" stroke-linejoin="round"/><polyline fill="none" points="-348.8994853697275,-118.37628302988355 -346.3994853697022,-119.04615601091939 -344.5693583507371,-120.87628302981788 -343.8994853696103,-123.3762830298188 -344.56935835064616,-125.87628302984407 -346.39948536954466,-127.70641004880915 -348.8994853695456,-128.37628302993593 -351.39948536957087,-127.7064100489001 -353.22961238853594,-125.8762830300016 -353.8994853696627,-123.37628303000069 -353.2296123886269,-120.87628302997541 -351.3994853697284,-119.04615601101034 -348.8994853697275,-118.37628302988355" stroke="#ffa500" stroke-linecap="round" stroke-linejoin="round"/><polyline fill="none" points="-196.64185170640818,27.36275345198114 -194.1418517063829,26.692880470945298 -192.31172468741784,24.86275345204681 -191.64185170629105,22.362753452045904 -192.3117246873269,19.862753452020627 -194.14185170622537,18.032626433055558 -196.64185170622628,17.362753451928768 -199.14185170625154,18.032626432964605 -200.97197872521662,19.862753451863092 -201.6418517063434,22.362753451864 -200.97197872530757,24.862753451889276 -199.14185170640908,26.692880470854345 -196.64185170640818,27.36275345198114" stroke="#ffa500" stroke-linecap="round" stroke-linejoin="round"/><polyline fill="none" points="-201.45635381378722,70.33333171944494 -198.95635381376195,69.6634587384091 -197.12622679479688,67.83333171951062 -196.4563538136701,65.33333171950972 -197.12622679470593,62.833331719484434 -198.9563538136044,61.00320470051936 -201.45635381360532,60.33333171939257 -203.95635381363059,61.003204700428405 -205.78648083259566,62.83333171932689 -206.45635381372244,65.3333317193278 -205.7864808326866,67.83333171935308 -203.95635381378813,69.66345873831816 -201.45635381378722,70.33333171944496" stroke="#ffa500" stroke-linecap="round" stroke-linejoin="round"/><polyline fill="none" points="-222.8150833798456,-110.0213980235702 -220.31508337982032,-110.69127100460604 -218.48495636085525,-112.52139802350452 -217.81508337972846,-115.02139802350543 -218.4849563607643,-117.52139802353071 -220.31508337966278,-119.35152504249578 -222.8150833796637,-120.02139802362258 -225.31508337968899,-119.35152504258674 -227.14521039865406,-117.52139802368826 -227.81508337978084,-115.02139802368735 -227.145210398745,-112.52139802366207 -225.31508337984653,-110.691271004697 -222.81508337984562,-110.0213980235702" stroke="#00f" stroke-linecap="round" stroke-linejoin="round"/><polyline fill="none" points="-351.40757119076306,-136.74335706697704 -348.90757119073777,-137.41323004801288 -347.0774441717727,-139.24335706691136 -346.4075711906459,-141.74335706691227 -347.07744417168175,-144.24335706693756 -348.90757119058026,-146.07348408590263 -351.40757119058117,-146.74335706702942 -353.90757119060646,-146.07348408599358 -355.73769820957153,-144.2433570670951 -356.4075711906983,-141.7433570670942 -355.7376982096625,-139.2433570670689 -353.907571190764,-137.41323004810383 -351.40757119076306,-136.74335706697704" stroke="#00f" stroke-linecap="round" stroke-linejoin="round"/><polyline fill="none" points="-394.4266277655444,-187.52574885692889 -391.92662776551913,-188.19562183796472 -390.09650074655406,-190.0257488568632 -389.42662776542727,-192.5257488568641 -390.0965007464631,-195.0257488568894 -391.9266277653616,-196.85587587585448 -394.4266277653625,-197.5257488569813 -396.9266277653878,-196.85587587594546 -398.7567547843529,-195.02574885704698 -399.4266277654797,-192.52574885704607 -398.75675478444384,-190.02574885702077 -396.92662776554533,-188.1956218380557 -394.4266277655444,-187.52574885692889" stroke="#ffa500" stroke-linecap="round" stroke-linejoin="round"/><polyline fill="none" points="-288.2476805492455,-25.541856216310723 -285.7476805492202,-26.211729197346553 -283.91755353025513,-28.041856216245037 -283.24768054912835,-30.541856216245947 -283.9175535301642,-33.041856216271235 -285.7476805490627,-34.871983235236314 -288.2476805490636,-35.54185621636312 -290.7476805490889,-34.87198323532729 -292.57780756805397,-33.04185621642881 -293.24768054918076,-30.541856216427902 -292.5778075681449,-28.041856216402614 -290.7476805492464,-26.21172919743753 -288.2476805492455,-25.541856216310727" stroke="#ffa500" stroke-linecap="round" stroke-linejoin="round"/><polyline fill="none" points="-202.7074252665926,55.70293433187568 -200.2074252665673,55.03306135083985 -198.37729824760223,53.20293433194137 -197.7074252664754,50.70293433194046 -198.37729824751125,48.20293433191517 -200.20742526640973,46.37280731295009 -202.70742526641064,45.70293433182328 -205.20742526643593,46.3728073128591 -207.037552285401,48.20293433175758 -207.70742526652782,50.70293433175849 -207.03755228549198,53.20293433178378 -205.2074252665935,55.033061350748866 -202.7074252665926,55.702934331875674" stroke="#ffa500" stroke-linecap="round" stroke-linejoin="round"/><polyline fill="none" points="-330.02348025224694,-79.27231547973741 -327.52348025222165,-79.94218846077324 -325.6933532332566,-81.77231547967172 -325.0234802521298,-84.27231547967263 -325.6933532331656,-86.77231547969792 -327.5234802520641,-88.60244249866301 -330.023480252065,-89.27231547978982 -332.5234802520903,-88.602442498754 -334.35360727105535,-86.77231547985552 -335.02348025218214,-84.27231547985461 -334.3536072711463,-81.77231547982932 -332.52348025224785,-79.94218846086423 -330.02348025224694,-79.27231547973741" stroke="#00f" stroke-linecap="round" stroke-linejoin="round"/><polyline fill="none" points="-285.1989995742949,-67.82853905149557 -282.6989995742696,-68.49841203253139 -280.8688725553045,-70.32853905142987 -280.1989995741777,-72.82853905143078 -280.86887255521356,-75.32853905145608 -282.698999574112,-77.15866607042116 -285.1989995741129,-77.82853905154798 -287.6989995741382,-77.15866607051215 -289.5291265931033,-75.32853905161367 -290.1989995742301,-72.82853905161276 -289.52912659319423,-70.32853905158747 -287.6989995742958,-68.49841203262238 -285.1989995742949,-67.82853905149557" stroke="#ffa500" stroke-linecap="round" stroke-linejoin="round"/><polyline fill="none" points="-360.8455376352419,-175.7794117420483 -358.3455376352166,-176.4492847230841 -356.51541061625153,-178.27941174198259 -355.84553763512474,-180.7794117419835 -356.5154106161606,-183.2794117420088 -358.34553763505903,-185.1095387609739 -360.84553763505994,-185.7794117421007 -363.34553763508524,-185.1095387610649 -365.1756646540503,-183.27941174216642 -365.84553763517715,-180.7794117421655 -365.1756646541413,-178.2794117421402 -363.34553763524286,-176.4492847231751 -360.84553763524195,-175.7794117420483" stroke="#00f" stroke-linecap="round" stroke-linejoin="round"/><polyline fill="none" points="-339.1019583108394,-118.13579546299412 -336.6019583108141,-118.80566844402995 -334.771831291849,-120.63579546292843 -334.1019583107222,-123.13579546292934 -334.771831291758,-125.63579546295463 -336.60195831065647,-127.46592248191972 -339.1019583106574,-128.13579546304655 -341.6019583106827,-127.46592248201074 -343.43208532964775,-125.63579546311226 -344.1019583107746,-123.13579546311135 -343.43208532973875,-120.63579546308605 -341.6019583108403,-118.80566844412095 -339.1019583108394,-118.13579546299414" stroke="#ffa500" stroke-linecap="round" stroke-linejoin="round"/><polyline fill="none" points="-378.37578426848637,-168.07425436332002 -375.8757842684611,-168.74412734435583 -374.045657249496,-170.5742543632543 -373.37578426836916,-173.07425436325522 -374.045657249405,-175.57425436328052 -375.87578426830345,-177.40438138224562 -378.37578426830436,-178.07425436337243 -380.87578426832965,-177.40438138233662 -382.7059112872947,-175.57425436343814 -383.37578426842157,-173.07425436343723 -382.70591128738573,-170.57425436341194 -380.8757842684873,-168.74412734444684 -378.37578426848637,-168.07425436332002" stroke="#008000" stroke-linecap="round" stroke-linejoin="round"/><polyline fill="none" points="-186.61467176215473,16.26725198993779 -184.11467176212943,15.597379008901978 -182.28454474316433,13.767251990003505 -181.61467176203752,11.267251990002595 -182.28454474307333,8.7672519899773 -184.1146717619718,6.937124971012201 -186.61467176197272,6.267251989885376 -189.114671761998,6.937124970921187 -190.9447987809631,8.767251989819659 -191.61467176208993,11.267251989820569 -190.94479878105412,13.767251989845866 -189.11467176215564,15.597379008810965 -186.61467176215473,16.26725198993779" stroke="#ffa500" stroke-linecap="round" stroke-linejoin="round"/><polyline fill="none" points="60.81508895968721,-46.30041815150703 63.315088959712504,-46.97029113254284 65.1452159786776,-48.80041815144131 65.81508895980443,-51.30041815144222 65.14521597876862,-53.80041815146752 63.315088959870145,-55.63054517043262 60.815088959869236,-56.30041815155945 58.31508895984394,-55.63054517052364 56.48496194087884,-53.800418151625166 55.81508895975201,-51.30041815162426 56.48496194078782,-48.80041815159896 58.31508895968629,-46.97029113263386 60.8150889596872,-46.30041815150703" stroke="#ffa500" stroke-linecap="round" stroke-linejoin="round"/><polyline fill="none" points="-330.71531693498093,-134.79253396248475 -328.21531693495564,-135.46240694352056 -326.3851899159905,-137.29253396241904 -325.71531693486367,-139.79253396241995 -326.38518991589945,-142.29253396244525 -328.2153169347979,-144.12266098141035 -330.7153169347988,-144.7925339625372 -333.2153169348241,-144.12266098150138 -335.04544395378923,-142.2925339626029 -335.7153169349161,-139.792533962602 -335.0454439538803,-137.2925339625767 -333.21531693498184,-135.4624069436116 -330.71531693498093,-134.79253396248475" stroke="#ffa500" stroke-linecap="round" stroke-linejoin="round"/><polyline fill="none" points="-381.14526588956363,-136.00142609390963 -378.64526588953834,-136.67129907494544 -376.8151388705732,-138.50142609384392 -376.14526588944636,-141.00142609384483 -376.81513887048214,-143.50142609387012 -378.6452658893806,-145.33155311283522 -381.1452658893815,-146.00142609396207 -383.6452658894068,-145.33155311292626 -385.47539290837193,-143.50142609402778 -386.1452658894988,-141.00142609402687 -385.475392908463,-138.50142609400157 -383.64526588956454,-136.67129907503647 -381.14526588956363,-136.00142609390963" stroke="#00f" stroke-linecap="round" stroke-linejoin="round"/><polyline fill="none" points="-396.80093965475976,-200.08735306679063 -394.30093965473446,-200.75722604782644 -392.47081263576933,-202.58735306672492 -391.8009396546425,-205.08735306672583 -392.47081263567827,-207.58735306675112 -394.3009396545767,-209.41748008571622 -396.80093965457763,-210.08735306684306 -399.3009396546029,-209.41748008580726 -401.13106667356806,-207.5873530669088 -401.8009396546949,-205.0873530669079 -401.1310666736591,-202.5873530668826 -399.30093965476067,-200.7572260479175 -396.80093965475976,-200.08735306679066" stroke="#ffa500" stroke-linecap="round" stroke-linejoin="round"/><polyline fill="none" points="-393.6315272870341,-172.52249380338944 -391.1315272870088,-173.19236678442525 -389.30140026804366,-175.0224938033237 -388.6315272869168,-177.5224938033246 -389.3014002679526,-180.0224938033499 -391.13152728685105,-181.852620822315 -393.63152728685196,-182.52249380344185 -396.13152728687726,-181.85262082240604 -397.9616543058424,-180.0224938035076 -398.63152728696923,-177.52249380350668 -397.96165430593345,-175.02249380348138 -396.131527287035,-173.19236678451628 -393.6315272870341,-172.52249380338944" stroke="#008000" stroke-linecap="round" stroke-linejoin="round"/><polyline fill="none" points="-283.4951003741876,-38.96097765401917 -280.9951003741623,-39.63085063505496 -279.16497335519716,-41.46097765395343 -278.4951003740703,-43.96097765395434 -279.1649733551061,-46.46097765397964 -280.99510037400455,-48.291104672944755 -283.49510037400546,-48.9609776540716 -285.99510037403076,-48.291104673035804 -287.8252273929959,-46.46097765413734 -288.4951003741227,-43.96097765413643 -287.82522739308695,-41.460977654111126 -285.9951003741885,-39.63085063514601 -283.4951003741876,-38.96097765401917" stroke="#ffa500" stroke-linecap="round" stroke-linejoin="round"/><polyline fill="none" points="-310.89542055184046,-60.914229968183875 -308.39542055181516,-61.58410294921967 -306.56529353285003,-63.414229968118136 -305.8954205517232,-65.91422996811905 -306.565293532759,-68.41422996814435 -308.3954205516574,-70.24435698710947 -310.89542055165833,-70.91422996823631 -313.3954205516836,-70.24435698720052 -315.22554757064876,-68.41422996830205 -315.8954205517756,-65.91422996830114 -315.2255475707398,-63.41422996827583 -313.39542055184137,-61.58410294931072 -310.89542055184046,-60.914229968183875" stroke="#ffa500" stroke-linecap="round" stroke-linejoin="round"/><polyline fill="none" points="-355.785776346586,-166.61940566776732 -353.2857763465607,-167.2892786488031 -351.45564932759555,-169.11940566770156 -350.7857763464687,-171.61940566770247 -351.4556493275045,-174.11940566772776 -353.28577634640294,-175.9495326866929 -355.78577634640385,-176.61940566781973 -358.28577634642915,-175.94953268678395 -360.1159033653943,-174.1194056678855 -360.7857763465211,-171.6194056678846 -360.11590336548534,-169.1194056678593 -358.2857763465869,-167.28927864889417 -355.785776346586,-166.61940566776732" stroke="#ffa500" stroke-linecap="round" stroke-linejoin="round"/><polyline fill="none" points="-357.7321241140254,-137.1631818274984 -355.2321241140001,-137.83305480853417 -353.401997095035,-139.66318182743262 -352.7321241139081,-142.16318182743353 -353.4019970949439,-144.66318182745883 -355.23212411384236,-146.49330884642396 -357.73212411384327,-147.1631818275508 -360.23212411386857,-146.49330884651502 -362.0622511328337,-144.66318182761657 -362.73212411396054,-142.16318182761566 -362.06225113292476,-139.66318182759034 -360.2321241140263,-137.8330548086252 -357.7321241140254,-137.16318182749836" stroke="#00f" stroke-linecap="round" stroke-linejoin="round"/><polyline fill="none" points="-370.1308682781737,-160.80875316633595 -367.6308682781484,-161.47862614737173 -365.80074125918327,-163.30875316627018 -365.1308682780564,-165.8087531662711 -365.8007412590922,-168.3087531662964 -367.63086827799066,-170.13888018526154 -370.13086827799157,-170.80875316638839 -372.63086827801686,-170.1388801853526 -374.460995296982,-168.30875316645415 -375.13086827810884,-165.80875316645324 -374.46099529707305,-163.30875316642792 -372.6308682781746,-161.4786261474628 -370.1308682781737,-160.80875316633595" stroke="#00f" stroke-linecap="round" stroke-linejoin="round"/><polyline fill="none" points="-204.98446054454882,-94.44628356059404 -202.4844605445235,-95.11615654162982 -200.65433352555837,-96.94628356052827 -199.98446054443153,-99.44628356052918 -200.6543335254673,-101.94628356055449 -202.48446054436576,-103.77641057951962 -204.98446054436667,-104.44628356064648 -207.484460544392,-103.7764105796107 -209.31458756335712,-101.94628356071225 -209.98446054448397,-99.44628356071134 -209.31458756344819,-96.94628356068603 -207.48446054454973,-95.1161565417209 -204.98446054454882,-94.44628356059404" stroke="#ffa500" stroke-linecap="round" stroke-linejoin="round"/><polyline fill="none" points="-343.4142086906748,-128.5270435748247 -340.9142086906495,-129.19691655586047 -339.0840816716844,-131.02704357475892 -338.41420869055753,-133.52704357475983 -339.0840816715933,-136.02704357478515 -340.91420869049176,-137.85717059375028 -343.41420869049267,-138.52704357487715 -345.91420869051797,-137.85717059384137 -347.7443357094831,-136.02704357494292 -348.41420869060994,-133.527043574942 -347.74433570957416,-131.0270435749167 -345.9142086906757,-129.19691655595156 -343.4142086906748,-128.5270435748247" stroke="#ffa500" stroke-linecap="round" stroke-linejoin="round"/><polyline fill="none" points="-299.6634860552183,-68.85498247367453 -297.163486055193,-69.5248554547103 -295.3333590362279,-71.35498247360876 -294.66348605510103,-73.85498247360967 -295.3333590361368,-76.35498247363498 -297.16348605503526,-78.1851094926001 -299.6634860550362,-78.85498247372696 -302.16348605506147,-78.18510949269118 -303.9936130740266,-76.35498247379273 -304.66348605515344,-73.85498247379182 -303.99361307411766,-71.35498247376651 -302.1634860552192,-69.52485545480138 -299.6634860552183,-68.85498247367453" stroke="#ffa500" stroke-linecap="round" stroke-linejoin="round"/><polyline fill="none" points="-316.695265553184,-144.13487583434457 -314.1952655531587,-144.80474881538035 -312.3651385341936,-146.6348758342788 -311.69526555306675,-149.1348758342797 -312.3651385341025,-151.63487583430503 -314.195265553001,-153.46500285327016 -316.6952655530019,-154.13487583439704 -319.1952655530272,-153.46500285336126 -321.0253925719923,-151.6348758344628 -321.69526555311916,-149.1348758344619 -321.0253925720834,-146.63487583443657 -319.1952655531849,-144.80474881547144 -316.695265553184,-144.13487583434457" stroke="#00f" stroke-linecap="round" stroke-linejoin="round"/><polyline fill="none" points="-218.85303663967022,-7.817315427516167 -216.3530366396449,-8.487188408551944 -214.52290962067977,-10.317315427450396 -213.8530366395529,-12.817315427451305 -214.52290962058868,-15.317315427476622 -216.35303663948713,-17.147442446441758 -218.85303663948804,-17.817315427568623 -221.35303663951336,-17.14744244653285 -223.1831636584785,-15.317315427634398 -223.85303663960536,-12.817315427633488 -223.18316365856958,-10.31731542760817 -221.35303663967113,-8.487188408643034 -218.85303663967022,-7.817315427516166" stroke="#00f" stroke-linecap="round" stroke-linejoin="round"/><polyline fill="none" points="-317.53903538819515,-89.5344944819909 -315.03903538816985,-90.20436746302668 -313.2089083692047,-92.03449448192514 -312.5390353880779,-94.53449448192605 -313.20890836911366,-97.03449448195137 -315.0390353880121,-98.86462150091651 -317.539035388013,-99.53449448204339 -320.0390353880383,-98.86462150100762 -321.86916240700344,-97.03449448210917 -322.5390353881303,-94.53449448210826 -321.8691624070945,-92.03449448208293 -320.03903538819606,-90.20436746311779 -317.53903538819515,-89.53449448199092" stroke="#ffa500" stroke-linecap="round" stroke-linejoin="round"/><polyline fill="none" points="-389.06007622855225,-153.8231117832063 -386.56007622852695,-154.49298476424207 -384.7299492095618,-156.32311178314052 -384.060076228435,-158.82311178314143 -384.72994920947076,-161.32311178316675 -386.5600762283692,-163.15323880213188 -389.0600762283701,-163.82311178325875 -391.5600762283954,-163.15323880222297 -393.39020324736055,-161.32311178332452 -394.0600762284874,-158.8231117833236 -393.3902032474516,-156.3231117832983 -391.56007622855316,-154.49298476433316 -389.06007622855225,-153.8231117832063" stroke="#008000" stroke-linecap="round" stroke-linejoin="round"/><polyline fill="none" points="-368.76503571659333,-142.81906253836055 -366.26503571656804,-143.48893551939634 -364.4349086976029,-145.3190625382948 -363.765035716476,-147.8190625382957 -364.4349086975118,-150.31906253832102 -366.26503571641024,-152.14918955728615 -368.76503571641115,-152.81906253841302 -371.26503571643644,-152.14918955737724 -373.0951627354016,-150.3190625384788 -373.7650357165285,-147.81906253847788 -373.0951627354927,-145.31906253845256 -371.26503571659424,-143.48893551948743 -368.76503571659333,-142.81906253836055" stroke="#ffa500" stroke-linecap="round" stroke-linejoin="round"/><polyline fill="none" points="394.3476523339135,-177.34535102976045 396.8476523339388,-178.01522401079623 398.67777935290394,-179.84535102969468 399.34765233403084,-182.3453510296956 398.67777935299506,-184.84535102972092 396.8476523340966,-186.67547804868605 394.3476523340957,-187.34535102981292 391.8476523340704,-186.67547804877717 390.0175253151053,-184.8453510298787 389.3476523339784,-182.3453510298778 390.01752531501415,-179.84535102985248 391.8476523339126,-178.01522401088732 394.3476523339135,-177.34535102976045" stroke="#ffa500" stroke-linecap="round" stroke-linejoin="round"/></svg>