<?xml version="1.0" ?><!DOCTYPE svg  PUBLIC '-//W3C//DTD SVG 1.1//EN'  'http://www.w3.org/Graphics/SVG/1.1/DTD/svg11.dtd'><svg height="301.000" viewBox="-448.000 -230.000 900.000 301.000" width="900.000" xmlns="http://www.w3.org/2000/svg"><line fill="none" stroke="none" stroke-linecap="round" stroke-width="2.0" x1="0.0" x2="0.0" y1="0.0" y2="0.0"/><polygon fill="none" fill-rule="evenodd" points="0.0,0.0 0.0,0.0 0.0,0.0" stroke-linejoin="round"/><polyline fill="none" points="-419.8603384633716,-166.81505478540632 -417.3603384633449,-167.48492776643977 -415.53021144437736,-169.3150547853369 -414.8603384632478,-171.81505478533785 -415.53021144428124,-174.31505478536454 -417.3603384631784,-176.14518180433203 -419.86033846317935,-176.8150547854616 -422.36033846320606,-176.14518180442815 -424.1904654821736,-174.315054785531 -424.86033846330315,-171.81505478553007 -424.1904654822697,-169.31505478550338 -422.36033846337256,-167.4849277665359 -419.8603384633716,-166.81505478540632" stroke="#00f" stroke-linecap="round" stroke-linejoin="round"/><polyline fill="none" points="-396.1650176193336,-181.2234396683974 -393.66501761930687,-181.89331264943084 -391.83489060033935,-183.72343966832798 -391.1650176192098,-186.22343966832892 -391.8348906002432,-188.7234396683556 -393.6650176191404,-190.5535666873231 -396.16501761914134,-191.22343966845267 -398.66501761916805,-190.55356668741922 -400.49514463813557,-188.72343966852208 -401.16501761926514,-186.22343966852114 -400.4951446382317,-183.72343966849445 -398.66501761933455,-181.89331264952696 -396.1650176193336,-181.2234396683974" stroke="#008000" stroke-linecap="round" stroke-linejoin="round"/><polyline fill="none" points="-305.95831475833074,-148.63221609173237 -303.458314758304,-149.30208907276582 -301.6281877393365,-151.13221609166297 -300.95831475820694,-153.6322160916639 -301.6281877392404,-156.1322160916906 -303.45831475813753,-157.96234311065808 -305.9583147581385,-158.63221609178765 -308.4583147581652,-157.9623431107542 -310.28844177713273,-156.1322160918571 -310.9583147582623,-153.63221609185615 -310.28844177722885,-151.13221609182946 -308.4583147583317,-149.30208907286197 -305.95831475833074,-148.6322160917324" stroke="#ffa500" stroke-linecap="round" stroke-linejoin="round"/><polyline fill="none" points="-402.8956813691614,-182.5284310721542 -400.3956813691347,-183.19830405318766 -398.5655543501672,-185.02843107208477 -397.8956813690376,-187.5284310720857 -398.56555435007107,-190.0284310721124 -400.3956813689682,-191.85855809107989 -402.8956813689692,-192.52843107220946 -405.3956813689959,-191.858558091176 -407.2258083879634,-190.0284310722789 -407.895681369093,-187.52843107227795 -407.22580838805953,-185.02843107225124 -405.3956813691624,-183.19830405328375 -402.8956813691614,-182.52843107215418" stroke="#008000" stroke-linecap="round" stroke-linejoin="round"/><polyline fill="none" points="-410.7269756714965,-153.82950294730983 -408.2269756714698,-154.49937592834328 -406.3968486525023,-156.3295029472404 -405.7269756713727,-158.82950294724134 -406.39684865240616,-161.32950294726805 -408.2269756713033,-163.15962996623554 -410.7269756713043,-163.8295029473651 -413.226975671331,-163.15962996633166 -415.0571026902985,-161.32950294743455 -415.7269756714281,-158.8295029474336 -415.05710269039463,-156.3295029474069 -413.2269756714975,-154.4993759284394 -410.7269756714965,-153.82950294730983" stroke="#00f" stroke-linecap="round" stroke-linejoin="round"/><polyline fill="none" points="-428.96364692832856,-206.6664148887375 -426.46364692830184,-207.33628786977096 -424.6335199093343,-209.16641488866807 -423.96364692820475,-211.666414888669 -424.6335199092382,-214.16641488869573 -426.46364692813535,-215.99654190766321 -428.9636469281363,-216.6664148887928 -431.46364692816303,-215.99654190775934 -433.29377394713055,-214.16641488886222 -433.9636469282601,-211.66641488886128 -433.29377394722667,-209.16641488883457 -431.4636469283295,-207.33628786986708 -428.96364692832856,-206.6664148887375" stroke="#00f" stroke-linecap="round" stroke-linejoin="round"/><polyline fill="none" points="416.95355871713735,-170.95733810349827 419.45355871716407,-171.62721108453172 421.2836857361316,-173.45733810342884 421.95355871726116,-175.95733810342978 421.2836857362277,-178.4573381034565 419.45355871733057,-180.287465122424 416.9535587173296,-180.95733810355358 414.4535587173029,-180.28746512252013 412.62343169833537,-178.45733810362302 411.9535587172058,-175.95733810362208 412.62343169823924,-173.45733810359536 414.4535587171364,-171.62721108462785 416.95355871713735,-170.95733810349827" stroke="#ffa500" stroke-linecap="round" stroke-linejoin="round"/><polyline fill="none" points="-394.9224521346059,-152.43323077926811 -392.4224521345792,-153.10310376030156 -390.5923251156117,-154.93323077919868 -389.9224521344821,-157.43323077919962 -390.59232511551556,-159.93323077922634 -392.4224521344127,-161.76335779819385 -394.9224521344137,-162.43323077932342 -397.4224521344404,-161.76335779828997 -399.2525791534079,-159.93323077939286 -399.9224521345375,-157.43323077939192 -399.25257915350403,-154.9332307793652 -397.4224521346069,-153.1031037603977 -394.9224521346059,-152.43323077926811" stroke="#00f" stroke-linecap="round" stroke-linejoin="round"/><polyline fill="none" points="66.54968815413179,-58.34514845908393 69.04968815415849,-59.015021440117366 70.87981517312599,-60.84514845901449 71.54968815425558,-63.345148459015434 70.87981517322214,-65.84514845904214 69.04968815432503,-67.67527547800964 66.54968815432409,-68.34514845913922 64.04968815429739,-67.67527547810579 62.219561135329876,-65.84514845920867 61.54968815420029,-63.34514845920773 62.219561135233725,-60.84514845918102 64.04968815413085,-59.01502144021351 66.54968815413179,-58.34514845908392" stroke="#ffa500" stroke-linecap="round" stroke-linejoin="round"/><polyline fill="none" points="434.56836536287426,-185.8572590983967 437.068365362901,-186.52713207943012 438.8984923818685,-188.35725909832723 439.56836536299807,-190.85725909832817 438.8984923819646,-193.3572590983549 437.06836536306747,-195.1873861173224 434.5683653630665,-195.857259098452 432.0683653630398,-195.18738611741858 430.2382383440723,-193.35725909852147 429.5683653629427,-190.85725909852053 430.23823834397615,-188.3572590984938 432.0683653628733,-186.5271320795263 434.56836536287426,-185.8572590983967" stroke="#00f" stroke-linecap="round" stroke-linejoin="round"/><polyline fill="none" points="-423.1835350999284,-196.11221435881347 -420.6835350999017,-196.7820873398469 -418.8534080809342,-198.612214358744 -418.1835350998046,-201.11221435874495 -418.85340808083805,-203.61221435877167 -420.6835350997352,-205.44234137773918 -423.18353509973616,-206.11221435886878 -425.6835350997629,-205.44234137783536 -427.5136621187304,-203.61221435893825 -428.18353509985997,-201.1122143589373 -427.5136621188265,-198.6122143589106 -425.6835350999294,-196.78208733994308 -423.1835350999284,-196.11221435881347" stroke="#00f" stroke-linecap="round" stroke-linejoin="round"/><polyline fill="none" points="-345.9894773910292,-121.4204409484089 -343.4894773910025,-122.09031392944233 -341.65935037203496,-123.92044094833945 -340.9894773909054,-126.4204409483404 -341.65935037193884,-128.92044094836712 -343.489477390836,-130.75056796733463 -345.98947739083695,-131.42044094846423 -348.48947739086367,-130.7505679674308 -350.3196044098312,-128.9204409485337 -350.98947739096076,-126.42044094853274 -350.3196044099273,-123.92044094850603 -348.48947739103016,-122.09031392953851 -345.9894773910292,-121.42044094840891" stroke="#00f" stroke-linecap="round" stroke-linejoin="round"/><polyline fill="none" points="-375.13590222364917,-174.98434513614004 -372.63590222362245,-175.65421811717346 -370.80577520465494,-177.48434513607057 -370.13590222352536,-179.9843451360715 -370.8057752045588,-182.48434513609823 -372.63590222345596,-184.31447215506574 -375.1359022234569,-184.98434513619534 -377.63590222348364,-184.31447215516192 -379.46602924245116,-182.4843451362648 -380.13590222358073,-179.98434513626387 -379.4660292425473,-177.48434513623715 -377.6359022236502,-175.65421811726964 -375.1359022236492,-174.98434513614004" stroke="#ffa500" stroke-linecap="round" stroke-linejoin="round"/><polyline fill="none" points="-312.8479765499283,-70.51501045798744 -310.3479765499016,-71.18488343902087 -308.5178495309341,-73.01501045791798 -307.8479765498045,-75.51501045791892 -308.51784953083796,-78.01501045794564 -310.34797654973505,-79.84513747691315 -312.847976549736,-80.51501045804275 -315.34797654976273,-79.84513747700933 -317.17810356873025,-78.01501045811222 -317.8479765498599,-75.51501045811126 -317.17810356882643,-73.01501045808455 -315.34797654992934,-71.18488343911703 -312.8479765499284,-70.51501045798743" stroke="#ffa500" stroke-linecap="round" stroke-linejoin="round"/><polyline fill="none" points="-314.94802096702267,-145.00910448419768 -312.44802096699595,-145.6789774652311 -310.61789394802844,-147.50910448412822 -309.9480209668988,-150.00910448412915 -310.61789394793226,-152.50910448415587 -312.44802096682935,-154.3392315031234 -314.9480209668303,-155.009104484253 -317.44802096685703,-154.33923150321957 -319.27814798582455,-152.50910448432245 -319.9480209669542,-150.0091044843215 -319.2781479859208,-147.5091044842948 -317.4480209670237,-145.67897746532728 -314.9480209670227,-145.00910448419768" stroke="#ffa500" stroke-linecap="round" stroke-linejoin="round"/><polyline fill="none" points="-426.37512020070284,-204.65177301187708 -423.8751202006761,-205.3216459929105 -422.0449931817086,-207.15177301180762 -421.375120200579,-209.65177301180856 -422.04499318161237,-212.15177301183527 -423.87512020050946,-213.9819000308028 -426.3751202005104,-214.6517730119324 -428.87512020053714,-213.98190003089897 -430.70524721950466,-212.15177301200185 -431.3751202006343,-209.65177301200092 -430.7052472196009,-207.1517730119742 -428.8751202007038,-205.32164599300668 -426.37512020070284,-204.65177301187708" stroke="#00f" stroke-linecap="round" stroke-linejoin="round"/><polyline fill="none" points="-347.3429276727461,-156.0921818848385 -344.8429276727194,-156.76205486587193 -343.01280065375187,-158.59218188476905 -342.34292767262224,-161.09218188476999 -343.01280065365563,-163.5921818847967 -344.8429276725527,-165.42230890376422 -347.3429276725537,-166.09218188489382 -349.8429276725804,-165.4223089038604 -351.6730546915479,-163.59218188496328 -352.34292767267755,-161.09218188496234 -351.67305469164415,-158.59218188493563 -349.84292767274707,-156.7620548659681 -347.3429276727461,-156.0921818848385" stroke="#00f" stroke-linecap="round" stroke-linejoin="round"/><polyline fill="none" points="-337.485264747079,-72.50356631097299 -334.98526474705227,-73.1734392920064 -333.15513772808475,-75.00356631090352 -332.4852647469551,-77.50356631090446 -333.1551377279885,-80.00356631093118 -334.9852647468856,-81.83369332989871 -337.48526474688657,-82.50356631102832 -339.9852647469133,-81.8336933299949 -341.8153917658808,-80.00356631109779 -342.48526474701043,-77.50356631109685 -341.81539176597704,-75.00356631107013 -339.98526474707995,-73.1734392921026 -337.485264747079,-72.50356631097299" stroke="#ffa500" stroke-linecap="round" stroke-linejoin="round"/><polyline fill="none" points="-431.7509713102884,-208.49833729393256 -429.25097131026166,-209.168210274966 -427.42084429129415,-210.9983372938631 -426.7509713101645,-213.49833729386404 -427.4208442911979,-215.99833729389076 -429.250971310095,-217.8284643128583 -431.75097131009596,-218.4983372939879 -434.2509713101227,-217.82846431295448 -436.0810983290902,-215.99833729405736 -436.7509713102198,-213.49833729405643 -436.08109832918643,-210.9983372940297 -434.25097131028934,-209.16821027506217 -431.7509713102884,-208.49833729393254" stroke="#00f" stroke-linecap="round" stroke-linejoin="round"/><polyline fill="none" points="32.6534531777552,-68.25594096931262 35.15345317778193,-68.92581395034603 36.98358019674946,-70.75594096924313 37.65345317787907,-73.25594096924408 36.98358019684566,-75.7559409692708 35.15345317794855,-77.58606798823833 32.653453177947604,-78.25594096936794 30.15345317792088,-77.58606798833453 28.323326158953346,-75.75594096943743 27.653453177823728,-73.25594096943648 28.32332615885714,-70.75594096940975 30.153453177754244,-68.92581395044222 32.65345317775519,-68.2559409693126" stroke="#00f" stroke-linecap="round" stroke-linejoin="round"/><polyline fill="none" points="-357.91772531002664,-139.89337032528704 -355.4177253099999,-140.56324330632046 -353.5875982910324,-142.39337032521757 -352.9177253099028,-144.8933703252185 -353.58759829093617,-147.39337032524523 -355.41772530983326,-149.22349734421277 -357.9177253098342,-149.8933703253424 -360.41772530986094,-149.22349734430898 -362.24785232882846,-147.39337032541187 -362.9177253099581,-144.89337032541093 -362.2478523289247,-142.3933703253842 -360.4177253100276,-140.56324330641667 -357.91772531002664,-139.89337032528704" stroke="#ffa500" stroke-linecap="round" stroke-linejoin="round"/><polyline fill="none" points="-384.8452486747798,-150.78459317787002 -382.34524867475307,-151.45446615890344 -380.51512165578555,-153.28459317780056 -379.8452486746559,-155.7845931778015 -380.5151216556893,-158.2845931778282 -382.3452486745864,-160.11472019679576 -384.84524867458737,-160.7845931779254 -387.3452486746141,-160.114720196892 -389.1753756935816,-158.28459317799488 -389.84524867471123,-155.78459317799394 -389.17537569367784,-153.28459317796722 -387.34524867478075,-151.45446615899968 -384.8452486747798,-150.78459317787005" stroke="#ffa500" stroke-linecap="round" stroke-linejoin="round"/><polyline fill="none" points="-313.3932512756163,-143.55842291400768 -310.8932512755896,-144.22829589504107 -309.0631242566221,-146.0584229139382 -308.39325127549245,-148.55842291393913 -309.06312425652584,-151.05842291396584 -310.8932512754229,-152.8885499329334 -313.3932512754239,-153.55842291406302 -315.8932512754506,-152.88854993302962 -317.7233782944181,-151.0584229141325 -318.39325127554775,-148.55842291413157 -317.72337829451436,-146.05842291410485 -315.8932512756173,-144.2282958951373 -313.3932512756163,-143.55842291400768" stroke="#ffa500" stroke-linecap="round" stroke-linejoin="round"/><polyline fill="none" points="-419.3432673122783,-166.66807720181387 -416.84326731225156,-167.33795018284727 -415.01314029328404,-169.16807720174438 -414.3432673121544,-171.66807720174532 -415.0131402931878,-174.16807720177204 -416.8432673120849,-175.99820422073958 -419.34326731208586,-176.6680772018692 -421.8432673121126,-175.99820422083582 -423.6733943310801,-174.16807720193873 -424.3432673122097,-171.6680772019378 -423.6733943311763,-169.16807720191107 -421.84326731227924,-167.33795018294353 -419.3432673122783,-166.6680772018139" stroke="#00f" stroke-linecap="round" stroke-linejoin="round"/><polyline fill="none" points="-228.04087369202634,41.04093256355932 -225.54087369199962,40.37105958252592 -223.71074667303208,38.54093256362882 -223.04087369190245,36.04093256362788 -223.71074667293584,33.540932563601146 -225.54087369183293,31.7108055446336 -228.04087369183387,31.040932563503972 -230.5408736918606,31.710805544537372 -232.37100071082816,33.540932563434474 -233.04087369195778,36.04093256343542 -232.3710007109244,38.54093256346215 -230.5408736920273,40.371059582429695 -228.04087369202637,41.04093256355932" stroke="#ffa500" stroke-linecap="round" stroke-linejoin="round"/><polyline fill="none" points="-328.12097708768744,-133.7061230607274 -325.6209770876607,-134.3759960417608 -323.79085006869315,-136.2061230606579 -323.1209770875635,-138.70612306065883 -323.7908500685969,-141.20612306068557 -325.620977087494,-143.03625007965312 -328.12097708749496,-143.70612306078274 -330.6209770875217,-143.03625007974935 -332.45110410648925,-141.20612306085226 -333.1209770876189,-138.70612306085133 -332.4511041065855,-136.20612306082458 -330.6209770876884,-134.37599604185704 -328.12097708768744,-133.7061230607274" stroke="#ffa500" stroke-linecap="round" stroke-linejoin="round"/><polyline fill="none" points="408.6665170545543,-180.01626107329068 411.166517054581,-180.68613405432407 412.99664407354857,-182.51626107322116 413.6665170546782,-185.0162610732221 412.9966440736448,-187.51626107324884 411.1665170547477,-189.3463880922164 408.66651705474675,-190.01626107334602 406.16651705472003,-189.34638809231262 404.33639003575246,-187.51626107341554 403.66651705462283,-185.0162610734146 404.3363900356562,-182.51626107338785 406.1665170545533,-180.6861340544203 408.6665170545543,-180.01626107329068" stroke="#ffa500" stroke-linecap="round" stroke-linejoin="round"/><polyline fill="none" points="-346.50749855930195,-177.53901017501468 -344.00749855927523,-178.20888315604807 -342.17737154030766,-180.03901017494516 -341.50749855917803,-182.5390101749461 -342.1773715402114,-185.03901017497284 -344.0074985591085,-186.8691371939404 -346.5074985591095,-187.53901017507002 -349.0074985591362,-186.86913719403663 -350.83762557810377,-185.03901017513954 -351.5074985592334,-182.5390101751386 -350.8376255782,-180.03901017511186 -349.0074985593029,-178.2088831561443 -346.50749855930195,-177.53901017501468" stroke="#ffa500" stroke-linecap="round" stroke-linejoin="round"/><polyline fill="none" points="-244.40402477187882,-101.02533479375116 -241.90402477185208,-101.69520777478455 -240.07389775288453,-103.52533479368165 -239.4040247717549,-106.02533479368259 -240.0738977527883,-108.52533479370932 -241.90402477168539,-110.35546181267688 -244.40402477168632,-111.02533479380652 -246.90402477171307,-110.35546181277313 -248.7341517906806,-108.52533479387603 -249.40402477181024,-106.02533479387509 -248.73415179077685,-103.52533479384836 -246.90402477187976,-101.6952077748808 -244.40402477187882,-101.02533479375116" stroke="#ffa500" stroke-linecap="round" stroke-linejoin="round"/><polyline fill="none" points="-382.9753985381751,-157.64432880551186 -380.4753985381484,-158.31420178654525 -378.6452715191808,-160.14432880544234 -377.9753985380512,-162.64432880544328 -378.6452715190846,-165.14432880547002 -380.4753985379817,-166.97445582443757 -382.97539853798264,-167.6443288055672 -385.47539853800936,-166.9744558245338 -387.30552555697693,-165.14432880563672 -387.97539853810656,-162.64432880563578 -387.30552555707317,-160.14432880560904 -385.4753985381761,-158.3142017866415 -382.9753985381751,-157.64432880551183" stroke="#ffa500" stroke-linecap="round" stroke-linejoin="round"/><polyline fill="none" points="-311.50609630448463,-133.4051682831036 -309.0060963044579,-134.07504126413698 -307.17596928549034,-135.90516828303407 -306.5060963043607,-138.405168283035 -307.1759692853941,-140.90516828306176 -309.0060963042912,-142.73529530202933 -311.50609630429216,-143.40516828315899 -314.0060963043189,-142.7352953021256 -315.83622332328645,-140.9051682832285 -316.5060963044161,-138.40516828322757 -315.8362233233827,-135.90516828320082 -314.0060963044856,-134.07504126423325 -311.50609630448463,-133.4051682831036" stroke="#ffa500" stroke-linecap="round" stroke-linejoin="round"/><polyline fill="none" points="-361.4568407529579,-159.59155620646732 -358.95684075293116,-160.2614291875007 -357.1267137339636,-162.0915562063978 -356.45684075283395,-164.59155620639874 -357.12671373386735,-167.09155620642548 -358.95684075276444,-168.92168322539305 -361.4568407527654,-169.5915562065227 -363.9568407527921,-168.92168322548932 -365.7869677717597,-167.09155620659223 -366.4568407528893,-164.5915562065913 -365.7869677718559,-162.09155620656455 -363.95684075295884,-160.26142918759697 -361.4568407529579,-159.59155620646732" stroke="#00f" stroke-linecap="round" stroke-linejoin="round"/><polyline fill="none" points="-341.6853008385817,-78.58084335744037 -339.185300838555,-79.25071633847375 -337.35517381958743,-81.08084335737084 -336.6853008384578,-83.58084335737179 -337.3551738194912,-86.08084335739854 -339.1853008383883,-87.9109703763661 -341.68530083838925,-88.58084335749575 -344.18530083841597,-87.91097037646237 -346.01542785738354,-86.08084335756529 -346.6853008385132,-83.58084335756433 -346.0154278574798,-81.08084335753759 -344.1853008385827,-79.25071633857003 -341.6853008385817,-78.58084335744037" stroke="#00f" stroke-linecap="round" stroke-linejoin="round"/><polyline fill="none" points="-216.53468283329633,-2.3703480547596154 -214.03468283326958,-3.040221035792995 -212.204555814302,-4.8703480546900835 -211.53468283317235,-7.3703480546910285 -212.20455581420575,-9.87034805471777 -214.03468283310283,-11.700475073685336 -216.53468283310377,-12.37034805481499 -219.03468283313052,-11.700475073781611 -220.8648098520981,-9.870348054884523 -221.53468283322775,-7.3703480548835785 -220.86480985219438,-4.870348054856835 -219.0346828332973,-3.0402210358892674 -216.53468283329636,-2.3703480547596123" stroke="#ffa500" stroke-linecap="round" stroke-linejoin="round"/><polyline fill="none" points="-205.1520228636469,13.352895641909504 -202.65202286362015,12.683022660876127 -200.82189584465257,10.852895641979039 -200.15202286352292,8.352895641978094 -200.82189584455628,5.852895641951351 -202.65202286345337,4.022768622983782 -205.1520228634543,3.3528956418541256 -207.65202286348105,4.022768622887502 -209.48214988244862,5.852895641784588 -210.15202286357828,8.352895641785533 -209.48214988254492,10.852895641812278 -207.65202286364783,12.683022660779848 -205.1520228636469,13.352895641909505" stroke="#ffa500" stroke-linecap="round" stroke-linejoin="round"/><polyline fill="none" points="416.3679520900857,-191.73765956045952 418.8679520901124,-192.40753254149288 420.69807910907997,-194.23765956038997 421.36795209020966,-196.7376595603909 420.69807910917626,-199.23765956041765 418.8679520902792,-201.06778657938523 416.3679520902782,-201.73765956051489 413.8679520902515,-201.06778657948152 412.0378250712839,-199.23765956058443 411.36795209015423,-196.7376595605835 412.0378250711876,-194.23765956055675 413.8679520900847,-192.40753254158918 416.3679520900857,-191.73765956045952" stroke="#ffa500" stroke-linecap="round" stroke-linejoin="round"/><polyline fill="none" points="-321.36482201530276,-67.0722669376455 -318.864822015276,-67.74213991867887 -317.0346949963084,-69.57226693757596 -316.36482201517873,-72.07226693757691 -317.0346949962121,-74.57226693760366 -318.8648220151092,-76.40239395657123 -321.3648220151102,-77.07226693770089 -323.86482201513695,-76.40239395666751 -325.6949490341045,-74.57226693777042 -326.3648220152342,-72.07226693776947 -325.6949490342008,-69.57226693774273 -323.86482201530373,-67.74213991877515 -321.36482201530276,-67.0722669376455" stroke="#ffa500" stroke-linecap="round" stroke-linejoin="round"/><polyline fill="none" points="52.49676654869115,-61.222859635649925 54.99676654871789,-61.8927326166833 56.82689356768547,-63.72285963558038 57.49676654881513,-66.22285963558133 56.82689356778176,-68.72285963560807 54.99676654888468,-70.55298665457565 52.496766548883734,-71.2228596357053 49.99676654885699,-70.55298665467194 48.166639529889416,-68.72285963577485 47.49676654875975,-66.22285963577391 48.16663952979312,-63.72285963574717 49.9967665486902,-61.89273261677959 52.49676654869115,-61.222859635649925" stroke="#ffa500" stroke-linecap="round" stroke-linejoin="round"/><polyline fill="none" points="420.6929430419181,-175.20335049646985 423.1929430419449,-175.87322347750322 425.02307006091246,-177.7033504964003 425.69294304204215,-180.20335049640124 425.02307006100875,-182.703350496428 423.19294304211166,-184.53347751539556 420.6929430421107,-185.20335049652522 418.1929430420839,-184.53347751549185 416.36281602311635,-182.70335049659477 415.69294304198667,-180.20335049659383 416.36281602302006,-177.70335049656708 418.19294304191715,-175.8732234775995 420.6929430419181,-175.20335049646985" stroke="#ffa500" stroke-linecap="round" stroke-linejoin="round"/><polyline fill="none" points="67.51784933555196,-50.39354637325343 70.0178493355787,-51.06341935428679 71.84797635454628,-52.893546373183874 72.51784933567595,-55.39354637318482 71.84797635464258,-57.89354637321157 70.01784933574551,-59.72367339217915 67.51784933574456,-60.39354637330882 65.01784933571781,-59.72367339227546 63.18772231675023,-57.89354637337838 62.51784933562056,-55.39354637337743 63.187722316653925,-52.89354637335068 65.017849335551,-51.0634193543831 67.51784933555196,-50.39354637325343" stroke="#ffa500" stroke-linecap="round" stroke-linejoin="round"/><polyline fill="none" points="-308.544162713316,-150.09722124688554 -306.0441627132892,-150.7670942279189 -304.21403569432164,-152.597221246816 -303.54416271319195,-155.09722124681693 -304.2140356942253,-157.59722124684367 -306.0441627131224,-159.42734826581125 -308.54416271312334,-160.09722124694093 -311.0441627131501,-159.42734826590757 -312.8742897321177,-157.59722124701048 -313.5441627132474,-155.09722124700954 -312.87428973221404,-152.5972212469828 -311.04416271331695,-150.76709422801522 -308.544162713316,-150.09722124688554" stroke="#ffa500" stroke-linecap="round" stroke-linejoin="round"/><polyline fill="none" points="-341.32157234621513,-137.68088766457748 -338.82157234618836,-138.35076064561085 -336.9914453272208,-140.18088766450794 -336.3215723460911,-142.68088766450887 -336.99144532712444,-145.18088766453562 -338.8215723460215,-147.0110146835032 -341.3215723460225,-147.68088766463288 -343.82157234604927,-147.0110146835995 -345.65169936501684,-145.18088766470242 -346.3215723461465,-142.6808876647015 -345.6516993651132,-140.18088766467474 -343.8215723462161,-138.35076064570717 -341.32157234621513,-137.68088766457748" stroke="#ffa500" stroke-linecap="round" stroke-linejoin="round"/><polyline fill="none" points="-306.6377085942444,-141.47274319589934 -304.1377085942176,-142.1426161769327 -302.30758157525,-143.9727431958298 -301.63770859412034,-146.47274319583073 -302.3075815751537,-148.97274319585748 -304.13770859405076,-150.80287021482508 -306.63770859405173,-151.47274319595476 -309.1377085940785,-150.8028702149214 -310.9678356130461,-148.9727431960243 -311.63770859417576,-146.47274319602337 -310.9678356131424,-143.97274319599663 -309.13770859424534,-142.14261617702903 -306.6377085942444,-141.47274319589934" stroke="#ffa500" stroke-linecap="round" stroke-linejoin="round"/><polyline fill="none" points="-410.2897543349355,-165.16696927729956 -407.7897543349087,-165.83684225833292 -405.95962731594113,-167.66696927723 -405.28975433481145,-170.16696927723095 -405.9596273158448,-172.6669692772577 -407.7897543347419,-174.4970962962253 -410.28975433474284,-175.16696927735498 -412.7897543347696,-174.49709629632162 -414.6198813537372,-172.66696927742453 -415.28975433486687,-170.1669692774236 -414.61988135383353,-167.66696927739684 -412.78975433493645,-165.83684225842924 -410.2897543349355,-165.16696927729956" stroke="#008000" stroke-linecap="round" stroke-linejoin="round"/><polyline fill="none" points="-341.5723792159576,-111.59054563820557 -339.0723792159308,-112.26041861923892 -337.24225219696325,-114.09054563813599 -336.57237921583356,-116.59054563813694 -337.2422521968669,-119.0905456381637 -339.072379215764,-120.92067265713129 -341.57237921576495,-121.59054563826098 -344.0723792157917,-120.92067265722763 -345.9025062347593,-119.09054563833055 -346.572379215889,-116.5905456383296 -345.90250623485565,-114.09054563830284 -344.07237921595856,-112.26041861933524 -341.5723792159576,-111.59054563820555" stroke="#ffa500" stroke-linecap="round" stroke-linejoin="round"/><polyline fill="none" points="-329.8959117317279,-125.0089362279445 -327.3959117317011,-125.67880920897785 -325.56578471273355,-127.50893622787493 -324.89591173160386,-130.00893622787586 -325.5657847126372,-132.5089362279026 -327.3959117315343,-134.3390632468702 -329.89591173153525,-135.0089362279999 -332.395911731562,-134.33906324696656 -334.2260387505296,-132.5089362280695 -334.8959117316593,-130.00893622806856 -334.22603875062595,-127.5089362280418 -332.39591173172886,-125.6788092090742 -329.8959117317279,-125.00893622794452" stroke="#ffa500" stroke-linecap="round" stroke-linejoin="round"/><polyline fill="none" points="-251.6233967218102,-113.47817226865097 -249.12339672178342,-114.14804524968432 -247.29326970281582,-115.97817226858139 -246.62339672168613,-118.47817226858234 -247.29326970271947,-120.9781722686091 -249.12339672161653,-122.8082992875767 -251.62339672161747,-123.47817226870639 -254.12339672164424,-122.80829928767304 -255.95352374061184,-120.97817226877596 -256.6233967217415,-118.47817226877501 -255.9535237407082,-115.97817226874825 -254.12339672181113,-114.14804524978065 -251.6233967218102,-113.47817226865097" stroke="#ffa500" stroke-linecap="round" stroke-linejoin="round"/><polyline fill="none" points="-337.4263016690348,-93.84628733920798 -334.926301669008,-94.51616032024133 -333.09617465004044,-96.3462873391384 -332.42630166891075,-98.84628733913934 -333.0961746499441,-101.3462873391661 -334.9263016688412,-103.1764143581337 -337.42630166884214,-103.8462873392634 -339.9263016688689,-103.17641435823005 -341.7564286878365,-101.34628733933297 -342.4263016689662,-98.84628733933204 -341.75642868793284,-96.34628733930528 -339.92630166903575,-94.51616032033768 -337.4263016690348,-93.84628733920798" stroke="#00f" stroke-linecap="round" stroke-linejoin="round"/><polyline fill="none" points="-383.6367152223775,-129.72445793562522 -381.13671522235074,-130.39433091665856 -379.3065882033831,-132.22445793555562 -378.63671522225343,-134.72445793555656 -379.30658820328676,-137.22445793558333 -381.13671522218385,-139.05458495455093 -383.6367152221848,-139.72445793568062 -386.1367152222116,-139.05458495464728 -387.9668422411792,-137.22445793575022 -388.6367152223089,-134.72445793574929 -387.9668422412756,-132.2244579357225 -386.1367152223785,-130.3943309167549 -383.6367152223775,-129.72445793562522" stroke="#00f" stroke-linecap="round" stroke-linejoin="round"/><polyline fill="none" points="-388.4516262119358,-137.60669560237275 -385.951626211909,-138.2765685834061 -384.12149919294137,-140.10669560230315 -383.4516262118117,-142.6066956023041 -384.121499192845,-145.10669560233086 -385.9516262117421,-146.93682262129846 -388.4516262117431,-147.60669560242815 -390.95162621176985,-146.9368226213948 -392.7817532307375,-145.10669560249775 -393.45162621186716,-142.6066956024968 -392.78175323083383,-140.10669560247004 -390.95162621193674,-138.27656858350244 -388.4516262119358,-137.60669560237272" stroke="#ffa500" stroke-linecap="round" stroke-linejoin="round"/><polyline fill="none" points="-236.9694338490778,-89.6799013856509 -234.46943384905103,-90.34977436668423 -232.63930683008343,-92.17990138558129 -231.9694338489537,-94.67990138558224 -232.63930682998705,-97.17990138560901 -234.4694338488841,-99.01002840457662 -236.96943384888505,-99.67990138570632 -239.46943384891182,-99.01002840467298 -241.29956086787942,-97.17990138577592 -241.96943384900914,-94.67990138577497 -241.2995608679758,-92.1799013857482 -239.46943384907874,-90.34977436678058 -236.9694338490778,-89.67990138565088" stroke="#ffa500" stroke-linecap="round" stroke-linejoin="round"/><polyline fill="none" points="-202.54664929682096,-1.8491781379980656 -200.0466492967942,-2.5190511190314018 -198.21652227782658,-4.349178137928466 -197.54664929669687,-6.849178137929412 -198.2165222777302,-9.34917813795618 -200.04664929662727,-11.17930515692379 -202.5466492966282,-11.849178138053494 -205.04664929665498,-11.17930515702016 -206.87677631562258,-9.349178138123097 -207.5466492967523,-6.849178138122151 -206.87677631571896,-4.3491781380953825 -205.0466492968219,-2.519051119127771 -202.54664929682096,-1.8491781379980652" stroke="#ffa500" stroke-linecap="round" stroke-linejoin="round"/><polyline fill="none" points="-374.61822223242496,-143.6742928443221 -372.1182222323982,-144.34416582535545 -370.28809521343055,-146.1742928442525 -369.61822223230087,-148.67429284425344 -370.2880952133342,-151.17429284428022 -372.1182222322313,-153.00441986324782 -374.61822223223226,-153.67429284437753 -377.11822223225903,-153.0044198633442 -378.94834925122666,-151.17429284444714 -379.61822223235635,-148.6742928444462 -378.948349251323,-146.17429284441943 -377.1182222324259,-144.34416582545182 -374.61822223242496,-143.6742928443221" stroke="#00f" stroke-linecap="round" stroke-linejoin="round"/><polyline fill="none" points="-414.53652520581363,-166.85467362416477 -412.03652520578686,-167.5245466051981 -410.20639818681923,-169.35467362409517 -409.53652520568954,-171.8546736240961 -410.2063981867229,-174.35467362412288 -412.03652520561997,-176.18480064309048 -414.53652520562093,-176.8546736242202 -417.0365252056477,-176.18480064318686 -418.86665222461534,-174.3546736242898 -419.536525205745,-171.85467362428886 -418.8666522247117,-169.3546736242621 -417.0365252058146,-167.52454660529446 -414.53652520581363,-166.85467362416475" stroke="#00f" stroke-linecap="round" stroke-linejoin="round"/><polyline fill="none" points="-216.00521585498535,58.947330726670984 -213.50521585495858,58.277457745637655 -211.67508883599095,56.447330726740596 -211.00521585486123,53.94733072673965 -211.67508883589457,51.44733072671288 -213.50521585479163,49.61720370774526 -216.00521585479257,48.94733072661555 -218.50521585481934,49.617203707648876 -220.33534287378697,51.447330726545935 -221.00521585491668,53.94733072654688 -220.33534287388335,56.447330726573654 -218.5052158549863,58.27745774554127 -216.00521585498535,58.947330726670984" stroke="#ffa500" stroke-linecap="round" stroke-linejoin="round"/><polyline fill="none" points="-368.2938707970373,-128.1336741530794 -365.7938707970105,-128.80354713411273 -363.9637437780429,-130.6336741530098 -363.2938707969132,-133.13367415301073 -363.96374377794655,-135.6336741530375 -365.79387079684363,-137.46380117200513 -368.2938707968446,-138.13367415313485 -370.7938707968714,-137.4638011721015 -372.623997815839,-135.63367415320445 -373.29387079696875,-133.13367415320351 -372.6239978159354,-130.63367415317674 -370.7938707970383,-128.8035471342091 -368.29387079703736,-128.1336741530794" stroke="#ffa500" stroke-linecap="round" stroke-linejoin="round"/><polyline fill="none" points="-413.61819606684054,-179.74982028319263 -411.11819606681377,-180.41969326422597 -409.28806904784614,-182.24982028312303 -408.6181960667164,-184.74982028312397 -409.28806904774973,-187.24982028315074 -411.11819606664676,-189.07994730211837 -413.6181960666477,-189.74982028324808 -416.1181960666745,-189.07994730221475 -417.94832308564213,-187.2498202833177 -418.6181960667719,-184.74982028331675 -417.94832308573854,-182.24982028328998 -416.1181960668415,-180.41969326432235 -413.61819606684054,-179.74982028319263" stroke="#f00" stroke-linecap="round" stroke-linejoin="round"/><polyline fill="none" points="-385.7597644261504,-164.58081032514104 -383.25976442612364,-165.25068330617438 -381.429637407156,-167.08081032507144 -380.75976442602627,-169.58081032507238 -381.4296374070596,-172.08081032509915 -383.25976442595663,-173.91093734406678 -385.7597644259576,-174.5808103251965 -388.2597644259844,-173.9109373441632 -390.089891444952,-172.08081032526613 -390.75976442608174,-169.5808103252652 -390.0898914450484,-167.08081032523842 -388.2597644261514,-165.2506833062708 -385.7597644261504,-164.58081032514107" stroke="#008000" stroke-linecap="round" stroke-linejoin="round"/><polyline fill="none" points="-342.05311301487967,-94.06937328862412 -339.5531130148529,-94.73924626965744 -337.72298599588527,-96.5693732885545 -337.0531130147555,-99.06937328855545 -337.72298599578886,-101.56937328858223 -339.5531130146859,-103.39950030754986 -342.05311301468686,-104.06937328867959 -344.55311301471363,-103.39950030764626 -346.38324003368126,-101.5693732887492 -347.053113014811,-99.06937328874825 -346.38324003377767,-96.56937328872148 -344.55311301488064,-94.73924626975385 -342.05311301487967,-94.06937328862412" stroke="#ffa500" stroke-linecap="round" stroke-linejoin="round"/><polyline fill="none" points="-334.1793254832872,-101.006120061072 -331.6793254832604,-101.67599304210532 -329.8491984642928,-103.50612006100238 -329.17932548316304,-106.00612006100333 -329.8491984641964,-108.50612006103012 -331.6793254830934,-110.33624707999775 -334.1793254830944,-111.00612006112748 -336.67932548312115,-110.33624708009415 -338.5094525020888,-108.5061200611971 -339.1793254832185,-106.00612006119614 -338.5094525021852,-103.50612006116936 -336.67932548328815,-101.67599304220172 -334.1793254832872,-101.006120061072" stroke="#ffa500" stroke-linecap="round" stroke-linejoin="round"/><polyline fill="none" points="-247.69384770516592,25.547187192947654 -245.19384770513915,24.87731421191434 -243.36372068617152,23.047187193017287 -242.6938477050418,20.547187193016338 -243.3637206860751,18.047187192989558 -245.19384770497217,16.217060174021924 -247.6938477049731,15.547187192892196 -250.19384770499988,16.21706017392551 -252.0239747239675,18.047187192822562 -252.69384770509726,20.54718719282351 -252.02397472406395,23.047187192850295 -250.1938477051669,24.87731421181793 -247.69384770516595,25.547187192947657" stroke="#00f" stroke-linecap="round" stroke-linejoin="round"/><polyline fill="none" points="-376.7808083943884,-122.7881668345829 -374.2808083943616,-123.4580398156162 -372.45068137539397,-125.28816683451326 -371.7808083942642,-127.78816683451421 -372.45068137529756,-130.288166834541 -374.2808083941946,-132.11829385350862 -376.78080839419556,-132.78816683463836 -379.28080839422233,-132.11829385360505 -381.11093541318996,-130.288166834708 -381.7808083943197,-127.78816683470704 -381.11093541328637,-125.28816683468025 -379.28080839438934,-123.45803981571262 -376.7808083943884,-122.7881668345829" stroke="#00f" stroke-linecap="round" stroke-linejoin="round"/><polyline fill="none" points="-245.13250421985381,-92.54056617192559 -242.63250421982704,-93.2104391529589 -240.8023772008594,-95.04056617185594 -240.13250421972967,-97.5405661718569 -240.80237720076298,-100.04056617188368 -242.63250421966004,-101.87069319085131 -245.13250421966097,-102.54056617198104 -247.63250421968775,-101.87069319094773 -249.46263123865538,-100.04056617205069 -250.13250421978512,-97.54056617204974 -249.4626312387518,-95.04056617202295 -247.63250421985475,-93.2104391530553 -245.13250421985381,-92.54056617192556" stroke="#ffa500" stroke-linecap="round" stroke-linejoin="round"/><polyline fill="none" points="-360.76926010442617,-152.9255483380926 -358.2692601043994,-153.5954213191259 -356.43913308543176,-155.42554833802296 -355.769260104302,-157.9255483380239 -356.43913308533536,-160.42554833805067 -358.2692601042324,-162.2556753570183 -360.76926010423335,-162.92554833814805 -363.2692601042601,-162.25567535711474 -365.09938712322776,-160.42554833821768 -365.7692601043575,-157.92554833821674 -365.0993871233242,-155.42554833818997 -363.2692601044272,-153.59542131922234 -360.7692601044262,-152.9255483380926" stroke="#00f" stroke-linecap="round" stroke-linejoin="round"/><polyline fill="none" points="-356.44323997656227,-168.29924447431745 -353.9432399765355,-168.96911745535076 -352.11311295756786,-170.7992444742478 -351.4432399764381,-173.29924447424875 -352.1131129574714,-175.79924447427555 -353.94323997636843,-177.62937149324318 -356.4432399763694,-178.29924447437293 -358.94323997639617,-177.62937149333962 -360.7733669953638,-175.79924447444256 -361.44323997649354,-173.29924447444162 -360.77336699546026,-170.79924447441482 -358.94323997656323,-168.9691174554472 -356.44323997656227,-168.29924447431745" stroke="#ffa500" stroke-linecap="round" stroke-linejoin="round"/><polyline fill="none" points="-312.9278978218036,-87.95320233610794 -310.4278978217768,-88.62307531714124 -308.5977708028092,-90.45320233603829 -307.92789782167944,-92.95320233603924 -308.5977708027127,-95.45320233606603 -310.42789782160975,-97.28332935503367 -312.9278978216107,-97.95320233616341 -315.4278978216375,-97.2833293551301 -317.2580248406051,-95.45320233623306 -317.92789782173486,-92.95320233623211 -317.2580248407016,-90.45320233620532 -315.42789782180455,-88.62307531723768 -312.9278978218036,-87.95320233610794" stroke="#ffa500" stroke-linecap="round" stroke-linejoin="round"/><polyline fill="none" points="-334.60169415067884,-152.0547408816163 -332.10169415065207,-152.72461386264962 -330.27156713168444,-154.55474088154668 -329.6016941505547,-157.05474088154762 -330.271567131588,-159.55474088157442 -332.101694150485,-161.38486790054208 -334.60169415048597,-162.05474088167182 -337.10169415051274,-161.3848679006385 -338.9318211694804,-159.55474088174148 -339.6016941506101,-157.05474088174054 -338.93182116957684,-154.55474088171374 -337.1016941506798,-152.72461386274608 -334.60169415067884,-152.05474088161634" stroke="#ffa500" stroke-linecap="round" stroke-linejoin="round"/><polyline fill="none" points="-426.8986187330598,-184.4382845519802 -424.398618733033,-185.1081575330135 -422.5684917140654,-186.93828455191053 -421.89861873293563,-189.43828455191147 -422.5684917139689,-191.93828455193827 -424.39861873286594,-193.76841157090593 -426.8986187328669,-194.43828455203567 -429.3986187328937,-193.76841157100236 -431.2287457518613,-191.93828455210533 -431.89861873299105,-189.4382845521044 -431.2287457519578,-186.9382845520776 -429.39861873306074,-185.10815753310993 -426.8986187330598,-184.4382845519802" stroke="#00f" stroke-linecap="round" stroke-linejoin="round"/><polyline fill="none" points="-299.63919196306796,-57.85599464472295 -297.1391919630412,-58.52586762575624 -295.30906494407355,-60.355994644653286 -294.6391919629438,-62.85599464465424 -295.3090649439771,-65.35599464468103 -297.1391919628741,-67.18612166364869 -299.6391919628751,-67.85599464477845 -302.13919196290186,-67.18612166374515 -303.9693189818695,-65.35599464484811 -304.63919196299923,-62.85599464484716 -303.96931898196596,-60.35599464482036 -302.1391919630689,-58.525867625852705 -299.63919196306796,-57.85599464472295" stroke="#ffa500" stroke-linecap="round" stroke-linejoin="round"/><polyline fill="none" points="-420.9195022850407,-199.5837037119715 -418.41950228501395,-200.25357669300482 -416.5893752660463,-202.08370371190185 -415.9195022849166,-204.58370371190279 -416.58937526594985,-207.0837037119296 -418.4195022848469,-208.91383073089725 -420.91950228484785,-209.583703712027 -423.4195022848746,-208.9138307309937 -425.24962930384226,-207.08370371209668 -425.919502284972,-204.58370371209574 -425.2496293039387,-202.08370371206894 -423.4195022850417,-200.25357669310128 -420.9195022850407,-199.5837037119715" stroke="#ffa500" stroke-linecap="round" stroke-linejoin="round"/><polyline fill="none" points="58.940772768205576,-46.23266287700598 61.44077276823237,-46.90253585803927 63.27089978720003,-48.73266287693631 63.940772768329786,-51.23266287693726 63.27089978729649,-53.732662876964056 61.440772768399455,-55.562789895931715 58.9407727683985,-56.23266287706147 56.4407727683717,-55.56278989602818 54.61064574940404,-53.73266287713114 53.940772768274286,-51.23266287713019 54.61064574930757,-48.73266287710339 56.44077276820461,-46.90253585813573 58.94077276820556,-46.23266287700597" stroke="#ffa500" stroke-linecap="round" stroke-linejoin="round"/><polyline fill="none" points="-268.2804459492587,-115.08054305747241 -265.78044594923193,-115.7504160385057 -263.95031893026425,-117.58054305740275 -263.2804459491345,-120.0805430574037 -263.9503189301678,-122.5805430574305 -265.7804459490648,-124.41067007639816 -268.2804459490658,-125.08054305752792 -270.78044594909255,-124.41067007649463 -272.61057296806024,-122.58054305759758 -273.28044594919,-120.08054305759663 -272.6105729681567,-117.58054305756983 -270.7804459492597,-115.75041603860217 -268.2804459492587,-115.08054305747241" stroke="#00f" stroke-linecap="round" stroke-linejoin="round"/><polyline fill="none" points="-398.6196073506254,-145.53370106310234 -396.11960735059864,-146.20357404413562 -394.28948033163095,-148.03370106303265 -393.6196073505012,-150.5337010630336 -394.2894803315345,-153.0337010630604 -396.1196073504315,-154.86382808202805 -398.6196073504325,-155.53370106315782 -401.1196073504593,-154.86382808212454 -402.949734369427,-153.0337010632275 -403.61960735055675,-150.53370106322657 -402.94973436952347,-148.03370106319977 -401.11960735062644,-146.2035740442321 -398.6196073506255,-145.53370106310234" stroke="#00f" stroke-linecap="round" stroke-linejoin="round"/><polyline fill="none" points="-424.079370557252,-172.19731077006242 -421.57937055722516,-172.8671837510957 -419.7492435382575,-174.69731076999273 -419.07937055712773,-177.19731076999366 -419.749243538161,-179.69731077002047 -421.57937055705804,-181.52743778898812 -424.079370557059,-182.1973107701179 -426.57937055708584,-181.52743778908462 -428.4094975760535,-179.69731077018758 -429.07937055718327,-177.19731077018665 -428.40949757615,-174.69731077015985 -426.57937055725296,-172.8671837511922 -424.079370557252,-172.19731077006242" stroke="#00f" stroke-linecap="round" stroke-linejoin="round"/><polyline fill="none" points="-216.03333315529056,39.811866565981326 -213.53333315526376,39.14199358494804 -211.7032061362961,37.311866566051 -211.03333315516633,34.81186656605005 -211.7032061361996,32.31186656602325 -213.53333315509664,30.48173954705558 -216.03333315509758,29.81186656592581 -218.53333315512438,30.481739546959094 -220.36346017409204,32.31186656585613 -221.0333331552218,34.81186656585708 -220.36346017418853,37.31186656588388 -218.5333331552915,39.141993584851555 -216.03333315529056,39.811866565981326" stroke="#ffa500" stroke-linecap="round" stroke-linejoin="round"/><polyline fill="none" points="-365.09105444746467,-130.14256409300998 -362.59105444743784,-130.81243707404326 -360.76092742847015,-132.6425640929403 -360.0910544473404,-135.14256409294123 -360.7609274283737,-137.64256409296803 -362.5910544472707,-139.4726911119357 -365.0910544472717,-140.14256409306546 -367.5910544472985,-139.47269111203218 -369.4211814662662,-137.64256409313515 -370.091054447396,-135.1425640931342 -369.4211814663627,-132.6425640931074 -367.5910544474657,-130.81243707413975 -365.0910544474647,-130.14256409300998" stroke="#ffa500" stroke-linecap="round" stroke-linejoin="round"/><polyline fill="none" points="-215.53405938889978,11.62585467336874 -213.03405938887298,10.955981692335463 -211.20393236990532,9.12585467343843 -210.53405938877555,6.62585467343748 -211.20393236980883,4.125854673410674 -213.03405938870586,2.2957276544430014 -215.5340593887068,1.6258546733132273 -218.0340593887336,2.2957276543465035 -219.86418640770128,4.125854673243535 -220.53405938883105,6.6258546732444845 -219.86418640779777,9.125854673271292 -218.03405938890074,10.955981692238966 -215.5340593888998,11.625854673368742" stroke="#ffa500" stroke-linecap="round" stroke-linejoin="round"/><polyline fill="none" points="-220.90041285789587,55.66695626780892 -218.40041285786907,54.99708328677565 -216.57028583890138,53.16695626787862 -215.9004128577716,50.666956267877666 -216.5702858388049,48.16695626785086 -218.40041285770192,46.336829248883184 -220.90041285770286,45.666956267753406 -223.40041285772966,46.33682924878668 -225.23053987669735,48.16695626768371 -225.90041285782712,50.66695626768466 -225.23053987679384,53.16695626771147 -223.4004128578968,54.99708328667915 -220.90041285789587,55.66695626780893" stroke="#ffa500" stroke-linecap="round" stroke-linejoin="round"/><polyline fill="none" points="-239.932810637773,-122.26094534907769 -237.4328106377462,-122.93081833011095 -235.6026836187785,-124.76094534900798 -234.93281063764874,-127.26094534900894 -235.60268361868202,-129.76094534903575 -237.43281063757905,-131.59107236800344 -239.93281063758,-132.2609453491332 -242.4328106376068,-131.59107236809993 -244.26293765657448,-129.7609453492029 -244.93281063770425,-127.26094534920195 -244.26293765667097,-124.76094534917513 -242.43281063777394,-122.93081833020744 -239.932810637773,-122.26094534907766" stroke="#00f" stroke-linecap="round" stroke-linejoin="round"/><polyline fill="none" points="-371.2866037062354,-152.97301475705308 -368.78660370620855,-153.64288773808636 -366.95647668724087,-155.4730147569834 -366.28660370611107,-157.97301475698433 -366.95647668714435,-160.47301475701113 -368.7866037060414,-162.30314177597882 -371.28660370604234,-162.9730147571086 -373.7866037060692,-162.3031417760753 -375.61673072503686,-160.47301475717828 -376.28660370616666,-157.97301475717734 -375.6167307251334,-155.47301475715054 -373.78660370623635,-153.64288773818285 -371.2866037062354,-152.97301475705308" stroke="#00f" stroke-linecap="round" stroke-linejoin="round"/><polyline fill="none" points="-423.7037518614693,-200.89803846169488 -421.20375186144247,-201.56791144272816 -419.3736248424748,-203.3980384616252 -418.703751861345,-205.89803846162613 -419.37362484237826,-208.39803846165293 -421.2037518612753,-210.22816548062062 -423.70375186127626,-210.89803846175042 -426.2037518613031,-210.22816548071714 -428.0338788802708,-208.3980384618201 -428.7037518614006,-205.89803846181917 -428.0338788803673,-203.39803846179237 -426.20375186147027,-201.56791144282468 -423.7037518614693,-200.89803846169488" stroke="#ffa500" stroke-linecap="round" stroke-linejoin="round"/><polyline fill="none" points="-310.7927163654866,-45.65182287069674 -308.2927163654598,-46.321695851730006 -306.4625893464921,-48.15182287062703 -305.7927163653623,-50.65182287062798 -306.4625893463956,-53.1518228706548 -308.2927163652926,-54.981949889622484 -310.7927163652936,-55.65182287075228 -313.2927163653204,-54.98194988971901 -315.1228433842881,-53.15182287082199 -315.7927163654179,-50.651822870821036 -315.1228433843846,-48.15182287079422 -313.2927163654876,-46.32169585182653 -310.7927163654866,-45.65182287069674" stroke="#ffa500" stroke-linecap="round" stroke-linejoin="round"/><polyline fill="none" points="-221.66500215462872,46.725624240447715 -219.16500215460192,46.05575125941446 -217.33487513563423,44.22562424051743 -216.66500215450444,41.72562424051648 -217.3348751355377,39.225624240489665 -219.16500215443472,37.39549722152198 -221.66500215443565,36.725624240392186 -224.16500215446246,37.395497221425444 -225.99512917343014,39.22562424032247 -226.66500215455994,41.72562424032342 -225.9951291735267,44.225624240350236 -224.16500215462966,46.05575125931792 -221.66500215462872,46.725624240447715" stroke="#ffa500" stroke-linecap="round" stroke-linejoin="round"/><polyline fill="none" points="-353.122945748929,-91.61311125557452 -350.62294574890217,-92.28298423660779 -348.7928187299345,-94.1131112555048 -348.1229457488047,-96.61311125550576 -348.79281872983796,-99.11311125553257 -350.622945748735,-100.94323827450026 -353.12294574873596,-101.61311125563006 -355.6229457487628,-100.94323827459681 -357.4530727677305,-99.11311125569979 -358.1229457488603,-96.61311125569884 -357.453072767827,-94.11311125567202 -355.62294574892996,-92.28298423670434 -353.122945748929,-91.61311125557454" stroke="#00f" stroke-linecap="round" stroke-linejoin="round"/><polyline fill="none" points="-308.5745611857199,-79.78964353306593 -306.0745611856931,-80.45951651409918 -304.2444341667254,-82.2896435329962 -303.5745611855956,-84.78964353299715 -304.2444341666289,-87.28964353302396 -306.0745611855259,-89.11977055199165 -308.5745611855269,-89.78964353312145 -311.0745611855537,-89.1197705520882 -312.9046882045214,-87.28964353319118 -313.5745611856512,-84.78964353319023 -312.9046882046179,-82.28964353316341 -311.0745611857209,-80.45951651419571 -308.5745611857199,-79.78964353306591" stroke="#ffa500" stroke-linecap="round" stroke-linejoin="round"/><polyline fill="none" points="-389.4943566225541,-185.26518480498382 -386.9943566225273,-185.93505778601707 -385.1642296035596,-187.7651848049141 -384.4943566224298,-190.26518480491504 -385.16422960346307,-192.76518480494187 -386.9943566223601,-194.59531182390955 -389.49435662236107,-195.26518480503935 -391.9943566223879,-194.5953118240061 -393.8244836413556,-192.76518480510907 -394.4943566224854,-190.26518480510813 -393.8244836414521,-187.7651848050813 -391.9943566225551,-185.93505778611362 -389.4943566225541,-185.26518480498382" stroke="#00f" stroke-linecap="round" stroke-linejoin="round"/><polyline fill="none" points="-359.1033194488922,-129.99559069734292 -356.60331944886536,-130.66546367837617 -354.7731924298977,-132.4955906972732 -354.1033194487679,-134.99559069727414 -354.77319242980116,-137.49559069730097 -356.6033194486982,-139.32571771626866 -359.10331944869915,-139.99559069739846 -361.603319448726,-139.3257177163652 -363.43344646769367,-137.49559069746817 -364.10331944882347,-134.99559069746724 -363.43344646779025,-132.4955906974404 -361.6033194488932,-130.66546367847272 -359.10331944889225,-129.99559069734292" stroke="#ffa500" stroke-linecap="round" stroke-linejoin="round"/><polyline fill="none" points="-403.1476577883086,-176.6070071819789 -400.6476577882818,-177.27688016301215 -398.8175307693141,-179.10700718190915 -398.1476577881843,-181.6070071819101 -398.8175307692175,-184.10700718193692 -400.64765778811454,-185.93713420090464 -403.1476577881155,-186.60700718203444 -405.64765778814234,-185.9371342010012 -407.47778480711,-184.10700718210418 -408.1476577882398,-181.60700718210325 -407.4777848072066,-179.10700718207642 -405.6476577883096,-177.2768801631087 -403.1476577883086,-176.6070071819789" stroke="#008000" stroke-linecap="round" stroke-linejoin="round"/><polyline fill="none" points="-209.405972584105,4.844865753239057 -206.90597258407817,4.174992772205811 -205.07584556511046,2.344865753308796 -204.40597258398066,-0.15513424669215325 -205.0758455650139,-2.655134246718977 -206.9059725839109,-4.485261265686681 -209.40597258391185,-5.155134246816491 -211.90597258393868,-4.4852612657832465 -213.7360996029064,-2.6551342468862327 -214.4059725840362,-0.1551342468852832 -213.73609960300294,2.3448657531415416 -211.90597258410594,4.174992772109247 -209.405972584105,4.844865753239059" stroke="#ffa500" stroke-linecap="round" stroke-linejoin="round"/><polyline fill="none" points="58.65445196326243,-55.39013604772405 61.154451963289254,-56.06000902875729 62.98457898225696,-57.89013604765431 63.65445196338678,-60.39013604765526 62.98457898235353,-62.890136047682084 61.15445196345652,-64.72026306664979 58.65445196345557,-65.3901360477796 56.15445196342875,-64.72026306674637 54.32432494446104,-62.89013604784936 53.654451963331226,-60.39013604784841 54.32432494436447,-57.890136047821585 56.15445196326148,-56.06000902885388 58.65445196326243,-55.39013604772406" stroke="#ffa500" stroke-linecap="round" stroke-linejoin="round"/><polyline fill="none" points="-349.04142125854065,-142.60592853133667 -346.5414212585138,-143.27580151236992 -344.71129423954613,-145.10592853126693 -344.04142125841634,-147.60592853126786 -344.71129423944956,-150.1059285312947 -346.5414212583466,-151.9360555502624 -349.04142125834755,-152.60592853139224 -351.5414212583744,-151.936055550359 -353.3715482773421,-150.10592853146198 -354.04142125847187,-147.60592853146105 -353.37154827743865,-145.10592853143422 -351.5414212585416,-143.2758015124665 -349.04142125854065,-142.60592853133667" stroke="#ffa500" stroke-linecap="round" stroke-linejoin="round"/><polyline fill="none" points="-399.7004773284945,-147.46518584203812 -397.2004773284677,-148.13505882307138 -395.3703503095,-149.96518584196838 -394.7004773283702,-152.46518584196932 -395.3703503094034,-154.96518584199615 -397.20047732830045,-156.79531286096386 -399.7004773283014,-157.4651858420937 -402.20047732832825,-156.79531286106044 -404.03060434729593,-154.96518584216344 -404.70047732842573,-152.4651858421625 -404.0306043473925,-149.96518584213567 -402.2004773284955,-148.13505882316795 -399.7004773284945,-147.46518584203812" stroke="#00f" stroke-linecap="round" stroke-linejoin="round"/><polyline fill="none" points="-425.89037022313846,-209.34503205127874 -423.39037022311163,-210.01490503231196 -421.56024320414394,-211.84503205120896 -420.89037022301414,-214.3450320512099 -421.56024320404737,-216.84503205123673 -423.3903702229444,-218.67515907020444 -425.89037022294536,-219.34503205133427 -428.3903702229722,-218.67515907030105 -430.22049724193994,-216.84503205140405 -430.89037022306974,-214.3450320514031 -430.2204972420365,-211.84503205137628 -428.3903702231395,-210.01490503240856 -425.8903702231385,-209.34503205127874" stroke="#ffa500" stroke-linecap="round" stroke-linejoin="round"/><polyline fill="none" points="-420.0764629737534,-184.31266323386583 -417.57646297372656,-184.98253621489906 -415.7463359547588,-186.81266323379606 -415.076462973629,-189.312663233797 -415.74633595466224,-191.81266323382383 -417.5764629735593,-193.64279025279154 -420.07646297356024,-194.31266323392137 -422.57646297358707,-193.64279025288815 -424.4065899925548,-191.81266323399115 -425.0764629736846,-189.3126632339902 -424.4065899926514,-186.81266323396338 -422.57646297375436,-184.98253621499566 -420.0764629737534,-184.31266323386583" stroke="#008000" stroke-linecap="round" stroke-linejoin="round"/><polyline fill="none" points="-307.88818847016404,-53.85288652683347 -305.3881884701372,-54.5227595078667 -303.55806145116946,-56.35288652676371 -302.88818847003967,-58.852886526764664 -303.5580614510729,-61.352886526791494 -305.3881884699699,-63.183013545759216 -307.8881884699709,-63.852886526889044 -310.3881884699977,-63.183013545855815 -312.21831548896546,-61.35288652695881 -312.8881884700953,-58.85288652695786 -312.2183154890621,-56.35288652693103 -310.38818847016506,-54.52275950796331 -307.8881884701641,-53.85288652683348" stroke="#ffa500" stroke-linecap="round" stroke-linejoin="round"/><polyline fill="none" points="-324.2788668028933,-75.56398023657763 -321.77886680286645,-76.23385321761086 -319.9487397838987,-78.06398023650786 -319.27886680276885,-80.56398023650881 -319.94873978380207,-83.06398023653564 -321.7788668026991,-84.89410725550336 -324.27886680270007,-85.56398023663318 -326.7788668027269,-84.89410725559996 -328.60899382169464,-83.06398023670296 -329.2788668028245,-80.56398023670201 -328.6089938217913,-78.06398023667518 -326.77886680289424,-76.23385321770745 -324.2788668028933,-75.56398023657762" stroke="#ffa500" stroke-linecap="round" stroke-linejoin="round"/><polyline fill="none" points="-389.97817385213585,-178.0654631114382 -387.478173852109,-178.7353360924714 -385.6480468331413,-180.56546311136842 -384.9781738520114,-183.06546311136935 -385.64804683304465,-185.56546311139618 -387.4781738519417,-187.3955901303639 -389.97817385194264,-188.06546311149373 -392.4781738519695,-187.3955901304605 -394.3083008709372,-185.5654631115635 -394.9781738520671,-183.06546311156256 -394.30830087103385,-180.56546311153573 -392.4781738521369,-178.73533609256802 -389.9781738521359,-178.0654631114382" stroke="#ffa500" stroke-linecap="round" stroke-linejoin="round"/><polyline fill="none" points="-385.53776444792186,-145.698094215097 -383.03776444789503,-146.36796719613022 -381.2076374289273,-148.19809421502723 -380.53776444779743,-150.69809421502816 -381.20763742883065,-153.198094215055 -383.0377644477276,-155.0282212340227 -385.5377644477286,-155.69809421515254 -388.0377644477554,-155.02822123411931 -389.86789146672317,-153.1980942152223 -390.537764447853,-150.69809421522137 -389.8678914668198,-148.19809421519454 -388.0377644479228,-146.36796719622683 -385.53776444792186,-145.698094215097" stroke="#00f" stroke-linecap="round" stroke-linejoin="round"/><polyline fill="none" points="-401.3742582471407,-173.6331057563132 -398.87425824711386,-174.30297873734642 -397.0441312281461,-176.13310575624342 -396.37425824701626,-178.63310575624436 -397.0441312280495,-181.1331057562712 -398.87425824694645,-182.9632327752389 -401.3742582469474,-183.63310575636874 -403.87425824697425,-182.9632327753355 -405.704385265942,-181.1331057564385 -406.37425824707185,-178.63310575643757 -405.7043852660386,-176.13310575641074 -403.87425824714165,-174.302978737443 -401.3742582471407,-173.63310575631317" stroke="#00f" stroke-linecap="round" stroke-linejoin="round"/><polyline fill="none" points="-220.69528089658067,-105.8508153644321 -218.19528089655384,-106.52068834546532 -216.3651538775861,-108.35081536436232 -215.69528089645627,-110.85081536436327 -216.3651538774895,-113.35081536439012 -218.1952808963865,-115.18094238335784 -220.69528089638743,-115.85081536448769 -223.19528089641426,-115.18094238345446 -225.025407915382,-113.35081536455746 -225.69528089651183,-110.85081536455651 -225.0254079154786,-108.35081536452967 -223.1952808965816,-106.52068834556194 -220.69528089658067,-105.8508153644321" stroke="#ffa500" stroke-linecap="round" stroke-linejoin="round"/><polyline fill="none" points="-373.46197968826095,-143.3944950009009 -370.9619796882341,-144.0643679819341 -369.1318526692664,-145.8944950008311 -368.4619796881365,-148.39449500083205 -369.13185266916975,-150.89449500085888 -370.9619796880667,-152.72462201982663 -373.4619796880677,-153.39449500095648 -375.9619796880945,-152.72462201992326 -377.79210670706226,-150.89449500102626 -378.4619796881921,-148.39449500102532 -377.7921067071589,-145.8944950009985 -375.9619796882619,-144.06436798203075 -373.46197968826095,-143.3944950009009" stroke="#ffa500" stroke-linecap="round" stroke-linejoin="round"/><polyline fill="none" points="-317.41449716320056,-80.41695195141416 -314.91449716317373,-81.08682493244737 -313.084370144206,-82.91695195134437 -312.41449716307613,-85.41695195134533 -313.08437014410936,-87.91695195137217 -314.91449716300633,-89.7470789703399 -317.4144971630073,-90.41695195146974 -319.9144971630341,-89.74707897043653 -321.74462418200187,-87.91695195153953 -322.4144971631317,-85.41695195153858 -321.7446241820985,-82.91695195151173 -319.91449716320153,-81.08682493254399 -317.41449716320056,-80.41695195141415" stroke="#ffa500" stroke-linecap="round" stroke-linejoin="round"/><polyline fill="none" points="-339.377167604396,-156.00374837571744 -336.87716760436916,-156.67362135675066 -335.0470405854014,-158.50374837564766 -334.37716760427156,-161.0037483756486 -335.0470405853048,-163.50374837567543 -336.87716760420176,-165.33387539464317 -339.3771676042027,-166.00374837577303 -341.87716760422956,-165.3338753947398 -343.7072946231973,-163.5037483758428 -344.37716760432716,-161.00374837584187 -343.70729462329393,-158.503748375815 -341.87716760439696,-156.67362135684726 -339.377167604396,-156.0037483757174" stroke="#00f" stroke-linecap="round" stroke-linejoin="round"/><polyline fill="none" points="-242.75281543115338,-20.39589232439132 -240.25281543112652,-21.065765305424527 -238.42268841215878,-22.89589232432152 -237.75281543102892,-25.395892324322467 -238.42268841206214,-27.89589232434931 -240.25281543095915,-29.726019343317052 -242.75281543096008,-30.395892324446905 -245.25281543098694,-29.726019343413697 -247.0829424499547,-27.895892324516705 -247.75281543108454,-25.395892324515756 -247.08294245005135,-22.89589232448891 -245.25281543115435,-21.065765305521165 -242.7528154311534,-20.395892324391312" stroke="#00f" stroke-linecap="round" stroke-linejoin="round"/><polyline fill="none" points="-342.4623951778562,-102.58528993584015 -339.96239517782936,-103.25516291687336 -338.1322681588616,-105.08528993577035 -337.46239517773176,-107.5852899357713 -338.132268158765,-110.08528993579814 -339.96239517766196,-111.91541695476589 -342.4623951776629,-112.58528993589574 -344.96239517768976,-111.91541695486254 -346.7925221966575,-110.08528993596555 -347.46239517778736,-107.5852899359646 -346.79252219675413,-105.08528993593775 -344.96239517785716,-103.25516291697001 -342.4623951778562,-102.58528993584015" stroke="#ffa500" stroke-linecap="round" stroke-linejoin="round"/><polyline fill="none" points="-417.1698911958387,-166.91238891034226 -414.6698911958119,-167.58226189137545 -412.83976417684414,-169.41238891027245 -412.1698911957143,-171.9123889102734 -412.8397641767475,-174.41238891030025 -414.6698911956445,-176.242515929268 -417.16989119564545,-176.91238891039785 -419.6698911956723,-176.24251592936466 -421.50001821464,-174.41238891046766 -422.1698911957699,-171.91238891046672 -421.50001821473666,-169.41238891043986 -419.6698911958397,-167.58226189147211 -417.1698911958387,-166.91238891034226" stroke="#008000" stroke-linecap="round" stroke-linejoin="round"/><polyline fill="none" points="-391.7147199247001,-148.90152496596266 -389.21471992467326,-149.57139794699586 -387.3845929057055,-151.40152496589286 -386.71471992457566,-153.9015249658938 -387.3845929056089,-156.40152496592066 -389.21471992450586,-158.2316519848884 -391.7147199245068,-158.90152496601826 -394.21471992453365,-158.23165198498506 -396.0448469435014,-156.40152496608806 -396.71471992463125,-153.90152496608712 -396.04484694359803,-151.40152496606026 -394.21471992470106,-149.57139794709252 -391.7147199247001,-148.90152496596266" stroke="#ffa500" stroke-linecap="round" stroke-linejoin="round"/><polyline fill="none" points="416.7346565341352,-182.8941833784726 419.234656534162,-183.5640563595058 421.06478355312976,-185.39418337840277 421.7346565342596,-187.8941833784037 421.0647835532264,-190.39418337843057 419.2346565343294,-192.2243103973983 416.73465653432845,-192.89418337852817 414.2346565343016,-192.22431039749497 412.4045295153339,-190.394183378598 411.734656534204,-187.89418337859706 412.40452951523724,-185.3941833785702 414.2346565341342,-183.56405635960246 416.7346565341352,-182.8941833784726" stroke="#ffa500" stroke-linecap="round" stroke-linejoin="round"/></svg>