<?xml version="1.0" ?><!DOCTYPE svg  PUBLIC '-//W3C//DTD SVG 1.1//EN'  'http://www.w3.org/Graphics/SVG/1.1/DTD/svg11.dtd'><svg height="657.000" viewBox="-521.000 -304.000 786.000 657.000" width="786.000" xmlns="http://www.w3.org/2000/svg"><line fill="none" stroke="none" stroke-linecap="round" stroke-width="2.0" x1="0.0" x2="0.0" y1="0.0" y2="0.0"/><polygon fill="none" fill-rule="evenodd" points="0.0,0.0 0.0,0.0 0.0,0.0" stroke-linejoin="round"/><polyline fill="none" points="-74.99533036058762,122.59353944332811 -72.49533036055874,121.92366646229827 -70.66520334158756,120.09353944340319 -69.99533036045376,117.59353944340216 -70.6652033414836,115.09353944337329 -72.49533036037869,113.2634124244021 -74.99533036037971,112.59353944326831 -77.49533036040859,113.26341242429815 -79.32545737937977,115.09353944319324 -79.99533036051356,117.59353944319426 -79.32545737948372,120.09353944322314 -77.49533036058864,121.92366646219432 -74.99533036058762,122.59353944332811" stroke="#ffa500" stroke-linecap="round" stroke-linejoin="round"/><polyline fill="none" points="-151.72369742453157,14.919676998480456 -149.2236974245027,14.249804017450623 -147.3935704055315,12.41967699855554 -146.72369742439773,9.919676998554522 -147.39357040542757,7.419676998525647 -149.22369742432264,5.5895499795544605 -151.72369742432366,4.919676998420669 -154.22369742435254,5.5895499794505 -156.05382444332372,7.419676998345583 -156.7236974244575,9.9196769983466 -156.05382444342766,12.419676998375476 -154.2236974245326,14.249804017346664 -151.72369742453157,14.919676998480456" stroke="#ffa500" stroke-linecap="round" stroke-linejoin="round"/><polyline fill="none" points="123.70241071637584,-84.09732513739735 126.20241071640471,-84.76719811842717 128.0325377353759,-86.59732513732226 128.70241071650972,-89.09732513732328 128.03253773547988,-91.59732513735216 126.2024107165848,-93.42745215632334 123.70241071658377,-94.09732513745713 121.2024107165549,-93.42745215642731 119.3722836975837,-91.59732513753222 118.7024107164499,-89.0973251375312 119.37228369747973,-86.59732513750232 121.20241071637481,-84.76719811853113 123.70241071637584,-84.09732513739733" stroke="#ffa500" stroke-linecap="round" stroke-linejoin="round"/><polyline fill="none" points="-294.43764081791977,-222.8163201207529 -291.9376408178909,-223.48619310178273 -290.1075137989197,-225.3163201206778 -289.4376408177859,-227.81632012067882 -290.1075137988157,-230.3163201207077 -291.9376408177108,-232.14644713967888 -294.43764081771184,-232.8163201208127 -296.9376408177407,-232.14644713978285 -298.7677678367119,-230.31632012088778 -299.4376408178457,-227.81632012088676 -298.7677678368159,-225.31632012085788 -296.9376408179208,-223.4861931018867 -294.43764081791977,-222.8163201207529" stroke="#ffa500" stroke-linecap="round" stroke-linejoin="round"/><polyline fill="none" points="-319.76435025424115,-113.73862827813932 -317.2643502542123,-114.40850125916914 -315.43422323524106,-116.23862827806423 -314.7643502541073,-118.73862827806525 -315.4342232351371,-121.23862827809413 -317.2643502540322,-123.06875529706532 -319.7643502540332,-123.73862827819913 -322.2643502540621,-123.0687552971693 -324.0944772730333,-121.23862827827422 -324.7643502541671,-118.7386282782732 -324.0944772731373,-116.23862827824432 -322.2643502542422,-114.40850125927312 -319.76435025424115,-113.73862827813932" stroke="#00f" stroke-linecap="round" stroke-linejoin="round"/><polyline fill="none" points="-457.58016384158464,-132.9575699761845 -455.08016384155576,-133.6274429572143 -453.25003682258455,-135.45756997610937 -452.58016384145077,-137.9575699761104 -453.2500368224806,-140.45756997613927 -455.0801638413757,-142.28769699511048 -457.5801638413767,-142.9575699762443 -460.0801638414056,-142.28769699521447 -461.9102908603768,-140.4575699763194 -462.58016384151057,-137.95756997631838 -461.91029086048076,-135.4575699762895 -460.08016384158566,-133.6274429573183 -457.58016384158464,-132.9575699761845" stroke="#00f" stroke-linecap="round" stroke-linejoin="round"/><polyline fill="none" points="117.39079300283183,-196.78172854905984 119.8907930028607,-197.45160153008965 121.7209200218319,-199.28172854898472 122.39079300296571,-201.78172854898574 121.72092002193588,-204.28172854901462 119.8907930030408,-206.11185556798583 117.39079300303978,-206.78172854911963 114.89079300301088,-206.11185556808982 113.06066598403969,-204.28172854919475 112.39079300290588,-201.78172854919373 113.0606659839357,-199.28172854916485 114.89079300283079,-197.45160153019364 117.39079300283181,-196.78172854905984" stroke="#ffa500" stroke-linecap="round" stroke-linejoin="round"/><polyline fill="none" points="122.32531797929492,-279.0868116882642 124.82531797932381,-279.75668466929403 126.65544499829501,-281.58681168818913 127.32531797942882,-284.08681168819015 126.655444998399,-286.58681168821903 124.82531797950394,-288.41693870719024 122.32531797950291,-289.0868116883241 119.82531797947402,-288.41693870729426 117.99519096050282,-286.58681168839917 117.32531797936902,-284.08681168839814 117.99519096039883,-281.58681168836927 119.8253179792939,-279.75668466939806 122.32531797929492,-279.0868116882642" stroke="#ffa500" stroke-linecap="round" stroke-linejoin="round"/><polyline fill="none" points="-490.45567422637043,-144.52148338570206 -487.95567422634156,-145.19135636673187 -486.12554720737035,-147.02148338562694 -485.4556742262365,-149.52148338562796 -486.1255472072663,-152.02148338565684 -487.9556742261614,-153.85161040462805 -490.45567422616244,-154.52148338576185 -492.9556742261913,-153.85161040473204 -494.78580124516253,-152.02148338583697 -495.45567422629637,-149.52148338583595 -494.78580124526655,-147.02148338580707 -492.95567422637146,-145.19135636683586 -490.45567422637043,-144.52148338570206" stroke="#00f" stroke-linecap="round" stroke-linejoin="round"/><polyline fill="none" points="-378.01282138460556,-29.86709008978056 -375.5128213845767,-30.536963070810373 -373.68269436560547,-32.36709008970545 -373.01282138447164,-34.86709008970647 -373.68269436550145,-37.36709008973536 -375.51282138439655,-39.197217108706575 -378.01282138439757,-39.86709008984039 -380.51282138442645,-39.19721710881058 -382.34294840339766,-37.36709008991551 -383.0128213845315,-34.867090089914484 -382.3429484035017,-32.36709008988559 -380.5128213846066,-30.536963070914386 -378.01282138460556,-29.867090089780568" stroke="#00f" stroke-linecap="round" stroke-linejoin="round"/><polyline fill="none" points="37.65108754623031,170.1274529474516 40.1510875462592,169.45757996642178 41.98121456523041,167.6274529475267 42.651087546364224,165.12745294752568 41.98121456533441,162.6274529474968 40.15108754643934,160.7973259285256 37.65108754643832,160.1274529473918 35.15108754640943,160.7973259284216 33.32096052743822,162.62745294731667 32.651087546304396,165.1274529473177 33.32096052733421,167.62745294734657 35.15108754622928,169.45757996631778 37.6510875462303,170.1274529474516" stroke="#ffa500" stroke-linecap="round" stroke-linejoin="round"/><polyline fill="none" points="77.60139920359187,94.14707156963678 80.10139920362076,93.47719858860697 81.93152622259197,91.6470715697119 82.60139920372579,89.14707156971087 81.93152622269598,86.64707156968198 80.10139920380091,84.81694455071077 77.60139920379989,84.14707156957695 75.101399203771,84.81694455060676 73.27127218479978,86.64707156950183 72.60139920366596,89.14707156950286 73.27127218469577,91.64707156953175 75.10139920359084,93.47719858850296 77.60139920359187,94.14707156963678" stroke="#ffa500" stroke-linecap="round" stroke-linejoin="round"/><polyline fill="none" points="33.13572438222458,-209.47595908534913 35.63572438225347,-210.14583206637894 37.46585140122468,-211.975959085274 38.135724382358504,-214.47595908527504 37.4658514013287,-216.97595908530394 35.63572438243363,-218.80608610427515 33.135724382432606,-219.475959085409 30.635724382403716,-218.80608610437918 28.8055973634325,-216.9759590854841 28.135724382298676,-214.47595908548308 28.80559736332848,-211.97595908545418 30.63572438222355,-210.14583206648297 33.13572438222457,-209.47595908534913" stroke="#ffa500" stroke-linecap="round" stroke-linejoin="round"/><polyline fill="none" points="-228.33372739718922,-186.51906683056586 -225.83372739716032,-187.18893981159567 -224.0036003781891,-189.01906683049074 -223.33372739705527,-191.51906683049177 -224.00360037808508,-194.01906683052067 -225.83372739698015,-195.84919384949188 -228.33372739698117,-196.51906683062572 -230.83372739701008,-195.8491938495959 -232.6638544159813,-194.01906683070084 -233.33372739711513,-191.5190668306998 -232.66385441608531,-189.0190668306709 -230.83372739719024,-187.1889398116997 -228.33372739718922,-186.51906683056586" stroke="#00f" stroke-linecap="round" stroke-linejoin="round"/><polyline fill="none" points="115.2616220669646,341.0851938107559 117.7616220669935,340.4153208297261 119.59174908596472,338.5851938108311 120.26162206709856,336.08519381083005 119.59174908606876,333.5851938108012 117.76162206717369,331.75506679182996 115.26162206717267,331.0851938106961 112.76162206714378,331.75506679172594 110.93149504817255,333.585193810621 110.26162206703872,336.085193810622 110.93149504806851,338.5851938106509 112.76162206696358,340.4153208296221 115.2616220669646,341.0851938107559" stroke="#ffa500" stroke-linecap="round" stroke-linejoin="round"/><polyline fill="none" points="-61.49432642149993,-236.0687887433903 -58.99432642147103,-236.7386617244201 -57.164199402499804,-238.56878874331517 -56.494326421365976,-241.0687887433162 -57.164199402395774,-243.5687887433451 -58.994326421290836,-245.3989157623163 -61.49432642129186,-246.06878874345014 -63.99432642132076,-245.39891576242033 -65.82445344029198,-243.56878874352526 -66.49432642142581,-241.06878874352424 -65.82445344039601,-238.56878874349533 -63.99432642150095,-236.73866172452412 -61.49432642149993,-236.0687887433903" stroke="#ffa500" stroke-linecap="round" stroke-linejoin="round"/><polyline fill="none" points="-349.7048447945016,-139.36049563691662 -347.2048447944727,-140.0303686179464 -345.3747177755015,-141.86049563684148 -344.70484479436766,-144.3604956368425 -345.37471777539747,-146.8604956368714 -347.2048447942925,-148.69062265584262 -349.70484479429354,-149.36049563697645 -352.2048447943224,-148.69062265594667 -354.0349718132936,-146.8604956370516 -354.70484479442746,-144.36049563705058 -354.03497181339765,-141.86049563702167 -352.2048447945026,-140.03036861805043 -349.7048447945016,-139.3604956369166" stroke="#008000" stroke-linecap="round" stroke-linejoin="round"/><polyline fill="none" points="-117.34647360761507,-68.33497834828565 -114.84647360758616,-69.00485132931544 -113.01634658861494,-70.83497834821051 -112.3464736074811,-73.33497834821154 -113.0163465885109,-75.83497834824044 -114.84647360740597,-77.66510536721167 -117.34647360740699,-78.3349783483455 -119.8464736074359,-77.6651053673157 -121.67660062640712,-75.83497834842063 -122.34647360754096,-73.33497834841961 -121.67660062651116,-70.8349783483907 -119.8464736076161,-69.00485132941948 -117.34647360761508,-68.33497834828565" stroke="#ffa500" stroke-linecap="round" stroke-linejoin="round"/><polyline fill="none" points="-422.98141897518383,-190.59893715687537 -420.48141897515495,-191.26881013790515 -418.65129195618374,-193.09893715680022 -417.9814189750499,-195.59893715680124 -418.6512919560797,-198.09893715683015 -420.48141897497476,-199.9290641758014 -422.9814189749758,-200.59893715693522 -425.48141897500466,-199.92906417590544 -427.31154599397587,-198.09893715701037 -427.9814189751097,-195.59893715700935 -427.3115459940799,-193.09893715698044 -425.48141897518485,-191.2688101380092 -422.98141897518383,-190.59893715687537" stroke="#00f" stroke-linecap="round" stroke-linejoin="round"/><polyline fill="none" points="61.952100030475854,-255.93081059181083 64.45210003050475,-256.60068357284064 66.28222704947598,-258.4308105917357 66.95210003060981,-260.9308105917367 66.28222704958003,-263.4308105917656 64.45210003068497,-265.2609376107368 61.95210003068395,-265.9308105918706 59.452100030655046,-265.2609376108408 57.621973011683814,-263.4308105919458 56.95210003054997,-260.93081059194475 57.62197301157976,-258.4308105919159 59.452100030474824,-256.60068357294466 61.95210003047585,-255.93081059181083" stroke="#00f" stroke-linecap="round" stroke-linejoin="round"/><polyline fill="none" points="-35.35138926999944,-122.13967996421 -32.85138926997053,-122.80955294523979 -31.0212622509993,-124.63967996413484 -30.351389269865457,-127.13967996413587 -31.021262250895244,-129.63967996416477 -32.8513892697903,-131.469806983136 -35.351389269791326,-132.13967996426985 -37.85138926982023,-131.46980698324006 -39.681516288791464,-129.639679964345 -40.351389269925306,-127.13967996434397 -39.68151628889552,-124.63967996431506 -37.85138927000047,-122.80955294534382 -35.351389269999444,-122.13967996420998" stroke="#ffa500" stroke-linecap="round" stroke-linejoin="round"/><polyline fill="none" points="-306.2612793775376,-97.99094411955294 -303.7612793775087,-98.66081710058272 -301.9311523585375,-100.49094411947777 -301.26127937740364,-102.9909441194788 -301.93115235843345,-105.4909441195077 -303.7612793773285,-107.32107113847894 -306.2612793773295,-107.99094411961279 -308.76127937735845,-107.32107113858301 -310.59140639632966,-105.49094411968795 -311.2612793774635,-102.99094411968693 -310.5914063964337,-100.49094411965802 -308.76127937753864,-98.66081710068678 -306.2612793775376,-97.99094411955294" stroke="#ffa500" stroke-linecap="round" stroke-linejoin="round"/><polyline fill="none" points="-27.791567521580124,-212.28174774371797 -25.291567521551215,-212.95162072474776 -23.461440502579975,-214.78174774364282 -22.791567521446126,-217.28174774364385 -23.46144050247591,-219.78174774367275 -25.291567521370965,-221.611874762644 -27.791567521371988,-222.28174774377786 -30.291567521400896,-221.61187476274807 -32.12169454037214,-219.781747743853 -32.79156752150599,-217.28174774385198 -32.121694540476206,-214.78174774382308 -30.29156752158115,-212.95162072485184 -27.791567521580127,-212.28174774371797" stroke="#ffa500" stroke-linecap="round" stroke-linejoin="round"/><polyline fill="none" points="-294.63412763026173,-20.959429960590658 -292.1341276302328,-21.629302941620438 -290.30400061126153,-23.459429960515493 -289.6341276301277,-25.959429960516516 -290.30400061115745,-28.459429960545425 -292.1341276300525,-30.289556979516668 -294.6341276300535,-30.95942996065052 -297.13412763008245,-30.28955697962074 -298.9642546490537,-28.459429960725686 -299.63412763018755,-25.959429960724663 -298.9642546491578,-23.459429960695754 -297.13412763026275,-21.62930294172451 -294.63412763026173,-20.959429960590654" stroke="#00f" stroke-linecap="round" stroke-linejoin="round"/><polyline fill="none" points="119.09137158541854,-144.29663026269344 121.59137158544745,-144.96650324372322 123.42149860441869,-146.79663026261827 124.09137158555254,-149.2966302626193 123.42149860452275,-151.7966302626482 121.5913715856277,-153.62675728161943 119.09137158562667,-154.2966302627533 116.59137158559777,-153.6267572817235 114.76124456662653,-151.79663026282847 114.09137158549267,-149.29663026282745 114.76124456652244,-146.79663026279854 116.59137158541749,-144.9665032438273 119.09137158541851,-144.29663026269344" stroke="#00f" stroke-linecap="round" stroke-linejoin="round"/><polyline fill="none" points="188.28164105290907,-191.81273960852818 190.78164105293797,-192.48261258955796 192.6117680719092,-194.312739608453 193.28164105304307,-196.81273960845402 192.6117680720133,-199.31273960848293 190.78164105311825,-201.14286662745417 188.28164105311723,-201.81273960858803 185.78164105308832,-201.14286662755825 183.95151403411708,-199.3127396086632 183.28164105298322,-196.81273960866218 183.951514034013,-194.31273960863328 185.78164105290804,-192.48261258966204 188.28164105290907,-191.81273960852818" stroke="#00f" stroke-linecap="round" stroke-linejoin="round"/><polyline fill="none" points="14.200181125735945,71.15000049801617 16.70018112576486,70.4801275169864 18.53030814473611,68.65000049809134 19.200181125869975,66.15000049809032 18.530308144840202,63.65000049806141 16.70018112594515,61.819873479090155 14.200181125944127,61.15000049795629 11.700181125915211,61.81987347898606 9.87005410694396,63.65000049788111 9.200181125810095,66.15000049788213 9.870054106839866,68.65000049791105 11.700181125734918,70.4801275168823 14.200181125735941,71.15000049801617" stroke="#ffa500" stroke-linecap="round" stroke-linejoin="round"/><polyline fill="none" points="-88.79845920528777,-7.203727043122225 -86.29845920525885,-7.873600024151995 -84.4683321862876,-9.703727043047046 -83.79845920515373,-12.203727043048069 -84.4683321861835,-14.703727043076984 -86.29845920507856,-16.53385406204824 -88.79845920507958,-17.203727043182106 -91.2984592051085,-16.533854062152336 -93.12858622407975,-14.703727043257286 -93.79845920521362,-12.203727043256263 -93.12858622418385,-9.703727043227346 -91.2984592052888,-7.87360002425609 -88.79845920528777,-7.203727043122222" stroke="#ffa500" stroke-linecap="round" stroke-linejoin="round"/><polyline fill="none" points="-199.69814802857314,-205.85934601809413 -197.19814802854424,-206.52921899912388 -195.36802100957297,-208.35934601801893 -194.6981480284391,-210.85934601801995 -195.36802100946886,-213.35934601804885 -197.1981480283639,-215.18947303702012 -199.69814802836493,-215.85934601815399 -202.19814802839383,-215.18947303712423 -204.0282750473651,-213.3593460182292 -204.69814802849896,-210.85934601822817 -204.0282750474692,-208.35934601819926 -202.19814802857417,-206.529218999228 -199.69814802857314,-205.85934601809413" stroke="#ffa500" stroke-linecap="round" stroke-linejoin="round"/><polyline fill="none" points="-275.3753107755825,-20.07079134247418 -272.87531077555354,-20.740664323503946 -271.0451837565823,-22.570791342398994 -270.3753107754484,-25.070791342400017 -271.04518375647814,-27.570791342428937 -272.8753107753732,-29.400918361400194 -275.3753107753742,-30.070791342534065 -277.87531077540314,-29.4009183615043 -279.7054377943744,-27.57079134260925 -280.3753107755083,-25.070791342608228 -279.70543779447854,-22.57079134257931 -277.8753107755835,-20.740664323608048 -275.3753107755825,-20.070791342474173" stroke="#ffa500" stroke-linecap="round" stroke-linejoin="round"/><polyline fill="none" points="-401.1638558248484,-69.2661085371774 -398.66385582481945,-69.93598151820717 -396.8337288058482,-71.76610853710221 -396.1638558247143,-74.26610853710324 -396.83372880574404,-76.76610853713215 -398.6638558246391,-78.59623555610341 -401.1638558246401,-79.26610853723729 -403.66385582466904,-78.59623555620752 -405.4939828436403,-76.76610853731248 -406.1638558247742,-74.26610853731145 -405.49398284374445,-71.76610853728253 -403.6638558248494,-69.93598151831127 -401.1638558248484,-69.26610853717739" stroke="#ffa500" stroke-linecap="round" stroke-linejoin="round"/><polyline fill="none" points="-141.5092507179865,-194.63041903923755 -139.00925071795757,-195.3002920202673 -137.1791236989863,-197.13041903916235 -136.50925071785244,-199.63041903916337 -137.1791236988822,-202.1304190391923 -139.00925071777723,-203.96054605816357 -141.50925071777826,-204.63041903929744 -144.0092507178072,-203.96054605826768 -145.83937773677846,-202.13041903937264 -146.50925071791235,-199.63041903937162 -145.8393777368826,-197.13041903934268 -144.00925071798756,-195.30029202037142 -141.50925071798653,-194.63041903923752" stroke="#00f" stroke-linecap="round" stroke-linejoin="round"/><polyline fill="none" points="-465.2487722711325,-112.43112776412958 -462.7487722711036,-113.10100074515934 -460.9186452521323,-114.93112776405438 -460.2487722709984,-117.4311277640554 -460.91864525202817,-119.93112776408432 -462.7487722709232,-121.76125478305559 -465.24877227092423,-122.43112776418947 -467.74877227095317,-121.76125478315971 -469.57889928992444,-119.93112776426467 -470.24877227105833,-117.43112776426365 -469.5788992900286,-114.93112776423473 -467.74877227113353,-113.10100074526346 -465.2487722711325,-112.43112776412958" stroke="#ffa500" stroke-linecap="round" stroke-linejoin="round"/><polyline fill="none" points="-250.5620924019026,46.51148804160167 -248.06209240187366,45.84161506057192 -246.2319653829024,44.01148804167688 -245.5620924017685,41.511488041675854 -246.23196538279825,39.01148804164693 -248.0620924016933,37.18136102267566 -250.56209240169431,36.511488041541774 -253.06209240172325,37.18136102257153 -254.89221942069452,39.01148804146657 -255.5620924018284,41.511488041467594 -254.89221942079865,44.01148804149652 -253.0620924019036,45.84161506046779 -250.5620924019026,46.51148804160167" stroke="#ffa500" stroke-linecap="round" stroke-linejoin="round"/><polyline fill="none" points="80.13313580847534,187.86681753444756 82.63313580850428,187.1969445534178 84.46326282747555,185.36681753452277 85.13313580860942,182.86681753452174 84.46326282757967,180.3668175344928 82.63313580868463,178.53669051552154 80.1331358086836,177.86681753438765 77.63313580865467,178.5366905154174 75.8030087896834,180.36681753431245 75.13313580854951,182.86681753431347 75.80300878957927,185.3668175343424 77.63313580847431,187.19694455331367 80.13313580847533,187.86681753444756" stroke="#ffa500" stroke-linecap="round" stroke-linejoin="round"/><polyline fill="none" points="-393.5527758492099,-101.55192816371238 -391.052775849181,-102.22180114474213 -389.2226488302097,-104.05192816363717 -388.55277584907583,-106.5519281636382 -389.2226488301056,-109.05192816366713 -391.0527758490006,-110.8820551826384 -393.55277584900165,-111.55192816377229 -396.0527758490306,-110.88205518274253 -397.88290286800185,-109.05192816384749 -398.55277584913574,-106.55192816384647 -397.882902868106,-104.05192816381754 -396.05277584921095,-102.22180114484627 -393.5527758492099,-101.55192816371238" stroke="#f00" stroke-linecap="round" stroke-linejoin="round"/><polyline fill="none" points="-20.78053975196433,-166.00012460423576 -18.2805397519354,-166.66999758526552 -16.450412732964125,-168.50012460416056 -15.780539751830235,-171.00012460416158 -16.450412732859984,-173.50012460419052 -18.280539751755022,-175.3302516231618 -20.780539751756045,-176.00012460429568 -23.280539751784975,-175.33025162326592 -25.11066677075625,-173.50012460437088 -25.780539751890142,-171.00012460436986 -25.110666770860394,-168.50012460434093 -23.280539751965357,-166.66999758536966 -20.780539751964334,-166.00012460423576" stroke="#ffa500" stroke-linecap="round" stroke-linejoin="round"/><polyline fill="none" points="177.6993597689709,-161.22655662202024 180.19935976899984,-161.89642960305 182.0294867879711,-163.72655662194504 182.699359769105,-166.22655662194606 182.02948678807525,-168.726556621975 180.1993597691802,-170.55668364094626 177.69935976917918,-171.22655662208015 175.19935976915025,-170.5566836410504 173.36923275017898,-168.72655662215536 172.6993597690451,-166.22655662215433 173.36923275007484,-163.7265566221254 175.19935976896988,-161.89642960315413 177.6993597689709,-161.22655662202024" stroke="#ffa500" stroke-linecap="round" stroke-linejoin="round"/><polyline fill="none" points="247.54329030766405,-158.349171027271 250.04329030769298,-159.01904400830077 251.87341732666425,-160.8491710271958 252.54329030779815,-163.34917102719683 251.8734173267684,-165.84917102722576 250.04329030787335,-167.67929804619703 247.54329030787233,-168.34917102733093 245.0432903078434,-167.67929804630117 243.21316328887212,-165.84917102740613 242.54329030773823,-163.3491710274051 243.213163288768,-160.84917102737617 245.04329030766303,-159.0190440084049 247.54329030766405,-158.349171027271" stroke="#ffa500" stroke-linecap="round" stroke-linejoin="round"/><polyline fill="none" points="-375.5567110447903,-97.45505580874368 -373.05671104476136,-98.12492878977342 -371.2265840257901,-99.95505580866846 -370.5567110446562,-102.45505580866948 -371.22658402568595,-104.95505580869842 -373.056711044581,-106.7851828276697 -375.556711044582,-107.45505580880359 -378.05671104461095,-106.78518282777385 -379.8868380635822,-104.95505580887881 -380.5567110447161,-102.45505580887779 -379.88683806368635,-99.95505580884885 -378.0567110447913,-98.12492878987757 -375.5567110447903,-97.45505580874367" stroke="#00f" stroke-linecap="round" stroke-linejoin="round"/><polyline fill="none" points="121.42331859532149,-233.25929103273006 123.92331859535042,-233.9291640137598 125.7534456143217,-235.75929103265483 126.42331859545561,-238.25929103265585 125.75344561442587,-240.75929103268479 123.92331859553084,-242.58941805165608 121.42331859552982,-243.25929103278997 118.92331859550089,-242.58941805176025 117.0931915765296,-240.7592910328652 116.4233185953957,-238.25929103286418 117.09319157642544,-235.75929103283525 118.92331859532047,-233.92916401386395 121.42331859532149,-233.25929103273006" stroke="#ffa500" stroke-linecap="round" stroke-linejoin="round"/><polyline fill="none" points="-119.81568506436636,-142.33727956061952 -117.31568506433743,-143.00715254164925 -115.48555804536615,-144.8372795605443 -114.81568506423224,-147.3372795605453 -115.48555804526198,-149.83727956057425 -117.31568506415701,-151.66740657954554 -119.81568506415803,-152.33727956067943 -122.31568506418697,-151.6674065796497 -124.14581208315825,-149.83727956075467 -124.81568506429215,-147.33727956075364 -124.14581208326241,-144.8372795607247 -122.31568506436739,-143.0071525417534 -119.81568506436636,-142.33727956061952" stroke="#ffa500" stroke-linecap="round" stroke-linejoin="round"/><polyline fill="none" points="58.45754763885858,92.41373062772978 60.95754763888752,91.74385764670004 62.78767465785881,89.91373062780501 63.457547638992715,87.41373062780399 62.78767465796298,84.91373062777505 60.957547639067954,83.08360360880376 58.45754763906693,82.41373062766985 55.95754763903799,83.08360360869959 54.1274206200667,84.91373062759462 53.457547638932795,87.41373062759564 54.12742061996253,89.91373062762457 55.957547638857555,91.74385764659587 58.45754763885858,92.41373062772978" stroke="#ffa500" stroke-linecap="round" stroke-linejoin="round"/><polyline fill="none" points="184.70454464852298,284.6745566411997 187.20454464855192,284.0046836601699 189.0346716675232,282.1745566412749 189.70454464865713,279.67455664127385 189.0346716676274,277.1745566412449 187.20454464873237,275.34442962227365 184.70454464873134,274.67455664113976 182.2045446487024,275.3444296221695 180.3744176297311,277.17455664106456 179.7045446485972,279.6745566410656 180.37441762962692,282.1745566410945 182.20454464852196,284.0046836600658 184.70454464852298,284.6745566411997" stroke="#ffa500" stroke-linecap="round" stroke-linejoin="round"/><polyline fill="none" points="-327.7217617263738,-212.0821394803076 -325.2217617263449,-212.75201246133733 -323.3916347073736,-214.58213948023237 -322.7217617262397,-217.0821394802334 -323.3916347072695,-219.58213948026233 -325.2217617261645,-221.41226649923362 -327.72176172616554,-222.08213948036754 -330.2217617261945,-221.41226649933782 -332.05188874516574,-219.58213948044278 -332.72176172629963,-217.08213948044175 -332.0518887452699,-214.58213948041282 -330.22176172637484,-212.75201246144152 -327.7217617263738,-212.0821394803076" stroke="#00f" stroke-linecap="round" stroke-linejoin="round"/><polyline fill="none" points="-285.8450678885967,30.900016106985735 -283.34506788856777,30.23014312595601 -281.51494086959644,28.40001610706098 -280.84506788846255,25.900016107059955 -281.5149408694923,23.400016107031014 -283.34506788838735,21.569889088059718 -285.84506788838837,20.9000161069258 -288.3450678884173,21.569889087955527 -290.17519490738863,23.400016106850554 -290.8450678885225,25.90001610685158 -290.1751949074928,28.400016106880525 -288.3450678885978,30.230143125851825 -285.84506788859676,30.900016106985742" stroke="#00f" stroke-linecap="round" stroke-linejoin="round"/><polyline fill="none" points="94.82697526548135,109.3468387132749 97.3269752655103,108.67696573224518 99.1571022844816,106.84683871335015 99.82697526561552,104.34683871334913 99.15710228458579,101.84683871332018 97.32697526569076,100.01671169434888 94.82697526568974,99.34683871321496 92.32697526566079,100.01671169424469 90.4968482466895,101.84683871313972 89.82697526555557,104.34683871314074 90.4968482465853,106.84683871316969 92.32697526548033,108.67696573214099 94.82697526548135,109.3468387132749" stroke="#ffa500" stroke-linecap="round" stroke-linejoin="round"/><polyline fill="none" points="-360.4287525878553,-218.00697740076862 -357.92875258782635,-218.67685038179835 -356.098625568855,-220.50697740069336 -355.4287525877211,-223.00697740069438 -356.0986255687508,-225.50697740072331 -357.9287525876458,-227.3371044196946 -360.42875258764684,-228.00697740082853 -362.9287525876758,-227.3371044197988 -364.7588796066471,-225.5069774009038 -365.42875258778105,-223.00697740090277 -364.75887960675135,-220.50697740087384 -362.9287525878563,-218.67685038190254 -360.4287525878553,-218.00697740076862" stroke="#ffa500" stroke-linecap="round" stroke-linejoin="round"/><polyline fill="none" points="-293.51797771518886,-188.47002610375395 -291.01797771515993,-189.13989908478368 -289.1878506961886,-190.9700261036787 -288.51797771505466,-193.47002610367971 -289.18785069608435,-195.97002610370865 -291.0179777149794,-197.80015312267994 -293.5179777149804,-198.47002610381386 -296.01797771500935,-197.80015312278414 -297.8481047339807,-195.97002610388913 -298.5179777151146,-193.4700261038881 -297.8481047340849,-190.97002610385917 -296.0179777151899,-189.13989908488787 -293.51797771518886,-188.47002610375395" stroke="#00f" stroke-linecap="round" stroke-linejoin="round"/><polyline fill="none" points="137.72378752082767,-100.05419054954498 140.2237875208566,-100.7240635305747 142.0539145398279,-102.55419054946972 142.72378752096182,-105.05419054947075 142.0539145399321,-107.5541905494997 140.22378752103708,-109.384317568471 137.72378752103606,-110.05419054960494 135.2237875210071,-109.38431756857523 133.3936605020358,-107.5541905496802 132.72378752090188,-105.05419054967918 133.3936605019316,-102.55419054965023 135.22378752082662,-100.72406353067892 137.72378752082764,-100.05419054954498" stroke="#ffa500" stroke-linecap="round" stroke-linejoin="round"/><polyline fill="none" points="-166.08660564061168,-42.968234543091306 -163.58660564058272,-43.638107524121025 -161.75647862161142,-45.468234543016045 -161.0866056404775,-47.96823454301707 -161.75647862150723,-50.468234543046016 -163.58660564040224,-52.29836156201733 -166.08660564040326,-52.968234543151254 -168.58660564043223,-52.29836156212154 -170.41673265940352,-50.46823454322652 -171.08660564053744,-47.9682345432255 -170.41673265950772,-45.46823454319655 -168.5866056406127,-43.63810752422524 -166.08660564061168,-42.968234543091306" stroke="#00f" stroke-linecap="round" stroke-linejoin="round"/><polyline fill="none" points="-35.852248040735816,134.6521121781159 -33.35224804070687,133.9822391970862 -31.522121021735558,132.15211217819117 -30.852248040601626,129.65211217819015 -31.52212102163134,127.1521121781612 -33.352248040526355,125.3219851591899 -35.85224804052738,124.65211217805596 -38.35224804055633,125.32198515908567 -40.182375059527644,127.15211217798068 -40.85224804066158,129.6521121779817 -40.182375059631866,132.15211217801067 -38.352248040736846,133.982239196982 -35.85224804073582,134.6521121781159" stroke="#ffa500" stroke-linecap="round" stroke-linejoin="round"/><polyline fill="none" points="-427.1533375521721,-216.86577644210314 -424.65333755214317,-217.53564942313284 -422.82321053317185,-219.36577644202785 -422.1533375520379,-221.86577644202887 -422.8232105330676,-224.36577644205784 -424.65333755196264,-226.19590346102916 -427.15333755196366,-226.8657764421631 -429.6533375519926,-226.1959034611334 -431.4834645709639,-224.3657764422384 -432.15333755209787,-221.86577644223738 -431.48346457106817,-219.3657764422084 -429.6533375521731,-217.5356494232371 -427.1533375521721,-216.86577644210314" stroke="#ffa500" stroke-linecap="round" stroke-linejoin="round"/><polyline fill="none" points="-216.63514804073245,-169.5933870939692 -214.13514804070348,-170.2632600749989 -212.30502102173216,-172.0933870938939 -211.6351480405982,-174.59338709389493 -212.3050210216279,-177.0933870939239 -214.13514804052292,-178.92351411289522 -216.63514804052394,-179.59338709402917 -219.1351480405529,-178.92351411299947 -220.96527505952423,-177.09338709410446 -221.63514804065818,-174.59338709410343 -220.96527505962848,-172.09338709407447 -219.13514804073347,-170.26326007510315 -216.63514804073245,-169.5933870939692" stroke="#ffa500" stroke-linecap="round" stroke-linejoin="round"/><polyline fill="none" points="-335.70802094855463,-42.78606880152122 -333.2080209485257,-43.45594178255092 -331.3778939295544,-45.286068801445936 -330.7080209484204,-47.78606880144696 -331.3778939294501,-50.28606880147591 -333.20802094834517,-52.11619582044723 -335.7080209483462,-52.78606880158117 -338.2080209483751,-52.11619582055147 -340.03814796734645,-50.286068801656455 -340.7080209484804,-47.786068801655425 -340.0381479674507,-45.28606880162647 -338.20802094855566,-43.45594178265515 -335.70802094855463,-42.78606880152121" stroke="#ffa500" stroke-linecap="round" stroke-linejoin="round"/><polyline fill="none" points="-47.8563346905122,94.76114581425675 -45.356334690483244,94.09127283322704 -43.52620767151192,92.26114581433202 -42.85633469037798,89.761145814331 -43.52620767140768,87.26114581430204 -45.356334690302695,85.43101879533071 -47.856334690303726,84.76114581419677 -50.35633469033268,85.43101879522646 -52.186461709304005,87.26114581412148 -52.85633469043795,89.7611458141225 -52.18646170940824,92.26114581415146 -50.35633469051323,94.09127283312279 -47.8563346905122,94.76114581425674" stroke="#00f" stroke-linecap="round" stroke-linejoin="round"/><polyline fill="none" points="115.73888239635964,265.1040189279141 118.2388823963886,264.4341459468844 120.06900941535993,262.6040189279894 120.73888239649388,260.10401892798836 120.06900941546418,257.60401892795943 118.23888239656917,255.7738919089881 115.73888239656814,255.10401892785416 113.23888239653918,255.77389190888385 111.40875537756786,257.60401892777884 110.73888239643391,260.10401892777986 111.4087553774636,262.6040189278088 113.23888239635862,264.4341459467801 115.73888239635964,265.10401892791407" stroke="#ffa500" stroke-linecap="round" stroke-linejoin="round"/><polyline fill="none" points="-217.740347076407,-90.27454972140224 -215.24034707637804,-90.94442270243194 -213.41022005740672,-92.77454972132695 -212.74034707627277,-95.27454972132797 -213.41022005730247,-97.77454972135693 -215.24034707619748,-99.60467674032826 -217.7403470761985,-100.27454972146221 -220.24034707622747,-99.60467674043251 -222.0704740951988,-97.7745497215375 -222.74034707633274,-95.27454972153647 -222.07047409530304,-92.77454972150751 -220.24034707640803,-90.94442270253619 -217.740347076407,-90.27454972140224" stroke="#00f" stroke-linecap="round" stroke-linejoin="round"/><polyline fill="none" points="-198.9187503893679,36.55041950307675 -196.41875038933892,35.880546522047055 -194.5886233703676,34.05041950315204 -193.91875038923365,31.550419503151016 -194.58862337026335,29.050419503122054 -196.41875038915836,27.220292484150725 -198.91875038915938,26.550419503016773 -201.41875038918835,27.22029248404647 -203.24887740815967,29.05041950294148 -203.91875038929362,31.550419502942507 -203.24887740826392,34.050419502971465 -201.4187503893689,35.8805465219428 -198.9187503893679,36.55041950307675" stroke="#ffa500" stroke-linecap="round" stroke-linejoin="round"/><polyline fill="none" points="-137.64456429546016,-57.56791572304179 -135.1445642954312,-58.23778870407149 -133.31443727645987,-60.0679157229665 -132.64456429532592,-62.56791572296753 -133.31443727635562,-65.06791572299649 -135.14456429525063,-66.89804274196781 -137.64456429525166,-67.56791572310176 -140.14456429528062,-66.89804274207206 -141.97469131425194,-65.06791572317705 -142.6445642953859,-62.56791572317602 -141.9746913143562,-60.06791572314706 -140.14456429546118,-58.23778870417573 -137.64456429546016,-57.56791572304177" stroke="#ffa500" stroke-linecap="round" stroke-linejoin="round"/><polyline fill="none" points="-299.2378606266338,-158.6091618150535 -296.7378606266048,-159.2790347960832 -294.9077336076335,-161.10916181497822 -294.2378606264995,-163.60916181497925 -294.9077336075292,-166.1091618150082 -296.7378606264242,-167.93928883397953 -299.23786062642523,-168.60916181511348 -301.7378606264542,-167.93928883408378 -303.56798764542555,-166.10916181518877 -304.2378606265595,-163.60916181518775 -303.5679876455298,-161.10916181515879 -301.7378606266348,-159.27903479618746 -299.2378606266338,-158.6091618150535" stroke="#008000" stroke-linecap="round" stroke-linejoin="round"/><polyline fill="none" points="-334.0953827105727,-191.99291509473926 -331.59538271054373,-192.66278807576896 -329.7652556915724,-194.49291509466397 -329.09538271043846,-196.992915094665 -329.76525569146816,-199.49291509469396 -331.59538271036314,-201.32304211366528 -334.09538271036416,-201.99291509479923 -336.59538271039315,-201.32304211376953 -338.4255097293645,-199.49291509487452 -339.0953827104984,-196.9929150948735 -338.42550972946873,-194.49291509484453 -336.59538271057374,-192.6627880758732 -334.0953827105727,-191.99291509473926" stroke="#00f" stroke-linecap="round" stroke-linejoin="round"/><polyline fill="none" points="156.7816766222095,308.1908623807804 159.28167662223845,307.5209893997507 161.1118036412098,305.6908623808557 161.78167662234378,303.1908623808547 161.11180364131408,300.6908623808257 159.28167662241907,298.8607353618544 156.78167662241805,298.19086238072043 154.28167662238909,298.86073536175013 152.45154960341773,300.6908623806451 151.78167662228375,303.19086238064614 152.45154960331345,305.6908623806751 154.28167662220847,307.52098939964645 156.7816766222095,308.1908623807804" stroke="#00f" stroke-linecap="round" stroke-linejoin="round"/><polyline fill="none" points="-317.6486783177897,-65.96035633807203 -315.1486783177607,-66.63022931910172 -313.3185512987894,-68.46035633799671 -312.6486783176554,-70.96035633799774 -313.3185512986851,-73.46035633802671 -315.1486783175801,-75.29048335699805 -317.64867831758113,-75.96035633813202 -320.1486783176101,-75.29048335710233 -321.97880533658144,-73.46035633820733 -322.6486783177154,-70.96035633820631 -321.9788053366857,-68.46035633817733 -320.1486783177907,-66.630229319206 -317.6486783177897,-65.96035633807203" stroke="#00f" stroke-linecap="round" stroke-linejoin="round"/><polyline fill="none" points="84.20950491995055,149.3894554472209 86.70950491997952,148.71958246619124 88.53963193895086,146.88945544729623 89.20950492008483,144.3894554472952 88.53963193905514,141.88945544726624 86.70950492016014,140.0593284282949 84.20950492015912,139.3894554471609 81.70950492013014,140.05932842819058 79.8793779011588,141.8894554470856 79.20950492002484,144.38945544708662 79.87937790105453,146.88945544711558 81.70950491994952,148.71958246608693 84.20950491995055,149.3894554472209" stroke="#ffa500" stroke-linecap="round" stroke-linejoin="round"/><polyline fill="none" points="-259.7063527971381,-72.74232143766429 -257.2063527971091,-73.41219441869397 -255.37622577813775,-75.24232143758897 -254.70635279700377,-77.74232143759 -255.37622577803344,-80.24232143761897 -257.20635279692846,-82.07244845659032 -259.7063527969295,-82.7423214377243 -262.20635279695847,-82.07244845669462 -264.0364798159298,-80.24232143779962 -264.70635279706374,-77.7423214377986 -264.03647981603405,-75.24232143776962 -262.20635279713906,-73.41219441879826 -259.70635279713804,-72.74232143766429" stroke="#ffa500" stroke-linecap="round" stroke-linejoin="round"/><polyline fill="none" points="46.60050060673056,-149.37923724164762 49.10050060675954,-150.04911022267729 50.930627625730885,-151.8792372415723 51.60050060686486,-154.37923724157332 50.930627625835186,-156.87923724160228 49.10050060694019,-158.70936426057364 46.60050060693916,-159.3792372417076 44.10050060691018,-158.70936426067794 42.27037358793883,-156.87923724178296 41.60050060680485,-154.37923724178194 42.27037358783453,-151.87923724175297 44.100500606729526,-150.04911022278162 46.600500606730556,-149.37923724164764" stroke="#ffa500" stroke-linecap="round" stroke-linejoin="round"/><polyline fill="none" points="-372.4321671135673,52.58863123151187 -369.9321671135383,51.91875825048219 -368.102040094567,50.08863123158719 -367.43216711343297,47.58863123158616 -368.10204009446267,45.08863123155719 -369.93216711335765,43.258504212585834 -372.4321671133587,42.588631231451856 -374.93216711338766,43.25850421248153 -376.762294132359,45.08863123137653 -377.432167113493,47.58863123137756 -376.7622941324633,50.08863123140654 -374.9321671135683,51.91875825037789 -372.4321671135673,52.58863123151187" stroke="#ffa500" stroke-linecap="round" stroke-linejoin="round"/><polyline fill="none" points="-75.48191578283918,-121.59578980570602 -72.9819157828102,-122.26566278673569 -71.15178876383885,-124.09578980563069 -70.48191578270487,-126.59578980563171 -71.15178876373454,-129.0957898056607 -72.98191578262954,-130.92591682463205 -75.48191578263057,-131.59578980576603 -77.98191578265954,-130.92591682473636 -79.8120428016309,-129.09578980584138 -80.48191578276487,-126.59578980584035 -79.8120428017352,-124.09578980581138 -77.9819157828402,-122.26566278684002 -75.48191578283918,-121.59578980570605" stroke="#ffa500" stroke-linecap="round" stroke-linejoin="round"/><polyline fill="none" points="-393.8380582362518,-120.3145331578564 -391.3380582362228,-120.98440613888607 -389.50793121725144,-122.81453315778107 -388.83805823611743,-125.3145331577821 -389.50793121714713,-127.81453315781107 -391.3380582360421,-129.64466017678242 -393.83805823604314,-130.3145331579164 -396.33805823607213,-129.64466017688673 -398.1681852550435,-127.81453315799173 -398.8380582361775,-125.31453315799071 -398.1681852551479,-122.81453315796173 -396.3380582362529,-120.98440613899038 -393.83805823625187,-120.31453315785639" stroke="#008000" stroke-linecap="round" stroke-linejoin="round"/><polyline fill="none" points="-226.48018359985056,8.22640868390998 -223.98018359982157,7.5565357028803115 -222.15005658085022,5.726408683985317 -221.48018359971624,3.22640868398429 -222.1500565807459,0.7264086839553103 -223.9801835996409,-1.1037183350160493 -226.48018359964192,-1.7735913161500356 -228.9801835996709,-1.103718335120368 -230.81031061864226,0.7264086837746251 -231.48018359977624,3.2264086837756527 -230.81031061874657,5.7264086838046335 -228.98018359985159,7.556535702775994 -226.48018359985056,8.226408683909982" stroke="#00f" stroke-linecap="round" stroke-linejoin="round"/><polyline fill="none" points="-199.48801281928655,-80.90438154837653 -196.98801281925756,-81.5742545294062 -195.1578858002862,-83.4043815483012 -194.48801281915223,-85.90438154830223 -195.1578858001819,-88.4043815483312 -196.98801281907689,-90.23450856730257 -199.4880128190779,-90.90438154843656 -201.9880128191069,-90.23450856740689 -203.81813983807825,-88.4043815485119 -204.48801281921223,-85.90438154851088 -203.81813983818256,-83.40438154848191 -201.98801281928758,-81.57425452951054 -199.48801281928655,-80.90438154837655" stroke="#ffa500" stroke-linecap="round" stroke-linejoin="round"/><polyline fill="none" points="34.697211265024606,125.21373279782868 37.19721126505359,124.54385981679901 39.02733828402495,122.71373279790403 39.69721126515894,120.213732797903 39.02733828412928,117.71373279787403 37.19721126523429,115.88360577890266 34.69721126523326,115.21373279776867 32.197211265204274,115.88360577879834 30.36708424623291,117.71373279769332 29.697211265098918,120.21373279769435 30.36708424612858,122.71373279772332 32.19721126502357,124.54385981669469 34.6972112650246,125.21373279782868" stroke="#00f" stroke-linecap="round" stroke-linejoin="round"/><polyline fill="none" points="-504.9000877199571,-130.29746743651447 -502.40008771992814,-130.96734041754414 -500.56996070095676,-132.79746743643912 -499.90008771982275,-135.29746743644014 -500.5699607008524,-137.79746743646913 -502.4000877197474,-139.6275944554405 -504.9000877197484,-140.2974674365745 -507.4000877197774,-139.62759445554482 -509.23021473874877,-137.79746743664984 -509.9000877198828,-135.29746743664882 -509.23021473885314,-132.79746743661983 -507.40008771995815,-130.96734041764847 -504.9000877199571,-130.29746743651447" stroke="#ffa500" stroke-linecap="round" stroke-linejoin="round"/><polyline fill="none" points="-368.3693855338443,31.35990309092043 -365.8693855338153,30.69003010989077 -364.03925851484394,28.859903090995783 -363.36938553370993,26.359903090994756 -364.0392585147396,23.859903090965773 -365.86938553363456,22.029776071994405 -368.3693855336356,21.359903090860406 -370.86938553366457,22.029776071890065 -372.69951255263595,23.859903090785053 -373.36938553376996,26.35990309078608 -372.6995125527403,28.859903090815067 -370.86938553384533,30.690030109786438 -368.3693855338443,31.359903090920437" stroke="#ffa500" stroke-linecap="round" stroke-linejoin="round"/><polyline fill="none" points="-291.79446638188216,10.602336833755281 -289.29446638185317,9.932463852725624 -287.4643393628818,8.102336833830636 -286.7944663817478,5.602336833829608 -287.4643393627774,3.102336833800622 -289.2944663816724,1.2722098148292504 -291.79446638167343,0.6023368336952503 -294.2944663817024,1.272209814724906 -296.1245934006738,3.1023368336198924 -296.7944663818078,5.60233683362092 -296.12459340077817,8.102336833649908 -294.2944663818832,9.93246385262128 -291.79446638188216,10.602336833755283" stroke="#ffa500" stroke-linecap="round" stroke-linejoin="round"/><polyline fill="none" points="-316.2399117908147,-148.13346876692376 -313.7399117907857,-148.8033417479534 -311.9097847718143,-150.63346876684838 -311.2399117906803,-153.1334687668494 -311.90978477170995,-155.6334687668784 -313.73991179060494,-157.46359578584978 -316.23991179060596,-158.13346876698378 -318.73991179063495,-157.46359578595414 -320.57003880960633,-155.63346876705916 -321.23991179074034,-153.13346876705813 -320.5700388097107,-150.63346876702914 -318.7399117908157,-148.80334174805776 -316.2399117908147,-148.13346876692376" stroke="#008000" stroke-linecap="round" stroke-linejoin="round"/><polyline fill="none" points="-462.55111291733857,-173.8650901380192 -460.0511129173096,-174.53496311904885 -458.2209858983382,-176.36509013794384 -457.5511129172042,-178.86509013794486 -458.22098589823383,-181.36509013797385 -460.0511129171288,-183.19521715694523 -462.55111291712984,-183.86509013807924 -465.05111291715883,-183.1952171570496 -466.8812399361302,-181.3650901381546 -467.5511129172642,-178.8650901381536 -466.8812399362346,-176.3650901381246 -465.0511129173396,-174.53496311915322 -462.55111291733857,-173.8650901380192" stroke="#ffa500" stroke-linecap="round" stroke-linejoin="round"/><polyline fill="none" points="-356.3217789029829,-197.1117493351742 -353.8217789029539,-197.78162231620385 -351.9916518839825,-199.61174933509884 -351.3217789028485,-202.11174933509986 -351.99165188387815,-204.61174933512885 -353.82177890277313,-206.44187635410023 -356.32177890277416,-207.11174933523424 -358.82177890280315,-206.4418763542046 -360.6519059217745,-204.6117493353096 -361.32177890290853,-202.1117493353086 -360.6519059218789,-199.6117493352796 -358.8217789029839,-197.78162231630822 -356.3217789029829,-197.1117493351742" stroke="#00f" stroke-linecap="round" stroke-linejoin="round"/><polyline fill="none" points="-98.80675361374531,-212.1234947217189 -96.30675361371632,-212.79336770274855 -94.47662659474494,-214.62349472164354 -93.80675361361094,-217.12349472164456 -94.47662659464058,-219.62349472167355 -96.30675361353556,-221.45362174064493 -98.80675361353659,-222.12349472177894 -101.30675361356558,-221.4536217407493 -103.13688063253696,-219.6234947218543 -103.80675361367096,-217.1234947218533 -103.13688063264132,-214.6234947218243 -101.30675361374634,-212.79336770285292 -98.80675361374531,-212.1234947217189" stroke="#00f" stroke-linecap="round" stroke-linejoin="round"/><polyline fill="none" points="-434.74949751094954,-132.33436258709085 -432.24949751092055,-133.0042355681205 -430.41937049194917,-134.83436258701548 -429.74949751081516,-137.3343625870165 -430.4193704918448,-139.8343625870455 -432.2494975107398,-141.66448960601687 -434.7494975107408,-142.33436258715088 -437.2494975107698,-141.66448960612124 -439.0796245297412,-139.83436258722625 -439.7494975108752,-137.33436258722523 -439.07962452984555,-134.83436258719624 -437.24949751095056,-133.00423556822486 -434.74949751094954,-132.33436258709085" stroke="#00f" stroke-linecap="round" stroke-linejoin="round"/><polyline fill="none" points="1.3864487875287284,106.76796213232493 3.886448787557722,106.09808915129528 5.7165758065291055,104.2679621324003 6.38644878766312,101.76796213239928 5.716575806633477,99.26796213237029 3.8864487877384986,97.4378351133989 1.3864487877374714,96.76796213226488 -1.1135512122915223,97.43783511329453 -2.9436782312629073,99.26796213218951 -3.6135512123969233,101.76796213219053 -2.943678231367282,104.26796213221952 -1.1135512124723044,106.0980891511909 1.3864487875287224,106.76796213232493" stroke="#ffa500" stroke-linecap="round" stroke-linejoin="round"/><polyline fill="none" points="-382.40703598407424,-77.26403599865857 -379.90703598404525,-77.93390897968821 -378.07690896507387,-79.76403599858318 -377.40703598393986,-82.2640359985842 -378.0769089649695,-84.7640359986132 -379.9070359838645,-86.59416301758458 -382.4070359838655,-87.2640359987186 -384.9070359838945,-86.59416301768896 -386.7371630028659,-84.76403599879399 -387.4070359839999,-82.26403599879296 -386.73716300297025,-79.76403599876397 -384.90703598407526,-77.93390897979259 -382.40703598407424,-77.26403599865857" stroke="#008000" stroke-linecap="round" stroke-linejoin="round"/><polyline fill="none" points="-126.00491234604621,-18.870291465071336 -123.50491234601722,-19.540164446100974 -121.67478532704584,-21.37029146499595 -121.00491234591182,-23.870291464996978 -121.67478532694146,-26.370291465025975 -123.50491234583643,-28.200418483997364 -126.00491234583745,-28.870291465131384 -128.50491234586644,-28.200418484101746 -130.33503936483783,-26.37029146520677 -131.00491234597186,-23.870291465205742 -130.33503936494222,-21.370291465176745 -128.50491234604723,-19.540164446205356 -126.00491234604621,-18.870291465071336" stroke="#ffa500" stroke-linecap="round" stroke-linejoin="round"/><polyline fill="none" points="66.76198068491068,-283.13290309370694 69.26198068493967,-283.8027760747366 71.09210770391107,-285.63290309363157 71.76198068504509,-288.1329030936326 71.09210770401545,-290.6329030936616 69.26198068512048,-292.46303011263296 66.76198068511945,-293.13290309376697 64.26198068509046,-292.46303011273733 62.431853666119075,-290.63290309384234 61.761980684985055,-288.1329030938413 62.43185366601469,-285.63290309381233 64.26198068490966,-283.80277607484095 66.76198068491068,-283.13290309370694" stroke="#ffa500" stroke-linecap="round" stroke-linejoin="round"/><polyline fill="none" points="110.92914631232611,318.7023318022698 113.42914631235512,318.03245882124014 115.25927333132651,316.20233180234516 115.92914631246053,313.70233180234413 115.25927333143089,311.20233180231514 113.42914631253592,309.37220478334376 110.9291463125349,308.70233180220976 108.42914631250589,309.3722047832394 106.5990192935345,311.2023318021344 105.92914631240048,313.7023318021354 106.5990192934301,316.2023318021644 108.42914631232507,318.0324588211358 110.9291463123261,318.7023318022698" stroke="#ffa500" stroke-linecap="round" stroke-linejoin="round"/><polyline fill="none" points="226.58333918852892,-197.4077222898703 229.08333918855791,-198.07759527089993 230.9134662075293,-199.90772228979492 231.58333918866333,-202.40772228979594 230.9134662076337,-204.90772228982493 229.0833391887387,-206.7378493087963 226.58333918873768,-207.40772228993035 224.0833391887087,-206.7378493089007 222.25321216973728,-204.90772229000572 221.58333918860325,-202.4077222900047 222.2532121696329,-199.9077222899757 224.08333918852787,-198.0775952710043 226.5833391885289,-197.40772228987026" stroke="#ffa500" stroke-linecap="round" stroke-linejoin="round"/><polyline fill="none" points="-81.91735329931755,-224.39530355191982 -79.41735329928855,-225.06517653294947 -77.58722628031715,-226.89530355184445 -76.91735329918312,-229.39530355184547 -77.58722628021275,-231.89530355187446 -79.41735329910772,-233.72543057084587 -81.91735329910874,-234.3953035519799 -84.41735329913774,-233.72543057095027 -86.24748031810914,-231.89530355205528 -86.91735329924317,-229.39530355205426 -86.24748031821355,-226.89530355202527 -84.41735329931858,-225.06517653305386 -81.91735329931755,-224.39530355191982" stroke="#ffa500" stroke-linecap="round" stroke-linejoin="round"/><polyline fill="none" points="-104.23629359499395,-175.19242022203488 -101.73629359496495,-175.86229320306452 -99.90616657599355,-177.69242022195948 -99.23629359485952,-180.1924202219605 -99.90616657588915,-182.6924202219895 -101.73629359478412,-184.5225472409609 -104.23629359478514,-185.19242022209494 -106.73629359481414,-184.52254724106533 -108.56642061378554,-182.69242022217037 -109.23629359491957,-180.19242022216935 -108.56642061388995,-177.69242022214036 -106.73629359499498,-175.86229320316895 -104.23629359499395,-175.1924202220349" stroke="#00f" stroke-linecap="round" stroke-linejoin="round"/><polyline fill="none" points="151.99549808337608,-186.67113780015168 154.49549808340507,-187.3410107811813 156.32562510237648,-189.17113780007625 156.9954980835105,-191.67113780007728 156.3256251024809,-194.1711378001063 154.49549808358594,-196.0012648190777 151.99549808358492,-196.67113780021174 149.4954980835559,-196.00126481918213 147.6653710645845,-194.17113780028717 146.99549808345046,-191.67113780028615 147.66537106448007,-189.17113780025713 149.49549808337503,-187.34101078128572 151.99549808337605,-186.67113780015168" stroke="#00f" stroke-linecap="round" stroke-linejoin="round"/><polyline fill="none" points="-477.1142694742546,-128.78908543169132 -474.61426947422564,-129.45895841272093 -472.78414245525425,-131.2890854316159 -472.1142694741202,-133.7890854316169 -472.78414245514983,-136.28908543164593 -474.6142694740448,-138.11921245061734 -477.11426947404584,-138.78908543175137 -479.61426947407483,-138.11921245072176 -481.4443964930462,-136.2890854318268 -482.1142694741803,-133.78908543182578 -481.44439649315063,-131.28908543179676 -479.61426947425565,-129.45895841282535 -477.1142694742546,-128.78908543169132" stroke="#00f" stroke-linecap="round" stroke-linejoin="round"/><polyline fill="none" points="47.50684153214199,-193.2762279112153 50.006841532170995,-193.9461008922449 51.836968551142405,-195.77622791113987 52.50684153227645,-198.2762279111409 51.83696855124683,-200.7762279111699 50.006841532351864,-202.60635493014132 47.50684153235083,-203.27622791127536 45.00684153232183,-202.60635493024574 43.17671451335042,-200.7762279113508 42.50684153221638,-198.27622791134976 43.176714513246,-195.77622791132075 45.00684153214096,-193.94610089234934 47.50684153214199,-193.2762279112153" stroke="#00f" stroke-linecap="round" stroke-linejoin="round"/><polyline fill="none" points="-440.1869586266979,-180.95612843459583 -437.6869586266689,-181.62600141562544 -435.8568316076975,-183.4561284345204 -435.1869586265634,-185.95612843452142 -435.85683160759305,-188.45612843455044 -437.68695862648804,-190.28625545352185 -440.18695862648906,-190.95612843465588 -442.68695862651805,-190.28625545362627 -444.5170856454895,-188.4561284347313 -445.18695862662355,-185.9561284347303 -444.5170856455939,-183.45612843470127 -442.6869586266989,-181.62600141572986 -440.1869586266979,-180.95612843459583" stroke="#ffa500" stroke-linecap="round" stroke-linejoin="round"/><polyline fill="none" points="-323.2394789128024,76.98571363030206 -320.7394789127734,76.31584064927245 -318.90935189380195,74.48571363037749 -318.2394789126679,71.98571363037647 -318.90935189369753,69.48571363034746 -320.7394789125925,67.65558661137605 -323.23947891259354,66.985713630242 -325.73947891262253,67.65558661127162 -327.56960593159397,69.48571363016657 -328.23947891272803,71.9857136301676 -327.5696059316984,74.4857136301966 -325.7394789128034,76.31584064916801 -323.2394789128024,76.98571363030206" stroke="#ffa500" stroke-linecap="round" stroke-linejoin="round"/><polyline fill="none" points="-337.70930842992306,-78.88587732494182 -335.20930842989407,-79.55575030597143 -333.3791814109226,-81.38587732486639 -332.70930842978856,-83.88587732486741 -333.37918141081815,-86.38587732489643 -335.20930842971313,-88.21600434386784 -337.70930842971416,-88.88587732500189 -340.20930842974315,-88.21600434397227 -342.0394354487146,-86.38587732507732 -342.70930842984865,-83.8858773250763 -342.03943544881906,-81.38587732504728 -340.2093084299241,-79.55575030607586 -337.70930842992306,-78.88587732494182" stroke="#00f" stroke-linecap="round" stroke-linejoin="round"/><polyline fill="none" points="-374.177879294521,-118.31630427904506 -371.677879294492,-118.98617726007467 -369.8477522755206,-120.81630427896962 -369.1778792943865,-123.31630427897065 -369.8477522754161,-125.81630427899967 -371.6778792943111,-127.64643129797109 -374.1778792943121,-128.31630427910514 -376.6778792943411,-127.64643129807553 -378.50800631331253,-125.81630427918057 -379.1778792944466,-123.31630427917955 -378.508006313417,-120.81630427915053 -376.67787929452203,-118.9861772601791 -374.177879294521,-118.31630427904506" stroke="#008000" stroke-linecap="round" stroke-linejoin="round"/><polyline fill="none" points="143.53070744185584,-140.0546036232556 146.03070744188486,-140.7244766042852 147.86083446085627,-142.55460362318016 148.53070744199033,-145.05460362318118 147.86083446096072,-147.5546036232102 146.03070744206576,-149.3847306421816 143.53070744206474,-150.05460362331567 141.03070744203572,-149.38473064228606 139.2005804230643,-147.5546036233911 138.53070744193025,-145.05460362339008 139.20058042295986,-142.55460362336106 141.03070744185482,-140.72447660438965 143.53070744185584,-140.0546036232556" stroke="#ffa500" stroke-linecap="round" stroke-linejoin="round"/><polyline fill="none" points="84.64576324257564,-249.3559467197062 87.14576324260466,-250.0258197007358 88.97589026157608,-251.85594671963077 89.64576324271015,-254.3559467196318 88.97589026168055,-256.8559467196608 87.14576324278559,-258.6860737386322 84.64576324278457,-259.3559467197663 82.14576324275555,-258.6860737387367 80.31563622378413,-256.8559467198417 79.64576324265006,-254.3559467198407 80.31563622367966,-251.85594671981167 82.14576324257462,-250.02581970084026 84.64576324257564,-249.3559467197062" stroke="#ffa500" stroke-linecap="round" stroke-linejoin="round"/><polyline fill="none" points="-392.6368991720508,-183.9981840568431 -390.1368991720218,-184.6680570378727 -388.30677215305036,-186.49818405676766 -387.6368991719163,-188.99818405676868 -388.3067721529459,-191.4981840567977 -390.1368991718408,-193.32831107576914 -392.63689917184183,-193.9981840569032 -395.1368991718708,-193.3283110758736 -396.96702619084226,-191.49818405697863 -397.6368991719763,-188.9981840569776 -396.96702619094674,-186.4981840569486 -395.1368991720518,-184.66805703797715 -392.6368991720508,-183.9981840568431" stroke="#00f" stroke-linecap="round" stroke-linejoin="round"/><polyline fill="none" points="-50.58733790555958,-199.83669571810427 -48.08733790553056,-200.50656869913388 -46.257210886559136,-202.33669571802884 -45.58733790542507,-204.83669571802986 -46.25721088645467,-207.33669571805888 -48.08733790534963,-209.16682273703032 -50.58733790535066,-209.83669571816438 -53.08733790537968,-209.16682273713477 -54.91746492435111,-207.3366957182398 -55.58733790548517,-204.8366957182388 -54.91746492445557,-202.33669571820977 -53.08733790556062,-200.50656869923833 -50.587337905559586,-199.83669571810427" stroke="#00f" stroke-linecap="round" stroke-linejoin="round"/><polyline fill="none" points="-59.02987862801953,-158.58053394245118 -56.52987862799051,-159.25040692348077 -54.69975160901908,-161.08053394237572 -54.02987862788501,-163.58053394237675 -54.69975160891461,-166.08053394240576 -56.529878627809566,-167.9106609613772 -59.0298786278106,-168.58053394251127 -61.529878627839615,-167.91066096148168 -63.36000564681105,-166.08053394258673 -64.02987862794511,-163.5805339425857 -63.36000564691551,-161.08053394255668 -61.529878628020555,-159.25040692358525 -59.029878628019524,-158.58053394245118" stroke="#ffa500" stroke-linecap="round" stroke-linejoin="round"/><polyline fill="none" points="-293.68634699898274,50.93650530413455 -291.1863469989537,50.26663232310495 -289.35621997998226,48.43650530421 -288.6863469988482,45.93650530420897 -289.3562199798778,43.43650530417995 -291.1863469987727,41.60637828520852 -293.68634699877373,40.93650530407445 -296.1863469988028,41.60637828510404 -298.0164740177742,43.43650530399899 -298.6863469989083,45.93650530400002 -298.0164740178787,48.43650530402905 -296.18634699898377,50.26663232300048 -293.68634699898274,50.93650530413455" stroke="#ffa500" stroke-linecap="round" stroke-linejoin="round"/><polyline fill="none" points="-392.4775793522369,-157.9856474012237 -389.97757935220784,-158.6555203822533 -388.1474523332364,-160.48564740114824 -387.47757935210234,-162.98564740114927 -388.1474523331319,-165.48564740117828 -389.97757935202685,-167.31577442014972 -392.4775793520279,-167.98564740128379 -394.9775793520569,-167.3157744202542 -396.80770637102836,-165.48564740135924 -397.4775793521624,-162.98564740135822 -396.80770637113284,-160.4856474013292 -394.9775793522379,-158.65552038235776 -392.4775793522369,-157.9856474012237" stroke="#008000" stroke-linecap="round" stroke-linejoin="round"/><polyline fill="none" points="-270.93283709967443,-50.23636091296972 -268.4328370996454,-50.906233893999314 -266.60271008067394,-52.73636091289426 -265.9328370995399,-55.23636091289529 -266.60271008056947,-57.73636091292432 -268.4328370994644,-59.56648793189576 -270.9328370994654,-60.236360913029834 -273.43283709949446,-59.56648793200024 -275.2629641184659,-57.736360913105294 -275.93283709959996,-55.236360913104264 -275.2629641185704,-52.73636091307524 -273.43283709967545,-50.9062338941038 -270.93283709967443,-50.23636091296972" stroke="#ffa500" stroke-linecap="round" stroke-linejoin="round"/><polyline fill="none" points="-309.40462482733443,-175.77728726067758 -306.9046248273054,-176.44716024170717 -305.07449780833394,-178.27728726060212 -304.4046248271999,-180.77728726060315 -305.07449780822947,-183.27728726063216 -306.9046248271244,-185.1074142796036 -309.4046248271254,-185.7772872607377 -311.90462482715446,-185.1074142797081 -313.7347518461259,-183.27728726081315 -314.40462482725997,-180.77728726081213 -313.7347518462304,-178.2772872607831 -311.90462482733545,-176.44716024181167 -309.40462482733443,-175.77728726067758" stroke="#ffa500" stroke-linecap="round" stroke-linejoin="round"/><polyline fill="none" points="-337.1461452939426,-172.5386599060121 -334.64614529391355,-173.20853288704168 -332.8160182749421,-175.03865990593664 -332.14614529380805,-177.53865990593766 -332.81601827483763,-180.03865990596668 -334.64614529373256,-181.86878692493812 -337.1461452937336,-182.5386599060722 -339.64614529376263,-181.86878692504263 -341.47627231273407,-180.03865990614767 -342.14614529386813,-177.53865990614665 -341.47627231283855,-175.03865990611763 -339.6461452939436,-173.2085328871462 -337.1461452939426,-172.5386599060121" stroke="#00f" stroke-linecap="round" stroke-linejoin="round"/><polyline fill="none" points="141.53028117323402,295.5715113522738 144.03028117326303,294.9016383712442 145.86040819223447,293.07151135234926 146.53028117336856,290.57151135234824 145.86040819233898,288.0715113523192 144.03028117344402,286.24138433334775 141.530281173443,285.5715113522137 139.03028117341398,286.2413843332433 137.20015415444254,288.0715113521382 136.53028117330845,290.5715113521392 137.20015415433804,293.0715113521683 139.030281173233,294.9016383711397 141.53028117323402,295.5715113522738" stroke="#ffa500" stroke-linecap="round" stroke-linejoin="round"/><polyline fill="none" points="-299.3797707680794,-58.164764568363786 -296.8797707680504,-58.83463754939337 -295.04964374907894,-60.66476456828831 -294.3797707679449,-63.16476456828934 -295.04964374897446,-65.66476456831838 -296.8797707678694,-67.49489158728983 -299.3797707678704,-68.16476456842392 -301.87977076789946,-67.49489158739433 -303.7098977868709,-65.6647645684994 -304.37977076800496,-63.16476456849836 -303.7098977869754,-60.66476456846933 -301.87977076808045,-58.834637549497884 -299.3797707680794,-58.16476456836379" stroke="#ffa500" stroke-linecap="round" stroke-linejoin="round"/></svg>