<?xml version="1.0" ?><!DOCTYPE svg  PUBLIC '-//W3C//DTD SVG 1.1//EN'  'http://www.w3.org/Graphics/SVG/1.1/DTD/svg11.dtd'><svg height="414.000" viewBox="-585.000 -350.000 1096.000 414.000" width="1096.000" xmlns="http://www.w3.org/2000/svg"><line fill="none" stroke="none" stroke-linecap="round" stroke-width="2.0" x1="0.0" x2="0.0" y1="0.0" y2="0.0"/><polygon fill="none" fill-rule="evenodd" points="0.0,0.0 0.0,0.0 0.0,0.0" stroke-linejoin="round"/><polyline fill="none" points="-553.8277305231443,-250.08007351671318 -551.3277305231145,-250.74994649774146 -549.4976035041417,-252.58007351663568 -548.8277305230062,-255.08007351663673 -549.4976035040345,-257.5800735166665 -551.3277305229287,-259.41020053563926 -553.8277305229298,-260.08007351677486 -556.3277305229595,-259.4102005357466 -558.1578575419323,-257.5800735168524 -558.8277305230679,-255.08007351685134 -558.1578575420396,-252.58007351682156 -556.3277305231453,-250.74994649784878 -553.8277305231443,-250.08007351671318" stroke="#00f" stroke-linecap="round" stroke-linejoin="round"/><polyline fill="none" points="-523.266150784228,-129.15597599448267 -520.7661507841982,-129.82584897551095 -518.9360237652254,-131.65597599440517 -518.2661507840899,-134.15597599440622 -518.9360237651182,-136.655975994436 -520.7661507840124,-138.48610301340878 -523.2661507840135,-139.15597599454438 -525.7661507840432,-138.4861030135161 -527.596277803016,-136.65597599462188 -528.2661507841516,-134.15597599462083 -527.5962778031233,-131.65597599459105 -525.766150784229,-129.82584897561827 -523.266150784228,-129.15597599448267" stroke="#008000" stroke-linecap="round" stroke-linejoin="round"/><polyline fill="none" points="-304.82376066368323,-181.39249992745064 -302.32376066365345,-182.06237290847892 -300.4936336446807,-183.8924999273731 -299.8237606635451,-186.39249992737416 -300.4936336445734,-188.89249992740395 -302.32376066346757,-190.72262694637672 -304.8237606634686,-191.39249992751232 -307.3237606634984,-190.72262694648404 -309.1538876824711,-188.89249992758985 -309.8237606636067,-186.3924999275888 -309.15388768257844,-183.892499927559 -307.32376066368425,-182.0623729085862 -304.82376066368323,-181.39249992745061" stroke="#ffa500" stroke-linecap="round" stroke-linejoin="round"/><polyline fill="none" points="-470.06605572671106,-270.18391074304725 -467.56605572668127,-270.8537837240755 -465.7359287077085,-272.6839107429697 -465.0660557265729,-275.18391074297074 -465.7359287076012,-277.6839107430005 -467.5660557264954,-279.51403776197327 -470.0660557264964,-280.18391074310887 -472.5660557265262,-279.5140377620806 -474.39618274549895,-277.6839107431864 -475.06605572663454,-275.1839107431854 -474.39618274560627,-272.6839107431556 -472.5660557267121,-270.85378372418285 -470.06605572671106,-270.18391074304725" stroke="#008000" stroke-linecap="round" stroke-linejoin="round"/><polyline fill="none" points="-483.3254440429539,-185.1682093617457 -480.8254440429241,-185.838082342774 -478.9953170239514,-187.66820936166818 -478.3254440428158,-190.16820936166923 -478.99531702384405,-192.66820936169904 -480.82544404273824,-194.49833638067182 -483.32544404273926,-195.1682093618074 -485.82544404276905,-194.49833638077914 -487.6555710617418,-192.66820936188495 -488.3254440428774,-190.1682093618839 -487.6555710618491,-187.66820936185408 -485.8254440429549,-185.8380823428813 -483.3254440429539,-185.1682093617457" stroke="#00f" stroke-linecap="round" stroke-linejoin="round"/><polyline fill="none" points="-520.6370737138981,-328.7558121470996 -518.1370737138683,-329.4256851281279 -516.3069466948955,-331.2558121470221 -515.6370737137598,-333.7558121470231 -516.306946694788,-336.2558121470529 -518.1370737136823,-338.08593916602564 -520.6370737136833,-338.75581214716124 -523.1370737137131,-338.08593916613296 -524.9672007326859,-336.25581214723877 -525.6370737138216,-333.75581214723775 -524.9672007327933,-331.25581214720796 -523.1370737138991,-329.4256851282352 -520.6370737138981,-328.7558121470996" stroke="#00f" stroke-linecap="round" stroke-linejoin="round"/><polyline fill="none" points="461.94118798633724,-149.5714060978982 464.441187986367,-150.24127907892648 466.2713150053398,-152.07140609782067 466.94118798647537,-154.57140609782172 466.2713150054471,-157.07140609785154 464.4411879865529,-158.9015331168243 461.9411879865519,-159.5714060979599 459.4411879865221,-158.90153311693163 457.61106096754935,-157.07140609803744 456.94118798641375,-154.5714060980364 457.61106096744203,-152.07140609800658 459.4411879863362,-150.2412790790338 461.94118798633724,-149.5714060978982" stroke="#ffa500" stroke-linecap="round" stroke-linejoin="round"/><polyline fill="none" points="-530.0983944438487,-153.62523175382182 -527.598394443819,-154.2951047348501 -525.7682674248462,-156.1252317537443 -525.0983944437105,-158.62523175374534 -525.7682674247387,-161.12523175377515 -527.598394443633,-162.95535877274793 -530.098394443634,-163.62523175388355 -532.5983944436638,-162.95535877285528 -534.4285214626366,-161.1252317539611 -535.0983944437722,-158.62523175396004 -534.428521462744,-156.12523175393022 -532.5983944438498,-154.29510473495745 -530.0983944438487,-153.62523175382182" stroke="#00f" stroke-linecap="round" stroke-linejoin="round"/><polyline fill="none" points="54.08825909813797,-105.00419853761842 56.588259098167775,-105.67407151864668 58.41838611714055,-107.50419853754087 59.08825909827616,-110.00419853754192 58.41838611724789,-112.50419853757174 56.588259098353696,-114.33432555654451 54.08825909835265,-115.00419853768013 51.588259098322844,-114.33432555665186 49.75813207935006,-112.50419853775767 49.088259098214444,-110.00419853775662 49.758132079242706,-107.50419853772681 51.5882590981369,-105.67407151875403 54.08825909813795,-105.00419853761842" stroke="#ffa500" stroke-linecap="round" stroke-linejoin="round"/><polyline fill="none" points="494.25995893219556,-192.24588735573775 496.75995893222535,-192.91576033676603 498.59008595119815,-194.74588735566022 499.25995893233375,-197.24588735566127 498.59008595130547,-199.74588735569108 496.7599589324113,-201.57601437466386 494.25995893241026,-202.24588735579948 491.75995893238047,-201.5760143747712 489.92983191340767,-199.74588735587702 489.25995893227207,-197.24588735587596 489.92983191330035,-194.74588735584615 491.75995893219454,-192.91576033687338 494.25995893219556,-192.24588735573775" stroke="#00f" stroke-linecap="round" stroke-linejoin="round"/><polyline fill="none" points="-499.02065185757976,-308.1916909439059 -496.52065185755,-308.86156392493416 -494.6905248385772,-310.69169094382835 -494.0206518574416,-313.19169094382937 -494.69052483846986,-315.69169094385916 -496.52065185736404,-317.52181796283196 -499.02065185736507,-318.19169094396756 -501.52065185739485,-317.5218179629393 -503.35077887636766,-315.6916909440451 -504.02065185750325,-313.19169094404407 -503.350778876475,-310.6916909440143 -501.5206518575808,-308.8615639250415 -499.02065185757976,-308.1916909439059" stroke="#00f" stroke-linecap="round" stroke-linejoin="round"/><polyline fill="none" points="-400.7460033063071,-114.7562258548687 -398.2460033062773,-115.42609883589697 -396.4158762873045,-117.25622585479115 -395.7460033061689,-119.7562258547922 -396.4158762871972,-122.25622585482202 -398.2460033060914,-124.08635287379481 -400.7460033060924,-124.75622585493043 -403.2460033061222,-124.08635287390217 -405.076130325095,-122.25622585500798 -405.7460033062306,-119.75622585500693 -405.0761303252023,-117.25622585497712 -403.2460033063081,-115.42609883600433 -400.7460033063071,-114.7562258548687" stroke="#00f" stroke-linecap="round" stroke-linejoin="round"/><polyline fill="none" points="-528.741636398134,-200.95143450918124 -526.2416363981042,-201.6213074902095 -524.4115093791314,-203.45143450910368 -523.7416363979958,-205.95143450910473 -524.411509379024,-208.45143450913454 -526.2416363979182,-210.28156152810735 -528.7416363979193,-210.95143450924297 -531.241636397949,-210.28156152821472 -533.0717634169218,-208.45143450932053 -533.7416363980575,-205.95143450931948 -533.0717634170293,-203.45143450928967 -531.241636398135,-201.62130749031687 -528.741636398134,-200.95143450918124" stroke="#ffa500" stroke-linecap="round" stroke-linejoin="round"/><polyline fill="none" points="-325.52527577209565,-126.83512971696999 -323.0252757720658,-127.50500269799824 -321.195148753093,-129.33512971689242 -320.52527577195735,-131.83512971689348 -321.19514875298563,-134.3351297169233 -323.0252757718798,-136.1652567358961 -325.52527577188084,-136.83512971703172 -328.0252757719107,-136.16525673600347 -329.8554027908835,-134.33512971710928 -330.52527577201914,-131.83512971710823 -329.85540279099087,-129.33512971707842 -328.0252757720967,-127.50500269810563 -325.52527577209565,-126.83512971697" stroke="#ffa500" stroke-linecap="round" stroke-linejoin="round"/><polyline fill="none" points="-283.3072498342989,-195.7448030216577 -280.80724983426904,-196.41467600268595 -278.97712281529624,-198.24480302158014 -278.3072498341606,-200.7448030215812 -278.97712281518886,-203.244803021611 -280.80724983408305,-205.0749300405838 -283.3072498340841,-205.74480302171943 -285.8072498341139,-205.07493004069119 -287.6373768530867,-203.244803021797 -288.3072498342224,-200.74480302179595 -287.6373768531941,-198.24480302176613 -285.8072498342999,-196.41467600279333 -283.3072498342989,-195.7448030216577" stroke="#ffa500" stroke-linecap="round" stroke-linejoin="round"/><polyline fill="none" points="-483.50303487629037,-290.20412416287365 -481.00303487626053,-290.87399714390193 -479.1729078572877,-292.7041241627961 -478.50303487615207,-295.20412416279714 -479.17290785718035,-297.704124162827 -481.00303487607454,-299.5342511817998 -483.50303487607556,-300.20412416293544 -486.0030348761054,-299.53425118190717 -487.8331618950782,-297.704124163013 -488.50303487621386,-295.20412416301195 -487.8331618951856,-292.7041241629821 -486.0030348762914,-290.8739971440093 -483.50303487629037,-290.20412416287365" stroke="#00f" stroke-linecap="round" stroke-linejoin="round"/><polyline fill="none" points="-327.73412518296067,-186.4341914781729 -325.2341251829308,-187.10406445920114 -323.403998163958,-188.93419147809533 -322.73412518282237,-191.43419147809638 -323.4039981638506,-193.9341914781262 -325.2341251827448,-195.764318497099 -327.7341251827458,-196.43419147823462 -330.23412518277564,-195.76431849720638 -332.06425220174845,-193.9341914783122 -332.7341251828841,-191.43419147831113 -332.0642522018559,-188.93419147828132 -330.2341251829617,-187.10406445930852 -327.73412518296067,-186.4341914781729" stroke="#00f" stroke-linecap="round" stroke-linejoin="round"/><polyline fill="none" points="-427.7211889307419,-29.408665845578966 -425.22118893071206,-30.07853882660721 -423.39106191173926,-31.908665845501396 -422.7211889306036,-34.40866584550244 -423.3910619116318,-36.90866584553226 -425.221188930526,-38.738792864505065 -427.72118893052703,-39.408665845640705 -430.2211889305569,-38.73879286461246 -432.0513159495297,-36.90866584571828 -432.72118893066533,-34.40866584571724 -432.0513159496371,-31.908665845687416 -430.2211889307429,-30.078538826714613 -427.7211889307419,-29.408665845578973" stroke="#ffa500" stroke-linecap="round" stroke-linejoin="round"/><polyline fill="none" points="-524.0326672228678,-304.9185726575797 -521.532667222838,-305.58844563860794 -519.7025402038652,-307.4185726575021 -519.0326672227295,-309.91857265750315 -519.7025402037577,-312.418572657533 -521.5326672226519,-314.2486996765058 -524.0326672226529,-314.91857265764145 -526.5326672226827,-314.2486996766132 -528.3627942416555,-312.41857265771904 -529.0326672227911,-309.918572657718 -528.3627942417629,-307.4185726576882 -526.5326672228688,-305.58844563871537 -524.0326672228678,-304.9185726575797" stroke="#00f" stroke-linecap="round" stroke-linejoin="round"/><polyline fill="none" points="-6.790950922703231,-95.98342294544783 -4.290950922673406,-96.65329592647606 -2.4608239037006,-98.48342294537024 -1.7909509225649551,-100.98342294537129 -2.460823903593196,-103.48342294540112 -4.290950922487377,-105.31354996437392 -6.790950922488424,-105.98342294550956 -9.290950922518249,-105.31354996448133 -11.121077941491055,-103.48342294558715 -11.7909509226267,-100.9834229455861 -11.121077941598461,-98.48342294555627 -9.290950922704281,-96.65329592658347 -6.790950922703235,-95.98342294544783" stroke="#00f" stroke-linecap="round" stroke-linejoin="round"/><polyline fill="none" points="-414.40040590631605,-248.92043444736223 -411.9004059062862,-249.59030742839047 -410.0702788873134,-251.42043444728466 -409.40040590617775,-253.92043444728571 -410.070278887206,-256.42043444731553 -411.90040590610016,-258.25056146628833 -414.4004059061012,-258.920434447424 -416.900405906131,-258.25056146639577 -418.73053292510383,-256.4204344475016 -419.4004059062395,-253.92043444750053 -418.73053292521126,-251.4204344474707 -416.9004059063171,-249.5903074284979 -414.40040590631605,-248.92043444736225" stroke="#ffa500" stroke-linecap="round" stroke-linejoin="round"/><polyline fill="none" points="-376.27338768667727,-233.33961159035076 -373.7733876866474,-234.009484571379 -371.9432606676746,-235.8396115902732 -371.27338768653897,-238.33961159027425 -371.9432606675672,-240.83961159030406 -373.7733876864614,-242.66973860927686 -376.2733876864624,-243.33961159041252 -378.77338768649224,-242.66973860938427 -380.60351470546505,-240.83961159049008 -381.2733876866007,-238.33961159048903 -380.6035147055725,-235.83961159045919 -378.7733876866783,-234.00948457148638 -376.27338768667727,-233.33961159035073" stroke="#ffa500" stroke-linecap="round" stroke-linejoin="round"/><polyline fill="none" points="-392.14753697042113,-187.5449904394963 -389.6475369703913,-188.21486342052452 -387.8174099514185,-190.0449904394187 -387.14753697028283,-192.54499043941976 -387.81740995131105,-195.0449904394496 -389.64753697020524,-196.8751174584224 -392.14753697020626,-197.54499043955806 -394.6475369702361,-196.87511745852984 -396.4776639892089,-195.04499043963565 -397.14753697034456,-192.5449904396346 -396.47766398931634,-190.04499043960476 -394.64753697042215,-188.21486342063196 -392.14753697042113,-187.5449904394963" stroke="#ffa500" stroke-linecap="round" stroke-linejoin="round"/><polyline fill="none" points="-569.2663382273389,-220.89689588732492 -566.7663382273091,-221.56676886835314 -564.9362112083363,-223.39689588724733 -564.2663382272007,-225.89689588724838 -564.9362112082289,-228.39689588727822 -566.766338227123,-230.22702290625102 -569.266338227124,-230.89689588738668 -571.7663382271538,-230.22702290635846 -573.5964652461266,-228.3968958874643 -574.2663382272623,-225.89689588746324 -573.5964652462341,-223.3968958874334 -571.7663382273399,-221.5667688684606 -569.2663382273389,-220.89689588732494" stroke="#00f" stroke-linecap="round" stroke-linejoin="round"/><polyline fill="none" points="-288.0997958704922,34.83500859645275 -285.59979587046234,34.165135615424525 -283.76966885148954,32.33500859653035 -283.0997958703539,29.835008596529306 -283.7696688513821,27.335008596499474 -285.5997958702763,25.504881577526657 -288.0997958702773,24.835008596391 -290.59979587030716,25.504881577419226 -292.42992288927996,27.3350085963134 -293.0997958704156,29.835008596314445 -292.4299228893874,32.33500859634428 -290.5997958704932,34.1651356153171 -288.0997958704922,34.83500859645276" stroke="#ffa500" stroke-linecap="round" stroke-linejoin="round"/><polyline fill="none" points="-370.264672714352,-260.2204895702242 -367.76467271432216,-260.8903625512524 -365.93454569534936,-262.7204895701466 -365.2646727142137,-265.2204895701476 -365.9345456952419,-267.72048957017745 -367.7646727141361,-269.55061658915025 -370.26467271413713,-270.2204895702859 -372.764672714167,-269.5506165892577 -374.5947997331398,-267.7204895703635 -375.26467271427543,-265.2204895703625 -374.5947997332472,-262.72048957033263 -372.764672714353,-260.89036255135983 -370.264672714352,-260.2204895702242" stroke="#ffa500" stroke-linecap="round" stroke-linejoin="round"/><polyline fill="none" points="444.85441205194104,-184.17256006957228 447.3544120519709,-184.8424330506005 449.1845390709437,-186.67256006949466 449.85441205207934,-189.17256006949572 449.1845390710511,-191.67256006952556 447.35441205215693,-193.5026870884984 444.8544120521559,-194.17256006963405 442.35441205212607,-193.50268708860582 440.52428503315326,-191.67256006971166 439.8544120520176,-189.1725600697106 440.5242850330458,-186.67256006968077 442.35441205194,-184.84243305070794 444.85441205194104,-184.17256006957228" stroke="#ffa500" stroke-linecap="round" stroke-linejoin="round"/><polyline fill="none" points="-427.9796840688419,-271.98540160001636 -425.47968406881205,-272.6552745810446 -423.64955704983925,-274.48540159993877 -422.9796840687036,-276.9854015999398 -423.6495570497318,-279.48540159996963 -425.479684068626,-281.31552861894244 -427.979684068627,-281.9854016000781 -430.47968406865687,-281.31552861904987 -432.30981108762967,-279.4854016001557 -432.9796840687653,-276.98540160015466 -432.3098110877371,-274.4854016001248 -430.4796840688429,-272.655274581152 -427.9796840688419,-271.98540160001636" stroke="#ffa500" stroke-linecap="round" stroke-linejoin="round"/><polyline fill="none" points="-291.7487231174928,-105.12657260064681 -289.24872311746293,-105.79644558167503 -287.4185960984901,-107.6265726005692 -286.7487231173545,-110.12657260057026 -287.4185960983827,-112.6265726006001 -289.2487231172769,-114.45669961957293 -291.7487231172779,-115.1265726007086 -294.24872311730775,-114.45669961968038 -296.07885013628055,-112.6265726007862 -296.7487231174162,-110.12657260078515 -296.078850136388,-107.62657260075531 -294.2487231174938,-105.79644558178248 -291.7487231174928,-105.12657260064681" stroke="#ffa500" stroke-linecap="round" stroke-linejoin="round"/><polyline fill="none" points="-320.02033142106734,-158.97659786928693 -317.5203314210375,-159.64647085031515 -315.6902044020647,-161.47659786920931 -315.02033142092904,-163.97659786921037 -315.69020440195726,-166.4765978692402 -317.52033142085145,-168.30672488821304 -320.0203314208525,-168.97659786934872 -322.5203314208823,-168.3067248883205 -324.3504584398551,-166.47659786942634 -325.0203314209908,-163.9765978694253 -324.35045843996255,-161.47659786939545 -322.52033142106836,-159.64647085042262 -320.02033142106734,-158.97659786928693" stroke="#ffa500" stroke-linecap="round" stroke-linejoin="round"/><polyline fill="none" points="-391.65304061276504,-134.81063717012248 -389.1530406127352,-135.4805101511507 -387.32291359376234,-137.31063717004486 -386.6530406126267,-139.8106371700459 -387.3229135936549,-142.31063717007575 -389.1530406125491,-144.14076418904858 -391.6530406125501,-144.81063717018426 -394.15304061257996,-144.14076418915604 -395.9831676315528,-142.31063717026188 -396.65304061268847,-139.81063717026083 -395.98316763166025,-137.310637170231 -394.15304061276606,-135.48051015125816 -391.65304061276504,-134.81063717012248" stroke="#ffa500" stroke-linecap="round" stroke-linejoin="round"/><polyline fill="none" points="-457.5852261698439,-214.382565239674 -455.08522616981406,-215.05243822070221 -453.2550991508412,-216.88256523959637 -452.58522616970555,-219.38256523959743 -453.25509915073377,-221.88256523962727 -455.08522616962796,-223.7126922586001 -457.585226169629,-224.38256523973578 -460.0852261696588,-223.71269225870756 -461.9153531886317,-221.8825652398134 -462.58522616976734,-219.38256523981235 -461.9153531887391,-216.8825652397825 -460.08522616984493,-215.05243822080968 -457.5852261698439,-214.382565239674" stroke="#00f" stroke-linecap="round" stroke-linejoin="round"/><polyline fill="none" points="-437.40521465049045,-55.65686343836272 -434.9052146504606,-56.32673641939093 -433.07508763148775,-58.15686343828509 -432.4052146503521,-60.65686343828614 -433.0750876313803,-63.15686343831598 -434.9052146502745,-64.98699045728881 -437.4052146502755,-65.6568634384245 -439.90521465030537,-64.98699045739629 -441.7353416692782,-63.15686343850213 -442.4052146504139,-60.656863438501084 -441.73534166938566,-58.15686343847124 -439.9052146504915,-56.3267364194984 -437.40521465049045,-55.65686343836272" stroke="#00f" stroke-linecap="round" stroke-linejoin="round"/><polyline fill="none" points="-257.5228345165379,-50.220609443595464 -255.02283451650806,-50.89048242462367 -253.19270749753522,-52.72060944351783 -252.52283451639954,-55.220609443518875 -253.19270749742776,-57.72060944354872 -255.02283451632192,-59.550736462521556 -257.522834516323,-60.22060944365724 -260.0228345163528,-59.55073646262903 -261.8529615353257,-57.72060944373487 -262.5228345164614,-55.22060944373383 -261.85296153543317,-52.720609443703985 -260.02283451653904,-50.89048242473115 -257.522834516538,-50.22060944359546" stroke="#ffa500" stroke-linecap="round" stroke-linejoin="round"/><polyline fill="none" points="-227.08997657760182,-16.680812910320405 -224.58997657757197,-17.35068589134861 -222.75984955859914,-19.18081291024277 -222.08997657746346,-21.680812910243816 -222.75984955849165,-24.180812910273662 -224.5899765773858,-26.010939929246504 -227.08997657738686,-26.68081291038219 -229.5899765774167,-26.010939929353988 -231.42010359638954,-24.18081291045983 -232.08997657752522,-21.680812910458787 -231.42010359649703,-19.18081291042894 -229.58997657760287,-17.350685891456095 -227.08997657760182,-16.680812910320405" stroke="#ffa500" stroke-linecap="round" stroke-linejoin="round"/><polyline fill="none" points="465.3164239678668,-217.35541842195602 467.81642396789664,-218.0252914029842 469.6465509868695,-219.85541842187837 470.3164239680052,-222.35541842187942 469.646550986977,-224.85541842190926 467.81642396808286,-226.6855454408821 465.31642396808184,-227.35541842201778 462.816423968052,-226.68554544098959 460.98629694907913,-224.85541842209543 460.3164239679434,-222.35541842209437 460.98629694897164,-219.85541842206453 462.8164239678658,-218.02529140309167 465.3164239678668,-217.355418421956" stroke="#ffa500" stroke-linecap="round" stroke-linejoin="round"/><polyline fill="none" points="-413.2385247512732,-52.27222376792917 -410.73852475124335,-52.94209674895737 -408.9083977322705,-54.77222376785153 -408.2385247511348,-57.27222376785257 -408.908397732163,-59.77222376788242 -410.7385247510571,-61.60235078685527 -413.23852475105815,-62.272223767990965 -415.738524751088,-61.60235078696277 -417.56865177006085,-59.77222376806861 -418.23852475119656,-57.27222376806757 -417.56865177016834,-54.77222376803772 -415.7385247512742,-52.94209674906487 -413.2385247512732,-52.27222376792918" stroke="#ffa500" stroke-linecap="round" stroke-linejoin="round"/><polyline fill="none" points="22.48906133474619,-94.22589516911604 24.98906133477604,-94.89576815014424 26.81918835374889,-96.7258951690384 27.489061334884585,-99.22589516903945 26.81918835385639,-101.7258951690693 24.989061334962237,-103.55602218804215 22.489061334961193,-104.22589516917785 19.989061334931343,-103.55602218814965 18.158934315958493,-101.7258951692555 17.489061334822797,-99.22589516925444 18.158934315850992,-96.72589516922459 19.989061334745145,-94.89576815025174 22.48906133474619,-94.22589516911604" stroke="#ffa500" stroke-linecap="round" stroke-linejoin="round"/><polyline fill="none" points="480.4374671494387,-169.40207977287847 482.93746714946855,-170.07195275390666 484.7675941684414,-171.90207977280082 485.4374671495771,-174.40207977280187 484.7675941685489,-176.9020797728317 482.93746714965476,-178.73220679180457 480.43746714965374,-179.40207977294028 477.9374671496239,-178.7322067919121 476.10734013065104,-176.90207977301793 475.4374671495153,-174.40207977301688 476.10734013054355,-171.90207977298704 477.9374671494377,-170.07195275401418 480.4374671494387,-169.40207977287847" stroke="#ffa500" stroke-linecap="round" stroke-linejoin="round"/><polyline fill="none" points="67.93066464766824,-82.31004342452522 70.4306646476981,-82.97991640555341 72.26079166667095,-84.81004342444756 72.93066464780665,-87.31004342444861 72.26079166677846,-89.81004342447847 70.43066464788431,-91.64017044345132 67.93066464788326,-92.31004342458702 65.4306646478534,-91.64017044355883 63.60053762888055,-89.81004342466468 62.93066464774485,-87.31004342466363 63.60053762877304,-84.81004342463378 65.43066464766719,-82.97991640566092 67.93066464766824,-82.31004342452522" stroke="#ffa500" stroke-linecap="round" stroke-linejoin="round"/><polyline fill="none" points="-346.84302705313655,-200.64731585215233 -344.3430270531067,-201.31718883318052 -342.51290003413385,-203.14731585207468 -341.84302705299814,-205.64731585207574 -342.5129000340263,-208.14731585210558 -344.34302705292043,-209.97744287107844 -346.84302705292146,-210.64731585221415 -349.3430270529513,-209.97744287118596 -351.17315407192416,-208.1473158522918 -351.84302705305987,-205.64731585229075 -351.1731540720317,-203.1473158522609 -349.3430270531376,-201.31718883328804 -346.84302705313655,-200.64731585215233" stroke="#ffa500" stroke-linecap="round" stroke-linejoin="round"/><polyline fill="none" points="-411.84078831588295,-149.14813746752424 -409.3407883158531,-149.81801044855243 -407.51066129688024,-151.6481374674466 -406.84078831574453,-154.14813746744764 -407.5106612967727,-156.64813746747748 -409.3407883156668,-158.47826448645034 -411.84078831566785,-159.14813746758605 -414.3407883156977,-158.47826448655786 -416.17091533467055,-156.6481374676637 -416.84078831580626,-154.14813746766265 -416.1709153347781,-151.6481374676328 -414.34078831588397,-149.81801044865995 -411.84078831588295,-149.14813746752424" stroke="#ffa500" stroke-linecap="round" stroke-linejoin="round"/><polyline fill="none" points="-343.7047214650128,-225.89055479568333 -341.204721464983,-226.56042777671152 -339.3745944460101,-228.39055479560568 -338.7047214648744,-230.89055479560673 -339.3745944459026,-233.3905547956366 -341.2047214647967,-235.22068181460946 -343.70472146479773,-235.89055479574517 -346.20472146482757,-235.22068181471698 -348.03484848380043,-233.39055479582282 -348.70472146493614,-230.89055479582177 -348.034848483908,-228.3905547957919 -346.20472146501385,-226.56042777681904 -343.7047214650128,-225.89055479568333" stroke="#ffa500" stroke-linecap="round" stroke-linejoin="round"/><polyline fill="none" points="-484.88781954611966,-222.0373997462156 -482.3878195460898,-222.7072727272438 -480.55769252711696,-224.53739974613796 -479.88781954598124,-227.03739974613902 -480.5576925270094,-229.5373997461689 -482.38781954590354,-231.36752676514175 -484.88781954590456,-232.03739974627746 -487.3878195459344,-231.36752676524927 -489.21794656490727,-229.5373997463551 -489.887819546043,-227.03739974635405 -489.2179465650148,-224.53739974632418 -487.3878195461207,-222.70727272735132 -484.88781954611966,-222.0373997462156" stroke="#008000" stroke-linecap="round" stroke-linejoin="round"/><polyline fill="none" points="-344.46232680224165,-172.88198539470426 -341.9623268022118,-173.55185837573245 -340.13219978323895,-175.38198539462658 -339.46232680210323,-177.88198539462763 -340.1321997831314,-180.3819853946575 -341.96232680202553,-182.21211241363036 -344.46232680202655,-182.88198539476608 -346.9623268020564,-182.21211241373788 -348.79245382102926,-180.38198539484375 -349.46232680216497,-177.8819853948427 -348.7924538211368,-175.38198539481283 -346.96232680224267,-173.55185837583997 -344.46232680224165,-172.88198539470426" stroke="#ffa500" stroke-linecap="round" stroke-linejoin="round"/><polyline fill="none" points="-353.7233387286612,-125.40526653101767 -351.22333872863135,-126.07513951204585 -349.3932117096585,-127.90526653094 -348.7233387285228,-130.40526653094105 -349.39321170955094,-132.90526653097092 -351.22333872844507,-134.73539354994378 -353.7233387284461,-135.4052665310795 -356.22333872847594,-134.73539355005133 -358.0534657474488,-132.9052665311572 -358.7233387285845,-130.40526653115614 -358.05346574755634,-127.90526653112629 -356.2233387286622,-126.07513951215341 -353.7233387286612,-125.40526653101769" stroke="#ffa500" stroke-linecap="round" stroke-linejoin="round"/><polyline fill="none" points="-283.3876751811032,-168.22312225440012 -280.88767518107335,-168.8929952354283 -279.0575481621005,-170.72312225432242 -278.3876751809648,-173.22312225432347 -279.05754816199294,-175.72312225435334 -280.8876751808871,-177.5532492733262 -283.3876751808881,-178.2231222544619 -285.88767518091794,-177.55324927343375 -287.7178021998908,-175.72312225453962 -288.3876751810265,-173.22312225453857 -287.71780219999835,-170.7231222545087 -285.8876751811042,-168.89299523553584 -283.3876751811032,-168.22312225440012" stroke="#ffa500" stroke-linecap="round" stroke-linejoin="round"/><polyline fill="none" points="-376.10060962932585,-106.93640023093803 -373.600609629296,-107.60627321196621 -371.77048261032314,-109.43640023086036 -371.10060962918743,-111.93640023086141 -371.7704826102156,-114.43640023089128 -373.6006096291097,-116.26652724986415 -376.10060962911075,-116.93640023099988 -378.6006096291406,-116.2665272499717 -380.43073664811345,-114.43640023107756 -381.10060962924916,-111.9364002310765 -380.430736648221,-109.43640023104663 -378.60060962932687,-107.60627321207376 -376.10060962932585,-106.93640023093803" stroke="#00f" stroke-linecap="round" stroke-linejoin="round"/><polyline fill="none" points="-480.2963508914246,-112.56204259268938 -477.79635089139475,-113.23191557371756 -475.9662238724219,-115.0620425926117 -475.2963508912862,-117.56204259261276 -475.96622387231434,-120.06204259264263 -477.7963508912085,-121.8921696116155 -480.2963508912095,-122.56204259275123 -482.79635089123934,-121.89216961172306 -484.6264779102122,-120.06204259282892 -485.2963508913479,-117.56204259282786 -484.62647791031975,-115.062042592798 -482.7963508914256,-113.23191557382512 -480.2963508914246,-112.5620425926894" stroke="#00f" stroke-linecap="round" stroke-linejoin="round"/><polyline fill="none" points="-554.6991776084724,-170.30460009317574 -552.1991776084425,-170.9744730742039 -550.3690505894696,-172.80460009309803 -549.6991776083338,-175.30460009309908 -550.369050589362,-177.80460009312895 -552.1991776082562,-179.63472711210184 -554.6991776082572,-180.30460009323758 -557.1991776082871,-179.63472711220942 -559.02930462726,-177.8046000933153 -559.6991776083958,-175.30460009331424 -559.0293046273675,-172.80460009328436 -557.1991776084734,-170.97447307431148 -554.6991776084724,-170.30460009317574" stroke="#ffa500" stroke-linecap="round" stroke-linejoin="round"/><polyline fill="none" points="-255.52706839261506,-103.51909061281826 -253.0270683925852,-104.18896359384642 -251.1969413736123,-106.01909061274056 -250.52706839247656,-108.5190906127416 -251.19694137350473,-111.01909061277148 -253.02706839239886,-112.84921763174435 -255.5270683923999,-113.51909061288008 -258.0270683924298,-112.84921763185191 -259.85719541140264,-111.01909061295778 -260.52706839253835,-108.51909061295673 -259.8571954115102,-106.01909061292686 -258.02706839261606,-104.18896359395397 -255.527068392615,-103.51909061281823" stroke="#ffa500" stroke-linecap="round" stroke-linejoin="round"/><polyline fill="none" points="-232.05505607974607,-42.358112058718454 -229.5550560797162,-43.02798503974662 -227.7249290607433,-44.85811205864076 -227.05505607960757,-47.3581120586418 -227.72492906063573,-49.85811205867167 -229.55505607952986,-51.68823907764455 -232.0550560795309,-52.358112058780286 -234.55505607956079,-51.68823907775212 -236.38518309853367,-49.858112058857984 -237.0550560796694,-47.35811205885694 -236.38518309864125,-44.85811205882707 -234.55505607974712,-43.02798503985419 -232.05505607974607,-42.358112058718454" stroke="#ffa500" stroke-linecap="round" stroke-linejoin="round"/><polyline fill="none" points="-434.91030510570465,-200.3991670298745 -432.4103051056748,-201.06904001090265 -430.58017808670195,-202.89916702979679 -429.91030510556624,-205.39916702979784 -430.5801780865944,-207.8991670298277 -432.41030510548853,-209.7292940488006 -434.91030510548956,-210.39916702993634 -437.41030510551946,-209.72929404890817 -439.2404321244923,-207.89916703001404 -439.910305105628,-205.399167030013 -439.24043212459986,-202.89916702998312 -437.41030510570573,-201.06904001101023 -434.9103051057047,-200.3991670298745" stroke="#00f" stroke-linecap="round" stroke-linejoin="round"/><polyline fill="none" points="-527.5005107135069,-175.3487691392079 -525.000510713477,-176.01864212023605 -523.170383694504,-177.84876913913018 -522.5005107133683,-180.34876913913124 -523.1703836943964,-182.8487691391611 -525.0005107132905,-184.678896158134 -527.5005107132915,-185.34876913926973 -530.0005107133214,-184.67889615824157 -531.8306377322943,-182.84876913934744 -532.5005107134301,-180.3487691393464 -531.830637732402,-177.84876913931652 -530.0005107135079,-176.01864212034363 -527.5005107135069,-175.3487691392079" stroke="#00f" stroke-linecap="round" stroke-linejoin="round"/><polyline fill="none" points="-239.05520480480396,38.656962308123774 -236.5552048047741,37.98708932709562 -234.7250777858012,36.156962308201486 -234.05520480466546,33.65696230820044 -234.72507778569363,31.156962308170566 -236.55520480458776,29.326835289197675 -239.0552048045888,28.65696230806193 -241.55520480461868,29.326835289090088 -243.38533182359157,31.15696230798422 -244.0552048047273,33.65696230798527 -243.38533182369915,36.15696230801514 -241.55520480480502,37.98708932698803 -239.05520480480396,38.656962308123774" stroke="#ffa500" stroke-linecap="round" stroke-linejoin="round"/><polyline fill="none" points="-366.9992213912139,-146.6726110905477 -364.499221391184,-147.34248407157585 -362.6690943722111,-149.17261109046999 -361.9992213910753,-151.67261109047104 -362.6690943721035,-154.1726110905009 -364.4992213909976,-156.0027381094738 -366.9992213909986,-156.67261109060954 -369.4992213910285,-156.00273810958137 -371.32934841000144,-154.17261109068724 -371.9992213911372,-151.6726110906862 -371.32934841010905,-149.17261109065632 -369.4992213912149,-147.34248407168343 -366.9992213912139,-146.6726110905477" stroke="#ffa500" stroke-linecap="round" stroke-linejoin="round"/><polyline fill="none" points="-480.2377995526223,-197.6053318218096 -477.7377995525924,-198.27520480283778 -475.90767253361946,-200.1053318217319 -475.2377995524837,-202.60533182173296 -475.90767253351186,-205.10533182176283 -477.737799552406,-206.93545884073572 -480.237799552407,-207.60533182187146 -482.7377995524369,-206.9354588408433 -484.5679265714098,-205.10533182194916 -485.2377995525456,-202.6053318219481 -484.56792657151743,-200.10533182191824 -482.7377995526233,-198.27520480294535 -480.2377995526223,-197.6053318218096" stroke="#f00" stroke-linecap="round" stroke-linejoin="round"/><polyline fill="none" points="-438.0289121412524,-226.57041008729 -435.5289121412225,-227.24028306831818 -433.6987851222496,-229.0704100872123 -433.02891214111384,-231.57041008721336 -433.698785122142,-234.07041008724323 -435.52891214103613,-235.90053710621612 -438.02891214103715,-236.57041008735186 -440.52891214106705,-235.90053710632372 -442.35903916003997,-234.0704100874296 -443.02891214117574,-231.57041008742854 -442.3590391601476,-229.07041008739867 -440.52891214125344,-227.24028306842578 -438.0289121412524,-226.57041008729004" stroke="#008000" stroke-linecap="round" stroke-linejoin="round"/><polyline fill="none" points="-418.0301581930943,-78.1328055399113 -415.5301581930644,-78.80267852093945 -413.70003117409146,-80.63280553983358 -413.0301581929557,-83.13280553983464 -413.70003117398386,-85.63280553986452 -415.530158192878,-87.46293255883742 -418.030158192879,-88.13280553997318 -420.5301581929089,-87.46293255894503 -422.36028521188183,-85.6328055400509 -423.0301581930176,-83.13280554004984 -422.36028521198944,-80.63280554001996 -420.5301581930953,-78.80267852104706 -418.0301581930943,-78.1328055399113" stroke="#ffa500" stroke-linecap="round" stroke-linejoin="round"/><polyline fill="none" points="-341.1512037277406,-148.2679742083392 -338.6512037277107,-148.93784718936735 -336.8210767087378,-150.76797420826148 -336.151203727602,-153.26797420826253 -336.8210767086302,-155.7679742082924 -338.6512037275243,-157.59810122726532 -341.15120372752534,-158.26797420840109 -343.65120372755524,-157.59810122737295 -345.48133074652816,-155.76797420847882 -346.1512037276639,-153.26797420847777 -345.48133074663576,-150.7679742084479 -343.65120372774163,-148.93784718947498 -341.1512037277406,-148.2679742083392" stroke="#ffa500" stroke-linecap="round" stroke-linejoin="round"/><polyline fill="none" points="-290.4856685505626,9.473120260988459 -287.9856685505327,8.803247279960317 -286.1555415315598,6.973120261066193 -285.485668550424,4.473120261065146 -286.1555415314522,1.973120261035263 -287.9856685503463,0.14299324206235742 -290.4856685503473,-0.5268797390734028 -292.9856685503772,0.14299324195473828 -294.81579556935014,1.9731202608488614 -295.4856685504859,4.4731202608499085 -294.81579556945775,6.973120260879792 -292.9856685505636,8.803247279852698 -290.4856685505626,9.473120260988459" stroke="#00f" stroke-linecap="round" stroke-linejoin="round"/><polyline fill="none" points="-484.58891116719815,-157.81033659248766 -482.08891116716825,-158.4802095735158 -480.25878414819533,-160.31033659240993 -479.58891116705956,-162.81033659241098 -480.2587841480877,-165.31033659244085 -482.08891116698186,-167.14046361141376 -484.5889111669829,-167.81033659254953 -487.0889111670128,-167.1404636115214 -488.9190381859857,-165.31033659262727 -489.58891116712147,-162.81033659262621 -488.9190381860933,-160.31033659259634 -487.08891116719917,-158.48020957362343 -484.58891116719815,-157.81033659248766" stroke="#00f" stroke-linecap="round" stroke-linejoin="round"/><polyline fill="none" points="-273.80534390057596,-123.35858003516017 -271.30534390054606,-124.02845301618831 -269.47521688157315,-125.85858003508243 -268.8053439004374,-128.35858003508346 -269.47521688146554,-130.85858003511336 -271.3053439003597,-132.68870705408628 -273.8053439003607,-133.35858003522205 -276.3053439003906,-132.6887070541939 -278.1354709193635,-130.85858003529978 -278.8053439004993,-128.35858003529873 -278.1354709194711,-125.85858003526884 -276.305343900577,-124.02845301629593 -273.80534390057596,-123.35858003516016" stroke="#ffa500" stroke-linecap="round" stroke-linejoin="round"/><polyline fill="none" points="-409.145918155748,-201.55581792226297 -406.6459181557181,-202.2256909032911 -404.8157911367452,-204.05581792218524 -404.1459181556094,-206.5558179221863 -404.81579113663753,-209.0558179222162 -406.64591815553166,-210.8859449411891 -409.1459181555327,-211.55581792232488 -411.6459181555626,-210.88594494129674 -413.4760451745355,-209.0558179224026 -414.14591815567127,-206.55581792240156 -413.47604517464316,-204.05581792237166 -411.64591815574903,-202.22569090339874 -409.145918155748,-201.55581792226297" stroke="#00f" stroke-linecap="round" stroke-linejoin="round"/><polyline fill="none" points="-401.18588638633145,-227.88900066720583 -398.68588638630155,-228.55887364823397 -396.85575936732863,-230.3890006671281 -396.18588638619286,-232.88900066712915 -396.85575936722097,-235.38900066715905 -398.6858863861151,-237.21912768613197 -401.1858863861161,-237.88900066726774 -403.685886386146,-237.2191276862396 -405.51601340511894,-235.3890006673455 -406.1858863862547,-232.88900066734445 -405.5160134052266,-230.38900066731455 -403.68588638633247,-228.55887364834163 -401.18588638633145,-227.88900066720586" stroke="#ffa500" stroke-linecap="round" stroke-linejoin="round"/><polyline fill="none" points="-392.8942047958734,-87.38348778163606 -390.3942047958435,-88.0533607626642 -388.5640777768706,-89.88348778155832 -387.8942047957348,-92.38348778155937 -388.56407777676293,-94.88348778158925 -390.39420479565706,-96.71361480056217 -392.8942047956581,-97.38348778169795 -395.394204795688,-96.71361480066982 -397.2243318146609,-94.8834877817757 -397.89420479579667,-92.38348778177465 -397.22433181476856,-89.88348778174475 -395.39420479587443,-88.05336076277183 -392.8942047958734,-87.38348778163605" stroke="#ffa500" stroke-linecap="round" stroke-linejoin="round"/><polyline fill="none" points="-374.3532971579515,-208.1180664940559 -371.8532971579216,-208.78793947508404 -370.0231701389487,-210.61806649397815 -369.3532971578129,-213.1180664939792 -370.023170138841,-215.6180664940091 -371.85329715773514,-217.44819351298202 -374.35329715773616,-218.11806649411778 -376.85329715776606,-217.44819351308965 -378.683424176739,-215.61806649419555 -379.35329715787475,-213.1180664941945 -378.68342417684664,-210.6180664941646 -376.8532971579525,-208.78793947519168 -374.3532971579515,-208.1180664940559" stroke="#ffa500" stroke-linecap="round" stroke-linejoin="round"/><polyline fill="none" points="-545.3179113231279,-231.22022630852032 -542.817911323098,-231.89009928954846 -540.9877843041251,-233.72022630844256 -540.3179113229893,-236.2202263084436 -540.9877843040174,-238.7202263084735 -542.8179113229115,-240.55035332744643 -545.3179113229126,-241.2202263085822 -547.8179113229425,-240.55035332755406 -549.6480383419154,-238.72022630865996 -550.3179113230511,-236.2202263086589 -549.648038342023,-233.720226308629 -547.8179113231289,-231.8900992896561 -545.3179113231279,-231.2202263085203" stroke="#00f" stroke-linecap="round" stroke-linejoin="round"/><polyline fill="none" points="-341.50923438621885,-65.48985723222935 -339.00923438618895,-66.15973021325748 -337.17910736721603,-67.98985723215159 -336.50923438608027,-70.48985723215264 -337.1791073671084,-72.98985723218254 -339.0092343860025,-74.81998425115547 -341.5092343860035,-75.48985723229126 -344.0092343860334,-74.81998425126314 -345.83936140500634,-72.98985723236902 -346.5092343861421,-70.48985723236797 -345.839361405114,-67.98985723233807 -344.0092343862199,-66.15973021336514 -341.50923438621885,-65.48985723222935" stroke="#ffa500" stroke-linecap="round" stroke-linejoin="round"/><polyline fill="none" points="-527.628433618763,-255.52170776125263 -525.1284336187331,-256.19158074228073 -523.2983065997602,-258.02170776117487 -522.6284336186244,-260.5217077611759 -523.2983065996525,-263.0217077612058 -525.1284336185466,-264.8518347801787 -527.6284336185477,-265.5217077613145 -530.1284336185776,-264.85183478028637 -531.9585606375505,-263.02170776139224 -532.6284336186862,-260.5217077613912 -531.9585606376581,-258.0217077613613 -530.128433618764,-256.1915807423884 -527.628433618763,-255.5217077612526" stroke="#ffa500" stroke-linecap="round" stroke-linejoin="round"/><polyline fill="none" points="42.42617358223306,-51.323737027007745 44.92617358226296,-51.993610008035866 46.75630060123589,-53.823737026929976 47.42617358237168,-56.32373702693103 46.75630060134357,-58.82373702696093 44.92617358244946,-60.65386404593386 42.426173582448406,-61.32373702706965 39.92617358241851,-60.653864046041534 38.096046563445576,-58.82373702714742 37.42617358230979,-56.32373702714637 38.0960465633379,-53.82373702711647 39.92617358223201,-51.99361000814354 42.42617358223306,-51.32373702700775" stroke="#ffa500" stroke-linecap="round" stroke-linejoin="round"/><polyline fill="none" points="-289.2141038255489,-143.5658355524354 -286.714103825519,-144.2357085334635 -284.88397680654606,-146.0658355523576 -284.2141038254103,-148.56583555235866 -284.8839768064384,-151.06583555238856 -286.71410382533253,-152.8959625713615 -289.21410382533355,-153.5658355524973 -291.71410382536345,-152.8959625714692 -293.54423084433637,-151.0658355525751 -294.21410382547214,-148.56583555257404 -293.54423084444403,-146.06583555254414 -291.7141038255499,-144.2357085335712 -289.2141038255489,-143.5658355524354" stroke="#00f" stroke-linecap="round" stroke-linejoin="round"/><polyline fill="none" points="-509.4401606928594,-148.08458874437065 -506.9401606928295,-148.75446172539876 -505.1100336738566,-150.58458874429286 -504.44016069272084,-153.0845887442939 -505.11003367374894,-155.5845887443238 -506.9401606926431,-157.41471576329675 -509.4401606926441,-158.08458874443255 -511.940160692674,-157.41471576340444 -513.7702877116469,-155.58458874451034 -514.4401606927827,-153.0845887445093 -513.7702877117546,-150.5845887444794 -511.94016069286045,-148.75446172550645 -509.4401606928594,-148.08458874437065" stroke="#00f" stroke-linecap="round" stroke-linejoin="round"/><polyline fill="none" points="-552.8882476221072,-203.64542572987637 -550.3882476220773,-204.31529871090447 -548.5581206031044,-206.14542572979857 -547.8882476219686,-208.64542572979963 -548.5581206029967,-211.14542572982953 -550.3882476218909,-212.97555274880247 -552.8882476218919,-213.64542572993827 -555.3882476219218,-212.97555274891016 -557.2183746408947,-211.14542573001606 -557.8882476220305,-208.645425730015 -557.2183746410024,-206.1454257299851 -555.3882476221082,-204.31529871101216 -552.8882476221072,-203.64542572987637" stroke="#00f" stroke-linecap="round" stroke-linejoin="round"/><polyline fill="none" points="-243.43629880728616,9.508784279117343 -240.93629880725626,8.838911298089235 -239.10617178828332,7.00878427919513 -238.43629880714752,4.5087842791940815 -239.10617178817563,2.008784279164177 -240.93629880706973,0.17865726019123573 -243.43629880707078,-0.49121572094456456 -245.93629880710068,0.17865726008354232 -247.76642582607363,2.0087842789776467 -248.43629880720943,4.508784278978695 -247.76642582618132,7.0087842790086 -245.93629880728722,8.838911297981543 -243.43629880728616,9.508784279117345" stroke="#ffa500" stroke-linecap="round" stroke-linejoin="round"/><polyline fill="none" points="-431.0402481574978,-99.21916672990493 -428.5402481574679,-99.88903971093303 -426.71012113849497,-101.71916672982714 -426.04024815735914,-104.21916672982819 -426.71012113838725,-106.71916672985809 -428.5402481572813,-108.54929374883103 -431.04024815728235,-109.21916672996684 -433.54024815731225,-108.54929374893874 -435.37037517628517,-106.71916673004463 -436.040248157421,-104.21916673004358 -435.3703751763929,-101.71916673001367 -433.5402481574988,-99.88903971104072 -431.0402481574978,-99.21916672990491" stroke="#ffa500" stroke-linecap="round" stroke-linejoin="round"/><polyline fill="none" points="-269.0390267550646,-7.614580506572263 -266.5390267550347,-8.284453487600366 -264.7088997360617,-10.114580506494468 -264.0390267549259,-12.614580506495518 -264.708899735954,-15.114580506525424 -266.53902675484807,-16.94470752549837 -269.0390267548491,-17.614580506634177 -271.539026754879,-16.944707525606074 -273.36915377385196,-15.114580506711972 -274.0390267549878,-12.614580506710922 -273.3691537739597,-10.114580506681014 -271.5390267550656,-8.284453487708065 -269.0390267550646,-7.614580506572257" stroke="#ffa500" stroke-linecap="round" stroke-linejoin="round"/><polyline fill="none" points="-260.96947212638304,51.78484823448001 -258.46947212635314,51.11497525345191 -256.63934510738017,49.284848234557806 -255.96947212624437,46.784848234556755 -256.63934510727245,44.28484823452685 -258.4694721261665,42.454721215553896 -260.96947212616755,41.784848234418085 -263.46947212619745,42.454721215446185 -265.2995991451704,44.28484823434029 -265.96947212630624,46.78484823434134 -265.29959914527814,49.284848234371246 -263.46947212638406,51.1149752533442 -260.96947212638304,51.78484823448001" stroke="#ffa500" stroke-linecap="round" stroke-linejoin="round"/><polyline fill="none" points="-259.90440557926354,-155.4150604530899 -257.40440557923364,-156.084933434118 -255.5742785602607,-157.9150604530121 -254.90440557912487,-160.41506045301315 -255.57427856015298,-162.91506045304305 -257.4044055790471,-164.745187472016 -259.9044055790481,-165.41506045315182 -262.404405579078,-164.74518747212372 -264.234532598051,-162.91506045322961 -264.9044055791868,-160.41506045322856 -264.2345325981587,-157.91506045319866 -262.4044055792646,-156.08493343422572 -259.9044055792636,-155.4150604530899" stroke="#00f" stroke-linecap="round" stroke-linejoin="round"/><polyline fill="none" points="-437.987748624545,-149.98226806284356 -435.4877486245151,-150.65214104387167 -433.65762160554215,-152.48226806276577 -432.9877486244063,-154.98226806276682 -433.65762160543443,-157.48226806279672 -435.4877486243285,-159.31239508176967 -437.9877486243295,-159.9822680629055 -440.4877486243594,-159.31239508187738 -442.3178756433324,-157.48226806298328 -442.9877486244682,-154.98226806298223 -442.3178756434401,-152.4822680629523 -440.48774862454604,-150.65214104397936 -437.987748624545,-149.98226806284353" stroke="#00f" stroke-linecap="round" stroke-linejoin="round"/><polyline fill="none" points="-531.5313797846333,-280.8421768724285 -529.0313797846034,-281.51204985345663 -527.2012527656304,-283.3421768723507 -526.5313797844947,-285.84217687235173 -527.2012527655228,-288.34217687238163 -529.0313797844169,-290.1723038913546 -531.5313797844179,-290.8421768724904 -534.0313797844478,-290.1723038914623 -535.8615068034208,-288.34217687256825 -536.5313797845565,-285.8421768725672 -535.8615068035284,-283.3421768725373 -534.0313797846343,-281.51204985356435 -531.5313797846333,-280.8421768724285" stroke="#ffa500" stroke-linecap="round" stroke-linejoin="round"/><polyline fill="none" points="-388.64436452244684,-45.97377976736884 -386.14436452241694,-46.64365274839693 -384.31423750344396,-48.47377976729103 -383.64436452230814,-50.97377976729208 -384.31423750333624,-53.47377976732199 -386.1443645222303,-55.30390678629495 -388.64436452223134,-55.97377976743077 -391.14436452226124,-55.30390678640268 -392.9744915412342,-53.47377976750858 -393.64436452237004,-50.97377976750753 -392.97449154134193,-48.473779767477616 -391.14436452244786,-46.64365274850466 -388.64436452244684,-45.97377976736883" stroke="#ffa500" stroke-linecap="round" stroke-linejoin="round"/><polyline fill="none" points="-263.08279961486244,27.070975260083074 -260.58279961483254,26.401102279054985 -258.75267259585956,24.57097526016089 -258.08279961472374,22.070975260159837 -258.75267259575185,19.57097526012992 -260.5827996146459,17.740848241156957 -263.08279961464694,17.070975260021136 -265.58279961467684,17.740848241049225 -267.4129266336498,19.57097525994332 -268.08279961478564,22.070975259944372 -267.41292663375754,24.57097525997429 -265.58279961486346,26.401102278947253 -263.08279961486244,27.070975260083078" stroke="#ffa500" stroke-linecap="round" stroke-linejoin="round"/><polyline fill="none" points="-446.5111419839604,-78.2211676449463 -444.0111419839305,-78.8910406259744 -442.1810149649575,-80.72116764486849 -441.5111419838217,-83.22116764486954 -442.1810149648498,-85.72116764489945 -444.01114198374387,-87.55129466387241 -446.5111419837449,-88.22116764500824 -449.0111419837748,-87.55129466398014 -450.84126900274777,-85.72116764508606 -451.5111419838836,-83.221167645085 -450.8412690028555,-80.72116764505509 -449.0111419839614,-78.89104062608213 -446.5111419839604,-78.2211676449463" stroke="#00f" stroke-linecap="round" stroke-linejoin="round"/><polyline fill="none" points="-323.98843980274484,-100.69136940893078 -321.48843980271494,-101.36124238995886 -319.65831278374196,-103.19136940885295 -318.98843980260614,-105.691369408854 -319.65831278363424,-108.19136940888392 -321.4884398025283,-110.02149642785689 -323.98843980252934,-110.69136940899271 -326.48843980255924,-110.02149642796464 -328.3185668215322,-108.19136940907055 -328.98843980266804,-105.6913694090695 -328.31856682163993,-103.19136940903957 -326.48843980274586,-101.3612423900666 -323.98843980274484,-100.69136940893077" stroke="#ffa500" stroke-linecap="round" stroke-linejoin="round"/><polyline fill="none" points="-502.3140913254976,-244.63896369066848 -499.8140913254677,-245.30883667169655 -497.9839643064947,-247.13896369059066 -497.3140913253589,-249.6389636905917 -497.983964306387,-252.13896369062164 -499.8140913252811,-253.9690907095946 -502.3140913252821,-254.63896369073044 -504.814091325312,-253.96909070970236 -506.644218344285,-252.13896369080825 -507.3140913254208,-249.6389636908072 -506.6442183443927,-247.13896369077727 -504.8140913254986,-245.3088366718043 -502.3140913254976,-244.63896369066848" stroke="#00f" stroke-linecap="round" stroke-linejoin="round"/><polyline fill="none" points="-455.1258589234687,-109.91786814142138 -452.6258589234388,-110.58774112244946 -450.7957319044658,-112.41786814134355 -450.12585892333,-114.9178681413446 -450.7957319043581,-117.41786814137453 -452.62585892325217,-119.2479951603475 -455.1258589232532,-119.91786814148334 -457.6258589232831,-119.24799516045526 -459.45598594225606,-117.41786814156117 -460.1258589233919,-114.91786814156012 -459.4559859423638,-112.41786814153019 -457.6258589234697,-110.58774112255722 -455.1258589234687,-109.91786814142138" stroke="#ffa500" stroke-linecap="round" stroke-linejoin="round"/><polyline fill="none" points="-502.3202395347898,-179.55384097169946 -499.8202395347599,-180.22371395272754 -497.9901125157869,-182.05384097162164 -497.3202395346511,-184.5538409716227 -497.99011251567913,-187.05384097165262 -499.8202395345732,-188.8839679906256 -502.3202395345743,-189.55384097176142 -504.8202395346042,-188.88396799073334 -506.65036655357716,-187.05384097183926 -507.320239534713,-184.5538409718382 -506.65036655368493,-182.05384097180828 -504.82023953479086,-180.2237139528353 -502.32023953478983,-179.5538409716995" stroke="#008000" stroke-linecap="round" stroke-linejoin="round"/><polyline fill="none" points="-250.61272471997853,-25.452293723148735 -248.1127247199486,-26.12216670417681 -246.28259770097563,-27.9522937230709 -245.61272471983978,-30.45229372307195 -246.28259770086785,-32.952293723101874 -248.11272471976193,-34.782420742074855 -250.61272471976298,-35.452293723210694 -253.1127247197929,-34.782420742182616 -254.94285173876588,-32.95229372328853 -255.61272471990173,-30.452293723287475 -254.94285173887366,-27.952293723257547 -253.11272471997958,-26.12216670428457 -250.61272471997853,-25.452293723148728" stroke="#ffa500" stroke-linecap="round" stroke-linejoin="round"/><polyline fill="none" points="41.63478187665298,-76.63502487707582 44.13478187668291,-77.3048978581039 45.96490889565589,-79.13502487699799 46.63478187679173,-81.63502487699904 45.96490889576366,-84.13502487702897 44.13478187686957,-85.96515189600194 41.634781876868516,-86.63502487713778 39.13478187683859,-85.9651518961097 37.30465485786561,-84.13502487721561 36.63478187672976,-81.63502487721456 37.30465485775783,-79.13502487718463 39.13478187665192,-77.30489785821165 41.63478187665297,-76.63502487707581" stroke="#ffa500" stroke-linecap="round" stroke-linejoin="round"/><polyline fill="none" points="-388.49086693229634,-161.709981203858 -385.9908669322664,-162.37985418488609 -384.1607399132934,-164.20998120378016 -383.4908669321576,-166.7099812037812 -384.16073991318564,-169.20998120381114 -385.9908669320797,-171.0401082227841 -388.4908669320808,-171.70998120391997 -390.99086693211075,-171.0401082228919 -392.8209939510837,-169.2099812039978 -393.49086693221955,-166.70998120399676 -392.8209939511915,-164.20998120396683 -390.9908669322974,-162.37985418499386 -388.49086693229634,-161.709981203858" stroke="#ffa500" stroke-linecap="round" stroke-linejoin="round"/><polyline fill="none" points="-457.2558127472542,-186.2834306832068 -454.75581274722424,-186.95330366423488 -452.92568572825127,-188.78343068312896 -452.25581274711544,-191.28343068313 -452.9256857281435,-193.78343068315993 -454.75581274703757,-195.6135577021329 -457.25581274703865,-196.28343068326876 -459.7558127470686,-195.61355770224068 -461.5859397660416,-193.7834306833466 -462.2558127471774,-191.28343068334556 -461.58593976614935,-188.78343068331563 -459.7558127472553,-186.95330366434266 -457.2558127472542,-186.2834306832068" stroke="#00f" stroke-linecap="round" stroke-linejoin="round"/><polyline fill="none" points="-507.71988300907435,-286.6205104862913 -505.2198830090444,-287.2903834673194 -503.3897559900714,-289.12051048621345 -502.7198830089356,-291.6205104862145 -503.38975598996365,-294.1205104862445 -505.2198830088577,-295.95063750521746 -507.7198830088588,-296.6205104863533 -510.21988300888876,-295.95063750532523 -512.0500100278617,-294.12051048643116 -512.7198830089976,-291.6205104864301 -512.0500100279695,-289.1205104864001 -510.21988300907543,-287.29038346742715 -507.71988300907435,-286.6205104862913" stroke="#ffa500" stroke-linecap="round" stroke-linejoin="round"/><polyline fill="none" points="-519.6936724803194,-227.05769884103879 -517.1936724802895,-227.72757182206686 -515.3635454613164,-229.55769884096094 -514.6936724801806,-232.057698840962 -515.3635454612087,-234.55769884099192 -517.1936724801028,-236.38782585996492 -519.6936724801038,-237.05769884110077 -522.1936724801337,-236.38782586007272 -524.0237994991068,-234.55769884117865 -524.6936724802426,-232.0576988411776 -524.0237994992145,-229.55769884114767 -522.1936724803204,-227.72757182217467 -519.6936724803194,-227.0576988410388" stroke="#008000" stroke-linecap="round" stroke-linejoin="round"/><polyline fill="none" points="-363.4341427022492,-53.184423534854666 -360.9341427022192,-53.85429651588273 -359.10401568324625,-55.68442353477681 -358.43414270211036,-58.18442353477786 -359.1040156831384,-60.6844235348078 -360.9341427020325,-62.51455055378079 -363.43414270203357,-63.184423534916654 -365.9341427020635,-62.5145505538886 -367.7642697210365,-60.684423534994515 -368.4341427021724,-58.18442353499346 -367.76426972114433,-55.68442353496353 -365.93414270225026,-53.854296515990534 -363.4341427022492,-53.18442353485467" stroke="#ffa500" stroke-linecap="round" stroke-linejoin="round"/><polyline fill="none" points="-369.0458620117489,-78.77568817459435 -366.54586201171895,-79.44556115562241 -364.715734992746,-81.27568817451649 -364.0458620116101,-83.77568817451754 -364.71573499263815,-86.27568817454748 -366.5458620115322,-88.10581519352047 -369.0458620115333,-88.77568817465632 -371.54586201156326,-88.10581519362826 -373.37598903053623,-86.27568817473419 -374.0458620116721,-83.77568817473313 -373.37598903064406,-81.27568817470319 -371.54586201175,-79.44556115573019 -369.0458620117489,-78.77568817459432" stroke="#ffa500" stroke-linecap="round" stroke-linejoin="round"/><polyline fill="none" points="-452.62015508186613,-248.36171730174345 -450.1201550818362,-249.0315902827715 -448.2900280628632,-250.86171730166558 -447.6201550817273,-253.36171730166663 -448.29002806275537,-255.86171730169656 -450.12015508164944,-257.69184432066953 -452.6201550816505,-258.3617173018054 -455.1201550816805,-257.69184432077736 -456.95028210065345,-255.8617173018833 -457.62015508178933,-253.36171730188224 -456.9502821007613,-250.8617173018523 -455.1201550818672,-249.0315902828793 -452.62015508186613,-248.36171730174345" stroke="#ffa500" stroke-linecap="round" stroke-linejoin="round"/><polyline fill="none" points="-472.87891148202164,-135.87138947637052 -470.3789114819917,-136.54126245739857 -468.5487844630187,-138.37138947629265 -467.8789114818828,-140.8713894762937 -468.5487844629109,-143.37138947632363 -470.37891148180495,-145.20151649529663 -472.878911481806,-145.87138947643248 -475.378911481836,-145.20151649540443 -477.20903850080896,-143.37138947651036 -477.87891148194484,-140.8713894765093 -477.2090385009168,-138.37138947647938 -475.3789114820227,-136.54126245750638 -472.87891148202164,-135.87138947637052" stroke="#00f" stroke-linecap="round" stroke-linejoin="round"/><polyline fill="none" points="-477.4910671199273,-248.04037883444224 -474.99106711989737,-248.7102518154703 -473.1609401009244,-250.54037883436436 -472.4910671197885,-253.0403788343654 -473.16094010081656,-255.54037883439537 -474.99106711971064,-257.3705058533684 -477.4910671197117,-258.0403788345043 -479.9910671197417,-257.37050585347623 -481.8211941387147,-255.54037883458216 -482.4910671198506,-253.0403788345811 -481.82119413882253,-250.54037883455115 -479.99106711992846,-248.71025181557815 -477.4910671199274,-248.04037883444227" stroke="#00f" stroke-linecap="round" stroke-linejoin="round"/><polyline fill="none" points="-248.6679587028501,-132.47557196196928 -246.16795870282013,-133.14544494299733 -244.33783168384713,-134.9755719618914 -243.66795870271125,-137.47557196189246 -244.3378316837393,-139.9755719619224 -246.16795870263337,-141.80569898089541 -248.66795870263442,-142.4755719620313 -251.16795870266438,-141.80569898100325 -252.99808572163738,-139.97557196210917 -253.66795870277326,-137.47557196210812 -252.9980857217452,-134.97557196207816 -251.16795870285114,-133.14544494310516 -248.6679587028501,-132.47557196196928" stroke="#ffa500" stroke-linecap="round" stroke-linejoin="round"/><polyline fill="none" points="-432.33896919448927,-173.1977138281157 -429.8389691944593,-173.86758680914375 -428.0088421754863,-175.69771382803782 -427.3389691943504,-178.19771382803887 -428.00884217537845,-180.69771382806883 -429.8389691942725,-182.52784084704183 -432.3389691942736,-183.1977138281777 -434.83896919430356,-182.52784084714966 -436.6690962132766,-180.6977138282556 -437.33896919441247,-178.19771382825454 -436.6690962133844,-175.69771382822458 -434.83896919449035,-173.86758680925158 -432.33896919448927,-173.1977138281157" stroke="#ffa500" stroke-linecap="round" stroke-linejoin="round"/><polyline fill="none" points="-349.6912326572769,-96.26363810882785 -347.1912326572469,-96.9335110898559 -345.3611056382739,-98.76363810874997 -344.691232657138,-101.26363810875102 -345.36110563816607,-103.76363810878097 -347.19123265706014,-105.59376512775398 -349.6912326570612,-106.26363810888986 -352.1912326570912,-105.59376512786181 -354.0213596760642,-103.76363810896774 -354.6912326572001,-101.26363810896669 -354.02135967617204,-98.76363810893675 -352.19123265727796,-96.93351108996373 -349.6912326572769,-96.26363810882785" stroke="#ffa500" stroke-linecap="round" stroke-linejoin="round"/><polyline fill="none" points="-365.7218119565576,-185.4377447373479 -363.22181195652763,-186.10761771837596 -361.3916849375546,-187.93774473727004 -360.7218119564187,-190.4377447372711 -361.39168493744677,-192.93774473730105 -363.22181195634084,-194.76787175627405 -365.7218119563419,-195.43774473740993 -368.2218119563719,-194.76787175638188 -370.0519389753449,-192.9377447374878 -370.7218119564808,-190.43774473748675 -370.05193897545274,-187.9377447374568 -368.22181195655867,-186.1076177184838 -365.7218119565576,-185.4377447373479" stroke="#00f" stroke-linecap="round" stroke-linejoin="round"/><polyline fill="none" points="-283.6950244590011,-57.05888957021792 -281.19502445897115,-57.728762551245964 -279.3648974399981,-59.55888957014003 -278.69502445886224,-62.05888957014108 -279.3648974398903,-64.55888957017103 -281.19502445878436,-66.38901658914405 -283.69502445878544,-67.05888957027993 -286.1950244588154,-66.3890165892519 -288.0251514777884,-64.55888957035782 -288.6950244589243,-62.05888957035677 -288.02515147789626,-59.55888957032682 -286.1950244590022,-57.7287625513538 -283.6950244590011,-57.05888957021792" stroke="#00f" stroke-linecap="round" stroke-linejoin="round"/><polyline fill="none" points="-422.6952515384165,-124.73521277642439 -420.1952515383866,-125.40508575745243 -418.36512451941354,-127.2352127763465 -417.69525153827766,-129.73521277634757 -418.3651245193057,-132.23521277637752 -420.1952515381998,-134.06533979535055 -422.69525153820086,-134.73521277648643 -425.1952515382308,-134.06533979545839 -427.02537855720385,-132.2352127765643 -427.69525153833973,-129.73521277656326 -427.0253785573117,-127.2352127765333 -425.1952515384176,-125.40508575756029 -422.6952515384165,-124.7352127764244" stroke="#ffa500" stroke-linecap="round" stroke-linejoin="round"/><polyline fill="none" points="-503.8118310199419,-205.28388120777024 -501.31183101991195,-205.95375418879826 -499.4817040009389,-207.78388120769233 -498.81183101980304,-210.28388120769338 -499.4817040008311,-212.78388120772334 -501.31183101972516,-214.61400822669637 -503.81183101972624,-215.28388120783225 -506.3118310197562,-214.61400822680423 -508.14195803872923,-212.78388120791016 -508.8118310198651,-210.2838812079091 -508.14195803883706,-207.78388120787915 -506.311831019943,-205.95375418890612 -503.8118310199419,-205.28388120777024" stroke="#008000" stroke-linecap="round" stroke-linejoin="round"/><polyline fill="none" points="-461.97103596615017,-161.39434450968335 -459.4710359661202,-162.06421749071137 -457.6409089471472,-163.89434450960545 -456.9710359660113,-166.3943445096065 -457.64090894703935,-168.89434450963645 -459.4710359659334,-170.72447152860948 -461.9710359659345,-171.39434450974537 -464.47103596596446,-170.72447152871734 -466.3011629849375,-168.89434450982327 -466.9710359660734,-166.39434450982222 -466.3011629850453,-163.89434450979226 -464.47103596615125,-162.06421749081923 -461.97103596615017,-161.39434450968335" stroke="#ffa500" stroke-linecap="round" stroke-linejoin="round"/><polyline fill="none" points="468.40267763314563,-192.78531763549802 470.9026776331756,-193.45519061652604 472.7328046521486,-195.2853176354201 473.4026776332845,-197.78531763542117 472.73280465225645,-200.28531763545112 470.9026776333624,-202.11544465442415 468.4026776333613,-202.78531763556003 465.90267763333134,-202.115444654532 464.0725506143583,-200.28531763563794 463.4026776332224,-197.7853176356369 464.0725506142505,-195.28531763560693 465.90267763314455,-193.4551906166339 468.40267763314563,-192.785317635498" stroke="#ffa500" stroke-linecap="round" stroke-linejoin="round"/></svg>